<svg width="564" height="156" viewBox="0 0 564 156" fill="none" xmlns="http://www.w3.org/2000/svg">
  <rect width="564" height="156" fill="black" />
  <line x1="498" y1="61" x2="352" y2="61" stroke="#29ABCA" stroke-opacity="0.8" stroke-width="2" />
  <line x1="352" y1="61" x2="206" y2="61" stroke="#FC6255" stroke-width="2" />
  <line x1="206" y1="61" x2="60" y2="61" stroke="#FC6255" stroke-opacity="0.5" stroke-width="2" />
  <circle cx="60.5" cy="60.5" r="24.5" fill="#979797" stroke="white" stroke-width="2" />
  <circle cx="206.5" cy="60.5" r="24.5" fill="#6A6A6A" stroke="white" stroke-width="2" />
  <circle cx="352.5" cy="60.5" r="24.5" fill="#949494" stroke="white" stroke-width="2" />
  <circle cx="498.5" cy="60.5" r="24.5" fill="#CCCCCC" stroke="white" stroke-width="2" />
  <path d="M427.208 26.0967C427.208 25.5906 427.437 25.1207 427.895 24.6869C428.353 24.2531 428.859 24.0241 429.413 24C429.847 24 430.245 24.2169 430.606 24.6507C430.968 25.0845 431.161 25.7714 431.185 26.7113C431.185 27.4102 430.956 28.796 430.498 30.8686C430.136 32.2183 429.811 33.3269 429.522 34.1945C429.233 35.0621 428.811 36.0382 428.257 37.1227C427.702 38.2072 427.04 39.0266 426.268 39.5809C425.497 40.1352 424.629 40.4124 423.665 40.4124C422.605 40.4124 421.665 40.2196 420.846 39.834C420.026 39.4484 419.436 38.9302 419.074 38.2795C419.05 38.3036 419.014 38.3518 418.966 38.4241C417.978 39.7496 416.773 40.4124 415.351 40.4124C414.724 40.4124 414.122 40.3401 413.543 40.1955C412.965 40.0509 412.398 39.8219 411.844 39.5086C411.29 39.1953 410.844 38.7254 410.507 38.0988C410.169 37.4721 410.001 36.713 410.001 35.8213C410.001 34.5198 410.41 32.7605 411.23 30.5433C412.049 28.326 412.471 26.9162 412.495 26.3136C412.495 26.2895 412.495 26.2654 412.495 26.2413C412.495 26.0244 412.495 25.8798 412.495 25.8075C412.495 25.7352 412.447 25.6509 412.35 25.5545C412.254 25.4581 412.121 25.4099 411.953 25.4099H411.808C411.254 25.4099 410.748 25.6388 410.29 26.0967C409.832 26.5546 409.47 27.0487 409.205 27.5789C408.94 28.1091 408.735 28.6152 408.591 29.0972C408.446 29.5793 408.35 29.8444 408.301 29.8926C408.253 29.9408 408.06 29.9649 407.723 29.9649H407.217C407.072 29.8203 407 29.7118 407 29.6395C407 29.4949 407.096 29.1575 407.289 28.6273C407.482 28.0971 407.759 27.4825 408.121 26.7836C408.482 26.0847 409.012 25.4581 409.711 24.9038C410.41 24.3495 411.193 24.0723 412.061 24.0723C413.097 24.0723 413.893 24.3736 414.447 24.9761C415.001 25.5786 415.279 26.2775 415.279 27.0728C415.279 27.5066 414.881 28.808 414.086 30.9771C413.29 33.1461 412.893 34.8211 412.893 36.002C412.893 37.1106 413.146 37.8939 413.652 38.3518C414.158 38.8097 414.796 39.0507 415.568 39.0748C416.604 39.0748 417.52 38.3398 418.315 36.8696L418.496 36.5443V35.7128C418.496 35.6405 418.496 35.5321 418.496 35.3875C418.496 35.2429 418.508 35.1465 418.532 35.0983C418.556 35.0501 418.568 34.9657 418.568 34.8452C418.568 34.7247 418.58 34.6162 418.604 34.5198C418.628 34.4234 418.665 34.2668 418.713 34.0499C418.761 33.833 418.797 33.6281 418.821 33.4353C418.845 33.2425 418.918 32.9533 419.038 32.5677C419.159 32.1821 419.255 31.7965 419.327 31.4109C419.4 31.0253 419.532 30.5071 419.725 29.8564C420.424 27.109 420.822 25.6268 420.918 25.4099C421.231 24.7592 421.749 24.4338 422.472 24.4338C422.93 24.4338 423.244 24.5543 423.412 24.7953C423.581 25.0363 423.678 25.2653 423.702 25.4822C423.702 25.7955 423.352 27.3379 422.653 30.1095C421.954 32.881 421.569 34.4716 421.496 34.8813C421.448 35.1465 421.424 35.5682 421.424 36.1466V36.3997C421.424 36.7612 421.46 37.1106 421.533 37.448C421.605 37.7855 421.834 38.1349 422.219 38.4964C422.605 38.8579 423.147 39.0507 423.846 39.0748C425.557 39.0748 426.919 37.6047 427.931 34.6644C428.148 34.1101 428.389 33.3269 428.654 32.3147C428.919 31.3024 429.064 30.5794 429.088 30.1456C429.088 29.3503 428.931 28.7237 428.618 28.2658C428.305 27.8079 427.991 27.4223 427.678 27.109C427.365 26.7957 427.208 26.4582 427.208 26.0967Z" fill="#29ABCA" />
  <path d="M435.371 33.6037C434.911 33.6037 434.553 33.4589 434.297 33.1693C434.042 32.8796 433.905 32.5047 433.888 32.0447C433.888 31.1075 434.297 30.2726 435.115 29.5399C435.933 28.8073 436.921 28.4409 438.08 28.4409C438.676 28.4409 439.051 28.4494 439.204 28.4665C440.465 28.671 441.428 29.1225 442.093 29.8211C442.757 30.5197 443.098 31.2779 443.115 32.0958C443.115 32.9818 442.825 33.8423 442.246 34.6772C441.667 35.5121 440.866 36.117 439.843 36.4919L439.767 36.543C439.767 36.56 439.843 36.5856 439.997 36.6197C440.15 36.6537 440.397 36.7304 440.738 36.8497C441.079 36.969 441.402 37.1479 441.709 37.3864C443.106 38.2895 443.805 39.4822 443.805 40.9646C443.805 42.3107 443.277 43.4864 442.22 44.4917C441.164 45.497 439.826 45.9996 438.208 45.9996C436.845 45.9996 435.669 45.6333 434.681 44.9006C433.692 44.1679 433.198 43.2393 433.198 42.1147C433.198 41.6376 433.352 41.2543 433.658 40.9646C433.965 40.6749 434.348 40.5216 434.808 40.5045C435.285 40.5045 435.677 40.6579 435.984 40.9646C436.291 41.2713 436.444 41.6547 436.444 42.1147C436.444 42.3022 436.419 42.4726 436.367 42.6259C436.316 42.7793 436.257 42.9156 436.189 43.0348C436.12 43.1541 436.027 43.2563 435.907 43.3415C435.788 43.4267 435.686 43.4949 435.601 43.546C435.515 43.5971 435.43 43.6312 435.345 43.6482C435.26 43.6653 435.192 43.6908 435.141 43.7249L435.038 43.7505C435.907 44.5172 436.964 44.9006 438.208 44.9006C439.145 44.9006 439.852 44.4491 440.329 43.546C440.619 42.9837 440.764 42.1233 440.764 40.9646V40.4534C440.764 38.8347 440.218 37.7527 439.128 37.2075C438.872 37.1053 438.352 37.0456 437.569 37.0286L436.495 37.003L436.419 36.9519C436.384 36.9008 436.367 36.7645 436.367 36.543C436.367 36.2363 436.436 36.0829 436.572 36.0829C437.049 36.0829 437.543 36.0403 438.054 35.9551C438.634 35.8699 439.162 35.5121 439.639 34.8817C440.116 34.2512 440.355 33.297 440.355 32.0191V31.8146C440.355 30.8434 440.056 30.1704 439.46 29.7955C439.085 29.557 438.685 29.4377 438.259 29.4377C437.714 29.4377 437.211 29.5314 436.751 29.7189C436.291 29.9063 435.967 30.1022 435.78 30.3067C435.592 30.5112 435.498 30.6134 435.498 30.6134H435.575C435.626 30.6304 435.694 30.6475 435.78 30.6645C435.865 30.6816 435.95 30.7242 436.035 30.7923C436.12 30.8605 436.223 30.9201 436.342 30.9712C436.461 31.0223 436.546 31.116 436.597 31.2524C436.649 31.3887 436.717 31.5165 436.802 31.6357C436.887 31.755 436.913 31.9254 436.879 32.1469C436.879 32.5218 436.759 32.854 436.521 33.1437C436.282 33.4334 435.899 33.5867 435.371 33.6037Z" fill="#29ABCA" />
  <path d="M281.208 26.0967C281.208 25.5906 281.437 25.1207 281.895 24.6869C282.353 24.2531 282.859 24.0241 283.413 24C283.847 24 284.245 24.2169 284.606 24.6507C284.968 25.0845 285.161 25.7714 285.185 26.7113C285.185 27.4102 284.956 28.796 284.498 30.8686C284.136 32.2183 283.811 33.3269 283.522 34.1945C283.233 35.0621 282.811 36.0382 282.257 37.1227C281.702 38.2072 281.04 39.0266 280.268 39.5809C279.497 40.1352 278.629 40.4124 277.665 40.4124C276.605 40.4124 275.665 40.2196 274.846 39.834C274.026 39.4484 273.436 38.9302 273.074 38.2795C273.05 38.3036 273.014 38.3518 272.966 38.4241C271.978 39.7496 270.773 40.4124 269.351 40.4124C268.724 40.4124 268.122 40.3401 267.543 40.1955C266.965 40.0509 266.398 39.8219 265.844 39.5086C265.29 39.1953 264.844 38.7254 264.507 38.0988C264.169 37.4721 264.001 36.713 264.001 35.8213C264.001 34.5198 264.41 32.7605 265.23 30.5433C266.049 28.326 266.471 26.9162 266.495 26.3136C266.495 26.2895 266.495 26.2654 266.495 26.2413C266.495 26.0244 266.495 25.8798 266.495 25.8075C266.495 25.7352 266.447 25.6509 266.35 25.5545C266.254 25.4581 266.121 25.4099 265.953 25.4099H265.808C265.254 25.4099 264.748 25.6388 264.29 26.0967C263.832 26.5546 263.47 27.0487 263.205 27.5789C262.94 28.1091 262.735 28.6152 262.591 29.0972C262.446 29.5793 262.35 29.8444 262.301 29.8926C262.253 29.9408 262.06 29.9649 261.723 29.9649H261.217C261.072 29.8203 261 29.7118 261 29.6395C261 29.4949 261.096 29.1575 261.289 28.6273C261.482 28.0971 261.759 27.4825 262.121 26.7836C262.482 26.0847 263.012 25.4581 263.711 24.9038C264.41 24.3495 265.193 24.0723 266.061 24.0723C267.097 24.0723 267.893 24.3736 268.447 24.9761C269.001 25.5786 269.279 26.2775 269.279 27.0728C269.279 27.5066 268.881 28.808 268.086 30.9771C267.29 33.1461 266.893 34.8211 266.893 36.002C266.893 37.1106 267.146 37.8939 267.652 38.3518C268.158 38.8097 268.796 39.0507 269.568 39.0748C270.604 39.0748 271.52 38.3398 272.315 36.8696L272.496 36.5443V35.7128C272.496 35.6405 272.496 35.5321 272.496 35.3875C272.496 35.2429 272.508 35.1465 272.532 35.0983C272.556 35.0501 272.568 34.9657 272.568 34.8452C272.568 34.7247 272.58 34.6162 272.604 34.5198C272.628 34.4234 272.665 34.2668 272.713 34.0499C272.761 33.833 272.797 33.6281 272.821 33.4353C272.845 33.2425 272.918 32.9533 273.038 32.5677C273.159 32.1821 273.255 31.7965 273.327 31.4109C273.4 31.0253 273.532 30.5071 273.725 29.8564C274.424 27.109 274.822 25.6268 274.918 25.4099C275.231 24.7592 275.749 24.4338 276.472 24.4338C276.93 24.4338 277.244 24.5543 277.412 24.7953C277.581 25.0363 277.678 25.2653 277.702 25.4822C277.702 25.7955 277.352 27.3379 276.653 30.1095C275.954 32.881 275.569 34.4716 275.496 34.8813C275.448 35.1465 275.424 35.5682 275.424 36.1466V36.3997C275.424 36.7612 275.46 37.1106 275.533 37.448C275.605 37.7855 275.834 38.1349 276.219 38.4964C276.605 38.8579 277.147 39.0507 277.846 39.0748C279.557 39.0748 280.919 37.6047 281.931 34.6644C282.148 34.1101 282.389 33.3269 282.654 32.3147C282.919 31.3024 283.064 30.5794 283.088 30.1456C283.088 29.3503 282.931 28.7237 282.618 28.2658C282.305 27.8079 281.991 27.4223 281.678 27.109C281.365 26.7957 281.208 26.4582 281.208 26.0967Z" fill="#FC6255" />
  <path d="M288.911 34.4727C288.451 34.4727 288.084 34.3194 287.812 34.0127C287.539 33.706 287.403 33.3311 287.403 32.8881C287.403 31.6783 287.854 30.6304 288.757 29.7444C289.66 28.8584 290.785 28.4154 292.131 28.4154C293.682 28.4154 294.976 28.8925 296.016 29.8466C297.055 30.8008 297.583 32.0362 297.6 33.5526C297.6 34.2853 297.43 34.9839 297.089 35.6484C296.749 36.313 296.34 36.8923 295.863 37.3864C295.385 37.8805 294.704 38.511 293.818 39.2777C293.204 39.8059 292.352 40.5897 291.262 41.6291L289.754 43.0604L291.696 43.086C294.372 43.086 295.794 43.0434 295.965 42.9582C296.084 42.9241 296.288 42.1658 296.578 40.6835V40.6068H297.6V40.6835C297.583 40.7346 297.473 41.5098 297.268 43.0093C297.064 44.5087 296.936 45.2925 296.885 45.3607V45.4373H287.403V44.9517V44.645C287.403 44.5258 287.454 44.398 287.556 44.2616C287.658 44.1253 287.914 43.8272 288.323 43.3671C288.817 42.8219 289.243 42.3448 289.601 41.9358C289.754 41.7654 290.044 41.4502 290.47 40.9902C290.896 40.5301 291.185 40.2149 291.339 40.0445C291.492 39.8741 291.739 39.593 292.08 39.2011C292.421 38.8092 292.659 38.5195 292.795 38.3321C292.932 38.1446 293.128 37.8891 293.383 37.5653C293.639 37.2416 293.818 36.969 293.92 36.7474C294.022 36.5259 294.15 36.2789 294.303 36.0062C294.457 35.7336 294.568 35.461 294.636 35.1884C294.704 34.9158 294.764 34.6602 294.815 34.4216C294.866 34.1831 294.891 33.9019 294.891 33.5782C294.891 32.5047 294.602 31.5761 294.022 30.7923C293.443 30.0085 292.617 29.6166 291.543 29.6166C290.981 29.6166 290.487 29.7615 290.061 30.0511C289.635 30.3408 289.337 30.6219 289.166 30.8945C288.996 31.1672 288.911 31.329 288.911 31.3802C288.911 31.3972 288.953 31.4057 289.038 31.4057C289.345 31.4057 289.66 31.525 289.984 31.7635C290.308 32.0021 290.47 32.394 290.47 32.9392C290.47 33.3652 290.333 33.723 290.061 34.0127C289.788 34.3023 289.405 34.4557 288.911 34.4727Z" fill="#FC6255" />
  <path d="M135.208 26.0967C135.208 25.5906 135.437 25.1207 135.895 24.6869C136.353 24.2531 136.859 24.0241 137.413 24C137.847 24 138.245 24.2169 138.606 24.6507C138.968 25.0845 139.161 25.7714 139.185 26.7113C139.185 27.4102 138.956 28.796 138.498 30.8686C138.136 32.2183 137.811 33.3269 137.522 34.1945C137.233 35.0621 136.811 36.0382 136.257 37.1227C135.702 38.2072 135.04 39.0266 134.268 39.5809C133.497 40.1352 132.629 40.4124 131.665 40.4124C130.605 40.4124 129.665 40.2196 128.846 39.834C128.026 39.4484 127.436 38.9302 127.074 38.2795C127.05 38.3036 127.014 38.3518 126.966 38.4241C125.978 39.7496 124.773 40.4124 123.351 40.4124C122.724 40.4124 122.122 40.3401 121.543 40.1955C120.965 40.0509 120.398 39.8219 119.844 39.5086C119.29 39.1953 118.844 38.7254 118.507 38.0988C118.169 37.4721 118.001 36.713 118.001 35.8213C118.001 34.5198 118.41 32.7605 119.23 30.5433C120.049 28.326 120.471 26.9162 120.495 26.3136C120.495 26.2895 120.495 26.2654 120.495 26.2413C120.495 26.0244 120.495 25.8798 120.495 25.8075C120.495 25.7352 120.447 25.6509 120.35 25.5545C120.254 25.4581 120.121 25.4099 119.953 25.4099H119.808C119.254 25.4099 118.748 25.6388 118.29 26.0967C117.832 26.5546 117.47 27.0487 117.205 27.5789C116.94 28.1091 116.735 28.6152 116.591 29.0972C116.446 29.5793 116.35 29.8444 116.301 29.8926C116.253 29.9408 116.06 29.9649 115.723 29.9649H115.217C115.072 29.8203 115 29.7118 115 29.6395C115 29.4949 115.096 29.1575 115.289 28.6273C115.482 28.0971 115.759 27.4825 116.121 26.7836C116.482 26.0847 117.012 25.4581 117.711 24.9038C118.41 24.3495 119.193 24.0723 120.061 24.0723C121.097 24.0723 121.893 24.3736 122.447 24.9761C123.001 25.5786 123.279 26.2775 123.279 27.0728C123.279 27.5066 122.881 28.808 122.086 30.9771C121.29 33.1461 120.893 34.8211 120.893 36.002C120.893 37.1106 121.146 37.8939 121.652 38.3518C122.158 38.8097 122.796 39.0507 123.568 39.0748C124.604 39.0748 125.52 38.3398 126.315 36.8696L126.496 36.5443V35.7128C126.496 35.6405 126.496 35.5321 126.496 35.3875C126.496 35.2429 126.508 35.1465 126.532 35.0983C126.556 35.0501 126.568 34.9657 126.568 34.8452C126.568 34.7247 126.58 34.6162 126.604 34.5198C126.628 34.4234 126.665 34.2668 126.713 34.0499C126.761 33.833 126.797 33.6281 126.821 33.4353C126.845 33.2425 126.918 32.9533 127.038 32.5677C127.159 32.1821 127.255 31.7965 127.327 31.4109C127.4 31.0253 127.532 30.5071 127.725 29.8564C128.424 27.109 128.822 25.6268 128.918 25.4099C129.231 24.7592 129.749 24.4338 130.472 24.4338C130.93 24.4338 131.244 24.5543 131.412 24.7953C131.581 25.0363 131.678 25.2653 131.702 25.4822C131.702 25.7955 131.352 27.3379 130.653 30.1095C129.954 32.881 129.569 34.4716 129.496 34.8813C129.448 35.1465 129.424 35.5682 129.424 36.1466V36.3997C129.424 36.7612 129.46 37.1106 129.533 37.448C129.605 37.7855 129.834 38.1349 130.219 38.4964C130.605 38.8579 131.147 39.0507 131.846 39.0748C133.557 39.0748 134.919 37.6047 135.931 34.6644C136.148 34.1101 136.389 33.3269 136.654 32.3147C136.919 31.3024 137.064 30.5794 137.088 30.1456C137.088 29.3503 136.931 28.7237 136.618 28.2658C136.305 27.8079 135.991 27.4223 135.678 27.109C135.365 26.7957 135.208 26.4582 135.208 26.0967Z" fill="#FC6255" />
  <path d="M145.569 30.6645L145.236 30.7923C144.998 30.8775 144.657 30.9627 144.214 31.0479C143.771 31.1331 143.277 31.1927 142.732 31.2268H142.246V30.0511H142.732C143.533 30.017 144.274 29.8892 144.955 29.6677C145.637 29.4462 146.114 29.2418 146.387 29.0543C146.659 28.8669 146.898 28.6795 147.102 28.492C147.136 28.4409 147.239 28.4154 147.409 28.4154C147.562 28.4154 147.707 28.4665 147.843 28.5687V36.2107L147.869 43.8783C147.988 43.9975 148.09 44.0742 148.176 44.1083C148.261 44.1424 148.465 44.1765 148.789 44.2105C149.113 44.2446 149.641 44.2616 150.374 44.2616H151.038V45.4373H150.757C150.399 45.3862 149.045 45.3607 146.693 45.3607C144.376 45.3607 143.038 45.3862 142.681 45.4373H142.374V44.2616H143.038C143.413 44.2616 143.737 44.2616 144.01 44.2616C144.282 44.2616 144.495 44.2531 144.649 44.2361C144.802 44.2191 144.938 44.1935 145.058 44.1594C145.177 44.1253 145.245 44.1083 145.262 44.1083C145.279 44.1083 145.33 44.0657 145.415 43.9805C145.501 43.8953 145.552 43.8612 145.569 43.8783V30.6645Z" fill="#FC6255" />
  <path d="M474 119.121C474 119.121 474 118.978 474 118.691C474 118.404 474.154 118.184 474.463 118.029H484.357V113.066L484.39 108.103C484.61 107.816 484.82 107.673 485.018 107.673C485.305 107.673 485.526 107.838 485.68 108.169V118.029H495.54C495.871 118.206 496.037 118.426 496.037 118.691C496.037 118.956 495.871 119.176 495.54 119.353H485.68V129.213C485.504 129.522 485.305 129.676 485.084 129.676H485.018H484.952C484.687 129.676 484.489 129.522 484.357 129.213V119.353H474.463C474.154 119.198 474 118.978 474 118.691V119.121Z" fill="white" />
  <path d="M500.305 105.555C500.305 105.335 500.349 105.081 500.437 104.794C500.525 104.507 500.658 104.364 500.834 104.364C500.856 104.364 501.65 104.309 503.217 104.199C504.783 104.088 505.588 104.022 505.632 104C505.897 104 506.029 104.099 506.029 104.298C506.029 104.496 505.654 106.074 504.904 109.029C504.728 109.779 504.54 110.551 504.342 111.346C504.143 112.14 503.978 112.735 503.845 113.132L503.713 113.761C503.713 113.827 503.779 113.794 503.911 113.662C504.992 112.779 506.106 112.338 507.253 112.338C508.621 112.338 509.724 112.845 510.562 113.86C511.4 114.875 511.831 116.154 511.853 117.698C511.853 120.147 510.981 122.364 509.239 124.349C507.496 126.334 505.621 127.327 503.614 127.327C502.511 127.327 501.507 126.908 500.603 126.07C499.698 125.231 499.235 123.875 499.213 122V121.702C499.213 121.239 499.301 120.599 499.478 119.783C499.654 118.967 500.195 116.794 501.099 113.265C502.202 108.919 502.753 106.614 502.753 106.349C502.753 106.085 502.334 105.93 501.496 105.886C501.386 105.886 501.298 105.886 501.231 105.886H501.066C500.845 105.886 500.702 105.886 500.636 105.886C500.57 105.886 500.492 105.853 500.404 105.787C500.316 105.721 500.283 105.643 500.305 105.555ZM509.007 116.209V116.011C509.007 114.379 508.334 113.562 506.989 113.562C506.614 113.562 506.228 113.651 505.831 113.827C505.434 114.004 505.07 114.235 504.739 114.522C504.408 114.809 504.121 115.073 503.878 115.316C503.636 115.559 503.437 115.801 503.283 116.044L503.084 116.309L502.389 119.154C501.904 121.051 501.662 122.397 501.662 123.191C501.662 124.25 501.926 125.044 502.456 125.573C502.809 125.926 503.25 126.103 503.779 126.103C504.507 126.103 505.246 125.75 505.996 125.044C506.547 124.537 506.989 123.919 507.32 123.191C507.65 122.463 508.014 121.305 508.411 119.717C508.809 118.129 509.007 116.959 509.007 116.209Z" fill="white" />
  <path d="M515.055 121.095C514.634 121.095 514.307 120.963 514.073 120.697C513.839 120.432 513.714 120.089 513.698 119.668C513.698 118.81 514.073 118.046 514.821 117.376C515.57 116.705 516.474 116.37 517.535 116.37C518.081 116.37 518.424 116.378 518.564 116.393C519.718 116.58 520.599 116.994 521.208 117.633C521.816 118.272 522.128 118.966 522.143 119.715C522.143 120.526 521.878 121.313 521.348 122.078C520.818 122.842 520.085 123.395 519.149 123.739L519.079 123.785C519.079 123.801 519.149 123.824 519.289 123.856C519.43 123.887 519.656 123.957 519.968 124.066C520.28 124.175 520.576 124.339 520.857 124.557C522.135 125.384 522.775 126.476 522.775 127.832C522.775 129.064 522.291 130.141 521.324 131.061C520.358 131.981 519.133 132.441 517.652 132.441C516.404 132.441 515.328 132.106 514.424 131.435C513.519 130.764 513.067 129.914 513.067 128.885C513.067 128.448 513.207 128.098 513.488 127.832C513.769 127.567 514.119 127.427 514.54 127.411C514.977 127.411 515.336 127.552 515.617 127.832C515.897 128.113 516.038 128.464 516.038 128.885C516.038 129.057 516.014 129.213 515.967 129.353C515.921 129.493 515.866 129.618 515.804 129.727C515.741 129.836 515.656 129.93 515.546 130.008C515.437 130.086 515.344 130.148 515.266 130.195C515.188 130.242 515.11 130.273 515.032 130.289C514.954 130.304 514.891 130.328 514.845 130.359L514.751 130.382C515.546 131.084 516.513 131.435 517.652 131.435C518.51 131.435 519.157 131.022 519.593 130.195C519.859 129.68 519.991 128.893 519.991 127.832V127.365C519.991 125.883 519.492 124.893 518.494 124.394C518.26 124.3 517.784 124.245 517.067 124.23L516.084 124.206L516.014 124.16C515.983 124.113 515.967 123.988 515.967 123.785C515.967 123.505 516.03 123.364 516.155 123.364C516.591 123.364 517.044 123.325 517.511 123.247C518.042 123.169 518.525 122.842 518.962 122.265C519.398 121.688 519.617 120.814 519.617 119.645V119.458C519.617 118.569 519.344 117.953 518.798 117.61C518.455 117.391 518.088 117.282 517.699 117.282C517.2 117.282 516.739 117.368 516.318 117.539C515.897 117.711 515.601 117.89 515.429 118.077C515.258 118.265 515.172 118.358 515.172 118.358H515.242C515.289 118.374 515.351 118.389 515.429 118.405C515.507 118.421 515.585 118.46 515.663 118.522C515.741 118.584 515.835 118.639 515.944 118.686C516.053 118.732 516.131 118.818 516.178 118.943C516.225 119.068 516.287 119.185 516.365 119.294C516.443 119.403 516.467 119.559 516.435 119.762C516.435 120.105 516.326 120.409 516.108 120.674C515.889 120.939 515.539 121.08 515.055 121.095Z" fill="white" />
  <path d="M328 117.121C328 117.121 328 116.978 328 116.691C328 116.404 328.154 116.184 328.463 116.029H338.357V111.066L338.39 106.103C338.61 105.816 338.82 105.673 339.018 105.673C339.305 105.673 339.526 105.838 339.68 106.169V116.029H349.54C349.871 116.206 350.037 116.426 350.037 116.691C350.037 116.956 349.871 117.176 349.54 117.353H339.68V127.213C339.504 127.522 339.305 127.676 339.084 127.676H339.018H338.952C338.687 127.676 338.489 127.522 338.357 127.213V117.353H328.463C328.154 117.198 328 116.978 328 116.691V117.121Z" fill="white" />
  <path d="M354.305 103.555C354.305 103.335 354.349 103.081 354.437 102.794C354.525 102.507 354.658 102.364 354.834 102.364C354.856 102.364 355.65 102.309 357.217 102.199C358.783 102.088 359.588 102.022 359.632 102C359.897 102 360.029 102.099 360.029 102.298C360.029 102.496 359.654 104.074 358.904 107.029C358.728 107.779 358.54 108.551 358.342 109.346C358.143 110.14 357.978 110.735 357.845 111.132L357.713 111.761C357.713 111.827 357.779 111.794 357.911 111.662C358.992 110.779 360.106 110.338 361.253 110.338C362.621 110.338 363.724 110.845 364.562 111.86C365.4 112.875 365.831 114.154 365.853 115.698C365.853 118.147 364.981 120.364 363.239 122.349C361.496 124.334 359.621 125.327 357.614 125.327C356.511 125.327 355.507 124.908 354.603 124.07C353.698 123.231 353.235 121.875 353.213 120V119.702C353.213 119.239 353.301 118.599 353.478 117.783C353.654 116.967 354.195 114.794 355.099 111.265C356.202 106.919 356.753 104.614 356.753 104.349C356.753 104.085 356.334 103.93 355.496 103.886C355.386 103.886 355.298 103.886 355.231 103.886H355.066C354.845 103.886 354.702 103.886 354.636 103.886C354.57 103.886 354.492 103.853 354.404 103.787C354.316 103.721 354.283 103.643 354.305 103.555ZM363.007 114.209V114.011C363.007 112.379 362.334 111.562 360.989 111.562C360.614 111.562 360.228 111.651 359.831 111.827C359.434 112.004 359.07 112.235 358.739 112.522C358.408 112.809 358.121 113.073 357.878 113.316C357.636 113.559 357.437 113.801 357.283 114.044L357.084 114.309L356.389 117.154C355.904 119.051 355.662 120.397 355.662 121.191C355.662 122.25 355.926 123.044 356.456 123.573C356.809 123.926 357.25 124.103 357.779 124.103C358.507 124.103 359.246 123.75 359.996 123.044C360.547 122.537 360.989 121.919 361.32 121.191C361.65 120.463 362.014 119.305 362.411 117.717C362.809 116.129 363.007 114.959 363.007 114.209Z" fill="white" />
  <path d="M368.634 119.891C368.213 119.891 367.878 119.75 367.628 119.469C367.379 119.189 367.254 118.846 367.254 118.44C367.254 117.333 367.667 116.374 368.494 115.563C369.32 114.752 370.35 114.346 371.582 114.346C373.001 114.346 374.186 114.783 375.137 115.656C376.089 116.53 376.572 117.66 376.588 119.048C376.588 119.719 376.432 120.358 376.12 120.967C375.808 121.575 375.434 122.105 374.997 122.557C374.56 123.01 373.936 123.587 373.126 124.288C372.564 124.772 371.784 125.489 370.786 126.441L369.406 127.751L371.184 127.774C373.632 127.774 374.935 127.735 375.091 127.657C375.2 127.626 375.387 126.932 375.652 125.575V125.505H376.588V125.575C376.572 125.622 376.471 126.331 376.284 127.704C376.096 129.076 375.979 129.794 375.933 129.856V129.926H367.254V129.482V129.201C367.254 129.092 367.301 128.975 367.394 128.85C367.488 128.725 367.722 128.452 368.096 128.031C368.548 127.532 368.938 127.096 369.266 126.721C369.406 126.565 369.671 126.277 370.061 125.856C370.451 125.435 370.716 125.146 370.856 124.99C370.997 124.834 371.223 124.577 371.535 124.218C371.847 123.86 372.065 123.594 372.19 123.423C372.315 123.251 372.494 123.017 372.728 122.721C372.962 122.425 373.126 122.175 373.219 121.973C373.313 121.77 373.43 121.544 373.57 121.294C373.71 121.045 373.812 120.795 373.874 120.546C373.936 120.296 373.991 120.062 374.038 119.844C374.085 119.625 374.108 119.368 374.108 119.072C374.108 118.089 373.843 117.239 373.313 116.522C372.782 115.805 372.026 115.446 371.044 115.446C370.529 115.446 370.077 115.578 369.687 115.844C369.297 116.109 369.024 116.366 368.868 116.615C368.712 116.865 368.634 117.013 368.634 117.06C368.634 117.076 368.673 117.083 368.751 117.083C369.032 117.083 369.32 117.193 369.617 117.411C369.913 117.629 370.061 117.988 370.061 118.487C370.061 118.877 369.936 119.204 369.687 119.469C369.437 119.735 369.086 119.875 368.634 119.891Z" fill="white" />
  <path d="M184 119.121C184 119.121 184 118.978 184 118.691C184 118.404 184.139 118.184 184.416 118.029H193.291V113.066L193.32 108.103C193.518 107.816 193.706 107.673 193.884 107.673C194.142 107.673 194.34 107.838 194.478 108.169V118.029H203.324C203.62 118.206 203.769 118.426 203.769 118.691C203.769 118.956 203.62 119.176 203.324 119.353H194.478V129.213C194.32 129.522 194.142 129.676 193.944 129.676H193.884H193.825C193.588 129.676 193.409 129.522 193.291 129.213V119.353H184.416C184.139 119.198 184 118.978 184 118.691V119.121Z" fill="white" />
  <path d="M207.598 105.555C207.598 105.335 207.637 105.081 207.717 104.794C207.796 104.507 207.914 104.364 208.073 104.364C208.093 104.364 208.805 104.309 210.21 104.199C211.615 104.088 212.337 104.022 212.377 104C212.614 104 212.733 104.099 212.733 104.298C212.733 104.496 212.397 106.074 211.724 109.029C211.565 109.779 211.397 110.551 211.219 111.346C211.041 112.14 210.893 112.735 210.774 113.132L210.655 113.761C210.655 113.827 210.715 113.794 210.833 113.662C211.803 112.779 212.802 112.338 213.831 112.338C215.058 112.338 216.048 112.845 216.8 113.86C217.552 114.875 217.937 116.154 217.957 117.698C217.957 120.147 217.176 122.364 215.612 124.349C214.049 126.334 212.367 127.327 210.566 127.327C209.577 127.327 208.676 126.908 207.865 126.07C207.054 125.231 206.638 123.875 206.618 122V121.702C206.618 121.239 206.698 120.599 206.856 119.783C207.014 118.967 207.499 116.794 208.31 113.265C209.3 108.919 209.794 106.614 209.794 106.349C209.794 106.085 209.418 105.93 208.666 105.886C208.568 105.886 208.488 105.886 208.429 105.886H208.281C208.083 105.886 207.954 105.886 207.895 105.886C207.835 105.886 207.766 105.853 207.687 105.787C207.608 105.721 207.578 105.643 207.598 105.555ZM215.404 116.209V116.011C215.404 114.379 214.801 113.562 213.594 113.562C213.257 113.562 212.911 113.651 212.555 113.827C212.199 114.004 211.872 114.235 211.575 114.522C211.279 114.809 211.021 115.073 210.804 115.316C210.586 115.559 210.408 115.801 210.269 116.044L210.091 116.309L209.468 119.154C209.033 121.051 208.815 122.397 208.815 123.191C208.815 124.25 209.052 125.044 209.527 125.573C209.844 125.926 210.24 126.103 210.715 126.103C211.368 126.103 212.031 125.75 212.703 125.044C213.198 124.537 213.594 123.919 213.891 123.191C214.187 122.463 214.514 121.305 214.87 119.717C215.226 118.129 215.404 116.959 215.404 116.209Z" fill="white" />
  <path d="M222.635 118.405L222.362 118.522C222.166 118.6 221.886 118.678 221.523 118.756C221.159 118.834 220.753 118.888 220.306 118.92H219.907V117.844H220.306C220.963 117.812 221.572 117.695 222.131 117.493C222.691 117.29 223.083 117.103 223.306 116.931C223.53 116.76 223.726 116.588 223.894 116.417C223.922 116.37 224.006 116.346 224.146 116.346C224.272 116.346 224.391 116.393 224.503 116.487V123.481L224.524 130.499C224.622 130.608 224.706 130.679 224.776 130.71C224.845 130.741 225.013 130.772 225.279 130.803C225.545 130.835 225.979 130.85 226.58 130.85H227.126V131.926H226.895C226.601 131.879 225.489 131.856 223.558 131.856C221.656 131.856 220.557 131.879 220.264 131.926H220.012V130.85H220.557C220.865 130.85 221.131 130.85 221.355 130.85C221.579 130.85 221.754 130.842 221.879 130.827C222.005 130.811 222.117 130.788 222.215 130.757C222.313 130.725 222.369 130.71 222.383 130.71C222.397 130.71 222.439 130.671 222.509 130.593C222.579 130.515 222.621 130.484 222.635 130.499V118.405Z" fill="white" />
</svg>
  