<svg xmlns="http://www.w3.org/2000/svg" width="640" height="180" viewBox="0 0 640 180"><defs><style>.a{fill:#fff;}.b{fill:#fff933;}.c{fill:#58c4dd;}.d{fill:#fc6255;}</style></defs><rect width="640" height="180"/><path class="a" d="M200.338,103.042c0,.15-.15.226-.452.226h-.326l-.705-.6q-4.522-4.122-4.522-11.96a20.219,20.219,0,0,1,.729-5.6,13.552,13.552,0,0,1,3.793-6.357c.118-.1.251-.214.4-.339s.251-.214.3-.264h.326a.6.6,0,0,1,.377.075.22.22,0,0,1,.075.151q0,.1-.276.377-3.9,4.122-3.9,11.961t3.9,11.96Q200.338,102.941,200.338,103.042Z"/><path class="a" d="M204.508,86.207a1.4,1.4,0,0,1-1.106-.453,1.607,1.607,0,0,1-.4-1.105,4.123,4.123,0,0,1,1.369-3.1,4.61,4.61,0,0,1,3.279-1.294,5.445,5.445,0,0,1,3.58,1.169,4.905,4.905,0,0,1,1.747,3.053,7.423,7.423,0,0,1,.05.829,4.747,4.747,0,0,1-.88,2.739,16.638,16.638,0,0,1-2.838,2.89q-.906.779-2.513,2.311l-1.482,1.407,1.909.026a30.076,30.076,0,0,0,4.2-.126q.1-.026.251-.528a15.634,15.634,0,0,0,.352-1.708v-.076h1.005v.076l-.7,4.6v.075H203v-.477a1.681,1.681,0,0,1,.05-.578q.024-.025,2.11-2.387,2.739-3.04,3.519-4.021a7.278,7.278,0,0,0,1.682-4.2,4.393,4.393,0,0,0-.866-2.776,2.9,2.9,0,0,0-2.425-1.118,2.758,2.758,0,0,0-2.362,1.306c-.033.067-.084.159-.15.277a.538.538,0,0,0-.076.151c0,.016.041.024.125.024a1.279,1.279,0,0,1,1.018.453,1.564,1.564,0,0,1,.39,1.055,1.5,1.5,0,0,1-.414,1.068A1.433,1.433,0,0,1,204.508,86.207Z"/><path class="a" d="M215.816,78.166l.1-.025h.553l.7.6q4.522,4.122,4.523,11.961a19.845,19.845,0,0,1-.728,5.577,13.565,13.565,0,0,1-3.795,6.383c-.117.1-.251.213-.4.339s-.251.214-.3.264h-.3a.957.957,0,0,1-.39-.05c-.058-.034-.088-.117-.088-.251.017-.018.11-.126.277-.327q3.894-4.047,3.894-11.935t-3.894-11.936c-.167-.2-.26-.31-.277-.327A.3.3,0,0,1,215.816,78.166Z"/><path class="a" d="M231.771,88.267a.548.548,0,0,1,.352-.5h16.006a.548.548,0,0,1,.377.5.569.569,0,0,1-.352.478l-7.99.025h-7.99A.5.5,0,0,1,231.771,88.267Zm0,4.875a.5.5,0,0,1,.4-.5h15.98a.974.974,0,0,0,.114.088,1.264,1.264,0,0,1,.125.1.454.454,0,0,1,.076.126.5.5,0,0,1,.037.189.55.55,0,0,1-.377.5H232.123A.55.55,0,0,1,231.771,93.142Z"/><path class="a" d="M267.11,88.634h.42q1.172,0,1.41-.42v-.93q0-.42.016-.991t.015-1.3V75.554q0-.99-.015-1.815t-.016-1.305v-.51a.991.991,0,0,0-.434-.765,3.5,3.5,0,0,0-1.335-.255h-.54v-.69c0-.46.019-.691.059-.691l.3-.029q.3-.03.87-.06l1.111-.06q.51-.03,1.11-.075t.9-.075c.2-.02.31-.03.331-.03h.089v9.45q0,9.51.031,9.57a.638.638,0,0,0,.36.329,10.352,10.352,0,0,0,1.47.091h.479v1.38H273.5a32.177,32.177,0,0,0-3.3-.09,29.85,29.85,0,0,0-3.33.09h-.239v-1.38Z"/><path class="a" d="M281.6,90.014a25.639,25.639,0,0,0-3.121-.09,31.663,31.663,0,0,0-3.27.09h-.239v-1.38h.479a10.387,10.387,0,0,0,1.471-.091.642.642,0,0,0,.359-.329q.03-.06.031-4.35a41.114,41.114,0,0,0-.121-4.8q-.24-.6-1.769-.6h-.33v-.691c0-.459.019-.69.059-.69l.3-.029c.2-.02.481-.04.84-.06l1.08-.06q.51-.03,1.08-.075t.87-.075c.2-.02.31-.03.33-.03h.09v11.4a.693.693,0,0,0,.361.375,4.725,4.725,0,0,0,1.049.105h.691v1.38Zm-3.481-20.07a1.932,1.932,0,0,1,1.231.525,1.7,1.7,0,0,1,.479,1.275,1.6,1.6,0,0,1-.809,1.529,1.641,1.641,0,0,1-.96.27,1.694,1.694,0,0,1-.991-.27,1.6,1.6,0,0,1-.809-1.529,1.7,1.7,0,0,1,.524-1.32A1.9,1.9,0,0,1,278.12,69.944Z"/><path class="a" d="M288.17,88.214q.24.42,1.41.42h.9v1.38h-.24a62.746,62.746,0,0,0-6.719,0h-.241v-1.38h.9q1.168,0,1.409-.42v-.93q0-.42.015-.945t.015-1.171V83.924q0-.93-.015-2t-.015-1.755v-.69a.991.991,0,0,0-.435-.765,3.494,3.494,0,0,0-1.335-.255h-.54v-.691c0-.459.02-.69.06-.69l.3-.029q.3-.03.854-.06l1.095-.06q.51-.03,1.08-.075t.87-.075c.2-.02.311-.03.33-.03h.09v1.2a8.151,8.151,0,0,0,.03,1.14l.031-.031a5.276,5.276,0,0,1,4.589-2.309q2.91.088,3.571,2.28l.059.15q.721-.9.81-.99a5.045,5.045,0,0,1,3.57-1.44q3.75,0,4.11,3.39.03.21.031,4.169,0,3.841.029,3.9a.641.641,0,0,0,.36.329,10.372,10.372,0,0,0,1.47.091h.481v1.38h-.241a62.746,62.746,0,0,0-6.719,0H299.9v-1.38h.72q1.59,0,1.59-.48.029-.06.03-4.14-.03-4.051-.059-4.29a2.652,2.652,0,0,0-.676-1.4,2.025,2.025,0,0,0-1.425-.435,3.253,3.253,0,0,0-2.37,1.02,4.3,4.3,0,0,0-1.23,2.64c0,.02,0,.2-.015.555s-.015.8-.015,1.335V86.8q0,.39.015.7c.011.21.015.385.015.525v.18q.24.42,1.411.42h.9v1.38h-.24a62.765,62.765,0,0,0-6.72,0h-.24v-1.38h.721q1.589,0,1.589-.48.03-.06.031-4.14-.031-4.051-.061-4.29a2.644,2.644,0,0,0-.675-1.4,2.024,2.024,0,0,0-1.424-.435,3.251,3.251,0,0,0-2.371,1.02,4.3,4.3,0,0,0-1.23,2.64v.555q0,.525-.015,1.335t-.014,1.53v.944c0,.331,0,.626.014.886s.015.5.015.7v.7Z"/><path class="b" d="M273.871,111.717a1.791,1.791,0,0,1-1.28-.471,1.584,1.584,0,0,1-.5-1.21,2.808,2.808,0,0,1,.2-.88,23.616,23.616,0,0,0,1.2-3.78,3.972,3.972,0,0,0,.06-.76q0-1.179-.98-1.179a2.358,2.358,0,0,0-.52.04,3.808,3.808,0,0,0-2.361,1.919l-.139.26-.68,2.7q-.64,2.6-.74,2.84a.9.9,0,0,1-.88.54.842.842,0,0,1-.47-.15.449.449,0,0,1-.23-.39q0-.24,2.94-12a.361.361,0,0,0-.12-.32,3.036,3.036,0,0,0-.8-.1h-.421a.53.53,0,0,1-.129-.16,2.02,2.02,0,0,1,.05-.38c.067-.253.153-.38.26-.38l1.45-.11c.953-.073,1.437-.109,1.449-.109.161,0,.241.059.241.179q0,.22-.72,3.02-.76,2.961-.76,3.02c0,.027.046-.006.14-.1a3.763,3.763,0,0,1,2.6-1.08,2.69,2.69,0,0,1,1.761.54,1.921,1.921,0,0,1,.659,1.579,4,4,0,0,1-.059.761,25.127,25.127,0,0,1-1.1,3.54,4.775,4.775,0,0,0-.36,1.42.734.734,0,0,0,.1.379.37.37,0,0,0,.3.1,1.37,1.37,0,0,0,1.05-.609,4.5,4.5,0,0,0,.77-1.63.511.511,0,0,1,.12-.261.752.752,0,0,1,.32-.04c.253.04.387.094.4.16,0,.014-.026.113-.08.3a4.56,4.56,0,0,1-1.019,1.94A2.1,2.1,0,0,1,273.871,111.717Z"/><path class="a" d="M278.831,106.517a.436.436,0,0,1,.28-.4h15.3a7.45,7.45,0,0,1-2.2-2.559,6.465,6.465,0,0,1-.66-1.9.325.325,0,0,0-.01-.08.246.246,0,0,1-.01-.059q0-.22.4-.221a.6.6,0,0,1,.31.051.387.387,0,0,1,.11.229,3.926,3.926,0,0,0,.22.82,6.141,6.141,0,0,0,1.46,2.39,5.914,5.914,0,0,0,2.38,1.51.224.224,0,0,1,0,.44,5.925,5.925,0,0,0-2.38,1.51,6.145,6.145,0,0,0-1.46,2.391,7.243,7.243,0,0,0-.22.8.427.427,0,0,1-.11.25.622.622,0,0,1-.31.049q-.42,0-.42-.219a4.005,4.005,0,0,1,.12-.5,7.116,7.116,0,0,1,2.78-4.1h-15.3A.435.435,0,0,1,278.831,106.517Z"/><path class="a" d="M300.23,99.816a3.531,3.531,0,0,1,3.061-1.62,3.692,3.692,0,0,1,2.56,1,4.342,4.342,0,0,1,.92,1.361,11.443,11.443,0,0,1,.74,4.559,10.423,10.423,0,0,1-.861,4.74,3.465,3.465,0,0,1-1.639,1.68,3.77,3.77,0,0,1-1.7.42,3.524,3.524,0,0,1-3.361-2.1,10.439,10.439,0,0,1-.859-4.74,15.57,15.57,0,0,1,.25-3.07A6.72,6.72,0,0,1,300.23,99.816Zm4.5-.24a1.84,1.84,0,0,0-1.419-.639,1.906,1.906,0,0,0-1.441.639,2.409,2.409,0,0,0-.6,1.12,12.343,12.343,0,0,0-.2,2.281c0,.08,0,.339-.009.78s-.01.806-.01,1.1q0,1.922.04,2.68a11.464,11.464,0,0,0,.239,2.01,2.282,2.282,0,0,0,.6,1.051,1.776,1.776,0,0,0,1.38.6,1.755,1.755,0,0,0,1.36-.6,2.28,2.28,0,0,0,.6-1.051,11.54,11.54,0,0,0,.24-2.01q.039-.759.04-2.68c0-.293,0-.66-.01-1.1s-.011-.7-.011-.78a12.189,12.189,0,0,0-.2-2.281A2.411,2.411,0,0,0,304.73,99.576Z"/><path class="c" d="M328.608,81.184q.679.15.729.15.579,0,1.006-1.055.3-.828,1.834-8.945.7-3.793.728-3.819v-.076h-1.18a6.754,6.754,0,0,1-1.257-.05q-.175-.1-.05-.553a2.142,2.142,0,0,1,.125-.4.228.228,0,0,1,.214-.138q.162-.012,1.169-.012a10.631,10.631,0,0,0,1.206-.026q0-.05.225-1.256c.152-.8.251-1.29.3-1.458a6.132,6.132,0,0,1,1.583-3.316,3.246,3.246,0,0,1,2.086-.83,2.569,2.569,0,0,1,1.52.553,1.636,1.636,0,0,1,.616,1.332,1.773,1.773,0,0,1-.452,1.231,1.457,1.457,0,0,1-1.131.5q-1.105,0-1.106-1.056a1.419,1.419,0,0,1,.879-1.357l.227-.125a2.47,2.47,0,0,0-.754-.151q-.729,0-.955.955-.2.755-.653,3.292l-.327,1.658a7.064,7.064,0,0,0,1.382.051q1.131,0,1.357.025c.15.017.226.075.226.175a2.81,2.81,0,0,1-.176.805.247.247,0,0,1-.239.138c-.126.009-.574.012-1.344.012h-1.407l-.578,3.066q-.93,4.8-1.156,5.8-.853,3.793-2.286,5.151a2.835,2.835,0,0,1-1.834.8,2.273,2.273,0,0,1-1.508-.5,1.648,1.648,0,0,1-.6-1.332,1.858,1.858,0,0,1,.453-1.269,1.439,1.439,0,0,1,1.13-.515q1.107,0,1.106,1.055a1.419,1.419,0,0,1-.879,1.357Z"/><path class="a" d="M346.323,83.169c0,.151-.15.226-.452.226h-.326c-.118-.1-.353-.3-.7-.6q-4.524-4.122-4.523-11.96a20.257,20.257,0,0,1,.729-5.6,13.545,13.545,0,0,1,3.794-6.357c.117-.1.251-.214.4-.339s.251-.214.3-.264h.326a.6.6,0,0,1,.377.075.22.22,0,0,1,.075.151q0,.1-.276.377-3.9,4.122-3.9,11.961t3.9,11.96Q346.323,83.068,346.323,83.169Z"/><path class="a" d="M350.493,66.333a1.4,1.4,0,0,1-1.105-.452,1.6,1.6,0,0,1-.4-1.105,4.123,4.123,0,0,1,1.369-3.1,4.612,4.612,0,0,1,3.28-1.294,5.446,5.446,0,0,1,3.58,1.169,4.908,4.908,0,0,1,1.746,3.053,7.439,7.439,0,0,1,.051.829,4.75,4.75,0,0,1-.88,2.739,16.653,16.653,0,0,1-2.839,2.89q-.906.778-2.513,2.311L351.3,74.776l1.909.026a30.076,30.076,0,0,0,4.2-.126c.068-.016.152-.193.251-.528a15.506,15.506,0,0,0,.353-1.709v-.075h1v.075l-.7,4.6v.075h-9.322v-.477a1.681,1.681,0,0,1,.05-.578q.026-.024,2.11-2.387,2.74-3.04,3.519-4.021a7.283,7.283,0,0,0,1.683-4.2,4.388,4.388,0,0,0-.867-2.776,2.894,2.894,0,0,0-2.424-1.118,2.759,2.759,0,0,0-2.363,1.306c-.033.067-.084.159-.15.277a.534.534,0,0,0-.075.15c0,.017.041.025.125.025a1.275,1.275,0,0,1,1.017.453,1.564,1.564,0,0,1,.39,1.055,1.5,1.5,0,0,1-.414,1.068A1.431,1.431,0,0,1,350.493,66.333Z"/><path class="a" d="M367.982,70.832a.548.548,0,0,1,.352-.5h7.513V66.56l.025-3.769c.167-.218.327-.327.478-.327a.553.553,0,0,1,.5.377v7.488h7.487a.523.523,0,0,1,0,1.005h-7.487v7.488a.535.535,0,0,1-1.006,0V71.334h-7.513A.548.548,0,0,1,367.982,70.832Z"/><path class="b" d="M402.809,77.365a2.254,2.254,0,0,1-1.608-.591,1.991,1.991,0,0,1-.629-1.52,3.543,3.543,0,0,1,.252-1.106,29.507,29.507,0,0,0,1.507-4.749,4.93,4.93,0,0,0,.076-.955q0-1.482-1.231-1.482a3.035,3.035,0,0,0-.654.05,4.78,4.78,0,0,0-2.964,2.412l-.176.327-.855,3.392q-.8,3.267-.929,3.568a1.135,1.135,0,0,1-1.106.679,1.07,1.07,0,0,1-.591-.189.566.566,0,0,1-.289-.49q0-.3,3.694-15.076a.451.451,0,0,0-.151-.4,3.755,3.755,0,0,0-1-.126h-.528a.7.7,0,0,1-.163-.2,2.545,2.545,0,0,1,.063-.477c.083-.318.193-.478.327-.478q.024,0,1.821-.138t1.822-.138c.2,0,.3.075.3.226q0,.276-.9,3.794-.956,3.72-.954,3.795c0,.033.058-.009.175-.126a4.738,4.738,0,0,1,3.267-1.357,3.382,3.382,0,0,1,2.211.679,2.414,2.414,0,0,1,.829,1.984,5.022,5.022,0,0,1-.075.955,31.686,31.686,0,0,1-1.382,4.448,5.986,5.986,0,0,0-.452,1.784.886.886,0,0,0,.125.477.461.461,0,0,0,.377.126,1.718,1.718,0,0,0,1.319-.767,5.622,5.622,0,0,0,.968-2.047.643.643,0,0,1,.15-.327.948.948,0,0,1,.4-.05c.317.05.485.117.5.2,0,.017-.034.142-.1.377a5.753,5.753,0,0,1-1.281,2.437A2.645,2.645,0,0,1,402.809,77.365Z"/><path class="a" d="M408.387,58.293l.1-.025h.553l.7.6q4.524,4.122,4.524,11.961a19.856,19.856,0,0,1-.729,5.578,13.559,13.559,0,0,1-3.8,6.382c-.117.1-.251.213-.4.339s-.252.214-.3.264h-.3a.947.947,0,0,1-.389-.05c-.059-.034-.088-.117-.088-.251.016-.017.109-.126.276-.327q3.9-4.046,3.9-11.935t-3.9-11.936c-.167-.2-.26-.31-.276-.327A.3.3,0,0,1,408.387,58.293Z"/><path class="a" d="M425.046,70.832a.547.547,0,0,1,.352-.5H440a.523.523,0,0,1,0,1.005H425.4A.547.547,0,0,1,425.046,70.832Z"/><path class="c" d="M445.449,81.184c.452.1.7.15.729.15q.577,0,1.006-1.055.3-.828,1.834-8.945.7-3.793.728-3.819v-.076h-1.181a6.73,6.73,0,0,1-1.256-.05c-.118-.067-.134-.251-.05-.553a2.142,2.142,0,0,1,.125-.4.228.228,0,0,1,.214-.138q.162-.012,1.169-.012a10.631,10.631,0,0,0,1.206-.026q0-.05.225-1.256c.152-.8.251-1.29.3-1.458a6.132,6.132,0,0,1,1.583-3.316,3.246,3.246,0,0,1,2.086-.83,2.568,2.568,0,0,1,1.519.553,1.634,1.634,0,0,1,.617,1.332,1.778,1.778,0,0,1-.452,1.231,1.457,1.457,0,0,1-1.131.5q-1.107,0-1.106-1.056A1.419,1.419,0,0,1,454.5,60.6l.227-.125a2.47,2.47,0,0,0-.754-.151q-.731,0-.955.955-.2.755-.654,3.292l-.326,1.658a7.064,7.064,0,0,0,1.382.051q1.131,0,1.356.025c.151.017.227.075.227.175a2.845,2.845,0,0,1-.176.805.247.247,0,0,1-.239.138c-.126.009-.574.012-1.344.012h-1.407l-.578,3.066q-.93,4.8-1.156,5.8-.855,3.793-2.286,5.151a2.837,2.837,0,0,1-1.834.8,2.273,2.273,0,0,1-1.508-.5,1.645,1.645,0,0,1-.6-1.332,1.862,1.862,0,0,1,.452-1.269,1.442,1.442,0,0,1,1.131-.515q1.107,0,1.106,1.055a1.419,1.419,0,0,1-.879,1.357Z"/><path class="a" d="M463.163,83.169c0,.151-.15.226-.452.226h-.326c-.118-.1-.353-.3-.7-.6q-4.524-4.122-4.523-11.96a20.219,20.219,0,0,1,.729-5.6,13.545,13.545,0,0,1,3.794-6.357c.117-.1.251-.214.4-.339s.251-.214.3-.264h.326a.6.6,0,0,1,.377.075.22.22,0,0,1,.075.151q0,.1-.276.377-3.9,4.122-3.895,11.961t3.895,11.96Q463.163,83.068,463.163,83.169Z"/><path class="a" d="M467.334,66.333a1.4,1.4,0,0,1-1.105-.452,1.6,1.6,0,0,1-.4-1.105,4.123,4.123,0,0,1,1.369-3.1,4.611,4.611,0,0,1,3.28-1.294,5.448,5.448,0,0,1,3.58,1.169A4.908,4.908,0,0,1,475.8,64.6a7.439,7.439,0,0,1,.051.829,4.75,4.75,0,0,1-.88,2.739,16.653,16.653,0,0,1-2.839,2.89q-.906.778-2.513,2.311l-1.482,1.407,1.909.026a30.076,30.076,0,0,0,4.2-.126c.068-.016.152-.193.251-.528a15.506,15.506,0,0,0,.353-1.709v-.075h1v.075l-.7,4.6v.075h-9.321v-.477a1.681,1.681,0,0,1,.05-.578q.026-.024,2.11-2.387,2.739-3.04,3.519-4.021a7.281,7.281,0,0,0,1.682-4.2,4.393,4.393,0,0,0-.866-2.776A2.894,2.894,0,0,0,469.9,61.56a2.758,2.758,0,0,0-2.362,1.306c-.033.067-.084.159-.15.277a.534.534,0,0,0-.075.15c0,.017.041.025.125.025a1.277,1.277,0,0,1,1.017.453,1.564,1.564,0,0,1,.39,1.055,1.5,1.5,0,0,1-.414,1.068A1.432,1.432,0,0,1,467.334,66.333Z"/><path class="a" d="M478.642,58.293l.1-.025h.553l.7.6q4.524,4.122,4.523,11.961a19.858,19.858,0,0,1-.728,5.578,13.567,13.567,0,0,1-3.8,6.382c-.117.1-.251.213-.4.339s-.252.214-.3.264h-.3a.947.947,0,0,1-.389-.05c-.059-.034-.088-.117-.088-.251.016-.017.109-.126.276-.327q3.9-4.046,3.9-11.935t-3.9-11.936c-.167-.2-.26-.31-.276-.327A.3.3,0,0,1,478.642,58.293Z"/><path class="b" d="M405.49,118.805a2.253,2.253,0,0,1-1.607-.591,1.991,1.991,0,0,1-.629-1.52,3.539,3.539,0,0,1,.252-1.105,29.57,29.57,0,0,0,1.507-4.749,5.019,5.019,0,0,0,.076-.955q0-1.484-1.232-1.483a3.03,3.03,0,0,0-.653.05,4.787,4.787,0,0,0-2.965,2.412l-.176.327-.854,3.392q-.8,3.267-.93,3.568a1.133,1.133,0,0,1-1.105.679,1.074,1.074,0,0,1-.591-.188.568.568,0,0,1-.289-.491q0-.3,3.693-15.076a.451.451,0,0,0-.15-.4,3.737,3.737,0,0,0-1-.125H398.3a.706.706,0,0,1-.163-.2,2.447,2.447,0,0,1,.063-.478q.124-.477.326-.477.026,0,1.822-.139t1.822-.138c.2,0,.3.075.3.227q0,.275-.906,3.794-.954,3.719-.954,3.794c0,.034.059-.008.176-.126a4.734,4.734,0,0,1,3.267-1.357,3.389,3.389,0,0,1,2.211.679,2.417,2.417,0,0,1,.829,1.984,5.011,5.011,0,0,1-.076.955,31.461,31.461,0,0,1-1.381,4.448,6,6,0,0,0-.453,1.784.9.9,0,0,0,.125.477.464.464,0,0,0,.377.126,1.721,1.721,0,0,0,1.32-.766,5.652,5.652,0,0,0,.968-2.048.635.635,0,0,1,.15-.327.942.942,0,0,1,.4-.05c.318.05.486.117.5.2,0,.017-.033.143-.1.377a5.758,5.758,0,0,1-1.282,2.438A2.645,2.645,0,0,1,405.49,118.805Z"/><rect class="a" x="325.643" y="90.179" width="160" height="1" rx="0.5"/><rect class="a" x="156.916" y="90.179" width="30" height="1" rx="0.5"/><path class="d" d="M169.148,63.17c.251-.016.537-.037.855-.063s.557-.045.716-.062.247-.025.263-.025c.2,0,.3.067.3.2q0,.176-1.846,7.6t-1.873,7.551a2.155,2.155,0,0,0-.025.377q0,1.055.7,1.055a1.09,1.09,0,0,0,.5-.226,5.7,5.7,0,0,0,1.03-2.412q.151-.5.251-.528a.741.741,0,0,1,.252-.025h.1c.317,0,.477.067.477.2a2.062,2.062,0,0,1-.076.4,6.541,6.541,0,0,1-1.356,2.914,2.5,2.5,0,0,1-.8.528,2.724,2.724,0,0,1-.6.05,2.266,2.266,0,0,1-2.211-1.231,1.864,1.864,0,0,0-.126-.3c-.017-.017-.05-.009-.1.025l-.1.1a5.129,5.129,0,0,1-2.386,1.382,4.814,4.814,0,0,1-.628.025,3.33,3.33,0,0,1-2.739-1.382,4.886,4.886,0,0,1-.754-2.814,7.671,7.671,0,0,1,1.709-4.623,6.577,6.577,0,0,1,3.467-2.388,3.758,3.758,0,0,1,1.03-.15,2.407,2.407,0,0,1,2.111,1.055c.083.1.125.135.125.1l.691-2.752q.666-2.65.692-2.777a.453.453,0,0,0-.151-.4,3.768,3.768,0,0,0-1-.126h-.528a.709.709,0,0,1-.164-.2,2.616,2.616,0,0,1,.064-.478c.083-.317.192-.477.326-.477.016,0,.1-.008.264-.025s.385-.033.678-.05S168.863,63.188,169.148,63.17Zm-2.161,9.1q-.552-1.986-1.884-1.986a2.321,2.321,0,0,0-1.772.855,5.953,5.953,0,0,0-1.168,1.96,20.039,20.039,0,0,0-1.03,4.121c0,.05-.005.142-.013.276s-.013.235-.013.3a2.478,2.478,0,0,0,.39,1.458,1.31,1.31,0,0,0,1.144.553q1.331,0,2.789-1.809l.2-.277q.225-.9.678-2.726T166.987,72.267Z"/><path class="d" d="M174.173,84.529q.678.15.728.15.579,0,1.006-1.055.3-.829,1.834-8.945.7-3.8.729-3.82v-.075h-1.181a6.754,6.754,0,0,1-1.257-.05c-.117-.067-.134-.252-.05-.553a2.335,2.335,0,0,1,.125-.4.227.227,0,0,1,.214-.138c.109-.009.5-.013,1.169-.013A10.824,10.824,0,0,0,178.7,69.6q0-.05.226-1.256c.151-.8.251-1.29.3-1.458a6.122,6.122,0,0,1,1.583-3.316,3.246,3.246,0,0,1,2.086-.83,2.562,2.562,0,0,1,1.519.553,1.635,1.635,0,0,1,.616,1.332,1.775,1.775,0,0,1-.452,1.231,1.46,1.46,0,0,1-1.131.5q-1.106,0-1.1-1.056a1.418,1.418,0,0,1,.879-1.357l.226-.125a2.46,2.46,0,0,0-.754-.151q-.729,0-.955.955-.2.753-.653,3.291l-.326,1.659a7.133,7.133,0,0,0,1.382.05q1.131,0,1.356.025c.151.017.227.076.227.176a2.84,2.84,0,0,1-.176.8.246.246,0,0,1-.239.138c-.126.009-.575.013-1.344.013h-1.407l-.578,3.066q-.932,4.8-1.157,5.8-.853,3.794-2.286,5.151a2.833,2.833,0,0,1-1.834.8,2.277,2.277,0,0,1-1.508-.5,1.645,1.645,0,0,1-.6-1.331,1.856,1.856,0,0,1,.452-1.269,1.442,1.442,0,0,1,1.131-.515q1.106,0,1.1,1.055A1.419,1.419,0,0,1,174.4,84.4Z"/><path class="b" d="M169.148,100.962c.251-.017.537-.038.855-.064s.557-.045.716-.062.247-.025.263-.025c.2,0,.3.067.3.2q0,.175-1.846,7.6t-1.873,7.551a2.155,2.155,0,0,0-.025.377q0,1.055.7,1.055a1.09,1.09,0,0,0,.5-.226,5.7,5.7,0,0,0,1.03-2.412q.151-.5.251-.528a.741.741,0,0,1,.252-.025h.1c.317,0,.477.067.477.2a2.062,2.062,0,0,1-.076.4,6.546,6.546,0,0,1-1.356,2.915,2.5,2.5,0,0,1-.8.527,2.712,2.712,0,0,1-.6.051,2.268,2.268,0,0,1-2.211-1.231,1.86,1.86,0,0,0-.126-.3c-.017-.017-.05-.008-.1.025l-.1.1a5.137,5.137,0,0,1-2.386,1.382,5.009,5.009,0,0,1-.628.025,3.331,3.331,0,0,1-2.739-1.383,4.883,4.883,0,0,1-.754-2.813,7.672,7.672,0,0,1,1.709-4.624,6.57,6.57,0,0,1,3.467-2.387,3.723,3.723,0,0,1,1.03-.151,2.407,2.407,0,0,1,2.111,1.055c.083.1.125.135.125.1l.691-2.751q.666-2.652.692-2.777a.454.454,0,0,0-.151-.4,3.768,3.768,0,0,0-1-.126h-.528a.709.709,0,0,1-.164-.2,2.616,2.616,0,0,1,.064-.478c.083-.317.192-.477.326-.477q.024,0,.264-.024t.678-.051Zm-2.161,9.1q-.552-1.986-1.884-1.986a2.321,2.321,0,0,0-1.772.855,5.953,5.953,0,0,0-1.168,1.96,20.055,20.055,0,0,0-1.03,4.121c0,.051-.005.142-.013.276s-.013.235-.013.3a2.477,2.477,0,0,0,.39,1.457,1.31,1.31,0,0,0,1.144.553q1.331,0,2.789-1.809l.2-.276q.225-.906.678-2.727T166.987,110.058Z"/><path class="b" d="M172.665,111.264a.416.416,0,0,1-.15-.277,4.749,4.749,0,0,1,.779-1.733,4.307,4.307,0,0,1,2.965-2.061,4.166,4.166,0,0,1,.527-.05,3.051,3.051,0,0,1,1.621.453,2.7,2.7,0,0,1,1.068,1.13c.217-.285.351-.46.4-.528a2.785,2.785,0,0,1,2.136-1.055,2.372,2.372,0,0,1,1.671.59,1.9,1.9,0,0,1,.64,1.446,1.972,1.972,0,0,1-.439,1.306,1.445,1.445,0,0,1-1.169.528,1.1,1.1,0,0,1-.778-.277.937.937,0,0,1-.3-.728,1.6,1.6,0,0,1,1.257-1.583,1.029,1.029,0,0,0-.277-.176,1.43,1.43,0,0,0-.729-.151,1.667,1.667,0,0,0-.478.05A2.627,2.627,0,0,0,180,109.807q-.076.2-.73,2.8t-.7,2.927a3.942,3.942,0,0,0-.075.754,1.288,1.288,0,0,0,.352.955,1.253,1.253,0,0,0,.929.352,2.6,2.6,0,0,0,1.911-.892,4.649,4.649,0,0,0,1.155-1.973c.051-.167.1-.263.15-.289a1.243,1.243,0,0,1,.4-.037q.477,0,.477.2c0,.018-.017.11-.05.277a5.475,5.475,0,0,1-1.759,2.714,3.964,3.964,0,0,1-2.488.929,2.893,2.893,0,0,1-2.663-1.583,3.515,3.515,0,0,1-1.859,1.508,3.252,3.252,0,0,1-.654.051,2.192,2.192,0,0,1-2.06-1.03,1.944,1.944,0,0,1-.251-1.006,1.9,1.9,0,0,1,.452-1.281,1.453,1.453,0,0,1,1.155-.528.944.944,0,0,1,1.081,1.055,1.42,1.42,0,0,1-.88,1.357l-.125.063-.125.063a.2.2,0,0,1-.076.025l-.076.025q0,.075.377.227a1.677,1.677,0,0,0,.653.125,1.857,1.857,0,0,0,1.559-1.131,18.966,18.966,0,0,0,.98-3.267c.1-.385.208-.811.327-1.281s.205-.829.263-1.08.1-.4.114-.452a6.2,6.2,0,0,0,.125-.981,1.356,1.356,0,0,0-.327-.955,1.174,1.174,0,0,0-.905-.351,2.623,2.623,0,0,0-1.959.867,4.76,4.76,0,0,0-1.156,2c-.034.151-.071.239-.113.265a1.251,1.251,0,0,1-.414.037Z"/></svg>