<svg xmlns="http://www.w3.org/2000/svg" width="640" height="180" viewBox="0 0 640 180"><defs><style>.a{fill:#fff;}.b{fill:#fff933;}.c{fill:#58c4dd;}.d{fill:#fc6255;}</style></defs><rect width="640" height="180"/><path class="a" d="M200.338,103.042c0,.15-.15.226-.452.226h-.326c-.118-.1-.353-.3-.7-.6q-4.524-4.122-4.523-11.96a20.219,20.219,0,0,1,.729-5.6,13.545,13.545,0,0,1,3.794-6.357c.117-.1.251-.214.4-.339s.251-.214.3-.264h.326a.6.6,0,0,1,.377.075.22.22,0,0,1,.075.151q0,.1-.276.377-3.9,4.122-3.9,11.961t3.9,11.96Q200.338,102.941,200.338,103.042Z"/><path class="a" d="M203.2,90a.419.419,0,0,1-.15-.276,4.745,4.745,0,0,1,.779-1.734A4.312,4.312,0,0,1,206.8,85.93a4.182,4.182,0,0,1,.527-.05,3.057,3.057,0,0,1,1.622.453,2.705,2.705,0,0,1,1.067,1.13c.218-.284.352-.461.4-.527a2.783,2.783,0,0,1,2.136-1.056,2.367,2.367,0,0,1,1.671.591,1.889,1.889,0,0,1,.641,1.445,1.973,1.973,0,0,1-.44,1.306,1.444,1.444,0,0,1-1.169.528,1.1,1.1,0,0,1-.778-.277.941.941,0,0,1-.3-.728,1.6,1.6,0,0,1,1.257-1.583,1,1,0,0,0-.276-.176,1.435,1.435,0,0,0-.73-.151,1.654,1.654,0,0,0-.477.05,2.629,2.629,0,0,0-1.407,1.658q-.075.2-.729,2.8t-.7,2.927a3.85,3.85,0,0,0-.076.754,1.292,1.292,0,0,0,.352.955,1.254,1.254,0,0,0,.93.352,2.6,2.6,0,0,0,1.91-.893,4.642,4.642,0,0,0,1.155-1.971c.051-.168.1-.265.151-.289a1.191,1.191,0,0,1,.4-.038q.477,0,.477.2c0,.016-.016.109-.049.276a5.473,5.473,0,0,1-1.76,2.714,3.96,3.96,0,0,1-2.487.93,2.9,2.9,0,0,1-2.664-1.583,3.52,3.52,0,0,1-1.859,1.508,3.269,3.269,0,0,1-.653.049,2.19,2.19,0,0,1-2.061-1.03,1.937,1.937,0,0,1-.251-1,1.9,1.9,0,0,1,.452-1.281,1.451,1.451,0,0,1,1.156-.528.945.945,0,0,1,1.081,1.055,1.419,1.419,0,0,1-.88,1.357l-.126.063-.125.063a.212.212,0,0,1-.075.025l-.076.025q0,.075.376.226a1.683,1.683,0,0,0,.654.126,1.856,1.856,0,0,0,1.558-1.131,19.007,19.007,0,0,0,.98-3.266q.15-.578.327-1.282c.116-.468.205-.829.264-1.08s.095-.4.113-.452a6.207,6.207,0,0,0,.125-.98,1.351,1.351,0,0,0-.326-.955,1.174,1.174,0,0,0-.905-.352,2.622,2.622,0,0,0-1.959.867,4.762,4.762,0,0,0-1.157,2c-.034.151-.071.239-.113.264a1.21,1.21,0,0,1-.414.038Z"/><path class="a" d="M217.625,78.166l.1-.025h.553l.7.6q4.523,4.122,4.523,11.961a19.845,19.845,0,0,1-.728,5.577,13.573,13.573,0,0,1-3.795,6.383c-.118.1-.251.213-.4.339s-.252.214-.3.264h-.3a.957.957,0,0,1-.39-.05c-.058-.034-.088-.117-.088-.251.017-.018.11-.126.277-.327q3.894-4.047,3.894-11.935t-3.894-11.936c-.167-.2-.26-.31-.277-.327A.3.3,0,0,1,217.625,78.166Z"/><path class="a" d="M233.58,88.267a.547.547,0,0,1,.352-.5h16.006a.548.548,0,0,1,.377.5.571.571,0,0,1-.352.478l-7.99.025h-7.99A.5.5,0,0,1,233.58,88.267Zm0,4.875a.5.5,0,0,1,.4-.5h15.98a1.028,1.028,0,0,0,.113.088,1.06,1.06,0,0,1,.125.1.43.43,0,0,1,.077.126.5.5,0,0,1,.037.189.55.55,0,0,1-.377.5H233.932A.549.549,0,0,1,233.58,93.142Z"/><path class="a" d="M267.111,88.634h.42q1.17,0,1.41-.42v-.93q0-.42.015-.991t.015-1.3V75.554q0-.99-.015-1.815t-.015-1.305v-.51a.991.991,0,0,0-.435-.765,3.494,3.494,0,0,0-1.335-.255h-.54v-.69c0-.46.02-.691.06-.691l.3-.029q.3-.03.871-.06l1.11-.06q.51-.03,1.11-.075t.9-.075c.2-.02.309-.03.33-.03h.09v9.45q0,9.51.03,9.57a.638.638,0,0,0,.36.329,10.352,10.352,0,0,0,1.47.091h.479v1.38H273.5a32.177,32.177,0,0,0-3.3-.09,29.85,29.85,0,0,0-3.33.09h-.239v-1.38Z"/><path class="a" d="M281.6,90.014a25.628,25.628,0,0,0-3.12-.09,31.688,31.688,0,0,0-3.271.09h-.239v-1.38h.479a10.387,10.387,0,0,0,1.471-.091.647.647,0,0,0,.36-.329q.029-.06.03-4.35a41.546,41.546,0,0,0-.12-4.8q-.24-.6-1.77-.6h-.33v-.691c0-.459.02-.69.06-.69l.3-.029q.3-.03.84-.06l1.08-.06c.34-.02.7-.045,1.08-.075s.67-.055.871-.075.309-.03.33-.03h.089v11.4a.693.693,0,0,0,.361.375,4.729,4.729,0,0,0,1.05.105h.69v1.38Zm-3.481-20.07a1.929,1.929,0,0,1,1.231.525,1.7,1.7,0,0,1,.479,1.275,1.6,1.6,0,0,1-.809,1.529,1.638,1.638,0,0,1-.96.27,1.689,1.689,0,0,1-.99-.27,1.6,1.6,0,0,1-.81-1.529,1.7,1.7,0,0,1,.524-1.32A1.9,1.9,0,0,1,278.12,69.944Z"/><path class="a" d="M288.17,88.214q.24.42,1.41.42h.9v1.38h-.241a62.746,62.746,0,0,0-6.719,0h-.24v-1.38h.9q1.168,0,1.409-.42v-.93q0-.42.016-.945t.014-1.171V83.924q0-.93-.014-2t-.016-1.755v-.69a.991.991,0,0,0-.434-.765,3.5,3.5,0,0,0-1.335-.255h-.54v-.691c0-.459.019-.69.059-.69l.3-.029q.3-.03.854-.06l1.095-.06q.51-.03,1.08-.075t.87-.075c.2-.02.311-.03.33-.03h.09v1.2a8.151,8.151,0,0,0,.03,1.14l.031-.031a5.277,5.277,0,0,1,4.59-2.309q2.909.088,3.57,2.28l.059.15q.721-.9.81-.99a5.047,5.047,0,0,1,3.57-1.44q3.75,0,4.111,3.39.029.21.03,4.169,0,3.841.029,3.9a.64.64,0,0,0,.361.329,10.357,10.357,0,0,0,1.469.091h.481v1.38h-.24a62.765,62.765,0,0,0-6.72,0h-.24v-1.38h.719q1.59,0,1.59-.48.03-.06.03-4.14-.03-4.051-.059-4.29a2.644,2.644,0,0,0-.676-1.4,2.023,2.023,0,0,0-1.425-.435,3.253,3.253,0,0,0-2.37,1.02,4.3,4.3,0,0,0-1.229,2.64c0,.02,0,.2-.016.555s-.015.8-.015,1.335V86.8q0,.39.015.7c.011.21.016.385.016.525v.18q.238.42,1.41.42h.9v1.38h-.24a62.765,62.765,0,0,0-6.72,0h-.24v-1.38h.721q1.589,0,1.59-.48.029-.06.03-4.14-.031-4.051-.061-4.29a2.643,2.643,0,0,0-.674-1.4,2.029,2.029,0,0,0-1.425-.435,3.248,3.248,0,0,0-2.37,1.02,4.293,4.293,0,0,0-1.231,2.64v.555q0,.525-.014,1.335c-.011.54-.015,1.05-.015,1.53v.944c0,.331,0,.626.015.886s.014.5.014.7v.7Z"/><path class="b" d="M273.871,111.717a1.791,1.791,0,0,1-1.28-.471,1.584,1.584,0,0,1-.5-1.21,2.808,2.808,0,0,1,.2-.88,23.513,23.513,0,0,0,1.2-3.78,3.972,3.972,0,0,0,.06-.76q0-1.179-.979-1.179a2.362,2.362,0,0,0-.521.04,3.8,3.8,0,0,0-2.36,1.919l-.14.26-.68,2.7q-.639,2.6-.74,2.84a.9.9,0,0,1-.88.54.842.842,0,0,1-.47-.15.449.449,0,0,1-.23-.39q0-.24,2.94-12a.361.361,0,0,0-.12-.32,3.034,3.034,0,0,0-.8-.1h-.421a.559.559,0,0,1-.13-.16,1.977,1.977,0,0,1,.051-.38q.1-.379.259-.38l1.45-.11q1.431-.109,1.45-.109c.16,0,.24.059.24.179q0,.22-.72,3.02-.76,2.961-.76,3.02c0,.027.046-.006.14-.1a3.764,3.764,0,0,1,2.6-1.08,2.689,2.689,0,0,1,1.76.54,1.921,1.921,0,0,1,.66,1.579,3.99,3.99,0,0,1-.06.761,25.127,25.127,0,0,1-1.1,3.54,4.775,4.775,0,0,0-.36,1.42.723.723,0,0,0,.1.379.366.366,0,0,0,.3.1,1.369,1.369,0,0,0,1.05-.609,4.5,4.5,0,0,0,.77-1.63.511.511,0,0,1,.12-.261.752.752,0,0,1,.32-.04c.253.04.387.094.4.16,0,.014-.027.113-.08.3a4.561,4.561,0,0,1-1.02,1.94A2.1,2.1,0,0,1,273.871,111.717Z"/><path class="a" d="M278.831,106.517a.436.436,0,0,1,.281-.4h15.3a7.46,7.46,0,0,1-2.2-2.559,6.465,6.465,0,0,1-.66-1.9.325.325,0,0,0-.01-.08.246.246,0,0,1-.01-.059q0-.22.4-.221a.6.6,0,0,1,.31.051.387.387,0,0,1,.11.229,3.869,3.869,0,0,0,.221.82,6.127,6.127,0,0,0,1.459,2.39,5.914,5.914,0,0,0,2.38,1.51.224.224,0,0,1,0,.44,5.925,5.925,0,0,0-2.38,1.51,6.131,6.131,0,0,0-1.459,2.391,7.257,7.257,0,0,0-.221.8.427.427,0,0,1-.11.25.619.619,0,0,1-.31.049c-.279,0-.42-.073-.42-.219a4.005,4.005,0,0,1,.12-.5,7.116,7.116,0,0,1,2.78-4.1h-15.3A.434.434,0,0,1,278.831,106.517Z"/><path class="a" d="M300.231,99.816a3.528,3.528,0,0,1,3.06-1.62,3.692,3.692,0,0,1,2.56,1,4.342,4.342,0,0,1,.92,1.361,11.443,11.443,0,0,1,.74,4.559,10.438,10.438,0,0,1-.86,4.74,3.463,3.463,0,0,1-1.64,1.68,3.77,3.77,0,0,1-1.7.42,3.525,3.525,0,0,1-3.361-2.1,10.439,10.439,0,0,1-.859-4.74,15.57,15.57,0,0,1,.25-3.07A6.7,6.7,0,0,1,300.231,99.816Zm4.5-.24a1.843,1.843,0,0,0-1.42-.639,1.906,1.906,0,0,0-1.441.639,2.409,2.409,0,0,0-.6,1.12,12.277,12.277,0,0,0-.2,2.281c0,.08,0,.339-.01.78s-.01.806-.01,1.1q0,1.922.04,2.68a11.464,11.464,0,0,0,.239,2.01,2.282,2.282,0,0,0,.6,1.051,1.776,1.776,0,0,0,1.38.6,1.754,1.754,0,0,0,1.36-.6,2.28,2.28,0,0,0,.6-1.051,11.54,11.54,0,0,0,.24-2.01q.039-.759.04-2.68c0-.293,0-.66-.01-1.1s-.01-.7-.01-.78a12.254,12.254,0,0,0-.2-2.281A2.409,2.409,0,0,0,304.731,99.576Z"/><path class="c" d="M328.608,81.184q.678.15.728.15.579,0,1.006-1.055.3-.828,1.834-8.945.7-3.793.729-3.819v-.076h-1.181a6.754,6.754,0,0,1-1.257-.05q-.175-.1-.05-.553a2.335,2.335,0,0,1,.125-.4.229.229,0,0,1,.214-.138q.162-.012,1.169-.012a10.615,10.615,0,0,0,1.206-.026q0-.05.226-1.256t.3-1.458a6.132,6.132,0,0,1,1.583-3.316,3.248,3.248,0,0,1,2.086-.83,2.569,2.569,0,0,1,1.52.553,1.636,1.636,0,0,1,.616,1.332,1.773,1.773,0,0,1-.452,1.231,1.457,1.457,0,0,1-1.131.5q-1.106,0-1.105-1.056a1.419,1.419,0,0,1,.879-1.357l.226-.125a2.47,2.47,0,0,0-.754-.151q-.729,0-.955.955-.2.755-.653,3.292l-.326,1.658a7.057,7.057,0,0,0,1.381.051q1.131,0,1.357.025c.15.017.226.075.226.175a2.835,2.835,0,0,1-.175.805.249.249,0,0,1-.24.138c-.126.009-.574.012-1.343.012H334.99l-.578,3.066q-.93,4.8-1.156,5.8Q332.4,80.1,330.97,81.46a2.833,2.833,0,0,1-1.834.8,2.274,2.274,0,0,1-1.508-.5,1.647,1.647,0,0,1-.6-1.332,1.857,1.857,0,0,1,.452-1.269,1.442,1.442,0,0,1,1.131-.515q1.106,0,1.105,1.055a1.419,1.419,0,0,1-.879,1.357Z"/><path class="a" d="M346.322,83.169c0,.151-.15.226-.452.226h-.326l-.7-.6q-4.524-4.122-4.522-11.96a20.258,20.258,0,0,1,.728-5.6,13.553,13.553,0,0,1,3.794-6.357c.117-.1.251-.214.4-.339s.251-.214.3-.264h.326a.6.6,0,0,1,.377.075.22.22,0,0,1,.075.151c0,.067-.091.193-.276.377q-3.9,4.122-3.894,11.961t3.894,11.96C346.231,82.976,346.322,83.1,346.322,83.169Z"/><path class="a" d="M349.186,70.128a.417.417,0,0,1-.151-.276,4.767,4.767,0,0,1,.78-1.734,4.31,4.31,0,0,1,2.965-2.061,4.166,4.166,0,0,1,.527-.05,3.059,3.059,0,0,1,1.621.452A2.707,2.707,0,0,1,356,67.59c.218-.284.352-.461.4-.527a2.782,2.782,0,0,1,2.135-1.056,2.365,2.365,0,0,1,1.671.591,1.889,1.889,0,0,1,.641,1.444,1.978,1.978,0,0,1-.439,1.307,1.444,1.444,0,0,1-1.169.527,1.1,1.1,0,0,1-.779-.276.941.941,0,0,1-.3-.728,1.6,1.6,0,0,1,1.257-1.583.984.984,0,0,0-.276-.176,1.432,1.432,0,0,0-.73-.151,1.664,1.664,0,0,0-.477.05,2.625,2.625,0,0,0-1.406,1.658q-.077.2-.73,2.8t-.7,2.927a3.863,3.863,0,0,0-.075.754,1.291,1.291,0,0,0,.351.955,1.255,1.255,0,0,0,.93.352,2.6,2.6,0,0,0,1.91-.892,4.648,4.648,0,0,0,1.156-1.972c.05-.168.1-.264.15-.289a1.2,1.2,0,0,1,.4-.038q.478,0,.478.2c0,.017-.017.109-.05.276a5.471,5.471,0,0,1-1.76,2.714,3.96,3.96,0,0,1-2.487.93,2.893,2.893,0,0,1-2.663-1.583,3.515,3.515,0,0,1-1.86,1.507,3.169,3.169,0,0,1-.653.051,2.19,2.19,0,0,1-2.06-1.031,1.937,1.937,0,0,1-.251-1.005,1.9,1.9,0,0,1,.452-1.281,1.452,1.452,0,0,1,1.155-.528.944.944,0,0,1,1.081,1.055,1.42,1.42,0,0,1-.88,1.357l-.126.063-.125.063a.188.188,0,0,1-.075.025l-.076.025c0,.05.126.126.377.226a1.678,1.678,0,0,0,.653.126,1.857,1.857,0,0,0,1.559-1.131,19.117,19.117,0,0,0,.979-3.266c.1-.385.209-.813.327-1.282s.2-.829.264-1.08.1-.4.113-.452a6.207,6.207,0,0,0,.125-.98,1.355,1.355,0,0,0-.326-.956,1.175,1.175,0,0,0-.905-.351,2.623,2.623,0,0,0-1.959.867,4.75,4.75,0,0,0-1.156,2c-.035.151-.072.239-.114.264a1.206,1.206,0,0,1-.414.038Z"/><path class="a" d="M369.791,70.832a.547.547,0,0,1,.352-.5h7.513V66.56l.025-3.769c.167-.218.327-.327.477-.327a.551.551,0,0,1,.5.377v7.488h7.488a.523.523,0,0,1,0,1.005h-7.488v7.488a.535.535,0,0,1-1,0V71.334h-7.513A.547.547,0,0,1,369.791,70.832Z"/><path class="b" d="M404.616,77.365a2.253,2.253,0,0,1-1.607-.591,1.991,1.991,0,0,1-.629-1.52,3.543,3.543,0,0,1,.252-1.106,29.507,29.507,0,0,0,1.507-4.749,4.93,4.93,0,0,0,.076-.955q0-1.482-1.231-1.482a3.035,3.035,0,0,0-.654.05,4.784,4.784,0,0,0-2.965,2.412l-.175.327-.855,3.392q-.8,3.267-.929,3.568a1.135,1.135,0,0,1-1.106.679,1.07,1.07,0,0,1-.591-.189.566.566,0,0,1-.289-.49q0-.3,3.694-15.076a.451.451,0,0,0-.151-.4,3.755,3.755,0,0,0-1-.126h-.528a.7.7,0,0,1-.163-.2,2.545,2.545,0,0,1,.063-.477c.083-.318.193-.478.326-.478q.026,0,1.822-.138t1.822-.138c.2,0,.3.075.3.226q0,.276-.9,3.794-.956,3.72-.955,3.795c0,.033.059-.009.176-.126a4.734,4.734,0,0,1,3.267-1.357,3.382,3.382,0,0,1,2.211.679,2.417,2.417,0,0,1,.829,1.984,5.105,5.105,0,0,1-.075.955,31.686,31.686,0,0,1-1.382,4.448,5.986,5.986,0,0,0-.452,1.784.886.886,0,0,0,.125.477.461.461,0,0,0,.377.126,1.72,1.72,0,0,0,1.319-.767,5.639,5.639,0,0,0,.968-2.047.643.643,0,0,1,.15-.327.945.945,0,0,1,.4-.05c.318.05.486.117.5.2,0,.017-.033.142-.1.377a5.753,5.753,0,0,1-1.281,2.437A2.645,2.645,0,0,1,404.616,77.365Z"/><path class="a" d="M410.2,58.293l.1-.025h.553l.7.6q4.524,4.122,4.523,11.961a19.858,19.858,0,0,1-.728,5.578,13.567,13.567,0,0,1-3.795,6.382c-.117.1-.251.213-.4.339s-.252.214-.3.264h-.3a.957.957,0,0,1-.39-.05c-.058-.034-.087-.117-.087-.251.016-.017.109-.126.276-.327q3.9-4.046,3.894-11.935T410.346,58.9c-.167-.2-.26-.31-.276-.327A.3.3,0,0,1,410.2,58.293Z"/><path class="a" d="M426.854,70.832a.547.547,0,0,1,.352-.5h14.6a.523.523,0,0,1,0,1.005h-14.6A.547.547,0,0,1,426.854,70.832Z"/><path class="c" d="M447.257,81.184q.678.15.729.15.577,0,1-1.055.3-.828,1.834-8.945.7-3.793.729-3.819v-.076h-1.181a6.754,6.754,0,0,1-1.257-.05q-.175-.1-.049-.553a2.142,2.142,0,0,1,.125-.4.228.228,0,0,1,.214-.138c.108-.008.5-.012,1.168-.012a10.643,10.643,0,0,0,1.207-.026q0-.05.225-1.256t.3-1.458a6.125,6.125,0,0,1,1.583-3.316,3.246,3.246,0,0,1,2.086-.83,2.568,2.568,0,0,1,1.519.553,1.637,1.637,0,0,1,.617,1.332,1.774,1.774,0,0,1-.453,1.231,1.453,1.453,0,0,1-1.13.5q-1.107,0-1.106-1.056A1.419,1.419,0,0,1,456.3,60.6l.227-.125a2.47,2.47,0,0,0-.754-.151q-.731,0-.955.955-.2.755-.654,3.292l-.326,1.658a7.064,7.064,0,0,0,1.382.051q1.131,0,1.356.025c.151.017.227.075.227.175a2.845,2.845,0,0,1-.176.805.247.247,0,0,1-.239.138c-.126.009-.574.012-1.344.012H453.64l-.578,3.066q-.93,4.8-1.156,5.8-.855,3.793-2.287,5.151a2.833,2.833,0,0,1-1.834.8,2.272,2.272,0,0,1-1.507-.5,1.645,1.645,0,0,1-.6-1.332,1.857,1.857,0,0,1,.452-1.269,1.442,1.442,0,0,1,1.131-.515q1.106,0,1.106,1.055a1.419,1.419,0,0,1-.879,1.357Z"/><path class="a" d="M464.972,83.169c0,.151-.15.226-.452.226h-.326l-.705-.6q-4.522-4.122-4.522-11.96a20.219,20.219,0,0,1,.729-5.6,13.552,13.552,0,0,1,3.793-6.357c.118-.1.251-.214.4-.339s.251-.214.3-.264h.326a.6.6,0,0,1,.377.075.22.22,0,0,1,.075.151q0,.1-.276.377-3.9,4.122-3.9,11.961t3.9,11.96Q464.972,83.068,464.972,83.169Z"/><path class="a" d="M467.836,70.128a.419.419,0,0,1-.15-.276,4.745,4.745,0,0,1,.779-1.734,4.31,4.31,0,0,1,2.965-2.061,4.166,4.166,0,0,1,.527-.05,3.059,3.059,0,0,1,1.621.452,2.709,2.709,0,0,1,1.068,1.131c.218-.284.351-.461.4-.527a2.783,2.783,0,0,1,2.136-1.056,2.368,2.368,0,0,1,1.671.591,1.891,1.891,0,0,1,.64,1.444,1.973,1.973,0,0,1-.439,1.307,1.444,1.444,0,0,1-1.169.527,1.1,1.1,0,0,1-.778-.276.937.937,0,0,1-.3-.728,1.6,1.6,0,0,1,1.257-1.583,1,1,0,0,0-.277-.176,1.43,1.43,0,0,0-.729-.151,1.667,1.667,0,0,0-.478.05,2.63,2.63,0,0,0-1.406,1.658q-.077.2-.729,2.8t-.7,2.927a3.942,3.942,0,0,0-.075.754,1.288,1.288,0,0,0,.352.955,1.253,1.253,0,0,0,.929.352,2.6,2.6,0,0,0,1.911-.892,4.646,4.646,0,0,0,1.155-1.972c.051-.168.1-.264.15-.289a1.2,1.2,0,0,1,.4-.038q.477,0,.477.2c0,.017-.016.109-.05.276a5.475,5.475,0,0,1-1.759,2.714,3.963,3.963,0,0,1-2.488.93,2.894,2.894,0,0,1-2.663-1.583,3.513,3.513,0,0,1-1.859,1.507,3.175,3.175,0,0,1-.653.051,2.192,2.192,0,0,1-2.061-1.031,1.937,1.937,0,0,1-.251-1.005,1.9,1.9,0,0,1,.452-1.281,1.453,1.453,0,0,1,1.155-.528.944.944,0,0,1,1.081,1.055,1.419,1.419,0,0,1-.879,1.357l-.126.063-.125.063a.2.2,0,0,1-.076.025l-.076.025c0,.05.126.126.377.226a1.679,1.679,0,0,0,.654.126,1.856,1.856,0,0,0,1.558-1.131,18.973,18.973,0,0,0,.98-3.266q.15-.578.327-1.282c.116-.468.205-.829.263-1.08s.1-.4.114-.452a6.207,6.207,0,0,0,.125-.98,1.36,1.36,0,0,0-.326-.956,1.177,1.177,0,0,0-.906-.351,2.623,2.623,0,0,0-1.959.867,4.771,4.771,0,0,0-1.156,2c-.034.151-.071.239-.113.264a1.21,1.21,0,0,1-.414.038Z"/><path class="a" d="M482.259,58.293l.1-.025h.552q.177.15.7.6,4.524,4.122,4.524,11.961a19.82,19.82,0,0,1-.729,5.578,13.559,13.559,0,0,1-3.8,6.382c-.117.1-.251.213-.4.339s-.252.214-.3.264h-.3a.953.953,0,0,1-.39-.05c-.059-.034-.088-.117-.088-.251q.026-.025.276-.327,3.9-4.046,3.895-11.935T482.409,58.9q-.25-.3-.276-.327A.3.3,0,0,1,482.259,58.293Z"/><path class="b" d="M405.49,118.805a2.253,2.253,0,0,1-1.607-.591,1.991,1.991,0,0,1-.629-1.52,3.539,3.539,0,0,1,.252-1.105,29.57,29.57,0,0,0,1.507-4.749,4.938,4.938,0,0,0,.076-.955q0-1.484-1.231-1.483a3.035,3.035,0,0,0-.654.05,4.787,4.787,0,0,0-2.965,2.412l-.175.327-.855,3.392q-.8,3.267-.929,3.568a1.135,1.135,0,0,1-1.106.679,1.076,1.076,0,0,1-.591-.188.568.568,0,0,1-.289-.491q0-.3,3.694-15.076a.451.451,0,0,0-.151-.4,3.725,3.725,0,0,0-1-.125H398.3a.726.726,0,0,1-.163-.2,2.542,2.542,0,0,1,.063-.478c.083-.318.193-.477.327-.477q.024,0,1.821-.139t1.822-.138c.2,0,.3.075.3.227q0,.275-.9,3.794-.956,3.719-.955,3.794c0,.034.059-.008.176-.126a4.736,4.736,0,0,1,3.267-1.357,3.387,3.387,0,0,1,2.211.679,2.417,2.417,0,0,1,.829,1.984,5.105,5.105,0,0,1-.075.955,31.645,31.645,0,0,1-1.382,4.448,5.986,5.986,0,0,0-.452,1.784.886.886,0,0,0,.125.477.461.461,0,0,0,.377.126,1.721,1.721,0,0,0,1.319-.766,5.652,5.652,0,0,0,.968-2.048.643.643,0,0,1,.15-.327.945.945,0,0,1,.4-.05c.318.05.486.117.5.2,0,.017-.033.143-.1.377a5.757,5.757,0,0,1-1.281,2.438A2.647,2.647,0,0,1,405.49,118.805Z"/><rect class="a" x="325.643" y="90.179" width="160" height="1" rx="0.5"/><rect class="a" x="156.916" y="90.179" width="30" height="1" rx="0.5"/><path class="d" d="M169.149,63.17q.377-.024.854-.063t.716-.062c.159-.017.247-.025.264-.025.2,0,.3.067.3.2q0,.176-1.846,7.6t-1.872,7.551a2.042,2.042,0,0,0-.026.377q0,1.055.7,1.055a1.09,1.09,0,0,0,.5-.226,5.7,5.7,0,0,0,1.031-2.412q.15-.5.251-.528a.733.733,0,0,1,.252-.025h.1c.317,0,.478.067.478.2a2.091,2.091,0,0,1-.077.4,6.541,6.541,0,0,1-1.356,2.914,2.487,2.487,0,0,1-.8.528,2.718,2.718,0,0,1-.6.05,2.266,2.266,0,0,1-2.211-1.231,1.864,1.864,0,0,0-.126-.3c-.017-.017-.05-.009-.1.025l-.1.1a5.136,5.136,0,0,1-2.387,1.382,4.814,4.814,0,0,1-.628.025,3.333,3.333,0,0,1-2.739-1.382,4.886,4.886,0,0,1-.754-2.814,7.671,7.671,0,0,1,1.709-4.623,6.576,6.576,0,0,1,3.468-2.388,3.746,3.746,0,0,1,1.029-.15,2.407,2.407,0,0,1,2.111,1.055c.083.1.125.135.125.1q.026-.1.692-2.752t.691-2.777a.453.453,0,0,0-.151-.4,3.768,3.768,0,0,0-1-.126h-.527a.7.7,0,0,1-.165-.2,2.725,2.725,0,0,1,.064-.478c.083-.317.192-.477.326-.477.017,0,.1-.008.264-.025s.386-.033.678-.05S168.864,63.188,169.149,63.17Zm-2.161,9.1q-.553-1.986-1.885-1.986a2.321,2.321,0,0,0-1.772.855,5.97,5.97,0,0,0-1.168,1.96,20.039,20.039,0,0,0-1.03,4.121c0,.05-.005.142-.013.276s-.012.235-.012.3a2.485,2.485,0,0,0,.389,1.458,1.31,1.31,0,0,0,1.144.553q1.332,0,2.789-1.809l.2-.277q.225-.9.678-2.726T166.988,72.267Z"/><path class="d" d="M174.173,84.529q.678.15.729.15.578,0,1.005-1.055.3-.829,1.834-8.945.7-3.8.729-3.82v-.075h-1.181a6.754,6.754,0,0,1-1.257-.05c-.117-.067-.133-.252-.049-.553a2.142,2.142,0,0,1,.125-.4.225.225,0,0,1,.214-.138c.108-.009.5-.013,1.168-.013A10.852,10.852,0,0,0,178.7,69.6q0-.05.225-1.256c.151-.8.251-1.29.3-1.458a6.122,6.122,0,0,1,1.583-3.316,3.246,3.246,0,0,1,2.086-.83,2.562,2.562,0,0,1,1.519.553,1.636,1.636,0,0,1,.617,1.332,1.776,1.776,0,0,1-.453,1.231,1.457,1.457,0,0,1-1.13.5q-1.107,0-1.106-1.056a1.418,1.418,0,0,1,.879-1.357l.227-.125a2.47,2.47,0,0,0-.754-.151q-.731,0-.955.955-.2.753-.654,3.291l-.326,1.659a7.133,7.133,0,0,0,1.382.05q1.131,0,1.356.025c.151.017.227.076.227.176a2.84,2.84,0,0,1-.176.8.246.246,0,0,1-.239.138q-.189.014-1.344.013h-1.407l-.578,3.066q-.93,4.8-1.156,5.8-.855,3.794-2.287,5.151a2.833,2.833,0,0,1-1.834.8,2.272,2.272,0,0,1-1.507-.5,1.643,1.643,0,0,1-.6-1.331,1.856,1.856,0,0,1,.452-1.269,1.442,1.442,0,0,1,1.131-.515q1.106,0,1.106,1.055A1.419,1.419,0,0,1,174.4,84.4Z"/><path class="b" d="M169.149,100.962q.377-.026.854-.064t.716-.062c.159-.017.247-.025.264-.025.2,0,.3.067.3.2q0,.175-1.846,7.6t-1.872,7.551a2.042,2.042,0,0,0-.026.377q0,1.055.7,1.055a1.09,1.09,0,0,0,.5-.226,5.7,5.7,0,0,0,1.031-2.412q.15-.5.251-.528a.733.733,0,0,1,.252-.025h.1c.317,0,.478.067.478.2a2.091,2.091,0,0,1-.077.4,6.546,6.546,0,0,1-1.356,2.915,2.484,2.484,0,0,1-.8.527,2.706,2.706,0,0,1-.6.051,2.268,2.268,0,0,1-2.211-1.231,1.86,1.86,0,0,0-.126-.3c-.017-.017-.05-.008-.1.025l-.1.1a5.145,5.145,0,0,1-2.387,1.382,5.009,5.009,0,0,1-.628.025,3.334,3.334,0,0,1-2.739-1.383,4.883,4.883,0,0,1-.754-2.813,7.672,7.672,0,0,1,1.709-4.624,6.568,6.568,0,0,1,3.468-2.387,3.71,3.71,0,0,1,1.029-.151,2.407,2.407,0,0,1,2.111,1.055c.083.1.125.135.125.1q.026-.1.692-2.751t.691-2.777a.454.454,0,0,0-.151-.4,3.768,3.768,0,0,0-1-.126h-.527a.7.7,0,0,1-.165-.2,2.725,2.725,0,0,1,.064-.478c.083-.317.192-.477.326-.477q.025,0,.264-.024c.159-.017.386-.034.678-.051Zm-2.161,9.1q-.553-1.986-1.885-1.986a2.321,2.321,0,0,0-1.772.855,5.97,5.97,0,0,0-1.168,1.96,20.055,20.055,0,0,0-1.03,4.121c0,.051-.005.142-.013.276s-.012.235-.012.3a2.484,2.484,0,0,0,.389,1.457,1.31,1.31,0,0,0,1.144.553q1.332,0,2.789-1.809l.2-.276q.225-.906.678-2.727T166.988,110.058Z"/><path class="b" d="M172.665,111.264a.421.421,0,0,1-.15-.277,4.749,4.749,0,0,1,.779-1.733,4.309,4.309,0,0,1,2.965-2.061,4.166,4.166,0,0,1,.527-.05,3.051,3.051,0,0,1,1.621.453,2.69,2.69,0,0,1,1.068,1.13c.218-.285.351-.46.4-.528a2.785,2.785,0,0,1,2.136-1.055,2.372,2.372,0,0,1,1.671.59,1.892,1.892,0,0,1,.64,1.446,1.972,1.972,0,0,1-.439,1.306,1.445,1.445,0,0,1-1.169.528,1.1,1.1,0,0,1-.778-.277.941.941,0,0,1-.3-.728,1.6,1.6,0,0,1,1.257-1.583,1.029,1.029,0,0,0-.277-.176,1.43,1.43,0,0,0-.729-.151,1.667,1.667,0,0,0-.478.05A2.63,2.63,0,0,0,180,109.807q-.076.2-.729,2.8t-.7,2.927a3.865,3.865,0,0,0-.076.754,1.292,1.292,0,0,0,.352.955,1.254,1.254,0,0,0,.93.352,2.6,2.6,0,0,0,1.91-.892,4.649,4.649,0,0,0,1.155-1.973c.051-.167.1-.263.15-.289a1.243,1.243,0,0,1,.4-.037q.477,0,.477.2c0,.018-.016.11-.05.277a5.475,5.475,0,0,1-1.759,2.714,3.96,3.96,0,0,1-2.488.929,2.894,2.894,0,0,1-2.663-1.583,3.515,3.515,0,0,1-1.859,1.508,3.241,3.241,0,0,1-.653.051,2.193,2.193,0,0,1-2.061-1.03,1.944,1.944,0,0,1-.251-1.006,1.9,1.9,0,0,1,.452-1.281,1.454,1.454,0,0,1,1.156-.528.945.945,0,0,1,1.081,1.055,1.42,1.42,0,0,1-.88,1.357l-.126.063-.125.063a.193.193,0,0,1-.075.025l-.077.025q0,.075.377.227a1.679,1.679,0,0,0,.654.125,1.856,1.856,0,0,0,1.558-1.131,18.966,18.966,0,0,0,.98-3.267c.1-.385.209-.811.327-1.281s.205-.829.264-1.08.095-.4.113-.452a6.2,6.2,0,0,0,.125-.981,1.36,1.36,0,0,0-.326-.955,1.177,1.177,0,0,0-.906-.351,2.623,2.623,0,0,0-1.959.867,4.771,4.771,0,0,0-1.156,2c-.034.151-.071.239-.113.265a1.251,1.251,0,0,1-.414.037Z"/></svg>