<svg xmlns="http://www.w3.org/2000/svg" width="640" height="180" viewBox="0 0 640 180"><defs><style>.a{fill:#fff;}.b{fill:#fff933;}.c{fill:#58c4dd;}.d{fill:none;stroke:#fff933;stroke-miterlimit:10;}</style></defs><rect width="640" height="180"/><path class="a" d="M277.225,103.042c0,.15-.151.226-.453.226h-.326l-.7-.6q-4.523-4.122-4.522-11.961a20.255,20.255,0,0,1,.728-5.6,13.553,13.553,0,0,1,3.794-6.357c.117-.1.251-.214.4-.34s.251-.213.3-.263h.326a.6.6,0,0,1,.377.075.22.22,0,0,1,.076.151q0,.1-.277.377-3.894,4.12-3.894,11.96t3.894,11.961Q277.226,102.941,277.225,103.042Z"/><path class="a" d="M280.088,90a.414.414,0,0,1-.15-.276,4.755,4.755,0,0,1,.779-1.735,4.309,4.309,0,0,1,2.965-2.06,3.984,3.984,0,0,1,.527-.05,3.05,3.05,0,0,1,1.621.452,2.707,2.707,0,0,1,1.067,1.131c.218-.284.352-.461.4-.527a2.779,2.779,0,0,1,2.136-1.056,2.364,2.364,0,0,1,1.67.591,1.889,1.889,0,0,1,.641,1.444,1.973,1.973,0,0,1-.439,1.307,1.447,1.447,0,0,1-1.169.527,1.109,1.109,0,0,1-.779-.276.941.941,0,0,1-.3-.729,1.6,1.6,0,0,1,1.256-1.583,1.041,1.041,0,0,0-.276-.176,1.442,1.442,0,0,0-.729-.15,1.667,1.667,0,0,0-.478.05,2.628,2.628,0,0,0-1.406,1.658q-.076.2-.73,2.8t-.7,2.927a3.848,3.848,0,0,0-.075.754,1.288,1.288,0,0,0,.352.955,1.251,1.251,0,0,0,.929.352,2.6,2.6,0,0,0,1.91-.893,4.645,4.645,0,0,0,1.156-1.971c.05-.168.1-.265.15-.289a1.2,1.2,0,0,1,.4-.038q.479,0,.478.2c0,.016-.017.109-.05.276a5.471,5.471,0,0,1-1.76,2.714,3.96,3.96,0,0,1-2.487.93,2.9,2.9,0,0,1-2.663-1.583,3.523,3.523,0,0,1-1.859,1.508,3.287,3.287,0,0,1-.654.049,2.188,2.188,0,0,1-2.06-1.03,1.937,1.937,0,0,1-.251-1,1.9,1.9,0,0,1,.452-1.281,1.449,1.449,0,0,1,1.155-.528.944.944,0,0,1,1.081,1.055,1.419,1.419,0,0,1-.88,1.357l-.126.063-.125.063a.206.206,0,0,1-.075.025l-.076.025q0,.075.377.226a1.678,1.678,0,0,0,.653.126,1.857,1.857,0,0,0,1.559-1.131,19.05,19.05,0,0,0,.979-3.266c.1-.385.209-.813.327-1.282s.206-.829.264-1.081.1-.4.113-.452a6.185,6.185,0,0,0,.125-.979,1.349,1.349,0,0,0-.326-.955,1.171,1.171,0,0,0-.9-.352,2.626,2.626,0,0,0-1.959.866,4.758,4.758,0,0,0-1.156,2q-.051.227-.114.264a1.206,1.206,0,0,1-.414.038Z"/><path class="a" d="M294.512,78.166l.1-.025h.553l.7.6q4.524,4.12,4.524,11.96a19.846,19.846,0,0,1-.729,5.578,13.557,13.557,0,0,1-3.8,6.383c-.117.1-.251.213-.4.339s-.252.214-.3.264h-.3a.947.947,0,0,1-.389-.05c-.059-.034-.088-.117-.088-.251.016-.018.109-.126.276-.327q3.9-4.047,3.9-11.936t-3.9-11.935c-.167-.2-.26-.31-.276-.327A.3.3,0,0,1,294.512,78.166Z"/><path class="a" d="M310.467,88.267a.547.547,0,0,1,.351-.5h16.006a.548.548,0,0,1,.377.5.57.57,0,0,1-.351.477l-7.991.026h-7.99A.5.5,0,0,1,310.467,88.267Zm0,4.875a.5.5,0,0,1,.4-.5H326.85a.856.856,0,0,0,.113.088,1.264,1.264,0,0,1,.125.1.431.431,0,0,1,.076.126.5.5,0,0,1,.037.189.55.55,0,0,1-.377.5H310.818A.549.549,0,0,1,310.467,93.142Z"/><path class="a" d="M344,88.634h.42q1.17,0,1.41-.42v-.931q0-.418.016-.99t.014-1.305V75.554q0-.99-.014-1.816t-.016-1.3v-.51a.994.994,0,0,0-.434-.766,3.5,3.5,0,0,0-1.335-.255h-.54v-.689c0-.46.019-.691.059-.691l.3-.03c.2-.019.49-.04.87-.059s.75-.04,1.11-.061c.34-.019.71-.045,1.111-.074s.7-.056.9-.075.31-.031.33-.031h.09v9.451q0,9.508.03,9.57a.643.643,0,0,0,.361.329,10.347,10.347,0,0,0,1.469.091h.48v1.38h-.239a31.874,31.874,0,0,0-3.3-.09,29.572,29.572,0,0,0-3.33.09h-.239v-1.38Z"/><path class="a" d="M358.487,90.014a25.368,25.368,0,0,0-3.12-.09,31.35,31.35,0,0,0-3.27.09h-.24v-1.38h.48a10.4,10.4,0,0,0,1.471-.091.646.646,0,0,0,.359-.329q.03-.06.03-4.351a41.52,41.52,0,0,0-.12-4.8q-.24-.6-1.769-.6h-.33v-.691c0-.46.019-.69.059-.69l.3-.029q.3-.03.84-.061l1.08-.059q.51-.03,1.08-.076c.38-.03.67-.054.87-.075s.31-.029.33-.029h.09v11.4a.688.688,0,0,0,.36.375,4.787,4.787,0,0,0,1.05.106h.691v1.38Zm-3.48-20.071a1.923,1.923,0,0,1,1.23.526,1.689,1.689,0,0,1,.48,1.274,1.6,1.6,0,0,1-.81,1.53,1.646,1.646,0,0,1-.96.27,1.7,1.7,0,0,1-.99-.27,1.6,1.6,0,0,1-.81-1.53,1.7,1.7,0,0,1,.525-1.319A1.9,1.9,0,0,1,355.007,69.943Z"/><path class="a" d="M365.057,88.214q.24.42,1.41.42h.9v1.38h-.24a62.765,62.765,0,0,0-6.72,0h-.24v-1.38h.9q1.17,0,1.41-.42v-.931c0-.279,0-.595.015-.944s.015-.74.015-1.171V83.924q0-.93-.015-2c-.011-.71-.015-1.3-.015-1.755v-.691a.994.994,0,0,0-.435-.764,3.494,3.494,0,0,0-1.335-.255h-.54v-.691q0-.69.06-.69l.3-.029q.3-.03.855-.061l1.095-.059c.339-.02.7-.045,1.08-.076s.67-.054.87-.075.31-.029.33-.029h.09v1.2a7.963,7.963,0,0,0,.03,1.141l.03-.031a5.276,5.276,0,0,1,4.59-2.309q2.91.088,3.57,2.279l.06.151c.48-.6.75-.93.81-.991a5.042,5.042,0,0,1,3.57-1.439q3.75,0,4.11,3.39.03.208.03,4.169,0,3.841.03,3.9a.644.644,0,0,0,.36.329,10.362,10.362,0,0,0,1.47.091h.48v1.38h-.24a62.765,62.765,0,0,0-6.72,0h-.24v-1.38h.72q1.588,0,1.59-.481.029-.06.03-4.139-.031-4.051-.06-4.29a2.647,2.647,0,0,0-.675-1.4,2.032,2.032,0,0,0-1.425-.434,3.248,3.248,0,0,0-2.37,1.019,4.292,4.292,0,0,0-1.23,2.641c0,.019,0,.2-.015.554s-.015.8-.015,1.335V86.8c0,.259,0,.5.015.7s.015.385.015.524v.181q.238.42,1.41.42h.9v1.38h-.24a62.765,62.765,0,0,0-6.72,0h-.24v-1.38h.72q1.59,0,1.59-.481.03-.06.03-4.139-.03-4.051-.06-4.29a2.647,2.647,0,0,0-.675-1.4,2.032,2.032,0,0,0-1.425-.434,3.25,3.25,0,0,0-2.37,1.019,4.3,4.3,0,0,0-1.23,2.641v.554c0,.351,0,.8-.015,1.335s-.015,1.05-.015,1.531v.944c0,.33,0,.626.015.886s.015.5.015.7v.7Z"/><path class="b" d="M350.758,111.717a1.79,1.79,0,0,1-1.28-.471,1.584,1.584,0,0,1-.5-1.21,2.808,2.808,0,0,1,.2-.88,23.616,23.616,0,0,0,1.2-3.78,3.972,3.972,0,0,0,.06-.76c0-.786-.328-1.179-.98-1.179a2.358,2.358,0,0,0-.52.04,3.808,3.808,0,0,0-2.361,1.919l-.139.26-.68,2.7q-.64,2.6-.74,2.84a.9.9,0,0,1-.88.54.84.84,0,0,1-.47-.15.449.449,0,0,1-.23-.39q0-.24,2.94-12a.361.361,0,0,0-.12-.32,3.043,3.043,0,0,0-.8-.1h-.421a.559.559,0,0,1-.13-.16,2.075,2.075,0,0,1,.051-.38c.066-.253.152-.38.26-.38l1.45-.11q1.429-.109,1.449-.109c.16,0,.24.059.24.179q0,.22-.719,3.02-.761,2.961-.76,3.02c0,.027.046-.006.14-.1a3.763,3.763,0,0,1,2.6-1.08,2.69,2.69,0,0,1,1.761.54,1.924,1.924,0,0,1,.659,1.579,4,4,0,0,1-.059.761,25.407,25.407,0,0,1-1.1,3.54,4.775,4.775,0,0,0-.36,1.42.715.715,0,0,0,.1.379.37.37,0,0,0,.3.1,1.37,1.37,0,0,0,1.05-.609,4.481,4.481,0,0,0,.769-1.63.511.511,0,0,1,.12-.261.758.758,0,0,1,.321-.04c.253.04.386.094.4.16,0,.014-.026.113-.08.3a4.571,4.571,0,0,1-1.019,1.94A2.105,2.105,0,0,1,350.758,111.717Z"/><path class="a" d="M355.718,106.517a.436.436,0,0,1,.28-.4h15.3a7.45,7.45,0,0,1-2.2-2.559,6.465,6.465,0,0,1-.66-1.9.325.325,0,0,0-.01-.08.246.246,0,0,1-.01-.059q0-.22.4-.221a.606.606,0,0,1,.311.051.381.381,0,0,1,.109.229,3.93,3.93,0,0,0,.221.82,6.129,6.129,0,0,0,1.46,2.39,5.914,5.914,0,0,0,2.38,1.51.224.224,0,0,1,0,.44,5.925,5.925,0,0,0-2.38,1.51,6.133,6.133,0,0,0-1.46,2.391,7.257,7.257,0,0,0-.221.8.421.421,0,0,1-.109.25.624.624,0,0,1-.311.049c-.279,0-.42-.073-.42-.219a4.119,4.119,0,0,1,.121-.5,7.112,7.112,0,0,1,2.78-4.1H356A.435.435,0,0,1,355.718,106.517Z"/><path class="a" d="M377.117,99.816a3.53,3.53,0,0,1,3.061-1.62,3.69,3.69,0,0,1,2.559,1,4.325,4.325,0,0,1,.92,1.361,11.443,11.443,0,0,1,.74,4.559,10.438,10.438,0,0,1-.86,4.74,3.463,3.463,0,0,1-1.64,1.68,3.764,3.764,0,0,1-1.7.42,3.523,3.523,0,0,1-3.36-2.1,10.439,10.439,0,0,1-.859-4.74,15.57,15.57,0,0,1,.25-3.07A6.7,6.7,0,0,1,377.117,99.816Zm4.5-.24a1.842,1.842,0,0,0-1.42-.639,1.9,1.9,0,0,0-1.44.639,2.42,2.42,0,0,0-.6,1.12,12.367,12.367,0,0,0-.2,2.281c0,.08,0,.339-.01.78s-.009.806-.009,1.1q0,1.922.04,2.68a11.271,11.271,0,0,0,.239,2.01,2.271,2.271,0,0,0,.6,1.051,1.779,1.779,0,0,0,1.38.6,1.757,1.757,0,0,0,1.361-.6,2.269,2.269,0,0,0,.6-1.051,11.344,11.344,0,0,0,.24-2.01q.041-.759.041-2.68c0-.293,0-.66-.01-1.1s-.011-.7-.011-.78a12.277,12.277,0,0,0-.2-2.281A2.42,2.42,0,0,0,381.617,99.576Z"/><path class="c" d="M398.053,81.184q.678.15.728.15.579,0,1.006-1.055.3-.828,1.834-8.945.7-3.793.729-3.819v-.076h-1.181a6.754,6.754,0,0,1-1.257-.05q-.175-.1-.05-.553a2.335,2.335,0,0,1,.125-.4.229.229,0,0,1,.214-.138c.109-.009.5-.013,1.169-.013a10.824,10.824,0,0,0,1.206-.025q0-.05.226-1.256c.151-.8.251-1.29.3-1.458a6.118,6.118,0,0,1,1.583-3.316,3.243,3.243,0,0,1,2.085-.83,2.562,2.562,0,0,1,1.52.553,1.635,1.635,0,0,1,.616,1.332,1.773,1.773,0,0,1-.452,1.231,1.457,1.457,0,0,1-1.131.5q-1.105,0-1.1-1.056A1.419,1.419,0,0,1,407.1,60.6l.226-.125a2.47,2.47,0,0,0-.754-.151q-.729,0-.955.955-.2.753-.653,3.291l-.326,1.659a7.133,7.133,0,0,0,1.382.05c.753,0,1.206.009,1.356.026s.227.075.227.175a2.833,2.833,0,0,1-.176.8.249.249,0,0,1-.239.139c-.126.009-.575.012-1.344.012h-1.407l-.579,3.066q-.93,4.8-1.156,5.8-.854,3.793-2.286,5.151a2.833,2.833,0,0,1-1.834.8,2.276,2.276,0,0,1-1.508-.5,1.649,1.649,0,0,1-.6-1.332,1.857,1.857,0,0,1,.452-1.269,1.442,1.442,0,0,1,1.131-.515q1.106,0,1.105,1.055a1.42,1.42,0,0,1-.879,1.357Z"/><path class="a" d="M415.768,83.169c0,.15-.151.226-.453.226h-.326l-.7-.6q-4.523-4.122-4.522-11.961a20.255,20.255,0,0,1,.728-5.6,13.553,13.553,0,0,1,3.794-6.357c.117-.1.251-.214.4-.34s.25-.213.3-.263h.326a.6.6,0,0,1,.377.075.22.22,0,0,1,.076.151q0,.1-.277.377-3.894,4.121-3.894,11.96t3.894,11.961Q415.769,83.068,415.768,83.169Z"/><path class="a" d="M418.631,70.128a.417.417,0,0,1-.151-.276,4.778,4.778,0,0,1,.78-1.735,4.309,4.309,0,0,1,2.965-2.06,3.984,3.984,0,0,1,.527-.05,3.05,3.05,0,0,1,1.621.452,2.707,2.707,0,0,1,1.067,1.131c.218-.284.352-.461.4-.528a2.782,2.782,0,0,1,2.136-1.055,2.364,2.364,0,0,1,1.67.591,1.889,1.889,0,0,1,.641,1.444,1.973,1.973,0,0,1-.439,1.307,1.447,1.447,0,0,1-1.169.527,1.108,1.108,0,0,1-.779-.276.941.941,0,0,1-.3-.729,1.6,1.6,0,0,1,1.256-1.583,1.011,1.011,0,0,0-.276-.176,1.442,1.442,0,0,0-.729-.15,1.667,1.667,0,0,0-.478.05,2.628,2.628,0,0,0-1.406,1.658q-.076.2-.73,2.8t-.7,2.927a3.848,3.848,0,0,0-.075.754,1.291,1.291,0,0,0,.351.955,1.255,1.255,0,0,0,.93.352,2.6,2.6,0,0,0,1.91-.893,4.645,4.645,0,0,0,1.156-1.971c.05-.168.1-.265.15-.289a1.2,1.2,0,0,1,.4-.038q.478,0,.478.2c0,.016-.017.109-.05.276a5.471,5.471,0,0,1-1.76,2.714,3.96,3.96,0,0,1-2.487.93,2.9,2.9,0,0,1-2.663-1.583,3.521,3.521,0,0,1-1.859,1.507,3.2,3.2,0,0,1-.654.05,2.19,2.19,0,0,1-2.06-1.03,1.937,1.937,0,0,1-.251-1.005,1.9,1.9,0,0,1,.452-1.281,1.449,1.449,0,0,1,1.155-.528.944.944,0,0,1,1.081,1.055,1.42,1.42,0,0,1-.88,1.357l-.126.063-.125.063a.206.206,0,0,1-.075.025l-.076.025q0,.075.377.226a1.678,1.678,0,0,0,.653.126,1.857,1.857,0,0,0,1.559-1.131,19.076,19.076,0,0,0,.979-3.267c.1-.384.209-.812.327-1.281s.206-.829.264-1.081.1-.4.113-.452a6.185,6.185,0,0,0,.125-.979,1.353,1.353,0,0,0-.326-.956,1.175,1.175,0,0,0-.905-.351,2.626,2.626,0,0,0-1.959.866,4.758,4.758,0,0,0-1.156,2c-.034.151-.072.238-.114.264a1.206,1.206,0,0,1-.414.038Z"/><path class="a" d="M432.954,70.831a.546.546,0,0,1,.352-.5h7.512V66.56l.026-3.77c.167-.217.327-.326.477-.326a.551.551,0,0,1,.5.377v7.488h7.488a.524.524,0,0,1,0,1.005h-7.488v7.487a.535.535,0,0,1-1.006,0V71.334h-7.512A.547.547,0,0,1,432.954,70.831Z"/><path class="b" d="M461.5,77.364a2.249,2.249,0,0,1-1.607-.591,1.987,1.987,0,0,1-.629-1.519,3.538,3.538,0,0,1,.252-1.106,29.57,29.57,0,0,0,1.507-4.749,5.019,5.019,0,0,0,.076-.955q0-1.482-1.232-1.482a3.024,3.024,0,0,0-.653.05,4.784,4.784,0,0,0-2.965,2.412l-.176.327-.854,3.392q-.8,3.265-.93,3.568a1.136,1.136,0,0,1-1.1.679,1.073,1.073,0,0,1-.591-.189.565.565,0,0,1-.289-.49q0-.3,3.693-15.076a.457.457,0,0,0-.15-.4,3.823,3.823,0,0,0-1.005-.125h-.528a.724.724,0,0,1-.164-.2,2.6,2.6,0,0,1,.064-.477q.125-.479.326-.478.025,0,1.821-.139t1.823-.137c.2,0,.3.075.3.226q0,.276-.905,3.794-.956,3.72-.954,3.794c0,.034.059-.008.176-.126a4.737,4.737,0,0,1,3.266-1.356,3.38,3.38,0,0,1,2.211.679,2.414,2.414,0,0,1,.829,1.984,5.022,5.022,0,0,1-.075.955,31.368,31.368,0,0,1-1.382,4.447,6.025,6.025,0,0,0-.452,1.784.906.906,0,0,0,.125.478.464.464,0,0,0,.377.126,1.724,1.724,0,0,0,1.32-.767,5.622,5.622,0,0,0,.967-2.047.651.651,0,0,1,.151-.328.948.948,0,0,1,.4-.049c.317.049.485.117.5.2,0,.016-.033.142-.1.377a5.742,5.742,0,0,1-1.281,2.437A2.643,2.643,0,0,1,461.5,77.364Z"/><path class="a" d="M467.076,58.293l.1-.025h.552l.7.6q4.522,4.121,4.523,11.96a19.848,19.848,0,0,1-.728,5.578,13.573,13.573,0,0,1-3.8,6.383c-.118.1-.251.213-.4.339s-.252.214-.3.264h-.3a.957.957,0,0,1-.39-.05c-.059-.034-.088-.117-.088-.251.017-.018.11-.126.277-.327q3.894-4.047,3.894-11.936T467.227,58.9c-.167-.2-.26-.31-.277-.327A.3.3,0,0,1,467.076,58.293Z"/><path class="a" d="M483.735,70.831a.547.547,0,0,1,.353-.5h14.6a.524.524,0,0,1,0,1.005h-14.6A.548.548,0,0,1,483.735,70.831Z"/><path class="c" d="M504.139,81.184q.678.15.728.15.579,0,1.006-1.055.3-.828,1.834-8.945.7-3.793.729-3.819v-.076h-1.181a6.754,6.754,0,0,1-1.257-.05q-.175-.1-.05-.553a2.335,2.335,0,0,1,.125-.4.229.229,0,0,1,.214-.138c.109-.009.5-.013,1.169-.013a10.824,10.824,0,0,0,1.206-.025q0-.05.226-1.256c.151-.8.251-1.29.3-1.458a6.132,6.132,0,0,1,1.583-3.316,3.248,3.248,0,0,1,2.086-.83,2.562,2.562,0,0,1,1.52.553,1.635,1.635,0,0,1,.616,1.332,1.773,1.773,0,0,1-.452,1.231,1.457,1.457,0,0,1-1.131.5q-1.106,0-1.1-1.056a1.419,1.419,0,0,1,.879-1.357l.226-.125a2.47,2.47,0,0,0-.754-.151q-.729,0-.955.955-.2.753-.653,3.291l-.326,1.659a7.125,7.125,0,0,0,1.381.05q1.131,0,1.357.026c.15.016.227.075.227.175a2.833,2.833,0,0,1-.176.8.249.249,0,0,1-.24.139c-.126.009-.574.012-1.343.012h-1.408l-.578,3.066q-.93,4.8-1.156,5.8-.853,3.793-2.286,5.151a2.833,2.833,0,0,1-1.834.8,2.274,2.274,0,0,1-1.508-.5,1.649,1.649,0,0,1-.6-1.332,1.857,1.857,0,0,1,.452-1.269,1.442,1.442,0,0,1,1.131-.515q1.105,0,1.105,1.055a1.42,1.42,0,0,1-.879,1.357Z"/><path class="a" d="M521.854,83.169c0,.15-.151.226-.453.226h-.326l-.7-.6q-4.524-4.122-4.522-11.961a20.255,20.255,0,0,1,.728-5.6,13.553,13.553,0,0,1,3.794-6.357c.117-.1.251-.214.4-.34s.251-.213.3-.263h.326a.6.6,0,0,1,.377.075.22.22,0,0,1,.076.151q0,.1-.277.377-3.9,4.121-3.894,11.96t3.894,11.961Q521.854,83.068,521.854,83.169Z"/><path class="a" d="M524.717,70.128a.417.417,0,0,1-.151-.276,4.778,4.778,0,0,1,.78-1.735,4.309,4.309,0,0,1,2.965-2.06,3.984,3.984,0,0,1,.527-.05,3.05,3.05,0,0,1,1.621.452,2.707,2.707,0,0,1,1.067,1.131c.218-.284.352-.461.4-.528a2.781,2.781,0,0,1,2.135-1.055,2.365,2.365,0,0,1,1.671.591,1.889,1.889,0,0,1,.641,1.444,1.978,1.978,0,0,1-.439,1.307,1.447,1.447,0,0,1-1.169.527,1.108,1.108,0,0,1-.779-.276.941.941,0,0,1-.3-.729,1.6,1.6,0,0,1,1.256-1.583,1.011,1.011,0,0,0-.276-.176,1.443,1.443,0,0,0-.73-.15,1.664,1.664,0,0,0-.477.05,2.625,2.625,0,0,0-1.406,1.658q-.076.2-.73,2.8t-.7,2.927a3.848,3.848,0,0,0-.075.754,1.291,1.291,0,0,0,.351.955,1.255,1.255,0,0,0,.93.352,2.6,2.6,0,0,0,1.91-.893,4.645,4.645,0,0,0,1.156-1.971c.05-.168.1-.265.15-.289a1.2,1.2,0,0,1,.4-.038q.478,0,.478.2c0,.016-.017.109-.05.276a5.471,5.471,0,0,1-1.76,2.714,3.96,3.96,0,0,1-2.487.93,2.9,2.9,0,0,1-2.663-1.583,3.52,3.52,0,0,1-1.86,1.507,3.182,3.182,0,0,1-.653.05,2.189,2.189,0,0,1-2.06-1.03,1.937,1.937,0,0,1-.251-1.005,1.9,1.9,0,0,1,.452-1.281,1.449,1.449,0,0,1,1.155-.528.944.944,0,0,1,1.081,1.055,1.42,1.42,0,0,1-.88,1.357l-.126.063-.125.063a.206.206,0,0,1-.075.025l-.076.025q0,.075.377.226a1.678,1.678,0,0,0,.653.126,1.857,1.857,0,0,0,1.559-1.131,19.076,19.076,0,0,0,.979-3.267c.1-.384.209-.812.327-1.281s.2-.829.264-1.081.1-.4.113-.452a6.185,6.185,0,0,0,.125-.979,1.353,1.353,0,0,0-.326-.956,1.175,1.175,0,0,0-.9-.351,2.626,2.626,0,0,0-1.959.866,4.747,4.747,0,0,0-1.156,2c-.035.151-.072.238-.114.264a1.206,1.206,0,0,1-.414.038Z"/><path class="a" d="M539.141,58.293l.1-.025h.553l.7.6q4.524,4.121,4.524,11.96a19.846,19.846,0,0,1-.729,5.578,13.557,13.557,0,0,1-3.8,6.383c-.117.1-.251.213-.4.339s-.252.214-.3.264h-.3a.947.947,0,0,1-.389-.05c-.059-.034-.088-.117-.088-.251.016-.018.109-.126.276-.327q3.9-4.047,3.895-11.936T539.291,58.9c-.167-.2-.26-.31-.276-.327A.3.3,0,0,1,539.141,58.293Z"/><path class="b" d="M469.188,118.805a2.253,2.253,0,0,1-1.607-.591,1.991,1.991,0,0,1-.629-1.52,3.539,3.539,0,0,1,.252-1.105,29.57,29.57,0,0,0,1.507-4.749,4.938,4.938,0,0,0,.076-.955q0-1.484-1.231-1.483a3.035,3.035,0,0,0-.654.05,4.783,4.783,0,0,0-2.964,2.412l-.176.327-.855,3.392q-.8,3.267-.929,3.568a1.135,1.135,0,0,1-1.106.679,1.076,1.076,0,0,1-.591-.188.568.568,0,0,1-.289-.491q0-.3,3.694-15.076a.451.451,0,0,0-.151-.4,3.725,3.725,0,0,0-1.005-.125H462a.726.726,0,0,1-.163-.2,2.542,2.542,0,0,1,.063-.478c.083-.318.193-.477.327-.477q.024,0,1.821-.139t1.822-.138c.2,0,.3.075.3.227q0,.275-.9,3.794-.956,3.719-.955,3.794c0,.034.059-.008.176-.126a4.736,4.736,0,0,1,3.267-1.357,3.387,3.387,0,0,1,2.211.679,2.414,2.414,0,0,1,.829,1.984,5.105,5.105,0,0,1-.075.955,31.645,31.645,0,0,1-1.382,4.448,5.986,5.986,0,0,0-.452,1.784.886.886,0,0,0,.125.477.461.461,0,0,0,.377.126,1.721,1.721,0,0,0,1.319-.766,5.652,5.652,0,0,0,.968-2.048.643.643,0,0,1,.15-.327.945.945,0,0,1,.4-.05c.318.05.486.117.5.2,0,.017-.033.143-.1.377a5.757,5.757,0,0,1-1.281,2.438A2.647,2.647,0,0,1,469.188,118.805Z"/><rect class="a" x="402.53" y="90.179" width="150" height="1" rx="0.5"/><rect class="a" x="233.802" y="90.179" width="30" height="1" rx="0.5"/><path class="b" d="M246.035,63.17c.251-.017.536-.037.855-.063s.556-.045.715-.062.248-.025.264-.025c.2,0,.3.067.3.2q0,.176-1.847,7.6t-1.872,7.551a2.164,2.164,0,0,0-.025.377q0,1.056.7,1.056a1.092,1.092,0,0,0,.5-.227,5.707,5.707,0,0,0,1.03-2.412q.151-.5.251-.527a.723.723,0,0,1,.252-.026h.1c.317,0,.477.068.477.2a2.062,2.062,0,0,1-.076.4,6.547,6.547,0,0,1-1.356,2.914,2.514,2.514,0,0,1-.8.528,2.728,2.728,0,0,1-.6.05,2.267,2.267,0,0,1-2.211-1.231,1.864,1.864,0,0,0-.126-.3c-.016-.017-.049-.009-.1.024l-.1.1a5.131,5.131,0,0,1-2.387,1.382,4.978,4.978,0,0,1-.627.025,3.336,3.336,0,0,1-2.74-1.382,4.886,4.886,0,0,1-.754-2.814,7.678,7.678,0,0,1,1.709-4.623,6.568,6.568,0,0,1,3.468-2.388,3.714,3.714,0,0,1,1.029-.15,2.408,2.408,0,0,1,2.112,1.055c.083.1.125.134.125.1q.024-.1.691-2.752t.692-2.777a.452.452,0,0,0-.152-.4,3.809,3.809,0,0,0-1.005-.125H244a.7.7,0,0,1-.164-.2,2.664,2.664,0,0,1,.063-.478c.083-.318.193-.477.327-.477.016,0,.1-.008.263-.025s.386-.034.679-.05S245.75,63.188,246.035,63.17Zm-2.161,9.1q-.552-1.986-1.885-1.986a2.319,2.319,0,0,0-1.771.855,5.915,5.915,0,0,0-1.168,1.96,19.975,19.975,0,0,0-1.03,4.121c0,.05-.005.141-.013.276s-.013.235-.013.3a2.478,2.478,0,0,0,.39,1.458,1.31,1.31,0,0,0,1.143.553q1.332,0,2.789-1.81l.2-.276q.225-.9.677-2.727T243.874,72.267Z"/><path class="a" d="M251.06,84.528q.678.151.728.151.579,0,1.006-1.055.3-.829,1.834-8.945.7-3.8.728-3.82v-.075h-1.18a6.591,6.591,0,0,1-1.257-.051c-.117-.066-.134-.251-.05-.552a2.4,2.4,0,0,1,.125-.4.226.226,0,0,1,.214-.137q.162-.014,1.169-.013a10.824,10.824,0,0,0,1.206-.025q0-.051.226-1.256c.151-.8.251-1.29.3-1.458a6.136,6.136,0,0,1,1.583-3.317,3.252,3.252,0,0,1,2.086-.829,2.556,2.556,0,0,1,1.52.553,1.635,1.635,0,0,1,.616,1.332,1.773,1.773,0,0,1-.452,1.23,1.457,1.457,0,0,1-1.131.5q-1.105,0-1.105-1.055a1.419,1.419,0,0,1,.878-1.357l.227-.126a2.5,2.5,0,0,0-.754-.15q-.729,0-.955.955-.2.753-.653,3.291l-.326,1.659a7.232,7.232,0,0,0,1.381.05q1.131,0,1.357.025c.15.017.226.076.226.176a2.83,2.83,0,0,1-.175.8.248.248,0,0,1-.24.138q-.189.014-1.343.013h-1.408l-.578,3.066q-.93,4.8-1.156,5.8-.853,3.8-2.286,5.152a2.833,2.833,0,0,1-1.834.8,2.273,2.273,0,0,1-1.508-.5,1.647,1.647,0,0,1-.6-1.332,1.855,1.855,0,0,1,.452-1.268,1.44,1.44,0,0,1,1.131-.516q1.106,0,1.1,1.056a1.418,1.418,0,0,1-.879,1.356Z"/><path class="b" d="M246.035,100.962q.376-.026.855-.064c.317-.024.556-.045.715-.062s.248-.025.264-.025c.2,0,.3.067.3.2q0,.175-1.847,7.6t-1.872,7.551a2.155,2.155,0,0,0-.025.377q0,1.055.7,1.055a1.1,1.1,0,0,0,.5-.226,5.714,5.714,0,0,0,1.03-2.412q.151-.5.251-.528a.733.733,0,0,1,.252-.025h.1c.317,0,.477.067.477.2a2.062,2.062,0,0,1-.076.4,6.546,6.546,0,0,1-1.356,2.915,2.5,2.5,0,0,1-.8.527,2.716,2.716,0,0,1-.6.051,2.269,2.269,0,0,1-2.211-1.231,1.86,1.86,0,0,0-.126-.3c-.016-.017-.049-.008-.1.025-.033.033-.068.067-.1.1a5.14,5.14,0,0,1-2.387,1.382,4.978,4.978,0,0,1-.627.025,3.334,3.334,0,0,1-2.74-1.383,4.883,4.883,0,0,1-.754-2.813,7.678,7.678,0,0,1,1.709-4.624,6.572,6.572,0,0,1,3.468-2.387,3.716,3.716,0,0,1,1.029-.151,2.41,2.41,0,0,1,2.112,1.055c.083.1.125.135.125.1q.024-.1.691-2.751t.692-2.777a.451.451,0,0,0-.152-.4,3.755,3.755,0,0,0-1.005-.126H244a.69.69,0,0,1-.164-.2,2.664,2.664,0,0,1,.063-.478c.083-.317.193-.477.327-.477.016,0,.1-.008.263-.025s.386-.033.679-.05Zm-2.161,9.1q-.552-1.986-1.885-1.986a2.319,2.319,0,0,0-1.771.855,5.936,5.936,0,0,0-1.168,1.96,19.991,19.991,0,0,0-1.03,4.121c0,.051-.005.142-.013.276s-.013.235-.013.3a2.477,2.477,0,0,0,.39,1.457,1.308,1.308,0,0,0,1.143.553q1.332,0,2.789-1.809l.2-.276q.225-.906.677-2.727T243.874,110.058Z"/><path class="a" d="M249.552,111.264a.418.418,0,0,1-.151-.277,4.771,4.771,0,0,1,.78-1.733,4.307,4.307,0,0,1,2.965-2.061,4.166,4.166,0,0,1,.527-.05,3.051,3.051,0,0,1,1.621.453,2.687,2.687,0,0,1,1.067,1.13c.218-.285.352-.46.4-.528a2.784,2.784,0,0,1,2.135-1.055,2.369,2.369,0,0,1,1.671.59,1.893,1.893,0,0,1,.641,1.446,1.973,1.973,0,0,1-.44,1.306,1.442,1.442,0,0,1-1.168.528,1.1,1.1,0,0,1-.779-.277.941.941,0,0,1-.3-.728,1.6,1.6,0,0,1,1.257-1.583,1.011,1.011,0,0,0-.276-.176,1.432,1.432,0,0,0-.73-.151,1.659,1.659,0,0,0-.477.05,2.624,2.624,0,0,0-1.406,1.659q-.077.2-.73,2.8t-.7,2.927a3.863,3.863,0,0,0-.075.754,1.291,1.291,0,0,0,.351.955,1.255,1.255,0,0,0,.93.352,2.6,2.6,0,0,0,1.91-.892,4.651,4.651,0,0,0,1.156-1.973c.05-.167.1-.263.15-.289a1.235,1.235,0,0,1,.4-.037q.478,0,.478.2c0,.018-.017.11-.05.277a5.471,5.471,0,0,1-1.76,2.714,3.959,3.959,0,0,1-2.487.929,2.892,2.892,0,0,1-2.663-1.583,3.521,3.521,0,0,1-1.86,1.508,3.241,3.241,0,0,1-.653.051,2.191,2.191,0,0,1-2.06-1.03,1.944,1.944,0,0,1-.251-1.006,1.9,1.9,0,0,1,.452-1.281,1.452,1.452,0,0,1,1.155-.528.944.944,0,0,1,1.081,1.055,1.42,1.42,0,0,1-.88,1.357l-.126.063-.125.063a.188.188,0,0,1-.075.025l-.076.025q0,.075.377.227a1.677,1.677,0,0,0,.653.125,1.857,1.857,0,0,0,1.559-1.131,19.11,19.11,0,0,0,.979-3.267c.1-.385.209-.811.327-1.281s.2-.829.264-1.08.1-.4.113-.452a6.2,6.2,0,0,0,.125-.981,1.356,1.356,0,0,0-.326-.955,1.175,1.175,0,0,0-.905-.351,2.623,2.623,0,0,0-1.959.867,4.75,4.75,0,0,0-1.156,2c-.035.151-.072.239-.114.265a1.247,1.247,0,0,1-.414.037Z"/><path class="d" d="M174.606,94.414c22.44,13.342,22.864-31.551,46.808-27.149"/><path class="b" d="M227.167,69.111a30.189,30.189,0,0,0-9.557,2.084l3.021-4.057-.273-5.049A30.228,30.228,0,0,0,227.167,69.111Z"/><path class="d" d="M219.22,115.394c-26.6,6.907-29.151-10.577-44.614-20.98"/><path class="b" d="M225,113.635a30.217,30.217,0,0,1-9.546-2.133l3,4.072-.3,5.048A30.174,30.174,0,0,1,225,113.635Z"/><path class="a" d="M38.918,61.563a1,1,0,0,0-.487-.3,9.972,9.972,0,0,0-1.263-.076h-.825v-1.15h.276q.448.075,3.649.075,3.7,0,4.15-.075h.3v1.15h-.675c-.617,0-1.016.009-1.2.025a4.494,4.494,0,0,0-.9.088,1.01,1.01,0,0,0-.4.262l-.025,7q0,7,.025,7.076a.259.259,0,0,0,.1.174,6.576,6.576,0,0,0,1.9.125,12.7,12.7,0,0,0,2.425-.15,3.888,3.888,0,0,0,2.175-1.4,6.474,6.474,0,0,0,.976-2.8,4.012,4.012,0,0,1,.037-.438q.038-.312.075-.562c.024-.166.037-.258.037-.275a1.939,1.939,0,0,1,.5-.025h.5v.125q-.05.075-.35,3.288t-.35,3.287v.125H36.343v-1.15h.825a10.142,10.142,0,0,0,1.263-.074,1.018,1.018,0,0,0,.487-.3Z"/><path class="a" d="M57.518,77.113a21.355,21.355,0,0,0-2.6-.075,26.409,26.409,0,0,0-2.725.075h-.2v-1.15h.4a8.963,8.963,0,0,0,1.226-.074.545.545,0,0,0,.3-.276q.026-.049.025-3.625a34.5,34.5,0,0,0-.1-4q-.2-.5-1.474-.5h-.276v-.575q0-.574.05-.575l.25-.025c.167-.016.4-.033.7-.049l.9-.051q.425-.024.9-.063c.316-.024.559-.045.726-.062s.257-.025.274-.025h.075v9.5a.581.581,0,0,0,.3.313,3.9,3.9,0,0,0,.875.087h.575v1.15Zm-2.9-16.724a1.6,1.6,0,0,1,1.024.437,1.408,1.408,0,0,1,.4,1.063,1.339,1.339,0,0,1-.674,1.274,1.377,1.377,0,0,1-.8.226,1.411,1.411,0,0,1-.824-.226,1.337,1.337,0,0,1-.676-1.274,1.42,1.42,0,0,1,.437-1.1A1.586,1.586,0,0,1,54.619,60.389Z"/><path class="a" d="M62.994,75.613q.2.351,1.174.35h.75v1.15h-.2a25.262,25.262,0,0,0-2.8-.075,25.223,25.223,0,0,0-2.8.075h-.2v-1.15h.75c.651,0,1.041-.116,1.175-.35v-.775q0-.349.013-.787c.008-.291.013-.616.013-.975V72.038c0-.517-.005-1.07-.013-1.662s-.013-1.079-.013-1.463v-.575a.827.827,0,0,0-.362-.637,2.908,2.908,0,0,0-1.112-.213h-.451v-.575q0-.574.05-.575l.25-.025c.167-.016.4-.033.713-.049l.912-.051q.424-.024.9-.063t.724-.062c.167-.016.259-.025.276-.025h.075v1a7.088,7.088,0,0,0,.024.951l.026-.026a4.4,4.4,0,0,1,3.825-1.925q2.424.075,2.974,1.9l.05.125c.4-.5.625-.775.675-.824a4.2,4.2,0,0,1,2.976-1.2q3.124,0,3.424,2.826.025.174.026,3.474,0,3.2.024,3.25a.543.543,0,0,0,.3.276,8.963,8.963,0,0,0,1.226.074h.4v1.15h-.2a25.3,25.3,0,0,0-2.8-.075,25.289,25.289,0,0,0-2.8.075h-.2v-1.15h.6c.882,0,1.325-.133,1.325-.4q.022-.05.024-3.45-.024-3.375-.05-3.575a2.2,2.2,0,0,0-.562-1.162,1.692,1.692,0,0,0-1.188-.362,2.707,2.707,0,0,0-1.974.849,3.581,3.581,0,0,0-1.026,2.2c0,.017,0,.171-.012.462s-.013.663-.013,1.114v2.8c0,.217,0,.413.013.587s.012.322.012.438v.15c.133.234.526.35,1.175.35h.75v1.15h-.2a25.262,25.262,0,0,0-2.8-.075,25.289,25.289,0,0,0-2.8.075h-.2v-1.15h.6q1.324,0,1.324-.4.025-.05.025-3.45-.024-3.375-.049-3.575a2.213,2.213,0,0,0-.563-1.162,1.691,1.691,0,0,0-1.187-.362,2.712,2.712,0,0,0-1.976.849,3.579,3.579,0,0,0-1.024,2.2v.462c0,.292-.005.663-.013,1.114s-.013.875-.013,1.274V73.7q0,.413.013.737c.008.217.013.413.013.587v.588Z"/><path class="a" d="M85.292,77.113a21.319,21.319,0,0,0-2.6-.075,26.421,26.421,0,0,0-2.726.075h-.2v-1.15h.4a8.963,8.963,0,0,0,1.226-.074.547.547,0,0,0,.3-.276q.024-.049.024-3.625a34.941,34.941,0,0,0-.1-4q-.2-.5-1.475-.5h-.275v-.575q0-.574.049-.575l.25-.025c.167-.016.4-.033.7-.049l.9-.051q.424-.024.9-.063t.726-.062c.166-.016.258-.025.274-.025h.076v9.5a.58.58,0,0,0,.3.313,3.911,3.911,0,0,0,.875.087h.576v1.15Zm-2.9-16.724a1.6,1.6,0,0,1,1.024.437,1.409,1.409,0,0,1,.4,1.063,1.339,1.339,0,0,1-.675,1.274,1.375,1.375,0,0,1-.8.226,1.413,1.413,0,0,1-.824-.226,1.338,1.338,0,0,1-.676-1.274,1.421,1.421,0,0,1,.438-1.1A1.585,1.585,0,0,1,82.393,60.389Z"/><path class="a" d="M89.593,62.113v-.375h1v4.6h3.375v1.15H90.593v3.6q.024,3.126.037,3.538a2.308,2.308,0,0,0,.162.787,1.259,1.259,0,0,0,1.226.976q1.1,0,1.35-1.776c.016-.133.025-.516.025-1.15v-.875h1v.875a7.627,7.627,0,0,1-.125,1.65,3.431,3.431,0,0,1-.937,1.625,2.436,2.436,0,0,1-1.738.625,2.848,2.848,0,0,1-3.075-2.75q-.025-.174-.025-3.7V67.488H86.518v-.925h.225a2.3,2.3,0,0,0,1.575-.8A5.539,5.539,0,0,0,89.593,62.113Z"/><path class="a" d="M108.217,77.113a21.332,21.332,0,0,0-2.6-.075,26.421,26.421,0,0,0-2.726.075h-.2v-1.15h.4a8.963,8.963,0,0,0,1.226-.074.547.547,0,0,0,.3-.276q.024-.049.024-3.625a34.5,34.5,0,0,0-.1-4q-.2-.5-1.474-.5h-.276v-.575q0-.574.05-.575l.25-.025c.167-.016.4-.033.7-.049l.9-.051q.425-.024.9-.063t.726-.062c.166-.016.258-.025.274-.025h.075v9.5a.581.581,0,0,0,.3.313,3.9,3.9,0,0,0,.875.087h.575v1.15Zm-2.9-16.724a1.6,1.6,0,0,1,1.024.437,1.409,1.409,0,0,1,.4,1.063,1.339,1.339,0,0,1-.675,1.274,1.377,1.377,0,0,1-.8.226,1.413,1.413,0,0,1-.824-.226,1.338,1.338,0,0,1-.676-1.274,1.421,1.421,0,0,1,.438-1.1A1.585,1.585,0,0,1,105.318,60.389Z"/><path class="a" d="M115.092,66.063a4.977,4.977,0,0,1,3.3,1.225v-2.55q0-2.6-.025-2.7a.831.831,0,0,0-.363-.638,2.953,2.953,0,0,0-1.112-.212h-.45v-.575c0-.383.016-.575.05-.575l.25-.024c.166-.017.408-.034.724-.051s.625-.033.926-.05c.283-.017.591-.037.925-.062s.583-.046.75-.063.258-.024.274-.024h.075v7.6q0,7.65.026,7.725a.851.851,0,0,0,.362.663,2.918,2.918,0,0,0,1.112.212h.451v1.15q-.051,0-1.912.125t-1.963.151h-.175V76.014l-.2.174a4.909,4.909,0,0,1-3.25,1.2,4.58,4.58,0,0,1-3.1-1.176,5.853,5.853,0,0,1-1.9-3.6q-.025-.2-.026-.875a5.637,5.637,0,0,1,1.551-4.05A4.937,4.937,0,0,1,115.092,66.063Zm3.226,2.5a3.366,3.366,0,0,0-2.825-1.575,3.069,3.069,0,0,0-2.175.9,3.278,3.278,0,0,0-.838,1.524,10.778,10.778,0,0,0-.212,2.425q0,2.775,1.05,3.8a2.563,2.563,0,0,0,1.95.824,3.233,3.233,0,0,0,1.675-.475,3.524,3.524,0,0,0,1.274-1.3l.1-.15Z"/><path class="a" d="M133.268,70.988a.505.505,0,0,1-.175.35h-7.05v.375a6.177,6.177,0,0,0,.5,2.8,3.17,3.17,0,0,0,3.1,1.849,2.329,2.329,0,0,0,1.8-.8,3.334,3.334,0,0,0,.775-1.3.879.879,0,0,1,.15-.351.652.652,0,0,1,.4-.075c.333,0,.5.084.5.25a1.179,1.179,0,0,1-.075.325,4.815,4.815,0,0,1-1.513,2.138,3.91,3.91,0,0,1-2.537.838,5.722,5.722,0,0,1-1.1-.125,5.2,5.2,0,0,1-2.55-1.3,5.884,5.884,0,0,1-1.9-4.3,5.8,5.8,0,0,1,1.35-3.888,5.09,5.09,0,0,1,3.325-1.837,1.7,1.7,0,0,1,.35-.025,4.389,4.389,0,0,1,3.463,1.338A5.442,5.442,0,0,1,133.268,70.988Zm-2.05-.75q-.225-2.724-1.85-3.3a1.754,1.754,0,0,0-.525-.1,2.486,2.486,0,0,0-2.125,1.2,5.253,5.253,0,0,0-.65,2.226v.174h5.15Z"/><path class="a" d="M137.855,69.088a1.285,1.285,0,0,1-.962.4,1.244,1.244,0,0,1-.95-.4,1.34,1.34,0,0,1-.375-.949,2,2,0,0,1,.2-.8,2.236,2.236,0,0,1,1.3-1.05,6.631,6.631,0,0,1,2.375-.375,5.331,5.331,0,0,1,2.862.75,3.5,3.5,0,0,1,1.588,1.95,2.554,2.554,0,0,1,.137.787q.013.438.012,2.864,0,2.448.013,2.862a1.415,1.415,0,0,0,.138.638.512.512,0,0,0,.5.349.5.5,0,0,0,.474-.349,3.806,3.806,0,0,0,.151-1.375v-.9h1v.975a8,8,0,0,1-.075,1.176,2.354,2.354,0,0,1-.826,1.162,2.265,2.265,0,0,1-1.424.463,1.625,1.625,0,0,1-1.113-.438,2.2,2.2,0,0,1-.663-1.062v-.1c-.05.05-.149.163-.3.338s-.258.3-.325.362a4.3,4.3,0,0,1-2.849,1.026,4.838,4.838,0,0,1-2.326-.551,2.82,2.82,0,0,1-1.375-1.449,2.442,2.442,0,0,1-.2-.951,2.985,2.985,0,0,1,.976-2.15,4.63,4.63,0,0,1,1.425-.95,12.256,12.256,0,0,1,4.349-.925h.351v-.55a3.8,3.8,0,0,0-.151-1.25,2.387,2.387,0,0,0-2.424-1.775c-1.118,0-1.675.067-1.675.2a1.249,1.249,0,0,1,.55,1.1A1.314,1.314,0,0,1,137.855,69.088Zm4.088,3.65q0-1.451-.026-1.45a.293.293,0,0,0-.125.025q-3.425.225-4.375,2.025a2.3,2.3,0,0,0-.274,1.125,1.893,1.893,0,0,0,.6,1.426,2.053,2.053,0,0,0,1.474.574,2.565,2.565,0,0,0,1.713-.6,2.808,2.808,0,0,0,.938-1.474A13.949,13.949,0,0,0,141.943,72.738Z"/><path class="a" d="M158.917,77.113a21.319,21.319,0,0,0-2.6-.075,26.421,26.421,0,0,0-2.726.075h-.2v-1.15h.4a8.963,8.963,0,0,0,1.226-.074.547.547,0,0,0,.3-.276q.024-.049.024-3.625a34.941,34.941,0,0,0-.1-4q-.2-.5-1.475-.5h-.275v-.575q0-.574.049-.575l.25-.025c.167-.016.4-.033.7-.049l.9-.051q.424-.024.9-.063t.726-.062c.166-.016.258-.025.274-.025h.076v9.5a.58.58,0,0,0,.3.313,3.911,3.911,0,0,0,.875.087h.576v1.15Zm-2.9-16.724a1.6,1.6,0,0,1,1.024.437,1.409,1.409,0,0,1,.4,1.063,1.339,1.339,0,0,1-.675,1.274,1.375,1.375,0,0,1-.8.226,1.413,1.413,0,0,1-.824-.226,1.338,1.338,0,0,1-.676-1.274,1.421,1.421,0,0,1,.438-1.1A1.585,1.585,0,0,1,156.018,60.389Z"/><path class="a" d="M164.443,66.764q-2.3,0-2.3,1.625a1.139,1.139,0,0,0,.05.424,1.5,1.5,0,0,0,.775.863,7.53,7.53,0,0,0,1.7.487,6.79,6.79,0,0,1,1.951.55,3.624,3.624,0,0,1,2.025,2.475,4.519,4.519,0,0,1,.024.6,4.046,4.046,0,0,1-.349,1.726,3.769,3.769,0,0,1-3.675,1.849,3.983,3.983,0,0,1-2.6-.9l-.2.176-.225.224c-.1.1-.2.192-.3.276l-.276.25h-.2a.455.455,0,0,1-.325-.151V75.264q0-1.626.013-1.875c.008-.167.045-.267.112-.3a1.618,1.618,0,0,1,.4-.025.841.841,0,0,1,.388.05.808.808,0,0,1,.138.35,5.732,5.732,0,0,0,.65,1.725,2.781,2.781,0,0,0,2.425,1.275q2.424,0,2.425-1.949a1.6,1.6,0,0,0-.45-1.176,2.176,2.176,0,0,0-1.05-.675c-.283-.066-.684-.158-1.2-.274a8.585,8.585,0,0,1-1.9-.526,3.122,3.122,0,0,1-1.926-2.325,1.9,1.9,0,0,1-.024-.375q0-2.874,3.524-3.225a1.637,1.637,0,0,1,.6,0,3.868,3.868,0,0,1,1.75.375l.375.2.225-.176a6.664,6.664,0,0,1,.549-.425h.2a.455.455,0,0,1,.325.15v3.3l-.151.151h-.7a.436.436,0,0,1-.15-.3,2.34,2.34,0,0,0-.7-1.8A2.722,2.722,0,0,0,164.443,66.764Z"/><path class="a" d="M64.781,89.913c.283-.017.591-.037.925-.062s.583-.046.75-.063.257-.024.275-.024h.074v3.774q0,3.8.026,3.8a1.013,1.013,0,0,0,.15-.125,5.159,5.159,0,0,1,3.425-1.15,4.136,4.136,0,0,1,.825.076A4.877,4.877,0,0,1,74.193,98a5.826,5.826,0,0,1,1.187,3.712,7.145,7.145,0,0,1-.049.875A5.924,5.924,0,0,1,73.568,106a4.93,4.93,0,0,1-3.563,1.388,4.353,4.353,0,0,1-3.3-1.476l-.175-.175-.25.45c-.034.05-.079.129-.138.238s-.108.2-.15.275-.071.129-.087.162l-.125.225-.5.025h-.5v-7.45q0-7.525-.026-7.625a.83.83,0,0,0-.362-.638,2.948,2.948,0,0,0-1.112-.212h-.45v-.575q0-.575.049-.575l.25-.024q.25-.025.726-.051C64.172,89.947,64.481,89.93,64.781,89.913Zm5.825,7.15c-.4-.049-.659-.075-.775-.075a3.291,3.291,0,0,0-2.8,1.45l-.151.2v6.024l.125.175a3.287,3.287,0,0,0,1.925,1.525,2.649,2.649,0,0,0,.776.1,2.9,2.9,0,0,0,2.525-1.35,3.446,3.446,0,0,0,.4-.825,7.936,7.936,0,0,0,.3-2.475,9.567,9.567,0,0,0-.3-2.775A2.815,2.815,0,0,0,70.606,97.063Z"/><path class="a" d="M78.856,96.213c.283-.016.592-.037.925-.063s.588-.045.762-.062.271-.025.288-.025h.075v4.525q.024,4.6.05,4.75a1.348,1.348,0,0,0,.375.775,2.621,2.621,0,0,0,1.5.35,2.724,2.724,0,0,0,1.175-.225,3.2,3.2,0,0,0,1.7-2.724c0-.017,0-.159.012-.426s.013-.6.013-1.012V98.738l-.025-.4a.825.825,0,0,0-.363-.637,2.9,2.9,0,0,0-1.112-.213h-.45v-1.15q.049,0,1.913-.125t1.962-.15h.175v4.451q0,4.5.025,4.574a.851.851,0,0,0,.362.663,2.919,2.919,0,0,0,1.113.212h.45v1.15q-.049,0-1.875.125t-1.925.151h-.175v-1.726a4.175,4.175,0,0,1-2.025,1.525,3.968,3.968,0,0,1-1.325.175,4.413,4.413,0,0,1-2.475-.588,2.769,2.769,0,0,1-1.125-1.886q-.025-.177-.05-3.426-.024-2.725-.038-3.05a1.052,1.052,0,0,0-.137-.524q-.251-.4-1.5-.4h-.275v-.575q0-.574.05-.575l.275-.025c.166-.016.408-.033.725-.049Z"/><path class="a" d="M96.305,107.113a21.332,21.332,0,0,0-2.6-.075,26.421,26.421,0,0,0-2.726.075h-.2v-1.15h.4a8.963,8.963,0,0,0,1.226-.074.547.547,0,0,0,.3-.276q.024-.049.024-3.625a34.5,34.5,0,0,0-.1-4q-.2-.5-1.474-.5H90.88v-.575q0-.574.05-.575l.25-.025c.167-.016.4-.033.7-.049l.9-.051q.424-.024.9-.063t.726-.062c.166-.016.258-.025.274-.025h.075v9.5a.581.581,0,0,0,.3.313,3.9,3.9,0,0,0,.875.087h.575v1.15Zm-2.9-16.724a1.6,1.6,0,0,1,1.024.437,1.409,1.409,0,0,1,.4,1.063,1.339,1.339,0,0,1-.675,1.274,1.377,1.377,0,0,1-.8.226,1.413,1.413,0,0,1-.824-.226,1.338,1.338,0,0,1-.676-1.274,1.42,1.42,0,0,1,.437-1.1A1.587,1.587,0,0,1,93.406,90.389Z"/><path class="a" d="M98.13,105.963h.351q.974,0,1.175-.35v-.775q0-.349.012-.824t.012-1.088V95.063q0-.824-.012-1.512t-.012-1.088v-.425a.831.831,0,0,0-.363-.638,2.955,2.955,0,0,0-1.113-.212h-.449v-.575c0-.383.016-.575.05-.575l.25-.024c.166-.017.408-.034.724-.051s.625-.033.925-.05c.283-.017.592-.037.926-.062s.583-.046.75-.063.258-.024.274-.024h.076v7.875q0,7.925.025,7.974a.537.537,0,0,0,.3.276,8.922,8.922,0,0,0,1.224.074h.4v1.15h-.2a26.8,26.8,0,0,0-2.75-.075,24.9,24.9,0,0,0-2.776.075h-.2v-1.15Z"/><path class="a" d="M107.556,92.113v-.375h1v4.6h3.375v1.15h-3.375v3.6q.024,3.126.037,3.538a2.308,2.308,0,0,0,.162.787,1.259,1.259,0,0,0,1.226.976q1.1,0,1.35-1.776c.016-.133.025-.516.025-1.15v-.875h1v.875a7.627,7.627,0,0,1-.125,1.65,3.425,3.425,0,0,1-.938,1.625,2.432,2.432,0,0,1-1.737.625,2.848,2.848,0,0,1-3.075-2.75q-.025-.174-.025-3.7V97.488h-1.975v-.925h.225a2.3,2.3,0,0,0,1.575-.8A5.539,5.539,0,0,0,107.556,92.113Z"/><path class="a" d="M114.031,102.639v-1.826h6.649v1.826Z"/><path class="a" d="M128.255,107.113a21.319,21.319,0,0,0-2.6-.075,26.421,26.421,0,0,0-2.726.075h-.2v-1.15h.4a8.963,8.963,0,0,0,1.226-.074.547.547,0,0,0,.3-.276q.024-.049.024-3.625a34.941,34.941,0,0,0-.1-4q-.2-.5-1.475-.5h-.275v-.575q0-.574.049-.575l.25-.025c.167-.016.4-.033.7-.049l.9-.051q.424-.024.9-.063t.726-.062c.166-.016.258-.025.274-.025h.076v9.5a.58.58,0,0,0,.3.313,3.911,3.911,0,0,0,.875.087h.576v1.15Zm-2.9-16.724a1.6,1.6,0,0,1,1.024.437,1.409,1.409,0,0,1,.4,1.063,1.339,1.339,0,0,1-.675,1.274,1.375,1.375,0,0,1-.8.226,1.413,1.413,0,0,1-.824-.226,1.338,1.338,0,0,1-.676-1.274,1.421,1.421,0,0,1,.438-1.1A1.585,1.585,0,0,1,125.356,90.389Z"/><path class="a" d="M133.73,105.613q.2.351,1.175.35h.75v1.15h-.2a25.275,25.275,0,0,0-2.8-.075,25.248,25.248,0,0,0-2.8.075h-.2v-1.15h.75q.975,0,1.175-.35v-.775c0-.233,0-.495.012-.787s.013-.616.013-.975v-1.038c0-.517,0-1.07-.013-1.662s-.012-1.079-.012-1.463v-.575a.825.825,0,0,0-.363-.637,2.9,2.9,0,0,0-1.112-.213h-.45v-.575c0-.383.016-.575.05-.575l.25-.025c.167-.016.4-.033.712-.049l.913-.051q.424-.024.9-.063t.725-.062c.167-.016.258-.025.275-.025h.075v1a6.74,6.74,0,0,0,.025.951l.025-.026a4.4,4.4,0,0,1,3.825-1.925,2.918,2.918,0,0,1,3.175,2.826q.026.174.024,3.474,0,3.2.026,3.25a.537.537,0,0,0,.3.276,8.938,8.938,0,0,0,1.225.074h.4v1.15h-.2a25.237,25.237,0,0,0-2.8-.075,25.275,25.275,0,0,0-2.8.075h-.2v-1.15h.6q1.324,0,1.324-.4.025-.05.026-3.45-.025-3.375-.05-3.575a2.205,2.205,0,0,0-.563-1.162,1.689,1.689,0,0,0-1.187-.362,2.713,2.713,0,0,0-1.976.849,3.584,3.584,0,0,0-1.024,2.2v.462c0,.292,0,.663-.013,1.114s-.012.875-.012,1.274v.788c0,.275,0,.521.012.737s.013.413.013.587v.588Z"/></svg>