<svg xmlns="http://www.w3.org/2000/svg" width="640" height="180" viewBox="0 0 640 180"><defs><style>.a{fill:#fff;}.b{fill:#83c167;}.c{fill:#58c4dd;}.d{fill:#fff933;}.e{fill:none;stroke:#fff933;stroke-miterlimit:10;}</style></defs><rect width="640" height="180"/><path class="a" d="M277.224,103.042c0,.151-.15.226-.452.226h-.326q-.177-.15-.7-.6-4.524-4.121-4.522-11.96a20.263,20.263,0,0,1,.728-5.6,13.553,13.553,0,0,1,3.794-6.357c.117-.1.251-.214.4-.339s.251-.213.3-.264h.326a.6.6,0,0,1,.377.075.22.22,0,0,1,.075.151c0,.067-.091.193-.276.377q-3.9,4.122-3.894,11.961t3.894,11.96C277.133,102.849,277.224,102.975,277.224,103.042Z"/><path class="a" d="M280.088,90a.414.414,0,0,1-.151-.276,4.782,4.782,0,0,1,.78-1.734,4.311,4.311,0,0,1,2.964-2.061,4.194,4.194,0,0,1,.528-.05,3.051,3.051,0,0,1,1.621.453,2.7,2.7,0,0,1,1.067,1.13q.327-.426.4-.527a2.782,2.782,0,0,1,2.135-1.056,2.365,2.365,0,0,1,1.671.591,1.889,1.889,0,0,1,.641,1.445,1.973,1.973,0,0,1-.44,1.306,1.442,1.442,0,0,1-1.168.528,1.1,1.1,0,0,1-.779-.277.941.941,0,0,1-.3-.728,1.6,1.6,0,0,1,1.257-1.583,1.011,1.011,0,0,0-.276-.176,1.432,1.432,0,0,0-.73-.151,1.659,1.659,0,0,0-.477.05,2.627,2.627,0,0,0-1.406,1.659q-.076.2-.73,2.8t-.7,2.928a3.848,3.848,0,0,0-.075.754,1.3,1.3,0,0,0,.351.955,1.259,1.259,0,0,0,.93.351,2.6,2.6,0,0,0,1.91-.892,4.648,4.648,0,0,0,1.156-1.972c.05-.168.1-.264.15-.289a1.2,1.2,0,0,1,.4-.038q.479,0,.478.2c0,.017-.017.109-.05.276a5.466,5.466,0,0,1-1.76,2.714,3.96,3.96,0,0,1-2.487.93,2.893,2.893,0,0,1-2.663-1.583,3.525,3.525,0,0,1-1.86,1.508,3.255,3.255,0,0,1-.653.05,2.189,2.189,0,0,1-2.06-1.03,1.944,1.944,0,0,1-.251-1.006,1.9,1.9,0,0,1,.452-1.281,1.452,1.452,0,0,1,1.155-.528.944.944,0,0,1,1.081,1.055,1.418,1.418,0,0,1-.88,1.357l-.126.063-.125.063a.188.188,0,0,1-.075.025l-.076.026c0,.049.126.125.377.226a1.677,1.677,0,0,0,.653.125,1.857,1.857,0,0,0,1.559-1.131,19.117,19.117,0,0,0,.979-3.266c.1-.385.209-.812.327-1.282s.2-.829.264-1.08.1-.4.113-.452a6.193,6.193,0,0,0,.125-.98,1.352,1.352,0,0,0-.326-.955,1.172,1.172,0,0,0-.9-.352,2.623,2.623,0,0,0-1.959.867,4.75,4.75,0,0,0-1.156,2c-.035.151-.072.239-.114.265a1.247,1.247,0,0,1-.414.037Z"/><path class="a" d="M294.512,78.166l.1-.025h.553l.7.6q4.524,4.122,4.523,11.961a19.853,19.853,0,0,1-.728,5.578,13.567,13.567,0,0,1-3.8,6.382q-.175.151-.4.34c-.152.125-.252.213-.3.263h-.3a.939.939,0,0,1-.39-.05c-.058-.034-.087-.117-.087-.251.016-.017.109-.126.276-.327q3.9-4.046,3.894-11.935t-3.894-11.936c-.167-.2-.26-.309-.276-.326A.3.3,0,0,1,294.512,78.166Z"/><path class="a" d="M310.467,88.267a.547.547,0,0,1,.351-.5h16.006a.548.548,0,0,1,.377.5.569.569,0,0,1-.352.478l-7.99.025h-7.99A.5.5,0,0,1,310.467,88.267Zm0,4.875a.5.5,0,0,1,.4-.5h15.98a.974.974,0,0,0,.114.088,1.114,1.114,0,0,1,.125.1.405.405,0,0,1,.076.126.489.489,0,0,1,.037.188.549.549,0,0,1-.377.5H310.818A.547.547,0,0,1,310.467,93.142Z"/><path class="a" d="M344,88.634h.42q1.17,0,1.41-.42v-.93q0-.42.016-.99t.014-1.3V75.554q0-.99-.014-1.815t-.016-1.305v-.51a.991.991,0,0,0-.435-.765,3.49,3.49,0,0,0-1.335-.255h-.54v-.69q0-.69.06-.69l.3-.03q.3-.03.87-.06l1.11-.06q.51-.03,1.111-.075t.9-.075q.3-.03.33-.03h.09v9.45q0,9.51.03,9.57a.642.642,0,0,0,.361.33,10.511,10.511,0,0,0,1.469.09h.48v1.38h-.239a32.191,32.191,0,0,0-3.3-.09,29.837,29.837,0,0,0-3.33.09h-.24v-1.38Z"/><path class="a" d="M358.487,90.014a25.628,25.628,0,0,0-3.12-.09,31.663,31.663,0,0,0-3.27.09h-.24v-1.38h.48a10.536,10.536,0,0,0,1.47-.09.646.646,0,0,0,.36-.33q.029-.06.03-4.35a41.506,41.506,0,0,0-.12-4.8q-.24-.6-1.77-.6h-.33v-.69q0-.69.06-.69l.3-.03q.3-.03.84-.06l1.08-.06q.51-.03,1.08-.075t.87-.075c.2-.02.309-.03.33-.03h.09v11.4a.692.692,0,0,0,.36.375,4.738,4.738,0,0,0,1.05.105h.69v1.38Zm-3.48-20.07a1.927,1.927,0,0,1,1.23.525,1.7,1.7,0,0,1,.48,1.275,1.606,1.606,0,0,1-.81,1.53,1.646,1.646,0,0,1-.96.27,1.7,1.7,0,0,1-.99-.27,1.606,1.606,0,0,1-.81-1.53,1.7,1.7,0,0,1,.525-1.32A1.9,1.9,0,0,1,355.007,69.944Z"/><path class="a" d="M365.056,88.214c.161.28.63.42,1.411.42h.9v1.38h-.24a62.765,62.765,0,0,0-6.72,0h-.24v-1.38h.9q1.17,0,1.409-.42v-.93q0-.42.016-.945t.015-1.17V83.924q0-.93-.015-2t-.016-1.755v-.69a.991.991,0,0,0-.434-.765,3.5,3.5,0,0,0-1.335-.255h-.54v-.69c0-.46.019-.69.059-.69l.3-.03c.2-.02.485-.04.855-.06l1.094-.06c.34-.02.7-.045,1.08-.075s.67-.055.871-.075.31-.03.33-.03h.09v1.2a7.953,7.953,0,0,0,.03,1.14l.03-.03a5.275,5.275,0,0,1,4.59-2.31q2.908.09,3.57,2.28l.06.15q.72-.9.809-.99a5.047,5.047,0,0,1,3.571-1.44q3.75,0,4.11,3.39.03.21.03,4.17,0,3.84.03,3.9a.646.646,0,0,0,.36.33,10.526,10.526,0,0,0,1.47.09h.48v1.38h-.24a62.765,62.765,0,0,0-6.72,0h-.24v-1.38h.72q1.588,0,1.59-.48.029-.06.03-4.14-.031-4.05-.06-4.29a2.637,2.637,0,0,0-.676-1.4,2.022,2.022,0,0,0-1.424-.435,3.249,3.249,0,0,0-2.37,1.02,4.292,4.292,0,0,0-1.23,2.64c0,.02,0,.2-.016.555s-.014.8-.014,1.335V86.8q0,.39.014.7c.011.21.016.385.016.525v.18q.238.42,1.41.42h.9v1.38h-.241a62.746,62.746,0,0,0-6.719,0h-.241v-1.38h.721q1.59,0,1.59-.48.029-.06.03-4.14-.03-4.05-.06-4.29a2.651,2.651,0,0,0-.675-1.4,2.027,2.027,0,0,0-1.425-.435,3.251,3.251,0,0,0-2.37,1.02,4.3,4.3,0,0,0-1.231,2.64v.555q0,.525-.014,1.335c-.011.54-.015,1.05-.015,1.53v.945c0,.33,0,.625.015.885s.014.5.014.7v.7Z"/><path class="b" d="M350.758,111.717a1.8,1.8,0,0,1-1.281-.47,1.587,1.587,0,0,1-.5-1.21,2.8,2.8,0,0,1,.2-.88,23.616,23.616,0,0,0,1.2-3.78,3.989,3.989,0,0,0,.059-.76q0-1.181-.979-1.18a2.374,2.374,0,0,0-.521.04,3.811,3.811,0,0,0-2.36,1.92l-.14.26-.679,2.7q-.64,2.6-.741,2.84a.9.9,0,0,1-.879.54.845.845,0,0,1-.47-.15.45.45,0,0,1-.231-.39q0-.24,2.941-12a.36.36,0,0,0-.12-.32,2.958,2.958,0,0,0-.8-.1h-.421a.573.573,0,0,1-.13-.16,2.065,2.065,0,0,1,.051-.38c.066-.253.152-.38.26-.38l1.45-.11,1.449-.11q.24,0,.24.18,0,.221-.719,3.02-.761,2.96-.76,3.02c0,.026.046-.007.139-.1a3.772,3.772,0,0,1,2.6-1.08,2.7,2.7,0,0,1,1.761.54,1.926,1.926,0,0,1,.659,1.58,3.979,3.979,0,0,1-.06.76,25.139,25.139,0,0,1-1.1,3.54,4.785,4.785,0,0,0-.361,1.42.727.727,0,0,0,.1.38.369.369,0,0,0,.3.1,1.37,1.37,0,0,0,1.05-.61,4.473,4.473,0,0,0,.769-1.63.51.51,0,0,1,.12-.26.741.741,0,0,1,.321-.04c.253.04.386.093.4.16,0,.013-.026.113-.08.3a4.567,4.567,0,0,1-1.02,1.94A2.1,2.1,0,0,1,350.758,111.717Z"/><path class="a" d="M355.718,106.517a.433.433,0,0,1,.28-.4h15.3a7.451,7.451,0,0,1-2.2-2.56,6.481,6.481,0,0,1-.661-1.9.363.363,0,0,0-.009-.08.26.26,0,0,1-.01-.06q0-.22.4-.22a.623.623,0,0,1,.311.05.385.385,0,0,1,.109.23,3.885,3.885,0,0,0,.221.82,6.137,6.137,0,0,0,1.46,2.39,5.918,5.918,0,0,0,2.38,1.51.225.225,0,0,1,0,.44,5.918,5.918,0,0,0-2.38,1.51,6.137,6.137,0,0,0-1.46,2.39,7.318,7.318,0,0,0-.221.8.415.415,0,0,1-.109.25.623.623,0,0,1-.311.05c-.279,0-.42-.074-.42-.22a4.005,4.005,0,0,1,.12-.5,7.116,7.116,0,0,1,2.781-4.1H356A.435.435,0,0,1,355.718,106.517Z"/><path class="a" d="M377.117,99.817a3.53,3.53,0,0,1,3.061-1.62,3.685,3.685,0,0,1,2.559,1,4.331,4.331,0,0,1,.92,1.36,11.448,11.448,0,0,1,.74,4.56,10.444,10.444,0,0,1-.86,4.74,3.467,3.467,0,0,1-1.64,1.68,3.767,3.767,0,0,1-1.7.42,3.525,3.525,0,0,1-3.36-2.1,10.444,10.444,0,0,1-.86-4.74,15.563,15.563,0,0,1,.25-3.07A6.692,6.692,0,0,1,377.117,99.817Zm4.5-.24a1.843,1.843,0,0,0-1.42-.64,1.905,1.905,0,0,0-1.44.64,2.41,2.41,0,0,0-.6,1.12,12.353,12.353,0,0,0-.2,2.28q0,.12-.01.78t-.01,1.1q0,1.92.04,2.68a11.37,11.37,0,0,0,.24,2.01,2.268,2.268,0,0,0,.6,1.05,1.777,1.777,0,0,0,1.38.6,1.751,1.751,0,0,0,1.36-.6,2.268,2.268,0,0,0,.6-1.05,11.37,11.37,0,0,0,.24-2.01q.041-.761.04-2.68c0-.293,0-.66-.009-1.1s-.011-.7-.011-.78a12.353,12.353,0,0,0-.2-2.28A2.41,2.41,0,0,0,381.617,99.577Z"/><path class="c" d="M398.053,81.184c.452.1.695.151.728.151q.579,0,1.006-1.056.3-.828,1.834-8.945.7-3.793.728-3.819V67.44h-1.18a6.694,6.694,0,0,1-1.257-.051q-.175-.1-.05-.552a2.329,2.329,0,0,1,.125-.4.229.229,0,0,1,.214-.138q.162-.012,1.169-.012a10.316,10.316,0,0,0,1.206-.026q0-.05.226-1.256t.3-1.457a6.132,6.132,0,0,1,1.583-3.317,3.246,3.246,0,0,1,2.086-.829,2.561,2.561,0,0,1,1.52.552,1.638,1.638,0,0,1,.616,1.332,1.773,1.773,0,0,1-.452,1.231,1.457,1.457,0,0,1-1.131.5q-1.105,0-1.1-1.055a1.418,1.418,0,0,1,.878-1.357l.227-.126a2.5,2.5,0,0,0-.754-.151q-.729,0-.955.955-.2.755-.653,3.292l-.326,1.659a7.232,7.232,0,0,0,1.381.05q1.131,0,1.357.025c.15.017.226.075.226.176a2.837,2.837,0,0,1-.175.8.248.248,0,0,1-.24.138q-.189.014-1.343.013h-1.408l-.578,3.065q-.93,4.8-1.156,5.8-.854,3.8-2.286,5.152a2.838,2.838,0,0,1-1.834.8,2.273,2.273,0,0,1-1.508-.5,1.647,1.647,0,0,1-.6-1.332,1.859,1.859,0,0,1,.452-1.269,1.443,1.443,0,0,1,1.131-.515q1.106,0,1.105,1.055a1.418,1.418,0,0,1-.879,1.357Z"/><path class="a" d="M415.767,83.169c0,.151-.15.226-.452.226h-.326q-.177-.15-.7-.6-4.524-4.12-4.522-11.96a20.263,20.263,0,0,1,.728-5.6,13.553,13.553,0,0,1,3.794-6.357c.117-.1.251-.214.4-.339s.251-.213.3-.264h.326a.6.6,0,0,1,.377.075.22.22,0,0,1,.075.151c0,.067-.091.193-.276.377q-3.9,4.122-3.894,11.961t3.894,11.96C415.676,82.976,415.767,83.1,415.767,83.169Z"/><path class="a" d="M418.631,70.128a.414.414,0,0,1-.151-.276,4.757,4.757,0,0,1,.78-1.734,4.311,4.311,0,0,1,2.964-2.061,4.194,4.194,0,0,1,.528-.05,3.051,3.051,0,0,1,1.621.453,2.7,2.7,0,0,1,1.067,1.13q.327-.426.4-.527a2.782,2.782,0,0,1,2.135-1.056,2.365,2.365,0,0,1,1.671.591,1.889,1.889,0,0,1,.641,1.445,1.973,1.973,0,0,1-.44,1.306,1.444,1.444,0,0,1-1.169.528,1.1,1.1,0,0,1-.778-.277.941.941,0,0,1-.3-.728,1.6,1.6,0,0,1,1.257-1.583,1.033,1.033,0,0,0-.276-.176,1.432,1.432,0,0,0-.73-.151,1.659,1.659,0,0,0-.477.05,2.624,2.624,0,0,0-1.406,1.659q-.076.2-.73,2.8t-.7,2.928a3.848,3.848,0,0,0-.075.754,1.3,1.3,0,0,0,.351.955,1.259,1.259,0,0,0,.93.351,2.6,2.6,0,0,0,1.91-.892,4.635,4.635,0,0,0,1.155-1.972c.051-.168.1-.264.151-.289a1.2,1.2,0,0,1,.4-.038q.478,0,.478.2c0,.017-.017.109-.05.276a5.466,5.466,0,0,1-1.76,2.714,3.96,3.96,0,0,1-2.487.93,2.893,2.893,0,0,1-2.663-1.583,3.525,3.525,0,0,1-1.86,1.508,3.255,3.255,0,0,1-.653.05,2.189,2.189,0,0,1-2.06-1.03,1.944,1.944,0,0,1-.251-1.006,1.9,1.9,0,0,1,.452-1.281,1.45,1.45,0,0,1,1.155-.528.944.944,0,0,1,1.081,1.055,1.419,1.419,0,0,1-.88,1.357l-.126.063-.125.063a.188.188,0,0,1-.075.025l-.076.026c0,.049.126.125.377.226a1.677,1.677,0,0,0,.653.125,1.857,1.857,0,0,0,1.559-1.131,19.117,19.117,0,0,0,.979-3.266c.1-.385.209-.812.327-1.282s.2-.829.264-1.08.1-.4.113-.452a6.193,6.193,0,0,0,.125-.98,1.352,1.352,0,0,0-.326-.955,1.172,1.172,0,0,0-.905-.352,2.623,2.623,0,0,0-1.959.867,4.75,4.75,0,0,0-1.156,2c-.035.151-.072.239-.114.265a1.247,1.247,0,0,1-.414.037Z"/><path class="a" d="M432.954,70.832a.547.547,0,0,1,.352-.5h7.512V66.56l.026-3.769c.167-.218.327-.327.477-.327a.551.551,0,0,1,.5.377v7.488h7.487a.523.523,0,0,1,0,1.005h-7.487v7.488a.535.535,0,0,1-1.006,0V71.334h-7.512A.546.546,0,0,1,432.954,70.832Z"/><path class="b" d="M461.5,77.365a2.252,2.252,0,0,1-1.608-.591,1.994,1.994,0,0,1-.628-1.52,3.539,3.539,0,0,1,.252-1.105A29.443,29.443,0,0,0,461.02,69.4a4.935,4.935,0,0,0,.077-.955q0-1.483-1.232-1.483a3.024,3.024,0,0,0-.653.05,4.78,4.78,0,0,0-2.965,2.413l-.176.326-.854,3.392q-.8,3.267-.93,3.569a1.135,1.135,0,0,1-1.106.678,1.064,1.064,0,0,1-.59-.189.564.564,0,0,1-.289-.489q0-.3,3.693-15.077a.453.453,0,0,0-.15-.4,3.737,3.737,0,0,0-1.005-.125h-.529a.73.73,0,0,1-.163-.2,2.6,2.6,0,0,1,.064-.477c.083-.318.192-.478.326-.478q.025,0,1.821-.138t1.822-.138c.2,0,.3.076.3.227q0,.276-.905,3.793-.956,3.72-.954,3.795c0,.034.058-.008.176-.126a4.738,4.738,0,0,1,3.266-1.357,3.387,3.387,0,0,1,2.211.679,2.415,2.415,0,0,1,.829,1.985,5.036,5.036,0,0,1-.075.955,31.368,31.368,0,0,1-1.382,4.447,6.018,6.018,0,0,0-.452,1.784.909.909,0,0,0,.125.478.464.464,0,0,0,.377.125,1.72,1.72,0,0,0,1.319-.766,5.619,5.619,0,0,0,.968-2.048.646.646,0,0,1,.151-.327.939.939,0,0,1,.4-.05c.317.05.485.117.5.2,0,.017-.033.142-.1.377a5.73,5.73,0,0,1-1.281,2.437A2.641,2.641,0,0,1,461.5,77.365Z"/><path class="a" d="M467.076,58.293l.1-.025h.552c.118.1.352.3.7.6q4.524,4.122,4.524,11.961a19.815,19.815,0,0,1-.729,5.578,13.559,13.559,0,0,1-3.795,6.382q-.176.151-.4.34c-.151.125-.252.213-.3.263h-.3a.936.936,0,0,1-.39-.05c-.059-.034-.088-.117-.088-.251q.026-.025.276-.327,3.9-4.046,3.895-11.935T467.226,58.9c-.167-.2-.259-.309-.276-.326A.3.3,0,0,1,467.076,58.293Z"/><path class="a" d="M483.735,70.832a.546.546,0,0,1,.353-.5h14.6a.523.523,0,0,1,0,1.005h-14.6A.545.545,0,0,1,483.735,70.832Z"/><path class="c" d="M504.139,81.184c.452.1.695.151.728.151q.579,0,1.006-1.056.3-.828,1.834-8.945.7-3.793.728-3.819V67.44h-1.18A6.694,6.694,0,0,1,506,67.389q-.175-.1-.05-.552a2.229,2.229,0,0,1,.125-.4.229.229,0,0,1,.214-.138q.162-.012,1.169-.012a10.316,10.316,0,0,0,1.206-.026q0-.05.226-1.256t.3-1.457a6.132,6.132,0,0,1,1.583-3.317,3.246,3.246,0,0,1,2.086-.829,2.561,2.561,0,0,1,1.52.552,1.638,1.638,0,0,1,.616,1.332,1.773,1.773,0,0,1-.452,1.231,1.457,1.457,0,0,1-1.131.5q-1.106,0-1.1-1.055a1.418,1.418,0,0,1,.878-1.357l.227-.126a2.5,2.5,0,0,0-.754-.151q-.729,0-.955.955-.2.755-.653,3.292l-.326,1.659a7.223,7.223,0,0,0,1.381.05q1.131,0,1.357.025c.15.017.226.075.226.176a2.837,2.837,0,0,1-.175.8.248.248,0,0,1-.24.138q-.189.014-1.343.013h-1.408l-.578,3.065q-.93,4.8-1.156,5.8-.853,3.8-2.286,5.152a2.838,2.838,0,0,1-1.834.8,2.273,2.273,0,0,1-1.508-.5,1.647,1.647,0,0,1-.6-1.332,1.859,1.859,0,0,1,.452-1.269,1.443,1.443,0,0,1,1.131-.515q1.105,0,1.105,1.055a1.418,1.418,0,0,1-.879,1.357Z"/><path class="a" d="M521.853,83.169c0,.151-.15.226-.452.226h-.326q-.177-.15-.7-.6-4.524-4.12-4.523-11.96a20.262,20.262,0,0,1,.729-5.6,13.553,13.553,0,0,1,3.794-6.357c.117-.1.251-.214.4-.339s.251-.213.3-.264h.326a.6.6,0,0,1,.377.075.22.22,0,0,1,.075.151c0,.067-.091.193-.276.377q-3.9,4.122-3.895,11.961t3.895,11.96C521.762,82.976,521.853,83.1,521.853,83.169Z"/><path class="a" d="M524.717,70.128a.414.414,0,0,1-.151-.276,4.757,4.757,0,0,1,.78-1.734,4.311,4.311,0,0,1,2.964-2.061,4.194,4.194,0,0,1,.528-.05,3.051,3.051,0,0,1,1.621.453,2.705,2.705,0,0,1,1.067,1.13q.327-.426.4-.527a2.782,2.782,0,0,1,2.135-1.056,2.367,2.367,0,0,1,1.671.591,1.889,1.889,0,0,1,.641,1.445,1.973,1.973,0,0,1-.44,1.306,1.444,1.444,0,0,1-1.169.528,1.1,1.1,0,0,1-.778-.277.941.941,0,0,1-.3-.728,1.6,1.6,0,0,1,1.257-1.583,1.033,1.033,0,0,0-.276-.176,1.432,1.432,0,0,0-.73-.151,1.659,1.659,0,0,0-.477.05,2.624,2.624,0,0,0-1.406,1.659q-.076.2-.73,2.8t-.7,2.928a3.848,3.848,0,0,0-.075.754,1.3,1.3,0,0,0,.351.955,1.259,1.259,0,0,0,.93.351,2.6,2.6,0,0,0,1.91-.892,4.646,4.646,0,0,0,1.155-1.972c.051-.168.1-.264.151-.289a1.2,1.2,0,0,1,.4-.038q.478,0,.478.2c0,.017-.017.109-.05.276a5.466,5.466,0,0,1-1.76,2.714,3.96,3.96,0,0,1-2.487.93,2.893,2.893,0,0,1-2.663-1.583,3.525,3.525,0,0,1-1.86,1.508,3.255,3.255,0,0,1-.653.05,2.192,2.192,0,0,1-2.061-1.03,1.953,1.953,0,0,1-.25-1.006,1.9,1.9,0,0,1,.452-1.281,1.45,1.45,0,0,1,1.155-.528.944.944,0,0,1,1.081,1.055,1.419,1.419,0,0,1-.88,1.357l-.126.063-.125.063a.188.188,0,0,1-.075.025l-.076.026c0,.049.126.125.377.226a1.677,1.677,0,0,0,.653.125,1.857,1.857,0,0,0,1.559-1.131,19.117,19.117,0,0,0,.979-3.266c.1-.385.209-.812.327-1.282s.2-.829.264-1.08.1-.4.113-.452a6.193,6.193,0,0,0,.125-.98,1.352,1.352,0,0,0-.326-.955,1.172,1.172,0,0,0-.9-.352,2.623,2.623,0,0,0-1.959.867,4.75,4.75,0,0,0-1.156,2c-.035.151-.072.239-.114.265a1.247,1.247,0,0,1-.414.037Z"/><path class="a" d="M539.14,58.293l.1-.025h.553l.7.6q4.524,4.122,4.523,11.961a19.853,19.853,0,0,1-.728,5.578,13.567,13.567,0,0,1-3.8,6.382q-.175.151-.4.34c-.152.125-.252.213-.3.263h-.3a.939.939,0,0,1-.39-.05c-.058-.034-.087-.117-.087-.251.016-.017.109-.126.276-.327q3.9-4.046,3.894-11.935T539.291,58.9c-.167-.2-.26-.309-.276-.326A.3.3,0,0,1,539.14,58.293Z"/><path class="b" d="M469.188,118.805a2.253,2.253,0,0,1-1.607-.59,1.993,1.993,0,0,1-.629-1.52,3.538,3.538,0,0,1,.252-1.106,29.57,29.57,0,0,0,1.507-4.749,4.93,4.93,0,0,0,.076-.955q0-1.482-1.231-1.482a3.035,3.035,0,0,0-.654.05,4.781,4.781,0,0,0-2.965,2.412l-.175.327-.855,3.392q-.8,3.265-.93,3.568a1.134,1.134,0,0,1-1.1.678,1.074,1.074,0,0,1-.591-.188.567.567,0,0,1-.289-.49q0-.3,3.693-15.077a.449.449,0,0,0-.15-.4,3.768,3.768,0,0,0-1.005-.126H462a.712.712,0,0,1-.163-.2,2.456,2.456,0,0,1,.063-.478c.083-.318.193-.477.326-.477q.026,0,1.822-.138t1.822-.139c.2,0,.3.076.3.227q0,.276-.906,3.794-.954,3.719-.954,3.794c0,.034.059-.008.176-.126a4.739,4.739,0,0,1,3.267-1.357,3.387,3.387,0,0,1,2.211.679,2.418,2.418,0,0,1,.829,1.985,5.105,5.105,0,0,1-.075.955,31.644,31.644,0,0,1-1.382,4.447,5.99,5.99,0,0,0-.452,1.785.889.889,0,0,0,.125.477.461.461,0,0,0,.377.126,1.722,1.722,0,0,0,1.319-.767,5.644,5.644,0,0,0,.968-2.048.644.644,0,0,1,.15-.327.951.951,0,0,1,.4-.049c.318.049.486.117.5.2,0,.017-.033.143-.1.377a5.752,5.752,0,0,1-1.282,2.438A2.643,2.643,0,0,1,469.188,118.805Z"/><rect class="a" x="402.53" y="90.179" width="150" height="1" rx="0.5"/><rect class="a" x="233.802" y="90.179" width="30" height="1" rx="0.5"/><path class="d" d="M246.035,63.171q.376-.025.855-.063c.317-.025.556-.046.715-.063s.247-.025.264-.025c.2,0,.3.067.3.2q0,.176-1.847,7.6t-1.872,7.551a2.06,2.06,0,0,0-.025.377q0,1.055.7,1.055a1.1,1.1,0,0,0,.5-.226,5.707,5.707,0,0,0,1.03-2.412q.151-.5.251-.528a.733.733,0,0,1,.252-.025h.1c.318,0,.478.067.478.2a2.07,2.07,0,0,1-.076.4,6.54,6.54,0,0,1-1.357,2.915,2.5,2.5,0,0,1-.8.527,2.656,2.656,0,0,1-.6.051,2.267,2.267,0,0,1-2.211-1.232,1.864,1.864,0,0,0-.126-.3c-.016-.017-.05-.008-.1.025l-.1.1a5.136,5.136,0,0,1-2.387,1.382,4.73,4.73,0,0,1-.628.026,3.334,3.334,0,0,1-2.739-1.383,4.882,4.882,0,0,1-.754-2.814,7.678,7.678,0,0,1,1.709-4.623,6.572,6.572,0,0,1,3.468-2.387,3.716,3.716,0,0,1,1.029-.151,2.41,2.41,0,0,1,2.112,1.055c.083.1.125.135.125.1q.024-.1.691-2.751t.691-2.777a.451.451,0,0,0-.151-.4,3.755,3.755,0,0,0-1.005-.126H244a.69.69,0,0,1-.164-.2,2.545,2.545,0,0,1,.063-.477c.083-.318.193-.478.326-.478.017,0,.105-.008.264-.025s.386-.033.679-.05Zm-2.161,9.1q-.552-1.984-1.885-1.986a2.321,2.321,0,0,0-1.771.855,5.936,5.936,0,0,0-1.168,1.96,20.057,20.057,0,0,0-1.031,4.121q0,.075-.012.276c-.009.135-.013.235-.013.3a2.475,2.475,0,0,0,.39,1.457,1.307,1.307,0,0,0,1.143.553q1.332,0,2.789-1.809l.2-.277q.227-.9.678-2.726T243.874,72.267Z"/><path class="c" d="M251.059,84.529q.679.15.729.15.579,0,1.006-1.055.3-.829,1.834-8.945.7-3.793.728-3.819v-.076h-1.18a6.754,6.754,0,0,1-1.257-.05q-.176-.1-.05-.553a2.142,2.142,0,0,1,.125-.4.226.226,0,0,1,.214-.138q.162-.012,1.169-.012a10.615,10.615,0,0,0,1.206-.026q0-.05.225-1.256c.152-.8.251-1.29.3-1.458a6.132,6.132,0,0,1,1.583-3.316,3.246,3.246,0,0,1,2.086-.83,2.569,2.569,0,0,1,1.52.553,1.636,1.636,0,0,1,.616,1.332,1.773,1.773,0,0,1-.452,1.231,1.457,1.457,0,0,1-1.131.5q-1.105,0-1.106-1.056a1.419,1.419,0,0,1,.879-1.357l.227-.125a2.47,2.47,0,0,0-.754-.151q-.729,0-.955.955-.2.754-.653,3.292l-.327,1.658a7.064,7.064,0,0,0,1.382.051q1.131,0,1.357.025c.15.017.226.075.226.175a2.8,2.8,0,0,1-.176.8.248.248,0,0,1-.239.139q-.189.012-1.344.012h-1.407l-.578,3.066q-.93,4.8-1.156,5.8-.853,3.794-2.286,5.151a2.835,2.835,0,0,1-1.834.8,2.273,2.273,0,0,1-1.508-.5,1.648,1.648,0,0,1-.6-1.332,1.858,1.858,0,0,1,.453-1.269,1.439,1.439,0,0,1,1.13-.515q1.107,0,1.106,1.055a1.419,1.419,0,0,1-.879,1.357Z"/><path class="d" d="M246.035,100.962c.251-.017.536-.037.855-.063s.556-.046.715-.062.247-.026.264-.026c.2,0,.3.068.3.2q0,.177-1.847,7.6t-1.872,7.551a2.068,2.068,0,0,0-.025.377q0,1.056.7,1.055a1.078,1.078,0,0,0,.5-.226,5.707,5.707,0,0,0,1.03-2.412q.151-.5.251-.528a.76.76,0,0,1,.252-.025h.1c.318,0,.478.067.478.2a2.057,2.057,0,0,1-.076.4,6.535,6.535,0,0,1-1.357,2.915,2.482,2.482,0,0,1-.8.528,2.728,2.728,0,0,1-.6.05,2.266,2.266,0,0,1-2.211-1.231,1.923,1.923,0,0,0-.126-.3c-.016-.016-.05-.008-.1.025-.034.034-.068.067-.1.1a5.145,5.145,0,0,1-2.387,1.382,4.986,4.986,0,0,1-.628.025,3.335,3.335,0,0,1-2.739-1.382,4.886,4.886,0,0,1-.754-2.814,7.683,7.683,0,0,1,1.709-4.624,6.572,6.572,0,0,1,3.468-2.387,3.754,3.754,0,0,1,1.029-.151,2.408,2.408,0,0,1,2.112,1.056c.083.1.125.134.125.1q.024-.1.691-2.752t.691-2.777a.451.451,0,0,0-.151-.4,3.725,3.725,0,0,0-1.005-.125H244a.718.718,0,0,1-.164-.2,2.542,2.542,0,0,1,.063-.478c.083-.318.193-.477.326-.477.017,0,.105-.008.264-.025s.386-.034.679-.051Zm-2.161,9.1q-.552-1.985-1.885-1.985a2.32,2.32,0,0,0-1.771.854,5.946,5.946,0,0,0-1.168,1.96,20.073,20.073,0,0,0-1.031,4.121c0,.051,0,.143-.012.277s-.013.234-.013.3a2.48,2.48,0,0,0,.39,1.458,1.308,1.308,0,0,0,1.143.552q1.332,0,2.789-1.809l.2-.276q.227-.9.678-2.727T243.874,110.058Z"/><path class="a" d="M249.552,111.264a.414.414,0,0,1-.151-.276,4.764,4.764,0,0,1,.78-1.734,4.306,4.306,0,0,1,2.964-2.06,4.052,4.052,0,0,1,.528-.051,3.051,3.051,0,0,1,1.621.453,2.705,2.705,0,0,1,1.067,1.13q.327-.426.4-.527a2.782,2.782,0,0,1,2.135-1.056,2.371,2.371,0,0,1,1.671.591,1.892,1.892,0,0,1,.641,1.445,1.977,1.977,0,0,1-.44,1.307,1.446,1.446,0,0,1-1.169.527,1.107,1.107,0,0,1-.778-.276.944.944,0,0,1-.3-.729,1.6,1.6,0,0,1,1.257-1.583,1.033,1.033,0,0,0-.276-.176,1.442,1.442,0,0,0-.73-.151,1.616,1.616,0,0,0-.477.051,2.622,2.622,0,0,0-1.406,1.658q-.077.2-.73,2.8t-.7,2.927a3.848,3.848,0,0,0-.075.754,1.293,1.293,0,0,0,.351.955,1.259,1.259,0,0,0,.93.351,2.6,2.6,0,0,0,1.91-.892,4.646,4.646,0,0,0,1.155-1.972c.051-.167.1-.264.151-.289a1.224,1.224,0,0,1,.4-.038c.318,0,.478.067.478.2,0,.017-.017.11-.05.277a5.464,5.464,0,0,1-1.76,2.713,3.96,3.96,0,0,1-2.487.93,2.893,2.893,0,0,1-2.663-1.583,3.525,3.525,0,0,1-1.86,1.508,3.255,3.255,0,0,1-.653.05,2.192,2.192,0,0,1-2.061-1.03,1.942,1.942,0,0,1-.251-1.005,1.9,1.9,0,0,1,.453-1.282,1.45,1.45,0,0,1,1.155-.528.944.944,0,0,1,1.081,1.056,1.42,1.42,0,0,1-.88,1.357l-.126.063c-.05.024-.092.046-.125.063a.2.2,0,0,1-.075.024l-.076.026q0,.075.377.226a1.677,1.677,0,0,0,.653.125,1.858,1.858,0,0,0,1.559-1.13,19.178,19.178,0,0,0,.979-3.267c.1-.385.209-.812.327-1.281s.2-.829.264-1.081.1-.4.113-.452a6.193,6.193,0,0,0,.125-.98,1.352,1.352,0,0,0-.326-.955,1.177,1.177,0,0,0-.905-.352,2.622,2.622,0,0,0-1.959.867,4.76,4.76,0,0,0-1.157,2c-.034.15-.071.238-.113.264a1.218,1.218,0,0,1-.414.037Z"/><path class="e" d="M174.606,94.414c22.44,13.342,22.864-31.551,46.808-27.149"/><path class="d" d="M227.167,69.111a30.189,30.189,0,0,0-9.557,2.084l3.021-4.057-.273-5.049A30.228,30.228,0,0,0,227.167,69.111Z"/><path class="e" d="M219.22,115.394c-26.6,6.907-29.151-10.577-44.614-20.98"/><path class="d" d="M225,113.635a30.217,30.217,0,0,1-9.546-2.133l3,4.072-.3,5.048A30.174,30.174,0,0,1,225,113.635Z"/><path class="a" d="M38.919,61.564a1.016,1.016,0,0,0-.488-.3,10.136,10.136,0,0,0-1.262-.074h-.825V60.038h.275q.45.077,3.649.075,3.7,0,4.151-.075h.3v1.151h-.675q-.925,0-1.2.025a4.38,4.38,0,0,0-.9.087,1,1,0,0,0-.4.263l-.026,7q0,7,.026,7.074a.263.263,0,0,0,.1.176,6.585,6.585,0,0,0,1.9.125,12.779,12.779,0,0,0,2.425-.151,3.881,3.881,0,0,0,2.174-1.4,6.464,6.464,0,0,0,.976-2.8,4.27,4.27,0,0,1,.037-.438c.025-.208.05-.4.075-.562s.037-.259.037-.275a1.847,1.847,0,0,1,.5-.026h.5v.125q-.05.076-.349,3.288t-.351,3.287v.125H36.344V75.964h.825a9.966,9.966,0,0,0,1.262-.076,1.01,1.01,0,0,0,.488-.3Z"/><path class="a" d="M57.518,77.113a21.56,21.56,0,0,0-2.6-.075,26.74,26.74,0,0,0-2.726.075h-.2V75.964h.4a8.63,8.63,0,0,0,1.226-.076.538.538,0,0,0,.3-.275q.024-.049.024-3.625a34.941,34.941,0,0,0-.1-4q-.2-.5-1.475-.5h-.275v-.575q0-.574.049-.574l.25-.025q.251-.025.7-.051l.9-.049q.425-.025.9-.063t.726-.062c.166-.017.258-.025.274-.025h.076v9.5a.578.578,0,0,0,.3.312,3.952,3.952,0,0,0,.875.088h.576v1.149Zm-2.9-16.725a1.609,1.609,0,0,1,1.024.438,1.411,1.411,0,0,1,.4,1.062,1.34,1.34,0,0,1-.675,1.275,1.367,1.367,0,0,1-.8.225,1.406,1.406,0,0,1-.824-.225,1.339,1.339,0,0,1-.676-1.275,1.42,1.42,0,0,1,.438-1.1A1.59,1.59,0,0,1,54.619,60.388Z"/><path class="a" d="M62.994,75.613q.2.351,1.175.351h.75v1.149h-.2a25.564,25.564,0,0,0-2.8-.075,25.536,25.536,0,0,0-2.8.075h-.2V75.964h.75q.975,0,1.175-.351v-.774c0-.234,0-.5.012-.788s.013-.616.013-.975V72.038q0-.774-.013-1.662t-.012-1.463v-.574a.827.827,0,0,0-.363-.638,2.923,2.923,0,0,0-1.112-.213h-.45v-.575c0-.383.016-.574.05-.574l.25-.025q.251-.025.712-.051l.913-.049q.425-.025.9-.063t.725-.062c.167-.017.258-.025.275-.025h.075v1a6.707,6.707,0,0,0,.025.949l.025-.025a4.4,4.4,0,0,1,3.825-1.924q2.424.074,2.975,1.9l.05.125q.6-.75.674-.826a4.21,4.21,0,0,1,2.976-1.2q3.124,0,3.425,2.824.024.175.025,3.475,0,3.2.025,3.25a.533.533,0,0,0,.3.275,8.63,8.63,0,0,0,1.226.076h.4v1.149h-.2a25.575,25.575,0,0,0-2.8-.075,25.539,25.539,0,0,0-2.8.075h-.2V75.964h.6q1.325,0,1.325-.4.024-.051.025-3.451-.025-3.375-.05-3.575a2.209,2.209,0,0,0-.563-1.162,1.685,1.685,0,0,0-1.187-.363,2.712,2.712,0,0,0-1.975.85,3.575,3.575,0,0,0-1.025,2.2c0,.016,0,.171-.013.462s-.013.663-.013,1.112v2.8q0,.324.013.587c.009.175.013.321.013.438v.149q.2.351,1.175.351h.75v1.149h-.2a25.525,25.525,0,0,0-2.8-.075,25.564,25.564,0,0,0-2.8.075h-.2V75.964h.6q1.324,0,1.324-.4.025-.051.026-3.451-.025-3.375-.05-3.575a2.209,2.209,0,0,0-.563-1.162,1.685,1.685,0,0,0-1.187-.363,2.714,2.714,0,0,0-1.976.85,3.584,3.584,0,0,0-1.024,2.2v.462c0,.292-.005.663-.013,1.112s-.012.875-.012,1.275V73.7q0,.413.012.738c.008.216.013.412.013.587v.587Z"/><path class="a" d="M85.293,77.113a21.6,21.6,0,0,0-2.6-.075,26.714,26.714,0,0,0-2.725.075h-.2V75.964h.4a8.6,8.6,0,0,0,1.225-.076.535.535,0,0,0,.3-.275q.025-.049.025-3.625a34.778,34.778,0,0,0-.1-4q-.2-.5-1.475-.5h-.275v-.575q0-.574.05-.574l.25-.025q.25-.025.7-.051l.9-.049c.284-.017.583-.038.9-.063s.558-.046.725-.062.258-.025.275-.025h.075v9.5a.579.579,0,0,0,.3.312,3.934,3.934,0,0,0,.875.088h.575v1.149Zm-2.9-16.725a1.614,1.614,0,0,1,1.025.438,1.414,1.414,0,0,1,.4,1.062,1.338,1.338,0,0,1-.675,1.275,1.364,1.364,0,0,1-.8.225,1.409,1.409,0,0,1-.825-.225,1.338,1.338,0,0,1-.675-1.275,1.419,1.419,0,0,1,.437-1.1A1.59,1.59,0,0,1,82.393,60.388Z"/><path class="a" d="M89.594,62.113v-.375h1v4.6h3.375v1.149H90.594v3.6q.023,3.124.037,3.537a2.279,2.279,0,0,0,.162.787,1.255,1.255,0,0,0,1.225.975q1.1,0,1.35-1.775.026-.2.025-1.149v-.875h1v.875a7.623,7.623,0,0,1-.125,1.649,3.423,3.423,0,0,1-.937,1.625,2.429,2.429,0,0,1-1.737.625,2.848,2.848,0,0,1-3.076-2.75q-.024-.174-.025-3.7V67.488H86.518v-.924h.225a2.307,2.307,0,0,0,1.575-.8A5.527,5.527,0,0,0,89.594,62.113Z"/><path class="a" d="M108.218,77.113a21.6,21.6,0,0,0-2.6-.075,26.74,26.74,0,0,0-2.726.075h-.2V75.964h.4a8.615,8.615,0,0,0,1.225-.076.535.535,0,0,0,.3-.275q.026-.049.024-3.625a34.941,34.941,0,0,0-.1-4q-.2-.5-1.475-.5h-.275v-.575c0-.383.016-.574.05-.574l.25-.025q.251-.025.7-.051l.9-.049q.425-.025.9-.063t.725-.062c.166-.017.258-.025.275-.025h.075v9.5a.576.576,0,0,0,.3.312,3.934,3.934,0,0,0,.875.088h.575v1.149Zm-2.9-16.725a1.614,1.614,0,0,1,1.025.438,1.414,1.414,0,0,1,.4,1.062,1.34,1.34,0,0,1-.675,1.275,1.367,1.367,0,0,1-.8.225,1.406,1.406,0,0,1-.824-.225,1.339,1.339,0,0,1-.676-1.275,1.42,1.42,0,0,1,.438-1.1A1.59,1.59,0,0,1,105.318,60.388Z"/><path class="a" d="M115.093,66.064a4.974,4.974,0,0,1,3.3,1.224v-2.55q0-2.6-.025-2.7a.827.827,0,0,0-.362-.637,2.924,2.924,0,0,0-1.113-.212h-.45v-.576q0-.575.05-.575l.25-.025c.166-.016.408-.033.725-.049l.925-.051c.284-.016.591-.037.925-.062s.583-.046.75-.063.258-.025.275-.025h.075v7.6q0,7.651.025,7.726a.848.848,0,0,0,.363.662,2.9,2.9,0,0,0,1.112.213h.45v1.149q-.049,0-1.912.125t-1.963.15h-.175V76.013l-.2.176a4.908,4.908,0,0,1-3.25,1.2,4.585,4.585,0,0,1-3.1-1.174,5.858,5.858,0,0,1-1.9-3.6c-.017-.133-.025-.424-.025-.875a5.633,5.633,0,0,1,1.55-4.049A4.935,4.935,0,0,1,115.093,66.064Zm3.225,2.5a3.361,3.361,0,0,0-2.825-1.576,3.074,3.074,0,0,0-2.175.9,3.286,3.286,0,0,0-.838,1.525,10.841,10.841,0,0,0-.212,2.426q0,2.775,1.05,3.8a2.559,2.559,0,0,0,1.95.826,3.234,3.234,0,0,0,1.675-.476,3.539,3.539,0,0,0,1.275-1.3l.1-.151Z"/><path class="a" d="M133.268,70.988a.507.507,0,0,1-.174.351h-7.05v.375a6.167,6.167,0,0,0,.5,2.8,3.168,3.168,0,0,0,3.1,1.85,2.33,2.33,0,0,0,1.8-.8,3.356,3.356,0,0,0,.776-1.3.875.875,0,0,1,.149-.35.658.658,0,0,1,.4-.074q.5,0,.5.25a1.19,1.19,0,0,1-.075.324,4.807,4.807,0,0,1-1.512,2.138,3.909,3.909,0,0,1-2.538.837,5.634,5.634,0,0,1-1.1-.125,5.193,5.193,0,0,1-2.551-1.3,5.88,5.88,0,0,1-1.9-4.3,5.8,5.8,0,0,1,1.349-3.887,5.084,5.084,0,0,1,3.325-1.837,1.622,1.622,0,0,1,.35-.026,4.391,4.391,0,0,1,3.463,1.338A5.44,5.44,0,0,1,133.268,70.988Zm-2.049-.75q-.226-2.724-1.851-3.3a1.656,1.656,0,0,0-.524-.1,2.483,2.483,0,0,0-2.125,1.2,5.271,5.271,0,0,0-.651,2.225v.176h5.151Z"/><path class="a" d="M137.855,69.089a1.286,1.286,0,0,1-.962.4,1.248,1.248,0,0,1-.95-.4,1.344,1.344,0,0,1-.375-.951,2.007,2.007,0,0,1,.2-.8,2.233,2.233,0,0,1,1.3-1.051,6.638,6.638,0,0,1,2.375-.375,5.335,5.335,0,0,1,2.863.75,3.5,3.5,0,0,1,1.587,1.95,2.561,2.561,0,0,1,.137.788q.013.438.013,2.862,0,2.451.013,2.863a1.392,1.392,0,0,0,.137.637.513.513,0,0,0,.5.35.5.5,0,0,0,.475-.35,3.826,3.826,0,0,0,.15-1.375v-.9h1v.976a7.8,7.8,0,0,1-.075,1.174,2.346,2.346,0,0,1-.825,1.163,2.261,2.261,0,0,1-1.425.462,1.62,1.62,0,0,1-1.112-.437,2.2,2.2,0,0,1-.663-1.063v-.1c-.05.051-.15.163-.3.338s-.259.3-.325.362a4.305,4.305,0,0,1-2.85,1.025,4.844,4.844,0,0,1-2.325-.549,2.816,2.816,0,0,1-1.375-1.451,2.415,2.415,0,0,1-.2-.949,2.989,2.989,0,0,1,.975-2.151,4.64,4.64,0,0,1,1.425-.949,12.217,12.217,0,0,1,4.35-.926h.35v-.55a3.83,3.83,0,0,0-.15-1.25,2.387,2.387,0,0,0-2.425-1.774q-1.675,0-1.675.2a1.248,1.248,0,0,1,.55,1.1A1.319,1.319,0,0,1,137.855,69.089Zm4.088,3.649q0-1.449-.025-1.45a.272.272,0,0,0-.125.026q-3.425.225-4.375,2.025a2.286,2.286,0,0,0-.275,1.125,1.893,1.893,0,0,0,.6,1.424,2.049,2.049,0,0,0,1.475.576,2.573,2.573,0,0,0,1.713-.6,2.8,2.8,0,0,0,.937-1.475A13.644,13.644,0,0,0,141.943,72.738Z"/><path class="a" d="M158.918,77.113a21.6,21.6,0,0,0-2.6-.075,26.714,26.714,0,0,0-2.725.075h-.2V75.964h.4a8.6,8.6,0,0,0,1.225-.076.535.535,0,0,0,.3-.275q.025-.049.025-3.625a34.778,34.778,0,0,0-.1-4q-.2-.5-1.475-.5h-.275v-.575q0-.574.05-.574l.25-.025q.25-.025.7-.051l.9-.049c.284-.017.583-.038.9-.063s.558-.046.725-.062.258-.025.275-.025h.075v9.5a.579.579,0,0,0,.3.312,3.934,3.934,0,0,0,.875.088h.575v1.149Zm-2.9-16.725a1.614,1.614,0,0,1,1.025.438,1.414,1.414,0,0,1,.4,1.062,1.338,1.338,0,0,1-.675,1.275,1.364,1.364,0,0,1-.8.225,1.409,1.409,0,0,1-.825-.225,1.338,1.338,0,0,1-.675-1.275,1.419,1.419,0,0,1,.437-1.1A1.59,1.59,0,0,1,156.018,60.388Z"/><path class="a" d="M164.443,66.763q-2.3,0-2.3,1.625a1.152,1.152,0,0,0,.05.426,1.5,1.5,0,0,0,.776.862,7.567,7.567,0,0,0,1.7.487,6.719,6.719,0,0,1,1.95.551,3.617,3.617,0,0,1,2.025,2.475,4.432,4.432,0,0,1,.025.6,4.023,4.023,0,0,1-.35,1.725,3.767,3.767,0,0,1-3.675,1.85,3.977,3.977,0,0,1-2.6-.9l-.2.174-.226.225c-.1.1-.2.192-.3.275l-.275.25h-.2a.45.45,0,0,1-.326-.15V75.263q0-1.624.013-1.875c.008-.166.045-.266.112-.3a1.575,1.575,0,0,1,.4-.025.847.847,0,0,1,.388.049.812.812,0,0,1,.137.351,5.754,5.754,0,0,0,.651,1.725,2.781,2.781,0,0,0,2.424,1.275q2.425,0,2.425-1.951a1.586,1.586,0,0,0-.45-1.174,2.173,2.173,0,0,0-1.05-.676q-.425-.1-1.2-.275a8.53,8.53,0,0,1-1.9-.525,3.118,3.118,0,0,1-1.926-2.325,1.8,1.8,0,0,1-.025-.375q0-2.874,3.525-3.224a1.583,1.583,0,0,1,.6,0,3.868,3.868,0,0,1,1.75.375l.375.2.225-.174a6.28,6.28,0,0,1,.55-.426h.2a.455.455,0,0,1,.325.151v3.3l-.15.15h-.7a.428.428,0,0,1-.151-.3,2.337,2.337,0,0,0-.7-1.8A2.721,2.721,0,0,0,164.443,66.763Z"/><path class="a" d="M65.818,89.913q.425-.024.925-.062t.75-.063c.166-.016.258-.025.275-.025h.075v3.775q0,3.8.025,3.8a1.1,1.1,0,0,0,.15-.125,5.154,5.154,0,0,1,3.425-1.15,4.3,4.3,0,0,1,.825.074A4.888,4.888,0,0,1,75.23,98a5.825,5.825,0,0,1,1.188,3.713,7.159,7.159,0,0,1-.05.875A5.921,5.921,0,0,1,74.605,106a4.927,4.927,0,0,1-3.562,1.387,4.351,4.351,0,0,1-3.3-1.475l-.175-.175-.25.451c-.034.049-.079.129-.137.237s-.109.2-.151.275-.07.129-.087.162l-.125.226-.5.024h-.5v-7.45q0-7.524-.025-7.625a.827.827,0,0,0-.362-.637,2.919,2.919,0,0,0-1.113-.212h-.45v-.576q0-.575.05-.575l.25-.025c.167-.016.408-.033.725-.049Zm5.825,7.151c-.4-.051-.659-.076-.775-.076a3.289,3.289,0,0,0-2.8,1.451l-.15.2v6.025l.125.176a3.286,3.286,0,0,0,1.925,1.524,2.635,2.635,0,0,0,.775.1,2.907,2.907,0,0,0,2.525-1.351,3.481,3.481,0,0,0,.4-.825,7.964,7.964,0,0,0,.3-2.474,9.606,9.606,0,0,0-.3-2.776A2.815,2.815,0,0,0,71.643,97.064Z"/><path class="a" d="M79.893,96.214q.426-.025.925-.063c.333-.025.588-.046.763-.062s.27-.025.287-.025h.075v4.525q.025,4.6.05,4.75a1.345,1.345,0,0,0,.375.774,2.62,2.62,0,0,0,1.5.351,2.743,2.743,0,0,0,1.176-.226,3.2,3.2,0,0,0,1.7-2.725c0-.016,0-.158.013-.424s.012-.6.012-1.013V98.738l-.025-.4a.829.829,0,0,0-.362-.638,2.934,2.934,0,0,0-1.113-.213h-.45V96.339q.05,0,1.913-.125t1.962-.15h.175v4.449q0,4.5.025,4.576a.848.848,0,0,0,.363.662,2.9,2.9,0,0,0,1.112.213h.45v1.149q-.05,0-1.875.125t-1.925.15h-.174v-1.725a4.186,4.186,0,0,1-2.026,1.526,3.994,3.994,0,0,1-1.325.174,4.424,4.424,0,0,1-2.475-.587,2.776,2.776,0,0,1-1.125-1.888q-.024-.174-.049-3.424-.025-2.725-.038-3.051a1.062,1.062,0,0,0-.137-.525q-.251-.4-1.5-.4h-.276v-.575q0-.574.05-.574l.276-.025c.166-.017.408-.034.724-.051Z"/><path class="a" d="M97.343,107.113a21.6,21.6,0,0,0-2.6-.075,26.74,26.74,0,0,0-2.726.075h-.2v-1.149h.4a8.615,8.615,0,0,0,1.225-.076.535.535,0,0,0,.3-.275q.026-.049.024-3.625a34.941,34.941,0,0,0-.1-4q-.2-.5-1.475-.5h-.275v-.575c0-.383.016-.574.05-.574l.25-.025q.251-.025.7-.051l.9-.049q.425-.025.9-.063t.725-.062c.166-.017.258-.025.275-.025h.075v9.5a.576.576,0,0,0,.3.312,3.934,3.934,0,0,0,.875.088h.575v1.149Zm-2.9-16.725a1.614,1.614,0,0,1,1.025.438,1.414,1.414,0,0,1,.4,1.062,1.34,1.34,0,0,1-.675,1.275,1.367,1.367,0,0,1-.8.225,1.406,1.406,0,0,1-.824-.225,1.339,1.339,0,0,1-.676-1.275,1.42,1.42,0,0,1,.438-1.1A1.59,1.59,0,0,1,94.443,90.388Z"/><path class="a" d="M99.168,105.964h.35q.975,0,1.175-.351v-.774q0-.351.013-.826t.012-1.087V95.064q0-.826-.012-1.513c-.009-.458-.013-.821-.013-1.087v-.426a.827.827,0,0,0-.362-.637,2.919,2.919,0,0,0-1.113-.212h-.45v-.576c0-.383.016-.575.05-.575l.25-.025c.166-.016.408-.033.725-.049l.925-.051q.425-.024.925-.062t.75-.063c.166-.016.258-.025.275-.025h.075v7.875q0,7.926.025,7.975a.532.532,0,0,0,.3.275,8.6,8.6,0,0,0,1.225.076h.4v1.149h-.2a27.121,27.121,0,0,0-2.75-.075,25.141,25.141,0,0,0-2.775.075h-.2v-1.149Z"/><path class="a" d="M108.594,92.113v-.375h1v4.6h3.375v1.149h-3.375v3.6q.023,3.124.037,3.537a2.279,2.279,0,0,0,.162.787,1.255,1.255,0,0,0,1.225.975q1.1,0,1.35-1.775.026-.2.025-1.149v-.875h1v.875a7.623,7.623,0,0,1-.125,1.649,3.423,3.423,0,0,1-.937,1.625,2.429,2.429,0,0,1-1.737.625,2.848,2.848,0,0,1-3.076-2.75q-.024-.174-.025-3.7V97.488h-1.975v-.924h.225a2.307,2.307,0,0,0,1.575-.8A5.527,5.527,0,0,0,108.594,92.113Z"/><path class="a" d="M127.218,107.113a21.6,21.6,0,0,0-2.6-.075,26.74,26.74,0,0,0-2.726.075h-.2v-1.149h.4a8.615,8.615,0,0,0,1.225-.076.535.535,0,0,0,.3-.275q.026-.049.024-3.625a34.941,34.941,0,0,0-.1-4q-.2-.5-1.475-.5h-.275v-.575c0-.383.016-.574.05-.574l.25-.025q.251-.025.7-.051l.9-.049q.425-.025.9-.063t.725-.062c.166-.017.258-.025.275-.025h.075v9.5a.576.576,0,0,0,.3.312,3.934,3.934,0,0,0,.875.088h.575v1.149Zm-2.9-16.725a1.614,1.614,0,0,1,1.025.438,1.414,1.414,0,0,1,.4,1.062,1.34,1.34,0,0,1-.675,1.275,1.367,1.367,0,0,1-.8.225,1.406,1.406,0,0,1-.824-.225,1.339,1.339,0,0,1-.676-1.275,1.42,1.42,0,0,1,.438-1.1A1.59,1.59,0,0,1,124.318,90.388Z"/><path class="a" d="M132.693,105.613q.2.351,1.175.351h.75v1.149h-.2a25.564,25.564,0,0,0-2.8-.075,25.55,25.55,0,0,0-2.8.075h-.2v-1.149h.75q.975,0,1.175-.351v-.774c0-.234,0-.5.013-.788s.012-.616.012-.975v-1.038c0-.516-.005-1.07-.012-1.662s-.013-1.079-.013-1.463v-.574a.829.829,0,0,0-.362-.638,2.934,2.934,0,0,0-1.113-.213h-.45v-.575q0-.574.05-.574l.25-.025c.167-.017.4-.034.713-.051l.912-.049q.424-.025.9-.063c.317-.025.558-.046.725-.062s.259-.025.275-.025h.075v1a6.707,6.707,0,0,0,.025.949l.025-.025a4.4,4.4,0,0,1,3.825-1.924,2.917,2.917,0,0,1,3.175,2.824q.025.175.025,3.475,0,3.2.025,3.25a.529.529,0,0,0,.3.275,8.615,8.615,0,0,0,1.225.076h.4v1.149h-.2a25.564,25.564,0,0,0-2.8-.075,25.564,25.564,0,0,0-2.8.075h-.2v-1.149h.6q1.325,0,1.325-.4.024-.051.025-3.451-.025-3.375-.05-3.575a2.209,2.209,0,0,0-.562-1.162,1.689,1.689,0,0,0-1.188-.363,2.711,2.711,0,0,0-1.975.85,3.585,3.585,0,0,0-1.025,2.2v.462c0,.292-.005.663-.012,1.112s-.013.875-.013,1.275v.788q0,.413.013.738c.007.216.012.412.012.587v.587Z"/></svg>