<svg width="480" height="271" viewBox="0 0 480 271" fill="none" xmlns="http://www.w3.org/2000/svg">
<g clip-path="url(#clip0_1598_25828)">
<path d="M480 0.75H0V270.75H480V0.75Z" fill="black"/>
<path d="M305.029 108.076H184.725V161.445H305.029V108.076Z" fill="black"/>
<g clip-path="url(#clip1_1598_25828)">
<path d="M188.71 159.297V112.076H194.005V113.297H189.93V158.076H194.005V159.297H188.71Z" fill="#F0F0F0"/>
<path d="M202.803 115.452L202.547 115.55C202.364 115.616 202.101 115.682 201.76 115.747C201.419 115.813 201.038 115.859 200.618 115.885H200.244V114.98H200.618C201.235 114.953 201.806 114.855 202.331 114.684C202.856 114.514 203.223 114.356 203.433 114.212C203.643 114.068 203.827 113.923 203.984 113.779C204.011 113.74 204.089 113.72 204.22 113.72C204.339 113.72 204.45 113.759 204.555 113.838V119.723L204.575 125.628C204.667 125.72 204.745 125.779 204.811 125.805C204.877 125.832 205.034 125.858 205.283 125.884C205.533 125.91 205.939 125.924 206.504 125.924H207.015V126.829H206.799C206.523 126.79 205.48 126.77 203.669 126.77C201.885 126.77 200.855 126.79 200.579 126.829H200.343V125.924H200.855C201.143 125.924 201.393 125.924 201.603 125.924C201.813 125.924 201.977 125.917 202.095 125.904C202.213 125.891 202.318 125.871 202.41 125.845C202.501 125.819 202.554 125.805 202.567 125.805C202.58 125.805 202.62 125.773 202.685 125.707C202.751 125.641 202.79 125.615 202.803 125.628V115.452Z" fill="#92D192"/>
<path d="M241.067 115.452L240.812 115.55C240.628 115.616 240.365 115.682 240.024 115.747C239.683 115.813 239.303 115.859 238.883 115.885H238.509V114.98H238.883C239.499 114.953 240.07 114.855 240.595 114.684C241.12 114.514 241.487 114.356 241.697 114.212C241.907 114.068 242.091 113.923 242.248 113.779C242.275 113.74 242.353 113.72 242.485 113.72C242.603 113.72 242.714 113.759 242.819 113.838V119.723L242.839 125.628C242.931 125.72 243.01 125.779 243.075 125.805C243.141 125.832 243.298 125.858 243.548 125.884C243.797 125.91 244.204 125.924 244.768 125.924H245.28V126.829H245.063C244.788 126.79 243.744 126.77 241.934 126.77C240.149 126.77 239.119 126.79 238.843 126.829H238.607V125.924H239.119C239.408 125.924 239.657 125.924 239.867 125.924C240.077 125.924 240.241 125.917 240.359 125.904C240.477 125.891 240.582 125.871 240.674 125.845C240.766 125.819 240.818 125.805 240.831 125.805C240.844 125.805 240.884 125.773 240.949 125.707C241.015 125.641 241.054 125.615 241.067 125.628V115.452Z" fill="#F2777A"/>
<path d="M200.5 142.871C201.235 141.808 202.239 141.277 203.512 141.277C204.142 141.277 204.772 141.447 205.401 141.788C206.031 142.129 206.543 142.733 206.937 143.599C207.422 144.688 207.665 146.184 207.665 148.087C207.665 150.121 207.383 151.676 206.819 152.752C206.556 153.303 206.195 153.743 205.736 154.071C205.277 154.399 204.877 154.602 204.535 154.681C204.194 154.76 203.86 154.805 203.532 154.819C203.19 154.819 202.849 154.779 202.508 154.701C202.167 154.622 201.767 154.412 201.307 154.071C200.848 153.729 200.487 153.29 200.225 152.752C199.661 151.676 199.378 150.121 199.378 148.087C199.378 145.804 199.752 144.065 200.5 142.871ZM204.929 142.635C204.535 142.215 204.07 142.005 203.532 142.005C202.98 142.005 202.508 142.215 202.114 142.635C201.786 142.976 201.57 143.448 201.465 144.052C201.36 144.655 201.307 145.915 201.307 147.831C201.307 149.904 201.36 151.269 201.465 151.925C201.57 152.581 201.806 153.1 202.173 153.48C202.541 153.874 202.994 154.071 203.532 154.071C204.056 154.071 204.503 153.874 204.87 153.48C205.251 153.086 205.487 152.535 205.579 151.827C205.67 151.118 205.723 149.786 205.736 147.831C205.736 145.928 205.684 144.675 205.579 144.072C205.474 143.468 205.257 142.989 204.929 142.635Z" fill="#92D192"/>
<path d="M241.068 143.009L240.812 143.107C240.628 143.173 240.365 143.238 240.024 143.304C239.683 143.37 239.303 143.415 238.883 143.442H238.509V142.536H238.883C239.499 142.51 240.07 142.412 240.595 142.241C241.12 142.07 241.487 141.913 241.697 141.769C241.907 141.624 242.091 141.48 242.248 141.336C242.275 141.296 242.353 141.277 242.485 141.277C242.603 141.277 242.714 141.316 242.819 141.395V147.28L242.839 153.185C242.931 153.277 243.01 153.336 243.075 153.362C243.141 153.388 243.298 153.415 243.548 153.441C243.797 153.467 244.204 153.48 244.768 153.48H245.28V154.386H245.063C244.788 154.346 243.744 154.327 241.934 154.327C240.149 154.327 239.119 154.346 238.843 154.386H238.607V153.48H239.119C239.408 153.48 239.657 153.48 239.867 153.48C240.077 153.48 240.241 153.474 240.359 153.461C240.477 153.447 240.582 153.428 240.674 153.401C240.766 153.375 240.818 153.362 240.831 153.362C240.844 153.362 240.884 153.329 240.949 153.264C241.015 153.198 241.054 153.172 241.068 153.185V143.009Z" fill="#F2777A"/>
<path d="M251.303 113.297V112.076H256.598V159.297H251.303V158.076H255.377V113.297H251.303Z" fill="#F0F0F0"/>
<path d="M269.622 159.297V112.076H274.917V113.297H270.842V158.076H274.917V159.297H269.622Z" fill="#FFF888"/>
<path d="M280.546 121.141C280.638 120.589 280.992 119.953 281.609 119.231C282.226 118.51 282.987 118.142 283.892 118.129C284.352 118.129 284.772 118.247 285.152 118.483C285.533 118.72 285.815 119.015 285.998 119.369C286.55 118.542 287.212 118.129 287.986 118.129C288.472 118.129 288.892 118.273 289.246 118.562C289.6 118.851 289.784 119.238 289.797 119.723C289.797 120.104 289.705 120.412 289.522 120.648C289.338 120.885 289.161 121.029 288.99 121.082C288.82 121.134 288.669 121.16 288.538 121.16C288.288 121.16 288.085 121.088 287.927 120.944C287.77 120.799 287.691 120.609 287.691 120.373C287.691 119.769 288.019 119.356 288.675 119.133C288.531 118.962 288.269 118.877 287.888 118.877C287.717 118.877 287.593 118.89 287.514 118.916C287.015 119.126 286.648 119.559 286.412 120.215C285.624 123.115 285.231 124.808 285.231 125.294C285.231 125.661 285.336 125.924 285.546 126.081C285.756 126.239 285.985 126.317 286.235 126.317C286.72 126.317 287.199 126.101 287.672 125.668C288.144 125.235 288.465 124.703 288.636 124.073C288.675 123.942 288.715 123.87 288.754 123.857C288.793 123.844 288.898 123.831 289.069 123.817H289.148C289.345 123.817 289.443 123.87 289.443 123.975C289.443 123.988 289.43 124.06 289.404 124.191C289.194 124.939 288.787 125.602 288.183 126.179C287.58 126.757 286.878 127.046 286.077 127.046C285.159 127.046 284.463 126.632 283.991 125.805C283.453 126.619 282.836 127.026 282.141 127.026H282.022C281.379 127.026 280.92 126.855 280.645 126.514C280.369 126.173 280.225 125.812 280.212 125.432C280.212 125.012 280.336 124.67 280.586 124.408C280.835 124.146 281.13 124.014 281.471 124.014C282.036 124.014 282.318 124.29 282.318 124.841C282.318 125.103 282.239 125.333 282.081 125.53C281.924 125.727 281.773 125.858 281.629 125.924C281.484 125.989 281.399 126.022 281.373 126.022L281.314 126.042C281.314 126.055 281.353 126.081 281.432 126.12C281.511 126.16 281.616 126.206 281.747 126.258C281.878 126.311 282.003 126.33 282.121 126.317C282.593 126.317 283 126.022 283.341 125.432C283.459 125.222 283.61 124.775 283.794 124.093C283.978 123.411 284.161 122.702 284.345 121.967C284.529 121.232 284.634 120.799 284.66 120.668C284.726 120.314 284.758 120.058 284.758 119.901C284.758 119.533 284.66 119.271 284.463 119.113C284.266 118.956 284.043 118.877 283.794 118.877C283.269 118.877 282.777 119.087 282.318 119.507C281.858 119.927 281.537 120.465 281.353 121.121C281.327 121.239 281.294 121.305 281.255 121.318C281.215 121.331 281.11 121.344 280.94 121.357H280.664C280.586 121.278 280.546 121.206 280.546 121.141Z" fill="#FFF888"/>
<path d="M280.743 148.736C280.743 148.553 280.841 148.238 281.038 147.792C281.235 147.346 281.55 146.88 281.983 146.394C282.416 145.909 282.902 145.672 283.44 145.686C283.978 145.686 284.411 145.837 284.739 146.138C285.067 146.44 285.237 146.86 285.25 147.398C285.224 147.647 285.205 147.785 285.191 147.811C285.191 147.851 285.086 148.153 284.877 148.717C284.667 149.281 284.45 149.917 284.227 150.626C284.004 151.335 283.899 151.899 283.912 152.319C283.912 152.883 284.004 153.277 284.188 153.5C284.371 153.723 284.647 153.841 285.014 153.854C285.316 153.854 285.598 153.782 285.861 153.638C286.123 153.493 286.327 153.342 286.471 153.185C286.615 153.027 286.792 152.811 287.002 152.535C287.002 152.522 287.035 152.391 287.101 152.142C287.166 151.892 287.258 151.505 287.376 150.98C287.494 150.456 287.619 149.97 287.75 149.524C288.249 147.556 288.524 146.525 288.577 146.434C288.748 146.079 289.03 145.902 289.423 145.902C289.594 145.902 289.732 145.948 289.837 146.04C289.942 146.132 290.014 146.21 290.053 146.276C290.093 146.342 290.106 146.401 290.093 146.453C290.093 146.624 289.771 148.002 289.128 150.587C288.485 153.172 288.118 154.589 288.026 154.838C287.658 155.927 287.022 156.794 286.117 157.436C285.211 158.079 284.306 158.408 283.4 158.421C282.81 158.421 282.291 158.276 281.845 157.988C281.399 157.699 281.176 157.266 281.176 156.689C281.176 156.4 281.222 156.157 281.314 155.96C281.406 155.763 281.53 155.619 281.688 155.527C281.845 155.435 281.977 155.37 282.081 155.33C282.186 155.291 282.298 155.271 282.416 155.271C282.993 155.271 283.282 155.547 283.282 156.098C283.282 156.36 283.203 156.59 283.046 156.787C282.889 156.984 282.738 157.115 282.593 157.181C282.449 157.246 282.364 157.279 282.337 157.279L282.278 157.299C282.305 157.364 282.429 157.443 282.652 157.535C282.875 157.627 283.098 157.673 283.322 157.673H283.479C283.702 157.673 283.873 157.66 283.991 157.633C284.424 157.515 284.824 157.266 285.191 156.885C285.559 156.505 285.841 156.098 286.038 155.665C286.235 155.232 286.386 154.865 286.491 154.563C286.596 154.261 286.648 154.064 286.648 153.972L286.53 154.051C286.451 154.103 286.327 154.176 286.156 154.267C285.985 154.359 285.815 154.438 285.644 154.504C285.382 154.569 285.126 154.602 284.877 154.602C284.273 154.602 283.741 154.458 283.282 154.169C282.823 153.88 282.521 153.415 282.377 152.772C282.364 152.68 282.357 152.476 282.357 152.161C282.357 151.413 282.587 150.436 283.046 149.229C283.505 148.021 283.735 147.254 283.735 146.926C283.735 146.913 283.735 146.899 283.735 146.886C283.735 146.768 283.735 146.689 283.735 146.65C283.735 146.611 283.709 146.565 283.656 146.512C283.604 146.46 283.531 146.434 283.44 146.434H283.361C283.059 146.434 282.784 146.558 282.534 146.808C282.285 147.057 282.088 147.326 281.944 147.615C281.799 147.903 281.688 148.179 281.609 148.441C281.53 148.704 281.478 148.848 281.452 148.874C281.425 148.901 281.32 148.914 281.137 148.914H280.861C280.782 148.835 280.743 148.776 280.743 148.736Z" fill="#FFF888"/>
<path d="M295.368 113.297V112.076H300.662V159.297H295.368V158.076H299.442V113.297H295.368Z" fill="#FFF888"/>
</g>
<path d="M277.113 57.0734H204.23V77.4281H277.113V57.0734Z" fill="black"/>
<g clip-path="url(#clip2_1598_25828)">
<path d="M208.228 62.4709C208.228 62.1429 208.333 61.8673 208.543 61.6442C208.753 61.4212 209.035 61.3031 209.389 61.2899C209.757 61.2899 210.091 61.4605 210.393 61.8017C210.695 62.1429 210.852 62.7268 210.865 63.5535C210.865 64.2621 210.721 64.9379 210.432 65.5809C210.144 66.2239 209.848 66.7029 209.547 67.0178C209.245 67.3328 209.061 67.4902 208.996 67.4902C208.943 67.4902 208.858 67.4312 208.74 67.3131C208.622 67.195 208.556 67.1097 208.543 67.0572C208.543 67.0178 208.622 66.9129 208.779 66.7423C208.936 66.5717 209.107 66.3683 209.291 66.1321C209.474 65.8959 209.658 65.5547 209.842 65.1085C210.026 64.6624 210.124 64.19 210.137 63.6913C210.137 63.5339 210.131 63.4551 210.117 63.4551C210.104 63.4551 210.072 63.4748 210.019 63.5142C209.967 63.5535 209.881 63.5863 209.763 63.6126C209.645 63.6388 209.527 63.6585 209.409 63.6716C209.081 63.6716 208.805 63.5601 208.582 63.337C208.359 63.1139 208.241 62.8252 208.228 62.4709ZM212.243 62.4709C212.243 62.1429 212.348 61.8673 212.558 61.6442C212.768 61.4212 213.05 61.3031 213.405 61.2899C213.772 61.2899 214.107 61.4605 214.408 61.8017C214.71 62.1429 214.868 62.7268 214.881 63.5535C214.881 64.2621 214.737 64.9379 214.448 65.5809C214.159 66.2239 213.864 66.7029 213.562 67.0178C213.26 67.3328 213.077 67.4902 213.011 67.4902C212.958 67.4902 212.873 67.4312 212.755 67.3131C212.637 67.195 212.571 67.1097 212.558 67.0572C212.558 67.0178 212.637 66.9129 212.794 66.7423C212.952 66.5717 213.122 66.3683 213.306 66.1321C213.49 65.8959 213.674 65.5547 213.857 65.1085C214.041 64.6624 214.139 64.19 214.153 63.6913C214.153 63.5339 214.146 63.4551 214.133 63.4551C214.12 63.4551 214.087 63.4748 214.034 63.5142C213.982 63.5535 213.897 63.5863 213.779 63.6126C213.66 63.6388 213.542 63.6585 213.424 63.6716C213.096 63.6716 212.821 63.5601 212.598 63.337C212.375 63.1139 212.256 62.8252 212.243 62.4709Z" fill="#F0F0F0"/>
<path d="M218.483 64.9707C218.483 63.8816 218.857 62.963 219.605 62.215C220.353 61.4671 221.212 61.0931 222.183 61.0931H222.459C223.574 61.0931 224.545 61.5064 225.372 62.3331L225.786 61.723C225.851 61.6311 225.917 61.5327 225.982 61.4277C226.048 61.3227 226.114 61.2374 226.179 61.1718L226.238 61.0931C226.251 61.0931 226.278 61.0931 226.317 61.0931C226.356 61.0931 226.396 61.0865 226.435 61.0734H226.514C226.553 61.0734 226.612 61.1128 226.691 61.1915V65.8565L226.573 65.9746H226.219C226.074 65.9746 225.989 65.9549 225.963 65.9155C225.936 65.8762 225.904 65.7449 225.864 65.5219C225.641 63.8685 224.978 62.7727 223.876 62.2347C223.391 62.0248 222.899 61.9198 222.4 61.9198C221.704 61.9198 221.14 62.156 220.707 62.6284C220.274 63.1008 220.058 63.6519 220.058 64.2818C220.058 64.728 220.169 65.1348 220.392 65.5022C220.615 65.8696 220.93 66.1649 221.337 66.3879C221.468 66.4404 222.033 66.5913 223.03 66.8407C224.027 67.09 224.578 67.2409 224.683 67.2934C225.431 67.5821 226.041 68.0742 226.514 68.7696C226.986 69.4651 227.229 70.2722 227.242 71.1907C227.242 72.2536 226.901 73.2116 226.219 74.0645C225.536 74.9175 224.572 75.3505 223.325 75.3636C222.59 75.3636 221.934 75.2521 221.357 75.029C220.779 74.8059 220.379 74.6025 220.156 74.4188L219.802 74.1432C219.749 74.2089 219.651 74.3401 219.506 74.5369C219.362 74.7337 219.231 74.9175 219.113 75.088C218.995 75.2586 218.936 75.3505 218.936 75.3636C218.909 75.3767 218.844 75.3833 218.739 75.3833H218.66C218.621 75.3833 218.562 75.3439 218.483 75.2652V72.9622C218.483 71.4007 218.49 70.6068 218.503 70.5805C218.529 70.5149 218.66 70.4821 218.896 70.4821H219.152C219.231 70.5608 219.27 70.6461 219.27 70.738C219.27 71.1579 219.336 71.5713 219.467 71.9781C219.598 72.3848 219.821 72.7851 220.136 73.1787C220.451 73.5724 220.884 73.8874 221.435 74.1236C221.987 74.3598 222.643 74.4779 223.404 74.4779C224.021 74.4779 224.552 74.2285 224.998 73.7299C225.444 73.2312 225.667 72.6211 225.667 71.8993C225.667 71.3351 225.523 70.8233 225.234 70.364C224.946 69.9047 224.565 69.5898 224.093 69.4192C223.358 69.2355 222.872 69.1108 222.636 69.0452C222.571 69.0321 222.393 68.9927 222.105 68.9271C221.816 68.8615 221.599 68.809 221.455 68.7696C221.311 68.7303 221.101 68.6581 220.825 68.5531C220.55 68.4481 220.333 68.33 220.176 68.1988C220.018 68.0676 219.828 67.9101 219.605 67.7264C219.382 67.5427 219.205 67.3131 219.073 67.0375C218.68 66.3945 218.483 65.7056 218.483 64.9707Z" fill="#F0F0F0"/>
<path d="M229.151 74.0449H229.427C229.939 74.0449 230.247 73.953 230.352 73.7693V73.6118C230.352 73.4937 230.352 73.3428 230.352 73.1591C230.352 72.9754 230.352 72.7589 230.352 72.5096C230.352 72.2602 230.352 71.9781 230.352 71.6632C230.352 71.3482 230.359 71.0202 230.372 70.679C230.385 70.3378 230.385 69.977 230.372 69.5964C230.359 69.2159 230.359 68.8419 230.372 68.4744C230.372 67.9889 230.372 67.4771 230.372 66.9391C230.372 66.4011 230.372 65.909 230.372 65.4629C230.372 65.0167 230.365 64.623 230.352 64.2819C230.339 63.9407 230.339 63.652 230.352 63.4158C230.365 63.1796 230.365 63.068 230.352 63.0812C230.313 62.8318 230.221 62.6678 230.077 62.5891C229.932 62.5103 229.637 62.4513 229.191 62.4119H228.836V61.9592C228.836 61.6574 228.85 61.5065 228.876 61.5065L229.073 61.4868C229.204 61.4737 229.394 61.4606 229.643 61.4474C229.893 61.4343 230.136 61.4212 230.372 61.4081C230.595 61.3949 230.838 61.3818 231.1 61.3687C231.363 61.3556 231.559 61.3359 231.691 61.3097C231.822 61.2834 231.894 61.2768 231.907 61.29H231.966V67.7265C232.753 66.7423 233.698 66.2502 234.801 66.2502C236.415 66.2502 237.3 66.9916 237.458 68.4744C237.471 68.5663 237.478 69.4783 237.478 71.2105V72.9032C237.478 73.4019 237.491 73.6971 237.517 73.789C237.543 73.8808 237.615 73.9465 237.733 73.9858C238.009 74.0252 238.33 74.0449 238.698 74.0449H239.013V74.9503H238.855L238.383 74.9306C238.081 74.9175 237.753 74.911 237.399 74.911C237.044 74.911 236.795 74.9044 236.651 74.8913C235.299 74.8913 234.564 74.911 234.446 74.9503H234.289V74.0449H234.604C235.404 74.0449 235.804 73.9399 235.804 73.7299C235.818 73.7037 235.824 72.7983 235.824 71.0136C235.811 69.2421 235.798 68.3039 235.785 68.1989C235.706 67.8315 235.575 67.5559 235.391 67.3722C235.207 67.1885 235.05 67.0769 234.919 67.0376C234.787 66.9982 234.617 66.9851 234.407 66.9982C233.816 66.9982 233.298 67.2213 232.852 67.6674C232.498 68.0217 232.275 68.3826 232.183 68.75C232.091 69.1174 232.038 69.662 232.025 70.3837V71.6435V72.8245C232.025 73.2182 232.032 73.4806 232.045 73.6118C232.058 73.7431 232.078 73.8284 232.104 73.8677C232.13 73.9071 232.189 73.9465 232.281 73.9858C232.557 74.0252 232.878 74.0449 233.246 74.0449H233.561V74.9503H233.403L232.95 74.9306C232.635 74.9175 232.301 74.911 231.946 74.911C231.592 74.911 231.343 74.9044 231.198 74.8913C229.847 74.8913 229.112 74.911 228.994 74.9503H228.836V74.0449H229.151Z" fill="#F0F0F0"/>
<path d="M239.84 70.6592C239.84 69.9375 239.971 69.2814 240.233 68.6909C240.496 68.1004 240.824 67.6214 241.217 67.254C241.611 66.8866 242.038 66.611 242.497 66.4273C242.956 66.2436 243.389 66.1451 243.796 66.132C244.491 66.132 245.088 66.2501 245.587 66.4863C246.086 66.7225 246.466 67.0506 246.729 67.4705C246.991 67.8904 247.175 68.3103 247.28 68.7302C247.385 69.1502 247.444 69.616 247.457 70.1278C247.457 70.2196 247.411 70.3115 247.319 70.4033H241.769V70.6986C241.769 72.6407 242.425 73.8217 243.737 74.2416C243.999 74.3204 244.288 74.3597 244.603 74.3597C245.154 74.3597 245.626 74.1498 246.02 73.7299C246.243 73.5068 246.42 73.2312 246.552 72.9031L246.748 72.4307C246.788 72.3914 246.893 72.3717 247.063 72.3717H247.122C247.346 72.3717 247.457 72.4373 247.457 72.5685C247.457 72.621 247.437 72.7063 247.398 72.8244C247.149 73.5461 246.735 74.117 246.158 74.5369C245.581 74.9568 244.931 75.1667 244.209 75.1667C242.963 75.1667 241.926 74.714 241.099 73.8086C240.273 72.9031 239.853 71.8534 239.84 70.6592ZM245.843 69.5373C245.699 67.8576 245.075 66.9653 243.973 66.8603H243.934C243.829 66.8603 243.724 66.8669 243.619 66.88C243.514 66.8931 243.35 66.9456 243.127 67.0375C242.904 67.1293 242.713 67.2671 242.556 67.4508C242.398 67.6345 242.247 67.9035 242.103 68.2578C241.959 68.6121 241.854 69.0452 241.788 69.557V69.6947H245.843V69.5373Z" fill="#F0F0F0"/>
<path d="M250.725 68.9468C250.725 68.9468 250.58 68.9468 250.291 68.9468C250.003 68.9468 249.76 68.8483 249.563 68.6515C249.366 68.4547 249.268 68.1988 249.268 67.8839C249.268 67.4246 249.491 67.0178 249.937 66.6635C250.383 66.3092 251.177 66.132 252.319 66.132C253.277 66.132 254.051 66.342 254.642 66.7619C255.232 67.1818 255.626 67.6805 255.823 68.2578C255.888 68.4416 255.921 68.6449 255.921 68.868C255.921 69.0911 255.928 69.8456 255.941 71.1316V72.5095C255.941 73.1393 255.973 73.5724 256.039 73.8086C256.105 74.0448 256.242 74.1629 256.452 74.1629C256.649 74.1629 256.78 74.0579 256.846 73.848C256.912 73.638 256.944 73.2903 256.944 72.8047V72.0961H257.732V72.8638C257.719 73.3887 257.699 73.697 257.673 73.7889C257.555 74.1826 257.325 74.4909 256.984 74.714C256.643 74.9371 256.282 75.0552 255.901 75.0683C255.521 75.0815 255.212 74.9634 254.976 74.714C254.74 74.4647 254.582 74.1891 254.504 73.8873V73.8086L254.464 73.8676C254.438 73.907 254.405 73.9464 254.366 73.9857C254.327 74.0251 254.274 74.0842 254.208 74.1629C254.143 74.2416 254.064 74.3138 253.972 74.3794C253.88 74.445 253.782 74.5238 253.677 74.6156C253.572 74.7075 253.454 74.7796 253.323 74.8321C253.192 74.8846 253.047 74.9371 252.89 74.9896C252.732 75.0421 252.562 75.0815 252.378 75.1077C252.194 75.1339 251.991 75.1536 251.768 75.1667C250.98 75.1667 250.272 74.9634 249.642 74.5566C249.012 74.1498 248.697 73.5789 248.697 72.8441C248.697 72.5685 248.743 72.3061 248.835 72.0568C248.927 71.8074 249.104 71.5384 249.366 71.2497C249.629 70.961 249.944 70.7183 250.311 70.5214C250.679 70.3246 251.19 70.1409 251.846 69.9703C252.503 69.7997 253.224 69.7013 254.012 69.6751H254.287V69.242C254.287 68.7959 254.248 68.4678 254.169 68.2578C253.88 67.3262 253.244 66.8603 252.26 66.8603C252.024 66.8603 251.801 66.8669 251.591 66.88C251.381 66.8931 251.217 66.9194 251.098 66.9587C250.98 66.9981 250.928 67.0178 250.941 67.0178C251.23 67.2146 251.374 67.5033 251.374 67.8839C251.374 68.2119 251.269 68.4678 251.059 68.6515L250.725 68.9468ZM250.508 72.8638C250.508 73.2706 250.665 73.6314 250.98 73.9464C251.295 74.2613 251.682 74.4253 252.142 74.4385C252.64 74.4385 253.08 74.2876 253.461 73.9857C253.841 73.6839 254.097 73.2903 254.228 72.8047C254.254 72.7129 254.274 72.2798 254.287 71.5056C254.287 70.7445 254.281 70.364 254.268 70.364C254.163 70.364 254.025 70.3705 253.854 70.3837C253.684 70.3968 253.388 70.4558 252.968 70.5608C252.549 70.6658 252.168 70.797 251.827 70.9545C251.486 71.1119 251.184 71.3547 250.921 71.6828C250.659 72.0108 250.521 72.4045 250.508 72.8638Z" fill="#F0F0F0"/>
<path d="M258.578 74.0449H258.854C259.366 74.0449 259.674 73.953 259.779 73.7693V73.6118C259.779 73.4937 259.779 73.3428 259.779 73.1591C259.779 72.9754 259.785 72.772 259.799 72.5489C259.812 72.3259 259.812 72.07 259.799 71.7813C259.785 71.4926 259.785 71.217 259.799 70.9546C259.799 70.5478 259.799 70.1147 259.799 69.6555C259.799 69.1962 259.799 68.8091 259.799 68.4941L259.779 68.0414C259.74 67.7921 259.648 67.6281 259.503 67.5493C259.359 67.4706 259.064 67.4115 258.618 67.3722H258.263V66.9195C258.263 66.6176 258.276 66.4667 258.303 66.4667L258.499 66.447C258.631 66.4339 258.814 66.4208 259.051 66.4077C259.287 66.3946 259.523 66.3814 259.759 66.3683C259.969 66.3552 260.199 66.3421 260.448 66.3289C260.697 66.3158 260.888 66.2961 261.019 66.2699C261.15 66.2437 261.222 66.2371 261.235 66.2502H261.295V67.6084C261.806 66.7161 262.443 66.2699 263.204 66.2699H263.322C263.912 66.2699 264.345 66.4142 264.621 66.7029C264.897 66.9916 265.034 67.2934 265.034 67.6084C265.034 67.8839 264.949 68.1201 264.779 68.317C264.608 68.5138 264.359 68.6122 264.031 68.6122C263.702 68.6122 263.46 68.5073 263.302 68.2973C263.145 68.0873 263.06 67.8643 263.046 67.6281C263.046 67.51 263.06 67.405 263.086 67.3131C263.112 67.2213 263.145 67.1425 263.184 67.0769C263.224 67.0113 263.243 66.9785 263.243 66.9785C263.217 66.9523 263.066 66.9785 262.79 67.0572C262.581 67.1622 262.423 67.2606 262.318 67.3525C261.701 67.943 261.393 69.1174 261.393 70.8758V71.9191C261.393 72.0896 261.393 72.2668 261.393 72.4505C261.393 72.6342 261.393 72.8048 261.393 72.9623C261.393 73.1198 261.4 73.251 261.413 73.356C261.426 73.4609 261.426 73.5594 261.413 73.6512V73.7496C261.426 73.7759 261.445 73.8021 261.472 73.8284C261.498 73.8546 261.531 73.8743 261.57 73.8874C261.609 73.9005 261.642 73.9202 261.669 73.9465C261.695 73.9727 261.741 73.9858 261.806 73.9858C261.872 73.9858 261.918 73.9924 261.944 74.0055C261.97 74.0186 262.029 74.0252 262.121 74.0252C262.213 74.0252 262.272 74.0252 262.298 74.0252C262.325 74.0252 262.39 74.0318 262.495 74.0449C262.6 74.058 262.666 74.058 262.692 74.0449H263.302V74.9503H263.125C262.889 74.911 262.056 74.8913 260.625 74.8913C259.274 74.8913 258.539 74.911 258.421 74.9503H258.263V74.0449H258.578Z" fill="#F0F0F0"/>
<path d="M266.255 62.4709C266.255 62.1429 266.36 61.8673 266.57 61.6442C266.78 61.4212 267.062 61.3031 267.416 61.2899C267.784 61.2899 268.118 61.4605 268.42 61.8017C268.722 62.1429 268.879 62.7268 268.892 63.5535C268.892 64.2621 268.748 64.9379 268.459 65.5809C268.171 66.2239 267.875 66.7029 267.574 67.0178C267.272 67.3328 267.088 67.4902 267.022 67.4902C266.97 67.4902 266.885 67.4312 266.767 67.3131C266.648 67.195 266.583 67.1097 266.57 67.0572C266.57 67.0178 266.648 66.9129 266.806 66.7423C266.963 66.5717 267.134 66.3683 267.318 66.1321C267.501 65.8959 267.685 65.5547 267.869 65.1085C268.053 64.6624 268.151 64.19 268.164 63.6913C268.164 63.5339 268.158 63.4551 268.144 63.4551C268.131 63.4551 268.098 63.4748 268.046 63.5142C267.994 63.5535 267.908 63.5863 267.79 63.6126C267.672 63.6388 267.554 63.6585 267.436 63.6716C267.108 63.6716 266.832 63.5601 266.609 63.337C266.386 63.1139 266.268 62.8252 266.255 62.4709ZM270.27 62.4709C270.27 62.1429 270.375 61.8673 270.585 61.6442C270.795 61.4212 271.077 61.3031 271.432 61.2899C271.799 61.2899 272.134 61.4605 272.435 61.8017C272.737 62.1429 272.895 62.7268 272.908 63.5535C272.908 64.2621 272.763 64.9379 272.475 65.5809C272.186 66.2239 271.891 66.7029 271.589 67.0178C271.287 67.3328 271.103 67.4902 271.038 67.4902C270.985 67.4902 270.9 67.4312 270.782 67.3131C270.664 67.195 270.598 67.1097 270.585 67.0572C270.585 67.0178 270.664 66.9129 270.821 66.7423C270.979 66.5717 271.149 66.3683 271.333 66.1321C271.517 65.8959 271.701 65.5547 271.884 65.1085C272.068 64.6624 272.166 64.19 272.18 63.6913C272.18 63.5339 272.173 63.4551 272.16 63.4551C272.147 63.4551 272.114 63.4748 272.061 63.5142C272.009 63.5535 271.924 63.5863 271.806 63.6126C271.687 63.6388 271.569 63.6585 271.451 63.6716C271.123 63.6716 270.848 63.5601 270.625 63.337C270.401 63.1139 270.283 62.8252 270.27 62.4709Z" fill="#F0F0F0"/>
</g>
</g>
<defs>
<clipPath id="clip0_1598_25828">
<rect width="480" height="270" fill="white" transform="translate(0 0.75)"/>
</clipPath>
<clipPath id="clip1_1598_25828">
<rect width="121.696" height="47.241" fill="white" transform="translate(183.848 112.066)"/>
</clipPath>
<clipPath id="clip2_1598_25828">
<rect width="67.8687" height="14.3115" fill="white" transform="translate(207.559 61.0726)"/>
</clipPath>
</defs>
</svg>
