<svg width="1080" height="361" viewBox="0 0 1080 361" fill="none" xmlns="http://www.w3.org/2000/svg">
<g clip-path="url(#clip0_1594_21153)">
<path d="M800 0.5H160V360.5H800V0.5Z" fill="black"/>
<g clip-path="url(#clip1_1594_21153)">
<path d="M160 20.5H800" stroke="#404040" stroke-width="1.5"/>
<path d="M160 60.5H800" stroke="#404040" stroke-width="1.5"/>
<path d="M160 100.5H800" stroke="#404040" stroke-width="1.5"/>
<path d="M160 140.5H800" stroke="#404040" stroke-width="1.5"/>
<path d="M160 180.5H800" stroke="#404040" stroke-width="1.5"/>
<path d="M160 220.5H800" stroke="#404040" stroke-width="1.5"/>
<path d="M160 260.5H800" stroke="#404040" stroke-width="1.5"/>
<path d="M160 300.5H800" stroke="#404040" stroke-width="1.5"/>
<path d="M160 340.5H800" stroke="#404040" stroke-width="1.5"/>
<path d="M320 0.5V360.5" stroke="#404040" stroke-width="1.5"/>
<path d="M360 0.5V360.5" stroke="#404040" stroke-width="1.5"/>
<path d="M400 0.5V360.5" stroke="#404040" stroke-width="1.5"/>
<path d="M440 0.5V360.5" stroke="#404040" stroke-width="1.5"/>
<path d="M480 0.5V360.5" stroke="#404040" stroke-width="1.5"/>
<path d="M520 0.5V360.5" stroke="#404040" stroke-width="1.5"/>
<path d="M560 0.5V360.5" stroke="#404040" stroke-width="1.5"/>
<path d="M600 0.5V360.5" stroke="#404040" stroke-width="1.5"/>
<path d="M640 0.5V360.5" stroke="#404040" stroke-width="1.5"/>
</g>
<path d="M160 180.5H800" stroke="#808080" stroke-width="1.5"/>
<path d="M480 0.5V360.5" stroke="#808080" stroke-width="1.5"/>
<g clip-path="url(#clip2_1594_21153)">
<g opacity="0.8">
<path d="M-1056 4092.5L2016 -2051.5" stroke="#6AB0F3" stroke-width="1.5"/>
<path d="M-1056 4052.5L2016 -2091.5" stroke="#6AB0F3" stroke-width="1.5"/>
<path d="M-1056 4012.5L2016 -2131.5" stroke="#6AB0F3" stroke-width="1.5"/>
<path d="M-1056 3972.5L2016 -2171.5" stroke="#6AB0F3" stroke-width="1.5"/>
<path d="M-1056 3932.5L2016 -2211.5" stroke="#6AB0F3" stroke-width="1.5"/>
<path d="M-1056 3892.5L2016 -2251.5" stroke="#6AB0F3" stroke-width="1.5"/>
<path d="M-1056 3852.5L2016 -2291.5" stroke="#6AB0F3" stroke-width="1.5"/>
<path d="M-1056 3812.5L2016 -2331.5" stroke="#6AB0F3" stroke-width="1.5"/>
<path d="M-1056 3772.5L2016 -2371.5" stroke="#6AB0F3" stroke-width="1.5"/>
<path d="M-1056 3732.5L2016 -2411.5" stroke="#6AB0F3" stroke-width="1.5"/>
<path d="M-1056 3692.5L2016 -2451.5" stroke="#6AB0F3" stroke-width="1.5"/>
<path d="M-1056 3652.5L2016 -2491.5" stroke="#6AB0F3" stroke-width="1.5"/>
<path d="M-1056 3612.5L2016 -2531.5" stroke="#6AB0F3" stroke-width="1.5"/>
<path d="M-1056 3572.5L2016 -2571.5" stroke="#6AB0F3" stroke-width="1.5"/>
<path d="M-1056 3532.5L2016 -2611.5" stroke="#6AB0F3" stroke-width="1.5"/>
<path d="M-1056 3492.5L2016 -2651.5" stroke="#6AB0F3" stroke-width="1.5"/>
<path d="M-1056 3452.5L2016 -2691.5" stroke="#6AB0F3" stroke-width="1.5"/>
<path d="M-1056 3412.5L2016 -2731.5" stroke="#6AB0F3" stroke-width="1.5"/>
<path d="M-1056 3372.5L2016 -2771.5" stroke="#6AB0F3" stroke-width="1.5"/>
<path d="M-1056 3332.5L2016 -2811.5" stroke="#6AB0F3" stroke-width="1.5"/>
<path d="M-1056 3292.5L2016 -2851.5" stroke="#6AB0F3" stroke-width="1.5"/>
<path d="M-1056 3252.5L2016 -2891.5" stroke="#6AB0F3" stroke-width="1.5"/>
<path d="M-1056 3212.5L2016 -2931.5" stroke="#6AB0F3" stroke-width="1.5"/>
<path d="M-1056 3172.5L2016 -2971.5" stroke="#6AB0F3" stroke-width="1.5"/>
<path d="M-1056 3132.5L2016 -3011.5" stroke="#6AB0F3" stroke-width="1.5"/>
<path d="M-1056 3092.5L2016 -3051.5" stroke="#6AB0F3" stroke-width="1.5"/>
<path d="M-1056 3052.5L2016 -3091.5" stroke="#6AB0F3" stroke-width="1.5"/>
<path d="M-1056 3012.5L2016 -3131.5" stroke="#6AB0F3" stroke-width="1.5"/>
<path d="M-1056 2972.5L2016 -3171.5" stroke="#6AB0F3" stroke-width="1.5"/>
<path d="M-1056 2932.5L2016 -3211.5" stroke="#6AB0F3" stroke-width="1.5"/>
<path d="M-1056 2892.5L2016 -3251.5" stroke="#6AB0F3" stroke-width="1.5"/>
<path d="M-1056 2852.5L2016 -3291.5" stroke="#6AB0F3" stroke-width="1.5"/>
<path d="M-1056 2812.5L2016 -3331.5" stroke="#6AB0F3" stroke-width="1.5"/>
<path d="M-1056 2772.5L2016 -3371.5" stroke="#6AB0F3" stroke-width="1.5"/>
<path d="M-1056 2732.5L2016 -3411.5" stroke="#6AB0F3" stroke-width="1.5"/>
<path d="M-1056 2692.5L2016 -3451.5" stroke="#6AB0F3" stroke-width="1.5"/>
<path d="M-1056 2652.5L2016 -3491.5" stroke="#6AB0F3" stroke-width="1.5"/>
<path d="M-1056 2612.5L2016 -3531.5" stroke="#6AB0F3" stroke-width="1.5"/>
<path d="M-1056 2572.5L2016 -3571.5" stroke="#6AB0F3" stroke-width="1.5"/>
<path d="M-1056 2532.5L2016 -3611.5" stroke="#6AB0F3" stroke-width="1.5"/>
<path d="M-1056 2492.5L2016 -3651.5" stroke="#6AB0F3" stroke-width="1.5"/>
<path d="M-1056 2452.5L2016 -3691.5" stroke="#6AB0F3" stroke-width="1.5"/>
<path d="M-1056 2412.5L2016 -3731.5" stroke="#6AB0F3" stroke-width="1.5"/>
</g>
<g opacity="0.8">
<path d="M320 1364.5V-363.5" stroke="#6AB0F3" stroke-width="1.5"/>
<path d="M360 1284.5V-443.501" stroke="#6AB0F3" stroke-width="1.5"/>
<path d="M400 1204.5V-523.5" stroke="#6AB0F3" stroke-width="1.5"/>
<path d="M440 1124.5V-603.501" stroke="#6AB0F3" stroke-width="1.5"/>
<path d="M480 1044.5V-683.5" stroke="#6AB0F3" stroke-width="1.5"/>
<path d="M520 964.499V-763.501" stroke="#6AB0F3" stroke-width="1.5"/>
<path d="M560 884.5V-843.5" stroke="#6AB0F3" stroke-width="1.5"/>
<path d="M600 804.499V-923.501" stroke="#6AB0F3" stroke-width="1.5"/>
<path d="M640 724.5V-1003.5" stroke="#6AB0F3" stroke-width="1.5"/>
</g>
<path d="M2016 -2891.5L-1056 3252.5" stroke="#BEDFFF" stroke-width="1.5"/>
<path d="M480 1044.5V-683.5" stroke="#BEDFFF" stroke-width="1.5"/>
</g>
<path d="M507.254 110.897L520 100.5L519.329 116.935L514.633 111.233L507.254 110.897Z" fill="#92D192"/>
<path d="M480 180.5L518.211 104.078" stroke="#92D192" stroke-width="1.5"/>
<path d="M473.25 155.5L480 140.5L486.75 155.5L480 152.5L473.25 155.5Z" fill="#F2777A"/>
<path d="M480 180.5V144.5" stroke="#F2777A" stroke-width="1.5"/>
<path d="M486.912 108.632H473.825V132.676H486.912V108.632Z" fill="black"/>
<g clip-path="url(#clip3_1594_21153)">
<path d="M478.814 119.177C478.814 119.177 478.814 119.159 478.814 119.122C478.814 119.086 478.85 118.978 478.922 118.797C478.995 118.616 479.115 118.387 479.284 118.109C479.453 117.832 479.646 117.554 479.863 117.277C480.08 116.999 480.364 116.776 480.714 116.607C481.064 116.438 481.426 116.342 481.8 116.318C482.198 116.342 482.56 116.474 482.885 116.716C483.211 116.957 483.374 117.379 483.374 117.982V118.308L482.487 121.891C482.355 122.398 482.204 122.983 482.035 123.647C481.866 124.31 481.745 124.805 481.673 125.13C481.601 125.456 481.552 125.625 481.528 125.637C481.323 126.24 480.943 126.783 480.388 127.266C479.833 127.748 479.182 127.996 478.434 128.008C477.879 128.008 477.462 127.869 477.185 127.592C476.98 127.387 476.877 127.139 476.877 126.85C476.877 126.512 476.986 126.246 477.203 126.053C477.42 125.86 477.668 125.758 477.945 125.746C478.198 125.746 478.379 125.818 478.488 125.963C478.597 126.108 478.657 126.246 478.669 126.379C478.669 126.765 478.5 127.079 478.162 127.32L478.253 127.338H478.524H478.542C479.17 127.338 479.682 126.777 480.08 125.655C480.117 125.547 480.436 124.292 481.04 121.891C481.643 119.49 481.962 118.206 481.999 118.037C482.011 117.964 482.017 117.826 482.017 117.62C482.017 117.476 482.011 117.367 481.999 117.295C481.987 117.222 481.95 117.156 481.89 117.096C481.83 117.035 481.739 116.999 481.619 116.987C481.305 116.987 480.973 117.15 480.623 117.476C480.406 117.693 480.225 117.94 480.08 118.218C479.936 118.495 479.821 118.73 479.737 118.923C479.652 119.116 479.598 119.225 479.574 119.249C479.55 119.273 479.435 119.285 479.23 119.285H478.922C478.85 119.213 478.814 119.159 478.814 119.122V119.177Z" fill="#F2777A"/>
<path d="M477.963 113.893L480.442 111.468L480.587 111.612C482.155 113.108 482.94 113.868 482.94 113.893L482.469 114.417C482.445 114.405 482.095 114.104 481.42 113.513L480.46 112.68L479.465 113.531C479.308 113.663 479.151 113.802 478.995 113.947C478.838 114.092 478.711 114.206 478.615 114.291L478.47 114.399C478.446 114.423 478.355 114.339 478.198 114.146L477.963 113.893Z" fill="#F2777A"/>
</g>
<path d="M559.774 40.9844H524.057V94.3537H559.774V40.9844Z" fill="black"/>
<g clip-path="url(#clip4_1594_21153)">
<path d="M526.651 87.4055V43.9836H531.52V45.1058H527.773V86.2833H531.52V87.4055H526.651Z" fill="#92D192"/>
<path d="M539.61 47.0878L539.375 47.1783C539.206 47.2386 538.965 47.2989 538.651 47.3593C538.337 47.4196 537.987 47.4618 537.601 47.486H537.257V46.6534H537.601C538.168 46.6292 538.693 46.5387 539.176 46.3819C539.659 46.225 539.996 46.0802 540.189 45.9475C540.383 45.8147 540.551 45.682 540.696 45.5493C540.72 45.5131 540.793 45.495 540.913 45.495C541.022 45.495 541.125 45.5312 541.221 45.6036V51.0155L541.239 56.4455C541.324 56.5299 541.396 56.5842 541.456 56.6084C541.517 56.6325 541.662 56.6566 541.891 56.6808C542.12 56.7049 542.494 56.717 543.013 56.717H543.484V57.5496H543.285C543.031 57.5134 542.072 57.4953 540.407 57.4953C538.766 57.4953 537.818 57.5134 537.565 57.5496H537.348V56.717H537.818C538.084 56.717 538.313 56.717 538.506 56.717C538.699 56.717 538.85 56.7109 538.959 56.6989C539.067 56.6868 539.164 56.6687 539.248 56.6446C539.333 56.6204 539.381 56.6084 539.393 56.6084C539.405 56.6084 539.441 56.5782 539.502 56.5179C539.562 56.4575 539.598 56.4334 539.61 56.4455V47.0878Z" fill="#92D192"/>
<path d="M537.728 75.1246C537.402 75.1246 537.143 75.016 536.95 74.7988C536.757 74.5816 536.66 74.3162 536.66 74.0024C536.66 73.1457 536.98 72.4036 537.619 71.7761C538.259 71.1487 539.055 70.8349 540.008 70.8349C541.107 70.8349 542.024 71.1728 542.76 71.8485C543.496 72.5243 543.87 73.3991 543.882 74.473C543.882 74.9919 543.761 75.4866 543.52 75.9572C543.279 76.4278 542.989 76.8381 542.651 77.188C542.313 77.538 541.831 77.9844 541.203 78.5274C540.769 78.9015 540.165 79.4566 539.393 80.1926L538.325 81.2062L539.701 81.2243C541.595 81.2243 542.603 81.1942 542.723 81.1338C542.808 81.1097 542.953 80.5727 543.158 79.5229V79.4686H543.882V79.5229C543.87 79.5591 543.791 80.1082 543.647 81.17C543.502 82.2319 543.411 82.787 543.375 82.8352V82.8895H536.66V82.5456V82.3284C536.66 82.244 536.696 82.1535 536.769 82.0569C536.841 81.9604 537.022 81.7492 537.312 81.4234C537.662 81.0373 537.963 80.6994 538.217 80.4098C538.325 80.2892 538.53 80.0659 538.832 79.7401C539.134 79.4143 539.339 79.1911 539.447 79.0704C539.556 78.9498 539.731 78.7507 539.972 78.4731C540.214 78.1956 540.383 77.9905 540.479 77.8577C540.576 77.725 540.714 77.544 540.895 77.3147C541.076 77.0855 541.203 76.8924 541.275 76.7355C541.348 76.5787 541.438 76.4037 541.547 76.2106C541.656 76.0176 541.734 75.8245 541.782 75.6314C541.831 75.4384 541.873 75.2574 541.909 75.0884C541.945 74.9195 541.963 74.7204 541.963 74.4911C541.963 73.7309 541.758 73.0733 541.348 72.5182C540.938 71.9632 540.352 71.6856 539.592 71.6856C539.194 71.6856 538.844 71.7882 538.542 71.9933C538.241 72.1985 538.03 72.3976 537.909 72.5906C537.788 72.7837 537.728 72.8983 537.728 72.9345C537.728 72.9466 537.758 72.9526 537.818 72.9526C538.036 72.9526 538.259 73.0371 538.488 73.206C538.717 73.375 538.832 73.6525 538.832 74.0386C538.832 74.3403 538.735 74.5937 538.542 74.7988C538.349 75.004 538.078 75.1126 537.728 75.1246Z" fill="#92D192"/>
<path d="M549.022 45.1058V43.9836H553.891V87.4055H549.022V86.2833H552.769V45.1058H549.022Z" fill="#92D192"/>
</g>
</g>
<g clip-path="url(#clip5_1594_21153)">
<path d="M480 0.5H-160V360.5H480V0.5Z" fill="black"/>
<g clip-path="url(#clip6_1594_21153)">
<path d="M-160 20.5H480" stroke="#404040" stroke-width="1.5"/>
<path d="M-160 60.5H480" stroke="#404040" stroke-width="1.5"/>
<path d="M-160 100.5H480" stroke="#404040" stroke-width="1.5"/>
<path d="M-160 140.5H480" stroke="#404040" stroke-width="1.5"/>
<path d="M-160 180.5H480" stroke="#404040" stroke-width="1.5"/>
<path d="M-160 220.5H480" stroke="#404040" stroke-width="1.5"/>
<path d="M-160 260.5H480" stroke="#404040" stroke-width="1.5"/>
<path d="M-160 300.5H480" stroke="#404040" stroke-width="1.5"/>
<path d="M-160 340.5H480" stroke="#404040" stroke-width="1.5"/>
<path d="M0 0.5V360.5" stroke="#404040" stroke-width="1.5"/>
<path d="M40 0.5V360.5" stroke="#404040" stroke-width="1.5"/>
<path d="M80 0.5V360.5" stroke="#404040" stroke-width="1.5"/>
<path d="M120 0.5V360.5" stroke="#404040" stroke-width="1.5"/>
<path d="M160 0.5V360.5" stroke="#404040" stroke-width="1.5"/>
<path d="M200 0.5V360.5" stroke="#404040" stroke-width="1.5"/>
<path d="M240 0.5V360.5" stroke="#404040" stroke-width="1.5"/>
<path d="M280 0.5V360.5" stroke="#404040" stroke-width="1.5"/>
<path d="M320 0.5V360.5" stroke="#404040" stroke-width="1.5"/>
</g>
<path d="M-160 180.5H480" stroke="#808080" stroke-width="1.5"/>
<path d="M160 0.5V360.5" stroke="#808080" stroke-width="1.5"/>
<g opacity="0.8">
<path d="M-1376 340.5H1696" stroke="#6AB0F3" stroke-width="1.5"/>
<path d="M-1376 300.5H1696" stroke="#6AB0F3" stroke-width="1.5"/>
<path d="M-1376 260.5H1696" stroke="#6AB0F3" stroke-width="1.5"/>
<path d="M-1376 220.5H1696" stroke="#6AB0F3" stroke-width="1.5"/>
<path d="M-1376 180.5H1696" stroke="#6AB0F3" stroke-width="1.5"/>
<path d="M-1376 140.5H1696" stroke="#6AB0F3" stroke-width="1.5"/>
<path d="M-1376 100.5H1696" stroke="#6AB0F3" stroke-width="1.5"/>
<path d="M-1376 60.5H1696" stroke="#6AB0F3" stroke-width="1.5"/>
<path d="M-1376 20.5H1696" stroke="#6AB0F3" stroke-width="1.5"/>
</g>
<g opacity="0.8">
<path d="M0 1044.5V-683.5" stroke="#6AB0F3" stroke-width="1.5"/>
<path d="M40 1044.5V-683.5" stroke="#6AB0F3" stroke-width="1.5"/>
<path d="M80 1044.5V-683.5" stroke="#6AB0F3" stroke-width="1.5"/>
<path d="M120 1044.5V-683.5" stroke="#6AB0F3" stroke-width="1.5"/>
<path d="M160 1044.5V-683.5" stroke="#6AB0F3" stroke-width="1.5"/>
<path d="M200 1044.5V-683.5" stroke="#6AB0F3" stroke-width="1.5"/>
<path d="M240 1044.5V-683.5" stroke="#6AB0F3" stroke-width="1.5"/>
<path d="M280 1044.5V-683.5" stroke="#6AB0F3" stroke-width="1.5"/>
<path d="M320 1044.5V-683.5" stroke="#6AB0F3" stroke-width="1.5"/>
</g>
<path d="M1696 180.5H-1376" stroke="#BEDFFF" stroke-width="1.5"/>
<path d="M160 1044.5V-683.5" stroke="#BEDFFF" stroke-width="1.5"/>
<path d="M185 173.75L200 180.5L185 187.25L188 180.5L185 173.75Z" fill="#92D192"/>
<path d="M160 180.5H196" stroke="#92D192" stroke-width="1.5"/>
<path d="M153.25 155.5L160 140.5L166.75 155.5L160 152.5L153.25 155.5Z" fill="#F2777A"/>
<path d="M160 180.5V144.5" stroke="#F2777A" stroke-width="1.5"/>
<path d="M218.754 170.38H206.833V190.573H218.754V170.38Z" fill="black"/>
<g clip-path="url(#clip7_1594_21153)">
<path d="M210.396 180.851C210.396 180.791 210.438 180.634 210.523 180.381C210.607 180.128 210.734 179.832 210.903 179.494C211.072 179.157 211.307 178.849 211.609 178.572C211.91 178.294 212.236 178.125 212.586 178.065H212.911C213.321 178.065 213.659 178.198 213.925 178.463C214.19 178.728 214.329 179.102 214.341 179.585C214.329 179.814 214.305 179.977 214.268 180.073C214.232 180.17 213.967 180.906 213.472 182.281C212.845 183.921 212.531 184.898 212.531 185.212C212.531 185.453 212.628 185.574 212.821 185.574C213.05 185.574 213.279 185.471 213.508 185.266C213.822 184.929 214.093 184.368 214.323 183.584C214.359 183.439 214.389 183.354 214.413 183.33C214.437 183.306 214.522 183.288 214.666 183.276H214.775C214.896 183.276 214.974 183.276 215.01 183.276C215.046 183.276 215.089 183.294 215.137 183.33C215.185 183.366 215.203 183.409 215.191 183.457C215.191 183.578 215.131 183.807 215.01 184.145C214.89 184.482 214.66 184.868 214.323 185.303C213.985 185.737 213.599 186.032 213.165 186.189C213.068 186.213 212.923 186.225 212.73 186.225C212.2 186.225 211.82 186.075 211.59 185.773C211.361 185.471 211.247 185.134 211.247 184.76C211.247 184.434 211.542 183.493 212.133 181.937C212.724 180.381 213.026 179.434 213.038 179.096C213.038 178.952 213.02 178.855 212.984 178.807C212.947 178.759 212.857 178.728 212.712 178.716C212.374 178.74 212.091 178.927 211.862 179.277C211.633 179.627 211.464 180.001 211.355 180.399C211.247 180.797 211.174 180.996 211.138 180.996C211.126 181.008 211.011 181.014 210.794 181.014H210.505C210.432 180.942 210.396 180.888 210.396 180.851Z" fill="#92D192"/>
<path d="M209.767 175.64L212.245 173.216L212.39 173.36C213.958 174.856 214.742 175.616 214.742 175.64L214.272 176.165C214.248 176.153 213.898 175.851 213.223 175.26L212.264 174.428L211.268 175.278C211.112 175.411 210.955 175.55 210.798 175.695C210.641 175.839 210.514 175.954 210.418 176.038L210.273 176.147C210.249 176.171 210.159 176.087 210.002 175.894L209.767 175.64Z" fill="#92D192"/>
</g>
<path d="M165.912 110.454H152.825V134.497H165.912V110.454Z" fill="black"/>
<g clip-path="url(#clip8_1594_21153)">
<path d="M157.814 120.998C157.814 120.998 157.814 120.98 157.814 120.944C157.814 120.908 157.85 120.799 157.922 120.618C157.995 120.437 158.115 120.208 158.284 119.93C158.453 119.653 158.646 119.375 158.863 119.098C159.08 118.82 159.364 118.597 159.714 118.428C160.064 118.259 160.426 118.163 160.8 118.139C161.198 118.163 161.56 118.296 161.885 118.537C162.211 118.778 162.374 119.2 162.374 119.804V120.129L161.487 123.712C161.355 124.219 161.204 124.804 161.035 125.468C160.866 126.131 160.745 126.626 160.673 126.952C160.601 127.277 160.552 127.446 160.528 127.458C160.323 128.062 159.943 128.605 159.388 129.087C158.833 129.57 158.182 129.817 157.434 129.829C156.879 129.829 156.462 129.69 156.185 129.413C155.98 129.208 155.877 128.96 155.877 128.671C155.877 128.333 155.986 128.068 156.203 127.875C156.42 127.682 156.668 127.579 156.945 127.567C157.198 127.567 157.379 127.639 157.488 127.784C157.597 127.929 157.657 128.068 157.669 128.2C157.669 128.586 157.5 128.9 157.162 129.141L157.253 129.159H157.524H157.542C158.17 129.159 158.682 128.598 159.08 127.477C159.117 127.368 159.436 126.113 160.04 123.712C160.643 121.312 160.962 120.027 160.999 119.858C161.011 119.786 161.017 119.647 161.017 119.442C161.017 119.297 161.011 119.188 160.999 119.116C160.987 119.044 160.95 118.977 160.89 118.917C160.83 118.857 160.739 118.82 160.619 118.808C160.305 118.808 159.973 118.971 159.623 119.297C159.406 119.514 159.225 119.761 159.08 120.039C158.936 120.316 158.821 120.552 158.737 120.745C158.652 120.938 158.598 121.046 158.574 121.07C158.55 121.095 158.435 121.107 158.23 121.107H157.922C157.85 121.034 157.814 120.98 157.814 120.944V120.998Z" fill="#F2777A"/>
<path d="M156.963 115.714L159.442 113.289L159.587 113.434C161.155 114.93 161.94 115.69 161.94 115.714L161.469 116.239C161.445 116.227 161.095 115.925 160.42 115.334L159.46 114.501L158.465 115.352C158.308 115.485 158.151 115.623 157.995 115.768C157.838 115.913 157.711 116.028 157.615 116.112L157.47 116.221C157.446 116.245 157.355 116.16 157.198 115.967L156.963 115.714Z" fill="#F2777A"/>
</g>
</g>
<g clip-path="url(#clip9_1594_21153)">
<path d="M1200 0.5H560V360.5H1200V0.5Z" fill="black"/>
<g clip-path="url(#clip10_1594_21153)">
<path d="M560 20.5H1200" stroke="#404040" stroke-width="1.5"/>
<path d="M560 60.5H1200" stroke="#404040" stroke-width="1.5"/>
<path d="M560 100.5H1200" stroke="#404040" stroke-width="1.5"/>
<path d="M560 140.5H1200" stroke="#404040" stroke-width="1.5"/>
<path d="M560 180.5H1200" stroke="#404040" stroke-width="1.5"/>
<path d="M560 220.5H1200" stroke="#404040" stroke-width="1.5"/>
<path d="M560 260.5H1200" stroke="#404040" stroke-width="1.5"/>
<path d="M560 300.5H1200" stroke="#404040" stroke-width="1.5"/>
<path d="M560 340.5H1200" stroke="#404040" stroke-width="1.5"/>
<path d="M640 0.5V360.5" stroke="#404040" stroke-width="1.5"/>
<path d="M680 0.5V360.5" stroke="#404040" stroke-width="1.5"/>
<path d="M720 0.5V360.5" stroke="#404040" stroke-width="1.5"/>
<path d="M760 0.5V360.5" stroke="#404040" stroke-width="1.5"/>
<path d="M800 0.5V360.5" stroke="#404040" stroke-width="1.5"/>
<path d="M840 0.5V360.5" stroke="#404040" stroke-width="1.5"/>
<path d="M880 0.5V360.5" stroke="#404040" stroke-width="1.5"/>
<path d="M920 0.5V360.5" stroke="#404040" stroke-width="1.5"/>
<path d="M960 0.5V360.5" stroke="#404040" stroke-width="1.5"/>
<path d="M1000 0.5V360.5" stroke="#404040" stroke-width="1.5"/>
<path d="M1040 0.5V360.5" stroke="#404040" stroke-width="1.5"/>
<path d="M1080 0.5V360.5" stroke="#404040" stroke-width="1.5"/>
</g>
<path d="M560 180.5H1200" stroke="#808080" stroke-width="1.5"/>
<path d="M880 0.5V360.5" stroke="#808080" stroke-width="1.5"/>
<g clip-path="url(#clip11_1594_21153)">
<g opacity="0.8">
<path d="M-2336 3812.5L736.001 -2331.5" stroke="#6AB0F3" stroke-width="1.5"/>
<path d="M-2216 3772.5L856.001 -2371.5" stroke="#6AB0F3" stroke-width="1.5"/>
<path d="M-2096 3732.5L976.001 -2411.5" stroke="#6AB0F3" stroke-width="1.5"/>
<path d="M-1976 3692.5L1096 -2451.5" stroke="#6AB0F3" stroke-width="1.5"/>
<path d="M-1856 3652.5L1216 -2491.5" stroke="#6AB0F3" stroke-width="1.5"/>
<path d="M-1736 3612.5L1336 -2531.5" stroke="#6AB0F3" stroke-width="1.5"/>
<path d="M-1616 3572.5L1456 -2571.5" stroke="#6AB0F3" stroke-width="1.5"/>
<path d="M-1496 3532.5L1576 -2611.5" stroke="#6AB0F3" stroke-width="1.5"/>
<path d="M-1376 3492.5L1696 -2651.5" stroke="#6AB0F3" stroke-width="1.5"/>
<path d="M-1256 3452.5L1816 -2691.5" stroke="#6AB0F3" stroke-width="1.5"/>
<path d="M-1136 3412.5L1936 -2731.5" stroke="#6AB0F3" stroke-width="1.5"/>
<path d="M-1016 3372.5L2056 -2771.5" stroke="#6AB0F3" stroke-width="1.5"/>
<path d="M-895.999 3332.5L2176 -2811.5" stroke="#6AB0F3" stroke-width="1.5"/>
<path d="M-775.999 3292.5L2296 -2851.5" stroke="#6AB0F3" stroke-width="1.5"/>
<path d="M-655.999 3252.5L2416 -2891.5" stroke="#6AB0F3" stroke-width="1.5"/>
<path d="M-535.999 3212.5L2536 -2931.5" stroke="#6AB0F3" stroke-width="1.5"/>
<path d="M-415.999 3172.5L2656 -2971.5" stroke="#6AB0F3" stroke-width="1.5"/>
<path d="M-295.999 3132.5L2776 -3011.5" stroke="#6AB0F3" stroke-width="1.5"/>
<path d="M-175.999 3092.5L2896 -3051.5" stroke="#6AB0F3" stroke-width="1.5"/>
<path d="M-55.9991 3052.5L3016 -3091.5" stroke="#6AB0F3" stroke-width="1.5"/>
<path d="M64.0007 3012.5L3136 -3131.5" stroke="#6AB0F3" stroke-width="1.5"/>
<path d="M184.001 2972.5L3256 -3171.5" stroke="#6AB0F3" stroke-width="1.5"/>
<path d="M304.001 2932.5L3376 -3211.5" stroke="#6AB0F3" stroke-width="1.5"/>
<path d="M424.001 2892.5L3496 -3251.5" stroke="#6AB0F3" stroke-width="1.5"/>
<path d="M544.001 2852.5L3616 -3291.5" stroke="#6AB0F3" stroke-width="1.5"/>
<path d="M664.001 2812.5L3736 -3331.5" stroke="#6AB0F3" stroke-width="1.5"/>
<path d="M784.001 2772.5L3856 -3371.5" stroke="#6AB0F3" stroke-width="1.5"/>
<path d="M904 2732.5L3976 -3411.5" stroke="#6AB0F3" stroke-width="1.5"/>
<path d="M1024 2692.5L4096 -3451.5" stroke="#6AB0F3" stroke-width="1.5"/>
</g>
<g opacity="0.8">
<path d="M-2232 2084.5L2952 356.5" stroke="#6AB0F3" stroke-width="1.5"/>
<path d="M-2192 2004.5L2992 276.5" stroke="#6AB0F3" stroke-width="1.5"/>
<path d="M-2152 1924.5L3032 196.5" stroke="#6AB0F3" stroke-width="1.5"/>
<path d="M-2112 1844.5L3072 116.5" stroke="#6AB0F3" stroke-width="1.5"/>
<path d="M-2072 1764.5L3112 36.4998" stroke="#6AB0F3" stroke-width="1.5"/>
<path d="M-2032 1684.5L3152 -43.5002" stroke="#6AB0F3" stroke-width="1.5"/>
<path d="M-1992 1604.5L3192 -123.5" stroke="#6AB0F3" stroke-width="1.5"/>
<path d="M-1952 1524.5L3232 -203.5" stroke="#6AB0F3" stroke-width="1.5"/>
<path d="M-1912 1444.5L3272 -283.5" stroke="#6AB0F3" stroke-width="1.5"/>
<path d="M-1872 1364.5L3312 -363.5" stroke="#6AB0F3" stroke-width="1.5"/>
<path d="M-1832 1284.5L3352 -443.5" stroke="#6AB0F3" stroke-width="1.5"/>
<path d="M-1792 1204.5L3392 -523.5" stroke="#6AB0F3" stroke-width="1.5"/>
<path d="M-1752 1124.5L3432 -603.5" stroke="#6AB0F3" stroke-width="1.5"/>
<path d="M-1712 1044.5L3472 -683.5" stroke="#6AB0F3" stroke-width="1.5"/>
<path d="M-1672 964.5L3512 -763.5" stroke="#6AB0F3" stroke-width="1.5"/>
<path d="M-1632 884.5L3552 -843.5" stroke="#6AB0F3" stroke-width="1.5"/>
<path d="M-1592 804.499L3592 -923.501" stroke="#6AB0F3" stroke-width="1.5"/>
<path d="M-1552 724.5L3632 -1003.5" stroke="#6AB0F3" stroke-width="1.5"/>
<path d="M-1512 644.499L3672 -1083.5" stroke="#6AB0F3" stroke-width="1.5"/>
<path d="M-1472 564.499L3712 -1163.5" stroke="#6AB0F3" stroke-width="1.5"/>
<path d="M-1432 484.5L3752 -1243.5" stroke="#6AB0F3" stroke-width="1.5"/>
<path d="M-1392 404.5L3792 -1323.5" stroke="#6AB0F3" stroke-width="1.5"/>
<path d="M-1352 324.5L3832 -1403.5" stroke="#6AB0F3" stroke-width="1.5"/>
<path d="M-1312 244.5L3872 -1483.5" stroke="#6AB0F3" stroke-width="1.5"/>
<path d="M-1272 164.5L3912 -1563.5" stroke="#6AB0F3" stroke-width="1.5"/>
<path d="M-1232 84.4997L3952 -1643.5" stroke="#6AB0F3" stroke-width="1.5"/>
<path d="M-1192 4.49951L3992 -1723.5" stroke="#6AB0F3" stroke-width="1.5"/>
</g>
<path d="M2416 -2891.5L-655.999 3252.5" stroke="#BEDFFF" stroke-width="1.5"/>
<path d="M-1712 1044.5L3472 -683.5" stroke="#BEDFFF" stroke-width="1.5"/>
</g>
<path d="M907.254 110.897L920 100.5L919.329 116.935L914.633 111.233L907.254 110.897Z" fill="#92D192"/>
<path d="M880 180.5L918.211 104.078" stroke="#92D192" stroke-width="1.5"/>
<path d="M983.635 138.84L1000 140.5L987.904 151.647L988.616 144.295L983.635 138.84Z" fill="#F2777A"/>
<path d="M880 180.5L996.205 141.765" stroke="#F2777A" stroke-width="1.5"/>
<path d="M958.835 41.6257H923.119V94.9951H958.835V41.6257Z" fill="black"/>
<g clip-path="url(#clip12_1594_21153)">
<path d="M925.712 88.0468V44.6249H930.581V45.7471H926.834V86.9246H930.581V88.0468H925.712Z" fill="#92D192"/>
<path d="M938.672 47.7291L938.436 47.8196C938.268 47.88 938.026 47.9403 937.712 48.0006C937.399 48.061 937.049 48.1032 936.663 48.1273H936.319V47.2947H936.663C937.23 47.2706 937.755 47.1801 938.237 47.0232C938.72 46.8664 939.058 46.7216 939.251 46.5888C939.444 46.4561 939.613 46.3234 939.758 46.1906C939.782 46.1544 939.854 46.1363 939.975 46.1363C940.084 46.1363 940.186 46.1725 940.283 46.2449V51.6568L940.301 57.0868C940.385 57.1713 940.458 57.2256 940.518 57.2497C940.578 57.2739 940.723 57.298 940.952 57.3221C941.182 57.3463 941.556 57.3583 942.075 57.3583H942.545V58.1909H942.346C942.093 58.1547 941.133 58.1366 939.468 58.1366C937.827 58.1366 936.88 58.1547 936.626 58.1909H936.409V57.3583H936.88C937.145 57.3583 937.375 57.3583 937.568 57.3583C937.761 57.3583 937.912 57.3523 938.02 57.3402C938.129 57.3282 938.225 57.3101 938.31 57.2859C938.394 57.2618 938.443 57.2497 938.455 57.2497C938.467 57.2497 938.503 57.2196 938.563 57.1592C938.624 57.0989 938.66 57.0748 938.672 57.0868V47.7291Z" fill="#92D192"/>
<path d="M936.789 75.766C936.464 75.766 936.204 75.6574 936.011 75.4402C935.818 75.223 935.721 74.9575 935.721 74.6438C935.721 73.7871 936.041 73.045 936.681 72.4175C937.32 71.79 938.117 71.4763 939.07 71.4763C940.168 71.4763 941.085 71.8142 941.821 72.4899C942.557 73.1656 942.931 74.0405 942.943 75.1144C942.943 75.6333 942.823 76.128 942.581 76.5986C942.34 77.0692 942.05 77.4795 941.713 77.8294C941.375 78.1793 940.892 78.6258 940.265 79.1688C939.83 79.5429 939.227 80.0979 938.455 80.834L937.387 81.8476L938.762 81.8657C940.657 81.8657 941.664 81.8355 941.785 81.7752C941.869 81.7511 942.014 81.2141 942.219 80.1643V80.11H942.943V80.1643C942.931 80.2005 942.853 80.7495 942.708 81.8114C942.563 82.8733 942.473 83.4283 942.437 83.4766V83.5309H935.721V83.187V82.9698C935.721 82.8853 935.758 82.7948 935.83 82.6983C935.902 82.6018 936.083 82.3906 936.373 82.0648C936.723 81.6787 937.025 81.3408 937.278 81.0512C937.387 80.9305 937.592 80.7073 937.893 80.3815C938.195 80.0557 938.4 79.8325 938.509 79.7118C938.617 79.5911 938.792 79.392 939.034 79.1145C939.275 78.837 939.444 78.6318 939.541 78.4991C939.637 78.3664 939.776 78.1854 939.957 77.9561C940.138 77.7268 940.265 77.5338 940.337 77.3769C940.409 77.22 940.5 77.0451 940.608 76.852C940.717 76.6589 940.795 76.4659 940.844 76.2728C940.892 76.0797 940.934 75.8987 940.97 75.7298C941.007 75.5609 941.025 75.3618 941.025 75.1325C941.025 74.3723 940.82 73.7147 940.409 73.1596C939.999 72.6045 939.414 72.327 938.654 72.327C938.255 72.327 937.906 72.4296 937.604 72.6347C937.302 72.8398 937.091 73.0389 936.97 73.232C936.85 73.4251 936.789 73.5397 936.789 73.5759C936.789 73.588 936.82 73.594 936.88 73.594C937.097 73.594 937.32 73.6785 937.55 73.8474C937.779 74.0163 937.893 74.2939 937.893 74.68C937.893 74.9817 937.797 75.2351 937.604 75.4402C937.411 75.6453 937.139 75.7539 936.789 75.766Z" fill="#92D192"/>
<path d="M948.084 45.7471V44.6249H952.953V88.0468H948.084V86.9246H951.83V45.7471H948.084Z" fill="#92D192"/>
</g>
<path d="M1045.5 106.236H1009.79V159.606H1045.5V106.236Z" fill="black"/>
<g clip-path="url(#clip13_1594_21153)">
<path d="M1012.38 152.657V109.235H1017.25V110.358H1013.5V151.535H1017.25V152.657H1012.38Z" fill="#F2777A"/>
<path d="M1023.78 114.421C1023.46 114.421 1023.2 114.319 1023.02 114.113C1022.84 113.908 1022.75 113.643 1022.73 113.317C1022.73 112.653 1023.02 112.062 1023.6 111.543C1024.18 111.024 1024.88 110.765 1025.7 110.765C1026.12 110.765 1026.39 110.771 1026.5 110.783C1027.39 110.928 1028.07 111.248 1028.54 111.742C1029.01 112.237 1029.26 112.774 1029.27 113.353C1029.27 113.981 1029.06 114.59 1028.65 115.181C1028.24 115.773 1027.67 116.201 1026.95 116.466L1026.9 116.503C1026.9 116.515 1026.95 116.533 1027.06 116.557C1027.17 116.581 1027.34 116.635 1027.58 116.72C1027.83 116.804 1028.05 116.931 1028.27 117.1C1029.26 117.739 1029.76 118.584 1029.76 119.634C1029.76 120.587 1029.38 121.42 1028.63 122.132C1027.89 122.844 1026.94 123.2 1025.79 123.2C1024.83 123.2 1023.99 122.94 1023.29 122.421C1022.59 121.902 1022.24 121.245 1022.24 120.448C1022.24 120.111 1022.35 119.839 1022.57 119.634C1022.79 119.429 1023.06 119.32 1023.39 119.308C1023.72 119.308 1024 119.417 1024.22 119.634C1024.43 119.851 1024.54 120.123 1024.54 120.448C1024.54 120.581 1024.53 120.702 1024.49 120.81C1024.45 120.919 1024.41 121.016 1024.36 121.1C1024.31 121.184 1024.25 121.257 1024.16 121.317C1024.08 121.378 1024.01 121.426 1023.95 121.462C1023.89 121.498 1023.83 121.522 1023.77 121.534C1023.7 121.546 1023.66 121.565 1023.62 121.589L1023.55 121.607C1024.16 122.15 1024.91 122.421 1025.79 122.421C1026.46 122.421 1026.96 122.102 1027.29 121.462C1027.5 121.064 1027.6 120.454 1027.6 119.634V119.272C1027.6 118.126 1027.22 117.359 1026.44 116.973C1026.26 116.901 1025.89 116.859 1025.34 116.846L1024.58 116.828L1024.53 116.792C1024.5 116.756 1024.49 116.659 1024.49 116.503C1024.49 116.285 1024.54 116.177 1024.63 116.177C1024.97 116.177 1025.32 116.147 1025.68 116.086C1026.09 116.026 1026.47 115.773 1026.81 115.326C1027.14 114.88 1027.31 114.204 1027.31 113.299V113.154C1027.31 112.466 1027.1 111.99 1026.68 111.724C1026.41 111.555 1026.13 111.471 1025.83 111.471C1025.44 111.471 1025.09 111.537 1024.76 111.67C1024.43 111.803 1024.21 111.941 1024.07 112.086C1023.94 112.231 1023.87 112.303 1023.87 112.303H1023.93C1023.96 112.315 1024.01 112.328 1024.07 112.34C1024.13 112.352 1024.19 112.382 1024.25 112.43C1024.31 112.478 1024.39 112.521 1024.47 112.557C1024.56 112.593 1024.62 112.659 1024.65 112.756C1024.69 112.852 1024.74 112.943 1024.8 113.027C1024.86 113.112 1024.88 113.233 1024.85 113.389C1024.85 113.655 1024.77 113.89 1024.6 114.095C1024.43 114.3 1024.16 114.409 1023.78 114.421Z" fill="#F2777A"/>
<path d="M1025.34 137.68L1025.1 137.77C1024.94 137.83 1024.69 137.891 1024.38 137.951C1024.07 138.011 1023.72 138.054 1023.33 138.078H1022.99V137.245H1023.33C1023.9 137.221 1024.42 137.131 1024.91 136.974C1025.39 136.817 1025.73 136.672 1025.92 136.539C1026.11 136.407 1026.28 136.274 1026.43 136.141C1026.45 136.105 1026.52 136.087 1026.64 136.087C1026.75 136.087 1026.85 136.123 1026.95 136.195V141.607L1026.97 147.037C1027.05 147.122 1027.13 147.176 1027.19 147.2C1027.25 147.224 1027.39 147.248 1027.62 147.273C1027.85 147.297 1028.22 147.309 1028.74 147.309H1029.21V148.141H1029.01C1028.76 148.105 1027.8 148.087 1026.14 148.087C1024.5 148.087 1023.55 148.105 1023.29 148.141H1023.08V147.309H1023.55C1023.81 147.309 1024.04 147.309 1024.24 147.309C1024.43 147.309 1024.58 147.303 1024.69 147.291C1024.8 147.279 1024.89 147.26 1024.98 147.236C1025.06 147.212 1025.11 147.2 1025.12 147.2C1025.13 147.2 1025.17 147.17 1025.23 147.11C1025.29 147.049 1025.33 147.025 1025.34 147.037V137.68Z" fill="#F2777A"/>
<path d="M1034.75 110.358V109.235H1039.62V152.657H1034.75V151.535H1038.5V110.358H1034.75Z" fill="#F2777A"/>
</g>
</g>
<path d="M705.16 76.2627C706.232 75.996 706.885 74.9109 706.618 73.839L702.273 56.3714C702.006 55.2995 700.921 54.6468 699.849 54.9134C698.777 55.1801 698.125 56.2652 698.391 57.3371L702.254 72.8639L686.727 76.7266C685.655 76.9933 685.003 78.0784 685.269 79.1503C685.536 80.2222 686.621 80.875 687.693 80.6083L705.16 76.2627ZM587.82 88.0512C604.097 65.2628 626.619 58.4665 648.355 59.2511C670.177 60.0388 691.094 68.4842 703.647 76.0357L705.709 72.6081C692.729 64.8003 671.159 56.0716 648.499 55.2537C625.754 54.4326 601.799 61.5993 584.565 85.7263L587.82 88.0512Z" fill="white"/>
<path d="M320 0.602051V360.403" stroke="#F0F0F0" stroke-width="4"/>
<path d="M640 0.602051V360.403" stroke="#F0F0F0" stroke-width="4"/>
<path d="M382.216 77.2627C383.288 76.996 383.941 75.9109 383.674 74.839L379.329 57.3714C379.062 56.2995 377.977 55.6468 376.905 55.9134C375.833 56.1801 375.181 57.2652 375.447 58.3371L379.31 73.8639L363.783 77.7266C362.711 77.9933 362.059 79.0784 362.325 80.1503C362.592 81.2222 363.677 81.875 364.749 81.6083L382.216 77.2627ZM264.876 89.0512C281.154 66.2628 303.675 59.4665 325.411 60.2511C347.233 61.0388 368.15 69.4842 380.703 77.0357L382.765 73.6081C369.785 65.8003 348.215 57.0716 325.555 56.2537C302.81 55.4326 278.855 62.5993 261.621 86.7263L264.876 89.0512Z" fill="white"/>
<defs>
<clipPath id="clip0_1594_21153">
<rect width="320" height="360" fill="white" transform="translate(320 0.5)"/>
</clipPath>
<clipPath id="clip1_1594_21153">
<rect width="640" height="360" fill="white" transform="translate(160 0.5)"/>
</clipPath>
<clipPath id="clip2_1594_21153">
<rect width="3072" height="1728" fill="white" transform="translate(-1056 -683.5)"/>
</clipPath>
<clipPath id="clip3_1594_21153">
<rect width="6.008" height="18.352" fill="white" transform="translate(477.456 109.657)"/>
</clipPath>
<clipPath id="clip4_1594_21153">
<rect width="36.2" height="43.44" fill="white" transform="translate(522.18 43.9745)"/>
</clipPath>
<clipPath id="clip5_1594_21153">
<rect width="320" height="360" fill="white" transform="translate(0 0.5)"/>
</clipPath>
<clipPath id="clip6_1594_21153">
<rect width="640" height="360" fill="white" transform="translate(-160 0.5)"/>
</clipPath>
<clipPath id="clip7_1594_21153">
<rect width="6.152" height="14.824" fill="white" transform="translate(209.039 171.404)"/>
</clipPath>
<clipPath id="clip8_1594_21153">
<rect width="6.008" height="18.352" fill="white" transform="translate(156.456 111.478)"/>
</clipPath>
<clipPath id="clip9_1594_21153">
<rect width="440" height="360" fill="white" transform="translate(640 0.5)"/>
</clipPath>
<clipPath id="clip10_1594_21153">
<rect width="640" height="360" fill="white" transform="translate(560 0.5)"/>
</clipPath>
<clipPath id="clip11_1594_21153">
<rect width="3072" height="1728" fill="white" transform="translate(-656 -683.5)"/>
</clipPath>
<clipPath id="clip12_1594_21153">
<rect width="36.2" height="43.44" fill="white" transform="translate(921.241 44.6158)"/>
</clipPath>
<clipPath id="clip13_1594_21153">
<rect width="36.2" height="43.44" fill="white" transform="translate(1007.91 109.226)"/>
</clipPath>
</defs>
</svg>
