<svg width="1080" height="360" viewBox="0 0 1080 360" fill="none" xmlns="http://www.w3.org/2000/svg">
<g clip-path="url(#clip0_1056_27933)">
<path d="M800 0H160V360H800V0Z" fill="black"/>
<g clip-path="url(#clip1_1056_27933)">
<path d="M160 20H800" stroke="#404040" stroke-width="1.5"/>
<path d="M160 60H800" stroke="#404040" stroke-width="1.5"/>
<path d="M160 100H800" stroke="#404040" stroke-width="1.5"/>
<path d="M160 140H800" stroke="#404040" stroke-width="1.5"/>
<path d="M160 180H800" stroke="#404040" stroke-width="1.5"/>
<path d="M160 220H800" stroke="#404040" stroke-width="1.5"/>
<path d="M160 260H800" stroke="#404040" stroke-width="1.5"/>
<path d="M160 300H800" stroke="#404040" stroke-width="1.5"/>
<path d="M160 340H800" stroke="#404040" stroke-width="1.5"/>
<path d="M320 0V360" stroke="#404040" stroke-width="1.5"/>
<path d="M360 0V360" stroke="#404040" stroke-width="1.5"/>
<path d="M400 0V360" stroke="#404040" stroke-width="1.5"/>
<path d="M440 0V360" stroke="#404040" stroke-width="1.5"/>
<path d="M480 0V360" stroke="#404040" stroke-width="1.5"/>
<path d="M520 0V360" stroke="#404040" stroke-width="1.5"/>
<path d="M560 0V360" stroke="#404040" stroke-width="1.5"/>
<path d="M600 0V360" stroke="#404040" stroke-width="1.5"/>
<path d="M640 0V360" stroke="#404040" stroke-width="1.5"/>
</g>
<path d="M160 180H800" stroke="#808080" stroke-width="1.5"/>
<path d="M480 0V360" stroke="#808080" stroke-width="1.5"/>
<g clip-path="url(#clip2_1056_27933)">
<g opacity="0.8">
<path d="M-1056 4092L2016 -2052" stroke="#6AB0F3" stroke-width="1.5"/>
<path d="M-1056 4052L2016 -2092" stroke="#6AB0F3" stroke-width="1.5"/>
<path d="M-1056 4012L2016 -2132" stroke="#6AB0F3" stroke-width="1.5"/>
<path d="M-1056 3972L2016 -2172" stroke="#6AB0F3" stroke-width="1.5"/>
<path d="M-1056 3932L2016 -2212" stroke="#6AB0F3" stroke-width="1.5"/>
<path d="M-1056 3892L2016 -2252" stroke="#6AB0F3" stroke-width="1.5"/>
<path d="M-1056 3852L2016 -2292" stroke="#6AB0F3" stroke-width="1.5"/>
<path d="M-1056 3812L2016 -2332" stroke="#6AB0F3" stroke-width="1.5"/>
<path d="M-1056 3772L2016 -2372" stroke="#6AB0F3" stroke-width="1.5"/>
<path d="M-1056 3732L2016 -2412" stroke="#6AB0F3" stroke-width="1.5"/>
<path d="M-1056 3692L2016 -2452" stroke="#6AB0F3" stroke-width="1.5"/>
<path d="M-1056 3652L2016 -2492" stroke="#6AB0F3" stroke-width="1.5"/>
<path d="M-1056 3612L2016 -2532" stroke="#6AB0F3" stroke-width="1.5"/>
<path d="M-1056 3572L2016 -2572" stroke="#6AB0F3" stroke-width="1.5"/>
<path d="M-1056 3532L2016 -2612" stroke="#6AB0F3" stroke-width="1.5"/>
<path d="M-1056 3492L2016 -2652" stroke="#6AB0F3" stroke-width="1.5"/>
<path d="M-1056 3452L2016 -2692" stroke="#6AB0F3" stroke-width="1.5"/>
<path d="M-1056 3412L2016 -2732" stroke="#6AB0F3" stroke-width="1.5"/>
<path d="M-1056 3372L2016 -2772" stroke="#6AB0F3" stroke-width="1.5"/>
<path d="M-1056 3332L2016 -2812" stroke="#6AB0F3" stroke-width="1.5"/>
<path d="M-1056 3292L2016 -2852" stroke="#6AB0F3" stroke-width="1.5"/>
<path d="M-1056 3252L2016 -2892" stroke="#6AB0F3" stroke-width="1.5"/>
<path d="M-1056 3212L2016 -2932" stroke="#6AB0F3" stroke-width="1.5"/>
<path d="M-1056 3172L2016 -2972" stroke="#6AB0F3" stroke-width="1.5"/>
<path d="M-1056 3132L2016 -3012" stroke="#6AB0F3" stroke-width="1.5"/>
<path d="M-1056 3092L2016 -3052" stroke="#6AB0F3" stroke-width="1.5"/>
<path d="M-1056 3052L2016 -3092" stroke="#6AB0F3" stroke-width="1.5"/>
<path d="M-1056 3012L2016 -3132" stroke="#6AB0F3" stroke-width="1.5"/>
<path d="M-1056 2972L2016 -3172" stroke="#6AB0F3" stroke-width="1.5"/>
<path d="M-1056 2932L2016 -3212" stroke="#6AB0F3" stroke-width="1.5"/>
<path d="M-1056 2892L2016 -3252" stroke="#6AB0F3" stroke-width="1.5"/>
<path d="M-1056 2852L2016 -3292" stroke="#6AB0F3" stroke-width="1.5"/>
<path d="M-1056 2812L2016 -3332" stroke="#6AB0F3" stroke-width="1.5"/>
<path d="M-1056 2772L2016 -3372" stroke="#6AB0F3" stroke-width="1.5"/>
<path d="M-1056 2732L2016 -3412" stroke="#6AB0F3" stroke-width="1.5"/>
<path d="M-1056 2692L2016 -3452" stroke="#6AB0F3" stroke-width="1.5"/>
<path d="M-1056 2652L2016 -3492" stroke="#6AB0F3" stroke-width="1.5"/>
<path d="M-1056 2612L2016 -3532" stroke="#6AB0F3" stroke-width="1.5"/>
<path d="M-1056 2572L2016 -3572" stroke="#6AB0F3" stroke-width="1.5"/>
<path d="M-1056 2532L2016 -3612" stroke="#6AB0F3" stroke-width="1.5"/>
<path d="M-1056 2492L2016 -3652" stroke="#6AB0F3" stroke-width="1.5"/>
<path d="M-1056 2452L2016 -3692" stroke="#6AB0F3" stroke-width="1.5"/>
<path d="M-1056 2412L2016 -3732" stroke="#6AB0F3" stroke-width="1.5"/>
</g>
<g opacity="0.8">
<path d="M320 1364V-364" stroke="#6AB0F3" stroke-width="1.5"/>
<path d="M360 1284V-444.001" stroke="#6AB0F3" stroke-width="1.5"/>
<path d="M400 1204V-524.001" stroke="#6AB0F3" stroke-width="1.5"/>
<path d="M440 1124V-604.001" stroke="#6AB0F3" stroke-width="1.5"/>
<path d="M480 1044V-684.001" stroke="#6AB0F3" stroke-width="1.5"/>
<path d="M520 963.999V-764.001" stroke="#6AB0F3" stroke-width="1.5"/>
<path d="M560 884V-844.001" stroke="#6AB0F3" stroke-width="1.5"/>
<path d="M600 803.999V-924.001" stroke="#6AB0F3" stroke-width="1.5"/>
<path d="M640 724V-1004" stroke="#6AB0F3" stroke-width="1.5"/>
</g>
<path d="M2016 -2892L-1056 3252" stroke="#BEDFFF" stroke-width="1.5"/>
<path d="M480 1044V-684" stroke="#BEDFFF" stroke-width="1.5"/>
</g>
<path d="M507.254 110.397L520 99.9997L519.329 116.435L514.633 110.733L507.254 110.397Z" fill="#92D192"/>
<path d="M480 180L518.211 103.578" stroke="#92D192" stroke-width="1.5"/>
<path d="M473.25 155L480 140L486.75 155L480 152L473.25 155Z" fill="#F2777A"/>
<path d="M480 180V144" stroke="#F2777A" stroke-width="1.5"/>
<path d="M486.912 108.132H473.825V132.176H486.912V108.132Z" fill="black"/>
<g clip-path="url(#clip3_1056_27933)">
<path d="M478.814 118.677C478.814 118.677 478.814 118.659 478.814 118.622C478.814 118.586 478.85 118.478 478.922 118.297C478.995 118.116 479.115 117.887 479.284 117.609C479.453 117.332 479.646 117.054 479.863 116.777C480.08 116.499 480.364 116.276 480.714 116.107C481.064 115.938 481.426 115.842 481.8 115.818C482.198 115.842 482.56 115.974 482.885 116.216C483.211 116.457 483.374 116.879 483.374 117.482V117.808L482.487 121.391C482.354 121.898 482.204 122.483 482.035 123.147C481.866 123.81 481.745 124.305 481.673 124.63C481.6 124.956 481.552 125.125 481.528 125.137C481.323 125.74 480.943 126.283 480.388 126.766C479.833 127.248 479.182 127.496 478.434 127.508C477.879 127.508 477.462 127.369 477.185 127.092C476.98 126.887 476.877 126.639 476.877 126.35C476.877 126.012 476.986 125.746 477.203 125.553C477.42 125.36 477.668 125.258 477.945 125.246C478.198 125.246 478.379 125.318 478.488 125.463C478.596 125.608 478.657 125.746 478.669 125.879C478.669 126.265 478.5 126.579 478.162 126.82L478.253 126.838H478.524H478.542C479.17 126.838 479.682 126.277 480.08 125.155C480.117 125.047 480.436 123.792 481.039 121.391C481.643 118.99 481.962 117.706 481.999 117.537C482.011 117.464 482.017 117.326 482.017 117.12C482.017 116.976 482.011 116.867 481.999 116.795C481.987 116.722 481.95 116.656 481.89 116.596C481.83 116.535 481.739 116.499 481.619 116.487C481.305 116.487 480.973 116.65 480.623 116.976C480.406 117.193 480.225 117.44 480.08 117.718C479.936 117.995 479.821 118.23 479.737 118.423C479.652 118.616 479.598 118.725 479.574 118.749C479.55 118.773 479.435 118.785 479.23 118.785H478.922C478.85 118.713 478.814 118.659 478.814 118.622V118.677Z" fill="#F2777A"/>
<path d="M477.963 113.393L480.442 110.968L480.587 111.113C482.155 112.609 482.94 113.369 482.94 113.393L482.469 113.917C482.445 113.905 482.095 113.604 481.419 113.013L480.46 112.18L479.465 113.031C479.308 113.163 479.151 113.302 478.995 113.447C478.838 113.592 478.711 113.706 478.615 113.791L478.47 113.899C478.446 113.924 478.355 113.839 478.198 113.646L477.963 113.393Z" fill="#F2777A"/>
</g>
<path d="M559.774 40.4844H524.057V93.8537H559.774V40.4844Z" fill="black"/>
<g clip-path="url(#clip4_1056_27933)">
<path d="M526.651 86.9058V43.4839H531.52V44.6061H527.773V85.7836H531.52V86.9058H526.651Z" fill="#92D192"/>
<path d="M539.61 46.588L539.375 46.6785C539.206 46.7388 538.965 46.7992 538.651 46.8595C538.337 46.9198 537.987 46.9621 537.601 46.9862H537.257V46.1536H537.601C538.168 46.1295 538.693 46.039 539.176 45.8821C539.659 45.7252 539.996 45.5804 540.189 45.4477C540.383 45.315 540.551 45.1822 540.696 45.0495C540.72 45.0133 540.793 44.9952 540.913 44.9952C541.022 44.9952 541.125 45.0314 541.221 45.1038V50.5157L541.239 55.9457C541.324 56.0302 541.396 56.0845 541.456 56.1086C541.517 56.1327 541.662 56.1569 541.891 56.181C542.12 56.2051 542.494 56.2172 543.013 56.2172H543.484V57.0498H543.285C543.031 57.0136 542.072 56.9955 540.407 56.9955C538.766 56.9955 537.818 57.0136 537.565 57.0498H537.348V56.2172H537.818C538.084 56.2172 538.313 56.2172 538.506 56.2172C538.699 56.2172 538.85 56.2112 538.959 56.1991C539.067 56.187 539.164 56.1689 539.248 56.1448C539.333 56.1207 539.381 56.1086 539.393 56.1086C539.405 56.1086 539.441 56.0784 539.502 56.0181C539.562 55.9578 539.598 55.9336 539.61 55.9457V46.588Z" fill="#92D192"/>
<path d="M537.728 74.6247C537.402 74.6247 537.143 74.5161 536.95 74.2989C536.757 74.0817 536.66 73.8163 536.66 73.5025C536.66 72.6458 536.98 71.9037 537.619 71.2762C538.259 70.6488 539.055 70.335 540.009 70.335C541.107 70.335 542.024 70.6729 542.76 71.3486C543.496 72.0244 543.87 72.8992 543.882 73.9731C543.882 74.492 543.761 74.9867 543.52 75.4573C543.279 75.9279 542.989 76.3382 542.651 76.6881C542.313 77.0381 541.831 77.4845 541.203 78.0275C540.769 78.4016 540.165 78.9567 539.393 79.6927L538.325 80.7063L539.701 80.7244C541.595 80.7244 542.603 80.6943 542.724 80.6339C542.808 80.6098 542.953 80.0728 543.158 79.023V78.9687H543.882V79.023C543.87 79.0592 543.791 79.6083 543.647 80.6701C543.502 81.732 543.411 82.2871 543.375 82.3353V82.3896H536.66V82.0457V81.8285C536.66 81.7441 536.696 81.6536 536.769 81.557C536.841 81.4605 537.022 81.2493 537.312 80.9235C537.662 80.5374 537.963 80.1995 538.217 79.9099C538.325 79.7893 538.53 79.566 538.832 79.2402C539.134 78.9144 539.339 78.6912 539.447 78.5705C539.556 78.4499 539.731 78.2508 539.972 77.9732C540.214 77.6957 540.383 77.4906 540.479 77.3578C540.576 77.2251 540.714 77.0441 540.895 76.8148C541.076 76.5856 541.203 76.3925 541.276 76.2356C541.348 76.0788 541.438 75.9038 541.547 75.7107C541.656 75.5177 541.734 75.3246 541.782 75.1315C541.831 74.9385 541.873 74.7575 541.909 74.5885C541.945 74.4196 541.963 74.2205 541.963 73.9912C541.963 73.231 541.758 72.5734 541.348 72.0183C540.938 71.4633 540.352 71.1857 539.592 71.1857C539.194 71.1857 538.844 71.2883 538.542 71.4934C538.241 71.6986 538.03 71.8977 537.909 72.0907C537.788 72.2838 537.728 72.3984 537.728 72.4346C537.728 72.4467 537.758 72.4527 537.818 72.4527C538.036 72.4527 538.259 72.5372 538.488 72.7061C538.717 72.8751 538.832 73.1526 538.832 73.5387C538.832 73.8404 538.735 74.0938 538.542 74.2989C538.349 74.5041 538.078 74.6127 537.728 74.6247Z" fill="#92D192"/>
<path d="M549.022 44.6061V43.4839H553.891V86.9058H549.022V85.7836H552.769V44.6061H549.022Z" fill="#92D192"/>
</g>
</g>
<g clip-path="url(#clip5_1056_27933)">
<path d="M480 0H-160V360H480V0Z" fill="black"/>
<g clip-path="url(#clip6_1056_27933)">
<path d="M-160 20H480" stroke="#404040" stroke-width="1.5"/>
<path d="M-160 60H480" stroke="#404040" stroke-width="1.5"/>
<path d="M-160 100H480" stroke="#404040" stroke-width="1.5"/>
<path d="M-160 140H480" stroke="#404040" stroke-width="1.5"/>
<path d="M-160 180H480" stroke="#404040" stroke-width="1.5"/>
<path d="M-160 220H480" stroke="#404040" stroke-width="1.5"/>
<path d="M-160 260H480" stroke="#404040" stroke-width="1.5"/>
<path d="M-160 300H480" stroke="#404040" stroke-width="1.5"/>
<path d="M-160 340H480" stroke="#404040" stroke-width="1.5"/>
<path d="M0 0V360" stroke="#404040" stroke-width="1.5"/>
<path d="M40 0V360" stroke="#404040" stroke-width="1.5"/>
<path d="M80 0V360" stroke="#404040" stroke-width="1.5"/>
<path d="M120 0V360" stroke="#404040" stroke-width="1.5"/>
<path d="M160 0V360" stroke="#404040" stroke-width="1.5"/>
<path d="M200 0V360" stroke="#404040" stroke-width="1.5"/>
<path d="M240 0V360" stroke="#404040" stroke-width="1.5"/>
<path d="M280 0V360" stroke="#404040" stroke-width="1.5"/>
<path d="M320 0V360" stroke="#404040" stroke-width="1.5"/>
</g>
<path d="M-160 180H480" stroke="#808080" stroke-width="1.5"/>
<path d="M160 0V360" stroke="#808080" stroke-width="1.5"/>
<g opacity="0.8">
<path d="M-1376 340H1696" stroke="#6AB0F3" stroke-width="1.5"/>
<path d="M-1376 300H1696" stroke="#6AB0F3" stroke-width="1.5"/>
<path d="M-1376 260H1696" stroke="#6AB0F3" stroke-width="1.5"/>
<path d="M-1376 220H1696" stroke="#6AB0F3" stroke-width="1.5"/>
<path d="M-1376 180H1696" stroke="#6AB0F3" stroke-width="1.5"/>
<path d="M-1376 140H1696" stroke="#6AB0F3" stroke-width="1.5"/>
<path d="M-1376 100H1696" stroke="#6AB0F3" stroke-width="1.5"/>
<path d="M-1376 60H1696" stroke="#6AB0F3" stroke-width="1.5"/>
<path d="M-1376 20H1696" stroke="#6AB0F3" stroke-width="1.5"/>
</g>
<g opacity="0.8">
<path d="M0 1044V-684" stroke="#6AB0F3" stroke-width="1.5"/>
<path d="M40 1044V-684" stroke="#6AB0F3" stroke-width="1.5"/>
<path d="M80 1044V-684" stroke="#6AB0F3" stroke-width="1.5"/>
<path d="M120 1044V-684" stroke="#6AB0F3" stroke-width="1.5"/>
<path d="M160 1044V-684" stroke="#6AB0F3" stroke-width="1.5"/>
<path d="M200 1044V-684" stroke="#6AB0F3" stroke-width="1.5"/>
<path d="M240 1044V-684" stroke="#6AB0F3" stroke-width="1.5"/>
<path d="M280 1044V-684" stroke="#6AB0F3" stroke-width="1.5"/>
<path d="M320 1044V-684" stroke="#6AB0F3" stroke-width="1.5"/>
</g>
<path d="M1696 180H-1376" stroke="#BEDFFF" stroke-width="1.5"/>
<path d="M160 1044V-684" stroke="#BEDFFF" stroke-width="1.5"/>
<path d="M185 173.25L200 180L185 186.75L188 180L185 173.25Z" fill="#92D192"/>
<path d="M160 180H196" stroke="#92D192" stroke-width="1.5"/>
<path d="M153.25 155L160 140L166.75 155L160 152L153.25 155Z" fill="#F2777A"/>
<path d="M160 180V144" stroke="#F2777A" stroke-width="1.5"/>
<path d="M218.754 169.88H206.833V190.073H218.754V169.88Z" fill="black"/>
<g clip-path="url(#clip7_1056_27933)">
<path d="M210.396 180.352C210.396 180.291 210.438 180.135 210.523 179.881C210.607 179.628 210.734 179.332 210.903 178.995C211.072 178.657 211.307 178.349 211.608 178.072C211.91 177.794 212.236 177.625 212.586 177.565H212.911C213.321 177.565 213.659 177.698 213.925 177.963C214.19 178.229 214.329 178.603 214.341 179.085C214.329 179.314 214.305 179.477 214.268 179.574C214.232 179.67 213.967 180.406 213.472 181.781C212.845 183.422 212.531 184.399 212.531 184.712C212.531 184.954 212.628 185.074 212.821 185.074C213.05 185.074 213.279 184.972 213.508 184.767C213.822 184.429 214.093 183.868 214.323 183.084C214.359 182.939 214.389 182.855 214.413 182.831C214.437 182.806 214.522 182.788 214.666 182.776H214.775C214.896 182.776 214.974 182.776 215.01 182.776C215.046 182.776 215.089 182.794 215.137 182.831C215.185 182.867 215.203 182.909 215.191 182.957C215.191 183.078 215.131 183.307 215.01 183.645C214.89 183.983 214.66 184.369 214.323 184.803C213.985 185.237 213.599 185.533 213.165 185.689C213.068 185.714 212.923 185.726 212.73 185.726C212.2 185.726 211.82 185.575 211.59 185.273C211.361 184.972 211.247 184.634 211.247 184.26C211.247 183.934 211.542 182.993 212.133 181.437C212.724 179.881 213.026 178.934 213.038 178.597C213.038 178.452 213.02 178.355 212.984 178.307C212.947 178.259 212.857 178.229 212.712 178.217C212.374 178.241 212.091 178.428 211.862 178.777C211.633 179.127 211.464 179.501 211.355 179.899C211.247 180.297 211.174 180.496 211.138 180.496C211.126 180.508 211.011 180.514 210.794 180.514H210.505C210.432 180.442 210.396 180.388 210.396 180.352Z" fill="#92D192"/>
<path d="M209.766 175.14L212.245 172.716L212.39 172.86C213.958 174.356 214.742 175.116 214.742 175.14L214.272 175.665C214.248 175.653 213.898 175.351 213.222 174.76L212.263 173.928L211.268 174.778C211.111 174.911 210.955 175.05 210.798 175.195C210.641 175.339 210.514 175.454 210.418 175.538L210.273 175.647C210.249 175.671 210.159 175.587 210.002 175.394L209.766 175.14Z" fill="#92D192"/>
</g>
<path d="M165.912 109.954H152.825V133.997H165.912V109.954Z" fill="black"/>
<g clip-path="url(#clip8_1056_27933)">
<path d="M157.814 120.498C157.814 120.498 157.814 120.48 157.814 120.444C157.814 120.408 157.85 120.299 157.922 120.118C157.995 119.937 158.115 119.708 158.284 119.43C158.453 119.153 158.646 118.875 158.863 118.598C159.08 118.32 159.364 118.097 159.714 117.928C160.064 117.759 160.426 117.663 160.8 117.639C161.198 117.663 161.56 117.796 161.885 118.037C162.211 118.278 162.374 118.7 162.374 119.304V119.629L161.487 123.213C161.354 123.719 161.204 124.304 161.035 124.968C160.866 125.631 160.745 126.126 160.673 126.452C160.6 126.778 160.552 126.946 160.528 126.958C160.323 127.562 159.943 128.105 159.388 128.587C158.833 129.07 158.182 129.317 157.434 129.329C156.879 129.329 156.462 129.19 156.185 128.913C155.98 128.708 155.877 128.46 155.877 128.171C155.877 127.833 155.986 127.568 156.203 127.375C156.42 127.182 156.668 127.079 156.945 127.067C157.198 127.067 157.379 127.139 157.488 127.284C157.596 127.429 157.657 127.568 157.669 127.7C157.669 128.086 157.5 128.4 157.162 128.641L157.253 128.66H157.524H157.542C158.17 128.66 158.682 128.099 159.08 126.977C159.117 126.868 159.436 125.613 160.039 123.213C160.643 120.812 160.962 119.527 160.999 119.358C161.011 119.286 161.017 119.147 161.017 118.942C161.017 118.797 161.011 118.688 160.999 118.616C160.987 118.544 160.95 118.477 160.89 118.417C160.83 118.357 160.739 118.32 160.619 118.308C160.305 118.308 159.973 118.471 159.623 118.797C159.406 119.014 159.225 119.261 159.08 119.539C158.936 119.816 158.821 120.052 158.737 120.245C158.652 120.438 158.598 120.546 158.574 120.57C158.55 120.595 158.435 120.607 158.23 120.607H157.922C157.85 120.534 157.814 120.48 157.814 120.444V120.498Z" fill="#F2777A"/>
<path d="M156.963 115.214L159.442 112.789L159.587 112.934C161.155 114.43 161.94 115.19 161.94 115.214L161.469 115.739C161.445 115.727 161.095 115.425 160.419 114.834L159.46 114.002L158.465 114.852C158.308 114.985 158.151 115.123 157.995 115.268C157.838 115.413 157.711 115.528 157.615 115.612L157.47 115.721C157.446 115.745 157.355 115.66 157.198 115.467L156.963 115.214Z" fill="#F2777A"/>
</g>
</g>
<g clip-path="url(#clip9_1056_27933)">
<path d="M1200 0H560V360H1200V0Z" fill="black"/>
<g clip-path="url(#clip10_1056_27933)">
<path d="M560 20H1200" stroke="#404040" stroke-width="1.5"/>
<path d="M560 60H1200" stroke="#404040" stroke-width="1.5"/>
<path d="M560 100H1200" stroke="#404040" stroke-width="1.5"/>
<path d="M560 140H1200" stroke="#404040" stroke-width="1.5"/>
<path d="M560 180H1200" stroke="#404040" stroke-width="1.5"/>
<path d="M560 220H1200" stroke="#404040" stroke-width="1.5"/>
<path d="M560 260H1200" stroke="#404040" stroke-width="1.5"/>
<path d="M560 300H1200" stroke="#404040" stroke-width="1.5"/>
<path d="M560 340H1200" stroke="#404040" stroke-width="1.5"/>
<path d="M640 0V360" stroke="#404040" stroke-width="1.5"/>
<path d="M680 0V360" stroke="#404040" stroke-width="1.5"/>
<path d="M720 0V360" stroke="#404040" stroke-width="1.5"/>
<path d="M760 0V360" stroke="#404040" stroke-width="1.5"/>
<path d="M800 0V360" stroke="#404040" stroke-width="1.5"/>
<path d="M840 0V360" stroke="#404040" stroke-width="1.5"/>
<path d="M880 0V360" stroke="#404040" stroke-width="1.5"/>
<path d="M920 0V360" stroke="#404040" stroke-width="1.5"/>
<path d="M960 0V360" stroke="#404040" stroke-width="1.5"/>
<path d="M1000 0V360" stroke="#404040" stroke-width="1.5"/>
<path d="M1040 0V360" stroke="#404040" stroke-width="1.5"/>
<path d="M1080 0V360" stroke="#404040" stroke-width="1.5"/>
</g>
<path d="M560 180H1200" stroke="#808080" stroke-width="1.5"/>
<path d="M880 0V360" stroke="#808080" stroke-width="1.5"/>
<g clip-path="url(#clip11_1056_27933)">
<g opacity="0.8">
<path d="M-2336 3812L736.001 -2332" stroke="#6AB0F3" stroke-width="1.5"/>
<path d="M-2216 3772L856.001 -2372" stroke="#6AB0F3" stroke-width="1.5"/>
<path d="M-2096 3732L976.001 -2412" stroke="#6AB0F3" stroke-width="1.5"/>
<path d="M-1976 3692L1096 -2452" stroke="#6AB0F3" stroke-width="1.5"/>
<path d="M-1856 3652L1216 -2492" stroke="#6AB0F3" stroke-width="1.5"/>
<path d="M-1736 3612L1336 -2532" stroke="#6AB0F3" stroke-width="1.5"/>
<path d="M-1616 3572L1456 -2572" stroke="#6AB0F3" stroke-width="1.5"/>
<path d="M-1496 3532L1576 -2612" stroke="#6AB0F3" stroke-width="1.5"/>
<path d="M-1376 3492L1696 -2652" stroke="#6AB0F3" stroke-width="1.5"/>
<path d="M-1256 3452L1816 -2692" stroke="#6AB0F3" stroke-width="1.5"/>
<path d="M-1136 3412L1936 -2732" stroke="#6AB0F3" stroke-width="1.5"/>
<path d="M-1016 3372L2056 -2772" stroke="#6AB0F3" stroke-width="1.5"/>
<path d="M-895.999 3332L2176 -2812" stroke="#6AB0F3" stroke-width="1.5"/>
<path d="M-776 3292L2296 -2852" stroke="#6AB0F3" stroke-width="1.5"/>
<path d="M-656 3252L2416 -2892" stroke="#6AB0F3" stroke-width="1.5"/>
<path d="M-535.999 3212L2536 -2932" stroke="#6AB0F3" stroke-width="1.5"/>
<path d="M-416 3172L2656 -2972" stroke="#6AB0F3" stroke-width="1.5"/>
<path d="M-295.999 3132L2776 -3012" stroke="#6AB0F3" stroke-width="1.5"/>
<path d="M-176 3092L2896 -3052" stroke="#6AB0F3" stroke-width="1.5"/>
<path d="M-55.9994 3052L3016 -3092" stroke="#6AB0F3" stroke-width="1.5"/>
<path d="M64.0005 3012L3136 -3132" stroke="#6AB0F3" stroke-width="1.5"/>
<path d="M184.001 2972L3256 -3172" stroke="#6AB0F3" stroke-width="1.5"/>
<path d="M304.001 2932L3376 -3212" stroke="#6AB0F3" stroke-width="1.5"/>
<path d="M424.001 2892L3496 -3252" stroke="#6AB0F3" stroke-width="1.5"/>
<path d="M544.001 2852L3616 -3292" stroke="#6AB0F3" stroke-width="1.5"/>
<path d="M664.001 2812L3736 -3332" stroke="#6AB0F3" stroke-width="1.5"/>
<path d="M784.001 2772L3856 -3372" stroke="#6AB0F3" stroke-width="1.5"/>
<path d="M904 2732L3976 -3412" stroke="#6AB0F3" stroke-width="1.5"/>
<path d="M1024 2692L4096 -3452" stroke="#6AB0F3" stroke-width="1.5"/>
</g>
<g opacity="0.8">
<path d="M-2232 2084L2952 356" stroke="#6AB0F3" stroke-width="1.5"/>
<path d="M-2192 2004L2992 276" stroke="#6AB0F3" stroke-width="1.5"/>
<path d="M-2152 1924L3032 196" stroke="#6AB0F3" stroke-width="1.5"/>
<path d="M-2112 1844L3072 116" stroke="#6AB0F3" stroke-width="1.5"/>
<path d="M-2072 1764L3112 35.9999" stroke="#6AB0F3" stroke-width="1.5"/>
<path d="M-2032 1684L3152 -44.0001" stroke="#6AB0F3" stroke-width="1.5"/>
<path d="M-1992 1604L3192 -124" stroke="#6AB0F3" stroke-width="1.5"/>
<path d="M-1952 1524L3232 -204" stroke="#6AB0F3" stroke-width="1.5"/>
<path d="M-1912 1444L3272 -284" stroke="#6AB0F3" stroke-width="1.5"/>
<path d="M-1872 1364L3312 -364" stroke="#6AB0F3" stroke-width="1.5"/>
<path d="M-1832 1284L3352 -444" stroke="#6AB0F3" stroke-width="1.5"/>
<path d="M-1792 1204L3392 -524" stroke="#6AB0F3" stroke-width="1.5"/>
<path d="M-1752 1124L3432 -604" stroke="#6AB0F3" stroke-width="1.5"/>
<path d="M-1712 1044L3472 -684" stroke="#6AB0F3" stroke-width="1.5"/>
<path d="M-1672 964L3512 -764" stroke="#6AB0F3" stroke-width="1.5"/>
<path d="M-1632 884L3552 -844" stroke="#6AB0F3" stroke-width="1.5"/>
<path d="M-1592 804L3592 -924.001" stroke="#6AB0F3" stroke-width="1.5"/>
<path d="M-1552 724L3632 -1004" stroke="#6AB0F3" stroke-width="1.5"/>
<path d="M-1512 644L3672 -1084" stroke="#6AB0F3" stroke-width="1.5"/>
<path d="M-1472 564L3712 -1164" stroke="#6AB0F3" stroke-width="1.5"/>
<path d="M-1432 484L3752 -1244" stroke="#6AB0F3" stroke-width="1.5"/>
<path d="M-1392 404L3792 -1324" stroke="#6AB0F3" stroke-width="1.5"/>
<path d="M-1352 324L3832 -1404" stroke="#6AB0F3" stroke-width="1.5"/>
<path d="M-1312 244L3872 -1484" stroke="#6AB0F3" stroke-width="1.5"/>
<path d="M-1272 164L3912 -1564" stroke="#6AB0F3" stroke-width="1.5"/>
<path d="M-1232 83.9995L3952 -1644" stroke="#6AB0F3" stroke-width="1.5"/>
<path d="M-1192 3.99951L3992 -1724" stroke="#6AB0F3" stroke-width="1.5"/>
</g>
<path d="M2416 -2892L-655.999 3252" stroke="#BEDFFF" stroke-width="1.5"/>
<path d="M-1712 1044L3472 -684" stroke="#BEDFFF" stroke-width="1.5"/>
</g>
<path d="M907.254 110.397L920 99.9997L919.329 116.435L914.633 110.733L907.254 110.397Z" fill="#92D192"/>
<path d="M880 180L918.211 103.578" stroke="#92D192" stroke-width="1.5"/>
<path d="M983.635 138.34L1000 140L987.904 151.147L988.616 143.795L983.635 138.34Z" fill="#F2777A"/>
<path d="M880 180L996.205 141.265" stroke="#F2777A" stroke-width="1.5"/>
<path d="M958.835 41.126H923.119V94.4953H958.835V41.126Z" fill="black"/>
<g clip-path="url(#clip12_1056_27933)">
<path d="M925.712 87.5474V44.1255H930.581V45.2477H926.834V86.4252H930.581V87.5474H925.712Z" fill="#92D192"/>
<path d="M938.672 47.2296L938.436 47.3201C938.268 47.3804 938.026 47.4408 937.712 47.5011C937.399 47.5614 937.049 47.6037 936.663 47.6278H936.319V46.7952H936.663C937.23 46.7711 937.755 46.6806 938.237 46.5237C938.72 46.3668 939.058 46.222 939.251 46.0893C939.444 45.9566 939.613 45.8238 939.758 45.6911C939.782 45.6549 939.854 45.6368 939.975 45.6368C940.084 45.6368 940.186 45.673 940.283 45.7454V51.1573L940.301 56.5873C940.385 56.6718 940.458 56.7261 940.518 56.7502C940.578 56.7743 940.723 56.7985 940.952 56.8226C941.182 56.8467 941.556 56.8588 942.075 56.8588H942.545V57.6914H942.346C942.093 57.6552 941.133 57.6371 939.468 57.6371C937.827 57.6371 936.88 57.6552 936.626 57.6914H936.409V56.8588H936.88C937.145 56.8588 937.375 56.8588 937.568 56.8588C937.761 56.8588 937.912 56.8528 938.02 56.8407C938.129 56.8286 938.225 56.8105 938.31 56.7864C938.394 56.7623 938.442 56.7502 938.455 56.7502C938.467 56.7502 938.503 56.72 938.563 56.6597C938.623 56.5994 938.66 56.5752 938.672 56.5873V47.2296Z" fill="#92D192"/>
<path d="M936.789 75.2664C936.464 75.2664 936.204 75.1578 936.011 74.9406C935.818 74.7234 935.721 74.4579 935.721 74.1442C935.721 73.2874 936.041 72.5453 936.681 71.9179C937.32 71.2904 938.117 70.9767 939.07 70.9767C940.168 70.9767 941.085 71.3145 941.821 71.9903C942.557 72.666 942.931 73.5408 942.943 74.6148C942.943 75.1336 942.823 75.6284 942.581 76.099C942.34 76.5696 942.05 76.9798 941.713 77.3298C941.375 77.6797 940.892 78.1262 940.265 78.6692C939.83 79.0432 939.227 79.5983 938.455 80.3344L937.387 81.348L938.762 81.3661C940.657 81.3661 941.664 81.3359 941.785 81.2756C941.869 81.2514 942.014 80.7145 942.219 79.6647V79.6104H942.943V79.6647C942.931 79.7009 942.853 80.2499 942.708 81.3118C942.563 82.3736 942.473 82.9287 942.437 82.977V83.0312H935.721V82.6874V82.4702C935.721 82.3857 935.758 82.2952 935.83 82.1987C935.902 82.1021 936.083 81.891 936.373 81.5652C936.723 81.179 937.025 80.8412 937.278 80.5516C937.387 80.4309 937.592 80.2077 937.893 79.8819C938.195 79.5561 938.4 79.3328 938.509 79.2122C938.617 79.0915 938.792 78.8924 939.034 78.6149C939.275 78.3373 939.444 78.1322 939.541 77.9995C939.637 77.8667 939.776 77.6857 939.957 77.4565C940.138 77.2272 940.265 77.0341 940.337 76.8773C940.409 76.7204 940.5 76.5454 940.608 76.3524C940.717 76.1593 940.795 75.9662 940.844 75.7732C940.892 75.5801 940.934 75.3991 940.97 75.2302C941.007 75.0612 941.025 74.8621 941.025 74.6329C941.025 73.8727 940.82 73.215 940.409 72.66C939.999 72.1049 939.414 71.8274 938.654 71.8274C938.255 71.8274 937.906 71.9299 937.604 72.1351C937.302 72.3402 937.091 72.5393 936.97 72.7324C936.85 72.9254 936.789 73.0401 936.789 73.0763C936.789 73.0883 936.82 73.0944 936.88 73.0944C937.097 73.0944 937.32 73.1788 937.55 73.3478C937.779 73.5167 937.893 73.7942 937.893 74.1804C937.893 74.482 937.797 74.7354 937.604 74.9406C937.411 75.1457 937.139 75.2543 936.789 75.2664Z" fill="#92D192"/>
<path d="M948.084 45.2477V44.1255H952.953V87.5474H948.084V86.4252H951.83V45.2477H948.084Z" fill="#92D192"/>
</g>
<path d="M1045.5 105.736H1009.79V159.106H1045.5V105.736Z" fill="black"/>
<g clip-path="url(#clip13_1056_27933)">
<path d="M1012.38 152.158V108.736H1017.25V109.858H1013.5V151.036H1017.25V152.158H1012.38Z" fill="#F2777A"/>
<path d="M1023.78 113.921C1023.46 113.921 1023.2 113.819 1023.02 113.614C1022.84 113.408 1022.75 113.143 1022.73 112.817C1022.73 112.153 1023.02 111.562 1023.6 111.043C1024.18 110.524 1024.88 110.265 1025.7 110.265C1026.12 110.265 1026.39 110.271 1026.5 110.283C1027.39 110.428 1028.07 110.748 1028.54 111.242C1029.01 111.737 1029.26 112.274 1029.27 112.853C1029.27 113.481 1029.06 114.09 1028.65 114.681C1028.24 115.273 1027.67 115.701 1026.95 115.967L1026.9 116.003C1026.9 116.015 1026.95 116.033 1027.06 116.057C1027.17 116.081 1027.34 116.135 1027.58 116.22C1027.83 116.304 1028.05 116.431 1028.27 116.6C1029.26 117.24 1029.76 118.084 1029.76 119.134C1029.76 120.087 1029.38 120.92 1028.63 121.632C1027.89 122.344 1026.94 122.7 1025.79 122.7C1024.83 122.7 1023.99 122.44 1023.29 121.921C1022.59 121.403 1022.24 120.745 1022.24 119.949C1022.24 119.611 1022.35 119.339 1022.57 119.134C1022.79 118.929 1023.06 118.82 1023.39 118.808C1023.72 118.808 1024 118.917 1024.22 119.134C1024.43 119.351 1024.54 119.623 1024.54 119.949C1024.54 120.081 1024.53 120.202 1024.49 120.311C1024.45 120.419 1024.41 120.516 1024.36 120.6C1024.31 120.685 1024.25 120.757 1024.16 120.817C1024.08 120.878 1024.01 120.926 1023.95 120.962C1023.89 120.998 1023.83 121.022 1023.77 121.035C1023.7 121.047 1023.66 121.065 1023.62 121.089L1023.55 121.107C1024.16 121.65 1024.91 121.921 1025.79 121.921C1026.46 121.921 1026.96 121.602 1027.29 120.962C1027.5 120.564 1027.6 119.955 1027.6 119.134V118.772C1027.6 117.626 1027.22 116.859 1026.44 116.473C1026.26 116.401 1025.89 116.359 1025.34 116.347L1024.58 116.329L1024.53 116.292C1024.5 116.256 1024.49 116.16 1024.49 116.003C1024.49 115.786 1024.54 115.677 1024.63 115.677C1024.97 115.677 1025.32 115.647 1025.68 115.586C1026.09 115.526 1026.47 115.273 1026.81 114.826C1027.14 114.38 1027.31 113.704 1027.31 112.799V112.654C1027.31 111.966 1027.1 111.49 1026.68 111.224C1026.41 111.055 1026.13 110.971 1025.83 110.971C1025.44 110.971 1025.09 111.037 1024.76 111.17C1024.43 111.303 1024.21 111.442 1024.07 111.586C1023.94 111.731 1023.87 111.804 1023.87 111.804H1023.93C1023.96 111.816 1024.01 111.828 1024.07 111.84C1024.13 111.852 1024.19 111.882 1024.25 111.93C1024.31 111.978 1024.39 112.021 1024.47 112.057C1024.56 112.093 1024.62 112.159 1024.65 112.256C1024.69 112.353 1024.74 112.443 1024.8 112.528C1024.86 112.612 1024.88 112.733 1024.85 112.89C1024.85 113.155 1024.77 113.39 1024.6 113.595C1024.43 113.801 1024.16 113.909 1023.78 113.921Z" fill="#F2777A"/>
<path d="M1025.34 137.18L1025.1 137.27C1024.94 137.331 1024.69 137.391 1024.38 137.451C1024.07 137.512 1023.72 137.554 1023.33 137.578H1022.99V136.745H1023.33C1023.9 136.721 1024.42 136.631 1024.91 136.474C1025.39 136.317 1025.73 136.172 1025.92 136.04C1026.11 135.907 1026.28 135.774 1026.43 135.641C1026.45 135.605 1026.52 135.587 1026.64 135.587C1026.75 135.587 1026.85 135.623 1026.95 135.696V141.108L1026.97 146.538C1027.05 146.622 1027.13 146.676 1027.19 146.7C1027.25 146.725 1027.39 146.749 1027.62 146.773C1027.85 146.797 1028.22 146.809 1028.74 146.809H1029.21V147.642H1029.01C1028.76 147.605 1027.8 147.587 1026.14 147.587C1024.5 147.587 1023.55 147.605 1023.29 147.642H1023.08V146.809H1023.55C1023.81 146.809 1024.04 146.809 1024.24 146.809C1024.43 146.809 1024.58 146.803 1024.69 146.791C1024.8 146.779 1024.89 146.761 1024.98 146.737C1025.06 146.712 1025.11 146.7 1025.12 146.7C1025.13 146.7 1025.17 146.67 1025.23 146.61C1025.29 146.55 1025.33 146.525 1025.34 146.538V137.18Z" fill="#F2777A"/>
<path d="M1034.75 109.858V108.736H1039.62V152.158H1034.75V151.036H1038.5V109.858H1034.75Z" fill="#F2777A"/>
</g>
</g>
<path d="M705.16 75.7627C706.232 75.496 706.885 74.4109 706.618 73.339L702.273 55.8714C702.006 54.7995 700.921 54.1468 699.849 54.4134C698.777 54.6801 698.125 55.7652 698.391 56.8371L702.254 72.3639L686.727 76.2266C685.655 76.4933 685.003 77.5784 685.269 78.6503C685.536 79.7222 686.621 80.375 687.693 80.1083L705.16 75.7627ZM587.82 87.5512C604.097 64.7628 626.619 57.9665 648.355 58.7511C670.177 59.5388 691.094 67.9842 703.647 75.5357L705.709 72.1081C692.729 64.3003 671.159 55.5716 648.499 54.7537C625.754 53.9326 601.799 61.0993 584.565 85.2263L587.82 87.5512Z" fill="white"/>
<path d="M320 0.102051V359.903" stroke="#F0F0F0" stroke-width="4"/>
<path d="M640 0.102051V359.903" stroke="#F0F0F0" stroke-width="4"/>
<path d="M382.216 76.7627C383.288 76.496 383.941 75.4109 383.674 74.339L379.329 56.8714C379.062 55.7995 377.977 55.1468 376.905 55.4134C375.833 55.6801 375.181 56.7652 375.447 57.8371L379.31 73.3639L363.783 77.2266C362.711 77.4933 362.059 78.5784 362.325 79.6503C362.592 80.7222 363.677 81.375 364.749 81.1083L382.216 76.7627ZM264.876 88.5512C281.154 65.7628 303.675 58.9665 325.411 59.7511C347.233 60.5388 368.15 68.9842 380.703 76.5357L382.765 73.1081C369.785 65.3003 348.215 56.5716 325.555 55.7537C302.81 54.9326 278.855 62.0993 261.621 86.2263L264.876 88.5512Z" fill="white"/>
<defs>
<clipPath id="clip0_1056_27933">
<rect width="320" height="360" fill="white" transform="translate(320)"/>
</clipPath>
<clipPath id="clip1_1056_27933">
<rect width="640" height="360" fill="white" transform="translate(160)"/>
</clipPath>
<clipPath id="clip2_1056_27933">
<rect width="3072" height="1728" fill="white" transform="translate(-1056 -684)"/>
</clipPath>
<clipPath id="clip3_1056_27933">
<rect width="6.008" height="18.352" fill="white" transform="translate(477.456 109.157)"/>
</clipPath>
<clipPath id="clip4_1056_27933">
<rect width="36.2" height="43.44" fill="white" transform="translate(522.18 43.4746)"/>
</clipPath>
<clipPath id="clip5_1056_27933">
<rect width="320" height="360" fill="white"/>
</clipPath>
<clipPath id="clip6_1056_27933">
<rect width="640" height="360" fill="white" transform="translate(-160)"/>
</clipPath>
<clipPath id="clip7_1056_27933">
<rect width="6.152" height="14.824" fill="white" transform="translate(209.039 170.904)"/>
</clipPath>
<clipPath id="clip8_1056_27933">
<rect width="6.008" height="18.352" fill="white" transform="translate(156.456 110.978)"/>
</clipPath>
<clipPath id="clip9_1056_27933">
<rect width="440" height="360" fill="white" transform="translate(640)"/>
</clipPath>
<clipPath id="clip10_1056_27933">
<rect width="640" height="360" fill="white" transform="translate(560)"/>
</clipPath>
<clipPath id="clip11_1056_27933">
<rect width="3072" height="1728" fill="white" transform="translate(-656 -684)"/>
</clipPath>
<clipPath id="clip12_1056_27933">
<rect width="36.2" height="43.44" fill="white" transform="translate(921.241 44.1162)"/>
</clipPath>
<clipPath id="clip13_1056_27933">
<rect width="36.2" height="43.44" fill="white" transform="translate(1007.91 108.727)"/>
</clipPath>
</defs>
</svg>
