<svg xmlns="http://www.w3.org/2000/svg" fill="none" viewBox="0 0 240 135">
  <rect width="240" height="135" fill="black" />

  <path
    stroke="white"
    d="M15.356 135 17 129.667l1-3.135 1-3.058 1-2.983 1-2.907 1-2.833 1-2.76 1-2.686 1-2.615 1-2.543 1-2.473 1-2.403 1-2.334 1-2.266 1-2.199 1-2.131 1-2.066 1-2.001 1-1.936 1-1.873 1-1.81 1-1.748 1-1.686 1-1.626 1-1.566 1-1.507 1-1.449 1-1.39 1-1.336 1-1.278 1-1.224 1-1.168 1-1.116 1-1.062 1-1.01 1-.96 1-.908 1-.858 1-.81 1-.76 1-.714 1-.667 1-.62 1-.576 1-.53 1-.488 1-.445 1-.402 1-.36 1-.32 1-.28 1-.242 1-.203 1-.165 1-.128 1-.092 1-.057 1-.023 1 .011 1 .045 1 .076 1 .108 1 .139 1 .169 1 .197 1 .227 1 .253 1 .281 1 .307 1 .332 1 .357 1 .38 1 .404 1 .426 1 .447 1 .468 1 .488 1 .507 1 .526 1 .544 1 .56 1 .576 1 .592 1 .607 1 .62 1 .633 1 .646 1 .658 1 .668 1 .678 1 .687 1 .696 1 .704 1 .71 1 .717 1 .722 1 .727 1 .73 1 .735 1 .736 1 .738 1 .739 1 .739 1 .738 1 .736 1 .735 1 .731 1 .728 1 .723 1 .718 1 .712 1 .705 1 .697 1 .689 1 .68 1 .67 1 .66 1 .647 1 .636 1 .623 1 .61 1 .594 1 .58 1 .563 1 .547 1 .529 1 .51 1 .493 1 .472 1 .45 1 .43 1 .409 1 .385 1 .361 1 .337 1 .312 1 .285 1 .26 1 .23 1 .204 1 .174 1 .145 1 .114 1 .082 1 .05 1 .018 1-.016 1-.05 1-.085 1-.122 1-.158 1-.195 1-.234 1-.273 1-.312 1-.353 1-.394 1-.437 1-.479 1-.522 1-.567 1-.612 1-.658 1-.705 1-.752 1-.8 1-.849 1-.899 1-.949 1-1 1-1.053 1-1.105 1-1.159 1-1.213 1-1.268 1-1.323 1-1.38 1-1.439 1-1.496 1-1.554 1-1.615 1-1.674 1-1.736 1-1.798 1-1.861 1-1.924 1-1.988 1-2.054 1-2.12 1-2.185 1-2.253 1-2.32 1-2.39 1-2.46 1-2.53 1-2.6 1-2.674 1-2.745 1-2.82 1-2.892 1-2.969 1-3.043 1-3.12 1-3.198 1-3.276 1-3.354 1-3.434.774-2.719"
  />
  <path
    fill="deepskyblue"
    fill-opacity=".5"
    stroke="deepskyblue"
    d="M34.286 120V85.714h17.143V120 61.071H68.57V120 51.429h17.143V120 52.929h17.143V120 61.714H120V120 73.929h17.143V120 85.714h17.143V120 93.214h17.142V120 92.571h17.143V120 79.929h17.143V120"
  />
</svg>
