<svg width="720" height="480" viewBox="0 0 720 480" fill="none" xmlns="http://www.w3.org/2000/svg">
<rect width="720" height="480" fill="black"/>
<path opacity="0.5" d="M270 432V60" stroke="white" stroke-miterlimit="10"/>
<path opacity="0.5" d="M450 432V60" stroke="white" stroke-miterlimit="10"/>
<path opacity="0.5" d="M78 240H629.233" stroke="white" stroke-miterlimit="10"/>
<path opacity="0.5" d="M360 432V60" stroke="white" stroke-miterlimit="10"/>
<path opacity="0.5" d="M540 432V60" stroke="white" stroke-miterlimit="10"/>
<path opacity="0.5" d="M630 432V60" stroke="white" stroke-miterlimit="10"/>
<path opacity="0.5" d="M180 432V60" stroke="white" stroke-miterlimit="10"/>
<path opacity="0.5" d="M78 150H629.233" stroke="white" stroke-miterlimit="10"/>
<path opacity="0.5" d="M78 330H629.233" stroke="white" stroke-miterlimit="10"/>
<path opacity="0.25" d="M315 432V60" stroke="white" stroke-miterlimit="10"/>
<path opacity="0.25" d="M495 432V60" stroke="white" stroke-miterlimit="10"/>
<path opacity="0.25" d="M405 432V60" stroke="white" stroke-miterlimit="10"/>
<path opacity="0.25" d="M585 432V60" stroke="white" stroke-miterlimit="10"/>
<path opacity="0.25" d="M225 432V60" stroke="white" stroke-miterlimit="10"/>
<path opacity="0.25" d="M135 432V60" stroke="white" stroke-miterlimit="10"/>
<path opacity="0.5" d="M78 240H630" stroke="white" stroke-miterlimit="10"/>
<path opacity="0.5" d="M78 150H630" stroke="white" stroke-miterlimit="10"/>
<path opacity="0.5" d="M78 60H630" stroke="white" stroke-miterlimit="10"/>
<path opacity="0.5" d="M78 330H630" stroke="white" stroke-miterlimit="10"/>
<path opacity="0.25" d="M78 195H630" stroke="white" stroke-miterlimit="10"/>
<path opacity="0.25" d="M78 105H630" stroke="white" stroke-miterlimit="10"/>
<path opacity="0.25" d="M78 285H630" stroke="white" stroke-miterlimit="10"/>
<path opacity="0.25" d="M78 375H630" stroke="white" stroke-miterlimit="10"/>
<path d="M78 420H620.197" stroke="white" stroke-width="1.5" stroke-miterlimit="10"/>
<path d="M629.25 420C624.99 421.581 619.705 424.277 616.429 427.134L619.009 420L616.429 412.868C619.705 415.724 624.99 418.421 629.25 420Z" fill="white"/>
<path d="M265.02 446.008V445.07C266.021 445.142 267.025 445.009 267.973 444.679C268.92 444.349 269.79 443.829 270.529 443.151C270.848 443.151 271.035 443.19 271.09 443.269C271.166 443.48 271.194 443.705 271.172 443.928V460.746C271.14 460.964 271.165 461.186 271.245 461.391C271.325 461.596 271.457 461.777 271.628 461.916C272.418 462.172 273.252 462.266 274.079 462.194H275.068V463.132C274.365 463.072 272.744 463.042 270.205 463.043C267.666 463.044 266.049 463.073 265.356 463.132V462.194H266.309C267.1 462.262 267.897 462.17 268.652 461.924C268.952 461.743 269.106 461.351 269.106 460.745V445.217C267.821 445.785 266.424 446.056 265.02 446.008Z" fill="white"/>
<path d="M51.2271 227.376V226.438C52.2275 226.51 53.2321 226.377 54.1794 226.047C55.1267 225.718 55.9967 225.198 56.736 224.52C57.0554 224.52 57.2424 224.559 57.2971 224.637C57.3731 224.848 57.4011 225.073 57.3791 225.296V242.113C57.347 242.331 57.3721 242.554 57.4521 242.759C57.532 242.964 57.664 243.145 57.835 243.284C58.6252 243.54 59.4587 243.634 60.286 243.562H61.2751V244.5C60.5724 244.44 58.9514 244.41 56.412 244.41C53.8727 244.41 52.2564 244.44 51.563 244.5V243.562H52.516C53.3073 243.63 54.1043 243.538 54.8591 243.291C55.1617 243.111 55.313 242.718 55.313 242.113V226.585C54.028 227.153 52.6312 227.424 51.2271 227.376Z" fill="white"/>
<path d="M445.043 463.132C445.032 462.897 445.049 462.663 445.094 462.432C445.158 462.278 445.254 462.138 445.374 462.022L451.086 455.606C453.19 453.238 454.243 451.022 454.243 448.958C454.276 447.73 453.907 446.524 453.193 445.524C452.856 445.057 452.407 444.682 451.888 444.432C451.369 444.182 450.796 444.065 450.22 444.092C449.351 444.091 448.504 444.372 447.807 444.892C447.053 445.448 446.49 446.223 446.193 447.111C446.321 447.085 446.452 447.076 446.582 447.082C446.796 447.071 447.01 447.107 447.208 447.189C447.405 447.271 447.582 447.397 447.725 447.556C447.995 447.862 448.141 448.257 448.134 448.664C448.151 448.89 448.114 449.117 448.025 449.326C447.936 449.535 447.799 449.719 447.624 449.864C447.34 450.105 446.983 450.243 446.61 450.256C446.454 450.254 446.297 450.239 446.143 450.212C445.876 450.125 445.639 449.963 445.46 449.746C445.315 449.588 445.204 449.402 445.132 449.2C445.061 448.998 445.03 448.784 445.043 448.57C445.051 447.16 445.617 445.81 446.618 444.816C447.126 444.272 447.744 443.842 448.431 443.555C449.118 443.268 449.858 443.13 450.602 443.151C452.261 443.093 453.878 443.677 455.118 444.781C455.9 445.518 456.458 446.462 456.727 447.503C456.997 448.543 456.966 449.639 456.64 450.663C456.48 451.164 456.27 451.647 456.015 452.107C455.64 452.703 455.199 453.254 454.699 453.75C454.06 454.425 453.484 455.002 452.97 455.48C452.457 455.958 451.624 456.706 450.47 457.724L447.315 460.817H452.685C453.632 460.914 454.589 460.835 455.507 460.583C455.855 459.731 456.076 458.833 456.162 457.917H456.909L456.076 463.132H445.043Z" fill="white"/>
<path d="M50.2003 67.948C50.1898 67.7135 50.2065 67.4786 50.2503 67.248C50.3148 67.0932 50.4104 66.9532 50.5313 66.837L56.2433 60.421C58.3473 58.0543 59.3993 55.8387 59.3993 53.774C59.4321 52.5458 59.0639 51.3403 58.3503 50.34C58.0124 49.8732 57.5636 49.4979 57.0444 49.2479C56.5252 48.9979 55.952 48.8811 55.3763 48.908C54.5068 48.9077 53.6605 49.1883 52.9633 49.708C52.2096 50.2635 51.6461 51.0386 51.3503 51.927C51.478 51.9014 51.6083 51.8917 51.7383 51.898C51.9521 51.8864 52.1657 51.9229 52.3635 52.0047C52.5613 52.0866 52.7383 52.2117 52.8813 52.371C53.1509 52.677 53.297 53.0723 53.2913 53.48C53.3081 53.7062 53.2706 53.9331 53.1819 54.1419C53.0931 54.3506 52.9558 54.5351 52.7813 54.68C52.4966 54.9202 52.1396 55.0582 51.7673 55.072C51.6107 55.0699 51.4545 55.0549 51.3003 55.027C51.0329 54.9405 50.7959 54.7791 50.6173 54.562C50.4726 54.4039 50.3611 54.2183 50.2895 54.0163C50.2178 53.8143 50.1875 53.6 50.2003 53.386C50.2077 51.9755 50.7741 50.6255 51.7753 49.632C52.2831 49.0877 52.9008 48.6578 53.5876 48.3707C54.2743 48.0836 55.0143 47.946 55.7583 47.967C57.4172 47.9095 59.0346 48.4932 60.2743 49.597C61.0571 50.334 61.6157 51.2772 61.8856 52.3179C62.1556 53.3586 62.1261 54.4544 61.8003 55.479C61.6397 55.9796 61.4303 56.4632 61.1753 56.923C60.801 57.5187 60.3598 58.0696 59.8603 58.565C59.2203 59.2403 58.6437 59.8173 58.1303 60.296C57.617 60.7747 56.7837 61.5223 55.6303 62.539L52.4763 65.633H57.8453C58.7927 65.73 59.7498 65.6507 60.6683 65.399C61.0158 64.5472 61.2362 63.6489 61.3223 62.733H62.0693L61.2373 67.948H50.2003Z" fill="white"/>
<path d="M621.644 459.075C621.603 458.594 621.753 458.116 622.061 457.745C622.182 457.611 622.329 457.504 622.493 457.43C622.657 457.356 622.835 457.318 623.015 457.316C623.449 457.308 623.869 457.47 624.185 457.767C624.347 457.94 624.473 458.143 624.557 458.365C624.64 458.586 624.679 458.822 624.671 459.059C624.663 459.296 624.608 459.529 624.51 459.744C624.411 459.96 624.272 460.154 624.098 460.315C623.907 460.472 623.684 460.585 623.444 460.646C623.205 460.708 622.954 460.716 622.711 460.671C623.171 461.457 623.88 462.066 624.726 462.403C625.523 462.746 626.379 462.929 627.246 462.941C627.686 462.93 628.119 462.825 628.514 462.633C628.91 462.44 629.26 462.165 629.54 461.826C630.338 460.711 630.703 459.345 630.568 457.981C630.637 456.711 630.329 455.449 629.684 454.352C629.401 453.92 629.01 453.57 628.549 453.337C628.088 453.104 627.575 452.996 627.059 453.024H625.764C625.548 453.034 625.331 453.02 625.117 452.982C625.021 452.954 624.973 452.86 624.973 452.7C624.973 452.513 625.149 452.4 625.504 452.362C625.889 452.356 626.274 452.328 626.655 452.277C627.194 452.271 627.721 452.121 628.182 451.842C628.642 451.563 629.02 451.166 629.274 450.691C629.849 449.633 630.132 448.441 630.095 447.238C630.143 446.772 630.091 446.302 629.944 445.858C629.796 445.413 629.556 445.006 629.239 444.661C628.705 444.166 628.002 443.894 627.274 443.898C626.528 443.908 625.79 444.052 625.095 444.324C624.373 444.578 623.754 445.061 623.333 445.7C624.56 445.7 625.173 446.213 625.173 447.238C625.187 447.649 625.039 448.048 624.761 448.351C624.621 448.498 624.45 448.613 624.262 448.689C624.073 448.765 623.87 448.8 623.667 448.791C623.467 448.797 623.267 448.762 623.08 448.689C622.894 448.616 622.724 448.505 622.58 448.365C622.432 448.212 622.317 448.031 622.242 447.832C622.168 447.633 622.135 447.42 622.146 447.208C622.149 446.642 622.288 446.086 622.55 445.585C622.813 445.084 623.192 444.653 623.655 444.329C624.729 443.522 626.047 443.106 627.39 443.151C628.727 443.122 630.037 443.531 631.12 444.315C631.609 444.637 632.01 445.075 632.287 445.591C632.564 446.106 632.709 446.683 632.707 447.268C632.712 448.447 632.317 449.593 631.586 450.519C630.851 451.486 629.84 452.207 628.686 452.588C630.068 452.826 631.329 453.525 632.262 454.572C633.117 455.502 633.593 456.718 633.598 457.981C633.601 458.75 633.441 459.512 633.129 460.215C632.817 460.918 632.36 461.548 631.787 462.062C630.643 463.106 629.169 463.716 627.622 463.785C626.075 463.854 624.553 463.377 623.32 462.439C622.796 462.049 622.372 461.542 622.08 460.957C621.789 460.373 621.64 459.728 621.644 459.075Z" fill="white"/>
<path d="M84.1721 453.537C84.0631 451.214 84.4423 448.894 85.2851 446.726C85.6608 445.653 86.3691 444.727 87.307 444.084C88.2449 443.441 89.3635 443.114 90.5001 443.151C91.0366 443.154 91.5706 443.226 92.0891 443.364C92.7657 443.578 93.3931 443.924 93.9351 444.382C94.6482 444.95 95.2179 445.677 95.5981 446.506C96.4962 448.737 96.9054 451.134 96.7981 453.537C96.9067 455.846 96.5275 458.152 95.6851 460.305C95.2834 461.354 94.566 462.253 93.632 462.877C92.6979 463.502 91.5932 463.821 90.4701 463.791C89.5225 463.779 88.5912 463.543 87.7521 463.103C86.7769 462.58 85.9945 461.758 85.5191 460.759C84.4953 458.495 84.0333 456.018 84.1721 453.537ZM86.6621 453.171C86.6091 455.285 86.7168 457.401 86.9841 459.499C87.1062 460.559 87.5901 461.545 88.3541 462.29C88.9421 462.841 89.7207 463.143 90.5265 463.132C91.3322 463.121 92.1023 462.798 92.6751 462.231C93.4268 461.46 93.8898 460.454 93.9861 459.382C94.4065 455.375 94.4165 451.335 94.0161 447.326C93.8859 446.27 93.3724 445.298 92.5731 444.595C91.9782 444.11 91.2402 443.834 90.4731 443.811C90.198 443.813 89.9244 443.852 89.6601 443.928C89.3043 444.04 88.9627 444.192 88.6421 444.382C88.1856 444.666 87.8177 445.072 87.5801 445.554C87.2392 446.21 87.0088 446.917 86.8981 447.648C86.7048 449.482 86.626 451.327 86.6621 453.171Z" fill="white"/>
<path d="M49.8791 418.887C49.7702 416.564 50.1494 414.243 50.9921 412.075C51.3678 411.002 52.0762 410.077 53.0141 409.434C53.9521 408.791 55.0707 408.464 56.2071 408.501C56.7437 408.504 57.2778 408.575 57.7961 408.714C58.4729 408.927 59.1004 409.273 59.6421 409.731C60.3549 410.299 60.9244 411.027 61.3051 411.855C62.2032 414.086 62.6124 416.484 62.5051 418.887C62.6138 421.196 62.2345 423.502 61.3921 425.654C60.9907 426.704 60.2735 427.603 59.3394 428.227C58.4053 428.852 57.3004 429.171 56.1771 429.141C55.2295 429.129 54.2982 428.893 53.4591 428.452C52.4837 427.929 51.7013 427.108 51.2261 426.108C50.2023 423.845 49.7402 421.367 49.8791 418.887ZM52.3691 418.521C52.3162 420.635 52.4239 422.751 52.6911 424.849C52.8138 425.909 53.2975 426.895 54.0611 427.64C54.6494 428.191 55.4279 428.492 56.2335 428.481C57.0391 428.47 57.8091 428.147 58.3821 427.581C59.1336 426.81 59.5966 425.803 59.6931 424.731C60.1135 420.724 60.1236 416.685 59.7231 412.676C59.5927 411.619 59.0793 410.647 58.2801 409.944C57.685 409.46 56.9471 409.184 56.1801 409.16C55.905 409.162 55.6315 409.201 55.3671 409.277C55.0116 409.389 54.67 409.541 54.3491 409.731C53.8931 410.015 53.5253 410.421 53.2871 410.903C52.9439 411.559 52.7117 412.268 52.6001 413C52.408 414.834 52.3308 416.678 52.3691 418.521Z" fill="white"/>
<path d="M90 69.053V432" stroke="white" stroke-width="1.5" stroke-miterlimit="10"/>
<path d="M90.0002 60C88.4192 64.26 85.7232 69.545 82.8662 72.821L90.0002 70.241L97.1322 72.821C94.2762 69.545 91.5792 64.26 90.0002 60Z" fill="white"/>
<path d="M475 331H512V411H475V331Z" fill="black"/>
<rect x="90" y="330" width="360" height="90" fill="#1C758A" stroke="white"/>
<path d="M219.65 384C219.29 383.94 218.14 383.91 216.2 383.91C214.42 383.91 213.41 383.94 213.17 384H212.96V382.62H213.41C214.85 382.56 215.77 382.14 216.17 381.36C216.19 381.3 216.72 379.73 217.76 376.65C218.8 373.55 219.83 370.47 220.85 367.41C221.89 364.33 222.42 362.78 222.44 362.76C222.5 362.6 222.69 362.52 223.01 362.52H223.28C223.68 362.54 223.92 362.61 224 362.73C224.02 362.75 224.99 365.61 226.91 371.31C228.85 377.01 230.05 380.57 230.51 381.99C230.57 382.11 230.64 382.21 230.72 382.29C230.94 382.49 231.57 382.6 232.61 382.62H233.51V384H233.24C232.94 383.94 231.67 383.91 229.43 383.91C226.85 383.91 225.41 383.94 225.11 384H224.81V382.62H225.2C226.6 382.62 227.3 382.44 227.3 382.08C227.3 382.04 227.06 381.3 226.58 379.86L225.86 377.73H218.87L218.27 379.5C217.87 380.68 217.67 381.33 217.67 381.45C217.67 381.55 217.7 381.64 217.76 381.72C217.88 381.98 218.13 382.2 218.51 382.38C218.91 382.54 219.33 382.62 219.77 382.62H219.92V384H219.65ZM224.48 373.59C223.9 371.85 223.39 370.34 222.95 369.06L222.35 367.29L220.85 371.79L219.32 376.32C219.32 376.34 220.33 376.35 222.35 376.35H225.41L224.48 373.59ZM235.58 382.62H236C236.78 382.62 237.25 382.48 237.41 382.2V381.96C237.41 381.78 237.41 381.55 237.41 381.27C237.43 380.99 237.44 380.68 237.44 380.34C237.44 379.98 237.44 379.59 237.44 379.17C237.44 378.73 237.44 378.31 237.44 377.91C237.44 377.29 237.44 376.63 237.44 375.93C237.44 375.21 237.44 374.62 237.44 374.16L237.41 373.47C237.35 373.09 237.2 372.84 236.96 372.72C236.74 372.58 236.3 372.49 235.64 372.45H235.1V371.76C235.1 371.3 235.12 371.07 235.16 371.07L235.46 371.04C235.66 371.02 235.94 371 236.3 370.98C236.66 370.96 237.02 370.94 237.38 370.92C237.7 370.9 238.05 370.88 238.43 370.86C238.81 370.82 239.1 370.79 239.3 370.77C239.5 370.75 239.61 370.74 239.63 370.74H239.72V372.81C240.1 372.17 240.52 371.67 240.98 371.31C241.44 370.95 242.05 370.77 242.81 370.77C243.37 370.77 243.85 370.88 244.25 371.1C245.03 371.5 245.42 372.07 245.42 372.81C245.42 373.25 245.27 373.62 244.97 373.92C244.67 374.2 244.31 374.34 243.89 374.34C243.47 374.34 243.11 374.2 242.81 373.92C242.53 373.64 242.39 373.28 242.39 372.84C242.39 372.5 242.47 372.22 242.63 372C242.67 371.92 242.69 371.87 242.69 371.85C242.65 371.81 242.42 371.85 242 371.97C241.68 372.13 241.44 372.28 241.28 372.42C240.48 373.18 240.02 374.44 239.9 376.2V377.37C239.88 378.15 239.87 378.82 239.87 379.38C239.87 379.64 239.87 379.92 239.87 380.22C239.87 380.5 239.87 380.75 239.87 380.97C239.89 381.19 239.9 381.39 239.9 381.57C239.9 381.75 239.9 381.9 239.9 382.02V382.17C239.98 382.33 240.1 382.43 240.26 382.47C240.46 382.55 240.99 382.6 241.85 382.62H242.78V384H242.51C242.15 383.94 240.88 383.91 238.7 383.91C236.74 383.91 235.62 383.94 235.34 384H235.1V382.62H235.58ZM258.698 376.65C258.698 376.79 258.628 376.93 258.488 377.07H250.028V377.52C250.028 379 250.228 380.12 250.628 380.88C251.348 382.36 252.588 383.1 254.348 383.1C255.208 383.1 255.928 382.78 256.508 382.14C256.908 381.74 257.218 381.22 257.438 380.58C257.498 380.36 257.558 380.22 257.618 380.16C257.678 380.1 257.838 380.07 258.098 380.07C258.498 380.07 258.698 380.17 258.698 380.37C258.698 380.45 258.668 380.58 258.608 380.76C258.228 381.8 257.618 382.66 256.778 383.34C255.958 384 254.948 384.33 253.748 384.33C253.368 384.33 252.928 384.28 252.428 384.18C251.288 383.96 250.268 383.44 249.368 382.62C248.468 381.8 247.828 380.81 247.448 379.65C247.208 378.93 247.088 378.2 247.088 377.46C247.088 375.62 247.628 374.07 248.708 372.81C249.788 371.53 251.118 370.79 252.698 370.59C252.778 370.57 252.918 370.56 253.118 370.56C254.938 370.56 256.318 371.1 257.258 372.18C258.218 373.24 258.698 374.73 258.698 376.65ZM256.238 375.75C256.058 373.57 255.318 372.25 254.018 371.79C253.878 371.73 253.668 371.69 253.388 371.67C252.348 371.67 251.498 372.15 250.838 373.11C250.438 373.75 250.178 374.64 250.058 375.78V375.99H256.238V375.75ZM264.198 374.37C263.898 374.69 263.518 374.85 263.058 374.85C262.598 374.85 262.218 374.69 261.918 374.37C261.618 374.05 261.468 373.67 261.468 373.23C261.468 372.95 261.548 372.63 261.708 372.27C261.968 371.73 262.488 371.31 263.268 371.01C264.048 370.71 264.998 370.56 266.118 370.56C267.438 370.56 268.578 370.86 269.538 371.46C270.518 372.06 271.158 372.84 271.458 373.8C271.558 374.08 271.608 374.4 271.608 374.76C271.628 375.1 271.638 376.24 271.638 378.18C271.638 380.14 271.638 381.29 271.638 381.63C271.658 381.95 271.718 382.2 271.818 382.38C271.938 382.66 272.138 382.8 272.418 382.8C272.678 382.8 272.868 382.66 272.988 382.38C273.108 382.14 273.168 381.59 273.168 380.73V379.65H274.368V380.82C274.348 381.62 274.318 382.09 274.278 382.23C274.098 382.79 273.768 383.26 273.288 383.64C272.808 384 272.238 384.18 271.578 384.18C271.078 384.18 270.628 384.01 270.228 383.67C269.848 383.31 269.588 382.88 269.448 382.38V382.26C269.388 382.32 269.268 382.46 269.088 382.68C268.908 382.88 268.778 383.02 268.698 383.1C267.718 383.92 266.578 384.33 265.278 384.33C264.238 384.33 263.308 384.11 262.488 383.67C261.668 383.23 261.118 382.65 260.838 381.93C260.678 381.55 260.598 381.17 260.598 380.79C260.598 379.85 260.988 378.99 261.768 378.21C262.228 377.75 262.798 377.37 263.478 377.07C264.838 376.45 266.578 376.08 268.698 375.96H269.118V375.3C269.118 374.62 269.058 374.12 268.938 373.8C268.738 373.14 268.388 372.62 267.888 372.24C267.388 371.86 266.768 371.67 266.028 371.67C264.688 371.67 264.018 371.75 264.018 371.91C264.458 372.21 264.678 372.65 264.678 373.23C264.678 373.67 264.518 374.05 264.198 374.37ZM269.118 378.75C269.118 377.59 269.108 377.01 269.088 377.01C269.028 377.01 268.978 377.02 268.938 377.04C266.198 377.22 264.448 378.03 263.688 379.47C263.468 379.87 263.358 380.32 263.358 380.82C263.358 381.5 263.598 382.07 264.078 382.53C264.558 382.99 265.148 383.22 265.848 383.22C266.648 383.22 267.328 382.98 267.888 382.5C268.468 382.02 268.848 381.43 269.028 380.73C269.068 380.59 269.098 379.93 269.118 378.75ZM283.758 373.59C283.758 373.33 283.898 373.13 284.178 372.99H303.288C303.588 373.13 303.738 373.33 303.738 373.59C303.738 373.81 303.598 374 303.318 374.16L293.778 374.19H284.238C283.918 374.09 283.758 373.89 283.758 373.59ZM283.758 379.41C283.758 379.11 283.918 378.91 284.238 378.81H303.318C303.338 378.83 303.378 378.87 303.438 378.93C303.518 378.97 303.568 379.01 303.588 379.05C303.628 379.07 303.658 379.12 303.678 379.2C303.718 379.26 303.738 379.33 303.738 379.41C303.738 379.67 303.588 379.87 303.288 380.01H284.178C283.898 379.87 283.758 379.67 283.758 379.41ZM325.408 384C325.068 383.94 323.478 383.91 320.638 383.91C317.838 383.91 316.268 383.94 315.928 384H315.568V382.62H316.348C317.508 382.62 318.258 382.59 318.598 382.53C318.758 382.51 318.998 382.39 319.318 382.17V366.66C319.278 366.66 319.198 366.69 319.078 366.75C318.158 367.11 317.128 367.3 315.988 367.32H315.418V365.94H315.988C317.668 365.88 319.068 365.5 320.188 364.8C320.548 364.6 320.858 364.37 321.118 364.11C321.158 364.05 321.278 364.02 321.478 364.02C321.678 364.02 321.848 364.08 321.988 364.2V373.17L322.018 382.17C322.318 382.47 322.968 382.62 323.968 382.62H324.958H325.738V384H325.408Z" fill="white"/>
<path d="M91.039 315.979C90.5572 315.979 90.2711 315.969 90.1807 315.948C90.0602 315.907 90 315.794 90 315.608L90 315.268L90 314.774L90.4518 314.156C91.1143 313.249 91.8823 312.404 92.7557 311.621C95.6469 308.963 99.1555 307.294 103.281 306.614C103.884 306.491 104.576 306.398 105.36 306.336C105.721 306.295 223.809 306.274 235.765 306.274C246.005 306.254 251.682 306.243 252.796 306.243C253.91 306.223 254.904 306.161 255.777 306.058C258.398 305.769 260.837 305.12 263.096 304.111C265.324 303.101 267.116 301.854 268.472 300.371C268.532 300.33 268.607 300.278 268.698 300.216C268.758 300.134 268.803 300.093 268.833 300.093C268.833 300.072 268.878 300.052 268.969 300.031C269.059 300.01 269.149 300 269.24 300C269.3 300 269.45 300 269.691 300C269.932 300 270.098 300 270.188 300C270.249 300 270.324 300.01 270.414 300.031C270.505 300.052 270.55 300.072 270.55 300.093C270.55 300.093 270.595 300.124 270.685 300.185C270.745 300.247 270.806 300.309 270.866 300.371C272.221 301.854 274.028 303.101 276.287 304.111C278.516 305.12 280.94 305.769 283.56 306.058C284.434 306.161 285.427 306.223 286.542 306.243C287.656 306.243 293.318 306.254 303.528 306.274C315.514 306.274 434.279 306.316 434.64 306.357C435.423 306.419 436.116 306.511 436.719 306.635C439.941 307.15 442.832 308.325 445.392 310.158C447.018 311.292 448.404 312.631 449.548 314.176L450 314.795L450 315.258C450 315.629 449.955 315.845 449.864 315.907C449.774 315.969 449.473 316 448.961 316C448.569 316 448.313 315.99 448.193 315.969C448.103 315.928 447.997 315.845 447.877 315.722C447.003 314.671 445.904 313.744 444.579 312.94C441.597 311.065 438.104 310.014 434.098 309.788C433.827 309.767 315.273 309.736 303.618 309.736C291.933 309.736 285.954 309.726 285.683 309.705C281.979 309.52 278.546 308.53 275.383 306.738C274.6 306.305 273.697 305.687 272.673 304.883C271.378 303.791 270.384 302.761 269.691 301.793C268.969 302.802 267.96 303.833 266.665 304.883C265.641 305.687 264.737 306.305 263.954 306.738C260.792 308.53 257.359 309.52 253.654 309.705C253.383 309.726 247.405 309.736 235.72 309.736C224.065 309.736 106.173 309.746 105.902 309.767C102.92 309.911 100.24 310.529 97.8605 311.621C95.4511 312.713 93.5387 314.073 92.1232 315.701C92.0028 315.845 91.8974 315.928 91.807 315.948C91.7167 315.969 91.4607 315.979 91.039 315.979Z" fill="white"/>
<path d="M458.32 331.19C458.32 330.87 458.33 330.68 458.35 330.62C458.39 330.54 458.5 330.5 458.68 330.5L459.49 330.5L460.09 330.8C460.97 331.24 461.79 331.75 462.55 332.33C465.13 334.25 466.75 336.58 467.41 339.32C467.53 339.72 467.62 340.18 467.68 340.7C467.72 340.94 467.74 345.03 467.74 352.97C467.76 359.77 467.77 363.54 467.77 364.28C467.79 365.02 467.85 365.68 467.95 366.26C468.23 368 468.86 369.62 469.84 371.12C470.82 372.6 472.03 373.79 473.47 374.69C473.51 374.73 473.56 374.78 473.62 374.84C473.7 374.88 473.74 374.91 473.74 374.93C473.76 374.93 473.78 374.96 473.8 375.02C473.82 375.08 473.83 375.14 473.83 375.2C473.83 375.24 473.83 375.34 473.83 375.5C473.83 375.66 473.83 375.77 473.83 375.83C473.83 375.87 473.82 375.92 473.8 375.98C473.78 376.04 473.76 376.07 473.74 376.07C473.74 376.07 473.71 376.1 473.65 376.16C473.59 376.2 473.53 376.24 473.47 376.28C472.03 377.18 470.82 378.38 469.84 379.88C468.86 381.36 468.23 382.97 467.95 384.71C467.85 385.29 467.79 385.95 467.77 386.69C467.77 387.43 467.76 391.19 467.74 397.97C467.74 405.93 467.72 410.03 467.68 410.27C467.62 410.79 467.53 411.25 467.41 411.65C466.91 413.79 465.77 415.71 463.99 417.41C462.89 418.49 461.59 419.41 460.09 420.17L459.49 420.47H459.04C458.68 420.47 458.47 420.44 458.41 420.38C458.35 420.32 458.32 420.12 458.32 419.78C458.32 419.52 458.33 419.35 458.35 419.27C458.39 419.21 458.47 419.14 458.59 419.06C459.61 418.48 460.51 417.75 461.29 416.87C463.11 414.89 464.13 412.57 464.35 409.91C464.37 409.73 464.38 405.77 464.38 398.03C464.38 390.27 464.39 386.3 464.41 386.12C464.59 383.66 465.55 381.38 467.29 379.28C467.71 378.76 468.31 378.16 469.09 377.48C470.15 376.62 471.15 375.96 472.09 375.5C471.11 375.02 470.11 374.35 469.09 373.49C468.31 372.81 467.71 372.21 467.29 371.69C465.55 369.59 464.59 367.31 464.41 364.85C464.39 364.67 464.38 360.7 464.38 352.94C464.38 345.2 464.37 341.24 464.35 341.06C464.21 339.08 463.61 337.3 462.55 335.72C461.49 334.12 460.17 332.85 458.59 331.91C458.45 331.83 458.37 331.76 458.35 331.7C458.33 331.64 458.32 331.47 458.32 331.19Z" fill="white"/>
<path d="M492.724 343.788L492.312 343.947C492.017 344.052 491.594 344.158 491.045 344.264C490.496 344.369 489.883 344.443 489.207 344.485H488.605V343.028H489.207C490.2 342.986 491.119 342.827 491.964 342.553C492.809 342.278 493.4 342.024 493.738 341.792C494.076 341.56 494.372 341.327 494.625 341.095C494.668 341.032 494.794 341 495.006 341C495.196 341 495.375 341.063 495.544 341.19V350.664L495.576 360.17C495.724 360.318 495.851 360.413 495.956 360.455C496.062 360.498 496.315 360.54 496.717 360.582C497.118 360.624 497.773 360.646 498.681 360.646H499.505V362.103H499.157C498.713 362.04 497.034 362.008 494.118 362.008C491.246 362.008 489.587 362.04 489.144 362.103H488.763V360.646H489.587C490.052 360.646 490.453 360.646 490.791 360.646C491.129 360.646 491.393 360.635 491.584 360.614C491.774 360.593 491.943 360.561 492.091 360.519C492.238 360.477 492.323 360.455 492.344 360.455C492.365 360.455 492.429 360.403 492.534 360.297C492.64 360.191 492.703 360.149 492.724 360.17V343.788Z" fill="white"/>
<path d="M489.428 391.666C488.858 391.666 488.404 391.476 488.066 391.096C487.728 390.716 487.559 390.251 487.559 389.702C487.559 388.202 488.118 386.903 489.238 385.805C490.358 384.706 491.752 384.157 493.421 384.157C495.343 384.157 496.948 384.748 498.237 385.931C499.526 387.114 500.18 388.646 500.202 390.526C500.202 391.434 499.99 392.3 499.568 393.124C499.145 393.948 498.638 394.666 498.047 395.279C497.455 395.891 496.61 396.673 495.512 397.624C494.752 398.278 493.695 399.25 492.343 400.539L490.474 402.313L492.882 402.345C496.199 402.345 497.962 402.292 498.174 402.186C498.322 402.144 498.575 401.204 498.934 399.366V399.271H500.202V399.366C500.18 399.43 500.043 400.391 499.79 402.25C499.536 404.109 499.378 405.08 499.314 405.165V405.26H487.559V404.278C487.559 404.13 487.622 403.971 487.749 403.802C487.876 403.633 488.192 403.264 488.699 402.693C489.312 402.017 489.84 401.426 490.284 400.919C490.474 400.708 490.833 400.317 491.361 399.747C491.889 399.176 492.248 398.785 492.438 398.574C492.629 398.363 492.935 398.014 493.357 397.528C493.78 397.043 494.076 396.684 494.245 396.451C494.414 396.219 494.656 395.902 494.973 395.501C495.29 395.099 495.512 394.761 495.639 394.487C495.765 394.212 495.924 393.906 496.114 393.568C496.304 393.23 496.441 392.892 496.526 392.554C496.61 392.216 496.684 391.899 496.748 391.603C496.811 391.307 496.843 390.959 496.843 390.557C496.843 389.227 496.484 388.075 495.765 387.104C495.047 386.132 494.023 385.646 492.692 385.646C491.995 385.646 491.382 385.826 490.854 386.185C490.326 386.544 489.956 386.892 489.745 387.23C489.534 387.568 489.428 387.769 489.428 387.832C489.428 387.854 489.481 387.864 489.587 387.864C489.967 387.864 490.358 388.012 490.759 388.308C491.16 388.603 491.361 389.089 491.361 389.765C491.361 390.293 491.192 390.737 490.854 391.096C490.516 391.455 490.041 391.645 489.428 391.666Z" fill="white"/>
<path d="M504.986 376.552H482.806V374.651H504.986V376.552Z" fill="white"/>
<rect x="256" y="264" width="28" height="31" fill="black"/>
<path d="M264.003 289.985C263.992 289.75 264.009 289.515 264.054 289.285C264.118 289.13 264.214 288.991 264.334 288.875L270.046 282.459C272.15 280.091 273.203 277.875 273.203 275.811C273.236 274.582 272.867 273.377 272.153 272.377C271.816 271.91 271.367 271.535 270.848 271.285C270.329 271.035 269.756 270.918 269.18 270.945C268.311 270.944 267.464 271.225 266.767 271.745C266.013 272.301 265.45 273.076 265.153 273.964C265.281 273.938 265.412 273.929 265.542 273.935C265.756 273.923 265.97 273.96 266.167 274.042C266.365 274.124 266.542 274.249 266.685 274.409C266.955 274.714 267.1 275.11 267.094 275.517C267.111 275.743 267.074 275.97 266.985 276.179C266.896 276.388 266.759 276.572 266.584 276.717C266.3 276.958 265.943 277.096 265.57 277.109C265.414 277.107 265.257 277.092 265.103 277.065C264.836 276.978 264.599 276.816 264.42 276.599C264.275 276.441 264.164 276.255 264.092 276.053C264.021 275.851 263.99 275.637 264.003 275.423C264.011 274.012 264.577 272.662 265.578 271.669C266.086 271.125 266.704 270.695 267.391 270.408C268.078 270.121 268.818 269.983 269.562 270.004C271.221 269.946 272.838 270.53 274.078 271.634C274.86 272.371 275.418 273.315 275.687 274.355C275.957 275.396 275.926 276.492 275.6 277.516C275.439 278.016 275.23 278.5 274.975 278.96C274.6 279.556 274.159 280.107 273.659 280.603C273.02 281.278 272.444 281.855 271.93 282.333C271.417 282.811 270.584 283.559 269.43 284.577L266.275 287.67H271.645C272.592 287.767 273.549 287.688 274.467 287.436C274.815 286.584 275.036 285.686 275.122 284.77H275.869L275.036 289.985H264.003Z" fill="white"/>
</svg>
