<svg width="720" height="480" viewBox="0 0 720 480" fill="none" xmlns="http://www.w3.org/2000/svg">
<rect width="720" height="480" fill="black"/>
<path d="M720 0H0V480H720V0Z" fill="black"/>
<path opacity="0.5" d="M270 432V60" stroke="white" stroke-miterlimit="10"/>
<path opacity="0.5" d="M450 432V60" stroke="white" stroke-miterlimit="10"/>
<path opacity="0.5" d="M78 240H629.233" stroke="white" stroke-miterlimit="10"/>
<path opacity="0.5" d="M360 432V60" stroke="white" stroke-miterlimit="10"/>
<path opacity="0.5" d="M540 432V60" stroke="white" stroke-miterlimit="10"/>
<path opacity="0.5" d="M630 432V60" stroke="white" stroke-miterlimit="10"/>
<path opacity="0.5" d="M180 432V60" stroke="white" stroke-miterlimit="10"/>
<path opacity="0.5" d="M78 150H629.233" stroke="white" stroke-miterlimit="10"/>
<path opacity="0.5" d="M78 330H629.233" stroke="white" stroke-miterlimit="10"/>
<path opacity="0.25" d="M315 432V60" stroke="white" stroke-miterlimit="10"/>
<path opacity="0.25" d="M495 432V60" stroke="white" stroke-miterlimit="10"/>
<path opacity="0.25" d="M405 432V60" stroke="white" stroke-miterlimit="10"/>
<path opacity="0.25" d="M585 432V60" stroke="white" stroke-miterlimit="10"/>
<path opacity="0.25" d="M225 432V60" stroke="white" stroke-miterlimit="10"/>
<path opacity="0.25" d="M135 432V60" stroke="white" stroke-miterlimit="10"/>
<path opacity="0.5" d="M78 240H630" stroke="white" stroke-miterlimit="10"/>
<path opacity="0.5" d="M78 150H630" stroke="white" stroke-miterlimit="10"/>
<path opacity="0.5" d="M78 60H630" stroke="white" stroke-miterlimit="10"/>
<path opacity="0.5" d="M78 330H630" stroke="white" stroke-miterlimit="10"/>
<path opacity="0.25" d="M78 195H630" stroke="white" stroke-miterlimit="10"/>
<path opacity="0.25" d="M78 105H630" stroke="white" stroke-miterlimit="10"/>
<path opacity="0.25" d="M78 285H630" stroke="white" stroke-miterlimit="10"/>
<path opacity="0.25" d="M78 375H630" stroke="white" stroke-miterlimit="10"/>
<path d="M78 420H620.197" stroke="white" stroke-width="1.5" stroke-miterlimit="10"/>
<path d="M629.25 420C624.99 421.581 619.705 424.277 616.429 427.134L619.009 420L616.429 412.868C619.705 415.724 624.99 418.421 629.25 420Z" fill="white"/>
<path d="M268.02 446.008V445.07C269.021 445.142 270.025 445.009 270.973 444.679C271.92 444.349 272.79 443.829 273.529 443.151C273.848 443.151 274.035 443.19 274.09 443.269C274.166 443.48 274.194 443.705 274.172 443.928V460.746C274.14 460.964 274.165 461.186 274.245 461.391C274.325 461.596 274.457 461.777 274.628 461.916C275.418 462.172 276.252 462.266 277.079 462.194H278.068V463.132C277.365 463.072 275.744 463.042 273.205 463.043C270.666 463.044 269.049 463.073 268.356 463.132V462.194H269.309C270.1 462.262 270.897 462.17 271.652 461.924C271.952 461.743 272.106 461.351 272.106 460.745V445.217C270.821 445.785 269.424 446.056 268.02 446.008Z" fill="white"/>
<path d="M51.2271 227.376V226.438C52.2275 226.51 53.2321 226.377 54.1794 226.047C55.1267 225.718 55.9967 225.198 56.736 224.52C57.0554 224.52 57.2424 224.559 57.2971 224.637C57.3731 224.848 57.4011 225.073 57.3791 225.296V242.113C57.347 242.331 57.3721 242.554 57.4521 242.759C57.532 242.964 57.664 243.145 57.835 243.284C58.6252 243.54 59.4587 243.634 60.286 243.562H61.2751V244.5C60.5724 244.44 58.9514 244.41 56.412 244.41C53.8727 244.41 52.2564 244.44 51.563 244.5V243.562H52.516C53.3073 243.63 54.1043 243.538 54.8591 243.291C55.1617 243.111 55.313 242.718 55.313 242.113V226.585C54.028 227.153 52.6312 227.424 51.2271 227.376Z" fill="white"/>
<path d="M445.043 463.132C445.032 462.897 445.049 462.662 445.094 462.432C445.158 462.278 445.254 462.138 445.374 462.022L451.086 455.606C453.19 453.238 454.243 451.022 454.243 448.958C454.276 447.73 453.907 446.524 453.193 445.524C452.856 445.057 452.407 444.682 451.888 444.432C451.369 444.182 450.796 444.065 450.22 444.092C449.351 444.091 448.504 444.372 447.807 444.892C447.053 445.448 446.49 446.223 446.193 447.111C446.321 447.085 446.452 447.076 446.582 447.082C446.796 447.071 447.01 447.107 447.208 447.189C447.405 447.271 447.582 447.397 447.725 447.556C447.995 447.862 448.141 448.257 448.134 448.664C448.151 448.89 448.114 449.117 448.025 449.326C447.936 449.535 447.799 449.719 447.624 449.864C447.34 450.105 446.983 450.243 446.61 450.256C446.454 450.254 446.297 450.239 446.143 450.212C445.876 450.125 445.639 449.963 445.46 449.746C445.315 449.588 445.204 449.402 445.132 449.2C445.061 448.998 445.03 448.784 445.043 448.57C445.051 447.16 445.617 445.81 446.618 444.816C447.126 444.272 447.744 443.842 448.431 443.555C449.118 443.268 449.858 443.13 450.602 443.151C452.261 443.093 453.878 443.677 455.118 444.781C455.9 445.518 456.458 446.462 456.727 447.503C456.997 448.543 456.966 449.639 456.64 450.663C456.48 451.164 456.27 451.647 456.015 452.107C455.64 452.703 455.199 453.254 454.699 453.75C454.06 454.425 453.484 455.002 452.97 455.48C452.457 455.958 451.624 456.706 450.47 457.724L447.315 460.817H452.685C453.632 460.914 454.589 460.835 455.507 460.583C455.855 459.731 456.076 458.833 456.162 457.917H456.909L456.076 463.132H445.043Z" fill="white"/>
<path d="M50.2003 67.948C50.1898 67.7135 50.2065 67.4786 50.2503 67.248C50.3148 67.0932 50.4104 66.9532 50.5313 66.837L56.2433 60.421C58.3473 58.0543 59.3993 55.8387 59.3993 53.774C59.4321 52.5458 59.0639 51.3403 58.3503 50.34C58.0124 49.8732 57.5636 49.4979 57.0444 49.2479C56.5252 48.9979 55.952 48.8811 55.3763 48.908C54.5068 48.9077 53.6605 49.1883 52.9633 49.708C52.2096 50.2635 51.6461 51.0386 51.3503 51.927C51.478 51.9014 51.6083 51.8917 51.7383 51.898C51.9521 51.8864 52.1657 51.9229 52.3635 52.0047C52.5613 52.0866 52.7383 52.2117 52.8813 52.371C53.1509 52.677 53.297 53.0723 53.2913 53.48C53.3081 53.7062 53.2706 53.9331 53.1819 54.1419C53.0931 54.3506 52.9558 54.5351 52.7813 54.68C52.4966 54.9202 52.1396 55.0582 51.7673 55.072C51.6107 55.0699 51.4545 55.0549 51.3003 55.027C51.0329 54.9405 50.7959 54.7791 50.6173 54.562C50.4726 54.4039 50.3611 54.2183 50.2895 54.0163C50.2178 53.8143 50.1875 53.6 50.2003 53.386C50.2077 51.9755 50.7741 50.6255 51.7753 49.632C52.2831 49.0877 52.9008 48.6578 53.5876 48.3707C54.2743 48.0836 55.0143 47.946 55.7583 47.967C57.4172 47.9095 59.0346 48.4932 60.2743 49.597C61.0571 50.334 61.6157 51.2772 61.8856 52.3179C62.1556 53.3586 62.1261 54.4544 61.8003 55.479C61.6397 55.9796 61.4303 56.4632 61.1753 56.923C60.801 57.5187 60.3598 58.0696 59.8603 58.565C59.2203 59.2403 58.6437 59.8173 58.1303 60.296C57.617 60.7747 56.7837 61.5223 55.6303 62.539L52.4763 65.633H57.8453C58.7927 65.73 59.7498 65.6507 60.6683 65.399C61.0158 64.5472 61.2362 63.6489 61.3223 62.733H62.0693L61.2373 67.948H50.2003Z" fill="white"/>
<path d="M621.644 459.075C621.603 458.594 621.753 458.116 622.061 457.745C622.182 457.611 622.329 457.504 622.493 457.43C622.657 457.356 622.835 457.318 623.015 457.316C623.449 457.308 623.869 457.47 624.185 457.767C624.347 457.94 624.473 458.143 624.557 458.365C624.64 458.586 624.679 458.822 624.671 459.059C624.663 459.296 624.608 459.529 624.51 459.744C624.411 459.96 624.272 460.154 624.098 460.315C623.907 460.472 623.684 460.585 623.444 460.646C623.205 460.708 622.954 460.716 622.711 460.671C623.171 461.457 623.88 462.066 624.726 462.403C625.523 462.746 626.379 462.929 627.246 462.941C627.686 462.93 628.119 462.825 628.514 462.633C628.91 462.44 629.26 462.165 629.54 461.826C630.338 460.711 630.703 459.345 630.568 457.981C630.637 456.711 630.329 455.449 629.684 454.352C629.401 453.92 629.01 453.57 628.549 453.337C628.088 453.104 627.575 452.996 627.059 453.024H625.764C625.548 453.034 625.331 453.02 625.117 452.982C625.021 452.954 624.973 452.86 624.973 452.7C624.973 452.513 625.149 452.4 625.504 452.362C625.889 452.356 626.274 452.328 626.655 452.277C627.194 452.271 627.721 452.121 628.182 451.842C628.642 451.563 629.02 451.166 629.274 450.691C629.849 449.633 630.132 448.441 630.095 447.238C630.143 446.772 630.091 446.302 629.944 445.858C629.796 445.413 629.556 445.006 629.239 444.661C628.705 444.166 628.002 443.894 627.274 443.898C626.528 443.908 625.79 444.052 625.095 444.324C624.373 444.578 623.754 445.061 623.333 445.7C624.56 445.7 625.173 446.213 625.173 447.238C625.187 447.649 625.039 448.048 624.761 448.351C624.621 448.498 624.45 448.613 624.262 448.689C624.073 448.765 623.87 448.8 623.667 448.791C623.467 448.797 623.267 448.762 623.08 448.689C622.894 448.616 622.724 448.505 622.58 448.365C622.432 448.212 622.317 448.031 622.242 447.832C622.168 447.633 622.135 447.42 622.146 447.208C622.149 446.642 622.288 446.086 622.55 445.585C622.813 445.084 623.192 444.653 623.655 444.329C624.729 443.522 626.047 443.106 627.39 443.151C628.727 443.122 630.037 443.531 631.12 444.315C631.609 444.637 632.01 445.075 632.287 445.591C632.564 446.106 632.709 446.683 632.707 447.268C632.712 448.447 632.317 449.593 631.586 450.519C630.851 451.485 629.84 452.207 628.686 452.588C630.068 452.826 631.329 453.525 632.262 454.572C633.117 455.502 633.593 456.718 633.598 457.981C633.601 458.75 633.441 459.512 633.129 460.215C632.817 460.918 632.36 461.548 631.787 462.062C630.643 463.106 629.169 463.716 627.622 463.785C626.075 463.853 624.553 463.377 623.32 462.439C622.796 462.049 622.372 461.542 622.08 460.957C621.789 460.373 621.64 459.728 621.644 459.075Z" fill="white"/>
<path d="M84.1721 453.537C84.0631 451.214 84.4423 448.894 85.2851 446.726C85.6608 445.653 86.3691 444.727 87.307 444.084C88.2449 443.441 89.3635 443.114 90.5001 443.151C91.0366 443.154 91.5706 443.226 92.0891 443.364C92.7657 443.578 93.3931 443.924 93.9351 444.382C94.6482 444.95 95.2179 445.677 95.5981 446.506C96.4962 448.737 96.9054 451.134 96.7981 453.537C96.9067 455.846 96.5275 458.152 95.6851 460.305C95.2834 461.354 94.566 462.253 93.632 462.877C92.6979 463.502 91.5932 463.821 90.4701 463.791C89.5225 463.779 88.5912 463.543 87.7521 463.103C86.7769 462.58 85.9945 461.758 85.5191 460.759C84.4953 458.495 84.0333 456.018 84.1721 453.537ZM86.6621 453.171C86.6091 455.285 86.7168 457.401 86.9841 459.499C87.1062 460.559 87.5901 461.545 88.3541 462.29C88.9421 462.841 89.7207 463.143 90.5265 463.132C91.3322 463.121 92.1023 462.798 92.6751 462.231C93.4268 461.46 93.8898 460.454 93.9861 459.382C94.4065 455.375 94.4165 451.335 94.0161 447.326C93.8859 446.27 93.3724 445.298 92.5731 444.595C91.9782 444.11 91.2402 443.834 90.4731 443.811C90.198 443.813 89.9244 443.852 89.6601 443.928C89.3043 444.04 88.9627 444.192 88.6421 444.382C88.1856 444.666 87.8177 445.072 87.5801 445.554C87.2392 446.21 87.0088 446.917 86.8981 447.648C86.7048 449.482 86.626 451.327 86.6621 453.171Z" fill="white"/>
<path d="M49.8791 418.887C49.7702 416.564 50.1494 414.243 50.9921 412.075C51.3678 411.002 52.0762 410.077 53.0141 409.434C53.9521 408.791 55.0707 408.464 56.2071 408.501C56.7437 408.504 57.2778 408.575 57.7961 408.714C58.4729 408.927 59.1004 409.273 59.6421 409.731C60.3549 410.299 60.9244 411.027 61.3051 411.855C62.2032 414.086 62.6124 416.484 62.5051 418.887C62.6138 421.196 62.2345 423.502 61.3921 425.654C60.9907 426.704 60.2735 427.603 59.3394 428.227C58.4053 428.852 57.3004 429.171 56.1771 429.141C55.2295 429.129 54.2982 428.893 53.4591 428.452C52.4837 427.929 51.7013 427.108 51.2261 426.108C50.2023 423.845 49.7402 421.367 49.8791 418.887ZM52.3691 418.521C52.3162 420.635 52.4239 422.751 52.6911 424.849C52.8138 425.909 53.2975 426.895 54.0611 427.64C54.6494 428.191 55.4279 428.492 56.2335 428.481C57.0391 428.47 57.8091 428.147 58.3821 427.581C59.1336 426.81 59.5966 425.803 59.6931 424.731C60.1135 420.724 60.1236 416.685 59.7231 412.676C59.5927 411.619 59.0793 410.647 58.2801 409.944C57.685 409.46 56.9471 409.184 56.1801 409.16C55.905 409.162 55.6315 409.201 55.3671 409.277C55.0116 409.389 54.67 409.541 54.3491 409.731C53.8931 410.015 53.5253 410.421 53.2871 410.903C52.9439 411.559 52.7117 412.268 52.6001 413C52.408 414.834 52.3308 416.678 52.3691 418.521Z" fill="white"/>
<path d="M90 69.053V432" stroke="white" stroke-width="1.5" stroke-miterlimit="10"/>
<path d="M90.0002 60C88.4192 64.26 85.7232 69.545 82.8662 72.821L90.0002 70.241L97.1322 72.821C94.2762 69.545 91.5792 64.26 90.0002 60Z" fill="white"/>
<rect x="393" y="319" width="37" height="80" fill="black"/>
<path d="M180.005 60C202.3 148.673 237.1 228.041 318 277.9C365.737 307.465 420.294 323.716 474.75 335.8C525.715 346.894 577.444 354.107 629.25 359.927" stroke="#58C4DD" stroke-width="1.5" stroke-miterlimit="10"/>
<rect x="90" y="300" width="270" height="120" fill="#1C758A" stroke="white"/>
<path d="M171.65 373C171.29 372.94 170.14 372.91 168.2 372.91C166.42 372.91 165.41 372.94 165.17 373H164.96V371.62H165.41C166.85 371.56 167.77 371.14 168.17 370.36C168.19 370.3 168.72 368.73 169.76 365.65C170.8 362.55 171.83 359.47 172.85 356.41C173.89 353.33 174.42 351.78 174.44 351.76C174.5 351.6 174.69 351.52 175.01 351.52H175.28C175.68 351.54 175.92 351.61 176 351.73C176.02 351.75 176.99 354.61 178.91 360.31C180.85 366.01 182.05 369.57 182.51 370.99C182.57 371.11 182.64 371.21 182.72 371.29C182.94 371.49 183.57 371.6 184.61 371.62H185.51V373H185.24C184.94 372.94 183.67 372.91 181.43 372.91C178.85 372.91 177.41 372.94 177.11 373H176.81V371.62H177.2C178.6 371.62 179.3 371.44 179.3 371.08C179.3 371.04 179.06 370.3 178.58 368.86L177.86 366.73H170.87L170.27 368.5C169.87 369.68 169.67 370.33 169.67 370.45C169.67 370.55 169.7 370.64 169.76 370.72C169.88 370.98 170.13 371.2 170.51 371.38C170.91 371.54 171.33 371.62 171.77 371.62H171.92V373H171.65ZM176.48 362.59C175.9 360.85 175.39 359.34 174.95 358.06L174.35 356.29L172.85 360.79L171.32 365.32C171.32 365.34 172.33 365.35 174.35 365.35H177.41L176.48 362.59ZM187.58 371.62H188C188.78 371.62 189.25 371.48 189.41 371.2V370.96C189.41 370.78 189.41 370.55 189.41 370.27C189.43 369.99 189.44 369.68 189.44 369.34C189.44 368.98 189.44 368.59 189.44 368.17C189.44 367.73 189.44 367.31 189.44 366.91C189.44 366.29 189.44 365.63 189.44 364.93C189.44 364.21 189.44 363.62 189.44 363.16L189.41 362.47C189.35 362.09 189.2 361.84 188.96 361.72C188.74 361.58 188.3 361.49 187.64 361.45H187.1V360.76C187.1 360.3 187.12 360.07 187.16 360.07L187.46 360.04C187.66 360.02 187.94 360 188.3 359.98C188.66 359.96 189.02 359.94 189.38 359.92C189.7 359.9 190.05 359.88 190.43 359.86C190.81 359.82 191.1 359.79 191.3 359.77C191.5 359.75 191.61 359.74 191.63 359.74H191.72V361.81C192.1 361.17 192.52 360.67 192.98 360.31C193.44 359.95 194.05 359.77 194.81 359.77C195.37 359.77 195.85 359.88 196.25 360.1C197.03 360.5 197.42 361.07 197.42 361.81C197.42 362.25 197.27 362.62 196.97 362.92C196.67 363.2 196.31 363.34 195.89 363.34C195.47 363.34 195.11 363.2 194.81 362.92C194.53 362.64 194.39 362.28 194.39 361.84C194.39 361.5 194.47 361.22 194.63 361C194.67 360.92 194.69 360.87 194.69 360.85C194.65 360.81 194.42 360.85 194 360.97C193.68 361.13 193.44 361.28 193.28 361.42C192.48 362.18 192.02 363.44 191.9 365.2V366.37C191.88 367.15 191.87 367.82 191.87 368.38C191.87 368.64 191.87 368.92 191.87 369.22C191.87 369.5 191.87 369.75 191.87 369.97C191.89 370.19 191.9 370.39 191.9 370.57C191.9 370.75 191.9 370.9 191.9 371.02V371.17C191.98 371.33 192.1 371.43 192.26 371.47C192.46 371.55 192.99 371.6 193.85 371.62H194.78V373H194.51C194.15 372.94 192.88 372.91 190.7 372.91C188.74 372.91 187.62 372.94 187.34 373H187.1V371.62H187.58ZM210.698 365.65C210.698 365.79 210.628 365.93 210.488 366.07H202.028V366.52C202.028 368 202.228 369.12 202.628 369.88C203.348 371.36 204.588 372.1 206.348 372.1C207.208 372.1 207.928 371.78 208.508 371.14C208.908 370.74 209.218 370.22 209.438 369.58C209.498 369.36 209.558 369.22 209.618 369.16C209.678 369.1 209.838 369.07 210.098 369.07C210.498 369.07 210.698 369.17 210.698 369.37C210.698 369.45 210.668 369.58 210.608 369.76C210.228 370.8 209.618 371.66 208.778 372.34C207.958 373 206.948 373.33 205.748 373.33C205.368 373.33 204.928 373.28 204.428 373.18C203.288 372.96 202.268 372.44 201.368 371.62C200.468 370.8 199.828 369.81 199.448 368.65C199.208 367.93 199.088 367.2 199.088 366.46C199.088 364.62 199.628 363.07 200.708 361.81C201.788 360.53 203.118 359.79 204.698 359.59C204.778 359.57 204.918 359.56 205.118 359.56C206.938 359.56 208.318 360.1 209.258 361.18C210.218 362.24 210.698 363.73 210.698 365.65ZM208.238 364.75C208.058 362.57 207.318 361.25 206.018 360.79C205.878 360.73 205.668 360.69 205.388 360.67C204.348 360.67 203.498 361.15 202.838 362.11C202.438 362.75 202.178 363.64 202.058 364.78V364.99H208.238V364.75ZM216.198 363.37C215.898 363.69 215.518 363.85 215.058 363.85C214.598 363.85 214.218 363.69 213.918 363.37C213.618 363.05 213.468 362.67 213.468 362.23C213.468 361.95 213.548 361.63 213.708 361.27C213.968 360.73 214.488 360.31 215.268 360.01C216.048 359.71 216.998 359.56 218.118 359.56C219.438 359.56 220.578 359.86 221.538 360.46C222.518 361.06 223.158 361.84 223.458 362.8C223.558 363.08 223.608 363.4 223.608 363.76C223.628 364.1 223.638 365.24 223.638 367.18C223.638 369.14 223.638 370.29 223.638 370.63C223.658 370.95 223.718 371.2 223.818 371.38C223.938 371.66 224.138 371.8 224.418 371.8C224.678 371.8 224.868 371.66 224.988 371.38C225.108 371.14 225.168 370.59 225.168 369.73V368.65H226.368V369.82C226.348 370.62 226.318 371.09 226.278 371.23C226.098 371.79 225.768 372.26 225.288 372.64C224.808 373 224.238 373.18 223.578 373.18C223.078 373.18 222.628 373.01 222.228 372.67C221.848 372.31 221.588 371.88 221.448 371.38V371.26C221.388 371.32 221.268 371.46 221.088 371.68C220.908 371.88 220.778 372.02 220.698 372.1C219.718 372.92 218.578 373.33 217.278 373.33C216.238 373.33 215.308 373.11 214.488 372.67C213.668 372.23 213.118 371.65 212.838 370.93C212.678 370.55 212.598 370.17 212.598 369.79C212.598 368.85 212.988 367.99 213.768 367.21C214.228 366.75 214.798 366.37 215.478 366.07C216.838 365.45 218.578 365.08 220.698 364.96H221.118V364.3C221.118 363.62 221.058 363.12 220.938 362.8C220.738 362.14 220.388 361.62 219.888 361.24C219.388 360.86 218.768 360.67 218.028 360.67C216.688 360.67 216.018 360.75 216.018 360.91C216.458 361.21 216.678 361.65 216.678 362.23C216.678 362.67 216.518 363.05 216.198 363.37ZM221.118 367.75C221.118 366.59 221.108 366.01 221.088 366.01C221.028 366.01 220.978 366.02 220.938 366.04C218.198 366.22 216.448 367.03 215.688 368.47C215.468 368.87 215.358 369.32 215.358 369.82C215.358 370.5 215.598 371.07 216.078 371.53C216.558 371.99 217.148 372.22 217.848 372.22C218.648 372.22 219.328 371.98 219.888 371.5C220.468 371.02 220.848 370.43 221.028 369.73C221.068 369.59 221.098 368.93 221.118 367.75ZM235.758 362.59C235.758 362.33 235.898 362.13 236.178 361.99H255.288C255.588 362.13 255.738 362.33 255.738 362.59C255.738 362.81 255.598 363 255.318 363.16L245.778 363.19H236.238C235.918 363.09 235.758 362.89 235.758 362.59ZM235.758 368.41C235.758 368.11 235.918 367.91 236.238 367.81H255.318C255.338 367.83 255.378 367.87 255.438 367.93C255.518 367.97 255.568 368.01 255.588 368.05C255.628 368.07 255.658 368.12 255.678 368.2C255.718 368.26 255.738 368.33 255.738 368.41C255.738 368.67 255.588 368.87 255.288 369.01H236.178C235.898 368.87 235.758 368.67 235.758 368.41ZM277.408 373C277.068 372.94 275.478 372.91 272.638 372.91C269.838 372.91 268.268 372.94 267.928 373H267.568V371.62H268.348C269.508 371.62 270.258 371.59 270.598 371.53C270.758 371.51 270.998 371.39 271.318 371.17V355.66C271.278 355.66 271.198 355.69 271.078 355.75C270.158 356.11 269.128 356.3 267.988 356.32H267.418V354.94H267.988C269.668 354.88 271.068 354.5 272.188 353.8C272.548 353.6 272.858 353.37 273.118 353.11C273.158 353.05 273.278 353.02 273.478 353.02C273.678 353.02 273.848 353.08 273.988 353.2V362.17L274.018 371.17C274.318 371.47 274.968 371.62 275.968 371.62H276.958H277.738V373H277.408Z" fill="white"/>
<rect x="282" y="22" width="156" height="77" fill="black"/>
<g clip-path="url(#clip0)">
<path d="M296.736 75.6055C296.778 75.6055 296.842 75.6266 296.926 75.6688C297.011 75.711 297.127 75.7427 297.274 75.7638C297.422 75.7849 297.549 75.7954 297.654 75.7954C297.929 75.7954 298.182 75.6582 298.414 75.3839C298.646 75.1096 298.815 74.8036 298.92 74.466C299.131 73.8963 299.49 72.282 299.996 69.6232C300.503 66.9644 300.988 64.4323 301.452 62.0267C301.917 59.6211 302.149 58.4078 302.149 58.3867V58.2917H300.661C299.669 58.2917 299.142 58.2706 299.079 58.2284C298.994 58.1651 298.952 58.0596 298.952 57.9119L299.173 57.0257C299.216 56.9201 299.3 56.8674 299.427 56.8674C299.553 56.8674 300.049 56.8568 300.914 56.8357C301.927 56.8357 302.434 56.8252 302.434 56.8041C302.434 56.7619 302.529 56.2344 302.719 55.2215C302.908 54.2086 303.035 53.5967 303.098 53.3857C303.879 49.9039 305.42 48.163 307.72 48.163C308.5 48.2052 309.144 48.4374 309.65 48.8594C310.157 49.2814 310.41 49.8406 310.41 50.537C310.41 51.2966 310.188 51.8452 309.745 52.1829C309.302 52.5205 308.859 52.6999 308.416 52.721C307.487 52.721 307.023 52.2778 307.023 51.3916C307.023 50.9906 307.139 50.6425 307.371 50.347C307.604 50.0516 307.857 49.8301 308.131 49.6823L308.416 49.5241C308.078 49.3975 307.762 49.3342 307.466 49.3342C307.213 49.3342 306.97 49.4397 306.738 49.6507C306.506 49.8617 306.348 50.1571 306.264 50.537C306.116 51.1489 305.947 51.9719 305.757 53.0058C305.567 54.0398 305.398 54.9155 305.251 55.633C305.103 56.3504 305.029 56.7302 305.029 56.7724C305.029 56.8146 305.609 56.8357 306.77 56.8357C307.72 56.8357 308.268 56.8463 308.416 56.8674C308.564 56.8885 308.68 56.9518 308.764 57.0573C308.785 57.1417 308.764 57.3211 308.701 57.5954C308.638 57.8697 308.585 58.0385 308.543 58.1018C308.5 58.2073 308.405 58.2601 308.258 58.2601C308.11 58.2601 307.54 58.2706 306.548 58.2917H304.776L304.048 62.1533C303.035 67.3865 302.328 70.6572 301.927 71.9655C301.357 73.7591 300.619 75.0885 299.712 75.9537C298.931 76.6289 298.161 76.9665 297.401 76.9665C296.726 76.9665 296.114 76.7661 295.565 76.3651C295.017 75.9642 294.742 75.3945 294.742 74.6559C294.742 73.8752 294.964 73.3054 295.407 72.9467C295.85 72.588 296.293 72.4086 296.736 72.4086C297.665 72.4086 298.129 72.8518 298.129 73.738C298.129 74.1389 298.013 74.4871 297.781 74.7825C297.549 75.078 297.295 75.2995 297.021 75.4472L296.736 75.6055Z" fill="white"/>
<path d="M313.385 62.5648C313.385 61.1088 313.491 59.7267 313.702 58.4184C313.913 57.1101 314.155 55.9811 314.43 55.0316C314.704 54.082 315.094 53.1536 315.601 52.2462C316.107 51.3388 316.508 50.6319 316.804 50.1255C317.099 49.6191 317.542 49.0704 318.133 48.4796C318.724 47.8887 319.072 47.53 319.178 47.4034C319.283 47.2768 319.547 47.0552 319.969 46.7387H320.38H320.507C320.802 46.7387 320.95 46.8337 320.95 47.0236C320.95 47.0869 320.771 47.3084 320.412 47.6883C320.053 48.0681 319.621 48.6273 319.114 49.3658C318.608 50.1044 318.091 51.0118 317.563 52.0879C317.036 53.1641 316.593 54.6201 316.234 56.4559C315.875 58.2918 315.696 60.328 315.696 62.5648C315.696 64.8016 315.875 66.8273 316.234 68.642C316.593 70.4567 317.025 71.9233 317.532 73.0417C318.038 74.1601 318.555 75.0674 319.083 75.7638C319.61 76.4601 320.053 77.0193 320.412 77.4413C320.771 77.8634 320.95 78.0849 320.95 78.106C320.95 78.2959 320.792 78.3909 320.475 78.3909H320.38H319.969L319.083 77.6312C317.099 75.8376 315.654 73.6009 314.746 70.921C313.839 68.2411 313.385 65.4557 313.385 62.5648Z" fill="white"/>
<path d="M324.369 61.3304C324.516 60.4442 325.086 59.4208 326.078 58.2602C327.07 57.0996 328.294 56.5088 329.75 56.4877C330.488 56.4877 331.163 56.6776 331.775 57.0574C332.387 57.4372 332.841 57.912 333.136 58.4817C334.023 57.1523 335.088 56.4877 336.333 56.4877C337.114 56.4877 337.789 56.7198 338.359 57.184C338.929 57.6482 339.224 58.2707 339.245 59.0515C339.245 59.6634 339.097 60.1593 338.802 60.5391C338.507 60.919 338.222 61.1511 337.947 61.2355C337.673 61.3199 337.43 61.3621 337.219 61.3621C336.819 61.3621 336.491 61.246 336.238 61.0139C335.985 60.7818 335.858 60.4758 335.858 60.096C335.858 59.1253 336.386 58.4606 337.441 58.1019C337.209 57.8276 336.787 57.6904 336.175 57.6904C335.901 57.6904 335.7 57.7115 335.574 57.7537C334.772 58.0914 334.181 58.7877 333.801 59.8428C332.535 64.5062 331.902 67.2283 331.902 68.0091C331.902 68.5999 332.071 69.0219 332.408 69.2751C332.746 69.5284 333.115 69.655 333.516 69.655C334.297 69.655 335.067 69.3068 335.827 68.6104C336.586 67.9141 337.103 67.0595 337.378 66.0466C337.441 65.8356 337.504 65.7195 337.568 65.6984C337.631 65.6773 337.8 65.6562 338.074 65.6351H338.201C338.517 65.6351 338.675 65.7195 338.675 65.8884C338.675 65.9095 338.654 66.0255 338.612 66.2365C338.275 67.4393 337.62 68.5049 336.65 69.4334C335.679 70.3619 334.55 70.8261 333.263 70.8261C331.786 70.8261 330.667 70.1614 329.908 68.832C329.043 70.1403 328.051 70.7944 326.932 70.7944H326.743C325.709 70.7944 324.97 70.5201 324.527 69.9715C324.084 69.4228 323.852 68.8426 323.831 68.2306C323.831 67.5554 324.031 67.0067 324.432 66.5847C324.833 66.1627 325.308 65.9517 325.856 65.9517C326.764 65.9517 327.217 66.3948 327.217 67.281C327.217 67.7031 327.091 68.0724 326.838 68.3889C326.584 68.7054 326.342 68.9164 326.11 69.0219C325.877 69.1274 325.74 69.1802 325.698 69.1802L325.603 69.2118C325.603 69.2329 325.666 69.2751 325.793 69.3384C325.92 69.4017 326.088 69.4756 326.299 69.56C326.51 69.6444 326.711 69.6761 326.901 69.655C327.66 69.655 328.315 69.1802 328.863 68.2306C329.053 67.893 329.296 67.1755 329.591 66.0783C329.887 64.981 330.182 63.8415 330.478 62.6598C330.773 61.4781 330.942 60.7818 330.984 60.5708C331.089 60.001 331.142 59.5896 331.142 59.3363C331.142 58.7455 330.984 58.3235 330.667 58.0703C330.351 57.817 329.992 57.6904 329.591 57.6904C328.747 57.6904 327.956 58.0281 327.217 58.7033C326.479 59.3786 325.962 60.2437 325.666 61.2988C325.624 61.4887 325.571 61.5942 325.508 61.6153C325.445 61.6364 325.276 61.6575 325.002 61.6786H324.559C324.432 61.552 324.369 61.4359 324.369 61.3304Z" fill="white"/>
<path d="M342.728 46.7704L342.854 46.7387C342.96 46.7387 343.065 46.7387 343.171 46.7387H343.551L344.437 47.4984C346.42 49.292 347.866 51.5287 348.773 54.2086C349.681 56.8885 350.134 59.6739 350.134 62.5648C350.134 63.9997 350.029 65.3818 349.818 66.7112C349.607 68.0406 349.364 69.1696 349.09 70.098C348.815 71.0265 348.425 71.955 347.919 72.8834C347.412 73.8119 347.011 74.5188 346.716 75.0041C346.42 75.4894 345.988 76.0275 345.418 76.6184C344.848 77.2092 344.511 77.5574 344.405 77.6629C344.3 77.7684 344.057 77.9689 343.677 78.2643C343.614 78.3276 343.572 78.3698 343.551 78.3909H343.171C343.002 78.3909 342.886 78.3909 342.823 78.3909C342.759 78.3909 342.706 78.3592 342.664 78.2959C342.622 78.2326 342.59 78.1377 342.569 78.0111C342.59 77.99 342.706 77.8528 342.918 77.5996C346.188 74.2023 347.824 69.1907 347.824 62.5648C347.824 55.9389 346.188 50.9273 342.918 47.53C342.706 47.2768 342.59 47.1396 342.569 47.1185C342.569 46.9497 342.622 46.8337 342.728 46.7704Z" fill="white"/>
<path d="M363.706 59.4945C363.706 59.2202 363.854 59.0092 364.149 58.8615H384.312C384.628 59.0303 384.786 59.2413 384.786 59.4945C384.786 59.7266 384.639 59.9271 384.343 60.0959L374.278 60.1276H364.212C363.875 60.0221 363.706 59.811 363.706 59.4945ZM363.706 65.6351C363.706 65.3185 363.875 65.1075 364.212 65.002H384.343C384.639 65.213 384.786 65.424 384.786 65.6351C384.786 65.9094 384.628 66.1204 384.312 66.2681H364.149C363.854 66.1204 363.706 65.9094 363.706 65.6351Z" fill="white"/>
<path d="M410.197 30.7861L409.785 30.9443C409.49 31.0498 409.068 31.1553 408.519 31.2608C407.971 31.3663 407.359 31.4402 406.683 31.4824H406.082V30.0264H406.683C407.675 29.9842 408.593 29.8259 409.437 29.5516C410.281 29.2773 410.872 29.0241 411.21 28.792C411.547 28.5598 411.843 28.3277 412.096 28.0956C412.138 28.0323 412.265 28.0007 412.476 28.0007C412.666 28.0007 412.845 28.064 413.014 28.1906V37.6546L413.046 47.1502C413.193 47.298 413.32 47.3929 413.425 47.4351C413.531 47.4773 413.784 47.5195 414.185 47.5617C414.586 47.6039 415.24 47.625 416.147 47.625H416.97V49.081H416.622C416.179 49.0177 414.502 48.9861 411.59 48.9861C408.72 48.9861 407.063 49.0177 406.62 49.081H406.24V47.625H407.063C407.527 47.625 407.928 47.625 408.266 47.625C408.604 47.625 408.867 47.6145 409.057 47.5934C409.247 47.5723 409.416 47.5406 409.564 47.4984C409.711 47.4562 409.796 47.4351 409.817 47.4351C409.838 47.4351 409.901 47.3824 410.007 47.2768C410.112 47.1713 410.176 47.1291 410.197 47.1502V30.7861Z" fill="white"/>
<path d="M403.962 83.0438C404.11 82.1575 404.68 81.1341 405.672 79.9735C406.663 78.813 407.887 78.2221 409.343 78.201C410.082 78.201 410.757 78.3909 411.369 78.7708C411.981 79.1506 412.435 79.6254 412.73 80.1951C413.616 78.8657 414.682 78.201 415.927 78.201C416.708 78.201 417.383 78.4331 417.953 78.8974C418.522 79.3616 418.818 79.9841 418.839 80.7648C418.839 81.3768 418.691 81.8727 418.396 82.2525C418.1 82.6323 417.816 82.8644 417.541 82.9488C417.267 83.0333 417.024 83.0755 416.813 83.0755C416.412 83.0755 416.085 82.9594 415.832 82.7273C415.579 82.4952 415.452 82.1892 415.452 81.8094C415.452 80.8387 415.98 80.174 417.035 79.8153C416.803 79.541 416.381 79.4038 415.769 79.4038C415.494 79.4038 415.294 79.4249 415.167 79.4671C414.365 79.8047 413.775 80.5011 413.395 81.5561C412.129 86.2196 411.496 88.9417 411.496 89.7224C411.496 90.3133 411.664 90.7353 412.002 90.9885C412.34 91.2417 412.709 91.3683 413.11 91.3683C413.891 91.3683 414.661 91.0202 415.42 90.3238C416.18 89.6275 416.697 88.7728 416.971 87.76C417.035 87.549 417.098 87.4329 417.161 87.4118C417.225 87.3907 417.393 87.3696 417.668 87.3485H417.794C418.111 87.3485 418.269 87.4329 418.269 87.6017C418.269 87.6228 418.248 87.7389 418.206 87.9499C417.868 89.1527 417.214 90.2183 416.243 91.1468C415.273 92.0752 414.144 92.5395 412.857 92.5395C411.38 92.5395 410.261 91.8748 409.502 90.5454C408.636 91.8537 407.645 92.5078 406.526 92.5078H406.336C405.302 92.5078 404.564 92.2335 404.121 91.6848C403.678 91.1362 403.445 90.5559 403.424 89.944C403.424 89.2687 403.625 88.7201 404.026 88.2981C404.427 87.876 404.901 87.665 405.45 87.665C406.357 87.665 406.811 88.1082 406.811 88.9944C406.811 89.4164 406.684 89.7857 406.431 90.1022C406.178 90.4188 405.935 90.6298 405.703 90.7353C405.471 90.8408 405.334 90.8935 405.292 90.8935L405.197 90.9252C405.197 90.9463 405.26 90.9885 405.387 91.0518C405.513 91.1151 405.682 91.189 405.893 91.2734C406.104 91.3578 406.305 91.3894 406.495 91.3683C407.254 91.3683 407.908 90.8935 408.457 89.944C408.647 89.6064 408.89 88.8889 409.185 87.7916C409.48 86.6944 409.776 85.5549 410.071 84.3732C410.367 83.1915 410.536 82.4952 410.578 82.2841C410.683 81.7144 410.736 81.3029 410.736 81.0497C410.736 80.4589 410.578 80.0368 410.261 79.7836C409.945 79.5304 409.586 79.4038 409.185 79.4038C408.341 79.4038 407.55 79.7414 406.811 80.4167C406.073 81.0919 405.556 81.9571 405.26 83.0121C405.218 83.2021 405.165 83.3076 405.102 83.3287C405.039 83.3498 404.87 83.3709 404.595 83.392H404.152C404.026 83.2654 403.962 83.1493 403.962 83.0438Z" fill="white"/>
<path d="M423.587 63.5144H399.151V61.6152H423.587V63.5144Z" fill="white"/>
</g>
<circle cx="225" cy="240" r="20" fill="black"/>
<path d="M218.74 238.66C218.62 238.54 218.56 238.43 218.56 238.33C218.64 237.79 218.95 237.1 219.49 236.26C220.43 234.84 221.61 234.02 223.03 233.8C223.31 233.76 223.52 233.74 223.66 233.74C224.36 233.74 225 233.92 225.58 234.28C226.18 234.64 226.61 235.09 226.87 235.63C227.13 235.29 227.29 235.08 227.35 235C228.09 234.16 228.94 233.74 229.9 233.74C230.72 233.74 231.38 233.98 231.88 234.46C232.4 234.92 232.66 235.49 232.66 236.17C232.66 236.79 232.48 237.31 232.12 237.73C231.78 238.15 231.32 238.36 230.74 238.36C230.36 238.36 230.05 238.25 229.81 238.03C229.57 237.81 229.45 237.52 229.45 237.16C229.45 236.24 229.95 235.61 230.95 235.27C230.95 235.25 230.84 235.18 230.62 235.06C230.42 234.94 230.13 234.88 229.75 234.88C229.49 234.88 229.3 234.9 229.18 234.94C228.42 235.26 227.86 235.92 227.5 236.92C227.44 237.08 227.15 238.2 226.63 240.28C226.11 242.34 225.83 243.5 225.79 243.76C225.73 244.06 225.7 244.36 225.7 244.66C225.7 245.14 225.84 245.52 226.12 245.8C226.4 246.08 226.77 246.22 227.23 246.22C228.07 246.22 228.83 245.87 229.51 245.17C230.19 244.45 230.65 243.66 230.89 242.8C230.95 242.6 231.01 242.49 231.07 242.47C231.13 242.43 231.29 242.41 231.55 242.41C231.93 242.41 232.12 242.49 232.12 242.65C232.12 242.67 232.1 242.78 232.06 242.98C231.72 244.22 231.02 245.3 229.96 246.22C229.02 246.96 228.03 247.33 226.99 247.33C225.59 247.33 224.53 246.7 223.81 245.44C223.23 246.34 222.49 246.94 221.59 247.24C221.41 247.28 221.15 247.3 220.81 247.3C219.65 247.3 218.83 246.89 218.35 246.07C218.15 245.73 218.05 245.33 218.05 244.87C218.05 244.27 218.23 243.76 218.59 243.34C218.95 242.92 219.41 242.71 219.97 242.71C220.83 242.71 221.26 243.13 221.26 243.97C221.26 244.71 220.91 245.25 220.21 245.59C220.17 245.61 220.12 245.64 220.06 245.68C220 245.7 219.95 245.72 219.91 245.74C219.87 245.76 219.84 245.77 219.82 245.77L219.73 245.8C219.73 245.86 219.88 245.95 220.18 246.07C220.42 246.17 220.68 246.22 220.96 246.22C221.68 246.22 222.3 245.77 222.82 244.87C223.04 244.51 223.43 243.21 223.99 240.97C224.11 240.51 224.24 240 224.38 239.44C224.52 238.88 224.62 238.45 224.68 238.15C224.76 237.85 224.81 237.67 224.83 237.61C224.93 237.07 224.98 236.68 224.98 236.44C224.98 235.96 224.85 235.58 224.59 235.3C224.33 235.02 223.97 234.88 223.51 234.88C222.61 234.88 221.83 235.23 221.17 235.93C220.51 236.61 220.05 237.4 219.79 238.3C219.75 238.48 219.7 238.59 219.64 238.63C219.6 238.65 219.44 238.66 219.16 238.66H218.74Z" fill="white"/>
<path d="M90.7793 284.979C90.4179 284.979 90.2033 284.969 90.1355 284.948C90.0452 284.907 90 284.794 90 284.608L90 284.268L90 283.774L90.3388 283.156C90.8357 282.249 91.4117 281.404 92.0668 280.621C94.2352 277.963 96.8666 276.294 99.9611 275.614C100.413 275.491 100.932 275.398 101.52 275.336C101.791 275.295 190.356 275.274 199.324 275.274C207.003 275.254 211.261 275.243 212.097 275.243C212.933 275.223 213.678 275.161 214.333 275.058C216.298 274.769 218.128 274.12 219.822 273.111C221.493 272.101 222.837 270.854 223.854 269.371C223.899 269.33 223.955 269.278 224.023 269.216C224.068 269.134 224.102 269.093 224.125 269.093C224.125 269.072 224.159 269.052 224.226 269.031C224.294 269.01 224.362 269 224.43 269C224.475 269 224.588 269 224.769 269C224.949 269 225.073 269 225.141 269C225.186 269 225.243 269.01 225.311 269.031C225.378 269.052 225.412 269.072 225.412 269.093C225.412 269.093 225.446 269.124 225.514 269.185C225.559 269.247 225.604 269.309 225.649 269.371C226.666 270.854 228.021 272.101 229.715 273.111C231.387 274.12 233.205 274.769 235.17 275.058C235.825 275.161 236.571 275.223 237.406 275.243C238.242 275.243 242.488 275.254 250.146 275.274C259.135 275.274 348.209 275.316 348.48 275.357C349.068 275.419 349.587 275.511 350.039 275.635C352.456 276.15 354.624 277.325 356.544 279.158C357.764 280.292 358.803 281.631 359.661 283.176L360 283.795L360 284.258C360 284.629 359.966 284.845 359.898 284.907C359.831 284.969 359.605 285 359.221 285C358.927 285 358.735 284.99 358.645 284.969C358.577 284.928 358.498 284.845 358.408 284.722C357.753 283.671 356.928 282.744 355.934 281.94C353.698 280.065 351.078 279.014 348.074 278.788C347.87 278.767 258.955 278.736 250.213 278.736C241.449 278.736 236.966 278.726 236.763 278.705C233.984 278.52 231.409 277.53 229.038 275.738C228.45 275.305 227.773 274.687 227.005 273.883C226.033 272.791 225.288 271.761 224.769 270.793C224.226 271.802 223.47 272.833 222.499 273.883C221.731 274.687 221.053 275.305 220.466 275.738C218.094 277.53 215.519 278.52 212.741 278.705C212.537 278.726 208.054 278.736 199.29 278.736C190.548 278.736 102.13 278.746 101.926 278.767C99.6901 278.911 97.6798 279.529 95.8953 280.621C94.0883 281.713 92.654 283.073 91.5924 284.701C91.5021 284.845 91.423 284.928 91.3553 284.948C91.2875 284.969 91.0955 284.979 90.7793 284.979Z" fill="white"/>
<g clip-path="url(#clip1)">
<path d="M373.32 301.582C373.32 301.157 373.33 300.904 373.35 300.824C373.39 300.718 373.5 300.665 373.68 300.665L374.01 300.665L374.49 300.665L375.09 301.064C375.97 301.649 376.79 302.327 377.55 303.098C380.13 305.651 381.75 308.749 382.41 312.393C382.53 312.924 382.62 313.536 382.68 314.227C382.72 314.547 382.74 319.985 382.74 330.543C382.76 339.584 382.77 344.597 382.77 345.581C382.79 346.565 382.85 347.443 382.95 348.214C383.23 350.527 383.86 352.682 384.84 354.676C385.82 356.644 387.03 358.226 388.47 359.423C388.51 359.476 388.56 359.543 388.62 359.622C388.7 359.676 388.74 359.715 388.74 359.742C388.76 359.742 388.78 359.782 388.8 359.862C388.82 359.942 388.83 360.021 388.83 360.101C388.83 360.154 388.83 360.287 388.83 360.5C388.83 360.713 388.83 360.859 388.83 360.939C388.83 360.992 388.82 361.058 388.8 361.138C388.78 361.218 388.76 361.258 388.74 361.258C388.74 361.258 388.71 361.298 388.65 361.378C388.59 361.431 388.53 361.484 388.47 361.537C387.03 362.734 385.82 364.329 384.84 366.324C383.86 368.292 383.23 370.433 382.95 372.746C382.85 373.517 382.79 374.395 382.77 375.379C382.77 376.363 382.76 381.363 382.74 390.378C382.74 400.962 382.72 406.414 382.68 406.733C382.62 407.424 382.53 408.036 382.41 408.568C381.91 411.413 380.77 413.966 378.99 416.226C377.89 417.663 376.59 418.886 375.09 419.896L374.49 420.295L374.04 420.295C373.68 420.295 373.47 420.255 373.41 420.176C373.35 420.096 373.32 419.83 373.32 419.378C373.32 419.032 373.33 418.806 373.35 418.7C373.39 418.62 373.47 418.527 373.59 418.42C374.61 417.649 375.51 416.679 376.29 415.508C378.11 412.876 379.13 409.791 379.35 406.254C379.37 406.015 379.38 400.749 379.38 390.457C379.38 380.139 379.39 374.86 379.41 374.621C379.59 371.35 380.55 368.318 382.29 365.526C382.71 364.835 383.31 364.037 384.09 363.133C385.15 361.989 386.15 361.112 387.09 360.5C386.11 359.862 385.11 358.971 384.09 357.827C383.31 356.923 382.71 356.125 382.29 355.434C380.55 352.642 379.59 349.61 379.41 346.339C379.39 346.1 379.38 340.821 379.38 330.503C379.38 320.211 379.37 314.945 379.35 314.706C379.21 312.073 378.61 309.707 377.55 307.606C376.49 305.478 375.17 303.79 373.59 302.54C373.45 302.433 373.37 302.34 373.35 302.26C373.33 302.181 373.32 301.955 373.32 301.582Z" fill="white"/>
</g>
<g clip-path="url(#clip2)">
<path d="M409.847 328.786L409.436 328.944C409.14 329.049 408.718 329.155 408.17 329.26C407.621 329.366 407.009 329.44 406.334 329.482H405.732V328.026H406.334C407.326 327.984 408.244 327.825 409.088 327.551C409.932 327.277 410.523 327.024 410.86 326.791C411.198 326.559 411.493 326.327 411.746 326.095C411.789 326.032 411.915 326 412.126 326C412.316 326 412.496 326.063 412.664 326.19V335.654L412.696 345.15C412.844 345.298 412.97 345.393 413.076 345.435C413.181 345.477 413.435 345.519 413.836 345.562C414.236 345.604 414.891 345.625 415.798 345.625H416.621V347.081H416.273C415.83 347.018 414.152 346.986 411.24 346.986C408.37 346.986 406.714 347.018 406.271 347.081H405.891V345.625H406.714C407.178 345.625 407.579 345.625 407.916 345.625C408.254 345.625 408.518 345.614 408.708 345.593C408.898 345.572 409.067 345.54 409.214 345.498C409.362 345.456 409.446 345.435 409.467 345.435C409.489 345.435 409.552 345.382 409.657 345.277C409.763 345.171 409.826 345.129 409.847 345.15V328.786Z" fill="white"/>
<path d="M403.613 381.044C403.761 380.158 404.33 379.135 405.322 377.974C406.314 376.813 407.538 376.222 408.994 376.201C409.732 376.201 410.408 376.391 411.02 376.771C411.632 377.151 412.085 377.626 412.381 378.196C413.267 376.866 414.333 376.201 415.578 376.201C416.358 376.201 417.034 376.434 417.603 376.898C418.173 377.362 418.469 377.984 418.49 378.765C418.49 379.377 418.342 379.873 418.046 380.253C417.751 380.633 417.466 380.865 417.192 380.949C416.918 381.034 416.675 381.076 416.464 381.076C416.063 381.076 415.736 380.96 415.483 380.728C415.229 380.496 415.103 380.19 415.103 379.81C415.103 378.839 415.63 378.174 416.685 377.816C416.453 377.541 416.031 377.404 415.419 377.404C415.145 377.404 414.944 377.425 414.818 377.467C414.016 377.805 413.425 378.501 413.045 379.557C411.779 384.22 411.146 386.942 411.146 387.723C411.146 388.314 411.315 388.736 411.653 388.989C411.99 389.242 412.36 389.369 412.76 389.369C413.541 389.369 414.311 389.021 415.071 388.324C415.831 387.628 416.348 386.773 416.622 385.761C416.685 385.549 416.749 385.433 416.812 385.412C416.875 385.391 417.044 385.37 417.318 385.349H417.445C417.762 385.349 417.92 385.433 417.92 385.602C417.92 385.623 417.899 385.739 417.857 385.95C417.519 387.153 416.865 388.219 415.894 389.147C414.923 390.076 413.794 390.54 412.507 390.54C411.03 390.54 409.912 389.875 409.152 388.546C408.287 389.854 407.295 390.508 406.177 390.508H405.987C404.953 390.508 404.214 390.234 403.771 389.685C403.328 389.137 403.096 388.557 403.075 387.945C403.075 387.269 403.275 386.721 403.676 386.299C404.077 385.877 404.552 385.666 405.1 385.666C406.008 385.666 406.462 386.109 406.462 386.995C406.462 387.417 406.335 387.786 406.082 388.103C405.828 388.419 405.586 388.63 405.354 388.736C405.122 388.841 404.984 388.894 404.942 388.894L404.847 388.926C404.847 388.947 404.911 388.989 405.037 389.052C405.164 389.116 405.333 389.19 405.544 389.274C405.755 389.358 405.955 389.39 406.145 389.369C406.905 389.369 407.559 388.894 408.107 387.945C408.297 387.607 408.54 386.889 408.836 385.792C409.131 384.695 409.426 383.555 409.722 382.374C410.017 381.192 410.186 380.496 410.228 380.285C410.334 379.715 410.386 379.303 410.386 379.05C410.386 378.459 410.228 378.037 409.912 377.784C409.595 377.531 409.236 377.404 408.836 377.404C407.991 377.404 407.2 377.742 406.462 378.417C405.723 379.092 405.206 379.958 404.911 381.013C404.868 381.203 404.816 381.308 404.752 381.329C404.689 381.35 404.52 381.371 404.246 381.392H403.803C403.676 381.266 403.613 381.15 403.613 381.044Z" fill="white"/>
<path d="M423.238 361.515H398.802V359.615H423.238V361.515Z" fill="white"/>
</g>
<defs>
<clipPath id="clip0">
<rect width="134.383" height="64.54" fill="white" transform="translate(293 28)"/>
</clipPath>
<clipPath id="clip1">
<rect width="121" height="16" fill="white" transform="translate(373 421) rotate(-90)"/>
</clipPath>
<clipPath id="clip2">
<rect width="32.0392" height="64.54" fill="white" transform="translate(395 326)"/>
</clipPath>
</defs>
</svg>
