<svg xmlns="http://www.w3.org/2000/svg" width="960" height="480" viewBox="0 0 960 480">
  <rect width="960" height="480"/>
  <g>
    <line x1="382.894" y1="322.356" x2="369.904" y2="314.856" style="fill: none;stroke: #fff;stroke-miterlimit: 10;opacity: 0.66"/>
    <line x1="97.106" y1="322.356" x2="110.096" y2="314.856" style="fill: none;stroke: #fff;stroke-miterlimit: 10;opacity: 0.66"/>
    <line x1="240" y1="74.856" x2="240" y2="89.856" style="fill: none;stroke: #fff;stroke-miterlimit: 10;opacity: 0.66"/>
    <g>
      <path d="M137.111,46q.675.151.724.151.576,0,1-1.05.3-.825,1.826-8.9.7-3.776.725-3.8v-.075H140.21a6.794,6.794,0,0,1-1.25-.05c-.116-.067-.133-.25-.049-.55a2.087,2.087,0,0,1,.125-.4.226.226,0,0,1,.212-.138q.162-.012,1.163-.012a11.06,11.06,0,0,0,1.2-.025q0-.05.224-1.25c.151-.8.25-1.283.3-1.45a6.106,6.106,0,0,1,1.574-3.3,3.232,3.232,0,0,1,2.076-.825,2.544,2.544,0,0,1,1.512.549,1.626,1.626,0,0,1,.613,1.326,1.763,1.763,0,0,1-.451,1.225,1.449,1.449,0,0,1-1.125.5q-1.1,0-1.1-1.051a1.41,1.41,0,0,1,.875-1.349l.224-.125a2.463,2.463,0,0,0-.75-.151q-.725,0-.949.951-.2.75-.65,3.275l-.325,1.649a7,7,0,0,0,1.375.051q1.125,0,1.35.025c.15.016.225.075.225.174a2.808,2.808,0,0,1-.175.8.246.246,0,0,1-.238.137q-.187.014-1.337.013h-1.4l-.574,3.049q-.925,4.776-1.15,5.776-.85,3.774-2.276,5.125a2.816,2.816,0,0,1-1.824.8,2.266,2.266,0,0,1-1.5-.5,1.64,1.64,0,0,1-.6-1.326,1.845,1.845,0,0,1,.45-1.262,1.434,1.434,0,0,1,1.125-.512q1.1,0,1.1,1.05a1.41,1.41,0,0,1-.875,1.349Z" style="fill: #fff"/>
      <path d="M154.735,47.979c0,.149-.15.225-.45.225h-.325l-.7-.6q-4.5-4.1-4.5-11.9a20.141,20.141,0,0,1,.725-5.576A13.478,13.478,0,0,1,153.26,23.8c.116-.1.25-.213.4-.338s.25-.213.3-.262h.325a.593.593,0,0,1,.375.075.214.214,0,0,1,.075.15c0,.067-.091.192-.275.375q-3.876,4.1-3.875,11.9t3.875,11.9C154.644,47.787,154.735,47.912,154.735,47.979Z" style="fill: #fff"/>
      <path d="M157.585,35a.413.413,0,0,1-.15-.274A4.757,4.757,0,0,1,158.21,33a4.287,4.287,0,0,1,2.95-2.049,3.961,3.961,0,0,1,.525-.05,3.039,3.039,0,0,1,1.613.45,2.687,2.687,0,0,1,1.062,1.125c.217-.284.35-.458.4-.525a2.766,2.766,0,0,1,2.125-1.05,2.361,2.361,0,0,1,1.663.587,1.881,1.881,0,0,1,.637,1.438,1.969,1.969,0,0,1-.437,1.3,1.438,1.438,0,0,1-1.163.524,1.1,1.1,0,0,1-.775-.274.938.938,0,0,1-.3-.726,1.589,1.589,0,0,1,1.25-1.574,1.014,1.014,0,0,0-.275-.176,1.437,1.437,0,0,0-.725-.149,1.643,1.643,0,0,0-.475.05,2.615,2.615,0,0,0-1.4,1.65q-.075.2-.725,2.787t-.7,2.912a3.816,3.816,0,0,0-.075.75,1.283,1.283,0,0,0,.35.951,1.252,1.252,0,0,0,.925.35,2.579,2.579,0,0,0,1.9-.888,4.617,4.617,0,0,0,1.15-1.962q.075-.251.15-.288a1.208,1.208,0,0,1,.4-.038q.476,0,.475.2c0,.016-.017.108-.05.275a5.443,5.443,0,0,1-1.75,2.7,3.946,3.946,0,0,1-2.475.925,2.88,2.88,0,0,1-2.65-1.575,3.5,3.5,0,0,1-1.85,1.5,3.222,3.222,0,0,1-.65.05,2.18,2.18,0,0,1-2.05-1.025,1.933,1.933,0,0,1-.25-1,1.891,1.891,0,0,1,.45-1.275,1.449,1.449,0,0,1,1.15-.526.94.94,0,0,1,1.075,1.051,1.411,1.411,0,0,1-.875,1.35l-.125.062-.125.063a.206.206,0,0,1-.075.025l-.075.025c0,.049.125.125.375.225a1.68,1.68,0,0,0,.65.125,1.845,1.845,0,0,0,1.55-1.125,18.905,18.905,0,0,0,.975-3.25c.1-.384.208-.808.325-1.275s.2-.825.263-1.075.1-.4.112-.451a6,6,0,0,0,.125-.974,1.337,1.337,0,0,0-.325-.95,1.165,1.165,0,0,0-.9-.35,2.61,2.61,0,0,0-1.95.862,4.748,4.748,0,0,0-1.15,1.988c-.033.15-.071.237-.112.262a1.218,1.218,0,0,1-.413.037Z" style="fill: #fff"/>
      <path d="M171.835,35.7a.544.544,0,0,1,.35-.5h7.475v-3.75l.025-3.75q.25-.326.475-.326a.548.548,0,0,1,.5.375V35.2h7.45a.521.521,0,0,1,0,1h-7.45v7.45a.533.533,0,0,1-1,0V36.2h-7.475A.546.546,0,0,1,171.835,35.7Z" style="fill: #fff"/>
      <path d="M200.835,24.753q.375-.024.85-.062c.316-.025.554-.045.712-.063s.246-.024.263-.024c.2,0,.3.066.3.2q0,.174-1.838,7.562t-1.862,7.512a2.05,2.05,0,0,0-.025.375q0,1.052.7,1.051a1.1,1.1,0,0,0,.5-.225,5.68,5.68,0,0,0,1.025-2.4q.15-.5.25-.525a.709.709,0,0,1,.25-.026h.1c.316,0,.475.067.475.2a2.1,2.1,0,0,1-.075.4,6.522,6.522,0,0,1-1.35,2.9,2.49,2.49,0,0,1-.8.526,2.693,2.693,0,0,1-.6.05,2.257,2.257,0,0,1-2.2-1.225,1.9,1.9,0,0,0-.125-.3c-.017-.017-.05-.009-.1.025l-.1.1a5.12,5.12,0,0,1-2.375,1.375,4.95,4.95,0,0,1-.625.025,3.317,3.317,0,0,1-2.725-1.375,4.868,4.868,0,0,1-.75-2.8,7.634,7.634,0,0,1,1.7-4.6,6.538,6.538,0,0,1,3.45-2.375,3.718,3.718,0,0,1,1.025-.15,2.393,2.393,0,0,1,2.1,1.05c.083.1.125.133.125.1q.024-.1.687-2.738t.688-2.762a.449.449,0,0,0-.15-.4,3.7,3.7,0,0,0-1-.125h-.525a.694.694,0,0,1-.163-.2,2.607,2.607,0,0,1,.063-.475q.124-.476.325-.476c.016,0,.1-.007.262-.024s.384-.034.675-.05S200.551,24.771,200.835,24.753Zm-2.15,9.051q-.55-1.976-1.875-1.975a2.309,2.309,0,0,0-1.763.85,5.925,5.925,0,0,0-1.162,1.949,19.925,19.925,0,0,0-1.025,4.1c0,.05-.005.142-.013.274s-.012.234-.012.3a2.465,2.465,0,0,0,.387,1.449,1.3,1.3,0,0,0,1.138.551q1.324,0,2.775-1.8l.2-.274q.225-.9.675-2.713T198.685,33.8Z" style="fill: #fff"/>
      <path d="M204.335,35a.413.413,0,0,1-.15-.274A4.757,4.757,0,0,1,204.96,33a4.283,4.283,0,0,1,2.95-2.049,3.946,3.946,0,0,1,.525-.05,3.035,3.035,0,0,1,1.612.45,2.689,2.689,0,0,1,1.063,1.125c.216-.284.35-.458.4-.525a2.766,2.766,0,0,1,2.125-1.05,2.358,2.358,0,0,1,1.662.587,1.882,1.882,0,0,1,.638,1.438,1.964,1.964,0,0,1-.438,1.3,1.435,1.435,0,0,1-1.162.524,1.1,1.1,0,0,1-.775-.274.938.938,0,0,1-.3-.726,1.588,1.588,0,0,1,1.25-1.574,1.014,1.014,0,0,0-.275-.176,1.439,1.439,0,0,0-.725-.149,1.643,1.643,0,0,0-.475.05,2.612,2.612,0,0,0-1.4,1.65q-.075.2-.725,2.787t-.7,2.912a3.816,3.816,0,0,0-.075.75,1.283,1.283,0,0,0,.35.951,1.25,1.25,0,0,0,.925.35,2.58,2.58,0,0,0,1.9-.888,4.617,4.617,0,0,0,1.15-1.962q.075-.251.15-.288a1.208,1.208,0,0,1,.4-.038c.316,0,.475.067.475.2,0,.016-.017.108-.05.275a5.449,5.449,0,0,1-1.75,2.7,3.95,3.95,0,0,1-2.475.925,2.88,2.88,0,0,1-2.65-1.575,3.5,3.5,0,0,1-1.85,1.5,3.222,3.222,0,0,1-.65.05,2.18,2.18,0,0,1-2.05-1.025,1.933,1.933,0,0,1-.25-1,1.891,1.891,0,0,1,.45-1.275,1.447,1.447,0,0,1,1.15-.526.94.94,0,0,1,1.075,1.051,1.412,1.412,0,0,1-.875,1.35l-.125.062-.125.063a.212.212,0,0,1-.075.025l-.075.025c0,.049.125.125.375.225a1.677,1.677,0,0,0,.65.125,1.846,1.846,0,0,0,1.55-1.125,19.006,19.006,0,0,0,.975-3.25c.1-.384.208-.808.325-1.275s.2-.825.262-1.075.1-.4.113-.451a6.113,6.113,0,0,0,.125-.974,1.342,1.342,0,0,0-.325-.95,1.166,1.166,0,0,0-.9-.35,2.61,2.61,0,0,0-1.95.862,4.737,4.737,0,0,0-1.15,1.988c-.034.15-.071.237-.113.262a1.206,1.206,0,0,1-.412.037Z" style="fill: #fff"/>
      <path d="M218.685,23.229l.1-.025h.549c.117.1.351.3.7.6q4.5,4.1,4.5,11.9a19.73,19.73,0,0,1-.724,5.549,13.5,13.5,0,0,1-3.775,6.351q-.175.15-.4.337c-.151.125-.25.213-.3.263h-.3a.942.942,0,0,1-.388-.05c-.059-.034-.087-.117-.087-.25.016-.017.108-.125.274-.325q3.876-4.026,3.876-11.875t-3.876-11.875c-.166-.2-.258-.308-.274-.326A.292.292,0,0,1,218.685,23.229Z" style="fill: #fff"/>
      <path d="M234.56,33.279a.544.544,0,0,1,.349-.5h15.925a.547.547,0,0,1,.375.5.563.563,0,0,1-.35.474l-7.95.026h-7.95A.5.5,0,0,1,234.56,33.279Zm0,4.849a.5.5,0,0,1,.4-.5h15.9a.84.84,0,0,0,.113.088,1.238,1.238,0,0,1,.125.1.433.433,0,0,1,.075.125.491.491,0,0,1,.037.187.546.546,0,0,1-.375.5H234.909A.543.543,0,0,1,234.56,38.128Z" style="fill: #fff"/>
      <path d="M267.185,47.979c0,.149-.151.225-.451.225h-.325l-.7-.6q-4.5-4.1-4.5-11.9a20.14,20.14,0,0,1,.726-5.576,13.476,13.476,0,0,1,3.774-6.324q.175-.15.4-.338c.151-.125.25-.213.3-.262h.325a.589.589,0,0,1,.375.075.216.216,0,0,1,.076.15q0,.1-.276.375-3.874,4.1-3.875,11.9t3.875,11.9Q267.185,47.879,267.185,47.979Z" style="fill: #fff"/>
      <path d="M270.034,35a.413.413,0,0,1-.15-.274A4.757,4.757,0,0,1,270.659,33a4.285,4.285,0,0,1,2.95-2.049,3.961,3.961,0,0,1,.525-.05,3.035,3.035,0,0,1,1.612.45,2.689,2.689,0,0,1,1.063,1.125c.216-.284.35-.458.4-.525a2.766,2.766,0,0,1,2.125-1.05,2.357,2.357,0,0,1,1.662.587,1.878,1.878,0,0,1,.638,1.438,1.964,1.964,0,0,1-.438,1.3,1.435,1.435,0,0,1-1.162.524,1.1,1.1,0,0,1-.775-.274.938.938,0,0,1-.3-.726,1.588,1.588,0,0,1,1.25-1.574,1.014,1.014,0,0,0-.275-.176,1.437,1.437,0,0,0-.725-.149,1.643,1.643,0,0,0-.475.05,2.615,2.615,0,0,0-1.4,1.65q-.075.2-.725,2.787t-.7,2.912a3.816,3.816,0,0,0-.075.75,1.283,1.283,0,0,0,.35.951,1.252,1.252,0,0,0,.925.35,2.58,2.58,0,0,0,1.9-.888,4.617,4.617,0,0,0,1.15-1.962q.075-.251.15-.288a1.208,1.208,0,0,1,.4-.038c.316,0,.475.067.475.2,0,.016-.017.108-.05.275a5.436,5.436,0,0,1-1.75,2.7,3.948,3.948,0,0,1-2.475.925,2.88,2.88,0,0,1-2.65-1.575,3.5,3.5,0,0,1-1.85,1.5,3.222,3.222,0,0,1-.65.05,2.18,2.18,0,0,1-2.05-1.025,1.933,1.933,0,0,1-.25-1,1.891,1.891,0,0,1,.45-1.275,1.447,1.447,0,0,1,1.15-.526.94.94,0,0,1,1.075,1.051,1.412,1.412,0,0,1-.875,1.35l-.125.062-.125.063a.206.206,0,0,1-.075.025l-.075.025c0,.049.125.125.375.225a1.677,1.677,0,0,0,.65.125,1.846,1.846,0,0,0,1.55-1.125,19.006,19.006,0,0,0,.975-3.25c.1-.384.208-.808.325-1.275s.2-.825.262-1.075.1-.4.113-.451a6.113,6.113,0,0,0,.125-.974,1.342,1.342,0,0,0-.325-.95,1.165,1.165,0,0,0-.9-.35,2.61,2.61,0,0,0-1.95.862,4.737,4.737,0,0,0-1.15,1.988c-.034.15-.071.237-.112.262a1.218,1.218,0,0,1-.413.037Z" style="fill: #fff"/>
      <path d="M284.284,35.7a.543.543,0,0,1,.35-.5h7.474v-3.75l.026-3.75c.166-.217.325-.326.474-.326a.546.546,0,0,1,.5.375V35.2h7.451a.521.521,0,0,1,0,1h-7.451v7.45a.533.533,0,0,1-1,0V36.2h-7.474A.545.545,0,0,1,284.284,35.7Z" style="fill: #fff"/>
      <path d="M313.284,24.753q.375-.024.85-.062c.316-.025.554-.045.713-.063s.245-.024.262-.024c.2,0,.3.066.3.2q0,.174-1.838,7.562t-1.862,7.512a2.05,2.05,0,0,0-.025.375q0,1.052.7,1.051a1.1,1.1,0,0,0,.5-.225,5.68,5.68,0,0,0,1.025-2.4q.15-.5.25-.525a.709.709,0,0,1,.25-.026h.1c.316,0,.475.067.475.2a2.1,2.1,0,0,1-.075.4,6.522,6.522,0,0,1-1.35,2.9,2.49,2.49,0,0,1-.8.526,2.687,2.687,0,0,1-.6.05,2.257,2.257,0,0,1-2.2-1.225,1.9,1.9,0,0,0-.125-.3c-.017-.017-.05-.009-.1.025-.034.033-.067.067-.1.1a5.12,5.12,0,0,1-2.375,1.375,4.95,4.95,0,0,1-.625.025,3.317,3.317,0,0,1-2.725-1.375,4.868,4.868,0,0,1-.75-2.8,7.641,7.641,0,0,1,1.7-4.6,6.542,6.542,0,0,1,3.45-2.375,3.718,3.718,0,0,1,1.025-.15,2.393,2.393,0,0,1,2.1,1.05c.084.1.125.133.125.1q.024-.1.687-2.738t.688-2.762a.449.449,0,0,0-.15-.4,3.686,3.686,0,0,0-1-.125h-.525a.664.664,0,0,1-.162-.2,2.455,2.455,0,0,1,.062-.475c.083-.317.192-.476.325-.476.016,0,.1-.007.262-.024s.384-.034.676-.05S313,24.771,313.284,24.753Zm-2.15,9.051q-.549-1.976-1.875-1.975a2.309,2.309,0,0,0-1.763.85,5.942,5.942,0,0,0-1.162,1.949,19.989,19.989,0,0,0-1.025,4.1c0,.05,0,.142-.012.274s-.013.234-.013.3a2.458,2.458,0,0,0,.388,1.449,1.3,1.3,0,0,0,1.137.551q1.325,0,2.775-1.8l.2-.274q.225-.9.675-2.713T311.134,33.8Z" style="fill: #fff"/>
      <path d="M316.784,35a.413.413,0,0,1-.15-.274A4.757,4.757,0,0,1,317.409,33a4.285,4.285,0,0,1,2.95-2.049,3.961,3.961,0,0,1,.525-.05,3.035,3.035,0,0,1,1.612.45,2.689,2.689,0,0,1,1.063,1.125c.216-.284.35-.458.4-.525a2.766,2.766,0,0,1,2.125-1.05,2.357,2.357,0,0,1,1.662.587,1.878,1.878,0,0,1,.638,1.438,1.964,1.964,0,0,1-.438,1.3,1.435,1.435,0,0,1-1.162.524,1.1,1.1,0,0,1-.775-.274.938.938,0,0,1-.3-.726,1.588,1.588,0,0,1,1.25-1.574,1.014,1.014,0,0,0-.275-.176,1.437,1.437,0,0,0-.725-.149,1.643,1.643,0,0,0-.475.05,2.615,2.615,0,0,0-1.4,1.65q-.075.2-.725,2.787t-.7,2.912a3.816,3.816,0,0,0-.075.75,1.283,1.283,0,0,0,.35.951,1.252,1.252,0,0,0,.925.35,2.58,2.58,0,0,0,1.9-.888,4.617,4.617,0,0,0,1.15-1.962q.075-.251.15-.288a1.208,1.208,0,0,1,.4-.038c.316,0,.475.067.475.2,0,.016-.017.108-.05.275a5.436,5.436,0,0,1-1.75,2.7,3.948,3.948,0,0,1-2.475.925,2.88,2.88,0,0,1-2.65-1.575,3.5,3.5,0,0,1-1.85,1.5,3.222,3.222,0,0,1-.65.05,2.18,2.18,0,0,1-2.05-1.025,1.933,1.933,0,0,1-.25-1,1.891,1.891,0,0,1,.45-1.275,1.447,1.447,0,0,1,1.15-.526.94.94,0,0,1,1.075,1.051,1.412,1.412,0,0,1-.875,1.35l-.125.062-.125.063a.206.206,0,0,1-.075.025l-.075.025c0,.049.125.125.375.225a1.677,1.677,0,0,0,.65.125,1.846,1.846,0,0,0,1.55-1.125,19.006,19.006,0,0,0,.975-3.25c.1-.384.208-.808.325-1.275s.2-.825.262-1.075.1-.4.113-.451a6.113,6.113,0,0,0,.125-.974,1.342,1.342,0,0,0-.325-.95,1.165,1.165,0,0,0-.9-.35,2.61,2.61,0,0,0-1.95.862,4.737,4.737,0,0,0-1.15,1.988c-.034.15-.071.237-.112.262a1.218,1.218,0,0,1-.413.037Z" style="fill: #fff"/>
      <path d="M331.134,23.229l.1-.025h.551c.116.1.35.3.7.6q4.5,4.1,4.5,11.9a19.73,19.73,0,0,1-.724,5.549,13.493,13.493,0,0,1-3.776,6.351c-.116.1-.25.212-.4.337s-.25.213-.3.263h-.3a.933.933,0,0,1-.386-.05c-.059-.034-.088-.117-.088-.25.016-.017.108-.125.275-.325q3.875-4.026,3.875-11.875t-3.875-11.875c-.167-.2-.259-.308-.275-.326A.292.292,0,0,1,331.134,23.229Z" style="fill: #fff"/>
      <path d="M341.209,26.88a.792.792,0,0,1-.619-.248.913.913,0,0,1-.226-.641,1.762,1.762,0,0,1,.656-1.392,2.785,2.785,0,0,1,1.516-.663h.218q.512,0,.642.015a3.558,3.558,0,0,1,.976.306,2.166,2.166,0,0,1,1.21,1.37,1.421,1.421,0,0,1,.044.394,2.427,2.427,0,0,1-.532,1.537,2.945,2.945,0,0,1-1.334.969c-.049.02-.049.035,0,.044a.953.953,0,0,0,.146.044,3.1,3.1,0,0,1,1.5.925,2.233,2.233,0,0,1,.613,1.538,2.536,2.536,0,0,1-.278,1.151,2.886,2.886,0,0,1-1.144,1.232,3.318,3.318,0,0,1-1.771.488,3.484,3.484,0,0,1-1.7-.408,2.1,2.1,0,0,1-1.006-1.093,1.661,1.661,0,0,1-.145-.714.877.877,0,0,1,.269-.664.97.97,0,0,1,1.32.008.892.892,0,0,1,.261.656.934.934,0,0,1-.189.583.855.855,0,0,1-.51.32l-.1.03a2.743,2.743,0,0,0,1.807.655,1.3,1.3,0,0,0,1.21-.772,3.351,3.351,0,0,0,.248-1.472v-.292a1.867,1.867,0,0,0-.933-1.851,3.075,3.075,0,0,0-.889-.1l-.612-.014-.044-.029a.538.538,0,0,1-.029-.234.347.347,0,0,1,.043-.218.124.124,0,0,1,.074-.044,5.107,5.107,0,0,0,.845-.073,1.265,1.265,0,0,0,.977-.721,3.24,3.24,0,0,0,.335-1.523,1.386,1.386,0,0,0-.511-1.269,1.214,1.214,0,0,0-.685-.2,2.158,2.158,0,0,0-1.282.394.606.606,0,0,0-.132.095.916.916,0,0,0-.116.124l-.044.058c.03.01.064.019.1.029a.7.7,0,0,1,.488.277.889.889,0,0,1,.2.568.8.8,0,0,1-.24.591A.84.84,0,0,1,341.209,26.88Z" style="fill: #fff"/>
    </g>
  </g>
  <g>
    <polygon points="720 389.856 720 239.856 849.904 164.856 849.904 314.856 720 389.856" style="fill: #6da5b2;stroke: #fff;stroke-miterlimit: 10"/>
    <polygon points="720 239.856 590.096 164.856 590.096 314.856 720 389.856 720 239.856" style="fill: #4c727f;stroke: #fff;stroke-miterlimit: 10"/>
    <polygon points="849.904 164.856 720 89.856 590.096 164.856 720 239.856 849.904 164.856" style="fill: #a9e2ea;stroke: #fff;stroke-miterlimit: 10"/>
    <g>
      <polygon points="758.971 217.356 745.981 209.856 745.981 224.856 758.971 232.356 758.971 217.356" style="fill: #b49dc1;stroke: #fff;stroke-miterlimit: 10"/>
      <polygon points="875.885 134.856 862.894 142.356 758.971 202.356 745.981 209.856 758.971 217.356 875.885 149.856 888.875 142.356 875.885 134.856" style="fill: #f5e0e9;stroke: #fff;stroke-miterlimit: 10"/>
      <polygon points="888.875 142.356 875.885 149.856 758.971 217.356 758.971 232.356 771.962 224.856 875.885 164.856 888.875 157.356 888.875 142.356" style="fill: #f9bed6;stroke: #fff;stroke-miterlimit: 10"/>
    </g>
    <g>
      <polygon points="681.029 217.356 681.029 232.356 694.019 224.856 694.019 209.856 681.029 217.356" style="fill: #f9bed6;stroke: #fff;stroke-miterlimit: 10"/>
      <polygon points="551.125 157.356 564.115 164.856 668.038 224.856 681.029 232.356 681.029 217.356 564.115 149.856 551.125 142.356 551.125 157.356" style="fill: #b49dc1;stroke: #fff;stroke-miterlimit: 10"/>
      <polygon points="551.125 142.356 564.115 149.856 681.029 217.356 694.019 209.856 681.029 202.356 577.106 142.356 564.115 134.856 551.125 142.356" style="fill: #f5e0e9;stroke: #fff;stroke-miterlimit: 10"/>
    </g>
    <g>
      <polygon points="720 284.856 732.99 277.356 720 269.856 707.01 277.356 720 284.856" style="fill: #f5e0e9;stroke: #fff;stroke-miterlimit: 10"/>
      <polygon points="732.99 427.356 732.99 412.356 732.99 292.356 732.99 277.356 720 284.856 720 419.856 720 434.856 732.99 427.356" style="fill: #f9bed6;stroke: #fff;stroke-miterlimit: 10"/>
      <polygon points="720 434.856 720 419.856 720 284.856 707.01 277.356 707.01 292.356 707.01 412.356 707.01 427.356 720 434.856" style="fill: #b49dc1;stroke: #fff;stroke-miterlimit: 10"/>
    </g>
    <g>
      <polygon points="590.096 119.856 720 194.856 849.904 119.856 720 44.856 590.096 119.856" style="fill: #fee8b4;stroke: #fff;stroke-miterlimit: 10"/>
      <polygon points="720 194.856 720 209.856 849.904 134.856 849.904 119.856 720 194.856" style="fill: #f7c8ab;stroke: #fff;stroke-miterlimit: 10"/>
      <polygon points="590.096 119.856 590.096 134.856 720 209.856 720 194.856 590.096 119.856" style="fill: #ef9c7b;stroke: #fff;stroke-miterlimit: 10"/>
    </g>
    <g>
      <polygon points="758.971 262.356 758.971 412.356 888.875 337.356 888.875 187.356 758.971 262.356" style="fill: #f7c8ab;stroke: #fff;stroke-miterlimit: 10"/>
      <polygon points="888.875 187.356 875.885 179.856 745.981 254.856 758.971 262.356 888.875 187.356" style="fill: #fee8b4;stroke: #fff;stroke-miterlimit: 10"/>
      <polygon points="758.971 412.356 745.981 404.856 745.981 254.856 758.971 262.356 758.971 412.356" style="fill: #ef9c7b;stroke: #fff;stroke-miterlimit: 10"/>
    </g>
    <g>
      <polygon points="681.029 412.356 551.125 337.356 551.125 187.356 681.029 262.356 681.029 412.356" style="fill: #ef9c7b;stroke: #fff;stroke-miterlimit: 10"/>
      <polygon points="681.029 262.356 694.019 254.856 694.019 404.856 681.029 412.356 681.029 262.356" style="fill: #f7c8ab;stroke: #fff;stroke-miterlimit: 10"/>
      <polyline points="564.115 179.856 551.125 187.356 681.029 262.356 694.019 254.856 564.115 179.856" style="fill: #fee8b4;stroke: #fff;stroke-miterlimit: 10"/>
    </g>
    <g>
      <polygon points="732.99 232.356 720 239.856 720 254.856 732.99 247.356 732.99 232.356" style="fill: #f9bed6;stroke: #fff;stroke-miterlimit: 10"/>
      <polygon points="720 224.856 707.01 232.356 720 239.856 732.99 232.356 720 224.856" style="fill: #f5e0e9;stroke: #fff;stroke-miterlimit: 10"/>
      <polygon points="707.01 247.356 720 254.856 720 239.856 707.01 232.356 707.01 247.356" style="fill: #b49dc1;stroke: #fff;stroke-miterlimit: 10"/>
    </g>
    <g>
      <line x1="901.865" y1="179.81" x2="901.865" y2="329.81" style="fill: #f7c8ab;stroke: #fff;stroke-miterlimit: 10"/>
      <line x1="898.618" y1="181.742" x2="905.113" y2="177.969" style="fill: #f7c8ab;stroke: #fff;stroke-miterlimit: 10"/>
      <line x1="898.618" y1="331.696" x2="905.113" y2="327.923" style="fill: #f7c8ab;stroke: #fff;stroke-miterlimit: 10"/>
    </g>
    <g>
      <line x1="901.895" y1="344.542" x2="771.991" y2="419.542" style="fill: #f7c8ab;stroke: #fff;stroke-miterlimit: 10"/>
      <line x1="898.598" y1="342.695" x2="905.113" y2="346.434" style="fill: #f7c8ab;stroke: #fff;stroke-miterlimit: 10"/>
      <line x1="768.734" y1="417.673" x2="775.249" y2="421.411" style="fill: #f7c8ab;stroke: #fff;stroke-miterlimit: 10"/>
    </g>
    <path d="M920.536,252.217a.369.369,0,0,1-.133-.242,4.181,4.181,0,0,1,.683-1.518,3.776,3.776,0,0,1,2.6-1.805,3.836,3.836,0,0,1,.462-.044,2.67,2.67,0,0,1,1.418.4,2.368,2.368,0,0,1,.936.99c.19-.25.308-.4.352-.462a2.439,2.439,0,0,1,1.87-.925,2.073,2.073,0,0,1,1.463.518,1.656,1.656,0,0,1,.561,1.265,1.725,1.725,0,0,1-.386,1.144,1.262,1.262,0,0,1-1.022.462.975.975,0,0,1-.683-.242.827.827,0,0,1-.263-.638,1.4,1.4,0,0,1,1.1-1.387.956.956,0,0,0-.242-.153,1.245,1.245,0,0,0-.639-.133,1.489,1.489,0,0,0-.418.044,2.31,2.31,0,0,0-1.231,1.452q-.066.178-.639,2.454t-.615,2.563a3.35,3.35,0,0,0-.066.66,1.128,1.128,0,0,0,.308.836,1.1,1.1,0,0,0,.814.308,2.268,2.268,0,0,0,1.672-.782,4.034,4.034,0,0,0,1.011-1.726c.045-.147.089-.232.133-.253a1.068,1.068,0,0,1,.352-.033c.278,0,.418.058.418.176,0,.014-.015.095-.044.242a4.79,4.79,0,0,1-1.54,2.376,3.469,3.469,0,0,1-2.178.814,2.535,2.535,0,0,1-2.332-1.387,3.079,3.079,0,0,1-1.628,1.321,2.838,2.838,0,0,1-.572.044,1.917,1.917,0,0,1-1.8-.9,1.7,1.7,0,0,1-.221-.879,1.671,1.671,0,0,1,.4-1.123,1.274,1.274,0,0,1,1.012-.461.827.827,0,0,1,.946.923,1.243,1.243,0,0,1-.771,1.189l-.109.055-.11.055a.17.17,0,0,1-.066.022l-.066.022c0,.044.11.109.33.2a1.441,1.441,0,0,0,.572.111,1.624,1.624,0,0,0,1.363-.99,16.53,16.53,0,0,0,.859-2.86q.132-.507.286-1.122c.1-.411.18-.727.23-.946s.085-.352.1-.4a5.349,5.349,0,0,0,.109-.857,1.176,1.176,0,0,0-.285-.836,1.03,1.03,0,0,0-.792-.309,2.3,2.3,0,0,0-1.717.76,4.175,4.175,0,0,0-1.011,1.749q-.045.2-.1.231a1.064,1.064,0,0,1-.363.033Z" style="fill: #fff"/>
    <g>
      <path d="M923.843,129.6c.22-.014.469-.033.748-.055s.487-.041.627-.055.217-.022.231-.022c.176,0,.264.059.264.176s-.539,2.321-1.617,6.655-1.624,6.537-1.639,6.611a1.787,1.787,0,0,0-.022.33q0,.924.616.924a.955.955,0,0,0,.44-.2,4.98,4.98,0,0,0,.9-2.112c.088-.293.162-.447.22-.462a.666.666,0,0,1,.22-.022h.088c.278,0,.418.059.418.176a1.845,1.845,0,0,1-.066.352,5.729,5.729,0,0,1-1.188,2.552,2.165,2.165,0,0,1-.7.462,2.357,2.357,0,0,1-.527.044,1.985,1.985,0,0,1-1.937-1.078,1.673,1.673,0,0,0-.11-.264c-.015-.014-.044-.007-.088.022l-.088.088a4.506,4.506,0,0,1-2.09,1.21,4.361,4.361,0,0,1-.55.022,2.92,2.92,0,0,1-2.4-1.21,4.282,4.282,0,0,1-.66-2.464,6.726,6.726,0,0,1,1.5-4.048,5.762,5.762,0,0,1,3.036-2.09,3.272,3.272,0,0,1,.9-.132,2.107,2.107,0,0,1,1.848.924c.073.088.11.117.11.088l.6-2.409q.582-2.322.605-2.431a.4.4,0,0,0-.132-.352,3.335,3.335,0,0,0-.88-.11h-.462a.605.605,0,0,1-.143-.176,2.192,2.192,0,0,1,.055-.418c.073-.278.169-.418.286-.418.014,0,.092-.007.231-.022s.337-.029.594-.044Zm-1.892,7.964q-.485-1.739-1.65-1.738a2.03,2.03,0,0,0-1.551.748,5.227,5.227,0,0,0-1.023,1.716,17.585,17.585,0,0,0-.9,3.608c0,.044,0,.125-.011.242s-.011.205-.011.264a2.167,2.167,0,0,0,.341,1.276,1.146,1.146,0,0,0,1,.484,3.417,3.417,0,0,0,2.441-1.584l.176-.242q.2-.792.594-2.387T921.951,137.561Z" style="fill: #fff"/>
      <path d="M926.923,138.617a.369.369,0,0,1-.133-.242,4.181,4.181,0,0,1,.683-1.518,3.77,3.77,0,0,1,2.6-1.8,3.653,3.653,0,0,1,.462-.044,2.67,2.67,0,0,1,1.419.4,2.374,2.374,0,0,1,.936.99q.285-.374.351-.462a2.438,2.438,0,0,1,1.87-.924,2.076,2.076,0,0,1,1.463.517,1.655,1.655,0,0,1,.562,1.265,1.725,1.725,0,0,1-.386,1.144,1.265,1.265,0,0,1-1.022.462.973.973,0,0,1-.683-.242.824.824,0,0,1-.264-.638,1.4,1.4,0,0,1,1.1-1.386.909.909,0,0,0-.242-.154,1.261,1.261,0,0,0-.639-.132,1.452,1.452,0,0,0-.418.044,2.3,2.3,0,0,0-1.231,1.452q-.066.175-.639,2.453t-.615,2.563a3.359,3.359,0,0,0-.067.66,1.129,1.129,0,0,0,.309.836,1.1,1.1,0,0,0,.813.308,2.268,2.268,0,0,0,1.672-.781,4.055,4.055,0,0,0,1.012-1.727c.045-.147.089-.231.133-.253a1.065,1.065,0,0,1,.351-.033c.279,0,.418.059.418.176,0,.015-.014.1-.044.242a4.783,4.783,0,0,1-1.54,2.376,3.466,3.466,0,0,1-2.177.814,2.533,2.533,0,0,1-2.332-1.386,3.082,3.082,0,0,1-1.628,1.32,2.849,2.849,0,0,1-.573.044,1.917,1.917,0,0,1-1.8-.9,1.692,1.692,0,0,1-.221-.88,1.67,1.67,0,0,1,.4-1.122,1.274,1.274,0,0,1,1.012-.462.827.827,0,0,1,.947.924A1.241,1.241,0,0,1,928,143.7l-.109.055-.111.055a.162.162,0,0,1-.065.022l-.067.022c0,.044.111.11.331.2a1.454,1.454,0,0,0,.572.11,1.624,1.624,0,0,0,1.363-.99,16.572,16.572,0,0,0,.858-2.86q.132-.506.287-1.122t.23-.946c.052-.22.085-.352.1-.4a5.371,5.371,0,0,0,.109-.858,1.182,1.182,0,0,0-.285-.836,1.031,1.031,0,0,0-.792-.308,2.3,2.3,0,0,0-1.717.759,4.188,4.188,0,0,0-1.012,1.749c-.029.132-.062.209-.1.231a1.067,1.067,0,0,1-.364.033Z" style="fill: #fff"/>
    </g>
    <g>
      <path d="M758.863,445.614c.221-.013.47-.032.748-.054s.488-.04.627-.055.217-.023.232-.023c.176,0,.263.06.263.177s-.539,2.32-1.617,6.654-1.624,6.539-1.638,6.612a1.769,1.769,0,0,0-.023.33q0,.924.616.924a.951.951,0,0,0,.441-.2,4.989,4.989,0,0,0,.9-2.111c.089-.294.162-.447.221-.463a.7.7,0,0,1,.22-.021h.087c.279,0,.418.058.418.176a1.841,1.841,0,0,1-.065.352,5.734,5.734,0,0,1-1.189,2.552,2.17,2.17,0,0,1-.7.462,2.357,2.357,0,0,1-.527.044,1.985,1.985,0,0,1-1.936-1.078,1.585,1.585,0,0,0-.111-.264c-.015-.015-.044-.008-.088.021s-.058.06-.088.088a4.506,4.506,0,0,1-2.089,1.211,4.373,4.373,0,0,1-.55.022,2.924,2.924,0,0,1-2.4-1.21,4.292,4.292,0,0,1-.66-2.464,6.726,6.726,0,0,1,1.5-4.048,5.762,5.762,0,0,1,3.036-2.09,3.249,3.249,0,0,1,.9-.133,2.106,2.106,0,0,1,1.847.925c.074.088.111.117.111.088q.021-.088.6-2.409t.606-2.431a.394.394,0,0,0-.132-.352,3.323,3.323,0,0,0-.88-.111h-.463a.607.607,0,0,1-.143-.175,2.282,2.282,0,0,1,.055-.418c.073-.279.169-.418.286-.418.015,0,.092-.007.232-.022s.337-.029.593-.044S758.614,445.63,758.863,445.614Zm-1.891,7.965q-.486-1.738-1.651-1.738a2.028,2.028,0,0,0-1.55.748,5.2,5.2,0,0,0-1.024,1.716,17.519,17.519,0,0,0-.9,3.608c0,.044,0,.124-.011.241s-.012.206-.012.265a2.171,2.171,0,0,0,.341,1.275,1.147,1.147,0,0,0,1,.485,3.418,3.418,0,0,0,2.441-1.584l.176-.242q.2-.792.6-2.387T756.972,453.579Z" style="fill: #fff"/>
      <path d="M761.943,454.635a.367.367,0,0,1-.132-.242,4.176,4.176,0,0,1,.682-1.518,3.779,3.779,0,0,1,2.6-1.805,3.836,3.836,0,0,1,.462-.044,2.676,2.676,0,0,1,1.419.4,2.372,2.372,0,0,1,.935.99c.191-.25.308-.4.352-.462a2.439,2.439,0,0,1,1.87-.925,2.072,2.072,0,0,1,1.463.518,1.656,1.656,0,0,1,.561,1.265,1.73,1.73,0,0,1-.385,1.144,1.266,1.266,0,0,1-1.023.462.971.971,0,0,1-.682-.242.824.824,0,0,1-.264-.638,1.4,1.4,0,0,1,1.1-1.387.956.956,0,0,0-.242-.153,1.243,1.243,0,0,0-.638-.133,1.484,1.484,0,0,0-.418.044,2.309,2.309,0,0,0-1.232,1.452q-.066.178-.638,2.454t-.616,2.563a3.35,3.35,0,0,0-.066.66,1.128,1.128,0,0,0,.308.836,1.1,1.1,0,0,0,.814.308,2.268,2.268,0,0,0,1.672-.782,4.046,4.046,0,0,0,1.012-1.726c.044-.147.088-.232.132-.253a1.068,1.068,0,0,1,.352-.033c.278,0,.418.058.418.176,0,.014-.015.1-.044.242a4.79,4.79,0,0,1-1.54,2.376,3.469,3.469,0,0,1-2.178.814,2.535,2.535,0,0,1-2.332-1.387,3.079,3.079,0,0,1-1.628,1.321,2.838,2.838,0,0,1-.572.044,1.917,1.917,0,0,1-1.8-.9,1.7,1.7,0,0,1-.22-.88,1.669,1.669,0,0,1,.4-1.122,1.277,1.277,0,0,1,1.012-.462.827.827,0,0,1,.946.924,1.243,1.243,0,0,1-.77,1.189l-.11.054-.11.056a.17.17,0,0,1-.066.022l-.066.022c0,.044.11.109.33.2a1.441,1.441,0,0,0,.572.111,1.623,1.623,0,0,0,1.364-.991,16.513,16.513,0,0,0,.858-2.859q.132-.507.286-1.122c.1-.411.18-.727.231-.946s.085-.352.1-.4a5.382,5.382,0,0,0,.11-.857,1.176,1.176,0,0,0-.286-.836,1.03,1.03,0,0,0-.792-.309,2.3,2.3,0,0,0-1.716.76,4.167,4.167,0,0,0-1.012,1.749c-.029.132-.063.209-.1.231a1.064,1.064,0,0,1-.363.033Z" style="fill: #fff"/>
    </g>
    <g>
      <path d="M677.839,445.614c.221-.013.47-.032.748-.054s.488-.04.627-.055.217-.023.232-.023c.176,0,.263.06.263.177s-.539,2.32-1.617,6.654-1.624,6.539-1.638,6.612a1.769,1.769,0,0,0-.023.33q0,.924.616.924a.951.951,0,0,0,.441-.2,4.989,4.989,0,0,0,.9-2.111c.089-.294.162-.447.221-.463a.7.7,0,0,1,.22-.021h.087c.279,0,.418.058.418.176a1.841,1.841,0,0,1-.065.352,5.745,5.745,0,0,1-1.188,2.552,2.185,2.185,0,0,1-.705.462,2.357,2.357,0,0,1-.527.044,1.985,1.985,0,0,1-1.936-1.078,1.585,1.585,0,0,0-.111-.264c-.014-.015-.044-.008-.088.021s-.058.06-.088.088a4.506,4.506,0,0,1-2.089,1.211,4.373,4.373,0,0,1-.55.022,2.924,2.924,0,0,1-2.4-1.21,4.292,4.292,0,0,1-.66-2.464,6.726,6.726,0,0,1,1.5-4.048,5.762,5.762,0,0,1,3.036-2.09,3.249,3.249,0,0,1,.9-.133,2.106,2.106,0,0,1,1.847.925c.074.088.111.117.111.088q.021-.088.6-2.409t.606-2.431a.394.394,0,0,0-.132-.352,3.323,3.323,0,0,0-.88-.111h-.463a.578.578,0,0,1-.142-.175,2.133,2.133,0,0,1,.054-.418c.073-.279.169-.418.286-.418.015,0,.092-.007.232-.022s.337-.029.594-.044S677.59,445.63,677.839,445.614Zm-1.891,7.965q-.484-1.738-1.651-1.738a2.028,2.028,0,0,0-1.55.748,5.2,5.2,0,0,0-1.024,1.716,17.583,17.583,0,0,0-.9,3.608c0,.044,0,.124-.011.241s-.012.206-.012.265a2.171,2.171,0,0,0,.341,1.275,1.147,1.147,0,0,0,1,.485,3.418,3.418,0,0,0,2.441-1.584l.176-.242q.2-.792.6-2.387T675.948,453.579Z" style="fill: #fff"/>
      <path d="M680.919,454.635a.371.371,0,0,1-.132-.242,4.176,4.176,0,0,1,.682-1.518,3.779,3.779,0,0,1,2.6-1.805,3.836,3.836,0,0,1,.462-.044,2.673,2.673,0,0,1,1.419.4,2.372,2.372,0,0,1,.935.99c.191-.25.308-.4.352-.462a2.439,2.439,0,0,1,1.87-.925,2.072,2.072,0,0,1,1.463.518,1.656,1.656,0,0,1,.561,1.265,1.724,1.724,0,0,1-.385,1.144,1.266,1.266,0,0,1-1.023.462.971.971,0,0,1-.682-.242.824.824,0,0,1-.264-.638,1.4,1.4,0,0,1,1.1-1.387.977.977,0,0,0-.243-.153,1.243,1.243,0,0,0-.638-.133,1.484,1.484,0,0,0-.418.044,2.309,2.309,0,0,0-1.232,1.452q-.066.178-.638,2.454t-.616,2.563a3.35,3.35,0,0,0-.066.66,1.125,1.125,0,0,0,.309.836,1.1,1.1,0,0,0,.813.308,2.268,2.268,0,0,0,1.672-.782,4.046,4.046,0,0,0,1.012-1.726c.045-.147.088-.232.132-.253a1.072,1.072,0,0,1,.352-.033c.278,0,.418.058.418.176,0,.014-.015.1-.044.242a4.79,4.79,0,0,1-1.54,2.376,3.467,3.467,0,0,1-2.178.814,2.536,2.536,0,0,1-2.332-1.387,3.079,3.079,0,0,1-1.628,1.321,2.838,2.838,0,0,1-.572.044,1.917,1.917,0,0,1-1.8-.9,1.7,1.7,0,0,1-.22-.88,1.669,1.669,0,0,1,.4-1.122,1.277,1.277,0,0,1,1.012-.462.827.827,0,0,1,.946.924,1.243,1.243,0,0,1-.77,1.189l-.11.054-.11.056a.165.165,0,0,1-.066.022l-.066.022c0,.044.11.109.33.2a1.441,1.441,0,0,0,.572.111,1.623,1.623,0,0,0,1.364-.991,16.513,16.513,0,0,0,.858-2.859q.132-.507.286-1.122c.1-.411.18-.727.231-.946s.085-.352.1-.4a5.382,5.382,0,0,0,.11-.857,1.176,1.176,0,0,0-.286-.836,1.03,1.03,0,0,0-.792-.309,2.3,2.3,0,0,0-1.716.76,4.167,4.167,0,0,0-1.012,1.749c-.029.132-.063.209-.1.231a1.064,1.064,0,0,1-.363.033Z" style="fill: #fff"/>
    </g>
    <g>
      <line x1="901.865" y1="134.856" x2="901.865" y2="149.856" style="fill: none;stroke: #fff;stroke-miterlimit: 10"/>
      <line x1="905.113" y1="147.981" x2="898.618" y2="151.731" style="fill: none;stroke: #fff;stroke-miterlimit: 10"/>
      <line x1="905.113" y1="132.981" x2="898.618" y2="136.731" style="fill: none;stroke: #fff;stroke-miterlimit: 10"/>
    </g>
    <path d="M842.984,396.213a.365.365,0,0,1-.132-.241,4.172,4.172,0,0,1,.682-1.519,3.777,3.777,0,0,1,2.6-1.8,3.637,3.637,0,0,1,.462-.044,2.675,2.675,0,0,1,1.419.4,2.383,2.383,0,0,1,.935.99q.286-.373.352-.462a2.438,2.438,0,0,1,1.87-.924,2.076,2.076,0,0,1,1.463.517,1.657,1.657,0,0,1,.561,1.266,1.727,1.727,0,0,1-.385,1.143,1.266,1.266,0,0,1-1.023.462.966.966,0,0,1-.682-.242.824.824,0,0,1-.264-.638,1.4,1.4,0,0,1,1.1-1.385.866.866,0,0,0-.242-.155,1.254,1.254,0,0,0-.638-.132,1.447,1.447,0,0,0-.418.044,2.3,2.3,0,0,0-1.232,1.453q-.066.176-.638,2.453t-.616,2.562a3.373,3.373,0,0,0-.066.66,1.125,1.125,0,0,0,.308.836,1.1,1.1,0,0,0,.814.309,2.274,2.274,0,0,0,1.672-.781,4.059,4.059,0,0,0,1.012-1.728c.044-.146.088-.23.132-.253a1.1,1.1,0,0,1,.352-.033c.278,0,.418.059.418.177,0,.014-.015.1-.044.241a4.788,4.788,0,0,1-1.54,2.377,3.473,3.473,0,0,1-2.178.813,2.535,2.535,0,0,1-2.332-1.385,3.08,3.08,0,0,1-1.628,1.319,2.824,2.824,0,0,1-.572.045,1.917,1.917,0,0,1-1.8-.9,1.7,1.7,0,0,1-.22-.879,1.662,1.662,0,0,1,.4-1.122,1.271,1.271,0,0,1,1.012-.462.826.826,0,0,1,.946.923,1.242,1.242,0,0,1-.77,1.188l-.11.056-.11.054a.176.176,0,0,1-.066.023l-.066.021c0,.044.11.111.33.2a1.458,1.458,0,0,0,.572.111,1.624,1.624,0,0,0,1.364-.99,16.632,16.632,0,0,0,.858-2.861q.132-.505.286-1.122t.231-.946c.051-.22.085-.352.1-.4a5.391,5.391,0,0,0,.11-.858,1.18,1.18,0,0,0-.286-.836,1.03,1.03,0,0,0-.792-.308,2.3,2.3,0,0,0-1.716.759,4.167,4.167,0,0,0-1.012,1.749c-.029.132-.063.209-.1.232a1.105,1.105,0,0,1-.363.032Z" style="fill: #fff"/>
    <path d="M580.974,396.213a.367.367,0,0,1-.133-.241,4.177,4.177,0,0,1,.683-1.519,3.775,3.775,0,0,1,2.6-1.8,3.637,3.637,0,0,1,.462-.044A2.669,2.669,0,0,1,586,393a2.38,2.38,0,0,1,.936.99c.19-.249.308-.4.352-.462a2.438,2.438,0,0,1,1.87-.924,2.077,2.077,0,0,1,1.463.517,1.657,1.657,0,0,1,.561,1.266,1.722,1.722,0,0,1-.386,1.143,1.262,1.262,0,0,1-1.022.462.97.97,0,0,1-.683-.242.827.827,0,0,1-.263-.638,1.4,1.4,0,0,1,1.1-1.385.866.866,0,0,0-.242-.155,1.256,1.256,0,0,0-.639-.132,1.452,1.452,0,0,0-.418.044,2.3,2.3,0,0,0-1.231,1.453q-.066.176-.639,2.453t-.615,2.562a3.373,3.373,0,0,0-.066.66,1.125,1.125,0,0,0,.308.836,1.1,1.1,0,0,0,.814.309,2.274,2.274,0,0,0,1.672-.781,4.046,4.046,0,0,0,1.011-1.728c.045-.146.089-.23.133-.253a1.1,1.1,0,0,1,.352-.033c.278,0,.418.059.418.177,0,.014-.015.1-.044.241a4.788,4.788,0,0,1-1.54,2.377,3.473,3.473,0,0,1-2.178.813,2.535,2.535,0,0,1-2.332-1.385,3.08,3.08,0,0,1-1.628,1.319,2.824,2.824,0,0,1-.572.045,1.917,1.917,0,0,1-1.8-.9,1.7,1.7,0,0,1-.221-.879,1.662,1.662,0,0,1,.4-1.122,1.268,1.268,0,0,1,1.011-.462.826.826,0,0,1,.947.923,1.241,1.241,0,0,1-.771,1.188c-.029.016-.065.033-.109.056l-.11.054a.176.176,0,0,1-.066.023l-.066.021c0,.044.11.111.33.2a1.458,1.458,0,0,0,.572.111,1.624,1.624,0,0,0,1.363-.99,16.589,16.589,0,0,0,.859-2.861q.132-.505.286-1.122c.1-.41.18-.725.23-.946s.085-.352.1-.4a5.358,5.358,0,0,0,.109-.858,1.179,1.179,0,0,0-.285-.836,1.03,1.03,0,0,0-.792-.308,2.3,2.3,0,0,0-1.717.759,4.175,4.175,0,0,0-1.011,1.749c-.03.132-.063.209-.1.232a1.105,1.105,0,0,1-.363.032Z" style="fill: #fff"/>
    <g>
      <line x1="745.981" y1="434.862" x2="732.99" y2="442.362" style="fill: none;stroke: #fff;stroke-miterlimit: 10"/>
      <line x1="736.238" y1="444.237" x2="729.743" y2="440.487" style="fill: none;stroke: #fff;stroke-miterlimit: 10"/>
      <line x1="749.228" y1="436.737" x2="742.733" y2="432.987" style="fill: none;stroke: #fff;stroke-miterlimit: 10"/>
    </g>
    <g>
      <line x1="694.019" y1="434.862" x2="707.01" y2="442.362" style="fill: none;stroke: #fff;stroke-miterlimit: 10"/>
      <line x1="703.762" y1="444.237" x2="710.257" y2="440.487" style="fill: none;stroke: #fff;stroke-miterlimit: 10"/>
      <line x1="690.772" y1="436.737" x2="697.267" y2="432.987" style="fill: none;stroke: #fff;stroke-miterlimit: 10"/>
    </g>
    <g>
      <line x1="538.278" y1="344.541" x2="668.182" y2="419.541" style="fill: #f7c8ab;stroke: #fff;stroke-miterlimit: 10"/>
      <line x1="541.575" y1="342.694" x2="535.06" y2="346.433" style="fill: #f7c8ab;stroke: #fff;stroke-miterlimit: 10"/>
      <line x1="671.439" y1="417.671" x2="664.924" y2="421.41" style="fill: #f7c8ab;stroke: #fff;stroke-miterlimit: 10"/>
    </g>
    <g>
      <polygon points="240 389.856 240 239.856 369.904 164.856 369.904 314.856 240 389.856" style="fill: #5d8b9b;stroke: #d8d8d8;stroke-miterlimit: 10"/>
      <polygon points="240 239.856 110.096 164.856 110.096 314.856 240 389.856 240 239.856" style="fill: #446e72;stroke: #d8d8d8;stroke-miterlimit: 10"/>
      <polygon points="369.904 164.856 240 89.856 110.096 164.856 240 239.856 369.904 164.856" style="fill: #a9e2ea;stroke: #d8d8d8;stroke-miterlimit: 10"/>
    </g>
    <g>
      <path d="M617.111,40q.675.151.724.151.576,0,1-1.05.3-.825,1.826-8.9.7-3.776.725-3.8v-.075H620.21a6.794,6.794,0,0,1-1.25-.05c-.116-.067-.133-.25-.049-.55a2.087,2.087,0,0,1,.125-.4.226.226,0,0,1,.212-.138q.162-.012,1.163-.012a11.06,11.06,0,0,0,1.2-.025q0-.05.224-1.25c.151-.8.25-1.283.3-1.45a6.106,6.106,0,0,1,1.574-3.3,3.232,3.232,0,0,1,2.076-.825,2.544,2.544,0,0,1,1.512.549,1.626,1.626,0,0,1,.613,1.326,1.763,1.763,0,0,1-.451,1.225,1.449,1.449,0,0,1-1.125.5q-1.1,0-1.1-1.051a1.41,1.41,0,0,1,.875-1.349l.224-.125a2.463,2.463,0,0,0-.75-.151q-.725,0-.949.951-.2.75-.65,3.275l-.325,1.649a7,7,0,0,0,1.375.051q1.125,0,1.35.025c.15.016.225.075.225.174a2.808,2.808,0,0,1-.175.8.246.246,0,0,1-.238.137q-.187.014-1.337.013h-1.4l-.574,3.049q-.925,4.776-1.15,5.776-.851,3.774-2.276,5.125a2.816,2.816,0,0,1-1.824.8,2.266,2.266,0,0,1-1.5-.5,1.64,1.64,0,0,1-.6-1.326,1.845,1.845,0,0,1,.45-1.262,1.434,1.434,0,0,1,1.125-.512q1.1,0,1.1,1.05a1.41,1.41,0,0,1-.875,1.349Z" style="fill: #fff"/>
      <path d="M634.735,41.979c0,.149-.15.225-.45.225h-.325l-.7-.6q-4.5-4.1-4.5-11.9a20.141,20.141,0,0,1,.725-5.576A13.478,13.478,0,0,1,633.26,17.8c.116-.1.25-.213.4-.338s.25-.213.3-.262h.325a.593.593,0,0,1,.375.075.214.214,0,0,1,.075.15c0,.067-.091.192-.275.375q-3.876,4.1-3.875,11.9t3.875,11.9C634.644,41.787,634.735,41.912,634.735,41.979Z" style="fill: #fff"/>
      <path d="M637.585,29a.413.413,0,0,1-.15-.274A4.757,4.757,0,0,1,638.21,27a4.287,4.287,0,0,1,2.95-2.049,3.961,3.961,0,0,1,.525-.05,3.039,3.039,0,0,1,1.613.45,2.687,2.687,0,0,1,1.062,1.125c.217-.284.35-.458.4-.525a2.766,2.766,0,0,1,2.125-1.05,2.361,2.361,0,0,1,1.663.587,1.881,1.881,0,0,1,.637,1.438,1.969,1.969,0,0,1-.437,1.3,1.438,1.438,0,0,1-1.163.524,1.1,1.1,0,0,1-.775-.274.938.938,0,0,1-.3-.726,1.589,1.589,0,0,1,1.25-1.574,1.014,1.014,0,0,0-.275-.176,1.437,1.437,0,0,0-.725-.149,1.643,1.643,0,0,0-.475.05,2.615,2.615,0,0,0-1.4,1.65q-.075.2-.725,2.787t-.7,2.912a3.816,3.816,0,0,0-.075.75,1.283,1.283,0,0,0,.35.951,1.252,1.252,0,0,0,.925.35,2.579,2.579,0,0,0,1.9-.888,4.617,4.617,0,0,0,1.15-1.962q.075-.251.15-.288a1.208,1.208,0,0,1,.4-.038q.476,0,.475.2c0,.016-.017.108-.05.275a5.443,5.443,0,0,1-1.75,2.7,3.946,3.946,0,0,1-2.475.925,2.88,2.88,0,0,1-2.65-1.575,3.5,3.5,0,0,1-1.85,1.5,3.222,3.222,0,0,1-.65.05,2.18,2.18,0,0,1-2.05-1.025,1.933,1.933,0,0,1-.25-1,1.891,1.891,0,0,1,.45-1.275,1.449,1.449,0,0,1,1.15-.526.94.94,0,0,1,1.075,1.051,1.411,1.411,0,0,1-.875,1.35l-.125.062-.125.063a.206.206,0,0,1-.075.025l-.075.025c0,.049.125.125.375.225a1.68,1.68,0,0,0,.65.125,1.845,1.845,0,0,0,1.55-1.125,18.905,18.905,0,0,0,.975-3.25c.1-.384.208-.808.325-1.275s.2-.825.263-1.075.1-.4.112-.451a6,6,0,0,0,.125-.974,1.337,1.337,0,0,0-.325-.95,1.165,1.165,0,0,0-.9-.35,2.61,2.61,0,0,0-1.95.862,4.748,4.748,0,0,0-1.15,1.988c-.033.15-.071.237-.112.262a1.218,1.218,0,0,1-.413.037Z" style="fill: #fff"/>
      <path d="M651.835,29.7a.544.544,0,0,1,.35-.5h7.475v-3.75l.025-3.75q.251-.326.475-.326a.548.548,0,0,1,.5.375V29.2h7.45a.521.521,0,0,1,0,1h-7.45v7.45a.533.533,0,0,1-1,0V30.2h-7.475A.546.546,0,0,1,651.835,29.7Z" style="fill: #fff"/>
      <path d="M680.835,18.753q.375-.024.85-.062c.316-.025.554-.045.712-.063s.246-.024.263-.024c.2,0,.3.066.3.2q0,.174-1.838,7.562t-1.862,7.512a2.05,2.05,0,0,0-.025.375q0,1.052.7,1.051a1.1,1.1,0,0,0,.5-.225,5.68,5.68,0,0,0,1.025-2.4q.15-.5.25-.525a.709.709,0,0,1,.25-.026h.1c.316,0,.475.067.475.2a2.1,2.1,0,0,1-.075.4,6.522,6.522,0,0,1-1.35,2.9,2.49,2.49,0,0,1-.8.526,2.693,2.693,0,0,1-.6.05,2.257,2.257,0,0,1-2.2-1.225,1.9,1.9,0,0,0-.125-.3c-.017-.017-.05-.009-.1.025l-.1.1a5.12,5.12,0,0,1-2.375,1.375,4.95,4.95,0,0,1-.625.025,3.317,3.317,0,0,1-2.725-1.375,4.868,4.868,0,0,1-.75-2.8,7.634,7.634,0,0,1,1.7-4.6,6.538,6.538,0,0,1,3.45-2.375,3.718,3.718,0,0,1,1.025-.15,2.393,2.393,0,0,1,2.1,1.05c.083.1.125.133.125.1q.024-.1.687-2.738t.688-2.762a.449.449,0,0,0-.15-.4,3.7,3.7,0,0,0-1-.125h-.525a.694.694,0,0,1-.163-.2,2.607,2.607,0,0,1,.063-.475q.124-.476.325-.476c.016,0,.1-.007.262-.024s.384-.034.675-.05S680.551,18.771,680.835,18.753Zm-2.15,9.051q-.55-1.976-1.875-1.975a2.309,2.309,0,0,0-1.763.85,5.925,5.925,0,0,0-1.162,1.949,19.925,19.925,0,0,0-1.025,4.1c0,.05,0,.142-.013.274s-.012.234-.012.3a2.465,2.465,0,0,0,.387,1.449,1.3,1.3,0,0,0,1.138.551q1.325,0,2.775-1.8l.2-.274q.225-.9.675-2.713T678.685,27.8Z" style="fill: #fff"/>
      <path d="M684.335,29a.413.413,0,0,1-.15-.274A4.757,4.757,0,0,1,684.96,27a4.283,4.283,0,0,1,2.95-2.049,3.946,3.946,0,0,1,.525-.05,3.035,3.035,0,0,1,1.612.45,2.689,2.689,0,0,1,1.063,1.125c.216-.284.35-.458.4-.525a2.766,2.766,0,0,1,2.125-1.05,2.358,2.358,0,0,1,1.662.587,1.882,1.882,0,0,1,.638,1.438,1.964,1.964,0,0,1-.438,1.3,1.435,1.435,0,0,1-1.162.524,1.1,1.1,0,0,1-.775-.274.938.938,0,0,1-.3-.726,1.588,1.588,0,0,1,1.25-1.574,1.014,1.014,0,0,0-.275-.176,1.439,1.439,0,0,0-.725-.149,1.643,1.643,0,0,0-.475.05,2.612,2.612,0,0,0-1.4,1.65q-.075.2-.725,2.787t-.7,2.912a3.816,3.816,0,0,0-.075.75,1.283,1.283,0,0,0,.35.951,1.25,1.25,0,0,0,.925.35,2.58,2.58,0,0,0,1.9-.888,4.617,4.617,0,0,0,1.15-1.962q.075-.251.15-.288a1.208,1.208,0,0,1,.4-.038c.316,0,.475.067.475.2,0,.016-.017.108-.05.275a5.449,5.449,0,0,1-1.75,2.7,3.95,3.95,0,0,1-2.475.925,2.88,2.88,0,0,1-2.65-1.575,3.5,3.5,0,0,1-1.85,1.5,3.222,3.222,0,0,1-.65.05,2.18,2.18,0,0,1-2.05-1.025,1.933,1.933,0,0,1-.25-1,1.891,1.891,0,0,1,.45-1.275,1.447,1.447,0,0,1,1.15-.526.94.94,0,0,1,1.075,1.051,1.412,1.412,0,0,1-.875,1.35l-.125.062-.125.063a.212.212,0,0,1-.075.025l-.075.025c0,.049.125.125.375.225a1.677,1.677,0,0,0,.65.125,1.846,1.846,0,0,0,1.55-1.125,19.006,19.006,0,0,0,.975-3.25c.1-.384.208-.808.325-1.275s.2-.825.262-1.075.1-.4.113-.451a6.113,6.113,0,0,0,.125-.974,1.342,1.342,0,0,0-.325-.95,1.166,1.166,0,0,0-.9-.35,2.61,2.61,0,0,0-1.95.862,4.737,4.737,0,0,0-1.15,1.988c-.034.15-.071.237-.113.262a1.206,1.206,0,0,1-.412.037Z" style="fill: #fff"/>
      <path d="M698.685,17.229l.1-.025h.549c.117.1.351.3.7.6q4.5,4.1,4.5,11.9a19.73,19.73,0,0,1-.724,5.549,13.5,13.5,0,0,1-3.775,6.351q-.175.15-.4.337c-.151.125-.25.213-.3.263h-.3a.942.942,0,0,1-.388-.05c-.059-.034-.087-.117-.087-.25.016-.017.108-.125.274-.325q3.876-4.026,3.876-11.875t-3.876-11.875c-.166-.2-.258-.308-.274-.326A.292.292,0,0,1,698.685,17.229Z" style="fill: #fff"/>
      <path d="M714.56,27.279a.544.544,0,0,1,.349-.5h15.925a.547.547,0,0,1,.375.5.563.563,0,0,1-.35.474l-7.95.026h-7.95A.5.5,0,0,1,714.56,27.279Zm0,4.849a.5.5,0,0,1,.4-.5h15.9a.84.84,0,0,0,.113.088,1.238,1.238,0,0,1,.125.1.433.433,0,0,1,.075.125.491.491,0,0,1,.037.187.546.546,0,0,1-.375.5H714.909A.543.543,0,0,1,714.56,32.128Z" style="fill: #fff"/>
      <path d="M747.185,41.979c0,.149-.151.225-.451.225h-.325l-.7-.6q-4.5-4.1-4.5-11.9a20.14,20.14,0,0,1,.726-5.576,13.476,13.476,0,0,1,3.774-6.324q.176-.15.4-.338c.151-.125.25-.213.3-.262h.325a.589.589,0,0,1,.375.075.216.216,0,0,1,.076.15q0,.1-.276.375-3.875,4.1-3.875,11.9t3.875,11.9Q747.185,41.879,747.185,41.979Z" style="fill: #fff"/>
      <path d="M750.034,29a.413.413,0,0,1-.15-.274A4.757,4.757,0,0,1,750.659,27a4.285,4.285,0,0,1,2.95-2.049,3.961,3.961,0,0,1,.525-.05,3.035,3.035,0,0,1,1.612.45,2.689,2.689,0,0,1,1.063,1.125c.216-.284.35-.458.4-.525a2.766,2.766,0,0,1,2.125-1.05,2.357,2.357,0,0,1,1.662.587,1.878,1.878,0,0,1,.638,1.438,1.964,1.964,0,0,1-.438,1.3,1.435,1.435,0,0,1-1.162.524,1.1,1.1,0,0,1-.775-.274.938.938,0,0,1-.3-.726,1.588,1.588,0,0,1,1.25-1.574,1.014,1.014,0,0,0-.275-.176,1.437,1.437,0,0,0-.725-.149,1.643,1.643,0,0,0-.475.05,2.615,2.615,0,0,0-1.4,1.65q-.075.2-.725,2.787t-.7,2.912a3.816,3.816,0,0,0-.075.75,1.283,1.283,0,0,0,.35.951,1.252,1.252,0,0,0,.925.35,2.58,2.58,0,0,0,1.9-.888,4.617,4.617,0,0,0,1.15-1.962q.075-.251.15-.288a1.208,1.208,0,0,1,.4-.038c.316,0,.475.067.475.2,0,.016-.017.108-.05.275a5.436,5.436,0,0,1-1.75,2.7,3.948,3.948,0,0,1-2.475.925,2.88,2.88,0,0,1-2.65-1.575,3.5,3.5,0,0,1-1.85,1.5,3.222,3.222,0,0,1-.65.05,2.18,2.18,0,0,1-2.05-1.025,1.933,1.933,0,0,1-.25-1,1.891,1.891,0,0,1,.45-1.275,1.447,1.447,0,0,1,1.15-.526.94.94,0,0,1,1.075,1.051,1.412,1.412,0,0,1-.875,1.35l-.125.062-.125.063a.206.206,0,0,1-.075.025l-.075.025c0,.049.125.125.375.225a1.677,1.677,0,0,0,.65.125,1.846,1.846,0,0,0,1.55-1.125,19.006,19.006,0,0,0,.975-3.25c.1-.384.208-.808.325-1.275s.2-.825.262-1.075.1-.4.113-.451a6.113,6.113,0,0,0,.125-.974,1.342,1.342,0,0,0-.325-.95,1.165,1.165,0,0,0-.9-.35,2.61,2.61,0,0,0-1.95.862,4.737,4.737,0,0,0-1.15,1.988c-.034.15-.071.237-.112.262a1.218,1.218,0,0,1-.413.037Z" style="fill: #fff"/>
      <path d="M764.284,29.7a.543.543,0,0,1,.35-.5h7.474v-3.75l.026-3.75c.166-.217.325-.326.474-.326a.546.546,0,0,1,.5.375V29.2h7.451a.521.521,0,0,1,0,1h-7.451v7.45a.533.533,0,0,1-1,0V30.2h-7.474A.545.545,0,0,1,764.284,29.7Z" style="fill: #fff"/>
      <path d="M793.284,18.753q.375-.024.85-.062c.316-.025.554-.045.713-.063s.245-.024.262-.024c.2,0,.3.066.3.2q0,.174-1.838,7.562t-1.862,7.512a2.05,2.05,0,0,0-.025.375q0,1.052.7,1.051a1.1,1.1,0,0,0,.5-.225,5.68,5.68,0,0,0,1.025-2.4q.15-.5.25-.525a.709.709,0,0,1,.25-.026h.1c.316,0,.475.067.475.2a2.1,2.1,0,0,1-.075.4,6.522,6.522,0,0,1-1.35,2.9,2.49,2.49,0,0,1-.8.526,2.687,2.687,0,0,1-.6.05,2.257,2.257,0,0,1-2.2-1.225,1.9,1.9,0,0,0-.125-.3c-.017-.017-.05-.009-.1.025l-.1.1a5.12,5.12,0,0,1-2.375,1.375,4.95,4.95,0,0,1-.625.025,3.317,3.317,0,0,1-2.725-1.375,4.868,4.868,0,0,1-.75-2.8,7.641,7.641,0,0,1,1.7-4.6,6.542,6.542,0,0,1,3.45-2.375,3.718,3.718,0,0,1,1.025-.15,2.393,2.393,0,0,1,2.1,1.05c.084.1.125.133.125.1q.024-.1.687-2.738t.688-2.762a.449.449,0,0,0-.15-.4,3.686,3.686,0,0,0-1-.125h-.525a.664.664,0,0,1-.162-.2,2.455,2.455,0,0,1,.062-.475c.083-.317.192-.476.325-.476.016,0,.1-.007.262-.024s.384-.034.676-.05S793,18.771,793.284,18.753Zm-2.15,9.051q-.549-1.976-1.875-1.975a2.309,2.309,0,0,0-1.763.85,5.942,5.942,0,0,0-1.162,1.949,19.989,19.989,0,0,0-1.025,4.1c0,.05,0,.142-.012.274s-.013.234-.013.3a2.458,2.458,0,0,0,.388,1.449,1.3,1.3,0,0,0,1.137.551q1.325,0,2.775-1.8l.2-.274q.225-.9.675-2.713T791.134,27.8Z" style="fill: #fff"/>
      <path d="M796.784,29a.413.413,0,0,1-.15-.274A4.757,4.757,0,0,1,797.409,27a4.285,4.285,0,0,1,2.95-2.049,3.961,3.961,0,0,1,.525-.05,3.035,3.035,0,0,1,1.612.45,2.689,2.689,0,0,1,1.063,1.125c.216-.284.35-.458.4-.525a2.766,2.766,0,0,1,2.125-1.05,2.357,2.357,0,0,1,1.662.587,1.878,1.878,0,0,1,.638,1.438,1.964,1.964,0,0,1-.438,1.3,1.435,1.435,0,0,1-1.162.524,1.1,1.1,0,0,1-.775-.274.938.938,0,0,1-.3-.726,1.588,1.588,0,0,1,1.25-1.574,1.014,1.014,0,0,0-.275-.176,1.437,1.437,0,0,0-.725-.149,1.643,1.643,0,0,0-.475.05,2.615,2.615,0,0,0-1.4,1.65q-.075.2-.725,2.787t-.7,2.912a3.816,3.816,0,0,0-.075.75,1.283,1.283,0,0,0,.35.951,1.252,1.252,0,0,0,.925.35,2.58,2.58,0,0,0,1.9-.888,4.617,4.617,0,0,0,1.15-1.962q.075-.251.15-.288a1.208,1.208,0,0,1,.4-.038c.316,0,.475.067.475.2,0,.016-.017.108-.05.275a5.436,5.436,0,0,1-1.75,2.7,3.948,3.948,0,0,1-2.475.925,2.88,2.88,0,0,1-2.65-1.575,3.5,3.5,0,0,1-1.85,1.5,3.222,3.222,0,0,1-.65.05,2.18,2.18,0,0,1-2.05-1.025,1.933,1.933,0,0,1-.25-1,1.891,1.891,0,0,1,.45-1.275,1.447,1.447,0,0,1,1.15-.526.94.94,0,0,1,1.075,1.051,1.412,1.412,0,0,1-.875,1.35l-.125.062-.125.063a.206.206,0,0,1-.075.025l-.075.025c0,.049.125.125.375.225a1.677,1.677,0,0,0,.65.125,1.846,1.846,0,0,0,1.55-1.125,19.006,19.006,0,0,0,.975-3.25c.1-.384.208-.808.325-1.275s.2-.825.262-1.075.1-.4.113-.451a6.113,6.113,0,0,0,.125-.974,1.342,1.342,0,0,0-.325-.95,1.165,1.165,0,0,0-.9-.35,2.61,2.61,0,0,0-1.95.862,4.737,4.737,0,0,0-1.15,1.988c-.034.15-.071.237-.112.262a1.218,1.218,0,0,1-.413.037Z" style="fill: #fff"/>
      <path d="M811.134,17.229l.1-.025h.551c.116.1.35.3.7.6q4.5,4.1,4.5,11.9a19.73,19.73,0,0,1-.724,5.549,13.493,13.493,0,0,1-3.776,6.351c-.116.1-.25.212-.4.337s-.25.213-.3.263h-.3a.933.933,0,0,1-.386-.05c-.059-.034-.088-.117-.088-.25.016-.017.108-.125.275-.325q3.875-4.026,3.875-11.875t-3.875-11.875c-.167-.2-.259-.308-.275-.326A.292.292,0,0,1,811.134,17.229Z" style="fill: #fff"/>
      <path d="M821.209,20.88a.792.792,0,0,1-.619-.248.913.913,0,0,1-.226-.641,1.762,1.762,0,0,1,.656-1.392,2.785,2.785,0,0,1,1.516-.663h.218q.511,0,.642.015a3.558,3.558,0,0,1,.976.306,2.166,2.166,0,0,1,1.21,1.37,1.421,1.421,0,0,1,.044.394,2.427,2.427,0,0,1-.532,1.537,2.945,2.945,0,0,1-1.334.969c-.049.02-.049.035,0,.044a.953.953,0,0,0,.146.044,3.1,3.1,0,0,1,1.5.925,2.233,2.233,0,0,1,.613,1.538,2.536,2.536,0,0,1-.278,1.151,2.886,2.886,0,0,1-1.144,1.232,3.318,3.318,0,0,1-1.771.488,3.484,3.484,0,0,1-1.705-.408,2.1,2.1,0,0,1-1.006-1.093,1.661,1.661,0,0,1-.145-.714.877.877,0,0,1,.269-.664.97.97,0,0,1,1.32.008.892.892,0,0,1,.261.656.934.934,0,0,1-.189.583.855.855,0,0,1-.51.32l-.1.03a2.743,2.743,0,0,0,1.807.655,1.3,1.3,0,0,0,1.21-.772,3.351,3.351,0,0,0,.248-1.472v-.292a1.867,1.867,0,0,0-.933-1.851,3.075,3.075,0,0,0-.889-.1l-.612-.014-.044-.029a.538.538,0,0,1-.029-.234.347.347,0,0,1,.043-.218.124.124,0,0,1,.074-.044,5.107,5.107,0,0,0,.845-.073,1.265,1.265,0,0,0,.977-.721,3.24,3.24,0,0,0,.335-1.523,1.386,1.386,0,0,0-.511-1.269,1.214,1.214,0,0,0-.685-.2,2.158,2.158,0,0,0-1.282.394.606.606,0,0,0-.132.095.916.916,0,0,0-.116.124l-.044.058c.03.01.064.019.1.029a.7.7,0,0,1,.488.277.889.889,0,0,1,.2.568.8.8,0,0,1-.24.591A.84.84,0,0,1,821.209,20.88Z" style="fill: #fff"/>
    </g>
  </g>
  <g>
    <g>
      <polygon points="227.01 397.356 97.106 322.356 97.106 172.356 227.01 247.356 227.01 397.356" style="fill: #ef9c7b;stroke: #fff;stroke-miterlimit: 10"/>
      <polygon points="227.01 247.356 240 239.856 240 389.856 227.01 397.356 227.01 247.356" style="fill: #f7c8ab;stroke: #fff;stroke-miterlimit: 10"/>
      <polyline points="110.096 164.856 97.106 172.356 227.01 247.356 240 239.856 110.096 164.856" style="fill: #fee8b4;stroke: #fff;stroke-miterlimit: 10"/>
    </g>
    <g>
      <polygon points="252.99 247.356 252.99 397.356 382.894 322.356 382.894 172.356 252.99 247.356" style="fill: #f7c8ab;stroke: #fff;stroke-miterlimit: 10"/>
      <polygon points="382.894 172.356 369.904 164.856 240 239.856 252.99 247.356 382.894 172.356" style="fill: #fee8b4;stroke: #fff;stroke-miterlimit: 10"/>
      <polygon points="252.99 397.356 240 389.856 240 239.856 252.99 247.356 252.99 397.356" style="fill: #ef9c7b;stroke: #fff;stroke-miterlimit: 10"/>
    </g>
    <g>
      <polygon points="110.096 149.856 240 224.856 369.904 149.856 240 74.856 110.096 149.856" style="fill: #fee8b4;stroke: #fff;stroke-miterlimit: 10"/>
      <polygon points="240 224.856 240 239.856 369.904 164.856 369.904 149.856 240 224.856" style="fill: #f7c8ab;stroke: #fff;stroke-miterlimit: 10"/>
      <polygon points="110.096 149.856 110.096 164.856 240 239.856 240 224.856 110.096 149.856" style="fill: #ef9c7b;stroke: #fff;stroke-miterlimit: 10"/>
    </g>
    <g>
      <polygon points="252.99 232.356 240 224.856 240 239.856 252.99 247.356 252.99 232.356" style="fill: #b49dc1;stroke: #fff;stroke-miterlimit: 10"/>
      <polygon points="369.904 149.856 356.913 157.356 252.99 217.356 240 224.856 252.99 232.356 369.904 164.856 382.894 157.356 369.904 149.856" style="fill: #f5e0e9;stroke: #fff;stroke-miterlimit: 10"/>
      <polygon points="382.894 157.356 369.904 164.856 252.99 232.356 252.99 247.356 265.981 239.856 369.904 179.856 382.894 172.356 382.894 157.356" style="fill: #f9bed6;stroke: #fff;stroke-miterlimit: 10"/>
    </g>
    <g>
      <polygon points="227.01 232.356 227.01 247.356 240 239.856 240 224.856 227.01 232.356" style="fill: #f9bed6;stroke: #fff;stroke-miterlimit: 10"/>
      <polygon points="97.106 172.356 110.096 179.856 214.019 239.856 227.01 247.356 227.01 232.356 110.096 164.856 97.106 157.356 97.106 172.356" style="fill: #b49dc1;stroke: #fff;stroke-miterlimit: 10"/>
      <polygon points="97.106 157.356 110.096 164.856 227.01 232.356 240 224.856 227.01 217.356 123.087 157.356 110.096 149.856 97.106 157.356" style="fill: #f5e0e9;stroke: #fff;stroke-miterlimit: 10"/>
    </g>
    <g>
      <polygon points="240 254.856 252.99 247.356 240 239.856 227.01 247.356 240 254.856" style="fill: #f5e0e9;stroke: #fff;stroke-miterlimit: 10"/>
      <polygon points="252.99 397.356 252.99 382.356 252.99 262.356 252.99 247.356 240 254.856 240 389.856 240 404.856 252.99 397.356" style="fill: #f9bed6;stroke: #fff;stroke-miterlimit: 10"/>
      <polygon points="240 404.856 240 389.856 240 254.856 227.01 247.356 227.01 262.356 227.01 382.356 227.01 397.356 240 404.856" style="fill: #b49dc1;stroke: #fff;stroke-miterlimit: 10"/>
    </g>
    <g>
      <polygon points="252.99 232.356 240 239.856 240 254.856 252.99 247.356 252.99 232.356" style="fill: #f9bed6;stroke: #fff;stroke-miterlimit: 10"/>
      <polygon points="240 224.856 227.01 232.356 240 239.856 252.99 232.356 240 224.856" style="fill: #f5e0e9;stroke: #fff;stroke-miterlimit: 10"/>
      <polygon points="227.01 247.356 240 254.856 240 239.856 227.01 232.356 227.01 247.356" style="fill: #b49dc1;stroke: #fff;stroke-miterlimit: 10"/>
    </g>
    <g>
      <line x1="395.895" y1="329.867" x2="265.991" y2="404.867" style="fill: #f7c8ab;stroke: #fff;stroke-miterlimit: 10"/>
      <line x1="392.597" y1="328.021" x2="399.112" y2="331.759" style="fill: #f7c8ab;stroke: #fff;stroke-miterlimit: 10"/>
      <line x1="262.733" y1="402.998" x2="269.248" y2="406.736" style="fill: #f7c8ab;stroke: #fff;stroke-miterlimit: 10"/>
    </g>
    <g>
      <line x1="265.981" y1="404.861" x2="252.99" y2="412.361" style="fill: none;stroke: #fff;stroke-miterlimit: 10"/>
      <line x1="256.238" y1="414.236" x2="249.743" y2="410.486" style="fill: none;stroke: #fff;stroke-miterlimit: 10"/>
      <line x1="269.228" y1="406.736" x2="262.733" y2="402.986" style="fill: none;stroke: #fff;stroke-miterlimit: 10"/>
    </g>
    <g>
      <path d="M278.884,418.424q.332-.021.748-.055c.279-.021.488-.04.627-.055s.217-.022.232-.022c.176,0,.263.06.263.177s-.539,2.32-1.617,6.654-1.624,6.538-1.638,6.611a1.783,1.783,0,0,0-.023.33c0,.617.206.924.616.924a.948.948,0,0,0,.441-.2,5,5,0,0,0,.9-2.111c.089-.294.162-.448.221-.463a.658.658,0,0,1,.22-.022h.087c.279,0,.418.059.418.176a1.834,1.834,0,0,1-.065.353,5.729,5.729,0,0,1-1.189,2.551,2.154,2.154,0,0,1-.7.462,2.3,2.3,0,0,1-.527.044,1.986,1.986,0,0,1-1.937-1.078,1.673,1.673,0,0,0-.11-.264c-.015-.014-.044-.007-.088.022s-.058.06-.088.088a4.515,4.515,0,0,1-2.089,1.211,4.661,4.661,0,0,1-.55.021,2.922,2.922,0,0,1-2.4-1.21,4.287,4.287,0,0,1-.66-2.464,6.723,6.723,0,0,1,1.5-4.047,5.751,5.751,0,0,1,3.036-2.09,3.249,3.249,0,0,1,.9-.133,2.106,2.106,0,0,1,1.847.925c.074.088.111.117.111.088q.021-.088.6-2.41t.606-2.43a.4.4,0,0,0-.132-.353,3.379,3.379,0,0,0-.88-.11H277.1a.605.605,0,0,1-.143-.176,2.292,2.292,0,0,1,.055-.418c.073-.278.169-.418.286-.418.015,0,.092-.007.232-.021s.337-.03.593-.044Zm-1.891,7.965q-.486-1.74-1.651-1.739a2.028,2.028,0,0,0-1.55.748,5.213,5.213,0,0,0-1.024,1.716,17.528,17.528,0,0,0-.9,3.609c0,.044,0,.124-.011.241s-.012.206-.012.265a2.171,2.171,0,0,0,.341,1.275,1.148,1.148,0,0,0,1,.484,3.415,3.415,0,0,0,2.441-1.584l.176-.242q.2-.791.6-2.387T276.993,426.389Z" style="fill: #fff"/>
      <path d="M281.964,427.444a.367.367,0,0,1-.132-.242,4.18,4.18,0,0,1,.682-1.517,3.779,3.779,0,0,1,2.6-1.805,3.836,3.836,0,0,1,.462-.044,2.684,2.684,0,0,1,1.419.4,2.368,2.368,0,0,1,.935.991l.352-.462a2.439,2.439,0,0,1,1.87-.925,2.072,2.072,0,0,1,1.463.518,1.652,1.652,0,0,1,.561,1.264,1.734,1.734,0,0,1-.385,1.145,1.269,1.269,0,0,1-1.023.462.967.967,0,0,1-.682-.243.823.823,0,0,1-.264-.637,1.4,1.4,0,0,1,1.1-1.387.924.924,0,0,0-.242-.153,1.243,1.243,0,0,0-.638-.133,1.484,1.484,0,0,0-.418.044,2.306,2.306,0,0,0-1.232,1.452q-.066.177-.638,2.453t-.616,2.564a3.343,3.343,0,0,0-.066.66,1.13,1.13,0,0,0,.308.836,1.1,1.1,0,0,0,.814.307,2.266,2.266,0,0,0,1.672-.781,4.049,4.049,0,0,0,1.012-1.727c.044-.146.088-.231.132-.252a1.029,1.029,0,0,1,.352-.034c.278,0,.418.059.418.176,0,.015-.015.1-.044.242a4.79,4.79,0,0,1-1.54,2.376,3.47,3.47,0,0,1-2.178.815,2.535,2.535,0,0,1-2.332-1.387,3.077,3.077,0,0,1-1.628,1.32,2.766,2.766,0,0,1-.572.044,1.919,1.919,0,0,1-1.8-.9,1.7,1.7,0,0,1-.22-.88,1.669,1.669,0,0,1,.4-1.122,1.274,1.274,0,0,1,1.012-.462.827.827,0,0,1,.946.924,1.242,1.242,0,0,1-.77,1.188l-.11.055-.11.056a.182.182,0,0,1-.066.021l-.066.023c0,.044.11.109.33.2a1.458,1.458,0,0,0,.572.11,1.624,1.624,0,0,0,1.364-.99,16.58,16.58,0,0,0,.858-2.859q.132-.507.286-1.122c.1-.412.18-.727.231-.947s.085-.351.1-.4a5.4,5.4,0,0,0,.11-.858,1.18,1.18,0,0,0-.286-.836,1.03,1.03,0,0,0-.792-.308,2.3,2.3,0,0,0-1.716.76,4.167,4.167,0,0,0-1.012,1.749c-.029.131-.063.209-.1.23a1.037,1.037,0,0,1-.363.033Z" style="fill: #fff"/>
    </g>
    <g>
      <path d="M197.839,414.079q.332-.022.748-.055c.279-.022.488-.041.627-.055s.217-.022.232-.022c.176,0,.263.059.263.176s-.539,2.321-1.617,6.655-1.624,6.537-1.638,6.611a1.776,1.776,0,0,0-.023.33q0,.924.616.925a.972.972,0,0,0,.441-.2,5,5,0,0,0,.9-2.112c.089-.293.162-.447.221-.462a.631.631,0,0,1,.22-.022h.087c.279,0,.418.059.418.176a1.815,1.815,0,0,1-.065.352,5.739,5.739,0,0,1-1.188,2.552,2.185,2.185,0,0,1-.7.462,2.345,2.345,0,0,1-.527.045,1.984,1.984,0,0,1-1.936-1.079,1.712,1.712,0,0,0-.111-.264c-.014-.014-.044-.007-.088.022l-.088.088a4.5,4.5,0,0,1-2.089,1.21,4.118,4.118,0,0,1-.55.023,2.923,2.923,0,0,1-2.4-1.211,4.287,4.287,0,0,1-.66-2.464,6.726,6.726,0,0,1,1.5-4.048,5.762,5.762,0,0,1,3.036-2.09,3.284,3.284,0,0,1,.9-.132,2.105,2.105,0,0,1,1.847.924c.074.088.111.117.111.088q.021-.088.6-2.409t.606-2.431a.393.393,0,0,0-.132-.351,3.281,3.281,0,0,0-.88-.111h-.463a.565.565,0,0,1-.142-.176,2.133,2.133,0,0,1,.054-.418c.073-.278.169-.418.286-.418.015,0,.092-.007.232-.022s.337-.029.594-.044Zm-1.891,7.964q-.484-1.737-1.651-1.738a2.031,2.031,0,0,0-1.55.748,5.207,5.207,0,0,0-1.024,1.717,17.574,17.574,0,0,0-.9,3.607c0,.044,0,.125-.011.242s-.012.2-.012.264a2.172,2.172,0,0,0,.341,1.276,1.151,1.151,0,0,0,1,.485,3.418,3.418,0,0,0,2.441-1.584l.176-.243q.2-.792.6-2.387T195.948,422.043Z" style="fill: #fff"/>
      <path d="M200.919,423.1a.369.369,0,0,1-.132-.242,4.176,4.176,0,0,1,.682-1.518,3.774,3.774,0,0,1,2.6-1.8,3.637,3.637,0,0,1,.462-.044,2.672,2.672,0,0,1,1.419.4,2.372,2.372,0,0,1,.935.99q.287-.374.352-.462a2.438,2.438,0,0,1,1.87-.924,2.076,2.076,0,0,1,1.463.517,1.654,1.654,0,0,1,.561,1.265,1.724,1.724,0,0,1-.385,1.144,1.266,1.266,0,0,1-1.023.462.966.966,0,0,1-.682-.242.824.824,0,0,1-.264-.638,1.4,1.4,0,0,1,1.1-1.386.928.928,0,0,0-.243-.154,1.254,1.254,0,0,0-.638-.132,1.447,1.447,0,0,0-.418.044,2.3,2.3,0,0,0-1.232,1.452q-.066.176-.638,2.453t-.616,2.563a3.365,3.365,0,0,0-.066.66,1.122,1.122,0,0,0,.309.836,1.1,1.1,0,0,0,.813.309,2.271,2.271,0,0,0,1.672-.782,4.049,4.049,0,0,0,1.012-1.727c.045-.147.088-.231.132-.253a1.072,1.072,0,0,1,.352-.033c.278,0,.418.059.418.176,0,.015-.015.1-.044.242a4.788,4.788,0,0,1-1.54,2.377,3.471,3.471,0,0,1-2.178.813,2.535,2.535,0,0,1-2.332-1.386,3.082,3.082,0,0,1-1.628,1.32,2.824,2.824,0,0,1-.572.045,1.917,1.917,0,0,1-1.8-.9,1.7,1.7,0,0,1-.22-.88,1.665,1.665,0,0,1,.4-1.122,1.274,1.274,0,0,1,1.012-.462.826.826,0,0,1,.946.924,1.242,1.242,0,0,1-.77,1.188l-.11.055-.11.055a.165.165,0,0,1-.066.022l-.066.022q0,.066.33.2a1.476,1.476,0,0,0,.572.111,1.625,1.625,0,0,0,1.364-.991,16.572,16.572,0,0,0,.858-2.86q.132-.505.286-1.122c.1-.41.18-.726.231-.946s.085-.352.1-.4a5.4,5.4,0,0,0,.11-.858,1.18,1.18,0,0,0-.286-.836,1.03,1.03,0,0,0-.792-.308,2.3,2.3,0,0,0-1.716.759,4.167,4.167,0,0,0-1.012,1.749c-.029.132-.063.209-.1.231a1.064,1.064,0,0,1-.363.033Z" style="fill: #fff"/>
    </g>
    <path d="M347.21,377.034a.367.367,0,0,1-.133-.241,4.184,4.184,0,0,1,.683-1.519,3.769,3.769,0,0,1,2.6-1.8,3.487,3.487,0,0,1,.462-.044,2.678,2.678,0,0,1,1.419.395,2.386,2.386,0,0,1,.936.99l.351-.461a2.435,2.435,0,0,1,1.871-.924,2.079,2.079,0,0,1,1.462.516,1.658,1.658,0,0,1,.562,1.266,1.727,1.727,0,0,1-.386,1.144,1.266,1.266,0,0,1-1.022.461.969.969,0,0,1-.683-.242.823.823,0,0,1-.264-.637,1.4,1.4,0,0,1,1.1-1.386.853.853,0,0,0-.242-.154,1.261,1.261,0,0,0-.639-.132,1.417,1.417,0,0,0-.418.044,2.3,2.3,0,0,0-1.231,1.452q-.066.175-.639,2.453t-.615,2.562a3.377,3.377,0,0,0-.067.661,1.129,1.129,0,0,0,.309.836,1.1,1.1,0,0,0,.814.308,2.272,2.272,0,0,0,1.671-.781,4.059,4.059,0,0,0,1.012-1.728c.045-.146.089-.23.133-.253a1.1,1.1,0,0,1,.352-.033c.278,0,.417.06.417.177,0,.015-.014.1-.043.241a4.788,4.788,0,0,1-1.54,2.377,3.477,3.477,0,0,1-2.178.814,2.533,2.533,0,0,1-2.332-1.386,3.08,3.08,0,0,1-1.628,1.319,2.824,2.824,0,0,1-.572.045,1.918,1.918,0,0,1-1.8-.9,1.692,1.692,0,0,1-.221-.88,1.662,1.662,0,0,1,.4-1.122,1.268,1.268,0,0,1,1.011-.462.827.827,0,0,1,.947.924,1.24,1.24,0,0,1-.771,1.187c-.029.016-.065.033-.109.056l-.111.055a.18.18,0,0,1-.065.022l-.066.022c0,.043.11.11.33.2a1.472,1.472,0,0,0,.572.11,1.624,1.624,0,0,0,1.363-.99,16.7,16.7,0,0,0,.859-2.86q.13-.505.286-1.123t.23-.946c.052-.22.085-.351.1-.4a5.38,5.38,0,0,0,.109-.859,1.186,1.186,0,0,0-.285-.836,1.029,1.029,0,0,0-.792-.307,2.3,2.3,0,0,0-1.717.758,4.185,4.185,0,0,0-1.012,1.75c-.029.131-.062.208-.1.231a1.105,1.105,0,0,1-.363.032Z" style="fill: #fff"/>
    <path d="M114.742,377.035a.369.369,0,0,1-.133-.242,4.206,4.206,0,0,1,.683-1.518,3.775,3.775,0,0,1,2.6-1.8,3.637,3.637,0,0,1,.462-.044,2.684,2.684,0,0,1,1.419.4,2.372,2.372,0,0,1,.935.99l.352-.461a2.436,2.436,0,0,1,1.87-.925,2.077,2.077,0,0,1,1.463.517,1.656,1.656,0,0,1,.561,1.265,1.73,1.73,0,0,1-.386,1.145,1.265,1.265,0,0,1-1.022.461.975.975,0,0,1-.683-.242.826.826,0,0,1-.263-.637,1.4,1.4,0,0,1,1.1-1.387.894.894,0,0,0-.242-.153,1.245,1.245,0,0,0-.639-.133,1.452,1.452,0,0,0-.418.044,2.305,2.305,0,0,0-1.231,1.452q-.066.177-.639,2.453t-.615,2.563a3.36,3.36,0,0,0-.066.661,1.127,1.127,0,0,0,.308.835,1.1,1.1,0,0,0,.814.308,2.27,2.27,0,0,0,1.672-.781,4.043,4.043,0,0,0,1.011-1.727c.045-.146.089-.231.133-.253a1.068,1.068,0,0,1,.352-.033c.278,0,.418.059.418.176,0,.015-.015.1-.044.242a4.79,4.79,0,0,1-1.54,2.376,3.47,3.47,0,0,1-2.178.815,2.535,2.535,0,0,1-2.332-1.387,3.082,3.082,0,0,1-1.628,1.32,2.838,2.838,0,0,1-.572.044,1.919,1.919,0,0,1-1.8-.9,1.7,1.7,0,0,1-.221-.88,1.666,1.666,0,0,1,.4-1.122,1.273,1.273,0,0,1,1.012-.462.827.827,0,0,1,.946.924,1.241,1.241,0,0,1-.771,1.188l-.109.055-.11.056a.182.182,0,0,1-.066.021l-.066.022q0,.066.33.2a1.458,1.458,0,0,0,.572.11,1.622,1.622,0,0,0,1.363-.99,16.432,16.432,0,0,0,.859-2.86q.132-.505.286-1.122c.1-.411.18-.726.23-.946s.085-.351.1-.4a5.371,5.371,0,0,0,.109-.858,1.178,1.178,0,0,0-.285-.836,1.03,1.03,0,0,0-.792-.308,2.3,2.3,0,0,0-1.717.759,4.175,4.175,0,0,0-1.011,1.749q-.045.2-.1.231a1.064,1.064,0,0,1-.363.033Z" style="fill: #fff"/>
    <g>
      <g>
        <line x1="84.106" y1="329.853" x2="214.009" y2="404.853" style="fill: #f7c8ab;stroke: #fff;stroke-miterlimit: 10"/>
        <line x1="87.403" y1="328.007" x2="80.888" y2="331.745" style="fill: #f7c8ab;stroke: #fff;stroke-miterlimit: 10"/>
        <line x1="217.267" y1="402.984" x2="210.752" y2="406.723" style="fill: #f7c8ab;stroke: #fff;stroke-miterlimit: 10"/>
      </g>
      <g>
        <line x1="214.019" y1="404.848" x2="227.01" y2="412.348" style="fill: none;stroke: #fff;stroke-miterlimit: 10"/>
        <line x1="223.762" y1="414.223" x2="230.257" y2="410.473" style="fill: none;stroke: #fff;stroke-miterlimit: 10"/>
        <line x1="210.772" y1="406.723" x2="217.267" y2="402.973" style="fill: none;stroke: #fff;stroke-miterlimit: 10"/>
      </g>
    </g>
    <g>
      <line x1="395.895" y1="164.857" x2="395.895" y2="314.857" style="fill: #f7c8ab;stroke: #fff;stroke-miterlimit: 10"/>
      <line x1="392.647" y1="166.789" x2="399.142" y2="163.016" style="fill: #f7c8ab;stroke: #fff;stroke-miterlimit: 10"/>
      <line x1="392.647" y1="316.743" x2="399.142" y2="312.97" style="fill: #f7c8ab;stroke: #fff;stroke-miterlimit: 10"/>
    </g>
    <path d="M409.463,237.49a.369.369,0,0,1-.133-.242,4.181,4.181,0,0,1,.683-1.518,3.77,3.77,0,0,1,2.6-1.8,3.653,3.653,0,0,1,.462-.044,2.67,2.67,0,0,1,1.419.4,2.374,2.374,0,0,1,.936.99q.285-.374.351-.462a2.438,2.438,0,0,1,1.87-.924,2.076,2.076,0,0,1,1.463.517,1.657,1.657,0,0,1,.562,1.265,1.725,1.725,0,0,1-.386,1.144,1.264,1.264,0,0,1-1.022.462.973.973,0,0,1-.683-.242.824.824,0,0,1-.264-.638,1.4,1.4,0,0,1,1.1-1.386.909.909,0,0,0-.242-.154,1.261,1.261,0,0,0-.639-.132,1.452,1.452,0,0,0-.418.044,2.3,2.3,0,0,0-1.231,1.452q-.066.177-.639,2.453t-.615,2.562a3.377,3.377,0,0,0-.067.661,1.127,1.127,0,0,0,.309.836,1.1,1.1,0,0,0,.813.308,2.272,2.272,0,0,0,1.672-.781,4.061,4.061,0,0,0,1.012-1.727c.045-.147.089-.231.133-.253a1.065,1.065,0,0,1,.351-.033c.279,0,.418.059.418.176,0,.015-.014.1-.044.242a4.783,4.783,0,0,1-1.54,2.376,3.472,3.472,0,0,1-2.177.814,2.533,2.533,0,0,1-2.332-1.386,3.075,3.075,0,0,1-1.628,1.319,2.764,2.764,0,0,1-.573.045,1.917,1.917,0,0,1-1.8-.9,1.692,1.692,0,0,1-.221-.88,1.664,1.664,0,0,1,.4-1.122,1.271,1.271,0,0,1,1.011-.462.827.827,0,0,1,.947.924,1.24,1.24,0,0,1-.771,1.187c-.029.016-.065.033-.109.056l-.111.055a.18.18,0,0,1-.065.022l-.067.022c0,.044.111.11.331.2a1.472,1.472,0,0,0,.572.11,1.624,1.624,0,0,0,1.363-.99,16.606,16.606,0,0,0,.858-2.86q.132-.505.287-1.122t.23-.946c.052-.22.085-.352.1-.4a5.371,5.371,0,0,0,.109-.858,1.182,1.182,0,0,0-.285-.836,1.03,1.03,0,0,0-.792-.308,2.3,2.3,0,0,0-1.717.759,4.188,4.188,0,0,0-1.012,1.749c-.029.132-.062.209-.1.231a1.064,1.064,0,0,1-.363.033Z" style="fill: #fff"/>
    <g>
      <path d="M417.822,142.219q.332-.021.748-.054t.627-.056c.14-.014.217-.022.232-.022.175,0,.263.059.263.177q0,.153-1.617,6.654t-1.638,6.611a1.783,1.783,0,0,0-.023.33q0,.925.616.925a.961.961,0,0,0,.441-.2,5,5,0,0,0,.9-2.111c.089-.294.162-.448.221-.463a.654.654,0,0,1,.219-.022h.088c.279,0,.418.059.418.177a1.841,1.841,0,0,1-.065.352,5.723,5.723,0,0,1-1.189,2.551,2.154,2.154,0,0,1-.7.462,2.287,2.287,0,0,1-.527.045A1.988,1.988,0,0,1,414.9,156.5a1.668,1.668,0,0,0-.11-.265c-.015-.014-.044-.007-.088.022-.029.03-.058.059-.088.088a4.506,4.506,0,0,1-2.089,1.211,4.373,4.373,0,0,1-.55.022,2.923,2.923,0,0,1-2.4-1.211,4.287,4.287,0,0,1-.66-2.464,6.723,6.723,0,0,1,1.5-4.047,5.751,5.751,0,0,1,3.036-2.09,3.249,3.249,0,0,1,.9-.133,2.1,2.1,0,0,1,1.847.925c.074.088.111.117.111.088q.021-.089.6-2.41t.606-2.43a.394.394,0,0,0-.132-.352,3.281,3.281,0,0,0-.88-.111h-.463a.607.607,0,0,1-.143-.175,2.273,2.273,0,0,1,.055-.418c.073-.279.169-.418.286-.418.015,0,.092-.008.232-.022s.337-.03.593-.044Zm-1.891,7.965q-.486-1.738-1.651-1.739a2.035,2.035,0,0,0-1.551.748,5.222,5.222,0,0,0-1.023,1.717,17.5,17.5,0,0,0-.9,3.608c0,.044,0,.124-.011.241s-.012.206-.012.264a2.172,2.172,0,0,0,.341,1.276,1.149,1.149,0,0,0,1,.485,3.418,3.418,0,0,0,2.441-1.584l.176-.242q.2-.792.595-2.388T415.931,150.184Z" style="fill: #fff"/>
      <path d="M420.9,151.239a.365.365,0,0,1-.132-.241,4.186,4.186,0,0,1,.682-1.519,3.777,3.777,0,0,1,2.6-1.8,3.637,3.637,0,0,1,.462-.044,2.684,2.684,0,0,1,1.419.4,2.38,2.38,0,0,1,.935.991l.352-.462a2.436,2.436,0,0,1,1.87-.925,2.076,2.076,0,0,1,1.463.517,1.657,1.657,0,0,1,.561,1.266,1.732,1.732,0,0,1-.385,1.144,1.269,1.269,0,0,1-1.023.462.967.967,0,0,1-.682-.243.823.823,0,0,1-.264-.637,1.4,1.4,0,0,1,1.1-1.387.924.924,0,0,0-.242-.153,1.243,1.243,0,0,0-.638-.133,1.447,1.447,0,0,0-.418.044,2.3,2.3,0,0,0-1.232,1.452q-.066.177-.638,2.454t-.616,2.562a3.368,3.368,0,0,0-.066.661,1.128,1.128,0,0,0,.308.836,1.1,1.1,0,0,0,.814.308A2.271,2.271,0,0,0,428.8,156a4.049,4.049,0,0,0,1.012-1.727c.044-.146.088-.231.132-.253a1.068,1.068,0,0,1,.352-.033c.278,0,.418.059.418.177,0,.014-.015.095-.044.241a4.788,4.788,0,0,1-1.54,2.377,3.475,3.475,0,0,1-2.178.814,2.535,2.535,0,0,1-2.332-1.387,3.073,3.073,0,0,1-1.628,1.32,2.753,2.753,0,0,1-.572.045,1.917,1.917,0,0,1-1.8-.9,1.7,1.7,0,0,1-.22-.88,1.667,1.667,0,0,1,.4-1.122,1.274,1.274,0,0,1,1.012-.462.827.827,0,0,1,.946.924,1.241,1.241,0,0,1-.771,1.188l-.109.055-.11.056a.189.189,0,0,1-.066.022l-.066.022c0,.044.11.109.33.2a1.458,1.458,0,0,0,.572.111,1.623,1.623,0,0,0,1.364-.991,16.58,16.58,0,0,0,.858-2.859q.132-.507.286-1.122t.231-.947c.051-.219.085-.351.1-.4a5.391,5.391,0,0,0,.11-.858,1.18,1.18,0,0,0-.286-.836,1.03,1.03,0,0,0-.792-.308,2.3,2.3,0,0,0-1.716.76,4.154,4.154,0,0,0-1.012,1.749c-.029.131-.063.209-.1.231a1.076,1.076,0,0,1-.363.032Z" style="fill: #fff"/>
    </g>
    <g>
      <line x1="395.845" y1="149.856" x2="395.845" y2="164.856" style="fill: none;stroke: #fff;stroke-miterlimit: 10"/>
      <line x1="399.093" y1="162.981" x2="392.597" y2="166.731" style="fill: none;stroke: #fff;stroke-miterlimit: 10"/>
      <line x1="399.093" y1="147.981" x2="392.597" y2="151.731" style="fill: none;stroke: #fff;stroke-miterlimit: 10"/>
    </g>
  </g>
</svg>
