<svg xmlns="http://www.w3.org/2000/svg" width="720" height="720" viewBox="0 0 720 720">
  <g>
    <rect width="720" height="720"/>
    <g>
      <g style="opacity: 0.15">
        <line x1="90" y1="95.4" x2="630" y2="95.4" style="fill: none;stroke: #fff"/>
        <line x1="90" y1="100.8" x2="630" y2="100.8" style="fill: none;stroke: #fff"/>
        <line x1="90" y1="106.2" x2="630" y2="106.2" style="fill: none;stroke: #fff"/>
        <line x1="90" y1="111.6" x2="630" y2="111.6" style="fill: none;stroke: #fff"/>
        <line x1="90" y1="122.4" x2="630" y2="122.4" style="fill: none;stroke: #fff"/>
        <line x1="90" y1="127.8" x2="630" y2="127.8" style="fill: none;stroke: #fff"/>
        <line x1="90" y1="133.2" x2="630" y2="133.2" style="fill: none;stroke: #fff"/>
        <line x1="90" y1="138.6" x2="630" y2="138.6" style="fill: none;stroke: #fff"/>
        <line x1="90" y1="149.4" x2="630" y2="149.4" style="fill: none;stroke: #fff"/>
        <line x1="90" y1="154.8" x2="630" y2="154.8" style="fill: none;stroke: #fff"/>
        <line x1="90" y1="160.2" x2="630" y2="160.2" style="fill: none;stroke: #fff"/>
        <line x1="90" y1="165.6" x2="630" y2="165.6" style="fill: none;stroke: #fff"/>
        <line x1="90" y1="176.4" x2="630" y2="176.4" style="fill: none;stroke: #fff"/>
        <line x1="90" y1="181.8" x2="630" y2="181.8" style="fill: none;stroke: #fff"/>
        <line x1="90" y1="187.2" x2="630" y2="187.2" style="fill: none;stroke: #fff"/>
        <line x1="90" y1="192.6" x2="630" y2="192.6" style="fill: none;stroke: #fff"/>
        <line x1="90" y1="203.4" x2="630" y2="203.4" style="fill: none;stroke: #fff"/>
        <line x1="90" y1="208.8" x2="630" y2="208.8" style="fill: none;stroke: #fff"/>
        <line x1="90" y1="214.2" x2="630" y2="214.2" style="fill: none;stroke: #fff"/>
        <line x1="90" y1="219.6" x2="630" y2="219.6" style="fill: none;stroke: #fff"/>
        <line x1="90" y1="230.4" x2="630" y2="230.4" style="fill: none;stroke: #fff"/>
        <line x1="90" y1="235.8" x2="630" y2="235.8" style="fill: none;stroke: #fff"/>
        <line x1="90" y1="241.2" x2="630" y2="241.2" style="fill: none;stroke: #fff"/>
        <line x1="90" y1="246.6" x2="630" y2="246.6" style="fill: none;stroke: #fff"/>
        <line x1="90" y1="257.4" x2="630" y2="257.4" style="fill: none;stroke: #fff"/>
        <line x1="90" y1="262.8" x2="630" y2="262.8" style="fill: none;stroke: #fff"/>
        <line x1="90" y1="268.2" x2="630" y2="268.2" style="fill: none;stroke: #fff"/>
        <line x1="90" y1="273.6" x2="630" y2="273.6" style="fill: none;stroke: #fff"/>
        <line x1="90" y1="284.4" x2="630" y2="284.4" style="fill: none;stroke: #fff"/>
        <line x1="90" y1="289.8" x2="630" y2="289.8" style="fill: none;stroke: #fff"/>
        <line x1="90" y1="295.2" x2="630" y2="295.2" style="fill: none;stroke: #fff"/>
        <line x1="90" y1="300.6" x2="630" y2="300.6" style="fill: none;stroke: #fff"/>
        <line x1="90" y1="311.4" x2="630" y2="311.4" style="fill: none;stroke: #fff"/>
        <line x1="90" y1="316.8" x2="630" y2="316.8" style="fill: none;stroke: #fff"/>
        <line x1="90" y1="322.2" x2="630" y2="322.2" style="fill: none;stroke: #fff"/>
        <line x1="90" y1="327.6" x2="630" y2="327.6" style="fill: none;stroke: #fff"/>
        <line x1="90" y1="338.4" x2="630" y2="338.4" style="fill: none;stroke: #fff"/>
        <line x1="90" y1="343.8" x2="630" y2="343.8" style="fill: none;stroke: #fff"/>
        <line x1="90" y1="349.2" x2="630" y2="349.2" style="fill: none;stroke: #fff"/>
        <line x1="90" y1="354.6" x2="630" y2="354.6" style="fill: none;stroke: #fff"/>
        <line x1="90" y1="365.4" x2="630" y2="365.4" style="fill: none;stroke: #fff"/>
        <line x1="90" y1="370.8" x2="630" y2="370.8" style="fill: none;stroke: #fff"/>
        <line x1="90" y1="376.2" x2="630" y2="376.2" style="fill: none;stroke: #fff"/>
        <line x1="90" y1="381.6" x2="630" y2="381.6" style="fill: none;stroke: #fff"/>
        <line x1="90" y1="392.4" x2="630" y2="392.4" style="fill: none;stroke: #fff"/>
        <line x1="90" y1="397.8" x2="630" y2="397.8" style="fill: none;stroke: #fff"/>
        <line x1="90" y1="403.2" x2="630" y2="403.2" style="fill: none;stroke: #fff"/>
        <line x1="90" y1="408.6" x2="630" y2="408.6" style="fill: none;stroke: #fff"/>
        <line x1="90" y1="419.4" x2="630" y2="419.4" style="fill: none;stroke: #fff"/>
        <line x1="90" y1="424.8" x2="630" y2="424.8" style="fill: none;stroke: #fff"/>
        <line x1="90" y1="430.2" x2="630" y2="430.2" style="fill: none;stroke: #fff"/>
        <line x1="90" y1="435.6" x2="630" y2="435.6" style="fill: none;stroke: #fff"/>
        <line x1="90" y1="446.4" x2="630" y2="446.4" style="fill: none;stroke: #fff"/>
        <line x1="90" y1="451.8" x2="630" y2="451.8" style="fill: none;stroke: #fff"/>
        <line x1="90" y1="457.2" x2="630" y2="457.2" style="fill: none;stroke: #fff"/>
        <line x1="90" y1="462.6" x2="630" y2="462.6" style="fill: none;stroke: #fff"/>
        <line x1="90" y1="473.4" x2="630" y2="473.4" style="fill: none;stroke: #fff"/>
        <line x1="90" y1="478.8" x2="630" y2="478.8" style="fill: none;stroke: #fff"/>
        <line x1="90" y1="484.2" x2="630" y2="484.2" style="fill: none;stroke: #fff"/>
        <line x1="90" y1="489.6" x2="630" y2="489.6" style="fill: none;stroke: #fff"/>
        <line x1="90" y1="500.4" x2="630" y2="500.4" style="fill: none;stroke: #fff"/>
        <line x1="90" y1="505.8" x2="630" y2="505.8" style="fill: none;stroke: #fff"/>
        <line x1="90" y1="511.2" x2="630" y2="511.2" style="fill: none;stroke: #fff"/>
        <line x1="90" y1="516.6" x2="630" y2="516.6" style="fill: none;stroke: #fff"/>
        <line x1="90" y1="527.4" x2="630" y2="527.4" style="fill: none;stroke: #fff"/>
        <line x1="90" y1="532.8" x2="630" y2="532.8" style="fill: none;stroke: #fff"/>
        <line x1="90" y1="538.2" x2="630" y2="538.2" style="fill: none;stroke: #fff"/>
        <line x1="90" y1="543.6" x2="630" y2="543.6" style="fill: none;stroke: #fff"/>
        <line x1="90" y1="554.4" x2="630" y2="554.4" style="fill: none;stroke: #fff"/>
        <line x1="90" y1="559.8" x2="630" y2="559.8" style="fill: none;stroke: #fff"/>
        <line x1="90" y1="565.2" x2="630" y2="565.2" style="fill: none;stroke: #fff"/>
        <line x1="90" y1="570.6" x2="630" y2="570.6" style="fill: none;stroke: #fff"/>
        <line x1="90" y1="581.4" x2="630" y2="581.4" style="fill: none;stroke: #fff"/>
        <line x1="90" y1="586.8" x2="630" y2="586.8" style="fill: none;stroke: #fff"/>
        <line x1="90" y1="592.2" x2="630" y2="592.2" style="fill: none;stroke: #fff"/>
        <line x1="90" y1="597.6" x2="630" y2="597.6" style="fill: none;stroke: #fff"/>
        <line x1="90" y1="608.4" x2="630" y2="608.4" style="fill: none;stroke: #fff"/>
        <line x1="90" y1="613.8" x2="630" y2="613.8" style="fill: none;stroke: #fff"/>
        <line x1="90" y1="619.2" x2="630" y2="619.2" style="fill: none;stroke: #fff"/>
        <line x1="90" y1="624.6" x2="630" y2="624.6" style="fill: none;stroke: #fff"/>
      </g>
      <g style="opacity: 0.3">
        <line x1="90" y1="117" x2="630" y2="117" style="fill: none;stroke: #fff"/>
        <line x1="90" y1="171" x2="630" y2="171" style="fill: none;stroke: #fff"/>
        <line x1="90" y1="225" x2="630" y2="225" style="fill: none;stroke: #fff"/>
        <line x1="90" y1="279" x2="630" y2="279" style="fill: none;stroke: #fff"/>
        <line x1="90" y1="333" x2="630" y2="333" style="fill: none;stroke: #fff"/>
        <line x1="90" y1="387" x2="630" y2="387" style="fill: none;stroke: #fff"/>
        <line x1="90" y1="441" x2="630" y2="441" style="fill: none;stroke: #fff"/>
        <line x1="90" y1="495" x2="630" y2="495" style="fill: none;stroke: #fff"/>
        <line x1="90" y1="549" x2="630" y2="549" style="fill: none;stroke: #fff"/>
        <line x1="90" y1="603" x2="630" y2="603" style="fill: none;stroke: #fff"/>
      </g>
    </g>
    <g>
      <line x1="99.053" y1="360" x2="620.947" y2="360" style="fill: none;stroke: #fff;stroke-width: 1.5px"/>
      <path d="M90,360c4.26,1.581,9.545,4.277,12.821,7.134L100.241,360l2.58-7.132C99.545,355.724,94.26,358.421,90,360Z" style="fill: #fff"/>
      <path d="M630,360c-4.26,1.581-9.545,4.277-12.821,7.134l2.58-7.134-2.58-7.132C620.455,355.724,625.74,358.421,630,360Z" style="fill: #fff"/>
    </g>
    <g style="opacity: 0.4">
      <line x1="144" y1="90" x2="144" y2="630" style="fill: none;stroke: #fff"/>
      <line x1="198" y1="90" x2="198" y2="630" style="fill: none;stroke: #fff"/>
      <line x1="252" y1="90" x2="252" y2="630" style="fill: none;stroke: #fff"/>
      <line x1="306" y1="90" x2="306" y2="630" style="fill: none;stroke: #fff"/>
      <line x1="414" y1="90" x2="414" y2="630" style="fill: none;stroke: #fff"/>
      <line x1="468" y1="90" x2="468" y2="630" style="fill: none;stroke: #fff"/>
      <line x1="522" y1="90" x2="522" y2="630" style="fill: none;stroke: #fff"/>
      <line x1="576" y1="90" x2="576" y2="630" style="fill: none;stroke: #fff"/>
      <line x1="90" y1="90" x2="90" y2="630" style="fill: none;stroke: #fff"/>
      <line x1="630" y1="90" x2="630" y2="630" style="fill: none;stroke: #fff"/>
    </g>
    <g style="opacity: 0.4">
      <line x1="90" y1="90" x2="630" y2="90" style="fill: none;stroke: #fff"/>
      <line x1="90" y1="144" x2="630" y2="144" style="fill: none;stroke: #fff"/>
      <line x1="90" y1="198" x2="630" y2="198" style="fill: none;stroke: #fff"/>
      <line x1="90" y1="252" x2="630" y2="252" style="fill: none;stroke: #fff"/>
      <line x1="90" y1="306" x2="630" y2="306" style="fill: none;stroke: #fff"/>
      <line x1="90" y1="414" x2="630" y2="414" style="fill: none;stroke: #fff"/>
      <line x1="90" y1="468" x2="630" y2="468" style="fill: none;stroke: #fff"/>
      <line x1="90" y1="522" x2="630" y2="522" style="fill: none;stroke: #fff"/>
      <line x1="90" y1="576" x2="630" y2="576" style="fill: none;stroke: #fff"/>
      <line x1="90" y1="630" x2="630" y2="630" style="fill: none;stroke: #fff"/>
    </g>
  </g>
  <g>
    <g>
      <path d="M163.242,621.212c130.877-521.994,262.64-.43,393.516-522.425" style="fill: none;stroke: #58c4dd;stroke-miterlimit: 10;stroke-width: 1.5px"/>
      <path d="M161.063,630c2.606-3.722,6.551-8.154,10.143-10.6l-7.554.693-6.249-4.3C159.339,619.684,160.612,625.479,161.063,630Z" style="fill: #58c4dd"/>
      <path d="M558.937,90c.453,4.521,1.726,10.316,3.661,14.208l-6.25-4.3-7.552.694A45.307,45.307,0,0,0,558.937,90Z" style="fill: #58c4dd"/>
    </g>
    <g>
      <path d="M142.988,98.373c144.734,349.267,289.709,348.255,434.023,0" style="fill: none;stroke: #83c167;stroke-miterlimit: 10;stroke-width: 1.5px"/>
      <path d="M139.546,90c.2,4.539-.238,10.457-1.6,14.585l5.573-5.147,7.575-.39C147.191,97.137,142.655,93.313,139.546,90Z" style="fill: #83c167"/>
      <path d="M580.454,90c-.2,4.539.238,10.457,1.6,14.585l-5.573-5.147-7.575-.39C572.809,97.138,577.346,93.313,580.454,90Z" style="fill: #83c167"/>
    </g>
    <g>
      <g>
        <g>
          <path d="M102.124,20.575q.375-.024.849-.063c.317-.025.554-.045.713-.062s.246-.025.262-.025c.2,0,.3.067.3.2q0,.175-1.838,7.563T100.548,35.7a2.145,2.145,0,0,0-.025.375q0,1.05.7,1.05a1.077,1.077,0,0,0,.5-.225,5.671,5.671,0,0,0,1.026-2.4c.1-.333.183-.508.25-.525a.718.718,0,0,1,.25-.025h.1q.476,0,.475.2a2.152,2.152,0,0,1-.074.4,6.521,6.521,0,0,1-1.351,2.9,2.467,2.467,0,0,1-.8.525,2.677,2.677,0,0,1-.6.05A2.257,2.257,0,0,1,98.8,36.8a1.774,1.774,0,0,0-.125-.3c-.016-.017-.049-.008-.1.025l-.1.1A5.12,5.12,0,0,1,96.1,38a4.927,4.927,0,0,1-.625.025,3.316,3.316,0,0,1-2.724-1.375,4.866,4.866,0,0,1-.75-2.8,7.641,7.641,0,0,1,1.7-4.6,6.538,6.538,0,0,1,3.45-2.375,3.729,3.729,0,0,1,1.025-.15,2.393,2.393,0,0,1,2.1,1.05c.083.1.125.134.125.1q.026-.1.688-2.738t.687-2.762a.453.453,0,0,0-.149-.4,3.79,3.79,0,0,0-1-.125H100.1a.688.688,0,0,1-.162-.2,2.422,2.422,0,0,1,.063-.475q.124-.476.324-.475c.017,0,.1-.008.263-.025s.383-.033.675-.05Zm-2.151,9.05q-.551-1.974-1.875-1.975a2.311,2.311,0,0,0-1.762.85,5.922,5.922,0,0,0-1.163,1.95,19.98,19.98,0,0,0-1.025,4.1c0,.05,0,.142-.012.275s-.012.234-.012.3a2.463,2.463,0,0,0,.387,1.45,1.3,1.3,0,0,0,1.137.55q1.326,0,2.775-1.8l.2-.275q.224-.9.674-2.713T99.973,29.625Z" style="fill: #83c167"/>
          <path d="M107.123,41.825c.45.1.691.15.725.15q.574,0,1-1.05.3-.825,1.825-8.9.7-3.776.725-3.8V28.15h-1.175a6.777,6.777,0,0,1-1.25-.05c-.117-.066-.134-.25-.05-.55a2.118,2.118,0,0,1,.125-.4.226.226,0,0,1,.212-.138c.109-.008.5-.012,1.163-.012a10.717,10.717,0,0,0,1.2-.025q0-.05.225-1.25t.3-1.45a6.1,6.1,0,0,1,1.575-3.3,3.228,3.228,0,0,1,2.075-.825,2.557,2.557,0,0,1,1.513.55,1.627,1.627,0,0,1,.612,1.325,1.765,1.765,0,0,1-.45,1.225,1.452,1.452,0,0,1-1.125.5q-1.1,0-1.1-1.05a1.41,1.41,0,0,1,.875-1.35l.225-.125a2.468,2.468,0,0,0-.75-.15q-.726,0-.95.95-.2.75-.65,3.275l-.325,1.65a7.17,7.17,0,0,0,1.375.05q1.125,0,1.35.025c.15.017.225.075.225.175a2.81,2.81,0,0,1-.175.8.246.246,0,0,1-.238.137q-.187.014-1.337.013h-1.4L112.9,31.2q-.925,4.775-1.15,5.775-.851,3.774-2.275,5.125a2.821,2.821,0,0,1-1.825.8,2.266,2.266,0,0,1-1.5-.5,1.64,1.64,0,0,1-.6-1.325,1.847,1.847,0,0,1,.45-1.263,1.437,1.437,0,0,1,1.125-.512q1.1,0,1.1,1.05a1.412,1.412,0,0,1-.875,1.35Z" style="fill: #83c167"/>
        </g>
        <g>
          <path d="M101.849,54.826q.375-.024.849-.062c.317-.025.554-.046.713-.063s.246-.025.262-.025c.2,0,.3.067.3.2q0,.176-1.838,7.563t-1.863,7.512a2.166,2.166,0,0,0-.024.375c0,.7.232,1.05.7,1.05a1.067,1.067,0,0,0,.5-.225,5.671,5.671,0,0,0,1.026-2.4c.1-.333.183-.508.25-.524a.709.709,0,0,1,.25-.026h.1q.476,0,.475.2a2.138,2.138,0,0,1-.074.4,6.532,6.532,0,0,1-1.35,2.9,2.484,2.484,0,0,1-.8.526,2.689,2.689,0,0,1-.6.049,2.257,2.257,0,0,1-2.2-1.225,1.9,1.9,0,0,0-.125-.3c-.016-.016-.049-.008-.1.025l-.1.1a5.12,5.12,0,0,1-2.375,1.375,4.736,4.736,0,0,1-.625.025A3.316,3.316,0,0,1,92.474,70.9a4.862,4.862,0,0,1-.75-2.8,7.642,7.642,0,0,1,1.7-4.6,6.546,6.546,0,0,1,3.451-2.375,3.715,3.715,0,0,1,1.024-.149,2.4,2.4,0,0,1,2.1,1.049c.083.1.125.134.125.1q.024-.1.687-2.737t.688-2.763a.45.45,0,0,0-.15-.4,3.7,3.7,0,0,0-1-.125h-.526a.7.7,0,0,1-.162-.2,2.431,2.431,0,0,1,.063-.475c.083-.316.191-.475.324-.475.017,0,.1-.008.263-.025s.383-.033.675-.05ZM99.7,63.876Q99.149,61.9,97.823,61.9a2.311,2.311,0,0,0-1.762.85A5.922,5.922,0,0,0,94.9,64.7a19.93,19.93,0,0,0-1.024,4.1c0,.051,0,.142-.013.275s-.012.234-.012.3a2.466,2.466,0,0,0,.387,1.45,1.3,1.3,0,0,0,1.138.55q1.325,0,2.774-1.8l.2-.275q.225-.9.674-2.712T99.7,63.876Z" style="fill: #83c167"/>
          <path d="M105.348,65.076a.413.413,0,0,1-.15-.275,4.754,4.754,0,0,1,.775-1.725,4.287,4.287,0,0,1,2.95-2.05,4.083,4.083,0,0,1,.525-.049,3.04,3.04,0,0,1,1.613.449,2.7,2.7,0,0,1,1.062,1.125c.216-.283.35-.458.4-.525a2.768,2.768,0,0,1,2.125-1.049,2.358,2.358,0,0,1,1.663.587A1.884,1.884,0,0,1,116.948,63a1.96,1.96,0,0,1-.438,1.3,1.436,1.436,0,0,1-1.162.525,1.1,1.1,0,0,1-.775-.275.936.936,0,0,1-.3-.725,1.59,1.59,0,0,1,1.25-1.575,1.029,1.029,0,0,0-.275-.175,1.438,1.438,0,0,0-.725-.15,1.6,1.6,0,0,0-.475.051,2.616,2.616,0,0,0-1.4,1.649q-.075.2-.725,2.788t-.7,2.912a3.816,3.816,0,0,0-.075.75,1.279,1.279,0,0,0,.35.95,1.248,1.248,0,0,0,.925.35,2.579,2.579,0,0,0,1.9-.887,4.621,4.621,0,0,0,1.15-1.963c.05-.166.1-.262.15-.287a1.208,1.208,0,0,1,.4-.038c.316,0,.475.067.475.2,0,.017-.017.109-.05.275a5.434,5.434,0,0,1-1.75,2.7,3.942,3.942,0,0,1-2.475.925,2.881,2.881,0,0,1-2.65-1.574,3.5,3.5,0,0,1-1.85,1.5,3.236,3.236,0,0,1-.65.049,2.178,2.178,0,0,1-2.05-1.025,1.931,1.931,0,0,1-.25-1,1.888,1.888,0,0,1,.45-1.274,1.444,1.444,0,0,1,1.15-.526.94.94,0,0,1,1.075,1.05,1.414,1.414,0,0,1-.875,1.351l-.125.062-.125.063a.2.2,0,0,1-.075.024l-.075.025q0,.075.375.225a1.659,1.659,0,0,0,.65.125,1.846,1.846,0,0,0,1.55-1.125,18.938,18.938,0,0,0,.975-3.25q.15-.575.325-1.274t.263-1.076c.058-.25.095-.4.112-.45a6.14,6.14,0,0,0,.125-.974,1.346,1.346,0,0,0-.325-.951,1.17,1.17,0,0,0-.9-.35,2.611,2.611,0,0,0-1.95.863,4.734,4.734,0,0,0-1.15,1.987c-.034.15-.071.238-.113.263a1.206,1.206,0,0,1-.412.037Z" style="fill: #83c167"/>
        </g>
        <rect x="86.548" y="46.357" width="36" height="1.5" style="fill: #83c167"/>
      </g>
      <g>
        <path d="M132.625,44.713a.546.546,0,0,1,.35-.5H148.9a.548.548,0,0,1,.375.5.567.567,0,0,1-.35.475l-7.95.025h-7.95A.5.5,0,0,1,132.625,44.713Zm0,4.85a.5.5,0,0,1,.4-.5h15.9a.955.955,0,0,0,.113.088,1.15,1.15,0,0,1,.125.1.448.448,0,0,1,.075.125.478.478,0,0,1,.037.188.546.546,0,0,1-.375.5H132.975A.544.544,0,0,1,132.625,49.563Z" style="fill: #83c167"/>
        <path d="M160.1,41.813a1.362,1.362,0,0,1-1.062-.425,1.566,1.566,0,0,1-.388-1.1,3.017,3.017,0,0,1,1.125-2.387,4.782,4.782,0,0,1,2.6-1.138h.375c.583,0,.95.009,1.1.025a6.119,6.119,0,0,1,1.675.525,3.723,3.723,0,0,1,2.075,2.35,2.436,2.436,0,0,1,.075.675,4.16,4.16,0,0,1-.912,2.638,5.057,5.057,0,0,1-2.288,1.662q-.124.051,0,.075a1.556,1.556,0,0,0,.25.075,5.336,5.336,0,0,1,2.575,1.587,3.832,3.832,0,0,1,1.05,2.638,4.356,4.356,0,0,1-.475,1.975,4.961,4.961,0,0,1-1.962,2.113,5.69,5.69,0,0,1-3.038.837,5.975,5.975,0,0,1-2.925-.7,3.6,3.6,0,0,1-1.725-1.875,2.829,2.829,0,0,1-.25-1.225A1.5,1.5,0,0,1,158.438,49a1.664,1.664,0,0,1,2.262.013,1.526,1.526,0,0,1,.45,1.125,1.6,1.6,0,0,1-.325,1,1.471,1.471,0,0,1-.875.55l-.175.05a4.7,4.7,0,0,0,3.1,1.125,2.23,2.23,0,0,0,2.075-1.325,5.747,5.747,0,0,0,.425-2.525v-.5a3.2,3.2,0,0,0-1.6-3.175,5.247,5.247,0,0,0-1.525-.175l-1.05-.025-.075-.05a.934.934,0,0,1-.05-.4.593.593,0,0,1,.075-.375.206.206,0,0,1,.125-.075,8.744,8.744,0,0,0,1.45-.125,2.164,2.164,0,0,0,1.675-1.238,5.509,5.509,0,0,0,.575-2.612,2.376,2.376,0,0,0-.875-2.175,2.075,2.075,0,0,0-1.175-.35,3.7,3.7,0,0,0-2.2.675,1.063,1.063,0,0,0-.225.163,1.583,1.583,0,0,0-.2.212l-.075.1c.05.017.108.034.175.05a1.2,1.2,0,0,1,.838.475,1.526,1.526,0,0,1,.337.975,1.379,1.379,0,0,1-.412,1.013A1.438,1.438,0,0,1,160.1,41.813Z" style="fill: #83c167"/>
        <path d="M170.875,46.438a.415.415,0,0,1-.15-.275,4.764,4.764,0,0,1,.775-1.725,4.291,4.291,0,0,1,2.95-2.05,4.142,4.142,0,0,1,.525-.05,3.039,3.039,0,0,1,1.613.45,2.687,2.687,0,0,1,1.062,1.125q.325-.424.4-.525a2.77,2.77,0,0,1,2.125-1.05,2.357,2.357,0,0,1,1.663.588,1.879,1.879,0,0,1,.637,1.437,1.965,1.965,0,0,1-.437,1.3,1.439,1.439,0,0,1-1.163.525,1.1,1.1,0,0,1-.775-.275.936.936,0,0,1-.3-.725,1.591,1.591,0,0,1,1.25-1.575,1.029,1.029,0,0,0-.275-.175,1.425,1.425,0,0,0-.725-.15,1.643,1.643,0,0,0-.475.05,2.62,2.62,0,0,0-1.4,1.65q-.075.2-.725,2.788t-.7,2.912a3.816,3.816,0,0,0-.075.75,1.284,1.284,0,0,0,.35.95,1.248,1.248,0,0,0,.925.35,2.581,2.581,0,0,0,1.9-.887A4.61,4.61,0,0,0,181,49.888c.05-.166.1-.263.15-.287a1.208,1.208,0,0,1,.4-.038q.475,0,.475.2c0,.017-.017.109-.05.275a5.434,5.434,0,0,1-1.75,2.7,3.94,3.94,0,0,1-2.475.925,2.88,2.88,0,0,1-2.65-1.575,3.5,3.5,0,0,1-1.85,1.5,3.149,3.149,0,0,1-.65.05,2.178,2.178,0,0,1-2.05-1.025,1.931,1.931,0,0,1-.25-1,1.892,1.892,0,0,1,.45-1.275,1.448,1.448,0,0,1,1.15-.525.939.939,0,0,1,1.075,1.05,1.41,1.41,0,0,1-.875,1.35l-.125.063-.125.062a.183.183,0,0,1-.075.025l-.075.025q0,.075.375.225a1.662,1.662,0,0,0,.65.125,1.845,1.845,0,0,0,1.55-1.125,18.838,18.838,0,0,0,.975-3.25q.15-.575.325-1.275t.263-1.075c.058-.25.1-.4.112-.45a6.018,6.018,0,0,0,.125-.975,1.341,1.341,0,0,0-.325-.95,1.168,1.168,0,0,0-.9-.35,2.611,2.611,0,0,0-1.95.863,4.745,4.745,0,0,0-1.15,1.987c-.033.15-.071.237-.112.263a1.218,1.218,0,0,1-.413.037Z" style="fill: #83c167"/>
        <path d="M185.328,38.811a.813.813,0,0,1-.641-.263.932.932,0,0,1-.233-.641,2.39,2.39,0,0,1,.794-1.8,2.675,2.675,0,0,1,1.9-.75,3.159,3.159,0,0,1,2.077.678,2.843,2.843,0,0,1,1.013,1.771,4.473,4.473,0,0,1,.029.481,2.761,2.761,0,0,1-.51,1.589,9.7,9.7,0,0,1-1.647,1.675q-.525.453-1.457,1.341l-.86.817,1.107.014a17.4,17.4,0,0,0,2.434-.073c.039-.009.088-.111.146-.306a9.112,9.112,0,0,0,.2-.991v-.044h.583v.044l-.408,2.667v.044h-5.407v-.277a.967.967,0,0,1,.029-.335q.015-.015,1.225-1.385,1.587-1.763,2.04-2.332a4.23,4.23,0,0,0,.976-2.434,2.553,2.553,0,0,0-.5-1.611,1.681,1.681,0,0,0-1.407-.648,1.6,1.6,0,0,0-1.37.758c-.02.039-.049.093-.088.16a.312.312,0,0,0-.043.088c0,.01.024.015.073.015a.742.742,0,0,1,.59.262.912.912,0,0,1,.226.612.866.866,0,0,1-.241.619A.827.827,0,0,1,185.328,38.811Z" style="fill: #83c167"/>
      </g>
    </g>
    <g>
      <path d="M530.945,60.95c.451.1.692.151.725.151q.576,0,1-1.051.3-.825,1.825-8.9.7-3.774.725-3.8v-.076h-1.175a6.848,6.848,0,0,1-1.25-.049c-.116-.067-.134-.25-.05-.551a2.309,2.309,0,0,1,.125-.4.224.224,0,0,1,.213-.137c.107-.008.5-.013,1.162-.013a11.273,11.273,0,0,0,1.2-.024c0-.034.076-.451.225-1.25s.25-1.284.3-1.451a6.092,6.092,0,0,1,1.575-3.3,3.226,3.226,0,0,1,2.075-.826,2.557,2.557,0,0,1,1.513.55,1.628,1.628,0,0,1,.612,1.325,1.763,1.763,0,0,1-.45,1.225,1.448,1.448,0,0,1-1.125.5q-1.1,0-1.1-1.05a1.41,1.41,0,0,1,.875-1.349l.225-.125a2.443,2.443,0,0,0-.75-.151q-.724,0-.95.95-.2.75-.65,3.275l-.325,1.65a7.064,7.064,0,0,0,1.375.05q1.125,0,1.35.025c.15.017.225.076.225.175a2.794,2.794,0,0,1-.174.8.248.248,0,0,1-.239.138q-.187.012-1.337.012h-1.4l-.575,3.05Q535.8,55.1,535.57,56.1q-.851,3.774-2.275,5.125a2.817,2.817,0,0,1-1.825.8,2.266,2.266,0,0,1-1.5-.5,1.638,1.638,0,0,1-.6-1.325,1.848,1.848,0,0,1,.45-1.262,1.435,1.435,0,0,1,1.125-.513q1.1,0,1.1,1.051a1.411,1.411,0,0,1-.875,1.349Z" style="fill: #58c4dd"/>
      <path d="M548.57,62.925q0,.225-.45.225h-.325l-.7-.6q-4.5-4.1-4.5-11.9a20.176,20.176,0,0,1,.725-5.575A13.494,13.494,0,0,1,547.1,38.75q.175-.15.4-.337c.151-.125.25-.213.3-.263h.325a.585.585,0,0,1,.375.076.212.212,0,0,1,.075.149c0,.067-.091.192-.275.375q-3.875,4.1-3.875,11.9t3.875,11.9C548.479,62.733,548.57,62.858,548.57,62.925Z" style="fill: #58c4dd"/>
      <path d="M551.42,49.95a.409.409,0,0,1-.15-.275,4.754,4.754,0,0,1,.775-1.725A4.289,4.289,0,0,1,555,45.9a4.083,4.083,0,0,1,.525-.049,3.034,3.034,0,0,1,1.612.449,2.692,2.692,0,0,1,1.062,1.125q.325-.424.4-.525a2.768,2.768,0,0,1,2.125-1.049,2.354,2.354,0,0,1,1.662.587,1.878,1.878,0,0,1,.638,1.437,1.96,1.96,0,0,1-.438,1.3,1.437,1.437,0,0,1-1.162.525,1.1,1.1,0,0,1-.775-.275.933.933,0,0,1-.3-.725,1.59,1.59,0,0,1,1.25-1.575,1.025,1.025,0,0,0-.276-.175,1.432,1.432,0,0,0-.724-.15,1.6,1.6,0,0,0-.475.051,2.613,2.613,0,0,0-1.4,1.649q-.075.2-.725,2.788t-.7,2.912a3.816,3.816,0,0,0-.075.75,1.282,1.282,0,0,0,.349.95,1.25,1.25,0,0,0,.926.35,2.581,2.581,0,0,0,1.9-.887,4.621,4.621,0,0,0,1.15-1.963c.05-.166.1-.262.149-.287a1.22,1.22,0,0,1,.4-.038q.474,0,.474.2c0,.017-.016.109-.049.275a5.441,5.441,0,0,1-1.75,2.7,3.944,3.944,0,0,1-2.475.925,2.881,2.881,0,0,1-2.65-1.574,3.5,3.5,0,0,1-1.85,1.5,3.236,3.236,0,0,1-.65.049,2.178,2.178,0,0,1-2.05-1.025,1.931,1.931,0,0,1-.25-1,1.888,1.888,0,0,1,.45-1.274,1.444,1.444,0,0,1,1.149-.526.94.94,0,0,1,1.076,1.05,1.414,1.414,0,0,1-.875,1.351l-.125.062-.125.063a.2.2,0,0,1-.076.024l-.074.025q0,.075.375.225a1.655,1.655,0,0,0,.65.125,1.844,1.844,0,0,0,1.549-1.125,18.8,18.8,0,0,0,.976-3.25q.15-.575.325-1.274t.262-1.076c.058-.25.1-.4.113-.45a6.14,6.14,0,0,0,.125-.974,1.346,1.346,0,0,0-.325-.951,1.17,1.17,0,0,0-.9-.35,2.615,2.615,0,0,0-1.951.863,4.742,4.742,0,0,0-1.149,1.987c-.034.15-.071.238-.112.263a1.218,1.218,0,0,1-.413.037Z" style="fill: #58c4dd"/>
      <path d="M565.77,38.175l.1-.025h.551l.7.6q4.5,4.1,4.5,11.9a19.737,19.737,0,0,1-.724,5.55,13.49,13.49,0,0,1-3.776,6.35c-.116.1-.25.213-.4.338s-.25.213-.3.262h-.3a.948.948,0,0,1-.387-.049c-.058-.034-.087-.118-.087-.25.016-.018.108-.125.275-.326q3.875-4.024,3.875-11.875T565.92,38.775c-.167-.2-.259-.308-.275-.325A.294.294,0,0,1,565.77,38.175Z" style="fill: #58c4dd"/>
      <path d="M575.4,48.226a.543.543,0,0,1,.349-.5h15.925a.546.546,0,0,1,.375.5.565.565,0,0,1-.35.474l-7.95.026h-7.95A.5.5,0,0,1,575.4,48.226Zm0,4.849a.5.5,0,0,1,.4-.5h15.9a.934.934,0,0,0,.113.088,1.238,1.238,0,0,1,.125.1.433.433,0,0,1,.075.125.487.487,0,0,1,.037.187.546.546,0,0,1-.375.5H575.744A.543.543,0,0,1,575.4,53.075Z" style="fill: #58c4dd"/>
      <path d="M594.9,49.95a.411.411,0,0,1-.151-.275,4.759,4.759,0,0,1,.776-1.725,4.287,4.287,0,0,1,2.95-2.05,4.071,4.071,0,0,1,.524-.049,3.034,3.034,0,0,1,1.612.449,2.7,2.7,0,0,1,1.063,1.125c.217-.283.351-.458.4-.525a2.771,2.771,0,0,1,2.125-1.049,2.351,2.351,0,0,1,1.662.587,1.878,1.878,0,0,1,.638,1.437,1.96,1.96,0,0,1-.437,1.3,1.437,1.437,0,0,1-1.162.525,1.1,1.1,0,0,1-.776-.275.936.936,0,0,1-.3-.725,1.59,1.59,0,0,1,1.25-1.575,1.007,1.007,0,0,0-.275-.175,1.433,1.433,0,0,0-.725-.15,1.593,1.593,0,0,0-.474.051,2.614,2.614,0,0,0-1.4,1.649q-.073.2-.724,2.788t-.7,2.912a3.817,3.817,0,0,0-.076.75,1.283,1.283,0,0,0,.35.95,1.249,1.249,0,0,0,.926.35,2.577,2.577,0,0,0,1.9-.887A4.623,4.623,0,0,0,605.02,53.4c.049-.166.1-.262.149-.287a1.217,1.217,0,0,1,.4-.038q.476,0,.475.2c0,.017-.017.109-.05.275a5.427,5.427,0,0,1-1.75,2.7,3.939,3.939,0,0,1-2.474.925,2.883,2.883,0,0,1-2.651-1.574,3.5,3.5,0,0,1-1.849,1.5,3.254,3.254,0,0,1-.651.049,2.179,2.179,0,0,1-2.05-1.025,1.931,1.931,0,0,1-.25-1,1.889,1.889,0,0,1,.451-1.274,1.441,1.441,0,0,1,1.149-.526.939.939,0,0,1,1.075,1.05,1.414,1.414,0,0,1-.875,1.351l-.125.062-.125.063a.194.194,0,0,1-.075.024l-.074.025q0,.075.375.225a1.654,1.654,0,0,0,.649.125,1.845,1.845,0,0,0,1.55-1.125,18.8,18.8,0,0,0,.976-3.25q.149-.575.325-1.274t.261-1.076c.059-.25.1-.4.114-.45a6.14,6.14,0,0,0,.125-.974,1.351,1.351,0,0,0-.325-.951,1.171,1.171,0,0,0-.9-.35,2.613,2.613,0,0,0-1.95.863,4.721,4.721,0,0,0-1.149,1.987c-.035.15-.072.238-.113.263a1.214,1.214,0,0,1-.413.037Z" style="fill: #58c4dd"/>
      <path d="M609.6,41.827a.792.792,0,0,1-.619-.248.913.913,0,0,1-.226-.641,1.763,1.763,0,0,1,.655-1.392,2.791,2.791,0,0,1,1.517-.663h.218q.51,0,.641.014a3.523,3.523,0,0,1,.977.307,2.169,2.169,0,0,1,1.21,1.37,1.418,1.418,0,0,1,.044.393,2.423,2.423,0,0,1-.533,1.538,2.937,2.937,0,0,1-1.333.969c-.049.02-.049.034,0,.044a1.092,1.092,0,0,0,.146.044,3.1,3.1,0,0,1,1.5.925,2.231,2.231,0,0,1,.612,1.537,2.552,2.552,0,0,1-.277,1.152,2.888,2.888,0,0,1-1.145,1.232,3.314,3.314,0,0,1-1.77.488,3.482,3.482,0,0,1-1.7-.408A2.1,2.1,0,0,1,608.5,47.4a1.649,1.649,0,0,1-.146-.714.874.874,0,0,1,.27-.664.97.97,0,0,1,1.319.007.892.892,0,0,1,.262.657.936.936,0,0,1-.189.583.855.855,0,0,1-.51.32l-.1.029a2.748,2.748,0,0,0,1.808.656,1.3,1.3,0,0,0,1.21-.772,3.353,3.353,0,0,0,.248-1.473v-.291a1.867,1.867,0,0,0-.934-1.851,3.061,3.061,0,0,0-.888-.1l-.613-.014-.044-.03a.555.555,0,0,1-.028-.233.345.345,0,0,1,.043-.218.117.117,0,0,1,.073-.044,5.11,5.11,0,0,0,.846-.073,1.266,1.266,0,0,0,.977-.722,3.234,3.234,0,0,0,.335-1.523,1.385,1.385,0,0,0-.511-1.268,1.214,1.214,0,0,0-.685-.2,2.158,2.158,0,0,0-1.282.394.633.633,0,0,0-.132.094.911.911,0,0,0-.116.124l-.044.059c.029.009.063.019.1.029a.7.7,0,0,1,.488.277.889.889,0,0,1,.2.568.8.8,0,0,1-.24.59A.836.836,0,0,1,609.6,41.827Z" style="fill: #58c4dd"/>
    </g>
    <path d="M365.613,57.019a.973.973,0,0,1,.6.187.608.608,0,0,1,.25.512q0,.325-1.226,5.25t-1.4,5.4a6.649,6.649,0,0,1-1.288,2.262,6.737,6.737,0,0,1-2.063,1.638,5.852,5.852,0,0,1-2.525.649,2.688,2.688,0,0,1-2.575-1.2,1.7,1.7,0,0,1-.25-1,1.787,1.787,0,0,1,.475-1.324,1.627,1.627,0,0,1,1.1-.476q1.1,0,1.1,1.05a1.411,1.411,0,0,1-.875,1.35l-.125.063-.125.062a.188.188,0,0,1-.075.025l-.075.026a1.032,1.032,0,0,0,.525.324,2.265,2.265,0,0,0,.8.15h.2a3.149,3.149,0,0,0,.65-.05,3.809,3.809,0,0,0,1.8-1.274,6.916,6.916,0,0,0,1.3-2.4,5.517,5.517,0,0,0,.276-.975c0-.017-.018-.013-.051.012l-.149.113a3.409,3.409,0,0,1-2.051.674,3.473,3.473,0,0,1-2.1-.6,2.79,2.79,0,0,1-1.075-1.724,7.118,7.118,0,0,1-.025-.776,6.544,6.544,0,0,1,.05-.925,22.882,22.882,0,0,1,1.15-3.674,7.163,7.163,0,0,0,.55-2.051,1.328,1.328,0,0,0-.062-.487.284.284,0,0,0-.288-.138h-.125a1.558,1.558,0,0,0-1.1.525,5.255,5.255,0,0,0-1.225,2.4.275.275,0,0,1-.025.087.3.3,0,0,1-.037.075l-.038.037a.121.121,0,0,1-.087.025h-.663c-.1-.1-.15-.175-.15-.224a1.844,1.844,0,0,1,.075-.35,5.963,5.963,0,0,1,1.575-2.726,2.576,2.576,0,0,1,1.775-.8,2.379,2.379,0,0,1,1.675.574,2.069,2.069,0,0,1,.625,1.6,3.378,3.378,0,0,1-.075.525,5.655,5.655,0,0,1-.375,1.076,23.811,23.811,0,0,0-1.225,4.074,5.138,5.138,0,0,0-.025.575,2.855,2.855,0,0,0,.3,1.451,1.175,1.175,0,0,0,1.1.5,2.116,2.116,0,0,0,1.088-.3,3.31,3.31,0,0,0,.775-.587q.263-.286.662-.788,0-.024.125-.512t.363-1.463q.238-.975.462-1.849.951-3.75,1.05-3.926A1.111,1.111,0,0,1,365.613,57.019Z" style="fill: #fff"/>
    <path d="M654.3,358.45a.415.415,0,0,1-.151-.275,4.77,4.77,0,0,1,.776-1.725,4.284,4.284,0,0,1,2.95-2.05,4.114,4.114,0,0,1,.524-.05,3.041,3.041,0,0,1,1.613.45,2.687,2.687,0,0,1,1.062,1.125q.325-.425.4-.525a2.769,2.769,0,0,1,2.125-1.05,2.354,2.354,0,0,1,1.662.588,1.879,1.879,0,0,1,.637,1.437,1.96,1.96,0,0,1-.437,1.3,1.437,1.437,0,0,1-1.162.525,1.106,1.106,0,0,1-.776-.275.936.936,0,0,1-.3-.725,1.59,1.59,0,0,1,1.25-1.575,1,1,0,0,0-.276-.175,1.421,1.421,0,0,0-.724-.15,1.643,1.643,0,0,0-.475.05,2.615,2.615,0,0,0-1.4,1.65q-.075.2-.725,2.788t-.7,2.912a3.816,3.816,0,0,0-.075.75,1.282,1.282,0,0,0,.349.95,1.25,1.25,0,0,0,.926.35,2.578,2.578,0,0,0,1.9-.888,4.6,4.6,0,0,0,1.151-1.962c.05-.167.1-.262.149-.288a1.262,1.262,0,0,1,.4-.037q.474,0,.474.2c0,.017-.016.109-.05.275a5.432,5.432,0,0,1-1.75,2.7,3.939,3.939,0,0,1-2.474.925,2.883,2.883,0,0,1-2.651-1.574,3.5,3.5,0,0,1-1.849,1.5,3.247,3.247,0,0,1-.651.049,2.178,2.178,0,0,1-2.049-1.025,1.931,1.931,0,0,1-.25-1,1.888,1.888,0,0,1,.45-1.274,1.442,1.442,0,0,1,1.149-.526.939.939,0,0,1,1.075,1.05,1.414,1.414,0,0,1-.875,1.351l-.125.062-.125.063a.194.194,0,0,1-.075.024l-.074.025q0,.075.375.225a1.654,1.654,0,0,0,.649.125,1.844,1.844,0,0,0,1.55-1.125,18.8,18.8,0,0,0,.976-3.25q.148-.574.325-1.275t.262-1.075c.058-.25.095-.4.113-.45a6.136,6.136,0,0,0,.125-.975,1.344,1.344,0,0,0-.325-.95,1.171,1.171,0,0,0-.9-.35,2.609,2.609,0,0,0-1.95.863,4.726,4.726,0,0,0-1.149,1.987c-.034.15-.072.237-.113.263a1.214,1.214,0,0,1-.413.037Z" style="fill: #fff"/>
    <path d="M49.9,352.494a4.41,4.41,0,0,1,3.825-2.025,4.613,4.613,0,0,1,3.2,1.25,5.439,5.439,0,0,1,1.15,1.7,14.313,14.313,0,0,1,.925,5.7,13.043,13.043,0,0,1-1.075,5.925,4.337,4.337,0,0,1-2.05,2.1,4.721,4.721,0,0,1-2.125.524,4.4,4.4,0,0,1-4.2-2.625,13.043,13.043,0,0,1-1.075-5.925,19.438,19.438,0,0,1,.313-3.838A8.373,8.373,0,0,1,49.9,352.494Zm5.625-.3a2.3,2.3,0,0,0-1.775-.8,2.382,2.382,0,0,0-1.8.8,3,3,0,0,0-.75,1.4,15.352,15.352,0,0,0-.25,2.85q0,.15-.012.975t-.013,1.375q0,2.4.05,3.351a14.33,14.33,0,0,0,.3,2.511,2.832,2.832,0,0,0,.75,1.313,2.217,2.217,0,0,0,1.725.75,2.19,2.19,0,0,0,1.7-.75,2.849,2.849,0,0,0,.75-1.313,14.33,14.33,0,0,0,.3-2.511q.05-.951.05-3.351,0-.549-.012-1.375t-.013-.975a15.532,15.532,0,0,0-.25-2.85A3,3,0,0,0,55.525,352.194Z" style="fill: #fff"/>
    <path d="M356.15,664.047a4.409,4.409,0,0,1,3.825-2.026,4.613,4.613,0,0,1,3.2,1.25,5.444,5.444,0,0,1,1.15,1.7,14.31,14.31,0,0,1,.925,5.7,13.046,13.046,0,0,1-1.075,5.925,4.335,4.335,0,0,1-2.05,2.1,4.71,4.71,0,0,1-2.125.525,4.4,4.4,0,0,1-4.2-2.625,13.046,13.046,0,0,1-1.075-5.925,19.438,19.438,0,0,1,.313-3.838A8.365,8.365,0,0,1,356.15,664.047Zm5.625-.3a2.307,2.307,0,0,0-1.775-.8,2.383,2.383,0,0,0-1.8.8,3,3,0,0,0-.75,1.4A15.356,15.356,0,0,0,357.2,668q0,.15-.012.975t-.013,1.375q0,2.4.05,3.35a14.345,14.345,0,0,0,.3,2.512,2.829,2.829,0,0,0,.75,1.312,2.217,2.217,0,0,0,1.725.75,2.19,2.19,0,0,0,1.7-.75,2.846,2.846,0,0,0,.75-1.312,14.247,14.247,0,0,0,.3-2.512q.05-.951.05-3.35,0-.55-.013-1.375t-.012-.975a15.536,15.536,0,0,0-.25-2.851A3,3,0,0,0,361.775,663.747Z" style="fill: #fff"/>
    <g>
      <path d="M45.4,313.119q-.426-.075-3.975-.075-3.5,0-3.925.075h-.3v-1.15h.65a14.348,14.348,0,0,0,1.875-.074,1.639,1.639,0,0,0,.6-.3V298.669a.606.606,0,0,0-.2.075,7.363,7.363,0,0,1-2.575.475h-.475v-1.15h.475a6.97,6.97,0,0,0,3.5-.95,3.448,3.448,0,0,0,.775-.575q.049-.075.3-.075a.631.631,0,0,1,.425.15v7.475l.025,7.5a2.419,2.419,0,0,0,1.625.375h1.475v1.15Z" style="fill: #fff"/>
      <path d="M49.9,298.494a4.41,4.41,0,0,1,3.825-2.025,4.613,4.613,0,0,1,3.2,1.25,5.451,5.451,0,0,1,1.15,1.7,14.317,14.317,0,0,1,.925,5.7,13.043,13.043,0,0,1-1.075,5.925,4.337,4.337,0,0,1-2.05,2.1,4.721,4.721,0,0,1-2.125.524,4.4,4.4,0,0,1-4.2-2.625,13.043,13.043,0,0,1-1.075-5.925,19.42,19.42,0,0,1,.313-3.837A8.37,8.37,0,0,1,49.9,298.494Zm5.625-.3a2.3,2.3,0,0,0-1.775-.8,2.382,2.382,0,0,0-1.8.8,3.006,3.006,0,0,0-.75,1.4,15.352,15.352,0,0,0-.25,2.85q0,.15-.012.975t-.013,1.375q0,2.4.05,3.351a14.33,14.33,0,0,0,.3,2.511,2.832,2.832,0,0,0,.75,1.313,2.217,2.217,0,0,0,1.725.75,2.19,2.19,0,0,0,1.7-.75,2.849,2.849,0,0,0,.75-1.313,14.33,14.33,0,0,0,.3-2.511q.05-.951.05-3.351,0-.549-.012-1.375t-.013-.975a15.532,15.532,0,0,0-.25-2.85A3.006,3.006,0,0,0,55.525,298.194Z" style="fill: #fff"/>
    </g>
    <g>
      <path d="M26.95,416.645v-1.827H33.6v1.827Z" style="fill: #fff"/>
      <path d="M45.4,421.119q-.426-.077-3.975-.076-3.5,0-3.925.076h-.3v-1.15h.65a14.539,14.539,0,0,0,1.875-.074,1.656,1.656,0,0,0,.6-.3V406.668a.593.593,0,0,0-.2.076,7.408,7.408,0,0,1-2.575.475h-.475v-1.151h.475a6.97,6.97,0,0,0,3.5-.949,3.481,3.481,0,0,0,.775-.576c.033-.049.133-.074.3-.074a.631.631,0,0,1,.425.15v7.475l.025,7.5a2.419,2.419,0,0,0,1.625.375h1.475v1.15Z" style="fill: #fff"/>
      <path d="M49.9,406.494a4.41,4.41,0,0,1,3.825-2.025,4.608,4.608,0,0,1,3.2,1.25,5.446,5.446,0,0,1,1.15,1.7,14.322,14.322,0,0,1,.925,5.7,13.035,13.035,0,0,1-1.075,5.924,4.339,4.339,0,0,1-2.05,2.1,4.72,4.72,0,0,1-2.125.523,4.4,4.4,0,0,1-4.2-2.625,13.035,13.035,0,0,1-1.075-5.924,19.424,19.424,0,0,1,.313-3.838A8.373,8.373,0,0,1,49.9,406.494Zm5.625-.3a2.3,2.3,0,0,0-1.775-.8,2.381,2.381,0,0,0-1.8.8,3,3,0,0,0-.75,1.4,15.348,15.348,0,0,0-.25,2.849c0,.1,0,.426-.012.975s-.013,1.01-.013,1.375c0,1.6.016,2.717.05,3.352a14.33,14.33,0,0,0,.3,2.511,2.842,2.842,0,0,0,.75,1.313,2.217,2.217,0,0,0,1.725.75,2.19,2.19,0,0,0,1.7-.75,2.859,2.859,0,0,0,.75-1.313,14.33,14.33,0,0,0,.3-2.511c.033-.635.05-1.75.05-3.352q0-.548-.012-1.375c-.009-.549-.013-.875-.013-.975a15.529,15.529,0,0,0-.25-2.849A3,3,0,0,0,55.525,406.193Z" style="fill: #fff"/>
    </g>
    <g>
      <path d="M292.863,674.2v-1.825h6.65V674.2Z" style="fill: #fff"/>
      <path d="M311.312,678.672q-.425-.075-3.975-.075-3.5,0-3.924.075h-.3v-1.151h.65a14.162,14.162,0,0,0,1.875-.074,1.607,1.607,0,0,0,.6-.3V664.222a.6.6,0,0,0-.2.075,7.364,7.364,0,0,1-2.576.474h-.474v-1.149h.474a6.985,6.985,0,0,0,3.5-.95,3.493,3.493,0,0,0,.776-.575c.033-.05.133-.076.3-.076a.624.624,0,0,1,.424.151v7.474l.026,7.5a2.419,2.419,0,0,0,1.625.375h1.474v1.151Z" style="fill: #fff"/>
    </g>
    <path d="M418.149,678.672q-.425-.075-3.974-.075-3.5,0-3.925.075h-.3v-1.151h.65a14.162,14.162,0,0,0,1.875-.074,1.607,1.607,0,0,0,.6-.3V664.222a.6.6,0,0,0-.2.075,7.363,7.363,0,0,1-2.575.474h-.475v-1.149h.475a6.991,6.991,0,0,0,3.5-.95,3.509,3.509,0,0,0,.775-.575c.033-.05.133-.076.3-.076a.628.628,0,0,1,.425.151v7.474l.025,7.5a2.419,2.419,0,0,0,1.625.375h1.475v1.151Z" style="fill: #fff"/>
    <path d="M464.5,667.946a1.4,1.4,0,0,1-1.1-.449,1.6,1.6,0,0,1-.4-1.1,4.1,4.1,0,0,1,1.361-3.086,4.585,4.585,0,0,1,3.264-1.289,5.42,5.42,0,0,1,3.563,1.164,4.878,4.878,0,0,1,1.736,3.037,7.6,7.6,0,0,1,.051.825,4.725,4.725,0,0,1-.875,2.724,16.513,16.513,0,0,1-2.826,2.875q-.9.777-2.5,2.3l-1.475,1.4,1.9.025a30.106,30.106,0,0,0,4.176-.125c.066-.017.149-.191.25-.525a16.008,16.008,0,0,0,.35-1.7v-.074h1v.074l-.7,4.576v.075H463V678.2a1.7,1.7,0,0,1,.049-.575q.025-.025,2.1-2.375,2.726-3.025,3.5-4a7.246,7.246,0,0,0,1.675-4.176,4.369,4.369,0,0,0-.862-2.761,2.877,2.877,0,0,0-2.413-1.114,2.743,2.743,0,0,0-2.35,1.3c-.033.066-.084.158-.15.274a.567.567,0,0,0-.074.151c0,.016.041.024.125.024a1.271,1.271,0,0,1,1.011.45,1.559,1.559,0,0,1,.389,1.05,1.5,1.5,0,0,1-.413,1.063A1.424,1.424,0,0,1,464.5,667.946Z" style="fill: #fff"/>
    <path d="M518.925,667.1a1.368,1.368,0,0,1-1.063-.425,1.572,1.572,0,0,1-.387-1.1,3.016,3.016,0,0,1,1.125-2.386,4.772,4.772,0,0,1,2.6-1.138h.375c.583,0,.949.009,1.1.024a6.088,6.088,0,0,1,1.675.526,3.722,3.722,0,0,1,2.075,2.349,2.444,2.444,0,0,1,.075.676,4.16,4.16,0,0,1-.913,2.637,5.049,5.049,0,0,1-2.287,1.663q-.126.05,0,.075a1.559,1.559,0,0,0,.25.074,5.335,5.335,0,0,1,2.575,1.588,3.83,3.83,0,0,1,1.05,2.638,4.352,4.352,0,0,1-.475,1.974,4.954,4.954,0,0,1-1.963,2.114,5.7,5.7,0,0,1-3.037.837,5.982,5.982,0,0,1-2.926-.7,3.6,3.6,0,0,1-1.724-1.875,2.807,2.807,0,0,1-.25-1.224,1.494,1.494,0,0,1,.463-1.138,1.663,1.663,0,0,1,2.261.013,1.523,1.523,0,0,1,.451,1.125,1.6,1.6,0,0,1-.326,1,1.469,1.469,0,0,1-.875.55l-.174.049a4.7,4.7,0,0,0,3.1,1.125,2.229,2.229,0,0,0,2.074-1.324,5.733,5.733,0,0,0,.426-2.525v-.5a3.2,3.2,0,0,0-1.6-3.175,5.242,5.242,0,0,0-1.525-.176l-1.051-.024-.074-.05a.918.918,0,0,1-.051-.4.588.588,0,0,1,.076-.375.2.2,0,0,1,.125-.076,8.753,8.753,0,0,0,1.45-.125,2.164,2.164,0,0,0,1.675-1.237,5.523,5.523,0,0,0,.575-2.612,2.377,2.377,0,0,0-.875-2.175,2.076,2.076,0,0,0-1.175-.351,3.706,3.706,0,0,0-2.2.675,1.074,1.074,0,0,0-.225.163,1.578,1.578,0,0,0-.2.212l-.075.1c.05.016.108.033.175.05a1.189,1.189,0,0,1,.837.474,1.529,1.529,0,0,1,.337.976,1.377,1.377,0,0,1-.412,1.013A1.441,1.441,0,0,1,518.925,667.1Z" style="fill: #fff"/>
    <path d="M581.3,678.672q-.351-.075-3.225-.075-3,0-3.349.075H574.5v-1.151h.775a5.166,5.166,0,0,0,1.326-.125.447.447,0,0,0,.3-.25q.026-.049.025-1.349v-1.25H570.45V673.4l3.776-5.774q3.823-5.8,3.875-5.825a1.318,1.318,0,0,1,.524-.05h.45l.151.149v11.5h2.3v1.151h-2.3v1.275q0,1.026.011,1.2a.464.464,0,0,0,.138.3,3.171,3.171,0,0,0,1.425.2h.725v1.151Zm-4.225-5.276v-8.349l-5.474,8.325,2.724.024Z" style="fill: #fff"/>
    <path d="M626.425,673.322a1.377,1.377,0,0,1,1.013.412,1.409,1.409,0,0,1,.413,1.037,1.292,1.292,0,0,1-.426.976,1.35,1.35,0,0,1-.949.4H626.3l.075.125a3.247,3.247,0,0,0,1.15,1.326,3.177,3.177,0,0,0,1.826.525,2.655,2.655,0,0,0,2.549-1.5,7.618,7.618,0,0,0,.475-3.2,6.228,6.228,0,0,0-.675-3.476,1.967,1.967,0,0,0-1.6-.824,3.219,3.219,0,0,0-2.951,1.7.488.488,0,0,1-.187.213,1.088,1.088,0,0,1-.362.037c-.285,0-.443-.05-.476-.149q-.05-.1-.05-4.375,0-.75-.013-1.776c-.008-.682-.012-1.116-.012-1.3,0-.934.051-1.4.15-1.4a.145.145,0,0,1,.1-.05l.45.151a8.881,8.881,0,0,0,3.325.649,8.5,8.5,0,0,0,3.4-.7.785.785,0,0,1,.324-.1c.134,0,.2.151.2.451v.325a6.4,6.4,0,0,1-5.125,2.425,5.94,5.94,0,0,1-1.4-.151l-.25-.05v4.3a4.288,4.288,0,0,1,3.949-1.024,4.737,4.737,0,0,1,2.738,1.9,5.755,5.755,0,0,1,1.063,3.45,5.469,5.469,0,0,1-1.588,3.926,5.216,5.216,0,0,1-3.912,1.65,4.165,4.165,0,0,1-2.676-.875,2.76,2.76,0,0,1-.824-.826,4.417,4.417,0,0,1-.951-2.224q0-.075-.012-.237c-.009-.109-.013-.188-.013-.238a1.488,1.488,0,0,1,.4-1.1A1.388,1.388,0,0,1,626.425,673.322Z" style="fill: #fff"/>
    <g>
      <path d="M238.275,674.2v-1.825h6.65V674.2Z" style="fill: #fff"/>
      <path d="M249.075,667.946a1.394,1.394,0,0,1-1.1-.449,1.6,1.6,0,0,1-.4-1.1,4.1,4.1,0,0,1,1.362-3.086,4.582,4.582,0,0,1,3.263-1.289,5.416,5.416,0,0,1,3.562,1.164,4.876,4.876,0,0,1,1.738,3.037,7.586,7.586,0,0,1,.05.825,4.725,4.725,0,0,1-.875,2.724,16.536,16.536,0,0,1-2.825,2.875q-.9.777-2.5,2.3l-1.475,1.4,1.9.025a30.085,30.085,0,0,0,4.175-.125c.066-.017.15-.191.25-.525a16.008,16.008,0,0,0,.35-1.7v-.074h1v.074l-.7,4.576v.075h-9.275V678.2a1.662,1.662,0,0,1,.05-.575q.024-.025,2.1-2.375,2.724-3.025,3.5-4a7.253,7.253,0,0,0,1.675-4.176,4.37,4.37,0,0,0-.863-2.761,2.876,2.876,0,0,0-2.412-1.114,2.743,2.743,0,0,0-2.35,1.3c-.034.066-.084.158-.15.274a.552.552,0,0,0-.075.151c0,.016.041.024.125.024a1.275,1.275,0,0,1,1.012.45,1.563,1.563,0,0,1,.388,1.05,1.492,1.492,0,0,1-.413,1.063A1.422,1.422,0,0,1,249.075,667.946Z" style="fill: #fff"/>
    </g>
    <g>
      <path d="M184.981,674.2v-1.825h6.65V674.2Z" style="fill: #fff"/>
      <path d="M196.206,667.1a1.368,1.368,0,0,1-1.063-.425,1.572,1.572,0,0,1-.387-1.1,3.016,3.016,0,0,1,1.125-2.386,4.772,4.772,0,0,1,2.6-1.138h.375c.583,0,.95.009,1.1.024a6.088,6.088,0,0,1,1.675.526,3.725,3.725,0,0,1,2.075,2.349,2.444,2.444,0,0,1,.075.676,4.154,4.154,0,0,1-.913,2.637,5.049,5.049,0,0,1-2.287,1.663q-.126.05,0,.075a1.559,1.559,0,0,0,.25.074,5.335,5.335,0,0,1,2.575,1.588,3.83,3.83,0,0,1,1.05,2.638,4.365,4.365,0,0,1-.475,1.974,4.96,4.96,0,0,1-1.963,2.114,5.7,5.7,0,0,1-3.037.837,5.975,5.975,0,0,1-2.925-.7,3.593,3.593,0,0,1-1.725-1.875,2.807,2.807,0,0,1-.25-1.224,1.5,1.5,0,0,1,.462-1.138,1.665,1.665,0,0,1,2.263.013,1.526,1.526,0,0,1,.45,1.125,1.6,1.6,0,0,1-.325,1,1.478,1.478,0,0,1-.875.55l-.175.049a4.7,4.7,0,0,0,3.1,1.125,2.232,2.232,0,0,0,2.075-1.324,5.75,5.75,0,0,0,.425-2.525v-.5a3.2,3.2,0,0,0-1.6-3.175,5.242,5.242,0,0,0-1.525-.176l-1.05-.024-.075-.05a.923.923,0,0,1-.05-.4.589.589,0,0,1,.075-.375.206.206,0,0,1,.125-.076,8.753,8.753,0,0,0,1.45-.125,2.164,2.164,0,0,0,1.675-1.237,5.523,5.523,0,0,0,.575-2.612,2.377,2.377,0,0,0-.875-2.175,2.076,2.076,0,0,0-1.175-.351,3.706,3.706,0,0,0-2.2.675,1.074,1.074,0,0,0-.225.163,1.578,1.578,0,0,0-.2.212l-.075.1c.05.016.108.033.175.05a1.189,1.189,0,0,1,.837.474,1.53,1.53,0,0,1,.338.976,1.381,1.381,0,0,1-.413,1.013A1.441,1.441,0,0,1,196.206,667.1Z" style="fill: #fff"/>
    </g>
    <g>
      <path d="M128.967,674.2v-1.825h6.65V674.2Z" style="fill: #fff"/>
      <path d="M148.567,678.672q-.351-.075-3.225-.075-3,0-3.35.075h-.225v-1.151h.775a5.156,5.156,0,0,0,1.325-.125.446.446,0,0,0,.3-.25q.025-.049.025-1.349v-1.25h-6.475V673.4l3.775-5.774q3.825-5.8,3.875-5.825a1.321,1.321,0,0,1,.525-.05h.45l.15.149v11.5h2.3v1.151h-2.3v1.275q0,1.026.012,1.2a.464.464,0,0,0,.138.3,3.168,3.168,0,0,0,1.425.2h.725v1.151Zm-4.225-5.276v-8.349l-5.475,8.325,2.725.024Z" style="fill: #fff"/>
    </g>
    <g>
      <path d="M79.862,674.2v-1.825h6.65V674.2Z" style="fill: #fff"/>
      <path d="M90.587,673.322a1.377,1.377,0,0,1,1.013.412,1.408,1.408,0,0,1,.412,1.037,1.291,1.291,0,0,1-.425.976,1.35,1.35,0,0,1-.95.4h-.175l.075.125a3.24,3.24,0,0,0,1.15,1.326,3.176,3.176,0,0,0,1.825.525,2.656,2.656,0,0,0,2.55-1.5,7.634,7.634,0,0,0,.475-3.2,6.228,6.228,0,0,0-.675-3.476,1.966,1.966,0,0,0-1.6-.824,3.22,3.22,0,0,0-2.95,1.7.488.488,0,0,1-.187.213,1.092,1.092,0,0,1-.363.037c-.283,0-.442-.05-.475-.149q-.051-.1-.05-4.375,0-.75-.012-1.776c-.009-.682-.013-1.116-.013-1.3q0-1.4.15-1.4a.147.147,0,0,1,.1-.05l.45.151a8.884,8.884,0,0,0,3.325.649,8.5,8.5,0,0,0,3.4-.7.793.793,0,0,1,.325-.1c.133,0,.2.151.2.451v.325a6.394,6.394,0,0,1-5.125,2.425,5.96,5.96,0,0,1-1.4-.151l-.25-.05v4.3a4.29,4.29,0,0,1,3.95-1.024,4.737,4.737,0,0,1,2.738,1.9,5.754,5.754,0,0,1,1.062,3.45,5.468,5.468,0,0,1-1.587,3.926,5.217,5.217,0,0,1-3.913,1.65,4.164,4.164,0,0,1-2.675-.875,2.786,2.786,0,0,1-.825-.826,4.416,4.416,0,0,1-.95-2.224q0-.075-.012-.237c-.009-.109-.013-.188-.013-.238a1.484,1.484,0,0,1,.4-1.1A1.386,1.386,0,0,1,90.587,673.322Z" style="fill: #fff"/>
    </g>
    <g>
      <path d="M26.95,470.645v-1.826H33.6v1.826Z" style="fill: #fff"/>
      <path d="M37.75,464.4a1.4,1.4,0,0,1-1.1-.451,1.591,1.591,0,0,1-.4-1.1,4.1,4.1,0,0,1,1.362-3.088,4.582,4.582,0,0,1,3.263-1.287,5.417,5.417,0,0,1,3.563,1.162,4.882,4.882,0,0,1,1.737,3.037,7.615,7.615,0,0,1,.05.825,4.736,4.736,0,0,1-.875,2.726,16.646,16.646,0,0,1-2.825,2.874q-.9.776-2.5,2.3l-1.475,1.4,1.9.025a30.085,30.085,0,0,0,4.175-.125c.066-.016.15-.191.25-.525a16.025,16.025,0,0,0,.35-1.7V470.4h1v.074l-.7,4.575v.075H36.25v-.474a1.7,1.7,0,0,1,.05-.576q.024-.024,2.1-2.375,2.724-3.024,3.5-4a7.244,7.244,0,0,0,1.675-4.174,4.367,4.367,0,0,0-.863-2.763,2.878,2.878,0,0,0-2.412-1.112,2.743,2.743,0,0,0-2.35,1.3c-.033.067-.084.159-.15.276a.554.554,0,0,0-.075.149c0,.017.042.026.125.026a1.267,1.267,0,0,1,1.012.45,1.555,1.555,0,0,1,.388,1.05,1.491,1.491,0,0,1-.413,1.062A1.423,1.423,0,0,1,37.75,464.4Z" style="fill: #fff"/>
      <path d="M49.9,460.494a4.411,4.411,0,0,1,3.825-2.024,4.608,4.608,0,0,1,3.2,1.25,5.446,5.446,0,0,1,1.15,1.7,14.317,14.317,0,0,1,.925,5.7,13.043,13.043,0,0,1-1.075,5.925,4.337,4.337,0,0,1-2.05,2.1,4.721,4.721,0,0,1-2.125.524,4.4,4.4,0,0,1-4.2-2.625,13.043,13.043,0,0,1-1.075-5.925,19.42,19.42,0,0,1,.313-3.837A8.379,8.379,0,0,1,49.9,460.494Zm5.625-.3a2.3,2.3,0,0,0-1.775-.8,2.381,2.381,0,0,0-1.8.8,3,3,0,0,0-.75,1.4,15.348,15.348,0,0,0-.25,2.849q0,.15-.012.975t-.013,1.375q0,2.4.05,3.351a14.33,14.33,0,0,0,.3,2.511,2.832,2.832,0,0,0,.75,1.313,2.217,2.217,0,0,0,1.725.75,2.19,2.19,0,0,0,1.7-.75,2.849,2.849,0,0,0,.75-1.313,14.33,14.33,0,0,0,.3-2.511q.05-.951.05-3.351,0-.549-.012-1.375t-.013-.975a15.529,15.529,0,0,0-.25-2.849A3,3,0,0,0,55.525,460.194Z" style="fill: #fff"/>
    </g>
    <g>
      <path d="M26.95,524.645v-1.826H33.6v1.826Z" style="fill: #fff"/>
      <path d="M38.175,517.544a1.369,1.369,0,0,1-1.063-.425,1.57,1.57,0,0,1-.387-1.1,3.017,3.017,0,0,1,1.125-2.387,4.772,4.772,0,0,1,2.6-1.138h.375c.583,0,.95.009,1.1.025a6.084,6.084,0,0,1,1.675.525,3.723,3.723,0,0,1,2.075,2.35,2.436,2.436,0,0,1,.075.675,4.15,4.15,0,0,1-.913,2.637,5.049,5.049,0,0,1-2.287,1.663c-.084.033-.084.059,0,.075a1.674,1.674,0,0,0,.25.075,5.333,5.333,0,0,1,2.575,1.587,3.832,3.832,0,0,1,1.05,2.638,4.356,4.356,0,0,1-.475,1.975,4.958,4.958,0,0,1-1.963,2.113,5.687,5.687,0,0,1-3.037.837,5.975,5.975,0,0,1-2.925-.7,3.6,3.6,0,0,1-1.725-1.875,2.815,2.815,0,0,1-.25-1.225,1.494,1.494,0,0,1,.463-1.138,1.664,1.664,0,0,1,2.262.013,1.526,1.526,0,0,1,.45,1.125,1.6,1.6,0,0,1-.325,1,1.475,1.475,0,0,1-.875.55l-.175.05a4.7,4.7,0,0,0,3.1,1.125,2.233,2.233,0,0,0,2.075-1.324,5.755,5.755,0,0,0,.425-2.526v-.5a3.2,3.2,0,0,0-1.6-3.175,5.253,5.253,0,0,0-1.525-.175l-1.05-.025-.075-.05a.934.934,0,0,1-.05-.4.593.593,0,0,1,.075-.375.2.2,0,0,1,.125-.075,8.753,8.753,0,0,0,1.45-.125,2.168,2.168,0,0,0,1.675-1.238,5.52,5.52,0,0,0,.575-2.612,2.378,2.378,0,0,0-.875-2.175,2.075,2.075,0,0,0-1.175-.35,3.7,3.7,0,0,0-2.2.675,1.039,1.039,0,0,0-.225.163,1.467,1.467,0,0,0-.2.212l-.075.1c.05.017.108.033.175.05a1.187,1.187,0,0,1,.837.475,1.522,1.522,0,0,1,.338.975,1.376,1.376,0,0,1-.413,1.013A1.441,1.441,0,0,1,38.175,517.544Z" style="fill: #fff"/>
      <path d="M49.9,514.494a4.41,4.41,0,0,1,3.825-2.025,4.613,4.613,0,0,1,3.2,1.25,5.439,5.439,0,0,1,1.15,1.7,14.313,14.313,0,0,1,.925,5.7,13.043,13.043,0,0,1-1.075,5.925,4.337,4.337,0,0,1-2.05,2.1,4.721,4.721,0,0,1-2.125.524,4.4,4.4,0,0,1-4.2-2.625,13.043,13.043,0,0,1-1.075-5.925,19.438,19.438,0,0,1,.313-3.838A8.373,8.373,0,0,1,49.9,514.494Zm5.625-.3a2.3,2.3,0,0,0-1.775-.8,2.382,2.382,0,0,0-1.8.8,3,3,0,0,0-.75,1.4,15.352,15.352,0,0,0-.25,2.85q0,.15-.012.975t-.013,1.375q0,2.4.05,3.351a14.33,14.33,0,0,0,.3,2.511,2.832,2.832,0,0,0,.75,1.313,2.217,2.217,0,0,0,1.725.75,2.19,2.19,0,0,0,1.7-.75,2.849,2.849,0,0,0,.75-1.313,14.33,14.33,0,0,0,.3-2.511q.05-.951.05-3.351,0-.549-.012-1.375t-.013-.975a15.532,15.532,0,0,0-.25-2.85A3,3,0,0,0,55.525,514.194Z" style="fill: #fff"/>
    </g>
    <g>
      <path d="M26.95,578.645v-1.826H33.6v1.826Z" style="fill: #fff"/>
      <path d="M46.55,583.119q-.351-.075-3.225-.075-3,0-3.35.075H39.75v-1.15h.775a5.255,5.255,0,0,0,1.325-.125.446.446,0,0,0,.3-.25q.026-.05.025-1.35v-1.25H35.7v-1.15l3.775-5.775q3.825-5.8,3.875-5.825a1.321,1.321,0,0,1,.525-.05h.45l.15.151v11.5h2.3v1.15h-2.3v1.276q0,1.024.012,1.2a.466.466,0,0,0,.138.3,3.183,3.183,0,0,0,1.425.2h.725v1.15Zm-4.225-5.275v-8.35l-5.475,8.325,2.725.025Z" style="fill: #fff"/>
      <path d="M49.9,568.494a4.411,4.411,0,0,1,3.825-2.024,4.608,4.608,0,0,1,3.2,1.25,5.446,5.446,0,0,1,1.15,1.7,14.317,14.317,0,0,1,.925,5.7,13.043,13.043,0,0,1-1.075,5.925,4.337,4.337,0,0,1-2.05,2.1,4.721,4.721,0,0,1-2.125.524,4.4,4.4,0,0,1-4.2-2.625,13.043,13.043,0,0,1-1.075-5.925,19.42,19.42,0,0,1,.313-3.837A8.379,8.379,0,0,1,49.9,568.494Zm5.625-.3a2.3,2.3,0,0,0-1.775-.8,2.381,2.381,0,0,0-1.8.8,3,3,0,0,0-.75,1.4,15.348,15.348,0,0,0-.25,2.849q0,.15-.012.975t-.013,1.375q0,2.4.05,3.351a14.33,14.33,0,0,0,.3,2.511,2.832,2.832,0,0,0,.75,1.313,2.217,2.217,0,0,0,1.725.75,2.19,2.19,0,0,0,1.7-.75,2.849,2.849,0,0,0,.75-1.313,14.33,14.33,0,0,0,.3-2.511q.05-.951.05-3.351,0-.549-.012-1.375t-.013-.975a15.529,15.529,0,0,0-.25-2.849A3,3,0,0,0,55.525,568.194Z" style="fill: #fff"/>
    </g>
    <g>
      <path d="M26.95,632.645v-1.826H33.6v1.826Z" style="fill: #fff"/>
      <path d="M37.675,631.77a1.373,1.373,0,0,1,1.013.412,1.41,1.41,0,0,1,.412,1.037,1.287,1.287,0,0,1-.425.975,1.352,1.352,0,0,1-.95.4H37.55l.075.125a3.244,3.244,0,0,0,1.15,1.325,3.169,3.169,0,0,0,1.825.525,2.656,2.656,0,0,0,2.55-1.5,7.631,7.631,0,0,0,.475-3.2,6.222,6.222,0,0,0-.675-3.475,1.968,1.968,0,0,0-1.6-.825,3.22,3.22,0,0,0-2.95,1.7.479.479,0,0,1-.188.212,1.072,1.072,0,0,1-.362.038q-.426,0-.475-.15-.051-.1-.05-4.375,0-.75-.013-1.775t-.012-1.3q0-1.4.15-1.4a.141.141,0,0,1,.1-.05l.45.15a8.862,8.862,0,0,0,3.325.65,8.5,8.5,0,0,0,3.4-.7.784.784,0,0,1,.325-.1q.2,0,.2.45v.325a6.4,6.4,0,0,1-5.125,2.425,6.01,6.01,0,0,1-1.4-.15l-.25-.05v4.3a4.288,4.288,0,0,1,3.95-1.025,4.734,4.734,0,0,1,2.738,1.9,5.75,5.75,0,0,1,1.062,3.45,5.471,5.471,0,0,1-1.587,3.926,5.22,5.22,0,0,1-3.913,1.649,4.164,4.164,0,0,1-2.675-.875,2.771,2.771,0,0,1-.825-.825,4.424,4.424,0,0,1-.95-2.225q0-.075-.012-.237c-.009-.109-.013-.188-.013-.237a1.488,1.488,0,0,1,.4-1.1A1.386,1.386,0,0,1,37.675,631.77Z" style="fill: #fff"/>
      <path d="M49.9,622.494a4.41,4.41,0,0,1,3.825-2.025,4.613,4.613,0,0,1,3.2,1.25,5.439,5.439,0,0,1,1.15,1.7,14.313,14.313,0,0,1,.925,5.7,13.043,13.043,0,0,1-1.075,5.925,4.337,4.337,0,0,1-2.05,2.1,4.721,4.721,0,0,1-2.125.524,4.4,4.4,0,0,1-4.2-2.625,13.043,13.043,0,0,1-1.075-5.925,19.438,19.438,0,0,1,.313-3.838A8.373,8.373,0,0,1,49.9,622.494Zm5.625-.3a2.3,2.3,0,0,0-1.775-.8,2.382,2.382,0,0,0-1.8.8,3,3,0,0,0-.75,1.4,15.352,15.352,0,0,0-.25,2.85q0,.15-.012.975t-.013,1.375q0,2.4.05,3.351a14.33,14.33,0,0,0,.3,2.511,2.832,2.832,0,0,0,.75,1.313,2.217,2.217,0,0,0,1.725.75,2.19,2.19,0,0,0,1.7-.75,2.849,2.849,0,0,0,.75-1.313,14.33,14.33,0,0,0,.3-2.511q.05-.951.05-3.351,0-.549-.012-1.375t-.013-.975a15.532,15.532,0,0,0-.25-2.85A3,3,0,0,0,55.525,622.194Z" style="fill: #fff"/>
    </g>
    <g>
      <path d="M37.75,248.394a1.4,1.4,0,0,1-1.1-.45,1.594,1.594,0,0,1-.4-1.1,4.1,4.1,0,0,1,1.362-3.087,4.583,4.583,0,0,1,3.263-1.288,5.418,5.418,0,0,1,3.563,1.163,4.882,4.882,0,0,1,1.737,3.037,7.6,7.6,0,0,1,.05.825,4.731,4.731,0,0,1-.875,2.725,16.607,16.607,0,0,1-2.825,2.875q-.9.775-2.5,2.3l-1.475,1.4,1.9.025a30.085,30.085,0,0,0,4.175-.125c.066-.016.15-.191.25-.525a16.025,16.025,0,0,0,.35-1.7V254.4h1v.074l-.7,4.575v.075H36.25v-.474a1.7,1.7,0,0,1,.05-.576q.024-.024,2.1-2.375,2.724-3.024,3.5-4a7.244,7.244,0,0,0,1.675-4.175,4.367,4.367,0,0,0-.863-2.762,2.876,2.876,0,0,0-2.412-1.113,2.744,2.744,0,0,0-2.35,1.3c-.033.067-.084.159-.15.275a.568.568,0,0,0-.075.15c0,.017.042.025.125.025a1.27,1.27,0,0,1,1.012.45,1.557,1.557,0,0,1,.388,1.05,1.494,1.494,0,0,1-.413,1.063A1.422,1.422,0,0,1,37.75,248.394Z" style="fill: #fff"/>
      <path d="M49.9,244.494a4.41,4.41,0,0,1,3.825-2.025,4.613,4.613,0,0,1,3.2,1.25,5.451,5.451,0,0,1,1.15,1.7,14.317,14.317,0,0,1,.925,5.7,13.043,13.043,0,0,1-1.075,5.925,4.337,4.337,0,0,1-2.05,2.1,4.721,4.721,0,0,1-2.125.524,4.4,4.4,0,0,1-4.2-2.625,13.043,13.043,0,0,1-1.075-5.925,19.42,19.42,0,0,1,.313-3.837A8.37,8.37,0,0,1,49.9,244.494Zm5.625-.3a2.3,2.3,0,0,0-1.775-.8,2.382,2.382,0,0,0-1.8.8,3.006,3.006,0,0,0-.75,1.4,15.352,15.352,0,0,0-.25,2.85q0,.15-.012.975t-.013,1.375q0,2.4.05,3.351a14.33,14.33,0,0,0,.3,2.511,2.832,2.832,0,0,0,.75,1.313,2.217,2.217,0,0,0,1.725.75,2.19,2.19,0,0,0,1.7-.75,2.849,2.849,0,0,0,.75-1.313,14.33,14.33,0,0,0,.3-2.511q.05-.951.05-3.351,0-.549-.012-1.375t-.013-.975a15.532,15.532,0,0,0-.25-2.85A3.006,3.006,0,0,0,55.525,244.194Z" style="fill: #fff"/>
    </g>
    <g>
      <path d="M38.175,193.543a1.368,1.368,0,0,1-1.063-.424,1.572,1.572,0,0,1-.387-1.1,3.02,3.02,0,0,1,1.125-2.388,4.778,4.778,0,0,1,2.6-1.137h.375q.874,0,1.1.025a6.081,6.081,0,0,1,1.675.524,3.725,3.725,0,0,1,2.075,2.351,2.436,2.436,0,0,1,.075.675,4.154,4.154,0,0,1-.913,2.637,5.049,5.049,0,0,1-2.287,1.663q-.126.049,0,.075a1.812,1.812,0,0,0,.25.075,5.326,5.326,0,0,1,2.575,1.587,3.828,3.828,0,0,1,1.05,2.638,4.355,4.355,0,0,1-.475,1.974,4.954,4.954,0,0,1-1.963,2.114,5.7,5.7,0,0,1-3.037.836,5.975,5.975,0,0,1-2.925-.7,3.6,3.6,0,0,1-1.725-1.875,2.81,2.81,0,0,1-.25-1.224,1.494,1.494,0,0,1,.463-1.138,1.661,1.661,0,0,1,2.262.013,1.523,1.523,0,0,1,.45,1.125,1.605,1.605,0,0,1-.325,1,1.474,1.474,0,0,1-.875.549l-.175.05a4.7,4.7,0,0,0,3.1,1.125,2.232,2.232,0,0,0,2.075-1.324,5.753,5.753,0,0,0,.425-2.525v-.5a3.2,3.2,0,0,0-1.6-3.175,5.253,5.253,0,0,0-1.525-.175l-1.05-.025-.075-.05a.939.939,0,0,1-.05-.4.6.6,0,0,1,.075-.375.205.205,0,0,1,.125-.074,8.862,8.862,0,0,0,1.45-.125,2.168,2.168,0,0,0,1.675-1.238,5.526,5.526,0,0,0,.575-2.612,2.378,2.378,0,0,0-.875-2.175,2.067,2.067,0,0,0-1.175-.35,3.7,3.7,0,0,0-2.2.675,1.03,1.03,0,0,0-.225.162,1.469,1.469,0,0,0-.2.213l-.075.1c.05.016.108.033.175.049a1.192,1.192,0,0,1,.837.476,1.518,1.518,0,0,1,.338.975,1.372,1.372,0,0,1-.413,1.012A1.437,1.437,0,0,1,38.175,193.543Z" style="fill: #fff"/>
      <path d="M49.9,190.494a4.41,4.41,0,0,1,3.825-2.025,4.608,4.608,0,0,1,3.2,1.25,5.446,5.446,0,0,1,1.15,1.7,14.319,14.319,0,0,1,.925,5.7,13.038,13.038,0,0,1-1.075,5.924,4.337,4.337,0,0,1-2.05,2.1,4.708,4.708,0,0,1-2.125.524,4.4,4.4,0,0,1-4.2-2.625,13.038,13.038,0,0,1-1.075-5.924,19.438,19.438,0,0,1,.313-3.838A8.373,8.373,0,0,1,49.9,190.494Zm5.625-.3a2.3,2.3,0,0,0-1.775-.8,2.382,2.382,0,0,0-1.8.8,3,3,0,0,0-.75,1.4,15.352,15.352,0,0,0-.25,2.85c0,.1,0,.425-.012.974s-.013,1.009-.013,1.375q0,2.4.05,3.351a14.345,14.345,0,0,0,.3,2.512,2.829,2.829,0,0,0,.75,1.312,2.217,2.217,0,0,0,1.725.75,2.19,2.19,0,0,0,1.7-.75,2.846,2.846,0,0,0,.75-1.312,14.345,14.345,0,0,0,.3-2.512q.05-.951.05-3.351,0-.549-.012-1.375c-.009-.549-.013-.875-.013-.974a15.532,15.532,0,0,0-.25-2.85A3,3,0,0,0,55.525,190.194Z" style="fill: #fff"/>
    </g>
    <g>
      <path d="M46.55,151.119q-.351-.075-3.225-.076-3,0-3.35.076H39.75v-1.151h.775a5.156,5.156,0,0,0,1.325-.125.446.446,0,0,0,.3-.25q.026-.049.025-1.349v-1.25H35.7v-1.151l3.775-5.774q3.825-5.8,3.875-5.825a1.3,1.3,0,0,1,.525-.05h.45l.15.15v11.5h2.3v1.151h-2.3v1.275q0,1.026.012,1.2a.466.466,0,0,0,.138.3,3.168,3.168,0,0,0,1.425.2h.725v1.151Zm-4.225-5.276v-8.349l-5.475,8.325,2.725.024Z" style="fill: #fff"/>
      <path d="M49.9,136.494a4.41,4.41,0,0,1,3.825-2.025,4.608,4.608,0,0,1,3.2,1.25,5.446,5.446,0,0,1,1.15,1.7,14.319,14.319,0,0,1,.925,5.7,13.038,13.038,0,0,1-1.075,5.924,4.337,4.337,0,0,1-2.05,2.1,4.708,4.708,0,0,1-2.125.524,4.4,4.4,0,0,1-4.2-2.625,13.038,13.038,0,0,1-1.075-5.924,19.438,19.438,0,0,1,.313-3.838A8.373,8.373,0,0,1,49.9,136.494Zm5.625-.3a2.3,2.3,0,0,0-1.775-.8,2.382,2.382,0,0,0-1.8.8,3,3,0,0,0-.75,1.4,15.352,15.352,0,0,0-.25,2.85c0,.1,0,.425-.012.974s-.013,1.009-.013,1.375q0,2.4.05,3.351a14.345,14.345,0,0,0,.3,2.512,2.829,2.829,0,0,0,.75,1.312,2.217,2.217,0,0,0,1.725.75,2.19,2.19,0,0,0,1.7-.75,2.846,2.846,0,0,0,.75-1.312,14.345,14.345,0,0,0,.3-2.512q.05-.951.05-3.351,0-.549-.012-1.375c-.009-.549-.013-.875-.013-.974a15.532,15.532,0,0,0-.25-2.85A3,3,0,0,0,55.525,136.194Z" style="fill: #fff"/>
    </g>
    <g>
      <path d="M37.675,91.769a1.377,1.377,0,0,1,1.013.412,1.412,1.412,0,0,1,.412,1.037,1.291,1.291,0,0,1-.425.976,1.355,1.355,0,0,1-.95.4H37.55l.075.125a3.237,3.237,0,0,0,1.15,1.325,3.169,3.169,0,0,0,1.825.526,2.656,2.656,0,0,0,2.55-1.5,7.634,7.634,0,0,0,.475-3.2,6.222,6.222,0,0,0-.675-3.475,1.968,1.968,0,0,0-1.6-.825,3.218,3.218,0,0,0-2.95,1.7.484.484,0,0,1-.188.212,1.1,1.1,0,0,1-.362.038q-.426,0-.475-.15-.051-.1-.05-4.375,0-.75-.013-1.775t-.012-1.3q0-1.4.15-1.4a.141.141,0,0,1,.1-.05l.45.15a8.882,8.882,0,0,0,3.325.65,8.5,8.5,0,0,0,3.4-.7.77.77,0,0,1,.325-.1q.2,0,.2.449v.326a6.394,6.394,0,0,1-5.125,2.424,6.013,6.013,0,0,1-1.4-.149l-.25-.05v4.3a4.622,4.622,0,0,1,2.925-1.15,4.669,4.669,0,0,1,1.025.125,4.734,4.734,0,0,1,2.738,1.9,5.747,5.747,0,0,1,1.062,3.449,5.47,5.47,0,0,1-1.587,3.926,5.216,5.216,0,0,1-3.913,1.649,4.164,4.164,0,0,1-2.675-.875,2.759,2.759,0,0,1-.825-.825,4.42,4.42,0,0,1-.95-2.224c0-.05,0-.129-.012-.238s-.013-.187-.013-.237a1.488,1.488,0,0,1,.4-1.1A1.39,1.39,0,0,1,37.675,91.769Z" style="fill: #fff"/>
      <path d="M49.9,82.494a4.41,4.41,0,0,1,3.825-2.025,4.608,4.608,0,0,1,3.2,1.25,5.446,5.446,0,0,1,1.15,1.7,14.319,14.319,0,0,1,.925,5.7,13.038,13.038,0,0,1-1.075,5.924,4.337,4.337,0,0,1-2.05,2.1,4.708,4.708,0,0,1-2.125.524,4.4,4.4,0,0,1-4.2-2.625,13.038,13.038,0,0,1-1.075-5.924,19.438,19.438,0,0,1,.313-3.838A8.373,8.373,0,0,1,49.9,82.494Zm5.625-.3a2.3,2.3,0,0,0-1.775-.8,2.382,2.382,0,0,0-1.8.8,3,3,0,0,0-.75,1.4,15.352,15.352,0,0,0-.25,2.85c0,.1,0,.425-.012.974s-.013,1.009-.013,1.375q0,2.4.05,3.351a14.345,14.345,0,0,0,.3,2.512,2.829,2.829,0,0,0,.75,1.312,2.217,2.217,0,0,0,1.725.75,2.19,2.19,0,0,0,1.7-.75,2.846,2.846,0,0,0,.75-1.312,14.345,14.345,0,0,0,.3-2.512q.05-.951.05-3.351,0-.549-.012-1.375c-.009-.549-.013-.875-.013-.974a15.532,15.532,0,0,0-.25-2.85A3,3,0,0,0,55.525,82.194Z" style="fill: #fff"/>
    </g>
    <g>
      <line x1="360" y1="620.947" x2="360" y2="99.053" style="fill: none;stroke: #fff;stroke-width: 1.5px"/>
      <path d="M360,630c1.581-4.26,4.277-9.545,7.134-12.821L360,619.759l-7.132-2.58C355.724,620.455,358.421,625.74,360,630Z" style="fill: #fff"/>
      <path d="M360,90c1.581,4.26,4.277,9.545,7.134,12.821L360,100.241l-7.132,2.58C355.724,99.545,358.421,94.26,360,90Z" style="fill: #fff"/>
    </g>
  </g>
</svg>
