<svg width="240" height="135" viewBox="0 0 240 135" fill="none" xmlns="http://www.w3.org/2000/svg">
<rect width="240" height="135" fill="black"/>
<path d="M120.773 40.6027V123.211" stroke="#F0F0F0"/>
<path d="M146.912 86.467L71.7678 43.8903" stroke="#F0F0F0"/>
<path d="M173.854 43.1476L93.9502 86.0443" stroke="#F0F0F0"/>
<path d="M120.762 106.765C140.155 106.765 155.877 91.0438 155.877 71.6507C155.877 52.2575 140.155 36.5363 120.762 36.5363C101.369 36.5363 85.6477 52.2575 85.6477 71.6507C85.6477 91.0438 101.369 106.765 120.762 106.765Z" fill="#505050" fill-opacity="0.66"/>
<path d="M120.782 40.6212L121.918 41.1882L123.06 41.8202L124.204 42.5192L125.348 43.2822L126.49 44.1092L127.625 44.9972L128.753 45.9462L129.869 46.9542L130.971 48.0172L132.056 49.1352L133.121 50.3042L134.164 51.5222L135.182 52.7862L136.172 54.0932L137.131 55.4412L138.057 56.8242L138.948 58.2412L139.801 59.6882L140.614 61.1612L141.385 62.6552L142.112 64.1682L142.793 65.6962L143.427 67.2342L144.011 68.7792L144.546 70.3272L145.029 71.8732L145.459 73.4152L145.836 74.9472L146.159 76.4672L146.427 77.9702L146.641 79.4542L146.799 80.9142L146.903 82.3472L146.952 83.7502L146.947 85.1202L146.888 86.4532L146.776 87.7482L146.611 89.0012L146.395 90.2102L146.128 91.3722L145.813 92.4862L145.449 93.5502L145.038 94.5612L144.583 95.5182L144.083 96.4202L143.542 97.2652L142.96 98.0522L142.34 98.7812L141.683 99.4512L140.991 100.06L140.266 100.609L139.51 101.098L138.725 101.525L137.912 101.892" stroke="#769CE5" stroke-opacity="0.75"/>
<path d="M120.782 40.6212L122.346 40.8552L123.91 41.1532L125.471 41.5142L127.025 41.9372L128.569 42.4232L130.098 42.9682L131.61 43.5742L133.101 44.2372L134.566 44.9572L136.003 45.7322L137.408 46.5602L138.779 47.4392L140.111 48.3672L141.401 49.3422L142.648 50.3612L143.847 51.4212L144.996 52.5212L146.093 53.6582L147.136 54.8282L148.122 56.0292L149.048 57.2582L149.915 58.5122L150.719 59.7872L151.459 61.0822L152.134 62.3932L152.742 63.7172L153.284 65.0502L153.758 66.3902L154.163 67.7342L154.5 69.0792L154.768 70.4212L154.967 71.7592L155.097 73.0892L155.159 74.4082L155.153 75.7142L155.079 77.0042L154.939 78.2752L154.733 79.5262L154.463 80.7532L154.129 81.9552L153.732 83.1302L153.275 84.2752L152.759 85.3882L152.185 86.4672" stroke="#769CE5" stroke-opacity="0.75"/>
<path d="M120.782 40.6212L122.353 40.4712L123.916 40.3842L125.468 40.3612L127.006 40.4022L128.526 40.5062L130.024 40.6722L131.498 40.9012L132.944 41.1912L134.359 41.5402L135.741 41.9492L137.086 42.4152L138.391 42.9372L139.655 43.5142L140.875 44.1432L142.048 44.8242L143.172 45.5542L144.246 46.3312L145.267 47.1532L146.234 48.0182L147.146 48.9242L148 49.8692L148.797 50.8502L149.534 51.8652L150.211 52.9122L150.827 53.9882L151.382 55.0912L151.875 56.2182" stroke="#769CE5" stroke-opacity="0.75"/>
<path d="M120.782 40.6213L121.94 40.1363L123.088 39.7183L124.222 39.3683L125.342 39.0863L126.443 38.8713L127.524 38.7233L128.583 38.6423L129.618 38.6283L130.627 38.6783L131.609 38.7933L132.56 38.9713L133.48 39.2123L134.368 39.5133L135.222 39.8733L136.04 40.2923L136.822 40.7673L137.567 41.2973" stroke="#769CE5" stroke-opacity="0.75"/>
<path d="M120.782 40.6213L121.22 39.9413L121.653 39.3313L122.08 38.7933L122.501 38.3253L122.913 37.9293L123.317 37.6043L123.712 37.3493L124.096 37.1653L124.471 37.0493L124.834 37.0033L125.185 37.0233L125.524 37.1103L125.85 37.2623" stroke="#769CE5" stroke-opacity="0.75"/>
<path d="M120.782 40.6214L120.384 39.9364L119.991 39.3214L119.604 38.7784L119.222 38.3054L118.848 37.9054L118.481 37.5754L118.123 37.3164L117.773 37.1274L117.433 37.0074L117.104 36.9564L116.784 36.9734L116.476 37.0564L116.179 37.2044" stroke="#769CE5" stroke-opacity="0.75"/>
<path d="M120.782 40.6213L119.654 40.1223L118.536 39.6913L117.431 39.3273L116.341 39.0313L115.269 38.8033L114.216 38.6433L113.185 38.5493L112.177 38.5223L111.195 38.5603L110.241 38.6633L109.315 38.8303L108.42 39.0593L107.556 39.3493L106.725 39.6993L105.929 40.1073L105.169 40.5723L104.444 41.0923" stroke="#769CE5" stroke-opacity="0.75"/>
<path d="M120.782 40.6213L119.223 40.4513L117.671 40.3453L116.13 40.3033L114.605 40.3253L113.097 40.4113L111.611 40.5593L110.15 40.7693L108.716 41.0413L107.313 41.3723L105.945 41.7633L104.612 42.2123L103.319 42.7173L102.068 43.2773L100.86 43.8903L99.6991 44.5543L98.5861 45.2683L97.5231 46.0303L96.5121 46.8373L95.5551 47.6883L94.6531 48.5803L93.8071 49.5113L93.0191 50.4793L92.2901 51.4813L91.6201 52.5163L91.0101 53.5813L90.4611 54.6733L89.9731 55.7913" stroke="#769CE5" stroke-opacity="0.75"/>
<path d="M120.782 40.6212L119.208 40.8362L117.633 41.1142L116.062 41.4562L114.498 41.8592L112.946 42.3252L111.408 42.8512L109.888 43.4372L108.39 44.0802L106.917 44.7812L105.473 45.5362L104.061 46.3452L102.685 47.2052L101.348 48.1142L100.052 49.0702L98.8012 50.0702L97.5982 51.1122L96.4442 52.1942L95.3432 53.3132L94.2972 54.4662L93.3092 55.6512L92.3792 56.8632L91.5102 58.1022L90.7032 59.3632L89.9612 60.6432L89.2842 61.9402L88.6732 63.2512L88.1292 64.5722L87.6532 65.9012L87.2462 67.2352L86.9072 68.5702L86.6382 69.9042L86.4372 71.2342L86.3052 72.5582L86.2412 73.8712L86.2462 75.1732L86.3182 76.4602L86.4562 77.7292L86.6612 78.9792L86.9302 80.2072L87.2622 81.4112L87.6572 82.5882L88.1132 83.7362L88.6282 84.8552L89.2012 85.9412" stroke="#769CE5" stroke-opacity="0.75"/>
<path d="M120.782 40.6212L119.616 41.1732L118.445 41.7922L117.271 42.4762L116.097 43.2242L114.926 44.0362L113.762 44.9092L112.606 45.8432L111.461 46.8342L110.332 47.8832L109.219 48.9852L108.128 50.1382L107.059 51.3412L106.016 52.5892L105.002 53.8812L104.019 55.2132L103.071 56.5822L102.158 57.9842L101.284 59.4152L100.452 60.8732L99.6622 62.3542L98.9172 63.8532L98.2202 65.3682L97.5712 66.8932L96.9722 68.4262L96.4242 69.9612L95.9292 71.4972L95.4882 73.0282L95.1012 74.5512L94.7702 76.0622L94.4942 77.5572L94.2742 79.0332L94.1102 80.4872L94.0022 81.9152L93.9502 83.3142L93.9532 84.6802L94.0122 86.0112L94.1252 87.3042L94.2912 88.5572L94.5102 89.7672L94.7812 90.9312L95.1022 92.0472L95.4722 93.1152L95.8902 94.1302L96.3542 95.0932L96.8622 96.0022L97.4142 96.8552L98.0072 97.6512L98.6392 98.3902L99.3092 99.0702L100.016 99.6902L100.756 100.252L101.528 100.753L102.33 101.194L103.16 101.575" stroke="#769CE5" stroke-opacity="0.75"/>
<path d="M120.782 40.6212L120.34 41.3722L119.894 42.1922L119.446 43.0802L118.998 44.0352L118.549 45.0562L118.101 46.1412L117.655 47.2882L117.213 48.4952L116.775 49.7592L116.343 51.0782L115.917 52.4492L115.5 53.8682L115.092 55.3332L114.694 56.8402L114.307 58.3842L113.933 59.9642L113.572 61.5732L113.226 63.2092L112.896 64.8672L112.582 66.5422L112.285 68.2302L112.007 69.9272L111.747 71.6272L111.507 73.3272L111.288 75.0222L111.089 76.7072L110.911 78.3772L110.756 80.0292L110.622 81.6582L110.51 83.2602L110.421 84.8302L110.355 86.3652L110.311 87.8612L110.289 89.3152L110.29 90.7222L110.313 92.0812L110.358 93.3872L110.424 94.6392L110.512 95.8332L110.62 96.9672L110.749 98.0402L110.897 99.0492L111.064 99.9932L111.249 100.87L111.452 101.68L111.672 102.421L111.909 103.092L112.16 103.694L112.427 104.226L112.707 104.688L113 105.079L113.306 105.401L113.623 105.653L113.95 105.836L114.287 105.951L114.633 105.999L114.987 105.981L115.349 105.897" stroke="#769CE5" stroke-opacity="0.75"/>
<path d="M120.782 40.6212L121.183 41.3772L121.588 42.2022L121.994 43.0962L122.401 44.0572L122.808 45.0842L123.214 46.1742L123.618 47.3272L124.019 48.5402L124.416 49.8102L124.808 51.1342L125.193 52.5112L125.572 53.9372L125.941 55.4072L126.302 56.9202L126.652 58.4712L126.991 60.0562L127.317 61.6722L127.63 63.3142L127.929 64.9772L128.213 66.6582L128.481 68.3512L128.732 70.0532L128.967 71.7592L129.183 73.4642L129.381 75.1632L129.56 76.8532L129.72 78.5272L129.86 80.1832L129.979 81.8162L130.079 83.4212L130.158 84.9942L130.217 86.5312L130.255 88.0302L130.273 89.4852L130.27 90.8942L130.248 92.2532L130.205 93.5602L130.143 94.8122L130.062 96.0052L129.962 97.1392L129.844 98.2102L129.707 99.2182L129.554 100.16L129.384 101.035L129.198 101.841L128.997 102.579L128.781 103.247L128.551 103.845L128.307 104.373L128.052 104.83L127.784 105.216L127.505 105.533L127.216 105.779L126.918 105.957L126.611 106.066L126.296 106.108L125.974 106.083L125.645 105.993" stroke="#769CE5" stroke-opacity="0.75"/>
<path d="M127.625 44.9974L128.198 44.7044L128.71 44.3904L129.16 44.0564L129.542 43.7064L129.856 43.3424L130.098 42.9684L130.268 42.5874L130.365 42.2014L130.388 41.8144L130.339 41.4284L130.217 41.0464L130.024 40.6724L129.763 40.3084L129.435 39.9564L129.044 39.6204L128.593 39.3014L128.085 39.0014L127.524 38.7234L126.916 38.4694L126.263 38.2404L125.572 38.0384L124.847 37.8644L124.094 37.7194L123.317 37.6044L122.523 37.5204L121.716 37.4674L120.903 37.4474L120.089 37.4584L119.28 37.5004L118.481 37.5754L117.699 37.6804L116.938 37.8164L116.204 37.9814L115.502 38.1754L114.838 38.3964L114.216 38.6434L113.641 38.9134L113.117 39.2064L112.648 39.5194L112.239 39.8514L111.892 40.1984L111.611 40.5594L111.398 40.9304L111.255 41.3104L111.183 41.6944L111.185 42.0814L111.259 42.4684L111.408 42.8514L111.629 43.2284L111.921 43.5954L112.283 43.9494L112.713 44.2884L113.207 44.6094L113.762 44.9094L114.373 45.1864L115.037 45.4364L115.747 45.6594L116.498 45.8524L117.285 46.0134L118.101 46.1414L118.938 46.2354L119.791 46.2944L120.653 46.3184L121.515 46.3054L122.371 46.2584L123.214 46.1744L124.037 46.0574L124.833 45.9054L125.596 45.7224L126.32 45.5094L126.998 45.2664L127.625 44.9974Z" stroke="#769CE5" stroke-opacity="0.75"/>
<path d="M134.164 51.5223L135.258 50.9263L136.229 50.2893L137.072 49.6153L137.78 48.9113L138.35 48.1843L138.779 47.4393L139.065 46.6833L139.209 45.9213L139.211 45.1603L139.073 44.4053L138.799 43.6623L138.391 42.9373L137.856 42.2343L137.199 41.5593L136.425 40.9143L135.543 40.3063L134.559 39.7373L133.48 39.2123L132.317 38.7323L131.076 38.3013L129.767 37.9213L128.399 37.5953L126.982 37.3243L125.524 37.1103L124.036 36.9533L122.527 36.8563L121.006 36.8173L119.485 36.8373L117.971 36.9173L116.476 37.0563L115.009 37.2523L113.578 37.5063L112.195 37.8153L110.868 38.1793L109.607 38.5943L108.42 39.0593L107.315 39.5713L106.303 40.1263L105.39 40.7233L104.583 41.3563L103.891 42.0223L103.319 42.7173L102.873 43.4363L102.559 44.1733L102.38 44.9253L102.34 45.6843L102.442 46.4463L102.685 47.2053L103.072 47.9543L103.599 48.6873L104.266 49.3993L105.069 50.0823L106.002 50.7313L107.059 51.3413L108.233 51.9053L109.514 52.4173L110.894 52.8743L112.359 53.2713L113.899 53.6033L115.5 53.8683L117.148 54.0623L118.828 54.1853L120.525 54.2333L122.225 54.2083L123.912 54.1083L125.572 53.9373L127.188 53.6943L128.748 53.3823L130.237 53.0053L131.644 52.5663L132.957 52.0713L134.164 51.5223Z" stroke="#769CE5" stroke-opacity="0.75"/>
<path d="M139.783 42.6184L141.17 43.4194L142.422 44.2784L143.529 45.1904L144.481 46.1504L145.267 47.1534L145.879 48.1914L146.31 49.2584L146.551 50.3464L146.598 51.4474L146.447 52.5544L146.093 53.6584L145.537 54.7494L144.779 55.8184L143.82 56.8564L142.667 57.8534L141.324 58.8004L139.801 59.6884L138.109 60.5084L136.261 61.2514L134.271 61.9104L132.157 62.4774L129.936 62.9474L127.63 63.3144L125.259 63.5744L122.845 63.7234L120.412 63.7624L117.983 63.6884L115.58 63.5034L113.226 63.2094L110.944 62.8094L108.754 62.3084L106.676 61.7114L104.728 61.0254L102.926 60.2574L101.284 59.4154L99.8152 58.5084L98.5292 57.5444L97.4342 56.5344L96.5362 55.4854L95.8382 54.4094L95.3432 53.3134L95.0512 52.2084L94.9592 51.1024L95.0652 50.0054L95.3632 48.9234L95.8482 47.8644L96.5122 46.8374L97.3482 45.8484L98.3462 44.9024L99.4972 44.0064L100.789 43.1654L102.213 42.3834" stroke="#769CE5" stroke-opacity="0.75"/>
<path d="M149.23 51.6652L150.211 52.9122L150.987 54.2062L151.547 55.5412L151.881 56.9052L151.982 58.2912L151.843 59.6872L151.459 61.0822L150.826 62.4662L149.946 63.8262L148.818 65.1492L147.448 66.4242L145.843 67.6382L144.011 68.7792L141.967 69.8352L139.725 70.7932L137.304 71.6452L134.724 72.3792L132.008 72.9882L129.183 73.4642L126.275 73.8012L123.312 73.9962L120.325 74.0462L117.342 73.9502L114.393 73.7092L111.507 73.3272L108.713 72.8082L106.037 72.1592L103.504 71.3862L101.135 70.5002L98.9522 69.5092L96.9722 68.4262L95.2082 67.2612L93.6742 66.0262L92.3772 64.7352L91.3242 63.3992L90.5182 62.0312L89.9612 60.6432L89.6512 59.2472L89.5842 57.8542L89.7552 56.4742L90.1572 55.1182L90.7822 53.7962L91.6202 52.5162" stroke="#769CE5" stroke-opacity="0.75"/>
<path d="M153.851 61.2013L154.49 62.7253L154.883 64.2863L155.021 65.8733L154.895 67.4753L154.5 69.0793L153.832 70.6713L152.888 72.2393L151.67 73.7673L150.182 75.2423L148.431 76.6483L146.427 77.9703L144.184 79.1963L141.718 80.3103L139.051 81.3013L136.204 82.1563L133.204 82.8663L130.079 83.4213L126.86 83.8143L123.58 84.0413L120.271 84.0993L116.968 83.9863L113.703 83.7063L110.51 83.2603L107.421 82.6543L104.466 81.8973L101.672 80.9973L99.0641 79.9663L96.6651 78.8153L94.4941 77.5573L92.5661 76.2073L90.8951 74.7783L89.4881 73.2853L88.3531 71.7433L87.4931 70.1673L86.9071 68.5703L86.5941 66.9663L86.5481 65.3683L86.7631 63.7893" stroke="#769CE5" stroke-opacity="0.75"/>
<path d="M155.453 71.9164L155.598 73.6004L155.476 75.3014L155.079 77.0044L154.404 78.6954L153.449 80.3604L152.214 81.9844L150.704 83.5524L148.925 85.0474L146.888 86.4534L144.607 87.7574L142.099 88.9434L139.383 89.9974L136.485 90.9074L133.43 91.6634L130.248 92.2534L126.969 92.6724L123.627 92.9144L120.257 92.9754L116.891 92.8554L113.565 92.5564L110.313 92.0814L107.167 91.4364L104.158 90.6304L101.313 89.6724L98.6601 88.5744L96.2201 87.3494L94.0121 86.0114L92.0531 84.5754L90.3561 83.0554L88.9291 81.4694L87.7791 79.8304L86.9091 78.1564L86.3181 76.4604L86.0041 74.7574L85.9631 73.0614" stroke="#769CE5" stroke-opacity="0.75"/>
<path d="M153.275 84.2752L152.621 85.9382L151.701 87.5752L150.519 89.1692L149.078 90.7072L147.384 92.1722L145.449 93.5502L143.285 94.8252L140.908 95.9852L138.339 97.0152L135.598 97.9042L132.712 98.6412L129.707 99.2182L126.613 99.6262L123.46 99.8622L120.28 99.9222L117.105 99.8052L113.966 99.5122L110.897 99.0492L107.926 98.4192L105.082 97.6322L102.392 96.6962L99.88 95.6232L97.567 94.4242L95.472 93.1152L93.609 91.7072L91.992 90.2182L90.629 88.6612L89.527 87.0522L88.688 85.4052L88.113 83.7362" stroke="#769CE5" stroke-opacity="0.75"/>
<path d="M147.906 93.4053L146.843 94.8433L145.556 96.2283L144.052 97.5453L142.34 98.7813L140.433 99.9243L138.344 100.961L136.091 101.881L133.694 102.675L131.172 103.332L128.551 103.845L125.853 104.209L123.107 104.418L120.337 104.471L117.571 104.367L114.837 104.107L112.16 103.694L109.567 103.133L107.082 102.431L104.727 101.596L102.522 100.636L100.488 99.5643L98.6391 98.3903L96.9901 97.1263L95.5511 95.7863L94.3321 94.3833L93.3381 92.9303" stroke="#769CE5" stroke-opacity="0.75"/>
<path d="M103.16 101.575L104.649 102.522L106.281 103.385L108.042 104.156L109.918 104.826L111.893 105.388L113.95 105.836L116.07 106.166L118.233 106.374L120.42 106.457L122.61 106.415L124.783 106.247L126.918 105.957L128.996 105.547L130.999 105.021L132.907 104.385L134.705 103.647L136.378 102.813L137.912 101.892" stroke="#769CE5" stroke-opacity="0.75"/>
<path d="M120.648 106.536C139.978 106.536 155.648 90.8662 155.648 71.5363C155.648 52.2063 139.978 36.5363 120.648 36.5363C101.318 36.5363 85.6477 52.2063 85.6477 71.5363C85.6477 90.8662 101.318 106.536 120.648 106.536Z" stroke="#769CE5"/>
<path d="M93.9504 86.0446L60.5854 103.957" stroke="#F0F0F0" stroke-width="1.5"/>
<path d="M177.779 103.957L146.952 86.4901" stroke="#F0F0F0" stroke-width="1.5"/>
<path d="M120.804 11.7892L120.786 40.6215" stroke="#F0F0F0" stroke-width="1.5"/>
</svg>
