<svg width="240" height="135" viewBox="0 0 240 135" fill="none" xmlns="http://www.w3.org/2000/svg">
<g clip-path="url(#clip0_1_482)">
<path d="M240 0H0V135H240V0Z" fill="black"/>
<path d="M240 0H0V135H240V0Z" stroke="#404040" stroke-width="2"/>
<g clip-path="url(#clip1_1_482)">
<path d="M-930 937.5L1950 -22.4998" stroke="#6AB0F3" stroke-opacity="0.75" stroke-width="2"/>
<path d="M-960 907.5L1920 -52.4998" stroke="#6AB0F3" stroke-opacity="0.75" stroke-width="2"/>
<path d="M-990 877.5L1890 -82.4998" stroke="#6AB0F3" stroke-opacity="0.75" stroke-width="2"/>
<path d="M-1020 847.5L1860 -112.5" stroke="#6AB0F3" stroke-opacity="0.75" stroke-width="2"/>
<path d="M-1050 817.5L1830 -142.5" stroke="#6AB0F3" stroke-opacity="0.75" stroke-width="2"/>
<path d="M-1080 787.5L1800 -172.5" stroke="#6AB0F3" stroke-opacity="0.75" stroke-width="2"/>
<path d="M-1110 757.5L1770 -202.5" stroke="#6AB0F3" stroke-opacity="0.75" stroke-width="2"/>
<path d="M-1140 727.5L1740 -232.5" stroke="#6AB0F3" stroke-opacity="0.75" stroke-width="2"/>
<path d="M-1170 697.5L1710 -262.5" stroke="#6AB0F3" stroke-opacity="0.75" stroke-width="2"/>
<path d="M-1200 667.5L1680 -292.5" stroke="#6AB0F3" stroke-opacity="0.75" stroke-width="2"/>
<path d="M-1230 637.5L1650 -322.5" stroke="#6AB0F3" stroke-opacity="0.75" stroke-width="2"/>
<path d="M-1260 607.5L1620 -352.5" stroke="#6AB0F3" stroke-opacity="0.75" stroke-width="2"/>
<path d="M-1290 577.5L1590 -382.5" stroke="#6AB0F3" stroke-opacity="0.75" stroke-width="2"/>
<path d="M-1320 547.5L1560 -412.5" stroke="#6AB0F3" stroke-opacity="0.75" stroke-width="2"/>
<path d="M-1350 517.5L1530 -442.5" stroke="#6AB0F3" stroke-opacity="0.75" stroke-width="2"/>
<path d="M-1380 487.5L1500 -472.5" stroke="#6AB0F3" stroke-opacity="0.75" stroke-width="2"/>
<path d="M-1410 457.5L1470 -502.5" stroke="#6AB0F3" stroke-opacity="0.75" stroke-width="2"/>
<path d="M-1440 427.5L1440 -532.5" stroke="#6AB0F3" stroke-opacity="0.75" stroke-width="2"/>
<path d="M-1470 397.5L1410 -562.5" stroke="#6AB0F3" stroke-opacity="0.75" stroke-width="2"/>
<path d="M-1500 367.5L1380 -592.5" stroke="#6AB0F3" stroke-opacity="0.75" stroke-width="2"/>
<path d="M-1530 337.5L1350 -622.5" stroke="#6AB0F3" stroke-opacity="0.75" stroke-width="2"/>
<path d="M-1560 307.5L1320 -652.5" stroke="#6AB0F3" stroke-opacity="0.75" stroke-width="2"/>
<path d="M-1590 277.5L1290 -682.5" stroke="#6AB0F3" stroke-opacity="0.75" stroke-width="2"/>
<path d="M-1620 247.5L1260 -712.5" stroke="#6AB0F3" stroke-opacity="0.75" stroke-width="2"/>
<path d="M-1650 217.5L1230 -742.5" stroke="#6AB0F3" stroke-opacity="0.75" stroke-width="2"/>
<path d="M-1680 187.5L1200 -772.5" stroke="#6AB0F3" stroke-opacity="0.75" stroke-width="2"/>
<path d="M-1710 157.5L1170 -802.5" stroke="#6AB0F3" stroke-opacity="0.75" stroke-width="2"/>
<path d="M45 632.5L-765 -177.5" stroke="#6AB0F3" stroke-opacity="0.75" stroke-width="2"/>
<path d="M105 612.5L-705 -197.5" stroke="#6AB0F3" stroke-opacity="0.75" stroke-width="2"/>
<path d="M165 592.5L-645 -217.5" stroke="#6AB0F3" stroke-opacity="0.75" stroke-width="2"/>
<path d="M225 572.5L-585 -237.5" stroke="#6AB0F3" stroke-opacity="0.75" stroke-width="2"/>
<path d="M285 552.5L-525 -257.5" stroke="#6AB0F3" stroke-opacity="0.75" stroke-width="2"/>
<path d="M345 532.5L-465 -277.5" stroke="#6AB0F3" stroke-opacity="0.75" stroke-width="2"/>
<path d="M405 512.5L-405 -297.5" stroke="#6AB0F3" stroke-opacity="0.75" stroke-width="2"/>
<path d="M465 492.5L-345 -317.5" stroke="#6AB0F3" stroke-opacity="0.75" stroke-width="2"/>
<path d="M525 472.5L-285 -337.5" stroke="#6AB0F3" stroke-opacity="0.75" stroke-width="2"/>
<path d="M585 452.5L-225 -357.5" stroke="#6AB0F3" stroke-opacity="0.75" stroke-width="2"/>
<path d="M645 432.5L-165 -377.5" stroke="#6AB0F3" stroke-opacity="0.75" stroke-width="2"/>
<path d="M705 412.5L-105 -397.5" stroke="#6AB0F3" stroke-opacity="0.75" stroke-width="2"/>
<path d="M765 392.5L-45.0001 -417.5" stroke="#6AB0F3" stroke-opacity="0.75" stroke-width="2"/>
<path d="M825 372.5L14.9999 -437.5" stroke="#6AB0F3" stroke-opacity="0.75" stroke-width="2"/>
<path d="M885 352.5L74.9999 -457.5" stroke="#6AB0F3" stroke-opacity="0.75" stroke-width="2"/>
<path d="M945 332.5L135 -477.5" stroke="#6AB0F3" stroke-opacity="0.75" stroke-width="2"/>
<path d="M1005 312.5L195 -497.5" stroke="#6AB0F3" stroke-opacity="0.75" stroke-width="2"/>
<path d="M1560 -412.5L-1320 547.5" stroke="#79B9F6" stroke-width="2"/>
<path d="M525 472.5L-285 -337.5" stroke="#79B9F6" stroke-width="2"/>
</g>
<path d="M163.635 45.8398L180 47.5L167.904 58.6471L168.616 51.2948L163.635 45.8398Z" fill="#92D192"/>
<path d="M120 67.5L176.205 48.7649" stroke="#92D192" stroke-width="2"/>
<path d="M95.8335 52.8796L89.9999 37.5001L105.379 43.3337L98.4851 45.9853L95.8335 52.8796Z" fill="#F2777A"/>
<path d="M120 67.4999L92.8284 40.3284" stroke="#F2777A" stroke-width="2"/>
</g>
<defs>
<clipPath id="clip0_1_482">
<rect width="240" height="135" fill="white"/>
</clipPath>
<clipPath id="clip1_1_482">
<rect width="960" height="540" fill="white" transform="translate(-360 -202.5)"/>
</clipPath>
</defs>
</svg>
