<svg width="640" height="360" viewBox="0 0 640 360" fill="none" xmlns="http://www.w3.org/2000/svg">
<g clip-path="url(#clip0_1351_6301)">
<path d="M640 0H0V360H640V0Z" fill="black"/>
<g clip-path="url(#clip1_1351_6301)">
<path d="M-1520 2180L3600 -380" stroke="#6AB0F3" stroke-opacity="0.75" stroke-width="1.19291"/>
<path d="M-1560 2140L3560 -420" stroke="#6AB0F3" stroke-opacity="0.75" stroke-width="1.19291"/>
<path d="M-1600 2100L3520 -460" stroke="#6AB0F3" stroke-opacity="0.75" stroke-width="1.19291"/>
<path d="M-1640 2060L3480 -500" stroke="#6AB0F3" stroke-opacity="0.75" stroke-width="1.19291"/>
<path d="M-1680 2020L3440 -540" stroke="#6AB0F3" stroke-opacity="0.75" stroke-width="1.19291"/>
<path d="M-1720 1980L3400 -580" stroke="#6AB0F3" stroke-opacity="0.75" stroke-width="1.19291"/>
<path d="M-1760 1940L3360 -620" stroke="#6AB0F3" stroke-opacity="0.75" stroke-width="1.19291"/>
<path d="M-1800 1900L3320 -660" stroke="#6AB0F3" stroke-opacity="0.75" stroke-width="1.19291"/>
<path d="M-1840 1860L3280 -700" stroke="#6AB0F3" stroke-opacity="0.75" stroke-width="1.19291"/>
<path d="M-1880 1820L3240 -740" stroke="#6AB0F3" stroke-opacity="0.75" stroke-width="1.19291"/>
<path d="M-1920 1780L3200 -780" stroke="#6AB0F3" stroke-opacity="0.75" stroke-width="1.19291"/>
<path d="M-1960 1740L3160 -820" stroke="#6AB0F3" stroke-opacity="0.75" stroke-width="1.19291"/>
<path d="M-2000 1700L3120 -860" stroke="#6AB0F3" stroke-opacity="0.75" stroke-width="1.19291"/>
<path d="M-2040 1660L3080 -900" stroke="#6AB0F3" stroke-opacity="0.75" stroke-width="1.19291"/>
<path d="M-2080 1620L3040 -940" stroke="#6AB0F3" stroke-opacity="0.75" stroke-width="1.19291"/>
<path d="M-2120 1580L3000 -980" stroke="#6AB0F3" stroke-opacity="0.75" stroke-width="1.19291"/>
<path d="M-2160 1540L2960 -1020" stroke="#6AB0F3" stroke-opacity="0.75" stroke-width="1.19291"/>
<path d="M-2200 1500L2920 -1060" stroke="#6AB0F3" stroke-opacity="0.75" stroke-width="1.19291"/>
<path d="M-2240 1460L2880 -1100" stroke="#6AB0F3" stroke-opacity="0.75" stroke-width="1.19291"/>
<path d="M-2280 1420L2840 -1140" stroke="#6AB0F3" stroke-opacity="0.75" stroke-width="1.19291"/>
<path d="M-2320 1380L2800 -1180" stroke="#6AB0F3" stroke-opacity="0.75" stroke-width="1.19291"/>
<path d="M-2360 1340L2760 -1220" stroke="#6AB0F3" stroke-opacity="0.75" stroke-width="1.19291"/>
<path d="M-2400 1300L2720 -1260" stroke="#6AB0F3" stroke-opacity="0.75" stroke-width="1.19291"/>
<path d="M-2440 1260L2680 -1300" stroke="#6AB0F3" stroke-opacity="0.75" stroke-width="1.19291"/>
<path d="M-2480 1220L2640 -1340" stroke="#6AB0F3" stroke-opacity="0.75" stroke-width="1.19291"/>
<path d="M-2520 1180L2600 -1380" stroke="#6AB0F3" stroke-opacity="0.75" stroke-width="1.19291"/>
<path d="M-2560 1140L2560 -1420" stroke="#6AB0F3" stroke-opacity="0.75" stroke-width="1.19291"/>
<path d="M-2600 1100L2520 -1460" stroke="#6AB0F3" stroke-opacity="0.75" stroke-width="1.19291"/>
<path d="M-2640 1060L2480 -1500" stroke="#6AB0F3" stroke-opacity="0.75" stroke-width="1.19291"/>
<path d="M-2680 1020L2440 -1540" stroke="#6AB0F3" stroke-opacity="0.75" stroke-width="1.19291"/>
<path d="M-2720 980L2400 -1580" stroke="#6AB0F3" stroke-opacity="0.75" stroke-width="1.19291"/>
<path d="M-2760 940L2360 -1620" stroke="#6AB0F3" stroke-opacity="0.75" stroke-width="1.19291"/>
<path d="M-2800 900L2320 -1660" stroke="#6AB0F3" stroke-opacity="0.75" stroke-width="1.19291"/>
<path d="M-2840 860L2280 -1700" stroke="#6AB0F3" stroke-opacity="0.75" stroke-width="1.19291"/>
<path d="M-2880 820L2240 -1740" stroke="#6AB0F3" stroke-opacity="0.75" stroke-width="1.19291"/>
<path d="M-2920 780L2200 -1780" stroke="#6AB0F3" stroke-opacity="0.75" stroke-width="1.19291"/>
<path d="M-2960 740L2160 -1820" stroke="#6AB0F3" stroke-opacity="0.75" stroke-width="1.19291"/>
<path d="M-9.15527e-05 1420L-1440 -20" stroke="#6AB0F3" stroke-opacity="0.75" stroke-width="1.19291"/>
<path d="M80 1380L-1360 -60" stroke="#6AB0F3" stroke-opacity="0.75" stroke-width="1.19291"/>
<path d="M160 1340L-1280 -100" stroke="#6AB0F3" stroke-opacity="0.75" stroke-width="1.19291"/>
<path d="M240 1300L-1200 -140" stroke="#6AB0F3" stroke-opacity="0.75" stroke-width="1.19291"/>
<path d="M320 1260L-1120 -180" stroke="#6AB0F3" stroke-opacity="0.75" stroke-width="1.19291"/>
<path d="M400 1220L-1040 -220" stroke="#6AB0F3" stroke-opacity="0.75" stroke-width="1.19291"/>
<path d="M480 1180L-960 -260" stroke="#6AB0F3" stroke-opacity="0.75" stroke-width="1.19291"/>
<path d="M560 1140L-880 -300" stroke="#6AB0F3" stroke-opacity="0.75" stroke-width="1.19291"/>
<path d="M640 1100L-800 -340" stroke="#6AB0F3" stroke-opacity="0.75" stroke-width="1.19291"/>
<path d="M720 1060L-720 -380" stroke="#6AB0F3" stroke-opacity="0.75" stroke-width="1.19291"/>
<path d="M800 1020L-640 -420" stroke="#6AB0F3" stroke-opacity="0.75" stroke-width="1.19291"/>
<path d="M880 980L-560 -460" stroke="#6AB0F3" stroke-opacity="0.75" stroke-width="1.19291"/>
<path d="M960 940L-480 -500" stroke="#6AB0F3" stroke-opacity="0.75" stroke-width="1.19291"/>
<path d="M1040 900L-400 -540" stroke="#6AB0F3" stroke-opacity="0.75" stroke-width="1.19291"/>
<path d="M1120 860L-320 -580" stroke="#6AB0F3" stroke-opacity="0.75" stroke-width="1.19291"/>
<path d="M1200 820L-240 -620" stroke="#6AB0F3" stroke-opacity="0.75" stroke-width="1.19291"/>
<path d="M1280 780L-160 -660" stroke="#6AB0F3" stroke-opacity="0.75" stroke-width="1.19291"/>
<path d="M1360 740L-80 -700" stroke="#6AB0F3" stroke-opacity="0.75" stroke-width="1.19291"/>
<path d="M1440 700L-9.70578e-05 -740" stroke="#6AB0F3" stroke-opacity="0.75" stroke-width="1.19291"/>
<path d="M1520 660L79.9999 -780" stroke="#6AB0F3" stroke-opacity="0.75" stroke-width="1.19291"/>
<path d="M1600 620L160 -820" stroke="#6AB0F3" stroke-opacity="0.75" stroke-width="1.19291"/>
<path d="M1680 580L240 -860" stroke="#6AB0F3" stroke-opacity="0.75" stroke-width="1.19291"/>
<path d="M1760 540L320 -900" stroke="#6AB0F3" stroke-opacity="0.75" stroke-width="1.19291"/>
<path d="M1840 500L400 -940" stroke="#6AB0F3" stroke-opacity="0.75" stroke-width="1.19291"/>
<path d="M1920 460L480 -980" stroke="#6AB0F3" stroke-opacity="0.75" stroke-width="1.19291"/>
<path d="M2000 420L560 -1020" stroke="#6AB0F3" stroke-opacity="0.75" stroke-width="1.19291"/>
<path d="M2080 380L640 -1060" stroke="#6AB0F3" stroke-opacity="0.75" stroke-width="1.19291"/>
<path d="M2880 -1100L-2240 1460" stroke="#79B9F6" stroke-width="1.19291"/>
<path d="M1040 900L-400 -540" stroke="#79B9F6" stroke-width="1.19291"/>
</g>
<path d="M640 0H0V360H640V0Z" stroke="#404040" stroke-width="2"/>
<path d="M380 100C353.333 114.667 335.667 134.667 327 160" stroke="#F0F0F0" stroke-width="1.5"/>
<path d="M336.48 153.942L327 160L323.838 149.204" stroke="#F0F0F0" stroke-width="1.5" stroke-linecap="round"/>
<path d="M320 183.5C321.933 183.5 323.5 181.933 323.5 180C323.5 178.067 321.933 176.5 320 176.5C318.067 176.5 316.5 178.067 316.5 180C316.5 181.933 318.067 183.5 320 183.5Z" fill="#F0F0F0"/>
<rect x="386.75" y="86.7256" width="63.5" height="26.549" fill="black"/>
<g clip-path="url(#clip2_1351_6301)">
<path d="M391.318 98.1575C391.318 97.0308 391.522 95.9856 391.929 95.0219C392.336 94.0581 392.865 93.2708 393.517 92.66C394.169 92.0492 394.888 91.5741 395.675 91.2347C396.463 90.8954 397.263 90.7257 398.078 90.7257C399.883 90.7257 401.465 91.4316 402.822 92.8433C404.179 94.255 404.865 96.0196 404.878 98.1371C404.878 99.2366 404.682 100.255 404.288 101.191C403.894 102.128 403.379 102.915 402.741 103.553C402.103 104.191 401.376 104.673 400.562 104.999C399.747 105.325 398.919 105.501 398.078 105.528C397.236 105.555 396.415 105.386 395.614 105.019C394.813 104.653 394.087 104.171 393.436 103.574C392.784 102.976 392.275 102.196 391.908 101.232C391.542 100.268 391.345 99.2434 391.318 98.1575ZM399.686 91.9066C399.13 91.6623 398.594 91.5401 398.078 91.5401C397.698 91.5401 397.311 91.6148 396.917 91.7641C396.524 91.9134 396.103 92.1442 395.655 92.4564C395.207 92.7686 394.827 93.2505 394.515 93.902C394.202 94.5536 393.972 95.3002 393.822 96.1417C393.755 96.5218 393.721 97.0987 393.721 97.8724C393.721 100.723 394.42 102.712 395.818 103.838C396.496 104.395 397.229 104.673 398.017 104.673H398.098H398.139C399.266 104.673 400.256 104.137 401.112 103.065C402.008 101.856 402.455 100.126 402.455 97.8724C402.455 97.0987 402.422 96.5218 402.354 96.1417C402.069 94.0649 401.18 92.6532 399.686 91.9066Z" fill="#F0F0F0"/>
<path d="M406.752 104.144H407.037C407.566 104.144 407.885 104.049 407.994 103.859V103.696C407.994 103.574 407.994 103.418 407.994 103.227C407.994 103.037 408 102.827 408.014 102.596C408.028 102.366 408.028 102.101 408.014 101.802C408 101.504 408 101.219 408.014 100.947C408.014 100.526 408.014 100.078 408.014 99.6032C408.014 99.1281 408.014 98.7277 408.014 98.4019L407.994 97.9336C407.953 97.6757 407.858 97.506 407.709 97.4246C407.559 97.3431 407.254 97.282 406.792 97.2413H406.426V96.773C406.426 96.4608 406.439 96.3047 406.467 96.3047L406.67 96.2843C406.806 96.2708 406.996 96.2572 407.24 96.2436C407.485 96.23 407.729 96.2165 407.973 96.2029C408.191 96.1893 408.428 96.1758 408.686 96.1622C408.944 96.1486 409.141 96.1282 409.276 96.1011C409.412 96.0739 409.487 96.0672 409.5 96.0807H409.562V97.4856C410.091 96.5626 410.749 96.1011 411.537 96.1011H411.659C412.27 96.1011 412.717 96.2504 413.003 96.549C413.288 96.8477 413.43 97.1599 413.43 97.4856C413.43 97.7707 413.342 98.015 413.165 98.2186C412.989 98.4223 412.731 98.5241 412.392 98.5241C412.052 98.5241 411.801 98.4155 411.638 98.1983C411.475 97.9811 411.387 97.7503 411.374 97.506C411.374 97.3838 411.387 97.2752 411.414 97.1802C411.442 97.0852 411.475 97.0038 411.516 96.9359C411.557 96.868 411.577 96.8341 411.577 96.8341C411.55 96.8069 411.394 96.8341 411.109 96.9155C410.892 97.0241 410.729 97.1259 410.62 97.221C409.982 97.8318 409.663 99.0467 409.663 100.866V101.945C409.663 102.121 409.663 102.304 409.663 102.494C409.663 102.685 409.663 102.861 409.663 103.024C409.663 103.187 409.67 103.322 409.684 103.431C409.697 103.54 409.697 103.641 409.684 103.736V103.838C409.697 103.865 409.718 103.893 409.745 103.92C409.772 103.947 409.806 103.967 409.847 103.981C409.887 103.994 409.921 104.015 409.948 104.042C409.976 104.069 410.023 104.083 410.091 104.083C410.159 104.083 410.206 104.089 410.233 104.103C410.261 104.117 410.322 104.123 410.417 104.123C410.512 104.123 410.573 104.123 410.6 104.123C410.627 104.123 410.695 104.13 410.804 104.144C410.912 104.157 410.98 104.157 411.007 104.144H411.638V105.08H411.455C411.211 105.04 410.349 105.019 408.869 105.019C407.471 105.019 406.711 105.04 406.589 105.08H406.426V104.144H406.752Z" fill="#F0F0F0"/>
<path d="M415.405 92.6804C415.405 92.3004 415.527 92.0017 415.772 91.7845C416.016 91.5674 416.315 91.4588 416.668 91.4588C416.98 91.4859 417.251 91.6013 417.482 91.8049C417.713 92.0085 417.828 92.3004 417.828 92.6804C417.828 93.0877 417.713 93.3931 417.482 93.5967C417.251 93.8003 416.966 93.9021 416.627 93.9021C416.287 93.9021 416.002 93.8003 415.772 93.5967C415.541 93.3931 415.419 93.0877 415.405 92.6804ZM419.029 105.08C418.826 105.04 418.12 105.019 416.912 105.019C416.763 105.019 416.511 105.019 416.158 105.019C415.806 105.019 415.466 105.033 415.14 105.06L414.692 105.08H414.53V104.144H414.855C415.235 104.144 415.568 104.123 415.853 104.083C415.975 104.028 416.05 103.954 416.077 103.859C416.104 103.764 416.118 103.479 416.118 103.003V100.906V99.1145C416.118 98.4087 416.104 97.9607 416.077 97.7707C416.05 97.5807 415.955 97.4517 415.792 97.3838C415.602 97.2888 415.283 97.2413 414.835 97.2413H414.611V96.773C414.611 96.4608 414.625 96.3047 414.652 96.3047L414.855 96.2843C414.991 96.2708 415.181 96.2572 415.425 96.2436C415.67 96.23 415.914 96.2165 416.158 96.2029C416.389 96.1893 416.634 96.1758 416.891 96.1622C417.149 96.1486 417.346 96.1282 417.482 96.1011C417.618 96.0739 417.692 96.0672 417.706 96.0807H417.767V103.818C417.835 103.954 417.916 104.035 418.011 104.062C418.106 104.089 418.344 104.117 418.724 104.144H419.192V105.08H419.029Z" fill="#F0F0F0"/>
<path d="M426.359 96.7526C426.957 96.1553 427.635 95.8567 428.395 95.8567C428.803 95.8567 429.095 95.9857 429.271 96.2436C429.447 96.5015 429.536 96.7594 429.536 97.0173C429.536 97.2073 429.475 97.377 429.352 97.5263C429.23 97.6756 429.047 97.7503 428.803 97.7503C428.355 97.7503 428.104 97.5467 428.049 97.1395C428.022 96.9494 428.043 96.8069 428.11 96.7119C428.11 96.6983 428.117 96.6779 428.131 96.6508V96.6304C427.751 96.6712 427.391 96.8205 427.052 97.0784C426.943 97.1463 426.889 97.1938 426.889 97.2209C426.889 97.2345 426.916 97.2684 426.97 97.3227C427.024 97.377 427.086 97.4585 427.153 97.567C427.221 97.6756 427.296 97.7978 427.377 97.9335C427.459 98.0693 427.52 98.2458 427.561 98.4629C427.601 98.6801 427.629 98.9041 427.642 99.1349C427.642 99.9764 427.31 100.689 426.644 101.273C425.979 101.856 425.158 102.155 424.181 102.169C423.502 102.169 422.83 101.979 422.165 101.599C422.016 101.843 421.941 102.101 421.941 102.372C421.941 102.847 422.117 103.2 422.47 103.431C422.593 103.512 422.708 103.553 422.817 103.553C422.925 103.553 423.414 103.567 424.283 103.594C425.423 103.607 426.156 103.648 426.482 103.716C427.31 103.838 427.961 104.117 428.436 104.551C428.966 105.08 429.23 105.745 429.23 106.546C429.23 107.456 428.701 108.155 427.642 108.643C426.828 109.064 425.864 109.275 424.751 109.275C423.624 109.275 422.654 109.064 421.839 108.643C420.78 108.168 420.251 107.49 420.251 106.607C420.251 106.119 420.394 105.711 420.679 105.386C420.964 105.06 421.249 104.836 421.534 104.714L421.758 104.592C421.269 104.171 421.025 103.601 421.025 102.881C421.025 102.243 421.222 101.666 421.615 101.151C421.018 100.553 420.719 99.8814 420.719 99.1349C420.719 98.2797 421.059 97.5603 421.737 96.9766C422.416 96.3929 423.237 96.0943 424.201 96.0807C424.893 96.0807 425.538 96.2572 426.135 96.6101L426.359 96.7526ZM425.749 98.0964C425.681 97.7164 425.504 97.4177 425.219 97.2005C424.934 96.9834 424.581 96.868 424.16 96.8544C423.767 96.8544 423.427 96.963 423.142 97.1802C422.857 97.3974 422.681 97.7028 422.613 98.0964C422.572 98.3272 422.552 98.6733 422.552 99.1349C422.552 99.7321 422.599 100.173 422.694 100.458C422.789 100.743 422.993 100.981 423.305 101.171C423.536 101.307 423.828 101.375 424.181 101.375C424.479 101.375 424.737 101.327 424.954 101.232C425.172 101.137 425.328 101.015 425.423 100.866C425.518 100.716 425.592 100.58 425.647 100.458C425.701 100.336 425.735 100.234 425.749 100.153C425.789 99.9357 425.81 99.5964 425.81 99.1349C425.81 98.6733 425.789 98.3272 425.749 98.0964ZM427.866 106.607C427.866 106.268 427.771 105.99 427.581 105.773C427.391 105.555 427.113 105.399 426.746 105.304C426.38 105.209 426.047 105.148 425.749 105.121C425.45 105.094 425.083 105.08 424.649 105.08H424.099C423.19 105.08 422.647 105.121 422.47 105.202C422.199 105.325 421.989 105.515 421.839 105.773C421.69 106.03 421.608 106.302 421.595 106.587C421.595 106.723 421.636 106.879 421.717 107.055C421.798 107.232 421.941 107.435 422.145 107.666C422.348 107.897 422.674 108.087 423.122 108.236C423.57 108.386 424.113 108.467 424.751 108.481C425.687 108.481 426.441 108.291 427.011 107.91C427.581 107.53 427.866 107.096 427.866 106.607Z" fill="#F0F0F0"/>
<path d="M431.246 92.6804C431.246 92.3004 431.368 92.0017 431.613 91.7845C431.857 91.5674 432.155 91.4588 432.508 91.4588C432.821 91.4859 433.092 91.6013 433.323 91.8049C433.554 92.0085 433.669 92.3004 433.669 92.6804C433.669 93.0877 433.554 93.3931 433.323 93.5967C433.092 93.8003 432.807 93.9021 432.468 93.9021C432.128 93.9021 431.843 93.8003 431.613 93.5967C431.382 93.3931 431.26 93.0877 431.246 92.6804ZM434.87 105.08C434.667 105.04 433.961 105.019 432.753 105.019C432.603 105.019 432.352 105.019 431.999 105.019C431.646 105.019 431.307 105.033 430.981 105.06L430.533 105.08H430.37V104.144H430.696C431.076 104.144 431.409 104.123 431.694 104.083C431.816 104.028 431.891 103.954 431.918 103.859C431.945 103.764 431.959 103.479 431.959 103.003V100.906V99.1145C431.959 98.4087 431.945 97.9607 431.918 97.7707C431.891 97.5807 431.796 97.4517 431.633 97.3838C431.443 97.2888 431.124 97.2413 430.676 97.2413H430.452V96.773C430.452 96.4608 430.466 96.3047 430.493 96.3047L430.696 96.2843C430.832 96.2708 431.022 96.2572 431.266 96.2436C431.511 96.23 431.755 96.2165 431.999 96.2029C432.23 96.1893 432.474 96.1758 432.732 96.1622C432.99 96.1486 433.187 96.1282 433.323 96.1011C433.459 96.0739 433.533 96.0672 433.547 96.0807H433.608V103.818C433.676 103.954 433.757 104.035 433.852 104.062C433.947 104.089 434.185 104.117 434.565 104.144H435.033V105.08H434.87Z" fill="#F0F0F0"/>
<path d="M436.336 104.144H436.621C437.151 104.144 437.47 104.049 437.578 103.859V103.696C437.578 103.574 437.578 103.418 437.578 103.227C437.578 103.037 437.578 102.827 437.578 102.596C437.578 102.366 437.585 102.101 437.599 101.802C437.612 101.504 437.612 101.219 437.599 100.947C437.599 100.526 437.599 100.078 437.599 99.6032C437.599 99.1281 437.592 98.7277 437.578 98.4019V97.9336C437.538 97.6757 437.443 97.506 437.293 97.4246C437.144 97.3431 436.839 97.282 436.377 97.2413H436.01V96.773C436.01 96.4608 436.024 96.3047 436.051 96.3047L436.255 96.2843C436.391 96.2708 436.581 96.2572 436.825 96.2436C437.069 96.23 437.32 96.2165 437.578 96.2029C437.809 96.1893 438.053 96.1758 438.311 96.1622C438.569 96.1486 438.766 96.1282 438.902 96.1011C439.038 96.0739 439.112 96.0672 439.126 96.0807H439.187V96.8952C439.187 97.411 439.194 97.6689 439.207 97.6689C439.221 97.6689 439.255 97.635 439.309 97.5671C439.363 97.4992 439.445 97.3974 439.553 97.2617C439.662 97.1259 439.791 97.0038 439.94 96.8952C440.089 96.7866 440.286 96.6576 440.531 96.5083C440.775 96.359 441.033 96.2504 441.304 96.1825C441.576 96.1147 441.922 96.0807 442.343 96.0807C443.89 96.135 444.752 96.902 444.929 98.3815C444.942 98.4766 444.949 99.4199 444.949 101.212V102.963C444.949 103.479 444.963 103.784 444.99 103.879C445.017 103.974 445.092 104.042 445.214 104.083C445.499 104.123 445.831 104.144 446.211 104.144H446.537V105.08H446.374L445.886 105.06C445.573 105.046 445.234 105.04 444.868 105.04C444.501 105.04 444.243 105.033 444.094 105.019C442.696 105.019 441.936 105.04 441.813 105.08H441.651V104.144H441.976C442.804 104.144 443.218 104.035 443.218 103.818C443.232 103.791 443.239 102.854 443.239 101.008C443.225 99.1756 443.212 98.2051 443.198 98.0965C443.117 97.7164 442.981 97.4314 442.791 97.2413C442.601 97.0513 442.438 96.9359 442.302 96.8952C442.166 96.8545 441.99 96.8409 441.773 96.8545C441.162 96.8545 440.626 97.0852 440.164 97.5467C439.798 97.9132 439.567 98.2865 439.472 98.6666C439.377 99.0467 439.323 99.61 439.309 100.357V101.66V102.881C439.309 103.289 439.316 103.56 439.329 103.696C439.343 103.832 439.363 103.92 439.39 103.96C439.418 104.001 439.479 104.042 439.574 104.083C439.859 104.123 440.191 104.144 440.571 104.144H440.897V105.08H440.734L440.266 105.06C439.94 105.046 439.594 105.04 439.228 105.04C438.861 105.04 438.603 105.033 438.454 105.019C437.056 105.019 436.296 105.04 436.173 105.08H436.01V104.144H436.336Z" fill="#F0F0F0"/>
</g>
</g>
<defs>
<clipPath id="clip0_1351_6301">
<rect width="640" height="360" fill="white"/>
</clipPath>
<clipPath id="clip1_1351_6301">
<rect width="2560" height="1440" fill="white" transform="translate(-960 -540)"/>
</clipPath>
<clipPath id="clip2_1351_6301">
<rect width="66.825" height="18.549" fill="white" transform="translate(385.088 90.7256)"/>
</clipPath>
</defs>
</svg>
