<?xml version="1.0" encoding="utf-8"?>
<!-- Generator: Adobe Illustrator 25.2.3, SVG Export Plug-In . SVG Version: 6.00 Build 0)  -->
<svg version="1.1" id="Layer_1" xmlns="http://www.w3.org/2000/svg" xmlns:xlink="http://www.w3.org/1999/xlink" x="0px" y="0px"
	 viewBox="0 0 1920 1080" style="enable-background:new 0 0 1920 1080;" xml:space="preserve">
<style type="text/css">
	.st0{fill:#7F7F7F;}
	.st1{fill:#7FA9A9;}
	.st2{fill:#002A2A;}
	.st3{fill:#8AF1FF;}
	.st4{fill:#0B7280;}
	.st5{fill:#FFFFFF;}
	.st6{fill:#808080;}
	.st7{fill:#000707;}
	.st8{fill:#021316;}
	.st9{fill:#00FFFF;}
	.st10{fill:#8CFF61;}
	.st11{fill:none;stroke:#000000;stroke-miterlimit:10;}
	.st12{fill:#FF5F5F;}
	.st13{fill:#161616;}
	.st14{fill:#FFF200;}
	.st15{fill:#000101;}
</style>
<g>
	<polyline points="1919,1079 0,1079 0,0 1919,0 1919,1079 	"/>
	<polyline class="st0" points="1921.6,-0.1 1908.6,-0.1 1908.6,0 1919,0 1919,67.8 1919.8,67.8 1919.8,69.2 1919,69.2 1919,135 
		1921.6,135 1921.6,-0.1 	"/>
	<path d="M1919,69.2h-10.4V135h10.4V69.2 M1919,0h-10.4v67.8h10.4V0"/>
	<polyline class="st0" points="1907.2,-0.1 1839,-0.1 1839,0 1907.2,0 1907.2,-0.1 	"/>
	<polyline points="1907.2,0 1839,0 1839,67.8 1907.2,67.8 1907.2,0 	"/>
	<polyline class="st0" points="1837.6,-0.1 1770.3,-0.1 1770.3,0 1837.6,0 1837.6,-0.1 	"/>
	<polyline points="1837.6,0 1770.3,0 1770.3,67.8 1837.6,67.8 1837.6,0 	"/>
	<polyline class="st0" points="1767.5,-0.1 1702,-0.1 1702,0 1767.5,0 1767.5,-0.1 	"/>
	<polyline points="1767.5,0 1702,0 1702,25.9 1715.8,25.9 1715.8,67.8 1767.5,67.8 1767.5,0 	"/>
	<polyline class="st0" points="1700.6,-0.1 1634.7,-0.1 1634.7,0 1700.6,0 1700.6,-0.1 	"/>
	<polyline points="1700.6,0 1634.7,0 1634.7,25.9 1700.6,25.9 1700.6,0 	"/>
	<polyline class="st0" points="1633.3,-0.1 1576,-0.1 1576,0 1633.3,0 1633.3,-0.1 	"/>
	<polyline points="1633.3,0 1576,0 1576,25.9 1633.3,25.9 1633.3,0 	"/>
	<polyline class="st0" points="1574.6,-0.1 1507.4,-0.1 1507.4,0 1574.6,0 1574.6,-0.1 	"/>
	<polyline points="1574.6,0 1507.4,0 1507.4,25.9 1574.6,25.9 1574.6,0 	"/>
	<polyline class="st0" points="1504.6,-0.1 1440,-0.1 1440,0 1504.6,0 1504.6,-0.1 	"/>
	<polyline points="1504.6,0 1440,0 1440,25.9 1504.6,25.9 1504.6,0 	"/>
	<polyline class="st0" points="1438.6,-0.1 1371.8,-0.1 1371.8,0 1438.6,0 1438.6,-0.1 	"/>
	<polyline points="1438.6,0 1371.8,0 1371.8,25.9 1438.6,25.9 1438.6,0 	"/>
	<polyline class="st0" points="1370.4,-0.1 1305,-0.1 1305,0 1370.4,0 1370.4,-0.1 	"/>
	<polyline points="1370.4,0 1305,0 1305,25.9 1370.4,25.9 1370.4,0 	"/>
	<polyline class="st0" points="1303.6,-0.1 1237.6,-0.1 1237.6,0 1303.6,0 1303.6,-0.1 	"/>
	<polyline points="1303.6,0 1237.6,0 1237.6,25.9 1303.6,25.9 1303.6,0 	"/>
	<polyline class="st0" points="1234.8,-0.1 1169,-0.1 1169,0 1234.8,0 1234.8,-0.1 	"/>
	<polyline points="1234.8,0 1169,0 1169,25.9 1234.8,25.9 1234.8,0 	"/>
	<polyline class="st0" points="1167.6,-0.1 1102,-0.1 1102,0 1167.6,0 1167.6,-0.1 	"/>
	<polyline points="1167.6,0 1102,0 1102,25.9 1167.6,25.9 1167.6,0 	"/>
	<polyline class="st0" points="1100.6,-0.1 1033,-0.1 1033,0 1100.6,0 1100.6,-0.1 	"/>
	<polyline points="1100.6,0 1033,0 1033,25.9 1100.6,25.9 1100.6,0 	"/>
	<polyline class="st0" points="1031.6,-0.1 964.6,-0.1 964.6,0 1031.6,0 1031.6,-0.1 	"/>
	<polyline points="1031.6,0 964.6,0 964.6,25.9 1031.6,25.9 1031.6,0 	"/>
	<polyline class="st0" points="961.6,-0.1 894,-0.1 894,0 961.6,0 961.6,-0.1 	"/>
	<polyline points="961.6,0 894,0 894,25.9 961.6,25.9 961.6,0 	"/>
	<polyline class="st0" points="892.6,-0.1 821.6,-0.1 821.6,0 892.6,0 892.6,-0.1 	"/>
	<polyline points="892.6,0 821.6,0 821.6,25.9 892.6,25.9 892.6,0 	"/>
	<polyline class="st0" points="820.2,-0.1 757,-0.1 757,0 820.2,0 820.2,-0.1 	"/>
	<polyline points="820.2,0 757,0 757,25.9 820.2,25.9 820.2,0 	"/>
	<polyline class="st0" points="755.6,-0.1 688.2,-0.1 688.2,0 755.6,0 755.6,-0.1 	"/>
	<polyline points="755.6,0 688.2,0 688.2,25.9 755.6,25.9 755.6,0 	"/>
	<polyline class="st0" points="685.4,-0.1 620,-0.1 620,0 685.4,0 685.4,-0.1 	"/>
	<polyline points="685.4,0 620,0 620,25.9 685.4,25.9 685.4,0 	"/>
	<polyline class="st0" points="618.6,-0.1 553.3,-0.1 553.3,0 618.6,0 618.6,-0.1 	"/>
	<polyline points="618.6,0 553.3,0 553.3,25.9 618.6,25.9 618.6,0 	"/>
	<polyline class="st0" points="551.9,-0.1 487,-0.1 487,0 551.9,0 551.9,-0.1 	"/>
	<polyline points="551.9,0 487,0 487,25.9 551.9,25.9 551.9,0 	"/>
	<polyline class="st0" points="485.6,-0.1 419.9,-0.1 419.9,0 485.6,0 485.6,-0.1 	"/>
	<polyline points="485.6,0 419.9,0 419.9,25.9 485.6,25.9 485.6,0 	"/>
	<polyline class="st0" points="417.1,-0.1 355,-0.1 355,0 417.1,0 417.1,-0.1 	"/>
	<polyline points="417.1,0 355,0 355,25.9 417.1,25.9 417.1,0 	"/>
	<polyline class="st0" points="353.6,-0.1 292,-0.1 292,0 353.6,0 353.6,-0.1 	"/>
	<polyline points="353.6,0 292,0 292,25.9 353.6,25.9 353.6,0 	"/>
	<polyline class="st0" points="290.6,-0.1 224,-0.1 224,0 290.6,0 290.6,-0.1 	"/>
	<polyline points="290.6,0 224,0 224,67.8 224,25.9 290.6,25.9 290.6,0 	"/>
	<polyline class="st0" points="222.6,-0.1 158.5,-0.1 158.5,0 222.6,0 222.6,-0.1 	"/>
	<polyline points="222.6,0 158.5,0 158.5,67.8 222.6,67.8 222.6,0 	"/>
	<polyline class="st0" points="155.7,-0.1 88,-0.1 88,0 155.7,0 155.7,-0.1 	"/>
	<polyline points="155.7,0 88,0 88,67.8 155.7,67.8 155.7,0 	"/>
	<polyline class="st0" points="86.6,-0.1 19.6,-0.1 19.6,0 86.6,0 86.6,-0.1 	"/>
	<polyline points="86.6,0 19.6,0 19.6,67.8 86.6,67.8 86.6,0 	"/>
	<polyline class="st0" points="18.2,-0.1 3.6,-0.1 3.6,0 18.2,0 18.2,-0.1 	"/>
	<path d="M353.6,132.2H292v2.7h61.6V132.2 M417.1,132.2H355v2.7h62.1V132.2 M485.6,132.2h-65.7v2.7h65.7V132.2 M551.9,132.2H487v2.7
		h64.9V132.2 M618.6,132.2h-65.3v2.7h65.3V132.2 M685.4,132.2H620v2.7h65.4V132.2 M755.6,132.2h-67.4v2.7h67.4V132.2 M820.2,132.2
		H757v2.7h63.2V132.2 M892.6,132.2h-71v2.7h71V132.2 M961.6,132.2H894v2.7h67.6V132.2 M1031.6,132.2h-67v2.7h67V132.2 M1100.6,132.2
		H1033v2.7h67.6V132.2 M1167.6,132.2H1102v2.7h65.6V132.2 M1234.8,132.2H1169v2.7h65.8V132.2 M1303.6,132.2h-66v2.7h66V132.2
		 M1370.4,132.2H1305v2.7h65.4V132.2 M1438.6,132.2h-66.8v2.7h66.8V132.2 M1504.6,132.2H1440v2.7h64.6V132.2 M1574.6,132.2h-67.2
		v2.7h67.2V132.2 M1633.3,132.2H1576v2.7h57.3V132.2 M1700.6,132.2h-65.9v2.7h65.9V132.2 M86.6,69.2h-67V135h67V69.2 M155.7,69.2H88
		V135h67.7V69.2 M222.6,69.2h-64.1V135h64.1V69.2 M224,69.2L224,69.2V135h66.6v-2.7H224V69.2 M1767.5,69.2h-51.7v63.1H1702v2.7h65.5
		V69.2 M1837.6,69.2h-67.3V135h67.3V69.2 M1907.2,69.2H1839V135h68.2V69.2 M18.2,0H3.6v135h14.6V69.2H3.9v-1.4h14.3V0"/>
	<polyline class="st0" points="1921.6,136.4 1919,136.4 1919,200.8 1919.8,200.8 1919.8,202.2 1919,202.2 1919,268.5 1921.6,268.5 
		1921.6,136.4 	"/>
	<path d="M1919,202.2h-10.4v66.3h10.4V202.2 M18.2,136.4H3.6v132.1h14.6v-66.3H3.9v-1.4h14.3V136.4 M1919,136.4h-10.4v64.4h10.4
		V136.4"/>
	<polyline class="st0" points="1921.6,271.3 1919,271.3 1919,337.8 1921.6,337.8 1921.6,271.3 	"/>
	<path d="M18.2,271.3H3.6v132h14.6v-64.1H5.7v-1.4h12.5V271.3 M1919,271.3h-10.4v66.5h10.4V271.3"/>
	<polyline class="st0" points="1921.6,339.2 1919,339.2 1919,403.3 1921.6,403.3 1921.6,339.2 	"/>
	<polyline points="1919,339.2 1908.6,339.2 1908.6,403.3 1919,403.3 1919,339.2 	"/>
	<polyline class="st0" points="1921.6,404.7 1919,404.7 1919,474.8 1920.7,474.8 1920.7,476.2 1919,476.2 1919,540.8 1921.6,540.8 
		1921.6,404.7 	"/>
	<path d="M1919,476.2h-10.4v64.6h10.4V476.2 M18.2,404.7H3.6v136.1h14.6v-64.6H4.8v-1.4h13.4V404.7 M1919,404.7h-10.4v70.1h10.4
		V404.7"/>
	<polyline class="st0" points="1921.6,544.9 1919,544.9 1919,683.7 1921.6,683.7 1921.6,544.9 	"/>
	<path d="M18.2,615.2H3.6v134.6h14.6v-64.7H3.6v-1.4h14.6V615.2 M18.2,544.9H3.6v68.9h14.6V544.9 M1919,544.9h-10.4v68.9h9.9v1.4
		h-9.9v68.5h10.4V544.9"/>
	<polyline class="st0" points="1921.6,685.1 1919,685.1 1919,817.9 1921.6,817.9 1921.6,685.1 	"/>
	<path d="M18.2,751.2H3.6v269.6h14.6v-65.9H3.6v-1.4h14.6v-66.3H4.4v-1.4h13.8v-65.1H3.6v-2.8h14.6V751.2 M1919,685.1h-10.4v64.7
		h9.9v1.4h-9.9v66.7h10.4V685.1"/>
	<polyline class="st0" points="1921.6,820.7 1919,820.7 1919,885.8 1920.3,885.8 1920.3,887.2 1919,887.2 1919,953.5 1921.6,953.5 
		1921.6,820.7 	"/>
	<path d="M1919,887.2h-10.4v66.3h10.4V887.2 M1919,820.7h-10.4v65.1h10.4V820.7"/>
	<polyline class="st0" points="1921.6,954.9 1919,954.9 1919,1020.8 1919.4,1020.8 1919.4,1022.2 1919,1022.2 1919,1077.9 
		1921.6,1077.9 1921.6,954.9 	"/>
	<path d="M18.2,1022.2H3.6v55.7h14.6V1022.2 M86.6,1022.2h-67v55.7h67V1022.2 M155.7,1022.2H88v55.7h67.7V1022.2 M222.6,1022.2
		h-64.1v55.7h64.1V1022.2 M290.6,1022.2H224v55.7h66.6V1022.2 M417.1,1022.2H355v55.5h-1.4v-55.5H292v55.7h125.1V1022.2
		 M485.6,1022.2h-65.7v55.7h65.7V1022.2 M551.9,1022.2H487v55.7h64.9V1022.2 M618.6,1022.2h-65.3v55.7h65.3V1022.2 M685.4,1022.2
		H620v55.7h65.4V1022.2 M820.2,1022.2H757v55h-1.4v-55h-67.4v55.7h132V1022.2 M961.6,1022.2H894v55.5h-1.4v-55.5h-71v55.7h140
		V1022.2 M1031.6,1022.2h-67v55.7h67V1022.2 M1100.6,1022.2H1033v55.7h67.6V1022.2 M1167.6,1022.2H1102v55.7h65.6V1022.2
		 M1234.8,1022.2H1169v55.7h65.8V1022.2 M1303.6,1022.2h-66v55.7h66V1022.2 M1370.4,1022.2H1305v55.7h65.4V1022.2 M1438.6,1022.2
		h-66.8v55.7h66.8V1022.2 M1504.6,1022.2H1440v55.7h64.6V1022.2 M1574.6,1022.2h-67.2v55.7h67.2V1022.2 M1633.3,1022.2H1576v55.7
		h57.3V1022.2 M1767.5,1022.2H1702v55.3h-1.4v-55.3h-65.9v55.7h132.8V1022.2 M1837.6,1022.2h-67.3v55.7h67.3V1022.2 M1907.2,1022.2
		H1839v55.7h68.2V1022.2 M1919,1022.2h-10.4v55.7h10.4V1022.2 M86.6,954.9h-67v65.9h67V954.9 M155.7,954.9H88v65.9h67.7V954.9
		 M222.6,954.9h-64.1v65.9h64.1V954.9 M290.6,954.9H224v65.9h66.6V954.9 M353.6,954.9H292v65.9h61.6V954.9 M417.1,954.9H355v65.9
		h62.1V954.9 M485.6,954.9h-65.7v65.9h65.7V954.9 M551.9,954.9H487v65.9h64.9V954.9 M618.6,954.9h-65.3v65.9h65.3V954.9
		 M685.4,954.9H620v65.9h65.4V954.9 M755.6,954.9h-67.4v65.9h67.4V954.9 M820.2,954.9H757v65.9h63.2V954.9 M892.6,954.9h-71v65.9h71
		V954.9 M961.6,954.9H894v65.9h67.6V954.9 M1031.6,954.9h-67v65.9h67V954.9 M1100.6,954.9H1033v65.9h67.6V954.9 M1167.6,954.9H1102
		v65.9h65.6V954.9 M1234.8,954.9H1169v65.9h65.8V954.9 M1303.6,954.9h-66v65.9h66V954.9 M1370.4,954.9H1305v65.9h65.4V954.9
		 M1438.6,954.9h-66.8v65.9h66.8V954.9 M1504.6,954.9H1440v65.9h64.6V954.9 M1574.6,954.9h-67.2v65.9h67.2V954.9 M1633.3,954.9H1576
		v65.9h57.3V954.9 M1700.6,954.9h-65.9v65.9h65.9V954.9 M1767.5,954.9H1702v65.9h65.5V954.9 M1837.6,954.9h-67.3v65.9h67.3V954.9
		 M1907.2,954.9H1839v65.9h68.2V954.9 M1919,954.9h-10.4v65.9h10.4V954.9 M86.6,887.2h-67v66.3h67V887.2 M155.7,887.2H88v66.3h67.7
		V887.2 M222.6,887.2h-64.1v66.3h64.1V887.2 M290.6,887.2H224v66.3h66.6V887.2 M353.6,887.2H292v66.3h61.6V887.2 M417.1,887.2H355
		v66.3h62.1V887.2 M485.6,887.2h-65.7v66.3h65.7V887.2 M551.9,887.2H487v66.3h64.9V887.2 M618.6,887.2h-65.3v66.3h65.3V887.2
		 M685.4,887.2H620v66.3h65.4V887.2 M755.6,887.2h-67.4v66.3h67.4V887.2 M820.2,887.2H757v66.3h63.2V887.2 M892.6,887.2h-71v66.3h71
		V887.2 M961.6,887.2H894v66.3h67.6V887.2 M1031.6,887.2h-67v66.3h67V887.2 M1100.6,887.2H1033v66.3h67.6V887.2 M1167.6,887.2H1102
		v66.3h65.6V887.2 M1234.8,887.2H1169v66.3h65.8V887.2 M1303.6,887.2h-66v66.3h66V887.2 M1370.4,887.2H1305v66.3h65.4V887.2
		 M1438.6,887.2h-66.8v66.3h66.8V887.2 M1504.6,887.2H1440v66.3h64.6V887.2 M1574.6,887.2h-67.2v66.3h67.2V887.2 M1633.3,887.2H1576
		v66.3h57.3V887.2 M1700.6,887.2h-65.9v66.3h65.9V887.2 M1767.5,887.2H1702v66.3h65.5V887.2 M1837.6,887.2h-67.3v66.3h67.3V887.2
		 M1907.2,887.2H1839v66.3h68.2V887.2 M86.6,820.7h-67v65.1h67V820.7 M155.7,820.7H88v65.1h67.7V820.7 M222.6,820.7h-64.1v65.1h64.1
		V820.7 M290.6,820.7H224v65.1h66.6V820.7 M353.6,820.7H292v65.1h61.6V820.7 M417.1,820.7H355v65.1h62.1V820.7 M485.6,820.7h-65.7
		v65.1h65.7V820.7 M551.9,820.7H487v65.1h64.9V820.7 M618.6,820.7h-65.3v65.1h65.3V820.7 M685.4,820.7H620v65.1h65.4V820.7
		 M755.6,820.7h-67.4v65.1h67.4V820.7 M820.2,820.7H757v65.1h63.2V820.7 M892.6,820.7h-71v65.1h71V820.7 M961.6,820.7H894v65.1h67.6
		V820.7 M1031.6,820.7h-67v65.1h67V820.7 M1100.6,820.7H1033v65.1h67.6V820.7 M1167.6,820.7H1102v65.1h65.6V820.7 M1234.8,820.7
		H1169v65.1h65.8V820.7 M1303.6,820.7h-66v65.1h66V820.7 M1370.4,820.7H1305v65.1h65.4V820.7 M1438.6,820.7h-66.8v65.1h66.8V820.7
		 M1504.6,820.7H1440v65.1h64.6V820.7 M1574.6,820.7h-67.2v65.1h67.2V820.7 M1633.3,820.7H1576v65.1h57.3V820.7 M1700.6,820.7h-65.9
		v65.1h65.9V820.7 M1767.5,820.7H1702v65.1h65.5V820.7 M1837.6,820.7h-67.3v65.1h67.3V820.7 M1907.2,820.7H1839v65.1h68.2V820.7
		 M86.6,751.2h-67v66.7h67V751.2 M155.7,751.2H88v66.7h67.7V751.2 M222.6,751.2h-64.1v66.7h64.1V751.2 M290.6,751.2H224v66.7h66.6
		V751.2 M353.6,751.2H292v66.7h61.6V751.2 M417.1,751.2H355v66.7h62.1V751.2 M485.6,751.2h-65.7v66.7h65.7V751.2 M551.9,751.2H487
		v66.7h64.9V751.2 M618.6,751.2h-65.3v66.7h65.3V751.2 M685.4,751.2H620v66.7h65.4V751.2 M755.6,751.2h-67.4v66.7h67.4V751.2
		 M820.2,751.2H757v66.7h63.2V751.2 M892.6,751.2h-71v66.7h71V751.2 M961.6,751.2H894v66.7h67.6V751.2 M1031.6,751.2h-67v66.7h67
		V751.2 M1100.6,751.2H1033v66.7h67.6V751.2 M1167.6,751.2H1102v66.7h65.6V751.2 M1234.8,751.2H1169v66.7h65.8V751.2 M1303.6,751.2
		h-66v66.7h66V751.2 M1370.4,751.2H1305v66.7h65.4V751.2 M1438.6,751.2h-66.8v66.7h66.8V751.2 M1504.6,751.2H1440v66.7h64.6V751.2
		 M1574.6,751.2h-67.2v66.7h67.2V751.2 M1633.3,751.2H1576v66.7h57.3V751.2 M1700.6,751.2h-65.9v66.7h65.9V751.2 M1767.5,751.2H1702
		v66.7h65.5V751.2 M1837.6,751.2h-67.3v66.7h67.3V751.2 M1907.2,751.2H1839v66.7h68.2V751.2 M86.6,685.1h-67v64.7h67V685.1
		 M155.7,685.1H88v64.7h67.7V685.1 M222.6,685.1h-64.1v64.7h64.1V685.1 M290.6,685.1H224v64.7h66.6V685.1 M353.6,685.1H292v64.7
		h61.6V685.1 M417.1,685.1H355v64.7h62.1V685.1 M485.6,685.1h-65.7v64.7h65.7V685.1 M551.9,685.1H487v64.7h64.9V685.1 M618.6,685.1
		h-65.3v64.7h65.3V685.1 M685.4,685.1H620v64.7h65.4V685.1 M755.6,685.1h-67.4v64.7h67.4V685.1 M820.2,685.1H757v64.7h63.2V685.1
		 M892.6,685.1h-71v64.7h71V685.1 M961.6,685.1H894v64.7h67.6V685.1 M1031.6,685.1h-67v64.7h67V685.1 M1100.6,685.1H1033v64.7h67.6
		V685.1 M1167.6,685.1H1102v64.7h65.6V685.1 M1234.8,685.1H1169v64.7h65.8V685.1 M1303.6,685.1h-66v64.7h66V685.1 M1370.4,685.1
		H1305v64.7h65.4V685.1 M1438.6,685.1h-66.8v64.7h66.8V685.1 M1504.6,685.1H1440v64.7h64.6V685.1 M1574.6,685.1h-67.2v64.7h67.2
		V685.1 M1633.3,685.1H1576v64.7h57.3V685.1 M1700.6,685.1h-65.9v64.7h65.9V685.1 M1767.5,685.1H1702v64.7h65.5V685.1 M1837.6,685.1
		h-67.3v64.7h67.3V685.1 M1907.2,685.1H1839v64.7h68.2V685.1 M86.6,615.2h-67v68.5h67V615.2 M155.7,615.2H88v68.5h67.7V615.2
		 M222.6,615.2h-64.1v68.5h64.1V615.2 M290.6,615.2H224v68.5h66.6V615.2 M353.6,615.2H292v68.5h61.6V615.2 M417.1,615.2H355v68.5
		h62.1V615.2 M485.6,615.2h-65.7v68.5h65.7V615.2 M551.9,615.2H487v68.5h64.9V615.2 M618.6,615.2h-65.3v68.5h65.3V615.2
		 M685.4,615.2H620v68.5h65.4V615.2 M755.6,615.2h-67.4v68.5h67.4V615.2 M820.2,615.2H757v68.5h63.2V615.2 M892.6,615.2h-71v68.5h71
		V615.2 M961.6,615.2H894v68.5h67.6V615.2 M1031.6,615.2h-67v68.5h67V615.2 M1100.6,615.2H1033v68.5h67.6V615.2 M1167.6,615.2H1102
		v68.5h65.6V615.2 M1234.8,615.2H1169v68.5h65.8V615.2 M1303.6,615.2h-66v68.5h66V615.2 M1370.4,615.2H1305v68.5h65.4V615.2
		 M1438.6,615.2h-66.8v68.5h66.8V615.2 M1504.6,615.2H1440v68.5h64.6V615.2 M1574.6,615.2h-67.2v68.5h67.2V615.2 M1633.3,615.2H1576
		v68.5h57.3V615.2 M1700.6,615.2h-65.9v68.5h65.9V615.2 M1767.5,615.2H1702v68.5h65.5V615.2 M1837.6,615.2h-67.3v68.5h67.3V615.2
		 M1907.2,615.2H1839v68.5h68.2V615.2 M86.6,544.9h-67v68.9h67V544.9 M155.7,544.9H88v68.9h67.7V544.9 M222.6,544.9h-64.1v68.9h64.1
		V544.9 M290.6,544.9H224v68.9h66.6V544.9 M353.6,544.9H292v68.9h61.6V544.9 M417.1,544.9H355v68.9h62.1V544.9 M485.6,544.9h-65.7
		v68.9h65.7V544.9 M551.9,544.9H487v68.9h64.9V544.9 M618.6,544.9h-65.3v68.9h65.3V544.9 M685.4,544.9H620v68.9h65.4V544.9
		 M755.6,544.9h-67.4v68.9h67.4V544.9 M820.2,544.9H757v68.9h63.2V544.9 M892.6,544.9h-71v68.9h71V544.9 M961.6,544.9H894v68.9h67.6
		V544.9 M1031.6,544.9h-67v68.9h67V544.9 M1100.6,544.9H1033v68.9h67.6V544.9 M1167.6,544.9H1102v68.9h65.6V544.9 M1234.8,544.9
		H1169v68.9h65.8V544.9 M1303.6,544.9h-66v68.9h66V544.9 M1370.4,544.9H1305v68.9h65.4V544.9 M1438.6,544.9h-66.8v68.9h66.8V544.9
		 M1504.6,544.9H1440v68.9h64.6V544.9 M1574.6,544.9h-67.2v68.9h67.2V544.9 M1633.3,544.9H1576v68.9h57.3V544.9 M1700.6,544.9h-65.9
		v68.9h65.9V544.9 M1767.5,544.9H1702v68.9h65.5V544.9 M1837.6,544.9h-67.3v68.9h67.3V544.9 M1907.2,544.9H1839v68.9h68.2V544.9
		 M485.6,480.6h-65.7v60.1h65.7V480.6 M551.9,480.6H487v60.1h64.9V480.6 M618.6,480.6h-65.3v60.1h65.3V480.6 M685.4,480.6H620v60.1
		h65.4V480.6 M755.6,480.6h-67.4v60.1h67.4V480.6 M820.2,480.6H757v60.1h63.2V480.6 M86.6,476.2h-67v64.6h67V476.2 M155.7,476.2H88
		v64.6h67.7V476.2 M222.6,476.2h-64.1v64.6h64.1V476.2 M290.6,476.2H224v64.6h66.6V476.2 M353.6,476.2H292v64.6h61.6V476.2
		 M378.8,476.2H355v64.6h62.1v-60.1h-38.3V476.2 M892.6,476.2h-22.5v4.5h-48.5v60.1h71V476.2 M961.6,476.2H894v64.6h67.6V476.2
		 M1031.6,476.2h-67v64.6h67V476.2 M1100.6,476.2H1033v64.6h67.6V476.2 M1167.6,476.2H1102v64.6h65.6V476.2 M1234.8,476.2H1169v64.6
		h65.8V476.2 M1303.6,476.2h-66v64.6h66V476.2 M1370.4,476.2H1305v64.6h65.4V476.2 M1438.6,476.2h-66.8v64.6h66.8V476.2
		 M1504.6,476.2H1440v64.6h64.6V476.2 M1574.6,476.2h-67.2v64.6h67.2V476.2 M1633.3,476.2H1576v64.6h57.3V476.2 M1700.6,476.2h-65.9
		v64.6h65.9V476.2 M1767.5,476.2H1702v64.6h65.5V476.2 M1837.6,476.2h-67.3v64.6h67.3V476.2 M1907.2,476.2H1839v64.6h68.2V476.2
		 M86.6,404.7h-67v70.1h67V404.7 M155.7,404.7H88v70.1h67.7V404.7 M222.6,404.7h-64.1v70.1h64.1V404.7 M290.6,404.7H224v70.1h66.6
		V404.7 M353.6,404.7H292v70.1h61.6V404.7 M378.8,404.7H355v70.1h23.8V404.7 M892.6,404.7h-22.5v70.1h22.5V404.7 M961.6,404.7H894
		v70.1h67.6V404.7 M1031.6,404.7h-67v70.1h67V404.7 M1100.6,404.7H1033v70.1h67.6V404.7 M1167.6,404.7H1102v70.1h65.6V404.7
		 M1234.8,404.7H1169v70.1h65.8V404.7 M1303.6,404.7h-66v70.1h66V404.7 M1370.4,404.7H1305v70.1h65.4V404.7 M1438.6,404.7h-66.8
		v70.1h66.8V404.7 M1504.6,404.7H1440v70.1h64.6V404.7 M1574.6,404.7h-67.2v70.1h67.2V404.7 M1633.3,404.7H1576v70.1h57.3V404.7
		 M1700.6,404.7h-65.9v70.1h65.9V404.7 M1767.5,404.7H1702v70.1h65.5V404.7 M1837.6,404.7h-67.3v70.1h67.3V404.7 M1907.2,404.7H1839
		v70.1h68.2V404.7 M892.6,390h-22.5v13.2h22.5V390 M961.6,390H894v13.2h67.6V390 M353.6,385.6H292v17.7h61.6V385.6 M86.6,339.2h-67
		v64.1h67V339.2 M155.7,339.2H88v64.1h67.7V339.2 M222.6,339.2h-64.1v64.1h64.1V339.2 M224,339.2L224,339.2v64.1h66.6v-17.7H224
		V339.2 M378.8,339.2h-2.9v46.4h-21v17.7h23.8V339.2 M1031.6,339.2h-15.5V390h-51.5v13.2h67V339.2 M1100.6,339.2H1033v64.1h67.6
		V339.2 M1167.6,339.2H1102v64.1h65.6V339.2 M1234.8,339.2H1169v64.1h65.8V339.2 M1303.6,339.2h-66v64.1h66V339.2 M1370.4,339.2
		H1305v64.1h65.4V339.2 M1438.6,339.2h-66.8v64.1h66.8V339.2 M1504.6,339.2H1440v64.1h64.6V339.2 M1574.6,339.2h-67.2v64.1h67.2
		V339.2 M1633.3,339.2H1576v64.1h57.3V339.2 M1700.6,339.2h-65.9v64.1h65.9V339.2 M1767.5,339.2H1702v64.1h65.5V339.2 M1837.6,339.2
		h-67.3v64.1h67.3V339.2 M1907.2,339.2H1839v64.1h68.2V339.2 M86.6,271.3h-67v66.5h67V271.3 M155.7,271.3H88v66.5h67.7V271.3
		 M222.6,271.3h-64.1v66.5h64.1V271.3 M290.6,271.3H224v66.5v-58.5h66.6V271.3 M353.6,271.3H292v8h61.6V271.3 M378.8,271.3H355v8h21
		v58.5h2.9V271.3 M892.6,271.3h-22.5v12.5h22.5V271.3 M961.6,271.3H894v12.5h67.6V271.3 M1031.6,271.3h-67v12.5h51.5v54h15.5V271.3
		 M1100.6,271.3H1033v66.5h67.6V271.3 M1167.6,271.3H1102v66.5h65.6V271.3 M1234.8,271.3H1169v66.5h65.8V271.3 M1303.6,271.3h-66
		v66.5h66V271.3 M1370.4,271.3H1305v66.5h65.4V271.3 M1438.6,271.3h-66.8v66.5h66.8V271.3 M1504.6,271.3H1440v66.5h64.6V271.3
		 M1574.6,271.3h-67.2v66.5h67.2V271.3 M1633.3,271.3H1576v66.5h57.3V271.3 M1700.6,271.3h-65.9v66.5h65.9V271.3 M1767.5,271.3H1702
		v66.5h65.5V271.3 M1837.6,271.3h-67.3v66.5h67.3V271.3 M1907.2,271.3H1839v66.5h68.2V271.3 M86.6,202.2h-67v66.3h67V202.2
		 M155.7,202.2H88v66.3h67.7V202.2 M222.6,202.2h-64.1v66.3h64.1V202.2 M290.6,202.2H224v66.3h66.6V202.2 M353.6,202.2H292v66.3
		h61.6V202.2 M378.8,202.2H355v66.3h23.8V202.2 M892.6,202.2h-22.5v66.3h22.5V202.2 M961.6,202.2H894v66.3h67.6V202.2 M1031.6,202.2
		h-67v66.3h67V202.2 M1100.6,202.2H1033v66.3h67.6V202.2 M1167.6,202.2H1102v66.3h65.6V202.2 M1234.8,202.2H1169v66.3h65.8V202.2
		 M1303.6,202.2h-66v66.3h66V202.2 M1370.4,202.2H1305v66.3h65.4V202.2 M1438.6,202.2h-66.8v66.3h66.8V202.2 M1504.6,202.2H1440
		v66.3h64.6V202.2 M1574.6,202.2h-67.2v66.3h67.2V202.2 M1633.3,202.2H1576v66.3h57.3V202.2 M1700.6,202.2h-65.9v66.3h65.9V202.2
		 M1767.5,202.2H1702v66.3h65.5V202.2 M1837.6,202.2h-67.3v66.3h67.3V202.2 M1907.2,202.2H1839v66.3h68.2V202.2 M86.6,136.4h-67
		v64.4h67V136.4 M155.7,136.4H88v64.4h67.7V136.4 M222.6,136.4h-64.1v64.4h64.1V136.4 M290.6,136.4H224v64.4h66.6V136.4
		 M353.6,136.4H292v64.4h61.6V136.4 M417.1,136.4H355v64.4h23.8v-3.1h38.3V136.4 M485.6,136.4h-65.7v61.3h65.7V136.4 M551.9,136.4
		H487v61.3h64.9V136.4 M618.6,136.4h-65.3v61.3h65.3V136.4 M685.4,136.4H620v61.3h65.4V136.4 M755.6,136.4h-67.4v61.3h67.4V136.4
		 M820.2,136.4H757v61.3h63.2V136.4 M892.6,136.4h-71v61.3h48.5v3.1h22.5V136.4 M961.6,136.4H894v64.4h67.6V136.4 M1031.6,136.4h-67
		v64.4h67V136.4 M1100.6,136.4H1033v64.4h67.6V136.4 M1167.6,136.4H1102v64.4h65.6V136.4 M1234.8,136.4H1169v64.4h65.8V136.4
		 M1303.6,136.4h-66v64.4h66V136.4 M1370.4,136.4H1305v64.4h65.4V136.4 M1438.6,136.4h-66.8v64.4h66.8V136.4 M1504.6,136.4H1440
		v64.4h64.6V136.4 M1574.6,136.4h-67.2v64.4h67.2V136.4 M1633.3,136.4H1576v64.4h57.3V136.4 M1700.6,136.4h-65.9v64.4h65.9V136.4
		 M1767.5,136.4H1702v64.4h65.5V136.4 M1837.6,136.4h-67.3v64.4h67.3V136.4 M1907.2,136.4H1839v64.4h68.2V136.4"/>
	<path class="st0" d="M86.6-1.1h-84V0h1v-0.1h14.6v-0.4h1.4v0.4h67V-1.1 M155.7-1.1H88v1h67.7V-1.1 M222.6-1.1h-64.1v1h64.1V-1.1
		 M290.6-1.1H224v1h66.6V-1.1 M353.6-1.1H292v1h61.6V-1.1 M485.6-1.1H355v1h62.1v-0.4h2.8v0.4h65.7V-1.1 M618.6-1.1H487v1h64.9v-0.4
		h1.4v0.4h65.3V-1.1 M755.6-1.1H620v1h65.4v-0.4h2.8v0.4h67.4V-1.1 M892.6-1.1H757v1h63.2v-0.4h1.4v0.4h71V-1.1 M961.6-1.1H894v1
		h67.6V-1.1 M1100.6-1.1h-136v1h67V-1h1.4v0.9h67.6V-1.1 M1234.8-1.1H1102v1h65.6V-1h1.4v0.9h65.8V-1.1 M1303.6-1.1h-66v1h66V-1.1
		 M1370.4-1.1H1305v1h65.4V-1.1 M1438.6-1.1h-66.8v1h66.8V-1.1 M1504.6-1.1H1440v1h64.6V-1.1 M1574.6-1.1h-67.2v1h67.2V-1.1
		 M1700.6-1.1H1576v1h57.3h1.4h65.9V-1.1 M1837.6-1.1H1702v1h65.5h2.8h67.3V-1.1 M1907.2-1.1H1839v1h68.2V-1.1 M1922.6-1.1h-14v1h13
		V135v1.4v132.1v2.8v66.5v1.4v64.1v1.4v136.1h1V-1.1"/>
	<polyline points="3.6,0 2.6,0 2.6,1078.9 18.2,1078.9 18.2,1077.9 3.6,1077.9 3.6,1022.2 3.5,1022.2 3.5,1020.8 3.6,1020.8 
		3.6,751.2 2.6,751.2 2.6,749.8 3.6,749.8 3.6,615.2 2.6,615.2 2.6,613.8 3.6,613.8 3.6,544.9 2.6,544.9 2.6,540.8 3.6,540.8 
		3.6,404.7 2.6,404.7 2.6,403.3 3.6,403.3 3.6,271.3 2.6,271.3 2.6,268.5 3.6,268.5 3.6,136.4 2.6,136.4 2.6,135 3.6,135 3.6,0 	"/>
	<path class="st0" d="M1922.6,954.9h-1v123h-2.6v1h3.6V954.9 M1922.6,820.7h-1v132.8h1V820.7 M1922.6,685.1h-1v132.8h1V685.1
		 M1922.6,544.9h-1v138.8h1V544.9"/>
	<path d="M417.1,1077.9H292v0.6h-1.4v-0.6H224v0.8h-1.4v-0.8h-64.1v0.6h-2.8v-0.6H88v0.8h-1.4v-0.8h-67v1h397.5V1077.9
		 M551.9,1077.9H487v0.3h-1.4v-0.3h-65.7v1h132V1077.9 M685.4,1077.9H620v0.3h-1.4v-0.3h-65.3v1h132.1V1077.9 M820.2,1077.9h-132v1
		h132V1077.9 M1031.6,1077.9h-67v1h-3v-1h-140v1h210V1077.9 M1167.6,1077.9H1102v1h-1.4v-1H1033v1h134.6V1077.9 M1633.3,1077.9H1576
		v0.6h-1.4v-0.6h-67.2v1h-2.8v-1H1440v0.6h-1.4v-0.6h-66.8v1h-1.4v-1H1305v0.1h-1.4v-0.1h-66v1h-2.8v-1H1169v1h464.3V1077.9
		 M1767.5,1077.9h-132.8v1h132.8V1077.9 M1919,1077.9h-10.4v1h-1.4v-1H1839v0.1h-1.4v-0.1h-67.3v1H1919V1077.9"/>
	<polyline class="st1" points="1919.8,67.8 1919,67.8 1919,69.2 1919.8,69.2 1919.8,67.8 	"/>
	<path class="st2" d="M18.2,67.8H3.9v1.4h14.3V67.8 M86.6,67.8h-67v1.4h67V67.8 M155.7,67.8H88v1.4h67.7V67.8 M222.6,67.8h-64.1v1.4
		h64.1V67.8 M1767.5,67.8h-51.7v1.4h51.7V67.8 M1837.6,67.8h-67.3v1.4h67.3V67.8 M1907.2,67.8H1839v1.4h68.2V67.8 M1919,67.8h-10.4
		v1.4h10.4V67.8"/>
	<polyline class="st1" points="1919.8,200.8 1919,200.8 1919,202.2 1919.8,202.2 1919.8,200.8 	"/>
	<path class="st2" d="M18.2,200.8H3.9v1.4h14.3V200.8 M86.6,200.8h-67v1.4h67V200.8 M155.7,200.8H88v1.4h67.7V200.8 M222.6,200.8
		h-64.1v1.4h64.1V200.8 M290.6,200.8H224v1.4h66.6V200.8 M353.6,200.8H292v1.4h61.6V200.8 M378.8,200.8H355v1.4h23.8V200.8
		 M892.6,200.8h-22.5v1.4h22.5V200.8 M961.6,200.8H894v1.4h67.6V200.8 M1031.6,200.8h-67v1.4h67V200.8 M1100.6,200.8H1033v1.4h67.6
		V200.8 M1167.6,200.8H1102v1.4h65.6V200.8 M1234.8,200.8H1169v1.4h65.8V200.8 M1303.6,200.8h-66v1.4h66V200.8 M1370.4,200.8H1305
		v1.4h65.4V200.8 M1438.6,200.8h-66.8v1.4h66.8V200.8 M1504.6,200.8H1440v1.4h64.6V200.8 M1574.6,200.8h-67.2v1.4h67.2V200.8
		 M1633.3,200.8H1576v1.4h57.3V200.8 M1700.6,200.8h-65.9v1.4h65.9V200.8 M1767.5,200.8H1702v1.4h65.5V200.8 M1837.6,200.8h-67.3
		v1.4h67.3V200.8 M1907.2,200.8H1839v1.4h68.2V200.8 M1919,200.8h-10.4v1.4h10.4V200.8"/>
	<polyline class="st1" points="1921.6,337.8 1921.6,337.8 1919,337.8 1919,339.2 1921.6,339.2 1921.6,337.8 	"/>
	<path class="st2" d="M18.2,337.8H5.7v1.4h12.5V337.8 M86.6,337.8h-67v1.4h67V337.8 M155.7,337.8H88v1.4h67.7V337.8 M222.6,337.8
		h-64.1v1.4h64.1V337.8 M378.8,337.8h-2.9v1.4h2.9V337.8 M1031.6,337.8h-15.5v1.4h15.5V337.8 M1100.6,337.8H1033v1.4h67.6V337.8
		 M1167.6,337.8H1102v1.4h65.6V337.8 M1234.8,337.8H1169v1.4h65.8V337.8 M1303.6,337.8h-66v1.4h66V337.8 M1370.4,337.8H1305v1.4
		h65.4V337.8 M1438.6,337.8h-66.8v1.4h66.8V337.8 M1504.6,337.8H1440v1.4h64.6V337.8 M1574.6,337.8h-67.2v1.4h67.2V337.8
		 M1633.3,337.8H1576v1.4h57.3V337.8 M1700.6,337.8h-65.9v1.4h65.9V337.8 M1767.5,337.8H1702v1.4h65.5V337.8 M1837.6,337.8h-67.3
		v1.4h67.3V337.8 M1907.2,337.8H1839v1.4h68.2V337.8 M1919,337.8h-10.4v1.4h10.4V337.8"/>
	<polyline class="st1" points="1920.7,474.8 1919,474.8 1919,476.2 1920.7,476.2 1920.7,474.8 	"/>
	<path class="st2" d="M18.2,474.8H4.8v1.4h13.4V474.8 M86.6,474.8h-67v1.4h67V474.8 M155.7,474.8H88v1.4h67.7V474.8 M222.6,474.8
		h-64.1v1.4h64.1V474.8 M290.6,474.8H224v1.4h66.6V474.8 M353.6,474.8H292v1.4h61.6V474.8 M378.8,474.8H355v1.4h23.8V474.8
		 M892.6,474.8h-22.5v1.4h22.5V474.8 M961.6,474.8H894v1.4h67.6V474.8 M1031.6,474.8h-67v1.4h67V474.8 M1100.6,474.8H1033v1.4h67.6
		V474.8 M1167.6,474.8H1102v1.4h65.6V474.8 M1234.8,474.8H1169v1.4h65.8V474.8 M1303.6,474.8h-66v1.4h66V474.8 M1370.4,474.8H1305
		v1.4h65.4V474.8 M1438.6,474.8h-66.8v1.4h66.8V474.8 M1504.6,474.8H1440v1.4h64.6V474.8 M1574.6,474.8h-67.2v1.4h67.2V474.8
		 M1633.3,474.8H1576v1.4h57.3V474.8 M1700.6,474.8h-65.9v1.4h65.9V474.8 M1767.5,474.8H1702v1.4h65.5V474.8 M1837.6,474.8h-67.3
		v1.4h67.3V474.8 M1907.2,474.8H1839v1.4h68.2V474.8 M1919,474.8h-10.4v1.4h10.4V474.8"/>
	<path class="st2" d="M18.2,613.8H3.6h-1v1.4h1h14.6V613.8 M86.6,613.8h-67v1.4h67V613.8 M155.7,613.8H88v1.4h67.7V613.8
		 M222.6,613.8h-64.1v1.4h64.1V613.8 M290.6,613.8H224v1.4h66.6V613.8 M353.6,613.8H292v1.4h61.6V613.8 M417.1,613.8H355v1.4h62.1
		V613.8 M485.6,613.8h-65.7v1.4h65.7V613.8 M551.9,613.8H487v1.4h64.9V613.8 M618.6,613.8h-65.3v1.4h65.3V613.8 M685.4,613.8H620
		v1.4h65.4V613.8 M755.6,613.8h-67.4v1.4h67.4V613.8 M820.2,613.8H757v1.4h63.2V613.8 M892.6,613.8h-71v1.4h71V613.8 M961.6,613.8
		H894v1.4h67.6V613.8 M1031.6,613.8h-67v1.4h67V613.8 M1100.6,613.8H1033v1.4h67.6V613.8 M1167.6,613.8H1102v1.4h65.6V613.8
		 M1234.8,613.8H1169v1.4h65.8V613.8 M1303.6,613.8h-66v1.4h66V613.8 M1370.4,613.8H1305v1.4h65.4V613.8 M1438.6,613.8h-66.8v1.4
		h66.8V613.8 M1504.6,613.8H1440v1.4h64.6V613.8 M1574.6,613.8h-67.2v1.4h67.2V613.8 M1633.3,613.8H1576v1.4h57.3V613.8
		 M1700.6,613.8h-65.9v1.4h65.9V613.8 M1767.5,613.8H1702v1.4h65.5V613.8 M1837.6,613.8h-67.3v1.4h67.3V613.8 M1907.2,613.8H1839
		v1.4h68.2V613.8 M1918.5,613.8h-9.9v1.4h9.9V613.8"/>
	<path class="st2" d="M18.2,749.8H3.6h-1v1.4h1h14.6V749.8 M86.6,749.8h-67v1.4h67V749.8 M155.7,749.8H88v1.4h67.7V749.8
		 M222.6,749.8h-64.1v1.4h64.1V749.8 M290.6,749.8H224v1.4h66.6V749.8 M353.6,749.8H292v1.4h61.6V749.8 M417.1,749.8H355v1.4h62.1
		V749.8 M485.6,749.8h-65.7v1.4h65.7V749.8 M551.9,749.8H487v1.4h64.9V749.8 M618.6,749.8h-65.3v1.4h65.3V749.8 M685.4,749.8H620
		v1.4h65.4V749.8 M755.6,749.8h-67.4v1.4h67.4V749.8 M820.2,749.8H757v1.4h63.2V749.8 M892.6,749.8h-71v1.4h71V749.8 M961.6,749.8
		H894v1.4h67.6V749.8 M1031.6,749.8h-67v1.4h67V749.8 M1100.6,749.8H1033v1.4h67.6V749.8 M1167.6,749.8H1102v1.4h65.6V749.8
		 M1234.8,749.8H1169v1.4h65.8V749.8 M1303.6,749.8h-66v1.4h66V749.8 M1370.4,749.8H1305v1.4h65.4V749.8 M1438.6,749.8h-66.8v1.4
		h66.8V749.8 M1504.6,749.8H1440v1.4h64.6V749.8 M1574.6,749.8h-67.2v1.4h67.2V749.8 M1633.3,749.8H1576v1.4h57.3V749.8
		 M1700.6,749.8h-65.9v1.4h65.9V749.8 M1767.5,749.8H1702v1.4h65.5V749.8 M1837.6,749.8h-67.3v1.4h67.3V749.8 M1907.2,749.8H1839
		v1.4h68.2V749.8 M1918.5,749.8h-9.9v1.4h9.9V749.8"/>
	<polyline class="st1" points="1920.3,885.8 1919,885.8 1919,887.2 1920.3,887.2 1920.3,885.8 	"/>
	<path class="st2" d="M18.2,885.8H4.4v1.4h13.8V885.8 M86.6,885.8h-67v1.4h67V885.8 M155.7,885.8H88v1.4h67.7V885.8 M222.6,885.8
		h-64.1v1.4h64.1V885.8 M290.6,885.8H224v1.4h66.6V885.8 M353.6,885.8H292v1.4h61.6V885.8 M417.1,885.8H355v1.4h62.1V885.8
		 M485.6,885.8h-65.7v1.4h65.7V885.8 M551.9,885.8H487v1.4h64.9V885.8 M618.6,885.8h-65.3v1.4h65.3V885.8 M685.4,885.8H620v1.4h65.4
		V885.8 M755.6,885.8h-67.4v1.4h67.4V885.8 M820.2,885.8H757v1.4h63.2V885.8 M892.6,885.8h-71v1.4h71V885.8 M961.6,885.8H894v1.4
		h67.6V885.8 M1031.6,885.8h-67v1.4h67V885.8 M1100.6,885.8H1033v1.4h67.6V885.8 M1167.6,885.8H1102v1.4h65.6V885.8 M1234.8,885.8
		H1169v1.4h65.8V885.8 M1303.6,885.8h-66v1.4h66V885.8 M1370.4,885.8H1305v1.4h65.4V885.8 M1438.6,885.8h-66.8v1.4h66.8V885.8
		 M1504.6,885.8H1440v1.4h64.6V885.8 M1574.6,885.8h-67.2v1.4h67.2V885.8 M1633.3,885.8H1576v1.4h57.3V885.8 M1700.6,885.8h-65.9
		v1.4h65.9V885.8 M1767.5,885.8H1702v1.4h65.5V885.8 M1837.6,885.8h-67.3v1.4h67.3V885.8 M1907.2,885.8H1839v1.4h68.2V885.8
		 M1919,885.8h-10.4v1.4h10.4V885.8"/>
	<polyline class="st1" points="1919.4,1020.8 1919,1020.8 1919,1022.2 1919.4,1022.2 1919.4,1020.8 	"/>
	<path class="st2" d="M18.2,1020.8H3.6H3.5v1.4h0.1h14.6V1020.8 M86.6,1020.8h-67v1.4h67V1020.8 M155.7,1020.8H88v1.4h67.7V1020.8
		 M222.6,1020.8h-64.1v1.4h64.1V1020.8 M290.6,1020.8H224v1.4h66.6V1020.8 M353.6,1020.8H292v1.4h61.6V1020.8 M417.1,1020.8H355v1.4
		h62.1V1020.8 M485.6,1020.8h-65.7v1.4h65.7V1020.8 M551.9,1020.8H487v1.4h64.9V1020.8 M618.6,1020.8h-65.3v1.4h65.3V1020.8
		 M685.4,1020.8H620v1.4h65.4V1020.8 M755.6,1020.8h-67.4v1.4h67.4V1020.8 M820.2,1020.8H757v1.4h63.2V1020.8 M892.6,1020.8h-71v1.4
		h71V1020.8 M961.6,1020.8H894v1.4h67.6V1020.8 M1031.6,1020.8h-67v1.4h67V1020.8 M1100.6,1020.8H1033v1.4h67.6V1020.8
		 M1167.6,1020.8H1102v1.4h65.6V1020.8 M1234.8,1020.8H1169v1.4h65.8V1020.8 M1303.6,1020.8h-66v1.4h66V1020.8 M1370.4,1020.8H1305
		v1.4h65.4V1020.8 M1438.6,1020.8h-66.8v1.4h66.8V1020.8 M1504.6,1020.8H1440v1.4h64.6V1020.8 M1574.6,1020.8h-67.2v1.4h67.2V1020.8
		 M1633.3,1020.8H1576v1.4h57.3V1020.8 M1700.6,1020.8h-65.9v1.4h65.9V1020.8 M1767.5,1020.8H1702v1.4h65.5V1020.8 M1837.6,1020.8
		h-67.3v1.4h67.3V1020.8 M1907.2,1020.8H1839v1.4h68.2V1020.8 M1919,1020.8h-10.4v1.4h10.4V1020.8"/>
	<polyline class="st1" points="88,-1.3 86.6,-1.3 86.6,-1.1 86.6,-0.1 86.6,0 88,0 88,-0.1 88,-1.1 88,-1.3 	"/>
	<path class="st2" d="M88,954.9h-1.4v65.9v1.4v55.7v0.8H88v-0.8v-55.7v-1.4V954.9 M88,820.7h-1.4v65.1v1.4v66.3H88v-66.3v-1.4V820.7
		 M88,685.1h-1.4v64.7v1.4v66.7H88v-66.7v-1.4V685.1 M88,544.9h-1.4v68.9v1.4v68.5H88v-68.5v-1.4V544.9 M88,404.7h-1.4v70.1v1.4
		v64.6H88v-64.6v-1.4V404.7 M88,271.3h-1.4v66.5v1.4v64.1H88v-64.1v-1.4V271.3 M88,136.4h-1.4v64.4v1.4v66.3H88v-66.3v-1.4V136.4
		 M88,0h-1.4v67.8v1.4V135H88V69.2v-1.4V0"/>
	<polyline class="st1" points="224,-1.3 222.6,-1.3 222.6,-1.1 222.6,-0.1 222.6,0 224,0 224,-0.1 224,-1.1 224,-1.3 	"/>
	<path class="st2" d="M224,954.9h-1.4v65.9v1.4v55.7v0.8h1.4v-0.8v-55.7v-1.4V954.9 M224,820.7h-1.4v65.1v1.4v66.3h1.4v-66.3v-1.4
		V820.7 M224,685.1h-1.4v64.7v1.4v66.7h1.4v-66.7v-1.4V685.1 M224,544.9h-1.4v68.9v1.4v68.5h1.4v-68.5v-1.4V544.9 M224,404.7h-1.4
		v70.1v1.4v64.6h1.4v-64.6v-1.4V404.7 M224,271.3h-1.4v66.5v1.4v64.1h1.4v-64.1v-1.4V271.3 M224,136.4h-1.4v64.4v1.4v66.3h1.4v-66.3
		v-1.4V136.4 M224,0h-1.4v67.8v1.4V135h1.4V69.2v-1.4V0"/>
	<polyline class="st1" points="355,-2.3 353.6,-2.3 353.6,-1.1 353.6,-0.1 353.6,0 355,0 355,-0.1 355,-1.1 355,-2.3 	"/>
	<path class="st2" d="M355,954.9h-1.4v65.9v1.4v55.5h1.4v-55.5v-1.4V954.9 M355,820.7h-1.4v65.1v1.4v66.3h1.4v-66.3v-1.4V820.7
		 M355,685.1h-1.4v64.7v1.4v66.7h1.4v-66.7v-1.4V685.1 M355,544.9h-1.4v68.9v1.4v68.5h1.4v-68.5v-1.4V544.9 M355,404.7h-1.4v70.1
		v1.4v64.6h1.4v-64.6v-1.4V404.7 M355,385.6h-1.4v17.7h1.4V385.6 M355,271.3h-1.4v8h1.4V271.3 M355,136.4h-1.4v64.4v1.4v66.3h1.4
		v-66.3v-1.4V136.4 M355,132.2h-1.4v2.7h1.4V132.2 M355,0h-1.4v25.9h1.4V0"/>
	<polyline class="st1" points="487,-1.8 485.6,-1.8 485.6,-1.1 485.6,-0.1 485.6,0 487,0 487,-0.1 487,-1.1 487,-1.8 	"/>
	<path class="st2" d="M487,954.9h-1.4v65.9v1.4v55.7v0.3h1.4v-0.3v-55.7v-1.4V954.9 M487,820.7h-1.4v65.1v1.4v66.3h1.4v-66.3v-1.4
		V820.7 M487,685.1h-1.4v64.7v1.4v66.7h1.4v-66.7v-1.4V685.1 M487,544.9h-1.4v68.9v1.4v68.5h1.4v-68.5v-1.4V544.9 M487,480.6h-1.4
		v60.1h1.4V480.6 M487,136.4h-1.4v61.3h1.4V136.4 M487,132.2h-1.4v2.7h1.4V132.2 M487,0h-1.4v25.9h1.4V0"/>
	<polyline class="st1" points="620,-1.8 618.6,-1.8 618.6,-1.1 618.6,-0.1 618.6,0 620,0 620,-0.1 620,-1.1 620,-1.8 	"/>
	<path class="st2" d="M620,954.9h-1.4v65.9v1.4v55.7v0.3h1.4v-0.3v-55.7v-1.4V954.9 M620,820.7h-1.4v65.1v1.4v66.3h1.4v-66.3v-1.4
		V820.7 M620,685.1h-1.4v64.7v1.4v66.7h1.4v-66.7v-1.4V685.1 M620,544.9h-1.4v68.9v1.4v68.5h1.4v-68.5v-1.4V544.9 M620,480.6h-1.4
		v60.1h1.4V480.6 M620,136.4h-1.4v61.3h1.4V136.4 M620,132.2h-1.4v2.7h1.4V132.2 M620,0h-1.4v25.9h1.4V0"/>
	<polyline class="st1" points="757,-2.8 755.6,-2.8 755.6,-1.1 755.6,-0.1 755.6,0 757,0 757,-0.1 757,-1.1 757,-2.8 	"/>
	<path class="st2" d="M757,954.9h-1.4v65.9v1.4v55h1.4v-55v-1.4V954.9 M757,820.7h-1.4v65.1v1.4v66.3h1.4v-66.3v-1.4V820.7
		 M757,685.1h-1.4v64.7v1.4v66.7h1.4v-66.7v-1.4V685.1 M757,544.9h-1.4v68.9v1.4v68.5h1.4v-68.5v-1.4V544.9 M757,480.6h-1.4v60.1
		h1.4V480.6 M757,136.4h-1.4v61.3h1.4V136.4 M757,132.2h-1.4v2.7h1.4V132.2 M757,0h-1.4v25.9h1.4V0"/>
	<polyline class="st1" points="894,-2.3 892.6,-2.3 892.6,-1.1 892.6,-0.1 892.6,0 894,0 894,-0.1 894,-1.1 894,-2.3 	"/>
	<path class="st2" d="M894,954.9h-1.4v65.9v1.4v55.5h1.4v-55.5v-1.4V954.9 M894,820.7h-1.4v65.1v1.4v66.3h1.4v-66.3v-1.4V820.7
		 M894,685.1h-1.4v64.7v1.4v66.7h1.4v-66.7v-1.4V685.1 M894,544.9h-1.4v68.9v1.4v68.5h1.4v-68.5v-1.4V544.9 M894,404.7h-1.4v70.1
		v1.4v64.6h1.4v-64.6v-1.4V404.7 M894,390h-1.4v13.2h1.4V390 M894,271.3h-1.4v12.5h1.4V271.3 M894,136.4h-1.4v64.4v1.4v66.3h1.4
		v-66.3v-1.4V136.4 M894,132.2h-1.4v2.7h1.4V132.2 M894,0h-1.4v25.9h1.4V0"/>
	<path class="st2" d="M1033,132.2h-1.4v2.7h1.4V132.2 M1033,0h-1.4v25.9h1.4V0"/>
	<polyline class="st1" points="1033,-1 1031.6,-1 1031.6,-0.1 1031.6,0 1033,0 1033,-0.1 1033,-1 	"/>
	<path class="st2" d="M1033,954.9h-1.4v65.9v1.4v55.7v1v0.1h1.4v-0.1v-1v-55.7v-1.4V954.9 M1033,820.7h-1.4v65.1v1.4v66.3h1.4v-66.3
		v-1.4V820.7 M1033,685.1h-1.4v64.7v1.4v66.7h1.4v-66.7v-1.4V685.1 M1033,544.9h-1.4v68.9v1.4v68.5h1.4v-68.5v-1.4V544.9
		 M1033,404.7h-1.4v70.1v1.4v64.6h1.4v-64.6v-1.4V404.7 M1033,271.3h-1.4v66.5v1.4v64.1h1.4v-64.1v-1.4V271.3 M1033,136.4h-1.4v64.4
		v1.4v66.3h1.4v-66.3v-1.4V136.4"/>
	<path class="st2" d="M1169,132.2h-1.4v2.7h1.4V132.2 M1169,0h-1.4v25.9h1.4V0"/>
	<polyline class="st1" points="1169,-1 1167.6,-1 1167.6,-0.1 1167.6,0 1169,0 1169,-0.1 1169,-1 	"/>
	<path class="st2" d="M1169,954.9h-1.4v65.9v1.4v55.7v1v0.1h1.4v-0.1v-1v-55.7v-1.4V954.9 M1169,820.7h-1.4v65.1v1.4v66.3h1.4v-66.3
		v-1.4V820.7 M1169,685.1h-1.4v64.7v1.4v66.7h1.4v-66.7v-1.4V685.1 M1169,544.9h-1.4v68.9v1.4v68.5h1.4v-68.5v-1.4V544.9
		 M1169,404.7h-1.4v70.1v1.4v64.6h1.4v-64.6v-1.4V404.7 M1169,271.3h-1.4v66.5v1.4v64.1h1.4v-64.1v-1.4V271.3 M1169,136.4h-1.4v64.4
		v1.4v66.3h1.4v-66.3v-1.4V136.4"/>
	<polyline class="st1" points="1305,-2 1303.6,-2 1303.6,-1.1 1303.6,-0.1 1303.6,0 1305,0 1305,-0.1 1305,-1.1 1305,-2 	"/>
	<path class="st2" d="M1305,954.9h-1.4v65.9v1.4v55.7v0.1h1.4v-0.1v-55.7v-1.4V954.9 M1305,820.7h-1.4v65.1v1.4v66.3h1.4v-66.3v-1.4
		V820.7 M1305,685.1h-1.4v64.7v1.4v66.7h1.4v-66.7v-1.4V685.1 M1305,544.9h-1.4v68.9v1.4v68.5h1.4v-68.5v-1.4V544.9 M1305,404.7
		h-1.4v70.1v1.4v64.6h1.4v-64.6v-1.4V404.7 M1305,271.3h-1.4v66.5v1.4v64.1h1.4v-64.1v-1.4V271.3 M1305,136.4h-1.4v64.4v1.4v66.3
		h1.4v-66.3v-1.4V136.4 M1305,132.2h-1.4v2.7h1.4V132.2 M1305,0h-1.4v25.9h1.4V0"/>
	<polyline class="st1" points="1440,-1.5 1438.6,-1.5 1438.6,-1.1 1438.6,-0.1 1438.6,0 1440,0 1440,-0.1 1440,-1.1 1440,-1.5 	"/>
	<path class="st2" d="M1440,954.9h-1.4v65.9v1.4v55.7v0.6h1.4v-0.6v-55.7v-1.4V954.9 M1440,820.7h-1.4v65.1v1.4v66.3h1.4v-66.3v-1.4
		V820.7 M1440,685.1h-1.4v64.7v1.4v66.7h1.4v-66.7v-1.4V685.1 M1440,544.9h-1.4v68.9v1.4v68.5h1.4v-68.5v-1.4V544.9 M1440,404.7
		h-1.4v70.1v1.4v64.6h1.4v-64.6v-1.4V404.7 M1440,271.3h-1.4v66.5v1.4v64.1h1.4v-64.1v-1.4V271.3 M1440,136.4h-1.4v64.4v1.4v66.3
		h1.4v-66.3v-1.4V136.4 M1440,132.2h-1.4v2.7h1.4V132.2 M1440,0h-1.4v25.9h1.4V0"/>
	<polyline class="st1" points="1576,-1.5 1574.6,-1.5 1574.6,-1.1 1574.6,-0.1 1574.6,0 1576,0 1576,-0.1 1576,-1.1 1576,-1.5 	"/>
	<path class="st2" d="M1576,954.9h-1.4v65.9v1.4v55.7v0.6h1.4v-0.6v-55.7v-1.4V954.9 M1576,820.7h-1.4v65.1v1.4v66.3h1.4v-66.3v-1.4
		V820.7 M1576,685.1h-1.4v64.7v1.4v66.7h1.4v-66.7v-1.4V685.1 M1576,544.9h-1.4v68.9v1.4v68.5h1.4v-68.5v-1.4V544.9 M1576,404.7
		h-1.4v70.1v1.4v64.6h1.4v-64.6v-1.4V404.7 M1576,271.3h-1.4v66.5v1.4v64.1h1.4v-64.1v-1.4V271.3 M1576,136.4h-1.4v64.4v1.4v66.3
		h1.4v-66.3v-1.4V136.4 M1576,132.2h-1.4v2.7h1.4V132.2 M1576,0h-1.4v25.9h1.4V0"/>
	<polyline class="st1" points="1702,-2.5 1700.6,-2.5 1700.6,-1.1 1700.6,-0.1 1700.6,0 1702,0 1702,-0.1 1702,-1.1 1702,-2.5 	"/>
	<path class="st2" d="M1702,954.9h-1.4v65.9v1.4v55.3h1.4v-55.3v-1.4V954.9 M1702,820.7h-1.4v65.1v1.4v66.3h1.4v-66.3v-1.4V820.7
		 M1702,685.1h-1.4v64.7v1.4v66.7h1.4v-66.7v-1.4V685.1 M1702,544.9h-1.4v68.9v1.4v68.5h1.4v-68.5v-1.4V544.9 M1702,404.7h-1.4v70.1
		v1.4v64.6h1.4v-64.6v-1.4V404.7 M1702,271.3h-1.4v66.5v1.4v64.1h1.4v-64.1v-1.4V271.3 M1702,136.4h-1.4v64.4v1.4v66.3h1.4v-66.3
		v-1.4V136.4 M1702,132.2h-1.4v2.7h1.4V132.2 M1702,0h-1.4v25.9h1.4V0"/>
	<polyline class="st1" points="1839,-2 1837.6,-2 1837.6,-1.1 1837.6,-0.1 1837.6,0 1839,0 1839,-0.1 1839,-1.1 1839,-2 	"/>
	<path class="st2" d="M1839,954.9h-1.4v65.9v1.4v55.7v0.1h1.4v-0.1v-55.7v-1.4V954.9 M1839,820.7h-1.4v65.1v1.4v66.3h1.4v-66.3v-1.4
		V820.7 M1839,685.1h-1.4v64.7v1.4v66.7h1.4v-66.7v-1.4V685.1 M1839,544.9h-1.4v68.9v1.4v68.5h1.4v-68.5v-1.4V544.9 M1839,404.7
		h-1.4v70.1v1.4v64.6h1.4v-64.6v-1.4V404.7 M1839,271.3h-1.4v66.5v1.4v64.1h1.4v-64.1v-1.4V271.3 M1839,136.4h-1.4v64.4v1.4v66.3
		h1.4v-66.3v-1.4V136.4 M1839,0h-1.4v67.8v1.4V135h1.4V69.2v-1.4V0"/>
	<polyline class="st3" points="1102,-1.1 1100.6,-1.1 1100.6,-0.1 1100.6,0 1102,0 1102,-0.1 1102,-1.1 	"/>
	<path class="st4" d="M1102,954.9h-1.4v65.9v1.4v55.7v1h1.4v-1v-55.7v-1.4V954.9 M1102,820.7h-1.4v65.1v1.4v66.3h1.4v-66.3v-1.4
		V820.7 M1102,685.1h-1.4v64.7v1.4v66.7h1.4v-66.7v-1.4V685.1 M1102,544.9h-1.4v68.9v1.4v68.5h1.4v-68.5v-1.4V544.9 M1102,404.7
		h-1.4v70.1v1.4v64.6h1.4v-64.6v-1.4V404.7 M1102,271.3h-1.4v66.5v1.4v64.1h1.4v-64.1v-1.4V271.3 M1102,136.4h-1.4v64.4v1.4v66.3
		h1.4v-66.3v-1.4V136.4 M1102,132.2h-1.4v2.7h1.4V132.2 M1102,0h-1.4v25.9h1.4V0"/>
	<polyline class="st3" points="1237.6,-1.1 1234.8,-1.1 1234.8,-0.1 1234.8,0 1237.6,0 1237.6,-0.1 1237.6,-1.1 	"/>
	<path class="st4" d="M1237.6,954.9h-2.8v65.9v1.4v55.7v1h2.8v-1v-55.7v-1.4V954.9 M1237.6,820.7h-2.8v65.1v1.4v66.3h2.8v-66.3v-1.4
		V820.7 M1237.6,685.1h-2.8v64.7v1.4v66.7h2.8v-66.7v-1.4V685.1 M1237.6,544.9h-2.8v68.9v1.4v68.5h2.8v-68.5v-1.4V544.9
		 M1237.6,404.7h-2.8v70.1v1.4v64.6h2.8v-64.6v-1.4V404.7 M1237.6,271.3h-2.8v66.5v1.4v64.1h2.8v-64.1v-1.4V271.3 M1237.6,136.4
		h-2.8v64.4v1.4v66.3h2.8v-66.3v-1.4V136.4 M1237.6,132.2h-2.8v2.7h2.8V132.2 M1237.6,0h-2.8v25.9h2.8V0"/>
	<polyline class="st3" points="1371.8,-1.1 1370.4,-1.1 1370.4,-0.1 1370.4,0 1371.8,0 1371.8,-0.1 1371.8,-1.1 	"/>
	<path class="st4" d="M1371.8,954.9h-1.4v65.9v1.4v55.7v1h1.4v-1v-55.7v-1.4V954.9 M1371.8,820.7h-1.4v65.1v1.4v66.3h1.4v-66.3v-1.4
		V820.7 M1371.8,685.1h-1.4v64.7v1.4v66.7h1.4v-66.7v-1.4V685.1 M1371.8,544.9h-1.4v68.9v1.4v68.5h1.4v-68.5v-1.4V544.9
		 M1371.8,404.7h-1.4v70.1v1.4v64.6h1.4v-64.6v-1.4V404.7 M1371.8,271.3h-1.4v66.5v1.4v64.1h1.4v-64.1v-1.4V271.3 M1371.8,136.4
		h-1.4v64.4v1.4v66.3h1.4v-66.3v-1.4V136.4 M1371.8,132.2h-1.4v2.7h1.4V132.2 M1371.8,0h-1.4v25.9h1.4V0"/>
	<polyline class="st3" points="1507.4,-1.1 1504.6,-1.1 1504.6,-0.1 1504.6,0 1507.4,0 1507.4,-0.1 1507.4,-1.1 	"/>
	<path class="st4" d="M1507.4,954.9h-2.8v65.9v1.4v55.7v1h2.8v-1v-55.7v-1.4V954.9 M1507.4,820.7h-2.8v65.1v1.4v66.3h2.8v-66.3v-1.4
		V820.7 M1507.4,685.1h-2.8v64.7v1.4v66.7h2.8v-66.7v-1.4V685.1 M1507.4,544.9h-2.8v68.9v1.4v68.5h2.8v-68.5v-1.4V544.9
		 M1507.4,404.7h-2.8v70.1v1.4v64.6h2.8v-64.6v-1.4V404.7 M1507.4,271.3h-2.8v66.5v1.4v64.1h2.8v-64.1v-1.4V271.3 M1507.4,136.4
		h-2.8v64.4v1.4v66.3h2.8v-66.3v-1.4V136.4 M1507.4,132.2h-2.8v2.7h2.8V132.2 M1507.4,0h-2.8v25.9h2.8V0"/>
	<path class="st4" d="M1634.7,132.2h-1.4v2.7h1.4V132.2 M1634.7,0h-1.4v25.9h1.4V0"/>
	<path class="st3" d="M1634.7,1079h-1.4v0.9h1.4V1079 M1634.7-0.1h-1.4V0h1.4V-0.1"/>
	<path class="st4" d="M1634.7,954.9h-1.4v65.9v1.4v55.7v1v0.1h1.4v-0.1v-1v-55.7v-1.4V954.9 M1634.7,820.7h-1.4v65.1v1.4v66.3h1.4
		v-66.3v-1.4V820.7 M1634.7,685.1h-1.4v64.7v1.4v66.7h1.4v-66.7v-1.4V685.1 M1634.7,544.9h-1.4v68.9v1.4v68.5h1.4v-68.5v-1.4V544.9
		 M1634.7,404.7h-1.4v70.1v1.4v64.6h1.4v-64.6v-1.4V404.7 M1634.7,271.3h-1.4v66.5v1.4v64.1h1.4v-64.1v-1.4V271.3 M1634.7,136.4
		h-1.4v64.4v1.4v66.3h1.4v-66.3v-1.4V136.4"/>
	<polyline class="st4" points="1770.3,0 1767.5,0 1767.5,67.8 1767.5,69.2 1767.5,135 1770.3,135 1770.3,69.2 1770.3,67.8 1770.3,0 
			"/>
	<path class="st3" d="M1770.3,1079h-2.8v0.9h2.8V1079 M1770.3-0.1h-2.8V0h2.8V-0.1"/>
	<path class="st4" d="M1770.3,954.9h-2.8v65.9v1.4v55.7v1v0.1h2.8v-0.1v-1v-55.7v-1.4V954.9 M1770.3,820.7h-2.8v65.1v1.4v66.3h2.8
		v-66.3v-1.4V820.7 M1770.3,685.1h-2.8v64.7v1.4v66.7h2.8v-66.7v-1.4V685.1 M1770.3,544.9h-2.8v68.9v1.4v68.5h2.8v-68.5v-1.4V544.9
		 M1770.3,404.7h-2.8v70.1v1.4v64.6h2.8v-64.6v-1.4V404.7 M1770.3,271.3h-2.8v66.5v1.4v64.1h2.8v-64.1v-1.4V271.3 M1770.3,136.4
		h-2.8v64.4v1.4v66.3h2.8v-66.3v-1.4V136.4"/>
	<polyline class="st3" points="1908.6,-1.1 1907.2,-1.1 1907.2,-0.1 1907.2,0 1908.6,0 1908.6,-0.1 1908.6,-1.1 	"/>
	<path class="st4" d="M1908.6,954.9h-1.4v65.9v1.4v55.7v1h1.4v-1v-55.7v-1.4V954.9 M1908.6,820.7h-1.4v65.1v1.4v66.3h1.4v-66.3v-1.4
		V820.7 M1908.6,685.1h-1.4v64.7v1.4v66.7h1.4v-66.7v-1.4V685.1 M1908.6,544.9h-1.4v68.9v1.4v68.5h1.4v-68.5v-1.4V544.9
		 M1908.6,404.7h-1.4v70.1v1.4v64.6h1.4v-64.6v-1.4V404.7 M1908.6,271.3h-1.4v66.5v1.4v64.1h1.4v-64.1v-1.4V271.3 M1908.6,136.4
		h-1.4v64.4v1.4v66.3h1.4v-66.3v-1.4V136.4 M1908.6,0h-1.4v67.8v1.4V135h1.4V69.2v-1.4V0"/>
	<path class="st4" d="M821.6,132.2h-1.4v2.7h1.4V132.2 M821.6,0h-1.4v25.9h1.4V0"/>
	<polyline class="st3" points="821.6,-0.5 820.2,-0.5 820.2,-0.1 820.2,0 821.6,0 821.6,-0.1 821.6,-0.5 	"/>
	<path class="st4" d="M821.6,820.7h-1.4v65.1v1.4v66.3h1.4v-66.3v-1.4V820.7 M821.6,685.1h-1.4v64.7v1.4v66.7h1.4v-66.7v-1.4V685.1
		 M821.6,544.9h-1.4v68.9v1.4v68.5h1.4v-68.5v-1.4V544.9 M821.6,480.6h-1.4v60.1h1.4V480.6 M821.6,136.4h-1.4v61.3h1.4V136.4"/>
	<polyline class="st3" points="821.6,1079 820.2,1079 820.2,1079.5 821.6,1079.5 821.6,1079 	"/>
	<polyline class="st4" points="821.6,954.9 820.2,954.9 820.2,1020.8 820.2,1022.2 820.2,1077.9 820.2,1078.9 820.2,1079 
		821.6,1079 821.6,1078.9 821.6,1077.9 821.6,1022.2 821.6,1020.8 821.6,954.9 	"/>
	<path class="st4" d="M688.2,132.2h-2.8v2.7h2.8V132.2 M688.2,0h-2.8v25.9h2.8V0"/>
	<polyline class="st3" points="688.2,-0.5 685.4,-0.5 685.4,-0.1 685.4,0 688.2,0 688.2,-0.1 688.2,-0.5 	"/>
	<path class="st4" d="M688.2,820.7h-2.8v65.1v1.4v66.3h2.8v-66.3v-1.4V820.7 M688.2,685.1h-2.8v64.7v1.4v66.7h2.8v-66.7v-1.4V685.1
		 M688.2,544.9h-2.8v68.9v1.4v68.5h2.8v-68.5v-1.4V544.9 M688.2,480.6h-2.8v60.1h2.8V480.6 M688.2,136.4h-2.8v61.3h2.8V136.4"/>
	<polyline class="st3" points="688.2,1079 685.4,1079 685.4,1079.5 688.2,1079.5 688.2,1079 	"/>
	<polyline class="st4" points="688.2,954.9 685.4,954.9 685.4,1020.8 685.4,1022.2 685.4,1077.9 685.4,1078.9 685.4,1079 
		688.2,1079 688.2,1078.9 688.2,1077.9 688.2,1022.2 688.2,1020.8 688.2,954.9 	"/>
	<path class="st4" d="M553.3,132.2h-1.4v2.7h1.4V132.2 M553.3,0h-1.4v25.9h1.4V0"/>
	<polyline class="st3" points="553.3,-0.5 551.9,-0.5 551.9,-0.1 551.9,0 553.3,0 553.3,-0.1 553.3,-0.5 	"/>
	<path class="st4" d="M553.3,820.7h-1.4v65.1v1.4v66.3h1.4v-66.3v-1.4V820.7 M553.3,685.1h-1.4v64.7v1.4v66.7h1.4v-66.7v-1.4V685.1
		 M553.3,544.9h-1.4v68.9v1.4v68.5h1.4v-68.5v-1.4V544.9 M553.3,480.6h-1.4v60.1h1.4V480.6 M553.3,136.4h-1.4v61.3h1.4V136.4"/>
	<polyline class="st3" points="553.3,1079 551.9,1079 551.9,1079.5 553.3,1079.5 553.3,1079 	"/>
	<polyline class="st4" points="553.3,954.9 551.9,954.9 551.9,1020.8 551.9,1022.2 551.9,1077.9 551.9,1078.9 551.9,1079 
		553.3,1079 553.3,1078.9 553.3,1077.9 553.3,1022.2 553.3,1020.8 553.3,954.9 	"/>
	<path class="st4" d="M419.9,132.2h-2.8v2.7h2.8V132.2 M419.9,0h-2.8v25.9h2.8V0"/>
	<polyline class="st3" points="419.9,-0.5 417.1,-0.5 417.1,-0.1 417.1,0 419.9,0 419.9,-0.1 419.9,-0.5 	"/>
	<path class="st4" d="M419.9,820.7h-2.8v65.1v1.4v66.3h2.8v-66.3v-1.4V820.7 M419.9,685.1h-2.8v64.7v1.4v66.7h2.8v-66.7v-1.4V685.1
		 M419.9,544.9h-2.8v68.9v1.4v68.5h2.8v-68.5v-1.4V544.9 M419.9,480.6h-2.8v60.1h2.8V480.6 M419.9,136.4h-2.8v61.3h2.8V136.4"/>
	<polyline class="st3" points="419.9,1079 417.1,1079 417.1,1079.5 419.9,1079.5 419.9,1079 	"/>
	<polyline class="st4" points="419.9,954.9 417.1,954.9 417.1,1020.8 417.1,1022.2 417.1,1077.9 417.1,1078.9 417.1,1079 
		419.9,1079 419.9,1078.9 419.9,1077.9 419.9,1022.2 419.9,1020.8 419.9,954.9 	"/>
	<polyline class="st3" points="292,-1.5 290.6,-1.5 290.6,-1.1 290.6,-0.1 290.6,0 292,0 292,-0.1 292,-1.1 292,-1.5 	"/>
	<path class="st4" d="M292,954.9h-1.4v65.9v1.4v55.7v0.6h1.4v-0.6v-55.7v-1.4V954.9 M292,820.7h-1.4v65.1v1.4v66.3h1.4v-66.3v-1.4
		V820.7 M292,685.1h-1.4v64.7v1.4v66.7h1.4v-66.7v-1.4V685.1 M292,544.9h-1.4v68.9v1.4v68.5h1.4v-68.5v-1.4V544.9 M292,404.7h-1.4
		v70.1v1.4v64.6h1.4v-64.6v-1.4V404.7 M292,385.6h-1.4v17.7h1.4V385.6 M292,271.3h-1.4v8h1.4V271.3 M292,136.4h-1.4v64.4v1.4v66.3
		h1.4v-66.3v-1.4V136.4 M292,132.2h-1.4v2.7h1.4V132.2 M292,0h-1.4v25.9h1.4V0"/>
	<polyline class="st3" points="158.5,-1.5 155.7,-1.5 155.7,-1.1 155.7,-0.1 155.7,0 158.5,0 158.5,-0.1 158.5,-1.1 158.5,-1.5 	"/>
	<path class="st4" d="M158.5,954.9h-2.8v65.9v1.4v55.7v0.6h2.8v-0.6v-55.7v-1.4V954.9 M158.5,820.7h-2.8v65.1v1.4v66.3h2.8v-66.3
		v-1.4V820.7 M158.5,685.1h-2.8v64.7v1.4v66.7h2.8v-66.7v-1.4V685.1 M158.5,544.9h-2.8v68.9v1.4v68.5h2.8v-68.5v-1.4V544.9
		 M158.5,404.7h-2.8v70.1v1.4v64.6h2.8v-64.6v-1.4V404.7 M158.5,271.3h-2.8v66.5v1.4v64.1h2.8v-64.1v-1.4V271.3 M158.5,136.4h-2.8
		v64.4v1.4v66.3h2.8v-66.3v-1.4V136.4 M158.5,0h-2.8v67.8v1.4V135h2.8V69.2v-1.4V0"/>
	<polyline class="st4" points="19.6,0 18.2,0 18.2,67.8 18.2,69.2 18.2,135 19.6,135 19.6,69.2 19.6,67.8 19.6,0 	"/>
	<polyline class="st3" points="19.6,-0.5 18.2,-0.5 18.2,-0.1 18.2,0 19.6,0 19.6,-0.1 19.6,-0.5 	"/>
	<path class="st4" d="M19.6,820.7h-1.4v65.1v1.4v66.3h1.4v-66.3v-1.4V820.7 M19.6,685.1h-1.4v64.7v1.4v66.7h1.4v-66.7v-1.4V685.1
		 M19.6,544.9h-1.4v68.9v1.4v68.5h1.4v-68.5v-1.4V544.9 M19.6,404.7h-1.4v70.1v1.4v64.6h1.4v-64.6v-1.4V404.7 M19.6,271.3h-1.4v66.5
		v1.4v64.1h1.4v-64.1v-1.4V271.3 M19.6,136.4h-1.4v64.4v1.4v66.3h1.4v-66.3v-1.4V136.4"/>
	<polyline class="st3" points="19.6,1079 18.2,1079 18.2,1079.5 19.6,1079.5 19.6,1079 	"/>
	<polyline class="st4" points="19.6,954.9 18.2,954.9 18.2,1020.8 18.2,1022.2 18.2,1077.9 18.2,1078.9 18.2,1079 19.6,1079 
		19.6,1078.9 19.6,1077.9 19.6,1022.2 19.6,1020.8 19.6,954.9 	"/>
	<polyline class="st3" points="1922.6,683.7 1922.6,683.7 1921.6,683.7 1919,683.7 1919,685.1 1921.6,685.1 1922.6,685.1 
		1922.6,683.7 	"/>
	<path class="st4" d="M961.6,683.7H894h-1.4h-71h-1.4H757h-1.4h-67.4h-2.8H620h-1.4h-65.3h-1.4H487h-1.4h-65.7h-2.8H355h-1.4H292
		h-1.4H224h-1.4h-64.1h-2.8H88h-1.4h-67h-1.4H3.6v1.4h14.6h1.4h67H88h67.7h2.8h64.1h1.4h66.6h1.4h61.6h1.4h62.1h2.8h65.7h1.4h64.9
		h1.4h65.3h1.4h65.4h2.8h67.4h1.4h63.2h1.4h71h1.4h67.6V683.7 M1919,683.7h-10.4h-1.4H1839h-1.4h-67.3h-2.8H1702h-1.4h-65.9h-1.4
		H1576h-1.4h-67.2h-2.8H1440h-1.4h-66.8h-1.4H1305h-1.4h-66h-2.8H1169h-1.4H1102h-1.4H1033h-1.4h-67v1.4h67h1.4h67.6h1.4h65.6h1.4
		h65.8h2.8h66h1.4h65.4h1.4h66.8h1.4h64.6h2.8h67.2h1.4h57.3h1.4h65.9h1.4h65.5h2.8h67.3h1.4h68.2h1.4h10.4V683.7"/>
	<polyline class="st3" points="1922.6,817.9 1922.6,817.9 1921.6,817.9 1919,817.9 1919,820.7 1921.6,820.7 1922.6,820.7 
		1922.6,817.9 	"/>
	<path class="st4" d="M961.6,817.9H894h-1.4h-71h-1.4H757h-1.4h-67.4h-2.8H620h-1.4h-65.3h-1.4H487h-1.4h-65.7h-2.8H355h-1.4H292
		h-1.4H224h-1.4h-64.1h-2.8H88h-1.4h-67h-1.4H3.6v2.8h14.6h1.4h67H88h67.7h2.8h64.1h1.4h66.6h1.4h61.6h1.4h62.1h2.8h65.7h1.4h64.9
		h1.4h65.3h1.4h65.4h2.8h67.4h1.4h63.2h1.4h71h1.4h67.6V817.9 M1919,817.9h-10.4h-1.4H1839h-1.4h-67.3h-2.8H1702h-1.4h-65.9h-1.4
		H1576h-1.4h-67.2h-2.8H1440h-1.4h-66.8h-1.4H1305h-1.4h-66h-2.8H1169h-1.4H1102h-1.4H1033h-1.4h-67v2.8h67h1.4h67.6h1.4h65.6h1.4
		h65.8h2.8h66h1.4h65.4h1.4h66.8h1.4h64.6h2.8h67.2h1.4h57.3h1.4h65.9h1.4h65.5h2.8h67.3h1.4h68.2h1.4h10.4V817.9"/>
	<polyline class="st3" points="1922.6,953.5 1922.6,953.5 1921.6,953.5 1919,953.5 1919,954.9 1921.6,954.9 1922.6,954.9 
		1922.6,953.5 	"/>
	<path class="st4" d="M961.6,953.5H894h-1.4h-71h-1.4H757h-1.4h-67.4h-2.8H620h-1.4h-65.3h-1.4H487h-1.4h-65.7h-2.8H355h-1.4H292
		h-1.4H224h-1.4h-64.1h-2.8H88h-1.4h-67h-1.4H3.6v1.4h14.6h1.4h67H88h67.7h2.8h64.1h1.4h66.6h1.4h61.6h1.4h62.1h2.8h65.7h1.4h64.9
		h1.4h65.3h1.4h65.4h2.8h67.4h1.4h63.2h1.4h71h1.4h67.6V953.5 M1919,953.5h-10.4h-1.4H1839h-1.4h-67.3h-2.8H1702h-1.4h-65.9h-1.4
		H1576h-1.4h-67.2h-2.8H1440h-1.4h-66.8h-1.4H1305h-1.4h-66h-2.8H1169h-1.4H1102h-1.4H1033h-1.4h-67v1.4h67h1.4h67.6h1.4h65.6h1.4
		h65.8h2.8h66h1.4h65.4h1.4h66.8h1.4h64.6h2.8h67.2h1.4h57.3h1.4h65.9h1.4h65.5h2.8h67.3h1.4h68.2h1.4h10.4V953.5"/>
	<polyline class="st4" points="1919,403.3 1908.6,403.3 1907.2,403.3 1839,403.3 1837.6,403.3 1770.3,403.3 1767.5,403.3 
		1702,403.3 1700.6,403.3 1634.7,403.3 1633.3,403.3 1576,403.3 1574.6,403.3 1507.4,403.3 1504.6,403.3 1440,403.3 1438.6,403.3 
		1371.8,403.3 1370.4,403.3 1305,403.3 1303.6,403.3 1237.6,403.3 1234.8,403.3 1169,403.3 1167.6,403.3 1102,403.3 1100.6,403.3 
		1033,403.3 1031.6,403.3 964.6,403.3 964.6,404.7 1031.6,404.7 1033,404.7 1100.6,404.7 1102,404.7 1167.6,404.7 1169,404.7 
		1234.8,404.7 1237.6,404.7 1303.6,404.7 1305,404.7 1370.4,404.7 1371.8,404.7 1438.6,404.7 1440,404.7 1504.6,404.7 1507.4,404.7 
		1574.6,404.7 1576,404.7 1633.3,404.7 1634.7,404.7 1700.6,404.7 1702,404.7 1767.5,404.7 1770.3,404.7 1837.6,404.7 1839,404.7 
		1907.2,404.7 1908.6,404.7 1919,404.7 1919,403.3 	"/>
	<polyline class="st3" points="1921.6,403.3 1921.6,403.3 1919,403.3 1919,404.7 1921.6,404.7 1921.6,403.3 	"/>
	<path class="st4" d="M378.8,403.3H355h-1.4H292h-1.4H224h-1.4h-64.1h-2.8H88h-1.4h-67h-1.4H3.6h-1v1.4h1h14.6h1.4h67H88h67.7h2.8
		h64.1h1.4h66.6h1.4h61.6h1.4h23.8V403.3 M961.6,403.3H894h-1.4h-22.5v1.4h22.5h1.4h67.6V403.3"/>
	<polyline class="st4" points="1919,268.5 1908.6,268.5 1907.2,268.5 1839,268.5 1837.6,268.5 1770.3,268.5 1767.5,268.5 
		1702,268.5 1700.6,268.5 1634.7,268.5 1633.3,268.5 1576,268.5 1574.6,268.5 1507.4,268.5 1504.6,268.5 1440,268.5 1438.6,268.5 
		1371.8,268.5 1370.4,268.5 1305,268.5 1303.6,268.5 1237.6,268.5 1234.8,268.5 1169,268.5 1167.6,268.5 1102,268.5 1100.6,268.5 
		1033,268.5 1031.6,268.5 964.6,268.5 964.6,271.3 1031.6,271.3 1033,271.3 1100.6,271.3 1102,271.3 1167.6,271.3 1169,271.3 
		1234.8,271.3 1237.6,271.3 1303.6,271.3 1305,271.3 1370.4,271.3 1371.8,271.3 1438.6,271.3 1440,271.3 1504.6,271.3 1507.4,271.3 
		1574.6,271.3 1576,271.3 1633.3,271.3 1634.7,271.3 1700.6,271.3 1702,271.3 1767.5,271.3 1770.3,271.3 1837.6,271.3 1839,271.3 
		1907.2,271.3 1908.6,271.3 1919,271.3 1919,268.5 	"/>
	<polyline class="st3" points="1921.6,268.5 1921.6,268.5 1919,268.5 1919,271.3 1921.6,271.3 1921.6,268.5 	"/>
	<path class="st4" d="M378.8,268.5H355h-1.4H292h-1.4H224h-1.4h-64.1h-2.8H88h-1.4h-67h-1.4H3.6h-1v2.8h1h14.6h1.4h67H88h67.7h2.8
		h64.1h1.4h66.6h1.4h61.6h1.4h23.8V268.5 M961.6,268.5H894h-1.4h-22.5v2.8h22.5h1.4h67.6V268.5"/>
	<polyline class="st4" points="1919,135 1908.6,135 1907.2,135 1839,135 1837.6,135 1770.3,135 1767.5,135 1702,135 1700.6,135 
		1634.7,135 1633.3,135 1576,135 1574.6,135 1507.4,135 1504.6,135 1440,135 1438.6,135 1371.8,135 1370.4,135 1305,135 1303.6,135 
		1237.6,135 1234.8,135 1169,135 1167.6,135 1102,135 1100.6,135 1033,135 1031.6,135 964.6,135 964.6,136.4 1031.6,136.4 
		1033,136.4 1100.6,136.4 1102,136.4 1167.6,136.4 1169,136.4 1234.8,136.4 1237.6,136.4 1303.6,136.4 1305,136.4 1370.4,136.4 
		1371.8,136.4 1438.6,136.4 1440,136.4 1504.6,136.4 1507.4,136.4 1574.6,136.4 1576,136.4 1633.3,136.4 1634.7,136.4 1700.6,136.4 
		1702,136.4 1767.5,136.4 1770.3,136.4 1837.6,136.4 1839,136.4 1907.2,136.4 1908.6,136.4 1919,136.4 1919,135 	"/>
	<polyline class="st3" points="1921.6,135 1921.6,135 1919,135 1919,136.4 1921.6,136.4 1921.6,135 	"/>
	<polyline class="st4" points="961.6,135 894,135 892.6,135 821.6,135 820.2,135 757,135 755.6,135 688.2,135 685.4,135 620,135 
		618.6,135 553.3,135 551.9,135 487,135 485.6,135 419.9,135 417.1,135 355,135 353.6,135 292,135 290.6,135 224,135 222.6,135 
		158.5,135 155.7,135 88,135 86.6,135 19.6,135 18.2,135 3.6,135 2.6,135 2.6,136.4 3.6,136.4 18.2,136.4 19.6,136.4 86.6,136.4 
		88,136.4 155.7,136.4 158.5,136.4 222.6,136.4 224,136.4 290.6,136.4 292,136.4 353.6,136.4 355,136.4 417.1,136.4 419.9,136.4 
		485.6,136.4 487,136.4 551.9,136.4 553.3,136.4 618.6,136.4 620,136.4 685.4,136.4 688.2,136.4 755.6,136.4 757,136.4 820.2,136.4 
		821.6,136.4 892.6,136.4 894,136.4 961.6,136.4 961.6,135 	"/>
	<polyline class="st5" points="964.6,-1.1 961.6,-1.1 961.6,-0.1 961.6,0 964.6,0 964.6,-0.1 964.6,-1.1 	"/>
	<path class="st6" d="M964.6,544.9h-3v68.9v1.4v68.5v1.4v64.7v1.4v66.7v2.8v65.1v1.4v66.3v1.4v65.9v1.4v55.7v1h3v-1v-55.7v-1.4
		v-65.9v-1.4v-66.3v-1.4v-65.1v-2.8v-66.7v-1.4v-64.7v-1.4v-68.5v-1.4V544.9 M964.6,390h-3v13.2v1.4v70.1v1.4v64.6h3v-64.6v-1.4
		v-70.1v-1.4V390 M964.6,132.2h-3v2.7v1.4v64.4v1.4v66.3v2.8v12.5h3v-12.5v-2.8v-66.3v-1.4v-64.4V135V132.2 M964.6,0h-3v25.9h3V0"/>
	<polyline class="st5" points="1922.6,540.8 1922.6,540.8 1921.6,540.8 1919,540.8 1919,544.9 1921.6,544.9 1922.6,544.9 
		1922.6,540.8 	"/>
	<polyline class="st6" points="1919,540.8 1908.6,540.8 1907.2,540.8 1839,540.8 1837.6,540.8 1770.3,540.8 1767.5,540.8 
		1702,540.8 1700.6,540.8 1634.7,540.8 1633.3,540.8 1576,540.8 1574.6,540.8 1507.4,540.8 1504.6,540.8 1440,540.8 1438.6,540.8 
		1371.8,540.8 1370.4,540.8 1305,540.8 1303.6,540.8 1237.6,540.8 1234.8,540.8 1169,540.8 1167.6,540.8 1102,540.8 1100.6,540.8 
		1033,540.8 1031.6,540.8 964.6,540.8 961.6,540.8 894,540.8 892.6,540.8 821.6,540.8 820.2,540.8 757,540.8 755.6,540.8 
		688.2,540.8 685.4,540.8 620,540.8 618.6,540.8 553.3,540.8 551.9,540.8 487,540.8 485.6,540.8 419.9,540.8 417.1,540.8 355,540.8 
		353.6,540.8 292,540.8 290.6,540.8 224,540.8 222.6,540.8 158.5,540.8 155.7,540.8 88,540.8 86.6,540.8 19.6,540.8 18.2,540.8 
		3.6,540.8 2.6,540.8 2.6,544.9 3.6,544.9 18.2,544.9 19.6,544.9 86.6,544.9 88,544.9 155.7,544.9 158.5,544.9 222.6,544.9 
		224,544.9 290.6,544.9 292,544.9 353.6,544.9 355,544.9 417.1,544.9 419.9,544.9 485.6,544.9 487,544.9 551.9,544.9 553.3,544.9 
		618.6,544.9 620,544.9 685.4,544.9 688.2,544.9 755.6,544.9 757,544.9 820.2,544.9 821.6,544.9 892.6,544.9 894,544.9 961.6,544.9 
		964.6,544.9 1031.6,544.9 1033,544.9 1100.6,544.9 1102,544.9 1167.6,544.9 1169,544.9 1234.8,544.9 1237.6,544.9 1303.6,544.9 
		1305,544.9 1370.4,544.9 1371.8,544.9 1438.6,544.9 1440,544.9 1504.6,544.9 1507.4,544.9 1574.6,544.9 1576,544.9 1633.3,544.9 
		1634.7,544.9 1700.6,544.9 1702,544.9 1767.5,544.9 1770.3,544.9 1837.6,544.9 1839,544.9 1907.2,544.9 1908.6,544.9 1919,544.9 
		1919,540.8 	"/>
	<path d="M417.1,476.2h-38.3v4.5h38.3V476.2 M485.6,476.2h-65.7v4.5h65.7V476.2 M551.9,476.2H487v4.5h64.9V476.2 M618.6,476.2h-65.3
		v4.5h65.3V476.2 M685.4,476.2H620v4.5h65.4V476.2 M755.6,476.2h-67.4v4.5h67.4V476.2 M820.2,476.2H757v4.5h63.2V476.2 M870.1,476.2
		h-48.5v4.5h48.5V476.2 M417.1,404.7h-38.3v70.1h38.3V404.7 M485.6,404.7h-65.7v70.1h65.7V404.7 M551.9,404.7H487v70.1h64.9V404.7
		 M618.6,404.7h-65.3v70.1h65.3V404.7 M685.4,404.7H620v70.1h65.4V404.7 M755.6,404.7h-67.4v70.1h67.4V404.7 M820.2,404.7H757v70.1
		h63.2V404.7 M870.1,404.7h-48.5v70.1h48.5V404.7 M417.1,339.2h-38.3v64.1h38.3V339.2 M485.6,339.2h-65.7v64.1h65.7V339.2
		 M551.9,339.2H487v64.1h64.9V339.2 M618.6,339.2h-65.3v64.1h65.3V339.2 M685.4,339.2H620v64.1h65.4V339.2 M755.6,339.2h-67.4v64.1
		h67.4V339.2 M820.2,339.2H757v64.1h63.2V339.2 M864.1,339.2h-42.5v64.1h48.5V390h-6V339.2 M417.1,271.3h-38.3v66.5h38.3V271.3
		 M485.6,271.3h-65.7v66.5h65.7V271.3 M551.9,271.3H487v66.5h64.9V271.3 M618.6,271.3h-65.3v66.5h65.3V271.3 M685.4,271.3H620v66.5
		h65.4V271.3 M755.6,271.3h-67.4v66.5h67.4V271.3 M820.2,271.3H757v66.5h63.2V271.3 M870.1,271.3h-48.5v66.5h42.5v-54h6V271.3
		 M417.1,202.2h-38.3v66.3h38.3V202.2 M485.6,202.2h-65.7v66.3h65.7V202.2 M551.9,202.2H487v66.3h64.9V202.2 M618.6,202.2h-65.3
		v66.3h65.3V202.2 M685.4,202.2H620v66.3h65.4V202.2 M755.6,202.2h-67.4v66.3h67.4V202.2 M820.2,202.2H757v66.3h63.2V202.2
		 M870.1,202.2h-48.5v66.3h48.5V202.2 M417.1,197.7h-38.3v3.1h38.3V197.7 M485.6,197.7h-65.7v3.1h65.7V197.7 M551.9,197.7H487v3.1
		h64.9V197.7 M618.6,197.7h-65.3v3.1h65.3V197.7 M685.4,197.7H620v3.1h65.4V197.7 M755.6,197.7h-67.4v3.1h67.4V197.7 M820.2,197.7
		H757v3.1h63.2V197.7 M870.1,197.7h-48.5v3.1h48.5V197.7"/>
	<path class="st7" d="M417.1,200.8h-38.3v1.4h38.3V200.8 M485.6,200.8h-65.7v1.4h65.7V200.8 M551.9,200.8H487v1.4h64.9V200.8
		 M618.6,200.8h-65.3v1.4h65.3V200.8 M685.4,200.8H620v1.4h65.4V200.8 M755.6,200.8h-67.4v1.4h67.4V200.8 M820.2,200.8H757v1.4h63.2
		V200.8 M870.1,200.8h-48.5v1.4h48.5V200.8"/>
	<path class="st7" d="M417.1,337.8h-38.3v1.4h38.3V337.8 M485.6,337.8h-65.7v1.4h65.7V337.8 M551.9,337.8H487v1.4h64.9V337.8
		 M618.6,337.8h-65.3v1.4h65.3V337.8 M685.4,337.8H620v1.4h65.4V337.8 M755.6,337.8h-67.4v1.4h67.4V337.8 M820.2,337.8H757v1.4h63.2
		V337.8 M864.1,337.8h-42.5v1.4h42.5V337.8"/>
	<path class="st7" d="M417.1,474.8h-38.3v1.4h38.3V474.8 M485.6,474.8h-65.7v1.4h65.7V474.8 M551.9,474.8H487v1.4h64.9V474.8
		 M618.6,474.8h-65.3v1.4h65.3V474.8 M685.4,474.8H620v1.4h65.4V474.8 M755.6,474.8h-67.4v1.4h67.4V474.8 M820.2,474.8H757v1.4h63.2
		V474.8 M870.1,474.8h-48.5v1.4h48.5V474.8"/>
	<path class="st7" d="M487,404.7h-1.4v70.1v1.4v4.5h1.4v-4.5v-1.4V404.7 M487,271.3h-1.4v66.5v1.4v64.1h1.4v-64.1v-1.4V271.3
		 M487,197.7h-1.4v3.1v1.4v66.3h1.4v-66.3v-1.4V197.7"/>
	<path class="st7" d="M620,404.7h-1.4v70.1v1.4v4.5h1.4v-4.5v-1.4V404.7 M620,271.3h-1.4v66.5v1.4v64.1h1.4v-64.1v-1.4V271.3
		 M620,197.7h-1.4v3.1v1.4v66.3h1.4v-66.3v-1.4V197.7"/>
	<path class="st7" d="M757,404.7h-1.4v70.1v1.4v4.5h1.4v-4.5v-1.4V404.7 M757,271.3h-1.4v66.5v1.4v64.1h1.4v-64.1v-1.4V271.3
		 M757,197.7h-1.4v3.1v1.4v66.3h1.4v-66.3v-1.4V197.7"/>
	<path class="st8" d="M821.6,404.7h-1.4v70.1v1.4v4.5h1.4v-4.5v-1.4V404.7 M821.6,271.3h-1.4v66.5v1.4v64.1h1.4v-64.1v-1.4V271.3
		 M821.6,197.7h-1.4v3.1v1.4v66.3h1.4v-66.3v-1.4V197.7"/>
	<path class="st8" d="M688.2,404.7h-2.8v70.1v1.4v4.5h2.8v-4.5v-1.4V404.7 M688.2,271.3h-2.8v66.5v1.4v64.1h2.8v-64.1v-1.4V271.3
		 M688.2,197.7h-2.8v3.1v1.4v66.3h2.8v-66.3v-1.4V197.7"/>
	<path class="st8" d="M553.3,404.7h-1.4v70.1v1.4v4.5h1.4v-4.5v-1.4V404.7 M553.3,271.3h-1.4v66.5v1.4v64.1h1.4v-64.1v-1.4V271.3
		 M553.3,197.7h-1.4v3.1v1.4v66.3h1.4v-66.3v-1.4V197.7"/>
	<path class="st8" d="M419.9,404.7h-2.8v70.1v1.4v4.5h2.8v-4.5v-1.4V404.7 M419.9,271.3h-2.8v66.5v1.4v64.1h2.8v-64.1v-1.4V271.3
		 M419.9,197.7h-2.8v3.1v1.4v66.3h2.8v-66.3v-1.4V197.7"/>
	<polyline class="st8" points="870.1,403.3 821.6,403.3 820.2,403.3 757,403.3 755.6,403.3 688.2,403.3 685.4,403.3 620,403.3 
		618.6,403.3 553.3,403.3 551.9,403.3 487,403.3 485.6,403.3 419.9,403.3 417.1,403.3 378.8,403.3 378.8,404.7 417.1,404.7 
		419.9,404.7 485.6,404.7 487,404.7 551.9,404.7 553.3,404.7 618.6,404.7 620,404.7 685.4,404.7 688.2,404.7 755.6,404.7 757,404.7 
		820.2,404.7 821.6,404.7 870.1,404.7 870.1,403.3 	"/>
	<polyline class="st8" points="870.1,268.5 821.6,268.5 820.2,268.5 757,268.5 755.6,268.5 688.2,268.5 685.4,268.5 620,268.5 
		618.6,268.5 553.3,268.5 551.9,268.5 487,268.5 485.6,268.5 419.9,268.5 417.1,268.5 378.8,268.5 378.8,271.3 417.1,271.3 
		419.9,271.3 485.6,271.3 487,271.3 551.9,271.3 553.3,271.3 618.6,271.3 620,271.3 685.4,271.3 688.2,271.3 755.6,271.3 757,271.3 
		820.2,271.3 821.6,271.3 870.1,271.3 870.1,268.5 	"/>
	<polygon class="st9" points="2075.5,-18.9 2075.5,-14.6 -43.3,1059.3 -43.4,1054.9 	"/>
	
		<rect x="1217.5" y="342.5" transform="matrix(0.8937 -0.4487 0.4487 0.8937 -11.1157 645.4951)" class="st10" width="278.1" height="7.4"/>
	
		<rect x="1217.5" y="342.5" transform="matrix(0.8937 -0.4487 0.4487 0.8937 -11.1157 645.4951)" class="st11" width="278.1" height="7.4"/>
	<polygon class="st10" points="1510.2,270.9 1471.5,268.8 1489.1,303.3 	"/>
	<polygon class="st11" points="1510.2,270.9 1471.5,268.8 1489.1,303.3 	"/>
	
		<rect x="946.8" y="478.4" transform="matrix(0.8937 -0.4487 0.4487 0.8937 -100.8604 538.5079)" class="st12" width="278.1" height="7.4"/>
	
		<rect x="946.8" y="478.4" transform="matrix(0.8937 -0.4487 0.4487 0.8937 -100.8604 538.5079)" class="st11" width="278.1" height="7.4"/>
	<polygon class="st12" points="1239.5,406.7 1200.9,404.7 1218.4,439.1 	"/>
	<polygon class="st11" points="1239.5,406.7 1200.9,404.7 1218.4,439.1 	"/>
	<g>
		<path class="st12" d="M670.9,318.2c0-1,0-1.7,0.1-2c0.1-0.3,0.4-0.7,0.8-1.2l16.2-18.2c6-6.7,8.9-13,8.9-18.8c0-3.8-1-7-3-9.7
			c-2-2.7-4.8-4.1-8.4-4.1c-2.5,0-4.8,0.8-6.8,2.3c-2.1,1.5-3.6,3.6-4.6,6.3c0.2-0.1,0.5-0.1,1.1-0.1c1.4,0,2.5,0.4,3.2,1.3
			c0.8,0.9,1.2,1.9,1.2,3.1c0,1.5-0.5,2.7-1.4,3.4c-1,0.7-1.9,1.1-2.9,1.1c-0.4,0-0.8,0-1.3-0.1c-0.5-0.1-1.1-0.5-1.9-1.3
			c-0.8-0.8-1.2-1.9-1.2-3.3c0-3.9,1.5-7.5,4.5-10.6s6.7-4.7,11.3-4.7c5.2,0,9.4,1.5,12.8,4.6c3.4,3.1,5.1,7,5.1,11.8
			c0,1.7-0.3,3.3-0.8,4.8c-0.5,1.5-1.1,2.9-1.8,4.1c-0.7,1.2-1.9,2.7-3.7,4.7c-1.8,1.9-3.4,3.5-4.9,4.9c-1.5,1.4-3.8,3.5-7.1,6.4
			l-8.9,8.8h15.2c4.9,0,7.6-0.2,8-0.7c0.6-0.8,1.2-3.3,1.9-7.6h2.1l-2.4,14.8H670.9z"/>
	</g>
	<g>
		<path class="st12" d="M678,376.6v-2.7c6.9,0,12.1-1.8,15.6-5.4c0.9,0,1.4,0.1,1.6,0.3c0.2,0.2,0.2,0.8,0.2,1.9v47.7
			c0,1.7,0.4,2.8,1.3,3.3c0.9,0.5,3.2,0.8,6.9,0.8h2.8v2.7c-2-0.2-6.6-0.3-13.8-0.3S681,425,679,425.1v-2.7h2.7
			c3.6,0,5.8-0.3,6.6-0.8c0.9-0.5,1.3-1.6,1.3-3.3v-44C686.5,375.9,682.7,376.6,678,376.6z"/>
	</g>
	<g>
		<path class="st5" d="M442.5,475.7V211h33v5.8H457v253.1h18.6v5.8H442.5z"/>
	</g>
	<g>
		<path class="st11" d="M442.5,475.7V211h33v5.8H457v253.1h18.6v5.8H442.5z"/>
	</g>
	<g>
		<path class="st5" d="M764.2,470h18.6V217h-18.6v-5.8h33v264.7h-33V470z"/>
	</g>
	<g>
		<path class="st11" d="M764.2,470h18.6V217h-18.6v-5.8h33v264.7h-33V470z"/>
	</g>
	<g>
		<path class="st10" d="M537.1,304.3v-2.6l25.8-39.5c0.4-0.7,1-1,1.7-1c0.6,0,1,0.1,1.2,0.4c0.1,0.2,0.2,0.8,0.2,1.8v38.3h8.6v2.6
			H566v7.3c0,1.6,0.3,2.7,1,3.2c0.7,0.5,2.5,0.8,5.4,0.8h1.8v2.6c-2.3-0.2-6.1-0.3-11.3-0.3c-5.3,0-9.2,0.1-11.5,0.3v-2.6h1.8
			c3,0,4.8-0.3,5.5-0.8c0.7-0.5,1.1-1.6,1.1-3.2v-7.3H537.1z M539.7,301.7h20.5v-31.4L539.7,301.7z"/>
	</g>
	<g>
		<path class="st10" d="M534.9,427c0-1,0-1.7,0.1-2c0.1-0.3,0.4-0.7,0.8-1.1l16-18c5.9-6.6,8.9-12.9,8.9-18.6c0-3.7-1-7-2.9-9.6
			c-2-2.7-4.7-4-8.3-4c-2.4,0-4.7,0.7-6.8,2.2c-2.1,1.5-3.6,3.6-4.5,6.2c0.2-0.1,0.5-0.1,1.1-0.1c1.4,0,2.4,0.4,3.2,1.3
			c0.8,0.9,1.1,1.9,1.1,3.1c0,1.5-0.5,2.6-1.4,3.4c-1,0.7-1.9,1.1-2.8,1.1c-0.4,0-0.8,0-1.3-0.1c-0.5-0.1-1.1-0.5-1.9-1.3
			c-0.8-0.8-1.2-1.9-1.2-3.3c0-3.9,1.5-7.4,4.4-10.5c2.9-3.1,6.7-4.7,11.2-4.7c5.1,0,9.3,1.5,12.7,4.6c3.3,3,5,6.9,5,11.7
			c0,1.7-0.3,3.3-0.8,4.8c-0.5,1.5-1.1,2.9-1.8,4c-0.7,1.2-1.9,2.7-3.7,4.6c-1.8,1.9-3.4,3.5-4.8,4.9c-1.4,1.3-3.8,3.4-7,6.3
			l-8.8,8.7h15.1c4.9,0,7.5-0.2,7.9-0.7c0.5-0.8,1.2-3.3,1.8-7.5h2.1l-2.3,14.6H534.9z"/>
	</g>
	<polyline points="1715.8,25.9 1702,25.9 1702,67.8 1715.8,67.8 1715.8,25.9 	"/>
	<polyline points="1700.6,25.9 1634.7,25.9 1634.7,67.8 1700.6,67.8 1700.6,25.9 	"/>
	<polyline points="1633.3,25.9 1576,25.9 1576,67.8 1633.3,67.8 1633.3,25.9 	"/>
	<polyline points="1574.6,25.9 1507.4,25.9 1507.4,67.8 1574.6,67.8 1574.6,25.9 	"/>
	<polyline points="1504.6,25.9 1440,25.9 1440,67.8 1504.6,67.8 1504.6,25.9 	"/>
	<polyline points="1438.6,25.9 1371.8,25.9 1371.8,67.8 1438.6,67.8 1438.6,25.9 	"/>
	<polyline points="1370.4,25.9 1305,25.9 1305,67.8 1370.4,67.8 1370.4,25.9 	"/>
	<polyline points="1303.6,25.9 1237.6,25.9 1237.6,67.8 1303.6,67.8 1303.6,25.9 	"/>
	<polyline points="1234.8,25.9 1169,25.9 1169,67.8 1234.8,67.8 1234.8,25.9 	"/>
	<polyline points="1167.6,25.9 1102,25.9 1102,67.8 1167.6,67.8 1167.6,25.9 	"/>
	<polyline points="1100.6,25.9 1033,25.9 1033,67.8 1100.6,67.8 1100.6,25.9 	"/>
	<polyline points="1031.6,25.9 964.6,25.9 964.6,67.8 1031.6,67.8 1031.6,25.9 	"/>
	<polyline points="961.6,25.9 894,25.9 894,67.8 961.6,67.8 961.6,25.9 	"/>
	<polyline points="892.6,25.9 821.6,25.9 821.6,67.8 892.6,67.8 892.6,25.9 	"/>
	<polyline points="820.2,25.9 757,25.9 757,67.8 820.2,67.8 820.2,25.9 	"/>
	<polyline points="755.6,25.9 688.2,25.9 688.2,67.8 755.6,67.8 755.6,25.9 	"/>
	<polyline points="685.4,25.9 620,25.9 620,67.8 685.4,67.8 685.4,25.9 	"/>
	<polyline points="618.6,25.9 553.3,25.9 553.3,67.8 618.6,67.8 618.6,25.9 	"/>
	<polyline points="551.9,25.9 487,25.9 487,67.8 551.9,67.8 551.9,25.9 	"/>
	<polyline points="485.6,25.9 419.9,25.9 419.9,67.8 485.6,67.8 485.6,25.9 	"/>
	<polyline points="417.1,25.9 355,25.9 355,67.8 417.1,67.8 417.1,25.9 	"/>
	<polyline points="353.6,25.9 292,25.9 292,67.8 353.6,67.8 353.6,25.9 	"/>
	<polyline points="290.6,25.9 224,25.9 224,67.8 290.6,67.8 290.6,25.9 	"/>
	<path d="M290.6,69.2H224v63.1h66.6V69.2 M353.6,69.2H292v63.1h61.6V69.2 M417.1,69.2H355v63.1h62.1V69.2 M485.6,69.2h-65.7v63.1
		h65.7V69.2 M551.9,69.2H487v63.1h64.9V69.2 M618.6,69.2h-65.3v63.1h65.3V69.2 M685.4,69.2H620v63.1h65.4V69.2 M755.6,69.2h-67.4
		v63.1h67.4V69.2 M820.2,69.2H757v63.1h63.2V69.2 M892.6,69.2h-71v63.1h71V69.2 M961.6,69.2H894v63.1h67.6V69.2 M1031.6,69.2h-67
		v63.1h67V69.2 M1100.6,69.2H1033v63.1h67.6V69.2 M1167.6,69.2H1102v63.1h65.6V69.2 M1234.8,69.2H1169v63.1h65.8V69.2 M1303.6,69.2
		h-66v63.1h66V69.2 M1370.4,69.2H1305v63.1h65.4V69.2 M1438.6,69.2h-66.8v63.1h66.8V69.2 M1504.6,69.2H1440v63.1h64.6V69.2
		 M1574.6,69.2h-67.2v63.1h67.2V69.2 M1633.3,69.2H1576v63.1h57.3V69.2 M1700.6,69.2h-65.9v63.1h65.9V69.2 M1715.8,69.2H1702v63.1
		h13.8V69.2"/>
	<path class="st7" d="M290.6,67.8H224v1.4h66.6V67.8 M353.6,67.8H292v1.4h61.6V67.8 M417.1,67.8H355v1.4h62.1V67.8 M485.6,67.8
		h-65.7v1.4h65.7V67.8 M551.9,67.8H487v1.4h64.9V67.8 M618.6,67.8h-65.3v1.4h65.3V67.8 M685.4,67.8H620v1.4h65.4V67.8 M755.6,67.8
		h-67.4v1.4h67.4V67.8 M820.2,67.8H757v1.4h63.2V67.8 M892.6,67.8h-71v1.4h71V67.8 M961.6,67.8H894v1.4h67.6V67.8 M1031.6,67.8h-67
		v1.4h67V67.8 M1100.6,67.8H1033v1.4h67.6V67.8 M1167.6,67.8H1102v1.4h65.6V67.8 M1234.8,67.8H1169v1.4h65.8V67.8 M1303.6,67.8h-66
		v1.4h66V67.8 M1370.4,67.8H1305v1.4h65.4V67.8 M1438.6,67.8h-66.8v1.4h66.8V67.8 M1504.6,67.8H1440v1.4h64.6V67.8 M1574.6,67.8
		h-67.2v1.4h67.2V67.8 M1633.3,67.8H1576v1.4h57.3V67.8 M1700.6,67.8h-65.9v1.4h65.9V67.8 M1715.8,67.8H1702v1.4h13.8V67.8"/>
	<polyline class="st7" points="355,25.9 353.6,25.9 353.6,67.8 353.6,69.2 353.6,132.2 355,132.2 355,69.2 355,67.8 355,25.9 	"/>
	<polyline class="st7" points="487,25.9 485.6,25.9 485.6,67.8 485.6,69.2 485.6,132.2 487,132.2 487,69.2 487,67.8 487,25.9 	"/>
	<polyline class="st7" points="620,25.9 618.6,25.9 618.6,67.8 618.6,69.2 618.6,132.2 620,132.2 620,69.2 620,67.8 620,25.9 	"/>
	<polyline class="st7" points="757,25.9 755.6,25.9 755.6,67.8 755.6,69.2 755.6,132.2 757,132.2 757,69.2 757,67.8 757,25.9 	"/>
	<polyline class="st7" points="894,25.9 892.6,25.9 892.6,67.8 892.6,69.2 892.6,132.2 894,132.2 894,69.2 894,67.8 894,25.9 	"/>
	<polyline class="st7" points="1033,25.9 1031.6,25.9 1031.6,67.8 1031.6,69.2 1031.6,132.2 1033,132.2 1033,69.2 1033,67.8 
		1033,25.9 	"/>
	<polyline class="st7" points="1169,25.9 1167.6,25.9 1167.6,67.8 1167.6,69.2 1167.6,132.2 1169,132.2 1169,69.2 1169,67.8 
		1169,25.9 	"/>
	<polyline class="st7" points="1305,25.9 1303.6,25.9 1303.6,67.8 1303.6,69.2 1303.6,132.2 1305,132.2 1305,69.2 1305,67.8 
		1305,25.9 	"/>
	<polyline class="st7" points="1440,25.9 1438.6,25.9 1438.6,67.8 1438.6,69.2 1438.6,132.2 1440,132.2 1440,69.2 1440,67.8 
		1440,25.9 	"/>
	<polyline class="st7" points="1576,25.9 1574.6,25.9 1574.6,67.8 1574.6,69.2 1574.6,132.2 1576,132.2 1576,69.2 1576,67.8 
		1576,25.9 	"/>
	<polyline class="st7" points="1702,25.9 1700.6,25.9 1700.6,67.8 1700.6,69.2 1700.6,132.2 1702,132.2 1702,69.2 1702,67.8 
		1702,25.9 	"/>
	<polyline class="st8" points="1102,25.9 1100.6,25.9 1100.6,67.8 1100.6,69.2 1100.6,132.2 1102,132.2 1102,69.2 1102,67.8 
		1102,25.9 	"/>
	<polyline class="st8" points="1237.6,25.9 1234.8,25.9 1234.8,67.8 1234.8,69.2 1234.8,132.2 1237.6,132.2 1237.6,69.2 
		1237.6,67.8 1237.6,25.9 	"/>
	<polyline class="st8" points="1371.8,25.9 1370.4,25.9 1370.4,67.8 1370.4,69.2 1370.4,132.2 1371.8,132.2 1371.8,69.2 
		1371.8,67.8 1371.8,25.9 	"/>
	<polyline class="st8" points="1507.4,25.9 1504.6,25.9 1504.6,67.8 1504.6,69.2 1504.6,132.2 1507.4,132.2 1507.4,69.2 
		1507.4,67.8 1507.4,25.9 	"/>
	<polyline class="st8" points="1634.7,25.9 1633.3,25.9 1633.3,67.8 1633.3,69.2 1633.3,132.2 1634.7,132.2 1634.7,69.2 
		1634.7,67.8 1634.7,25.9 	"/>
	<polyline class="st8" points="821.6,25.9 820.2,25.9 820.2,67.8 820.2,69.2 820.2,132.2 821.6,132.2 821.6,69.2 821.6,67.8 
		821.6,25.9 	"/>
	<polyline class="st8" points="688.2,25.9 685.4,25.9 685.4,67.8 685.4,69.2 685.4,132.2 688.2,132.2 688.2,69.2 688.2,67.8 
		688.2,25.9 	"/>
	<polyline class="st8" points="553.3,25.9 551.9,25.9 551.9,67.8 551.9,69.2 551.9,132.2 553.3,132.2 553.3,69.2 553.3,67.8 
		553.3,25.9 	"/>
	<polyline class="st8" points="419.9,25.9 417.1,25.9 417.1,67.8 417.1,69.2 417.1,132.2 419.9,132.2 419.9,69.2 419.9,67.8 
		419.9,25.9 	"/>
	<polyline class="st8" points="292,25.9 290.6,25.9 290.6,67.8 290.6,69.2 290.6,132.2 292,132.2 292,69.2 292,67.8 292,25.9 	"/>
	<polyline class="st13" points="964.6,25.9 961.6,25.9 961.6,67.8 961.6,69.2 961.6,132.2 964.6,132.2 964.6,69.2 964.6,67.8 
		964.6,25.9 	"/>
	<g>
		<path class="st5" d="M243.9,71.3l1.7-19.7H299l1.7,19.7h-2.2c-0.2-2.6-0.4-4.7-0.7-6.2c-0.2-1.5-0.6-3-1.1-4.4
			c-0.5-1.4-1.1-2.5-1.7-3.2c-0.6-0.7-1.5-1.3-2.7-1.9c-1.2-0.6-2.5-0.9-4-1c-1.5-0.1-3.4-0.2-5.7-0.2c-2.7,0-4.3,0.1-5,0.2
			c-0.7,0.2-1.2,0.5-1.3,1c-0.2,0.5-0.3,1.3-0.3,2.3v46c0,1.2,0.1,2,0.4,2.5s1,0.9,2.4,1.2c1.3,0.4,3.5,0.5,6.5,0.5h3.5v2.7
			c-2.4-0.2-7.9-0.3-16.6-0.3c-8.6,0-14.1,0.1-16.5,0.3v-2.7h3.5c3,0,5.1-0.2,6.5-0.5c1.4-0.4,2.1-0.8,2.4-1.2
			c0.2-0.5,0.3-1.3,0.3-2.5v-46c0-0.8,0-1.4-0.1-1.7c-0.1-0.3-0.2-0.7-0.5-1c-0.3-0.3-0.7-0.5-1.3-0.6s-2.2-0.2-4.7-0.2
			c-2.3,0-4.2,0.1-5.7,0.2c-1.5,0.1-2.9,0.5-4,1c-1.2,0.6-2.1,1.2-2.7,1.9c-0.6,0.7-1.2,1.8-1.7,3.2c-0.5,1.4-0.8,2.9-1,4.4
			s-0.4,3.6-0.6,6.2H243.9z"/>
		<path class="st5" d="M306.7,110.8v-2.7c3.1,0,5-0.2,5.7-0.6c0.7-0.4,1.1-1.5,1.1-3.4V58.7c0-2.2-0.4-3.5-1.1-4.1
			c-0.8-0.5-2.6-0.8-5.7-0.8v-2.7l12.6-0.9v30.4h0.1c0.9-2.1,2.5-4,4.6-5.8s4.8-2.6,8-2.6c4.4,0,7.4,1.1,9.2,3.2
			c1.3,1.5,2.1,3,2.3,4.6c0.3,1.6,0.4,4.5,0.4,8.7v16.7c0.1,1.2,0.6,2,1.5,2.2c0.9,0.3,2.7,0.4,5.3,0.4v2.7c-6-0.2-9.2-0.3-9.8-0.3
			c-0.5,0-3.7,0.1-9.9,0.3v-2.7c3.1,0,5-0.2,5.7-0.6c0.7-0.4,1.1-1.5,1.1-3.4V83.8c0-3-0.5-5.3-1.4-7.1c-0.9-1.7-2.6-2.6-5.1-2.6
			c-3,0-5.7,1.3-8.2,3.8c-2.4,2.5-3.6,5.9-3.6,10.2v16c0,1.9,0.4,3,1.1,3.4c0.7,0.4,2.6,0.6,5.7,0.6v2.7c-6-0.2-9.2-0.3-9.8-0.3
			C316.1,110.6,312.9,110.7,306.7,110.8z"/>
		<path class="st5" d="M354.9,91.6c0-5.5,1.8-10.2,5.3-14.1c3.5-3.9,7.8-5.9,12.9-5.9c5.1,0,9,1.7,11.7,5c2.7,3.3,4,7.4,4,12.1
			c0,0.9-0.1,1.5-0.3,1.7c-0.2,0.2-0.8,0.3-1.8,0.3h-24.4c0,6,0.9,10.3,2.6,13.1c2.4,3.9,5.7,5.9,9.9,5.9c0.6,0,1.2-0.1,1.9-0.2
			c0.7-0.1,1.7-0.4,3.1-0.9c1.4-0.5,2.7-1.4,4-2.8c1.2-1.3,2.2-3.1,2.9-5.2c0.2-0.8,0.5-1.2,1.1-1.2c0.7,0,1.1,0.3,1.1,1
			c0,0.5-0.3,1.3-0.8,2.5c-0.6,1.2-1.4,2.4-2.4,3.8s-2.6,2.6-4.6,3.6c-2,1-4.3,1.5-6.7,1.5c-5.1,0-9.6-1.9-13.5-5.8
			C356.8,102.1,354.9,97.3,354.9,91.6z M362.2,88.7H383c0-1.2-0.1-2.5-0.3-3.9c-0.2-1.4-0.6-3-1.2-4.9c-0.6-1.9-1.6-3.4-3.1-4.6
			c-1.4-1.2-3.2-1.8-5.3-1.8c-0.9,0-1.9,0.2-2.9,0.6s-2.1,1.1-3.4,2c-1.2,1-2.3,2.5-3.1,4.7C362.8,83.1,362.3,85.7,362.2,88.7z"/>
		<path class="st5" d="M419.9,67.2c0-2.9,0.6-5.7,1.8-8.5s2.4-4.9,3.6-6.3c1.3-1.4,2.2-2.1,2.8-2.1s0.9,0.3,0.9,0.8
			c0,0.2,0,0.8,0,1.7c0,0.9,0,1.9,0,3c0,1.1,0,2.7,0,4.7c0,2,0,4.2,0,6.6c0,0.9,0,1.5,0,1.9c0.2-1.2,0.4-1.8,0.7-1.8
			c0.2,0,0.4,0.4,0.6,1.3c0.2,0.9,0.2,2,0.2,3.3s-0.4,2.4-1.3,3.3c-0.9,0.9-2,1.3-3.3,1.3c-1.7,0-3.2-0.8-4.3-2.5
			C420.5,72.2,419.9,70,419.9,67.2z M445.4,67.2c0-2.9,0.6-5.7,1.7-8.5c1.1-2.7,2.3-4.8,3.6-6.3c1.3-1.4,2.2-2.1,2.8-2.1
			c0.5,0,0.8,0.3,0.8,0.9c0,0.2-0.4,0.8-1.1,1.7c-0.7,0.9-1.5,1.9-2.4,3c-0.9,1.1-1.7,2.7-2.4,4.7c-0.7,2-1.1,4.2-1.1,6.6
			c0,0.5,0.1,1.1,0.2,1.9c1.1-1.2,2.4-1.8,3.8-1.8c1.3,0,2.4,0.4,3.3,1.3c0.9,0.9,1.3,2,1.3,3.2s-0.4,2.4-1.3,3.3s-2,1.3-3.3,1.3
			c-1.7,0-3.1-0.8-4.2-2.5S445.4,70,445.4,67.2z"/>
	</g>
	<g>
		<path class="st14" d="M452.4,92c0-5.5,1.9-10.2,5.8-14.1c3.9-3.8,8.4-5.8,13.7-5.8c4.4,0,8.1,1.8,11,5.4V58.7
			c0-2.2-0.4-3.5-1.1-4.1c-0.8-0.5-2.7-0.8-5.7-0.8v-2.7l12.6-0.9v53.1c0,2.2,0.4,3.5,1.1,4.1c0.8,0.6,2.7,0.8,5.7,0.8v2.7l-12.9,1
			V106c-3,3.9-6.9,5.8-11.7,5.8c-5,0-9.4-1.9-13-5.8S452.4,97.5,452.4,92z M459.7,92.1c0,5.4,0.8,9.5,2.5,12.2
			c2.3,3.7,5.4,5.6,9.2,5.6c4.3,0,7.8-2,10.3-6.1c0.7-1,1-2.1,0.9-3.3v-18c0-1.2-0.3-2.2-0.9-3.2c-2.4-3.5-5.5-5.3-9.4-5.3
			c-4.1,0-7.4,1.9-9.9,5.6C460.6,82.5,459.7,86.6,459.7,92.1z"/>
		<path class="st14" d="M500.4,91.6c0-5.5,1.8-10.2,5.3-14.1c3.5-3.9,7.8-5.9,12.9-5.9c5.1,0,9,1.7,11.7,5c2.7,3.3,4,7.4,4,12.1
			c0,0.9-0.1,1.5-0.3,1.7c-0.2,0.2-0.8,0.3-1.8,0.3h-24.4c0,6,0.9,10.3,2.6,13.1c2.4,3.9,5.7,5.9,9.9,5.9c0.6,0,1.2-0.1,1.9-0.2
			c0.7-0.1,1.7-0.4,3.1-0.9c1.4-0.5,2.7-1.4,4-2.8c1.2-1.3,2.2-3.1,2.9-5.2c0.2-0.8,0.5-1.2,1.1-1.2c0.7,0,1.1,0.3,1.1,1
			c0,0.5-0.3,1.3-0.8,2.5c-0.6,1.2-1.4,2.4-2.4,3.8s-2.6,2.6-4.6,3.6c-2,1-4.3,1.5-6.7,1.5c-5.1,0-9.6-1.9-13.5-5.8
			C502.3,102.1,500.4,97.3,500.4,91.6z M507.8,88.7h20.8c0-1.2-0.1-2.5-0.3-3.9c-0.2-1.4-0.6-3-1.2-4.9c-0.6-1.9-1.6-3.4-3.1-4.6
			c-1.4-1.2-3.2-1.8-5.3-1.8c-0.9,0-1.9,0.2-2.9,0.6s-2.1,1.1-3.4,2c-1.2,1-2.3,2.5-3.1,4.7C508.4,83.1,507.9,85.7,507.8,88.7z"/>
		<path class="st14" d="M538.5,75.9v-1.9c2.7-0.1,4.9-1.1,6.7-3c1.8-1.9,3-4,3.6-6.3c0.6-2.3,0.9-4.9,1-7.6h2.2v16.1h12.5v2.7h-12.5
			v24.3c0,6.3,2,9.5,5.9,9.5c1.7,0,3.1-0.9,4.2-2.6c1.1-1.7,1.7-4.1,1.7-7.2V95h2.2v5c0,3.2-0.7,5.9-2.2,8.3
			c-1.5,2.4-3.6,3.5-6.5,3.5c-1.1,0-2.1-0.1-3.1-0.4c-1-0.3-2.2-0.8-3.6-1.5c-1.4-0.7-2.4-1.9-3.3-3.6c-0.8-1.7-1.3-3.8-1.3-6.3
			V75.9H538.5z"/>
		<path class="st14" d="M573.2,91.6c0-5.5,1.8-10.2,5.3-14.1c3.5-3.9,7.8-5.9,12.9-5.9c5.1,0,9,1.7,11.7,5c2.7,3.3,4,7.4,4,12.1
			c0,0.9-0.1,1.5-0.3,1.7c-0.2,0.2-0.8,0.3-1.8,0.3h-24.4c0,6,0.9,10.3,2.6,13.1c2.4,3.9,5.7,5.9,9.9,5.9c0.6,0,1.2-0.1,1.9-0.2
			c0.7-0.1,1.7-0.4,3.1-0.9c1.4-0.5,2.7-1.4,4-2.8c1.2-1.3,2.2-3.1,2.9-5.2c0.2-0.8,0.5-1.2,1.1-1.2c0.7,0,1.1,0.3,1.1,1
			c0,0.5-0.3,1.3-0.8,2.5c-0.6,1.2-1.4,2.4-2.4,3.8s-2.6,2.6-4.6,3.6c-2,1-4.3,1.5-6.7,1.5c-5.1,0-9.6-1.9-13.5-5.8
			C575.1,102.1,573.2,97.3,573.2,91.6z M580.5,88.7h20.8c0-1.2-0.1-2.5-0.3-3.9c-0.2-1.4-0.6-3-1.2-4.9c-0.6-1.9-1.6-3.4-3.1-4.6
			c-1.4-1.2-3.2-1.8-5.3-1.8c-0.9,0-1.9,0.2-2.9,0.6s-2.1,1.1-3.4,2c-1.2,1-2.3,2.5-3.1,4.7C581.1,83.1,580.6,85.7,580.5,88.7z"/>
		<path class="st14" d="M612,110.8v-2.7c3.1,0,5-0.2,5.7-0.6c0.7-0.4,1.1-1.5,1.1-3.4V80.7c0-2.2-0.4-3.5-1.1-4.1
			c-0.8-0.5-2.7-0.8-5.7-0.8v-2.7l12.2-0.9v9.6c0.8-2.5,2.1-4.7,3.9-6.7s4.1-2.9,6.9-2.9c1.9,0,3.4,0.5,4.6,1.6
			c1.2,1.1,1.8,2.3,1.8,3.8c0,1.3-0.4,2.2-1.2,2.9s-1.6,1-2.6,1c-1.1,0-1.9-0.3-2.7-1c-0.7-0.7-1.1-1.6-1.1-2.8
			c0-0.7,0.2-1.3,0.5-1.9c0.3-0.6,0.6-0.9,0.9-1.1c0.3-0.2,0.5-0.3,0.6-0.4c-0.1-0.1-0.4-0.1-0.9-0.1c-3.2,0-5.7,1.6-7.6,4.8
			c-1.8,3.2-2.8,7.1-2.8,11.6V104c0,1.7,0.3,2.8,1,3.3c0.7,0.5,2.6,0.8,5.6,0.8h1.8v2.7c-2.3-0.2-6-0.3-11.1-0.3c-0.7,0-1.6,0-2.7,0
			c-1.1,0-2.4,0.1-3.8,0.1C614,110.8,612.8,110.8,612,110.8z"/>
		<path class="st14" d="M646.5,110.8v-2.7c3.1,0,5-0.2,5.8-0.6c0.7-0.4,1.1-1.5,1.1-3.4V80.7c0-2.2-0.4-3.5-1.1-4.1
			s-2.7-0.8-5.7-0.8v-2.7l12.3-0.9l0,9.2c2.7-6.1,7.1-9.2,13-9.2c6.8,0,10.7,2.8,11.7,8.5c1-2.2,2.5-4.2,4.6-5.9
			c2.1-1.7,4.8-2.6,8.1-2.6c4.4,0,7.4,1.1,9.2,3.2c1.3,1.5,2.1,3,2.3,4.6c0.3,1.6,0.4,4.5,0.4,8.7v16.7c0.1,1.2,0.6,2,1.5,2.2
			c0.9,0.3,2.7,0.4,5.3,0.4v2.7c-6-0.2-9.2-0.3-9.8-0.3c-0.5,0-3.8,0.1-9.9,0.3v-2.7c3.1,0,5-0.2,5.7-0.6c0.7-0.4,1.1-1.5,1.1-3.4
			V83.8c0-3-0.5-5.3-1.4-7.1c-0.9-1.7-2.6-2.6-5.1-2.6c-3,0-5.7,1.3-8.2,3.8c-2.4,2.5-3.6,5.9-3.6,10.2v16c0,1.9,0.4,3,1.1,3.4
			c0.7,0.4,2.6,0.6,5.7,0.6v2.7c-6-0.2-9.2-0.3-9.8-0.3c-0.5,0-3.7,0.1-9.9,0.3v-2.7c3.1,0,5-0.2,5.7-0.6c0.7-0.4,1.1-1.5,1.1-3.4
			V83.8c0-3-0.5-5.3-1.4-7.1c-0.9-1.7-2.6-2.6-5.1-2.6c-3,0-5.8,1.3-8.2,3.8c-2.4,2.5-3.6,5.9-3.6,10.2v16c0,1.9,0.4,3,1.1,3.4
			c0.7,0.4,2.6,0.6,5.7,0.6v2.7c-6-0.2-9.2-0.3-9.8-0.3C656,110.6,652.7,110.7,646.5,110.8z"/>
		<path class="st14" d="M719.5,110.8v-2.7c3.1,0,5-0.2,5.7-0.6c0.7-0.4,1.1-1.5,1.1-3.4V80.6c0-2.2-0.4-3.5-1.1-4
			c-0.7-0.5-2.5-0.8-5.4-0.8v-2.7l12.2-0.9v32c0,1.7,0.3,2.8,0.9,3.2c0.6,0.4,2.4,0.6,5.2,0.6v2.7c-6-0.2-9-0.3-9.1-0.3
			C728.3,110.6,725.1,110.7,719.5,110.8z M723,56.9c0-1.2,0.5-2.2,1.4-3.2c0.9-1,2-1.4,3.3-1.4s2.4,0.4,3.3,1.3
			c0.9,0.9,1.4,2,1.4,3.3c0,1.4-0.5,2.5-1.4,3.3c-0.9,0.9-2,1.3-3.3,1.3c-1.4,0-2.5-0.5-3.4-1.4C723.5,59.2,723,58.2,723,56.9z"/>
		<path class="st14" d="M743.6,110.8v-2.7c3.1,0,5-0.2,5.8-0.6c0.7-0.4,1.1-1.5,1.1-3.4V80.7c0-2.2-0.4-3.5-1.1-4.1
			s-2.7-0.8-5.7-0.8v-2.7l12.3-0.9l0,9.2c2.7-6.1,7.1-9.2,13-9.2c4.4,0,7.5,1.1,9.2,3.2c1.3,1.5,2.1,3,2.3,4.6
			c0.3,1.6,0.4,4.5,0.4,8.7v16.7c0.1,1.2,0.6,2,1.5,2.2c0.9,0.3,2.7,0.4,5.3,0.4v2.7c-6-0.2-9.2-0.3-9.8-0.3c-0.5,0-3.7,0.1-9.9,0.3
			v-2.7c3.1,0,5-0.2,5.7-0.6c0.7-0.4,1.1-1.5,1.1-3.4V83.8c0-3-0.5-5.3-1.4-7.1c-0.9-1.7-2.6-2.6-5.1-2.6c-3,0-5.8,1.3-8.2,3.8
			c-2.4,2.5-3.6,5.9-3.6,10.2v16c0,1.9,0.4,3,1.1,3.4c0.7,0.4,2.6,0.6,5.7,0.6v2.7c-6-0.2-9.2-0.3-9.8-0.3
			C753,110.6,749.7,110.7,743.6,110.8z"/>
		<path class="st14" d="M793,102.5c0-5,3-8.8,8.9-11.4c3.6-1.7,9-2.7,16.4-3.2v-3.2c0-3.6-1-6.4-3-8.3c-2-1.9-4.3-2.9-6.8-2.9
			c-4.3,0-7.5,1.4-9.6,4.1c1.7,0.1,2.8,0.5,3.4,1.4c0.6,0.9,0.9,1.7,0.9,2.6c0,1.2-0.3,2.1-1,2.9c-0.7,0.8-1.6,1.1-2.8,1.1
			c-1.1,0-2.1-0.4-2.8-1.1c-0.7-0.7-1.1-1.7-1.1-3c0-2.8,1.3-5.2,3.9-7.1c2.6-1.9,5.7-2.8,9.4-2.8c4.9,0,9.1,1.6,12.4,4.8
			c1,1,1.8,2.1,2.3,3.4c0.5,1.3,0.8,2.3,0.9,3.2c0.1,0.8,0.1,2.1,0.1,3.7v17.5c0,0.3,0.1,0.8,0.2,1.4c0.1,0.6,0.4,1.2,1,1.9
			s1.2,1.1,2.1,1.1c2.1,0,3.1-1.9,3.1-5.6v-4.9h2.2v4.9c0,3.1-0.8,5.3-2.4,6.5c-1.6,1.2-3.2,1.8-4.7,1.8c-1.9,0-3.5-0.7-4.7-2.1
			c-1.2-1.4-1.9-3.1-2.1-5.1c-0.9,2.2-2.4,4.1-4.6,5.5s-4.6,2.2-7.5,2.2c-2.1,0-4.1-0.3-6.1-0.8c-2-0.5-3.8-1.5-5.4-3
			C793.8,106.6,793,104.7,793,102.5z M800.3,102.4c0,2.2,0.7,4,2.1,5.4c1.4,1.4,3.1,2.1,5.1,2.1c2.6,0,5-0.9,7.3-2.8
			c2.3-1.9,3.5-4.7,3.5-8.5v-8.8c-6.4,0.2-11.1,1.6-13.9,4.2C801.7,96.6,800.3,99.4,800.3,102.4z"/>
	</g>
	<g>
		<path class="st14" d="M835.9,110.8v-2.7c3.1,0,5-0.2,5.8-0.6c0.7-0.4,1.1-1.5,1.1-3.4V80.7c0-2.2-0.4-3.5-1.1-4.1
			s-2.7-0.8-5.7-0.8v-2.7l12.3-0.9l0,9.2c2.7-6.1,7.1-9.2,13-9.2c4.4,0,7.5,1.1,9.2,3.2c1.3,1.5,2.1,3,2.3,4.6
			c0.3,1.6,0.4,4.5,0.4,8.7v16.7c0.1,1.2,0.6,2,1.5,2.2c0.9,0.3,2.7,0.4,5.3,0.4v2.7c-6-0.2-9.2-0.3-9.8-0.3c-0.5,0-3.7,0.1-9.9,0.3
			v-2.7c3.1,0,5-0.2,5.7-0.6c0.7-0.4,1.1-1.5,1.1-3.4V83.8c0-3-0.5-5.3-1.4-7.1c-0.9-1.7-2.6-2.6-5.1-2.6c-3,0-5.8,1.3-8.2,3.8
			c-2.4,2.5-3.6,5.9-3.6,10.2v16c0,1.9,0.4,3,1.1,3.4c0.7,0.4,2.6,0.6,5.7,0.6v2.7c-6-0.2-9.2-0.3-9.8-0.3
			C845.3,110.6,842,110.7,835.9,110.8z"/>
	</g>
	<g>
		<path class="st14" d="M880.9,75.9v-1.9c2.7-0.1,4.9-1.1,6.7-3c1.8-1.9,3-4,3.6-6.3c0.6-2.3,0.9-4.9,1-7.6h2.2v16.1h12.5v2.7h-12.5
			v24.3c0,6.3,2,9.5,5.9,9.5c1.7,0,3.1-0.9,4.2-2.6c1.1-1.7,1.7-4.1,1.7-7.2V95h2.2v5c0,3.2-0.7,5.9-2.2,8.3
			c-1.5,2.4-3.6,3.5-6.5,3.5c-1.1,0-2.1-0.1-3.1-0.4c-1-0.3-2.2-0.8-3.6-1.5c-1.4-0.7-2.4-1.9-3.3-3.6c-0.8-1.7-1.3-3.8-1.3-6.3
			V75.9H880.9z"/>
	</g>
	<g>
		<path class="st5" d="M915.1,58c-0.9-0.9-1.3-2-1.3-3.2c0-1.3,0.4-2.4,1.3-3.3c0.9-0.9,2-1.3,3.3-1.3c1.7,0,3.1,0.8,4.2,2.5
			c1.1,1.7,1.6,3.9,1.6,6.7c0,2.8-0.6,5.7-1.8,8.4s-2.4,4.9-3.6,6.3c-1.3,1.4-2.2,2.1-2.8,2.1s-0.9-0.3-0.9-0.9
			c0-0.2,0.4-0.8,1.1-1.7c0.7-0.9,1.5-1.9,2.4-3s1.7-2.7,2.4-4.7c0.7-2,1.1-4.2,1.1-6.6c0-0.9,0-1.5-0.1-1.9
			c-1.1,1.2-2.4,1.8-3.8,1.8C917.1,59.3,916,58.9,915.1,58z M933.5,58c-0.9-0.9-1.3-2-1.3-3.2c0-1.3,0.4-2.4,1.3-3.3
			c0.9-0.9,2-1.3,3.3-1.3c1.7,0,3.1,0.8,4.2,2.5c1.1,1.7,1.6,3.9,1.6,6.7c0,2.8-0.6,5.7-1.8,8.4s-2.4,4.9-3.6,6.3
			c-1.3,1.4-2.2,2.1-2.8,2.1s-0.9-0.3-0.9-0.9c0-0.2,0.4-0.8,1.1-1.7c0.7-0.9,1.5-1.9,2.4-3s1.7-2.7,2.4-4.7c0.7-2,1.1-4.2,1.1-6.6
			c0-0.9,0-1.5-0.1-1.9c-1.1,1.2-2.4,1.8-3.8,1.8C935.5,59.3,934.4,58.9,933.5,58z"/>
		<path class="st5" d="M979.5,106.1c-3.9-3.8-5.8-8.5-5.8-14s1.9-10.4,5.7-14.4c3.8-4.1,8.4-6.1,13.8-6.1c5.3,0,9.8,2,13.6,6
			c3.8,4,5.7,8.9,5.7,14.5c0,5.5-1.9,10.2-5.7,14s-8.4,5.7-13.7,5.7C987.9,111.8,983.4,109.9,979.5,106.1z M981,91.4
			c0,5.7,0.7,9.8,2.2,12.4c2.3,3.9,5.6,5.9,10,5.9c2.2,0,4.2-0.6,6-1.8c1.8-1.2,3.2-2.7,4.2-4.7c1.3-2.6,1.9-6.5,1.9-11.8
			c0-5.6-0.8-9.7-2.3-12.2c-2.3-3.8-5.6-5.7-9.9-5.7c-1.9,0-3.7,0.5-5.6,1.5c-1.8,1-3.3,2.4-4.4,4.4C981.7,82,981,86,981,91.4z"/>
		<path class="st5" d="M1017.9,75.9v-2.7h6.9v-10c0-4.3,1.4-7.7,4.2-10.2s5.9-3.7,9.4-3.7c2.3,0,4.1,0.6,5.6,1.8
			c1.5,1.2,2.2,2.7,2.2,4.3c0,1.1-0.3,2-1,2.8c-0.7,0.7-1.6,1.1-2.8,1.1c-1.2,0-2.1-0.4-2.7-1.1c-0.7-0.7-1-1.6-1-2.6
			c0-1.9,0.9-3.1,2.6-3.7c-0.9-0.4-1.8-0.6-2.9-0.6c-2.1,0-4,1.1-5.6,3.2c-1.6,2.2-2.5,5.1-2.5,8.7v10.1h10.3v2.7h-10V104
			c0,1.7,0.3,2.8,1.1,3.3s2.6,0.8,5.6,0.8h1.8v2.7c-2.3-0.2-6.1-0.3-11.1-0.3c-0.7,0-1.6,0-2.7,0c-1.1,0-2.4,0.1-3.8,0.1
			c-1.5,0.1-2.6,0.1-3.4,0.1v-2.7c3.1,0,5-0.2,5.7-0.6c0.7-0.4,1.1-1.5,1.1-3.4V75.9H1017.9z"/>
		<path class="st5" d="M1074.4,102.5c0-5,3-8.8,8.9-11.4c3.6-1.7,9-2.7,16.4-3.2v-3.2c0-3.6-1-6.4-3-8.3c-2-1.9-4.3-2.9-6.8-2.9
			c-4.3,0-7.5,1.4-9.6,4.1c1.7,0.1,2.8,0.5,3.4,1.4c0.6,0.9,0.9,1.7,0.9,2.6c0,1.2-0.3,2.1-1,2.9c-0.7,0.8-1.6,1.1-2.8,1.1
			c-1.1,0-2.1-0.4-2.8-1.1c-0.7-0.7-1.1-1.7-1.1-3c0-2.8,1.3-5.2,3.9-7.1c2.6-1.9,5.7-2.8,9.4-2.8c4.9,0,9.1,1.6,12.4,4.8
			c1,1,1.8,2.1,2.3,3.4c0.5,1.3,0.8,2.3,0.9,3.2c0.1,0.8,0.1,2.1,0.1,3.7v17.5c0,0.3,0.1,0.8,0.2,1.4c0.1,0.6,0.4,1.2,1,1.9
			s1.2,1.1,2.1,1.1c2.1,0,3.1-1.9,3.1-5.6v-4.9h2.2v4.9c0,3.1-0.8,5.3-2.4,6.5c-1.6,1.2-3.2,1.8-4.7,1.8c-1.9,0-3.5-0.7-4.7-2.1
			c-1.2-1.4-1.9-3.1-2.1-5.1c-0.9,2.2-2.4,4.1-4.6,5.5s-4.6,2.2-7.5,2.2c-2.1,0-4.1-0.3-6.1-0.8c-2-0.5-3.8-1.5-5.4-3
			C1075.3,106.6,1074.4,104.7,1074.4,102.5z M1081.7,102.4c0,2.2,0.7,4,2.1,5.4c1.4,1.4,3.1,2.1,5.1,2.1c2.6,0,5-0.9,7.3-2.8
			c2.3-1.9,3.5-4.7,3.5-8.5v-8.8c-6.4,0.2-11.1,1.6-13.9,4.2C1083.1,96.6,1081.7,99.4,1081.7,102.4z"/>
		<path class="st5" d="M1145.3,75.9v-1.9c2.7-0.1,4.9-1.1,6.7-3c1.8-1.9,3-4,3.6-6.3c0.6-2.3,0.9-4.9,1-7.6h2.2v16.1h12.5v2.7h-12.5
			v24.3c0,6.3,2,9.5,5.9,9.5c1.7,0,3.1-0.9,4.2-2.6c1.1-1.7,1.7-4.1,1.7-7.2V95h2.2v5c0,3.2-0.7,5.9-2.2,8.3
			c-1.5,2.4-3.6,3.5-6.5,3.5c-1.1,0-2.1-0.1-3.1-0.4c-1-0.3-2.2-0.8-3.6-1.5c-1.4-0.7-2.4-1.9-3.3-3.6c-0.8-1.7-1.3-3.8-1.3-6.3
			V75.9H1145.3z"/>
		<path class="st5" d="M1180,110.8v-2.7c3.1,0,5-0.2,5.7-0.6c0.7-0.4,1.1-1.5,1.1-3.4V80.7c0-2.2-0.4-3.5-1.1-4.1
			c-0.8-0.5-2.7-0.8-5.7-0.8v-2.7l12.2-0.9v9.6c0.8-2.5,2.1-4.7,3.9-6.7s4.1-2.9,6.9-2.9c1.9,0,3.4,0.5,4.6,1.6
			c1.2,1.1,1.8,2.3,1.8,3.8c0,1.3-0.4,2.2-1.2,2.9s-1.6,1-2.6,1c-1.1,0-1.9-0.3-2.7-1c-0.7-0.7-1.1-1.6-1.1-2.8
			c0-0.7,0.2-1.3,0.5-1.9c0.3-0.6,0.6-0.9,0.9-1.1c0.3-0.2,0.5-0.3,0.6-0.4c-0.1-0.1-0.4-0.1-0.9-0.1c-3.2,0-5.7,1.6-7.6,4.8
			c-1.8,3.2-2.8,7.1-2.8,11.6V104c0,1.7,0.3,2.8,1,3.3c0.7,0.5,2.6,0.8,5.6,0.8h1.8v2.7c-2.3-0.2-6-0.3-11.1-0.3c-0.7,0-1.6,0-2.7,0
			c-1.1,0-2.4,0.1-3.8,0.1C1181.9,110.8,1180.8,110.8,1180,110.8z"/>
		<path class="st5" d="M1215.4,102.5c0-5,3-8.8,8.9-11.4c3.6-1.7,9-2.7,16.4-3.2v-3.2c0-3.6-1-6.4-3-8.3c-2-1.9-4.3-2.9-6.8-2.9
			c-4.3,0-7.5,1.4-9.6,4.1c1.7,0.1,2.8,0.5,3.4,1.4c0.6,0.9,0.9,1.7,0.9,2.6c0,1.2-0.3,2.1-1,2.9c-0.7,0.8-1.6,1.1-2.8,1.1
			c-1.1,0-2.1-0.4-2.8-1.1c-0.7-0.7-1.1-1.7-1.1-3c0-2.8,1.3-5.2,3.9-7.1c2.6-1.9,5.7-2.8,9.4-2.8c4.9,0,9.1,1.6,12.4,4.8
			c1,1,1.8,2.1,2.3,3.4c0.5,1.3,0.8,2.3,0.9,3.2c0.1,0.8,0.1,2.1,0.1,3.7v17.5c0,0.3,0.1,0.8,0.2,1.4c0.1,0.6,0.4,1.2,1,1.9
			s1.2,1.1,2.1,1.1c2.1,0,3.1-1.9,3.1-5.6v-4.9h2.2v4.9c0,3.1-0.8,5.3-2.4,6.5c-1.6,1.2-3.2,1.8-4.7,1.8c-1.9,0-3.5-0.7-4.7-2.1
			c-1.2-1.4-1.9-3.1-2.1-5.1c-0.9,2.2-2.4,4.1-4.6,5.5s-4.6,2.2-7.5,2.2c-2.1,0-4.1-0.3-6.1-0.8c-2-0.5-3.8-1.5-5.4-3
			C1216.2,106.6,1215.4,104.7,1215.4,102.5z M1222.6,102.4c0,2.2,0.7,4,2.1,5.4c1.4,1.4,3.1,2.1,5.1,2.1c2.6,0,5-0.9,7.3-2.8
			c2.3-1.9,3.5-4.7,3.5-8.5v-8.8c-6.4,0.2-11.1,1.6-13.9,4.2C1224,96.6,1222.6,99.4,1222.6,102.4z"/>
		<path class="st5" d="M1258.2,110.8v-2.7c3.1,0,5-0.2,5.8-0.6c0.7-0.4,1.1-1.5,1.1-3.4V80.7c0-2.2-0.4-3.5-1.1-4.1
			s-2.7-0.8-5.7-0.8v-2.7l12.3-0.9l0,9.2c2.7-6.1,7.1-9.2,13-9.2c4.4,0,7.5,1.1,9.2,3.2c1.3,1.5,2.1,3,2.3,4.6
			c0.3,1.6,0.4,4.5,0.4,8.7v16.7c0.1,1.2,0.6,2,1.5,2.2c0.9,0.3,2.7,0.4,5.3,0.4v2.7c-6-0.2-9.2-0.3-9.8-0.3c-0.5,0-3.7,0.1-9.9,0.3
			v-2.7c3.1,0,5-0.2,5.7-0.6c0.7-0.4,1.1-1.5,1.1-3.4V83.8c0-3-0.5-5.3-1.4-7.1c-0.9-1.7-2.6-2.6-5.1-2.6c-3,0-5.8,1.3-8.2,3.8
			c-2.4,2.5-3.6,5.9-3.6,10.2v16c0,1.9,0.4,3,1.1,3.4c0.7,0.4,2.6,0.6,5.7,0.6v2.7c-6-0.2-9.2-0.3-9.8-0.3
			C1267.7,110.6,1264.4,110.7,1258.2,110.8z"/>
		<path class="st5" d="M1306.9,109.7V98.2c0-0.7,0-1.1,0-1.3s0.1-0.4,0.3-0.6c0.2-0.2,0.4-0.3,0.8-0.3c0.4,0,0.7,0.1,0.9,0.3
			c0.2,0.2,0.3,0.6,0.4,1.2c0.8,4,2.2,7.1,4.1,9.2c1.9,2.1,4.6,3.2,8,3.2c3.3,0,5.7-0.7,7.4-2.2c1.7-1.5,2.5-3.4,2.5-5.8
			c0-4.3-3-7-9.1-8c-3.5-0.7-6-1.3-7.4-1.8c-1.5-0.5-2.8-1.2-4.1-2.3c-2.5-2.1-3.8-4.5-3.8-7.4s1.1-5.4,3.3-7.6
			c2.2-2.1,5.8-3.2,10.7-3.2c3.3,0,6,0.8,8.2,2.5c0.7-0.5,1.2-1,1.5-1.4c0.8-0.7,1.5-1.1,1.9-1.1c0.5,0,0.8,0.1,0.9,0.4
			c0.1,0.3,0.1,0.9,0.1,1.7v8.8c0,0.7,0,1.1,0,1.3c0,0.2-0.1,0.4-0.3,0.6c-0.2,0.2-0.5,0.2-0.9,0.2c-0.7,0-1.1-0.3-1.2-0.8
			c-0.5-7.1-3.9-10.6-10.3-10.6c-3.4,0-5.9,0.7-7.5,2s-2.3,2.9-2.3,4.7c0,1,0.2,1.9,0.7,2.6c0.5,0.8,1,1.4,1.6,1.8
			c0.6,0.4,1.5,0.9,2.6,1.3c1.1,0.4,2.1,0.7,2.8,0.8c0.7,0.1,1.7,0.4,3.1,0.6c4.7,0.9,8,2.3,10,4.2c2.4,2.5,3.7,5.2,3.7,8.3
			c0,3.4-1.2,6.3-3.5,8.6c-2.3,2.3-5.9,3.5-10.6,3.5c-3.8,0-7-1.3-9.7-3.8c-0.3,0.3-0.6,0.7-0.9,1c-0.2,0.3-0.4,0.5-0.5,0.6
			c-0.1,0.1-0.2,0.2-0.2,0.3c0,0.1-0.1,0.1-0.1,0.2c-1.2,1.1-1.9,1.7-2.2,1.7c-0.5,0-0.8-0.1-0.8-0.4
			C1306.9,111.1,1306.9,110.5,1306.9,109.7z"/>
		<path class="st5" d="M1341.3,75.9v-2.7h6.9v-10c0-4.3,1.4-7.7,4.2-10.2s5.9-3.7,9.4-3.7c2.3,0,4.1,0.6,5.6,1.8
			c1.5,1.2,2.2,2.7,2.2,4.3c0,1.1-0.3,2-1,2.8c-0.7,0.7-1.6,1.1-2.8,1.1c-1.2,0-2.1-0.4-2.7-1.1c-0.7-0.7-1-1.6-1-2.6
			c0-1.9,0.9-3.1,2.6-3.7c-0.9-0.4-1.8-0.6-2.9-0.6c-2.1,0-4,1.1-5.6,3.2c-1.6,2.2-2.5,5.1-2.5,8.7v10.1h10.3v2.7h-10V104
			c0,1.7,0.3,2.8,1.1,3.3s2.6,0.8,5.6,0.8h1.8v2.7c-2.3-0.2-6.1-0.3-11.1-0.3c-0.7,0-1.6,0-2.7,0c-1.1,0-2.4,0.1-3.8,0.1
			c-1.5,0.1-2.6,0.1-3.4,0.1v-2.7c3.1,0,5-0.2,5.7-0.6c0.7-0.4,1.1-1.5,1.1-3.4V75.9H1341.3z"/>
		<path class="st5" d="M1373.3,106.1c-3.9-3.8-5.8-8.5-5.8-14s1.9-10.4,5.7-14.4c3.8-4.1,8.4-6.1,13.8-6.1c5.3,0,9.8,2,13.6,6
			c3.8,4,5.7,8.9,5.7,14.5c0,5.5-1.9,10.2-5.7,14s-8.4,5.7-13.7,5.7C1381.7,111.8,1377.1,109.9,1373.3,106.1z M1374.8,91.4
			c0,5.7,0.7,9.8,2.2,12.4c2.3,3.9,5.6,5.9,10,5.9c2.2,0,4.2-0.6,6-1.8c1.8-1.2,3.2-2.7,4.2-4.7c1.3-2.6,1.9-6.5,1.9-11.8
			c0-5.6-0.8-9.7-2.3-12.2c-2.3-3.8-5.6-5.7-9.9-5.7c-1.9,0-3.7,0.5-5.6,1.5c-1.8,1-3.3,2.4-4.4,4.4
			C1375.5,82,1374.8,86,1374.8,91.4z"/>
		<path class="st5" d="M1411.2,110.8v-2.7c3.1,0,5-0.2,5.7-0.6c0.7-0.4,1.1-1.5,1.1-3.4V80.7c0-2.2-0.4-3.5-1.1-4.1
			c-0.8-0.5-2.7-0.8-5.7-0.8v-2.7l12.2-0.9v9.6c0.8-2.5,2.1-4.7,3.9-6.7s4.1-2.9,6.9-2.9c1.9,0,3.4,0.5,4.6,1.6
			c1.2,1.1,1.8,2.3,1.8,3.8c0,1.3-0.4,2.2-1.2,2.9s-1.6,1-2.6,1c-1.1,0-1.9-0.3-2.7-1c-0.7-0.7-1.1-1.6-1.1-2.8
			c0-0.7,0.2-1.3,0.5-1.9c0.3-0.6,0.6-0.9,0.9-1.1c0.3-0.2,0.5-0.3,0.6-0.4c-0.1-0.1-0.4-0.1-0.9-0.1c-3.2,0-5.7,1.6-7.6,4.8
			c-1.8,3.2-2.8,7.1-2.8,11.6V104c0,1.7,0.3,2.8,1,3.3c0.7,0.5,2.6,0.8,5.6,0.8h1.8v2.7c-2.3-0.2-6-0.3-11.1-0.3c-0.7,0-1.6,0-2.7,0
			c-1.1,0-2.4,0.1-3.8,0.1C1413.2,110.8,1412.1,110.8,1411.2,110.8z"/>
		<path class="st5" d="M1445.8,110.8v-2.7c3.1,0,5-0.2,5.8-0.6c0.7-0.4,1.1-1.5,1.1-3.4V80.7c0-2.2-0.4-3.5-1.1-4.1
			s-2.7-0.8-5.7-0.8v-2.7l12.3-0.9l0,9.2c2.7-6.1,7.1-9.2,13-9.2c6.8,0,10.7,2.8,11.7,8.5c1-2.2,2.5-4.2,4.6-5.9
			c2.1-1.7,4.8-2.6,8.1-2.6c4.4,0,7.4,1.1,9.2,3.2c1.3,1.5,2.1,3,2.3,4.6c0.3,1.6,0.4,4.5,0.4,8.7v16.7c0.1,1.2,0.6,2,1.5,2.2
			c0.9,0.3,2.7,0.4,5.3,0.4v2.7c-6-0.2-9.2-0.3-9.8-0.3c-0.5,0-3.8,0.1-9.9,0.3v-2.7c3.1,0,5-0.2,5.7-0.6c0.7-0.4,1.1-1.5,1.1-3.4
			V83.8c0-3-0.5-5.3-1.4-7.1c-0.9-1.7-2.6-2.6-5.1-2.6c-3,0-5.7,1.3-8.2,3.8c-2.4,2.5-3.6,5.9-3.6,10.2v16c0,1.9,0.4,3,1.1,3.4
			c0.7,0.4,2.6,0.6,5.7,0.6v2.7c-6-0.2-9.2-0.3-9.8-0.3c-0.5,0-3.7,0.1-9.9,0.3v-2.7c3.1,0,5-0.2,5.7-0.6c0.7-0.4,1.1-1.5,1.1-3.4
			V83.8c0-3-0.5-5.3-1.4-7.1c-0.9-1.7-2.6-2.6-5.1-2.6c-3,0-5.8,1.3-8.2,3.8c-2.4,2.5-3.6,5.9-3.6,10.2v16c0,1.9,0.4,3,1.1,3.4
			c0.7,0.4,2.6,0.6,5.7,0.6v2.7c-6-0.2-9.2-0.3-9.8-0.3C1455.2,110.6,1451.9,110.7,1445.8,110.8z"/>
		<path class="st5" d="M1519.5,102.5c0-5,3-8.8,8.9-11.4c3.6-1.7,9-2.7,16.4-3.2v-3.2c0-3.6-1-6.4-3-8.3c-2-1.9-4.3-2.9-6.8-2.9
			c-4.3,0-7.5,1.4-9.6,4.1c1.7,0.1,2.8,0.5,3.4,1.4c0.6,0.9,0.9,1.7,0.9,2.6c0,1.2-0.3,2.1-1,2.9c-0.7,0.8-1.6,1.1-2.8,1.1
			c-1.1,0-2.1-0.4-2.8-1.1c-0.7-0.7-1.1-1.7-1.1-3c0-2.8,1.3-5.2,3.9-7.1c2.6-1.9,5.7-2.8,9.4-2.8c4.9,0,9.1,1.6,12.4,4.8
			c1,1,1.8,2.1,2.3,3.4c0.5,1.3,0.8,2.3,0.9,3.2c0.1,0.8,0.1,2.1,0.1,3.7v17.5c0,0.3,0.1,0.8,0.2,1.4c0.1,0.6,0.4,1.2,1,1.9
			s1.2,1.1,2.1,1.1c2.1,0,3.1-1.9,3.1-5.6v-4.9h2.2v4.9c0,3.1-0.8,5.3-2.4,6.5c-1.6,1.2-3.2,1.8-4.7,1.8c-1.9,0-3.5-0.7-4.7-2.1
			c-1.2-1.4-1.9-3.1-2.1-5.1c-0.9,2.2-2.4,4.1-4.6,5.5s-4.6,2.2-7.5,2.2c-2.1,0-4.1-0.3-6.1-0.8c-2-0.5-3.8-1.5-5.4-3
			C1520.3,106.6,1519.5,104.7,1519.5,102.5z M1526.8,102.4c0,2.2,0.7,4,2.1,5.4c1.4,1.4,3.1,2.1,5.1,2.1c2.6,0,5-0.9,7.3-2.8
			c2.3-1.9,3.5-4.7,3.5-8.5v-8.8c-6.4,0.2-11.1,1.6-13.9,4.2C1528.2,96.6,1526.8,99.4,1526.8,102.4z"/>
		<path class="st5" d="M1561.2,75.9v-1.9c2.7-0.1,4.9-1.1,6.7-3c1.8-1.9,3-4,3.6-6.3c0.6-2.3,0.9-4.9,1-7.6h2.2v16.1h12.5v2.7h-12.5
			v24.3c0,6.3,2,9.5,5.9,9.5c1.7,0,3.1-0.9,4.2-2.6c1.1-1.7,1.7-4.1,1.7-7.2V95h2.2v5c0,3.2-0.7,5.9-2.2,8.3
			c-1.5,2.4-3.6,3.5-6.5,3.5c-1.1,0-2.1-0.1-3.1-0.4c-1-0.3-2.2-0.8-3.6-1.5c-1.4-0.7-2.4-1.9-3.3-3.6c-0.8-1.7-1.3-3.8-1.3-6.3
			V75.9H1561.2z"/>
		<path class="st5" d="M1596.4,110.8v-2.7c3.1,0,5-0.2,5.7-0.6c0.7-0.4,1.1-1.5,1.1-3.4V80.6c0-2.2-0.4-3.5-1.1-4
			c-0.7-0.5-2.5-0.8-5.4-0.8v-2.7l12.2-0.9v32c0,1.7,0.3,2.8,0.9,3.2c0.6,0.4,2.4,0.6,5.2,0.6v2.7c-6-0.2-9-0.3-9.1-0.3
			C1605.2,110.6,1602,110.7,1596.4,110.8z M1599.9,56.9c0-1.2,0.5-2.2,1.4-3.2c0.9-1,2-1.4,3.3-1.4s2.4,0.4,3.3,1.3
			c0.9,0.9,1.4,2,1.4,3.3c0,1.4-0.5,2.5-1.4,3.3c-0.9,0.9-2,1.3-3.3,1.3c-1.4,0-2.5-0.5-3.4-1.4
			C1600.4,59.2,1599.9,58.2,1599.9,56.9z"/>
		<path class="st5" d="M1625.9,106.1c-3.9-3.8-5.8-8.5-5.8-14s1.9-10.4,5.7-14.4c3.8-4.1,8.4-6.1,13.8-6.1c5.3,0,9.8,2,13.6,6
			c3.8,4,5.7,8.9,5.7,14.5c0,5.5-1.9,10.2-5.7,14s-8.4,5.7-13.7,5.7C1634.3,111.8,1629.8,109.9,1625.9,106.1z M1627.4,91.4
			c0,5.7,0.7,9.8,2.2,12.4c2.3,3.9,5.6,5.9,10,5.9c2.2,0,4.2-0.6,6-1.8c1.8-1.2,3.2-2.7,4.2-4.7c1.3-2.6,1.9-6.5,1.9-11.8
			c0-5.6-0.8-9.7-2.3-12.2c-2.3-3.8-5.6-5.7-9.9-5.7c-1.9,0-3.7,0.5-5.6,1.5c-1.8,1-3.3,2.4-4.4,4.4
			C1628.1,82,1627.4,86,1627.4,91.4z"/>
		<path class="st5" d="M1664.2,110.8v-2.7c3.1,0,5-0.2,5.8-0.6c0.7-0.4,1.1-1.5,1.1-3.4V80.7c0-2.2-0.4-3.5-1.1-4.1
			s-2.7-0.8-5.7-0.8v-2.7l12.3-0.9l0,9.2c2.7-6.1,7.1-9.2,13-9.2c4.4,0,7.5,1.1,9.2,3.2c1.3,1.5,2.1,3,2.3,4.6
			c0.3,1.6,0.4,4.5,0.4,8.7v16.7c0.1,1.2,0.6,2,1.5,2.2c0.9,0.3,2.7,0.4,5.3,0.4v2.7c-6-0.2-9.2-0.3-9.8-0.3c-0.5,0-3.7,0.1-9.9,0.3
			v-2.7c3.1,0,5-0.2,5.7-0.6c0.7-0.4,1.1-1.5,1.1-3.4V83.8c0-3-0.5-5.3-1.4-7.1c-0.9-1.7-2.6-2.6-5.1-2.6c-3,0-5.8,1.3-8.2,3.8
			c-2.4,2.5-3.6,5.9-3.6,10.2v16c0,1.9,0.4,3,1.1,3.4c0.7,0.4,2.6,0.6,5.7,0.6v2.7c-6-0.2-9.2-0.3-9.8-0.3
			C1673.7,110.6,1670.4,110.7,1664.2,110.8z"/>
	</g>
	<path d="M290.6,339.2H224v46.4h66.6V339.2 M353.6,339.2H292v46.4h61.6V339.2 M375.9,339.2h-21v46.4h21V339.2 M290.6,279.2H224v58.5
		h66.6V279.2 M353.6,279.2H292v58.5h61.6V279.2 M375.9,279.2h-21v58.5h21V279.2"/>
	<path class="st7" d="M290.6,337.8H224v1.4h66.6V337.8 M353.6,337.8H292v1.4h61.6V337.8 M375.9,337.8h-21v1.4h21V337.8"/>
	<polyline class="st7" points="355,279.2 353.6,279.2 353.6,337.8 353.6,339.2 353.6,385.6 355,385.6 355,339.2 355,337.8 
		355,279.2 	"/>
	<polyline class="st8" points="292,279.2 290.6,279.2 290.6,337.8 290.6,339.2 290.6,385.6 292,385.6 292,339.2 292,337.8 
		292,279.2 	"/>
	<g>
		<path class="st5" d="M243.8,345.4c0-5.5,1.9-10.2,5.8-14.1c3.9-3.8,8.4-5.8,13.7-5.8c4.4,0,8.1,1.8,11,5.4V312
			c0-2.2-0.4-3.5-1.1-4.1c-0.8-0.5-2.7-0.8-5.7-0.8v-2.7l12.6-0.9v53.1c0,2.2,0.4,3.5,1.1,4.1c0.8,0.6,2.7,0.8,5.7,0.8v2.7l-12.9,1
			v-5.8c-3,3.9-6.9,5.8-11.7,5.8c-5,0-9.4-1.9-13-5.8S243.8,350.9,243.8,345.4z M251,345.5c0,5.4,0.8,9.5,2.5,12.2
			c2.3,3.7,5.4,5.6,9.2,5.6c4.3,0,7.8-2,10.3-6.1c0.7-1,1-2.1,0.9-3.3v-18c0-1.2-0.3-2.2-0.9-3.2c-2.4-3.5-5.5-5.3-9.4-5.3
			c-4.1,0-7.4,1.9-9.9,5.6C251.9,335.8,251,340,251,345.5z"/>
		<path class="st5" d="M291.7,344.9c0-5.5,1.8-10.2,5.3-14.1c3.5-3.9,7.8-5.9,12.9-5.9c5.1,0,9,1.7,11.7,5c2.7,3.3,4,7.4,4,12.1
			c0,0.9-0.1,1.5-0.3,1.7c-0.2,0.2-0.8,0.3-1.8,0.3H299c0,6,0.9,10.3,2.6,13.1c2.4,3.9,5.7,5.9,9.9,5.9c0.6,0,1.2-0.1,1.9-0.2
			c0.7-0.1,1.7-0.4,3.1-0.9c1.4-0.5,2.7-1.4,4-2.8c1.2-1.3,2.2-3.1,2.9-5.2c0.2-0.8,0.5-1.2,1.1-1.2c0.7,0,1.1,0.3,1.1,1
			c0,0.5-0.3,1.3-0.8,2.5c-0.6,1.2-1.4,2.4-2.4,3.8s-2.6,2.6-4.6,3.6c-2,1-4.3,1.5-6.7,1.5c-5.1,0-9.6-1.9-13.5-5.8
			C293.7,355.5,291.7,350.6,291.7,344.9z M299.1,342.1h20.8c0-1.2-0.1-2.5-0.3-3.9c-0.2-1.4-0.6-3-1.2-4.9c-0.6-1.9-1.6-3.4-3.1-4.6
			c-1.4-1.2-3.2-1.8-5.3-1.8c-0.9,0-1.9,0.2-2.9,0.6s-2.1,1.1-3.4,2c-1.2,1-2.3,2.5-3.1,4.7C299.7,336.5,299.2,339,299.1,342.1z"/>
		<path class="st5" d="M329.8,329.2v-1.9c2.7-0.1,4.9-1.1,6.7-3c1.8-1.9,3-4,3.6-6.3c0.6-2.3,0.9-4.9,1-7.6h2.2v16.1h12.5v2.7h-12.5
			v24.3c0,6.3,2,9.5,5.9,9.5c1.7,0,3.1-0.9,4.2-2.6c1.1-1.7,1.7-4.1,1.7-7.2v-4.8h2.2v5c0,3.2-0.7,5.9-2.2,8.3
			c-1.5,2.4-3.6,3.5-6.5,3.5c-1.1,0-2.1-0.1-3.1-0.4c-1-0.3-2.2-0.8-3.6-1.5c-1.4-0.7-2.4-1.9-3.3-3.6c-0.8-1.7-1.3-3.8-1.3-6.3
			v-24.1H329.8z"/>
	</g>
	<path class="st5" d="M384.8,339.9c0-39.9,4.8-73.2,14.4-99.8c9.6-26.6,20.8-45.8,33.7-57.6l3.9,5.2c-11.3,12.1-20.6,31-27.9,56.7
		c-7.3,25.6-11,57.5-11,95.6c0,38.1,3.7,70,11,95.6c7.3,25.6,16.6,44.5,27.9,56.7l-3.9,5.2c-12.9-11.7-24.1-30.9-33.7-57.6
		C389.6,413.3,384.8,379.9,384.8,339.9z"/>
	<g>
	</g>
	<path class="st5" d="M858.6,339.9c0,40-4.8,73.3-14.4,100c-9.6,26.6-20.8,45.8-33.7,57.6l-3.9-5.2c11.3-12.1,20.6-31,27.9-56.7
		c7.3-25.6,11-57.5,11-95.6c0-38.1-3.7-70-11-95.6c-7.3-25.6-16.7-44.5-27.9-56.7l3.9-5.2c12.9,11.7,24.1,30.9,33.7,57.6
		C853.9,266.7,858.6,300,858.6,339.9z"/>
	<path d="M892.6,339.2h-22.5V390h22.5V339.2 M961.6,339.2H894V390h67.6V339.2 M1016.1,339.2h-51.5V390h51.5V339.2 M892.6,283.7
		h-22.5v54h22.5V283.7 M961.6,283.7H894v54h67.6V283.7 M1016.1,283.7h-51.5v54h51.5V283.7"/>
	<path class="st7" d="M892.6,337.8h-22.5v1.4h22.5V337.8 M961.6,337.8H894v1.4h67.6V337.8 M1016.1,337.8h-51.5v1.4h51.5V337.8"/>
	<polyline class="st7" points="894,283.7 892.6,283.7 892.6,337.8 892.6,339.2 892.6,390 894,390 894,339.2 894,337.8 894,283.7 	
		"/>
	<polyline class="st13" points="964.6,283.7 961.6,283.7 961.6,337.8 961.6,339.2 961.6,390 964.6,390 964.6,339.2 964.6,337.8 
		964.6,283.7 	"/>
	<path d="M870.1,339.2h-6V390h6V339.2 M870.1,283.7h-6v54h6V283.7"/>
	<polyline class="st15" points="870.1,337.8 864.1,337.8 864.1,339.2 870.1,339.2 870.1,337.8 	"/>
	<g>
		<path class="st5" d="M885.9,338.3c0-0.7,0.6-1,1.8-1h53.4c1.7,0,2.6,0.3,2.6,1c0,0.6-0.7,0.9-2.2,0.9h-54
			C886.5,339.3,885.9,339,885.9,338.3z M885.9,355.4c0.1-0.7,0.6-1,1.8-1h53.6c1.7,0,2.5,0.3,2.6,0.9c0,0.7-0.8,1-2.4,1h-53.2
			C886.7,356.4,885.9,356.1,885.9,355.4z"/>
		<path class="st5" d="M981.5,340.7c0-8.6,1.1-15.2,3.2-19.9c3-6.9,8.1-10.4,15.2-10.4c1.5,0,3.1,0.2,4.6,0.6c1.6,0.4,3.4,1.4,5.4,3
			c2,1.6,3.6,3.6,4.8,6.2c2.3,5,3.5,11.8,3.5,20.5c0,8.5-1.1,15.1-3.2,19.7c-3.2,6.8-8.2,10.2-15.2,10.2c-2.6,0-5.3-0.7-7.9-2
			c-2.7-1.3-4.8-3.6-6.5-6.8C982.8,356.9,981.5,349.9,981.5,340.7z M988.7,339.6c0,8.8,0.3,15,0.9,18.5c0.7,3.8,2,6.5,4,8.1
			c2,1.6,4,2.5,6.2,2.5c2.3,0,4.5-0.9,6.4-2.6c1.9-1.8,3.2-4.5,3.8-8.3c0.7-3.7,1-9.8,0.9-18.1c0-8.1-0.3-13.8-0.9-17
			c-0.8-3.8-2.2-6.4-4.2-8c-2-1.5-4.1-2.3-6.1-2.3c-0.8,0-1.6,0.1-2.4,0.3c-0.8,0.2-1.8,0.7-3,1.3c-1.2,0.7-2.2,1.8-3.1,3.4
			c-0.9,1.6-1.6,3.7-2,6.1C989,326.7,988.7,332.1,988.7,339.6z"/>
	</g>
	<g>
		<path class="st5" d="M1391.7,395.4c0-9.1,1.2-16.2,3.5-21.1c3.2-7.4,8.6-11.1,16.2-11.1c1.6,0,3.2,0.2,4.9,0.7
			c1.7,0.4,3.6,1.5,5.7,3.2c2.1,1.7,3.9,3.9,5.2,6.6c2.5,5.3,3.7,12.5,3.7,21.8c0,9.1-1.2,16.1-3.5,21c-3.4,7.2-8.8,10.8-16.2,10.8
			c-2.8,0-5.6-0.7-8.4-2.1s-5.1-3.8-6.9-7.3C1393.1,412.7,1391.7,405.2,1391.7,395.4z M1399.4,394.2c0,9.4,0.3,15.9,1,19.6
			c0.8,4,2.2,6.9,4.2,8.7c2.1,1.7,4.3,2.6,6.6,2.6c2.5,0,4.8-0.9,6.8-2.8c2.1-1.9,3.4-4.8,4.1-8.8c0.7-4,1-10.4,1-19.3
			c0-8.6-0.3-14.7-0.9-18.1c-0.8-4-2.3-6.9-4.5-8.5c-2.2-1.6-4.3-2.4-6.5-2.4c-0.8,0-1.7,0.1-2.5,0.4c-0.9,0.2-1.9,0.7-3.2,1.4
			c-1.2,0.7-2.3,1.9-3.3,3.6c-1,1.7-1.7,3.9-2.1,6.5C1399.6,380.5,1399.4,386.2,1399.4,394.2z"/>
	</g>
	<g>
		<path class="st5" d="M1443.9,406c-0.9-1-1.4-2.2-1.4-3.5s0.5-2.5,1.4-3.4c0.9-1,2.1-1.4,3.5-1.4c1.3,0,2.5,0.5,3.4,1.4
			s1.4,2.1,1.4,3.5s-0.5,2.6-1.5,3.6c-1,0.9-2.1,1.4-3.3,1.4C1445.9,407.5,1444.8,407,1443.9,406z"/>
	</g>
	<g>
		<path class="st5" d="M1466,423.8c0-0.8,0.3-1.3,1-1.5c0.7-0.2,1.5-0.3,2.5-0.3c1,0,2.3-0.7,4-1.9c1.6-1.2,3.2-3,4.7-5.5l30.4-53.6
			c0.1-0.1,0.2-0.2,0.3-0.6c0.2-0.3,0.3-0.6,0.5-0.7c0.2-0.2,0.3-0.3,0.6-0.6c0.2-0.2,0.5-0.4,0.8-0.5c0.3-0.1,0.6-0.1,0.9-0.1
			c0.2,0,0.5,0,0.7,0c0.2,0,0.4,0.1,0.5,0.3s0.2,0.3,0.3,0.3c0.1,0.1,0.1,0.2,0.2,0.5c0.1,0.2,0.1,0.4,0.1,0.5c0,0.1,0,0.3,0.1,0.6
			v0.5l4,57.8c0.1,1.4,0.4,2.3,1,2.6c0.6,0.4,1.9,0.6,3.8,0.7c1.7,0,2.5,0.4,2.5,1.3c0,1.1-0.6,1.6-1.9,1.6c-0.3,0-1.4,0-3.3-0.1
			c-1.9-0.1-4-0.1-6.3-0.1c-2.1,0-4,0-5.6,0c-1.6,0-2.8,0.1-3.5,0.1c-0.8,0.1-1.2,0.1-1.3,0.1c-0.9,0-1.4-0.4-1.4-1.3
			c0-0.6,0.2-1.1,0.8-1.3s1.1-0.4,1.8-0.3c0.7,0,1.5,0,2.5-0.2c0.9-0.2,1.7-0.6,2.4-1.1c0.5-0.4,0.7-1.3,0.7-2.5
			c0-0.4,0-1.1-0.1-2.2c-0.1-1.1-0.2-2.9-0.4-5.2c-0.2-2.3-0.3-4.7-0.5-7h-21.2c-0.5,1-1.2,2.1-1.8,3.2c-0.7,1.1-1.2,2-1.6,2.7
			c-0.4,0.7-0.8,1.4-1.3,2.2c-0.5,0.8-0.8,1.4-1.1,1.9c-0.2,0.5-0.5,1-0.8,1.5c-0.3,0.5-0.5,0.9-0.6,1.2c-0.1,0.3-0.3,0.6-0.4,1
			c-0.2,0.3-0.2,0.6-0.3,0.8c0,0.2,0,0.5,0,0.7c0,0.9,0.3,1.5,0.8,2s1.1,0.8,1.8,0.8c0.7,0.1,1.2,0.2,1.7,0.4s0.8,0.6,0.8,1
			c0,1.2-0.6,1.8-1.9,1.8c-0.2,0-0.6,0-1.3-0.1c-0.7-0.1-1.7-0.1-2.9-0.1s-2.6,0-4,0c-1.2,0-2.5,0-4,0.1c-1.5,0.1-2.3,0.1-2.5,0.1
			C1466.6,425.1,1466,424.7,1466,423.8z M1489,401h19.4l-2.1-30.4L1489,401z"/>
	</g>
</g>
</svg>
