<svg width="640" height="360" viewBox="0 0 640 360" fill="none" xmlns="http://www.w3.org/2000/svg">
<g clip-path="url(#clip0_1541_5964)">
<path d="M640 0H0V360H640V0Z" fill="white"/>
<g clip-path="url(#clip1_1541_5964)">
<path d="M0 20H640" stroke="#C0C0C0" stroke-width="1.5"/>
<path d="M0 60H640" stroke="#C0C0C0" stroke-width="1.5"/>
<path d="M0 100H640" stroke="#C0C0C0" stroke-width="1.5"/>
<path d="M0 140H640" stroke="#C0C0C0" stroke-width="1.5"/>
<path d="M0 220H640" stroke="#C0C0C0" stroke-width="1.5"/>
<path d="M0 260H640" stroke="#C0C0C0" stroke-width="1.5"/>
<path d="M0 300H640" stroke="#C0C0C0" stroke-width="1.5"/>
<path d="M0 340H640" stroke="#C0C0C0" stroke-width="1.5"/>
<path d="M0 0V360" stroke="#C0C0C0" stroke-width="1.5"/>
<path d="M40 0V360" stroke="#C0C0C0" stroke-width="1.5"/>
<path d="M80 0V360" stroke="#C0C0C0" stroke-width="1.5"/>
<path d="M160 0V360" stroke="#C0C0C0" stroke-width="1.5"/>
<path d="M200 0V360" stroke="#C0C0C0" stroke-width="1.5"/>
<path d="M240 0V360" stroke="#C0C0C0" stroke-width="1.5"/>
<path d="M280 0V360" stroke="#C0C0C0" stroke-width="1.5"/>
<path d="M360 0V360" stroke="#C0C0C0" stroke-width="1.5"/>
<path d="M400 0V360" stroke="#C0C0C0" stroke-width="1.5"/>
<path d="M440 0V360" stroke="#C0C0C0" stroke-width="1.5"/>
<path d="M480 0V360" stroke="#C0C0C0" stroke-width="1.5"/>
<path d="M560 0V360" stroke="#C0C0C0" stroke-width="1.5"/>
<path d="M600 0V360" stroke="#C0C0C0" stroke-width="1.5"/>
<path d="M640 0V360" stroke="#C0C0C0" stroke-width="1.5"/>
<path d="M120 0V360" stroke="#B0B0B0" stroke-width="1.5"/>
<path d="M520 0V360" stroke="#B0B0B0" stroke-width="1.5"/>
<path d="M0 180H640" stroke="#808080" stroke-width="1.5"/>
<path d="M320 0V360" stroke="#808080" stroke-width="1.5"/>
<path d="M148.266 360L150 351.181L151 346.195L152 341.28L153 336.435L154 331.659L155 326.953L156 322.316L157 317.746L158 313.245L159 308.811L160 304.444L161 300.144L162 295.911L163 291.743L164 287.64L165 283.602L166 279.629L167 275.721L168 271.876L169 268.094L170 264.375L171 260.719L172 257.124L173 253.592L174 250.121L175 246.71L176 243.36L177 240.07L178 236.839L179 233.668L180 230.556L181 227.501L182 224.505L183 221.566L184 218.684L185 215.859L186 213.091L187 210.378L188 207.72L189 205.117L190 202.569L191 200.076L192 197.636L193 195.249L194 192.915L195 190.634L196 188.404L197 186.227L198 184.101L199 182.025L200 180L201 178.025L202 176.099L203 174.223L204 172.396L205 170.616L206 168.885L207 167.201L208 165.564L209 163.974L210 162.431L211 160.933L212 159.48L213 158.072L214 156.709L215 155.391L216 154.116L217 152.884L218 151.695L219 150.549L220 149.444L221 148.382L222 147.361L223 146.38L224 145.44L225 144.54L226 143.679L227 142.858L228 142.076L229 141.331L230 140.625L231 139.956L232 139.324L233 138.729L234 138.171L235 137.648L236 137.16L237 136.707L238 136.289L239 135.906L240 135.556L241 135.239L242 134.955L243 134.704L244 134.484L245 134.297L246 134.141L247 134.015L248 133.92L249 133.855L250 133.819L251 133.813L252 133.836L253 133.886L254 133.965L255 134.071L256 134.204L257 134.364L258 134.551L259 134.763L260 135L261 135.262L262 135.549L263 135.861L264 136.196L265 136.554L266 136.935L267 137.339L268 137.764L269 138.212L270 138.681L271 139.17L272 139.68L273 140.21L274 140.759L275 141.328L276 141.916L277 142.521L278 143.145L279 143.786L280 144.444L281 145.119L282 145.811L283 146.518L284 147.24L285 147.977L286 148.729L287 149.496L288 150.276L289 151.069L290 151.875L291 152.694L292 153.524L293 154.367L294 155.221L295 156.085L296 156.96L297 157.845L298 158.739L299 159.643L300 160.556L301 161.476L302 162.405L303 163.341L304 164.284L305 165.234L306 166.191L307 167.153L308 168.12L309 169.092L310 170.069L311 171.051L312 172.036L313 173.024L314 174.015L315 175.009L316 176.004L317 177.002L318 178.001L319 179L320 180L321 181L322 181.999L323 182.998L324 183.996L325 184.991L326 185.985L327 186.976L328 187.964L329 188.949L330 189.931L331 190.908L332 191.88L333 192.847L334 193.809L335 194.766L336 195.716L337 196.659L338 197.595L339 198.524L340 199.444L341 200.357L342 201.261L343 202.155L344 203.04L345 203.915L346 204.779L347 205.633L348 206.476L349 207.306L350 208.125L351 208.931L352 209.724L353 210.504L354 211.271L355 212.023L356 212.76L357 213.482L358 214.189L359 214.881L360 215.556L361 216.214L362 216.855L363 217.479L364 218.084L365 218.672L366 219.241L367 219.79L368 220.32L369 220.83L370 221.319L371 221.788L372 222.236L373 222.661L374 223.065L375 223.446L376 223.804L377 224.139L378 224.451L379 224.738L380 225L381 225.237L382 225.449L383 225.636L384 225.796L385 225.929L386 226.035L387 226.114L388 226.164L389 226.187L390 226.181L391 226.145L392 226.08L393 225.985L394 225.859L395 225.703L396 225.516L397 225.296L398 225.045L399 224.761L400 224.444L401 224.094L402 223.711L403 223.293L404 222.84L405 222.352L406 221.829L407 221.271L408 220.676L409 220.044L410 219.375L411 218.669L412 217.924L413 217.142L414 216.321L415 215.46L416 214.56L417 213.62L418 212.639L419 211.618L420 210.556L421 209.451L422 208.305L423 207.116L424 205.884L425 204.609L426 203.291L427 201.928L428 200.52L429 199.067L430 197.569L431 196.026L432 194.436L433 192.799L434 191.115L435 189.384L436 187.604L437 185.777L438 183.901L439 181.975L440 180L441 177.975L442 175.899L443 173.773L444 171.596L445 169.366L446 167.085L447 164.751L448 162.364L449 159.924L450 157.431L451 154.883L452 152.28L453 149.622L454 146.909L455 144.141L456 141.316L457 138.434L458 135.495L459 132.499L460 129.444L461 126.332L462 123.161L463 119.93L464 116.64L465 113.29L466 109.879L467 106.408L468 102.876L469 99.2813L470 95.625L471 91.9062L472 88.1245L473 84.2794L474 80.3706L475 76.3976L476 72.36L477 68.2574L478 64.0894L479 59.8556L480 55.5556L481 51.1888L482 46.755L483 42.2537L484 37.6845L485 33.0469L486 28.3405L487 23.565L488 18.72L489 13.805L490 8.81945L491 3.7631L491.734 0" stroke="#A452CE" stroke-width="1.5"/>
<path d="M157.52 0L159 3.99166L160 6.66666L161 9.32501L162 11.9667L163 14.5917L164 17.2L165 19.7917L166 22.3667L167 24.925L168 27.4667L169 29.9917L170 32.5L171 34.9917L172 37.4667L173 39.925L174 42.3667L175 44.7917L176 47.2L177 49.5917L178 51.9667L179 54.325L180 56.6667L181 58.9917L182 61.3L183 63.5917L184 65.8667L185 68.125L186 70.3667L187 72.5917L188 74.8L189 76.9917L190 79.1667L191 81.325L192 83.4667L193 85.5917L194 87.7L195 89.7917L196 91.8667L197 93.925L198 95.9667L199 97.9917L200 100L201 101.992L202 103.967L203 105.925L204 107.867L205 109.792L206 111.7L207 113.592L208 115.467L209 117.325L210 119.167L211 120.992L212 122.8L213 124.592L214 126.367L215 128.125L216 129.867L217 131.592L218 133.3L219 134.992L220 136.667L221 138.325L222 139.967L223 141.592L224 143.2L225 144.792L226 146.367L227 147.925L228 149.467L229 150.992L230 152.5L231 153.992L232 155.467L233 156.925L234 158.367L235 159.792L236 161.2L237 162.592L238 163.967L239 165.325L240 166.667L241 167.992L242 169.3L243 170.592L244 171.867L245 173.125L246 174.367L247 175.592L248 176.8L249 177.992L250 179.167L251 180.325L252 181.467L253 182.592L254 183.7L255 184.792L256 185.867L257 186.925L258 187.967L259 188.992L260 190L261 190.992L262 191.967L263 192.925L264 193.867L265 194.792L266 195.7L267 196.592L268 197.467L269 198.325L270 199.167L271 199.992L272 200.8L273 201.592L274 202.367L275 203.125L276 203.867L277 204.592L278 205.3L279 205.992L280 206.667L281 207.325L282 207.967L283 208.592L284 209.2L285 209.792L286 210.367L287 210.925L288 211.467L289 211.992L290 212.5L291 212.992L292 213.467L293 213.925L294 214.367L295 214.792L296 215.2L297 215.592L298 215.967L299 216.325L300 216.667L301 216.992L302 217.3L303 217.592L304 217.867L305 218.125L306 218.367L307 218.592L308 218.8L309 218.992L310 219.167L311 219.325L312 219.467L313 219.592L314 219.7L315 219.792L316 219.867L317 219.925L318 219.967L319 219.992L320 220L321 219.992L322 219.967L323 219.925L324 219.867L325 219.792L326 219.7L327 219.592L328 219.467L329 219.325L330 219.167L331 218.992L332 218.8L333 218.592L334 218.367L335 218.125L336 217.867L337 217.592L338 217.3L339 216.992L340 216.667L341 216.325L342 215.967L343 215.592L344 215.2L345 214.792L346 214.367L347 213.925L348 213.467L349 212.992L350 212.5L351 211.992L352 211.467L353 210.925L354 210.367L355 209.792L356 209.2L357 208.592L358 207.967L359 207.325L360 206.667L361 205.992L362 205.3L363 204.592L364 203.867L365 203.125L366 202.367L367 201.592L368 200.8L369 199.992L370 199.167L371 198.325L372 197.467L373 196.592L374 195.7L375 194.792L376 193.867L377 192.925L378 191.967L379 190.992L380 190L381 188.992L382 187.967L383 186.925L384 185.867L385 184.792L386 183.7L387 182.592L388 181.467L389 180.325L390 179.167L391 177.992L392 176.8L393 175.592L394 174.367L395 173.125L396 171.867L397 170.592L398 169.3L399 167.992L400 166.667L401 165.325L402 163.967L403 162.592L404 161.2L405 159.792L406 158.367L407 156.925L408 155.467L409 153.992L410 152.5L411 150.992L412 149.467L413 147.925L414 146.367L415 144.792L416 143.2L417 141.592L418 139.967L419 138.325L420 136.667L421 134.992L422 133.3L423 131.592L424 129.867L425 128.125L426 126.367L427 124.592L428 122.8L429 120.992L430 119.167L431 117.325L432 115.467L433 113.592L434 111.7L435 109.792L436 107.867L437 105.925L438 103.967L439 101.992L440 100L441 97.9917L442 95.9667L443 93.925L444 91.8667L445 89.7917L446 87.7L447 85.5917L448 83.4667L449 81.325L450 79.1667L451 76.9917L452 74.8L453 72.5917L454 70.3667L455 68.125L456 65.8667L457 63.5917L458 61.3L459 58.9917L460 56.6667L461 54.325L462 51.9667L463 49.5917L464 47.2L465 44.7917L466 42.3667L467 39.925L468 37.4667L469 34.9917L470 32.5L471 29.9917L472 27.4667L473 24.925L474 22.3667L475 19.7917L476 17.2L477 14.5917L478 11.9667L479 9.32501L480 6.66666L481 3.99166L482 1.29997L482.48 0" stroke="#1AA59B" stroke-width="1.5"/>
</g>
<path d="M640 0H0V360H640V0Z" stroke="#808080" stroke-width="2"/>
<path d="M266.591 28.002H30.3694V81.3695H266.591V28.002Z" fill="white"/>
<g clip-path="url(#clip2_1541_5964)">
<path d="M49.1636 33.7835C49.1767 33.7835 49.6491 33.7507 50.5808 33.6851C51.5124 33.6195 51.9914 33.5801 52.0176 33.567C52.1751 33.567 52.2538 33.6195 52.2538 33.7245C52.2538 33.8163 51.7749 35.7977 50.8169 39.6687C49.859 43.5397 49.367 45.5146 49.3407 45.5933C49.3145 45.672 49.3079 45.7705 49.321 45.8886C49.321 46.4397 49.5047 46.7152 49.8722 46.7152C49.9903 46.7021 50.1215 46.6431 50.2658 46.5381C50.5414 46.2757 50.8104 45.6458 51.0728 44.6485C51.1516 44.3861 51.2172 44.2483 51.2697 44.2352C51.2959 44.2221 51.3615 44.2155 51.4665 44.2155H51.5452H51.624C51.8208 44.2155 51.9192 44.268 51.9192 44.373C51.9192 44.4386 51.8995 44.5435 51.8601 44.6879C51.6896 45.344 51.4927 45.8754 51.2697 46.2822C51.0466 46.689 50.8629 46.9514 50.7185 47.0695C50.5742 47.1876 50.3905 47.2926 50.1674 47.3845C50.0624 47.4107 49.905 47.4238 49.695 47.4238C49.2489 47.4238 48.8749 47.3254 48.5731 47.1286C48.2713 46.9318 48.0744 46.7284 47.9826 46.5184L47.8645 46.2232C47.8514 46.21 47.8251 46.2166 47.7858 46.2428C47.7595 46.2691 47.7333 46.2953 47.707 46.3216C46.9328 47.0564 46.1455 47.4238 45.3451 47.4238C44.6234 47.4238 43.9869 47.1614 43.4358 46.6365C42.8847 46.1116 42.6091 45.2784 42.6091 44.1368C42.6091 43.5069 42.7404 42.8639 43.0028 42.2078C43.2652 41.5517 43.5802 40.9875 43.9476 40.5151C44.5643 39.7671 45.181 39.2488 45.7978 38.9601C46.4145 38.6714 46.9722 38.5271 47.4708 38.5271C48.2057 38.5271 48.7568 38.8027 49.1242 39.3538C49.1898 39.4325 49.2226 39.4588 49.2226 39.4325C49.2357 39.38 49.4129 38.6649 49.7541 37.2871C50.0952 35.9093 50.2789 35.181 50.3052 35.1023C50.3052 34.9317 50.2593 34.8267 50.1674 34.7873C50.0756 34.748 49.8197 34.7152 49.3998 34.6889H48.9864C48.9077 34.6102 48.8683 34.5577 48.8683 34.5315C48.8683 34.5052 48.8815 34.3806 48.9077 34.1575C48.9733 33.9082 49.0586 33.7835 49.1636 33.7835ZM48.888 40.8103C48.5862 39.7737 48.0941 39.2554 47.4118 39.2554C46.9525 39.2554 46.5129 39.4588 46.093 39.8656C45.6731 40.2723 45.3451 40.8038 45.1089 41.4599C44.7283 42.4965 44.4593 43.5725 44.3019 44.6879C44.3019 44.7273 44.3019 44.7994 44.3019 44.9044C44.3019 45.0094 44.2953 45.0881 44.2822 45.1406C44.2822 45.7311 44.4003 46.1379 44.6365 46.3609C44.8727 46.584 45.1548 46.7021 45.4829 46.7152C46.1914 46.7152 46.9197 46.2428 47.6677 45.2981L47.8251 45.0815L48.888 40.8103Z" fill="#202020"/>
<path d="M43.5342 60.5916C43.5474 60.5916 44.0198 60.5588 44.9514 60.4932C45.8831 60.4276 46.362 60.3882 46.3883 60.3751C46.5457 60.3751 46.6245 60.4276 46.6245 60.5326C46.6245 60.6244 46.1455 62.6058 45.1876 66.4768C44.2297 70.3478 43.7376 72.3227 43.7114 72.4014C43.6851 72.4801 43.6786 72.5786 43.6917 72.6967C43.6917 73.2478 43.8754 73.5233 44.2428 73.5233C44.3609 73.5102 44.4921 73.4512 44.6365 73.3462C44.9121 73.0838 45.1811 72.4539 45.4435 71.4566C45.5222 71.1942 45.5878 71.0564 45.6403 71.0433C45.6666 71.0302 45.7322 71.0236 45.8372 71.0236H45.9159H45.9946C46.1914 71.0236 46.2899 71.0761 46.2899 71.1811C46.2899 71.2467 46.2702 71.3517 46.2308 71.496C46.0602 72.1521 45.8634 72.6835 45.6403 73.0903C45.4172 73.4971 45.2335 73.7595 45.0892 73.8776C44.9449 73.9957 44.7611 74.1007 44.5381 74.1926C44.4331 74.2188 44.2756 74.2319 44.0657 74.2319C43.6195 74.2319 43.2456 74.1335 42.9438 73.9367C42.6419 73.7399 42.4451 73.5365 42.3533 73.3265L42.2352 73.0313C42.222 73.0181 42.1958 73.0247 42.1564 73.051C42.1302 73.0772 42.1039 73.1034 42.0777 73.1297C41.3035 73.8645 40.5162 74.2319 39.7157 74.2319C38.994 74.2319 38.3576 73.9695 37.8065 73.4446C37.2554 72.9197 36.9798 72.0865 36.9798 70.9449C36.9798 70.315 37.111 69.672 37.3735 69.0159C37.6359 68.3598 37.9508 67.7956 38.3182 67.3232C38.935 66.5752 39.5517 66.0569 40.1684 65.7682C40.7852 65.4796 41.3429 65.3352 41.8415 65.3352C42.5763 65.3352 43.1275 65.6108 43.4949 66.1619C43.5605 66.2406 43.5933 66.2669 43.5933 66.2406C43.6064 66.1881 43.7836 65.473 44.1247 64.0952C44.4659 62.7174 44.6496 61.9891 44.6759 61.9104C44.6759 61.7398 44.6299 61.6348 44.5381 61.5954C44.4462 61.5561 44.1903 61.5233 43.7704 61.497H43.3571C43.2784 61.4183 43.239 61.3658 43.239 61.3396C43.239 61.3133 43.2521 61.1887 43.2784 60.9656C43.344 60.7163 43.4293 60.5916 43.5342 60.5916ZM43.2587 67.6184C42.9569 66.5818 42.4648 66.0635 41.7825 66.0635C41.3232 66.0635 40.8836 66.2669 40.4637 66.6737C40.0438 67.0804 39.7157 67.6119 39.4795 68.268C39.099 69.3046 38.83 70.3806 38.6725 71.496C38.6725 71.5354 38.6725 71.6075 38.6725 71.7125C38.6725 71.8175 38.666 71.8962 38.6529 71.9487C38.6529 72.5392 38.771 72.946 39.0071 73.1691C39.2433 73.3921 39.5255 73.5102 39.8535 73.5233C40.5621 73.5233 41.2904 73.051 42.0383 72.1062L42.1958 71.8897L43.2587 67.6184Z" fill="#202020"/>
<path d="M47.5889 68.3468C47.6808 67.7957 48.0351 67.1593 48.6518 66.4376C49.2686 65.7158 50.0296 65.3484 50.9351 65.3353C51.3943 65.3353 51.8142 65.4534 52.1948 65.6896C52.5753 65.9258 52.8574 66.221 53.0411 66.5753C53.5923 65.7486 54.2549 65.3353 55.0291 65.3353C55.5146 65.3353 55.9345 65.4796 56.2888 65.7683C56.6431 66.057 56.8268 66.4441 56.84 66.9296C56.84 67.3102 56.7481 67.6185 56.5644 67.8547C56.3807 68.0909 56.2035 68.2353 56.033 68.2878C55.8624 68.3402 55.7115 68.3665 55.5802 68.3665C55.3309 68.3665 55.1275 68.2943 54.9701 68.15C54.8126 68.0056 54.7339 67.8154 54.7339 67.5792C54.7339 66.9756 55.0619 66.5622 55.718 66.3391C55.5737 66.1686 55.3112 66.0833 54.9307 66.0833C54.7601 66.0833 54.6355 66.0964 54.5567 66.1226C54.0581 66.3326 53.6907 66.7656 53.4545 67.4217C52.6672 70.3217 52.2735 72.0144 52.2735 72.4999C52.2735 72.8673 52.3785 73.1298 52.5884 73.2872C52.7984 73.4447 53.028 73.5234 53.2773 73.5234C53.7628 73.5234 54.2418 73.3069 54.7142 72.8739C55.1866 72.4409 55.5081 71.9094 55.6787 71.2796C55.718 71.1484 55.7574 71.0762 55.7968 71.0631C55.8361 71.0499 55.9411 71.0368 56.1117 71.0237H56.1904C56.3873 71.0237 56.4857 71.0762 56.4857 71.1812C56.4857 71.1943 56.4725 71.2665 56.4463 71.3977C56.2363 72.1456 55.8296 72.8083 55.226 73.3857C54.6223 73.963 53.9203 74.2517 53.1199 74.2517C52.2013 74.2517 51.5059 73.8384 51.0335 73.0117C50.4955 73.8252 49.8787 74.232 49.1833 74.232H49.0652C48.4222 74.232 47.9629 74.0614 47.6874 73.7203C47.4118 73.3791 47.2675 73.0182 47.2543 72.6377C47.2543 72.2178 47.379 71.8766 47.6283 71.6142C47.8776 71.3517 48.1729 71.2205 48.514 71.2205C49.0783 71.2205 49.3604 71.4961 49.3604 72.0472C49.3604 72.3097 49.2817 72.5393 49.1242 72.7361C48.9668 72.9329 48.8159 73.0642 48.6715 73.1298C48.5272 73.1954 48.4419 73.2282 48.4156 73.2282L48.3566 73.2479C48.3566 73.261 48.3959 73.2872 48.4747 73.3266C48.5534 73.366 48.6584 73.4119 48.7896 73.4644C48.9208 73.5169 49.0455 73.5366 49.1636 73.5234C49.636 73.5234 50.0428 73.2282 50.3839 72.6377C50.502 72.4277 50.6529 71.9816 50.8366 71.2993C51.0203 70.6169 51.2041 69.9083 51.3878 69.1735C51.5715 68.4387 51.6765 68.0056 51.7027 67.8744C51.7683 67.5201 51.8011 67.2642 51.8011 67.1068C51.8011 66.7394 51.7027 66.4769 51.5059 66.3195C51.309 66.162 51.086 66.0833 50.8366 66.0833C50.3118 66.0833 49.8197 66.2932 49.3604 66.7131C48.9011 67.133 48.5797 67.671 48.3959 68.3271C48.3697 68.4452 48.3369 68.5108 48.2975 68.524C48.2582 68.5371 48.1532 68.5502 47.9826 68.5633H47.707C47.6283 68.4846 47.5889 68.4124 47.5889 68.3468Z" fill="#202020"/>
<path d="M59.7924 56.2024H34.3619V55.0214H59.7924V56.2024Z" fill="#202020"/>
<path d="M75.9522 79.0445C75.9522 79.0839 75.9128 79.1429 75.8341 79.2217H75.2239C75.1977 79.1954 75.0139 79.0183 74.6728 78.6902C74.3316 78.3622 74.0364 78.0801 73.787 77.8439C73.5377 77.6077 73.1834 77.2075 72.7242 76.6432C72.2649 76.079 71.8581 75.5475 71.5038 75.0489C71.1495 74.5502 70.7362 73.8876 70.2638 73.0609C69.7914 72.2342 69.3846 71.4141 69.0434 70.6005C68.7023 69.787 68.3414 68.8094 67.9609 67.6678C67.5803 66.5261 67.2851 65.3714 67.0751 64.2035C66.8652 63.0357 66.6749 61.7038 66.5043 60.2079C66.3337 58.712 66.255 57.1767 66.2681 55.6021C66.2681 46.2723 68.6563 38.9896 73.4327 33.7539C73.7346 33.4259 74.0167 33.1372 74.2791 32.8879C74.5416 32.6385 74.7581 32.4286 74.9287 32.258C75.0992 32.0874 75.1977 32.0021 75.2239 32.0021H75.8341C75.9128 32.0809 75.9522 32.1399 75.9522 32.1793C75.9522 32.2449 75.821 32.4155 75.5585 32.691C75.2961 32.9666 74.9549 33.3537 74.535 33.8523C74.1151 34.351 73.6427 34.9743 73.1178 35.7222C72.5929 36.4702 72.0615 37.4084 71.5235 38.5369C70.9855 39.6654 70.4869 40.9185 70.0276 42.2963C69.5683 43.6742 69.1747 45.3275 68.8466 47.2565C68.5186 49.1854 68.3086 51.2587 68.2167 53.4763C68.1905 53.9749 68.1774 54.6901 68.1774 55.6217C68.1774 60.7262 68.7941 65.1877 70.0276 69.0062C71.2611 72.8247 73.1637 76.0658 75.7357 78.7296C75.88 78.8871 75.9522 78.992 75.9522 79.0445Z" fill="#202020"/>
<path d="M85.1638 35.8503L84.908 35.9487C84.7242 36.0143 84.4618 36.0799 84.1206 36.1455C83.7795 36.2111 83.3989 36.2571 82.979 36.2833H82.605V35.3779H82.979C83.5958 35.3516 84.1666 35.2532 84.6914 35.0826C85.2163 34.912 85.5837 34.7546 85.7937 34.6102C86.0036 34.4659 86.1873 34.3216 86.3448 34.1772C86.3711 34.1378 86.4498 34.1182 86.581 34.1182C86.6991 34.1182 86.8106 34.1575 86.9156 34.2363V40.1215L86.9353 46.0264C87.0272 46.1182 87.1059 46.1773 87.1715 46.2035C87.2371 46.2298 87.3946 46.256 87.6439 46.2823C87.8932 46.3085 88.3 46.3216 88.8642 46.3216H89.376V47.2271H89.1595C88.8839 47.1877 87.8407 47.168 86.0299 47.168C84.2453 47.168 83.2152 47.1877 82.9397 47.2271H82.7035V46.3216H83.2152C83.5039 46.3216 83.7532 46.3216 83.9632 46.3216C84.1731 46.3216 84.3371 46.3151 84.4552 46.3019C84.5733 46.2888 84.6783 46.2691 84.7702 46.2429C84.862 46.2167 84.9145 46.2035 84.9276 46.2035C84.9408 46.2035 84.9801 46.1707 85.0457 46.1051C85.1113 46.0395 85.1507 46.0133 85.1638 46.0264V35.8503Z" fill="#A452CE"/>
<path d="M87.8998 68.3862C87.2699 69.3835 86.4826 69.8821 85.5378 69.8821C84.5143 69.8821 83.6745 69.495 83.0184 68.7208C82.3623 67.9466 81.9686 67.1199 81.8374 66.2408C81.8112 66.0308 81.798 65.7684 81.798 65.4534V65.296C81.798 64.0756 82.2507 63.0127 83.1562 62.1073C83.9435 61.32 84.8095 60.9263 85.7543 60.9263C85.7806 60.9263 85.8199 60.9263 85.8724 60.9263C85.9249 60.9263 85.9774 60.9329 86.0299 60.946H86.1086C86.2661 60.946 86.4301 60.9592 86.6007 60.9854C86.7713 61.0116 87.014 61.0904 87.329 61.2216C87.6439 61.3528 87.9523 61.5628 88.2541 61.8515C88.5559 62.1401 88.838 62.5272 89.1004 63.0127C89.6647 64.1675 89.9468 65.6503 89.9468 67.4611C89.9468 69.2982 89.5531 70.8531 88.7658 72.126C88.3066 72.8608 87.7554 73.4316 87.1124 73.8384C86.4695 74.2452 85.7871 74.4551 85.0654 74.4683C84.265 74.4683 83.6089 74.278 83.0971 73.8975C82.5854 73.5169 82.3229 72.9527 82.3098 72.2047C82.2967 71.4568 82.6444 71.0893 83.353 71.1025C83.6417 71.1025 83.8844 71.1943 84.0813 71.378C84.2781 71.5617 84.3765 71.8176 84.3765 72.1457C84.3765 72.3819 84.3175 72.5853 84.1994 72.7558C84.0813 72.9264 83.9763 73.0314 83.8844 73.0708C83.7926 73.1101 83.7073 73.1429 83.6286 73.1692L83.5498 73.1889C83.5498 73.2151 83.5957 73.2545 83.6876 73.307C83.7795 73.3595 83.95 73.4251 84.1994 73.5038C84.4487 73.5825 84.7242 73.6153 85.026 73.6022H85.1441C85.9315 73.6022 86.5941 73.1823 87.1321 72.3425C87.6439 71.6077 87.8998 70.3348 87.8998 68.524V68.3862ZM85.774 69.1538C86.4039 69.1538 86.9091 68.8324 87.2896 68.1894C87.6701 67.5464 87.867 66.6738 87.8801 65.5715C87.8801 64.548 87.8276 63.8132 87.7226 63.367C87.6964 63.2358 87.657 63.1046 87.6045 62.9734C87.552 62.8422 87.4602 62.6716 87.329 62.4616C87.1977 62.2517 87.0009 62.0745 86.7385 61.9302C86.476 61.7858 86.1677 61.7202 85.8134 61.7334C85.3147 61.7334 84.8883 61.9105 84.534 62.2648C84.2584 62.5535 84.0813 62.8947 84.0025 63.2883C83.9238 63.682 83.8779 64.3709 83.8648 65.355C83.8648 66.4442 83.8976 67.179 83.9632 67.5595C84.0288 67.9401 84.16 68.2484 84.3568 68.4846C84.6849 68.9308 85.1573 69.1538 85.774 69.1538Z" fill="#A452CE"/>
<path d="M92.7812 56.2024H79.0031V55.0214H92.7812V56.2024Z" fill="#A452CE"/>
<path d="M96.1666 54.8444C96.2585 54.2932 96.6128 53.6568 97.2295 52.9351C97.8463 52.2134 98.6073 51.846 99.5128 51.8329C99.972 51.8329 100.392 51.951 100.772 52.1872C101.153 52.4234 101.435 52.7186 101.619 53.0729C102.17 52.2462 102.833 51.8329 103.607 51.8329C104.092 51.8329 104.512 51.9772 104.867 52.2659C105.221 52.5546 105.405 52.9417 105.418 53.4272C105.418 53.8077 105.326 54.1161 105.142 54.3523C104.958 54.5885 104.781 54.7328 104.611 54.7853C104.44 54.8378 104.289 54.864 104.158 54.864C103.909 54.864 103.705 54.7919 103.548 54.6475C103.39 54.5032 103.312 54.3129 103.312 54.0767C103.312 53.4731 103.64 53.0598 104.296 52.8367C104.151 52.6661 103.889 52.5808 103.508 52.5808C103.338 52.5808 103.213 52.5939 103.134 52.6202C102.636 52.8301 102.268 53.2632 102.032 53.9193C101.245 56.8192 100.851 58.512 100.851 58.9975C100.851 59.3649 100.956 59.6273 101.166 59.7848C101.376 59.9423 101.606 60.021 101.855 60.021C102.341 60.021 102.82 59.8045 103.292 59.3715C103.764 58.9384 104.086 58.407 104.256 57.7771C104.296 57.6459 104.335 57.5737 104.374 57.5606C104.414 57.5475 104.519 57.5344 104.689 57.5213H104.768C104.965 57.5213 105.063 57.5737 105.063 57.6787C105.063 57.6918 105.05 57.764 105.024 57.8952C104.814 58.6432 104.407 59.3058 103.804 59.8832C103.2 60.4606 102.498 60.7493 101.698 60.7493C100.779 60.7493 100.084 60.3359 99.6112 59.5092C99.0732 60.3228 98.4564 60.7296 97.761 60.7296H97.6429C96.9999 60.7296 96.5406 60.559 96.2651 60.2178C95.9895 59.8767 95.8452 59.5158 95.832 59.1353C95.832 58.7154 95.9567 58.3742 96.206 58.1117C96.4553 57.8493 96.7506 57.7181 97.0917 57.7181C97.656 57.7181 97.9381 57.9936 97.9381 58.5448C97.9381 58.8072 97.8594 59.0368 97.7019 59.2337C97.5445 59.4305 97.3936 59.5617 97.2492 59.6273C97.1049 59.6929 97.0196 59.7258 96.9933 59.7258L96.9343 59.7454C96.9343 59.7586 96.9736 59.7848 97.0524 59.8242C97.1311 59.8635 97.2361 59.9095 97.3673 59.9619C97.4985 60.0144 97.6232 60.0341 97.7413 60.021C98.2137 60.021 98.6205 59.7258 98.9616 59.1353C99.0797 58.9253 99.2306 58.4792 99.4143 57.7968C99.598 57.1145 99.7818 56.4059 99.9655 55.6711C100.149 54.9362 100.254 54.5032 100.28 54.372C100.346 54.0177 100.379 53.7618 100.379 53.6043C100.379 53.2369 100.28 52.9745 100.084 52.817C99.8867 52.6595 99.6637 52.5808 99.4143 52.5808C98.8895 52.5808 98.3974 52.7908 97.9381 53.2107C97.4788 53.6306 97.1574 54.1686 96.9736 54.8247C96.9474 54.9428 96.9146 55.0084 96.8752 55.0215C96.8359 55.0346 96.7309 55.0478 96.5603 55.0609H96.2847C96.206 54.9821 96.1666 54.91 96.1666 54.8444Z" fill="#A452CE"/>
<path d="M108.819 45.9605C108.568 45.9605 108.373 45.8817 108.234 45.7239C108.095 45.5662 108.021 45.3621 108.012 45.1116C108.012 44.6014 108.234 44.1468 108.679 43.7479C109.125 43.349 109.663 43.1495 110.294 43.1495C110.618 43.1495 110.823 43.1541 110.906 43.1634C111.593 43.2747 112.117 43.5206 112.479 43.901C112.84 44.2813 113.026 44.6942 113.035 45.1395C113.035 45.6219 112.877 46.0904 112.562 46.545C112.247 46.9996 111.811 47.3289 111.254 47.533L111.212 47.5608C111.212 47.5701 111.254 47.584 111.337 47.6026C111.421 47.6211 111.555 47.6629 111.741 47.7278C111.927 47.7928 112.103 47.8902 112.27 48.0201C113.031 48.5118 113.411 49.1612 113.411 49.9683C113.411 50.7012 113.123 51.3413 112.548 51.8887C111.973 52.436 111.245 52.7097 110.363 52.7097C109.621 52.7097 108.981 52.5103 108.443 52.1113C107.905 51.7124 107.636 51.2068 107.636 50.5945C107.636 50.3347 107.719 50.126 107.886 49.9683C108.053 49.8106 108.262 49.7271 108.513 49.7178C108.772 49.7178 108.986 49.8013 109.153 49.9683C109.32 50.1353 109.403 50.344 109.403 50.5945C109.403 50.6966 109.389 50.7893 109.361 50.8728C109.334 50.9563 109.301 51.0305 109.264 51.0955C109.227 51.1604 109.176 51.2161 109.111 51.2625C109.046 51.3089 108.99 51.346 108.944 51.3738C108.898 51.4016 108.851 51.4202 108.805 51.4295C108.758 51.4387 108.721 51.4526 108.693 51.4712L108.638 51.4851C109.111 51.9026 109.686 52.1113 110.363 52.1113C110.874 52.1113 111.259 51.8655 111.518 51.3738C111.676 51.0676 111.755 50.5991 111.755 49.9683V49.69C111.755 48.8086 111.458 48.2195 110.864 47.9227C110.725 47.867 110.442 47.8345 110.015 47.8252L109.431 47.8113L109.389 47.7835C109.371 47.7557 109.361 47.6814 109.361 47.5608C109.361 47.3938 109.398 47.3104 109.473 47.3104C109.732 47.3104 110.002 47.2872 110.28 47.2408C110.595 47.1944 110.883 46.9996 111.143 46.6563C111.402 46.313 111.532 45.7935 111.532 45.0977V44.9864C111.532 44.4576 111.37 44.0911 111.045 43.887C110.841 43.7572 110.623 43.6922 110.391 43.6922C110.094 43.6922 109.821 43.7432 109.57 43.8453C109.32 43.9473 109.143 44.054 109.041 44.1654C108.939 44.2767 108.888 44.3324 108.888 44.3324H108.93C108.958 44.3416 108.995 44.3509 109.041 44.3602C109.088 44.3695 109.134 44.3927 109.18 44.4298C109.227 44.4669 109.283 44.4993 109.347 44.5272C109.412 44.555 109.459 44.606 109.487 44.6802C109.514 44.7545 109.552 44.824 109.598 44.889C109.644 44.9539 109.658 45.0467 109.64 45.1673C109.64 45.3714 109.575 45.5523 109.445 45.71C109.315 45.8677 109.106 45.9512 108.819 45.9605Z" fill="#A452CE"/>
<path d="M121.022 55.8678C121.022 55.8678 121.022 55.7825 121.022 55.612C121.022 55.4414 121.114 55.3101 121.298 55.2183H132.734C132.931 55.3233 133.029 55.4545 133.029 55.612C133.029 55.7694 132.931 55.9006 132.734 56.0056H121.298C121.114 55.9138 121.022 55.7825 121.022 55.612V55.8678Z" fill="#A452CE"/>
<path d="M140.079 54.8444C140.171 54.2932 140.526 53.6568 141.142 52.9351C141.759 52.2134 142.52 51.846 143.426 51.8329C143.885 51.8329 144.305 51.951 144.685 52.1872C145.066 52.4234 145.348 52.7186 145.532 53.0729C146.083 52.2462 146.745 51.8329 147.52 51.8329C148.005 51.8329 148.425 51.9772 148.779 52.2659C149.134 52.5546 149.317 52.9417 149.33 53.4272C149.33 53.8077 149.239 54.1161 149.055 54.3523C148.871 54.5885 148.694 54.7328 148.523 54.7853C148.353 54.8378 148.202 54.864 148.071 54.864C147.821 54.864 147.618 54.7919 147.461 54.6475C147.303 54.5032 147.224 54.3129 147.224 54.0767C147.224 53.4731 147.552 53.0598 148.209 52.8367C148.064 52.6661 147.802 52.5808 147.421 52.5808C147.251 52.5808 147.126 52.5939 147.047 52.6202C146.549 52.8301 146.181 53.2632 145.945 53.9193C145.158 56.8192 144.764 58.512 144.764 58.9975C144.764 59.3649 144.869 59.6273 145.079 59.7848C145.289 59.9423 145.518 60.021 145.768 60.021C146.253 60.021 146.732 59.8045 147.205 59.3715C147.677 58.9384 147.999 58.407 148.169 57.7771C148.209 57.6459 148.248 57.5737 148.287 57.5606C148.327 57.5475 148.432 57.5344 148.602 57.5213H148.681C148.878 57.5213 148.976 57.5737 148.976 57.6787C148.976 57.6918 148.963 57.764 148.937 57.8952C148.727 58.6432 148.32 59.3058 147.716 59.8832C147.113 60.4606 146.411 60.7493 145.61 60.7493C144.692 60.7493 143.996 60.3359 143.524 59.5092C142.986 60.3228 142.369 60.7296 141.674 60.7296H141.556C140.913 60.7296 140.453 60.559 140.178 60.2178C139.902 59.8767 139.758 59.5158 139.745 59.1353C139.745 58.7154 139.869 58.3742 140.119 58.1117C140.368 57.8493 140.663 57.7181 141.005 57.7181C141.569 57.7181 141.851 57.9936 141.851 58.5448C141.851 58.8072 141.772 59.0368 141.615 59.2337C141.457 59.4305 141.306 59.5617 141.162 59.6273C141.018 59.6929 140.932 59.7258 140.906 59.7258L140.847 59.7454C140.847 59.7586 140.886 59.7848 140.965 59.8242C141.044 59.8635 141.149 59.9095 141.28 59.9619C141.411 60.0144 141.536 60.0341 141.654 60.021C142.126 60.021 142.533 59.7258 142.874 59.1353C142.993 58.9253 143.143 58.4792 143.327 57.7968C143.511 57.1145 143.695 56.4059 143.878 55.6711C144.062 54.9362 144.167 54.5032 144.193 54.372C144.259 54.0177 144.292 53.7618 144.292 53.6043C144.292 53.2369 144.193 52.9745 143.996 52.817C143.8 52.6595 143.576 52.5808 143.327 52.5808C142.802 52.5808 142.31 52.7908 141.851 53.2107C141.392 53.6306 141.07 54.1686 140.886 54.8247C140.86 54.9428 140.827 55.0084 140.788 55.0215C140.749 55.0346 140.644 55.0478 140.473 55.0609H140.198C140.119 54.9821 140.079 54.91 140.079 54.8444Z" fill="#A452CE"/>
<path d="M150.984 32.2383C150.984 32.1333 151.004 32.0677 151.043 32.0415C151.082 32.0152 151.168 32.0021 151.299 32.0021H151.417H151.712C151.738 32.0284 151.922 32.2055 152.263 32.5336C152.604 32.8616 152.9 33.1437 153.149 33.3799C153.398 33.6161 153.753 34.0164 154.212 34.5806C154.671 35.1448 155.078 35.6763 155.432 36.1749C155.786 36.6736 156.2 37.3362 156.672 38.1629C157.145 38.9896 157.551 39.8032 157.893 40.6036C158.234 41.404 158.595 42.3816 158.975 43.5364C159.356 44.6911 159.651 45.8458 159.861 47.0006C160.071 48.1553 160.261 49.4872 160.432 50.9962C160.602 52.5053 160.681 54.0405 160.668 55.6021C160.668 57.1373 160.622 58.4364 160.53 59.4993C159.913 67.0051 157.571 72.9953 153.503 77.4699C153.201 77.7979 152.919 78.0866 152.657 78.3359C152.394 78.5853 152.178 78.7952 152.007 78.9658C151.837 79.1364 151.738 79.2217 151.712 79.2217H151.417C151.246 79.2217 151.135 79.2086 151.082 79.1823C151.03 79.1561 150.997 79.0905 150.984 78.9855C151.692 78.2769 152.388 77.4633 153.07 76.5448C156.849 71.5191 158.739 64.5382 158.739 55.6021C158.739 52.9514 158.568 50.4779 158.227 48.1816C157.886 45.8852 157.466 43.9563 156.967 42.3948C156.469 40.8332 155.859 39.3636 155.137 37.9858C154.415 36.608 153.759 35.5385 153.169 34.7774C152.578 34.0164 151.929 33.2553 151.22 32.4942C151.194 32.468 151.168 32.4417 151.141 32.4155C151.115 32.3892 151.095 32.363 151.082 32.3367C151.069 32.3105 151.049 32.2908 151.023 32.2777L150.984 32.2383Z" fill="#202020"/>
<path d="M171.371 53.7026C171.371 53.532 171.463 53.4008 171.647 53.309H184.185C184.382 53.4139 184.48 53.5452 184.48 53.7026C184.48 53.847 184.388 53.9716 184.205 54.0766L177.946 54.0963H171.686C171.476 54.0307 171.371 53.8995 171.371 53.7026ZM171.371 57.5211C171.371 57.3243 171.476 57.1931 171.686 57.1275H184.205C184.388 57.2587 184.48 57.3899 184.48 57.5211C184.48 57.6917 184.382 57.8229 184.185 57.9148H171.647C171.463 57.8229 171.371 57.6917 171.371 57.5211Z" fill="#202020"/>
<path d="M199.573 35.8503L199.317 35.9487C199.134 36.0143 198.871 36.0799 198.53 36.1455C198.189 36.2111 197.808 36.2571 197.388 36.2833H197.014V35.3779H197.388C198.005 35.3516 198.576 35.2532 199.101 35.0826C199.626 34.912 199.993 34.7546 200.203 34.6102C200.413 34.4659 200.597 34.3216 200.754 34.1772C200.78 34.1378 200.859 34.1182 200.99 34.1182C201.109 34.1182 201.22 34.1575 201.325 34.2363V40.1215L201.345 46.0264C201.437 46.1182 201.515 46.1773 201.581 46.2035C201.647 46.2298 201.804 46.256 202.053 46.2823C202.303 46.3085 202.709 46.3216 203.274 46.3216H203.785V47.2271H203.569C203.293 47.1877 202.25 47.168 200.439 47.168C198.655 47.168 197.625 47.1877 197.349 47.2271H197.113V46.3216H197.625C197.913 46.3216 198.163 46.3216 198.373 46.3216C198.583 46.3216 198.747 46.3151 198.865 46.3019C198.983 46.2888 199.088 46.2691 199.18 46.2429C199.271 46.2167 199.324 46.2035 199.337 46.2035C199.35 46.2035 199.39 46.1707 199.455 46.1051C199.521 46.0395 199.56 46.0133 199.573 46.0264V35.8503Z" fill="#1AA59B"/>
<path d="M197.881 64.922C197.526 64.922 197.251 64.8105 197.054 64.5874C196.857 64.3643 196.752 64.0756 196.739 63.7213C196.739 62.9996 197.054 62.3566 197.684 61.7924C198.314 61.2282 199.075 60.946 199.967 60.946C200.426 60.946 200.715 60.9526 200.833 60.9657C201.804 61.1232 202.545 61.4709 203.057 62.0089C203.569 62.5469 203.831 63.1308 203.844 63.7607C203.844 64.443 203.621 65.1057 203.175 65.7487C202.729 66.3917 202.112 66.8575 201.325 67.1462L201.266 67.1855C201.266 67.1987 201.325 67.2184 201.443 67.2446C201.561 67.2708 201.752 67.3299 202.014 67.4217C202.276 67.5136 202.526 67.6514 202.762 67.8351C203.838 68.5306 204.376 69.4491 204.376 70.5907C204.376 71.6273 203.969 72.5328 203.156 73.307C202.342 74.0812 201.312 74.4683 200.065 74.4683C199.016 74.4683 198.11 74.1861 197.349 73.6219C196.588 73.0576 196.207 72.3425 196.207 71.4764C196.207 71.109 196.326 70.8138 196.562 70.5907C196.798 70.3676 197.093 70.2495 197.447 70.2364C197.815 70.2364 198.117 70.3545 198.353 70.5907C198.589 70.8269 198.707 71.1221 198.707 71.4764C198.707 71.6208 198.688 71.752 198.648 71.8701C198.609 71.9882 198.563 72.0932 198.51 72.185C198.458 72.2769 198.386 72.3556 198.294 72.4212C198.202 72.4868 198.123 72.5393 198.058 72.5787C197.992 72.6181 197.926 72.6443 197.861 72.6574C197.795 72.6705 197.743 72.6902 197.703 72.7165L197.625 72.7362C198.294 73.3266 199.107 73.6219 200.065 73.6219C200.787 73.6219 201.332 73.2742 201.699 72.5787C201.922 72.1457 202.034 71.483 202.034 70.5907V70.197C202.034 68.9505 201.614 68.1172 200.774 67.6973C200.577 67.6186 200.177 67.5726 199.573 67.5595L198.747 67.5398L198.688 67.5005C198.661 67.4611 198.648 67.3561 198.648 67.1855C198.648 66.9494 198.701 66.8313 198.806 66.8313C199.173 66.8313 199.554 66.7984 199.947 66.7328C200.393 66.6672 200.8 66.3917 201.168 65.9062C201.535 65.4206 201.719 64.6858 201.719 63.7017V63.5442C201.719 62.7962 201.489 62.2779 201.03 61.9892C200.741 61.8055 200.433 61.7137 200.105 61.7137C199.685 61.7137 199.298 61.7858 198.943 61.9302C198.589 62.0745 198.34 62.2254 198.195 62.3829C198.051 62.5404 197.979 62.6191 197.979 62.6191H198.038C198.077 62.6322 198.13 62.6453 198.195 62.6585C198.261 62.6716 198.327 62.7044 198.392 62.7569C198.458 62.8094 198.537 62.8553 198.628 62.8947C198.72 62.934 198.786 63.0062 198.825 63.1112C198.865 63.2161 198.917 63.3146 198.983 63.4064C199.048 63.4983 199.068 63.6295 199.042 63.8001C199.042 64.0888 198.95 64.3446 198.766 64.5677C198.583 64.7908 198.287 64.9089 197.881 64.922Z" fill="#1AA59B"/>
<path d="M207.191 56.2024H193.412V55.0214H207.191V56.2024Z" fill="#1AA59B"/>
<path d="M210.576 54.8444C210.668 54.2932 211.022 53.6568 211.639 52.9351C212.256 52.2134 213.017 51.846 213.922 51.8329C214.381 51.8329 214.801 51.951 215.182 52.1872C215.562 52.4234 215.845 52.7186 216.028 53.0729C216.579 52.2462 217.242 51.8329 218.016 51.8329C218.502 51.8329 218.922 51.9772 219.276 52.2659C219.63 52.5546 219.814 52.9417 219.827 53.4272C219.827 53.8077 219.735 54.1161 219.552 54.3523C219.368 54.5885 219.191 54.7328 219.02 54.7853C218.849 54.8378 218.699 54.864 218.567 54.864C218.318 54.864 218.115 54.7919 217.957 54.6475C217.8 54.5032 217.721 54.3129 217.721 54.0767C217.721 53.4731 218.049 53.0598 218.705 52.8367C218.561 52.6661 218.298 52.5808 217.918 52.5808C217.747 52.5808 217.623 52.5939 217.544 52.6202C217.045 52.8301 216.678 53.2632 216.442 53.9193C215.654 56.8192 215.261 58.512 215.261 58.9975C215.261 59.3649 215.366 59.6273 215.576 59.7848C215.786 59.9423 216.015 60.021 216.264 60.021C216.75 60.021 217.229 59.8045 217.701 59.3715C218.174 58.9384 218.495 58.407 218.666 57.7771C218.705 57.6459 218.745 57.5737 218.784 57.5606C218.823 57.5475 218.928 57.5344 219.099 57.5213H219.178C219.374 57.5213 219.473 57.5737 219.473 57.6787C219.473 57.6918 219.46 57.764 219.433 57.8952C219.223 58.6432 218.817 59.3058 218.213 59.8832C217.609 60.4606 216.907 60.7493 216.107 60.7493C215.188 60.7493 214.493 60.3359 214.021 59.5092C213.483 60.3228 212.866 60.7296 212.17 60.7296H212.052C211.409 60.7296 210.95 60.559 210.674 60.2178C210.399 59.8767 210.255 59.5158 210.241 59.1353C210.241 58.7154 210.366 58.3742 210.615 58.1117C210.865 57.8493 211.16 57.7181 211.501 57.7181C212.065 57.7181 212.348 57.9936 212.348 58.5448C212.348 58.8072 212.269 59.0368 212.111 59.2337C211.954 59.4305 211.803 59.5617 211.659 59.6273C211.514 59.6929 211.429 59.7258 211.403 59.7258L211.344 59.7454C211.344 59.7586 211.383 59.7848 211.462 59.8242C211.541 59.8635 211.646 59.9095 211.777 59.9619C211.908 60.0144 212.033 60.0341 212.151 60.021C212.623 60.021 213.03 59.7258 213.371 59.1353C213.489 58.9253 213.64 58.4792 213.824 57.7968C214.007 57.1145 214.191 56.4059 214.375 55.6711C214.559 54.9362 214.664 54.5032 214.69 54.372C214.755 54.0177 214.788 53.7618 214.788 53.6043C214.788 53.2369 214.69 52.9745 214.493 52.817C214.296 52.6595 214.073 52.5808 213.824 52.5808C213.299 52.5808 212.807 52.7908 212.348 53.2107C211.888 53.6306 211.567 54.1686 211.383 54.8247C211.357 54.9428 211.324 55.0084 211.285 55.0215C211.245 55.0346 211.14 55.0478 210.97 55.0609H210.694C210.615 54.9821 210.576 54.91 210.576 54.8444Z" fill="#1AA59B"/>
<path d="M222.978 46.4336C222.727 46.4336 222.528 46.3502 222.379 46.1832C222.231 46.0162 222.157 45.8121 222.157 45.5709C222.157 44.9122 222.402 44.3416 222.894 43.8592C223.386 43.3768 223.998 43.1356 224.731 43.1356C225.575 43.1356 226.28 43.3953 226.846 43.9149C227.412 44.4344 227.7 45.107 227.709 45.9327C227.709 46.3316 227.616 46.712 227.431 47.0738C227.245 47.4356 227.022 47.751 226.763 48.0201C226.503 48.2891 226.132 48.6324 225.649 49.0498C225.315 49.3374 224.852 49.7642 224.258 50.3301L223.437 51.1094L224.494 51.1233C225.951 51.1233 226.726 51.1001 226.818 51.0537C226.883 51.0352 226.995 50.6223 227.152 49.8152V49.7735H227.709V49.8152C227.7 49.843 227.639 50.2652 227.528 51.0816C227.417 51.898 227.347 52.3247 227.319 52.3618V52.4036H222.157V52.1392V51.9722C222.157 51.9072 222.184 51.8377 222.24 51.7634C222.296 51.6892 222.435 51.5269 222.658 51.2764C222.927 50.9795 223.158 50.7197 223.353 50.4971C223.437 50.4043 223.595 50.2327 223.826 49.9822C224.058 49.7317 224.216 49.5601 224.3 49.4673C224.383 49.3745 224.518 49.2215 224.703 49.0081C224.889 48.7947 225.019 48.637 225.093 48.5349C225.167 48.4329 225.274 48.2937 225.413 48.1175C225.552 47.9412 225.649 47.7928 225.705 47.6722C225.761 47.5516 225.83 47.417 225.914 47.2686C225.997 47.1202 226.058 46.9717 226.095 46.8233C226.132 46.6749 226.164 46.5357 226.192 46.4058C226.22 46.2759 226.234 46.1229 226.234 45.9466C226.234 45.3621 226.076 44.8565 225.761 44.4298C225.445 44.003 224.995 43.7896 224.411 43.7896C224.105 43.7896 223.836 43.8685 223.604 44.0262C223.372 44.1839 223.21 44.337 223.117 44.4854C223.024 44.6339 222.978 44.722 222.978 44.7498C222.978 44.7591 223.001 44.7637 223.047 44.7637C223.214 44.7637 223.386 44.8287 223.562 44.9586C223.738 45.0884 223.826 45.3018 223.826 45.5987C223.826 45.8306 223.752 46.0254 223.604 46.1832C223.455 46.3409 223.247 46.4244 222.978 46.4336Z" fill="#1AA59B"/>
<path d="M235.43 55.8678C235.43 55.8678 235.43 55.7825 235.43 55.612C235.43 55.4414 235.522 55.3101 235.705 55.2183H247.141C247.338 55.3233 247.436 55.4545 247.436 55.612C247.436 55.7694 247.338 55.9006 247.141 56.0056H235.705C235.522 55.9138 235.43 55.7825 235.43 55.612V55.8678Z" fill="#1AA59B"/>
<path d="M257.658 49.1559L257.402 49.2543C257.218 49.32 256.956 49.3856 256.615 49.4512C256.273 49.5168 255.893 49.5627 255.473 49.589H255.099V48.6835H255.473C256.09 48.6573 256.661 48.5589 257.185 48.3883C257.71 48.2177 258.078 48.0602 258.288 47.9159C258.498 47.7716 258.681 47.6272 258.839 47.4829C258.865 47.4435 258.944 47.4238 259.075 47.4238C259.193 47.4238 259.305 47.4632 259.41 47.5419V53.4271L259.429 59.3321C259.521 59.4239 259.6 59.483 259.665 59.5092C259.731 59.5354 259.889 59.5617 260.138 59.5879C260.387 59.6142 260.794 59.6273 261.358 59.6273H261.87V60.5327H261.653C261.378 60.4933 260.335 60.4737 258.524 60.4737C256.739 60.4737 255.709 60.4933 255.434 60.5327H255.197V59.6273H255.709C255.998 59.6273 256.247 59.6273 256.457 59.6273C256.667 59.6273 256.831 59.6207 256.949 59.6076C257.067 59.5945 257.172 59.5748 257.264 59.5486C257.356 59.5223 257.408 59.5092 257.422 59.5092C257.435 59.5092 257.474 59.4764 257.54 59.4108C257.605 59.3452 257.645 59.3189 257.658 59.3321V49.1559Z" fill="#1AA59B"/>
</g>
</g>
<defs>
<clipPath id="clip0_1541_5964">
<rect width="640" height="360" fill="white"/>
</clipPath>
<clipPath id="clip1_1541_5964">
<rect width="640" height="360" fill="white"/>
</clipPath>
<clipPath id="clip2_1541_5964">
<rect width="231.307" height="47.2236" fill="white" transform="translate(32 32)"/>
</clipPath>
</defs>
</svg>
