<svg width="641" height="307" viewBox="0 0 641 307" fill="none" xmlns="http://www.w3.org/2000/svg">
<g clip-path="url(#clip0_646_5804)">
<path d="M640.224 0.5H0.224121V306.077H640.224V0.5Z" fill="black"/>
<path d="M0.224121 5.59302H640.224" stroke="#181818" stroke-miterlimit="203.718"/>
<path d="M0.224121 10.686H640.224" stroke="#181818" stroke-miterlimit="203.718"/>
<path d="M0.224121 15.7791H640.224" stroke="#181818" stroke-miterlimit="203.718"/>
<path d="M0.224121 20.8721H640.224" stroke="#181818" stroke-miterlimit="203.718"/>
<path d="M0.224121 31.058H640.224" stroke="#181818" stroke-miterlimit="203.718"/>
<path d="M0.224121 36.151H640.224" stroke="#181818" stroke-miterlimit="203.718"/>
<path d="M0.224121 41.244H640.224" stroke="#181818" stroke-miterlimit="203.718"/>
<path d="M0.224121 46.337H640.224" stroke="#181818" stroke-miterlimit="203.718"/>
<path d="M0.224121 56.5231H640.224" stroke="#181818" stroke-miterlimit="203.718"/>
<path d="M0.224121 61.615H640.224" stroke="#181818" stroke-miterlimit="203.718"/>
<path d="M0.224121 66.708H640.224" stroke="#181818" stroke-miterlimit="203.718"/>
<path d="M0.224121 71.801H640.224" stroke="#181818" stroke-miterlimit="203.718"/>
<path d="M0.224121 81.9871H640.224" stroke="#181818" stroke-miterlimit="203.718"/>
<path d="M0.224121 87.0801H640.224" stroke="#181818" stroke-miterlimit="203.718"/>
<path d="M0.224121 92.173H640.224" stroke="#181818" stroke-miterlimit="203.718"/>
<path d="M0.224121 97.266H640.224" stroke="#181818" stroke-miterlimit="203.718"/>
<path d="M0.224121 107.452H640.224" stroke="#181818" stroke-miterlimit="203.718"/>
<path d="M0.224121 112.545H640.224" stroke="#181818" stroke-miterlimit="203.718"/>
<path d="M0.224121 117.638H640.224" stroke="#181818" stroke-miterlimit="203.718"/>
<path d="M0.224121 122.731H640.224" stroke="#181818" stroke-miterlimit="203.718"/>
<path d="M0.224121 132.917H640.224" stroke="#181818" stroke-miterlimit="203.718"/>
<path d="M0.224121 138.01H640.224" stroke="#181818" stroke-miterlimit="203.718"/>
<path d="M0.224121 143.103H640.224" stroke="#181818" stroke-miterlimit="203.718"/>
<path d="M0.224121 148.196H640.224" stroke="#181818" stroke-miterlimit="203.718"/>
<path d="M0.224121 158.382H640.224" stroke="#181818" stroke-miterlimit="203.718"/>
<path d="M0.224121 163.475H640.224" stroke="#181818" stroke-miterlimit="203.718"/>
<path d="M0.224121 168.568H640.224" stroke="#181818" stroke-miterlimit="203.718"/>
<path d="M0.224121 173.661H640.224" stroke="#181818" stroke-miterlimit="203.718"/>
<path d="M0.224121 183.846H640.224" stroke="#181818" stroke-miterlimit="203.718"/>
<path d="M0.224121 188.939H640.224" stroke="#181818" stroke-miterlimit="203.718"/>
<path d="M0.224121 194.032H640.224" stroke="#181818" stroke-miterlimit="203.718"/>
<path d="M0.224121 199.125H640.224" stroke="#181818" stroke-miterlimit="203.718"/>
<path d="M0.224121 209.311H640.224" stroke="#181818" stroke-miterlimit="203.718"/>
<path d="M0.224121 214.404H640.224" stroke="#181818" stroke-miterlimit="203.718"/>
<path d="M0.224121 219.497H640.224" stroke="#181818" stroke-miterlimit="203.718"/>
<path d="M0.224121 224.59H640.224" stroke="#181818" stroke-miterlimit="203.718"/>
<path d="M0.224121 234.776H640.224" stroke="#181818" stroke-miterlimit="203.718"/>
<path d="M0.224121 239.869H640.224" stroke="#181818" stroke-miterlimit="203.718"/>
<path d="M0.224121 244.962H640.224" stroke="#181818" stroke-miterlimit="203.718"/>
<path d="M0.224121 250.055H640.224" stroke="#181818" stroke-miterlimit="203.718"/>
<path d="M0.224121 260.241H640.224" stroke="#181818" stroke-miterlimit="203.718"/>
<path d="M0.224121 265.334H640.224" stroke="#181818" stroke-miterlimit="203.718"/>
<path d="M0.224121 270.427H640.224" stroke="#181818" stroke-miterlimit="203.718"/>
<path d="M0.224121 275.52H640.224" stroke="#181818" stroke-miterlimit="203.718"/>
<path d="M0.224121 285.706H640.224" stroke="#181818" stroke-miterlimit="203.718"/>
<path d="M0.224121 290.799H640.224" stroke="#181818" stroke-miterlimit="203.718"/>
<path d="M0.224121 295.892H640.224" stroke="#181818" stroke-miterlimit="203.718"/>
<path d="M0.224121 300.985H640.224" stroke="#181818" stroke-miterlimit="203.718"/>
<path d="M4.45996 0.5V306.077" stroke="#181818" stroke-miterlimit="203.718"/>
<path d="M9.55273 0.5V306.077" stroke="#181818" stroke-miterlimit="203.718"/>
<path d="M19.7388 0.5V306.077" stroke="#181818" stroke-miterlimit="203.718"/>
<path d="M24.832 0.5V306.077" stroke="#181818" stroke-miterlimit="203.718"/>
<path d="M29.9248 0.5V306.077" stroke="#181818" stroke-miterlimit="203.718"/>
<path d="M35.0181 0.5V306.077" stroke="#181818" stroke-miterlimit="203.718"/>
<path d="M45.2041 0.5V306.077" stroke="#181818" stroke-miterlimit="203.718"/>
<path d="M50.2969 0.5V306.077" stroke="#181818" stroke-miterlimit="203.718"/>
<path d="M55.3901 0.5V306.077" stroke="#181818" stroke-miterlimit="203.718"/>
<path d="M60.4829 0.5V306.077" stroke="#181818" stroke-miterlimit="203.718"/>
<path d="M70.6689 0.5V306.077" stroke="#181818" stroke-miterlimit="203.718"/>
<path d="M75.7617 0.5V306.077" stroke="#181818" stroke-miterlimit="203.718"/>
<path d="M80.855 0.5V306.077" stroke="#181818" stroke-miterlimit="203.718"/>
<path d="M85.9478 0.5V306.077" stroke="#181818" stroke-miterlimit="203.718"/>
<path d="M96.1328 0.5V306.077" stroke="#181818" stroke-miterlimit="203.718"/>
<path d="M101.226 0.5V306.077" stroke="#181818" stroke-miterlimit="203.718"/>
<path d="M106.319 0.5V306.077" stroke="#181818" stroke-miterlimit="203.718"/>
<path d="M111.412 0.5V306.077" stroke="#181818" stroke-miterlimit="203.718"/>
<path d="M121.598 0.5V306.077" stroke="#181818" stroke-miterlimit="203.718"/>
<path d="M126.691 0.5V306.077" stroke="#181818" stroke-miterlimit="203.718"/>
<path d="M131.784 0.5V306.077" stroke="#181818" stroke-miterlimit="203.718"/>
<path d="M136.877 0.5V306.077" stroke="#181818" stroke-miterlimit="203.718"/>
<path d="M147.063 0.5V306.077" stroke="#181818" stroke-miterlimit="203.718"/>
<path d="M152.156 0.5V306.077" stroke="#181818" stroke-miterlimit="203.718"/>
<path d="M157.249 0.5V306.077" stroke="#181818" stroke-miterlimit="203.718"/>
<path d="M162.342 0.5V306.077" stroke="#181818" stroke-miterlimit="203.718"/>
<path d="M172.528 0.5V306.077" stroke="#181818" stroke-miterlimit="203.718"/>
<path d="M177.621 0.5V306.077" stroke="#181818" stroke-miterlimit="203.718"/>
<path d="M182.714 0.5V306.077" stroke="#181818" stroke-miterlimit="203.718"/>
<path d="M187.807 0.5V306.077" stroke="#181818" stroke-miterlimit="203.718"/>
<path d="M197.993 0.5V306.077" stroke="#181818" stroke-miterlimit="203.718"/>
<path d="M203.086 0.5V306.077" stroke="#181818" stroke-miterlimit="203.718"/>
<path d="M208.179 0.5V306.077" stroke="#181818" stroke-miterlimit="203.718"/>
<path d="M213.271 0.5V306.077" stroke="#181818" stroke-miterlimit="203.718"/>
<path d="M223.457 0.5V306.077" stroke="#181818" stroke-miterlimit="203.718"/>
<path d="M228.55 0.5V306.077" stroke="#181818" stroke-miterlimit="203.718"/>
<path d="M233.643 0.5V306.077" stroke="#181818" stroke-miterlimit="203.718"/>
<path d="M238.736 0.5V306.077" stroke="#181818" stroke-miterlimit="203.718"/>
<path d="M248.922 0.5V306.077" stroke="#181818" stroke-miterlimit="203.718"/>
<path d="M254.015 0.5V306.077" stroke="#181818" stroke-miterlimit="203.718"/>
<path d="M259.108 0.5V306.077" stroke="#181818" stroke-miterlimit="203.718"/>
<path d="M264.201 0.5V306.077" stroke="#181818" stroke-miterlimit="203.718"/>
<path d="M274.387 0.5V306.077" stroke="#181818" stroke-miterlimit="203.718"/>
<path d="M279.48 0.5V306.077" stroke="#181818" stroke-miterlimit="203.718"/>
<path d="M284.573 0.5V306.077" stroke="#181818" stroke-miterlimit="203.718"/>
<path d="M289.666 0.5V306.077" stroke="#181818" stroke-miterlimit="203.718"/>
<path d="M299.852 0.5V306.077" stroke="#181818" stroke-miterlimit="203.718"/>
<path d="M304.945 0.5V306.077" stroke="#181818" stroke-miterlimit="203.718"/>
<path d="M310.038 0.5V306.077" stroke="#181818" stroke-miterlimit="203.718"/>
<path d="M315.131 0.5V306.077" stroke="#181818" stroke-miterlimit="203.718"/>
<path d="M325.317 0.5V306.077" stroke="#181818" stroke-miterlimit="203.718"/>
<path d="M330.41 0.5V306.077" stroke="#181818" stroke-miterlimit="203.718"/>
<path d="M335.502 0.5V306.077" stroke="#181818" stroke-miterlimit="203.718"/>
<path d="M340.595 0.5V306.077" stroke="#181818" stroke-miterlimit="203.718"/>
<path d="M350.781 0.5V306.077" stroke="#181818" stroke-miterlimit="203.718"/>
<path d="M355.874 0.5V306.077" stroke="#181818" stroke-miterlimit="203.718"/>
<path d="M360.967 0.5V306.077" stroke="#181818" stroke-miterlimit="203.718"/>
<path d="M366.06 0.5V306.077" stroke="#181818" stroke-miterlimit="203.718"/>
<path d="M376.246 0.5V306.077" stroke="#181818" stroke-miterlimit="203.718"/>
<path d="M381.339 0.5V306.077" stroke="#181818" stroke-miterlimit="203.718"/>
<path d="M386.432 0.5V306.077" stroke="#181818" stroke-miterlimit="203.718"/>
<path d="M391.525 0.5V306.077" stroke="#181818" stroke-miterlimit="203.718"/>
<path d="M401.711 0.5V306.077" stroke="#181818" stroke-miterlimit="203.718"/>
<path d="M406.804 0.5V306.077" stroke="#181818" stroke-miterlimit="203.718"/>
<path d="M411.897 0.5V306.077" stroke="#181818" stroke-miterlimit="203.718"/>
<path d="M416.99 0.5V306.077" stroke="#181818" stroke-miterlimit="203.718"/>
<path d="M427.176 0.5V306.077" stroke="#181818" stroke-miterlimit="203.718"/>
<path d="M432.269 0.5V306.077" stroke="#181818" stroke-miterlimit="203.718"/>
<path d="M437.362 0.5V306.077" stroke="#181818" stroke-miterlimit="203.718"/>
<path d="M442.455 0.5V306.077" stroke="#181818" stroke-miterlimit="203.718"/>
<path d="M452.641 0.5V306.077" stroke="#181818" stroke-miterlimit="203.718"/>
<path d="M457.733 0.5V306.077" stroke="#181818" stroke-miterlimit="203.718"/>
<path d="M462.826 0.5V306.077" stroke="#181818" stroke-miterlimit="203.718"/>
<path d="M467.919 0.5V306.077" stroke="#181818" stroke-miterlimit="203.718"/>
<path d="M478.105 0.5V306.077" stroke="#181818" stroke-miterlimit="203.718"/>
<path d="M483.198 0.5V306.077" stroke="#181818" stroke-miterlimit="203.718"/>
<path d="M488.291 0.5V306.077" stroke="#181818" stroke-miterlimit="203.718"/>
<path d="M493.384 0.5V306.077" stroke="#181818" stroke-miterlimit="203.718"/>
<path d="M503.57 0.5V306.077" stroke="#181818" stroke-miterlimit="203.718"/>
<path d="M508.663 0.5V306.077" stroke="#181818" stroke-miterlimit="203.718"/>
<path d="M513.756 0.5V306.077" stroke="#181818" stroke-miterlimit="203.718"/>
<path d="M518.849 0.5V306.077" stroke="#181818" stroke-miterlimit="203.718"/>
<path d="M529.035 0.5V306.077" stroke="#181818" stroke-miterlimit="203.718"/>
<path d="M534.128 0.5V306.077" stroke="#181818" stroke-miterlimit="203.718"/>
<path d="M539.221 0.5V306.077" stroke="#181818" stroke-miterlimit="203.718"/>
<path d="M544.314 0.5V306.077" stroke="#181818" stroke-miterlimit="203.718"/>
<path d="M554.5 0.5V306.077" stroke="#181818" stroke-miterlimit="203.718"/>
<path d="M559.593 0.5V306.077" stroke="#181818" stroke-miterlimit="203.718"/>
<path d="M564.686 0.5V306.077" stroke="#181818" stroke-miterlimit="203.718"/>
<path d="M569.779 0.5V306.077" stroke="#181818" stroke-miterlimit="203.718"/>
<path d="M579.964 0.5V306.077" stroke="#181818" stroke-miterlimit="203.718"/>
<path d="M585.057 0.5V306.077" stroke="#181818" stroke-miterlimit="203.718"/>
<path d="M590.15 0.5V306.077" stroke="#181818" stroke-miterlimit="203.718"/>
<path d="M595.243 0.5V306.077" stroke="#181818" stroke-miterlimit="203.718"/>
<path d="M605.429 0.5V306.077" stroke="#181818" stroke-miterlimit="203.718"/>
<path d="M610.522 0.5V306.077" stroke="#181818" stroke-miterlimit="203.718"/>
<path d="M615.615 0.5V306.077" stroke="#181818" stroke-miterlimit="203.718"/>
<path d="M620.708 0.5V306.077" stroke="#181818" stroke-miterlimit="203.718"/>
<path d="M630.894 0.5V306.077" stroke="#181818" stroke-miterlimit="203.718"/>
<path d="M635.987 0.5V306.077" stroke="#181818" stroke-miterlimit="203.718"/>
<path d="M0.224121 25.965H640.224" stroke="#262626" stroke-miterlimit="203.718"/>
<path d="M0.224121 76.8939H640.224" stroke="#262626" stroke-miterlimit="203.718"/>
<path d="M0.224121 127.824H640.224" stroke="#262626" stroke-miterlimit="203.718"/>
<path d="M0.224121 178.754H640.224" stroke="#262626" stroke-miterlimit="203.718"/>
<path d="M0.224121 229.683H640.224" stroke="#262626" stroke-miterlimit="203.718"/>
<path d="M0.224121 280.613H640.224" stroke="#262626" stroke-miterlimit="203.718"/>
<path d="M40.1113 0.5V306.077" stroke="#262626" stroke-miterlimit="203.718"/>
<path d="M91.0405 0.5V306.077" stroke="#262626" stroke-miterlimit="203.718"/>
<path d="M141.97 0.5V306.077" stroke="#262626" stroke-miterlimit="203.718"/>
<path d="M192.9 0.5V306.077" stroke="#262626" stroke-miterlimit="203.718"/>
<path d="M243.829 0.5V306.077" stroke="#262626" stroke-miterlimit="203.718"/>
<path d="M294.759 0.5V306.077" stroke="#262626" stroke-miterlimit="203.718"/>
<path d="M345.688 0.5V306.077" stroke="#262626" stroke-miterlimit="203.718"/>
<path d="M396.618 0.5V306.077" stroke="#262626" stroke-miterlimit="203.718"/>
<path d="M447.548 0.5V306.077" stroke="#262626" stroke-miterlimit="203.718"/>
<path d="M498.478 0.5V306.077" stroke="#262626" stroke-miterlimit="203.718"/>
<path d="M549.407 0.5V306.077" stroke="#262626" stroke-miterlimit="203.718"/>
<path d="M600.336 0.5V306.077" stroke="#262626" stroke-miterlimit="203.718"/>
<path d="M0.224121 0.5H640.224" stroke="#404040" stroke-miterlimit="203.718"/>
<path d="M0.224121 51.4301H640.224" stroke="#404040" stroke-miterlimit="203.718"/>
<path d="M0.224121 102.359H640.224" stroke="#404040" stroke-miterlimit="203.718"/>
<path d="M0.224121 153.289H640.224" stroke="#404040" stroke-miterlimit="203.718"/>
<path d="M0.224121 204.218H640.224" stroke="#404040" stroke-miterlimit="203.718"/>
<path d="M0.224121 255.148H640.224" stroke="#404040" stroke-miterlimit="203.718"/>
<path d="M0.224121 306.077H640.224" stroke="#404040" stroke-miterlimit="203.718"/>
<path d="M14.646 0.5V306.077" stroke="#404040" stroke-miterlimit="203.718"/>
<path d="M65.5762 0.5V306.077" stroke="#404040" stroke-miterlimit="203.718"/>
<path d="M116.505 0.5V306.077" stroke="#404040" stroke-miterlimit="203.718"/>
<path d="M167.435 0.5V306.077" stroke="#404040" stroke-miterlimit="203.718"/>
<path d="M218.364 0.5V306.077" stroke="#404040" stroke-miterlimit="203.718"/>
<path d="M269.294 0.5V306.077" stroke="#404040" stroke-miterlimit="203.718"/>
<path d="M320.224 0.5V306.077" stroke="#404040" stroke-miterlimit="203.718"/>
<path d="M371.153 0.5V306.077" stroke="#404040" stroke-miterlimit="203.718"/>
<path d="M422.083 0.5V306.077" stroke="#404040" stroke-miterlimit="203.718"/>
<path d="M473.012 0.5V306.077" stroke="#404040" stroke-miterlimit="203.718"/>
<path d="M523.942 0.5V306.077" stroke="#404040" stroke-miterlimit="203.718"/>
<path d="M574.872 0.5V306.077" stroke="#404040" stroke-miterlimit="203.718"/>
<path d="M625.801 0.5V306.077" stroke="#404040" stroke-miterlimit="203.718"/>
<path d="M0.224121 153.289H640.224" stroke="#F0F0F0" stroke-miterlimit="203.718"/>
<path d="M320.224 0.5V306.077" stroke="#F0F0F0" stroke-miterlimit="203.718"/>
<path d="M0.224121 102.359C62.5661 102.654 106.595 216.558 170.891 203.105C214.863 193.641 250.536 131.773 291.78 110.098C310.757 99.832 329.692 99.831 348.669 110.098C389.95 131.804 425.575 193.635 469.558 203.105C533.845 216.561 577.892 102.649 640.225 102.359" stroke="white" stroke-width="1.5" stroke-miterlimit="203.718"/>
<path d="M294.759 0.5C320.221 102.346 345.692 204.232 371.153 306.077" stroke="#58C4DD" stroke-opacity="0.5" stroke-width="1.5" stroke-miterlimit="203.718"/>
<path d="M269.294 0.5C320.222 102.356 371.155 204.222 422.083 306.077" stroke="#58C4DD" stroke-opacity="0.5" stroke-width="1.5" stroke-miterlimit="203.718"/>
<path d="M218.364 0.5C320.222 102.358 422.083 204.219 523.941 306.077" stroke="#58C4DD" stroke-opacity="0.5" stroke-width="1.5" stroke-miterlimit="203.718"/>
<path d="M116.505 0.5C291.077 87.786 465.651 175.073 640.223 262.359" stroke="#58C4DD" stroke-opacity="0.5" stroke-width="1.5" stroke-miterlimit="203.718"/>
<path d="M0.224121 22.359C213.557 75.692 426.891 129.026 640.224 182.359" stroke="#58C4DD" stroke-opacity="0.5" stroke-width="1.5" stroke-miterlimit="203.718"/>
<path d="M0.224121 102.359H640.224" stroke="#58C4DD" stroke-opacity="0.5" stroke-width="1.5" stroke-miterlimit="203.718"/>
<path d="M0.224121 182.359C213.557 129.026 426.891 75.692 640.224 22.359" stroke="#58C4DD" stroke-opacity="0.5" stroke-width="1.5" stroke-miterlimit="203.718"/>
<path d="M0.224121 262.359C174.796 175.073 349.37 87.786 523.942 0.5" stroke="#58C4DD" stroke-opacity="0.5" stroke-width="1.5" stroke-miterlimit="203.718"/>
<path d="M116.505 306.077C218.364 204.219 320.224 102.358 422.083 0.5" stroke="#58C4DD" stroke-opacity="0.5" stroke-width="1.5" stroke-miterlimit="203.718"/>
<path d="M218.364 306.077C269.292 204.222 320.225 102.356 371.153 0.5" stroke="#58C4DD" stroke-opacity="0.5" stroke-width="1.5" stroke-miterlimit="203.718"/>
<path d="M269.294 306.077C294.756 204.231 320.227 102.346 345.688 0.5" stroke="#58C4DD" stroke-opacity="0.5" stroke-width="1.5" stroke-miterlimit="203.718"/>
<circle cx="320.224" cy="102.359" r="3" fill="white"/>
<path d="M403.391 33H244V63H403.391V33Z" fill="black"/>
<g clip-path="url(#clip1_646_5804)">
<path d="M258.547 47.0593C258.547 47.0593 258.404 47.0593 258.119 47.0593C257.834 47.0593 257.59 46.9575 257.386 46.7539C257.183 46.5503 257.074 46.2925 257.061 45.9803C257.061 45.6682 257.162 45.4103 257.366 45.2067C257.434 45.1389 257.468 45.0981 257.468 45.0846C257.468 45.071 257.4 45.0574 257.264 45.0438C256.911 44.9896 256.579 44.9624 256.267 44.9624C255.602 44.9624 255.059 45.1796 254.638 45.6139C254 46.2518 253.681 47.3172 253.681 48.8101C253.681 49.923 253.892 50.7984 254.312 51.4363C254.869 52.2642 255.615 52.6781 256.552 52.6781C257.108 52.6781 257.556 52.5017 257.895 52.1488C258.235 51.7959 258.479 51.3752 258.628 50.8866C258.655 50.778 258.689 50.7102 258.73 50.683C258.771 50.6559 258.879 50.6423 259.056 50.6423H259.341C259.422 50.7237 259.463 50.7848 259.463 50.8255C259.463 50.8798 259.436 50.9884 259.382 51.1512C259.327 51.3141 259.219 51.538 259.056 51.8231C258.893 52.1081 258.696 52.3659 258.465 52.5967C258.235 52.8274 257.909 53.0378 257.488 53.2278C257.067 53.4178 256.599 53.506 256.084 53.4924C254.916 53.4924 253.898 53.0581 253.03 52.1895C252.161 51.3209 251.72 50.2284 251.707 48.9119C251.707 47.5004 252.148 46.3535 253.03 45.4714C253.912 44.5892 254.937 44.1481 256.104 44.1481C257.271 44.1481 258.085 44.3313 258.547 44.6978C259.008 45.0642 259.239 45.4985 259.239 46.0007C259.239 46.3128 259.124 46.5639 258.893 46.7539L258.547 47.0593Z" fill="white"/>
<path d="M260.624 48.9119C260.624 47.6225 261.065 46.5096 261.947 45.5731C262.829 44.6367 263.894 44.1617 265.143 44.1481C266.364 44.1481 267.416 44.6095 268.299 45.5324C269.181 46.4553 269.629 47.575 269.642 48.8915C269.642 50.1808 269.208 51.2666 268.339 52.1488C267.471 53.031 266.405 53.472 265.143 53.472C263.827 53.472 262.748 53.0174 261.906 52.1081C261.065 51.1987 260.637 50.1333 260.624 48.9119ZM265.143 52.6577C266.799 52.6577 267.627 51.5516 267.627 49.3394V48.6879V48.179C267.627 47.8804 267.62 47.6225 267.606 47.4054C267.593 47.1882 267.545 46.9303 267.464 46.6318C267.382 46.3332 267.274 46.0889 267.138 45.8989C267.002 45.7089 266.792 45.5189 266.507 45.3288C266.222 45.1388 265.889 45.0031 265.509 44.9217C265.442 44.9081 265.333 44.9013 265.184 44.9013C264.777 44.9013 264.39 44.9828 264.023 45.1456C263.44 45.4442 263.06 45.8582 262.883 46.3875C262.707 46.9168 262.619 47.5411 262.619 48.2604V48.6676C262.619 49.9705 262.748 50.8866 263.005 51.4159C263.44 52.2438 264.152 52.6577 265.143 52.6577Z" fill="white"/>
<path d="M276.238 46.8354C276.238 46.2925 276.055 45.8243 275.688 45.4307C275.322 45.0371 274.793 44.8403 274.101 44.8403C273.612 44.8403 273.191 44.9285 272.838 45.1049C272.431 45.3628 272.228 45.7157 272.228 46.1636C272.214 46.2314 272.214 46.3196 272.228 46.4282C272.241 46.5368 272.35 46.6996 272.553 46.9168C272.757 47.1339 273.049 47.3036 273.429 47.4257C273.673 47.4936 273.972 47.5547 274.324 47.609C274.677 47.6633 274.976 47.7243 275.22 47.7922C275.464 47.8601 275.682 47.9483 275.872 48.0568C276.102 48.1654 276.326 48.3011 276.543 48.464C276.761 48.6269 276.978 48.9051 277.195 49.2987C277.412 49.6923 277.527 50.113 277.541 50.5609C277.541 51.4023 277.283 52.0945 276.767 52.6374C276.252 53.1803 275.417 53.4585 274.263 53.4721H274.101C273.395 53.4721 272.743 53.2278 272.146 52.7392L271.983 52.8817L271.8 53.0649C271.719 53.1463 271.637 53.221 271.556 53.2889L271.332 53.4924H271.169H271.088C271.047 53.4924 270.986 53.4517 270.904 53.3703V51.762V50.5812C270.904 50.2962 270.918 50.1266 270.945 50.0723C270.972 50.018 271.04 49.9841 271.149 49.9705H271.332C271.495 49.9705 271.603 49.9976 271.658 50.0519C271.712 50.1062 271.746 50.1876 271.759 50.2962C271.773 50.4048 271.82 50.588 271.902 50.8459C271.983 51.1038 272.112 51.3888 272.289 51.7009C272.764 52.3931 273.422 52.7392 274.263 52.7392C275.58 52.7392 276.238 52.2099 276.238 51.1513C276.238 50.7577 276.116 50.4387 275.872 50.1944C275.6 49.8687 275.037 49.6244 274.182 49.4615C273.327 49.2987 272.764 49.1426 272.492 48.9933C272.004 48.7626 271.617 48.4504 271.332 48.0568C271.047 47.6633 270.904 47.2425 270.904 46.7946C270.904 46.2653 271.02 45.8175 271.25 45.451C271.481 45.0846 271.773 44.8131 272.126 44.6367C272.479 44.4603 272.818 44.3381 273.144 44.2703C273.469 44.2024 273.768 44.1685 274.039 44.1685H274.263C274.806 44.1685 275.281 44.2703 275.688 44.4738L275.994 44.6367L276.177 44.4942C276.313 44.372 276.462 44.2567 276.625 44.1481H276.788H276.869C276.91 44.1481 276.971 44.1888 277.052 44.2703V46.9575L276.93 47.0797H276.36C276.279 46.9982 276.238 46.9168 276.238 46.8354Z" fill="white"/>
<path d="M280.167 48.179C280.167 47.2426 280.235 46.3536 280.371 45.5121C280.506 44.6707 280.662 43.9446 280.839 43.3338C281.015 42.7231 281.266 42.1259 281.592 41.5423C281.918 40.9587 282.176 40.5041 282.366 40.1783C282.556 39.8526 282.841 39.4997 283.221 39.1197C283.601 38.7397 283.825 38.509 283.893 38.4276C283.96 38.3461 284.13 38.2036 284.401 38H284.666H284.748C284.938 38 285.033 38.0611 285.033 38.1833C285.033 38.224 284.917 38.3665 284.686 38.6108C284.456 38.8551 284.178 39.2147 283.852 39.6897C283.526 40.1648 283.194 40.7484 282.854 41.4405C282.515 42.1327 282.23 43.0692 281.999 44.2499C281.768 45.4307 281.653 46.7404 281.653 48.179C281.653 49.6177 281.768 50.9206 281.999 52.0878C282.23 53.255 282.508 54.1982 282.834 54.9175C283.16 55.6368 283.492 56.2204 283.831 56.6683C284.171 57.1162 284.456 57.4759 284.686 57.7473C284.917 58.0187 285.033 58.1612 285.033 58.1748C285.033 58.297 284.931 58.358 284.727 58.358H284.666H284.401L283.831 57.8694C282.556 56.7158 281.626 55.2772 281.042 53.5535C280.459 51.8299 280.167 50.0384 280.167 48.179Z" fill="white"/>
<path d="M287.231 47.385C287.326 46.815 287.693 46.1568 288.331 45.4103C288.969 44.6638 289.756 44.2838 290.692 44.2703C291.167 44.2703 291.602 44.3924 291.995 44.6367C292.389 44.881 292.68 45.1864 292.871 45.5528C293.441 44.6978 294.126 44.2703 294.927 44.2703C295.429 44.2703 295.863 44.4195 296.23 44.7181C296.596 45.0167 296.786 45.4171 296.8 45.9193C296.8 46.3128 296.705 46.6318 296.515 46.8761C296.325 47.1204 296.141 47.2697 295.965 47.324C295.788 47.3782 295.632 47.4054 295.497 47.4054C295.239 47.4054 295.028 47.3307 294.866 47.1815C294.703 47.0322 294.621 46.8354 294.621 46.5911C294.621 45.9668 294.961 45.5392 295.639 45.3085C295.49 45.1321 295.218 45.0439 294.825 45.0439C294.648 45.0439 294.52 45.0574 294.438 45.0846C293.922 45.3017 293.542 45.7496 293.298 46.4282C292.484 49.4276 292.077 51.1784 292.077 51.6806C292.077 52.0606 292.185 52.332 292.402 52.4949C292.619 52.6578 292.857 52.7392 293.115 52.7392C293.617 52.7392 294.112 52.5152 294.601 52.0674C295.09 51.6195 295.422 51.0698 295.598 50.4184C295.639 50.2827 295.68 50.208 295.721 50.1944C295.761 50.1809 295.87 50.1673 296.046 50.1537H296.128C296.331 50.1537 296.433 50.208 296.433 50.3166C296.433 50.3302 296.42 50.4048 296.392 50.5405C296.175 51.3141 295.755 51.9995 295.13 52.5967C294.506 53.1938 293.78 53.4924 292.952 53.4924C292.002 53.4924 291.283 53.0649 290.794 52.2099C290.238 53.0513 289.6 53.4721 288.88 53.4721H288.758C288.093 53.4721 287.618 53.2956 287.333 52.9428C287.048 52.5899 286.899 52.2167 286.885 51.8231C286.885 51.3888 287.014 51.0359 287.272 50.7645C287.53 50.493 287.835 50.3573 288.188 50.3573C288.772 50.3573 289.064 50.6423 289.064 51.2123C289.064 51.4838 288.982 51.7213 288.819 51.9249C288.656 52.1284 288.5 52.2642 288.351 52.332C288.202 52.3999 288.114 52.4338 288.086 52.4338L288.025 52.4542C288.025 52.4677 288.066 52.4949 288.147 52.5356C288.229 52.5763 288.337 52.6238 288.473 52.6781C288.609 52.7324 288.738 52.7528 288.86 52.7392C289.349 52.7392 289.769 52.4338 290.122 51.8231C290.244 51.6059 290.4 51.1445 290.59 50.4387C290.78 49.733 290.97 49.0001 291.16 48.2401C291.35 47.48 291.459 47.0322 291.486 46.8964C291.554 46.53 291.588 46.2653 291.588 46.1025C291.588 45.7225 291.486 45.451 291.283 45.2882C291.079 45.1253 290.848 45.0439 290.59 45.0439C290.048 45.0439 289.539 45.261 289.064 45.6953C288.589 46.1296 288.256 46.6861 288.066 47.3647C288.039 47.4868 288.005 47.5547 287.964 47.5683C287.924 47.5818 287.815 47.5954 287.638 47.609H287.353C287.272 47.5275 287.231 47.4529 287.231 47.385Z" fill="white"/>
<path d="M299.039 38.0204L299.12 38C299.188 38 299.256 38 299.324 38H299.568L300.138 38.4886C301.414 39.6422 302.344 41.0809 302.927 42.8045C303.511 44.5282 303.803 46.3197 303.803 48.179C303.803 49.1019 303.735 49.9909 303.599 50.8459C303.463 51.701 303.307 52.4271 303.131 53.0242C302.954 53.6214 302.703 54.2186 302.378 54.8157C302.052 55.4129 301.794 55.8676 301.604 56.1797C301.414 56.4919 301.136 56.838 300.769 57.218C300.403 57.598 300.186 57.8219 300.118 57.8898C300.05 57.9577 299.894 58.0866 299.65 58.2766C299.609 58.3173 299.582 58.3445 299.568 58.358H299.324C299.215 58.358 299.141 58.358 299.1 58.358C299.059 58.358 299.025 58.3377 298.998 58.297C298.971 58.2562 298.951 58.1952 298.937 58.1137C298.951 58.1002 299.025 58.0119 299.161 57.8491C301.265 55.664 302.316 52.4406 302.316 48.179C302.316 43.9174 301.265 40.6941 299.161 38.509C299.025 38.3461 298.951 38.2579 298.937 38.2443C298.937 38.1358 298.971 38.0611 299.039 38.0204Z" fill="white"/>
<path d="M312.512 46.7743C312.512 46.2178 312.627 45.7157 312.858 45.2678C313.089 44.8199 313.374 44.4738 313.713 44.2295C314.052 43.9852 314.385 43.7952 314.71 43.6595C315.036 43.5238 315.321 43.4559 315.565 43.4559C315.593 43.4559 315.647 43.4559 315.728 43.4559C315.81 43.4559 315.878 43.4492 315.932 43.4356C316.461 43.4356 316.957 43.5374 317.418 43.7409C317.879 43.9445 318.538 44.3178 319.393 44.8606L320.411 45.5121C321.211 45.9871 321.958 46.2246 322.65 46.2246C323.41 46.2246 324.061 46.0278 324.604 45.6342C325.147 45.2407 325.453 44.7046 325.52 44.026C325.52 43.8767 325.548 43.7409 325.602 43.6188C325.656 43.4967 325.724 43.4356 325.805 43.4356C325.995 43.4356 326.091 43.6459 326.091 44.0667C326.091 44.9624 325.772 45.736 325.134 46.3875C324.496 47.0389 323.681 47.3715 322.691 47.385C322.134 47.385 321.544 47.2425 320.92 46.9575C320.295 46.6725 319.752 46.3536 319.291 46.0007C318.829 45.6478 318.287 45.3289 317.662 45.0439C317.038 44.7588 316.468 44.6096 315.952 44.596C315.138 44.596 314.466 44.8199 313.937 45.2678C313.407 45.7157 313.122 46.2246 313.082 46.7946C313.055 47.1882 312.96 47.385 312.797 47.385C312.607 47.385 312.512 47.1815 312.512 46.7743ZM312.512 51.5381C312.512 50.9816 312.627 50.4794 312.858 50.0316C313.089 49.5837 313.374 49.2376 313.713 48.9933C314.052 48.749 314.385 48.559 314.71 48.4233C315.036 48.2876 315.321 48.2197 315.565 48.2197C315.593 48.2197 315.647 48.2197 315.728 48.2197C315.81 48.2197 315.878 48.2129 315.932 48.1994C316.461 48.1994 316.957 48.3011 317.418 48.5047C317.879 48.7083 318.538 49.0815 319.393 49.6244L320.411 50.2759C321.211 50.7509 321.958 50.9884 322.65 50.9884C323.41 50.9884 324.061 50.7916 324.604 50.398C325.147 50.0044 325.453 49.4683 325.52 48.7897C325.52 48.3961 325.615 48.1994 325.805 48.1994C325.995 48.1994 326.091 48.4165 326.091 48.8508C326.091 49.7194 325.772 50.4862 325.134 51.1513C324.496 51.8163 323.681 52.1488 322.691 52.1488C322.134 52.1488 321.544 52.0063 320.92 51.7213C320.295 51.4363 319.752 51.1173 319.291 50.7645C318.829 50.4116 318.287 50.0926 317.662 49.8076C317.038 49.5226 316.468 49.3733 315.952 49.3598C315.138 49.3598 314.466 49.5837 313.937 50.0316C313.407 50.4794 313.122 50.9884 313.082 51.5584C313.041 51.952 312.946 52.1488 312.797 52.1488C312.607 52.1488 312.512 51.9452 312.512 51.5381Z" fill="white"/>
<path d="M337.222 41.5016L336.958 41.6034C336.768 41.6713 336.496 41.7391 336.143 41.807C335.79 41.8749 335.397 41.9224 334.962 41.9495H334.576V41.013H334.962C335.6 40.9859 336.191 40.8841 336.734 40.7077C337.277 40.5312 337.657 40.3684 337.874 40.2191C338.091 40.0698 338.281 39.9205 338.444 39.7712C338.471 39.7305 338.552 39.7101 338.688 39.7101C338.81 39.7101 338.926 39.7508 339.034 39.8323V45.9193L339.054 52.0267C339.149 52.1217 339.231 52.1828 339.299 52.2099C339.367 52.2371 339.529 52.2642 339.787 52.2914C340.045 52.3185 340.466 52.3321 341.05 52.3321H341.579V53.2686H341.355C341.07 53.2278 339.991 53.2075 338.118 53.2075C336.272 53.2075 335.207 53.2278 334.922 53.2686H334.677V52.3321H335.207C335.505 52.3321 335.763 52.3321 335.98 52.3321C336.198 52.3321 336.367 52.3253 336.489 52.3117C336.611 52.2982 336.72 52.2778 336.815 52.2507C336.91 52.2235 336.964 52.2099 336.978 52.2099C336.991 52.2099 337.032 52.176 337.1 52.1081C337.168 52.0403 337.209 52.0131 337.222 52.0267V41.5016Z" fill="white"/>
<path d="M348.729 48.4437C348.729 48.4437 348.729 48.3554 348.729 48.179C348.729 48.0026 348.824 47.8669 349.014 47.7718H355.101V44.7181L355.121 41.6644C355.257 41.488 355.386 41.3998 355.508 41.3998C355.684 41.3998 355.82 41.5016 355.915 41.7052V47.7718H361.982C362.185 47.8804 362.287 48.0161 362.287 48.179C362.287 48.3419 362.185 48.4776 361.982 48.5862H355.915V54.6529C355.806 54.8429 355.684 54.9379 355.548 54.9379H355.508H355.467C355.304 54.9379 355.182 54.8429 355.101 54.6529V48.5862H349.014C348.824 48.4912 348.729 48.3554 348.729 48.179V48.4437Z" fill="white"/>
<path d="M368.643 50.0316C368.643 48.5523 369.227 47.2222 370.394 46.0415C371.561 44.8607 372.823 44.2703 374.18 44.2703C374.94 44.2703 375.538 44.4332 375.972 44.7589C376.406 45.0846 376.63 45.5122 376.644 46.0415C376.644 46.4351 376.515 46.7676 376.257 47.039C375.999 47.3105 375.673 47.453 375.28 47.4665C375.022 47.4665 374.818 47.3987 374.669 47.2629C374.52 47.1272 374.445 46.9236 374.445 46.6522C374.445 46.3808 374.52 46.15 374.669 45.96C374.818 45.77 374.968 45.6275 375.117 45.5325C375.266 45.4375 375.361 45.3968 375.402 45.4104H375.422C375.422 45.3832 375.382 45.3425 375.3 45.2882C375.219 45.2339 375.076 45.1796 374.873 45.1254C374.669 45.0711 374.438 45.0439 374.18 45.0439C373.773 45.0439 373.386 45.1389 373.02 45.3289C372.735 45.4511 372.443 45.6615 372.145 45.96C371.547 46.5572 371.113 47.3987 370.842 48.4844C370.57 49.5702 370.428 50.3574 370.414 50.846C370.414 51.4703 370.591 51.9385 370.944 52.2507C371.242 52.5764 371.636 52.7393 372.124 52.7393H372.206C373.726 52.7393 374.981 52.1624 375.972 51.0088C376.094 50.8731 376.176 50.8052 376.216 50.8052C376.271 50.8052 376.359 50.8663 376.481 50.9885C376.603 51.1106 376.671 51.2056 376.684 51.2735C376.698 51.3413 376.637 51.4431 376.501 51.5788C376.366 51.7146 376.169 51.9046 375.911 52.1489C375.653 52.3932 375.348 52.5967 374.995 52.7596C374.642 52.9225 374.208 53.0921 373.692 53.2686C373.176 53.445 372.633 53.5196 372.063 53.4925C371.045 53.4925 370.224 53.1668 369.6 52.5153C368.976 51.8639 368.657 51.036 368.643 50.0316Z" fill="#58C4DD"/>
<path d="M380.503 48.0031L380.316 48.075C380.182 48.123 379.99 48.171 379.741 48.2189C379.491 48.2669 379.213 48.3005 378.906 48.3197H378.632V47.6576H378.906C379.357 47.6384 379.774 47.5665 380.158 47.4417C380.542 47.317 380.81 47.2018 380.964 47.0963C381.118 46.9907 381.252 46.8852 381.367 46.7796C381.386 46.7509 381.444 46.7365 381.54 46.7365C381.626 46.7365 381.708 46.7652 381.784 46.8228V51.1264L381.799 55.4443C381.866 55.5115 381.924 55.5546 381.972 55.5738C382.02 55.593 382.135 55.6122 382.317 55.6314C382.499 55.6506 382.797 55.6602 383.209 55.6602H383.584V56.3223H383.425C383.224 56.2935 382.461 56.2791 381.137 56.2791C379.832 56.2791 379.079 56.2935 378.877 56.3223H378.704V55.6602H379.079C379.29 55.6602 379.472 55.6602 379.625 55.6602C379.779 55.6602 379.899 55.6554 379.985 55.6458C380.072 55.6362 380.148 55.6218 380.216 55.6026C380.283 55.5834 380.321 55.5738 380.331 55.5738C380.34 55.5738 380.369 55.5498 380.417 55.5019C380.465 55.4539 380.494 55.4347 380.503 55.4443V48.0031Z" fill="#58C4DD"/>
<path d="M386.713 47.385C386.808 46.815 387.174 46.1568 387.812 45.4103C388.45 44.6638 389.237 44.2838 390.174 44.2703C390.649 44.2703 391.083 44.3924 391.477 44.6367C391.87 44.881 392.162 45.1864 392.352 45.5528C392.922 44.6978 393.607 44.2703 394.408 44.2703C394.91 44.2703 395.345 44.4195 395.711 44.7181C396.077 45.0167 396.267 45.4171 396.281 45.9193C396.281 46.3128 396.186 46.6318 395.996 46.8761C395.806 47.1204 395.623 47.2697 395.446 47.324C395.27 47.3782 395.114 47.4054 394.978 47.4054C394.72 47.4054 394.51 47.3307 394.347 47.1815C394.184 47.0322 394.103 46.8354 394.103 46.5911C394.103 45.9668 394.442 45.5392 395.121 45.3085C394.971 45.1321 394.7 45.0439 394.306 45.0439C394.13 45.0439 394.001 45.0574 393.92 45.0846C393.404 45.3017 393.024 45.7496 392.779 46.4282C391.965 49.4276 391.558 51.1784 391.558 51.6806C391.558 52.0606 391.667 52.332 391.884 52.4949C392.101 52.6578 392.338 52.7392 392.596 52.7392C393.098 52.7392 393.594 52.5152 394.082 52.0674C394.571 51.6195 394.903 51.0698 395.08 50.4184C395.121 50.2827 395.161 50.208 395.202 50.1944C395.243 50.1809 395.351 50.1673 395.528 50.1537H395.609C395.813 50.1537 395.915 50.208 395.915 50.3166C395.915 50.3302 395.901 50.4048 395.874 50.5405C395.657 51.3141 395.236 51.9995 394.612 52.5967C393.987 53.1938 393.261 53.4924 392.433 53.4924C391.483 53.4924 390.764 53.0649 390.275 52.2099C389.719 53.0513 389.081 53.4721 388.362 53.4721H388.24C387.575 53.4721 387.1 53.2956 386.815 52.9428C386.53 52.5899 386.38 52.2167 386.367 51.8231C386.367 51.3888 386.496 51.0359 386.754 50.7645C387.011 50.493 387.317 50.3573 387.67 50.3573C388.253 50.3573 388.545 50.6423 388.545 51.2123C388.545 51.4838 388.464 51.7213 388.301 51.9249C388.138 52.1284 387.982 52.2642 387.832 52.332C387.683 52.3999 387.595 52.4338 387.568 52.4338L387.507 52.4542C387.507 52.4677 387.547 52.4949 387.629 52.5356C387.71 52.5763 387.819 52.6238 387.955 52.6781C388.09 52.7324 388.219 52.7528 388.341 52.7392C388.83 52.7392 389.251 52.4338 389.604 51.8231C389.726 51.6059 389.882 51.1445 390.072 50.4387C390.262 49.733 390.452 49.0001 390.642 48.2401C390.832 47.48 390.94 47.0322 390.968 46.8964C391.035 46.53 391.069 46.2653 391.069 46.1025C391.069 45.7225 390.968 45.451 390.764 45.2882C390.56 45.1253 390.33 45.0439 390.072 45.0439C389.529 45.0439 389.02 45.261 388.545 45.6953C388.07 46.1296 387.737 46.6861 387.547 47.3647C387.52 47.4868 387.486 47.5547 387.446 47.5683C387.405 47.5818 387.296 47.5954 387.12 47.609H386.835C386.754 47.5275 386.713 47.4529 386.713 47.385Z" fill="white"/>
</g>
</g>
<defs>
<clipPath id="clip0_646_5804">
<rect width="640.447" height="306.577" fill="white"/>
</clipPath>
<clipPath id="clip1_646_5804">
<rect width="146.313" height="20.358" fill="white" transform="translate(251 38)"/>
</clipPath>
</defs>
</svg>
