<svg width="641" height="307" viewBox="0 0 641 307" fill="none" xmlns="http://www.w3.org/2000/svg">
<g clip-path="url(#clip0_646_6104)">
<path d="M640.224 0.5H0.224121V306.077H640.224V0.5Z" fill="black"/>
<path d="M0.224121 5.59302H640.224" stroke="#181818" stroke-miterlimit="203.718"/>
<path d="M0.224121 10.686H640.224" stroke="#181818" stroke-miterlimit="203.718"/>
<path d="M0.224121 15.7791H640.224" stroke="#181818" stroke-miterlimit="203.718"/>
<path d="M0.224121 20.8721H640.224" stroke="#181818" stroke-miterlimit="203.718"/>
<path d="M0.224121 31.0581H640.224" stroke="#181818" stroke-miterlimit="203.718"/>
<path d="M0.224121 36.1511H640.224" stroke="#181818" stroke-miterlimit="203.718"/>
<path d="M0.224121 41.2441H640.224" stroke="#181818" stroke-miterlimit="203.718"/>
<path d="M0.224121 46.3369H640.224" stroke="#181818" stroke-miterlimit="203.718"/>
<path d="M0.224121 56.5229H640.224" stroke="#181818" stroke-miterlimit="203.718"/>
<path d="M0.224121 61.615H640.224" stroke="#181818" stroke-miterlimit="203.718"/>
<path d="M0.224121 66.708H640.224" stroke="#181818" stroke-miterlimit="203.718"/>
<path d="M0.224121 71.801H640.224" stroke="#181818" stroke-miterlimit="203.718"/>
<path d="M0.224121 81.9871H640.224" stroke="#181818" stroke-miterlimit="203.718"/>
<path d="M0.224121 87.0801H640.224" stroke="#181818" stroke-miterlimit="203.718"/>
<path d="M0.224121 92.1731H640.224" stroke="#181818" stroke-miterlimit="203.718"/>
<path d="M0.224121 97.2661H640.224" stroke="#181818" stroke-miterlimit="203.718"/>
<path d="M0.224121 107.452H640.224" stroke="#181818" stroke-miterlimit="203.718"/>
<path d="M0.224121 112.545H640.224" stroke="#181818" stroke-miterlimit="203.718"/>
<path d="M0.224121 117.638H640.224" stroke="#181818" stroke-miterlimit="203.718"/>
<path d="M0.224121 122.731H640.224" stroke="#181818" stroke-miterlimit="203.718"/>
<path d="M0.224121 132.917H640.224" stroke="#181818" stroke-miterlimit="203.718"/>
<path d="M0.224121 138.01H640.224" stroke="#181818" stroke-miterlimit="203.718"/>
<path d="M0.224121 143.103H640.224" stroke="#181818" stroke-miterlimit="203.718"/>
<path d="M0.224121 148.196H640.224" stroke="#181818" stroke-miterlimit="203.718"/>
<path d="M0.224121 158.382H640.224" stroke="#181818" stroke-miterlimit="203.718"/>
<path d="M0.224121 163.475H640.224" stroke="#181818" stroke-miterlimit="203.718"/>
<path d="M0.224121 168.568H640.224" stroke="#181818" stroke-miterlimit="203.718"/>
<path d="M0.224121 173.661H640.224" stroke="#181818" stroke-miterlimit="203.718"/>
<path d="M0.224121 183.846H640.224" stroke="#181818" stroke-miterlimit="203.718"/>
<path d="M0.224121 188.939H640.224" stroke="#181818" stroke-miterlimit="203.718"/>
<path d="M0.224121 194.032H640.224" stroke="#181818" stroke-miterlimit="203.718"/>
<path d="M0.224121 199.125H640.224" stroke="#181818" stroke-miterlimit="203.718"/>
<path d="M0.224121 209.311H640.224" stroke="#181818" stroke-miterlimit="203.718"/>
<path d="M0.224121 214.404H640.224" stroke="#181818" stroke-miterlimit="203.718"/>
<path d="M0.224121 219.497H640.224" stroke="#181818" stroke-miterlimit="203.718"/>
<path d="M0.224121 224.59H640.224" stroke="#181818" stroke-miterlimit="203.718"/>
<path d="M0.224121 234.776H640.224" stroke="#181818" stroke-miterlimit="203.718"/>
<path d="M0.224121 239.869H640.224" stroke="#181818" stroke-miterlimit="203.718"/>
<path d="M0.224121 244.962H640.224" stroke="#181818" stroke-miterlimit="203.718"/>
<path d="M0.224121 250.055H640.224" stroke="#181818" stroke-miterlimit="203.718"/>
<path d="M0.224121 260.241H640.224" stroke="#181818" stroke-miterlimit="203.718"/>
<path d="M0.224121 265.334H640.224" stroke="#181818" stroke-miterlimit="203.718"/>
<path d="M0.224121 270.427H640.224" stroke="#181818" stroke-miterlimit="203.718"/>
<path d="M0.224121 275.52H640.224" stroke="#181818" stroke-miterlimit="203.718"/>
<path d="M0.224121 285.706H640.224" stroke="#181818" stroke-miterlimit="203.718"/>
<path d="M0.224121 290.799H640.224" stroke="#181818" stroke-miterlimit="203.718"/>
<path d="M0.224121 295.892H640.224" stroke="#181818" stroke-miterlimit="203.718"/>
<path d="M0.224121 300.985H640.224" stroke="#181818" stroke-miterlimit="203.718"/>
<path d="M4.45996 0.5V306.077" stroke="#181818" stroke-miterlimit="203.718"/>
<path d="M9.55273 0.5V306.077" stroke="#181818" stroke-miterlimit="203.718"/>
<path d="M19.7388 0.5V306.077" stroke="#181818" stroke-miterlimit="203.718"/>
<path d="M24.832 0.5V306.077" stroke="#181818" stroke-miterlimit="203.718"/>
<path d="M29.9248 0.5V306.077" stroke="#181818" stroke-miterlimit="203.718"/>
<path d="M35.0181 0.5V306.077" stroke="#181818" stroke-miterlimit="203.718"/>
<path d="M45.2041 0.5V306.077" stroke="#181818" stroke-miterlimit="203.718"/>
<path d="M50.2969 0.5V306.077" stroke="#181818" stroke-miterlimit="203.718"/>
<path d="M55.3901 0.5V306.077" stroke="#181818" stroke-miterlimit="203.718"/>
<path d="M60.4829 0.5V306.077" stroke="#181818" stroke-miterlimit="203.718"/>
<path d="M70.6689 0.5V306.077" stroke="#181818" stroke-miterlimit="203.718"/>
<path d="M75.7617 0.5V306.077" stroke="#181818" stroke-miterlimit="203.718"/>
<path d="M80.855 0.5V306.077" stroke="#181818" stroke-miterlimit="203.718"/>
<path d="M85.9478 0.5V306.077" stroke="#181818" stroke-miterlimit="203.718"/>
<path d="M96.1328 0.5V306.077" stroke="#181818" stroke-miterlimit="203.718"/>
<path d="M101.226 0.5V306.077" stroke="#181818" stroke-miterlimit="203.718"/>
<path d="M106.319 0.5V306.077" stroke="#181818" stroke-miterlimit="203.718"/>
<path d="M111.412 0.5V306.077" stroke="#181818" stroke-miterlimit="203.718"/>
<path d="M121.598 0.5V306.077" stroke="#181818" stroke-miterlimit="203.718"/>
<path d="M126.691 0.5V306.077" stroke="#181818" stroke-miterlimit="203.718"/>
<path d="M131.784 0.5V306.077" stroke="#181818" stroke-miterlimit="203.718"/>
<path d="M136.877 0.5V306.077" stroke="#181818" stroke-miterlimit="203.718"/>
<path d="M147.063 0.5V306.077" stroke="#181818" stroke-miterlimit="203.718"/>
<path d="M152.156 0.5V306.077" stroke="#181818" stroke-miterlimit="203.718"/>
<path d="M157.249 0.5V306.077" stroke="#181818" stroke-miterlimit="203.718"/>
<path d="M162.342 0.5V306.077" stroke="#181818" stroke-miterlimit="203.718"/>
<path d="M172.528 0.5V306.077" stroke="#181818" stroke-miterlimit="203.718"/>
<path d="M177.621 0.5V306.077" stroke="#181818" stroke-miterlimit="203.718"/>
<path d="M182.714 0.5V306.077" stroke="#181818" stroke-miterlimit="203.718"/>
<path d="M187.807 0.5V306.077" stroke="#181818" stroke-miterlimit="203.718"/>
<path d="M197.993 0.5V306.077" stroke="#181818" stroke-miterlimit="203.718"/>
<path d="M203.086 0.5V306.077" stroke="#181818" stroke-miterlimit="203.718"/>
<path d="M208.179 0.5V306.077" stroke="#181818" stroke-miterlimit="203.718"/>
<path d="M213.271 0.5V306.077" stroke="#181818" stroke-miterlimit="203.718"/>
<path d="M223.457 0.5V306.077" stroke="#181818" stroke-miterlimit="203.718"/>
<path d="M228.55 0.5V306.077" stroke="#181818" stroke-miterlimit="203.718"/>
<path d="M233.643 0.5V306.077" stroke="#181818" stroke-miterlimit="203.718"/>
<path d="M238.736 0.5V306.077" stroke="#181818" stroke-miterlimit="203.718"/>
<path d="M248.922 0.5V306.077" stroke="#181818" stroke-miterlimit="203.718"/>
<path d="M254.015 0.5V306.077" stroke="#181818" stroke-miterlimit="203.718"/>
<path d="M259.108 0.5V306.077" stroke="#181818" stroke-miterlimit="203.718"/>
<path d="M264.201 0.5V306.077" stroke="#181818" stroke-miterlimit="203.718"/>
<path d="M274.387 0.5V306.077" stroke="#181818" stroke-miterlimit="203.718"/>
<path d="M279.48 0.5V306.077" stroke="#181818" stroke-miterlimit="203.718"/>
<path d="M284.573 0.5V306.077" stroke="#181818" stroke-miterlimit="203.718"/>
<path d="M289.666 0.5V306.077" stroke="#181818" stroke-miterlimit="203.718"/>
<path d="M299.852 0.5V306.077" stroke="#181818" stroke-miterlimit="203.718"/>
<path d="M304.945 0.5V306.077" stroke="#181818" stroke-miterlimit="203.718"/>
<path d="M310.038 0.5V306.077" stroke="#181818" stroke-miterlimit="203.718"/>
<path d="M315.131 0.5V306.077" stroke="#181818" stroke-miterlimit="203.718"/>
<path d="M325.317 0.5V306.077" stroke="#181818" stroke-miterlimit="203.718"/>
<path d="M330.41 0.5V306.077" stroke="#181818" stroke-miterlimit="203.718"/>
<path d="M335.502 0.5V306.077" stroke="#181818" stroke-miterlimit="203.718"/>
<path d="M340.595 0.5V306.077" stroke="#181818" stroke-miterlimit="203.718"/>
<path d="M350.781 0.5V306.077" stroke="#181818" stroke-miterlimit="203.718"/>
<path d="M355.874 0.5V306.077" stroke="#181818" stroke-miterlimit="203.718"/>
<path d="M360.967 0.5V306.077" stroke="#181818" stroke-miterlimit="203.718"/>
<path d="M366.06 0.5V306.077" stroke="#181818" stroke-miterlimit="203.718"/>
<path d="M376.246 0.5V306.077" stroke="#181818" stroke-miterlimit="203.718"/>
<path d="M381.339 0.5V306.077" stroke="#181818" stroke-miterlimit="203.718"/>
<path d="M386.432 0.5V306.077" stroke="#181818" stroke-miterlimit="203.718"/>
<path d="M391.525 0.5V306.077" stroke="#181818" stroke-miterlimit="203.718"/>
<path d="M401.711 0.5V306.077" stroke="#181818" stroke-miterlimit="203.718"/>
<path d="M406.804 0.5V306.077" stroke="#181818" stroke-miterlimit="203.718"/>
<path d="M411.897 0.5V306.077" stroke="#181818" stroke-miterlimit="203.718"/>
<path d="M416.99 0.5V306.077" stroke="#181818" stroke-miterlimit="203.718"/>
<path d="M427.176 0.5V306.077" stroke="#181818" stroke-miterlimit="203.718"/>
<path d="M432.269 0.5V306.077" stroke="#181818" stroke-miterlimit="203.718"/>
<path d="M437.362 0.5V306.077" stroke="#181818" stroke-miterlimit="203.718"/>
<path d="M442.455 0.5V306.077" stroke="#181818" stroke-miterlimit="203.718"/>
<path d="M452.641 0.5V306.077" stroke="#181818" stroke-miterlimit="203.718"/>
<path d="M457.733 0.5V306.077" stroke="#181818" stroke-miterlimit="203.718"/>
<path d="M462.826 0.5V306.077" stroke="#181818" stroke-miterlimit="203.718"/>
<path d="M467.919 0.5V306.077" stroke="#181818" stroke-miterlimit="203.718"/>
<path d="M478.105 0.5V306.077" stroke="#181818" stroke-miterlimit="203.718"/>
<path d="M483.198 0.5V306.077" stroke="#181818" stroke-miterlimit="203.718"/>
<path d="M488.291 0.5V306.077" stroke="#181818" stroke-miterlimit="203.718"/>
<path d="M493.384 0.5V306.077" stroke="#181818" stroke-miterlimit="203.718"/>
<path d="M503.57 0.5V306.077" stroke="#181818" stroke-miterlimit="203.718"/>
<path d="M508.663 0.5V306.077" stroke="#181818" stroke-miterlimit="203.718"/>
<path d="M513.756 0.5V306.077" stroke="#181818" stroke-miterlimit="203.718"/>
<path d="M518.849 0.5V306.077" stroke="#181818" stroke-miterlimit="203.718"/>
<path d="M529.035 0.5V306.077" stroke="#181818" stroke-miterlimit="203.718"/>
<path d="M534.128 0.5V306.077" stroke="#181818" stroke-miterlimit="203.718"/>
<path d="M539.221 0.5V306.077" stroke="#181818" stroke-miterlimit="203.718"/>
<path d="M544.314 0.5V306.077" stroke="#181818" stroke-miterlimit="203.718"/>
<path d="M554.5 0.5V306.077" stroke="#181818" stroke-miterlimit="203.718"/>
<path d="M559.593 0.5V306.077" stroke="#181818" stroke-miterlimit="203.718"/>
<path d="M564.686 0.5V306.077" stroke="#181818" stroke-miterlimit="203.718"/>
<path d="M569.779 0.5V306.077" stroke="#181818" stroke-miterlimit="203.718"/>
<path d="M579.964 0.5V306.077" stroke="#181818" stroke-miterlimit="203.718"/>
<path d="M585.057 0.5V306.077" stroke="#181818" stroke-miterlimit="203.718"/>
<path d="M590.15 0.5V306.077" stroke="#181818" stroke-miterlimit="203.718"/>
<path d="M595.243 0.5V306.077" stroke="#181818" stroke-miterlimit="203.718"/>
<path d="M605.429 0.5V306.077" stroke="#181818" stroke-miterlimit="203.718"/>
<path d="M610.522 0.5V306.077" stroke="#181818" stroke-miterlimit="203.718"/>
<path d="M615.615 0.5V306.077" stroke="#181818" stroke-miterlimit="203.718"/>
<path d="M620.708 0.5V306.077" stroke="#181818" stroke-miterlimit="203.718"/>
<path d="M630.894 0.5V306.077" stroke="#181818" stroke-miterlimit="203.718"/>
<path d="M635.987 0.5V306.077" stroke="#181818" stroke-miterlimit="203.718"/>
<path d="M0.224121 25.9651H640.224" stroke="#262626" stroke-miterlimit="203.718"/>
<path d="M0.224121 76.894H640.224" stroke="#262626" stroke-miterlimit="203.718"/>
<path d="M0.224121 127.824H640.224" stroke="#262626" stroke-miterlimit="203.718"/>
<path d="M0.224121 178.754H640.224" stroke="#262626" stroke-miterlimit="203.718"/>
<path d="M0.224121 229.683H640.224" stroke="#262626" stroke-miterlimit="203.718"/>
<path d="M0.224121 280.613H640.224" stroke="#262626" stroke-miterlimit="203.718"/>
<path d="M40.1113 0.5V306.077" stroke="#262626" stroke-miterlimit="203.718"/>
<path d="M91.0405 0.5V306.077" stroke="#262626" stroke-miterlimit="203.718"/>
<path d="M141.97 0.5V306.077" stroke="#262626" stroke-miterlimit="203.718"/>
<path d="M192.9 0.5V306.077" stroke="#262626" stroke-miterlimit="203.718"/>
<path d="M243.829 0.5V306.077" stroke="#262626" stroke-miterlimit="203.718"/>
<path d="M294.759 0.5V306.077" stroke="#262626" stroke-miterlimit="203.718"/>
<path d="M345.688 0.5V306.077" stroke="#262626" stroke-miterlimit="203.718"/>
<path d="M396.618 0.5V306.077" stroke="#262626" stroke-miterlimit="203.718"/>
<path d="M447.548 0.5V306.077" stroke="#262626" stroke-miterlimit="203.718"/>
<path d="M498.478 0.5V306.077" stroke="#262626" stroke-miterlimit="203.718"/>
<path d="M549.407 0.5V306.077" stroke="#262626" stroke-miterlimit="203.718"/>
<path d="M600.336 0.5V306.077" stroke="#262626" stroke-miterlimit="203.718"/>
<path d="M0.224121 0.5H640.224" stroke="#404040" stroke-miterlimit="203.718"/>
<path d="M0.224121 51.4299H640.224" stroke="#404040" stroke-miterlimit="203.718"/>
<path d="M0.224121 102.359H640.224" stroke="#404040" stroke-miterlimit="203.718"/>
<path d="M0.224121 153.289H640.224" stroke="#404040" stroke-miterlimit="203.718"/>
<path d="M0.224121 204.218H640.224" stroke="#404040" stroke-miterlimit="203.718"/>
<path d="M0.224121 255.148H640.224" stroke="#404040" stroke-miterlimit="203.718"/>
<path d="M0.224121 306.077H640.224" stroke="#404040" stroke-miterlimit="203.718"/>
<path d="M14.646 0.5V306.077" stroke="#404040" stroke-miterlimit="203.718"/>
<path d="M65.5762 0.5V306.077" stroke="#404040" stroke-miterlimit="203.718"/>
<path d="M116.505 0.5V306.077" stroke="#404040" stroke-miterlimit="203.718"/>
<path d="M167.435 0.5V306.077" stroke="#404040" stroke-miterlimit="203.718"/>
<path d="M218.364 0.5V306.077" stroke="#404040" stroke-miterlimit="203.718"/>
<path d="M269.294 0.5V306.077" stroke="#404040" stroke-miterlimit="203.718"/>
<path d="M320.224 0.5V306.077" stroke="#404040" stroke-miterlimit="203.718"/>
<path d="M371.153 0.5V306.077" stroke="#404040" stroke-miterlimit="203.718"/>
<path d="M422.083 0.5V306.077" stroke="#404040" stroke-miterlimit="203.718"/>
<path d="M473.012 0.5V306.077" stroke="#404040" stroke-miterlimit="203.718"/>
<path d="M523.942 0.5V306.077" stroke="#404040" stroke-miterlimit="203.718"/>
<path d="M574.872 0.5V306.077" stroke="#404040" stroke-miterlimit="203.718"/>
<path d="M625.801 0.5V306.077" stroke="#404040" stroke-miterlimit="203.718"/>
<path d="M0.224121 153.289H640.224" stroke="#F0F0F0" stroke-miterlimit="203.718"/>
<path d="M320.224 0.5V306.077" stroke="#F0F0F0" stroke-miterlimit="203.718"/>
<path d="M0.224121 102.359C62.5661 102.654 106.595 216.558 170.891 203.105C214.863 193.641 250.536 131.773 291.78 110.098C310.757 99.8319 329.692 99.8309 348.669 110.098C389.95 131.804 425.575 193.635 469.558 203.105C533.845 216.561 577.892 102.649 640.225 102.359" stroke="white" stroke-width="1.5" stroke-miterlimit="203.718"/>
<path d="M260.224 102.359H380.224" stroke="#58C4DD" stroke-width="1.5" stroke-miterlimit="203.718"/>
<circle cx="320.224" cy="102.359" r="3" fill="white"/>
<rect x="205.887" y="27.8735" width="211.103" height="49.0205" fill="black"/>
<g clip-path="url(#clip1_646_6104)">
<path d="M223.915 29.9411C223.928 29.9411 224.417 29.9072 225.381 29.8393C226.344 29.7714 226.84 29.7307 226.867 29.7171C227.03 29.7171 227.111 29.7714 227.111 29.88C227.111 29.975 226.616 32.0246 225.625 36.0287C224.634 40.0328 224.125 42.0756 224.098 42.1571C224.071 42.2385 224.064 42.3403 224.078 42.4625C224.078 43.0325 224.268 43.3176 224.648 43.3176C224.77 43.304 224.905 43.2429 225.055 43.1343C225.34 42.8629 225.618 42.2114 225.89 41.1798C225.971 40.9083 226.039 40.7658 226.093 40.7522C226.12 40.7387 226.188 40.7319 226.297 40.7319H226.378H226.46C226.663 40.7319 226.765 40.7862 226.765 40.8947C226.765 40.9626 226.745 41.0712 226.704 41.2205C226.527 41.8992 226.324 42.4489 226.093 42.8697C225.862 43.2904 225.672 43.5619 225.523 43.6841C225.374 43.8062 225.184 43.9148 224.953 44.0098C224.844 44.037 224.682 44.0505 224.464 44.0505C224.003 44.0505 223.616 43.9487 223.304 43.7451C222.992 43.5415 222.788 43.3312 222.693 43.114L222.571 42.8086C222.557 42.795 222.53 42.8018 222.489 42.8289C222.462 42.8561 222.435 42.8832 222.408 42.9104C221.607 43.6705 220.793 44.0505 219.965 44.0505C219.218 44.0505 218.56 43.7791 217.99 43.2361C217.42 42.6932 217.135 41.8313 217.135 40.6504C217.135 39.9989 217.27 39.3338 217.542 38.6552C217.813 37.9765 218.139 37.3928 218.519 36.9042C219.157 36.1305 219.795 35.5944 220.433 35.2958C221.071 34.9972 221.648 34.8478 222.164 34.8478C222.924 34.8478 223.494 35.1329 223.874 35.703C223.942 35.7844 223.976 35.8115 223.976 35.7844C223.989 35.7301 224.173 34.9904 224.525 33.5652C224.878 32.14 225.068 31.3867 225.096 31.3052C225.096 31.1288 225.048 31.0202 224.953 30.9795C224.858 30.9387 224.593 30.9048 224.159 30.8777H223.731C223.65 30.7962 223.609 30.7419 223.609 30.7148C223.609 30.6876 223.623 30.5587 223.65 30.3279C223.718 30.07 223.806 29.9411 223.915 29.9411ZM223.63 37.2096C223.317 36.1373 222.808 35.6012 222.103 35.6012C221.628 35.6012 221.173 35.8115 220.738 36.2323C220.304 36.6531 219.965 37.2028 219.72 37.8815C219.327 38.9538 219.049 40.0668 218.886 41.2205C218.886 41.2612 218.886 41.3359 218.886 41.4445C218.886 41.5531 218.879 41.6345 218.865 41.6888C218.865 42.2996 218.988 42.7204 219.232 42.9511C219.476 43.1818 219.768 43.304 220.107 43.3176C220.84 43.3176 221.594 42.8289 222.367 41.8517L222.53 41.6277L223.63 37.2096Z" fill="white"/>
<path d="M218.092 57.6713C218.105 57.6713 218.594 57.6374 219.558 57.5695C220.521 57.5017 221.017 57.4609 221.044 57.4474C221.207 57.4474 221.288 57.5017 221.288 57.6102C221.288 57.7053 220.793 59.7548 219.802 63.7589C218.811 67.7631 218.302 69.8058 218.275 69.8873C218.248 69.9687 218.241 70.0705 218.255 70.1927C218.255 70.7628 218.445 71.0478 218.825 71.0478C218.947 71.0342 219.083 70.9732 219.232 70.8646C219.517 70.5931 219.795 69.9416 220.067 68.91C220.148 68.6385 220.216 68.496 220.27 68.4825C220.298 68.4689 220.365 68.4621 220.474 68.4621H220.555H220.637C220.84 68.4621 220.942 68.5164 220.942 68.625C220.942 68.6928 220.922 68.8014 220.881 68.9507C220.705 69.6294 220.501 70.1791 220.27 70.5999C220.04 71.0207 219.85 71.2921 219.7 71.4143C219.551 71.5364 219.361 71.645 219.13 71.74C219.022 71.7672 218.859 71.7808 218.642 71.7808C218.18 71.7808 217.793 71.679 217.481 71.4754C217.169 71.2718 216.965 71.0614 216.87 70.8442L216.748 70.5388C216.735 70.5252 216.707 70.532 216.667 70.5592C216.64 70.5863 216.612 70.6135 216.585 70.6406C215.784 71.4007 214.97 71.7808 214.142 71.7808C213.396 71.7808 212.737 71.5093 212.167 70.9664C211.597 70.4234 211.312 69.5615 211.312 68.3807C211.312 67.7291 211.448 67.064 211.719 66.3854C211.991 65.7067 212.316 65.1231 212.696 64.6344C213.334 63.8607 213.972 63.3246 214.61 63.026C215.248 62.7274 215.825 62.5781 216.341 62.5781C217.101 62.5781 217.671 62.8631 218.051 63.4332C218.119 63.5146 218.153 63.5418 218.153 63.5146C218.167 63.4603 218.35 62.7206 218.703 61.2954C219.056 59.8702 219.246 59.1169 219.273 59.0354C219.273 58.859 219.225 58.7504 219.13 58.7097C219.035 58.669 218.771 58.635 218.336 58.6079H217.909C217.827 58.5264 217.786 58.4721 217.786 58.445C217.786 58.4179 217.8 58.2889 217.827 58.0582C217.895 57.8003 217.983 57.6713 218.092 57.6713ZM217.807 64.9398C217.495 63.8675 216.986 63.3314 216.28 63.3314C215.805 63.3314 215.35 63.5418 214.916 63.9625C214.481 64.3833 214.142 64.933 213.898 65.6117C213.504 66.684 213.226 67.797 213.063 68.9507C213.063 68.9914 213.063 69.0661 213.063 69.1747C213.063 69.2833 213.056 69.3647 213.043 69.419C213.043 70.0298 213.165 70.4506 213.409 70.6813C213.653 70.9121 213.945 71.0342 214.285 71.0478C215.018 71.0478 215.771 70.5592 216.545 69.5819L216.707 69.3579L217.807 64.9398Z" fill="white"/>
<path d="M222.286 65.693C222.381 65.123 222.748 64.4647 223.385 63.7181C224.023 62.9716 224.811 62.5915 225.747 62.578C226.222 62.578 226.657 62.7001 227.05 62.9445C227.444 63.1888 227.736 63.4942 227.926 63.8606C228.496 63.0055 229.181 62.578 229.982 62.578C230.484 62.578 230.919 62.7273 231.285 63.0259C231.652 63.3245 231.842 63.7249 231.855 64.2271C231.855 64.6208 231.76 64.9397 231.57 65.184C231.38 65.4284 231.197 65.5777 231.02 65.632C230.844 65.6863 230.688 65.7134 230.552 65.7134C230.294 65.7134 230.084 65.6387 229.921 65.4894C229.758 65.3401 229.677 65.1433 229.677 64.899C229.677 64.2746 230.016 63.8471 230.695 63.6163C230.545 63.4399 230.274 63.3516 229.88 63.3516C229.704 63.3516 229.575 63.3652 229.493 63.3924C228.978 63.6095 228.598 64.0575 228.353 64.7361C227.539 67.7358 227.132 69.4868 227.132 69.989C227.132 70.369 227.24 70.6405 227.457 70.8034C227.675 70.9663 227.912 71.0477 228.17 71.0477C228.672 71.0477 229.168 70.8237 229.656 70.3758C230.145 69.9279 230.478 69.3782 230.654 68.7267C230.695 68.5909 230.735 68.5163 230.776 68.5027C230.817 68.4891 230.925 68.4756 231.102 68.462H231.183C231.387 68.462 231.489 68.5163 231.489 68.6249C231.489 68.6384 231.475 68.7131 231.448 68.8488C231.231 69.6225 230.81 70.308 230.186 70.9052C229.561 71.5024 228.835 71.801 228.007 71.801C227.057 71.801 226.338 71.3735 225.849 70.5183C225.293 71.3599 224.655 71.7807 223.935 71.7807H223.813C223.148 71.7807 222.673 71.6042 222.388 71.2513C222.103 70.8984 221.954 70.5251 221.94 70.1315C221.94 69.6972 222.069 69.3443 222.327 69.0728C222.585 68.8013 222.89 68.6656 223.243 68.6656C223.827 68.6656 224.118 68.9506 224.118 69.5207C224.118 69.7922 224.037 70.0297 223.874 70.2333C223.711 70.4369 223.555 70.5726 223.406 70.6405C223.257 70.7084 223.168 70.7423 223.141 70.7423L223.08 70.7627C223.08 70.7762 223.121 70.8034 223.202 70.8441C223.284 70.8848 223.392 70.9323 223.528 70.9866C223.664 71.0409 223.793 71.0613 223.915 71.0477C224.403 71.0477 224.824 70.7423 225.177 70.1315C225.299 69.9143 225.455 69.4528 225.645 68.747C225.835 68.0412 226.026 67.3083 226.216 66.5482C226.406 65.7881 226.514 65.3401 226.541 65.2044C226.609 64.8379 226.643 64.5732 226.643 64.4104C226.643 64.0303 226.541 63.7588 226.338 63.596C226.134 63.4331 225.903 63.3516 225.645 63.3516C225.103 63.3516 224.594 63.5688 224.118 64.0032C223.643 64.4375 223.311 64.994 223.121 65.6727C223.094 65.7948 223.06 65.8627 223.019 65.8763C222.978 65.8899 222.87 65.9034 222.693 65.917H222.408C222.327 65.8356 222.286 65.7609 222.286 65.693Z" fill="white"/>
<path d="M234.909 53.1309H208.604V51.9093H234.909V53.1309Z" fill="white"/>
<path d="M239.266 52.5202C239.266 51.5837 239.334 50.6946 239.47 49.8531C239.605 49.0115 239.762 48.2854 239.938 47.6746C240.114 47.0638 240.366 46.4665 240.691 45.8829C241.017 45.2992 241.275 44.8445 241.465 44.5188C241.655 44.193 241.94 43.8401 242.32 43.4601C242.7 43.08 242.924 42.8493 242.992 42.7678C243.06 42.6864 243.23 42.5439 243.501 42.3403H243.766H243.847C244.037 42.3403 244.132 42.4013 244.132 42.5235C244.132 42.5642 244.017 42.7067 243.786 42.9511C243.555 43.1954 243.277 43.5551 242.951 44.0301C242.626 44.5052 242.293 45.0888 241.954 45.7811C241.614 46.4733 241.329 47.4099 241.099 48.5908C240.868 49.7716 240.752 51.0815 240.752 52.5202C240.752 53.959 240.868 55.262 241.099 56.4293C241.329 57.5966 241.608 58.54 241.933 59.2594C242.259 59.9787 242.592 60.5624 242.931 61.0103C243.27 61.4582 243.555 61.8179 243.786 62.0894C244.017 62.3609 244.132 62.5034 244.132 62.517C244.132 62.6391 244.03 62.7002 243.827 62.7002H243.766H243.501L242.931 62.2116C241.655 61.0578 240.725 59.6191 240.142 57.8952C239.558 56.1714 239.266 54.3798 239.266 52.5202Z" fill="white"/>
<path d="M252.805 51.4003C252.805 51.4003 252.663 51.4003 252.378 51.4003C252.093 51.4003 251.848 51.2985 251.645 51.095C251.441 50.8914 251.333 50.6335 251.319 50.3213C251.319 50.0091 251.421 49.7512 251.624 49.5476C251.692 49.4797 251.726 49.439 251.726 49.4254C251.726 49.4119 251.658 49.3983 251.523 49.3847C251.17 49.3304 250.837 49.3033 250.525 49.3033C249.86 49.3033 249.317 49.5204 248.896 49.9548C248.258 50.5927 247.939 51.6582 247.939 53.1513C247.939 54.2643 248.15 55.1398 248.57 55.7777C249.127 56.6057 249.873 57.0197 250.81 57.0197C251.367 57.0197 251.814 56.8432 252.154 56.4903C252.493 56.1374 252.737 55.7167 252.887 55.228C252.914 55.1194 252.948 55.0516 252.989 55.0244C253.029 54.9973 253.138 54.9837 253.314 54.9837H253.599C253.681 55.0651 253.721 55.1262 253.721 55.1669C253.721 55.2212 253.694 55.3298 253.64 55.4927C253.586 55.6556 253.477 55.8795 253.314 56.1646C253.151 56.4496 252.955 56.7075 252.724 56.9383C252.493 57.169 252.167 57.3794 251.747 57.5694C251.326 57.7594 250.858 57.8477 250.342 57.8341C249.174 57.8341 248.156 57.3997 247.288 56.5311C246.419 55.6624 245.978 54.5697 245.964 53.2531C245.964 51.8415 246.405 50.6945 247.288 49.8123C248.17 48.93 249.195 48.4889 250.362 48.4889C251.529 48.4889 252.344 48.6721 252.805 49.0386C253.267 49.4051 253.498 49.8394 253.498 50.3416C253.498 50.6538 253.382 50.9049 253.151 51.095L252.805 51.4003Z" fill="white"/>
<path d="M254.882 53.2531C254.882 51.9636 255.323 50.8506 256.205 49.9141C257.087 48.9775 258.153 48.5024 259.402 48.4889C260.623 48.4889 261.675 48.9504 262.558 49.8733C263.44 50.7963 263.888 51.9161 263.901 53.2327C263.901 54.5222 263.467 55.6081 262.598 56.4903C261.73 57.3726 260.664 57.8137 259.402 57.8137C258.085 57.8137 257.006 57.359 256.165 56.4496C255.323 55.5402 254.895 54.4747 254.882 53.2531ZM259.402 56.9993C261.058 56.9993 261.886 55.8931 261.886 53.6807V53.0291V52.5201C261.886 52.2215 261.879 51.9636 261.865 51.7465C261.852 51.5293 261.804 51.2714 261.723 50.9728C261.641 50.6742 261.533 50.4298 261.397 50.2398C261.261 50.0498 261.051 49.8598 260.766 49.6697C260.481 49.4797 260.148 49.344 259.768 49.2625C259.7 49.249 259.592 49.2422 259.442 49.2422C259.035 49.2422 258.648 49.3236 258.282 49.4865C257.698 49.7851 257.318 50.1991 257.142 50.7285C256.965 51.2578 256.877 51.8822 256.877 52.6016V53.0088C256.877 54.3118 257.006 55.228 257.264 55.7574C257.698 56.5853 258.411 56.9993 259.402 56.9993Z" fill="white"/>
<path d="M270.498 51.1763C270.498 50.6334 270.315 50.1651 269.948 49.7714C269.582 49.3778 269.052 49.181 268.36 49.181C267.871 49.181 267.451 49.2692 267.098 49.4457C266.691 49.7036 266.487 50.0565 266.487 50.5044C266.473 50.5723 266.473 50.6605 266.487 50.7691C266.501 50.8777 266.609 51.0406 266.813 51.2577C267.016 51.4749 267.308 51.6446 267.688 51.7667C267.933 51.8346 268.231 51.8957 268.584 51.95C268.937 52.0043 269.236 52.0653 269.48 52.1332C269.724 52.2011 269.941 52.2893 270.131 52.3979C270.362 52.5065 270.586 52.6422 270.803 52.8051C271.02 52.968 271.238 53.2462 271.455 53.6398C271.672 54.0335 271.787 54.4542 271.801 54.9022C271.801 55.7437 271.543 56.4359 271.027 56.9789C270.511 57.5218 269.677 57.8001 268.523 57.8136H268.36C267.654 57.8136 267.003 57.5693 266.406 57.0807L266.243 57.2232L266.059 57.4064C265.978 57.4879 265.897 57.5625 265.815 57.6304L265.591 57.834H265.428H265.347C265.306 57.834 265.245 57.7933 265.164 57.7118V56.1034V54.9225C265.164 54.6375 265.177 54.4678 265.204 54.4135C265.231 54.3592 265.299 54.3253 265.408 54.3117H265.591C265.754 54.3117 265.863 54.3389 265.917 54.3932C265.971 54.4474 266.005 54.5289 266.019 54.6375C266.032 54.7461 266.08 54.9293 266.161 55.1872C266.243 55.4451 266.372 55.7301 266.548 56.0423C267.023 56.7345 267.681 57.0807 268.523 57.0807C269.84 57.0807 270.498 56.5513 270.498 55.4926C270.498 55.099 270.376 54.78 270.131 54.5357C269.86 54.2099 269.297 53.9656 268.442 53.8027C267.586 53.6398 267.023 53.4837 266.752 53.3344C266.263 53.1037 265.876 52.7915 265.591 52.3979C265.306 52.0043 265.164 51.5835 265.164 51.1356C265.164 50.6062 265.279 50.1583 265.51 49.7918C265.74 49.4253 266.032 49.1539 266.385 48.9774C266.738 48.801 267.077 48.6788 267.403 48.6109C267.729 48.5431 268.028 48.5091 268.299 48.5091H268.523C269.066 48.5091 269.541 48.6109 269.948 48.8145L270.254 48.9774L270.437 48.8349C270.573 48.7127 270.722 48.5974 270.885 48.4888H271.048H271.129C271.17 48.4888 271.231 48.5295 271.312 48.6109V51.2984L271.19 51.4206H270.62C270.539 51.3392 270.498 51.2577 270.498 51.1763Z" fill="white"/>
<path d="M274.428 52.5202C274.428 51.5837 274.496 50.6946 274.631 49.8531C274.767 49.0115 274.923 48.2854 275.1 47.6746C275.276 47.0638 275.527 46.4665 275.853 45.8829C276.179 45.2992 276.437 44.8445 276.627 44.5188C276.817 44.193 277.102 43.8401 277.482 43.4601C277.862 43.08 278.086 42.8493 278.154 42.7678C278.221 42.6864 278.391 42.5439 278.663 42.3403H278.927H279.009C279.199 42.3403 279.294 42.4013 279.294 42.5235C279.294 42.5642 279.178 42.7067 278.948 42.9511C278.717 43.1954 278.439 43.5551 278.113 44.0301C277.787 44.5052 277.455 45.0888 277.115 45.7811C276.776 46.4733 276.491 47.4099 276.26 48.5908C276.029 49.7716 275.914 51.0815 275.914 52.5202C275.914 53.959 276.029 55.262 276.26 56.4293C276.491 57.5966 276.769 58.54 277.095 59.2594C277.421 59.9787 277.753 60.5624 278.093 61.0103C278.432 61.4582 278.717 61.8179 278.948 62.0894C279.178 62.3609 279.294 62.5034 279.294 62.517C279.294 62.6391 279.192 62.7002 278.988 62.7002H278.927H278.663L278.093 62.2116C276.817 61.0578 275.887 59.6191 275.303 57.8952C274.72 56.1714 274.428 54.3798 274.428 52.5202Z" fill="white"/>
<path d="M281.493 51.726C281.588 51.1559 281.954 50.4976 282.592 49.7511C283.23 49.0046 284.017 48.6245 284.954 48.6109C285.429 48.6109 285.863 48.7331 286.257 48.9774C286.65 49.2217 286.942 49.5271 287.132 49.8936C287.702 49.0385 288.388 48.6109 289.189 48.6109C289.691 48.6109 290.125 48.7602 290.492 49.0588C290.858 49.3575 291.048 49.7579 291.062 50.2601C291.062 50.6537 290.967 50.9727 290.777 51.217C290.587 51.4613 290.403 51.6106 290.227 51.6649C290.051 51.7192 289.894 51.7464 289.759 51.7464C289.501 51.7464 289.29 51.6717 289.128 51.5224C288.965 51.3731 288.883 51.1763 288.883 50.932C288.883 50.3076 289.223 49.88 289.901 49.6493C289.752 49.4728 289.48 49.3846 289.087 49.3846C288.91 49.3846 288.781 49.3982 288.7 49.4253C288.184 49.6425 287.804 50.0904 287.56 50.7691C286.745 53.7688 286.338 55.5197 286.338 56.0219C286.338 56.402 286.447 56.6735 286.664 56.8363C286.881 56.9992 287.119 57.0807 287.377 57.0807C287.879 57.0807 288.374 56.8567 288.863 56.4088C289.352 55.9609 289.684 55.4112 289.861 54.7596C289.901 54.6239 289.942 54.5492 289.983 54.5357C290.023 54.5221 290.132 54.5085 290.308 54.495H290.39C290.593 54.495 290.695 54.5492 290.695 54.6578C290.695 54.6714 290.682 54.7461 290.655 54.8818C290.437 55.6555 290.017 56.3409 289.392 56.9381C288.768 57.5354 288.042 57.834 287.214 57.834C286.264 57.834 285.544 57.4064 285.056 56.5513C284.499 57.3929 283.861 57.8136 283.142 57.8136H283.02C282.355 57.8136 281.879 57.6372 281.594 57.2843C281.309 56.9314 281.16 56.5581 281.146 56.1645C281.146 55.7301 281.275 55.3772 281.533 55.1058C281.791 54.8343 282.097 54.6986 282.45 54.6986C283.033 54.6986 283.325 54.9836 283.325 55.5537C283.325 55.8251 283.244 56.0627 283.081 56.2663C282.918 56.4699 282.762 56.6056 282.612 56.6735C282.463 56.7413 282.375 56.7753 282.348 56.7753L282.287 56.7956C282.287 56.8092 282.327 56.8363 282.409 56.8771C282.49 56.9178 282.599 56.9653 282.735 57.0196C282.87 57.0739 282.999 57.0942 283.121 57.0807C283.61 57.0807 284.031 56.7753 284.384 56.1645C284.506 55.9473 284.662 55.4858 284.852 54.78C285.042 54.0742 285.232 53.3412 285.422 52.5811C285.612 51.821 285.721 51.3731 285.748 51.2374C285.816 50.8709 285.85 50.6062 285.85 50.4433C285.85 50.0633 285.748 49.7918 285.544 49.6289C285.341 49.466 285.11 49.3846 284.852 49.3846C284.309 49.3846 283.8 49.6018 283.325 50.0361C282.85 50.4705 282.517 51.027 282.327 51.7056C282.3 51.8278 282.266 51.8957 282.226 51.9092C282.185 51.9228 282.076 51.9364 281.9 51.95H281.615C281.533 51.8685 281.493 51.7939 281.493 51.726Z" fill="white"/>
<path d="M293.302 42.3606L293.383 42.3403C293.451 42.3403 293.519 42.3403 293.587 42.3403H293.831L294.401 42.8289C295.677 43.9826 296.607 45.4214 297.19 47.1452C297.774 48.869 298.066 50.6607 298.066 52.5202C298.066 53.4432 297.998 54.3323 297.862 55.1874C297.726 56.0425 297.57 56.7687 297.394 57.3659C297.217 57.9631 296.966 58.5603 296.641 59.1576C296.315 59.7548 296.057 60.2095 295.867 60.5217C295.677 60.8339 295.399 61.18 295.032 61.56C294.666 61.9401 294.448 62.1641 294.381 62.2319C294.313 62.2998 294.157 62.4287 293.912 62.6188C293.872 62.6595 293.844 62.6866 293.831 62.7002H293.587C293.478 62.7002 293.403 62.7002 293.363 62.7002C293.322 62.7002 293.288 62.6798 293.261 62.6391C293.234 62.5984 293.213 62.5373 293.2 62.4559C293.213 62.4423 293.288 62.3541 293.424 62.1912C295.528 60.0059 296.579 56.7822 296.579 52.5202C296.579 48.2582 295.528 45.0346 293.424 42.8493C293.288 42.6864 293.213 42.5981 293.2 42.5846C293.2 42.476 293.234 42.4013 293.302 42.3606Z" fill="white"/>
<path d="M301.221 42.3606L301.303 42.3403C301.371 42.3403 301.439 42.3403 301.506 42.3403H301.751L302.321 42.8289C303.597 43.9826 304.527 45.4214 305.11 47.1452C305.694 48.869 305.986 50.6607 305.986 52.5202C305.986 53.4432 305.918 54.3323 305.782 55.1874C305.646 56.0425 305.49 56.7687 305.314 57.3659C305.137 57.9631 304.886 58.5603 304.56 59.1576C304.235 59.7548 303.977 60.2095 303.787 60.5217C303.597 60.8339 303.319 61.18 302.952 61.56C302.586 61.9401 302.368 62.1641 302.301 62.2319C302.233 62.2998 302.077 62.4287 301.832 62.6188C301.792 62.6595 301.764 62.6866 301.751 62.7002H301.506C301.398 62.7002 301.323 62.7002 301.283 62.7002C301.242 62.7002 301.208 62.6798 301.181 62.6391C301.154 62.5984 301.133 62.5373 301.12 62.4559C301.133 62.4423 301.208 62.3541 301.344 62.1912C303.447 60.0059 304.499 56.7822 304.499 52.5202C304.499 48.2582 303.447 45.0346 301.344 42.8493C301.208 42.6864 301.133 42.5981 301.12 42.5846C301.12 42.476 301.154 42.4013 301.221 42.3606Z" fill="white"/>
<path d="M314.716 50.5453C314.716 50.3689 314.811 50.2331 315.001 50.1381H327.97C328.174 50.2467 328.276 50.3824 328.276 50.5453C328.276 50.6946 328.181 50.8236 327.991 50.9322L321.516 50.9525H315.042C314.824 50.8846 314.716 50.7489 314.716 50.5453ZM314.716 54.4951C314.716 54.2915 314.824 54.1558 315.042 54.0879H327.991C328.181 54.2237 328.276 54.3594 328.276 54.4951C328.276 54.6716 328.174 54.8073 327.97 54.9023H315.001C314.811 54.8073 314.716 54.6716 314.716 54.4951Z" fill="white"/>
<path d="M336.782 52.7847C336.782 52.7847 336.782 52.6965 336.782 52.52C336.782 52.3436 336.877 52.2079 337.067 52.1128H348.896C349.1 52.2214 349.202 52.3572 349.202 52.52C349.202 52.6829 349.1 52.8187 348.896 52.9272H337.067C336.877 52.8322 336.782 52.6965 336.782 52.52V52.7847Z" fill="white"/>
<path d="M360.31 51.1763C360.31 50.6334 360.127 50.1651 359.76 49.7714C359.394 49.3778 358.864 49.181 358.172 49.181C357.683 49.181 357.263 49.2692 356.91 49.4457C356.503 49.7036 356.299 50.0565 356.299 50.5044C356.285 50.5723 356.285 50.6605 356.299 50.7691C356.313 50.8777 356.421 51.0406 356.625 51.2577C356.828 51.4749 357.12 51.6446 357.5 51.7667C357.745 51.8346 358.043 51.8957 358.396 51.95C358.749 52.0043 359.048 52.0653 359.292 52.1332C359.536 52.2011 359.753 52.2893 359.943 52.3979C360.174 52.5065 360.398 52.6422 360.615 52.8051C360.832 52.968 361.05 53.2462 361.267 53.6398C361.484 54.0335 361.599 54.4542 361.613 54.9022C361.613 55.7437 361.355 56.4359 360.839 56.9789C360.323 57.5218 359.489 57.8001 358.335 57.8136H358.172C357.466 57.8136 356.815 57.5693 356.218 57.0807L356.055 57.2232L355.871 57.4064C355.79 57.4879 355.709 57.5625 355.627 57.6304L355.403 57.834H355.24H355.159C355.118 57.834 355.057 57.7933 354.976 57.7118V56.1034V54.9225C354.976 54.6375 354.989 54.4678 355.016 54.4135C355.043 54.3592 355.111 54.3253 355.22 54.3117H355.403C355.566 54.3117 355.675 54.3389 355.729 54.3932C355.783 54.4474 355.817 54.5289 355.831 54.6375C355.844 54.7461 355.892 54.9293 355.973 55.1872C356.055 55.4451 356.184 55.7301 356.36 56.0423C356.835 56.7345 357.493 57.0807 358.335 57.0807C359.652 57.0807 360.31 56.5513 360.31 55.4926C360.31 55.099 360.188 54.78 359.943 54.5357C359.672 54.2099 359.109 53.9656 358.254 53.8027C357.398 53.6398 356.835 53.4837 356.564 53.3344C356.075 53.1037 355.688 52.7915 355.403 52.3979C355.118 52.0043 354.976 51.5835 354.976 51.1356C354.976 50.6062 355.091 50.1583 355.322 49.7918C355.552 49.4253 355.844 49.1539 356.197 48.9774C356.55 48.801 356.889 48.6788 357.215 48.6109C357.541 48.5431 357.84 48.5091 358.111 48.5091H358.335C358.878 48.5091 359.353 48.6109 359.76 48.8145L360.066 48.9774L360.249 48.8349C360.385 48.7127 360.534 48.5974 360.697 48.4888H360.86H360.941C360.982 48.4888 361.043 48.5295 361.124 48.6109V51.2984L361.002 51.4206H360.432C360.351 51.3392 360.31 51.2577 360.31 51.1763Z" fill="white"/>
<path d="M363.73 45.2109C363.73 44.8309 363.853 44.5322 364.097 44.3151C364.341 44.0979 364.64 43.9893 364.993 43.9893C365.305 44.0165 365.576 44.1318 365.807 44.3354C366.038 44.539 366.153 44.8309 366.153 45.2109C366.153 45.6181 366.038 45.9235 365.807 46.1271C365.576 46.3307 365.291 46.4325 364.952 46.4325C364.613 46.4325 364.328 46.3307 364.097 46.1271C363.866 45.9235 363.744 45.6181 363.73 45.2109ZM367.355 57.6101C367.151 57.5694 366.445 57.549 365.237 57.549C365.088 57.549 364.837 57.549 364.484 57.549C364.131 57.549 363.792 57.5626 363.466 57.5897L363.018 57.6101H362.855V56.6736H363.181C363.561 56.6736 363.893 56.6532 364.178 56.6125C364.301 56.5582 364.375 56.4835 364.402 56.3885C364.429 56.2935 364.443 56.0085 364.443 55.5334V53.4363V51.6446C364.443 50.9388 364.429 50.4909 364.402 50.3009C364.375 50.1109 364.28 49.9819 364.117 49.914C363.927 49.819 363.608 49.7715 363.16 49.7715H362.936V49.3033C362.936 48.9911 362.95 48.835 362.977 48.835L363.181 48.8146C363.316 48.801 363.506 48.7875 363.751 48.7739C363.995 48.7603 364.239 48.7467 364.484 48.7332C364.715 48.7196 364.959 48.706 365.217 48.6925C365.475 48.6789 365.671 48.6585 365.807 48.6314C365.943 48.6042 366.018 48.5974 366.031 48.611H366.092V56.3478C366.16 56.4835 366.242 56.565 366.337 56.5921C366.432 56.6193 366.669 56.6464 367.049 56.6736H367.517V57.6101H367.355Z" fill="white"/>
<path d="M368.82 56.6736H369.105C369.635 56.6736 369.954 56.5785 370.062 56.3885V56.2256C370.062 56.1035 370.062 55.9474 370.062 55.7574C370.062 55.5673 370.062 55.3569 370.062 55.1262C370.062 54.8954 370.069 54.6308 370.083 54.3322C370.096 54.0335 370.096 53.7485 370.083 53.477C370.083 53.0563 370.083 52.6083 370.083 52.1333C370.083 51.6582 370.076 51.2578 370.062 50.932V50.4638C370.022 50.2059 369.927 50.0362 369.777 49.9548C369.628 49.8733 369.323 49.8123 368.861 49.7715H368.495V49.3033C368.495 48.9911 368.508 48.835 368.535 48.835L368.739 48.8146C368.875 48.801 369.065 48.7875 369.309 48.7739C369.553 48.7603 369.804 48.7467 370.062 48.7332C370.293 48.7196 370.537 48.706 370.795 48.6925C371.053 48.6789 371.25 48.6585 371.386 48.6314C371.521 48.6042 371.596 48.5974 371.61 48.611H371.671V49.4254C371.671 49.9412 371.678 50.1991 371.691 50.1991C371.705 50.1991 371.739 50.1652 371.793 50.0973C371.847 50.0294 371.929 49.9276 372.037 49.7919C372.146 49.6562 372.275 49.534 372.424 49.4254C372.573 49.3168 372.77 49.1879 373.015 49.0386C373.259 48.8893 373.517 48.7807 373.788 48.7128C374.06 48.6449 374.406 48.611 374.827 48.611C376.374 48.6653 377.236 49.4322 377.412 50.9117C377.426 51.0067 377.433 51.95 377.433 53.7417V55.4927C377.433 56.0085 377.446 56.3139 377.473 56.4089C377.501 56.5039 377.575 56.5718 377.697 56.6125C377.982 56.6532 378.315 56.6736 378.695 56.6736H379.021V57.6101H378.858L378.369 57.5897C378.057 57.5762 377.718 57.5694 377.351 57.5694C376.985 57.5694 376.727 57.5626 376.578 57.549C375.179 57.549 374.419 57.5694 374.297 57.6101H374.134V56.6736H374.46C375.288 56.6736 375.702 56.565 375.702 56.3478C375.716 56.3206 375.722 55.3841 375.722 53.5381C375.709 51.7057 375.695 50.7352 375.682 50.6266C375.6 50.2466 375.465 49.9616 375.274 49.7715C375.084 49.5815 374.922 49.4661 374.786 49.4254C374.65 49.3847 374.474 49.3711 374.256 49.3847C373.646 49.3847 373.11 49.6154 372.648 50.0769C372.282 50.4434 372.051 50.8167 371.956 51.1967C371.861 51.5768 371.807 52.1401 371.793 52.8866V54.1896V55.4112C371.793 55.8184 371.8 56.0899 371.813 56.2256C371.827 56.3614 371.847 56.4496 371.874 56.4903C371.902 56.531 371.963 56.5718 372.058 56.6125C372.343 56.6532 372.675 56.6736 373.055 56.6736H373.381V57.6101H373.218L372.75 57.5897C372.424 57.5762 372.078 57.5694 371.711 57.5694C371.345 57.5694 371.087 57.5626 370.938 57.549C369.54 57.549 368.78 57.5694 368.658 57.6101H368.495V56.6736H368.82Z" fill="white"/>
<path d="M381.22 52.5202C381.22 51.5837 381.288 50.6946 381.423 49.8531C381.559 49.0115 381.715 48.2854 381.892 47.6746C382.068 47.0638 382.319 46.4665 382.645 45.8829C382.971 45.2992 383.229 44.8445 383.419 44.5188C383.609 44.193 383.894 43.8401 384.274 43.4601C384.654 43.08 384.878 42.8493 384.946 42.7678C385.013 42.6864 385.183 42.5439 385.455 42.3403H385.719H385.801C385.991 42.3403 386.086 42.4013 386.086 42.5235C386.086 42.5642 385.97 42.7067 385.74 42.9511C385.509 43.1954 385.231 43.5551 384.905 44.0301C384.579 44.5052 384.247 45.0888 383.907 45.7811C383.568 46.4733 383.283 47.4099 383.052 48.5908C382.821 49.7716 382.706 51.0815 382.706 52.5202C382.706 53.959 382.821 55.262 383.052 56.4293C383.283 57.5966 383.561 58.54 383.887 59.2594C384.213 59.9787 384.545 60.5624 384.885 61.0103C385.224 61.4582 385.509 61.8179 385.74 62.0894C385.97 62.3609 386.086 62.5034 386.086 62.517C386.086 62.6391 385.984 62.7002 385.78 62.7002H385.719H385.455L384.885 62.2116C383.609 61.0578 382.679 59.6191 382.095 57.8952C381.512 56.1714 381.22 54.3798 381.22 52.5202Z" fill="white"/>
<path d="M388.285 51.726C388.38 51.1559 388.746 50.4976 389.384 49.7511C390.022 49.0046 390.809 48.6245 391.746 48.6109C392.221 48.6109 392.655 48.7331 393.049 48.9774C393.442 49.2217 393.734 49.5271 393.924 49.8936C394.494 49.0385 395.18 48.6109 395.981 48.6109C396.483 48.6109 396.917 48.7602 397.284 49.0588C397.65 49.3575 397.84 49.7579 397.854 50.2601C397.854 50.6537 397.759 50.9727 397.569 51.217C397.379 51.4613 397.195 51.6106 397.019 51.6649C396.843 51.7192 396.686 51.7464 396.551 51.7464C396.293 51.7464 396.082 51.6717 395.92 51.5224C395.757 51.3731 395.675 51.1763 395.675 50.932C395.675 50.3076 396.015 49.88 396.693 49.6493C396.544 49.4728 396.272 49.3846 395.879 49.3846C395.702 49.3846 395.573 49.3982 395.492 49.4253C394.976 49.6425 394.596 50.0904 394.352 50.7691C393.537 53.7688 393.13 55.5197 393.13 56.0219C393.13 56.402 393.239 56.6735 393.456 56.8363C393.673 56.9992 393.911 57.0807 394.169 57.0807C394.671 57.0807 395.166 56.8567 395.655 56.4088C396.144 55.9609 396.476 55.4112 396.653 54.7596C396.693 54.6239 396.734 54.5492 396.775 54.5357C396.815 54.5221 396.924 54.5085 397.1 54.495H397.182C397.385 54.495 397.487 54.5492 397.487 54.6578C397.487 54.6714 397.474 54.7461 397.447 54.8818C397.229 55.6555 396.809 56.3409 396.184 56.9381C395.56 57.5354 394.834 57.834 394.006 57.834C393.056 57.834 392.336 57.4064 391.848 56.5513C391.291 57.3929 390.653 57.8136 389.934 57.8136H389.812C389.146 57.8136 388.671 57.6372 388.386 57.2843C388.101 56.9314 387.952 56.5581 387.938 56.1645C387.938 55.7301 388.067 55.3772 388.325 55.1058C388.583 54.8343 388.889 54.6986 389.242 54.6986C389.825 54.6986 390.117 54.9836 390.117 55.5537C390.117 55.8251 390.036 56.0627 389.873 56.2663C389.71 56.4699 389.554 56.6056 389.404 56.6735C389.255 56.7413 389.167 56.7753 389.14 56.7753L389.079 56.7956C389.079 56.8092 389.119 56.8363 389.201 56.8771C389.282 56.9178 389.391 56.9653 389.527 57.0196C389.662 57.0739 389.791 57.0942 389.913 57.0807C390.402 57.0807 390.823 56.7753 391.176 56.1645C391.298 55.9473 391.454 55.4858 391.644 54.78C391.834 54.0742 392.024 53.3412 392.214 52.5811C392.404 51.821 392.513 51.3731 392.54 51.2374C392.608 50.8709 392.642 50.6062 392.642 50.4433C392.642 50.0633 392.54 49.7918 392.336 49.6289C392.133 49.466 391.902 49.3846 391.644 49.3846C391.101 49.3846 390.592 49.6018 390.117 50.0361C389.642 50.4705 389.309 51.027 389.119 51.7056C389.092 51.8278 389.058 51.8957 389.018 51.9092C388.977 51.9228 388.868 51.9364 388.692 51.95H388.407C388.325 51.8685 388.285 51.7939 388.285 51.726Z" fill="white"/>
<path d="M400.093 42.3606L400.175 42.3403C400.243 42.3403 400.311 42.3403 400.379 42.3403H400.623L401.193 42.8289C402.469 43.9826 403.399 45.4214 403.982 47.1452C404.566 48.869 404.858 50.6607 404.858 52.5202C404.858 53.4432 404.79 54.3323 404.654 55.1874C404.518 56.0425 404.362 56.7687 404.186 57.3659C404.009 57.9631 403.758 58.5603 403.433 59.1576C403.107 59.7548 402.849 60.2095 402.659 60.5217C402.469 60.8339 402.191 61.18 401.824 61.56C401.458 61.9401 401.24 62.1641 401.173 62.2319C401.105 62.2998 400.949 62.4287 400.704 62.6188C400.664 62.6595 400.636 62.6866 400.623 62.7002H400.379C400.27 62.7002 400.195 62.7002 400.155 62.7002C400.114 62.7002 400.08 62.6798 400.053 62.6391C400.026 62.5984 400.005 62.5373 399.992 62.4559C400.005 62.4423 400.08 62.3541 400.216 62.1912C402.32 60.0059 403.371 56.7822 403.371 52.5202C403.371 48.2582 402.32 45.0346 400.216 42.8493C400.08 42.6864 400.005 42.5981 399.992 42.5846C399.992 42.476 400.026 42.4013 400.093 42.3606Z" fill="white"/>
</g>
<rect x="119.812" y="233.745" width="413.961" height="56.3258" fill="black"/>
<path d="M132.622 256.438C132.172 256.438 131.932 256.178 131.962 255.628C132.172 252.298 132.872 247.248 133.122 243.878C131.742 243.918 130.452 244.008 129.292 244.108C128.822 244.148 128.552 243.888 128.552 243.558C128.552 243.258 128.722 242.968 129.202 242.918C130.552 242.768 132.552 242.668 134.632 242.668C135.832 242.668 137.442 242.778 138.512 242.938C138.962 243.008 139.062 243.278 139.062 243.448C139.062 243.898 138.622 244.088 138.182 244.048C137.012 243.948 135.622 243.858 134.372 243.858C134.152 247.208 133.502 252.218 133.302 255.568C133.272 256.138 133.052 256.438 132.622 256.438ZM147.211 256.218C146.081 256.218 145.421 255.698 145.421 254.208C145.421 253.688 145.511 252.968 145.671 252.038C145.901 250.718 146.201 249.408 146.201 248.648C146.201 248.118 146.051 247.788 145.571 247.788C144.571 247.788 143.511 248.868 142.631 250.158C141.901 251.228 141.211 252.628 140.631 254.308C140.521 255.958 140.211 256.148 139.821 256.148C139.401 256.148 139.201 255.848 139.201 255.208C139.201 254.918 139.271 254.568 139.321 254.138C139.611 251.788 139.891 249.318 140.091 247.408C140.321 245.158 140.441 243.598 140.601 242.518C140.661 242.088 140.901 241.868 141.291 241.868C141.671 241.868 141.931 242.128 141.871 242.788C141.651 245.088 141.501 246.538 141.281 248.288C141.171 249.188 141.051 250.118 140.881 251.178C141.201 250.438 141.551 249.778 141.961 249.138C142.941 247.588 144.251 246.348 145.941 246.348C147.171 246.348 147.551 247.218 147.551 248.298C147.551 248.798 147.461 249.418 147.351 249.998C147.021 251.808 146.731 253.218 146.731 254.168C146.731 254.508 146.761 254.758 146.821 254.968C147.121 255.028 147.431 255.068 147.751 255.208C147.971 255.308 148.051 255.488 148.051 255.668C148.051 256.038 147.781 256.218 147.211 256.218ZM153.339 256.198C150.619 256.198 149.019 253.578 149.849 250.478C150.499 248.068 152.509 246.458 154.479 246.458C156.249 246.458 157.239 247.528 157.149 248.968C157.039 250.768 155.179 251.968 151.879 251.968C151.569 251.968 151.249 251.958 150.919 251.938C150.859 253.718 151.839 255.038 153.409 255.038C154.249 255.038 155.289 254.758 155.959 254.088C156.489 253.558 157.159 254.148 156.739 254.738C155.939 255.878 154.399 256.198 153.339 256.198ZM151.549 250.968C154.219 250.968 155.719 250.108 155.799 248.968C155.859 248.178 155.299 247.628 154.429 247.628C153.009 247.628 151.539 248.878 151.059 250.958C151.229 250.968 151.389 250.968 151.549 250.968ZM165.946 256.538C164.636 256.538 163.266 255.928 162.806 254.408C162.736 254.168 162.686 253.908 162.686 253.688C162.686 253.288 162.876 253.008 163.216 253.008C163.746 253.008 164.076 254.008 164.356 254.908C164.756 255.178 165.276 255.378 165.866 255.378C166.836 255.378 167.566 254.808 167.636 254.028C167.726 252.958 166.796 252.298 165.756 251.438C164.396 250.308 163.856 249.578 163.976 248.458C164.116 247.138 165.306 246.198 166.966 246.198C168.136 246.198 168.956 246.608 169.526 247.188C169.816 247.488 169.906 247.788 169.756 248.008C169.576 248.278 169.226 248.268 168.896 248.008C168.306 247.538 167.726 247.378 167.006 247.378C166.146 247.378 165.396 247.818 165.326 248.508C165.246 249.278 165.946 249.808 167.166 250.768C168.316 251.668 169.186 252.738 169.006 254.168C168.836 255.518 167.596 256.538 165.946 256.538ZM173.679 255.998C173.619 255.998 173.539 255.988 173.459 255.968C172.829 255.828 172.399 255.488 172.129 255.018C171.799 254.438 171.709 253.688 171.709 252.758C171.709 252.028 171.779 251.088 171.899 250.068C172.089 248.388 172.369 246.628 172.559 245.138C172.669 244.238 172.789 243.378 172.839 242.638C172.869 242.168 173.209 241.948 173.549 241.948C173.899 241.948 174.229 242.198 174.199 242.668C174.139 243.638 173.979 244.588 173.839 245.598C173.609 247.208 173.359 248.788 173.179 250.418C173.069 251.388 173.019 252.248 173.019 252.738C173.019 253.598 173.049 254.068 173.279 254.448C173.389 254.628 173.569 254.758 173.889 254.868C174.169 254.968 174.289 255.188 174.289 255.398C174.289 255.698 174.069 255.998 173.679 255.998ZM179.282 256.258C176.992 256.258 175.782 254.428 176.122 251.298C176.482 248.028 178.522 246.588 180.472 246.588C181.462 246.588 181.872 246.998 181.942 247.268C183.562 247.918 184.322 249.988 183.582 252.578C183.012 254.588 181.352 256.258 179.282 256.258ZM179.332 255.078C180.592 255.078 181.922 253.948 182.372 252.088C182.932 249.758 182.112 248.208 180.692 248.028C180.492 247.998 180.392 247.888 180.392 247.718C179.032 247.758 177.762 248.928 177.462 251.418C177.172 253.828 177.852 255.078 179.332 255.078ZM185.805 260.368C185.455 260.368 185.225 260.128 185.225 259.308C185.225 258.628 185.385 257.538 185.765 255.858C186.195 252.718 186.335 250.488 186.475 247.468C186.365 246.918 186.735 246.658 187.105 246.658C187.555 246.658 187.805 246.948 187.785 247.398C187.725 248.878 187.605 250.258 187.415 251.758C187.675 251.058 187.955 250.468 188.245 249.918C189.305 247.878 190.615 246.708 192.025 246.708C193.985 246.708 195.085 248.998 194.485 251.828C193.935 254.408 192.255 255.798 190.535 255.798C189.335 255.798 188.205 255.268 187.525 254.338C187.235 255.348 187.005 256.418 186.825 257.508C186.655 259.938 186.275 260.368 185.805 260.368ZM190.405 254.688C191.555 254.688 192.745 253.788 193.155 251.528C193.525 249.508 192.935 247.888 191.835 247.888C190.815 247.888 189.525 249.338 188.415 251.848C188.225 252.278 188.055 252.728 187.885 253.198C188.595 254.148 189.515 254.688 190.405 254.688ZM199.768 256.108C197.248 256.108 195.758 254.168 196.498 250.868C197.058 248.358 198.848 246.618 201.138 246.618C203.168 246.618 204.408 247.618 204.148 249.308C203.878 251.038 202.018 251.848 200.168 251.848C199.298 251.848 198.408 251.728 197.708 251.518C197.278 253.778 198.228 254.948 199.768 254.948C200.608 254.948 201.528 254.648 202.208 254.098C202.768 253.648 203.148 254.418 202.808 254.828C202.078 255.708 201.058 256.108 199.768 256.108ZM199.888 250.748C201.368 250.748 202.648 250.228 202.788 249.188C202.908 248.308 202.308 247.788 201.188 247.788C199.788 247.788 198.558 248.798 197.968 250.528C198.568 250.668 199.298 250.748 199.888 250.748ZM213.338 254.958C215.238 254.958 216.578 252.628 216.578 250.848C216.578 249.838 216.278 248.998 215.528 248.558C215.428 248.498 215.348 248.438 215.298 248.378C214.968 248.218 214.448 248.078 213.938 248.078C212.028 248.078 210.868 250.298 210.868 251.988C210.868 253.818 211.888 254.958 213.338 254.958ZM213.308 256.128C211.058 256.128 209.558 254.438 209.558 252.048C209.558 249.598 211.268 246.898 213.968 246.898C214.748 246.898 215.678 247.128 216.258 247.698C217.428 248.188 217.868 249.508 217.868 250.748C217.868 253.308 215.998 256.128 213.308 256.128ZM221.083 256.138C220.723 256.138 220.443 255.898 220.453 255.308C220.473 253.598 220.673 250.658 220.993 248.128L219.833 248.238C219.393 248.278 219.123 248.018 219.123 247.648C219.123 247.328 219.293 247.148 219.773 247.038C220.163 246.948 220.643 246.868 221.183 246.818C221.283 246.188 221.383 245.608 221.503 245.108C222.043 242.788 222.953 241.658 224.553 241.658C225.583 241.658 226.273 242.198 226.573 242.728C226.713 242.978 226.723 243.218 226.613 243.368C226.463 243.578 226.173 243.648 225.963 243.438C225.673 243.148 225.323 242.828 224.673 242.828C223.653 242.828 223.063 243.638 222.703 245.608C222.633 245.968 222.573 246.348 222.513 246.728C222.873 246.718 223.223 246.708 223.553 246.708C224.103 246.708 224.613 246.728 225.043 246.758C225.373 246.778 225.573 246.978 225.573 247.278C225.573 247.538 225.443 247.828 224.973 247.858C224.413 247.888 223.343 247.918 222.343 248.008C222.003 250.728 221.863 253.568 221.763 255.328C221.733 255.898 221.493 256.138 221.083 256.138ZM233.733 256.088C232.193 256.088 231.243 255.318 231.153 253.448C231.083 252.068 231.313 250.068 231.623 248.248L230.763 248.298C230.353 248.318 230.013 248.158 230.013 247.738C230.013 247.398 230.273 247.198 230.733 247.118C230.933 247.088 231.333 247.038 231.853 246.988C232.013 246.158 232.183 245.418 232.333 244.868C232.453 244.438 232.663 244.178 233.053 244.178C233.403 244.178 233.723 244.458 233.563 245.168C233.463 245.618 233.333 246.208 233.213 246.868C234.323 246.788 235.413 246.758 235.793 246.758C236.253 246.758 236.483 246.978 236.483 247.298C236.483 247.518 236.383 247.798 235.913 247.858C235.393 247.928 234.343 248.018 232.983 248.128C232.683 249.938 232.423 251.978 232.503 253.288C232.573 254.488 232.933 254.928 233.843 254.928C234.223 254.928 234.773 254.798 235.383 254.548C235.743 254.398 235.963 254.618 235.963 254.888C235.963 255.088 235.903 255.248 235.773 255.368C235.293 255.818 234.563 256.088 233.733 256.088ZM245.648 256.458C245.498 256.458 245.338 256.418 245.148 256.328C244.478 255.998 244.258 255.298 244.258 254.548C244.258 253.808 244.498 252.798 244.728 251.718C244.938 250.738 245.148 249.698 245.148 248.918C245.148 248.128 244.878 247.808 244.368 247.808C243.568 247.808 242.458 248.918 241.428 250.278C240.528 251.458 239.758 252.838 239.158 254.268C239.168 255.648 238.828 256.168 238.278 256.168C237.888 256.168 237.648 255.828 237.648 255.198C237.648 254.908 237.688 254.568 237.798 254.178C238.008 252.488 238.238 250.698 238.458 248.858C238.708 246.728 238.968 244.518 239.228 242.408C239.278 242.008 239.578 241.798 239.878 241.798C240.218 241.798 240.558 242.068 240.508 242.618C240.348 244.478 240.158 246.308 239.898 248.198C239.738 249.358 239.558 250.498 239.348 251.628C239.818 250.658 240.348 249.768 240.948 248.978C242.068 247.488 243.348 246.468 244.598 246.468C245.858 246.468 246.478 247.328 246.478 248.738C246.478 249.688 246.238 250.828 245.998 251.888C245.768 252.888 245.568 253.788 245.568 254.368C245.568 254.818 245.698 255.118 246.078 255.458C246.208 255.578 246.268 255.728 246.268 255.878C246.268 256.178 246.038 256.458 245.648 256.458ZM251.975 256.108C249.455 256.108 247.965 254.168 248.705 250.868C249.265 248.358 251.055 246.618 253.345 246.618C255.375 246.618 256.615 247.618 256.355 249.308C256.085 251.038 254.225 251.848 252.375 251.848C251.505 251.848 250.615 251.728 249.915 251.518C249.485 253.778 250.435 254.948 251.975 254.948C252.815 254.948 253.735 254.648 254.415 254.098C254.975 253.648 255.355 254.418 255.015 254.828C254.285 255.708 253.265 256.108 251.975 256.108ZM252.095 250.748C253.575 250.748 254.855 250.228 254.995 249.188C255.115 248.308 254.515 247.788 253.395 247.788C251.995 247.788 250.765 248.798 250.175 250.528C250.775 250.668 251.505 250.748 252.095 250.748ZM264.395 255.988C263.505 255.988 262.735 255.478 262.455 254.328C262.205 253.298 262.215 251.538 262.495 249.058C262.775 246.558 263.215 244.428 263.645 242.668C263.735 242.288 263.995 242.078 264.335 242.078C264.835 242.078 265.035 242.478 264.925 242.988C264.545 244.708 264.115 246.578 263.855 249.098C263.615 251.458 263.545 253.028 263.695 253.838C263.845 254.638 264.325 254.798 264.775 254.888C265.215 254.978 265.515 255.068 265.515 255.308C265.515 255.678 265.125 255.988 264.395 255.988ZM269.083 256.118C268.993 256.118 268.893 256.098 268.793 256.068C267.723 255.718 267.343 254.698 267.343 253.328C267.343 252.468 267.443 251.428 267.623 250.218C267.803 248.998 267.973 247.878 268.053 246.898C268.093 246.468 268.413 246.258 268.733 246.258C269.093 246.258 269.423 246.488 269.393 246.968C269.323 248.178 269.093 249.348 268.943 250.518C268.803 251.578 268.663 252.518 268.663 253.278C268.663 254.178 268.833 254.788 269.393 255.078C269.623 255.198 269.723 255.378 269.723 255.558C269.723 255.838 269.473 256.118 269.083 256.118ZM269.173 244.478C268.433 244.478 268.013 244.088 268.013 243.608C268.013 243.108 268.523 242.698 269.123 242.698C269.643 242.698 269.833 242.958 269.893 243.148C270.053 243.228 270.173 243.408 270.173 243.668C270.173 244.118 269.793 244.478 269.173 244.478ZM272.201 256.088C271.831 256.088 271.571 255.868 271.571 255.308C271.571 254.988 271.651 254.538 271.861 253.958C272.171 251.728 272.501 249.358 272.621 247.398C272.661 246.788 272.901 246.518 273.341 246.518C273.721 246.518 273.991 246.708 273.971 247.308C273.941 248.288 273.771 249.358 273.591 250.408C273.511 250.868 273.421 251.338 273.321 251.818C274.041 250.218 274.741 249.188 275.531 248.218C276.401 247.148 277.381 246.498 278.401 246.498C279.471 246.498 280.011 247.298 280.011 248.408C280.011 249.278 279.811 250.048 279.511 251.688C279.231 253.208 279.211 253.838 279.301 254.338C279.371 254.738 279.561 254.888 279.811 254.968C280.041 255.038 280.191 255.198 280.191 255.488C280.191 255.848 279.881 256.068 279.511 256.068C278.971 256.068 278.361 255.728 278.121 254.868C278.001 254.428 277.891 253.638 278.101 252.258C278.371 250.518 278.681 249.328 278.681 248.738C278.681 248.238 278.461 247.868 278.051 247.868C277.571 247.868 276.771 248.488 276.061 249.398C275.011 250.758 274.151 251.988 273.151 254.328C273.021 255.568 272.641 256.088 272.201 256.088ZM285.741 256.198C283.021 256.198 281.421 253.578 282.251 250.478C282.901 248.068 284.911 246.458 286.881 246.458C288.651 246.458 289.641 247.528 289.551 248.968C289.441 250.768 287.581 251.968 284.281 251.968C283.971 251.968 283.651 251.958 283.321 251.938C283.261 253.718 284.241 255.038 285.811 255.038C286.651 255.038 287.691 254.758 288.361 254.088C288.891 253.558 289.561 254.148 289.141 254.738C288.341 255.878 286.801 256.198 285.741 256.198ZM283.951 250.968C286.621 250.968 288.121 250.108 288.201 248.968C288.261 248.178 287.701 247.628 286.831 247.628C285.411 247.628 283.941 248.878 283.461 250.958C283.631 250.968 283.791 250.968 283.951 250.968ZM298.908 256.088C297.368 256.088 296.418 255.318 296.328 253.448C296.258 252.068 296.488 250.068 296.798 248.248L295.938 248.298C295.528 248.318 295.188 248.158 295.188 247.738C295.188 247.398 295.448 247.198 295.908 247.118C296.108 247.088 296.508 247.038 297.028 246.988C297.188 246.158 297.358 245.418 297.508 244.868C297.628 244.438 297.838 244.178 298.228 244.178C298.578 244.178 298.898 244.458 298.738 245.168C298.638 245.618 298.508 246.208 298.388 246.868C299.498 246.788 300.588 246.758 300.968 246.758C301.428 246.758 301.658 246.978 301.658 247.298C301.658 247.518 301.558 247.798 301.088 247.858C300.568 247.928 299.518 248.018 298.158 248.128C297.858 249.938 297.598 251.978 297.678 253.288C297.748 254.488 298.108 254.928 299.018 254.928C299.398 254.928 299.948 254.798 300.558 254.548C300.918 254.398 301.138 254.618 301.138 254.888C301.138 255.088 301.078 255.248 300.948 255.368C300.468 255.818 299.738 256.088 298.908 256.088ZM310.228 256.208C310.118 256.208 309.998 256.188 309.888 256.148C309.498 255.988 309.208 255.688 309.028 255.288C308.798 254.778 308.698 254.078 308.698 253.368C308.698 253.228 308.698 253.088 308.708 252.938C308.438 253.518 308.168 253.998 307.868 254.388C306.988 255.548 306.078 255.958 305.128 255.958C303.618 255.958 302.518 254.728 302.518 252.678C302.518 251.438 302.948 250.178 303.568 249.148C304.458 247.668 305.868 246.708 307.528 246.708C308.428 246.708 309.338 246.928 310.038 247.388C310.328 247.578 310.448 247.838 310.428 248.028C310.528 248.158 310.578 248.328 310.538 248.558C310.208 250.648 310.008 252.278 310.008 253.388C310.008 253.908 310.048 254.308 310.148 254.598C310.228 254.818 310.328 254.978 310.488 255.068C311.128 255.448 310.878 256.208 310.228 256.208ZM305.348 254.708C305.958 254.708 306.558 254.328 307.098 253.628C307.868 252.628 308.518 251.008 309.208 248.298C309.218 248.248 309.238 248.198 309.258 248.158C308.678 247.948 308.128 247.828 307.588 247.828C306.408 247.828 305.458 248.508 304.798 249.578C304.228 250.508 303.898 251.618 303.898 252.628C303.898 253.938 304.468 254.708 305.348 254.708ZM321.083 255.958C321.023 255.958 320.963 255.948 320.903 255.938C319.943 255.748 319.433 255.178 319.433 253.828C319.433 252.408 319.803 250.858 319.893 249.478C319.953 248.598 319.673 248.208 319.273 248.208C318.623 248.208 317.513 249.178 316.353 250.858C315.523 252.058 314.773 253.628 314.213 255.218C314.143 255.698 313.883 255.908 313.543 255.908C313.233 255.908 312.893 255.738 312.893 255.278C312.893 255.188 312.903 255.088 312.933 254.968C313.143 253.658 313.293 252.408 313.453 251.128C313.613 249.848 313.743 248.528 313.843 247.178C313.883 246.688 314.183 246.468 314.503 246.468C314.893 246.468 315.203 246.718 315.173 247.198C315.103 248.198 314.983 249.288 314.853 250.368C314.783 250.908 314.703 251.478 314.613 252.048C315.043 251.078 315.503 250.208 315.993 249.478C317.103 247.818 318.293 246.818 319.533 246.818C320.663 246.818 321.343 247.728 321.233 249.468C321.143 250.858 320.763 252.418 320.763 253.738C320.763 254.508 320.923 254.778 321.353 254.938C321.603 255.028 321.713 255.218 321.713 255.408C321.713 255.678 321.473 255.958 321.083 255.958ZM326.104 260.058C324.604 260.058 323.404 259.308 322.844 258.238C322.774 258.098 322.734 257.958 322.734 257.838C322.734 257.348 323.244 257.098 323.614 257.618C324.124 258.328 324.834 258.918 326.044 258.918C327.304 258.918 328.174 258.198 328.654 256.758C328.924 255.948 329.094 254.618 329.314 253.008C328.274 254.728 327.384 255.358 326.014 255.358C324.174 255.358 323.074 253.738 323.794 250.738C324.444 248.038 326.284 246.638 328.214 246.638C329.314 246.638 330.194 247.078 330.774 247.888H330.834C331.214 247.888 331.464 248.148 331.464 248.768C331.464 249.318 331.274 250.138 330.804 251.328C330.454 253.958 330.344 255.908 329.874 257.248C329.234 259.068 327.874 260.058 326.104 260.058ZM326.264 254.198C327.444 254.198 328.334 253.208 329.724 250.448C329.854 249.538 329.974 248.928 330.124 248.528C329.904 248.378 329.304 247.738 328.164 247.738C326.934 247.738 325.674 248.848 325.144 250.868C324.564 253.098 325.154 254.198 326.264 254.198ZM336.643 256.108C334.123 256.108 332.633 254.168 333.373 250.868C333.933 248.358 335.723 246.618 338.013 246.618C340.043 246.618 341.283 247.618 341.023 249.308C340.753 251.038 338.893 251.848 337.043 251.848C336.173 251.848 335.283 251.728 334.583 251.518C334.153 253.778 335.103 254.948 336.643 254.948C337.483 254.948 338.403 254.648 339.083 254.098C339.643 253.648 340.023 254.418 339.683 254.828C338.953 255.708 337.933 256.108 336.643 256.108ZM336.763 250.748C338.243 250.748 339.523 250.228 339.663 249.188C339.783 248.308 339.183 247.788 338.063 247.788C336.663 247.788 335.433 248.798 334.843 250.528C335.443 250.668 336.173 250.748 336.763 250.748ZM350.712 255.958C350.652 255.958 350.592 255.948 350.532 255.938C349.572 255.748 349.062 255.178 349.062 253.828C349.062 252.408 349.432 250.858 349.522 249.478C349.582 248.598 349.302 248.208 348.902 248.208C348.252 248.208 347.142 249.178 345.982 250.858C345.152 252.058 344.402 253.628 343.842 255.218C343.772 255.698 343.512 255.908 343.172 255.908C342.862 255.908 342.522 255.738 342.522 255.278C342.522 255.188 342.532 255.088 342.562 254.968C342.772 253.658 342.922 252.408 343.082 251.128C343.242 249.848 343.372 248.528 343.472 247.178C343.512 246.688 343.812 246.468 344.132 246.468C344.522 246.468 344.832 246.718 344.802 247.198C344.732 248.198 344.612 249.288 344.482 250.368C344.412 250.908 344.332 251.478 344.242 252.048C344.672 251.078 345.132 250.208 345.622 249.478C346.732 247.818 347.922 246.818 349.162 246.818C350.292 246.818 350.972 247.728 350.862 249.468C350.772 250.858 350.392 252.418 350.392 253.738C350.392 254.508 350.552 254.778 350.982 254.938C351.232 255.028 351.342 255.218 351.342 255.408C351.342 255.678 351.102 255.958 350.712 255.958ZM356.335 256.088C355.305 256.088 354.405 255.598 354.115 254.348C353.735 252.698 354.155 250.308 354.525 248.388C354.105 248.398 353.715 248.408 353.385 248.408C352.865 248.408 352.625 248.128 352.625 247.798C352.625 247.518 352.835 247.228 353.215 247.208L354.765 247.148C354.935 246.308 355.115 245.508 355.305 244.718C355.395 244.348 355.695 244.168 355.995 244.168C356.345 244.168 356.675 244.428 356.575 244.928L356.145 247.118C357.105 247.088 358.105 247.078 358.955 247.068C359.395 247.058 359.605 247.348 359.605 247.628C359.605 247.908 359.405 248.178 359.035 248.198C358.015 248.258 356.915 248.308 355.895 248.348C355.555 250.068 355.075 252.568 355.405 254.008C355.555 254.678 355.955 254.928 356.465 254.928C356.985 254.928 357.585 254.628 357.995 254.348C358.655 253.898 359.215 254.638 358.635 255.168C358.035 255.718 357.145 256.088 356.335 256.088ZM368.244 256.088C366.704 256.088 365.754 255.318 365.664 253.448C365.594 252.068 365.824 250.068 366.134 248.248L365.274 248.298C364.864 248.318 364.524 248.158 364.524 247.738C364.524 247.398 364.784 247.198 365.244 247.118C365.444 247.088 365.844 247.038 366.364 246.988C366.524 246.158 366.694 245.418 366.844 244.868C366.964 244.438 367.174 244.178 367.564 244.178C367.914 244.178 368.234 244.458 368.074 245.168C367.974 245.618 367.844 246.208 367.724 246.868C368.834 246.788 369.924 246.758 370.304 246.758C370.764 246.758 370.994 246.978 370.994 247.298C370.994 247.518 370.894 247.798 370.424 247.858C369.904 247.928 368.854 248.018 367.494 248.128C367.194 249.938 366.934 251.978 367.014 253.288C367.084 254.488 367.444 254.928 368.354 254.928C368.734 254.928 369.284 254.798 369.894 254.548C370.254 254.398 370.474 254.618 370.474 254.888C370.474 255.088 370.414 255.248 370.284 255.368C369.804 255.818 369.074 256.088 368.244 256.088ZM375.604 254.958C377.504 254.958 378.844 252.628 378.844 250.848C378.844 249.838 378.544 248.998 377.794 248.558C377.694 248.498 377.614 248.438 377.564 248.378C377.234 248.218 376.714 248.078 376.204 248.078C374.294 248.078 373.134 250.298 373.134 251.988C373.134 253.818 374.154 254.958 375.604 254.958ZM375.574 256.128C373.324 256.128 371.824 254.438 371.824 252.048C371.824 249.598 373.534 246.898 376.234 246.898C377.014 246.898 377.944 247.128 378.524 247.698C379.694 248.188 380.134 249.508 380.134 250.748C380.134 253.308 378.264 256.128 375.574 256.128ZM389.148 256.088C388.118 256.088 387.218 255.598 386.928 254.348C386.548 252.698 386.968 250.308 387.338 248.388C386.918 248.398 386.528 248.408 386.198 248.408C385.678 248.408 385.438 248.128 385.438 247.798C385.438 247.518 385.648 247.228 386.028 247.208L387.578 247.148C387.748 246.308 387.928 245.508 388.118 244.718C388.208 244.348 388.508 244.168 388.808 244.168C389.158 244.168 389.488 244.428 389.388 244.928L388.958 247.118C389.918 247.088 390.918 247.078 391.768 247.068C392.208 247.058 392.418 247.348 392.418 247.628C392.418 247.908 392.218 248.178 391.848 248.198C390.828 248.258 389.728 248.308 388.708 248.348C388.368 250.068 387.888 252.568 388.218 254.008C388.368 254.678 388.768 254.928 389.278 254.928C389.798 254.928 390.398 254.628 390.808 254.348C391.468 253.898 392.028 254.638 391.448 255.168C390.848 255.718 389.958 256.088 389.148 256.088ZM401.625 256.218C400.495 256.218 399.835 255.698 399.835 254.208C399.835 253.688 399.925 252.968 400.085 252.038C400.315 250.718 400.615 249.408 400.615 248.648C400.615 248.118 400.465 247.788 399.985 247.788C398.985 247.788 397.925 248.868 397.045 250.158C396.315 251.228 395.625 252.628 395.045 254.308C394.935 255.958 394.625 256.148 394.235 256.148C393.815 256.148 393.615 255.848 393.615 255.208C393.615 254.918 393.685 254.568 393.735 254.138C394.025 251.788 394.305 249.318 394.505 247.408C394.735 245.158 394.855 243.598 395.015 242.518C395.075 242.088 395.315 241.868 395.705 241.868C396.085 241.868 396.345 242.128 396.285 242.788C396.065 245.088 395.915 246.538 395.695 248.288C395.585 249.188 395.465 250.118 395.295 251.178C395.615 250.438 395.965 249.778 396.375 249.138C397.355 247.588 398.665 246.348 400.355 246.348C401.585 246.348 401.965 247.218 401.965 248.298C401.965 248.798 401.875 249.418 401.765 249.998C401.435 251.808 401.145 253.218 401.145 254.168C401.145 254.508 401.175 254.758 401.235 254.968C401.535 255.028 401.845 255.068 402.165 255.208C402.385 255.308 402.465 255.488 402.465 255.668C402.465 256.038 402.195 256.218 401.625 256.218ZM407.753 256.198C405.033 256.198 403.433 253.578 404.263 250.478C404.913 248.068 406.923 246.458 408.893 246.458C410.663 246.458 411.653 247.528 411.563 248.968C411.453 250.768 409.593 251.968 406.293 251.968C405.983 251.968 405.663 251.958 405.333 251.938C405.273 253.718 406.253 255.038 407.823 255.038C408.663 255.038 409.703 254.758 410.373 254.088C410.903 253.558 411.573 254.148 411.153 254.738C410.353 255.878 408.813 256.198 407.753 256.198ZM405.963 250.968C408.633 250.968 410.133 250.108 410.213 248.968C410.273 248.178 409.713 247.628 408.843 247.628C407.423 247.628 405.953 248.878 405.473 250.958C405.643 250.968 405.803 250.968 405.963 250.968ZM417.68 260.368C417.33 260.368 417.1 260.128 417.1 259.308C417.1 258.628 417.26 257.538 417.64 255.858C418.07 252.718 418.21 250.488 418.35 247.468C418.24 246.918 418.61 246.658 418.98 246.658C419.43 246.658 419.68 246.948 419.66 247.398C419.6 248.878 419.48 250.258 419.29 251.758C419.55 251.058 419.83 250.468 420.12 249.918C421.18 247.878 422.49 246.708 423.9 246.708C425.86 246.708 426.96 248.998 426.36 251.828C425.81 254.408 424.13 255.798 422.41 255.798C421.21 255.798 420.08 255.268 419.4 254.338C419.11 255.348 418.88 256.418 418.7 257.508C418.53 259.938 418.15 260.368 417.68 260.368ZM422.28 254.688C423.43 254.688 424.62 253.788 425.03 251.528C425.4 249.508 424.81 247.888 423.71 247.888C422.69 247.888 421.4 249.338 420.29 251.848C420.1 252.278 419.93 252.728 419.76 253.198C420.47 254.148 421.39 254.688 422.28 254.688ZM431.313 256.258C429.023 256.258 427.813 254.428 428.153 251.298C428.513 248.028 430.553 246.588 432.503 246.588C433.493 246.588 433.903 246.998 433.973 247.268C435.593 247.918 436.353 249.988 435.613 252.578C435.043 254.588 433.383 256.258 431.313 256.258ZM431.363 255.078C432.623 255.078 433.953 253.948 434.403 252.088C434.963 249.758 434.143 248.208 432.723 248.028C432.523 247.998 432.423 247.888 432.423 247.718C431.063 247.758 429.793 248.928 429.493 251.418C429.203 253.828 429.883 255.078 431.363 255.078ZM439.766 256.118C439.676 256.118 439.576 256.098 439.476 256.068C438.406 255.718 438.026 254.698 438.026 253.328C438.026 252.468 438.126 251.428 438.306 250.218C438.486 248.998 438.656 247.878 438.736 246.898C438.776 246.468 439.096 246.258 439.416 246.258C439.776 246.258 440.106 246.488 440.076 246.968C440.006 248.178 439.776 249.348 439.626 250.518C439.486 251.578 439.346 252.518 439.346 253.278C439.346 254.178 439.516 254.788 440.076 255.078C440.306 255.198 440.406 255.378 440.406 255.558C440.406 255.838 440.156 256.118 439.766 256.118ZM439.856 244.478C439.116 244.478 438.696 244.088 438.696 243.608C438.696 243.108 439.206 242.698 439.806 242.698C440.326 242.698 440.516 242.958 440.576 243.148C440.736 243.228 440.856 243.408 440.856 243.668C440.856 244.118 440.476 244.478 439.856 244.478ZM442.884 256.088C442.514 256.088 442.254 255.868 442.254 255.308C442.254 254.988 442.334 254.538 442.544 253.958C442.854 251.728 443.184 249.358 443.304 247.398C443.344 246.788 443.584 246.518 444.024 246.518C444.404 246.518 444.674 246.708 444.654 247.308C444.624 248.288 444.454 249.358 444.274 250.408C444.194 250.868 444.104 251.338 444.004 251.818C444.724 250.218 445.424 249.188 446.214 248.218C447.084 247.148 448.064 246.498 449.084 246.498C450.154 246.498 450.694 247.298 450.694 248.408C450.694 249.278 450.494 250.048 450.194 251.688C449.914 253.208 449.894 253.838 449.984 254.338C450.054 254.738 450.244 254.888 450.494 254.968C450.724 255.038 450.874 255.198 450.874 255.488C450.874 255.848 450.564 256.068 450.194 256.068C449.654 256.068 449.044 255.728 448.804 254.868C448.684 254.428 448.574 253.638 448.784 252.258C449.054 250.518 449.364 249.328 449.364 248.738C449.364 248.238 449.144 247.868 448.734 247.868C448.254 247.868 447.454 248.488 446.744 249.398C445.694 250.758 444.834 251.988 443.834 254.328C443.704 255.568 443.324 256.088 442.884 256.088ZM455.847 256.088C454.817 256.088 453.917 255.598 453.627 254.348C453.247 252.698 453.667 250.308 454.037 248.388C453.617 248.398 453.227 248.408 452.897 248.408C452.377 248.408 452.137 248.128 452.137 247.798C452.137 247.518 452.347 247.228 452.727 247.208L454.277 247.148C454.447 246.308 454.627 245.508 454.817 244.718C454.907 244.348 455.207 244.168 455.507 244.168C455.857 244.168 456.187 244.428 456.087 244.928L455.657 247.118C456.617 247.088 457.617 247.078 458.467 247.068C458.907 247.058 459.117 247.348 459.117 247.628C459.117 247.908 458.917 248.178 458.547 248.198C457.527 248.258 456.427 248.308 455.407 248.348C455.067 250.068 454.587 252.568 454.917 254.008C455.067 254.678 455.467 254.928 455.977 254.928C456.497 254.928 457.097 254.628 457.507 254.348C458.167 253.898 458.727 254.638 458.147 255.168C457.547 255.718 456.657 256.088 455.847 256.088ZM466.576 255.968C464.936 255.968 464.056 254.798 464.206 252.848C464.416 250.188 466.356 246.698 469.556 246.698C470.266 246.698 470.986 246.878 471.476 247.108C471.576 247.048 471.686 247.018 471.806 247.018C472.186 247.018 472.386 247.218 472.386 247.778C472.386 248.288 472.216 249.098 471.846 250.338C471.646 251.408 471.596 252.388 471.596 253.088C471.596 253.598 471.606 254.188 471.776 254.508C471.906 254.758 472.136 254.768 472.396 254.938C472.846 255.238 472.566 255.958 471.906 255.958C471.476 255.958 470.976 255.648 470.736 255.288C470.496 254.928 470.326 254.288 470.326 253.428C470.326 253.268 470.336 253.098 470.346 252.928C469.156 255.258 467.876 255.968 466.576 255.968ZM466.846 254.758C467.906 254.758 469.226 253.798 470.686 249.588C470.796 248.928 470.896 248.428 470.996 248.058C470.576 247.918 470.046 247.798 469.536 247.798C467.086 247.798 465.716 250.768 465.526 252.608C465.396 253.908 465.856 254.758 466.846 254.758ZM477.605 256.088C476.575 256.088 475.675 255.598 475.385 254.348C475.005 252.698 475.425 250.308 475.795 248.388C475.375 248.398 474.985 248.408 474.655 248.408C474.135 248.408 473.895 248.128 473.895 247.798C473.895 247.518 474.105 247.228 474.485 247.208L476.035 247.148C476.205 246.308 476.385 245.508 476.575 244.718C476.665 244.348 476.965 244.168 477.265 244.168C477.615 244.168 477.945 244.428 477.845 244.928L477.415 247.118C478.375 247.088 479.375 247.078 480.225 247.068C480.665 247.058 480.875 247.348 480.875 247.628C480.875 247.908 480.675 248.178 480.305 248.198C479.285 248.258 478.185 248.308 477.165 248.348C476.825 250.068 476.345 252.568 476.675 254.008C476.825 254.678 477.225 254.928 477.735 254.928C478.255 254.928 478.855 254.628 479.265 254.348C479.925 253.898 480.485 254.638 479.905 255.168C479.305 255.718 478.415 256.088 477.605 256.088ZM492.564 256.458C492.364 256.458 492.144 256.358 491.964 255.918C491.484 254.728 490.664 253.108 489.824 251.748C488.564 253.158 487.414 254.678 486.994 255.528C486.754 256.008 486.544 256.188 486.224 256.188C485.734 256.188 485.554 255.718 485.814 255.078C486.234 254.048 487.714 252.268 489.134 250.668C488.234 249.288 487.494 248.248 486.684 247.628C486.454 247.448 486.374 247.228 486.374 247.068C486.374 246.738 486.644 246.518 486.954 246.518C487.214 246.518 487.384 246.628 487.624 246.798C488.404 247.348 489.294 248.508 490.104 249.738C491.044 248.728 491.944 247.818 492.914 246.968C493.104 246.808 493.294 246.718 493.474 246.718C493.834 246.718 494.104 246.998 494.104 247.308C494.104 247.468 494.064 247.648 493.894 247.798C492.824 248.748 491.884 249.668 490.794 250.828C491.764 252.388 492.674 254.258 492.984 255.508C493.144 256.138 492.874 256.458 492.564 256.458ZM500.059 252.428C499.609 252.428 499.389 252.128 499.389 251.828C499.389 251.548 499.589 251.278 499.989 251.268C502.579 251.208 505.589 251.118 508.249 251.038C508.679 251.028 508.889 251.298 508.889 251.578C508.889 251.858 508.679 252.158 508.239 252.178C505.789 252.298 502.789 252.428 500.059 252.428ZM500.199 248.658C499.789 248.648 499.579 248.368 499.579 248.078C499.579 247.788 499.799 247.478 500.249 247.478C502.779 247.458 506.069 247.548 508.539 247.638C508.979 247.658 509.189 247.908 509.189 248.178C509.189 248.458 508.949 248.748 508.529 248.748C505.669 248.748 502.869 248.728 500.199 248.658ZM518.972 256.098C516.332 256.098 514.932 254.248 514.932 250.708C514.932 246.068 517.212 242.528 520.362 242.528C522.062 242.528 523.462 243.548 523.812 244.888C523.842 245.008 523.842 245.108 523.812 245.188C524.152 245.818 524.302 246.698 524.302 247.808C524.302 249.518 523.972 251.368 523.342 252.878C522.472 254.978 520.932 256.098 518.972 256.098ZM518.962 254.938C520.282 254.938 521.442 254.128 522.122 252.328C522.602 251.058 522.932 249.418 522.932 247.818C522.932 246.968 522.842 246.098 522.662 245.578C522.612 245.418 522.602 245.288 522.642 245.178C522.302 244.328 521.402 243.688 520.272 243.688C518.002 243.688 516.272 246.858 516.272 250.718C516.272 253.498 517.192 254.938 518.962 254.938ZM129.642 282.118C129.282 282.118 128.962 281.928 128.962 281.398C128.962 280.468 129.152 278.738 129.292 277.158C129.422 275.708 129.542 274.258 129.612 273.238C129.652 272.638 129.902 272.458 130.262 272.458C130.712 272.458 130.922 272.768 130.922 273.138C130.912 274.078 130.742 275.718 130.612 277.198C130.492 278.608 130.292 280.068 130.232 281.238C130.342 281.798 130.042 282.118 129.642 282.118ZM130.442 270.598C129.942 270.598 129.472 270.248 129.472 269.828C129.472 269.258 129.962 268.908 130.562 268.908C131.142 268.908 131.482 269.258 131.482 269.778C131.482 270.288 130.972 270.598 130.442 270.598ZM135.826 282.288C134.046 282.288 132.716 281.388 132.456 280.118C132.266 279.208 133.426 279.038 133.616 279.788C133.826 280.618 134.656 281.128 135.816 281.128C136.826 281.128 137.336 280.738 137.336 280.028C137.336 279.408 136.516 278.638 135.616 277.908C134.506 276.998 133.636 276.068 133.636 274.958C133.636 274.338 133.926 273.788 134.346 273.318C134.946 272.658 135.946 272.228 137.006 272.228C138.056 272.228 139.066 272.638 139.606 273.318C140.106 273.948 139.356 274.598 138.706 274.048C138.146 273.568 137.616 273.408 137.016 273.408C136.366 273.408 135.736 273.678 135.366 274.078C135.126 274.338 134.976 274.618 134.976 274.938C134.976 275.588 135.746 276.268 136.596 276.988C137.616 277.848 138.706 278.798 138.706 279.968C138.706 281.388 137.546 282.288 135.826 282.288ZM149.186 282.098C146.546 282.098 145.146 280.248 145.146 276.708C145.146 272.068 147.426 268.528 150.576 268.528C152.276 268.528 153.676 269.548 154.026 270.888C154.056 271.008 154.056 271.108 154.026 271.188C154.366 271.818 154.516 272.698 154.516 273.808C154.516 275.518 154.186 277.368 153.556 278.878C152.686 280.978 151.146 282.098 149.186 282.098ZM149.176 280.938C150.496 280.938 151.656 280.128 152.336 278.328C152.816 277.058 153.146 275.418 153.146 273.818C153.146 272.968 153.056 272.098 152.876 271.578C152.826 271.418 152.816 271.288 152.856 271.178C152.516 270.328 151.616 269.688 150.486 269.688C148.216 269.688 146.486 272.858 146.486 276.718C146.486 279.498 147.406 280.938 149.176 280.938ZM155.309 285.678C154.989 285.678 154.739 285.458 154.909 285.078C155.639 283.428 155.839 282.088 155.669 280.158C155.619 279.588 155.939 279.368 156.299 279.368C156.679 279.368 157.039 279.578 157.119 280.258C157.339 282.048 156.959 283.758 156.019 285.258C155.839 285.548 155.549 285.678 155.309 285.678ZM170.405 282.218C169.805 282.218 169.695 281.658 170.165 279.908C170.935 275.588 170.905 273.828 169.855 273.828C169.065 273.828 168.025 274.858 167.235 276.318C166.495 277.678 165.995 278.848 165.565 280.488C165.525 281.728 165.325 282.008 164.835 282.008C164.505 282.008 164.165 281.778 164.165 281.108C164.165 280.858 164.215 280.558 164.325 280.178C164.595 278.038 164.895 275.368 164.935 273.278C164.945 272.668 165.165 272.358 165.615 272.358C165.925 272.358 166.275 272.538 166.265 273.278C166.245 274.378 166.135 275.598 165.995 276.738C166.965 274.108 168.585 272.538 170.135 272.538C171.655 272.538 172.205 273.868 171.885 276.538C173.015 273.858 174.585 272.678 176.045 272.678C177.105 272.678 177.995 273.418 177.995 275.118C177.995 275.828 177.815 276.818 177.535 278.068C177.335 278.968 177.205 279.828 177.205 280.398C177.205 280.768 177.325 280.968 177.855 281.088C178.145 281.158 178.255 281.328 178.255 281.558C178.255 281.878 178.015 282.138 177.575 282.138C176.875 282.138 175.915 281.848 175.915 280.148C175.915 279.588 176.005 278.878 176.205 277.998C176.435 276.988 176.645 275.908 176.645 275.238C176.645 274.308 176.275 273.878 175.785 273.878C174.915 273.878 173.925 274.958 173.145 276.238C172.465 277.358 171.955 278.578 171.465 280.038C171.175 281.938 170.825 282.218 170.405 282.218ZM183.577 282.108C181.057 282.108 179.567 280.168 180.307 276.868C180.867 274.358 182.657 272.618 184.947 272.618C186.977 272.618 188.217 273.618 187.957 275.308C187.687 277.038 185.827 277.848 183.977 277.848C183.107 277.848 182.217 277.728 181.517 277.518C181.087 279.778 182.037 280.948 183.577 280.948C184.417 280.948 185.337 280.648 186.017 280.098C186.577 279.648 186.957 280.418 186.617 280.828C185.887 281.708 184.867 282.108 183.577 282.108ZM183.697 276.748C185.177 276.748 186.457 276.228 186.597 275.188C186.717 274.308 186.117 273.788 184.997 273.788C183.597 273.788 182.367 274.798 181.777 276.528C182.377 276.668 183.107 276.748 183.697 276.748ZM196.868 282.208C196.758 282.208 196.638 282.188 196.528 282.148C196.138 281.988 195.848 281.688 195.668 281.288C195.438 280.778 195.338 280.078 195.338 279.368C195.338 279.228 195.338 279.088 195.348 278.938C195.078 279.518 194.808 279.998 194.508 280.388C193.628 281.548 192.718 281.958 191.768 281.958C190.258 281.958 189.158 280.728 189.158 278.678C189.158 277.438 189.588 276.178 190.208 275.148C191.098 273.668 192.508 272.708 194.168 272.708C195.068 272.708 195.978 272.928 196.678 273.388C196.968 273.578 197.088 273.838 197.068 274.028C197.168 274.158 197.218 274.328 197.178 274.558C196.848 276.648 196.648 278.278 196.648 279.388C196.648 279.908 196.688 280.308 196.788 280.598C196.868 280.818 196.968 280.978 197.128 281.068C197.768 281.448 197.518 282.208 196.868 282.208ZM191.988 280.708C192.598 280.708 193.198 280.328 193.738 279.628C194.508 278.628 195.158 277.008 195.848 274.298C195.858 274.248 195.878 274.198 195.898 274.158C195.318 273.948 194.768 273.828 194.228 273.828C193.048 273.828 192.098 274.508 191.438 275.578C190.868 276.508 190.538 277.618 190.538 278.628C190.538 279.938 191.108 280.708 191.988 280.708ZM200.013 282.088C199.643 282.088 199.383 281.868 199.383 281.308C199.383 280.988 199.463 280.538 199.673 279.958C199.983 277.728 200.313 275.358 200.433 273.398C200.473 272.788 200.713 272.518 201.153 272.518C201.533 272.518 201.803 272.708 201.783 273.308C201.753 274.288 201.583 275.358 201.403 276.408C201.323 276.868 201.233 277.338 201.133 277.818C201.853 276.218 202.553 275.188 203.343 274.218C204.213 273.148 205.193 272.498 206.213 272.498C207.283 272.498 207.823 273.298 207.823 274.408C207.823 275.278 207.623 276.048 207.323 277.688C207.043 279.208 207.023 279.838 207.113 280.338C207.183 280.738 207.373 280.888 207.623 280.968C207.853 281.038 208.003 281.198 208.003 281.488C208.003 281.848 207.693 282.068 207.323 282.068C206.783 282.068 206.173 281.728 205.933 280.868C205.813 280.428 205.703 279.638 205.913 278.258C206.183 276.518 206.493 275.328 206.493 274.738C206.493 274.238 206.273 273.868 205.863 273.868C205.383 273.868 204.583 274.488 203.873 275.398C202.823 276.758 201.963 277.988 200.963 280.328C200.833 281.568 200.453 282.088 200.013 282.088ZM211.973 282.118C211.883 282.118 211.783 282.098 211.683 282.068C210.613 281.718 210.233 280.698 210.233 279.328C210.233 278.468 210.333 277.428 210.513 276.218C210.693 274.998 210.863 273.878 210.943 272.898C210.983 272.468 211.303 272.258 211.623 272.258C211.983 272.258 212.313 272.488 212.283 272.968C212.213 274.178 211.983 275.348 211.833 276.518C211.693 277.578 211.553 278.518 211.553 279.278C211.553 280.178 211.723 280.788 212.283 281.078C212.513 281.198 212.613 281.378 212.613 281.558C212.613 281.838 212.363 282.118 211.973 282.118ZM212.063 270.478C211.323 270.478 210.903 270.088 210.903 269.608C210.903 269.108 211.413 268.698 212.013 268.698C212.533 268.698 212.723 268.958 212.783 269.148C212.943 269.228 213.063 269.408 213.063 269.668C213.063 270.118 212.683 270.478 212.063 270.478ZM222.801 281.958C222.741 281.958 222.681 281.948 222.621 281.938C221.661 281.748 221.151 281.178 221.151 279.828C221.151 278.408 221.521 276.858 221.611 275.478C221.671 274.598 221.391 274.208 220.991 274.208C220.341 274.208 219.231 275.178 218.071 276.858C217.241 278.058 216.491 279.628 215.931 281.218C215.861 281.698 215.601 281.908 215.261 281.908C214.951 281.908 214.611 281.738 214.611 281.278C214.611 281.188 214.621 281.088 214.651 280.968C214.861 279.658 215.011 278.408 215.171 277.128C215.331 275.848 215.461 274.528 215.561 273.178C215.601 272.688 215.901 272.468 216.221 272.468C216.611 272.468 216.921 272.718 216.891 273.198C216.821 274.198 216.701 275.288 216.571 276.368C216.501 276.908 216.421 277.478 216.331 278.048C216.761 277.078 217.221 276.208 217.711 275.478C218.821 273.818 220.011 272.818 221.251 272.818C222.381 272.818 223.061 273.728 222.951 275.468C222.861 276.858 222.481 278.418 222.481 279.738C222.481 280.508 222.641 280.778 223.071 280.938C223.321 281.028 223.431 281.218 223.431 281.408C223.431 281.678 223.191 281.958 222.801 281.958ZM227.823 286.058C226.323 286.058 225.123 285.308 224.563 284.238C224.493 284.098 224.453 283.958 224.453 283.838C224.453 283.348 224.963 283.098 225.333 283.618C225.843 284.328 226.553 284.918 227.763 284.918C229.023 284.918 229.893 284.198 230.373 282.758C230.643 281.948 230.813 280.618 231.033 279.008C229.993 280.728 229.103 281.358 227.733 281.358C225.893 281.358 224.793 279.738 225.513 276.738C226.163 274.038 228.003 272.638 229.933 272.638C231.033 272.638 231.913 273.078 232.493 273.888H232.553C232.933 273.888 233.183 274.148 233.183 274.768C233.183 275.318 232.993 276.138 232.523 277.328C232.173 279.958 232.063 281.908 231.593 283.248C230.953 285.068 229.593 286.058 227.823 286.058ZM227.983 280.198C229.163 280.198 230.053 279.208 231.443 276.448C231.573 275.538 231.693 274.928 231.843 274.528C231.623 274.378 231.023 273.738 229.883 273.738C228.653 273.738 227.393 274.848 226.863 276.868C226.283 279.098 226.873 280.198 227.983 280.198ZM242.444 282.088C240.904 282.088 239.954 281.318 239.864 279.448C239.794 278.068 240.024 276.068 240.334 274.248L239.474 274.298C239.064 274.318 238.724 274.158 238.724 273.738C238.724 273.398 238.984 273.198 239.444 273.118C239.644 273.088 240.044 273.038 240.564 272.988C240.724 272.158 240.894 271.418 241.044 270.868C241.164 270.438 241.374 270.178 241.764 270.178C242.114 270.178 242.434 270.458 242.274 271.168C242.174 271.618 242.044 272.208 241.924 272.868C243.034 272.788 244.124 272.758 244.504 272.758C244.964 272.758 245.194 272.978 245.194 273.298C245.194 273.518 245.094 273.798 244.624 273.858C244.104 273.928 243.054 274.018 241.694 274.128C241.394 275.938 241.134 277.978 241.214 279.288C241.284 280.488 241.644 280.928 242.554 280.928C242.934 280.928 243.484 280.798 244.094 280.548C244.454 280.398 244.674 280.618 244.674 280.888C244.674 281.088 244.614 281.248 244.484 281.368C244.004 281.818 243.274 282.088 242.444 282.088ZM254.359 282.458C254.209 282.458 254.049 282.418 253.859 282.328C253.189 281.998 252.969 281.298 252.969 280.548C252.969 279.808 253.209 278.798 253.439 277.718C253.649 276.738 253.859 275.698 253.859 274.918C253.859 274.128 253.589 273.808 253.079 273.808C252.279 273.808 251.169 274.918 250.139 276.278C249.239 277.458 248.469 278.838 247.869 280.268C247.879 281.648 247.539 282.168 246.989 282.168C246.599 282.168 246.359 281.828 246.359 281.198C246.359 280.908 246.399 280.568 246.509 280.178C246.719 278.488 246.949 276.698 247.169 274.858C247.419 272.728 247.679 270.518 247.939 268.408C247.989 268.008 248.289 267.798 248.589 267.798C248.929 267.798 249.269 268.068 249.219 268.618C249.059 270.478 248.869 272.308 248.609 274.198C248.449 275.358 248.269 276.498 248.059 277.628C248.529 276.658 249.059 275.768 249.659 274.978C250.779 273.488 252.059 272.468 253.309 272.468C254.569 272.468 255.189 273.328 255.189 274.738C255.189 275.688 254.949 276.828 254.709 277.888C254.479 278.888 254.279 279.788 254.279 280.368C254.279 280.818 254.409 281.118 254.789 281.458C254.919 281.578 254.979 281.728 254.979 281.878C254.979 282.178 254.749 282.458 254.359 282.458ZM260.686 282.108C258.166 282.108 256.676 280.168 257.416 276.868C257.976 274.358 259.766 272.618 262.056 272.618C264.086 272.618 265.326 273.618 265.066 275.308C264.796 277.038 262.936 277.848 261.086 277.848C260.216 277.848 259.326 277.728 258.626 277.518C258.196 279.778 259.146 280.948 260.686 280.948C261.526 280.948 262.446 280.648 263.126 280.098C263.686 279.648 264.066 280.418 263.726 280.828C262.996 281.708 261.976 282.108 260.686 282.108ZM260.806 276.748C262.286 276.748 263.566 276.228 263.706 275.188C263.826 274.308 263.226 273.788 262.106 273.788C260.706 273.788 259.476 274.798 258.886 276.528C259.486 276.668 260.216 276.748 260.806 276.748ZM273.106 281.988C272.216 281.988 271.446 281.478 271.166 280.328C270.916 279.298 270.926 277.538 271.206 275.058C271.486 272.558 271.926 270.428 272.356 268.668C272.446 268.288 272.706 268.078 273.046 268.078C273.546 268.078 273.746 268.478 273.636 268.988C273.256 270.708 272.826 272.578 272.566 275.098C272.326 277.458 272.256 279.028 272.406 279.838C272.556 280.638 273.036 280.798 273.486 280.888C273.926 280.978 274.226 281.068 274.226 281.308C274.226 281.678 273.836 281.988 273.106 281.988ZM277.794 282.118C277.704 282.118 277.604 282.098 277.504 282.068C276.434 281.718 276.054 280.698 276.054 279.328C276.054 278.468 276.154 277.428 276.334 276.218C276.514 274.998 276.684 273.878 276.764 272.898C276.804 272.468 277.124 272.258 277.444 272.258C277.804 272.258 278.134 272.488 278.104 272.968C278.034 274.178 277.804 275.348 277.654 276.518C277.514 277.578 277.374 278.518 277.374 279.278C277.374 280.178 277.544 280.788 278.104 281.078C278.334 281.198 278.434 281.378 278.434 281.558C278.434 281.838 278.184 282.118 277.794 282.118ZM277.884 270.478C277.144 270.478 276.724 270.088 276.724 269.608C276.724 269.108 277.234 268.698 277.834 268.698C278.354 268.698 278.544 268.958 278.604 269.148C278.764 269.228 278.884 269.408 278.884 269.668C278.884 270.118 278.504 270.478 277.884 270.478ZM280.912 282.088C280.542 282.088 280.282 281.868 280.282 281.308C280.282 280.988 280.362 280.538 280.572 279.958C280.882 277.728 281.212 275.358 281.332 273.398C281.372 272.788 281.612 272.518 282.052 272.518C282.432 272.518 282.702 272.708 282.682 273.308C282.652 274.288 282.482 275.358 282.302 276.408C282.222 276.868 282.132 277.338 282.032 277.818C282.752 276.218 283.452 275.188 284.242 274.218C285.112 273.148 286.092 272.498 287.112 272.498C288.182 272.498 288.722 273.298 288.722 274.408C288.722 275.278 288.522 276.048 288.222 277.688C287.942 279.208 287.922 279.838 288.012 280.338C288.082 280.738 288.272 280.888 288.522 280.968C288.752 281.038 288.902 281.198 288.902 281.488C288.902 281.848 288.592 282.068 288.222 282.068C287.682 282.068 287.072 281.728 286.832 280.868C286.712 280.428 286.602 279.638 286.812 278.258C287.082 276.518 287.392 275.328 287.392 274.738C287.392 274.238 287.172 273.868 286.762 273.868C286.282 273.868 285.482 274.488 284.772 275.398C283.722 276.758 282.862 277.988 281.862 280.328C281.732 281.568 281.352 282.088 280.912 282.088ZM294.452 282.198C291.732 282.198 290.132 279.578 290.962 276.478C291.612 274.068 293.622 272.458 295.592 272.458C297.362 272.458 298.352 273.528 298.262 274.968C298.152 276.768 296.292 277.968 292.992 277.968C292.682 277.968 292.362 277.958 292.032 277.938C291.972 279.718 292.952 281.038 294.522 281.038C295.362 281.038 296.402 280.758 297.072 280.088C297.602 279.558 298.272 280.148 297.852 280.738C297.052 281.878 295.512 282.198 294.452 282.198ZM292.662 276.968C295.332 276.968 296.832 276.108 296.912 274.968C296.972 274.178 296.412 273.628 295.542 273.628C294.122 273.628 292.652 274.878 292.172 276.958C292.342 276.968 292.502 276.968 292.662 276.968ZM305.189 282.118C304.829 282.118 304.509 281.928 304.509 281.398C304.509 280.468 304.699 278.738 304.839 277.158C304.969 275.708 305.089 274.258 305.159 273.238C305.199 272.638 305.449 272.458 305.809 272.458C306.259 272.458 306.469 272.768 306.469 273.138C306.459 274.078 306.289 275.718 306.159 277.198C306.039 278.608 305.839 280.068 305.779 281.238C305.889 281.798 305.589 282.118 305.189 282.118ZM305.989 270.598C305.489 270.598 305.019 270.248 305.019 269.828C305.019 269.258 305.509 268.908 306.109 268.908C306.689 268.908 307.029 269.258 307.029 269.778C307.029 270.288 306.519 270.598 305.989 270.598ZM311.373 282.288C309.593 282.288 308.263 281.388 308.003 280.118C307.813 279.208 308.973 279.038 309.163 279.788C309.373 280.618 310.203 281.128 311.363 281.128C312.373 281.128 312.883 280.738 312.883 280.028C312.883 279.408 312.063 278.638 311.163 277.908C310.053 276.998 309.183 276.068 309.183 274.958C309.183 274.338 309.473 273.788 309.893 273.318C310.493 272.658 311.493 272.228 312.553 272.228C313.603 272.228 314.613 272.638 315.153 273.318C315.653 273.948 314.903 274.598 314.253 274.048C313.693 273.568 313.163 273.408 312.563 273.408C311.913 273.408 311.283 273.678 310.913 274.078C310.673 274.338 310.523 274.618 310.523 274.938C310.523 275.588 311.293 276.268 312.143 276.988C313.163 277.848 314.253 278.798 314.253 279.968C314.253 281.388 313.093 282.288 311.373 282.288ZM322.313 282.138C321.953 282.138 321.673 281.898 321.683 281.308C321.703 279.598 321.903 276.658 322.223 274.128L321.063 274.238C320.623 274.278 320.353 274.018 320.353 273.648C320.353 273.328 320.523 273.148 321.003 273.038C321.393 272.948 321.873 272.868 322.413 272.818C322.513 272.188 322.613 271.608 322.733 271.108C323.273 268.788 324.183 267.658 325.783 267.658C326.813 267.658 327.503 268.198 327.803 268.728C327.943 268.978 327.953 269.218 327.843 269.368C327.693 269.578 327.403 269.648 327.193 269.438C326.903 269.148 326.553 268.828 325.903 268.828C324.883 268.828 324.293 269.638 323.933 271.608C323.863 271.968 323.803 272.348 323.743 272.728C324.103 272.718 324.453 272.708 324.783 272.708C325.333 272.708 325.843 272.728 326.273 272.758C326.603 272.778 326.803 272.978 326.803 273.278C326.803 273.538 326.673 273.828 326.203 273.858C325.643 273.888 324.573 273.918 323.573 274.008C323.233 276.728 323.093 279.568 322.993 281.328C322.963 281.898 322.723 282.138 322.313 282.138ZM330.098 281.988C329.208 281.988 328.438 281.478 328.158 280.328C327.908 279.298 327.918 277.538 328.198 275.058C328.478 272.558 328.918 270.428 329.348 268.668C329.438 268.288 329.698 268.078 330.038 268.078C330.538 268.078 330.738 268.478 330.628 268.988C330.248 270.708 329.818 272.578 329.558 275.098C329.318 277.458 329.248 279.028 329.398 279.838C329.548 280.638 330.028 280.798 330.478 280.888C330.918 280.978 331.218 281.068 331.218 281.308C331.218 281.678 330.828 281.988 330.098 281.988ZM340.208 282.208C340.098 282.208 339.978 282.188 339.868 282.148C339.478 281.988 339.188 281.688 339.008 281.288C338.778 280.778 338.678 280.078 338.678 279.368C338.678 279.228 338.678 279.088 338.688 278.938C338.418 279.518 338.148 279.998 337.848 280.388C336.968 281.548 336.058 281.958 335.108 281.958C333.598 281.958 332.498 280.728 332.498 278.678C332.498 277.438 332.928 276.178 333.548 275.148C334.438 273.668 335.848 272.708 337.508 272.708C338.408 272.708 339.318 272.928 340.018 273.388C340.308 273.578 340.428 273.838 340.408 274.028C340.508 274.158 340.558 274.328 340.518 274.558C340.188 276.648 339.988 278.278 339.988 279.388C339.988 279.908 340.028 280.308 340.128 280.598C340.208 280.818 340.308 280.978 340.468 281.068C341.108 281.448 340.858 282.208 340.208 282.208ZM335.328 280.708C335.938 280.708 336.538 280.328 337.078 279.628C337.848 278.628 338.498 277.008 339.188 274.298C339.198 274.248 339.218 274.198 339.238 274.158C338.658 273.948 338.108 273.828 337.568 273.828C336.388 273.828 335.438 274.508 334.778 275.578C334.208 276.508 333.878 277.618 333.878 278.628C333.878 279.938 334.448 280.708 335.328 280.708ZM346.213 282.088C344.673 282.088 343.723 281.318 343.633 279.448C343.563 278.068 343.793 276.068 344.103 274.248L343.243 274.298C342.833 274.318 342.493 274.158 342.493 273.738C342.493 273.398 342.753 273.198 343.213 273.118C343.413 273.088 343.813 273.038 344.333 272.988C344.493 272.158 344.663 271.418 344.813 270.868C344.933 270.438 345.143 270.178 345.533 270.178C345.883 270.178 346.203 270.458 346.043 271.168C345.943 271.618 345.813 272.208 345.693 272.868C346.803 272.788 347.893 272.758 348.273 272.758C348.733 272.758 348.963 272.978 348.963 273.298C348.963 273.518 348.863 273.798 348.393 273.858C347.873 273.928 346.823 274.018 345.463 274.128C345.163 275.938 344.903 277.978 344.983 279.288C345.053 280.488 345.413 280.928 346.323 280.928C346.703 280.928 347.253 280.798 347.863 280.548C348.223 280.398 348.443 280.618 348.443 280.888C348.443 281.088 348.383 281.248 348.253 281.368C347.773 281.818 347.043 282.088 346.213 282.088Z" fill="white"/>
<path d="M313.811 112.958C313.792 112.683 313.553 112.475 313.277 112.494L308.788 112.807C308.513 112.826 308.305 113.065 308.324 113.341C308.343 113.616 308.582 113.824 308.858 113.805L312.848 113.526L313.126 117.517C313.145 117.792 313.384 118 313.66 117.981C313.935 117.962 314.143 117.723 314.124 117.447L313.811 112.958ZM312.935 112.665C292.497 136.166 280.749 155.875 273.896 173.959C267.041 192.045 265.093 208.477 264.221 225.398L265.22 225.45C266.09 208.576 268.029 192.261 274.831 174.313C281.633 156.365 293.31 136.755 313.689 113.321L312.935 112.665Z" fill="white"/>
</g>
<defs>
<clipPath id="clip0_646_6104">
<rect width="640.447" height="306.577" fill="white"/>
</clipPath>
<clipPath id="clip1_646_6104">
<rect width="200.655" height="42.084" fill="white" transform="translate(206.149 29.717)"/>
</clipPath>
</defs>
</svg>
