<svg width="641" height="307" viewBox="0 0 641 307" fill="none" xmlns="http://www.w3.org/2000/svg">
<g clip-path="url(#clip0_621_2392)">
<path d="M640.002 0.5H0.00195312V306.077H640.002V0.5Z" fill="black"/>
<path d="M0.00195312 153.289H640.002" stroke="#F0F0F0" stroke-miterlimit="203.718"/>
<path d="M320.002 0.5V306.077" stroke="#F0F0F0" stroke-miterlimit="203.718"/>
<path d="M4.23877 0.5V306.077" stroke="#181818" stroke-miterlimit="203.718"/>
<path d="M9.33203 0.5V306.077" stroke="#181818" stroke-miterlimit="203.718"/>
<path d="M19.5181 0.5V306.077" stroke="#181818" stroke-miterlimit="203.718"/>
<path d="M24.6108 0.5V306.077" stroke="#181818" stroke-miterlimit="203.718"/>
<path d="M29.7041 0.5V306.077" stroke="#181818" stroke-miterlimit="203.718"/>
<path d="M34.7969 0.5V306.077" stroke="#181818" stroke-miterlimit="203.718"/>
<path d="M44.9829 0.5V306.077" stroke="#181818" stroke-miterlimit="203.718"/>
<path d="M50.0762 0.5V306.077" stroke="#181818" stroke-miterlimit="203.718"/>
<path d="M55.1689 0.5V306.077" stroke="#181818" stroke-miterlimit="203.718"/>
<path d="M60.2617 0.5V306.077" stroke="#181818" stroke-miterlimit="203.718"/>
<path d="M70.4468 0.5V306.077" stroke="#181818" stroke-miterlimit="203.718"/>
<path d="M75.54 0.5V306.077" stroke="#181818" stroke-miterlimit="203.718"/>
<path d="M80.6328 0.5V306.077" stroke="#181818" stroke-miterlimit="203.718"/>
<path d="M85.7261 0.5V306.077" stroke="#181818" stroke-miterlimit="203.718"/>
<path d="M95.9121 0.5V306.077" stroke="#181818" stroke-miterlimit="203.718"/>
<path d="M101.005 0.5V306.077" stroke="#181818" stroke-miterlimit="203.718"/>
<path d="M106.098 0.5V306.077" stroke="#181818" stroke-miterlimit="203.718"/>
<path d="M111.191 0.5V306.077" stroke="#181818" stroke-miterlimit="203.718"/>
<path d="M121.377 0.5V306.077" stroke="#181818" stroke-miterlimit="203.718"/>
<path d="M126.47 0.5V306.077" stroke="#181818" stroke-miterlimit="203.718"/>
<path d="M131.563 0.5V306.077" stroke="#181818" stroke-miterlimit="203.718"/>
<path d="M136.656 0.5V306.077" stroke="#181818" stroke-miterlimit="203.718"/>
<path d="M146.842 0.5V306.077" stroke="#181818" stroke-miterlimit="203.718"/>
<path d="M151.935 0.5V306.077" stroke="#181818" stroke-miterlimit="203.718"/>
<path d="M157.028 0.5V306.077" stroke="#181818" stroke-miterlimit="203.718"/>
<path d="M162.121 0.5V306.077" stroke="#181818" stroke-miterlimit="203.718"/>
<path d="M172.307 0.5V306.077" stroke="#181818" stroke-miterlimit="203.718"/>
<path d="M177.4 0.5V306.077" stroke="#181818" stroke-miterlimit="203.718"/>
<path d="M182.493 0.5V306.077" stroke="#181818" stroke-miterlimit="203.718"/>
<path d="M187.585 0.5V306.077" stroke="#181818" stroke-miterlimit="203.718"/>
<path d="M197.771 0.5V306.077" stroke="#181818" stroke-miterlimit="203.718"/>
<path d="M202.864 0.5V306.077" stroke="#181818" stroke-miterlimit="203.718"/>
<path d="M207.957 0.5V306.077" stroke="#181818" stroke-miterlimit="203.718"/>
<path d="M213.05 0.5V306.077" stroke="#181818" stroke-miterlimit="203.718"/>
<path d="M223.236 0.5V306.077" stroke="#181818" stroke-miterlimit="203.718"/>
<path d="M228.329 0.5V306.077" stroke="#181818" stroke-miterlimit="203.718"/>
<path d="M233.422 0.5V306.077" stroke="#181818" stroke-miterlimit="203.718"/>
<path d="M238.515 0.5V306.077" stroke="#181818" stroke-miterlimit="203.718"/>
<path d="M248.701 0.5V306.077" stroke="#181818" stroke-miterlimit="203.718"/>
<path d="M253.794 0.5V306.077" stroke="#181818" stroke-miterlimit="203.718"/>
<path d="M258.887 0.5V306.077" stroke="#181818" stroke-miterlimit="203.718"/>
<path d="M263.98 0.5V306.077" stroke="#181818" stroke-miterlimit="203.718"/>
<path d="M274.166 0.5V306.077" stroke="#181818" stroke-miterlimit="203.718"/>
<path d="M279.259 0.5V306.077" stroke="#181818" stroke-miterlimit="203.718"/>
<path d="M284.352 0.5V306.077" stroke="#181818" stroke-miterlimit="203.718"/>
<path d="M289.445 0.5V306.077" stroke="#181818" stroke-miterlimit="203.718"/>
<path d="M299.631 0.5V306.077" stroke="#181818" stroke-miterlimit="203.718"/>
<path d="M304.723 0.5V306.077" stroke="#181818" stroke-miterlimit="203.718"/>
<path d="M309.816 0.5V306.077" stroke="#181818" stroke-miterlimit="203.718"/>
<path d="M314.909 0.5V306.077" stroke="#181818" stroke-miterlimit="203.718"/>
<path d="M325.095 0.5V306.077" stroke="#181818" stroke-miterlimit="203.718"/>
<path d="M330.188 0.5V306.077" stroke="#181818" stroke-miterlimit="203.718"/>
<path d="M335.281 0.5V306.077" stroke="#181818" stroke-miterlimit="203.718"/>
<path d="M340.374 0.5V306.077" stroke="#181818" stroke-miterlimit="203.718"/>
<path d="M350.56 0.5V306.077" stroke="#181818" stroke-miterlimit="203.718"/>
<path d="M355.653 0.5V306.077" stroke="#181818" stroke-miterlimit="203.718"/>
<path d="M360.746 0.5V306.077" stroke="#181818" stroke-miterlimit="203.718"/>
<path d="M365.839 0.5V306.077" stroke="#181818" stroke-miterlimit="203.718"/>
<path d="M376.025 0.5V306.077" stroke="#181818" stroke-miterlimit="203.718"/>
<path d="M381.118 0.5V306.077" stroke="#181818" stroke-miterlimit="203.718"/>
<path d="M386.211 0.5V306.077" stroke="#181818" stroke-miterlimit="203.718"/>
<path d="M391.304 0.5V306.077" stroke="#181818" stroke-miterlimit="203.718"/>
<path d="M401.49 0.5V306.077" stroke="#181818" stroke-miterlimit="203.718"/>
<path d="M406.583 0.5V306.077" stroke="#181818" stroke-miterlimit="203.718"/>
<path d="M411.676 0.5V306.077" stroke="#181818" stroke-miterlimit="203.718"/>
<path d="M416.769 0.5V306.077" stroke="#181818" stroke-miterlimit="203.718"/>
<path d="M426.954 0.5V306.077" stroke="#181818" stroke-miterlimit="203.718"/>
<path d="M432.047 0.5V306.077" stroke="#181818" stroke-miterlimit="203.718"/>
<path d="M437.14 0.5V306.077" stroke="#181818" stroke-miterlimit="203.718"/>
<path d="M442.233 0.5V306.077" stroke="#181818" stroke-miterlimit="203.718"/>
<path d="M452.419 0.5V306.077" stroke="#181818" stroke-miterlimit="203.718"/>
<path d="M457.512 0.5V306.077" stroke="#181818" stroke-miterlimit="203.718"/>
<path d="M462.605 0.5V306.077" stroke="#181818" stroke-miterlimit="203.718"/>
<path d="M467.698 0.5V306.077" stroke="#181818" stroke-miterlimit="203.718"/>
<path d="M477.884 0.5V306.077" stroke="#181818" stroke-miterlimit="203.718"/>
<path d="M482.977 0.5V306.077" stroke="#181818" stroke-miterlimit="203.718"/>
<path d="M488.07 0.5V306.077" stroke="#181818" stroke-miterlimit="203.718"/>
<path d="M493.163 0.5V306.077" stroke="#181818" stroke-miterlimit="203.718"/>
<path d="M503.349 0.5V306.077" stroke="#181818" stroke-miterlimit="203.718"/>
<path d="M508.442 0.5V306.077" stroke="#181818" stroke-miterlimit="203.718"/>
<path d="M513.535 0.5V306.077" stroke="#181818" stroke-miterlimit="203.718"/>
<path d="M518.628 0.5V306.077" stroke="#181818" stroke-miterlimit="203.718"/>
<path d="M528.814 0.5V306.077" stroke="#181818" stroke-miterlimit="203.718"/>
<path d="M533.907 0.5V306.077" stroke="#181818" stroke-miterlimit="203.718"/>
<path d="M539 0.5V306.077" stroke="#181818" stroke-miterlimit="203.718"/>
<path d="M544.093 0.5V306.077" stroke="#181818" stroke-miterlimit="203.718"/>
<path d="M554.278 0.5V306.077" stroke="#181818" stroke-miterlimit="203.718"/>
<path d="M559.371 0.5V306.077" stroke="#181818" stroke-miterlimit="203.718"/>
<path d="M564.464 0.5V306.077" stroke="#181818" stroke-miterlimit="203.718"/>
<path d="M569.557 0.5V306.077" stroke="#181818" stroke-miterlimit="203.718"/>
<path d="M579.743 0.5V306.077" stroke="#181818" stroke-miterlimit="203.718"/>
<path d="M584.836 0.5V306.077" stroke="#181818" stroke-miterlimit="203.718"/>
<path d="M589.929 0.5V306.077" stroke="#181818" stroke-miterlimit="203.718"/>
<path d="M595.022 0.5V306.077" stroke="#181818" stroke-miterlimit="203.718"/>
<path d="M605.208 0.5V306.077" stroke="#181818" stroke-miterlimit="203.718"/>
<path d="M610.301 0.5V306.077" stroke="#181818" stroke-miterlimit="203.718"/>
<path d="M615.394 0.5V306.077" stroke="#181818" stroke-miterlimit="203.718"/>
<path d="M620.487 0.5V306.077" stroke="#181818" stroke-miterlimit="203.718"/>
<path d="M630.673 0.5V306.077" stroke="#181818" stroke-miterlimit="203.718"/>
<path d="M635.766 0.5V306.077" stroke="#181818" stroke-miterlimit="203.718"/>
<path d="M0.00195312 5.59277H640.002" stroke="#181818" stroke-miterlimit="203.718"/>
<path d="M0.00195312 10.686H640.002" stroke="#181818" stroke-miterlimit="203.718"/>
<path d="M0.00195312 15.7788H640.002" stroke="#181818" stroke-miterlimit="203.718"/>
<path d="M0.00195312 20.8721H640.002" stroke="#181818" stroke-miterlimit="203.718"/>
<path d="M0.00195312 31.0581H640.002" stroke="#181818" stroke-miterlimit="203.718"/>
<path d="M0.00195312 36.1509H640.002" stroke="#181818" stroke-miterlimit="203.718"/>
<path d="M0.00195312 41.2441H640.002" stroke="#181818" stroke-miterlimit="203.718"/>
<path d="M0.00195312 46.3369H640.002" stroke="#181818" stroke-miterlimit="203.718"/>
<path d="M0.00195312 56.5229H640.002" stroke="#181818" stroke-miterlimit="203.718"/>
<path d="M0.00195312 61.6152H640.002" stroke="#181818" stroke-miterlimit="203.718"/>
<path d="M0.00195312 66.708H640.002" stroke="#181818" stroke-miterlimit="203.718"/>
<path d="M0.00195312 71.8008H640.002" stroke="#181818" stroke-miterlimit="203.718"/>
<path d="M0.00195312 81.9868H640.002" stroke="#181818" stroke-miterlimit="203.718"/>
<path d="M0.00195312 87.0801H640.002" stroke="#181818" stroke-miterlimit="203.718"/>
<path d="M0.00195312 92.1729H640.002" stroke="#181818" stroke-miterlimit="203.718"/>
<path d="M0.00195312 97.2661H640.002" stroke="#181818" stroke-miterlimit="203.718"/>
<path d="M0.00195312 107.452H640.002" stroke="#181818" stroke-miterlimit="203.718"/>
<path d="M0.00195312 112.545H640.002" stroke="#181818" stroke-miterlimit="203.718"/>
<path d="M0.00195312 117.638H640.002" stroke="#181818" stroke-miterlimit="203.718"/>
<path d="M0.00195312 122.731H640.002" stroke="#181818" stroke-miterlimit="203.718"/>
<path d="M0.00195312 132.917H640.002" stroke="#181818" stroke-miterlimit="203.718"/>
<path d="M0.00195312 138.01H640.002" stroke="#181818" stroke-miterlimit="203.718"/>
<path d="M0.00195312 143.103H640.002" stroke="#181818" stroke-miterlimit="203.718"/>
<path d="M0.00195312 148.196H640.002" stroke="#181818" stroke-miterlimit="203.718"/>
<path d="M0.00195312 158.382H640.002" stroke="#181818" stroke-miterlimit="203.718"/>
<path d="M0.00195312 163.475H640.002" stroke="#181818" stroke-miterlimit="203.718"/>
<path d="M0.00195312 168.568H640.002" stroke="#181818" stroke-miterlimit="203.718"/>
<path d="M0.00195312 173.661H640.002" stroke="#181818" stroke-miterlimit="203.718"/>
<path d="M0.00195312 183.846H640.002" stroke="#181818" stroke-miterlimit="203.718"/>
<path d="M0.00195312 188.939H640.002" stroke="#181818" stroke-miterlimit="203.718"/>
<path d="M0.00195312 194.032H640.002" stroke="#181818" stroke-miterlimit="203.718"/>
<path d="M0.00195312 199.125H640.002" stroke="#181818" stroke-miterlimit="203.718"/>
<path d="M0.00195312 209.311H640.002" stroke="#181818" stroke-miterlimit="203.718"/>
<path d="M0.00195312 214.404H640.002" stroke="#181818" stroke-miterlimit="203.718"/>
<path d="M0.00195312 219.497H640.002" stroke="#181818" stroke-miterlimit="203.718"/>
<path d="M0.00195312 224.59H640.002" stroke="#181818" stroke-miterlimit="203.718"/>
<path d="M0.00195312 234.776H640.002" stroke="#181818" stroke-miterlimit="203.718"/>
<path d="M0.00195312 239.869H640.002" stroke="#181818" stroke-miterlimit="203.718"/>
<path d="M0.00195312 244.962H640.002" stroke="#181818" stroke-miterlimit="203.718"/>
<path d="M0.00195312 250.055H640.002" stroke="#181818" stroke-miterlimit="203.718"/>
<path d="M0.00195312 260.241H640.002" stroke="#181818" stroke-miterlimit="203.718"/>
<path d="M0.00195312 265.334H640.002" stroke="#181818" stroke-miterlimit="203.718"/>
<path d="M0.00195312 270.427H640.002" stroke="#181818" stroke-miterlimit="203.718"/>
<path d="M0.00195312 275.52H640.002" stroke="#181818" stroke-miterlimit="203.718"/>
<path d="M0.00195312 285.706H640.002" stroke="#181818" stroke-miterlimit="203.718"/>
<path d="M0.00195312 290.799H640.002" stroke="#181818" stroke-miterlimit="203.718"/>
<path d="M0.00195312 295.892H640.002" stroke="#181818" stroke-miterlimit="203.718"/>
<path d="M0.00195312 300.985H640.002" stroke="#181818" stroke-miterlimit="203.718"/>
<path d="M39.8901 0.5V306.077" stroke="#262626" stroke-miterlimit="203.718"/>
<path d="M90.8188 0.5V306.077" stroke="#262626" stroke-miterlimit="203.718"/>
<path d="M141.749 0.5V306.077" stroke="#262626" stroke-miterlimit="203.718"/>
<path d="M192.678 0.5V306.077" stroke="#262626" stroke-miterlimit="203.718"/>
<path d="M243.608 0.5V306.077" stroke="#262626" stroke-miterlimit="203.718"/>
<path d="M294.538 0.5V306.077" stroke="#262626" stroke-miterlimit="203.718"/>
<path d="M345.467 0.5V306.077" stroke="#262626" stroke-miterlimit="203.718"/>
<path d="M396.397 0.5V306.077" stroke="#262626" stroke-miterlimit="203.718"/>
<path d="M447.326 0.5V306.077" stroke="#262626" stroke-miterlimit="203.718"/>
<path d="M498.256 0.5V306.077" stroke="#262626" stroke-miterlimit="203.718"/>
<path d="M549.185 0.5V306.077" stroke="#262626" stroke-miterlimit="203.718"/>
<path d="M600.115 0.5V306.077" stroke="#262626" stroke-miterlimit="203.718"/>
<path d="M0.00195312 25.9648H640.002" stroke="#262626" stroke-miterlimit="203.718"/>
<path d="M0.00195312 76.894H640.002" stroke="#262626" stroke-miterlimit="203.718"/>
<path d="M0.00195312 127.824H640.002" stroke="#262626" stroke-miterlimit="203.718"/>
<path d="M0.00195312 178.754H640.002" stroke="#262626" stroke-miterlimit="203.718"/>
<path d="M0.00195312 229.683H640.002" stroke="#262626" stroke-miterlimit="203.718"/>
<path d="M0.00195312 280.613H640.002" stroke="#262626" stroke-miterlimit="203.718"/>
<path d="M14.4248 0.5V306.077" stroke="#404040" stroke-miterlimit="203.718"/>
<path d="M65.354 0.5V306.077" stroke="#404040" stroke-miterlimit="203.718"/>
<path d="M116.284 0.5V306.077" stroke="#404040" stroke-miterlimit="203.718"/>
<path d="M167.214 0.5V306.077" stroke="#404040" stroke-miterlimit="203.718"/>
<path d="M218.143 0.5V306.077" stroke="#404040" stroke-miterlimit="203.718"/>
<path d="M269.073 0.5V306.077" stroke="#404040" stroke-miterlimit="203.718"/>
<path d="M320.002 0.5V306.077" stroke="#404040" stroke-miterlimit="203.718"/>
<path d="M370.932 0.5V306.077" stroke="#404040" stroke-miterlimit="203.718"/>
<path d="M421.862 0.5V306.077" stroke="#404040" stroke-miterlimit="203.718"/>
<path d="M472.791 0.5V306.077" stroke="#404040" stroke-miterlimit="203.718"/>
<path d="M523.721 0.5V306.077" stroke="#404040" stroke-miterlimit="203.718"/>
<path d="M574.65 0.5V306.077" stroke="#404040" stroke-miterlimit="203.718"/>
<path d="M625.58 0.5V306.077" stroke="#404040" stroke-miterlimit="203.718"/>
<path d="M0.00195312 0.5H640.002" stroke="#404040" stroke-miterlimit="203.718"/>
<path d="M0.00195312 51.4302H640.002" stroke="#404040" stroke-miterlimit="203.718"/>
<path d="M0.00195312 102.359H640.002" stroke="#404040" stroke-miterlimit="203.718"/>
<path d="M0.00195312 153.289H640.002" stroke="#404040" stroke-miterlimit="203.718"/>
<path d="M0.00195312 204.218H640.002" stroke="#404040" stroke-miterlimit="203.718"/>
<path d="M0.00195312 255.148H640.002" stroke="#404040" stroke-miterlimit="203.718"/>
<path d="M0.00195312 306.077H640.002" stroke="#404040" stroke-miterlimit="203.718"/>
<path d="M6.03516 153.282H633.965" stroke="#A0A0A0" stroke-miterlimit="203.718"/>
<path d="M0 153.282C2.84 154.336 6.363 156.134 8.547 158.038L6.827 153.282L8.547 148.527C6.363 150.431 2.839 152.229 0 153.282Z" fill="#A0A0A0"/>
<path d="M640 153.282C637.16 154.336 633.637 156.134 631.453 158.038L633.173 153.282L631.453 148.527C633.637 150.431 637.161 152.229 640 153.282Z" fill="#A0A0A0"/>
<path d="M320 6.53516V300.042" stroke="#A0A0A0" stroke-miterlimit="203.718"/>
<path d="M320.001 0.5C318.947 3.34 317.149 6.863 315.245 9.047L320.001 7.327L324.756 9.047C322.852 6.863 321.054 3.339 320.001 0.5Z" fill="#A0A0A0"/>
<path d="M320.001 306.077C318.947 303.237 317.149 299.714 315.245 297.53L320.001 299.25L324.756 297.53C322.852 299.714 321.054 303.238 320.001 306.077Z" fill="#A0A0A0"/>
<path d="M0.00195312 102.359C62.344 102.654 106.373 216.558 170.669 203.105C214.641 193.641 250.314 131.773 291.558 110.098C310.535 99.8319 329.47 99.8309 348.447 110.098C389.728 131.804 425.353 193.635 469.336 203.105C533.623 216.561 577.67 102.649 640.003 102.359" stroke="#F0F0F0" stroke-width="1.5" stroke-miterlimit="203.718"/>
<path d="M121.671 0.5C128.301 39.144 135.652 77.972 147.558 115.385C154.904 136.983 170.18 182.808 199.114 178.47C216.449 175.732 233.551 158.041 246.225 146.453C261.32 132.386 276.304 117.361 295.114 108.32C311.498 100.424 328.51 100.424 344.892 108.32C364.441 117.734 379.851 133.533 395.559 148.125C407.862 159.351 424.062 175.785 440.892 178.47C469.838 182.799 485.083 137.013 492.448 115.385C504.353 77.971 511.706 39.144 518.335 0.5" stroke="#58C4DD" stroke-width="1.5" stroke-miterlimit="203.718"/>
<path d="M488.086 26.5947H244.26V76.2104H488.086V26.5947Z" fill="black"/>
<g clip-path="url(#clip1_621_2392)">
<path d="M258.537 51.1144C258.537 51.1144 258.395 51.1144 258.109 51.1144C257.824 51.1144 257.58 51.0126 257.377 50.809C257.173 50.6054 257.064 50.3475 257.051 50.0353C257.051 49.7231 257.153 49.4652 257.356 49.2615C257.424 49.1937 257.458 49.153 257.458 49.1394C257.458 49.1258 257.39 49.1122 257.254 49.0987C256.901 49.0444 256.569 49.0172 256.257 49.0172C255.592 49.0172 255.049 49.2344 254.628 49.6688C253.99 50.3067 253.671 51.3723 253.671 52.8654C253.671 53.9785 253.881 54.854 254.302 55.492C254.859 56.32 255.605 56.734 256.542 56.734C257.098 56.734 257.546 56.5575 257.886 56.2046C258.225 55.8517 258.469 55.4309 258.619 54.9422C258.646 54.8337 258.68 54.7658 258.72 54.7386C258.761 54.7115 258.87 54.6979 259.046 54.6979H259.331C259.413 54.7794 259.453 54.8404 259.453 54.8812C259.453 54.9355 259.426 55.0441 259.372 55.2069C259.318 55.3698 259.209 55.5938 259.046 55.8788C258.883 56.1639 258.686 56.4218 258.456 56.6526C258.225 56.8833 257.899 57.0937 257.478 57.2838C257.058 57.4738 256.589 57.562 256.073 57.5484C254.906 57.5484 253.888 57.1141 253.019 56.2453C252.151 55.3766 251.709 54.2839 251.696 52.9672C251.696 51.5555 252.137 50.4085 253.019 49.5262C253.902 48.6439 254.926 48.2028 256.094 48.2028C257.261 48.2028 258.076 48.386 258.537 48.7525C258.999 49.119 259.229 49.5534 259.229 50.0556C259.229 50.3678 259.114 50.6189 258.883 50.809L258.537 51.1144Z" fill="white"/>
<path d="M260.614 52.9675C260.614 51.6779 261.055 50.5649 261.937 49.6283C262.82 48.6917 263.885 48.2166 265.134 48.203C266.356 48.203 267.408 48.6645 268.29 49.5876C269.172 50.5106 269.62 51.6304 269.634 52.9471C269.634 54.2366 269.199 55.3226 268.331 56.2049C267.462 57.0872 266.396 57.5283 265.134 57.5283C263.817 57.5283 262.738 57.0736 261.897 56.1641C261.055 55.2547 260.627 54.1891 260.614 52.9675ZM265.134 56.7139C266.79 56.7139 267.618 55.6076 267.618 53.395V52.7435V52.2345C267.618 51.9358 267.611 51.6779 267.598 51.4608C267.584 51.2436 267.536 50.9857 267.455 50.687C267.374 50.3884 267.265 50.1441 267.129 49.954C266.994 49.764 266.783 49.574 266.498 49.3839C266.213 49.1939 265.88 49.0582 265.5 48.9767C265.433 48.9631 265.324 48.9564 265.175 48.9564C264.767 48.9564 264.381 49.0378 264.014 49.2007C263.43 49.4993 263.05 49.9133 262.874 50.4427C262.697 50.9721 262.609 51.5965 262.609 52.3159V52.7231C262.609 54.0262 262.738 54.9425 262.996 55.4719C263.43 56.2999 264.143 56.7139 265.134 56.7139Z" fill="white"/>
<path d="M276.231 50.8903C276.231 50.3474 276.047 49.879 275.681 49.4854C275.314 49.0918 274.785 48.8949 274.093 48.8949C273.604 48.8949 273.183 48.9832 272.83 49.1596C272.423 49.4175 272.219 49.7705 272.219 50.2184C272.206 50.2863 272.206 50.3745 272.219 50.4831C272.233 50.5917 272.342 50.7546 272.545 50.9718C272.749 51.1889 273.041 51.3586 273.421 51.4808C273.665 51.5486 273.964 51.6097 274.317 51.664C274.67 51.7183 274.968 51.7794 275.213 51.8473C275.457 51.9151 275.674 52.0034 275.864 52.112C276.095 52.2206 276.319 52.3563 276.536 52.5192C276.753 52.6821 276.97 52.9603 277.188 53.354C277.405 53.7476 277.52 54.1684 277.534 54.6164C277.534 55.4579 277.276 56.1502 276.76 56.6932C276.244 57.2361 275.409 57.5144 274.256 57.528H274.093C273.387 57.528 272.735 57.2836 272.138 56.795L271.975 56.9375L271.792 57.1208C271.71 57.2022 271.629 57.2769 271.548 57.3447L271.324 57.5483H271.161H271.079C271.039 57.5483 270.977 57.5076 270.896 57.4262V55.8177V54.6367C270.896 54.3517 270.91 54.182 270.937 54.1277C270.964 54.0734 271.032 54.0395 271.14 54.0259H271.324C271.486 54.0259 271.595 54.053 271.649 54.1073C271.704 54.1616 271.738 54.2431 271.751 54.3517C271.765 54.4603 271.812 54.6435 271.894 54.9014C271.975 55.1593 272.104 55.4444 272.281 55.7566C272.756 56.4488 273.414 56.795 274.256 56.795C275.572 56.795 276.231 56.2656 276.231 55.2068C276.231 54.8132 276.108 54.4942 275.864 54.2499C275.593 53.9241 275.029 53.6798 274.174 53.5169C273.319 53.354 272.756 53.1979 272.484 53.0486C271.995 52.8178 271.609 52.5056 271.324 52.112C271.039 51.7183 270.896 51.2975 270.896 50.8496C270.896 50.3202 271.011 49.8723 271.242 49.5058C271.473 49.1393 271.765 48.8678 272.118 48.6913C272.471 48.5149 272.81 48.3927 273.136 48.3248C273.461 48.257 273.76 48.223 274.032 48.223H274.256C274.799 48.223 275.274 48.3248 275.681 48.5284L275.986 48.6913L276.169 48.5488C276.305 48.4266 276.455 48.3113 276.617 48.2027H276.78H276.862C276.902 48.2027 276.964 48.2434 277.045 48.3248V51.0125L276.923 51.1346H276.353C276.271 51.0532 276.231 50.9718 276.231 50.8903Z" fill="white"/>
<path d="M280.16 52.2341C280.16 51.2975 280.228 50.4084 280.364 49.5668C280.5 48.7252 280.656 47.999 280.832 47.3882C281.009 46.7773 281.26 46.1801 281.585 45.5964C281.911 45.0127 282.169 44.558 282.359 44.2322C282.549 43.9065 282.834 43.5535 283.214 43.1735C283.594 42.7934 283.818 42.5626 283.886 42.4812C283.954 42.3997 284.124 42.2572 284.395 42.0536H284.66H284.741C284.931 42.0536 285.026 42.1147 285.026 42.2369C285.026 42.2776 284.911 42.4201 284.68 42.6644C284.45 42.9088 284.171 43.2685 283.845 43.7436C283.52 44.2187 283.187 44.8023 282.848 45.4946C282.508 46.1869 282.223 47.1235 281.993 48.3044C281.762 49.4853 281.647 50.7952 281.647 52.2341C281.647 53.6729 281.762 54.976 281.993 56.1434C282.223 57.3107 282.502 58.2541 282.827 58.9736C283.153 59.693 283.486 60.2767 283.825 60.7246C284.164 61.1725 284.45 61.5322 284.68 61.8037C284.911 62.0752 285.026 62.2177 285.026 62.2313C285.026 62.3535 284.925 62.4146 284.721 62.4146H284.66H284.395L283.825 61.9259C282.549 60.7721 281.619 59.3333 281.036 57.6094C280.452 55.8855 280.16 54.0937 280.16 52.2341Z" fill="white"/>
<path d="M287.226 51.4401C287.321 50.8699 287.687 50.2116 288.325 49.465C288.963 48.7185 289.75 48.3384 290.687 48.3248C291.162 48.3248 291.596 48.447 291.99 48.6913C292.384 48.9357 292.675 49.2411 292.866 49.6076C293.436 48.7524 294.121 48.3248 294.922 48.3248C295.424 48.3248 295.859 48.4741 296.225 48.7728C296.592 49.0714 296.782 49.4718 296.795 49.9741C296.795 50.3677 296.7 50.6867 296.51 50.931C296.32 51.1754 296.137 51.3247 295.96 51.379C295.784 51.4333 295.628 51.4604 295.492 51.4604C295.234 51.4604 295.024 51.3858 294.861 51.2364C294.698 51.0871 294.617 50.8903 294.617 50.646C294.617 50.0216 294.956 49.594 295.635 49.3632C295.485 49.1868 295.214 49.0985 294.82 49.0985C294.644 49.0985 294.515 49.1121 294.433 49.1393C293.917 49.3565 293.537 49.8044 293.293 50.4831C292.479 53.4829 292.071 55.234 292.071 55.7362C292.071 56.1163 292.18 56.3878 292.397 56.5507C292.614 56.7135 292.852 56.795 293.11 56.795C293.612 56.795 294.108 56.571 294.596 56.1231C295.085 55.6751 295.417 55.1254 295.594 54.4738C295.635 54.3381 295.675 54.2634 295.716 54.2499C295.757 54.2363 295.865 54.2227 296.042 54.2091H296.123C296.327 54.2091 296.429 54.2634 296.429 54.372C296.429 54.3856 296.415 54.4603 296.388 54.596C296.171 55.3697 295.75 56.0552 295.126 56.6525C294.501 57.2497 293.775 57.5483 292.947 57.5483C291.997 57.5483 291.277 57.1208 290.789 56.2656C290.232 57.1072 289.594 57.528 288.875 57.528H288.753C288.087 57.528 287.612 57.3515 287.327 56.9986C287.042 56.6457 286.893 56.2724 286.879 55.8787C286.879 55.4444 287.008 55.0915 287.266 54.82C287.524 54.5485 287.83 54.4128 288.182 54.4128C288.766 54.4128 289.058 54.6978 289.058 55.2679C289.058 55.5394 288.977 55.7769 288.814 55.9805C288.651 56.1842 288.495 56.3199 288.345 56.3878C288.196 56.4556 288.108 56.4896 288.081 56.4896L288.02 56.5099C288.02 56.5235 288.06 56.5507 288.142 56.5914C288.223 56.6321 288.332 56.6796 288.468 56.7339C288.603 56.7882 288.732 56.8086 288.854 56.795C289.343 56.795 289.764 56.4896 290.117 55.8787C290.239 55.6616 290.395 55.2 290.585 54.4942C290.775 53.7884 290.965 53.0554 291.155 52.2952C291.345 51.5351 291.454 51.0871 291.481 50.9514C291.549 50.5849 291.583 50.3202 291.583 50.1573C291.583 49.7772 291.481 49.5058 291.277 49.3429C291.074 49.18 290.843 49.0985 290.585 49.0985C290.042 49.0985 289.533 49.3157 289.058 49.7501C288.583 50.1845 288.25 50.741 288.06 51.4197C288.033 51.5419 287.999 51.6097 287.959 51.6233C287.918 51.6369 287.809 51.6505 287.633 51.664H287.348C287.266 51.5826 287.226 51.5079 287.226 51.4401Z" fill="white"/>
<path d="M299.035 42.074L299.116 42.0536C299.184 42.0536 299.252 42.0536 299.32 42.0536H299.564L300.134 42.5423C301.41 43.6961 302.34 45.1349 302.924 46.8588C303.508 48.5827 303.799 50.3744 303.799 52.2341C303.799 53.1571 303.732 54.0462 303.596 54.9014C303.46 55.7565 303.304 56.4827 303.127 57.08C302.951 57.6772 302.7 58.2745 302.374 58.8717C302.048 59.469 301.79 59.9237 301.6 60.2359C301.41 60.5481 301.132 60.8943 300.766 61.2743C300.399 61.6544 300.182 61.8784 300.114 61.9462C300.046 62.0141 299.89 62.1431 299.646 62.3331C299.605 62.3738 299.578 62.401 299.564 62.4146H299.32C299.211 62.4146 299.137 62.4146 299.096 62.4146C299.055 62.4146 299.021 62.3942 298.994 62.3535C298.967 62.3127 298.947 62.2517 298.933 62.1702C298.947 62.1566 299.021 62.0684 299.157 61.9055C301.261 59.7201 302.313 56.4963 302.313 52.2341C302.313 47.9719 301.261 44.748 299.157 42.5626C299.021 42.3997 298.947 42.3115 298.933 42.2979C298.933 42.1893 298.967 42.1147 299.035 42.074Z" fill="white"/>
<path d="M312.51 50.8293C312.51 50.2728 312.625 49.7705 312.856 49.3226C313.087 48.8746 313.372 48.5285 313.711 48.2842C314.05 48.0399 314.383 47.8498 314.709 47.7141C315.035 47.5783 315.32 47.5105 315.564 47.5105C315.591 47.5105 315.645 47.5105 315.727 47.5105C315.808 47.5105 315.876 47.5037 315.93 47.4901C316.46 47.4901 316.955 47.5919 317.417 47.7955C317.878 47.9991 318.537 48.3724 319.392 48.9154L320.41 49.5669C321.211 50.042 321.957 50.2796 322.65 50.2796C323.41 50.2796 324.061 50.0827 324.604 49.6891C325.147 49.2954 325.453 48.7593 325.52 48.0806C325.52 47.9313 325.548 47.7955 325.602 47.6734C325.656 47.5512 325.724 47.4901 325.805 47.4901C325.995 47.4901 326.091 47.7005 326.091 48.1213C326.091 49.0172 325.772 49.7909 325.134 50.4424C324.496 51.094 323.681 51.4266 322.69 51.4401C322.134 51.4401 321.543 51.2976 320.919 51.0125C320.294 50.7275 319.751 50.4085 319.29 50.0556C318.828 49.7027 318.285 49.3837 317.661 49.0986C317.037 48.8136 316.467 48.6643 315.951 48.6507C315.136 48.6507 314.464 48.8746 313.935 49.3226C313.406 49.7705 313.121 50.2796 313.08 50.8497C313.053 51.2433 312.958 51.4401 312.795 51.4401C312.605 51.4401 312.51 51.2365 312.51 50.8293ZM312.51 55.5938C312.51 55.0372 312.625 54.535 312.856 54.0871C313.087 53.6391 313.372 53.293 313.711 53.0486C314.05 52.8043 314.383 52.6143 314.709 52.4785C315.035 52.3428 315.32 52.2749 315.564 52.2749C315.591 52.2749 315.645 52.2749 315.727 52.2749C315.808 52.2749 315.876 52.2681 315.93 52.2546C316.46 52.2546 316.955 52.3564 317.417 52.56C317.878 52.7636 318.537 53.1369 319.392 53.6798L320.41 54.3314C321.211 54.8065 321.957 55.044 322.65 55.044C323.41 55.044 324.061 54.8472 324.604 54.4535C325.147 54.0599 325.453 53.5237 325.52 52.845C325.52 52.4514 325.615 52.2546 325.805 52.2546C325.995 52.2546 326.091 52.4717 326.091 52.9061C326.091 53.7749 325.772 54.5418 325.134 55.2069C324.496 55.872 323.681 56.2046 322.69 56.2046C322.134 56.2046 321.543 56.0621 320.919 55.777C320.294 55.492 319.751 55.173 319.29 54.82C318.828 54.4671 318.285 54.1481 317.661 53.8631C317.037 53.578 316.467 53.4287 315.951 53.4151C315.136 53.4151 314.464 53.6391 313.935 54.0871C313.406 54.535 313.121 55.044 313.08 55.6141C313.039 56.0078 312.944 56.2046 312.795 56.2046C312.605 56.2046 312.51 56.001 312.51 55.5938Z" fill="white"/>
<path d="M337.224 45.5556L336.959 45.6574C336.769 45.7253 336.498 45.7931 336.145 45.861C335.792 45.9289 335.398 45.9764 334.964 46.0035H334.577V45.0669H334.964C335.602 45.0398 336.192 44.938 336.735 44.7615C337.278 44.5851 337.658 44.4222 337.876 44.2729C338.093 44.1235 338.283 43.9742 338.446 43.8249C338.473 43.7842 338.554 43.7638 338.69 43.7638C338.812 43.7638 338.928 43.8046 339.036 43.886V49.9739L339.057 56.0822C339.152 56.1772 339.233 56.2383 339.301 56.2654C339.369 56.2926 339.532 56.3197 339.79 56.3469C340.047 56.374 340.468 56.3876 341.052 56.3876H341.581V57.3242H341.357C341.072 57.2835 339.993 57.2631 338.12 57.2631C336.274 57.2631 335.208 57.2835 334.923 57.3242H334.679V56.3876H335.208C335.507 56.3876 335.765 56.3876 335.982 56.3876C336.199 56.3876 336.369 56.3808 336.491 56.3673C336.613 56.3537 336.722 56.3333 336.817 56.3062C336.912 56.279 336.966 56.2654 336.98 56.2654C336.993 56.2654 337.034 56.2315 337.102 56.1636C337.17 56.0958 337.21 56.0686 337.224 56.0822V45.5556Z" fill="white"/>
<path d="M349.302 52.4991C349.302 52.4991 349.302 52.4108 349.302 52.2344C349.302 52.0579 349.397 51.9222 349.587 51.8272H361.417C361.621 51.9358 361.722 52.0715 361.722 52.2344C361.722 52.3973 361.621 52.533 361.417 52.6416H349.587C349.397 52.5466 349.302 52.4108 349.302 52.2344V52.4991Z" fill="white"/>
<path d="M376.773 31.7919L376.508 31.8937C376.318 31.9616 376.047 32.0295 375.694 32.0973C375.341 32.1652 374.947 32.2127 374.513 32.2399H374.126V31.3033H374.513C375.151 31.2761 375.741 31.1743 376.284 30.9978C376.827 30.8214 377.207 30.6585 377.424 30.5092C377.642 30.3599 377.832 30.2106 377.995 30.0612C378.022 30.0205 378.103 30.0002 378.239 30.0002C378.361 30.0002 378.476 30.0409 378.585 30.1223V36.2102L378.605 42.3185C378.7 42.4135 378.782 42.4746 378.85 42.5018C378.918 42.5289 379.08 42.5561 379.338 42.5832C379.596 42.6104 380.017 42.6239 380.601 42.6239H381.13V43.5605H380.906C380.621 43.5198 379.542 43.4995 377.669 43.4995C375.823 43.4995 374.757 43.5198 374.472 43.5605H374.228V42.6239H374.757C375.056 42.6239 375.314 42.6239 375.531 42.6239C375.748 42.6239 375.918 42.6172 376.04 42.6036C376.162 42.59 376.271 42.5696 376.366 42.5425C376.461 42.5154 376.515 42.5018 376.529 42.5018C376.542 42.5018 376.583 42.4678 376.651 42.4C376.719 42.3321 376.759 42.305 376.773 42.3185V31.7919Z" fill="white"/>
<path d="M374.655 62.5571C374.289 62.5571 373.997 62.435 373.78 62.1906C373.563 61.9463 373.454 61.6477 373.454 61.2948C373.454 60.331 373.814 59.4962 374.533 58.7904C375.253 58.0845 376.149 57.7316 377.221 57.7316C378.456 57.7316 379.488 58.1117 380.316 58.8718C381.144 59.632 381.565 60.6161 381.578 61.8242C381.578 62.4078 381.442 62.9644 381.171 63.4937C380.899 64.0231 380.574 64.4846 380.194 64.8783C379.814 65.2719 379.271 65.7742 378.565 66.385C378.076 66.8058 377.397 67.4302 376.529 68.2582L375.327 69.3984L376.875 69.4188C379.006 69.4188 380.139 69.3849 380.275 69.317C380.37 69.2898 380.533 68.6858 380.764 67.5049V67.4438H381.578V67.5049C381.565 67.5456 381.476 68.1632 381.313 69.3577C381.151 70.5522 381.049 71.1766 381.008 71.2309V71.292H373.454V70.9051V70.6608C373.454 70.5658 373.495 70.464 373.576 70.3554C373.658 70.2468 373.861 70.0093 374.187 69.6428C374.581 69.2084 374.92 68.8283 375.205 68.5025C375.327 68.3668 375.558 68.1157 375.897 67.7492C376.237 67.3827 376.468 67.1316 376.59 66.9958C376.712 66.8601 376.909 66.6361 377.18 66.3239C377.452 66.0117 377.642 65.781 377.75 65.6316C377.859 65.4823 378.015 65.2787 378.219 65.0208C378.422 64.7629 378.565 64.5457 378.646 64.3693C378.728 64.1928 378.829 63.996 378.952 63.7788C379.074 63.5616 379.162 63.3444 379.216 63.1273C379.271 62.9101 379.318 62.7065 379.359 62.5164C379.399 62.3264 379.42 62.1024 379.42 61.8445C379.42 60.9894 379.189 60.2496 378.728 59.6252C378.266 59.0008 377.608 58.6886 376.753 58.6886C376.305 58.6886 375.911 58.8039 375.572 59.0347C375.232 59.2655 374.995 59.4894 374.859 59.7066C374.723 59.9238 374.655 60.0527 374.655 60.0935C374.655 60.107 374.689 60.1138 374.757 60.1138C375.002 60.1138 375.253 60.2088 375.511 60.3989C375.768 60.5889 375.897 60.9011 375.897 61.3355C375.897 61.6748 375.789 61.9599 375.572 62.1906C375.354 62.4214 375.049 62.5436 374.655 62.5571Z" fill="white"/>
<path d="M384.653 52.8452H370.4V51.6236H384.653V52.8452Z" fill="white"/>
<path d="M388.155 51.4401C388.25 50.8699 388.616 50.2116 389.254 49.465C389.892 48.7185 390.679 48.3384 391.616 48.3248C392.091 48.3248 392.526 48.447 392.919 48.6913C393.313 48.9357 393.605 49.2411 393.795 49.6076C394.365 48.7524 395.05 48.3248 395.851 48.3248C396.353 48.3248 396.788 48.4741 397.154 48.7728C397.521 49.0714 397.711 49.4718 397.724 49.9741C397.724 50.3677 397.629 50.6867 397.439 50.931C397.249 51.1754 397.066 51.3247 396.89 51.379C396.713 51.4333 396.557 51.4604 396.421 51.4604C396.163 51.4604 395.953 51.3858 395.79 51.2364C395.627 51.0871 395.546 50.8903 395.546 50.646C395.546 50.0216 395.885 49.594 396.564 49.3632C396.414 49.1868 396.143 49.0985 395.749 49.0985C395.573 49.0985 395.444 49.1121 395.363 49.1393C394.847 49.3565 394.467 49.8044 394.222 50.4831C393.408 53.4829 393.001 55.234 393.001 55.7362C393.001 56.1163 393.109 56.3878 393.326 56.5507C393.544 56.7135 393.781 56.795 394.039 56.795C394.541 56.795 395.037 56.571 395.525 56.1231C396.014 55.6751 396.347 55.1254 396.523 54.4738C396.564 54.3381 396.605 54.2634 396.645 54.2499C396.686 54.2363 396.795 54.2227 396.971 54.2091H397.052C397.256 54.2091 397.358 54.2634 397.358 54.372C397.358 54.3856 397.344 54.4603 397.317 54.596C397.1 55.3697 396.679 56.0552 396.055 56.6525C395.43 57.2497 394.704 57.5483 393.876 57.5483C392.926 57.5483 392.207 57.1208 391.718 56.2656C391.161 57.1072 390.523 57.528 389.804 57.528H389.682C389.017 57.528 388.542 57.3515 388.257 56.9986C387.971 56.6457 387.822 56.2724 387.809 55.8787C387.809 55.4444 387.938 55.0915 388.195 54.82C388.453 54.5485 388.759 54.4128 389.112 54.4128C389.695 54.4128 389.987 54.6978 389.987 55.2679C389.987 55.5394 389.906 55.7769 389.743 55.9805C389.58 56.1842 389.424 56.3199 389.275 56.3878C389.125 56.4556 389.037 56.4896 389.01 56.4896L388.949 56.5099C388.949 56.5235 388.99 56.5507 389.071 56.5914C389.152 56.6321 389.261 56.6796 389.397 56.7339C389.532 56.7882 389.661 56.8086 389.784 56.795C390.272 56.795 390.693 56.4896 391.046 55.8787C391.168 55.6616 391.324 55.2 391.514 54.4942C391.704 53.7884 391.894 53.0554 392.084 52.2952C392.274 51.5351 392.383 51.0871 392.41 50.9514C392.478 50.5849 392.512 50.3202 392.512 50.1573C392.512 49.7772 392.41 49.5058 392.207 49.3429C392.003 49.18 391.772 49.0985 391.514 49.0985C390.971 49.0985 390.462 49.3157 389.987 49.7501C389.512 50.1845 389.18 50.741 388.99 51.4197C388.962 51.5419 388.928 51.6097 388.888 51.6233C388.847 51.6369 388.738 51.6505 388.562 51.664H388.277C388.195 51.5826 388.155 51.5079 388.155 51.4401Z" fill="white"/>
<path d="M400.984 42.74C400.724 42.74 400.518 42.6536 400.365 42.4809C400.211 42.3081 400.134 42.097 400.134 41.8475C400.134 41.1661 400.389 40.5759 400.897 40.0769C401.406 39.5778 402.039 39.3283 402.797 39.3283C403.671 39.3283 404.4 39.597 404.985 40.1345C405.571 40.6719 405.868 41.3677 405.878 42.2218C405.878 42.6344 405.782 43.0279 405.59 43.4022C405.398 43.7764 405.168 44.1027 404.899 44.381C404.63 44.6593 404.247 45.0144 403.747 45.4463C403.402 45.7438 402.922 46.1852 402.308 46.7706L401.459 47.5768L402.553 47.5912C404.059 47.5912 404.861 47.5672 404.957 47.5192C405.024 47.5 405.139 47.0729 405.302 46.238V46.1948H405.878V46.238C405.868 46.2668 405.806 46.7035 405.691 47.548C405.576 48.3925 405.504 48.834 405.475 48.8723V48.9155H400.134V48.642V48.4693C400.134 48.4021 400.163 48.3301 400.221 48.2533C400.278 48.1766 400.422 48.0086 400.653 47.7495C400.931 47.4424 401.171 47.1737 401.372 46.9434C401.459 46.8474 401.622 46.6699 401.862 46.4108C402.102 46.1517 402.265 45.9741 402.351 45.8781C402.438 45.7822 402.577 45.6238 402.769 45.4031C402.961 45.1824 403.095 45.0192 403.172 44.9137C403.248 44.8081 403.359 44.6641 403.503 44.4818C403.647 44.2995 403.747 44.1459 403.805 44.0212C403.863 43.8964 403.935 43.7573 404.021 43.6037C404.107 43.4502 404.17 43.2966 404.208 43.1431C404.247 42.9895 404.28 42.8456 404.309 42.7112C404.338 42.5768 404.352 42.4185 404.352 42.2362C404.352 41.6316 404.189 41.1085 403.863 40.6671C403.536 40.2256 403.071 40.0049 402.466 40.0049C402.15 40.0049 401.871 40.0865 401.631 40.2496C401.391 40.4128 401.224 40.5711 401.128 40.7247C401.032 40.8782 400.984 40.9694 400.984 40.9982C400.984 41.0078 401.008 41.0126 401.056 41.0126C401.228 41.0126 401.406 41.0797 401.588 41.2141C401.771 41.3485 401.862 41.5692 401.862 41.8763C401.862 42.1162 401.785 42.3177 401.631 42.4809C401.478 42.644 401.262 42.7304 400.984 42.74Z" fill="white"/>
<path d="M413.296 52.499C413.296 52.499 413.296 52.4108 413.296 52.2343C413.296 52.0578 413.391 51.9221 413.581 51.8271H419.669V48.7729L419.69 45.7188C419.825 45.5423 419.954 45.4541 420.077 45.4541C420.253 45.4541 420.389 45.5559 420.484 45.7595V51.8271H426.551C426.755 51.9357 426.857 52.0714 426.857 52.2343C426.857 52.3972 426.755 52.5329 426.551 52.6415H420.484V58.7091C420.375 58.8991 420.253 58.9941 420.117 58.9941H420.077H420.036C419.873 58.9941 419.751 58.8991 419.669 58.7091V52.6415H413.581C413.391 52.5465 413.296 52.4108 413.296 52.2343V52.499Z" fill="white"/>
<path d="M446.428 31.7919L446.163 31.8937C445.973 31.9616 445.702 32.0295 445.349 32.0973C444.996 32.1652 444.602 32.2127 444.168 32.2399H443.781V31.3033H444.168C444.806 31.2761 445.397 31.1743 445.94 30.9978C446.482 30.8214 446.863 30.6585 447.08 30.5092C447.297 30.3599 447.487 30.2106 447.65 30.0612C447.677 30.0205 447.758 30.0002 447.894 30.0002C448.016 30.0002 448.132 30.0409 448.24 30.1223V36.2102L448.261 42.3185C448.356 42.4135 448.437 42.4746 448.505 42.5018C448.573 42.5289 448.736 42.5561 448.994 42.5832C449.252 42.6104 449.672 42.6239 450.256 42.6239H450.785V43.5605H450.561C450.276 43.5198 449.197 43.4995 447.324 43.4995C445.478 43.4995 444.412 43.5198 444.127 43.5605H443.883V42.6239H444.412C444.711 42.6239 444.969 42.6239 445.186 42.6239C445.403 42.6239 445.573 42.6172 445.695 42.6036C445.817 42.59 445.926 42.5696 446.021 42.5425C446.116 42.5154 446.17 42.5018 446.184 42.5018C446.197 42.5018 446.238 42.4678 446.306 42.4C446.374 42.3321 446.415 42.305 446.428 42.3185V31.7919Z" fill="white"/>
<path d="M439.22 62.5571C438.854 62.5571 438.562 62.435 438.345 62.1906C438.128 61.9463 438.019 61.6477 438.019 61.2948C438.019 60.331 438.379 59.4962 439.098 58.7904C439.818 58.0845 440.713 57.7316 441.786 57.7316C443.021 57.7316 444.053 58.1117 444.881 58.8718C445.709 59.632 446.129 60.6161 446.143 61.8242C446.143 62.4078 446.007 62.9644 445.736 63.4937C445.464 64.0231 445.139 64.4846 444.759 64.8783C444.378 65.2719 443.835 65.7742 443.13 66.385C442.641 66.8058 441.962 67.4302 441.094 68.2582L439.892 69.3984L441.44 69.4188C443.571 69.4188 444.704 69.3849 444.84 69.317C444.935 69.2898 445.098 68.6858 445.329 67.5049V67.4438H446.143V67.5049C446.129 67.5456 446.041 68.1632 445.878 69.3577C445.715 70.5522 445.614 71.1766 445.573 71.2309V71.292H438.019V70.9051V70.6608C438.019 70.5658 438.06 70.464 438.141 70.3554C438.223 70.2468 438.426 70.0093 438.752 69.6428C439.146 69.2084 439.485 68.8283 439.77 68.5025C439.892 68.3668 440.123 68.1157 440.462 67.7492C440.802 67.3827 441.032 67.1316 441.155 66.9958C441.277 66.8601 441.474 66.6361 441.745 66.3239C442.017 66.0117 442.207 65.781 442.315 65.6316C442.424 65.4823 442.58 65.2787 442.784 65.0208C442.987 64.7629 443.13 64.5457 443.211 64.3693C443.293 64.1928 443.394 63.996 443.516 63.7788C443.639 63.5616 443.727 63.3444 443.781 63.1273C443.835 62.9101 443.883 62.7065 443.924 62.5164C443.964 62.3264 443.985 62.1024 443.985 61.8445C443.985 60.9894 443.754 60.2496 443.293 59.6252C442.831 59.0008 442.173 58.6886 441.318 58.6886C440.87 58.6886 440.476 58.8039 440.137 59.0347C439.797 59.2655 439.56 59.4894 439.424 59.7066C439.288 59.9238 439.22 60.0527 439.22 60.0935C439.22 60.107 439.254 60.1138 439.322 60.1138C439.566 60.1138 439.818 60.2088 440.075 60.3989C440.333 60.5889 440.462 60.9011 440.462 61.3355C440.462 61.6748 440.354 61.9599 440.137 62.1906C439.919 62.4214 439.614 62.5436 439.22 62.5571Z" fill="white"/>
<path d="M456.588 71.292C456.344 71.2513 455.468 71.2309 453.962 71.2309C452.387 71.2309 451.478 71.2513 451.233 71.292H451.05V70.3554H451.681C451.953 70.3554 452.136 70.3554 452.231 70.3554C452.326 70.3554 452.441 70.3418 452.577 70.3147C452.713 70.2875 452.808 70.2536 452.862 70.2129C452.916 70.1721 452.964 70.1178 453.005 70.05C453.018 70.0228 453.025 69.6563 453.025 68.9505V67.9324H447.751V66.9958L450.826 62.2925C452.903 59.1433 453.955 57.5619 453.982 57.5484C454.009 57.5212 454.152 57.5076 454.409 57.5076H454.776L454.898 57.6298V66.9958H456.771V67.9324H454.898V68.9708C454.898 69.5274 454.898 69.8532 454.898 69.9482C454.898 70.0432 454.939 70.1246 455.02 70.1925C455.129 70.2875 455.516 70.3418 456.181 70.3554H456.771V71.292H456.588ZM453.147 66.9958V60.1953L448.688 66.9755L450.907 66.9958H453.147Z" fill="white"/>
<path d="M459.398 52.8452H434.965V51.6236H459.398V52.8452Z" fill="white"/>
<path d="M462.9 51.4401C462.995 50.8699 463.361 50.2116 463.999 49.465C464.637 48.7185 465.425 48.3384 466.361 48.3248C466.836 48.3248 467.271 48.447 467.664 48.6913C468.058 48.9357 468.35 49.2411 468.54 49.6076C469.11 48.7524 469.795 48.3248 470.596 48.3248C471.099 48.3248 471.533 48.4741 471.899 48.7728C472.266 49.0714 472.456 49.4718 472.469 49.9741C472.469 50.3677 472.374 50.6867 472.184 50.931C471.994 51.1754 471.811 51.3247 471.635 51.379C471.458 51.4333 471.302 51.4604 471.166 51.4604C470.908 51.4604 470.698 51.3858 470.535 51.2364C470.372 51.0871 470.291 50.8903 470.291 50.646C470.291 50.0216 470.63 49.594 471.309 49.3632C471.16 49.1868 470.888 49.0985 470.494 49.0985C470.318 49.0985 470.189 49.1121 470.108 49.1393C469.592 49.3565 469.212 49.8044 468.967 50.4831C468.153 53.4829 467.746 55.234 467.746 55.7362C467.746 56.1163 467.854 56.3878 468.072 56.5507C468.289 56.7135 468.526 56.795 468.784 56.795C469.286 56.795 469.782 56.571 470.271 56.1231C470.759 55.6751 471.092 55.1254 471.268 54.4738C471.309 54.3381 471.35 54.2634 471.39 54.2499C471.431 54.2363 471.54 54.2227 471.716 54.2091H471.798C472.001 54.2091 472.103 54.2634 472.103 54.372C472.103 54.3856 472.089 54.4603 472.062 54.596C471.845 55.3697 471.424 56.0552 470.8 56.6525C470.175 57.2497 469.449 57.5483 468.621 57.5483C467.671 57.5483 466.952 57.1208 466.463 56.2656C465.906 57.1072 465.269 57.528 464.549 57.528H464.427C463.762 57.528 463.287 57.3515 463.002 56.9986C462.717 56.6457 462.567 56.2724 462.554 55.8787C462.554 55.4444 462.683 55.0915 462.941 54.82C463.198 54.5485 463.504 54.4128 463.857 54.4128C464.44 54.4128 464.732 54.6978 464.732 55.2679C464.732 55.5394 464.651 55.7769 464.488 55.9805C464.325 56.1842 464.169 56.3199 464.02 56.3878C463.87 56.4556 463.782 56.4896 463.755 56.4896L463.694 56.5099C463.694 56.5235 463.735 56.5507 463.816 56.5914C463.898 56.6321 464.006 56.6796 464.142 56.7339C464.278 56.7882 464.407 56.8086 464.529 56.795C465.017 56.795 465.438 56.4896 465.791 55.8787C465.913 55.6616 466.069 55.2 466.259 54.4942C466.449 53.7884 466.639 53.0554 466.83 52.2952C467.02 51.5351 467.128 51.0871 467.155 50.9514C467.223 50.5849 467.257 50.3202 467.257 50.1573C467.257 49.7772 467.155 49.5058 466.952 49.3429C466.748 49.18 466.517 49.0985 466.259 49.0985C465.716 49.0985 465.207 49.3157 464.732 49.7501C464.257 50.1845 463.925 50.741 463.735 51.4197C463.707 51.5419 463.674 51.6097 463.633 51.6233C463.592 51.6369 463.484 51.6505 463.307 51.664H463.022C462.941 51.5826 462.9 51.5079 462.9 51.4401Z" fill="white"/>
<path d="M480.81 48.9155C480.637 48.8867 480.018 48.8723 478.953 48.8723C477.84 48.8723 477.197 48.8867 477.024 48.9155H476.895V48.2533H477.341C477.533 48.2533 477.662 48.2533 477.729 48.2533C477.797 48.2533 477.878 48.2438 477.974 48.2246C478.07 48.2054 478.137 48.1814 478.176 48.1526C478.214 48.1238 478.248 48.0854 478.276 48.0374C478.286 48.0182 478.291 47.7591 478.291 47.2601V46.5403H474.562V45.8781L476.736 42.5529C478.204 40.3264 478.948 39.2084 478.967 39.1988C478.987 39.1796 479.087 39.17 479.27 39.17H479.529L479.615 39.2564V45.8781H480.94V46.5403H479.615V47.2745C479.615 47.6679 479.615 47.8983 479.615 47.9654C479.615 48.0326 479.644 48.0902 479.702 48.1382C479.778 48.2054 480.052 48.2438 480.522 48.2533H480.94V48.9155H480.81ZM478.377 45.8781V41.0701L475.225 45.8637L476.794 45.8781H478.377Z" fill="white"/>
</g>
</g>
<defs>
<clipPath id="clip0_621_2392">
<rect width="640.005" height="306.577" fill="white"/>
</clipPath>
<clipPath id="clip1_621_2392">
<rect width="231.381" height="41.292" fill="white" transform="translate(251 30)"/>
</clipPath>
</defs>
</svg>
