<svg width="640" height="360" viewBox="0 0 640 360" fill="none" xmlns="http://www.w3.org/2000/svg">
<g clip-path="url(#clip0_1538_350)">
<rect width="640" height="360" fill="white"/>
<path d="M545.417 229.95L545.33 229.95L545.267 229.889C544.232 228.899 543.581 227.707 543.581 226.363C543.581 224.715 544.567 223.244 546.117 222.195C547.667 221.144 549.8 220.5 552.156 220.5C554.491 220.5 556.613 221.144 558.158 222.195C559.701 223.244 560.688 224.715 560.688 226.363C560.688 227.748 560.04 229.033 558.856 229.989L558.795 230.038L558.717 230.038L545.417 229.95Z" fill="white" stroke="black"/>
<path d="M521.354 229.95L521.247 229.949L521.183 229.864C520.151 228.518 519.519 226.898 519.519 225.137C519.519 222.953 520.507 220.701 522.071 219.137C523.638 217.57 525.803 216.677 528.147 217.269C530.46 217.842 532.573 218.716 534.112 219.998C535.659 221.286 536.625 222.985 536.625 225.181C536.625 226.982 535.995 228.697 534.819 230.009L534.753 230.082L534.654 230.081L521.354 229.95Z" fill="white" stroke="black"/>
<path d="M550.231 220.938C550.8 220.981 551.238 221.419 551.238 221.987C551.238 222.556 550.756 223.037 550.188 223.037C549.619 223.037 549.138 222.556 549.138 221.987C549.138 221.419 549.619 220.938 550.188 220.938H550.231L548.963 220.5C547.081 220.5 545.594 222.031 545.594 223.869C545.594 225.706 547.125 227.237 548.963 227.237C550.8 227.237 552.331 225.706 552.331 223.869C552.331 222.031 550.8 220.5 548.963 220.5" fill="black"/>
<path d="M525.093 219.733C525.662 219.777 526.099 220.214 526.099 220.783C526.099 221.352 525.618 221.833 525.049 221.833C524.48 221.833 523.999 221.352 523.999 220.783C523.999 220.214 524.48 219.733 525.049 219.733H525.093L523.824 219.296C521.943 219.296 520.455 220.827 520.455 222.664C520.455 224.502 521.987 226.033 523.824 226.033C525.662 226.033 527.193 224.502 527.193 222.664C527.193 220.827 525.662 219.296 523.824 219.296" fill="black"/>
<path d="M553.95 242.856H525.775C532.512 270.769 536.756 288.969 536.756 308.919C536.756 312.419 536.756 339.325 526.519 339.325C521.269 339.325 516.806 334.6 516.806 330.356C516.806 329.131 516.806 328.606 518.556 324.887C525.294 307.694 525.294 286.256 525.294 284.506C525.294 283.019 525.294 265.3 520.044 242.9H492.131C488.894 242.9 480.669 243.338 480.669 235.375C480.669 229.906 485.394 229.469 489.9 229.469H571.887C577.619 229.469 575.956 224.044 572.106 220.019C563.706 211.313 555.525 220.5 554.212 219.45C552.594 218.138 559.419 211.619 563.05 210.263C566.069 209.125 574.425 212.231 577.881 217.35C585.537 228.681 580.112 242.9 573.9 242.9H559.681C565.15 261.581 571.406 283.281 591.837 326.9C593.85 330.881 593.85 331.406 593.85 332.894C593.85 338.144 589.344 339.369 587.112 339.369C579.894 339.369 577.881 332.894 574.906 322.437C570.925 309.706 570.925 309.225 568.431 299.25L553.95 242.856Z" fill="#8B54A0"/>
<path d="M553.994 238.481C553.6 238.656 553.25 237.519 552.2 237.694C547.738 238.35 547.038 238.481 545.594 238.438L545.725 237.081C547.344 237.125 549.838 236.031 552.2 236.031C553.906 236.031 554.3 236.556 554.169 237.169" fill="black"/>
<path d="M77.5834 230.781L77.6919 230.78L77.7571 230.693C78.7905 229.299 79.4188 227.504 79.4188 225.619C79.4188 220.906 75.6033 217.043 70.8429 217.087C66.1288 217.088 62.3125 220.905 62.3125 225.619C62.3125 227.545 62.9394 229.434 64.1137 230.834L64.1802 230.913L64.2834 230.913L77.5834 230.781Z" fill="white" stroke="black"/>
<path d="M101.646 230.781L101.754 230.78L101.82 230.693C102.853 229.299 103.481 227.504 103.481 225.619C103.481 220.906 99.6658 217.043 94.9054 217.087C90.1913 217.088 86.375 220.905 86.375 225.619C86.375 227.545 87.0019 229.434 88.1762 230.834L88.2427 230.913L88.3459 230.913L101.646 230.781Z" fill="white" stroke="black"/>
<path d="M73.25 219.1C72.6813 219.144 72.2438 219.581 72.2438 220.15C72.2438 220.719 72.725 221.2 73.2938 221.2C73.8625 221.2 74.3438 220.719 74.3438 220.15C74.3438 219.581 73.8625 219.1 73.2938 219.1H73.25L74.5188 218.663C76.4 218.663 77.8875 220.194 77.8875 222.031C77.8875 223.869 76.3563 225.4 74.5188 225.4C72.6813 225.4 71.15 223.869 71.15 222.031C71.15 220.194 72.6813 218.663 74.5188 218.663" fill="black"/>
<path d="M97.3125 219.1C96.7438 219.144 96.3063 219.581 96.3063 220.15C96.3063 220.719 96.7875 221.2 97.3563 221.2C97.925 221.2 98.4063 220.719 98.4063 220.15C98.4063 219.581 97.925 219.1 97.3563 219.1H97.3125L98.5813 218.663C100.463 218.663 101.95 220.194 101.95 222.031C101.95 223.869 100.419 225.4 98.5813 225.4C96.7438 225.4 95.2125 223.869 95.2125 222.031C95.2125 220.194 96.7438 218.663 98.5813 218.663" fill="black"/>
<path d="M69.0501 243.731H97.2251C90.4876 271.644 86.2438 289.844 86.2438 309.794C86.2438 313.294 86.2438 340.2 96.4813 340.2C101.731 340.2 106.194 335.475 106.194 331.231C106.194 330.006 106.194 329.481 104.444 325.763C97.7063 308.569 97.7063 287.131 97.7063 285.381C97.7063 283.894 97.7063 266.175 102.956 243.775L133.231 243.337C139.269 243.162 144.869 234.194 144.869 226.188C144.869 220.719 137.475 230.606 125.619 230.606L51.1126 230.3C45.3813 230.3 36.8938 230.3 25.4313 242.506C18.9563 249.725 19.3063 262.937 19.3063 264.425C19.3063 265.912 20.5313 266.437 22.0626 266.437C23.8126 266.437 24.9938 266.131 25.3001 264.206C28.8001 243.512 42.8876 243.775 49.1438 243.775H63.3626C57.8938 262.456 51.6376 284.156 31.2063 327.775C29.1938 331.756 29.1938 332.281 29.1938 333.769C29.1938 339.019 33.7001 340.244 35.9313 340.244C43.1501 340.244 45.1626 333.769 48.1376 323.312C52.1188 310.581 52.1188 310.1 54.6126 300.125L69.0501 243.731Z" fill="#DB5BBC"/>
<path d="M75.1313 239.881C74.9125 241.281 74.2125 243.163 79.2438 242.594C85.15 241.938 86.6375 240.887 88.825 239.706L88.6938 238.35C87.075 238.394 83.6625 238.656 81.3875 238.175C79.55 237.781 75.7875 237.738 75.5688 238.569" fill="black"/>
<rect x="475.703" y="30.3375" width="33.74" height="21.905" fill="white"/>
<g clip-path="url(#clip1_1538_350)">
<path d="M489.112 48.2425C488.868 48.2018 487.992 48.1814 486.486 48.1814C484.911 48.1814 484.002 48.2018 483.758 48.2425H483.575V47.306H484.206C484.477 47.306 484.66 47.306 484.755 47.306C484.85 47.306 484.966 47.2924 485.102 47.2653C485.237 47.2382 485.332 47.2042 485.387 47.1635C485.441 47.1228 485.488 47.0685 485.529 47.0006C485.543 46.9735 485.549 46.607 485.549 45.9013V44.8833H480.276V43.9468L483.351 39.244C485.427 36.0952 486.479 34.514 486.506 34.5004C486.533 34.4732 486.676 34.4597 486.934 34.4597H487.3L487.422 34.5818V43.9468H489.295V44.8833H487.422V45.9216C487.422 46.4781 487.422 46.8038 487.422 46.8988C487.422 46.9939 487.463 47.0753 487.545 47.1432C487.653 47.2382 488.04 47.2924 488.705 47.306H489.295V48.2425H489.112ZM485.672 43.9468V37.147L481.213 43.9265L483.432 43.9468H485.672Z" fill="#202020"/>
<path d="M492.532 35.5794C492.437 35.4844 492.363 35.4233 492.309 35.3962C492.254 35.369 492.146 35.3487 491.983 35.3351C491.82 35.3215 491.528 35.3012 491.107 35.274H490.436V34.3375H494.528C496.849 34.3511 498.145 34.3579 498.416 34.3579C498.688 34.3579 498.973 34.3986 499.271 34.48C499.855 34.6022 500.432 34.8397 501.002 35.1926C501.572 35.5455 502.115 36.0069 502.63 36.577C503.146 37.147 503.547 37.846 503.832 38.6739C504.117 39.5019 504.273 40.4112 504.3 41.402C504.3 43.1121 503.798 44.6051 502.793 45.8809C501.789 47.1567 500.486 47.9236 498.884 48.1814C498.708 48.2086 497.256 48.229 494.528 48.2425H490.436V47.306H491.107C491.677 47.2925 492.024 47.2721 492.146 47.2449C492.268 47.2178 492.397 47.1364 492.532 47.0006V35.5794ZM501.959 41.3613C501.959 39.9905 501.809 38.8843 501.511 38.0428C501.212 37.2013 500.683 36.5159 499.923 35.9866C499.19 35.5115 498.253 35.274 497.113 35.274H496.441H495.871C495.111 35.274 494.704 35.3351 494.65 35.4573C494.609 35.5115 494.589 37.4388 494.589 41.2391C494.589 45.0666 494.596 47.0006 494.609 47.0414C494.623 47.1771 494.731 47.2517 494.935 47.2653C495.138 47.2789 495.756 47.2925 496.787 47.306H497.011C498.45 47.306 499.57 46.9735 500.371 46.3084C500.995 45.7927 501.416 45.1412 501.633 44.354C501.85 43.5668 501.959 42.5692 501.959 41.3613Z" fill="#202020"/>
</g>
<path d="M474.053 99.3486L483.684 113.269" stroke="#202020" stroke-width="1.5"/>
<path d="M483.684 113.269L514.75 107.56" stroke="#202020" stroke-width="1.5"/>
<path d="M514.75 107.56L502.084 94.852" stroke="#202020" stroke-width="1.5"/>
<path d="M502.084 94.852L474.053 99.3486" stroke="#202020" stroke-width="1.5"/>
<path d="M475.383 124.984L484.449 140.949" stroke="#202020" stroke-width="1.5"/>
<path d="M484.449 140.949L513.244 134.446" stroke="#202020" stroke-width="1.5"/>
<path d="M513.245 134.446L501.552 119.777" stroke="#202020" stroke-width="1.5"/>
<path d="M501.553 119.777L475.383 124.984" stroke="#202020" stroke-width="1.5"/>
<path d="M474.053 99.3486L475.383 124.984" stroke="#202020" stroke-width="1.5"/>
<path d="M483.684 113.269L484.449 140.949" stroke="#202020" stroke-width="1.5"/>
<path d="M514.75 107.56L513.245 134.446" stroke="#202020" stroke-width="1.5"/>
<path d="M502.084 94.852L501.552 119.777" stroke="#202020" stroke-width="1.5"/>
<path d="M454.453 81.7968L470.725 108.548" stroke="#202020" stroke-width="1.5"/>
<path d="M470.725 108.548L539.397 96.6503" stroke="#202020" stroke-width="1.5"/>
<path d="M539.397 96.6503L509.844 74.569" stroke="#202020" stroke-width="1.5"/>
<path d="M509.844 74.5689L454.453 81.7968" stroke="#202020" stroke-width="1.5"/>
<path d="M459.413 132.052L474.372 167.29" stroke="#202020" stroke-width="1.5"/>
<path d="M474.372 167.29L532.837 151.991" stroke="#202020" stroke-width="1.5"/>
<path d="M532.837 151.991L507.972 122.115" stroke="#202020" stroke-width="1.5"/>
<path d="M507.971 122.115L459.413 132.052" stroke="#202020" stroke-width="1.5"/>
<path d="M454.453 81.7968L459.413 132.052" stroke="#202020" stroke-width="1.5"/>
<path d="M470.725 108.548L474.372 167.29" stroke="#202020" stroke-width="1.5"/>
<path d="M539.397 96.6503L532.837 151.991" stroke="#202020" stroke-width="1.5"/>
<path d="M509.844 74.569L507.972 122.115" stroke="#202020" stroke-width="1.5"/>
<path d="M502.112 94.8842L509.855 74.5809M474.097 99.3556L454.506 81.8269M475.376 125.009L459.497 132.062M484.491 140.971L474.427 167.284M513.238 134.495L532.829 151.983M501.566 119.813L507.958 122.163M514.745 107.573L539.428 96.7159" stroke="#202020" stroke-width="1.5"/>
<path d="M81.8978 120.929H153.898" stroke="#202020" stroke-width="1.5"/>
<rect x="101.028" y="30.3375" width="33.74" height="21.905" fill="white"/>
<g clip-path="url(#clip2_1538_350)">
<path d="M109.368 36.4752L109.103 36.577C108.913 36.6448 108.641 36.7127 108.289 36.7806C107.936 36.8484 107.542 36.8959 107.108 36.9231H106.721V35.9866H107.108C107.746 35.9594 108.336 35.8576 108.879 35.6812C109.422 35.5048 109.802 35.3419 110.019 35.1926C110.236 35.0433 110.426 34.894 110.589 34.7447C110.616 34.704 110.698 34.6836 110.833 34.6836C110.956 34.6836 111.071 34.7243 111.18 34.8058V40.893L111.2 47.0006C111.295 47.0956 111.376 47.1567 111.444 47.1839C111.512 47.211 111.675 47.2382 111.933 47.2653C112.191 47.2925 112.611 47.306 113.195 47.306H113.724V48.2425H113.5C113.215 48.2018 112.136 48.1814 110.263 48.1814C108.418 48.1814 107.352 48.2018 107.067 48.2425H106.823V47.306H107.352C107.651 47.306 107.909 47.306 108.126 47.306C108.343 47.306 108.513 47.2992 108.635 47.2857C108.757 47.2721 108.865 47.2517 108.96 47.2246C109.055 47.1974 109.11 47.1839 109.123 47.1839C109.137 47.1839 109.178 47.1499 109.245 47.0821C109.313 47.0142 109.354 46.9871 109.368 47.0006V36.4752Z" fill="#202020"/>
<path d="M117.857 35.5794C117.762 35.4844 117.688 35.4233 117.633 35.3962C117.579 35.369 117.47 35.3487 117.308 35.3351C117.145 35.3215 116.853 35.3012 116.432 35.274H115.76V34.3375H119.852C122.173 34.3511 123.469 34.3579 123.741 34.3579C124.012 34.3579 124.297 34.3986 124.596 34.48C125.18 34.6022 125.756 34.8397 126.326 35.1926C126.896 35.5455 127.439 36.0069 127.955 36.577C128.471 37.147 128.871 37.846 129.156 38.6739C129.441 39.5019 129.597 40.4112 129.625 41.402C129.625 43.1121 129.122 44.6051 128.118 45.8809C127.114 47.1567 125.811 47.9236 124.209 48.1814C124.033 48.2086 122.58 48.229 119.852 48.2425H115.76V47.306H116.432C117.002 47.2925 117.348 47.2721 117.47 47.2449C117.593 47.2178 117.721 47.1364 117.857 47.0006V35.5794ZM127.283 41.3613C127.283 39.9905 127.134 38.8843 126.835 38.0428C126.537 37.2013 126.007 36.5159 125.247 35.9866C124.514 35.5115 123.578 35.274 122.438 35.274H121.766H121.196C120.436 35.274 120.029 35.3351 119.975 35.4573C119.934 35.5115 119.913 37.4388 119.913 41.2391C119.913 45.0666 119.92 47.0006 119.934 47.0414C119.947 47.1771 120.056 47.2517 120.26 47.2653C120.463 47.2789 121.081 47.2925 122.112 47.306H122.336C123.775 47.306 124.895 46.9735 125.695 46.3084C126.32 45.7927 126.74 45.1412 126.958 44.354C127.175 43.5668 127.283 42.5692 127.283 41.3613Z" fill="#202020"/>
</g>
<rect x="201.898" y="84.9293" width="72" height="72" stroke="#202020" stroke-width="1.5"/>
<rect x="221.028" y="30.3375" width="33.74" height="21.905" fill="white"/>
<g clip-path="url(#clip3_1538_350)">
<path d="M227.25 39.5086C226.884 39.5086 226.592 39.3865 226.375 39.1422C226.158 38.8979 226.049 38.5993 226.049 38.2464C226.049 37.2828 226.409 36.448 227.128 35.7423C227.847 35.0365 228.743 34.6836 229.815 34.6836C231.051 34.6836 232.082 35.0637 232.91 35.8237C233.738 36.5838 234.159 37.5678 234.172 38.7757C234.172 39.3593 234.036 39.9158 233.765 40.4451C233.494 40.9745 233.168 41.4359 232.788 41.8295C232.408 42.2231 231.865 42.7253 231.159 43.3361C230.67 43.7568 229.992 44.3812 229.123 45.2091L227.922 46.3492L229.469 46.3695C231.6 46.3695 232.734 46.3356 232.869 46.2677C232.964 46.2406 233.127 45.6366 233.358 44.4558V44.3947H234.172V44.4558C234.159 44.4965 234.07 45.1141 233.908 46.3084C233.745 47.5028 233.643 48.1272 233.602 48.1814V48.2425H226.049V47.8557V47.6114C226.049 47.5164 226.09 47.4146 226.171 47.306C226.253 47.1974 226.456 46.9599 226.782 46.5935C227.176 46.1591 227.515 45.7791 227.8 45.4534C227.922 45.3177 228.153 45.0666 228.492 44.7001C228.831 44.3337 229.062 44.0826 229.184 43.9468C229.306 43.8111 229.503 43.5872 229.775 43.275C230.046 42.9628 230.236 42.7321 230.345 42.5828C230.453 42.4335 230.609 42.2299 230.813 41.972C231.017 41.7142 231.159 41.497 231.241 41.3206C231.322 41.1441 231.424 40.9473 231.546 40.7302C231.668 40.513 231.756 40.2958 231.811 40.0787C231.865 39.8615 231.912 39.6579 231.953 39.4679C231.994 39.2779 232.014 39.054 232.014 38.7961C232.014 37.941 231.783 37.2013 231.322 36.577C230.861 35.9526 230.202 35.6405 229.347 35.6405C228.899 35.6405 228.506 35.7558 228.166 35.9866C227.827 36.2173 227.59 36.4413 227.454 36.6584C227.318 36.8756 227.25 37.0045 227.25 37.0452C227.25 37.0588 227.284 37.0656 227.352 37.0656C227.596 37.0656 227.847 37.1606 228.105 37.3506C228.363 37.5406 228.492 37.8528 228.492 38.2871C228.492 38.6264 228.384 38.9114 228.166 39.1422C227.949 39.3729 227.644 39.4951 227.25 39.5086Z" fill="#202020"/>
<path d="M237.857 35.5794C237.762 35.4844 237.687 35.4233 237.633 35.3962C237.579 35.369 237.47 35.3487 237.307 35.3351C237.145 35.3215 236.853 35.3012 236.432 35.274H235.76V34.3375H239.852C242.173 34.3511 243.469 34.3579 243.741 34.3579C244.012 34.3579 244.297 34.3986 244.596 34.48C245.179 34.6022 245.756 34.8397 246.326 35.1926C246.896 35.5455 247.439 36.0069 247.955 36.577C248.471 37.147 248.871 37.846 249.156 38.6739C249.441 39.5019 249.597 40.4112 249.624 41.402C249.624 43.1121 249.122 44.6051 248.118 45.8809C247.114 47.1567 245.811 47.9236 244.209 48.1814C244.033 48.2086 242.58 48.229 239.852 48.2425H235.76V47.306H236.432C237.002 47.2925 237.348 47.2721 237.47 47.2449C237.592 47.2178 237.721 47.1364 237.857 47.0006V35.5794ZM247.283 41.3613C247.283 39.9905 247.134 38.8843 246.835 38.0428C246.537 37.2013 246.007 36.5159 245.247 35.9866C244.514 35.5115 243.578 35.274 242.438 35.274H241.766H241.196C240.436 35.274 240.029 35.3351 239.974 35.4573C239.934 35.5115 239.913 37.4388 239.913 41.2391C239.913 45.0666 239.92 47.0006 239.934 47.0414C239.947 47.1771 240.056 47.2517 240.259 47.2653C240.463 47.2789 241.081 47.2925 242.112 47.306H242.336C243.775 47.306 244.894 46.9735 245.695 46.3084C246.32 45.7927 246.74 45.1412 246.957 44.354C247.175 43.5668 247.283 42.5692 247.283 41.3613Z" fill="#202020"/>
</g>
<path d="M321.898 80.5315L334.263 110.771" stroke="#202020" stroke-width="1.5"/>
<path d="M334.263 110.771L406.453 99.5651" stroke="#202020" stroke-width="1.5"/>
<path d="M406.453 99.5651L379.471 73.7425" stroke="#202020" stroke-width="1.5"/>
<path d="M379.471 73.7425L321.898 80.5315" stroke="#202020" stroke-width="1.5"/>
<path d="M327.049 130.513L338.635 168.116" stroke="#202020" stroke-width="1.5"/>
<path d="M338.635 168.116L399.37 154.521" stroke="#202020" stroke-width="1.5"/>
<path d="M399.37 154.521L377.098 121.657" stroke="#202020" stroke-width="1.5"/>
<path d="M377.098 121.657L327.049 130.513" stroke="#202020" stroke-width="1.5"/>
<path d="M321.898 80.5315L327.049 130.513" stroke="#202020" stroke-width="1.5"/>
<path d="M334.263 110.771L338.635 168.116" stroke="#202020" stroke-width="1.5"/>
<path d="M406.453 99.5651L399.37 154.521" stroke="#202020" stroke-width="1.5"/>
<path d="M379.471 73.7425L377.098 121.657" stroke="#202020" stroke-width="1.5"/>
<rect x="347.305" y="30.1125" width="33.74" height="22.355" fill="white"/>
<g clip-path="url(#clip4_1538_350)">
<path d="M353.893 38.5921C353.526 38.5921 353.241 38.4767 353.037 38.2459C352.834 38.0152 352.725 37.7165 352.712 37.35C352.712 36.6034 353.037 35.9383 353.689 35.3546C354.341 34.7709 355.128 34.479 356.051 34.479C356.526 34.479 356.825 34.4858 356.947 34.4994C357.951 34.6623 358.718 35.022 359.248 35.5786C359.777 36.1351 360.049 36.7392 360.062 37.3907C360.062 38.0966 359.831 38.7821 359.37 39.4473C358.908 40.1124 358.27 40.5943 357.456 40.893L357.395 40.9337C357.395 40.9473 357.456 40.9676 357.578 40.9948C357.7 41.0219 357.897 41.083 358.169 41.178C358.44 41.273 358.698 41.4156 358.942 41.6056C360.055 42.3251 360.612 43.2753 360.612 44.4563C360.612 45.5286 360.191 46.4653 359.35 47.2662C358.508 48.0671 357.442 48.4675 356.153 48.4675C355.067 48.4675 354.13 48.1757 353.343 47.592C352.556 47.0083 352.162 46.2685 352.162 45.3725C352.162 44.9925 352.284 44.687 352.528 44.4563C352.773 44.2255 353.078 44.1033 353.445 44.0897C353.825 44.0897 354.137 44.2119 354.381 44.4563C354.626 44.7006 354.748 45.006 354.748 45.3725C354.748 45.5219 354.727 45.6576 354.687 45.7798C354.646 45.9019 354.598 46.0105 354.544 46.1056C354.49 46.2006 354.415 46.282 354.32 46.3499C354.225 46.4178 354.144 46.4721 354.076 46.5128C354.008 46.5535 353.94 46.5807 353.872 46.5942C353.804 46.6078 353.75 46.6282 353.709 46.6553L353.628 46.6757C354.32 47.2865 355.162 47.592 356.153 47.592C356.899 47.592 357.463 47.2322 357.843 46.5128C358.074 46.0648 358.189 45.3793 358.189 44.4563V44.049C358.189 42.7595 357.755 41.8975 356.886 41.4631C356.682 41.3816 356.268 41.3341 355.644 41.3206L354.789 41.3002L354.727 41.2595C354.7 41.2187 354.687 41.1102 354.687 40.9337C354.687 40.6893 354.741 40.5672 354.85 40.5672C355.23 40.5672 355.623 40.5332 356.031 40.4654C356.492 40.3975 356.913 40.1124 357.293 39.6102C357.673 39.1079 357.863 38.3477 357.863 37.3297V37.1668C357.863 36.393 357.626 35.8568 357.15 35.5582C356.852 35.3682 356.533 35.2731 356.193 35.2731C355.759 35.2731 355.359 35.3478 354.992 35.4971C354.626 35.6464 354.368 35.8025 354.218 35.9654C354.069 36.1283 353.994 36.2098 353.994 36.2098H354.056C354.096 36.2233 354.151 36.2369 354.218 36.2505C354.286 36.2641 354.354 36.298 354.422 36.3523C354.49 36.4066 354.571 36.4541 354.666 36.4948C354.761 36.5356 354.829 36.6102 354.87 36.7188C354.911 36.8274 354.965 36.9292 355.033 37.0242C355.101 37.1193 355.121 37.255 355.094 37.4315C355.094 37.7301 354.999 37.9948 354.809 38.2256C354.619 38.4563 354.313 38.5785 353.893 38.5921Z" fill="#202020"/>
<path d="M364.134 35.3546C364.039 35.2596 363.965 35.1985 363.911 35.1713C363.856 35.1442 363.748 35.1238 363.585 35.1102C363.422 35.0967 363.13 35.0763 362.709 35.0492H362.037V34.1125H366.13C368.451 34.1261 369.748 34.1329 370.019 34.1329C370.291 34.1329 370.576 34.1736 370.874 34.2551C371.458 34.3772 372.035 34.6148 372.605 34.9677C373.175 35.3206 373.718 35.7822 374.234 36.3523C374.75 36.9224 375.15 37.6215 375.435 38.4496C375.72 39.2776 375.876 40.1871 375.904 41.178C375.904 42.8884 375.401 44.3816 374.397 45.6576C373.392 46.9336 372.089 47.7006 370.487 47.9585C370.311 47.9856 368.858 48.006 366.13 48.0196H362.037V47.0829H362.709C363.279 47.0693 363.625 47.049 363.748 47.0218C363.87 46.9947 363.999 46.9132 364.134 46.7775V35.3546ZM373.562 41.1373C373.562 39.7663 373.413 38.66 373.114 37.8183C372.815 36.9767 372.286 36.2912 371.526 35.7618C370.793 35.2867 369.856 35.0492 368.716 35.0492H368.044H367.474C366.714 35.0492 366.306 35.1102 366.252 35.2324C366.211 35.2867 366.191 37.2143 366.191 41.0151C366.191 44.8431 366.198 46.7775 366.211 46.8182C366.225 46.954 366.334 47.0286 366.537 47.0422C366.741 47.0558 367.358 47.0693 368.39 47.0829H368.614C370.053 47.0829 371.173 46.7503 371.974 46.0852C372.598 45.5694 373.019 44.9178 373.236 44.1305C373.453 43.3432 373.562 42.3454 373.562 41.1373Z" fill="#202020"/>
</g>
</g>
<defs>
<clipPath id="clip0_1538_350">
<rect width="640" height="360" fill="white"/>
</clipPath>
<clipPath id="clip1_1538_350">
<rect width="25.74" height="13.905" fill="white" transform="translate(479.703 34.3375)"/>
</clipPath>
<clipPath id="clip2_1538_350">
<rect width="25.74" height="13.905" fill="white" transform="translate(105.028 34.3375)"/>
</clipPath>
<clipPath id="clip3_1538_350">
<rect width="25.74" height="13.905" fill="white" transform="translate(225.028 34.3375)"/>
</clipPath>
<clipPath id="clip4_1538_350">
<rect width="25.74" height="14.355" fill="white" transform="translate(351.305 34.1125)"/>
</clipPath>
</defs>
</svg>
