<svg xmlns="http://www.w3.org/2000/svg" xmlns:xlink="http://www.w3.org/1999/xlink" width="960" height="480" viewBox="0 0 960 480"><defs><style>.a,.e,.i,.j,.k,.l{fill:none;}.b{isolation:isolate;}.c{fill:#fff;}.d{opacity:0.15;}.e{stroke:#fff;}.f{opacity:0.25;}.g{opacity:0.4;}.h{clip-path:url(#a);}.i{stroke:#58c4dd;}.i,.j,.k,.l{stroke-width:1.5px;}.j{stroke:#5cd0b3;}.k{stroke:#83c167;}.l{stroke:#f0ac5f;}.m{fill:#58c4dd;}.n{fill:#5cd0b3;}.o{fill:#83c167;}.p{fill:#f0ac5f;}</style><clipPath id="a"><rect class="a" x="60" y="60" width="840" height="360"/></clipPath></defs><rect width="960" height="480"/><g class="b"><path class="c" d="M56.15,435.375a4.41,4.41,0,0,1,3.825-2.025,4.613,4.613,0,0,1,3.2,1.25,5.439,5.439,0,0,1,1.15,1.7,14.317,14.317,0,0,1,.925,5.7,13.043,13.043,0,0,1-1.075,5.925,4.331,4.331,0,0,1-2.05,2.1A4.71,4.71,0,0,1,60,450.55a4.4,4.4,0,0,1-4.2-2.625A13.043,13.043,0,0,1,54.725,442a19.438,19.438,0,0,1,.313-3.838A8.373,8.373,0,0,1,56.15,435.375Zm5.625-.3a2.3,2.3,0,0,0-1.775-.8,2.382,2.382,0,0,0-1.8.8,3.006,3.006,0,0,0-.75,1.4,15.352,15.352,0,0,0-.25,2.85q0,.15-.012.975t-.013,1.375q0,2.4.05,3.35a14.345,14.345,0,0,0,.3,2.512,2.837,2.837,0,0,0,.75,1.313A2.217,2.217,0,0,0,60,449.6a2.19,2.19,0,0,0,1.7-.75,2.854,2.854,0,0,0,.75-1.313,14.345,14.345,0,0,0,.3-2.512q.05-.949.05-3.35,0-.549-.012-1.375t-.013-.975a15.532,15.532,0,0,0-.25-2.85A3.006,3.006,0,0,0,61.775,435.075Z"/></g><g class="b"><path class="c" d="M344.15,450q-.426-.075-3.975-.075-3.5,0-3.925.075h-.3v-1.15h.65a14.1,14.1,0,0,0,1.875-.075,1.616,1.616,0,0,0,.6-.3V435.55a.606.606,0,0,0-.2.075,7.363,7.363,0,0,1-2.575.475h-.475v-1.15h.475a6.97,6.97,0,0,0,3.5-.95,3.448,3.448,0,0,0,.775-.575q.05-.075.3-.075a.631.631,0,0,1,.425.15v7.475l.025,7.5a2.419,2.419,0,0,0,1.625.375h1.475V450Z"/></g><g class="b"><path class="c" d="M616.5,439.275a1.4,1.4,0,0,1-1.1-.45,1.6,1.6,0,0,1-.4-1.1,4.1,4.1,0,0,1,1.362-3.087,4.583,4.583,0,0,1,3.263-1.288,5.416,5.416,0,0,1,3.563,1.163,4.88,4.88,0,0,1,1.737,3.037,7.6,7.6,0,0,1,.05.825,4.723,4.723,0,0,1-.875,2.725,16.607,16.607,0,0,1-2.825,2.875q-.9.775-2.5,2.3l-1.475,1.4,1.9.025a30.085,30.085,0,0,0,4.175-.125c.066-.016.15-.191.25-.525a15.75,15.75,0,0,0,.35-1.7v-.075h1v.075l-.7,4.575V450H615v-.475a1.69,1.69,0,0,1,.05-.575q.024-.024,2.1-2.375,2.726-3.024,3.5-4a7.244,7.244,0,0,0,1.675-4.175,4.376,4.376,0,0,0-.862-2.762,2.879,2.879,0,0,0-2.413-1.113,2.744,2.744,0,0,0-2.35,1.3c-.034.067-.084.158-.15.275a.553.553,0,0,0-.075.15c0,.017.042.025.125.025a1.27,1.27,0,0,1,1.012.45,1.557,1.557,0,0,1,.388,1.05,1.5,1.5,0,0,1-.412,1.063A1.43,1.43,0,0,1,616.5,439.275Z"/></g><g class="b"><path class="c" d="M896.925,438.425a1.369,1.369,0,0,1-1.063-.425,1.57,1.57,0,0,1-.387-1.1,3.017,3.017,0,0,1,1.125-2.387,4.782,4.782,0,0,1,2.6-1.138h.375c.583,0,.95.009,1.1.025a6.051,6.051,0,0,1,1.675.525,3.723,3.723,0,0,1,2.075,2.35,2.431,2.431,0,0,1,.075.675,4.168,4.168,0,0,1-.912,2.638,5.057,5.057,0,0,1-2.288,1.662c-.083.033-.083.059,0,.075a1.52,1.52,0,0,0,.25.075,5.341,5.341,0,0,1,2.575,1.587,3.832,3.832,0,0,1,1.05,2.638,4.356,4.356,0,0,1-.475,1.975,4.958,4.958,0,0,1-1.963,2.113,5.687,5.687,0,0,1-3.037.837,5.986,5.986,0,0,1-2.925-.7,3.6,3.6,0,0,1-1.725-1.875,2.815,2.815,0,0,1-.25-1.225,1.494,1.494,0,0,1,.463-1.138,1.664,1.664,0,0,1,2.262.013,1.526,1.526,0,0,1,.45,1.125,1.6,1.6,0,0,1-.325,1,1.472,1.472,0,0,1-.875.55l-.175.05a4.7,4.7,0,0,0,3.1,1.125,2.232,2.232,0,0,0,2.075-1.325,5.732,5.732,0,0,0,.425-2.525v-.5a3.2,3.2,0,0,0-1.6-3.175,5.247,5.247,0,0,0-1.525-.175l-1.05-.025-.075-.05a.917.917,0,0,1-.05-.4.593.593,0,0,1,.075-.375.2.2,0,0,1,.125-.075,8.753,8.753,0,0,0,1.45-.125,2.164,2.164,0,0,0,1.675-1.238,5.52,5.52,0,0,0,.575-2.612,2.377,2.377,0,0,0-.875-2.175,2.072,2.072,0,0,0-1.175-.35,3.7,3.7,0,0,0-2.2.675,1.039,1.039,0,0,0-.225.163,1.52,1.52,0,0,0-.2.212l-.075.1c.05.017.108.033.175.05a1.19,1.19,0,0,1,.837.475,1.527,1.527,0,0,1,.338.975,1.376,1.376,0,0,1-.413,1.013A1.439,1.439,0,0,1,896.925,438.425Z"/></g><g class="b"><path class="c" d="M28.05,51.625a7.408,7.408,0,0,1-1.887-1.675,4.29,4.29,0,0,1-.263-4.1,4.456,4.456,0,0,1,1.613-1.813,4.386,4.386,0,0,1,2.437-.687,4.969,4.969,0,0,1,2.95.887,3.692,3.692,0,0,1,1.55,2.288,4.644,4.644,0,0,1,.025.6,3.687,3.687,0,0,1-.05.75,4.67,4.67,0,0,1-2.275,2.85l-.3.2q1.4.951,1.45,1a4.6,4.6,0,0,1,1.875,3.725,4.642,4.642,0,0,1-1.487,3.462,5.135,5.135,0,0,1-3.713,1.438A5,5,0,0,1,25.45,58.3a3.716,3.716,0,0,1-.625-2.175Q24.825,53.4,28.05,51.625Zm-1.625,4.45A3.129,3.129,0,0,0,27.5,58.513a3.634,3.634,0,0,0,2.5.962,4.046,4.046,0,0,0,1.862-.425,3.1,3.1,0,0,0,1.263-1.1,2.472,2.472,0,0,0,.425-1.375,2.543,2.543,0,0,0-.875-1.9q-.2-.2-2.075-1.425l-.763-.487q-.412-.262-.637-.413l-.2-.125-.3.15a4.865,4.865,0,0,0-2.075,2.5A4.088,4.088,0,0,0,26.425,56.075Zm6.6-8.9a2.577,2.577,0,0,0-.7-1.825,3.1,3.1,0,0,0-1.7-.95,8.159,8.159,0,0,0-.825-.025,3.023,3.023,0,0,0-2.225.9,1.8,1.8,0,0,0-.625,1.375,1.964,1.964,0,0,0,.9,1.7q.124.126,1.6,1.05l1.45.95c.017-.016.125-.087.325-.212a2.6,2.6,0,0,0,.45-.338A3.245,3.245,0,0,0,33.025,47.175Z"/></g><g class="b"><path class="c" d="M25.125,99.979q.026-.051.425-2.725l.4-2.675c0-.033.166-.051.5-.051h.5v.1q0,.251.375.425a3.921,3.921,0,0,0,1.313.224q.938.051,4.212.051h3.025V96.3l-1.7,2.325q-.375.525-.85,1.162c-.317.425-.558.755-.725.987s-.267.375-.3.426a11.552,11.552,0,0,0-1.55,5.425q-.1,1.024-.125,2.8c0,.233,0,.47-.013.713s-.012.437-.012.587v.225a1.275,1.275,0,0,1-.488.725,1.339,1.339,0,0,1-.837.3,1.22,1.22,0,0,1-.963-.413,1.667,1.667,0,0,1-.362-1.137q0-.375.1-1.425a17.472,17.472,0,0,1,2.325-6.775q.5-.8,2.1-3.025l1.15-1.575H31.3a29.614,29.614,0,0,0-4.575.149c-.067.034-.159.217-.275.551A8.467,8.467,0,0,0,26.2,99.5a2.85,2.85,0,0,1-.075.475v.075h-1Z"/></g><g class="b"><path class="c" d="M33.075,147.832a2.359,2.359,0,0,0-1.55-.625,3.58,3.58,0,0,0-2.925,1.5,8.68,8.68,0,0,0-1.175,5.05l.025.1.2-.325a3.2,3.2,0,0,1,2.775-1.5,4.189,4.189,0,0,1,2.025.475,5.2,5.2,0,0,1,1.2,1.012,6.309,6.309,0,0,1,.975,1.413,6.719,6.719,0,0,1,.525,2.675v.45a4.439,4.439,0,0,1-.125,1.075,5.621,5.621,0,0,1-1.55,2.775,4.589,4.589,0,0,1-2.4,1.4,4.192,4.192,0,0,1-1,.1,4.355,4.355,0,0,1-.85-.075,4.429,4.429,0,0,1-2.95-2,11.673,11.673,0,0,1-1.475-6.3,11.009,11.009,0,0,1,.95-4.725,7.486,7.486,0,0,1,2.65-3.15,4.983,4.983,0,0,1,2.925-.95,3.426,3.426,0,0,1,2.338.775,2.677,2.677,0,0,1,.887,2.125,1.38,1.38,0,0,1-.362,1,1.279,1.279,0,0,1-.963.375,1.322,1.322,0,0,1-.962-.35,1.29,1.29,0,0,1-.363-.975A1.237,1.237,0,0,1,33.075,147.832Zm-1.1,6a2.182,2.182,0,0,0-1.8-.9,2.029,2.029,0,0,0-1.5.575,5.416,5.416,0,0,0-1.225,3.95,10.585,10.585,0,0,0,.3,3.075,2.877,2.877,0,0,0,.85,1.275,2.093,2.093,0,0,0,1.425.525,2.245,2.245,0,0,0,1.95-.95,2.764,2.764,0,0,0,.475-1.25,16.446,16.446,0,0,0,.1-2.1v-.8a17,17,0,0,0-.1-2.15A2.768,2.768,0,0,0,31.975,153.832Z"/></g><g class="b"><path class="c" d="M26.425,208.936a1.377,1.377,0,0,1,1.013.412,1.412,1.412,0,0,1,.412,1.037,1.291,1.291,0,0,1-.425.976,1.355,1.355,0,0,1-.95.4H26.3l.075.125a3.237,3.237,0,0,0,1.15,1.325,3.169,3.169,0,0,0,1.825.526,2.656,2.656,0,0,0,2.55-1.5,7.634,7.634,0,0,0,.475-3.2,6.222,6.222,0,0,0-.675-3.475,1.965,1.965,0,0,0-1.6-.825,3.218,3.218,0,0,0-2.95,1.7.479.479,0,0,1-.188.212,1.1,1.1,0,0,1-.362.038c-.284,0-.442-.051-.475-.15q-.051-.1-.05-4.375,0-.75-.013-1.776t-.012-1.3q0-1.4.15-1.4a.147.147,0,0,1,.1-.051l.45.151a8.882,8.882,0,0,0,3.325.65,8.5,8.5,0,0,0,3.4-.7.774.774,0,0,1,.325-.1c.133,0,.2.151.2.45v.326a6.392,6.392,0,0,1-5.125,2.424,6.013,6.013,0,0,1-1.4-.149l-.25-.051v4.3a4.622,4.622,0,0,1,2.925-1.15,4.669,4.669,0,0,1,1.025.125,4.734,4.734,0,0,1,2.738,1.9,5.747,5.747,0,0,1,1.062,3.449,5.47,5.47,0,0,1-1.587,3.926,5.216,5.216,0,0,1-3.913,1.649,4.164,4.164,0,0,1-2.675-.875,2.759,2.759,0,0,1-.825-.825,4.42,4.42,0,0,1-.95-2.224c0-.05,0-.129-.012-.238s-.013-.187-.013-.237a1.488,1.488,0,0,1,.4-1.1A1.39,1.39,0,0,1,26.425,208.936Z"/></g><g class="b"><path class="c" d="M35.3,265.714q-.351-.075-3.225-.075-3,0-3.35.075H28.5v-1.151h.775a5.156,5.156,0,0,0,1.325-.125.446.446,0,0,0,.3-.25q.026-.05.025-1.349v-1.25H24.45v-1.151l3.775-5.774q3.825-5.8,3.875-5.825a1.321,1.321,0,0,1,.525-.05h.45l.15.149v11.5h2.3v1.151h-2.3v1.275q0,1.026.012,1.2a.464.464,0,0,0,.138.3,3.168,3.168,0,0,0,1.425.2h.725v1.151Zm-4.225-5.276v-8.349L25.6,260.414l2.725.024Z"/></g><g class="b"><path class="c" d="M26.925,305.567a1.368,1.368,0,0,1-1.063-.424,1.573,1.573,0,0,1-.387-1.1,3.02,3.02,0,0,1,1.125-2.388,4.785,4.785,0,0,1,2.6-1.137h.375q.875,0,1.1.025a6.081,6.081,0,0,1,1.675.524,3.723,3.723,0,0,1,2.075,2.351,2.431,2.431,0,0,1,.075.675,4.154,4.154,0,0,1-.913,2.637,5.049,5.049,0,0,1-2.287,1.663q-.126.05,0,.075a1.674,1.674,0,0,0,.25.075,5.326,5.326,0,0,1,2.575,1.587,3.828,3.828,0,0,1,1.05,2.638,4.355,4.355,0,0,1-.475,1.974,4.946,4.946,0,0,1-1.963,2.113,5.687,5.687,0,0,1-3.037.837,5.975,5.975,0,0,1-2.925-.7,3.6,3.6,0,0,1-1.725-1.875,2.81,2.81,0,0,1-.25-1.224,1.494,1.494,0,0,1,.463-1.138,1.661,1.661,0,0,1,2.262.013,1.523,1.523,0,0,1,.45,1.125,1.605,1.605,0,0,1-.325,1,1.474,1.474,0,0,1-.875.549l-.175.05a4.7,4.7,0,0,0,3.1,1.125,2.232,2.232,0,0,0,2.075-1.324,5.753,5.753,0,0,0,.425-2.525v-.5a3.2,3.2,0,0,0-1.6-3.175,5.217,5.217,0,0,0-1.525-.175l-1.05-.025-.075-.05a.939.939,0,0,1-.05-.4.593.593,0,0,1,.075-.375.208.208,0,0,1,.125-.075,8.753,8.753,0,0,0,1.45-.125,2.164,2.164,0,0,0,1.675-1.237,5.526,5.526,0,0,0,.575-2.612,2.377,2.377,0,0,0-.875-2.175,2.068,2.068,0,0,0-1.175-.351,3.7,3.7,0,0,0-2.2.676,1.03,1.03,0,0,0-.225.162,1.522,1.522,0,0,0-.2.213l-.075.1c.05.016.108.033.175.049a1.2,1.2,0,0,1,.837.476,1.518,1.518,0,0,1,.338.975,1.372,1.372,0,0,1-.413,1.012A1.437,1.437,0,0,1,26.925,305.567Z"/></g><g class="b"><path class="c" d="M26.5,357.847a1.4,1.4,0,0,1-1.1-.451,1.594,1.594,0,0,1-.4-1.1,4.1,4.1,0,0,1,1.362-3.087,4.587,4.587,0,0,1,3.263-1.288,5.423,5.423,0,0,1,3.563,1.163,4.88,4.88,0,0,1,1.737,3.037,7.6,7.6,0,0,1,.05.825,4.731,4.731,0,0,1-.875,2.725,16.607,16.607,0,0,1-2.825,2.875q-.9.776-2.5,2.3l-1.475,1.4,1.9.025a30.085,30.085,0,0,0,4.175-.125c.066-.016.15-.191.25-.525a16.025,16.025,0,0,0,.35-1.7v-.074h1v.074l-.7,4.575v.075H25V368.1a1.7,1.7,0,0,1,.05-.576q.024-.024,2.1-2.375,2.724-3.024,3.5-4a7.244,7.244,0,0,0,1.675-4.174,4.365,4.365,0,0,0-.863-2.763A2.878,2.878,0,0,0,29.05,353.1a2.743,2.743,0,0,0-2.35,1.3c-.033.067-.084.159-.15.275a.568.568,0,0,0-.075.15c0,.017.042.026.125.026a1.27,1.27,0,0,1,1.012.449A1.559,1.559,0,0,1,28,356.347a1.493,1.493,0,0,1-.413,1.062A1.427,1.427,0,0,1,26.5,357.847Z"/></g><g class="b"><path class="c" d="M34.15,420q-.426-.075-3.975-.075-3.5,0-3.925.075h-.3v-1.15h.65a14.1,14.1,0,0,0,1.875-.075,1.616,1.616,0,0,0,.6-.3V405.55a.606.606,0,0,0-.2.075,7.363,7.363,0,0,1-2.575.475h-.475v-1.15H26.3a6.97,6.97,0,0,0,3.5-.95,3.448,3.448,0,0,0,.775-.575q.05-.075.3-.075a.631.631,0,0,1,.425.15v7.475l.025,7.5a2.419,2.419,0,0,0,1.625.375h1.475V420Z"/></g><g class="d"><line class="e" x1="88" y1="60" x2="88" y2="420"/><line class="e" x1="116" y1="60" x2="116" y2="420"/><line class="e" x1="144" y1="60" x2="144" y2="420"/><line class="e" x1="172" y1="60" x2="172" y2="420"/><line class="e" x1="228" y1="60" x2="228" y2="420"/><line class="e" x1="256" y1="60" x2="256" y2="420"/><line class="e" x1="284" y1="60" x2="284" y2="420"/><line class="e" x1="312" y1="60" x2="312" y2="420"/><line class="e" x1="368" y1="60" x2="368" y2="420"/><line class="e" x1="396" y1="60" x2="396" y2="420"/><line class="e" x1="424" y1="60" x2="424" y2="420"/><line class="e" x1="452" y1="60" x2="452" y2="420"/><line class="e" x1="508" y1="60" x2="508" y2="420"/><line class="e" x1="536" y1="60" x2="536" y2="420"/><line class="e" x1="564" y1="60" x2="564" y2="420"/><line class="e" x1="592" y1="60" x2="592" y2="420"/><line class="e" x1="648" y1="60" x2="648" y2="420"/><line class="e" x1="676" y1="60" x2="676" y2="420"/><line class="e" x1="704" y1="60" x2="704" y2="420"/><line class="e" x1="732" y1="60" x2="732" y2="420"/><line class="e" x1="788" y1="60" x2="788" y2="420"/><line class="e" x1="816" y1="60" x2="816" y2="420"/><line class="e" x1="844" y1="60" x2="844" y2="420"/><line class="e" x1="872" y1="60" x2="872" y2="420"/><line class="e" x1="60" y1="65.143" x2="900" y2="65.143"/><line class="e" x1="60" y1="70.286" x2="900" y2="70.286"/><line class="e" x1="60" y1="75.429" x2="900" y2="75.429"/><line class="e" x1="60" y1="80.571" x2="900" y2="80.571"/><line class="e" x1="60" y1="90.857" x2="900" y2="90.857"/><line class="e" x1="60" y1="96" x2="900" y2="96"/><line class="e" x1="60" y1="101.143" x2="900" y2="101.143"/><line class="e" x1="60" y1="106.286" x2="900" y2="106.286"/><line class="e" x1="60" y1="116.571" x2="900" y2="116.571"/><line class="e" x1="60" y1="121.714" x2="900" y2="121.714"/><line class="e" x1="60" y1="126.857" x2="900" y2="126.857"/><line class="e" x1="60" y1="132" x2="900" y2="132"/><line class="e" x1="60" y1="142.286" x2="900" y2="142.286"/><line class="e" x1="60" y1="147.429" x2="900" y2="147.429"/><line class="e" x1="60" y1="152.571" x2="900" y2="152.571"/><line class="e" x1="60" y1="157.714" x2="900" y2="157.714"/><line class="e" x1="60" y1="168" x2="900" y2="168"/><line class="e" x1="60" y1="173.143" x2="900" y2="173.143"/><line class="e" x1="60" y1="178.286" x2="900" y2="178.286"/><line class="e" x1="60" y1="183.429" x2="900" y2="183.429"/><line class="e" x1="60" y1="193.714" x2="900" y2="193.714"/><line class="e" x1="60" y1="198.857" x2="900" y2="198.857"/><line class="e" x1="60" y1="204" x2="900" y2="204"/><line class="e" x1="60" y1="209.143" x2="900" y2="209.143"/><line class="e" x1="60" y1="219.429" x2="900" y2="219.429"/><line class="e" x1="60" y1="224.571" x2="900" y2="224.571"/><line class="e" x1="60" y1="229.714" x2="900" y2="229.714"/><line class="e" x1="60" y1="234.857" x2="900" y2="234.857"/><line class="e" x1="60" y1="245.143" x2="900" y2="245.143"/><line class="e" x1="60" y1="250.286" x2="900" y2="250.286"/><line class="e" x1="60" y1="255.429" x2="900" y2="255.429"/><line class="e" x1="60" y1="260.571" x2="900" y2="260.571"/><line class="e" x1="60" y1="270.857" x2="900" y2="270.857"/><line class="e" x1="60" y1="276" x2="900" y2="276"/><line class="e" x1="60" y1="281.143" x2="900" y2="281.143"/><line class="e" x1="60" y1="286.286" x2="900" y2="286.286"/><line class="e" x1="60" y1="296.571" x2="900" y2="296.571"/><line class="e" x1="60" y1="301.714" x2="900" y2="301.714"/><line class="e" x1="60" y1="306.857" x2="900" y2="306.857"/><line class="e" x1="60" y1="312" x2="900" y2="312"/><line class="e" x1="60" y1="322.286" x2="900" y2="322.286"/><line class="e" x1="60" y1="327.429" x2="900" y2="327.429"/><line class="e" x1="60" y1="332.571" x2="900" y2="332.571"/><line class="e" x1="60" y1="337.714" x2="900" y2="337.714"/><line class="e" x1="60" y1="348" x2="900" y2="348"/><line class="e" x1="60" y1="353.143" x2="900" y2="353.143"/><line class="e" x1="60" y1="358.286" x2="900" y2="358.286"/><line class="e" x1="60" y1="363.429" x2="900" y2="363.429"/><line class="e" x1="60" y1="373.714" x2="900" y2="373.714"/><line class="e" x1="60" y1="378.857" x2="900" y2="378.857"/><line class="e" x1="60" y1="384" x2="900" y2="384"/><line class="e" x1="60" y1="389.143" x2="900" y2="389.143"/><line class="e" x1="60" y1="399.429" x2="900" y2="399.429"/><line class="e" x1="60" y1="404.571" x2="900" y2="404.571"/><line class="e" x1="60" y1="409.714" x2="900" y2="409.714"/><line class="e" x1="60" y1="414.857" x2="900" y2="414.857"/></g><g class="f"><line class="e" x1="200" y1="60" x2="200" y2="420"/><line class="e" x1="480" y1="60" x2="480" y2="420"/><line class="e" x1="760" y1="60" x2="760" y2="420"/><line class="e" x1="60" y1="85.714" x2="900" y2="85.714"/><line class="e" x1="60" y1="137.143" x2="900" y2="137.143"/><line class="e" x1="60" y1="188.571" x2="900" y2="188.571"/><line class="e" x1="60" y1="240" x2="900" y2="240"/><line class="e" x1="60" y1="291.429" x2="900" y2="291.429"/><line class="e" x1="60" y1="342.857" x2="900" y2="342.857"/><line class="e" x1="60" y1="394.286" x2="900" y2="394.286"/></g><g class="g"><line class="e" x1="60" y1="60" x2="60" y2="420"/><line class="e" x1="340" y1="60" x2="340" y2="420"/><line class="e" x1="620" y1="60" x2="620" y2="420"/><line class="e" x1="900" y1="60" x2="900" y2="420"/><line class="e" x1="60" y1="60" x2="900" y2="60"/><line class="e" x1="60" y1="111.429" x2="900" y2="111.429"/><line class="e" x1="60" y1="162.857" x2="900" y2="162.857"/><line class="e" x1="60" y1="214.286" x2="900" y2="214.286"/><line class="e" x1="60" y1="265.714" x2="900" y2="265.714"/><line class="e" x1="60" y1="317.143" x2="900" y2="317.143"/><line class="e" x1="60" y1="368.571" x2="900" y2="368.571"/><line class="e" x1="60" y1="420" x2="900" y2="420"/></g><g class="h"><path class="i" d="M60,420h0c184.407-23.664,369.59-62.243,538-143.382a1076.98,1076.98,0,0,0,157-92.535A1081.224,1081.224,0,0,0,900,60"/><path class="j" d="M60,420h0c72.729-18.362,143.52-47.042,205-90.477C376.163,251.9,449.475,132.669,503,10.377"/><path class="k" d="M60,420h0c53.5-20.154,101.323-51.874,140-94.034C277.967,241.33,322.666,120.541,355,11.517"/><path class="l" d="M60,420h0c72.779-36.494,117.83-103.106,150-175.7,32.612-74.1,53.416-152.81,71-231.647"/></g><path class="m" d="M896.5,29.138a1.4,1.4,0,0,1-1.1-.45,1.6,1.6,0,0,1-.4-1.1,4.1,4.1,0,0,1,1.362-3.087,4.587,4.587,0,0,1,3.263-1.288,5.421,5.421,0,0,1,3.563,1.163,4.88,4.88,0,0,1,1.737,3.037,7.6,7.6,0,0,1,.05.825,4.723,4.723,0,0,1-.875,2.725,16.607,16.607,0,0,1-2.825,2.875q-.9.775-2.5,2.3l-1.475,1.4,1.9.025a30.2,30.2,0,0,0,4.175-.124c.066-.017.15-.192.25-.526a15.75,15.75,0,0,0,.35-1.7v-.074h1v.074l-.7,4.575v.075H895v-.474a1.7,1.7,0,0,1,.05-.576q.024-.024,2.1-2.374,2.726-3.026,3.5-4a7.249,7.249,0,0,0,1.675-4.175,4.377,4.377,0,0,0-.862-2.763,2.881,2.881,0,0,0-2.413-1.112,2.742,2.742,0,0,0-2.35,1.3c-.034.066-.084.158-.15.274a.568.568,0,0,0-.075.15c0,.017.042.026.125.026a1.27,1.27,0,0,1,1.012.449A1.559,1.559,0,0,1,898,27.638a1.5,1.5,0,0,1-.412,1.062A1.43,1.43,0,0,1,896.5,29.138Z"/><path class="m" d="M907.1,27.485a.239.239,0,0,1-.088-.16,2.769,2.769,0,0,1,.452-1.006,2.5,2.5,0,0,1,1.72-1.2,2.257,2.257,0,0,1,.305-.029,1.783,1.783,0,0,1,.941.262,1.567,1.567,0,0,1,.619.657l.233-.307a1.617,1.617,0,0,1,1.24-.612,1.369,1.369,0,0,1,.968.343,1.093,1.093,0,0,1,.372.837,1.148,1.148,0,0,1-.254.758.842.842,0,0,1-.678.307.64.64,0,0,1-.452-.161.54.54,0,0,1-.175-.422.927.927,0,0,1,.728-.919.618.618,0,0,0-.16-.1.834.834,0,0,0-.423-.088.932.932,0,0,0-.277.03,1.524,1.524,0,0,0-.815.962q-.045.117-.423,1.625t-.408,1.7a2.16,2.16,0,0,0-.044.437.748.748,0,0,0,.2.554.726.726,0,0,0,.539.2,1.509,1.509,0,0,0,1.108-.517A2.69,2.69,0,0,0,913,29.5c.029-.1.059-.153.088-.168a.7.7,0,0,1,.233-.021c.184,0,.277.038.277.116,0,.01-.01.063-.03.16a3.165,3.165,0,0,1-1.019,1.574,2.3,2.3,0,0,1-1.443.539,1.676,1.676,0,0,1-1.545-.918,2.037,2.037,0,0,1-1.08.874,1.786,1.786,0,0,1-.378.03,1.271,1.271,0,0,1-1.2-.6,1.129,1.129,0,0,1-.146-.583,1.108,1.108,0,0,1,.262-.743.845.845,0,0,1,.671-.306.547.547,0,0,1,.626.612.825.825,0,0,1-.509.788l-.074.036-.072.036a.1.1,0,0,1-.044.014l-.044.015c0,.029.073.073.219.131a.966.966,0,0,0,.379.073,1.076,1.076,0,0,0,.9-.656,10.853,10.853,0,0,0,.569-1.895c.058-.223.122-.47.19-.743s.118-.481.152-.627.056-.233.066-.261a3.526,3.526,0,0,0,.073-.57.787.787,0,0,0-.189-.553.682.682,0,0,0-.525-.205,1.524,1.524,0,0,0-1.137.5,2.764,2.764,0,0,0-.671,1.16c-.019.086-.041.138-.065.153a.725.725,0,0,1-.24.021Z"/><path class="n" d="M483.213,40.794q-.351-.073-3.225-.075-3,0-3.351.075h-.224v-1.15h.775a5.237,5.237,0,0,0,1.324-.125.446.446,0,0,0,.3-.25c.016-.033.024-.482.024-1.35v-1.25h-6.474v-1.15l3.774-5.774q3.826-5.8,3.876-5.826a1.336,1.336,0,0,1,.525-.049h.45l.15.149v11.5h2.3v1.15h-2.3v1.276q0,1.024.012,1.2a.461.461,0,0,0,.138.3,3.183,3.183,0,0,0,1.425.2h.725v1.15Zm-4.225-5.275v-8.35l-5.476,8.326,2.726.024Z"/><path class="n" d="M485.009,28.417a.239.239,0,0,1-.088-.16,2.776,2.776,0,0,1,.452-1.006,2.5,2.5,0,0,1,1.72-1.2,2.454,2.454,0,0,1,.305-.029,1.775,1.775,0,0,1,.941.263,1.559,1.559,0,0,1,.619.656l.233-.307a1.617,1.617,0,0,1,1.24-.612,1.369,1.369,0,0,1,.968.343,1.094,1.094,0,0,1,.372.838,1.141,1.141,0,0,1-.254.757.842.842,0,0,1-.678.307.64.64,0,0,1-.452-.161.543.543,0,0,1-.175-.422.927.927,0,0,1,.728-.919.618.618,0,0,0-.16-.1.834.834,0,0,0-.423-.087.939.939,0,0,0-.277.029,1.524,1.524,0,0,0-.815.962q-.045.117-.423,1.625t-.408,1.7a2.169,2.169,0,0,0-.044.438.747.747,0,0,0,.2.553.726.726,0,0,0,.539.2,1.509,1.509,0,0,0,1.108-.517,2.69,2.69,0,0,0,.67-1.144c.029-.1.059-.153.088-.168a.731.731,0,0,1,.233-.021c.184,0,.277.038.277.116,0,.01-.01.063-.03.16a3.165,3.165,0,0,1-1.019,1.574,2.3,2.3,0,0,1-1.443.539,1.676,1.676,0,0,1-1.545-.918,2.039,2.039,0,0,1-1.079.874,1.8,1.8,0,0,1-.379.03,1.269,1.269,0,0,1-1.195-.6,1.129,1.129,0,0,1-.146-.583,1.1,1.1,0,0,1,.263-.743.842.842,0,0,1,.67-.306.548.548,0,0,1,.626.613.825.825,0,0,1-.509.787l-.074.036-.072.036a.107.107,0,0,1-.044.015l-.044.014c0,.03.073.073.219.131a.966.966,0,0,0,.379.073,1.073,1.073,0,0,0,.9-.656,10.86,10.86,0,0,0,.569-1.894c.058-.224.122-.471.19-.744s.118-.481.152-.627.056-.233.066-.261a3.513,3.513,0,0,0,.073-.57.783.783,0,0,0-.189-.553.682.682,0,0,0-.525-.2,1.527,1.527,0,0,0-1.137.5,2.762,2.762,0,0,0-.67,1.16c-.02.087-.041.138-.066.153a.725.725,0,0,1-.24.021Z"/><path class="o" d="M337.05,32.419a7.43,7.43,0,0,1-1.888-1.674,3.717,3.717,0,0,1-.662-2.3,3.688,3.688,0,0,1,.4-1.8,4.454,4.454,0,0,1,1.613-1.812,4.387,4.387,0,0,1,2.437-.688,4.97,4.97,0,0,1,2.95.888,3.689,3.689,0,0,1,1.55,2.288,4.443,4.443,0,0,1,.025.6,3.673,3.673,0,0,1-.05.75,4.674,4.674,0,0,1-2.275,2.85l-.3.2q1.4.951,1.45,1a4.6,4.6,0,0,1,1.875,3.726,4.643,4.643,0,0,1-1.487,3.462,5.136,5.136,0,0,1-3.713,1.437,5,5,0,0,1-4.525-2.25,3.713,3.713,0,0,1-.625-2.175Q333.825,34.2,337.05,32.419Zm-1.625,4.451a3.127,3.127,0,0,0,1.075,2.437,3.631,3.631,0,0,0,2.5.962,4.043,4.043,0,0,0,1.862-.425,3.094,3.094,0,0,0,1.263-1.1,2.476,2.476,0,0,0,.425-1.375,2.545,2.545,0,0,0-.875-1.9q-.2-.2-2.075-1.425l-.762-.487c-.276-.175-.488-.312-.638-.413l-.2-.125-.3.15a4.865,4.865,0,0,0-2.075,2.5A4.089,4.089,0,0,0,335.425,36.87Zm6.6-8.9a2.581,2.581,0,0,0-.7-1.825,3.105,3.105,0,0,0-1.7-.949,7.742,7.742,0,0,0-.825-.026,3.018,3.018,0,0,0-2.225.9,1.8,1.8,0,0,0-.625,1.375,1.962,1.962,0,0,0,.9,1.7q.126.126,1.6,1.051l1.45.949c.016-.016.125-.087.325-.212a2.551,2.551,0,0,0,.45-.338A3.245,3.245,0,0,0,342.025,27.969Z"/><path class="o" d="M346.1,28.417a.239.239,0,0,1-.088-.16,2.776,2.776,0,0,1,.452-1.006,2.5,2.5,0,0,1,1.72-1.2,2.437,2.437,0,0,1,.305-.029,1.775,1.775,0,0,1,.941.263,1.559,1.559,0,0,1,.619.656l.233-.307a1.617,1.617,0,0,1,1.24-.612,1.369,1.369,0,0,1,.968.343,1.094,1.094,0,0,1,.372.838,1.147,1.147,0,0,1-.254.757.842.842,0,0,1-.678.307.64.64,0,0,1-.452-.161.54.54,0,0,1-.175-.422.927.927,0,0,1,.728-.919.618.618,0,0,0-.16-.1.834.834,0,0,0-.423-.087.939.939,0,0,0-.277.029,1.524,1.524,0,0,0-.815.962q-.045.117-.423,1.625t-.408,1.7a2.169,2.169,0,0,0-.044.438.747.747,0,0,0,.2.553.726.726,0,0,0,.539.2,1.509,1.509,0,0,0,1.108-.517,2.69,2.69,0,0,0,.67-1.144c.029-.1.059-.153.088-.168a.731.731,0,0,1,.233-.021c.184,0,.277.038.277.116,0,.01-.01.063-.03.16a3.165,3.165,0,0,1-1.019,1.574,2.3,2.3,0,0,1-1.443.539,1.676,1.676,0,0,1-1.545-.918,2.037,2.037,0,0,1-1.08.874,1.786,1.786,0,0,1-.378.03,1.269,1.269,0,0,1-1.195-.6,1.129,1.129,0,0,1-.146-.583,1.108,1.108,0,0,1,.262-.743.845.845,0,0,1,.671-.306.548.548,0,0,1,.626.613.825.825,0,0,1-.509.787l-.074.036-.072.036a.107.107,0,0,1-.044.015l-.044.014c0,.03.073.073.219.131a.966.966,0,0,0,.379.073,1.074,1.074,0,0,0,.9-.656,10.86,10.86,0,0,0,.569-1.894c.058-.224.122-.471.19-.744s.118-.481.152-.627.056-.233.066-.261a3.513,3.513,0,0,0,.073-.57.787.787,0,0,0-.189-.553.682.682,0,0,0-.525-.2,1.527,1.527,0,0,0-1.137.5,2.764,2.764,0,0,0-.671,1.16c-.019.087-.041.138-.065.153a.725.725,0,0,1-.24.021Z"/><path class="p" d="M263.757,40.794q-.426-.073-3.976-.075-3.5,0-3.925.075h-.3v-1.15h.649a14.141,14.141,0,0,0,1.875-.074,1.618,1.618,0,0,0,.6-.3V26.344a.618.618,0,0,0-.2.075,7.358,7.358,0,0,1-2.575.475h-.474V25.745h.474a6.964,6.964,0,0,0,3.5-.951,3.454,3.454,0,0,0,.776-.575c.033-.05.132-.075.3-.075a.636.636,0,0,1,.425.15v7.475l.026,7.5a2.419,2.419,0,0,0,1.625.375h1.474v1.15Z"/><path class="p" d="M275.182,25.769a2.372,2.372,0,0,0-1.55-.625,3.581,3.581,0,0,0-2.926,1.5,8.691,8.691,0,0,0-1.175,5.051l.026.1.2-.325a3.193,3.193,0,0,1,2.774-1.5,4.18,4.18,0,0,1,2.026.476,5.191,5.191,0,0,1,1.2,1.012,6.337,6.337,0,0,1,.974,1.413,6.715,6.715,0,0,1,.526,2.674v.451a4.445,4.445,0,0,1-.125,1.075,5.617,5.617,0,0,1-1.551,2.774,4.6,4.6,0,0,1-2.4,1.4,4.99,4.99,0,0,1-1.851.024,4.42,4.42,0,0,1-2.949-2,11.652,11.652,0,0,1-1.476-6.3,11.016,11.016,0,0,1,.95-4.724,7.478,7.478,0,0,1,2.651-3.151,4.981,4.981,0,0,1,2.925-.95,3.431,3.431,0,0,1,2.337.775,2.677,2.677,0,0,1,.887,2.125,1.38,1.38,0,0,1-.362,1,1.279,1.279,0,0,1-.963.375,1.327,1.327,0,0,1-.962-.349,1.293,1.293,0,0,1-.362-.976A1.236,1.236,0,0,1,275.182,25.769Zm-1.1,6a2.18,2.18,0,0,0-1.8-.9,2.028,2.028,0,0,0-1.5.575,5.417,5.417,0,0,0-1.224,3.949,10.59,10.59,0,0,0,.3,3.075,2.885,2.885,0,0,0,.85,1.276,2.1,2.1,0,0,0,1.426.524,2.243,2.243,0,0,0,1.949-.949,2.785,2.785,0,0,0,.476-1.25,16.7,16.7,0,0,0,.1-2.1v-.8a17.232,17.232,0,0,0-.1-2.15A2.79,2.79,0,0,0,274.081,31.769Z"/><path class="p" d="M279.2,28.417a.243.243,0,0,1-.088-.16,2.794,2.794,0,0,1,.452-1.006,2.5,2.5,0,0,1,1.72-1.2,2.45,2.45,0,0,1,.306-.029,1.772,1.772,0,0,1,.94.263,1.559,1.559,0,0,1,.619.656l.234-.307a1.614,1.614,0,0,1,1.239-.612,1.372,1.372,0,0,1,.969.343,1.094,1.094,0,0,1,.372.838,1.142,1.142,0,0,1-.255.757.842.842,0,0,1-.678.307.641.641,0,0,1-.452-.161.543.543,0,0,1-.175-.422.927.927,0,0,1,.729-.919.643.643,0,0,0-.16-.1.84.84,0,0,0-.423-.087.946.946,0,0,0-.278.029,1.527,1.527,0,0,0-.815.962q-.044.117-.423,1.625t-.408,1.7a2.244,2.244,0,0,0-.044.438.747.747,0,0,0,.2.553.729.729,0,0,0,.539.2,1.511,1.511,0,0,0,1.109-.517,2.688,2.688,0,0,0,.669-1.144c.03-.1.059-.153.088-.168a.743.743,0,0,1,.234-.021c.183,0,.276.038.276.116,0,.01-.01.063-.029.16a3.167,3.167,0,0,1-1.02,1.574,2.3,2.3,0,0,1-1.443.539,1.677,1.677,0,0,1-1.545-.918,2.035,2.035,0,0,1-1.079.874,1.8,1.8,0,0,1-.379.03,1.267,1.267,0,0,1-1.194-.6,1.12,1.12,0,0,1-.147-.583,1.1,1.1,0,0,1,.263-.743.844.844,0,0,1,.671-.306.548.548,0,0,1,.626.613.824.824,0,0,1-.51.787l-.073.036-.072.036a.117.117,0,0,1-.044.015l-.044.014c0,.03.073.073.218.131a.973.973,0,0,0,.379.073,1.074,1.074,0,0,0,.9-.656,11,11,0,0,0,.568-1.894c.059-.224.122-.471.19-.744s.119-.481.153-.627.055-.233.065-.261a3.513,3.513,0,0,0,.073-.57.783.783,0,0,0-.189-.553.681.681,0,0,0-.524-.2,1.524,1.524,0,0,0-1.137.5,2.764,2.764,0,0,0-.671,1.16c-.02.087-.041.138-.066.153a.725.725,0,0,1-.24.021Z"/></svg>