<svg xmlns="http://www.w3.org/2000/svg" width="420" height="920" viewBox="0 0 420 920"><defs><style>.a{isolation:isolate;}.b{fill:#fff;}.c{opacity:0.15;}.d,.g,.h,.i{fill:none;stroke-miterlimit:40;}.d{stroke:#fff;}.e{opacity:0.25;}.f{opacity:0.4;}.g{stroke:#58c4dd;}.h{stroke:#5cd0b3;}.i{stroke:#83c167;}.j{fill:#58c4dd;}.k{fill:#5cd0b3;}.l{fill:#83c167;}</style></defs><rect width="420" height="920"/><g class="a"><path class="b" d="M29.8,51.625a7.408,7.408,0,0,1-1.887-1.675,4.29,4.29,0,0,1-.263-4.1,4.456,4.456,0,0,1,1.613-1.813A4.386,4.386,0,0,1,31.7,43.35a4.969,4.969,0,0,1,2.95.887,3.692,3.692,0,0,1,1.55,2.288,4.644,4.644,0,0,1,.025.6,3.687,3.687,0,0,1-.05.75,4.67,4.67,0,0,1-2.275,2.85l-.3.2q1.4.951,1.45,1a4.6,4.6,0,0,1,1.875,3.725,4.642,4.642,0,0,1-1.487,3.462,5.135,5.135,0,0,1-3.713,1.438A5,5,0,0,1,27.2,58.3a3.716,3.716,0,0,1-.625-2.175Q26.575,53.4,29.8,51.625Zm-1.625,4.45a3.129,3.129,0,0,0,1.075,2.438,3.634,3.634,0,0,0,2.5.962,4.046,4.046,0,0,0,1.862-.425,3.1,3.1,0,0,0,1.263-1.1,2.472,2.472,0,0,0,.425-1.375,2.543,2.543,0,0,0-.875-1.9q-.2-.2-2.075-1.425l-.763-.487q-.412-.262-.637-.413l-.2-.125-.3.15a4.865,4.865,0,0,0-2.075,2.5A4.088,4.088,0,0,0,28.175,56.075Zm6.6-8.9a2.577,2.577,0,0,0-.7-1.825,3.1,3.1,0,0,0-1.7-.95,8.159,8.159,0,0,0-.825-.025,3.023,3.023,0,0,0-2.225.9A1.8,1.8,0,0,0,28.7,46.65a1.964,1.964,0,0,0,.9,1.7q.124.126,1.6,1.05l1.45.95c.017-.016.125-.087.325-.212a2.6,2.6,0,0,0,.45-.338A3.245,3.245,0,0,0,34.775,47.175Z"/></g><g class="a"><path class="b" d="M26.875,148.55q.026-.05.425-2.725l.4-2.675c0-.033.166-.05.5-.05h.5v.1q0,.25.375.425a3.942,3.942,0,0,0,1.313.225q.938.051,4.212.05h3.025v.975l-1.7,2.325q-.375.525-.85,1.162t-.725.988c-.167.234-.267.375-.3.425A11.555,11.555,0,0,0,32.5,155.2q-.1,1.026-.125,2.8,0,.35-.013.713c-.008.241-.012.437-.012.587v.225a1.272,1.272,0,0,1-.488.725,1.339,1.339,0,0,1-.837.3,1.223,1.223,0,0,1-.963-.412A1.671,1.671,0,0,1,29.7,159q0-.375.1-1.425a17.472,17.472,0,0,1,2.325-6.775q.5-.8,2.1-3.025l1.15-1.575H33.05a29.367,29.367,0,0,0-4.575.15c-.067.034-.159.216-.275.55a8.467,8.467,0,0,0-.25,1.175,2.827,2.827,0,0,1-.075.475v.075h-1Z"/></g><g class="a"><path class="b" d="M34.825,244.975a2.359,2.359,0,0,0-1.55-.625,3.58,3.58,0,0,0-2.925,1.5,8.68,8.68,0,0,0-1.175,5.05l.025.1.2-.325a3.2,3.2,0,0,1,2.775-1.5,4.189,4.189,0,0,1,2.025.475,5.2,5.2,0,0,1,1.2,1.012,6.309,6.309,0,0,1,.975,1.413,6.719,6.719,0,0,1,.525,2.675v.45a4.439,4.439,0,0,1-.125,1.075,5.621,5.621,0,0,1-1.55,2.775,4.589,4.589,0,0,1-2.4,1.4,4.192,4.192,0,0,1-1,.1,4.355,4.355,0,0,1-.85-.075,4.429,4.429,0,0,1-2.95-2,11.673,11.673,0,0,1-1.475-6.3,11.009,11.009,0,0,1,.95-4.725,7.486,7.486,0,0,1,2.65-3.15,4.983,4.983,0,0,1,2.925-.95,3.426,3.426,0,0,1,2.338.775,2.677,2.677,0,0,1,.887,2.125,1.38,1.38,0,0,1-.362,1,1.279,1.279,0,0,1-.963.375,1.322,1.322,0,0,1-.962-.35,1.29,1.29,0,0,1-.363-.975A1.237,1.237,0,0,1,34.825,244.975Zm-1.1,6a2.182,2.182,0,0,0-1.8-.9,2.029,2.029,0,0,0-1.5.575A5.416,5.416,0,0,0,29.2,254.6a10.585,10.585,0,0,0,.3,3.075,2.877,2.877,0,0,0,.85,1.275,2.093,2.093,0,0,0,1.425.525,2.245,2.245,0,0,0,1.95-.95,2.764,2.764,0,0,0,.475-1.25,16.446,16.446,0,0,0,.1-2.1v-.8a17,17,0,0,0-.1-2.15A2.768,2.768,0,0,0,33.725,250.975Z"/></g><g class="a"><path class="b" d="M28.175,354.65a1.377,1.377,0,0,1,1.013.412A1.414,1.414,0,0,1,29.6,356.1a1.289,1.289,0,0,1-.425.975,1.352,1.352,0,0,1-.95.4H28.05l.075.125a3.244,3.244,0,0,0,1.15,1.325,3.176,3.176,0,0,0,1.825.525,2.656,2.656,0,0,0,2.55-1.5,7.631,7.631,0,0,0,.475-3.2,6.222,6.222,0,0,0-.675-3.475,1.968,1.968,0,0,0-1.6-.825,3.22,3.22,0,0,0-2.95,1.7.473.473,0,0,1-.188.212,1.072,1.072,0,0,1-.362.038q-.426,0-.475-.15-.051-.1-.05-4.375,0-.75-.013-1.775t-.012-1.3q0-1.4.15-1.4a.145.145,0,0,1,.1-.05l.45.15a8.862,8.862,0,0,0,3.325.65,8.5,8.5,0,0,0,3.4-.7.784.784,0,0,1,.325-.1q.2,0,.2.45v.325a6.392,6.392,0,0,1-5.125,2.425,6.01,6.01,0,0,1-1.4-.15l-.25-.05v4.3a4.288,4.288,0,0,1,3.95-1.025,4.734,4.734,0,0,1,2.738,1.9,5.75,5.75,0,0,1,1.062,3.45,5.467,5.467,0,0,1-1.587,3.925,5.217,5.217,0,0,1-3.913,1.65,4.164,4.164,0,0,1-2.675-.875,2.771,2.771,0,0,1-.825-.825,4.424,4.424,0,0,1-.95-2.225q0-.075-.012-.237c-.009-.109-.013-.188-.013-.238a1.485,1.485,0,0,1,.4-1.1A1.386,1.386,0,0,1,28.175,354.65Z"/></g><g class="a"><path class="b" d="M37.05,460q-.351-.075-3.225-.075-3,0-3.35.075H30.25v-1.15h.775a5.255,5.255,0,0,0,1.325-.125.452.452,0,0,0,.3-.25c.017-.034.025-.483.025-1.35v-1.25H26.2v-1.15l3.775-5.775q3.825-5.8,3.875-5.825a1.321,1.321,0,0,1,.525-.05h.45l.15.15v11.5h2.3v1.15h-2.3v1.275c0,.684,0,1.083.012,1.2a.464.464,0,0,0,.138.3,3.161,3.161,0,0,0,1.425.2h.725V460Zm-4.225-5.275v-8.35L27.35,454.7l2.725.025Z"/></g><g class="a"><path class="b" d="M28.675,548.425A1.369,1.369,0,0,1,27.612,548a1.57,1.57,0,0,1-.387-1.1,3.017,3.017,0,0,1,1.125-2.387,4.779,4.779,0,0,1,2.6-1.138h.375c.583,0,.95.009,1.1.025a6.051,6.051,0,0,1,1.675.525,3.723,3.723,0,0,1,2.075,2.35,2.431,2.431,0,0,1,.075.675,4.157,4.157,0,0,1-.913,2.638,5.055,5.055,0,0,1-2.287,1.662c-.084.033-.084.059,0,.075a1.556,1.556,0,0,0,.25.075,5.341,5.341,0,0,1,2.575,1.587,3.832,3.832,0,0,1,1.05,2.638,4.356,4.356,0,0,1-.475,1.975,4.958,4.958,0,0,1-1.963,2.113,5.687,5.687,0,0,1-3.037.837,5.986,5.986,0,0,1-2.925-.7,3.6,3.6,0,0,1-1.725-1.875,2.815,2.815,0,0,1-.25-1.225,1.494,1.494,0,0,1,.463-1.138,1.664,1.664,0,0,1,2.262.013,1.526,1.526,0,0,1,.45,1.125,1.6,1.6,0,0,1-.325,1,1.475,1.475,0,0,1-.875.55l-.175.05a4.7,4.7,0,0,0,3.1,1.125,2.233,2.233,0,0,0,2.075-1.325,5.747,5.747,0,0,0,.425-2.525v-.5a3.2,3.2,0,0,0-1.6-3.175,5.253,5.253,0,0,0-1.525-.175l-1.05-.025-.075-.05a.934.934,0,0,1-.05-.4.593.593,0,0,1,.075-.375.2.2,0,0,1,.125-.075,8.753,8.753,0,0,0,1.45-.125,2.166,2.166,0,0,0,1.675-1.238,5.52,5.52,0,0,0,.575-2.612,2.377,2.377,0,0,0-.875-2.175,2.075,2.075,0,0,0-1.175-.35,3.7,3.7,0,0,0-2.2.675,1.039,1.039,0,0,0-.225.163,1.52,1.52,0,0,0-.2.212l-.075.1c.05.017.108.033.175.05a1.194,1.194,0,0,1,.837.475,1.522,1.522,0,0,1,.338.975,1.376,1.376,0,0,1-.413,1.013A1.441,1.441,0,0,1,28.675,548.425Z"/></g><g class="a"><path class="b" d="M28.25,649.275a1.4,1.4,0,0,1-1.1-.45,1.6,1.6,0,0,1-.4-1.1,4.1,4.1,0,0,1,1.362-3.087,4.583,4.583,0,0,1,3.263-1.288,5.418,5.418,0,0,1,3.563,1.163,4.88,4.88,0,0,1,1.737,3.037,7.6,7.6,0,0,1,.05.825,4.731,4.731,0,0,1-.875,2.725,16.607,16.607,0,0,1-2.825,2.875q-.9.775-2.5,2.3l-1.475,1.4,1.9.025a30.085,30.085,0,0,0,4.175-.125c.066-.016.15-.191.25-.525a16.025,16.025,0,0,0,.35-1.7v-.075h1v.075l-.7,4.575V660H26.75v-.475a1.69,1.69,0,0,1,.05-.575q.024-.024,2.1-2.375,2.724-3.024,3.5-4a7.244,7.244,0,0,0,1.675-4.175,4.365,4.365,0,0,0-.863-2.762,2.876,2.876,0,0,0-2.412-1.113,2.744,2.744,0,0,0-2.35,1.3c-.033.067-.084.158-.15.275a.553.553,0,0,0-.075.15c0,.017.042.025.125.025a1.27,1.27,0,0,1,1.012.45,1.557,1.557,0,0,1,.388,1.05,1.5,1.5,0,0,1-.413,1.063A1.426,1.426,0,0,1,28.25,649.275Z"/></g><g class="a"><path class="b" d="M35.9,760q-.426-.075-3.975-.075-3.5,0-3.925.075h-.3v-1.15h.65a14.1,14.1,0,0,0,1.875-.075,1.616,1.616,0,0,0,.6-.3V745.55a.606.606,0,0,0-.2.075,7.363,7.363,0,0,1-2.575.475h-.475v-1.15h.475a6.97,6.97,0,0,0,3.5-.95,3.448,3.448,0,0,0,.775-.575q.049-.075.3-.075a.631.631,0,0,1,.425.15v7.475l.025,7.5a2.419,2.419,0,0,0,1.625.375h1.475V760Z"/></g><g class="a"><path class="b" d="M26.15,845.375a4.41,4.41,0,0,1,3.825-2.025,4.613,4.613,0,0,1,3.2,1.25,5.439,5.439,0,0,1,1.15,1.7,14.317,14.317,0,0,1,.925,5.7,13.043,13.043,0,0,1-1.075,5.925,4.331,4.331,0,0,1-2.05,2.1A4.71,4.71,0,0,1,30,860.55a4.4,4.4,0,0,1-4.2-2.625A13.043,13.043,0,0,1,24.725,852a19.438,19.438,0,0,1,.313-3.838A8.373,8.373,0,0,1,26.15,845.375Zm5.625-.3a2.3,2.3,0,0,0-1.775-.8,2.382,2.382,0,0,0-1.8.8,3.006,3.006,0,0,0-.75,1.4,15.352,15.352,0,0,0-.25,2.85q0,.15-.012.975t-.013,1.375q0,2.4.05,3.35a14.345,14.345,0,0,0,.3,2.512,2.837,2.837,0,0,0,.75,1.313A2.217,2.217,0,0,0,30,859.6a2.19,2.19,0,0,0,1.7-.75,2.854,2.854,0,0,0,.75-1.313,14.345,14.345,0,0,0,.3-2.512q.05-.949.05-3.35,0-.549-.012-1.375t-.013-.975a15.532,15.532,0,0,0-.25-2.85A3.006,3.006,0,0,0,31.775,845.075Z"/></g><g class="c"><line class="d" x1="70" y1="60" x2="70" y2="860"/><line class="d" x1="80" y1="60" x2="80" y2="860"/><line class="d" x1="90" y1="60" x2="90" y2="860"/><line class="d" x1="100" y1="60" x2="100" y2="860"/><line class="d" x1="120" y1="60" x2="120" y2="860"/><line class="d" x1="130" y1="60" x2="130" y2="860"/><line class="d" x1="140" y1="60" x2="140" y2="860"/><line class="d" x1="150" y1="60" x2="150" y2="860"/><line class="d" x1="170" y1="60" x2="170" y2="860"/><line class="d" x1="180" y1="60" x2="180" y2="860"/><line class="d" x1="190" y1="60" x2="190" y2="860"/><line class="d" x1="200" y1="60" x2="200" y2="860"/><line class="d" x1="220" y1="60" x2="220" y2="860"/><line class="d" x1="230" y1="60" x2="230" y2="860"/><line class="d" x1="240" y1="60" x2="240" y2="860"/><line class="d" x1="250" y1="60" x2="250" y2="860"/><line class="d" x1="270" y1="60" x2="270" y2="860"/><line class="d" x1="280" y1="60" x2="280" y2="860"/><line class="d" x1="290" y1="60" x2="290" y2="860"/><line class="d" x1="300" y1="60" x2="300" y2="860"/><line class="d" x1="320" y1="60" x2="320" y2="860"/><line class="d" x1="330" y1="60" x2="330" y2="860"/><line class="d" x1="340" y1="60" x2="340" y2="860"/><line class="d" x1="350" y1="60" x2="350" y2="860"/><line class="d" x1="60" y1="70" x2="360" y2="70"/><line class="d" x1="60" y1="80" x2="360" y2="80"/><line class="d" x1="60" y1="90" x2="360" y2="90"/><line class="d" x1="60" y1="100" x2="360" y2="100"/><line class="d" x1="60" y1="120" x2="360" y2="120"/><line class="d" x1="60" y1="130" x2="360" y2="130"/><line class="d" x1="60" y1="140" x2="360" y2="140"/><line class="d" x1="60" y1="150" x2="360" y2="150"/><line class="d" x1="60" y1="170" x2="360" y2="170"/><line class="d" x1="60" y1="180" x2="360" y2="180"/><line class="d" x1="60" y1="190" x2="360" y2="190"/><line class="d" x1="60" y1="200" x2="360" y2="200"/><line class="d" x1="60" y1="220" x2="360" y2="220"/><line class="d" x1="60" y1="230" x2="360" y2="230"/><line class="d" x1="60" y1="240" x2="360" y2="240"/><line class="d" x1="60" y1="250" x2="360" y2="250"/><line class="d" x1="60" y1="270" x2="360" y2="270"/><line class="d" x1="60" y1="280" x2="360" y2="280"/><line class="d" x1="60" y1="290" x2="360" y2="290"/><line class="d" x1="60" y1="300" x2="360" y2="300"/><line class="d" x1="60" y1="320" x2="360" y2="320"/><line class="d" x1="60" y1="330" x2="360" y2="330"/><line class="d" x1="60" y1="340" x2="360" y2="340"/><line class="d" x1="60" y1="350" x2="360" y2="350"/><line class="d" x1="60" y1="370" x2="360" y2="370"/><line class="d" x1="60" y1="380" x2="360" y2="380"/><line class="d" x1="60" y1="390" x2="360" y2="390"/><line class="d" x1="60" y1="400" x2="360" y2="400"/><line class="d" x1="60" y1="420" x2="360" y2="420"/><line class="d" x1="60" y1="430" x2="360" y2="430"/><line class="d" x1="60" y1="440" x2="360" y2="440"/><line class="d" x1="60" y1="450" x2="360" y2="450"/><line class="d" x1="60" y1="470" x2="360" y2="470"/><line class="d" x1="60" y1="480" x2="360" y2="480"/><line class="d" x1="60" y1="490" x2="360" y2="490"/><line class="d" x1="60" y1="500" x2="360" y2="500"/><line class="d" x1="60" y1="520" x2="360" y2="520"/><line class="d" x1="60" y1="530" x2="360" y2="530"/><line class="d" x1="60" y1="540" x2="360" y2="540"/><line class="d" x1="60" y1="550" x2="360" y2="550"/><line class="d" x1="60" y1="570" x2="360" y2="570"/><line class="d" x1="60" y1="580" x2="360" y2="580"/><line class="d" x1="60" y1="590" x2="360" y2="590"/><line class="d" x1="60" y1="600" x2="360" y2="600"/><line class="d" x1="60" y1="620" x2="360" y2="620"/><line class="d" x1="60" y1="630" x2="360" y2="630"/><line class="d" x1="60" y1="640" x2="360" y2="640"/><line class="d" x1="60" y1="650" x2="360" y2="650"/><line class="d" x1="60" y1="670" x2="360" y2="670"/><line class="d" x1="60" y1="680" x2="360" y2="680"/><line class="d" x1="60" y1="690" x2="360" y2="690"/><line class="d" x1="60" y1="700" x2="360" y2="700"/><line class="d" x1="60" y1="720" x2="360" y2="720"/><line class="d" x1="60" y1="730" x2="360" y2="730"/><line class="d" x1="60" y1="740" x2="360" y2="740"/><line class="d" x1="60" y1="750" x2="360" y2="750"/><line class="d" x1="60" y1="770" x2="360" y2="770"/><line class="d" x1="60" y1="780" x2="360" y2="780"/><line class="d" x1="60" y1="790" x2="360" y2="790"/><line class="d" x1="60" y1="800" x2="360" y2="800"/><line class="d" x1="60" y1="820" x2="360" y2="820"/><line class="d" x1="60" y1="830" x2="360" y2="830"/><line class="d" x1="60" y1="840" x2="360" y2="840"/><line class="d" x1="60" y1="850" x2="360" y2="850"/></g><g class="e"><line class="d" x1="110" y1="60" x2="110" y2="860"/><line class="d" x1="210" y1="60" x2="210" y2="860"/><line class="d" x1="310" y1="60" x2="310" y2="860"/><line class="d" x1="60" y1="110" x2="360" y2="110"/><line class="d" x1="60" y1="210" x2="360" y2="210"/><line class="d" x1="60" y1="310" x2="360" y2="310"/><line class="d" x1="60" y1="410" x2="360" y2="410"/><line class="d" x1="60" y1="510" x2="360" y2="510"/><line class="d" x1="60" y1="610" x2="360" y2="610"/><line class="d" x1="60" y1="710" x2="360" y2="710"/><line class="d" x1="60" y1="810" x2="360" y2="810"/></g><g class="f"><line class="d" x1="60" y1="60" x2="60" y2="860"/><line class="d" x1="160" y1="60" x2="160" y2="860"/><line class="d" x1="260" y1="60" x2="260" y2="860"/><line class="d" x1="360" y1="60" x2="360" y2="860"/><line class="d" x1="60" y1="60" x2="360" y2="60"/><line class="d" x1="60" y1="160" x2="360" y2="160"/><line class="d" x1="60" y1="260" x2="360" y2="260"/><line class="d" x1="60" y1="360" x2="360" y2="360"/><line class="d" x1="60" y1="460" x2="360" y2="460"/><line class="d" x1="60" y1="560" x2="360" y2="560"/><line class="d" x1="60" y1="660" x2="360" y2="660"/><line class="d" x1="60" y1="760" x2="360" y2="760"/><line class="d" x1="60" y1="860" x2="360" y2="860"/></g><g class="a"><path class="b" d="M56.15,884.375a4.41,4.41,0,0,1,3.825-2.025,4.613,4.613,0,0,1,3.2,1.25,5.439,5.439,0,0,1,1.15,1.7,14.317,14.317,0,0,1,.925,5.7,13.043,13.043,0,0,1-1.075,5.925,4.331,4.331,0,0,1-2.05,2.1A4.71,4.71,0,0,1,60,899.55a4.4,4.4,0,0,1-4.2-2.625A13.043,13.043,0,0,1,54.725,891a19.438,19.438,0,0,1,.313-3.838A8.373,8.373,0,0,1,56.15,884.375Zm5.625-.3a2.3,2.3,0,0,0-1.775-.8,2.382,2.382,0,0,0-1.8.8,3.006,3.006,0,0,0-.75,1.4,15.352,15.352,0,0,0-.25,2.85q0,.15-.012.975t-.013,1.375q0,2.4.05,3.35a14.345,14.345,0,0,0,.3,2.512,2.837,2.837,0,0,0,.75,1.313A2.217,2.217,0,0,0,60,898.6a2.19,2.19,0,0,0,1.7-.75,2.854,2.854,0,0,0,.75-1.313,14.345,14.345,0,0,0,.3-2.512q.05-.949.05-3.35,0-.549-.012-1.375t-.013-.975a15.532,15.532,0,0,0-.25-2.85A3.006,3.006,0,0,0,61.775,884.075Z"/></g><g class="a"><path class="b" d="M165.9,899q-.426-.075-3.975-.075-3.5,0-3.925.075h-.3v-1.15h.65a14.1,14.1,0,0,0,1.875-.075,1.616,1.616,0,0,0,.6-.3V884.55a.606.606,0,0,0-.2.075,7.363,7.363,0,0,1-2.575.475h-.475v-1.15h.475a6.97,6.97,0,0,0,3.5-.95,3.448,3.448,0,0,0,.775-.575q.05-.075.3-.075a.631.631,0,0,1,.425.15v7.475l.025,7.5a2.419,2.419,0,0,0,1.625.375h1.475V899Z"/></g><g class="a"><path class="b" d="M256.25,888.275a1.4,1.4,0,0,1-1.1-.45,1.6,1.6,0,0,1-.4-1.1,4.1,4.1,0,0,1,1.362-3.087,4.583,4.583,0,0,1,3.263-1.288,5.416,5.416,0,0,1,3.563,1.163,4.88,4.88,0,0,1,1.737,3.037,7.6,7.6,0,0,1,.05.825,4.723,4.723,0,0,1-.875,2.725,16.607,16.607,0,0,1-2.825,2.875q-.9.775-2.5,2.3l-1.475,1.4,1.9.025a30.085,30.085,0,0,0,4.175-.125c.066-.016.15-.191.25-.525a15.75,15.75,0,0,0,.35-1.7v-.075h1v.075l-.7,4.575V899H254.75v-.475a1.69,1.69,0,0,1,.05-.575q.024-.024,2.1-2.375,2.726-3.024,3.5-4a7.244,7.244,0,0,0,1.675-4.175,4.376,4.376,0,0,0-.862-2.762,2.879,2.879,0,0,0-2.413-1.113,2.744,2.744,0,0,0-2.35,1.3c-.034.067-.084.158-.15.275a.553.553,0,0,0-.075.15c0,.017.042.025.125.025a1.27,1.27,0,0,1,1.012.45,1.557,1.557,0,0,1,.388,1.05,1.5,1.5,0,0,1-.412,1.063A1.43,1.43,0,0,1,256.25,888.275Z"/></g><g class="a"><path class="b" d="M355.675,887.425a1.369,1.369,0,0,1-1.063-.425,1.57,1.57,0,0,1-.387-1.1,3.017,3.017,0,0,1,1.125-2.387,4.782,4.782,0,0,1,2.6-1.138h.375c.583,0,.95.009,1.1.025a6.051,6.051,0,0,1,1.675.525,3.723,3.723,0,0,1,2.075,2.35,2.431,2.431,0,0,1,.075.675,4.168,4.168,0,0,1-.912,2.638,5.057,5.057,0,0,1-2.288,1.662c-.083.033-.083.059,0,.075a1.52,1.52,0,0,0,.25.075,5.341,5.341,0,0,1,2.575,1.587,3.832,3.832,0,0,1,1.05,2.638,4.356,4.356,0,0,1-.475,1.975,4.958,4.958,0,0,1-1.963,2.113,5.687,5.687,0,0,1-3.037.837,5.986,5.986,0,0,1-2.925-.7,3.6,3.6,0,0,1-1.725-1.875,2.815,2.815,0,0,1-.25-1.225,1.494,1.494,0,0,1,.463-1.138,1.664,1.664,0,0,1,2.262.013,1.526,1.526,0,0,1,.45,1.125,1.6,1.6,0,0,1-.325,1,1.472,1.472,0,0,1-.875.55l-.175.05a4.7,4.7,0,0,0,3.1,1.125,2.232,2.232,0,0,0,2.075-1.325,5.732,5.732,0,0,0,.425-2.525v-.5a3.2,3.2,0,0,0-1.6-3.175,5.247,5.247,0,0,0-1.525-.175l-1.05-.025-.075-.05a.917.917,0,0,1-.05-.4.593.593,0,0,1,.075-.375.2.2,0,0,1,.125-.075,8.753,8.753,0,0,0,1.45-.125,2.164,2.164,0,0,0,1.675-1.238,5.52,5.52,0,0,0,.575-2.612,2.377,2.377,0,0,0-.875-2.175,2.072,2.072,0,0,0-1.175-.35,3.7,3.7,0,0,0-2.2.675,1.039,1.039,0,0,0-.225.163,1.52,1.52,0,0,0-.2.212l-.075.1c.05.017.108.033.175.05a1.19,1.19,0,0,1,.837.475,1.527,1.527,0,0,1,.338.975,1.376,1.376,0,0,1-.413,1.013A1.439,1.439,0,0,1,355.675,887.425Z"/></g><path class="g" d="M60,760h0c105.666-73.2,163.433-196.166,205-314.106C308.268,320.482,336.2,190.331,360,60"/><path class="h" d="M60,760h0c33.254-46.8,52.293-101.935,68-156.685,16.878-60.415,28.8-122.22,39-184.077,19.223-119.158,32.224-239.312,43-359.566"/><path class="i" d="M60,760h0c16.8-35.335,27.22-73.395,36-111.4,11.852-52.467,20.02-105.918,27-159.231C141,346.9,151.382,203.4,159.943,60"/><path class="j" d="M354.227,28.672a1.4,1.4,0,0,1-1.1-.449,1.593,1.593,0,0,1-.4-1.1,4.1,4.1,0,0,1,1.362-3.088,4.585,4.585,0,0,1,3.263-1.287,5.418,5.418,0,0,1,3.562,1.162,4.878,4.878,0,0,1,1.737,3.037,7.369,7.369,0,0,1,.05.825,4.729,4.729,0,0,1-.875,2.726A16.663,16.663,0,0,1,359,33.373q-.9.774-2.5,2.3l-1.476,1.4,1.9.026a30.085,30.085,0,0,0,4.175-.125c.066-.017.15-.192.25-.526a15.883,15.883,0,0,0,.349-1.7v-.076h1v.076l-.7,4.574V39.4h-9.275v-.475a1.7,1.7,0,0,1,.049-.574q.026-.025,2.1-2.375,2.724-3.025,3.5-4a7.256,7.256,0,0,0,1.675-4.176,4.372,4.372,0,0,0-.863-2.762,2.878,2.878,0,0,0-2.413-1.113,2.741,2.741,0,0,0-2.349,1.3c-.034.066-.084.158-.151.275a.591.591,0,0,0-.075.149c0,.017.042.025.125.025a1.272,1.272,0,0,1,1.013.451,1.552,1.552,0,0,1,.388,1.049,1.494,1.494,0,0,1-.413,1.063A1.422,1.422,0,0,1,354.227,28.672Z"/><path class="j" d="M364.822,27.021a.247.247,0,0,1-.088-.161,2.782,2.782,0,0,1,.453-1.006,2.5,2.5,0,0,1,1.719-1.2,2.466,2.466,0,0,1,.306-.029,1.772,1.772,0,0,1,.94.263,1.557,1.557,0,0,1,.619.655c.126-.165.2-.267.234-.306a1.614,1.614,0,0,1,1.239-.612,1.374,1.374,0,0,1,.969.343,1.094,1.094,0,0,1,.372.838,1.14,1.14,0,0,1-.255.757.84.84,0,0,1-.678.307.641.641,0,0,1-.452-.161.543.543,0,0,1-.175-.422.926.926,0,0,1,.729-.918.6.6,0,0,0-.16-.1.84.84,0,0,0-.423-.087.969.969,0,0,0-.277.029,1.525,1.525,0,0,0-.816.962q-.043.117-.423,1.625t-.408,1.7a2.244,2.244,0,0,0-.044.438.747.747,0,0,0,.2.553.729.729,0,0,0,.539.2,1.507,1.507,0,0,0,1.109-.517,2.694,2.694,0,0,0,.67-1.144q.043-.146.087-.168a.731.731,0,0,1,.234-.022c.183,0,.276.039.276.117,0,.01-.01.063-.029.16a3.163,3.163,0,0,1-1.02,1.574,2.3,2.3,0,0,1-1.443.539,1.677,1.677,0,0,1-1.545-.918,2.042,2.042,0,0,1-1.079.875,1.889,1.889,0,0,1-.379.029,1.269,1.269,0,0,1-1.194-.6,1.122,1.122,0,0,1-.147-.583,1.1,1.1,0,0,1,.263-.744.844.844,0,0,1,.671-.306.547.547,0,0,1,.626.612.822.822,0,0,1-.51.787l-.073.037-.072.036a.117.117,0,0,1-.044.015l-.044.014c0,.03.073.073.218.132a.991.991,0,0,0,.379.072,1.075,1.075,0,0,0,.9-.655,10.961,10.961,0,0,0,.568-1.895q.088-.336.19-.744t.153-.627c.034-.145.056-.232.065-.262a3.528,3.528,0,0,0,.074-.568.783.783,0,0,0-.19-.554.681.681,0,0,0-.524-.2,1.521,1.521,0,0,0-1.137.5,2.754,2.754,0,0,0-.671,1.159c-.02.087-.041.138-.065.153a.725.725,0,0,1-.241.022Z"/><path class="k" d="M212.293,39.4q-.35-.074-3.224-.075-3,0-3.351.075h-.224V38.248h.775a5.34,5.34,0,0,0,1.324-.125.451.451,0,0,0,.3-.25q.024-.051.024-1.351v-1.25h-6.474V34.123l3.774-5.775q3.827-5.8,3.875-5.826a1.339,1.339,0,0,1,.526-.049h.45l.149.15v11.5h2.3v1.149h-2.3v1.275q0,1.026.013,1.2a.457.457,0,0,0,.138.3,3.165,3.165,0,0,0,1.424.2h.726V39.4Zm-4.224-5.274V25.772L202.593,34.1l2.726.025Z"/><path class="k" d="M214.089,27.021A.243.243,0,0,1,214,26.86a2.776,2.776,0,0,1,.452-1.006,2.5,2.5,0,0,1,1.72-1.2,2.45,2.45,0,0,1,.306-.029,1.774,1.774,0,0,1,.94.263,1.563,1.563,0,0,1,.619.655l.233-.306a1.617,1.617,0,0,1,1.24-.612,1.373,1.373,0,0,1,.968.343,1.092,1.092,0,0,1,.373.838,1.14,1.14,0,0,1-.255.757.842.842,0,0,1-.678.307.64.64,0,0,1-.452-.161.543.543,0,0,1-.175-.422.925.925,0,0,1,.729-.918.592.592,0,0,0-.161-.1.833.833,0,0,0-.422-.087.982.982,0,0,0-.278.029,1.527,1.527,0,0,0-.815.962q-.045.117-.423,1.625t-.408,1.7a2.169,2.169,0,0,0-.044.438.747.747,0,0,0,.2.553.728.728,0,0,0,.539.2,1.505,1.505,0,0,0,1.108-.517,2.684,2.684,0,0,0,.67-1.144c.03-.1.059-.153.088-.168a.723.723,0,0,1,.233-.022c.184,0,.277.039.277.117,0,.01-.01.063-.029.16a3.163,3.163,0,0,1-1.02,1.574,2.3,2.3,0,0,1-1.443.539,1.676,1.676,0,0,1-1.545-.918,2.046,2.046,0,0,1-1.079.875,1.889,1.889,0,0,1-.379.029,1.27,1.27,0,0,1-1.195-.6,1.131,1.131,0,0,1-.146-.583,1.1,1.1,0,0,1,.263-.744.842.842,0,0,1,.671-.306.547.547,0,0,1,.625.612.821.821,0,0,1-.509.787l-.074.037-.072.036a.107.107,0,0,1-.044.015l-.044.014c0,.03.074.073.219.132a.984.984,0,0,0,.379.072,1.073,1.073,0,0,0,.9-.655,10.919,10.919,0,0,0,.569-1.895c.058-.224.122-.472.19-.744s.118-.481.152-.627.056-.232.066-.262a3.5,3.5,0,0,0,.073-.568.782.782,0,0,0-.189-.554.682.682,0,0,0-.525-.2,1.521,1.521,0,0,0-1.136.5,2.744,2.744,0,0,0-.671,1.159c-.02.087-.041.138-.066.153a.713.713,0,0,1-.24.022Z"/><path class="l" d="M156.786,31.022a7.412,7.412,0,0,1-1.888-1.674,3.718,3.718,0,0,1-.662-2.3,3.679,3.679,0,0,1,.4-1.8,4.449,4.449,0,0,1,1.613-1.813,4.386,4.386,0,0,1,2.437-.687,4.963,4.963,0,0,1,2.95.887,3.69,3.69,0,0,1,1.55,2.287,4.529,4.529,0,0,1,.024.6,3.71,3.71,0,0,1-.049.75,4.675,4.675,0,0,1-2.275,2.851l-.3.2q1.4.951,1.451,1a4.6,4.6,0,0,1,1.875,3.725,4.641,4.641,0,0,1-1.488,3.463,5.132,5.132,0,0,1-3.713,1.437,5,5,0,0,1-4.524-2.25,3.711,3.711,0,0,1-.625-2.175Q153.561,32.8,156.786,31.022Zm-1.625,4.451a3.127,3.127,0,0,0,1.075,2.437,3.632,3.632,0,0,0,2.5.963,4.046,4.046,0,0,0,1.862-.426,3.1,3.1,0,0,0,1.263-1.1,2.476,2.476,0,0,0,.425-1.375,2.547,2.547,0,0,0-.875-1.9q-.2-.2-2.076-1.425l-.761-.487q-.414-.262-.638-.412l-.2-.125-.3.149a4.865,4.865,0,0,0-2.075,2.5A4.089,4.089,0,0,0,155.161,35.473Zm6.6-8.9a2.578,2.578,0,0,0-.7-1.824,3.114,3.114,0,0,0-1.7-.951,8.159,8.159,0,0,0-.825-.025,3.021,3.021,0,0,0-2.225.9,1.805,1.805,0,0,0-.625,1.375,1.968,1.968,0,0,0,.9,1.7q.126.124,1.6,1.049l1.45.951c.016-.017.125-.088.324-.213a2.576,2.576,0,0,0,.451-.338A3.245,3.245,0,0,0,161.761,26.572Z"/><path class="l" d="M165.832,27.021a.243.243,0,0,1-.088-.161,2.776,2.776,0,0,1,.452-1.006,2.5,2.5,0,0,1,1.72-1.2,2.437,2.437,0,0,1,.305-.029,1.775,1.775,0,0,1,.941.263,1.563,1.563,0,0,1,.619.655l.233-.306a1.617,1.617,0,0,1,1.239-.612,1.374,1.374,0,0,1,.969.343,1.094,1.094,0,0,1,.372.838,1.14,1.14,0,0,1-.255.757.84.84,0,0,1-.677.307.644.644,0,0,1-.453-.161.543.543,0,0,1-.174-.422.925.925,0,0,1,.728-.918.6.6,0,0,0-.16-.1.837.837,0,0,0-.423-.087.969.969,0,0,0-.277.029,1.528,1.528,0,0,0-.816.962q-.043.117-.422,1.625t-.409,1.7a2.244,2.244,0,0,0-.044.438.747.747,0,0,0,.205.553.726.726,0,0,0,.539.2,1.505,1.505,0,0,0,1.108-.517,2.684,2.684,0,0,0,.67-1.144c.029-.1.058-.153.088-.168a.719.719,0,0,1,.233-.022c.184,0,.277.039.277.117,0,.01-.01.063-.03.16a3.167,3.167,0,0,1-1.019,1.574,2.3,2.3,0,0,1-1.444.539,1.678,1.678,0,0,1-1.545-.918,2.042,2.042,0,0,1-1.079.875,1.889,1.889,0,0,1-.379.029,1.27,1.27,0,0,1-1.194-.6,1.122,1.122,0,0,1-.146-.583,1.1,1.1,0,0,1,.262-.744.845.845,0,0,1,.671-.306.547.547,0,0,1,.626.612.822.822,0,0,1-.51.787l-.073.037-.072.036a.112.112,0,0,1-.044.015l-.044.014c0,.03.073.073.219.132a.984.984,0,0,0,.379.072,1.075,1.075,0,0,0,.9-.655,10.961,10.961,0,0,0,.568-1.895c.059-.224.122-.472.191-.744s.118-.481.152-.627.056-.232.066-.262a3.615,3.615,0,0,0,.073-.568.783.783,0,0,0-.19-.554.679.679,0,0,0-.524-.2,1.523,1.523,0,0,0-1.137.5,2.754,2.754,0,0,0-.671,1.159c-.019.087-.041.138-.065.153a.721.721,0,0,1-.24.022Z"/></svg>