<svg width="480" height="270" viewBox="0 0 480 270" fill="none" xmlns="http://www.w3.org/2000/svg">
<g clip-path="url(#clip0_1601_30177)">
<path d="M480 0H0V270H480V0Z" fill="black"/>
<path d="M309.798 91.3279H179.956V144.695H309.798V91.3279Z" fill="black"/>
<g clip-path="url(#clip1_1601_30177)">
<path d="M183.94 142.547V95.3278H189.235V96.5481H185.161V141.326H189.235V142.547H183.94Z" fill="#F0F0F0"/>
<path d="M196.34 100.967C195.986 100.967 195.711 100.855 195.514 100.632C195.317 100.409 195.212 100.12 195.199 99.7662C195.199 99.0445 195.514 98.4015 196.144 97.8373C196.773 97.2731 197.535 96.9909 198.427 96.9909C198.886 96.9909 199.175 96.9975 199.293 97.0106C200.264 97.1681 201.005 97.5158 201.517 98.0538C202.029 98.5918 202.291 99.1757 202.304 99.8056C202.304 100.488 202.081 101.151 201.635 101.794C201.189 102.436 200.572 102.902 199.785 103.191L199.726 103.23C199.726 103.243 199.785 103.263 199.903 103.289C200.021 103.316 200.211 103.375 200.474 103.467C200.736 103.558 200.986 103.696 201.222 103.88C202.298 104.575 202.836 105.494 202.836 106.635C202.836 107.672 202.429 108.577 201.615 109.352C200.802 110.126 199.772 110.513 198.525 110.513C197.475 110.513 196.57 110.231 195.809 109.667C195.048 109.102 194.667 108.387 194.667 107.521C194.667 107.154 194.786 106.859 195.022 106.635C195.258 106.412 195.553 106.294 195.907 106.281C196.275 106.281 196.577 106.399 196.813 106.635C197.049 106.872 197.167 107.167 197.167 107.521C197.167 107.666 197.147 107.797 197.108 107.915C197.069 108.033 197.023 108.138 196.97 108.23C196.918 108.322 196.846 108.4 196.754 108.466C196.662 108.532 196.583 108.584 196.518 108.623C196.452 108.663 196.386 108.689 196.321 108.702C196.255 108.715 196.203 108.735 196.163 108.761L196.085 108.781C196.754 109.371 197.567 109.667 198.525 109.667C199.247 109.667 199.791 109.319 200.159 108.623C200.382 108.19 200.493 107.528 200.493 106.635V106.242C200.493 104.995 200.074 104.162 199.234 103.742C199.037 103.663 198.637 103.617 198.033 103.604L197.206 103.585L197.147 103.545C197.121 103.506 197.108 103.401 197.108 103.23C197.108 102.994 197.161 102.876 197.266 102.876C197.633 102.876 198.013 102.843 198.407 102.778C198.853 102.712 199.26 102.436 199.627 101.951C199.995 101.465 200.179 100.731 200.179 99.7465V99.5891C200.179 98.8411 199.949 98.3228 199.49 98.0341C199.201 97.8504 198.893 97.7586 198.565 97.7586C198.145 97.7586 197.758 97.8307 197.403 97.9751C197.049 98.1194 196.8 98.2703 196.655 98.4278C196.511 98.5852 196.439 98.664 196.439 98.664H196.498C196.537 98.6771 196.59 98.6902 196.655 98.7033C196.721 98.7165 196.787 98.7493 196.852 98.8017C196.918 98.8542 196.997 98.9002 197.088 98.9395C197.18 98.9789 197.246 99.0511 197.285 99.156C197.325 99.261 197.377 99.3594 197.443 99.4513C197.508 99.5431 197.528 99.6743 197.502 99.8449C197.502 100.134 197.41 100.389 197.226 100.613C197.042 100.836 196.747 100.954 196.34 100.967Z" fill="#92D192"/>
<path d="M236.296 98.7034L236.04 98.8018C235.857 98.8674 235.594 98.933 235.253 98.9986C234.912 99.0642 234.531 99.1101 234.112 99.1364H233.738V98.231H234.112C234.728 98.2047 235.299 98.1063 235.824 97.9357C236.349 97.7652 236.716 97.6077 236.926 97.4634C237.136 97.319 237.32 97.1747 237.477 97.0303C237.504 96.991 237.582 96.9713 237.713 96.9713C237.832 96.9713 237.943 97.0107 238.048 97.0894V102.975L238.068 108.879C238.16 108.971 238.238 109.03 238.304 109.056C238.37 109.083 238.527 109.109 238.776 109.135C239.026 109.161 239.432 109.175 239.997 109.175H240.508V110.08H240.292C240.016 110.041 238.973 110.021 237.162 110.021C235.378 110.021 234.348 110.041 234.072 110.08H233.836V109.175H234.348C234.636 109.175 234.886 109.175 235.096 109.175C235.306 109.175 235.47 109.168 235.588 109.155C235.706 109.142 235.811 109.122 235.903 109.096C235.994 109.07 236.047 109.056 236.06 109.056C236.073 109.056 236.113 109.024 236.178 108.958C236.244 108.892 236.283 108.866 236.296 108.879V98.7034Z" fill="#F2777A"/>
<path d="M272.02 105.415C272.02 105.415 272.02 105.33 272.02 105.159C272.02 104.989 272.112 104.858 272.296 104.766H283.732C283.928 104.871 284.027 105.002 284.027 105.159C284.027 105.317 283.928 105.448 283.732 105.553H272.296C272.112 105.461 272.02 105.33 272.02 105.159V105.415Z" fill="#6AB0F3"/>
<path d="M287.826 101.636C287.471 101.636 287.189 101.518 286.979 101.282C286.769 101.046 286.664 100.757 286.664 100.416C286.664 99.4841 287.012 98.6771 287.707 97.9948C288.403 97.3125 289.269 96.9713 290.306 96.9713C291.5 96.9713 292.497 97.3387 293.297 98.0735C294.098 98.8083 294.505 99.7597 294.518 100.928C294.518 101.492 294.386 102.03 294.124 102.541C293.862 103.053 293.547 103.499 293.179 103.88C292.812 104.26 292.287 104.746 291.605 105.336C291.132 105.743 290.476 106.347 289.636 107.147L288.475 108.249L289.971 108.269C292.031 108.269 293.127 108.236 293.258 108.171C293.35 108.144 293.507 107.561 293.73 106.419V106.36H294.518V106.419C294.505 106.458 294.419 107.055 294.262 108.21C294.104 109.365 294.006 109.968 293.967 110.021V110.08H286.664V109.706V109.47C286.664 109.378 286.704 109.28 286.782 109.175C286.861 109.07 287.058 108.84 287.373 108.486C287.753 108.066 288.081 107.698 288.357 107.383C288.475 107.252 288.698 107.009 289.026 106.655C289.354 106.301 289.577 106.058 289.695 105.927C289.813 105.796 290.004 105.579 290.266 105.277C290.529 104.976 290.712 104.753 290.817 104.608C290.922 104.464 291.073 104.267 291.27 104.018C291.467 103.768 291.605 103.558 291.683 103.388C291.762 103.217 291.86 103.027 291.979 102.817C292.097 102.607 292.182 102.397 292.234 102.187C292.287 101.977 292.333 101.78 292.372 101.597C292.412 101.413 292.431 101.197 292.431 100.947C292.431 100.121 292.208 99.4054 291.762 98.8018C291.316 98.1982 290.68 97.8964 289.853 97.8964C289.42 97.8964 289.039 98.0079 288.711 98.231C288.383 98.4541 288.154 98.6706 288.022 98.8805C287.891 99.0905 287.826 99.2151 287.826 99.2545C287.826 99.2676 287.858 99.2742 287.924 99.2742C288.16 99.2742 288.403 99.366 288.652 99.5497C288.902 99.7334 289.026 100.035 289.026 100.455C289.026 100.783 288.921 101.059 288.711 101.282C288.501 101.505 288.206 101.623 287.826 101.636Z" fill="#6AB0F3"/>
<path d="M198.033 126.259L197.777 126.357C197.594 126.423 197.331 126.489 196.99 126.554C196.649 126.62 196.268 126.666 195.848 126.692H195.474V125.787H195.848C196.465 125.76 197.036 125.662 197.561 125.491C198.086 125.321 198.453 125.163 198.663 125.019C198.873 124.875 199.057 124.73 199.214 124.586C199.24 124.547 199.319 124.527 199.45 124.527C199.568 124.527 199.68 124.566 199.785 124.645V130.53L199.805 136.435C199.896 136.527 199.975 136.586 200.041 136.612C200.106 136.638 200.264 136.665 200.513 136.691C200.763 136.717 201.169 136.73 201.734 136.73H202.245V137.636H202.029C201.753 137.596 200.71 137.577 198.899 137.577C197.115 137.577 196.085 137.596 195.809 137.636H195.573V136.73H196.085C196.373 136.73 196.623 136.73 196.833 136.73C197.042 136.73 197.207 136.724 197.325 136.711C197.443 136.697 197.548 136.678 197.64 136.651C197.731 136.625 197.784 136.612 197.797 136.612C197.81 136.612 197.849 136.579 197.915 136.514C197.981 136.448 198.02 136.422 198.033 136.435V126.259Z" fill="#92D192"/>
<path d="M234.249 129.192C233.895 129.192 233.613 129.074 233.403 128.837C233.193 128.601 233.088 128.313 233.088 127.971C233.088 127.04 233.436 126.233 234.131 125.55C234.827 124.868 235.693 124.527 236.729 124.527C237.923 124.527 238.921 124.894 239.721 125.629C240.522 126.364 240.928 127.315 240.941 128.483C240.941 129.047 240.81 129.585 240.548 130.097C240.285 130.609 239.97 131.055 239.603 131.436C239.236 131.816 238.711 132.302 238.028 132.892C237.556 133.299 236.9 133.902 236.06 134.703L234.899 135.805L236.395 135.825C238.455 135.825 239.55 135.792 239.682 135.726C239.774 135.7 239.931 135.116 240.154 133.975V133.916H240.941V133.975C240.928 134.014 240.843 134.611 240.686 135.766C240.528 136.92 240.43 137.524 240.39 137.577V137.636H233.088V137.262V137.025C233.088 136.934 233.127 136.835 233.206 136.73C233.285 136.625 233.482 136.396 233.797 136.041C234.177 135.621 234.505 135.254 234.781 134.939C234.899 134.808 235.122 134.565 235.45 134.211C235.778 133.857 236.001 133.614 236.119 133.483C236.237 133.351 236.428 133.135 236.69 132.833C236.952 132.531 237.136 132.308 237.241 132.164C237.346 132.019 237.497 131.823 237.694 131.573C237.891 131.324 238.028 131.114 238.107 130.944C238.186 130.773 238.284 130.583 238.402 130.373C238.52 130.163 238.606 129.953 238.658 129.743C238.711 129.533 238.757 129.336 238.796 129.152C238.835 128.969 238.855 128.752 238.855 128.503C238.855 127.676 238.632 126.961 238.186 126.357C237.74 125.754 237.103 125.452 236.277 125.452C235.844 125.452 235.463 125.564 235.135 125.787C234.807 126.01 234.577 126.226 234.446 126.436C234.315 126.646 234.249 126.771 234.249 126.81C234.249 126.823 234.282 126.83 234.348 126.83C234.584 126.83 234.827 126.922 235.076 127.105C235.325 127.289 235.45 127.591 235.45 128.011C235.45 128.339 235.345 128.614 235.135 128.837C234.925 129.061 234.63 129.179 234.249 129.192Z" fill="#F2777A"/>
<path d="M272.02 132.971C272.02 132.971 272.02 132.886 272.02 132.715C272.02 132.544 272.112 132.413 272.296 132.321H283.732C283.928 132.426 284.027 132.558 284.027 132.715C284.027 132.872 283.928 133.004 283.732 133.109H272.296C272.112 133.017 272.02 132.886 272.02 132.715V132.971Z" fill="#6AB0F3"/>
<path d="M287.826 129.192C287.471 129.192 287.189 129.074 286.979 128.837C286.769 128.601 286.664 128.313 286.664 127.971C286.664 127.04 287.012 126.233 287.707 125.55C288.403 124.868 289.269 124.527 290.306 124.527C291.5 124.527 292.497 124.894 293.297 125.629C294.098 126.364 294.505 127.315 294.518 128.483C294.518 129.047 294.386 129.585 294.124 130.097C293.862 130.609 293.547 131.055 293.179 131.436C292.812 131.816 292.287 132.302 291.605 132.892C291.132 133.299 290.476 133.902 289.636 134.703L288.475 135.805L289.971 135.825C292.031 135.825 293.127 135.792 293.258 135.726C293.35 135.7 293.507 135.116 293.73 133.975V133.916H294.518V133.975C294.505 134.014 294.419 134.611 294.262 135.766C294.104 136.92 294.006 137.524 293.967 137.577V137.636H286.664V137.262V137.025C286.664 136.934 286.704 136.835 286.782 136.73C286.861 136.625 287.058 136.396 287.373 136.041C287.753 135.621 288.081 135.254 288.357 134.939C288.475 134.808 288.698 134.565 289.026 134.211C289.354 133.857 289.577 133.614 289.695 133.483C289.813 133.351 290.004 133.135 290.266 132.833C290.529 132.531 290.712 132.308 290.817 132.164C290.922 132.019 291.073 131.823 291.27 131.573C291.467 131.324 291.605 131.114 291.683 130.944C291.762 130.773 291.86 130.583 291.979 130.373C292.097 130.163 292.182 129.953 292.234 129.743C292.287 129.533 292.333 129.336 292.372 129.152C292.412 128.969 292.431 128.752 292.431 128.503C292.431 127.676 292.208 126.961 291.762 126.357C291.316 125.754 290.68 125.452 289.853 125.452C289.42 125.452 289.039 125.564 288.711 125.787C288.383 126.01 288.154 126.226 288.022 126.436C287.891 126.646 287.826 126.771 287.826 126.81C287.826 126.823 287.858 126.83 287.924 126.83C288.16 126.83 288.403 126.922 288.652 127.105C288.902 127.289 289.026 127.591 289.026 128.011C289.026 128.339 288.921 128.614 288.711 128.837C288.501 129.061 288.206 129.179 287.826 129.192Z" fill="#6AB0F3"/>
<path d="M300.107 96.5481V95.3278H305.402V142.547H300.107V141.326H304.182V96.5481H300.107Z" fill="#F0F0F0"/>
</g>
<path d="M301.081 40.4324H183.974V60.5691H301.081V40.4324Z" fill="black"/>
<g clip-path="url(#clip2_1601_30177)">
<path d="M187.966 48.3688C187.966 47.9227 188.025 47.4897 188.143 47.0698C188.261 46.6499 188.399 46.2825 188.556 45.9676C188.714 45.6526 188.891 45.3771 189.088 45.1409C189.285 44.9047 189.442 44.7275 189.56 44.6095C189.678 44.4914 189.77 44.4323 189.836 44.4323C189.901 44.4323 189.987 44.4914 190.092 44.6095C190.197 44.7275 190.256 44.826 190.269 44.9047C190.256 44.9309 190.164 45.0359 189.993 45.2196C189.823 45.4033 189.645 45.6133 189.462 45.8495C189.278 46.0856 189.107 46.4203 188.95 46.8533C188.792 47.2863 188.701 47.7455 188.674 48.231C188.674 48.3885 188.681 48.4672 188.694 48.4672C188.707 48.4672 188.74 48.4541 188.792 48.4279C188.845 48.4016 188.93 48.3623 189.048 48.3098C189.166 48.2573 189.285 48.2376 189.403 48.2507C189.731 48.2507 190.013 48.3623 190.249 48.5853C190.485 48.8084 190.603 49.0905 190.603 49.4317C190.603 49.7729 190.492 50.055 190.269 50.278C190.046 50.5011 189.763 50.6192 189.422 50.6323C189.042 50.6323 188.707 50.4617 188.419 50.1206C188.13 49.7794 187.979 49.1955 187.966 48.3688ZM191.981 48.3688C191.981 47.9227 192.04 47.4897 192.158 47.0698C192.276 46.6499 192.414 46.2825 192.572 45.9676C192.729 45.6526 192.906 45.3771 193.103 45.1409C193.3 44.9047 193.457 44.7275 193.575 44.6095C193.693 44.4914 193.785 44.4323 193.851 44.4323C193.917 44.4323 193.995 44.4914 194.087 44.6095C194.179 44.7275 194.245 44.8128 194.284 44.8653C194.284 44.9047 194.205 45.0097 194.048 45.1802C193.89 45.3508 193.72 45.5542 193.536 45.7904C193.352 46.0266 193.169 46.3678 192.985 46.8139C192.801 47.26 192.703 47.7324 192.69 48.231C192.69 48.3885 192.696 48.4672 192.709 48.4672C192.722 48.4672 192.755 48.4541 192.808 48.4279C192.86 48.4016 192.946 48.3623 193.064 48.3098C193.182 48.2573 193.3 48.2376 193.418 48.2507C193.746 48.2507 194.028 48.3623 194.264 48.5853C194.5 48.8084 194.619 49.0905 194.619 49.4317C194.619 49.7729 194.507 50.055 194.284 50.278C194.061 50.5011 193.779 50.6192 193.438 50.6323C193.057 50.6323 192.722 50.4617 192.434 50.1206C192.145 49.7794 191.994 49.1955 191.981 48.3688Z" fill="#F0F0F0"/>
<path d="M197.433 49.6482C197.079 49.6482 196.797 49.5301 196.587 49.2939C196.377 49.0577 196.272 48.7691 196.272 48.4279C196.272 47.4962 196.62 46.6893 197.315 46.0069C198.01 45.3246 198.877 44.9834 199.913 44.9834C201.107 44.9834 202.104 45.3508 202.905 46.0857C203.705 46.8205 204.112 47.7718 204.125 48.9396C204.125 49.5039 203.994 50.0419 203.732 50.5536C203.469 51.0654 203.154 51.5115 202.787 51.892C202.419 52.2726 201.895 52.7581 201.212 53.3485C200.74 53.7553 200.084 54.3589 199.244 55.1593L198.083 56.2616L199.579 56.2812C201.639 56.2812 202.734 56.2484 202.866 56.1828C202.957 56.1566 203.115 55.5727 203.338 54.4311V54.372H204.125V54.4311C204.112 54.4704 204.027 55.0675 203.869 56.2222C203.712 57.3769 203.613 57.9805 203.574 58.033V58.092H196.272V57.7181V57.4819C196.272 57.39 196.311 57.2916 196.39 57.1866C196.469 57.0817 196.666 56.852 196.98 56.4978C197.361 56.0779 197.689 55.7104 197.965 55.3955C198.083 55.2643 198.306 55.0216 198.634 54.6673C198.962 54.313 199.185 54.0702 199.303 53.939C199.421 53.8078 199.611 53.5913 199.874 53.2895C200.136 52.9877 200.32 52.7646 200.425 52.6203C200.53 52.4759 200.681 52.2791 200.878 52.0298C201.074 51.7805 201.212 51.5705 201.291 51.4C201.37 51.2294 201.468 51.0391 201.586 50.8292C201.704 50.6192 201.79 50.4093 201.842 50.1993C201.895 49.9894 201.94 49.7926 201.98 49.6088C202.019 49.4251 202.039 49.2086 202.039 48.9593C202.039 48.1327 201.816 47.4175 201.37 46.8139C200.924 46.2103 200.287 45.9085 199.46 45.9085C199.027 45.9085 198.647 46.0201 198.319 46.2431C197.991 46.4662 197.761 46.6827 197.63 46.8927C197.499 47.1026 197.433 47.2273 197.433 47.2666C197.433 47.2797 197.466 47.2863 197.532 47.2863C197.768 47.2863 198.01 47.3782 198.26 47.5619C198.509 47.7456 198.634 48.0474 198.634 48.4673C198.634 48.7953 198.529 49.0709 198.319 49.2939C198.109 49.517 197.814 49.6351 197.433 49.6482Z" fill="#F0F0F0"/>
<path d="M209.085 58.092C208.928 58.0527 208.278 58.033 207.137 58.033C206.139 58.033 205.582 58.0527 205.464 58.092H205.346V57.1866H205.621C205.923 57.1735 206.198 57.1342 206.448 57.0685C206.697 57.0029 206.887 56.9439 207.019 56.8914C207.15 56.8389 207.314 56.7274 207.511 56.5568C207.707 56.3862 207.826 56.2681 207.865 56.2025C207.904 56.1369 208.042 55.9663 208.278 55.6908C208.514 55.4152 208.646 55.2315 208.672 55.1397L209.577 53.9587L208.436 52.4235C208.318 52.2529 208.193 52.0757 208.062 51.892C207.93 51.7083 207.826 51.5705 207.747 51.4787C207.668 51.3868 207.596 51.2884 207.53 51.1835C207.465 51.0785 207.406 50.9997 207.353 50.9473C207.301 50.8948 207.261 50.8488 207.235 50.8095C207.209 50.7701 207.163 50.7308 207.097 50.6914C207.032 50.652 206.992 50.6323 206.979 50.6323C206.966 50.6323 206.927 50.6192 206.861 50.593C206.795 50.5667 206.743 50.5536 206.704 50.5536C206.625 50.5536 206.389 50.5405 205.995 50.5142H205.444V49.6088H205.582C206.054 49.6351 206.73 49.6482 207.609 49.6482C208.829 49.6482 209.505 49.6351 209.636 49.6088H209.794V50.5142C209.321 50.5667 209.085 50.6717 209.085 50.8292C209.085 50.8554 209.151 50.9604 209.282 51.1441C209.413 51.3278 209.597 51.5771 209.833 51.892C210.069 52.2069 210.26 52.4759 210.404 52.699L210.483 52.7777L210.975 52.1085C211.395 51.5705 211.605 51.2163 211.605 51.0457C211.605 50.9669 211.591 50.8948 211.565 50.8292C211.539 50.7636 211.506 50.7176 211.467 50.6914C211.427 50.6651 211.395 50.6389 211.368 50.6127C211.342 50.5864 211.296 50.5602 211.231 50.5339L211.172 50.5142H211.073V49.6088H211.211C211.408 49.6482 212.057 49.6679 213.16 49.6679C214.196 49.6679 214.754 49.6482 214.833 49.6088H214.951V50.5142H214.813C214.17 50.5142 213.638 50.6258 213.219 50.8488C212.995 50.9538 212.772 51.131 212.549 51.3803C212.326 51.6296 211.9 52.1807 211.27 53.0336L210.955 53.447L212.175 55.12C213.041 56.3009 213.507 56.9176 213.573 56.9701C213.638 57.0226 213.75 57.0685 213.907 57.1079C214.144 57.1604 214.491 57.1866 214.951 57.1866H215.285V58.092H215.167H215.01C214.905 58.0789 214.773 58.0724 214.616 58.0724C214.459 58.0724 214.295 58.0658 214.124 58.0527C213.953 58.0396 213.789 58.0396 213.632 58.0527C213.474 58.0658 213.356 58.0592 213.278 58.033C213.133 58.033 212.891 58.033 212.549 58.033C212.208 58.033 211.88 58.0461 211.565 58.0724L211.113 58.092H210.935V57.1866H210.994C211.139 57.1866 211.283 57.1538 211.427 57.0882C211.572 57.0226 211.644 56.9439 211.644 56.852C211.644 56.8258 211.382 56.4518 210.857 55.7301L210.05 54.6476C210.037 54.6607 209.833 54.9363 209.439 55.4743C209.046 56.0122 208.823 56.3075 208.77 56.36C208.718 56.4256 208.692 56.5174 208.692 56.6355C208.692 56.7799 208.737 56.9045 208.829 57.0095C208.921 57.1145 209.039 57.1735 209.184 57.1866C209.21 57.1866 209.223 57.3375 209.223 57.6393V58.092H209.085Z" fill="#F0F0F0"/>
<path d="M218.021 48.979C217.667 48.979 217.391 48.8674 217.194 48.6444C216.998 48.4213 216.893 48.1326 216.88 47.7783C216.88 47.0566 217.194 46.4137 217.824 45.8494C218.454 45.2852 219.215 45.0031 220.107 45.0031C220.567 45.0031 220.855 45.0096 220.973 45.0228C221.944 45.1802 222.686 45.528 223.198 46.0659C223.709 46.6039 223.972 47.1879 223.985 47.8177C223.985 48.5 223.762 49.1627 223.316 49.8056C222.87 50.4486 222.253 50.9144 221.466 51.2031L221.407 51.2425C221.407 51.2556 221.466 51.2753 221.584 51.3015C221.702 51.3278 221.892 51.3868 222.154 51.4787C222.417 51.5705 222.666 51.7083 222.902 51.892C223.978 52.5874 224.516 53.506 224.516 54.6476C224.516 55.6842 224.11 56.5896 223.296 57.3638C222.482 58.1379 221.452 58.525 220.206 58.525C219.156 58.525 218.251 58.2429 217.49 57.6787C216.729 57.1144 216.348 56.3993 216.348 55.5333C216.348 55.1659 216.466 54.8706 216.702 54.6476C216.939 54.4245 217.234 54.3064 217.588 54.2933C217.955 54.2933 218.257 54.4114 218.493 54.6476C218.73 54.8837 218.848 55.179 218.848 55.5333C218.848 55.6776 218.828 55.8088 218.789 55.9269C218.749 56.045 218.703 56.15 218.651 56.2418C218.598 56.3337 218.526 56.4124 218.434 56.478C218.343 56.5436 218.264 56.5961 218.198 56.6355C218.133 56.6749 218.067 56.7011 218.001 56.7142C217.936 56.7273 217.883 56.747 217.844 56.7733L217.765 56.793C218.434 57.3834 219.248 57.6787 220.206 57.6787C220.928 57.6787 221.472 57.3309 221.84 56.6355C222.063 56.2025 222.174 55.5398 222.174 54.6476V54.2539C222.174 53.0073 221.754 52.1741 220.914 51.7542C220.718 51.6755 220.317 51.6296 219.714 51.6164L218.887 51.5968L218.828 51.5574C218.802 51.518 218.789 51.4131 218.789 51.2425C218.789 51.0063 218.841 50.8882 218.946 50.8882C219.314 50.8882 219.694 50.8554 220.088 50.7898C220.534 50.7242 220.941 50.4486 221.308 49.9631C221.676 49.4776 221.859 48.7428 221.859 47.7587V47.6012C221.859 46.8533 221.63 46.3349 221.17 46.0463C220.882 45.8626 220.573 45.7707 220.245 45.7707C219.825 45.7707 219.438 45.8429 219.084 45.9872C218.73 46.1316 218.48 46.2825 218.336 46.4399C218.192 46.5974 218.12 46.6761 218.12 46.6761H218.179C218.218 46.6892 218.27 46.7024 218.336 46.7155C218.402 46.7286 218.467 46.7614 218.533 46.8139C218.598 46.8664 218.677 46.9123 218.769 46.9517C218.861 46.991 218.927 47.0632 218.966 47.1682C219.005 47.2731 219.058 47.3716 219.123 47.4634C219.189 47.5553 219.209 47.6865 219.182 47.8571C219.182 48.1457 219.091 48.4016 218.907 48.6247C218.723 48.8478 218.428 48.9658 218.021 48.979Z" fill="#F0F0F0"/>
<path d="M232.881 45.8495C232.79 45.7576 232.717 45.6986 232.665 45.6723C232.612 45.6461 232.508 45.6264 232.35 45.6133C232.193 45.6002 231.91 45.5805 231.504 45.5542H230.854V44.6488H232.941C234.069 44.6488 234.705 44.6554 234.85 44.6685C234.994 44.6816 235.106 44.7276 235.184 44.8063C235.197 44.8194 235.886 46.6368 237.251 50.2584L239.298 55.6514L241.345 50.2584C242.71 46.6368 243.405 44.8194 243.431 44.8063C243.471 44.7276 243.569 44.6816 243.727 44.6685C243.884 44.6554 244.527 44.6488 245.655 44.6488H247.742V45.5542H247.092C246.567 45.5674 246.233 45.587 246.089 45.6133C245.944 45.6395 245.826 45.7183 245.734 45.8495V56.8914C245.813 57.0226 245.924 57.1014 246.069 57.1276C246.213 57.1538 246.554 57.1735 247.092 57.1866H247.742V58.092H247.525C247.25 58.0527 246.331 58.033 244.77 58.033C243.051 58.033 242.132 58.0527 242.014 58.092H241.798V57.1866H242.447C242.998 57.1735 243.333 57.1538 243.451 57.1276C243.569 57.1014 243.694 57.0226 243.825 56.8914V51.2622C243.825 50.2518 243.825 49.5039 243.825 49.0184C243.825 48.5329 243.825 47.9752 243.825 47.3453C243.825 46.7155 243.825 46.2759 243.825 46.0266L243.805 45.6526C240.748 53.7619 239.193 57.8624 239.141 57.9543C239.088 58.033 238.957 58.0724 238.747 58.0724C238.537 58.0724 238.406 58.033 238.353 57.9543C238.34 57.928 237.566 55.9007 236.031 51.8723L233.748 45.8101V46.1644C233.734 46.4006 233.728 46.8139 233.728 47.4044C233.728 47.9949 233.728 48.5197 233.728 48.979C233.728 49.4383 233.728 50.1403 233.728 51.085L233.748 56.3993C233.892 56.8717 234.45 57.1342 235.421 57.1866H235.755V58.092H235.578C235.381 58.0527 234.627 58.033 233.315 58.033C231.976 58.033 231.208 58.0527 231.012 58.092H230.854V57.1866H231.189C231.609 57.1604 231.95 57.0948 232.212 56.9898C232.475 56.8848 232.632 56.7996 232.685 56.7339C232.737 56.6683 232.803 56.5568 232.881 56.3993V45.8495Z" fill="#F0F0F0"/>
<path d="M251.029 52.0888C251.029 52.0888 250.884 52.0888 250.596 52.0888C250.307 52.0888 250.064 51.9904 249.868 51.7935C249.671 51.5967 249.572 51.3408 249.572 51.0259C249.572 50.5667 249.795 50.1599 250.242 49.8056C250.688 49.4513 251.482 49.2742 252.623 49.2742C253.581 49.2742 254.355 49.4841 254.946 49.904C255.536 50.3239 255.93 50.8225 256.127 51.3999C256.192 51.5836 256.225 51.787 256.225 52.01C256.225 52.2331 256.232 52.9876 256.245 54.2735V55.6513C256.245 56.2812 256.278 56.7142 256.343 56.9504C256.409 57.1866 256.547 57.3047 256.756 57.3047C256.953 57.3047 257.085 57.1997 257.15 56.9897C257.216 56.7798 257.249 56.4321 257.249 55.9466V55.238H258.036V56.0056C258.023 56.5305 258.003 56.8388 257.977 56.9307C257.859 57.3243 257.629 57.6327 257.288 57.8558C256.947 58.0788 256.586 58.1969 256.205 58.2101C255.825 58.2232 255.516 58.1051 255.28 57.8558C255.044 57.6065 254.887 57.3309 254.808 57.0291V56.9504L254.769 57.0094C254.742 57.0488 254.709 57.0882 254.67 57.1275C254.631 57.1669 254.578 57.2259 254.513 57.3047C254.447 57.3834 254.368 57.4556 254.276 57.5212C254.185 57.5868 254.086 57.6655 253.981 57.7574C253.876 57.8492 253.758 57.9214 253.627 57.9739C253.496 58.0264 253.351 58.0788 253.194 58.1313C253.036 58.1838 252.866 58.2232 252.682 58.2494C252.498 58.2757 252.295 58.2953 252.072 58.3085C251.285 58.3085 250.576 58.1051 249.946 57.6983C249.316 57.2915 249.002 56.7207 249.002 55.9859C249.002 55.7104 249.047 55.4479 249.139 55.1986C249.231 54.9493 249.408 54.6803 249.671 54.3916C249.933 54.103 250.248 53.8602 250.615 53.6634C250.983 53.4666 251.495 53.2829 252.151 53.1123C252.807 52.9417 253.529 52.8433 254.316 52.817H254.591V52.384C254.591 51.9379 254.552 51.6098 254.473 51.3999C254.185 50.4682 253.548 50.0024 252.564 50.0024C252.328 50.0024 252.105 50.009 251.895 50.0221C251.685 50.0352 251.521 50.0615 251.403 50.1008C251.285 50.1402 251.232 50.1599 251.245 50.1599C251.534 50.3567 251.678 50.6454 251.678 51.0259C251.678 51.354 251.573 51.6098 251.363 51.7935L251.029 52.0888ZM250.812 56.0056C250.812 56.4124 250.97 56.7732 251.285 57.0882C251.6 57.4031 251.987 57.5671 252.446 57.5802C252.945 57.5802 253.384 57.4293 253.765 57.1275C254.145 56.8257 254.401 56.4321 254.532 55.9466C254.559 55.8547 254.578 55.4217 254.591 54.6475C254.591 53.8865 254.585 53.5059 254.572 53.5059C254.467 53.5059 254.329 53.5125 254.158 53.5256C253.988 53.5387 253.693 53.5978 253.273 53.7027C252.853 53.8077 252.472 53.9389 252.131 54.0964C251.79 54.2539 251.488 54.4966 251.226 54.8247C250.963 55.1527 250.825 55.5463 250.812 56.0056Z" fill="#F0F0F0"/>
<path d="M258.705 49.7859C259.4 49.7335 259.938 49.366 260.319 48.6837C260.7 48.0014 260.909 47.201 260.949 46.2824V45.9872H261.736V49.6088H264.393V50.5142H261.736V53.3485C261.749 54.9887 261.756 55.9138 261.756 56.1237C261.756 56.3337 261.802 56.5436 261.894 56.7536C262.077 57.2653 262.399 57.5212 262.858 57.5212C263.435 57.5212 263.79 57.0554 263.921 56.1237C263.934 56.0188 263.941 55.717 263.941 55.2183V54.5294H264.728V55.2183V55.4545C264.728 56.4649 264.452 57.2325 263.901 57.7574C263.547 58.1117 263.088 58.2888 262.523 58.2888C262.077 58.2888 261.69 58.2101 261.362 58.0526C261.034 57.8952 260.785 57.6918 260.614 57.4425C260.444 57.1932 260.319 56.9635 260.24 56.7536C260.162 56.5436 260.116 56.3337 260.102 56.1237C260.089 56.0319 260.083 55.0609 260.083 53.2107V50.5142H258.528V49.7859H258.705Z" fill="#F0F0F0"/>
<path d="M266.539 57.1866H266.814C267.326 57.1866 267.634 57.0948 267.739 56.9111V56.7536C267.739 56.6355 267.739 56.4846 267.739 56.3009C267.739 56.1172 267.746 55.9138 267.759 55.6908C267.772 55.4677 267.772 55.2118 267.759 54.9231C267.746 54.6345 267.746 54.3589 267.759 54.0965C267.759 53.6897 267.759 53.2567 267.759 52.7974C267.759 52.3382 267.759 51.9511 267.759 51.6362L267.739 51.1835C267.7 50.9341 267.608 50.7701 267.464 50.6914C267.319 50.6127 267.024 50.5536 266.578 50.5142H266.224V50.0615C266.224 49.7597 266.237 49.6088 266.263 49.6088L266.46 49.5892C266.591 49.576 266.775 49.5629 267.011 49.5498C267.247 49.5367 267.483 49.5236 267.72 49.5104C267.93 49.4973 268.159 49.4842 268.409 49.4711C268.658 49.4579 268.848 49.4383 268.979 49.412C269.111 49.3858 269.183 49.3792 269.196 49.3923H269.255V50.7504C269.767 49.8582 270.403 49.412 271.164 49.412H271.282C271.873 49.412 272.306 49.5564 272.581 49.845C272.857 50.1337 272.995 50.4355 272.995 50.7504C272.995 51.026 272.909 51.2622 272.739 51.459C272.568 51.6558 272.319 51.7542 271.991 51.7542C271.663 51.7542 271.42 51.6493 271.262 51.4393C271.105 51.2294 271.02 51.0063 271.007 50.7701C271.007 50.652 271.02 50.5471 271.046 50.4552C271.072 50.3633 271.105 50.2846 271.144 50.219C271.184 50.1534 271.203 50.1206 271.203 50.1206C271.177 50.0944 271.026 50.1206 270.751 50.1993C270.541 50.3043 270.383 50.4027 270.278 50.4946C269.662 51.085 269.353 52.2594 269.353 54.0177V55.0609C269.353 55.2315 269.353 55.4086 269.353 55.5924C269.353 55.7761 269.353 55.9466 269.353 56.1041C269.353 56.2616 269.36 56.3928 269.373 56.4978C269.386 56.6027 269.386 56.7011 269.373 56.793V56.8914C269.386 56.9176 269.406 56.9439 269.432 56.9701C269.458 56.9964 269.491 57.0161 269.53 57.0292C269.57 57.0423 269.603 57.062 269.629 57.0882C269.655 57.1145 269.701 57.1276 269.767 57.1276C269.832 57.1276 269.878 57.1342 269.904 57.1473C269.931 57.1604 269.99 57.167 270.082 57.167C270.173 57.167 270.232 57.167 270.259 57.167C270.285 57.167 270.351 57.1735 270.456 57.1866C270.56 57.1998 270.626 57.1998 270.652 57.1866H271.262V58.092H271.085C270.849 58.0527 270.016 58.033 268.586 58.033C267.234 58.033 266.499 58.0527 266.381 58.092H266.224V57.1866H266.539Z" fill="#F0F0F0"/>
<path d="M274.904 46.1053C274.904 45.7379 275.022 45.4493 275.258 45.2393C275.494 45.0294 275.783 44.9244 276.124 44.9244C276.426 44.9506 276.688 45.0622 276.911 45.259C277.134 45.4558 277.246 45.7379 277.246 46.1053C277.246 46.499 277.134 46.7942 276.911 46.9911C276.688 47.1879 276.413 47.2863 276.085 47.2863C275.757 47.2863 275.481 47.1879 275.258 46.9911C275.035 46.7942 274.917 46.499 274.904 46.1053ZM278.407 58.092C278.21 58.0527 277.528 58.033 276.36 58.033C276.216 58.033 275.973 58.033 275.632 58.033C275.291 58.033 274.963 58.0461 274.648 58.0724L274.215 58.092H274.057V57.1866H274.372C274.74 57.1866 275.061 57.167 275.337 57.1276C275.455 57.0751 275.527 57.0029 275.553 56.9111C275.58 56.8192 275.593 56.5437 275.593 56.0844V54.0571V52.325C275.593 51.6427 275.58 51.2097 275.553 51.026C275.527 50.8423 275.435 50.7176 275.278 50.652C275.094 50.5602 274.786 50.5142 274.353 50.5142H274.136V50.0615C274.136 49.7597 274.149 49.6088 274.176 49.6088L274.372 49.5892C274.504 49.576 274.687 49.5629 274.923 49.5498C275.16 49.5367 275.396 49.5236 275.632 49.5104C275.855 49.4973 276.091 49.4842 276.341 49.4711C276.59 49.4579 276.78 49.4383 276.911 49.412C277.043 49.3858 277.115 49.3792 277.128 49.3923H277.187V56.8717C277.253 57.0029 277.331 57.0817 277.423 57.1079C277.515 57.1342 277.745 57.1604 278.112 57.1866H278.565V58.092H278.407Z" fill="#F0F0F0"/>
<path d="M282.974 58.092C282.816 58.0527 282.167 58.033 281.025 58.033C280.028 58.033 279.47 58.0527 279.352 58.092H279.234V57.1866H279.51C279.811 57.1735 280.087 57.1342 280.336 57.0685C280.585 57.0029 280.776 56.9439 280.907 56.8914C281.038 56.8389 281.202 56.7274 281.399 56.5568C281.596 56.3862 281.714 56.2681 281.753 56.2025C281.793 56.1369 281.93 55.9663 282.167 55.6908C282.403 55.4152 282.534 55.2315 282.56 55.1397L283.466 53.9587L282.324 52.4235C282.206 52.2529 282.081 52.0757 281.95 51.892C281.819 51.7083 281.714 51.5705 281.635 51.4787C281.556 51.3868 281.484 51.2884 281.419 51.1835C281.353 51.0785 281.294 50.9997 281.242 50.9473C281.189 50.8948 281.15 50.8488 281.123 50.8095C281.097 50.7701 281.051 50.7308 280.986 50.6914C280.92 50.652 280.881 50.6323 280.868 50.6323C280.854 50.6323 280.815 50.6192 280.75 50.593C280.684 50.5667 280.631 50.5536 280.592 50.5536C280.513 50.5536 280.277 50.5405 279.883 50.5142H279.332V49.6088H279.47C279.943 49.6351 280.618 49.6482 281.497 49.6482C282.718 49.6482 283.394 49.6351 283.525 49.6088H283.682V50.5142C283.21 50.5667 282.974 50.6717 282.974 50.8292C282.974 50.8554 283.039 50.9604 283.17 51.1441C283.302 51.3278 283.485 51.5771 283.722 51.892C283.958 52.2069 284.148 52.4759 284.292 52.699L284.371 52.7777L284.863 52.1085C285.283 51.5705 285.493 51.2163 285.493 51.0457C285.493 50.9669 285.48 50.8948 285.454 50.8292C285.427 50.7636 285.395 50.7176 285.355 50.6914C285.316 50.6651 285.283 50.6389 285.257 50.6127C285.231 50.5864 285.185 50.5602 285.119 50.5339L285.06 50.5142H284.962V49.6088H285.099C285.296 49.6482 285.946 49.6679 287.048 49.6679C288.085 49.6679 288.642 49.6482 288.721 49.6088H288.839V50.5142H288.701C288.058 50.5142 287.527 50.6258 287.107 50.8488C286.884 50.9538 286.661 51.131 286.438 51.3803C286.215 51.6296 285.788 52.1807 285.158 53.0336L284.843 53.447L286.064 55.12C286.93 56.3009 287.396 56.9176 287.461 56.9701C287.527 57.0226 287.638 57.0685 287.796 57.1079C288.032 57.1604 288.38 57.1866 288.839 57.1866H289.174V58.092H289.056H288.898C288.793 58.0789 288.662 58.0724 288.504 58.0724C288.347 58.0724 288.183 58.0658 288.012 58.0527C287.842 58.0396 287.678 58.0396 287.52 58.0527C287.363 58.0658 287.245 58.0592 287.166 58.033C287.022 58.033 286.779 58.033 286.438 58.033C286.097 58.033 285.769 58.0461 285.454 58.0724L285.001 58.092H284.824V57.1866H284.883C285.027 57.1866 285.172 57.1538 285.316 57.0882C285.46 57.0226 285.532 56.9439 285.532 56.852C285.532 56.8258 285.27 56.4518 284.745 55.7301L283.938 54.6476C283.925 54.6607 283.722 54.9363 283.328 55.4743C282.934 56.0122 282.711 56.3075 282.659 56.36C282.606 56.4256 282.58 56.5174 282.58 56.6355C282.58 56.7799 282.626 56.9045 282.718 57.0095C282.81 57.1145 282.928 57.1735 283.072 57.1866C283.098 57.1866 283.111 57.3375 283.111 57.6393V58.092H282.974Z" fill="#F0F0F0"/>
<path d="M290.079 45.6133C290.079 45.2852 290.184 45.0097 290.394 44.7866C290.604 44.5635 290.886 44.4454 291.24 44.4323C291.608 44.4323 291.942 44.6029 292.244 44.9441C292.546 45.2852 292.703 45.8691 292.717 46.6958C292.717 47.4044 292.572 48.0801 292.283 48.7231C291.995 49.3661 291.7 49.845 291.398 50.1599C291.096 50.4749 290.912 50.6323 290.847 50.6323C290.794 50.6323 290.709 50.5733 290.591 50.4552C290.473 50.3371 290.407 50.2518 290.394 50.1993C290.394 50.1599 290.473 50.055 290.63 49.8844C290.788 49.7138 290.958 49.5104 291.142 49.2742C291.326 49.038 291.509 48.6969 291.693 48.2507C291.877 47.8046 291.975 47.3322 291.988 46.8336C291.988 46.6761 291.982 46.5974 291.969 46.5974C291.955 46.5974 291.923 46.6171 291.87 46.6564C291.818 46.6958 291.732 46.7286 291.614 46.7549C291.496 46.7811 291.378 46.8008 291.26 46.8139C290.932 46.8139 290.656 46.7024 290.433 46.4793C290.21 46.2562 290.092 45.9676 290.079 45.6133ZM294.094 45.6133C294.094 45.2852 294.199 45.0097 294.409 44.7866C294.619 44.5635 294.901 44.4454 295.256 44.4323C295.623 44.4323 295.958 44.6029 296.259 44.9441C296.561 45.2852 296.719 45.8691 296.732 46.6958C296.732 47.4044 296.587 48.0801 296.299 48.7231C296.01 49.3661 295.715 49.845 295.413 50.1599C295.111 50.4749 294.928 50.6323 294.862 50.6323C294.809 50.6323 294.724 50.5733 294.606 50.4552C294.488 50.3371 294.422 50.2518 294.409 50.1993C294.409 50.1599 294.488 50.055 294.645 49.8844C294.803 49.7138 294.973 49.5104 295.157 49.2742C295.341 49.038 295.525 48.6969 295.708 48.2507C295.892 47.8046 295.99 47.3322 296.003 46.8336C296.003 46.6761 295.997 46.5974 295.984 46.5974C295.971 46.5974 295.938 46.6171 295.885 46.6564C295.833 46.6958 295.748 46.7286 295.63 46.7549C295.511 46.7811 295.393 46.8008 295.275 46.8139C294.947 46.8139 294.672 46.7024 294.449 46.4793C294.226 46.2562 294.107 45.9676 294.094 45.6133Z" fill="#F0F0F0"/>
</g>
</g>
<defs>
<clipPath id="clip0_1601_30177">
<rect width="480" height="270" fill="white"/>
</clipPath>
<clipPath id="clip1_1601_30177">
<rect width="131.205" height="47.241" fill="white" transform="translate(179.079 95.3167)"/>
</clipPath>
<clipPath id="clip2_1601_30177">
<rect width="113.805" height="14.094" fill="white" transform="translate(185.446 44.4316)"/>
</clipPath>
</defs>
</svg>
