<svg width="620" height="420" viewBox="0 0 620 420" fill="none" xmlns="http://www.w3.org/2000/svg">
<g clip-path="url(#clip0_675_31801)">
<path d="M620 0H0V420H620V0Z" fill="black"/>
<path d="M56.92 383.3C57.667 382.22 58.687 381.68 59.98 381.68C60.953 381.68 61.807 382.014 62.54 382.68C62.9 383.028 63.207 383.481 63.46 384.04C63.953 385.146 64.2 386.667 64.2 388.6C64.2 390.667 63.913 392.247 63.34 393.34C62.967 394.113 62.42 394.674 61.7 395.02C61.14 395.3 60.573 395.441 60 395.441C58.467 395.441 57.347 394.741 56.64 393.34C56.066 392.247 55.78 390.667 55.78 388.6C55.78 387.361 55.863 386.337 56.03 385.531C56.197 384.724 56.493 383.981 56.92 383.301V383.3ZM61.42 383.06C61.033 382.634 60.56 382.42 60 382.42C59.44 382.42 58.96 382.634 58.56 383.06C58.267 383.368 58.066 383.741 57.96 384.18C57.853 384.62 57.787 385.38 57.76 386.46C57.76 386.54 57.757 386.8 57.75 387.24C57.743 387.679 57.74 388.047 57.74 388.34C57.74 389.62 57.753 390.514 57.78 391.02C57.833 391.954 57.913 392.624 58.02 393.031C58.126 393.437 58.327 393.788 58.62 394.081C58.98 394.481 59.44 394.681 60 394.681C60.546 394.681 61 394.482 61.36 394.081C61.653 393.788 61.853 393.437 61.96 393.031C62.066 392.624 62.147 391.954 62.2 391.02C62.226 390.514 62.24 389.621 62.24 388.34C62.24 388.047 62.236 387.68 62.23 387.24C62.223 386.8 62.22 386.54 62.22 386.46C62.193 385.38 62.126 384.62 62.02 384.18C61.913 383.741 61.713 383.368 61.42 383.06Z" fill="#F0F0F0"/>
<path d="M163.32 395C163.093 394.96 162.033 394.94 160.14 394.94C158.273 394.94 157.226 394.96 157 395H156.76V394.08H157.28C158.053 394.08 158.553 394.059 158.78 394.019C158.887 394.006 159.047 393.926 159.26 393.78V383.44C159.233 383.44 159.18 383.46 159.1 383.5C158.486 383.74 157.8 383.867 157.04 383.88H156.66V382.96H157.04C158.16 382.92 159.093 382.667 159.84 382.2C160.08 382.066 160.287 381.913 160.46 381.74C160.486 381.7 160.566 381.679 160.7 381.679C160.833 381.679 160.947 381.719 161.04 381.799V387.779L161.06 393.779C161.26 393.979 161.693 394.079 162.36 394.079H163.54V394.999H163.32V395Z" fill="#F0F0F0"/>
<path d="M257.2 386.42C256.826 386.42 256.533 386.3 256.32 386.06C256.107 385.821 256 385.528 256 385.18C256 384.22 256.363 383.397 257.09 382.71C257.817 382.023 258.687 381.68 259.7 381.68C260.846 381.68 261.796 381.991 262.55 382.611C263.304 383.231 263.767 384.041 263.94 385.041C263.967 385.281 263.98 385.501 263.98 385.701C263.98 386.474 263.747 387.201 263.28 387.881C262.907 388.442 262.154 389.208 261.02 390.181C260.54 390.595 259.873 391.208 259.02 392.021L257.84 393.141L259.36 393.162C261.453 393.162 262.567 393.129 262.7 393.061C262.753 393.048 262.82 392.909 262.9 392.641C262.953 392.495 263.046 392.041 263.18 391.282V391.221H263.98V391.282L263.42 394.942V395.002H256V394.622C256 394.355 256.013 394.202 256.04 394.162C256.053 394.136 256.613 393.502 257.72 392.262C259.173 390.649 260.106 389.582 260.52 389.062C261.413 387.849 261.86 386.736 261.86 385.722C261.86 384.842 261.63 384.106 261.17 383.512C260.71 382.919 260.066 382.622 259.24 382.622C258.467 382.622 257.84 382.969 257.36 383.662C257.333 383.716 257.293 383.789 257.24 383.882C257.2 383.949 257.18 383.989 257.18 384.002C257.18 384.016 257.213 384.022 257.28 384.022C257.613 384.022 257.884 384.142 258.09 384.382C258.296 384.622 258.4 384.903 258.4 385.222C258.4 385.556 258.29 385.839 258.07 386.073C257.85 386.306 257.56 386.423 257.2 386.423V386.42Z" fill="#F0F0F0"/>
<path d="M357.54 385.74C357.18 385.74 356.896 385.627 356.689 385.4C356.482 385.173 356.379 384.879 356.379 384.519C356.379 383.759 356.679 383.123 357.278 382.61C357.879 382.096 358.572 381.793 359.358 381.7H359.659C360.499 381.7 361.239 381.846 361.879 382.139C362.759 382.579 363.312 383.206 363.539 384.019C363.579 384.153 363.599 384.332 363.599 384.559C363.599 385.346 363.356 386.049 362.87 386.669C362.383 387.289 361.773 387.732 361.04 387.999C360.973 388.026 360.973 388.046 361.04 388.059C361.066 388.073 361.133 388.093 361.24 388.12C362.052 388.347 362.74 388.769 363.3 389.39C363.86 390.011 364.141 390.714 364.141 391.5C364.141 392.193 363.963 392.827 363.61 393.4C363.257 393.973 362.807 394.42 362.26 394.74C361.514 395.207 360.68 395.44 359.76 395.44C358.88 395.44 358.1 395.252 357.42 394.879C356.74 394.506 356.279 394.006 356.04 393.379C355.906 393.099 355.84 392.773 355.84 392.4C355.84 392.027 355.963 391.723 356.21 391.49C356.457 391.257 356.753 391.139 357.1 391.139C357.473 391.139 357.78 391.259 358.02 391.499C358.26 391.739 358.38 392.039 358.38 392.399C358.38 392.706 358.293 392.972 358.12 393.199C357.947 393.426 357.713 393.572 357.42 393.638L357.279 393.678C358 394.279 358.826 394.578 359.759 394.578C360.492 394.578 361.046 394.224 361.419 393.517C361.646 393.078 361.759 392.405 361.759 391.497V391.097C361.759 389.83 361.332 388.985 360.48 388.557C360.279 388.478 359.873 388.431 359.259 388.417L358.419 388.397L358.358 388.357C358.332 388.317 358.319 388.211 358.319 388.037C358.319 387.877 358.339 387.777 358.379 387.737C358.419 387.697 358.452 387.676 358.48 387.676C358.853 387.676 359.24 387.643 359.64 387.576C360.226 387.496 360.673 387.166 360.98 386.586C361.287 386.006 361.439 385.31 361.439 384.496C361.439 383.63 361.207 383.05 360.74 382.756C360.46 382.569 360.146 382.477 359.8 382.477C359.133 382.477 358.547 382.657 358.04 383.016C357.986 383.043 357.927 383.086 357.859 383.147C357.793 383.207 357.74 383.263 357.7 383.317L357.64 383.397C357.679 383.41 357.726 383.423 357.779 383.437C358.047 383.463 358.269 383.59 358.45 383.817C358.63 384.044 358.721 384.303 358.721 384.596C358.721 384.916 358.61 385.187 358.391 385.407C358.17 385.627 357.887 385.737 357.54 385.737V385.74Z" fill="#F0F0F0"/>
<path d="M464.24 395C464.052 394.96 463.193 394.94 461.66 394.94C460.06 394.94 459.166 394.96 458.98 395H458.799V394.08H459.419C459.992 394.066 460.346 394.033 460.48 393.98C460.585 393.953 460.666 393.886 460.72 393.78C460.732 393.754 460.74 393.393 460.74 392.7V391.7H455.56V390.78L458.58 386.16C460.62 383.066 461.653 381.514 461.68 381.5C461.707 381.474 461.847 381.46 462.1 381.46H462.46L462.58 381.58V390.78H464.42V391.7H462.58V392.72C462.58 393.267 462.583 393.587 462.59 393.68C462.597 393.774 462.633 393.854 462.7 393.92C462.806 394.014 463.186 394.066 463.84 394.08H464.42V395H464.24ZM460.859 390.78V384.099L456.48 390.759L458.66 390.78H460.859Z" fill="#F0F0F0"/>
<path d="M557.141 390.72C557.46 390.72 557.731 390.83 557.951 391.05C558.171 391.27 558.28 391.547 558.28 391.88C558.28 392.187 558.167 392.447 557.94 392.66C557.713 392.873 557.461 392.98 557.18 392.98H557.04L557.1 393.08C557.3 393.507 557.607 393.86 558.02 394.14C558.434 394.42 558.92 394.56 559.481 394.56C560.427 394.56 561.107 394.161 561.52 393.361C561.774 392.868 561.901 392.014 561.901 390.8C561.901 389.427 561.721 388.5 561.36 388.02C561.014 387.581 560.587 387.361 560.081 387.361C559.041 387.361 558.254 387.814 557.722 388.72C557.667 388.814 557.618 388.87 557.572 388.89C557.525 388.911 557.428 388.92 557.281 388.92C557.054 388.92 556.928 388.88 556.902 388.8C556.875 388.747 556.861 387.58 556.861 385.3C556.861 384.901 556.858 384.427 556.851 383.88C556.845 383.333 556.841 382.987 556.841 382.84C556.841 382.094 556.881 381.72 556.961 381.72C556.987 381.694 557.015 381.68 557.041 381.68L557.401 381.8C558.267 382.147 559.154 382.321 560.061 382.321C561.006 382.321 561.914 382.134 562.78 381.76C562.887 381.707 562.973 381.68 563.041 381.68C563.147 381.68 563.201 381.8 563.201 382.04V382.3C562.121 383.594 560.754 384.24 559.1 384.24C558.687 384.24 558.313 384.2 557.981 384.12L557.78 384.08V387.519C558.541 386.907 559.321 386.599 560.121 386.599C560.374 386.599 560.647 386.633 560.94 386.7C561.834 386.927 562.563 387.433 563.13 388.22C563.697 389.007 563.981 389.927 563.981 390.981C563.981 392.194 563.557 393.241 562.71 394.121C561.863 395.001 560.82 395.441 559.58 395.441C558.74 395.441 558.026 395.208 557.439 394.741C557.186 394.581 556.966 394.361 556.779 394.081C556.259 393.454 556 392.734 556 391.921C556 391.548 556.106 391.255 556.32 391.041C556.534 390.827 556.806 390.721 557.14 390.721L557.141 390.72Z" fill="#F0F0F0"/>
<path d="M26.92 353.3C27.667 352.22 28.687 351.68 29.98 351.68C30.953 351.68 31.807 352.014 32.54 352.68C32.9 353.028 33.207 353.481 33.46 354.04C33.953 355.146 34.2 356.667 34.2 358.6C34.2 360.667 33.913 362.247 33.34 363.34C32.967 364.113 32.42 364.674 31.7 365.02C31.14 365.3 30.573 365.441 30 365.441C28.467 365.441 27.347 364.741 26.64 363.34C26.066 362.247 25.78 360.667 25.78 358.6C25.78 357.361 25.863 356.337 26.03 355.531C26.197 354.724 26.493 353.981 26.92 353.301V353.3ZM31.42 353.06C31.033 352.634 30.56 352.42 30 352.42C29.44 352.42 28.96 352.634 28.56 353.06C28.267 353.368 28.066 353.741 27.96 354.18C27.853 354.62 27.787 355.38 27.76 356.46C27.76 356.54 27.757 356.8 27.75 357.24C27.743 357.679 27.74 358.047 27.74 358.34C27.74 359.62 27.753 360.514 27.78 361.02C27.833 361.954 27.913 362.624 28.02 363.031C28.126 363.437 28.327 363.788 28.62 364.081C28.98 364.481 29.44 364.681 30 364.681C30.546 364.681 31 364.482 31.36 364.081C31.653 363.788 31.853 363.437 31.96 363.031C32.066 362.624 32.147 361.954 32.2 361.02C32.226 360.514 32.24 359.621 32.24 358.34C32.24 358.047 32.236 357.68 32.23 357.24C32.223 356.8 32.22 356.54 32.22 356.46C32.193 355.38 32.126 354.62 32.02 354.18C31.913 353.741 31.713 353.368 31.42 353.06Z" fill="#F0F0F0"/>
<path d="M33.32 265C33.093 264.96 32.033 264.94 30.14 264.94C28.273 264.94 27.226 264.96 27 265H26.76V264.08H27.28C28.053 264.08 28.553 264.059 28.78 264.019C28.887 264.006 29.047 263.926 29.26 263.78V253.44C29.233 253.44 29.18 253.46 29.1 253.5C28.486 253.74 27.8 253.867 27.04 253.88H26.66V252.96H27.04C28.16 252.92 29.093 252.667 29.84 252.2C30.08 252.066 30.287 251.913 30.46 251.74C30.486 251.7 30.566 251.679 30.7 251.679C30.833 251.679 30.947 251.719 31.04 251.799V257.779L31.06 263.779C31.26 263.979 31.693 264.079 32.36 264.079H33.54V264.999H33.32V265Z" fill="#F0F0F0"/>
<path d="M27.2 156.42C26.826 156.42 26.533 156.3 26.32 156.06C26.107 155.821 26 155.528 26 155.18C26 154.22 26.363 153.397 27.09 152.71C27.817 152.023 28.687 151.68 29.7 151.68C30.846 151.68 31.796 151.991 32.55 152.611C33.304 153.231 33.767 154.041 33.94 155.041C33.967 155.281 33.98 155.501 33.98 155.701C33.98 156.474 33.747 157.201 33.28 157.881C32.907 158.442 32.154 159.208 31.02 160.181C30.54 160.595 29.873 161.208 29.02 162.021L27.84 163.141L29.36 163.162C31.453 163.162 32.567 163.129 32.7 163.061C32.753 163.048 32.82 162.909 32.9 162.641C32.953 162.495 33.046 162.041 33.18 161.282V161.221H33.98V161.282L33.42 164.942V165.002H26V164.622C26 164.355 26.013 164.202 26.04 164.162C26.053 164.136 26.613 163.502 27.72 162.262C29.173 160.649 30.106 159.582 30.52 159.062C31.413 157.849 31.86 156.736 31.86 155.722C31.86 154.842 31.63 154.106 31.17 153.512C30.71 152.919 30.066 152.622 29.24 152.622C28.467 152.622 27.84 152.969 27.36 153.662C27.333 153.716 27.293 153.789 27.24 153.882C27.2 153.949 27.18 153.989 27.18 154.002C27.18 154.016 27.213 154.022 27.28 154.022C27.613 154.022 27.884 154.142 28.09 154.382C28.296 154.622 28.4 154.903 28.4 155.222C28.4 155.556 28.29 155.839 28.07 156.073C27.85 156.306 27.56 156.423 27.2 156.423V156.42Z" fill="#F0F0F0"/>
<path d="M27.54 55.74C27.18 55.74 26.896 55.627 26.69 55.4C26.483 55.173 26.38 54.879 26.38 54.519C26.38 53.759 26.68 53.123 27.28 52.61C27.88 52.096 28.573 51.793 29.36 51.7H29.66C30.5 51.7 31.24 51.846 31.88 52.139C32.76 52.579 33.313 53.206 33.54 54.019C33.58 54.153 33.6 54.332 33.6 54.559C33.6 55.346 33.356 56.049 32.87 56.669C32.383 57.289 31.773 57.732 31.04 57.999C30.973 58.026 30.973 58.046 31.04 58.059C31.066 58.073 31.133 58.093 31.24 58.12C32.053 58.347 32.74 58.769 33.3 59.39C33.86 60.01 34.14 60.714 34.14 61.5C34.14 62.193 33.963 62.827 33.61 63.4C33.256 63.973 32.807 64.42 32.26 64.74C31.513 65.207 30.68 65.44 29.76 65.44C28.88 65.44 28.1 65.252 27.42 64.879C26.74 64.506 26.28 64.006 26.04 63.379C25.907 63.099 25.84 62.773 25.84 62.4C25.84 62.027 25.963 61.723 26.21 61.49C26.457 61.257 26.753 61.139 27.1 61.139C27.473 61.139 27.78 61.259 28.02 61.499C28.26 61.739 28.38 62.039 28.38 62.399C28.38 62.706 28.293 62.972 28.12 63.199C27.947 63.426 27.713 63.572 27.42 63.638L27.28 63.678C28 64.279 28.827 64.578 29.76 64.578C30.493 64.578 31.047 64.224 31.42 63.517C31.647 63.078 31.76 62.405 31.76 61.497V61.097C31.76 59.83 31.333 58.985 30.48 58.557C30.28 58.478 29.873 58.431 29.26 58.417L28.42 58.397L28.36 58.357C28.333 58.317 28.32 58.211 28.32 58.037C28.32 57.877 28.34 57.777 28.38 57.737C28.42 57.697 28.453 57.676 28.48 57.676C28.853 57.676 29.24 57.643 29.64 57.576C30.226 57.496 30.673 57.166 30.98 56.586C31.287 56.006 31.44 55.31 31.44 54.496C31.44 53.63 31.207 53.05 30.74 52.756C30.46 52.569 30.146 52.477 29.8 52.477C29.133 52.477 28.547 52.657 28.04 53.016C27.986 53.043 27.927 53.086 27.86 53.147C27.793 53.207 27.74 53.263 27.7 53.317L27.64 53.397C27.68 53.41 27.726 53.423 27.78 53.437C28.047 53.463 28.27 53.59 28.45 53.817C28.63 54.044 28.72 54.303 28.72 54.596C28.72 54.916 28.61 55.187 28.39 55.407C28.17 55.627 27.887 55.737 27.54 55.737V55.74Z" fill="#F0F0F0"/>
<path d="M560 60H60V360H560V60Z" fill="black"/>
<path d="M60 70H560" stroke="#181818" stroke-miterlimit="400"/>
<path d="M60 80H560" stroke="#181818" stroke-miterlimit="400"/>
<path d="M60 90H560" stroke="#181818" stroke-miterlimit="400"/>
<path d="M60 100H560" stroke="#181818" stroke-miterlimit="400"/>
<path d="M60 120H560" stroke="#181818" stroke-miterlimit="400"/>
<path d="M60 130H560" stroke="#181818" stroke-miterlimit="400"/>
<path d="M60 140H560" stroke="#181818" stroke-miterlimit="400"/>
<path d="M60 150H560" stroke="#181818" stroke-miterlimit="400"/>
<path d="M60 170H560" stroke="#181818" stroke-miterlimit="400"/>
<path d="M60 180H560" stroke="#181818" stroke-miterlimit="400"/>
<path d="M60 190H560" stroke="#181818" stroke-miterlimit="400"/>
<path d="M60 200H560" stroke="#181818" stroke-miterlimit="400"/>
<path d="M60 220H560" stroke="#181818" stroke-miterlimit="400"/>
<path d="M60 230H560" stroke="#181818" stroke-miterlimit="400"/>
<path d="M60 240H560" stroke="#181818" stroke-miterlimit="400"/>
<path d="M60 250H560" stroke="#181818" stroke-miterlimit="400"/>
<path d="M60 270H560" stroke="#181818" stroke-miterlimit="400"/>
<path d="M60 280H560" stroke="#181818" stroke-miterlimit="400"/>
<path d="M60 290H560" stroke="#181818" stroke-miterlimit="400"/>
<path d="M60 300H560" stroke="#181818" stroke-miterlimit="400"/>
<path d="M60 320H560" stroke="#181818" stroke-miterlimit="400"/>
<path d="M60 330H560" stroke="#181818" stroke-miterlimit="400"/>
<path d="M60 340H560" stroke="#181818" stroke-miterlimit="400"/>
<path d="M60 350H560" stroke="#181818" stroke-miterlimit="400"/>
<path d="M70 60V360" stroke="#181818" stroke-miterlimit="400"/>
<path d="M80 60V360" stroke="#181818" stroke-miterlimit="400"/>
<path d="M90 60V360" stroke="#181818" stroke-miterlimit="400"/>
<path d="M100 60V360" stroke="#181818" stroke-miterlimit="400"/>
<path d="M120 60V360" stroke="#181818" stroke-miterlimit="400"/>
<path d="M130 60V360" stroke="#181818" stroke-miterlimit="400"/>
<path d="M140 60V360" stroke="#181818" stroke-miterlimit="400"/>
<path d="M150 60V360" stroke="#181818" stroke-miterlimit="400"/>
<path d="M170 60V360" stroke="#181818" stroke-miterlimit="400"/>
<path d="M180 60V360" stroke="#181818" stroke-miterlimit="400"/>
<path d="M190 60V360" stroke="#181818" stroke-miterlimit="400"/>
<path d="M200 60V360" stroke="#181818" stroke-miterlimit="400"/>
<path d="M220 60V360" stroke="#181818" stroke-miterlimit="400"/>
<path d="M230 60V360" stroke="#181818" stroke-miterlimit="400"/>
<path d="M240 60V360" stroke="#181818" stroke-miterlimit="400"/>
<path d="M250 60V360" stroke="#181818" stroke-miterlimit="400"/>
<path d="M270 60V360" stroke="#181818" stroke-miterlimit="400"/>
<path d="M280 60V360" stroke="#181818" stroke-miterlimit="400"/>
<path d="M290 60V360" stroke="#181818" stroke-miterlimit="400"/>
<path d="M300 60V360" stroke="#181818" stroke-miterlimit="400"/>
<path d="M320 60V360" stroke="#181818" stroke-miterlimit="400"/>
<path d="M330 60V360" stroke="#181818" stroke-miterlimit="400"/>
<path d="M340 60V360" stroke="#181818" stroke-miterlimit="400"/>
<path d="M350 60V360" stroke="#181818" stroke-miterlimit="400"/>
<path d="M370 60V360" stroke="#181818" stroke-miterlimit="400"/>
<path d="M380 60V360" stroke="#181818" stroke-miterlimit="400"/>
<path d="M390 60V360" stroke="#181818" stroke-miterlimit="400"/>
<path d="M400 60V360" stroke="#181818" stroke-miterlimit="400"/>
<path d="M420 60V360" stroke="#181818" stroke-miterlimit="400"/>
<path d="M430 60V360" stroke="#181818" stroke-miterlimit="400"/>
<path d="M440 60V360" stroke="#181818" stroke-miterlimit="400"/>
<path d="M450 60V360" stroke="#181818" stroke-miterlimit="400"/>
<path d="M470 60V360" stroke="#181818" stroke-miterlimit="400"/>
<path d="M480 60V360" stroke="#181818" stroke-miterlimit="400"/>
<path d="M490 60V360" stroke="#181818" stroke-miterlimit="400"/>
<path d="M500 60V360" stroke="#181818" stroke-miterlimit="400"/>
<path d="M520 60V360" stroke="#181818" stroke-miterlimit="400"/>
<path d="M530 60V360" stroke="#181818" stroke-miterlimit="400"/>
<path d="M540 60V360" stroke="#181818" stroke-miterlimit="400"/>
<path d="M550 60V360" stroke="#181818" stroke-miterlimit="400"/>
<path d="M60 110H560" stroke="#262626" stroke-miterlimit="400"/>
<path d="M60 210H560" stroke="#262626" stroke-miterlimit="400"/>
<path d="M60 310H560" stroke="#262626" stroke-miterlimit="400"/>
<path d="M110 60V360" stroke="#262626" stroke-miterlimit="400"/>
<path d="M210 60V360" stroke="#262626" stroke-miterlimit="400"/>
<path d="M310 60V360" stroke="#262626" stroke-miterlimit="400"/>
<path d="M410 60V360" stroke="#262626" stroke-miterlimit="400"/>
<path d="M510 60V360" stroke="#262626" stroke-miterlimit="400"/>
<path d="M60 60H560" stroke="#404040" stroke-miterlimit="400"/>
<path d="M60 160H560" stroke="#404040" stroke-miterlimit="400"/>
<path d="M60 260H560" stroke="#404040" stroke-miterlimit="400"/>
<path d="M60 360H560" stroke="#404040" stroke-miterlimit="400"/>
<path d="M60 60V360" stroke="#404040" stroke-miterlimit="400"/>
<path d="M160 60V360" stroke="#404040" stroke-miterlimit="400"/>
<path d="M260 60V360" stroke="#404040" stroke-miterlimit="400"/>
<path d="M360 60V360" stroke="#404040" stroke-miterlimit="400"/>
<path d="M460 60V360" stroke="#404040" stroke-miterlimit="400"/>
<path d="M560 60V360" stroke="#404040" stroke-miterlimit="400"/>
<path d="M60 260C199.696 -159.462 339.892 594.356 479.581 60" stroke="white" stroke-miterlimit="400"/>
<path d="M60 360H560" stroke="#F0F0F0" stroke-miterlimit="400"/>
<path d="M60 60V360" stroke="#F0F0F0" stroke-miterlimit="400"/>
<path d="M360 260C399.001 259.941 423.86 213.585 438.333 182.617C456.162 143.279 468.546 101.677 479.581 60" stroke="#58C4DD" stroke-width="1.5" stroke-miterlimit="480"/>
<path d="M160 126.667C227.308 127.029 292.688 259.635 360 260" stroke="#FC6255" stroke-width="1.5" stroke-miterlimit="480"/>
<path d="M60 260C69.4733 231.86 80.1708 203.872 95 178.071C109.069 154.176 129.57 126.836 160 126.667" stroke="#58C4DD" stroke-width="1.5" stroke-miterlimit="480"/>
<g clip-path="url(#clip1_675_31801)">
<path d="M192.411 43.027C192.438 43.027 192.478 43.0406 192.533 43.0677C192.587 43.0949 192.662 43.1152 192.757 43.1288C192.852 43.1424 192.933 43.1492 193.001 43.1492C193.177 43.1492 193.34 43.0609 193.49 42.8845C193.639 42.708 193.748 42.5112 193.815 42.294C193.951 41.9275 194.182 40.8891 194.508 39.1788C194.833 37.4685 195.146 35.8396 195.444 34.2922C195.743 32.7448 195.892 31.9643 195.892 31.9507V31.8896H194.935C194.297 31.8896 193.958 31.8761 193.917 31.8489C193.863 31.8082 193.836 31.7403 193.836 31.6453L193.978 31.0752C194.005 31.0073 194.06 30.9734 194.141 30.9734C194.223 30.9734 194.542 30.9666 195.098 30.953C195.75 30.953 196.075 30.9463 196.075 30.9327C196.075 30.9055 196.137 30.5662 196.259 29.9146C196.381 29.2631 196.462 28.8695 196.503 28.7337C197.005 26.494 197.996 25.3742 199.476 25.3742C199.978 25.4013 200.392 25.5506 200.718 25.8221C201.044 26.0936 201.206 26.4533 201.206 26.9012C201.206 27.3899 201.064 27.7428 200.779 27.96C200.494 28.1772 200.209 28.2926 199.924 28.3061C199.326 28.3061 199.028 28.0211 199.028 27.451C199.028 27.1931 199.102 26.9691 199.252 26.7791C199.401 26.589 199.564 26.4465 199.74 26.3515L199.924 26.2497C199.706 26.1683 199.503 26.1275 199.313 26.1275C199.15 26.1275 198.994 26.1954 198.845 26.3311C198.695 26.4669 198.593 26.6569 198.539 26.9012C198.444 27.2949 198.336 27.8243 198.213 28.4894C198.091 29.1545 197.983 29.7178 197.888 30.1793C197.793 30.6408 197.745 30.8852 197.745 30.9123C197.745 30.9395 198.118 30.953 198.865 30.953C199.476 30.953 199.829 30.9598 199.924 30.9734C200.019 30.987 200.093 31.0277 200.148 31.0956C200.161 31.1499 200.148 31.2652 200.107 31.4417C200.066 31.6182 200.032 31.7268 200.005 31.7675C199.978 31.8353 199.917 31.8693 199.822 31.8693C199.727 31.8693 199.36 31.8761 198.722 31.8896H197.582L197.114 34.3737C196.462 37.74 196.008 39.8439 195.75 40.6855C195.383 41.8393 194.908 42.6945 194.324 43.251C193.822 43.6853 193.327 43.9025 192.838 43.9025C192.404 43.9025 192.01 43.7736 191.657 43.5157C191.304 43.2578 191.128 42.8913 191.128 42.4162C191.128 41.914 191.27 41.5475 191.555 41.3167C191.84 41.0859 192.125 40.9706 192.411 40.9706C193.008 40.9706 193.306 41.2556 193.306 41.8257C193.306 42.0836 193.232 42.3076 193.082 42.4976C192.933 42.6877 192.77 42.8302 192.594 42.9252L192.411 43.027Z" fill="white"/>
<path d="M203.12 34.6383C203.12 33.7018 203.188 32.8127 203.324 31.9711C203.46 31.1295 203.616 30.4033 203.792 29.7925C203.969 29.1817 204.22 28.5844 204.546 28.0007C204.871 27.417 205.129 26.9623 205.319 26.6365C205.509 26.3108 205.794 25.9579 206.174 25.5778C206.554 25.1977 206.778 24.967 206.846 24.8855C206.914 24.8041 207.084 24.6615 207.355 24.4579H207.62H207.701C207.892 24.4579 207.987 24.519 207.987 24.6412C207.987 24.6819 207.871 24.8244 207.64 25.0688C207.41 25.3131 207.131 25.6728 206.806 26.1479C206.48 26.623 206.147 27.2067 205.808 27.8989C205.469 28.5912 205.184 29.5278 204.953 30.7087C204.722 31.8896 204.607 33.1995 204.607 34.6383C204.607 36.0772 204.722 37.3803 204.953 38.5476C205.184 39.715 205.462 40.6584 205.788 41.3778C206.113 42.0972 206.446 42.6809 206.785 43.1288C207.125 43.5767 207.41 43.9365 207.64 44.2079C207.871 44.4794 207.987 44.6219 207.987 44.6355C207.987 44.7577 207.885 44.8188 207.681 44.8188H207.62H207.355L206.785 44.3301C205.509 43.1763 204.579 41.7375 203.996 40.0136C203.412 38.2897 203.12 36.498 203.12 34.6383Z" fill="white"/>
<path d="M210.186 33.8443C210.281 33.2742 210.647 32.6158 211.285 31.8693C211.923 31.1227 212.71 30.7426 213.647 30.7291C214.122 30.7291 214.556 30.8512 214.95 31.0956C215.344 31.3399 215.635 31.6453 215.825 32.0118C216.396 31.1566 217.081 30.7291 217.882 30.7291C218.384 30.7291 218.819 30.8784 219.185 31.177C219.552 31.4756 219.742 31.8761 219.755 32.3783C219.755 32.7719 219.66 33.0909 219.47 33.3352C219.28 33.5796 219.097 33.7289 218.92 33.7832C218.744 33.8375 218.588 33.8646 218.452 33.8646C218.194 33.8646 217.984 33.79 217.821 33.6407C217.658 33.4913 217.577 33.2945 217.577 33.0502C217.577 32.4258 217.916 31.9982 218.595 31.7675C218.445 31.591 218.174 31.5028 217.78 31.5028C217.604 31.5028 217.475 31.5163 217.393 31.5435C216.877 31.7607 216.497 32.2086 216.253 32.8873C215.439 35.8871 215.031 37.6382 215.031 38.1404C215.031 38.5205 215.14 38.7919 215.357 38.9548C215.574 39.1177 215.812 39.1992 216.07 39.1992C216.572 39.1992 217.068 38.9752 217.556 38.5273C218.045 38.0793 218.377 37.5296 218.554 36.878C218.595 36.7423 218.635 36.6676 218.676 36.6541C218.717 36.6405 218.825 36.6269 219.002 36.6133H219.083C219.287 36.6133 219.389 36.6676 219.389 36.7762C219.389 36.7898 219.375 36.8645 219.348 37.0002C219.131 37.7739 218.71 38.4594 218.086 39.0566C217.461 39.6539 216.735 39.9525 215.907 39.9525C214.957 39.9525 214.237 39.5249 213.749 38.6698C213.192 39.5114 212.554 39.9322 211.835 39.9322H211.713C211.047 39.9322 210.572 39.7557 210.287 39.4028C210.002 39.0499 209.853 38.6766 209.839 38.2829C209.839 37.8486 209.968 37.4956 210.226 37.2242C210.484 36.9527 210.79 36.8169 211.143 36.8169C211.726 36.8169 212.018 37.102 212.018 37.6721C212.018 37.9436 211.937 38.1811 211.774 38.3847C211.611 38.5883 211.455 38.7241 211.305 38.7919C211.156 38.8598 211.068 38.8938 211.041 38.8938L210.98 38.9141C210.98 38.9277 211.02 38.9548 211.102 38.9956C211.183 39.0363 211.292 39.0838 211.428 39.1381C211.563 39.1924 211.692 39.2127 211.814 39.1992C212.303 39.1992 212.724 38.8938 213.077 38.2829C213.199 38.0657 213.355 37.6042 213.545 36.8984C213.735 36.1926 213.925 35.4596 214.115 34.6994C214.305 33.9393 214.414 33.4913 214.441 33.3556C214.509 32.9891 214.543 32.7244 214.543 32.5615C214.543 32.1815 214.441 31.91 214.237 31.7471C214.034 31.5842 213.803 31.5028 213.545 31.5028C213.002 31.5028 212.493 31.72 212.018 32.1543C211.543 32.5887 211.21 33.1452 211.02 33.8239C210.993 33.9461 210.959 34.0139 210.919 34.0275C210.878 34.0411 210.769 34.0547 210.593 34.0682H210.308C210.226 33.9868 210.186 33.9121 210.186 33.8443Z" fill="white"/>
<path d="M221.995 24.4783L222.076 24.4579C222.144 24.4579 222.212 24.4579 222.28 24.4579H222.524L223.094 24.9466C224.37 26.1004 225.3 27.5392 225.884 29.2631C226.467 30.987 226.759 32.7787 226.759 34.6383C226.759 35.5614 226.691 36.4505 226.556 37.3056C226.42 38.1608 226.264 38.887 226.087 39.4842C225.911 40.0815 225.66 40.6787 225.334 41.276C225.008 41.8732 224.75 42.3279 224.56 42.6401C224.37 42.9523 224.092 43.2985 223.725 43.6786C223.359 44.0586 223.142 44.2826 223.074 44.3505C223.006 44.4183 222.85 44.5473 222.606 44.7373C222.565 44.778 222.538 44.8052 222.524 44.8188H222.28C222.171 44.8188 222.097 44.8188 222.056 44.8188C222.015 44.8188 221.981 44.7984 221.954 44.7577C221.927 44.717 221.907 44.6559 221.893 44.5744C221.907 44.5609 221.981 44.4726 222.117 44.3097C224.221 42.1243 225.273 38.9005 225.273 34.6383C225.273 30.3762 224.221 27.1524 222.117 24.967C221.981 24.8041 221.907 24.7158 221.893 24.7023C221.893 24.5937 221.927 24.519 221.995 24.4783Z" fill="white"/>
<path d="M235.49 32.6634C235.49 32.4869 235.585 32.3512 235.775 32.2561H248.745C248.948 32.3647 249.05 32.5005 249.05 32.6634C249.05 32.8127 248.955 32.9416 248.765 33.0502L242.29 33.0706H235.816C235.599 33.0027 235.49 32.867 235.49 32.6634ZM235.49 36.6134C235.49 36.4097 235.599 36.274 235.816 36.2061H248.765C248.955 36.3419 249.05 36.4776 249.05 36.6134C249.05 36.7898 248.948 36.9256 248.745 37.0206H235.775C235.585 36.9256 235.49 36.7898 235.49 36.6134Z" fill="white"/>
<path d="M261.385 20.0804C261.48 19.5103 261.846 18.8519 262.484 18.1054C263.122 17.3588 263.91 16.9787 264.846 16.9651C265.321 16.9651 265.756 17.0873 266.149 17.3316C266.543 17.576 266.835 17.8814 267.025 18.2479C267.595 17.3927 268.28 16.9651 269.081 16.9651C269.583 16.9651 270.018 17.1145 270.384 17.4131C270.751 17.7117 270.941 18.1121 270.954 18.6144C270.954 19.008 270.859 19.327 270.669 19.5713C270.479 19.8157 270.296 19.965 270.12 20.0193C269.943 20.0736 269.787 20.1007 269.651 20.1007C269.393 20.1007 269.183 20.0261 269.02 19.8767C268.857 19.7274 268.776 19.5306 268.776 19.2863C268.776 18.6619 269.115 18.2343 269.794 18.0036C269.645 17.8271 269.373 17.7389 268.979 17.7389C268.803 17.7389 268.674 17.7524 268.593 17.7796C268.077 17.9968 267.697 18.4447 267.452 19.1234C266.638 22.1232 266.231 23.8743 266.231 24.3765C266.231 24.7566 266.339 25.028 266.556 25.1909C266.774 25.3538 267.011 25.4352 267.269 25.4352C267.771 25.4352 268.267 25.2113 268.755 24.7633C269.244 24.3154 269.577 23.7657 269.753 23.1141C269.794 22.9784 269.835 22.9037 269.875 22.8901C269.916 22.8766 270.025 22.863 270.201 22.8494H270.283C270.486 22.8494 270.588 22.9037 270.588 23.0123C270.588 23.0259 270.574 23.1005 270.547 23.2363C270.33 24.01 269.909 24.6955 269.285 25.2927C268.66 25.89 267.934 26.1886 267.106 26.1886C266.156 26.1886 265.437 25.761 264.948 24.9059C264.391 25.7474 263.753 26.1682 263.034 26.1682H262.912C262.247 26.1682 261.772 25.9918 261.487 25.6389C261.202 25.2859 261.052 24.9127 261.039 24.519C261.039 24.0846 261.168 23.7317 261.426 23.4602C261.683 23.1888 261.989 23.053 262.342 23.053C262.925 23.053 263.217 23.3381 263.217 23.9082C263.217 24.1797 263.136 24.4172 262.973 24.6208C262.81 24.8244 262.654 24.9602 262.505 25.028C262.355 25.0959 262.267 25.1298 262.24 25.1298L262.179 25.1502C262.179 25.1638 262.22 25.1909 262.301 25.2316C262.383 25.2724 262.491 25.3199 262.627 25.3742C262.763 25.4285 262.892 25.4488 263.014 25.4352C263.502 25.4352 263.923 25.1298 264.276 24.519C264.398 24.3018 264.554 23.8403 264.744 23.1345C264.934 22.4286 265.124 21.6956 265.314 20.9355C265.505 20.1754 265.613 19.7274 265.64 19.5917C265.708 19.2252 265.742 18.9605 265.742 18.7976C265.742 18.4176 265.64 18.1461 265.437 17.9832C265.233 17.8203 265.002 17.7389 264.744 17.7389C264.201 17.7389 263.692 17.956 263.217 18.3904C262.742 18.8248 262.41 19.3813 262.22 20.06C262.192 20.1822 262.159 20.25 262.118 20.2636C262.077 20.2772 261.969 20.2907 261.792 20.3043H261.507C261.426 20.2229 261.385 20.1482 261.385 20.0804Z" fill="white"/>
<path d="M274.473 11.9087C274.213 11.9087 274.012 11.8272 273.868 11.664C273.724 11.5009 273.647 11.2897 273.638 11.0306C273.638 10.5028 273.868 10.0326 274.329 9.61991C274.789 9.20725 275.346 9.00092 275.998 9.00092C276.334 9.00092 276.545 9.00572 276.632 9.01531C277.342 9.13048 277.884 9.38479 278.258 9.77825C278.633 10.1717 278.825 10.5988 278.834 11.0594C278.834 11.5584 278.671 12.0431 278.345 12.5133C278.019 12.9836 277.567 13.3242 276.992 13.5354L276.949 13.5642C276.949 13.5738 276.992 13.5882 277.078 13.6073C277.164 13.6265 277.304 13.6697 277.496 13.7369C277.687 13.8041 277.87 13.9048 278.043 14.0392C278.829 14.5478 279.223 15.2196 279.223 16.0545C279.223 16.8127 278.925 17.4748 278.33 18.041C277.735 18.6072 276.982 18.8904 276.07 18.8904C275.303 18.8904 274.64 18.684 274.084 18.2714C273.527 17.8587 273.249 17.3357 273.249 16.7023C273.249 16.4336 273.335 16.2177 273.508 16.0545C273.681 15.8914 273.897 15.805 274.156 15.7954C274.425 15.7954 274.645 15.8818 274.818 16.0545C274.991 16.2273 275.077 16.4432 275.077 16.7023C275.077 16.8079 275.063 16.9038 275.034 16.9902C275.005 17.0766 274.972 17.1533 274.933 17.2205C274.895 17.2877 274.842 17.3453 274.775 17.3933C274.708 17.4412 274.65 17.4796 274.602 17.5084C274.554 17.5372 274.506 17.5564 274.458 17.566C274.41 17.5756 274.372 17.59 274.343 17.6092L274.285 17.6236C274.775 18.0554 275.37 18.2714 276.07 18.2714C276.598 18.2714 276.996 18.017 277.265 17.5084C277.428 17.1917 277.51 16.7071 277.51 16.0545V15.7666C277.51 14.8549 277.203 14.2455 276.589 13.9384C276.445 13.8809 276.152 13.8473 275.711 13.8377L275.106 13.8233L275.063 13.7945C275.044 13.7657 275.034 13.6889 275.034 13.5642C275.034 13.3914 275.072 13.3051 275.149 13.3051C275.418 13.3051 275.696 13.2811 275.984 13.2331C276.31 13.1851 276.608 12.9836 276.877 12.6285C277.145 12.2734 277.28 11.736 277.28 11.0162V10.9011C277.28 10.3541 277.112 9.97499 276.776 9.76386C276.565 9.62951 276.339 9.56233 276.099 9.56233C275.792 9.56233 275.509 9.61511 275.25 9.72067C274.991 9.82624 274.808 9.9366 274.703 10.0518C274.597 10.1669 274.545 10.2245 274.545 10.2245H274.588C274.616 10.2341 274.655 10.2437 274.703 10.2533C274.751 10.2629 274.799 10.2869 274.847 10.3253C274.895 10.3637 274.952 10.3972 275.02 10.426C275.087 10.4548 275.135 10.5076 275.164 10.5844C275.192 10.6612 275.231 10.7331 275.279 10.8003C275.327 10.8675 275.341 10.9635 275.322 11.0882C275.322 11.2993 275.255 11.4865 275.12 11.6496C274.986 11.8128 274.77 11.8991 274.473 11.9087Z" fill="white"/>
<path d="M268.09 44.269C267.723 44.269 267.438 44.1536 267.234 43.9229C267.031 43.6921 266.922 43.3935 266.909 43.027C266.909 42.2804 267.234 41.6153 267.886 41.0316C268.538 40.448 269.325 40.1561 270.248 40.1561C270.723 40.1561 271.022 40.1629 271.144 40.1765C272.148 40.3394 272.915 40.6991 273.445 41.2556C273.974 41.8121 274.245 42.4162 274.259 43.0677C274.259 43.7736 274.028 44.4591 273.567 45.1242C273.105 45.7893 272.467 46.2712 271.653 46.5698L271.592 46.6105C271.592 46.6241 271.653 46.6444 271.775 46.6716C271.897 46.6987 272.094 46.7598 272.365 46.8548C272.637 46.9499 272.895 47.0924 273.139 47.2824C274.252 48.0018 274.809 48.952 274.809 50.1329C274.809 51.2053 274.388 52.1419 273.546 52.9427C272.705 53.7436 271.639 54.144 270.35 54.144C269.264 54.144 268.327 53.8522 267.54 53.2685C266.753 52.6848 266.359 51.945 266.359 51.0492C266.359 50.6691 266.481 50.3637 266.725 50.1329C266.97 49.9022 267.275 49.78 267.642 49.7664C268.022 49.7664 268.334 49.8886 268.578 50.1329C268.823 50.3773 268.945 50.6827 268.945 51.0492C268.945 51.1985 268.924 51.3342 268.884 51.4564C268.843 51.5785 268.795 51.6871 268.741 51.7822C268.687 51.8772 268.612 51.9586 268.517 52.0265C268.422 52.0944 268.341 52.1487 268.273 52.1894C268.205 52.2301 268.137 52.2572 268.069 52.2708C268.001 52.2844 267.947 52.3048 267.906 52.3319L267.825 52.3523C268.517 52.9631 269.359 53.2685 270.35 53.2685C271.096 53.2685 271.66 52.9088 272.04 52.1894C272.27 51.7414 272.386 51.056 272.386 50.1329V49.7257C272.386 48.4362 271.951 47.5743 271.083 47.1399C270.879 47.0584 270.465 47.0109 269.841 46.9974L268.985 46.977L268.924 46.9363C268.897 46.8956 268.884 46.787 268.884 46.6105C268.884 46.3662 268.938 46.244 269.047 46.244C269.427 46.244 269.82 46.2101 270.228 46.1422C270.689 46.0743 271.11 45.7893 271.49 45.2871C271.87 44.7848 272.06 44.0247 272.06 43.0066V42.8438C272.06 42.07 271.822 41.5339 271.347 41.2353C271.049 41.0452 270.73 40.9502 270.39 40.9502C269.956 40.9502 269.556 41.0249 269.189 41.1742C268.823 41.3235 268.565 41.4796 268.415 41.6425C268.266 41.8054 268.191 41.8868 268.191 41.8868H268.253C268.293 41.9004 268.348 41.9139 268.415 41.9275C268.483 41.9411 268.551 41.975 268.619 42.0293C268.687 42.0836 268.768 42.1311 268.863 42.1719C268.958 42.2126 269.026 42.2872 269.067 42.3958C269.108 42.5044 269.162 42.6062 269.23 42.7012C269.298 42.7963 269.318 42.932 269.291 43.1085C269.291 43.4071 269.196 43.6718 269.006 43.9025C268.816 44.1333 268.51 44.2554 268.09 44.269Z" fill="white"/>
<path d="M282.898 35.2492H258.29V34.0275H282.898V35.2492Z" fill="white"/>
<path d="M291.574 34.903C291.574 34.903 291.574 34.8148 291.574 34.6383C291.574 34.4619 291.669 34.3261 291.859 34.2311H303.688C303.892 34.3397 303.994 34.4755 303.994 34.6383C303.994 34.8012 303.892 34.937 303.688 35.0456H291.859C291.669 34.9505 291.574 34.8148 291.574 34.6383V34.903Z" fill="white"/>
<path d="M312.45 30.9938C312.083 30.9938 311.791 30.8716 311.574 30.6273C311.357 30.3829 311.248 30.0843 311.248 29.7314C311.248 28.7676 311.608 27.9328 312.328 27.227C313.047 26.5212 313.943 26.1682 315.015 26.1682C316.25 26.1682 317.282 26.5483 318.11 27.3084C318.938 28.0686 319.359 29.0527 319.372 30.2608C319.372 30.8444 319.237 31.401 318.965 31.9304C318.694 32.4597 318.368 32.9212 317.988 33.3149C317.608 33.7085 317.065 34.2108 316.359 34.8216C315.87 35.2424 315.192 35.8668 314.323 36.6948L313.122 37.835L314.669 37.8554C316.8 37.8554 317.934 37.8214 318.069 37.7535C318.164 37.7264 318.327 37.1224 318.558 35.9414V35.8804H319.372V35.9414C319.359 35.9822 319.271 36.5998 319.108 37.7943C318.945 38.9888 318.843 39.6132 318.802 39.6675V39.7285H311.248V39.3417V39.0974C311.248 39.0023 311.289 38.9005 311.371 38.7919C311.452 38.6834 311.656 38.4458 311.981 38.0793C312.375 37.645 312.714 37.2649 313 36.9391C313.122 36.8034 313.352 36.5523 313.692 36.1858C314.031 35.8193 314.262 35.5682 314.384 35.4324C314.506 35.2967 314.703 35.0727 314.975 34.7605C315.246 34.4483 315.436 34.2176 315.545 34.0682C315.653 33.9189 315.809 33.7153 316.013 33.4574C316.217 33.1995 316.359 32.9823 316.44 32.8059C316.522 32.6294 316.624 32.4326 316.746 32.2154C316.868 31.9982 316.956 31.781 317.011 31.5639C317.065 31.3467 317.112 31.1431 317.153 30.953C317.194 30.763 317.214 30.539 317.214 30.2811C317.214 29.426 316.983 28.6862 316.522 28.0618C316.06 27.4374 315.402 27.1252 314.547 27.1252C314.099 27.1252 313.705 27.2406 313.366 27.4713C313.027 27.7021 312.789 27.9261 312.653 28.1432C312.518 28.3604 312.45 28.4894 312.45 28.5301C312.45 28.5437 312.484 28.5505 312.552 28.5505C312.796 28.5505 313.047 28.6455 313.305 28.8355C313.563 29.0255 313.692 29.3377 313.692 29.7721C313.692 30.1115 313.583 30.3965 313.366 30.6273C313.149 30.858 312.843 30.9802 312.45 30.9938Z" fill="white"/>
<path d="M321.47 33.8443C321.565 33.2742 321.931 32.6158 322.569 31.8693C323.207 31.1227 323.994 30.7426 324.931 30.7291C325.406 30.7291 325.84 30.8512 326.234 31.0956C326.628 31.3399 326.92 31.6453 327.11 32.0118C327.68 31.1566 328.365 30.7291 329.166 30.7291C329.668 30.7291 330.103 30.8784 330.469 31.177C330.836 31.4756 331.026 31.8761 331.039 32.3783C331.039 32.7719 330.944 33.0909 330.754 33.3352C330.564 33.5796 330.381 33.7289 330.204 33.7832C330.028 33.8375 329.872 33.8646 329.736 33.8646C329.478 33.8646 329.268 33.79 329.105 33.6407C328.942 33.4913 328.861 33.2945 328.861 33.0502C328.861 32.4258 329.2 31.9982 329.879 31.7675C329.729 31.591 329.458 31.5028 329.064 31.5028C328.888 31.5028 328.759 31.5163 328.677 31.5435C328.162 31.7607 327.781 32.2086 327.537 32.8873C326.723 35.8871 326.315 37.6382 326.315 38.1404C326.315 38.5205 326.424 38.7919 326.641 38.9548C326.858 39.1177 327.096 39.1992 327.354 39.1992C327.856 39.1992 328.352 38.9752 328.84 38.5273C329.329 38.0793 329.661 37.5296 329.838 36.878C329.879 36.7423 329.919 36.6676 329.96 36.6541C330.001 36.6405 330.109 36.6269 330.286 36.6133H330.367C330.571 36.6133 330.673 36.6676 330.673 36.7762C330.673 36.7898 330.659 36.8645 330.632 37.0002C330.415 37.7739 329.994 38.4594 329.37 39.0566C328.745 39.6539 328.019 39.9525 327.191 39.9525C326.241 39.9525 325.521 39.5249 325.033 38.6698C324.476 39.5114 323.838 39.9322 323.119 39.9322H322.997C322.332 39.9322 321.856 39.7557 321.571 39.4028C321.286 39.0499 321.137 38.6766 321.123 38.2829C321.123 37.8486 321.252 37.4956 321.51 37.2242C321.768 36.9527 322.074 36.8169 322.427 36.8169C323.01 36.8169 323.302 37.102 323.302 37.6721C323.302 37.9436 323.221 38.1811 323.058 38.3847C322.895 38.5883 322.739 38.7241 322.589 38.7919C322.44 38.8598 322.352 38.8938 322.325 38.8938L322.264 38.9141C322.264 38.9277 322.304 38.9548 322.386 38.9956C322.467 39.0363 322.576 39.0838 322.712 39.1381C322.847 39.1924 322.976 39.2127 323.098 39.1992C323.587 39.1992 324.008 38.8938 324.361 38.2829C324.483 38.0657 324.639 37.6042 324.829 36.8984C325.019 36.1926 325.209 35.4596 325.399 34.6994C325.589 33.9393 325.698 33.4913 325.725 33.3556C325.793 32.9891 325.827 32.7244 325.827 32.5615C325.827 32.1815 325.725 31.91 325.521 31.7471C325.318 31.5842 325.087 31.5028 324.829 31.5028C324.286 31.5028 323.777 31.72 323.302 32.1543C322.827 32.5887 322.494 33.1452 322.304 33.8239C322.277 33.9461 322.243 34.0139 322.203 34.0275C322.162 34.0411 322.053 34.0547 321.877 34.0682H321.592C321.51 33.9868 321.47 33.9121 321.47 33.8443Z" fill="white"/>
<path d="M334.298 25.144C334.039 25.144 333.833 25.0577 333.679 24.8849C333.526 24.7122 333.449 24.501 333.449 24.2515C333.449 23.5702 333.703 22.98 334.212 22.4809C334.72 21.9819 335.354 21.7324 336.112 21.7324C336.985 21.7324 337.715 22.0011 338.3 22.5385C338.885 23.0759 339.183 23.7717 339.193 24.6258C339.193 25.0385 339.097 25.4319 338.905 25.8062C338.713 26.1805 338.482 26.5068 338.214 26.7851C337.945 27.0634 337.561 27.4184 337.062 27.8503C336.717 28.1478 336.237 28.5892 335.623 29.1746L334.773 29.9808L335.867 29.9952C337.374 29.9952 338.175 29.9712 338.271 29.9232C338.338 29.904 338.454 29.4769 338.617 28.642V28.5988H339.193V28.642C339.183 28.6708 339.121 29.1075 339.005 29.952C338.89 30.7965 338.818 31.2379 338.789 31.2763V31.3195H333.449V31.046V30.8733C333.449 30.8061 333.478 30.7341 333.535 30.6573C333.593 30.5806 333.737 30.4126 333.967 30.1535C334.245 29.8464 334.485 29.5777 334.687 29.3474C334.773 29.2514 334.936 29.0739 335.176 28.8148C335.416 28.5557 335.579 28.3781 335.666 28.2822C335.752 28.1862 335.891 28.0278 336.083 27.8071C336.275 27.5864 336.41 27.4232 336.486 27.3177C336.563 27.2121 336.673 27.0682 336.817 26.8858C336.961 26.7035 337.062 26.5499 337.12 26.4252C337.177 26.3004 337.249 26.1613 337.336 26.0077C337.422 25.8542 337.484 25.7006 337.523 25.5471C337.561 25.3935 337.595 25.2496 337.623 25.1152C337.652 24.9809 337.667 24.8225 337.667 24.6402C337.667 24.0356 337.504 23.5126 337.177 23.0711C336.851 22.6297 336.386 22.409 335.781 22.409C335.464 22.409 335.186 22.4905 334.946 22.6537C334.706 22.8168 334.538 22.9752 334.442 23.1287C334.346 23.2823 334.298 23.3734 334.298 23.4022C334.298 23.4118 334.322 23.4166 334.37 23.4166C334.543 23.4166 334.72 23.4838 334.903 23.6181C335.085 23.7525 335.176 23.9732 335.176 24.2803C335.176 24.5202 335.1 24.7218 334.946 24.8849C334.792 25.0481 334.577 25.1344 334.298 25.144Z" fill="white"/>
<path d="M346.609 34.903C346.609 34.903 346.609 34.8148 346.609 34.6383C346.609 34.4619 346.704 34.3261 346.894 34.2311H352.982V31.177L353.002 28.1229C353.138 27.9464 353.267 27.8582 353.389 27.8582C353.566 27.8582 353.701 27.96 353.796 28.1636V34.2311H359.864C360.068 34.3397 360.169 34.4755 360.169 34.6383C360.169 34.8012 360.068 34.937 359.864 35.0456H353.796V41.1131C353.688 41.3031 353.566 41.3981 353.43 41.3981H353.389H353.349C353.186 41.3981 353.064 41.3031 352.982 41.1131V35.0456H346.894C346.704 34.9505 346.609 34.8148 346.609 34.6383V34.903Z" fill="white"/>
<path d="M368.422 30.3015C368.055 30.3015 367.77 30.1861 367.566 29.9554C367.363 29.7246 367.254 29.426 367.241 29.0595C367.241 28.3129 367.566 27.6478 368.218 27.0641C368.87 26.4804 369.657 26.1886 370.58 26.1886C371.055 26.1886 371.354 26.1954 371.476 26.209C372.48 26.3718 373.247 26.7316 373.776 27.2881C374.306 27.8446 374.577 28.4487 374.591 29.1002C374.591 29.806 374.36 30.4915 373.899 31.1566C373.437 31.8218 372.799 32.3036 371.985 32.6023L371.924 32.643C371.924 32.6566 371.985 32.6769 372.107 32.7041C372.229 32.7312 372.426 32.7923 372.697 32.8873C372.969 32.9823 373.227 33.1249 373.471 33.3149C374.584 34.0343 375.141 34.9845 375.141 36.1654C375.141 37.2377 374.72 38.1743 373.878 38.9752C373.037 39.7761 371.971 40.1765 370.682 40.1765C369.596 40.1765 368.659 39.8846 367.872 39.301C367.085 38.7173 366.691 37.9775 366.691 37.0816C366.691 36.7016 366.813 36.3962 367.057 36.1654C367.302 35.9346 367.607 35.8125 367.974 35.7989C368.354 35.7989 368.666 35.9211 368.91 36.1654C369.155 36.4097 369.277 36.7151 369.277 37.0816C369.277 37.231 369.256 37.3667 369.216 37.4889C369.175 37.611 369.127 37.7196 369.073 37.8146C369.019 37.9096 368.944 37.9911 368.849 38.059C368.754 38.1268 368.673 38.1811 368.605 38.2218C368.537 38.2626 368.469 38.2897 368.401 38.3033C368.333 38.3169 368.279 38.3372 368.238 38.3644L368.157 38.3847C368.849 38.9956 369.691 39.301 370.682 39.301C371.428 39.301 371.992 38.9413 372.372 38.2218C372.602 37.7739 372.718 37.0884 372.718 36.1654V35.7582C372.718 34.4687 372.283 33.6067 371.415 33.1724C371.211 33.0909 370.797 33.0434 370.173 33.0298L369.317 33.0095L369.256 32.9688C369.229 32.928 369.216 32.8194 369.216 32.643C369.216 32.3987 369.27 32.2765 369.379 32.2765C369.759 32.2765 370.152 32.2426 370.559 32.1747C371.021 32.1068 371.442 31.8218 371.822 31.3195C372.202 30.8173 372.392 30.0572 372.392 29.0391V28.8762C372.392 28.1025 372.154 27.5664 371.679 27.2677C371.381 27.0777 371.062 26.9827 370.722 26.9827C370.288 26.9827 369.888 27.0573 369.521 27.2066C369.155 27.356 368.897 27.5121 368.747 27.6749C368.598 27.8378 368.523 27.9193 368.523 27.9193H368.584C368.625 27.9328 368.679 27.9464 368.747 27.96C368.815 27.9736 368.883 28.0075 368.951 28.0618C369.019 28.1161 369.1 28.1636 369.195 28.2043C369.29 28.245 369.358 28.3197 369.399 28.4283C369.44 28.5369 369.494 28.6387 369.562 28.7337C369.63 28.8287 369.65 28.9645 369.623 29.1409C369.623 29.4395 369.528 29.7042 369.338 29.935C369.148 30.1657 368.842 30.2879 368.422 30.3015Z" fill="white"/>
<path d="M377.075 33.8443C377.17 33.2742 377.537 32.6158 378.174 31.8693C378.812 31.1227 379.6 30.7426 380.536 30.7291C381.011 30.7291 381.446 30.8512 381.839 31.0956C382.233 31.3399 382.525 31.6453 382.715 32.0118C383.285 31.1566 383.971 30.7291 384.771 30.7291C385.274 30.7291 385.708 30.8784 386.074 31.177C386.441 31.4756 386.631 31.8761 386.645 32.3783C386.645 32.7719 386.55 33.0909 386.36 33.3352C386.17 33.5796 385.986 33.7289 385.81 33.7832C385.633 33.8375 385.477 33.8646 385.342 33.8646C385.084 33.8646 384.873 33.79 384.71 33.6407C384.547 33.4913 384.466 33.2945 384.466 33.0502C384.466 32.4258 384.805 31.9982 385.484 31.7675C385.335 31.591 385.063 31.5028 384.67 31.5028C384.493 31.5028 384.364 31.5163 384.283 31.5435C383.767 31.7607 383.387 32.2086 383.143 32.8873C382.328 35.8871 381.921 37.6382 381.921 38.1404C381.921 38.5205 382.029 38.7919 382.247 38.9548C382.464 39.1177 382.701 39.1992 382.959 39.1992C383.462 39.1992 383.957 38.9752 384.446 38.5273C384.934 38.0793 385.267 37.5296 385.443 36.878C385.484 36.7423 385.525 36.6676 385.565 36.6541C385.606 36.6405 385.715 36.6269 385.891 36.6133H385.973C386.176 36.6133 386.278 36.6676 386.278 36.7762C386.278 36.7898 386.265 36.8645 386.237 37.0002C386.02 37.7739 385.599 38.4594 384.975 39.0566C384.351 39.6539 383.624 39.9525 382.796 39.9525C381.846 39.9525 381.127 39.5249 380.638 38.6698C380.082 39.5114 379.444 39.9322 378.724 39.9322H378.602C377.937 39.9322 377.462 39.7557 377.177 39.4028C376.892 39.0499 376.742 38.6766 376.729 38.2829C376.729 37.8486 376.858 37.4956 377.116 37.2242C377.374 36.9527 377.679 36.8169 378.032 36.8169C378.616 36.8169 378.907 37.102 378.907 37.6721C378.907 37.9436 378.826 38.1811 378.663 38.3847C378.5 38.5883 378.344 38.7241 378.195 38.7919C378.046 38.8598 377.957 38.8938 377.93 38.8938L377.869 38.9141C377.869 38.9277 377.91 38.9548 377.991 38.9956C378.073 39.0363 378.181 39.0838 378.317 39.1381C378.453 39.1924 378.582 39.2127 378.704 39.1992C379.193 39.1992 379.613 38.8938 379.966 38.2829C380.088 38.0657 380.245 37.6042 380.435 36.8984C380.625 36.1926 380.815 35.4596 381.005 34.6994C381.195 33.9393 381.303 33.4913 381.33 33.3556C381.398 32.9891 381.432 32.7244 381.432 32.5615C381.432 32.1815 381.33 31.91 381.127 31.7471C380.923 31.5842 380.692 31.5028 380.435 31.5028C379.892 31.5028 379.383 31.72 378.907 32.1543C378.432 32.5887 378.1 33.1452 377.91 33.8239C377.883 33.9461 377.849 34.0139 377.808 34.0275C377.767 34.0411 377.659 34.0547 377.482 34.0682H377.197C377.116 33.9868 377.075 33.9121 377.075 33.8443Z" fill="white"/>
<path d="M393.327 34.903C393.327 34.903 393.327 34.8148 393.327 34.6383C393.327 34.4619 393.422 34.3261 393.612 34.2311H399.7V31.177L399.72 28.1229C399.856 27.9464 399.985 27.8582 400.107 27.8582C400.284 27.8582 400.419 27.96 400.514 28.1636V34.2311H406.582C406.786 34.3397 406.887 34.4755 406.887 34.6383C406.887 34.8012 406.786 34.937 406.582 35.0456H400.514V41.1131C400.406 41.3031 400.284 41.3981 400.148 41.3981H400.107H400.066C399.904 41.3981 399.781 41.3031 399.7 41.1131V35.0456H393.612C393.422 34.9505 393.327 34.8148 393.327 34.6383V34.903Z" fill="white"/>
<path d="M416.888 27.96L416.624 28.0618C416.434 28.1297 416.162 28.1975 415.809 28.2654C415.456 28.3333 415.063 28.3808 414.628 28.4079H414.242V27.4713H414.628C415.266 27.4442 415.857 27.3424 416.4 27.1659C416.943 26.9895 417.323 26.8266 417.54 26.6773C417.757 26.528 417.947 26.3786 418.11 26.2293C418.137 26.1886 418.219 26.1682 418.354 26.1682C418.477 26.1682 418.592 26.209 418.701 26.2904V32.3783L418.721 38.4865C418.816 38.5816 418.897 38.6426 418.965 38.6698C419.033 38.6969 419.196 38.7241 419.454 38.7512C419.712 38.7784 420.133 38.7919 420.716 38.7919H421.246V39.7285H421.022C420.737 39.6878 419.658 39.6675 417.784 39.6675C415.938 39.6675 414.873 39.6878 414.588 39.7285H414.343V38.7919H414.873C415.171 38.7919 415.429 38.7919 415.646 38.7919C415.864 38.7919 416.033 38.7852 416.155 38.7716C416.278 38.758 416.386 38.7377 416.481 38.7105C416.576 38.6834 416.631 38.6698 416.644 38.6698C416.658 38.6698 416.698 38.6358 416.766 38.568C416.834 38.5001 416.875 38.473 416.888 38.4865V27.96Z" fill="white"/>
</g>
<circle cx="160" cy="126.667" r="3.5" fill="#F0F0F0"/>
<circle cx="360" cy="260" r="3.5" fill="#F0F0F0"/>
</g>
<defs>
<clipPath id="clip0_675_31801">
<rect width="620" height="420" fill="white"/>
</clipPath>
<clipPath id="clip1_675_31801">
<rect width="232.74" height="45.144" fill="white" transform="translate(190 9)"/>
</clipPath>
</defs>
</svg>
