<svg width="640" height="300" viewBox="0 0 640 300" fill="none" xmlns="http://www.w3.org/2000/svg">
<rect width="640" height="300" fill="black"/>
<g clip-path="url(#clip0_722_1028)">
<path d="M307.092 130.525C307.112 130.525 307.845 130.474 309.291 130.373C310.736 130.271 311.479 130.21 311.52 130.189C311.765 130.189 311.887 130.271 311.887 130.434C311.887 130.576 311.143 133.651 309.657 139.657C308.171 145.664 307.407 148.728 307.367 148.85C307.326 148.972 307.316 149.125 307.336 149.308C307.336 150.163 307.621 150.591 308.191 150.591C308.374 150.571 308.578 150.479 308.802 150.316C309.23 149.909 309.647 148.932 310.054 147.384C310.176 146.977 310.278 146.763 310.36 146.743C310.4 146.722 310.502 146.712 310.665 146.712H310.787H310.909C311.215 146.712 311.367 146.794 311.367 146.957C311.367 147.058 311.337 147.221 311.276 147.445C311.011 148.463 310.706 149.288 310.36 149.919C310.013 150.55 309.728 150.957 309.504 151.141C309.28 151.324 308.995 151.487 308.649 151.629C308.486 151.67 308.242 151.69 307.916 151.69C307.224 151.69 306.644 151.538 306.175 151.232C305.707 150.927 305.402 150.611 305.259 150.286L305.076 149.827C305.056 149.807 305.015 149.817 304.954 149.858C304.913 149.899 304.872 149.939 304.832 149.98C303.63 151.12 302.409 151.69 301.167 151.69C300.047 151.69 299.059 151.283 298.204 150.469C297.349 149.654 296.921 148.361 296.921 146.59C296.921 145.613 297.125 144.615 297.532 143.597C297.939 142.579 298.428 141.703 298.998 140.97C299.955 139.81 300.912 139.006 301.869 138.558C302.826 138.11 303.691 137.886 304.465 137.886C305.605 137.886 306.46 138.313 307.031 139.168C307.132 139.291 307.183 139.331 307.183 139.291C307.204 139.209 307.479 138.1 308.008 135.962C308.537 133.824 308.822 132.694 308.863 132.572C308.863 132.307 308.792 132.144 308.649 132.083C308.507 132.022 308.11 131.971 307.458 131.93H306.817C306.695 131.808 306.634 131.727 306.634 131.686C306.634 131.645 306.654 131.452 306.695 131.106C306.796 130.719 306.929 130.525 307.092 130.525ZM306.664 141.429C306.196 139.82 305.432 139.016 304.373 139.016C303.661 139.016 302.979 139.331 302.327 139.963C301.676 140.594 301.167 141.418 300.8 142.436C300.21 144.045 299.792 145.714 299.548 147.445C299.548 147.506 299.548 147.618 299.548 147.781C299.548 147.944 299.538 148.066 299.517 148.148C299.517 149.064 299.701 149.695 300.067 150.041C300.434 150.387 300.871 150.571 301.38 150.591C302.48 150.591 303.61 149.858 304.771 148.392L305.015 148.056L306.664 141.429Z" fill="white"/>
<path d="M313.256 134.101C313.271 134.015 313.292 133.9 313.321 133.756C313.35 133.612 313.436 133.339 313.58 132.935C313.724 132.532 313.868 132.194 314.012 131.921C314.156 131.647 314.394 131.381 314.725 131.122C315.056 130.863 315.387 130.74 315.718 130.755C316.236 130.755 316.668 130.884 317.013 131.143C317.359 131.402 317.575 131.647 317.661 131.877C317.748 132.108 317.791 132.259 317.791 132.331C317.791 132.36 317.798 132.374 317.812 132.374L318.05 132.137C318.928 131.215 319.929 130.755 321.051 130.755C321.829 130.755 322.455 130.949 322.93 131.338C323.405 131.726 323.65 132.295 323.664 133.043C323.678 133.792 323.405 134.922 322.844 136.434C322.282 137.945 322.009 138.859 322.023 139.176C322.023 139.55 322.145 139.737 322.39 139.737C322.476 139.737 322.541 139.73 322.584 139.716C323.002 139.644 323.376 139.37 323.707 138.895C324.038 138.42 324.29 137.844 324.463 137.168C324.492 137.053 324.636 136.995 324.895 136.995C325.183 136.995 325.327 137.053 325.327 137.168C325.327 137.182 325.298 137.29 325.24 137.492C325.125 137.909 324.967 138.319 324.765 138.722C324.564 139.125 324.233 139.528 323.772 139.932C323.311 140.335 322.815 140.529 322.282 140.515C321.606 140.515 321.116 140.32 320.814 139.932C320.512 139.543 320.36 139.14 320.36 138.722C320.36 138.449 320.619 137.585 321.138 136.131C321.656 134.677 321.922 133.583 321.937 132.849C321.937 132 321.62 131.575 320.987 131.575H320.879C319.641 131.575 318.597 132.302 317.748 133.756L317.596 134.015L316.884 136.909C316.409 138.794 316.135 139.809 316.063 139.953C315.876 140.342 315.567 140.536 315.135 140.536C314.948 140.536 314.797 140.493 314.681 140.407C314.566 140.32 314.487 140.234 314.444 140.147C314.401 140.061 314.386 139.989 314.401 139.932C314.401 139.744 314.674 138.571 315.221 136.412C315.768 134.253 316.056 133.079 316.085 132.892C316.099 132.82 316.107 132.655 316.107 132.396C316.107 131.834 315.934 131.554 315.588 131.554C315.041 131.554 314.588 132.273 314.228 133.713C314.142 134.001 314.098 134.152 314.098 134.166C314.07 134.253 313.933 134.296 313.688 134.296H313.386C313.3 134.209 313.256 134.145 313.256 134.101Z" fill="#FFF933"/>
<path d="M330.893 156.333C330.933 156.333 330.994 156.353 331.076 156.394C331.157 156.435 331.269 156.465 331.412 156.485C331.554 156.506 331.676 156.516 331.778 156.516C332.043 156.516 332.287 156.384 332.511 156.119C332.735 155.854 332.898 155.559 333 155.233C333.204 154.683 333.55 153.126 334.038 150.56C334.527 147.995 334.995 145.552 335.443 143.23C335.891 140.909 336.115 139.739 336.115 139.718V139.627H334.68C333.723 139.627 333.214 139.606 333.153 139.565C333.071 139.504 333.03 139.403 333.03 139.26L333.244 138.405C333.285 138.303 333.366 138.252 333.489 138.252C333.611 138.252 334.089 138.242 334.924 138.222C335.901 138.222 336.39 138.211 336.39 138.191C336.39 138.15 336.482 137.641 336.665 136.664C336.848 135.687 336.97 135.096 337.031 134.893C337.785 131.533 339.271 129.853 341.49 129.853C342.244 129.894 342.865 130.118 343.353 130.525C343.842 130.932 344.086 131.472 344.086 132.144C344.086 132.877 343.873 133.406 343.445 133.732C343.018 134.058 342.59 134.231 342.162 134.251C341.266 134.251 340.819 133.824 340.819 132.969C340.819 132.582 340.931 132.246 341.154 131.961C341.378 131.676 341.623 131.462 341.887 131.319L342.162 131.167C341.837 131.044 341.531 130.983 341.246 130.983C341.002 130.983 340.768 131.085 340.544 131.289C340.32 131.492 340.167 131.777 340.086 132.144C339.943 132.734 339.78 133.528 339.597 134.526C339.414 135.524 339.251 136.369 339.108 137.061C338.966 137.753 338.894 138.12 338.894 138.161C338.894 138.201 339.454 138.222 340.574 138.222C341.49 138.222 342.02 138.232 342.162 138.252C342.305 138.273 342.417 138.334 342.498 138.435C342.519 138.517 342.498 138.69 342.437 138.955C342.376 139.219 342.325 139.382 342.285 139.443C342.244 139.545 342.152 139.596 342.01 139.596C341.867 139.596 341.317 139.606 340.36 139.627H338.65L337.948 143.353C336.97 148.402 336.288 151.558 335.901 152.82C335.352 154.551 334.639 155.834 333.763 156.669C333.01 157.32 332.267 157.646 331.534 157.646C330.882 157.646 330.292 157.453 329.763 157.066C329.233 156.679 328.968 156.129 328.968 155.416C328.968 154.663 329.182 154.113 329.61 153.767C330.037 153.421 330.465 153.248 330.893 153.248C331.788 153.248 332.236 153.676 332.236 154.531C332.236 154.918 332.124 155.254 331.9 155.539C331.676 155.824 331.432 156.037 331.167 156.18L330.893 156.333Z" fill="white"/>
<path d="M306.756 172.122C306.776 172.122 307.509 172.072 308.955 171.97C310.4 171.868 311.144 171.807 311.184 171.786C311.429 171.786 311.551 171.868 311.551 172.031C311.551 172.173 310.808 175.248 309.321 181.254C307.835 187.261 307.071 190.325 307.031 190.447C306.99 190.569 306.98 190.722 307 190.905C307 191.761 307.285 192.188 307.855 192.188C308.038 192.168 308.242 192.076 308.466 191.913C308.894 191.506 309.311 190.529 309.718 188.981C309.84 188.574 309.942 188.36 310.024 188.34C310.064 188.32 310.166 188.309 310.329 188.309H310.451H310.573C310.879 188.309 311.032 188.391 311.032 188.554C311.032 188.655 311.001 188.818 310.94 189.042C310.675 190.06 310.37 190.885 310.024 191.516C309.678 192.147 309.392 192.555 309.169 192.738C308.945 192.921 308.659 193.084 308.313 193.227C308.15 193.267 307.906 193.288 307.58 193.288C306.888 193.288 306.308 193.135 305.839 192.829C305.371 192.524 305.066 192.208 304.923 191.883L304.74 191.425C304.72 191.404 304.679 191.414 304.618 191.455C304.577 191.496 304.536 191.537 304.496 191.577C303.294 192.717 302.073 193.288 300.831 193.288C299.711 193.288 298.723 192.88 297.868 192.066C297.013 191.252 296.585 189.959 296.585 188.187C296.585 187.21 296.789 186.212 297.196 185.194C297.603 184.176 298.092 183.301 298.662 182.568C299.619 181.407 300.576 180.603 301.533 180.155C302.49 179.707 303.355 179.483 304.129 179.483C305.269 179.483 306.125 179.91 306.695 180.766C306.796 180.888 306.847 180.929 306.847 180.888C306.868 180.806 307.143 179.697 307.672 177.559C308.201 175.421 308.486 174.291 308.527 174.169C308.527 173.904 308.456 173.741 308.313 173.68C308.171 173.619 307.774 173.568 307.122 173.527H306.481C306.359 173.405 306.298 173.324 306.298 173.283C306.298 173.242 306.318 173.049 306.359 172.703C306.46 172.316 306.593 172.122 306.756 172.122ZM306.328 183.026C305.86 181.417 305.096 180.613 304.038 180.613C303.325 180.613 302.643 180.929 301.991 181.56C301.34 182.191 300.831 183.016 300.464 184.034C299.874 185.642 299.456 187.312 299.212 189.042C299.212 189.103 299.212 189.215 299.212 189.378C299.212 189.541 299.202 189.663 299.181 189.745C299.181 190.661 299.365 191.292 299.731 191.638C300.098 191.984 300.535 192.168 301.044 192.188C302.144 192.188 303.274 191.455 304.435 189.989L304.679 189.653L306.328 183.026Z" fill="white"/>
<path d="M313.047 184.156C313.19 183.301 313.74 182.313 314.696 181.193C315.653 180.074 316.834 179.503 318.239 179.483C318.952 179.483 319.603 179.666 320.194 180.033C320.784 180.399 321.222 180.857 321.507 181.407C322.362 180.124 323.391 179.483 324.592 179.483C325.345 179.483 325.997 179.707 326.547 180.155C327.096 180.603 327.381 181.204 327.402 181.957C327.402 182.547 327.259 183.026 326.974 183.392C326.689 183.759 326.414 183.983 326.15 184.064C325.885 184.146 325.651 184.186 325.447 184.186C325.06 184.186 324.745 184.074 324.5 183.851C324.256 183.627 324.134 183.331 324.134 182.965C324.134 182.028 324.643 181.387 325.661 181.041C325.437 180.776 325.03 180.644 324.439 180.644C324.174 180.644 323.981 180.664 323.859 180.705C323.085 181.031 322.515 181.702 322.149 182.72C320.927 187.22 320.316 189.847 320.316 190.6C320.316 191.17 320.479 191.578 320.805 191.822C321.131 192.066 321.487 192.188 321.874 192.188C322.627 192.188 323.37 191.852 324.103 191.18C324.836 190.509 325.335 189.684 325.6 188.707C325.661 188.503 325.722 188.391 325.783 188.371C325.844 188.35 326.007 188.33 326.272 188.31H326.394C326.699 188.31 326.852 188.391 326.852 188.554C326.852 188.574 326.832 188.686 326.791 188.89C326.465 190.05 325.834 191.079 324.897 191.975C323.961 192.87 322.871 193.318 321.629 193.318C320.204 193.318 319.125 192.677 318.392 191.394C317.557 192.657 316.6 193.288 315.521 193.288H315.338C314.34 193.288 313.628 193.023 313.2 192.494C312.772 191.964 312.548 191.404 312.528 190.814C312.528 190.162 312.721 189.633 313.108 189.226C313.495 188.819 313.953 188.615 314.483 188.615C315.358 188.615 315.796 189.043 315.796 189.898C315.796 190.305 315.674 190.661 315.429 190.967C315.185 191.272 314.951 191.476 314.727 191.578C314.503 191.679 314.371 191.73 314.33 191.73L314.238 191.761C314.238 191.781 314.299 191.822 314.422 191.883C314.544 191.944 314.707 192.015 314.91 192.097C315.114 192.178 315.307 192.209 315.491 192.188C316.224 192.188 316.855 191.73 317.384 190.814C317.567 190.488 317.802 189.796 318.087 188.737C318.372 187.678 318.657 186.579 318.942 185.439C319.227 184.298 319.39 183.627 319.43 183.423C319.532 182.873 319.583 182.476 319.583 182.232C319.583 181.662 319.43 181.255 319.125 181.01C318.82 180.766 318.473 180.644 318.087 180.644C317.272 180.644 316.509 180.969 315.796 181.621C315.083 182.273 314.584 183.107 314.299 184.125C314.259 184.309 314.208 184.41 314.147 184.431C314.086 184.451 313.923 184.472 313.658 184.492H313.23C313.108 184.37 313.047 184.258 313.047 184.156Z" fill="white"/>
<path d="M330.39 177.959C330.404 177.873 330.426 177.757 330.455 177.613C330.484 177.469 330.57 177.196 330.714 176.793C330.858 176.39 331.002 176.052 331.146 175.778C331.29 175.505 331.527 175.238 331.858 174.979C332.189 174.72 332.521 174.598 332.852 174.612C333.37 174.612 333.802 174.742 334.147 175.001C334.493 175.26 334.709 175.505 334.795 175.735C334.881 175.965 334.925 176.116 334.925 176.188C334.925 176.217 334.932 176.231 334.946 176.231L335.184 175.994C336.062 175.073 337.062 174.612 338.185 174.612C338.962 174.612 339.589 174.806 340.064 175.195C340.539 175.584 340.783 176.152 340.798 176.901C340.812 177.649 340.539 178.779 339.977 180.291C339.416 181.802 339.142 182.717 339.157 183.033C339.157 183.407 339.279 183.595 339.524 183.595C339.61 183.595 339.675 183.587 339.718 183.573C340.136 183.501 340.51 183.228 340.841 182.753C341.172 182.277 341.424 181.702 341.597 181.025C341.626 180.91 341.769 180.852 342.029 180.852C342.316 180.852 342.46 180.91 342.46 181.025C342.46 181.039 342.432 181.147 342.374 181.349C342.259 181.766 342.101 182.177 341.899 182.58C341.697 182.983 341.366 183.386 340.906 183.789C340.445 184.192 339.948 184.386 339.416 184.372C338.739 184.372 338.25 184.178 337.948 183.789C337.645 183.4 337.494 182.997 337.494 182.58C337.494 182.306 337.753 181.443 338.271 179.989C338.79 178.535 339.056 177.441 339.07 176.707C339.07 175.857 338.754 175.433 338.12 175.433H338.012C336.774 175.433 335.731 176.16 334.881 177.613L334.73 177.873L334.018 180.766C333.543 182.652 333.269 183.667 333.197 183.811C333.01 184.199 332.701 184.394 332.269 184.394C332.082 184.394 331.93 184.35 331.815 184.264C331.7 184.178 331.621 184.091 331.578 184.005C331.534 183.919 331.52 183.847 331.534 183.789C331.534 183.602 331.808 182.429 332.355 180.269C332.902 178.11 333.19 176.937 333.219 176.75C333.233 176.678 333.24 176.512 333.24 176.253C333.24 175.692 333.068 175.411 332.722 175.411C332.175 175.411 331.722 176.131 331.362 177.57C331.275 177.858 331.232 178.009 331.232 178.024C331.203 178.11 331.067 178.153 330.822 178.153H330.52C330.433 178.067 330.39 178.002 330.39 177.959Z" fill="#FFF933"/>
<path d="M347.477 165.312H292.523V163.48H347.477V165.312Z" fill="white"/>
</g>
<path d="M47.8608 50.6234C46.3208 50.6234 45.3708 49.8534 45.2808 47.9834C45.2108 46.6034 45.4408 44.6034 45.7508 42.7834L44.8908 42.8334C44.4808 42.8534 44.1408 42.6934 44.1408 42.2734C44.1408 41.9334 44.4008 41.7334 44.8608 41.6534C45.0608 41.6234 45.4608 41.5734 45.9808 41.5234C46.1408 40.6934 46.3108 39.9534 46.4608 39.4034C46.5808 38.9734 46.7908 38.7134 47.1808 38.7134C47.5308 38.7134 47.8508 38.9934 47.6908 39.7034C47.5908 40.1534 47.4608 40.7434 47.3408 41.4034C48.4508 41.3234 49.5408 41.2934 49.9208 41.2934C50.3808 41.2934 50.6108 41.5134 50.6108 41.8334C50.6108 42.0534 50.5108 42.3334 50.0408 42.3934C49.5208 42.4634 48.4708 42.5534 47.1108 42.6634C46.8108 44.4734 46.5508 46.5134 46.6308 47.8234C46.7008 49.0234 47.0608 49.4634 47.9708 49.4634C48.3508 49.4634 48.9008 49.3334 49.5108 49.0834C49.8708 48.9334 50.0908 49.1534 50.0908 49.4234C50.0908 49.6234 50.0308 49.7834 49.9008 49.9034C49.4208 50.3534 48.6908 50.6234 47.8608 50.6234ZM59.7759 50.9934C59.6259 50.9934 59.4659 50.9534 59.2759 50.8634C58.6059 50.5334 58.3859 49.8334 58.3859 49.0834C58.3859 48.3434 58.6259 47.3334 58.8559 46.2534C59.0659 45.2734 59.2759 44.2334 59.2759 43.4534C59.2759 42.6634 59.0059 42.3434 58.4959 42.3434C57.6959 42.3434 56.5859 43.4534 55.5559 44.8134C54.6559 45.9934 53.8859 47.3734 53.2859 48.8034C53.2959 50.1834 52.9559 50.7034 52.4059 50.7034C52.0159 50.7034 51.7759 50.3634 51.7759 49.7334C51.7759 49.4434 51.8159 49.1034 51.9259 48.7134C52.1359 47.0234 52.3659 45.2334 52.5859 43.3934C52.8359 41.2634 53.0959 39.0534 53.3559 36.9434C53.4059 36.5434 53.7059 36.3334 54.0059 36.3334C54.3459 36.3334 54.6859 36.6034 54.6359 37.1534C54.4759 39.0134 54.2859 40.8434 54.0259 42.7334C53.8659 43.8934 53.6859 45.0334 53.4759 46.1634C53.9459 45.1934 54.4759 44.3034 55.0759 43.5134C56.1959 42.0234 57.4759 41.0034 58.7259 41.0034C59.9859 41.0034 60.6059 41.8634 60.6059 43.2734C60.6059 44.2234 60.3659 45.3634 60.1259 46.4234C59.8959 47.4234 59.6959 48.3234 59.6959 48.9034C59.6959 49.3534 59.8259 49.6534 60.2059 49.9934C60.3359 50.1134 60.3959 50.2634 60.3959 50.4134C60.3959 50.7134 60.1659 50.9934 59.7759 50.9934ZM66.1034 50.6434C63.5834 50.6434 62.0934 48.7034 62.8334 45.4034C63.3934 42.8934 65.1834 41.1534 67.4734 41.1534C69.5034 41.1534 70.7434 42.1534 70.4834 43.8434C70.2134 45.5734 68.3534 46.3834 66.5034 46.3834C65.6334 46.3834 64.7434 46.2634 64.0434 46.0534C63.6134 48.3134 64.5634 49.4834 66.1034 49.4834C66.9434 49.4834 67.8634 49.1834 68.5434 48.6334C69.1034 48.1834 69.4834 48.9534 69.1434 49.3634C68.4134 50.2434 67.3934 50.6434 66.1034 50.6434ZM66.2234 45.2834C67.7034 45.2834 68.9834 44.7634 69.1234 43.7234C69.2434 42.8434 68.6434 42.3234 67.5234 42.3234C66.1234 42.3234 64.8934 43.3334 64.3034 45.0634C64.9034 45.2034 65.6334 45.2834 66.2234 45.2834ZM77.3033 50.6634C77.1166 50.6634 76.9566 50.61 76.8233 50.5034C76.6899 50.41 76.6233 50.2767 76.6233 50.1034C76.6233 49.93 76.8766 48.8434 77.3833 46.8434C77.8899 44.8434 78.1566 43.7567 78.1833 43.5834C78.1966 43.5167 78.2033 43.3634 78.2033 43.1234C78.2033 42.6034 78.0433 42.3434 77.7233 42.3434C77.4166 42.3434 77.1366 42.59 76.8833 43.0834C76.7366 43.3634 76.5966 43.7834 76.4633 44.3434C76.3833 44.61 76.3433 44.75 76.3433 44.7634C76.3166 44.8434 76.1899 44.8834 75.9633 44.8834H75.6833C75.6033 44.8034 75.5633 44.7434 75.5633 44.7034C75.5633 44.65 75.5966 44.51 75.6633 44.2834C76.0633 42.71 76.6766 41.83 77.5033 41.6434C77.6099 41.6167 77.7233 41.6034 77.8433 41.6034C78.6299 41.6034 79.1966 41.9034 79.5433 42.5034C79.6899 42.7567 79.7633 42.9434 79.7633 43.0634C79.7633 43.09 79.7699 43.1034 79.7833 43.1034L80.0033 42.8834C80.8299 42.03 81.7566 41.6034 82.7833 41.6034C83.5166 41.6034 84.1033 41.7834 84.5433 42.1434C84.9833 42.5034 85.2033 43.03 85.2033 43.7234C85.2033 44.03 85.1833 44.2834 85.1433 44.4834C85.0099 45.2434 84.6433 46.41 84.0433 47.9834C83.8033 48.6234 83.6833 49.0967 83.6833 49.4034C83.6833 49.75 83.7966 49.9234 84.0233 49.9234C84.4766 49.9234 84.8633 49.6834 85.1833 49.2034C85.5166 48.7234 85.7699 48.17 85.9433 47.5434C85.9699 47.4367 86.1033 47.3834 86.3433 47.3834C86.6099 47.3834 86.7433 47.43 86.7433 47.5234C86.7433 47.6167 86.7166 47.7234 86.6633 47.8434C86.3166 49.0834 85.6899 49.9567 84.7833 50.4634C84.5433 50.5834 84.2566 50.6434 83.9233 50.6434C83.4166 50.6434 82.9833 50.4834 82.6233 50.1634C82.3033 49.79 82.1433 49.3967 82.1433 48.9834C82.1433 48.73 82.2366 48.3567 82.4233 47.8634C83.0099 46.3034 83.3833 45.1167 83.5433 44.3034C83.5833 44.1034 83.6033 43.85 83.6033 43.5434C83.6033 42.7567 83.2766 42.3634 82.6233 42.3634C82.3833 42.3634 82.2099 42.3767 82.1033 42.4034C81.1699 42.6034 80.3766 43.2634 79.7233 44.3834L79.5833 44.6234L78.9233 47.3034C78.4833 49.05 78.2299 49.99 78.1633 50.1234C77.9899 50.4834 77.7033 50.6634 77.3033 50.6634ZM88.5454 46.3234C88.0654 46.3234 87.8054 46.0634 87.8054 45.7234C87.8054 45.4534 87.9854 45.1934 88.3754 45.1434C89.0354 45.0634 90.9554 44.9734 92.2654 44.9734C92.5254 44.9734 92.7554 44.9734 92.9554 44.9834C93.3454 45.0034 93.5254 45.2434 93.5254 45.5034C93.5254 45.7334 93.3954 45.9834 93.0754 46.0234C92.5254 46.0934 91.6154 46.1734 90.7354 46.2234C89.8054 46.2734 88.9254 46.3234 88.5454 46.3234ZM98.4662 50.6234C96.9262 50.6234 95.9762 49.8534 95.8862 47.9834C95.8162 46.6034 96.0462 44.6034 96.3562 42.7834L95.4962 42.8334C95.0862 42.8534 94.7462 42.6934 94.7462 42.2734C94.7462 41.9334 95.0062 41.7334 95.4662 41.6534C95.6662 41.6234 96.0662 41.5734 96.5862 41.5234C96.7462 40.6934 96.9162 39.9534 97.0662 39.4034C97.1862 38.9734 97.3962 38.7134 97.7862 38.7134C98.1362 38.7134 98.4562 38.9934 98.2962 39.7034C98.1962 40.1534 98.0662 40.7434 97.9462 41.4034C99.0562 41.3234 100.146 41.2934 100.526 41.2934C100.986 41.2934 101.216 41.5134 101.216 41.8334C101.216 42.0534 101.116 42.3334 100.646 42.3934C100.126 42.4634 99.0762 42.5534 97.7162 42.6634C97.4162 44.4734 97.1562 46.5134 97.2362 47.8234C97.3062 49.0234 97.6662 49.4634 98.5762 49.4634C98.9562 49.4634 99.5062 49.3334 100.116 49.0834C100.476 48.9334 100.696 49.1534 100.696 49.4234C100.696 49.6234 100.636 49.7834 100.506 49.9034C100.026 50.3534 99.2962 50.6234 98.4662 50.6234ZM110.381 50.9934C110.231 50.9934 110.071 50.9534 109.881 50.8634C109.211 50.5334 108.991 49.8334 108.991 49.0834C108.991 48.3434 109.231 47.3334 109.461 46.2534C109.671 45.2734 109.881 44.2334 109.881 43.4534C109.881 42.6634 109.611 42.3434 109.101 42.3434C108.301 42.3434 107.191 43.4534 106.161 44.8134C105.261 45.9934 104.491 47.3734 103.891 48.8034C103.901 50.1834 103.561 50.7034 103.011 50.7034C102.621 50.7034 102.381 50.3634 102.381 49.7334C102.381 49.4434 102.421 49.1034 102.531 48.7134C102.741 47.0234 102.971 45.2334 103.191 43.3934C103.441 41.2634 103.701 39.0534 103.961 36.9434C104.011 36.5434 104.311 36.3334 104.611 36.3334C104.951 36.3334 105.291 36.6034 105.241 37.1534C105.081 39.0134 104.891 40.8434 104.631 42.7334C104.471 43.8934 104.291 45.0334 104.081 46.1634C104.551 45.1934 105.081 44.3034 105.681 43.5134C106.801 42.0234 108.081 41.0034 109.331 41.0034C110.591 41.0034 111.211 41.8634 111.211 43.2734C111.211 44.2234 110.971 45.3634 110.731 46.4234C110.501 47.4234 110.301 48.3234 110.301 48.9034C110.301 49.3534 110.431 49.6534 110.811 49.9934C110.941 50.1134 111.001 50.2634 111.001 50.4134C111.001 50.7134 110.771 50.9934 110.381 50.9934ZM120.48 50.7934C118.19 50.7934 116.98 48.9634 117.32 45.8334C117.68 42.5634 119.72 41.1234 121.67 41.1234C122.66 41.1234 123.07 41.5334 123.14 41.8034C124.76 42.4534 125.52 44.5234 124.78 47.1134C124.21 49.1234 122.55 50.7934 120.48 50.7934ZM120.53 49.6134C121.79 49.6134 123.12 48.4834 123.57 46.6234C124.13 44.2934 123.31 42.7434 121.89 42.5634C121.69 42.5334 121.59 42.4234 121.59 42.2534C120.23 42.2934 118.96 43.4634 118.66 45.9534C118.37 48.3634 119.05 49.6134 120.53 49.6134ZM127.544 50.4134C127.224 50.4134 126.914 50.1934 126.914 49.5334C126.914 49.3134 126.974 49.0434 127.024 48.7234C127.384 46.4134 127.704 44.1134 128.004 41.6734C128.064 41.2034 128.354 41.0434 128.684 41.0434C129.054 41.0434 129.374 41.2834 129.314 41.7834C129.184 42.7934 129.044 43.8034 128.904 44.6634C129.134 44.2034 129.384 43.7734 129.644 43.3834C130.564 42.0334 131.674 41.1634 132.854 41.1634C133.374 41.1634 133.864 41.3534 134.184 41.6534C134.664 42.0934 134.324 42.9934 133.674 42.7434C133.394 42.6334 133.104 42.4634 132.724 42.4634C131.894 42.4634 131.014 43.1734 130.184 44.3934C129.504 45.3934 128.754 47.0834 128.324 48.9434C128.324 50.0734 127.954 50.4134 127.544 50.4134ZM143.027 50.5434C142.517 50.5434 141.877 50.2534 141.567 49.5634C141.377 49.1434 141.257 48.5334 141.217 47.7834C141.197 47.4434 141.197 47.1034 141.197 46.7634C140.057 49.7534 138.667 50.5334 137.217 50.5334C135.507 50.5334 134.007 48.9734 134.637 45.9134C135.227 43.0334 137.567 41.2334 139.737 41.2334C140.367 41.2334 140.997 41.3634 141.507 41.5534C141.657 40.7434 141.797 39.9234 141.907 39.1734C142.157 36.9534 142.457 36.4134 143.007 36.4134C143.347 36.4134 143.607 36.5934 143.607 37.3334C143.607 37.8834 143.467 38.7434 143.097 40.0734C142.737 42.5234 142.347 44.9834 142.447 47.1634C142.477 47.8834 142.517 48.5434 142.657 49.0334C143.207 49.5134 143.677 49.7134 143.677 49.9934C143.677 50.3734 143.367 50.5434 143.027 50.5434ZM137.437 49.3634C138.717 49.3634 140.027 47.9434 141.207 43.1634L141.317 42.6034C140.907 42.4334 140.437 42.3134 139.927 42.3134C137.897 42.3134 136.347 44.1234 135.967 46.0534C135.547 48.1934 136.347 49.3634 137.437 49.3634ZM148.795 50.7334C146.075 50.7334 144.475 48.1134 145.305 45.0134C145.955 42.6034 147.965 40.9934 149.935 40.9934C151.705 40.9934 152.695 42.0634 152.605 43.5034C152.495 45.3034 150.635 46.5034 147.335 46.5034C147.025 46.5034 146.705 46.4934 146.375 46.4734C146.315 48.2534 147.295 49.5734 148.865 49.5734C149.705 49.5734 150.745 49.2934 151.415 48.6234C151.945 48.0934 152.615 48.6834 152.195 49.2734C151.395 50.4134 149.855 50.7334 148.795 50.7334ZM147.005 45.5034C149.675 45.5034 151.175 44.6434 151.255 43.5034C151.315 42.7134 150.755 42.1634 149.885 42.1634C148.465 42.1634 146.995 43.4134 146.515 45.4934C146.685 45.5034 146.845 45.5034 147.005 45.5034ZM155.181 50.5134C154.881 50.5134 154.601 50.3734 154.601 49.6134C154.601 49.3634 154.631 49.0434 154.701 48.6334C154.841 47.7034 154.971 46.8634 155.101 45.6934C155.181 44.9434 155.341 43.5734 155.391 41.9534C155.411 41.4134 155.621 41.0834 156.091 41.0834C156.501 41.0834 156.691 41.3134 156.701 41.7134C156.721 42.3534 156.651 43.1734 156.501 44.1334C156.651 43.7534 156.801 43.4234 156.971 43.1234C157.691 41.8734 158.531 41.1634 159.801 41.1634C160.301 41.1634 160.681 41.2534 160.971 41.4634C161.241 41.6634 161.401 41.9334 161.401 42.1834C161.401 42.5934 161.101 42.8334 160.761 42.8334C160.411 42.8334 160.171 42.6134 160.171 42.3234C159.041 42.3234 158.151 42.9834 157.351 44.4834C156.831 45.4534 156.381 46.7934 155.991 48.8234C155.881 50.2734 155.601 50.5134 155.181 50.5134ZM174.44 50.6934C174.27 50.6934 174.13 50.6534 173.98 50.6034C173.18 50.3234 172.44 49.4034 172.44 47.1734C172.44 46.9934 172.44 46.8034 172.45 46.6034C172.29 46.9634 172.12 47.3034 171.96 47.6034C170.91 49.5434 169.84 50.3834 168.57 50.3834C166.83 50.3834 165.64 48.4134 166.27 45.7234C166.86 43.2134 168.72 41.4334 170.68 41.4334C171.56 41.4334 172.26 41.6834 172.86 42.0934C173.17 40.3734 173.49 38.7134 173.94 37.0634C174.04 36.6934 174.34 36.5234 174.63 36.5234C174.99 36.5234 175.34 36.8034 175.29 37.3234C175.12 38.9734 174.62 41.0334 174.09 42.9334C173.8 44.6634 173.69 46.0334 173.69 47.0334C173.69 48.5734 174.1 49.3334 174.68 49.6034C174.96 49.7334 175.08 49.9334 175.08 50.1434C175.08 50.4234 174.84 50.6934 174.44 50.6934ZM168.75 49.2034C169.54 49.2034 170.32 48.3534 171.07 46.9034C171.56 45.9534 172.08 44.7534 172.57 43.2234C172.05 42.8434 171.42 42.5634 170.76 42.5634C169.36 42.5634 168.03 44.0134 167.57 46.0334C167.18 47.7234 167.68 49.2034 168.75 49.2034ZM179.892 50.6434C177.372 50.6434 175.882 48.7034 176.622 45.4034C177.182 42.8934 178.972 41.1534 181.262 41.1534C183.292 41.1534 184.532 42.1534 184.272 43.8434C184.002 45.5734 182.142 46.3834 180.292 46.3834C179.422 46.3834 178.532 46.2634 177.832 46.0534C177.402 48.3134 178.352 49.4834 179.892 49.4834C180.732 49.4834 181.652 49.1834 182.332 48.6334C182.892 48.1834 183.272 48.9534 182.932 49.3634C182.202 50.2434 181.182 50.6434 179.892 50.6434ZM180.012 45.2834C181.492 45.2834 182.772 44.7634 182.912 43.7234C183.032 42.8434 182.432 42.3234 181.312 42.3234C179.912 42.3234 178.682 43.3334 178.092 45.0634C178.692 45.2034 179.422 45.2834 180.012 45.2834ZM186.411 50.4134C186.091 50.4134 185.781 50.1934 185.781 49.5334C185.781 49.3134 185.841 49.0434 185.891 48.7234C186.251 46.4134 186.571 44.1134 186.871 41.6734C186.931 41.2034 187.221 41.0434 187.551 41.0434C187.921 41.0434 188.241 41.2834 188.181 41.7834C188.051 42.7934 187.911 43.8034 187.771 44.6634C188.001 44.2034 188.251 43.7734 188.511 43.3834C189.431 42.0334 190.541 41.1634 191.721 41.1634C192.241 41.1634 192.731 41.3534 193.051 41.6534C193.531 42.0934 193.191 42.9934 192.541 42.7434C192.261 42.6334 191.971 42.4634 191.591 42.4634C190.761 42.4634 189.881 43.1734 189.051 44.3934C188.371 45.3934 187.621 47.0834 187.191 48.9434C187.191 50.0734 186.821 50.4134 186.411 50.4134ZM194.923 50.6534C194.563 50.6534 194.243 50.4634 194.243 49.9334C194.243 49.0034 194.433 47.2734 194.573 45.6934C194.703 44.2434 194.823 42.7934 194.893 41.7734C194.933 41.1734 195.183 40.9934 195.543 40.9934C195.993 40.9934 196.203 41.3034 196.203 41.6734C196.193 42.6134 196.023 44.2534 195.893 45.7334C195.773 47.1434 195.573 48.6034 195.513 49.7734C195.623 50.3334 195.323 50.6534 194.923 50.6534ZM195.723 39.1334C195.223 39.1334 194.753 38.7834 194.753 38.3634C194.753 37.7934 195.243 37.4434 195.843 37.4434C196.423 37.4434 196.763 37.7934 196.763 38.3134C196.763 38.8234 196.253 39.1334 195.723 39.1334ZM200.934 50.8334C200.544 50.8334 200.264 50.6834 200.214 50.1234C199.774 48.9134 199.444 47.5934 199.144 46.0334C198.824 44.3834 198.634 43.2534 198.484 42.1734C198.404 41.6134 198.604 41.2334 199.084 41.2334C199.424 41.2334 199.754 41.3534 199.834 41.9334C199.974 42.9834 200.184 44.1734 200.464 45.7534C200.694 47.0634 200.934 48.3334 201.244 49.3334C201.874 48.6534 202.584 47.6734 203.214 46.5734C204.154 44.9234 204.814 43.3734 205.154 41.8734C205.264 41.3834 205.514 41.1234 205.934 41.1234C206.574 41.1234 206.584 41.7234 206.504 42.0934C206.174 43.7034 205.324 45.5134 204.324 47.2034C203.424 48.7234 202.554 49.7534 201.964 50.2934C201.594 50.6234 201.324 50.8334 200.934 50.8334ZM209.669 50.5034C208.029 50.5034 207.149 49.3334 207.299 47.3834C207.509 44.7234 209.449 41.2334 212.649 41.2334C213.359 41.2334 214.079 41.4134 214.569 41.6434C214.669 41.5834 214.779 41.5534 214.899 41.5534C215.279 41.5534 215.479 41.7534 215.479 42.3134C215.479 42.8234 215.309 43.6334 214.939 44.8734C214.739 45.9434 214.689 46.9234 214.689 47.6234C214.689 48.1334 214.699 48.7234 214.869 49.0434C214.999 49.2934 215.229 49.3034 215.489 49.4734C215.939 49.7734 215.659 50.4934 214.999 50.4934C214.569 50.4934 214.069 50.1834 213.829 49.8234C213.589 49.4634 213.419 48.8234 213.419 47.9634C213.419 47.8034 213.429 47.6334 213.439 47.4634C212.249 49.7934 210.969 50.5034 209.669 50.5034ZM209.939 49.2934C210.999 49.2934 212.319 48.3334 213.779 44.1234C213.889 43.4634 213.989 42.9634 214.089 42.5934C213.669 42.4534 213.139 42.3334 212.629 42.3334C210.179 42.3334 208.809 45.3034 208.619 47.1434C208.489 48.4434 208.949 49.2934 209.939 49.2934ZM220.698 50.6234C219.668 50.6234 218.768 50.1334 218.478 48.8834C218.098 47.2334 218.518 44.8434 218.888 42.9234C218.468 42.9334 218.078 42.9434 217.748 42.9434C217.228 42.9434 216.988 42.6634 216.988 42.3334C216.988 42.0534 217.198 41.7634 217.578 41.7434L219.128 41.6834C219.298 40.8434 219.478 40.0434 219.668 39.2534C219.758 38.8834 220.058 38.7034 220.358 38.7034C220.708 38.7034 221.038 38.9634 220.938 39.4634L220.508 41.6534C221.468 41.6234 222.468 41.6134 223.318 41.6034C223.758 41.5934 223.968 41.8834 223.968 42.1634C223.968 42.4434 223.768 42.7134 223.398 42.7334C222.378 42.7934 221.278 42.8434 220.258 42.8834C219.918 44.6034 219.438 47.1034 219.768 48.5434C219.918 49.2134 220.318 49.4634 220.828 49.4634C221.348 49.4634 221.948 49.1634 222.358 48.8834C223.018 48.4334 223.578 49.1734 222.998 49.7034C222.398 50.2534 221.508 50.6234 220.698 50.6234ZM227.195 50.6534C227.105 50.6534 227.005 50.6334 226.905 50.6034C225.835 50.2534 225.455 49.2334 225.455 47.8634C225.455 47.0034 225.555 45.9634 225.735 44.7534C225.915 43.5334 226.085 42.4134 226.165 41.4334C226.205 41.0034 226.525 40.7934 226.845 40.7934C227.205 40.7934 227.535 41.0234 227.505 41.5034C227.435 42.7134 227.205 43.8834 227.055 45.0534C226.915 46.1134 226.775 47.0534 226.775 47.8134C226.775 48.7134 226.945 49.3234 227.505 49.6134C227.735 49.7334 227.835 49.9134 227.835 50.0934C227.835 50.3734 227.585 50.6534 227.195 50.6534ZM227.285 39.0134C226.545 39.0134 226.125 38.6234 226.125 38.1434C226.125 37.6434 226.635 37.2334 227.235 37.2334C227.755 37.2334 227.945 37.4934 228.005 37.6834C228.165 37.7634 228.285 37.9434 228.285 38.2034C228.285 38.6534 227.905 39.0134 227.285 39.0134ZM232.223 50.8334C231.833 50.8334 231.553 50.6834 231.503 50.1234C231.063 48.9134 230.733 47.5934 230.433 46.0334C230.113 44.3834 229.923 43.2534 229.773 42.1734C229.693 41.6134 229.893 41.2334 230.373 41.2334C230.713 41.2334 231.043 41.3534 231.123 41.9334C231.263 42.9834 231.473 44.1734 231.753 45.7534C231.983 47.0634 232.223 48.3334 232.533 49.3334C233.163 48.6534 233.873 47.6734 234.503 46.5734C235.443 44.9234 236.103 43.3734 236.443 41.8734C236.553 41.3834 236.803 41.1234 237.223 41.1234C237.863 41.1234 237.873 41.7234 237.793 42.0934C237.463 43.7034 236.613 45.5134 235.613 47.2034C234.713 48.7234 233.843 49.7534 233.253 50.2934C232.883 50.6234 232.613 50.8334 232.223 50.8334ZM242.275 50.6434C239.755 50.6434 238.265 48.7034 239.005 45.4034C239.565 42.8934 241.355 41.1534 243.645 41.1534C245.675 41.1534 246.915 42.1534 246.655 43.8434C246.385 45.5734 244.525 46.3834 242.675 46.3834C241.805 46.3834 240.915 46.2634 240.215 46.0534C239.785 48.3134 240.735 49.4834 242.275 49.4834C243.115 49.4834 244.035 49.1834 244.715 48.6334C245.275 48.1834 245.655 48.9534 245.315 49.3634C244.585 50.2434 243.565 50.6434 242.275 50.6434ZM242.395 45.2834C243.875 45.2834 245.155 44.7634 245.295 43.7234C245.415 42.8434 244.815 42.3234 243.695 42.3234C242.295 42.3234 241.065 43.3334 240.475 45.0634C241.075 45.2034 241.805 45.2834 242.395 45.2834ZM255.285 50.7934C252.995 50.7934 251.785 48.9634 252.125 45.8334C252.485 42.5634 254.525 41.1234 256.475 41.1234C257.465 41.1234 257.875 41.5334 257.945 41.8034C259.565 42.4534 260.325 44.5234 259.585 47.1134C259.015 49.1234 257.355 50.7934 255.285 50.7934ZM255.335 49.6134C256.595 49.6134 257.925 48.4834 258.375 46.6234C258.935 44.2934 258.115 42.7434 256.695 42.5634C256.495 42.5334 256.395 42.4234 256.395 42.2534C255.035 42.2934 253.765 43.4634 253.465 45.9534C253.175 48.3634 253.855 49.6134 255.335 49.6134ZM263.141 50.6734C262.781 50.6734 262.501 50.4334 262.511 49.8434C262.531 48.1334 262.731 45.1934 263.051 42.6634L261.891 42.7734C261.451 42.8134 261.181 42.5534 261.181 42.1834C261.181 41.8634 261.351 41.6834 261.831 41.5734C262.221 41.4834 262.701 41.4034 263.241 41.3534C263.341 40.7234 263.441 40.1434 263.561 39.6434C264.101 37.3234 265.011 36.1934 266.611 36.1934C267.641 36.1934 268.331 36.7334 268.631 37.2634C268.771 37.5134 268.781 37.7534 268.671 37.9034C268.521 38.1134 268.231 38.1834 268.021 37.9734C267.731 37.6834 267.381 37.3634 266.731 37.3634C265.711 37.3634 265.121 38.1734 264.761 40.1434C264.691 40.5034 264.631 40.8834 264.571 41.2634C264.931 41.2534 265.281 41.2434 265.611 41.2434C266.161 41.2434 266.671 41.2634 267.101 41.2934C267.431 41.3134 267.631 41.5134 267.631 41.8134C267.631 42.0734 267.501 42.3634 267.031 42.3934C266.471 42.4234 265.401 42.4534 264.401 42.5434C264.061 45.2634 263.921 48.1034 263.821 49.8634C263.791 50.4334 263.551 50.6734 263.141 50.6734ZM275.79 50.6234C274.25 50.6234 273.3 49.8534 273.21 47.9834C273.14 46.6034 273.37 44.6034 273.68 42.7834L272.82 42.8334C272.41 42.8534 272.07 42.6934 272.07 42.2734C272.07 41.9334 272.33 41.7334 272.79 41.6534C272.99 41.6234 273.39 41.5734 273.91 41.5234C274.07 40.6934 274.24 39.9534 274.39 39.4034C274.51 38.9734 274.72 38.7134 275.11 38.7134C275.46 38.7134 275.78 38.9934 275.62 39.7034C275.52 40.1534 275.39 40.7434 275.27 41.4034C276.38 41.3234 277.47 41.2934 277.85 41.2934C278.31 41.2934 278.54 41.5134 278.54 41.8334C278.54 42.0534 278.44 42.3334 277.97 42.3934C277.45 42.4634 276.4 42.5534 275.04 42.6634C274.74 44.4734 274.48 46.5134 274.56 47.8234C274.63 49.0234 274.99 49.4634 275.9 49.4634C276.28 49.4634 276.83 49.3334 277.44 49.0834C277.8 48.9334 278.02 49.1534 278.02 49.4234C278.02 49.6234 277.96 49.7834 277.83 49.9034C277.35 50.3534 276.62 50.6234 275.79 50.6234ZM287.706 50.9934C287.556 50.9934 287.396 50.9534 287.206 50.8634C286.536 50.5334 286.316 49.8334 286.316 49.0834C286.316 48.3434 286.556 47.3334 286.786 46.2534C286.996 45.2734 287.206 44.2334 287.206 43.4534C287.206 42.6634 286.936 42.3434 286.426 42.3434C285.626 42.3434 284.516 43.4534 283.486 44.8134C282.586 45.9934 281.816 47.3734 281.216 48.8034C281.226 50.1834 280.886 50.7034 280.336 50.7034C279.946 50.7034 279.706 50.3634 279.706 49.7334C279.706 49.4434 279.746 49.1034 279.856 48.7134C280.066 47.0234 280.296 45.2334 280.516 43.3934C280.766 41.2634 281.026 39.0534 281.286 36.9434C281.336 36.5434 281.636 36.3334 281.936 36.3334C282.276 36.3334 282.616 36.6034 282.566 37.1534C282.406 39.0134 282.216 40.8434 281.956 42.7334C281.796 43.8934 281.616 45.0334 281.406 46.1634C281.876 45.1934 282.406 44.3034 283.006 43.5134C284.126 42.0234 285.406 41.0034 286.656 41.0034C287.916 41.0034 288.536 41.8634 288.536 43.2734C288.536 44.2234 288.296 45.3634 288.056 46.4234C287.826 47.4234 287.626 48.3234 287.626 48.9034C287.626 49.3534 287.756 49.6534 288.136 49.9934C288.266 50.1134 288.326 50.2634 288.326 50.4134C288.326 50.7134 288.096 50.9934 287.706 50.9934ZM294.033 50.6434C291.513 50.6434 290.023 48.7034 290.763 45.4034C291.323 42.8934 293.113 41.1534 295.403 41.1534C297.433 41.1534 298.673 42.1534 298.413 43.8434C298.143 45.5734 296.283 46.3834 294.433 46.3834C293.563 46.3834 292.673 46.2634 291.973 46.0534C291.543 48.3134 292.493 49.4834 294.033 49.4834C294.873 49.4834 295.793 49.1834 296.473 48.6334C297.033 48.1834 297.413 48.9534 297.073 49.3634C296.343 50.2434 295.323 50.6434 294.033 50.6434ZM294.153 45.2834C295.633 45.2834 296.913 44.7634 297.053 43.7234C297.173 42.8434 296.573 42.3234 295.453 42.3234C294.053 42.3234 292.823 43.3334 292.233 45.0634C292.833 45.2034 293.563 45.2834 294.153 45.2834ZM305.543 50.6734C305.183 50.6734 304.903 50.4334 304.913 49.8434C304.933 48.1334 305.133 45.1934 305.453 42.6634L304.293 42.7734C303.853 42.8134 303.583 42.5534 303.583 42.1834C303.583 41.8634 303.753 41.6834 304.233 41.5734C304.623 41.4834 305.103 41.4034 305.643 41.3534C305.743 40.7234 305.843 40.1434 305.963 39.6434C306.493 37.3734 307.543 36.2834 309.233 36.2834C310.573 36.2834 311.693 36.9434 312.173 37.6134C312.333 37.8334 312.313 38.0734 312.183 38.2534C312.063 38.4234 311.803 38.4834 311.543 38.2734C311.053 37.8834 310.253 37.4434 309.353 37.4434C308.243 37.4434 307.513 38.2234 307.163 40.1434C307.093 40.5034 307.033 40.8834 306.983 41.2634C307.343 41.2534 307.683 41.2434 308.013 41.2434C308.563 41.2434 309.073 41.2634 309.503 41.2934C309.833 41.3134 310.033 41.5134 310.033 41.8134C310.033 42.0734 309.903 42.3634 309.433 42.3934C308.873 42.4234 307.803 42.4534 306.803 42.5434C306.473 45.2634 306.323 48.1034 306.223 49.8634C306.193 50.4334 305.953 50.6734 305.543 50.6734ZM318.146 50.7234C317.646 50.7234 317.226 50.2734 317.116 49.2934C317.056 48.7334 317.056 47.8534 317.166 46.5934C316.846 47.4434 316.516 48.1334 316.176 48.6734C315.266 50.1434 314.336 50.7034 313.186 50.7034C311.536 50.7034 310.666 49.6334 310.666 47.8534C310.666 46.9934 310.806 45.8034 311.036 44.6534C311.246 43.6134 311.506 42.7134 311.726 41.9934C311.896 41.4434 312.146 41.2134 312.536 41.2134C313.006 41.2134 313.216 41.5534 313.116 41.9434C312.966 42.5034 312.656 43.4334 312.346 44.7634C312.056 46.0034 311.936 47.0534 311.936 47.7334C311.936 48.9234 312.456 49.5234 313.376 49.5234C314.136 49.5234 314.836 48.9434 315.676 47.4334C316.166 46.5634 316.746 45.3434 317.366 43.5034C317.606 41.6934 318.016 41.0134 318.506 41.0134C318.816 41.0134 319.046 41.1434 319.046 41.7234C319.046 42.1534 318.916 42.8234 318.616 43.8634C318.286 46.4734 318.226 48.1934 318.346 49.3734C318.716 49.7934 318.846 50.0734 318.776 50.3234C318.696 50.6034 318.436 50.7234 318.146 50.7234ZM329.371 50.4934C329.311 50.4934 329.251 50.4834 329.191 50.4734C328.231 50.2834 327.721 49.7134 327.721 48.3634C327.721 46.9434 328.091 45.3934 328.181 44.0134C328.241 43.1334 327.961 42.7434 327.561 42.7434C326.911 42.7434 325.801 43.7134 324.641 45.3934C323.811 46.5934 323.061 48.1634 322.501 49.7534C322.431 50.2334 322.171 50.4434 321.831 50.4434C321.521 50.4434 321.181 50.2734 321.181 49.8134C321.181 49.7234 321.191 49.6234 321.221 49.5034C321.431 48.1934 321.581 46.9434 321.741 45.6634C321.901 44.3834 322.031 43.0634 322.131 41.7134C322.171 41.2234 322.471 41.0034 322.791 41.0034C323.181 41.0034 323.491 41.2534 323.461 41.7334C323.391 42.7334 323.271 43.8234 323.141 44.9034C323.071 45.4434 322.991 46.0134 322.901 46.5834C323.331 45.6134 323.791 44.7434 324.281 44.0134C325.391 42.3534 326.581 41.3534 327.821 41.3534C328.951 41.3534 329.631 42.2634 329.521 44.0034C329.431 45.3934 329.051 46.9534 329.051 48.2734C329.051 49.0434 329.211 49.3134 329.641 49.4734C329.891 49.5634 330.001 49.7534 330.001 49.9434C330.001 50.2134 329.761 50.4934 329.371 50.4934ZM335.522 50.6634C333.062 50.6634 331.292 48.9534 331.852 45.7634C332.362 42.8434 334.372 41.2534 336.532 41.2534C337.632 41.2534 338.502 41.6134 339.002 42.1434C339.492 42.6634 339.192 43.2834 338.662 43.2834C338.352 43.2834 338.042 43.1034 337.762 42.6434C337.372 42.5034 336.942 42.4234 336.462 42.4234C335.012 42.4234 333.592 43.6934 333.192 45.8334C332.742 48.2334 333.892 49.4934 335.692 49.4934C336.512 49.4934 337.192 49.2734 337.952 48.8334C338.472 48.5334 338.692 49.3034 338.402 49.6234C337.892 50.1734 336.832 50.6634 335.522 50.6634ZM344.228 50.6234C342.688 50.6234 341.738 49.8534 341.648 47.9834C341.578 46.6034 341.808 44.6034 342.118 42.7834L341.258 42.8334C340.848 42.8534 340.508 42.6934 340.508 42.2734C340.508 41.9334 340.768 41.7334 341.228 41.6534C341.428 41.6234 341.828 41.5734 342.348 41.5234C342.508 40.6934 342.678 39.9534 342.828 39.4034C342.948 38.9734 343.158 38.7134 343.548 38.7134C343.898 38.7134 344.218 38.9934 344.058 39.7034C343.958 40.1534 343.828 40.7434 343.708 41.4034C344.818 41.3234 345.908 41.2934 346.288 41.2934C346.748 41.2934 346.978 41.5134 346.978 41.8334C346.978 42.0534 346.878 42.3334 346.408 42.3934C345.888 42.4634 344.838 42.5534 343.478 42.6634C343.178 44.4734 342.918 46.5134 342.998 47.8234C343.068 49.0234 343.428 49.4634 344.338 49.4634C344.718 49.4634 345.268 49.3334 345.878 49.0834C346.238 48.9334 346.458 49.1534 346.458 49.4234C346.458 49.6234 346.398 49.7834 346.268 49.9034C345.788 50.3534 345.058 50.6234 344.228 50.6234ZM350.203 50.6534C350.113 50.6534 350.013 50.6334 349.913 50.6034C348.843 50.2534 348.463 49.2334 348.463 47.8634C348.463 47.0034 348.563 45.9634 348.743 44.7534C348.923 43.5334 349.093 42.4134 349.173 41.4334C349.213 41.0034 349.533 40.7934 349.853 40.7934C350.213 40.7934 350.543 41.0234 350.513 41.5034C350.443 42.7134 350.213 43.8834 350.063 45.0534C349.923 46.1134 349.783 47.0534 349.783 47.8134C349.783 48.7134 349.953 49.3234 350.513 49.6134C350.743 49.7334 350.843 49.9134 350.843 50.0934C350.843 50.3734 350.593 50.6534 350.203 50.6534ZM350.293 39.0134C349.553 39.0134 349.133 38.6234 349.133 38.1434C349.133 37.6434 349.643 37.2334 350.243 37.2334C350.763 37.2334 350.953 37.4934 351.013 37.6834C351.173 37.7634 351.293 37.9434 351.293 38.2034C351.293 38.6534 350.913 39.0134 350.293 39.0134ZM355.715 50.7934C353.425 50.7934 352.215 48.9634 352.555 45.8334C352.915 42.5634 354.955 41.1234 356.905 41.1234C357.895 41.1234 358.305 41.5334 358.375 41.8034C359.995 42.4534 360.755 44.5234 360.015 47.1134C359.445 49.1234 357.785 50.7934 355.715 50.7934ZM355.765 49.6134C357.025 49.6134 358.355 48.4834 358.805 46.6234C359.365 44.2934 358.545 42.7434 357.125 42.5634C356.925 42.5334 356.825 42.4234 356.825 42.2534C355.465 42.2934 354.195 43.4634 353.895 45.9534C353.605 48.3634 354.285 49.6134 355.765 49.6134ZM370.328 50.4934C370.268 50.4934 370.208 50.4834 370.148 50.4734C369.188 50.2834 368.678 49.7134 368.678 48.3634C368.678 46.9434 369.048 45.3934 369.138 44.0134C369.198 43.1334 368.918 42.7434 368.518 42.7434C367.868 42.7434 366.758 43.7134 365.598 45.3934C364.768 46.5934 364.018 48.1634 363.458 49.7534C363.388 50.2334 363.128 50.4434 362.788 50.4434C362.478 50.4434 362.138 50.2734 362.138 49.8134C362.138 49.7234 362.148 49.6234 362.178 49.5034C362.388 48.1934 362.538 46.9434 362.698 45.6634C362.858 44.3834 362.988 43.0634 363.088 41.7134C363.128 41.2234 363.428 41.0034 363.748 41.0034C364.138 41.0034 364.448 41.2534 364.418 41.7334C364.348 42.7334 364.228 43.8234 364.098 44.9034C364.028 45.4434 363.948 46.0134 363.858 46.5834C364.288 45.6134 364.748 44.7434 365.238 44.0134C366.348 42.3534 367.538 41.3534 368.778 41.3534C369.908 41.3534 370.588 42.2634 370.478 44.0034C370.388 45.3934 370.008 46.9534 370.008 48.2734C370.008 49.0434 370.168 49.3134 370.598 49.4734C370.848 49.5634 370.958 49.7534 370.958 49.9434C370.958 50.2134 370.718 50.4934 370.328 50.4934ZM378.441 53.6834C378.801 53.7634 378.994 53.8034 379.021 53.8034C379.327 53.8034 379.594 53.5234 379.821 52.9634C379.981 52.5234 380.467 50.15 381.281 45.8434C381.654 43.83 381.847 42.8167 381.861 42.8034V42.7434H380.921C380.294 42.7434 379.961 42.73 379.921 42.7034C379.827 42.65 379.814 42.5034 379.881 42.2634C379.934 42.0634 379.967 41.9567 379.981 41.9434C380.007 41.8767 380.067 41.8434 380.161 41.8434C380.254 41.83 380.561 41.8234 381.081 41.8234C381.721 41.8234 382.041 41.8167 382.041 41.8034C382.041 41.7767 382.101 41.4434 382.221 40.8034C382.341 40.1634 382.421 39.7767 382.461 39.6434C382.741 38.3767 383.161 37.4967 383.721 37.0034C384.254 36.5634 384.807 36.3434 385.381 36.3434C385.861 36.37 386.261 36.5167 386.581 36.7834C386.914 37.05 387.081 37.4034 387.081 37.8434C387.081 38.23 386.961 38.5567 386.721 38.8234C386.481 39.09 386.181 39.2234 385.821 39.2234C385.234 39.2234 384.941 38.9434 384.941 38.3834C384.941 37.89 385.174 37.53 385.641 37.3034L385.821 37.2034C385.581 37.1234 385.381 37.0834 385.221 37.0834C384.834 37.0834 384.581 37.3367 384.461 37.8434C384.354 38.2434 384.181 39.1167 383.941 40.4634L383.681 41.7834C383.681 41.81 384.047 41.8234 384.781 41.8234C385.381 41.8234 385.741 41.83 385.861 41.8434C385.981 41.8567 386.041 41.9034 386.041 41.9834C386.041 42.13 385.994 42.3434 385.901 42.6234C385.874 42.69 385.807 42.73 385.701 42.7434C385.607 42.7434 385.254 42.7434 384.641 42.7434H383.521L383.061 45.1834C382.567 47.73 382.261 49.27 382.141 49.8034C381.687 51.8167 381.081 53.1834 380.321 53.9034C379.827 54.33 379.341 54.5434 378.861 54.5434C378.381 54.5434 377.981 54.41 377.661 54.1434C377.341 53.8767 377.181 53.5234 377.181 53.0834C377.181 52.6834 377.301 52.3434 377.541 52.0634C377.781 51.7967 378.081 51.6634 378.441 51.6634C379.027 51.6634 379.321 51.9434 379.321 52.5034C379.321 52.9967 379.087 53.3567 378.621 53.5834L378.441 53.6834Z" fill="white"/>
<path d="M319.48 113.195C319.779 113.482 320.253 113.473 320.541 113.174L325.22 108.309C325.507 108.011 325.498 107.536 325.199 107.249C324.901 106.962 324.426 106.971 324.139 107.269L319.979 111.594L315.655 107.435C315.356 107.147 314.882 107.157 314.595 107.455C314.307 107.754 314.317 108.229 314.615 108.516L319.48 113.195ZM282.19 67.6801C311.48 80.968 319.068 103.328 319.25 112.669L320.75 112.64C320.557 102.714 312.619 79.8376 282.809 66.3141L282.19 67.6801Z" fill="white"/>
<path d="M313.776 210.359C313.478 210.072 313.003 210.081 312.716 210.38L308.037 215.244C307.749 215.543 307.759 216.018 308.057 216.305C308.356 216.592 308.831 216.583 309.118 216.284L313.277 211.96L317.601 216.119C317.9 216.406 318.375 216.397 318.662 216.099C318.949 215.8 318.94 215.325 318.641 215.038L313.776 210.359ZM351.067 255.874C321.776 242.586 314.188 220.225 314.006 210.885L312.506 210.914C312.7 220.84 320.637 243.716 350.447 257.24L351.067 255.874Z" fill="white"/>
<path d="M376.357 263.997C375.977 263.997 375.657 263.747 375.467 263.237C374.747 261.337 374.247 259.627 374.037 257.527C373.157 259.627 372.087 261.727 371.077 263.247C370.857 263.577 370.587 263.777 370.237 263.777C369.877 263.777 369.577 263.587 369.397 262.917C368.717 260.997 368.277 257.197 368.037 255.257C367.897 254.767 368.127 254.367 368.607 254.367C369.077 254.367 369.347 254.657 369.417 255.217C369.637 257.107 369.997 260.177 370.487 262.017C371.617 260.027 372.777 257.517 373.727 255.137C373.867 254.787 374.077 254.547 374.467 254.547C374.907 254.547 375.137 254.857 375.057 255.367C375.177 257.547 375.617 259.837 376.517 262.217C377.867 260.187 378.917 258.037 379.737 254.997C379.907 254.347 380.137 254.147 380.507 254.147C380.847 254.147 381.197 254.397 381.057 255.017C380.307 258.377 378.877 261.067 377.207 263.387C376.937 263.907 376.637 263.997 376.357 263.997ZM383.302 263.767C382.942 263.767 382.622 263.577 382.622 263.047C382.622 262.117 382.812 260.387 382.952 258.807C383.082 257.357 383.202 255.907 383.272 254.887C383.312 254.287 383.562 254.107 383.922 254.107C384.372 254.107 384.582 254.417 384.582 254.787C384.572 255.727 384.402 257.367 384.272 258.847C384.152 260.257 383.952 261.717 383.892 262.887C384.002 263.447 383.702 263.767 383.302 263.767ZM384.102 252.247C383.602 252.247 383.132 251.897 383.132 251.477C383.132 250.907 383.622 250.557 384.222 250.557C384.802 250.557 385.142 250.907 385.142 251.427C385.142 251.937 384.632 252.247 384.102 252.247ZM390.054 263.737C389.024 263.737 388.124 263.247 387.834 261.997C387.454 260.347 387.874 257.957 388.244 256.037C387.824 256.047 387.434 256.057 387.104 256.057C386.584 256.057 386.344 255.777 386.344 255.447C386.344 255.167 386.554 254.877 386.934 254.857L388.484 254.797C388.654 253.957 388.834 253.157 389.024 252.367C389.114 251.997 389.414 251.817 389.714 251.817C390.064 251.817 390.394 252.077 390.294 252.577L389.864 254.767C390.824 254.737 391.824 254.727 392.674 254.717C393.114 254.707 393.324 254.997 393.324 255.277C393.324 255.557 393.124 255.827 392.754 255.847C391.734 255.907 390.634 255.957 389.614 255.997C389.274 257.717 388.794 260.217 389.124 261.657C389.274 262.327 389.674 262.577 390.184 262.577C390.704 262.577 391.304 262.277 391.714 261.997C392.374 261.547 392.934 262.287 392.354 262.817C391.754 263.367 390.864 263.737 390.054 263.737ZM402.531 263.867C401.401 263.867 400.741 263.347 400.741 261.857C400.741 261.337 400.831 260.617 400.991 259.687C401.221 258.367 401.521 257.057 401.521 256.297C401.521 255.767 401.371 255.437 400.891 255.437C399.891 255.437 398.831 256.517 397.951 257.807C397.221 258.877 396.531 260.277 395.951 261.957C395.841 263.607 395.531 263.797 395.141 263.797C394.721 263.797 394.521 263.497 394.521 262.857C394.521 262.567 394.591 262.217 394.641 261.787C394.931 259.437 395.211 256.967 395.411 255.057C395.641 252.807 395.761 251.247 395.921 250.167C395.981 249.737 396.221 249.517 396.611 249.517C396.991 249.517 397.251 249.777 397.191 250.437C396.971 252.737 396.821 254.187 396.601 255.937C396.491 256.837 396.371 257.767 396.201 258.827C396.521 258.087 396.871 257.427 397.281 256.787C398.261 255.237 399.571 253.997 401.261 253.997C402.491 253.997 402.871 254.867 402.871 255.947C402.871 256.447 402.781 257.067 402.671 257.647C402.341 259.457 402.051 260.867 402.051 261.817C402.051 262.157 402.081 262.407 402.141 262.617C402.441 262.677 402.751 262.717 403.071 262.857C403.291 262.957 403.371 263.137 403.371 263.317C403.371 263.687 403.101 263.867 402.531 263.867ZM409.81 263.627C409.51 263.627 409.23 263.487 409.23 262.727C409.23 262.477 409.26 262.157 409.33 261.747C409.47 260.817 409.6 259.977 409.73 258.807C409.81 258.057 409.97 256.687 410.02 255.067C410.04 254.527 410.25 254.197 410.72 254.197C411.13 254.197 411.32 254.427 411.33 254.827C411.35 255.467 411.28 256.287 411.13 257.247C411.28 256.867 411.43 256.537 411.6 256.237C412.32 254.987 413.16 254.277 414.43 254.277C414.93 254.277 415.31 254.367 415.6 254.577C415.87 254.777 416.03 255.047 416.03 255.297C416.03 255.707 415.73 255.947 415.39 255.947C415.04 255.947 414.8 255.727 414.8 255.437C413.67 255.437 412.78 256.097 411.98 257.597C411.46 258.567 411.01 259.907 410.62 261.937C410.51 263.387 410.23 263.627 409.81 263.627ZM420.104 263.847C417.384 263.847 415.784 261.227 416.614 258.127C417.264 255.717 419.274 254.107 421.244 254.107C423.014 254.107 424.004 255.177 423.914 256.617C423.804 258.417 421.944 259.617 418.644 259.617C418.334 259.617 418.014 259.607 417.684 259.587C417.624 261.367 418.604 262.687 420.174 262.687C421.014 262.687 422.054 262.407 422.724 261.737C423.254 261.207 423.924 261.797 423.504 262.387C422.704 263.527 421.164 263.847 420.104 263.847ZM418.314 258.617C420.984 258.617 422.484 257.757 422.564 256.617C422.624 255.827 422.064 255.277 421.194 255.277C419.774 255.277 418.304 256.527 417.824 258.607C417.994 258.617 418.154 258.617 418.314 258.617ZM428.61 264.187C427.3 264.187 425.93 263.577 425.47 262.057C425.4 261.817 425.35 261.557 425.35 261.337C425.35 260.937 425.54 260.657 425.88 260.657C426.41 260.657 426.74 261.657 427.02 262.557C427.42 262.827 427.94 263.027 428.53 263.027C429.5 263.027 430.23 262.457 430.3 261.677C430.39 260.607 429.46 259.947 428.42 259.087C427.06 257.957 426.52 257.227 426.64 256.107C426.78 254.787 427.97 253.847 429.63 253.847C430.8 253.847 431.62 254.257 432.19 254.837C432.48 255.137 432.57 255.437 432.42 255.657C432.24 255.927 431.89 255.917 431.56 255.657C430.97 255.187 430.39 255.027 429.67 255.027C428.81 255.027 428.06 255.467 427.99 256.157C427.91 256.927 428.61 257.457 429.83 258.417C430.98 259.317 431.85 260.387 431.67 261.817C431.5 263.167 430.26 264.187 428.61 264.187ZM434.133 268.017C433.783 268.017 433.553 267.777 433.553 266.957C433.553 266.277 433.713 265.187 434.093 263.507C434.523 260.367 434.663 258.137 434.803 255.117C434.693 254.567 435.063 254.307 435.433 254.307C435.883 254.307 436.133 254.597 436.113 255.047C436.053 256.527 435.933 257.907 435.743 259.407C436.003 258.707 436.283 258.117 436.573 257.567C437.633 255.527 438.943 254.357 440.353 254.357C442.313 254.357 443.413 256.647 442.813 259.477C442.263 262.057 440.583 263.447 438.863 263.447C437.663 263.447 436.533 262.917 435.853 261.987C435.563 262.997 435.333 264.067 435.153 265.157C434.983 267.587 434.603 268.017 434.133 268.017ZM438.733 262.337C439.883 262.337 441.073 261.437 441.483 259.177C441.853 257.157 441.263 255.537 440.163 255.537C439.143 255.537 437.853 256.987 436.743 259.497C436.553 259.927 436.383 260.377 436.213 260.847C436.923 261.797 437.843 262.337 438.733 262.337ZM448.096 263.757C445.576 263.757 444.086 261.817 444.826 258.517C445.386 256.007 447.176 254.267 449.466 254.267C451.496 254.267 452.736 255.267 452.476 256.957C452.206 258.687 450.346 259.497 448.496 259.497C447.626 259.497 446.736 259.377 446.036 259.167C445.606 261.427 446.556 262.597 448.096 262.597C448.936 262.597 449.856 262.297 450.536 261.747C451.096 261.297 451.476 262.067 451.136 262.477C450.406 263.357 449.386 263.757 448.096 263.757ZM448.216 258.397C449.696 258.397 450.976 257.877 451.116 256.837C451.236 255.957 450.636 255.437 449.516 255.437C448.116 255.437 446.886 256.447 446.296 258.177C446.896 258.317 447.626 258.397 448.216 258.397ZM457.476 263.777C455.016 263.777 453.246 262.067 453.806 258.877C454.316 255.957 456.326 254.367 458.486 254.367C459.586 254.367 460.456 254.727 460.956 255.257C461.446 255.777 461.146 256.397 460.616 256.397C460.306 256.397 459.996 256.217 459.716 255.757C459.326 255.617 458.896 255.537 458.416 255.537C456.966 255.537 455.546 256.807 455.146 258.947C454.696 261.347 455.846 262.607 457.646 262.607C458.466 262.607 459.146 262.387 459.906 261.947C460.426 261.647 460.646 262.417 460.356 262.737C459.846 263.287 458.786 263.777 457.476 263.777ZM466.182 263.737C464.642 263.737 463.692 262.967 463.602 261.097C463.532 259.717 463.762 257.717 464.072 255.897L463.212 255.947C462.802 255.967 462.462 255.807 462.462 255.387C462.462 255.047 462.722 254.847 463.182 254.767C463.382 254.737 463.782 254.687 464.302 254.637C464.462 253.807 464.632 253.067 464.782 252.517C464.902 252.087 465.112 251.827 465.502 251.827C465.852 251.827 466.172 252.107 466.012 252.817C465.912 253.267 465.782 253.857 465.662 254.517C466.772 254.437 467.862 254.407 468.242 254.407C468.702 254.407 468.932 254.627 468.932 254.947C468.932 255.167 468.832 255.447 468.362 255.507C467.842 255.577 466.792 255.667 465.432 255.777C465.132 257.587 464.872 259.627 464.952 260.937C465.022 262.137 465.382 262.577 466.292 262.577C466.672 262.577 467.222 262.447 467.832 262.197C468.192 262.047 468.412 262.267 468.412 262.537C468.412 262.737 468.352 262.897 468.222 263.017C467.742 263.467 467.012 263.737 466.182 263.737ZM477.358 263.737C476.328 263.737 475.428 263.247 475.138 261.997C474.758 260.347 475.178 257.957 475.548 256.037C475.128 256.047 474.738 256.057 474.408 256.057C473.888 256.057 473.648 255.777 473.648 255.447C473.648 255.167 473.858 254.877 474.238 254.857L475.788 254.797C475.958 253.957 476.138 253.157 476.328 252.367C476.418 251.997 476.718 251.817 477.018 251.817C477.368 251.817 477.698 252.077 477.598 252.577L477.168 254.767C478.128 254.737 479.128 254.727 479.978 254.717C480.418 254.707 480.628 254.997 480.628 255.277C480.628 255.557 480.428 255.827 480.058 255.847C479.038 255.907 477.938 255.957 476.918 255.997C476.578 257.717 476.098 260.217 476.428 261.657C476.578 262.327 476.978 262.577 477.488 262.577C478.008 262.577 478.608 262.277 479.018 261.997C479.678 261.547 480.238 262.287 479.658 262.817C479.058 263.367 478.168 263.737 477.358 263.737ZM484.68 263.907C482.39 263.907 481.18 262.077 481.52 258.947C481.88 255.677 483.92 254.237 485.87 254.237C486.86 254.237 487.27 254.647 487.34 254.917C488.96 255.567 489.72 257.637 488.98 260.227C488.41 262.237 486.75 263.907 484.68 263.907ZM484.73 262.727C485.99 262.727 487.32 261.597 487.77 259.737C488.33 257.407 487.51 255.857 486.09 255.677C485.89 255.647 485.79 255.537 485.79 255.367C484.43 255.407 483.16 256.577 482.86 259.067C482.57 261.477 483.25 262.727 484.73 262.727ZM498.545 263.737C497.005 263.737 496.055 262.967 495.965 261.097C495.895 259.717 496.125 257.717 496.435 255.897L495.575 255.947C495.165 255.967 494.825 255.807 494.825 255.387C494.825 255.047 495.085 254.847 495.545 254.767C495.745 254.737 496.145 254.687 496.665 254.637C496.825 253.807 496.995 253.067 497.145 252.517C497.265 252.087 497.475 251.827 497.865 251.827C498.215 251.827 498.535 252.107 498.375 252.817C498.275 253.267 498.145 253.857 498.025 254.517C499.135 254.437 500.225 254.407 500.605 254.407C501.065 254.407 501.295 254.627 501.295 254.947C501.295 255.167 501.195 255.447 500.725 255.507C500.205 255.577 499.155 255.667 497.795 255.777C497.495 257.587 497.235 259.627 497.315 260.937C497.385 262.137 497.745 262.577 498.655 262.577C499.035 262.577 499.585 262.447 500.195 262.197C500.555 262.047 500.775 262.267 500.775 262.537C500.775 262.737 500.715 262.897 500.585 263.017C500.105 263.467 499.375 263.737 498.545 263.737ZM510.46 264.107C510.31 264.107 510.15 264.067 509.96 263.977C509.29 263.647 509.07 262.947 509.07 262.197C509.07 261.457 509.31 260.447 509.54 259.367C509.75 258.387 509.96 257.347 509.96 256.567C509.96 255.777 509.69 255.457 509.18 255.457C508.38 255.457 507.27 256.567 506.24 257.927C505.34 259.107 504.57 260.487 503.97 261.917C503.98 263.297 503.64 263.817 503.09 263.817C502.7 263.817 502.46 263.477 502.46 262.847C502.46 262.557 502.5 262.217 502.61 261.827C502.82 260.137 503.05 258.347 503.27 256.507C503.52 254.377 503.78 252.167 504.04 250.057C504.09 249.657 504.39 249.447 504.69 249.447C505.03 249.447 505.37 249.717 505.32 250.267C505.16 252.127 504.97 253.957 504.71 255.847C504.55 257.007 504.37 258.147 504.16 259.277C504.63 258.307 505.16 257.417 505.76 256.627C506.88 255.137 508.16 254.117 509.41 254.117C510.67 254.117 511.29 254.977 511.29 256.387C511.29 257.337 511.05 258.477 510.81 259.537C510.58 260.537 510.38 261.437 510.38 262.017C510.38 262.467 510.51 262.767 510.89 263.107C511.02 263.227 511.08 263.377 511.08 263.527C511.08 263.827 510.85 264.107 510.46 264.107ZM516.788 263.757C514.268 263.757 512.778 261.817 513.518 258.517C514.078 256.007 515.868 254.267 518.158 254.267C520.188 254.267 521.428 255.267 521.168 256.957C520.898 258.687 519.038 259.497 517.188 259.497C516.318 259.497 515.428 259.377 514.728 259.167C514.298 261.427 515.248 262.597 516.788 262.597C517.628 262.597 518.548 262.297 519.228 261.747C519.788 261.297 520.168 262.067 519.828 262.477C519.098 263.357 518.078 263.757 516.788 263.757ZM516.908 258.397C518.388 258.397 519.668 257.877 519.808 256.837C519.928 255.957 519.328 255.437 518.208 255.437C516.808 255.437 515.578 256.447 514.988 258.177C515.588 258.317 516.318 258.397 516.908 258.397ZM529.157 263.947C528.767 263.947 528.487 263.797 528.437 263.237C527.997 262.027 527.667 260.707 527.367 259.147C527.047 257.497 526.857 256.367 526.707 255.287C526.627 254.727 526.827 254.347 527.307 254.347C527.647 254.347 527.977 254.467 528.057 255.047C528.197 256.097 528.407 257.287 528.687 258.867C528.917 260.177 529.157 261.447 529.467 262.447C530.097 261.767 530.807 260.787 531.437 259.687C532.377 258.037 533.037 256.487 533.377 254.987C533.487 254.497 533.737 254.237 534.157 254.237C534.797 254.237 534.807 254.837 534.727 255.207C534.397 256.817 533.547 258.627 532.547 260.317C531.647 261.837 530.777 262.867 530.187 263.407C529.817 263.737 529.547 263.947 529.157 263.947ZM537.892 263.617C536.252 263.617 535.372 262.447 535.522 260.497C535.732 257.837 537.672 254.347 540.872 254.347C541.582 254.347 542.302 254.527 542.792 254.757C542.892 254.697 543.002 254.667 543.122 254.667C543.502 254.667 543.702 254.867 543.702 255.427C543.702 255.937 543.532 256.747 543.162 257.987C542.962 259.057 542.912 260.037 542.912 260.737C542.912 261.247 542.922 261.837 543.092 262.157C543.222 262.407 543.452 262.417 543.712 262.587C544.162 262.887 543.882 263.607 543.222 263.607C542.792 263.607 542.292 263.297 542.052 262.937C541.812 262.577 541.642 261.937 541.642 261.077C541.642 260.917 541.652 260.747 541.662 260.577C540.472 262.907 539.192 263.617 537.892 263.617ZM538.162 262.407C539.222 262.407 540.542 261.447 542.002 257.237C542.112 256.577 542.212 256.077 542.312 255.707C541.892 255.567 541.362 255.447 540.852 255.447C538.402 255.447 537.032 258.417 536.842 260.257C536.712 261.557 537.172 262.407 538.162 262.407ZM546.431 263.527C546.111 263.527 545.801 263.307 545.801 262.647C545.801 262.427 545.861 262.157 545.911 261.837C546.271 259.527 546.591 257.227 546.891 254.787C546.951 254.317 547.241 254.157 547.571 254.157C547.941 254.157 548.261 254.397 548.201 254.897C548.071 255.907 547.931 256.917 547.791 257.777C548.021 257.317 548.271 256.887 548.531 256.497C549.451 255.147 550.561 254.277 551.741 254.277C552.261 254.277 552.751 254.467 553.071 254.767C553.551 255.207 553.211 256.107 552.561 255.857C552.281 255.747 551.991 255.577 551.611 255.577C550.781 255.577 549.901 256.287 549.071 257.507C548.391 258.507 547.641 260.197 547.211 262.057C547.211 263.187 546.841 263.527 546.431 263.527ZM554.943 263.767C554.583 263.767 554.263 263.577 554.263 263.047C554.263 262.117 554.453 260.387 554.593 258.807C554.723 257.357 554.843 255.907 554.913 254.887C554.953 254.287 555.203 254.107 555.563 254.107C556.013 254.107 556.223 254.417 556.223 254.787C556.213 255.727 556.043 257.367 555.913 258.847C555.793 260.257 555.593 261.717 555.533 262.887C555.643 263.447 555.343 263.767 554.943 263.767ZM555.743 252.247C555.243 252.247 554.773 251.897 554.773 251.477C554.773 250.907 555.263 250.557 555.863 250.557C556.443 250.557 556.783 250.907 556.783 251.427C556.783 251.937 556.273 252.247 555.743 252.247ZM566.114 263.857C566.004 263.857 565.884 263.837 565.774 263.797C565.384 263.637 565.094 263.337 564.914 262.937C564.684 262.427 564.584 261.727 564.584 261.017C564.584 260.877 564.584 260.737 564.594 260.587C564.324 261.167 564.054 261.647 563.754 262.037C562.874 263.197 561.964 263.607 561.014 263.607C559.504 263.607 558.404 262.377 558.404 260.327C558.404 259.087 558.834 257.827 559.454 256.797C560.344 255.317 561.754 254.357 563.414 254.357C564.314 254.357 565.224 254.577 565.924 255.037C566.214 255.227 566.334 255.487 566.314 255.677C566.414 255.807 566.464 255.977 566.424 256.207C566.094 258.297 565.894 259.927 565.894 261.037C565.894 261.557 565.934 261.957 566.034 262.247C566.114 262.467 566.214 262.627 566.374 262.717C567.014 263.097 566.764 263.857 566.114 263.857ZM561.234 262.357C561.844 262.357 562.444 261.977 562.984 261.277C563.754 260.277 564.404 258.657 565.094 255.947C565.104 255.897 565.124 255.847 565.144 255.807C564.564 255.597 564.014 255.477 563.474 255.477C562.294 255.477 561.344 256.157 560.684 257.227C560.114 258.157 559.784 259.267 559.784 260.277C559.784 261.587 560.354 262.357 561.234 262.357ZM572.353 263.707C571.373 263.707 570.383 263.307 569.683 262.797C569.603 262.827 569.523 262.837 569.413 262.837C569.013 262.837 568.773 262.577 568.803 262.057C568.883 260.807 569.103 259.187 569.353 257.567C569.653 255.587 570.143 252.437 570.463 250.077C570.513 249.677 570.723 249.437 571.123 249.437C571.463 249.437 571.843 249.627 571.763 250.167C571.523 251.787 571.163 254.107 570.903 255.707C570.803 256.297 570.633 257.277 570.433 258.337C570.703 257.607 571.023 256.937 571.373 256.387C572.253 255.007 573.643 254.137 574.963 254.137C576.963 254.137 577.933 256.127 577.093 259.167C576.313 261.997 574.193 263.707 572.353 263.707ZM572.133 262.557C573.693 262.557 575.173 261.097 575.743 258.947C576.333 256.727 575.963 255.287 574.803 255.287C573.933 255.287 572.713 256.167 571.833 257.597C571.233 258.567 570.513 260.237 570.073 261.977C570.723 262.317 571.433 262.557 572.133 262.557ZM581.551 263.637C580.661 263.637 579.891 263.127 579.611 261.977C579.361 260.947 579.371 259.187 579.651 256.707C579.931 254.207 580.371 252.077 580.801 250.317C580.891 249.937 581.151 249.727 581.491 249.727C581.991 249.727 582.191 250.127 582.081 250.637C581.701 252.357 581.271 254.227 581.011 256.747C580.771 259.107 580.701 260.677 580.851 261.487C581.001 262.287 581.481 262.447 581.931 262.537C582.371 262.627 582.671 262.717 582.671 262.957C582.671 263.327 582.281 263.637 581.551 263.637ZM587.819 263.847C585.099 263.847 583.499 261.227 584.329 258.127C584.979 255.717 586.989 254.107 588.959 254.107C590.729 254.107 591.719 255.177 591.629 256.617C591.519 258.417 589.659 259.617 586.359 259.617C586.049 259.617 585.729 259.607 585.399 259.587C585.339 261.367 586.319 262.687 587.889 262.687C588.729 262.687 589.769 262.407 590.439 261.737C590.969 261.207 591.639 261.797 591.219 262.387C590.419 263.527 588.879 263.847 587.819 263.847ZM586.029 258.617C588.699 258.617 590.199 257.757 590.279 256.617C590.339 255.827 589.779 255.277 588.909 255.277C587.489 255.277 586.019 256.527 585.539 258.607C585.709 258.617 585.869 258.617 586.029 258.617ZM597.866 257.997C597.786 257.917 597.746 257.843 597.746 257.777C597.8 257.417 598.006 256.957 598.366 256.397C598.993 255.45 599.78 254.903 600.726 254.757C600.913 254.73 601.053 254.717 601.146 254.717C601.613 254.717 602.04 254.837 602.426 255.077C602.826 255.317 603.113 255.617 603.286 255.977C603.46 255.75 603.566 255.61 603.606 255.557C604.1 254.997 604.666 254.717 605.306 254.717C605.853 254.717 606.293 254.877 606.626 255.197C606.973 255.503 607.146 255.883 607.146 256.337C607.146 256.75 607.026 257.097 606.786 257.377C606.56 257.657 606.253 257.797 605.866 257.797C605.613 257.797 605.406 257.723 605.246 257.577C605.086 257.43 605.006 257.237 605.006 256.997C605.006 256.383 605.34 255.963 606.006 255.737C606.006 255.723 605.933 255.677 605.786 255.597C605.653 255.517 605.46 255.477 605.206 255.477C605.033 255.477 604.906 255.49 604.826 255.517C604.32 255.73 603.946 256.17 603.706 256.837C603.666 256.943 603.473 257.69 603.126 259.077C602.78 260.45 602.593 261.223 602.566 261.397C602.526 261.597 602.506 261.797 602.506 261.997C602.506 262.317 602.6 262.57 602.786 262.757C602.973 262.943 603.22 263.037 603.526 263.037C604.086 263.037 604.593 262.803 605.046 262.337C605.5 261.857 605.806 261.33 605.966 260.757C606.006 260.623 606.046 260.55 606.086 260.537C606.126 260.51 606.233 260.497 606.406 260.497C606.66 260.497 606.786 260.55 606.786 260.657C606.786 260.67 606.773 260.743 606.746 260.877C606.52 261.703 606.053 262.423 605.346 263.037C604.72 263.53 604.06 263.777 603.366 263.777C602.433 263.777 601.726 263.357 601.246 262.517C600.86 263.117 600.366 263.517 599.766 263.717C599.646 263.743 599.473 263.757 599.246 263.757C598.473 263.757 597.926 263.483 597.606 262.937C597.473 262.71 597.406 262.443 597.406 262.137C597.406 261.737 597.526 261.397 597.766 261.117C598.006 260.837 598.313 260.697 598.686 260.697C599.26 260.697 599.546 260.977 599.546 261.537C599.546 262.03 599.313 262.39 598.846 262.617C598.82 262.63 598.786 262.65 598.746 262.677C598.706 262.69 598.673 262.703 598.646 262.717C598.62 262.73 598.6 262.737 598.586 262.737L598.526 262.757C598.526 262.797 598.626 262.857 598.826 262.937C598.986 263.003 599.16 263.037 599.346 263.037C599.826 263.037 600.24 262.737 600.586 262.137C600.733 261.897 600.993 261.03 601.366 259.537C601.446 259.23 601.533 258.89 601.626 258.517C601.72 258.143 601.786 257.857 601.826 257.657C601.88 257.457 601.913 257.337 601.926 257.297C601.993 256.937 602.026 256.677 602.026 256.517C602.026 256.197 601.94 255.943 601.766 255.757C601.593 255.57 601.353 255.477 601.046 255.477C600.446 255.477 599.926 255.71 599.486 256.177C599.046 256.63 598.74 257.157 598.566 257.757C598.54 257.877 598.506 257.95 598.466 257.977C598.44 257.99 598.333 257.997 598.146 257.997H597.866Z" fill="white"/>
<defs>
<clipPath id="clip0_722_1028">
<rect width="62.2905" height="63.465" fill="white" transform="translate(288.855 129.854)"/>
</clipPath>
</defs>
</svg>
