<svg width="720" height="480" viewBox="0 0 720 480" fill="none" xmlns="http://www.w3.org/2000/svg">
<g clip-path="url(#clip0_714_193)">
<path d="M720 0H0V480H720V0Z" fill="black"/>
<path d="M660 59.9819H60V419.982H660V59.9819Z" fill="black"/>
<path d="M60 66H660" stroke="#181818" stroke-miterlimit="240"/>
<path d="M60 72H660" stroke="#181818" stroke-miterlimit="240"/>
<path d="M60 78H660" stroke="#181818" stroke-miterlimit="240"/>
<path d="M60 84H660" stroke="#181818" stroke-miterlimit="240"/>
<path d="M60 96H660" stroke="#181818" stroke-miterlimit="240"/>
<path d="M60 102H660" stroke="#181818" stroke-miterlimit="240"/>
<path d="M60 108H660" stroke="#181818" stroke-miterlimit="240"/>
<path d="M60 114H660" stroke="#181818" stroke-miterlimit="240"/>
<path d="M60 126H660" stroke="#181818" stroke-miterlimit="240"/>
<path d="M60 132H660" stroke="#181818" stroke-miterlimit="240"/>
<path d="M60 138H660" stroke="#181818" stroke-miterlimit="240"/>
<path d="M60 144H660" stroke="#181818" stroke-miterlimit="240"/>
<path d="M60 156H660" stroke="#181818" stroke-miterlimit="240"/>
<path d="M60 162H660" stroke="#181818" stroke-miterlimit="240"/>
<path d="M60 168H660" stroke="#181818" stroke-miterlimit="240"/>
<path d="M60 174H660" stroke="#181818" stroke-miterlimit="240"/>
<path d="M60 186H660" stroke="#181818" stroke-miterlimit="240"/>
<path d="M60 192H660" stroke="#181818" stroke-miterlimit="240"/>
<path d="M60 198H660" stroke="#181818" stroke-miterlimit="240"/>
<path d="M60 204H660" stroke="#181818" stroke-miterlimit="240"/>
<path d="M60 216H660" stroke="#181818" stroke-miterlimit="240"/>
<path d="M60 222H660" stroke="#181818" stroke-miterlimit="240"/>
<path d="M60 228H660" stroke="#181818" stroke-miterlimit="240"/>
<path d="M60 234H660" stroke="#181818" stroke-miterlimit="240"/>
<path d="M60 246H660" stroke="#181818" stroke-miterlimit="240"/>
<path d="M60 252H660" stroke="#181818" stroke-miterlimit="240"/>
<path d="M60 258H660" stroke="#181818" stroke-miterlimit="240"/>
<path d="M60 264H660" stroke="#181818" stroke-miterlimit="240"/>
<path d="M60 276H660" stroke="#181818" stroke-miterlimit="240"/>
<path d="M60 282H660" stroke="#181818" stroke-miterlimit="240"/>
<path d="M60 288H660" stroke="#181818" stroke-miterlimit="240"/>
<path d="M60 294H660" stroke="#181818" stroke-miterlimit="240"/>
<path d="M60 306H660" stroke="#181818" stroke-miterlimit="240"/>
<path d="M60 312H660" stroke="#181818" stroke-miterlimit="240"/>
<path d="M60 318H660" stroke="#181818" stroke-miterlimit="240"/>
<path d="M60 324H660" stroke="#181818" stroke-miterlimit="240"/>
<path d="M60 336H660" stroke="#181818" stroke-miterlimit="240"/>
<path d="M60 342H660" stroke="#181818" stroke-miterlimit="240"/>
<path d="M60 348H660" stroke="#181818" stroke-miterlimit="240"/>
<path d="M60 354H660" stroke="#181818" stroke-miterlimit="240"/>
<path d="M60 366H660" stroke="#181818" stroke-miterlimit="240"/>
<path d="M60 372H660" stroke="#181818" stroke-miterlimit="240"/>
<path d="M60 378H660" stroke="#181818" stroke-miterlimit="240"/>
<path d="M60 384H660" stroke="#181818" stroke-miterlimit="240"/>
<path d="M60 396H660" stroke="#181818" stroke-miterlimit="240"/>
<path d="M60 402H660" stroke="#181818" stroke-miterlimit="240"/>
<path d="M60 408H660" stroke="#181818" stroke-miterlimit="240"/>
<path d="M60 414H660" stroke="#181818" stroke-miterlimit="240"/>
<path d="M66 60V420" stroke="#181818" stroke-miterlimit="240"/>
<path d="M72 60V420" stroke="#181818" stroke-miterlimit="240"/>
<path d="M78 60V420" stroke="#181818" stroke-miterlimit="240"/>
<path d="M84 60V420" stroke="#181818" stroke-miterlimit="240"/>
<path d="M96 60V420" stroke="#181818" stroke-miterlimit="240"/>
<path d="M102 60V420" stroke="#181818" stroke-miterlimit="240"/>
<path d="M108 60V420" stroke="#181818" stroke-miterlimit="240"/>
<path d="M114 60V420" stroke="#181818" stroke-miterlimit="240"/>
<path d="M126 60V420" stroke="#181818" stroke-miterlimit="240"/>
<path d="M132 60V420" stroke="#181818" stroke-miterlimit="240"/>
<path d="M138 60V420" stroke="#181818" stroke-miterlimit="240"/>
<path d="M144 60V420" stroke="#181818" stroke-miterlimit="240"/>
<path d="M156 60V420" stroke="#181818" stroke-miterlimit="240"/>
<path d="M162 60V420" stroke="#181818" stroke-miterlimit="240"/>
<path d="M168 60V420" stroke="#181818" stroke-miterlimit="240"/>
<path d="M174 60V420" stroke="#181818" stroke-miterlimit="240"/>
<path d="M186 60V420" stroke="#181818" stroke-miterlimit="240"/>
<path d="M192 60V420" stroke="#181818" stroke-miterlimit="240"/>
<path d="M198 60V420" stroke="#181818" stroke-miterlimit="240"/>
<path d="M204 60V420" stroke="#181818" stroke-miterlimit="240"/>
<path d="M216 60V420" stroke="#181818" stroke-miterlimit="240"/>
<path d="M222 60V420" stroke="#181818" stroke-miterlimit="240"/>
<path d="M228 60V420" stroke="#181818" stroke-miterlimit="240"/>
<path d="M234 60V420" stroke="#181818" stroke-miterlimit="240"/>
<path d="M246 60V420" stroke="#181818" stroke-miterlimit="240"/>
<path d="M252 60V420" stroke="#181818" stroke-miterlimit="240"/>
<path d="M258 60V420" stroke="#181818" stroke-miterlimit="240"/>
<path d="M264 60V420" stroke="#181818" stroke-miterlimit="240"/>
<path d="M276 60V420" stroke="#181818" stroke-miterlimit="240"/>
<path d="M282 60V420" stroke="#181818" stroke-miterlimit="240"/>
<path d="M288 60V420" stroke="#181818" stroke-miterlimit="240"/>
<path d="M294 60V420" stroke="#181818" stroke-miterlimit="240"/>
<path d="M306 60V420" stroke="#181818" stroke-miterlimit="240"/>
<path d="M312 60V420" stroke="#181818" stroke-miterlimit="240"/>
<path d="M318 60V420" stroke="#181818" stroke-miterlimit="240"/>
<path d="M324 60V420" stroke="#181818" stroke-miterlimit="240"/>
<path d="M336 60V420" stroke="#181818" stroke-miterlimit="240"/>
<path d="M342 60V420" stroke="#181818" stroke-miterlimit="240"/>
<path d="M348 60V420" stroke="#181818" stroke-miterlimit="240"/>
<path d="M354 60V420" stroke="#181818" stroke-miterlimit="240"/>
<path d="M366 60V420" stroke="#181818" stroke-miterlimit="240"/>
<path d="M372 60V420" stroke="#181818" stroke-miterlimit="240"/>
<path d="M378 60V420" stroke="#181818" stroke-miterlimit="240"/>
<path d="M384 60V420" stroke="#181818" stroke-miterlimit="240"/>
<path d="M396 60V420" stroke="#181818" stroke-miterlimit="240"/>
<path d="M402 60V420" stroke="#181818" stroke-miterlimit="240"/>
<path d="M408 60V420" stroke="#181818" stroke-miterlimit="240"/>
<path d="M414 60V420" stroke="#181818" stroke-miterlimit="240"/>
<path d="M426 60V420" stroke="#181818" stroke-miterlimit="240"/>
<path d="M432 60V420" stroke="#181818" stroke-miterlimit="240"/>
<path d="M438 60V420" stroke="#181818" stroke-miterlimit="240"/>
<path d="M444 60V420" stroke="#181818" stroke-miterlimit="240"/>
<path d="M456 60V420" stroke="#181818" stroke-miterlimit="240"/>
<path d="M462 60V420" stroke="#181818" stroke-miterlimit="240"/>
<path d="M468 60V420" stroke="#181818" stroke-miterlimit="240"/>
<path d="M474 60V420" stroke="#181818" stroke-miterlimit="240"/>
<path d="M486 60V420" stroke="#181818" stroke-miterlimit="240"/>
<path d="M492 60V420" stroke="#181818" stroke-miterlimit="240"/>
<path d="M498 60V420" stroke="#181818" stroke-miterlimit="240"/>
<path d="M504 60V420" stroke="#181818" stroke-miterlimit="240"/>
<path d="M516 60V420" stroke="#181818" stroke-miterlimit="240"/>
<path d="M522 60V420" stroke="#181818" stroke-miterlimit="240"/>
<path d="M528 60V420" stroke="#181818" stroke-miterlimit="240"/>
<path d="M534 60V420" stroke="#181818" stroke-miterlimit="240"/>
<path d="M546 60V420" stroke="#181818" stroke-miterlimit="240"/>
<path d="M552 60V420" stroke="#181818" stroke-miterlimit="240"/>
<path d="M558 60V420" stroke="#181818" stroke-miterlimit="240"/>
<path d="M564 60V420" stroke="#181818" stroke-miterlimit="240"/>
<path d="M576 60V420" stroke="#181818" stroke-miterlimit="240"/>
<path d="M582 60V420" stroke="#181818" stroke-miterlimit="240"/>
<path d="M588 60V420" stroke="#181818" stroke-miterlimit="240"/>
<path d="M594 60V420" stroke="#181818" stroke-miterlimit="240"/>
<path d="M606 60V420" stroke="#181818" stroke-miterlimit="240"/>
<path d="M612 60V420" stroke="#181818" stroke-miterlimit="240"/>
<path d="M618 60V420" stroke="#181818" stroke-miterlimit="240"/>
<path d="M624 60V420" stroke="#181818" stroke-miterlimit="240"/>
<path d="M636 60V420" stroke="#181818" stroke-miterlimit="240"/>
<path d="M642 60V420" stroke="#181818" stroke-miterlimit="240"/>
<path d="M648 60V420" stroke="#181818" stroke-miterlimit="240"/>
<path d="M654 60V420" stroke="#181818" stroke-miterlimit="240"/>
<path d="M60 90H660" stroke="#262626" stroke-miterlimit="240"/>
<path d="M60 150H660" stroke="#262626" stroke-miterlimit="240"/>
<path d="M60 210H660" stroke="#262626" stroke-miterlimit="240"/>
<path d="M60 270H660" stroke="#262626" stroke-miterlimit="240"/>
<path d="M60 330H660" stroke="#262626" stroke-miterlimit="240"/>
<path d="M60 390H660" stroke="#262626" stroke-miterlimit="240"/>
<path d="M90 60V420" stroke="#262626" stroke-miterlimit="240"/>
<path d="M150 60V420" stroke="#262626" stroke-miterlimit="240"/>
<path d="M210 60V420" stroke="#262626" stroke-miterlimit="240"/>
<path d="M270 60V420" stroke="#262626" stroke-miterlimit="240"/>
<path d="M330 60V420" stroke="#262626" stroke-miterlimit="240"/>
<path d="M390 60V420" stroke="#262626" stroke-miterlimit="240"/>
<path d="M450 60V420" stroke="#262626" stroke-miterlimit="240"/>
<path d="M510 60V420" stroke="#262626" stroke-miterlimit="240"/>
<path d="M570 60V420" stroke="#262626" stroke-miterlimit="240"/>
<path d="M630 60V420" stroke="#262626" stroke-miterlimit="240"/>
<path d="M60 60H660" stroke="#404040" stroke-miterlimit="240"/>
<path d="M60 120H660" stroke="#404040" stroke-miterlimit="240"/>
<path d="M60 180H660" stroke="#404040" stroke-miterlimit="240"/>
<path d="M60 240H660" stroke="#404040" stroke-miterlimit="240"/>
<path d="M60 300H660" stroke="#404040" stroke-miterlimit="240"/>
<path d="M60 360H660" stroke="#404040" stroke-miterlimit="240"/>
<path d="M60 420H660" stroke="#404040" stroke-miterlimit="240"/>
<path d="M60 60V420" stroke="#404040" stroke-miterlimit="240"/>
<path d="M120 60V420" stroke="#404040" stroke-miterlimit="240"/>
<path d="M180 60V420" stroke="#404040" stroke-miterlimit="240"/>
<path d="M240 60V420" stroke="#404040" stroke-miterlimit="240"/>
<path d="M300 60V420" stroke="#404040" stroke-miterlimit="240"/>
<path d="M360 60V420" stroke="#404040" stroke-miterlimit="240"/>
<path d="M420 60V420" stroke="#404040" stroke-miterlimit="240"/>
<path d="M480 60V420" stroke="#404040" stroke-miterlimit="240"/>
<path d="M540 60V420" stroke="#404040" stroke-miterlimit="240"/>
<path d="M600 60V420" stroke="#404040" stroke-miterlimit="240"/>
<path d="M660 60V420" stroke="#404040" stroke-miterlimit="240"/>
<path d="M60 420C145.455 419.783 212.819 329.257 254 263.184C293.609 198.794 325.278 129.848 353.939 60" stroke="white" stroke-width="1.5" stroke-miterlimit="240"/>
<path d="M60 420H653.965" stroke="#F0F0F0" stroke-miterlimit="240"/>
<path d="M660 420C657.16 421.054 653.637 422.852 651.453 424.756L653.173 420L651.453 415.245C653.637 417.149 657.161 418.947 660 420Z" fill="#F0F0F0"/>
<path d="M60 66.0352V420" stroke="#F0F0F0" stroke-miterlimit="240"/>
<path d="M60 60C58.946 62.84 57.148 66.363 55.244 68.547L60 66.827L64.755 68.547C62.851 66.363 61.053 62.839 60 60Z" fill="#F0F0F0"/>
<path d="M343.859 40.8517C344.219 40.9317 344.412 40.9717 344.439 40.9717C344.746 40.9717 345.012 40.6917 345.239 40.1317C345.399 39.6917 345.885 37.3187 346.699 33.0117C347.072 30.9987 347.265 29.9857 347.279 29.9717V29.9117H346.339C345.712 29.9117 345.379 29.8987 345.339 29.8717C345.246 29.8187 345.232 29.6717 345.299 29.4317C345.352 29.2317 345.386 29.1257 345.399 29.1117C345.426 29.0457 345.485 29.0087 345.579 29.0017C345.672 28.9947 345.979 28.9917 346.499 28.9917C347.139 28.9917 347.459 28.9857 347.459 28.9717C347.459 28.9457 347.519 28.6117 347.639 27.9717C347.759 27.3317 347.839 26.9457 347.879 26.8117C348.159 25.5447 348.579 24.6647 349.139 24.1717C349.672 23.7317 350.225 23.5117 350.799 23.5117C351.279 23.5387 351.682 23.6847 352.009 23.9517C352.336 24.2187 352.499 24.5717 352.499 25.0117C352.499 25.3987 352.379 25.7247 352.139 25.9917C351.899 26.2587 351.599 26.3917 351.239 26.3917C350.652 26.3917 350.359 26.1117 350.359 25.5517C350.359 25.0587 350.592 24.6987 351.059 24.4717L351.239 24.3717C350.999 24.2917 350.799 24.2517 350.639 24.2517C350.252 24.2517 349.999 24.5047 349.879 25.0117C349.772 25.4117 349.599 26.2847 349.359 27.6317L349.099 28.9517C349.099 28.9787 349.466 28.9917 350.199 28.9917C350.799 28.9917 351.159 28.9987 351.279 29.0117C351.399 29.0257 351.459 29.0717 351.459 29.1517C351.459 29.2987 351.412 29.5117 351.319 29.7917C351.292 29.8587 351.229 29.8947 351.129 29.9017C351.029 29.9087 350.672 29.9117 350.059 29.9117H348.939L348.479 32.3517C347.985 34.8987 347.679 36.4377 347.559 36.9717C347.105 38.9847 346.499 40.3517 345.739 41.0717C345.245 41.4987 344.759 41.7117 344.279 41.7117C343.799 41.7117 343.399 41.5787 343.079 41.3117C342.759 41.0447 342.599 40.6917 342.599 40.2517C342.599 39.8517 342.719 39.5147 342.959 39.2417C343.199 38.9687 343.499 38.8317 343.859 38.8317C344.446 38.8317 344.739 39.1117 344.739 39.6717C344.739 40.1647 344.505 40.5247 344.039 40.7517L343.859 40.8517Z" fill="white"/>
<path d="M357.96 42.4318C357.96 42.5518 357.839 42.6118 357.599 42.6118H357.339C357.245 42.5318 357.06 42.3718 356.78 42.1318C354.38 39.9448 353.178 36.7718 353.178 32.6118C353.178 30.9858 353.371 29.4988 353.758 28.1518C354.371 26.0588 355.379 24.3718 356.779 23.0918C356.871 23.0118 356.978 22.9218 357.097 22.8218C357.218 22.7218 357.298 22.6518 357.337 22.6118H357.597C357.757 22.6118 357.857 22.6318 357.898 22.6718C357.937 22.7118 357.959 22.7518 357.959 22.7918C357.959 22.8448 357.885 22.9448 357.738 23.0918C355.672 25.2788 354.638 28.4518 354.638 32.6118C354.638 36.7718 355.671 39.9448 357.738 42.1318C357.884 42.2778 357.96 42.3788 357.96 42.4318Z" fill="white"/>
<path d="M360.239 32.052C360.159 31.972 360.119 31.899 360.119 31.832C360.172 31.472 360.379 31.012 360.739 30.452C361.365 29.506 362.152 28.959 363.098 28.812C363.286 28.785 363.425 28.772 363.519 28.772C363.985 28.772 364.415 28.892 364.809 29.132C365.202 29.372 365.485 29.672 365.659 30.032C365.832 29.805 365.939 29.665 365.979 29.612C366.472 29.052 367.039 28.772 367.678 28.772C368.225 28.772 368.668 28.929 369.008 29.242C369.348 29.555 369.519 29.939 369.519 30.392C369.519 30.806 369.402 31.152 369.168 31.432C368.935 31.712 368.625 31.852 368.238 31.852C367.984 31.852 367.778 31.779 367.618 31.632C367.458 31.486 367.378 31.292 367.378 31.052C367.378 30.439 367.711 30.019 368.378 29.792C368.378 29.779 368.305 29.732 368.158 29.652C368.024 29.572 367.831 29.532 367.578 29.532C367.404 29.532 367.278 29.546 367.198 29.572C366.691 29.785 366.318 30.225 366.078 30.892C366.038 30.999 365.845 31.742 365.498 33.122C365.151 34.502 364.965 35.279 364.938 35.452C364.898 35.652 364.877 35.852 364.877 36.052C364.877 36.372 364.971 36.626 365.157 36.812C365.343 36.998 365.59 37.092 365.897 37.092C366.457 37.092 366.963 36.856 367.417 36.382C367.87 35.909 368.177 35.385 368.337 34.812C368.377 34.679 368.417 34.602 368.457 34.582C368.497 34.562 368.603 34.552 368.777 34.552C369.03 34.552 369.157 34.606 369.157 34.712C369.157 34.725 369.143 34.799 369.117 34.932C368.89 35.759 368.424 36.479 367.717 37.092C367.09 37.586 366.431 37.832 365.738 37.832C364.804 37.832 364.097 37.412 363.618 36.572C363.231 37.172 362.738 37.572 362.138 37.772C362.019 37.798 361.845 37.812 361.618 37.812C360.845 37.812 360.298 37.539 359.978 36.992C359.844 36.765 359.778 36.499 359.778 36.192C359.778 35.792 359.898 35.452 360.137 35.172C360.377 34.892 360.684 34.752 361.058 34.752C361.63 34.752 361.917 35.032 361.917 35.592C361.917 36.086 361.684 36.446 361.217 36.672L361.117 36.722C361.077 36.742 361.044 36.759 361.017 36.772C360.99 36.785 360.97 36.792 360.956 36.792L360.896 36.812C360.896 36.852 360.996 36.912 361.196 36.992C361.356 37.059 361.529 37.092 361.716 37.092C362.196 37.092 362.61 36.792 362.956 36.192C363.102 35.952 363.362 35.086 363.736 33.592C363.816 33.285 363.902 32.946 363.996 32.572C364.089 32.199 364.159 31.912 364.206 31.712C364.253 31.512 364.283 31.392 364.296 31.352C364.362 30.992 364.397 30.732 364.397 30.572C364.397 30.252 364.31 29.999 364.136 29.812C363.963 29.625 363.723 29.532 363.416 29.532C362.816 29.532 362.296 29.762 361.856 30.222C361.416 30.682 361.109 31.212 360.936 31.812C360.909 31.932 360.878 32.002 360.845 32.022C360.812 32.042 360.702 32.052 360.516 32.052H360.236H360.239Z" fill="white"/>
<path d="M371.719 22.6318L371.799 22.6118H372.238C372.332 22.6918 372.518 22.8518 372.799 23.0918C375.198 25.2788 376.399 28.4518 376.399 32.6118C376.399 34.2518 376.206 35.7318 375.819 37.0518C375.206 39.1578 374.199 40.8518 372.799 42.1318C372.705 42.2118 372.599 42.3018 372.479 42.4018C372.359 42.5018 372.279 42.5718 372.239 42.6118H372C371.84 42.6118 371.736 42.5978 371.689 42.5718C371.642 42.5448 371.619 42.4788 371.619 42.3718C371.633 42.3588 371.706 42.2718 371.84 42.1118C373.906 39.9648 374.94 36.7988 374.94 32.6118C374.94 28.4248 373.907 25.2588 371.84 23.1118C371.706 22.9518 371.633 22.8648 371.619 22.8518C371.619 22.7448 371.652 22.6718 371.72 22.6318H371.719Z" fill="white"/>
<path d="M64.379 31.219C64.566 31.219 64.725 31.269 64.859 31.369C64.992 31.469 65.059 31.606 65.059 31.779C65.059 31.952 64.732 33.353 64.079 35.979C63.426 38.606 63.052 40.045 62.959 40.299C62.746 40.952 62.402 41.556 61.929 42.109C61.455 42.662 60.906 43.099 60.279 43.419C59.559 43.766 58.885 43.939 58.259 43.939C57.245 43.939 56.559 43.619 56.199 42.979C56.066 42.792 55.999 42.525 55.999 42.179C55.999 41.726 56.125 41.372 56.379 41.119C56.659 40.866 56.952 40.739 57.259 40.739C57.845 40.739 58.139 41.019 58.139 41.579C58.139 42.072 57.906 42.432 57.439 42.659C57.412 42.672 57.379 42.689 57.339 42.709C57.299 42.729 57.265 42.746 57.239 42.759C57.212 42.772 57.192 42.779 57.179 42.779L57.119 42.799C57.159 42.879 57.299 42.966 57.539 43.059C57.752 43.139 57.966 43.179 58.179 43.179H58.339C58.566 43.179 58.739 43.166 58.859 43.139C59.365 42.993 59.845 42.652 60.299 42.119C60.752 41.586 61.099 40.946 61.339 40.199C61.485 39.759 61.559 39.499 61.559 39.419C61.559 39.406 61.546 39.409 61.519 39.429C61.492 39.449 61.452 39.479 61.399 39.519C60.906 39.879 60.359 40.059 59.759 40.059C59.079 40.059 58.519 39.899 58.079 39.579C57.639 39.259 57.352 38.799 57.219 38.199C57.205 38.106 57.199 37.899 57.199 37.579C57.199 37.259 57.212 37.012 57.239 36.839C57.332 36.266 57.639 35.286 58.159 33.899C58.452 33.112 58.599 32.566 58.599 32.259C58.599 32.072 58.582 31.943 58.549 31.869C58.515 31.796 58.439 31.759 58.319 31.759H58.219C57.912 31.759 57.619 31.899 57.339 32.179C56.912 32.606 56.586 33.246 56.359 34.099C56.359 34.113 56.352 34.136 56.339 34.169C56.325 34.202 56.316 34.222 56.309 34.229L56.279 34.259C56.265 34.273 56.242 34.279 56.209 34.279H55.679C55.572 34.173 55.552 34.019 55.619 33.819C55.899 32.886 56.319 32.159 56.879 31.639C57.332 31.213 57.805 30.999 58.299 30.999C58.859 30.999 59.305 31.152 59.639 31.459C59.972 31.766 60.139 32.192 60.139 32.739C60.112 32.992 60.092 33.133 60.079 33.159C60.079 33.239 59.979 33.526 59.779 34.019C59.232 35.499 58.905 36.586 58.799 37.279C58.785 37.386 58.779 37.539 58.779 37.739C58.779 38.246 58.859 38.633 59.019 38.899C59.179 39.166 59.472 39.299 59.899 39.299C60.206 39.299 60.496 39.219 60.769 39.059C61.042 38.899 61.249 38.742 61.389 38.589C61.529 38.436 61.705 38.226 61.919 37.959C61.919 37.946 62.043 37.442 62.289 36.449C62.536 35.456 62.792 34.446 63.059 33.419C63.326 32.392 63.479 31.839 63.519 31.759C63.692 31.399 63.979 31.219 64.379 31.219Z" fill="white"/>
<path d="M690.257 417.837C690.177 417.757 690.137 417.685 690.137 417.617C690.191 417.257 690.397 416.797 690.757 416.237C691.384 415.291 692.17 414.744 693.117 414.597C693.304 414.57 693.443 414.557 693.537 414.557C694.004 414.557 694.433 414.676 694.827 414.916C695.22 415.156 695.504 415.456 695.677 415.816C695.85 415.589 695.957 415.449 695.997 415.396C696.49 414.835 697.057 414.556 697.697 414.556C698.243 414.556 698.686 414.712 699.027 415.026C699.367 415.339 699.537 415.722 699.537 416.175C699.537 416.589 699.42 416.936 699.186 417.215C698.953 417.495 698.643 417.636 698.256 417.636C698.003 417.636 697.796 417.563 697.636 417.415C697.476 417.269 697.396 417.075 697.396 416.835C697.396 416.222 697.73 415.802 698.396 415.575C698.396 415.562 698.323 415.515 698.176 415.435C698.043 415.355 697.849 415.315 697.596 415.315C697.423 415.315 697.296 415.329 697.216 415.355C696.709 415.568 696.336 416.008 696.096 416.674C696.056 416.781 695.863 417.525 695.516 418.904C695.169 420.283 694.983 421.061 694.956 421.234C694.916 421.434 694.895 421.634 694.895 421.834C694.895 422.154 694.989 422.408 695.175 422.595C695.361 422.782 695.609 422.874 695.915 422.874C696.475 422.874 696.981 422.638 697.435 422.164C697.888 421.691 698.196 421.168 698.355 420.595C698.395 420.461 698.435 420.385 698.475 420.365C698.515 420.345 698.621 420.335 698.795 420.335C699.048 420.335 699.175 420.389 699.175 420.495C699.175 420.509 699.161 420.582 699.135 420.715C698.908 421.542 698.442 422.262 697.736 422.875C697.109 423.369 696.449 423.615 695.756 423.615C694.822 423.615 694.116 423.195 693.636 422.355C693.249 422.955 692.756 423.355 692.157 423.555C692.037 423.581 691.863 423.595 691.636 423.595C690.863 423.595 690.317 423.322 689.996 422.775C689.862 422.548 689.796 422.282 689.796 421.975C689.796 421.575 689.916 421.235 690.156 420.954C690.395 420.674 690.702 420.534 691.076 420.534C691.649 420.534 691.935 420.814 691.935 421.374C691.935 421.868 691.702 422.228 691.236 422.454C691.209 422.468 691.175 422.484 691.135 422.504C691.095 422.525 691.062 422.541 691.035 422.555C691.008 422.568 690.988 422.575 690.974 422.575L690.914 422.596C690.914 422.636 691.014 422.696 691.214 422.776C691.374 422.842 691.547 422.876 691.735 422.876C692.214 422.876 692.628 422.576 692.974 421.977C693.12 421.737 693.381 420.871 693.754 419.376C693.834 419.069 693.921 418.73 694.014 418.356C694.108 417.983 694.177 417.696 694.224 417.496C694.271 417.296 694.301 417.176 694.315 417.137C694.381 416.777 694.415 416.517 694.415 416.357C694.415 416.037 694.328 415.784 694.155 415.597C693.981 415.41 693.741 415.317 693.434 415.317C692.834 415.317 692.315 415.546 691.874 416.006C691.433 416.466 691.127 416.996 690.954 417.597C690.927 417.716 690.897 417.786 690.864 417.807C690.83 417.827 690.72 417.836 690.534 417.836H690.254L690.257 417.837Z" fill="white"/>
<path d="M205.794 452.306C205.807 452.306 206.291 452.269 207.244 452.196C208.197 452.123 208.681 452.087 208.694 452.087C208.854 452.087 208.934 452.14 208.934 452.246C208.934 452.34 208.444 454.356 207.464 458.297C206.484 462.236 205.987 464.24 205.974 464.307C205.96 464.373 205.954 464.474 205.954 464.607C205.954 465.168 206.141 465.447 206.514 465.447C206.634 465.434 206.767 465.374 206.914 465.267C207.194 465 207.467 464.361 207.734 463.347C207.814 463.08 207.881 462.941 207.934 462.927C207.96 462.913 208.027 462.906 208.134 462.906H208.214C208.467 462.906 208.594 462.96 208.594 463.066C208.594 463.12 208.574 463.226 208.534 463.386C208.241 464.506 207.881 465.28 207.454 465.706C207.147 466.012 206.774 466.166 206.334 466.166C205.494 466.166 204.907 465.839 204.574 465.186C204.507 465.013 204.474 464.933 204.474 464.946C204.46 464.933 204.434 464.94 204.394 464.967C204.367 464.993 204.341 465.02 204.314 465.047C203.674 465.647 203.041 466.013 202.414 466.147C202.334 466.161 202.167 466.168 201.914 466.168C201.034 466.168 200.307 465.801 199.734 465.067C199.334 464.481 199.134 463.734 199.134 462.827C199.134 461.588 199.587 460.361 200.494 459.147C201.321 458.134 202.241 457.501 203.254 457.247C203.534 457.168 203.807 457.128 204.074 457.128C204.807 457.128 205.367 457.407 205.754 457.968C205.821 458.048 205.854 458.074 205.854 458.048C205.867 457.994 206.051 457.265 206.404 455.858C206.757 454.452 206.941 453.715 206.954 453.648C206.954 453.488 206.914 453.381 206.834 453.328C206.687 453.275 206.421 453.242 206.034 453.228H205.614C205.534 453.148 205.49 453.095 205.484 453.068C205.477 453.042 205.494 452.915 205.534 452.688C205.6 452.435 205.687 452.308 205.794 452.308V452.306ZM205.514 459.446C205.221 458.393 204.721 457.866 204.014 457.866C203.48 457.866 203.011 458.094 202.604 458.547C202.197 459 201.887 459.52 201.674 460.107C201.287 461.161 201.014 462.254 200.854 463.387C200.854 463.427 200.851 463.5 200.844 463.607C200.837 463.714 200.834 463.794 200.834 463.847C200.834 464.326 200.937 464.714 201.144 465.007C201.351 465.3 201.654 465.446 202.054 465.446C202.761 465.446 203.5 464.967 204.274 464.007L204.434 463.786C204.554 463.307 204.734 462.583 204.974 461.616C205.214 460.65 205.394 459.927 205.514 459.446Z" fill="#FC6255"/>
<path d="M210.034 460.405C209.954 460.325 209.914 460.253 209.914 460.185C209.967 459.825 210.174 459.365 210.534 458.805C211.16 457.859 211.947 457.312 212.894 457.165C213.081 457.138 213.221 457.125 213.314 457.125C213.781 457.125 214.21 457.244 214.604 457.484C214.997 457.724 215.281 458.024 215.454 458.384C215.627 458.157 215.734 458.017 215.774 457.964C216.267 457.403 216.834 457.124 217.474 457.124C218.021 457.124 218.464 457.28 218.804 457.594C219.144 457.908 219.315 458.29 219.315 458.743C219.315 459.157 219.198 459.504 218.964 459.783C218.731 460.063 218.421 460.204 218.034 460.204C217.78 460.204 217.574 460.131 217.414 459.983C217.254 459.837 217.174 459.643 217.174 459.403C217.174 458.79 217.507 458.37 218.174 458.143C218.174 458.13 218.101 458.083 217.954 458.003C217.82 457.923 217.627 457.883 217.374 457.883C217.2 457.883 217.074 457.897 216.994 457.923C216.487 458.136 216.114 458.576 215.874 459.242C215.834 459.349 215.641 460.093 215.294 461.472C214.947 462.851 214.761 463.629 214.734 463.802C214.694 464.002 214.674 464.202 214.674 464.402C214.674 464.722 214.767 464.976 214.954 465.163C215.141 465.35 215.387 465.442 215.694 465.442C216.254 465.442 216.761 465.206 217.214 464.732C217.667 464.259 217.974 463.736 218.134 463.163C218.174 463.029 218.214 462.953 218.254 462.933C218.294 462.913 218.4 462.903 218.574 462.903C218.827 462.903 218.954 462.957 218.954 463.063C218.954 463.077 218.94 463.15 218.914 463.283C218.687 464.11 218.221 464.83 217.514 465.443C216.887 465.937 216.227 466.183 215.535 466.183C214.601 466.183 213.895 465.763 213.415 464.923C213.028 465.523 212.535 465.923 211.935 466.123C211.815 466.149 211.642 466.163 211.415 466.163C210.642 466.163 210.095 465.89 209.775 465.343C209.642 465.116 209.575 464.85 209.575 464.543C209.575 464.143 209.695 463.803 209.935 463.522C210.175 463.242 210.481 463.102 210.855 463.102C211.428 463.102 211.715 463.382 211.715 463.942C211.715 464.436 211.482 464.796 211.015 465.022C210.988 465.036 210.955 465.052 210.915 465.072C210.875 465.093 210.842 465.109 210.815 465.123C210.788 465.136 210.768 465.143 210.755 465.143L210.695 465.164C210.695 465.204 210.795 465.264 210.995 465.344C211.155 465.41 211.328 465.444 211.515 465.444C211.995 465.444 212.408 465.144 212.755 464.545C212.901 464.305 213.162 463.439 213.535 461.944C213.615 461.637 213.702 461.298 213.795 460.924C213.888 460.55 213.958 460.264 214.005 460.064C214.052 459.864 214.082 459.744 214.095 459.705C214.161 459.345 214.195 459.085 214.195 458.925C214.195 458.605 214.108 458.352 213.935 458.165C213.762 457.978 213.521 457.885 213.215 457.885C212.615 457.885 212.095 458.114 211.655 458.574C211.215 459.034 210.908 459.564 210.735 460.165C210.708 460.284 210.678 460.354 210.645 460.375C210.611 460.395 210.501 460.404 210.315 460.404H210.035L210.034 460.405Z" fill="#FC6255"/>
<path d="M269.408 452.304C269.421 452.304 269.905 452.268 270.858 452.195C271.811 452.122 272.295 452.085 272.308 452.085C272.468 452.085 272.548 452.139 272.548 452.245C272.548 452.339 272.058 454.355 271.078 458.295C270.098 462.235 269.601 464.238 269.588 464.305C269.574 464.372 269.568 464.472 269.568 464.606C269.568 465.166 269.755 465.446 270.128 465.446C270.248 465.432 270.381 465.373 270.528 465.265C270.808 464.998 271.081 464.359 271.348 463.345C271.428 463.078 271.495 462.939 271.548 462.925C271.574 462.912 271.641 462.905 271.748 462.905H271.828C272.081 462.905 272.208 462.959 272.208 463.065C272.208 463.118 272.188 463.224 272.148 463.384C271.855 464.504 271.495 465.278 271.068 465.704C270.761 466.011 270.388 466.164 269.948 466.164C269.108 466.164 268.521 465.838 268.188 465.185C268.121 465.011 268.088 464.931 268.088 464.945C268.074 464.931 268.048 464.938 268.008 464.965C267.981 464.992 267.955 465.019 267.928 465.045C267.288 465.646 266.655 466.012 266.028 466.146C265.948 466.159 265.781 466.166 265.528 466.166C264.648 466.166 263.921 465.8 263.348 465.066C262.948 464.479 262.748 463.733 262.748 462.826C262.748 461.586 263.201 460.359 264.108 459.146C264.935 458.132 265.855 457.499 266.868 457.246C267.148 457.166 267.421 457.126 267.688 457.126C268.421 457.126 268.981 457.406 269.368 457.966C269.435 458.046 269.468 458.073 269.468 458.046C269.481 457.993 269.665 457.263 270.018 455.857C270.371 454.45 270.555 453.713 270.568 453.647C270.568 453.487 270.528 453.38 270.448 453.327C270.301 453.273 270.035 453.24 269.648 453.226H269.228C269.148 453.147 269.104 453.093 269.098 453.067C269.091 453.04 269.108 452.914 269.148 452.687C269.214 452.433 269.301 452.306 269.408 452.306V452.304ZM269.128 459.445C268.835 458.391 268.335 457.865 267.628 457.865C267.094 457.865 266.625 458.092 266.218 458.545C265.811 458.998 265.501 459.519 265.288 460.106C264.901 461.159 264.628 462.252 264.468 463.385C264.468 463.425 264.465 463.498 264.458 463.606C264.451 463.712 264.448 463.793 264.448 463.845C264.448 464.325 264.551 464.712 264.758 465.005C264.965 465.299 265.268 465.445 265.668 465.445C266.375 465.445 267.114 464.965 267.888 464.005L268.048 463.785C268.168 463.305 268.348 462.582 268.588 461.615C268.828 460.648 269.008 459.925 269.128 459.445Z" fill="#FC6255"/>
<path d="M273.648 460.405C273.568 460.325 273.528 460.252 273.528 460.185C273.581 459.825 273.788 459.365 274.148 458.804C274.774 457.858 275.561 457.311 276.508 457.164C276.695 457.138 276.835 457.124 276.928 457.124C277.395 457.124 277.824 457.244 278.218 457.484C278.611 457.723 278.895 458.024 279.068 458.383C279.241 458.156 279.348 458.017 279.388 457.963C279.881 457.403 280.448 457.123 281.088 457.123C281.635 457.123 282.078 457.28 282.418 457.593C282.758 457.906 282.929 458.29 282.929 458.743C282.929 459.156 282.812 459.503 282.578 459.783C282.344 460.063 282.035 460.203 281.648 460.203C281.394 460.203 281.188 460.13 281.028 459.983C280.868 459.836 280.788 459.643 280.788 459.403C280.788 458.79 281.121 458.37 281.788 458.143C281.788 458.129 281.715 458.082 281.568 458.002C281.434 457.922 281.241 457.882 280.988 457.882C280.814 457.882 280.688 457.896 280.608 457.922C280.101 458.136 279.728 458.575 279.488 459.242C279.448 459.348 279.255 460.092 278.908 461.471C278.561 462.852 278.375 463.628 278.348 463.801C278.308 464.001 278.288 464.201 278.288 464.402C278.288 464.721 278.381 464.975 278.568 465.162C278.755 465.349 279.001 465.442 279.308 465.442C279.868 465.442 280.375 465.206 280.828 464.732C281.281 464.258 281.588 463.735 281.748 463.162C281.788 463.029 281.828 462.952 281.868 462.933C281.908 462.912 282.014 462.903 282.188 462.903C282.441 462.903 282.568 462.957 282.568 463.063C282.568 463.076 282.554 463.15 282.528 463.283C282.301 464.11 281.835 464.83 281.128 465.443C280.501 465.936 279.841 466.183 279.149 466.183C278.215 466.183 277.509 465.762 277.029 464.922C276.642 465.523 276.149 465.922 275.549 466.122C275.429 466.148 275.256 466.162 275.029 466.162C274.256 466.162 273.709 465.889 273.389 465.342C273.256 465.115 273.189 464.849 273.189 464.542C273.189 464.143 273.309 463.802 273.549 463.522C273.789 463.242 274.095 463.102 274.469 463.102C275.042 463.102 275.329 463.381 275.329 463.942C275.329 464.435 275.096 464.796 274.629 465.022C274.602 465.035 274.569 465.051 274.529 465.072C274.489 465.092 274.456 465.109 274.429 465.122C274.402 465.136 274.382 465.143 274.369 465.143L274.309 465.163C274.309 465.203 274.409 465.263 274.609 465.343C274.769 465.41 274.942 465.444 275.129 465.444C275.609 465.444 276.022 465.144 276.369 464.544C276.515 464.304 276.776 463.438 277.149 461.944C277.229 461.637 277.316 461.298 277.409 460.923C277.502 460.55 277.572 460.263 277.619 460.064C277.666 459.864 277.696 459.744 277.709 459.704C277.775 459.344 277.809 459.084 277.809 458.924C277.809 458.605 277.722 458.351 277.549 458.164C277.376 457.977 277.135 457.884 276.829 457.884C276.229 457.884 275.709 458.114 275.269 458.574C274.829 459.034 274.522 459.564 274.349 460.164C274.322 460.284 274.292 460.354 274.259 460.374C274.225 460.395 274.115 460.404 273.929 460.404H273.649L273.648 460.405Z" fill="#FC6255"/>
<path d="M240 420V285.02" stroke="white" stroke-miterlimit="240" stroke-dasharray="6 6"/>
<path d="M180.01 360.156L180 420" stroke="#F0F0F0" stroke-miterlimit="240" stroke-dasharray="6 6"/>
<path d="M300 420L300.297 179.824" stroke="#F0F0F0" stroke-miterlimit="240" stroke-dasharray="6 6"/>
<g clip-path="url(#clip1_714_193)">
<path d="M179.931 427C180.165 427 180.314 427.107 180.381 427.321C180.447 427.534 180.519 427.905 180.596 428.432C180.674 428.959 180.789 429.419 180.943 429.815C182.042 432.679 184.221 434.111 187.479 434.111L201.509 434.111C205.654 434.111 208.314 436.099 209.491 440.074C210.666 436.099 213.193 434.111 217.068 434.111L231.407 434.111C232.351 434.111 233.065 434.078 233.546 434.012C234.896 433.781 236.062 433.144 237.045 432.098C238.028 431.053 238.616 429.757 238.81 428.209C238.81 428.176 238.82 428.081 238.839 427.926C238.858 427.77 238.877 427.658 238.897 427.593C238.916 427.526 238.946 427.436 238.985 427.321C239.025 427.205 239.096 427.123 239.196 427.074C239.296 427.024 239.406 427 239.528 427C240.03 427 239.675 430.667 238.463 432.59C237.25 434.512 235.49 435.596 233.182 435.84C232.794 435.873 232.222 435.889 231.466 435.889L217.359 435.889C216.048 435.889 214.901 436.107 213.917 436.543C212.934 436.98 212.205 437.543 211.733 438.235C211.261 438.926 210.919 439.507 210.707 439.976C210.495 440.445 210.349 440.918 210.274 441.396C210.274 441.495 210.263 441.639 210.244 441.828C210.225 442.017 210.191 442.169 210.143 442.285C210.095 442.4 210.052 442.516 210.013 442.63C209.975 442.746 209.907 442.836 209.81 442.902C209.714 442.967 209.607 443.001 209.492 443.001C209.338 443.001 209.212 442.977 209.116 442.927C209.02 442.877 208.947 442.787 208.899 442.655C208.851 442.524 208.817 442.388 208.798 442.248C208.779 442.109 208.75 441.923 208.712 441.692C208.673 441.461 208.635 441.248 208.596 441.05C208.326 439.832 207.719 438.733 206.775 437.753C205.829 436.774 204.624 436.186 203.159 435.988C202.774 435.922 202.195 435.889 201.424 435.889L187.827 435.889C187.053 435.889 186.435 435.86 185.972 435.803C185.51 435.746 184.863 435.526 184.032 435.143C183.201 434.76 182.455 434.202 181.794 433.469C179.598 431.443 179.549 427 179.931 427Z" fill="#FC6255"/>
</g>
<g clip-path="url(#clip2_714_193)">
<path d="M240.182 427C240.416 427 240.565 427.107 240.632 427.321C240.698 427.534 240.77 427.905 240.847 428.432C240.925 428.959 241.04 429.419 241.194 429.815C242.293 432.679 244.472 434.111 247.73 434.111L261.76 434.111C265.905 434.111 268.565 436.099 269.742 440.074C270.917 436.099 273.444 434.111 277.319 434.111L291.658 434.111C292.602 434.111 293.316 434.078 293.797 434.012C295.147 433.781 296.313 433.144 297.296 432.098C298.279 431.053 298.867 429.757 299.061 428.209C299.061 428.176 299.071 428.081 299.09 427.926C299.109 427.77 299.128 427.658 299.148 427.593C299.167 427.526 299.197 427.436 299.236 427.321C299.276 427.205 299.347 427.123 299.447 427.074C299.547 427.024 299.657 427 299.779 427C300.281 427 299.926 430.667 298.714 432.59C297.501 434.512 295.741 435.596 293.433 435.84C293.045 435.873 292.473 435.889 291.717 435.889L277.61 435.889C276.299 435.889 275.152 436.107 274.168 436.543C273.185 436.98 272.456 437.543 271.984 438.235C271.512 438.926 271.17 439.507 270.958 439.976C270.746 440.445 270.6 440.918 270.525 441.396C270.525 441.495 270.514 441.639 270.495 441.828C270.476 442.017 270.442 442.169 270.394 442.285C270.346 442.4 270.303 442.516 270.264 442.63C270.226 442.746 270.158 442.836 270.061 442.902C269.965 442.967 269.858 443.001 269.743 443.001C269.589 443.001 269.463 442.977 269.367 442.927C269.271 442.877 269.198 442.787 269.15 442.655C269.102 442.524 269.068 442.388 269.049 442.248C269.03 442.109 269.001 441.923 268.963 441.692C268.924 441.461 268.886 441.248 268.847 441.05C268.577 439.832 267.97 438.733 267.026 437.753C266.08 436.774 264.875 436.186 263.41 435.988C263.025 435.922 262.446 435.889 261.675 435.889L248.078 435.889C247.304 435.889 246.686 435.86 246.223 435.803C245.761 435.746 245.114 435.526 244.283 435.143C243.452 434.76 242.706 434.202 242.045 433.469C239.849 431.443 239.8 427 240.182 427Z" fill="#FC6255"/>
</g>
</g>
<defs>
<clipPath id="clip0_714_193">
<rect width="720" height="480" fill="white"/>
</clipPath>
<clipPath id="clip1_714_193">
<rect width="16" height="60" fill="white" transform="translate(239.749 427) rotate(90)"/>
</clipPath>
<clipPath id="clip2_714_193">
<rect width="16" height="60" fill="white" transform="translate(300 427) rotate(90)"/>
</clipPath>
</defs>
</svg>
