<?xml version="1.0" encoding="utf-8"?>
<!-- Generator: Adobe Illustrator 25.2.3, SVG Export Plug-In . SVG Version: 6.00 Build 0)  -->
<svg version="1.1" id="Layer_1" xmlns="http://www.w3.org/2000/svg" xmlns:xlink="http://www.w3.org/1999/xlink" x="0px" y="0px"
	 viewBox="0 0 1920 1080" style="enable-background:new 0 0 1920 1080;" xml:space="preserve">
<style type="text/css">
	.st0{fill:#FFFFFF;}
	.st1{fill:#FFFFFF;stroke:#000000;stroke-miterlimit:10;}
	.st2{fill:#15E3FF;}
	.st3{opacity:0.8;fill:#29F0FF;}
	.st4{fill:#FF6464;stroke:#000000;stroke-miterlimit:10;}
	.st5{fill:#617FFF;stroke:#000000;stroke-miterlimit:10;}
	.st6{fill:#8CFF61;stroke:#000000;stroke-miterlimit:10;}
	.st7{fill:#FFF800;}
	.st8{fill:#FFFF00;}
</style>
<g id="grid">
	<g>
		<rect x="0.5" y="0.5" width="1919" height="1079"/>
		<path d="M1919,1v1078H1V1H1919 M1920,0H0v1080h1920V0L1920,0z"/>
	</g>
	<g>
		<rect x="273.6" y="537.6" class="st0" width="1372.4" height="4.1"/>
	</g>
	<g>
		<rect x="958" y="42" class="st0" width="3" height="996"/>
	</g>
	<g>
		
			<rect x="417.5" y="540.5" transform="matrix(0.7577 -0.6526 0.6526 0.7577 -121.7202 756.1356)" class="st0" width="1080" height="3"/>
	</g>
	<polygon class="st1" points="269.6,537.4 281.6,558.8 331.7,516 	"/>
	<polygon class="st1" points="1652.9,540.1 1640.8,518.7 1590.9,561.5 	"/>
	<polygon class="st1" points="959.1,10.9 937.7,48 980.5,48 	"/>
	<polygon class="st1" points="959.4,1062.3 980.8,1025.2 937.9,1025.2 	"/>
	<polygon class="st1" points="516.1,925.6 580.5,888.5 537.7,888.5 	"/>
	<polygon class="st1" points="1388.4,170.4 1323.9,207.5 1366.8,207.5 	"/>
	<g>
		<rect x="937.5" y="697.8" class="st2" width="44.5" height="1.4"/>
	</g>
	<g>
		<rect x="938.7" y="855.5" class="st2" width="44.5" height="1.4"/>
	</g>
	<g>
		<rect x="935.7" y="378.5" class="st2" width="44.5" height="1.4"/>
	</g>
	<g>
		<rect x="935.8" y="219.7" class="st2" width="44.5" height="1.4"/>
	</g>
	<g>
		<rect x="936.1" y="61" class="st2" width="44.5" height="1.4"/>
	</g>
	<g>
		<rect x="939.1" y="1015.1" class="st2" width="44.5" height="1.4"/>
	</g>
	<g>
		<rect x="810.5" y="647.4" class="st2" width="44.5" height="1.4"/>
	</g>
	<g>
		<rect x="547.2" y="876.1" class="st2" width="44.5" height="1.4"/>
	</g>
	<g>
		<rect x="684.2" y="757.2" class="st2" width="44.5" height="1.4"/>
	</g>
	<g>
		<rect x="1059.6" y="432.2" class="st2" width="44.5" height="1.4"/>
	</g>
	<g>
		<rect x="1184.2" y="325.9" class="st2" width="44.5" height="1.4"/>
	</g>
	<g>
		<rect x="1309.2" y="219.2" class="st2" width="44.5" height="1.4"/>
	</g>
	<g>
		
			<rect x="1103" y="538.2" transform="matrix(0.7589 -0.6512 0.6512 0.7589 -79.9478 861.7299)" class="st2" width="41.6" height="1.3"/>
	</g>
	<g>
		
			<rect x="1266.4" y="538.5" transform="matrix(0.7589 -0.6512 0.6512 0.7589 -40.7323 968.2149)" class="st2" width="41.6" height="1.3"/>
	</g>
	<g>
		
			<rect x="1430.1" y="537.9" transform="matrix(0.7589 -0.6512 0.6512 0.7589 -0.9156 1074.6893)" class="st2" width="41.6" height="1.3"/>
	</g>
	<g>
		
			<rect x="777.1" y="539" transform="matrix(0.7589 -0.6512 0.6512 0.7589 -159.045 649.6771)" class="st2" width="41.6" height="1.3"/>
	</g>
	<g>
		
			<rect x="614.1" y="539" transform="matrix(0.7589 -0.6512 0.6512 0.7589 -198.3196 543.5743)" class="st2" width="41.6" height="1.3"/>
	</g>
	<g>
		
			<rect x="450.6" y="539.8" transform="matrix(0.7589 -0.6512 0.6512 0.7589 -238.3105 437.2816)" class="st2" width="41.6" height="1.3"/>
	</g>
</g>
<rect x="954.4" y="340.9" transform="matrix(0.6662 -0.7458 0.7458 0.6662 -78.0996 890.2012)" class="st3" width="1.7" height="382.9"/>
<rect x="895.3" y="-86.9" transform="matrix(-0.1218 0.9926 -0.9926 -0.1218 1473.8433 -359.8435)" class="st3" width="1.7" height="1118.1"/>
<rect x="867" y="-113.1" transform="matrix(-0.1218 0.9926 -0.9926 -0.1218 1416.5374 -360.7728)" class="st3" width="1.7" height="1118.7"/>
<rect x="953.7" y="-36" transform="matrix(-0.1218 0.9926 -0.9926 -0.1218 1590.4537 -360.0047)" class="st3" width="1.6" height="1119.2"/>
<rect x="1037.7" y="39.6" transform="matrix(-0.1218 0.9926 -0.9926 -0.1218 1759.7522 -358.6565)" class="st3" width="1.8" height="1119.2"/>
<rect x="1009.1" y="14.1" transform="matrix(-0.1218 0.9926 -0.9926 -0.1218 1702.0095 -359.3233)" class="st3" width="1.8" height="1118.3"/>
<rect x="979.7" y="-12.2" transform="matrix(0.1218 -0.9926 0.9926 0.1218 317.8806 1453.9381)" class="st3" width="1.8" height="1119"/>
<rect x="1066.1" y="65.4" transform="matrix(-0.1218 0.9926 -0.9926 -0.1218 1816.9325 -358.3246)" class="st3" width="1.8" height="1118.4"/>
<rect x="924.8" y="-61.4" transform="matrix(-0.1218 0.9926 -0.9926 -0.1218 1532.8112 -360.0189)" class="st3" width="1.7" height="1118.9"/>
<rect x="832.7" y="325.6" transform="matrix(0.6662 -0.7458 0.7458 0.6662 -107.6097 794.3974)" class="st3" width="1.7" height="383.7"/>
<rect x="711.1" y="310.9" transform="matrix(0.6662 -0.7458 0.7458 0.6662 -137.0937 698.7726)" class="st3" width="1.7" height="383.2"/>
<rect x="589.9" y="296.4" transform="matrix(0.6662 -0.7458 0.7458 0.6662 -166.5334 603.4817)" class="st3" width="1.7" height="382.8"/>
<rect x="468.9" y="280.8" transform="matrix(0.6662 -0.7458 0.7458 0.6662 -195.8877 508.2521)" class="st3" width="1.7" height="384.3"/>
<rect x="1076.6" y="355.5" transform="matrix(0.6662 -0.7458 0.7458 0.6662 -48.5671 986.3785)" class="st3" width="1.7" height="383.8"/>
<rect x="1197.5" y="370.6" transform="matrix(0.6662 -0.7458 0.7458 0.6662 -19.2086 1081.4263)" class="st3" width="1.7" height="383.1"/>
<rect x="1319.3" y="385.6" transform="matrix(0.6662 -0.7458 0.7458 0.6662 10.2464 1177.3275)" class="st3" width="1.7" height="383.3"/>
<rect x="1440.7" y="400.4" transform="matrix(0.6662 -0.7458 0.7458 0.6662 39.7129 1272.7635)" class="st3" width="1.7" height="383.3"/>
<rect x="1105.6" y="391.5" transform="matrix(-1.836970e-16 1 -1 -1.836970e-16 1648.0283 -569.5344)" class="st4" width="6.4" height="295.4"/>
<rect x="762.9" y="300.1" transform="matrix(0.2039 -0.979 0.979 0.2039 119.3031 1148.8687)" class="st5" width="6.4" height="401.9"/>
<polygon class="st5" points="559.5,453.8 582,488.2 592.5,442.5 "/>
<polygon class="st4" points="1285.6,539 1273.4,517.5 1223.5,560.4 "/>
<rect x="880.8" y="434.1" transform="matrix(-0.2705 0.9627 -0.9627 -0.2705 1620.6421 -194.4093)" class="st6" width="6.4" height="165.4"/>
<polygon class="st6" points="769.4,476.1 817.6,532.8 807.5,477.5 "/>
<g>
	<path class="st7" d="M93.6,81.2v-2.9c6.6,0.2,10.5,0.3,11.7,0.3c6.6,0,11-0.1,13.2-0.3v2.9c-5,0-7.6,0.9-7.6,2.7
		c0,0.2,0.2,0.8,0.5,1.7l17.6,46.5l16.9-44.4c0.3-0.9,0.5-1.5,0.5-1.8c0-1.2-0.6-2.3-1.7-3.2c-1.1-0.9-2.8-1.4-5-1.4v-2.9
		c4.8,0.2,8.3,0.3,10.5,0.3c3.1,0,6.1-0.1,9-0.3v2.9c-5.2,0.1-8.5,2.1-10,6.2l-20.6,54.2c-0.2,0.8-0.5,1.2-0.7,1.4
		c-0.2,0.2-0.7,0.3-1.5,0.3c-0.6,0-1.1-0.1-1.4-0.4c-0.3-0.2-0.6-0.8-0.9-1.7l-21.4-56.6c-0.6-1.7-1.4-2.6-2.5-3
		C99,81.3,96.9,81.2,93.6,81.2z"/>
	<path class="st7" d="M155.9,121c0-5.8,1.9-10.7,5.6-14.9c3.7-4.1,8.3-6.2,13.6-6.2c5.4,0,9.5,1.7,12.3,5.2
		c2.8,3.5,4.2,7.7,4.2,12.8c0,1-0.1,1.6-0.4,1.7c-0.2,0.2-0.9,0.3-1.9,0.3h-25.8c0,6.3,0.9,10.9,2.8,13.9c2.6,4.1,6,6.2,10.4,6.2
		c0.6,0,1.3-0.1,2-0.2c0.7-0.1,1.8-0.4,3.3-1c1.5-0.5,2.9-1.5,4.2-2.9c1.3-1.4,2.3-3.2,3.1-5.5c0.2-0.9,0.5-1.3,1.1-1.3
		c0.8,0,1.2,0.4,1.2,1.1c0,0.5-0.3,1.4-0.9,2.6c-0.6,1.2-1.4,2.5-2.5,4c-1.1,1.4-2.7,2.7-4.9,3.8c-2.1,1.1-4.5,1.6-7.1,1.6
		c-5.4,0-10.1-2-14.2-6.1C157.9,132,155.9,127,155.9,121z M163.6,117.9h21.9c0-1.3-0.1-2.6-0.3-4.1s-0.7-3.1-1.3-5.1
		c-0.6-2-1.7-3.6-3.2-4.9c-1.5-1.3-3.4-1.9-5.6-1.9c-1,0-2,0.2-3.1,0.6c-1.1,0.4-2.2,1.1-3.5,2.2c-1.3,1-2.4,2.7-3.3,5
		C164.3,112,163.7,114.8,163.6,117.9z"/>
	<path class="st7" d="M203.2,136.2c-3.9-4.1-5.9-9-5.9-14.9c0-5.9,1.9-10.9,5.8-15.1c3.8-4.2,8.6-6.3,14.2-6.3
		c3.7,0,6.9,0.9,9.7,2.7c2.8,1.8,4.2,4.2,4.2,7.2c0,1.4-0.4,2.4-1.1,3.2c-0.8,0.8-1.7,1.1-2.9,1.1c-1.3,0-2.3-0.4-3-1.2
		c-0.7-0.8-1.1-1.8-1.1-3.1c0-0.5,0.1-1.1,0.3-1.6c0.2-0.5,0.6-1.1,1.3-1.7c0.7-0.6,1.6-0.9,2.7-1c-2.2-2.3-5.4-3.4-9.6-3.4
		c-0.1,0-0.1,0-0.2,0c-3.1,0-6,1.5-8.6,4.4c-2.6,2.9-3.9,7.8-3.9,14.5c0,3.5,0.4,6.6,1.3,9.1c0.9,2.6,2,4.5,3.4,5.8s2.8,2.3,4.2,2.9
		c1.4,0.6,2.7,0.9,4.1,0.9c5.9,0,9.9-3.2,11.9-9.7c0.2-0.6,0.5-0.9,1.1-0.9c0.8,0,1.2,0.3,1.2,0.9c0,0.3-0.1,0.8-0.4,1.6
		c-0.2,0.8-0.7,1.8-1.5,3c-0.7,1.2-1.6,2.4-2.7,3.4c-1,1.1-2.5,2-4.3,2.8c-1.8,0.8-3.9,1.2-6.2,1.2
		C211.8,142.3,207.1,140.3,203.2,136.2z"/>
	<path class="st7" d="M236.9,104.4v-2c2.8-0.1,5.2-1.2,7-3.2c1.9-2,3.1-4.2,3.8-6.7c0.6-2.5,1-5.1,1.1-8h2.3v17h13.2v2.9h-13.2V130
		c0,6.6,2.1,10,6.2,10c1.8,0,3.2-0.9,4.4-2.7c1.2-1.8,1.8-4.3,1.8-7.6v-5.1h2.3v5.3c0,3.3-0.8,6.2-2.3,8.7c-1.5,2.5-3.8,3.7-6.8,3.7
		c-1.1,0-2.2-0.1-3.3-0.4c-1.1-0.3-2.4-0.8-3.8-1.5c-1.4-0.7-2.6-2-3.5-3.8c-0.9-1.8-1.3-4-1.3-6.7v-25.4H236.9z"/>
	<path class="st7" d="M279.6,136.3c-4.1-4-6.1-8.9-6.1-14.8s2-10.9,6-15.2c4-4.3,8.8-6.4,14.5-6.4c5.6,0,10.4,2.1,14.4,6.4
		s6,9.3,6,15.2c0,5.8-2,10.7-6.1,14.7c-4,4-8.8,6-14.4,6C288.4,142.3,283.6,140.3,279.6,136.3z M281.1,120.8c0,6,0.8,10.3,2.3,13
		c2.4,4.1,5.9,6.2,10.5,6.2c2.3,0,4.4-0.6,6.3-1.9c1.9-1.2,3.4-2.9,4.4-5c1.4-2.7,2-6.8,2-12.4c0-5.9-0.8-10.2-2.4-12.8
		c-2.4-4-5.9-6-10.4-6c-2,0-3.9,0.5-5.9,1.6c-1.9,1-3.5,2.6-4.7,4.6C281.9,110.8,281.1,115.1,281.1,120.8z"/>
	<path class="st7" d="M319.6,141.3v-2.9c3.3,0,5.3-0.2,6.1-0.6c0.8-0.4,1.1-1.6,1.1-3.6v-24.7c0-2.3-0.4-3.7-1.2-4.3
		c-0.8-0.6-2.8-0.9-6-0.9v-2.9l12.8-1v10.1c0.9-2.6,2.2-5,4.1-7c1.8-2.1,4.3-3.1,7.3-3.1c2,0,3.6,0.6,4.9,1.7c1.3,1.1,1.9,2.4,1.9,4
		c0,1.4-0.4,2.4-1.2,3c-0.8,0.7-1.7,1-2.7,1c-1.1,0-2-0.4-2.8-1.1c-0.8-0.7-1.1-1.7-1.1-2.9c0-0.7,0.2-1.4,0.5-2
		c0.3-0.6,0.7-1,0.9-1.2s0.5-0.3,0.7-0.4c-0.1-0.1-0.5-0.1-1-0.1c-3.4,0-6.1,1.7-8,5.1c-1.9,3.4-2.9,7.5-2.9,12.3V134
		c0,1.8,0.4,2.9,1.1,3.5c0.7,0.6,2.7,0.9,5.9,0.9h1.9v2.9c-2.5-0.2-6.4-0.3-11.7-0.3c-0.8,0-1.7,0-2.9,0c-1.2,0-2.5,0.1-4.1,0.1
		C321.6,141.2,320.4,141.3,319.6,141.3z"/>
	<path class="st7" d="M356.1,140v-12.2c0-0.7,0-1.2,0-1.4c0-0.2,0.1-0.5,0.3-0.6c0.2-0.2,0.5-0.3,0.8-0.3c0.4,0,0.7,0.1,0.9,0.3
		c0.2,0.2,0.3,0.6,0.4,1.3c0.9,4.2,2.3,7.5,4.3,9.7c2,2.2,4.8,3.4,8.4,3.4c3.5,0,6-0.8,7.8-2.3c1.7-1.5,2.6-3.6,2.6-6.1
		c0-4.5-3.2-7.3-9.6-8.5c-3.7-0.8-6.3-1.4-7.8-1.9c-1.5-0.5-3-1.3-4.3-2.4c-2.6-2.2-4-4.8-4-7.8c0-3.1,1.2-5.7,3.5-8
		c2.3-2.3,6.1-3.4,11.2-3.4c3.5,0,6.3,0.9,8.7,2.6c0.7-0.5,1.2-1,1.6-1.5c0.9-0.8,1.5-1.1,2-1.1c0.5,0,0.9,0.2,1,0.5
		c0.1,0.3,0.1,0.9,0.1,1.8v9.3c0,0.7,0,1.2,0,1.4c0,0.2-0.1,0.4-0.3,0.6c-0.2,0.2-0.5,0.2-1,0.2c-0.8,0-1.2-0.3-1.2-0.9
		c-0.5-7.4-4.1-11.2-10.8-11.2c-3.6,0-6.3,0.7-7.9,2.1c-1.6,1.4-2.4,3-2.4,4.9c0,1.1,0.2,2,0.7,2.8c0.5,0.8,1.1,1.4,1.7,1.9
		c0.6,0.5,1.6,0.9,2.8,1.4c1.2,0.4,2.2,0.7,2.9,0.9c0.7,0.2,1.8,0.4,3.2,0.7c4.9,0.9,8.4,2.4,10.5,4.4c2.6,2.6,3.9,5.5,3.9,8.8
		c0,3.6-1.2,6.7-3.7,9.1c-2.5,2.5-6.2,3.7-11.1,3.7c-4,0-7.4-1.3-10.2-4c-0.4,0.4-0.7,0.7-0.9,1c-0.3,0.3-0.4,0.5-0.5,0.7
		c-0.1,0.1-0.2,0.2-0.2,0.3c0,0.1-0.1,0.1-0.1,0.2c-1.2,1.2-2,1.8-2.3,1.8c-0.5,0-0.8-0.2-0.9-0.5
		C356.1,141.5,356.1,140.9,356.1,140z"/>
	<path class="st0" d="M421.6,104.4v-2.9c3.3,0.2,6.2,0.3,8.6,0.3c1.2,0,4.5-0.1,10.1-0.3v2.9c-3.6,0-5.4,0.8-5.4,2.5
		c0,0.4,0.1,0.9,0.5,1.7l8.8,24.6l7.9-22.3c-1.1-3-1.8-4.7-2.1-5c-0.8-0.9-2.7-1.4-5.8-1.4v-2.9c2.8,0.2,5.5,0.3,8.2,0.3
		c1,0,4.2-0.1,9.6-0.3v2.9c-3.6,0-5.4,0.8-5.4,2.5c0,0.2,0.1,0.8,0.5,1.8l9.1,25.7l8.4-23.6c0.3-0.8,0.5-1.5,0.5-1.9
		c0-1.4-0.5-2.4-1.4-3.2c-1-0.8-2.3-1.2-3.9-1.2v-2.9c3.5,0.2,6.4,0.3,8.6,0.3c2.5,0,4.7-0.1,6.8-0.3v2.9c-3.8,0.1-6.4,2.1-7.7,5.9
		l-10.8,30.3c-0.7,1.1-1.3,1.7-1.8,1.8c-0.8,0-1.4-0.6-1.8-1.8l-9.4-26.2l-9.3,26.1c-0.2,0.8-0.5,1.2-0.7,1.5
		c-0.2,0.2-0.6,0.4-1.1,0.4c-0.6,0-1-0.2-1.2-0.5c-0.2-0.3-0.5-0.8-0.8-1.6l-11.6-32.6c-0.5-1.4-1.2-2.3-2-2.7
		C425.6,104.6,424,104.4,421.6,104.4z"/>
	<path class="st0" d="M489.5,141.3v-2.9c3.3,0,5.3-0.2,6-0.6c0.8-0.4,1.1-1.6,1.1-3.6V86.3c0-2.3-0.4-3.7-1.2-4.3
		c-0.8-0.6-2.8-0.9-6-0.9v-2.9l13.2-1v32h0.1c1-2.2,2.6-4.2,4.8-6.1c2.2-1.8,5-2.7,8.5-2.7c4.6,0,7.8,1.1,9.7,3.4
		c1.4,1.5,2.2,3.1,2.5,4.9c0.3,1.7,0.4,4.8,0.4,9.2v17.6c0.1,1.3,0.6,2.1,1.6,2.4c1,0.3,2.9,0.4,5.6,0.4v2.9
		c-6.3-0.2-9.7-0.3-10.4-0.3c-0.5,0-3.9,0.1-10.4,0.3v-2.9c3.3,0,5.3-0.2,6.1-0.6c0.8-0.4,1.1-1.6,1.1-3.6v-21.4
		c0-3.1-0.5-5.6-1.4-7.4c-1-1.8-2.8-2.8-5.4-2.8c-3.2,0-6,1.3-8.6,4c-2.6,2.7-3.8,6.2-3.8,10.7v16.9c0,2,0.4,3.2,1.1,3.6
		c0.8,0.4,2.8,0.6,6,0.6v2.9c-6.3-0.2-9.7-0.3-10.3-0.3C499.4,141,495.9,141.1,489.5,141.3z"/>
	<path class="st0" d="M540.7,141.3v-2.9c3.3,0,5.3-0.2,6-0.6c0.7-0.4,1.1-1.6,1.1-3.6v-24.8c0-2.3-0.4-3.7-1.1-4.2
		c-0.8-0.5-2.6-0.8-5.6-0.8v-2.9l12.9-1v33.8c0,1.8,0.3,3,1,3.4c0.7,0.5,2.5,0.7,5.5,0.7v2.9c-6.3-0.2-9.5-0.3-9.6-0.3
		C550,141,546.6,141.1,540.7,141.3z M544.4,84.4c0-1.2,0.5-2.3,1.5-3.4c1-1,2.2-1.5,3.5-1.5c1.4,0,2.5,0.5,3.5,1.4
		c1,0.9,1.4,2.1,1.4,3.5c0,1.4-0.5,2.6-1.4,3.5c-1,0.9-2.1,1.4-3.5,1.4c-1.5,0-2.6-0.5-3.6-1.5C544.9,86.9,544.4,85.7,544.4,84.4z"
		/>
	<path class="st0" d="M572.2,136.2c-3.9-4.1-5.9-9-5.9-14.9c0-5.9,1.9-10.9,5.8-15.1c3.8-4.2,8.6-6.3,14.2-6.3
		c3.7,0,6.9,0.9,9.7,2.7c2.8,1.8,4.2,4.2,4.2,7.2c0,1.4-0.4,2.4-1.1,3.2c-0.8,0.8-1.7,1.1-2.9,1.1c-1.3,0-2.3-0.4-3-1.2
		c-0.7-0.8-1.1-1.8-1.1-3.1c0-0.5,0.1-1.1,0.3-1.6c0.2-0.5,0.6-1.1,1.3-1.7c0.7-0.6,1.6-0.9,2.7-1c-2.2-2.3-5.4-3.4-9.6-3.4
		c-0.1,0-0.1,0-0.2,0c-3.1,0-6,1.5-8.6,4.4c-2.6,2.9-3.9,7.8-3.9,14.5c0,3.5,0.4,6.6,1.3,9.1c0.9,2.6,2,4.5,3.4,5.8s2.8,2.3,4.2,2.9
		c1.4,0.6,2.7,0.9,4.1,0.9c5.9,0,9.9-3.2,11.9-9.7c0.2-0.6,0.5-0.9,1.1-0.9c0.8,0,1.2,0.3,1.2,0.9c0,0.3-0.1,0.8-0.4,1.6
		c-0.2,0.8-0.7,1.8-1.5,3c-0.7,1.2-1.6,2.4-2.7,3.4c-1,1.1-2.5,2-4.3,2.8c-1.8,0.8-3.9,1.2-6.2,1.2
		C580.7,142.3,576.1,140.3,572.2,136.2z"/>
	<path class="st0" d="M604.5,141.3v-2.9c3.3,0,5.3-0.2,6-0.6c0.8-0.4,1.1-1.6,1.1-3.6V86.3c0-2.3-0.4-3.7-1.2-4.3
		c-0.8-0.6-2.8-0.9-6-0.9v-2.9l13.2-1v32h0.1c1-2.2,2.6-4.2,4.8-6.1c2.2-1.8,5-2.7,8.5-2.7c4.6,0,7.8,1.1,9.7,3.4
		c1.4,1.5,2.2,3.1,2.5,4.9c0.3,1.7,0.4,4.8,0.4,9.2v17.6c0.1,1.3,0.6,2.1,1.6,2.4c1,0.3,2.9,0.4,5.6,0.4v2.9
		c-6.3-0.2-9.7-0.3-10.4-0.3c-0.5,0-3.9,0.1-10.4,0.3v-2.9c3.3,0,5.3-0.2,6.1-0.6c0.8-0.4,1.1-1.6,1.1-3.6v-21.4
		c0-3.1-0.5-5.6-1.4-7.4c-1-1.8-2.8-2.8-5.4-2.8c-3.2,0-6,1.3-8.6,4c-2.6,2.7-3.8,6.2-3.8,10.7v16.9c0,2,0.4,3.2,1.1,3.6
		c0.8,0.4,2.8,0.6,6,0.6v2.9c-6.3-0.2-9.7-0.3-10.3-0.3C614.4,141,610.9,141.1,604.5,141.3z"/>
	<path class="st0" d="M94.9,251.9V249c3.3,0,5.3-0.2,6-0.6c0.7-0.4,1.1-1.6,1.1-3.6v-47.9c0-2.3-0.4-3.7-1.2-4.3
		c-0.8-0.6-2.8-0.9-6-0.9v-2.9l13.2-1v56.9c0,2,0.4,3.2,1.2,3.6c0.8,0.4,2.8,0.6,6,0.6v2.9c-0.8,0-1.9,0-3.5-0.1
		c-1.6-0.1-2.9-0.1-4.1-0.1c-1.1,0-2,0-2.7,0C104.4,251.6,101,251.7,94.9,251.9z"/>
	<path class="st0" d="M121.2,243.1c0-5.2,3.1-9.2,9.4-12c3.8-1.8,9.5-2.9,17.3-3.4v-3.4c0-3.8-1.1-6.7-3.2-8.7c-2.1-2-4.5-3-7.1-3
		c-4.6,0-7.9,1.4-10.1,4.3c1.8,0.1,3,0.5,3.6,1.5c0.6,0.9,1,1.8,1,2.8c0,1.2-0.4,2.2-1.1,3c-0.7,0.8-1.7,1.2-3,1.2
		c-1.2,0-2.2-0.4-2.9-1.1c-0.8-0.8-1.2-1.8-1.2-3.2c0-3,1.4-5.5,4.1-7.5c2.7-2,6-3,9.9-3c5.2,0,9.5,1.7,13,5.1
		c1.1,1,1.9,2.2,2.4,3.6c0.5,1.3,0.8,2.5,0.9,3.3s0.1,2.2,0.1,3.9v18.4c0,0.4,0.1,0.8,0.2,1.4c0.1,0.6,0.5,1.3,1,2
		c0.6,0.8,1.3,1.1,2.2,1.1c2.2,0,3.3-2,3.3-5.9v-5.2h2.3v5.2c0,3.3-0.9,5.6-2.6,6.8c-1.7,1.3-3.3,1.9-4.9,1.9c-2,0-3.7-0.8-5-2.3
		c-1.3-1.5-2-3.3-2.2-5.3c-1,2.4-2.6,4.3-4.8,5.8c-2.2,1.5-4.9,2.3-7.9,2.3c-2.2,0-4.3-0.3-6.4-0.8c-2.1-0.6-4-1.6-5.7-3.2
		C122.1,247.4,121.2,245.4,121.2,243.1z M128.9,243c0,2.3,0.7,4.2,2.2,5.7c1.5,1.5,3.3,2.2,5.4,2.2c2.7,0,5.3-1,7.7-3
		c2.4-2,3.7-5,3.7-8.9v-9.2c-6.8,0.2-11.7,1.7-14.6,4.4C130.3,236.9,128.9,239.8,128.9,243z"/>
	<path class="st0" d="M166.4,251.9V249c3.3,0,5.3-0.2,6.1-0.6c0.8-0.4,1.1-1.6,1.1-3.6v-24.7c0-2.3-0.4-3.7-1.2-4.3s-2.8-0.9-6-0.9
		v-2.9l13-1l0,9.7c2.9-6.4,7.4-9.7,13.7-9.7c4.6,0,7.9,1.1,9.7,3.4c1.4,1.5,2.2,3.1,2.5,4.9c0.3,1.7,0.4,4.8,0.4,9.2v17.6
		c0.1,1.3,0.6,2.1,1.6,2.4c1,0.3,2.9,0.4,5.6,0.4v2.9c-6.3-0.2-9.7-0.3-10.4-0.3c-0.5,0-3.9,0.1-10.4,0.3V249c3.3,0,5.3-0.2,6.1-0.6
		c0.8-0.4,1.1-1.6,1.1-3.6v-21.4c0-3.1-0.5-5.6-1.4-7.4c-1-1.8-2.8-2.8-5.4-2.8c-3.2,0-6.1,1.3-8.6,4c-2.6,2.7-3.8,6.2-3.8,10.7
		v16.9c0,2,0.4,3.2,1.2,3.6c0.8,0.4,2.8,0.6,6,0.6v2.9c-6.3-0.2-9.7-0.3-10.3-0.3C176.3,251.6,172.8,251.7,166.4,251.9z"/>
	<path class="st0" d="M217.7,232.1c0-5.8,2-10.8,6.1-14.8c4.1-4,8.9-6.1,14.4-6.1c4.7,0,8.6,1.9,11.6,5.7v-19.9
		c0-2.3-0.4-3.7-1.2-4.3c-0.8-0.6-2.8-0.9-6-0.9v-2.9l13.3-1v55.9c0,2.3,0.4,3.7,1.2,4.3c0.8,0.6,2.8,0.9,6,0.9v2.9l-13.6,1v-6.2
		c-3.2,4.1-7.3,6.1-12.3,6.2c-5.3,0-9.9-2-13.7-6.1S217.7,237.9,217.7,232.1z M225.4,232.1c0,5.7,0.9,10,2.7,12.8
		c2.5,3.9,5.7,5.9,9.7,5.9c4.6,0,8.2-2.1,10.9-6.4c0.7-1.1,1-2.2,1-3.4v-18.9c0-1.2-0.3-2.4-1-3.4c-2.5-3.7-5.8-5.5-9.9-5.5
		c-4.3,0-7.8,2-10.4,5.9C226.3,222,225.4,226.4,225.4,232.1z"/>
	<path class="st0" d="M305.1,246.9c-4.1-4-6.1-8.9-6.1-14.8s2-10.9,6-15.2c4-4.3,8.8-6.4,14.5-6.4c5.6,0,10.4,2.1,14.4,6.4
		s6,9.3,6,15.2c0,5.8-2,10.7-6.1,14.7c-4,4-8.8,6-14.4,6C313.9,252.9,309.1,250.9,305.1,246.9z M306.6,231.4c0,6,0.8,10.3,2.3,13
		c2.4,4.1,5.9,6.2,10.5,6.2c2.3,0,4.4-0.6,6.3-1.9c1.9-1.2,3.4-2.9,4.4-5c1.4-2.7,2-6.8,2-12.4c0-5.9-0.8-10.2-2.4-12.8
		c-2.4-4-5.9-6-10.4-6c-2,0-3.9,0.5-5.9,1.6c-1.9,1-3.5,2.6-4.7,4.6C307.3,221.5,306.6,225.7,306.6,231.4z"/>
	<path class="st0" d="M345.4,251.9V249c3.3,0,5.3-0.2,6.1-0.6c0.8-0.4,1.1-1.6,1.1-3.6v-24.7c0-2.3-0.4-3.7-1.2-4.3s-2.8-0.9-6-0.9
		v-2.9l13-1l0,9.7c2.9-6.4,7.4-9.7,13.7-9.7c4.6,0,7.9,1.1,9.7,3.4c1.4,1.5,2.2,3.1,2.5,4.9c0.3,1.7,0.4,4.8,0.4,9.2v17.6
		c0.1,1.3,0.6,2.1,1.6,2.4c1,0.3,2.9,0.4,5.6,0.4v2.9c-6.3-0.2-9.7-0.3-10.4-0.3c-0.5,0-3.9,0.1-10.4,0.3V249c3.3,0,5.3-0.2,6.1-0.6
		c0.8-0.4,1.1-1.6,1.1-3.6v-21.4c0-3.1-0.5-5.6-1.4-7.4c-1-1.8-2.8-2.8-5.4-2.8c-3.2,0-6.1,1.3-8.6,4c-2.6,2.7-3.8,6.2-3.8,10.7
		v16.9c0,2,0.4,3.2,1.2,3.6c0.8,0.4,2.8,0.6,6,0.6v2.9c-6.3-0.2-9.7-0.3-10.3-0.3C355.3,251.6,351.9,251.7,345.4,251.9z"/>
	<path class="st0" d="M428.5,227.1c0-1.2,0-2.8,0-4.6s0-3.4,0-4.6c0-1.2,0.2-3,0.5-5.4c0.3-2.4,0.7-4.4,1.3-6
		c0.5-1.7,1.3-3.5,2.4-5.5c1.1-2,2.4-3.7,3.9-4.9c1.5-1.3,3.5-2.3,5.9-3.2c2.4-0.9,5.2-1.3,8.2-1.3c3.1,0,5.8,0.4,8.3,1.3
		c2.4,0.9,4.4,1.9,5.9,3.2c1.5,1.2,2.8,2.9,3.9,4.9c1.1,2.1,1.9,3.9,2.5,5.5c0.5,1.6,0.9,3.6,1.2,6c0.3,2.4,0.5,4.2,0.5,5.4
		c0,1.2,0,2.8,0,4.6s0,3.4,0,4.7c0,1.3-0.2,3-0.5,5.4c-0.3,2.3-0.7,4.3-1.2,5.9c-0.5,1.6-1.3,3.4-2.5,5.4c-1.1,2-2.4,3.6-4,4.8
		c-1.5,1.2-3.5,2.3-5.9,3.1c-2.4,0.8-5.1,1.3-8.1,1.3c-3.1,0-5.8-0.4-8.2-1.3c-2.4-0.9-4.4-1.9-5.9-3.1c-1.5-1.2-2.8-2.8-3.9-4.8
		c-1.1-2-1.9-3.8-2.4-5.4c-0.5-1.6-0.9-3.6-1.3-5.9C428.7,230.1,428.5,228.3,428.5,227.1z M440.2,221.4c0,9.8,0.3,16.3,0.9,19.4
		c0.5,3,1.8,5.2,3.7,6.6c1.9,1.4,3.9,2.1,6,2.1c1.2,0,2.4-0.2,3.6-0.6c1.2-0.4,2.4-1.4,3.7-2.9c1.3-1.6,2.2-3.7,2.5-6.3
		c0.4-3.2,0.6-9.3,0.6-18.4c0-11.6-0.5-18.5-1.6-20.8c-0.8-1.9-2-3.3-3.7-4.3c-1.7-1-3.4-1.5-5.2-1.5c-1.1,0-2.2,0.2-3.4,0.5
		c-1.1,0.3-2.4,1.2-3.8,2.7c-1.4,1.5-2.3,3.5-2.6,5.9C440.5,207.1,440.2,212.9,440.2,221.4z"/>
</g>
<rect x="951.9" y="-9.7" transform="matrix(-0.8726 -0.4884 0.4884 -0.8726 1524.1815 1480.7209)" class="st8" width="6.4" height="1102.6"/>
<polygon class="st8" points="671,1048.2 704,1028.1 670.1,1009.6 "/>
<polygon class="st8" points="766,881.4 799,861.3 765.1,842.7 "/>
<polygon class="st8" points="858.7,715.2 891.8,695.1 857.8,676.5 "/>
<polygon class="st8" points="1055.4,363.8 1022.3,383.9 1056.2,402.4 "/>
<polygon class="st8" points="1147.6,198.7 1114.6,218.8 1148.5,237.4 "/>
<polygon class="st8" points="1240.8,33 1207.8,53.1 1241.7,71.7 "/>
<g>
</g>
<g>
</g>
<g>
</g>
<g>
</g>
<g>
</g>
<g>
</g>
<g>
</g>
<g>
</g>
<g>
</g>
<g>
</g>
<g>
</g>
<g>
</g>
<g>
</g>
<g>
</g>
<g>
</g>
</svg>
