<?xml version="1.0" encoding="utf-8"?>
<!-- Generator: Adobe Illustrator 25.2.3, SVG Export Plug-In . SVG Version: 6.00 Build 0)  -->
<svg version="1.1" id="Layer_1" xmlns="http://www.w3.org/2000/svg" xmlns:xlink="http://www.w3.org/1999/xlink" x="0px" y="0px"
	 viewBox="0 0 2176.6 1080" style="enable-background:new 0 0 2176.6 1080;" xml:space="preserve">
<style type="text/css">
	.st0{clip-path:url(#SVGID_2_);}
	.st1{clip-path:url(#SVGID_2_);fill:#001919;}
	.st2{clip-path:url(#SVGID_2_);fill:#B2CBCB;}
	.st3{clip-path:url(#SVGID_2_);fill:#06454D;}
	.st4{clip-path:url(#SVGID_2_);fill:#B8F7FF;}
	.st5{clip-path:url(#SVGID_2_);fill:#4D4D4D;}
	.st6{clip-path:url(#SVGID_2_);fill:#000404;}
	.st7{clip-path:url(#SVGID_2_);fill:#010C0D;}
	.st8{clip-path:url(#SVGID_2_);fill:#00FFF8;}
	.st9{fill:#EF2CFF;}
	.st10{fill:none;stroke:#000000;stroke-miterlimit:10;}
	.st11{clip-path:url(#SVGID_2_);fill:#000101;}
	.st12{clip-path:url(#SVGID_2_);fill:#000202;}
	.st13{fill:#FFFFFF;}
	.st14{clip-path:url(#SVGID_2_);fill:#FF5F5F;}
	.st15{clip-path:url(#SVGID_2_);fill:none;stroke:#000000;stroke-miterlimit:10;}
	.st16{clip-path:url(#SVGID_2_);fill:#8CFF61;}
	.st17{clip-path:url(#SVGID_4_);}
	.st18{clip-path:url(#SVGID_4_);fill:#005454;}
	.st19{clip-path:url(#SVGID_4_);fill:#15E3FF;}
	.st20{clip-path:url(#SVGID_4_);fill:#FFFFFF;}
	.st21{clip-path:url(#SVGID_4_);fill:#000E0E;}
	.st22{clip-path:url(#SVGID_4_);fill:#04262B;}
	.st23{clip-path:url(#SVGID_4_);fill:#000202;}
	.st24{clip-path:url(#SVGID_4_);fill:#010607;}
	.st25{clip-path:url(#SVGID_4_);fill:#8CFF61;}
	.st26{clip-path:url(#SVGID_4_);fill:none;stroke:#000000;stroke-miterlimit:10;}
	.st27{clip-path:url(#SVGID_4_);fill:#FF5F5F;}
	.st28{fill:#FFF800;}
	.st29{fill:#FFEC00;}
</style>
<g>
	<g>
		<defs>
			<polyline id="SVGID_1_" points="1071,1090.7 -49.4,1090.7 -49.4,-3.3 1071,-3.3 1071,1090.7 			"/>
		</defs>
		<clipPath id="SVGID_2_">
			<use xlink:href="#SVGID_1_"  style="overflow:visible;"/>
		</clipPath>
		<polyline class="st0" points="-448.7,0.4 1470.3,0.4 1470.3,1079.4 -448.7,1079.4 -448.7,0.4 		"/>
		<path class="st0" d="M1469.8,0.9v1078h-1918V0.9H1469.8 M1470.8-0.1h-1920v1080h1920V-0.1"/>
		<path class="st1" d="M-34.7,68.8h-14.7v1.4h14.7V68.8 M31.3,68.8h-63.1v1.4h63.1V68.8 M509.8,68.8h-22v1.4h22V68.8 M579.8,68.8
			h-67v1.4h67V68.8 M648.8,68.8h-67.6v1.4h67.6V68.8 M715.8,68.8h-65.6v1.4h65.6V68.8 M783,68.8h-65.8v1.4H783V68.8 M851.8,68.8h-66
			v1.4h66V68.8 M918.6,68.8h-65.4v1.4h65.4V68.8 M986.8,68.8H920v1.4h66.8V68.8 M1052.8,68.8h-64.6v1.4h64.6V68.8 M1056.2,68.8h-0.6
			v1.4h0.6V68.8"/>
		<path class="st1" d="M-34.7,201.8h-14.7v1.4h14.7V201.8 M33.8,201.8h-65.7v1.4h65.7V201.8 M40.9,201.8h-5.7v1.4h5.7V201.8
			 M368.4,201.8H337v1.4h31.4V201.8 M440.8,201.8h-71v1.4h71V201.8 M509.8,201.8h-67.6v1.4h67.6V201.8 M579.8,201.8h-67v1.4h67
			V201.8 M648.8,201.8h-67.6v1.4h67.6V201.8 M715.8,201.8h-65.6v1.4h65.6V201.8 M783,201.8h-65.8v1.4H783V201.8 M851.8,201.8h-66
			v1.4h66V201.8 M918.6,201.8h-65.4v1.4h65.4V201.8 M986.8,201.8H920v1.4h66.8V201.8 M1052.8,201.8h-64.6v1.4h64.6V201.8
			 M1056.2,201.8h-0.6v1.4h0.6V201.8"/>
		<path class="st1" d="M-34.7,338.8h-14.7v1.4h14.7V338.8 M33.8,338.8h-65.7v1.4h65.7V338.8 M40.9,338.8h-5.7v1.4h5.7V338.8
			 M368.4,338.8H337v1.4h31.4V338.8 M440.8,338.8h-71v1.4h71V338.8 M509.8,338.8h-67.6v1.4h67.6V338.8 M579.8,338.8h-67v1.4h67
			V338.8 M648.8,338.8h-67.6v1.4h67.6V338.8 M715.8,338.8h-65.6v1.4h65.6V338.8 M783,338.8h-65.8v1.4H783V338.8 M851.8,338.8h-66
			v1.4h66V338.8 M918.6,338.8h-65.4v1.4h65.4V338.8 M986.8,338.8H920v1.4h66.8V338.8 M1052.8,338.8h-64.6v1.4h64.6V338.8
			 M1056.2,338.8h-0.6v1.4h0.6V338.8"/>
		<path class="st1" d="M-34.7,475.8h-14.7v1.4h14.7V475.8 M33.8,475.8h-65.7v1.4h65.7V475.8 M100.1,475.8H35.2v1.4h64.9V475.8
			 M166.8,475.8h-65.3v1.4h65.3V475.8 M233.6,475.8h-65.4v1.4h65.4V475.8 M303.8,475.8h-67.4v1.4h67.4V475.8 M368.4,475.8h-63.2v1.4
			h63.2V475.8 M440.8,475.8h-71v1.4h71V475.8 M509.8,475.8h-67.6v1.4h67.6V475.8 M579.8,475.8h-67v1.4h67V475.8 M648.8,475.8h-67.6
			v1.4h67.6V475.8 M715.8,475.8h-65.6v1.4h65.6V475.8 M783,475.8h-65.8v1.4H783V475.8 M851.8,475.8h-66v1.4h66V475.8 M918.6,475.8
			h-65.4v1.4h65.4V475.8 M986.8,475.8H920v1.4h66.8V475.8 M1052.8,475.8h-64.6v1.4h64.6V475.8 M1056.2,475.8h-0.6v1.4h0.6V475.8"/>
		<path class="st1" d="M-34.7,614.8h-14.7v1.4h14.7V614.8 M33.8,614.8h-65.7v1.4h65.7V614.8 M100.1,614.8H35.2v1.4h64.9V614.8
			 M166.8,614.8h-65.3v1.4h65.3V614.8 M233.6,614.8h-65.4v1.4h65.4V614.8 M303.8,614.8h-67.4v1.4h67.4V614.8 M368.4,614.8h-63.2v1.4
			h63.2V614.8 M440.8,614.8h-71v1.4h71V614.8 M509.8,614.8h-67.6v1.4h67.6V614.8 M579.8,614.8h-67v1.4h67V614.8 M648.8,614.8h-67.6
			v1.4h67.6V614.8 M715.8,614.8h-65.6v1.4h65.6V614.8 M783,614.8h-65.8v1.4H783V614.8 M851.8,614.8h-66v1.4h66V614.8 M918.6,614.8
			h-65.4v1.4h65.4V614.8 M986.8,614.8H920v1.4h66.8V614.8 M1052.8,614.8h-64.6v1.4h64.6V614.8 M1056.2,614.8h-0.6v1.4h0.6V614.8"/>
		<path class="st1" d="M-34.7,750.8h-14.7v1.4h14.7V750.8 M33.8,750.8h-65.7v1.4h65.7V750.8 M100.1,750.8H35.2v1.4h64.9V750.8
			 M166.8,750.8h-65.3v1.4h65.3V750.8 M233.6,750.8h-65.4v1.4h65.4V750.8 M303.8,750.8h-67.4v1.4h67.4V750.8 M368.4,750.8h-63.2v1.4
			h63.2V750.8 M440.8,750.8h-71v1.4h71V750.8 M509.8,750.8h-67.6v1.4h67.6V750.8 M579.8,750.8h-67v1.4h67V750.8 M648.8,750.8h-67.6
			v1.4h67.6V750.8 M715.8,750.8h-65.6v1.4h65.6V750.8 M783,750.8h-65.8v1.4H783V750.8 M851.8,750.8h-66v1.4h66V750.8 M918.6,750.8
			h-65.4v1.4h65.4V750.8 M986.8,750.8H920v1.4h66.8V750.8 M1052.8,750.8h-64.6v1.4h64.6V750.8 M1056.2,750.8h-0.6v1.4h0.6V750.8"/>
		<path class="st1" d="M-34.7,886.8h-14.7v1.4h14.7V886.8 M33.8,886.8h-65.7v1.4h65.7V886.8 M100.1,886.8H35.2v1.4h64.9V886.8
			 M166.8,886.8h-65.3v1.4h65.3V886.8 M233.6,886.8h-65.4v1.4h65.4V886.8 M303.8,886.8h-67.4v1.4h67.4V886.8 M368.4,886.8h-63.2v1.4
			h63.2V886.8 M440.8,886.8h-71v1.4h71V886.8 M509.8,886.8h-67.6v1.4h67.6V886.8 M579.8,886.8h-67v1.4h67V886.8 M648.8,886.8h-67.6
			v1.4h67.6V886.8 M715.8,886.8h-65.6v1.4h65.6V886.8 M783,886.8h-65.8v1.4H783V886.8 M851.8,886.8h-66v1.4h66V886.8 M918.6,886.8
			h-65.4v1.4h65.4V886.8 M986.8,886.8H920v1.4h66.8V886.8 M1052.8,886.8h-64.6v1.4h64.6V886.8 M1056.2,886.8h-0.6v1.4h0.6V886.8"/>
		<path class="st1" d="M-34.7,1021.8h-14.7v1.4h14.7V1021.8 M33.8,1021.8h-65.7v1.4h65.7V1021.8 M100.1,1021.8H35.2v1.4h64.9V1021.8
			 M166.8,1021.8h-65.3v1.4h65.3V1021.8 M233.6,1021.8h-65.4v1.4h65.4V1021.8 M303.8,1021.8h-67.4v1.4h67.4V1021.8 M368.4,1021.8
			h-63.2v1.4h63.2V1021.8 M440.8,1021.8h-71v1.4h71V1021.8 M509.8,1021.8h-67.6v1.4h67.6V1021.8 M579.8,1021.8h-67v1.4h67V1021.8
			 M648.8,1021.8h-67.6v1.4h67.6V1021.8 M715.8,1021.8h-65.6v1.4h65.6V1021.8 M783,1021.8h-65.8v1.4H783V1021.8 M851.8,1021.8h-66
			v1.4h66V1021.8 M918.6,1021.8h-65.4v1.4h65.4V1021.8 M986.8,1021.8H920v1.4h66.8V1021.8 M1052.8,1021.8h-64.6v1.4h64.6V1021.8
			 M1056.2,1021.8h-0.6v1.4h0.6V1021.8"/>
		<polyline class="st2" points="35.2,-0.8 33.8,-0.8 33.8,-0.1 35.2,-0.1 35.2,-0.8 		"/>
		<path class="st1" d="M35.2,115.3h-1.4V136h1.4V115.3 M35.2,0.9h-1.4v41.6h1.4V0.9"/>
		<polyline class="st1" points="35.2,-0.1 33.8,-0.1 33.8,0.9 35.2,0.9 35.2,-0.1 		"/>
		<polyline class="st1" points="35.2,955.9 33.8,955.9 33.8,1021.8 33.8,1023.2 33.8,1078.9 35.2,1078.9 35.2,1023.2 35.2,1021.8 
			35.2,955.9 		"/>
		<polyline class="st1" points="35.2,1078.9 33.8,1078.9 33.8,1079.2 35.2,1079.2 35.2,1078.9 		"/>
		<path class="st1" d="M35.2,821.7h-1.4v65.1v1.4v66.3h1.4v-66.3v-1.4V821.7 M35.2,686.1h-1.4v64.7v1.4v66.7h1.4v-66.7v-1.4V686.1
			 M35.2,545.9h-1.4v68.9v1.4v68.5h1.4v-68.5v-1.4V545.9 M35.2,405.7h-1.4v70.1v1.4v64.6h1.4v-64.6v-1.4V405.7 M35.2,272.3h-1.4
			v66.5v1.4v64.1h1.4v-64.1v-1.4V272.3 M35.2,137.4h-1.4v64.4v1.4v66.3h1.4v-66.3v-1.4V137.4"/>
		<polyline class="st2" points="168.2,-0.8 166.8,-0.8 166.8,-0.1 168.2,-0.1 168.2,-0.8 		"/>
		<polyline class="st1" points="168.2,0.9 166.8,0.9 166.8,42.5 168.2,42.5 168.2,0.9 		"/>
		<polyline class="st1" points="168.2,-0.1 166.8,-0.1 166.8,0.9 168.2,0.9 168.2,-0.1 		"/>
		<polyline class="st1" points="168.2,955.9 166.8,955.9 166.8,1021.8 166.8,1023.2 166.8,1078.9 168.2,1078.9 168.2,1023.2 
			168.2,1021.8 168.2,955.9 		"/>
		<polyline class="st1" points="168.2,1078.9 166.8,1078.9 166.8,1079.2 168.2,1079.2 168.2,1078.9 		"/>
		<path class="st1" d="M168.2,821.7h-1.4v65.1v1.4v66.3h1.4v-66.3v-1.4V821.7 M168.2,686.1h-1.4v64.7v1.4v66.7h1.4v-66.7v-1.4V686.1
			 M168.2,545.9h-1.4v68.9v1.4v68.5h1.4v-68.5v-1.4V545.9 M168.2,405.7h-1.4v70.1v1.4v64.6h1.4v-64.6v-1.4V405.7 M168.2,359.9h-1.4
			v44.4h1.4V359.9"/>
		<polyline class="st2" points="305.2,-1.8 303.8,-1.8 303.8,-0.1 305.2,-0.1 305.2,-1.8 		"/>
		<polyline class="st1" points="305.2,0.9 303.8,0.9 303.8,42.5 305.2,42.5 305.2,0.9 		"/>
		<polyline class="st1" points="305.2,-0.1 303.8,-0.1 303.8,0.9 305.2,0.9 305.2,-0.1 		"/>
		<path class="st1" d="M305.2,955.9h-1.4v65.9v1.4v55h1.4v-55v-1.4V955.9 M305.2,821.7h-1.4v65.1v1.4v66.3h1.4v-66.3v-1.4V821.7
			 M305.2,686.1h-1.4v64.7v1.4v66.7h1.4v-66.7v-1.4V686.1 M305.2,545.9h-1.4v68.9v1.4v68.5h1.4v-68.5v-1.4V545.9 M305.2,405.7h-1.4
			v70.1v1.4v64.6h1.4v-64.6v-1.4V405.7 M305.2,359.9h-1.4v44.4h1.4V359.9"/>
		<polyline class="st2" points="442.2,-1.3 440.8,-1.3 440.8,-0.1 442.2,-0.1 442.2,-1.3 		"/>
		<path class="st1" d="M442.2,115.3h-1.4V136h1.4V115.3 M442.2,0.9h-1.4v41.6h1.4V0.9"/>
		<polyline class="st1" points="442.2,-0.1 440.8,-0.1 440.8,0.9 442.2,0.9 442.2,-0.1 		"/>
		<path class="st1" d="M442.2,955.9h-1.4v65.9v1.4v55.5h1.4v-55.5v-1.4V955.9 M442.2,821.7h-1.4v65.1v1.4v66.3h1.4v-66.3v-1.4V821.7
			 M442.2,686.1h-1.4v64.7v1.4v66.7h1.4v-66.7v-1.4V686.1 M442.2,545.9h-1.4v68.9v1.4v68.5h1.4v-68.5v-1.4V545.9 M442.2,405.7h-1.4
			v70.1v1.4v64.6h1.4v-64.6v-1.4V405.7 M442.2,272.3h-1.4v66.5v1.4v64.1h1.4v-64.1v-1.4V272.3 M442.2,137.4h-1.4v64.4v1.4v66.3h1.4
			v-66.3v-1.4V137.4"/>
		<polyline class="st1" points="581.2,0.9 579.8,0.9 579.8,68.8 579.8,70.2 579.8,136 581.2,136 581.2,70.2 581.2,68.8 581.2,0.9 		
			"/>
		<polyline class="st1" points="581.2,0 579.8,0 579.8,0.9 581.2,0.9 581.2,0 		"/>
		<polyline class="st1" points="581.2,955.9 579.8,955.9 579.8,1021.8 579.8,1023.2 579.8,1078.9 581.2,1078.9 581.2,1023.2 
			581.2,1021.8 581.2,955.9 		"/>
		<polyline class="st2" points="581.2,1079.9 579.8,1079.9 579.8,1080 581.2,1080 581.2,1079.9 		"/>
		<polyline class="st1" points="581.2,1078.9 579.8,1078.9 579.8,1079.9 581.2,1079.9 581.2,1078.9 		"/>
		<path class="st1" d="M581.2,821.7h-1.4v65.1v1.4v66.3h1.4v-66.3v-1.4V821.7 M581.2,686.1h-1.4v64.7v1.4v66.7h1.4v-66.7v-1.4V686.1
			 M581.2,545.9h-1.4v68.9v1.4v68.5h1.4v-68.5v-1.4V545.9 M581.2,405.7h-1.4v70.1v1.4v64.6h1.4v-64.6v-1.4V405.7 M581.2,272.3h-1.4
			v66.5v1.4v64.1h1.4v-64.1v-1.4V272.3 M581.2,137.4h-1.4v64.4v1.4v66.3h1.4v-66.3v-1.4V137.4"/>
		<polyline class="st1" points="717.2,0.9 715.8,0.9 715.8,68.8 715.8,70.2 715.8,136 717.2,136 717.2,70.2 717.2,68.8 717.2,0.9 		
			"/>
		<polyline class="st1" points="717.2,0 715.8,0 715.8,0.9 717.2,0.9 717.2,0 		"/>
		<polyline class="st1" points="717.2,955.9 715.8,955.9 715.8,1021.8 715.8,1023.2 715.8,1078.9 717.2,1078.9 717.2,1023.2 
			717.2,1021.8 717.2,955.9 		"/>
		<polyline class="st2" points="717.2,1079.9 715.8,1079.9 715.8,1080 717.2,1080 717.2,1079.9 		"/>
		<polyline class="st1" points="717.2,1078.9 715.8,1078.9 715.8,1079.9 717.2,1079.9 717.2,1078.9 		"/>
		<path class="st1" d="M717.2,821.7h-1.4v65.1v1.4v66.3h1.4v-66.3v-1.4V821.7 M717.2,686.1h-1.4v64.7v1.4v66.7h1.4v-66.7v-1.4V686.1
			 M717.2,545.9h-1.4v68.9v1.4v68.5h1.4v-68.5v-1.4V545.9 M717.2,405.7h-1.4v70.1v1.4v64.6h1.4v-64.6v-1.4V405.7 M717.2,272.3h-1.4
			v66.5v1.4v64.1h1.4v-64.1v-1.4V272.3 M717.2,137.4h-1.4v64.4v1.4v66.3h1.4v-66.3v-1.4V137.4"/>
		<polyline class="st2" points="853.2,-1 851.8,-1 851.8,-0.1 853.2,-0.1 853.2,-1 		"/>
		<polyline class="st1" points="853.2,0.9 851.8,0.9 851.8,68.8 851.8,70.2 851.8,136 853.2,136 853.2,70.2 853.2,68.8 853.2,0.9 		
			"/>
		<polyline class="st1" points="853.2,-0.1 851.8,-0.1 851.8,0.9 853.2,0.9 853.2,-0.1 		"/>
		<polyline class="st1" points="853.2,955.9 851.8,955.9 851.8,1021.8 851.8,1023.2 851.8,1078.9 853.2,1078.9 853.2,1023.2 
			853.2,1021.8 853.2,955.9 		"/>
		<polyline class="st1" points="853.2,1078.9 851.8,1078.9 851.8,1079 853.2,1079 853.2,1078.9 		"/>
		<path class="st1" d="M853.2,821.7h-1.4v65.1v1.4v66.3h1.4v-66.3v-1.4V821.7 M853.2,686.1h-1.4v64.7v1.4v66.7h1.4v-66.7v-1.4V686.1
			 M853.2,545.9h-1.4v68.9v1.4v68.5h1.4v-68.5v-1.4V545.9 M853.2,405.7h-1.4v70.1v1.4v64.6h1.4v-64.6v-1.4V405.7 M853.2,272.3h-1.4
			v66.5v1.4v64.1h1.4v-64.1v-1.4V272.3 M853.2,137.4h-1.4v64.4v1.4v66.3h1.4v-66.3v-1.4V137.4"/>
		<polyline class="st2" points="988.2,-0.5 986.8,-0.5 986.8,-0.1 988.2,-0.1 988.2,-0.5 		"/>
		<polyline class="st1" points="988.2,0.9 986.8,0.9 986.8,68.8 986.8,70.2 986.8,136 988.2,136 988.2,70.2 988.2,68.8 988.2,0.9 		
			"/>
		<polyline class="st1" points="988.2,-0.1 986.8,-0.1 986.8,0.9 988.2,0.9 988.2,-0.1 		"/>
		<polyline class="st1" points="988.2,955.9 986.8,955.9 986.8,1021.8 986.8,1023.2 986.8,1078.9 988.2,1078.9 988.2,1023.2 
			988.2,1021.8 988.2,955.9 		"/>
		<polyline class="st1" points="988.2,1078.9 986.8,1078.9 986.8,1079.5 988.2,1079.5 988.2,1078.9 		"/>
		<path class="st1" d="M988.2,821.7h-1.4v65.1v1.4v66.3h1.4v-66.3v-1.4V821.7 M988.2,686.1h-1.4v64.7v1.4v66.7h1.4v-66.7v-1.4V686.1
			 M988.2,545.9h-1.4v68.9v1.4v68.5h1.4v-68.5v-1.4V545.9 M988.2,405.7h-1.4v70.1v1.4v64.6h1.4v-64.6v-1.4V405.7 M988.2,272.3h-1.4
			v66.5v1.4v64.1h1.4v-64.1v-1.4V272.3 M988.2,137.4h-1.4v64.4v1.4v66.3h1.4v-66.3v-1.4V137.4"/>
		<polyline class="st3" points="650.2,0.9 648.8,0.9 648.8,68.8 648.8,70.2 648.8,136 650.2,136 650.2,70.2 650.2,68.8 650.2,0.9 		
			"/>
		<polyline class="st3" points="650.2,-0.1 648.8,-0.1 648.8,0.9 650.2,0.9 650.2,-0.1 		"/>
		<path class="st3" d="M650.2,955.9h-1.4v65.9v1.4v55.7h1.4v-55.7v-1.4V955.9 M650.2,821.7h-1.4v65.1v1.4v66.3h1.4v-66.3v-1.4V821.7
			 M650.2,686.1h-1.4v64.7v1.4v66.7h1.4v-66.7v-1.4V686.1 M650.2,545.9h-1.4v68.9v1.4v68.5h1.4v-68.5v-1.4V545.9 M650.2,405.7h-1.4
			v70.1v1.4v64.6h1.4v-64.6v-1.4V405.7 M650.2,272.3h-1.4v66.5v1.4v64.1h1.4v-64.1v-1.4V272.3 M650.2,137.4h-1.4v64.4v1.4v66.3h1.4
			v-66.3v-1.4V137.4"/>
		<polyline class="st3" points="650.2,1078.9 648.8,1078.9 648.8,1079.9 650.2,1079.9 650.2,1078.9 		"/>
		<polyline class="st3" points="785.8,0.9 783,0.9 783,68.8 783,70.2 783,136 785.8,136 785.8,70.2 785.8,68.8 785.8,0.9 		"/>
		<polyline class="st3" points="785.8,-0.1 783,-0.1 783,0.9 785.8,0.9 785.8,-0.1 		"/>
		<path class="st3" d="M785.8,955.9H783v65.9v1.4v55.7h2.8v-55.7v-1.4V955.9 M785.8,821.7H783v65.1v1.4v66.3h2.8v-66.3v-1.4V821.7
			 M785.8,686.1H783v64.7v1.4v66.7h2.8v-66.7v-1.4V686.1 M785.8,545.9H783v68.9v1.4v68.5h2.8v-68.5v-1.4V545.9 M785.8,405.7H783
			v70.1v1.4v64.6h2.8v-64.6v-1.4V405.7 M785.8,272.3H783v66.5v1.4v64.1h2.8v-64.1v-1.4V272.3 M785.8,137.4H783v64.4v1.4v66.3h2.8
			v-66.3v-1.4V137.4"/>
		<polyline class="st3" points="785.8,1078.9 783,1078.9 783,1079.9 785.8,1079.9 785.8,1078.9 		"/>
		<polyline class="st3" points="920,0.9 918.6,0.9 918.6,68.8 918.6,70.2 918.6,136 920,136 920,70.2 920,68.8 920,0.9 		"/>
		<polyline class="st3" points="920,-0.1 918.6,-0.1 918.6,0.9 920,0.9 920,-0.1 		"/>
		<path class="st3" d="M920,955.9h-1.4v65.9v1.4v55.7h1.4v-55.7v-1.4V955.9 M920,821.7h-1.4v65.1v1.4v66.3h1.4v-66.3v-1.4V821.7
			 M920,686.1h-1.4v64.7v1.4v66.7h1.4v-66.7v-1.4V686.1 M920,545.9h-1.4v68.9v1.4v68.5h1.4v-68.5v-1.4V545.9 M920,405.7h-1.4v70.1
			v1.4v64.6h1.4v-64.6v-1.4V405.7 M920,272.3h-1.4v66.5v1.4v64.1h1.4v-64.1v-1.4V272.3 M920,137.4h-1.4v64.4v1.4v66.3h1.4v-66.3
			v-1.4V137.4"/>
		<polyline class="st3" points="920,1078.9 918.6,1078.9 918.6,1079.9 920,1079.9 920,1078.9 		"/>
		<polyline class="st3" points="1055.6,0.9 1052.8,0.9 1052.8,68.8 1052.8,70.2 1052.8,136 1055.6,136 1055.6,70.2 1055.6,68.8 
			1055.6,0.9 		"/>
		<polyline class="st3" points="1055.6,-0.1 1052.8,-0.1 1052.8,0.9 1055.6,0.9 1055.6,-0.1 		"/>
		<path class="st3" d="M1055.6,955.9h-2.8v65.9v1.4v55.7h2.8v-55.7v-1.4V955.9 M1055.6,821.7h-2.8v65.1v1.4v66.3h2.8v-66.3v-1.4
			V821.7 M1055.6,686.1h-2.8v64.7v1.4v66.7h2.8v-66.7v-1.4V686.1 M1055.6,545.9h-2.8v68.9v1.4v68.5h2.8v-68.5v-1.4V545.9
			 M1055.6,405.7h-2.8v70.1v1.4v64.6h2.8v-64.6v-1.4V405.7 M1055.6,272.3h-2.8v66.5v1.4v64.1h2.8v-64.1v-1.4V272.3 M1055.6,137.4
			h-2.8v64.4v1.4v66.3h2.8v-66.3v-1.4V137.4"/>
		<polyline class="st3" points="1055.6,1078.9 1052.8,1078.9 1052.8,1079.9 1055.6,1079.9 1055.6,1078.9 		"/>
		<path class="st3" d="M369.8,115.3h-1.4V136h1.4V115.3 M369.8,0.9h-1.4v41.6h1.4V0.9"/>
		<polyline class="st3" points="369.8,0.5 368.4,0.5 368.4,0.9 369.8,0.9 369.8,0.5 		"/>
		<path class="st3" d="M369.8,955.9h-1.4v65.9v1.4v55.7h1.4v-55.7v-1.4V955.9 M369.8,821.7h-1.4v65.1v1.4v66.3h1.4v-66.3v-1.4V821.7
			 M369.8,686.1h-1.4v64.7v1.4v66.7h1.4v-66.7v-1.4V686.1 M369.8,545.9h-1.4v68.9v1.4v68.5h1.4v-68.5v-1.4V545.9 M369.8,405.7h-1.4
			v70.1v1.4v64.6h1.4v-64.6v-1.4V405.7 M369.8,272.3h-1.4v66.5v1.4v64.1h1.4v-64.1v-1.4V272.3 M369.8,137.4h-1.4v64.4v1.4v66.3h1.4
			v-66.3v-1.4V137.4"/>
		<polyline class="st4" points="369.8,1079.9 368.4,1079.9 368.4,1080.5 369.8,1080.5 369.8,1079.9 		"/>
		<polyline class="st3" points="369.8,1078.9 368.4,1078.9 368.4,1079.9 369.8,1079.9 369.8,1078.9 		"/>
		<polyline class="st3" points="236.4,0.9 233.6,0.9 233.6,42.5 236.4,42.5 236.4,0.9 		"/>
		<polyline class="st3" points="236.4,0.5 233.6,0.5 233.6,0.9 236.4,0.9 236.4,0.5 		"/>
		<path class="st3" d="M236.4,955.9h-2.8v65.9v1.4v55.7h2.8v-55.7v-1.4V955.9 M236.4,821.7h-2.8v65.1v1.4v66.3h2.8v-66.3v-1.4V821.7
			 M236.4,686.1h-2.8v64.7v1.4v66.7h2.8v-66.7v-1.4V686.1 M236.4,545.9h-2.8v68.9v1.4v68.5h2.8v-68.5v-1.4V545.9 M236.4,405.7h-2.8
			v70.1v1.4v64.6h2.8v-64.6v-1.4V405.7 M236.4,359.9h-2.8v44.4h2.8V359.9"/>
		<polyline class="st4" points="236.4,1079.9 233.6,1079.9 233.6,1080.5 236.4,1080.5 236.4,1079.9 		"/>
		<polyline class="st3" points="236.4,1078.9 233.6,1078.9 233.6,1079.9 236.4,1079.9 236.4,1078.9 		"/>
		<polyline class="st3" points="101.5,0.9 100.1,0.9 100.1,42.5 101.5,42.5 101.5,0.9 		"/>
		<polyline class="st3" points="101.5,0.5 100.1,0.5 100.1,0.9 101.5,0.9 101.5,0.5 		"/>
		<path class="st3" d="M101.5,955.9h-1.4v65.9v1.4v55.7h1.4v-55.7v-1.4V955.9 M101.5,821.7h-1.4v65.1v1.4v66.3h1.4v-66.3v-1.4V821.7
			 M101.5,686.1h-1.4v64.7v1.4v66.7h1.4v-66.7v-1.4V686.1 M101.5,545.9h-1.4v68.9v1.4v68.5h1.4v-68.5v-1.4V545.9 M101.5,405.7h-1.4
			v70.1v1.4v64.6h1.4v-64.6v-1.4V405.7 M101.5,359.9h-1.4v44.4h1.4V359.9"/>
		<polyline class="st4" points="101.5,1079.9 100.1,1079.9 100.1,1080.5 101.5,1080.5 101.5,1079.9 		"/>
		<polyline class="st3" points="101.5,1078.9 100.1,1078.9 100.1,1079.9 101.5,1079.9 101.5,1078.9 		"/>
		<polyline class="st3" points="-31.9,0.9 -34.7,0.9 -34.7,68.8 -34.7,70.2 -34.7,136 -31.9,136 -31.9,70.2 -31.9,68.8 -31.9,0.9 		
			"/>
		<polyline class="st3" points="-31.9,0.5 -34.7,0.5 -34.7,0.9 -31.9,0.9 -31.9,0.5 		"/>
		<path class="st3" d="M-31.9,955.9h-2.8v65.9v1.4v55.7h2.8v-55.7v-1.4V955.9 M-31.9,821.7h-2.8v65.1v1.4v66.3h2.8v-66.3v-1.4V821.7
			 M-31.9,686.1h-2.8v64.7v1.4v66.7h2.8v-66.7v-1.4V686.1 M-31.9,545.9h-2.8v68.9v1.4v68.5h2.8v-68.5v-1.4V545.9 M-31.9,405.7h-2.8
			v70.1v1.4v64.6h2.8v-64.6v-1.4V405.7 M-31.9,272.3h-2.8v66.5v1.4v64.1h2.8v-64.1v-1.4V272.3 M-31.9,137.4h-2.8v64.4v1.4v66.3h2.8
			v-66.3v-1.4V137.4"/>
		<polyline class="st4" points="-31.9,1079.9 -34.7,1079.9 -34.7,1080.5 -31.9,1080.5 -31.9,1079.9 		"/>
		<polyline class="st3" points="-31.9,1078.9 -34.7,1078.9 -34.7,1079.9 -31.9,1079.9 -31.9,1078.9 		"/>
		<path class="st3" d="M509.8,684.7h-67.6h-1.4h-71h-1.4h-63.2h-1.4h-67.4h-2.8h-65.4h-1.4h-65.3h-1.4H35.2h-1.4h-65.7h-2.8h-14.7
			v1.4h14.7h2.8h65.7h1.4h64.9h1.4h65.3h1.4h65.4h2.8h67.4h1.4h63.2h1.4h71h1.4h67.6V684.7 M1056.2,684.7h-0.6h-2.8h-64.6h-1.4H920
			h-1.4h-65.4h-1.4h-66H783h-65.8h-1.4h-65.6h-1.4h-67.6h-1.4h-67v1.4h67h1.4h67.6h1.4h65.6h1.4H783h2.8h66h1.4h65.4h1.4h66.8h1.4
			h64.6h2.8h0.6V684.7"/>
		<path class="st3" d="M509.8,818.9h-67.6h-1.4h-71h-1.4h-63.2h-1.4h-67.4h-2.8h-65.4h-1.4h-65.3h-1.4H35.2h-1.4h-65.7h-2.8h-14.7
			v2.8h14.7h2.8h65.7h1.4h64.9h1.4h65.3h1.4h65.4h2.8h67.4h1.4h63.2h1.4h71h1.4h67.6V818.9 M1056.2,818.9h-0.6h-2.8h-64.6h-1.4H920
			h-1.4h-65.4h-1.4h-66H783h-65.8h-1.4h-65.6h-1.4h-67.6h-1.4h-67v2.8h67h1.4h67.6h1.4h65.6h1.4H783h2.8h66h1.4h65.4h1.4h66.8h1.4
			h64.6h2.8h0.6V818.9"/>
		<path class="st3" d="M509.8,954.5h-67.6h-1.4h-71h-1.4h-63.2h-1.4h-67.4h-2.8h-65.4h-1.4h-65.3h-1.4H35.2h-1.4h-65.7h-2.8h-14.7
			v1.4h14.7h2.8h65.7h1.4h64.9h1.4h65.3h1.4h65.4h2.8h67.4h1.4h63.2h1.4h71h1.4h67.6V954.5 M1056.2,954.5h-0.6h-2.8h-64.6h-1.4H920
			h-1.4h-65.4h-1.4h-66H783h-65.8h-1.4h-65.6h-1.4h-67.6h-1.4h-67v1.4h67h1.4h67.6h1.4h65.6h1.4H783h2.8h66h1.4h65.4h1.4h66.8h1.4
			h64.6h2.8h0.6V954.5"/>
		<path class="st3" d="M509.8,404.3h-67.6h-1.4h-71h-1.4h-63.2h-1.4h-67.4h-2.8h-65.4h-1.4h-65.3h-1.4H35.2h-1.4h-65.7h-2.8h-14.7
			v1.4h14.7h2.8h65.7h1.4h64.9h1.4h65.3h1.4h65.4h2.8h67.4h1.4h63.2h1.4h71h1.4h67.6V404.3 M1056.2,404.3h-0.6h-2.8h-64.6h-1.4H920
			h-1.4h-65.4h-1.4h-66H783h-65.8h-1.4h-65.6h-1.4h-67.6h-1.4h-67v1.4h67h1.4h67.6h1.4h65.6h1.4H783h2.8h66h1.4h65.4h1.4h66.8h1.4
			h64.6h2.8h0.6V404.3"/>
		<path class="st3" d="M40.9,269.5h-5.7h-1.4h-65.7h-2.8h-14.7v2.8h14.7h2.8h65.7h1.4h5.7V269.5 M509.8,269.5h-67.6h-1.4h-71h-1.4
			H337v2.8h31.4h1.4h71h1.4h67.6V269.5 M1056.2,269.5h-0.6h-2.8h-64.6h-1.4H920h-1.4h-65.4h-1.4h-66H783h-65.8h-1.4h-65.6h-1.4
			h-67.6h-1.4h-67v2.8h67h1.4h67.6h1.4h65.6h1.4H783h2.8h66h1.4h65.4h1.4h66.8h1.4h64.6h2.8h0.6V269.5"/>
		<path class="st3" d="M40.9,136h-5.7h-1.4h-65.7h-2.8h-14.7v1.4h14.7h2.8h65.7h1.4h5.7V136 M509.8,136h-67.6h-1.4h-71h-1.4H337v1.4
			h31.4h1.4h71h1.4h67.6V136 M1056.2,136h-0.6h-2.8h-64.6h-1.4H920h-1.4h-65.4h-1.4h-66H783h-65.8h-1.4h-65.6h-1.4h-67.6h-1.4h-67
			v1.4h67h1.4h67.6h1.4h65.6h1.4H783h2.8h66h1.4h65.4h1.4h66.8h1.4h64.6h2.8h0.6V136"/>
		<polyline class="st5" points="512.8,0.9 509.8,0.9 509.8,68.8 509.8,70.2 509.8,136 509.8,137.4 509.8,201.8 509.8,203.2 
			509.8,269.5 509.8,272.3 509.8,338.8 509.8,340.2 509.8,404.3 509.8,405.7 509.8,475.8 509.8,477.2 509.8,541.8 512.8,541.8 
			512.8,477.2 512.8,475.8 512.8,405.7 512.8,404.3 512.8,340.2 512.8,338.8 512.8,272.3 512.8,269.5 512.8,203.2 512.8,201.8 
			512.8,137.4 512.8,136 512.8,70.2 512.8,68.8 512.8,0.9 		"/>
		<polyline class="st5" points="512.8,-0.1 509.8,-0.1 509.8,0.9 512.8,0.9 512.8,-0.1 		"/>
		<polyline class="st5" points="512.8,545.9 509.8,545.9 509.8,614.8 509.8,616.2 509.8,684.7 509.8,686.1 509.8,750.8 509.8,752.2 
			509.8,818.9 509.8,821.7 509.8,886.8 509.8,888.2 509.8,954.5 509.8,955.9 509.8,1021.8 509.8,1023.2 509.8,1078.9 512.8,1078.9 
			512.8,1023.2 512.8,1021.8 512.8,955.9 512.8,954.5 512.8,888.2 512.8,886.8 512.8,821.7 512.8,818.9 512.8,752.2 512.8,750.8 
			512.8,686.1 512.8,684.7 512.8,616.2 512.8,614.8 512.8,545.9 		"/>
		<polyline class="st5" points="512.8,1078.9 509.8,1078.9 509.8,1079.9 512.8,1079.9 512.8,1078.9 		"/>
		<polyline class="st5" points="1056.2,541.8 1055.6,541.8 1052.8,541.8 988.2,541.8 986.8,541.8 920,541.8 918.6,541.8 
			853.2,541.8 851.8,541.8 785.8,541.8 783,541.8 717.2,541.8 715.8,541.8 650.2,541.8 648.8,541.8 581.2,541.8 579.8,541.8 
			512.8,541.8 509.8,541.8 442.2,541.8 440.8,541.8 369.8,541.8 368.4,541.8 305.2,541.8 303.8,541.8 236.4,541.8 233.6,541.8 
			168.2,541.8 166.8,541.8 101.5,541.8 100.1,541.8 35.2,541.8 33.8,541.8 -31.9,541.8 -34.7,541.8 -49.4,541.8 -49.4,545.9 
			-34.7,545.9 -31.9,545.9 33.8,545.9 35.2,545.9 100.1,545.9 101.5,545.9 166.8,545.9 168.2,545.9 233.6,545.9 236.4,545.9 
			303.8,545.9 305.2,545.9 368.4,545.9 369.8,545.9 440.8,545.9 442.2,545.9 509.8,545.9 512.8,545.9 579.8,545.9 581.2,545.9 
			648.8,545.9 650.2,545.9 715.8,545.9 717.2,545.9 783,545.9 785.8,545.9 851.8,545.9 853.2,545.9 918.6,545.9 920,545.9 
			986.8,545.9 988.2,545.9 1052.8,545.9 1055.6,545.9 1056.2,545.9 1056.2,541.8 		"/>
		<path class="st0" d="M100.1,340.2H40.9v19.7h59.2V340.2 M166.8,340.2h-37.2v9.8H146v5.6v0.5h-30.1v-15.9h-14.4v19.7h65.3V340.2
			 M233.6,340.2h-65.4v19.7h65.4V340.2 M303.8,340.2h-67.4v19.7h67.4V340.2 M337,340.2h-31.8v19.7H337V340.2 M100.1,272.3H40.9v66.5
			h59.2V272.3 M115.9,272.3h-14.4v66.5h14.4V272.3 M166.8,272.3h-37.2v66.5h37.2V272.3 M233.6,272.3h-65.4v66.5h65.4V272.3
			 M303.8,272.3h-67.4v66.5h67.4V272.3 M337,272.3h-31.8v66.5H337V272.3 M100.1,203.2H40.9v66.3h59.2V203.2 M115.9,203.2h-14.4v66.3
			h14.4V203.2 M166.8,203.2h-37.2v66.3h37.2V203.2 M233.6,203.2h-65.4v66.3h65.4V203.2 M303.8,203.2h-67.4v66.3h67.4V203.2
			 M337,203.2h-31.8v66.3H337V203.2 M100.1,137.4H40.9v64.4h59.2V137.4 M115.9,137.4h-14.4v64.4h14.4V137.4 M166.8,137.4h-37.2v64.4
			h37.2V137.4 M233.6,137.4h-65.4v64.4h65.4V137.4 M303.8,137.4h-67.4v64.4h67.4V137.4 M337,137.4h-31.8v64.4H337V137.4
			 M100.1,115.3H40.9V136h59.2V115.3 M166.8,115.3h-65.3V136h14.4v-14H146v6.1h-16.4v7.9h37.2V115.3 M233.6,115.3h-65.4V136h65.4
			V115.3 M303.8,115.3h-67.4V136h67.4V115.3 M337,115.3h-31.8V136H337V115.3"/>
		<path class="st6" d="M100.1,201.8H40.9v1.4h59.2V201.8 M115.9,201.8h-14.4v1.4h14.4V201.8 M166.8,201.8h-37.2v1.4h37.2V201.8
			 M233.6,201.8h-65.4v1.4h65.4V201.8 M303.8,201.8h-67.4v1.4h67.4V201.8 M337,201.8h-31.8v1.4H337V201.8"/>
		<path class="st6" d="M100.1,338.8H40.9v1.4h59.2V338.8 M115.9,338.8h-14.4v1.4h14.4V338.8 M166.8,338.8h-37.2v1.4h37.2V338.8
			 M233.6,338.8h-65.4v1.4h65.4V338.8 M303.8,338.8h-67.4v1.4h67.4V338.8 M337,338.8h-31.8v1.4H337V338.8"/>
		<polyline class="st6" points="168.2,115.3 166.8,115.3 166.8,136 168.2,136 168.2,115.3 		"/>
		<path class="st6" d="M168.2,272.3h-1.4v66.5v1.4v19.7h1.4v-19.7v-1.4V272.3 M168.2,137.4h-1.4v64.4v1.4v66.3h1.4v-66.3v-1.4V137.4
			"/>
		<polyline class="st6" points="305.2,115.3 303.8,115.3 303.8,136 305.2,136 305.2,115.3 		"/>
		<path class="st6" d="M305.2,272.3h-1.4v66.5v1.4v19.7h1.4v-19.7v-1.4V272.3 M305.2,137.4h-1.4v64.4v1.4v66.3h1.4v-66.3v-1.4V137.4
			"/>
		<polyline class="st7" points="236.4,115.3 233.6,115.3 233.6,136 236.4,136 236.4,115.3 		"/>
		<path class="st7" d="M236.4,272.3h-2.8v66.5v1.4v19.7h2.8v-19.7v-1.4V272.3 M236.4,137.4h-2.8v64.4v1.4v66.3h2.8v-66.3v-1.4V137.4
			"/>
		<polyline class="st7" points="101.5,115.3 100.1,115.3 100.1,136 101.5,136 101.5,115.3 		"/>
		<path class="st7" d="M101.5,272.3h-1.4v66.5v1.4v19.7h1.4v-19.7v-1.4V272.3 M101.5,137.4h-1.4v64.4v1.4v66.3h1.4v-66.3v-1.4V137.4
			"/>
		<path class="st7" d="M115.9,269.5h-14.4h-1.4H40.9v2.8h59.2h1.4h14.4V269.5 M337,269.5h-31.8h-1.4h-67.4h-2.8h-65.4h-1.4h-37.2
			v2.8h37.2h1.4h65.4h2.8h67.4h1.4H337V269.5"/>
		<path class="st7" d="M115.9,136h-14.4h-1.4H40.9v1.4h59.2h1.4h14.4V136 M337,136h-31.8h-1.4h-67.4h-2.8h-65.4h-1.4h-37.2v1.4h37.2
			h1.4h65.4h2.8h67.4h1.4H337V136"/>
		<path class="st0" d="M128.6,340.2h-11.7v14.9H145V351h-16.4V340.2 M128.6,272.3h-11.7v66.5h11.7V272.3 M128.6,203.2h-11.7v66.3
			h11.7V203.2 M128.6,137.4h-11.7v64.4h11.7V137.4 M145,123h-28.1v13h11.7v-8.9l16.4,0V123"/>
		<polyline class="st6" points="128.6,201.8 116.9,201.8 116.9,203.2 128.6,203.2 128.6,201.8 		"/>
		<polyline class="st6" points="128.6,338.8 116.9,338.8 116.9,340.2 128.6,340.2 128.6,338.8 		"/>
		<polyline class="st7" points="128.6,269.5 116.9,269.5 116.9,272.3 128.6,272.3 128.6,269.5 		"/>
		<polyline class="st7" points="128.6,136 116.9,136 116.9,137.4 128.6,137.4 128.6,136 		"/>
		<polygon class="st8" points="1197.7,192.2 1200.6,193.1 -165.3,888.6 -168.1,887.7 		"/>
		<g class="st0">
			<path class="st9" d="M116.4,355.6V122.5h29.1v5.1h-16.4v222.9h16.4v5.1H116.4z"/>
		</g>
		<polyline class="st0" points="145.5,355.6 146,355.6 146,350 129.6,350 129.6,128.1 146,128.1 146,122 115.9,122 115.9,356.1 
			146,356.1 146,355.6 145.5,355.6 145.5,355.1 116.9,355.1 116.9,123 145,123 145,127.1 128.6,127.1 128.6,351 145,351 145,355.6 
			145.5,355.6 145.5,355.1 145.5,355.6 		"/>
		<g class="st0">
			<path class="st9" d="M358,350.6h16.4V127.7H358v-5.1H387v233.1H358V350.6z"/>
		</g>
		<g class="st0">
			<path class="st10" d="M358,350.6h16.4V127.7H358v-5.1H387v233.1H358V350.6z"/>
		</g>
		<g class="st0">
			<path class="st9" d="M264.5,190.5v-2.9h42v2.9H264.5z"/>
		</g>
		<g class="st0">
			<path class="st9" d="M313.7,163.5v-2.7c6.9,0,12.1-1.8,15.6-5.4c0.9,0,1.4,0.1,1.6,0.3c0.2,0.2,0.2,0.8,0.2,1.9v47.7
				c0,1.7,0.4,2.8,1.3,3.3c0.9,0.5,3.2,0.8,6.9,0.8h2.8v2.7c-2-0.2-6.6-0.3-13.8-0.3c-7.2,0-11.8,0.1-13.7,0.3v-2.7h2.7
				c3.6,0,5.8-0.3,6.6-0.8c0.9-0.5,1.3-1.6,1.3-3.3v-44C322.3,162.7,318.4,163.5,313.7,163.5z"/>
		</g>
		<g class="st0">
			<path class="st9" d="M264.9,297.9V295h42v2.9H264.9z"/>
		</g>
		<g class="st0">
			<path class="st9" d="M311.2,319.3c0-1,0-1.7,0.1-2c0.1-0.3,0.4-0.7,0.8-1.2l16.2-18.2c6-6.7,8.9-13,8.9-18.8c0-3.8-1-7-3-9.7
				s-4.8-4.1-8.4-4.1c-2.5,0-4.8,0.8-6.8,2.3c-2.1,1.5-3.6,3.6-4.6,6.3c0.2-0.1,0.5-0.1,1.1-0.1c1.4,0,2.5,0.4,3.2,1.3
				c0.8,0.9,1.2,1.9,1.2,3.1c0,1.5-0.5,2.7-1.4,3.4c-1,0.7-1.9,1.1-2.9,1.1c-0.4,0-0.8,0-1.3-0.1c-0.5-0.1-1.1-0.5-1.9-1.3
				c-0.8-0.8-1.2-1.9-1.2-3.3c0-3.9,1.5-7.5,4.5-10.6s6.7-4.7,11.3-4.7c5.2,0,9.4,1.5,12.8,4.6c3.4,3.1,5.1,7,5.1,11.8
				c0,1.7-0.3,3.3-0.8,4.8c-0.5,1.5-1.1,2.9-1.8,4.1c-0.7,1.2-1.9,2.7-3.7,4.7c-1.8,1.9-3.4,3.5-4.9,4.9c-1.5,1.4-3.8,3.5-7.1,6.4
				l-8.9,8.8h15.2c4.9,0,7.6-0.2,8-0.7c0.6-0.8,1.2-3.3,1.9-7.6h2.1l-2.4,14.8H311.2z"/>
		</g>
		<g class="st0">
			<path class="st9" d="M173.2,164v-2.6c6.8,0,11.9-1.8,15.4-5.4c0.9,0,1.4,0.1,1.6,0.3c0.2,0.2,0.2,0.8,0.2,1.8v47.2
				c0,1.7,0.4,2.8,1.3,3.3c0.9,0.5,3.1,0.8,6.9,0.8h2.8v2.6c-2-0.2-6.5-0.3-13.6-0.3c-7.1,0-11.7,0.1-13.6,0.3v-2.6h2.7
				c3.5,0,5.7-0.3,6.6-0.8c0.8-0.5,1.3-1.6,1.3-3.3v-43.5C181.6,163.2,177.8,164,173.2,164z"/>
		</g>
		<g class="st0">
			<path class="st9" d="M170.3,319c0-1,0-1.7,0.1-2c0.1-0.3,0.4-0.7,0.8-1.1l16-18c5.9-6.6,8.9-12.9,8.9-18.6c0-3.7-1-7-2.9-9.6
				c-2-2.7-4.7-4-8.3-4c-2.4,0-4.7,0.7-6.8,2.2c-2.1,1.5-3.6,3.6-4.5,6.2c0.2-0.1,0.5-0.1,1.1-0.1c1.4,0,2.4,0.4,3.2,1.3
				c0.8,0.9,1.1,1.9,1.1,3.1c0,1.5-0.5,2.6-1.4,3.4c-1,0.7-1.9,1.1-2.8,1.1c-0.4,0-0.8,0-1.3-0.1c-0.5-0.1-1.1-0.5-1.9-1.3
				c-0.8-0.8-1.2-1.9-1.2-3.3c0-3.9,1.5-7.4,4.4-10.5c2.9-3.1,6.7-4.7,11.2-4.7c5.1,0,9.3,1.5,12.7,4.6c3.3,3,5,6.9,5,11.7
				c0,1.7-0.3,3.3-0.8,4.8c-0.5,1.5-1.1,2.9-1.8,4c-0.7,1.2-1.9,2.7-3.7,4.6c-1.8,1.9-3.4,3.5-4.8,4.9c-1.4,1.3-3.8,3.4-7,6.3
				l-8.8,8.7h15.1c4.9,0,7.5-0.2,7.9-0.7c0.5-0.8,1.2-3.3,1.8-7.5h2.1l-2.3,14.6H170.3z"/>
		</g>
		<path class="st0" d="M33.8,70.2h-2.6v45.1h2.6V70.2 M100.1,70.2H35.2v45.1h5.7v-4.6h59.2V70.2 M166.8,70.2h-65.3v40.5h65.3V70.2
			 M233.6,70.2h-65.4v40.5h65.4V70.2 M303.8,70.2h-67.4v40.5h67.4V70.2 M368.4,70.2h-63.2v40.5H337v4.6h31.4V70.2 M440.8,70.2h-71
			v45.1h71V70.2 M487.8,70.2h-45.6v45.1h45.6V70.2 M33.8,42.5h-2.6v26.3h2.6V42.5 M100.1,42.5H35.2v26.3h64.9V42.5 M166.8,42.5
			h-65.3v26.3h65.3V42.5 M233.6,42.5h-65.4v26.3h65.4V42.5 M303.8,42.5h-67.4v26.3h67.4V42.5 M368.4,42.5h-63.2v26.3h63.2V42.5
			 M440.8,42.5h-71v26.3h71V42.5 M487.8,42.5h-45.6v26.3h45.6V42.5"/>
		<path class="st6" d="M33.8,68.8h-2.6v1.4h2.6V68.8 M100.1,68.8H35.2v1.4h64.9V68.8 M166.8,68.8h-65.3v1.4h65.3V68.8 M233.6,68.8
			h-65.4v1.4h65.4V68.8 M303.8,68.8h-67.4v1.4h67.4V68.8 M368.4,68.8h-63.2v1.4h63.2V68.8 M440.8,68.8h-71v1.4h71V68.8 M487.8,68.8
			h-45.6v1.4h45.6V68.8"/>
		<polyline class="st6" points="35.2,42.5 33.8,42.5 33.8,68.8 33.8,70.2 33.8,115.3 35.2,115.3 35.2,70.2 35.2,68.8 35.2,42.5 		
			"/>
		<polyline class="st6" points="168.2,42.5 166.8,42.5 166.8,68.8 166.8,70.2 166.8,110.7 168.2,110.7 168.2,70.2 168.2,68.8 
			168.2,42.5 		"/>
		<polyline class="st6" points="305.2,42.5 303.8,42.5 303.8,68.8 303.8,70.2 303.8,110.7 305.2,110.7 305.2,70.2 305.2,68.8 
			305.2,42.5 		"/>
		<polyline class="st6" points="442.2,42.5 440.8,42.5 440.8,68.8 440.8,70.2 440.8,115.3 442.2,115.3 442.2,70.2 442.2,68.8 
			442.2,42.5 		"/>
		<polyline class="st7" points="369.8,42.5 368.4,42.5 368.4,68.8 368.4,70.2 368.4,115.3 369.8,115.3 369.8,70.2 369.8,68.8 
			369.8,42.5 		"/>
		<polyline class="st7" points="236.4,42.5 233.6,42.5 233.6,68.8 233.6,70.2 233.6,110.7 236.4,110.7 236.4,70.2 236.4,68.8 
			236.4,42.5 		"/>
		<polyline class="st7" points="101.5,42.5 100.1,42.5 100.1,68.8 100.1,70.2 100.1,110.7 101.5,110.7 101.5,70.2 101.5,68.8 
			101.5,42.5 		"/>
		<path class="st0" d="M100.1,110.7H40.9v4.6h59.2V110.7 M166.8,110.7h-65.3v4.6h65.3V110.7 M233.6,110.7h-65.4v4.6h65.4V110.7
			 M303.8,110.7h-67.4v4.6h67.4V110.7 M337,110.7h-31.8v4.6H337V110.7"/>
		<polyline class="st11" points="168.2,110.7 166.8,110.7 166.8,115.3 168.2,115.3 168.2,110.7 		"/>
		<polyline class="st11" points="305.2,110.7 303.8,110.7 303.8,115.3 305.2,115.3 305.2,110.7 		"/>
		<polyline class="st12" points="236.4,110.7 233.6,110.7 233.6,115.3 236.4,115.3 236.4,110.7 		"/>
		<polyline class="st12" points="101.5,110.7 100.1,110.7 100.1,115.3 101.5,115.3 101.5,110.7 		"/>
		<g class="st0">
			<path class="st13" d="M41.1,66l1.2-14.6H82L83.3,66h-1.6c-0.2-1.9-0.3-3.5-0.5-4.6c-0.2-1.1-0.4-2.2-0.8-3.3
				c-0.4-1.1-0.8-1.9-1.2-2.4c-0.5-0.5-1.1-1-2-1.4c-0.9-0.4-1.9-0.7-3-0.8c-1.1-0.1-2.5-0.2-4.2-0.2c-2,0-3.2,0-3.7,0.1
				c-0.5,0.1-0.9,0.4-1,0.7S65,55.2,65,56v34.2c0,0.9,0.1,1.5,0.3,1.8s0.8,0.7,1.8,0.9c1,0.3,2.6,0.4,4.8,0.4h2.6v2
				c-1.8-0.1-5.9-0.2-12.3-0.2c-6.4,0-10.5,0.1-12.3,0.2v-2h2.6c2.2,0,3.8-0.1,4.8-0.4c1-0.3,1.6-0.6,1.8-0.9c0.2-0.3,0.3-1,0.3-1.8
				V56c0-0.6,0-1-0.1-1.3c0-0.3-0.2-0.5-0.3-0.7s-0.5-0.4-0.9-0.5s-1.6-0.1-3.5-0.1c-1.7,0-3.1,0.1-4.2,0.2c-1.1,0.1-2.1,0.4-3,0.8
				c-0.9,0.4-1.5,0.9-2,1.4c-0.5,0.5-0.9,1.3-1.2,2.4s-0.6,2.2-0.8,3.3S42.9,64,42.7,66H41.1z"/>
			<path class="st13" d="M82.1,95.3v-2c2.3,0,3.7-0.1,4.3-0.4c0.5-0.3,0.8-1.1,0.8-2.5V73c0-1.6-0.3-2.6-0.8-3
				c-0.6-0.4-2-0.6-4.2-0.6v-2l9-0.7v7.1c0.6-1.9,1.6-3.5,2.9-5c1.3-1.4,3-2.2,5.1-2.2c1.4,0,2.5,0.4,3.4,1.2
				c0.9,0.8,1.3,1.7,1.3,2.8c0,1-0.3,1.7-0.9,2.1s-1.2,0.7-1.9,0.7c-0.8,0-1.4-0.2-2-0.7c-0.5-0.5-0.8-1.2-0.8-2
				c0-0.5,0.1-1,0.4-1.4s0.5-0.7,0.7-0.8s0.3-0.2,0.5-0.3c-0.1,0-0.3-0.1-0.7-0.1c-2.4,0-4.3,1.2-5.6,3.6c-1.4,2.4-2,5.3-2,8.6v10
				c0,1.2,0.3,2.1,0.8,2.5c0.5,0.4,1.9,0.6,4.2,0.6h1.4v2c-1.7-0.1-4.5-0.2-8.3-0.2c-0.5,0-1.2,0-2,0c-0.8,0-1.8,0.1-2.9,0.1
				C83.5,95.3,82.7,95.3,82.1,95.3z"/>
			<path class="st13" d="M108.4,89.1c0-3.7,2.2-6.5,6.6-8.5c2.7-1.3,6.7-2,12.2-2.4v-2.4c0-2.7-0.7-4.7-2.2-6.2
				c-1.5-1.4-3.2-2.1-5-2.1c-3.2,0-5.6,1-7.1,3c1.2,0,2.1,0.4,2.5,1c0.4,0.6,0.7,1.3,0.7,2c0,0.9-0.3,1.6-0.8,2.1
				c-0.5,0.6-1.2,0.8-2.1,0.8c-0.8,0-1.5-0.3-2.1-0.8c-0.6-0.5-0.8-1.3-0.8-2.2c0-2.1,1-3.9,2.9-5.3c1.9-1.4,4.2-2.1,7-2.1
				c3.7,0,6.7,1.2,9.2,3.6c0.8,0.7,1.3,1.6,1.7,2.5c0.4,0.9,0.6,1.7,0.6,2.4s0.1,1.5,0.1,2.8v13c0,0.3,0,0.6,0.1,1
				c0.1,0.4,0.3,0.9,0.7,1.4c0.4,0.5,0.9,0.8,1.6,0.8c1.6,0,2.3-1.4,2.3-4.1v-3.6h1.6v3.7c0,2.3-0.6,3.9-1.8,4.8
				c-1.2,0.9-2.4,1.4-3.5,1.4c-1.4,0-2.6-0.5-3.5-1.6c-0.9-1.1-1.4-2.3-1.6-3.8c-0.7,1.7-1.8,3-3.4,4.1s-3.4,1.6-5.6,1.6
				c-1.6,0-3.1-0.2-4.5-0.6c-1.5-0.4-2.8-1.1-4-2.2C109,92.2,108.4,90.8,108.4,89.1z M113.8,89.1c0,1.6,0.5,3,1.6,4
				c1.1,1,2.3,1.6,3.8,1.6c1.9,0,3.7-0.7,5.5-2.1c1.7-1.4,2.6-3.5,2.6-6.3v-6.5c-4.8,0.2-8.2,1.2-10.3,3.1S113.8,86.8,113.8,89.1z"
				/>
			<path class="st13" d="M140.2,95.3v-2c2.3,0,3.7-0.1,4.3-0.4c0.5-0.3,0.8-1.1,0.8-2.5V73c0-1.6-0.3-2.6-0.8-3
				c-0.6-0.4-2-0.6-4.2-0.6v-2l9.1-0.7l0,6.8c2-4.5,5.2-6.8,9.6-6.8c3.3,0,5.5,0.8,6.8,2.4c1,1.1,1.5,2.2,1.7,3.4
				c0.2,1.2,0.3,3.4,0.3,6.5v12.4c0,0.9,0.4,1.5,1.1,1.7c0.7,0.2,2,0.3,4,0.3v2c-4.4-0.1-6.9-0.2-7.3-0.2c-0.3,0-2.8,0.1-7.3,0.2v-2
				c2.3,0,3.7-0.1,4.3-0.4c0.5-0.3,0.8-1.1,0.8-2.5V75.2c0-2.2-0.3-3.9-1-5.2c-0.7-1.3-2-1.9-3.8-1.9c-2.2,0-4.3,0.9-6.1,2.8
				s-2.7,4.4-2.7,7.6v11.9c0,1.4,0.3,2.2,0.8,2.5c0.5,0.3,2,0.4,4.3,0.4v2c-4.4-0.1-6.9-0.2-7.3-0.2
				C147.2,95.2,144.8,95.2,140.2,95.3z"/>
			<path class="st13" d="M176.4,94.5v-8.6c0-0.5,0-0.8,0-1c0-0.2,0.1-0.3,0.2-0.4c0.1-0.1,0.3-0.2,0.6-0.2c0.3,0,0.5,0.1,0.6,0.2
				c0.1,0.1,0.2,0.4,0.3,0.9c0.6,3,1.6,5.3,3,6.9c1.4,1.6,3.4,2.4,5.9,2.4c2.4,0,4.3-0.5,5.5-1.6c1.2-1.1,1.8-2.5,1.8-4.3
				c0-3.2-2.3-5.2-6.8-6c-2.6-0.5-4.4-1-5.5-1.3c-1.1-0.3-2.1-0.9-3-1.7c-1.9-1.5-2.8-3.4-2.8-5.5s0.8-4,2.5-5.6s4.3-2.4,7.9-2.4
				c2.4,0,4.5,0.6,6.1,1.8c0.5-0.4,0.9-0.7,1.1-1c0.6-0.5,1.1-0.8,1.4-0.8c0.4,0,0.6,0.1,0.7,0.3c0.1,0.2,0.1,0.6,0.1,1.3v6.5
				c0,0.5,0,0.8,0,1c0,0.2-0.1,0.3-0.2,0.4s-0.4,0.2-0.7,0.2c-0.5,0-0.8-0.2-0.9-0.6c-0.3-5.2-2.9-7.9-7.6-7.9
				c-2.6,0-4.4,0.5-5.6,1.5s-1.7,2.1-1.7,3.5c0,0.7,0.2,1.4,0.5,2c0.3,0.6,0.8,1,1.2,1.3c0.5,0.3,1.1,0.6,2,1c0.8,0.3,1.5,0.5,2,0.6
				c0.5,0.1,1.3,0.3,2.3,0.5c3.5,0.7,5.9,1.7,7.4,3.1c1.8,1.8,2.7,3.9,2.7,6.2c0,2.6-0.9,4.7-2.6,6.4c-1.7,1.7-4.3,2.6-7.8,2.6
				c-2.8,0-5.2-0.9-7.2-2.8c-0.2,0.3-0.5,0.5-0.7,0.7c-0.2,0.2-0.3,0.4-0.4,0.5c-0.1,0.1-0.1,0.2-0.1,0.2c0,0.1-0.1,0.1-0.1,0.1
				c-0.9,0.8-1.4,1.3-1.6,1.3c-0.4,0-0.6-0.1-0.6-0.3C176.4,95.5,176.4,95.1,176.4,94.5z"/>
			<path class="st13" d="M201.9,69.4v-2h5.1v-7.5c0-3.2,1-5.7,3.1-7.6s4.4-2.8,7-2.8c1.7,0,3.1,0.5,4.1,1.4c1.1,0.9,1.6,2,1.6,3.2
				c0,0.8-0.2,1.5-0.7,2c-0.5,0.5-1.2,0.8-2.1,0.8c-0.9,0-1.5-0.3-2-0.8c-0.5-0.5-0.7-1.2-0.7-2c0-1.4,0.6-2.3,1.9-2.7
				c-0.7-0.3-1.4-0.5-2.1-0.5c-1.6,0-3,0.8-4.2,2.4c-1.2,1.6-1.8,3.8-1.8,6.4v7.5h7.6v2h-7.4v20.9c0,1.2,0.3,2.1,0.8,2.5
				c0.5,0.4,1.9,0.6,4.2,0.6h1.4v2c-1.7-0.1-4.5-0.2-8.3-0.2c-0.5,0-1.2,0-2,0c-0.8,0-1.8,0.1-2.9,0.1c-1.1,0-1.9,0.1-2.5,0.1v-2
				c2.3,0,3.7-0.1,4.3-0.4c0.5-0.3,0.8-1.1,0.8-2.5v-21H201.9z"/>
			<path class="st13" d="M225.7,91.8c-2.9-2.8-4.3-6.3-4.3-10.4c0-4.1,1.4-7.7,4.2-10.7c2.8-3,6.2-4.5,10.2-4.5
				c3.9,0,7.3,1.5,10.1,4.5s4.2,6.6,4.2,10.7c0,4.1-1.4,7.5-4.3,10.4c-2.8,2.8-6.2,4.3-10.2,4.3C231.9,96.1,228.6,94.7,225.7,91.8z
				 M226.8,80.9c0,4.2,0.5,7.3,1.7,9.2c1.7,2.9,4.2,4.4,7.4,4.4c1.6,0,3.1-0.4,4.4-1.3c1.3-0.9,2.4-2,3.1-3.5c1-1.9,1.4-4.8,1.4-8.7
				c0-4.2-0.6-7.2-1.7-9c-1.7-2.8-4.1-4.2-7.3-4.2c-1.4,0-2.8,0.4-4.1,1.1c-1.4,0.7-2.5,1.8-3.3,3.3
				C227.3,73.9,226.8,76.9,226.8,80.9z"/>
			<path class="st13" d="M253.9,95.3v-2c2.3,0,3.7-0.1,4.3-0.4c0.5-0.3,0.8-1.1,0.8-2.5V73c0-1.6-0.3-2.6-0.8-3
				c-0.6-0.4-2-0.6-4.2-0.6v-2l9-0.7v7.1c0.6-1.9,1.6-3.5,2.9-5c1.3-1.4,3-2.2,5.1-2.2c1.4,0,2.5,0.4,3.4,1.2
				c0.9,0.8,1.3,1.7,1.3,2.8c0,1-0.3,1.7-0.9,2.1s-1.2,0.7-1.9,0.7c-0.8,0-1.4-0.2-2-0.7c-0.5-0.5-0.8-1.2-0.8-2
				c0-0.5,0.1-1,0.4-1.4s0.5-0.7,0.7-0.8s0.3-0.2,0.5-0.3c-0.1,0-0.3-0.1-0.7-0.1c-2.4,0-4.3,1.2-5.6,3.6c-1.4,2.4-2,5.3-2,8.6v10
				c0,1.2,0.3,2.1,0.8,2.5c0.5,0.4,1.9,0.6,4.2,0.6h1.4v2c-1.7-0.1-4.5-0.2-8.3-0.2c-0.5,0-1.2,0-2,0c-0.8,0-1.8,0.1-2.9,0.1
				C255.4,95.3,254.5,95.3,253.9,95.3z"/>
			<path class="st13" d="M279.5,95.3v-2c2.3,0,3.7-0.1,4.3-0.4c0.5-0.3,0.8-1.1,0.8-2.5V73c0-1.6-0.3-2.6-0.8-3
				c-0.6-0.4-2-0.6-4.2-0.6v-2l9.1-0.7l0,6.8c2-4.5,5.2-6.8,9.6-6.8c5.1,0,8,2.1,8.7,6.3c0.7-1.6,1.9-3.1,3.4-4.4
				c1.6-1.3,3.5-1.9,6-1.9c3.3,0,5.5,0.8,6.8,2.4c1,1.1,1.5,2.2,1.7,3.4c0.2,1.2,0.3,3.4,0.3,6.5v12.4c0,0.9,0.4,1.5,1.1,1.7
				c0.7,0.2,2,0.3,4,0.3v2c-4.4-0.1-6.8-0.2-7.3-0.2c-0.3,0-2.8,0.1-7.4,0.2v-2c2.3,0,3.7-0.1,4.3-0.4c0.5-0.3,0.8-1.1,0.8-2.5V75.2
				c0-2.2-0.3-3.9-1-5.2c-0.7-1.3-1.9-1.9-3.8-1.9c-2.2,0-4.3,0.9-6.1,2.8c-1.8,1.9-2.7,4.4-2.7,7.6v11.9c0,1.4,0.3,2.2,0.8,2.5
				c0.5,0.3,2,0.4,4.3,0.4v2c-4.4-0.1-6.9-0.2-7.3-0.2c-0.3,0-2.8,0.1-7.3,0.2v-2c2.3,0,3.7-0.1,4.3-0.4c0.5-0.3,0.8-1.1,0.8-2.5
				V75.2c0-2.2-0.3-3.9-1-5.2c-0.7-1.3-2-1.9-3.8-1.9c-2.2,0-4.3,0.9-6.1,2.8s-2.7,4.4-2.7,7.6v11.9c0,1.4,0.3,2.2,0.8,2.5
				c0.5,0.3,2,0.4,4.3,0.4v2c-4.4-0.1-6.9-0.2-7.3-0.2C286.5,95.2,284.1,95.2,279.5,95.3z"/>
			<path class="st13" d="M334.3,89.1c0-3.7,2.2-6.5,6.6-8.5c2.7-1.3,6.7-2,12.2-2.4v-2.4c0-2.7-0.7-4.7-2.2-6.2
				c-1.5-1.4-3.2-2.1-5-2.1c-3.2,0-5.6,1-7.1,3c1.2,0,2.1,0.4,2.5,1c0.4,0.6,0.7,1.3,0.7,2c0,0.9-0.3,1.6-0.8,2.1
				c-0.5,0.6-1.2,0.8-2.1,0.8c-0.8,0-1.5-0.3-2.1-0.8c-0.6-0.5-0.8-1.3-0.8-2.2c0-2.1,1-3.9,2.9-5.3c1.9-1.4,4.2-2.1,7-2.1
				c3.7,0,6.7,1.2,9.2,3.6c0.8,0.7,1.3,1.6,1.7,2.5c0.4,0.9,0.6,1.7,0.6,2.4s0.1,1.5,0.1,2.8v13c0,0.3,0,0.6,0.1,1
				c0.1,0.4,0.3,0.9,0.7,1.4c0.4,0.5,0.9,0.8,1.6,0.8c1.6,0,2.3-1.4,2.3-4.1v-3.6h1.6v3.7c0,2.3-0.6,3.9-1.8,4.8
				c-1.2,0.9-2.4,1.4-3.5,1.4c-1.4,0-2.6-0.5-3.5-1.6c-0.9-1.1-1.4-2.3-1.6-3.8c-0.7,1.7-1.8,3-3.4,4.1s-3.4,1.6-5.6,1.6
				c-1.6,0-3.1-0.2-4.5-0.6c-1.5-0.4-2.8-1.1-4-2.2C334.9,92.2,334.3,90.8,334.3,89.1z M339.7,89.1c0,1.6,0.5,3,1.6,4
				c1.1,1,2.3,1.6,3.8,1.6c1.9,0,3.7-0.7,5.5-2.1c1.7-1.4,2.6-3.5,2.6-6.3v-6.5c-4.8,0.2-8.2,1.2-10.3,3.1S339.7,86.8,339.7,89.1z"
				/>
			<path class="st13" d="M365.3,69.4v-1.4c2-0.1,3.6-0.8,5-2.2s2.2-3,2.7-4.7c0.5-1.7,0.7-3.6,0.7-5.6h1.6v12h9.3v2h-9.3v18.1
				c0,4.7,1.5,7,4.4,7c1.2,0,2.3-0.6,3.1-1.9c0.8-1.3,1.2-3.1,1.2-5.4v-3.6h1.6v3.7c0,2.3-0.5,4.4-1.6,6.1s-2.7,2.6-4.8,2.6
				c-0.8,0-1.6-0.1-2.3-0.3s-1.7-0.6-2.7-1.1c-1-0.5-1.8-1.4-2.4-2.7c-0.6-1.3-0.9-2.9-0.9-4.7V69.4H365.3z"/>
			<path class="st13" d="M391.5,95.3v-2c2.3,0,3.7-0.1,4.3-0.4c0.5-0.3,0.8-1.1,0.8-2.5V72.9c0-1.6-0.3-2.6-0.8-3
				c-0.5-0.4-1.9-0.6-4-0.6v-2l9.1-0.7v23.8c0,1.3,0.2,2.1,0.7,2.4c0.5,0.3,1.8,0.5,3.9,0.5v2c-4.4-0.1-6.7-0.2-6.8-0.2
				C398,95.2,395.6,95.2,391.5,95.3z M394.1,55.3c0-0.9,0.3-1.7,1-2.4c0.7-0.7,1.5-1.1,2.5-1.1c1,0,1.8,0.3,2.5,1
				c0.7,0.6,1,1.5,1,2.5s-0.3,1.8-1,2.5c-0.7,0.6-1.5,1-2.4,1c-1,0-1.9-0.3-2.5-1C394.4,57,394.1,56.2,394.1,55.3z"/>
			<path class="st13" d="M413.4,91.8c-2.9-2.8-4.3-6.3-4.3-10.4c0-4.1,1.4-7.7,4.2-10.7c2.8-3,6.2-4.5,10.2-4.5
				c3.9,0,7.3,1.5,10.1,4.5s4.2,6.6,4.2,10.7c0,4.1-1.4,7.5-4.3,10.4c-2.8,2.8-6.2,4.3-10.2,4.3C419.6,96.1,416.3,94.7,413.4,91.8z
				 M414.5,80.9c0,4.2,0.5,7.3,1.7,9.2c1.7,2.9,4.2,4.4,7.4,4.4c1.6,0,3.1-0.4,4.4-1.3c1.3-0.9,2.4-2,3.1-3.5c1-1.9,1.4-4.8,1.4-8.7
				c0-4.2-0.6-7.2-1.7-9c-1.7-2.8-4.1-4.2-7.3-4.2c-1.4,0-2.8,0.4-4.1,1.1c-1.4,0.7-2.5,1.8-3.3,3.3C415,73.9,414.5,76.9,414.5,80.9
				z"/>
			<path class="st13" d="M441.9,95.3v-2c2.3,0,3.7-0.1,4.3-0.4c0.5-0.3,0.8-1.1,0.8-2.5V73c0-1.6-0.3-2.6-0.8-3
				c-0.6-0.4-2-0.6-4.2-0.6v-2l9.1-0.7l0,6.8c2-4.5,5.2-6.8,9.6-6.8c3.3,0,5.5,0.8,6.8,2.4c1,1.1,1.5,2.2,1.7,3.4
				c0.2,1.2,0.3,3.4,0.3,6.5v12.4c0,0.9,0.4,1.5,1.1,1.7c0.7,0.2,2,0.3,4,0.3v2c-4.4-0.1-6.9-0.2-7.3-0.2c-0.3,0-2.8,0.1-7.3,0.2v-2
				c2.3,0,3.7-0.1,4.3-0.4c0.5-0.3,0.8-1.1,0.8-2.5V75.2c0-2.2-0.3-3.9-1-5.2c-0.7-1.3-2-1.9-3.8-1.9c-2.2,0-4.3,0.9-6.1,2.8
				s-2.7,4.4-2.7,7.6v11.9c0,1.4,0.3,2.2,0.8,2.5c0.5,0.3,2,0.4,4.3,0.4v2c-4.4-0.1-6.9-0.2-7.3-0.2
				C448.9,95.2,446.4,95.2,441.9,95.3z"/>
		</g>
		
			<rect x="244.7" y="603" transform="matrix(0.8903 -0.4553 0.4553 0.8903 -233.505 242.9521)" class="st14" width="285.6" height="6.4"/>
		
			<rect x="244.7" y="603" transform="matrix(0.8903 -0.4553 0.4553 0.8903 -233.505 242.9521)" class="st15" width="285.6" height="6.4"/>
		<polygon class="st14" points="232.4,685.7 271.1,687.5 253.3,653.2 		"/>
		<polygon class="st15" points="232.4,685.7 271.1,687.5 253.3,653.2 		"/>
		
			<rect x="498.3" y="477.8" transform="matrix(0.8904 -0.4552 0.4552 0.8904 -149.3454 341.9231)" class="st16" width="273.8" height="6.4"/>
		
			<rect x="498.3" y="477.8" transform="matrix(0.8904 -0.4552 0.4552 0.8904 -149.3454 341.9231)" class="st15" width="273.8" height="6.4"/>
		<polygon class="st16" points="785.1,404.2 746.5,402.4 764.2,436.7 		"/>
		<polygon class="st15" points="785.1,404.2 746.5,402.4 764.2,436.7 		"/>
	</g>
	<g>
		<defs>
			<polyline id="SVGID_3_" points="2176.6,1090.7 1056.2,1090.7 1056.2,-3.3 2176.6,-3.3 2176.6,1090.7 			"/>
		</defs>
		<clipPath id="SVGID_4_">
			<use xlink:href="#SVGID_3_"  style="overflow:visible;"/>
		</clipPath>
		<polyline class="st17" points="656.9,0.4 2575.9,0.4 2575.9,1079.4 656.9,1079.4 656.9,0.4 		"/>
		<path class="st17" d="M2575.4,0.9v1078h-1918V0.9H2575.4 M2576.4-0.1h-1920v1080h1920V-0.1z"/>
		<polyline class="st18" points="657.7,68.8 2573.6,68.8 2573.6,70.2 657.7,70.2 657.7,68.8 		"/>
		<polyline class="st18" points="657.7,201.8 2573.6,201.8 2573.6,203.2 657.7,203.2 657.7,201.8 		"/>
		<polyline class="st18" points="659.5,338.8 2575.4,338.8 2575.4,340.2 659.5,340.2 659.5,338.8 		"/>
		<rect x="658.6" y="475.8" class="st18" width="1915.9" height="1.4"/>
		<rect x="656.4" y="614.8" class="st18" width="1915.9" height="1.4"/>
		<rect x="656.4" y="750.8" class="st18" width="1915.9" height="1.4"/>
		<rect x="658.2" y="886.8" class="st18" width="1915.9" height="1.4"/>
		<rect x="657.3" y="1021.8" class="st18" width="1915.9" height="1.4"/>
		<rect x="1139.4" y="-0.8" class="st18" width="1.4" height="1080"/>
		<polyline class="st18" points="1272.4,-0.8 1273.8,-0.8 1273.8,1079.2 1272.4,1079.2 1272.4,-0.8 		"/>
		<rect x="1409.4" y="-1.8" class="st18" width="1.4" height="1080"/>
		<rect x="1546.4" y="-1.3" class="st18" width="1.4" height="1080"/>
		<rect x="1685.4" y="0" class="st18" width="1.4" height="1080"/>
		<rect x="1821.4" y="0" class="st18" width="1.4" height="1080"/>
		<rect x="1957.4" y="-1" class="st18" width="1.4" height="1080"/>
		<rect x="2092.4" y="-0.5" class="st18" width="1.4" height="1080"/>
		<rect x="1754.4" y="-0.1" class="st19" width="1.4" height="1080"/>
		<rect x="1888.6" y="-0.1" class="st19" width="2.8" height="1080"/>
		<rect x="2024.2" y="-0.1" class="st19" width="1.4" height="1080"/>
		<rect x="2158.4" y="-0.1" class="st19" width="2.8" height="1080"/>
		<rect x="1474" y="0.5" class="st19" width="1.4" height="1080"/>
		<polyline class="st19" points="1339.2,0.5 1342,0.5 1342,1080.5 1339.2,1080.5 1339.2,0.5 		"/>
		<polyline class="st19" points="1205.7,0.5 1207.1,0.5 1207.1,1080.5 1205.7,1080.5 1205.7,0.5 		"/>
		<rect x="1070.9" y="0.5" class="st19" width="2.8" height="1080"/>
		<rect x="657.4" y="684.7" class="st19" width="1919" height="1.4"/>
		<rect x="657.4" y="818.9" class="st19" width="1919" height="2.8"/>
		<rect x="657.4" y="954.5" class="st19" width="1919" height="1.4"/>
		<rect x="656.4" y="404.3" class="st19" width="1919" height="1.4"/>
		<polyline class="st19" points="656.4,269.5 2575.4,269.5 2575.4,272.3 656.4,272.3 656.4,269.5 		"/>
		<polyline class="st19" points="656.4,136 2575.4,136 2575.4,137.4 656.4,137.4 656.4,136 		"/>
		<rect x="1615.4" y="-0.1" class="st20" width="3" height="1080"/>
		<rect x="656.4" y="541.8" class="st20" width="1920" height="4.1"/>
		<path class="st17" d="M1272.4,115.3h-65.3V136h65.3V115.3 M1339.2,115.3h-65.4V136h65.4V115.3 M1395.7,115.3H1342V136h53.7V115.3"
			/>
		<polyline class="st21" points="1273.8,115.3 1272.4,115.3 1272.4,136 1273.8,136 1273.8,115.3 		"/>
		<path class="st17" d="M1395.7,203.2H1342v66.3h53.7V203.2 M1395.7,137.4H1342v64.4h53.7V137.4 M1205.7,115.3h-18.8V136h18.8V115.3
			"/>
		<polyline class="st21" points="1395.7,201.8 1342,201.8 1342,203.2 1395.7,203.2 1395.7,201.8 		"/>
		<path class="st17" d="M1272.4,203.2h-65.3v66.3h65.3V203.2 M1339.2,203.2h-65.4v66.3h65.4V203.2 M1272.4,137.4h-65.3v64.4h65.3
			V137.4 M1339.2,137.4h-65.4v64.4h65.4V137.4"/>
		<path class="st21" d="M1272.4,201.8h-65.3v1.4h65.3V201.8 M1339.2,201.8h-65.4v1.4h65.4V201.8"/>
		<polyline class="st21" points="1273.8,137.4 1272.4,137.4 1272.4,201.8 1272.4,203.2 1272.4,269.5 1273.8,269.5 1273.8,203.2 
			1273.8,201.8 1273.8,137.4 		"/>
		<path class="st17" d="M1205.7,203.2h-18.8v66.3h18.8V203.2 M1205.7,137.4h-18.8v64.4h18.8V137.4"/>
		<polyline class="st21" points="1205.7,201.8 1186.9,201.8 1186.9,203.2 1205.7,203.2 1205.7,201.8 		"/>
		<path class="st17" d="M1395.7,340.2H1342v19.7h53.7V340.2 M1395.7,272.3H1342v66.5h53.7V272.3"/>
		<polyline class="st21" points="1395.7,338.8 1342,338.8 1342,340.2 1395.7,340.2 1395.7,338.8 		"/>
		<path class="st17" d="M1272.4,340.2h-65.3v19.7h65.3V340.2 M1339.2,340.2h-65.4v19.7h65.4V340.2 M1272.4,272.3h-65.3v66.5h65.3
			V272.3 M1339.2,272.3h-65.4v66.5h65.4V272.3"/>
		<path class="st21" d="M1272.4,338.8h-65.3v1.4h65.3V338.8 M1339.2,338.8h-65.4v1.4h65.4V338.8"/>
		<polyline class="st21" points="1273.8,272.3 1272.4,272.3 1272.4,338.8 1272.4,340.2 1272.4,359.9 1273.8,359.9 1273.8,340.2 
			1273.8,338.8 1273.8,272.3 		"/>
		<path class="st17" d="M1205.7,340.2h-18.8v19.7h18.8V340.2 M1205.7,272.3h-18.8v66.5h18.8V272.3"/>
		<polyline class="st21" points="1205.7,338.8 1186.9,338.8 1186.9,340.2 1205.7,340.2 1205.7,338.8 		"/>
		<path class="st22" d="M1342,272.3h-2.8v66.5v1.4v19.7h2.8v-19.7v-1.4V272.3 M1342,137.4h-2.8v64.4v1.4v66.3h2.8v-66.3v-1.4V137.4
			 M1342,115.3h-2.8V136h2.8V115.3"/>
		<path class="st22" d="M1207.1,272.3h-1.4v66.5v1.4v19.7h1.4v-19.7v-1.4V272.3 M1207.1,137.4h-1.4v64.4v1.4v66.3h1.4v-66.3v-1.4
			V137.4 M1207.1,115.3h-1.4V136h1.4V115.3"/>
		<polyline class="st22" points="1395.7,269.5 1342,269.5 1339.2,269.5 1273.8,269.5 1272.4,269.5 1207.1,269.5 1205.7,269.5 
			1186.9,269.5 1186.9,272.3 1205.7,272.3 1207.1,272.3 1272.4,272.3 1273.8,272.3 1339.2,272.3 1342,272.3 1395.7,272.3 
			1395.7,269.5 		"/>
		<polyline class="st22" points="1395.7,136 1342,136 1339.2,136 1273.8,136 1272.4,136 1207.1,136 1205.7,136 1186.9,136 
			1186.9,137.4 1205.7,137.4 1207.1,137.4 1272.4,137.4 1273.8,137.4 1339.2,137.4 1342,137.4 1395.7,137.4 1395.7,136 		"/>
		<path class="st17" d="M1400.8,70.2H1342v40.5h53.7v4.6h5.2V70.2 M1400.8,42.5H1342v26.3h58.8V42.5"/>
		<polyline class="st21" points="1400.8,68.8 1342,68.8 1342,70.2 1400.8,70.2 1400.8,68.8 		"/>
		<path class="st17" d="M1272.4,70.2h-65.3v40.5h65.3V70.2 M1339.2,70.2h-65.4v40.5h65.4V70.2 M1272.4,42.5h-65.3v26.3h65.3V42.5
			 M1339.2,42.5h-65.4v26.3h65.4V42.5"/>
		<path class="st21" d="M1272.4,68.8h-65.3v1.4h65.3V68.8 M1339.2,68.8h-65.4v1.4h65.4V68.8"/>
		<polyline class="st21" points="1273.8,42.5 1272.4,42.5 1272.4,68.8 1272.4,70.2 1272.4,110.7 1273.8,110.7 1273.8,70.2 
			1273.8,68.8 1273.8,42.5 		"/>
		<path class="st17" d="M1205.7,70.2h-20.2v45.1h1.4v-4.6h18.8V70.2 M1205.7,42.5h-20.2v26.3h20.2V42.5"/>
		<polyline class="st21" points="1205.7,68.8 1185.5,68.8 1185.5,70.2 1205.7,70.2 1205.7,68.8 		"/>
		<polyline class="st22" points="1342,42.5 1339.2,42.5 1339.2,68.8 1339.2,70.2 1339.2,110.7 1342,110.7 1342,70.2 1342,68.8 
			1342,42.5 		"/>
		<polyline class="st22" points="1207.1,42.5 1205.7,42.5 1205.7,68.8 1205.7,70.2 1205.7,110.7 1207.1,110.7 1207.1,70.2 
			1207.1,68.8 1207.1,42.5 		"/>
		<path class="st17" d="M1272.4,110.7h-65.3v4.6h65.3V110.7 M1339.2,110.7h-65.4v4.6h65.4V110.7 M1395.7,110.7H1342v4.6h53.7V110.7"
			/>
		<polyline class="st23" points="1273.8,110.7 1272.4,110.7 1272.4,115.3 1273.8,115.3 1273.8,110.7 		"/>
		<polyline class="st17" points="1205.7,110.7 1186.9,110.7 1186.9,115.3 1205.7,115.3 1205.7,110.7 		"/>
		<polyline class="st24" points="1342,110.7 1339.2,110.7 1339.2,115.3 1342,115.3 1342,110.7 		"/>
		<polyline class="st24" points="1207.1,110.7 1205.7,110.7 1205.7,115.3 1207.1,115.3 1207.1,110.7 		"/>
		<g class="st17">
			<path class="st13" d="M1193.7,106.6v-2h1.7c2.4,0,3.9-0.2,4.5-0.6c0.6-0.4,0.8-1.2,0.8-2.5V67.3c0-1.2-0.3-2.1-0.9-2.5
				s-2.1-0.6-4.5-0.6h-1.7v-2c1.5,0.1,4.8,0.2,10,0.2c5.1,0,8.4-0.1,9.9-0.2v2h-1.7c-2.4,0-3.9,0.2-4.5,0.6s-0.8,1.2-0.8,2.5v34.2
				c0,1.2,0.3,2.1,0.8,2.5s2.1,0.6,4.5,0.6h1.7v2c-1.5-0.1-4.8-0.2-9.9-0.2C1198.5,106.4,1195.2,106.5,1193.7,106.6z"/>
			<path class="st13" d="M1217.4,106.6v-2c2.3,0,3.7-0.1,4.3-0.4c0.5-0.3,0.8-1.1,0.8-2.5V84.3c0-1.6-0.3-2.6-0.8-3
				c-0.6-0.4-2-0.6-4.2-0.6v-2l9.1-0.7l0,6.8c2-4.5,5.2-6.8,9.6-6.8c3.3,0,5.5,0.8,6.8,2.4c1,1.1,1.5,2.2,1.7,3.4
				c0.2,1.2,0.3,3.4,0.3,6.5v12.4c0,0.9,0.4,1.5,1.1,1.7c0.7,0.2,2,0.3,4,0.3v2c-4.4-0.1-6.9-0.2-7.3-0.2c-0.3,0-2.8,0.1-7.3,0.2v-2
				c2.3,0,3.7-0.1,4.3-0.4c0.5-0.3,0.8-1.1,0.8-2.5V86.5c0-2.2-0.3-3.9-1-5.2c-0.7-1.3-2-1.9-3.8-1.9c-2.2,0-4.3,0.9-6.1,2.8
				s-2.7,4.4-2.7,7.6v11.9c0,1.4,0.3,2.2,0.8,2.5c0.5,0.3,2,0.4,4.3,0.4v2c-4.4-0.1-6.9-0.2-7.3-0.2
				C1224.4,106.4,1221.9,106.5,1217.4,106.6z"/>
			<path class="st13" d="M1250.9,80.6v-2c1.9,0.1,4.1,0.2,6.3,0.2c0.8,0,3.2-0.1,7.1-0.2v2c-2.5,0-3.7,0.6-3.7,1.7
				c0,0.2,0.1,0.5,0.4,1.1l7.3,18.1l6.6-16.6c0.3-0.7,0.4-1.3,0.4-1.6c0-0.7-0.2-1.4-0.7-1.9s-1.3-0.8-2.4-0.9v-2
				c2.2,0.1,4.1,0.2,5.6,0.2c1.8,0,3.4-0.1,4.9-0.2v2c-1.3,0-2.4,0.3-3.3,0.9c-0.9,0.6-1.5,1.1-1.8,1.6c-0.3,0.5-0.6,1.1-0.9,1.9
				l-8.5,21.1c-0.3,0.8-0.8,1.2-1.4,1.2c-0.4,0-0.7-0.1-0.8-0.2c-0.2-0.2-0.3-0.5-0.6-1l-9.4-23.1c-0.4-1.1-0.9-1.8-1.5-2
				C1254.1,80.8,1252.8,80.6,1250.9,80.6z"/>
			<path class="st13" d="M1283.9,92.3c0-4.1,1.3-7.6,3.9-10.5c2.6-2.9,5.8-4.3,9.6-4.3c3.8,0,6.7,1.2,8.7,3.7s3,5.5,3,9
				c0,0.7-0.1,1.1-0.3,1.2s-0.6,0.2-1.4,0.2h-18.2c0,4.4,0.7,7.7,2,9.8c1.8,2.9,4.3,4.4,7.3,4.4c0.4,0,0.9,0,1.4-0.1
				s1.3-0.3,2.3-0.7c1-0.4,2-1.1,2.9-2.1c0.9-1,1.6-2.3,2.2-3.8c0.1-0.6,0.4-0.9,0.8-0.9c0.5,0,0.8,0.3,0.8,0.8c0,0.4-0.2,1-0.6,1.9
				c-0.4,0.9-1,1.8-1.8,2.8s-1.9,1.9-3.4,2.7c-1.5,0.8-3.2,1.1-5,1.1c-3.8,0-7.1-1.4-10-4.3C1285.4,100.2,1283.9,96.6,1283.9,92.3z
				 M1289.4,90.2h15.4c0-0.9-0.1-1.9-0.2-2.9c-0.2-1-0.5-2.2-0.9-3.6c-0.5-1.4-1.2-2.5-2.3-3.4c-1.1-0.9-2.4-1.3-3.9-1.3
				c-0.7,0-1.4,0.1-2.2,0.4c-0.8,0.3-1.6,0.8-2.5,1.5c-0.9,0.7-1.7,1.9-2.3,3.5C1289.8,86,1289.5,88,1289.4,90.2z"/>
			<path class="st13" d="M1312.8,106.6v-2c2.3,0,3.7-0.1,4.3-0.4c0.5-0.3,0.8-1.1,0.8-2.5V84.3c0-1.6-0.3-2.6-0.8-3
				c-0.6-0.4-2-0.6-4.2-0.6v-2l9-0.7v7.1c0.6-1.9,1.6-3.5,2.9-5c1.3-1.4,3-2.2,5.1-2.2c1.4,0,2.5,0.4,3.4,1.2
				c0.9,0.8,1.3,1.7,1.3,2.8c0,1-0.3,1.7-0.9,2.1s-1.2,0.7-1.9,0.7c-0.8,0-1.4-0.2-2-0.7c-0.5-0.5-0.8-1.2-0.8-2
				c0-0.5,0.1-1,0.4-1.4s0.5-0.7,0.7-0.8s0.3-0.2,0.5-0.3c-0.1,0-0.3-0.1-0.7-0.1c-2.4,0-4.3,1.2-5.6,3.6c-1.4,2.4-2,5.3-2,8.6v10
				c0,1.2,0.3,2.1,0.8,2.5c0.5,0.4,1.9,0.6,4.2,0.6h1.4v2c-1.7-0.1-4.5-0.2-8.3-0.2c-0.5,0-1.2,0-2,0c-0.8,0-1.8,0.1-2.9,0.1
				C1314.2,106.6,1313.4,106.6,1312.8,106.6z"/>
			<path class="st13" d="M1338.5,105.8v-8.6c0-0.5,0-0.8,0-1c0-0.2,0.1-0.3,0.2-0.4c0.1-0.1,0.3-0.2,0.6-0.2c0.3,0,0.5,0.1,0.6,0.2
				c0.1,0.1,0.2,0.4,0.3,0.9c0.6,3,1.6,5.3,3,6.9c1.4,1.6,3.4,2.4,5.9,2.4c2.4,0,4.3-0.5,5.5-1.6c1.2-1.1,1.8-2.5,1.8-4.3
				c0-3.2-2.3-5.2-6.8-6c-2.6-0.5-4.4-1-5.5-1.3c-1.1-0.3-2.1-0.9-3-1.7c-1.9-1.5-2.8-3.4-2.8-5.5s0.8-4,2.5-5.6s4.3-2.4,7.9-2.4
				c2.4,0,4.5,0.6,6.1,1.8c0.5-0.4,0.9-0.7,1.1-1c0.6-0.5,1.1-0.8,1.4-0.8c0.4,0,0.6,0.1,0.7,0.3c0.1,0.2,0.1,0.6,0.1,1.3v6.5
				c0,0.5,0,0.8,0,1c0,0.2-0.1,0.3-0.2,0.4s-0.4,0.2-0.7,0.2c-0.5,0-0.8-0.2-0.9-0.6c-0.3-5.2-2.9-7.9-7.6-7.9
				c-2.6,0-4.4,0.5-5.6,1.5s-1.7,2.1-1.7,3.5c0,0.7,0.2,1.4,0.5,2c0.3,0.6,0.8,1,1.2,1.3c0.5,0.3,1.1,0.6,2,1c0.8,0.3,1.5,0.5,2,0.6
				c0.5,0.1,1.3,0.3,2.3,0.5c3.5,0.7,5.9,1.7,7.4,3.1c1.8,1.8,2.7,3.9,2.7,6.2c0,2.6-0.9,4.7-2.6,6.4c-1.7,1.7-4.3,2.6-7.8,2.6
				c-2.8,0-5.2-0.9-7.2-2.8c-0.2,0.3-0.5,0.5-0.7,0.7c-0.2,0.2-0.3,0.4-0.4,0.5c-0.1,0.1-0.1,0.2-0.1,0.2c0,0.1-0.1,0.1-0.1,0.1
				c-0.9,0.8-1.4,1.3-1.6,1.3c-0.4,0-0.6-0.1-0.6-0.3C1338.5,106.8,1338.5,106.4,1338.5,105.8z"/>
			<path class="st13" d="M1363.7,92.3c0-4.1,1.3-7.6,3.9-10.5c2.6-2.9,5.8-4.3,9.6-4.3c3.8,0,6.7,1.2,8.7,3.7s3,5.5,3,9
				c0,0.7-0.1,1.1-0.3,1.2s-0.6,0.2-1.4,0.2h-18.2c0,4.4,0.7,7.7,2,9.8c1.8,2.9,4.3,4.4,7.3,4.4c0.4,0,0.9,0,1.4-0.1
				s1.3-0.3,2.3-0.7c1-0.4,2-1.1,2.9-2.1c0.9-1,1.6-2.3,2.2-3.8c0.1-0.6,0.4-0.9,0.8-0.9c0.5,0,0.8,0.3,0.8,0.8c0,0.4-0.2,1-0.6,1.9
				c-0.4,0.9-1,1.8-1.8,2.8s-1.9,1.9-3.4,2.7c-1.5,0.8-3.2,1.1-5,1.1c-3.8,0-7.1-1.4-10-4.3C1365.2,100.2,1363.7,96.6,1363.7,92.3z
				 M1369.2,90.2h15.4c0-0.9-0.1-1.9-0.2-2.9c-0.2-1-0.5-2.2-0.9-3.6c-0.5-1.4-1.2-2.5-2.3-3.4c-1.1-0.9-2.4-1.3-3.9-1.3
				c-0.7,0-1.4,0.1-2.2,0.4c-0.8,0.3-1.6,0.8-2.5,1.5c-0.9,0.7-1.7,1.9-2.3,3.5C1369.7,86,1369.3,88,1369.2,90.2z"/>
		</g>
		
			<rect x="1666.6" y="489.3" transform="matrix(3.793024e-03 -1 1 3.793024e-03 1119.7993 2211.4792)" class="st25" width="6.4" height="108.9"/>
		
			<rect x="1666.6" y="489.3" transform="matrix(3.793024e-03 -1 1 3.793024e-03 1119.7993 2211.4792)" class="st26" width="6.4" height="108.9"/>
		<polygon class="st25" points="1755.8,543.8 1722.3,524.5 1722.3,563.2 		"/>
		<polygon class="st26" points="1755.8,543.8 1722.3,524.5 1722.3,563.2 		"/>
		
			<rect x="1561.1" y="486.9" transform="matrix(1.289832e-03 -1 1 1.289832e-03 1125.2244 2107.0071)" class="st27" width="112.8" height="6.4"/>
		
			<rect x="1561.1" y="486.9" transform="matrix(1.289832e-03 -1 1 1.289832e-03 1125.2244 2107.0071)" class="st26" width="112.8" height="6.4"/>
		<polygon class="st27" points="1616.8,403.9 1598.1,437.8 1636.7,437.1 		"/>
		<polygon class="st26" points="1616.8,403.9 1598.1,437.8 1636.7,437.1 		"/>
	</g>
	<rect x="1050.6" y="-12.2" class="st28" width="23.2" height="1099.8"/>
	<rect x="1050.6" y="-12.2" class="st10" width="23.2" height="1099.8"/>
	<g>
		<path class="st29" d="M1199.6,189.3v-2.6h2c3,0,4.9-0.3,5.6-0.8c0.7-0.5,1-1.6,1-3.2v-44.3c0-1.6-0.4-2.7-1.1-3.2
			c-0.7-0.5-2.6-0.8-5.6-0.8h-2v-2.6h30.8c7.2,0,13.3,2.9,18.3,8.6c5,5.7,7.5,12.6,7.5,20.6c0,7.9-2.5,14.5-7.5,20
			c-5,5.5-11.1,8.2-18.2,8.2H1199.6z M1215.5,183.3c0,1.5,0.2,2.4,0.6,2.8c0.4,0.4,1.6,0.6,3.5,0.6h8.5c3.7,0,6.8-0.8,9.3-2.3
			c2.5-1.5,4.4-3.2,5.7-4.9c3.1-4.2,4.6-10.4,4.6-18.5c0-8.5-1.5-14.8-4.4-18.8c-3.8-5.2-8.9-7.8-15.3-7.8h-8.4
			c-1.9,0-3.1,0.2-3.5,0.6c-0.4,0.4-0.6,1.3-0.6,2.8V183.3z"/>
		<path class="st29" d="M1268.7,184.8c-3.7-3.6-5.6-8.1-5.6-13.5s1.8-10,5.4-13.9c3.6-3.9,8-5.8,13.2-5.8c5.1,0,9.5,1.9,13.1,5.8
			c3.7,3.9,5.5,8.5,5.5,13.9c0,5.3-1.8,9.8-5.5,13.4s-8.1,5.5-13.2,5.5C1276.7,190.3,1272.4,188.5,1268.7,184.8z M1270.1,170.6
			c0,5.5,0.7,9.4,2.1,11.9c2.2,3.8,5.4,5.6,9.6,5.6c2.1,0,4-0.6,5.7-1.7c1.7-1.1,3.1-2.6,4-4.5c1.2-2.5,1.8-6.2,1.8-11.3
			c0-5.4-0.7-9.3-2.2-11.7c-2.2-3.7-5.4-5.5-9.5-5.5c-1.8,0-3.6,0.5-5.4,1.4c-1.8,0.9-3.2,2.4-4.3,4.2
			C1270.8,161.6,1270.1,165.4,1270.1,170.6z"/>
		<path class="st29" d="M1307.5,170.8c0-5.3,1.7-9.8,5.1-13.6c3.4-3.8,7.5-5.6,12.4-5.6c4.9,0,8.7,1.6,11.2,4.8
			c2.6,3.2,3.8,7.1,3.8,11.6c0,0.9-0.1,1.4-0.3,1.6s-0.8,0.3-1.8,0.3h-23.5c0,5.7,0.8,9.9,2.5,12.6c2.4,3.8,5.5,5.6,9.5,5.6
			c0.6,0,1.2-0.1,1.8-0.2c0.7-0.1,1.7-0.4,3-0.9s2.6-1.4,3.8-2.7c1.2-1.3,2.1-3,2.8-5c0.2-0.8,0.5-1.2,1-1.2c0.7,0,1.1,0.3,1.1,1
			c0,0.5-0.3,1.3-0.8,2.4c-0.5,1.1-1.3,2.3-2.3,3.6c-1,1.3-2.5,2.5-4.5,3.4c-2,1-4.1,1.5-6.5,1.5c-4.9,0-9.2-1.9-13-5.6
			C1309.3,180.9,1307.5,176.3,1307.5,170.8z M1314.5,168.1h20c0-1.2-0.1-2.4-0.3-3.7c-0.2-1.3-0.6-2.9-1.2-4.7
			c-0.6-1.8-1.6-3.3-2.9-4.4s-3.1-1.7-5.1-1.7c-0.9,0-1.8,0.2-2.8,0.6c-1,0.4-2,1-3.2,2c-1.2,0.9-2.2,2.4-3,4.5
			C1315.1,162.7,1314.6,165.2,1314.5,168.1z"/>
		<path class="st29" d="M1345.2,188.2v-11.1c0-0.6,0-1.1,0-1.3c0-0.2,0.1-0.4,0.3-0.6c0.2-0.2,0.4-0.2,0.8-0.2
			c0.4,0,0.7,0.1,0.8,0.2c0.2,0.2,0.3,0.6,0.4,1.2c0.8,3.9,2.1,6.8,3.9,8.9s4.4,3.1,7.7,3.1c3.1,0,5.5-0.7,7.1-2.1
			c1.6-1.4,2.4-3.2,2.4-5.6c0-4.1-2.9-6.7-8.7-7.7c-3.4-0.7-5.8-1.3-7.1-1.7s-2.7-1.2-3.9-2.2c-2.4-2-3.6-4.4-3.6-7.2
			c0-2.8,1.1-5.2,3.2-7.3c2.1-2.1,5.5-3.1,10.2-3.1c3.1,0,5.8,0.8,7.9,2.4c0.6-0.5,1.1-0.9,1.4-1.4c0.8-0.7,1.4-1,1.8-1
			c0.5,0,0.8,0.1,0.9,0.4s0.1,0.8,0.1,1.6v8.5c0,0.6,0,1.1,0,1.3c0,0.2-0.1,0.4-0.3,0.6c-0.2,0.2-0.5,0.2-0.9,0.2
			c-0.7,0-1.1-0.3-1.1-0.8c-0.4-6.8-3.7-10.2-9.9-10.2c-3.3,0-5.7,0.6-7.2,1.9s-2.2,2.8-2.2,4.5c0,1,0.2,1.8,0.7,2.5s1,1.3,1.6,1.7
			c0.6,0.4,1.4,0.8,2.5,1.2c1.1,0.4,2,0.7,2.6,0.8c0.7,0.1,1.6,0.3,2.9,0.6c4.5,0.8,7.7,2.2,9.6,4c2.4,2.4,3.5,5,3.5,8
			c0,3.3-1.1,6.1-3.4,8.3c-2.2,2.2-5.6,3.4-10.1,3.4c-3.6,0-6.7-1.2-9.3-3.6c-0.3,0.3-0.6,0.6-0.8,0.9c-0.2,0.3-0.4,0.5-0.5,0.6
			s-0.2,0.2-0.2,0.3c0,0.1-0.1,0.1-0.1,0.2c-1.1,1.1-1.8,1.6-2.1,1.6c-0.5,0-0.7-0.1-0.8-0.4C1345.3,189.6,1345.2,189,1345.2,188.2z
			"/>
	</g>
	<g>
		<path class="st29" d="M1215.5,266.8v-2.6c2,0,3.7-0.2,5-0.6s2.2-1,2.6-1.7c0.5-0.8,0.8-1.4,0.9-1.9c0.1-0.5,0.2-1.2,0.2-2v-43.9
			c0-0.8-0.1-1.3-0.3-1.5c-0.2-0.2-0.8-0.3-1.7-0.5c-1.7-0.1-3.1-0.2-4.2-0.2h-2.4v-2.6h14.3c0.8,0,1.3,0.1,1.5,0.2
			c0.2,0.1,0.5,0.4,0.9,0.9l29.7,43.6v-35.9c0-0.8-0.1-1.5-0.2-2c-0.1-0.5-0.4-1.1-0.9-1.9c-0.5-0.8-1.4-1.3-2.7-1.7
			c-1.3-0.4-2.9-0.6-5-0.6v-2.6c5.9,0.2,9.2,0.2,9.8,0.2c0.7,0,4-0.1,9.8-0.2v2.6c-2,0-3.7,0.2-5,0.6c-1.3,0.4-2.2,1-2.6,1.7
			c-0.5,0.8-0.8,1.4-0.9,1.9c-0.1,0.5-0.2,1.2-0.2,2v46.4c0,0.9-0.1,1.5-0.2,1.8c-0.1,0.3-0.4,0.4-1,0.4c-0.4,0-0.9-0.4-1.4-1.1
			l-34.3-50.4c-0.2-0.3-0.5-0.7-0.8-1V258c0,0.8,0.1,1.5,0.2,2c0.1,0.5,0.4,1.1,0.9,1.9c0.5,0.8,1.4,1.3,2.6,1.7s2.9,0.6,5,0.6v2.6
			c-5.9-0.2-9.2-0.3-9.8-0.3C1224.7,266.6,1221.4,266.7,1215.5,266.8z"/>
		<path class="st29" d="M1283.7,262.3c-3.7-3.6-5.6-8.1-5.6-13.5s1.8-10,5.4-13.9c3.6-3.9,8-5.8,13.2-5.8c5.1,0,9.5,1.9,13.1,5.8
			c3.7,3.9,5.5,8.5,5.5,13.9c0,5.3-1.8,9.8-5.5,13.4s-8.1,5.5-13.2,5.5C1291.8,267.8,1287.4,266,1283.7,262.3z M1285.2,248.1
			c0,5.5,0.7,9.4,2.1,11.9c2.2,3.8,5.4,5.6,9.6,5.6c2.1,0,4-0.6,5.7-1.7c1.7-1.1,3.1-2.6,4-4.5c1.2-2.5,1.8-6.2,1.8-11.3
			c0-5.4-0.7-9.3-2.2-11.7c-2.2-3.7-5.4-5.5-9.5-5.5c-1.8,0-3.6,0.5-5.4,1.4c-1.8,0.9-3.2,2.4-4.3,4.2
			C1285.8,239.1,1285.2,242.9,1285.2,248.1z"/>
		<path class="st29" d="M1319.5,233.2v-1.8c2.6-0.1,4.7-1.1,6.4-2.9c1.7-1.8,2.9-3.9,3.4-6.1c0.6-2.2,0.9-4.7,1-7.3h2.1v15.5h12v2.6
			h-12v23.4c0,6.1,1.9,9.1,5.7,9.1c1.6,0,3-0.8,4-2.5c1.1-1.7,1.6-4,1.6-6.9v-4.6h2.1v4.8c0,3-0.7,5.7-2.1,8
			c-1.4,2.3-3.5,3.4-6.2,3.4c-1,0-2-0.1-3-0.4c-1-0.3-2.2-0.7-3.5-1.4s-2.4-1.8-3.2-3.5c-0.8-1.7-1.2-3.7-1.2-6.1v-23.2H1319.5z"/>
	</g>
	<g>
		<path class="st29" d="M1196.5,344.1v-2.6h2c3,0,4.9-0.3,5.6-0.8c0.7-0.5,1-1.6,1-3.2v-44c0-1.6-0.4-2.7-1.1-3.2
			c-0.7-0.5-2.6-0.8-5.6-0.8h-2v-2.6h47.3l2.3,18.9h-2.1c-0.4-3.2-0.8-5.7-1.3-7.6c-0.5-1.8-1.4-3.5-2.6-4.9c-1.2-1.4-2.8-2.4-4.8-3
			c-2-0.6-4.6-0.8-7.8-0.8h-10.8c-1.9,0-3.1,0.2-3.5,0.6c-0.4,0.4-0.6,1.3-0.6,2.8v20.2h7.6c3.9,0,6.3-0.7,7.4-2
			c1.1-1.3,1.6-3.9,1.6-7.8h2.1v22.3h-2.1c0-3.8-0.5-6.4-1.6-7.8c-1.1-1.4-3.6-2.1-7.4-2.1h-7.6v22.4c0,1.4,0.2,2.4,0.6,2.8
			c0.4,0.4,1.6,0.6,3.5,0.6h11.2c2.4,0,4.5-0.2,6.3-0.5c1.8-0.3,3.3-0.9,4.5-1.6c1.2-0.8,2.3-1.6,3.1-2.5c0.8-0.9,1.5-2.2,2.1-3.8
			c0.6-1.6,1-3.2,1.3-4.7c0.3-1.5,0.7-3.5,1.1-5.9l2.1,0.2l-3.5,21.5H1196.5z"/>
		<path class="st29" d="M1251.9,344.1v-2.6c4.4,0,8-1.7,10.8-5l7.9-10l-8.3-10.8c-2-2.5-3.4-4-4.3-4.5c-0.9-0.5-2.7-0.7-5.6-0.7
			v-2.6c2.3,0.2,5,0.2,8,0.2c1.7,0,4.7-0.1,9.1-0.2v2.6c-2,0.1-3,0.8-3,2.1c0,0.4,0.2,0.9,0.7,1.5l6.6,8.5l5.2-6.6
			c0.8-1,1.3-2,1.3-3c0-1.6-0.8-2.4-2.5-2.6v-2.6c2.2,0.2,4.9,0.2,8.1,0.2c2.4,0,4.7-0.1,6.9-0.2v2.6c-4.3,0.1-7.6,1.6-10,4.3
			c-1.1,1.2-3.6,4.3-7.7,9.5l11.3,14.5c0.9,1.2,1.9,1.9,2.9,2.2c1,0.3,2.7,0.4,5.1,0.4v2.6c-2.5-0.2-5.2-0.3-8.1-0.3
			c-1,0-4,0.1-9.1,0.3v-2.6c1-0.1,1.8-0.3,2.3-0.8c0.5-0.5,0.8-0.9,0.8-1.4c0-0.2-0.6-1.1-1.8-2.7l-6.4-8.4c-4.3,5-6.7,8.1-7.2,9.3
			c-0.2,0.5-0.3,0.9-0.3,1.4c0,1.5,0.8,2.4,2.4,2.6v2.6c-4-0.2-6.7-0.3-8-0.3C1256.4,343.9,1254.1,344,1251.9,344.1z"/>
		<path class="st29" d="M1298,344.1v-2.6c3,0,4.8-0.2,5.5-0.6c0.7-0.4,1-1.5,1-3.3v-22.6c0-2.1-0.3-3.4-1-3.9
			c-0.7-0.5-2.4-0.7-5.2-0.7v-2.6l11.7-0.9v30.8c0,1.7,0.3,2.7,0.9,3.1c0.6,0.4,2.3,0.6,5,0.6v2.6c-5.7-0.2-8.6-0.3-8.8-0.3
			C1306.4,343.9,1303.4,344,1298,344.1z M1301.4,292.3c0-1.1,0.4-2.1,1.3-3.1c0.9-0.9,2-1.4,3.2-1.4s2.3,0.4,3.2,1.3
			c0.9,0.8,1.3,1.9,1.3,3.2c0,1.3-0.4,2.4-1.3,3.2c-0.9,0.8-1.9,1.3-3.2,1.3c-1.3,0-2.4-0.5-3.3-1.4
			C1301.8,294.5,1301.4,293.5,1301.4,292.3z"/>
		<path class="st29" d="M1321.3,343v-11.1c0-0.6,0-1.1,0-1.3c0-0.2,0.1-0.4,0.3-0.6c0.2-0.2,0.4-0.2,0.8-0.2c0.4,0,0.7,0.1,0.8,0.2
			c0.2,0.2,0.3,0.6,0.4,1.2c0.8,3.9,2.1,6.8,3.9,8.9s4.4,3.1,7.7,3.1c3.1,0,5.5-0.7,7.1-2.1c1.6-1.4,2.4-3.2,2.4-5.6
			c0-4.1-2.9-6.7-8.7-7.7c-3.4-0.7-5.8-1.3-7.1-1.7s-2.7-1.2-3.9-2.2c-2.4-2-3.6-4.4-3.6-7.2c0-2.8,1.1-5.2,3.2-7.3
			c2.1-2.1,5.5-3.1,10.2-3.1c3.1,0,5.8,0.8,7.9,2.4c0.6-0.5,1.1-0.9,1.4-1.4c0.8-0.7,1.4-1,1.8-1c0.5,0,0.8,0.1,0.9,0.4
			s0.1,0.8,0.1,1.6v8.5c0,0.6,0,1.1,0,1.3c0,0.2-0.1,0.4-0.3,0.6c-0.2,0.2-0.5,0.2-0.9,0.2c-0.7,0-1.1-0.3-1.1-0.8
			c-0.4-6.8-3.7-10.2-9.9-10.2c-3.3,0-5.7,0.6-7.2,1.9s-2.2,2.8-2.2,4.5c0,1,0.2,1.8,0.7,2.5s1,1.3,1.6,1.7c0.6,0.4,1.4,0.8,2.5,1.2
			c1.1,0.4,2,0.7,2.6,0.8c0.7,0.1,1.6,0.3,2.9,0.6c4.5,0.8,7.7,2.2,9.6,4c2.4,2.4,3.5,5,3.5,8c0,3.3-1.1,6.1-3.4,8.3
			c-2.2,2.2-5.6,3.4-10.1,3.4c-3.6,0-6.7-1.2-9.3-3.6c-0.3,0.3-0.6,0.6-0.8,0.9c-0.2,0.3-0.4,0.5-0.5,0.6s-0.2,0.2-0.2,0.3
			c0,0.1-0.1,0.1-0.1,0.2c-1.1,1.1-1.8,1.6-2.1,1.6c-0.5,0-0.7-0.1-0.8-0.4C1321.3,344.4,1321.3,343.8,1321.3,343z"/>
		<path class="st29" d="M1353.2,310.5v-1.8c2.6-0.1,4.7-1.1,6.4-2.9c1.7-1.8,2.9-3.9,3.4-6.1c0.6-2.2,0.9-4.7,1-7.3h2.1v15.5h12v2.6
			h-12v23.4c0,6.1,1.9,9.1,5.7,9.1c1.6,0,3-0.8,4-2.5c1.1-1.7,1.6-4,1.6-6.9v-4.6h2.1v4.8c0,3-0.7,5.7-2.1,8
			c-1.4,2.3-3.5,3.4-6.2,3.4c-1,0-2-0.1-3-0.4c-1-0.3-2.2-0.7-3.5-1.4s-2.4-1.8-3.2-3.5c-0.8-1.7-1.2-3.7-1.2-6.1v-23.2H1353.2z"/>
	</g>
</g>
</svg>
