<svg width="640" height="240" viewBox="0 0 640 240" fill="none" xmlns="http://www.w3.org/2000/svg">
<rect width="640" height="240" fill="black"/>
<g clip-path="url(#clip0_282_452)">
<path d="M181.684 95.63V59H188.749V60.7103H183.394V95.63H181.684Z" fill="white"/>
<path d="M181.684 136.373V99.743H183.394V134.663H188.749V136.373H181.684Z" fill="white"/>
<g clip-path="url(#clip1_282_452)">
<path d="M181.684 103.825V91.5434H183.394V103.825H181.684Z" fill="white"/>
</g>
<path d="M195.509 65.536C195.142 65.536 194.851 65.4138 194.633 65.1695C194.416 64.9251 194.308 64.6265 194.308 64.2736C194.308 63.3098 194.667 62.475 195.387 61.7691C196.106 61.0633 197.002 60.7103 198.074 60.7103C199.31 60.7103 200.341 61.0904 201.169 61.8506C201.997 62.6107 202.418 63.5949 202.432 64.803C202.432 65.3867 202.296 65.9432 202.024 66.4726C201.753 67.002 201.427 67.4635 201.047 67.8572C200.667 68.2508 200.124 68.7531 199.418 69.3639C198.93 69.7847 198.251 70.4091 197.382 71.2371L196.181 72.3774L197.728 72.3977C199.859 72.3977 200.993 72.3638 201.129 72.2959C201.224 72.2688 201.387 71.6647 201.617 70.4838V70.4227H202.432V70.4838C202.418 70.5245 202.33 71.1421 202.167 72.3367C202.004 73.5312 201.902 74.1556 201.862 74.2099V74.271H194.308V73.8841V73.6398C194.308 73.5448 194.348 73.443 194.43 73.3344C194.511 73.2258 194.715 72.9882 195.041 72.6217C195.434 72.1873 195.774 71.8073 196.059 71.4815C196.181 71.3457 196.412 71.0946 196.751 70.7281C197.09 70.3616 197.321 70.1105 197.443 69.9747C197.565 69.839 197.762 69.615 198.034 69.3028C198.305 68.9906 198.495 68.7599 198.604 68.6105C198.712 68.4612 198.868 68.2576 199.072 67.9997C199.276 67.7418 199.418 67.5246 199.5 67.3481C199.581 67.1717 199.683 66.9748 199.805 66.7577C199.927 66.5405 200.016 66.3233 200.07 66.1061C200.124 65.8889 200.172 65.6853 200.212 65.4953C200.253 65.3052 200.273 65.0812 200.273 64.8233C200.273 63.9682 200.043 63.2284 199.581 62.6039C199.12 61.9795 198.461 61.6673 197.606 61.6673C197.158 61.6673 196.764 61.7827 196.425 62.0135C196.086 62.2442 195.848 62.4682 195.712 62.6854C195.577 62.9026 195.509 63.0315 195.509 63.0723C195.509 63.0858 195.543 63.0926 195.611 63.0926C195.855 63.0926 196.106 63.1876 196.364 63.3777C196.622 63.5677 196.751 63.8799 196.751 64.3143C196.751 64.6537 196.642 64.9387 196.425 65.1695C196.208 65.4002 195.903 65.5224 195.509 65.536Z" fill="white"/>
<path d="M194.409 93.4513C194.423 93.4242 194.538 92.6844 194.756 91.232L195.081 89.0533C195.081 89.0262 195.217 89.0126 195.489 89.0126H195.896V89.094C195.896 89.2298 195.998 89.3451 196.201 89.4402C196.405 89.5352 196.758 89.5963 197.26 89.6234C197.762 89.6506 198.909 89.6641 200.701 89.6641H203.165V90.4582L201.78 92.3518C201.658 92.5147 201.454 92.7862 201.169 93.1663C200.884 93.5464 200.701 93.7975 200.62 93.9197C200.538 94.0418 200.396 94.259 200.192 94.5712C199.988 94.8834 199.853 95.1278 199.785 95.3042C199.717 95.4807 199.622 95.7318 199.5 96.0576C199.378 96.3834 199.289 96.6956 199.235 96.9942C199.181 97.2928 199.126 97.6594 199.072 98.0937C199.018 98.5281 198.977 98.9896 198.95 99.4783C198.923 99.967 198.902 100.524 198.889 101.148C198.889 101.338 198.889 101.528 198.889 101.718C198.889 101.908 198.882 102.071 198.868 102.207V102.39C198.814 102.621 198.685 102.818 198.482 102.98C198.278 103.143 198.047 103.225 197.789 103.225C197.64 103.225 197.497 103.204 197.362 103.164C197.226 103.123 197.083 102.994 196.934 102.777C196.785 102.56 196.71 102.288 196.71 101.962C196.71 99.8177 197.369 97.5915 198.685 95.2839C198.957 94.8495 199.527 94.0282 200.396 92.8201L201.332 91.5374H199.439C197.077 91.5374 195.835 91.5781 195.712 91.6596C195.631 91.7003 195.556 91.8632 195.489 92.1482C195.421 92.4333 195.353 92.7251 195.285 93.0238L195.224 93.4513V93.5124H194.409V93.4513Z" fill="white"/>
<path d="M197.626 119.514L197.362 119.616C197.172 119.684 196.9 119.751 196.547 119.819C196.194 119.887 195.801 119.935 195.366 119.962H194.979V119.025H195.366C196.004 118.998 196.595 118.896 197.138 118.72C197.681 118.543 198.061 118.38 198.278 118.231C198.495 118.082 198.685 117.932 198.848 117.783C198.875 117.742 198.957 117.722 199.092 117.722C199.215 117.722 199.33 117.763 199.439 117.844V123.932L199.459 130.041C199.554 130.136 199.635 130.197 199.703 130.224C199.771 130.251 199.934 130.278 200.192 130.305C200.45 130.332 200.871 130.346 201.454 130.346H201.984V131.283H201.76C201.475 131.242 200.396 131.222 198.522 131.222C196.676 131.222 195.611 131.242 195.326 131.283H195.081V130.346H195.611C195.909 130.346 196.167 130.346 196.384 130.346C196.602 130.346 196.771 130.339 196.893 130.326C197.016 130.312 197.124 130.292 197.219 130.265C197.314 130.237 197.369 130.224 197.382 130.224C197.396 130.224 197.436 130.19 197.504 130.122C197.572 130.054 197.613 130.027 197.626 130.041V119.514Z" fill="white"/>
<path d="M207.99 60.7103V59H215.056V95.63H213.345V60.7103H207.99Z" fill="white"/>
<path d="M213.345 134.663V99.743H215.056V136.373H207.99V134.663H213.345Z" fill="white"/>
<g clip-path="url(#clip2_282_452)">
<path d="M213.345 103.825V91.5434H215.056V103.825H213.345Z" fill="white"/>
</g>
<path d="M227.684 97.6865C227.684 97.3607 227.799 97.0757 228.03 96.8313C228.261 96.587 228.553 96.4648 228.906 96.4648C229.231 96.4648 229.516 96.5734 229.761 96.7906C230.005 97.0078 230.134 97.2996 230.148 97.6661C230.148 98.0055 230.032 98.2973 229.801 98.5417C229.571 98.786 229.279 98.9082 228.926 98.9082C228.573 98.9082 228.281 98.7928 228.05 98.562C227.82 98.3313 227.697 98.0394 227.684 97.6865Z" fill="white"/>
<path d="M242.776 95.63V59H249.841V60.7103H244.486V95.63H242.776Z" fill="white"/>
<path d="M242.776 136.373V99.743H244.486V134.663H249.841V136.373H242.776Z" fill="white"/>
<g clip-path="url(#clip3_282_452)">
<path d="M242.776 103.825V91.5434H244.486V103.825H242.776Z" fill="white"/>
</g>
<path d="M255.807 65.7803C255.807 65.7803 255.807 65.2577 255.807 64.2125C255.807 63.1673 256.173 62.3257 256.906 61.6877C257.639 61.0497 258.481 60.7239 259.431 60.7103C260.395 60.7103 261.25 60.9954 261.997 61.5655C262.743 62.1356 263.117 62.8754 263.117 63.7849C263.117 64.1921 263.042 64.5722 262.893 64.9251C262.743 65.2781 262.567 65.5631 262.363 65.7803C262.16 65.9975 261.949 66.1875 261.732 66.3504C261.515 66.5133 261.338 66.6355 261.203 66.7169C261.067 66.7984 260.992 66.8527 260.979 66.8798L261.264 67.0631C261.454 67.1988 261.644 67.3346 261.834 67.4703C262.024 67.606 262.132 67.6807 262.16 67.6943C263.178 68.4952 263.687 69.5064 263.687 70.7281C263.687 71.8005 263.293 72.7303 262.506 73.5176C261.718 74.3049 260.7 74.7054 259.452 74.7189C258.23 74.7189 257.225 74.3728 256.438 73.6805C255.651 72.9882 255.257 72.133 255.257 71.115C255.257 69.649 256.133 68.4273 257.884 67.4499L257.517 67.1852C257.232 67.0088 257.049 66.873 256.967 66.778C256.194 66.1129 255.807 65.2577 255.807 64.2125V65.7803ZM260.205 66.4115L260.327 66.3301C260.409 66.2758 260.47 66.2351 260.51 66.2079C260.551 66.1808 260.619 66.1332 260.714 66.0654C260.809 65.9975 260.89 65.9296 260.958 65.8618C261.026 65.7939 261.101 65.7124 261.182 65.6174C261.264 65.5224 261.338 65.4342 261.406 65.3527C261.474 65.2713 261.542 65.1627 261.61 65.0269C261.678 64.8912 261.739 64.7758 261.793 64.6808C261.847 64.5858 261.881 64.45 261.895 64.2736C261.908 64.0971 261.922 63.9478 261.936 63.8256C261.936 63.2419 261.739 62.7465 261.345 62.3393C260.951 61.932 260.497 61.6741 259.981 61.5655C259.886 61.5519 259.662 61.5452 259.309 61.5452C258.752 61.5452 258.23 61.7216 257.741 62.0746C257.253 62.4275 257.001 62.8686 256.988 63.398C256.988 63.7102 257.076 63.9953 257.253 64.2532C257.429 64.5111 257.605 64.708 257.782 64.8437C257.958 64.9794 258.298 65.1966 258.8 65.4953C258.895 65.5631 258.97 65.6106 259.024 65.6378L260.205 66.4115ZM259.472 73.8434C260.259 73.8434 260.938 73.6126 261.508 73.1511C262.078 72.6896 262.363 72.133 262.363 71.4815C262.363 71.2507 262.329 71.0335 262.261 70.8299C262.194 70.6263 262.112 70.4566 262.017 70.3209C261.922 70.1851 261.773 70.0358 261.569 69.8729C261.366 69.71 261.209 69.5879 261.101 69.5064C260.992 69.425 260.795 69.296 260.51 69.1196C260.225 68.9431 260.042 68.8277 259.961 68.7734C259.771 68.6513 259.567 68.5223 259.35 68.3866C259.133 68.2508 258.956 68.1354 258.82 68.0404L258.657 67.9386C258.576 67.9386 258.379 68.054 258.067 68.2848C257.755 68.5155 257.429 68.8888 257.09 69.4046C256.75 69.9204 256.574 70.477 256.56 71.0743C256.56 71.8751 256.852 72.5335 257.436 73.0493C258.019 73.5651 258.698 73.8298 259.472 73.8434Z" fill="white"/>
<path d="M256.601 94.0418C256.234 94.0418 255.943 93.9197 255.725 93.6753C255.508 93.431 255.4 93.1324 255.4 92.7794C255.4 91.8157 255.759 90.9808 256.479 90.275C257.198 89.5691 258.094 89.2162 259.166 89.2162C260.402 89.2162 261.433 89.5963 262.261 90.3564C263.089 91.1166 263.51 92.1007 263.524 93.3088C263.524 93.8925 263.388 94.4491 263.117 94.9784C262.845 95.5078 262.519 95.9694 262.139 96.363C261.759 96.7567 261.216 97.2589 260.51 97.8698C260.022 98.2906 259.343 98.915 258.474 99.743L257.273 100.883L258.82 100.904C260.951 100.904 262.085 100.87 262.221 100.802C262.316 100.775 262.479 100.171 262.709 98.9896V98.9285H263.524V98.9896C263.51 99.0304 263.422 99.648 263.259 100.843C263.096 102.037 262.994 102.661 262.954 102.716V102.777H255.4V102.39V102.146C255.4 102.051 255.44 101.949 255.522 101.84C255.603 101.732 255.807 101.494 256.133 101.128C256.526 100.693 256.866 100.313 257.151 99.9873C257.273 99.8516 257.504 99.6005 257.843 99.234C258.182 98.8675 258.413 98.6163 258.535 98.4806C258.657 98.3449 258.854 98.1209 259.126 97.8087C259.397 97.4965 259.587 97.2657 259.696 97.1164C259.804 96.9671 259.961 96.7635 260.164 96.5055C260.368 96.2476 260.51 96.0305 260.592 95.854C260.673 95.6775 260.775 95.4807 260.897 95.2635C261.019 95.0463 261.108 94.8291 261.162 94.6119C261.216 94.3948 261.264 94.1911 261.304 94.0011C261.345 93.8111 261.366 93.5871 261.366 93.3292C261.366 92.474 261.135 91.7342 260.673 91.1098C260.212 90.4854 259.553 90.1732 258.698 90.1732C258.25 90.1732 257.857 90.2886 257.517 90.5193C257.178 90.7501 256.94 90.9741 256.805 91.1912C256.669 91.4084 256.601 91.5374 256.601 91.5781C256.601 91.5917 256.635 91.5985 256.703 91.5985C256.947 91.5985 257.198 91.6935 257.456 91.8835C257.714 92.0736 257.843 92.3858 257.843 92.8201C257.843 93.1595 257.734 93.4446 257.517 93.6753C257.3 93.9061 256.995 94.0283 256.601 94.0418Z" fill="white"/>
<path d="M255.807 122.792C255.807 122.792 255.807 122.269 255.807 121.224C255.807 120.179 256.173 119.337 256.906 118.699C257.639 118.061 258.481 117.736 259.431 117.722C260.395 117.722 261.25 118.007 261.997 118.577C262.743 119.147 263.117 119.887 263.117 120.797C263.117 121.204 263.042 121.584 262.893 121.937C262.743 122.29 262.567 122.575 262.363 122.792C262.16 123.009 261.949 123.199 261.732 123.362C261.515 123.525 261.338 123.647 261.203 123.729C261.067 123.81 260.992 123.864 260.979 123.892L261.264 124.075C261.454 124.211 261.644 124.346 261.834 124.482C262.024 124.618 262.132 124.692 262.16 124.706C263.178 125.507 263.687 126.518 263.687 127.74C263.687 128.812 263.293 129.742 262.506 130.529C261.718 131.317 260.7 131.717 259.452 131.731C258.23 131.731 257.225 131.384 256.438 130.692C255.651 130 255.257 129.145 255.257 128.127C255.257 126.661 256.133 125.439 257.884 124.462L257.517 124.197C257.232 124.02 257.049 123.885 256.967 123.79C256.194 123.125 255.807 122.269 255.807 121.224V122.792ZM260.205 123.423L260.327 123.342C260.409 123.287 260.47 123.247 260.51 123.22C260.551 123.192 260.619 123.145 260.714 123.077C260.809 123.009 260.89 122.941 260.958 122.873C261.026 122.806 261.101 122.724 261.182 122.629C261.264 122.534 261.338 122.446 261.406 122.364C261.474 122.283 261.542 122.174 261.61 122.039C261.678 121.903 261.739 121.788 261.793 121.692C261.847 121.597 261.881 121.462 261.895 121.285C261.908 121.109 261.922 120.959 261.936 120.837C261.936 120.254 261.739 119.758 261.345 119.351C260.951 118.944 260.497 118.686 259.981 118.577C259.886 118.564 259.662 118.557 259.309 118.557C258.752 118.557 258.23 118.733 257.741 119.086C257.253 119.439 257.001 119.88 256.988 120.41C256.988 120.722 257.076 121.007 257.253 121.265C257.429 121.523 257.605 121.72 257.782 121.855C257.958 121.991 258.298 122.208 258.8 122.507C258.895 122.575 258.97 122.622 259.024 122.649L260.205 123.423ZM259.472 130.855C260.259 130.855 260.938 130.624 261.508 130.163C262.078 129.701 262.363 129.145 262.363 128.493C262.363 128.262 262.329 128.045 262.261 127.842C262.194 127.638 262.112 127.468 262.017 127.333C261.922 127.197 261.773 127.048 261.569 126.885C261.366 126.722 261.209 126.6 261.101 126.518C260.992 126.437 260.795 126.308 260.51 126.131C260.225 125.955 260.042 125.839 259.961 125.785C259.771 125.663 259.567 125.534 259.35 125.398C259.133 125.263 258.956 125.147 258.82 125.052L258.657 124.95C258.576 124.95 258.379 125.066 258.067 125.296C257.755 125.527 257.429 125.9 257.09 126.416C256.75 126.932 256.574 127.489 256.56 128.086C256.56 128.887 256.852 129.545 257.436 130.061C258.019 130.577 258.698 130.842 259.472 130.855Z" fill="white"/>
<path d="M269.082 60.7103V59H276.148V95.63H274.437V60.7103H269.082Z" fill="white"/>
<path d="M274.437 134.663V99.743H276.148V136.373H269.082V134.663H274.437Z" fill="white"/>
<g clip-path="url(#clip4_282_452)">
<path d="M274.437 103.825V91.5434H276.148V103.825H274.437Z" fill="white"/>
</g>
<path d="M289.46 95.7114C289.46 95.535 289.555 95.3992 289.745 95.3042H302.715C302.919 95.4128 303.021 95.5486 303.021 95.7114C303.021 95.8608 302.926 95.9897 302.736 96.0983L296.261 96.1187H289.786C289.569 96.0508 289.46 95.9151 289.46 95.7114ZM289.46 99.6615C289.46 99.4579 289.569 99.3222 289.786 99.2543H302.736C302.926 99.3901 303.021 99.5258 303.021 99.6615C303.021 99.838 302.919 99.9738 302.715 100.069H289.745C289.555 99.9738 289.46 99.838 289.46 99.6615Z" fill="white"/>
<path d="M312.037 94.0418C311.67 94.0418 311.378 93.9197 311.161 93.6753C310.944 93.431 310.835 93.1323 310.835 92.7794C310.835 91.8157 311.195 90.9808 311.915 90.275C312.634 89.5691 313.53 89.2162 314.602 89.2162C315.837 89.2162 316.869 89.5963 317.697 90.3564C318.525 91.1166 318.946 92.1007 318.96 93.3088C318.96 93.8925 318.824 94.449 318.552 94.9784C318.281 95.5078 317.955 95.9694 317.575 96.363C317.195 96.7567 316.652 97.2589 315.946 97.8697C315.457 98.2905 314.779 98.915 313.91 99.743L312.709 100.883L314.256 100.904C316.387 100.904 317.521 100.87 317.656 100.802C317.751 100.775 317.914 100.171 318.145 98.9896V98.9285H318.96V98.9896C318.946 99.0303 318.858 99.648 318.695 100.842C318.532 102.037 318.43 102.661 318.389 102.716V102.777H310.835V102.39V102.146C310.835 102.051 310.876 101.949 310.958 101.84C311.039 101.732 311.243 101.494 311.568 101.128C311.962 100.693 312.301 100.313 312.586 99.9873C312.709 99.8516 312.939 99.6005 313.279 99.234C313.618 98.8675 313.849 98.6163 313.971 98.4806C314.093 98.3448 314.29 98.1209 314.561 97.8087C314.833 97.4965 315.023 97.2657 315.132 97.1164C315.24 96.9671 315.396 96.7634 315.6 96.5055C315.804 96.2476 315.946 96.0304 316.028 95.854C316.109 95.6775 316.211 95.4807 316.333 95.2635C316.455 95.0463 316.543 94.8291 316.598 94.6119C316.652 94.3948 316.699 94.1911 316.74 94.0011C316.781 93.8111 316.801 93.5871 316.801 93.3292C316.801 92.474 316.57 91.7342 316.109 91.1098C315.647 90.4854 314.989 90.1732 314.134 90.1732C313.686 90.1732 313.292 90.2886 312.953 90.5193C312.614 90.7501 312.376 90.974 312.24 91.1912C312.105 91.4084 312.037 91.5374 312.037 91.5781C312.037 91.5917 312.071 91.5985 312.138 91.5985C312.383 91.5985 312.634 91.6935 312.892 91.8835C313.15 92.0736 313.279 92.3858 313.279 92.8201C313.279 93.1595 313.17 93.4446 312.953 93.6753C312.736 93.9061 312.43 94.0282 312.037 94.0418Z" fill="white"/>
<path d="M326.11 97.6865C326.11 97.3607 326.226 97.0757 326.457 96.8313C326.687 96.587 326.979 96.4648 327.332 96.4648C327.658 96.4648 327.943 96.5734 328.187 96.7906C328.432 97.0078 328.561 97.2996 328.574 97.6661C328.574 98.0055 328.459 98.2973 328.228 98.5417C327.997 98.786 327.705 98.9082 327.352 98.9082C327 98.9082 326.708 98.7928 326.477 98.562C326.246 98.3313 326.124 98.0394 326.11 97.6865Z" fill="white"/>
<path d="M336.132 94.2862C336.132 94.2862 336.132 93.7636 336.132 92.7183C336.132 91.6731 336.499 90.8315 337.232 90.1935C337.965 89.5555 338.806 89.2298 339.757 89.2162C340.72 89.2162 341.576 89.5013 342.322 90.0714C343.069 90.6415 343.442 91.3813 343.442 92.2908C343.442 92.698 343.367 93.0781 343.218 93.431C343.069 93.7839 342.892 94.069 342.689 94.2862C342.485 94.5033 342.275 94.6934 342.057 94.8563C341.84 95.0192 341.664 95.1413 341.528 95.2228C341.392 95.3042 341.318 95.3585 341.304 95.3857L341.589 95.5689C341.779 95.7047 341.969 95.8404 342.159 95.9761C342.349 96.1119 342.458 96.1865 342.485 96.2001C343.503 97.001 344.012 98.0123 344.012 99.234C344.012 100.306 343.618 101.236 342.831 102.023C342.044 102.811 341.026 103.211 339.777 103.225C338.555 103.225 337.551 102.879 336.763 102.186C335.976 101.494 335.583 100.639 335.583 99.6208C335.583 98.1548 336.458 96.9331 338.209 95.9558L337.843 95.6911C337.558 95.5146 337.374 95.3789 337.293 95.2839C336.519 94.6187 336.132 93.7636 336.132 92.7183V94.2862ZM340.53 94.9174L340.652 94.8359C340.734 94.7816 340.795 94.7409 340.836 94.7137C340.876 94.6866 340.944 94.6391 341.039 94.5712C341.134 94.5033 341.216 94.4355 341.284 94.3676C341.352 94.2997 341.426 94.2183 341.508 94.1233C341.589 94.0282 341.664 93.94 341.732 93.8586C341.799 93.7771 341.867 93.6685 341.935 93.5328C342.003 93.397 342.064 93.2817 342.118 93.1866C342.173 93.0916 342.207 92.9559 342.22 92.7794C342.234 92.603 342.247 92.4536 342.261 92.3315C342.261 91.7478 342.064 91.2523 341.671 90.8451C341.277 90.4379 340.822 90.18 340.306 90.0714C340.211 90.0578 339.987 90.051 339.634 90.051C339.078 90.051 338.555 90.2275 338.067 90.5804C337.578 90.9333 337.327 91.3745 337.313 91.9039C337.313 92.2161 337.401 92.5012 337.578 92.7591C337.754 93.017 337.931 93.2138 338.107 93.3495C338.284 93.4853 338.623 93.7025 339.125 94.0011C339.22 94.069 339.295 94.1165 339.349 94.1436L340.53 94.9174ZM339.797 102.349C340.585 102.349 341.263 102.118 341.833 101.657C342.404 101.195 342.689 100.639 342.689 99.9873C342.689 99.7566 342.655 99.5394 342.587 99.3358C342.519 99.1322 342.437 98.9625 342.342 98.8267C342.247 98.691 342.098 98.5417 341.895 98.3788C341.691 98.2159 341.535 98.0937 341.426 98.0123C341.318 97.9308 341.121 97.8019 340.836 97.6254C340.551 97.449 340.367 97.3336 340.286 97.2793C340.096 97.1571 339.892 97.0282 339.675 96.8924C339.458 96.7567 339.281 96.6413 339.146 96.5463L338.983 96.4445C338.901 96.4445 338.705 96.5598 338.392 96.7906C338.08 97.0214 337.754 97.3947 337.415 97.9105C337.076 98.4263 336.899 98.9828 336.886 99.5801C336.886 100.381 337.177 101.039 337.761 101.555C338.345 102.071 339.024 102.336 339.797 102.349Z" fill="white"/>
<path d="M350.554 97.9512C350.554 97.9512 350.554 97.863 350.554 97.6865C350.554 97.51 350.649 97.3743 350.839 97.2793H356.927V94.2251L356.948 91.1709C357.083 90.9944 357.212 90.9062 357.335 90.9062C357.511 90.9062 357.647 91.008 357.742 91.2116V97.2793H363.809C364.013 97.3879 364.115 97.5236 364.115 97.6865C364.115 97.8494 364.013 97.9851 363.809 98.0937H357.742V104.161C357.633 104.351 357.511 104.446 357.375 104.446H357.335H357.294C357.131 104.446 357.009 104.351 356.927 104.161V98.0937H350.839C350.649 97.9987 350.554 97.863 350.554 97.6865V97.9512Z" fill="white"/>
<path d="M370.899 93.4513C370.913 93.4242 371.028 92.6844 371.245 91.232L371.571 89.0533C371.571 89.0262 371.707 89.0126 371.978 89.0126H372.386V89.094C372.386 89.2298 372.487 89.3451 372.691 89.4402C372.895 89.5352 373.248 89.5963 373.75 89.6234C374.252 89.6506 375.399 89.6641 377.191 89.6641H379.655V90.4582L378.27 92.3518C378.148 92.5147 377.944 92.7862 377.659 93.1663C377.374 93.5464 377.191 93.7975 377.109 93.9197C377.028 94.0418 376.885 94.259 376.682 94.5712C376.478 94.8834 376.342 95.1278 376.275 95.3042C376.207 95.4807 376.112 95.7318 375.99 96.0576C375.867 96.3834 375.779 96.6956 375.725 96.9942C375.671 97.2928 375.616 97.6594 375.562 98.0937C375.508 98.5281 375.467 98.9896 375.44 99.4783C375.413 99.967 375.392 100.524 375.379 101.148C375.379 101.338 375.379 101.528 375.379 101.718C375.379 101.908 375.372 102.071 375.358 102.207V102.39C375.304 102.621 375.175 102.818 374.971 102.98C374.768 103.143 374.537 103.225 374.279 103.225C374.13 103.225 373.987 103.204 373.852 103.164C373.716 103.123 373.573 102.994 373.424 102.777C373.275 102.56 373.2 102.288 373.2 101.962C373.2 99.8177 373.858 97.5915 375.175 95.2839C375.447 94.8495 376.017 94.0282 376.885 92.8201L377.822 91.5374H375.928C373.567 91.5374 372.325 91.5781 372.202 91.6596C372.121 91.7003 372.046 91.8632 371.978 92.1482C371.91 92.4333 371.843 92.7251 371.775 93.0238L371.714 93.4513V93.5124H370.899V93.4513Z" fill="white"/>
<path d="M386.072 97.6865C386.072 97.3607 386.188 97.0757 386.419 96.8313C386.649 96.587 386.941 96.4648 387.294 96.4648C387.62 96.4648 387.905 96.5734 388.149 96.7906C388.394 97.0078 388.523 97.2996 388.536 97.6661C388.536 98.0055 388.421 98.2973 388.19 98.5417C387.959 98.786 387.667 98.9082 387.315 98.9082C386.962 98.9082 386.67 98.7928 386.439 98.562C386.208 98.3313 386.086 98.0394 386.072 97.6865Z" fill="white"/>
<path d="M396.888 94.0418C396.522 94.0418 396.23 93.9197 396.013 93.6753C395.796 93.431 395.687 93.1323 395.687 92.7794C395.687 91.8157 396.047 90.9808 396.766 90.275C397.486 89.5691 398.382 89.2162 399.454 89.2162C400.689 89.2162 401.721 89.5963 402.549 90.3564C403.377 91.1166 403.798 92.1007 403.811 93.3088C403.811 93.8925 403.675 94.449 403.404 94.9784C403.133 95.5078 402.807 95.9694 402.427 96.363C402.047 96.7567 401.504 97.2589 400.798 97.8697C400.309 98.2905 399.63 98.915 398.762 99.743L397.56 100.883L399.108 100.904C401.239 100.904 402.372 100.87 402.508 100.802C402.603 100.775 402.766 100.171 402.997 98.9896V98.9285H403.811V98.9896C403.798 99.0303 403.709 99.648 403.547 100.842C403.384 102.037 403.282 102.661 403.241 102.716V102.777H395.687V102.39V102.146C395.687 102.051 395.728 101.949 395.809 101.84C395.891 101.732 396.094 101.494 396.42 101.128C396.814 100.693 397.153 100.313 397.438 99.9873C397.56 99.8516 397.791 99.6005 398.13 99.234C398.47 98.8675 398.701 98.6163 398.823 98.4806C398.945 98.3448 399.142 98.1209 399.413 97.8087C399.685 97.4965 399.875 97.2657 399.983 97.1164C400.092 96.9671 400.248 96.7634 400.452 96.5055C400.655 96.2476 400.798 96.0304 400.879 95.854C400.961 95.6775 401.062 95.4807 401.185 95.2635C401.307 95.0463 401.395 94.8291 401.449 94.6119C401.504 94.3948 401.551 94.1911 401.592 94.0011C401.633 93.8111 401.653 93.5871 401.653 93.3292C401.653 92.474 401.422 91.7342 400.961 91.1098C400.499 90.4854 399.841 90.1732 398.986 90.1732C398.538 90.1732 398.144 90.2886 397.805 90.5193C397.465 90.7501 397.228 90.974 397.092 91.1912C396.956 91.4084 396.888 91.5374 396.888 91.5781C396.888 91.5917 396.922 91.5985 396.99 91.5985C397.235 91.5985 397.486 91.6935 397.744 91.8835C398.001 92.0736 398.13 92.3858 398.13 92.8201C398.13 93.1595 398.022 93.4446 397.805 93.6753C397.587 93.9061 397.282 94.0282 396.888 94.0418Z" fill="white"/>
<path d="M410.516 97.9512C410.516 97.9512 410.516 97.863 410.516 97.6865C410.516 97.51 410.611 97.3743 410.801 97.2793H416.889V94.2251L416.91 91.1709C417.045 90.9944 417.174 90.9062 417.297 90.9062C417.473 90.9062 417.609 91.008 417.704 91.2116V97.2793H423.771C423.975 97.3879 424.077 97.5236 424.077 97.6865C424.077 97.8494 423.975 97.9851 423.771 98.0937H417.704V104.161C417.595 104.351 417.473 104.446 417.337 104.446H417.297H417.256C417.093 104.446 416.971 104.351 416.889 104.161V98.0937H410.801C410.611 97.9987 410.516 97.863 410.516 97.6865V97.9512Z" fill="white"/>
<path d="M434.078 91.008L433.814 91.1098C433.624 91.1777 433.352 91.2455 432.999 91.3134C432.646 91.3813 432.253 91.4288 431.818 91.4559H431.431V90.5193H431.818C432.456 90.4922 433.047 90.3904 433.59 90.2139C434.133 90.0374 434.513 89.8745 434.73 89.7252C434.947 89.5759 435.137 89.4266 435.3 89.2773C435.327 89.2366 435.409 89.2162 435.544 89.2162C435.667 89.2162 435.782 89.2569 435.891 89.3384V95.4264L435.911 101.535C436.006 101.63 436.087 101.691 436.155 101.718C436.223 101.745 436.386 101.772 436.644 101.799C436.902 101.827 437.323 101.84 437.906 101.84H438.436V102.777H438.212C437.927 102.736 436.847 102.716 434.974 102.716C433.128 102.716 432.063 102.736 431.778 102.777H431.533V101.84H432.063C432.361 101.84 432.619 101.84 432.836 101.84C433.053 101.84 433.223 101.833 433.345 101.82C433.468 101.806 433.576 101.786 433.671 101.759C433.766 101.732 433.82 101.718 433.834 101.718C433.848 101.718 433.888 101.684 433.956 101.616C434.024 101.548 434.065 101.521 434.078 101.535V91.008Z" fill="white"/>
<path d="M446.035 97.6865C446.035 97.3607 446.15 97.0757 446.381 96.8313C446.611 96.587 446.903 96.4648 447.256 96.4648C447.582 96.4648 447.867 96.5734 448.111 96.7906C448.356 97.0078 448.485 97.2996 448.498 97.6661C448.498 98.0055 448.383 98.2973 448.152 98.5417C447.921 98.786 447.629 98.9082 447.277 98.9082C446.924 98.9082 446.632 98.7928 446.401 98.562C446.17 98.3313 446.048 98.0394 446.035 97.6865Z" fill="white"/>
<path d="M456.056 94.2862C456.056 94.2862 456.056 93.7636 456.056 92.7183C456.056 91.6731 456.423 90.8315 457.156 90.1935C457.889 89.5555 458.73 89.2298 459.681 89.2162C460.644 89.2162 461.5 89.5013 462.246 90.0714C462.993 90.6415 463.366 91.3813 463.366 92.2908C463.366 92.698 463.291 93.0781 463.142 93.431C462.993 93.7839 462.816 94.069 462.613 94.2862C462.409 94.5033 462.199 94.6934 461.982 94.8563C461.764 95.0192 461.588 95.1413 461.452 95.2228C461.316 95.3042 461.242 95.3585 461.228 95.3857L461.513 95.5689C461.703 95.7047 461.893 95.8404 462.083 95.9761C462.273 96.1119 462.382 96.1865 462.409 96.2001C463.427 97.001 463.936 98.0123 463.936 99.234C463.936 100.306 463.543 101.236 462.755 102.023C461.968 102.811 460.95 103.211 459.701 103.225C458.479 103.225 457.475 102.879 456.688 102.186C455.9 101.494 455.507 100.639 455.507 99.6208C455.507 98.1548 456.382 96.9331 458.133 95.9558L457.767 95.6911C457.482 95.5146 457.298 95.3789 457.217 95.2839C456.443 94.6187 456.056 93.7636 456.056 92.7183V94.2862ZM460.454 94.9174L460.577 94.8359C460.658 94.7816 460.719 94.7409 460.76 94.7137C460.801 94.6866 460.868 94.6391 460.963 94.5712C461.058 94.5033 461.14 94.4355 461.208 94.3676C461.276 94.2997 461.35 94.2183 461.432 94.1233C461.513 94.0282 461.588 93.94 461.656 93.8586C461.724 93.7771 461.791 93.6685 461.859 93.5328C461.927 93.397 461.988 93.2817 462.043 93.1866C462.097 93.0916 462.131 92.9559 462.144 92.7794C462.158 92.603 462.172 92.4536 462.185 92.3315C462.185 91.7478 461.988 91.2523 461.595 90.8451C461.201 90.4379 460.746 90.18 460.23 90.0714C460.135 90.0578 459.911 90.051 459.559 90.051C459.002 90.051 458.479 90.2275 457.991 90.5804C457.502 90.9333 457.251 91.3745 457.237 91.9039C457.237 92.2161 457.326 92.5012 457.502 92.7591C457.678 93.017 457.855 93.2138 458.031 93.3495C458.208 93.4853 458.547 93.7025 459.049 94.0011C459.144 94.069 459.219 94.1165 459.273 94.1436L460.454 94.9174ZM459.721 102.349C460.509 102.349 461.187 102.118 461.758 101.657C462.328 101.195 462.613 100.639 462.613 99.9873C462.613 99.7566 462.579 99.5394 462.511 99.3358C462.443 99.1322 462.362 98.9625 462.267 98.8267C462.172 98.691 462.022 98.5417 461.819 98.3788C461.615 98.2159 461.459 98.0937 461.35 98.0123C461.242 97.9308 461.045 97.8019 460.76 97.6254C460.475 97.449 460.292 97.3336 460.21 97.2793C460.02 97.1571 459.816 97.0282 459.599 96.8924C459.382 96.7567 459.206 96.6413 459.07 96.5463L458.907 96.4445C458.826 96.4445 458.629 96.5598 458.316 96.7906C458.004 97.0214 457.678 97.3947 457.339 97.9105C457 98.4263 456.823 98.9828 456.81 99.5801C456.81 100.381 457.102 101.039 457.685 101.555C458.269 102.071 458.948 102.336 459.721 102.349Z" fill="white"/>
</g>
<path d="M265.9 179.679C266.299 179.79 266.713 179.557 266.824 179.158C266.935 178.759 266.701 178.345 266.302 178.234L265.9 179.679ZM229.7 116.743C229.415 116.443 228.94 116.43 228.64 116.715L223.74 121.357C223.439 121.642 223.426 122.117 223.711 122.417C223.996 122.718 224.47 122.731 224.771 122.446L229.127 118.319L233.253 122.675C233.538 122.976 234.013 122.989 234.314 122.704C234.614 122.419 234.627 121.944 234.342 121.643L229.7 116.743ZM266.302 178.234C251.253 174.047 242.046 163.081 236.644 150.982C231.236 138.872 229.678 125.696 229.905 117.279L228.406 117.239C228.174 125.834 229.758 139.241 235.274 151.594C240.795 163.958 250.29 175.336 265.9 179.679L266.302 178.234Z" fill="white"/>
<path d="M281.373 177.387C281.173 177.387 281.006 177.313 280.873 177.167C280.746 177.02 280.689 176.82 280.703 176.567C280.743 175.727 280.883 174.877 281.123 174.017C281.369 173.157 281.696 172.377 282.103 171.677C282.196 171.517 282.316 171.39 282.463 171.297C282.609 171.203 282.763 171.157 282.923 171.157C283.136 171.157 283.286 171.233 283.373 171.387C283.466 171.533 283.456 171.723 283.343 171.957C282.936 172.79 282.626 173.593 282.413 174.367C282.206 175.14 282.089 175.92 282.063 176.707C282.056 176.907 281.986 177.07 281.853 177.197C281.719 177.323 281.559 177.387 281.373 177.387ZM284.693 177.337C284.479 177.337 284.306 177.263 284.173 177.117C284.046 176.97 283.993 176.767 284.013 176.507C284.079 175.713 284.243 174.887 284.503 174.027C284.769 173.16 285.089 172.413 285.463 171.787C285.549 171.64 285.659 171.527 285.793 171.447C285.926 171.36 286.066 171.317 286.213 171.317C286.419 171.317 286.566 171.393 286.653 171.547C286.739 171.7 286.726 171.893 286.613 172.127C286.313 172.74 286.056 173.44 285.843 174.227C285.629 175.013 285.469 175.853 285.363 176.747C285.343 176.92 285.269 177.063 285.143 177.177C285.023 177.283 284.873 177.337 284.693 177.337ZM294.701 186.057C294.401 186.057 294.117 185.97 293.851 185.797C293.584 185.623 293.381 185.383 293.241 185.077C293.047 184.65 292.931 184.057 292.891 183.297C292.884 183.177 292.877 183.047 292.871 182.907C292.871 182.767 292.871 182.557 292.871 182.277C292.544 183.137 292.184 183.847 291.791 184.407C291.397 184.96 290.964 185.373 290.491 185.647C290.017 185.913 289.484 186.047 288.891 186.047C288.257 186.047 287.704 185.853 287.231 185.467C286.764 185.073 286.447 184.53 286.281 183.837C286.114 183.137 286.124 182.333 286.311 181.427C286.491 180.54 286.834 179.743 287.341 179.037C287.847 178.323 288.464 177.763 289.191 177.357C289.917 176.95 290.657 176.747 291.411 176.747C291.997 176.747 292.587 176.853 293.181 177.067C293.261 176.633 293.334 176.217 293.401 175.817C293.467 175.417 293.527 175.04 293.581 174.687C293.661 173.993 293.747 173.45 293.841 173.057C293.934 172.657 294.044 172.37 294.171 172.197C294.304 172.017 294.474 171.927 294.681 171.927C294.881 171.927 295.031 172 295.131 172.147C295.231 172.287 295.281 172.52 295.281 172.847C295.281 173.147 295.237 173.523 295.151 173.977C295.071 174.43 294.944 174.967 294.771 175.587C294.444 177.807 294.244 179.367 294.171 180.267C294.104 181.16 294.087 181.963 294.121 182.677C294.141 183.177 294.167 183.567 294.201 183.847C294.234 184.12 294.277 184.353 294.331 184.547C294.457 184.653 294.631 184.79 294.851 184.957C295.071 185.117 295.207 185.233 295.261 185.307C295.321 185.373 295.351 185.453 295.351 185.547C295.351 185.687 295.291 185.807 295.171 185.907C295.057 186.007 294.901 186.057 294.701 186.057ZM289.111 184.877C289.611 184.877 290.081 184.657 290.521 184.217C290.961 183.77 291.377 183.09 291.771 182.177C292.164 181.257 292.534 180.09 292.881 178.677L292.991 178.117C292.531 177.923 292.067 177.827 291.601 177.827C290.987 177.827 290.404 177.99 289.851 178.317C289.297 178.637 288.824 179.087 288.431 179.667C288.037 180.247 287.774 180.88 287.641 181.567C287.447 182.547 287.491 183.343 287.771 183.957C288.057 184.57 288.504 184.877 289.111 184.877ZM300.448 185.007C300.855 185.007 301.248 184.9 301.628 184.687C302.015 184.473 302.362 184.167 302.668 183.767C302.982 183.36 303.228 182.9 303.408 182.387C303.595 181.873 303.688 181.377 303.688 180.897C303.688 180.35 303.602 179.883 303.428 179.497C303.255 179.11 302.992 178.813 302.638 178.607C302.532 178.54 302.455 178.48 302.408 178.427C302.222 178.34 302.005 178.27 301.758 178.217C301.518 178.157 301.282 178.127 301.048 178.127C300.642 178.127 300.255 178.227 299.888 178.427C299.528 178.62 299.202 178.907 298.908 179.287C298.622 179.66 298.395 180.093 298.228 180.587C298.062 181.08 297.978 181.563 297.978 182.037C297.978 182.93 298.202 183.65 298.648 184.197C299.102 184.737 299.702 185.007 300.448 185.007ZM300.418 186.177C299.685 186.177 299.032 186.007 298.458 185.667C297.892 185.32 297.452 184.837 297.138 184.217C296.825 183.59 296.668 182.883 296.668 182.097C296.668 181.457 296.778 180.82 296.998 180.187C297.225 179.553 297.542 178.99 297.948 178.497C298.355 177.997 298.825 177.613 299.358 177.347C299.898 177.08 300.472 176.947 301.078 176.947C301.525 176.947 301.952 177.017 302.358 177.157C302.772 177.297 303.108 177.493 303.368 177.747C303.882 177.96 304.278 178.337 304.558 178.877C304.838 179.417 304.978 180.057 304.978 180.797C304.978 181.45 304.862 182.107 304.628 182.767C304.395 183.42 304.065 184.01 303.638 184.537C303.212 185.057 302.722 185.46 302.168 185.747C301.615 186.033 301.032 186.177 300.418 186.177ZM310.003 186.137C309.183 186.137 308.556 185.92 308.123 185.487C307.696 185.047 307.463 184.383 307.423 183.497C307.39 182.89 307.413 182.14 307.493 181.247C307.58 180.347 307.713 179.363 307.893 178.297L307.033 178.347C306.806 178.36 306.623 178.32 306.483 178.227C306.35 178.127 306.283 177.98 306.283 177.787C306.283 177.46 306.523 177.253 307.003 177.167C307.123 177.147 307.283 177.127 307.483 177.107C307.683 177.08 307.896 177.057 308.123 177.037C308.196 176.643 308.273 176.267 308.353 175.907C308.44 175.54 308.523 175.21 308.603 174.917C308.67 174.683 308.76 174.51 308.873 174.397C308.986 174.283 309.136 174.227 309.323 174.227C309.536 174.227 309.693 174.313 309.793 174.487C309.893 174.66 309.906 174.903 309.833 175.217C309.746 175.597 309.676 175.917 309.623 176.177C309.576 176.43 309.53 176.677 309.483 176.917C309.936 176.883 310.41 176.857 310.903 176.837C311.403 176.817 311.79 176.807 312.063 176.807C312.523 176.807 312.753 176.987 312.753 177.347C312.753 177.5 312.706 177.627 312.613 177.727C312.52 177.82 312.376 177.88 312.183 177.907C311.97 177.933 311.643 177.97 311.203 178.017C310.763 178.057 310.113 178.11 309.253 178.177C309.06 179.323 308.923 180.333 308.843 181.207C308.763 182.073 308.74 182.783 308.773 183.337C308.806 183.937 308.923 184.36 309.123 184.607C309.33 184.853 309.66 184.977 310.113 184.977C310.52 184.977 311.033 184.85 311.653 184.597C311.813 184.53 311.95 184.53 312.063 184.597C312.176 184.663 312.233 184.777 312.233 184.937C312.233 185.137 312.17 185.297 312.043 185.417C311.53 185.897 310.85 186.137 310.003 186.137ZM318.15 190.417C317.95 190.417 317.803 190.33 317.71 190.157C317.617 189.99 317.57 189.727 317.57 189.367C317.57 189.007 317.613 188.54 317.7 187.967C317.793 187.4 317.93 186.713 318.11 185.907C318.23 185.027 318.33 184.183 318.41 183.377C318.497 182.563 318.57 181.723 318.63 180.857C318.697 179.983 318.76 178.87 318.82 177.517C318.773 177.277 318.81 177.083 318.93 176.937C319.057 176.783 319.23 176.707 319.45 176.707C319.67 176.707 319.84 176.773 319.96 176.907C320.087 177.04 320.143 177.22 320.13 177.447C320.103 178.167 320.06 178.88 320 179.587C319.94 180.293 319.86 181.033 319.76 181.807C319.873 181.5 319.997 181.2 320.13 180.907C320.263 180.607 320.417 180.293 320.59 179.967C321.13 178.927 321.72 178.133 322.36 177.587C323.007 177.033 323.677 176.757 324.37 176.757C325.003 176.757 325.543 176.983 325.99 177.437C326.443 177.89 326.743 178.513 326.89 179.307C327.043 180.093 327.023 180.95 326.83 181.877C326.663 182.67 326.387 183.367 326 183.967C325.62 184.56 325.157 185.023 324.61 185.357C324.063 185.683 323.487 185.847 322.88 185.847C322.28 185.847 321.713 185.72 321.18 185.467C320.647 185.207 320.21 184.847 319.87 184.387C319.73 184.867 319.6 185.373 319.48 185.907C319.367 186.433 319.263 186.983 319.17 187.557C319.123 188.23 319.057 188.777 318.97 189.197C318.89 189.617 318.783 189.923 318.65 190.117C318.523 190.317 318.357 190.417 318.15 190.417ZM322.75 184.737C323.417 184.737 323.997 184.463 324.49 183.917C324.983 183.363 325.32 182.583 325.5 181.577C325.62 180.923 325.643 180.317 325.57 179.757C325.497 179.197 325.337 178.753 325.09 178.427C324.843 178.1 324.54 177.937 324.18 177.937C323.667 177.937 323.107 178.287 322.5 178.987C321.893 179.68 321.313 180.65 320.76 181.897C320.68 182.077 320.597 182.273 320.51 182.487C320.43 182.693 320.337 182.947 320.23 183.247C320.97 184.24 321.81 184.737 322.75 184.737ZM329.413 186.027C329.213 186.027 329.066 185.957 328.973 185.817C328.88 185.67 328.833 185.44 328.833 185.127C328.833 184.867 328.866 184.54 328.933 184.147C329.06 183.32 329.146 182.72 329.193 182.347C329.246 181.973 329.293 181.593 329.333 181.207C329.44 180.233 329.51 179.49 329.543 178.977C329.583 178.457 329.61 177.953 329.623 177.467C329.643 176.887 329.876 176.597 330.323 176.597C330.716 176.597 330.92 176.807 330.933 177.227C330.953 177.86 330.886 178.667 330.733 179.647C330.886 179.247 331.043 178.91 331.203 178.637C331.59 177.963 332.01 177.47 332.463 177.157C332.916 176.837 333.44 176.677 334.033 176.677C334.54 176.677 334.93 176.777 335.203 176.977C335.49 177.19 335.633 177.43 335.633 177.697C335.633 177.883 335.573 178.04 335.453 178.167C335.333 178.287 335.18 178.347 334.993 178.347C334.82 178.347 334.676 178.3 334.563 178.207C334.456 178.107 334.403 177.983 334.403 177.837C333.836 177.837 333.323 178.01 332.863 178.357C332.41 178.703 331.983 179.25 331.583 179.997C331.303 180.517 331.053 181.13 330.833 181.837C330.613 182.543 330.41 183.377 330.223 184.337C330.176 184.937 330.093 185.37 329.973 185.637C329.86 185.897 329.673 186.027 329.413 186.027ZM339.687 185.007C340.093 185.007 340.487 184.9 340.867 184.687C341.253 184.473 341.6 184.167 341.907 183.767C342.22 183.36 342.467 182.9 342.647 182.387C342.833 181.873 342.927 181.377 342.927 180.897C342.927 180.35 342.84 179.883 342.667 179.497C342.493 179.11 342.23 178.813 341.877 178.607C341.77 178.54 341.693 178.48 341.647 178.427C341.46 178.34 341.243 178.27 340.997 178.217C340.757 178.157 340.52 178.127 340.287 178.127C339.88 178.127 339.493 178.227 339.127 178.427C338.767 178.62 338.44 178.907 338.147 179.287C337.86 179.66 337.633 180.093 337.467 180.587C337.3 181.08 337.217 181.563 337.217 182.037C337.217 182.93 337.44 183.65 337.887 184.197C338.34 184.737 338.94 185.007 339.687 185.007ZM339.657 186.177C338.923 186.177 338.27 186.007 337.697 185.667C337.13 185.32 336.69 184.837 336.377 184.217C336.063 183.59 335.907 182.883 335.907 182.097C335.907 181.457 336.017 180.82 336.237 180.187C336.463 179.553 336.78 178.99 337.187 178.497C337.593 177.997 338.063 177.613 338.597 177.347C339.137 177.08 339.71 176.947 340.317 176.947C340.763 176.947 341.19 177.017 341.597 177.157C342.01 177.297 342.347 177.493 342.607 177.747C343.12 177.96 343.517 178.337 343.797 178.877C344.077 179.417 344.217 180.057 344.217 180.797C344.217 181.45 344.1 182.107 343.867 182.767C343.633 183.42 343.303 184.01 342.877 184.537C342.45 185.057 341.96 185.46 341.407 185.747C340.853 186.033 340.27 186.177 339.657 186.177ZM354.349 186.057C354.049 186.057 353.766 185.97 353.499 185.797C353.232 185.623 353.029 185.383 352.889 185.077C352.696 184.65 352.579 184.057 352.539 183.297C352.532 183.177 352.526 183.047 352.519 182.907C352.519 182.767 352.519 182.557 352.519 182.277C352.192 183.137 351.832 183.847 351.439 184.407C351.046 184.96 350.612 185.373 350.139 185.647C349.666 185.913 349.132 186.047 348.539 186.047C347.906 186.047 347.352 185.853 346.879 185.467C346.412 185.073 346.096 184.53 345.929 183.837C345.762 183.137 345.772 182.333 345.959 181.427C346.139 180.54 346.482 179.743 346.989 179.037C347.496 178.323 348.112 177.763 348.839 177.357C349.566 176.95 350.306 176.747 351.059 176.747C351.646 176.747 352.236 176.853 352.829 177.067C352.909 176.633 352.982 176.217 353.049 175.817C353.116 175.417 353.176 175.04 353.229 174.687C353.309 173.993 353.396 173.45 353.489 173.057C353.582 172.657 353.692 172.37 353.819 172.197C353.952 172.017 354.122 171.927 354.329 171.927C354.529 171.927 354.679 172 354.779 172.147C354.879 172.287 354.929 172.52 354.929 172.847C354.929 173.147 354.886 173.523 354.799 173.977C354.719 174.43 354.592 174.967 354.419 175.587C354.092 177.807 353.892 179.367 353.819 180.267C353.752 181.16 353.736 181.963 353.769 182.677C353.789 183.177 353.816 183.567 353.849 183.847C353.882 184.12 353.926 184.353 353.979 184.547C354.106 184.653 354.279 184.79 354.499 184.957C354.719 185.117 354.856 185.233 354.909 185.307C354.969 185.373 354.999 185.453 354.999 185.547C354.999 185.687 354.939 185.807 354.819 185.907C354.706 186.007 354.549 186.057 354.349 186.057ZM348.759 184.877C349.259 184.877 349.729 184.657 350.169 184.217C350.609 183.77 351.026 183.09 351.419 182.177C351.812 181.257 352.182 180.09 352.529 178.677L352.639 178.117C352.179 177.923 351.716 177.827 351.249 177.827C350.636 177.827 350.052 177.99 349.499 178.317C348.946 178.637 348.472 179.087 348.079 179.667C347.686 180.247 347.422 180.88 347.289 181.567C347.096 182.547 347.139 183.343 347.419 183.957C347.706 184.57 348.152 184.877 348.759 184.877ZM364.495 186.147C364.295 186.147 364.118 186.07 363.965 185.917C363.671 185.623 363.458 185.267 363.325 184.847C363.191 184.427 363.125 183.87 363.125 183.177C363.125 182.93 363.128 182.687 363.135 182.447C363.148 182.207 363.168 181.97 363.195 181.737C362.995 182.21 362.791 182.643 362.585 183.037C362.378 183.43 362.168 183.787 361.955 184.107C361.535 184.747 361.095 185.227 360.635 185.547C360.175 185.86 359.691 186.017 359.185 186.017C358.458 186.017 357.885 185.733 357.465 185.167C357.051 184.6 356.845 183.79 356.845 182.737C356.845 182.097 356.901 181.313 357.015 180.387C357.135 179.453 357.301 178.427 357.515 177.307C357.548 177.133 357.628 176.997 357.755 176.897C357.888 176.79 358.038 176.737 358.205 176.737C358.405 176.737 358.565 176.807 358.685 176.947C358.811 177.087 358.855 177.273 358.815 177.507C358.588 178.74 358.421 179.777 358.315 180.617C358.215 181.457 358.165 182.15 358.165 182.697C358.165 183.37 358.265 183.893 358.465 184.267C358.665 184.633 358.955 184.817 359.335 184.817C359.615 184.817 359.901 184.687 360.195 184.427C360.495 184.16 360.831 183.733 361.205 183.147C361.551 182.607 361.915 181.93 362.295 181.117C362.675 180.297 363.075 179.34 363.495 178.247C363.535 177.927 363.571 177.69 363.605 177.537C363.638 177.383 363.681 177.25 363.735 177.137C363.855 176.863 364.068 176.727 364.375 176.727C364.588 176.727 364.758 176.803 364.885 176.957C365.011 177.11 365.065 177.32 365.045 177.587C365.025 177.807 364.985 178.053 364.925 178.327C364.865 178.593 364.771 178.933 364.645 179.347C364.531 180.167 364.445 180.893 364.385 181.527C364.331 182.16 364.305 182.71 364.305 183.177C364.305 183.637 364.355 184.023 364.455 184.337C364.555 184.65 364.721 184.943 364.955 185.217C365.068 185.337 365.125 185.47 365.125 185.617C365.125 185.757 365.061 185.88 364.935 185.987C364.815 186.093 364.668 186.147 364.495 186.147ZM370.692 186.177C369.832 186.177 369.089 185.977 368.462 185.577C367.835 185.177 367.395 184.607 367.142 183.867C366.889 183.127 366.849 182.263 367.022 181.277C367.182 180.377 367.479 179.587 367.912 178.907C368.352 178.227 368.902 177.7 369.562 177.327C370.229 176.953 370.942 176.767 371.702 176.767C372.222 176.767 372.695 176.847 373.122 177.007C373.555 177.16 373.905 177.377 374.172 177.657C374.405 177.903 374.479 178.157 374.392 178.417C374.305 178.67 374.119 178.797 373.832 178.797C373.665 178.797 373.505 178.747 373.352 178.647C373.205 178.54 373.065 178.377 372.932 178.157C372.525 178.01 372.092 177.937 371.632 177.937C370.872 177.937 370.185 178.25 369.572 178.877C368.959 179.503 368.555 180.327 368.362 181.347C368.149 182.473 368.269 183.367 368.722 184.027C369.182 184.68 369.895 185.007 370.862 185.007C371.249 185.007 371.619 184.957 371.972 184.857C372.332 184.75 372.715 184.58 373.122 184.347C373.275 184.26 373.405 184.257 373.512 184.337C373.625 184.41 373.689 184.537 373.702 184.717C373.715 184.89 373.672 185.03 373.572 185.137C373.285 185.45 372.882 185.703 372.362 185.897C371.842 186.083 371.285 186.177 370.692 186.177ZM379.398 186.137C378.578 186.137 377.951 185.92 377.518 185.487C377.091 185.047 376.858 184.383 376.818 183.497C376.784 182.89 376.808 182.14 376.888 181.247C376.974 180.347 377.108 179.363 377.288 178.297L376.428 178.347C376.201 178.36 376.018 178.32 375.878 178.227C375.744 178.127 375.678 177.98 375.678 177.787C375.678 177.46 375.918 177.253 376.398 177.167C376.518 177.147 376.678 177.127 376.878 177.107C377.078 177.08 377.291 177.057 377.518 177.037C377.591 176.643 377.668 176.267 377.748 175.907C377.834 175.54 377.918 175.21 377.998 174.917C378.064 174.683 378.154 174.51 378.268 174.397C378.381 174.283 378.531 174.227 378.718 174.227C378.931 174.227 379.088 174.313 379.188 174.487C379.288 174.66 379.301 174.903 379.228 175.217C379.141 175.597 379.071 175.917 379.018 176.177C378.971 176.43 378.924 176.677 378.878 176.917C379.331 176.883 379.804 176.857 380.298 176.837C380.798 176.817 381.184 176.807 381.458 176.807C381.918 176.807 382.148 176.987 382.148 177.347C382.148 177.5 382.101 177.627 382.008 177.727C381.914 177.82 381.771 177.88 381.578 177.907C381.364 177.933 381.038 177.97 380.598 178.017C380.158 178.057 379.508 178.11 378.648 178.177C378.454 179.323 378.318 180.333 378.238 181.207C378.158 182.073 378.134 182.783 378.168 183.337C378.201 183.937 378.318 184.36 378.518 184.607C378.724 184.853 379.054 184.977 379.508 184.977C379.914 184.977 380.428 184.85 381.048 184.597C381.208 184.53 381.344 184.53 381.458 184.597C381.571 184.663 381.628 184.777 381.628 184.937C381.628 185.137 381.564 185.297 381.438 185.417C380.924 185.897 380.244 186.137 379.398 186.137ZM383.773 177.507C383.566 177.507 383.423 177.43 383.343 177.277C383.269 177.123 383.299 176.93 383.433 176.697C383.799 176.05 384.069 175.343 384.243 174.577C384.423 173.81 384.516 172.943 384.523 171.977C384.523 171.79 384.586 171.637 384.713 171.517C384.839 171.397 384.996 171.337 385.183 171.337C385.389 171.337 385.559 171.413 385.693 171.567C385.833 171.713 385.903 171.927 385.903 172.207C385.903 173.12 385.783 174.01 385.543 174.877C385.309 175.743 384.983 176.47 384.563 177.057C384.463 177.197 384.343 177.307 384.203 177.387C384.063 177.467 383.919 177.507 383.773 177.507ZM387.393 177.607C387.199 177.607 387.056 177.527 386.963 177.367C386.869 177.2 386.866 176.997 386.953 176.757C387.219 176.03 387.419 175.323 387.553 174.637C387.686 173.95 387.779 173.093 387.833 172.067C387.839 171.873 387.906 171.717 388.033 171.597C388.159 171.47 388.316 171.407 388.503 171.407C388.716 171.407 388.893 171.49 389.033 171.657C389.173 171.823 389.239 172.053 389.233 172.347C389.219 173.173 389.123 173.98 388.943 174.767C388.763 175.547 388.503 176.297 388.163 177.017C387.969 177.41 387.713 177.607 387.393 177.607Z" fill="white"/>
<defs>
<clipPath id="clip0_282_452">
<rect width="289.629" height="77.373" fill="white" transform="translate(175.186 59)"/>
</clipPath>
<clipPath id="clip1_282_452">
<rect width="13.581" height="8.18525" fill="white" transform="matrix(1 0 0 -1 175.188 101.779)"/>
</clipPath>
<clipPath id="clip2_282_452">
<rect width="13.581" height="8.18525" fill="white" transform="matrix(1 0 0 -1 207.99 101.779)"/>
</clipPath>
<clipPath id="clip3_282_452">
<rect width="13.581" height="8.18525" fill="white" transform="matrix(1 0 0 -1 236.28 101.779)"/>
</clipPath>
<clipPath id="clip4_282_452">
<rect width="13.581" height="8.18525" fill="white" transform="matrix(1 0 0 -1 269.082 101.779)"/>
</clipPath>
</defs>
</svg>
