<svg xmlns="http://www.w3.org/2000/svg" viewBox="325.83 561.10 389.23 417.69">
  <path
    fill="rgb(255, 255, 255)"
    stroke-width="3"
    stroke="rgb(0, 0, 0)"
    stroke-miterlimit="10"
    d="M494.1,591.83a27.91,27.91,0,0,1-5.51,16.69l-44.72.43A26.72,26.72,0,0,1,438,591.83a28,28,0,1,1,56.07,0Z"
  ></path>
  <path
    fill="rgb(255, 255, 255)"
    stroke-width="3"
    stroke="rgb(0, 0, 0)"
    stroke-miterlimit="10"
    d="M575.06,591.83a27.91,27.91,0,0,1-5.51,16.69l-44.72.43A26.72,26.72,0,0,1,519,591.83a28,28,0,1,1,56.07,0Z"
  ></path>
  <path
    d="M474.05,570a3.59,3.59,0,1,0,.26,0h-.26l4.31-1.5A11.35,11.35,0,1,1,467,579.84a11.35,11.35,0,0,1,11.35-11.35"
  ></path>
  <path
    d="M555,570a3.59,3.59,0,1,0,.26,0H555l4.31-1.5A11.35,11.35,0,1,1,548,579.84a11.35,11.35,0,0,1,11.35-11.35"
  ></path>
  <path
    fill="rgb(12, 127, 153)"
    d="M460,654.22h94.76c-22.64,93.92-36.9,155.13-36.9,222.22,0,11.74,0,102.31,34.39,102.31,17.61,0,32.7-15.93,32.7-30.19,0-4.19,0-5.87-5.87-18.45-22.64-57.86-22.64-130-22.64-135.85,0-5,0-64.57,17.61-140l101.88-1.49c20.28-.64,39.13-30.82,39.13-57.66,0-18.45-24.9,14.94-64.72,14.94l-250.72-1.08c-19.28,0-27.11,1.34-35.75-7.78-15-15.87-7-28.35-7-33.38s-4.2-6.71-9.23-6.71c-5.87,0-9.66,1.11-10.9,7.55-13.38,69.44,34.63,84.74,56.17,85.61h47.8c-18.44,62.89-39.41,135.85-108.17,282.6-6.71,13.42-6.71,15.09-6.71,20.13,0,17.61,15.09,21.8,22.64,21.8,24.32,0,31-21.8,41.09-57,13.42-42.76,13.42-44.44,21.8-78L460,654.22"
  ></path>
  <path
    d="M479.8,639.43c.07,1.32,7.15,8.39,24.17,7.74,13.76-.52,16.18-2.18,19.32-8.08,0-.05,1.28-5.85,1.28-5.85-5.4.09-19.44,1.23-28.37.92-6.24-.22-14.66-.15-16.16.1"
  ></path>
</svg>
