<svg xmlns="http://www.w3.org/2000/svg" width="800" height="450" viewBox="0 0 800 450"><defs><style>.a,.b,.c,.e{fill:none;stroke-width:3px;}.a{stroke:#fff933;}.a,.b,.c,.e,.f{stroke-miterlimit:10;}.b{stroke:#58c4dd;}.c,.e{stroke:#fff;}.c{opacity:0.2;}.d,.f{fill:#fff;}.f{stroke:#232323;}.g{fill:#fff933;}.h{fill:#58c4dd;}.i{fill:#83c167;}</style></defs><rect width="800" height="450"/><line class="a" x1="721.855" y1="0.86" x2="384.935" y2="450.087"/><line class="b" x1="698.508" y1="448.508" x2="248.508" y2="-1.492"/><line class="c" x1="520" y1="101.728" x2="520" y2="450"/><line class="c" y1="270" x2="800" y2="270"/><path class="d" d="M520.2,359.625a.479.479,0,0,1,.494.406,11.775,11.775,0,0,1,.237,1.406,9.18,9.18,0,0,0,.382,1.751q1.814,5.438,7.19,5.437h27.433q6.838,0,8.78,7.547,1.94-7.547,8.335-7.547h27.773a16.441,16.441,0,0,0,2.353-.125,6.534,6.534,0,0,0,3.849-2.422,9.132,9.132,0,0,0,1.941-4.922c0-.041.011-.162.032-.359a3.378,3.378,0,0,1,.063-.421c.021-.085.054-.2.1-.345a.508.508,0,0,1,.233-.312.722.722,0,0,1,.365-.094c.552,0,.16,4.641-1.173,7.074a7.4,7.4,0,0,1-5.809,4.114q-.64.062-1.888.062H573.37a8.225,8.225,0,0,0-3.786.828,5.714,5.714,0,0,0-2.4,2.141,16.03,16.03,0,0,0-1.129,2.2,7.836,7.836,0,0,0-.477,1.8q0,.188-.033.546a2.349,2.349,0,0,1-.111.579c-.052.145-.1.292-.142.437a.659.659,0,0,1-.223.344.556.556,0,0,1-.35.125.806.806,0,0,1-.414-.094.587.587,0,0,1-.239-.344,2.921,2.921,0,0,1-.111-.516c-.021-.176-.052-.411-.1-.7s-.084-.562-.128-.812a9.082,9.082,0,0,0-2-4.172A6.283,6.283,0,0,0,557.75,371a10.663,10.663,0,0,0-1.908-.125H528.885a15.25,15.25,0,0,1-2.04-.108,7.249,7.249,0,0,1-2.134-.836,7.748,7.748,0,0,1-2.463-2.118C519.833,365.249,519.78,359.625,520.2,359.625Z"/><path class="d" d="M622,269.733a.622.622,0,0,1,.406-.66,9.3,9.3,0,0,1,1.406-.316,7.212,7.212,0,0,0,1.751-.509Q631,265.83,631,258.662V222.084q0-9.119,7.547-11.706Q631,207.792,631,199.265V162.234a29.155,29.155,0,0,0-.125-3.138,9.448,9.448,0,0,0-2.422-5.132,8.046,8.046,0,0,0-4.922-2.588c-.041,0-.162-.014-.359-.042a2.692,2.692,0,0,1-.421-.085c-.085-.028-.2-.072-.345-.13a.55.55,0,0,1-.312-.31,1.214,1.214,0,0,1-.094-.486c0-.736,4.641-.214,7.074,1.563a10.233,10.233,0,0,1,4.114,7.746q.062.853.062,2.517V198.84a14.083,14.083,0,0,0,.828,5.048,7.3,7.3,0,0,0,2.141,3.2,15.018,15.018,0,0,0,2.2,1.5,6.376,6.376,0,0,0,1.8.636,5.144,5.144,0,0,1,.546.043,1.89,1.89,0,0,1,.579.148c.145.071.292.134.437.191a.668.668,0,0,1,.344.3.908.908,0,0,1,.125.467,1.368,1.368,0,0,1-.094.551.618.618,0,0,1-.344.318,2.16,2.16,0,0,1-.516.148c-.176.029-.411.071-.7.127s-.562.113-.812.171a8.385,8.385,0,0,0-4.172,2.671,9.35,9.35,0,0,0-2.234,5.3,18.868,18.868,0,0,0-.125,2.544v35.942a27.025,27.025,0,0,1-.108,2.72,11.815,11.815,0,0,1-.836,2.846A10.1,10.1,0,0,1,630.188,267C627.624,270.223,622,270.294,622,269.733Z"/><path class="d" d="M622,359.8a.479.479,0,0,1,.406-.494,11.775,11.775,0,0,1,1.406-.237,9.18,9.18,0,0,0,1.751-.382Q631,356.872,631,351.5V324.063q0-6.838,7.547-8.78Q631,313.344,631,306.948V279.175a16.441,16.441,0,0,0-.125-2.353,6.53,6.53,0,0,0-2.422-3.849,9.132,9.132,0,0,0-4.922-1.941c-.041,0-.162-.011-.359-.032a3.378,3.378,0,0,1-.421-.063c-.085-.021-.2-.054-.345-.1a.508.508,0,0,1-.312-.233.722.722,0,0,1-.094-.365c0-.552,4.641-.16,7.074,1.173a7.4,7.4,0,0,1,4.114,5.809q.062.641.062,1.888V306.63a8.225,8.225,0,0,0,.828,3.786,5.714,5.714,0,0,0,2.141,2.4,16.03,16.03,0,0,0,2.2,1.129,7.836,7.836,0,0,0,1.8.477q.188,0,.546.033a2.349,2.349,0,0,1,.579.111c.145.052.292.1.437.142a.659.659,0,0,1,.344.223.556.556,0,0,1,.125.35.806.806,0,0,1-.094.414.587.587,0,0,1-.344.239,2.921,2.921,0,0,1-.516.111c-.176.021-.411.052-.7.095s-.562.084-.812.128a9.082,9.082,0,0,0-4.172,2,6.283,6.283,0,0,0-2.234,3.977,10.663,10.663,0,0,0-.125,1.908v26.957a15.25,15.25,0,0,1-.108,2.04,7.249,7.249,0,0,1-.836,2.134,7.748,7.748,0,0,1-2.118,2.463C627.624,360.167,622,360.22,622,359.8Z"/><line class="e" x1="520" y1="270" x2="591.895" y2="270"/><path class="d" d="M610,270c-8.519,3.161-19.09,8.555-25.642,14.268L589.519,270l-5.161-14.265C590.91,261.448,601.481,266.842,610,270Z"/><circle class="f" cx="520" cy="270" r="9"/><line class="b" x1="610" y1="270" x2="610" y2="360"/><line class="a" x1="610" y1="150" x2="610" y2="270"/><rect x="418.689" y="246.113" width="48" height="48"/><rect width="800" height="101.728"/><path class="d" d="M559.96,401.7q.563-.036,1.275-.094c.475-.038.831-.068,1.069-.093s.369-.038.393-.038c.3,0,.45.1.45.3q0,.263-2.756,11.344T557.6,424.388a3,3,0,0,0-.038.562q0,1.575,1.05,1.575a1.628,1.628,0,0,0,.75-.337,8.511,8.511,0,0,0,1.537-3.6q.226-.75.375-.788a1.1,1.1,0,0,1,.375-.037h.151c.474,0,.712.1.712.3a3.073,3.073,0,0,1-.113.6,9.763,9.763,0,0,1-2.024,4.351,3.718,3.718,0,0,1-1.2.787,4.008,4.008,0,0,1-.9.075,3.382,3.382,0,0,1-3.3-1.838,2.682,2.682,0,0,0-.188-.449c-.025-.026-.075-.013-.15.037q-.075.077-.15.15a7.682,7.682,0,0,1-3.562,2.063,7.469,7.469,0,0,1-.938.037,4.978,4.978,0,0,1-4.088-2.063,7.3,7.3,0,0,1-1.125-4.2,11.455,11.455,0,0,1,2.55-6.9,9.808,9.808,0,0,1,5.176-3.563,5.574,5.574,0,0,1,1.537-.225,3.591,3.591,0,0,1,3.15,1.575c.124.15.188.2.188.15q.036-.149,1.031-4.106t1.031-4.144a.675.675,0,0,0-.225-.6,5.65,5.65,0,0,0-1.5-.188h-.787a.985.985,0,0,1-.244-.3,3.749,3.749,0,0,1,.093-.712q.188-.713.488-.712c.025,0,.156-.013.394-.038s.574-.05,1.012-.075S559.535,401.726,559.96,401.7Zm-3.225,13.575q-.827-2.961-2.812-2.963a3.464,3.464,0,0,0-2.644,1.276,8.838,8.838,0,0,0-1.744,2.925A29.864,29.864,0,0,0,548,422.662c0,.075-.007.213-.02.413s-.018.351-.018.45a3.7,3.7,0,0,0,.581,2.175,1.956,1.956,0,0,0,1.707.825q1.986,0,4.162-2.7l.3-.413q.337-1.349,1.013-4.068T556.735,415.275Z"/><path class="d" d="M565.21,417.075a.623.623,0,0,1-.225-.413,7.15,7.15,0,0,1,1.162-2.587A6.429,6.429,0,0,1,570.572,411a6.118,6.118,0,0,1,.788-.075,4.559,4.559,0,0,1,2.419.675,4.041,4.041,0,0,1,1.594,1.687c.324-.425.524-.686.6-.787a4.152,4.152,0,0,1,3.187-1.575,3.536,3.536,0,0,1,2.494.882,2.82,2.82,0,0,1,.956,2.156,2.949,2.949,0,0,1-.656,1.949,2.156,2.156,0,0,1-1.744.788,1.652,1.652,0,0,1-1.162-.413,1.4,1.4,0,0,1-.45-1.087,2.385,2.385,0,0,1,1.875-2.362,1.478,1.478,0,0,0-.413-.263,2.141,2.141,0,0,0-1.087-.225,2.449,2.449,0,0,0-.713.075,3.924,3.924,0,0,0-2.1,2.475q-.112.3-1.088,4.181t-1.05,4.369a5.723,5.723,0,0,0-.112,1.125,1.926,1.926,0,0,0,.525,1.425,1.871,1.871,0,0,0,1.387.525,3.872,3.872,0,0,0,2.851-1.332,6.9,6.9,0,0,0,1.724-2.943q.114-.375.226-.432a1.843,1.843,0,0,1,.6-.055c.474,0,.712.1.712.3,0,.026-.025.164-.075.413a8.173,8.173,0,0,1-2.625,4.05,5.917,5.917,0,0,1-3.713,1.387,4.318,4.318,0,0,1-3.974-2.362,5.255,5.255,0,0,1-2.776,2.25,4.774,4.774,0,0,1-.974.075,3.268,3.268,0,0,1-3.075-1.537,2.9,2.9,0,0,1-.375-1.5,2.839,2.839,0,0,1,.674-1.913,2.173,2.173,0,0,1,1.726-.787,1.409,1.409,0,0,1,1.612,1.575,2.116,2.116,0,0,1-1.312,2.024l-.188.094-.187.094a.3.3,0,0,1-.113.038l-.113.037q0,.112.563.338a2.509,2.509,0,0,0,.975.187,2.768,2.768,0,0,0,2.325-1.687,28.346,28.346,0,0,0,1.462-4.875q.226-.863.488-1.913c.174-.7.306-1.238.394-1.612s.144-.6.168-.675a9.165,9.165,0,0,0,.188-1.463,2.009,2.009,0,0,0-.488-1.425,1.751,1.751,0,0,0-1.349-.525,3.913,3.913,0,0,0-2.925,1.294,7.123,7.123,0,0,0-1.726,2.981c-.049.225-.106.356-.169.394a1.79,1.79,0,0,1-.618.056Z"/><path class="d" d="M676.04,196.1q.563-.038,1.275-.094t1.069-.094c.237-.025.369-.038.393-.038.3,0,.45.1.45.3q0,.264-2.755,11.344t-2.794,11.269a3.013,3.013,0,0,0-.038.563q0,1.573,1.05,1.574a1.617,1.617,0,0,0,.75-.337,8.5,8.5,0,0,0,1.537-3.6c.151-.5.276-.762.375-.788a1.13,1.13,0,0,1,.375-.037h.151c.474,0,.712.1.712.3a3.086,3.086,0,0,1-.113.6,9.764,9.764,0,0,1-2.024,4.35,3.718,3.718,0,0,1-1.2.787,4.008,4.008,0,0,1-.9.075,3.383,3.383,0,0,1-3.3-1.837,2.737,2.737,0,0,0-.188-.45c-.025-.025-.075-.012-.15.037l-.15.15A7.673,7.673,0,0,1,667,222.24a7.272,7.272,0,0,1-.938.037,4.979,4.979,0,0,1-4.088-2.062,7.3,7.3,0,0,1-1.125-4.2,11.46,11.46,0,0,1,2.55-6.9,9.814,9.814,0,0,1,5.176-3.563,5.574,5.574,0,0,1,1.537-.225,3.593,3.593,0,0,1,3.15,1.575c.125.15.188.2.188.15q.036-.148,1.031-4.106t1.031-4.144a.676.676,0,0,0-.225-.6,5.648,5.648,0,0,0-1.5-.187H673a1.01,1.01,0,0,1-.244-.3,3.755,3.755,0,0,1,.093-.713c.125-.474.288-.712.488-.712.025,0,.156-.013.394-.038s.574-.049,1.012-.075Zm-3.225,13.574q-.825-2.961-2.812-2.962a3.463,3.463,0,0,0-2.644,1.275,8.872,8.872,0,0,0-1.744,2.925,29.937,29.937,0,0,0-1.537,6.15c0,.075-.007.212-.02.413s-.018.35-.018.449a3.7,3.7,0,0,0,.581,2.176,1.958,1.958,0,0,0,1.707.824q1.986,0,4.162-2.7l.3-.413q.338-1.35,1.013-4.069T672.815,209.677Z"/><path class="d" d="M691.6,230.94c0,.225-.224.337-.674.337h-.488l-1.05-.9q-6.75-6.15-6.75-17.85a30.24,30.24,0,0,1,1.087-8.362,20.227,20.227,0,0,1,5.663-9.488c.174-.15.375-.319.6-.506s.375-.318.45-.394h.488a.889.889,0,0,1,.562.113.323.323,0,0,1,.112.225q0,.15-.412.562-5.814,6.151-5.812,17.85t5.812,17.85Q691.6,230.789,691.6,230.94Z"/><path class="g" d="M696.477,224.565a1.6,1.6,0,0,1,1.125.413,1.4,1.4,0,0,1,.45,1.087,2.293,2.293,0,0,1-.75,1.725c-.175.174-.238.262-.188.262a12.072,12.072,0,0,0,2.25.113,4.725,4.725,0,0,0,2.25-.45,5.169,5.169,0,0,0,1.613-1.257,5.047,5.047,0,0,0,1.05-1.743q.225-.713.6-2.325a14.834,14.834,0,0,0,.487-2.1,7.44,7.44,0,0,1-3,1.537,5.583,5.583,0,0,1-.937.075,4.713,4.713,0,0,1-3.844-1.706,6.524,6.524,0,0,1-1.406-4.294,10.008,10.008,0,0,1,1.088-4.537,10.814,10.814,0,0,1,4.95-5.213,7.59,7.59,0,0,1,3.262-.825,4.339,4.339,0,0,1,3.262,1.8,1.236,1.236,0,0,0,.151-.187,1.724,1.724,0,0,1,1.575-.863,1.348,1.348,0,0,1,.862.3.925.925,0,0,1,.375.75q0,.563-2.138,9.075t-2.25,8.7a6.414,6.414,0,0,1-2.943,3.357,9.589,9.589,0,0,1-5.007,1.331q-4.312,0-5.1-1.65a1.853,1.853,0,0,1-.188-.9,2.5,2.5,0,0,1,.675-1.725A2.214,2.214,0,0,1,696.477,224.565ZM708.1,209.6a8.813,8.813,0,0,0-.582-1.5,2.864,2.864,0,0,0-.88-.957,2.446,2.446,0,0,0-1.463-.431c-.05,0-.131.006-.244.018s-.181.019-.206.019a4.786,4.786,0,0,0-2.738,1.95A15.275,15.275,0,0,0,700,213.765a17.406,17.406,0,0,0-.638,3.75q0,2.963,2.325,2.963,2.138,0,4.125-2.625l.3-.375Q707.466,212.228,708.1,209.6Z"/><path class="d" d="M724.076,230.94q0,.337-.675.337h-.487l-1.05-.9q-6.75-6.15-6.75-17.85a30.2,30.2,0,0,1,1.087-8.362,20.219,20.219,0,0,1,5.663-9.488c.174-.15.375-.319.6-.506s.375-.318.45-.394h.487a.891.891,0,0,1,.563.113.323.323,0,0,1,.112.225c0,.1-.138.287-.412.562q-5.814,6.151-5.813,17.85t5.813,17.85C723.938,230.652,724.076,230.84,724.076,230.94Z"/><path class="d" d="M728.351,211.478a.63.63,0,0,1-.224-.413,7.108,7.108,0,0,1,1.162-2.587,6.432,6.432,0,0,1,4.425-3.076,6.29,6.29,0,0,1,.788-.075,4.561,4.561,0,0,1,2.419.675,4.049,4.049,0,0,1,1.594,1.688q.486-.638.6-.788a4.158,4.158,0,0,1,3.188-1.575,3.544,3.544,0,0,1,2.494.881,2.827,2.827,0,0,1,.956,2.157,2.951,2.951,0,0,1-.656,1.95,2.16,2.16,0,0,1-1.745.788,1.654,1.654,0,0,1-1.162-.413,1.409,1.409,0,0,1-.45-1.087,2.385,2.385,0,0,1,1.875-2.363,1.494,1.494,0,0,0-.412-.262,2.131,2.131,0,0,0-1.088-.226,2.458,2.458,0,0,0-.713.075,3.931,3.931,0,0,0-2.1,2.475q-.114.3-1.088,4.181t-1.05,4.37a5.723,5.723,0,0,0-.112,1.125,1.919,1.919,0,0,0,.525,1.424,1.871,1.871,0,0,0,1.387.525,3.867,3.867,0,0,0,2.85-1.331,6.91,6.91,0,0,0,1.725-2.944q.113-.373.226-.431a1.828,1.828,0,0,1,.6-.056q.713,0,.713.3c0,.025-.025.163-.075.412a8.164,8.164,0,0,1-2.625,4.05,5.913,5.913,0,0,1-3.713,1.388,4.321,4.321,0,0,1-3.975-2.363,5.249,5.249,0,0,1-2.775,2.25,4.792,4.792,0,0,1-.975.075,3.269,3.269,0,0,1-3.075-1.537,2.9,2.9,0,0,1-.375-1.5,2.842,2.842,0,0,1,.675-1.913,2.171,2.171,0,0,1,1.726-.787,1.409,1.409,0,0,1,1.612,1.575,2.118,2.118,0,0,1-1.313,2.025l-.187.093c-.075.038-.138.07-.188.094a.277.277,0,0,1-.112.038l-.113.037c0,.076.187.188.562.338a2.514,2.514,0,0,0,.976.187,2.769,2.769,0,0,0,2.325-1.687,28.446,28.446,0,0,0,1.462-4.875q.225-.863.487-1.913t.4-1.612q.13-.562.168-.675a9.132,9.132,0,0,0,.187-1.463,2.015,2.015,0,0,0-.487-1.425,1.755,1.755,0,0,0-1.35-.525,3.914,3.914,0,0,0-2.924,1.294,7.108,7.108,0,0,0-1.726,2.981c-.05.225-.107.357-.169.394a1.814,1.814,0,0,1-.618.057Z"/><path class="d" d="M749.876,193.815l.15-.038h.824l1.051.9q6.75,6.151,6.75,17.85a29.593,29.593,0,0,1-1.088,8.326,20.222,20.222,0,0,1-5.662,9.524c-.176.15-.375.319-.6.507s-.375.318-.451.393H750.4a1.408,1.408,0,0,1-.582-.075c-.088-.05-.131-.175-.131-.375q.038-.038.412-.487,5.813-6.039,5.813-17.813T750.1,194.715c-.25-.3-.387-.463-.412-.487A.441.441,0,0,1,749.876,193.815Z"/><path class="d" d="M764.463,193.815l.15-.038h.824l1.051.9q6.75,6.151,6.75,17.85a29.593,29.593,0,0,1-1.088,8.326,20.222,20.222,0,0,1-5.662,9.524c-.176.15-.375.319-.6.507s-.375.318-.451.393h-.449a1.408,1.408,0,0,1-.582-.075c-.088-.05-.131-.175-.131-.375q.038-.038.412-.487,5.813-6.039,5.813-17.813t-5.813-17.812c-.25-.3-.387-.463-.412-.487A.441.441,0,0,1,764.463,193.815Z"/><path class="d" d="M676.04,300.193q.563-.037,1.275-.093t1.069-.094c.237-.026.369-.037.393-.037.3,0,.45.1.45.3q0,.262-2.755,11.344t-2.794,11.269a3,3,0,0,0-.038.562q0,1.575,1.05,1.576a1.641,1.641,0,0,0,.75-.338,8.511,8.511,0,0,0,1.537-3.6q.227-.75.375-.788a1.13,1.13,0,0,1,.375-.037h.151c.474,0,.712.1.712.3a3.08,3.08,0,0,1-.113.6,9.763,9.763,0,0,1-2.024,4.351,3.718,3.718,0,0,1-1.2.787,4.008,4.008,0,0,1-.9.075,3.382,3.382,0,0,1-3.3-1.838,2.741,2.741,0,0,0-.188-.449c-.025-.025-.075-.013-.15.037l-.15.151A7.679,7.679,0,0,1,667,326.331a7.469,7.469,0,0,1-.938.037,4.979,4.979,0,0,1-4.088-2.062,7.3,7.3,0,0,1-1.125-4.2,11.455,11.455,0,0,1,2.55-6.9,9.806,9.806,0,0,1,5.176-3.562,5.539,5.539,0,0,1,1.537-.226,3.591,3.591,0,0,1,3.15,1.575c.125.151.188.2.188.151q.036-.15,1.031-4.107t1.031-4.143a.677.677,0,0,0-.225-.6,5.637,5.637,0,0,0-1.5-.188H673a1.025,1.025,0,0,1-.244-.3,3.74,3.74,0,0,1,.093-.712q.188-.712.488-.713c.025,0,.156-.013.394-.037s.574-.051,1.012-.076S675.615,300.219,676.04,300.193Zm-3.225,13.576q-.825-2.963-2.812-2.963a3.463,3.463,0,0,0-2.644,1.275,8.872,8.872,0,0,0-1.744,2.925,29.928,29.928,0,0,0-1.537,6.149c0,.075-.007.213-.02.413s-.018.351-.018.451a3.694,3.694,0,0,0,.581,2.174,1.957,1.957,0,0,0,1.707.826q1.986,0,4.162-2.7l.3-.413q.338-1.349,1.013-4.068T672.815,313.769Z"/><path class="d" d="M691.6,335.03c0,.226-.224.338-.674.338h-.488l-1.05-.9q-6.75-6.15-6.75-17.85a30.235,30.235,0,0,1,1.087-8.362,20.227,20.227,0,0,1,5.663-9.488c.174-.15.375-.319.6-.506s.375-.319.45-.394h.488a.9.9,0,0,1,.562.112.327.327,0,0,1,.112.225c0,.1-.137.288-.412.563q-5.814,6.15-5.812,17.85t5.812,17.85C691.465,334.743,691.6,334.931,691.6,335.03Z"/><path class="h" d="M698.127,332.068q1.013.225,1.088.225.861,0,1.5-1.575.45-1.236,2.737-13.35,1.048-5.661,1.088-5.7v-.112h-1.763a9.945,9.945,0,0,1-1.875-.076c-.176-.1-.2-.375-.075-.825a3.155,3.155,0,0,1,.188-.6.334.334,0,0,1,.318-.206q.245-.02,1.744-.019a16.129,16.129,0,0,0,1.8-.038q0-.075.338-1.875t.45-2.175q.786-3.562,2.362-4.95a4.846,4.846,0,0,1,3.113-1.237,3.811,3.811,0,0,1,2.268.825,2.438,2.438,0,0,1,.919,1.987,2.647,2.647,0,0,1-.675,1.838,2.175,2.175,0,0,1-1.687.75q-1.652,0-1.651-1.575a2.12,2.12,0,0,1,1.313-2.026l.338-.187a3.7,3.7,0,0,0-1.125-.225q-1.089,0-1.425,1.425-.3,1.125-.976,4.912l-.487,2.476a10.714,10.714,0,0,0,2.063.075q1.688,0,2.025.037c.225.026.337.112.337.263a4.181,4.181,0,0,1-.263,1.2.366.366,0,0,1-.355.206q-.282.02-2.007.019h-2.1l-.862,4.575q-1.389,7.163-1.726,8.662-1.273,5.661-3.412,7.687a4.232,4.232,0,0,1-2.737,1.2,3.4,3.4,0,0,1-2.25-.75,2.455,2.455,0,0,1-.9-1.988,2.764,2.764,0,0,1,.674-1.893,2.155,2.155,0,0,1,1.688-.77q1.649,0,1.65,1.575a2.119,2.119,0,0,1-1.312,2.026Z"/><path class="d" d="M724.563,335.03c0,.226-.224.338-.674.338H723.4l-1.05-.9q-6.75-6.15-6.75-17.85a30.235,30.235,0,0,1,1.087-8.362,20.227,20.227,0,0,1,5.663-9.488c.174-.15.375-.319.6-.506s.375-.319.45-.394h.488a.9.9,0,0,1,.562.112.327.327,0,0,1,.112.225c0,.1-.137.288-.412.563q-5.814,6.15-5.812,17.85t5.812,17.85C724.426,334.743,724.563,334.931,724.563,335.03Z"/><path class="d" d="M728.839,315.568a.623.623,0,0,1-.225-.413,7.133,7.133,0,0,1,1.162-2.587,6.432,6.432,0,0,1,4.425-3.075,6.118,6.118,0,0,1,.788-.075,4.568,4.568,0,0,1,2.419.675A4.041,4.041,0,0,1,739,311.78c.324-.425.524-.686.6-.787a4.156,4.156,0,0,1,3.188-1.575,3.536,3.536,0,0,1,2.494.882,2.82,2.82,0,0,1,.956,2.156,2.949,2.949,0,0,1-.656,1.949,2.156,2.156,0,0,1-1.744.788,1.646,1.646,0,0,1-1.162-.413,1.4,1.4,0,0,1-.451-1.087,2.385,2.385,0,0,1,1.875-2.362,1.488,1.488,0,0,0-.412-.263,2.143,2.143,0,0,0-1.088-.225,2.446,2.446,0,0,0-.712.075,3.926,3.926,0,0,0-2.1,2.476q-.112.3-1.088,4.18t-1.05,4.369a5.723,5.723,0,0,0-.112,1.125,1.924,1.924,0,0,0,.525,1.425,1.871,1.871,0,0,0,1.387.526,3.875,3.875,0,0,0,2.851-1.332,6.924,6.924,0,0,0,1.724-2.944c.075-.25.151-.393.226-.431a1.8,1.8,0,0,1,.6-.056c.475,0,.713.1.713.3,0,.025-.025.163-.075.412a8.176,8.176,0,0,1-2.625,4.051,5.922,5.922,0,0,1-3.713,1.386,4.318,4.318,0,0,1-3.974-2.362,5.255,5.255,0,0,1-2.776,2.25,4.781,4.781,0,0,1-.974.075,3.27,3.27,0,0,1-3.076-1.537,2.9,2.9,0,0,1-.375-1.5,2.84,2.84,0,0,1,.675-1.913,2.175,2.175,0,0,1,1.726-.787,1.409,1.409,0,0,1,1.612,1.575,2.115,2.115,0,0,1-1.312,2.024l-.188.094-.187.094a.3.3,0,0,1-.113.038l-.113.037q0,.113.563.338a2.51,2.51,0,0,0,.975.188,2.769,2.769,0,0,0,2.325-1.688,28.346,28.346,0,0,0,1.462-4.875q.227-.863.488-1.913t.394-1.612c.087-.375.144-.6.168-.675a9.165,9.165,0,0,0,.188-1.463,2.014,2.014,0,0,0-.488-1.425,1.754,1.754,0,0,0-1.349-.525,3.913,3.913,0,0,0-2.925,1.294,7.112,7.112,0,0,0-1.726,2.981c-.05.225-.106.357-.169.394a1.79,1.79,0,0,1-.618.056Z"/><path class="d" d="M750.363,297.906l.151-.038h.824l1.051.9q6.75,6.15,6.75,17.85a29.622,29.622,0,0,1-1.088,8.325,20.234,20.234,0,0,1-5.662,9.525c-.176.15-.375.319-.6.507s-.375.318-.45.393h-.449a1.414,1.414,0,0,1-.583-.075c-.087-.05-.13-.175-.13-.375.024-.025.162-.188.412-.487q5.813-6.039,5.812-17.813t-5.812-17.812c-.25-.3-.388-.462-.412-.488A.439.439,0,0,1,750.363,297.906Z"/><path class="d" d="M764.951,297.906l.15-.038h.825l1.05.9q6.75,6.15,6.75,17.85a29.623,29.623,0,0,1-1.087,8.325,20.235,20.235,0,0,1-5.663,9.525q-.262.225-.6.507t-.45.393h-.45a1.412,1.412,0,0,1-.582-.075c-.088-.05-.13-.175-.13-.375.024-.025.162-.188.412-.487q5.813-6.039,5.812-17.813t-5.812-17.812c-.25-.3-.388-.462-.412-.488A.439.439,0,0,1,764.951,297.906Z"/><path class="d" d="M436.913,258.854a6.614,6.614,0,0,1,5.738-3.038,6.916,6.916,0,0,1,4.8,1.875,8.168,8.168,0,0,1,1.725,2.55,21.469,21.469,0,0,1,1.387,8.55q0,5.813-1.612,8.888a6.5,6.5,0,0,1-3.075,3.149,7.051,7.051,0,0,1-3.188.788,6.605,6.605,0,0,1-6.3-3.937q-1.614-3.075-1.613-8.888a29.109,29.109,0,0,1,.469-5.756A12.554,12.554,0,0,1,436.913,258.854Zm8.437-.451a3.457,3.457,0,0,0-2.662-1.2,3.576,3.576,0,0,0-2.7,1.2,4.522,4.522,0,0,0-1.125,2.1,23.149,23.149,0,0,0-.375,4.274q0,.226-.018,1.463t-.019,2.063q0,3.6.075,5.024a21.459,21.459,0,0,0,.449,3.77,4.276,4.276,0,0,0,1.125,1.968,3.33,3.33,0,0,0,2.588,1.125,3.284,3.284,0,0,0,2.55-1.125,4.259,4.259,0,0,0,1.125-1.968,21.435,21.435,0,0,0,.45-3.77q.075-1.423.076-5.024,0-.825-.019-2.063t-.02-1.463a22.97,22.97,0,0,0-.375-4.274A4.522,4.522,0,0,0,445.35,258.4Z"/><rect x="495.266" y="146.552" width="48" height="48"/><path class="i" d="M527.611,176.5a3.288,3.288,0,0,1,.45.019.344.344,0,0,1,.188.094.3.3,0,0,1,.074.224,3.341,3.341,0,0,1-.112.563,9.768,9.768,0,0,1-2.025,4.35,3.709,3.709,0,0,1-1.2.788,4.065,4.065,0,0,1-.9.075,3.385,3.385,0,0,1-3.3-1.838,2.682,2.682,0,0,0-.188-.449c-.025-.026-.075-.013-.15.037l-.149.15a7.689,7.689,0,0,1-3.563,2.063,7.449,7.449,0,0,1-.937.037,4.978,4.978,0,0,1-4.088-2.063,7.3,7.3,0,0,1-1.125-4.2,5.775,5.775,0,0,1,.038-.825,11.387,11.387,0,0,1,1.556-4.594,11.917,11.917,0,0,1,3.093-3.543,7.355,7.355,0,0,1,4.575-1.687,4.322,4.322,0,0,1,3.375,1.837,1.876,1.876,0,0,1,1.725-1.125,1.35,1.35,0,0,1,.863.3.929.929,0,0,1,.375.75q0,.489-1.406,6.02a57.326,57.326,0,0,0-1.406,6.206q0,1.575,1.05,1.575a1.64,1.64,0,0,0,.75-.338,8.518,8.518,0,0,0,1.537-3.6q.225-.75.375-.788a1.092,1.092,0,0,1,.375-.038Zm-13.838,1.763a3.7,3.7,0,0,0,.581,2.175,1.956,1.956,0,0,0,1.707.825,4.031,4.031,0,0,0,2.325-.9,7.857,7.857,0,0,0,1.218-1.125,6.576,6.576,0,0,0,.919-1.125q.075-.15,1.032-4.013t.956-4.162a3.175,3.175,0,0,0-.413-1.275,2.569,2.569,0,0,0-2.362-1.613,3.461,3.461,0,0,0-2.643,1.276,8.853,8.853,0,0,0-1.745,2.924,29.953,29.953,0,0,0-1.537,6.15c0,.075-.006.213-.019.413S513.773,178.167,513.773,178.267Z"/><path class="d" d="M156.839,29.989a3.094,3.094,0,0,0-1.483-.912,30.885,30.885,0,0,0-3.84-.228h-2.509v-3.5h.837q1.368.228,11.1.228,11.251,0,12.622-.228h.912v3.5h-2.052q-2.814,0-3.651.076a13.517,13.517,0,0,0-2.736.266,3.055,3.055,0,0,0-1.217.8l-.076,21.289q0,21.291.076,21.518a.785.785,0,0,0,.3.532q.458.381,5.779.38a38.928,38.928,0,0,0,7.375-.456,11.815,11.815,0,0,0,6.614-4.258,19.66,19.66,0,0,0,2.966-8.515,13.129,13.129,0,0,1,.114-1.331q.114-.95.228-1.711t.114-.836a5.81,5.81,0,0,1,1.521-.076h1.52v.38q-.151.228-1.064,10t-1.065,10v.381H149.007v-3.5h2.509a30.465,30.465,0,0,0,3.84-.228,3.078,3.078,0,0,0,1.483-.912Z"/><path class="d" d="M200.557,29.077a4.469,4.469,0,0,1,1.292-3.232,4.37,4.37,0,0,1,3.27-1.33,5.031,5.031,0,0,1,3.422,1.444q2.2,2.51,2.205,7.3A18.69,18.69,0,0,1,208.693,42a19.594,19.594,0,0,1-3.725,5.323q-1.141,1.14-1.37,1.14c-.2,0-.544-.24-1.026-.722s-.723-.8-.723-.951q0-.3.914-1.216a17.44,17.44,0,0,0,5.246-11.785c0-.608-.027-.913-.077-.913a4.862,4.862,0,0,1-.532.3,4.574,4.574,0,0,1-2.205.532,4.527,4.527,0,0,1-3.269-1.331A4.424,4.424,0,0,1,200.557,29.077Z"/><path class="d" d="M225.5,29.989a3.1,3.1,0,0,0-1.482-.912,30.918,30.918,0,0,0-3.84-.228h-2.51v-3.5h.837q1.291.228,10.948.228t10.949-.228h.836v3.5h-2.509a33.542,33.542,0,0,0-3.916.228,2.077,2.077,0,0,0-1.33.912l-.076,9.276v9.276h21.67V29.989a3.094,3.094,0,0,0-1.483-.912,30.9,30.9,0,0,0-3.84-.228h-2.509v-3.5h.837q1.291.228,10.948.228t10.949-.228h.836v3.5H268.3a33.506,33.506,0,0,0-3.916.228,2.076,2.076,0,0,0-1.331.912V72.644a2.069,2.069,0,0,0,1.331.912,33.036,33.036,0,0,0,3.916.228h2.508v3.5h-.836q-1.294-.228-10.949-.228t-10.948.228h-.837v-3.5h2.509a30.482,30.482,0,0,0,3.84-.228,3.078,3.078,0,0,0,1.483-.912V52.039H233.4V62.3l.076,10.341a2.069,2.069,0,0,0,1.33.912,33.071,33.071,0,0,0,3.916.228h2.509v3.5H240.4q-1.293-.228-10.949-.228t-10.948.228h-.837v-3.5h2.51a30.5,30.5,0,0,0,3.84-.228,3.08,3.08,0,0,0,1.482-.912Z"/><path class="d" d="M274.918,61.011a17.348,17.348,0,0,1,4.41-11.9A17,17,0,0,1,291.8,43.219a15.706,15.706,0,0,1,11.481,4.866,17.512,17.512,0,0,1,5.322,12.85,20.094,20.094,0,0,1-.379,3.573,16.192,16.192,0,0,1-4.3,8.326,16.817,16.817,0,0,1-8.174,4.752,15.713,15.713,0,0,1-3.954.456,16.036,16.036,0,0,1-4.03-.456,16.969,16.969,0,0,1-12.849-16.575Zm18.248-14.9a6.967,6.967,0,0,0-1.217-.076,10.561,10.561,0,0,0-4.334.912q-4.259,2.13-5.094,8.288-.153,1.37-.152,4.866,0,7.226,1.444,10.265A8.339,8.339,0,0,0,291.8,75q9.274,0,9.276-12.394V60.174a37.959,37.959,0,0,0-.38-6.691Q299.4,47.479,293.166,46.108Z"/><path class="d" d="M313.543,88.535h1.064q2.965,0,3.574-1.065V85.379c0-.634.011-1.381.038-2.243s.038-1.851.038-2.965V58.806q0-2.2-.038-4.068t-.038-2.966V50.594a2.521,2.521,0,0,0-1.1-1.939,8.88,8.88,0,0,0-3.383-.646h-1.369V46.26q0-1.747.152-1.748l.76-.076q.761-.075,2.2-.153t2.814-.152q1.291-.073,2.813-.19t2.281-.19c.506-.05.786-.076.836-.076h.229v1.977l.075,1.977.608-.532a17.5,17.5,0,0,1,10.494-3.346,13.815,13.815,0,0,1,2.432.152,14.63,14.63,0,0,1,8.9,5.7A17.888,17.888,0,0,1,350.5,60.858a21.812,21.812,0,0,1-.152,2.662,17.321,17.321,0,0,1-3.688,8.516,17.588,17.588,0,0,1-7.565,5.322,14.84,14.84,0,0,1-4.714.76,13.7,13.7,0,0,1-9.124-3.346l-.609-.532V80.7q0,6.615.077,6.767a1.636,1.636,0,0,0,.912.837,26.831,26.831,0,0,0,3.725.228h1.217v3.5h-.608a76.9,76.9,0,0,0-8.516-.228,76.887,76.887,0,0,0-8.516.228h-.608v-3.5Zm29.5-27.828a18.263,18.263,0,0,0-2.32-9.276q-2.319-4.029-5.664-4.639a4.568,4.568,0,0,1-.494-.038,5.433,5.433,0,0,0-.57-.038q-5.4,0-9.353,4.943V69.831q3.118,5.474,8.516,5.474a7.714,7.714,0,0,0,5.778-2.813Q343.044,68.234,343.044,60.707Z"/><path class="d" d="M371.86,77.282a64.946,64.946,0,0,0-7.907-.228,80.282,80.282,0,0,0-8.288.228h-.609v-3.5h1.217A26.7,26.7,0,0,0,360,73.556a1.636,1.636,0,0,0,.912-.836q.075-.151.076-11.025,0-11.4-.3-12.165-.609-1.521-4.486-1.521h-.836V46.26q0-1.747.152-1.748l.76-.076c.506-.05,1.217-.1,2.129-.153s1.825-.1,2.738-.152c.861-.049,1.773-.114,2.737-.19s1.7-.139,2.2-.19.785-.076.836-.076h.228V72.568a1.755,1.755,0,0,0,.912.95,11.975,11.975,0,0,0,2.662.266h1.749v3.5Zm-8.82-50.866a4.894,4.894,0,0,1,3.118,1.33,4.3,4.3,0,0,1,1.216,3.232,4.068,4.068,0,0,1-2.053,3.877,4.167,4.167,0,0,1-2.432.685,4.3,4.3,0,0,1-2.51-.685,4.07,4.07,0,0,1-2.053-3.877,4.3,4.3,0,0,1,1.331-3.346A4.823,4.823,0,0,1,363.04,26.416Z"/><path class="d" d="M384.937,31.662V30.521h3.041V44.512h10.265v3.5H387.978V58.958q.075,9.5.115,10.758a6.956,6.956,0,0,0,.494,2.4q1.063,2.965,3.725,2.966,3.346,0,4.106-5.4.077-.608.076-3.5V63.52h3.042v2.661a23.15,23.15,0,0,1-.381,5.018,10.423,10.423,0,0,1-2.85,4.942,7.391,7.391,0,0,1-5.285,1.9,8.665,8.665,0,0,1-9.352-8.364q-.077-.531-.076-11.252V48.009h-6.007V45.2h.684a7.007,7.007,0,0,0,4.79-2.433Q384.555,39.114,384.937,31.662Z"/><path class="d" d="M415.54,52.875a3.909,3.909,0,0,1-2.927,1.217,3.786,3.786,0,0,1-2.89-1.217,4.078,4.078,0,0,1-1.14-2.889,6.1,6.1,0,0,1,.608-2.433,6.8,6.8,0,0,1,3.954-3.194,20.192,20.192,0,0,1,7.223-1.14,16.212,16.212,0,0,1,8.706,2.281,10.648,10.648,0,0,1,4.828,5.931,7.79,7.79,0,0,1,.418,2.4q.038,1.331.038,8.7,0,7.453.038,8.706a4.309,4.309,0,0,0,.418,1.939,1.562,1.562,0,0,0,1.521,1.064,1.515,1.515,0,0,0,1.444-1.064,11.624,11.624,0,0,0,.457-4.182V66.257h3.041v2.965a24.028,24.028,0,0,1-.228,3.574,7.138,7.138,0,0,1-2.509,3.536,6.89,6.89,0,0,1-4.334,1.406,4.93,4.93,0,0,1-3.384-1.331,6.681,6.681,0,0,1-2.015-3.231v-.3q-.226.228-.912,1.026t-.988,1.1a13.1,13.1,0,0,1-8.668,3.117,14.718,14.718,0,0,1-7.071-1.673,8.559,8.559,0,0,1-4.182-4.409,7.385,7.385,0,0,1-.608-2.89,9.081,9.081,0,0,1,2.966-6.539,14.087,14.087,0,0,1,4.334-2.889,37.184,37.184,0,0,1,13.229-2.813h1.065V55.232a11.636,11.636,0,0,0-.457-3.8,7.259,7.259,0,0,0-7.375-5.4q-5.1,0-5.094.609a3.793,3.793,0,0,1,1.673,3.345A4.01,4.01,0,0,1,415.54,52.875Zm12.432,11.1q0-4.409-.077-4.41a.854.854,0,0,0-.38.076Q417.1,60.326,414.21,65.8a6.967,6.967,0,0,0-.837,3.421,5.758,5.758,0,0,0,1.825,4.334,6.229,6.229,0,0,0,4.485,1.749,7.819,7.819,0,0,0,5.209-1.825,8.513,8.513,0,0,0,2.851-4.486A41.839,41.839,0,0,0,427.972,63.976Z"/><path class="d" d="M445,73.784h1.064q2.965,0,3.573-1.064V70.363q0-1.065.039-2.509t.038-3.308V40.634q0-2.51-.038-4.6t-.039-3.307V31.434a2.512,2.512,0,0,0-1.1-1.939,8.876,8.876,0,0,0-3.383-.646h-1.369V27.1q0-1.748.152-1.749l.761-.076q.759-.075,2.2-.152t2.814-.152q1.291-.075,2.813-.19t2.281-.19c.506-.05.786-.076.836-.076h.229v23.95q0,24.1.076,24.255a1.627,1.627,0,0,0,.912.836,26.692,26.692,0,0,0,3.726.228h1.216v3.5H461.2a81.543,81.543,0,0,0-8.364-.228,75.689,75.689,0,0,0-8.44.228h-.608v-3.5Z"/><path class="d" d="M468.878,29.077a4.465,4.465,0,0,1,1.292-3.232,4.366,4.366,0,0,1,3.269-1.33,5.029,5.029,0,0,1,3.422,1.444q2.205,2.51,2.2,7.3A18.689,18.689,0,0,1,477.014,42a19.6,19.6,0,0,1-3.726,5.323q-1.142,1.14-1.369,1.14-.3,0-1.027-.722c-.482-.481-.722-.8-.722-.951q0-.3.913-1.216a17.435,17.435,0,0,0,5.246-11.785c0-.608-.026-.913-.076-.913a4.958,4.958,0,0,1-.532.3,4.58,4.58,0,0,1-2.206.532,4.527,4.527,0,0,1-3.269-1.331A4.423,4.423,0,0,1,468.878,29.077Z"/><path class="d" d="M498.53,45.8q-7,0-6.995,4.942a3.446,3.446,0,0,0,.152,1.293,4.552,4.552,0,0,0,2.357,2.623,23.123,23.123,0,0,0,5.171,1.483,20.543,20.543,0,0,1,5.93,1.672,11.017,11.017,0,0,1,6.159,7.528,14.048,14.048,0,0,1,.076,1.824,12.289,12.289,0,0,1-1.065,5.247q-2.964,5.627-11.176,5.626a12.1,12.1,0,0,1-7.908-2.737l-.608.532-.685.684c-.3.3-.608.583-.912.837l-.837.76h-.608a1.379,1.379,0,0,1-.988-.456V71.655q0-4.941.038-5.7t.342-.912a4.845,4.845,0,0,1,1.216-.077,2.559,2.559,0,0,1,1.179.152,2.476,2.476,0,0,1,.418,1.065,17.514,17.514,0,0,0,1.978,5.246,8.458,8.458,0,0,0,7.375,3.878q7.374,0,7.375-5.93a4.835,4.835,0,0,0-1.369-3.574,6.607,6.607,0,0,0-3.193-2.053q-1.294-.3-3.65-.836a26.165,26.165,0,0,1-5.779-1.6q-5.018-2.356-5.854-7.071a5.545,5.545,0,0,1-.076-1.141q0-8.742,10.72-9.808a4.936,4.936,0,0,1,1.826,0,11.754,11.754,0,0,1,5.322,1.141l1.14.608.684-.532a19.017,19.017,0,0,1,1.673-1.293h.608a1.381,1.381,0,0,1,.989.456V53.711l-.457.456H506.97a1.31,1.31,0,0,1-.456-.912,7.105,7.105,0,0,0-2.129-5.474A8.271,8.271,0,0,0,498.53,45.8Z"/><path class="d" d="M535.786,73.784h1.064q2.965,0,3.574-1.064v-.609c0-.456.011-1.038.038-1.748s.038-1.508.038-2.395V52.343l-.076-1.749a2.521,2.521,0,0,0-1.1-1.939,8.88,8.88,0,0,0-3.383-.646h-1.369V46.26q0-1.747.153-1.748l.759-.076q.761-.075,2.129-.153t2.738-.152c.81-.049,1.7-.114,2.661-.19s1.7-.139,2.205-.19.785-.076.837-.076h.227v5.246a13.5,13.5,0,0,1,3.194-3.8,7.317,7.317,0,0,1,4.638-1.369,7.483,7.483,0,0,1,3.65.836,4.728,4.728,0,0,1,2.964,4.334,3.7,3.7,0,0,1-1.14,2.776,3.8,3.8,0,0,1-2.736,1.1,3.735,3.735,0,0,1-2.7-1.064,3.637,3.637,0,0,1-1.1-2.737,3.525,3.525,0,0,1,.607-2.129,1.307,1.307,0,0,0,.153-.381q-.153-.151-1.75.3a8.993,8.993,0,0,0-1.824,1.141q-3.042,2.89-3.5,9.58v2.966q-.077,2.964-.075,5.094v2.091q0,1.1.037,1.939t.038,1.52v1.521a1.357,1.357,0,0,0,.913.76,16.065,16.065,0,0,0,4.03.38h2.357v3.5h-.685q-1.368-.228-9.656-.228a78.254,78.254,0,0,0-8.515.228h-.609v-3.5Z"/><path class="d" d="M570.838,44.131q1.292-.073,2.813-.19t2.319-.19c.532-.05.824-.076.875-.076h.227V57.437q.077,13.99.152,14.446a4.12,4.12,0,0,0,1.141,2.357,7.967,7.967,0,0,0,4.562,1.065,8.33,8.33,0,0,0,3.574-.684q4.407-2.128,5.17-8.288c0-.05.011-.481.038-1.292s.038-1.837.038-3.08V51.811l-.076-1.217a2.521,2.521,0,0,0-1.1-1.939,8.88,8.88,0,0,0-3.383-.646h-1.369v-3.5q.151,0,5.817-.381t5.968-.456h.533V57.209q0,13.686.076,13.914a2.581,2.581,0,0,0,1.1,2.015,8.838,8.838,0,0,0,3.384.646h1.368v3.5q-.153,0-5.7.38t-5.854.456h-.533V72.872q-3.192,3.877-6.159,4.638a12.105,12.105,0,0,1-4.029.532q-4.868,0-7.527-1.787a8.439,8.439,0,0,1-3.422-5.74q-.076-.531-.153-10.417-.075-8.286-.113-9.276a3.232,3.232,0,0,0-.419-1.6q-.761-1.215-4.561-1.217h-.837V46.26q0-1.747.152-1.748l.837-.076q.759-.075,2.2-.153T570.838,44.131Z"/><path class="d" d="M608.322,73.784h1.065q2.964,0,3.573-1.064V70.363q0-1.065.038-2.509t.038-3.308V40.634q0-2.51-.038-4.6t-.038-3.307V31.434a2.515,2.515,0,0,0-1.1-1.939,8.876,8.876,0,0,0-3.383-.646h-1.369V27.1q0-1.748.153-1.749l.76-.076q.759-.075,2.2-.152t2.813-.152q1.292-.075,2.813-.19t2.282-.19c.506-.05.785-.076.836-.076h.228v23.95q0,24.1.076,24.255a1.63,1.63,0,0,0,.912.836,26.692,26.692,0,0,0,3.726.228h1.217v3.5h-.609a81.543,81.543,0,0,0-8.364-.228,75.65,75.65,0,0,0-8.439.228h-.609v-3.5Z"/><path class="d" d="M657.819,58.654a1.534,1.534,0,0,1-.532,1.064H635.846v1.14q0,5.628,1.52,8.517Q640.1,75,646.795,75a7.089,7.089,0,0,0,5.473-2.433,10.163,10.163,0,0,0,2.358-3.954,2.684,2.684,0,0,1,.456-1.065,1.988,1.988,0,0,1,1.217-.228c1.013,0,1.52.255,1.52.761a3.614,3.614,0,0,1-.228.988,14.622,14.622,0,0,1-4.6,6.5,11.888,11.888,0,0,1-7.718,2.547,17.333,17.333,0,0,1-3.344-.38,15.778,15.778,0,0,1-7.756-3.954,17.888,17.888,0,0,1-5.779-13.077A17.631,17.631,0,0,1,632.5,48.883,15.46,15.46,0,0,1,642.612,43.3a5.086,5.086,0,0,1,1.065-.076q6.918,0,10.531,4.068T657.819,58.654Zm-6.234-2.281q-.684-8.288-5.627-10.037a5.242,5.242,0,0,0-1.6-.3,7.563,7.563,0,0,0-6.463,3.65,15.982,15.982,0,0,0-1.976,6.767v.532h15.663Z"/><path class="d" d="M287.894,28.026l4.485-4.334.609.609q9.883,9.429,9.884,9.58-.456.532-.989,1.14l-.988,1.065q-.3-.151-4.41-3.8l-4.029-3.5-4.181,3.573q-.991.838-2.016,1.749T284.7,35.553l-.608.457q-.153.153-1.14-1.065l-.989-1.064.76-.761Q285.461,30.383,287.894,28.026Z"/><rect x="35" y="180" width="330" height="180"/><path class="d" d="M174.6,265.409a1.1,1.1,0,0,1,.7-1h32.012a1.1,1.1,0,0,1,.754,1,1.139,1.139,0,0,1-.7.955l-15.98.05H175.406A1,1,0,0,1,174.6,265.409Zm0,9.75a1,1,0,0,1,.8-1.006h31.962a1.746,1.746,0,0,0,.227.176,2.38,2.38,0,0,1,.251.2.859.859,0,0,1,.15.252.934.934,0,0,1,.076.377,1.1,1.1,0,0,1-.754,1H175.306A1.093,1.093,0,0,1,174.6,275.159Z"/><path class="d" d="M61.87,263.143h.841q2.338,0,2.819-.84v-1.861q0-.839.03-1.98t.031-2.609V236.982q0-1.98-.031-3.629t-.03-2.611v-1.02a1.986,1.986,0,0,0-.87-1.53,7.029,7.029,0,0,0-2.67-.51H60.91V226.3c0-.919.04-1.38.12-1.38l.6-.06q.6-.058,1.739-.12t2.221-.119q1.019-.06,2.219-.151t1.8-.15c.4-.039.62-.06.66-.06h.18v18.9q0,19.021.061,19.141a1.282,1.282,0,0,0,.719.659,21.043,21.043,0,0,0,2.941.181h.96V265.9H74.65a64.419,64.419,0,0,0-6.6-.179,59.855,59.855,0,0,0-6.661.179h-.48v-2.759Z"/><path class="d" d="M90.85,265.9a51.369,51.369,0,0,0-6.24-.179,63.466,63.466,0,0,0-6.54.179h-.48v-2.759h.96a21.038,21.038,0,0,0,2.94-.181,1.29,1.29,0,0,0,.72-.659q.06-.12.06-8.7,0-9-.24-9.6-.48-1.2-3.54-1.2h-.66v-1.38q0-1.381.12-1.381l.6-.06c.4-.039.961-.079,1.68-.12s1.44-.079,2.16-.12q1.02-.058,2.16-.15t1.74-.15c.4-.039.62-.06.66-.06h.18v22.8a1.39,1.39,0,0,0,.72.75,9.558,9.558,0,0,0,2.1.21h1.38V265.9Zm-6.96-40.14a3.864,3.864,0,0,1,2.46,1.05,3.39,3.39,0,0,1,.96,2.55,3.212,3.212,0,0,1-1.62,3.06,3.294,3.294,0,0,1-1.92.54,3.4,3.4,0,0,1-1.98-.54,3.212,3.212,0,0,1-1.62-3.06,3.4,3.4,0,0,1,1.051-2.64A3.8,3.8,0,0,1,83.89,225.762Z"/><path class="d" d="M103.991,262.3q.479.84,2.819.84h1.8V265.9h-.48a60.809,60.809,0,0,0-6.72-.179,60.782,60.782,0,0,0-6.72.179h-.48v-2.759h1.8q2.34,0,2.82-.84v-1.861q0-.839.03-1.889t.029-2.341v-2.489q0-1.86-.029-3.991t-.03-3.509v-1.38a1.987,1.987,0,0,0-.87-1.531,7.014,7.014,0,0,0-2.67-.509h-1.08v-1.38c0-.921.039-1.381.12-1.381l.6-.06q.6-.058,1.709-.12t2.191-.12q1.02-.058,2.16-.15c.759-.06,1.34-.11,1.739-.15s.62-.06.66-.06h.181v2.4a16.289,16.289,0,0,0,.06,2.28l.06-.06a10.554,10.554,0,0,1,9.18-4.62q5.819.18,7.14,4.56l.12.3q1.44-1.8,1.62-1.979a10.085,10.085,0,0,1,7.139-2.881q7.5,0,8.221,6.78.059.42.06,8.34,0,7.681.059,7.8a1.286,1.286,0,0,0,.721.659,21.023,21.023,0,0,0,2.939.181h.96V265.9h-.479a60.809,60.809,0,0,0-6.72-.179,60.782,60.782,0,0,0-6.72.179h-.48v-2.759h1.439q3.182,0,3.181-.96.059-.12.06-8.281-.06-8.1-.12-8.58a5.31,5.31,0,0,0-1.35-2.79,4.058,4.058,0,0,0-2.851-.87,6.505,6.505,0,0,0-4.739,2.04,8.586,8.586,0,0,0-2.46,5.28c0,.04-.011.411-.03,1.111s-.03,1.59-.03,2.67v6.719c0,.521.009.991.03,1.411s.03.77.03,1.049v.361q.48.84,2.82.84h1.8V265.9h-.479a60.809,60.809,0,0,0-6.72-.179,60.821,60.821,0,0,0-6.721.179h-.479v-2.759h1.439q3.18,0,3.181-.96.059-.12.06-8.281-.06-8.1-.121-8.58a5.3,5.3,0,0,0-1.349-2.79,4.057,4.057,0,0,0-2.85-.87,6.5,6.5,0,0,0-4.74,2.04,8.591,8.591,0,0,0-2.46,5.28v1.111q0,1.05-.03,2.67t-.03,3.059v1.89c0,.66.009,1.251.03,1.77s.03.991.03,1.411v1.41Z"/><path class="i" d="M54.22,295.788a.747.747,0,0,1-.27-.494,8.53,8.53,0,0,1,1.392-3.1,7.692,7.692,0,0,1,5.294-3.679,7.3,7.3,0,0,1,.942-.09,5.452,5.452,0,0,1,2.895.808,4.836,4.836,0,0,1,1.907,2.019c.387-.508.628-.822.718-.943a4.972,4.972,0,0,1,3.813-1.884,4.231,4.231,0,0,1,2.984,1.054,3.377,3.377,0,0,1,1.144,2.58,3.52,3.52,0,0,1-.785,2.333,2.578,2.578,0,0,1-2.086.943,1.979,1.979,0,0,1-1.392-.493,1.685,1.685,0,0,1-.538-1.3,2.853,2.853,0,0,1,2.243-2.826,1.789,1.789,0,0,0-.493-.315,2.567,2.567,0,0,0-1.3-.269,2.925,2.925,0,0,0-.852.09,4.7,4.7,0,0,0-2.513,2.962q-.133.359-1.3,5t-1.256,5.228a6.9,6.9,0,0,0-.134,1.346,2.3,2.3,0,0,0,.628,1.7,2.24,2.24,0,0,0,1.66.628,4.633,4.633,0,0,0,3.41-1.593,8.259,8.259,0,0,0,2.063-3.523c.09-.3.18-.47.27-.515a2.171,2.171,0,0,1,.718-.068c.568,0,.852.121.852.36,0,.03-.03.194-.09.493A9.755,9.755,0,0,1,71,307.1a7.077,7.077,0,0,1-4.443,1.66,5.169,5.169,0,0,1-4.755-2.826,6.294,6.294,0,0,1-3.321,2.692,5.731,5.731,0,0,1-1.167.089,3.908,3.908,0,0,1-3.678-1.839,3.467,3.467,0,0,1-.45-1.795A3.4,3.4,0,0,1,54,302.787a2.6,2.6,0,0,1,2.064-.941,1.685,1.685,0,0,1,1.929,1.883,2.53,2.53,0,0,1-1.57,2.423l-.224.113-.224.112a.356.356,0,0,1-.135.045l-.135.045c0,.09.225.224.673.4a3,3,0,0,0,1.167.224q1.615,0,2.782-2.019a34.028,34.028,0,0,0,1.75-5.833q.268-1.032.583-2.289t.471-1.929c.1-.449.172-.717.2-.807a11.048,11.048,0,0,0,.225-1.75,2.415,2.415,0,0,0-.583-1.705,2.1,2.1,0,0,0-1.617-.629,4.683,4.683,0,0,0-3.5,1.549,8.505,8.505,0,0,0-2.064,3.566q-.092.4-.2.472a2.165,2.165,0,0,1-.74.067Z"/><path class="d" d="M81.141,297.044a.979.979,0,0,1,.628-.9H116.1a16.738,16.738,0,0,1-4.936-5.743,14.444,14.444,0,0,1-1.481-4.262.74.74,0,0,0-.023-.18.61.61,0,0,1-.022-.134c0-.329.3-.494.9-.494a1.383,1.383,0,0,1,.695.112.869.869,0,0,1,.247.516,8.772,8.772,0,0,0,.5,1.84,13.769,13.769,0,0,0,3.275,5.362,13.29,13.29,0,0,0,5.339,3.388.5.5,0,0,1,0,.987,13.29,13.29,0,0,0-5.339,3.388,13.78,13.78,0,0,0-3.275,5.361,16.439,16.439,0,0,0-.5,1.8.937.937,0,0,1-.247.562,1.386,1.386,0,0,1-.695.111q-.942,0-.942-.493a9.078,9.078,0,0,1,.269-1.122,15.967,15.967,0,0,1,6.238-9.2H81.769A.975.975,0,0,1,81.141,297.044Z"/><path class="i" d="M146.7,301.4a4.02,4.02,0,0,1,.539.023.416.416,0,0,1,.224.112.374.374,0,0,1,.09.27,4.052,4.052,0,0,1-.135.673,11.7,11.7,0,0,1-2.423,5.2,4.474,4.474,0,0,1-1.435.942,4.8,4.8,0,0,1-1.078.089,4.048,4.048,0,0,1-3.948-2.2,3.382,3.382,0,0,0-.224-.538c-.031-.03-.09-.015-.18.045l-.179.178a9.185,9.185,0,0,1-4.263,2.469,8.877,8.877,0,0,1-1.122.044,5.951,5.951,0,0,1-4.89-2.468,8.722,8.722,0,0,1-1.347-5.025,7.094,7.094,0,0,1,.045-.987,13.647,13.647,0,0,1,1.862-5.5,14.278,14.278,0,0,1,3.7-4.24,8.8,8.8,0,0,1,5.474-2.019,5.172,5.172,0,0,1,4.038,2.2,2.246,2.246,0,0,1,2.065-1.347,1.606,1.606,0,0,1,1.032.36,1.1,1.1,0,0,1,.448.9q0,.583-1.683,7.2a68.334,68.334,0,0,0-1.682,7.427q0,1.884,1.257,1.884a1.952,1.952,0,0,0,.9-.4q.942-.9,1.839-4.307.27-.9.449-.943a1.333,1.333,0,0,1,.448-.045Zm-16.556,2.11a4.426,4.426,0,0,0,.7,2.6,2.335,2.335,0,0,0,2.041.987,4.818,4.818,0,0,0,2.782-1.076,9.472,9.472,0,0,0,1.458-1.347,7.971,7.971,0,0,0,1.1-1.346q.089-.179,1.234-4.8t1.144-4.981a3.785,3.785,0,0,0-.494-1.525,3.076,3.076,0,0,0-2.827-1.93,4.148,4.148,0,0,0-3.163,1.526,10.6,10.6,0,0,0-2.086,3.5,35.819,35.819,0,0,0-1.84,7.359c0,.089-.007.254-.022.493S130.14,303.387,130.14,303.506Z"/><path class="h" d="M251.879,251.243c.905.2,1.39.3,1.458.3q1.154,0,2.01-2.11.6-1.659,3.668-17.891,1.407-7.587,1.458-7.638v-.151H258.11a13.575,13.575,0,0,1-2.512-.1q-.353-.2-.1-1.106a4.293,4.293,0,0,1,.251-.8.453.453,0,0,1,.427-.277q.325-.024,2.337-.025a21.648,21.648,0,0,0,2.412-.05q0-.1.452-2.513t.6-2.914q1.054-4.774,3.166-6.634a6.5,6.5,0,0,1,4.171-1.658,5.125,5.125,0,0,1,3.041,1.1,3.268,3.268,0,0,1,1.231,2.664,3.542,3.542,0,0,1-.9,2.462,2.911,2.911,0,0,1-2.261,1q-2.213,0-2.211-2.11a2.838,2.838,0,0,1,1.759-2.714l.452-.252a4.991,4.991,0,0,0-1.508-.3q-1.458,0-1.909,1.91-.4,1.507-1.307,6.583l-.653,3.317a14.373,14.373,0,0,0,2.763.1q2.262,0,2.714.051c.3.033.452.151.452.351a5.612,5.612,0,0,1-.351,1.609.493.493,0,0,1-.478.276q-.377.025-2.688.025h-2.815l-1.155,6.131q-1.86,9.6-2.311,11.609-1.71,7.587-4.574,10.3a5.671,5.671,0,0,1-3.669,1.607,4.55,4.55,0,0,1-3.015-1,3.292,3.292,0,0,1-1.206-2.663,3.711,3.711,0,0,1,.905-2.538,2.883,2.883,0,0,1,2.261-1.03q2.211,0,2.212,2.11a2.837,2.837,0,0,1-1.76,2.714Z"/><path class="d" d="M287.307,255.213c0,.3-.3.452-.9.452h-.653l-1.407-1.206q-9.046-8.243-9.046-23.92a40.469,40.469,0,0,1,1.458-11.207,27.093,27.093,0,0,1,7.588-12.715c.234-.2.5-.427.8-.678s.5-.427.6-.528h.653a1.189,1.189,0,0,1,.754.151.432.432,0,0,1,.15.3q0,.2-.552.754-7.791,8.243-7.789,23.922t7.789,23.92Q287.307,255.011,287.307,255.213Z"/><path class="d" d="M293.037,229.131a.835.835,0,0,1-.3-.552,9.573,9.573,0,0,1,1.558-3.468,8.615,8.615,0,0,1,5.93-4.121,8.173,8.173,0,0,1,1.055-.1,6.1,6.1,0,0,1,3.241.9,5.4,5.4,0,0,1,2.137,2.262q.652-.855.8-1.056a5.566,5.566,0,0,1,4.271-2.11,4.739,4.739,0,0,1,3.342,1.181,3.776,3.776,0,0,1,1.281,2.889,3.943,3.943,0,0,1-.879,2.613,2.887,2.887,0,0,1-2.336,1.056,2.211,2.211,0,0,1-1.558-.553,1.882,1.882,0,0,1-.6-1.457,3.194,3.194,0,0,1,2.513-3.166,1.991,1.991,0,0,0-.553-.352,2.865,2.865,0,0,0-1.457-.3,3.278,3.278,0,0,0-.955.1,5.263,5.263,0,0,0-2.814,3.317q-.151.4-1.457,5.6t-1.407,5.855a7.627,7.627,0,0,0-.151,1.507,2.581,2.581,0,0,0,.7,1.91,2.509,2.509,0,0,0,1.86.7,5.185,5.185,0,0,0,3.819-1.784,9.263,9.263,0,0,0,2.312-3.945c.1-.334.2-.527.3-.578a2.454,2.454,0,0,1,.8-.075q.956,0,.955.4c0,.034-.033.219-.1.553a10.931,10.931,0,0,1-3.517,5.427,7.927,7.927,0,0,1-4.976,1.859,5.788,5.788,0,0,1-5.326-3.165,7.045,7.045,0,0,1-3.72,3.015,6.49,6.49,0,0,1-1.306.1,4.378,4.378,0,0,1-4.12-2.06,3.88,3.88,0,0,1-.5-2.01,3.8,3.8,0,0,1,.9-2.563,2.913,2.913,0,0,1,2.313-1.055,1.888,1.888,0,0,1,2.16,2.11,2.836,2.836,0,0,1-1.759,2.714l-.251.126-.251.125a.4.4,0,0,1-.151.05l-.151.051q0,.15.754.452a3.353,3.353,0,0,0,1.307.251q1.809,0,3.115-2.261a38.107,38.107,0,0,0,1.96-6.533q.3-1.157.653-2.563t.529-2.161c.116-.5.192-.8.225-.9a12.36,12.36,0,0,0,.252-1.96,2.7,2.7,0,0,0-.653-1.91,2.351,2.351,0,0,0-1.81-.7,5.248,5.248,0,0,0-3.92,1.734,9.526,9.526,0,0,0-2.311,4q-.1.453-.227.528a2.435,2.435,0,0,1-.829.075Z"/><path class="d" d="M321.883,205.461l.2-.05h1.106l1.408,1.206q9.045,8.243,9.044,23.922a39.624,39.624,0,0,1-1.457,11.155,27.111,27.111,0,0,1-7.587,12.765c-.236.2-.5.427-.805.679s-.5.426-.6.527h-.6a1.869,1.869,0,0,1-.78-.1q-.175-.1-.175-.5.05-.051.552-.653,7.791-8.091,7.79-23.87t-7.79-23.872q-.5-.6-.552-.653A.592.592,0,0,1,321.883,205.461Z"/><path class="g" d="M250.466,329.168a1.909,1.909,0,0,1,1.345.494,1.677,1.677,0,0,1,.539,1.3,2.743,2.743,0,0,1-.9,2.064q-.315.314-.225.314a14.436,14.436,0,0,0,2.693.135,5.667,5.667,0,0,0,2.692-.538,6.223,6.223,0,0,0,1.93-1.5,6.078,6.078,0,0,0,1.256-2.087q.269-.853.717-2.783a17.7,17.7,0,0,0,.583-2.512,8.947,8.947,0,0,1-3.588,1.84,6.818,6.818,0,0,1-1.122.089,5.634,5.634,0,0,1-4.6-2.042,7.805,7.805,0,0,1-1.684-5.137,11.987,11.987,0,0,1,1.3-5.429,12.943,12.943,0,0,1,5.923-6.237,9.073,9.073,0,0,1,3.9-.988,5.2,5.2,0,0,1,3.905,2.155,1.537,1.537,0,0,0,.179-.225,2.063,2.063,0,0,1,1.884-1.032,1.607,1.607,0,0,1,1.032.359,1.106,1.106,0,0,1,.449.9q0,.672-2.557,10.858t-2.693,10.41a7.682,7.682,0,0,1-3.522,4.016,11.476,11.476,0,0,1-5.99,1.593q-5.161,0-6.1-1.975a2.219,2.219,0,0,1-.224-1.076,3,3,0,0,1,.808-2.065A2.652,2.652,0,0,1,250.466,329.168Zm13.91-17.9a10.573,10.573,0,0,0-.7-1.794,3.441,3.441,0,0,0-1.054-1.145,2.924,2.924,0,0,0-1.75-.516c-.061,0-.157.007-.292.022s-.217.022-.247.022a5.73,5.73,0,0,0-3.276,2.334,18.267,18.267,0,0,0-2.378,6.058,20.831,20.831,0,0,0-.762,4.486q0,3.546,2.782,3.545,2.558,0,4.936-3.14l.358-.449Q263.613,314.406,264.376,311.265Z"/><path class="d" d="M285.282,338.094q0,.453-.9.452h-.654l-1.407-1.206q-9.045-8.242-9.046-23.921a40.516,40.516,0,0,1,1.458-11.207,27.1,27.1,0,0,1,7.588-12.714q.353-.3.805-.679c.3-.251.5-.426.6-.527h.654a1.2,1.2,0,0,1,.754.15.438.438,0,0,1,.15.3q0,.2-.553.754-7.789,8.243-7.789,23.921t7.789,23.921Q285.283,337.892,285.282,338.094Z"/><path class="d" d="M291.012,312.012a.833.833,0,0,1-.3-.553,9.574,9.574,0,0,1,1.557-3.468,8.62,8.62,0,0,1,5.931-4.121,8.344,8.344,0,0,1,1.055-.1,6.1,6.1,0,0,1,3.241.905,5.408,5.408,0,0,1,2.137,2.261c.434-.569.7-.921.8-1.055a5.57,5.57,0,0,1,4.272-2.111,4.741,4.741,0,0,1,3.342,1.181,3.78,3.78,0,0,1,1.281,2.89,3.945,3.945,0,0,1-.879,2.613,2.891,2.891,0,0,1-2.337,1.055,2.209,2.209,0,0,1-1.557-.553,1.879,1.879,0,0,1-.6-1.457,3.2,3.2,0,0,1,2.513-3.166,2.07,2.07,0,0,0-.553-.352,2.866,2.866,0,0,0-1.457-.3,3.317,3.317,0,0,0-.955.1,5.264,5.264,0,0,0-2.815,3.317q-.15.4-1.457,5.6t-1.407,5.855a7.709,7.709,0,0,0-.15,1.507,2.58,2.58,0,0,0,.7,1.911,2.516,2.516,0,0,0,1.859.7,5.191,5.191,0,0,0,3.82-1.784,9.266,9.266,0,0,0,2.311-3.945c.1-.335.2-.528.3-.578a2.421,2.421,0,0,1,.8-.075q.954,0,.955.4c0,.034-.034.219-.1.553a10.933,10.933,0,0,1-3.518,5.428,7.924,7.924,0,0,1-4.975,1.859,5.79,5.79,0,0,1-5.326-3.166,7.043,7.043,0,0,1-3.72,3.016,6.5,6.5,0,0,1-1.307.1,4.38,4.38,0,0,1-4.12-2.06,3.884,3.884,0,0,1-.5-2.011,3.8,3.8,0,0,1,.9-2.562,2.906,2.906,0,0,1,2.312-1.056,1.888,1.888,0,0,1,2.16,2.11,2.836,2.836,0,0,1-1.759,2.714l-.25.126-.251.126a.4.4,0,0,1-.152.05l-.15.051c0,.1.251.251.754.452a3.351,3.351,0,0,0,1.306.251q1.809,0,3.116-2.262a38.039,38.039,0,0,0,1.96-6.533q.3-1.155.653-2.563t.528-2.161c.116-.5.193-.8.226-.9a12.333,12.333,0,0,0,.252-1.96,2.7,2.7,0,0,0-.654-1.91,2.348,2.348,0,0,0-1.809-.7,5.249,5.249,0,0,0-3.92,1.733,9.528,9.528,0,0,0-2.312,4c-.067.3-.143.478-.226.529a2.468,2.468,0,0,1-.829.075Z"/><path class="d" d="M319.857,288.342l.2-.05h1.107l1.407,1.206q9.045,8.243,9.045,23.921a39.626,39.626,0,0,1-1.457,11.156,27.1,27.1,0,0,1-7.588,12.765q-.353.3-.805.679c-.3.251-.5.426-.6.527h-.6a1.863,1.863,0,0,1-.779-.1q-.175-.1-.176-.5.051-.051.553-.653,7.789-8.091,7.79-23.871t-7.79-23.871q-.5-.6-.553-.653A.59.59,0,0,1,319.857,288.342Z"/><rect class="d" x="233.486" y="269.335" width="114.867" height="1.795" rx="0.748"/></svg>