<svg width="640" height="360" viewBox="0 0 640 360" fill="none" xmlns="http://www.w3.org/2000/svg">
<g clip-path="url(#clip0_1444_6406)">
<path d="M640 0H0V360H640V0Z" fill="white"/>
<g clip-path="url(#clip1_1444_6406)">
<path d="M0 20H640" stroke="#C0C0C0" stroke-width="1.5"/>
<path d="M0 60H640" stroke="#C0C0C0" stroke-width="1.5"/>
<path d="M0 100H640" stroke="#C0C0C0" stroke-width="1.5"/>
<path d="M0 140H640" stroke="#C0C0C0" stroke-width="1.5"/>
<path d="M0 220H640" stroke="#C0C0C0" stroke-width="1.5"/>
<path d="M0 260H640" stroke="#C0C0C0" stroke-width="1.5"/>
<path d="M0 300H640" stroke="#C0C0C0" stroke-width="1.5"/>
<path d="M0 340H640" stroke="#C0C0C0" stroke-width="1.5"/>
<path d="M0 0V360" stroke="#C0C0C0" stroke-width="1.5"/>
<path d="M40 0V360" stroke="#C0C0C0" stroke-width="1.5"/>
<path d="M80 0V360" stroke="#C0C0C0" stroke-width="1.5"/>
<path d="M160 0V360" stroke="#C0C0C0" stroke-width="1.5"/>
<path d="M200 0V360" stroke="#C0C0C0" stroke-width="1.5"/>
<path d="M240 0V360" stroke="#C0C0C0" stroke-width="1.5"/>
<path d="M280 0V360" stroke="#C0C0C0" stroke-width="1.5"/>
<path d="M360 0V360" stroke="#C0C0C0" stroke-width="1.5"/>
<path d="M400 0V360" stroke="#C0C0C0" stroke-width="1.5"/>
<path d="M440 0V360" stroke="#C0C0C0" stroke-width="1.5"/>
<path d="M480 0V360" stroke="#C0C0C0" stroke-width="1.5"/>
<path d="M560 0V360" stroke="#C0C0C0" stroke-width="1.5"/>
<path d="M600 0V360" stroke="#C0C0C0" stroke-width="1.5"/>
<path d="M640 0V360" stroke="#C0C0C0" stroke-width="1.5"/>
<path d="M120 0V360" stroke="#B0B0B0" stroke-width="1.5"/>
<path d="M520 0V360" stroke="#B0B0B0" stroke-width="1.5"/>
<path d="M0 180H640" stroke="#A0A0A0" stroke-width="1.5"/>
<path d="M320 0V360" stroke="#A0A0A0" stroke-width="1.5"/>
</g>
<path d="M0 180H640" stroke="#808080" stroke-width="1.5"/>
<path d="M320 0V360" stroke="#808080" stroke-width="1.5"/>
<path d="M640 0H0V360H640V0Z" stroke="#A0A0A0" stroke-width="2"/>
<g clip-path="url(#clip2_1444_6406)">
<path d="M-1120 340H1440" stroke="#7684FE" stroke-opacity="0.75" stroke-width="1.26134"/>
<path d="M-1080 300H1480" stroke="#7684FE" stroke-opacity="0.75" stroke-width="1.26134"/>
<path d="M-1040 260H1520" stroke="#7684FE" stroke-opacity="0.75" stroke-width="1.26134"/>
<path d="M-1000 220H1560" stroke="#7684FE" stroke-opacity="0.75" stroke-width="1.26134"/>
<path d="M-960 180H1600" stroke="#7684FE" stroke-opacity="0.75" stroke-width="1.26134"/>
<path d="M-920 140H1640" stroke="#7684FE" stroke-opacity="0.75" stroke-width="1.26134"/>
<path d="M-880 100H1680" stroke="#7684FE" stroke-opacity="0.75" stroke-width="1.26134"/>
<path d="M-840 60H1720" stroke="#7684FE" stroke-opacity="0.75" stroke-width="1.26134"/>
<path d="M-800 20H1760" stroke="#7684FE" stroke-opacity="0.75" stroke-width="1.26134"/>
<path d="M-1440 900L-2.50125e-05 -540" stroke="#7684FE" stroke-opacity="0.75" stroke-width="1.26134"/>
<path d="M-1400 900L40 -540" stroke="#7684FE" stroke-opacity="0.75" stroke-width="1.26134"/>
<path d="M-1360 900L80 -540" stroke="#7684FE" stroke-opacity="0.75" stroke-width="1.26134"/>
<path d="M-1320 900L120 -540" stroke="#7684FE" stroke-opacity="0.75" stroke-width="1.26134"/>
<path d="M-1280 900L160 -540" stroke="#7684FE" stroke-opacity="0.75" stroke-width="1.26134"/>
<path d="M-1240 900L200 -540" stroke="#7684FE" stroke-opacity="0.75" stroke-width="1.26134"/>
<path d="M-1200 900L240 -540" stroke="#7684FE" stroke-opacity="0.75" stroke-width="1.26134"/>
<path d="M-1160 900L280 -540" stroke="#7684FE" stroke-opacity="0.75" stroke-width="1.26134"/>
<path d="M-1120 900L320 -540" stroke="#7684FE" stroke-opacity="0.75" stroke-width="1.26134"/>
<path d="M-1080 900L360 -540" stroke="#7684FE" stroke-opacity="0.75" stroke-width="1.26134"/>
<path d="M-1040 900L400 -540" stroke="#7684FE" stroke-opacity="0.75" stroke-width="1.26134"/>
<path d="M-1000 900L440 -540" stroke="#7684FE" stroke-opacity="0.75" stroke-width="1.26134"/>
<path d="M-960 900L480 -540" stroke="#7684FE" stroke-opacity="0.75" stroke-width="1.26134"/>
<path d="M-920 900L520 -540" stroke="#7684FE" stroke-opacity="0.75" stroke-width="1.26134"/>
<path d="M-880 900L560 -540" stroke="#7684FE" stroke-opacity="0.75" stroke-width="1.26134"/>
<path d="M-840 900L600 -540" stroke="#7684FE" stroke-opacity="0.75" stroke-width="1.26134"/>
<path d="M-800 900L640 -540" stroke="#7684FE" stroke-opacity="0.75" stroke-width="1.26134"/>
<path d="M-760 900L680 -540" stroke="#7684FE" stroke-opacity="0.75" stroke-width="1.26134"/>
<path d="M-720 900L720 -540" stroke="#7684FE" stroke-opacity="0.75" stroke-width="1.26134"/>
<path d="M-680 900L760 -540" stroke="#7684FE" stroke-opacity="0.75" stroke-width="1.26134"/>
<path d="M-640 900L800 -540" stroke="#7684FE" stroke-opacity="0.75" stroke-width="1.26134"/>
<path d="M-600 900L840 -540" stroke="#7684FE" stroke-opacity="0.75" stroke-width="1.26134"/>
<path d="M-560 900L880 -540" stroke="#7684FE" stroke-opacity="0.75" stroke-width="1.26134"/>
<path d="M-520 900L920 -540" stroke="#7684FE" stroke-opacity="0.75" stroke-width="1.26134"/>
<path d="M-480 900L960 -540" stroke="#7684FE" stroke-opacity="0.75" stroke-width="1.26134"/>
<path d="M-440 900L1000 -540" stroke="#7684FE" stroke-opacity="0.75" stroke-width="1.26134"/>
<path d="M-400 900L1040 -540" stroke="#7684FE" stroke-opacity="0.75" stroke-width="1.26134"/>
<path d="M-360 900L1080 -540" stroke="#7684FE" stroke-opacity="0.75" stroke-width="1.26134"/>
<path d="M-320 900L1120 -540" stroke="#7684FE" stroke-opacity="0.75" stroke-width="1.26134"/>
<path d="M-280 900L1160 -540" stroke="#7684FE" stroke-opacity="0.75" stroke-width="1.26134"/>
<path d="M-240 900L1200 -540" stroke="#7684FE" stroke-opacity="0.75" stroke-width="1.26134"/>
<path d="M-200 900L1240 -540" stroke="#7684FE" stroke-opacity="0.75" stroke-width="1.26134"/>
<path d="M-160 900L1280 -540" stroke="#7684FE" stroke-opacity="0.75" stroke-width="1.26134"/>
<path d="M-120 900L1320 -540" stroke="#7684FE" stroke-opacity="0.75" stroke-width="1.26134"/>
<path d="M-80 900L1360 -540" stroke="#7684FE" stroke-opacity="0.75" stroke-width="1.26134"/>
<path d="M-40 900L1400 -540" stroke="#7684FE" stroke-opacity="0.75" stroke-width="1.26134"/>
<path d="M0 900L1440 -540" stroke="#7684FE" stroke-opacity="0.75" stroke-width="1.26134"/>
<path d="M40 900L1480 -540" stroke="#7684FE" stroke-opacity="0.75" stroke-width="1.26134"/>
<path d="M80 900L1520 -540" stroke="#7684FE" stroke-opacity="0.75" stroke-width="1.26134"/>
<path d="M120 900L1560 -540" stroke="#7684FE" stroke-opacity="0.75" stroke-width="1.26134"/>
<path d="M160 900L1600 -540" stroke="#7684FE" stroke-opacity="0.75" stroke-width="1.26134"/>
<path d="M200 900L1640 -540" stroke="#7684FE" stroke-opacity="0.75" stroke-width="1.26134"/>
<path d="M240 900L1680 -540" stroke="#7684FE" stroke-opacity="0.75" stroke-width="1.26134"/>
<path d="M280 900L1720 -540" stroke="#7684FE" stroke-opacity="0.75" stroke-width="1.26134"/>
<path d="M320 900L1760 -540" stroke="#7684FE" stroke-opacity="0.75" stroke-width="1.26134"/>
<path d="M360 900L1800 -540" stroke="#7684FE" stroke-opacity="0.75" stroke-width="1.26134"/>
<path d="M400 900L1840 -540" stroke="#7684FE" stroke-opacity="0.75" stroke-width="1.26134"/>
<path d="M440 900L1880 -540" stroke="#7684FE" stroke-opacity="0.75" stroke-width="1.26134"/>
<path d="M480 900L1920 -540" stroke="#7684FE" stroke-opacity="0.75" stroke-width="1.26134"/>
<path d="M520 900L1960 -540" stroke="#7684FE" stroke-opacity="0.75" stroke-width="1.26134"/>
<path d="M560 900L2000 -540" stroke="#7684FE" stroke-opacity="0.75" stroke-width="1.26134"/>
<path d="M600 900L2040 -540" stroke="#7684FE" stroke-opacity="0.75" stroke-width="1.26134"/>
<path d="M640 900L2080 -540" stroke="#7684FE" stroke-opacity="0.75" stroke-width="1.26134"/>
<path d="M1600 180H-960" stroke="#6D79EB" stroke-width="1.26134"/>
<path d="M-400 900L1040 -540" stroke="#6D79EB" stroke-width="1.26134"/>
</g>
<path d="M640 0H0V360H640V0Z" stroke="#A0A0A0" stroke-width="2"/>
<path d="M295 186.75L280 180L295 173.25L292 180L295 186.75Z" fill="#1AA59B"/>
<path d="M320 180H284" stroke="#1AA59B" stroke-width="1.5"/>
<path d="M345 173.25L360 180L345 186.75L348 180L345 173.25Z" fill="#1AA59B"/>
<path d="M320 180H356" stroke="#1AA59B" stroke-width="1.5"/>
<path d="M255 186.75L240 180L255 173.25L252 180L255 186.75Z" fill="#1AA59B"/>
<path d="M320 180H244" stroke="#1AA59B" stroke-width="1.5"/>
<path d="M385 173.25L400 180L385 186.75L388 180L385 173.25Z" fill="#1AA59B"/>
<path d="M320 180H396" stroke="#1AA59B" stroke-width="1.5"/>
<path d="M215 186.75L200 180L215 173.25L212 180L215 186.75Z" fill="#1AA59B"/>
<path d="M320 180H204" stroke="#1AA59B" stroke-width="1.5"/>
<path d="M425 173.25L440 180L425 186.75L428 180L425 173.25Z" fill="#1AA59B"/>
<path d="M320 180H436" stroke="#1AA59B" stroke-width="1.5"/>
<path d="M175 186.75L160 180L175 173.25L172 180L175 186.75Z" fill="#1AA59B"/>
<path d="M320 180H164" stroke="#1AA59B" stroke-width="1.5"/>
<path d="M465 173.25L480 180L465 186.75L468 180L465 173.25Z" fill="#1AA59B"/>
<path d="M320 180H476" stroke="#1AA59B" stroke-width="1.5"/>
<path d="M135 186.75L120 180L135 173.25L132 180L135 186.75Z" fill="#1AA59B"/>
<path d="M320 180H124" stroke="#1AA59B" stroke-width="1.5"/>
<path d="M505 173.25L520 180L505 186.75L508 180L505 173.25Z" fill="#1AA59B"/>
<path d="M320 180H516" stroke="#1AA59B" stroke-width="1.5"/>
<path d="M95 186.75L80 180L95 173.25L92 180L95 186.75Z" fill="#1AA59B"/>
<path d="M320 180H84" stroke="#1AA59B" stroke-width="1.5"/>
<path d="M545 173.25L560 180L545 186.75L548 180L545 173.25Z" fill="#1AA59B"/>
<path d="M320 180H556" stroke="#1AA59B" stroke-width="1.5"/>
<path d="M55 186.75L40 180L55 173.25L52 180L55 186.75Z" fill="#1AA59B"/>
<path d="M320 180H44" stroke="#1AA59B" stroke-width="1.5"/>
<path d="M585 173.25L600 180L585 186.75L588 180L585 173.25Z" fill="#1AA59B"/>
<path d="M320 180H596" stroke="#1AA59B" stroke-width="1.5"/>
<path d="M15 186.75L0 180L15 173.25L12 180L15 186.75Z" fill="#1AA59B"/>
<path d="M320 180H4" stroke="#1AA59B" stroke-width="1.5"/>
<path d="M625 173.25L640 180L625 186.75L628 180L625 173.25Z" fill="#1AA59B"/>
<path d="M320 180H636" stroke="#1AA59B" stroke-width="1.5"/>
<path d="M320 180H-36" stroke="#1AA59B" stroke-width="1.5"/>
<path d="M320 180H676" stroke="#1AA59B" stroke-width="1.5"/>
<path d="M320 180H-76" stroke="#1AA59B" stroke-width="1.5"/>
<path d="M320 180H716" stroke="#1AA59B" stroke-width="1.5"/>
<path d="M562.171 194.813H408.412V245.951H562.171V194.813Z" fill="white"/>
<path d="M431.026 200.01C430.934 199.918 430.862 199.859 430.81 199.833C430.757 199.807 430.652 199.787 430.495 199.774C430.337 199.761 430.055 199.741 429.648 199.715H428.999V198.81H440.258V198.888C440.284 198.967 440.376 199.728 440.533 201.172C440.691 202.615 440.783 203.376 440.809 203.455V203.534H440.022V203.455C440.008 203.416 439.989 203.278 439.963 203.042C439.91 202.582 439.831 202.182 439.726 201.841C439.621 201.5 439.51 201.204 439.392 200.955C439.274 200.706 439.11 200.509 438.9 200.365C438.69 200.22 438.493 200.102 438.309 200.01C438.125 199.918 437.856 199.853 437.502 199.813C437.148 199.774 436.846 199.748 436.597 199.735C436.347 199.722 435.967 199.715 435.455 199.715C434.313 199.715 433.644 199.722 433.447 199.735C433.25 199.748 433.132 199.82 433.093 199.951C433.093 199.951 433.093 199.958 433.093 199.971C433.08 199.997 433.073 200.811 433.073 202.412V204.793H434.136C435.094 204.767 435.691 204.708 435.927 204.616C436.4 204.406 436.656 203.855 436.695 202.963C436.695 202.937 436.695 202.91 436.695 202.884V202.49H437.482V208.002H436.695V207.608C436.682 207.149 436.629 206.788 436.538 206.526C436.446 206.263 436.282 206.073 436.046 205.955C435.809 205.837 435.586 205.764 435.376 205.738C435.166 205.712 434.825 205.699 434.353 205.699C434.261 205.699 434.189 205.699 434.136 205.699H433.073V208.336V209.95C433.073 210.698 433.106 211.105 433.172 211.171C433.25 211.236 433.592 211.269 434.195 211.269H435.199H436.203C436.688 211.269 437.089 211.25 437.404 211.21C437.719 211.171 438.066 211.092 438.447 210.974C438.827 210.856 439.136 210.659 439.372 210.383C439.608 210.108 439.818 209.754 440.002 209.321C440.133 208.979 440.232 208.625 440.297 208.258C440.363 207.89 440.415 207.582 440.455 207.333C440.494 207.083 440.527 206.932 440.553 206.88V206.821H441.34V206.88C441.327 206.919 441.196 207.792 440.947 209.498C440.697 211.204 440.553 212.083 440.514 212.135V212.194H428.999V211.289H429.648C430.2 211.276 430.534 211.256 430.652 211.23C430.77 211.204 430.895 211.125 431.026 210.994V200.01Z" fill="#202020"/>
<path d="M443.269 200.207C443.269 199.84 443.387 199.551 443.624 199.341C443.86 199.131 444.148 199.026 444.49 199.026C444.791 199.052 445.054 199.164 445.277 199.361C445.5 199.558 445.612 199.84 445.612 200.207C445.612 200.601 445.5 200.896 445.277 201.093C445.054 201.29 444.778 201.388 444.45 201.388C444.122 201.388 443.847 201.29 443.624 201.093C443.401 200.896 443.282 200.601 443.269 200.207ZM446.773 212.194C446.576 212.155 445.894 212.135 444.726 212.135C444.582 212.135 444.339 212.135 443.998 212.135C443.656 212.135 443.328 212.148 443.013 212.175L442.58 212.194H442.423V211.289H442.738C443.105 211.289 443.427 211.269 443.702 211.23C443.82 211.177 443.893 211.105 443.919 211.013C443.945 210.921 443.958 210.646 443.958 210.187V208.159V206.427C443.958 205.745 443.945 205.312 443.919 205.128C443.893 204.944 443.801 204.82 443.643 204.754C443.46 204.662 443.151 204.616 442.718 204.616H442.502V204.163C442.502 203.862 442.515 203.711 442.541 203.711L442.738 203.691C442.869 203.678 443.053 203.665 443.289 203.652C443.525 203.639 443.761 203.625 443.998 203.612C444.221 203.599 444.457 203.586 444.706 203.573C444.956 203.56 445.146 203.54 445.277 203.514C445.408 203.488 445.48 203.481 445.494 203.494H445.553V210.974C445.618 211.105 445.697 211.184 445.789 211.21C445.881 211.236 446.11 211.263 446.478 211.289H446.93V212.194H446.773Z" fill="#202020"/>
<path d="M453.859 204.144C454.436 203.566 455.093 203.278 455.827 203.278C456.221 203.278 456.503 203.402 456.674 203.652C456.844 203.901 456.93 204.15 456.93 204.4C456.93 204.583 456.871 204.747 456.752 204.892C456.634 205.036 456.457 205.108 456.221 205.108C455.788 205.108 455.545 204.911 455.493 204.518C455.466 204.334 455.486 204.196 455.552 204.104C455.552 204.091 455.558 204.072 455.571 204.045V204.026C455.204 204.065 454.856 204.209 454.528 204.459C454.423 204.524 454.371 204.57 454.371 204.596C454.371 204.61 454.397 204.642 454.45 204.695C454.502 204.747 454.561 204.826 454.627 204.931C454.692 205.036 454.764 205.154 454.843 205.285C454.922 205.417 454.981 205.587 455.02 205.797C455.06 206.007 455.086 206.224 455.099 206.447C455.099 207.26 454.778 207.949 454.135 208.513C453.492 209.078 452.698 209.366 451.753 209.38C451.097 209.38 450.447 209.196 449.804 208.828C449.66 209.065 449.588 209.314 449.588 209.576C449.588 210.036 449.758 210.377 450.099 210.6C450.218 210.679 450.329 210.718 450.434 210.718C450.539 210.718 451.011 210.731 451.851 210.757C452.954 210.77 453.662 210.81 453.977 210.875C454.778 210.994 455.407 211.263 455.867 211.682C456.378 212.194 456.634 212.837 456.634 213.611C456.634 214.491 456.123 215.166 455.099 215.639C454.312 216.046 453.38 216.249 452.304 216.249C451.215 216.249 450.277 216.046 449.489 215.639C448.466 215.18 447.954 214.523 447.954 213.67C447.954 213.198 448.092 212.804 448.367 212.489C448.643 212.175 448.918 211.958 449.194 211.84L449.411 211.722C448.938 211.315 448.702 210.764 448.702 210.068C448.702 209.452 448.892 208.894 449.273 208.395C448.695 207.818 448.407 207.168 448.407 206.447C448.407 205.62 448.735 204.924 449.391 204.36C450.047 203.796 450.841 203.507 451.773 203.494C452.442 203.494 453.065 203.665 453.642 204.006L453.859 204.144ZM453.269 205.443C453.203 205.075 453.032 204.787 452.757 204.577C452.481 204.367 452.14 204.255 451.733 204.242C451.353 204.242 451.025 204.347 450.749 204.557C450.473 204.767 450.303 205.062 450.237 205.443C450.198 205.666 450.178 206.001 450.178 206.447C450.178 207.024 450.224 207.451 450.316 207.726C450.408 208.002 450.605 208.231 450.906 208.415C451.13 208.546 451.412 208.612 451.753 208.612C452.042 208.612 452.291 208.566 452.501 208.474C452.711 208.382 452.862 208.264 452.954 208.12C453.045 207.975 453.118 207.844 453.17 207.726C453.223 207.608 453.255 207.51 453.269 207.431C453.308 207.221 453.328 206.893 453.328 206.447C453.328 206.001 453.308 205.666 453.269 205.443ZM455.316 213.67C455.316 213.342 455.224 213.073 455.04 212.863C454.856 212.654 454.587 212.503 454.233 212.411C453.879 212.319 453.557 212.26 453.269 212.234C452.98 212.207 452.626 212.194 452.206 212.194H451.674C450.795 212.194 450.27 212.234 450.099 212.312C449.837 212.43 449.634 212.614 449.489 212.863C449.345 213.113 449.266 213.375 449.253 213.651C449.253 213.782 449.292 213.933 449.371 214.104C449.45 214.274 449.588 214.471 449.785 214.694C449.981 214.917 450.296 215.101 450.729 215.245C451.162 215.39 451.687 215.468 452.304 215.481C453.209 215.481 453.938 215.298 454.489 214.93C455.04 214.563 455.316 214.143 455.316 213.67Z" fill="#202020"/>
<path d="M457.776 207.904C457.776 207.182 457.907 206.526 458.17 205.935C458.432 205.345 458.76 204.866 459.154 204.498C459.548 204.131 459.974 203.855 460.433 203.672C460.893 203.488 461.326 203.39 461.732 203.376C462.428 203.376 463.025 203.495 463.524 203.731C464.022 203.967 464.403 204.295 464.665 204.715C464.928 205.135 465.111 205.555 465.216 205.975C465.321 206.395 465.38 206.86 465.393 207.372C465.393 207.464 465.348 207.556 465.256 207.648H459.705V207.943C459.705 209.885 460.361 211.066 461.673 211.486C461.936 211.565 462.224 211.604 462.539 211.604C463.091 211.604 463.563 211.394 463.957 210.974C464.18 210.751 464.357 210.476 464.488 210.148L464.685 209.675C464.724 209.636 464.829 209.616 465 209.616H465.059C465.282 209.616 465.393 209.682 465.393 209.813C465.393 209.865 465.374 209.951 465.334 210.069C465.085 210.791 464.672 211.361 464.094 211.781C463.517 212.201 462.867 212.411 462.146 212.411C460.899 212.411 459.862 211.958 459.036 211.053C458.209 210.148 457.789 209.098 457.776 207.904ZM463.779 206.782C463.635 205.102 463.012 204.21 461.91 204.105H461.87C461.765 204.105 461.66 204.111 461.555 204.124C461.45 204.138 461.286 204.19 461.063 204.282C460.84 204.374 460.65 204.512 460.492 204.695C460.335 204.879 460.184 205.148 460.04 205.502C459.895 205.857 459.79 206.29 459.725 206.801V206.939H463.779V206.782Z" fill="#202020"/>
<path d="M466.771 211.289H467.047C467.559 211.289 467.867 211.197 467.972 211.013V210.856C467.972 210.738 467.972 210.587 467.972 210.403C467.972 210.219 467.972 210.016 467.972 209.793C467.972 209.57 467.979 209.314 467.992 209.025C468.005 208.737 468.005 208.461 467.992 208.199C467.992 207.792 467.992 207.359 467.992 206.899C467.992 206.44 467.985 206.053 467.972 205.738V205.285C467.933 205.036 467.841 204.872 467.696 204.793C467.552 204.715 467.257 204.656 466.811 204.616H466.456V204.163C466.456 203.862 466.47 203.711 466.496 203.711L466.693 203.691C466.824 203.678 467.008 203.665 467.244 203.652C467.48 203.639 467.723 203.625 467.972 203.612C468.195 203.599 468.431 203.586 468.681 203.573C468.93 203.56 469.12 203.54 469.251 203.514C469.383 203.488 469.455 203.481 469.468 203.494H469.527V204.282C469.527 204.78 469.534 205.03 469.547 205.03C469.56 205.03 469.593 204.997 469.645 204.931C469.698 204.866 469.776 204.767 469.881 204.636C469.986 204.505 470.111 204.387 470.255 204.282C470.4 204.177 470.59 204.052 470.826 203.908C471.062 203.763 471.312 203.658 471.574 203.593C471.837 203.527 472.171 203.494 472.578 203.494C474.074 203.547 474.907 204.288 475.078 205.718C475.091 205.81 475.097 206.722 475.097 208.454V210.147C475.097 210.646 475.111 210.941 475.137 211.033C475.163 211.125 475.235 211.19 475.353 211.23C475.629 211.269 475.95 211.289 476.318 211.289H476.633V212.194H476.475L476.003 212.175C475.701 212.162 475.373 212.155 475.019 212.155C474.664 212.155 474.415 212.148 474.271 212.135C472.919 212.135 472.184 212.155 472.066 212.194H471.909V211.289H472.224C473.024 211.289 473.424 211.184 473.424 210.974C473.437 210.948 473.444 210.042 473.444 208.258C473.431 206.486 473.418 205.548 473.405 205.443C473.326 205.075 473.195 204.8 473.011 204.616C472.827 204.433 472.67 204.321 472.539 204.282C472.407 204.242 472.237 204.229 472.027 204.242C471.436 204.242 470.918 204.465 470.472 204.911C470.118 205.266 469.894 205.627 469.803 205.994C469.711 206.361 469.658 206.906 469.645 207.628V208.888V210.069C469.645 210.462 469.652 210.725 469.665 210.856C469.678 210.987 469.698 211.072 469.724 211.112C469.75 211.151 469.809 211.19 469.901 211.23C470.177 211.269 470.498 211.289 470.866 211.289H471.18V212.194H471.023L470.57 212.175C470.255 212.162 469.921 212.155 469.566 212.155C469.212 212.155 468.963 212.148 468.818 212.135C467.467 212.135 466.732 212.155 466.614 212.194H466.456V211.289H466.771Z" fill="#202020"/>
<path d="M483.561 203.711C483.64 203.737 484.191 203.75 485.215 203.75C485.963 203.75 486.494 203.737 486.809 203.711H486.907V204.616H486.691C485.93 204.669 485.444 204.931 485.234 205.404C485.208 205.456 484.769 206.591 483.916 208.809C483.063 211.027 482.616 212.168 482.577 212.234C482.512 212.352 482.347 212.411 482.085 212.411C481.836 212.411 481.678 212.352 481.613 212.234C479.776 207.497 478.85 205.095 478.837 205.03C478.772 204.846 478.667 204.735 478.522 204.695C478.378 204.656 478.122 204.63 477.755 204.616H477.282V203.711H477.4L477.558 203.731C477.663 203.731 477.794 203.731 477.952 203.731C478.109 203.731 478.28 203.731 478.463 203.731C478.647 203.731 478.811 203.737 478.955 203.75C479.1 203.764 479.218 203.77 479.31 203.77C480.556 203.77 481.278 203.75 481.475 203.711H481.632V204.616H481.357C480.845 204.63 480.569 204.728 480.53 204.912C480.53 204.964 480.865 205.857 481.534 207.589L482.538 210.187L484.329 205.483V205.325C484.329 205.141 484.263 204.99 484.132 204.872C484.001 204.754 483.883 204.682 483.778 204.656C483.673 204.63 483.581 204.616 483.502 204.616H483.424V203.711H483.561Z" fill="#202020"/>
<path d="M487.852 207.904C487.852 207.182 487.984 206.526 488.246 205.935C488.508 205.345 488.836 204.866 489.23 204.498C489.624 204.131 490.05 203.855 490.51 203.672C490.969 203.488 491.402 203.39 491.809 203.376C492.504 203.376 493.101 203.495 493.6 203.731C494.099 203.967 494.479 204.295 494.741 204.715C495.004 205.135 495.188 205.555 495.293 205.975C495.398 206.395 495.457 206.86 495.47 207.372C495.47 207.464 495.424 207.556 495.332 207.648H489.781V207.943C489.781 209.885 490.437 211.066 491.75 211.486C492.012 211.565 492.301 211.604 492.616 211.604C493.167 211.604 493.639 211.394 494.033 210.974C494.256 210.751 494.433 210.476 494.564 210.148L494.761 209.675C494.801 209.636 494.906 209.616 495.076 209.616H495.135C495.358 209.616 495.47 209.682 495.47 209.813C495.47 209.865 495.45 209.951 495.411 210.069C495.161 210.791 494.748 211.361 494.171 211.781C493.593 212.201 492.944 212.411 492.222 212.411C490.975 212.411 489.939 211.958 489.112 211.053C488.285 210.148 487.865 209.098 487.852 207.904ZM493.856 206.782C493.711 205.102 493.088 204.21 491.986 204.105H491.946C491.841 204.105 491.736 204.111 491.632 204.124C491.527 204.138 491.363 204.19 491.139 204.282C490.916 204.374 490.726 204.512 490.569 204.695C490.411 204.879 490.26 205.148 490.116 205.502C489.972 205.857 489.867 206.29 489.801 206.801V206.939H493.856V206.782Z" fill="#202020"/>
<path d="M503.323 206.191C503.323 206.191 503.186 206.191 502.91 206.191C502.635 206.191 502.398 206.092 502.202 205.896C502.005 205.699 501.9 205.449 501.887 205.148C501.887 204.846 501.985 204.596 502.182 204.4C502.247 204.334 502.28 204.295 502.28 204.282C502.28 204.268 502.215 204.255 502.083 204.242C501.742 204.19 501.421 204.163 501.119 204.163C500.476 204.163 499.951 204.373 499.544 204.793C498.928 205.41 498.619 206.44 498.619 207.884C498.619 208.96 498.823 209.806 499.229 210.423C499.767 211.223 500.489 211.623 501.394 211.623C501.933 211.623 502.366 211.453 502.694 211.112C503.022 210.771 503.258 210.364 503.402 209.891C503.428 209.786 503.461 209.721 503.501 209.694C503.54 209.668 503.645 209.655 503.816 209.655H504.091C504.17 209.734 504.209 209.793 504.209 209.832C504.209 209.885 504.183 209.99 504.13 210.147C504.078 210.305 503.973 210.521 503.816 210.797C503.658 211.072 503.468 211.322 503.245 211.545C503.022 211.768 502.707 211.971 502.3 212.155C501.893 212.339 501.44 212.424 500.942 212.411C499.813 212.411 498.829 211.991 497.989 211.151C497.149 210.311 496.723 209.255 496.71 207.982C496.71 206.617 497.136 205.508 497.989 204.656C498.842 203.803 499.833 203.376 500.961 203.376C502.09 203.376 502.877 203.553 503.323 203.908C503.77 204.262 503.993 204.682 503.993 205.167C503.993 205.469 503.881 205.712 503.658 205.896L503.323 206.191Z" fill="#202020"/>
<path d="M505.311 203.887C506.007 203.835 506.545 203.467 506.926 202.785C507.306 202.103 507.516 201.302 507.555 200.384V200.088H508.343V203.71H511V204.616H508.343V207.45C508.356 209.09 508.362 210.015 508.362 210.225C508.362 210.435 508.408 210.645 508.5 210.855C508.684 211.367 509.005 211.623 509.465 211.623C510.042 211.623 510.396 211.157 510.528 210.225C510.541 210.12 510.547 209.819 510.547 209.32V208.631H511.335V209.32V209.556C511.335 210.567 511.059 211.334 510.508 211.859C510.154 212.213 509.694 212.391 509.13 212.391C508.684 212.391 508.297 212.312 507.969 212.154C507.641 211.997 507.391 211.794 507.221 211.544C507.05 211.295 506.926 211.065 506.847 210.855C506.768 210.645 506.722 210.435 506.709 210.225C506.696 210.134 506.689 209.163 506.689 207.312V204.616H505.134V203.887H505.311Z" fill="#202020"/>
<path d="M512.988 207.982C512.988 206.735 513.415 205.659 514.267 204.753C515.12 203.848 516.151 203.389 517.358 203.376C518.539 203.376 519.556 203.822 520.409 204.714C521.262 205.606 521.695 206.689 521.708 207.962C521.708 209.208 521.288 210.258 520.448 211.111C519.608 211.964 518.578 212.391 517.358 212.391C516.085 212.391 515.042 211.951 514.228 211.072C513.415 210.193 513.001 209.163 512.988 207.982ZM517.358 211.603C518.959 211.603 519.759 210.534 519.759 208.395V207.765V207.273C519.759 206.984 519.753 206.735 519.739 206.525C519.726 206.315 519.68 206.066 519.602 205.777C519.523 205.488 519.418 205.252 519.287 205.068C519.156 204.885 518.952 204.701 518.677 204.517C518.401 204.334 518.079 204.202 517.712 204.124C517.646 204.11 517.541 204.104 517.397 204.104C517.003 204.104 516.629 204.183 516.275 204.34C515.711 204.629 515.343 205.029 515.173 205.541C515.002 206.053 514.917 206.656 514.917 207.352V207.745C514.917 209.005 515.042 209.891 515.291 210.403C515.711 211.203 516.4 211.603 517.358 211.603Z" fill="#202020"/>
<path d="M522.987 211.289H523.263C523.775 211.289 524.083 211.197 524.188 211.013V210.856C524.188 210.738 524.188 210.587 524.188 210.403C524.188 210.219 524.194 210.016 524.208 209.793C524.221 209.57 524.221 209.314 524.208 209.025C524.194 208.737 524.194 208.461 524.208 208.199C524.208 207.792 524.208 207.359 524.208 206.899C524.208 206.44 524.208 206.053 524.208 205.738L524.188 205.285C524.148 205.036 524.057 204.872 523.912 204.793C523.768 204.715 523.473 204.656 523.027 204.616H522.672V204.163C522.672 203.862 522.685 203.711 522.712 203.711L522.908 203.691C523.04 203.678 523.223 203.665 523.46 203.652C523.696 203.639 523.932 203.625 524.168 203.612C524.378 203.599 524.608 203.586 524.857 203.573C525.106 203.56 525.297 203.54 525.428 203.514C525.559 203.488 525.631 203.481 525.644 203.494H525.703V204.852C526.215 203.96 526.852 203.514 527.613 203.514H527.731C528.321 203.514 528.754 203.658 529.03 203.947C529.306 204.236 529.443 204.537 529.443 204.852C529.443 205.128 529.358 205.364 529.187 205.561C529.017 205.758 528.768 205.856 528.439 205.856C528.111 205.856 527.869 205.751 527.711 205.541C527.554 205.331 527.468 205.108 527.455 204.872C527.455 204.754 527.468 204.649 527.495 204.557C527.521 204.465 527.554 204.387 527.593 204.321C527.632 204.255 527.652 204.223 527.652 204.223C527.626 204.196 527.475 204.223 527.199 204.301C526.989 204.406 526.832 204.505 526.727 204.597C526.11 205.187 525.802 206.361 525.802 208.12V209.163C525.802 209.334 525.802 209.511 525.802 209.695C525.802 209.878 525.802 210.049 525.802 210.206C525.802 210.364 525.808 210.495 525.822 210.6C525.835 210.705 525.835 210.803 525.822 210.895V210.994C525.835 211.02 525.854 211.046 525.881 211.072C525.907 211.099 525.94 211.118 525.979 211.131C526.018 211.145 526.051 211.164 526.077 211.19C526.104 211.217 526.15 211.23 526.215 211.23C526.281 211.23 526.327 211.236 526.353 211.25C526.379 211.263 526.438 211.269 526.53 211.269C526.622 211.269 526.681 211.269 526.707 211.269C526.734 211.269 526.799 211.276 526.904 211.289C527.009 211.302 527.075 211.302 527.101 211.289H527.711V212.194H527.534C527.298 212.155 526.465 212.135 525.034 212.135C523.683 212.135 522.948 212.155 522.83 212.194H522.672V211.289H522.987Z" fill="#202020"/>
<path d="M535.801 205.975C535.801 205.45 535.624 204.997 535.27 204.616C534.915 204.236 534.404 204.046 533.734 204.046C533.262 204.046 532.855 204.131 532.514 204.302C532.12 204.551 531.923 204.892 531.923 205.325C531.91 205.391 531.91 205.476 531.923 205.581C531.937 205.686 532.042 205.843 532.238 206.053C532.435 206.263 532.717 206.427 533.085 206.545C533.321 206.611 533.61 206.67 533.951 206.723C534.292 206.775 534.581 206.834 534.817 206.9C535.053 206.965 535.263 207.051 535.447 207.156C535.67 207.261 535.886 207.392 536.096 207.549C536.306 207.707 536.516 207.976 536.726 208.356C536.936 208.737 537.048 209.144 537.061 209.577C537.061 210.39 536.812 211.06 536.313 211.584C535.814 212.109 535.007 212.378 533.892 212.391H533.734C533.052 212.391 532.422 212.155 531.845 211.683L531.687 211.821L531.51 211.998C531.431 212.077 531.353 212.149 531.274 212.214L531.057 212.411H530.9H530.821C530.782 212.411 530.723 212.372 530.644 212.293V210.738V209.596C530.644 209.321 530.657 209.157 530.683 209.104C530.71 209.052 530.775 209.019 530.88 209.006H531.057C531.215 209.006 531.32 209.032 531.372 209.085C531.425 209.137 531.458 209.216 531.471 209.321C531.484 209.426 531.53 209.603 531.609 209.852C531.687 210.102 531.812 210.377 531.983 210.679C532.442 211.348 533.078 211.683 533.892 211.683C535.165 211.683 535.801 211.171 535.801 210.148C535.801 209.767 535.683 209.459 535.447 209.222C535.184 208.907 534.64 208.671 533.813 208.514C532.986 208.356 532.442 208.205 532.179 208.061C531.707 207.838 531.333 207.536 531.057 207.156C530.782 206.775 530.644 206.368 530.644 205.935C530.644 205.424 530.756 204.99 530.979 204.636C531.202 204.282 531.484 204.019 531.825 203.849C532.166 203.678 532.494 203.56 532.809 203.495C533.124 203.429 533.413 203.396 533.675 203.396H533.892C534.417 203.396 534.876 203.495 535.27 203.691L535.565 203.849L535.742 203.711C535.873 203.593 536.018 203.481 536.175 203.376H536.333H536.411C536.451 203.376 536.51 203.416 536.588 203.495V206.093L536.47 206.211H535.919C535.84 206.132 535.801 206.053 535.801 205.975Z" fill="#202020"/>
<path d="M413.813 232.508C413.734 232.377 413.642 232.298 413.538 232.272C413.433 232.245 413.196 232.213 412.829 232.173H412.396V231.268H412.514L412.888 231.287C413.137 231.287 413.406 231.294 413.695 231.307C413.984 231.32 414.194 231.327 414.325 231.327C415.506 231.327 416.195 231.307 416.392 231.268H416.549V232.173H416.274C415.775 232.199 415.526 232.311 415.526 232.508C415.526 232.521 415.814 233.367 416.392 235.047L417.258 237.527L418.714 233.295L418.596 232.96C418.465 232.58 418.353 232.357 418.262 232.291C418.157 232.226 417.907 232.186 417.514 232.173H417.12V231.268H417.238C417.317 231.307 417.868 231.327 418.891 231.327C420.086 231.327 420.781 231.307 420.978 231.268H421.116V232.173H420.938C420.309 232.173 419.994 232.278 419.994 232.488C419.994 232.527 420.086 232.823 420.269 233.374C420.453 233.925 420.656 234.515 420.879 235.145C421.103 235.775 421.312 236.372 421.509 236.937L421.805 237.783L422.612 235.441C423.163 233.84 423.438 233 423.438 232.921C423.438 232.711 423.34 232.541 423.143 232.409C422.946 232.278 422.723 232.199 422.474 232.173H422.316V231.268H422.454C422.612 231.307 423.235 231.327 424.324 231.327C425.216 231.327 425.702 231.307 425.781 231.268H425.879V232.173H425.761C425.748 232.173 425.708 232.173 425.643 232.173C425.577 232.173 425.518 232.18 425.466 232.193C424.849 232.285 424.436 232.613 424.226 233.177L423.045 236.582C422.874 237.068 422.671 237.658 422.434 238.354C422.172 239.128 422.008 239.587 421.942 239.732C421.877 239.876 421.772 239.955 421.627 239.968H421.47C421.221 239.968 421.07 239.922 421.017 239.83C421.004 239.817 420.683 238.918 420.053 237.133L419.147 234.496C419.121 234.548 418.498 236.326 417.277 239.83C417.212 239.922 417.061 239.968 416.825 239.968H416.726C416.556 239.968 416.438 239.915 416.372 239.81L413.813 232.508Z" fill="#202020"/>
<path d="M427.611 227.764C427.611 227.396 427.729 227.108 427.965 226.898C428.202 226.688 428.49 226.583 428.832 226.583C429.133 226.609 429.396 226.721 429.619 226.917C429.842 227.114 429.953 227.396 429.953 227.764C429.953 228.157 429.842 228.453 429.619 228.65C429.396 228.846 429.12 228.945 428.792 228.945C428.464 228.945 428.189 228.846 427.965 228.65C427.742 228.453 427.624 228.157 427.611 227.764ZM431.115 239.751C430.918 239.712 430.236 239.692 429.068 239.692C428.923 239.692 428.681 239.692 428.339 239.692C427.998 239.692 427.67 239.705 427.355 239.731L426.922 239.751H426.765V238.846H427.08C427.447 238.846 427.769 238.826 428.044 238.786C428.162 238.734 428.234 238.662 428.261 238.57C428.287 238.478 428.3 238.203 428.3 237.743V235.716V233.984C428.3 233.301 428.287 232.868 428.261 232.685C428.234 232.501 428.143 232.376 427.985 232.311C427.801 232.219 427.493 232.173 427.06 232.173H426.844V231.72C426.844 231.418 426.857 231.267 426.883 231.267L427.08 231.248C427.211 231.235 427.395 231.221 427.631 231.208C427.867 231.195 428.103 231.182 428.339 231.169C428.563 231.156 428.799 231.143 429.048 231.13C429.297 231.117 429.488 231.097 429.619 231.071C429.75 231.044 429.822 231.038 429.835 231.051H429.894V238.531C429.96 238.662 430.039 238.741 430.131 238.767C430.222 238.793 430.452 238.819 430.82 238.846H431.272V239.751H431.115Z" fill="#202020"/>
<path d="M432.256 231.444C432.952 231.392 433.49 231.024 433.87 230.342C434.251 229.659 434.461 228.859 434.5 227.94V227.645H435.288V231.267H437.945V232.172H435.288V235.007C435.301 236.647 435.307 237.572 435.307 237.782C435.307 237.992 435.353 238.202 435.445 238.412C435.629 238.924 435.95 239.18 436.41 239.18C436.987 239.18 437.341 238.714 437.473 237.782C437.486 237.677 437.492 237.375 437.492 236.877V236.188H438.28V236.877V237.113C438.28 238.123 438.004 238.891 437.453 239.416C437.099 239.77 436.639 239.947 436.075 239.947C435.629 239.947 435.242 239.869 434.914 239.711C434.586 239.554 434.336 239.35 434.166 239.101C433.995 238.852 433.87 238.622 433.792 238.412C433.713 238.202 433.667 237.992 433.654 237.782C433.641 237.69 433.634 236.719 433.634 234.869V232.172H432.079V231.444H432.256Z" fill="#202020"/>
<path d="M440.189 238.846H440.464C440.976 238.846 441.285 238.754 441.39 238.57V238.413C441.39 238.294 441.39 238.143 441.39 237.96C441.39 237.776 441.39 237.56 441.39 237.31C441.39 237.061 441.39 236.779 441.39 236.464C441.39 236.149 441.396 235.821 441.409 235.48C441.422 235.138 441.422 234.778 441.409 234.397C441.396 234.017 441.396 233.643 441.409 233.275C441.409 232.79 441.409 232.278 441.409 231.74C441.409 231.202 441.409 230.71 441.409 230.264C441.409 229.817 441.403 229.424 441.39 229.083C441.376 228.741 441.376 228.453 441.39 228.216C441.403 227.98 441.403 227.869 441.39 227.882C441.35 227.633 441.258 227.469 441.114 227.39C440.97 227.311 440.674 227.252 440.228 227.213H439.874V226.76C439.874 226.458 439.887 226.307 439.913 226.307L440.11 226.288C440.241 226.274 440.432 226.261 440.681 226.248C440.93 226.235 441.173 226.222 441.409 226.209C441.632 226.196 441.875 226.183 442.138 226.169C442.4 226.156 442.597 226.137 442.728 226.11C442.859 226.084 442.931 226.078 442.945 226.091H443.004V232.527C443.791 231.543 444.736 231.051 445.838 231.051C447.452 231.051 448.338 231.792 448.495 233.275C448.508 233.367 448.515 234.279 448.515 236.011V237.704C448.515 238.203 448.528 238.498 448.554 238.59C448.581 238.682 448.653 238.747 448.771 238.786C449.046 238.826 449.368 238.846 449.735 238.846H450.05V239.751H449.893L449.42 239.731C449.119 239.718 448.791 239.712 448.436 239.712C448.082 239.712 447.833 239.705 447.688 239.692C446.337 239.692 445.602 239.712 445.484 239.751H445.326V238.846H445.641C446.442 238.846 446.842 238.741 446.842 238.531C446.855 238.504 446.862 237.599 446.862 235.814C446.848 234.043 446.835 233.105 446.822 233C446.743 232.632 446.612 232.357 446.429 232.173C446.245 231.989 446.087 231.878 445.956 231.838C445.825 231.799 445.654 231.786 445.444 231.799C444.854 231.799 444.336 232.022 443.889 232.468C443.535 232.822 443.312 233.183 443.22 233.551C443.128 233.918 443.076 234.463 443.063 235.184V236.444V237.625C443.063 238.019 443.069 238.281 443.082 238.413C443.095 238.544 443.115 238.629 443.141 238.668C443.168 238.708 443.227 238.747 443.319 238.786C443.594 238.826 443.916 238.846 444.283 238.846H444.598V239.751H444.441L443.988 239.731C443.673 239.718 443.338 239.712 442.984 239.712C442.63 239.712 442.38 239.705 442.236 239.692C440.884 239.692 440.15 239.712 440.031 239.751H439.874V238.846H440.189Z" fill="#202020"/>
<path d="M455.798 235.46C455.798 234.739 455.929 234.082 456.192 233.492C456.454 232.901 456.782 232.422 457.176 232.055C457.569 231.688 457.996 231.412 458.455 231.228C458.914 231.045 459.347 230.946 459.754 230.933C460.45 230.933 461.047 231.051 461.545 231.287C462.044 231.524 462.425 231.852 462.687 232.272C462.949 232.691 463.133 233.111 463.238 233.531C463.343 233.951 463.402 234.417 463.415 234.929C463.415 235.021 463.369 235.113 463.278 235.204H457.727V235.5C457.727 237.442 458.383 238.623 459.695 239.043C459.958 239.121 460.246 239.161 460.561 239.161C461.112 239.161 461.585 238.951 461.978 238.531C462.202 238.308 462.379 238.032 462.51 237.704L462.707 237.232C462.746 237.192 462.851 237.173 463.022 237.173H463.081C463.304 237.173 463.415 237.238 463.415 237.37C463.415 237.422 463.396 237.507 463.356 237.625C463.107 238.347 462.694 238.918 462.116 239.338C461.539 239.758 460.889 239.968 460.168 239.968C458.921 239.968 457.884 239.515 457.058 238.61C456.231 237.704 455.811 236.654 455.798 235.46ZM461.801 234.338C461.657 232.659 461.034 231.766 459.931 231.661H459.892C459.787 231.661 459.682 231.668 459.577 231.681C459.472 231.694 459.308 231.747 459.085 231.839C458.862 231.93 458.672 232.068 458.514 232.252C458.357 232.436 458.206 232.705 458.061 233.059C457.917 233.413 457.812 233.846 457.747 234.358V234.496H461.801V234.338Z" fill="#202020"/>
<path d="M465.344 227.764C465.344 227.396 465.462 227.108 465.699 226.898C465.935 226.688 466.224 226.583 466.565 226.583C466.866 226.609 467.129 226.721 467.352 226.917C467.575 227.114 467.687 227.396 467.687 227.764C467.687 228.157 467.575 228.453 467.352 228.65C467.129 228.846 466.853 228.945 466.525 228.945C466.197 228.945 465.922 228.846 465.699 228.65C465.476 228.453 465.357 228.157 465.344 227.764ZM468.848 239.751C468.651 239.712 467.969 239.692 466.801 239.692C466.657 239.692 466.414 239.692 466.073 239.692C465.731 239.692 465.403 239.705 465.088 239.731L464.655 239.751H464.498V238.846H464.813C465.18 238.846 465.502 238.826 465.777 238.786C465.895 238.734 465.968 238.662 465.994 238.57C466.02 238.478 466.033 238.203 466.033 237.743V235.716V233.984C466.033 233.301 466.02 232.868 465.994 232.685C465.968 232.501 465.876 232.376 465.718 232.311C465.535 232.219 465.226 232.173 464.793 232.173H464.577V231.72C464.577 231.418 464.59 231.267 464.616 231.267L464.813 231.248C464.944 231.235 465.128 231.221 465.364 231.208C465.6 231.195 465.836 231.182 466.073 231.169C466.296 231.156 466.532 231.143 466.781 231.13C467.031 231.117 467.221 231.097 467.352 231.071C467.483 231.044 467.555 231.038 467.569 231.051H467.628V238.531C467.693 238.662 467.772 238.741 467.864 238.767C467.956 238.793 468.185 238.819 468.553 238.846H469.005V239.751H468.848Z" fill="#202020"/>
<path d="M475.934 231.7C476.511 231.123 477.167 230.834 477.902 230.834C478.296 230.834 478.578 230.959 478.749 231.208C478.919 231.458 479.005 231.707 479.005 231.956C479.005 232.14 478.946 232.304 478.827 232.448C478.709 232.593 478.532 232.665 478.296 232.665C477.863 232.665 477.62 232.468 477.568 232.074C477.541 231.891 477.561 231.753 477.627 231.661C477.627 231.648 477.633 231.628 477.646 231.602V231.582C477.279 231.622 476.931 231.766 476.603 232.015C476.498 232.081 476.446 232.127 476.446 232.153C476.446 232.166 476.472 232.199 476.524 232.251C476.577 232.304 476.636 232.383 476.702 232.488C476.767 232.593 476.839 232.711 476.918 232.842C476.997 232.973 477.056 233.144 477.095 233.354C477.135 233.564 477.161 233.78 477.174 234.003C477.174 234.817 476.853 235.506 476.21 236.07C475.567 236.634 474.773 236.923 473.828 236.936C473.172 236.936 472.522 236.752 471.879 236.385C471.735 236.621 471.663 236.871 471.663 237.133C471.663 237.592 471.833 237.933 472.174 238.157C472.293 238.235 472.404 238.275 472.509 238.275C472.614 238.275 473.086 238.288 473.926 238.314C475.029 238.327 475.737 238.366 476.052 238.432C476.853 238.55 477.482 238.819 477.942 239.239C478.453 239.751 478.709 240.394 478.709 241.168C478.709 242.047 478.198 242.723 477.174 243.195C476.387 243.602 475.455 243.806 474.379 243.806C473.29 243.806 472.352 243.602 471.564 243.195C470.541 242.736 470.029 242.08 470.029 241.227C470.029 240.755 470.167 240.361 470.442 240.046C470.718 239.731 470.993 239.515 471.269 239.397L471.486 239.278C471.013 238.872 470.777 238.321 470.777 237.625C470.777 237.008 470.967 236.451 471.348 235.952C470.77 235.375 470.482 234.725 470.482 234.003C470.482 233.177 470.81 232.481 471.466 231.917C472.122 231.353 472.916 231.064 473.848 231.051C474.517 231.051 475.14 231.221 475.717 231.563L475.934 231.7ZM475.343 232.999C475.278 232.632 475.107 232.343 474.832 232.133C474.556 231.923 474.215 231.812 473.808 231.799C473.428 231.799 473.1 231.904 472.824 232.114C472.548 232.324 472.378 232.619 472.312 232.999C472.273 233.223 472.253 233.557 472.253 234.003C472.253 234.581 472.299 235.007 472.391 235.283C472.483 235.558 472.68 235.788 472.981 235.972C473.205 236.103 473.487 236.168 473.828 236.168C474.117 236.168 474.366 236.123 474.576 236.031C474.786 235.939 474.937 235.821 475.029 235.676C475.12 235.532 475.193 235.401 475.245 235.283C475.298 235.165 475.33 235.066 475.343 234.987C475.383 234.778 475.403 234.449 475.403 234.003C475.403 233.557 475.383 233.223 475.343 232.999ZM477.391 241.227C477.391 240.899 477.299 240.63 477.115 240.42C476.931 240.21 476.662 240.059 476.308 239.967C475.954 239.876 475.632 239.816 475.343 239.79C475.055 239.764 474.7 239.751 474.281 239.751H473.749C472.87 239.751 472.345 239.79 472.174 239.869C471.912 239.987 471.709 240.171 471.564 240.42C471.42 240.669 471.341 240.932 471.328 241.207C471.328 241.339 471.367 241.49 471.446 241.66C471.525 241.831 471.663 242.028 471.859 242.251C472.056 242.474 472.371 242.657 472.804 242.802C473.237 242.946 473.762 243.025 474.379 243.038C475.284 243.038 476.013 242.854 476.564 242.487C477.115 242.119 477.391 241.7 477.391 241.227Z" fill="#202020"/>
<path d="M479.851 235.46C479.851 234.739 479.982 234.082 480.245 233.492C480.507 232.901 480.835 232.422 481.229 232.055C481.622 231.688 482.049 231.412 482.508 231.228C482.967 231.045 483.401 230.946 483.807 230.933C484.503 230.933 485.1 231.051 485.599 231.287C486.097 231.524 486.478 231.852 486.74 232.272C487.003 232.691 487.186 233.111 487.291 233.531C487.396 233.951 487.455 234.417 487.468 234.929C487.468 235.021 487.423 235.113 487.331 235.204H481.78V235.5C481.78 237.442 482.436 238.623 483.748 239.043C484.011 239.121 484.299 239.161 484.614 239.161C485.165 239.161 485.638 238.951 486.032 238.531C486.255 238.308 486.432 238.032 486.563 237.704L486.76 237.232C486.799 237.192 486.904 237.173 487.075 237.173H487.134C487.357 237.173 487.468 237.238 487.468 237.37C487.468 237.422 487.449 237.507 487.409 237.625C487.16 238.347 486.747 238.918 486.169 239.338C485.592 239.758 484.942 239.968 484.221 239.968C482.974 239.968 481.937 239.515 481.111 238.61C480.284 237.704 479.864 236.654 479.851 235.46ZM485.854 234.338C485.71 232.659 485.087 231.766 483.984 231.661H483.945C483.84 231.661 483.735 231.668 483.63 231.681C483.525 231.694 483.361 231.747 483.138 231.839C482.915 231.93 482.725 232.068 482.567 232.252C482.41 232.436 482.259 232.705 482.115 233.059C481.97 233.413 481.865 233.846 481.8 234.358V234.496H485.854V234.338Z" fill="#202020"/>
<path d="M488.846 238.846H489.122C489.634 238.846 489.942 238.754 490.047 238.57V238.413C490.047 238.294 490.047 238.143 490.047 237.96C490.047 237.776 490.047 237.573 490.047 237.35C490.047 237.127 490.054 236.871 490.067 236.582C490.08 236.293 490.08 236.018 490.067 235.755C490.067 235.348 490.067 234.915 490.067 234.456C490.067 233.997 490.06 233.61 490.047 233.295V232.842C490.008 232.593 489.916 232.429 489.771 232.35C489.627 232.271 489.332 232.212 488.886 232.173H488.531V231.72C488.531 231.418 488.544 231.267 488.571 231.267L488.768 231.248C488.899 231.235 489.083 231.221 489.319 231.208C489.555 231.195 489.798 231.182 490.047 231.169C490.27 231.156 490.506 231.143 490.756 231.13C491.005 231.117 491.195 231.097 491.326 231.071C491.458 231.044 491.53 231.038 491.543 231.051H491.602V231.838C491.602 232.337 491.609 232.586 491.622 232.586C491.635 232.586 491.668 232.553 491.72 232.488C491.773 232.422 491.851 232.324 491.956 232.193C492.061 232.061 492.186 231.943 492.33 231.838C492.475 231.733 492.665 231.609 492.901 231.464C493.137 231.32 493.387 231.215 493.649 231.149C493.912 231.084 494.246 231.051 494.653 231.051C496.149 231.103 496.982 231.845 497.153 233.275C497.166 233.367 497.172 234.279 497.172 236.011V237.704C497.172 238.203 497.186 238.498 497.212 238.59C497.238 238.682 497.31 238.747 497.428 238.786C497.704 238.826 498.025 238.846 498.393 238.846H498.708V239.751H498.55L498.078 239.731C497.776 239.718 497.448 239.712 497.094 239.712C496.739 239.712 496.49 239.705 496.346 239.692C494.994 239.692 494.259 239.712 494.141 239.751H493.984V238.846H494.299C495.099 238.846 495.499 238.741 495.499 238.531C495.512 238.504 495.519 237.599 495.519 235.814C495.506 234.043 495.493 233.105 495.48 233C495.401 232.632 495.27 232.357 495.086 232.173C494.902 231.989 494.745 231.878 494.614 231.838C494.482 231.799 494.312 231.786 494.102 231.799C493.511 231.799 492.993 232.022 492.547 232.468C492.192 232.822 491.969 233.183 491.878 233.551C491.786 233.918 491.733 234.463 491.72 235.184V236.444V237.625C491.72 238.019 491.727 238.281 491.74 238.413C491.753 238.544 491.773 238.629 491.799 238.668C491.825 238.708 491.884 238.747 491.976 238.786C492.252 238.826 492.573 238.846 492.94 238.846H493.255V239.751H493.098L492.645 239.731C492.33 239.718 491.996 239.712 491.641 239.712C491.287 239.712 491.038 239.705 490.893 239.692C489.542 239.692 488.807 239.712 488.689 239.751H488.531V238.846H488.846Z" fill="#202020"/>
<path d="M505.636 231.268C505.715 231.294 506.266 231.307 507.29 231.307C508.038 231.307 508.569 231.294 508.884 231.268H508.982V232.173H508.766C508.005 232.226 507.519 232.488 507.309 232.96C507.283 233.013 506.844 234.148 505.991 236.366C505.138 238.583 504.691 239.725 504.652 239.791C504.586 239.909 504.422 239.968 504.16 239.968C503.911 239.968 503.753 239.909 503.688 239.791C501.85 235.053 500.925 232.652 500.912 232.586C500.847 232.403 500.742 232.291 500.597 232.252C500.453 232.213 500.197 232.186 499.83 232.173H499.357V231.268H499.475L499.633 231.287C499.738 231.287 499.869 231.287 500.026 231.287C500.184 231.287 500.355 231.287 500.538 231.287C500.722 231.287 500.886 231.294 501.03 231.307C501.175 231.32 501.293 231.327 501.385 231.327C502.631 231.327 503.353 231.307 503.55 231.268H503.707V232.173H503.432C502.92 232.186 502.644 232.285 502.605 232.468C502.605 232.521 502.94 233.413 503.609 235.145L504.613 237.744L506.404 233.039V232.882C506.404 232.698 506.338 232.547 506.207 232.429C506.076 232.311 505.958 232.239 505.853 232.213C505.748 232.186 505.656 232.173 505.577 232.173H505.498V231.268H505.636Z" fill="#202020"/>
<path d="M512.073 233.748C512.073 233.748 511.928 233.748 511.64 233.748C511.351 233.748 511.108 233.649 510.911 233.453C510.715 233.256 510.616 233 510.616 232.685C510.616 232.226 510.839 231.819 511.285 231.465C511.732 231.11 512.525 230.933 513.667 230.933C514.625 230.933 515.399 231.143 515.99 231.563C516.58 231.983 516.974 232.482 517.171 233.059C517.236 233.243 517.269 233.446 517.269 233.669C517.269 233.892 517.276 234.647 517.289 235.933V237.311C517.289 237.94 517.322 238.373 517.387 238.61C517.453 238.846 517.591 238.964 517.801 238.964C517.997 238.964 518.129 238.859 518.194 238.649C518.26 238.439 518.293 238.091 518.293 237.606V236.897H519.08V237.665C519.067 238.19 519.047 238.498 519.021 238.59C518.903 238.984 518.673 239.292 518.332 239.515C517.991 239.738 517.63 239.856 517.249 239.869C516.869 239.882 516.561 239.764 516.324 239.515C516.088 239.266 515.931 238.99 515.852 238.688V238.61L515.813 238.669C515.786 238.708 515.754 238.747 515.714 238.787C515.675 238.826 515.622 238.885 515.557 238.964C515.491 239.043 515.412 239.115 515.321 239.18C515.229 239.246 515.13 239.325 515.025 239.417C514.92 239.508 514.802 239.581 514.671 239.633C514.54 239.686 514.395 239.738 514.238 239.791C514.08 239.843 513.91 239.882 513.726 239.909C513.542 239.935 513.339 239.955 513.116 239.968C512.329 239.968 511.62 239.764 510.99 239.358C510.36 238.951 510.045 238.38 510.045 237.645C510.045 237.37 510.091 237.107 510.183 236.858C510.275 236.608 510.452 236.339 510.715 236.051C510.977 235.762 511.292 235.519 511.659 235.322C512.027 235.126 512.539 234.942 513.195 234.771C513.851 234.601 514.573 234.502 515.36 234.476H515.635V234.043C515.635 233.597 515.596 233.269 515.517 233.059C515.229 232.127 514.592 231.661 513.608 231.661C513.372 231.661 513.149 231.668 512.939 231.681C512.729 231.694 512.565 231.72 512.447 231.76C512.329 231.799 512.276 231.819 512.289 231.819C512.578 232.016 512.722 232.304 512.722 232.685C512.722 233.013 512.617 233.269 512.407 233.453L512.073 233.748ZM511.856 237.665C511.856 238.072 512.014 238.432 512.329 238.747C512.644 239.062 513.031 239.226 513.49 239.239C513.989 239.239 514.428 239.089 514.809 238.787C515.189 238.485 515.445 238.091 515.576 237.606C515.603 237.514 515.622 237.081 515.635 236.307C515.635 235.546 515.629 235.165 515.616 235.165C515.511 235.165 515.373 235.172 515.202 235.185C515.032 235.198 514.737 235.257 514.317 235.362C513.897 235.467 513.516 235.598 513.175 235.756C512.834 235.913 512.532 236.156 512.27 236.484C512.007 236.812 511.869 237.206 511.856 237.665Z" fill="#202020"/>
<path d="M520.045 238.846H520.32C520.832 238.846 521.14 238.754 521.245 238.57V238.413C521.245 238.294 521.245 238.143 521.245 237.96C521.245 237.776 521.245 237.56 521.245 237.31C521.245 237.061 521.252 236.779 521.265 236.464C521.278 236.149 521.278 235.821 521.265 235.48C521.252 235.138 521.252 234.778 521.265 234.397C521.278 234.017 521.278 233.643 521.265 233.275C521.265 232.79 521.265 232.278 521.265 231.74C521.265 231.202 521.265 230.71 521.265 230.264C521.265 229.817 521.265 229.424 521.265 229.083C521.265 228.741 521.258 228.453 521.245 228.216C521.232 227.98 521.232 227.869 521.245 227.882C521.206 227.633 521.114 227.469 520.97 227.39C520.825 227.311 520.53 227.252 520.084 227.213H519.73V226.76C519.73 226.458 519.743 226.307 519.769 226.307L519.966 226.288C520.097 226.274 520.287 226.261 520.537 226.248C520.786 226.235 521.029 226.222 521.265 226.209C521.488 226.196 521.731 226.183 521.993 226.169C522.256 226.156 522.452 226.137 522.584 226.11C522.715 226.084 522.787 226.078 522.8 226.091H522.859V232.291C522.859 236.451 522.866 238.544 522.879 238.57C522.931 238.675 523.01 238.747 523.115 238.786C523.391 238.826 523.712 238.846 524.08 238.846H524.395V239.751H524.237L523.784 239.731C523.483 239.718 523.161 239.712 522.82 239.712C522.479 239.712 522.229 239.705 522.072 239.692C521.914 239.679 521.665 239.679 521.324 239.692C520.983 239.705 520.655 239.718 520.34 239.731L519.887 239.751H519.73V238.846H520.045Z" fill="#202020"/>
<path d="M532.229 238.61C531.494 239.502 530.66 239.948 529.729 239.948H529.591C527.951 239.948 527.006 239.299 526.757 237.999C526.743 237.908 526.73 237.009 526.717 235.303C526.704 233.872 526.698 233.072 526.698 232.901C526.698 232.731 526.658 232.593 526.579 232.488C526.448 232.278 526.055 232.173 525.398 232.173H525.182V231.72C525.182 231.419 525.195 231.268 525.221 231.268L525.438 231.248C525.569 231.235 525.759 231.222 526.009 231.209C526.258 231.196 526.507 231.182 526.757 231.169C526.98 231.156 527.222 231.143 527.485 231.13C527.747 231.117 527.944 231.097 528.075 231.071C528.207 231.045 528.285 231.038 528.312 231.051H528.371V234.614C528.384 237.028 528.403 238.321 528.43 238.492C528.469 238.688 528.561 238.846 528.705 238.964C528.968 239.148 529.361 239.239 529.886 239.239C530.227 239.239 530.536 239.18 530.811 239.062C531.087 238.944 531.297 238.793 531.441 238.61C531.586 238.426 531.717 238.216 531.835 237.98C531.953 237.744 532.032 237.547 532.071 237.389C532.11 237.232 532.137 237.074 532.15 236.917C532.15 236.904 532.15 236.792 532.15 236.582C532.15 236.372 532.156 236.11 532.17 235.795C532.183 235.48 532.183 235.172 532.17 234.87V233.551C532.17 232.947 532.104 232.573 531.973 232.429C531.841 232.285 531.513 232.199 530.988 232.173H530.634V231.268C530.66 231.268 531.159 231.235 532.13 231.169C533.101 231.104 533.62 231.064 533.685 231.051H533.823V234.555C533.823 236.917 533.829 238.118 533.843 238.157C533.882 238.419 533.974 238.59 534.118 238.669C534.263 238.747 534.558 238.806 535.004 238.846H535.358V239.751C535.332 239.751 534.84 239.784 533.882 239.85C532.924 239.915 532.419 239.955 532.366 239.968H532.229V238.61Z" fill="#202020"/>
<path d="M536.185 235.46C536.185 234.739 536.316 234.082 536.579 233.492C536.841 232.901 537.169 232.422 537.563 232.055C537.956 231.688 538.383 231.412 538.842 231.228C539.301 231.045 539.735 230.946 540.141 230.933C540.837 230.933 541.434 231.051 541.932 231.287C542.431 231.524 542.812 231.852 543.074 232.272C543.337 232.691 543.52 233.111 543.625 233.531C543.73 233.951 543.789 234.417 543.802 234.929C543.802 235.021 543.756 235.113 543.665 235.204H538.114V235.5C538.114 237.442 538.77 238.623 540.082 239.043C540.345 239.121 540.633 239.161 540.948 239.161C541.499 239.161 541.972 238.951 542.366 238.531C542.589 238.308 542.766 238.032 542.897 237.704L543.094 237.232C543.133 237.192 543.238 237.173 543.409 237.173H543.468C543.691 237.173 543.802 237.238 543.802 237.37C543.802 237.422 543.783 237.507 543.743 237.625C543.494 238.347 543.081 238.918 542.503 239.338C541.926 239.758 541.276 239.968 540.555 239.968C539.308 239.968 538.271 239.515 537.445 238.61C536.618 237.704 536.198 236.654 536.185 235.46ZM542.188 234.338C542.044 232.659 541.421 231.766 540.318 231.661H540.279C540.174 231.661 540.069 231.668 539.964 231.681C539.859 231.694 539.695 231.747 539.472 231.839C539.249 231.93 539.059 232.068 538.901 232.252C538.744 232.436 538.593 232.705 538.449 233.059C538.304 233.413 538.199 233.846 538.134 234.358V234.496H542.188V234.338Z" fill="#202020"/>
<path d="M553.487 228.374L553.231 228.472C553.047 228.538 552.785 228.604 552.443 228.669C552.102 228.735 551.722 228.781 551.302 228.807H550.928V227.902H551.302C551.919 227.875 552.489 227.777 553.014 227.606C553.539 227.436 553.907 227.278 554.117 227.134C554.326 226.99 554.51 226.845 554.668 226.701C554.694 226.661 554.773 226.642 554.904 226.642C555.022 226.642 555.133 226.681 555.238 226.76V232.645L555.258 238.55C555.35 238.642 555.429 238.701 555.494 238.727C555.56 238.754 555.717 238.78 555.967 238.806C556.216 238.832 556.623 238.846 557.187 238.846H557.699V239.751H557.482C557.207 239.712 556.164 239.692 554.353 239.692C552.568 239.692 551.538 239.712 551.262 239.751H551.026V238.846H551.538C551.827 238.846 552.076 238.846 552.286 238.846C552.496 238.846 552.66 238.839 552.778 238.826C552.896 238.813 553.001 238.793 553.093 238.767C553.185 238.741 553.237 238.727 553.25 238.727C553.264 238.727 553.303 238.695 553.369 238.629C553.434 238.563 553.474 238.537 553.487 238.55V228.374Z" fill="#1AA59B"/>
<path d="M345 173.25L360 180L345 186.75L348 180L345 173.25Z" fill="#40A839"/>
<path d="M320 180H356" stroke="#40A839" stroke-width="1.5"/>
<path d="M344.62 145.834L360 140L354.166 155.38L351.515 148.486L344.62 145.834Z" fill="#C74440"/>
<path d="M320 180L357.172 142.828" stroke="#C74440" stroke-width="1.5"/>
</g>
<defs>
<clipPath id="clip0_1444_6406">
<rect width="640" height="360" fill="white"/>
</clipPath>
<clipPath id="clip1_1444_6406">
<rect width="640" height="360" fill="white"/>
</clipPath>
<clipPath id="clip2_1444_6406">
<rect width="2560" height="1440" fill="white" transform="translate(-960 -540)"/>
</clipPath>
</defs>
</svg>
