<svg width="640" height="360" viewBox="0 0 640 360" fill="none" xmlns="http://www.w3.org/2000/svg">
<g clip-path="url(#clip0_1436_2487)">
<path d="M640 0H0V360H640V0Z" fill="white"/>
<path d="M640 0H0V360H640V0Z" stroke="#A0A0A0" stroke-width="2"/>
<g clip-path="url(#clip1_1436_2487)">
<path d="M160 1460L-2400 -1100" stroke="#7684FE" stroke-opacity="0.75" stroke-width="1.12818"/>
<path d="M240 1460L-2320 -1100" stroke="#7684FE" stroke-opacity="0.75" stroke-width="1.12818"/>
<path d="M320 1460L-2240 -1100" stroke="#7684FE" stroke-opacity="0.75" stroke-width="1.12818"/>
<path d="M400 1460L-2160 -1100" stroke="#7684FE" stroke-opacity="0.75" stroke-width="1.12818"/>
<path d="M480 1460L-2080 -1100" stroke="#7684FE" stroke-opacity="0.75" stroke-width="1.12818"/>
<path d="M560 1460L-2000 -1100" stroke="#7684FE" stroke-opacity="0.75" stroke-width="1.12818"/>
<path d="M640 1460L-1920 -1100" stroke="#7684FE" stroke-opacity="0.75" stroke-width="1.12818"/>
<path d="M720 1460L-1840 -1100" stroke="#7684FE" stroke-opacity="0.75" stroke-width="1.12818"/>
<path d="M800 1460L-1760 -1100" stroke="#7684FE" stroke-opacity="0.75" stroke-width="1.12818"/>
<path d="M880 1460L-1680 -1100" stroke="#7684FE" stroke-opacity="0.75" stroke-width="1.12818"/>
<path d="M960 1460L-1600 -1100" stroke="#7684FE" stroke-opacity="0.75" stroke-width="1.12818"/>
<path d="M1040 1460L-1520 -1100" stroke="#7684FE" stroke-opacity="0.75" stroke-width="1.12818"/>
<path d="M1120 1460L-1440 -1100" stroke="#7684FE" stroke-opacity="0.75" stroke-width="1.12818"/>
<path d="M1200 1460L-1360 -1100" stroke="#7684FE" stroke-opacity="0.75" stroke-width="1.12818"/>
<path d="M1280 1460L-1280 -1100" stroke="#7684FE" stroke-opacity="0.75" stroke-width="1.12818"/>
<path d="M1360 1460L-1200 -1100" stroke="#7684FE" stroke-opacity="0.75" stroke-width="1.12818"/>
<path d="M1440 1460L-1120 -1100" stroke="#7684FE" stroke-opacity="0.75" stroke-width="1.12818"/>
<path d="M1520 1460L-1040 -1100" stroke="#7684FE" stroke-opacity="0.75" stroke-width="1.12818"/>
<path d="M1600 1460L-960 -1100" stroke="#7684FE" stroke-opacity="0.75" stroke-width="1.12818"/>
<path d="M1680 1460L-880 -1100" stroke="#7684FE" stroke-opacity="0.75" stroke-width="1.12818"/>
<path d="M1760 1460L-800 -1100" stroke="#7684FE" stroke-opacity="0.75" stroke-width="1.12818"/>
<path d="M1840 1460L-720 -1100" stroke="#7684FE" stroke-opacity="0.75" stroke-width="1.12818"/>
<path d="M1920 1460L-640 -1100" stroke="#7684FE" stroke-opacity="0.75" stroke-width="1.12818"/>
<path d="M2000 1460L-560 -1100" stroke="#7684FE" stroke-opacity="0.75" stroke-width="1.12818"/>
<path d="M2080 1460L-480 -1100" stroke="#7684FE" stroke-opacity="0.75" stroke-width="1.12818"/>
<path d="M2160 1460L-400 -1100" stroke="#7684FE" stroke-opacity="0.75" stroke-width="1.12818"/>
<path d="M2240 1460L-320 -1100" stroke="#7684FE" stroke-opacity="0.75" stroke-width="1.12818"/>
<path d="M2320 1460L-240 -1100" stroke="#7684FE" stroke-opacity="0.75" stroke-width="1.12818"/>
<path d="M2400 1460L-160 -1100" stroke="#7684FE" stroke-opacity="0.75" stroke-width="1.12818"/>
<path d="M2480 1460L-80 -1100" stroke="#7684FE" stroke-opacity="0.75" stroke-width="1.12818"/>
<path d="M2560 1460L4.44667e-05 -1100" stroke="#7684FE" stroke-opacity="0.75" stroke-width="1.12818"/>
<path d="M2640 1460L80 -1100" stroke="#7684FE" stroke-opacity="0.75" stroke-width="1.12818"/>
<path d="M2720 1460L160 -1100" stroke="#7684FE" stroke-opacity="0.75" stroke-width="1.12818"/>
<path d="M2800 1460L240 -1100" stroke="#7684FE" stroke-opacity="0.75" stroke-width="1.12818"/>
<path d="M2880 1460L320 -1100" stroke="#7684FE" stroke-opacity="0.75" stroke-width="1.12818"/>
<path d="M2960 1460L400 -1100" stroke="#7684FE" stroke-opacity="0.75" stroke-width="1.12818"/>
<path d="M3040 1460L480 -1100" stroke="#7684FE" stroke-opacity="0.75" stroke-width="1.12818"/>
<path d="M-960 340H1920" stroke="#7684FE" stroke-opacity="0.75" stroke-width="1.12818"/>
<path d="M-1000 300H1880" stroke="#7684FE" stroke-opacity="0.75" stroke-width="1.12818"/>
<path d="M-1040 260H1840" stroke="#7684FE" stroke-opacity="0.75" stroke-width="1.12818"/>
<path d="M-1080 220H1800" stroke="#7684FE" stroke-opacity="0.75" stroke-width="1.12818"/>
<path d="M-1120 180H1760" stroke="#7684FE" stroke-opacity="0.75" stroke-width="1.12818"/>
<path d="M-1160 140H1720" stroke="#7684FE" stroke-opacity="0.75" stroke-width="1.12818"/>
<path d="M-1200 100H1680" stroke="#7684FE" stroke-opacity="0.75" stroke-width="1.12818"/>
<path d="M-1240 60H1640" stroke="#7684FE" stroke-opacity="0.75" stroke-width="1.12818"/>
<path d="M-1280 20H1600" stroke="#7684FE" stroke-opacity="0.75" stroke-width="1.12818"/>
<path d="M-960 -1100L1600 1460" stroke="#6D79EB" stroke-width="1.12818"/>
<path d="M-1120 180H1760" stroke="#6D79EB" stroke-width="1.12818"/>
</g>
<path d="M320 180H400L360 140H280L320 180Z" fill="#A452CE" fill-opacity="0.2" stroke="#A452CE" stroke-width="1.5"/>
<path d="M285.834 155.38L280 140L295.38 145.834L288.485 148.486L285.834 155.38Z" fill="#40A839"/>
<path d="M320 180L282.828 142.828" stroke="#40A839" stroke-width="1.5"/>
<path d="M385 173.25L400 180L385 186.75L388 180L385 173.25Z" fill="#C74440"/>
<path d="M320 180H396" stroke="#C74440" stroke-width="1.5"/>
<path d="M374.98 32.3262H53.0283V85.695H374.98V32.3262Z" fill="white"/>
<g clip-path="url(#clip2_1436_2487)">
<path d="M63.758 55.1144C63.758 54.9044 63.758 54.6419 63.758 54.327C63.758 54.0121 63.7646 53.7956 63.7777 53.6775C63.7777 53.0869 63.7121 52.7195 63.5809 52.5752C63.4496 52.4308 63.115 52.3455 62.577 52.3193H62.2227V51.8666C62.2227 51.5648 62.2358 51.4138 62.2621 51.4138L62.4589 51.3942C62.5901 51.381 62.7804 51.3679 63.0297 51.3548C63.279 51.3417 63.5218 51.3286 63.758 51.3154C63.9811 51.3023 64.2239 51.2892 64.4863 51.2761C64.7488 51.2629 64.9456 51.2433 65.0768 51.217C65.208 51.1908 65.2802 51.1842 65.2933 51.1973H65.3524V57.1811C65.3524 61.1966 65.3589 63.224 65.3721 63.2633C65.4114 63.5258 65.5033 63.6964 65.6476 63.7751C65.792 63.8538 66.0872 63.9129 66.5334 63.9523H66.8877V64.8577C66.8614 64.8577 66.3628 64.8905 65.3917 64.9561C64.4207 65.0217 63.9024 65.0611 63.8367 65.0742H63.699V63.9916L63.5415 64.1294C62.7804 64.7593 61.9274 65.0742 60.9826 65.0742C59.9722 65.0742 59.0602 64.674 58.2466 63.8735C57.433 63.0731 57.0262 61.9905 57.0262 60.6257C57.0262 59.3135 57.4396 58.244 58.2663 57.4173C59.093 56.5906 60.0575 56.1707 61.1598 56.1576C62.144 56.1576 63.01 56.4791 63.758 57.1221V55.1144ZM63.699 58.1259C63.1085 57.2992 62.367 56.8859 61.4747 56.8859C60.8317 56.8859 60.2609 57.1221 59.7623 57.5945C59.408 57.9619 59.1849 58.3818 59.093 58.8542C59.0012 59.3266 58.9487 59.9434 58.9355 60.7045C58.9355 61.4393 58.9815 62.0364 59.0733 62.4957C59.1652 62.955 59.3948 63.3552 59.7623 63.6964C60.1559 64.1294 60.6677 64.3459 61.2976 64.3459C62.2293 64.3459 63.0297 63.8407 63.699 62.8303V58.1259Z" fill="#202020"/>
<path d="M67.8522 60.5667C67.8522 59.845 67.9834 59.1888 68.2458 58.5983C68.5083 58.0078 68.8363 57.5289 69.23 57.1614C69.6237 56.794 70.0502 56.5184 70.5094 56.3347C70.9687 56.151 71.4018 56.0526 71.8086 56.0395C72.504 56.0395 73.1011 56.1576 73.5998 56.3938C74.0984 56.63 74.479 56.958 74.7414 57.378C75.0039 57.7979 75.1876 58.2178 75.2925 58.6377C75.3975 59.0576 75.4566 59.5235 75.4697 60.0352C75.4697 60.1271 75.4238 60.2189 75.3319 60.3108H69.7812V60.6061C69.7812 62.5482 70.4373 63.7292 71.7495 64.1491C72.012 64.2278 72.3007 64.2672 72.6156 64.2672C73.1667 64.2672 73.6391 64.0572 74.0328 63.6373C74.2559 63.4142 74.433 63.1387 74.5643 62.8106L74.7611 62.3382C74.8005 62.2988 74.9054 62.2792 75.076 62.2792H75.1351C75.3582 62.2792 75.4697 62.3448 75.4697 62.476C75.4697 62.5285 75.45 62.6138 75.4106 62.7319C75.1613 63.4536 74.748 64.0244 74.1706 64.4443C73.5932 64.8643 72.9436 65.0742 72.2219 65.0742C70.9753 65.0742 69.9386 64.6215 69.1119 63.7161C68.2852 62.8106 67.8653 61.7608 67.8522 60.5667ZM73.8556 59.4447C73.7113 57.7651 73.088 56.8727 71.9857 56.7678H71.9463C71.8414 56.7678 71.7364 56.7743 71.6314 56.7875C71.5264 56.8006 71.3624 56.8531 71.1393 56.9449C70.9162 57.0368 70.726 57.1746 70.5685 57.3583C70.411 57.542 70.2601 57.811 70.1158 58.1653C69.9714 58.5196 69.8665 58.9526 69.8008 59.4644V59.6022H73.8556V59.4447Z" fill="#202020"/>
<path d="M76.572 56.5514C77.2675 56.4989 77.8055 56.1315 78.186 55.4491C78.5666 54.7668 78.7765 53.9663 78.8159 53.0477V52.7525H79.6033V56.3743H82.2605V57.2797H79.6033V60.1141C79.6164 61.7544 79.6229 62.6795 79.6229 62.8895C79.6229 63.0995 79.6689 63.3094 79.7607 63.5194C79.9444 64.0311 80.2659 64.287 80.7252 64.287C81.3026 64.287 81.6569 63.8212 81.7881 62.8895C81.8012 62.7845 81.8078 62.4827 81.8078 61.9841V61.2951H82.5951V61.9841V62.2203C82.5951 63.2307 82.3196 63.9983 81.7684 64.5232C81.4141 64.8775 80.9549 65.0547 80.3906 65.0547C79.9444 65.0547 79.5573 64.976 79.2293 64.8185C78.9012 64.661 78.6519 64.4576 78.4813 64.2083C78.3107 63.959 78.186 63.7293 78.1073 63.5194C78.0286 63.3094 77.9826 63.0995 77.9695 62.8895C77.9564 62.7976 77.9498 61.8266 77.9498 59.9763V57.2797H76.3948V56.5514H76.572Z" fill="#202020"/>
<path d="M100.777 83.3697C100.777 83.4091 100.737 83.4681 100.659 83.5469H100.049C100.022 83.5206 99.8386 83.3435 99.4974 83.0154C99.1562 82.6874 98.861 82.4052 98.6116 82.169C98.3623 81.9328 98.008 81.5326 97.5487 80.9683C97.0894 80.4041 96.6827 79.8726 96.3284 79.374C95.974 78.8753 95.5607 78.2126 95.0883 77.3859C94.6159 76.5592 94.2091 75.7391 93.8679 74.9255C93.5267 74.1119 93.1659 73.1343 92.7853 71.9926C92.4048 70.851 92.1095 69.6962 91.8996 68.5283C91.6896 67.3605 91.4993 66.0285 91.3287 64.5326C91.1581 63.0366 91.0794 61.5013 91.0925 59.9266C91.0925 50.5966 93.4808 43.3137 98.2573 38.0779C98.5592 37.7499 98.8413 37.4612 99.1037 37.2118C99.3662 36.9625 99.5827 36.7526 99.7533 36.582C99.9239 36.4114 100.022 36.3261 100.049 36.3261H100.659C100.737 36.4048 100.777 36.4639 100.777 36.5032C100.777 36.5688 100.646 36.7394 100.383 37.015C100.121 37.2906 99.7795 37.6777 99.3596 38.1763C98.9397 38.675 98.4673 39.2983 97.9424 40.0463C97.4175 40.7942 96.8861 41.7325 96.348 42.861C95.81 43.9895 95.3114 45.2427 94.8521 46.6206C94.3928 47.9984 93.9991 49.6518 93.6711 51.5808C93.343 53.5098 93.1331 55.5831 93.0412 57.8008C93.015 58.2995 93.0018 59.0146 93.0018 59.9463C93.0018 65.0509 93.6186 69.5125 94.8521 73.3311C96.0856 77.1497 97.9883 80.3909 100.56 83.0548C100.705 83.2123 100.777 83.3172 100.777 83.3697Z" fill="#202020"/>
<path d="M106.328 83.5469V36.3261H111.622V37.5465H107.548V82.3265H111.622V83.5469H106.328Z" fill="#202020"/>
<path d="M114.004 42.6358C113.65 42.6358 113.368 42.5177 113.158 42.2815C112.948 42.0453 112.843 41.7566 112.843 41.4155C112.843 40.4838 113.191 39.6768 113.886 38.9944C114.582 38.312 115.448 37.9708 116.484 37.9708C117.678 37.9708 118.676 38.3383 119.476 39.0731C120.277 39.808 120.683 40.7593 120.697 41.9272C120.697 42.4915 120.565 43.0295 120.303 43.5413C120.04 44.0531 119.726 44.4992 119.358 44.8798C118.991 45.2603 118.466 45.7458 117.783 46.3363C117.311 46.7431 116.655 47.3468 115.815 48.1472L114.654 49.2495L116.15 49.2692C118.21 49.2692 119.306 49.2364 119.437 49.1708C119.529 49.1445 119.686 48.5606 119.909 47.4189V47.3599H120.697V47.4189C120.683 47.4583 120.598 48.0554 120.441 49.2101C120.283 50.3649 120.185 50.9685 120.145 51.021V51.0801H112.843V50.7061V50.4699C112.843 50.378 112.882 50.2796 112.961 50.1746C113.04 50.0697 113.237 49.84 113.551 49.4857C113.932 49.0658 114.26 48.6984 114.536 48.3834C114.654 48.2522 114.877 48.0094 115.205 47.6551C115.533 47.3008 115.756 47.0581 115.874 46.9269C115.992 46.7956 116.182 46.5791 116.445 46.2773C116.707 45.9755 116.891 45.7524 116.996 45.6081C117.101 45.4637 117.252 45.2669 117.449 45.0176C117.646 44.7682 117.783 44.5583 117.862 44.3877C117.941 44.2171 118.039 44.0268 118.157 43.8169C118.275 43.6069 118.361 43.3969 118.413 43.187C118.466 42.977 118.512 42.7802 118.551 42.5965C118.59 42.4128 118.61 42.1962 118.61 41.9469C118.61 41.1202 118.387 40.405 117.941 39.8014C117.495 39.1978 116.858 38.896 116.032 38.896C115.599 38.896 115.218 39.0075 114.89 39.2306C114.562 39.4537 114.332 39.6702 114.201 39.8801C114.07 40.0901 114.004 40.2148 114.004 40.2541C114.004 40.2673 114.037 40.2738 114.103 40.2738C114.339 40.2738 114.582 40.3657 114.831 40.5494C115.08 40.7331 115.205 41.0349 115.205 41.4548C115.205 41.7829 115.1 42.0585 114.89 42.2815C114.68 42.5046 114.385 42.6227 114.004 42.6358Z" fill="#202020"/>
<path d="M127.728 46.4149C127.728 46.4149 127.728 46.3297 127.728 46.1591C127.728 45.9885 127.819 45.8572 128.003 45.7654H139.439C139.636 45.8704 139.734 46.0016 139.734 46.1591C139.734 46.3165 139.636 46.4478 139.439 46.5527H128.003C127.819 46.4609 127.728 46.3297 127.728 46.1591V46.4149Z" fill="#202020"/>
<path d="M148.261 41.9662C147.907 41.9662 147.632 41.8546 147.435 41.6316C147.238 41.4085 147.133 41.1198 147.12 40.7655C147.12 40.0438 147.435 39.4008 148.065 38.8365C148.694 38.2722 149.456 37.9901 150.348 37.9901C150.807 37.9901 151.096 37.9967 151.214 38.0098C152.185 38.1673 152.926 38.515 153.438 39.053C153.95 39.591 154.212 40.175 154.225 40.8049C154.225 41.4872 154.002 42.1499 153.556 42.7929C153.11 43.4359 152.493 43.9017 151.706 44.1904L151.647 44.2298C151.647 44.2429 151.706 44.2626 151.824 44.2888C151.942 44.3151 152.132 44.3741 152.395 44.466C152.657 44.5578 152.907 44.6956 153.143 44.8793C154.219 45.5748 154.757 46.4934 154.757 47.635C154.757 48.6717 154.35 49.5771 153.537 50.3514C152.723 51.1256 151.693 51.5127 150.446 51.5127C149.396 51.5127 148.491 51.2306 147.73 50.6663C146.969 50.102 146.588 49.3869 146.588 48.5208C146.588 48.1534 146.706 47.8581 146.943 47.635C147.179 47.412 147.474 47.2939 147.828 47.2807C148.196 47.2807 148.498 47.3988 148.734 47.635C148.97 47.8712 149.088 48.1665 149.088 48.5208C149.088 48.6651 149.068 48.7964 149.029 48.9145C148.99 49.0326 148.944 49.1375 148.891 49.2294C148.839 49.3213 148.767 49.4 148.675 49.4656C148.583 49.5312 148.504 49.5837 148.439 49.6231C148.373 49.6624 148.307 49.6887 148.242 49.7018C148.176 49.7149 148.124 49.7346 148.084 49.7609L148.006 49.7805C148.675 50.3711 149.488 50.6663 150.446 50.6663C151.168 50.6663 151.713 50.3186 152.08 49.6231C152.303 49.19 152.415 48.5274 152.415 47.635V47.2414C152.415 45.9947 151.995 45.1615 151.155 44.7416C150.958 44.6628 150.558 44.6169 149.954 44.6038L149.127 44.5841L149.068 44.5447C149.042 44.5054 149.029 44.4004 149.029 44.2298C149.029 43.9936 149.082 43.8755 149.187 43.8755C149.554 43.8755 149.934 43.8427 150.328 43.7771C150.774 43.7115 151.181 43.4359 151.549 42.9504C151.916 42.4648 152.1 41.73 152.1 40.7458V40.5883C152.1 39.8404 151.87 39.322 151.411 39.0333C151.122 38.8496 150.814 38.7578 150.486 38.7578C150.066 38.7578 149.679 38.8299 149.324 38.9743C148.97 39.1186 148.721 39.2695 148.576 39.427C148.432 39.5845 148.36 39.6632 148.36 39.6632H148.419C148.458 39.6763 148.511 39.6895 148.576 39.7026C148.642 39.7157 148.708 39.7485 148.773 39.801C148.839 39.8535 148.918 39.8994 149.009 39.9388C149.101 39.9781 149.167 40.0503 149.206 40.1553C149.246 40.2603 149.298 40.3587 149.364 40.4506C149.429 40.5424 149.449 40.6736 149.423 40.8442C149.423 41.1329 149.331 41.3888 149.147 41.6119C148.963 41.835 148.668 41.9531 148.261 41.9662Z" fill="#202020"/>
<path d="M157.139 49.8991C157.139 49.5841 157.25 49.3086 157.473 49.0724C157.696 48.8362 157.978 48.7181 158.32 48.7181C158.635 48.7181 158.91 48.823 159.146 49.033C159.383 49.2429 159.507 49.5251 159.52 49.8794C159.52 50.2074 159.409 50.4896 159.186 50.7258C158.963 50.962 158.681 51.0801 158.339 51.0801C157.998 51.0801 157.716 50.9685 157.493 50.7455C157.27 50.5224 157.152 50.2402 157.139 49.8991Z" fill="#202020"/>
<path d="M162.965 39.5648C163.7 38.5019 164.704 37.9704 165.977 37.9704C166.606 37.9704 167.236 38.141 167.866 38.4822C168.496 38.8234 169.008 39.427 169.401 40.2931C169.887 41.3822 170.13 42.8782 170.13 44.7809C170.13 46.8149 169.848 48.3699 169.283 49.4459C169.021 49.9971 168.66 50.4367 168.201 50.7647C167.742 51.0928 167.341 51.2962 167 51.3749C166.659 51.4536 166.324 51.4996 165.996 51.5127C165.655 51.5127 165.314 51.4733 164.973 51.3946C164.632 51.3159 164.231 51.1059 163.772 50.7647C163.313 50.4235 162.952 49.9839 162.689 49.4459C162.125 48.3699 161.843 46.8149 161.843 44.7809C161.843 42.4976 162.217 40.7589 162.965 39.5648ZM167.394 39.3286C167 38.9087 166.534 38.6987 165.996 38.6987C165.445 38.6987 164.973 38.9087 164.579 39.3286C164.251 39.6698 164.034 40.1422 163.929 40.7458C163.824 41.3494 163.772 42.6092 163.772 44.525C163.772 46.5984 163.824 47.9631 163.929 48.6192C164.034 49.2753 164.271 49.7937 164.638 50.1742C165.006 50.5679 165.458 50.7647 165.996 50.7647C166.521 50.7647 166.967 50.5679 167.335 50.1742C167.715 49.7805 167.951 49.2294 168.043 48.5208C168.135 47.8122 168.188 46.4803 168.201 44.525C168.201 42.6223 168.148 41.3691 168.043 40.7655C167.938 40.1619 167.722 39.6829 167.394 39.3286Z" fill="#202020"/>
<path d="M172.807 39.5648C173.542 38.5019 174.545 37.9704 175.818 37.9704C176.448 37.9704 177.078 38.141 177.708 38.4822C178.338 38.8234 178.85 39.427 179.243 40.2931C179.729 41.3822 179.972 42.8782 179.972 44.7809C179.972 46.8149 179.689 48.3699 179.125 49.4459C178.863 49.9971 178.502 50.4367 178.043 50.7647C177.583 51.0928 177.183 51.2962 176.842 51.3749C176.501 51.4536 176.166 51.4996 175.838 51.5127C175.497 51.5127 175.156 51.4733 174.814 51.3946C174.473 51.3159 174.073 51.1059 173.614 50.7647C173.154 50.4235 172.794 49.9839 172.531 49.4459C171.967 48.3699 171.685 46.8149 171.685 44.7809C171.685 42.4976 172.059 40.7589 172.807 39.5648ZM177.236 39.3286C176.842 38.9087 176.376 38.6987 175.838 38.6987C175.287 38.6987 174.814 38.9087 174.421 39.3286C174.093 39.6698 173.876 40.1422 173.771 40.7458C173.666 41.3494 173.614 42.6092 173.614 44.525C173.614 46.5984 173.666 47.9631 173.771 48.6192C173.876 49.2753 174.112 49.7937 174.48 50.1742C174.847 50.5679 175.3 50.7647 175.838 50.7647C176.363 50.7647 176.809 50.5679 177.176 50.1742C177.557 49.7805 177.793 49.2294 177.885 48.5208C177.977 47.8122 178.029 46.4803 178.043 44.525C178.043 42.6223 177.99 41.3691 177.885 40.7655C177.78 40.1619 177.564 39.6829 177.236 39.3286Z" fill="#202020"/>
<path d="M232.119 42.6358C231.765 42.6358 231.483 42.5177 231.273 42.2815C231.063 42.0453 230.958 41.7566 230.958 41.4155C230.958 40.4838 231.306 39.6768 232.001 38.9944C232.697 38.312 233.563 37.9708 234.599 37.9708C235.793 37.9708 236.791 38.3383 237.591 39.0731C238.392 39.808 238.798 40.7593 238.812 41.9272C238.812 42.4915 238.68 43.0295 238.418 43.5413C238.155 44.0531 237.84 44.4992 237.473 44.8798C237.106 45.2603 236.581 45.7458 235.898 46.3363C235.426 46.7431 234.77 47.3468 233.93 48.1472L232.769 49.2495L234.265 49.2692C236.325 49.2692 237.421 49.2364 237.552 49.1708C237.644 49.1445 237.801 48.5606 238.024 47.4189V47.3599H238.812V47.4189C238.798 47.4583 238.713 48.0554 238.556 49.2101C238.398 50.3649 238.3 50.9685 238.26 51.021V51.0801H230.958V50.7061V50.4699C230.958 50.378 230.997 50.2796 231.076 50.1746C231.155 50.0697 231.351 49.84 231.666 49.4857C232.047 49.0658 232.375 48.6984 232.651 48.3834C232.769 48.2522 232.992 48.0094 233.32 47.6551C233.648 47.3008 233.871 47.0581 233.989 46.9269C234.107 46.7956 234.297 46.5791 234.56 46.2773C234.822 45.9755 235.006 45.7524 235.111 45.6081C235.216 45.4637 235.367 45.2669 235.564 45.0176C235.761 44.7682 235.898 44.5583 235.977 44.3877C236.056 44.2171 236.154 44.0268 236.272 43.8169C236.39 43.6069 236.476 43.3969 236.528 43.187C236.581 42.977 236.627 42.7802 236.666 42.5965C236.705 42.4128 236.725 42.1962 236.725 41.9469C236.725 41.1202 236.502 40.405 236.056 39.8014C235.61 39.1978 234.973 38.896 234.147 38.896C233.713 38.896 233.333 39.0075 233.005 39.2306C232.677 39.4537 232.447 39.6702 232.316 39.8801C232.185 40.0901 232.119 40.2148 232.119 40.2541C232.119 40.2673 232.152 40.2738 232.218 40.2738C232.454 40.2738 232.697 40.3657 232.946 40.5494C233.195 40.7331 233.32 41.0349 233.32 41.4548C233.32 41.7829 233.215 42.0585 233.005 42.2815C232.795 42.5046 232.5 42.6227 232.119 42.6358Z" fill="#202020"/>
<path d="M145.58 67.2596L145.325 67.3581C145.141 67.4237 144.878 67.4893 144.537 67.5549C144.196 67.6205 143.816 67.6664 143.396 67.6927H143.022V66.7872H143.396C144.012 66.761 144.583 66.6626 145.108 66.492C145.633 66.3214 146 66.1639 146.21 66.0196C146.42 65.8752 146.604 65.7309 146.761 65.5865C146.788 65.5472 146.866 65.5275 146.998 65.5275C147.116 65.5275 147.227 65.5669 147.332 65.6456V71.531L147.352 77.436C147.444 77.5279 147.523 77.5869 147.588 77.6132C147.654 77.6394 147.811 77.6657 148.061 77.6919C148.31 77.7182 148.717 77.7313 149.281 77.7313H149.793V78.6367H149.576C149.301 78.5974 148.257 78.5777 146.447 78.5777C144.662 78.5777 143.632 78.5974 143.356 78.6367H143.12V77.7313H143.632C143.92 77.7313 144.17 77.7313 144.38 77.7313C144.59 77.7313 144.754 77.7247 144.872 77.7116C144.99 77.6985 145.095 77.6788 145.187 77.6525C145.279 77.6263 145.331 77.6132 145.344 77.6132C145.357 77.6132 145.397 77.5804 145.462 77.5148C145.528 77.4491 145.567 77.4229 145.58 77.436V67.2596Z" fill="#202020"/>
<path d="M202.942 69.5228C202.588 69.5228 202.312 69.4113 202.115 69.1882C201.919 68.9651 201.814 68.6764 201.801 68.3221C201.801 67.6004 202.115 66.9574 202.745 66.3931C203.375 65.8289 204.136 65.5468 205.029 65.5468C205.488 65.5468 205.777 65.5533 205.895 65.5664C206.866 65.7239 207.607 66.0716 208.119 66.6097C208.631 67.1477 208.893 67.7316 208.906 68.3615C208.906 69.0439 208.683 69.7065 208.237 70.3495C207.791 70.9925 207.174 71.4584 206.387 71.7471L206.328 71.7864C206.328 71.7996 206.387 71.8192 206.505 71.8455C206.623 71.8717 206.813 71.9308 207.076 72.0226C207.338 72.1145 207.588 72.2523 207.824 72.436C208.9 73.1315 209.438 74.05 209.438 75.1917C209.438 76.2283 209.031 77.1338 208.217 77.908C207.404 78.6822 206.374 79.0693 205.127 79.0693C204.077 79.0693 203.172 78.7872 202.411 78.2229C201.65 77.6587 201.269 76.9435 201.269 76.0774C201.269 75.71 201.387 75.4148 201.623 75.1917C201.86 74.9686 202.155 74.8505 202.509 74.8374C202.877 74.8374 203.178 74.9555 203.415 75.1917C203.651 75.4279 203.769 75.7231 203.769 76.0774C203.769 76.2218 203.749 76.353 203.71 76.4711C203.67 76.5892 203.625 76.6942 203.572 76.786C203.52 76.8779 203.447 76.9566 203.356 77.0222C203.264 77.0879 203.185 77.1403 203.119 77.1797C203.054 77.2191 202.988 77.2453 202.923 77.2585C202.857 77.2716 202.804 77.2913 202.765 77.3175L202.686 77.3372C203.356 77.9277 204.169 78.2229 205.127 78.2229C205.849 78.2229 206.393 77.8752 206.761 77.1797C206.984 76.7467 207.095 76.084 207.095 75.1917V74.798C207.095 73.5514 206.676 72.7181 205.836 72.2982C205.639 72.2195 205.239 72.1735 204.635 72.1604L203.808 72.1407L203.749 72.1014C203.723 72.062 203.71 71.957 203.71 71.7864C203.71 71.5502 203.762 71.4321 203.867 71.4321C204.235 71.4321 204.615 71.3993 205.009 71.3337C205.455 71.2681 205.862 70.9925 206.229 70.507C206.597 70.0215 206.78 69.2866 206.78 68.3024V68.145C206.78 67.397 206.551 66.8787 206.092 66.59C205.803 66.4063 205.495 66.3144 205.166 66.3144C204.747 66.3144 204.359 66.3866 204.005 66.5309C203.651 66.6753 203.401 66.8262 203.257 66.9836C203.113 67.1411 203.041 67.2199 203.041 67.2199H203.1C203.139 67.233 203.192 67.2461 203.257 67.2592C203.323 67.2723 203.388 67.3051 203.454 67.3576C203.52 67.4101 203.598 67.4561 203.69 67.4954C203.782 67.5348 203.848 67.607 203.887 67.7119C203.926 67.8169 203.979 67.9153 204.044 68.0072C204.11 68.099 204.13 68.2303 204.104 68.4009C204.104 68.6896 204.012 68.9454 203.828 69.1685C203.644 69.3916 203.349 69.5097 202.942 69.5228Z" fill="#202020"/>
<path d="M216.311 73.9716C216.311 73.9716 216.311 73.8863 216.311 73.7157C216.311 73.5451 216.403 73.4139 216.587 73.322H228.023C228.22 73.427 228.318 73.5582 228.318 73.7157C228.318 73.8732 228.22 74.0044 228.023 74.1094H216.587C216.403 74.0175 216.311 73.8863 216.311 73.7157V73.9716Z" fill="#202020"/>
<path d="M236.845 69.5228C236.491 69.5228 236.215 69.4113 236.018 69.1882C235.822 68.9651 235.717 68.6764 235.703 68.3221C235.703 67.6004 236.018 66.9574 236.648 66.3931C237.278 65.8289 238.039 65.5468 238.932 65.5468C239.391 65.5468 239.68 65.5533 239.798 65.5664C240.769 65.7239 241.51 66.0716 242.022 66.6097C242.534 67.1477 242.796 67.7316 242.809 68.3615C242.809 69.0439 242.586 69.7065 242.14 70.3495C241.694 70.9925 241.077 71.4584 240.29 71.7471L240.231 71.7864C240.231 71.7996 240.29 71.8192 240.408 71.8455C240.526 71.8717 240.716 71.9308 240.979 72.0226C241.241 72.1145 241.49 72.2523 241.727 72.436C242.803 73.1315 243.341 74.05 243.341 75.1917C243.341 76.2283 242.934 77.1338 242.12 77.908C241.307 78.6822 240.277 79.0693 239.03 79.0693C237.98 79.0693 237.075 78.7872 236.314 78.2229C235.553 77.6587 235.172 76.9435 235.172 76.0774C235.172 75.71 235.29 75.4148 235.526 75.1917C235.763 74.9686 236.058 74.8505 236.412 74.8374C236.78 74.8374 237.081 74.9555 237.318 75.1917C237.554 75.4279 237.672 75.7231 237.672 76.0774C237.672 76.2218 237.652 76.353 237.613 76.4711C237.573 76.5892 237.527 76.6942 237.475 76.786C237.423 76.8779 237.35 76.9566 237.258 77.0222C237.167 77.0879 237.088 77.1403 237.022 77.1797C236.957 77.2191 236.891 77.2453 236.825 77.2585C236.76 77.2716 236.707 77.2913 236.668 77.3175L236.589 77.3372C237.258 77.9277 238.072 78.2229 239.03 78.2229C239.752 78.2229 240.296 77.8752 240.664 77.1797C240.887 76.7467 240.998 76.084 240.998 75.1917V74.798C240.998 73.5514 240.578 72.7181 239.739 72.2982C239.542 72.2195 239.142 72.1735 238.538 72.1604L237.711 72.1407L237.652 72.1014C237.626 72.062 237.613 71.957 237.613 71.7864C237.613 71.5502 237.665 71.4321 237.77 71.4321C238.138 71.4321 238.518 71.3993 238.912 71.3337C239.358 71.2681 239.765 70.9925 240.132 70.507C240.5 70.0215 240.683 69.2866 240.683 68.3024V68.145C240.683 67.397 240.454 66.8787 239.994 66.59C239.706 66.4063 239.397 66.3144 239.069 66.3144C238.649 66.3144 238.262 66.3866 237.908 66.5309C237.554 66.6753 237.304 66.8262 237.16 66.9836C237.016 67.1411 236.944 67.2199 236.944 67.2199H237.003C237.042 67.233 237.094 67.2461 237.16 67.2592C237.226 67.2723 237.291 67.3051 237.357 67.3576C237.423 67.4101 237.501 67.4561 237.593 67.4954C237.685 67.5348 237.751 67.607 237.79 67.7119C237.829 67.8169 237.882 67.9153 237.947 68.0072C238.013 68.099 238.033 68.2303 238.006 68.4009C238.006 68.6896 237.915 68.9454 237.731 69.1685C237.547 69.3916 237.252 69.5097 236.845 69.5228Z" fill="#202020"/>
<path d="M245.722 77.4557C245.722 77.1408 245.834 76.8652 246.057 76.629C246.28 76.3928 246.562 76.2747 246.903 76.2747C247.218 76.2747 247.494 76.3797 247.73 76.5896C247.966 76.7996 248.091 77.0817 248.104 77.436C248.104 77.7641 247.993 78.0462 247.769 78.2824C247.546 78.5186 247.264 78.6367 246.923 78.6367C246.582 78.6367 246.3 78.5252 246.077 78.3021C245.854 78.079 245.736 77.7969 245.722 77.4557Z" fill="#202020"/>
<path d="M251.549 67.1214C252.284 66.0585 253.287 65.5271 254.56 65.5271C255.19 65.5271 255.82 65.6977 256.45 66.0388C257.08 66.38 257.592 66.9836 257.985 67.8497C258.471 68.9389 258.714 70.4348 258.714 72.3376C258.714 74.3715 258.431 75.9265 257.867 77.0026C257.605 77.5537 257.244 77.9933 256.785 78.3214C256.325 78.6494 255.925 78.8528 255.584 78.9316C255.243 79.0103 254.908 79.0562 254.58 79.0693C254.239 79.0693 253.898 79.03 253.556 78.9512C253.215 78.8725 252.815 78.6625 252.356 78.3214C251.896 77.9802 251.536 77.5406 251.273 77.0026C250.709 75.9265 250.427 74.3715 250.427 72.3376C250.427 70.0543 250.801 68.3156 251.549 67.1214ZM255.978 66.8852C255.584 66.4653 255.118 66.2554 254.58 66.2554C254.029 66.2554 253.556 66.4653 253.163 66.8852C252.835 67.2264 252.618 67.6988 252.513 68.3024C252.408 68.9061 252.356 70.1658 252.356 72.0817C252.356 74.155 252.408 75.5197 252.513 76.1759C252.618 76.832 252.854 77.3503 253.222 77.7309C253.589 78.1245 254.042 78.3214 254.58 78.3214C255.105 78.3214 255.551 78.1245 255.918 77.7309C256.299 77.3372 256.535 76.786 256.627 76.0774C256.719 75.3688 256.771 74.0369 256.785 72.0817C256.785 70.1789 256.732 68.9258 256.627 68.3221C256.522 67.7185 256.306 67.2395 255.978 66.8852Z" fill="#202020"/>
<path d="M261.39 67.1214C262.125 66.0585 263.129 65.5271 264.402 65.5271C265.032 65.5271 265.662 65.6977 266.292 66.0388C266.922 66.38 267.433 66.9836 267.827 67.8497C268.313 68.9389 268.555 70.4348 268.555 72.3376C268.555 74.3715 268.273 75.9265 267.709 77.0026C267.446 77.5537 267.086 77.9933 266.626 78.3214C266.167 78.6494 265.767 78.8528 265.426 78.9316C265.084 79.0103 264.75 79.0562 264.422 79.0693C264.081 79.0693 263.739 79.03 263.398 78.9512C263.057 78.8725 262.657 78.6625 262.198 78.3214C261.738 77.9802 261.377 77.5406 261.115 77.0026C260.551 75.9265 260.269 74.3715 260.269 72.3376C260.269 70.0543 260.643 68.3156 261.39 67.1214ZM265.819 66.8852C265.426 66.4653 264.96 66.2554 264.422 66.2554C263.871 66.2554 263.398 66.4653 263.005 66.8852C262.676 67.2264 262.46 67.6988 262.355 68.3024C262.25 68.9061 262.198 70.1658 262.198 72.0817C262.198 74.155 262.25 75.5197 262.355 76.1759C262.46 76.832 262.696 77.3503 263.064 77.7309C263.431 78.1245 263.884 78.3214 264.422 78.3214C264.947 78.3214 265.393 78.1245 265.76 77.7309C266.141 77.3372 266.377 76.786 266.469 76.0774C266.561 75.3688 266.613 74.0369 266.626 72.0817C266.626 70.1789 266.574 68.9258 266.469 68.3221C266.364 67.7185 266.147 67.2395 265.819 66.8852Z" fill="#202020"/>
<path d="M269.561 37.5465V36.3261H274.856V83.5469H269.561V82.3265H273.636V37.5465H269.561Z" fill="#202020"/>
<path d="M280.407 36.5623C280.407 36.4573 280.426 36.3917 280.466 36.3655C280.505 36.3392 280.591 36.3261 280.722 36.3261H280.84H281.135C281.161 36.3523 281.345 36.5295 281.686 36.8575C282.027 37.1856 282.323 37.4677 282.572 37.7039C282.821 37.9401 283.176 38.3404 283.635 38.9046C284.094 39.4689 284.501 40.0003 284.855 40.499C285.21 40.9976 285.623 41.6603 286.095 42.487C286.568 43.3137 286.975 44.1273 287.316 44.9278C287.657 45.7283 288.018 46.7059 288.398 47.8606C288.779 49.0154 289.074 50.1702 289.284 51.3249C289.494 52.4797 289.684 53.8116 289.855 55.3207C290.025 56.8298 290.104 58.3651 290.091 59.9266C290.091 61.462 290.045 62.7611 289.953 63.824C289.337 71.33 286.994 77.3203 282.926 81.795C282.624 82.1231 282.342 82.4118 282.08 82.6611C281.817 82.9104 281.601 83.1204 281.43 83.291C281.26 83.4616 281.161 83.5469 281.135 83.5469H280.84C280.669 83.5469 280.558 83.5338 280.505 83.5075C280.453 83.4813 280.42 83.4157 280.407 83.3107C281.115 82.6021 281.811 81.7885 282.493 80.8699C286.272 75.8441 288.162 68.863 288.162 59.9266C288.162 57.2759 287.992 54.8024 287.65 52.5059C287.309 50.2095 286.889 48.2805 286.391 46.719C285.892 45.1574 285.282 43.6877 284.56 42.3099C283.838 40.932 283.182 39.8626 282.592 39.1015C282.001 38.3404 281.352 37.5793 280.643 36.8182C280.617 36.7919 280.591 36.7657 280.564 36.7394C280.538 36.7132 280.518 36.6869 280.505 36.6607C280.492 36.6345 280.472 36.6148 280.446 36.6017L280.407 36.5623Z" fill="#202020"/>
<path d="M300.793 58.027C300.793 57.8564 300.885 57.7252 301.069 57.6333H313.607C313.804 57.7383 313.902 57.8695 313.902 58.027C313.902 58.1713 313.81 58.296 313.627 58.401L307.367 58.4207H301.108C300.898 58.355 300.793 58.2238 300.793 58.027ZM300.793 61.8456C300.793 61.6488 300.898 61.5175 301.108 61.4519H313.627C313.81 61.5831 313.902 61.7144 313.902 61.8456C313.902 62.0162 313.804 62.1474 313.607 62.2393H301.069C300.885 62.1474 300.793 62.0162 300.793 61.8456Z" fill="#202020"/>
<path d="M322.126 60.1923C322.126 60.1923 322.126 60.107 322.126 59.9364C322.126 59.7658 322.218 59.6346 322.402 59.5427H333.838C334.035 59.6477 334.133 59.7789 334.133 59.9364C334.133 60.0939 334.035 60.2251 333.838 60.3301H322.402C322.218 60.2382 322.126 60.107 322.126 59.9364V60.1923Z" fill="#A452CE"/>
<path d="M337.932 56.4132C337.578 56.4132 337.295 56.2951 337.085 56.0589C336.875 55.8227 336.771 55.534 336.771 55.1928C336.771 54.2611 337.118 53.4541 337.814 52.7717C338.509 52.0894 339.375 51.7482 340.412 51.7482C341.606 51.7482 342.603 52.1156 343.404 52.8505C344.204 53.5853 344.611 54.5367 344.624 55.7046C344.624 56.2688 344.493 56.8069 344.231 57.3186C343.968 57.8304 343.653 58.2766 343.286 58.6571C342.918 59.0377 342.393 59.5232 341.711 60.1137C341.239 60.5205 340.583 61.1241 339.743 61.9246L338.581 63.0269L340.077 63.0465C342.138 63.0465 343.233 63.0137 343.364 62.9481C343.456 62.9219 343.614 62.3379 343.837 61.1963V61.1372H344.624V61.1963C344.611 61.2357 344.526 61.8327 344.368 62.9875C344.211 64.1423 344.112 64.7459 344.073 64.7984V64.8574H336.771V64.4834V64.2472C336.771 64.1554 336.81 64.057 336.889 63.952C336.967 63.847 337.164 63.6174 337.479 63.2631C337.86 62.8431 338.188 62.4757 338.463 62.1608C338.581 62.0296 338.804 61.7868 339.133 61.4325C339.461 61.0782 339.684 60.8354 339.802 60.7042C339.92 60.573 340.11 60.3565 340.373 60.0546C340.635 59.7528 340.819 59.5297 340.924 59.3854C341.029 59.2411 341.18 59.0442 341.376 58.7949C341.573 58.5456 341.711 58.3356 341.79 58.165C341.869 57.9944 341.967 57.8042 342.085 57.5942C342.203 57.3842 342.288 57.1743 342.341 56.9643C342.393 56.7544 342.439 56.5575 342.479 56.3738C342.518 56.1901 342.538 55.9736 342.538 55.7243C342.538 54.8976 342.315 54.1824 341.869 53.5788C341.422 52.9751 340.786 52.6733 339.959 52.6733C339.526 52.6733 339.146 52.7849 338.818 53.0079C338.49 53.231 338.26 53.4475 338.129 53.6575C337.997 53.8675 337.932 53.9921 337.932 54.0315C337.932 54.0446 337.965 54.0512 338.03 54.0512C338.266 54.0512 338.509 54.143 338.759 54.3267C339.008 54.5104 339.133 54.8123 339.133 55.2322C339.133 55.5602 339.028 55.8358 338.818 56.0589C338.608 56.282 338.312 56.4001 337.932 56.4132Z" fill="#A452CE"/>
<path d="M347.163 63.6764C347.163 63.3615 347.275 63.0859 347.498 62.8497C347.721 62.6135 348.003 62.4954 348.344 62.4954C348.659 62.4954 348.935 62.6004 349.171 62.8103C349.407 63.0203 349.532 63.3024 349.545 63.6567C349.545 63.9848 349.434 64.2669 349.21 64.5031C348.987 64.7393 348.705 64.8574 348.364 64.8574C348.023 64.8574 347.741 64.7459 347.518 64.5228C347.295 64.2997 347.177 64.0176 347.163 63.6764Z" fill="#A452CE"/>
<path d="M352.99 53.3421C353.725 52.2792 354.728 51.7478 356.001 51.7478C356.631 51.7478 357.261 51.9184 357.891 52.2595C358.521 52.6007 359.033 53.2044 359.426 54.0704C359.912 55.1596 360.155 56.6555 360.155 58.5583C360.155 60.5922 359.872 62.1472 359.308 63.2233C359.046 63.7744 358.685 64.214 358.226 64.5421C357.766 64.8701 357.366 65.0735 357.025 65.1523C356.684 65.231 356.349 65.2769 356.021 65.29C355.68 65.29 355.339 65.2507 354.997 65.1719C354.656 65.0932 354.256 64.8832 353.797 64.5421C353.338 64.2009 352.977 63.7613 352.714 63.2233C352.15 62.1472 351.868 60.5922 351.868 58.5583C351.868 56.275 352.242 54.5363 352.99 53.3421ZM357.419 53.1059C357.025 52.686 356.559 52.4761 356.021 52.4761C355.47 52.4761 354.997 52.686 354.604 53.1059C354.276 53.4471 354.059 53.9195 353.954 54.5231C353.849 55.1268 353.797 56.3865 353.797 58.3024C353.797 60.3757 353.849 61.7404 353.954 62.3966C354.059 63.0527 354.295 63.571 354.663 63.9516C355.03 64.3452 355.483 64.5421 356.021 64.5421C356.546 64.5421 356.992 64.3452 357.36 63.9516C357.74 63.5579 357.976 63.0067 358.068 62.2981C358.16 61.5895 358.212 60.2576 358.226 58.3024C358.226 56.3996 358.173 55.1465 358.068 54.5428C357.963 53.9392 357.747 53.4602 357.419 53.1059Z" fill="#A452CE"/>
<path d="M362.831 53.3421C363.566 52.2792 364.57 51.7478 365.843 51.7478C366.473 51.7478 367.103 51.9184 367.733 52.2595C368.363 52.6007 368.874 53.2044 369.268 54.0704C369.754 55.1596 369.996 56.6555 369.996 58.5583C369.996 60.5922 369.714 62.1472 369.15 63.2233C368.887 63.7744 368.527 64.214 368.067 64.5421C367.608 64.8701 367.208 65.0735 366.867 65.1523C366.525 65.231 366.191 65.2769 365.863 65.29C365.522 65.29 365.18 65.2507 364.839 65.1719C364.498 65.0932 364.098 64.8832 363.639 64.5421C363.179 64.2009 362.818 63.7613 362.556 63.2233C361.992 62.1472 361.71 60.5922 361.71 58.5583C361.71 56.275 362.084 54.5363 362.831 53.3421ZM367.26 53.1059C366.867 52.686 366.401 52.4761 365.863 52.4761C365.312 52.4761 364.839 52.686 364.446 53.1059C364.117 53.4471 363.901 53.9195 363.796 54.5231C363.691 55.1268 363.639 56.3865 363.639 58.3024C363.639 60.3757 363.691 61.7404 363.796 62.3966C363.901 63.0527 364.137 63.571 364.505 63.9516C364.872 64.3452 365.325 64.5421 365.863 64.5421C366.388 64.5421 366.834 64.3452 367.201 63.9516C367.582 63.5579 367.818 63.0067 367.91 62.2981C368.002 61.5895 368.054 60.2576 368.067 58.3024C368.067 56.3996 368.015 55.1465 367.91 54.5428C367.805 53.9392 367.588 53.4602 367.26 53.1059Z" fill="#A452CE"/>
</g>
<path d="M106.716 90.1914C107.199 90.1914 107.509 90.2984 107.646 90.5124C107.783 90.7254 107.932 91.0964 108.091 91.6234C108.253 92.1504 108.49 92.6104 108.809 93.0064C111.08 95.8704 115.583 97.3024 122.315 97.3024H173.845C182.411 97.3024 187.907 99.2904 190.338 103.265C192.766 99.2904 197.986 97.3024 205.994 97.3024H258.163C260.113 97.3024 261.589 97.2694 262.583 97.2034C265.373 96.9724 267.783 96.3354 269.813 95.2894C271.846 94.2444 273.061 92.9484 273.459 91.4004C273.459 91.3674 273.48 91.2724 273.519 91.1174C273.559 90.9614 273.598 90.8494 273.638 90.7844C273.677 90.7174 273.739 90.6274 273.82 90.5124C273.902 90.3964 274.049 90.3144 274.257 90.2654C274.464 90.2154 274.693 90.1914 274.943 90.1914C275.98 90.1914 275.245 93.8584 272.742 95.7814C270.236 97.7034 266.599 98.7874 261.83 99.0314C261.028 99.0644 259.846 99.0804 258.283 99.0804H206.593C203.885 99.0804 201.514 99.2984 199.482 99.7344C197.449 100.171 195.945 100.734 194.97 101.426C193.995 102.117 193.289 102.698 192.849 103.167C192.409 103.636 192.111 104.109 191.953 104.587C191.953 104.686 191.93 104.83 191.891 105.019C191.852 105.208 191.782 105.36 191.683 105.476C191.583 105.591 191.495 105.707 191.414 105.821C191.335 105.937 191.196 106.027 190.995 106.093C190.796 106.158 190.576 106.192 190.338 106.192C190.02 106.192 189.759 106.168 189.562 106.118C189.365 106.068 189.212 105.978 189.113 105.846C189.013 105.715 188.944 105.579 188.904 105.439C188.865 105.3 188.805 105.114 188.726 104.883C188.645 104.652 188.566 104.439 188.485 104.241C187.928 103.023 186.675 101.924 184.723 100.944C182.769 99.9654 180.279 99.3774 177.253 99.1794C176.456 99.1134 175.261 99.0804 173.669 99.0804H123.034C121.436 99.0804 120.158 99.0514 119.202 98.9944C118.246 98.9374 116.911 98.7174 115.194 98.3344C113.477 97.9514 111.935 97.3934 110.569 96.6604C106.033 94.6344 105.931 90.1914 106.722 90.1914H106.716Z" fill="#202020"/>
<path d="M232.888 111.824H152.865V137.565H232.888V111.824Z" fill="white"/>
<g clip-path="url(#clip3_1436_2487)">
<path d="M156.859 125.664C156.859 124.759 156.925 123.9 157.056 123.086C157.187 122.273 157.338 121.571 157.508 120.981C157.679 120.39 157.922 119.813 158.237 119.249C158.551 118.685 158.801 118.245 158.984 117.93C159.168 117.615 159.444 117.274 159.811 116.907C160.178 116.54 160.395 116.316 160.46 116.238C160.526 116.159 160.69 116.021 160.952 115.825H161.208H161.287C161.471 115.825 161.562 115.884 161.562 116.002C161.562 116.041 161.451 116.179 161.228 116.415C161.005 116.651 160.736 116.999 160.421 117.458C160.106 117.917 159.785 118.481 159.457 119.15C159.129 119.819 158.853 120.725 158.63 121.866C158.407 123.007 158.296 124.274 158.296 125.664C158.296 127.055 158.407 128.314 158.63 129.443C158.853 130.571 159.122 131.483 159.437 132.178C159.752 132.873 160.073 133.438 160.401 133.871C160.729 134.303 161.005 134.651 161.228 134.914C161.451 135.176 161.562 135.314 161.562 135.327C161.562 135.445 161.464 135.504 161.267 135.504H161.208H160.952L160.401 135.032C159.168 133.916 158.269 132.526 157.705 130.86C157.141 129.193 156.859 127.462 156.859 125.664Z" fill="#202020"/>
<path d="M166.758 129.128C166.758 129.443 167.059 129.626 167.663 129.679C167.899 129.679 168.017 129.751 168.017 129.895C168.017 129.908 168.004 129.994 167.978 130.151C167.938 130.335 167.899 130.453 167.86 130.505C167.82 130.558 167.735 130.584 167.604 130.584C167.578 130.584 167.499 130.584 167.368 130.584C167.237 130.584 167.014 130.577 166.699 130.564C166.384 130.551 165.964 130.545 165.439 130.545C164.508 130.545 163.911 130.558 163.648 130.584H163.491C163.399 130.492 163.353 130.42 163.353 130.368C163.379 130.013 163.465 129.784 163.609 129.679H163.885C164.803 129.639 165.472 129.311 165.892 128.695C165.971 128.616 167.158 126.615 169.454 122.693C171.75 118.77 172.917 116.782 172.957 116.73C173.049 116.572 173.206 116.494 173.429 116.494H173.586H173.921C174 116.612 174.039 116.677 174.039 116.69L174.59 123.047C174.957 127.284 175.154 129.423 175.18 129.462C175.246 129.607 175.672 129.679 176.46 129.679C176.788 129.679 176.952 129.744 176.952 129.876C176.952 129.902 176.932 129.994 176.893 130.151C176.853 130.348 176.82 130.466 176.794 130.505C176.768 130.545 176.676 130.571 176.519 130.584C176.479 130.584 176.388 130.584 176.243 130.584C176.099 130.584 175.843 130.577 175.476 130.564C175.108 130.551 174.629 130.545 174.039 130.545C172.806 130.545 171.999 130.558 171.619 130.584H171.382C171.304 130.505 171.264 130.446 171.264 130.407C171.264 130.368 171.277 130.249 171.304 130.053C171.356 129.882 171.395 129.777 171.422 129.738L171.5 129.679H171.894C172.602 129.639 173.022 129.528 173.154 129.344L172.917 126.392H168.234L167.565 127.534C167.027 128.439 166.758 128.97 166.758 129.128ZM172.819 125.467C172.819 125.323 172.74 124.3 172.583 122.397C172.425 120.495 172.334 119.537 172.307 119.524L171.776 120.37C171.566 120.725 171.153 121.427 170.536 122.476L168.765 125.467L170.792 125.487C172.143 125.487 172.819 125.48 172.819 125.467Z" fill="#202020"/>
<path d="M183.45 125.92C183.45 125.92 183.45 125.835 183.45 125.664C183.45 125.493 183.542 125.362 183.725 125.27H195.159C195.356 125.375 195.454 125.507 195.454 125.664C195.454 125.821 195.356 125.953 195.159 126.058H183.725C183.542 125.966 183.45 125.835 183.45 125.664V125.92Z" fill="#202020"/>
<path d="M204.747 117.34C204.747 117.182 204.858 117.045 205.081 116.927H205.455C206.636 116.966 207.384 117.294 207.699 117.911C207.777 118.107 208.151 119.144 208.82 121.02C209.49 122.896 210.152 124.726 210.808 126.511C211.464 128.295 211.792 129.213 211.792 129.266C211.884 129.528 211.969 129.745 212.048 129.915C212.127 130.086 212.186 130.21 212.225 130.289C212.264 130.368 212.297 130.427 212.323 130.466C212.35 130.505 212.376 130.532 212.402 130.545C212.428 130.558 212.435 130.584 212.422 130.624C212.409 130.663 212.369 130.722 212.304 130.801H210.966C210.638 130.617 210.428 130.427 210.336 130.23C210.244 130.033 209.909 129.154 209.332 127.593L208.447 125.133L208.171 125.428C208 125.638 207.692 125.999 207.246 126.511C206.8 127.022 206.426 127.455 206.124 127.809C205.796 128.19 205.39 128.662 204.904 129.226C204.235 130.013 203.822 130.473 203.664 130.604C203.507 130.735 203.323 130.807 203.113 130.82C202.641 130.82 202.405 130.61 202.405 130.191C202.405 129.968 202.497 129.758 202.68 129.561C202.864 129.364 203.769 128.478 205.396 126.904C205.79 126.524 206.229 126.097 206.715 125.625C207.2 125.153 207.561 124.798 207.797 124.562L208.132 124.247C208.132 124.234 207.804 123.316 207.148 121.492C206.492 119.669 206.137 118.685 206.085 118.54C205.823 117.95 205.488 117.655 205.081 117.655C204.858 117.655 204.747 117.55 204.747 117.34Z" fill="#202020"/>
<path d="M213.799 130.564C213.576 130.564 213.465 130.505 213.465 130.387C213.465 130.361 213.484 130.269 213.524 130.112C213.589 129.862 213.655 129.725 213.721 129.698C213.76 129.685 213.858 129.679 214.016 129.679H214.134C214.921 129.679 215.42 129.633 215.63 129.541C215.643 129.541 215.656 129.534 215.669 129.521C215.735 129.495 215.807 129.344 215.885 129.069C215.964 128.793 216.286 127.507 216.85 125.212C217.007 124.621 217.125 124.155 217.204 123.814C218.122 120.141 218.581 118.291 218.581 118.265C218.555 118.212 218.542 118.179 218.542 118.166C218.411 118.088 217.945 118.048 217.145 118.048H216.751C216.633 117.969 216.607 117.805 216.673 117.556C216.725 117.359 216.764 117.241 216.791 117.202C216.817 117.163 216.909 117.143 217.066 117.143H217.145C218.089 117.169 219.047 117.182 220.018 117.182C221.619 117.182 222.458 117.169 222.537 117.143H222.734C222.826 117.235 222.872 117.307 222.872 117.359C222.872 117.412 222.852 117.523 222.813 117.694C222.773 117.865 222.727 117.969 222.675 118.009C222.635 118.035 222.485 118.048 222.222 118.048C221.815 118.048 221.396 118.068 220.963 118.107C220.779 118.147 220.654 118.219 220.589 118.324C220.497 118.507 220.162 119.76 219.585 122.082C219.441 122.699 219.296 123.296 219.152 123.873C218.234 127.494 217.775 129.344 217.775 129.423C217.775 129.515 217.84 129.574 217.971 129.6C218.103 129.626 218.444 129.652 218.995 129.679H219.624C219.703 129.784 219.743 129.843 219.743 129.856C219.743 129.869 219.723 129.987 219.684 130.21C219.631 130.381 219.565 130.505 219.487 130.584H219.172C218.686 130.558 217.788 130.545 216.476 130.545C216.003 130.545 215.571 130.545 215.177 130.545C214.783 130.545 214.468 130.545 214.232 130.545C213.996 130.545 213.852 130.551 213.799 130.564Z" fill="#202020"/>
<path d="M224.052 115.844L224.131 115.825C224.197 115.825 224.262 115.825 224.328 115.825H224.564L225.115 116.297C226.348 117.412 227.247 118.803 227.811 120.469C228.375 122.135 228.657 123.867 228.657 125.664C228.657 126.556 228.592 127.416 228.461 128.242C228.329 129.069 228.178 129.771 228.008 130.348C227.837 130.925 227.595 131.502 227.28 132.08C226.965 132.657 226.716 133.096 226.532 133.398C226.348 133.7 226.079 134.035 225.725 134.402C225.371 134.769 225.161 134.986 225.095 135.051C225.03 135.117 224.879 135.242 224.643 135.425C224.603 135.465 224.577 135.491 224.564 135.504H224.328C224.223 135.504 224.151 135.504 224.111 135.504C224.072 135.504 224.039 135.484 224.013 135.445C223.987 135.406 223.967 135.346 223.954 135.268C223.967 135.255 224.039 135.169 224.17 135.012C226.204 132.9 227.221 129.784 227.221 125.664C227.221 121.545 226.204 118.429 224.17 116.316C224.039 116.159 223.967 116.074 223.954 116.061C223.954 115.956 223.987 115.884 224.052 115.844Z" fill="#202020"/>
</g>
</g>
<defs>
<clipPath id="clip0_1436_2487">
<rect width="640" height="360" fill="white"/>
</clipPath>
<clipPath id="clip1_1436_2487">
<rect width="2560" height="1440" fill="white" transform="translate(-960 -540)"/>
</clipPath>
<clipPath id="clip2_1436_2487">
<rect width="314.427" height="47.241" fill="white" transform="translate(56.357 36.3164)"/>
</clipPath>
<clipPath id="clip3_1436_2487">
<rect width="75.5334" height="19.6794" fill="white" transform="translate(155.001 115.824)"/>
</clipPath>
</defs>
</svg>
