<svg width="640" height="360" viewBox="0 0 640 360" fill="none" xmlns="http://www.w3.org/2000/svg">
<g clip-path="url(#clip0_1601_33187)">
<path d="M640 0H0V360H640V0Z" fill="black"/>
<g clip-path="url(#clip1_1601_33187)">
<path d="M0 0H640" stroke="#303030" stroke-width="1.5"/>
<path d="M0 40H640" stroke="#303030" stroke-width="1.5"/>
<path d="M0 80H640" stroke="#303030" stroke-width="1.5"/>
<path d="M0 120H640" stroke="#303030" stroke-width="1.5"/>
<path d="M0 160H640" stroke="#303030" stroke-width="1.5"/>
<path d="M0 200H640" stroke="#303030" stroke-width="1.5"/>
<path d="M0 240H640" stroke="#303030" stroke-width="1.5"/>
<path d="M0 280H640" stroke="#303030" stroke-width="1.5"/>
<path d="M0 320H640" stroke="#303030" stroke-width="1.5"/>
<path d="M0 360H640" stroke="#303030" stroke-width="1.5"/>
<path d="M20 0V360" stroke="#303030" stroke-width="1.5"/>
<path d="M60 0V360" stroke="#303030" stroke-width="1.5"/>
<path d="M100 0V360" stroke="#303030" stroke-width="1.5"/>
<path d="M140 0V360" stroke="#303030" stroke-width="1.5"/>
<path d="M180 0V360" stroke="#303030" stroke-width="1.5"/>
<path d="M220 0V360" stroke="#303030" stroke-width="1.5"/>
<path d="M260 0V360" stroke="#303030" stroke-width="1.5"/>
<path d="M300 0V360" stroke="#303030" stroke-width="1.5"/>
<path d="M340 0V360" stroke="#303030" stroke-width="1.5"/>
<path d="M380 0V360" stroke="#303030" stroke-width="1.5"/>
<path d="M420 0V360" stroke="#303030" stroke-width="1.5"/>
<path d="M460 0V360" stroke="#303030" stroke-width="1.5"/>
<path d="M500 0V360" stroke="#303030" stroke-width="1.5"/>
<path d="M540 0V360" stroke="#303030" stroke-width="1.5"/>
<path d="M580 0V360" stroke="#303030" stroke-width="1.5"/>
<path d="M620 0V360" stroke="#303030" stroke-width="1.5"/>
<path d="M0 20H640" stroke="#505050" stroke-width="1.5"/>
<path d="M0 60H640" stroke="#505050" stroke-width="1.5"/>
<path d="M0 100H640" stroke="#505050" stroke-width="1.5"/>
<path d="M0 140H640" stroke="#505050" stroke-width="1.5"/>
<path d="M0 180H640" stroke="#505050" stroke-width="1.5"/>
<path d="M0 220H640" stroke="#505050" stroke-width="1.5"/>
<path d="M0 260H640" stroke="#505050" stroke-width="1.5"/>
<path d="M0 300H640" stroke="#505050" stroke-width="1.5"/>
<path d="M0 340H640" stroke="#505050" stroke-width="1.5"/>
<path d="M0 0V360" stroke="#505050" stroke-width="1.5"/>
<path d="M40 0V360" stroke="#505050" stroke-width="1.5"/>
<path d="M80 0V360" stroke="#505050" stroke-width="1.5"/>
<path d="M120 0V360" stroke="#505050" stroke-width="1.5"/>
<path d="M160 0V360" stroke="#505050" stroke-width="1.5"/>
<path d="M200 0V360" stroke="#505050" stroke-width="1.5"/>
<path d="M240 0V360" stroke="#505050" stroke-width="1.5"/>
<path d="M280 0V360" stroke="#505050" stroke-width="1.5"/>
<path d="M320 0V360" stroke="#505050" stroke-width="1.5"/>
<path d="M360 0V360" stroke="#505050" stroke-width="1.5"/>
<path d="M400 0V360" stroke="#505050" stroke-width="1.5"/>
<path d="M440 0V360" stroke="#505050" stroke-width="1.5"/>
<path d="M480 0V360" stroke="#505050" stroke-width="1.5"/>
<path d="M520 0V360" stroke="#505050" stroke-width="1.5"/>
<path d="M560 0V360" stroke="#505050" stroke-width="1.5"/>
<path d="M600 0V360" stroke="#505050" stroke-width="1.5"/>
<path d="M640 0V360" stroke="#505050" stroke-width="1.5"/>
</g>
<path d="M0 180H640" stroke="#808080" stroke-width="1.5"/>
<path d="M320 0V360" stroke="#808080" stroke-width="1.5"/>
<path d="M341.835 206.617L355.777 197.889L353.063 214.112L349.115 207.869L341.835 206.617Z" fill="#92D192"/>
<path d="M286.718 202.188C290.604 208.018 295.954 212.724 302.231 215.837C308.508 218.949 315.493 220.358 322.486 219.923C329.478 219.487 336.234 217.223 342.077 213.356C347.919 209.489 352.644 204.155 355.777 197.889L353.813 201.371" stroke="#92D192" stroke-width="1.5"/>
<path d="M320 180L200 260L280 300L400 220L320 180Z" fill="#F0F0F0" fill-opacity="0.2" stroke="#F0F0F0" stroke-width="1.5"/>
<path d="M216.225 257.296L200 260L208.737 246.063L209.985 253.344L216.225 257.296Z" fill="#FFF888"/>
<path d="M320 180L203.328 257.781" stroke="#FFF888" stroke-width="1.5"/>
<path d="M389.602 207.254L400 220L383.565 219.329L389.267 214.633L389.602 207.254Z" fill="#6AB0F3"/>
<path d="M320 180L396.422 218.211" stroke="#6AB0F3" stroke-width="1.5"/>
<path d="M190.012 263.875H171.076V284.7H190.012V263.875Z" fill="black"/>
<g clip-path="url(#clip2_1601_33187)">
<path d="M182.454 273.832C182.612 273.871 183.228 273.891 184.304 273.891C185.262 273.891 185.78 273.871 185.859 273.832H185.977V275.052H184.599L182.612 279.499C181.811 281.31 181.352 282.294 181.234 282.451C181.129 282.582 181.004 282.648 180.86 282.648C180.834 282.648 180.788 282.648 180.722 282.648C180.657 282.648 180.591 282.641 180.526 282.628H180.23C180.034 282.628 179.876 282.53 179.758 282.333C179.64 282.136 179.358 281.546 178.912 280.562C178.715 280.129 178.558 279.775 178.44 279.499L176.452 275.052H175.074V273.832H175.232C175.429 273.871 176.157 273.891 177.416 273.891C178.82 273.891 179.64 273.871 179.876 273.832H180.053V275.052H179.109L180.152 277.374C180.821 278.883 181.175 279.637 181.214 279.637C181.214 279.624 181.549 278.869 182.218 277.374C182.887 275.878 183.235 275.111 183.261 275.071C183.261 275.058 183.103 275.052 182.789 275.052H182.316V273.832H182.454Z" fill="#FFF888"/>
<path d="M183.035 268.262C183.035 268.157 183.067 268.066 183.133 267.987C183.199 267.908 183.297 267.869 183.428 267.869C183.52 267.869 183.599 267.902 183.664 267.967C183.73 268.02 183.796 268.144 183.861 268.341C183.992 268.827 184.261 269.2 184.668 269.463C184.812 269.555 184.884 269.673 184.884 269.817C184.884 269.935 184.865 270.014 184.825 270.053C184.786 270.093 184.694 270.152 184.55 270.23C183.986 270.519 183.494 270.932 183.074 271.47C183.048 271.496 183.015 271.536 182.976 271.588C182.936 271.641 182.903 271.68 182.877 271.706C182.851 271.732 182.818 271.746 182.779 271.746C182.739 271.746 182.694 271.752 182.641 271.765C182.549 271.765 182.464 271.732 182.385 271.667C182.306 271.601 182.261 271.503 182.247 271.372C182.247 271.122 182.556 270.735 183.172 270.211H179.807L176.442 270.191C176.272 270.073 176.186 269.948 176.186 269.817C176.186 269.725 176.272 269.594 176.442 269.423H183.507C183.192 268.925 183.035 268.538 183.035 268.262Z" fill="#FFF888"/>
</g>
<path d="M433.66 221.284H410.261V242.13H433.66V221.284Z" fill="black"/>
<g clip-path="url(#clip3_1601_33187)">
<path d="M426.048 231.241C426.205 231.281 426.848 231.3 427.977 231.3C428.961 231.3 429.472 231.281 429.512 231.241H429.61V232.461H428.351L425.438 239.763C425.425 239.776 425.405 239.796 425.379 239.822C425.353 239.848 425.326 239.874 425.3 239.901C425.274 239.927 425.261 239.94 425.261 239.94C425.261 239.94 425.241 239.953 425.202 239.979C425.162 240.005 425.149 240.019 425.162 240.019C425.175 240.019 425.149 240.025 425.084 240.038C425.018 240.051 424.992 240.051 425.005 240.038C425.018 240.025 424.992 240.032 424.926 240.058C424.861 240.084 424.821 240.084 424.808 240.058C424.795 240.032 424.743 240.032 424.651 240.058H424.434C424.211 240.058 424.054 239.992 423.962 239.861C423.87 239.73 423.686 239.31 423.411 238.602C423.201 238.077 423.024 237.637 422.879 237.283L421.935 234.921L420.99 237.283C420.859 237.624 420.688 238.051 420.478 238.562C420.203 239.284 420.019 239.71 419.927 239.841C419.836 239.973 419.678 240.045 419.455 240.058H419.219C418.983 240.058 418.825 240.045 418.747 240.019C418.668 239.992 418.569 239.907 418.451 239.763L415.539 232.461H414.259V231.241H414.397C414.594 231.281 415.303 231.3 416.523 231.3C417.874 231.3 418.668 231.281 418.904 231.241H419.081V232.461H418.137L419.868 236.752L421.285 233.249L420.97 232.461H419.731V231.241H419.868C420.026 231.281 420.662 231.3 421.777 231.3C423.102 231.3 423.863 231.281 424.06 231.241H424.218V232.461H423.726C423.398 232.461 423.234 232.474 423.234 232.501C423.247 232.553 423.562 233.347 424.178 234.882C424.795 236.417 425.11 237.185 425.123 237.185L427.032 232.461H425.91V231.241H426.048Z" fill="#6AB0F3"/>
<path d="M424.444 225.672C424.444 225.567 424.477 225.475 424.542 225.396C424.608 225.317 424.706 225.278 424.838 225.278C424.929 225.278 425.008 225.311 425.074 225.376C425.139 225.429 425.205 225.554 425.271 225.75C425.402 226.236 425.671 226.61 426.078 226.872C426.222 226.964 426.294 227.082 426.294 227.226C426.294 227.345 426.274 227.423 426.235 227.463C426.196 227.502 426.104 227.561 425.959 227.64C425.395 227.928 424.903 228.342 424.483 228.88C424.457 228.906 424.424 228.945 424.385 228.998C424.346 229.05 424.313 229.089 424.287 229.116C424.26 229.142 424.228 229.155 424.188 229.155C424.149 229.155 424.103 229.162 424.05 229.175C423.959 229.175 423.873 229.142 423.795 229.076C423.716 229.011 423.67 228.912 423.657 228.781C423.657 228.532 423.965 228.145 424.582 227.62H421.216L417.851 227.6C417.681 227.482 417.595 227.358 417.595 227.226C417.595 227.135 417.681 227.003 417.851 226.833H424.916C424.601 226.334 424.444 225.947 424.444 225.672Z" fill="#6AB0F3"/>
</g>
<path d="M368.474 30.384H272.553V51.5672H368.474V30.384Z" fill="black"/>
<g clip-path="url(#clip4_1601_33187)">
<path d="M283.932 40.3416C284.09 40.381 284.707 40.4007 285.783 40.4007C286.74 40.4007 287.259 40.381 287.337 40.3416H287.456V41.5619H286.078L284.09 46.0102C283.289 47.821 282.83 48.8051 282.712 48.9625C282.607 49.0938 282.482 49.1594 282.338 49.1594C282.312 49.1594 282.266 49.1594 282.2 49.1594C282.135 49.1594 282.069 49.1528 282.003 49.1397H281.708C281.511 49.1397 281.354 49.0413 281.236 48.8444C281.118 48.6476 280.836 48.0571 280.39 47.073C280.193 46.64 280.035 46.2857 279.917 46.0102L277.929 41.5619H276.551V40.3416H276.709C276.906 40.381 277.634 40.4007 278.894 40.4007C280.298 40.4007 281.118 40.381 281.354 40.3416H281.531V41.5619H280.586L281.63 43.8845C282.299 45.3935 282.653 46.1479 282.692 46.1479C282.692 46.1348 283.027 45.3803 283.696 43.8845C284.365 42.3886 284.713 41.621 284.739 41.5816C284.739 41.5685 284.582 41.5619 284.267 41.5619H283.795V40.3416H283.932Z" fill="#FFF888"/>
<path d="M284.513 34.7715C284.513 34.6665 284.546 34.5747 284.611 34.4959C284.677 34.4172 284.775 34.3778 284.907 34.3778C284.998 34.3778 285.077 34.4106 285.143 34.4763C285.208 34.5287 285.274 34.6534 285.34 34.8502C285.471 35.3357 285.74 35.7097 286.147 35.9721C286.291 36.064 286.363 36.1821 286.363 36.3264C286.363 36.4445 286.343 36.5232 286.304 36.5626C286.265 36.602 286.173 36.661 286.029 36.7397C285.464 37.0284 284.972 37.4417 284.552 37.9797C284.526 38.006 284.493 38.0453 284.454 38.0978C284.415 38.1503 284.382 38.1897 284.356 38.2159C284.329 38.2422 284.296 38.2553 284.257 38.2553C284.218 38.2553 284.172 38.2618 284.119 38.275C284.027 38.275 283.942 38.2422 283.863 38.1766C283.785 38.1109 283.739 38.0125 283.726 37.8813C283.726 37.632 284.034 37.2449 284.651 36.7201H281.285L277.919 36.7004C277.749 36.5823 277.664 36.4576 277.664 36.3264C277.664 36.2346 277.749 36.1033 277.919 35.9328H284.985C284.67 35.4341 284.513 35.047 284.513 34.7715Z" fill="#FFF888"/>
<path d="M304.76 48.5098C304.76 48.7723 304.623 48.9035 304.347 48.9035C304.281 48.9035 304.137 48.7985 303.914 48.5886C303.691 48.3786 303.074 47.7685 302.064 46.7581L300.017 44.7111L297.95 46.7778C296.559 48.1424 295.844 48.8379 295.805 48.8641C295.752 48.8904 295.706 48.9035 295.667 48.9035C295.562 48.9035 295.47 48.8641 295.391 48.7854C295.313 48.7067 295.267 48.6148 295.254 48.5098C295.254 48.418 295.346 48.2736 295.529 48.0768C295.713 47.88 296.33 47.2567 297.379 46.207L299.426 44.16L297.379 42.113C296.317 41.0502 295.7 40.4269 295.529 40.2432C295.359 40.0595 295.267 39.9152 295.254 39.8102C295.254 39.6921 295.293 39.6003 295.372 39.5346C295.451 39.469 295.549 39.4362 295.667 39.4362C295.733 39.4362 295.779 39.4428 295.805 39.4559C295.844 39.4822 296.559 40.1776 297.95 41.5423L300.017 43.6089L302.064 41.5619C303.074 40.5516 303.691 39.9414 303.914 39.7315C304.137 39.5215 304.281 39.4165 304.347 39.4165C304.623 39.4165 304.76 39.5478 304.76 39.8102C304.76 39.9021 304.695 40.0201 304.563 40.1645C304.432 40.3088 303.789 40.9518 302.635 42.0934L300.588 44.16L302.635 46.2267C303.737 47.3289 304.367 47.9653 304.524 48.1359C304.682 48.3065 304.76 48.4311 304.76 48.5098Z" fill="#F0F0F0"/>
<path d="M324.329 40.3416C324.486 40.381 325.129 40.4007 326.257 40.4007C327.242 40.4007 327.753 40.381 327.793 40.3416H327.891V41.5619H326.631L323.718 48.8641C323.705 48.8772 323.686 48.8969 323.659 48.9232C323.633 48.9494 323.607 48.9757 323.581 49.0019C323.554 49.0281 323.541 49.0413 323.541 49.0413C323.541 49.0413 323.522 49.0544 323.482 49.0806C323.443 49.1069 323.43 49.12 323.443 49.12C323.456 49.12 323.43 49.1266 323.364 49.1397C323.299 49.1528 323.272 49.1528 323.285 49.1397C323.299 49.1266 323.272 49.1331 323.207 49.1594C323.141 49.1856 323.102 49.1856 323.089 49.1594C323.075 49.1331 323.023 49.1331 322.931 49.1594H322.715C322.492 49.1594 322.334 49.0938 322.242 48.9625C322.15 48.8313 321.967 48.4114 321.691 47.7029C321.481 47.178 321.304 46.7384 321.16 46.3841L320.215 44.0222L319.27 46.3841C319.139 46.7253 318.968 47.1518 318.758 47.6635C318.483 48.3852 318.299 48.8116 318.207 48.9429C318.116 49.0741 317.958 49.1462 317.735 49.1594H317.499C317.263 49.1594 317.105 49.1462 317.026 49.12C316.948 49.0938 316.849 49.0085 316.731 48.8641L313.818 41.5619H312.539V40.3416H312.677C312.873 40.381 313.582 40.4007 314.802 40.4007C316.154 40.4007 316.948 40.381 317.184 40.3416H317.361V41.5619H316.416L318.148 45.8527L319.565 42.3492L319.251 41.5619H318.011V40.3416H318.148C318.306 40.381 318.942 40.4007 320.058 40.4007C321.383 40.4007 322.144 40.381 322.341 40.3416H322.498V41.5619H322.006C321.678 41.5619 321.514 41.5751 321.514 41.6013C321.527 41.6538 321.842 42.4477 322.459 43.9829C323.075 45.5181 323.39 46.2857 323.404 46.2857L325.313 41.5619H324.191V40.3416H324.329Z" fill="#6AB0F3"/>
<path d="M322.724 34.7715C322.724 34.6665 322.757 34.5747 322.823 34.4959C322.889 34.4172 322.987 34.3779 323.118 34.3779C323.21 34.3779 323.289 34.4107 323.354 34.4763C323.42 34.5288 323.486 34.6534 323.551 34.8502C323.682 35.3357 323.951 35.7097 324.358 35.9721C324.502 36.064 324.575 36.1821 324.575 36.3264C324.575 36.4445 324.555 36.5232 324.516 36.5626C324.476 36.602 324.384 36.661 324.24 36.7397C323.676 37.0284 323.184 37.4418 322.764 37.9797C322.738 38.006 322.705 38.0454 322.665 38.0978C322.626 38.1503 322.593 38.1897 322.567 38.2159C322.541 38.2422 322.508 38.2553 322.469 38.2553C322.429 38.2553 322.383 38.2619 322.331 38.275C322.239 38.275 322.154 38.2422 322.075 38.1766C321.996 38.111 321.95 38.0125 321.937 37.8813C321.937 37.632 322.246 37.2449 322.862 36.7201H319.497L316.131 36.7004C315.96 36.5823 315.875 36.4576 315.875 36.3264C315.875 36.2346 315.96 36.1033 316.131 35.9328H323.197C322.882 35.4341 322.724 35.0471 322.724 34.7715Z" fill="#6AB0F3"/>
<path d="M334.973 42.2508C334.973 42.0802 335.065 41.949 335.248 41.8572H347.786C347.983 41.9621 348.081 42.0934 348.081 42.2508C348.081 42.3952 347.99 42.5198 347.806 42.6248L341.547 42.6445H335.288C335.078 42.5789 334.973 42.4476 334.973 42.2508ZM334.973 46.0692C334.973 45.8724 335.078 45.7412 335.288 45.6756H347.806C347.99 45.8068 348.081 45.938 348.081 46.0692C348.081 46.2398 347.983 46.371 347.786 46.4629H335.248C335.065 46.371 334.973 46.2398 334.973 46.0692Z" fill="#F0F0F0"/>
<path d="M355.734 40.0661C355.747 40.0398 355.859 39.3247 356.069 37.9207L356.383 35.8147C356.383 35.7884 356.515 35.7753 356.777 35.7753H357.171V35.854C357.171 35.9852 357.269 36.0968 357.466 36.1886C357.663 36.2805 358.004 36.3395 358.489 36.3658C358.975 36.392 360.084 36.4051 361.816 36.4051H364.197V37.1727L362.859 39.0032C362.741 39.1607 362.544 39.4231 362.268 39.7905C361.993 40.1579 361.816 40.4007 361.737 40.5188C361.658 40.6369 361.521 40.8468 361.324 41.1486C361.127 41.4504 360.996 41.6866 360.93 41.8572C360.864 42.0278 360.773 42.2705 360.655 42.5854C360.536 42.9003 360.451 43.2021 360.399 43.4908C360.346 43.7795 360.294 44.1338 360.241 44.5537C360.189 44.9736 360.149 45.4197 360.123 45.8921C360.097 46.3645 360.077 46.9024 360.064 47.506C360.064 47.6897 360.064 47.8734 360.064 48.0571C360.064 48.2408 360.057 48.3983 360.044 48.5295V48.7067C359.992 48.9297 359.867 49.12 359.67 49.2775C359.474 49.4349 359.251 49.5136 359.001 49.5136C358.857 49.5136 358.719 49.494 358.588 49.4546C358.457 49.4152 358.319 49.2906 358.175 49.0806C358.03 48.8707 357.958 48.6082 357.958 48.2933C357.958 46.2201 358.594 44.0682 359.867 41.8375C360.13 41.4176 360.681 40.6237 361.521 39.4559L362.426 38.2159H360.595C358.312 38.2159 357.112 38.2553 356.994 38.334C356.915 38.3734 356.843 38.5308 356.777 38.8064C356.711 39.0819 356.646 39.3641 356.58 39.6527L356.521 40.0661V40.1251H355.734V40.0661Z" fill="#F0F0F0"/>
</g>
</g>
<defs>
<clipPath id="clip0_1601_33187">
<rect width="640" height="360" fill="white"/>
</clipPath>
<clipPath id="clip1_1601_33187">
<rect width="640" height="360" fill="white"/>
</clipPath>
<clipPath id="clip2_1601_33187">
<rect width="11.9451" height="16.6692" fill="white" transform="translate(174.563 265.9)"/>
</clipPath>
<clipPath id="clip3_1601_33187">
<rect width="16.356" height="16.6692" fill="white" transform="translate(413.767 223.31)"/>
</clipPath>
<clipPath id="clip4_1601_33187">
<rect width="88.4529" height="18.2874" fill="white" transform="translate(276.04 32.4084)"/>
</clipPath>
</defs>
</svg>
