<svg width="640" height="512" viewBox="0 0 640 512" fill="none" xmlns="http://www.w3.org/2000/svg">
<g clip-path="url(#clip0_1600_28696)">
<path d="M640 0H0V512H640V0Z" fill="black"/>
<path d="M390.45 218.219L406.899 218.268L395.954 230.547L395.941 223.16L390.45 218.219Z" fill="#A0A0A0"/>
<path d="M224.166 307.243L207.717 307.194L218.662 294.915L218.674 302.302L224.166 307.243Z" fill="#A0A0A0"/>
<path d="M211.37 305.563L403.247 219.899" stroke="#A0A0A0" stroke-width="1.5"/>
<path d="M214.887 237.114L201.995 226.899L218.191 224.025L213.63 229.835L214.887 237.114Z" fill="#A0A0A0"/>
<path d="M452.518 283.16L465.41 293.375L449.214 296.25L453.775 290.439L452.518 283.16Z" fill="#A0A0A0"/>
<path d="M461.532 292.396L205.874 227.878" stroke="#A0A0A0" stroke-width="1.5"/>
<path d="M327.204 386.828L320.442 401.823L313.704 386.818L320.451 389.823L327.204 386.828Z" fill="#A0A0A0"/>
<path d="M313.915 108.608L320.676 93.6133L327.415 108.618L320.667 105.613L313.915 108.608Z" fill="#A0A0A0"/>
<path d="M320.673 97.6133L320.445 397.823" stroke="#A0A0A0" stroke-width="1.5"/>
<path opacity="0.75" d="M224.166 307.243L207.717 307.194L218.662 294.915L218.674 302.302L224.166 307.243Z" fill="#F0F0F0"/>
<path opacity="0.75" d="M390.45 218.219L406.899 218.268L395.954 230.547L395.941 223.16L390.45 218.219Z" fill="#F0F0F0"/>
<path opacity="0.75" d="M403.247 219.899L211.37 305.563" stroke="#F0F0F0" stroke-width="1.5"/>
<path opacity="0.75" d="M452.518 283.16L465.41 293.375L449.214 296.25L453.775 290.439L452.518 283.16Z" fill="#F0F0F0"/>
<path opacity="0.75" d="M214.887 237.114L201.995 226.899L218.191 224.025L213.63 229.835L214.887 237.114Z" fill="#F0F0F0"/>
<path opacity="0.75" d="M205.874 227.878L461.532 292.396" stroke="#F0F0F0" stroke-width="1.5"/>
<path opacity="0.75" d="M313.915 108.608L320.676 93.6133L327.415 108.618L320.667 105.613L313.915 108.608Z" fill="#F0F0F0"/>
<path opacity="0.75" d="M327.204 386.828L320.442 401.823L313.704 386.818L320.451 389.823L327.204 386.828Z" fill="#F0F0F0"/>
<path opacity="0.75" d="M320.445 397.823L320.673 97.6133" stroke="#F0F0F0" stroke-width="1.5"/>
<path opacity="0.75" d="M315.568 206.488L325.547 202.74" stroke="#A0A0A0" stroke-width="1.5"/>
<path opacity="0.75" d="M327.276 206.021L313.974 203.196" stroke="#A0A0A0" stroke-width="1.5"/>
<path opacity="0.75" d="M315.685 309.504L325.28 304.566" stroke="#A0A0A0" stroke-width="1.5"/>
<path opacity="0.75" d="M326.939 308.888L314.151 305.169" stroke="#A0A0A0" stroke-width="1.5"/>
<path opacity="0.75" d="M293.108 273.863L279.82 270.26" stroke="#A0A0A0" stroke-width="1.5"/>
<path opacity="0.75" d="M286.33 264.04L286.528 280.015" stroke="#A0A0A0" stroke-width="1.5"/>
<path opacity="0.75" d="M358.201 244.393L345.416 241.376" stroke="#A0A0A0" stroke-width="1.5"/>
<path opacity="0.75" d="M351.872 235.464L351.684 250.248" stroke="#A0A0A0" stroke-width="1.5"/>
<path opacity="0.75" d="M360.73 270.518L370.231 265.844" stroke="#A0A0A0" stroke-width="1.5"/>
<path opacity="0.75" d="M365.657 260.232L365.37 276.049" stroke="#A0A0A0" stroke-width="1.5"/>
<path opacity="0.75" d="M273.45 248.261L283.46 244.171" stroke="#A0A0A0" stroke-width="1.5"/>
<path opacity="0.75" d="M278.372 238.72L278.601 253.643" stroke="#A0A0A0" stroke-width="1.5"/>
<path opacity="0.75" d="M315.506 151.791L325.689 148.719" stroke="#A0A0A0" stroke-width="1.5"/>
<path opacity="0.75" d="M327.456 151.409L313.881 149.091" stroke="#A0A0A0" stroke-width="1.5"/>
<path opacity="0.75" d="M315.74 358.068L325.154 352.605" stroke="#A0A0A0" stroke-width="1.5"/>
<path opacity="0.75" d="M326.78 357.385L314.235 353.272" stroke="#A0A0A0" stroke-width="1.5"/>
<path opacity="0.75" d="M255.787 290.76L242.262 286.799" stroke="#A0A0A0" stroke-width="1.5"/>
<path opacity="0.75" d="M248.761 280.42L249.212 297.063" stroke="#A0A0A0" stroke-width="1.5"/>
<path opacity="0.75" d="M386.753 231.467L374.226 228.689" stroke="#A0A0A0" stroke-width="1.5"/>
<path opacity="0.75" d="M380.629 222.927L380.293 237.178" stroke="#A0A0A0" stroke-width="1.5"/>
<path opacity="0.75" d="M409.071 282.845L418.225 277.831" stroke="#A0A0A0" stroke-width="1.5"/>
<path opacity="0.75" d="M413.983 272.143L413.381 288.446" stroke="#A0A0A0" stroke-width="1.5"/>
<path opacity="0.75" d="M233.921 238.181L244.11 234.342" stroke="#A0A0A0" stroke-width="1.5"/>
<path opacity="0.75" d="M238.827 228.974L239.267 243.486" stroke="#A0A0A0" stroke-width="1.5"/>
<path d="M302.878 272.101L286.429 272.052L297.374 259.773L297.387 267.16L302.878 272.101Z" fill="#92D192"/>
<path d="M320.552 256.818L290.082 270.421" stroke="#92D192" stroke-width="1.5"/>
<path d="M352.621 257.95L365.513 268.165L349.317 271.039L353.878 265.229L352.621 257.95Z" fill="#F2777A"/>
<path d="M320.552 256.818L361.634 267.186" stroke="#F2777A" stroke-width="1.5"/>
<path d="M313.831 219.596L320.592 204.601L327.331 219.606L320.583 216.601L313.831 219.596Z" fill="#6AB0F3"/>
<path d="M320.552 256.818L320.589 208.601" stroke="#6AB0F3" stroke-width="1.5"/>
<path d="M193.126 309.478H175.511V324.422H193.126V309.478Z" fill="black"/>
<g clip-path="url(#clip1_1600_28696)">
<path d="M179.843 316.489C179.935 315.938 180.289 315.302 180.906 314.58C181.523 313.859 182.284 313.491 183.189 313.478C183.648 313.478 184.068 313.596 184.449 313.832C184.829 314.069 185.111 314.364 185.295 314.718C185.846 313.891 186.509 313.478 187.283 313.478C187.768 313.478 188.188 313.622 188.543 313.911C188.897 314.2 189.081 314.587 189.094 315.072C189.094 315.453 189.002 315.761 188.818 315.997C188.634 316.233 188.457 316.378 188.287 316.43C188.116 316.483 187.965 316.509 187.834 316.509C187.585 316.509 187.381 316.437 187.224 316.293C187.066 316.148 186.988 315.958 186.988 315.722C186.988 315.118 187.316 314.705 187.972 314.482C187.827 314.311 187.565 314.226 187.185 314.226C187.014 314.226 186.889 314.239 186.811 314.265C186.312 314.475 185.945 314.908 185.708 315.564C184.921 318.464 184.528 320.157 184.528 320.642C184.528 321.01 184.633 321.272 184.842 321.429C185.052 321.587 185.282 321.666 185.531 321.666C186.017 321.666 186.496 321.449 186.968 321.016C187.44 320.583 187.762 320.052 187.932 319.422C187.972 319.291 188.011 319.219 188.051 319.205C188.09 319.192 188.195 319.179 188.365 319.166H188.444C188.641 319.166 188.739 319.219 188.739 319.323C188.739 319.337 188.726 319.409 188.7 319.54C188.49 320.288 188.083 320.95 187.48 321.528C186.876 322.105 186.174 322.394 185.374 322.394C184.455 322.394 183.76 321.98 183.288 321.154C182.75 321.967 182.133 322.374 181.438 322.374H181.319C180.677 322.374 180.217 322.204 179.942 321.862C179.666 321.521 179.522 321.16 179.509 320.78C179.509 320.36 179.633 320.019 179.883 319.756C180.132 319.494 180.427 319.363 180.768 319.363C181.333 319.363 181.615 319.638 181.615 320.189C181.615 320.452 181.536 320.682 181.379 320.878C181.221 321.075 181.07 321.206 180.926 321.272C180.782 321.338 180.696 321.37 180.67 321.37L180.611 321.39C180.611 321.403 180.65 321.429 180.729 321.469C180.808 321.508 180.913 321.554 181.044 321.607C181.175 321.659 181.3 321.679 181.418 321.666C181.89 321.666 182.297 321.37 182.638 320.78C182.756 320.57 182.907 320.124 183.091 319.442C183.275 318.759 183.458 318.051 183.642 317.316C183.826 316.581 183.931 316.148 183.957 316.017C184.022 315.663 184.055 315.407 184.055 315.249C184.055 314.882 183.957 314.62 183.76 314.462C183.563 314.305 183.34 314.226 183.091 314.226C182.566 314.226 182.074 314.436 181.615 314.856C181.155 315.276 180.834 315.814 180.65 316.47C180.624 316.588 180.591 316.653 180.552 316.666C180.513 316.68 180.408 316.693 180.237 316.706H179.961C179.883 316.627 179.843 316.555 179.843 316.489Z" fill="#F0F0F0"/>
</g>
<path d="M494.09 287.925H476.705V306.702H494.09V287.925Z" fill="black"/>
<g clip-path="url(#clip2_1600_28696)">
<path d="M480.704 294.977C480.704 294.793 480.802 294.478 480.999 294.032C481.196 293.585 481.511 293.12 481.944 292.634C482.377 292.148 482.863 291.912 483.401 291.925C483.939 291.925 484.372 292.076 484.7 292.378C485.028 292.68 485.199 293.1 485.212 293.638C485.185 293.887 485.166 294.025 485.153 294.051C485.153 294.091 485.048 294.393 484.838 294.957C484.628 295.521 484.411 296.158 484.188 296.866C483.965 297.575 483.86 298.14 483.873 298.559C483.873 299.124 483.965 299.518 484.149 299.741C484.332 299.964 484.608 300.082 484.975 300.095C485.277 300.095 485.559 300.023 485.822 299.878C486.084 299.734 486.288 299.583 486.432 299.426C486.577 299.268 486.754 299.052 486.964 298.776C486.964 298.763 486.997 298.632 487.062 298.382C487.128 298.133 487.22 297.746 487.338 297.221C487.456 296.696 487.581 296.21 487.712 295.764C488.211 293.795 488.486 292.765 488.539 292.673C488.709 292.319 488.991 292.142 489.385 292.142C489.556 292.142 489.694 292.188 489.799 292.28C489.904 292.372 489.976 292.45 490.015 292.516C490.054 292.582 490.068 292.641 490.054 292.693C490.054 292.864 489.733 294.242 489.09 296.827C488.447 299.413 488.079 300.83 487.987 301.079C487.62 302.169 486.983 303.035 486.078 303.678C485.172 304.321 484.267 304.649 483.361 304.662C482.771 304.662 482.252 304.518 481.806 304.229C481.36 303.94 481.137 303.507 481.137 302.93C481.137 302.641 481.183 302.398 481.275 302.201C481.366 302.005 481.491 301.86 481.649 301.768C481.806 301.676 481.937 301.611 482.042 301.571C482.147 301.532 482.259 301.512 482.377 301.512C482.954 301.512 483.243 301.788 483.243 302.339C483.243 302.602 483.164 302.831 483.007 303.028C482.849 303.225 482.698 303.356 482.554 303.422C482.41 303.488 482.324 303.52 482.298 303.52L482.239 303.54C482.265 303.606 482.39 303.684 482.613 303.776C482.836 303.868 483.059 303.914 483.282 303.914H483.44C483.663 303.914 483.834 303.901 483.952 303.875C484.385 303.757 484.785 303.507 485.153 303.127C485.52 302.746 485.802 302.339 485.999 301.906C486.196 301.473 486.347 301.106 486.452 300.804C486.557 300.502 486.609 300.305 486.609 300.213L486.491 300.292C486.413 300.344 486.288 300.417 486.117 300.508C485.947 300.6 485.776 300.679 485.605 300.745C485.343 300.81 485.087 300.843 484.838 300.843C484.234 300.843 483.702 300.699 483.243 300.41C482.784 300.121 482.482 299.655 482.338 299.012C482.324 298.92 482.318 298.717 482.318 298.402C482.318 297.654 482.548 296.676 483.007 295.469C483.466 294.261 483.696 293.494 483.696 293.166C483.696 293.152 483.696 293.139 483.696 293.126C483.696 293.008 483.696 292.929 483.696 292.89C483.696 292.851 483.67 292.805 483.617 292.752C483.565 292.7 483.492 292.673 483.401 292.673H483.322C483.02 292.673 482.744 292.798 482.495 293.047C482.246 293.297 482.049 293.566 481.904 293.855C481.76 294.143 481.649 294.419 481.57 294.681C481.491 294.944 481.439 295.088 481.412 295.114C481.386 295.141 481.281 295.154 481.097 295.154H480.822C480.743 295.075 480.704 295.016 480.704 294.977Z" fill="#F0F0F0"/>
</g>
<path d="M329.658 64.1702H313.108V79.1144H329.658V64.1702Z" fill="black"/>
<g clip-path="url(#clip3_1600_28696)">
<path d="M323.247 70.217C323.116 70.217 322.768 70.1448 322.204 70.0005C321.64 69.8561 321.227 69.7839 320.964 69.7839C320.702 69.7839 320.479 69.8102 320.295 69.8627C320.111 69.9152 319.96 69.9808 319.842 70.0595C319.724 70.1382 319.645 70.2104 319.606 70.276C319.567 70.3416 319.521 70.4138 319.468 70.4925L319.429 70.5712C319.39 70.6106 319.291 70.6303 319.134 70.6303C318.858 70.6303 318.72 70.5778 318.72 70.4728C318.72 70.4072 318.74 70.3154 318.779 70.1973C318.95 69.6855 319.232 69.246 319.626 68.8785C320.019 68.5111 320.452 68.2881 320.925 68.2093C321.082 68.1831 321.194 68.17 321.259 68.17C321.588 68.17 321.883 68.2815 322.145 68.5046C322.408 68.7276 322.657 68.9442 322.893 69.1541C323.129 69.364 323.379 69.4756 323.641 69.4887C323.93 69.4887 324.218 69.2722 324.507 68.8392C324.796 68.4062 324.947 68.1897 324.96 68.1897C324.973 68.1765 325.071 68.17 325.255 68.17H325.511C325.59 68.2487 325.629 68.3012 325.629 68.3274C325.629 68.3799 325.596 68.4718 325.531 68.603C325.465 68.7342 325.373 68.872 325.255 69.0163C325.137 69.1607 325.025 69.305 324.92 69.4493C324.815 69.5937 324.724 69.7183 324.645 69.8233L324.507 70.0005C323.943 70.6697 323.051 71.5554 321.83 72.6576C320.61 73.7598 319.855 74.4684 319.567 74.7833L319.331 75.0195L319.626 75.0392C319.914 75.0392 320.334 75.1114 320.886 75.2557C321.437 75.4 321.85 75.4722 322.126 75.4722C322.624 75.4722 323.083 75.3476 323.503 75.0982C323.923 74.8489 324.199 74.5209 324.33 74.1141C324.382 73.996 324.428 73.9238 324.468 73.8976C324.507 73.8714 324.606 73.8582 324.763 73.8582C325.012 73.8582 325.137 73.9238 325.137 74.0551C325.137 74.1207 325.13 74.1797 325.117 74.2322C324.894 75.0458 324.461 75.7215 323.818 76.2595C323.175 76.7975 322.532 77.0731 321.889 77.0862C321.548 77.0862 321.246 76.9746 320.984 76.7516C320.721 76.5285 320.466 76.3054 320.216 76.0824C319.967 75.8593 319.718 75.7478 319.468 75.7478C318.891 75.7478 318.373 76.1414 317.913 76.9287C317.835 77.0337 317.723 77.0862 317.579 77.0862H317.48H317.225C317.146 77.0075 317.106 76.9484 317.106 76.909C317.106 76.7122 317.487 76.148 318.248 75.2163C318.76 74.6259 319.626 73.7729 320.846 72.6576C322.066 71.5423 322.821 70.8337 323.11 70.5319C323.267 70.3219 323.313 70.217 323.247 70.217Z" fill="#F0F0F0"/>
</g>
<path d="M279.631 269.429H265.709V289.622H279.631V269.429Z" fill="black"/>
<g clip-path="url(#clip4_1600_28696)">
<path d="M270.392 281.727C270.392 281.662 270.438 281.491 270.529 281.216C270.621 280.94 270.759 280.619 270.943 280.251C271.126 279.884 271.382 279.549 271.71 279.248C272.038 278.946 272.392 278.762 272.773 278.697H273.127C273.573 278.697 273.94 278.841 274.229 279.13C274.517 279.418 274.668 279.825 274.681 280.35C274.668 280.599 274.642 280.776 274.603 280.881C274.563 280.986 274.275 281.786 273.737 283.282C273.055 285.066 272.714 286.128 272.714 286.469C272.714 286.732 272.818 286.863 273.028 286.863C273.278 286.863 273.527 286.751 273.776 286.528C274.117 286.161 274.412 285.551 274.662 284.698C274.701 284.541 274.734 284.449 274.76 284.423C274.786 284.397 274.878 284.377 275.035 284.364H275.154C275.285 284.364 275.37 284.364 275.409 284.364C275.449 284.364 275.495 284.384 275.547 284.423C275.6 284.462 275.619 284.508 275.606 284.561C275.606 284.692 275.541 284.941 275.409 285.308C275.278 285.676 275.029 286.095 274.662 286.568C274.294 287.04 273.874 287.361 273.402 287.532C273.297 287.558 273.14 287.571 272.93 287.571C272.353 287.571 271.94 287.407 271.69 287.079C271.441 286.751 271.316 286.384 271.316 285.977C271.316 285.623 271.638 284.6 272.281 282.908C272.923 281.216 273.251 280.186 273.264 279.818C273.264 279.661 273.245 279.556 273.205 279.504C273.166 279.451 273.068 279.418 272.91 279.405C272.543 279.431 272.235 279.635 271.985 280.015C271.736 280.396 271.553 280.802 271.435 281.235C271.316 281.668 271.238 281.885 271.198 281.885C271.185 281.898 271.061 281.904 270.825 281.904H270.51C270.431 281.826 270.392 281.766 270.392 281.727Z" fill="#92D192"/>
<path d="M269.707 276.06L272.403 273.423L272.56 273.581C274.266 275.207 275.118 276.034 275.118 276.06L274.607 276.631C274.58 276.617 274.2 276.29 273.465 275.647L272.423 274.742L271.34 275.666C271.17 275.811 270.999 275.962 270.829 276.119C270.658 276.276 270.52 276.401 270.415 276.493L270.258 276.611C270.232 276.637 270.133 276.545 269.963 276.335L269.707 276.06Z" fill="#92D192"/>
</g>
<path d="M391.289 261.878H376.202V285.922H391.289V261.878Z" fill="black"/>
<g clip-path="url(#clip5_1600_28696)">
<path d="M382.309 274.256C382.309 274.256 382.309 274.236 382.309 274.197C382.309 274.157 382.349 274.039 382.427 273.843C382.506 273.646 382.637 273.397 382.821 273.095C383.005 272.793 383.215 272.491 383.451 272.189C383.687 271.888 383.995 271.645 384.376 271.461C384.756 271.278 385.15 271.173 385.557 271.146C385.989 271.173 386.383 271.317 386.737 271.579C387.092 271.842 387.269 272.301 387.269 272.957V273.311L386.304 277.208C386.16 277.759 385.996 278.395 385.812 279.117C385.629 279.838 385.497 280.376 385.419 280.731C385.34 281.085 385.288 281.268 385.261 281.282C385.038 281.938 384.625 282.528 384.021 283.053C383.418 283.578 382.71 283.846 381.896 283.86C381.293 283.86 380.84 283.709 380.538 283.407C380.315 283.184 380.204 282.915 380.204 282.6C380.204 282.233 380.322 281.944 380.558 281.734C380.794 281.524 381.063 281.413 381.365 281.4C381.64 281.4 381.837 281.478 381.955 281.636C382.073 281.793 382.139 281.944 382.152 282.088C382.152 282.508 381.968 282.849 381.601 283.112L381.699 283.131H381.994H382.014C382.696 283.131 383.254 282.521 383.687 281.301C383.726 281.183 384.074 279.819 384.73 277.208C385.386 274.597 385.734 273.2 385.773 273.016C385.786 272.937 385.793 272.786 385.793 272.563C385.793 272.406 385.786 272.288 385.773 272.209C385.76 272.13 385.721 272.058 385.655 271.993C385.589 271.927 385.491 271.888 385.36 271.875C385.019 271.875 384.658 272.052 384.277 272.406C384.041 272.642 383.844 272.911 383.687 273.213C383.53 273.515 383.405 273.77 383.313 273.98C383.221 274.19 383.162 274.308 383.136 274.335C383.11 274.361 382.985 274.374 382.762 274.374H382.427C382.349 274.295 382.309 274.236 382.309 274.197V274.256Z" fill="#F2777A"/>
<path d="M381.384 268.509L384.08 265.872L384.238 266.03C385.943 267.657 386.796 268.483 386.796 268.509L386.285 269.08C386.258 269.067 385.878 268.739 385.143 268.096L384.1 267.191L383.018 268.116C382.847 268.26 382.677 268.411 382.506 268.568C382.335 268.726 382.198 268.85 382.093 268.942L381.935 269.06C381.909 269.087 381.811 268.995 381.64 268.785L381.384 268.509Z" fill="#F2777A"/>
</g>
<path d="M330.053 166.065H313.067V191.28H330.053V166.065Z" fill="black"/>
<g clip-path="url(#clip6_1600_28696)">
<path d="M318.502 176.26C318.502 176.129 318.528 175.978 318.58 175.808C318.633 175.637 318.712 175.552 318.817 175.552C318.83 175.552 319.302 175.519 320.234 175.453C321.166 175.388 321.645 175.348 321.671 175.335C321.829 175.335 321.907 175.388 321.907 175.493C321.907 175.585 321.579 176.956 320.923 179.607C320.267 182.206 319.939 183.551 319.939 183.643C320.188 183.512 320.378 183.387 320.51 183.269C320.825 183.033 321.277 182.619 321.868 182.029C322.459 181.438 322.918 181.038 323.246 180.828C323.771 180.473 324.27 180.296 324.742 180.296C325.136 180.296 325.444 180.421 325.667 180.67C325.891 180.92 326.009 181.274 326.022 181.733C326.022 182.061 325.976 182.337 325.884 182.56C325.792 182.783 325.667 182.947 325.51 183.052C325.352 183.157 325.215 183.229 325.097 183.269C324.978 183.308 324.86 183.328 324.742 183.328C324.48 183.328 324.27 183.256 324.112 183.111C323.955 182.967 323.876 182.777 323.876 182.54C323.876 182.212 323.981 181.943 324.191 181.733C324.401 181.523 324.611 181.385 324.821 181.32L325.136 181.261C324.978 181.103 324.821 181.025 324.663 181.025H324.585C324.165 181.064 323.751 181.228 323.344 181.517C322.938 181.805 322.459 182.225 321.907 182.777C321.356 183.328 320.923 183.728 320.608 183.978C320.634 183.991 320.733 184.01 320.903 184.037C321.074 184.063 321.231 184.102 321.376 184.155C321.52 184.207 321.691 184.26 321.888 184.312C322.085 184.365 322.262 184.457 322.419 184.588C322.577 184.719 322.721 184.837 322.852 184.942C322.984 185.047 323.095 185.218 323.187 185.454C323.279 185.69 323.318 185.907 323.305 186.104C323.305 186.327 323.272 186.596 323.207 186.911C323.141 187.226 323.102 187.488 323.089 187.698C323.089 188.223 323.266 188.486 323.62 188.486C324.25 188.486 324.762 187.705 325.156 186.143C325.182 186.038 325.313 185.986 325.549 185.986H325.628C325.838 185.986 325.943 186.045 325.943 186.163C325.943 186.228 325.923 186.32 325.884 186.438C325.346 188.289 324.572 189.214 323.561 189.214C322.97 189.214 322.491 189.043 322.124 188.702C321.756 188.361 321.573 187.869 321.573 187.226C321.573 186.99 321.592 186.786 321.632 186.615C321.671 186.445 321.691 186.287 321.691 186.143C321.691 185.854 321.599 185.605 321.415 185.395C321.231 185.185 321.002 185.034 320.726 184.942C320.451 184.85 320.227 184.778 320.057 184.726C319.886 184.673 319.768 184.653 319.702 184.667H319.663C319.506 185.218 319.368 185.749 319.25 186.261C319.132 186.773 319.04 187.154 318.974 187.403C318.908 187.652 318.849 187.895 318.797 188.131C318.744 188.368 318.698 188.525 318.659 188.604C318.62 188.683 318.574 188.768 318.521 188.86C318.469 188.952 318.397 189.011 318.305 189.037C318.134 189.155 317.95 189.214 317.753 189.214C317.53 189.214 317.36 189.148 317.242 189.017C317.124 188.886 317.064 188.774 317.064 188.683C317.064 188.551 317.307 187.501 317.793 185.533C318.278 183.564 318.757 181.628 319.23 179.725L319.958 176.871C319.971 176.7 319.926 176.595 319.821 176.556C319.716 176.516 319.46 176.484 319.053 176.457H318.954C318.823 176.457 318.738 176.457 318.698 176.457C318.659 176.457 318.613 176.438 318.561 176.398C318.508 176.359 318.488 176.313 318.502 176.26Z" fill="#6AB0F3"/>
<path d="M318.531 172.697L321.228 170.059L321.386 170.217C323.092 171.844 323.945 172.671 323.945 172.697L323.433 173.268C323.407 173.255 323.026 172.927 322.291 172.284L321.248 171.378L320.165 172.303C319.995 172.448 319.824 172.599 319.653 172.756C319.483 172.914 319.345 173.038 319.24 173.13L319.082 173.248C319.056 173.275 318.958 173.183 318.787 172.973L318.531 172.697Z" fill="#6AB0F3"/>
</g>
</g>
<defs>
<clipPath id="clip0_1600_28696">
<rect width="640" height="512" fill="white"/>
</clipPath>
<clipPath id="clip1_1600_28696">
<rect width="11.2578" height="8.9175" fill="white" transform="translate(178.82 313.477)"/>
</clipPath>
<clipPath id="clip2_1600_28696">
<rect width="9.6483" height="12.7368" fill="white" transform="translate(480.289 291.925)"/>
</clipPath>
<clipPath id="clip3_1600_28696">
<rect width="9.1524" height="8.9175" fill="white" transform="translate(316.417 68.1694)"/>
</clipPath>
<clipPath id="clip4_1600_28696">
<rect width="6.6903" height="16.1211" fill="white" transform="translate(268.916 271.453)"/>
</clipPath>
<clipPath id="clip5_1600_28696">
<rect width="6.5337" height="19.9578" fill="white" transform="translate(380.833 263.903)"/>
</clipPath>
<clipPath id="clip6_1600_28696">
<rect width="10.2573" height="21.1236" fill="white" transform="translate(316.119 168.091)"/>
</clipPath>
</defs>
</svg>
