<svg width="960" height="540" viewBox="0 0 960 540" fill="none" xmlns="http://www.w3.org/2000/svg">
<rect width="960" height="540" fill="black"/>
<path d="M528.327 127.765H431.673V208.793H528.327V127.765Z" fill="black"/>
<g clip-path="url(#clip0_1150_46959)">
<path d="M435.236 164.483C435.236 164.422 435.279 164.266 435.363 164.012C435.447 163.759 435.574 163.463 435.743 163.125C435.912 162.787 436.147 162.48 436.449 162.202C436.751 161.925 437.076 161.756 437.426 161.696H437.752C438.162 161.696 438.5 161.828 438.766 162.094C439.031 162.359 439.17 162.733 439.182 163.216C439.17 163.445 439.146 163.608 439.11 163.705C439.073 163.801 438.808 164.537 438.313 165.913C437.686 167.554 437.372 168.531 437.372 168.845C437.372 169.086 437.469 169.207 437.662 169.207C437.891 169.207 438.12 169.104 438.349 168.899C438.663 168.561 438.935 168 439.164 167.216C439.2 167.071 439.23 166.986 439.254 166.962C439.278 166.938 439.363 166.92 439.508 166.908H439.616C439.737 166.908 439.815 166.908 439.852 166.908C439.888 166.908 439.93 166.926 439.978 166.962C440.027 166.999 440.045 167.041 440.033 167.089C440.033 167.21 439.972 167.439 439.852 167.777C439.731 168.115 439.502 168.501 439.164 168.935C438.826 169.369 438.44 169.665 438.005 169.822C437.909 169.846 437.764 169.858 437.571 169.858C437.04 169.858 436.66 169.707 436.431 169.406C436.202 169.104 436.087 168.766 436.087 168.392C436.087 168.066 436.383 167.125 436.974 165.569C437.565 164.012 437.867 163.065 437.879 162.727C437.879 162.582 437.861 162.486 437.824 162.438C437.788 162.389 437.698 162.359 437.553 162.347C437.215 162.371 436.932 162.558 436.702 162.908C436.473 163.258 436.304 163.632 436.196 164.03C436.087 164.428 436.015 164.628 435.978 164.628C435.966 164.64 435.852 164.646 435.635 164.646H435.345C435.273 164.573 435.236 164.519 435.236 164.483Z" fill="#92D192"/>
<path d="M434.606 159.27L437.086 156.845L437.231 156.99C438.799 158.486 439.584 159.246 439.584 159.27L439.113 159.795C439.089 159.783 438.739 159.481 438.063 158.89L437.104 158.058L436.109 158.908C435.952 159.041 435.795 159.18 435.638 159.325C435.481 159.469 435.355 159.584 435.258 159.668L435.113 159.777C435.089 159.801 434.999 159.717 434.842 159.524L434.606 159.27Z" fill="#92D192"/>
<path d="M446.074 165.388C446.074 165.388 446.074 165.309 446.074 165.153C446.074 164.996 446.158 164.875 446.327 164.791H460.173C458.773 163.741 457.91 162.396 457.585 160.755C457.585 160.743 457.585 160.724 457.585 160.7C457.585 160.676 457.579 160.658 457.567 160.646C457.567 160.501 457.669 160.429 457.874 160.429H457.929C458.037 160.429 458.11 160.435 458.146 160.447C458.182 160.459 458.218 160.483 458.254 160.519C458.291 160.556 458.309 160.61 458.309 160.682C458.309 160.755 458.327 160.851 458.363 160.972C458.399 161.092 458.447 161.243 458.508 161.424C458.773 162.233 459.214 162.957 459.829 163.596C460.444 164.236 461.162 164.688 461.983 164.954C462.091 164.99 462.146 165.056 462.146 165.153C462.146 165.225 462.115 165.279 462.055 165.316C461.995 165.352 461.85 165.412 461.621 165.497C461.391 165.581 461.162 165.696 460.933 165.84C460.438 166.154 460.01 166.516 459.648 166.926C459.286 167.337 459.014 167.741 458.833 168.139C458.653 168.537 458.526 168.839 458.453 169.044C458.381 169.249 458.333 169.436 458.309 169.605C458.284 169.726 458.254 169.798 458.218 169.822C458.182 169.846 458.085 169.864 457.929 169.876C457.687 169.876 457.567 169.81 457.567 169.677C457.567 169.593 457.597 169.442 457.657 169.225C458.043 167.705 458.882 166.468 460.173 165.515H446.327C446.158 165.43 446.074 165.309 446.074 165.153V165.388Z" fill="#F0F0F0"/>
<path d="M473.96 163.324V130.764H480.241V132.285H475.481V163.324H473.96Z" fill="#92D192"/>
<path d="M473.96 199.541V166.981H475.481V198.02H480.241V199.541H473.96Z" fill="#92D192"/>
<g clip-path="url(#clip1_1150_46959)">
<path d="M473.96 170.609V159.692H475.481V170.609H473.96Z" fill="#92D192"/>
</g>
<path d="M495.173 133.878L494.937 133.968C494.768 134.029 494.527 134.089 494.213 134.149C493.9 134.209 493.55 134.252 493.164 134.276H492.82V133.443H493.164C493.731 133.419 494.256 133.329 494.738 133.172C495.221 133.015 495.559 132.87 495.752 132.737C495.945 132.605 496.114 132.472 496.259 132.339C496.283 132.303 496.355 132.285 496.476 132.285C496.584 132.285 496.687 132.321 496.783 132.394V137.805L496.802 143.235C496.886 143.319 496.958 143.374 497.019 143.398C497.079 143.422 497.224 143.446 497.453 143.47C497.682 143.494 498.056 143.506 498.575 143.506H499.046V144.339H498.847C498.593 144.303 497.634 144.285 495.969 144.285C494.328 144.285 493.381 144.303 493.128 144.339H492.91V143.506H493.381C493.646 143.506 493.876 143.506 494.069 143.506C494.262 143.506 494.413 143.5 494.521 143.488C494.63 143.476 494.726 143.458 494.811 143.434C494.895 143.41 494.943 143.398 494.956 143.398C494.968 143.398 495.004 143.368 495.064 143.307C495.124 143.247 495.161 143.223 495.173 143.235V133.878Z" fill="#92D192"/>
<path d="M493.055 159.089C493.731 158.112 494.654 157.623 495.824 157.623C496.403 157.623 496.983 157.78 497.562 158.094C498.141 158.408 498.611 158.963 498.973 159.759C499.42 160.761 499.643 162.136 499.643 163.886C499.643 165.756 499.384 167.186 498.865 168.175C498.624 168.682 498.292 169.086 497.869 169.388C497.447 169.689 497.079 169.876 496.765 169.949C496.452 170.021 496.144 170.063 495.842 170.075C495.529 170.075 495.215 170.039 494.901 169.967C494.587 169.894 494.219 169.701 493.797 169.388C493.375 169.074 493.043 168.67 492.802 168.175C492.283 167.186 492.023 165.756 492.023 163.886C492.023 161.786 492.367 160.187 493.055 159.089ZM497.127 158.872C496.765 158.486 496.337 158.293 495.842 158.293C495.336 158.293 494.901 158.486 494.539 158.872C494.238 159.186 494.038 159.62 493.942 160.175C493.845 160.73 493.797 161.889 493.797 163.65C493.797 165.557 493.845 166.812 493.942 167.415C494.038 168.018 494.256 168.495 494.593 168.845C494.931 169.207 495.348 169.388 495.842 169.388C496.325 169.388 496.735 169.207 497.073 168.845C497.423 168.483 497.64 167.976 497.725 167.324C497.809 166.673 497.857 165.448 497.869 163.65C497.869 161.901 497.821 160.748 497.725 160.193C497.628 159.638 497.429 159.198 497.127 158.872Z" fill="#92D192"/>
<path d="M485.797 190.726C485.797 190.726 485.797 190.648 485.797 190.491C485.797 190.334 485.882 190.214 486.051 190.129H496.566C496.747 190.226 496.838 190.346 496.838 190.491C496.838 190.636 496.747 190.756 496.566 190.853H486.051C485.882 190.769 485.797 190.648 485.797 190.491V190.726Z" fill="#92D192"/>
<path d="M502.213 184.555L501.978 184.645C501.809 184.706 501.568 184.766 501.254 184.826C500.94 184.886 500.59 184.929 500.204 184.953H499.86V184.12H500.204C500.771 184.096 501.296 184.006 501.779 183.849C502.261 183.692 502.599 183.547 502.792 183.414C502.985 183.282 503.154 183.149 503.299 183.016C503.323 182.98 503.396 182.962 503.516 182.962C503.625 182.962 503.727 182.998 503.824 183.071V188.482L503.842 193.912C503.927 193.996 503.999 194.051 504.059 194.075C504.12 194.099 504.264 194.123 504.494 194.147C504.723 194.171 505.097 194.183 505.616 194.183H506.086V195.016H505.887C505.634 194.98 504.675 194.962 503.01 194.962C501.369 194.962 500.421 194.98 500.168 195.016H499.951V194.183H500.421C500.687 194.183 500.916 194.183 501.109 194.183C501.302 194.183 501.453 194.177 501.562 194.165C501.67 194.153 501.767 194.135 501.851 194.111C501.936 194.087 501.984 194.075 501.996 194.075C502.008 194.075 502.044 194.045 502.105 193.984C502.165 193.924 502.201 193.9 502.213 193.912V184.555Z" fill="#92D192"/>
<path d="M511.425 132.285V130.764H517.706V163.324H516.185V132.285H511.425Z" fill="#92D192"/>
<path d="M516.185 198.02V166.981H517.706V199.541H511.425V198.02H516.185Z" fill="#92D192"/>
<g clip-path="url(#clip2_1150_46959)">
<path d="M516.186 170.609V159.692H517.706V170.609H516.186Z" fill="#92D192"/>
</g>
</g>
<path d="M519.852 227.766H437.292V308.793H519.852V227.766Z" fill="black"/>
<g clip-path="url(#clip3_1150_46959)">
<path d="M442.281 264.538C442.281 264.538 442.281 264.52 442.281 264.484C442.281 264.447 442.317 264.339 442.39 264.158C442.462 263.977 442.583 263.748 442.752 263.47C442.921 263.193 443.114 262.915 443.331 262.638C443.548 262.36 443.832 262.137 444.182 261.968C444.532 261.799 444.894 261.702 445.268 261.678C445.666 261.702 446.028 261.835 446.353 262.077C446.679 262.318 446.842 262.74 446.842 263.343V263.669L445.955 267.253C445.823 267.76 445.672 268.345 445.503 269.008C445.334 269.672 445.213 270.167 445.141 270.492C445.068 270.818 445.02 270.987 444.996 270.999C444.791 271.602 444.411 272.145 443.856 272.628C443.301 273.111 442.649 273.358 441.901 273.37C441.346 273.37 440.93 273.231 440.652 272.954C440.447 272.749 440.345 272.501 440.345 272.212C440.345 271.874 440.453 271.609 440.671 271.415C440.888 271.222 441.135 271.12 441.413 271.108C441.666 271.108 441.847 271.18 441.956 271.325C442.064 271.47 442.124 271.609 442.136 271.741C442.136 272.127 441.968 272.441 441.63 272.682L441.72 272.7H441.992H442.01C442.637 272.7 443.15 272.139 443.548 271.017C443.584 270.909 443.904 269.654 444.507 267.253C445.111 264.852 445.43 263.567 445.467 263.398C445.479 263.325 445.485 263.187 445.485 262.981C445.485 262.837 445.479 262.728 445.467 262.656C445.455 262.583 445.418 262.517 445.358 262.457C445.298 262.396 445.207 262.36 445.087 262.348C444.773 262.348 444.441 262.511 444.091 262.837C443.874 263.054 443.693 263.301 443.548 263.579C443.403 263.856 443.289 264.092 443.204 264.285C443.12 264.478 443.066 264.586 443.041 264.61C443.017 264.634 442.903 264.647 442.698 264.647H442.39C442.317 264.574 442.281 264.52 442.281 264.484V264.538Z" fill="#F2777A"/>
<path d="M441.431 259.253L443.91 256.828L444.055 256.973C445.624 258.469 446.408 259.229 446.408 259.253L445.937 259.778C445.913 259.766 445.563 259.464 444.888 258.873L443.928 258.041L442.933 258.891C442.776 259.024 442.619 259.163 442.462 259.308C442.305 259.452 442.179 259.567 442.082 259.651L441.937 259.76C441.913 259.784 441.823 259.7 441.666 259.507L441.431 259.253Z" fill="#F2777A"/>
<path d="M452.974 265.388C452.974 265.388 452.974 265.31 452.974 265.153C452.974 264.996 453.059 264.876 453.228 264.791H467.073C465.673 263.741 464.811 262.396 464.485 260.755C464.485 260.743 464.485 260.725 464.485 260.701C464.485 260.677 464.479 260.659 464.467 260.647C464.467 260.502 464.569 260.429 464.774 260.429H464.829C464.937 260.429 465.01 260.435 465.046 260.448C465.082 260.46 465.118 260.484 465.155 260.52C465.191 260.556 465.209 260.61 465.209 260.683C465.209 260.755 465.227 260.852 465.263 260.972C465.299 261.093 465.348 261.244 465.408 261.425C465.673 262.233 466.114 262.957 466.729 263.597C467.344 264.236 468.062 264.689 468.883 264.954C468.991 264.99 469.046 265.057 469.046 265.153C469.046 265.226 469.016 265.28 468.955 265.316C468.895 265.352 468.75 265.413 468.521 265.497C468.292 265.582 468.062 265.696 467.833 265.841C467.338 266.155 466.91 266.517 466.548 266.927C466.186 267.337 465.915 267.741 465.734 268.139C465.553 268.538 465.426 268.839 465.354 269.044C465.281 269.25 465.233 269.437 465.209 269.605C465.185 269.726 465.155 269.799 465.118 269.823C465.082 269.847 464.986 269.865 464.829 269.877C464.587 269.877 464.467 269.811 464.467 269.678C464.467 269.593 464.497 269.443 464.557 269.225C464.943 267.705 465.782 266.468 467.073 265.515H453.228C453.059 265.431 452.974 265.31 452.974 265.153V265.388Z" fill="#F0F0F0"/>
<path d="M480.86 263.325V230.766H487.141V232.286H482.381V263.325H480.86Z" fill="#F2777A"/>
<path d="M480.86 299.541V266.981H482.381V298.02H487.141V299.541H480.86Z" fill="#F2777A"/>
<g clip-path="url(#clip4_1150_46959)">
<path d="M480.86 270.61V259.693H482.381V270.61H480.86Z" fill="#F2777A"/>
</g>
<path d="M495.032 233.879L494.796 233.969C494.627 234.03 494.386 234.09 494.072 234.15C493.759 234.211 493.409 234.253 493.023 234.277H492.679V233.444H493.023C493.59 233.42 494.115 233.33 494.597 233.173C495.08 233.016 495.418 232.871 495.611 232.739C495.804 232.606 495.973 232.473 496.117 232.34C496.142 232.304 496.214 232.286 496.335 232.286C496.443 232.286 496.546 232.322 496.642 232.395V237.806L496.66 243.236C496.745 243.32 496.817 243.375 496.878 243.399C496.938 243.423 497.083 243.447 497.312 243.471C497.541 243.495 497.915 243.507 498.434 243.507H498.905V244.34H498.706C498.452 244.304 497.493 244.286 495.828 244.286C494.187 244.286 493.24 244.304 492.986 244.34H492.769V243.507H493.24C493.505 243.507 493.734 243.507 493.928 243.507C494.121 243.507 494.271 243.501 494.38 243.489C494.489 243.477 494.585 243.459 494.67 243.435C494.754 243.411 494.802 243.399 494.814 243.399C494.826 243.399 494.863 243.369 494.923 243.308C494.983 243.248 495.019 243.224 495.032 243.236V233.879Z" fill="#F2777A"/>
<path d="M495.032 259.217L494.796 259.307C494.627 259.368 494.386 259.428 494.072 259.488C493.759 259.549 493.409 259.591 493.023 259.615H492.679V258.783H493.023C493.59 258.758 494.115 258.668 494.597 258.511C495.08 258.354 495.418 258.209 495.611 258.077C495.804 257.944 495.973 257.811 496.117 257.679C496.142 257.642 496.214 257.624 496.335 257.624C496.443 257.624 496.546 257.66 496.642 257.733V263.144L496.66 268.574C496.745 268.658 496.817 268.713 496.878 268.737C496.938 268.761 497.083 268.785 497.312 268.809C497.541 268.833 497.915 268.845 498.434 268.845H498.905V269.678H498.706C498.452 269.642 497.493 269.624 495.828 269.624C494.187 269.624 493.24 269.642 492.986 269.678H492.769V268.845H493.24C493.505 268.845 493.734 268.845 493.928 268.845C494.121 268.845 494.271 268.839 494.38 268.827C494.489 268.815 494.585 268.797 494.67 268.773C494.754 268.749 494.802 268.737 494.814 268.737C494.826 268.737 494.863 268.707 494.923 268.646C494.983 268.586 495.019 268.562 495.032 268.574V259.217Z" fill="#F2777A"/>
<path d="M492.914 284.428C493.59 283.451 494.513 282.962 495.683 282.962C496.262 282.962 496.841 283.119 497.421 283.433C498 283.747 498.47 284.302 498.832 285.098C499.279 286.1 499.502 287.475 499.502 289.225C499.502 291.095 499.242 292.525 498.724 293.514C498.482 294.021 498.151 294.425 497.728 294.727C497.306 295.028 496.938 295.215 496.624 295.288C496.31 295.36 496.003 295.402 495.701 295.414C495.387 295.414 495.074 295.378 494.76 295.306C494.446 295.233 494.078 295.04 493.656 294.727C493.234 294.413 492.902 294.009 492.661 293.514C492.142 292.525 491.882 291.095 491.882 289.225C491.882 287.125 492.226 285.526 492.914 284.428ZM496.986 284.211C496.624 283.825 496.196 283.632 495.701 283.632C495.194 283.632 494.76 283.825 494.398 284.211C494.096 284.525 493.897 284.959 493.801 285.514C493.704 286.069 493.656 287.228 493.656 288.989C493.656 290.896 493.704 292.151 493.801 292.754C493.897 293.357 494.114 293.834 494.452 294.184C494.79 294.546 495.206 294.727 495.701 294.727C496.184 294.727 496.594 294.546 496.932 294.184C497.282 293.822 497.499 293.315 497.583 292.663C497.668 292.012 497.716 290.787 497.728 288.989C497.728 287.24 497.68 286.087 497.583 285.532C497.487 284.977 497.288 284.537 496.986 284.211Z" fill="#F2777A"/>
<path d="M504.244 232.286V230.766H510.524V263.325H509.004V232.286H504.244Z" fill="#F2777A"/>
<path d="M509.004 298.02V266.981H510.524V299.541H504.244V298.02H509.004Z" fill="#F2777A"/>
<g clip-path="url(#clip5_1150_46959)">
<path d="M509.004 270.61V259.693H510.524V270.61H509.004Z" fill="#F2777A"/>
</g>
</g>
<path d="M522.509 327.765H437.796V408.793H522.509V327.765Z" fill="black"/>
<g clip-path="url(#clip6_1150_46959)">
<path d="M442.039 357.967C442.039 357.847 442.063 357.708 442.111 357.551C442.159 357.394 442.232 357.316 442.328 357.316C442.34 357.316 442.775 357.286 443.631 357.225C444.488 357.165 444.928 357.129 444.952 357.117C445.097 357.117 445.17 357.165 445.17 357.261C445.17 357.346 444.868 358.607 444.265 361.044C443.661 363.433 443.36 364.67 443.36 364.754C443.589 364.634 443.764 364.519 443.885 364.411C444.174 364.193 444.59 363.813 445.133 363.27C445.676 362.727 446.099 362.359 446.4 362.166C446.883 361.841 447.342 361.678 447.776 361.678C448.138 361.678 448.421 361.792 448.627 362.022C448.832 362.251 448.94 362.577 448.952 362.999C448.952 363.301 448.91 363.554 448.826 363.759C448.741 363.964 448.627 364.115 448.482 364.211C448.337 364.308 448.21 364.374 448.102 364.411C447.993 364.447 447.884 364.465 447.776 364.465C447.535 364.465 447.342 364.399 447.197 364.266C447.052 364.133 446.98 363.958 446.98 363.741C446.98 363.439 447.076 363.192 447.269 362.999C447.462 362.806 447.655 362.679 447.848 362.619L448.138 362.564C447.993 362.42 447.848 362.347 447.703 362.347H447.631C447.245 362.384 446.865 362.534 446.491 362.8C446.117 363.065 445.676 363.451 445.17 363.958C444.663 364.465 444.265 364.833 443.975 365.062C443.999 365.074 444.09 365.092 444.247 365.116C444.403 365.141 444.548 365.177 444.681 365.225C444.814 365.273 444.971 365.322 445.152 365.37C445.333 365.418 445.495 365.503 445.64 365.623C445.785 365.744 445.918 365.852 446.038 365.949C446.159 366.046 446.262 366.202 446.346 366.42C446.431 366.637 446.467 366.836 446.455 367.017C446.455 367.222 446.424 367.469 446.364 367.759C446.304 368.048 446.268 368.29 446.256 368.483C446.256 368.965 446.418 369.207 446.744 369.207C447.323 369.207 447.794 368.489 448.156 367.053C448.18 366.957 448.301 366.908 448.518 366.908H448.59C448.783 366.908 448.88 366.963 448.88 367.071C448.88 367.131 448.862 367.216 448.826 367.325C448.331 369.026 447.619 369.876 446.69 369.876C446.147 369.876 445.707 369.72 445.369 369.406C445.031 369.092 444.862 368.64 444.862 368.048C444.862 367.831 444.88 367.644 444.916 367.487C444.952 367.331 444.971 367.186 444.971 367.053C444.971 366.788 444.886 366.558 444.717 366.365C444.548 366.172 444.337 366.033 444.084 365.949C443.83 365.865 443.625 365.798 443.468 365.75C443.311 365.702 443.203 365.684 443.143 365.696H443.106C442.962 366.202 442.835 366.691 442.726 367.162C442.618 367.632 442.533 367.982 442.473 368.211C442.413 368.441 442.358 368.664 442.31 368.881C442.262 369.098 442.219 369.243 442.183 369.315C442.147 369.388 442.105 369.466 442.057 369.551C442.008 369.635 441.942 369.689 441.858 369.714C441.701 369.822 441.532 369.876 441.351 369.876C441.146 369.876 440.989 369.816 440.88 369.695C440.772 369.575 440.717 369.472 440.717 369.388C440.717 369.267 440.941 368.302 441.387 366.492C441.833 364.682 442.274 362.902 442.708 361.153L443.378 358.528C443.39 358.372 443.348 358.275 443.251 358.239C443.155 358.203 442.919 358.172 442.545 358.148H442.455C442.334 358.148 442.256 358.148 442.219 358.148C442.183 358.148 442.141 358.13 442.093 358.094C442.045 358.058 442.026 358.016 442.039 357.967Z" fill="#6AB0F3"/>
<path d="M442.065 354.691L444.545 352.266L444.69 352.411C446.258 353.907 447.043 354.667 447.043 354.691L446.572 355.216C446.548 355.204 446.198 354.903 445.522 354.311L444.563 353.479L443.568 354.329C443.411 354.462 443.254 354.601 443.097 354.746C442.94 354.891 442.814 355.005 442.717 355.09L442.572 355.198C442.548 355.222 442.458 355.138 442.301 354.945L442.065 354.691Z" fill="#6AB0F3"/>
<path d="M455.319 365.388C455.319 365.388 455.319 365.309 455.319 365.153C455.319 364.996 455.404 364.875 455.573 364.791H469.418C468.019 363.741 467.156 362.396 466.83 360.755C466.83 360.743 466.83 360.724 466.83 360.7C466.83 360.676 466.824 360.658 466.812 360.646C466.812 360.501 466.915 360.429 467.12 360.429H467.174C467.283 360.429 467.355 360.435 467.391 360.447C467.428 360.459 467.464 360.483 467.5 360.519C467.536 360.556 467.554 360.61 467.554 360.682C467.554 360.755 467.572 360.851 467.609 360.972C467.645 361.092 467.693 361.243 467.753 361.424C468.019 362.233 468.459 362.957 469.075 363.596C469.69 364.236 470.408 364.688 471.228 364.954C471.337 364.99 471.391 365.056 471.391 365.153C471.391 365.225 471.361 365.279 471.301 365.316C471.24 365.352 471.096 365.412 470.866 365.497C470.637 365.581 470.408 365.696 470.179 365.84C469.684 366.154 469.256 366.516 468.894 366.926C468.532 367.337 468.26 367.741 468.079 368.139C467.898 368.537 467.771 368.839 467.699 369.044C467.627 369.249 467.578 369.436 467.554 369.605C467.53 369.726 467.5 369.798 467.464 369.822C467.428 369.846 467.331 369.864 467.174 369.876C466.933 369.876 466.812 369.81 466.812 369.677C466.812 369.593 466.842 369.442 466.903 369.225C467.289 367.705 468.127 366.468 469.418 365.515H455.573C455.404 365.43 455.319 365.309 455.319 365.153V365.388Z" fill="#F0F0F0"/>
<path d="M483.206 363.324V330.764H489.486V332.285H484.726V363.324H483.206Z" fill="#6AB0F3"/>
<path d="M483.206 399.541V366.981H484.726V398.02H489.486V399.541H483.206Z" fill="#6AB0F3"/>
<g clip-path="url(#clip7_1150_46959)">
<path d="M483.206 370.609V359.692H484.726V370.609H483.206Z" fill="#6AB0F3"/>
</g>
<path d="M497.378 333.878L497.142 333.968C496.974 334.029 496.732 334.089 496.419 334.149C496.105 334.209 495.755 334.252 495.369 334.276H495.025V333.443H495.369C495.936 333.419 496.461 333.329 496.943 333.172C497.426 333.015 497.764 332.87 497.957 332.737C498.15 332.605 498.319 332.472 498.464 332.339C498.488 332.303 498.56 332.285 498.681 332.285C498.789 332.285 498.892 332.321 498.989 332.394V337.805L499.007 343.235C499.091 343.319 499.164 343.374 499.224 343.398C499.284 343.422 499.429 343.446 499.658 343.47C499.887 343.494 500.262 343.506 500.78 343.506H501.251V344.339H501.052C500.798 344.303 499.839 344.285 498.174 344.285C496.533 344.285 495.586 344.303 495.333 344.339H495.115V343.506H495.586C495.851 343.506 496.081 343.506 496.274 343.506C496.467 343.506 496.618 343.5 496.726 343.488C496.835 343.476 496.931 343.458 497.016 343.434C497.1 343.41 497.149 343.398 497.161 343.398C497.173 343.398 497.209 343.368 497.269 343.307C497.33 343.247 497.366 343.223 497.378 343.235V333.878Z" fill="#6AB0F3"/>
<path d="M495.26 359.089C495.936 358.112 496.859 357.623 498.029 357.623C498.608 357.623 499.188 357.78 499.767 358.094C500.346 358.408 500.817 358.963 501.179 359.759C501.625 360.761 501.848 362.136 501.848 363.886C501.848 365.756 501.589 367.186 501.07 368.175C500.829 368.682 500.497 369.086 500.074 369.388C499.652 369.689 499.284 369.876 498.97 369.949C498.657 370.021 498.349 370.063 498.047 370.075C497.734 370.075 497.42 370.039 497.106 369.967C496.793 369.894 496.425 369.701 496.002 369.388C495.58 369.074 495.248 368.67 495.007 368.175C494.488 367.186 494.229 365.756 494.229 363.886C494.229 361.786 494.572 360.187 495.26 359.089ZM499.332 358.872C498.97 358.486 498.542 358.293 498.047 358.293C497.541 358.293 497.106 358.486 496.744 358.872C496.443 359.186 496.244 359.62 496.147 360.175C496.05 360.73 496.002 361.889 496.002 363.65C496.002 365.557 496.05 366.812 496.147 367.415C496.244 368.018 496.461 368.495 496.799 368.845C497.136 369.207 497.553 369.388 498.047 369.388C498.53 369.388 498.94 369.207 499.278 368.845C499.628 368.483 499.845 367.976 499.93 367.324C500.014 366.673 500.062 365.448 500.074 363.65C500.074 361.901 500.026 360.748 499.93 360.193C499.833 359.638 499.634 359.198 499.332 358.872Z" fill="#6AB0F3"/>
<path d="M497.378 384.555L497.142 384.645C496.974 384.706 496.732 384.766 496.419 384.826C496.105 384.886 495.755 384.929 495.369 384.953H495.025V384.12H495.369C495.936 384.096 496.461 384.006 496.943 383.849C497.426 383.692 497.764 383.547 497.957 383.414C498.15 383.282 498.319 383.149 498.464 383.016C498.488 382.98 498.56 382.962 498.681 382.962C498.789 382.962 498.892 382.998 498.989 383.071V388.482L499.007 393.912C499.091 393.996 499.164 394.051 499.224 394.075C499.284 394.099 499.429 394.123 499.658 394.147C499.887 394.171 500.262 394.183 500.78 394.183H501.251V395.016H501.052C500.798 394.98 499.839 394.962 498.174 394.962C496.533 394.962 495.586 394.98 495.333 395.016H495.115V394.183H495.586C495.851 394.183 496.081 394.183 496.274 394.183C496.467 394.183 496.618 394.177 496.726 394.165C496.835 394.153 496.931 394.135 497.016 394.111C497.1 394.087 497.149 394.075 497.161 394.075C497.173 394.075 497.209 394.045 497.269 393.984C497.33 393.924 497.366 393.9 497.378 393.912V384.555Z" fill="#6AB0F3"/>
<path d="M506.59 332.285V330.764H512.87V363.324H511.35V332.285H506.59Z" fill="#6AB0F3"/>
<path d="M511.35 398.02V366.981H512.87V399.541H506.59V398.02H511.35Z" fill="#6AB0F3"/>
<g clip-path="url(#clip8_1150_46959)">
<path d="M511.35 370.609V359.692H512.87V370.609H511.35Z" fill="#6AB0F3"/>
</g>
</g>
<path d="M56.2951 324.014H40.6802V338.958H56.2951V324.014Z" fill="black"/>
<g clip-path="url(#clip9_1150_46959)">
<path d="M43.9302 329.783C44.0147 329.277 44.3404 328.691 44.9075 328.028C45.4746 327.364 46.1744 327.026 47.0069 327.014C47.4292 327.014 47.8152 327.123 48.1651 327.34C48.515 327.557 48.7744 327.829 48.9433 328.154C49.4501 327.394 50.0594 327.014 50.7712 327.014C51.2176 327.014 51.6037 327.147 51.9295 327.412C52.2553 327.678 52.4242 328.034 52.4362 328.48C52.4362 328.83 52.3518 329.114 52.1829 329.331C52.014 329.548 51.8511 329.681 51.6942 329.729C51.5374 329.777 51.3986 329.801 51.278 329.801C51.0487 329.801 50.8617 329.735 50.7169 329.602C50.5722 329.47 50.4998 329.295 50.4998 329.077C50.4998 328.522 50.8014 328.142 51.4047 327.937C51.2719 327.78 51.0306 327.702 50.6807 327.702C50.5239 327.702 50.4093 327.714 50.3369 327.738C49.8784 327.931 49.5406 328.329 49.3234 328.933C48.5995 331.599 48.2375 333.156 48.2375 333.602C48.2375 333.94 48.334 334.181 48.5271 334.326C48.7201 334.471 48.9313 334.543 49.1605 334.543C49.6069 334.543 50.0473 334.344 50.4817 333.946C50.916 333.548 51.2116 333.059 51.3685 332.48C51.4047 332.359 51.4409 332.293 51.477 332.281C51.5132 332.269 51.6098 332.257 51.7666 332.245H51.839C52.02 332.245 52.1105 332.293 52.1105 332.389C52.1105 332.401 52.0984 332.468 52.0743 332.588C51.8812 333.276 51.5072 333.885 50.9522 334.416C50.3972 334.947 49.7517 335.213 49.0157 335.213C48.1712 335.213 47.5317 334.833 47.0974 334.072C46.6027 334.821 46.0356 335.195 45.3962 335.195H45.2876C44.6964 335.195 44.2741 335.038 44.0207 334.724C43.7673 334.41 43.6346 334.079 43.6226 333.729C43.6226 333.343 43.7372 333.029 43.9664 332.788C44.1957 332.546 44.4671 332.426 44.7808 332.426C45.2996 332.426 45.559 332.679 45.559 333.186C45.559 333.427 45.4866 333.638 45.3419 333.819C45.1971 334 45.0583 334.121 44.9256 334.181C44.7929 334.241 44.7145 334.272 44.6903 334.272L44.636 334.29C44.636 334.302 44.6722 334.326 44.7446 334.362C44.817 334.398 44.9135 334.44 45.0342 334.489C45.1548 334.537 45.2695 334.555 45.3781 334.543C45.8124 334.543 46.1864 334.272 46.5001 333.729C46.6087 333.536 46.7475 333.125 46.9164 332.498C47.0853 331.871 47.2542 331.219 47.4231 330.543C47.592 329.868 47.6886 329.47 47.7127 329.349C47.773 329.023 47.8032 328.788 47.8032 328.643C47.8032 328.305 47.7127 328.064 47.5317 327.919C47.3507 327.774 47.1456 327.702 46.9164 327.702C46.4338 327.702 45.9813 327.895 45.559 328.281C45.1367 328.667 44.8412 329.162 44.6722 329.765C44.6481 329.874 44.6179 329.934 44.5817 329.946C44.5456 329.958 44.449 329.97 44.2922 329.982H44.0388C43.9664 329.91 43.9302 329.844 43.9302 329.783Z" fill="#F0F0F0"/>
</g>
<path d="M365.113 305.239H349.728V324.016H365.113V305.239Z" fill="black"/>
<g clip-path="url(#clip10_1150_46959)">
<path d="M352.693 311.045C352.693 310.876 352.784 310.587 352.965 310.176C353.146 309.766 353.436 309.338 353.834 308.891C354.232 308.445 354.679 308.227 355.173 308.239C355.668 308.239 356.066 308.378 356.368 308.656C356.67 308.933 356.827 309.32 356.839 309.814C356.815 310.044 356.796 310.17 356.784 310.194C356.784 310.231 356.688 310.508 356.495 311.027C356.302 311.546 356.103 312.131 355.897 312.783C355.692 313.435 355.596 313.954 355.608 314.34C355.608 314.859 355.692 315.221 355.861 315.426C356.03 315.631 356.284 315.74 356.621 315.752C356.899 315.752 357.159 315.685 357.4 315.553C357.641 315.42 357.828 315.281 357.961 315.136C358.094 314.991 358.257 314.792 358.45 314.539C358.45 314.527 358.48 314.406 358.54 314.177C358.601 313.948 358.685 313.592 358.794 313.109C358.902 312.626 359.017 312.18 359.138 311.769C359.596 309.959 359.85 309.012 359.898 308.927C360.055 308.601 360.314 308.439 360.676 308.439C360.833 308.439 360.96 308.481 361.056 308.565C361.153 308.65 361.219 308.722 361.256 308.782C361.292 308.843 361.304 308.897 361.292 308.945C361.292 309.102 360.996 310.369 360.405 312.747C359.813 315.124 359.476 316.428 359.391 316.657C359.053 317.658 358.468 318.455 357.635 319.046C356.803 319.638 355.97 319.939 355.137 319.951C354.594 319.951 354.117 319.819 353.707 319.553C353.297 319.288 353.092 318.889 353.092 318.358C353.092 318.093 353.134 317.87 353.218 317.689C353.303 317.508 353.417 317.375 353.562 317.29C353.707 317.206 353.828 317.146 353.924 317.109C354.021 317.073 354.123 317.055 354.232 317.055C354.763 317.055 355.029 317.309 355.029 317.815C355.029 318.057 354.956 318.268 354.811 318.449C354.666 318.63 354.528 318.751 354.395 318.811C354.262 318.871 354.184 318.901 354.16 318.901L354.105 318.92C354.129 318.98 354.244 319.052 354.449 319.137C354.654 319.221 354.86 319.264 355.065 319.264H355.21C355.415 319.264 355.572 319.251 355.68 319.227C356.078 319.119 356.447 318.889 356.784 318.539C357.122 318.189 357.382 317.815 357.563 317.417C357.744 317.019 357.883 316.681 357.979 316.403C358.076 316.126 358.124 315.945 358.124 315.86L358.015 315.933C357.943 315.981 357.828 316.047 357.671 316.132C357.515 316.216 357.358 316.289 357.201 316.349C356.959 316.409 356.724 316.44 356.495 316.44C355.94 316.44 355.451 316.307 355.029 316.041C354.606 315.776 354.329 315.347 354.196 314.756C354.184 314.672 354.178 314.485 354.178 314.195C354.178 313.507 354.389 312.608 354.811 311.498C355.234 310.388 355.445 309.682 355.445 309.38C355.445 309.368 355.445 309.356 355.445 309.344C355.445 309.235 355.445 309.163 355.445 309.126C355.445 309.09 355.421 309.048 355.372 309C355.324 308.951 355.258 308.927 355.173 308.927H355.101C354.823 308.927 354.57 309.042 354.341 309.271C354.111 309.501 353.93 309.748 353.798 310.013C353.665 310.279 353.562 310.532 353.49 310.774C353.417 311.015 353.369 311.148 353.345 311.172C353.321 311.196 353.224 311.208 353.055 311.208H352.802C352.73 311.136 352.693 311.081 352.693 311.045Z" fill="#F0F0F0"/>
</g>
<path d="M191.695 69.1431H177.146V84.0872H191.695V69.1431Z" fill="black"/>
<g clip-path="url(#clip11_1150_46959)">
<path d="M185.735 74.0255C185.615 74.0255 185.295 73.9592 184.776 73.8264C184.257 73.6937 183.877 73.6273 183.636 73.6273C183.394 73.6273 183.189 73.6515 183.02 73.6997C182.851 73.748 182.713 73.8083 182.604 73.8807C182.496 73.9531 182.423 74.0195 182.387 74.0798C182.351 74.1401 182.309 74.2065 182.26 74.2789L182.224 74.3513C182.188 74.3875 182.097 74.4056 181.953 74.4056C181.699 74.4056 181.572 74.3573 181.572 74.2608C181.572 74.2005 181.591 74.116 181.627 74.0074C181.784 73.5368 182.043 73.1326 182.405 72.7948C182.767 72.4569 183.165 72.2518 183.6 72.1794C183.744 72.1553 183.847 72.1432 183.907 72.1432C184.209 72.1432 184.48 72.2458 184.722 72.4509C184.963 72.656 185.192 72.8551 185.409 73.0482C185.627 73.2412 185.856 73.3438 186.097 73.3559C186.363 73.3559 186.628 73.1568 186.894 72.7586C187.159 72.3604 187.298 72.1613 187.31 72.1613C187.322 72.1493 187.412 72.1432 187.581 72.1432H187.817C187.889 72.2156 187.925 72.2639 187.925 72.288C187.925 72.3363 187.895 72.4207 187.835 72.5414C187.774 72.6621 187.69 72.7888 187.581 72.9215C187.473 73.0542 187.37 73.1869 187.274 73.3197C187.177 73.4524 187.093 73.567 187.02 73.6635L186.894 73.8264C186.375 74.4418 185.554 75.2562 184.432 76.2698C183.31 77.2833 182.616 77.9349 182.351 78.2245L182.134 78.4417L182.405 78.4598C182.67 78.4598 183.057 78.5261 183.563 78.6588C184.07 78.7916 184.45 78.8579 184.704 78.8579C185.162 78.8579 185.584 78.7433 185.971 78.514C186.357 78.2848 186.61 77.9831 186.731 77.6091C186.779 77.5005 186.821 77.4341 186.857 77.41C186.894 77.3859 186.984 77.3738 187.129 77.3738C187.358 77.3738 187.473 77.4341 187.473 77.5548C187.473 77.6151 187.467 77.6694 187.455 77.7177C187.25 78.4658 186.851 79.0872 186.26 79.5819C185.669 80.0766 185.078 80.33 184.486 80.342C184.173 80.342 183.895 80.2395 183.654 80.0344C183.413 79.8292 183.177 79.6241 182.948 79.419C182.719 79.2139 182.49 79.1113 182.26 79.1113C181.729 79.1113 181.253 79.4733 180.83 80.1972C180.758 80.2938 180.655 80.342 180.523 80.342H180.432H180.197C180.125 80.2696 180.088 80.2153 180.088 80.1792C180.088 79.9982 180.438 79.4793 181.138 78.6226C181.609 78.0797 182.405 77.2954 183.527 76.2698C184.649 75.2442 185.343 74.5926 185.609 74.3151C185.753 74.122 185.796 74.0255 185.735 74.0255Z" fill="#F0F0F0"/>
</g>
<path d="M258.203 230.156L274.652 230.204L263.707 242.483L263.694 235.096L258.203 230.156Z" fill="#404040"/>
<path d="M81.0254 324.043L64.5767 323.994L75.5218 311.716L75.5342 319.102L81.0254 324.043Z" fill="#404040"/>
<path d="M68.229 322.364L270.999 231.835" stroke="#404040" stroke-width="1.5"/>
<path d="M71.4341 249.523L58.5417 239.308L74.7374 236.434L70.1769 242.245L71.4341 249.523Z" fill="#404040"/>
<path d="M323.47 299.204L336.363 309.419L320.167 312.294L324.727 306.483L323.47 299.204Z" fill="#404040"/>
<path d="M332.484 308.44L62.4199 240.287" stroke="#404040" stroke-width="1.5"/>
<path d="M190.227 408.803L183.466 423.798L176.727 408.793L183.475 411.798L190.227 408.803Z" fill="#404040"/>
<path d="M176.951 113.728L183.713 98.7329L190.451 113.738L183.703 110.733L176.951 113.728Z" fill="#404040"/>
<path d="M183.71 102.733L183.469 419.798" stroke="#404040" stroke-width="1.5"/>
<path opacity="0.75" d="M81.0254 324.043L64.5767 323.994L75.5218 311.716L75.5342 319.102L81.0254 324.043Z" fill="#F0F0F0"/>
<path opacity="0.75" d="M258.203 230.156L274.652 230.204L263.707 242.483L263.694 235.096L258.203 230.156Z" fill="#F0F0F0"/>
<path opacity="0.75" d="M270.999 231.835L68.229 322.364" stroke="#F0F0F0" stroke-width="1.5"/>
<path opacity="0.75" d="M323.47 299.204L336.363 309.419L320.167 312.294L324.727 306.483L323.47 299.204Z" fill="#F0F0F0"/>
<path opacity="0.75" d="M71.4341 249.523L58.5417 239.308L74.7374 236.434L70.1769 242.245L71.4341 249.523Z" fill="#F0F0F0"/>
<path opacity="0.75" d="M62.4199 240.287L332.484 308.44" stroke="#F0F0F0" stroke-width="1.5"/>
<path opacity="0.75" d="M176.951 113.728L183.713 98.7329L190.451 113.738L183.703 110.733L176.951 113.728Z" fill="#F0F0F0"/>
<path opacity="0.75" d="M190.227 408.803L183.466 423.798L176.727 408.793L183.475 411.798L190.227 408.803Z" fill="#F0F0F0"/>
<path opacity="0.75" d="M183.469 419.798L183.71 102.733" stroke="#F0F0F0" stroke-width="1.5"/>
<path opacity="0.2" d="M180.1 217.114L187.117 214.479" stroke="#F0F0F0" stroke-width="1.5"/>
<path opacity="0.2" d="M188.317 216.787L178.964 214.801" stroke="#F0F0F0" stroke-width="1.5"/>
<path opacity="0.2" d="M180.154 325.553L186.901 322.081" stroke="#F0F0F0" stroke-width="1.5"/>
<path opacity="0.2" d="M188.052 325.121L179.061 322.506" stroke="#F0F0F0" stroke-width="1.5"/>
<path opacity="0.2" d="M152.281 288.201L142.938 285.668" stroke="#F0F0F0" stroke-width="1.5"/>
<path opacity="0.2" d="M147.523 281.302L147.663 292.535" stroke="#F0F0F0" stroke-width="1.5"/>
<path opacity="0.2" d="M221.025 257.224L212.036 255.102" stroke="#F0F0F0" stroke-width="1.5"/>
<path opacity="0.2" d="M216.582 250.952L216.45 261.347" stroke="#F0F0F0" stroke-width="1.5"/>
<path opacity="0.2" d="M227.646 284.481L234.328 281.194" stroke="#F0F0F0" stroke-width="1.5"/>
<path opacity="0.2" d="M231.104 277.258L230.902 288.379" stroke="#F0F0F0" stroke-width="1.5"/>
<path opacity="0.2" d="M135.683 261.111L142.721 258.235" stroke="#F0F0F0" stroke-width="1.5"/>
<path opacity="0.2" d="M139.137 254.411L139.298 264.903" stroke="#F0F0F0" stroke-width="1.5"/>
<path opacity="0.2" d="M180.071 159.546L187.231 157.386" stroke="#F0F0F0" stroke-width="1.5"/>
<path opacity="0.2" d="M188.457 159.279L178.912 157.649" stroke="#F0F0F0" stroke-width="1.5"/>
<path opacity="0.2" d="M180.18 376.679L186.799 372.838" stroke="#F0F0F0" stroke-width="1.5"/>
<path opacity="0.2" d="M187.927 376.201L179.106 373.309" stroke="#F0F0F0" stroke-width="1.5"/>
<path opacity="0.2" d="M112.876 305.958L103.367 303.173" stroke="#F0F0F0" stroke-width="1.5"/>
<path opacity="0.2" d="M107.945 298.697L108.262 310.399" stroke="#F0F0F0" stroke-width="1.5"/>
<path opacity="0.2" d="M251.185 243.633L242.376 241.68" stroke="#F0F0F0" stroke-width="1.5"/>
<path opacity="0.2" d="M246.885 237.634L246.649 247.655" stroke="#F0F0F0" stroke-width="1.5"/>
<path opacity="0.2" d="M278.571 297.421L285.007 293.896" stroke="#F0F0F0" stroke-width="1.5"/>
<path opacity="0.2" d="M282.016 289.907L281.593 301.37" stroke="#F0F0F0" stroke-width="1.5"/>
<path opacity="0.2" d="M94.0234 250.525L101.187 247.826" stroke="#F0F0F0" stroke-width="1.5"/>
<path opacity="0.2" d="M97.4658 244.058L97.7748 254.262" stroke="#F0F0F0" stroke-width="1.5"/>
<path opacity="0.5" d="M180.1 217.114L187.117 214.479" stroke="#F0F0F0" stroke-width="1.5"/>
<path opacity="0.5" d="M188.317 216.787L178.964 214.801" stroke="#F0F0F0" stroke-width="1.5"/>
<path opacity="0.5" d="M180.154 325.553L186.901 322.081" stroke="#F0F0F0" stroke-width="1.5"/>
<path opacity="0.5" d="M188.052 325.121L179.061 322.506" stroke="#F0F0F0" stroke-width="1.5"/>
<path opacity="0.5" d="M152.281 288.201L142.938 285.668" stroke="#F0F0F0" stroke-width="1.5"/>
<path opacity="0.5" d="M147.523 281.302L147.663 292.535" stroke="#F0F0F0" stroke-width="1.5"/>
<path opacity="0.5" d="M221.025 257.224L212.036 255.102" stroke="#F0F0F0" stroke-width="1.5"/>
<path opacity="0.5" d="M216.582 250.952L216.45 261.347" stroke="#F0F0F0" stroke-width="1.5"/>
<path opacity="0.5" d="M227.646 284.481L234.328 281.194" stroke="#F0F0F0" stroke-width="1.5"/>
<path opacity="0.5" d="M231.104 277.258L230.902 288.379" stroke="#F0F0F0" stroke-width="1.5"/>
<path opacity="0.5" d="M135.683 261.111L142.721 258.235" stroke="#F0F0F0" stroke-width="1.5"/>
<path opacity="0.5" d="M139.137 254.411L139.298 264.903" stroke="#F0F0F0" stroke-width="1.5"/>
<path opacity="0.5" d="M180.071 159.546L187.231 157.386" stroke="#F0F0F0" stroke-width="1.5"/>
<path opacity="0.5" d="M188.457 159.279L178.912 157.649" stroke="#F0F0F0" stroke-width="1.5"/>
<path opacity="0.5" d="M180.18 376.679L186.799 372.838" stroke="#F0F0F0" stroke-width="1.5"/>
<path opacity="0.5" d="M187.927 376.201L179.106 373.309" stroke="#F0F0F0" stroke-width="1.5"/>
<path opacity="0.5" d="M112.876 305.958L103.367 303.173" stroke="#F0F0F0" stroke-width="1.5"/>
<path opacity="0.5" d="M107.945 298.697L108.262 310.399" stroke="#F0F0F0" stroke-width="1.5"/>
<path opacity="0.5" d="M251.185 243.633L242.376 241.68" stroke="#F0F0F0" stroke-width="1.5"/>
<path opacity="0.5" d="M246.885 237.634L246.649 247.655" stroke="#F0F0F0" stroke-width="1.5"/>
<path opacity="0.5" d="M278.571 297.421L285.007 293.896" stroke="#F0F0F0" stroke-width="1.5"/>
<path opacity="0.5" d="M282.016 289.907L281.593 301.37" stroke="#F0F0F0" stroke-width="1.5"/>
<path opacity="0.5" d="M94.0234 250.525L101.187 247.826" stroke="#F0F0F0" stroke-width="1.5"/>
<path opacity="0.5" d="M97.4658 244.058L97.7748 254.262" stroke="#F0F0F0" stroke-width="1.5"/>
<path d="M164.042 286.979L147.594 286.93L158.539 274.652L158.551 282.038L164.042 286.979Z" fill="#92D192"/>
<path d="M183.582 270.863L151.246 285.3" stroke="#92D192" stroke-width="1.5"/>
<path d="M218.109 272.615L231.002 282.83L214.806 285.705L219.367 279.894L218.109 272.615Z" fill="#F2777A"/>
<path d="M183.582 270.863L227.123 281.852" stroke="#F2777A" stroke-width="1.5"/>
<path d="M176.862 230.785L183.624 215.79L190.362 230.795L183.615 227.79L176.862 230.785Z" fill="#6AB0F3"/>
<path d="M183.582 270.863L183.621 219.79" stroke="#6AB0F3" stroke-width="1.5"/>
<path d="M139 285.663H127.078V305.855H139V285.663Z" fill="black"/>
<g clip-path="url(#clip12_1150_46959)">
<path d="M130.642 296.134C130.642 296.073 130.684 295.916 130.769 295.663C130.853 295.41 130.98 295.114 131.149 294.777C131.318 294.439 131.553 294.131 131.854 293.854C132.156 293.576 132.482 293.407 132.831 293.347H133.157C133.567 293.347 133.905 293.48 134.17 293.745C134.436 294.011 134.575 294.385 134.587 294.867C134.575 295.096 134.55 295.259 134.514 295.356C134.478 295.452 134.213 296.188 133.718 297.563C133.091 299.204 132.777 300.181 132.777 300.494C132.777 300.736 132.874 300.856 133.067 300.856C133.296 300.856 133.525 300.754 133.754 300.549C134.068 300.211 134.339 299.65 134.569 298.866C134.605 298.721 134.635 298.637 134.659 298.613C134.683 298.588 134.768 298.57 134.912 298.558H135.021C135.141 298.558 135.22 298.558 135.256 298.558C135.292 298.558 135.334 298.576 135.383 298.613C135.431 298.649 135.449 298.691 135.437 298.739C135.437 298.86 135.377 299.089 135.256 299.427C135.135 299.765 134.906 300.151 134.569 300.585C134.231 301.019 133.845 301.315 133.41 301.471C133.314 301.496 133.169 301.508 132.976 301.508C132.445 301.508 132.065 301.357 131.836 301.055C131.607 300.754 131.493 300.416 131.493 300.042C131.493 299.716 131.788 298.775 132.379 297.219C132.97 295.663 133.272 294.716 133.284 294.378C133.284 294.234 133.266 294.137 133.23 294.089C133.193 294.041 133.103 294.011 132.958 293.999C132.62 294.023 132.337 294.21 132.108 294.559C131.879 294.909 131.71 295.283 131.601 295.681C131.493 296.079 131.42 296.278 131.384 296.278C131.372 296.29 131.257 296.296 131.04 296.296H130.751C130.678 296.224 130.642 296.17 130.642 296.134Z" fill="#92D192"/>
<path d="M130.012 290.923L132.491 288.498L132.636 288.643C134.204 290.138 134.988 290.898 134.988 290.923L134.518 291.447C134.494 291.435 134.144 291.134 133.468 290.543L132.509 289.71L131.514 290.561C131.357 290.693 131.2 290.832 131.044 290.977C130.887 291.122 130.76 291.236 130.664 291.321L130.519 291.429C130.495 291.453 130.404 291.369 130.247 291.176L130.012 290.923Z" fill="#92D192"/>
</g>
<path d="M256.809 277.805H243.722V301.848H256.809V277.805Z" fill="black"/>
<g clip-path="url(#clip13_1150_46959)">
<path d="M248.711 288.349C248.711 288.349 248.711 288.331 248.711 288.295C248.711 288.259 248.747 288.15 248.82 287.969C248.892 287.788 249.013 287.559 249.182 287.281C249.351 287.004 249.544 286.726 249.761 286.449C249.978 286.172 250.261 285.948 250.611 285.779C250.961 285.611 251.323 285.514 251.697 285.49C252.095 285.514 252.457 285.647 252.783 285.888C253.109 286.129 253.272 286.552 253.272 287.155V287.481L252.385 291.064C252.252 291.57 252.101 292.155 251.932 292.819C251.763 293.482 251.643 293.977 251.57 294.303C251.498 294.629 251.45 294.797 251.426 294.81C251.221 295.413 250.841 295.956 250.286 296.438C249.731 296.921 249.079 297.168 248.331 297.18C247.776 297.18 247.36 297.041 247.083 296.764C246.877 296.559 246.775 296.312 246.775 296.022C246.775 295.684 246.883 295.419 247.101 295.226C247.318 295.033 247.565 294.93 247.843 294.918C248.096 294.918 248.277 294.991 248.385 295.135C248.494 295.28 248.554 295.419 248.566 295.552C248.566 295.938 248.398 296.251 248.06 296.493L248.15 296.511H248.422H248.44C249.067 296.511 249.58 295.95 249.978 294.828C250.014 294.719 250.334 293.464 250.937 291.064C251.54 288.663 251.86 287.378 251.896 287.209C251.908 287.137 251.914 286.998 251.914 286.793C251.914 286.648 251.908 286.54 251.896 286.467C251.884 286.395 251.848 286.328 251.788 286.268C251.727 286.208 251.637 286.172 251.516 286.159C251.202 286.159 250.871 286.322 250.521 286.648C250.304 286.865 250.123 287.113 249.978 287.39C249.833 287.668 249.719 287.903 249.634 288.096C249.55 288.289 249.495 288.397 249.471 288.422C249.447 288.446 249.333 288.458 249.127 288.458H248.82C248.747 288.385 248.711 288.331 248.711 288.295V288.349Z" fill="#F2777A"/>
<path d="M247.861 283.065L250.34 280.64L250.485 280.785C252.053 282.281 252.837 283.041 252.837 283.065L252.367 283.59C252.343 283.578 251.993 283.276 251.317 282.685L250.358 281.853L249.363 282.703C249.206 282.836 249.049 282.975 248.892 283.119C248.735 283.264 248.609 283.379 248.512 283.463L248.368 283.572C248.343 283.596 248.253 283.511 248.096 283.318L247.861 283.065Z" fill="#F2777A"/>
</g>
<path d="M192.087 176.783H177.101V201.998H192.087V176.783Z" fill="black"/>
<g clip-path="url(#clip14_1150_46959)">
<path d="M181.343 185.321C181.343 185.201 181.368 185.062 181.416 184.905C181.464 184.748 181.537 184.67 181.633 184.67C181.645 184.67 182.08 184.64 182.936 184.579C183.793 184.519 184.234 184.483 184.258 184.471C184.403 184.471 184.475 184.519 184.475 184.615C184.475 184.7 184.173 185.961 183.57 188.399C182.967 190.788 182.665 192.025 182.665 192.11C182.894 191.989 183.069 191.875 183.19 191.766C183.48 191.549 183.896 191.169 184.439 190.625C184.982 190.082 185.404 189.714 185.706 189.521C186.189 189.195 186.647 189.032 187.082 189.032C187.444 189.032 187.728 189.147 187.933 189.376C188.138 189.606 188.247 189.932 188.259 190.354C188.259 190.656 188.216 190.909 188.132 191.114C188.047 191.319 187.933 191.47 187.788 191.567C187.643 191.663 187.516 191.73 187.408 191.766C187.299 191.802 187.191 191.82 187.082 191.82C186.841 191.82 186.647 191.754 186.503 191.621C186.358 191.488 186.285 191.313 186.285 191.096C186.285 190.794 186.382 190.547 186.575 190.354C186.768 190.161 186.961 190.034 187.154 189.974L187.444 189.919C187.299 189.775 187.154 189.702 187.01 189.702H186.937C186.551 189.738 186.171 189.889 185.797 190.155C185.423 190.42 184.982 190.807 184.475 191.313C183.968 191.82 183.57 192.188 183.28 192.418C183.305 192.43 183.395 192.448 183.552 192.472C183.709 192.496 183.854 192.532 183.986 192.581C184.119 192.629 184.276 192.677 184.457 192.725C184.638 192.774 184.801 192.858 184.946 192.979C185.091 193.1 185.223 193.208 185.344 193.305C185.465 193.401 185.567 193.558 185.652 193.775C185.736 193.993 185.773 194.192 185.76 194.373C185.76 194.578 185.73 194.825 185.67 195.115C185.61 195.405 185.573 195.646 185.561 195.839C185.561 196.322 185.724 196.563 186.05 196.563C186.629 196.563 187.1 195.845 187.462 194.409C187.486 194.312 187.607 194.264 187.824 194.264H187.897C188.09 194.264 188.186 194.318 188.186 194.427C188.186 194.487 188.168 194.572 188.132 194.68C187.637 196.382 186.925 197.233 185.996 197.233C185.453 197.233 185.012 197.076 184.674 196.762C184.336 196.448 184.167 195.996 184.167 195.405C184.167 195.187 184.186 195 184.222 194.843C184.258 194.686 184.276 194.542 184.276 194.409C184.276 194.143 184.192 193.914 184.023 193.721C183.854 193.528 183.642 193.389 183.389 193.305C183.136 193.22 182.93 193.154 182.774 193.106C182.617 193.057 182.508 193.039 182.448 193.051H182.412C182.267 193.558 182.14 194.047 182.031 194.518C181.923 194.988 181.838 195.338 181.778 195.567C181.718 195.797 181.663 196.02 181.615 196.237C181.567 196.455 181.524 196.599 181.488 196.672C181.452 196.744 181.41 196.823 181.362 196.907C181.313 196.992 181.247 197.046 181.162 197.07C181.006 197.179 180.837 197.233 180.656 197.233C180.45 197.233 180.294 197.173 180.185 197.052C180.076 196.931 180.022 196.829 180.022 196.744C180.022 196.623 180.245 195.658 180.692 193.848C181.138 192.037 181.579 190.257 182.013 188.507L182.683 185.883C182.695 185.726 182.653 185.629 182.556 185.593C182.46 185.557 182.224 185.527 181.85 185.502H181.76C181.639 185.502 181.561 185.502 181.524 185.502C181.488 185.502 181.446 185.484 181.398 185.448C181.349 185.412 181.331 185.37 181.343 185.321Z" fill="#6AB0F3"/>
<path d="M181.371 182.045L183.851 179.619L183.995 179.764C185.564 181.26 186.349 182.021 186.349 182.045L185.878 182.57C185.854 182.558 185.504 182.256 184.828 181.665L183.869 180.832L182.873 181.683C182.716 181.816 182.559 181.954 182.402 182.099C182.246 182.244 182.119 182.359 182.022 182.443L181.877 182.552C181.853 182.576 181.763 182.491 181.606 182.298L181.371 182.045Z" fill="#6AB0F3"/>
</g>
<g opacity="0.5">
<path d="M611.295 324.014H595.68V338.958H611.295V324.014Z" fill="black"/>
<g clip-path="url(#clip15_1150_46959)">
<path d="M598.93 329.783C599.014 329.277 599.34 328.691 599.907 328.028C600.474 327.364 601.174 327.026 602.006 327.014C602.429 327.014 602.815 327.123 603.165 327.34C603.515 327.557 603.774 327.829 603.943 328.154C604.45 327.394 605.059 327.014 605.771 327.014C606.217 327.014 606.603 327.147 606.929 327.412C607.255 327.678 607.424 328.034 607.436 328.48C607.436 328.83 607.351 329.114 607.182 329.331C607.013 329.548 606.851 329.681 606.694 329.729C606.537 329.777 606.398 329.801 606.277 329.801C606.048 329.801 605.861 329.735 605.716 329.602C605.572 329.47 605.499 329.295 605.499 329.077C605.499 328.522 605.801 328.142 606.404 327.937C606.271 327.78 606.03 327.702 605.68 327.702C605.523 327.702 605.409 327.714 605.336 327.738C604.878 327.931 604.54 328.329 604.323 328.933C603.599 331.599 603.237 333.156 603.237 333.602C603.237 333.94 603.334 334.181 603.527 334.326C603.72 334.471 603.931 334.543 604.16 334.543C604.606 334.543 605.047 334.344 605.481 333.946C605.916 333.548 606.211 333.059 606.368 332.48C606.404 332.359 606.44 332.293 606.477 332.281C606.513 332.269 606.609 332.257 606.766 332.245H606.839C607.019 332.245 607.11 332.293 607.11 332.389C607.11 332.401 607.098 332.468 607.074 332.588C606.881 333.276 606.507 333.885 605.952 334.416C605.397 334.947 604.751 335.213 604.015 335.213C603.171 335.213 602.531 334.833 602.097 334.072C601.602 334.821 601.035 335.195 600.396 335.195H600.287C599.696 335.195 599.274 335.038 599.02 334.724C598.767 334.41 598.634 334.079 598.622 333.729C598.622 333.343 598.737 333.029 598.966 332.788C599.195 332.546 599.467 332.426 599.78 332.426C600.299 332.426 600.559 332.679 600.559 333.186C600.559 333.427 600.486 333.638 600.341 333.819C600.197 334 600.058 334.121 599.925 334.181C599.792 334.241 599.714 334.272 599.69 334.272L599.636 334.29C599.636 334.302 599.672 334.326 599.744 334.362C599.817 334.398 599.913 334.44 600.034 334.489C600.154 334.537 600.269 334.555 600.378 334.543C600.812 334.543 601.186 334.272 601.5 333.729C601.608 333.536 601.747 333.125 601.916 332.498C602.085 331.871 602.254 331.219 602.423 330.543C602.592 329.868 602.688 329.47 602.712 329.349C602.773 329.023 602.803 328.788 602.803 328.643C602.803 328.305 602.712 328.064 602.531 327.919C602.35 327.774 602.145 327.702 601.916 327.702C601.433 327.702 600.981 327.895 600.559 328.281C600.136 328.667 599.841 329.162 599.672 329.765C599.648 329.874 599.617 329.934 599.581 329.946C599.545 329.958 599.449 329.97 599.292 329.982H599.038C598.966 329.91 598.93 329.844 598.93 329.783Z" fill="#F0F0F0"/>
</g>
<path d="M920.113 305.239H904.728V324.016H920.113V305.239Z" fill="black"/>
<g clip-path="url(#clip16_1150_46959)">
<path d="M907.693 311.045C907.693 310.876 907.783 310.587 907.964 310.176C908.145 309.766 908.435 309.338 908.833 308.891C909.232 308.445 909.678 308.227 910.173 308.239C910.668 308.239 911.066 308.378 911.368 308.656C911.669 308.933 911.826 309.32 911.838 309.814C911.814 310.044 911.796 310.17 911.784 310.194C911.784 310.231 911.687 310.508 911.494 311.027C911.301 311.546 911.102 312.131 910.897 312.783C910.692 313.435 910.595 313.954 910.607 314.34C910.607 314.859 910.692 315.221 910.861 315.426C911.03 315.631 911.283 315.74 911.621 315.752C911.899 315.752 912.158 315.685 912.399 315.553C912.641 315.42 912.828 315.281 912.961 315.136C913.093 314.991 913.256 314.792 913.449 314.539C913.449 314.527 913.479 314.406 913.54 314.177C913.6 313.948 913.685 313.592 913.793 313.109C913.902 312.626 914.017 312.18 914.137 311.769C914.596 309.959 914.849 309.012 914.897 308.927C915.054 308.601 915.314 308.439 915.676 308.439C915.833 308.439 915.959 308.481 916.056 308.565C916.153 308.65 916.219 308.722 916.255 308.782C916.291 308.843 916.303 308.897 916.291 308.945C916.291 309.102 915.996 310.369 915.404 312.747C914.813 315.124 914.475 316.428 914.391 316.657C914.053 317.658 913.467 318.455 912.635 319.046C911.802 319.638 910.969 319.939 910.137 319.951C909.594 319.951 909.117 319.819 908.707 319.553C908.296 319.288 908.091 318.889 908.091 318.358C908.091 318.093 908.133 317.87 908.218 317.689C908.302 317.508 908.417 317.375 908.562 317.29C908.707 317.206 908.827 317.146 908.924 317.109C909.02 317.073 909.123 317.055 909.232 317.055C909.763 317.055 910.028 317.309 910.028 317.815C910.028 318.057 909.956 318.268 909.811 318.449C909.666 318.63 909.527 318.751 909.394 318.811C909.262 318.871 909.183 318.901 909.159 318.901L909.105 318.92C909.129 318.98 909.244 319.052 909.449 319.137C909.654 319.221 909.859 319.264 910.064 319.264H910.209C910.414 319.264 910.571 319.251 910.68 319.227C911.078 319.119 911.446 318.889 911.784 318.539C912.122 318.189 912.381 317.815 912.562 317.417C912.743 317.019 912.882 316.681 912.979 316.403C913.075 316.126 913.123 315.945 913.123 315.86L913.015 315.933C912.942 315.981 912.828 316.047 912.671 316.132C912.514 316.216 912.357 316.289 912.2 316.349C911.959 316.409 911.724 316.44 911.494 316.44C910.939 316.44 910.45 316.307 910.028 316.041C909.606 315.776 909.328 315.347 909.195 314.756C909.183 314.672 909.177 314.485 909.177 314.195C909.177 313.507 909.388 312.608 909.811 311.498C910.233 310.388 910.444 309.682 910.444 309.38C910.444 309.368 910.444 309.356 910.444 309.344C910.444 309.235 910.444 309.163 910.444 309.126C910.444 309.09 910.42 309.048 910.372 309C910.324 308.951 910.257 308.927 910.173 308.927H910.1C909.823 308.927 909.569 309.042 909.34 309.271C909.111 309.501 908.93 309.748 908.797 310.013C908.664 310.279 908.562 310.532 908.489 310.774C908.417 311.015 908.369 311.148 908.345 311.172C908.32 311.196 908.224 311.208 908.055 311.208H907.801C907.729 311.136 907.693 311.081 907.693 311.045Z" fill="#F0F0F0"/>
</g>
<path d="M746.695 69.1431H732.146V84.0872H746.695V69.1431Z" fill="black"/>
<g clip-path="url(#clip17_1150_46959)">
<path d="M740.735 74.0255C740.614 74.0255 740.294 73.9592 739.776 73.8264C739.257 73.6937 738.877 73.6273 738.635 73.6273C738.394 73.6273 738.189 73.6515 738.02 73.6997C737.851 73.748 737.712 73.8083 737.604 73.8807C737.495 73.9531 737.423 74.0195 737.386 74.0798C737.35 74.1401 737.308 74.2065 737.26 74.2789L737.224 74.3513C737.187 74.3875 737.097 74.4056 736.952 74.4056C736.699 74.4056 736.572 74.3573 736.572 74.2608C736.572 74.2005 736.59 74.116 736.626 74.0074C736.783 73.5368 737.043 73.1326 737.405 72.7948C737.767 72.4569 738.165 72.2518 738.599 72.1794C738.744 72.1553 738.846 72.1432 738.907 72.1432C739.208 72.1432 739.48 72.2458 739.721 72.4509C739.963 72.656 740.192 72.8551 740.409 73.0482C740.626 73.2412 740.855 73.3438 741.097 73.3559C741.362 73.3559 741.628 73.1568 741.893 72.7586C742.159 72.3604 742.297 72.1613 742.309 72.1613C742.321 72.1493 742.412 72.1432 742.581 72.1432H742.816C742.889 72.2156 742.925 72.2639 742.925 72.288C742.925 72.3363 742.895 72.4207 742.834 72.5414C742.774 72.6621 742.689 72.7888 742.581 72.9215C742.472 73.0542 742.37 73.1869 742.273 73.3197C742.177 73.4524 742.092 73.567 742.02 73.6635L741.893 73.8264C741.374 74.4418 740.554 75.2562 739.432 76.2698C738.309 77.2833 737.616 77.9349 737.35 78.2245L737.133 78.4417L737.405 78.4598C737.67 78.4598 738.056 78.5261 738.563 78.6588C739.07 78.7916 739.45 78.8579 739.703 78.8579C740.162 78.8579 740.584 78.7433 740.97 78.514C741.356 78.2848 741.61 77.9831 741.73 77.6091C741.778 77.5005 741.821 77.4341 741.857 77.41C741.893 77.3859 741.984 77.3738 742.128 77.3738C742.358 77.3738 742.472 77.4341 742.472 77.5548C742.472 77.6151 742.466 77.6694 742.454 77.7177C742.249 78.4658 741.851 79.0872 741.26 79.5819C740.668 80.0766 740.077 80.33 739.486 80.342C739.172 80.342 738.895 80.2395 738.653 80.0344C738.412 79.8292 738.177 79.6241 737.948 79.419C737.718 79.2139 737.489 79.1113 737.26 79.1113C736.729 79.1113 736.252 79.4733 735.83 80.1972C735.758 80.2938 735.655 80.342 735.522 80.342H735.432H735.196C735.124 80.2696 735.088 80.2153 735.088 80.1792C735.088 79.9982 735.438 79.4793 736.138 78.6226C736.608 78.0797 737.405 77.2954 738.527 76.2698C739.649 75.2442 740.343 74.5926 740.608 74.3151C740.753 74.122 740.795 74.0255 740.735 74.0255Z" fill="#F0F0F0"/>
</g>
</g>
<path d="M813.203 230.156L829.651 230.204L818.706 242.483L818.694 235.096L813.203 230.156Z" fill="#404040"/>
<path d="M636.025 324.043L619.576 323.994L630.521 311.716L630.534 319.102L636.025 324.043Z" fill="#404040"/>
<path d="M623.229 322.364L825.998 231.835" stroke="#404040" stroke-width="1.5"/>
<path d="M626.434 249.523L613.541 239.308L629.737 236.434L625.176 242.245L626.434 249.523Z" fill="#404040"/>
<path d="M878.47 299.204L891.362 309.419L875.166 312.294L879.727 306.483L878.47 299.204Z" fill="#404040"/>
<path d="M887.484 308.44L617.419 240.287" stroke="#404040" stroke-width="1.5"/>
<path d="M745.227 408.803L738.465 423.798L731.727 408.793L738.474 411.798L745.227 408.803Z" fill="#404040"/>
<path d="M731.951 113.728L738.712 98.7329L745.451 113.738L738.703 110.733L731.951 113.728Z" fill="#404040"/>
<path d="M738.709 102.733L738.468 419.798" stroke="#404040" stroke-width="1.5"/>
<path opacity="0.75" d="M639.749 485.069L627.032 495.501L627.658 479.064L632.369 484.753L639.749 485.069Z" fill="#F0F0F0"/>
<path opacity="0.75" d="M822.056 87.5857L834.773 77.153L834.147 93.5899L829.436 87.9009L822.056 87.5857Z" fill="#F0F0F0"/>
<path opacity="0.75" d="M832.994 80.7356L628.811 491.919" stroke="#F0F0F0" stroke-width="1.5"/>
<path opacity="0.75" d="M783.692 359.703L783.35 376.148L771.269 364.986L778.655 365.105L783.692 359.703Z" fill="#F0F0F0"/>
<path opacity="0.75" d="M710.38 221.792L710.722 205.346L722.803 216.509L715.418 216.389L710.38 221.792Z" fill="#F0F0F0"/>
<path opacity="0.75" d="M712.288 209.027L781.785 372.467" stroke="#F0F0F0" stroke-width="1.5"/>
<path opacity="0.75" d="M615.954 143.111L611.031 127.416L626.043 134.141L619.005 136.384L615.954 143.111Z" fill="#F0F0F0"/>
<path opacity="0.75" d="M820.113 352.397L825.036 368.092L810.025 361.368L817.062 359.125L820.113 352.397Z" fill="#F0F0F0"/>
<path opacity="0.75" d="M822.378 365.103L613.689 130.406" stroke="#F0F0F0" stroke-width="1.5"/>
<path opacity="0.2" d="M735.099 217.114L742.116 214.479" stroke="#F0F0F0" stroke-width="1.5"/>
<path opacity="0.2" d="M743.316 216.787L733.963 214.801" stroke="#F0F0F0" stroke-width="1.5"/>
<path opacity="0.2" d="M735.153 325.553L741.9 322.081" stroke="#F0F0F0" stroke-width="1.5"/>
<path opacity="0.2" d="M743.051 325.121L734.06 322.506" stroke="#F0F0F0" stroke-width="1.5"/>
<path opacity="0.2" d="M707.281 288.201L697.938 285.668" stroke="#F0F0F0" stroke-width="1.5"/>
<path opacity="0.2" d="M702.523 281.302L702.663 292.535" stroke="#F0F0F0" stroke-width="1.5"/>
<path opacity="0.2" d="M776.024 257.224L767.035 255.102" stroke="#F0F0F0" stroke-width="1.5"/>
<path opacity="0.2" d="M771.581 250.952L771.449 261.347" stroke="#F0F0F0" stroke-width="1.5"/>
<path opacity="0.2" d="M782.646 284.481L789.327 281.194" stroke="#F0F0F0" stroke-width="1.5"/>
<path opacity="0.2" d="M786.103 277.258L785.901 288.379" stroke="#F0F0F0" stroke-width="1.5"/>
<path opacity="0.2" d="M690.682 261.111L697.72 258.235" stroke="#F0F0F0" stroke-width="1.5"/>
<path opacity="0.2" d="M694.136 254.411L694.297 264.903" stroke="#F0F0F0" stroke-width="1.5"/>
<path opacity="0.2" d="M735.07 159.546L742.23 157.386" stroke="#F0F0F0" stroke-width="1.5"/>
<path opacity="0.2" d="M743.456 159.279L733.911 157.649" stroke="#F0F0F0" stroke-width="1.5"/>
<path opacity="0.2" d="M735.179 376.679L741.798 372.838" stroke="#F0F0F0" stroke-width="1.5"/>
<path opacity="0.2" d="M742.927 376.201L734.106 373.309" stroke="#F0F0F0" stroke-width="1.5"/>
<path opacity="0.2" d="M667.875 305.958L658.366 303.173" stroke="#F0F0F0" stroke-width="1.5"/>
<path opacity="0.2" d="M662.944 298.697L663.261 310.399" stroke="#F0F0F0" stroke-width="1.5"/>
<path opacity="0.2" d="M806.184 243.633L797.376 241.68" stroke="#F0F0F0" stroke-width="1.5"/>
<path opacity="0.2" d="M801.885 237.634L801.649 247.655" stroke="#F0F0F0" stroke-width="1.5"/>
<path opacity="0.2" d="M833.57 297.421L840.006 293.896" stroke="#F0F0F0" stroke-width="1.5"/>
<path opacity="0.2" d="M837.015 289.907L836.592 301.37" stroke="#F0F0F0" stroke-width="1.5"/>
<path opacity="0.2" d="M649.023 250.525L656.187 247.826" stroke="#F0F0F0" stroke-width="1.5"/>
<path opacity="0.2" d="M652.465 244.058L652.774 254.262" stroke="#F0F0F0" stroke-width="1.5"/>
<path opacity="0.5" d="M698.094 236.907L705.645 222.307" stroke="#F0F0F0" stroke-width="1.5"/>
<path opacity="0.5" d="M702.806 232.143L700.969 227.074" stroke="#F0F0F0" stroke-width="1.5"/>
<path opacity="0.5" d="M767.698 313.789L774.021 300.586" stroke="#F0F0F0" stroke-width="1.5"/>
<path opacity="0.5" d="M772.188 309.988L769.565 304.397" stroke="#F0F0F0" stroke-width="1.5"/>
<path opacity="0.5" d="M704.177 345.311L702.391 338.659" stroke="#F0F0F0" stroke-width="1.5"/>
<path opacity="0.5" d="M699.499 338.441L707.006 345.43" stroke="#F0F0F0" stroke-width="1.5"/>
<path opacity="0.5" d="M773.57 205.318L770.826 201.088" stroke="#F0F0F0" stroke-width="1.5"/>
<path opacity="0.5" d="M769.025 198.967L775.311 207.354" stroke="#F0F0F0" stroke-width="1.5"/>
<path opacity="0.5" d="M747.283 307.668L754.683 292.477" stroke="#F0F0F0" stroke-width="1.5"/>
<path opacity="0.5" d="M747.33 296.038L754.606 304.01" stroke="#F0F0F0" stroke-width="1.5"/>
<path opacity="0.5" d="M724.73 252.271L731.17 239.515" stroke="#F0F0F0" stroke-width="1.5"/>
<path opacity="0.5" d="M724.687 242.122L731.189 249.59" stroke="#F0F0F0" stroke-width="1.5"/>
<path opacity="0.5" d="M655.606 189.976L663.95 174.572" stroke="#F0F0F0" stroke-width="1.5"/>
<path opacity="0.5" d="M660.407 184.572L659.184 179.973" stroke="#F0F0F0" stroke-width="1.5"/>
<path opacity="0.5" d="M796.563 345.672L802.402 333.077" stroke="#F0F0F0" stroke-width="1.5"/>
<path opacity="0.5" d="M800.932 342.239L798.064 336.522" stroke="#F0F0F0" stroke-width="1.5"/>
<path opacity="0.5" d="M666.76 420.796L665.535 412.75" stroke="#F0F0F0" stroke-width="1.5"/>
<path opacity="0.5" d="M662.014 413.638L670.216 419.801" stroke="#F0F0F0" stroke-width="1.5"/>
<path opacity="0.5" d="M805.804 140.29L802.65 137.113" stroke="#F0F0F0" stroke-width="1.5"/>
<path opacity="0.5" d="M801.324 134.174L807.071 143.151" stroke="#F0F0F0" stroke-width="1.5"/>
<path opacity="0.5" d="M761.677 343.023L769.671 326.234" stroke="#F0F0F0" stroke-width="1.5"/>
<path opacity="0.5" d="M761.795 330.483L769.517 338.664" stroke="#F0F0F0" stroke-width="1.5"/>
<path opacity="0.5" d="M715.731 230.166L721.778 218.36" stroke="#F0F0F0" stroke-width="1.5"/>
<path opacity="0.5" d="M715.66 220.628L721.827 227.833" stroke="#F0F0F0" stroke-width="1.5"/>
<path d="M715.994 331.526L703.277 341.959L703.903 325.522L708.614 331.211L715.994 331.526Z" fill="#92D192"/>
<path d="M738.581 270.863L705.056 338.377" stroke="#92D192" stroke-width="1.5"/>
<path d="M751.335 283.607L750.993 300.052L738.912 288.89L746.297 289.009L751.335 283.607Z" fill="#F2777A"/>
<path d="M738.581 270.863L749.428 296.371" stroke="#F2777A" stroke-width="1.5"/>
<path d="M706.803 245.282L701.88 229.587L716.891 236.312L709.854 238.555L706.803 245.282Z" fill="#6AB0F3"/>
<path d="M738.581 270.863L704.538 232.576" stroke="#6AB0F3" stroke-width="1.5"/>
<defs>
<clipPath id="clip0_1150_46959">
<rect width="89.624" height="68.776" fill="white" transform="translate(433.876 130.765)"/>
</clipPath>
<clipPath id="clip1_1150_46959">
<rect width="12.072" height="7.27578" fill="white" transform="matrix(1 0 0 -1 468.187 168.791)"/>
</clipPath>
<clipPath id="clip2_1150_46959">
<rect width="12.072" height="7.27578" fill="white" transform="matrix(1 0 0 -1 511.425 168.791)"/>
</clipPath>
<clipPath id="clip3_1150_46959">
<rect width="75.392" height="68.776" fill="white" transform="translate(440.924 230.765)"/>
</clipPath>
<clipPath id="clip4_1150_46959">
<rect width="12.0718" height="7.27568" fill="white" transform="matrix(1 0 0 -1 475.087 268.791)"/>
</clipPath>
<clipPath id="clip5_1150_46959">
<rect width="12.0718" height="7.27568" fill="white" transform="matrix(1 0 0 -1 504.244 268.791)"/>
</clipPath>
<clipPath id="clip6_1150_46959">
<rect width="78.816" height="68.776" fill="white" transform="translate(439.847 330.765)"/>
</clipPath>
<clipPath id="clip7_1150_46959">
<rect width="12.072" height="7.27578" fill="white" transform="matrix(1 0 0 -1 477.433 368.791)"/>
</clipPath>
<clipPath id="clip8_1150_46959">
<rect width="12.072" height="7.27578" fill="white" transform="matrix(1 0 0 -1 506.59 368.791)"/>
</clipPath>
<clipPath id="clip9_1150_46959">
<rect width="10.352" height="8.2" fill="white" transform="translate(42.9893 327.013)"/>
</clipPath>
<clipPath id="clip10_1150_46959">
<rect width="8.872" height="11.712" fill="white" transform="translate(352.312 308.24)"/>
</clipPath>
<clipPath id="clip11_1150_46959">
<rect width="8.416" height="8.2" fill="white" transform="translate(179.455 72.1426)"/>
</clipPath>
<clipPath id="clip12_1150_46959">
<rect width="6.152" height="14.824" fill="white" transform="translate(129.285 286.686)"/>
</clipPath>
<clipPath id="clip13_1150_46959">
<rect width="6.008" height="18.352" fill="white" transform="translate(247.354 278.829)"/>
</clipPath>
<clipPath id="clip14_1150_46959">
<rect width="9.432" height="19.424" fill="white" transform="translate(179.153 177.809)"/>
</clipPath>
<clipPath id="clip15_1150_46959">
<rect width="10.352" height="8.2" fill="white" transform="translate(597.989 327.013)"/>
</clipPath>
<clipPath id="clip16_1150_46959">
<rect width="8.872" height="11.712" fill="white" transform="translate(907.312 308.24)"/>
</clipPath>
<clipPath id="clip17_1150_46959">
<rect width="8.416" height="8.2" fill="white" transform="translate(734.455 72.1426)"/>
</clipPath>
</defs>
</svg>
