<svg width="960" height="540" viewBox="0 0 960 540" fill="none" xmlns="http://www.w3.org/2000/svg">
<rect width="960" height="540" fill="black"/>
<path d="M657.251 298.84L774.734 244.936" stroke="#404040" stroke-width="1.5"/>
<path d="M803.044 291.003L646.587 250.979" stroke="#404040" stroke-width="1.5"/>
<path d="M720.294 175.089L720.509 358.35" stroke="#404040" stroke-width="1.5"/>
<path opacity="0.5" d="M701.792 53.6682L581.409 276.846" stroke="#D582FF" stroke-width="1.5"/>
<path opacity="0.5" d="M581.409 276.846L585.001 409.582" stroke="#D582FF" stroke-width="1.5"/>
<path opacity="0.5" d="M585.001 409.582L744.603 99.4666" stroke="#D582FF" stroke-width="1.5"/>
<path opacity="0.5" d="M744.603 99.4666L701.792 53.6682" stroke="#D582FF" stroke-width="1.5"/>
<path opacity="0.5" d="M753.444 129.058L649.008 335.486" stroke="#D582FF" stroke-width="1.5"/>
<path opacity="0.5" d="M649.008 335.486L673.607 469.307" stroke="#D582FF" stroke-width="1.5"/>
<path opacity="0.5" d="M673.607 469.307L806.044 191.151" stroke="#D582FF" stroke-width="1.5"/>
<path opacity="0.5" d="M806.044 191.151L753.444 129.058" stroke="#D582FF" stroke-width="1.5"/>
<path opacity="0.5" d="M720.175 73.334L582.927 332.942" stroke="#D582FF" stroke-width="1.5"/>
<path opacity="0.5" d="M582.927 332.942L720.606 441.156" stroke="#D582FF" stroke-width="1.5"/>
<path opacity="0.5" d="M720.606 441.156L821.964 223.265" stroke="#D582FF" stroke-width="1.5"/>
<path opacity="0.5" d="M821.964 223.265L720.175 73.334" stroke="#D582FF" stroke-width="1.5"/>
<path opacity="0.5" d="M669.095 246.184L800.255 383.85" stroke="#D582FF" stroke-width="1.5"/>
<path opacity="0.5" d="M800.255 383.85L751.791 284.347" stroke="#D582FF" stroke-width="1.5"/>
<path opacity="0.5" d="M751.791 284.347L644.005 160.799" stroke="#D582FF" stroke-width="1.5"/>
<path opacity="0.5" d="M644.005 160.799L669.095 246.184" stroke="#D582FF" stroke-width="1.5"/>
<path opacity="0.5" d="M796.277 191.574L704.278 383.432" stroke="#D582FF" stroke-width="1.5"/>
<path opacity="0.5" d="M704.278 383.432L741.518 515.082" stroke="#D582FF" stroke-width="1.5"/>
<path opacity="0.5" d="M741.518 515.082L854.284 263.137" stroke="#D582FF" stroke-width="1.5"/>
<path opacity="0.5" d="M854.284 263.137L796.277 191.574" stroke="#D582FF" stroke-width="1.5"/>
<path opacity="0.5" d="M701.792 53.6682L796.277 191.574" stroke="#D582FF" stroke-width="1.5"/>
<path opacity="0.5" d="M581.409 276.846L704.278 383.432" stroke="#D582FF" stroke-width="1.5"/>
<path opacity="0.5" d="M585.001 409.582L741.518 515.082" stroke="#D582FF" stroke-width="1.5"/>
<path opacity="0.5" d="M744.603 99.4666L854.284 263.137" stroke="#D582FF" stroke-width="1.5"/>
<path opacity="0.15" d="M702.472 143.842L576.26 180.448" stroke="#F0F0F0" stroke-width="1.5"/>
<path opacity="0.15" d="M576.26 180.448L743.737 216.189" stroke="#F0F0F0" stroke-width="1.5"/>
<path opacity="0.15" d="M743.737 216.189L858.841 169.935" stroke="#F0F0F0" stroke-width="1.5"/>
<path opacity="0.15" d="M858.841 169.935L702.472 143.842" stroke="#F0F0F0" stroke-width="1.5"/>
<path opacity="0.15" d="M703.11 228.548L581.409 276.846" stroke="#F0F0F0" stroke-width="1.5"/>
<path opacity="0.15" d="M581.409 276.846L742.939 323.691" stroke="#F0F0F0" stroke-width="1.5"/>
<path opacity="0.15" d="M742.939 323.691L854.284 263.137" stroke="#F0F0F0" stroke-width="1.5"/>
<path opacity="0.15" d="M854.284 263.137L703.11 228.548" stroke="#F0F0F0" stroke-width="1.5"/>
<path opacity="0.15" d="M776.421 156.182L654.697 197.187" stroke="#F0F0F0" stroke-width="1.5"/>
<path opacity="0.15" d="M654.697 197.187L659.621 393.223" stroke="#F0F0F0" stroke-width="1.5"/>
<path opacity="0.15" d="M659.621 393.223L773.15 328.201" stroke="#F0F0F0" stroke-width="1.5"/>
<path opacity="0.15" d="M773.15 328.201L776.421 156.182" stroke="#F0F0F0" stroke-width="1.5"/>
<path opacity="0.15" d="M806.044 191.151L800.255 383.85" stroke="#F0F0F0" stroke-width="1.5"/>
<path opacity="0.15" d="M800.255 383.85L649.008 335.486" stroke="#F0F0F0" stroke-width="1.5"/>
<path opacity="0.15" d="M649.008 335.486L644.005 160.799" stroke="#F0F0F0" stroke-width="1.5"/>
<path opacity="0.15" d="M644.005 160.799L806.044 191.151" stroke="#F0F0F0" stroke-width="1.5"/>
<path opacity="0.15" d="M703.711 308.268L586.21 366.731" stroke="#F0F0F0" stroke-width="1.5"/>
<path opacity="0.15" d="M586.21 366.731L742.201 423.023" stroke="#F0F0F0" stroke-width="1.5"/>
<path opacity="0.15" d="M742.201 423.023L850.025 350.267" stroke="#F0F0F0" stroke-width="1.5"/>
<path opacity="0.15" d="M850.025 350.267L703.711 308.268" stroke="#F0F0F0" stroke-width="1.5"/>
<path opacity="0.15" d="M702.472 143.842L703.711 308.268" stroke="#F0F0F0" stroke-width="1.5"/>
<path opacity="0.15" d="M576.26 180.448L586.21 366.731" stroke="#F0F0F0" stroke-width="1.5"/>
<path opacity="0.15" d="M743.737 216.189L742.201 423.023" stroke="#F0F0F0" stroke-width="1.5"/>
<path opacity="0.15" d="M858.841 169.935L850.025 350.267" stroke="#F0F0F0" stroke-width="1.5"/>
<path opacity="0.75" d="M776.421 156.182L659.621 393.223" stroke="#D582FF" stroke-width="2"/>
<path opacity="0.75" d="M703.11 228.548L742.939 323.691" stroke="#D582FF" stroke-width="2"/>
<path opacity="0.75" d="M773.15 328.201L654.697 197.187" stroke="#D582FF" stroke-width="2"/>
<path d="M703.332 319.785L690.647 330.257L691.222 313.818L695.951 319.493L703.332 319.785Z" fill="#92D192"/>
<path d="M720.406 269.863L692.415 326.669" stroke="#92D192" stroke-width="1.5"/>
<path d="M731.314 278.44L730.879 294.883L718.861 283.653L726.246 283.814L731.314 278.44Z" fill="#F2777A"/>
<path d="M720.406 269.863L729.335 291.193" stroke="#F2777A" stroke-width="1.5"/>
<path d="M694.506 251.282L689.453 235.629L704.52 242.228L697.501 244.53L694.506 251.282Z" fill="#6AB0F3"/>
<path d="M720.406 269.863L692.136 238.596" stroke="#6AB0F3" stroke-width="1.5"/>
<path d="M177.251 298.84L294.734 244.936" stroke="#404040" stroke-width="1.5"/>
<path d="M323.044 291.003L166.587 250.979" stroke="#404040" stroke-width="1.5"/>
<path d="M240.294 175.089L240.509 358.35" stroke="#404040" stroke-width="1.5"/>
<path opacity="0.5" d="M222.472 143.842L96.26 180.448" stroke="#FFF888" stroke-width="1.5"/>
<path opacity="0.5" d="M96.26 180.448L263.737 216.189" stroke="#FFF888" stroke-width="1.5"/>
<path opacity="0.5" d="M263.737 216.189L378.841 169.935" stroke="#FFF888" stroke-width="1.5"/>
<path opacity="0.5" d="M378.841 169.935L222.472 143.842" stroke="#FFF888" stroke-width="1.5"/>
<path opacity="0.5" d="M223.11 228.548L101.409 276.846" stroke="#FFF888" stroke-width="1.5"/>
<path opacity="0.5" d="M101.409 276.846L262.939 323.691" stroke="#FFF888" stroke-width="1.5"/>
<path opacity="0.5" d="M262.939 323.691L374.284 263.137" stroke="#FFF888" stroke-width="1.5"/>
<path opacity="0.5" d="M374.284 263.137L223.11 228.548" stroke="#FFF888" stroke-width="1.5"/>
<path opacity="0.5" d="M296.421 156.182L174.697 197.187" stroke="#FFF888" stroke-width="1.5"/>
<path opacity="0.5" d="M174.697 197.187L179.621 393.223" stroke="#FFF888" stroke-width="1.5"/>
<path opacity="0.5" d="M179.621 393.223L293.15 328.201" stroke="#FFF888" stroke-width="1.5"/>
<path opacity="0.5" d="M293.15 328.201L296.421 156.182" stroke="#FFF888" stroke-width="1.5"/>
<path opacity="0.5" d="M326.044 191.151L320.255 383.85" stroke="#FFF888" stroke-width="1.5"/>
<path opacity="0.5" d="M320.255 383.85L169.008 335.486" stroke="#FFF888" stroke-width="1.5"/>
<path opacity="0.5" d="M169.008 335.486L164.005 160.799" stroke="#FFF888" stroke-width="1.5"/>
<path opacity="0.5" d="M164.005 160.799L326.044 191.151" stroke="#FFF888" stroke-width="1.5"/>
<path opacity="0.5" d="M223.711 308.268L106.21 366.731" stroke="#FFF888" stroke-width="1.5"/>
<path opacity="0.5" d="M106.21 366.731L262.201 423.023" stroke="#FFF888" stroke-width="1.5"/>
<path opacity="0.5" d="M262.201 423.023L370.025 350.267" stroke="#FFF888" stroke-width="1.5"/>
<path opacity="0.5" d="M370.025 350.267L223.711 308.268" stroke="#FFF888" stroke-width="1.5"/>
<path opacity="0.5" d="M222.472 143.842L223.711 308.268" stroke="#FFF888" stroke-width="1.5"/>
<path opacity="0.5" d="M96.26 180.448L106.21 366.731" stroke="#FFF888" stroke-width="1.5"/>
<path opacity="0.5" d="M263.737 216.189L262.201 423.023" stroke="#FFF888" stroke-width="1.5"/>
<path opacity="0.5" d="M378.841 169.935L370.025 350.267" stroke="#FFF888" stroke-width="1.5"/>
<path opacity="0.15" d="M222.472 143.842L96.26 180.448" stroke="#F0F0F0" stroke-width="1.5"/>
<path opacity="0.15" d="M96.26 180.448L263.737 216.189" stroke="#F0F0F0" stroke-width="1.5"/>
<path opacity="0.15" d="M263.737 216.189L378.841 169.935" stroke="#F0F0F0" stroke-width="1.5"/>
<path opacity="0.15" d="M378.841 169.935L222.472 143.842" stroke="#F0F0F0" stroke-width="1.5"/>
<path opacity="0.15" d="M223.11 228.548L101.409 276.846" stroke="#F0F0F0" stroke-width="1.5"/>
<path opacity="0.15" d="M101.409 276.846L262.939 323.691" stroke="#F0F0F0" stroke-width="1.5"/>
<path opacity="0.15" d="M262.939 323.691L374.284 263.137" stroke="#F0F0F0" stroke-width="1.5"/>
<path opacity="0.15" d="M374.284 263.137L223.11 228.548" stroke="#F0F0F0" stroke-width="1.5"/>
<path opacity="0.15" d="M296.421 156.182L174.697 197.187" stroke="#F0F0F0" stroke-width="1.5"/>
<path opacity="0.15" d="M174.697 197.187L179.621 393.223" stroke="#F0F0F0" stroke-width="1.5"/>
<path opacity="0.15" d="M179.621 393.223L293.15 328.201" stroke="#F0F0F0" stroke-width="1.5"/>
<path opacity="0.15" d="M293.15 328.201L296.421 156.182" stroke="#F0F0F0" stroke-width="1.5"/>
<path opacity="0.15" d="M326.044 191.151L320.255 383.85" stroke="#F0F0F0" stroke-width="1.5"/>
<path opacity="0.15" d="M320.255 383.85L169.008 335.486" stroke="#F0F0F0" stroke-width="1.5"/>
<path opacity="0.15" d="M169.008 335.486L164.005 160.799" stroke="#F0F0F0" stroke-width="1.5"/>
<path opacity="0.15" d="M164.005 160.799L326.044 191.151" stroke="#F0F0F0" stroke-width="1.5"/>
<path opacity="0.15" d="M223.711 308.268L106.21 366.731" stroke="#F0F0F0" stroke-width="1.5"/>
<path opacity="0.15" d="M106.21 366.731L262.201 423.023" stroke="#F0F0F0" stroke-width="1.5"/>
<path opacity="0.15" d="M262.201 423.023L370.025 350.267" stroke="#F0F0F0" stroke-width="1.5"/>
<path opacity="0.15" d="M370.025 350.267L223.711 308.268" stroke="#F0F0F0" stroke-width="1.5"/>
<path opacity="0.15" d="M222.472 143.842L223.711 308.268" stroke="#F0F0F0" stroke-width="1.5"/>
<path opacity="0.15" d="M96.26 180.448L106.21 366.731" stroke="#F0F0F0" stroke-width="1.5"/>
<path opacity="0.15" d="M263.737 216.189L262.201 423.023" stroke="#F0F0F0" stroke-width="1.5"/>
<path opacity="0.15" d="M378.841 169.935L370.025 350.267" stroke="#F0F0F0" stroke-width="1.5"/>
<path opacity="0.75" d="M294.734 244.936L177.251 298.84" stroke="#FFF888" stroke-width="2"/>
<path opacity="0.75" d="M166.587 250.979L323.044 291.003" stroke="#FFF888" stroke-width="2"/>
<path opacity="0.75" d="M240.509 358.35L240.294 175.089" stroke="#FFF888" stroke-width="2"/>
<path d="M226.509 283.666L210.061 283.786L220.879 271.395L220.968 278.782L226.509 283.666Z" fill="#92D192"/>
<path d="M240.406 269.863L213.697 282.118" stroke="#92D192" stroke-width="1.5"/>
<path d="M267.667 269.87L280.526 280.127L264.321 282.948L268.9 277.153L267.667 269.87Z" fill="#F2777A"/>
<path d="M240.406 269.863L276.651 279.135" stroke="#F2777A" stroke-width="1.5"/>
<path d="M233.619 238.311L240.351 223.303L247.119 238.295L240.365 235.303L233.619 238.311Z" fill="#6AB0F3"/>
<path d="M240.406 269.863L240.356 227.303" stroke="#6AB0F3" stroke-width="1.5"/>
<path d="M204.003 281.545H192.082V301.738H204.003V281.545Z" fill="black"/>
<g clip-path="url(#clip0_1129_30699)">
<path d="M195.645 292.016C195.645 291.956 195.687 291.799 195.772 291.546C195.856 291.292 195.983 290.997 196.152 290.659C196.321 290.321 196.556 290.014 196.858 289.736C197.159 289.459 197.485 289.29 197.835 289.23H198.16C198.57 289.23 198.908 289.362 199.174 289.628C199.439 289.893 199.578 290.267 199.59 290.75C199.578 290.979 199.554 291.142 199.517 291.238C199.481 291.335 199.216 292.07 198.721 293.446C198.094 295.086 197.78 296.063 197.78 296.377C197.78 296.618 197.877 296.739 198.07 296.739C198.299 296.739 198.528 296.636 198.757 296.431C199.071 296.093 199.342 295.532 199.572 294.748C199.608 294.604 199.638 294.519 199.662 294.495C199.686 294.471 199.771 294.453 199.915 294.441H200.024C200.145 294.441 200.223 294.441 200.259 294.441C200.295 294.441 200.338 294.459 200.386 294.495C200.434 294.531 200.452 294.573 200.44 294.622C200.44 294.742 200.38 294.972 200.259 295.309C200.139 295.647 199.909 296.033 199.572 296.467C199.234 296.902 198.848 297.197 198.414 297.354C198.317 297.378 198.172 297.39 197.979 297.39C197.449 297.39 197.069 297.239 196.839 296.938C196.61 296.636 196.496 296.298 196.496 295.925C196.496 295.599 196.791 294.658 197.382 293.102C197.973 291.546 198.275 290.599 198.287 290.261C198.287 290.116 198.269 290.02 198.233 289.972C198.197 289.923 198.106 289.893 197.961 289.881C197.624 289.905 197.34 290.092 197.111 290.442C196.882 290.792 196.713 291.166 196.604 291.564C196.496 291.962 196.423 292.161 196.387 292.161C196.375 292.173 196.26 292.179 196.043 292.179H195.754C195.681 292.107 195.645 292.052 195.645 292.016Z" fill="#92D192"/>
<path d="M195.016 286.805L197.495 284.38L197.639 284.525C199.207 286.021 199.992 286.781 199.992 286.805L199.521 287.33C199.497 287.318 199.147 287.016 198.472 286.425L197.513 285.593L196.517 286.443C196.361 286.576 196.204 286.715 196.047 286.859C195.89 287.004 195.764 287.119 195.667 287.203L195.522 287.312C195.498 287.336 195.408 287.251 195.251 287.058L195.016 286.805Z" fill="#92D192"/>
</g>
<path d="M303.146 274.354H290.059V298.398H303.146V274.354Z" fill="black"/>
<g clip-path="url(#clip1_1129_30699)">
<path d="M295.048 284.899C295.048 284.899 295.048 284.881 295.048 284.844C295.048 284.808 295.084 284.7 295.156 284.519C295.228 284.338 295.349 284.108 295.518 283.831C295.687 283.554 295.88 283.276 296.097 282.999C296.314 282.721 296.598 282.498 296.948 282.329C297.298 282.16 297.659 282.064 298.033 282.039C298.432 282.064 298.793 282.196 299.119 282.438C299.445 282.679 299.608 283.101 299.608 283.704V284.03L298.721 287.613C298.588 288.12 298.438 288.705 298.269 289.369C298.1 290.032 297.979 290.527 297.907 290.852C297.834 291.178 297.786 291.347 297.762 291.359C297.557 291.962 297.177 292.505 296.622 292.988C296.067 293.47 295.415 293.718 294.667 293.73C294.113 293.73 293.696 293.591 293.419 293.314C293.214 293.108 293.111 292.861 293.111 292.572C293.111 292.234 293.22 291.968 293.437 291.775C293.654 291.582 293.901 291.48 294.179 291.468C294.432 291.468 294.613 291.54 294.722 291.685C294.83 291.83 294.891 291.968 294.903 292.101C294.903 292.487 294.734 292.801 294.396 293.042L294.487 293.06H294.758H294.776C295.403 293.06 295.916 292.499 296.314 291.377C296.35 291.269 296.67 290.014 297.273 287.613C297.877 285.212 298.196 283.928 298.232 283.759C298.245 283.686 298.251 283.548 298.251 283.342C298.251 283.198 298.245 283.089 298.232 283.017C298.22 282.944 298.184 282.878 298.124 282.818C298.064 282.757 297.973 282.721 297.852 282.709C297.539 282.709 297.207 282.872 296.857 283.198C296.64 283.415 296.459 283.662 296.314 283.94C296.169 284.217 296.055 284.452 295.97 284.645C295.886 284.838 295.832 284.947 295.808 284.971C295.783 284.995 295.669 285.007 295.464 285.007H295.156C295.084 284.935 295.048 284.881 295.048 284.844V284.899Z" fill="#F2777A"/>
<path d="M294.197 279.615L296.676 277.19L296.821 277.334C298.389 278.83 299.174 279.59 299.174 279.615L298.703 280.139C298.679 280.127 298.329 279.826 297.653 279.235L296.694 278.402L295.699 279.253C295.542 279.385 295.385 279.524 295.229 279.669C295.072 279.814 294.945 279.928 294.848 280.013L294.704 280.121C294.68 280.145 294.589 280.061 294.432 279.868L294.197 279.615Z" fill="#F2777A"/>
</g>
<path d="M248.764 188.775H233.779V213.99H248.764V188.775Z" fill="black"/>
<g clip-path="url(#clip2_1129_30699)">
<path d="M238.021 197.313C238.021 197.192 238.045 197.053 238.093 196.897C238.142 196.74 238.214 196.661 238.311 196.661C238.323 196.661 238.757 196.631 239.614 196.571C240.471 196.51 240.911 196.474 240.936 196.462C241.08 196.462 241.153 196.51 241.153 196.607C241.153 196.691 240.851 197.953 240.248 200.39C239.644 202.78 239.343 204.017 239.343 204.101C239.572 203.981 239.747 203.866 239.868 203.757C240.157 203.54 240.574 203.16 241.117 202.617C241.66 202.074 242.082 201.706 242.384 201.513C242.867 201.187 243.325 201.024 243.76 201.024C244.122 201.024 244.405 201.139 244.61 201.368C244.816 201.597 244.924 201.923 244.936 202.345C244.936 202.647 244.894 202.901 244.81 203.106C244.725 203.311 244.61 203.462 244.466 203.558C244.321 203.655 244.194 203.721 244.085 203.757C243.977 203.794 243.868 203.812 243.76 203.812C243.518 203.812 243.325 203.745 243.18 203.613C243.035 203.48 242.963 203.305 242.963 203.088C242.963 202.786 243.06 202.539 243.253 202.345C243.446 202.152 243.639 202.026 243.832 201.965L244.122 201.911C243.977 201.766 243.832 201.694 243.687 201.694H243.615C243.229 201.73 242.848 201.881 242.474 202.146C242.1 202.412 241.66 202.798 241.153 203.305C240.646 203.812 240.248 204.18 239.958 204.409C239.982 204.421 240.073 204.439 240.23 204.463C240.386 204.488 240.531 204.524 240.664 204.572C240.797 204.62 240.954 204.669 241.135 204.717C241.316 204.765 241.479 204.85 241.623 204.97C241.768 205.091 241.901 205.2 242.022 205.296C242.142 205.393 242.245 205.55 242.329 205.767C242.414 205.984 242.45 206.183 242.438 206.364C242.438 206.569 242.408 206.817 242.348 207.106C242.287 207.396 242.251 207.637 242.239 207.83C242.239 208.313 242.402 208.555 242.728 208.555C243.307 208.555 243.778 207.837 244.14 206.4C244.164 206.304 244.285 206.256 244.502 206.256H244.574C244.767 206.256 244.864 206.31 244.864 206.418C244.864 206.479 244.846 206.563 244.81 206.672C244.315 208.374 243.603 209.224 242.673 209.224C242.13 209.224 241.69 209.067 241.352 208.754C241.014 208.44 240.845 207.987 240.845 207.396C240.845 207.179 240.863 206.992 240.899 206.835C240.936 206.678 240.954 206.533 240.954 206.4C240.954 206.135 240.869 205.906 240.7 205.712C240.531 205.519 240.32 205.381 240.067 205.296C239.813 205.212 239.608 205.145 239.451 205.097C239.294 205.049 239.186 205.031 239.125 205.043H239.089C238.944 205.55 238.818 206.038 238.709 206.509C238.6 206.98 238.516 207.33 238.456 207.559C238.395 207.788 238.341 208.011 238.293 208.229C238.244 208.446 238.202 208.591 238.166 208.663C238.13 208.736 238.087 208.814 238.039 208.899C237.991 208.983 237.925 209.037 237.84 209.061C237.683 209.17 237.514 209.224 237.333 209.224C237.128 209.224 236.971 209.164 236.863 209.043C236.754 208.923 236.7 208.82 236.7 208.736C236.7 208.615 236.923 207.649 237.369 205.839C237.816 204.029 238.256 202.249 238.691 200.499L239.361 197.874C239.373 197.717 239.33 197.621 239.234 197.584C239.137 197.548 238.902 197.518 238.528 197.494H238.437C238.317 197.494 238.238 197.494 238.202 197.494C238.166 197.494 238.124 197.476 238.075 197.44C238.027 197.403 238.009 197.361 238.021 197.313Z" fill="#6AB0F3"/>
<path d="M238.048 194.036L240.528 191.611L240.673 191.755C242.242 193.252 243.026 194.012 243.026 194.036L242.556 194.561C242.532 194.549 242.182 194.248 241.506 193.656L240.546 192.823L239.551 193.674C239.394 193.807 239.237 193.946 239.08 194.091C238.923 194.235 238.796 194.35 238.7 194.435L238.555 194.543C238.531 194.567 238.44 194.483 238.284 194.29L238.048 194.036Z" fill="#6AB0F3"/>
</g>
<path d="M540.041 123.087C540.857 123.23 541.635 122.684 541.777 121.868L544.104 108.57C544.247 107.754 543.702 106.977 542.886 106.834C542.069 106.691 541.292 107.237 541.149 108.053L539.081 119.873L527.26 117.805C526.444 117.662 525.667 118.208 525.524 119.024C525.382 119.84 525.927 120.617 526.743 120.76L540.041 123.087ZM409.858 122.518C429.61 96.5746 456.99 89.6394 481.965 92.6689C507.042 95.7108 529.453 108.771 539.072 122.471L541.527 120.747C531.311 106.197 508.04 92.8099 482.326 89.6908C456.511 86.5593 427.99 93.7494 407.471 120.701L409.858 122.518Z" fill="white"/>
<rect x="446.764" y="42.7524" width="56.267" height="32.417" fill="black"/>
<g clip-path="url(#clip3_1129_30699)">
<path d="M455.406 51.0818C454.944 51.0818 454.7 51.0546 454.673 51.0003C454.659 50.9732 454.652 50.9189 454.652 50.8375C454.652 50.5117 454.727 50.2877 454.876 50.1656C454.903 50.152 455.005 50.1452 455.182 50.1452C455.915 50.1859 456.776 50.2063 457.767 50.2063C459.681 50.2063 460.781 50.1859 461.066 50.1452H461.31C461.391 50.2267 461.432 50.2877 461.432 50.3285C461.432 50.3692 461.418 50.4913 461.391 50.6949C461.323 50.8985 461.262 51.0275 461.208 51.0818H460.434C459.498 51.0954 458.948 51.1564 458.785 51.265C458.69 51.3193 458.595 51.5093 458.5 51.8351C458.405 52.1609 457.951 53.9525 457.136 57.2101C456.919 58.0923 456.688 59.0289 456.444 60.0197C456.2 61.0106 456.016 61.7571 455.894 62.2593L455.711 62.9923C455.711 63.0466 455.772 63.0737 455.894 63.0737C456.016 63.0737 456.417 63.0873 457.095 63.1144H457.442C457.876 63.1144 458.222 63.1076 458.48 63.0941C458.738 63.0805 459.07 63.033 459.478 62.9515C459.885 62.8701 460.224 62.748 460.496 62.5851C460.767 62.4222 461.066 62.1914 461.391 61.8928C461.717 61.5942 462.002 61.221 462.246 60.773C462.464 60.3659 462.667 59.9112 462.857 59.4089C463.047 58.9067 463.163 58.6217 463.203 58.5538C463.271 58.5131 463.387 58.4928 463.549 58.4928H463.814C463.896 58.6149 463.936 58.6896 463.936 58.7167C463.936 58.7439 463.801 59.1443 463.529 59.9179C463.258 60.6916 462.959 61.506 462.633 62.3611C462.308 63.2162 462.131 63.7184 462.104 63.8677C462.077 63.9356 462.05 63.9763 462.022 63.9899C461.995 64.0035 461.887 64.0238 461.697 64.051C461.507 64.0781 461.215 64.0849 460.821 64.0713C460.672 64.0713 460.156 64.0713 459.274 64.0713C458.392 64.0713 457.55 64.0646 456.749 64.051H453.125C451.985 64.051 451.415 63.9831 451.415 63.8474C451.415 63.7524 451.429 63.6574 451.456 63.5623C451.524 63.3045 451.591 63.1619 451.659 63.1348C451.714 63.1212 451.815 63.1144 451.965 63.1144H452.087C452.453 63.1144 452.861 63.0941 453.309 63.0533C453.499 63.0126 453.627 62.9312 453.695 62.809C453.736 62.7547 454.225 60.8681 455.161 57.149C456.098 53.4299 456.566 51.4686 456.566 51.265C456.566 51.17 456.179 51.1089 455.406 51.0818Z" fill="#F0F0F0"/>
<path d="M471.117 58.9509C471.117 53.5894 472.719 49.5243 475.922 46.7553H476.492C476.574 46.8368 476.614 46.8979 476.614 46.9386C476.614 46.9929 476.485 47.1625 476.227 47.4476C475.97 47.7326 475.657 48.1602 475.291 48.7302C474.924 49.3003 474.551 50.0061 474.171 50.8477C473.791 51.6892 473.472 52.8226 473.214 54.2477C472.956 55.6729 472.827 57.2474 472.827 58.9712C472.827 60.6814 472.956 62.2492 473.214 63.6743C473.472 65.0995 473.784 66.2261 474.151 67.0541C474.517 67.882 474.891 68.5878 475.271 69.1715C475.651 69.7551 475.97 70.1895 476.227 70.4745C476.485 70.7596 476.614 70.9292 476.614 70.9835C476.614 71.0242 476.574 71.0853 476.492 71.1667H475.922C475.528 70.841 475.148 70.4813 474.782 70.0877C474.415 69.6941 474.001 69.1308 473.54 68.3978C473.079 67.6649 472.678 66.8776 472.339 66.0361C471.999 65.1945 471.714 64.1562 471.484 62.921C471.253 61.6859 471.131 60.3625 471.117 58.9509Z" fill="#F0F0F0"/>
<path d="M485.512 55.0111C485.674 55.0518 486.312 55.0722 487.425 55.0722C488.416 55.0722 488.952 55.0518 489.034 55.0111H489.156V56.2734H487.731L485.674 60.8748C484.846 62.7479 484.371 63.7658 484.249 63.9287C484.141 64.0645 484.012 64.1323 483.862 64.1323C483.835 64.1323 483.788 64.1323 483.72 64.1323C483.652 64.1323 483.584 64.1255 483.516 64.112H483.211C483.007 64.112 482.844 64.0102 482.722 63.8066C482.6 63.603 482.308 62.9922 481.847 61.9742C481.643 61.5263 481.48 61.1598 481.358 60.8748L479.302 56.2734H477.877V55.0111H478.039C478.243 55.0518 478.996 55.0722 480.299 55.0722C481.752 55.0722 482.6 55.0518 482.844 55.0111H483.028V56.2734H482.05L483.129 58.6759C483.822 60.2368 484.188 61.0173 484.229 61.0173C484.229 61.0037 484.575 60.2232 485.267 58.6759C485.959 57.1285 486.319 56.3345 486.346 56.2938C486.346 56.2802 486.183 56.2734 485.858 56.2734H485.369V55.0111H485.512Z" fill="#FFF888"/>
<path d="M486.112 49.2492C486.112 49.1407 486.146 49.0456 486.214 48.9642C486.282 48.8828 486.384 48.842 486.519 48.842C486.614 48.842 486.696 48.876 486.764 48.9438C486.831 48.9981 486.899 49.1271 486.967 49.3307C487.103 49.8329 487.381 50.2197 487.802 50.4912C487.951 50.5862 488.026 50.7084 488.026 50.8577C488.026 50.9798 488.006 51.0613 487.965 51.102C487.924 51.1427 487.829 51.2038 487.68 51.2852C487.096 51.5838 486.587 52.0114 486.153 52.5679C486.126 52.595 486.092 52.6358 486.051 52.6901C486.01 52.7443 485.976 52.7851 485.949 52.8122C485.922 52.8394 485.888 52.8529 485.847 52.8529C485.807 52.8529 485.759 52.8597 485.705 52.8733C485.61 52.8733 485.522 52.8394 485.44 52.7715C485.359 52.7036 485.311 52.6018 485.298 52.4661C485.298 52.2082 485.617 51.8078 486.255 51.2649H482.773L479.292 51.2445C479.115 51.1223 479.027 50.9934 479.027 50.8577C479.027 50.7627 479.115 50.6269 479.292 50.4505H486.601C486.275 49.9347 486.112 49.5343 486.112 49.2492Z" fill="#FFF888"/>
<path d="M495.915 58.9509C495.915 64.3259 494.314 68.3978 491.111 71.1667H490.846C490.669 71.1667 490.554 71.1532 490.5 71.126C490.445 71.0989 490.418 71.0378 490.418 70.9428C490.445 70.8749 490.615 70.6645 490.927 70.3116C491.24 69.9587 491.565 69.4972 491.905 68.9272C492.244 68.3571 492.597 67.6581 492.963 66.8301C493.33 66.0021 493.628 64.8959 493.859 63.5115C494.09 62.127 494.205 60.6136 494.205 58.9712C494.205 57.3289 494.09 55.8155 493.859 54.431C493.628 53.0465 493.33 51.9403 492.963 51.1123C492.597 50.2844 492.244 49.5786 491.905 48.9949C491.565 48.4113 491.24 47.9566 490.927 47.6308C490.615 47.3051 490.445 47.0879 490.418 46.9793C490.418 46.83 490.52 46.7553 490.724 46.7553H490.846H491.111C492.848 48.2077 494.117 50.1351 494.918 52.5375C495.583 54.4513 495.915 56.5891 495.915 58.9509Z" fill="#F0F0F0"/>
</g>
<defs>
<clipPath id="clip0_1129_30699">
<rect width="6.152" height="14.824" fill="white" transform="translate(194.288 282.569)"/>
</clipPath>
<clipPath id="clip1_1129_30699">
<rect width="6.008" height="18.352" fill="white" transform="translate(293.69 275.379)"/>
</clipPath>
<clipPath id="clip2_1129_30699">
<rect width="9.432" height="19.424" fill="white" transform="translate(235.83 189.8)"/>
</clipPath>
<clipPath id="clip3_1129_30699">
<rect width="48.267" height="24.417" fill="white" transform="translate(450.764 46.7524)"/>
</clipPath>
</defs>
</svg>
