<svg width="640" height="480" viewBox="0 0 640 480" fill="none" xmlns="http://www.w3.org/2000/svg">
<rect width="640" height="480" fill="black"/>
<path d="M167.397 317.669H151.782V332.613H167.397V317.669Z" fill="black"/>
<g clip-path="url(#clip0_1128_28464)">
<path d="M155.032 323.438C155.117 322.931 155.443 322.346 156.01 321.682C156.577 321.019 157.277 320.681 158.109 320.669C158.531 320.669 158.917 320.778 159.267 320.995C159.617 321.212 159.877 321.483 160.046 321.809C160.552 321.049 161.162 320.669 161.873 320.669C162.32 320.669 162.706 320.802 163.032 321.067C163.357 321.333 163.526 321.688 163.538 322.135C163.538 322.485 163.454 322.768 163.285 322.985C163.116 323.203 162.953 323.335 162.796 323.384C162.64 323.432 162.501 323.456 162.38 323.456C162.151 323.456 161.964 323.39 161.819 323.257C161.674 323.124 161.602 322.949 161.602 322.732C161.602 322.177 161.904 321.797 162.507 321.592C162.374 321.435 162.133 321.357 161.783 321.357C161.626 321.357 161.511 321.369 161.439 321.393C160.981 321.586 160.643 321.984 160.426 322.587C159.702 325.254 159.34 326.81 159.34 327.257C159.34 327.594 159.436 327.836 159.629 327.981C159.822 328.125 160.033 328.198 160.263 328.198C160.709 328.198 161.149 327.999 161.584 327.6C162.018 327.202 162.314 326.714 162.471 326.135C162.507 326.014 162.543 325.948 162.579 325.935C162.615 325.923 162.712 325.911 162.869 325.899H162.941C163.122 325.899 163.213 325.948 163.213 326.044C163.213 326.056 163.201 326.122 163.176 326.243C162.983 326.931 162.609 327.54 162.054 328.071C161.499 328.602 160.854 328.867 160.118 328.867C159.273 328.867 158.634 328.487 158.2 327.727C157.705 328.475 157.138 328.849 156.498 328.849H156.39C155.799 328.849 155.376 328.692 155.123 328.379C154.87 328.065 154.737 327.733 154.725 327.383C154.725 326.997 154.839 326.683 155.069 326.442C155.298 326.201 155.569 326.08 155.883 326.08C156.402 326.08 156.661 326.334 156.661 326.84C156.661 327.082 156.589 327.293 156.444 327.474C156.299 327.655 156.16 327.775 156.028 327.836C155.895 327.896 155.817 327.926 155.793 327.926L155.738 327.944C155.738 327.956 155.774 327.981 155.847 328.017C155.919 328.053 156.016 328.095 156.136 328.143C156.257 328.192 156.372 328.21 156.48 328.198C156.915 328.198 157.289 327.926 157.602 327.383C157.711 327.19 157.85 326.78 158.019 326.153C158.187 325.525 158.356 324.874 158.525 324.198C158.694 323.522 158.791 323.124 158.815 323.004C158.875 322.678 158.905 322.443 158.905 322.298C158.905 321.96 158.815 321.719 158.634 321.574C158.453 321.429 158.248 321.357 158.019 321.357C157.536 321.357 157.083 321.55 156.661 321.936C156.239 322.322 155.943 322.817 155.774 323.42C155.75 323.528 155.72 323.589 155.684 323.601C155.648 323.613 155.551 323.625 155.394 323.637H155.141C155.069 323.565 155.032 323.498 155.032 323.438Z" fill="#92D192"/>
</g>
<path d="M494.268 297.768H478.883V316.545H494.268V297.768Z" fill="black"/>
<g clip-path="url(#clip1_1128_28464)">
<path d="M481.848 303.574C481.848 303.405 481.939 303.116 482.12 302.705C482.301 302.295 482.591 301.867 482.989 301.42C483.387 300.974 483.834 300.756 484.328 300.768C484.823 300.768 485.221 300.907 485.523 301.185C485.825 301.462 485.982 301.849 485.994 302.343C485.97 302.573 485.952 302.699 485.939 302.723C485.939 302.76 485.843 303.037 485.65 303.556C485.457 304.075 485.258 304.66 485.052 305.312C484.847 305.964 484.751 306.483 484.763 306.869C484.763 307.388 484.847 307.75 485.016 307.955C485.185 308.16 485.439 308.269 485.777 308.281C486.054 308.281 486.314 308.214 486.555 308.082C486.796 307.949 486.983 307.81 487.116 307.665C487.249 307.521 487.412 307.321 487.605 307.068C487.605 307.056 487.635 306.935 487.695 306.706C487.756 306.477 487.84 306.121 487.949 305.638C488.057 305.155 488.172 304.709 488.293 304.298C488.751 302.488 489.005 301.541 489.053 301.456C489.21 301.131 489.469 300.968 489.831 300.968C489.988 300.968 490.115 301.01 490.212 301.094C490.308 301.179 490.374 301.251 490.411 301.312C490.447 301.372 490.459 301.426 490.447 301.474C490.447 301.631 490.151 302.898 489.56 305.276C488.969 307.653 488.631 308.957 488.546 309.186C488.208 310.188 487.623 310.984 486.79 311.575C485.958 312.167 485.125 312.468 484.292 312.48C483.749 312.48 483.272 312.348 482.862 312.082C482.452 311.817 482.247 311.418 482.247 310.887C482.247 310.622 482.289 310.399 482.373 310.218C482.458 310.037 482.572 309.904 482.717 309.819C482.862 309.735 482.983 309.675 483.079 309.638C483.176 309.602 483.278 309.584 483.387 309.584C483.918 309.584 484.184 309.838 484.184 310.344C484.184 310.586 484.111 310.797 483.966 310.978C483.822 311.159 483.683 311.28 483.55 311.34C483.417 311.4 483.339 311.431 483.315 311.431L483.26 311.449C483.284 311.509 483.399 311.581 483.604 311.666C483.809 311.75 484.015 311.793 484.22 311.793H484.365C484.57 311.793 484.727 311.781 484.835 311.756C485.233 311.648 485.602 311.418 485.939 311.069C486.277 310.719 486.537 310.344 486.718 309.946C486.899 309.548 487.038 309.21 487.134 308.932C487.231 308.655 487.279 308.474 487.279 308.389L487.17 308.462C487.098 308.51 486.983 308.576 486.826 308.661C486.67 308.745 486.513 308.818 486.356 308.878C486.114 308.939 485.879 308.969 485.65 308.969C485.095 308.969 484.606 308.836 484.184 308.57C483.761 308.305 483.484 307.877 483.351 307.285C483.339 307.201 483.333 307.014 483.333 306.724C483.333 306.036 483.544 305.137 483.966 304.027C484.389 302.917 484.6 302.211 484.6 301.909C484.6 301.897 484.6 301.885 484.6 301.873C484.6 301.764 484.6 301.692 484.6 301.655C484.6 301.619 484.576 301.577 484.527 301.529C484.479 301.48 484.413 301.456 484.328 301.456H484.256C483.978 301.456 483.725 301.571 483.496 301.8C483.266 302.03 483.085 302.277 482.953 302.542C482.82 302.808 482.717 303.061 482.645 303.303C482.572 303.544 482.524 303.677 482.5 303.701C482.476 303.725 482.379 303.737 482.21 303.737H481.957C481.885 303.665 481.848 303.61 481.848 303.574Z" fill="#F2777A"/>
</g>
<path d="M310.935 48.6241H296.385V63.5682H310.935V48.6241Z" fill="black"/>
<g clip-path="url(#clip2_1128_28464)">
<path d="M304.975 53.5063C304.854 53.5063 304.534 53.4399 304.015 53.3072C303.496 53.1745 303.116 53.1081 302.875 53.1081C302.634 53.1081 302.429 53.1322 302.26 53.1805C302.091 53.2288 301.952 53.2891 301.843 53.3615C301.735 53.4339 301.662 53.5003 301.626 53.5606C301.59 53.6209 301.548 53.6873 301.5 53.7597L301.463 53.8321C301.427 53.8683 301.337 53.8864 301.192 53.8864C300.938 53.8864 300.812 53.8381 300.812 53.7416C300.812 53.6812 300.83 53.5968 300.866 53.4882C301.023 53.0176 301.282 52.6134 301.644 52.2756C302.006 51.9377 302.404 51.7326 302.839 51.6602C302.984 51.6361 303.086 51.624 303.147 51.624C303.448 51.624 303.72 51.7266 303.961 51.9317C304.202 52.1368 304.432 52.3359 304.649 52.5289C304.866 52.722 305.095 52.8246 305.336 52.8366C305.602 52.8366 305.867 52.6375 306.133 52.2394C306.398 51.8412 306.537 51.6421 306.549 51.6421C306.561 51.63 306.652 51.624 306.821 51.624H307.056C307.128 51.6964 307.164 51.7447 307.164 51.7688C307.164 51.8171 307.134 51.9015 307.074 52.0222C307.014 52.1428 306.929 52.2695 306.821 52.4023C306.712 52.535 306.609 52.6677 306.513 52.8004C306.416 52.9332 306.332 53.0478 306.26 53.1443L306.133 53.3072C305.614 53.9226 304.794 54.737 303.671 55.7506C302.549 56.7641 301.855 57.4157 301.59 57.7052L301.373 57.9224L301.644 57.9405C301.91 57.9405 302.296 58.0069 302.803 58.1396C303.309 58.2723 303.689 58.3387 303.943 58.3387C304.401 58.3387 304.824 58.2241 305.21 57.9948C305.596 57.7656 305.849 57.4639 305.97 57.0899C306.018 56.9813 306.06 56.9149 306.097 56.8908C306.133 56.8667 306.223 56.8546 306.368 56.8546C306.597 56.8546 306.712 56.9149 306.712 57.0356C306.712 57.0959 306.706 57.1502 306.694 57.1985C306.489 57.9466 306.091 58.568 305.499 59.0627C304.908 59.5574 304.317 59.8107 303.726 59.8228C303.412 59.8228 303.134 59.7203 302.893 59.5151C302.652 59.31 302.417 59.1049 302.187 58.8998C301.958 58.6946 301.729 58.5921 301.5 58.5921C300.969 58.5921 300.492 58.9541 300.07 59.678C299.997 59.7746 299.895 59.8228 299.762 59.8228H299.672H299.436C299.364 59.7504 299.328 59.6961 299.328 59.6599C299.328 59.4789 299.678 58.9601 300.377 58.1034C300.848 57.5604 301.644 56.7762 302.766 55.7506C303.889 54.725 304.582 54.0734 304.848 53.7959C304.993 53.6028 305.035 53.5063 304.975 53.5063Z" fill="#6AB0F3"/>
</g>
<path d="M383.757 217.352L400.206 217.4L389.261 229.679L389.248 222.292L383.757 217.352Z" fill="#A0A0A0"/>
<path d="M189.221 318.994L172.773 318.946L183.718 306.667L183.73 314.054L189.221 318.994Z" fill="#A0A0A0"/>
<path d="M176.425 317.315L396.553 219.031" stroke="#A0A0A0" stroke-width="1.5"/>
<path d="M181.7 237.28L168.808 227.065L185.003 224.191L180.443 230.001L181.7 237.28Z" fill="#A0A0A0"/>
<path d="M456.3 292.66L469.192 302.875L452.996 305.749L457.557 299.939L456.3 292.66Z" fill="#A0A0A0"/>
<path d="M465.313 301.896L172.686 228.044" stroke="#A0A0A0" stroke-width="1.5"/>
<path d="M309.449 410.241L302.688 425.236L295.949 410.231L302.697 413.236L309.449 410.241Z" fill="#A0A0A0"/>
<path d="M296.193 89.1506L302.955 74.1558L309.693 89.1609L302.946 86.1558L296.193 89.1506Z" fill="#A0A0A0"/>
<path d="M302.952 78.1558L302.691 421.236" stroke="#A0A0A0" stroke-width="1.5"/>
<path opacity="0.4" d="M298.579 218.132L307.067 214.827" stroke="#6AB0F3" stroke-width="1.5"/>
<path opacity="0.4" d="M308.527 217.721L297.213 215.23" stroke="#6AB0F3" stroke-width="1.5"/>
<path opacity="0.4" d="M298.647 305.98L306.87 301.854" stroke="#6AB0F3" stroke-width="1.5"/>
<path opacity="0.4" d="M308.281 305.466L297.322 302.358" stroke="#6AB0F3" stroke-width="1.5"/>
<path opacity="0.4" d="M279.61 275.297L268.304 272.274" stroke="#92D192" stroke-width="1.5"/>
<path opacity="0.4" d="M273.866 266.995L273.999 280.531" stroke="#92D192" stroke-width="1.5"/>
<path opacity="0.4" d="M335.192 250.198L324.234 247.58" stroke="#92D192" stroke-width="1.5"/>
<path opacity="0.4" d="M329.759 242.513L329.625 255.226" stroke="#92D192" stroke-width="1.5"/>
<path opacity="0.4" d="M336.848 272.491L345.011 268.552" stroke="#F2777A" stroke-width="1.5"/>
<path opacity="0.4" d="M341.051 263.78L340.854 277.208" stroke="#F2777A" stroke-width="1.5"/>
<path opacity="0.4" d="M262.396 253.542L270.909 250.006" stroke="#F2777A" stroke-width="1.5"/>
<path opacity="0.4" d="M266.595 245.344L266.754 258.155" stroke="#F2777A" stroke-width="1.5"/>
<path opacity="0.4" d="M298.544 172.026L307.171 169.178" stroke="#6AB0F3" stroke-width="1.5"/>
<path opacity="0.4" d="M308.656 171.673L297.155 169.524" stroke="#6AB0F3" stroke-width="1.5"/>
<path opacity="0.4" d="M298.679 347.859L306.775 343.361" stroke="#6AB0F3" stroke-width="1.5"/>
<path opacity="0.4" d="M308.164 347.298L297.375 343.912" stroke="#6AB0F3" stroke-width="1.5"/>
<path opacity="0.4" d="M248.581 289.308L237.109 286.048" stroke="#92D192" stroke-width="1.5"/>
<path opacity="0.4" d="M242.671 280.659L242.969 294.647" stroke="#92D192" stroke-width="1.5"/>
<path opacity="0.4" d="M360.181 238.915L349.401 236.468" stroke="#92D192" stroke-width="1.5"/>
<path opacity="0.4" d="M354.891 231.504L354.65 243.842" stroke="#92D192" stroke-width="1.5"/>
<path opacity="0.4" d="M377.273 282.78L385.21 278.612" stroke="#F2777A" stroke-width="1.5"/>
<path opacity="0.4" d="M381.468 273.787L381.061 287.546" stroke="#F2777A" stroke-width="1.5"/>
<path opacity="0.4" d="M228.04 244.798L236.685 241.44" stroke="#F2777A" stroke-width="1.5"/>
<path opacity="0.4" d="M232.229 236.835L232.539 249.357" stroke="#F2777A" stroke-width="1.5"/>
<path opacity="0.4" d="M298.507 124.368L307.279 122.009" stroke="#6AB0F3" stroke-width="1.5"/>
<path opacity="0.4" d="M308.789 124.077L297.096 122.295" stroke="#6AB0F3" stroke-width="1.5"/>
<path opacity="0.4" d="M298.711 388.458L306.684 383.613" stroke="#6AB0F3" stroke-width="1.5"/>
<path opacity="0.4" d="M308.051 387.853L297.426 384.206" stroke="#6AB0F3" stroke-width="1.5"/>
<path opacity="0.4" d="M215.046 304.451L203.417 300.924" stroke="#92D192" stroke-width="1.5"/>
<path opacity="0.4" d="M208.959 295.425L209.45 309.895" stroke="#92D192" stroke-width="1.5"/>
<path opacity="0.4" d="M383.545 228.364L372.943 226.073" stroke="#92D192" stroke-width="1.5"/>
<path opacity="0.4" d="M378.392 221.21L378.058 233.193" stroke="#92D192" stroke-width="1.5"/>
<path opacity="0.4" d="M420.082 293.675L427.752 289.26" stroke="#F2777A" stroke-width="1.5"/>
<path opacity="0.4" d="M424.261 284.383L423.62 298.489" stroke="#F2777A" stroke-width="1.5"/>
<path opacity="0.4" d="M195.405 236.492L204.159 233.3" stroke="#F2777A" stroke-width="1.5"/>
<path opacity="0.4" d="M199.58 228.751L200.027 240.998" stroke="#F2777A" stroke-width="1.5"/>
<path d="M457.984 216.348L474.152 219.376L461.163 229.468L462.489 222.201L457.984 216.348Z" fill="#F54242"/>
<path d="M302.813 260.885L470.264 220.318" stroke="#F54242" stroke-width="1.5"/>
<path d="M457.984 216.348L474.152 219.376L461.163 229.468L462.489 222.201L457.984 216.348Z" fill="#FFF888"/>
<path d="M302.813 260.885L470.264 220.318" stroke="#FFF888" stroke-width="1.5"/>
<path d="M358.328 171.429L372.534 163.137L369.319 179.269L365.565 172.907L358.328 171.429Z" fill="#D582FF"/>
<path d="M302.813 260.885L370.211 166.393" stroke="#D582FF" stroke-width="1.5"/>
<path opacity="0.2" d="M242.82 287.671L368.483 323.385" stroke="#F0F0F0" stroke-width="1.5"/>
<path opacity="0.2" d="M423.939 291.454L368.483 323.385" stroke="#F0F0F0" stroke-width="1.5"/>
<path opacity="0.2" d="M242.82 287.671L239.676 140.197" stroke="#F0F0F0" stroke-width="1.5"/>
<path opacity="0.2" d="M423.939 291.454L430.699 142.654" stroke="#F0F0F0" stroke-width="1.5"/>
<path opacity="0.2" d="M368.483 323.385L372.534 163.137" stroke="#F0F0F0" stroke-width="1.5"/>
<path opacity="0.2" d="M302.918 123.182L239.676 140.197" stroke="#F0F0F0" stroke-width="1.5"/>
<path opacity="0.2" d="M302.918 123.182L430.699 142.654" stroke="#F0F0F0" stroke-width="1.5"/>
<path opacity="0.2" d="M239.676 140.197L372.534 163.137" stroke="#F0F0F0" stroke-width="1.5"/>
<path opacity="0.2" d="M430.699 142.654L372.534 163.137" stroke="#F0F0F0" stroke-width="1.5"/>
<path opacity="0.2" d="M354.771 237.687L471.363 264.15" stroke="#F0F0F0" stroke-width="1.5"/>
<path opacity="0.2" d="M423.939 291.454L471.363 264.15" stroke="#F0F0F0" stroke-width="1.5"/>
<path opacity="0.2" d="M354.771 237.687L355.586 195.941" stroke="#F0F0F0" stroke-width="1.5"/>
<path opacity="0.2" d="M423.939 291.454L426.113 243.604" stroke="#F0F0F0" stroke-width="1.5"/>
<path opacity="0.2" d="M471.363 264.15L474.152 219.376" stroke="#F0F0F0" stroke-width="1.5"/>
<path opacity="0.2" d="M302.847 216.47L355.586 195.941" stroke="#F0F0F0" stroke-width="1.5"/>
<path opacity="0.2" d="M302.847 216.47L426.113 243.604" stroke="#F0F0F0" stroke-width="1.5"/>
<path opacity="0.2" d="M355.586 195.941L474.152 219.376" stroke="#F0F0F0" stroke-width="1.5"/>
<path opacity="0.2" d="M426.113 243.604L474.152 219.376" stroke="#F0F0F0" stroke-width="1.5"/>
<path d="M538.609 150.009H484.887V231.037H538.609V150.009Z" fill="black"/>
<g clip-path="url(#clip3_1128_28464)">
<path d="M487.362 185.569V153.009H493.643V154.529H488.883V185.569H487.362Z" fill="#FFF888"/>
<path d="M487.362 221.785V189.225H488.883V220.265H493.643V221.785H487.362Z" fill="#FFF888"/>
<g clip-path="url(#clip4_1128_28464)">
<path d="M487.362 192.854V181.936H488.883V192.854H487.362Z" fill="#FFF888"/>
</g>
<path d="M499.199 162.294C499.199 162.294 499.199 162.215 499.199 162.058C499.199 161.901 499.284 161.781 499.452 161.696H509.968C510.149 161.793 510.239 161.914 510.239 162.058C510.239 162.203 510.149 162.324 509.968 162.42H499.452C499.284 162.336 499.199 162.215 499.199 162.058V162.294Z" fill="#FFF888"/>
<path d="M513.733 158.819C513.407 158.819 513.147 158.71 512.954 158.493C512.761 158.276 512.665 158.01 512.665 157.696C512.665 156.84 512.984 156.098 513.624 155.47C514.263 154.843 515.06 154.529 516.013 154.529C517.111 154.529 518.028 154.867 518.764 155.543C519.5 156.218 519.874 157.093 519.886 158.167C519.886 158.686 519.765 159.181 519.524 159.651C519.283 160.122 518.993 160.532 518.655 160.882C518.318 161.232 517.835 161.678 517.208 162.221C516.773 162.595 516.17 163.15 515.398 163.886L514.33 164.9L515.705 164.918C517.6 164.918 518.607 164.888 518.728 164.827C518.812 164.803 518.957 164.266 519.162 163.217V163.162H519.886V163.217C519.874 163.253 519.796 163.802 519.651 164.864C519.506 165.925 519.416 166.481 519.379 166.529V166.583H512.665V166.239V166.022C512.665 165.938 512.701 165.847 512.773 165.751C512.846 165.654 513.027 165.443 513.316 165.117C513.666 164.731 513.968 164.393 514.221 164.104C514.33 163.983 514.535 163.76 514.837 163.434C515.138 163.108 515.343 162.885 515.452 162.764C515.561 162.644 515.735 162.444 515.977 162.167C516.218 161.889 516.387 161.684 516.484 161.552C516.58 161.419 516.719 161.238 516.9 161.009C517.081 160.779 517.208 160.586 517.28 160.429C517.352 160.273 517.443 160.098 517.551 159.905C517.66 159.712 517.738 159.518 517.787 159.325C517.835 159.132 517.877 158.951 517.913 158.782C517.95 158.613 517.968 158.414 517.968 158.185C517.968 157.425 517.763 156.767 517.352 156.212C516.942 155.657 516.357 155.38 515.597 155.38C515.199 155.38 514.849 155.482 514.547 155.688C514.245 155.893 514.034 156.092 513.914 156.285C513.793 156.478 513.733 156.592 513.733 156.629C513.733 156.641 513.763 156.647 513.823 156.647C514.04 156.647 514.263 156.731 514.493 156.9C514.722 157.069 514.837 157.347 514.837 157.733C514.837 158.034 514.74 158.288 514.547 158.493C514.354 158.698 514.082 158.807 513.733 158.819Z" fill="#FFF888"/>
<path d="M507.018 183.542C506.692 183.542 506.439 183.439 506.258 183.234C506.077 183.029 505.98 182.764 505.968 182.438C505.968 181.774 506.258 181.183 506.837 180.664C507.416 180.145 508.116 179.886 508.936 179.886C509.359 179.886 509.624 179.892 509.733 179.904C510.626 180.049 511.307 180.368 511.778 180.863C512.248 181.358 512.49 181.895 512.502 182.474C512.502 183.101 512.297 183.711 511.887 184.302C511.476 184.893 510.909 185.322 510.185 185.587L510.131 185.623C510.131 185.635 510.185 185.653 510.294 185.678C510.402 185.702 510.577 185.756 510.819 185.84C511.06 185.925 511.289 186.052 511.506 186.22C512.496 186.86 512.991 187.705 512.991 188.754C512.991 189.708 512.617 190.54 511.868 191.252C511.12 191.964 510.173 192.32 509.027 192.32C508.062 192.32 507.229 192.06 506.529 191.542C505.829 191.023 505.479 190.365 505.479 189.569C505.479 189.231 505.588 188.959 505.805 188.754C506.022 188.549 506.294 188.441 506.62 188.429C506.958 188.429 507.235 188.537 507.452 188.754C507.669 188.972 507.778 189.243 507.778 189.569C507.778 189.702 507.76 189.822 507.724 189.931C507.688 190.039 507.645 190.136 507.597 190.22C507.549 190.305 507.482 190.377 507.398 190.438C507.314 190.498 507.241 190.546 507.181 190.582C507.12 190.619 507.06 190.643 507 190.655C506.939 190.667 506.891 190.685 506.855 190.709L506.783 190.727C507.398 191.27 508.146 191.542 509.027 191.542C509.691 191.542 510.191 191.222 510.529 190.582C510.734 190.184 510.837 189.575 510.837 188.754V188.392C510.837 187.246 510.451 186.48 509.678 186.094C509.497 186.021 509.129 185.979 508.574 185.967L507.814 185.949L507.76 185.913C507.736 185.877 507.724 185.78 507.724 185.623C507.724 185.406 507.772 185.297 507.869 185.297C508.206 185.297 508.556 185.267 508.918 185.207C509.329 185.147 509.703 184.893 510.04 184.447C510.378 184 510.547 183.325 510.547 182.42V182.275C510.547 181.587 510.336 181.111 509.914 180.845C509.648 180.676 509.365 180.592 509.063 180.592C508.677 180.592 508.321 180.658 507.995 180.791C507.669 180.924 507.44 181.062 507.307 181.207C507.175 181.352 507.108 181.424 507.108 181.424H507.163C507.199 181.436 507.247 181.448 507.307 181.46C507.368 181.473 507.428 181.503 507.488 181.551C507.549 181.599 507.621 181.641 507.706 181.678C507.79 181.714 507.85 181.78 507.887 181.877C507.923 181.973 507.971 182.064 508.031 182.148C508.092 182.233 508.11 182.353 508.086 182.51C508.086 182.776 508.001 183.011 507.832 183.216C507.663 183.421 507.392 183.53 507.018 183.542Z" fill="#FFF888"/>
<path d="M508.574 206.799L508.339 206.889C508.17 206.95 507.929 207.01 507.615 207.07C507.301 207.131 506.951 207.173 506.565 207.197H506.221V206.365H506.565C507.132 206.34 507.657 206.25 508.14 206.093C508.623 205.936 508.96 205.791 509.153 205.659C509.347 205.526 509.515 205.393 509.66 205.261C509.684 205.224 509.757 205.206 509.877 205.206C509.986 205.206 510.089 205.242 510.185 205.315V210.726L510.203 216.156C510.288 216.241 510.36 216.295 510.42 216.319C510.481 216.343 510.626 216.367 510.855 216.391C511.084 216.416 511.458 216.428 511.977 216.428H512.447V217.26H512.248C511.995 217.224 511.036 217.206 509.371 217.206C507.73 217.206 506.783 217.224 506.529 217.26H506.312V216.428H506.783C507.048 216.428 507.277 216.428 507.47 216.428C507.663 216.428 507.814 216.422 507.923 216.409C508.031 216.397 508.128 216.379 508.212 216.355C508.297 216.331 508.345 216.319 508.357 216.319C508.369 216.319 508.405 216.289 508.466 216.228C508.526 216.168 508.562 216.144 508.574 216.156V206.799Z" fill="#FFF888"/>
<path d="M524.827 154.529V153.009H531.108V185.569H529.587V154.529H524.827Z" fill="#FFF888"/>
<path d="M529.587 220.265V189.225H531.108V221.785H524.827V220.265H529.587Z" fill="#FFF888"/>
<g clip-path="url(#clip5_1128_28464)">
<path d="M529.587 192.854V181.936H531.108V192.854H529.587Z" fill="#FFF888"/>
</g>
</g>
<path d="M419.654 94.0878H381.293V175.116H419.654V94.0878Z" fill="black"/>
<g clip-path="url(#clip6_1128_28464)">
<path d="M383.768 129.648V97.0878H390.049V98.6081H385.289V129.648H383.768Z" fill="#D582FF"/>
<path d="M383.768 165.864V133.304H385.289V164.344H390.049V165.864H383.768Z" fill="#D582FF"/>
<g clip-path="url(#clip7_1128_28464)">
<path d="M383.768 136.933V126.015H385.289V136.933H383.768Z" fill="#D582FF"/>
</g>
<path d="M396.057 102.898C395.732 102.898 395.472 102.789 395.279 102.572C395.086 102.355 394.99 102.089 394.99 101.775C394.99 100.919 395.309 100.177 395.949 99.5492C396.588 98.9218 397.385 98.6081 398.338 98.6081C399.436 98.6081 400.353 98.9459 401.089 99.6216C401.825 100.297 402.199 101.172 402.211 102.246C402.211 102.765 402.09 103.26 401.849 103.73C401.608 104.201 401.318 104.611 400.98 104.961C400.642 105.311 400.16 105.757 399.532 106.3C399.098 106.674 398.495 107.229 397.722 107.965L396.655 108.979L398.03 108.997C399.924 108.997 400.932 108.967 401.053 108.906C401.137 108.882 401.282 108.345 401.487 107.296V107.241H402.211V107.296C402.199 107.332 402.12 107.881 401.976 108.943C401.831 110.004 401.74 110.559 401.704 110.608V110.662H394.99V110.318V110.101C394.99 110.016 395.026 109.926 395.098 109.829C395.17 109.733 395.351 109.522 395.641 109.196C395.991 108.81 396.293 108.472 396.546 108.182C396.655 108.062 396.86 107.839 397.161 107.513C397.463 107.187 397.668 106.964 397.777 106.843C397.885 106.722 398.06 106.523 398.302 106.246C398.543 105.968 398.712 105.763 398.808 105.63C398.905 105.498 399.044 105.317 399.225 105.088C399.406 104.858 399.532 104.665 399.605 104.508C399.677 104.351 399.768 104.177 399.876 103.983C399.985 103.79 400.063 103.597 400.112 103.404C400.16 103.211 400.202 103.03 400.238 102.861C400.274 102.692 400.292 102.493 400.292 102.264C400.292 101.504 400.087 100.846 399.677 100.291C399.267 99.7363 398.682 99.4587 397.922 99.4587C397.523 99.4587 397.173 99.5613 396.872 99.7664C396.57 99.9715 396.359 100.171 396.238 100.364C396.118 100.557 396.057 100.671 396.057 100.708C396.057 100.72 396.088 100.726 396.148 100.726C396.365 100.726 396.588 100.81 396.817 100.979C397.047 101.148 397.161 101.425 397.161 101.812C397.161 102.113 397.065 102.367 396.872 102.572C396.679 102.777 396.407 102.885 396.057 102.898Z" fill="#D582FF"/>
<path d="M396.383 127.621C396.057 127.621 395.804 127.518 395.623 127.313C395.442 127.108 395.345 126.842 395.333 126.517C395.333 125.853 395.623 125.262 396.202 124.743C396.781 124.224 397.481 123.965 398.302 123.965C398.724 123.965 398.989 123.971 399.098 123.983C399.991 124.128 400.673 124.447 401.143 124.942C401.614 125.437 401.855 125.974 401.867 126.553C401.867 127.18 401.662 127.79 401.252 128.381C400.842 128.972 400.274 129.4 399.55 129.666L399.496 129.702C399.496 129.714 399.55 129.732 399.659 129.756C399.768 129.781 399.943 129.835 400.184 129.919C400.425 130.004 400.654 130.13 400.872 130.299C401.861 130.939 402.356 131.784 402.356 132.833C402.356 133.786 401.982 134.619 401.234 135.331C400.486 136.043 399.538 136.399 398.392 136.399C397.427 136.399 396.594 136.139 395.894 135.62C395.195 135.102 394.845 134.444 394.845 133.648C394.845 133.31 394.953 133.038 395.171 132.833C395.388 132.628 395.659 132.52 395.985 132.507C396.323 132.507 396.6 132.616 396.818 132.833C397.035 133.05 397.143 133.322 397.143 133.648C397.143 133.78 397.125 133.901 397.089 134.01C397.053 134.118 397.011 134.215 396.962 134.299C396.914 134.384 396.848 134.456 396.763 134.516C396.679 134.577 396.606 134.625 396.546 134.661C396.486 134.697 396.425 134.722 396.365 134.734C396.305 134.746 396.256 134.764 396.22 134.788L396.148 134.806C396.763 135.349 397.511 135.62 398.392 135.62C399.056 135.62 399.556 135.301 399.894 134.661C400.099 134.263 400.202 133.654 400.202 132.833V132.471C400.202 131.325 399.816 130.559 399.044 130.173C398.863 130.1 398.495 130.058 397.94 130.046L397.179 130.028L397.125 129.992C397.101 129.956 397.089 129.859 397.089 129.702C397.089 129.485 397.137 129.376 397.234 129.376C397.572 129.376 397.922 129.346 398.284 129.286C398.694 129.226 399.068 128.972 399.406 128.526C399.744 128.079 399.912 127.404 399.912 126.499V126.354C399.912 125.666 399.701 125.189 399.279 124.924C399.014 124.755 398.73 124.671 398.428 124.671C398.042 124.671 397.686 124.737 397.36 124.87C397.035 125.002 396.805 125.141 396.673 125.286C396.54 125.431 396.474 125.503 396.474 125.503H396.528C396.564 125.515 396.612 125.527 396.673 125.539C396.733 125.551 396.793 125.582 396.854 125.63C396.914 125.678 396.986 125.72 397.071 125.757C397.155 125.793 397.216 125.859 397.252 125.956C397.288 126.052 397.336 126.143 397.397 126.227C397.457 126.312 397.475 126.432 397.451 126.589C397.451 126.855 397.367 127.09 397.198 127.295C397.029 127.5 396.757 127.609 396.383 127.621Z" fill="#D582FF"/>
<path d="M396.383 152.959C396.057 152.959 395.804 152.857 395.623 152.652C395.442 152.446 395.345 152.181 395.333 151.855C395.333 151.192 395.623 150.6 396.202 150.082C396.781 149.563 397.481 149.303 398.302 149.303C398.724 149.303 398.989 149.309 399.098 149.321C399.991 149.466 400.673 149.786 401.143 150.281C401.614 150.775 401.855 151.312 401.867 151.891C401.867 152.519 401.662 153.128 401.252 153.719C400.842 154.311 400.274 154.739 399.55 155.004L399.496 155.041C399.496 155.053 399.55 155.071 399.659 155.095C399.768 155.119 399.943 155.173 400.184 155.258C400.425 155.342 400.654 155.469 400.872 155.638C401.861 156.277 402.356 157.122 402.356 158.172C402.356 159.125 401.982 159.958 401.234 160.669C400.486 161.381 399.538 161.737 398.392 161.737C397.427 161.737 396.594 161.478 395.894 160.959C395.195 160.44 394.845 159.783 394.845 158.986C394.845 158.648 394.953 158.377 395.171 158.172C395.388 157.967 395.659 157.858 395.985 157.846C396.323 157.846 396.6 157.955 396.818 158.172C397.035 158.389 397.143 158.66 397.143 158.986C397.143 159.119 397.125 159.24 397.089 159.348C397.053 159.457 397.011 159.553 396.962 159.638C396.914 159.722 396.848 159.795 396.763 159.855C396.679 159.915 396.606 159.964 396.546 160C396.486 160.036 396.425 160.06 396.365 160.072C396.305 160.084 396.256 160.102 396.22 160.126L396.148 160.145C396.763 160.688 397.511 160.959 398.392 160.959C399.056 160.959 399.556 160.639 399.894 160C400.099 159.602 400.202 158.992 400.202 158.172V157.81C400.202 156.664 399.816 155.897 399.044 155.511C398.863 155.439 398.495 155.397 397.94 155.385L397.179 155.366L397.125 155.33C397.101 155.294 397.089 155.197 397.089 155.041C397.089 154.823 397.137 154.715 397.234 154.715C397.572 154.715 397.922 154.685 398.284 154.624C398.694 154.564 399.068 154.311 399.406 153.864C399.744 153.418 399.912 152.742 399.912 151.837V151.692C399.912 151.005 399.701 150.528 399.279 150.263C399.014 150.094 398.73 150.009 398.428 150.009C398.042 150.009 397.686 150.075 397.36 150.208C397.035 150.341 396.805 150.48 396.673 150.624C396.54 150.769 396.474 150.842 396.474 150.842H396.528C396.564 150.854 396.612 150.866 396.673 150.878C396.733 150.89 396.793 150.92 396.854 150.968C396.914 151.017 396.986 151.059 397.071 151.095C397.155 151.131 397.216 151.198 397.252 151.294C397.288 151.391 397.336 151.481 397.397 151.566C397.457 151.65 397.475 151.771 397.451 151.928C397.451 152.193 397.367 152.428 397.198 152.633C397.029 152.839 396.757 152.947 396.383 152.959Z" fill="#D582FF"/>
<path d="M407.152 98.6081V97.0878H413.432V129.648H411.912V98.6081H407.152Z" fill="#D582FF"/>
<path d="M411.912 164.344V133.304H413.432V165.864H407.152V164.344H411.912Z" fill="#D582FF"/>
<g clip-path="url(#clip8_1128_28464)">
<path d="M411.912 136.933V126.015H413.432V136.933H411.912Z" fill="#D582FF"/>
</g>
</g>
<path d="M537.278 119.762H485.059V143.077H537.278V119.762Z" fill="black"/>
<g clip-path="url(#clip9_1128_28464)">
<path d="M493.58 135.123C493.327 135.086 492.434 135.068 490.902 135.068C489.369 135.068 488.477 135.086 488.223 135.123H488.024V134.29H488.422C489.014 134.29 489.394 134.272 489.563 134.236C489.731 134.2 489.852 134.133 489.924 134.037C489.949 134 489.961 132.299 489.961 128.933C489.961 125.579 489.949 123.884 489.924 123.847C489.876 123.787 489.828 123.745 489.78 123.721C489.731 123.697 489.599 123.666 489.382 123.63C489.164 123.594 488.845 123.582 488.422 123.594H488.024V122.762H488.223C488.477 122.798 489.369 122.816 490.902 122.816C492.434 122.816 493.327 122.798 493.58 122.762H493.779V123.594H493.381C492.79 123.594 492.41 123.612 492.241 123.648C492.072 123.685 491.951 123.751 491.879 123.847C491.855 123.884 491.843 125.579 491.843 128.933C491.843 132.299 491.855 134 491.879 134.037C491.927 134.097 491.976 134.139 492.024 134.163C492.072 134.187 492.205 134.218 492.422 134.254C492.639 134.29 492.959 134.302 493.381 134.29H493.779V135.123H493.58Z" fill="#F0F0F0"/>
<path d="M494.92 134.29H495.173C495.643 134.29 495.927 134.206 496.024 134.037V133.892C496.024 133.783 496.024 133.645 496.024 133.476C496.024 133.307 496.024 133.12 496.024 132.915C496.024 132.709 496.03 132.474 496.042 132.209C496.054 131.943 496.054 131.69 496.042 131.449C496.042 131.075 496.042 130.676 496.042 130.254C496.042 129.832 496.036 129.476 496.024 129.186V128.77C495.987 128.541 495.903 128.39 495.77 128.318C495.637 128.245 495.366 128.191 494.956 128.155H494.63V127.739C494.63 127.461 494.642 127.322 494.666 127.322L494.847 127.304C494.968 127.292 495.137 127.28 495.354 127.268C495.571 127.256 495.794 127.244 496.024 127.232C496.229 127.22 496.446 127.208 496.675 127.196C496.904 127.184 497.079 127.165 497.2 127.141C497.321 127.117 497.387 127.111 497.399 127.123H497.453V127.847C497.453 128.306 497.459 128.535 497.471 128.535C497.483 128.535 497.514 128.505 497.562 128.444C497.61 128.384 497.683 128.294 497.779 128.173C497.876 128.052 497.99 127.944 498.123 127.847C498.256 127.751 498.431 127.636 498.648 127.503C498.865 127.371 499.094 127.274 499.336 127.214C499.577 127.153 499.884 127.123 500.259 127.123C501.634 127.171 502.4 127.853 502.557 129.168C502.569 129.253 502.575 130.091 502.575 131.684V133.24C502.575 133.699 502.587 133.97 502.611 134.055C502.635 134.139 502.702 134.2 502.81 134.236C503.064 134.272 503.359 134.29 503.697 134.29H503.987V135.123H503.842L503.408 135.104C503.13 135.092 502.828 135.086 502.503 135.086C502.177 135.086 501.948 135.08 501.815 135.068C500.572 135.068 499.897 135.086 499.788 135.123H499.643V134.29H499.933C500.669 134.29 501.037 134.194 501.037 134C501.049 133.976 501.055 133.144 501.055 131.503C501.043 129.874 501.031 129.011 501.019 128.915C500.946 128.577 500.826 128.324 500.657 128.155C500.488 127.986 500.343 127.883 500.222 127.847C500.102 127.811 499.945 127.799 499.752 127.811C499.209 127.811 498.732 128.016 498.322 128.426C497.996 128.752 497.791 129.084 497.707 129.422C497.622 129.759 497.574 130.26 497.562 130.924V132.082V133.168C497.562 133.53 497.568 133.771 497.58 133.892C497.592 134.013 497.61 134.091 497.634 134.127C497.658 134.163 497.713 134.2 497.797 134.236C498.051 134.272 498.346 134.29 498.684 134.29H498.974V135.123H498.829L498.412 135.104C498.123 135.092 497.815 135.086 497.489 135.086C497.164 135.086 496.934 135.08 496.802 135.068C495.559 135.068 494.883 135.086 494.775 135.123H494.63V134.29H494.92Z" fill="#F0F0F0"/>
<path d="M504.892 137.801H505.145C505.616 137.801 505.899 137.717 505.996 137.548V137.403C505.996 137.318 505.996 137.204 505.996 137.059C505.996 136.914 505.996 136.733 505.996 136.516C505.996 136.299 506.002 136.064 506.014 135.81C506.026 135.557 506.026 135.291 506.014 135.014C506.002 134.736 506.002 134.441 506.014 134.127C506.026 133.813 506.026 133.506 506.014 133.204C506.014 132.794 506.014 132.366 506.014 131.919C506.014 131.473 506.014 131.075 506.014 130.725C506.014 130.375 506.014 130.055 506.014 129.766C506.014 129.476 506.008 129.241 505.996 129.06C505.984 128.879 505.984 128.782 505.996 128.77C505.959 128.541 505.875 128.39 505.742 128.318C505.61 128.245 505.338 128.191 504.928 128.155H504.602V127.739C504.602 127.461 504.614 127.322 504.638 127.322L504.819 127.304C504.94 127.292 505.115 127.28 505.344 127.268C505.573 127.256 505.797 127.244 506.014 127.232C506.219 127.22 506.442 127.208 506.683 127.196C506.925 127.184 507.106 127.165 507.226 127.141C507.347 127.117 507.413 127.111 507.425 127.123H507.48V127.594L507.498 128.064L507.643 127.938C508.354 127.407 509.187 127.141 510.14 127.141C511.117 127.141 511.95 127.527 512.638 128.3C513.325 129.072 513.675 130.043 513.687 131.213C513.687 132.432 513.295 133.421 512.511 134.181C511.727 134.942 510.84 135.322 509.85 135.322C509.03 135.322 508.306 135.056 507.679 134.525L507.534 134.399V135.937V136.95C507.534 137.276 507.546 137.475 507.57 137.548C507.594 137.62 507.661 137.686 507.769 137.747C508.023 137.783 508.318 137.801 508.656 137.801H508.946V138.634H508.801L508.366 138.616C508.089 138.603 507.787 138.597 507.462 138.597C507.136 138.597 506.907 138.591 506.774 138.579C505.531 138.579 504.855 138.597 504.747 138.634H504.602V137.801H504.892ZM511.914 131.177C511.914 130.284 511.709 129.506 511.298 128.843C510.888 128.179 510.375 127.847 509.76 127.847C508.903 127.847 508.161 128.239 507.534 129.024V133.349C508.017 134.218 508.692 134.652 509.561 134.652C510.176 134.652 510.719 134.326 511.19 133.675C511.66 133.023 511.902 132.191 511.914 131.177Z" fill="#F0F0F0"/>
<path d="M521.234 134.073C520.558 134.893 519.792 135.304 518.936 135.304H518.809C517.301 135.304 516.432 134.706 516.203 133.512C516.191 133.427 516.179 132.601 516.167 131.032C516.155 129.717 516.149 128.981 516.149 128.824C516.149 128.668 516.112 128.541 516.04 128.444C515.919 128.251 515.557 128.155 514.954 128.155H514.755V127.739C514.755 127.461 514.767 127.322 514.791 127.322L514.99 127.304C515.111 127.292 515.286 127.28 515.515 127.268C515.744 127.256 515.974 127.244 516.203 127.232C516.408 127.22 516.631 127.208 516.872 127.196C517.114 127.184 517.295 127.165 517.415 127.141C517.536 127.117 517.608 127.111 517.633 127.123H517.687V130.399C517.699 132.619 517.717 133.807 517.741 133.964C517.777 134.145 517.862 134.29 517.995 134.399C518.236 134.568 518.598 134.652 519.08 134.652C519.394 134.652 519.678 134.598 519.931 134.489C520.184 134.381 520.377 134.242 520.51 134.073C520.643 133.904 520.764 133.711 520.872 133.494C520.981 133.277 521.053 133.096 521.089 132.951C521.126 132.806 521.15 132.661 521.162 132.516C521.162 132.504 521.162 132.402 521.162 132.209C521.162 132.016 521.168 131.774 521.18 131.485C521.192 131.195 521.192 130.912 521.18 130.634V129.422C521.18 128.867 521.119 128.523 520.999 128.39C520.878 128.257 520.577 128.179 520.094 128.155H519.768V127.322C519.792 127.322 520.251 127.292 521.144 127.232C522.036 127.171 522.513 127.135 522.573 127.123H522.7V130.345C522.7 132.516 522.706 133.62 522.718 133.657C522.754 133.898 522.839 134.055 522.972 134.127C523.104 134.2 523.376 134.254 523.786 134.29H524.112V135.123C524.088 135.123 523.635 135.153 522.754 135.213C521.874 135.273 521.409 135.31 521.361 135.322H521.234V134.073Z" fill="#F0F0F0"/>
<path d="M524.854 127.485C525.493 127.437 525.988 127.099 526.338 126.472C526.688 125.844 526.881 125.108 526.917 124.264V123.992H527.641V127.322H530.084V128.155H527.641V130.761C527.653 132.269 527.659 133.12 527.659 133.313C527.659 133.506 527.701 133.699 527.786 133.892C527.954 134.362 528.25 134.598 528.672 134.598C529.203 134.598 529.529 134.169 529.65 133.313C529.662 133.216 529.668 132.939 529.668 132.48V131.847H530.392V132.48V132.697C530.392 133.627 530.138 134.332 529.632 134.815C529.306 135.141 528.884 135.304 528.365 135.304C527.954 135.304 527.599 135.231 527.297 135.086C526.995 134.942 526.766 134.755 526.609 134.525C526.452 134.296 526.338 134.085 526.265 133.892C526.193 133.699 526.151 133.506 526.139 133.313C526.127 133.228 526.121 132.336 526.121 130.634V128.155H524.691V127.485H524.854Z" fill="#F0F0F0"/>
</g>
<path d="M434.207 64.3807H366.762V88.1311H434.207V64.3807Z" fill="black"/>
<g clip-path="url(#clip10_1128_28464)">
<path d="M369.67 73.9868C369.67 72.9853 369.851 72.0562 370.213 71.1995C370.575 70.3428 371.045 69.643 371.624 69.1C372.203 68.5571 372.843 68.1347 373.543 67.8331C374.243 67.5314 374.955 67.3806 375.679 67.3806C377.283 67.3806 378.689 68.008 379.896 69.2629C381.102 70.5178 381.712 72.0864 381.724 73.9687C381.724 74.9461 381.549 75.8511 381.199 76.6836C380.849 77.5162 380.39 78.216 379.823 78.7831C379.256 79.3502 378.611 79.7786 377.887 80.0682C377.163 80.3578 376.427 80.5146 375.679 80.5388C374.93 80.5629 374.2 80.4121 373.488 80.0863C372.777 79.7605 372.131 79.3321 371.552 78.8012C370.973 78.2703 370.52 77.5765 370.194 76.7198C369.869 75.8631 369.694 74.9521 369.67 73.9868ZM377.108 68.4304C376.614 68.2132 376.137 68.1046 375.679 68.1046C375.341 68.1046 374.997 68.1709 374.647 68.3037C374.297 68.4364 373.923 68.6415 373.525 68.919C373.127 69.1966 372.789 69.6249 372.511 70.2041C372.234 70.7833 372.028 71.4469 371.896 72.195C371.835 72.5329 371.805 73.0457 371.805 73.7334C371.805 76.2673 372.427 78.035 373.669 79.0365C374.273 79.5312 374.924 79.7786 375.624 79.7786H375.697H375.733C376.734 79.7786 377.615 79.302 378.375 78.3488C379.172 77.2749 379.57 75.7364 379.57 73.7334C379.57 73.0457 379.54 72.5329 379.479 72.195C379.226 70.3489 378.436 69.094 377.108 68.4304Z" fill="#F0F0F0"/>
<path d="M389.669 79.0909C388.994 79.9114 388.227 80.3216 387.371 80.3216H387.244C385.736 80.3216 384.867 79.7243 384.638 78.5298C384.626 78.4453 384.614 77.6188 384.601 76.0502C384.589 74.735 384.583 73.9989 384.583 73.8421C384.583 73.6852 384.547 73.5585 384.475 73.462C384.354 73.2689 383.992 73.1724 383.389 73.1724H383.19V72.7561C383.19 72.4786 383.202 72.3399 383.226 72.3399L383.425 72.3218C383.546 72.3097 383.721 72.2976 383.95 72.2856C384.179 72.2735 384.408 72.2614 384.638 72.2494C384.843 72.2373 385.066 72.2252 385.307 72.2132C385.549 72.2011 385.73 72.183 385.85 72.1589C385.971 72.1347 386.043 72.1287 386.067 72.1408H386.122V75.4167C386.134 77.6369 386.152 78.8254 386.176 78.9823C386.212 79.1633 386.297 79.3081 386.429 79.4167C386.671 79.5856 387.033 79.67 387.515 79.67C387.829 79.67 388.113 79.6158 388.366 79.5072C388.619 79.3986 388.813 79.2598 388.945 79.0909C389.078 78.9219 389.199 78.7289 389.307 78.5117C389.416 78.2945 389.488 78.1135 389.524 77.9687C389.561 77.8239 389.585 77.6791 389.597 77.5343C389.597 77.5223 389.597 77.4197 389.597 77.2266C389.597 77.0336 389.603 76.7923 389.615 76.5027C389.627 76.2131 389.627 75.9295 389.615 75.652V74.4394C389.615 73.8843 389.555 73.5404 389.434 73.4077C389.313 73.275 389.012 73.1965 388.529 73.1724H388.203V72.3399C388.227 72.3399 388.686 72.3097 389.579 72.2494C390.472 72.189 390.948 72.1528 391.009 72.1408H391.135V75.3624C391.135 77.5343 391.141 78.6384 391.153 78.6746C391.19 78.9159 391.274 79.0728 391.407 79.1452C391.539 79.2176 391.811 79.2719 392.221 79.3081H392.547V80.1406C392.523 80.1406 392.07 80.1708 391.19 80.2311C390.309 80.2915 389.844 80.3277 389.796 80.3397H389.669V79.0909Z" fill="#F0F0F0"/>
<path d="M393.289 72.5027C393.929 72.4545 394.423 72.1166 394.773 71.4892C395.123 70.8617 395.316 70.1257 395.352 69.281V69.0096H396.076V72.3398H398.52V73.1724H396.076V75.7787C396.088 77.287 396.094 78.1376 396.094 78.3307C396.094 78.5237 396.137 78.7168 396.221 78.9099C396.39 79.3804 396.686 79.6157 397.108 79.6157C397.639 79.6157 397.965 79.1874 398.085 78.3307C398.097 78.2341 398.104 77.9566 398.104 77.4981V76.8646H398.827V77.4981V77.7153C398.827 78.6444 398.574 79.3503 398.067 79.8329C397.742 80.1587 397.319 80.3216 396.8 80.3216C396.39 80.3216 396.034 80.2492 395.733 80.1044C395.431 79.9596 395.202 79.7726 395.045 79.5433C394.888 79.3141 394.773 79.1029 394.701 78.9099C394.628 78.7168 394.586 78.5237 394.574 78.3307C394.562 78.2462 394.556 77.3533 394.556 75.652V73.1724H393.126V72.5027H393.289Z" fill="#F0F0F0"/>
<path d="M400.493 82.8193H400.746C401.217 82.8193 401.5 82.7348 401.597 82.5659V82.4211C401.597 82.3366 401.597 82.222 401.597 82.0772C401.597 81.9324 401.597 81.7514 401.597 81.5342C401.597 81.3171 401.603 81.0818 401.615 80.8284C401.627 80.575 401.627 80.3095 401.615 80.032C401.603 79.7545 401.603 79.4589 401.615 79.1451C401.627 78.8314 401.627 78.5237 401.615 78.2221C401.615 77.8118 401.615 77.3835 401.615 76.937C401.615 76.4906 401.615 76.0924 401.615 75.7425C401.615 75.3926 401.615 75.0728 401.615 74.7832C401.615 74.4936 401.609 74.2583 401.597 74.0773C401.585 73.8964 401.585 73.7998 401.597 73.7878C401.56 73.5585 401.476 73.4077 401.343 73.3353C401.211 73.2629 400.939 73.2086 400.529 73.1724H400.203V72.7561C400.203 72.4786 400.215 72.3398 400.239 72.3398L400.42 72.3217C400.541 72.3097 400.716 72.2976 400.945 72.2855C401.174 72.2735 401.398 72.2614 401.615 72.2493C401.82 72.2373 402.043 72.2252 402.284 72.2131C402.526 72.2011 402.707 72.183 402.827 72.1588C402.948 72.1347 403.014 72.1287 403.026 72.1407H403.081V72.6113L403.099 73.0819L403.244 72.9552C403.956 72.4243 404.788 72.1588 405.741 72.1588C406.719 72.1588 407.551 72.5449 408.239 73.3172C408.927 74.0894 409.277 75.0607 409.289 76.2312C409.289 77.4498 408.897 78.4393 408.112 79.1994C407.328 79.9596 406.441 80.3397 405.452 80.3397C404.631 80.3397 403.907 80.0742 403.28 79.5433L403.135 79.4166V80.9551V81.9686C403.135 82.2944 403.147 82.4935 403.171 82.5659C403.195 82.6383 403.262 82.7047 403.37 82.765C403.624 82.8012 403.919 82.8193 404.257 82.8193H404.547V83.6519H404.402L403.968 83.6338C403.69 83.6217 403.388 83.6157 403.063 83.6157C402.737 83.6157 402.508 83.6096 402.375 83.5976C401.132 83.5976 400.456 83.6157 400.348 83.6519H400.203V82.8193H400.493ZM407.515 76.195C407.515 75.3021 407.31 74.5238 406.9 73.8602C406.489 73.1965 405.977 72.8647 405.361 72.8647C404.505 72.8647 403.763 73.2568 403.135 74.0412V78.3669C403.618 79.2356 404.293 79.67 405.162 79.67C405.778 79.67 406.321 79.3442 406.791 78.6927C407.262 78.0411 407.503 77.2085 407.515 76.195Z" fill="#F0F0F0"/>
<path d="M416.836 79.0909C416.161 79.9114 415.394 80.3216 414.538 80.3216H414.411C412.903 80.3216 412.034 79.7243 411.805 78.5298C411.793 78.4453 411.78 77.6188 411.768 76.0502C411.756 74.735 411.75 73.9989 411.75 73.8421C411.75 73.6852 411.714 73.5585 411.642 73.462C411.521 73.2689 411.159 73.1724 410.556 73.1724H410.357V72.7561C410.357 72.4786 410.369 72.3399 410.393 72.3399L410.592 72.3218C410.713 72.3097 410.888 72.2976 411.117 72.2856C411.346 72.2735 411.575 72.2614 411.805 72.2494C412.01 72.2373 412.233 72.2252 412.474 72.2132C412.716 72.2011 412.897 72.183 413.017 72.1589C413.138 72.1347 413.21 72.1287 413.234 72.1408H413.289V75.4167C413.301 77.6369 413.319 78.8254 413.343 78.9823C413.379 79.1633 413.464 79.3081 413.596 79.4167C413.838 79.5856 414.2 79.67 414.682 79.67C414.996 79.67 415.28 79.6158 415.533 79.5072C415.786 79.3986 415.98 79.2598 416.112 79.0909C416.245 78.9219 416.366 78.7289 416.474 78.5117C416.583 78.2945 416.655 78.1135 416.691 77.9687C416.728 77.8239 416.752 77.6791 416.764 77.5343C416.764 77.5223 416.764 77.4197 416.764 77.2266C416.764 77.0336 416.77 76.7923 416.782 76.5027C416.794 76.2131 416.794 75.9295 416.782 75.652V74.4394C416.782 73.8843 416.722 73.5404 416.601 73.4077C416.48 73.275 416.179 73.1965 415.696 73.1724H415.37V72.3399C415.394 72.3399 415.853 72.3097 416.746 72.2494C417.639 72.189 418.115 72.1528 418.176 72.1408H418.302V75.3624C418.302 77.5343 418.308 78.6384 418.32 78.6746C418.357 78.9159 418.441 79.0728 418.574 79.1452C418.706 79.2176 418.978 79.2719 419.388 79.3081H419.714V80.1406C419.69 80.1406 419.237 80.1708 418.357 80.2311C417.476 80.2915 417.011 80.3277 416.963 80.3397H416.836V79.0909Z" fill="#F0F0F0"/>
<path d="M420.456 72.5027C421.096 72.4545 421.59 72.1166 421.94 71.4892C422.29 70.8617 422.483 70.1257 422.519 69.281V69.0096H423.243V72.3398H425.687V73.1724H423.243V75.7787C423.255 77.287 423.261 78.1376 423.261 78.3307C423.261 78.5237 423.304 78.7168 423.388 78.9099C423.557 79.3804 423.853 79.6157 424.275 79.6157C424.806 79.6157 425.132 79.1874 425.252 78.3307C425.264 78.2341 425.271 77.9566 425.271 77.4981V76.8646H425.994V77.4981V77.7153C425.994 78.6444 425.741 79.3503 425.234 79.8329C424.909 80.1587 424.486 80.3216 423.967 80.3216C423.557 80.3216 423.201 80.2492 422.9 80.1044C422.598 79.9596 422.369 79.7726 422.212 79.5433C422.055 79.3141 421.94 79.1029 421.868 78.9099C421.795 78.7168 421.753 78.5237 421.741 78.3307C421.729 78.2462 421.723 77.3533 421.723 75.652V73.1724H420.293V72.5027H420.456Z" fill="#F0F0F0"/>
</g>
<defs>
<clipPath id="clip0_1128_28464">
<rect width="10.352" height="8.2" fill="white" transform="translate(154.091 320.668)"/>
</clipPath>
<clipPath id="clip1_1128_28464">
<rect width="8.872" height="11.712" fill="white" transform="translate(481.467 300.768)"/>
</clipPath>
<clipPath id="clip2_1128_28464">
<rect width="8.416" height="8.2" fill="white" transform="translate(298.694 51.6234)"/>
</clipPath>
<clipPath id="clip3_1128_28464">
<rect width="55.312" height="68.776" fill="white" transform="translate(481.588 153.009)"/>
</clipPath>
<clipPath id="clip4_1128_28464">
<rect width="12.072" height="7.27578" fill="white" transform="matrix(1 0 0 -1 481.589 191.035)"/>
</clipPath>
<clipPath id="clip5_1128_28464">
<rect width="12.072" height="7.27578" fill="white" transform="matrix(1 0 0 -1 524.827 191.035)"/>
</clipPath>
<clipPath id="clip6_1128_28464">
<rect width="41.232" height="68.776" fill="white" transform="translate(377.993 97.0878)"/>
</clipPath>
<clipPath id="clip7_1128_28464">
<rect width="12.072" height="7.27578" fill="white" transform="matrix(1 0 0 -1 377.995 135.114)"/>
</clipPath>
<clipPath id="clip8_1128_28464">
<rect width="12.072" height="7.27578" fill="white" transform="matrix(1 0 0 -1 407.152 135.114)"/>
</clipPath>
<clipPath id="clip9_1128_28464">
<rect width="43.768" height="15.872" fill="white" transform="translate(487.641 122.762)"/>
</clipPath>
<clipPath id="clip10_1128_28464">
<rect width="58.352" height="16.272" fill="white" transform="translate(368.656 67.3802)"/>
</clipPath>
</defs>
</svg>
