<svg width="480" height="270" viewBox="0 0 480 270" fill="none" xmlns="http://www.w3.org/2000/svg">
<g clip-path="url(#clip0_1600_28320)">
<path d="M480 0H0V270H480V0Z" fill="black"/>
<path d="M263.774 123.044H217.49V148.788H263.774V123.044Z" fill="black"/>
<g clip-path="url(#clip1_1600_28320)">
<path d="M225.346 129.262C224.899 129.262 224.663 129.236 224.637 129.183C224.624 129.157 224.617 129.105 224.617 129.026C224.617 128.711 224.689 128.495 224.834 128.376C224.86 128.363 224.958 128.357 225.129 128.357C225.838 128.396 226.671 128.416 227.629 128.416C229.479 128.416 230.542 128.396 230.817 128.357H231.053C231.132 128.436 231.172 128.495 231.172 128.534C231.172 128.573 231.158 128.691 231.132 128.888C231.067 129.085 231.008 129.21 230.955 129.262H230.207C229.302 129.275 228.77 129.334 228.613 129.439C228.521 129.492 228.429 129.676 228.337 129.99C228.245 130.305 227.806 132.037 227.019 135.187C226.809 136.039 226.586 136.945 226.349 137.903C226.113 138.861 225.936 139.582 225.818 140.068L225.641 140.776C225.641 140.829 225.7 140.855 225.818 140.855C225.936 140.855 226.323 140.868 226.979 140.894H227.314C227.734 140.894 228.068 140.888 228.318 140.875C228.567 140.862 228.888 140.816 229.282 140.737C229.676 140.658 230.004 140.54 230.266 140.383C230.529 140.225 230.817 140.002 231.132 139.714C231.447 139.425 231.723 139.064 231.959 138.631C232.169 138.237 232.366 137.798 232.549 137.312C232.733 136.827 232.845 136.551 232.884 136.486C232.949 136.446 233.061 136.427 233.218 136.427H233.474C233.553 136.545 233.592 136.617 233.592 136.643C233.592 136.669 233.461 137.056 233.199 137.804C232.936 138.552 232.648 139.34 232.333 140.166C232.018 140.993 231.847 141.478 231.821 141.623C231.795 141.688 231.769 141.728 231.742 141.741C231.716 141.754 231.611 141.774 231.427 141.8C231.244 141.826 230.962 141.833 230.581 141.82C230.437 141.82 229.938 141.82 229.085 141.82C228.232 141.82 227.419 141.813 226.645 141.8H223.141C222.039 141.8 221.488 141.734 221.488 141.603C221.488 141.511 221.501 141.419 221.527 141.327C221.593 141.078 221.658 140.94 221.724 140.914C221.776 140.901 221.875 140.894 222.019 140.894H222.137C222.492 140.894 222.885 140.875 223.318 140.835C223.502 140.796 223.627 140.717 223.692 140.599C223.732 140.547 224.204 138.723 225.109 135.128C226.015 131.532 226.467 129.636 226.467 129.439C226.467 129.347 226.093 129.288 225.346 129.262Z" fill="#F0F0F0"/>
<path d="M236.112 136.879C236.112 135.974 236.177 135.114 236.309 134.301C236.44 133.487 236.591 132.785 236.761 132.195C236.932 131.604 237.175 131.027 237.49 130.463C237.805 129.899 238.054 129.459 238.238 129.144C238.421 128.829 238.697 128.488 239.064 128.121C239.432 127.753 239.648 127.53 239.714 127.451C239.779 127.373 239.943 127.235 240.206 127.038H240.462H240.54C240.724 127.038 240.816 127.097 240.816 127.215C240.816 127.255 240.704 127.392 240.481 127.629C240.258 127.865 239.989 128.212 239.674 128.672C239.359 129.131 239.038 129.695 238.71 130.364C238.382 131.034 238.106 131.939 237.883 133.081C237.66 134.222 237.549 135.488 237.549 136.879C237.549 138.27 237.66 139.53 237.883 140.658C238.106 141.787 238.375 142.699 238.69 143.394C239.005 144.09 239.327 144.654 239.655 145.087C239.983 145.52 240.258 145.868 240.481 146.13C240.704 146.392 240.816 146.53 240.816 146.543C240.816 146.661 240.717 146.72 240.521 146.72H240.462H240.206L239.655 146.248C238.421 145.133 237.522 143.742 236.958 142.075C236.394 140.409 236.112 138.677 236.112 136.879Z" fill="#F0F0F0"/>
<path d="M249.811 133.061C249.968 133.1 250.585 133.12 251.661 133.12C252.619 133.12 253.137 133.1 253.216 133.061H253.334V134.281H251.956L249.968 138.729C249.168 140.54 248.708 141.524 248.59 141.682C248.485 141.813 248.361 141.879 248.216 141.879C248.19 141.879 248.144 141.879 248.079 141.879C248.013 141.879 247.947 141.872 247.882 141.859H247.586C247.39 141.859 247.232 141.76 247.114 141.564C246.996 141.367 246.714 140.776 246.268 139.792C246.071 139.359 245.913 139.005 245.795 138.729L243.807 134.281H242.43V133.061H242.587C242.784 133.1 243.512 133.12 244.772 133.12C246.176 133.12 246.996 133.1 247.232 133.061H247.409V134.281H246.465L247.508 136.604C248.177 138.113 248.531 138.867 248.571 138.867C248.571 138.854 248.905 138.1 249.574 136.604C250.244 135.108 250.591 134.34 250.618 134.301C250.618 134.288 250.46 134.281 250.145 134.281H249.673V133.061H249.811Z" fill="#FFF888"/>
<path d="M250.391 127.491C250.391 127.386 250.424 127.294 250.489 127.215C250.555 127.136 250.653 127.097 250.785 127.097C250.876 127.097 250.955 127.13 251.021 127.196C251.086 127.248 251.152 127.373 251.218 127.569C251.349 128.055 251.618 128.429 252.025 128.691C252.169 128.783 252.241 128.901 252.241 129.046C252.241 129.164 252.221 129.242 252.182 129.282C252.143 129.321 252.051 129.38 251.907 129.459C251.342 129.748 250.85 130.161 250.43 130.699C250.404 130.725 250.371 130.765 250.332 130.817C250.293 130.87 250.26 130.909 250.234 130.935C250.207 130.961 250.174 130.975 250.135 130.975C250.096 130.975 250.05 130.981 249.997 130.994C249.905 130.994 249.82 130.961 249.741 130.896C249.663 130.83 249.617 130.732 249.604 130.601C249.604 130.351 249.912 129.964 250.529 129.439H247.163L243.797 129.42C243.627 129.302 243.542 129.177 243.542 129.046C243.542 128.954 243.627 128.823 243.797 128.652H250.863C250.548 128.153 250.391 127.766 250.391 127.491Z" fill="#FFF888"/>
<path d="M255.046 127.058L255.125 127.038C255.191 127.038 255.256 127.038 255.322 127.038H255.558L256.109 127.51C257.342 128.626 258.241 130.017 258.806 131.683C259.37 133.35 259.652 135.082 259.652 136.879C259.652 137.772 259.586 138.631 259.455 139.458C259.324 140.284 259.173 140.986 259.002 141.564C258.832 142.141 258.589 142.718 258.274 143.296C257.959 143.873 257.71 144.313 257.526 144.614C257.342 144.916 257.073 145.251 256.719 145.618C256.365 145.986 256.155 146.202 256.089 146.268C256.024 146.333 255.873 146.458 255.637 146.642C255.597 146.681 255.571 146.707 255.558 146.72H255.322C255.217 146.72 255.145 146.72 255.105 146.72C255.066 146.72 255.033 146.701 255.007 146.661C254.981 146.622 254.961 146.563 254.948 146.484C254.961 146.471 255.033 146.386 255.164 146.228C257.198 144.116 258.215 140.999 258.215 136.879C258.215 132.759 257.198 129.643 255.164 127.53C255.033 127.373 254.961 127.287 254.948 127.274C254.948 127.169 254.981 127.097 255.046 127.058Z" fill="#F0F0F0"/>
</g>
<path d="M178.16 93.4858H122.438V174.514H178.16V93.4858Z" fill="black"/>
<g clip-path="url(#clip2_1600_28320)">
<path d="M126.419 132.895V97.4858H133.249V99.1391H128.072V132.895H126.419Z" fill="#FFF888"/>
<path d="M126.419 172.28V136.871H128.072V170.626H133.249V172.28H126.419Z" fill="#FFF888"/>
<g clip-path="url(#clip3_1600_28320)">
<path d="M126.419 140.817V128.944H128.072V140.817H126.419Z" fill="#FFF888"/>
</g>
<path d="M147.44 103.804C147.086 103.804 146.804 103.686 146.594 103.45C146.384 103.213 146.279 102.925 146.279 102.584C146.279 101.652 146.627 100.845 147.322 100.163C148.017 99.4803 148.883 99.1391 149.92 99.1391C151.114 99.1391 152.111 99.5065 152.912 100.241C153.712 100.976 154.119 101.927 154.132 103.095C154.132 103.66 154.001 104.198 153.739 104.709C153.476 105.221 153.161 105.667 152.794 106.048C152.426 106.428 151.901 106.914 151.219 107.504C150.747 107.911 150.091 108.515 149.251 109.315L148.09 110.417L149.585 110.437C151.646 110.437 152.741 110.404 152.872 110.339C152.964 110.312 153.122 109.728 153.345 108.587V108.528H154.132V108.587C154.119 108.626 154.034 109.223 153.876 110.378C153.719 111.533 153.62 112.136 153.581 112.189V112.248H146.279V111.874V111.638C146.279 111.546 146.318 111.447 146.397 111.342C146.476 111.237 146.672 111.008 146.987 110.653C147.368 110.234 147.696 109.866 147.972 109.551C148.09 109.42 148.313 109.177 148.641 108.823C148.969 108.469 149.192 108.226 149.31 108.095C149.428 107.963 149.618 107.747 149.881 107.445C150.143 107.143 150.327 106.92 150.432 106.776C150.537 106.632 150.688 106.435 150.885 106.185C151.081 105.936 151.219 105.726 151.298 105.556C151.377 105.385 151.475 105.195 151.593 104.985C151.711 104.775 151.796 104.565 151.849 104.355C151.901 104.145 151.947 103.948 151.987 103.765C152.026 103.581 152.046 103.364 152.046 103.115C152.046 102.288 151.823 101.573 151.377 100.97C150.93 100.366 150.294 100.064 149.467 100.064C149.034 100.064 148.654 100.176 148.326 100.399C147.998 100.622 147.768 100.838 147.637 101.048C147.506 101.258 147.44 101.383 147.44 101.422C147.44 101.435 147.473 101.442 147.538 101.442C147.775 101.442 148.017 101.534 148.267 101.718C148.516 101.901 148.641 102.203 148.641 102.623C148.641 102.951 148.536 103.227 148.326 103.45C148.116 103.673 147.821 103.791 147.44 103.804Z" fill="#FFF888"/>
<path d="M146.121 133.643C146.121 131.504 146.653 129.811 147.716 128.565C148.778 127.318 149.959 126.695 151.259 126.695C152.164 126.695 152.813 126.931 153.207 127.403C153.601 127.876 153.798 128.401 153.798 128.978C153.798 129.306 153.706 129.568 153.522 129.765C153.338 129.962 153.082 130.06 152.754 130.06C152.453 130.06 152.203 129.969 152.006 129.785C151.81 129.601 151.711 129.345 151.711 129.017C151.711 128.44 152.02 128.092 152.636 127.974C152.348 127.685 151.941 127.521 151.416 127.482C150.484 127.482 149.717 127.876 149.113 128.663C148.496 129.529 148.188 130.854 148.188 132.639L148.208 132.718C148.273 132.639 148.326 132.554 148.365 132.462C148.903 131.674 149.605 131.281 150.471 131.281H150.55C151.154 131.281 151.685 131.405 152.144 131.655C152.459 131.838 152.774 132.101 153.089 132.442C153.404 132.783 153.66 133.157 153.857 133.564C154.132 134.207 154.27 134.909 154.27 135.67V136.024C154.27 136.326 154.237 136.608 154.172 136.871C154.027 137.645 153.607 138.399 152.912 139.134C152.216 139.869 151.337 140.236 150.274 140.236C149.907 140.236 149.553 140.184 149.212 140.079C148.87 139.974 148.503 139.777 148.109 139.488C147.716 139.2 147.381 138.813 147.105 138.327C146.83 137.842 146.594 137.205 146.397 136.418C146.2 135.631 146.108 134.706 146.121 133.643ZM150.353 131.989C149.959 131.989 149.618 132.101 149.33 132.324C149.041 132.547 148.818 132.842 148.66 133.21C148.503 133.577 148.391 133.951 148.326 134.332C148.26 134.712 148.221 135.119 148.208 135.552C148.208 136.641 148.286 137.422 148.444 137.894C148.601 138.367 148.851 138.747 149.192 139.036C149.507 139.272 149.854 139.39 150.235 139.39C150.904 139.39 151.416 139.141 151.77 138.642C151.941 138.406 152.059 138.111 152.125 137.756C152.19 137.402 152.223 136.713 152.223 135.69C152.223 134.64 152.19 133.938 152.125 133.584C152.059 133.229 151.941 132.934 151.77 132.698C151.416 132.226 150.944 131.989 150.353 131.989Z" fill="#FFF888"/>
<path d="M139.292 162.694C139.292 162.694 139.292 162.609 139.292 162.438C139.292 162.268 139.383 162.137 139.567 162.045H151.003C151.199 162.15 151.298 162.281 151.298 162.438C151.298 162.596 151.199 162.727 151.003 162.832H139.567C139.383 162.74 139.292 162.609 139.292 162.438V162.694Z" fill="#FFF888"/>
<path d="M157.144 155.982L156.888 156.081C156.704 156.147 156.442 156.212 156.101 156.278C155.759 156.343 155.379 156.389 154.959 156.416H154.585V155.51H154.959C155.576 155.484 156.146 155.385 156.671 155.215C157.196 155.044 157.564 154.887 157.774 154.742C157.983 154.598 158.167 154.454 158.325 154.309C158.351 154.27 158.43 154.25 158.561 154.25C158.679 154.25 158.79 154.29 158.895 154.369V160.254L158.915 166.158C159.007 166.25 159.086 166.309 159.151 166.336C159.217 166.362 159.374 166.388 159.624 166.414C159.873 166.441 160.28 166.454 160.844 166.454H161.356V167.359H161.139C160.864 167.32 159.821 167.3 158.01 167.3C156.225 167.3 155.195 167.32 154.92 167.359H154.683V166.454H155.195C155.484 166.454 155.733 166.454 155.943 166.454C156.153 166.454 156.317 166.447 156.435 166.434C156.553 166.421 156.658 166.401 156.75 166.375C156.842 166.349 156.894 166.336 156.908 166.336C156.921 166.336 156.96 166.303 157.026 166.237C157.091 166.172 157.131 166.145 157.144 166.158V155.982Z" fill="#FFF888"/>
<path d="M167.162 99.1391V97.4858H173.992V132.895H172.339V99.1391H167.162Z" fill="#FFF888"/>
<path d="M172.339 170.626V136.871H173.992V172.28H167.162V170.626H172.339Z" fill="#FFF888"/>
<g clip-path="url(#clip4_1600_28320)">
<path d="M172.339 140.817V128.944H173.992V140.817H172.339Z" fill="#FFF888"/>
</g>
</g>
<path d="M362.48 93.4858H322.119V174.514H362.48V93.4858Z" fill="black"/>
<g clip-path="url(#clip5_1600_28320)">
<path d="M326.1 132.895V97.4858H332.929V99.1391H327.753V132.895H326.1Z" fill="#D582FF"/>
<path d="M326.1 172.28V136.871H327.753V170.626H332.929V172.28H326.1Z" fill="#D582FF"/>
<g clip-path="url(#clip6_1600_28320)">
<path d="M326.1 140.817V128.944H327.753V140.817H326.1Z" fill="#D582FF"/>
</g>
<path d="M339.819 103.135C339.464 103.135 339.189 103.023 338.992 102.8C338.795 102.577 338.69 102.288 338.677 101.934C338.677 101.212 338.992 100.569 339.622 100.005C340.252 99.4409 341.013 99.1588 341.905 99.1588C342.364 99.1588 342.653 99.1654 342.771 99.1785C343.742 99.3359 344.483 99.6837 344.995 100.222C345.507 100.76 345.769 101.344 345.782 101.973C345.782 102.656 345.559 103.318 345.113 103.961C344.667 104.604 344.05 105.07 343.263 105.359L343.204 105.398C343.204 105.411 343.263 105.431 343.381 105.457C343.499 105.483 343.689 105.543 343.952 105.634C344.214 105.726 344.464 105.864 344.7 106.048C345.776 106.743 346.314 107.662 346.314 108.803C346.314 109.84 345.907 110.745 345.093 111.519C344.28 112.294 343.25 112.681 342.003 112.681C340.954 112.681 340.048 112.399 339.287 111.834C338.526 111.27 338.146 110.555 338.146 109.689C338.146 109.322 338.264 109.026 338.5 108.803C338.736 108.58 339.031 108.462 339.386 108.449C339.753 108.449 340.055 108.567 340.291 108.803C340.527 109.039 340.645 109.335 340.645 109.689C340.645 109.833 340.626 109.965 340.586 110.083C340.547 110.201 340.501 110.306 340.448 110.398C340.396 110.489 340.324 110.568 340.232 110.634C340.14 110.699 340.061 110.752 339.996 110.791C339.93 110.831 339.864 110.857 339.799 110.87C339.733 110.883 339.681 110.903 339.641 110.929L339.563 110.949C340.232 111.539 341.045 111.834 342.003 111.834C342.725 111.834 343.27 111.487 343.637 110.791C343.86 110.358 343.972 109.696 343.972 108.803V108.41C343.972 107.163 343.552 106.33 342.712 105.91C342.515 105.831 342.115 105.785 341.511 105.772L340.685 105.752L340.626 105.713C340.599 105.674 340.586 105.569 340.586 105.398C340.586 105.162 340.639 105.044 340.744 105.044C341.111 105.044 341.492 105.011 341.885 104.945C342.331 104.88 342.738 104.604 343.106 104.119C343.473 103.633 343.657 102.899 343.657 101.914V101.757C343.657 101.009 343.427 100.491 342.968 100.202C342.679 100.018 342.371 99.9264 342.043 99.9264C341.623 99.9264 341.236 99.9986 340.881 100.143C340.527 100.287 340.278 100.438 340.133 100.596C339.989 100.753 339.917 100.832 339.917 100.832H339.976C340.015 100.845 340.068 100.858 340.133 100.871C340.199 100.884 340.265 100.917 340.33 100.97C340.396 101.022 340.475 101.068 340.566 101.107C340.658 101.147 340.724 101.219 340.763 101.324C340.803 101.429 340.855 101.527 340.921 101.619C340.986 101.711 341.006 101.842 340.98 102.013C340.98 102.301 340.888 102.557 340.704 102.78C340.521 103.003 340.225 103.122 339.819 103.135Z" fill="#D582FF"/>
<path d="M339.464 131.36C339.11 131.36 338.828 131.241 338.618 131.005C338.408 130.769 338.303 130.48 338.303 130.139C338.303 129.208 338.65 128.401 339.346 127.718C340.041 127.036 340.907 126.695 341.944 126.695C343.138 126.695 344.135 127.062 344.936 127.797C345.736 128.532 346.143 129.483 346.156 130.651C346.156 131.215 346.025 131.753 345.762 132.265C345.5 132.777 345.185 133.223 344.818 133.603C344.45 133.984 343.925 134.469 343.243 135.06C342.771 135.467 342.115 136.07 341.275 136.871L340.114 137.973L341.609 137.993C343.67 137.993 344.765 137.96 344.896 137.894C344.988 137.868 345.146 137.284 345.369 136.142V136.083H346.156V136.142C346.143 136.182 346.058 136.779 345.9 137.934C345.743 139.088 345.644 139.692 345.605 139.744V139.803H338.303V139.429V139.193C338.303 139.101 338.342 139.003 338.421 138.898C338.5 138.793 338.696 138.563 339.011 138.209C339.392 137.789 339.72 137.422 339.995 137.107C340.114 136.976 340.337 136.733 340.665 136.379C340.993 136.024 341.216 135.782 341.334 135.65C341.452 135.519 341.642 135.303 341.905 135.001C342.167 134.699 342.351 134.476 342.456 134.332C342.561 134.187 342.712 133.99 342.908 133.741C343.105 133.492 343.243 133.282 343.322 133.111C343.401 132.941 343.499 132.75 343.617 132.541C343.735 132.331 343.82 132.121 343.873 131.911C343.925 131.701 343.971 131.504 344.011 131.32C344.05 131.136 344.07 130.92 344.07 130.671C344.07 129.844 343.847 129.129 343.401 128.525C342.954 127.922 342.318 127.62 341.491 127.62C341.058 127.62 340.678 127.731 340.35 127.954C340.022 128.178 339.792 128.394 339.661 128.604C339.53 128.814 339.464 128.939 339.464 128.978C339.464 128.991 339.497 128.998 339.562 128.998C339.799 128.998 340.041 129.089 340.291 129.273C340.54 129.457 340.665 129.759 340.665 130.179C340.665 130.507 340.56 130.782 340.35 131.005C340.14 131.228 339.845 131.346 339.464 131.36Z" fill="#D582FF"/>
<path d="M339.208 155.845C339.943 154.782 340.947 154.25 342.22 154.25C342.85 154.25 343.479 154.421 344.109 154.762C344.739 155.103 345.251 155.707 345.645 156.573C346.13 157.662 346.373 159.158 346.373 161.061C346.373 163.094 346.091 164.649 345.526 165.725C345.264 166.276 344.903 166.716 344.444 167.044C343.985 167.372 343.584 167.576 343.243 167.654C342.902 167.733 342.567 167.779 342.239 167.792C341.898 167.792 341.557 167.753 341.216 167.674C340.875 167.595 340.475 167.385 340.015 167.044C339.556 166.703 339.195 166.263 338.933 165.725C338.369 164.649 338.086 163.094 338.086 161.061C338.086 158.777 338.46 157.039 339.208 155.845ZM343.637 155.609C343.243 155.189 342.777 154.979 342.239 154.979C341.688 154.979 341.216 155.189 340.822 155.609C340.494 155.95 340.278 156.422 340.173 157.026C340.068 157.629 340.015 158.889 340.015 160.805C340.015 162.878 340.068 164.243 340.173 164.899C340.278 165.555 340.514 166.073 340.881 166.454C341.249 166.847 341.701 167.044 342.239 167.044C342.764 167.044 343.21 166.847 343.578 166.454C343.958 166.06 344.195 165.509 344.286 164.8C344.378 164.092 344.431 162.76 344.444 160.805C344.444 158.902 344.391 157.649 344.286 157.045C344.181 156.442 343.965 155.963 343.637 155.609Z" fill="#D582FF"/>
<path d="M351.529 99.1391V97.4858H358.359V132.895H356.706V99.1391H351.529Z" fill="#D582FF"/>
<path d="M356.706 170.626V136.871H358.359V172.28H351.529V170.626H356.706Z" fill="#D582FF"/>
<g clip-path="url(#clip7_1600_28320)">
<path d="M356.706 140.817V128.944H358.359V140.817H356.706Z" fill="#D582FF"/>
</g>
</g>
<path d="M177.528 186.857H123.309V210.171H177.528V186.857Z" fill="black"/>
<g clip-path="url(#clip8_1600_28320)">
<path d="M133.349 204.299C133.074 204.26 132.103 204.24 130.437 204.24C128.77 204.24 127.799 204.26 127.524 204.299H127.307V203.394H127.74C128.383 203.394 128.796 203.374 128.98 203.335C129.164 203.295 129.295 203.223 129.374 203.118C129.4 203.079 129.413 201.229 129.413 197.568C129.413 193.92 129.4 192.077 129.374 192.037C129.321 191.972 129.269 191.926 129.216 191.9C129.164 191.873 129.019 191.841 128.783 191.801C128.547 191.762 128.199 191.749 127.74 191.762H127.307V190.857H127.524C127.799 190.896 128.77 190.916 130.437 190.916C132.103 190.916 133.074 190.896 133.349 190.857H133.566V191.762H133.133C132.49 191.762 132.077 191.782 131.893 191.821C131.709 191.86 131.578 191.932 131.499 192.037C131.473 192.077 131.46 193.92 131.46 197.568C131.46 201.229 131.473 203.079 131.499 203.118C131.552 203.184 131.604 203.23 131.657 203.256C131.709 203.282 131.854 203.315 132.09 203.354C132.326 203.394 132.674 203.407 133.133 203.394H133.566V204.299H133.349Z" fill="#F0F0F0"/>
<path d="M134.806 203.394H135.081C135.593 203.394 135.901 203.302 136.006 203.118V202.961C136.006 202.843 136.006 202.692 136.006 202.508C136.006 202.324 136.006 202.121 136.006 201.898C136.006 201.675 136.013 201.419 136.026 201.13C136.039 200.842 136.039 200.566 136.026 200.304C136.026 199.897 136.026 199.464 136.026 199.005C136.026 198.546 136.019 198.158 136.006 197.844V197.391C135.967 197.142 135.875 196.978 135.731 196.899C135.586 196.82 135.291 196.761 134.845 196.722H134.491V196.269C134.491 195.967 134.504 195.816 134.53 195.816L134.727 195.797C134.858 195.784 135.042 195.77 135.278 195.757C135.514 195.744 135.757 195.731 136.006 195.718C136.229 195.705 136.465 195.692 136.715 195.679C136.964 195.665 137.154 195.646 137.286 195.62C137.417 195.593 137.489 195.587 137.502 195.6H137.561V196.387C137.561 196.886 137.568 197.135 137.581 197.135C137.594 197.135 137.627 197.102 137.679 197.037C137.732 196.971 137.81 196.873 137.915 196.741C138.02 196.61 138.145 196.492 138.289 196.387C138.434 196.282 138.624 196.157 138.86 196.013C139.096 195.869 139.346 195.764 139.608 195.698C139.87 195.633 140.205 195.6 140.612 195.6C142.108 195.652 142.941 196.394 143.111 197.824C143.124 197.916 143.131 198.828 143.131 200.56V202.252C143.131 202.751 143.144 203.046 143.17 203.138C143.197 203.23 143.269 203.295 143.387 203.335C143.662 203.374 143.984 203.394 144.351 203.394H144.666V204.299H144.509L144.036 204.279C143.735 204.266 143.407 204.26 143.052 204.26C142.698 204.26 142.449 204.253 142.304 204.24C140.953 204.24 140.218 204.26 140.1 204.299H139.943V203.394H140.257C141.058 203.394 141.458 203.289 141.458 203.079C141.471 203.053 141.478 202.147 141.478 200.363C141.465 198.591 141.451 197.653 141.438 197.548C141.36 197.181 141.228 196.905 141.045 196.722C140.861 196.538 140.704 196.426 140.572 196.387C140.441 196.348 140.271 196.335 140.061 196.348C139.47 196.348 138.952 196.571 138.506 197.017C138.152 197.371 137.928 197.732 137.837 198.099C137.745 198.467 137.692 199.011 137.679 199.733V200.993V202.174C137.679 202.567 137.686 202.83 137.699 202.961C137.712 203.092 137.732 203.177 137.758 203.217C137.784 203.256 137.843 203.295 137.935 203.335C138.211 203.374 138.532 203.394 138.899 203.394H139.214V204.299H139.057L138.604 204.279C138.289 204.266 137.955 204.26 137.6 204.26C137.246 204.26 136.997 204.253 136.853 204.24C135.501 204.24 134.766 204.26 134.648 204.299H134.491V203.394H134.806Z" fill="#F0F0F0"/>
<path d="M145.65 207.212H145.926C146.438 207.212 146.746 207.12 146.851 206.936V206.779C146.851 206.687 146.851 206.563 146.851 206.405C146.851 206.248 146.851 206.051 146.851 205.815C146.851 205.578 146.857 205.323 146.871 205.047C146.884 204.771 146.884 204.483 146.871 204.181C146.857 203.879 146.857 203.558 146.871 203.217C146.884 202.875 146.884 202.541 146.871 202.213C146.871 201.767 146.871 201.301 146.871 200.815C146.871 200.33 146.871 199.897 146.871 199.516C146.871 199.136 146.871 198.788 146.871 198.473C146.871 198.158 146.864 197.903 146.851 197.706C146.838 197.509 146.838 197.404 146.851 197.391C146.812 197.142 146.72 196.978 146.575 196.899C146.431 196.82 146.136 196.761 145.69 196.722H145.335V196.269C145.335 195.967 145.349 195.816 145.375 195.816L145.572 195.797C145.703 195.784 145.893 195.77 146.142 195.757C146.392 195.744 146.634 195.731 146.871 195.718C147.094 195.705 147.336 195.692 147.599 195.679C147.861 195.665 148.058 195.646 148.189 195.62C148.32 195.593 148.393 195.587 148.406 195.6H148.465V196.112L148.485 196.623L148.642 196.486C149.416 195.908 150.321 195.62 151.358 195.62C152.421 195.62 153.326 196.039 154.074 196.879C154.822 197.719 155.203 198.775 155.216 200.048C155.216 201.373 154.789 202.449 153.936 203.276C153.083 204.102 152.119 204.516 151.043 204.516C150.151 204.516 149.364 204.227 148.681 203.65L148.524 203.512V205.185V206.287C148.524 206.641 148.537 206.858 148.563 206.936C148.589 207.015 148.662 207.087 148.78 207.153C149.055 207.192 149.377 207.212 149.744 207.212H150.059V208.117H149.902L149.429 208.098C149.127 208.085 148.799 208.078 148.445 208.078C148.091 208.078 147.842 208.071 147.697 208.058C146.346 208.058 145.611 208.078 145.493 208.117H145.335V207.212H145.65ZM153.287 200.009C153.287 199.038 153.064 198.191 152.618 197.47C152.172 196.748 151.614 196.387 150.945 196.387C150.013 196.387 149.206 196.814 148.524 197.666V202.37C149.049 203.315 149.784 203.787 150.728 203.787C151.397 203.787 151.988 203.433 152.5 202.725C153.011 202.016 153.274 201.111 153.287 200.009Z" fill="#F0F0F0"/>
<path d="M163.423 203.158C162.688 204.05 161.855 204.496 160.923 204.496H160.786C159.146 204.496 158.201 203.846 157.951 202.547C157.938 202.456 157.925 201.557 157.912 199.851C157.899 198.421 157.892 197.62 157.892 197.45C157.892 197.279 157.853 197.142 157.774 197.037C157.643 196.827 157.25 196.722 156.593 196.722H156.377V196.269C156.377 195.967 156.39 195.816 156.416 195.816L156.633 195.797C156.764 195.784 156.954 195.77 157.204 195.757C157.453 195.744 157.702 195.731 157.951 195.718C158.175 195.705 158.417 195.692 158.68 195.679C158.942 195.665 159.139 195.646 159.27 195.62C159.401 195.593 159.48 195.587 159.506 195.6H159.565V199.162C159.579 201.576 159.598 202.869 159.624 203.039C159.664 203.236 159.756 203.394 159.9 203.512C160.162 203.696 160.556 203.787 161.081 203.787C161.422 203.787 161.73 203.728 162.006 203.61C162.281 203.492 162.491 203.341 162.636 203.158C162.78 202.974 162.911 202.764 163.029 202.528C163.147 202.292 163.226 202.095 163.266 201.937C163.305 201.78 163.331 201.622 163.344 201.465C163.344 201.452 163.344 201.34 163.344 201.13C163.344 200.92 163.351 200.658 163.364 200.343C163.377 200.028 163.377 199.72 163.364 199.418V198.099C163.364 197.496 163.298 197.122 163.167 196.978C163.036 196.833 162.708 196.748 162.183 196.722H161.829V195.816C161.855 195.816 162.354 195.784 163.325 195.718C164.296 195.652 164.814 195.613 164.879 195.6H165.017V199.103C165.017 201.465 165.024 202.666 165.037 202.705C165.076 202.967 165.168 203.138 165.312 203.217C165.457 203.295 165.752 203.354 166.198 203.394H166.552V204.299C166.526 204.299 166.034 204.332 165.076 204.398C164.118 204.463 163.613 204.502 163.561 204.516H163.423V203.158Z" fill="#F0F0F0"/>
<path d="M167.359 195.993C168.055 195.941 168.593 195.574 168.973 194.891C169.354 194.209 169.564 193.409 169.603 192.49V192.195H170.39V195.816H173.047V196.722H170.39V199.556C170.403 201.196 170.41 202.121 170.41 202.331C170.41 202.541 170.456 202.751 170.548 202.961C170.731 203.472 171.053 203.728 171.512 203.728C172.089 203.728 172.444 203.263 172.575 202.331C172.588 202.226 172.595 201.924 172.595 201.426V200.737H173.382V201.426V201.662C173.382 202.672 173.106 203.44 172.555 203.965C172.201 204.319 171.742 204.496 171.178 204.496C170.731 204.496 170.344 204.417 170.016 204.26C169.688 204.102 169.439 203.899 169.268 203.65C169.098 203.4 168.973 203.171 168.894 202.961C168.816 202.751 168.77 202.541 168.757 202.331C168.744 202.239 168.737 201.268 168.737 199.418V196.722H167.182V195.993H167.359Z" fill="#F0F0F0"/>
</g>
<path d="M377.828 186.639H308.383V210.39H377.828V186.639Z" fill="black"/>
<g clip-path="url(#clip9_1600_28320)">
<path d="M312.379 197.823C312.379 196.734 312.576 195.724 312.97 194.792C313.364 193.861 313.875 193.1 314.505 192.509C315.135 191.919 315.83 191.459 316.592 191.131C317.353 190.803 318.127 190.639 318.914 190.639C320.659 190.639 322.188 191.322 323.5 192.686C324.812 194.051 325.475 195.757 325.488 197.804C325.488 198.867 325.298 199.851 324.917 200.756C324.537 201.662 324.038 202.423 323.422 203.039C322.805 203.656 322.103 204.122 321.315 204.437C320.528 204.752 319.728 204.922 318.914 204.949C318.101 204.975 317.307 204.811 316.532 204.457C315.758 204.102 315.056 203.637 314.426 203.059C313.797 202.482 313.304 201.727 312.95 200.796C312.596 199.864 312.406 198.873 312.379 197.823ZM320.469 191.781C319.931 191.545 319.413 191.427 318.914 191.427C318.547 191.427 318.173 191.499 317.792 191.643C317.412 191.787 317.005 192.01 316.572 192.312C316.139 192.614 315.771 193.08 315.47 193.71C315.168 194.34 314.945 195.061 314.8 195.875C314.735 196.242 314.702 196.8 314.702 197.548C314.702 200.304 315.378 202.226 316.729 203.315C317.385 203.853 318.094 204.122 318.855 204.122H318.934H318.973C320.062 204.122 321.02 203.604 321.847 202.567C322.713 201.399 323.146 199.726 323.146 197.548C323.146 196.8 323.113 196.242 323.048 195.875C322.772 193.867 321.912 192.503 320.469 191.781Z" fill="#F0F0F0"/>
<path d="M334.129 203.374C333.394 204.266 332.561 204.713 331.629 204.713H331.491C329.851 204.713 328.906 204.063 328.657 202.764C328.644 202.672 328.631 201.773 328.618 200.067C328.605 198.637 328.598 197.837 328.598 197.666C328.598 197.495 328.559 197.358 328.48 197.253C328.349 197.043 327.955 196.938 327.299 196.938H327.083V196.485C327.083 196.183 327.096 196.032 327.122 196.032L327.338 196.013C327.47 196 327.66 195.986 327.909 195.973C328.159 195.96 328.408 195.947 328.657 195.934C328.88 195.921 329.123 195.908 329.385 195.895C329.648 195.881 329.845 195.862 329.976 195.836C330.107 195.809 330.186 195.803 330.212 195.816H330.271V199.378C330.284 201.793 330.304 203.085 330.33 203.256C330.37 203.453 330.461 203.61 330.606 203.728C330.868 203.912 331.262 204.004 331.787 204.004C332.128 204.004 332.436 203.945 332.712 203.827C332.987 203.709 333.197 203.558 333.342 203.374C333.486 203.19 333.617 202.98 333.735 202.744C333.853 202.508 333.932 202.311 333.972 202.154C334.011 201.996 334.037 201.839 334.05 201.681C334.05 201.668 334.05 201.557 334.05 201.347C334.05 201.137 334.057 200.874 334.07 200.559C334.083 200.244 334.083 199.936 334.07 199.634V198.316C334.07 197.712 334.004 197.338 333.873 197.194C333.742 197.049 333.414 196.964 332.889 196.938H332.535V196.032C332.561 196.032 333.06 196 334.031 195.934C335.002 195.868 335.52 195.829 335.586 195.816H335.723V199.319C335.723 201.681 335.73 202.882 335.743 202.921C335.782 203.184 335.874 203.354 336.019 203.433C336.163 203.512 336.458 203.571 336.904 203.61H337.259V204.516C337.232 204.516 336.74 204.548 335.782 204.614C334.824 204.68 334.319 204.719 334.267 204.732H334.129V203.374Z" fill="#F0F0F0"/>
<path d="M338.066 196.209C338.761 196.157 339.299 195.79 339.68 195.107C340.06 194.425 340.27 193.624 340.31 192.706V192.411H341.097V196.032H343.754V196.938H341.097V199.772C341.11 201.412 341.117 202.337 341.117 202.547C341.117 202.757 341.163 202.967 341.254 203.177C341.438 203.689 341.76 203.945 342.219 203.945C342.796 203.945 343.151 203.479 343.282 202.547C343.295 202.442 343.301 202.141 343.301 201.642V200.953H344.089V201.642V201.878C344.089 202.889 343.813 203.656 343.262 204.181C342.908 204.535 342.449 204.713 341.884 204.713C341.438 204.713 341.051 204.634 340.723 204.476C340.395 204.319 340.146 204.115 339.975 203.866C339.804 203.617 339.68 203.387 339.601 203.177C339.522 202.967 339.476 202.757 339.463 202.547C339.45 202.456 339.444 201.485 339.444 199.634V196.938H337.889V196.209H338.066Z" fill="#F0F0F0"/>
<path d="M345.899 207.429H346.175C346.687 207.429 346.995 207.337 347.1 207.153V206.996C347.1 206.904 347.1 206.779 347.1 206.622C347.1 206.464 347.1 206.267 347.1 206.031C347.1 205.795 347.107 205.539 347.12 205.264C347.133 204.988 347.133 204.699 347.12 204.398C347.107 204.096 347.107 203.774 347.12 203.433C347.133 203.092 347.133 202.757 347.12 202.429C347.12 201.983 347.12 201.517 347.12 201.032C347.12 200.546 347.12 200.113 347.12 199.733C347.12 199.352 347.12 199.004 347.12 198.69C347.12 198.375 347.113 198.119 347.1 197.922C347.087 197.725 347.087 197.62 347.1 197.607C347.061 197.358 346.969 197.194 346.824 197.115C346.68 197.036 346.385 196.977 345.939 196.938H345.584V196.485C345.584 196.183 345.598 196.032 345.624 196.032L345.821 196.013C345.952 196 346.142 195.986 346.391 195.973C346.641 195.96 346.884 195.947 347.12 195.934C347.343 195.921 347.586 195.908 347.848 195.895C348.11 195.881 348.307 195.862 348.438 195.836C348.57 195.809 348.642 195.803 348.655 195.816H348.714V196.328L348.734 196.839L348.891 196.702C349.665 196.124 350.571 195.836 351.607 195.836C352.67 195.836 353.576 196.255 354.324 197.095C355.072 197.935 355.452 198.991 355.465 200.264C355.465 201.589 355.039 202.665 354.186 203.492C353.333 204.319 352.369 204.732 351.293 204.732C350.4 204.732 349.613 204.444 348.931 203.866L348.773 203.728V205.401V206.504C348.773 206.858 348.786 207.074 348.812 207.153C348.839 207.232 348.911 207.304 349.029 207.37C349.305 207.409 349.626 207.429 349.993 207.429H350.308V208.334H350.151L349.679 208.314C349.377 208.301 349.049 208.295 348.694 208.295C348.34 208.295 348.091 208.288 347.946 208.275C346.595 208.275 345.86 208.295 345.742 208.334H345.584V207.429H345.899ZM353.536 200.225C353.536 199.254 353.313 198.407 352.867 197.686C352.421 196.964 351.863 196.603 351.194 196.603C350.262 196.603 349.455 197.03 348.773 197.883V202.587C349.298 203.532 350.033 204.004 350.978 204.004C351.647 204.004 352.237 203.65 352.749 202.941C353.261 202.232 353.523 201.327 353.536 200.225Z" fill="#F0F0F0"/>
<path d="M363.673 203.374C362.938 204.266 362.105 204.713 361.173 204.713H361.035C359.395 204.713 358.45 204.063 358.201 202.764C358.188 202.672 358.175 201.773 358.162 200.067C358.149 198.637 358.142 197.837 358.142 197.666C358.142 197.495 358.103 197.358 358.024 197.253C357.893 197.043 357.499 196.938 356.843 196.938H356.626V196.485C356.626 196.183 356.64 196.032 356.666 196.032L356.882 196.013C357.014 196 357.204 195.986 357.453 195.973C357.702 195.96 357.952 195.947 358.201 195.934C358.424 195.921 358.667 195.908 358.929 195.895C359.192 195.881 359.389 195.862 359.52 195.836C359.651 195.809 359.73 195.803 359.756 195.816H359.815V199.378C359.828 201.793 359.848 203.085 359.874 203.256C359.914 203.453 360.005 203.61 360.15 203.728C360.412 203.912 360.806 204.004 361.331 204.004C361.672 204.004 361.98 203.945 362.256 203.827C362.531 203.709 362.741 203.558 362.886 203.374C363.03 203.19 363.161 202.98 363.279 202.744C363.397 202.508 363.476 202.311 363.515 202.154C363.555 201.996 363.581 201.839 363.594 201.681C363.594 201.668 363.594 201.557 363.594 201.347C363.594 201.137 363.601 200.874 363.614 200.559C363.627 200.244 363.627 199.936 363.614 199.634V198.316C363.614 197.712 363.548 197.338 363.417 197.194C363.286 197.049 362.958 196.964 362.433 196.938H362.079V196.032C362.105 196.032 362.604 196 363.575 195.934C364.546 195.868 365.064 195.829 365.129 195.816H365.267V199.319C365.267 201.681 365.274 202.882 365.287 202.921C365.326 203.184 365.418 203.354 365.563 203.433C365.707 203.512 366.002 203.571 366.448 203.61H366.803V204.516C366.776 204.516 366.284 204.548 365.326 204.614C364.368 204.68 363.863 204.719 363.811 204.732H363.673V203.374Z" fill="#F0F0F0"/>
<path d="M367.61 196.209C368.305 196.157 368.843 195.79 369.224 195.107C369.604 194.425 369.814 193.624 369.854 192.706V192.411H370.641V196.032H373.298V196.938H370.641V199.772C370.654 201.412 370.661 202.337 370.661 202.547C370.661 202.757 370.707 202.967 370.798 203.177C370.982 203.689 371.304 203.945 371.763 203.945C372.34 203.945 372.695 203.479 372.826 202.547C372.839 202.442 372.845 202.141 372.845 201.642V200.953H373.633V201.642V201.878C373.633 202.889 373.357 203.656 372.806 204.181C372.452 204.535 371.992 204.713 371.428 204.713C370.982 204.713 370.595 204.634 370.267 204.476C369.939 204.319 369.69 204.115 369.519 203.866C369.348 203.617 369.224 203.387 369.145 203.177C369.066 202.967 369.02 202.757 369.007 202.547C368.994 202.456 368.988 201.485 368.988 199.634V196.938H367.433V196.209H367.61Z" fill="#F0F0F0"/>
</g>
</g>
<defs>
<clipPath id="clip0_1600_28320">
<rect width="480" height="270" fill="white"/>
</clipPath>
<clipPath id="clip1_1600_28320">
<rect width="40.6638" height="21.5934" fill="white" transform="translate(220.858 125.128)"/>
</clipPath>
<clipPath id="clip2_1600_28320">
<rect width="60.1518" height="74.7939" fill="white" transform="translate(120.139 97.4858)"/>
</clipPath>
<clipPath id="clip3_1600_28320">
<rect width="13.1283" height="7.91241" fill="white" transform="matrix(1 0 0 -1 120.14 138.839)"/>
</clipPath>
<clipPath id="clip4_1600_28320">
<rect width="13.1283" height="7.91241" fill="white" transform="matrix(1 0 0 -1 167.162 138.839)"/>
</clipPath>
<clipPath id="clip5_1600_28320">
<rect width="44.8398" height="74.7939" fill="white" transform="translate(319.819 97.4858)"/>
</clipPath>
<clipPath id="clip6_1600_28320">
<rect width="13.1283" height="7.91241" fill="white" transform="matrix(1 0 0 -1 319.821 138.839)"/>
</clipPath>
<clipPath id="clip7_1600_28320">
<rect width="13.1283" height="7.91241" fill="white" transform="matrix(1 0 0 -1 351.529 138.839)"/>
</clipPath>
<clipPath id="clip8_1600_28320">
<rect width="47.5977" height="17.2608" fill="white" transform="translate(126.89 190.857)"/>
</clipPath>
<clipPath id="clip9_1600_28320">
<rect width="63.4578" height="17.6958" fill="white" transform="translate(311.277 190.639)"/>
</clipPath>
</defs>
</svg>
