<svg width="960" height="540" viewBox="0 0 960 540" fill="none" xmlns="http://www.w3.org/2000/svg">
<rect width="960" height="540" fill="black"/>
<path d="M56.2951 324.014H40.6802V338.958H56.2951V324.014Z" fill="black"/>
<g clip-path="url(#clip0_1150_48457)">
<path d="M43.9302 329.783C44.0147 329.276 44.3404 328.691 44.9075 328.028C45.4746 327.364 46.1744 327.026 47.0069 327.014C47.4292 327.014 47.8152 327.123 48.1651 327.34C48.515 327.557 48.7744 327.828 48.9433 328.154C49.4501 327.394 50.0594 327.014 50.7712 327.014C51.2176 327.014 51.6037 327.147 51.9295 327.412C52.2553 327.678 52.4242 328.034 52.4362 328.48C52.4362 328.83 52.3518 329.113 52.1829 329.331C52.014 329.548 51.8511 329.68 51.6942 329.729C51.5374 329.777 51.3986 329.801 51.278 329.801C51.0487 329.801 50.8617 329.735 50.7169 329.602C50.5722 329.469 50.4998 329.294 50.4998 329.077C50.4998 328.522 50.8014 328.142 51.4047 327.937C51.2719 327.78 51.0306 327.702 50.6807 327.702C50.5239 327.702 50.4093 327.714 50.3369 327.738C49.8784 327.931 49.5406 328.329 49.3234 328.932C48.5995 331.599 48.2375 333.155 48.2375 333.602C48.2375 333.94 48.334 334.181 48.5271 334.326C48.7201 334.47 48.9313 334.543 49.1605 334.543C49.6069 334.543 50.0473 334.344 50.4817 333.946C50.916 333.547 51.2116 333.059 51.3685 332.48C51.4047 332.359 51.4409 332.293 51.477 332.281C51.5132 332.268 51.6098 332.256 51.7666 332.244H51.839C52.02 332.244 52.1105 332.293 52.1105 332.389C52.1105 332.401 52.0984 332.468 52.0743 332.588C51.8812 333.276 51.5072 333.885 50.9522 334.416C50.3972 334.947 49.7517 335.212 49.0157 335.212C48.1712 335.212 47.5317 334.832 47.0974 334.072C46.6027 334.82 46.0356 335.194 45.3962 335.194H45.2876C44.6964 335.194 44.2741 335.037 44.0207 334.724C43.7673 334.41 43.6346 334.078 43.6226 333.728C43.6226 333.342 43.7372 333.029 43.9664 332.787C44.1957 332.546 44.4671 332.425 44.7808 332.425C45.2996 332.425 45.559 332.679 45.559 333.185C45.559 333.427 45.4866 333.638 45.3419 333.819C45.1971 334 45.0583 334.12 44.9256 334.181C44.7929 334.241 44.7145 334.271 44.6903 334.271L44.636 334.289C44.636 334.301 44.6722 334.326 44.7446 334.362C44.817 334.398 44.9135 334.44 45.0342 334.488C45.1548 334.537 45.2695 334.555 45.3781 334.543C45.8124 334.543 46.1864 334.271 46.5001 333.728C46.6087 333.535 46.7475 333.125 46.9164 332.498C47.0853 331.87 47.2542 331.219 47.4231 330.543C47.592 329.867 47.6886 329.469 47.7127 329.349C47.773 329.023 47.8032 328.788 47.8032 328.643C47.8032 328.305 47.7127 328.064 47.5317 327.919C47.3507 327.774 47.1456 327.702 46.9164 327.702C46.4338 327.702 45.9813 327.895 45.559 328.281C45.1367 328.667 44.8412 329.162 44.6722 329.765C44.6481 329.874 44.6179 329.934 44.5817 329.946C44.5456 329.958 44.449 329.97 44.2922 329.982H44.0388C43.9664 329.91 43.9302 329.843 43.9302 329.783Z" fill="#F0F0F0"/>
</g>
<path d="M365.113 305.239H349.728V324.016H365.113V305.239Z" fill="black"/>
<g clip-path="url(#clip1_1150_48457)">
<path d="M352.693 311.045C352.693 310.876 352.784 310.586 352.965 310.176C353.146 309.766 353.436 309.337 353.834 308.891C354.232 308.444 354.679 308.227 355.173 308.239C355.668 308.239 356.066 308.378 356.368 308.656C356.67 308.933 356.827 309.319 356.839 309.814C356.815 310.043 356.796 310.17 356.784 310.194C356.784 310.23 356.688 310.508 356.495 311.027C356.302 311.546 356.103 312.131 355.897 312.783C355.692 313.434 355.596 313.953 355.608 314.34C355.608 314.858 355.692 315.221 355.861 315.426C356.03 315.631 356.284 315.739 356.621 315.752C356.899 315.752 357.159 315.685 357.4 315.552C357.641 315.42 357.828 315.281 357.961 315.136C358.094 314.991 358.257 314.792 358.45 314.539C358.45 314.527 358.48 314.406 358.54 314.177C358.601 313.947 358.685 313.591 358.794 313.109C358.902 312.626 359.017 312.179 359.138 311.769C359.596 309.959 359.85 309.012 359.898 308.927C360.055 308.601 360.314 308.438 360.676 308.438C360.833 308.438 360.96 308.481 361.056 308.565C361.153 308.649 361.219 308.722 361.256 308.782C361.292 308.843 361.304 308.897 361.292 308.945C361.292 309.102 360.996 310.369 360.405 312.747C359.813 315.124 359.476 316.427 359.391 316.657C359.053 317.658 358.468 318.455 357.635 319.046C356.803 319.637 355.97 319.939 355.137 319.951C354.594 319.951 354.117 319.818 353.707 319.553C353.297 319.287 353.092 318.889 353.092 318.358C353.092 318.093 353.134 317.869 353.218 317.688C353.303 317.507 353.417 317.375 353.562 317.29C353.707 317.206 353.828 317.145 353.924 317.109C354.021 317.073 354.123 317.055 354.232 317.055C354.763 317.055 355.029 317.308 355.029 317.815C355.029 318.056 354.956 318.268 354.811 318.449C354.666 318.63 354.528 318.75 354.395 318.811C354.262 318.871 354.184 318.901 354.16 318.901L354.105 318.919C354.129 318.98 354.244 319.052 354.449 319.137C354.654 319.221 354.86 319.263 355.065 319.263H355.21C355.415 319.263 355.572 319.251 355.68 319.227C356.078 319.118 356.447 318.889 356.784 318.539C357.122 318.189 357.382 317.815 357.563 317.417C357.744 317.019 357.883 316.681 357.979 316.403C358.076 316.126 358.124 315.945 358.124 315.86L358.015 315.933C357.943 315.981 357.828 316.047 357.671 316.132C357.515 316.216 357.358 316.289 357.201 316.349C356.959 316.409 356.724 316.439 356.495 316.439C355.94 316.439 355.451 316.307 355.029 316.041C354.606 315.776 354.329 315.347 354.196 314.756C354.184 314.671 354.178 314.484 354.178 314.195C354.178 313.507 354.389 312.608 354.811 311.498C355.234 310.387 355.445 309.681 355.445 309.38C355.445 309.368 355.445 309.355 355.445 309.343C355.445 309.235 355.445 309.162 355.445 309.126C355.445 309.09 355.421 309.048 355.372 308.999C355.324 308.951 355.258 308.927 355.173 308.927H355.101C354.823 308.927 354.57 309.042 354.341 309.271C354.111 309.5 353.93 309.748 353.798 310.013C353.665 310.279 353.562 310.532 353.49 310.773C353.417 311.015 353.369 311.148 353.345 311.172C353.321 311.196 353.224 311.208 353.055 311.208H352.802C352.73 311.135 352.693 311.081 352.693 311.045Z" fill="#F0F0F0"/>
</g>
<path d="M191.695 69.1431H177.146V84.0872H191.695V69.1431Z" fill="black"/>
<g clip-path="url(#clip2_1150_48457)">
<path d="M185.735 74.0255C185.615 74.0255 185.295 73.9592 184.776 73.8264C184.257 73.6937 183.877 73.6273 183.636 73.6273C183.394 73.6273 183.189 73.6515 183.02 73.6997C182.851 73.748 182.713 73.8083 182.604 73.8807C182.496 73.9531 182.423 74.0195 182.387 74.0798C182.351 74.1401 182.309 74.2065 182.26 74.2789L182.224 74.3513C182.188 74.3875 182.097 74.4056 181.953 74.4056C181.699 74.4056 181.572 74.3573 181.572 74.2608C181.572 74.2005 181.591 74.116 181.627 74.0074C181.784 73.5368 182.043 73.1326 182.405 72.7948C182.767 72.4569 183.165 72.2518 183.6 72.1794C183.744 72.1553 183.847 72.1432 183.907 72.1432C184.209 72.1432 184.48 72.2458 184.722 72.4509C184.963 72.656 185.192 72.8551 185.409 73.0482C185.627 73.2412 185.856 73.3438 186.097 73.3559C186.363 73.3559 186.628 73.1568 186.894 72.7586C187.159 72.3604 187.298 72.1613 187.31 72.1613C187.322 72.1493 187.412 72.1432 187.581 72.1432H187.817C187.889 72.2156 187.925 72.2639 187.925 72.288C187.925 72.3363 187.895 72.4207 187.835 72.5414C187.774 72.6621 187.69 72.7888 187.581 72.9215C187.473 73.0542 187.37 73.1869 187.274 73.3197C187.177 73.4524 187.093 73.567 187.02 73.6635L186.894 73.8264C186.375 74.4418 185.554 75.2562 184.432 76.2698C183.31 77.2833 182.616 77.9349 182.351 78.2245L182.134 78.4417L182.405 78.4598C182.67 78.4598 183.057 78.5261 183.563 78.6588C184.07 78.7916 184.45 78.8579 184.704 78.8579C185.162 78.8579 185.584 78.7433 185.971 78.514C186.357 78.2848 186.61 77.9831 186.731 77.6091C186.779 77.5005 186.821 77.4341 186.857 77.41C186.894 77.3859 186.984 77.3738 187.129 77.3738C187.358 77.3738 187.473 77.4341 187.473 77.5548C187.473 77.6151 187.467 77.6694 187.455 77.7177C187.25 78.4658 186.851 79.0872 186.26 79.5819C185.669 80.0766 185.078 80.33 184.486 80.342C184.173 80.342 183.895 80.2395 183.654 80.0344C183.413 79.8292 183.177 79.6241 182.948 79.419C182.719 79.2139 182.49 79.1113 182.26 79.1113C181.729 79.1113 181.253 79.4733 180.83 80.1972C180.758 80.2938 180.655 80.342 180.523 80.342H180.432H180.197C180.125 80.2696 180.088 80.2153 180.088 80.1792C180.088 79.9982 180.438 79.4793 181.138 78.6226C181.609 78.0797 182.405 77.2954 183.527 76.2698C184.649 75.2442 185.343 74.5926 185.609 74.3151C185.753 74.122 185.796 74.0255 185.735 74.0255Z" fill="#F0F0F0"/>
</g>
<path d="M258.203 230.156L274.652 230.204L263.707 242.483L263.694 235.096L258.203 230.156Z" fill="#404040"/>
<path d="M81.0254 324.042L64.5767 323.994L75.5218 311.715L75.5342 319.102L81.0254 324.042Z" fill="#404040"/>
<path d="M68.229 322.364L270.999 231.835" stroke="#404040" stroke-width="1.5"/>
<path d="M71.4341 249.523L58.5417 239.308L74.7374 236.434L70.1769 242.245L71.4341 249.523Z" fill="#404040"/>
<path d="M323.47 299.204L336.363 309.419L320.167 312.294L324.727 306.483L323.47 299.204Z" fill="#404040"/>
<path d="M332.484 308.441L62.4199 240.287" stroke="#404040" stroke-width="1.5"/>
<path d="M190.227 408.803L183.466 423.798L176.727 408.793L183.475 411.798L190.227 408.803Z" fill="#404040"/>
<path d="M176.951 113.728L183.713 98.7329L190.451 113.738L183.703 110.733L176.951 113.728Z" fill="#404040"/>
<path d="M183.71 102.733L183.469 419.798" stroke="#404040" stroke-width="1.5"/>
<path opacity="0.75" d="M81.0254 324.042L64.5767 323.994L75.5218 311.715L75.5342 319.102L81.0254 324.042Z" fill="#F0F0F0"/>
<path opacity="0.75" d="M258.203 230.156L274.652 230.204L263.707 242.483L263.694 235.096L258.203 230.156Z" fill="#F0F0F0"/>
<path opacity="0.75" d="M270.999 231.835L68.229 322.364" stroke="#F0F0F0" stroke-width="1.5"/>
<path opacity="0.75" d="M323.47 299.204L336.363 309.419L320.167 312.294L324.727 306.483L323.47 299.204Z" fill="#F0F0F0"/>
<path opacity="0.75" d="M71.4341 249.523L58.5417 239.308L74.7374 236.434L70.1769 242.245L71.4341 249.523Z" fill="#F0F0F0"/>
<path opacity="0.75" d="M62.4199 240.287L332.484 308.441" stroke="#F0F0F0" stroke-width="1.5"/>
<path opacity="0.75" d="M176.951 113.728L183.713 98.7329L190.451 113.738L183.703 110.733L176.951 113.728Z" fill="#F0F0F0"/>
<path opacity="0.75" d="M190.227 408.803L183.466 423.798L176.727 408.793L183.475 411.798L190.227 408.803Z" fill="#F0F0F0"/>
<path opacity="0.75" d="M183.469 419.798L183.71 102.733" stroke="#F0F0F0" stroke-width="1.5"/>
<path opacity="0.2" d="M180.1 217.114L187.117 214.479" stroke="#F0F0F0" stroke-width="1.5"/>
<path opacity="0.2" d="M188.317 216.787L178.964 214.801" stroke="#F0F0F0" stroke-width="1.5"/>
<path opacity="0.2" d="M180.154 325.553L186.901 322.081" stroke="#F0F0F0" stroke-width="1.5"/>
<path opacity="0.2" d="M188.052 325.121L179.061 322.506" stroke="#F0F0F0" stroke-width="1.5"/>
<path opacity="0.2" d="M152.281 288.201L142.938 285.668" stroke="#F0F0F0" stroke-width="1.5"/>
<path opacity="0.2" d="M147.523 281.302L147.663 292.535" stroke="#F0F0F0" stroke-width="1.5"/>
<path opacity="0.2" d="M221.025 257.224L212.036 255.102" stroke="#F0F0F0" stroke-width="1.5"/>
<path opacity="0.2" d="M216.582 250.952L216.45 261.347" stroke="#F0F0F0" stroke-width="1.5"/>
<path opacity="0.2" d="M227.646 284.481L234.328 281.194" stroke="#F0F0F0" stroke-width="1.5"/>
<path opacity="0.2" d="M231.104 277.258L230.902 288.379" stroke="#F0F0F0" stroke-width="1.5"/>
<path opacity="0.2" d="M135.683 261.111L142.721 258.235" stroke="#F0F0F0" stroke-width="1.5"/>
<path opacity="0.2" d="M139.137 254.411L139.298 264.903" stroke="#F0F0F0" stroke-width="1.5"/>
<path opacity="0.2" d="M180.071 159.546L187.231 157.386" stroke="#F0F0F0" stroke-width="1.5"/>
<path opacity="0.2" d="M188.457 159.279L178.912 157.649" stroke="#F0F0F0" stroke-width="1.5"/>
<path opacity="0.2" d="M180.18 376.679L186.799 372.838" stroke="#F0F0F0" stroke-width="1.5"/>
<path opacity="0.2" d="M187.927 376.201L179.106 373.309" stroke="#F0F0F0" stroke-width="1.5"/>
<path opacity="0.2" d="M112.876 305.958L103.367 303.173" stroke="#F0F0F0" stroke-width="1.5"/>
<path opacity="0.2" d="M107.945 298.697L108.262 310.399" stroke="#F0F0F0" stroke-width="1.5"/>
<path opacity="0.2" d="M251.185 243.633L242.376 241.68" stroke="#F0F0F0" stroke-width="1.5"/>
<path opacity="0.2" d="M246.885 237.634L246.649 247.655" stroke="#F0F0F0" stroke-width="1.5"/>
<path opacity="0.2" d="M278.571 297.421L285.007 293.896" stroke="#F0F0F0" stroke-width="1.5"/>
<path opacity="0.2" d="M282.016 289.907L281.593 301.37" stroke="#F0F0F0" stroke-width="1.5"/>
<path opacity="0.2" d="M94.0234 250.525L101.187 247.826" stroke="#F0F0F0" stroke-width="1.5"/>
<path opacity="0.2" d="M97.4658 244.058L97.7748 254.262" stroke="#F0F0F0" stroke-width="1.5"/>
<path opacity="0.5" d="M180.1 217.114L187.117 214.479" stroke="#F0F0F0" stroke-width="1.5"/>
<path opacity="0.5" d="M188.317 216.787L178.964 214.801" stroke="#F0F0F0" stroke-width="1.5"/>
<path opacity="0.5" d="M180.154 325.553L186.901 322.081" stroke="#F0F0F0" stroke-width="1.5"/>
<path opacity="0.5" d="M188.052 325.121L179.061 322.506" stroke="#F0F0F0" stroke-width="1.5"/>
<path opacity="0.5" d="M152.281 288.201L142.938 285.668" stroke="#F0F0F0" stroke-width="1.5"/>
<path opacity="0.5" d="M147.523 281.302L147.663 292.535" stroke="#F0F0F0" stroke-width="1.5"/>
<path opacity="0.5" d="M221.025 257.224L212.036 255.102" stroke="#F0F0F0" stroke-width="1.5"/>
<path opacity="0.5" d="M216.582 250.952L216.45 261.347" stroke="#F0F0F0" stroke-width="1.5"/>
<path opacity="0.5" d="M227.646 284.481L234.328 281.194" stroke="#F0F0F0" stroke-width="1.5"/>
<path opacity="0.5" d="M231.104 277.258L230.902 288.379" stroke="#F0F0F0" stroke-width="1.5"/>
<path opacity="0.5" d="M135.683 261.111L142.721 258.235" stroke="#F0F0F0" stroke-width="1.5"/>
<path opacity="0.5" d="M139.137 254.411L139.298 264.903" stroke="#F0F0F0" stroke-width="1.5"/>
<path opacity="0.5" d="M180.071 159.546L187.231 157.386" stroke="#F0F0F0" stroke-width="1.5"/>
<path opacity="0.5" d="M188.457 159.279L178.912 157.649" stroke="#F0F0F0" stroke-width="1.5"/>
<path opacity="0.5" d="M180.18 376.679L186.799 372.838" stroke="#F0F0F0" stroke-width="1.5"/>
<path opacity="0.5" d="M187.927 376.201L179.106 373.309" stroke="#F0F0F0" stroke-width="1.5"/>
<path opacity="0.5" d="M112.876 305.958L103.367 303.173" stroke="#F0F0F0" stroke-width="1.5"/>
<path opacity="0.5" d="M107.945 298.697L108.262 310.399" stroke="#F0F0F0" stroke-width="1.5"/>
<path opacity="0.5" d="M251.185 243.633L242.376 241.68" stroke="#F0F0F0" stroke-width="1.5"/>
<path opacity="0.5" d="M246.885 237.634L246.649 247.655" stroke="#F0F0F0" stroke-width="1.5"/>
<path opacity="0.5" d="M278.571 297.421L285.007 293.896" stroke="#F0F0F0" stroke-width="1.5"/>
<path opacity="0.5" d="M282.016 289.907L281.593 301.37" stroke="#F0F0F0" stroke-width="1.5"/>
<path opacity="0.5" d="M94.0234 250.525L101.187 247.826" stroke="#F0F0F0" stroke-width="1.5"/>
<path opacity="0.5" d="M97.4658 244.058L97.7748 254.262" stroke="#F0F0F0" stroke-width="1.5"/>
<path d="M164.042 286.979L147.594 286.93L158.539 274.652L158.551 282.038L164.042 286.979Z" fill="#92D192"/>
<path d="M183.582 270.863L151.246 285.3" stroke="#92D192" stroke-width="1.5"/>
<path d="M218.109 272.615L231.002 282.83L214.806 285.705L219.367 279.894L218.109 272.615Z" fill="#F2777A"/>
<path d="M183.582 270.863L227.123 281.852" stroke="#F2777A" stroke-width="1.5"/>
<path d="M176.862 230.785L183.624 215.79L190.362 230.795L183.615 227.79L176.862 230.785Z" fill="#6AB0F3"/>
<path d="M183.582 270.863L183.621 219.79" stroke="#6AB0F3" stroke-width="1.5"/>
<path d="M139 285.663H127.078V305.855H139V285.663Z" fill="black"/>
<g clip-path="url(#clip3_1150_48457)">
<path d="M130.642 296.134C130.642 296.074 130.684 295.917 130.769 295.663C130.853 295.41 130.98 295.115 131.149 294.777C131.318 294.439 131.553 294.131 131.854 293.854C132.156 293.577 132.482 293.408 132.831 293.347H133.157C133.567 293.347 133.905 293.48 134.17 293.745C134.436 294.011 134.575 294.385 134.587 294.867C134.575 295.096 134.55 295.259 134.514 295.356C134.478 295.452 134.213 296.188 133.718 297.563C133.091 299.204 132.777 300.181 132.777 300.495C132.777 300.736 132.874 300.856 133.067 300.856C133.296 300.856 133.525 300.754 133.754 300.549C134.068 300.211 134.339 299.65 134.569 298.866C134.605 298.721 134.635 298.637 134.659 298.613C134.683 298.589 134.768 298.571 134.912 298.558H135.021C135.141 298.558 135.22 298.558 135.256 298.558C135.292 298.558 135.334 298.577 135.383 298.613C135.431 298.649 135.449 298.691 135.437 298.739C135.437 298.86 135.377 299.089 135.256 299.427C135.135 299.765 134.906 300.151 134.569 300.585C134.231 301.019 133.845 301.315 133.41 301.472C133.314 301.496 133.169 301.508 132.976 301.508C132.445 301.508 132.065 301.357 131.836 301.055C131.607 300.754 131.493 300.416 131.493 300.042C131.493 299.716 131.788 298.776 132.379 297.22C132.97 295.663 133.272 294.716 133.284 294.379C133.284 294.234 133.266 294.137 133.23 294.089C133.193 294.041 133.103 294.011 132.958 293.999C132.62 294.023 132.337 294.21 132.108 294.56C131.879 294.909 131.71 295.283 131.601 295.682C131.493 296.08 131.42 296.279 131.384 296.279C131.372 296.291 131.257 296.297 131.04 296.297H130.751C130.678 296.224 130.642 296.17 130.642 296.134Z" fill="#92D192"/>
<path d="M130.012 290.923L132.491 288.498L132.636 288.643C134.204 290.138 134.988 290.898 134.988 290.923L134.518 291.447C134.494 291.435 134.144 291.134 133.468 290.543L132.509 289.71L131.514 290.561C131.357 290.693 131.2 290.832 131.044 290.977C130.887 291.122 130.76 291.236 130.664 291.321L130.519 291.429C130.495 291.453 130.404 291.369 130.247 291.176L130.012 290.923Z" fill="#92D192"/>
</g>
<path d="M256.809 277.805H243.722V301.848H256.809V277.805Z" fill="black"/>
<g clip-path="url(#clip4_1150_48457)">
<path d="M248.711 288.35C248.711 288.35 248.711 288.332 248.711 288.295C248.711 288.259 248.747 288.151 248.82 287.97C248.892 287.789 249.013 287.559 249.182 287.282C249.351 287.004 249.544 286.727 249.761 286.45C249.978 286.172 250.261 285.949 250.611 285.78C250.961 285.611 251.323 285.515 251.697 285.49C252.095 285.515 252.457 285.647 252.783 285.889C253.109 286.13 253.272 286.552 253.272 287.155V287.481L252.385 291.064C252.252 291.571 252.101 292.156 251.932 292.819C251.763 293.483 251.643 293.978 251.57 294.303C251.498 294.629 251.45 294.798 251.426 294.81C251.221 295.413 250.841 295.956 250.286 296.439C249.731 296.921 249.079 297.169 248.331 297.181C247.776 297.181 247.36 297.042 247.083 296.764C246.877 296.559 246.775 296.312 246.775 296.022C246.775 295.685 246.883 295.419 247.101 295.226C247.318 295.033 247.565 294.931 247.843 294.919C248.096 294.919 248.277 294.991 248.385 295.136C248.494 295.281 248.554 295.419 248.566 295.552C248.566 295.938 248.398 296.252 248.06 296.493L248.15 296.511H248.422H248.44C249.067 296.511 249.58 295.95 249.978 294.828C250.014 294.72 250.334 293.465 250.937 291.064C251.54 288.663 251.86 287.378 251.896 287.21C251.908 287.137 251.914 286.998 251.914 286.793C251.914 286.649 251.908 286.54 251.896 286.468C251.884 286.395 251.848 286.329 251.788 286.269C251.727 286.208 251.637 286.172 251.516 286.16C251.202 286.16 250.871 286.323 250.521 286.649C250.304 286.866 250.123 287.113 249.978 287.391C249.833 287.668 249.719 287.903 249.634 288.096C249.55 288.289 249.495 288.398 249.471 288.422C249.447 288.446 249.333 288.458 249.127 288.458H248.82C248.747 288.386 248.711 288.332 248.711 288.295V288.35Z" fill="#F2777A"/>
<path d="M247.861 283.066L250.34 280.641L250.485 280.785C252.053 282.281 252.837 283.041 252.837 283.066L252.367 283.59C252.343 283.578 251.993 283.277 251.317 282.686L250.358 281.853L249.363 282.704C249.206 282.836 249.049 282.975 248.892 283.12C248.735 283.265 248.609 283.379 248.512 283.464L248.368 283.572C248.343 283.596 248.253 283.512 248.096 283.319L247.861 283.066Z" fill="#F2777A"/>
</g>
<path d="M192.087 176.784H177.101V201.999H192.087V176.784Z" fill="black"/>
<g clip-path="url(#clip5_1150_48457)">
<path d="M181.343 185.321C181.343 185.201 181.368 185.062 181.416 184.905C181.464 184.748 181.537 184.67 181.633 184.67C181.645 184.67 182.08 184.64 182.936 184.579C183.793 184.519 184.234 184.483 184.258 184.471C184.403 184.471 184.475 184.519 184.475 184.615C184.475 184.7 184.173 185.961 183.57 188.399C182.967 190.788 182.665 192.025 182.665 192.11C182.894 191.989 183.069 191.875 183.19 191.766C183.48 191.549 183.896 191.169 184.439 190.625C184.982 190.082 185.404 189.714 185.706 189.521C186.189 189.195 186.647 189.032 187.082 189.032C187.444 189.032 187.728 189.147 187.933 189.376C188.138 189.606 188.247 189.932 188.259 190.354C188.259 190.656 188.216 190.909 188.132 191.114C188.047 191.319 187.933 191.47 187.788 191.567C187.643 191.663 187.516 191.73 187.408 191.766C187.299 191.802 187.191 191.82 187.082 191.82C186.841 191.82 186.647 191.754 186.503 191.621C186.358 191.488 186.285 191.313 186.285 191.096C186.285 190.794 186.382 190.547 186.575 190.354C186.768 190.161 186.961 190.034 187.154 189.974L187.444 189.919C187.299 189.775 187.154 189.702 187.01 189.702H186.937C186.551 189.738 186.171 189.889 185.797 190.155C185.423 190.42 184.982 190.807 184.475 191.313C183.968 191.82 183.57 192.188 183.28 192.418C183.305 192.43 183.395 192.448 183.552 192.472C183.709 192.496 183.854 192.532 183.986 192.581C184.119 192.629 184.276 192.677 184.457 192.725C184.638 192.774 184.801 192.858 184.946 192.979C185.091 193.1 185.223 193.208 185.344 193.305C185.465 193.401 185.567 193.558 185.652 193.775C185.736 193.993 185.773 194.192 185.76 194.373C185.76 194.578 185.73 194.825 185.67 195.115C185.61 195.405 185.573 195.646 185.561 195.839C185.561 196.322 185.724 196.563 186.05 196.563C186.629 196.563 187.1 195.845 187.462 194.409C187.486 194.312 187.607 194.264 187.824 194.264H187.897C188.09 194.264 188.186 194.318 188.186 194.427C188.186 194.487 188.168 194.572 188.132 194.68C187.637 196.382 186.925 197.233 185.996 197.233C185.453 197.233 185.012 197.076 184.674 196.762C184.336 196.448 184.167 195.996 184.167 195.405C184.167 195.187 184.186 195 184.222 194.843C184.258 194.686 184.276 194.542 184.276 194.409C184.276 194.143 184.192 193.914 184.023 193.721C183.854 193.528 183.642 193.389 183.389 193.305C183.136 193.22 182.93 193.154 182.774 193.106C182.617 193.057 182.508 193.039 182.448 193.051H182.412C182.267 193.558 182.14 194.047 182.031 194.518C181.923 194.988 181.838 195.338 181.778 195.567C181.718 195.797 181.663 196.02 181.615 196.237C181.567 196.455 181.524 196.599 181.488 196.672C181.452 196.744 181.41 196.823 181.362 196.907C181.313 196.992 181.247 197.046 181.162 197.07C181.006 197.179 180.837 197.233 180.656 197.233C180.45 197.233 180.294 197.173 180.185 197.052C180.076 196.931 180.022 196.829 180.022 196.744C180.022 196.623 180.245 195.658 180.692 193.848C181.138 192.037 181.579 190.257 182.013 188.507L182.683 185.883C182.695 185.726 182.653 185.629 182.556 185.593C182.46 185.557 182.224 185.527 181.85 185.502H181.76C181.639 185.502 181.561 185.502 181.524 185.502C181.488 185.502 181.446 185.484 181.398 185.448C181.349 185.412 181.331 185.37 181.343 185.321Z" fill="#6AB0F3"/>
<path d="M181.371 182.045L183.851 179.619L183.995 179.764C185.564 181.26 186.349 182.021 186.349 182.045L185.878 182.57C185.854 182.558 185.504 182.256 184.828 181.665L183.869 180.832L182.873 181.683C182.716 181.816 182.559 181.954 182.402 182.099C182.246 182.244 182.119 182.359 182.022 182.443L181.877 182.552C181.853 182.576 181.763 182.491 181.606 182.298L181.371 182.045Z" fill="#6AB0F3"/>
</g>
<g opacity="0.5">
<path d="M611.295 324.014H595.68V338.958H611.295V324.014Z" fill="black"/>
<g clip-path="url(#clip6_1150_48457)">
<path d="M598.93 329.783C599.014 329.276 599.34 328.691 599.907 328.028C600.474 327.364 601.174 327.026 602.006 327.014C602.429 327.014 602.815 327.123 603.165 327.34C603.515 327.557 603.774 327.828 603.943 328.154C604.45 327.394 605.059 327.014 605.771 327.014C606.217 327.014 606.603 327.147 606.929 327.412C607.255 327.678 607.424 328.034 607.436 328.48C607.436 328.83 607.351 329.113 607.182 329.331C607.013 329.548 606.851 329.68 606.694 329.729C606.537 329.777 606.398 329.801 606.277 329.801C606.048 329.801 605.861 329.735 605.716 329.602C605.572 329.469 605.499 329.294 605.499 329.077C605.499 328.522 605.801 328.142 606.404 327.937C606.271 327.78 606.03 327.702 605.68 327.702C605.523 327.702 605.409 327.714 605.336 327.738C604.878 327.931 604.54 328.329 604.323 328.932C603.599 331.599 603.237 333.155 603.237 333.602C603.237 333.94 603.334 334.181 603.527 334.326C603.72 334.47 603.931 334.543 604.16 334.543C604.606 334.543 605.047 334.344 605.481 333.946C605.916 333.547 606.211 333.059 606.368 332.48C606.404 332.359 606.44 332.293 606.477 332.281C606.513 332.268 606.609 332.256 606.766 332.244H606.839C607.019 332.244 607.11 332.293 607.11 332.389C607.11 332.401 607.098 332.468 607.074 332.588C606.881 333.276 606.507 333.885 605.952 334.416C605.397 334.947 604.751 335.212 604.015 335.212C603.171 335.212 602.531 334.832 602.097 334.072C601.602 334.82 601.035 335.194 600.396 335.194H600.287C599.696 335.194 599.274 335.037 599.02 334.724C598.767 334.41 598.634 334.078 598.622 333.728C598.622 333.342 598.737 333.029 598.966 332.787C599.195 332.546 599.467 332.425 599.78 332.425C600.299 332.425 600.559 332.679 600.559 333.185C600.559 333.427 600.486 333.638 600.341 333.819C600.197 334 600.058 334.12 599.925 334.181C599.792 334.241 599.714 334.271 599.69 334.271L599.636 334.289C599.636 334.301 599.672 334.326 599.744 334.362C599.817 334.398 599.913 334.44 600.034 334.488C600.154 334.537 600.269 334.555 600.378 334.543C600.812 334.543 601.186 334.271 601.5 333.728C601.608 333.535 601.747 333.125 601.916 332.498C602.085 331.87 602.254 331.219 602.423 330.543C602.592 329.867 602.688 329.469 602.712 329.349C602.773 329.023 602.803 328.788 602.803 328.643C602.803 328.305 602.712 328.064 602.531 327.919C602.35 327.774 602.145 327.702 601.916 327.702C601.433 327.702 600.981 327.895 600.559 328.281C600.136 328.667 599.841 329.162 599.672 329.765C599.648 329.874 599.617 329.934 599.581 329.946C599.545 329.958 599.449 329.97 599.292 329.982H599.038C598.966 329.91 598.93 329.843 598.93 329.783Z" fill="#F0F0F0"/>
</g>
<path d="M920.113 305.239H904.728V324.016H920.113V305.239Z" fill="black"/>
<g clip-path="url(#clip7_1150_48457)">
<path d="M907.693 311.045C907.693 310.876 907.783 310.586 907.964 310.176C908.145 309.766 908.435 309.337 908.833 308.891C909.232 308.444 909.678 308.227 910.173 308.239C910.668 308.239 911.066 308.378 911.368 308.656C911.669 308.933 911.826 309.319 911.838 309.814C911.814 310.043 911.796 310.17 911.784 310.194C911.784 310.23 911.687 310.508 911.494 311.027C911.301 311.546 911.102 312.131 910.897 312.783C910.692 313.434 910.595 313.953 910.607 314.34C910.607 314.858 910.692 315.221 910.861 315.426C911.03 315.631 911.283 315.739 911.621 315.752C911.899 315.752 912.158 315.685 912.399 315.552C912.641 315.42 912.828 315.281 912.961 315.136C913.093 314.991 913.256 314.792 913.449 314.539C913.449 314.527 913.479 314.406 913.54 314.177C913.6 313.947 913.685 313.591 913.793 313.109C913.902 312.626 914.017 312.179 914.137 311.769C914.596 309.959 914.849 309.012 914.897 308.927C915.054 308.601 915.314 308.438 915.676 308.438C915.833 308.438 915.959 308.481 916.056 308.565C916.153 308.649 916.219 308.722 916.255 308.782C916.291 308.843 916.303 308.897 916.291 308.945C916.291 309.102 915.996 310.369 915.404 312.747C914.813 315.124 914.475 316.427 914.391 316.657C914.053 317.658 913.467 318.455 912.635 319.046C911.802 319.637 910.969 319.939 910.137 319.951C909.594 319.951 909.117 319.818 908.707 319.553C908.296 319.287 908.091 318.889 908.091 318.358C908.091 318.093 908.133 317.869 908.218 317.688C908.302 317.507 908.417 317.375 908.562 317.29C908.707 317.206 908.827 317.145 908.924 317.109C909.02 317.073 909.123 317.055 909.232 317.055C909.763 317.055 910.028 317.308 910.028 317.815C910.028 318.056 909.956 318.268 909.811 318.449C909.666 318.63 909.527 318.75 909.394 318.811C909.262 318.871 909.183 318.901 909.159 318.901L909.105 318.919C909.129 318.98 909.244 319.052 909.449 319.137C909.654 319.221 909.859 319.263 910.064 319.263H910.209C910.414 319.263 910.571 319.251 910.68 319.227C911.078 319.118 911.446 318.889 911.784 318.539C912.122 318.189 912.381 317.815 912.562 317.417C912.743 317.019 912.882 316.681 912.979 316.403C913.075 316.126 913.123 315.945 913.123 315.86L913.015 315.933C912.942 315.981 912.828 316.047 912.671 316.132C912.514 316.216 912.357 316.289 912.2 316.349C911.959 316.409 911.724 316.439 911.494 316.439C910.939 316.439 910.45 316.307 910.028 316.041C909.606 315.776 909.328 315.347 909.195 314.756C909.183 314.671 909.177 314.484 909.177 314.195C909.177 313.507 909.388 312.608 909.811 311.498C910.233 310.387 910.444 309.681 910.444 309.38C910.444 309.368 910.444 309.355 910.444 309.343C910.444 309.235 910.444 309.162 910.444 309.126C910.444 309.09 910.42 309.048 910.372 308.999C910.324 308.951 910.257 308.927 910.173 308.927H910.1C909.823 308.927 909.569 309.042 909.34 309.271C909.111 309.5 908.93 309.748 908.797 310.013C908.664 310.279 908.562 310.532 908.489 310.773C908.417 311.015 908.369 311.148 908.345 311.172C908.32 311.196 908.224 311.208 908.055 311.208H907.801C907.729 311.135 907.693 311.081 907.693 311.045Z" fill="#F0F0F0"/>
</g>
<path d="M746.695 69.1431H732.146V84.0872H746.695V69.1431Z" fill="black"/>
<g clip-path="url(#clip8_1150_48457)">
<path d="M740.735 74.0255C740.614 74.0255 740.294 73.9592 739.776 73.8264C739.257 73.6937 738.877 73.6273 738.635 73.6273C738.394 73.6273 738.189 73.6515 738.02 73.6997C737.851 73.748 737.712 73.8083 737.604 73.8807C737.495 73.9531 737.423 74.0195 737.386 74.0798C737.35 74.1401 737.308 74.2065 737.26 74.2789L737.224 74.3513C737.187 74.3875 737.097 74.4056 736.952 74.4056C736.699 74.4056 736.572 74.3573 736.572 74.2608C736.572 74.2005 736.59 74.116 736.626 74.0074C736.783 73.5368 737.043 73.1326 737.405 72.7948C737.767 72.4569 738.165 72.2518 738.599 72.1794C738.744 72.1553 738.846 72.1432 738.907 72.1432C739.208 72.1432 739.48 72.2458 739.721 72.4509C739.963 72.656 740.192 72.8551 740.409 73.0482C740.626 73.2412 740.855 73.3438 741.097 73.3559C741.362 73.3559 741.628 73.1568 741.893 72.7586C742.159 72.3604 742.297 72.1613 742.309 72.1613C742.321 72.1493 742.412 72.1432 742.581 72.1432H742.816C742.889 72.2156 742.925 72.2639 742.925 72.288C742.925 72.3363 742.895 72.4207 742.834 72.5414C742.774 72.6621 742.689 72.7888 742.581 72.9215C742.472 73.0542 742.37 73.1869 742.273 73.3197C742.177 73.4524 742.092 73.567 742.02 73.6635L741.893 73.8264C741.374 74.4418 740.554 75.2562 739.432 76.2698C738.309 77.2833 737.616 77.9349 737.35 78.2245L737.133 78.4417L737.405 78.4598C737.67 78.4598 738.056 78.5261 738.563 78.6588C739.07 78.7916 739.45 78.8579 739.703 78.8579C740.162 78.8579 740.584 78.7433 740.97 78.514C741.356 78.2848 741.61 77.9831 741.73 77.6091C741.778 77.5005 741.821 77.4341 741.857 77.41C741.893 77.3859 741.984 77.3738 742.128 77.3738C742.358 77.3738 742.472 77.4341 742.472 77.5548C742.472 77.6151 742.466 77.6694 742.454 77.7177C742.249 78.4658 741.851 79.0872 741.26 79.5819C740.668 80.0766 740.077 80.33 739.486 80.342C739.172 80.342 738.895 80.2395 738.653 80.0344C738.412 79.8292 738.177 79.6241 737.948 79.419C737.718 79.2139 737.489 79.1113 737.26 79.1113C736.729 79.1113 736.252 79.4733 735.83 80.1972C735.758 80.2938 735.655 80.342 735.522 80.342H735.432H735.196C735.124 80.2696 735.088 80.2153 735.088 80.1792C735.088 79.9982 735.438 79.4793 736.138 78.6226C736.608 78.0797 737.405 77.2954 738.527 76.2698C739.649 75.2442 740.343 74.5926 740.608 74.3151C740.753 74.122 740.795 74.0255 740.735 74.0255Z" fill="#F0F0F0"/>
</g>
</g>
<path d="M813.203 230.156L829.651 230.204L818.706 242.483L818.694 235.096L813.203 230.156Z" fill="#404040"/>
<path d="M636.025 324.042L619.576 323.994L630.521 311.715L630.534 319.102L636.025 324.042Z" fill="#404040"/>
<path d="M623.229 322.364L825.998 231.835" stroke="#404040" stroke-width="1.5"/>
<path d="M626.434 249.523L613.541 239.308L629.737 236.434L625.176 242.245L626.434 249.523Z" fill="#404040"/>
<path d="M878.47 299.204L891.362 309.419L875.166 312.294L879.727 306.483L878.47 299.204Z" fill="#404040"/>
<path d="M887.484 308.441L617.419 240.287" stroke="#404040" stroke-width="1.5"/>
<path d="M745.227 408.803L738.465 423.798L731.727 408.793L738.474 411.798L745.227 408.803Z" fill="#404040"/>
<path d="M731.951 113.728L738.712 98.7329L745.451 113.738L738.703 110.733L731.951 113.728Z" fill="#404040"/>
<path d="M738.709 102.733L738.468 419.798" stroke="#404040" stroke-width="1.5"/>
<path opacity="0.75" d="M639.749 485.068L627.032 495.501L627.658 479.064L632.369 484.753L639.749 485.068Z" fill="#F0F0F0"/>
<path opacity="0.75" d="M822.056 87.5857L834.773 77.153L834.147 93.5899L829.436 87.9009L822.056 87.5857Z" fill="#F0F0F0"/>
<path opacity="0.75" d="M832.994 80.7356L628.811 491.919" stroke="#F0F0F0" stroke-width="1.5"/>
<path opacity="0.75" d="M783.692 359.703L783.35 376.148L771.269 364.986L778.655 365.105L783.692 359.703Z" fill="#F0F0F0"/>
<path opacity="0.75" d="M710.38 221.792L710.722 205.346L722.803 216.509L715.418 216.389L710.38 221.792Z" fill="#F0F0F0"/>
<path opacity="0.75" d="M712.288 209.027L781.785 372.467" stroke="#F0F0F0" stroke-width="1.5"/>
<path opacity="0.75" d="M615.954 143.111L611.031 127.416L626.043 134.14L619.005 136.384L615.954 143.111Z" fill="#F0F0F0"/>
<path opacity="0.75" d="M820.113 352.397L825.036 368.092L810.025 361.368L817.062 359.125L820.113 352.397Z" fill="#F0F0F0"/>
<path opacity="0.75" d="M822.378 365.103L613.689 130.405" stroke="#F0F0F0" stroke-width="1.5"/>
<path opacity="0.2" d="M735.099 217.114L742.116 214.479" stroke="#F0F0F0" stroke-width="1.5"/>
<path opacity="0.2" d="M743.316 216.787L733.963 214.801" stroke="#F0F0F0" stroke-width="1.5"/>
<path opacity="0.2" d="M735.153 325.553L741.9 322.081" stroke="#F0F0F0" stroke-width="1.5"/>
<path opacity="0.2" d="M743.051 325.121L734.06 322.506" stroke="#F0F0F0" stroke-width="1.5"/>
<path opacity="0.2" d="M707.281 288.201L697.938 285.668" stroke="#F0F0F0" stroke-width="1.5"/>
<path opacity="0.2" d="M702.523 281.302L702.663 292.535" stroke="#F0F0F0" stroke-width="1.5"/>
<path opacity="0.2" d="M776.024 257.224L767.035 255.102" stroke="#F0F0F0" stroke-width="1.5"/>
<path opacity="0.2" d="M771.581 250.952L771.449 261.347" stroke="#F0F0F0" stroke-width="1.5"/>
<path opacity="0.2" d="M782.646 284.481L789.327 281.194" stroke="#F0F0F0" stroke-width="1.5"/>
<path opacity="0.2" d="M786.103 277.258L785.901 288.379" stroke="#F0F0F0" stroke-width="1.5"/>
<path opacity="0.2" d="M690.682 261.111L697.72 258.235" stroke="#F0F0F0" stroke-width="1.5"/>
<path opacity="0.2" d="M694.136 254.411L694.297 264.903" stroke="#F0F0F0" stroke-width="1.5"/>
<path opacity="0.2" d="M735.07 159.546L742.23 157.386" stroke="#F0F0F0" stroke-width="1.5"/>
<path opacity="0.2" d="M743.456 159.279L733.911 157.649" stroke="#F0F0F0" stroke-width="1.5"/>
<path opacity="0.2" d="M735.179 376.679L741.798 372.838" stroke="#F0F0F0" stroke-width="1.5"/>
<path opacity="0.2" d="M742.927 376.201L734.106 373.309" stroke="#F0F0F0" stroke-width="1.5"/>
<path opacity="0.2" d="M667.875 305.958L658.366 303.173" stroke="#F0F0F0" stroke-width="1.5"/>
<path opacity="0.2" d="M662.944 298.697L663.261 310.399" stroke="#F0F0F0" stroke-width="1.5"/>
<path opacity="0.2" d="M806.184 243.633L797.376 241.68" stroke="#F0F0F0" stroke-width="1.5"/>
<path opacity="0.2" d="M801.885 237.634L801.649 247.655" stroke="#F0F0F0" stroke-width="1.5"/>
<path opacity="0.2" d="M833.57 297.421L840.006 293.896" stroke="#F0F0F0" stroke-width="1.5"/>
<path opacity="0.2" d="M837.015 289.907L836.592 301.37" stroke="#F0F0F0" stroke-width="1.5"/>
<path opacity="0.2" d="M649.023 250.525L656.187 247.826" stroke="#F0F0F0" stroke-width="1.5"/>
<path opacity="0.2" d="M652.465 244.058L652.774 254.262" stroke="#F0F0F0" stroke-width="1.5"/>
<path opacity="0.5" d="M698.094 236.907L705.645 222.307" stroke="#F0F0F0" stroke-width="1.5"/>
<path opacity="0.5" d="M702.806 232.143L700.969 227.074" stroke="#F0F0F0" stroke-width="1.5"/>
<path opacity="0.5" d="M767.698 313.789L774.021 300.586" stroke="#F0F0F0" stroke-width="1.5"/>
<path opacity="0.5" d="M772.188 309.988L769.565 304.397" stroke="#F0F0F0" stroke-width="1.5"/>
<path opacity="0.5" d="M704.177 345.311L702.391 338.659" stroke="#F0F0F0" stroke-width="1.5"/>
<path opacity="0.5" d="M699.499 338.441L707.006 345.43" stroke="#F0F0F0" stroke-width="1.5"/>
<path opacity="0.5" d="M773.57 205.318L770.826 201.088" stroke="#F0F0F0" stroke-width="1.5"/>
<path opacity="0.5" d="M769.025 198.967L775.311 207.354" stroke="#F0F0F0" stroke-width="1.5"/>
<path opacity="0.5" d="M747.283 307.668L754.683 292.477" stroke="#F0F0F0" stroke-width="1.5"/>
<path opacity="0.5" d="M747.33 296.038L754.606 304.01" stroke="#F0F0F0" stroke-width="1.5"/>
<path opacity="0.5" d="M724.73 252.271L731.17 239.515" stroke="#F0F0F0" stroke-width="1.5"/>
<path opacity="0.5" d="M724.687 242.122L731.189 249.59" stroke="#F0F0F0" stroke-width="1.5"/>
<path opacity="0.5" d="M655.606 189.976L663.95 174.572" stroke="#F0F0F0" stroke-width="1.5"/>
<path opacity="0.5" d="M660.407 184.572L659.184 179.973" stroke="#F0F0F0" stroke-width="1.5"/>
<path opacity="0.5" d="M796.563 345.672L802.402 333.077" stroke="#F0F0F0" stroke-width="1.5"/>
<path opacity="0.5" d="M800.932 342.239L798.064 336.522" stroke="#F0F0F0" stroke-width="1.5"/>
<path opacity="0.5" d="M666.76 420.796L665.535 412.75" stroke="#F0F0F0" stroke-width="1.5"/>
<path opacity="0.5" d="M662.014 413.638L670.216 419.801" stroke="#F0F0F0" stroke-width="1.5"/>
<path opacity="0.5" d="M805.804 140.29L802.65 137.113" stroke="#F0F0F0" stroke-width="1.5"/>
<path opacity="0.5" d="M801.324 134.174L807.071 143.151" stroke="#F0F0F0" stroke-width="1.5"/>
<path opacity="0.5" d="M761.677 343.023L769.671 326.234" stroke="#F0F0F0" stroke-width="1.5"/>
<path opacity="0.5" d="M761.795 330.483L769.517 338.664" stroke="#F0F0F0" stroke-width="1.5"/>
<path opacity="0.5" d="M715.731 230.166L721.778 218.36" stroke="#F0F0F0" stroke-width="1.5"/>
<path opacity="0.5" d="M715.66 220.628L721.827 227.833" stroke="#F0F0F0" stroke-width="1.5"/>
<path d="M715.994 331.526L703.277 341.959L703.903 325.522L708.614 331.211L715.994 331.526Z" fill="#92D192"/>
<path d="M738.581 270.863L705.056 338.377" stroke="#92D192" stroke-width="1.5"/>
<path d="M751.335 283.607L750.993 300.052L738.912 288.89L746.297 289.009L751.335 283.607Z" fill="#F2777A"/>
<path d="M738.581 270.863L749.428 296.371" stroke="#F2777A" stroke-width="1.5"/>
<path d="M706.803 245.282L701.88 229.587L716.891 236.312L709.854 238.555L706.803 245.282Z" fill="#6AB0F3"/>
<path d="M738.581 270.863L704.538 232.577" stroke="#6AB0F3" stroke-width="1.5"/>
<path d="M544.808 222.285H414.915V315.464H544.808V222.285Z" fill="black"/>
<g clip-path="url(#clip9_1150_48457)">
<path d="M417.761 263.177V225.734H424.983V227.483H419.509V263.177H417.761Z" fill="#F0F0F0"/>
<path d="M417.761 304.824V267.381H419.509V303.076H424.983V304.824H417.761Z" fill="#F0F0F0"/>
<g clip-path="url(#clip10_1150_48457)">
<path d="M417.761 271.555V259H419.509V271.555H417.761Z" fill="#F0F0F0"/>
</g>
<path d="M442.154 229.314L441.883 229.418C441.689 229.488 441.412 229.557 441.051 229.626C440.69 229.696 440.288 229.744 439.844 229.772H439.448V228.815H439.844C440.496 228.787 441.099 228.683 441.654 228.503C442.209 228.322 442.598 228.156 442.82 228.003C443.042 227.85 443.236 227.698 443.403 227.545C443.43 227.504 443.514 227.483 443.652 227.483C443.777 227.483 443.895 227.524 444.006 227.608V233.831L444.027 240.075C444.124 240.172 444.208 240.234 444.277 240.262C444.346 240.29 444.513 240.317 444.776 240.345C445.04 240.373 445.47 240.387 446.067 240.387H446.608V241.344H446.379C446.088 241.303 444.985 241.282 443.07 241.282C441.183 241.282 440.093 241.303 439.802 241.344H439.552V240.387H440.093C440.399 240.387 440.662 240.387 440.884 240.387C441.106 240.387 441.28 240.38 441.405 240.366C441.53 240.352 441.641 240.331 441.738 240.304C441.835 240.276 441.89 240.262 441.904 240.262C441.918 240.262 441.96 240.227 442.029 240.158C442.098 240.089 442.14 240.061 442.154 240.075V229.314Z" fill="#92D192"/>
<path d="M481.47 229.314L481.199 229.418C481.005 229.488 480.728 229.557 480.367 229.626C480.006 229.696 479.604 229.744 479.16 229.772H478.764V228.815H479.16C479.812 228.787 480.415 228.683 480.97 228.503C481.525 228.322 481.914 228.156 482.136 228.003C482.358 227.85 482.552 227.698 482.719 227.545C482.746 227.504 482.83 227.483 482.968 227.483C483.093 227.483 483.211 227.524 483.322 227.608V233.831L483.343 240.075C483.44 240.172 483.523 240.234 483.593 240.262C483.662 240.29 483.829 240.317 484.092 240.345C484.356 240.373 484.786 240.387 485.383 240.387H485.924V241.344H485.695C485.404 241.303 484.3 241.282 482.386 241.282C480.499 241.282 479.409 241.303 479.118 241.344H478.868V240.387H479.409C479.715 240.387 479.978 240.387 480.2 240.387C480.422 240.387 480.596 240.38 480.721 240.366C480.845 240.352 480.956 240.331 481.054 240.304C481.151 240.276 481.206 240.262 481.22 240.262C481.234 240.262 481.276 240.227 481.345 240.158C481.414 240.089 481.456 240.061 481.47 240.075V229.314Z" fill="#F2777A"/>
<path d="M512.69 229.314L512.419 229.418C512.225 229.488 511.947 229.557 511.586 229.626C511.226 229.696 510.823 229.744 510.379 229.772H509.984V228.815H510.379C511.031 228.787 511.635 228.683 512.19 228.503C512.745 228.322 513.134 228.156 513.356 228.003C513.578 227.85 513.772 227.698 513.938 227.545C513.966 227.504 514.049 227.483 514.188 227.483C514.313 227.483 514.431 227.524 514.542 227.608V233.831L514.563 240.075C514.66 240.172 514.743 240.234 514.813 240.262C514.882 240.29 515.048 240.317 515.312 240.345C515.576 240.373 516.006 240.387 516.602 240.387H517.144V241.344H516.915C516.623 241.303 515.52 241.282 513.605 241.282C511.718 241.282 510.629 241.303 510.338 241.344H510.088V240.387H510.629C510.934 240.387 511.198 240.387 511.42 240.387C511.642 240.387 511.815 240.38 511.94 240.366C512.065 240.352 512.176 240.331 512.273 240.304C512.37 240.276 512.426 240.262 512.44 240.262C512.454 240.262 512.495 240.227 512.565 240.158C512.634 240.089 512.676 240.061 512.69 240.075V229.314Z" fill="#6AB0F3"/>
<path d="M439.719 258.307C440.496 257.183 441.557 256.621 442.903 256.621C443.569 256.621 444.235 256.801 444.901 257.162C445.567 257.523 446.108 258.161 446.524 259.077C447.038 260.229 447.295 261.81 447.295 263.822C447.295 265.973 446.996 267.617 446.4 268.755C446.122 269.338 445.74 269.803 445.255 270.15C444.769 270.496 444.346 270.711 443.985 270.795C443.624 270.878 443.271 270.927 442.924 270.94C442.563 270.94 442.202 270.899 441.842 270.816C441.481 270.732 441.058 270.51 440.572 270.15C440.086 269.789 439.705 269.324 439.427 268.755C438.831 267.617 438.532 265.973 438.532 263.822C438.532 261.408 438.928 259.57 439.719 258.307ZM444.402 258.057C443.985 257.613 443.493 257.391 442.924 257.391C442.341 257.391 441.842 257.613 441.425 258.057C441.078 258.418 440.849 258.917 440.738 259.556C440.627 260.194 440.572 261.526 440.572 263.552C440.572 265.744 440.627 267.187 440.738 267.881C440.849 268.575 441.099 269.123 441.488 269.525C441.876 269.941 442.355 270.15 442.924 270.15C443.479 270.15 443.951 269.941 444.339 269.525C444.741 269.109 444.991 268.526 445.088 267.777C445.185 267.028 445.241 265.619 445.255 263.552C445.255 261.54 445.199 260.215 445.088 259.576C444.977 258.938 444.748 258.432 444.402 258.057Z" fill="#92D192"/>
<path d="M481.47 258.452L481.199 258.557C481.005 258.626 480.728 258.695 480.367 258.765C480.006 258.834 479.604 258.883 479.16 258.91H478.764V257.953H479.16C479.812 257.925 480.415 257.821 480.97 257.641C481.525 257.46 481.914 257.294 482.136 257.141C482.358 256.989 482.552 256.836 482.719 256.683C482.746 256.642 482.83 256.621 482.968 256.621C483.093 256.621 483.211 256.663 483.322 256.746V262.969L483.343 269.213C483.44 269.31 483.523 269.372 483.593 269.4C483.662 269.428 483.829 269.456 484.092 269.483C484.356 269.511 484.786 269.525 485.383 269.525H485.924V270.482H485.695C485.404 270.441 484.3 270.42 482.386 270.42C480.499 270.42 479.409 270.441 479.118 270.482H478.868V269.525H479.409C479.715 269.525 479.978 269.525 480.2 269.525C480.422 269.525 480.596 269.518 480.721 269.504C480.845 269.49 480.956 269.47 481.054 269.442C481.151 269.414 481.206 269.4 481.22 269.4C481.234 269.4 481.276 269.365 481.345 269.296C481.414 269.227 481.456 269.199 481.47 269.213V258.452Z" fill="#F2777A"/>
<path d="M510.254 258.307C511.031 257.183 512.093 256.621 513.439 256.621C514.105 256.621 514.771 256.801 515.437 257.162C516.103 257.523 516.644 258.161 517.06 259.077C517.573 260.229 517.83 261.81 517.83 263.822C517.83 265.973 517.532 267.617 516.935 268.755C516.658 269.338 516.276 269.803 515.791 270.15C515.305 270.496 514.882 270.711 514.521 270.795C514.16 270.878 513.806 270.927 513.459 270.94C513.099 270.94 512.738 270.899 512.377 270.816C512.016 270.732 511.593 270.51 511.108 270.15C510.622 269.789 510.24 269.324 509.963 268.755C509.366 267.617 509.068 265.973 509.068 263.822C509.068 261.408 509.463 259.57 510.254 258.307ZM514.937 258.057C514.521 257.613 514.028 257.391 513.459 257.391C512.877 257.391 512.377 257.613 511.961 258.057C511.614 258.418 511.385 258.917 511.274 259.556C511.163 260.194 511.108 261.526 511.108 263.552C511.108 265.744 511.163 267.187 511.274 267.881C511.385 268.575 511.635 269.123 512.023 269.525C512.412 269.941 512.891 270.15 513.459 270.15C514.014 270.15 514.486 269.941 514.875 269.525C515.277 269.109 515.527 268.526 515.624 267.777C515.721 267.028 515.777 265.619 515.791 263.552C515.791 261.54 515.735 260.215 515.624 259.576C515.513 258.938 515.284 258.432 514.937 258.057Z" fill="#6AB0F3"/>
<path d="M431.373 294.688C431.373 294.688 431.373 294.598 431.373 294.417C431.373 294.237 431.47 294.098 431.664 294.001H443.756C443.964 294.112 444.069 294.251 444.069 294.417C444.069 294.584 443.964 294.722 443.756 294.833H431.664C431.47 294.736 431.373 294.598 431.373 294.417V294.688Z" fill="#92D192"/>
<path d="M450.25 287.591L449.98 287.695C449.785 287.764 449.508 287.833 449.147 287.903C448.786 287.972 448.384 288.021 447.94 288.049H447.544V287.091H447.94C448.592 287.063 449.196 286.959 449.751 286.779C450.306 286.599 450.694 286.432 450.916 286.279C451.138 286.127 451.332 285.974 451.499 285.822C451.527 285.78 451.61 285.759 451.749 285.759C451.874 285.759 451.992 285.801 452.103 285.884V292.107L452.123 298.351C452.22 298.448 452.304 298.511 452.373 298.538C452.442 298.566 452.609 298.594 452.873 298.622C453.136 298.649 453.566 298.663 454.163 298.663H454.704V299.621H454.475C454.184 299.579 453.081 299.558 451.166 299.558C449.279 299.558 448.19 299.579 447.898 299.621H447.648V298.663H448.19C448.495 298.663 448.759 298.663 448.981 298.663C449.203 298.663 449.376 298.656 449.501 298.642C449.626 298.629 449.737 298.608 449.834 298.58C449.931 298.552 449.987 298.538 450 298.538C450.014 298.538 450.056 298.504 450.125 298.434C450.195 298.365 450.236 298.337 450.25 298.351V287.591Z" fill="#92D192"/>
<path d="M479.034 287.445C479.812 286.321 480.873 285.759 482.219 285.759C482.885 285.759 483.551 285.94 484.217 286.3C484.883 286.661 485.424 287.299 485.84 288.215C486.354 289.367 486.61 290.949 486.61 292.961C486.61 295.111 486.312 296.755 485.715 297.893C485.438 298.476 485.056 298.941 484.571 299.288C484.085 299.635 483.662 299.85 483.301 299.933C482.94 300.016 482.587 300.065 482.24 300.079C481.879 300.079 481.518 300.037 481.157 299.954C480.797 299.87 480.373 299.648 479.888 299.288C479.402 298.927 479.021 298.462 478.743 297.893C478.146 296.755 477.848 295.111 477.848 292.961C477.848 290.546 478.244 288.708 479.034 287.445ZM483.717 287.195C483.301 286.751 482.809 286.529 482.24 286.529C481.657 286.529 481.157 286.751 480.741 287.195C480.394 287.556 480.165 288.056 480.054 288.694C479.943 289.332 479.888 290.664 479.888 292.69C479.888 294.882 479.943 296.325 480.054 297.019C480.165 297.713 480.415 298.261 480.804 298.663C481.192 299.08 481.671 299.288 482.24 299.288C482.795 299.288 483.266 299.08 483.655 298.663C484.057 298.247 484.307 297.664 484.404 296.915C484.501 296.166 484.557 294.757 484.571 292.69C484.571 290.678 484.515 289.353 484.404 288.715C484.293 288.076 484.064 287.57 483.717 287.195Z" fill="#F2777A"/>
<path d="M512.69 287.591L512.419 287.695C512.225 287.764 511.947 287.833 511.586 287.903C511.226 287.972 510.823 288.021 510.379 288.049H509.984V287.091H510.379C511.031 287.063 511.635 286.959 512.19 286.779C512.745 286.599 513.134 286.432 513.356 286.279C513.578 286.127 513.772 285.974 513.938 285.822C513.966 285.78 514.049 285.759 514.188 285.759C514.313 285.759 514.431 285.801 514.542 285.884V292.107L514.563 298.351C514.66 298.448 514.743 298.511 514.813 298.538C514.882 298.566 515.048 298.594 515.312 298.622C515.576 298.649 516.006 298.663 516.602 298.663H517.144V299.621H516.915C516.623 299.579 515.52 299.558 513.605 299.558C511.718 299.558 510.629 299.579 510.338 299.621H510.088V298.663H510.629C510.934 298.663 511.198 298.663 511.42 298.663C511.642 298.663 511.815 298.656 511.94 298.642C512.065 298.629 512.176 298.608 512.273 298.58C512.37 298.552 512.426 298.538 512.44 298.538C512.454 298.538 512.495 298.504 512.565 298.434C512.634 298.365 512.676 298.337 512.69 298.351V287.591Z" fill="#6AB0F3"/>
<path d="M523.283 227.483V225.734H530.505V263.177H528.757V227.483H523.283Z" fill="#F0F0F0"/>
<path d="M528.757 303.076V267.381H530.505V304.824H523.283V303.076H528.757Z" fill="#F0F0F0"/>
<g clip-path="url(#clip11_1150_48457)">
<path d="M528.757 271.555V259H530.505V271.555H528.757Z" fill="#F0F0F0"/>
</g>
</g>
<path d="M419.795 193.524C420.035 193.751 420.155 194.031 420.155 194.364C420.155 194.697 420.035 194.984 419.795 195.224C419.568 195.464 419.288 195.584 418.955 195.584C418.448 195.584 418.055 195.324 417.775 194.804C417.575 194.417 417.475 193.911 417.475 193.284C417.475 192.937 417.482 192.717 417.495 192.624C417.655 191.611 418.035 190.724 418.635 189.964C418.982 189.564 419.195 189.351 419.275 189.324C419.355 189.271 419.468 189.317 419.615 189.464C419.748 189.597 419.815 189.691 419.815 189.744C419.815 189.784 419.735 189.884 419.575 190.044C418.708 190.924 418.248 191.957 418.195 193.144C418.195 193.304 418.202 193.384 418.215 193.384C418.442 193.237 418.682 193.164 418.935 193.164C419.282 193.164 419.568 193.284 419.795 193.524ZM423.875 193.524C424.115 193.751 424.235 194.031 424.235 194.364C424.235 194.697 424.115 194.984 423.875 195.224C423.648 195.464 423.368 195.584 423.035 195.584C422.528 195.584 422.135 195.324 421.855 194.804C421.655 194.417 421.555 193.911 421.555 193.284C421.555 192.937 421.562 192.717 421.575 192.624C421.735 191.611 422.115 190.724 422.715 189.964C423.062 189.564 423.275 189.351 423.355 189.324C423.435 189.271 423.548 189.317 423.695 189.464C423.828 189.597 423.895 189.691 423.895 189.744C423.895 189.784 423.815 189.884 423.655 190.044C422.788 190.924 422.328 191.957 422.275 193.144C422.275 193.304 422.282 193.384 422.295 193.384C422.522 193.237 422.762 193.164 423.015 193.164C423.362 193.164 423.648 193.284 423.875 193.524ZM427.455 193.904C427.095 193.904 426.808 193.791 426.595 193.564C426.395 193.337 426.295 193.044 426.295 192.684C426.295 191.924 426.595 191.291 427.195 190.784C427.795 190.264 428.488 189.957 429.275 189.864H429.575C430.415 189.864 431.155 190.011 431.795 190.304C432.675 190.744 433.228 191.371 433.455 192.184C433.495 192.317 433.515 192.497 433.515 192.724C433.515 193.511 433.268 194.217 432.775 194.844C432.295 195.457 431.688 195.897 430.955 196.164C430.888 196.191 430.888 196.211 430.955 196.224C430.982 196.237 431.048 196.257 431.155 196.284C431.968 196.511 432.655 196.937 433.215 197.564C433.775 198.177 434.055 198.877 434.055 199.664C434.055 200.357 433.875 200.991 433.515 201.564C433.168 202.137 432.722 202.584 432.175 202.904C431.428 203.371 430.595 203.604 429.675 203.604C428.795 203.604 428.015 203.417 427.335 203.044C426.655 202.671 426.195 202.171 425.955 201.544C425.822 201.264 425.755 200.937 425.755 200.564C425.755 200.191 425.875 199.891 426.115 199.664C426.368 199.424 426.668 199.304 427.015 199.304C427.388 199.304 427.695 199.424 427.935 199.664C428.175 199.904 428.295 200.204 428.295 200.564C428.295 200.871 428.208 201.137 428.035 201.364C427.862 201.591 427.628 201.737 427.335 201.804L427.195 201.844C427.915 202.444 428.742 202.744 429.675 202.744C430.408 202.744 430.962 202.391 431.335 201.684C431.562 201.244 431.675 200.571 431.675 199.664V199.264C431.675 197.997 431.248 197.151 430.395 196.724C430.195 196.644 429.788 196.597 429.175 196.584L428.335 196.564L428.275 196.524C428.248 196.484 428.235 196.377 428.235 196.204C428.235 196.044 428.255 195.944 428.295 195.904C428.335 195.864 428.368 195.844 428.395 195.844C428.768 195.844 429.155 195.811 429.555 195.744C430.142 195.664 430.588 195.337 430.895 194.764C431.202 194.177 431.355 193.477 431.355 192.664C431.355 191.797 431.122 191.217 430.655 190.924C430.375 190.737 430.062 190.644 429.715 190.644C429.048 190.644 428.462 190.824 427.955 191.184C427.902 191.211 427.842 191.257 427.775 191.324C427.708 191.377 427.655 191.431 427.615 191.484L427.555 191.564C427.595 191.577 427.642 191.591 427.695 191.604C427.962 191.631 428.182 191.757 428.355 191.984C428.542 192.211 428.635 192.471 428.635 192.764C428.635 193.084 428.522 193.357 428.295 193.584C428.082 193.797 427.802 193.904 427.455 193.904ZM438.935 203.164C438.735 203.124 438.075 203.104 436.955 203.104C435.968 203.104 435.402 203.124 435.255 203.164H435.135V202.244H435.415C436.362 202.177 437.055 201.924 437.495 201.484C437.548 201.431 437.888 200.991 438.515 200.164L439.435 198.964L438.275 197.404C437.488 196.324 437.082 195.771 437.055 195.744C436.935 195.624 436.755 195.544 436.515 195.504C436.435 195.504 436.195 195.491 435.795 195.464H435.235V194.544H435.375C435.855 194.571 436.542 194.584 437.435 194.584H438.315C439.022 194.584 439.415 194.571 439.495 194.544H439.655V195.464C439.175 195.531 438.935 195.637 438.935 195.784C438.935 195.824 439.142 196.137 439.555 196.724C439.982 197.311 440.248 197.657 440.355 197.764L440.855 197.084C441.215 196.631 441.402 196.377 441.415 196.324C441.468 196.231 441.495 196.124 441.495 196.004C441.495 195.791 441.415 195.637 441.255 195.544C441.228 195.531 441.188 195.511 441.135 195.484L441.055 195.464H440.955V194.544H441.095C441.268 194.584 441.928 194.604 443.075 194.604C444.088 194.604 444.655 194.584 444.775 194.544H444.895V195.464H444.755C444.102 195.464 443.562 195.577 443.135 195.804C442.935 195.897 442.762 196.017 442.615 196.164C442.468 196.311 442.235 196.591 441.915 197.004C441.822 197.137 441.675 197.331 441.475 197.584C441.288 197.837 441.182 197.984 441.155 198.024L440.835 198.444L442.075 200.144C442.942 201.317 443.388 201.917 443.415 201.944C443.615 202.144 444.108 202.244 444.895 202.244H445.235V203.164H445.115C444.982 203.124 444.342 203.104 443.195 203.104C441.968 203.104 441.235 203.124 440.995 203.164H440.815V202.244H440.875C441.022 202.244 441.168 202.211 441.315 202.144C441.462 202.064 441.535 201.984 441.535 201.904C441.535 201.891 440.995 201.144 439.915 199.664C439.902 199.677 439.688 199.957 439.275 200.504C438.875 201.051 438.655 201.351 438.615 201.404C438.562 201.497 438.535 201.597 438.535 201.704C438.535 201.851 438.582 201.977 438.675 202.084C438.782 202.191 438.902 202.244 439.035 202.244C439.062 202.244 439.075 202.397 439.075 202.704V203.164H438.935ZM448.021 193.904C447.661 193.904 447.375 193.791 447.161 193.564C446.961 193.337 446.861 193.044 446.861 192.684C446.861 191.924 447.161 191.291 447.761 190.784C448.361 190.264 449.055 189.957 449.841 189.864H450.141C450.981 189.864 451.721 190.011 452.361 190.304C453.241 190.744 453.795 191.371 454.021 192.184C454.061 192.317 454.081 192.497 454.081 192.724C454.081 193.511 453.835 194.217 453.341 194.844C452.861 195.457 452.255 195.897 451.521 196.164C451.455 196.191 451.455 196.211 451.521 196.224C451.548 196.237 451.615 196.257 451.721 196.284C452.535 196.511 453.221 196.937 453.781 197.564C454.341 198.177 454.621 198.877 454.621 199.664C454.621 200.357 454.441 200.991 454.081 201.564C453.735 202.137 453.288 202.584 452.741 202.904C451.995 203.371 451.161 203.604 450.241 203.604C449.361 203.604 448.581 203.417 447.901 203.044C447.221 202.671 446.761 202.171 446.521 201.544C446.388 201.264 446.321 200.937 446.321 200.564C446.321 200.191 446.441 199.891 446.681 199.664C446.935 199.424 447.235 199.304 447.581 199.304C447.955 199.304 448.261 199.424 448.501 199.664C448.741 199.904 448.861 200.204 448.861 200.564C448.861 200.871 448.775 201.137 448.601 201.364C448.428 201.591 448.195 201.737 447.901 201.804L447.761 201.844C448.481 202.444 449.308 202.744 450.241 202.744C450.975 202.744 451.528 202.391 451.901 201.684C452.128 201.244 452.241 200.571 452.241 199.664V199.264C452.241 197.997 451.815 197.151 450.961 196.724C450.761 196.644 450.355 196.597 449.741 196.584L448.901 196.564L448.841 196.524C448.815 196.484 448.801 196.377 448.801 196.204C448.801 196.044 448.821 195.944 448.861 195.904C448.901 195.864 448.935 195.844 448.961 195.844C449.335 195.844 449.721 195.811 450.121 195.744C450.708 195.664 451.155 195.337 451.461 194.764C451.768 194.177 451.921 193.477 451.921 192.664C451.921 191.797 451.688 191.217 451.221 190.924C450.941 190.737 450.628 190.644 450.281 190.644C449.615 190.644 449.028 190.824 448.521 191.184C448.468 191.211 448.408 191.257 448.341 191.324C448.275 191.377 448.221 191.431 448.181 191.484L448.121 191.564C448.161 191.577 448.208 191.591 448.261 191.604C448.528 191.631 448.748 191.757 448.921 191.984C449.108 192.211 449.201 192.471 449.201 192.764C449.201 193.084 449.088 193.357 448.861 193.584C448.648 193.797 448.368 193.904 448.021 193.904ZM463.121 190.724C462.988 190.591 462.855 190.511 462.721 190.484C462.601 190.457 462.268 190.437 461.721 190.424H461.061V189.504H463.181C464.581 189.504 465.308 189.524 465.361 189.564L465.461 189.664C468.248 196.997 469.641 200.671 469.641 200.684C470.788 197.671 471.888 194.757 472.941 191.944C473.341 190.877 473.588 190.231 473.681 190.004C473.775 189.777 473.855 189.631 473.921 189.564C473.975 189.524 474.701 189.504 476.101 189.504H478.221V190.424H477.561C477.015 190.437 476.668 190.457 476.521 190.484C476.388 190.511 476.275 190.591 476.181 190.724V201.944C476.275 202.077 476.388 202.157 476.521 202.184C476.668 202.211 477.015 202.231 477.561 202.244H478.221V203.164H478.001C477.788 203.124 476.855 203.104 475.201 203.104C473.548 203.104 472.615 203.124 472.401 203.164H472.181V202.244H472.841C473.388 202.231 473.721 202.211 473.841 202.184C473.975 202.157 474.108 202.077 474.241 201.944V196.224C474.241 195.197 474.241 194.437 474.241 193.944C474.241 193.451 474.241 192.884 474.241 192.244C474.241 191.604 474.241 191.157 474.241 190.904L474.221 190.524C471.115 198.764 469.535 202.931 469.481 203.024C469.428 203.104 469.295 203.144 469.081 203.144C468.868 203.144 468.735 203.104 468.681 203.024L464.001 190.684V191.044C463.988 191.284 463.981 191.704 463.981 192.304C463.981 192.904 463.981 193.437 463.981 193.904C463.981 194.371 463.981 195.084 463.981 196.044L464.001 201.444C464.161 201.924 464.728 202.191 465.701 202.244H466.041V203.164H465.861C465.688 203.124 464.921 203.104 463.561 203.104C462.175 203.104 461.395 203.124 461.221 203.164H461.061V202.244H461.401C462.308 202.191 462.861 201.964 463.061 201.564L463.121 201.444V190.724ZM481.901 196.744C481.701 196.957 481.448 197.064 481.141 197.064C480.835 197.064 480.581 196.957 480.381 196.744C480.181 196.531 480.081 196.277 480.081 195.984C480.081 195.797 480.135 195.584 480.241 195.344C480.415 194.984 480.761 194.704 481.281 194.504C481.801 194.304 482.435 194.204 483.181 194.204C484.061 194.204 484.821 194.404 485.461 194.804C486.115 195.204 486.541 195.724 486.741 196.364C486.808 196.551 486.841 196.764 486.841 197.004C486.855 197.231 486.861 197.991 486.861 199.284C486.861 200.591 486.861 201.357 486.861 201.584C486.875 201.797 486.915 201.964 486.981 202.084C487.061 202.271 487.195 202.364 487.381 202.364C487.555 202.364 487.681 202.271 487.761 202.084C487.841 201.924 487.881 201.557 487.881 200.984V200.264H488.681V201.044C488.668 201.577 488.648 201.891 488.621 201.984C488.501 202.357 488.281 202.671 487.961 202.924C487.641 203.164 487.261 203.284 486.821 203.284C486.488 203.284 486.188 203.171 485.921 202.944C485.668 202.704 485.495 202.417 485.401 202.084V202.004C485.361 202.044 485.281 202.137 485.161 202.284C485.041 202.417 484.955 202.511 484.901 202.564C484.248 203.111 483.488 203.384 482.621 203.384C481.928 203.384 481.308 203.237 480.761 202.944C480.215 202.651 479.848 202.264 479.661 201.784C479.555 201.531 479.501 201.277 479.501 201.024C479.501 200.397 479.761 199.824 480.281 199.304C480.588 198.997 480.968 198.744 481.421 198.544C482.328 198.131 483.488 197.884 484.901 197.804H485.181V197.364C485.181 196.911 485.141 196.577 485.061 196.364C484.928 195.924 484.695 195.577 484.361 195.324C484.028 195.071 483.615 194.944 483.121 194.944C482.228 194.944 481.781 194.997 481.781 195.104C482.075 195.304 482.221 195.597 482.221 195.984C482.221 196.277 482.115 196.531 481.901 196.744ZM485.181 199.664C485.181 198.891 485.175 198.504 485.161 198.504C485.121 198.504 485.088 198.511 485.061 198.524C483.235 198.644 482.068 199.184 481.561 200.144C481.415 200.411 481.341 200.711 481.341 201.044C481.341 201.497 481.501 201.877 481.821 202.184C482.141 202.491 482.535 202.644 483.001 202.644C483.535 202.644 483.988 202.484 484.361 202.164C484.748 201.844 485.001 201.451 485.121 200.984C485.148 200.891 485.168 200.451 485.181 199.664ZM491.641 191.164V190.864H492.441V194.544H495.141V195.464H492.441V198.344C492.455 200.011 492.461 200.957 492.461 201.184C492.475 201.397 492.521 201.604 492.601 201.804C492.788 202.324 493.115 202.584 493.581 202.584C494.168 202.584 494.528 202.111 494.661 201.164C494.675 201.057 494.681 200.751 494.681 200.244V199.544H495.481V200.244C495.481 200.857 495.448 201.297 495.381 201.564C495.235 202.097 494.981 202.531 494.621 202.864C494.275 203.197 493.815 203.364 493.241 203.364C492.521 203.364 491.948 203.171 491.521 202.784C491.095 202.384 490.848 201.844 490.781 201.164C490.768 201.071 490.761 200.084 490.761 198.204V195.464H489.181V194.724H489.361C489.855 194.684 490.275 194.471 490.621 194.084C491.235 193.444 491.575 192.471 491.641 191.164ZM497.035 194.544C497.088 194.544 497.588 194.511 498.535 194.444C499.495 194.364 499.988 194.324 500.015 194.324H500.075V195.704C500.328 195.277 500.608 194.944 500.915 194.704C501.221 194.464 501.628 194.344 502.135 194.344C502.508 194.344 502.828 194.417 503.095 194.564C503.615 194.831 503.875 195.211 503.875 195.704C503.875 195.997 503.775 196.244 503.575 196.444C503.375 196.631 503.135 196.724 502.855 196.724C502.575 196.724 502.335 196.631 502.135 196.444C501.948 196.257 501.855 196.017 501.855 195.724C501.855 195.497 501.908 195.311 502.015 195.164C502.041 195.111 502.055 195.077 502.055 195.064C502.028 195.037 501.875 195.064 501.595 195.144C501.381 195.251 501.221 195.351 501.115 195.444C500.581 195.951 500.275 196.791 500.195 197.964V198.744C500.181 199.264 500.175 199.711 500.175 200.084C500.175 200.257 500.175 200.444 500.175 200.644C500.175 200.831 500.175 200.997 500.175 201.144C500.188 201.291 500.195 201.424 500.195 201.544C500.195 201.664 500.195 201.764 500.195 201.844V201.944C500.248 202.051 500.328 202.117 500.435 202.144C500.568 202.197 500.921 202.231 501.495 202.244H502.115V203.164H501.935C501.695 203.124 500.848 203.104 499.395 203.104C498.088 203.104 497.341 203.124 497.155 203.164H496.995V202.244H497.315H497.535C498.095 202.244 498.428 202.151 498.535 201.964V201.804C498.535 201.684 498.535 201.531 498.535 201.344C498.548 201.157 498.555 200.951 498.555 200.724C498.555 200.484 498.555 200.224 498.555 199.944C498.555 199.651 498.555 199.371 498.555 199.104C498.555 198.691 498.555 198.251 498.555 197.784C498.555 197.304 498.555 196.911 498.555 196.604L498.535 196.144C498.495 195.891 498.395 195.724 498.235 195.644C498.088 195.551 497.795 195.491 497.355 195.464H496.995V195.004C496.995 194.697 497.008 194.544 497.035 194.544ZM507.047 189.784C507.38 189.811 507.653 189.931 507.867 190.144C508.08 190.344 508.187 190.624 508.187 190.984C508.187 191.464 508.007 191.804 507.647 192.004C507.473 192.124 507.26 192.184 507.007 192.184C506.46 192.184 506.073 191.917 505.847 191.384C505.82 191.304 505.807 191.171 505.807 190.984C505.807 190.611 505.92 190.317 506.147 190.104C506.387 189.891 506.687 189.784 507.047 189.784ZM505.067 194.544C505.12 194.544 505.627 194.511 506.587 194.444C507.547 194.364 508.04 194.324 508.067 194.324H508.127V201.924C508.193 202.057 508.273 202.144 508.367 202.184C508.46 202.211 508.693 202.231 509.067 202.244H509.527V203.164H509.367C509.22 203.124 508.527 203.104 507.287 203.104C506.073 203.104 505.347 203.124 505.107 203.164H504.947V202.244H505.267H505.487C506.047 202.244 506.38 202.151 506.487 201.964C506.5 201.937 506.507 200.971 506.507 199.064C506.507 197.064 506.48 195.997 506.427 195.864C506.32 195.597 505.927 195.464 505.247 195.464H505.027V195.004C505.027 194.697 505.04 194.544 505.067 194.544ZM514.013 203.164C513.813 203.124 513.153 203.104 512.033 203.104C511.046 203.104 510.48 203.124 510.333 203.164H510.213V202.244H510.493C511.44 202.177 512.133 201.924 512.573 201.484C512.626 201.431 512.966 200.991 513.593 200.164L514.513 198.964L513.353 197.404C512.566 196.324 512.16 195.771 512.133 195.744C512.013 195.624 511.833 195.544 511.593 195.504C511.513 195.504 511.273 195.491 510.873 195.464H510.313V194.544H510.453C510.933 194.571 511.62 194.584 512.513 194.584H513.393C514.1 194.584 514.493 194.571 514.573 194.544H514.733V195.464C514.253 195.531 514.013 195.637 514.013 195.784C514.013 195.824 514.22 196.137 514.633 196.724C515.06 197.311 515.326 197.657 515.433 197.764L515.933 197.084C516.293 196.631 516.48 196.377 516.493 196.324C516.546 196.231 516.573 196.124 516.573 196.004C516.573 195.791 516.493 195.637 516.333 195.544C516.306 195.531 516.266 195.511 516.213 195.484L516.133 195.464H516.033V194.544H516.173C516.346 194.584 517.006 194.604 518.153 194.604C519.166 194.604 519.733 194.584 519.853 194.544H519.973V195.464H519.833C519.18 195.464 518.64 195.577 518.213 195.804C518.013 195.897 517.84 196.017 517.693 196.164C517.546 196.311 517.313 196.591 516.993 197.004C516.9 197.137 516.753 197.331 516.553 197.584C516.366 197.837 516.26 197.984 516.233 198.024L515.913 198.444L517.153 200.144C518.02 201.317 518.466 201.917 518.493 201.944C518.693 202.144 519.186 202.244 519.973 202.244H520.313V203.164H520.193C520.06 203.124 519.42 203.104 518.273 203.104C517.046 203.104 516.313 203.124 516.073 203.164H515.893V202.244H515.953C516.1 202.244 516.246 202.211 516.393 202.144C516.54 202.064 516.613 201.984 516.613 201.904C516.613 201.891 516.073 201.144 514.993 199.664C514.98 199.677 514.766 199.957 514.353 200.504C513.953 201.051 513.733 201.351 513.693 201.404C513.64 201.497 513.613 201.597 513.613 201.704C513.613 201.851 513.66 201.977 513.753 202.084C513.86 202.191 513.98 202.244 514.113 202.244C514.14 202.244 514.153 202.397 514.153 202.704V203.164H514.013ZM522.02 195.584C521.966 195.584 521.873 195.517 521.74 195.384C521.62 195.251 521.56 195.164 521.56 195.124C521.56 195.084 521.64 194.984 521.8 194.824C522.666 193.944 523.126 192.911 523.18 191.724C523.18 191.564 523.173 191.484 523.16 191.484C522.933 191.631 522.693 191.704 522.44 191.704C522.106 191.704 521.82 191.591 521.58 191.364C521.353 191.124 521.24 190.831 521.24 190.484C521.24 190.151 521.346 189.871 521.56 189.644C521.786 189.404 522.073 189.284 522.42 189.284C522.9 189.284 523.293 189.537 523.6 190.044C523.813 190.471 523.92 190.984 523.92 191.584C523.92 192.397 523.733 193.164 523.36 193.884C523.093 194.431 522.766 194.897 522.38 195.284C522.18 195.484 522.06 195.584 522.02 195.584ZM526.1 195.584C526.046 195.584 525.953 195.517 525.82 195.384C525.7 195.251 525.64 195.164 525.64 195.124C525.64 195.084 525.72 194.984 525.88 194.824C526.746 193.944 527.206 192.911 527.26 191.724C527.26 191.564 527.253 191.484 527.24 191.484C527.013 191.631 526.773 191.704 526.52 191.704C526.186 191.704 525.9 191.591 525.66 191.364C525.433 191.124 525.32 190.831 525.32 190.484C525.32 190.151 525.426 189.871 525.64 189.644C525.866 189.404 526.153 189.284 526.5 189.284C526.98 189.284 527.373 189.537 527.68 190.044C527.893 190.471 528 190.984 528 191.584C528 192.397 527.813 193.164 527.44 193.884C527.173 194.431 526.846 194.897 526.46 195.284C526.26 195.484 526.14 195.584 526.1 195.584Z" fill="white"/>
<defs>
<clipPath id="clip0_1150_48457">
<rect width="10.352" height="8.2" fill="white" transform="translate(42.9893 327.013)"/>
</clipPath>
<clipPath id="clip1_1150_48457">
<rect width="8.872" height="11.712" fill="white" transform="translate(352.312 308.239)"/>
</clipPath>
<clipPath id="clip2_1150_48457">
<rect width="8.416" height="8.2" fill="white" transform="translate(179.455 72.1426)"/>
</clipPath>
<clipPath id="clip3_1150_48457">
<rect width="6.152" height="14.824" fill="white" transform="translate(129.285 286.686)"/>
</clipPath>
<clipPath id="clip4_1150_48457">
<rect width="6.008" height="18.352" fill="white" transform="translate(247.354 278.83)"/>
</clipPath>
<clipPath id="clip5_1150_48457">
<rect width="9.432" height="19.424" fill="white" transform="translate(179.153 177.809)"/>
</clipPath>
<clipPath id="clip6_1150_48457">
<rect width="10.352" height="8.2" fill="white" transform="translate(597.989 327.013)"/>
</clipPath>
<clipPath id="clip7_1150_48457">
<rect width="8.872" height="11.712" fill="white" transform="translate(907.312 308.239)"/>
</clipPath>
<clipPath id="clip8_1150_48457">
<rect width="8.416" height="8.2" fill="white" transform="translate(734.455 72.1426)"/>
</clipPath>
<clipPath id="clip9_1150_48457">
<rect width="126.045" height="79.0898" fill="white" transform="translate(411.121 225.734)"/>
</clipPath>
<clipPath id="clip10_1150_48457">
<rect width="13.8823" height="8.36687" fill="white" transform="matrix(1 0 0 -1 411.122 269.463)"/>
</clipPath>
<clipPath id="clip11_1150_48457">
<rect width="13.8823" height="8.36687" fill="white" transform="matrix(1 0 0 -1 523.283 269.463)"/>
</clipPath>
</defs>
</svg>
