<svg width="640" height="360" viewBox="0 0 640 360" fill="none" xmlns="http://www.w3.org/2000/svg">
<g clip-path="url(#clip0_442_11425)">
<path d="M640 0H0V360H640V0Z" fill="black"/>
<g clip-path="url(#clip1_442_11425)">
<path d="M0 5H640" stroke="#202020" stroke-width="1.5"/>
<path d="M0 55H640" stroke="#202020" stroke-width="1.5"/>
<path d="M0 105H640" stroke="#202020" stroke-width="1.5"/>
<path d="M0 155H640" stroke="#202020" stroke-width="1.5"/>
<path d="M0 205H640" stroke="#202020" stroke-width="1.5"/>
<path d="M0 255H640" stroke="#202020" stroke-width="1.5"/>
<path d="M0 305H640" stroke="#202020" stroke-width="1.5"/>
<path d="M0 355H640" stroke="#202020" stroke-width="1.5"/>
<path d="M45 0V360" stroke="#202020" stroke-width="1.5"/>
<path d="M95 0V360" stroke="#202020" stroke-width="1.5"/>
<path d="M145 0V360" stroke="#202020" stroke-width="1.5"/>
<path d="M195 0V360" stroke="#202020" stroke-width="1.5"/>
<path d="M245 0V360" stroke="#202020" stroke-width="1.5"/>
<path d="M295 0V360" stroke="#202020" stroke-width="1.5"/>
<path d="M345 0V360" stroke="#202020" stroke-width="1.5"/>
<path d="M395 0V360" stroke="#202020" stroke-width="1.5"/>
<path d="M445 0V360" stroke="#202020" stroke-width="1.5"/>
<path d="M495 0V360" stroke="#202020" stroke-width="1.5"/>
<path d="M545 0V360" stroke="#202020" stroke-width="1.5"/>
<path d="M595 0V360" stroke="#202020" stroke-width="1.5"/>
<path d="M0 30H640" stroke="#404040" stroke-width="1.5"/>
<path d="M0 80H640" stroke="#404040" stroke-width="1.5"/>
<path d="M0 130H640" stroke="#404040" stroke-width="1.5"/>
<path d="M0 180H640" stroke="#404040" stroke-width="1.5"/>
<path d="M0 230H640" stroke="#404040" stroke-width="1.5"/>
<path d="M0 280H640" stroke="#404040" stroke-width="1.5"/>
<path d="M0 330H640" stroke="#404040" stroke-width="1.5"/>
<path d="M20 0V360" stroke="#404040" stroke-width="1.5"/>
<path d="M70 0V360" stroke="#404040" stroke-width="1.5"/>
<path d="M120 0V360" stroke="#404040" stroke-width="1.5"/>
<path d="M170 0V360" stroke="#404040" stroke-width="1.5"/>
<path d="M220 0V360" stroke="#404040" stroke-width="1.5"/>
<path d="M270 0V360" stroke="#404040" stroke-width="1.5"/>
<path d="M320 0V360" stroke="#404040" stroke-width="1.5"/>
<path d="M370 0V360" stroke="#404040" stroke-width="1.5"/>
<path d="M420 0V360" stroke="#404040" stroke-width="1.5"/>
<path d="M470 0V360" stroke="#404040" stroke-width="1.5"/>
<path d="M520 0V360" stroke="#404040" stroke-width="1.5"/>
<path d="M570 0V360" stroke="#404040" stroke-width="1.5"/>
<path d="M620 0V360" stroke="#404040" stroke-width="1.5"/>
<rect x="370" y="205" width="200" height="125" fill="black"/>
<path d="M393.6 296.605C393.467 296.472 393.333 296.392 393.2 296.365C393.08 296.338 392.747 296.318 392.2 296.305H391.54V295.385H395.28C397.84 295.385 399.167 295.392 399.26 295.405C400.287 295.485 401.193 295.825 401.98 296.425C402.78 297.025 403.267 297.772 403.44 298.665C403.467 298.772 403.48 298.972 403.48 299.265C403.48 299.545 403.467 299.738 403.44 299.845C403.28 300.605 402.88 301.265 402.24 301.825C401.6 302.372 400.86 302.732 400.02 302.905C399.727 302.972 398.907 303.012 397.56 303.025H395.68V305.425C395.68 307.012 395.7 307.832 395.74 307.885C395.847 308.032 396.293 308.112 397.08 308.125H397.74V309.045H397.52C397.293 309.005 396.333 308.985 394.64 308.985C392.947 308.985 391.987 309.005 391.76 309.045H391.54V308.125H392.2C392.747 308.112 393.08 308.092 393.2 308.065C393.333 308.038 393.467 307.958 393.6 307.825V296.605ZM400.48 296.965C400.133 296.672 399.773 296.492 399.4 296.425C399.04 296.345 398.46 296.305 397.66 296.305H397.14C396.98 296.305 396.813 296.312 396.64 296.325C396.48 296.325 396.34 296.325 396.22 296.325C396.1 296.325 396.033 296.325 396.02 296.325C395.833 296.338 395.72 296.392 395.68 296.485C395.64 296.538 395.62 297.505 395.62 299.385V302.205H397.04C398.067 302.205 398.62 302.198 398.7 302.185C399.593 302.105 400.22 301.845 400.58 301.405C400.953 300.965 401.14 300.258 401.14 299.285C401.14 298.658 401.093 298.178 401 297.845C400.92 297.498 400.747 297.205 400.48 296.965ZM405.053 300.425C405.107 300.425 405.607 300.392 406.553 300.325C407.513 300.245 408.007 300.205 408.033 300.205H408.093V301.585C408.347 301.158 408.627 300.825 408.933 300.585C409.24 300.345 409.647 300.225 410.153 300.225C410.527 300.225 410.847 300.298 411.113 300.445C411.633 300.712 411.893 301.092 411.893 301.585C411.893 301.878 411.793 302.125 411.593 302.325C411.393 302.512 411.153 302.605 410.873 302.605C410.593 302.605 410.353 302.512 410.153 302.325C409.967 302.138 409.873 301.898 409.873 301.605C409.873 301.378 409.927 301.192 410.033 301.045C410.06 300.992 410.073 300.958 410.073 300.945C410.047 300.918 409.893 300.945 409.613 301.025C409.4 301.132 409.24 301.232 409.133 301.325C408.6 301.832 408.293 302.672 408.213 303.845V304.625C408.2 305.145 408.193 305.592 408.193 305.965C408.193 306.138 408.193 306.325 408.193 306.525C408.193 306.712 408.193 306.878 408.193 307.025C408.207 307.172 408.213 307.305 408.213 307.425C408.213 307.545 408.213 307.645 408.213 307.725V307.825C408.267 307.932 408.347 307.998 408.453 308.025C408.587 308.078 408.94 308.112 409.513 308.125H410.133V309.045H409.953C409.713 309.005 408.867 308.985 407.413 308.985C406.107 308.985 405.36 309.005 405.173 309.045H405.013V308.125H405.333H405.553C406.113 308.125 406.447 308.032 406.553 307.845V307.685C406.553 307.565 406.553 307.412 406.553 307.225C406.567 307.038 406.573 306.832 406.573 306.605C406.573 306.365 406.573 306.105 406.573 305.825C406.573 305.532 406.573 305.252 406.573 304.985C406.573 304.572 406.573 304.132 406.573 303.665C406.573 303.185 406.573 302.792 406.573 302.485L406.553 302.025C406.513 301.772 406.413 301.605 406.253 301.525C406.107 301.432 405.813 301.372 405.373 301.345H405.013V300.885C405.013 300.578 405.027 300.425 405.053 300.425ZM413.005 304.765C413.005 303.552 413.392 302.512 414.165 301.645C414.939 300.765 415.865 300.258 416.945 300.125C417.159 300.098 417.325 300.085 417.445 300.085C418.605 300.085 419.612 300.512 420.465 301.365C421.399 302.298 421.865 303.425 421.865 304.745C421.865 305.012 421.832 305.325 421.765 305.685C421.605 306.525 421.225 307.258 420.625 307.885C420.039 308.498 419.325 308.912 418.485 309.125C418.179 309.205 417.832 309.245 417.445 309.245C417.045 309.245 416.692 309.205 416.385 309.125C415.385 308.872 414.572 308.345 413.945 307.545C413.319 306.732 413.005 305.805 413.005 304.765ZM418.525 301.065C418.165 300.905 417.819 300.825 417.485 300.825C417.085 300.825 416.705 300.905 416.345 301.065C415.599 301.438 415.152 302.165 415.005 303.245C414.979 303.485 414.965 303.912 414.965 304.525C414.965 305.792 415.092 306.692 415.345 307.225C415.772 308.038 416.472 308.445 417.445 308.445C419.072 308.445 419.885 307.358 419.885 305.185V304.545C419.885 303.678 419.852 303.092 419.785 302.785C419.612 301.972 419.192 301.398 418.525 301.065ZM425.645 295.665C425.979 295.692 426.252 295.812 426.465 296.025C426.679 296.225 426.785 296.505 426.785 296.865C426.785 297.345 426.605 297.685 426.245 297.885C426.072 298.005 425.859 298.065 425.605 298.065C425.059 298.065 424.672 297.798 424.445 297.265C424.419 297.185 424.405 297.052 424.405 296.865C424.405 296.492 424.519 296.198 424.745 295.985C424.985 295.772 425.285 295.665 425.645 295.665ZM423.525 300.425C423.592 300.425 424.139 300.392 425.165 300.325C426.192 300.245 426.712 300.205 426.725 300.205H426.805V305.365C426.792 308.298 426.779 309.918 426.765 310.225C426.765 310.545 426.732 310.805 426.665 311.005C426.465 311.618 426.092 312.125 425.545 312.525C424.999 312.938 424.352 313.145 423.605 313.145C423.005 313.145 422.479 312.985 422.025 312.665C421.572 312.358 421.345 311.932 421.345 311.385C421.345 311.078 421.445 310.825 421.645 310.625C421.845 310.425 422.099 310.325 422.405 310.325C422.712 310.325 422.965 310.425 423.165 310.625C423.379 310.838 423.485 311.098 423.485 311.405C423.485 311.738 423.325 312.038 423.005 312.305C423.405 312.372 423.645 312.405 423.725 312.405C423.885 312.405 424.025 312.385 424.145 312.345C424.705 312.145 425.039 311.558 425.145 310.585C425.172 310.425 425.185 308.972 425.185 306.225C425.185 303.478 425.179 302.065 425.165 301.985C425.112 301.718 424.999 301.552 424.825 301.485C424.652 301.405 424.339 301.358 423.885 301.345H423.485V300.885C423.485 300.578 423.499 300.425 423.525 300.425ZM436.859 304.145C436.859 304.238 436.812 304.332 436.719 304.425H431.079V304.725C431.079 305.712 431.212 306.458 431.479 306.965C431.959 307.952 432.785 308.445 433.959 308.445C434.532 308.445 435.012 308.232 435.399 307.805C435.665 307.538 435.872 307.192 436.019 306.765C436.059 306.618 436.099 306.525 436.139 306.485C436.179 306.445 436.285 306.425 436.459 306.425C436.725 306.425 436.859 306.492 436.859 306.625C436.859 306.678 436.839 306.765 436.799 306.885C436.545 307.578 436.139 308.152 435.579 308.605C435.032 309.045 434.359 309.265 433.559 309.265C433.305 309.265 433.012 309.232 432.679 309.165C431.919 309.018 431.239 308.672 430.639 308.125C430.039 307.578 429.612 306.918 429.359 306.145C429.199 305.665 429.119 305.178 429.119 304.685C429.119 303.458 429.479 302.425 430.199 301.585C430.919 300.732 431.805 300.238 432.859 300.105C432.912 300.092 433.005 300.085 433.139 300.085C434.352 300.085 435.272 300.445 435.899 301.165C436.539 301.872 436.859 302.865 436.859 304.145ZM435.219 303.545C435.099 302.092 434.605 301.212 433.739 300.905C433.645 300.865 433.505 300.838 433.319 300.825C432.625 300.825 432.059 301.145 431.619 301.785C431.352 302.212 431.179 302.805 431.099 303.565V303.705H435.219V303.545ZM445.185 302.645C444.972 302.832 444.719 302.925 444.425 302.925C444.132 302.925 443.885 302.825 443.685 302.625C443.485 302.425 443.385 302.178 443.385 301.885C443.385 301.578 443.485 301.325 443.685 301.125C443.752 301.058 443.779 301.018 443.765 301.005C443.765 300.992 443.705 300.978 443.585 300.965C443.239 300.912 442.912 300.885 442.605 300.885C441.925 300.885 441.392 301.098 441.005 301.525C440.379 302.152 440.065 303.198 440.065 304.665C440.065 305.758 440.272 306.618 440.685 307.245C441.232 308.058 441.965 308.465 442.885 308.465C443.219 308.465 443.512 308.398 443.765 308.265C444.325 307.985 444.712 307.465 444.925 306.705C444.952 306.598 444.985 306.532 445.025 306.505C445.065 306.478 445.172 306.465 445.345 306.465H445.625C445.705 306.545 445.745 306.605 445.745 306.645C445.745 306.898 445.579 307.292 445.245 307.825C444.579 308.785 443.639 309.265 442.425 309.265C441.759 309.265 441.125 309.112 440.525 308.805C439.205 308.125 438.412 306.992 438.145 305.405C438.132 305.325 438.125 305.112 438.125 304.765C438.125 304.418 438.132 304.198 438.145 304.105C438.279 303.065 438.692 302.172 439.385 301.425C440.092 300.678 440.959 300.238 441.985 300.105C441.999 300.105 442.059 300.105 442.165 300.105C442.272 300.092 442.365 300.085 442.445 300.085C444.165 300.085 445.172 300.538 445.465 301.445C445.505 301.565 445.525 301.718 445.525 301.905C445.525 302.212 445.412 302.458 445.185 302.645ZM449.152 297.045V296.745H449.952V300.425H452.652V301.345H449.952V304.225C449.965 305.892 449.972 306.838 449.972 307.065C449.985 307.278 450.032 307.485 450.112 307.685C450.299 308.205 450.625 308.465 451.092 308.465C451.679 308.465 452.039 307.992 452.172 307.045C452.185 306.938 452.192 306.632 452.192 306.125V305.425H452.992V306.125C452.992 306.738 452.959 307.178 452.892 307.445C452.745 307.978 452.492 308.412 452.132 308.745C451.785 309.078 451.325 309.245 450.752 309.245C450.032 309.245 449.459 309.052 449.032 308.665C448.605 308.265 448.359 307.725 448.292 307.045C448.279 306.952 448.272 305.965 448.272 304.085V301.345H446.692V300.605H446.872C447.365 300.565 447.785 300.352 448.132 299.965C448.745 299.325 449.085 298.352 449.152 297.045ZM461.925 297.045V296.745H462.725V300.425H465.425V301.345H462.725V304.225C462.739 305.892 462.745 306.838 462.745 307.065C462.759 307.278 462.805 307.485 462.885 307.685C463.072 308.205 463.399 308.465 463.865 308.465C464.452 308.465 464.812 307.992 464.945 307.045C464.959 306.938 464.965 306.632 464.965 306.125V305.425H465.765V306.125C465.765 306.738 465.732 307.178 465.665 307.445C465.519 307.978 465.265 308.412 464.905 308.745C464.559 309.078 464.099 309.245 463.525 309.245C462.805 309.245 462.232 309.052 461.805 308.665C461.379 308.265 461.132 307.725 461.065 307.045C461.052 306.952 461.045 305.965 461.045 304.085V301.345H459.465V300.605H459.645C460.139 300.565 460.559 300.352 460.905 299.965C461.519 299.325 461.859 298.352 461.925 297.045ZM467.419 295.385C467.486 295.385 468.012 295.352 468.999 295.285C469.986 295.205 470.486 295.165 470.499 295.165H470.559V301.705C471.386 300.705 472.346 300.205 473.439 300.205C475.079 300.205 475.979 300.958 476.139 302.465C476.152 302.558 476.159 303.485 476.159 305.245C476.159 306.952 476.166 307.818 476.179 307.845C476.286 308.032 476.619 308.125 477.179 308.125H477.399H477.719V309.045H477.559C477.386 309.005 476.639 308.985 475.319 308.985C473.999 308.985 473.252 309.005 473.079 309.045H472.919V308.125H473.239H473.399C474.106 308.125 474.459 308.018 474.459 307.805C474.472 307.778 474.479 306.858 474.479 305.045C474.466 303.245 474.452 302.292 474.439 302.185C474.346 301.758 474.192 301.452 473.979 301.265C473.779 301.065 473.466 300.965 473.039 300.965C472.439 300.965 471.912 301.192 471.459 301.645C470.992 302.112 470.719 302.698 470.639 303.405C470.639 303.418 470.639 303.545 470.639 303.785C470.639 304.012 470.632 304.305 470.619 304.665C470.619 305.025 470.619 305.365 470.619 305.685C470.619 305.885 470.619 306.098 470.619 306.325C470.619 306.538 470.619 306.732 470.619 306.905C470.632 307.078 470.639 307.238 470.639 307.385C470.639 307.518 470.639 307.632 470.639 307.725V307.845C470.746 308.032 471.079 308.125 471.639 308.125H471.859H472.179V309.045H472.019C471.846 309.005 471.099 308.985 469.779 308.985C468.459 308.985 467.712 309.005 467.539 309.045H467.379V308.125H467.699H467.919C468.479 308.125 468.812 308.032 468.919 307.845V307.685C468.919 307.565 468.919 307.412 468.919 307.225C468.919 307.038 468.919 306.818 468.919 306.565C468.919 306.312 468.919 306.025 468.919 305.705C468.932 305.372 468.939 305.038 468.939 304.705C468.939 304.358 468.939 303.992 468.939 303.605C468.939 303.205 468.939 302.825 468.939 302.465C468.939 301.972 468.939 301.452 468.939 300.905C468.939 300.345 468.932 299.845 468.919 299.405C468.919 298.965 468.919 298.565 468.919 298.205C468.919 297.832 468.919 297.538 468.919 297.325C468.919 297.112 468.919 296.998 468.919 296.985C468.879 296.732 468.779 296.565 468.619 296.485C468.472 296.392 468.179 296.332 467.739 296.305H467.379V295.845C467.379 295.538 467.392 295.385 467.419 295.385ZM486.292 304.145C486.292 304.238 486.246 304.332 486.152 304.425H480.512V304.725C480.512 305.712 480.646 306.458 480.912 306.965C481.392 307.952 482.219 308.445 483.392 308.445C483.966 308.445 484.446 308.232 484.832 307.805C485.099 307.538 485.306 307.192 485.452 306.765C485.492 306.618 485.532 306.525 485.572 306.485C485.612 306.445 485.719 306.425 485.892 306.425C486.159 306.425 486.292 306.492 486.292 306.625C486.292 306.678 486.272 306.765 486.232 306.885C485.979 307.578 485.572 308.152 485.012 308.605C484.466 309.045 483.792 309.265 482.992 309.265C482.739 309.265 482.446 309.232 482.112 309.165C481.352 309.018 480.672 308.672 480.072 308.125C479.472 307.578 479.046 306.918 478.792 306.145C478.632 305.665 478.552 305.178 478.552 304.685C478.552 303.458 478.912 302.425 479.632 301.585C480.352 300.732 481.239 300.238 482.292 300.105C482.346 300.092 482.439 300.085 482.572 300.085C483.786 300.085 484.706 300.445 485.332 301.165C485.972 301.872 486.292 302.865 486.292 304.145ZM484.652 303.545C484.532 302.092 484.039 301.212 483.172 300.905C483.079 300.865 482.939 300.838 482.752 300.825C482.059 300.825 481.492 301.145 481.052 301.785C480.786 302.212 480.612 302.805 480.532 303.565V303.705H484.652V303.545ZM487.419 300.425C487.472 300.425 487.979 300.392 488.939 300.325C489.912 300.245 490.412 300.205 490.439 300.205H490.499V301.005C490.499 301.512 490.506 301.765 490.519 301.765L490.539 301.745C491.259 300.718 492.279 300.205 493.599 300.205C495.132 300.258 495.979 301.012 496.139 302.465C496.152 302.558 496.159 303.485 496.159 305.245C496.159 306.952 496.166 307.818 496.179 307.845C496.286 308.032 496.619 308.125 497.179 308.125H497.399H497.719V309.045H497.559C497.386 309.005 496.639 308.985 495.319 308.985C493.999 308.985 493.252 309.005 493.079 309.045H492.919V308.125H493.239H493.399C494.106 308.125 494.459 308.018 494.459 307.805C494.472 307.778 494.479 306.858 494.479 305.045C494.466 303.245 494.452 302.292 494.439 302.185C494.346 301.758 494.192 301.452 493.979 301.265C493.779 301.065 493.466 300.965 493.039 300.965C492.439 300.965 491.912 301.192 491.459 301.645C490.992 302.112 490.719 302.698 490.639 303.405C490.639 303.418 490.639 303.545 490.639 303.785C490.639 304.012 490.632 304.305 490.619 304.665C490.619 305.025 490.619 305.365 490.619 305.685C490.619 305.885 490.619 306.098 490.619 306.325C490.619 306.538 490.619 306.732 490.619 306.905C490.632 307.078 490.639 307.238 490.639 307.385C490.639 307.518 490.639 307.632 490.639 307.725V307.845C490.746 308.032 491.079 308.125 491.639 308.125H491.859H492.179V309.045H492.019C491.846 309.005 491.099 308.985 489.779 308.985C488.459 308.985 487.712 309.005 487.539 309.045H487.379V308.125H487.699H487.919C488.479 308.125 488.812 308.032 488.919 307.845V307.685C488.919 307.565 488.919 307.412 488.919 307.225C488.919 307.038 488.919 306.832 488.919 306.605C488.932 306.365 488.939 306.105 488.939 305.825C488.939 305.532 488.939 305.252 488.939 304.985C488.939 304.572 488.932 304.132 488.919 303.665C488.919 303.185 488.919 302.792 488.919 302.485V302.025C488.879 301.772 488.779 301.605 488.619 301.525C488.472 301.432 488.179 301.372 487.739 301.345H487.379V300.885C487.379 300.578 487.392 300.425 487.419 300.425ZM508.892 302.725C508.892 302.112 508.706 301.632 508.332 301.285C507.959 300.938 507.446 300.765 506.792 300.765C505.566 300.765 504.952 301.198 504.952 302.065C504.952 302.238 504.966 302.352 504.992 302.405C505.112 302.725 505.319 302.958 505.612 303.105C505.906 303.238 506.359 303.365 506.972 303.485C507.732 303.618 508.252 303.765 508.532 303.925C509.372 304.325 509.912 304.985 510.152 305.905C510.166 305.985 510.172 306.145 510.172 306.385C510.172 307.332 509.886 308.045 509.312 308.525C508.752 309.005 507.966 309.245 506.952 309.245C506.152 309.245 505.459 309.005 504.872 308.525L504.712 308.665L504.532 308.845C504.452 308.925 504.372 308.998 504.292 309.065L504.072 309.265H503.912C503.819 309.265 503.732 309.225 503.652 309.145V307.565C503.652 306.712 503.652 306.218 503.652 306.085C503.666 305.938 503.699 305.852 503.752 305.825C503.779 305.812 503.886 305.805 504.072 305.805C504.246 305.805 504.346 305.818 504.372 305.845C504.412 305.872 504.452 305.965 504.492 306.125C504.599 306.632 504.772 307.092 505.012 307.505C505.479 308.185 506.126 308.525 506.952 308.525C508.246 308.525 508.892 308.005 508.892 306.965C508.892 306.578 508.772 306.265 508.532 306.025C508.319 305.772 508.039 305.592 507.692 305.485C507.466 305.432 507.146 305.358 506.732 305.265C505.986 305.118 505.479 304.978 505.212 304.845C504.332 304.432 503.819 303.812 503.672 302.985C503.659 302.932 503.652 302.832 503.652 302.685C503.652 301.152 504.592 300.292 506.472 300.105C506.526 300.078 506.686 300.078 506.952 300.105C507.486 300.105 507.952 300.205 508.352 300.405L508.652 300.565L508.832 300.425C509.006 300.278 509.152 300.165 509.272 300.085H509.432C509.526 300.085 509.612 300.125 509.692 300.205V302.845L509.572 302.965H509.012C508.932 302.885 508.892 302.805 508.892 302.725ZM518.603 302.645C518.39 302.832 518.137 302.925 517.843 302.925C517.55 302.925 517.303 302.825 517.103 302.625C516.903 302.425 516.803 302.178 516.803 301.885C516.803 301.578 516.903 301.325 517.103 301.125C517.17 301.058 517.197 301.018 517.183 301.005C517.183 300.992 517.123 300.978 517.003 300.965C516.657 300.912 516.33 300.885 516.023 300.885C515.343 300.885 514.81 301.098 514.423 301.525C513.797 302.152 513.483 303.198 513.483 304.665C513.483 305.758 513.69 306.618 514.103 307.245C514.65 308.058 515.383 308.465 516.303 308.465C516.637 308.465 516.93 308.398 517.183 308.265C517.743 307.985 518.13 307.465 518.343 306.705C518.37 306.598 518.403 306.532 518.443 306.505C518.483 306.478 518.59 306.465 518.763 306.465H519.043C519.123 306.545 519.163 306.605 519.163 306.645C519.163 306.898 518.997 307.292 518.663 307.825C517.997 308.785 517.057 309.265 515.843 309.265C515.177 309.265 514.543 309.112 513.943 308.805C512.623 308.125 511.83 306.992 511.563 305.405C511.55 305.325 511.543 305.112 511.543 304.765C511.543 304.418 511.55 304.198 511.563 304.105C511.697 303.065 512.11 302.172 512.803 301.425C513.51 300.678 514.377 300.238 515.403 300.105C515.417 300.105 515.477 300.105 515.583 300.105C515.69 300.092 515.783 300.085 515.863 300.085C517.583 300.085 518.59 300.538 518.883 301.445C518.923 301.565 518.943 301.718 518.943 301.905C518.943 302.212 518.83 302.458 518.603 302.645ZM522.83 302.625C522.63 302.838 522.377 302.945 522.07 302.945C521.763 302.945 521.51 302.838 521.31 302.625C521.11 302.412 521.01 302.158 521.01 301.865C521.01 301.678 521.063 301.465 521.17 301.225C521.343 300.865 521.69 300.585 522.21 300.385C522.73 300.185 523.363 300.085 524.11 300.085C524.99 300.085 525.75 300.285 526.39 300.685C527.043 301.085 527.47 301.605 527.67 302.245C527.737 302.432 527.77 302.645 527.77 302.885C527.783 303.112 527.79 303.872 527.79 305.165C527.79 306.472 527.79 307.238 527.79 307.465C527.803 307.678 527.843 307.845 527.91 307.965C527.99 308.152 528.123 308.245 528.31 308.245C528.483 308.245 528.61 308.152 528.69 307.965C528.77 307.805 528.81 307.438 528.81 306.865V306.145H529.61V306.925C529.597 307.458 529.577 307.772 529.55 307.865C529.43 308.238 529.21 308.552 528.89 308.805C528.57 309.045 528.19 309.165 527.75 309.165C527.417 309.165 527.117 309.052 526.85 308.825C526.597 308.585 526.423 308.298 526.33 307.965V307.885C526.29 307.925 526.21 308.018 526.09 308.165C525.97 308.298 525.883 308.392 525.83 308.445C525.177 308.992 524.417 309.265 523.55 309.265C522.857 309.265 522.237 309.118 521.69 308.825C521.143 308.532 520.777 308.145 520.59 307.665C520.483 307.412 520.43 307.158 520.43 306.905C520.43 306.278 520.69 305.705 521.21 305.185C521.517 304.878 521.897 304.625 522.35 304.425C523.257 304.012 524.417 303.765 525.83 303.685H526.11V303.245C526.11 302.792 526.07 302.458 525.99 302.245C525.857 301.805 525.623 301.458 525.29 301.205C524.957 300.952 524.543 300.825 524.05 300.825C523.157 300.825 522.71 300.878 522.71 300.985C523.003 301.185 523.15 301.478 523.15 301.865C523.15 302.158 523.043 302.412 522.83 302.625ZM526.11 305.545C526.11 304.772 526.103 304.385 526.09 304.385C526.05 304.385 526.017 304.392 525.99 304.405C524.163 304.525 522.997 305.065 522.49 306.025C522.343 306.292 522.27 306.592 522.27 306.925C522.27 307.378 522.43 307.758 522.75 308.065C523.07 308.372 523.463 308.525 523.93 308.525C524.463 308.525 524.917 308.365 525.29 308.045C525.677 307.725 525.93 307.332 526.05 306.865C526.077 306.772 526.097 306.332 526.11 305.545ZM530.31 295.385C530.377 295.385 530.897 295.352 531.87 295.285C532.857 295.205 533.363 295.165 533.39 295.165H533.45V301.465C533.45 305.692 533.457 307.818 533.47 307.845C533.577 308.032 533.91 308.125 534.47 308.125H534.69H535.01V309.045H534.85C534.61 309.005 533.877 308.985 532.65 308.985C531.343 308.985 530.603 309.005 530.43 309.045H530.27V308.125H530.59H530.81C531.37 308.125 531.703 308.032 531.81 307.845V307.685C531.81 307.565 531.81 307.412 531.81 307.225C531.81 307.038 531.81 306.818 531.81 306.565C531.823 306.312 531.83 306.025 531.83 305.705C531.83 305.372 531.83 305.038 531.83 304.705C531.83 304.358 531.83 303.992 531.83 303.605C531.83 303.205 531.83 302.825 531.83 302.465C531.83 301.972 531.83 301.452 531.83 300.905C531.83 300.345 531.83 299.845 531.83 299.405C531.83 298.965 531.823 298.565 531.81 298.205C531.81 297.832 531.81 297.538 531.81 297.325C531.81 297.112 531.81 296.998 531.81 296.985C531.77 296.732 531.67 296.565 531.51 296.485C531.363 296.392 531.07 296.332 530.63 296.305H530.27V295.845C530.27 295.538 530.283 295.385 530.31 295.385ZM543.616 304.145C543.616 304.238 543.57 304.332 543.476 304.425H537.836V304.725C537.836 305.712 537.97 306.458 538.236 306.965C538.716 307.952 539.543 308.445 540.716 308.445C541.29 308.445 541.77 308.232 542.156 307.805C542.423 307.538 542.63 307.192 542.776 306.765C542.816 306.618 542.856 306.525 542.896 306.485C542.936 306.445 543.043 306.425 543.216 306.425C543.483 306.425 543.616 306.492 543.616 306.625C543.616 306.678 543.596 306.765 543.556 306.885C543.303 307.578 542.896 308.152 542.336 308.605C541.79 309.045 541.116 309.265 540.316 309.265C540.063 309.265 539.77 309.232 539.436 309.165C538.676 309.018 537.996 308.672 537.396 308.125C536.796 307.578 536.37 306.918 536.116 306.145C535.956 305.665 535.876 305.178 535.876 304.685C535.876 303.458 536.236 302.425 536.956 301.585C537.676 300.732 538.563 300.238 539.616 300.105C539.67 300.092 539.763 300.085 539.896 300.085C541.11 300.085 542.03 300.445 542.656 301.165C543.296 301.872 543.616 302.865 543.616 304.145ZM541.976 303.545C541.856 302.092 541.363 301.212 540.496 300.905C540.403 300.865 540.263 300.838 540.076 300.825C539.383 300.825 538.816 301.145 538.376 301.785C538.11 302.212 537.936 302.805 537.856 303.565V303.705H541.976V303.545Z" fill="white"/>
<g clip-path="url(#clip2_442_11425)">
<path d="M429.246 236.635C428.879 236.635 428.594 236.52 428.391 236.289C428.187 236.058 428.079 235.76 428.065 235.393C428.065 234.647 428.391 233.982 429.042 233.398C429.694 232.814 430.481 232.523 431.404 232.523C431.879 232.523 432.178 232.529 432.3 232.543C433.304 232.706 434.071 233.066 434.601 233.622C435.13 234.179 435.401 234.783 435.415 235.434C435.415 236.14 435.184 236.825 434.723 237.49C434.261 238.155 433.623 238.637 432.809 238.936L432.748 238.977C432.748 238.99 432.809 239.011 432.931 239.038C433.053 239.065 433.25 239.126 433.522 239.221C433.793 239.316 434.051 239.458 434.295 239.649C435.408 240.368 435.965 241.318 435.965 242.499C435.965 243.571 435.544 244.508 434.702 245.309C433.861 246.109 432.795 246.51 431.506 246.51C430.42 246.51 429.483 246.218 428.696 245.634C427.909 245.051 427.515 244.311 427.515 243.415C427.515 243.035 427.638 242.73 427.882 242.499C428.126 242.268 428.432 242.146 428.798 242.132C429.178 242.132 429.49 242.255 429.735 242.499C429.979 242.743 430.101 243.049 430.101 243.415C430.101 243.564 430.081 243.7 430.04 243.822C429.999 243.944 429.952 244.053 429.897 244.148C429.843 244.243 429.769 244.324 429.674 244.392C429.579 244.46 429.497 244.515 429.429 244.555C429.361 244.596 429.293 244.623 429.226 244.637C429.158 244.65 429.103 244.671 429.063 244.698L428.981 244.718C429.674 245.329 430.515 245.634 431.506 245.634C432.252 245.634 432.816 245.275 433.196 244.555C433.427 244.107 433.542 243.422 433.542 242.499V242.092C433.542 240.802 433.108 239.94 432.239 239.506C432.035 239.425 431.621 239.377 430.997 239.363L430.142 239.343L430.081 239.302C430.054 239.262 430.04 239.153 430.04 238.977C430.04 238.732 430.094 238.61 430.203 238.61C430.583 238.61 430.977 238.576 431.384 238.508C431.845 238.44 432.266 238.155 432.646 237.653C433.026 237.151 433.216 236.391 433.216 235.373V235.21C433.216 234.436 432.979 233.9 432.504 233.602C432.205 233.412 431.886 233.317 431.547 233.317C431.112 233.317 430.712 233.391 430.345 233.541C429.979 233.69 429.721 233.846 429.572 234.009C429.422 234.172 429.348 234.253 429.348 234.253H429.409C429.45 234.267 429.504 234.28 429.572 234.294C429.64 234.307 429.707 234.341 429.775 234.396C429.843 234.45 429.925 234.497 430.02 234.538C430.115 234.579 430.183 234.654 430.223 234.762C430.264 234.871 430.318 234.973 430.386 235.068C430.454 235.163 430.474 235.298 430.447 235.475C430.447 235.773 430.352 236.038 430.162 236.269C429.972 236.5 429.667 236.622 429.246 236.635Z" fill="#92D192"/>
<path d="M437.268 240.218C437.268 240.109 437.329 239.899 437.451 239.587C437.573 239.275 437.743 238.922 437.96 238.528C438.177 238.134 438.476 237.795 438.856 237.51C439.236 237.225 439.636 237.076 440.057 237.062C440.681 237.062 441.15 237.232 441.462 237.571C441.774 237.91 441.93 238.311 441.93 238.772C441.93 239.017 441.699 239.777 441.238 241.053C440.776 242.329 440.546 243.285 440.546 243.923C440.546 244.507 440.641 244.914 440.831 245.145C441.021 245.376 441.306 245.498 441.686 245.511C442.066 245.525 442.426 245.41 442.765 245.165C443.104 244.921 443.355 244.69 443.518 244.473L443.742 244.127C443.769 244.073 444.027 243.041 444.516 241.032C444.923 239.404 445.167 238.453 445.249 238.182C445.33 237.91 445.425 237.714 445.534 237.592C445.765 237.388 446.009 237.286 446.267 237.286C446.497 237.286 446.667 237.354 446.776 237.49C446.884 237.625 446.939 237.754 446.939 237.877L445.391 244.351C445.378 244.419 445.371 244.527 445.371 244.677C445.371 245.016 445.418 245.24 445.513 245.349C445.608 245.457 445.751 245.518 445.941 245.532C446.24 245.491 446.477 245.281 446.654 244.901C446.83 244.521 447.034 243.923 447.264 243.109C447.292 243 447.427 242.946 447.672 242.946C447.929 242.946 448.058 243.007 448.058 243.129C448.045 243.197 448.031 243.292 448.018 243.414C448.004 243.537 447.943 243.754 447.834 244.066C447.726 244.378 447.61 244.67 447.488 244.941C447.366 245.213 447.197 245.471 446.979 245.715C446.762 245.959 446.518 246.129 446.246 246.224C446.138 246.251 445.975 246.265 445.758 246.265C444.862 246.265 444.244 245.885 443.905 245.125C443.878 245.138 443.803 245.206 443.681 245.328C443.559 245.45 443.437 245.552 443.315 245.634C443.192 245.715 443.043 245.817 442.867 245.939C442.69 246.061 442.493 246.143 442.276 246.183C442.059 246.224 441.828 246.258 441.584 246.285C440.987 246.285 440.457 246.163 439.996 245.919C439.29 245.498 438.937 244.779 438.937 243.761C438.937 242.987 439.175 241.976 439.65 240.727C440.125 239.478 440.362 238.684 440.362 238.345C440.362 238.331 440.362 238.318 440.362 238.304C440.362 238.182 440.362 238.101 440.362 238.06C440.362 238.019 440.335 237.972 440.281 237.917C440.227 237.863 440.152 237.836 440.057 237.836H439.976C439.663 237.836 439.378 237.965 439.12 238.223C438.863 238.481 438.659 238.759 438.51 239.057C438.36 239.356 438.245 239.641 438.164 239.913C438.082 240.184 438.028 240.333 438.001 240.36C437.974 240.388 437.865 240.401 437.675 240.401H437.39C437.308 240.32 437.268 240.259 437.268 240.218Z" fill="#92D192"/>
<path d="M449.906 244.955C449.973 244.552 450.233 244.087 450.684 243.559C451.135 243.031 451.691 242.762 452.353 242.753C452.689 242.753 452.996 242.839 453.275 243.012C453.553 243.185 453.759 243.401 453.894 243.66C454.297 243.055 454.781 242.753 455.347 242.753C455.702 242.753 456.01 242.858 456.269 243.069C456.528 243.281 456.662 243.564 456.672 243.919C456.672 244.197 456.605 244.423 456.47 244.595C456.336 244.768 456.206 244.874 456.082 244.912C455.957 244.95 455.846 244.97 455.75 244.97C455.568 244.97 455.419 244.917 455.304 244.811C455.189 244.706 455.131 244.566 455.131 244.394C455.131 243.952 455.371 243.65 455.851 243.487C455.746 243.362 455.554 243.3 455.275 243.3C455.151 243.3 455.06 243.309 455.002 243.329C454.637 243.482 454.369 243.799 454.196 244.279C453.62 246.399 453.332 247.637 453.332 247.992C453.332 248.261 453.409 248.453 453.562 248.568C453.716 248.683 453.884 248.741 454.066 248.741C454.421 248.741 454.772 248.583 455.117 248.266C455.463 247.949 455.698 247.561 455.822 247.1C455.851 247.004 455.88 246.951 455.909 246.942C455.938 246.932 456.014 246.922 456.139 246.913H456.197C456.341 246.913 456.413 246.951 456.413 247.028C456.413 247.038 456.403 247.09 456.384 247.186C456.23 247.733 455.933 248.218 455.491 248.64C455.05 249.062 454.537 249.273 453.951 249.273C453.279 249.273 452.771 248.971 452.425 248.367C452.032 248.962 451.581 249.259 451.072 249.259H450.986C450.516 249.259 450.18 249.134 449.978 248.885C449.777 248.635 449.671 248.371 449.662 248.093C449.662 247.786 449.753 247.537 449.935 247.345C450.117 247.153 450.333 247.057 450.583 247.057C450.996 247.057 451.202 247.258 451.202 247.661C451.202 247.853 451.144 248.021 451.029 248.165C450.914 248.309 450.804 248.405 450.698 248.453C450.592 248.501 450.53 248.525 450.511 248.525L450.468 248.539C450.468 248.549 450.496 248.568 450.554 248.597C450.612 248.626 450.688 248.659 450.784 248.698C450.88 248.736 450.972 248.75 451.058 248.741C451.403 248.741 451.701 248.525 451.95 248.093C452.037 247.94 452.147 247.613 452.281 247.114C452.416 246.615 452.55 246.097 452.684 245.56C452.819 245.022 452.896 244.706 452.915 244.61C452.963 244.351 452.987 244.163 452.987 244.048C452.987 243.78 452.915 243.588 452.771 243.473C452.627 243.357 452.464 243.3 452.281 243.3C451.898 243.3 451.538 243.453 451.202 243.76C450.866 244.067 450.631 244.461 450.496 244.941C450.477 245.027 450.453 245.075 450.425 245.085C450.396 245.094 450.319 245.104 450.194 245.113H449.993C449.935 245.056 449.906 245.003 449.906 244.955Z" fill="#92D192"/>
<path d="M481.357 236.635C480.99 236.635 480.705 236.52 480.502 236.289C480.298 236.058 480.19 235.76 480.176 235.393C480.176 234.647 480.502 233.982 481.153 233.398C481.805 232.814 482.592 232.523 483.515 232.523C483.99 232.523 484.289 232.529 484.411 232.543C485.415 232.706 486.182 233.066 486.712 233.622C487.241 234.179 487.512 234.783 487.526 235.434C487.526 236.14 487.295 236.825 486.834 237.49C486.372 238.155 485.734 238.637 484.92 238.936L484.859 238.977C484.859 238.99 484.92 239.011 485.042 239.038C485.164 239.065 485.361 239.126 485.632 239.221C485.904 239.316 486.162 239.458 486.406 239.649C487.519 240.368 488.076 241.318 488.076 242.499C488.076 243.571 487.655 244.508 486.813 245.309C485.972 246.109 484.906 246.51 483.617 246.51C482.531 246.51 481.594 246.218 480.807 245.634C480.02 245.051 479.626 244.311 479.626 243.415C479.626 243.035 479.749 242.73 479.993 242.499C480.237 242.268 480.543 242.146 480.909 242.132C481.289 242.132 481.601 242.255 481.846 242.499C482.09 242.743 482.212 243.049 482.212 243.415C482.212 243.564 482.192 243.7 482.151 243.822C482.11 243.944 482.063 244.053 482.008 244.148C481.954 244.243 481.879 244.324 481.784 244.392C481.689 244.46 481.608 244.515 481.54 244.555C481.472 244.596 481.404 244.623 481.337 244.637C481.269 244.65 481.214 244.671 481.174 244.698L481.092 244.718C481.784 245.329 482.626 245.634 483.617 245.634C484.363 245.634 484.927 245.275 485.307 244.555C485.537 244.107 485.653 243.422 485.653 242.499V242.092C485.653 240.802 485.219 239.94 484.35 239.506C484.146 239.425 483.732 239.377 483.108 239.363L482.253 239.343L482.192 239.302C482.165 239.262 482.151 239.153 482.151 238.977C482.151 238.732 482.205 238.61 482.314 238.61C482.694 238.61 483.088 238.576 483.495 238.508C483.956 238.44 484.377 238.155 484.757 237.653C485.137 237.151 485.327 236.391 485.327 235.373V235.21C485.327 234.436 485.09 233.9 484.614 233.602C484.316 233.412 483.997 233.317 483.658 233.317C483.223 233.317 482.823 233.391 482.456 233.541C482.09 233.69 481.832 233.846 481.683 234.009C481.533 234.172 481.459 234.253 481.459 234.253H481.52C481.561 234.267 481.615 234.28 481.683 234.294C481.751 234.307 481.818 234.341 481.886 234.396C481.954 234.45 482.036 234.497 482.131 234.538C482.226 234.579 482.293 234.654 482.334 234.762C482.375 234.871 482.429 234.973 482.497 235.068C482.565 235.163 482.585 235.298 482.558 235.475C482.558 235.773 482.463 236.038 482.273 236.269C482.083 236.5 481.778 236.622 481.357 236.635Z" fill="#FF777A"/>
<path d="M489.379 240.218C489.379 240.109 489.44 239.899 489.562 239.587C489.684 239.275 489.854 238.922 490.071 238.528C490.288 238.134 490.587 237.795 490.967 237.51C491.347 237.225 491.747 237.076 492.168 237.062C492.792 237.062 493.261 237.232 493.573 237.571C493.885 237.91 494.041 238.311 494.041 238.772C494.041 239.017 493.81 239.777 493.349 241.053C492.887 242.329 492.657 243.285 492.657 243.923C492.657 244.507 492.752 244.914 492.942 245.145C493.132 245.376 493.417 245.498 493.797 245.511C494.177 245.525 494.536 245.41 494.876 245.165C495.215 244.921 495.466 244.69 495.629 244.473L495.853 244.127C495.88 244.073 496.138 243.041 496.627 241.032C497.034 239.404 497.278 238.453 497.36 238.182C497.441 237.91 497.536 237.714 497.645 237.592C497.875 237.388 498.12 237.286 498.378 237.286C498.608 237.286 498.778 237.354 498.887 237.49C498.995 237.625 499.05 237.754 499.05 237.877L497.502 244.351C497.489 244.419 497.482 244.527 497.482 244.677C497.482 245.016 497.529 245.24 497.624 245.349C497.719 245.457 497.862 245.518 498.052 245.532C498.351 245.491 498.588 245.281 498.765 244.901C498.941 244.521 499.145 243.923 499.375 243.109C499.402 243 499.538 242.946 499.783 242.946C500.04 242.946 500.169 243.007 500.169 243.129C500.156 243.197 500.142 243.292 500.129 243.414C500.115 243.537 500.054 243.754 499.945 244.066C499.837 244.378 499.721 244.67 499.599 244.941C499.477 245.213 499.307 245.471 499.09 245.715C498.873 245.959 498.629 246.129 498.357 246.224C498.249 246.251 498.086 246.265 497.869 246.265C496.973 246.265 496.355 245.885 496.016 245.125C495.989 245.138 495.914 245.206 495.792 245.328C495.67 245.45 495.548 245.552 495.426 245.634C495.303 245.715 495.154 245.817 494.978 245.939C494.801 246.061 494.604 246.143 494.387 246.183C494.17 246.224 493.939 246.258 493.695 246.285C493.098 246.285 492.568 246.163 492.107 245.919C491.401 245.498 491.048 244.779 491.048 243.761C491.048 242.987 491.286 241.976 491.761 240.727C492.236 239.478 492.473 238.684 492.473 238.345C492.473 238.331 492.473 238.318 492.473 238.304C492.473 238.182 492.473 238.101 492.473 238.06C492.473 238.019 492.446 237.972 492.392 237.917C492.338 237.863 492.263 237.836 492.168 237.836H492.087C491.774 237.836 491.489 237.965 491.231 238.223C490.974 238.481 490.77 238.759 490.621 239.057C490.471 239.356 490.356 239.641 490.274 239.913C490.193 240.184 490.139 240.333 490.112 240.36C490.084 240.388 489.976 240.401 489.786 240.401H489.501C489.419 240.32 489.379 240.259 489.379 240.218Z" fill="#FF777A"/>
<path d="M501.571 244.984C501.571 244.85 501.643 244.62 501.787 244.293C501.931 243.967 502.161 243.626 502.478 243.271C502.795 242.916 503.15 242.744 503.543 242.753C503.937 242.753 504.253 242.864 504.493 243.084C504.733 243.305 504.858 243.612 504.867 244.006C504.848 244.188 504.834 244.289 504.824 244.308C504.824 244.337 504.747 244.557 504.594 244.97C504.44 245.383 504.282 245.848 504.119 246.366C503.956 246.884 503.879 247.297 503.889 247.604C503.889 248.017 503.956 248.305 504.09 248.468C504.224 248.631 504.426 248.717 504.695 248.727C504.915 248.727 505.122 248.674 505.314 248.569C505.506 248.463 505.654 248.353 505.76 248.237C505.865 248.122 505.995 247.964 506.148 247.762C506.148 247.753 506.172 247.657 506.22 247.475C506.268 247.292 506.336 247.009 506.422 246.625C506.508 246.241 506.599 245.886 506.695 245.56C507.06 244.121 507.262 243.367 507.3 243.3C507.425 243.041 507.631 242.912 507.919 242.912C508.044 242.912 508.144 242.945 508.221 243.012C508.298 243.08 508.351 243.137 508.38 243.185C508.408 243.233 508.418 243.276 508.408 243.315C508.408 243.439 508.173 244.447 507.703 246.337C507.233 248.228 506.964 249.264 506.897 249.447C506.628 250.243 506.163 250.876 505.501 251.347C504.839 251.817 504.176 252.057 503.514 252.066C503.082 252.066 502.703 251.961 502.377 251.75C502.051 251.539 501.888 251.222 501.888 250.8C501.888 250.589 501.921 250.411 501.988 250.267C502.056 250.123 502.147 250.018 502.262 249.95C502.377 249.883 502.473 249.835 502.55 249.806C502.627 249.778 502.708 249.763 502.795 249.763C503.217 249.763 503.428 249.965 503.428 250.368C503.428 250.56 503.37 250.728 503.255 250.872C503.14 251.016 503.03 251.112 502.924 251.16C502.819 251.208 502.756 251.232 502.737 251.232L502.694 251.246C502.713 251.294 502.804 251.351 502.967 251.419C503.13 251.486 503.294 251.519 503.457 251.519H503.572C503.735 251.519 503.86 251.51 503.946 251.491C504.263 251.404 504.555 251.222 504.824 250.944C505.093 250.665 505.299 250.368 505.443 250.051C505.587 249.735 505.697 249.466 505.774 249.245C505.851 249.024 505.889 248.88 505.889 248.813L505.803 248.871C505.745 248.909 505.654 248.962 505.53 249.029C505.405 249.096 505.28 249.154 505.155 249.202C504.963 249.25 504.776 249.274 504.594 249.274C504.152 249.274 503.764 249.168 503.428 248.957C503.092 248.746 502.871 248.405 502.766 247.935C502.756 247.868 502.751 247.719 502.751 247.489C502.751 246.942 502.919 246.227 503.255 245.344C503.591 244.461 503.759 243.9 503.759 243.66C503.759 243.65 503.759 243.641 503.759 243.631C503.759 243.545 503.759 243.487 503.759 243.459C503.759 243.43 503.74 243.396 503.701 243.358C503.663 243.319 503.61 243.3 503.543 243.3H503.485C503.265 243.3 503.063 243.391 502.881 243.574C502.699 243.756 502.555 243.953 502.449 244.164C502.344 244.375 502.262 244.577 502.204 244.768C502.147 244.96 502.108 245.066 502.089 245.085C502.07 245.104 501.993 245.114 501.859 245.114H501.657C501.6 245.056 501.571 245.013 501.571 244.984Z" fill="#FF777A"/>
</g>
<path d="M514.097 226.045H517.097V258.045H514.097" stroke="#F0F0F0" stroke-width="1.3"/>
<path d="M421.883 226.045H418.883V258.045H421.883" stroke="#F0F0F0" stroke-width="1.3"/>
<g clip-path="url(#clip3_442_11425)">
<path d="M417.725 266.045C418.014 266.045 418.199 266.152 418.281 266.366C418.363 266.579 418.451 266.95 418.547 267.477C418.643 268.004 418.785 268.464 418.975 268.86C420.332 271.724 423.022 273.156 427.044 273.156L457.83 273.156C462.947 273.156 466.231 275.144 467.683 279.119C469.134 275.144 472.253 273.156 477.037 273.156L508.203 273.156C509.368 273.156 510.25 273.123 510.844 273.057C512.51 272.826 513.95 272.189 515.163 271.143C516.378 270.098 517.104 268.802 517.342 267.254C517.342 267.221 517.354 267.126 517.377 266.971C517.401 266.815 517.425 266.703 517.448 266.638C517.472 266.571 517.509 266.481 517.557 266.366C517.606 266.25 517.694 266.168 517.819 266.119C517.942 266.069 518.079 266.045 518.228 266.045C518.848 266.045 518.408 269.712 516.912 271.635C515.415 273.557 513.242 274.641 510.393 274.885C509.914 274.918 509.208 274.934 508.274 274.934L477.393 274.934C475.774 274.934 474.358 275.152 473.144 275.588C471.93 276.025 471.031 276.588 470.448 277.28C469.866 277.971 469.444 278.552 469.181 279.021C468.919 279.49 468.74 279.963 468.646 280.441C468.646 280.54 468.633 280.684 468.609 280.873C468.585 281.062 468.544 281.214 468.484 281.33C468.425 281.445 468.372 281.561 468.324 281.675C468.277 281.791 468.194 281.881 468.074 281.947C467.955 282.012 467.824 282.046 467.681 282.046C467.491 282.046 467.335 282.022 467.218 281.972C467.1 281.922 467.009 281.832 466.949 281.7C466.89 281.569 466.848 281.433 466.825 281.293C466.801 281.154 466.765 280.968 466.718 280.737C466.67 280.506 466.623 280.293 466.574 280.095C466.241 278.877 465.493 277.778 464.327 276.798C463.16 275.819 461.671 275.231 459.864 275.033C459.388 274.967 458.674 274.934 457.722 274.934L427.472 274.934C426.517 274.934 425.754 274.905 425.182 274.848C424.611 274.791 423.813 274.571 422.788 274.188C421.762 273.805 420.841 273.247 420.025 272.514C417.315 270.488 417.254 266.045 417.726 266.045L417.725 266.045Z" fill="#F0F0F0"/>
</g>
</g>
<path d="M0 180H640" stroke="#808080" stroke-width="1.5"/>
<path d="M320 0V360" stroke="#808080" stroke-width="1.5"/>
<path d="M527.95 15.5996L544 11.9996L536.05 26.3996L534.4 19.1996L527.95 15.5996Z" fill="#F0F0F0"/>
<path d="M112.05 344.4L95.9999 348L103.95 333.6L105.6 340.8L112.05 344.4Z" fill="#F0F0F0"/>
<path d="M99.2 345.6L540.8 14.3996" stroke="#F0F0F0" stroke-width="1.5"/>
<path d="M117.6 326.799L122.4 333.199" stroke="#F0F0F0" stroke-width="1.5"/>
<path d="M157.6 296.799L162.4 303.199" stroke="#F0F0F0" stroke-width="1.5"/>
<path d="M197.6 266.799L202.4 273.199" stroke="#F0F0F0" stroke-width="1.5"/>
<path d="M237.6 236.799L242.4 243.199" stroke="#F0F0F0" stroke-width="1.5"/>
<path d="M277.6 206.799L282.4 213.199" stroke="#F0F0F0" stroke-width="1.5"/>
<path d="M317.6 176.799L322.4 183.199" stroke="#F0F0F0" stroke-width="1.5"/>
<path d="M357.6 146.799L362.4 153.199" stroke="#F0F0F0" stroke-width="1.5"/>
<path d="M397.6 116.799L402.4 123.199" stroke="#F0F0F0" stroke-width="1.5"/>
<path d="M437.6 86.7988L442.4 93.1988" stroke="#F0F0F0" stroke-width="1.5"/>
<path d="M477.6 56.7988L482.4 63.1988" stroke="#F0F0F0" stroke-width="1.5"/>
<path d="M517.6 26.7988L522.4 33.1988" stroke="#F0F0F0" stroke-width="1.5"/>
<path d="M141.278 331.803L118.427 348.941L130.176 364.607L153.027 347.468L141.278 331.803Z" fill="black"/>
<g clip-path="url(#clip4_442_11425)">
<path d="M127.174 355.834C127.174 355.834 127.127 355.771 127.033 355.646C126.939 355.521 126.934 355.373 127.018 355.204L135.43 348.896C135.632 348.865 135.777 348.907 135.864 349.023C135.951 349.139 135.951 349.289 135.864 349.475L127.453 355.784C127.267 355.817 127.127 355.771 127.033 355.646L127.174 355.834Z" fill="#F0F0F0"/>
<path d="M140.464 347.677C140.638 347.908 140.705 348.159 140.667 348.429C140.628 348.7 140.498 348.918 140.276 349.085L140.174 349.161C141.19 349.59 142.065 349.53 142.798 348.98C143.474 348.473 143.749 347.814 143.624 347.004C143.568 346.547 143.196 345.861 142.509 344.944C141.763 343.95 141.13 343.377 140.609 343.225C140.119 343.095 139.72 343.145 139.411 343.377L139.324 343.442C138.571 344.007 138.248 344.762 138.354 345.708C138.366 345.804 138.361 345.868 138.339 345.9C138.318 345.931 138.253 345.995 138.144 346.091C137.98 346.215 137.867 346.254 137.804 346.211C137.756 346.187 137.112 345.35 135.875 343.699L134.474 341.832C134.112 341.349 133.955 341.09 134.004 341.053C134.008 341.02 134.02 340.996 134.04 340.981C134.049 340.974 134.18 340.936 134.431 340.869C134.682 340.801 135.005 340.679 135.401 340.503C135.796 340.327 136.187 340.094 136.573 339.805C137.258 339.291 137.813 338.664 138.238 337.923C138.286 337.826 138.335 337.76 138.383 337.724C138.46 337.666 138.564 337.724 138.694 337.897L138.835 338.086C138.746 339.615 138.108 340.825 136.921 341.716C136.621 341.94 136.33 342.114 136.045 342.237L135.878 342.317L137.746 344.807C137.828 344.534 137.893 344.319 137.941 344.162C137.99 344.006 138.105 343.798 138.289 343.54C138.472 343.282 138.689 343.059 138.94 342.87C139.722 342.284 140.618 342.102 141.629 342.324C142.64 342.546 143.468 343.086 144.112 343.945C144.778 344.833 145.037 345.822 144.89 346.913C144.743 348.004 144.229 348.887 143.348 349.562C142.567 350.149 141.744 350.359 140.88 350.192C140.016 350.026 139.338 349.614 138.846 348.958C138.672 348.726 138.588 348.503 138.593 348.288C138.598 348.074 138.643 347.903 138.73 347.778C138.817 347.653 138.914 347.55 139.02 347.47C139.261 347.289 139.521 347.223 139.798 347.271C140.075 347.32 140.297 347.455 140.464 347.677Z" fill="#F0F0F0"/>
</g>
<path d="M181.517 301.758L158.317 319.158L169.937 334.651L193.136 317.251L181.517 301.758Z" fill="black"/>
<g clip-path="url(#clip5_442_11425)">
<path d="M167.184 326.211C167.184 326.211 167.137 326.148 167.043 326.023C166.949 325.897 166.944 325.75 167.029 325.581L175.44 319.273C175.643 319.241 175.788 319.284 175.874 319.399C175.961 319.515 175.961 319.666 175.874 319.852L167.463 326.16C167.277 326.194 167.137 326.148 167.043 326.023L167.184 326.211Z" fill="#F0F0F0"/>
<path d="M186.494 317.09C186.298 317.192 185.665 317.644 184.594 318.448C183.474 319.287 182.838 319.787 182.686 319.946L182.556 320.044L182.056 319.378L182.505 319.041C182.698 318.896 182.829 318.799 182.896 318.748C182.964 318.697 183.039 318.626 183.121 318.534C183.203 318.443 183.252 318.368 183.269 318.31C183.286 318.252 183.291 318.188 183.283 318.118C183.279 318.092 183.088 317.827 182.712 317.326L182.169 316.602L178.419 319.414L177.919 318.748L177.597 313.764C177.395 310.417 177.299 308.732 177.311 308.708C177.316 308.674 177.41 308.588 177.594 308.451L177.854 308.255L178.006 308.277L183.001 314.937L184.333 313.938L184.833 314.604L183.501 315.603L184.054 316.341C184.351 316.737 184.525 316.968 184.576 317.036C184.626 317.104 184.699 317.14 184.793 317.145C184.921 317.154 185.225 316.987 185.705 316.641L186.125 316.327L186.624 316.993L186.494 317.09ZM181.756 315.871L178.129 311.035L178.575 318.234L180.164 317.065L181.756 315.871Z" fill="#F0F0F0"/>
</g>
<path d="M221.348 271.764L198.369 288.998L210.107 304.648L233.085 287.414L221.348 271.764Z" fill="black"/>
<g clip-path="url(#clip6_442_11425)">
<path d="M207.106 295.877C207.106 295.877 207.058 295.814 206.964 295.689C206.87 295.563 206.865 295.416 206.95 295.247L215.361 288.939C215.564 288.907 215.709 288.95 215.796 289.065C215.883 289.181 215.883 289.332 215.796 289.518L207.384 295.827C207.198 295.86 207.058 295.814 206.964 295.689L207.106 295.877Z" fill="#F0F0F0"/>
<path d="M216.538 283.69C216.277 283.886 216.013 283.956 215.745 283.9C215.477 283.845 215.241 283.69 215.036 283.437C214.638 282.906 214.514 282.259 214.666 281.497C214.819 280.734 215.223 280.107 215.879 279.615C216.217 279.361 216.433 279.207 216.527 279.151C217.328 278.732 218.065 278.578 218.738 278.692C219.412 278.805 219.927 279.09 220.284 279.546C220.66 280.048 220.862 280.658 220.888 281.377C220.915 282.096 220.718 282.779 220.298 283.426L220.277 283.487C220.284 283.497 220.338 283.479 220.439 283.433C220.541 283.387 220.713 283.326 220.957 283.249C221.201 283.171 221.46 283.135 221.735 283.14C222.91 283.058 223.813 283.437 224.443 284.277C225.014 285.039 225.215 285.929 225.043 286.948C224.872 287.966 224.328 288.819 223.411 289.507C222.639 290.086 221.817 290.378 220.946 290.382C220.075 290.387 219.401 290.071 218.923 289.434C218.72 289.164 218.644 288.882 218.695 288.587C218.746 288.293 218.898 288.043 219.151 287.838C219.421 287.635 219.708 287.556 220.012 287.599C220.316 287.643 220.566 287.795 220.762 288.055C220.841 288.161 220.899 288.269 220.935 288.377C220.971 288.486 220.996 288.588 221.008 288.685C221.02 288.781 221.01 288.879 220.979 288.978C220.947 289.077 220.918 289.159 220.892 289.224C220.865 289.289 220.832 289.345 220.791 289.391C220.75 289.437 220.722 289.48 220.707 289.521L220.66 289.579C221.478 289.644 222.239 289.412 222.944 288.884C223.475 288.486 223.684 287.93 223.57 287.215C223.495 286.774 223.212 286.225 222.72 285.569L222.503 285.279C221.815 284.362 221.046 283.981 220.197 284.135C220.009 284.186 219.689 284.373 219.238 284.696L218.619 285.138L218.554 285.142C218.513 285.127 218.445 285.057 218.351 284.932C218.221 284.758 218.194 284.642 218.271 284.584C218.542 284.381 218.803 284.147 219.057 283.882C219.349 283.588 219.496 283.161 219.498 282.601C219.501 282.041 219.231 281.399 218.688 280.675L218.601 280.559C218.188 280.009 217.733 279.755 217.236 279.796C216.923 279.82 216.645 279.922 216.404 280.103C216.095 280.335 215.85 280.602 215.669 280.903C215.488 281.205 215.388 281.453 215.369 281.649C215.349 281.844 215.34 281.942 215.34 281.942L215.383 281.909C215.419 281.897 215.465 281.878 215.521 281.852C215.576 281.825 215.643 281.813 215.72 281.815C215.797 281.818 215.88 281.808 215.969 281.786C216.059 281.765 216.147 281.782 216.234 281.837C216.321 281.893 216.413 281.936 216.512 281.967C216.611 281.999 216.698 282.084 216.773 282.224C216.932 282.437 217.006 282.676 216.994 282.941C216.982 283.206 216.83 283.456 216.538 283.69Z" fill="#F0F0F0"/>
</g>
<path d="M261.408 241.977L238.557 259.115L250.046 274.433L272.897 257.295L261.408 241.977Z" fill="black"/>
<g clip-path="url(#clip7_442_11425)">
<path d="M247.304 266.008C247.304 266.008 247.257 265.945 247.163 265.82C247.069 265.694 247.064 265.547 247.149 265.378L255.56 259.07C255.762 259.039 255.907 259.081 255.994 259.197C256.081 259.312 256.081 259.463 255.994 259.649L247.583 265.957C247.397 265.991 247.257 265.945 247.163 265.82L247.304 266.008Z" fill="#F0F0F0"/>
<path d="M256.845 254.51C256.584 254.706 256.311 254.774 256.027 254.716C255.742 254.658 255.505 254.504 255.317 254.253C254.803 253.568 254.614 252.782 254.749 251.897C254.884 251.011 255.333 250.283 256.095 249.711C256.974 249.052 257.91 248.772 258.904 248.871C259.898 248.97 260.722 249.446 261.376 250.297C261.687 250.712 261.887 251.18 261.977 251.702C262.066 252.223 262.08 252.725 262.02 253.207C261.96 253.69 261.842 254.336 261.665 255.147C261.542 255.707 261.393 256.513 261.217 257.565L260.971 259.016L262.082 258.205C263.597 257.069 264.385 256.44 264.445 256.32C264.498 256.25 264.292 255.733 263.826 254.771L263.794 254.727L264.373 254.293L264.405 254.336C264.417 254.373 264.684 254.859 265.205 255.795C265.726 256.731 265.987 257.229 265.987 257.29L266.019 257.333L260.648 261.361L260.442 261.086L260.312 260.913C260.261 260.845 260.236 260.751 260.236 260.63C260.236 260.51 260.254 260.232 260.29 259.798C260.338 259.279 260.377 258.828 260.406 258.444C260.42 258.283 260.451 257.981 260.496 257.539C260.542 257.098 260.572 256.796 260.587 256.635C260.601 256.473 260.622 256.209 260.648 255.842C260.675 255.475 260.687 255.21 260.685 255.046C260.682 254.882 260.685 254.654 260.692 254.362C260.699 254.07 260.685 253.839 260.648 253.67C260.612 253.502 260.58 253.307 260.551 253.088C260.522 252.868 260.469 252.667 260.391 252.483C260.314 252.3 260.239 252.13 260.167 251.973C260.095 251.816 259.99 251.646 259.852 251.463C259.396 250.855 258.838 250.452 258.176 250.254C257.515 250.056 256.881 250.185 256.273 250.641C255.954 250.88 255.736 251.172 255.618 251.517C255.499 251.862 255.45 252.148 255.469 252.375C255.489 252.602 255.509 252.729 255.531 252.758C255.538 252.768 255.566 252.755 255.614 252.719C255.788 252.588 256.017 252.522 256.302 252.519C256.586 252.517 256.845 252.67 257.076 252.979C257.257 253.22 257.332 253.481 257.301 253.761C257.269 254.041 257.117 254.291 256.845 254.51Z" fill="#F0F0F0"/>
</g>
<path d="M301.235 212.106L278.731 228.984L290.219 244.303L312.723 227.425L301.235 212.106Z" fill="black"/>
<g clip-path="url(#clip8_442_11425)">
<path d="M287.478 235.877C287.478 235.877 287.431 235.814 287.337 235.689C287.243 235.564 287.238 235.416 287.322 235.247L295.734 228.939C295.936 228.908 296.081 228.95 296.168 229.066C296.255 229.182 296.255 229.332 296.168 229.518L287.757 235.827C287.571 235.86 287.431 235.814 287.337 235.689L287.478 235.877Z" fill="#F0F0F0"/>
<path d="M296.906 221.094L296.772 221.307C296.673 221.457 296.517 221.65 296.302 221.886C296.087 222.123 295.833 222.367 295.538 222.618L295.263 222.824L294.764 222.158L295.039 221.952C295.478 221.592 295.843 221.205 296.135 220.79C296.427 220.375 296.611 220.056 296.686 219.834C296.76 219.612 296.816 219.405 296.852 219.212C296.85 219.168 296.897 219.11 296.993 219.038C297.08 218.973 297.184 218.94 297.304 218.94L300.551 223.269L303.823 227.601C303.941 227.618 304.031 227.618 304.094 227.601C304.157 227.584 304.287 227.517 304.485 227.399C304.683 227.28 304.989 227.066 305.404 226.754L305.781 226.472L306.28 227.138L306.121 227.257C305.896 227.38 305.118 227.941 303.786 228.94C302.474 229.925 301.727 230.508 301.546 230.688L301.372 230.819L300.873 230.153L301.249 229.871C301.462 229.711 301.645 229.574 301.8 229.458C301.954 229.342 302.071 229.247 302.151 229.172C302.23 229.097 302.297 229.025 302.35 228.955C302.403 228.885 302.434 228.846 302.444 228.839C302.453 228.832 302.464 228.786 302.476 228.701C302.488 228.617 302.503 228.576 302.52 228.578L296.906 221.094Z" fill="#F0F0F0"/>
</g>
<path d="M334.868 186.615L323.419 195.201L335.168 210.867L346.617 202.28L334.868 186.615Z" fill="black"/>
<g clip-path="url(#clip9_442_11425)">
<path d="M329.272 196.393C329.226 195.205 329.671 194.261 330.607 193.559C331.071 193.211 331.628 192.989 332.28 192.893C332.931 192.796 333.64 192.958 334.408 193.378C335.365 193.911 336.369 194.877 337.419 196.277C338.541 197.773 339.191 199.072 339.37 200.175C339.481 200.725 339.458 201.247 339.301 201.742C339.144 202.236 338.962 202.607 338.754 202.853C338.547 203.099 338.326 203.317 338.092 203.508C337.841 203.696 337.568 203.855 337.274 203.986C336.98 204.116 336.569 204.182 336.043 204.185C335.518 204.187 335.01 204.063 334.52 203.812C333.511 203.332 332.446 202.344 331.324 200.848C330.065 199.168 329.381 197.683 329.272 196.393ZM332.399 193.776C331.878 193.684 331.419 193.787 331.024 194.083C330.618 194.387 330.387 194.802 330.329 195.328C330.276 195.76 330.377 196.227 330.633 196.729C330.889 197.231 331.545 198.186 332.602 199.596C333.745 201.12 334.537 202.095 334.976 202.52C335.415 202.944 335.875 203.195 336.355 203.273C336.842 203.359 337.284 203.255 337.679 202.958C338.065 202.668 338.285 202.277 338.338 201.785C338.401 201.286 338.271 200.75 337.947 200.178C337.624 199.606 336.928 198.598 335.859 197.153C334.809 195.753 334.079 194.86 333.669 194.474C333.259 194.088 332.836 193.855 332.399 193.776Z" fill="#F0F0F0"/>
</g>
<path d="M375.084 156.722L364.851 164.396L376.34 179.715L386.573 172.04L375.084 156.722Z" fill="black"/>
<g clip-path="url(#clip10_442_11425)">
<path d="M371.78 164.942L371.646 165.155C371.547 165.305 371.39 165.498 371.175 165.734C370.96 165.971 370.706 166.214 370.411 166.465L370.136 166.672L369.637 166.006L369.912 165.799C370.351 165.44 370.717 165.053 371.009 164.638C371.301 164.223 371.484 163.904 371.559 163.682C371.634 163.46 371.689 163.253 371.725 163.06C371.723 163.016 371.77 162.958 371.866 162.886C371.953 162.821 372.057 162.788 372.178 162.788L375.424 167.117L378.696 171.449C378.814 171.466 378.905 171.466 378.967 171.449C379.03 171.432 379.16 171.364 379.358 171.246C379.556 171.128 379.862 170.913 380.277 170.602L380.654 170.32L381.153 170.986L380.994 171.105C380.77 171.228 379.991 171.789 378.66 172.788C377.347 173.772 376.6 174.355 376.419 174.536L376.246 174.666L375.746 174L376.123 173.718C376.335 173.559 376.518 173.421 376.673 173.306C376.827 173.19 376.944 173.094 377.024 173.02C377.103 172.945 377.17 172.872 377.223 172.803C377.276 172.733 377.307 172.694 377.317 172.687C377.327 172.679 377.337 172.634 377.349 172.549C377.362 172.465 377.376 172.424 377.393 172.426L371.78 164.942Z" fill="#F0F0F0"/>
</g>
<path d="M414.997 126.787L403.896 135.113L415.385 150.431L426.486 142.105L414.997 126.787Z" fill="black"/>
<g clip-path="url(#clip11_442_11425)">
<path d="M411.457 138.553C411.197 138.749 410.924 138.817 410.64 138.759C410.355 138.702 410.118 138.547 409.93 138.296C409.416 137.611 409.227 136.826 409.362 135.94C409.497 135.055 409.946 134.326 410.708 133.754C411.587 133.095 412.523 132.816 413.517 132.914C414.511 133.013 415.335 133.489 415.989 134.34C416.3 134.755 416.5 135.223 416.589 135.745C416.679 136.266 416.693 136.768 416.633 137.25C416.573 137.733 416.454 138.379 416.278 139.19C416.155 139.75 416.006 140.556 415.829 141.608L415.583 143.059L416.694 142.248C418.21 141.112 418.997 140.483 419.058 140.363C419.111 140.293 418.905 139.776 418.439 138.814L418.406 138.77L418.985 138.336L419.018 138.379C419.03 138.416 419.297 138.902 419.818 139.838C420.339 140.774 420.6 141.272 420.6 141.333L420.632 141.376L415.261 145.404L415.055 145.129L414.925 144.956C414.874 144.888 414.849 144.794 414.849 144.673C414.849 144.553 414.867 144.275 414.903 143.841C414.951 143.322 414.99 142.871 415.019 142.487C415.033 142.326 415.063 142.024 415.109 141.582C415.155 141.141 415.185 140.839 415.2 140.678C415.214 140.516 415.235 140.252 415.261 139.885C415.288 139.518 415.3 139.253 415.297 139.089C415.295 138.925 415.297 138.697 415.305 138.405C415.312 138.113 415.297 137.882 415.261 137.713C415.225 137.545 415.192 137.35 415.164 137.131C415.135 136.911 415.081 136.71 415.004 136.526C414.927 136.343 414.852 136.173 414.78 136.016C414.707 135.859 414.603 135.689 414.465 135.506C414.009 134.898 413.45 134.495 412.789 134.297C412.128 134.099 411.494 134.228 410.886 134.684C410.567 134.923 410.349 135.215 410.231 135.56C410.112 135.905 410.063 136.191 410.082 136.418C410.101 136.645 410.122 136.773 410.144 136.801C410.151 136.811 410.179 136.798 410.227 136.762C410.401 136.631 410.63 136.565 410.915 136.563C411.199 136.56 411.457 136.713 411.689 137.022C411.87 137.264 411.945 137.524 411.913 137.804C411.882 138.084 411.73 138.334 411.457 138.553Z" fill="#F0F0F0"/>
</g>
<path d="M454.872 96.6192L443.518 105.135L455.255 120.784L466.609 112.269L454.872 96.6192Z" fill="black"/>
<g clip-path="url(#clip12_442_11425)">
<path d="M451.086 107.779C450.826 107.974 450.561 108.044 450.294 107.988C450.026 107.933 449.789 107.779 449.584 107.525C449.186 106.994 449.063 106.348 449.215 105.585C449.367 104.823 449.771 104.196 450.427 103.703C450.765 103.45 450.981 103.296 451.075 103.24C451.876 102.82 452.613 102.667 453.287 102.78C453.96 102.894 454.475 103.179 454.832 103.635C455.208 104.136 455.41 104.747 455.436 105.466C455.463 106.185 455.266 106.868 454.847 107.514L454.825 107.576C454.832 107.585 454.886 107.567 454.988 107.522C455.089 107.476 455.262 107.414 455.505 107.337C455.749 107.26 456.008 107.224 456.283 107.228C457.458 107.146 458.361 107.525 458.991 108.365C459.562 109.127 459.763 110.018 459.591 111.036C459.42 112.054 458.876 112.907 457.959 113.595C457.187 114.174 456.365 114.466 455.494 114.47C454.623 114.475 453.949 114.159 453.471 113.522C453.269 113.252 453.193 112.97 453.243 112.675C453.294 112.381 453.446 112.131 453.699 111.926C453.969 111.723 454.257 111.644 454.561 111.687C454.865 111.731 455.114 111.883 455.31 112.143C455.389 112.249 455.447 112.357 455.484 112.465C455.52 112.574 455.544 112.676 455.556 112.773C455.568 112.87 455.558 112.967 455.527 113.066C455.496 113.165 455.467 113.247 455.44 113.312C455.414 113.377 455.38 113.433 455.339 113.479C455.298 113.525 455.27 113.568 455.255 113.609L455.208 113.667C456.026 113.732 456.788 113.5 457.492 112.972C458.023 112.574 458.232 112.018 458.118 111.304C458.043 110.862 457.76 110.313 457.268 109.657L457.051 109.367C456.363 108.45 455.594 108.069 454.745 108.224C454.557 108.274 454.237 108.461 453.786 108.785L453.167 109.226L453.102 109.23C453.061 109.215 452.993 109.145 452.899 109.02C452.769 108.846 452.743 108.73 452.82 108.672C453.09 108.47 453.352 108.236 453.605 107.97C453.897 107.676 454.044 107.249 454.047 106.689C454.049 106.129 453.779 105.488 453.236 104.764L453.149 104.648C452.737 104.098 452.282 103.843 451.785 103.884C451.471 103.908 451.194 104.011 450.952 104.192C450.643 104.424 450.399 104.69 450.218 104.992C450.037 105.293 449.936 105.542 449.917 105.737C449.898 105.933 449.888 106.03 449.888 106.03L449.932 105.998C449.968 105.986 450.014 105.966 450.069 105.94C450.125 105.913 450.191 105.901 450.268 105.904C450.345 105.906 450.429 105.897 450.518 105.875C450.607 105.853 450.695 105.87 450.782 105.925C450.869 105.981 450.962 106.024 451.061 106.056C451.16 106.087 451.247 106.173 451.321 106.313C451.481 106.525 451.554 106.764 451.542 107.029C451.53 107.295 451.378 107.544 451.086 107.779Z" fill="#F0F0F0"/>
</g>
<path d="M494.933 66.7016L483.136 75.5488L494.755 91.0406L506.551 82.1934L494.933 66.7016Z" fill="black"/>
<g clip-path="url(#clip13_442_11425)">
<path d="M500.933 81.2644C500.737 81.3657 500.104 81.8181 499.033 82.6216C497.913 83.4612 497.277 83.9607 497.125 84.1199L496.995 84.2176L496.496 83.5517L496.944 83.2151C497.137 83.0703 497.268 82.9726 497.335 82.922C497.403 82.8713 497.478 82.8001 497.56 82.7084C497.642 82.6167 497.691 82.5419 497.708 82.484C497.725 82.4261 497.73 82.3622 497.723 82.2922C497.718 82.2657 497.527 82.0015 497.151 81.4996L496.608 80.7758L492.858 83.5879L492.359 82.922L492.037 77.9383C491.834 74.5918 491.739 72.9064 491.751 72.8823C491.756 72.8485 491.85 72.7629 492.033 72.6253L492.294 72.4299L492.446 72.4516L497.44 79.1109L498.772 78.112L499.272 78.778L497.94 79.7769L498.493 80.5152C498.79 80.9109 498.964 81.1425 499.015 81.2101C499.065 81.2776 499.138 81.3138 499.232 81.3187C499.36 81.3283 499.664 81.1606 500.144 80.8156L500.564 80.5007L501.063 81.1666L500.933 81.2644ZM496.195 80.0447L492.569 75.2094L493.014 82.408L494.603 81.239L496.195 80.0447Z" fill="#F0F0F0"/>
</g>
<path d="M534.868 36.6154L523.766 44.9414L535.515 60.6069L546.617 52.2809L534.868 36.6154Z" fill="black"/>
<g clip-path="url(#clip14_442_11425)">
<path d="M535.077 51.7217C535.251 51.9533 535.319 52.2042 535.28 52.4745C535.241 52.7447 535.111 52.9631 534.889 53.1295L534.788 53.2055C535.804 53.635 536.678 53.5747 537.412 53.0246C538.087 52.5179 538.362 51.8592 538.237 51.0485C538.181 50.5925 537.81 49.906 537.122 48.9892C536.377 47.9951 535.743 47.4221 535.222 47.2701C534.732 47.1398 534.333 47.1904 534.024 47.4221L533.937 47.4872C533.184 48.0518 532.861 48.807 532.967 49.7528C532.979 49.8493 532.975 49.9133 532.953 49.9446C532.931 49.976 532.866 50.0399 532.757 50.1365C532.593 50.2595 532.48 50.2993 532.417 50.2559C532.369 50.2318 531.726 49.3945 530.488 47.7442L529.088 45.8767C528.726 45.3941 528.569 45.1347 528.617 45.0985C528.622 45.0648 528.634 45.0406 528.653 45.0261C528.663 45.0189 528.793 44.9815 529.044 44.914C529.295 44.8464 529.618 44.7245 530.014 44.5484C530.41 44.3723 530.801 44.1394 531.187 43.8499C531.872 43.336 532.427 42.7087 532.852 41.9679C532.9 41.8714 532.948 41.8051 532.996 41.7689C533.073 41.711 533.177 41.7689 533.308 41.9426L533.449 42.1308C533.359 43.6605 532.721 44.8705 531.534 45.7608C531.235 45.9852 530.943 46.159 530.658 46.282L530.492 46.3616L532.359 48.8516C532.441 48.579 532.506 48.3643 532.555 48.2074C532.603 48.0506 532.719 47.8431 532.902 47.5849C533.086 47.3268 533.303 47.1036 533.554 46.9154C534.335 46.3291 535.232 46.1469 536.243 46.3689C537.254 46.5908 538.081 47.1313 538.725 47.9903C539.391 48.8782 539.651 49.8674 539.504 50.958C539.356 52.0486 538.843 52.9317 537.962 53.6073C537.18 54.1936 536.357 54.4035 535.494 54.237C534.63 54.0705 533.952 53.6591 533.46 53.0029C533.286 52.7712 533.201 52.5481 533.206 52.3333C533.211 52.1186 533.257 51.9485 533.344 51.823C533.431 51.6975 533.527 51.595 533.633 51.5154C533.875 51.3344 534.134 51.2681 534.411 51.3163C534.689 51.3646 534.911 51.4997 535.077 51.7217Z" fill="#F0F0F0"/>
</g>
<path d="M423.95 93.5996L440 89.9996L432.05 104.4L430.4 97.1996L423.95 93.5996Z" fill="#D582FF"/>
<path d="M320 180L436.8 92.4004" stroke="#D582FF" stroke-width="1.5"/>
<path d="M442.795 28.3438H386.159V82.1651H442.795V28.3438Z" fill="black"/>
<g clip-path="url(#clip15_442_11425)">
<path d="M388.752 74.7266V31.3054H393.621V32.4276H389.875V73.6044H393.621V74.7266H388.752Z" fill="#F0F0F0"/>
<path d="M400.155 36.0849C399.829 36.0849 399.576 35.9824 399.395 35.7772C399.214 35.5721 399.117 35.3066 399.105 34.9809C399.105 34.3172 399.395 33.7259 399.974 33.2071C400.553 32.6882 401.253 32.4288 402.074 32.4288C402.496 32.4288 402.762 32.4348 402.87 32.4469C403.763 32.5917 404.445 32.9115 404.915 33.4062C405.386 33.9009 405.627 34.4379 405.639 35.017C405.639 35.6445 405.434 36.2539 405.024 36.8451C404.614 37.4364 404.047 37.8647 403.323 38.1302L403.268 38.1664C403.268 38.1785 403.323 38.1966 403.431 38.2207C403.54 38.2448 403.715 38.2991 403.956 38.3836C404.197 38.4681 404.427 38.5948 404.644 38.7637C405.633 39.4032 406.128 40.2479 406.128 41.2976C406.128 42.2509 405.754 43.0835 405.006 43.7954C404.258 44.5073 403.311 44.8633 402.164 44.8633C401.199 44.8633 400.366 44.6039 399.666 44.085C398.967 43.5661 398.617 42.9085 398.617 42.1121C398.617 41.7743 398.725 41.5028 398.942 41.2976C399.16 41.0925 399.431 40.9839 399.757 40.9718C400.095 40.9718 400.372 41.0804 400.59 41.2976C400.807 41.5148 400.915 41.7863 400.915 42.1121C400.915 42.2449 400.897 42.3655 400.861 42.4741C400.825 42.5827 400.783 42.6793 400.734 42.7637C400.686 42.8482 400.62 42.9206 400.535 42.9809C400.451 43.0412 400.378 43.0895 400.318 43.1257C400.258 43.1619 400.197 43.186 400.137 43.1981C400.077 43.2102 400.028 43.2283 399.992 43.2524L399.92 43.2705C400.535 43.8135 401.283 44.085 402.164 44.085C402.828 44.085 403.329 43.7652 403.667 43.1257C403.872 42.7275 403.974 42.1182 403.974 41.2976V40.9356C403.974 39.7893 403.588 39.0231 402.816 38.637C402.635 38.5646 402.267 38.5224 401.712 38.5103L400.952 38.4922L400.897 38.456C400.873 38.4198 400.861 38.3233 400.861 38.1664C400.861 37.9492 400.909 37.8406 401.006 37.8406C401.344 37.8406 401.694 37.8104 402.056 37.7501C402.466 37.6898 402.84 37.4364 403.178 36.9899C403.516 36.5435 403.685 35.8677 403.685 34.9628V34.818C403.685 34.1302 403.473 33.6535 403.051 33.3881C402.786 33.2191 402.502 33.1347 402.2 33.1347C401.814 33.1347 401.458 33.201 401.133 33.3338C400.807 33.4665 400.577 33.6053 400.445 33.7501C400.312 33.8949 400.246 33.9673 400.246 33.9673H400.3C400.336 33.9793 400.384 33.9914 400.445 34.0035C400.505 34.0155 400.565 34.0457 400.626 34.094C400.686 34.1422 400.758 34.1845 400.843 34.2207C400.927 34.2569 400.988 34.3232 401.024 34.4198C401.06 34.5163 401.108 34.6068 401.169 34.6913C401.229 34.7757 401.247 34.8964 401.223 35.0532C401.223 35.3187 401.139 35.554 400.97 35.7591C400.801 35.9643 400.529 36.0729 400.155 36.0849Z" fill="#D582FF"/>
<path d="M407.286 39.2704C407.286 39.1738 407.341 38.9868 407.449 38.7093C407.558 38.4317 407.709 38.118 407.902 37.7681C408.095 37.4182 408.36 37.1165 408.698 36.8631C409.036 36.6097 409.392 36.477 409.766 36.4649C410.321 36.4649 410.738 36.6157 411.015 36.9174C411.293 37.2191 411.431 37.575 411.431 37.9853C411.431 38.2025 411.226 38.8782 410.816 40.0124C410.406 41.1467 410.201 41.9974 410.201 42.5645C410.201 43.0834 410.285 43.4454 410.454 43.6505C410.623 43.8556 410.876 43.9642 411.214 43.9763C411.552 43.9883 411.872 43.8858 412.173 43.6686C412.475 43.4514 412.698 43.2463 412.843 43.0532L413.042 42.7455C413.066 42.6972 413.296 41.7802 413.73 39.9943C414.092 38.5464 414.309 37.7017 414.382 37.4604C414.454 37.2191 414.538 37.0441 414.635 36.9355C414.84 36.7545 415.057 36.664 415.287 36.664C415.492 36.664 415.643 36.7243 415.739 36.845C415.836 36.9657 415.884 37.0803 415.884 37.1889L414.508 42.9446C414.496 43.0049 414.49 43.1015 414.49 43.2342C414.49 43.5358 414.532 43.7349 414.617 43.8315C414.701 43.928 414.828 43.9823 414.997 43.9944C415.262 43.9582 415.474 43.7711 415.63 43.4333C415.787 43.0954 415.968 42.5645 416.173 41.8405C416.198 41.744 416.318 41.6957 416.535 41.6957C416.765 41.6957 416.879 41.75 416.879 41.8586C416.867 41.9189 416.855 42.0034 416.843 42.112C416.831 42.2206 416.777 42.4137 416.68 42.6912C416.584 42.9687 416.481 43.2282 416.373 43.4695C416.264 43.7108 416.113 43.9401 415.92 44.1573C415.727 44.3745 415.51 44.5253 415.268 44.6098C415.172 44.6339 415.027 44.646 414.834 44.646C414.038 44.646 413.489 44.3081 413.187 43.6324C413.163 43.6444 413.096 43.7048 412.988 43.8134C412.879 43.922 412.771 44.0125 412.662 44.0849C412.554 44.1573 412.421 44.2478 412.264 44.3564C412.107 44.465 411.932 44.5374 411.739 44.5736C411.546 44.6098 411.341 44.6399 411.124 44.6641C410.593 44.6641 410.122 44.5555 409.712 44.3383C409.084 43.9642 408.771 43.3247 408.771 42.4197C408.771 41.7319 408.982 40.833 409.404 39.7228C409.826 38.6127 410.038 37.9068 410.038 37.6052C410.038 37.5931 410.038 37.5811 410.038 37.569C410.038 37.4604 410.038 37.388 410.038 37.3518C410.038 37.3156 410.014 37.2734 409.965 37.2251C409.917 37.1768 409.851 37.1527 409.766 37.1527H409.694C409.416 37.1527 409.163 37.2673 408.934 37.4966C408.704 37.7258 408.523 37.9732 408.391 38.2387C408.258 38.5041 408.155 38.7575 408.083 38.9989C408.01 39.2402 407.962 39.3729 407.938 39.3971C407.914 39.4212 407.817 39.4333 407.648 39.4333H407.395C407.323 39.3609 407.286 39.3066 407.286 39.2704Z" fill="#D582FF"/>
<path d="M418.522 43.4814C418.582 43.1231 418.812 42.7093 419.213 42.2401C419.614 41.7709 420.109 41.532 420.698 41.5235C420.996 41.5235 421.269 41.6003 421.516 41.7538C421.764 41.9074 421.947 42.0993 422.067 42.3297C422.425 41.7922 422.856 41.5235 423.359 41.5235C423.675 41.5235 423.948 41.6173 424.178 41.805C424.408 41.9927 424.528 42.2444 424.536 42.56C424.536 42.8074 424.477 43.0079 424.357 43.1615C424.238 43.315 424.123 43.4089 424.012 43.443C423.901 43.4771 423.803 43.4942 423.717 43.4942C423.555 43.4942 423.423 43.4472 423.321 43.3534C423.218 43.2596 423.167 43.1359 423.167 42.9823C423.167 42.5899 423.381 42.3212 423.807 42.1761C423.713 42.0652 423.543 42.0098 423.295 42.0098C423.184 42.0098 423.103 42.0183 423.052 42.0354C422.728 42.1719 422.489 42.4534 422.335 42.8799C421.824 44.7653 421.568 45.8658 421.568 46.1814C421.568 46.4203 421.636 46.5909 421.772 46.6933C421.909 46.7957 422.058 46.8468 422.22 46.8468C422.536 46.8468 422.847 46.7061 423.154 46.4246C423.462 46.143 423.671 45.7975 423.781 45.388C423.807 45.3027 423.833 45.2558 423.858 45.2473C423.884 45.2388 423.952 45.2302 424.063 45.2217H424.114C424.242 45.2217 424.306 45.2558 424.306 45.3241C424.306 45.3326 424.298 45.3795 424.281 45.4648C424.144 45.9511 423.88 46.3819 423.487 46.7573C423.095 47.1326 422.638 47.3203 422.118 47.3203C421.521 47.3203 421.069 47.0516 420.761 46.5141C420.412 47.0431 420.011 47.3075 419.559 47.3075H419.482C419.064 47.3075 418.765 47.1966 418.586 46.9748C418.407 46.753 418.313 46.5184 418.305 46.271C418.305 45.998 418.386 45.7762 418.548 45.6056C418.71 45.435 418.902 45.3497 419.124 45.3497C419.49 45.3497 419.674 45.5288 419.674 45.8871C419.674 46.0577 419.623 46.207 419.52 46.335C419.418 46.4629 419.32 46.5483 419.226 46.5909C419.132 46.6336 419.077 46.6549 419.06 46.6549L419.021 46.6677C419.021 46.6762 419.047 46.6933 419.098 46.7189C419.149 46.7445 419.217 46.7743 419.303 46.8085C419.388 46.8426 419.469 46.8554 419.546 46.8468C419.853 46.8468 420.117 46.6549 420.339 46.271C420.416 46.1345 420.514 45.8445 420.634 45.4008C420.753 44.9572 420.872 44.4966 420.992 44.0188C421.111 43.5411 421.18 43.2596 421.197 43.1743C421.239 42.9439 421.261 42.7776 421.261 42.6752C421.261 42.4363 421.197 42.2657 421.069 42.1633C420.941 42.061 420.796 42.0098 420.634 42.0098C420.292 42.0098 419.972 42.1463 419.674 42.4193C419.375 42.6923 419.166 43.042 419.047 43.4686C419.03 43.5454 419.008 43.588 418.983 43.5965C418.957 43.6051 418.889 43.6136 418.778 43.6221H418.599C418.548 43.5709 418.522 43.524 418.522 43.4814Z" fill="#D582FF"/>
<path d="M400.68 61.4248C400.354 61.4248 400.101 61.3222 399.92 61.1171C399.739 60.912 399.642 60.6465 399.63 60.3207C399.63 59.657 399.92 59.0658 400.499 58.5469C401.078 58.0281 401.778 57.7686 402.599 57.7686C403.021 57.7686 403.286 57.7747 403.395 57.7867C404.288 57.9315 404.97 58.2513 405.44 58.746C405.911 59.2407 406.152 59.7777 406.164 60.3569C406.164 60.9843 405.959 61.5937 405.549 62.185C405.139 62.7762 404.572 63.2046 403.848 63.47L403.793 63.5062C403.793 63.5183 403.848 63.5364 403.956 63.5605C404.065 63.5847 404.24 63.639 404.481 63.7234C404.722 63.8079 404.952 63.9346 405.169 64.1035C406.158 64.7431 406.653 65.5877 406.653 66.6375C406.653 67.5907 406.279 68.4233 405.531 69.1352C404.783 69.8472 403.835 70.2031 402.689 70.2031C401.724 70.2031 400.891 69.9437 400.191 69.4248C399.492 68.906 399.142 68.2484 399.142 67.452C399.142 67.1141 399.25 66.8426 399.467 66.6375C399.685 66.4324 399.956 66.3238 400.282 66.3117C400.62 66.3117 400.897 66.4203 401.114 66.6375C401.332 66.8547 401.44 67.1262 401.44 67.452C401.44 67.5847 401.422 67.7054 401.386 67.814C401.35 67.9226 401.308 68.0191 401.259 68.1036C401.211 68.188 401.145 68.2604 401.06 68.3208C400.976 68.3811 400.903 68.4294 400.843 68.4656C400.783 68.5018 400.722 68.5259 400.662 68.538C400.602 68.55 400.553 68.5681 400.517 68.5923L400.445 68.6104C401.06 69.1533 401.808 69.4248 402.689 69.4248C403.353 69.4248 403.854 69.1051 404.191 68.4656C404.397 68.0674 404.499 67.458 404.499 66.6375V66.2755C404.499 65.1292 404.113 64.363 403.341 63.9768C403.16 63.9044 402.792 63.8622 402.237 63.8501L401.476 63.832L401.422 63.7958C401.398 63.7596 401.386 63.6631 401.386 63.5062C401.386 63.289 401.434 63.1804 401.531 63.1804C401.869 63.1804 402.219 63.1503 402.581 63.0899C402.991 63.0296 403.365 62.7762 403.703 62.3298C404.041 61.8833 404.21 61.2076 404.21 60.3026V60.1578C404.21 59.47 403.998 58.9934 403.576 58.7279C403.311 58.559 403.027 58.4745 402.725 58.4745C402.339 58.4745 401.983 58.5409 401.657 58.6736C401.332 58.8064 401.102 58.9451 400.97 59.0899C400.837 59.2347 400.771 59.3071 400.771 59.3071H400.825C400.861 59.3192 400.909 59.3312 400.97 59.3433C401.03 59.3554 401.09 59.3855 401.151 59.4338C401.211 59.4821 401.283 59.5243 401.368 59.5605C401.452 59.5967 401.513 59.6631 401.549 59.7596C401.585 59.8561 401.633 59.9466 401.694 60.0311C401.754 60.1156 401.772 60.2362 401.748 60.3931C401.748 60.6586 401.663 60.8939 401.495 61.099C401.326 61.3041 401.054 61.4127 400.68 61.4248Z" fill="#D582FF"/>
<path d="M407.811 64.6102C407.811 64.5137 407.866 64.3266 407.974 64.0491C408.083 63.7716 408.234 63.4579 408.427 63.1079C408.62 62.758 408.885 62.4563 409.223 62.2029C409.561 61.9495 409.917 61.8168 410.291 61.8047C410.846 61.8047 411.262 61.9556 411.54 62.2572C411.817 62.5589 411.956 62.9149 411.956 63.3251C411.956 63.5423 411.751 64.218 411.341 65.3523C410.931 66.4865 410.725 67.3372 410.725 67.9043C410.725 68.4232 410.81 68.7852 410.979 68.9903C411.148 69.1955 411.401 69.3041 411.739 69.3161C412.077 69.3282 412.397 69.2256 412.698 69.0084C413 68.7912 413.223 68.5861 413.368 68.393L413.567 68.0853C413.591 68.0371 413.82 67.12 414.255 65.3342C414.617 63.8862 414.834 63.0416 414.906 62.8002C414.979 62.5589 415.063 62.3839 415.16 62.2753C415.365 62.0943 415.582 62.0038 415.811 62.0038C416.017 62.0038 416.167 62.0642 416.264 62.1848C416.36 62.3055 416.409 62.4201 416.409 62.5287L415.033 68.2844C415.021 68.3448 415.015 68.4413 415.015 68.574C415.015 68.8757 415.057 69.0748 415.142 69.1713C415.226 69.2679 415.353 69.3222 415.522 69.3342C415.787 69.298 415.998 69.111 416.155 68.7731C416.312 68.4353 416.493 67.9043 416.698 67.1804C416.722 67.0838 416.843 67.0356 417.06 67.0356C417.29 67.0356 417.404 67.0899 417.404 67.1985C417.392 67.2588 417.38 67.3433 417.368 67.4519C417.356 67.5604 417.302 67.7535 417.205 68.031C417.109 68.3086 417.006 68.568 416.897 68.8093C416.789 69.0507 416.638 69.2799 416.445 69.4971C416.252 69.7143 416.035 69.8651 415.793 69.9496C415.697 69.9737 415.552 69.9858 415.359 69.9858C414.563 69.9858 414.014 69.6479 413.712 68.9722C413.688 68.9843 413.621 69.0446 413.513 69.1532C413.404 69.2618 413.296 69.3523 413.187 69.4247C413.078 69.4971 412.946 69.5876 412.789 69.6962C412.632 69.8048 412.457 69.8772 412.264 69.9134C412.071 69.9496 411.866 69.9798 411.649 70.0039C411.118 70.0039 410.647 69.8953 410.237 69.6781C409.609 69.3041 409.296 68.6645 409.296 67.7595C409.296 67.0718 409.507 66.1728 409.929 65.0627C410.351 63.9526 410.563 63.2467 410.563 62.945C410.563 62.933 410.563 62.9209 410.563 62.9088C410.563 62.8002 410.563 62.7278 410.563 62.6916C410.563 62.6554 410.538 62.6132 410.49 62.5649C410.442 62.5167 410.376 62.4925 410.291 62.4925H410.219C409.941 62.4925 409.688 62.6072 409.458 62.8364C409.229 63.0657 409.048 63.3131 408.915 63.5785C408.783 63.844 408.68 64.0974 408.608 64.3387C408.535 64.58 408.487 64.7128 408.463 64.7369C408.439 64.761 408.342 64.7731 408.173 64.7731H407.92C407.848 64.7007 407.811 64.6464 407.811 64.6102Z" fill="#D582FF"/>
<path d="M418.65 68.8467C418.65 68.7273 418.714 68.5225 418.842 68.2325C418.97 67.9424 419.175 67.6396 419.457 67.3239C419.738 67.0083 420.054 66.8547 420.404 66.8633C420.753 66.8633 421.035 66.9614 421.248 67.1576C421.461 67.3538 421.572 67.6268 421.581 67.9765C421.564 68.1386 421.551 68.2282 421.542 68.2453C421.542 68.2709 421.474 68.4671 421.338 68.8339C421.201 69.2007 421.06 69.6145 420.915 70.0752C420.77 70.5358 420.702 70.9027 420.711 71.1757C420.711 71.5425 420.77 71.7984 420.89 71.9435C421.009 72.0885 421.188 72.1653 421.427 72.1738C421.623 72.1738 421.807 72.1269 421.977 72.033C422.148 71.9392 422.28 71.8411 422.374 71.7387C422.468 71.6363 422.583 71.4956 422.72 71.3164C422.72 71.3079 422.741 71.2226 422.784 71.0605C422.826 70.8984 422.886 70.6467 422.963 70.3055C423.04 69.9643 423.121 69.6486 423.206 69.3586C423.53 68.0789 423.709 67.4092 423.743 67.3495C423.854 67.1192 424.038 67.004 424.294 67.004C424.405 67.004 424.494 67.0339 424.562 67.0936C424.631 67.1533 424.678 67.2045 424.703 67.2471C424.729 67.2898 424.737 67.3282 424.729 67.3623C424.729 67.4732 424.52 68.369 424.102 70.0496C423.684 71.7302 423.445 72.6515 423.385 72.8136C423.146 73.5217 422.732 74.0847 422.144 74.5028C421.555 74.9208 420.967 75.134 420.378 75.1426C419.994 75.1426 419.657 75.0487 419.367 74.8611C419.077 74.6734 418.932 74.3919 418.932 74.0165C418.932 73.8288 418.962 73.671 419.021 73.543C419.081 73.4151 419.162 73.3212 419.265 73.2615C419.367 73.2018 419.452 73.1591 419.521 73.1335C419.589 73.1079 419.661 73.0951 419.738 73.0951C420.113 73.0951 420.301 73.2743 420.301 73.6326C420.301 73.8032 420.25 73.9525 420.148 74.0805C420.045 74.2084 419.947 74.2937 419.853 74.3364C419.759 74.3791 419.704 74.4004 419.687 74.4004L419.649 74.4132C419.666 74.4558 419.747 74.507 419.892 74.5667C420.037 74.6265 420.182 74.6563 420.327 74.6563H420.429C420.574 74.6563 420.685 74.6478 420.762 74.6307C421.043 74.5539 421.304 74.3919 421.542 74.1445C421.781 73.8971 421.965 73.6326 422.093 73.3511C422.221 73.0695 422.319 72.8307 422.387 72.6345C422.455 72.4383 422.489 72.3103 422.489 72.2506L422.413 72.3018C422.361 72.3359 422.28 72.3828 422.169 72.4425C422.059 72.5022 421.948 72.5534 421.837 72.5961C421.666 72.6387 421.5 72.6601 421.338 72.6601C420.945 72.6601 420.6 72.5662 420.301 72.3785C420.003 72.1909 419.806 71.888 419.712 71.47C419.704 71.4103 419.7 71.278 419.7 71.0733C419.7 70.587 419.849 69.9515 420.148 69.1666C420.446 68.3818 420.595 67.8827 420.595 67.6694C420.595 67.6609 420.595 67.6524 420.595 67.6438C420.595 67.5671 420.595 67.5159 420.595 67.4903C420.595 67.4647 420.578 67.4348 420.544 67.4007C420.51 67.3666 420.463 67.3495 420.404 67.3495H420.352C420.156 67.3495 419.977 67.4306 419.815 67.5927C419.653 67.7547 419.525 67.9296 419.431 68.1173C419.337 68.305 419.265 68.4841 419.213 68.6548C419.162 68.8254 419.128 68.9192 419.111 68.9363C419.094 68.9533 419.026 68.9619 418.906 68.9619H418.727C418.676 68.9107 418.65 68.8723 418.65 68.8467Z" fill="#D582FF"/>
<path d="M430.3 32.4276V31.3054H435.169V74.7266H430.3V73.6044H434.047V32.4276H430.3Z" fill="#F0F0F0"/>
</g>
<path d="M230.398 142.746L220 130.001L236.435 130.671L230.733 135.367L230.398 142.746Z" fill="#807C45"/>
<path d="M320 180L223.578 131.789" stroke="#807C45" stroke-width="1.5"/>
<path d="M220 130L280 210" stroke="#807C45" stroke-width="1.5" stroke-dasharray="6 6"/>
<path d="M296.05 206.4L280 210L287.95 195.6L289.6 202.8L296.05 206.4Z" fill="#FFF888"/>
<path d="M320 180L283.2 207.6" stroke="#FFF888" stroke-width="1.5"/>
<path d="M214.639 85.4375H163.561V138.805H214.639V85.4375Z" fill="black"/>
<g clip-path="url(#clip16_442_11425)">
<path d="M166.155 131.857V88.4371H171.024V89.5592H167.277V130.735H171.024V131.857H166.155Z" fill="#F0F0F0"/>
<path d="M176.779 97.7131C176.779 97.7131 176.779 97.6347 176.779 97.4779C176.779 97.321 176.864 97.2003 177.033 97.1159H187.548C187.729 97.2124 187.82 97.3331 187.82 97.4779C187.82 97.6227 187.729 97.7433 187.548 97.8398H177.033C176.864 97.7554 176.779 97.6347 176.779 97.4779V97.7131Z" fill="#FFF888"/>
<path d="M191.313 94.2373C190.987 94.2373 190.728 94.1287 190.535 93.9115C190.342 93.6944 190.245 93.4289 190.245 93.1152C190.245 92.2585 190.565 91.5164 191.205 90.889C191.844 90.2615 192.64 89.9478 193.594 89.9478C194.692 89.9478 195.609 90.2856 196.345 90.9613C197.081 91.6371 197.455 92.5119 197.467 93.5858C197.467 94.1046 197.346 94.5993 197.105 95.0699C196.864 95.5405 196.574 95.9507 196.236 96.3007C195.898 96.6506 195.416 97.097 194.788 97.64C194.354 98.0141 193.75 98.5691 192.978 99.3051L191.91 100.319L193.286 100.337C195.18 100.337 196.188 100.307 196.309 100.246C196.393 100.222 196.538 99.6852 196.743 98.6355V98.5812H197.467V98.6355C197.455 98.6717 197.376 99.2207 197.232 100.283C197.087 101.344 196.996 101.899 196.96 101.948V102.002H190.245V101.658V101.441C190.245 101.356 190.281 101.266 190.354 101.169C190.426 101.073 190.607 100.862 190.897 100.536C191.247 100.15 191.548 99.8119 191.802 99.5223C191.91 99.4017 192.116 99.1785 192.417 98.8527C192.719 98.5269 192.924 98.3037 193.033 98.183C193.141 98.0623 193.316 97.8632 193.557 97.5857C193.799 97.3082 193.968 97.1031 194.064 96.9703C194.161 96.8376 194.299 96.6566 194.48 96.4274C194.661 96.1981 194.788 96.005 194.861 95.8482C194.933 95.6913 195.023 95.5164 195.132 95.3233C195.241 95.1302 195.319 94.9372 195.367 94.7441C195.416 94.5511 195.458 94.3701 195.494 94.2011C195.53 94.0322 195.548 93.8331 195.548 93.6039C195.548 92.8437 195.343 92.1861 194.933 91.631C194.523 91.076 193.938 90.7985 193.177 90.7985C192.779 90.7985 192.429 90.901 192.128 91.1061C191.826 91.3113 191.615 91.5104 191.494 91.7034C191.373 91.8965 191.313 92.0111 191.313 92.0473C191.313 92.0594 191.343 92.0654 191.404 92.0654C191.621 92.0654 191.844 92.1499 192.073 92.3188C192.303 92.4877 192.417 92.7653 192.417 93.1514C192.417 93.453 192.321 93.7064 192.128 93.9115C191.935 94.1167 191.663 94.2253 191.313 94.2373Z" fill="#FFF888"/>
<path d="M186.155 116.88L185.92 116.971C185.751 117.031 185.509 117.092 185.196 117.152C184.882 117.212 184.532 117.254 184.146 117.279H183.802V116.446H184.146C184.713 116.422 185.238 116.331 185.72 116.174C186.203 116.018 186.541 115.873 186.734 115.74C186.927 115.607 187.096 115.475 187.241 115.342C187.265 115.306 187.337 115.288 187.458 115.288C187.567 115.288 187.669 115.324 187.766 115.396V120.808L187.784 126.238C187.868 126.322 187.941 126.376 188.001 126.401C188.061 126.425 188.206 126.449 188.435 126.473C188.665 126.497 189.039 126.509 189.557 126.509H190.028V127.342H189.829C189.576 127.306 188.616 127.287 186.951 127.287C185.31 127.287 184.363 127.306 184.11 127.342H183.892V126.509H184.363C184.628 126.509 184.858 126.509 185.051 126.509C185.244 126.509 185.395 126.503 185.503 126.491C185.612 126.479 185.708 126.461 185.793 126.437C185.877 126.413 185.926 126.401 185.938 126.401C185.95 126.401 185.986 126.37 186.046 126.31C186.107 126.25 186.143 126.226 186.155 126.238V116.88Z" fill="#FFF888"/>
<path d="M202.607 89.5592V88.4371H207.476V131.857H202.607V130.735H206.354V89.5592H202.607Z" fill="#F0F0F0"/>
</g>
</g>
<defs>
<clipPath id="clip0_442_11425">
<rect width="640" height="360" fill="white"/>
</clipPath>
<clipPath id="clip1_442_11425">
<rect width="640" height="360" fill="white"/>
</clipPath>
<clipPath id="clip2_442_11425">
<rect width="103.05" height="21.276" fill="white" transform="translate(416.475 230.791)"/>
</clipPath>
<clipPath id="clip3_442_11425">
<rect width="16" height="101" fill="white" transform="translate(518.5 266.045) rotate(90)"/>
</clipPath>
<clipPath id="clip4_442_11425">
<rect width="23.128" height="13.536" fill="white" transform="matrix(0.8 -0.6 0.6 0.8 121.3 350.537)"/>
</clipPath>
<clipPath id="clip5_442_11425">
<rect width="23.128" height="13.736" fill="white" transform="matrix(0.8 -0.6 0.6 0.8 161.19 320.754)"/>
</clipPath>
<clipPath id="clip6_442_11425">
<rect width="23.128" height="13.52" fill="white" transform="matrix(0.8 -0.6 0.6 0.8 201.242 290.592)"/>
</clipPath>
<clipPath id="clip7_442_11425">
<rect width="23.128" height="13.536" fill="white" transform="matrix(0.8 -0.6 0.6 0.8 241.43 260.711)"/>
</clipPath>
<clipPath id="clip8_442_11425">
<rect width="23.128" height="13.536" fill="white" transform="matrix(0.8 -0.6 0.6 0.8 281.604 230.58)"/>
</clipPath>
<clipPath id="clip9_442_11425">
<rect width="9.048" height="12.456" fill="white" transform="matrix(0.8 -0.6 0.6 0.8 327.001 196.26)"/>
</clipPath>
<clipPath id="clip10_442_11425">
<rect width="9.048" height="12.056" fill="white" transform="matrix(0.8 -0.6 0.6 0.8 367.739 165.979)"/>
</clipPath>
<clipPath id="clip11_442_11425">
<rect width="9.048" height="12.056" fill="white" transform="matrix(0.8 -0.6 0.6 0.8 407.305 136.305)"/>
</clipPath>
<clipPath id="clip12_442_11425">
<rect width="9.048" height="12.432" fill="white" transform="matrix(0.8 -0.6 0.6 0.8 447.054 106.232)"/>
</clipPath>
<clipPath id="clip13_442_11425">
<rect width="9.048" height="12.256" fill="white" transform="matrix(0.8 -0.6 0.6 0.8 486.892 76.4785)"/>
</clipPath>
<clipPath id="clip14_442_11425">
<rect width="9.048" height="12.456" fill="white" transform="matrix(0.8 -0.6 0.6 0.8 527.175 46.1309)"/>
</clipPath>
<clipPath id="clip15_442_11425">
<rect width="55.376" height="44.256" fill="white" transform="translate(384.282 30.8887)"/>
</clipPath>
<clipPath id="clip16_442_11425">
<rect width="50.28" height="43.44" fill="white" transform="translate(161.684 88.4277)"/>
</clipPath>
</defs>
</svg>
