<svg width="800" height="360" viewBox="0 0 800 360" fill="none" xmlns="http://www.w3.org/2000/svg">
<g clip-path="url(#clip0_1427_2)">
<path d="M800 0H0V360H800V0Z" fill="white"/>
<path d="M481 0H-159V360H481V0Z" fill="white"/>
<path opacity="0.25" d="M182.036 184.295L183.6 129.515L204.367 163.856L201.083 221.961L182.036 184.295Z" fill="#D0D0D0" stroke="#202020" stroke-width="1.5"/>
<path opacity="0.25" d="M182.036 184.295L201.083 221.961L133.813 232.729L120.987 193.053L182.036 184.295Z" fill="#D0D0D0" stroke="#202020" stroke-width="1.5"/>
<path opacity="0.25" d="M120.987 193.053L118.056 137.458L183.6 129.515L182.036 184.295L120.987 193.053Z" fill="#D0D0D0" stroke="#202020" stroke-width="1.5"/>
<path d="M222.114 116.991C228.012 123.879 229.033 132.683 224.395 136.654C219.757 140.625 211.216 138.261 205.318 131.373C199.42 124.485 198.399 115.681 203.037 111.71C207.675 107.739 216.216 110.103 222.114 116.991Z" stroke="#101010" stroke-opacity="0.25" stroke-width="1.5"/>
<path d="M222.062 133.812L227.365 139.18" stroke="black" stroke-width="1.5"/>
<path d="M200.966 125.33C201.343 125.5 201.788 125.332 201.958 124.954L204.731 118.8C204.901 118.422 204.733 117.978 204.355 117.808C203.977 117.638 203.533 117.806 203.363 118.184L200.898 123.654L195.428 121.189C195.05 121.019 194.606 121.187 194.436 121.565C194.266 121.942 194.434 122.387 194.812 122.557L200.966 125.33ZM221.544 117.479C224.41 120.825 226.067 124.612 226.46 128.003C226.854 131.399 225.979 134.31 223.907 136.084L224.883 137.223C227.449 135.026 228.382 131.55 227.951 127.83C227.518 124.104 225.717 120.045 222.684 116.503L221.544 117.479ZM203.525 112.28C205.597 110.506 208.608 110.089 211.903 111.001C215.193 111.912 218.679 114.133 221.544 117.479L222.684 116.503C219.651 112.961 215.918 110.556 212.304 109.555C208.694 108.556 205.116 108.943 202.55 111.14L203.525 112.28ZM201.975 124.38C200.084 119.386 200.664 114.729 203.525 112.28L202.55 111.14C198.997 114.182 198.575 119.636 200.573 124.912L201.975 124.38Z" fill="#101010"/>
<path d="M218.08 280.99H200.466V295.934H218.08V280.99Z" fill="white"/>
<g clip-path="url(#clip1_1427_2)">
<path d="M204.798 288.001C204.89 287.45 205.244 286.814 205.861 286.092C206.477 285.371 207.238 285.003 208.144 284.99C208.603 284.99 209.023 285.108 209.403 285.344C209.784 285.581 210.066 285.876 210.25 286.23C210.801 285.403 211.463 284.99 212.238 284.99C212.723 284.99 213.143 285.134 213.497 285.423C213.851 285.712 214.035 286.099 214.048 286.584C214.048 286.965 213.956 287.273 213.773 287.509C213.589 287.745 213.412 287.89 213.241 287.942C213.071 287.995 212.92 288.021 212.789 288.021C212.539 288.021 212.336 287.949 212.179 287.805C212.021 287.66 211.942 287.47 211.942 287.234C211.942 286.63 212.27 286.217 212.926 285.994C212.782 285.823 212.52 285.738 212.139 285.738C211.969 285.738 211.844 285.751 211.765 285.777C211.267 285.987 210.899 286.42 210.663 287.076C209.876 289.976 209.482 291.669 209.482 292.154C209.482 292.521 209.587 292.784 209.797 292.941C210.007 293.099 210.237 293.178 210.486 293.178C210.971 293.178 211.45 292.961 211.923 292.528C212.395 292.095 212.716 291.564 212.887 290.934C212.926 290.803 212.966 290.73 213.005 290.717C213.045 290.704 213.149 290.691 213.32 290.678H213.399C213.596 290.678 213.694 290.73 213.694 290.835C213.694 290.849 213.681 290.921 213.655 291.052C213.445 291.8 213.038 292.462 212.434 293.04C211.831 293.617 211.129 293.906 210.328 293.906C209.41 293.906 208.715 293.492 208.242 292.666C207.704 293.479 207.088 293.886 206.392 293.886H206.274C205.631 293.886 205.172 293.716 204.896 293.374C204.621 293.033 204.476 292.672 204.463 292.292C204.463 291.872 204.588 291.531 204.837 291.268C205.087 291.006 205.382 290.875 205.723 290.875C206.287 290.875 206.569 291.15 206.569 291.701C206.569 291.964 206.491 292.193 206.333 292.39C206.176 292.587 206.025 292.718 205.88 292.784C205.736 292.85 205.651 292.882 205.625 292.882L205.566 292.902C205.566 292.915 205.605 292.941 205.684 292.981C205.762 293.02 205.867 293.066 205.999 293.119C206.13 293.171 206.254 293.191 206.372 293.178C206.845 293.178 207.252 292.882 207.593 292.292C207.711 292.082 207.862 291.636 208.045 290.954C208.229 290.271 208.413 289.563 208.596 288.828C208.78 288.093 208.885 287.66 208.911 287.529C208.977 287.175 209.01 286.919 209.01 286.761C209.01 286.394 208.911 286.132 208.715 285.974C208.518 285.817 208.295 285.738 208.045 285.738C207.521 285.738 207.029 285.948 206.569 286.368C206.11 286.788 205.789 287.326 205.605 287.982C205.579 288.1 205.546 288.165 205.506 288.178C205.467 288.192 205.362 288.205 205.192 288.218H204.916C204.837 288.139 204.798 288.067 204.798 288.001Z" fill="#202020"/>
</g>
<path d="M309.416 149.442H292.031V168.219H309.416V149.442Z" fill="white"/>
<g clip-path="url(#clip2_1427_2)">
<path d="M296.03 156.494C296.03 156.31 296.128 155.995 296.325 155.549C296.522 155.103 296.837 154.637 297.27 154.151C297.703 153.666 298.189 153.429 298.727 153.442C299.265 153.442 299.698 153.593 300.026 153.895C300.354 154.197 300.525 154.617 300.538 155.155C300.512 155.404 300.492 155.542 300.479 155.568C300.479 155.608 300.374 155.91 300.164 156.474C299.954 157.038 299.737 157.675 299.514 158.384C299.291 159.092 299.186 159.657 299.199 160.077C299.199 160.641 299.291 161.035 299.475 161.258C299.659 161.481 299.934 161.599 300.302 161.612C300.604 161.612 300.886 161.54 301.148 161.396C301.411 161.251 301.614 161.1 301.759 160.943C301.903 160.785 302.08 160.569 302.29 160.293C302.29 160.28 302.323 160.149 302.388 159.899C302.454 159.65 302.546 159.263 302.664 158.738C302.782 158.213 302.907 157.727 303.038 157.281C303.537 155.313 303.812 154.282 303.865 154.19C304.036 153.836 304.318 153.659 304.711 153.659C304.882 153.659 305.02 153.705 305.125 153.797C305.23 153.889 305.302 153.967 305.341 154.033C305.381 154.099 305.394 154.158 305.381 154.21C305.381 154.381 305.059 155.759 304.416 158.344C303.773 160.93 303.406 162.347 303.314 162.596C302.946 163.686 302.31 164.552 301.404 165.195C300.499 165.838 299.593 166.166 298.688 166.179C298.097 166.179 297.579 166.035 297.132 165.746C296.686 165.457 296.463 165.024 296.463 164.447C296.463 164.158 296.509 163.915 296.601 163.718C296.693 163.522 296.817 163.377 296.975 163.285C297.132 163.193 297.264 163.128 297.369 163.089C297.474 163.049 297.585 163.029 297.703 163.029C298.281 163.029 298.569 163.305 298.569 163.856C298.569 164.119 298.491 164.348 298.333 164.545C298.176 164.742 298.025 164.873 297.88 164.939C297.736 165.005 297.651 165.037 297.624 165.037L297.565 165.057C297.592 165.123 297.716 165.201 297.939 165.293C298.163 165.385 298.386 165.431 298.609 165.431H298.766C298.989 165.431 299.16 165.418 299.278 165.392C299.711 165.274 300.111 165.024 300.479 164.644C300.846 164.263 301.129 163.856 301.325 163.423C301.522 162.99 301.673 162.623 301.778 162.321C301.883 162.019 301.936 161.822 301.936 161.73L301.818 161.809C301.739 161.861 301.614 161.934 301.444 162.025C301.273 162.117 301.102 162.196 300.932 162.262C300.669 162.327 300.413 162.36 300.164 162.36C299.56 162.36 299.029 162.216 298.569 161.927C298.11 161.638 297.808 161.172 297.664 160.529C297.651 160.437 297.644 160.234 297.644 159.919C297.644 159.171 297.874 158.193 298.333 156.986C298.793 155.778 299.022 155.011 299.022 154.683C299.022 154.669 299.022 154.656 299.022 154.643C299.022 154.525 299.022 154.446 299.022 154.407C299.022 154.368 298.996 154.322 298.943 154.269C298.891 154.217 298.819 154.19 298.727 154.19H298.648C298.346 154.19 298.071 154.315 297.821 154.564C297.572 154.814 297.375 155.083 297.231 155.372C297.086 155.66 296.975 155.936 296.896 156.198C296.817 156.461 296.765 156.605 296.739 156.632C296.712 156.658 296.607 156.671 296.424 156.671H296.148C296.069 156.592 296.03 156.533 296.03 156.494Z" fill="#202020"/>
</g>
<path d="M168.216 17.668H151.666V32.6121H168.216V17.668Z" fill="white"/>
<g clip-path="url(#clip3_1427_2)">
<path d="M161.805 23.7153C161.674 23.7153 161.326 23.6431 160.762 23.4987C160.198 23.3544 159.784 23.2822 159.522 23.2822C159.26 23.2822 159.037 23.3085 158.853 23.361C158.669 23.4135 158.518 23.4791 158.4 23.5578C158.282 23.6365 158.203 23.7087 158.164 23.7743C158.125 23.8399 158.079 23.9121 158.026 23.9908L157.987 24.0695C157.947 24.1089 157.849 24.1286 157.692 24.1286C157.416 24.1286 157.278 24.0761 157.278 23.9711C157.278 23.9055 157.298 23.8137 157.337 23.6956C157.508 23.1838 157.79 22.7442 158.184 22.3768C158.577 22.0094 159.01 21.7864 159.483 21.7076C159.64 21.6814 159.752 21.6683 159.817 21.6683C160.145 21.6683 160.441 21.7798 160.703 22.0029C160.965 22.2259 161.215 22.4424 161.451 22.6524C161.687 22.8623 161.936 22.9739 162.199 22.987C162.488 22.987 162.776 22.7705 163.065 22.3375C163.354 21.9045 163.504 21.6879 163.518 21.6879C163.531 21.6748 163.629 21.6683 163.813 21.6683H164.069C164.147 21.747 164.187 21.7995 164.187 21.8257C164.187 21.8782 164.154 21.9701 164.088 22.1013C164.023 22.2325 163.931 22.3703 163.813 22.5146C163.695 22.659 163.583 22.8033 163.478 22.9476C163.373 23.092 163.281 23.2166 163.203 23.3216L163.065 23.4987C162.501 24.168 161.608 25.0537 160.388 26.1559C159.168 27.2581 158.413 27.9667 158.125 28.2816L157.888 28.5178L158.184 28.5375C158.472 28.5375 158.892 28.6097 159.443 28.754C159.994 28.8983 160.408 28.9705 160.683 28.9705C161.182 28.9705 161.641 28.8458 162.061 28.5965C162.481 28.3472 162.757 28.0192 162.888 27.6124C162.94 27.4943 162.986 27.4221 163.026 27.3959C163.065 27.3697 163.163 27.3565 163.321 27.3565C163.57 27.3565 163.695 27.4221 163.695 27.5534C163.695 27.619 163.688 27.678 163.675 27.7305C163.452 28.544 163.019 29.2198 162.376 29.7578C161.733 30.2958 161.09 30.5714 160.447 30.5845C160.106 30.5845 159.804 30.4729 159.542 30.2499C159.279 30.0268 159.023 29.8037 158.774 29.5807C158.525 29.3576 158.275 29.2461 158.026 29.2461C157.449 29.2461 156.93 29.6397 156.471 30.427C156.393 30.532 156.281 30.5845 156.137 30.5845H156.038H155.782C155.704 30.5057 155.664 30.4467 155.664 30.4073C155.664 30.2105 156.045 29.6463 156.806 28.7146C157.318 28.1242 158.184 27.2712 159.404 26.1559C160.624 25.0405 161.379 24.332 161.667 24.0302C161.825 23.8202 161.871 23.7153 161.805 23.7153Z" fill="#202020"/>
</g>
<path d="M132.124 135.019L132.163 118.57L144.448 129.508L137.062 129.524L132.124 135.019Z" fill="#808080"/>
<path d="M201.671 257.47L201.632 273.919L189.347 262.981L196.733 262.964L201.671 257.47Z" fill="#808080"/>
<path d="M199.999 270.268L133.796 122.222" stroke="#808080" stroke-width="1.5"/>
<path d="M34.9431 203.862L19.151 199.261L33.0682 190.493L31.0347 197.594L34.9431 203.862Z" fill="#808080"/>
<path d="M269.662 157.312L285.454 161.914L271.537 170.682L273.57 163.58L269.662 157.312Z" fill="#808080"/>
<path d="M281.493 162.47L23.1122 198.706" stroke="#808080" stroke-width="1.5"/>
<path d="M166.306 263.375L159.575 278.383L152.806 263.392L159.56 266.383L166.306 263.375Z" fill="#808080"/>
<path d="M152.545 61.1841L159.276 46.1754L166.045 61.1667L159.291 58.1754L152.545 61.1841Z" fill="#808080"/>
<path d="M159.281 50.1753L159.57 274.383" stroke="#808080" stroke-width="1.5"/>
<path d="M230.675 97.4165L246.001 91.4432L240.307 106.875L237.593 100.005L230.675 97.4165Z" fill="#202020"/>
<path d="M159.448 179.585L243.198 94.2969" stroke="#202020" stroke-width="1.5"/>
<path d="M159.448 179.585L187.365 151.155" stroke="#202020" stroke-width="1.5"/>
<path opacity="0.5" d="M201.083 221.962L204.367 163.856L131.599 173.779L133.813 232.729L201.083 221.962Z" fill="#40A839" stroke="#202020" stroke-width="1.5"/>
<path opacity="0.5" d="M204.367 163.856L183.6 129.515L118.056 137.458L131.599 173.779L204.367 163.856Z" fill="#485BFC" stroke="#202020" stroke-width="1.5"/>
<path opacity="0.5" d="M133.813 232.729L131.599 173.779L118.056 137.458L120.987 193.052L133.813 232.729Z" fill="#C74440" stroke="#202020" stroke-width="1.5"/>
<path d="M349.412 61.8555H240.655V85.3493H349.412V61.8555Z" fill="white"/>
<g clip-path="url(#clip4_1427_2)">
<path d="M246.681 67.0565C246.589 66.9646 246.517 66.9056 246.464 66.8793C246.412 66.8531 246.307 66.8334 246.149 66.8203C245.992 66.8071 245.71 66.7875 245.303 66.7612H244.653V65.8558H255.912V65.9345C255.938 66.0133 256.03 66.7743 256.188 68.2178C256.345 69.6612 256.437 70.4223 256.463 70.501V70.5797H255.676V70.501C255.663 70.4616 255.643 70.3238 255.617 70.0876C255.564 69.6284 255.486 69.2282 255.381 68.887C255.276 68.5458 255.164 68.2506 255.046 68.0012C254.928 67.7519 254.764 67.5551 254.554 67.4108C254.344 67.2664 254.147 67.1483 253.963 67.0565C253.78 66.9646 253.511 66.899 253.156 66.8596C252.802 66.8203 252.5 66.794 252.251 66.7809C252.002 66.7678 251.621 66.7612 251.109 66.7612C249.968 66.7612 249.299 66.7678 249.102 66.7809C248.905 66.794 248.787 66.8662 248.748 66.9974C248.748 66.9974 248.748 67.004 248.748 67.0171C248.734 67.0433 248.728 67.8569 248.728 69.4578V71.8394H249.791C250.749 71.8132 251.346 71.7541 251.582 71.6623C252.054 71.4523 252.31 70.9012 252.349 70.0089C252.349 69.9827 252.349 69.9564 252.349 69.9302V69.5365H253.137V75.0478H252.349V74.6541C252.336 74.1948 252.284 73.834 252.192 73.5715C252.1 73.3091 251.936 73.1188 251.7 73.0007C251.464 72.8826 251.241 72.8105 251.031 72.7842C250.821 72.758 250.48 72.7448 250.007 72.7448C249.915 72.7448 249.843 72.7448 249.791 72.7448H248.728V75.3824V76.9964C248.728 77.7443 248.761 78.1511 248.826 78.2167C248.905 78.2823 249.246 78.3151 249.85 78.3151H250.854H251.857C252.343 78.3151 252.743 78.2955 253.058 78.2561C253.373 78.2167 253.721 78.138 254.101 78.0199C254.482 77.9018 254.79 77.705 255.026 77.4294C255.263 77.1538 255.473 76.7995 255.656 76.3665C255.787 76.0253 255.886 75.6711 255.951 75.3036C256.017 74.9362 256.07 74.6279 256.109 74.3785C256.148 74.1292 256.181 73.9783 256.207 73.9258V73.8668H256.995V73.9258C256.982 73.9652 256.85 74.8378 256.601 76.5437C256.352 78.2495 256.207 79.1287 256.168 79.1812V79.2402H244.653V78.3348H245.303C245.854 78.3217 246.189 78.302 246.307 78.2758C246.425 78.2495 246.55 78.1708 246.681 78.0396V67.0565Z" fill="#202020"/>
<path d="M258.924 67.2533C258.924 66.8859 259.042 66.5972 259.278 66.3872C259.514 66.1773 259.803 66.0723 260.144 66.0723C260.446 66.0986 260.708 66.2101 260.931 66.4069C261.154 66.6038 261.266 66.8859 261.266 67.2533C261.266 67.647 261.154 67.9422 260.931 68.139C260.708 68.3359 260.433 68.4343 260.105 68.4343C259.777 68.4343 259.501 68.3359 259.278 68.139C259.055 67.9422 258.937 67.647 258.924 67.2533ZM262.427 79.2402C262.23 79.2009 261.548 79.1812 260.38 79.1812C260.236 79.1812 259.993 79.1812 259.652 79.1812C259.311 79.1812 258.983 79.1943 258.668 79.2206L258.235 79.2402H258.077V78.3348H258.392C258.76 78.3348 259.081 78.3151 259.357 78.2758C259.475 78.2233 259.547 78.1511 259.573 78.0593C259.599 77.9674 259.613 77.6918 259.613 77.2326V75.2052V73.4731C259.613 72.7908 259.599 72.3577 259.573 72.174C259.547 71.9903 259.455 71.8657 259.298 71.8001C259.114 71.7082 258.806 71.6623 258.372 71.6623H258.156V71.2096C258.156 70.9078 258.169 70.7569 258.195 70.7569L258.392 70.7372C258.523 70.7241 258.707 70.7109 258.943 70.6978C259.179 70.6847 259.416 70.6716 259.652 70.6585C259.875 70.6453 260.111 70.6322 260.36 70.6191C260.61 70.606 260.8 70.5863 260.931 70.56C261.062 70.5338 261.135 70.5272 261.148 70.5404H261.207V78.0199C261.272 78.1511 261.351 78.2298 261.443 78.2561C261.535 78.2823 261.765 78.3086 262.132 78.3348H262.585V79.2402H262.427Z" fill="#202020"/>
<path d="M269.513 71.1899C270.09 70.6125 270.747 70.3238 271.481 70.3238C271.875 70.3238 272.157 70.4485 272.328 70.6978C272.498 70.9471 272.584 71.1964 272.584 71.4458C272.584 71.6295 272.525 71.7935 272.406 71.9378C272.288 72.0822 272.111 72.1543 271.875 72.1543C271.442 72.1543 271.199 71.9575 271.147 71.5639C271.12 71.3802 271.14 71.2424 271.206 71.1505C271.206 71.1374 271.212 71.1177 271.225 71.0915V71.0718C270.858 71.1112 270.51 71.2555 270.182 71.5048C270.077 71.5704 270.025 71.6163 270.025 71.6426C270.025 71.6557 270.051 71.6885 270.104 71.741C270.156 71.7935 270.215 71.8722 270.281 71.9772C270.346 72.0822 270.418 72.2003 270.497 72.3315C270.576 72.4627 270.635 72.6333 270.674 72.8433C270.714 73.0532 270.74 73.2697 270.753 73.4928C270.753 74.3064 270.432 74.9953 269.789 75.5595C269.146 76.1238 268.352 76.4124 267.407 76.4256C266.751 76.4256 266.101 76.2419 265.458 75.8744C265.314 76.1106 265.242 76.3599 265.242 76.6224C265.242 77.0817 265.412 77.4228 265.754 77.6459C265.872 77.7246 265.983 77.764 266.088 77.764C266.193 77.764 266.666 77.7771 267.505 77.8034C268.608 77.8165 269.316 77.8559 269.631 77.9215C270.432 78.0396 271.061 78.3086 271.521 78.7285C272.032 79.2402 272.288 79.8832 272.288 80.6574C272.288 81.5366 271.777 82.2124 270.753 82.6847C269.966 83.0915 269.034 83.2949 267.958 83.2949C266.869 83.2949 265.931 83.0915 265.143 82.6847C264.12 82.2255 263.608 81.5694 263.608 80.7165C263.608 80.2441 263.746 79.8504 264.021 79.5355C264.297 79.2205 264.573 79.004 264.848 78.8859L265.065 78.7678C264.592 78.3611 264.356 77.8099 264.356 77.1145C264.356 76.4977 264.546 75.94 264.927 75.4414C264.35 74.864 264.061 74.2145 264.061 73.4928C264.061 72.6661 264.389 71.9706 265.045 71.4064C265.701 70.8421 266.495 70.5535 267.427 70.5403C268.096 70.5403 268.719 70.7109 269.297 71.0521L269.513 71.1899ZM268.923 72.489C268.857 72.1215 268.686 71.8329 268.411 71.6229C268.135 71.413 267.794 71.3014 267.387 71.2883C267.007 71.2883 266.679 71.3933 266.403 71.6032C266.128 71.8132 265.957 72.1084 265.891 72.489C265.852 72.712 265.832 73.0466 265.832 73.4928C265.832 74.0702 265.878 74.4966 265.97 74.7722C266.062 75.0477 266.259 75.2774 266.561 75.4611C266.784 75.5923 267.066 75.6579 267.407 75.6579C267.696 75.6579 267.945 75.612 268.155 75.5201C268.365 75.4283 268.516 75.3102 268.608 75.1658C268.699 75.0215 268.772 74.8903 268.824 74.7722C268.877 74.6541 268.909 74.5557 268.923 74.4769C268.962 74.267 268.982 73.9389 268.982 73.4928C268.982 73.0466 268.962 72.712 268.923 72.489ZM270.97 80.7165C270.97 80.3884 270.878 80.1194 270.694 79.9094C270.51 79.6995 270.241 79.5486 269.887 79.4567C269.533 79.3649 269.211 79.3058 268.923 79.2796C268.634 79.2533 268.28 79.2402 267.86 79.2402H267.328C266.449 79.2402 265.924 79.2796 265.754 79.3583C265.491 79.4764 265.288 79.6601 265.143 79.9094C264.999 80.1588 264.92 80.4212 264.907 80.6968C264.907 80.828 264.947 80.9789 265.025 81.1495C265.104 81.3201 265.242 81.5169 265.439 81.74C265.636 81.963 265.95 82.1467 266.383 82.2911C266.816 82.4354 267.341 82.5142 267.958 82.5273C268.864 82.5273 269.592 82.3436 270.143 81.9762C270.694 81.6087 270.97 81.1888 270.97 80.7165Z" fill="#202020"/>
<path d="M273.43 74.9491C273.43 74.2274 273.561 73.5713 273.824 72.9808C274.086 72.3903 274.414 71.9114 274.808 71.544C275.201 71.1766 275.628 70.901 276.087 70.7173C276.546 70.5336 276.979 70.4352 277.386 70.4221C278.082 70.4221 278.679 70.5401 279.177 70.7763C279.676 71.0125 280.057 71.3406 280.319 71.7605C280.581 72.1804 280.765 72.6003 280.87 73.0202C280.975 73.4401 281.034 73.9059 281.047 74.4177C281.047 74.5096 281.001 74.6014 280.909 74.6933H275.359V74.9885C275.359 76.9306 276.015 78.1115 277.327 78.5314C277.59 78.6102 277.878 78.6495 278.193 78.6495C278.744 78.6495 279.217 78.4396 279.61 78.0197C279.833 77.7966 280.011 77.521 280.142 77.193L280.339 76.7206C280.378 76.6812 280.483 76.6616 280.654 76.6616H280.713C280.936 76.6616 281.047 76.7272 281.047 76.8584C281.047 76.9109 281.028 76.9962 280.988 77.1143C280.739 77.836 280.326 78.4068 279.748 78.8267C279.171 79.2466 278.521 79.4565 277.8 79.4565C276.553 79.4565 275.516 79.0038 274.69 78.0984C273.863 77.193 273.443 76.1432 273.43 74.9491ZM279.433 73.8272C279.289 72.1476 278.666 71.2553 277.563 71.1503H277.524C277.419 71.1503 277.314 71.1569 277.209 71.17C277.104 71.1831 276.94 71.2356 276.717 71.3275C276.494 71.4193 276.304 71.5571 276.146 71.7408C275.989 71.9245 275.838 72.1935 275.694 72.5478C275.549 72.9021 275.444 73.3351 275.379 73.8469V73.9847H279.433V73.8272Z" fill="#202020"/>
<path d="M282.425 78.3348H282.701C283.212 78.3348 283.521 78.243 283.626 78.0593V77.9018C283.626 77.7837 283.626 77.6328 283.626 77.4491C283.626 77.2654 283.626 77.062 283.626 76.8389C283.626 76.6158 283.632 76.36 283.645 76.0713C283.659 75.7826 283.659 75.507 283.645 75.2446C283.645 74.8378 283.645 74.4048 283.645 73.9455C283.645 73.4862 283.639 73.0991 283.626 72.7842V72.3315C283.586 72.0822 283.495 71.9182 283.35 71.8394C283.206 71.7607 282.911 71.7016 282.464 71.6623H282.11V71.2096C282.11 70.9078 282.123 70.7569 282.15 70.7569L282.346 70.7372C282.478 70.7241 282.661 70.7109 282.897 70.6978C283.134 70.6847 283.376 70.6716 283.626 70.6585C283.849 70.6453 284.085 70.6322 284.334 70.6191C284.584 70.606 284.774 70.5863 284.905 70.56C285.036 70.5338 285.109 70.5272 285.122 70.5404H285.181V71.3277C285.181 71.8263 285.187 72.0756 285.2 72.0756C285.214 72.0756 285.246 72.0428 285.299 71.9772C285.351 71.9116 285.43 71.8132 285.535 71.682C285.64 71.5507 285.765 71.4326 285.909 71.3277C286.053 71.2227 286.244 71.098 286.48 70.9537C286.716 70.8094 286.965 70.7044 287.228 70.6388C287.49 70.5732 287.825 70.5404 288.232 70.5404C289.727 70.5928 290.561 71.3342 290.731 72.7645C290.744 72.8564 290.751 73.7684 290.751 75.5005V77.1932C290.751 77.6918 290.764 77.9871 290.79 78.0789C290.817 78.1708 290.889 78.2364 291.007 78.2758C291.282 78.3151 291.604 78.3348 291.971 78.3348H292.286V79.2402H292.129L291.656 79.2206C291.355 79.2074 291.027 79.2009 290.672 79.2009C290.318 79.2009 290.069 79.1943 289.924 79.1812C288.573 79.1812 287.838 79.2009 287.72 79.2402H287.562V78.3348H287.877C288.678 78.3348 289.078 78.2298 289.078 78.0199C289.091 77.9936 289.098 77.0882 289.098 75.3036C289.085 73.5322 289.071 72.5939 289.058 72.489C288.98 72.1216 288.848 71.846 288.665 71.6623C288.481 71.4786 288.323 71.367 288.192 71.3277C288.061 71.2883 287.89 71.2752 287.68 71.2883C287.09 71.2883 286.572 71.5114 286.125 71.9575C285.771 72.3118 285.548 72.6727 285.456 73.0401C285.364 73.4075 285.312 73.9521 285.299 74.6738V75.9335V77.1145C285.299 77.5081 285.305 77.7706 285.318 77.9018C285.332 78.033 285.351 78.1183 285.378 78.1577C285.404 78.197 285.463 78.2364 285.555 78.2758C285.83 78.3151 286.152 78.3348 286.519 78.3348H286.834V79.2402H286.677L286.224 79.2206C285.909 79.2074 285.574 79.2009 285.22 79.2009C284.866 79.2009 284.616 79.1943 284.472 79.1812C283.121 79.1812 282.386 79.2009 282.268 79.2402H282.11V78.3348H282.425Z" fill="#202020"/>
<path d="M299.215 70.7567C299.293 70.7829 299.845 70.796 300.868 70.796C301.616 70.796 302.147 70.7829 302.462 70.7567H302.561V71.6621H302.344C301.583 71.7146 301.098 71.977 300.888 72.4494C300.862 72.5019 300.422 73.6369 299.569 75.8546C298.716 78.0722 298.27 79.2138 298.231 79.2794C298.165 79.3975 298.001 79.4565 297.738 79.4565C297.489 79.4565 297.332 79.3975 297.266 79.2794C295.429 74.5424 294.504 72.141 294.491 72.0754C294.425 71.8917 294.32 71.7802 294.176 71.7408C294.032 71.7014 293.776 71.6752 293.408 71.6621H292.936V70.7567H293.054L293.211 70.7763C293.316 70.7763 293.448 70.7763 293.605 70.7763C293.763 70.7763 293.933 70.7763 294.117 70.7763C294.301 70.7763 294.465 70.7829 294.609 70.796C294.753 70.8091 294.871 70.8157 294.963 70.8157C296.21 70.8157 296.931 70.796 297.128 70.7567H297.286V71.6621H297.01C296.498 71.6752 296.223 71.7736 296.184 71.9573C296.184 72.0098 296.518 72.9021 297.187 74.6342L298.191 77.2324L299.982 72.5281V72.3707C299.982 72.187 299.917 72.0361 299.786 71.918C299.654 71.7999 299.536 71.7277 299.431 71.7014C299.326 71.6752 299.234 71.6621 299.156 71.6621H299.077V70.7567H299.215Z" fill="#202020"/>
<path d="M303.506 74.9491C303.506 74.2274 303.637 73.5713 303.899 72.9808C304.162 72.3903 304.49 71.9114 304.883 71.544C305.277 71.1766 305.704 70.901 306.163 70.7173C306.622 70.5336 307.055 70.4352 307.462 70.4221C308.157 70.4221 308.754 70.5401 309.253 70.7763C309.752 71.0125 310.132 71.3406 310.395 71.7605C310.657 72.1804 310.841 72.6003 310.946 73.0202C311.051 73.4401 311.11 73.9059 311.123 74.4177C311.123 74.5096 311.077 74.6014 310.985 74.6933H305.435V74.9885C305.435 76.9306 306.091 78.1115 307.403 78.5314C307.665 78.6102 307.954 78.6495 308.269 78.6495C308.82 78.6495 309.292 78.4396 309.686 78.0197C309.909 77.7966 310.086 77.521 310.217 77.193L310.414 76.7206C310.454 76.6812 310.559 76.6616 310.729 76.6616H310.788C311.011 76.6616 311.123 76.7272 311.123 76.8584C311.123 76.9109 311.103 76.9962 311.064 77.1143C310.815 77.836 310.401 78.4068 309.824 78.8267C309.246 79.2466 308.597 79.4565 307.875 79.4565C306.629 79.4565 305.592 79.0038 304.765 78.0984C303.939 77.193 303.519 76.1432 303.506 74.9491ZM309.509 73.8272C309.365 72.1476 308.741 71.2553 307.639 71.1503H307.6C307.495 71.1503 307.39 71.1569 307.285 71.17C307.18 71.1831 307.016 71.2356 306.793 71.3275C306.57 71.4193 306.379 71.5571 306.222 71.7408C306.064 71.9245 305.913 72.1935 305.769 72.5478C305.625 72.9021 305.52 73.3351 305.454 73.8469V73.9847H309.509V73.8272Z" fill="#202020"/>
<path d="M318.976 73.2369C318.976 73.2369 318.839 73.2369 318.563 73.2369C318.287 73.2369 318.051 73.1385 317.854 72.9416C317.658 72.7448 317.553 72.4955 317.54 72.1937C317.54 71.8919 317.638 71.6425 317.835 71.4457C317.9 71.3801 317.933 71.3407 317.933 71.3276C317.933 71.3145 317.868 71.3014 317.736 71.2883C317.395 71.2358 317.074 71.2095 316.772 71.2095C316.129 71.2095 315.604 71.4195 315.197 71.8394C314.581 72.4561 314.272 73.4862 314.272 74.9296C314.272 76.0056 314.476 76.852 314.882 77.4687C315.42 78.2692 316.142 78.6694 317.047 78.6694C317.585 78.6694 318.018 78.4988 318.347 78.1576C318.675 77.8164 318.911 77.4097 319.055 76.9373C319.081 76.8323 319.114 76.7667 319.154 76.7404C319.193 76.7142 319.298 76.7011 319.468 76.7011H319.744C319.823 76.7798 319.862 76.8389 319.862 76.8782C319.862 76.9307 319.836 77.0357 319.783 77.1932C319.731 77.3506 319.626 77.5671 319.468 77.8427C319.311 78.1183 319.121 78.3676 318.898 78.5906C318.675 78.8137 318.36 79.0171 317.953 79.2008C317.546 79.3845 317.093 79.4698 316.595 79.4567C315.466 79.4567 314.482 79.0368 313.642 78.197C312.803 77.3572 312.376 76.3009 312.363 75.028C312.363 73.6633 312.789 72.5545 313.642 71.7016C314.495 70.8487 315.486 70.4222 316.614 70.4222C317.743 70.4222 318.53 70.5993 318.976 70.9536C319.423 71.3079 319.646 71.7278 319.646 72.2134C319.646 72.5152 319.534 72.7579 319.311 72.9416L318.976 73.2369Z" fill="#202020"/>
<path d="M320.964 70.934C321.66 70.8815 322.198 70.5141 322.578 69.8317C322.959 69.1494 323.169 68.3489 323.208 67.4304V67.1351H323.996V70.7568H326.653V71.6622H323.996V74.4966C324.009 76.1368 324.015 77.0619 324.015 77.2719C324.015 77.4818 324.061 77.6918 324.153 77.9017C324.337 78.4135 324.658 78.6694 325.118 78.6694C325.695 78.6694 326.049 78.2035 326.18 77.2719C326.194 77.1669 326.2 76.8651 326.2 76.3665V75.6776H326.987V76.3665V76.6027C326.987 77.6131 326.712 78.3807 326.161 78.9056C325.806 79.2599 325.347 79.437 324.783 79.437C324.337 79.437 323.95 79.3583 323.622 79.2008C323.294 79.0434 323.044 78.84 322.874 78.5906C322.703 78.3413 322.578 78.1117 322.5 77.9017C322.421 77.6918 322.375 77.4818 322.362 77.2719C322.349 77.18 322.342 76.209 322.342 74.3588V71.6622H320.787V70.934H320.964Z" fill="#202020"/>
<path d="M328.641 75.028C328.641 73.7814 329.067 72.7054 329.92 71.8C330.773 70.8946 331.803 70.4353 333.01 70.4222C334.191 70.4222 335.208 70.8683 336.061 71.7606C336.914 72.6529 337.347 73.7355 337.36 75.0083C337.36 76.2549 336.94 77.3047 336.101 78.1576C335.261 79.0105 334.231 79.437 333.01 79.437C331.738 79.437 330.694 78.9974 329.881 78.1183C329.067 77.2391 328.654 76.209 328.641 75.028ZM333.01 78.6497C334.611 78.6497 335.412 77.5802 335.412 75.4414V74.8115V74.3194C335.412 74.0308 335.405 73.7814 335.392 73.5715C335.379 73.3615 335.333 73.1122 335.254 72.8235C335.176 72.5348 335.071 72.2986 334.939 72.1149C334.808 71.9312 334.605 71.7475 334.329 71.5638C334.054 71.3801 333.732 71.2489 333.365 71.1702C333.299 71.157 333.194 71.1505 333.05 71.1505C332.656 71.1505 332.282 71.2292 331.928 71.3867C331.364 71.6754 330.996 72.0756 330.826 72.5873C330.655 73.0991 330.57 73.7027 330.57 74.3982V74.7918C330.57 76.0515 330.694 76.9373 330.944 77.449C331.364 78.2495 332.052 78.6497 333.01 78.6497Z" fill="#202020"/>
<path d="M338.64 78.3348H338.915C339.427 78.3348 339.735 78.243 339.84 78.0593V77.9018C339.84 77.7837 339.84 77.6328 339.84 77.4491C339.84 77.2654 339.847 77.062 339.86 76.8389C339.873 76.6158 339.873 76.36 339.86 76.0713C339.847 75.7826 339.847 75.507 339.86 75.2446C339.86 74.8378 339.86 74.4048 339.86 73.9455C339.86 73.4862 339.86 73.0991 339.86 72.7842L339.84 72.3315C339.801 72.0822 339.709 71.9182 339.565 71.8394C339.42 71.7607 339.125 71.7016 338.679 71.6623H338.325V71.2096C338.325 70.9078 338.338 70.7569 338.364 70.7569L338.561 70.7372C338.692 70.7241 338.876 70.7109 339.112 70.6978C339.348 70.6847 339.585 70.6716 339.821 70.6585C340.031 70.6453 340.26 70.6322 340.51 70.6191C340.759 70.606 340.949 70.5863 341.08 70.56C341.212 70.5338 341.284 70.5272 341.297 70.5404H341.356V71.8985C341.868 71.0062 342.504 70.56 343.265 70.56H343.383C343.974 70.56 344.407 70.7044 344.682 70.9931C344.958 71.2817 345.096 71.5836 345.096 71.8985C345.096 72.174 345.01 72.4102 344.84 72.6071C344.669 72.8039 344.42 72.9023 344.092 72.9023C343.764 72.9023 343.521 72.7973 343.364 72.5874C343.206 72.3774 343.121 72.1544 343.108 71.9182C343.108 71.8001 343.121 71.6951 343.147 71.6032C343.173 71.5114 343.206 71.4326 343.246 71.367C343.285 71.3014 343.305 71.2686 343.305 71.2686C343.278 71.2424 343.127 71.2686 342.852 71.3474C342.642 71.4523 342.484 71.5507 342.379 71.6426C341.763 72.2331 341.454 73.4075 341.454 75.1659V76.2091C341.454 76.3796 341.454 76.5568 341.454 76.7405C341.454 76.9242 341.454 77.0948 341.454 77.2523C341.454 77.4097 341.461 77.5409 341.474 77.6459C341.487 77.7509 341.487 77.8493 341.474 77.9412V78.0396C341.487 78.0658 341.507 78.0921 341.533 78.1183C341.559 78.1445 341.592 78.1642 341.632 78.1774C341.671 78.1905 341.704 78.2102 341.73 78.2364C341.756 78.2626 341.802 78.2758 341.868 78.2758C341.933 78.2758 341.979 78.2823 342.006 78.2955C342.032 78.3086 342.091 78.3151 342.183 78.3151C342.275 78.3151 342.334 78.3151 342.36 78.3151C342.386 78.3151 342.452 78.3217 342.557 78.3348C342.662 78.3479 342.727 78.3479 342.753 78.3348H343.364V79.2402H343.186C342.95 79.2009 342.117 79.1812 340.687 79.1812C339.335 79.1812 338.6 79.2009 338.482 79.2402H338.325V78.3348H338.64Z" fill="#202020"/>
</g>
<path d="M187.365 151.157L243.2 94.2969" stroke="#202020" stroke-width="1.5"/>
<path d="M659.042 280.807H641.427V295.751H659.042V280.807Z" fill="white"/>
<g clip-path="url(#clip5_1427_2)">
<path d="M645.76 287.818C645.852 287.267 646.206 286.631 646.823 285.909C647.439 285.187 648.2 284.82 649.106 284.807C649.565 284.807 649.985 284.925 650.365 285.161C650.746 285.397 651.028 285.693 651.212 286.047C651.763 285.22 652.425 284.807 653.199 284.807C653.685 284.807 654.105 284.951 654.459 285.24C654.813 285.529 654.997 285.916 655.01 286.401C655.01 286.782 654.918 287.09 654.735 287.326C654.551 287.562 654.374 287.707 654.203 287.759C654.033 287.812 653.882 287.838 653.751 287.838C653.501 287.838 653.298 287.766 653.14 287.621C652.983 287.477 652.904 287.287 652.904 287.051C652.904 286.447 653.232 286.034 653.888 285.811C653.744 285.64 653.482 285.555 653.101 285.555C652.93 285.555 652.806 285.568 652.727 285.594C652.229 285.804 651.861 286.237 651.625 286.893C650.838 289.793 650.444 291.486 650.444 291.971C650.444 292.338 650.549 292.601 650.759 292.758C650.969 292.916 651.199 292.994 651.448 292.994C651.933 292.994 652.412 292.778 652.885 292.345C653.357 291.912 653.678 291.381 653.849 290.751C653.888 290.62 653.928 290.547 653.967 290.534C654.006 290.521 654.111 290.508 654.282 290.495H654.361C654.557 290.495 654.656 290.547 654.656 290.652C654.656 290.665 654.643 290.738 654.617 290.869C654.407 291.617 654 292.279 653.396 292.857C652.793 293.434 652.091 293.723 651.29 293.723C650.372 293.723 649.676 293.309 649.204 292.483C648.666 293.296 648.049 293.703 647.354 293.703H647.236C646.593 293.703 646.134 293.532 645.858 293.191C645.583 292.85 645.438 292.489 645.425 292.109C645.425 291.689 645.55 291.348 645.799 291.085C646.049 290.823 646.344 290.692 646.685 290.692C647.249 290.692 647.531 290.967 647.531 291.518C647.531 291.781 647.452 292.01 647.295 292.207C647.138 292.404 646.987 292.535 646.842 292.601C646.698 292.666 646.613 292.699 646.586 292.699L646.527 292.719C646.527 292.732 646.567 292.758 646.646 292.798C646.724 292.837 646.829 292.883 646.96 292.935C647.092 292.988 647.216 293.008 647.334 292.994C647.807 292.994 648.214 292.699 648.555 292.109C648.673 291.899 648.824 291.453 649.007 290.77C649.191 290.088 649.375 289.38 649.558 288.645C649.742 287.91 649.847 287.477 649.873 287.346C649.939 286.992 649.972 286.736 649.972 286.578C649.972 286.211 649.873 285.948 649.676 285.791C649.48 285.634 649.257 285.555 649.007 285.555C648.482 285.555 647.99 285.765 647.531 286.185C647.072 286.605 646.751 287.142 646.567 287.799C646.541 287.917 646.508 287.982 646.468 287.995C646.429 288.008 646.324 288.022 646.154 288.035H645.878C645.799 287.956 645.76 287.884 645.76 287.818Z" fill="#202020"/>
</g>
<path d="M749.077 149.072H731.692V167.849H749.077V149.072Z" fill="white"/>
<g clip-path="url(#clip6_1427_2)">
<path d="M735.691 156.124C735.691 155.94 735.789 155.625 735.986 155.179C736.183 154.732 736.498 154.267 736.931 153.781C737.364 153.295 737.85 153.059 738.388 153.072C738.926 153.072 739.359 153.223 739.687 153.525C740.015 153.827 740.186 154.247 740.199 154.785C740.173 155.034 740.153 155.172 740.14 155.198C740.14 155.238 740.035 155.54 739.825 156.104C739.615 156.668 739.398 157.305 739.175 158.013C738.952 158.722 738.847 159.286 738.86 159.706C738.86 160.271 738.952 160.664 739.136 160.888C739.32 161.111 739.595 161.229 739.963 161.242C740.265 161.242 740.547 161.17 740.809 161.025C741.072 160.881 741.275 160.73 741.419 160.573C741.564 160.415 741.741 160.199 741.951 159.923C741.951 159.91 741.984 159.779 742.049 159.529C742.115 159.28 742.207 158.893 742.325 158.368C742.443 157.843 742.568 157.357 742.699 156.911C743.198 154.942 743.473 153.912 743.526 153.82C743.696 153.466 743.979 153.289 744.372 153.289C744.543 153.289 744.681 153.335 744.786 153.427C744.891 153.518 744.963 153.597 745.002 153.663C745.042 153.728 745.055 153.788 745.042 153.84C745.042 154.011 744.72 155.389 744.077 157.974C743.434 160.559 743.067 161.977 742.975 162.226C742.607 163.316 741.971 164.182 741.065 164.825C740.16 165.468 739.254 165.796 738.348 165.809C737.758 165.809 737.239 165.665 736.793 165.376C736.347 165.087 736.124 164.654 736.124 164.077C736.124 163.788 736.17 163.545 736.262 163.348C736.354 163.151 736.478 163.007 736.636 162.915C736.793 162.823 736.925 162.758 737.03 162.718C737.134 162.679 737.246 162.659 737.364 162.659C737.942 162.659 738.23 162.935 738.23 163.486C738.23 163.749 738.152 163.978 737.994 164.175C737.837 164.372 737.686 164.503 737.541 164.569C737.397 164.634 737.312 164.667 737.285 164.667L737.226 164.687C737.253 164.753 737.377 164.831 737.6 164.923C737.823 165.015 738.047 165.061 738.27 165.061H738.427C738.65 165.061 738.821 165.048 738.939 165.022C739.372 164.904 739.772 164.654 740.14 164.274C740.507 163.893 740.79 163.486 740.986 163.053C741.183 162.62 741.334 162.252 741.439 161.951C741.544 161.649 741.597 161.452 741.597 161.36L741.479 161.439C741.4 161.491 741.275 161.563 741.104 161.655C740.934 161.747 740.763 161.826 740.593 161.892C740.33 161.957 740.074 161.99 739.825 161.99C739.221 161.99 738.69 161.846 738.23 161.557C737.771 161.268 737.469 160.802 737.325 160.159C737.312 160.067 737.305 159.864 737.305 159.549C737.305 158.801 737.535 157.823 737.994 156.616C738.453 155.408 738.683 154.641 738.683 154.312C738.683 154.299 738.683 154.286 738.683 154.273C738.683 154.155 738.683 154.076 738.683 154.037C738.683 153.998 738.657 153.952 738.604 153.899C738.552 153.847 738.48 153.82 738.388 153.82H738.309C738.007 153.82 737.732 153.945 737.482 154.194C737.233 154.444 737.036 154.713 736.892 155.002C736.747 155.29 736.636 155.566 736.557 155.828C736.478 156.091 736.426 156.235 736.4 156.261C736.373 156.288 736.268 156.301 736.085 156.301H735.809C735.73 156.222 735.691 156.163 735.691 156.124Z" fill="#202020"/>
</g>
<path d="M608.214 17.668H591.664V32.6121H608.214V17.668Z" fill="white"/>
<g clip-path="url(#clip7_1427_2)">
<path d="M601.803 23.7153C601.672 23.7153 601.324 23.6431 600.76 23.4987C600.196 23.3544 599.782 23.2822 599.52 23.2822C599.258 23.2822 599.034 23.3085 598.851 23.361C598.667 23.4135 598.516 23.4791 598.398 23.5578C598.28 23.6365 598.201 23.7087 598.162 23.7743C598.122 23.8399 598.077 23.9121 598.024 23.9908L597.985 24.0695C597.945 24.1089 597.847 24.1286 597.689 24.1286C597.414 24.1286 597.276 24.0761 597.276 23.9711C597.276 23.9055 597.296 23.8137 597.335 23.6956C597.506 23.1838 597.788 22.7442 598.182 22.3768C598.575 22.0094 599.008 21.7864 599.481 21.7076C599.638 21.6814 599.75 21.6683 599.815 21.6683C600.143 21.6683 600.438 21.7798 600.701 22.0029C600.963 22.2259 601.213 22.4424 601.449 22.6524C601.685 22.8623 601.934 22.9739 602.197 22.987C602.485 22.987 602.774 22.7705 603.063 22.3375C603.351 21.9045 603.502 21.6879 603.516 21.6879C603.529 21.6748 603.627 21.6683 603.811 21.6683H604.067C604.145 21.747 604.185 21.7995 604.185 21.8257C604.185 21.8782 604.152 21.9701 604.086 22.1013C604.021 22.2325 603.929 22.3703 603.811 22.5146C603.693 22.659 603.581 22.8033 603.476 22.9476C603.371 23.092 603.279 23.2166 603.201 23.3216L603.063 23.4987C602.499 24.168 601.606 25.0537 600.386 26.1559C599.166 27.2581 598.411 27.9667 598.122 28.2816L597.886 28.5178L598.182 28.5375C598.47 28.5375 598.89 28.6097 599.441 28.754C599.992 28.8983 600.406 28.9705 600.681 28.9705C601.18 28.9705 601.639 28.8458 602.059 28.5965C602.479 28.3472 602.754 28.0192 602.886 27.6124C602.938 27.4943 602.984 27.4221 603.023 27.3959C603.063 27.3697 603.161 27.3565 603.319 27.3565C603.568 27.3565 603.693 27.4221 603.693 27.5534C603.693 27.619 603.686 27.678 603.673 27.7305C603.45 28.544 603.017 29.2198 602.374 29.7578C601.731 30.2958 601.088 30.5714 600.445 30.5845C600.104 30.5845 599.802 30.4729 599.54 30.2499C599.277 30.0268 599.021 29.8037 598.772 29.5807C598.523 29.3576 598.273 29.2461 598.024 29.2461C597.447 29.2461 596.928 29.6397 596.469 30.427C596.39 30.532 596.279 30.5845 596.135 30.5845H596.036H595.78C595.702 30.5057 595.662 30.4467 595.662 30.4073C595.662 30.2105 596.043 29.6463 596.804 28.7146C597.316 28.1242 598.182 27.2712 599.402 26.1559C600.622 25.0405 601.377 24.332 601.665 24.0302C601.823 23.8202 601.869 23.7153 601.803 23.7153Z" fill="#202020"/>
</g>
<path d="M571.7 135.083L571.608 118.634L583.979 129.474L576.593 129.549L571.7 135.083Z" fill="#808080"/>
<path d="M642.368 257.318L642.46 273.767L630.088 262.927L637.475 262.851L642.368 257.318Z" fill="#808080"/>
<path d="M640.798 270.128L573.27 122.272" stroke="#808080" stroke-width="1.5"/>
<path d="M474.972 204.23L459.167 199.675L473.058 190.867L471.046 197.974L474.972 204.23Z" fill="#808080"/>
<path d="M709.359 157.026L725.165 161.581L711.273 170.39L713.286 163.282L709.359 157.026Z" fill="#808080"/>
<path d="M721.205 162.148L463.126 199.108" stroke="#808080" stroke-width="1.5"/>
<path d="M606.304 263.375L599.573 278.383L592.804 263.392L599.557 266.383L606.304 263.375Z" fill="#808080"/>
<path d="M592.543 61.1841L599.274 46.1754L606.043 61.1667L599.289 58.1754L592.543 61.1841Z" fill="#808080"/>
<path d="M599.279 50.1753L599.568 274.383" stroke="#808080" stroke-width="1.5"/>
<path d="M670.713 97.2485L686.034 91.2627L680.353 106.699L677.633 99.8317L670.713 97.2485Z" fill="#202020"/>
<path d="M599.446 179.585L627.25 151.224" stroke="#202020" stroke-width="1.5"/>
<path opacity="0.5" d="M640.881 187.093L651.899 156.991L612.883 210.933L605.861 236.29L640.881 187.093Z" fill="#40A839" stroke="#202020" stroke-width="1.5"/>
<path opacity="0.25" d="M588.421 153.866L592.754 120.439L651.899 156.991L640.881 187.093L588.421 153.866Z" fill="#D0D0D0" stroke="#202020" stroke-width="1.5"/>
<path opacity="0.25" d="M588.421 153.867L640.881 187.093L605.861 236.29L551.515 200.231L588.421 153.867Z" fill="#D0D0D0" stroke="#202020" stroke-width="1.5"/>
<path opacity="0.25" d="M551.515 200.231L551.326 170.867L592.754 120.439L588.421 153.866L551.515 200.231Z" fill="#D0D0D0" stroke="#202020" stroke-width="1.5"/>
<path opacity="0.5" d="M651.899 156.991L592.754 120.439L551.326 170.867L612.883 210.933L651.899 156.991Z" fill="#485BFC" stroke="#202020" stroke-width="1.5"/>
<path opacity="0.5" d="M605.861 236.29L612.883 210.933L551.326 170.867L551.515 200.231L605.861 236.29Z" fill="#C74440" stroke="#202020" stroke-width="1.5"/>
<path d="M757.437 61.6548H648.68V85.1486H757.437V61.6548Z" fill="white"/>
<g clip-path="url(#clip8_1427_2)">
<path d="M654.706 66.8558C654.614 66.7639 654.542 66.7049 654.489 66.6786C654.437 66.6524 654.332 66.6327 654.174 66.6196C654.017 66.6065 653.735 66.5868 653.328 66.5605H652.678V65.6551H663.937V65.7338C663.963 65.8126 664.055 66.5737 664.213 68.0171C664.37 69.4605 664.462 70.2216 664.488 70.3003V70.379H663.701V70.3003C663.688 70.2609 663.668 70.1232 663.642 69.887C663.589 69.4277 663.51 69.0275 663.406 68.6863C663.301 68.3451 663.189 68.0499 663.071 67.8006C662.953 67.5512 662.789 67.3544 662.579 67.2101C662.369 67.0657 662.172 66.9476 661.988 66.8558C661.805 66.7639 661.536 66.6983 661.181 66.6589C660.827 66.6196 660.525 66.5933 660.276 66.5802C660.027 66.5671 659.646 66.5605 659.134 66.5605C657.993 66.5605 657.323 66.5671 657.127 66.5802C656.93 66.5933 656.812 66.6655 656.772 66.7967C656.772 66.7967 656.772 66.8033 656.772 66.8164C656.759 66.8427 656.753 67.6562 656.753 69.2571V71.6387H657.816C658.773 71.6125 659.371 71.5535 659.607 71.4616C660.079 71.2516 660.335 70.7005 660.374 69.8082C660.374 69.782 660.374 69.7557 660.374 69.7295V69.3358H661.162V74.8471H660.374V74.4534C660.361 73.9941 660.309 73.6333 660.217 73.3708C660.125 73.1084 659.961 72.9181 659.725 72.8C659.489 72.6819 659.266 72.6098 659.056 72.5835C658.846 72.5573 658.504 72.5442 658.032 72.5442C657.94 72.5442 657.868 72.5442 657.816 72.5442H656.753V75.1817V76.7957C656.753 77.5436 656.785 77.9504 656.851 78.016C656.93 78.0816 657.271 78.1145 657.875 78.1145H658.878H659.882C660.368 78.1145 660.768 78.0948 661.083 78.0554C661.398 78.016 661.746 77.9373 662.126 77.8192C662.507 77.7011 662.815 77.5043 663.051 77.2287C663.287 76.9532 663.497 76.5989 663.681 76.1658C663.812 75.8247 663.911 75.4704 663.976 75.103C664.042 74.7355 664.094 74.4272 664.134 74.1779C664.173 73.9285 664.206 73.7776 664.232 73.7251V73.6661H665.02V73.7251C665.006 73.7645 664.875 74.6371 664.626 76.343C664.377 78.0488 664.232 78.928 664.193 78.9805V79.0396H652.678V78.1341H653.328C653.879 78.121 654.214 78.1013 654.332 78.0751C654.45 78.0488 654.574 77.9701 654.706 77.8389V66.8558Z" fill="#202020"/>
<path d="M666.948 67.0526C666.948 66.6852 667.067 66.3965 667.303 66.1866C667.539 65.9766 667.828 65.8716 668.169 65.8716C668.471 65.8979 668.733 66.0094 668.956 66.2062C669.179 66.4031 669.291 66.6852 669.291 67.0526C669.291 67.4463 669.179 67.7415 668.956 67.9383C668.733 68.1352 668.458 68.2336 668.129 68.2336C667.801 68.2336 667.526 68.1352 667.303 67.9383C667.08 67.7415 666.962 67.4463 666.948 67.0526ZM670.452 79.0396C670.255 79.0002 669.573 78.9805 668.405 78.9805C668.261 78.9805 668.018 78.9805 667.677 78.9805C667.336 78.9805 667.008 78.9936 666.693 79.0199L666.26 79.0396H666.102V78.1341H666.417C666.784 78.1341 667.106 78.1145 667.382 78.0751C667.5 78.0226 667.572 77.9504 667.598 77.8586C667.624 77.7667 667.637 77.4912 667.637 77.0319V75.0045V73.2724C667.637 72.5901 667.624 72.1571 667.598 71.9734C667.572 71.7896 667.48 71.665 667.322 71.5994C667.139 71.5075 666.83 71.4616 666.397 71.4616H666.181V71.0089C666.181 70.7071 666.194 70.5562 666.22 70.5562L666.417 70.5365C666.548 70.5234 666.732 70.5103 666.968 70.4971C667.204 70.484 667.441 70.4709 667.677 70.4578C667.9 70.4446 668.136 70.4315 668.385 70.4184C668.635 70.4053 668.825 70.3856 668.956 70.3594C669.087 70.3331 669.16 70.3265 669.173 70.3397H669.232V77.8192C669.297 77.9504 669.376 78.0292 669.468 78.0554C669.56 78.0816 669.789 78.1079 670.157 78.1341H670.61V79.0396H670.452Z" fill="#202020"/>
<path d="M677.538 70.9892C678.115 70.4118 678.771 70.1231 679.506 70.1231C679.9 70.1231 680.182 70.2478 680.353 70.4971C680.523 70.7464 680.608 70.9958 680.608 71.2451C680.608 71.4288 680.549 71.5928 680.431 71.7372C680.313 71.8815 680.136 71.9537 679.9 71.9537C679.467 71.9537 679.224 71.7568 679.172 71.3632C679.145 71.1795 679.165 71.0417 679.231 70.9498C679.231 70.9367 679.237 70.917 679.25 70.8908V70.8711C678.883 70.9105 678.535 71.0548 678.207 71.3041C678.102 71.3697 678.05 71.4157 678.05 71.4419C678.05 71.455 678.076 71.4878 678.128 71.5403C678.181 71.5928 678.24 71.6715 678.306 71.7765C678.371 71.8815 678.443 71.9996 678.522 72.1308C678.601 72.262 678.66 72.4326 678.699 72.6426C678.739 72.8525 678.765 73.069 678.778 73.2921C678.778 74.1057 678.456 74.7946 677.813 75.3588C677.17 75.9231 676.377 76.2118 675.432 76.2249C674.776 76.2249 674.126 76.0412 673.483 75.6738C673.339 75.9099 673.267 76.1593 673.267 76.4217C673.267 76.881 673.437 77.2221 673.778 77.4452C673.897 77.524 674.008 77.5633 674.113 77.5633C674.218 77.5633 674.69 77.5764 675.53 77.6027C676.632 77.6158 677.341 77.6552 677.656 77.7208C678.456 77.8389 679.086 78.1079 679.546 78.5278C680.057 79.0395 680.313 79.6825 680.313 80.4567C680.313 81.3359 679.801 82.0117 678.778 82.4841C677.991 82.8908 677.059 83.0942 675.983 83.0942C674.894 83.0942 673.956 82.8908 673.168 82.4841C672.145 82.0248 671.633 81.3687 671.633 80.5158C671.633 80.0434 671.771 79.6497 672.046 79.3348C672.322 79.0199 672.597 78.8033 672.873 78.6852L673.09 78.5672C672.617 78.1604 672.381 77.6092 672.381 76.9138C672.381 76.297 672.571 75.7394 672.952 75.2407C672.374 74.6634 672.086 74.0138 672.086 73.2921C672.086 72.4654 672.414 71.77 673.07 71.2057C673.726 70.6415 674.52 70.3528 675.451 70.3397C676.121 70.3397 676.744 70.5102 677.321 70.8514L677.538 70.9892ZM676.947 72.2883C676.882 71.9209 676.711 71.6322 676.436 71.4222C676.16 71.2123 675.819 71.1007 675.412 71.0876C675.032 71.0876 674.704 71.1926 674.428 71.4025C674.152 71.6125 673.982 71.9077 673.916 72.2883C673.877 72.5114 673.857 72.846 673.857 73.2921C673.857 73.8695 673.903 74.2959 673.995 74.5715C674.087 74.8471 674.284 75.0767 674.585 75.2604C674.809 75.3916 675.091 75.4572 675.432 75.4572C675.72 75.4572 675.97 75.4113 676.18 75.3195C676.39 75.2276 676.541 75.1095 676.632 74.9652C676.724 74.8208 676.797 74.6896 676.849 74.5715C676.901 74.4534 676.934 74.355 676.947 74.2763C676.987 74.0663 677.006 73.7383 677.006 73.2921C677.006 72.846 676.987 72.5114 676.947 72.2883ZM678.994 80.5158C678.994 80.1877 678.903 79.9187 678.719 79.7088C678.535 79.4988 678.266 79.3479 677.912 79.2561C677.558 79.1642 677.236 79.1052 676.947 79.0789C676.659 79.0527 676.304 79.0395 675.885 79.0395H675.353C674.474 79.0395 673.949 79.0789 673.778 79.1576C673.516 79.2757 673.313 79.4594 673.168 79.7088C673.024 79.9581 672.945 80.2205 672.932 80.4961C672.932 80.6273 672.971 80.7782 673.05 80.9488C673.129 81.1194 673.267 81.3162 673.464 81.5393C673.66 81.7624 673.975 81.9461 674.408 82.0904C674.841 82.2347 675.366 82.3135 675.983 82.3266C676.888 82.3266 677.617 82.1429 678.168 81.7755C678.719 81.4081 678.994 80.9882 678.994 80.5158Z" fill="#202020"/>
<path d="M681.455 74.7485C681.455 74.0267 681.586 73.3706 681.848 72.7802C682.111 72.1897 682.439 71.7107 682.833 71.3433C683.226 70.9759 683.653 70.7003 684.112 70.5166C684.571 70.3329 685.004 70.2345 685.411 70.2214C686.107 70.2214 686.704 70.3395 687.202 70.5757C687.701 70.8119 688.081 71.1399 688.344 71.5598C688.606 71.9797 688.79 72.3996 688.895 72.8195C689 73.2394 689.059 73.7053 689.072 74.217C689.072 74.3089 689.026 74.4007 688.934 74.4926H683.384V74.7878C683.384 76.7299 684.04 77.9109 685.352 78.3308C685.615 78.4095 685.903 78.4489 686.218 78.4489C686.769 78.4489 687.242 78.2389 687.635 77.819C687.858 77.5959 688.036 77.3204 688.167 76.9923L688.364 76.5199C688.403 76.4806 688.508 76.4609 688.678 76.4609H688.738C688.961 76.4609 689.072 76.5265 689.072 76.6577C689.072 76.7102 689.052 76.7955 689.013 76.9136C688.764 77.6353 688.35 78.2061 687.773 78.626C687.196 79.0459 686.546 79.2559 685.824 79.2559C684.578 79.2559 683.541 78.8032 682.715 77.8977C681.888 76.9923 681.468 75.9426 681.455 74.7485ZM687.458 73.6265C687.314 71.9469 686.691 71.0546 685.588 70.9496H685.549C685.444 70.9496 685.339 70.9562 685.234 70.9693C685.129 70.9824 684.965 71.0349 684.742 71.1268C684.519 71.2186 684.329 71.3564 684.171 71.5401C684.014 71.7238 683.863 71.9928 683.718 72.3471C683.574 72.7014 683.469 73.1344 683.403 73.6462V73.784H687.458V73.6265Z" fill="#202020"/>
<path d="M690.45 78.1341H690.725C691.237 78.1341 691.546 78.0423 691.651 77.8586V77.7011C691.651 77.583 691.651 77.4321 691.651 77.2484C691.651 77.0647 691.651 76.8613 691.651 76.6382C691.651 76.4152 691.657 76.1593 691.67 75.8706C691.683 75.5819 691.683 75.3063 691.67 75.0439C691.67 74.6371 691.67 74.2041 691.67 73.7448C691.67 73.2856 691.664 72.8985 691.651 72.5835V72.1308C691.611 71.8815 691.519 71.7175 691.375 71.6387C691.231 71.56 690.935 71.501 690.489 71.4616H690.135V71.0089C690.135 70.7071 690.148 70.5562 690.174 70.5562L690.371 70.5365C690.502 70.5234 690.686 70.5103 690.922 70.4971C691.159 70.484 691.401 70.4709 691.651 70.4578C691.874 70.4446 692.11 70.4315 692.359 70.4184C692.609 70.4053 692.799 70.3856 692.93 70.3594C693.061 70.3331 693.133 70.3265 693.147 70.3397H693.206V71.127C693.206 71.6256 693.212 71.8749 693.225 71.8749C693.238 71.8749 693.271 71.8421 693.324 71.7765C693.376 71.7109 693.455 71.6125 693.56 71.4813C693.665 71.3501 693.789 71.232 693.934 71.127C694.078 71.022 694.268 70.8974 694.505 70.753C694.741 70.6087 694.99 70.5037 695.253 70.4381C695.515 70.3725 695.85 70.3397 696.256 70.3397C697.752 70.3922 698.586 71.1335 698.756 72.5638C698.769 72.6557 698.776 73.5677 698.776 75.2998V76.9925C698.776 77.4912 698.789 77.7864 698.815 77.8783C698.841 77.9701 698.914 78.0357 699.032 78.0751C699.307 78.1145 699.629 78.1341 699.996 78.1341H700.311V79.0396H700.154L699.681 79.0199C699.379 79.0067 699.051 79.0002 698.697 79.0002C698.343 79.0002 698.093 78.9936 697.949 78.9805C696.598 78.9805 695.863 79.0002 695.745 79.0396H695.587V78.1341H695.902C696.703 78.1341 697.103 78.0292 697.103 77.8192C697.116 77.793 697.122 76.8875 697.122 75.103C697.109 73.3315 697.096 72.3933 697.083 72.2883C697.004 71.9209 696.873 71.6453 696.689 71.4616C696.506 71.2779 696.348 71.1664 696.217 71.127C696.086 71.0876 695.915 71.0745 695.705 71.0876C695.115 71.0876 694.596 71.3107 694.15 71.7568C693.796 72.1111 693.573 72.472 693.481 72.8394C693.389 73.2068 693.337 73.7514 693.324 74.4731V75.7328V76.9138C693.324 77.3074 693.33 77.5699 693.343 77.7011C693.356 77.8323 693.376 77.9176 693.402 77.957C693.429 77.9964 693.488 78.0357 693.58 78.0751C693.855 78.1145 694.177 78.1341 694.544 78.1341H694.859V79.0396H694.701L694.249 79.0199C693.934 79.0067 693.599 79.0002 693.245 79.0002C692.891 79.0002 692.641 78.9936 692.497 78.9805C691.145 78.9805 690.411 79.0002 690.292 79.0396H690.135V78.1341H690.45Z" fill="#202020"/>
<path d="M707.24 70.556C707.318 70.5822 707.869 70.5953 708.893 70.5953C709.641 70.5953 710.172 70.5822 710.487 70.556H710.586V71.4614H710.369C709.608 71.5139 709.123 71.7763 708.913 72.2487C708.886 72.3012 708.447 73.4363 707.594 75.6539C706.741 77.8715 706.295 79.0131 706.255 79.0787C706.19 79.1968 706.026 79.2559 705.763 79.2559C705.514 79.2559 705.357 79.1968 705.291 79.0787C703.454 74.3417 702.529 71.9403 702.516 71.8747C702.45 71.691 702.345 71.5795 702.201 71.5401C702.056 71.5008 701.801 71.4745 701.433 71.4614H700.961V70.556H701.079L701.236 70.5757C701.341 70.5757 701.472 70.5757 701.63 70.5757C701.787 70.5757 701.958 70.5757 702.142 70.5757C702.325 70.5757 702.489 70.5822 702.634 70.5953C702.778 70.6085 702.896 70.615 702.988 70.615C704.235 70.615 704.956 70.5953 705.153 70.556H705.311V71.4614H705.035C704.523 71.4745 704.248 71.5729 704.208 71.7566C704.208 71.8091 704.543 72.7014 705.212 74.4335L706.216 77.0317L708.007 72.3274V72.17C708.007 71.9863 707.942 71.8354 707.81 71.7173C707.679 71.5992 707.561 71.527 707.456 71.5008C707.351 71.4745 707.259 71.4614 707.181 71.4614H707.102V70.556H707.24Z" fill="#202020"/>
<path d="M711.53 74.7485C711.53 74.0267 711.662 73.3706 711.924 72.7802C712.186 72.1897 712.515 71.7107 712.908 71.3433C713.302 70.9759 713.728 70.7003 714.188 70.5166C714.647 70.3329 715.08 70.2345 715.487 70.2214C716.182 70.2214 716.779 70.3395 717.278 70.5757C717.776 70.8119 718.157 71.1399 718.419 71.5598C718.682 71.9797 718.866 72.3996 718.971 72.8195C719.076 73.2394 719.135 73.7053 719.148 74.217C719.148 74.3089 719.102 74.4007 719.01 74.4926H713.459V74.7878C713.459 76.7299 714.115 77.9109 715.428 78.3308C715.69 78.4095 715.979 78.4489 716.294 78.4489C716.845 78.4489 717.317 78.2389 717.711 77.819C717.934 77.5959 718.111 77.3204 718.242 76.9923L718.439 76.5199C718.478 76.4806 718.583 76.4609 718.754 76.4609H718.813C719.036 76.4609 719.148 76.5265 719.148 76.6577C719.148 76.7102 719.128 76.7955 719.089 76.9136C718.839 77.6353 718.426 78.2061 717.849 78.626C717.271 79.0459 716.622 79.2559 715.9 79.2559C714.653 79.2559 713.617 78.8032 712.79 77.8977C711.963 76.9923 711.544 75.9426 711.53 74.7485ZM717.534 73.6265C717.389 71.9469 716.766 71.0546 715.664 70.9496H715.624C715.519 70.9496 715.415 70.9562 715.31 70.9693C715.205 70.9824 715.041 71.0349 714.817 71.1268C714.594 71.2186 714.404 71.3564 714.247 71.5401C714.089 71.7238 713.938 71.9928 713.794 72.3471C713.65 72.7014 713.545 73.1344 713.479 73.6462V73.784H717.534V73.6265Z" fill="#202020"/>
<path d="M727.001 73.0362C727.001 73.0362 726.863 73.0362 726.588 73.0362C726.312 73.0362 726.076 72.9378 725.879 72.7409C725.682 72.5441 725.578 72.2948 725.564 71.993C725.564 71.6912 725.663 71.4419 725.86 71.245C725.925 71.1794 725.958 71.1401 725.958 71.1269C725.958 71.1138 725.892 71.1007 725.761 71.0876C725.42 71.0351 725.099 71.0088 724.797 71.0088C724.154 71.0088 723.629 71.2188 723.222 71.6387C722.605 72.2554 722.297 73.2855 722.297 74.7289C722.297 75.8049 722.5 76.6513 722.907 77.268C723.445 78.0685 724.167 78.4687 725.072 78.4687C725.61 78.4687 726.043 78.2981 726.371 77.9569C726.699 77.6158 726.936 77.209 727.08 76.7366C727.106 76.6316 727.139 76.566 727.178 76.5398C727.218 76.5135 727.323 76.5004 727.493 76.5004H727.769C727.848 76.5791 727.887 76.6382 727.887 76.6775C727.887 76.73 727.861 76.835 727.808 76.9925C727.756 77.1499 727.651 77.3664 727.493 77.642C727.336 77.9176 727.146 78.1669 726.923 78.39C726.699 78.613 726.385 78.8164 725.978 79.0001C725.571 79.1838 725.118 79.2691 724.62 79.256C723.491 79.256 722.507 78.8361 721.667 77.9963C720.827 77.1565 720.401 76.1002 720.388 74.8273C720.388 73.4627 720.814 72.3538 721.667 71.5009C722.52 70.648 723.511 70.2215 724.639 70.2215C725.768 70.2215 726.555 70.3987 727.001 70.753C727.447 71.1073 727.67 71.5272 727.67 72.0127C727.67 72.3145 727.559 72.5572 727.336 72.7409L727.001 73.0362Z" fill="#202020"/>
<path d="M728.989 70.7333C729.685 70.6808 730.223 70.3134 730.603 69.631C730.984 68.9487 731.194 68.1482 731.233 67.2297V66.9345H732.02V70.5561H734.678V71.4615H732.02V74.2959C732.034 75.9361 732.04 76.8612 732.04 77.0712C732.04 77.2812 732.086 77.4911 732.178 77.7011C732.362 78.2128 732.683 78.4687 733.142 78.4687C733.72 78.4687 734.074 78.0029 734.205 77.0712C734.218 76.9662 734.225 76.6644 734.225 76.1658V75.4769H735.012V76.1658V76.402C735.012 77.4124 734.737 78.18 734.186 78.7049C733.831 79.0592 733.372 79.2363 732.808 79.2363C732.362 79.2363 731.974 79.1576 731.646 79.0001C731.318 78.8427 731.069 78.6393 730.898 78.39C730.728 78.1406 730.603 77.911 730.524 77.7011C730.446 77.4911 730.4 77.2812 730.387 77.0712C730.374 76.9793 730.367 76.0083 730.367 74.1581V71.4615H728.812V70.7333H728.989Z" fill="#202020"/>
<path d="M736.666 74.8273C736.666 73.5807 737.092 72.5047 737.945 71.5993C738.798 70.6939 739.828 70.2346 741.035 70.2215C742.216 70.2215 743.233 70.6677 744.086 71.56C744.939 72.4523 745.372 73.5348 745.385 74.8077C745.385 76.0542 744.965 77.104 744.125 77.9569C743.286 78.8099 742.256 79.2363 741.035 79.2363C739.762 79.2363 738.719 78.7967 737.906 77.9176C737.092 77.0384 736.679 76.0083 736.666 74.8273ZM741.035 78.449C742.636 78.449 743.437 77.3796 743.437 75.2407V74.6108V74.1188C743.437 73.8301 743.43 73.5807 743.417 73.3708C743.404 73.1608 743.358 72.9115 743.279 72.6228C743.2 72.3342 743.095 72.098 742.964 71.9143C742.833 71.7305 742.63 71.5468 742.354 71.3631C742.078 71.1794 741.757 71.0482 741.39 70.9695C741.324 70.9564 741.219 70.9498 741.075 70.9498C740.681 70.9498 740.307 71.0285 739.953 71.186C739.388 71.4747 739.021 71.8749 738.85 72.3866C738.68 72.8984 738.595 73.502 738.595 74.1975V74.5911C738.595 75.8509 738.719 76.7366 738.968 77.2483C739.388 78.0488 740.077 78.449 741.035 78.449Z" fill="#202020"/>
<path d="M746.665 78.1341H746.94C747.452 78.1341 747.76 78.0423 747.865 77.8586V77.7011C747.865 77.583 747.865 77.4321 747.865 77.2484C747.865 77.0647 747.872 76.8613 747.885 76.6382C747.898 76.4152 747.898 76.1593 747.885 75.8706C747.872 75.5819 747.872 75.3063 747.885 75.0439C747.885 74.6371 747.885 74.2041 747.885 73.7448C747.885 73.2856 747.885 72.8985 747.885 72.5835L747.865 72.1308C747.826 71.8815 747.734 71.7175 747.59 71.6387C747.445 71.56 747.15 71.501 746.704 71.4616H746.35V71.0089C746.35 70.7071 746.363 70.5562 746.389 70.5562L746.586 70.5365C746.717 70.5234 746.901 70.5103 747.137 70.4971C747.373 70.484 747.609 70.4709 747.846 70.4578C748.055 70.4446 748.285 70.4315 748.534 70.4184C748.784 70.4053 748.974 70.3856 749.105 70.3594C749.236 70.3331 749.309 70.3265 749.322 70.3397H749.381V71.6978C749.893 70.8055 750.529 70.3594 751.29 70.3594H751.408C751.999 70.3594 752.432 70.5037 752.707 70.7924C752.983 71.0811 753.121 71.3829 753.121 71.6978C753.121 71.9734 753.035 72.2096 752.865 72.4064C752.694 72.6032 752.445 72.7016 752.117 72.7016C751.789 72.7016 751.546 72.5967 751.388 72.3867C751.231 72.1767 751.146 71.9537 751.133 71.7175C751.133 71.5994 751.146 71.4944 751.172 71.4026C751.198 71.3107 751.231 71.232 751.27 71.1664C751.31 71.1007 751.329 71.0679 751.329 71.0679C751.303 71.0417 751.152 71.0679 750.877 71.1467C750.667 71.2516 750.509 71.3501 750.404 71.4419C749.788 72.0324 749.479 73.2068 749.479 74.9652V76.0084C749.479 76.179 749.479 76.3561 749.479 76.5398C749.479 76.7235 749.479 76.8941 749.479 77.0516C749.479 77.209 749.486 77.3403 749.499 77.4452C749.512 77.5502 749.512 77.6486 749.499 77.7405V77.8389C749.512 77.8651 749.532 77.8914 749.558 77.9176C749.584 77.9439 749.617 77.9635 749.656 77.9767C749.696 77.9898 749.729 78.0095 749.755 78.0357C749.781 78.062 749.827 78.0751 749.893 78.0751C749.958 78.0751 750.004 78.0816 750.03 78.0948C750.057 78.1079 750.116 78.1145 750.207 78.1145C750.299 78.1145 750.358 78.1145 750.385 78.1145C750.411 78.1145 750.476 78.121 750.581 78.1341C750.686 78.1473 750.752 78.1473 750.778 78.1341H751.388V79.0396H751.211C750.975 79.0002 750.142 78.9805 748.712 78.9805C747.36 78.9805 746.625 79.0002 746.507 79.0396H746.35V78.1341H746.665Z" fill="#202020"/>
</g>
<path d="M627.25 151.224L683.234 94.1191" stroke="#202020" stroke-width="1.5"/>
<path d="M440.53 180.53C440.823 180.237 440.823 179.763 440.53 179.47L435.757 174.697C435.464 174.404 434.99 174.404 434.697 174.697C434.404 174.99 434.404 175.464 434.697 175.757L438.939 180L434.697 184.243C434.404 184.536 434.404 185.01 434.697 185.303C434.99 185.596 435.464 185.596 435.757 185.303L440.53 180.53ZM360 180.75H440V179.25H360V180.75Z" fill="#202020"/>
<rect x="349.815" y="133.322" width="105.371" height="22.355" fill="white"/>
<g clip-path="url(#clip9_1427_2)">
<path d="M356.401 141.802C356.035 141.802 355.75 141.686 355.546 141.456C355.342 141.225 355.234 140.926 355.22 140.56C355.22 139.813 355.546 139.148 356.198 138.564C356.849 137.981 357.636 137.689 358.559 137.689C359.035 137.689 359.333 137.696 359.455 137.709C360.46 137.872 361.227 138.232 361.756 138.788C362.286 139.345 362.557 139.949 362.571 140.6C362.571 141.306 362.34 141.992 361.878 142.657C361.417 143.322 360.779 143.804 359.964 144.103L359.903 144.143C359.903 144.157 359.964 144.177 360.087 144.205C360.209 144.232 360.406 144.293 360.677 144.388C360.949 144.483 361.206 144.625 361.451 144.815C362.564 145.535 363.12 146.485 363.12 147.666C363.12 148.738 362.7 149.675 361.858 150.476C361.016 151.277 359.951 151.677 358.661 151.677C357.575 151.677 356.639 151.385 355.851 150.802C355.064 150.218 354.67 149.478 354.67 148.582C354.67 148.202 354.793 147.897 355.037 147.666C355.281 147.435 355.587 147.313 355.953 147.299C356.333 147.299 356.645 147.422 356.89 147.666C357.134 147.91 357.256 148.216 357.256 148.582C357.256 148.732 357.236 148.867 357.195 148.99C357.155 149.112 357.107 149.22 357.053 149.315C356.998 149.41 356.924 149.492 356.829 149.56C356.734 149.628 356.652 149.682 356.584 149.723C356.517 149.763 356.449 149.79 356.381 149.804C356.313 149.818 356.259 149.838 356.218 149.865L356.136 149.885C356.829 150.496 357.67 150.802 358.661 150.802C359.408 150.802 359.971 150.442 360.351 149.723C360.582 149.275 360.697 148.589 360.697 147.666V147.259C360.697 145.969 360.263 145.107 359.394 144.673C359.191 144.591 358.777 144.544 358.152 144.53L357.297 144.51L357.236 144.469C357.209 144.428 357.195 144.32 357.195 144.143C357.195 143.899 357.25 143.777 357.358 143.777C357.738 143.777 358.132 143.743 358.539 143.675C359.001 143.607 359.421 143.322 359.802 142.82C360.182 142.318 360.372 141.557 360.372 140.539V140.377C360.372 139.603 360.134 139.067 359.659 138.768C359.36 138.578 359.041 138.483 358.702 138.483C358.268 138.483 357.867 138.558 357.501 138.707C357.134 138.856 356.876 139.012 356.727 139.175C356.578 139.338 356.503 139.42 356.503 139.42H356.564C356.605 139.433 356.659 139.447 356.727 139.46C356.795 139.474 356.863 139.508 356.931 139.562C356.998 139.616 357.08 139.664 357.175 139.705C357.27 139.745 357.338 139.82 357.378 139.929C357.419 140.037 357.474 140.139 357.541 140.234C357.609 140.329 357.63 140.465 357.602 140.641C357.602 140.94 357.507 141.205 357.317 141.435C357.127 141.666 356.822 141.788 356.401 141.802Z" fill="#202020"/>
<path d="M368.089 151.229C367.926 151.189 367.254 151.168 366.073 151.168C365.041 151.168 364.464 151.189 364.342 151.229H364.22V150.293H364.505C364.817 150.279 365.102 150.239 365.36 150.171C365.618 150.103 365.815 150.042 365.951 149.987C366.087 149.933 366.256 149.818 366.46 149.641C366.663 149.465 366.786 149.343 366.826 149.275C366.867 149.207 367.01 149.03 367.254 148.745C367.498 148.46 367.634 148.27 367.661 148.175L368.598 146.954L367.417 145.365C367.295 145.189 367.166 145.006 367.03 144.816C366.894 144.626 366.786 144.483 366.704 144.388C366.623 144.293 366.548 144.191 366.48 144.083C366.412 143.974 366.351 143.892 366.297 143.838C366.243 143.784 366.202 143.736 366.175 143.696C366.148 143.655 366.1 143.614 366.032 143.573C365.964 143.533 365.924 143.512 365.91 143.512C365.896 143.512 365.856 143.499 365.788 143.472C365.72 143.445 365.666 143.431 365.625 143.431C365.544 143.431 365.299 143.417 364.892 143.39H364.322V142.454H364.464C364.953 142.481 365.652 142.494 366.562 142.494C367.824 142.494 368.523 142.481 368.659 142.454H368.822V143.39C368.333 143.445 368.089 143.553 368.089 143.716C368.089 143.743 368.157 143.852 368.292 144.042C368.428 144.232 368.618 144.49 368.862 144.816C369.107 145.141 369.304 145.42 369.453 145.65L369.534 145.732L370.043 145.04C370.478 144.483 370.695 144.116 370.695 143.94C370.695 143.859 370.681 143.784 370.654 143.716C370.627 143.648 370.593 143.601 370.553 143.573C370.512 143.546 370.478 143.519 370.451 143.492C370.424 143.465 370.376 143.438 370.308 143.411L370.247 143.39H370.145V142.454H370.288C370.491 142.494 371.163 142.515 372.304 142.515C373.376 142.515 373.953 142.494 374.034 142.454H374.157V143.39H374.014C373.349 143.39 372.799 143.506 372.365 143.736C372.134 143.845 371.903 144.028 371.672 144.286C371.442 144.544 371 145.114 370.349 145.997L370.023 146.424L371.286 148.155C372.181 149.377 372.663 150.015 372.731 150.069C372.799 150.123 372.914 150.171 373.077 150.211C373.322 150.266 373.681 150.293 374.157 150.293H374.503V151.229H374.381H374.218C374.109 151.216 373.973 151.209 373.81 151.209C373.648 151.209 373.478 151.202 373.301 151.189C373.125 151.175 372.955 151.175 372.792 151.189C372.629 151.202 372.507 151.196 372.426 151.168C372.276 151.168 372.025 151.168 371.672 151.168C371.319 151.168 370.98 151.182 370.654 151.209L370.186 151.229H370.003V150.293H370.064C370.213 150.293 370.362 150.259 370.512 150.191C370.661 150.123 370.736 150.042 370.736 149.947C370.736 149.92 370.464 149.533 369.921 148.786L369.086 147.666C369.073 147.68 368.862 147.965 368.455 148.521C368.048 149.078 367.817 149.383 367.763 149.438C367.709 149.506 367.682 149.601 367.682 149.723C367.682 149.872 367.729 150.001 367.824 150.11C367.919 150.218 368.041 150.279 368.191 150.293C368.218 150.293 368.231 150.449 368.231 150.761V151.229H368.089Z" fill="#202020"/>
<path d="M377.333 141.802C376.966 141.802 376.681 141.686 376.478 141.456C376.274 141.225 376.166 140.926 376.152 140.56C376.152 139.813 376.478 139.148 377.129 138.564C377.781 137.981 378.568 137.689 379.491 137.689C379.966 137.689 380.265 137.696 380.387 137.709C381.392 137.872 382.159 138.232 382.688 138.788C383.218 139.345 383.489 139.949 383.503 140.6C383.503 141.306 383.272 141.992 382.81 142.657C382.349 143.322 381.711 143.804 380.896 144.103L380.835 144.143C380.835 144.157 380.896 144.177 381.018 144.205C381.141 144.232 381.337 144.293 381.609 144.388C381.88 144.483 382.138 144.625 382.383 144.815C383.496 145.535 384.052 146.485 384.052 147.666C384.052 148.738 383.632 149.675 382.79 150.476C381.948 151.277 380.883 151.677 379.593 151.677C378.507 151.677 377.571 151.385 376.783 150.802C375.996 150.218 375.602 149.478 375.602 148.582C375.602 148.202 375.724 147.897 375.969 147.666C376.213 147.435 376.519 147.313 376.885 147.299C377.265 147.299 377.577 147.422 377.822 147.666C378.066 147.91 378.188 148.216 378.188 148.582C378.188 148.732 378.168 148.867 378.127 148.99C378.086 149.112 378.039 149.22 377.985 149.315C377.93 149.41 377.856 149.492 377.761 149.56C377.666 149.628 377.584 149.682 377.516 149.723C377.448 149.763 377.38 149.79 377.313 149.804C377.245 149.818 377.19 149.838 377.15 149.865L377.068 149.885C377.761 150.496 378.602 150.802 379.593 150.802C380.34 150.802 380.903 150.442 381.283 149.723C381.514 149.275 381.629 148.589 381.629 147.666V147.259C381.629 145.969 381.195 145.107 380.326 144.673C380.123 144.591 379.709 144.544 379.084 144.53L378.229 144.51L378.168 144.469C378.141 144.428 378.127 144.32 378.127 144.143C378.127 143.899 378.181 143.777 378.29 143.777C378.67 143.777 379.064 143.743 379.471 143.675C379.932 143.607 380.353 143.322 380.733 142.82C381.113 142.318 381.304 141.557 381.304 140.539V140.377C381.304 139.603 381.066 139.067 380.591 138.768C380.292 138.578 379.973 138.483 379.634 138.483C379.199 138.483 378.799 138.558 378.433 138.707C378.066 138.856 377.808 139.012 377.659 139.175C377.509 139.338 377.435 139.42 377.435 139.42H377.496C377.537 139.433 377.591 139.447 377.659 139.46C377.727 139.474 377.795 139.508 377.862 139.562C377.93 139.616 378.012 139.664 378.107 139.705C378.202 139.745 378.27 139.82 378.31 139.929C378.351 140.037 378.405 140.139 378.473 140.234C378.541 140.329 378.561 140.465 378.534 140.641C378.534 140.94 378.439 141.205 378.249 141.435C378.059 141.666 377.754 141.788 377.333 141.802Z" fill="#202020"/>
<path d="M392.706 138.565C392.611 138.469 392.536 138.408 392.482 138.381C392.428 138.354 392.319 138.334 392.156 138.32C391.993 138.307 391.702 138.286 391.281 138.259H390.609V137.322H392.767C393.935 137.322 394.593 137.329 394.742 137.343C394.892 137.356 395.007 137.404 395.088 137.485C395.102 137.499 395.815 139.379 397.226 143.126L399.344 148.705L401.462 143.126C402.873 139.379 403.593 137.499 403.62 137.485C403.661 137.404 403.762 137.356 403.925 137.343C404.088 137.329 404.753 137.322 405.921 137.322H408.079V138.259H407.407C406.864 138.273 406.518 138.293 406.369 138.32C406.219 138.347 406.097 138.429 406.002 138.565V149.987C406.084 150.123 406.199 150.205 406.348 150.232C406.498 150.259 406.851 150.279 407.407 150.293H408.079V151.229H407.855C407.57 151.189 406.62 151.168 405.004 151.168C403.226 151.168 402.276 151.189 402.154 151.229H401.93V150.293H402.602C403.172 150.279 403.518 150.259 403.64 150.232C403.762 150.205 403.891 150.123 404.027 149.987V144.164C404.027 143.119 404.027 142.345 404.027 141.843C404.027 141.34 404.027 140.764 404.027 140.112C404.027 139.46 404.027 139.006 404.027 138.748L404.007 138.361C400.844 146.75 399.235 150.992 399.181 151.087C399.127 151.168 398.991 151.209 398.774 151.209C398.557 151.209 398.421 151.168 398.367 151.087C398.353 151.06 397.552 148.963 395.964 144.795L393.602 138.524V138.89C393.588 139.135 393.582 139.562 393.582 140.173C393.582 140.784 393.582 141.327 393.582 141.802C393.582 142.277 393.582 143.003 393.582 143.981L393.602 149.478C393.751 149.967 394.328 150.239 395.333 150.293H395.679V151.229H395.496C395.292 151.189 394.511 151.168 393.154 151.168C391.769 151.168 390.975 151.189 390.772 151.229H390.609V150.293H390.955C391.389 150.266 391.742 150.198 392.014 150.089C392.285 149.981 392.448 149.892 392.502 149.825C392.557 149.757 392.625 149.641 392.706 149.478V138.565Z" fill="#202020"/>
<path d="M411.48 145.019C411.48 145.019 411.33 145.019 411.032 145.019C410.733 145.019 410.482 144.917 410.278 144.713C410.075 144.51 409.973 144.245 409.973 143.919C409.973 143.444 410.204 143.023 410.665 142.657C411.127 142.29 411.948 142.107 413.129 142.107C414.12 142.107 414.921 142.324 415.531 142.759C416.142 143.193 416.55 143.709 416.753 144.306C416.821 144.496 416.855 144.707 416.855 144.937C416.855 145.168 416.862 145.949 416.875 147.279V148.704C416.875 149.356 416.909 149.804 416.977 150.048C417.045 150.293 417.188 150.415 417.405 150.415C417.608 150.415 417.744 150.306 417.812 150.089C417.88 149.872 417.914 149.512 417.914 149.01V148.277H418.728V149.071C418.715 149.614 418.694 149.933 418.667 150.028C418.545 150.435 418.307 150.754 417.955 150.985C417.602 151.216 417.228 151.338 416.835 151.351C416.441 151.365 416.122 151.243 415.878 150.985C415.633 150.727 415.47 150.442 415.389 150.13V150.048L415.348 150.109C415.321 150.15 415.287 150.191 415.246 150.231C415.206 150.272 415.151 150.333 415.084 150.415C415.016 150.496 414.934 150.571 414.839 150.639C414.744 150.707 414.642 150.788 414.534 150.883C414.425 150.978 414.303 151.053 414.167 151.107C414.032 151.161 413.882 151.216 413.719 151.27C413.556 151.324 413.38 151.365 413.19 151.392C413 151.419 412.789 151.44 412.559 151.453C411.744 151.453 411.011 151.243 410.36 150.822C409.708 150.401 409.382 149.811 409.382 149.05C409.382 148.765 409.43 148.494 409.525 148.236C409.62 147.978 409.803 147.7 410.075 147.401C410.346 147.103 410.672 146.851 411.052 146.648C411.432 146.444 411.961 146.254 412.64 146.078C413.319 145.901 414.065 145.799 414.88 145.772H415.165V145.324C415.165 144.863 415.124 144.523 415.043 144.306C414.744 143.342 414.086 142.86 413.068 142.86C412.823 142.86 412.593 142.867 412.375 142.881C412.158 142.894 411.989 142.922 411.866 142.962C411.744 143.003 411.69 143.023 411.703 143.023C412.002 143.227 412.151 143.526 412.151 143.919C412.151 144.259 412.043 144.523 411.826 144.713L411.48 145.019ZM411.256 149.071C411.256 149.492 411.418 149.865 411.744 150.191C412.07 150.516 412.47 150.686 412.946 150.7C413.461 150.7 413.916 150.544 414.31 150.231C414.703 149.919 414.968 149.512 415.104 149.01C415.131 148.915 415.151 148.467 415.165 147.666C415.165 146.879 415.158 146.485 415.145 146.485C415.036 146.485 414.893 146.492 414.717 146.505C414.541 146.519 414.235 146.58 413.801 146.688C413.366 146.797 412.973 146.933 412.62 147.096C412.267 147.259 411.955 147.51 411.683 147.849C411.412 148.188 411.269 148.596 411.256 149.071Z" fill="#202020"/>
<path d="M419.421 142.637C420.14 142.583 420.697 142.202 421.09 141.497C421.484 140.791 421.701 139.963 421.742 139.012V138.707H422.556V142.454H425.305V143.39H422.556V146.322C422.57 148.019 422.577 148.976 422.577 149.193C422.577 149.411 422.624 149.628 422.719 149.845C422.909 150.374 423.242 150.639 423.717 150.639C424.314 150.639 424.681 150.157 424.816 149.193C424.83 149.085 424.837 148.773 424.837 148.257V147.544H425.651V148.257V148.501C425.651 149.546 425.366 150.34 424.796 150.883C424.43 151.25 423.954 151.433 423.371 151.433C422.909 151.433 422.509 151.352 422.169 151.189C421.83 151.026 421.572 150.815 421.396 150.558C421.219 150.3 421.09 150.062 421.009 149.845C420.927 149.628 420.88 149.411 420.866 149.193C420.853 149.098 420.846 148.094 420.846 146.18V143.39H419.237V142.637H419.421Z" fill="#202020"/>
<path d="M427.525 150.293H427.81C428.339 150.293 428.658 150.198 428.767 150.008V149.845C428.767 149.723 428.767 149.567 428.767 149.377C428.767 149.187 428.773 148.976 428.787 148.745C428.801 148.515 428.801 148.25 428.787 147.951C428.773 147.653 428.773 147.368 428.787 147.096C428.787 146.675 428.787 146.227 428.787 145.752C428.787 145.277 428.787 144.877 428.787 144.551L428.767 144.083C428.726 143.825 428.631 143.655 428.482 143.573C428.332 143.492 428.027 143.431 427.565 143.39H427.199V142.922C427.199 142.61 427.212 142.454 427.239 142.454L427.443 142.433C427.579 142.42 427.769 142.406 428.013 142.393C428.258 142.379 428.502 142.365 428.746 142.352C428.963 142.338 429.201 142.325 429.459 142.311C429.717 142.297 429.914 142.277 430.049 142.25C430.185 142.223 430.26 142.216 430.273 142.23H430.334V143.635C430.864 142.712 431.522 142.25 432.31 142.25H432.432C433.043 142.25 433.49 142.399 433.776 142.698C434.061 142.997 434.203 143.309 434.203 143.635C434.203 143.92 434.115 144.164 433.938 144.368C433.762 144.571 433.504 144.673 433.165 144.673C432.825 144.673 432.574 144.564 432.411 144.347C432.248 144.13 432.16 143.899 432.147 143.655C432.147 143.533 432.16 143.424 432.187 143.329C432.214 143.234 432.248 143.153 432.289 143.085C432.33 143.017 432.35 142.983 432.35 142.983C432.323 142.956 432.167 142.983 431.882 143.064C431.665 143.173 431.502 143.275 431.393 143.37C430.755 143.981 430.436 145.196 430.436 147.015V148.094C430.436 148.27 430.436 148.454 430.436 148.644C430.436 148.834 430.436 149.01 430.436 149.173C430.436 149.336 430.443 149.472 430.457 149.58C430.47 149.689 430.47 149.791 430.457 149.886V149.987C430.47 150.015 430.491 150.042 430.518 150.069C430.545 150.096 430.579 150.116 430.619 150.13C430.66 150.144 430.694 150.164 430.721 150.191C430.748 150.218 430.796 150.232 430.864 150.232C430.932 150.232 430.979 150.239 431.006 150.252C431.034 150.266 431.095 150.272 431.19 150.272C431.285 150.272 431.346 150.272 431.373 150.272C431.4 150.272 431.468 150.279 431.576 150.293C431.685 150.306 431.753 150.306 431.78 150.293H432.411V151.229H432.228C431.984 151.189 431.122 151.168 429.642 151.168C428.244 151.168 427.484 151.189 427.362 151.229H427.199V150.293H427.525Z" fill="#202020"/>
<path d="M436.178 138.829C436.178 138.449 436.3 138.15 436.545 137.933C436.789 137.716 437.088 137.608 437.441 137.608C437.753 137.635 438.024 137.75 438.255 137.954C438.486 138.157 438.601 138.449 438.601 138.829C438.601 139.236 438.486 139.542 438.255 139.745C438.024 139.949 437.739 140.051 437.4 140.051C437.061 140.051 436.776 139.949 436.545 139.745C436.314 139.542 436.192 139.236 436.178 138.829ZM439.803 151.229C439.599 151.189 438.893 151.168 437.685 151.168C437.536 151.168 437.285 151.168 436.932 151.168C436.579 151.168 436.239 151.182 435.914 151.209L435.466 151.229H435.303V150.293H435.629C436.009 150.293 436.341 150.272 436.626 150.232C436.748 150.177 436.823 150.103 436.85 150.008C436.877 149.913 436.891 149.628 436.891 149.153V147.055V145.264C436.891 144.558 436.877 144.11 436.85 143.92C436.823 143.73 436.728 143.601 436.565 143.533C436.375 143.438 436.056 143.39 435.608 143.39H435.384V142.922C435.384 142.61 435.398 142.454 435.425 142.454L435.629 142.433C435.764 142.42 435.954 142.406 436.199 142.393C436.443 142.379 436.687 142.365 436.932 142.352C437.162 142.338 437.407 142.325 437.665 142.311C437.923 142.297 438.119 142.277 438.255 142.25C438.391 142.223 438.466 142.216 438.479 142.23H438.54V149.967C438.608 150.103 438.69 150.184 438.785 150.211C438.88 150.239 439.117 150.266 439.497 150.293H439.966V151.229H439.803Z" fill="#202020"/>
<path d="M444.527 151.229C444.364 151.189 443.692 151.168 442.511 151.168C441.479 151.168 440.902 151.189 440.78 151.229H440.658V150.293H440.943C441.255 150.279 441.54 150.239 441.798 150.171C442.056 150.103 442.253 150.042 442.389 149.987C442.524 149.933 442.694 149.818 442.898 149.641C443.101 149.465 443.223 149.343 443.264 149.275C443.305 149.207 443.447 149.03 443.692 148.745C443.936 148.46 444.072 148.27 444.099 148.175L445.036 146.954L443.855 145.365C443.732 145.189 443.603 145.006 443.468 144.816C443.332 144.626 443.223 144.483 443.142 144.388C443.061 144.293 442.986 144.191 442.918 144.083C442.85 143.974 442.789 143.892 442.735 143.838C442.68 143.784 442.64 143.736 442.613 143.696C442.585 143.655 442.538 143.614 442.47 143.573C442.402 143.533 442.361 143.512 442.348 143.512C442.334 143.512 442.294 143.499 442.226 143.472C442.158 143.445 442.104 143.431 442.063 143.431C441.981 143.431 441.737 143.417 441.33 143.39H440.76V142.454H440.902C441.391 142.481 442.09 142.494 442.999 142.494C444.262 142.494 444.961 142.481 445.097 142.454H445.26V143.39C444.771 143.445 444.527 143.553 444.527 143.716C444.527 143.743 444.594 143.852 444.73 144.042C444.866 144.232 445.056 144.49 445.3 144.816C445.545 145.141 445.741 145.42 445.891 145.65L445.972 145.732L446.481 145.04C446.916 144.483 447.133 144.116 447.133 143.94C447.133 143.859 447.119 143.784 447.092 143.716C447.065 143.648 447.031 143.601 446.99 143.573C446.95 143.546 446.916 143.519 446.889 143.492C446.861 143.465 446.814 143.438 446.746 143.411L446.685 143.39H446.583V142.454H446.726C446.929 142.494 447.601 142.515 448.741 142.515C449.814 142.515 450.391 142.494 450.472 142.454H450.594V143.39H450.452C449.787 143.39 449.237 143.506 448.803 143.736C448.572 143.845 448.341 144.028 448.11 144.286C447.879 144.544 447.438 145.114 446.787 145.997L446.461 146.424L447.723 148.155C448.619 149.377 449.101 150.015 449.169 150.069C449.237 150.123 449.352 150.171 449.515 150.211C449.76 150.266 450.119 150.293 450.594 150.293H450.94V151.229H450.818H450.655C450.547 151.216 450.411 151.209 450.248 151.209C450.085 151.209 449.916 151.202 449.739 151.189C449.563 151.175 449.393 151.175 449.23 151.189C449.067 151.202 448.945 151.196 448.864 151.168C448.714 151.168 448.463 151.168 448.11 151.168C447.757 151.168 447.418 151.182 447.092 151.209L446.624 151.229H446.441V150.293H446.502C446.651 150.293 446.8 150.259 446.95 150.191C447.099 150.123 447.174 150.042 447.174 149.947C447.174 149.92 446.902 149.533 446.359 148.786L445.524 147.666C445.511 147.68 445.3 147.965 444.893 148.521C444.486 149.078 444.255 149.383 444.201 149.438C444.146 149.506 444.119 149.601 444.119 149.723C444.119 149.872 444.167 150.001 444.262 150.11C444.357 150.218 444.479 150.279 444.628 150.293C444.656 150.293 444.669 150.449 444.669 150.761V151.229H444.527Z" fill="#202020"/>
</g>
</g>
<defs>
<clipPath id="clip0_1427_2">
<rect width="800" height="360" fill="white"/>
</clipPath>
<clipPath id="clip1_1427_2">
<rect width="11.2578" height="8.9175" fill="white" transform="translate(203.775 284.989)"/>
</clipPath>
<clipPath id="clip2_1427_2">
<rect width="9.6483" height="12.7368" fill="white" transform="translate(295.615 153.442)"/>
</clipPath>
<clipPath id="clip3_1427_2">
<rect width="9.1524" height="8.9175" fill="white" transform="translate(154.975 21.6675)"/>
</clipPath>
<clipPath id="clip4_1427_2">
<rect width="101.485" height="17.4435" fill="white" transform="translate(244.161 65.8535)"/>
</clipPath>
<clipPath id="clip5_1427_2">
<rect width="11.2578" height="8.9175" fill="white" transform="translate(644.736 284.806)"/>
</clipPath>
<clipPath id="clip6_1427_2">
<rect width="9.6483" height="12.7368" fill="white" transform="translate(735.276 153.072)"/>
</clipPath>
<clipPath id="clip7_1427_2">
<rect width="9.1524" height="8.9175" fill="white" transform="translate(594.973 21.6675)"/>
</clipPath>
<clipPath id="clip8_1427_2">
<rect width="101.485" height="17.4435" fill="white" transform="translate(652.186 65.6528)"/>
</clipPath>
<clipPath id="clip9_1427_2">
<rect width="97.371" height="14.355" fill="white" transform="translate(353.815 137.322)"/>
</clipPath>
</defs>
</svg>
