<svg width="640" height="360" viewBox="0 0 640 360" fill="none" xmlns="http://www.w3.org/2000/svg">
<g clip-path="url(#clip0_1384_15261)">
<path d="M640 0H0V360H640V0Z" fill="white"/>
<g clip-path="url(#clip1_1384_15261)">
<path d="M0 20H640" stroke="#C0C0C0" stroke-width="1.5"/>
<path d="M0 60H640" stroke="#C0C0C0" stroke-width="1.5"/>
<path d="M0 100H640" stroke="#C0C0C0" stroke-width="1.5"/>
<path d="M0 140H640" stroke="#C0C0C0" stroke-width="1.5"/>
<path d="M0 220H640" stroke="#C0C0C0" stroke-width="1.5"/>
<path d="M0 260H640" stroke="#C0C0C0" stroke-width="1.5"/>
<path d="M0 300H640" stroke="#C0C0C0" stroke-width="1.5"/>
<path d="M0 340H640" stroke="#C0C0C0" stroke-width="1.5"/>
<path d="M0 0V360" stroke="#C0C0C0" stroke-width="1.5"/>
<path d="M40 0V360" stroke="#C0C0C0" stroke-width="1.5"/>
<path d="M80 0V360" stroke="#C0C0C0" stroke-width="1.5"/>
<path d="M160 0V360" stroke="#C0C0C0" stroke-width="1.5"/>
<path d="M200 0V360" stroke="#C0C0C0" stroke-width="1.5"/>
<path d="M240 0V360" stroke="#C0C0C0" stroke-width="1.5"/>
<path d="M280 0V360" stroke="#C0C0C0" stroke-width="1.5"/>
<path d="M360 0V360" stroke="#C0C0C0" stroke-width="1.5"/>
<path d="M400 0V360" stroke="#C0C0C0" stroke-width="1.5"/>
<path d="M440 0V360" stroke="#C0C0C0" stroke-width="1.5"/>
<path d="M480 0V360" stroke="#C0C0C0" stroke-width="1.5"/>
<path d="M560 0V360" stroke="#C0C0C0" stroke-width="1.5"/>
<path d="M600 0V360" stroke="#C0C0C0" stroke-width="1.5"/>
<path d="M640 0V360" stroke="#C0C0C0" stroke-width="1.5"/>
<path d="M120 0V360" stroke="#B0B0B0" stroke-width="1.5"/>
<path d="M520 0V360" stroke="#B0B0B0" stroke-width="1.5"/>
<path d="M0 180H640" stroke="#A0A0A0" stroke-width="1.5"/>
<path d="M320 0V360" stroke="#A0A0A0" stroke-width="1.5"/>
</g>
<path d="M0 180H640" stroke="#808080" stroke-width="1.5"/>
<path d="M320 0V360" stroke="#808080" stroke-width="1.5"/>
<path d="M313.25 155L320 140L326.75 155L320 152L313.25 155Z" fill="#40A839"/>
<path d="M320 180V144" stroke="#40A839" stroke-width="1.5"/>
<path d="M295 186.75L280 180L295 173.25L292 180L295 186.75Z" fill="#C74440"/>
<path d="M320 180H284" stroke="#C74440" stroke-width="1.5"/>
<path d="M640 0H0V360H640V0Z" stroke="#A0A0A0" stroke-width="2"/>
<path d="M375.521 33.6104H266.173V54.3925H375.521V33.6104Z" fill="white"/>
<g clip-path="url(#clip2_1384_15261)">
<path d="M276.27 46.2666C275.64 47.2635 274.853 47.762 273.909 47.762C272.885 47.762 272.046 47.3751 271.39 46.6011C270.734 45.8272 270.34 45.0007 270.209 44.1218C270.183 43.912 270.17 43.6496 270.17 43.3348V43.1774C270.17 41.9574 270.623 40.8949 271.528 39.9898C272.315 39.2027 273.18 38.8092 274.125 38.8092C274.151 38.8092 274.191 38.8092 274.243 38.8092C274.296 38.8092 274.348 38.8157 274.4 38.8288H274.479C274.637 38.8288 274.801 38.8419 274.971 38.8682C275.142 38.8944 275.384 38.9731 275.699 39.1043C276.014 39.2355 276.322 39.4454 276.624 39.734C276.926 40.0225 277.208 40.4095 277.47 40.8949C278.034 42.0492 278.316 43.5315 278.316 45.3418C278.316 47.1783 277.923 48.7327 277.135 50.0052C276.676 50.7398 276.125 51.3104 275.483 51.717C274.84 52.1237 274.158 52.3336 273.436 52.3467C272.636 52.3467 271.98 52.1565 271.469 51.7761C270.957 51.3956 270.695 50.8316 270.682 50.0839C270.668 49.3362 271.016 48.9689 271.724 48.982C272.013 48.982 272.256 49.0738 272.452 49.2574C272.649 49.4411 272.748 49.6969 272.748 50.0248C272.748 50.261 272.689 50.4643 272.571 50.6348C272.452 50.8053 272.348 50.9103 272.256 50.9496C272.164 50.989 272.079 51.0218 272 51.048L271.921 51.0677C271.921 51.0939 271.967 51.1333 272.059 51.1858C272.151 51.2382 272.321 51.3038 272.571 51.3825C272.82 51.4612 273.095 51.494 273.397 51.4809H273.515C274.302 51.4809 274.965 51.0611 275.502 50.2216C276.014 49.487 276.27 48.2146 276.27 46.4043V46.2666ZM274.145 47.034C274.774 47.034 275.279 46.7126 275.66 46.0698C276.04 45.4271 276.237 44.5547 276.25 43.4528C276.25 42.4297 276.198 41.6951 276.093 41.2491C276.066 41.1179 276.027 40.9867 275.975 40.8555C275.922 40.7243 275.83 40.5538 275.699 40.3439C275.568 40.134 275.371 39.957 275.109 39.8127C274.846 39.6684 274.538 39.6028 274.184 39.6159C273.686 39.6159 273.259 39.793 272.905 40.1472C272.63 40.4358 272.452 40.7768 272.374 41.1704C272.295 41.5639 272.249 42.2526 272.236 43.2364C272.236 44.3252 272.269 45.0598 272.334 45.4402C272.4 45.8206 272.531 46.1289 272.728 46.365C273.056 46.811 273.528 47.034 274.145 47.034Z" fill="#202020"/>
<path d="M281.071 40.403C281.805 39.3404 282.809 38.8092 284.081 38.8092C284.711 38.8092 285.341 38.9797 285.97 39.3207C286.6 39.6618 287.112 40.2652 287.505 41.131C287.99 42.2198 288.233 43.7152 288.233 45.6173C288.233 47.6505 287.951 49.205 287.387 50.2806C287.125 50.8316 286.764 51.271 286.305 51.599C285.846 51.9269 285.446 52.1302 285.105 52.2089C284.763 52.2876 284.429 52.3336 284.101 52.3467C283.76 52.3467 283.419 52.3073 283.078 52.2286C282.737 52.1499 282.337 51.94 281.878 51.599C281.418 51.2579 281.058 50.8185 280.795 50.2806C280.231 49.205 279.949 47.6505 279.949 45.6173C279.949 43.3348 280.323 41.5967 281.071 40.403ZM285.498 40.1668C285.105 39.7471 284.639 39.5372 284.101 39.5372C283.55 39.5372 283.078 39.7471 282.684 40.1668C282.356 40.5079 282.14 40.9801 282.035 41.5836C281.93 42.187 281.878 43.4463 281.878 45.3615C281.878 47.4341 281.93 48.7983 282.035 49.4542C282.14 50.1101 282.376 50.6283 282.743 51.0087C283.111 51.4022 283.563 51.599 284.101 51.599C284.626 51.599 285.072 51.4022 285.439 51.0087C285.819 50.6151 286.056 50.0642 286.147 49.3558C286.239 48.6475 286.292 47.316 286.305 45.3615C286.305 43.4594 286.252 42.2067 286.147 41.6032C286.042 40.9998 285.826 40.521 285.498 40.1668Z" fill="#202020"/>
<path d="M290.435 40.2958C290.435 39.5817 290.699 38.9557 291.228 38.4178C291.756 37.8799 292.391 37.6109 293.133 37.6109C293.875 37.6109 294.511 37.8706 295.039 38.39C295.568 38.9093 295.837 39.5539 295.846 40.3237C295.846 41.047 295.586 41.6777 295.067 42.2156C294.548 42.7535 293.908 43.0225 293.147 43.0225C292.405 43.0225 291.77 42.7581 291.241 42.2295C290.713 41.7009 290.444 41.0563 290.435 40.2958ZM293.078 38.1813C292.549 38.1813 292.072 38.3761 291.645 38.7656C291.218 39.1551 291.005 39.6698 291.005 40.3097C291.005 40.9311 291.214 41.4412 291.631 41.84C292.048 42.2388 292.554 42.4428 293.147 42.4521C293.463 42.4521 293.755 42.3918 294.024 42.2712C294.293 42.1507 294.483 42.0301 294.594 41.9096C294.705 41.789 294.803 41.6731 294.886 41.5618C295.146 41.2186 295.276 40.8013 295.276 40.3097C295.276 39.7255 295.076 39.2247 294.678 38.8073C294.279 38.39 293.746 38.1813 293.078 38.1813Z" fill="#202020"/>
<path d="M303.239 51.008H303.514C304.026 51.008 304.334 50.9161 304.439 50.7325V50.5751C304.439 50.457 304.439 50.3062 304.439 50.1225C304.439 49.9389 304.445 49.7355 304.458 49.5125C304.472 49.2895 304.472 49.0337 304.458 48.7451C304.445 48.4566 304.445 48.1811 304.458 47.9187C304.458 47.5121 304.458 47.0792 304.458 46.6201C304.458 46.1609 304.458 45.774 304.458 45.4591L304.439 45.0066C304.399 44.7573 304.308 44.5934 304.163 44.5147C304.019 44.436 303.724 44.3769 303.278 44.3376H302.924V43.885C302.924 43.5833 302.937 43.4325 302.963 43.4325L303.16 43.4128C303.291 43.3997 303.475 43.3865 303.711 43.3734C303.947 43.3603 304.183 43.3472 304.419 43.3341C304.629 43.321 304.859 43.3078 305.108 43.2947C305.357 43.2816 305.547 43.2619 305.678 43.2357C305.81 43.2095 305.882 43.2029 305.895 43.216H305.954V44.5737C306.465 43.6817 307.102 43.2357 307.863 43.2357H307.981C308.571 43.2357 309.004 43.38 309.279 43.6686C309.555 43.9572 309.692 44.2589 309.692 44.5737C309.692 44.8492 309.607 45.0853 309.437 45.2821C309.266 45.4788 309.017 45.5772 308.689 45.5772C308.361 45.5772 308.118 45.4723 307.961 45.2624C307.803 45.0525 307.718 44.8295 307.705 44.5934C307.705 44.4753 307.718 44.3704 307.744 44.2786C307.771 44.1867 307.803 44.108 307.843 44.0424C307.882 43.9768 307.902 43.944 307.902 43.944C307.876 43.9178 307.725 43.944 307.449 44.0228C307.239 44.1277 307.082 44.2261 306.977 44.3179C306.361 44.9082 306.052 46.0822 306.052 47.84V48.8829C306.052 49.0534 306.052 49.2305 306.052 49.4142C306.052 49.5978 306.052 49.7683 306.052 49.9257C306.052 50.0832 306.059 50.2143 306.072 50.3193C306.085 50.4242 306.085 50.5226 306.072 50.6144V50.7128C306.085 50.739 306.105 50.7653 306.131 50.7915C306.157 50.8178 306.19 50.8374 306.229 50.8505C306.269 50.8637 306.302 50.8833 306.328 50.9096C306.354 50.9358 306.4 50.9489 306.465 50.9489C306.531 50.9489 306.577 50.9555 306.603 50.9686C306.629 50.9817 306.688 50.9883 306.78 50.9883C306.872 50.9883 306.931 50.9883 306.957 50.9883C306.984 50.9883 307.049 50.9948 307.154 51.008C307.259 51.0211 307.325 51.0211 307.351 51.008H307.961V51.9131H307.784C307.548 51.8737 306.715 51.8541 305.285 51.8541C303.934 51.8541 303.199 51.8737 303.081 51.9131H302.924V51.008H303.239Z" fill="#202020"/>
<path d="M310.794 47.7028C310.794 46.4566 311.221 45.3809 312.073 44.4758C312.926 43.5707 313.956 43.1116 315.163 43.0985C316.343 43.0985 317.36 43.5445 318.212 44.4365C319.065 45.3285 319.498 46.4107 319.511 47.6831C319.511 48.9293 319.091 49.9787 318.252 50.8314C317.412 51.684 316.383 52.1104 315.163 52.1104C313.89 52.1104 312.847 51.6709 312.034 50.792C311.221 49.9131 310.807 48.8834 310.794 47.7028ZM315.163 51.3233C316.763 51.3233 317.563 50.2542 317.563 48.116V47.4863V46.9944C317.563 46.7058 317.557 46.4566 317.543 46.2467C317.53 46.0368 317.484 45.7876 317.406 45.499C317.327 45.2104 317.222 44.9743 317.091 44.7906C316.96 44.607 316.756 44.4233 316.481 44.2397C316.205 44.056 315.884 43.9249 315.517 43.8462C315.451 43.833 315.346 43.8265 315.202 43.8265C314.808 43.8265 314.435 43.9052 314.08 44.0626C313.516 44.3512 313.149 44.7513 312.978 45.2629C312.808 45.7745 312.723 46.3779 312.723 47.0731V47.4667C312.723 48.726 312.847 49.6114 313.097 50.123C313.516 50.9232 314.205 51.3233 315.163 51.3233Z" fill="#202020"/>
<path d="M320.613 43.61C321.308 43.5576 321.846 43.1903 322.226 42.5082C322.607 41.826 322.817 41.0258 322.856 40.1076V39.8125H323.643V43.433H326.3V44.3381H323.643V47.1715C323.656 48.8112 323.663 49.736 323.663 49.9459C323.663 50.1558 323.709 50.3657 323.801 50.5756C323.984 51.0872 324.306 51.343 324.765 51.343C325.342 51.343 325.696 50.8773 325.827 49.9459C325.84 49.841 325.847 49.5393 325.847 49.0408V48.3521H326.634V49.0408V49.2769C326.634 50.287 326.359 51.0544 325.808 51.5791C325.453 51.9333 324.994 52.1104 324.43 52.1104C323.984 52.1104 323.597 52.0316 323.269 51.8742C322.941 51.7168 322.692 51.5135 322.522 51.2643C322.351 51.015 322.226 50.7855 322.148 50.5756C322.069 50.3657 322.023 50.1558 322.01 49.9459C321.997 49.8541 321.99 48.8834 321.99 47.0338V44.3381H320.436V43.61H320.613Z" fill="#202020"/>
<path d="M330.432 45.9121C330.432 45.9121 330.287 45.9121 329.999 45.9121C329.71 45.9121 329.467 45.8137 329.271 45.6169C329.074 45.4201 328.976 45.1644 328.976 44.8495C328.976 44.3904 329.199 43.9838 329.645 43.6296C330.091 43.2754 330.884 43.0983 332.025 43.0983C332.983 43.0983 333.757 43.3082 334.347 43.728C334.938 44.1477 335.331 44.6462 335.528 45.2234C335.593 45.407 335.626 45.6104 335.626 45.8334C335.626 46.0564 335.633 46.8106 335.646 48.0962V49.4735C335.646 50.1032 335.679 50.5361 335.744 50.7722C335.81 51.0083 335.948 51.1264 336.158 51.1264C336.354 51.1264 336.485 51.0214 336.551 50.8115C336.617 50.6017 336.649 50.254 336.649 49.7687V49.0603H337.437V49.8277C337.423 50.3524 337.404 50.6607 337.377 50.7525C337.259 51.1461 337.03 51.4543 336.689 51.6773C336.348 51.9003 335.987 52.0184 335.607 52.0315C335.226 52.0446 334.918 51.9266 334.682 51.6773C334.446 51.4281 334.288 51.1526 334.21 50.8509V50.7722L334.17 50.8312C334.144 50.8706 334.111 50.9099 334.072 50.9493C334.032 50.9886 333.98 51.0477 333.914 51.1264C333.849 51.2051 333.77 51.2772 333.678 51.3428C333.586 51.4084 333.488 51.4871 333.383 51.5789C333.278 51.6708 333.16 51.7429 333.029 51.7954C332.898 51.8479 332.753 51.9003 332.596 51.9528C332.439 52.0053 332.268 52.0446 332.084 52.0709C331.901 52.0971 331.697 52.1168 331.474 52.1299C330.687 52.1299 329.979 51.9266 329.349 51.5199C328.72 51.1133 328.405 50.5426 328.405 49.808C328.405 49.5326 328.451 49.2702 328.543 49.021C328.634 48.7717 328.812 48.5028 329.074 48.2142C329.336 47.9256 329.651 47.683 330.018 47.4862C330.386 47.2894 330.897 47.1058 331.553 46.9353C332.209 46.7647 332.931 46.6663 333.718 46.6401H333.993V46.2072C333.993 45.7612 333.954 45.4333 333.875 45.2234C333.586 44.292 332.95 43.8263 331.966 43.8263C331.73 43.8263 331.507 43.8329 331.297 43.846C331.088 43.8591 330.924 43.8854 330.805 43.9247C330.687 43.9641 330.635 43.9838 330.648 43.9838C330.937 44.1805 331.081 44.4691 331.081 44.8495C331.081 45.1775 330.976 45.4333 330.766 45.6169L330.432 45.9121ZM330.215 49.8277C330.215 50.2344 330.373 50.5951 330.687 50.9099C331.002 51.2248 331.389 51.3887 331.848 51.4018C332.347 51.4018 332.786 51.251 333.167 50.9493C333.547 50.6476 333.803 50.254 333.934 49.7687C333.96 49.6769 333.98 49.244 333.993 48.47C333.993 47.7092 333.987 47.3288 333.973 47.3288C333.868 47.3288 333.731 47.3353 333.56 47.3485C333.39 47.3616 333.095 47.4206 332.675 47.5255C332.255 47.6305 331.875 47.7617 331.534 47.9191C331.192 48.0765 330.891 48.3192 330.628 48.6471C330.366 48.9751 330.228 49.3686 330.215 49.8277Z" fill="#202020"/>
<path d="M338.106 43.61C338.801 43.5576 339.339 43.1903 339.719 42.5082C340.099 41.826 340.309 41.0258 340.349 40.1076V39.8125H341.136V43.433H343.792V44.3381H341.136V47.1715C341.149 48.8112 341.155 49.736 341.155 49.9459C341.155 50.1558 341.201 50.3657 341.293 50.5756C341.477 51.0872 341.798 51.343 342.257 51.343C342.834 51.343 343.189 50.8773 343.32 49.9459C343.333 49.841 343.34 49.5393 343.34 49.0408V48.3521H344.127V49.0408V49.2769C344.127 50.287 343.851 51.0544 343.3 51.5791C342.946 51.9333 342.487 52.1104 341.923 52.1104C341.477 52.1104 341.09 52.0316 340.762 51.8742C340.434 51.7168 340.185 51.5135 340.014 51.2643C339.844 51.015 339.719 50.7855 339.64 50.5756C339.562 50.3657 339.516 50.1558 339.503 49.9459C339.489 49.8541 339.483 48.8834 339.483 47.0338V44.3381H337.928V43.61H338.106Z" fill="#202020"/>
<path d="M346.586 39.93C346.586 39.5627 346.704 39.2741 346.94 39.0642C347.176 38.8544 347.465 38.7494 347.806 38.7494C348.108 38.7757 348.37 38.8872 348.593 39.0839C348.816 39.2807 348.928 39.5627 348.928 39.93C348.928 40.3235 348.816 40.6187 348.593 40.8155C348.37 41.0122 348.095 41.1106 347.767 41.1106C347.439 41.1106 347.163 41.0122 346.94 40.8155C346.717 40.6187 346.599 40.3235 346.586 39.93ZM350.089 51.9131C349.892 51.8737 349.21 51.8541 348.042 51.8541C347.898 51.8541 347.655 51.8541 347.314 51.8541C346.973 51.8541 346.645 51.8672 346.33 51.8934L345.897 51.9131H345.74V51.008H346.055C346.422 51.008 346.744 50.9883 347.019 50.9489C347.137 50.8965 347.209 50.8243 347.235 50.7325C347.262 50.6407 347.275 50.3652 347.275 49.9061V47.8794V46.1478C347.275 45.4657 347.262 45.0328 347.235 44.8492C347.209 44.6655 347.117 44.5409 346.96 44.4753C346.776 44.3835 346.468 44.3376 346.035 44.3376H345.819V43.885C345.819 43.5833 345.832 43.4325 345.858 43.4325L346.055 43.4128C346.186 43.3997 346.37 43.3865 346.606 43.3734C346.842 43.3603 347.078 43.3472 347.314 43.3341C347.537 43.321 347.773 43.3078 348.023 43.2947C348.272 43.2816 348.462 43.2619 348.593 43.2357C348.724 43.2095 348.796 43.2029 348.81 43.216H348.869V50.6931C348.934 50.8243 349.013 50.903 349.105 50.9293C349.197 50.9555 349.426 50.9817 349.793 51.008H350.246V51.9131H350.089Z" fill="#202020"/>
<path d="M351.25 47.7028C351.25 46.4566 351.676 45.3809 352.528 44.4758C353.381 43.5707 354.411 43.1116 355.618 43.0985C356.798 43.0985 357.815 43.5445 358.668 44.4365C359.52 45.3285 359.953 46.4107 359.966 47.6831C359.966 48.9293 359.546 49.9787 358.707 50.8314C357.867 51.684 356.838 52.1104 355.618 52.1104C354.345 52.1104 353.302 51.6709 352.489 50.792C351.676 49.9131 351.263 48.8834 351.25 47.7028ZM355.618 51.3233C357.218 51.3233 358.018 50.2542 358.018 48.116V47.4863V46.9944C358.018 46.7058 358.012 46.4566 357.999 46.2467C357.985 46.0368 357.94 45.7876 357.861 45.499C357.782 45.2104 357.677 44.9743 357.546 44.7906C357.415 44.607 357.212 44.4233 356.936 44.2397C356.661 44.056 356.339 43.9249 355.972 43.8462C355.906 43.833 355.801 43.8265 355.657 43.8265C355.264 43.8265 354.89 43.9052 354.536 44.0626C353.971 44.3512 353.604 44.7513 353.434 45.2629C353.263 45.7745 353.178 46.3779 353.178 47.0731V47.4667C353.178 48.726 353.302 49.6114 353.552 50.123C353.971 50.9232 354.66 51.3233 355.618 51.3233Z" fill="#202020"/>
<path d="M361.344 51.008H361.619C362.131 51.008 362.439 50.9161 362.544 50.7325V50.5751C362.544 50.457 362.544 50.3062 362.544 50.1225C362.544 49.9389 362.544 49.7355 362.544 49.5125C362.544 49.2895 362.55 49.0337 362.564 48.7451C362.577 48.4566 362.577 48.1811 362.564 47.9187C362.564 47.5121 362.564 47.0792 362.564 46.6201C362.564 46.1609 362.557 45.774 362.544 45.4591V45.0066C362.505 44.7573 362.413 44.5934 362.268 44.5147C362.124 44.436 361.829 44.3769 361.383 44.3376H361.029V43.885C361.029 43.5833 361.042 43.4325 361.068 43.4325L361.265 43.4128C361.396 43.3997 361.58 43.3865 361.816 43.3734C362.052 43.3603 362.295 43.3472 362.544 43.3341C362.767 43.321 363.003 43.3078 363.252 43.2947C363.501 43.2816 363.692 43.2619 363.823 43.2357C363.954 43.2095 364.026 43.2029 364.039 43.216H364.098V44.0031C364.098 44.5016 364.105 44.7508 364.118 44.7508C364.131 44.7508 364.164 44.718 364.216 44.6524C364.269 44.5868 364.348 44.4884 364.453 44.3573C364.557 44.2261 364.682 44.108 364.826 44.0031C364.971 43.8981 365.161 43.7735 365.397 43.6292C365.633 43.4849 365.882 43.38 366.145 43.3144C366.407 43.2488 366.742 43.216 367.148 43.216C368.644 43.2685 369.477 44.0096 369.647 45.4395C369.66 45.5313 369.667 46.443 369.667 48.1745V49.8667C369.667 50.3652 369.68 50.6603 369.706 50.7522C369.732 50.844 369.805 50.9096 369.923 50.9489C370.198 50.9883 370.519 51.008 370.887 51.008H371.202V51.9131H371.044L370.572 51.8934C370.27 51.8803 369.942 51.8737 369.588 51.8737C369.234 51.8737 368.985 51.8672 368.84 51.8541C367.489 51.8541 366.755 51.8737 366.637 51.9131H366.479V51.008H366.794C367.594 51.008 367.994 50.903 367.994 50.6931C368.007 50.6669 368.014 49.7618 368.014 47.9778C368.001 46.2069 367.988 45.2689 367.975 45.164C367.896 44.7967 367.765 44.5212 367.581 44.3376C367.397 44.1539 367.24 44.0424 367.109 44.0031C366.978 43.9637 366.807 43.9506 366.597 43.9637C366.007 43.9637 365.489 44.1867 365.043 44.6327C364.689 44.9869 364.466 45.3476 364.374 45.7149C364.282 46.0822 364.23 46.6266 364.216 47.3481V48.6074V49.788C364.216 50.1815 364.223 50.4439 364.236 50.5751C364.249 50.7063 364.269 50.7915 364.295 50.8309C364.321 50.8702 364.38 50.9096 364.472 50.9489C364.748 50.9883 365.069 51.008 365.436 51.008H365.751V51.9131H365.594L365.141 51.8934C364.826 51.8803 364.492 51.8737 364.138 51.8737C363.784 51.8737 363.534 51.8672 363.39 51.8541C362.039 51.8541 361.304 51.8737 361.186 51.9131H361.029V51.008H361.344Z" fill="#202020"/>
</g>
<path d="M560.417 230.781L560.308 230.78L560.243 230.693C559.209 229.299 558.581 227.504 558.581 225.619C558.581 220.905 562.397 217.043 567.157 217.087C571.871 217.088 575.688 220.904 575.688 225.619C575.688 227.545 575.061 229.434 573.886 230.834L573.82 230.913L573.717 230.912L560.417 230.781Z" fill="white" stroke="black"/>
<path d="M536.354 230.781L536.246 230.78L536.18 230.693C535.147 229.299 534.519 227.504 534.519 225.619C534.519 220.905 538.334 217.043 543.095 217.087C547.809 217.088 551.625 220.904 551.625 225.619C551.625 227.545 550.998 229.434 549.824 230.834L549.757 230.913L549.654 230.912L536.354 230.781Z" fill="white" stroke="black"/>
<path d="M564.75 219.1C565.319 219.143 565.756 219.581 565.756 220.15C565.756 220.718 565.275 221.2 564.706 221.2C564.137 221.2 563.656 220.718 563.656 220.15C563.656 219.581 564.137 219.1 564.706 219.1H564.75L563.481 218.662C561.6 218.662 560.112 220.193 560.112 222.031C560.112 223.868 561.644 225.4 563.481 225.4C565.319 225.4 566.85 223.868 566.85 222.031C566.85 220.193 565.319 218.662 563.481 218.662" fill="black"/>
<path d="M540.687 219.1C541.256 219.143 541.694 219.581 541.694 220.15C541.694 220.718 541.212 221.2 540.644 221.2C540.075 221.2 539.594 220.718 539.594 220.15C539.594 219.581 540.075 219.1 540.644 219.1H540.687L539.419 218.662C537.537 218.662 536.05 220.193 536.05 222.031C536.05 223.868 537.581 225.4 539.419 225.4C541.256 225.4 542.787 223.868 542.787 222.031C542.787 220.193 541.256 218.662 539.419 218.662" fill="black"/>
<path d="M568.95 243.732H540.775C547.513 271.644 551.756 289.844 551.756 309.794C551.756 313.294 551.756 340.2 541.519 340.2C536.269 340.2 531.806 335.475 531.806 331.232C531.806 330.007 531.806 329.482 533.556 325.763C540.294 308.569 540.294 287.132 540.294 285.382C540.294 283.894 540.294 266.175 535.044 243.775L504.769 243.338C498.731 243.163 493.131 234.194 493.131 226.188C493.131 220.719 500.525 230.607 512.381 230.607L586.888 230.3C592.619 230.3 601.106 230.3 612.569 242.507C619.044 249.725 618.694 262.938 618.694 264.425C618.694 265.913 617.469 266.438 615.937 266.438C614.188 266.438 613.006 266.132 612.7 264.207C609.2 243.513 595.113 243.775 588.856 243.775H574.638C580.106 262.457 586.363 284.157 606.794 327.775C608.806 331.757 608.806 332.282 608.806 333.769C608.806 339.019 604.3 340.244 602.069 340.244C594.85 340.244 592.837 333.769 589.862 323.313C585.881 310.582 585.881 310.1 583.388 300.125L568.95 243.732Z" fill="#0C8699"/>
<path d="M562.869 239.882C563.088 241.282 563.788 243.163 558.756 242.594C552.85 241.938 551.363 240.888 549.175 239.707L549.306 238.35C550.925 238.394 554.338 238.657 556.613 238.175C558.45 237.782 562.213 237.738 562.431 238.569" fill="black"/>
<path d="M499.41 38.8008C488.263 30.8903 469.566 40.5987 474.959 53.1835C459.426 47.1428 455.902 73.6789 467.408 76.915C455.039 81.2298 460.217 101.725 474.959 98.1295C463.741 104.746 469.925 122.94 482.87 113.95C477.98 123.443 495.095 133.367 503.725 120.063C499.985 133.008 523.141 138.761 530.333 126.176C529.757 139.12 551.547 140.199 551.547 128.693C554.999 139.336 572.762 133.008 570.245 120.063C576.861 130.419 593.976 120.063 587.504 109.995C597.859 117.474 613.033 103.163 602.246 93.4551C615.19 94.8934 616.988 75.4767 602.246 71.5215C615.766 67.4943 607.64 47.0709 596.493 50.307C604.547 40.8144 586.066 30.1712 574.559 38.8008C580.6 24.9934 558.019 17.5864 551.547 31.9691C552.985 18.737 527.816 17.2268 525.299 30.1712C520.409 16.6515 497.252 25.4968 499.41 38.8008Z" fill="white" stroke="#606060" stroke-width="1.5"/>
<path d="M598.511 174.878C597.108 168.329 587.168 162.475 585.121 176.117C585.121 180.397 589.623 185.169 593.599 184.935C597.575 184.701 599.914 181.426 598.511 174.878Z" fill="white" stroke="#606060" stroke-width="1.5"/>
<path d="M605.543 137.364C602.843 125.685 587.663 126.439 585.322 140.459C583.887 149.047 590.44 155.368 595.748 155.161C602.383 154.903 608.702 151.034 605.543 137.364Z" fill="white" stroke="#606060" stroke-width="1.5"/>
<path d="M583.737 197.757C582.387 191.918 574.797 192.295 573.626 199.305C572.909 203.599 576.185 206.759 578.839 206.656C582.157 206.527 585.316 204.592 583.737 197.757Z" fill="white" stroke="#606060" stroke-width="1.5"/>
<path d="M576.491 54.3926H502.564V107.76H576.491V54.3926Z" fill="white"/>
<g clip-path="url(#clip3_1384_15261)">
<path d="M506.549 105.612V58.3933H511.843V59.6136H507.769V104.392H511.843V105.612H506.549Z" fill="#202020"/>
<path d="M513.969 61.6317C514.704 60.5688 515.708 60.0373 516.98 60.0373C517.61 60.0373 518.24 60.2079 518.87 60.5491C519.5 60.8903 520.012 61.4939 520.405 62.3599C520.891 63.449 521.133 64.9449 521.133 66.8476C521.133 68.8815 520.851 70.4364 520.287 71.5124C520.025 72.0635 519.664 72.5031 519.205 72.8312C518.745 73.1592 518.345 73.3626 518.004 73.4413C517.663 73.5201 517.328 73.566 517 73.5791C516.659 73.5791 516.318 73.5397 515.977 73.461C515.635 73.3823 515.235 73.1723 514.776 72.8312C514.317 72.49 513.956 72.0504 513.693 71.5124C513.129 70.4364 512.847 68.8815 512.847 66.8476C512.847 64.5644 513.221 62.8257 513.969 61.6317ZM518.398 61.3955C518.004 60.9756 517.538 60.7656 517 60.7656C516.449 60.7656 515.977 60.9756 515.583 61.3955C515.255 61.7366 515.038 62.209 514.933 62.8126C514.828 63.4162 514.776 64.6759 514.776 66.5917C514.776 68.665 514.828 70.0296 514.933 70.6857C515.038 71.3418 515.275 71.8601 515.642 72.2407C516.009 72.6343 516.462 72.8312 517 72.8312C517.525 72.8312 517.971 72.6343 518.339 72.2407C518.719 71.847 518.955 71.2959 519.047 70.5873C519.139 69.8787 519.191 68.5469 519.205 66.5917C519.205 64.689 519.152 63.4359 519.047 62.8323C518.942 62.2287 518.726 61.7497 518.398 61.3955Z" fill="#40A839"/>
<path d="M543.257 68.4814C543.257 68.4814 543.257 68.3961 543.257 68.2255C543.257 68.0549 543.349 67.9237 543.532 67.8318H554.968C555.165 67.9368 555.263 68.068 555.263 68.2255C555.263 68.3829 555.165 68.5142 554.968 68.6191H543.532C543.349 68.5273 543.257 68.3961 543.257 68.2255V68.4814Z" fill="#C74440"/>
<path d="M561.109 61.7698L560.853 61.8682C560.67 61.9339 560.407 61.9995 560.066 62.0651C559.725 62.1307 559.344 62.1766 558.924 62.2029H558.55V61.2974H558.924C559.541 61.2712 560.112 61.1728 560.637 61.0022C561.162 60.8316 561.529 60.6742 561.739 60.5298C561.949 60.3855 562.133 60.2411 562.29 60.0968C562.316 60.0574 562.395 60.0377 562.526 60.0377C562.644 60.0377 562.756 60.0771 562.861 60.1558V66.041L562.881 71.9458C562.973 72.0377 563.051 72.0967 563.117 72.123C563.182 72.1492 563.34 72.1755 563.589 72.2017C563.839 72.228 564.245 72.2411 564.81 72.2411H565.321V73.1465H565.105C564.829 73.1071 563.786 73.0874 561.975 73.0874C560.191 73.0874 559.161 73.1071 558.885 73.1465H558.649V72.2411H559.161C559.449 72.2411 559.699 72.2411 559.909 72.2411C560.119 72.2411 560.283 72.2345 560.401 72.2214C560.519 72.2083 560.624 72.1886 560.716 72.1623C560.807 72.1361 560.86 72.123 560.873 72.123C560.886 72.123 560.926 72.0902 560.991 72.0246C561.057 71.959 561.096 71.9327 561.109 71.9458V61.7698Z" fill="#C74440"/>
<path d="M516.272 89.3255L516.016 89.4239C515.832 89.4895 515.57 89.5551 515.229 89.6207C514.887 89.6863 514.507 89.7323 514.087 89.7585H513.713V88.8531H514.087C514.704 88.8269 515.275 88.7285 515.799 88.5579C516.324 88.3873 516.692 88.2298 516.902 88.0855C517.112 87.9411 517.295 87.7968 517.453 87.6525C517.479 87.6131 517.558 87.5934 517.689 87.5934C517.807 87.5934 517.919 87.6328 518.024 87.7115V93.5967L518.043 99.5015C518.135 99.5934 518.214 99.6524 518.279 99.6786C518.345 99.7049 518.503 99.7311 518.752 99.7574C519.001 99.7836 519.408 99.7967 519.972 99.7967H520.484V100.702H520.267C519.992 100.663 518.949 100.643 517.138 100.643C515.353 100.643 514.323 100.663 514.048 100.702H513.811V99.7967H514.323C514.612 99.7967 514.861 99.7967 515.071 99.7967C515.281 99.7967 515.445 99.7902 515.563 99.7771C515.681 99.7639 515.786 99.7443 515.878 99.718C515.97 99.6918 516.023 99.6786 516.036 99.6786C516.049 99.6786 516.088 99.6458 516.154 99.5802C516.219 99.5146 516.259 99.4884 516.272 99.5015V89.3255Z" fill="#40A839"/>
<path d="M551.15 89.1873C551.885 88.1244 552.888 87.593 554.161 87.593C554.791 87.593 555.421 87.7636 556.051 88.1048C556.681 88.4459 557.192 89.0495 557.586 89.9156C558.072 91.0047 558.314 92.5006 558.314 94.4033C558.314 96.4371 558.032 97.9921 557.468 99.0681C557.205 99.6192 556.845 100.059 556.385 100.387C555.926 100.715 555.526 100.918 555.185 100.997C554.844 101.076 554.509 101.122 554.181 101.135C553.84 101.135 553.499 101.095 553.157 101.017C552.816 100.938 552.416 100.728 551.957 100.387C551.497 100.046 551.137 99.6061 550.874 99.0681C550.31 97.9921 550.028 96.4371 550.028 94.4033C550.028 92.12 550.402 90.3814 551.15 89.1873ZM555.578 88.9511C555.185 88.5312 554.719 88.3213 554.181 88.3213C553.63 88.3213 553.157 88.5312 552.764 88.9511C552.436 89.2923 552.219 89.7647 552.114 90.3683C552.009 90.9719 551.957 92.2316 551.957 94.1474C551.957 96.2206 552.009 97.5853 552.114 98.2414C552.219 98.8975 552.455 99.4158 552.823 99.7963C553.19 100.19 553.643 100.387 554.181 100.387C554.706 100.387 555.152 100.19 555.519 99.7963C555.9 99.4027 556.136 98.8516 556.228 98.143C556.32 97.4344 556.372 96.1025 556.385 94.1474C556.385 92.2447 556.333 90.9916 556.228 90.388C556.123 89.7844 555.906 89.3054 555.578 88.9511Z" fill="#C74440"/>
<path d="M566.975 59.6136V58.3933H572.269V105.612H566.975V104.392H571.049V59.6136H566.975Z" fill="#202020"/>
</g>
<path d="M85.2084 230.57L85.3169 230.569L85.3821 230.482C86.4155 229.088 87.0438 227.293 87.0438 225.408C87.0438 220.694 83.2283 216.832 78.4679 216.876C73.7538 216.877 69.9375 220.693 69.9375 225.408C69.9375 227.334 70.5644 229.223 71.7387 230.623L71.8052 230.702L71.9084 230.701L85.2084 230.57Z" fill="white" stroke="black"/>
<path d="M109.271 230.57L109.379 230.569L109.445 230.482C110.478 229.088 111.106 227.293 111.106 225.408C111.106 220.694 107.291 216.832 102.53 216.876C97.8163 216.877 94 220.693 94 225.408C94 227.334 94.6269 229.223 95.8012 230.623L95.8677 230.702L95.9709 230.701L109.271 230.57Z" fill="white" stroke="black"/>
<path d="M80.8746 218.889C80.3058 218.932 79.8683 219.37 79.8683 219.939C79.8683 220.507 80.3496 220.989 80.9183 220.989C81.4871 220.989 81.9683 220.507 81.9683 219.939C81.9683 219.37 81.4871 218.889 80.9183 218.889H80.8746L82.1433 218.451C84.0246 218.451 85.5121 219.982 85.5121 221.82C85.5121 223.657 83.9808 225.189 82.1433 225.189C80.3058 225.189 78.7746 223.657 78.7746 221.82C78.7746 219.982 80.3058 218.451 82.1433 218.451" fill="black"/>
<path d="M104.937 218.889C104.368 218.932 103.931 219.37 103.931 219.939C103.931 220.507 104.412 220.989 104.981 220.989C105.55 220.989 106.031 220.507 106.031 219.939C106.031 219.37 105.55 218.889 104.981 218.889H104.937L106.206 218.451C108.087 218.451 109.575 219.982 109.575 221.82C109.575 223.657 108.043 225.189 106.206 225.189C104.368 225.189 102.837 223.657 102.837 221.82C102.837 219.982 104.368 218.451 106.206 218.451" fill="black"/>
<path d="M76.6746 243.52H104.85C98.1121 271.433 93.8683 289.633 93.8683 309.583C93.8683 313.083 93.8683 339.989 104.106 339.989C109.356 339.989 113.818 335.264 113.818 331.02C113.818 329.795 113.818 329.27 112.068 325.552C105.331 308.358 105.331 286.92 105.331 285.17C105.331 283.683 105.331 265.964 110.581 243.564H138.493C141.731 243.564 149.956 243.564 149.956 235.602C149.956 230.133 145.231 230.133 140.725 230.133H58.7371C53.0058 230.133 44.5183 230.133 33.0558 242.339C26.5808 249.558 18.6184 262.77 18.6184 264.258C18.6184 265.745 19.8434 266.27 21.3747 266.27C23.1247 266.27 23.3872 265.527 24.6122 264.039C37.5621 243.608 50.5121 243.608 56.7683 243.608H70.9871C65.5183 262.289 59.2621 283.989 38.8308 327.608C36.8183 331.589 36.8183 332.114 36.8183 333.602C36.8183 338.852 41.3246 340.077 43.5558 340.077C50.7746 340.077 52.7871 333.602 55.7621 323.145C59.7433 310.414 59.7433 309.933 62.2371 299.958L76.6746 243.52Z" fill="#2797D3"/>
<path d="M81.6629 237.046C83.8067 238.489 85.5567 240.677 90.6317 240.633C97.0629 240.633 97.7192 237.614 97.7629 237.439L97.6317 236.608C96.6254 237.089 96.2754 239.102 90.7192 239.014C86.2567 238.927 84.7692 237.964 82.1442 236.346" fill="black"/>
</g>
<defs>
<clipPath id="clip0_1384_15261">
<rect width="640" height="360" fill="white"/>
</clipPath>
<clipPath id="clip1_1384_15261">
<rect width="640" height="360" fill="white"/>
</clipPath>
<clipPath id="clip2_1384_15261">
<rect width="107.088" height="14.7378" fill="white" transform="translate(269.326 37.6084)"/>
</clipPath>
<clipPath id="clip3_1384_15261">
<rect width="75.4638" height="47.241" fill="white" transform="translate(501.687 58.3818)"/>
</clipPath>
</defs>
</svg>
