<svg width="640" height="360" viewBox="0 0 640 360" fill="none" xmlns="http://www.w3.org/2000/svg">
<g clip-path="url(#clip0_1384_15623)">
<path d="M640 0H0V360H640V0Z" fill="white"/>
<path d="M545.417 229.95L545.33 229.95L545.267 229.889C544.232 228.899 543.581 227.707 543.581 226.363C543.581 224.715 544.567 223.244 546.117 222.195C547.667 221.144 549.8 220.5 552.156 220.5C554.491 220.5 556.613 221.144 558.158 222.195C559.701 223.244 560.688 224.715 560.688 226.363C560.688 227.748 560.04 229.033 558.856 229.989L558.795 230.038L558.717 230.038L545.417 229.95Z" fill="white" stroke="black"/>
<path d="M521.354 229.95L521.247 229.949L521.183 229.864C520.151 228.518 519.519 226.898 519.519 225.137C519.519 222.953 520.507 220.701 522.071 219.137C523.638 217.57 525.803 216.677 528.147 217.269C530.46 217.842 532.573 218.716 534.112 219.998C535.659 221.286 536.625 222.985 536.625 225.181C536.625 226.982 535.995 228.697 534.819 230.008L534.753 230.082L534.654 230.081L521.354 229.95Z" fill="white" stroke="black"/>
<path d="M549.312 222.162C549.881 222.206 550.319 222.643 550.319 223.212C550.319 223.781 549.837 224.262 549.269 224.262C548.7 224.262 548.219 223.781 548.219 223.212C548.219 222.643 548.7 222.162 549.269 222.162H549.312L548.044 221.725C546.162 221.725 544.675 223.256 544.675 225.093C544.675 226.931 546.206 228.462 548.044 228.462C549.881 228.462 551.412 226.931 551.412 225.093C551.412 223.256 549.881 221.725 548.044 221.725" fill="black"/>
<path d="M524.375 221.287C524.944 221.331 525.382 221.768 525.382 222.337C525.382 222.906 524.9 223.387 524.332 223.387C523.763 223.387 523.282 222.906 523.282 222.337C523.282 221.768 523.763 221.287 524.332 221.287H524.375L523.107 220.85C521.225 220.85 519.738 222.381 519.738 224.218C519.738 226.056 521.269 227.587 523.107 227.587C524.944 227.587 526.475 226.056 526.475 224.218C526.475 222.381 524.944 220.85 523.107 220.85" fill="black"/>
<path d="M553.95 242.856H525.775C532.513 270.769 536.756 288.969 536.756 308.919C536.756 312.419 536.756 339.325 526.519 339.325C521.269 339.325 516.806 334.6 516.806 330.356C516.806 329.131 516.806 328.606 518.556 324.888C525.294 307.694 525.294 286.256 525.294 284.506C525.294 283.019 525.294 265.3 520.044 242.9H492.131C488.894 242.9 480.669 243.338 480.669 235.375C480.669 229.906 485.394 229.469 489.9 229.469H571.888C577.619 229.469 575.956 224.044 572.106 220.019C563.706 211.313 555.525 220.5 554.212 219.45C552.594 218.138 559.419 211.619 563.05 210.263C566.069 209.125 574.425 212.231 577.881 217.35C585.537 228.681 580.112 242.9 573.9 242.9H559.681C565.15 261.581 571.406 283.281 591.837 326.9C593.85 330.881 593.85 331.406 593.85 332.894C593.85 338.144 589.344 339.369 587.112 339.369C579.894 339.369 577.881 332.894 574.906 322.438C570.925 309.706 570.925 309.225 568.431 299.25L553.95 242.856Z" fill="#0C8699"/>
<path d="M553.994 238.481C553.6 238.656 553.25 237.519 552.2 237.694C547.737 238.35 547.037 238.481 545.594 238.438L545.725 237.081C547.344 237.125 549.837 236.031 552.2 236.031C553.906 236.031 554.3 236.556 554.169 237.169" fill="black"/>
<path d="M142.981 38.8008C154.128 30.8903 172.826 40.5987 167.432 53.1835C182.965 47.1428 186.489 73.6789 174.983 76.915C187.352 81.2298 182.174 101.725 167.432 98.1295C178.651 104.746 172.466 122.94 159.522 113.95C164.412 123.443 147.296 133.367 138.667 120.063C142.406 133.008 119.25 138.761 112.059 126.176C112.634 139.12 90.8442 140.199 90.8442 128.693C87.3924 139.336 69.6298 133.008 72.1467 120.063C65.5307 130.419 48.4153 120.063 54.8875 109.995C44.532 117.474 29.3582 103.163 40.1453 93.4551C27.2008 94.8934 25.403 75.4767 40.1453 71.5215C26.6255 67.4943 34.7517 47.0709 45.8983 50.307C37.844 40.8144 56.3258 30.1712 67.8319 38.8008C61.7912 24.9934 84.372 17.5864 90.8442 31.9691C89.406 18.737 114.576 17.2268 117.093 30.1712C121.983 16.6515 145.139 25.4968 142.981 38.8008Z" fill="white" stroke="#606060" stroke-width="1.5"/>
<path d="M43.8805 174.879C45.2838 168.33 55.2238 162.476 57.2701 176.118C57.2701 180.398 52.768 185.17 48.792 184.936C44.8161 184.702 42.4772 181.427 43.8805 174.879Z" fill="white" stroke="#606060" stroke-width="1.5"/>
<path d="M36.8488 137.364C39.548 125.685 54.728 126.439 57.0697 140.459C58.504 149.047 51.9512 155.368 46.6432 155.161C40.0083 154.903 33.6893 151.034 36.8488 137.364Z" fill="white" stroke="#606060" stroke-width="1.5"/>
<path d="M58.6546 197.757C60.0042 191.918 67.5942 192.295 68.7651 199.305C69.4822 203.599 66.2058 206.759 63.5518 206.656C60.2344 206.527 57.0749 204.592 58.6546 197.757Z" fill="white" stroke="#606060" stroke-width="1.5"/>
<path d="M87.7267 230.781L87.8352 230.78L87.9004 230.693C88.9338 229.299 89.5621 227.504 89.5621 225.619C89.5621 220.905 85.7466 217.043 80.9862 217.087C76.2721 217.088 72.4558 220.904 72.4558 225.619C72.4558 227.545 73.0827 229.434 74.257 230.834L74.3235 230.913L74.4268 230.912L87.7267 230.781Z" fill="white" stroke="black"/>
<path d="M111.789 230.781L111.898 230.78L111.963 230.693C112.996 229.299 113.625 227.504 113.625 225.619C113.625 220.905 109.809 217.043 105.049 217.087C100.335 217.088 96.5183 220.904 96.5183 225.619C96.5183 227.545 97.1452 229.434 98.3195 230.834L98.386 230.913L98.4893 230.912L111.789 230.781Z" fill="white" stroke="black"/>
<path d="M83.3933 219.1C82.8246 219.143 82.3871 219.581 82.3871 220.15C82.3871 220.718 82.8683 221.2 83.4371 221.2C84.0058 221.2 84.4871 220.718 84.4871 220.15C84.4871 219.581 84.0058 219.1 83.4371 219.1H83.3933L84.6621 218.662C86.5433 218.662 88.0308 220.193 88.0308 222.031C88.0308 223.868 86.4996 225.4 84.6621 225.4C82.8246 225.4 81.2933 223.868 81.2933 222.031C81.2933 220.193 82.8246 218.662 84.6621 218.662" fill="black"/>
<path d="M107.456 219.1C106.887 219.143 106.45 219.581 106.45 220.15C106.45 220.718 106.931 221.2 107.5 221.2C108.068 221.2 108.55 220.718 108.55 220.15C108.55 219.581 108.068 219.1 107.5 219.1H107.456L108.725 218.662C110.606 218.662 112.093 220.193 112.093 222.031C112.093 223.868 110.562 225.4 108.725 225.4C106.887 225.4 105.356 223.868 105.356 222.031C105.356 220.193 106.887 218.662 108.725 218.662" fill="black"/>
<path d="M79.1933 243.732H107.368C100.631 271.644 96.3871 289.844 96.3871 309.794C96.3871 313.294 96.3871 340.2 106.625 340.2C111.875 340.2 116.337 335.475 116.337 331.232C116.337 330.007 116.337 329.482 114.587 325.763C107.85 308.569 107.85 287.132 107.85 285.382C107.85 283.894 107.85 266.175 113.1 243.775L143.375 243.338C149.412 243.163 155.012 234.194 155.012 226.188C155.012 220.719 147.618 230.607 135.762 230.607L61.2558 230.3C55.5246 230.3 47.0371 230.3 35.5746 242.507C29.0996 249.725 29.4496 262.938 29.4496 264.425C29.4496 265.913 30.6746 266.438 32.2058 266.438C33.9558 266.438 35.1371 266.132 35.4433 264.207C38.9433 243.513 53.0308 243.775 59.2871 243.775H73.5058C68.0371 262.457 61.7808 284.157 41.3496 327.775C39.3371 331.757 39.3371 332.282 39.3371 333.769C39.3371 339.019 43.8433 340.244 46.0746 340.244C53.2933 340.244 55.3058 333.769 58.2808 323.313C62.2621 310.582 62.2621 310.1 64.7558 300.125L79.1933 243.732Z" fill="#2797D3"/>
<path d="M85.2745 239.882C85.0558 241.282 84.3558 243.163 89.387 242.594C95.2933 241.938 96.7808 240.888 98.9683 239.707L98.837 238.35C97.2183 238.394 93.8058 238.657 91.5308 238.175C89.6933 237.782 85.9308 237.738 85.712 238.569" fill="black"/>
<rect x="61.6305" y="50.1416" width="87.164" height="56.87" fill="white"/>
<g clip-path="url(#clip1_1384_15623)">
<path d="M70.6597 103V54.1537H76.1368V55.4161H71.9221V101.738H76.1368V103H70.6597Z" fill="#101010"/>
<path d="M85.5029 55.8127C85.0143 55.8127 84.5799 55.8941 84.1998 56.057C83.8197 56.2199 83.5618 56.3828 83.4261 56.5457L83.2225 56.7697C83.2496 56.7697 83.2836 56.7765 83.3243 56.79C83.365 56.8036 83.4397 56.8307 83.5483 56.8715C83.6569 56.9122 83.7587 56.9733 83.8537 57.0547C83.9487 57.1362 84.0301 57.2448 84.098 57.3805C84.1659 57.5162 84.1998 57.6791 84.1998 57.8692C84.1998 58.1814 84.098 58.4393 83.8944 58.6429C83.6908 58.8465 83.4329 58.9483 83.1207 58.9483C82.8085 58.9483 82.5506 58.8533 82.347 58.6632C82.1433 58.4732 82.0348 58.2153 82.0212 57.8895C82.0212 57.0887 82.3266 56.4439 82.9374 55.9552C83.5483 55.4666 84.2202 55.1747 84.9532 55.0797C84.9803 55.0797 85.055 55.0797 85.1772 55.0797C85.2993 55.0797 85.3943 55.0729 85.4622 55.0593H85.5437C86.2631 55.0593 86.8875 55.1476 87.4169 55.324C87.9463 55.5005 88.3399 55.7448 88.5978 56.057C88.8557 56.3692 89.0525 56.6679 89.1883 56.9529C89.324 57.238 89.3851 57.5434 89.3715 57.8692C89.3715 58.7379 88.9983 59.4505 88.2517 60.0071C86.9757 60.9165 86.202 61.9957 85.9305 63.2445C85.8626 63.5703 85.8287 63.9911 85.8287 64.5069V64.853C85.8287 65.1109 85.8083 65.2602 85.7676 65.301C85.7269 65.3417 85.6115 65.3688 85.4215 65.3824C85.2314 65.396 85.1161 65.3756 85.0753 65.3213C85.0346 65.267 85.0143 65.1517 85.0143 64.9752V64.344C85.0414 63.3802 85.1636 62.5522 85.3808 61.8599C85.5979 61.1677 85.8355 60.6654 86.0934 60.3532C86.3513 60.041 86.6024 59.7288 86.8468 59.4166C87.0911 59.1044 87.2472 58.7922 87.3151 58.48C87.3422 58.3578 87.3558 58.1067 87.3558 57.7266V57.4619C87.3558 57.2312 87.3422 57.0411 87.3151 56.8918C87.2879 56.7425 87.2133 56.5728 87.0911 56.3828C86.9689 56.1928 86.7857 56.0502 86.5413 55.9552C86.297 55.8602 85.9509 55.8127 85.5029 55.8127ZM84.1998 68.1719C84.1998 67.7918 84.322 67.4932 84.5663 67.276C84.8107 67.0588 85.1093 66.9502 85.4622 66.9502C85.7744 66.9774 86.0459 67.0927 86.2767 67.2964C86.5074 67.5 86.6228 67.7918 86.6228 68.1719C86.6228 68.5791 86.5074 68.8845 86.2767 69.0881C86.0459 69.2917 85.7608 69.3936 85.4215 69.3936C85.0821 69.3936 84.7971 69.2917 84.5663 69.0881C84.3356 68.8845 84.2134 68.5791 84.1998 68.1719Z" fill="#40A839"/>
<path d="M124.515 55.8127C124.026 55.8127 123.592 55.8941 123.212 56.057C122.832 56.2199 122.574 56.3828 122.438 56.5457L122.234 56.7697C122.262 56.7697 122.295 56.7765 122.336 56.79C122.377 56.8036 122.452 56.8307 122.56 56.8715C122.669 56.9122 122.771 56.9733 122.866 57.0547C122.961 57.1362 123.042 57.2448 123.11 57.3805C123.178 57.5162 123.212 57.6791 123.212 57.8692C123.212 58.1814 123.11 58.4393 122.906 58.6429C122.703 58.8465 122.445 58.9483 122.133 58.9483C121.82 58.9483 121.562 58.8533 121.359 58.6632C121.155 58.4732 121.047 58.2153 121.033 57.8895C121.033 57.0887 121.338 56.4439 121.949 55.9552C122.56 55.4666 123.232 55.1747 123.965 55.0797C123.992 55.0797 124.067 55.0797 124.189 55.0797C124.311 55.0797 124.406 55.0729 124.474 55.0593H124.556C125.275 55.0593 125.899 55.1476 126.429 55.324C126.958 55.5005 127.352 55.7448 127.61 56.057C127.868 56.3692 128.064 56.6679 128.2 56.9529C128.336 57.238 128.397 57.5434 128.383 57.8692C128.383 58.7379 128.01 59.4505 127.264 60.0071C125.988 60.9165 125.214 61.9957 124.942 63.2445C124.875 63.5703 124.841 63.9911 124.841 64.5069V64.853C124.841 65.1109 124.82 65.2602 124.78 65.301C124.739 65.3417 124.623 65.3688 124.433 65.3824C124.243 65.396 124.128 65.3756 124.087 65.3213C124.047 65.267 124.026 65.1517 124.026 64.9752V64.344C124.053 63.3802 124.175 62.5522 124.393 61.8599C124.61 61.1677 124.847 60.6654 125.105 60.3532C125.363 60.041 125.614 59.7288 125.859 59.4166C126.103 59.1044 126.259 58.7922 126.327 58.48C126.354 58.3578 126.368 58.1067 126.368 57.7266V57.4619C126.368 57.2312 126.354 57.0411 126.327 56.8918C126.3 56.7425 126.225 56.5728 126.103 56.3828C125.981 56.1928 125.798 56.0502 125.553 55.9552C125.309 55.8602 124.963 55.8127 124.515 55.8127ZM123.212 68.1719C123.212 67.7918 123.334 67.4932 123.578 67.276C123.823 67.0588 124.121 66.9502 124.474 66.9502C124.786 66.9774 125.058 67.0927 125.289 67.2964C125.519 67.5 125.635 67.7918 125.635 68.1719C125.635 68.5791 125.519 68.8845 125.289 69.0881C125.058 69.2917 124.773 69.3936 124.433 69.3936C124.094 69.3936 123.809 69.2917 123.578 69.0881C123.347 68.8845 123.225 68.5791 123.212 68.1719Z" fill="#C74440"/>
<path d="M85.5029 84.3186C85.0143 84.3186 84.5799 84.4 84.1998 84.5629C83.8197 84.7258 83.5618 84.8887 83.4261 85.0516L83.2225 85.2755C83.2496 85.2755 83.2836 85.2823 83.3243 85.2959C83.365 85.3095 83.4397 85.3366 83.5483 85.3773C83.6569 85.4181 83.7587 85.4791 83.8537 85.5606C83.9487 85.642 84.0301 85.7506 84.098 85.8864C84.1659 86.0221 84.1998 86.185 84.1998 86.375C84.1998 86.6872 84.098 86.9451 83.8944 87.1487C83.6908 87.3524 83.4329 87.4542 83.1207 87.4542C82.8085 87.4542 82.5506 87.3591 82.347 87.1691C82.1433 86.9791 82.0348 86.7212 82.0212 86.3954C82.0212 85.5945 82.3266 84.9497 82.9374 84.4611C83.5483 83.9724 84.2202 83.6806 84.9532 83.5856C84.9803 83.5856 85.055 83.5856 85.1772 83.5856C85.2993 83.5856 85.3943 83.5788 85.4622 83.5652H85.5437C86.2631 83.5652 86.8875 83.6534 87.4169 83.8299C87.9463 84.0063 88.3399 84.2507 88.5978 84.5629C88.8557 84.8751 89.0525 85.1737 89.1883 85.4588C89.324 85.7438 89.3851 86.0492 89.3715 86.375C89.3715 87.2438 88.9983 87.9564 88.2517 88.5129C86.9757 89.4224 86.202 90.5015 85.9305 91.7504C85.8626 92.0761 85.8287 92.4969 85.8287 93.0127V93.3589C85.8287 93.6168 85.8083 93.7661 85.7676 93.8068C85.7269 93.8476 85.6115 93.8747 85.4215 93.8883C85.2314 93.9018 85.1161 93.8815 85.0753 93.8272C85.0346 93.7729 85.0143 93.6575 85.0143 93.4811V92.8499C85.0414 91.8861 85.1636 91.0581 85.3808 90.3658C85.5979 89.6735 85.8355 89.1713 86.0934 88.8591C86.3513 88.5469 86.6024 88.2347 86.8468 87.9225C87.0911 87.6103 87.2472 87.2981 87.3151 86.9859C87.3422 86.8637 87.3558 86.6126 87.3558 86.2325V85.9678C87.3558 85.737 87.3422 85.547 87.3151 85.3977C87.2879 85.2484 87.2133 85.0787 87.0911 84.8887C86.9689 84.6986 86.7857 84.5561 86.5413 84.4611C86.297 84.3661 85.9509 84.3186 85.5029 84.3186ZM84.1998 96.6777C84.1998 96.2977 84.322 95.999 84.5663 95.7819C84.8107 95.5647 85.1093 95.4561 85.4622 95.4561C85.7744 95.4832 86.0459 95.5986 86.2767 95.8022C86.5074 96.0058 86.6228 96.2977 86.6228 96.6777C86.6228 97.085 86.5074 97.3904 86.2767 97.594C86.0459 97.7976 85.7608 97.8994 85.4215 97.8994C85.0821 97.8994 84.7971 97.7976 84.5663 97.594C84.3356 97.3904 84.2134 97.085 84.1998 96.6777Z" fill="#40A839"/>
<path d="M124.515 84.3186C124.026 84.3186 123.592 84.4 123.212 84.5629C122.832 84.7258 122.574 84.8887 122.438 85.0516L122.234 85.2755C122.262 85.2755 122.295 85.2823 122.336 85.2959C122.377 85.3095 122.452 85.3366 122.56 85.3773C122.669 85.4181 122.771 85.4791 122.866 85.5606C122.961 85.642 123.042 85.7506 123.11 85.8864C123.178 86.0221 123.212 86.185 123.212 86.375C123.212 86.6872 123.11 86.9451 122.906 87.1487C122.703 87.3524 122.445 87.4542 122.133 87.4542C121.82 87.4542 121.562 87.3591 121.359 87.1691C121.155 86.9791 121.047 86.7212 121.033 86.3954C121.033 85.5945 121.338 84.9497 121.949 84.4611C122.56 83.9724 123.232 83.6806 123.965 83.5856C123.992 83.5856 124.067 83.5856 124.189 83.5856C124.311 83.5856 124.406 83.5788 124.474 83.5652H124.556C125.275 83.5652 125.899 83.6534 126.429 83.8299C126.958 84.0063 127.352 84.2507 127.61 84.5629C127.868 84.8751 128.064 85.1737 128.2 85.4588C128.336 85.7438 128.397 86.0492 128.383 86.375C128.383 87.2438 128.01 87.9564 127.264 88.5129C125.988 89.4224 125.214 90.5015 124.942 91.7504C124.875 92.0761 124.841 92.4969 124.841 93.0127V93.3589C124.841 93.6168 124.82 93.7661 124.78 93.8068C124.739 93.8476 124.623 93.8747 124.433 93.8883C124.243 93.9018 124.128 93.8815 124.087 93.8272C124.047 93.7729 124.026 93.6575 124.026 93.4811V92.8499C124.053 91.8861 124.175 91.0581 124.393 90.3658C124.61 89.6735 124.847 89.1713 125.105 88.8591C125.363 88.5469 125.614 88.2347 125.859 87.9225C126.103 87.6103 126.259 87.2981 126.327 86.9859C126.354 86.8637 126.368 86.6126 126.368 86.2325V85.9678C126.368 85.737 126.354 85.547 126.327 85.3977C126.3 85.2484 126.225 85.0787 126.103 84.8887C125.981 84.6986 125.798 84.5561 125.553 84.4611C125.309 84.3661 124.963 84.3186 124.515 84.3186ZM123.212 96.6777C123.212 96.2977 123.334 95.999 123.578 95.7819C123.823 95.5647 124.121 95.4561 124.474 95.4561C124.786 95.4832 125.058 95.5986 125.289 95.8022C125.519 96.0058 125.635 96.2977 125.635 96.6777C125.635 97.085 125.519 97.3904 125.289 97.594C125.058 97.7976 124.773 97.8994 124.433 97.8994C124.094 97.8994 123.809 97.7976 123.578 97.594C123.347 97.3904 123.225 97.085 123.212 96.6777Z" fill="#C74440"/>
<path d="M134.268 55.4161V54.1537H139.745V103H134.268V101.738H138.483V55.4161H134.268Z" fill="#101010"/>
</g>
</g>
<defs>
<clipPath id="clip0_1384_15623">
<rect width="640" height="360" fill="white"/>
</clipPath>
<clipPath id="clip1_1384_15623">
<rect width="79.164" height="48.87" fill="white" transform="translate(65.6305 54.1416)"/>
</clipPath>
</defs>
</svg>
