<svg width="480" height="240" viewBox="0 0 480 240" fill="none" xmlns="http://www.w3.org/2000/svg">
<g clip-path="url(#clip0_1395_17182)">
<path d="M480 0H0V240H480V0Z" fill="white"/>
<path d="M306.53 92.3262H183.224V145.695H306.53V92.3262Z" fill="white"/>
<g clip-path="url(#clip1_1395_17182)">
<path d="M187.209 143.547V96.3264H192.504V97.5468H188.429V142.327H192.504V143.547H187.209Z" fill="#202020"/>
<path d="M194.886 102.635C194.531 102.635 194.249 102.517 194.039 102.281C193.829 102.044 193.724 101.756 193.724 101.415C193.724 100.483 194.072 99.6759 194.768 98.9935C195.463 98.3111 196.329 97.97 197.366 97.97C198.56 97.97 199.557 98.3374 200.358 99.0722C201.158 99.8071 201.565 100.758 201.578 101.926C201.578 102.491 201.447 103.029 201.184 103.54C200.922 104.052 200.607 104.498 200.24 104.879C199.872 105.259 199.347 105.745 198.665 106.335C198.192 106.742 197.536 107.346 196.696 108.146L195.535 109.249L197.031 109.268C199.091 109.268 200.187 109.235 200.318 109.17C200.41 109.144 200.568 108.56 200.791 107.418V107.359H201.578V107.418C201.565 107.457 201.48 108.054 201.322 109.209C201.165 110.364 201.066 110.968 201.027 111.02V111.079H193.724V110.705V110.469C193.724 110.377 193.764 110.279 193.842 110.174C193.921 110.069 194.118 109.839 194.433 109.485C194.813 109.065 195.142 108.697 195.417 108.382C195.535 108.251 195.758 108.008 196.086 107.654C196.414 107.3 196.637 107.057 196.756 106.926C196.874 106.795 197.064 106.578 197.326 106.276C197.589 105.975 197.773 105.751 197.878 105.607C197.982 105.463 198.133 105.266 198.33 105.017C198.527 104.767 198.665 104.557 198.744 104.387C198.822 104.216 198.921 104.026 199.039 103.816C199.157 103.606 199.242 103.396 199.295 103.186C199.347 102.976 199.393 102.779 199.432 102.596C199.472 102.412 199.492 102.195 199.492 101.946C199.492 101.119 199.268 100.404 198.822 99.8005C198.376 99.1969 197.74 98.8951 196.913 98.8951C196.48 98.8951 196.099 99.0066 195.771 99.2297C195.443 99.4528 195.214 99.6693 195.082 99.8793C194.951 100.089 194.886 100.214 194.886 100.253C194.886 100.266 194.918 100.273 194.984 100.273C195.22 100.273 195.463 100.365 195.712 100.548C195.962 100.732 196.086 101.034 196.086 101.454C196.086 101.782 195.981 102.058 195.771 102.281C195.561 102.504 195.266 102.622 194.886 102.635Z" fill="#202020"/>
<path d="M223.919 106.414C223.919 106.414 223.919 106.329 223.919 106.158C223.919 105.988 224.01 105.856 224.194 105.764H235.63C235.827 105.869 235.925 106.001 235.925 106.158C235.925 106.316 235.827 106.447 235.63 106.552H224.194C224.01 106.46 223.919 106.329 223.919 106.158V106.414Z" fill="#202020"/>
<path d="M241.771 99.7021L241.516 99.8005C241.332 99.8661 241.069 99.9317 240.728 99.9974C240.387 100.063 240.007 100.109 239.587 100.135H239.213V99.2297H239.587C240.203 99.2035 240.774 99.105 241.299 98.9344C241.824 98.7639 242.191 98.6064 242.401 98.462C242.611 98.3177 242.795 98.1734 242.952 98.029C242.979 97.9896 243.057 97.97 243.189 97.97C243.307 97.97 243.418 98.0093 243.523 98.0881V103.973L243.543 109.878C243.635 109.97 243.714 110.029 243.779 110.056C243.845 110.082 244.002 110.108 244.252 110.134C244.501 110.161 244.908 110.174 245.472 110.174H245.984V111.079H245.767C245.492 111.04 244.448 111.02 242.638 111.02C240.853 111.02 239.823 111.04 239.547 111.079H239.311V110.174H239.823C240.112 110.174 240.361 110.174 240.571 110.174C240.781 110.174 240.945 110.167 241.063 110.154C241.181 110.141 241.286 110.121 241.378 110.095C241.47 110.069 241.522 110.056 241.535 110.056C241.548 110.056 241.588 110.023 241.653 109.957C241.719 109.892 241.758 109.865 241.771 109.878V99.7021Z" fill="#202020"/>
<path d="M196.933 127.259L196.677 127.357C196.493 127.423 196.231 127.488 195.889 127.554C195.548 127.62 195.168 127.666 194.748 127.692H194.374V126.786H194.748C195.365 126.76 195.935 126.662 196.46 126.491C196.985 126.32 197.353 126.163 197.563 126.019C197.773 125.874 197.956 125.73 198.114 125.586C198.14 125.546 198.219 125.527 198.35 125.527C198.468 125.527 198.58 125.566 198.685 125.645V131.53L198.704 137.435C198.796 137.527 198.875 137.586 198.94 137.612C199.006 137.638 199.163 137.665 199.413 137.691C199.662 137.717 200.069 137.73 200.633 137.73H201.145V138.636H200.928C200.653 138.596 199.61 138.577 197.799 138.577C196.014 138.577 194.984 138.596 194.708 138.636H194.472V137.73H194.984C195.273 137.73 195.522 137.73 195.732 137.73C195.942 137.73 196.106 137.724 196.224 137.711C196.342 137.698 196.447 137.678 196.539 137.652C196.631 137.625 196.683 137.612 196.696 137.612C196.71 137.612 196.749 137.579 196.815 137.514C196.88 137.448 196.92 137.422 196.933 137.435V127.259Z" fill="#202020"/>
<path d="M234.115 127.259L233.859 127.357C233.675 127.423 233.413 127.488 233.071 127.554C232.73 127.62 232.35 127.666 231.93 127.692H231.556V126.786H231.93C232.547 126.76 233.117 126.662 233.642 126.491C234.167 126.32 234.535 126.163 234.744 126.019C234.954 125.874 235.138 125.73 235.296 125.586C235.322 125.546 235.401 125.527 235.532 125.527C235.65 125.527 235.761 125.566 235.866 125.645V131.53L235.886 137.435C235.978 137.527 236.057 137.586 236.122 137.612C236.188 137.638 236.345 137.665 236.595 137.691C236.844 137.717 237.251 137.73 237.815 137.73H238.327V138.636H238.11C237.835 138.596 236.792 138.577 234.981 138.577C233.196 138.577 232.166 138.596 231.89 138.636H231.654V137.73H232.166C232.455 137.73 232.704 137.73 232.914 137.73C233.124 137.73 233.288 137.724 233.406 137.711C233.524 137.698 233.629 137.678 233.721 137.652C233.813 137.625 233.865 137.612 233.878 137.612C233.892 137.612 233.931 137.579 233.997 137.514C234.062 137.448 234.102 137.422 234.115 137.435V127.259Z" fill="#202020"/>
<path d="M247.637 97.5468V96.3264H252.932V143.547H247.637V142.327H251.712V97.5468H247.637Z" fill="#202020"/>
<path d="M265.956 143.547V96.3264H271.251V97.5468H267.177V142.327H271.251V143.547H265.956Z" fill="#202020"/>
<path d="M273.141 106.414C273.141 106.414 273.141 106.329 273.141 106.158C273.141 105.988 273.233 105.856 273.416 105.764H284.853C285.049 105.869 285.148 106.001 285.148 106.158C285.148 106.316 285.049 106.447 284.853 106.552H273.416C273.233 106.46 273.141 106.329 273.141 106.158V106.414Z" fill="#202020"/>
<path d="M290.994 99.7021L290.738 99.8005C290.554 99.8661 290.292 99.9317 289.951 99.9974C289.609 100.063 289.229 100.109 288.809 100.135H288.435V99.2297H288.809C289.426 99.2035 289.996 99.105 290.521 98.9344C291.046 98.7639 291.414 98.6064 291.624 98.462C291.834 98.3177 292.017 98.1734 292.175 98.029C292.201 97.9896 292.28 97.97 292.411 97.97C292.529 97.97 292.641 98.0093 292.746 98.0881V103.973L292.765 109.878C292.857 109.97 292.936 110.029 293.001 110.056C293.067 110.082 293.225 110.108 293.474 110.134C293.723 110.161 294.13 110.174 294.694 110.174H295.206V111.079H294.989C294.714 111.04 293.671 111.02 291.86 111.02C290.075 111.02 289.045 111.04 288.77 111.079H288.533V110.174H289.045C289.334 110.174 289.583 110.174 289.793 110.174C290.003 110.174 290.167 110.167 290.285 110.154C290.403 110.141 290.508 110.121 290.6 110.095C290.692 110.069 290.744 110.056 290.758 110.056C290.771 110.056 290.81 110.023 290.876 109.957C290.941 109.892 290.981 109.865 290.994 109.878V99.7021Z" fill="#202020"/>
<path d="M281.29 130.192C280.936 130.192 280.653 130.073 280.443 129.837C280.233 129.601 280.129 129.312 280.129 128.971C280.129 128.04 280.476 127.232 281.172 126.55C281.867 125.868 282.733 125.527 283.77 125.527C284.964 125.527 285.961 125.894 286.762 126.629C287.562 127.364 287.969 128.315 287.982 129.483C287.982 130.047 287.851 130.585 287.589 131.097C287.326 131.609 287.011 132.055 286.644 132.435C286.276 132.816 285.751 133.302 285.069 133.892C284.597 134.299 283.941 134.902 283.101 135.703L281.939 136.805L283.435 136.825C285.496 136.825 286.591 136.792 286.722 136.726C286.814 136.7 286.972 136.116 287.195 134.975V134.916H287.982V134.975C287.969 135.014 287.884 135.611 287.726 136.766C287.569 137.921 287.47 138.524 287.431 138.577V138.636H280.129V138.262V138.026C280.129 137.934 280.168 137.835 280.247 137.73C280.325 137.625 280.522 137.396 280.837 137.041C281.218 136.621 281.546 136.254 281.821 135.939C281.939 135.808 282.162 135.565 282.491 135.211C282.819 134.857 283.042 134.614 283.16 134.483C283.278 134.351 283.468 134.135 283.731 133.833C283.993 133.531 284.177 133.308 284.282 133.164C284.387 133.019 284.538 132.823 284.734 132.573C284.931 132.324 285.069 132.114 285.148 131.943C285.227 131.773 285.325 131.583 285.443 131.373C285.561 131.163 285.646 130.953 285.699 130.743C285.751 130.533 285.797 130.336 285.837 130.152C285.876 129.968 285.896 129.752 285.896 129.503C285.896 128.676 285.673 127.961 285.227 127.357C284.78 126.754 284.144 126.452 283.317 126.452C282.884 126.452 282.504 126.563 282.176 126.786C281.848 127.009 281.618 127.226 281.487 127.436C281.355 127.646 281.29 127.771 281.29 127.81C281.29 127.823 281.323 127.83 281.388 127.83C281.624 127.83 281.867 127.921 282.117 128.105C282.366 128.289 282.491 128.591 282.491 129.011C282.491 129.339 282.386 129.614 282.176 129.837C281.966 130.06 281.67 130.178 281.29 130.192Z" fill="#202020"/>
<path d="M296.859 97.5468V96.3264H302.154V143.547H296.859V142.327H300.934V97.5468H296.859Z" fill="#202020"/>
</g>
<path d="M302.372 89.8291C302.043 89.8291 301.831 89.7221 301.738 89.5081C301.644 89.2951 301.543 88.9241 301.434 88.3971C301.324 87.8701 301.163 87.4101 300.945 87.0141C299.396 84.1501 296.325 82.7181 291.733 82.7181H256.587C250.745 82.7181 246.996 80.7301 245.338 76.7551C243.682 80.7301 240.121 82.7181 234.66 82.7181H199.078C197.748 82.7181 196.741 82.7511 196.063 82.8171C194.161 83.0481 192.517 83.6851 191.132 84.7311C189.746 85.7761 188.917 87.0721 188.645 88.6201C188.645 88.6531 188.631 88.7481 188.604 88.9031C188.577 89.0591 188.55 89.1711 188.524 89.2361C188.497 89.3031 188.454 89.3931 188.399 89.5081C188.343 89.6241 188.243 89.7061 188.101 89.7551C187.96 89.8051 187.804 89.8291 187.633 89.8291C186.926 89.8291 187.427 86.1621 189.135 84.2391C190.844 82.3171 193.324 81.2331 196.577 80.9891C197.124 80.9561 197.93 80.9401 198.996 80.9401H234.251C236.099 80.9401 237.715 80.7221 239.102 80.2861C240.488 79.8491 241.514 79.2861 242.179 78.5941C242.844 77.9031 243.326 77.3221 243.625 76.8531C243.925 76.3841 244.129 75.9111 244.237 75.4331C244.237 75.3341 244.252 75.1901 244.279 75.0011C244.306 74.8121 244.353 74.6601 244.421 74.5441C244.489 74.4291 244.549 74.3131 244.604 74.1991C244.658 74.0831 244.753 73.9931 244.89 73.9271C245.026 73.8621 245.176 73.8281 245.338 73.8281C245.555 73.8281 245.733 73.8521 245.867 73.9021C246.002 73.9521 246.106 74.0421 246.174 74.1741C246.242 74.3051 246.289 74.4411 246.316 74.5811C246.343 74.7201 246.384 74.9061 246.438 75.1371C246.493 75.3681 246.546 75.5811 246.602 75.7791C246.982 76.9971 247.837 78.0961 249.168 79.0761C250.5 80.0551 252.199 80.6431 254.263 80.8411C254.806 80.9071 255.621 80.9401 256.707 80.9401H291.243C292.333 80.9401 293.204 80.9691 293.856 81.0261C294.508 81.0831 295.419 81.3031 296.59 81.6861C297.761 82.0691 298.813 82.6271 299.744 83.3601C302.838 85.3861 302.908 89.8291 302.368 89.8291H302.372Z" fill="#202020"/>
<path d="M312.109 16.4004H179.816V68.0304H312.109V16.4004Z" fill="white"/>
<g clip-path="url(#clip2_1395_17182)">
<path d="M183.813 24.2947C183.813 23.2056 184.187 22.2871 184.935 21.5391C185.683 20.7912 186.542 20.4172 187.513 20.4172H187.789C188.904 20.4172 189.875 20.8305 190.702 21.6572L191.115 21.047C191.181 20.9552 191.247 20.8568 191.312 20.7518C191.378 20.6468 191.444 20.5615 191.509 20.4959L191.568 20.4172C191.581 20.4172 191.608 20.4172 191.647 20.4172C191.686 20.4172 191.726 20.4106 191.765 20.3975H191.844C191.883 20.3975 191.942 20.4369 192.021 20.5156V25.1805L191.903 25.2986H191.548C191.404 25.2986 191.319 25.2789 191.293 25.2395C191.266 25.2001 191.234 25.0689 191.194 24.8458C190.971 23.1925 190.308 22.0968 189.206 21.5588C188.721 21.3488 188.229 21.2439 187.73 21.2439C187.035 21.2439 186.47 21.4801 186.037 21.9524C185.604 22.4248 185.388 22.976 185.388 23.6058C185.388 24.052 185.499 24.4588 185.722 24.8262C185.945 25.1936 186.26 25.4888 186.667 25.7119C186.798 25.7644 187.363 25.9153 188.36 26.1646C189.357 26.4139 189.908 26.5648 190.013 26.6173C190.761 26.906 191.371 27.3981 191.844 28.0935C192.316 28.789 192.559 29.596 192.572 30.5146C192.572 31.5774 192.231 32.5353 191.548 33.3883C190.866 34.2412 189.902 34.6742 188.655 34.6873C187.92 34.6873 187.264 34.5758 186.687 34.3527C186.109 34.1297 185.709 33.9263 185.486 33.7426L185.132 33.467C185.079 33.5326 184.981 33.6638 184.837 33.8607C184.692 34.0575 184.561 34.2412 184.443 34.4118C184.325 34.5824 184.266 34.6742 184.266 34.6873C184.24 34.7005 184.174 34.707 184.069 34.707H183.99C183.951 34.707 183.892 34.6677 183.813 34.5889V32.286C183.813 30.7245 183.82 29.9306 183.833 29.9044C183.859 29.8388 183.99 29.806 184.226 29.806H184.482C184.561 29.8847 184.6 29.97 184.6 30.0618C184.6 30.4817 184.666 30.8951 184.797 31.3019C184.928 31.7087 185.152 32.1089 185.466 32.5025C185.781 32.8962 186.214 33.2111 186.766 33.4473C187.317 33.6835 187.973 33.8016 188.734 33.8016C189.351 33.8016 189.882 33.5523 190.328 33.0537C190.774 32.555 190.997 31.9449 190.997 31.2231C190.997 30.6589 190.853 30.1471 190.564 29.6879C190.276 29.2286 189.895 28.9137 189.423 28.7431C188.688 28.5594 188.202 28.4347 187.966 28.3691C187.901 28.356 187.723 28.3166 187.435 28.251C187.146 28.1854 186.93 28.1329 186.785 28.0935C186.641 28.0542 186.431 27.982 186.155 27.877C185.88 27.7721 185.663 27.654 185.506 27.5227C185.348 27.3915 185.158 27.2341 184.935 27.0503C184.712 26.8666 184.535 26.637 184.404 26.3614C184.01 25.7185 183.813 25.0296 183.813 24.2947Z" fill="#202020"/>
<path d="M196.371 28.2704C196.371 28.2704 196.226 28.2704 195.938 28.2704C195.649 28.2704 195.406 28.172 195.21 27.9752C195.013 27.7783 194.914 27.5225 194.914 27.2075C194.914 26.7483 195.137 26.3415 195.584 25.9872C196.03 25.6329 196.824 25.4557 197.965 25.4557C198.923 25.4557 199.697 25.6657 200.288 26.0856C200.878 26.5055 201.272 27.0041 201.469 27.5815C201.534 27.7652 201.567 27.9686 201.567 28.1917C201.567 28.4147 201.574 29.1693 201.587 30.4552V31.833C201.587 32.4629 201.62 32.8959 201.685 33.1321C201.751 33.3683 201.889 33.4864 202.099 33.4864C202.295 33.4864 202.427 33.3814 202.492 33.1715C202.558 32.9615 202.591 32.6138 202.591 32.1283V31.4197H203.378V32.1873C203.365 32.7122 203.345 33.0206 203.319 33.1124C203.201 33.5061 202.971 33.8145 202.63 34.0375C202.289 34.2606 201.928 34.3787 201.547 34.3918C201.167 34.4049 200.859 34.2868 200.622 34.0375C200.386 33.7882 200.229 33.5126 200.15 33.2108V33.1321L200.111 33.1912C200.084 33.2305 200.052 33.2699 200.012 33.3093C199.973 33.3486 199.92 33.4077 199.855 33.4864C199.789 33.5651 199.71 33.6373 199.619 33.7029C199.527 33.7685 199.428 33.8473 199.323 33.9391C199.218 34.031 199.1 34.1031 198.969 34.1556C198.838 34.2081 198.693 34.2606 198.536 34.3131C198.378 34.3656 198.208 34.4049 198.024 34.4312C197.84 34.4574 197.637 34.4771 197.414 34.4902C196.627 34.4902 195.918 34.2868 195.288 33.8801C194.658 33.4733 194.343 32.9025 194.343 32.1676C194.343 31.8921 194.389 31.6296 194.481 31.3803C194.573 31.131 194.75 30.862 195.013 30.5733C195.275 30.2846 195.59 30.0419 195.957 29.845C196.325 29.6482 196.837 29.4645 197.493 29.2939C198.149 29.1233 198.871 29.0249 199.658 28.9987H199.933V28.5657C199.933 28.1195 199.894 27.7915 199.815 27.5815C199.527 26.6498 198.89 26.184 197.906 26.184C197.67 26.184 197.447 26.1906 197.237 26.2037C197.027 26.2168 196.863 26.2431 196.745 26.2824C196.627 26.3218 196.574 26.3415 196.587 26.3415C196.876 26.5383 197.02 26.827 197.02 27.2075C197.02 27.5356 196.915 27.7915 196.705 27.9752L196.371 28.2704ZM196.154 32.1873C196.154 32.5941 196.312 32.955 196.627 33.2699C196.942 33.5848 197.329 33.7488 197.788 33.762C198.287 33.762 198.726 33.6111 199.107 33.3093C199.487 33.0074 199.743 32.6138 199.874 32.1283C199.901 32.0364 199.92 31.6034 199.933 30.8292C199.933 30.0681 199.927 29.6876 199.914 29.6876C199.809 29.6876 199.671 29.6941 199.5 29.7073C199.33 29.7204 199.035 29.7794 198.615 29.8844C198.195 29.9894 197.814 30.1206 197.473 30.2781C197.132 30.4355 196.83 30.6783 196.568 31.0063C196.305 31.3344 196.167 31.7281 196.154 32.1873Z" fill="#202020"/>
<path d="M204.323 33.369H204.598C205.11 33.369 205.418 33.2771 205.523 33.0934V32.936C205.523 32.8179 205.523 32.667 205.523 32.4833C205.523 32.2996 205.523 32.0962 205.523 31.8731C205.523 31.65 205.53 31.3941 205.543 31.1055C205.556 30.8168 205.556 30.5412 205.543 30.2788C205.543 29.872 205.543 29.439 205.543 28.9797C205.543 28.5204 205.537 28.1333 205.523 27.8184V27.3657C205.484 27.1164 205.392 26.9523 205.248 26.8736C205.103 26.7949 204.808 26.7358 204.362 26.6965H204.008V26.2438C204.008 25.9419 204.021 25.791 204.047 25.791L204.244 25.7714C204.375 25.7582 204.559 25.7451 204.795 25.732C205.031 25.7189 205.274 25.7057 205.523 25.6926C205.746 25.6795 205.983 25.6664 206.232 25.6533C206.481 25.6401 206.672 25.6205 206.803 25.5942C206.934 25.568 207.006 25.5614 207.019 25.5745H207.078V26.3618C207.078 26.8605 207.085 27.1098 207.098 27.1098C207.111 27.1098 207.144 27.077 207.196 27.0114C207.249 26.9458 207.328 26.8474 207.433 26.7161C207.538 26.5849 207.662 26.4668 207.807 26.3618C207.951 26.2569 208.141 26.1322 208.377 25.9879C208.614 25.8435 208.863 25.7386 209.125 25.6729C209.388 25.6073 209.722 25.5745 210.129 25.5745C210.326 25.5745 210.51 25.5877 210.68 25.6139C210.851 25.6401 211.002 25.6795 211.133 25.732C211.264 25.7845 211.389 25.837 211.507 25.8895C211.625 25.9419 211.724 26.001 211.802 26.0666C211.881 26.1322 211.953 26.2044 212.019 26.2831C212.084 26.3618 212.143 26.434 212.196 26.4996C212.248 26.5652 212.294 26.6374 212.334 26.7161C212.373 26.7949 212.399 26.8605 212.412 26.913C212.426 26.9655 212.445 27.0179 212.472 27.0704L212.511 27.1689L212.57 27.0901C212.609 27.0376 212.649 26.9851 212.688 26.9327C212.727 26.8802 212.786 26.808 212.865 26.7161C212.944 26.6243 213.029 26.539 213.121 26.4603C213.213 26.3815 213.311 26.2962 213.416 26.2044C213.521 26.1125 213.652 26.0338 213.81 25.9682C213.967 25.9026 214.118 25.837 214.263 25.7714C214.407 25.7057 214.578 25.6598 214.774 25.6336C214.971 25.6073 215.175 25.5877 215.385 25.5745C217.038 25.5745 217.937 26.3159 218.081 27.7987C218.094 27.8906 218.101 28.8025 218.101 30.5346V32.2274C218.101 32.726 218.114 33.0213 218.14 33.1131C218.166 33.205 218.239 33.2706 218.357 33.3099C218.632 33.3493 218.954 33.369 219.321 33.369H219.636V34.2744H219.479L219.026 34.2547C218.711 34.2416 218.376 34.235 218.022 34.235C217.668 34.235 217.418 34.2285 217.274 34.2154C215.923 34.2154 215.188 34.235 215.07 34.2744H214.912V33.369H215.227C216.028 33.369 216.428 33.264 216.428 33.0541C216.441 33.0278 216.447 32.1224 216.447 30.3378C216.434 28.5663 216.421 27.6281 216.408 27.5231C216.329 27.1557 216.198 26.8802 216.014 26.6965C215.831 26.5128 215.673 26.4012 215.542 26.3618C215.411 26.3225 215.24 26.3094 215.03 26.3225C214.44 26.3225 213.921 26.5456 213.475 26.9917C213.121 27.346 212.898 27.7069 212.806 28.0743C212.714 28.4417 212.662 28.9862 212.649 29.708V30.9677V32.1487C212.649 32.5423 212.655 32.8048 212.668 32.936C212.681 33.0672 212.701 33.1525 212.727 33.1918C212.754 33.2312 212.813 33.2706 212.905 33.3099C213.18 33.3493 213.502 33.369 213.869 33.369H214.184V34.2744H214.026L213.554 34.2547C213.252 34.2416 212.924 34.235 212.57 34.235C212.216 34.235 211.966 34.2285 211.822 34.2154C210.47 34.2154 209.736 34.235 209.617 34.2744H209.46V33.369H209.775C210.575 33.369 210.976 33.264 210.976 33.0541C210.989 33.0278 210.995 32.1224 210.995 30.3378C210.982 28.5663 210.969 27.6281 210.956 27.5231C210.877 27.1557 210.746 26.8802 210.562 26.6965C210.379 26.5128 210.221 26.4012 210.09 26.3618C209.959 26.3225 209.788 26.3094 209.578 26.3225C208.988 26.3225 208.469 26.5456 208.023 26.9917C207.669 27.346 207.446 27.7069 207.354 28.0743C207.262 28.4417 207.21 28.9862 207.196 29.708V30.9677V32.1487C207.196 32.5423 207.203 32.8048 207.216 32.936C207.229 33.0672 207.249 33.1525 207.275 33.1918C207.301 33.2312 207.36 33.2706 207.452 33.3099C207.728 33.3493 208.049 33.369 208.417 33.369H208.732V34.2744H208.574L208.122 34.2547C207.807 34.2416 207.472 34.235 207.118 34.235C206.763 34.235 206.514 34.2285 206.37 34.2154C205.018 34.2154 204.283 34.235 204.165 34.2744H204.008V33.369H204.323Z" fill="#202020"/>
<path d="M220.463 29.9828C220.463 29.2611 220.594 28.605 220.856 28.0145C221.119 27.424 221.447 26.9451 221.841 26.5777C222.234 26.2103 222.661 25.9347 223.12 25.751C223.579 25.5673 224.012 25.4689 224.419 25.4557C225.115 25.4557 225.712 25.5738 226.21 25.81C226.709 26.0462 227.089 26.3743 227.352 26.7942C227.614 27.2141 227.798 27.634 227.903 28.0539C228.008 28.4738 228.067 28.9396 228.08 29.4514C228.08 29.5432 228.034 29.6351 227.942 29.7269H222.392V30.0222C222.392 31.9642 223.048 33.1452 224.36 33.5651C224.622 33.6439 224.911 33.6832 225.226 33.6832C225.777 33.6832 226.25 33.4733 226.643 33.0534C226.866 32.8303 227.043 32.5547 227.175 32.2267L227.372 31.7543C227.411 31.7149 227.516 31.6952 227.686 31.6952H227.746C227.969 31.6952 228.08 31.7609 228.08 31.8921C228.08 31.9446 228.06 32.0299 228.021 32.148C227.772 32.8697 227.358 33.4405 226.781 33.8604C226.204 34.2803 225.554 34.4902 224.832 34.4902C223.586 34.4902 222.549 34.0375 221.723 33.1321C220.896 32.2267 220.476 31.1769 220.463 29.9828ZM226.466 28.8609C226.322 27.1813 225.698 26.289 224.596 26.184H224.557C224.452 26.184 224.347 26.1906 224.242 26.2037C224.137 26.2168 223.973 26.2693 223.75 26.3612C223.527 26.453 223.337 26.5908 223.179 26.7745C223.022 26.9582 222.871 27.2272 222.726 27.5815C222.582 27.9358 222.477 28.3688 222.411 28.8806V29.0184H226.466V28.8609Z" fill="#202020"/>
<path d="M240.225 25.7903C240.303 25.8166 240.854 25.8297 241.878 25.8297C242.626 25.8297 243.157 25.8166 243.472 25.7903H243.571V26.6958H243.354C242.593 26.7483 242.108 27.0107 241.898 27.4831C241.871 27.5356 241.432 28.6706 240.579 30.8882C239.726 33.1059 239.28 34.2475 239.24 34.3131C239.175 34.4312 239.011 34.4902 238.748 34.4902C238.499 34.4902 238.342 34.4312 238.276 34.3131C236.439 29.576 235.514 27.1747 235.501 27.1091C235.435 26.9254 235.33 26.8139 235.186 26.7745C235.041 26.7351 234.785 26.7089 234.418 26.6958H233.946V25.7903H234.064L234.221 25.81C234.326 25.81 234.457 25.81 234.615 25.81C234.772 25.81 234.943 25.81 235.127 25.81C235.31 25.81 235.474 25.8166 235.619 25.8297C235.763 25.8428 235.881 25.8494 235.973 25.8494C237.22 25.8494 237.941 25.8297 238.138 25.7903H238.296V26.6958H238.02C237.508 26.7089 237.233 26.8073 237.193 26.991C237.193 27.0435 237.528 27.9358 238.197 29.6679L239.201 32.2661L240.992 27.5618V27.4044C240.992 27.2206 240.927 27.0697 240.795 26.9516C240.664 26.8335 240.546 26.7614 240.441 26.7351C240.336 26.7089 240.244 26.6958 240.165 26.6958H240.087V25.7903H240.225Z" fill="#202020"/>
<path d="M244.515 29.9828C244.515 29.2611 244.647 28.605 244.909 28.0145C245.172 27.424 245.5 26.9451 245.893 26.5777C246.287 26.2103 246.713 25.9347 247.173 25.751C247.632 25.5673 248.065 25.4689 248.472 25.4557C249.167 25.4557 249.764 25.5738 250.263 25.81C250.761 26.0462 251.142 26.3743 251.404 26.7942C251.667 27.2141 251.851 27.634 251.956 28.0539C252.061 28.4738 252.12 28.9396 252.133 29.4514C252.133 29.5432 252.087 29.6351 251.995 29.7269H246.444V30.0222C246.444 31.9642 247.1 33.1452 248.413 33.5651C248.675 33.6439 248.964 33.6832 249.279 33.6832C249.83 33.6832 250.302 33.4733 250.696 33.0534C250.919 32.8303 251.096 32.5547 251.227 32.2267L251.424 31.7543C251.464 31.7149 251.569 31.6952 251.739 31.6952H251.798C252.021 31.6952 252.133 31.7609 252.133 31.8921C252.133 31.9446 252.113 32.0299 252.074 32.148C251.824 32.8697 251.411 33.4405 250.834 33.8604C250.256 34.2803 249.607 34.4902 248.885 34.4902C247.638 34.4902 246.602 34.0375 245.775 33.1321C244.948 32.2267 244.529 31.1769 244.515 29.9828ZM250.519 28.8609C250.374 27.1813 249.751 26.289 248.649 26.184H248.609C248.505 26.184 248.4 26.1906 248.295 26.2037C248.19 26.2168 248.026 26.2693 247.802 26.3612C247.579 26.453 247.389 26.5908 247.232 26.7745C247.074 26.9582 246.923 27.2272 246.779 27.5815C246.635 27.9358 246.53 28.3688 246.464 28.8806V29.0184H250.519V28.8609Z" fill="#202020"/>
<path d="M259.986 28.271C259.986 28.271 259.848 28.271 259.573 28.271C259.297 28.271 259.061 28.1726 258.864 27.9758C258.667 27.779 258.563 27.5297 258.549 27.2278C258.549 26.926 258.648 26.6767 258.845 26.4799C258.91 26.4143 258.943 26.3749 258.943 26.3618C258.943 26.3487 258.877 26.3356 258.746 26.3224C258.405 26.2699 258.084 26.2437 257.782 26.2437C257.139 26.2437 256.614 26.4537 256.207 26.8736C255.59 27.4903 255.282 28.5204 255.282 29.9638C255.282 31.0398 255.485 31.8862 255.892 32.5029C256.43 33.3033 257.152 33.7036 258.057 33.7036C258.595 33.7036 259.028 33.533 259.356 33.1918C259.684 32.8506 259.921 32.4438 260.065 31.9715C260.091 31.8665 260.124 31.8009 260.163 31.7746C260.203 31.7484 260.308 31.7353 260.478 31.7353H260.754C260.833 31.814 260.872 31.873 260.872 31.9124C260.872 31.9649 260.846 32.0699 260.793 32.2273C260.741 32.3848 260.636 32.6013 260.478 32.8769C260.321 33.1524 260.131 33.4017 259.908 33.6248C259.684 33.8479 259.37 34.0513 258.963 34.235C258.556 34.4187 258.103 34.504 257.605 34.4909C256.476 34.4909 255.492 34.071 254.652 33.2312C253.812 32.3914 253.386 31.335 253.373 30.0622C253.373 28.6975 253.799 27.5887 254.652 26.7358C255.505 25.8828 256.496 25.4564 257.624 25.4564C258.753 25.4564 259.54 25.6335 259.986 25.9878C260.432 26.3421 260.655 26.762 260.655 27.2475C260.655 27.5493 260.544 27.7921 260.321 27.9758L259.986 28.271Z" fill="#202020"/>
<path d="M261.974 25.9676C262.67 25.9152 263.208 25.5477 263.588 24.8654C263.969 24.1831 264.179 23.3826 264.218 22.4641V22.1688H265.005V25.7905H267.663V26.6959H265.005V29.5303C265.019 31.1705 265.025 32.0956 265.025 32.3056C265.025 32.5155 265.071 32.7255 265.163 32.9354C265.347 33.4472 265.668 33.7031 266.127 33.7031C266.705 33.7031 267.059 33.2372 267.19 32.3056C267.203 32.2006 267.21 31.8988 267.21 31.4002V30.7113H267.997V31.4002V31.6364C267.997 32.6467 267.722 33.4144 267.171 33.9393C266.816 34.2936 266.357 34.4707 265.793 34.4707C265.347 34.4707 264.959 34.392 264.631 34.2345C264.303 34.077 264.054 33.8737 263.883 33.6243C263.713 33.375 263.588 33.1454 263.51 32.9354C263.431 32.7255 263.385 32.5155 263.372 32.3056C263.359 32.2137 263.352 31.2427 263.352 29.3925V26.6959H261.797V25.9676H261.974Z" fill="#202020"/>
<path d="M269.651 30.0617C269.651 28.8151 270.077 27.7391 270.93 26.8337C271.783 25.9283 272.813 25.469 274.02 25.4559C275.201 25.4559 276.218 25.902 277.071 26.7943C277.924 27.6866 278.357 28.7692 278.37 30.042C278.37 31.2886 277.95 32.3384 277.11 33.1913C276.271 34.0442 275.241 34.4707 274.02 34.4707C272.747 34.4707 271.704 34.0311 270.891 33.1519C270.077 32.2728 269.664 31.2427 269.651 30.0617ZM274.02 33.6834C275.621 33.6834 276.422 32.6139 276.422 30.4751V29.8452V29.3531C276.422 29.0644 276.415 28.8151 276.402 28.6052C276.389 28.3952 276.343 28.1459 276.264 27.8572C276.185 27.5685 276.08 27.3323 275.949 27.1486C275.818 26.9649 275.615 26.7812 275.339 26.5975C275.063 26.4138 274.742 26.2826 274.375 26.2038C274.309 26.1907 274.204 26.1842 274.06 26.1842C273.666 26.1842 273.292 26.2629 272.938 26.4204C272.373 26.709 272.006 27.1093 271.835 27.621C271.665 28.1328 271.58 28.7364 271.58 29.4319V29.8255C271.58 31.0852 271.704 31.971 271.954 32.4827C272.373 33.2832 273.062 33.6834 274.02 33.6834Z" fill="#202020"/>
<path d="M279.65 33.369H279.925C280.437 33.369 280.745 33.2771 280.85 33.0934V32.936C280.85 32.8179 280.85 32.667 280.85 32.4833C280.85 32.2996 280.857 32.0962 280.87 31.8731C280.883 31.65 280.883 31.3941 280.87 31.1055C280.857 30.8168 280.857 30.5412 280.87 30.2788C280.87 29.872 280.87 29.439 280.87 28.9797C280.87 28.5204 280.87 28.1333 280.87 27.8184L280.85 27.3657C280.811 27.1164 280.719 26.9523 280.575 26.8736C280.43 26.7949 280.135 26.7358 279.689 26.6965H279.335V26.2438C279.335 25.9419 279.348 25.791 279.374 25.791L279.571 25.7714C279.702 25.7582 279.886 25.7451 280.122 25.732C280.358 25.7189 280.594 25.7057 280.831 25.6926C281.041 25.6795 281.27 25.6664 281.519 25.6533C281.769 25.6401 281.959 25.6205 282.09 25.5942C282.221 25.568 282.294 25.5614 282.307 25.5745H282.366V26.9327C282.878 26.0404 283.514 25.5942 284.275 25.5942H284.393C284.984 25.5942 285.417 25.7386 285.692 26.0272C285.968 26.3159 286.106 26.6177 286.106 26.9327C286.106 27.2082 286.02 27.4444 285.85 27.6412C285.679 27.8381 285.43 27.9365 285.102 27.9365C284.774 27.9365 284.531 27.8315 284.373 27.6216C284.216 27.4116 284.131 27.1885 284.118 26.9523C284.118 26.8342 284.131 26.7293 284.157 26.6374C284.183 26.5456 284.216 26.4668 284.255 26.4012C284.295 26.3356 284.314 26.3028 284.314 26.3028C284.288 26.2766 284.137 26.3028 283.862 26.3815C283.652 26.4865 283.494 26.5849 283.389 26.6768C282.773 27.2673 282.464 28.4417 282.464 30.2V31.2432C282.464 31.4138 282.464 31.591 282.464 31.7747C282.464 31.9584 282.464 32.129 282.464 32.2864C282.464 32.4439 282.471 32.5751 282.484 32.6801C282.497 32.7851 282.497 32.8835 282.484 32.9753V33.0738C282.497 33.1 282.517 33.1262 282.543 33.1525C282.569 33.1787 282.602 33.1984 282.641 33.2115C282.681 33.2247 282.714 33.2443 282.74 33.2706C282.766 33.2968 282.812 33.3099 282.878 33.3099C282.943 33.3099 282.989 33.3165 283.015 33.3296C283.042 33.3428 283.101 33.3493 283.193 33.3493C283.284 33.3493 283.343 33.3493 283.37 33.3493C283.396 33.3493 283.462 33.3559 283.566 33.369C283.671 33.3821 283.737 33.3821 283.763 33.369H284.373V34.2744H284.196C283.96 34.235 283.127 34.2154 281.697 34.2154C280.345 34.2154 279.61 34.235 279.492 34.2744H279.335V33.369H279.65Z" fill="#202020"/>
<path d="M292.936 22.2875C292.936 21.9201 293.054 21.6314 293.29 21.4214C293.526 21.2115 293.815 21.1065 294.156 21.1065C294.458 21.1327 294.72 21.2443 294.943 21.4411C295.166 21.6379 295.278 21.9201 295.278 22.2875C295.278 22.6811 295.166 22.9764 294.943 23.1732C294.72 23.37 294.445 23.4684 294.117 23.4684C293.789 23.4684 293.513 23.37 293.29 23.1732C293.067 22.9764 292.949 22.6811 292.936 22.2875ZM296.439 34.2744C296.242 34.235 295.56 34.2154 294.392 34.2154C294.248 34.2154 294.005 34.2154 293.664 34.2154C293.323 34.2154 292.995 34.2285 292.68 34.2547L292.247 34.2744H292.089V33.369H292.404C292.772 33.369 293.093 33.3493 293.369 33.3099C293.487 33.2575 293.559 33.1853 293.585 33.0934C293.611 33.0016 293.625 32.726 293.625 32.2667V30.2394V28.5073C293.625 27.825 293.611 27.3919 293.585 27.2082C293.559 27.0245 293.467 26.8999 293.31 26.8342C293.126 26.7424 292.818 26.6965 292.384 26.6965H292.168V26.2438C292.168 25.9419 292.181 25.791 292.207 25.791L292.404 25.7714C292.535 25.7582 292.719 25.7451 292.955 25.732C293.191 25.7189 293.428 25.7057 293.664 25.6926C293.887 25.6795 294.123 25.6664 294.372 25.6533C294.622 25.6401 294.812 25.6205 294.943 25.5942C295.074 25.568 295.147 25.5614 295.16 25.5745H295.219V33.0541C295.284 33.1853 295.363 33.264 295.455 33.2903C295.547 33.3165 295.777 33.3428 296.144 33.369H296.597V34.2744H296.439Z" fill="#202020"/>
<path d="M297.856 33.369H298.132C298.644 33.369 298.952 33.2771 299.057 33.0934V32.936C299.057 32.8179 299.057 32.667 299.057 32.4833C299.057 32.2996 299.057 32.0962 299.057 31.8731C299.057 31.65 299.064 31.3941 299.077 31.1055C299.09 30.8168 299.09 30.5412 299.077 30.2788C299.077 29.872 299.077 29.439 299.077 28.9797C299.077 28.5204 299.07 28.1333 299.057 27.8184V27.3657C299.018 27.1164 298.926 26.9523 298.781 26.8736C298.637 26.7949 298.342 26.7358 297.896 26.6965H297.541V26.2438C297.541 25.9419 297.555 25.791 297.581 25.791L297.778 25.7714C297.909 25.7582 298.093 25.7451 298.329 25.732C298.565 25.7189 298.808 25.7057 299.057 25.6926C299.28 25.6795 299.516 25.6664 299.766 25.6533C300.015 25.6401 300.205 25.6205 300.336 25.5942C300.468 25.568 300.54 25.5614 300.553 25.5745H300.612V26.3618C300.612 26.8605 300.619 27.1098 300.632 27.1098C300.645 27.1098 300.678 27.077 300.73 27.0114C300.783 26.9458 300.861 26.8474 300.966 26.7161C301.071 26.5849 301.196 26.4668 301.34 26.3618C301.485 26.2569 301.675 26.1322 301.911 25.9879C302.147 25.8435 302.397 25.7386 302.659 25.6729C302.921 25.6073 303.256 25.5745 303.663 25.5745C305.159 25.627 305.992 26.3684 306.163 27.7987C306.176 27.8906 306.182 28.8025 306.182 30.5346V32.2274C306.182 32.726 306.195 33.0213 306.222 33.1131C306.248 33.205 306.32 33.2706 306.438 33.3099C306.714 33.3493 307.035 33.369 307.403 33.369H307.718V34.2744H307.56L307.088 34.2547C306.786 34.2416 306.458 34.235 306.104 34.235C305.749 34.235 305.5 34.2285 305.356 34.2154C304.004 34.2154 303.269 34.235 303.151 34.2744H302.994V33.369H303.309C304.109 33.369 304.509 33.264 304.509 33.0541C304.522 33.0278 304.529 32.1224 304.529 30.3378C304.516 28.5663 304.503 27.6281 304.49 27.5231C304.411 27.1557 304.28 26.8802 304.096 26.6965C303.912 26.5128 303.755 26.4012 303.623 26.3618C303.492 26.3225 303.322 26.3094 303.112 26.3225C302.521 26.3225 302.003 26.5456 301.557 26.9917C301.202 27.346 300.979 27.7069 300.888 28.0743C300.796 28.4417 300.743 28.9862 300.73 29.708V30.9677V32.1487C300.73 32.5423 300.737 32.8048 300.75 32.936C300.763 33.0672 300.783 33.1525 300.809 33.1918C300.835 33.2312 300.894 33.2706 300.986 33.3099C301.262 33.3493 301.583 33.369 301.95 33.369H302.265V34.2744H302.108L301.655 34.2547C301.34 34.2416 301.006 34.235 300.651 34.235C300.297 34.235 300.048 34.2285 299.903 34.2154C298.552 34.2154 297.817 34.235 297.699 34.2744H297.541V33.369H297.856Z" fill="#202020"/>
<path d="M191.47 57.6184C191.47 56.3718 191.896 55.2958 192.749 54.3903C193.602 53.4849 194.632 53.0257 195.839 53.0125C197.02 53.0125 198.037 53.4587 198.89 54.351C199.743 55.2433 200.176 56.3258 200.189 57.5987C200.189 58.8453 199.769 59.895 198.93 60.7479C198.09 61.6009 197.06 62.0273 195.839 62.0273C194.567 62.0273 193.523 61.5878 192.71 60.7086C191.896 59.8294 191.483 58.7993 191.47 57.6184ZM195.839 61.24C197.44 61.24 198.241 60.1706 198.241 58.0317V57.4018V56.9098C198.241 56.6211 198.234 56.3718 198.221 56.1618C198.208 55.9519 198.162 55.7025 198.083 55.4139C198.005 55.1252 197.9 54.889 197.768 54.7053C197.637 54.5216 197.434 54.3379 197.158 54.1541C196.883 53.9704 196.561 53.8392 196.194 53.7605C196.128 53.7474 196.023 53.7408 195.879 53.7408C195.485 53.7408 195.111 53.8195 194.757 53.977C194.193 54.2657 193.825 54.6659 193.655 55.1777C193.484 55.6894 193.399 56.293 193.399 56.9885V57.3822C193.399 58.6419 193.523 59.5276 193.773 60.0394C194.193 60.8398 194.881 61.24 195.839 61.24Z" fill="#202020"/>
<path d="M208.299 60.6887C207.564 61.581 206.731 62.0272 205.799 62.0272H205.661C204.021 62.0272 203.076 61.3777 202.827 60.0786C202.814 59.9867 202.801 59.0879 202.787 57.382C202.774 55.9517 202.768 55.1513 202.768 54.9807C202.768 54.8101 202.728 54.6723 202.65 54.5673C202.518 54.3574 202.125 54.2524 201.469 54.2524H201.252V53.7997C201.252 53.4979 201.265 53.347 201.292 53.347L201.508 53.3273C201.639 53.3142 201.83 53.3011 202.079 53.2879C202.328 53.2748 202.578 53.2617 202.827 53.2486C203.05 53.2355 203.293 53.2223 203.555 53.2092C203.818 53.1961 204.014 53.1764 204.146 53.1502C204.277 53.1239 204.356 53.1174 204.382 53.1305H204.441V56.6931C204.454 59.1075 204.474 60.4001 204.5 60.5707C204.539 60.7675 204.631 60.9249 204.775 61.043C205.038 61.2268 205.432 61.3186 205.956 61.3186C206.298 61.3186 206.606 61.2596 206.882 61.1415C207.157 61.0234 207.367 60.8725 207.511 60.6887C207.656 60.505 207.787 60.2951 207.905 60.0589C208.023 59.8227 208.102 59.6259 208.141 59.4684C208.181 59.3109 208.207 59.1535 208.22 58.996C208.22 58.9829 208.22 58.8714 208.22 58.6614C208.22 58.4514 208.227 58.189 208.24 57.8741C208.253 57.5592 208.253 57.2508 208.24 56.949V55.6302C208.24 55.0266 208.174 54.6526 208.043 54.5083C207.912 54.3639 207.584 54.2787 207.059 54.2524H206.704V53.347C206.731 53.347 207.229 53.3142 208.2 53.2486C209.171 53.183 209.69 53.1436 209.755 53.1305H209.893V56.6341C209.893 58.996 209.9 60.1967 209.913 60.236C209.952 60.4985 210.044 60.6691 210.188 60.7478C210.333 60.8265 210.628 60.8856 211.074 60.9249H211.428V61.8304C211.402 61.8304 210.91 61.8632 209.952 61.9288C208.994 61.9944 208.489 62.0338 208.437 62.0469H208.299V60.6887Z" fill="#202020"/>
<path d="M212.412 60.9247H212.688C213.2 60.9247 213.508 60.8328 213.613 60.6491V60.4916C213.613 60.3735 213.613 60.2226 213.613 60.0389C213.613 59.8552 213.62 59.6518 213.633 59.4288C213.646 59.2057 213.646 58.9498 213.633 58.6611C213.62 58.3724 213.62 58.0969 213.633 57.8344C213.633 57.4276 213.633 56.9946 213.633 56.5354C213.633 56.0761 213.633 55.689 213.633 55.3741L213.613 54.9213C213.574 54.672 213.482 54.508 213.338 54.4293C213.193 54.3505 212.898 54.2915 212.452 54.2521H212.098V53.7994C212.098 53.4976 212.111 53.3467 212.137 53.3467L212.334 53.327C212.465 53.3139 212.649 53.3008 212.885 53.2877C213.121 53.2745 213.357 53.2614 213.593 53.2483C213.803 53.2352 214.033 53.222 214.282 53.2089C214.532 53.1958 214.722 53.1761 214.853 53.1499C214.984 53.1236 215.057 53.1171 215.07 53.1302H215.129V54.4883C215.64 53.596 216.277 53.1499 217.038 53.1499H217.156C217.747 53.1499 218.18 53.2942 218.455 53.5829C218.731 53.8716 218.868 54.1734 218.868 54.4883C218.868 54.7639 218.783 55.0001 218.613 55.1969C218.442 55.3937 218.193 55.4922 217.865 55.4922C217.537 55.4922 217.294 55.3872 217.136 55.1772C216.979 54.9673 216.894 54.7442 216.881 54.508C216.881 54.3899 216.894 54.2849 216.92 54.1931C216.946 54.1012 216.979 54.0225 217.018 53.9569C217.058 53.8913 217.077 53.8585 217.077 53.8585C217.051 53.8322 216.9 53.8585 216.625 53.9372C216.415 54.0422 216.257 54.1406 216.152 54.2324C215.535 54.8229 215.227 55.9974 215.227 57.7557V58.7989C215.227 58.9695 215.227 59.1466 215.227 59.3303C215.227 59.514 215.227 59.6846 215.227 59.8421C215.227 59.9996 215.234 60.1308 215.247 60.2358C215.26 60.3407 215.26 60.4391 215.247 60.531V60.6294C215.26 60.6557 215.28 60.6819 215.306 60.7081C215.332 60.7344 215.365 60.7541 215.404 60.7672C215.444 60.7803 215.476 60.8 215.503 60.8262C215.529 60.8525 215.575 60.8656 215.64 60.8656C215.706 60.8656 215.752 60.8722 215.778 60.8853C215.804 60.8984 215.864 60.905 215.955 60.905C216.047 60.905 216.106 60.905 216.133 60.905C216.159 60.905 216.224 60.9115 216.329 60.9247C216.434 60.9378 216.5 60.9378 216.526 60.9247H217.136V61.8301H216.959C216.723 61.7907 215.89 61.771 214.459 61.771C213.108 61.771 212.373 61.7907 212.255 61.8301H212.098V60.9247H212.412Z" fill="#202020"/>
<path d="M225.167 60.9247H225.443C225.954 60.9247 226.263 60.8328 226.368 60.6491V60.4916C226.368 60.3735 226.368 60.2226 226.368 60.0389C226.368 59.8552 226.368 59.6387 226.368 59.3894C226.368 59.1401 226.374 58.8579 226.387 58.543C226.401 58.2281 226.401 57.9 226.387 57.5589C226.374 57.2177 226.374 56.8568 226.387 56.4763C226.401 56.0958 226.401 55.7218 226.387 55.3544C226.387 54.8689 226.387 54.3571 226.387 53.8191C226.387 53.2811 226.387 52.789 226.387 52.3429C226.387 51.8967 226.387 51.5031 226.387 51.1619C226.387 50.8207 226.381 50.532 226.368 50.2958C226.355 50.0596 226.355 49.9481 226.368 49.9612C226.328 49.7119 226.236 49.5479 226.092 49.4692C225.948 49.3904 225.653 49.3314 225.206 49.292H224.852V48.8393C224.852 48.5375 224.865 48.3866 224.891 48.3866L225.088 48.3669C225.22 48.3538 225.41 48.3407 225.659 48.3275C225.908 48.3144 226.151 48.3013 226.387 48.2882C226.61 48.2751 226.853 48.2619 227.116 48.2488C227.378 48.2357 227.575 48.216 227.706 48.1898C227.837 48.1635 227.91 48.157 227.923 48.1701H227.982V54.3702C227.982 58.5299 227.988 60.6229 228.001 60.6491C228.054 60.7541 228.133 60.8262 228.238 60.8656C228.513 60.905 228.835 60.9247 229.202 60.9247H229.517V61.8301H229.36L228.907 61.8104C228.605 61.7973 228.284 61.7907 227.942 61.7907C227.601 61.7907 227.352 61.7842 227.194 61.771C227.037 61.7579 226.788 61.7579 226.446 61.771C226.105 61.7842 225.777 61.7973 225.462 61.8104L225.01 61.8301H224.852V60.9247H225.167Z" fill="#202020"/>
<path d="M232.509 55.827C232.509 55.827 232.364 55.827 232.076 55.827C231.787 55.827 231.544 55.7286 231.348 55.5318C231.151 55.335 231.052 55.0791 231.052 54.7642C231.052 54.3049 231.275 53.8981 231.721 53.5438C232.168 53.1895 232.962 53.0124 234.103 53.0124C235.061 53.0124 235.835 53.2223 236.426 53.6422C237.016 54.0621 237.41 54.5608 237.607 55.1381C237.672 55.3219 237.705 55.5252 237.705 55.7483C237.705 55.9714 237.712 56.7259 237.725 58.0119V59.3897C237.725 60.0195 237.758 60.4526 237.823 60.6887C237.889 60.9249 238.027 61.043 238.237 61.043C238.433 61.043 238.565 60.9381 238.63 60.7281C238.696 60.5182 238.729 60.1704 238.729 59.6849V58.9763H239.516V59.744C239.503 60.2688 239.483 60.5772 239.457 60.6691C239.339 61.0627 239.109 61.3711 238.768 61.5942C238.427 61.8172 238.066 61.9353 237.685 61.9485C237.305 61.9616 236.997 61.8435 236.76 61.5942C236.524 61.3448 236.367 61.0693 236.288 60.7675V60.6887L236.249 60.7478C236.222 60.7872 236.19 60.8265 236.15 60.8659C236.111 60.9053 236.058 60.9643 235.993 61.043C235.927 61.1218 235.848 61.1939 235.757 61.2596C235.665 61.3252 235.566 61.4039 235.461 61.4958C235.356 61.5876 235.238 61.6598 235.107 61.7123C234.976 61.7648 234.831 61.8172 234.674 61.8697C234.516 61.9222 234.346 61.9616 234.162 61.9878C233.978 62.0141 233.775 62.0338 233.552 62.0469C232.765 62.0469 232.056 61.8435 231.426 61.4367C230.796 61.0299 230.481 60.4591 230.481 59.7243C230.481 59.4487 230.527 59.1863 230.619 58.937C230.711 58.6876 230.888 58.4186 231.151 58.13C231.413 57.8413 231.728 57.5985 232.095 57.4017C232.463 57.2049 232.975 57.0212 233.631 56.8506C234.287 56.68 235.009 56.5816 235.796 56.5553H236.071V56.1223C236.071 55.6761 236.032 55.3481 235.953 55.1381C235.665 54.2065 235.028 53.7407 234.044 53.7407C233.808 53.7407 233.585 53.7472 233.375 53.7603C233.165 53.7735 233.001 53.7997 232.883 53.8391C232.765 53.8784 232.712 53.8981 232.725 53.8981C233.014 54.0949 233.158 54.3836 233.158 54.7642C233.158 55.0922 233.053 55.3481 232.843 55.5318L232.509 55.827ZM232.292 59.744C232.292 60.1507 232.45 60.5116 232.765 60.8265C233.08 61.1415 233.467 61.3055 233.926 61.3186C234.425 61.3186 234.864 61.1677 235.245 60.8659C235.625 60.5641 235.881 60.1704 236.012 59.6849C236.039 59.5931 236.058 59.16 236.071 58.3858C236.071 57.6248 236.065 57.2442 236.052 57.2442C235.947 57.2442 235.809 57.2508 235.638 57.2639C235.468 57.277 235.173 57.3361 234.753 57.4411C234.333 57.546 233.952 57.6772 233.611 57.8347C233.27 57.9922 232.968 58.2349 232.706 58.563C232.443 58.891 232.305 59.2847 232.292 59.744Z" fill="#202020"/>
<path d="M240.461 60.9247H240.736C241.248 60.9247 241.556 60.8328 241.661 60.6491V60.4916C241.661 60.3735 241.661 60.2226 241.661 60.0389C241.661 59.8552 241.661 59.6518 241.661 59.4288C241.661 59.2057 241.668 58.9498 241.681 58.6611C241.694 58.3724 241.694 58.0969 241.681 57.8344C241.681 57.4276 241.681 56.9946 241.681 56.5354C241.681 56.0761 241.675 55.689 241.661 55.3741V54.9213C241.622 54.672 241.53 54.508 241.386 54.4293C241.241 54.3505 240.946 54.2915 240.5 54.2521H240.146V53.7994C240.146 53.4976 240.159 53.3467 240.185 53.3467L240.382 53.327C240.513 53.3139 240.697 53.3008 240.933 53.2877C241.169 53.2745 241.412 53.2614 241.661 53.2483C241.884 53.2352 242.121 53.222 242.37 53.2089C242.619 53.1958 242.81 53.1761 242.941 53.1499C243.072 53.1236 243.144 53.1171 243.157 53.1302H243.216V53.9175C243.216 54.4161 243.223 54.6655 243.236 54.6655C243.249 54.6655 243.282 54.6327 243.334 54.5671C243.387 54.5014 243.466 54.403 243.571 54.2718C243.676 54.1406 243.8 54.0225 243.945 53.9175C244.089 53.8125 244.279 53.6879 244.515 53.5435C244.752 53.3992 245.001 53.2942 245.263 53.2286C245.526 53.163 245.86 53.1302 246.267 53.1302C247.763 53.1827 248.596 53.9241 248.767 55.3544C248.78 55.4462 248.787 56.3582 248.787 58.0903V59.783C248.787 60.2817 248.8 60.5769 248.826 60.6688C248.852 60.7606 248.924 60.8262 249.043 60.8656C249.318 60.905 249.64 60.9247 250.007 60.9247H250.322V61.8301H250.164L249.692 61.8104C249.39 61.7973 249.062 61.7907 248.708 61.7907C248.354 61.7907 248.104 61.7842 247.96 61.771C246.608 61.771 245.874 61.7907 245.755 61.8301H245.598V60.9247H245.913C246.713 60.9247 247.114 60.8197 247.114 60.6097C247.127 60.5835 247.133 59.6781 247.133 57.8935C247.12 56.122 247.107 55.1838 247.094 55.0788C247.015 54.7114 246.884 54.4358 246.7 54.2521C246.517 54.0684 246.359 53.9569 246.228 53.9175C246.097 53.8781 245.926 53.865 245.716 53.8781C245.126 53.8781 244.607 54.1012 244.161 54.5474C243.807 54.9017 243.584 55.2625 243.492 55.6299C243.4 55.9974 243.348 56.5419 243.334 57.2636V58.5233V59.7043C243.334 60.098 243.341 60.3604 243.354 60.4916C243.367 60.6229 243.387 60.7081 243.413 60.7475C243.439 60.7869 243.498 60.8262 243.59 60.8656C243.866 60.905 244.187 60.9247 244.555 60.9247H244.87V61.8301H244.712L244.26 61.8104C243.945 61.7973 243.61 61.7907 243.256 61.7907C242.901 61.7907 242.652 61.7842 242.508 61.771C241.156 61.771 240.421 61.7907 240.303 61.8301H240.146V60.9247H240.461Z" fill="#202020"/>
<path d="M257.073 53.7797C257.651 53.2024 258.307 52.9137 259.041 52.9137C259.435 52.9137 259.717 53.0383 259.888 53.2876C260.058 53.537 260.144 53.7863 260.144 54.0356C260.144 54.2193 260.085 54.3833 259.967 54.5277C259.848 54.672 259.671 54.7442 259.435 54.7442C259.002 54.7442 258.759 54.5474 258.707 54.1537C258.681 53.97 258.7 53.8322 258.766 53.7404C258.766 53.7272 258.772 53.7076 258.786 53.6813V53.6616C258.418 53.701 258.07 53.8453 257.742 54.0946C257.637 54.1603 257.585 54.2062 257.585 54.2324C257.585 54.2456 257.611 54.2784 257.664 54.3308C257.716 54.3833 257.775 54.4621 257.841 54.567C257.906 54.672 257.979 54.7901 258.057 54.9213C258.136 55.0526 258.195 55.2231 258.234 55.4331C258.274 55.643 258.3 55.8596 258.313 56.0826C258.313 56.8962 257.992 57.5851 257.349 58.1493C256.706 58.7136 255.912 59.0023 254.967 59.0154C254.311 59.0154 253.661 58.8317 253.018 58.4643C252.874 58.7005 252.802 58.9498 252.802 59.2122C252.802 59.6715 252.973 60.0127 253.314 60.2357C253.432 60.3145 253.543 60.3538 253.648 60.3538C253.753 60.3538 254.226 60.367 255.066 60.3932C256.168 60.4063 256.876 60.4457 257.191 60.5113C257.992 60.6294 258.622 60.8984 259.081 61.3183C259.593 61.8301 259.848 62.473 259.848 63.2472C259.848 64.1264 259.337 64.8022 258.313 65.2746C257.526 65.6814 256.594 65.8848 255.518 65.8848C254.429 65.8848 253.491 65.6814 252.704 65.2746C251.68 64.8153 251.168 64.1592 251.168 63.3063C251.168 62.8339 251.306 62.4402 251.582 62.1253C251.857 61.8104 252.133 61.5939 252.408 61.4758L252.625 61.3577C252.152 60.9509 251.916 60.3998 251.916 59.7043C251.916 59.0876 252.107 58.5299 252.487 58.0312C251.91 57.4539 251.621 56.8043 251.621 56.0826C251.621 55.2559 251.949 54.5605 252.605 53.9962C253.261 53.432 254.055 53.1433 254.987 53.1302C255.656 53.1302 256.279 53.3008 256.857 53.6419L257.073 53.7797ZM256.483 55.0788C256.417 54.7114 256.247 54.4227 255.971 54.2127C255.695 54.0028 255.354 53.8913 254.947 53.8781C254.567 53.8781 254.239 53.9831 253.963 54.1931C253.688 54.403 253.517 54.6983 253.452 55.0788C253.412 55.3019 253.392 55.6365 253.392 56.0826C253.392 56.66 253.438 57.0865 253.53 57.362C253.622 57.6376 253.819 57.8672 254.121 58.0509C254.344 58.1822 254.626 58.2478 254.967 58.2478C255.256 58.2478 255.505 58.2018 255.715 58.11C255.925 58.0181 256.076 57.9 256.168 57.7557C256.26 57.6113 256.332 57.4801 256.384 57.362C256.437 57.2439 256.47 57.1455 256.483 57.0668C256.522 56.8568 256.542 56.5288 256.542 56.0826C256.542 55.6365 256.522 55.3019 256.483 55.0788ZM258.53 63.3063C258.53 62.9782 258.438 62.7092 258.254 62.4993C258.07 62.2893 257.801 62.1384 257.447 62.0466C257.093 61.9547 256.771 61.8957 256.483 61.8694C256.194 61.8432 255.84 61.8301 255.42 61.8301H254.888C254.009 61.8301 253.484 61.8694 253.314 61.9482C253.051 62.0663 252.848 62.25 252.704 62.4993C252.559 62.7486 252.48 63.011 252.467 63.2866C252.467 63.4178 252.507 63.5687 252.585 63.7393C252.664 63.9099 252.802 64.1067 252.999 64.3298C253.196 64.5529 253.511 64.7366 253.944 64.8809C254.377 65.0253 254.901 65.104 255.518 65.1171C256.424 65.1171 257.152 64.9334 257.703 64.566C258.254 64.1986 258.53 63.7787 258.53 63.3063Z" fill="#202020"/>
<path d="M267.978 60.6887C267.243 61.581 266.409 62.0272 265.478 62.0272H265.34C263.7 62.0272 262.755 61.3777 262.506 60.0786C262.493 59.9867 262.479 59.0879 262.466 57.382C262.453 55.9517 262.447 55.1513 262.447 54.9807C262.447 54.8101 262.407 54.6723 262.329 54.5673C262.197 54.3574 261.804 54.2524 261.148 54.2524H260.931V53.7997C260.931 53.4979 260.944 53.347 260.97 53.347L261.187 53.3273C261.318 53.3142 261.508 53.3011 261.758 53.2879C262.007 53.2748 262.256 53.2617 262.506 53.2486C262.729 53.2355 262.972 53.2223 263.234 53.2092C263.496 53.1961 263.693 53.1764 263.824 53.1502C263.956 53.1239 264.034 53.1174 264.061 53.1305H264.12V56.6931C264.133 59.1075 264.153 60.4001 264.179 60.5707C264.218 60.7675 264.31 60.9249 264.454 61.043C264.717 61.2268 265.11 61.3186 265.635 61.3186C265.976 61.3186 266.285 61.2596 266.56 61.1415C266.836 61.0234 267.046 60.8725 267.19 60.6887C267.335 60.505 267.466 60.2951 267.584 60.0589C267.702 59.8227 267.781 59.6259 267.82 59.4684C267.859 59.3109 267.886 59.1535 267.899 58.996C267.899 58.9829 267.899 58.8714 267.899 58.6614C267.899 58.4514 267.905 58.189 267.919 57.8741C267.932 57.5592 267.932 57.2508 267.919 56.949V55.6302C267.919 55.0266 267.853 54.6526 267.722 54.5083C267.59 54.3639 267.262 54.2787 266.738 54.2524H266.383V53.347C266.409 53.347 266.908 53.3142 267.879 53.2486C268.85 53.183 269.369 53.1436 269.434 53.1305H269.572V56.6341C269.572 58.996 269.578 60.1967 269.592 60.236C269.631 60.4985 269.723 60.6691 269.867 60.7478C270.011 60.8265 270.307 60.8856 270.753 60.9249H271.107V61.8304C271.081 61.8304 270.589 61.8632 269.631 61.9288C268.673 61.9944 268.168 62.0338 268.115 62.0469H267.978V60.6887Z" fill="#202020"/>
<path d="M274.079 55.827C274.079 55.827 273.935 55.827 273.646 55.827C273.358 55.827 273.115 55.7286 272.918 55.5318C272.721 55.335 272.623 55.0791 272.623 54.7642C272.623 54.3049 272.846 53.8981 273.292 53.5438C273.738 53.1895 274.532 53.0124 275.674 53.0124C276.632 53.0124 277.406 53.2223 277.996 53.6422C278.587 54.0621 278.98 54.5608 279.177 55.1381C279.243 55.3219 279.276 55.5252 279.276 55.7483C279.276 55.9714 279.282 56.7259 279.295 58.0119V59.3897C279.295 60.0195 279.328 60.4526 279.394 60.6887C279.459 60.9249 279.597 61.043 279.807 61.043C280.004 61.043 280.135 60.9381 280.201 60.7281C280.266 60.5182 280.299 60.1704 280.299 59.6849V58.9763H281.086V59.744C281.073 60.2688 281.054 60.5772 281.027 60.6691C280.909 61.0627 280.68 61.3711 280.338 61.5942C279.997 61.8172 279.636 61.9353 279.256 61.9485C278.875 61.9616 278.567 61.8435 278.331 61.5942C278.095 61.3448 277.937 61.0693 277.858 60.7675V60.6887L277.819 60.7478C277.793 60.7872 277.76 60.8265 277.721 60.8659C277.681 60.9053 277.629 60.9643 277.563 61.043C277.498 61.1218 277.419 61.1939 277.327 61.2596C277.235 61.3252 277.137 61.4039 277.032 61.4958C276.927 61.5876 276.809 61.6598 276.677 61.7123C276.546 61.7648 276.402 61.8172 276.244 61.8697C276.087 61.9222 275.916 61.9616 275.733 61.9878C275.549 62.0141 275.346 62.0338 275.122 62.0469C274.335 62.0469 273.627 61.8435 272.997 61.4367C272.367 61.0299 272.052 60.4591 272.052 59.7243C272.052 59.4487 272.098 59.1863 272.19 58.937C272.282 58.6876 272.459 58.4186 272.721 58.13C272.984 57.8413 273.299 57.5985 273.666 57.4017C274.033 57.2049 274.545 57.0212 275.201 56.8506C275.857 56.68 276.579 56.5816 277.366 56.5553H277.642V56.1223C277.642 55.6761 277.603 55.3481 277.524 55.1381C277.235 54.2065 276.599 53.7407 275.615 53.7407C275.378 53.7407 275.155 53.7472 274.945 53.7603C274.735 53.7735 274.571 53.7997 274.453 53.8391C274.335 53.8784 274.283 53.8981 274.296 53.8981C274.584 54.0949 274.729 54.3836 274.729 54.7642C274.729 55.0922 274.624 55.3481 274.414 55.5318L274.079 55.827ZM273.863 59.744C273.863 60.1507 274.02 60.5116 274.335 60.8265C274.65 61.1415 275.037 61.3055 275.496 61.3186C275.995 61.3186 276.435 61.1677 276.815 60.8659C277.196 60.5641 277.452 60.1704 277.583 59.6849C277.609 59.5931 277.629 59.16 277.642 58.3858C277.642 57.6248 277.635 57.2442 277.622 57.2442C277.517 57.2442 277.379 57.2508 277.209 57.2639C277.038 57.277 276.743 57.3361 276.323 57.4411C275.903 57.546 275.523 57.6772 275.182 57.8347C274.84 57.9922 274.539 58.2349 274.276 58.563C274.014 58.891 273.876 59.2847 273.863 59.744Z" fill="#202020"/>
<path d="M287.7 53.7797C288.277 53.2024 288.933 52.9137 289.668 52.9137C290.062 52.9137 290.344 53.0383 290.515 53.2876C290.685 53.537 290.77 53.7863 290.77 54.0356C290.77 54.2193 290.711 54.3833 290.593 54.5277C290.475 54.672 290.298 54.7442 290.062 54.7442C289.629 54.7442 289.386 54.5474 289.334 54.1537C289.307 53.97 289.327 53.8322 289.393 53.7404C289.393 53.7272 289.399 53.7076 289.412 53.6813V53.6616C289.045 53.701 288.697 53.8453 288.369 54.0946C288.264 54.1603 288.212 54.2062 288.212 54.2324C288.212 54.2456 288.238 54.2784 288.29 54.3308C288.343 54.3833 288.402 54.4621 288.468 54.567C288.533 54.672 288.605 54.7901 288.684 54.9213C288.763 55.0526 288.822 55.2231 288.861 55.4331C288.901 55.643 288.927 55.8596 288.94 56.0826C288.94 56.8962 288.618 57.5851 287.975 58.1493C287.333 58.7136 286.539 59.0023 285.594 59.0154C284.938 59.0154 284.288 58.8317 283.645 58.4643C283.501 58.7005 283.429 58.9498 283.429 59.2122C283.429 59.6715 283.599 60.0127 283.94 60.2357C284.059 60.3145 284.17 60.3538 284.275 60.3538C284.38 60.3538 284.852 60.367 285.692 60.3932C286.795 60.4063 287.503 60.4457 287.818 60.5113C288.618 60.6294 289.248 60.8984 289.708 61.3183C290.219 61.8301 290.475 62.473 290.475 63.2472C290.475 64.1264 289.963 64.8022 288.94 65.2746C288.153 65.6814 287.221 65.8848 286.145 65.8848C285.056 65.8848 284.118 65.6814 283.33 65.2746C282.307 64.8153 281.795 64.1592 281.795 63.3063C281.795 62.8339 281.933 62.4402 282.208 62.1253C282.484 61.8104 282.76 61.5939 283.035 61.4758L283.252 61.3577C282.779 60.9509 282.543 60.3998 282.543 59.7043C282.543 59.0876 282.733 58.5299 283.114 58.0312C282.536 57.4539 282.248 56.8043 282.248 56.0826C282.248 55.2559 282.576 54.5605 283.232 53.9962C283.888 53.432 284.682 53.1433 285.614 53.1302C286.283 53.1302 286.906 53.3008 287.483 53.6419L287.7 53.7797ZM287.109 55.0788C287.044 54.7114 286.873 54.4227 286.598 54.2127C286.322 54.0028 285.981 53.8913 285.574 53.8781C285.194 53.8781 284.866 53.9831 284.59 54.1931C284.314 54.403 284.144 54.6983 284.078 55.0788C284.039 55.3019 284.019 55.6365 284.019 56.0826C284.019 56.66 284.065 57.0865 284.157 57.362C284.249 57.6376 284.446 57.8672 284.747 58.0509C284.971 58.1822 285.253 58.2478 285.594 58.2478C285.883 58.2478 286.132 58.2018 286.342 58.11C286.552 58.0181 286.703 57.9 286.795 57.7557C286.886 57.6113 286.959 57.4801 287.011 57.362C287.064 57.2439 287.096 57.1455 287.109 57.0668C287.149 56.8568 287.168 56.5288 287.168 56.0826C287.168 55.6365 287.149 55.3019 287.109 55.0788ZM289.156 63.3063C289.156 62.9782 289.065 62.7092 288.881 62.4993C288.697 62.2893 288.428 62.1384 288.074 62.0466C287.72 61.9547 287.398 61.8957 287.109 61.8694C286.821 61.8432 286.466 61.8301 286.047 61.8301H285.515C284.636 61.8301 284.111 61.8694 283.94 61.9482C283.678 62.0663 283.475 62.25 283.33 62.4993C283.186 62.7486 283.107 63.011 283.094 63.2866C283.094 63.4178 283.133 63.5687 283.212 63.7393C283.291 63.9099 283.429 64.1067 283.626 64.3298C283.822 64.5529 284.137 64.7366 284.57 64.8809C285.003 65.0253 285.528 65.104 286.145 65.1171C287.05 65.1171 287.779 64.9334 288.33 64.566C288.881 64.1986 289.156 63.7787 289.156 63.3063Z" fill="#202020"/>
<path d="M291.617 57.5395C291.617 56.8178 291.748 56.1617 292.011 55.5712C292.273 54.9807 292.601 54.5017 292.995 54.1343C293.388 53.7669 293.815 53.4913 294.274 53.3076C294.733 53.1239 295.166 53.0255 295.573 53.0124C296.269 53.0124 296.866 53.1305 297.364 53.3667C297.863 53.6029 298.243 53.9309 298.506 54.3508C298.768 54.7707 298.952 55.1906 299.057 55.6105C299.162 56.0304 299.221 56.4963 299.234 57.008C299.234 57.0999 299.188 57.1917 299.096 57.2836H293.546V57.5788C293.546 59.5209 294.202 60.7019 295.514 61.1218C295.777 61.2005 296.065 61.2399 296.38 61.2399C296.931 61.2399 297.404 61.0299 297.797 60.61C298.02 60.3869 298.198 60.1114 298.329 59.7833L298.526 59.3109C298.565 59.2716 298.67 59.2519 298.841 59.2519H298.9C299.123 59.2519 299.234 59.3175 299.234 59.4487C299.234 59.5012 299.214 59.5865 299.175 59.7046C298.926 60.4263 298.512 60.9971 297.935 61.417C297.358 61.8369 296.708 62.0469 295.986 62.0469C294.74 62.0469 293.703 61.5942 292.877 60.6887C292.05 59.7833 291.63 58.7336 291.617 57.5395ZM297.62 56.4175C297.476 54.7379 296.853 53.8456 295.75 53.7407H295.711C295.606 53.7407 295.501 53.7472 295.396 53.7603C295.291 53.7735 295.127 53.8259 294.904 53.9178C294.681 54.0097 294.491 54.1474 294.333 54.3311C294.176 54.5148 294.025 54.7838 293.88 55.1381C293.736 55.4924 293.631 55.9255 293.565 56.4372V56.575H297.62V56.4175Z" fill="#202020"/>
</g>
<path d="M187.425 149.695C187.682 149.695 187.845 149.802 187.919 150.016C187.992 150.229 188.071 150.6 188.155 151.127C188.241 151.654 188.367 152.114 188.537 152.51C189.744 155.374 192.139 156.806 195.718 156.806H211.135C215.689 156.806 218.612 158.794 219.906 162.769C221.197 158.794 223.973 156.806 228.231 156.806H243.987C245.024 156.806 245.809 156.773 246.337 156.707C247.821 156.476 249.102 155.839 250.182 154.793C251.262 153.748 251.908 152.452 252.122 150.904C252.122 150.871 252.133 150.776 252.153 150.621C252.174 150.465 252.195 150.353 252.217 150.288C252.238 150.221 252.271 150.131 252.314 150.016C252.358 149.9 252.436 149.818 252.546 149.769C252.656 149.719 252.776 149.695 252.91 149.695C253.462 149.695 253.071 153.362 251.739 155.285C250.406 157.207 248.472 158.291 245.936 158.535C245.51 158.568 244.881 158.584 244.051 158.584H228.55C227.109 158.584 225.849 158.802 224.768 159.238C223.688 159.675 222.887 160.238 222.368 160.93C221.849 161.621 221.474 162.202 221.241 162.671C221.008 163.14 220.847 163.613 220.765 164.091C220.765 164.19 220.753 164.334 220.732 164.523C220.711 164.712 220.674 164.864 220.621 164.98C220.568 165.095 220.521 165.211 220.478 165.325C220.436 165.441 220.362 165.531 220.255 165.597C220.149 165.662 220.032 165.696 219.906 165.696C219.736 165.696 219.598 165.672 219.492 165.622C219.387 165.572 219.307 165.482 219.254 165.35C219.201 165.219 219.164 165.083 219.143 164.943C219.122 164.804 219.09 164.618 219.048 164.387C219.006 164.156 218.964 163.943 218.921 163.745C218.624 162.527 217.957 161.428 216.92 160.448C215.881 159.469 214.557 158.881 212.947 158.683C212.524 158.617 211.887 158.584 211.04 158.584H196.1C195.249 158.584 194.57 158.555 194.061 158.498C193.554 158.441 192.843 158.221 191.93 157.838C191.017 157.455 190.197 156.897 189.471 156.164C187.058 154.138 187.005 149.695 187.425 149.695Z" fill="#202020"/>
<path d="M290.601 173.694H151.988V221.475H290.601V173.694Z" fill="white"/>
<g clip-path="url(#clip3_1395_17182)">
<path d="M155.985 184.836C155.985 183.708 156.201 182.671 156.634 181.726C157.067 180.782 157.625 180.027 158.307 179.463C158.99 178.899 159.705 178.466 160.453 178.164C161.201 177.862 161.909 177.704 162.578 177.691C162.618 177.691 162.677 177.691 162.756 177.691C162.834 177.691 162.887 177.698 162.913 177.711C164.107 177.711 165.164 178.157 166.082 179.049L166.338 179.286L166.928 178.518C167.283 178.033 167.486 177.764 167.539 177.711C167.552 177.711 167.578 177.711 167.617 177.711C167.657 177.711 167.696 177.704 167.736 177.691H167.814C167.854 177.691 167.913 177.731 167.991 177.809V183.321L167.873 183.439H167.204C167.125 183.36 167.079 183.249 167.066 183.104C166.948 182.028 166.633 181.097 166.121 180.309C165.61 179.522 164.986 179.004 164.252 178.754C164.002 178.662 163.674 178.616 163.267 178.616C161.903 178.616 160.761 179.076 159.842 179.994C158.806 181.031 158.288 182.645 158.288 184.836C158.288 186.424 158.537 187.677 159.035 188.596C159.311 189.121 159.652 189.56 160.059 189.915C160.466 190.269 160.892 190.525 161.338 190.682C161.785 190.84 162.152 190.945 162.441 190.997C162.729 191.05 163.018 191.083 163.307 191.096C164.475 191.096 165.413 190.643 166.121 189.738C166.83 188.832 167.191 187.841 167.204 186.765C167.204 186.674 167.243 186.588 167.322 186.509H167.873L167.991 186.628V186.923C167.926 188.274 167.427 189.455 166.495 190.466C165.564 191.476 164.337 191.981 162.815 191.981C160.964 191.981 159.364 191.299 158.012 189.934C156.66 188.57 155.985 186.87 155.985 184.836Z" fill="#202020"/>
<path d="M169.901 190.663H170.176C170.688 190.663 170.996 190.571 171.101 190.387V190.23C171.101 190.112 171.101 189.961 171.101 189.777C171.101 189.593 171.101 189.377 171.101 189.128C171.101 188.878 171.101 188.596 171.101 188.281C171.101 187.966 171.108 187.638 171.121 187.297C171.134 186.956 171.134 186.595 171.121 186.214C171.108 185.834 171.108 185.46 171.121 185.093C171.121 184.607 171.121 184.095 171.121 183.557C171.121 183.019 171.121 182.527 171.121 182.081C171.121 181.635 171.114 181.241 171.101 180.9C171.088 180.559 171.088 180.27 171.101 180.034C171.114 179.798 171.114 179.686 171.101 179.699C171.062 179.45 170.97 179.286 170.826 179.207C170.681 179.128 170.386 179.069 169.94 179.03H169.586V178.577C169.586 178.276 169.599 178.125 169.625 178.125L169.822 178.105C169.953 178.092 170.143 178.079 170.393 178.066C170.642 178.052 170.885 178.039 171.121 178.026C171.344 178.013 171.587 178 171.849 177.987C172.112 177.974 172.309 177.954 172.44 177.928C172.571 177.902 172.643 177.895 172.656 177.908H172.715V184.345C173.503 183.36 174.448 182.868 175.55 182.868C177.164 182.868 178.05 183.61 178.207 185.093C178.22 185.184 178.227 186.096 178.227 187.829V189.521C178.227 190.02 178.24 190.315 178.266 190.407C178.292 190.499 178.365 190.565 178.483 190.604C178.758 190.643 179.08 190.663 179.447 190.663H179.762V191.568H179.605L179.132 191.549C178.83 191.536 178.502 191.529 178.148 191.529C177.794 191.529 177.544 191.522 177.4 191.509C176.048 191.509 175.314 191.529 175.195 191.568H175.038V190.663H175.353C176.153 190.663 176.554 190.558 176.554 190.348C176.567 190.322 176.573 189.416 176.573 187.632C176.56 185.86 176.547 184.922 176.534 184.817C176.455 184.45 176.324 184.174 176.14 183.99C175.957 183.807 175.799 183.695 175.668 183.656C175.537 183.616 175.366 183.603 175.156 183.616C174.566 183.616 174.047 183.839 173.601 184.286C173.247 184.64 173.024 185.001 172.932 185.368C172.84 185.736 172.788 186.28 172.774 187.002V188.262V189.443C172.774 189.836 172.781 190.099 172.794 190.23C172.807 190.361 172.827 190.446 172.853 190.486C172.879 190.525 172.938 190.565 173.03 190.604C173.306 190.643 173.627 190.663 173.995 190.663H174.31V191.568H174.152L173.7 191.549C173.385 191.536 173.05 191.529 172.696 191.529C172.341 191.529 172.092 191.522 171.948 191.509C170.596 191.509 169.861 191.529 169.743 191.568H169.586V190.663H169.901Z" fill="#202020"/>
<path d="M182.734 185.565C182.734 185.565 182.59 185.565 182.301 185.565C182.012 185.565 181.77 185.467 181.573 185.27C181.376 185.073 181.278 184.817 181.278 184.502C181.278 184.043 181.501 183.636 181.947 183.282C182.393 182.928 183.187 182.751 184.329 182.751C185.286 182.751 186.061 182.96 186.651 183.38C187.242 183.8 187.635 184.299 187.832 184.876C187.898 185.06 187.931 185.263 187.931 185.486C187.931 185.71 187.937 186.464 187.95 187.75V189.128C187.95 189.758 187.983 190.191 188.049 190.427C188.114 190.663 188.252 190.781 188.462 190.781C188.659 190.781 188.79 190.676 188.856 190.466C188.921 190.256 188.954 189.909 188.954 189.423V188.715H189.741V189.482C189.728 190.007 189.709 190.315 189.682 190.407C189.564 190.801 189.335 191.109 188.993 191.332C188.652 191.556 188.291 191.674 187.911 191.687C187.53 191.7 187.222 191.582 186.986 191.332C186.75 191.083 186.592 190.808 186.513 190.506V190.427L186.474 190.486C186.448 190.525 186.415 190.565 186.376 190.604C186.336 190.644 186.284 190.703 186.218 190.781C186.153 190.86 186.074 190.932 185.982 190.998C185.89 191.063 185.792 191.142 185.687 191.234C185.582 191.326 185.464 191.398 185.332 191.451C185.201 191.503 185.057 191.556 184.899 191.608C184.742 191.66 184.571 191.7 184.388 191.726C184.204 191.752 184 191.772 183.777 191.785C182.99 191.785 182.281 191.582 181.652 191.175C181.022 190.768 180.707 190.197 180.707 189.463C180.707 189.187 180.753 188.925 180.845 188.675C180.936 188.426 181.114 188.157 181.376 187.868C181.638 187.579 181.953 187.337 182.321 187.14C182.688 186.943 183.2 186.759 183.856 186.589C184.512 186.418 185.234 186.32 186.021 186.294H186.297V185.86C186.297 185.414 186.258 185.086 186.179 184.876C185.89 183.945 185.254 183.479 184.27 183.479C184.033 183.479 183.81 183.485 183.6 183.498C183.39 183.512 183.226 183.538 183.108 183.577C182.99 183.617 182.938 183.636 182.951 183.636C183.239 183.833 183.384 184.122 183.384 184.502C183.384 184.83 183.279 185.086 183.069 185.27L182.734 185.565ZM182.518 189.482C182.518 189.889 182.675 190.25 182.99 190.565C183.305 190.88 183.692 191.044 184.151 191.057C184.65 191.057 185.09 190.906 185.47 190.604C185.851 190.302 186.107 189.909 186.238 189.423C186.264 189.331 186.284 188.898 186.297 188.124C186.297 187.363 186.29 186.982 186.277 186.982C186.172 186.982 186.034 186.989 185.864 187.002C185.693 187.015 185.398 187.074 184.978 187.179C184.558 187.284 184.178 187.415 183.836 187.573C183.495 187.73 183.193 187.973 182.931 188.301C182.669 188.629 182.531 189.023 182.518 189.482Z" fill="#202020"/>
<path d="M190.686 190.663H190.962C191.474 190.663 191.782 190.571 191.887 190.387V190.23C191.887 190.112 191.887 189.961 191.887 189.777C191.887 189.593 191.887 189.39 191.887 189.167C191.887 188.944 191.894 188.688 191.907 188.399C191.92 188.111 191.92 187.835 191.907 187.573C191.907 187.166 191.907 186.733 191.907 186.274C191.907 185.814 191.9 185.427 191.887 185.112V184.66C191.848 184.41 191.756 184.246 191.611 184.167C191.467 184.089 191.172 184.03 190.726 183.99H190.371V183.538C190.371 183.236 190.384 183.085 190.411 183.085L190.608 183.065C190.739 183.052 190.922 183.039 191.159 183.026C191.395 183.013 191.638 183 191.887 182.986C192.11 182.973 192.346 182.96 192.596 182.947C192.845 182.934 193.035 182.914 193.166 182.888C193.298 182.862 193.37 182.855 193.383 182.868H193.442V183.656C193.442 184.154 193.448 184.404 193.462 184.404C193.475 184.404 193.508 184.371 193.56 184.305C193.613 184.24 193.691 184.141 193.796 184.01C193.901 183.879 194.026 183.761 194.17 183.656C194.315 183.551 194.505 183.426 194.741 183.282C194.977 183.137 195.227 183.032 195.489 182.967C195.751 182.901 196.086 182.868 196.493 182.868C197.989 182.921 198.822 183.662 198.993 185.093C199.006 185.184 199.012 186.096 199.012 187.829V189.521C199.012 190.02 199.025 190.315 199.052 190.407C199.078 190.499 199.15 190.565 199.268 190.604C199.544 190.643 199.865 190.663 200.233 190.663H200.548V191.568H200.39L199.918 191.549C199.616 191.536 199.288 191.529 198.934 191.529C198.579 191.529 198.33 191.522 198.186 191.509C196.834 191.509 196.099 191.529 195.981 191.568H195.824V190.663H196.139C196.939 190.663 197.339 190.558 197.339 190.348C197.352 190.322 197.359 189.416 197.359 187.632C197.346 185.86 197.333 184.922 197.32 184.817C197.241 184.45 197.11 184.174 196.926 183.99C196.742 183.807 196.585 183.695 196.453 183.656C196.322 183.616 196.152 183.603 195.942 183.616C195.351 183.616 194.833 183.839 194.387 184.286C194.032 184.64 193.809 185.001 193.718 185.368C193.626 185.736 193.573 186.28 193.56 187.002V188.262V189.443C193.56 189.836 193.567 190.099 193.58 190.23C193.593 190.361 193.613 190.446 193.639 190.486C193.665 190.525 193.724 190.565 193.816 190.604C194.091 190.643 194.413 190.663 194.78 190.663H195.095V191.568H194.938L194.485 191.549C194.17 191.536 193.836 191.529 193.481 191.529C193.127 191.529 192.878 191.522 192.733 191.509C191.382 191.509 190.647 191.529 190.529 191.568H190.371V190.663H190.686Z" fill="#202020"/>
<path d="M207.299 183.518C207.876 182.94 208.532 182.652 209.267 182.652C209.661 182.652 209.943 182.776 210.114 183.026C210.284 183.275 210.37 183.524 210.37 183.774C210.37 183.957 210.311 184.121 210.192 184.266C210.074 184.41 209.897 184.482 209.661 184.482C209.228 184.482 208.985 184.285 208.933 183.892C208.906 183.708 208.926 183.57 208.992 183.478C208.992 183.465 208.998 183.446 209.011 183.419V183.4C208.644 183.439 208.296 183.583 207.968 183.833C207.863 183.898 207.811 183.944 207.811 183.971C207.811 183.984 207.837 184.016 207.889 184.069C207.942 184.121 208.001 184.2 208.067 184.305C208.132 184.41 208.204 184.528 208.283 184.659C208.362 184.791 208.421 184.961 208.46 185.171C208.5 185.381 208.526 185.598 208.539 185.821C208.539 186.634 208.218 187.323 207.575 187.887C206.932 188.452 206.138 188.74 205.193 188.754C204.537 188.754 203.887 188.57 203.244 188.202C203.1 188.439 203.028 188.688 203.028 188.95C203.028 189.41 203.198 189.751 203.539 189.974C203.658 190.053 203.769 190.092 203.874 190.092C203.979 190.092 204.451 190.105 205.291 190.131C206.394 190.145 207.102 190.184 207.417 190.249C208.218 190.368 208.847 190.637 209.307 191.057C209.818 191.568 210.074 192.211 210.074 192.985C210.074 193.865 209.563 194.54 208.539 195.013C207.752 195.42 206.82 195.623 205.744 195.623C204.655 195.623 203.717 195.42 202.929 195.013C201.906 194.554 201.394 193.897 201.394 193.045C201.394 192.572 201.532 192.178 201.807 191.864C202.083 191.549 202.358 191.332 202.634 191.214L202.851 191.096C202.378 190.689 202.142 190.138 202.142 189.442C202.142 188.826 202.332 188.268 202.713 187.769C202.135 187.192 201.847 186.542 201.847 185.821C201.847 184.994 202.175 184.299 202.831 183.734C203.487 183.17 204.281 182.881 205.213 182.868C205.882 182.868 206.505 183.039 207.082 183.38L207.299 183.518ZM206.708 184.817C206.643 184.449 206.472 184.161 206.197 183.951C205.921 183.741 205.58 183.629 205.173 183.616C204.793 183.616 204.465 183.721 204.189 183.931C203.913 184.141 203.743 184.436 203.677 184.817C203.638 185.04 203.618 185.375 203.618 185.821C203.618 186.398 203.664 186.825 203.756 187.1C203.848 187.376 204.045 187.605 204.346 187.789C204.57 187.92 204.852 187.986 205.193 187.986C205.482 187.986 205.731 187.94 205.941 187.848C206.151 187.756 206.302 187.638 206.394 187.494C206.485 187.349 206.558 187.218 206.61 187.1C206.663 186.982 206.695 186.884 206.708 186.805C206.748 186.595 206.768 186.267 206.768 185.821C206.768 185.375 206.748 185.04 206.708 184.817ZM208.756 193.045C208.756 192.716 208.664 192.447 208.48 192.238C208.296 192.028 208.027 191.877 207.673 191.785C207.319 191.693 206.997 191.634 206.708 191.608C206.42 191.581 206.066 191.568 205.646 191.568H205.114C204.235 191.568 203.71 191.608 203.539 191.686C203.277 191.804 203.074 191.988 202.929 192.238C202.785 192.487 202.706 192.749 202.693 193.025C202.693 193.156 202.732 193.307 202.811 193.478C202.89 193.648 203.028 193.845 203.225 194.068C203.421 194.291 203.736 194.475 204.169 194.619C204.602 194.764 205.127 194.842 205.744 194.855C206.649 194.855 207.378 194.672 207.929 194.304C208.48 193.937 208.756 193.517 208.756 193.045Z" fill="#202020"/>
<path d="M211.216 187.278C211.216 186.556 211.347 185.9 211.61 185.309C211.872 184.719 212.2 184.24 212.594 183.872C212.987 183.505 213.414 183.229 213.873 183.046C214.332 182.862 214.766 182.764 215.172 182.751C215.868 182.751 216.465 182.869 216.964 183.105C217.462 183.341 217.843 183.669 218.105 184.089C218.368 184.509 218.551 184.929 218.656 185.349C218.761 185.769 218.82 186.234 218.833 186.746C218.833 186.838 218.787 186.93 218.696 187.022H213.145V187.317C213.145 189.259 213.801 190.44 215.113 190.86C215.376 190.939 215.664 190.978 215.979 190.978C216.53 190.978 217.003 190.768 217.397 190.348C217.62 190.125 217.797 189.85 217.928 189.522L218.125 189.049C218.164 189.01 218.269 188.99 218.44 188.99H218.499C218.722 188.99 218.833 189.056 218.833 189.187C218.833 189.239 218.814 189.325 218.774 189.443C218.525 190.165 218.112 190.735 217.534 191.155C216.957 191.575 216.307 191.785 215.586 191.785C214.339 191.785 213.302 191.332 212.476 190.427C211.649 189.522 211.229 188.472 211.216 187.278ZM217.219 186.156C217.075 184.476 216.452 183.584 215.349 183.479H215.31C215.205 183.479 215.1 183.485 214.995 183.498C214.89 183.512 214.726 183.564 214.503 183.656C214.28 183.748 214.09 183.886 213.932 184.069C213.775 184.253 213.624 184.522 213.48 184.876C213.335 185.231 213.23 185.664 213.165 186.175V186.313H217.219V186.156Z" fill="#202020"/>
<path d="M224.876 187.356C224.876 186.109 225.303 185.033 226.156 184.128C227.009 183.222 228.039 182.763 229.246 182.75C230.427 182.75 231.444 183.196 232.297 184.088C233.15 184.98 233.583 186.063 233.596 187.336C233.596 188.583 233.176 189.632 232.336 190.485C231.496 191.338 230.466 191.765 229.246 191.765C227.973 191.765 226.93 191.325 226.116 190.446C225.303 189.567 224.889 188.537 224.876 187.356ZM229.246 190.977C230.847 190.977 231.647 189.908 231.647 187.769V187.139V186.647C231.647 186.358 231.641 186.109 231.628 185.899C231.614 185.689 231.569 185.44 231.49 185.151C231.411 184.862 231.306 184.626 231.175 184.442C231.044 184.259 230.84 184.075 230.565 183.891C230.289 183.708 229.968 183.576 229.6 183.498C229.535 183.485 229.43 183.478 229.285 183.478C228.892 183.478 228.518 183.557 228.163 183.714C227.599 184.003 227.232 184.403 227.061 184.915C226.89 185.427 226.805 186.03 226.805 186.726V187.119C226.805 188.379 226.93 189.265 227.179 189.777C227.599 190.577 228.288 190.977 229.246 190.977Z" fill="#202020"/>
<path d="M239.54 191.568C239.304 191.529 238.471 191.509 237.041 191.509C235.689 191.509 234.954 191.529 234.836 191.568H234.679V190.663H234.993C235.361 190.663 235.682 190.643 235.958 190.604C236.063 190.565 236.142 190.492 236.194 190.387C236.207 190.361 236.214 189.285 236.214 187.159V183.99H234.816V183.085H236.214V181.786L236.233 180.467L236.273 180.27C236.522 179.417 236.942 178.8 237.533 178.42C238.123 178.039 238.746 177.803 239.403 177.711C239.416 177.711 239.475 177.711 239.58 177.711C239.685 177.711 239.776 177.705 239.855 177.692C240.393 177.731 240.8 177.902 241.076 178.203C241.351 178.505 241.489 178.846 241.489 179.227C241.489 179.529 241.397 179.771 241.213 179.955C241.03 180.139 240.787 180.231 240.485 180.231C240.183 180.231 239.941 180.139 239.757 179.955C239.573 179.771 239.481 179.529 239.481 179.227C239.481 178.964 239.599 178.702 239.836 178.44H239.757C239.704 178.426 239.632 178.42 239.54 178.42C239.173 178.42 238.845 178.558 238.556 178.833C238.267 179.109 238.044 179.47 237.887 179.916C237.808 180.178 237.762 180.802 237.749 181.786V183.085H239.934V183.99H237.808V187.14C237.808 189.265 237.815 190.341 237.828 190.368C237.841 190.394 237.861 190.42 237.887 190.446C237.913 190.473 237.946 190.492 237.985 190.505C238.025 190.519 238.057 190.538 238.084 190.565C238.11 190.591 238.156 190.604 238.222 190.604C238.287 190.604 238.333 190.61 238.359 190.624C238.386 190.637 238.445 190.643 238.536 190.643C238.628 190.643 238.687 190.643 238.714 190.643C238.74 190.643 238.805 190.65 238.91 190.663C239.015 190.676 239.081 190.676 239.107 190.663H239.717V191.568H239.54Z" fill="#202020"/>
<path d="M251.153 191.785C250.196 191.785 249.284 191.352 248.417 190.486L248.221 190.84C248.194 190.88 248.162 190.939 248.122 191.018C248.083 191.096 248.043 191.168 248.004 191.234C247.965 191.3 247.939 191.346 247.925 191.372L247.827 191.549L247.433 191.569H247.04V185.703C247.04 181.753 247.033 179.752 247.02 179.7C246.981 179.45 246.889 179.286 246.744 179.208C246.6 179.129 246.305 179.07 245.859 179.03H245.504V178.578C245.504 178.276 245.517 178.125 245.544 178.125L245.741 178.105C245.872 178.092 246.062 178.079 246.311 178.066C246.561 178.053 246.803 178.04 247.04 178.027C247.263 178.013 247.505 178 247.768 177.987C248.03 177.974 248.227 177.954 248.358 177.928C248.49 177.902 248.562 177.895 248.575 177.908H248.634V180.881C248.634 182.875 248.641 183.872 248.654 183.872L248.713 183.813C248.752 183.774 248.811 183.728 248.89 183.676C248.969 183.623 249.067 183.558 249.185 183.479C249.303 183.4 249.441 183.334 249.598 183.282C249.756 183.229 249.927 183.164 250.11 183.085C250.294 183.006 250.504 182.954 250.74 182.928C250.976 182.901 251.219 182.882 251.468 182.869C252.492 182.869 253.397 183.282 254.185 184.109C254.972 184.935 255.372 186.005 255.385 187.317C255.385 188.642 254.965 189.718 254.126 190.545C253.286 191.372 252.295 191.785 251.153 191.785ZM248.693 189.64C248.693 189.653 248.726 189.705 248.791 189.797C248.857 189.889 248.916 189.961 248.969 190.014C249.021 190.066 249.087 190.145 249.165 190.25C249.244 190.355 249.323 190.434 249.402 190.486C249.48 190.539 249.579 190.611 249.697 190.703C249.815 190.794 249.927 190.853 250.031 190.88C250.136 190.906 250.274 190.945 250.445 190.998C250.615 191.05 250.773 191.07 250.917 191.057C251.377 191.057 251.823 190.926 252.256 190.663C252.689 190.401 253.01 189.961 253.22 189.344C253.378 188.885 253.456 188.236 253.456 187.396C253.456 186.412 253.378 185.683 253.22 185.211C252.866 184.135 252.131 183.597 251.016 183.597C250.622 183.597 250.222 183.695 249.815 183.892C249.408 184.089 249.074 184.371 248.811 184.739L248.693 184.896V189.64Z" fill="#202020"/>
<path d="M258.751 185.565C258.751 185.565 258.607 185.565 258.318 185.565C258.029 185.565 257.787 185.467 257.59 185.27C257.393 185.073 257.295 184.817 257.295 184.502C257.295 184.043 257.518 183.636 257.964 183.282C258.41 182.928 259.204 182.751 260.346 182.751C261.303 182.751 262.078 182.96 262.668 183.38C263.259 183.8 263.652 184.299 263.849 184.876C263.915 185.06 263.948 185.263 263.948 185.486C263.948 185.71 263.954 186.464 263.967 187.75V189.128C263.967 189.758 264 190.191 264.066 190.427C264.131 190.663 264.269 190.781 264.479 190.781C264.676 190.781 264.807 190.676 264.873 190.466C264.938 190.256 264.971 189.909 264.971 189.423V188.715H265.758V189.482C265.745 190.007 265.726 190.315 265.699 190.407C265.581 190.801 265.352 191.109 265.011 191.332C264.669 191.556 264.308 191.674 263.928 191.687C263.547 191.7 263.239 191.582 263.003 191.332C262.767 191.083 262.609 190.808 262.53 190.506V190.427L262.491 190.486C262.465 190.525 262.432 190.565 262.393 190.604C262.353 190.644 262.301 190.703 262.235 190.781C262.17 190.86 262.091 190.932 261.999 190.998C261.907 191.063 261.809 191.142 261.704 191.234C261.599 191.326 261.481 191.398 261.349 191.451C261.218 191.503 261.074 191.556 260.916 191.608C260.759 191.66 260.588 191.7 260.405 191.726C260.221 191.752 260.018 191.772 259.794 191.785C259.007 191.785 258.298 191.582 257.669 191.175C257.039 190.768 256.724 190.197 256.724 189.463C256.724 189.187 256.77 188.925 256.862 188.675C256.953 188.426 257.131 188.157 257.393 187.868C257.656 187.579 257.97 187.337 258.338 187.14C258.705 186.943 259.217 186.759 259.873 186.589C260.529 186.418 261.251 186.32 262.038 186.294H262.314V185.86C262.314 185.414 262.275 185.086 262.196 184.876C261.907 183.945 261.271 183.479 260.287 183.479C260.05 183.479 259.827 183.485 259.617 183.498C259.407 183.512 259.243 183.538 259.125 183.577C259.007 183.617 258.955 183.636 258.968 183.636C259.256 183.833 259.401 184.122 259.401 184.502C259.401 184.83 259.296 185.086 259.086 185.27L258.751 185.565ZM258.535 189.482C258.535 189.889 258.692 190.25 259.007 190.565C259.322 190.88 259.709 191.044 260.168 191.057C260.667 191.057 261.107 190.906 261.487 190.604C261.868 190.302 262.124 189.909 262.255 189.423C262.281 189.331 262.301 188.898 262.314 188.124C262.314 187.363 262.307 186.982 262.294 186.982C262.189 186.982 262.051 186.989 261.881 187.002C261.71 187.015 261.415 187.074 260.995 187.179C260.575 187.284 260.195 187.415 259.853 187.573C259.512 187.73 259.21 187.973 258.948 188.301C258.686 188.629 258.548 189.023 258.535 189.482Z" fill="#202020"/>
<path d="M271.703 185.349C271.703 184.824 271.526 184.371 271.171 183.991C270.817 183.61 270.305 183.42 269.636 183.42C269.164 183.42 268.757 183.505 268.416 183.676C268.022 183.925 267.825 184.266 267.825 184.699C267.812 184.765 267.812 184.85 267.825 184.955C267.838 185.06 267.943 185.217 268.14 185.427C268.337 185.637 268.619 185.801 268.987 185.92C269.223 185.985 269.511 186.044 269.853 186.097C270.194 186.149 270.482 186.208 270.719 186.274C270.955 186.339 271.165 186.425 271.349 186.53C271.572 186.635 271.788 186.766 271.998 186.923C272.208 187.081 272.418 187.35 272.628 187.73C272.838 188.111 272.949 188.518 272.963 188.951C272.963 189.764 272.713 190.434 272.215 190.958C271.716 191.483 270.909 191.752 269.794 191.765H269.636C268.954 191.765 268.324 191.529 267.746 191.057L267.589 191.195L267.412 191.372C267.333 191.451 267.254 191.523 267.176 191.588L266.959 191.785H266.802H266.723C266.684 191.785 266.625 191.746 266.546 191.667V190.112V188.97C266.546 188.695 266.559 188.531 266.585 188.478C266.611 188.426 266.677 188.393 266.782 188.38H266.959C267.117 188.38 267.222 188.406 267.274 188.459C267.327 188.511 267.359 188.59 267.373 188.695C267.386 188.8 267.432 188.977 267.51 189.226C267.589 189.476 267.714 189.751 267.884 190.053C268.344 190.722 268.98 191.057 269.794 191.057C271.066 191.057 271.703 190.545 271.703 189.522C271.703 189.141 271.585 188.833 271.349 188.596C271.086 188.282 270.542 188.045 269.715 187.888C268.888 187.73 268.344 187.579 268.081 187.435C267.609 187.212 267.235 186.91 266.959 186.53C266.684 186.149 266.546 185.742 266.546 185.309C266.546 184.798 266.657 184.365 266.88 184.01C267.104 183.656 267.386 183.393 267.727 183.223C268.068 183.052 268.396 182.934 268.711 182.869C269.026 182.803 269.315 182.77 269.577 182.77H269.794C270.318 182.77 270.778 182.869 271.171 183.065L271.467 183.223L271.644 183.085C271.775 182.967 271.919 182.855 272.077 182.751H272.234H272.313C272.352 182.751 272.411 182.79 272.49 182.869V185.467L272.372 185.585H271.821C271.742 185.506 271.703 185.427 271.703 185.349Z" fill="#202020"/>
<path d="M275.01 179.581C275.01 179.214 275.128 178.925 275.364 178.715C275.6 178.505 275.889 178.4 276.23 178.4C276.532 178.426 276.794 178.538 277.017 178.735C277.24 178.932 277.352 179.214 277.352 179.581C277.352 179.975 277.24 180.27 277.017 180.467C276.794 180.664 276.519 180.762 276.191 180.762C275.863 180.762 275.587 180.664 275.364 180.467C275.141 180.27 275.023 179.975 275.01 179.581ZM278.513 191.568C278.316 191.529 277.634 191.509 276.466 191.509C276.322 191.509 276.079 191.509 275.738 191.509C275.397 191.509 275.069 191.522 274.754 191.549L274.321 191.568H274.163V190.663H274.478C274.846 190.663 275.167 190.643 275.443 190.604C275.561 190.551 275.633 190.479 275.659 190.387C275.685 190.296 275.699 190.02 275.699 189.561V187.533V185.801C275.699 185.119 275.685 184.686 275.659 184.502C275.633 184.318 275.541 184.194 275.384 184.128C275.2 184.036 274.892 183.99 274.459 183.99H274.242V183.538C274.242 183.236 274.255 183.085 274.281 183.085L274.478 183.065C274.609 183.052 274.793 183.039 275.029 183.026C275.266 183.013 275.502 183 275.738 182.986C275.961 182.973 276.197 182.96 276.447 182.947C276.696 182.934 276.886 182.914 277.017 182.888C277.149 182.862 277.221 182.855 277.234 182.868H277.293V190.348C277.359 190.479 277.437 190.558 277.529 190.584C277.621 190.61 277.851 190.637 278.218 190.663H278.671V191.568H278.513Z" fill="#202020"/>
<path d="M284.93 185.349C284.93 184.824 284.753 184.371 284.399 183.991C284.044 183.61 283.533 183.42 282.863 183.42C282.391 183.42 281.984 183.505 281.643 183.676C281.249 183.925 281.052 184.266 281.052 184.699C281.039 184.765 281.039 184.85 281.052 184.955C281.066 185.06 281.171 185.217 281.367 185.427C281.564 185.637 281.846 185.801 282.214 185.92C282.45 185.985 282.739 186.044 283.08 186.097C283.421 186.149 283.71 186.208 283.946 186.274C284.182 186.339 284.392 186.425 284.576 186.53C284.799 186.635 285.015 186.766 285.225 186.923C285.435 187.081 285.645 187.35 285.855 187.73C286.065 188.111 286.177 188.518 286.19 188.951C286.19 189.764 285.94 190.434 285.442 190.958C284.943 191.483 284.136 191.752 283.021 191.765H282.863C282.181 191.765 281.551 191.529 280.974 191.057L280.816 191.195L280.639 191.372C280.56 191.451 280.482 191.523 280.403 191.588L280.186 191.785H280.029H279.95C279.911 191.785 279.852 191.746 279.773 191.667V190.112V188.97C279.773 188.695 279.786 188.531 279.812 188.478C279.839 188.426 279.904 188.393 280.009 188.38H280.186C280.344 188.38 280.449 188.406 280.501 188.459C280.554 188.511 280.587 188.59 280.6 188.695C280.613 188.8 280.659 188.977 280.737 189.226C280.816 189.476 280.941 189.751 281.111 190.053C281.571 190.722 282.207 191.057 283.021 191.057C284.294 191.057 284.93 190.545 284.93 189.522C284.93 189.141 284.812 188.833 284.576 188.596C284.313 188.282 283.769 188.045 282.942 187.888C282.115 187.73 281.571 187.579 281.308 187.435C280.836 187.212 280.462 186.91 280.186 186.53C279.911 186.149 279.773 185.742 279.773 185.309C279.773 184.798 279.885 184.365 280.108 184.01C280.331 183.656 280.613 183.393 280.954 183.223C281.295 183.052 281.623 182.934 281.938 182.869C282.253 182.803 282.542 182.77 282.804 182.77H283.021C283.546 182.77 284.005 182.869 284.399 183.065L284.694 183.223L284.871 183.085C285.002 182.967 285.147 182.855 285.304 182.751H285.461H285.54C285.58 182.751 285.639 182.79 285.717 182.869V185.467L285.599 185.585H285.048C284.969 185.506 284.93 185.427 284.93 185.349Z" fill="#202020"/>
<path d="M192.95 218.22H193.225C193.737 218.22 194.046 218.128 194.151 217.944V217.787C194.151 217.668 194.151 217.518 194.151 217.334C194.151 217.15 194.151 216.947 194.151 216.724C194.151 216.501 194.157 216.245 194.17 215.956C194.183 215.667 194.183 215.392 194.17 215.129C194.17 214.722 194.17 214.289 194.17 213.83C194.17 213.371 194.164 212.984 194.151 212.669V212.216C194.111 211.967 194.019 211.803 193.875 211.724C193.731 211.645 193.435 211.586 192.989 211.547H192.635V211.094C192.635 210.792 192.648 210.641 192.674 210.641L192.871 210.622C193.002 210.609 193.186 210.596 193.422 210.582C193.658 210.569 193.901 210.556 194.151 210.543C194.374 210.53 194.61 210.517 194.859 210.504C195.108 210.491 195.299 210.471 195.43 210.445C195.561 210.418 195.633 210.412 195.646 210.425H195.706V211.212C195.706 211.711 195.712 211.96 195.725 211.96C195.738 211.96 195.771 211.927 195.824 211.862C195.876 211.796 195.955 211.698 196.06 211.567C196.165 211.435 196.289 211.317 196.434 211.212C196.578 211.107 196.768 210.983 197.005 210.838C197.241 210.694 197.49 210.589 197.753 210.523C198.015 210.458 198.35 210.425 198.756 210.425C198.953 210.425 199.137 210.438 199.308 210.464C199.478 210.491 199.629 210.53 199.76 210.582C199.892 210.635 200.016 210.687 200.134 210.74C200.252 210.792 200.351 210.851 200.43 210.917C200.508 210.983 200.58 211.055 200.646 211.134C200.712 211.212 200.771 211.284 200.823 211.35C200.876 211.416 200.922 211.488 200.961 211.567C201 211.645 201.027 211.711 201.04 211.763C201.053 211.816 201.073 211.868 201.099 211.921L201.138 212.019L201.197 211.941C201.237 211.888 201.276 211.836 201.315 211.783C201.355 211.731 201.414 211.658 201.492 211.567C201.571 211.475 201.656 211.389 201.748 211.311C201.84 211.232 201.939 211.147 202.044 211.055C202.149 210.963 202.28 210.884 202.437 210.819C202.595 210.753 202.746 210.687 202.89 210.622C203.034 210.556 203.205 210.51 203.402 210.484C203.599 210.458 203.802 210.438 204.012 210.425C205.665 210.425 206.564 211.166 206.708 212.649C206.722 212.741 206.728 213.653 206.728 215.385V217.078C206.728 217.577 206.741 217.872 206.768 217.964C206.794 218.056 206.866 218.121 206.984 218.161C207.26 218.2 207.581 218.22 207.949 218.22H208.263V219.125H208.106L207.653 219.105C207.338 219.092 207.004 219.086 206.649 219.086C206.295 219.086 206.046 219.079 205.901 219.066C204.55 219.066 203.815 219.086 203.697 219.125H203.539V218.22H203.854C204.655 218.22 205.055 218.115 205.055 217.905C205.068 217.878 205.075 216.973 205.075 215.188C205.062 213.417 205.049 212.479 205.035 212.374C204.957 212.006 204.825 211.731 204.642 211.547C204.458 211.363 204.301 211.252 204.169 211.212C204.038 211.173 203.868 211.16 203.658 211.173C203.067 211.173 202.549 211.396 202.103 211.842C201.748 212.196 201.525 212.557 201.433 212.925C201.342 213.292 201.289 213.837 201.276 214.558V215.818V216.999C201.276 217.393 201.282 217.655 201.296 217.787C201.309 217.918 201.328 218.003 201.355 218.042C201.381 218.082 201.44 218.121 201.532 218.161C201.807 218.2 202.129 218.22 202.496 218.22H202.811V219.125H202.654L202.181 219.105C201.88 219.092 201.551 219.086 201.197 219.086C200.843 219.086 200.594 219.079 200.449 219.066C199.098 219.066 198.363 219.086 198.245 219.125H198.087V218.22H198.402C199.203 218.22 199.603 218.115 199.603 217.905C199.616 217.878 199.623 216.973 199.623 215.188C199.609 213.417 199.596 212.479 199.583 212.374C199.504 212.006 199.373 211.731 199.189 211.547C199.006 211.363 198.848 211.252 198.717 211.212C198.586 211.173 198.415 211.16 198.205 211.173C197.615 211.173 197.096 211.396 196.65 211.842C196.296 212.196 196.073 212.557 195.981 212.925C195.889 213.292 195.837 213.837 195.824 214.558V215.818V216.999C195.824 217.393 195.83 217.655 195.843 217.787C195.856 217.918 195.876 218.003 195.902 218.042C195.929 218.082 195.988 218.121 196.08 218.161C196.355 218.2 196.677 218.22 197.044 218.22H197.359V219.125H197.201L196.749 219.105C196.434 219.092 196.099 219.086 195.745 219.086C195.391 219.086 195.141 219.079 194.997 219.066C193.645 219.066 192.91 219.086 192.792 219.125H192.635V218.22H192.95Z" fill="#202020"/>
<path d="M211.236 213.122C211.236 213.122 211.091 213.122 210.803 213.122C210.514 213.122 210.271 213.023 210.074 212.827C209.878 212.63 209.779 212.374 209.779 212.059C209.779 211.6 210.002 211.193 210.448 210.839C210.894 210.484 211.688 210.307 212.83 210.307C213.788 210.307 214.562 210.517 215.153 210.937C215.743 211.357 216.137 211.856 216.334 212.433C216.399 212.617 216.432 212.82 216.432 213.043C216.432 213.266 216.439 214.021 216.452 215.307V216.685C216.452 217.314 216.485 217.747 216.55 217.984C216.616 218.22 216.754 218.338 216.964 218.338C217.16 218.338 217.292 218.233 217.357 218.023C217.423 217.813 217.456 217.465 217.456 216.98V216.271H218.243V217.039C218.23 217.564 218.21 217.872 218.184 217.964C218.066 218.358 217.836 218.666 217.495 218.889C217.154 219.112 216.793 219.23 216.412 219.243C216.032 219.257 215.723 219.138 215.487 218.889C215.251 218.64 215.094 218.364 215.015 218.062V217.984L214.975 218.043C214.949 218.082 214.916 218.121 214.877 218.161C214.838 218.2 214.785 218.259 214.72 218.338C214.654 218.417 214.575 218.489 214.483 218.554C214.392 218.62 214.293 218.699 214.188 218.791C214.083 218.883 213.965 218.955 213.834 219.007C213.703 219.06 213.558 219.112 213.401 219.165C213.243 219.217 213.073 219.257 212.889 219.283C212.705 219.309 212.502 219.329 212.279 219.342C211.492 219.342 210.783 219.138 210.153 218.732C209.523 218.325 209.208 217.754 209.208 217.019C209.208 216.744 209.254 216.481 209.346 216.232C209.438 215.983 209.615 215.714 209.878 215.425C210.14 215.136 210.455 214.893 210.822 214.697C211.19 214.5 211.702 214.316 212.358 214.145C213.014 213.975 213.735 213.876 214.523 213.85H214.798V213.417C214.798 212.971 214.759 212.643 214.68 212.433C214.392 211.501 213.755 211.035 212.771 211.035C212.535 211.035 212.312 211.042 212.102 211.055C211.892 211.068 211.728 211.094 211.61 211.134C211.492 211.173 211.439 211.193 211.452 211.193C211.741 211.39 211.885 211.678 211.885 212.059C211.885 212.387 211.78 212.643 211.57 212.827L211.236 213.122ZM211.019 217.039C211.019 217.446 211.177 217.806 211.492 218.121C211.806 218.436 212.194 218.6 212.653 218.614C213.152 218.614 213.591 218.463 213.972 218.161C214.352 217.859 214.608 217.465 214.739 216.98C214.766 216.888 214.785 216.455 214.798 215.681C214.798 214.92 214.792 214.539 214.779 214.539C214.674 214.539 214.536 214.546 214.365 214.559C214.195 214.572 213.899 214.631 213.48 214.736C213.06 214.841 212.679 214.972 212.338 215.13C211.997 215.287 211.695 215.53 211.432 215.858C211.17 216.186 211.032 216.58 211.019 217.039Z" fill="#202020"/>
<path d="M218.912 210.819C219.608 210.767 220.146 210.399 220.526 209.717C220.907 209.034 221.117 208.234 221.156 207.315V207.02H221.943V210.642H224.601V211.547H221.943V214.382C221.957 216.022 221.963 216.947 221.963 217.157C221.963 217.367 222.009 217.577 222.101 217.787C222.285 218.299 222.606 218.555 223.065 218.555C223.643 218.555 223.997 218.089 224.128 217.157C224.141 217.052 224.148 216.75 224.148 216.252V215.563H224.935V216.252V216.488C224.935 217.498 224.66 218.266 224.109 218.791C223.754 219.145 223.295 219.322 222.731 219.322C222.285 219.322 221.897 219.244 221.569 219.086C221.241 218.929 220.992 218.725 220.821 218.476C220.651 218.227 220.526 217.997 220.447 217.787C220.369 217.577 220.323 217.367 220.31 217.157C220.297 217.065 220.29 216.094 220.29 214.244V211.547H218.735V210.819H218.912Z" fill="#202020"/>
<path d="M226.746 218.22H227.022C227.533 218.22 227.842 218.128 227.947 217.944V217.787C227.947 217.668 227.947 217.518 227.947 217.334C227.947 217.15 227.953 216.947 227.966 216.724C227.98 216.501 227.98 216.245 227.966 215.956C227.953 215.667 227.953 215.392 227.966 215.129C227.966 214.722 227.966 214.289 227.966 213.83C227.966 213.371 227.966 212.984 227.966 212.669L227.947 212.216C227.907 211.967 227.816 211.803 227.671 211.724C227.527 211.645 227.232 211.586 226.785 211.547H226.431V211.094C226.431 210.792 226.444 210.641 226.471 210.641L226.667 210.622C226.799 210.609 226.982 210.596 227.219 210.582C227.455 210.569 227.691 210.556 227.927 210.543C228.137 210.53 228.367 210.517 228.616 210.504C228.865 210.491 229.056 210.471 229.187 210.445C229.318 210.418 229.39 210.412 229.403 210.425H229.462V211.783C229.974 210.891 230.611 210.445 231.372 210.445H231.49C232.08 210.445 232.513 210.589 232.789 210.878C233.064 211.166 233.202 211.468 233.202 211.783C233.202 212.059 233.117 212.295 232.946 212.492C232.776 212.689 232.526 212.787 232.198 212.787C231.87 212.787 231.628 212.682 231.47 212.472C231.313 212.262 231.227 212.039 231.214 211.803C231.214 211.685 231.227 211.58 231.254 211.488C231.28 211.396 231.313 211.317 231.352 211.252C231.391 211.186 231.411 211.153 231.411 211.153C231.385 211.127 231.234 211.153 230.958 211.232C230.748 211.337 230.591 211.435 230.486 211.527C229.869 212.118 229.561 213.292 229.561 215.051V216.094C229.561 216.264 229.561 216.442 229.561 216.625C229.561 216.809 229.561 216.98 229.561 217.137C229.561 217.294 229.567 217.426 229.581 217.531C229.594 217.636 229.594 217.734 229.581 217.826V217.924C229.594 217.951 229.613 217.977 229.64 218.003C229.666 218.029 229.699 218.049 229.738 218.062C229.777 218.075 229.81 218.095 229.836 218.121C229.863 218.147 229.909 218.161 229.974 218.161C230.04 218.161 230.086 218.167 230.112 218.18C230.138 218.193 230.197 218.2 230.289 218.2C230.381 218.2 230.44 218.2 230.466 218.2C230.493 218.2 230.558 218.206 230.663 218.22C230.768 218.233 230.834 218.233 230.86 218.22H231.47V219.125H231.293C231.057 219.086 230.224 219.066 228.793 219.066C227.442 219.066 226.707 219.086 226.589 219.125H226.431V218.22H226.746Z" fill="#202020"/>
<path d="M235.112 207.138C235.112 206.77 235.23 206.482 235.466 206.272C235.702 206.062 235.991 205.957 236.332 205.957C236.634 205.983 236.896 206.095 237.119 206.291C237.342 206.488 237.454 206.77 237.454 207.138C237.454 207.532 237.342 207.827 237.119 208.024C236.896 208.22 236.621 208.319 236.293 208.319C235.964 208.319 235.689 208.22 235.466 208.024C235.243 207.827 235.125 207.532 235.112 207.138ZM238.615 219.125C238.418 219.086 237.736 219.066 236.568 219.066C236.424 219.066 236.181 219.066 235.84 219.066C235.499 219.066 235.171 219.079 234.856 219.105L234.423 219.125H234.265V218.22H234.58C234.948 218.22 235.269 218.2 235.545 218.161C235.663 218.108 235.735 218.036 235.761 217.944C235.787 217.852 235.8 217.577 235.8 217.117V215.09V213.358C235.8 212.675 235.787 212.242 235.761 212.059C235.735 211.875 235.643 211.75 235.486 211.685C235.302 211.593 234.993 211.547 234.56 211.547H234.344V211.094C234.344 210.792 234.357 210.641 234.383 210.641L234.58 210.622C234.711 210.609 234.895 210.596 235.131 210.582C235.367 210.569 235.604 210.556 235.84 210.543C236.063 210.53 236.299 210.517 236.548 210.504C236.798 210.491 236.988 210.471 237.119 210.445C237.25 210.418 237.323 210.412 237.336 210.425H237.395V217.905C237.46 218.036 237.539 218.115 237.631 218.141C237.723 218.167 237.953 218.193 238.32 218.22H238.773V219.125H238.615Z" fill="#202020"/>
<path d="M243.182 219.125C243.024 219.086 242.375 219.066 241.233 219.066C240.236 219.066 239.678 219.086 239.56 219.125H239.442V218.22H239.717C240.019 218.206 240.295 218.167 240.544 218.101C240.793 218.036 240.984 217.977 241.115 217.924C241.246 217.872 241.41 217.76 241.607 217.59C241.804 217.419 241.922 217.301 241.961 217.235C242.001 217.17 242.138 216.999 242.375 216.724C242.611 216.448 242.742 216.264 242.768 216.173L243.674 214.992L242.532 213.456C242.414 213.286 242.289 213.108 242.158 212.925C242.027 212.741 241.922 212.603 241.843 212.511C241.764 212.42 241.692 212.321 241.627 212.216C241.561 212.111 241.502 212.032 241.45 211.98C241.397 211.927 241.358 211.882 241.331 211.842C241.305 211.803 241.259 211.763 241.194 211.724C241.128 211.685 241.089 211.665 241.076 211.665C241.062 211.665 241.023 211.652 240.957 211.626C240.892 211.599 240.839 211.586 240.8 211.586C240.721 211.586 240.485 211.573 240.091 211.547H239.54V210.641H239.678C240.15 210.668 240.826 210.681 241.705 210.681C242.926 210.681 243.602 210.668 243.733 210.641H243.89V211.547C243.418 211.599 243.182 211.704 243.182 211.862C243.182 211.888 243.247 211.993 243.379 212.177C243.51 212.36 243.693 212.61 243.93 212.925C244.166 213.24 244.356 213.509 244.5 213.732L244.579 213.811L245.071 213.141C245.491 212.603 245.701 212.249 245.701 212.078C245.701 212 245.688 211.927 245.662 211.862C245.636 211.796 245.603 211.75 245.563 211.724C245.524 211.698 245.491 211.672 245.465 211.645C245.439 211.619 245.393 211.593 245.327 211.567L245.268 211.547H245.17V210.641H245.307C245.504 210.681 246.154 210.701 247.256 210.701C248.293 210.701 248.85 210.681 248.929 210.641H249.047V211.547H248.91C248.267 211.547 247.735 211.658 247.315 211.882C247.092 211.987 246.869 212.164 246.646 212.413C246.423 212.662 245.996 213.213 245.367 214.066L245.052 214.48L246.272 216.153C247.138 217.334 247.604 217.951 247.669 218.003C247.735 218.056 247.847 218.101 248.004 218.141C248.24 218.193 248.588 218.22 249.047 218.22H249.382V219.125H249.264H249.106C249.001 219.112 248.87 219.105 248.713 219.105C248.555 219.105 248.391 219.099 248.221 219.086C248.05 219.073 247.886 219.073 247.729 219.086C247.571 219.099 247.453 219.092 247.374 219.066C247.23 219.066 246.987 219.066 246.646 219.066C246.305 219.066 245.977 219.079 245.662 219.105L245.209 219.125H245.032V218.22H245.091C245.235 218.22 245.38 218.187 245.524 218.121C245.668 218.056 245.741 217.977 245.741 217.885C245.741 217.859 245.478 217.485 244.953 216.763L244.146 215.68C244.133 215.694 243.93 215.969 243.536 216.507C243.142 217.045 242.919 217.34 242.867 217.393C242.814 217.458 242.788 217.55 242.788 217.668C242.788 217.813 242.834 217.937 242.926 218.042C243.018 218.147 243.136 218.206 243.28 218.22C243.306 218.22 243.319 218.37 243.319 218.672V219.125H243.182Z" fill="#202020"/>
</g>
</g>
<defs>
<clipPath id="clip0_1395_17182">
<rect width="480" height="240" fill="white"/>
</clipPath>
<clipPath id="clip1_1395_17182">
<rect width="124.688" height="47.241" fill="white" transform="translate(182.347 96.3164)"/>
</clipPath>
<clipPath id="clip2_1395_17182">
<rect width="125.263" height="47.241" fill="white" transform="translate(182.73 19.5107)"/>
</clipPath>
<clipPath id="clip3_1395_17182">
<rect width="131.996" height="47.241" fill="white" transform="translate(154.882 176.806)"/>
</clipPath>
</defs>
</svg>
