<?xml version="1.0" encoding="UTF-8" standalone="no"?>
<!DOCTYPE svg PUBLIC "-//W3C//DTD SVG 1.1//EN" "http://www.w3.org/Graphics/SVG/1.1/DTD/svg11.dtd">
<svg xmlns="http://www.w3.org/2000/svg" version="1.1" viewBox="0.00 0.00 129.00 106.00">
<g stroke-width="2.00" fill="none" stroke-linecap="butt">
<path stroke="#898c92" vector-effect="non-scaling-stroke" d="
  M 64.11 13.36
  Q 68.45 13.33 69.56 18.79
  A 1.38 1.33 17.8 0 0 69.91 19.44
  L 71.28 20.81
  A 0.47 0.47 0.0 0 0 72.07 20.57
  C 73.17 15.29 69.54 10.39 64.09 10.42
  C 58.64 10.46 55.08 15.40 56.24 20.67
  A 0.47 0.47 0.0 0 0 57.03 20.90
  L 58.39 19.51
  A 1.38 1.33 -18.5 0 0 58.73 18.85
  Q 59.77 13.38 64.11 13.36"
/>
<path stroke="#58715a" vector-effect="non-scaling-stroke" d="
  M 51.56 32.72
  L 11.93 72.13
  A 0.21 0.21 0.0 0 0 11.94 72.44
  Q 25.17 84.85 42.78 90.00"
/>
<path stroke="#898c92" vector-effect="non-scaling-stroke" d="
  M 42.78 90.00
  L 44.96 90.59"
/>
<path stroke="#837e5a" vector-effect="non-scaling-stroke" d="
  M 44.96 90.59
  Q 61.36 95.28 79.36 91.41"
/>
<path stroke="#898c92" vector-effect="non-scaling-stroke" d="
  M 79.36 91.41
  Q 80.06 91.71 83.77 90.38"
/>
<path stroke="#876066" vector-effect="non-scaling-stroke" d="
  M 83.77 90.38
  Q 97.13 87.36 109.46 78.04"
/>
<path stroke="#898c92" vector-effect="non-scaling-stroke" d="
  M 109.46 78.04
  L 116.14 72.53
  A 0.55 0.55 0.0 0 0 116.18 71.73
  L 64.50 20.06
  A 0.35 0.35 0.0 0 0 64.00 20.06
  L 51.56 32.72"
/>
<path stroke="#fdd3d3" vector-effect="non-scaling-stroke" d="
  M 109.46 78.04
  Q 106.42 79.04 103.60 80.09
  Q 99.82 81.51 97.66 81.86
  Q 83.29 84.21 71.57 77.22
  C 60.34 70.53 53.35 58.79 53.59 45.68
  Q 53.59 45.57 53.37 45.63
  A 0.03 0.01 -22.5 0 0 53.35 45.65
  Q 52.13 54.75 54.71 62.52
  Q 61.61 83.30 83.77 90.38"
/>
<path stroke="#f9f1c7" vector-effect="non-scaling-stroke" d="
  M 79.36 91.41
  Q 60.59 83.01 53.87 66.14
  C 49.84 55.99 49.81 45.10 53.55 34.78
  A 0.20 0.19 70.7 0 0 53.20 34.61
  Q 40.11 55.93 43.16 80.76
  C 43.52 83.63 44.53 87.28 44.96 90.59"
/>
<path stroke="#cee4c7" vector-effect="non-scaling-stroke" d="
  M 42.78 90.00
  Q 35.65 59.83 51.56 32.72"
/>
<path stroke="#58715a" vector-effect="non-scaling-stroke" d="
  M 9.77 74.29
  L 7.02 77.05
  A 0.74 0.74 0.0 0 0 7.04 78.12
  Q 21.84 91.77 41.13 97.43
  A 0.16 0.16 0.0 0 0 41.32 97.33
  L 42.86 92.87
  A 0.41 0.41 0.0 0 0 42.61 92.35
  L 35.40 89.86
  A 0.56 0.55 -70.9 0 0 34.69 90.21
  L 34.01 92.17
  A 0.63 0.62 -57.9 0 1 32.98 92.41
  L 32.56 91.99
  A 0.83 0.83 0.0 0 1 32.46 90.93
  Q 32.87 90.33 33.06 89.76
  A 0.65 0.64 25.1 0 0 32.78 89.00
  L 26.51 85.39
  A 0.72 0.72 0.0 0 0 25.52 85.65
  L 24.51 87.39
  A 0.73 0.72 -65.5 0 1 23.64 87.72
  L 23.34 87.62
  A 0.77 0.76 26.5 0 1 22.95 86.47
  L 23.99 84.93
  A 0.53 0.53 0.0 0 0 23.84 84.19
  L 17.66 80.04
  A 0.63 0.62 -49.7 0 0 16.87 80.11
  Q 15.96 81.01 15.70 81.55
  A 0.90 0.82 63.5 0 1 14.12 80.93
  Q 14.23 79.98 15.19 79.39
  A 0.57 0.57 0.0 0 0 15.30 78.50
  L 11.09 74.29
  A 0.94 0.94 0.0 0 0 9.77 74.29"
/>
<path stroke="#876066" vector-effect="non-scaling-stroke" d="
  M 118.66 74.22
  A 0.94 0.94 0.0 0 0 117.33 74.22
  L 113.11 78.44
  A 0.57 0.57 0.0 0 0 113.23 79.34
  Q 114.19 79.93 114.30 80.88
  A 0.91 0.82 -63.6 0 1 112.72 81.50
  Q 112.46 80.96 111.54 80.06
  A 0.63 0.62 49.7 0 0 110.75 79.99
  L 104.56 84.16
  A 0.53 0.53 0.0 0 0 104.41 84.90
  L 105.45 86.44
  A 0.77 0.77 0.0 0 1 105.06 87.60
  L 104.76 87.70
  A 0.73 0.72 65.5 0 1 103.89 87.37
  L 102.87 85.62
  A 0.72 0.72 0.0 0 0 101.88 85.36
  L 95.60 88.99
  A 0.65 0.64 -25.2 0 0 95.32 89.75
  Q 95.51 90.33 95.92 90.93
  A 0.84 0.83 -39.8 0 1 95.82 91.99
  L 95.40 92.41
  A 0.63 0.62 57.9 0 1 94.37 92.17
  L 93.68 90.21
  A 0.56 0.55 70.9 0 0 92.97 89.86
  L 85.74 92.36
  A 0.42 0.41 -19.6 0 0 85.49 92.88
  L 87.04 97.35
  A 0.16 0.16 0.0 0 0 87.23 97.45
  Q 106.57 91.76 121.40 78.05
  A 0.75 0.74 46.2 0 0 121.42 76.98
  L 118.66 74.22"
/>
<path stroke="#837e5a" vector-effect="non-scaling-stroke" d="
  M 64.21 100.62
  Q 74.97 100.62 84.11 98.21
  A 0.61 0.61 0.0 0 0 84.55 97.51
  L 83.77 93.55
  A 0.63 0.62 -11.0 0 0 83.03 93.06
  L 75.80 94.48
  A 0.57 0.57 0.0 0 0 75.35 95.15
  L 75.70 96.97
  A 0.72 0.71 -11.5 0 1 75.13 97.82
  L 74.83 97.88
  A 0.85 0.85 0.0 0 1 73.82 97.11
  L 73.70 95.32
  A 0.52 0.52 0.0 0 0 73.15 94.83
  L 65.58 95.34
  A 0.61 0.60 83.4 0 0 65.02 96.05
  Q 65.49 98.70 64.21 98.53
  Q 62.94 98.70 63.41 96.05
  A 0.61 0.60 -83.4 0 0 62.85 95.34
  L 55.28 94.83
  A 0.52 0.52 0.0 0 0 54.73 95.32
  L 54.61 97.11
  A 0.85 0.85 0.0 0 1 53.60 97.88
  L 53.30 97.82
  A 0.72 0.71 11.5 0 1 52.73 96.97
  L 53.08 95.15
  A 0.57 0.57 0.0 0 0 52.63 94.48
  L 45.40 93.06
  A 0.63 0.62 11.0 0 0 44.66 93.55
  L 43.88 97.51
  A 0.61 0.61 0.0 0 0 44.32 98.21
  Q 53.46 100.62 64.21 100.62"
/>
</g>
<path fill="#131925" d="
  M 64.17 6.12
  C 73.43 6.11 79.48 15.85 75.34 24.02
  A 0.85 0.85 0.0 0 0 75.49 25.01
  Q 77.26 26.82 126.06 75.54
  Q 127.93 77.41 126.34 79.08
  C 110.70 95.53 87.28 104.98 64.25 105.00
  C 41.21 105.02 17.78 95.60 2.11 79.18
  Q 0.52 77.51 2.39 75.64
  Q 51.11 26.84 52.87 25.03
  A 0.85 0.85 0.0 0 0 53.02 24.04
  C 48.87 15.88 54.90 6.13 64.17 6.12
  Z
  M 64.11 13.36
  Q 68.45 13.33 69.56 18.79
  A 1.38 1.33 17.8 0 0 69.91 19.44
  L 71.28 20.81
  A 0.47 0.47 0.0 0 0 72.07 20.57
  C 73.17 15.29 69.54 10.39 64.09 10.42
  C 58.64 10.46 55.08 15.40 56.24 20.67
  A 0.47 0.47 0.0 0 0 57.03 20.90
  L 58.39 19.51
  A 1.38 1.33 -18.5 0 0 58.73 18.85
  Q 59.77 13.38 64.11 13.36
  Z
  M 51.56 32.72
  L 11.93 72.13
  A 0.21 0.21 0.0 0 0 11.94 72.44
  Q 25.17 84.85 42.78 90.00
  L 44.96 90.59
  Q 61.36 95.28 79.36 91.41
  Q 80.06 91.71 83.77 90.38
  Q 97.13 87.36 109.46 78.04
  L 116.14 72.53
  A 0.55 0.55 0.0 0 0 116.18 71.73
  L 64.50 20.06
  A 0.35 0.35 0.0 0 0 64.00 20.06
  L 51.56 32.72
  Z
  M 9.77 74.29
  L 7.02 77.05
  A 0.74 0.74 0.0 0 0 7.04 78.12
  Q 21.84 91.77 41.13 97.43
  A 0.16 0.16 0.0 0 0 41.32 97.33
  L 42.86 92.87
  A 0.41 0.41 0.0 0 0 42.61 92.35
  L 35.40 89.86
  A 0.56 0.55 -70.9 0 0 34.69 90.21
  L 34.01 92.17
  A 0.63 0.62 -57.9 0 1 32.98 92.41
  L 32.56 91.99
  A 0.83 0.83 0.0 0 1 32.46 90.93
  Q 32.87 90.33 33.06 89.76
  A 0.65 0.64 25.1 0 0 32.78 89.00
  L 26.51 85.39
  A 0.72 0.72 0.0 0 0 25.52 85.65
  L 24.51 87.39
  A 0.73 0.72 -65.5 0 1 23.64 87.72
  L 23.34 87.62
  A 0.77 0.76 26.5 0 1 22.95 86.47
  L 23.99 84.93
  A 0.53 0.53 0.0 0 0 23.84 84.19
  L 17.66 80.04
  A 0.63 0.62 -49.7 0 0 16.87 80.11
  Q 15.96 81.01 15.70 81.55
  A 0.90 0.82 63.5 0 1 14.12 80.93
  Q 14.23 79.98 15.19 79.39
  A 0.57 0.57 0.0 0 0 15.30 78.50
  L 11.09 74.29
  A 0.94 0.94 0.0 0 0 9.77 74.29
  Z
  M 118.66 74.22
  A 0.94 0.94 0.0 0 0 117.33 74.22
  L 113.11 78.44
  A 0.57 0.57 0.0 0 0 113.23 79.34
  Q 114.19 79.93 114.30 80.88
  A 0.91 0.82 -63.6 0 1 112.72 81.50
  Q 112.46 80.96 111.54 80.06
  A 0.63 0.62 49.7 0 0 110.75 79.99
  L 104.56 84.16
  A 0.53 0.53 0.0 0 0 104.41 84.90
  L 105.45 86.44
  A 0.77 0.77 0.0 0 1 105.06 87.60
  L 104.76 87.70
  A 0.73 0.72 65.5 0 1 103.89 87.37
  L 102.87 85.62
  A 0.72 0.72 0.0 0 0 101.88 85.36
  L 95.60 88.99
  A 0.65 0.64 -25.2 0 0 95.32 89.75
  Q 95.51 90.33 95.92 90.93
  A 0.84 0.83 -39.8 0 1 95.82 91.99
  L 95.40 92.41
  A 0.63 0.62 57.9 0 1 94.37 92.17
  L 93.68 90.21
  A 0.56 0.55 70.9 0 0 92.97 89.86
  L 85.74 92.36
  A 0.42 0.41 -19.6 0 0 85.49 92.88
  L 87.04 97.35
  A 0.16 0.16 0.0 0 0 87.23 97.45
  Q 106.57 91.76 121.40 78.05
  A 0.75 0.74 46.2 0 0 121.42 76.98
  L 118.66 74.22
  Z
  M 64.21 100.62
  Q 74.97 100.62 84.11 98.21
  A 0.61 0.61 0.0 0 0 84.55 97.51
  L 83.77 93.55
  A 0.63 0.62 -11.0 0 0 83.03 93.06
  L 75.80 94.48
  A 0.57 0.57 0.0 0 0 75.35 95.15
  L 75.70 96.97
  A 0.72 0.71 -11.5 0 1 75.13 97.82
  L 74.83 97.88
  A 0.85 0.85 0.0 0 1 73.82 97.11
  L 73.70 95.32
  A 0.52 0.52 0.0 0 0 73.15 94.83
  L 65.58 95.34
  A 0.61 0.60 83.4 0 0 65.02 96.05
  Q 65.49 98.70 64.21 98.53
  Q 62.94 98.70 63.41 96.05
  A 0.61 0.60 -83.4 0 0 62.85 95.34
  L 55.28 94.83
  A 0.52 0.52 0.0 0 0 54.73 95.32
  L 54.61 97.11
  A 0.85 0.85 0.0 0 1 53.60 97.88
  L 53.30 97.82
  A 0.72 0.71 11.5 0 1 52.73 96.97
  L 53.08 95.15
  A 0.57 0.57 0.0 0 0 52.63 94.48
  L 45.40 93.06
  A 0.63 0.62 11.0 0 0 44.66 93.55
  L 43.88 97.51
  A 0.61 0.61 0.0 0 0 44.32 98.21
  Q 53.46 100.62 64.21 100.62
  Z"
/>
<path fill="#ffffff" d="
  M 64.09 10.42
  C 69.54 10.39 73.17 15.29 72.07 20.57
  A 0.47 0.47 0.0 0 1 71.28 20.81
  L 69.91 19.44
  A 1.38 1.33 17.8 0 1 69.56 18.79
  Q 68.45 13.33 64.11 13.36
  Q 59.77 13.38 58.73 18.85
  A 1.38 1.33 -18.5 0 1 58.39 19.51
  L 57.03 20.90
  A 0.47 0.47 0.0 0 1 56.24 20.67
  C 55.08 15.40 58.64 10.46 64.09 10.42
  Z"
/>
<path fill="#ffffff" d="
  M 109.46 78.04
  Q 106.42 79.04 103.60 80.09
  Q 99.82 81.51 97.66 81.86
  Q 83.29 84.21 71.57 77.22
  C 60.34 70.53 53.35 58.79 53.59 45.68
  Q 53.59 45.57 53.37 45.63
  A 0.03 0.01 -22.5 0 0 53.35 45.65
  Q 52.13 54.75 54.71 62.52
  Q 61.61 83.30 83.77 90.38
  Q 80.06 91.71 79.36 91.41
  Q 60.59 83.01 53.87 66.14
  C 49.84 55.99 49.81 45.10 53.55 34.78
  A 0.20 0.19 70.7 0 0 53.20 34.61
  Q 40.11 55.93 43.16 80.76
  C 43.52 83.63 44.53 87.28 44.96 90.59
  L 42.78 90.00
  Q 35.65 59.83 51.56 32.72
  L 64.00 20.06
  A 0.35 0.35 0.0 0 1 64.50 20.06
  L 116.18 71.73
  A 0.55 0.55 0.0 0 1 116.14 72.53
  L 109.46 78.04
  Z"
/>
<path fill="#9dc88e" d="
  M 51.56 32.72
  Q 35.65 59.83 42.78 90.00
  Q 25.17 84.85 11.94 72.44
  A 0.21 0.21 0.0 0 1 11.93 72.13
  L 51.56 32.72
  Z"
/>
<path fill="#f3e38f" d="
  M 79.36 91.41
  Q 61.36 95.28 44.96 90.59
  C 44.53 87.28 43.52 83.63 43.16 80.76
  Q 40.11 55.93 53.20 34.61
  A 0.20 0.19 70.7 0 1 53.55 34.78
  C 49.81 45.10 49.84 55.99 53.87 66.14
  Q 60.59 83.01 79.36 91.41
  Z"
/>
<path fill="#fba6a6" d="
  M 109.46 78.04
  Q 97.13 87.36 83.77 90.38
  Q 61.61 83.30 54.71 62.52
  Q 52.13 54.75 53.35 45.65
  A 0.03 0.01 -22.5 0 1 53.37 45.63
  Q 53.59 45.57 53.59 45.68
  C 53.35 58.79 60.34 70.53 71.57 77.22
  Q 83.29 84.21 97.66 81.86
  Q 99.82 81.51 103.60 80.09
  Q 106.42 79.04 109.46 78.04
  Z"
/>
<path fill="#9dc88e" d="
  M 9.77 74.29
  A 0.94 0.94 0.0 0 1 11.09 74.29
  L 15.30 78.50
  A 0.57 0.57 0.0 0 1 15.19 79.39
  Q 14.23 79.98 14.12 80.93
  A 0.90 0.82 63.5 0 0 15.70 81.55
  Q 15.96 81.01 16.87 80.11
  A 0.63 0.62 -49.7 0 1 17.66 80.04
  L 23.84 84.19
  A 0.53 0.53 0.0 0 1 23.99 84.93
  L 22.95 86.47
  A 0.77 0.76 26.5 0 0 23.34 87.62
  L 23.64 87.72
  A 0.73 0.72 -65.5 0 0 24.51 87.39
  L 25.52 85.65
  A 0.72 0.72 0.0 0 1 26.51 85.39
  L 32.78 89.00
  A 0.65 0.64 25.1 0 1 33.06 89.76
  Q 32.87 90.33 32.46 90.93
  A 0.83 0.83 0.0 0 0 32.56 91.99
  L 32.98 92.41
  A 0.63 0.62 -57.9 0 0 34.01 92.17
  L 34.69 90.21
  A 0.56 0.55 -70.9 0 1 35.40 89.86
  L 42.61 92.35
  A 0.41 0.41 0.0 0 1 42.86 92.87
  L 41.32 97.33
  A 0.16 0.16 0.0 0 1 41.13 97.43
  Q 21.84 91.77 7.04 78.12
  A 0.74 0.74 0.0 0 1 7.02 77.05
  L 9.77 74.29
  Z"
/>
<path fill="#fba6a6" d="
  M 118.66 74.22
  L 121.42 76.98
  A 0.75 0.74 46.2 0 1 121.40 78.05
  Q 106.57 91.76 87.23 97.45
  A 0.16 0.16 0.0 0 1 87.04 97.35
  L 85.49 92.88
  A 0.42 0.41 -19.6 0 1 85.74 92.36
  L 92.97 89.86
  A 0.56 0.55 70.9 0 1 93.68 90.21
  L 94.37 92.17
  A 0.63 0.62 57.9 0 0 95.40 92.41
  L 95.82 91.99
  A 0.84 0.83 -39.8 0 0 95.92 90.93
  Q 95.51 90.33 95.32 89.75
  A 0.65 0.64 -25.2 0 1 95.60 88.99
  L 101.88 85.36
  A 0.72 0.72 0.0 0 1 102.87 85.62
  L 103.89 87.37
  A 0.73 0.72 65.5 0 0 104.76 87.70
  L 105.06 87.60
  A 0.77 0.77 0.0 0 0 105.45 86.44
  L 104.41 84.90
  A 0.53 0.53 0.0 0 1 104.56 84.16
  L 110.75 79.99
  A 0.63 0.62 49.7 0 1 111.54 80.06
  Q 112.46 80.96 112.72 81.50
  A 0.91 0.82 -63.6 0 0 114.30 80.88
  Q 114.19 79.93 113.23 79.34
  A 0.57 0.57 0.0 0 1 113.11 78.44
  L 117.33 74.22
  A 0.94 0.94 0.0 0 1 118.66 74.22
  Z"
/>
<path fill="#f3e38f" d="
  M 64.21 98.53
  Q 65.49 98.70 65.02 96.05
  A 0.61 0.60 83.4 0 1 65.58 95.34
  L 73.15 94.83
  A 0.52 0.52 0.0 0 1 73.70 95.32
  L 73.82 97.11
  A 0.85 0.85 0.0 0 0 74.83 97.88
  L 75.13 97.82
  A 0.72 0.71 -11.5 0 0 75.70 96.97
  L 75.35 95.15
  A 0.57 0.57 0.0 0 1 75.80 94.48
  L 83.03 93.06
  A 0.63 0.62 -11.0 0 1 83.77 93.55
  L 84.55 97.51
  A 0.61 0.61 0.0 0 1 84.11 98.21
  Q 74.97 100.62 64.21 100.62
  Q 53.46 100.62 44.32 98.21
  A 0.61 0.61 0.0 0 1 43.88 97.51
  L 44.66 93.55
  A 0.63 0.62 11.0 0 1 45.40 93.06
  L 52.63 94.48
  A 0.57 0.57 0.0 0 1 53.08 95.15
  L 52.73 96.97
  A 0.72 0.71 11.5 0 0 53.30 97.82
  L 53.60 97.88
  A 0.85 0.85 0.0 0 0 54.61 97.11
  L 54.73 95.32
  A 0.52 0.52 0.0 0 1 55.28 94.83
  L 62.85 95.34
  A 0.61 0.60 -83.4 0 1 63.41 96.05
  Q 62.94 98.70 64.21 98.53
  Z"
/>
</svg>
