<svg xmlns="http://www.w3.org/2000/svg" fill="none" viewBox="0 0 240 135">
  <g stroke="deepskyblue">
    <line x1="59" y1="27" x2="100" y2="37" />
    <line x1="59" y1="27" x2="100" y2="99" />
    <line x1="59" y1="47" x2="100" y2="79" />
    <line x1="59" y1="67" x2="100" y2="57" />
    <line x1="59" y1="89" x2="100" y2="37" />
    <line x1="59" y1="89" x2="100" y2="99" />
    <line x1="59" y1="109" x2="100" y2="79" />
    <line x1="100" y1="37" x2="140" y2="57" />
    <line x1="100" y1="57" x2="140" y2="37" />
    <line x1="100" y1="57" x2="140" y2="99" />
    <line x1="100" y1="79" x2="140" y2="79" />
    <line x1="100" y1="99" x2="140" y2="57" />
    <line x1="140" y1="37" x2="181" y2="47" />
    <line x1="140" y1="57" x2="181" y2="47" />
    <line x1="140" y1="79" x2="181" y2="47" />
    <line x1="140" y1="99" x2="181" y2="47" />
  </g>
  <g fill="black" stroke="white">
    <circle cx="59" cy="27" r="4" />
    <circle cx="100" cy="57" r="4" />
    <circle cx="59" cy="47" r="4" />
    <circle cx="100" cy="37" r="4" />
    <circle cx="100" cy="99" r="4" />
    <circle cx="59" cy="67" r="4" />
    <circle cx="100" cy="79" r="4" />
    <circle cx="59" cy="89" r="4" />
    <circle cx="59" cy="109" r="4" />
    <circle cx="140" cy="79" r="4" />
    <circle cx="140" cy="57" r="4" />
    <circle cx="140" cy="37" r="4" />
    <circle cx="140" cy="99" r="4" />
    <circle cx="181" cy="67" r="4" />
    <circle cx="181" cy="89" r="4" />
    <circle cx="181" cy="47" r="4" />
  </g>
</svg>
