<svg xmlns="http://www.w3.org/2000/svg" fill="none" viewBox="0 0 240 135">
  <rect width="240" height="135" fill="black" />

  <g stroke="white">
    <line x2="240" y1="112.5" y2="112.5" />
  </g>
  <path
    fill="deepskyblue"
    d="M90 112.5V76.204l1-1.209 1-1.207 1-1.2 1-1.194 1-1.18 1-1.168 1-1.15 1-1.128 1-1.106 1-1.08 1-1.049 1-1.017 1-.981 1-.943 1-.902 1-.857 1-.812 1-.761 1-.71 1-.657 1-.601 1-.543 1-.483 1-.422 1-.36 1-.296 1-.23 1-.166 1-.1 1-.033 1 .033 1 .1 1 .165 1 .231 1 .296 1 .36 1 .422 1 .483 1 .543 1 .6 1 .657 1 .71 1 .762 1 .812 1 .857 1 .902 1 .943 1 .981 1 1.017 1 1.05 1 1.079 1 1.106 1 1.129 1 1.15 1 1.166 1 1.181 1 1.193 1 1.201 1 1.207 1 1.21 1 1.209 1 1.207 1 1.201 1 1.194 1 1.184 1 1.172 1 1.158 1 1.141 1 1.124 1 1.103 1 1.083 1 1.06 1 1.036 1 1.01 1 .985 1 .958 1 .93 1 .902 1 .873 1 .843 1 .815 1 .784 1 .755 1 .725 1 .696 1 .667 1 .638 1 .609 1 .581 1 .553v8.099z"
    opacity=".5"
  />
  <g stroke="white">
    <path
      d="m0 112.48 1-.003 1-.003 1-.004 1-.004 1-.005 1-.005 1-.006 1-.006 1-.008 1-.008 1-.009 1-.011 1-.011 1-.013 1-.015 1-.016 1-.018 1-.02 1-.022 1-.024 1-.027 1-.03 1-.033 1-.037 1-.04 1-.044 1-.048 1-.053 1-.058 1-.064 1-.069 1-.076 1-.083 1-.09 1-.098 1-.106 1-.116 1-.125 1-.135 1-.146 1-.158 1-.17 1-.184 1-.197 1-.211 1-.227 1-.243 1-.26 1-.278 1-.296 1-.316 1-.336 1-.357 1-.379 1-.402 1-.425 1-.45 1-.474 1-.5 1-.527 1-.553 1-.581 1-.609 1-.638 1-.667 1-.696 1-.725 1-.755 1-.784 1-.815 1-.843 1-.873 1-.902 1-.93 1-.958 1-.984 1-1.011 1-1.036 1-1.06 1-1.082 1-1.104 1-1.124 1-1.141 1-1.158 1-1.172 1-1.184 1-1.194 1-1.201 1-1.207 1-1.21 1-1.209 1-1.207 1-1.2 1-1.194 1-1.18 1-1.168 1-1.15 1-1.128 1-1.106 1-1.08 1-1.049 1-1.017 1-.981 1-.943 1-.902 1-.857 1-.812 1-.761 1-.71 1-.657 1-.601 1-.543 1-.483 1-.422 1-.36 1-.296 1-.23 1-.166 1-.1 1-.033 1 .033 1 .1 1 .165 1 .231 1 .296 1 .36 1 .422 1 .483 1 .543 1 .6 1 .657 1 .71 1 .762 1 .812 1 .857 1 .902 1 .943 1 .981 1 1.017 1 1.05 1 1.079 1 1.106 1 1.129 1 1.15 1 1.166 1 1.181 1 1.193 1 1.201 1 1.207 1 1.21 1 1.209 1 1.207 1 1.201 1 1.194 1 1.184 1 1.172 1 1.158 1 1.141 1 1.124 1 1.103 1 1.083 1 1.06 1 1.036 1 1.01 1 .985 1 .958 1 .93 1 .902 1 .873 1 .843 1 .815 1 .784 1 .755 1 .725 1 .696 1 .667 1 .638 1 .609 1 .581 1 .553 1 .527 1 .5 1 .474 1 .45 1 .425 1 .402 1 .379 1 .357 1 .336 1 .316 1 .296 1 .278 1 .26 1 .243 1 .227 1 .211 1 .197 1 .184 1 .17 1 .158 1 .146 1 .135 1 .125 1 .116 1 .106 1 .098 1 .09 1 .083 1 .076 1 .069 1 .064 1 .058 1 .053 1 .048 1 .044 1 .04 1 .037 1 .033 1 .03 1 .027 1 .024 1 .022 1 .02 1 .018 1 .016 1 .015 1 .013 1 .011 1 .011 1 .009 1 .008 1 .008 1 .006 1 .006 1 .005 1 .005 1 .004 1 .004 1 .003 1 .003"
    />
    <line x1="90.059" x2="90.059" y1="112.521" y2="76.157" />
    <line x1="180" x2="180" y1="112.521" y2="104.62" />
  </g>
</svg>
