<svg xmlns="http://www.w3.org/2000/svg" fill="none" viewBox="0 0 240 135">
  <rect width="240" height="135" fill="black" />
  <g transform="translate(0 -15)">
    <path
      fill="white"
      stroke="black"
      d="M117.393 38.13c3.747-.033 6.747 3.007 6.747 6.713a6.75 6.75 0 0 1-1.308 3.995l-.149.199-.248.003-9.943.098-.237.002-.152-.181c-.934-1.115-1.425-2.606-1.425-4.116a6.71 6.71 0 0 1 6.71-6.713v-.001z"
    />
    <path
      fill="white"
      stroke="black"
      d="M135.383 38.13c3.747-.033 6.747 3.007 6.747 6.713a6.75 6.75 0 0 1-1.309 3.995l-.148.199-.248.003-9.944.098-.236.002-.152-.181c-.935-1.115-1.425-2.606-1.425-4.116a6.71 6.71 0 0 1 6.71-6.713v-.001z"
    />
    <path
      fill="black"
      d="M119.192 39.97c-.426.033-.753.36-.753.785s.36.785.785.785.785-.36.785-.785a.795.795 0 0 0-.785-.785zl.948-.327a2.52 2.52 0 0 1 2.519 2.518 2.54 2.54 0 0 1-2.519 2.519 2.54 2.54 0 0 1-2.518-2.519 2.54 2.54 0 0 1 2.518-2.518"
    />
    <path
      fill="black"
      d="M137.181 39.97c-.425.033-.752.36-.752.785s.36.785.785.785.785-.36.785-.785a.796.796 0 0 0-.785-.785zl.949-.327a2.52 2.52 0 0 1 2.518 2.518 2.54 2.54 0 0 1-2.518 2.519 2.54 2.54 0 0 1-2.519-2.519 2.54 2.54 0 0 1 2.519-2.518"
    />
    <path
      fill="#0C7F99"
      d="M116.052 58.385h21.064c-5.037 20.868-8.21 34.474-8.21 49.389 0 2.617 0 22.733 7.654 22.733 3.925 0 7.261-3.533 7.261-6.705 0-.916 0-1.309-1.308-4.089-5.037-12.854-5.037-28.881-5.037-30.19 0-1.112 0-14.359 3.925-31.105l22.634-.328c4.514-.13 8.7-6.836 8.7-12.821 0-4.089-5.527 3.303-14.391 3.303l-55.703-.229c-4.285 0-10.63 0-19.2 9.126-4.84 5.397-4.579 15.275-4.579 16.387s.916 1.505 2.061 1.505c1.308 0 2.191-.23 2.42-1.669 2.617-15.47 13.15-15.274 17.826-15.274H111.8c-4.089 13.966-8.766 30.19-24.041 62.8-1.505 2.976-1.505 3.368-1.505 4.481 0 3.925 3.37 4.84 5.037 4.84 5.397 0 6.902-4.84 9.126-12.658 2.977-9.518 2.977-9.878 4.841-17.335z"
    />
    <path
      fill="black"
      d="M120.598 55.507c-.163 1.046-.687 2.453 3.075 2.027 4.415-.49 5.527-1.275 7.163-2.158l-.098-1.014c-1.211.032-3.762.229-5.463-.131-1.373-.294-4.186-.327-4.35.294"
    />
  </g>
</svg>
