<svg width="540" height="210" viewBox="0 0 540 210" fill="none" xmlns="http://www.w3.org/2000/svg">
<rect width="540" height="210" fill="black"/>
<path d="M221.832 132.848C222.126 133.272 222.541 133.484 223.078 133.484H223.127C223.583 133.484 224.039 132.995 224.496 132.018C224.952 131.04 225.375 129.705 225.766 128.011C226.157 126.317 226.523 124.614 226.866 122.904C227.208 121.194 227.55 119.345 227.892 117.358C227.941 117.016 227.981 116.763 228.014 116.6C229.187 109.678 230.457 103.26 231.826 97.3469C233.194 91.434 234.187 87.5899 234.806 85.8144C234.904 85.5212 234.986 85.2768 235.051 85.0814C235.116 84.8859 235.254 84.5276 235.466 84.0063C235.678 83.4851 235.898 83.029 236.126 82.6381C236.354 82.2471 236.631 81.848 236.956 81.4408C237.282 81.0336 237.641 80.7078 238.032 80.4635C238.422 80.2192 238.838 80.1051 239.278 80.1214C240.19 80.1214 240.874 80.4065 241.33 80.9766C241.786 81.5467 242.047 82.1983 242.112 82.9313C242.112 83.3385 242.014 83.6642 241.819 83.9086C241.623 84.1529 241.436 84.3077 241.257 84.3728C241.078 84.438 240.898 84.4624 240.719 84.4461C240.377 84.4461 240.068 84.3239 239.791 84.0796C239.514 83.8353 239.375 83.5014 239.375 83.0779C239.375 82.296 239.807 81.8318 240.67 81.6852L240.597 81.5874C240.548 81.5386 240.483 81.4815 240.402 81.4164C240.32 81.3512 240.255 81.3024 240.206 81.2698C239.962 81.1069 239.693 81.0255 239.4 81.0255C239.172 81.0255 238.96 81.1232 238.765 81.3187C238.569 81.5141 238.308 81.9702 237.983 82.6869C237.657 83.4036 237.339 84.3484 237.03 85.5212C236.72 86.694 236.338 88.3473 235.881 90.4811C235.425 92.615 234.969 95.1234 234.513 98.0066C233.552 103.463 232.55 108.619 231.508 113.473C230.465 118.327 229.651 121.845 229.065 124.028C228.478 126.211 228.03 127.774 227.721 128.719C226.466 132.514 224.919 134.412 223.078 134.412C222.427 134.412 221.832 134.16 221.295 133.655C220.757 133.15 220.456 132.457 220.391 131.578C220.391 131.008 220.545 130.617 220.855 130.405C221.164 130.193 221.474 130.087 221.783 130.087C222.126 130.087 222.435 130.21 222.712 130.454C222.989 130.698 223.127 131.032 223.127 131.456C223.127 132.238 222.696 132.702 221.832 132.848Z" fill="#F0F0F0"/>
<path d="M246.439 79.5631C246.439 79.5631 246.439 79.1197 246.439 78.2329C246.439 77.3462 246.75 76.6322 247.372 76.0909C247.993 75.5497 248.707 75.2733 249.514 75.2618C250.331 75.2618 251.057 75.5036 251.69 75.9873C252.324 76.471 252.64 77.0986 252.64 77.8702C252.64 78.2157 252.577 78.5381 252.45 78.8375C252.324 79.137 252.174 79.3788 252.001 79.5631C251.828 79.7473 251.65 79.9086 251.466 80.0467C251.281 80.1849 251.132 80.2886 251.016 80.3577C250.901 80.4268 250.838 80.4728 250.826 80.4959L251.068 80.6513C251.229 80.7665 251.391 80.8817 251.552 80.9968C251.713 81.112 251.805 81.1753 251.828 81.1868C252.692 81.8663 253.124 82.7243 253.124 83.7607C253.124 84.6705 252.79 85.4594 252.122 86.1273C251.454 86.7952 250.59 87.135 249.531 87.1465C248.494 87.1465 247.642 86.8528 246.974 86.2655C246.306 85.6782 245.972 84.9526 245.972 84.0889C245.972 82.8452 246.715 81.8087 248.201 80.9796L247.89 80.755C247.648 80.6053 247.492 80.4901 247.423 80.4095C246.767 79.8452 246.439 79.1197 246.439 78.2329V79.5631ZM250.17 80.0986L250.274 80.0295C250.343 79.9834 250.395 79.9489 250.429 79.9258C250.464 79.9028 250.521 79.8625 250.602 79.8049C250.682 79.7473 250.752 79.6897 250.809 79.6322C250.867 79.5746 250.93 79.5055 250.999 79.4249C251.068 79.3443 251.132 79.2694 251.189 79.2003C251.247 79.1312 251.304 79.0391 251.362 78.9239C251.42 78.8088 251.471 78.7109 251.517 78.6303C251.563 78.5496 251.592 78.4345 251.604 78.2848C251.615 78.1351 251.627 78.0084 251.638 77.9047C251.638 77.4095 251.471 76.9892 251.137 76.6437C250.803 76.2982 250.418 76.0794 249.98 75.9873C249.899 75.9758 249.709 75.97 249.41 75.97C248.938 75.97 248.494 76.1197 248.08 76.4191C247.665 76.7186 247.452 77.0928 247.441 77.542C247.441 77.8068 247.516 78.0487 247.665 78.2675C247.815 78.4863 247.965 78.6533 248.114 78.7684C248.264 78.8836 248.552 79.0679 248.978 79.3212C249.059 79.3788 249.122 79.4191 249.168 79.4421L250.17 80.0986ZM249.548 86.4037C250.216 86.4037 250.792 86.2079 251.276 85.8164C251.759 85.4248 252.001 84.9526 252.001 84.3999C252.001 84.2041 251.972 84.0198 251.915 83.8471C251.857 83.6743 251.788 83.5304 251.707 83.4152C251.627 83.3001 251.5 83.1734 251.327 83.0352C251.155 82.897 251.022 82.7934 250.93 82.7243C250.838 82.6552 250.671 82.5458 250.429 82.3961C250.187 82.2463 250.032 82.1485 249.963 82.1024C249.801 81.9987 249.629 81.8893 249.444 81.7742C249.26 81.659 249.111 81.5611 248.995 81.4805L248.857 81.3941C248.788 81.3941 248.621 81.492 248.356 81.6878C248.091 81.8836 247.815 82.2003 247.527 82.6379C247.239 83.0755 247.089 83.5477 247.078 84.0544C247.078 84.7338 247.326 85.2924 247.821 85.73C248.316 86.1676 248.892 86.3922 249.548 86.4037Z" fill="#F0F0F0"/>
<path d="M234.29 125.148C234.935 124.215 235.816 123.749 236.933 123.749C237.486 123.749 238.039 123.899 238.591 124.198C239.144 124.498 239.593 125.027 239.939 125.787C240.365 126.743 240.578 128.056 240.578 129.726C240.578 131.511 240.33 132.876 239.835 133.82C239.605 134.304 239.288 134.689 238.885 134.977C238.482 135.265 238.131 135.444 237.831 135.513C237.532 135.582 237.238 135.622 236.95 135.634C236.651 135.634 236.352 135.599 236.052 135.53C235.753 135.461 235.401 135.277 234.998 134.977C234.595 134.678 234.279 134.292 234.048 133.82C233.553 132.876 233.306 131.511 233.306 129.726C233.306 127.722 233.634 126.196 234.29 125.148ZM238.177 124.941C237.831 124.572 237.423 124.388 236.95 124.388C236.467 124.388 236.052 124.572 235.707 124.941C235.419 125.24 235.229 125.655 235.137 126.185C235.044 126.714 234.998 127.82 234.998 129.501C234.998 131.321 235.044 132.519 235.137 133.094C235.229 133.67 235.436 134.125 235.758 134.459C236.081 134.805 236.478 134.977 236.95 134.977C237.411 134.977 237.803 134.805 238.125 134.459C238.459 134.114 238.666 133.63 238.747 133.008C238.828 132.386 238.874 131.217 238.885 129.501C238.885 127.832 238.839 126.732 238.747 126.202C238.655 125.672 238.465 125.252 238.177 124.941Z" fill="#F0F0F0"/>
<path d="M263.388 104.066C263.388 103.659 263.234 103.455 262.924 103.455C262.533 103.455 262.126 103.691 261.703 104.163C261.279 104.636 260.929 105.361 260.652 106.338C260.636 106.354 260.619 106.379 260.603 106.411C260.587 106.444 260.579 106.468 260.579 106.485C260.579 106.501 260.562 106.517 260.53 106.533C260.497 106.55 260.473 106.558 260.456 106.558C260.44 106.558 260.408 106.558 260.359 106.558C260.31 106.558 260.245 106.558 260.163 106.558H259.821C259.723 106.46 259.675 106.387 259.675 106.338C259.675 106.224 259.74 105.988 259.87 105.629C260 105.271 260.196 104.848 260.456 104.359C260.717 103.87 261.075 103.455 261.531 103.113C261.988 102.771 262.501 102.592 263.071 102.575C263.755 102.575 264.284 102.771 264.659 103.162C265.034 103.553 265.229 104.009 265.245 104.53C265.245 104.807 265.221 105.019 265.172 105.165C265.172 105.263 265.05 105.621 264.806 106.24C264.561 106.859 264.309 107.584 264.048 108.415C263.787 109.246 263.641 109.97 263.608 110.589C263.608 111.029 263.649 111.388 263.73 111.664C263.942 112.365 264.455 112.715 265.27 112.715C265.872 112.715 266.434 112.438 266.956 111.884C267.477 111.331 267.884 110.687 268.177 109.954C268.471 109.221 268.707 108.545 268.886 107.926C269.065 107.307 269.155 106.859 269.155 106.582C269.155 106.208 269.09 105.882 268.959 105.605C268.829 105.328 268.682 105.116 268.519 104.97C268.357 104.823 268.21 104.677 268.08 104.53C267.949 104.383 267.884 104.204 267.884 103.992C267.884 103.634 268.039 103.3 268.348 102.991C268.658 102.681 268.992 102.526 269.35 102.526C269.66 102.526 269.937 102.673 270.181 102.966C270.425 103.259 270.556 103.732 270.572 104.383C270.572 104.823 270.474 105.499 270.279 106.411C270.083 107.324 269.782 108.342 269.375 109.465C268.967 110.589 268.389 111.559 267.64 112.373C266.891 113.187 266.027 113.603 265.05 113.619C264.007 113.619 263.177 113.35 262.558 112.813C261.955 112.292 261.654 111.518 261.654 110.492C261.654 109.987 261.719 109.465 261.849 108.928C261.979 108.39 262.313 107.438 262.851 106.069C263.209 105.027 263.388 104.359 263.388 104.066Z" fill="#F0F0F0"/>
<path d="M273.308 107.242C273.308 106.118 273.39 105.052 273.553 104.042C273.716 103.032 273.903 102.16 274.115 101.427C274.326 100.694 274.628 99.9775 275.019 99.2771C275.41 98.5767 275.719 98.031 275.947 97.6401C276.175 97.2492 276.517 96.8257 276.973 96.3696C277.429 95.9135 277.698 95.6366 277.78 95.5388C277.861 95.4411 278.065 95.2701 278.39 95.0257H278.708H278.806C279.034 95.0257 279.148 95.099 279.148 95.2456C279.148 95.2945 279.009 95.4655 278.732 95.7587C278.456 96.0519 278.122 96.4836 277.731 97.0537C277.34 97.6238 276.941 98.3242 276.533 99.155C276.126 99.9857 275.784 101.11 275.507 102.527C275.23 103.944 275.092 105.516 275.092 107.242C275.092 108.969 275.23 110.533 275.507 111.934C275.784 113.334 276.118 114.466 276.509 115.33C276.9 116.193 277.299 116.893 277.706 117.431C278.113 117.969 278.456 118.4 278.732 118.726C279.009 119.052 279.148 119.223 279.148 119.239C279.148 119.386 279.026 119.459 278.781 119.459H278.708H278.39L277.706 118.873C276.175 117.488 275.059 115.761 274.359 113.693C273.658 111.624 273.308 109.474 273.308 107.242Z" fill="#F0F0F0"/>
<path d="M281.151 103.944C281.037 103.83 280.98 103.748 280.98 103.699C280.98 103.634 281.005 103.504 281.054 103.308C281.103 103.113 281.143 102.999 281.176 102.966C281.208 102.885 281.282 102.844 281.396 102.844C281.51 102.844 281.925 102.836 282.642 102.82H283.937L284.401 100.865C284.45 100.686 284.507 100.45 284.572 100.156C284.637 99.8632 284.694 99.6515 284.743 99.5212C284.792 99.3908 284.841 99.228 284.89 99.0325C284.939 98.837 285.004 98.6986 285.085 98.6171C285.167 98.5357 285.248 98.4379 285.329 98.3239C285.411 98.2099 285.525 98.1366 285.672 98.104C285.818 98.0715 285.965 98.0552 286.111 98.0552C286.405 98.0715 286.608 98.161 286.722 98.3239C286.836 98.4868 286.893 98.6416 286.893 98.7882C286.893 98.9022 286.82 99.285 286.673 99.9365C286.527 100.588 286.364 101.231 286.185 101.867L285.94 102.771C285.94 102.803 286.348 102.82 287.162 102.82H288.408C288.522 102.934 288.579 103.023 288.579 103.088C288.579 103.447 288.473 103.732 288.261 103.944H285.647L284.767 107.486C284.132 110.093 283.815 111.493 283.815 111.689C283.815 112.373 284.035 112.715 284.474 112.715C285.044 112.715 285.598 112.438 286.136 111.884C286.673 111.331 287.105 110.646 287.431 109.832C287.463 109.734 287.504 109.677 287.553 109.661C287.602 109.645 287.724 109.628 287.919 109.612H288.017C288.261 109.612 288.384 109.677 288.384 109.808C288.384 109.856 288.359 109.954 288.31 110.101C288.229 110.361 288.082 110.671 287.871 111.029C287.659 111.388 287.382 111.77 287.04 112.178C286.698 112.585 286.282 112.927 285.794 113.204C285.305 113.481 284.808 113.619 284.303 113.619C283.815 113.619 283.35 113.497 282.911 113.253C282.471 113.008 282.153 112.585 281.958 111.982C281.925 111.852 281.909 111.632 281.909 111.322V110.883L282.764 107.462C283.334 105.165 283.627 104.009 283.644 103.992C283.644 103.96 283.228 103.944 282.397 103.944H281.151Z" fill="#F0F0F0"/>
<path d="M290.802 95.0502L290.9 95.0257C290.982 95.0257 291.063 95.0257 291.145 95.0257H291.438L292.122 95.6121C293.653 96.9967 294.769 98.7233 295.469 100.792C296.17 102.861 296.52 105.011 296.52 107.242C296.52 108.35 296.438 109.417 296.276 110.443C296.113 111.469 295.925 112.341 295.714 113.057C295.502 113.774 295.2 114.491 294.81 115.208C294.419 115.924 294.109 116.47 293.881 116.845C293.653 117.219 293.319 117.635 292.879 118.091C292.439 118.547 292.179 118.816 292.097 118.897C292.016 118.978 291.829 119.133 291.535 119.361C291.487 119.41 291.454 119.443 291.438 119.459H291.145C291.014 119.459 290.925 119.459 290.876 119.459C290.827 119.459 290.786 119.435 290.754 119.386C290.721 119.337 290.697 119.264 290.68 119.166C290.697 119.149 290.786 119.044 290.949 118.848C293.474 116.226 294.736 112.357 294.736 107.242C294.736 102.128 293.474 98.2591 290.949 95.6366C290.786 95.4411 290.697 95.3352 290.68 95.3189C290.68 95.1886 290.721 95.099 290.802 95.0502Z" fill="#F0F0F0"/>
<path d="M307.784 96.6635C307.8 96.6635 308.386 96.6227 309.543 96.5413C310.699 96.4599 311.294 96.411 311.326 96.3947C311.522 96.3947 311.62 96.4599 311.62 96.5902C311.62 96.7042 311.025 99.1638 309.836 103.969C308.647 108.774 308.036 111.226 308.003 111.323C307.971 111.421 307.963 111.543 307.979 111.69C307.979 112.374 308.207 112.716 308.663 112.716C308.81 112.7 308.973 112.627 309.152 112.496C309.494 112.17 309.828 111.389 310.154 110.151C310.251 109.825 310.333 109.654 310.398 109.638C310.43 109.621 310.512 109.613 310.642 109.613H310.74H310.838C311.082 109.613 311.204 109.678 311.204 109.809C311.204 109.89 311.18 110.02 311.131 110.199C310.919 111.014 310.675 111.674 310.398 112.179C310.121 112.684 309.893 113.009 309.714 113.156C309.535 113.303 309.307 113.433 309.03 113.547C308.899 113.579 308.704 113.596 308.443 113.596C307.889 113.596 307.425 113.474 307.051 113.229C306.676 112.985 306.432 112.732 306.318 112.472L306.171 112.105C306.155 112.089 306.122 112.097 306.073 112.13C306.041 112.162 306.008 112.195 305.975 112.227C305.014 113.14 304.037 113.596 303.043 113.596C302.148 113.596 301.358 113.27 300.673 112.618C299.989 111.967 299.647 110.932 299.647 109.515C299.647 108.733 299.81 107.935 300.136 107.121C300.462 106.306 300.853 105.606 301.309 105.02C302.074 104.091 302.84 103.448 303.605 103.089C304.371 102.731 305.063 102.552 305.682 102.552C306.594 102.552 307.279 102.894 307.735 103.578C307.816 103.676 307.857 103.708 307.857 103.676C307.873 103.611 308.093 102.723 308.517 101.013C308.94 99.3023 309.168 98.3982 309.201 98.3005C309.201 98.0887 309.144 97.9584 309.03 97.9096C308.916 97.8607 308.598 97.82 308.077 97.7874H307.564C307.466 97.6897 307.417 97.6245 307.417 97.5919C307.417 97.5593 307.433 97.4046 307.466 97.1277C307.547 96.8182 307.653 96.6635 307.784 96.6635ZM307.441 105.386C307.067 104.099 306.456 103.456 305.609 103.456C305.039 103.456 304.493 103.708 303.972 104.213C303.451 104.718 303.043 105.378 302.75 106.192C302.278 107.479 301.944 108.815 301.749 110.199C301.749 110.248 301.749 110.338 301.749 110.468C301.749 110.599 301.74 110.696 301.724 110.761C301.724 111.494 301.871 111.999 302.164 112.276C302.457 112.553 302.807 112.7 303.215 112.716C304.094 112.716 304.998 112.13 305.927 110.957L306.122 110.688L307.441 105.386Z" fill="#F0F0F0"/>
<path d="M312.182 103.944C312.068 103.83 312.011 103.748 312.011 103.699C312.011 103.634 312.035 103.504 312.084 103.308C312.133 103.113 312.173 102.999 312.206 102.966C312.239 102.885 312.312 102.844 312.426 102.844C312.54 102.844 312.955 102.836 313.672 102.82H314.967L315.431 100.865C315.48 100.686 315.537 100.45 315.602 100.156C315.667 99.8632 315.724 99.6515 315.773 99.5212C315.822 99.3908 315.871 99.228 315.92 99.0325C315.969 98.837 316.034 98.6986 316.115 98.6171C316.197 98.5357 316.278 98.4379 316.36 98.3239C316.441 98.2099 316.555 98.1366 316.702 98.104C316.848 98.0715 316.995 98.0552 317.142 98.0552C317.435 98.0715 317.638 98.161 317.752 98.3239C317.866 98.4868 317.923 98.6416 317.923 98.7882C317.923 98.9022 317.85 99.285 317.704 99.9365C317.557 100.588 317.394 101.231 317.215 101.867L316.971 102.771C316.971 102.803 317.378 102.82 318.192 102.82H319.438C319.552 102.934 319.609 103.023 319.609 103.088C319.609 103.447 319.503 103.732 319.292 103.944H316.677L315.798 107.486C315.162 110.093 314.845 111.493 314.845 111.689C314.845 112.373 315.065 112.715 315.505 112.715C316.075 112.715 316.628 112.438 317.166 111.884C317.704 111.331 318.135 110.646 318.461 109.832C318.494 109.734 318.534 109.677 318.583 109.661C318.632 109.645 318.754 109.628 318.95 109.612H319.047C319.292 109.612 319.414 109.677 319.414 109.808C319.414 109.856 319.389 109.954 319.341 110.101C319.259 110.361 319.112 110.671 318.901 111.029C318.689 111.388 318.412 111.77 318.07 112.178C317.728 112.585 317.313 112.927 316.824 113.204C316.335 113.481 315.838 113.619 315.333 113.619C314.845 113.619 314.381 113.497 313.941 113.253C313.501 113.008 313.183 112.585 312.988 111.982C312.955 111.852 312.939 111.632 312.939 111.322V110.883L313.794 107.462C314.364 105.165 314.657 104.009 314.674 103.992C314.674 103.96 314.258 103.944 313.428 103.944H312.182Z" fill="#F0F0F0"/>
<path d="M96.84 34.7517C96.6133 34.7517 96.4267 34.6684 96.28 34.5017C96.14 34.3351 96.0767 34.1117 96.09 33.8317C96.1233 33.0117 96.26 32.1751 96.5 31.3217C96.74 30.4617 97.0567 29.6884 97.45 29.0017C97.5567 28.8217 97.69 28.6784 97.85 28.5717C98.0167 28.4651 98.19 28.4117 98.37 28.4117C98.61 28.4117 98.7833 28.4984 98.89 28.6717C98.9967 28.8384 98.9867 29.0517 98.86 29.3117C98.4533 30.1517 98.15 30.9517 97.95 31.7117C97.75 32.4651 97.6367 33.2217 97.61 33.9817C97.6033 34.2017 97.5233 34.3851 97.37 34.5317C97.2233 34.6784 97.0467 34.7517 96.84 34.7517ZM100.26 34.7017C100.033 34.7017 99.8467 34.6184 99.7 34.4517C99.5533 34.2784 99.49 34.0484 99.51 33.7617C99.5767 32.9884 99.74 32.1784 100 31.3317C100.267 30.4784 100.587 29.7351 100.96 29.1017C101.06 28.9351 101.183 28.8051 101.33 28.7117C101.483 28.6117 101.64 28.5617 101.8 28.5617C102.033 28.5617 102.2 28.6517 102.3 28.8317C102.4 29.0051 102.387 29.2217 102.26 29.4817C101.973 30.0684 101.723 30.7451 101.51 31.5117C101.303 32.2784 101.14 33.1217 101.02 34.0417C100.993 34.2417 100.91 34.4017 100.77 34.5217C100.63 34.6417 100.46 34.7017 100.26 34.7017ZM107.2 43.8317C106.513 43.8317 105.846 43.7017 105.2 43.4417C104.56 43.1884 104.003 42.8251 103.53 42.3517C103.056 41.8784 102.71 41.3317 102.49 40.7117C102.383 40.4184 102.383 40.1651 102.49 39.9517C102.596 39.7384 102.783 39.6317 103.05 39.6317C103.39 39.6317 103.643 39.8317 103.81 40.2317C104.11 40.9584 104.553 41.5251 105.14 41.9317C105.733 42.3384 106.4 42.5417 107.14 42.5417C107.926 42.5417 108.55 42.3317 109.01 41.9117C109.476 41.4917 109.71 40.9251 109.71 40.2117C109.71 39.8651 109.636 39.5451 109.49 39.2517C109.343 38.9584 109.113 38.6851 108.8 38.4317C108.486 38.1784 107.95 37.8617 107.19 37.4817C106.283 37.0284 105.613 36.6151 105.18 36.2417C104.746 35.8617 104.423 35.4384 104.21 34.9717C103.996 34.5051 103.89 33.9751 103.89 33.3817C103.89 32.6817 104.07 32.0484 104.43 31.4817C104.79 30.9084 105.29 30.4584 105.93 30.1317C106.57 29.8051 107.26 29.6417 108 29.6417C108.68 29.6417 109.333 29.7551 109.96 29.9817C110.586 30.2017 111.12 30.5084 111.56 30.9017C111.753 31.0751 111.87 31.2684 111.91 31.4817C111.95 31.6884 111.906 31.8751 111.78 32.0417C111.666 32.1884 111.506 32.2717 111.3 32.2917C111.093 32.3051 110.906 32.2517 110.74 32.1317C110.573 32.0051 110.486 31.8417 110.48 31.6417C110.006 31.3817 109.576 31.1951 109.19 31.0817C108.81 30.9684 108.433 30.9117 108.06 30.9117C107.266 30.9117 106.626 31.1317 106.14 31.5717C105.653 32.0117 105.41 32.5917 105.41 33.3117C105.41 33.6984 105.486 34.0484 105.64 34.3617C105.793 34.6751 106.03 34.9651 106.35 35.2317C106.676 35.4984 107.236 35.8317 108.03 36.2317C108.95 36.6917 109.61 37.0951 110.01 37.4417C110.41 37.7884 110.71 38.1784 110.91 38.6117C111.11 39.0384 111.21 39.5251 111.21 40.0717C111.21 40.7917 111.04 41.4384 110.7 42.0117C110.36 42.5851 109.883 43.0317 109.27 43.3517C108.656 43.6717 107.966 43.8317 107.2 43.8317ZM120.883 43.5417C120.597 43.5417 120.357 43.4217 120.163 43.1817C119.97 42.9417 119.84 42.5884 119.773 42.1217C119.693 41.5751 119.703 40.6984 119.803 39.4917C119.483 40.3251 119.153 41.0084 118.813 41.5417C118.387 42.2217 117.933 42.7184 117.453 43.0317C116.98 43.3451 116.44 43.5017 115.833 43.5017C115.013 43.5017 114.383 43.2584 113.943 42.7717C113.503 42.2784 113.283 41.5817 113.283 40.6817C113.283 40.2617 113.317 39.7717 113.383 39.2117C113.45 38.6517 113.543 38.0717 113.663 37.4717C113.737 37.0917 113.823 36.7017 113.923 36.3017C114.03 35.8951 114.163 35.4217 114.323 34.8817C114.497 34.2951 114.797 34.0017 115.223 34.0017C115.477 34.0017 115.663 34.0784 115.783 34.2317C115.91 34.3784 115.947 34.5651 115.893 34.7917C115.867 34.8984 115.763 35.2617 115.583 35.8817C115.41 36.5017 115.263 37.0717 115.143 37.5917C114.857 38.8784 114.713 39.8584 114.713 40.5317C114.713 41.6384 115.157 42.1917 116.043 42.1917C116.417 42.1917 116.78 42.0284 117.133 41.7017C117.493 41.3751 117.873 40.8517 118.273 40.1317C118.6 39.5517 118.903 38.9451 119.183 38.3117C119.463 37.6717 119.733 36.9784 119.993 36.2317C120.087 35.4384 120.233 34.8417 120.433 34.4417C120.633 34.0351 120.88 33.8317 121.173 33.8317C121.387 33.8317 121.543 33.8951 121.643 34.0217C121.743 34.1484 121.793 34.3517 121.793 34.6317C121.793 34.8584 121.76 35.1351 121.693 35.4617C121.633 35.7884 121.54 36.1751 121.413 36.6217C121.267 37.8417 121.17 38.9017 121.123 39.8017C121.083 40.7017 121.093 41.4684 121.153 42.1017C121.467 42.4217 121.623 42.7051 121.623 42.9517C121.623 43.1317 121.557 43.2751 121.423 43.3817C121.29 43.4884 121.11 43.5417 120.883 43.5417ZM130.288 43.6017C129.948 43.6017 129.748 43.4284 129.688 43.0817C129.635 42.7284 129.718 42.1351 129.938 41.3017C130.325 39.0951 130.498 37.5484 130.458 36.6617C130.425 35.7684 130.175 35.3217 129.708 35.3217C129.348 35.3217 128.938 35.5417 128.478 35.9817C128.025 36.4217 127.598 37.0084 127.198 37.7417C126.805 38.4617 126.475 39.1384 126.208 39.7717C125.948 40.4051 125.718 41.0884 125.518 41.8217C125.511 42.3817 125.445 42.7851 125.318 43.0317C125.191 43.2717 124.985 43.3917 124.698 43.3917C124.478 43.3917 124.298 43.3117 124.158 43.1517C124.025 42.9851 123.958 42.7484 123.958 42.4417C123.958 42.2017 124.001 41.9284 124.088 41.6217C124.215 40.6351 124.321 39.7284 124.408 38.9017C124.495 38.0751 124.561 37.3151 124.608 36.6217C124.655 35.9217 124.685 35.2917 124.698 34.7317C124.711 34.0451 124.968 33.7017 125.468 33.7017C125.708 33.7017 125.891 33.7884 126.018 33.9617C126.145 34.1351 126.205 34.3917 126.198 34.7317C126.191 35.1784 126.165 35.6717 126.118 36.2117C126.078 36.7517 126.021 37.3284 125.948 37.9417C126.408 36.6951 127.005 35.7084 127.738 34.9817C128.471 34.2484 129.235 33.8817 130.028 33.8817C131.521 33.8817 132.128 35.1451 131.848 37.6717C132.361 36.4851 132.968 35.5751 133.668 34.9417C134.375 34.3084 135.125 33.9917 135.918 33.9917C136.531 33.9917 137.021 34.2117 137.388 34.6517C137.761 35.0917 137.948 35.7084 137.948 36.5017C137.948 36.7884 137.915 37.1484 137.848 37.5817C137.781 38.0084 137.661 38.6217 137.488 39.4217C137.381 39.9151 137.298 40.3617 137.238 40.7617C137.178 41.1617 137.148 41.4951 137.148 41.7617C137.148 41.9417 137.188 42.0751 137.268 42.1617C137.355 42.2417 137.511 42.3017 137.738 42.3417C138.031 42.4017 138.178 42.5784 138.178 42.8717C138.178 43.0584 138.108 43.2151 137.968 43.3417C137.828 43.4684 137.638 43.5317 137.398 43.5317C136.831 43.5317 136.405 43.3617 136.118 43.0217C135.838 42.6817 135.698 42.1684 135.698 41.4817C135.698 40.8951 135.795 40.1817 135.988 39.3417C136.135 38.7084 136.241 38.1684 136.308 37.7217C136.381 37.2751 136.418 36.9151 136.418 36.6417C136.418 36.2284 136.348 35.9117 136.208 35.6917C136.068 35.4651 135.875 35.3517 135.628 35.3517C135.255 35.3517 134.841 35.5584 134.388 35.9717C133.941 36.3851 133.498 36.9651 133.058 37.7117C132.738 38.2517 132.441 38.8317 132.168 39.4517C131.901 40.0651 131.641 40.7417 131.388 41.4817C131.315 41.9751 131.228 42.3784 131.128 42.6917C131.035 43.0051 130.921 43.2351 130.788 43.3817C130.655 43.5284 130.488 43.6017 130.288 43.6017ZM140.559 34.8717C140.325 34.8717 140.162 34.7884 140.069 34.6217C139.982 34.4484 140.009 34.2317 140.149 33.9717C140.509 33.3051 140.772 32.5951 140.939 31.8417C141.112 31.0884 141.195 30.2484 141.189 29.3217C141.189 29.1084 141.262 28.9317 141.409 28.7917C141.555 28.6517 141.732 28.5817 141.939 28.5817C142.165 28.5817 142.355 28.6717 142.509 28.8517C142.662 29.0251 142.739 29.2651 142.739 29.5717C142.745 30.4584 142.632 31.3317 142.399 32.1917C142.172 33.0451 141.852 33.7651 141.439 34.3517C141.319 34.5184 141.179 34.6484 141.019 34.7417C140.865 34.8284 140.712 34.8717 140.559 34.8717ZM144.279 34.9517C144.059 34.9517 143.892 34.8617 143.779 34.6817C143.672 34.5017 143.669 34.2717 143.769 33.9917C144.029 33.2984 144.222 32.6151 144.349 31.9417C144.482 31.2684 144.579 30.4217 144.639 29.4017C144.652 29.1817 144.729 29.0051 144.869 28.8717C145.009 28.7317 145.185 28.6617 145.399 28.6617C145.639 28.6617 145.835 28.7584 145.989 28.9517C146.142 29.1384 146.215 29.3984 146.209 29.7317C146.195 30.5251 146.095 31.3084 145.909 32.0817C145.729 32.8551 145.469 33.5951 145.129 34.3017C145.029 34.5017 144.902 34.6617 144.749 34.7817C144.602 34.8951 144.445 34.9517 144.279 34.9517ZM154.016 43.3217C153.202 43.3217 152.586 43.0451 152.166 42.4917C151.746 41.9317 151.572 41.1551 151.646 40.1617C151.706 39.4151 151.889 38.6617 152.196 37.9017C152.502 37.1351 152.902 36.4584 153.396 35.8717C153.896 35.2784 154.452 34.8251 155.066 34.5117C155.679 34.1984 156.329 34.0417 157.016 34.0417C157.336 34.0417 157.666 34.0784 158.006 34.1517C158.346 34.2184 158.649 34.3117 158.916 34.4317C159.002 34.3851 159.109 34.3617 159.236 34.3617C159.456 34.3617 159.619 34.4284 159.726 34.5617C159.839 34.6951 159.896 34.9117 159.896 35.2117C159.896 35.7117 159.722 36.5417 159.376 37.7017C159.302 38.1351 159.246 38.5751 159.206 39.0217C159.172 39.4684 159.156 39.9084 159.156 40.3417C159.156 40.7684 159.169 41.0817 159.196 41.2817C159.222 41.4751 159.266 41.6284 159.326 41.7417C159.372 41.8351 159.466 41.9217 159.606 42.0017C159.752 42.0751 159.856 42.1317 159.916 42.1717C160.082 42.2917 160.166 42.4451 160.166 42.6317C160.166 42.8184 160.092 42.9784 159.946 43.1117C159.799 43.2451 159.606 43.3117 159.366 43.3117C159.132 43.3117 158.902 43.2451 158.676 43.1117C158.456 42.9784 158.279 42.8084 158.146 42.6017C158.019 42.3951 157.919 42.1351 157.846 41.8217C157.772 41.5017 157.736 41.1417 157.736 40.7417C157.736 40.5951 157.739 40.4817 157.746 40.4017C157.232 41.3817 156.669 42.1151 156.056 42.6017C155.449 43.0817 154.769 43.3217 154.016 43.3217ZM154.326 41.9717C154.759 41.9717 155.186 41.7917 155.606 41.4317C156.026 41.0651 156.442 40.5051 156.856 39.7517C157.269 38.9917 157.676 38.0317 158.076 36.8717C158.122 36.5651 158.166 36.3051 158.206 36.0917C158.252 35.8717 158.296 35.6784 158.336 35.5117C157.842 35.3517 157.396 35.2717 156.996 35.2717C156.529 35.2717 156.082 35.3851 155.656 35.6117C155.236 35.8317 154.846 36.1617 154.486 36.6017C154.126 37.0417 153.822 37.5617 153.576 38.1617C153.329 38.7617 153.176 39.3451 153.116 39.9117C153.049 40.5384 153.122 41.0384 153.336 41.4117C153.549 41.7851 153.879 41.9717 154.326 41.9717ZM164.293 43.3617C164.22 43.3617 164.143 43.3517 164.063 43.3317C163.443 43.1917 162.987 42.8617 162.693 42.3417C162.547 42.0884 162.44 41.7817 162.373 41.4217C162.307 41.0617 162.273 40.6117 162.273 40.0717C162.273 39.3051 162.333 38.4117 162.453 37.3917C162.527 36.7651 162.643 35.8917 162.803 34.7717C162.963 33.6517 163.067 32.8884 163.113 32.4817C163.167 32.0351 163.223 31.5851 163.283 31.1317C163.343 30.6784 163.387 30.3117 163.413 30.0317C163.433 29.7984 163.517 29.6117 163.663 29.4717C163.81 29.3317 163.993 29.2617 164.213 29.2617C164.427 29.2617 164.603 29.3384 164.743 29.4917C164.89 29.6384 164.957 29.8384 164.943 30.0917C164.923 30.4051 164.89 30.7417 164.843 31.1017C164.803 31.4617 164.713 32.0984 164.573 33.0117C164.347 34.4384 164.19 35.4584 164.103 36.0717C164.023 36.6851 163.953 37.2617 163.893 37.8017C163.84 38.2751 163.8 38.7084 163.773 39.1017C163.747 39.4884 163.733 39.7984 163.733 40.0317C163.733 40.5317 163.75 40.8951 163.783 41.1217C163.823 41.3484 163.893 41.5451 163.993 41.7117C164.093 41.8784 164.28 42.0084 164.553 42.1017C164.86 42.2084 165.013 42.4084 165.013 42.7017C165.013 42.8817 164.947 43.0384 164.813 43.1717C164.68 43.2984 164.507 43.3617 164.293 43.3617ZM169.141 43.3517C168.648 43.3517 168.221 43.2084 167.861 42.9217C167.501 42.6284 167.248 42.2117 167.101 41.6717C166.968 41.1651 166.905 40.4751 166.911 39.6017C166.918 38.7284 166.991 37.6684 167.131 36.4217C167.251 35.3817 167.408 34.3351 167.601 33.2817C167.795 32.2284 168.028 31.1551 168.301 30.0617C168.415 29.6217 168.671 29.4017 169.071 29.4017C169.331 29.4017 169.521 29.4984 169.641 29.6917C169.761 29.8784 169.788 30.1217 169.721 30.4217C169.315 32.3551 169.055 33.6717 168.941 34.3717C168.828 35.0651 168.735 35.7617 168.661 36.4617C168.535 37.6684 168.458 38.6517 168.431 39.4117C168.411 40.1651 168.438 40.7317 168.511 41.1117C168.565 41.3851 168.661 41.6017 168.801 41.7617C168.948 41.9151 169.205 42.0351 169.571 42.1217C169.851 42.1884 170.045 42.2584 170.151 42.3317C170.258 42.4051 170.311 42.5017 170.311 42.6217C170.311 42.8284 170.205 43.0017 169.991 43.1417C169.778 43.2817 169.495 43.3517 169.141 43.3517ZM178.998 43.6217C177.825 43.6217 176.948 43.1784 176.368 42.2917C175.788 41.4051 175.588 40.1817 175.768 38.6217C175.875 37.6751 176.125 36.8484 176.518 36.1417C176.918 35.4351 177.438 34.8884 178.078 34.5017C178.725 34.1084 179.425 33.9117 180.178 33.9117C180.592 33.9117 180.942 33.9784 181.228 34.1117C181.515 34.2451 181.695 34.4417 181.768 34.7017C182.588 35.0484 183.145 35.7051 183.438 36.6717C183.732 37.6384 183.698 38.7417 183.338 39.9817C183.138 40.6684 182.822 41.2917 182.388 41.8517C181.955 42.4117 181.445 42.8484 180.858 43.1617C180.272 43.4684 179.652 43.6217 178.998 43.6217ZM179.048 42.2917C179.688 42.2917 180.285 42.0284 180.838 41.5017C181.398 40.9684 181.782 40.2784 181.988 39.4317C182.242 38.3984 182.225 37.5251 181.938 36.8117C181.652 36.0984 181.165 35.6817 180.478 35.5617C180.232 35.5217 180.108 35.3951 180.108 35.1817C179.382 35.2017 178.762 35.5284 178.248 36.1617C177.742 36.7884 177.418 37.6551 177.278 38.7617C177.138 39.9017 177.218 40.7751 177.518 41.3817C177.825 41.9884 178.335 42.2917 179.048 42.2917ZM186.932 43.5017C186.712 43.5017 186.539 43.4217 186.412 43.2617C186.286 43.1084 186.222 42.8751 186.222 42.5617C186.229 41.9951 186.252 41.3184 186.292 40.5317C186.339 39.7451 186.399 38.9284 186.472 38.0817C186.546 37.2284 186.632 36.4151 186.732 35.6417C186.626 35.6484 186.516 35.6584 186.402 35.6717C186.289 35.6784 186.046 35.7017 185.672 35.7417C185.439 35.7684 185.249 35.7217 185.102 35.6017C184.956 35.4751 184.882 35.3017 184.882 35.0817C184.882 34.9017 184.932 34.7584 185.032 34.6517C185.139 34.5451 185.326 34.4584 185.592 34.3917C185.939 34.3051 186.386 34.2351 186.932 34.1817C186.986 33.8484 187.039 33.5384 187.092 33.2517C187.146 32.9651 187.202 32.7017 187.262 32.4617C187.536 31.2951 187.922 30.4351 188.422 29.8817C188.929 29.3217 189.589 29.0417 190.402 29.0417C190.856 29.0417 191.262 29.1384 191.622 29.3317C191.989 29.5184 192.269 29.7751 192.462 30.1017C192.542 30.2351 192.582 30.3651 192.582 30.4917C192.589 30.6117 192.562 30.7151 192.502 30.8017C192.416 30.9217 192.302 30.9951 192.162 31.0217C192.029 31.0484 191.906 31.0117 191.792 30.9117C191.539 30.6851 191.319 30.5317 191.132 30.4517C190.952 30.3717 190.752 30.3317 190.532 30.3317C190.032 30.3317 189.629 30.5451 189.322 30.9717C189.016 31.3984 188.779 32.0851 188.612 33.0317C188.572 33.2651 188.539 33.4617 188.512 33.6217C188.486 33.7817 188.462 33.9351 188.442 34.0817C188.576 34.0751 188.722 34.0717 188.882 34.0717C189.042 34.0651 189.276 34.0617 189.582 34.0617C189.862 34.0617 190.112 34.0651 190.332 34.0717C190.552 34.0784 190.752 34.0884 190.932 34.1017C191.326 34.1351 191.522 34.3217 191.522 34.6617C191.522 34.8484 191.469 34.9984 191.362 35.1117C191.262 35.2251 191.109 35.2917 190.902 35.3117C190.749 35.3251 190.372 35.3517 189.772 35.3917C189.172 35.4317 188.666 35.4684 188.252 35.5017C188.159 36.2551 188.076 37.0684 188.002 37.9417C187.929 38.8084 187.826 40.3617 187.692 42.6017C187.652 43.2017 187.399 43.5017 186.932 43.5017ZM199.788 43.4917C198.948 43.4917 198.302 43.2684 197.848 42.8217C197.402 42.3751 197.155 41.7017 197.108 40.8017C197.075 40.2151 197.095 39.4951 197.168 38.6417C197.248 37.7817 197.375 36.8151 197.548 35.7417C197.462 35.7484 197.368 35.7551 197.268 35.7617C197.175 35.7684 197.002 35.7784 196.748 35.7917C196.495 35.8051 196.292 35.7584 196.138 35.6517C195.992 35.5384 195.918 35.3717 195.918 35.1517C195.918 34.7851 196.178 34.5551 196.698 34.4617C196.765 34.4484 196.862 34.4351 196.988 34.4217C197.122 34.4017 197.395 34.3717 197.808 34.3317C197.882 33.9651 197.958 33.6084 198.038 33.2617C198.125 32.9084 198.208 32.5784 198.288 32.2717C198.428 31.7717 198.698 31.5217 199.098 31.5217C199.338 31.5217 199.512 31.6184 199.618 31.8117C199.732 32.0051 199.748 32.2751 199.668 32.6217C199.628 32.8084 199.582 33.0284 199.528 33.2817C199.475 33.5284 199.412 33.8351 199.338 34.2017C199.778 34.1684 200.242 34.1417 200.728 34.1217C201.215 34.1017 201.588 34.0917 201.848 34.0917C202.082 34.0917 202.265 34.1451 202.398 34.2517C202.538 34.3584 202.608 34.5051 202.608 34.6917C202.608 34.8584 202.555 34.9984 202.448 35.1117C202.348 35.2184 202.195 35.2884 201.988 35.3217C201.842 35.3417 201.638 35.3684 201.378 35.4017C201.125 35.4284 200.362 35.4984 199.088 35.6117C198.902 36.7251 198.768 37.7017 198.688 38.5417C198.608 39.3817 198.588 40.0717 198.628 40.6117C198.668 41.1851 198.782 41.5917 198.968 41.8317C199.162 42.0651 199.475 42.1817 199.908 42.1817C200.302 42.1817 200.815 42.0551 201.448 41.8017C201.628 41.7284 201.778 41.7317 201.898 41.8117C202.025 41.8917 202.088 42.0217 202.088 42.2017C202.088 42.4084 202.018 42.5817 201.878 42.7217C201.365 43.2351 200.668 43.4917 199.788 43.4917ZM211.829 43.8317C211.663 43.8317 211.473 43.7817 211.259 43.6817C210.959 43.5351 210.729 43.3051 210.569 42.9917C210.416 42.6784 210.339 42.2951 210.339 41.8417C210.339 41.5817 210.366 41.2717 210.419 40.9117C210.473 40.5517 210.596 39.9284 210.789 39.0417C210.936 38.3751 211.039 37.8351 211.099 37.4217C211.166 37.0017 211.199 36.6417 211.199 36.3417C211.199 35.6617 210.959 35.3217 210.479 35.3217C210.146 35.3217 209.729 35.5351 209.229 35.9617C208.729 36.3884 208.196 36.9817 207.629 37.7417C206.763 38.9017 206.029 40.1984 205.429 41.6317C205.429 42.2717 205.349 42.7517 205.189 43.0717C205.029 43.3851 204.789 43.5417 204.469 43.5417C203.989 43.5417 203.749 43.1951 203.749 42.5017C203.749 42.2417 203.796 41.9184 203.889 41.5317C203.969 40.8384 204.086 39.8784 204.239 38.6517C204.393 37.4251 204.489 36.6351 204.529 36.2817C204.569 35.9284 204.679 34.9851 204.859 33.4517C205.046 31.9117 205.196 30.6951 205.309 29.8017C205.336 29.6017 205.416 29.4384 205.549 29.3117C205.689 29.1851 205.853 29.1217 206.039 29.1217C206.259 29.1217 206.436 29.2051 206.569 29.3717C206.709 29.5317 206.769 29.7551 206.749 30.0417C206.683 30.8551 206.599 31.7051 206.499 32.5917C206.406 33.4717 206.286 34.4451 206.139 35.5117C206.066 36.0451 205.986 36.5851 205.899 37.1317C205.813 37.6784 205.716 38.2284 205.609 38.7817C206.043 37.8817 206.553 37.0417 207.139 36.2617C207.733 35.4684 208.336 34.8617 208.949 34.4417C209.569 34.0217 210.173 33.8117 210.759 33.8117C211.379 33.8117 211.856 34.0117 212.189 34.4117C212.523 34.8117 212.689 35.3884 212.689 36.1417C212.689 36.5084 212.653 36.9284 212.579 37.4017C212.513 37.8751 212.393 38.4851 212.219 39.2317C212.046 39.9984 211.933 40.5417 211.879 40.8617C211.826 41.1817 211.799 41.4417 211.799 41.6417C211.799 42.0351 211.969 42.3884 212.309 42.7017C212.456 42.8417 212.529 43.0017 212.529 43.1817C212.529 43.3617 212.463 43.5151 212.329 43.6417C212.203 43.7684 212.036 43.8317 211.829 43.8317ZM218.236 43.4717C217.369 43.4717 216.633 43.2584 216.026 42.8317C215.426 42.4051 215.019 41.7951 214.806 41.0017C214.593 40.2084 214.596 39.2917 214.816 38.2517C214.996 37.4117 215.309 36.6651 215.756 36.0117C216.209 35.3517 216.763 34.8417 217.416 34.4817C218.076 34.1151 218.789 33.9317 219.556 33.9317C220.623 33.9317 221.439 34.1784 222.006 34.6717C222.573 35.1584 222.793 35.8284 222.666 36.6817C222.586 37.2017 222.366 37.6551 222.006 38.0417C221.653 38.4284 221.179 38.7284 220.586 38.9417C219.999 39.1551 219.356 39.2617 218.656 39.2617C217.749 39.2617 216.929 39.1517 216.196 38.9317C216.023 39.9317 216.119 40.7217 216.486 41.3017C216.853 41.8751 217.436 42.1617 218.236 42.1617C218.669 42.1617 219.096 42.0917 219.516 41.9517C219.936 41.8117 220.319 41.6117 220.666 41.3517C220.813 41.2451 220.949 41.2051 221.076 41.2317C221.209 41.2517 221.309 41.3251 221.376 41.4517C221.449 41.5717 221.479 41.7017 221.466 41.8417C221.453 41.9751 221.406 42.0884 221.326 42.1817C220.606 43.0417 219.576 43.4717 218.236 43.4717ZM218.356 38.0617C219.136 38.0617 219.779 37.9284 220.286 37.6617C220.799 37.3884 221.083 37.0184 221.136 36.5517C221.183 36.1451 221.073 35.8284 220.806 35.6017C220.546 35.3684 220.153 35.2517 219.626 35.2517C218.939 35.2517 218.316 35.4817 217.756 35.9417C217.196 36.3951 216.769 37.0284 216.476 37.8417C217.103 37.9884 217.729 38.0617 218.356 38.0617ZM230.403 43.3217C229.589 43.3217 228.973 43.0451 228.553 42.4917C228.133 41.9317 227.959 41.1551 228.033 40.1617C228.093 39.4151 228.276 38.6617 228.583 37.9017C228.889 37.1351 229.289 36.4584 229.783 35.8717C230.283 35.2784 230.839 34.8251 231.453 34.5117C232.066 34.1984 232.716 34.0417 233.403 34.0417C233.723 34.0417 234.053 34.0784 234.393 34.1517C234.733 34.2184 235.036 34.3117 235.303 34.4317C235.389 34.3851 235.496 34.3617 235.623 34.3617C235.843 34.3617 236.006 34.4284 236.113 34.5617C236.226 34.6951 236.283 34.9117 236.283 35.2117C236.283 35.7117 236.109 36.5417 235.763 37.7017C235.689 38.1351 235.633 38.5751 235.593 39.0217C235.559 39.4684 235.543 39.9084 235.543 40.3417C235.543 40.7684 235.556 41.0817 235.583 41.2817C235.609 41.4751 235.653 41.6284 235.713 41.7417C235.759 41.8351 235.853 41.9217 235.993 42.0017C236.139 42.0751 236.243 42.1317 236.303 42.1717C236.469 42.2917 236.553 42.4451 236.553 42.6317C236.553 42.8184 236.479 42.9784 236.333 43.1117C236.186 43.2451 235.993 43.3117 235.753 43.3117C235.519 43.3117 235.289 43.2451 235.063 43.1117C234.843 42.9784 234.666 42.8084 234.533 42.6017C234.406 42.3951 234.306 42.1351 234.233 41.8217C234.159 41.5017 234.123 41.1417 234.123 40.7417C234.123 40.5951 234.126 40.4817 234.133 40.4017C233.619 41.3817 233.056 42.1151 232.443 42.6017C231.836 43.0817 231.156 43.3217 230.403 43.3217ZM230.713 41.9717C231.146 41.9717 231.573 41.7917 231.993 41.4317C232.413 41.0651 232.829 40.5051 233.243 39.7517C233.656 38.9917 234.063 38.0317 234.463 36.8717C234.509 36.5651 234.553 36.3051 234.593 36.0917C234.639 35.8717 234.683 35.6784 234.723 35.5117C234.229 35.3517 233.783 35.2717 233.383 35.2717C232.916 35.2717 232.469 35.3851 232.043 35.6117C231.623 35.8317 231.233 36.1617 230.873 36.6017C230.513 37.0417 230.209 37.5617 229.963 38.1617C229.716 38.7617 229.563 39.3451 229.503 39.9117C229.436 40.5384 229.509 41.0384 229.723 41.4117C229.936 41.7851 230.266 41.9717 230.713 41.9717ZM239.04 43.2417C238.82 43.2417 238.647 43.1617 238.52 43.0017C238.4 42.8351 238.34 42.5951 238.34 42.2817C238.34 42.1617 238.347 42.0417 238.36 41.9217C238.373 41.7951 238.397 41.6651 238.43 41.5317C238.61 40.4184 238.777 39.2884 238.93 38.1417C239.09 36.9951 239.247 35.7917 239.4 34.5317C239.427 34.3051 239.503 34.1317 239.63 34.0117C239.763 33.8851 239.937 33.8217 240.15 33.8217C240.39 33.8217 240.577 33.8951 240.71 34.0417C240.85 34.1884 240.903 34.3917 240.87 34.6517C240.81 35.1517 240.747 35.6284 240.68 36.0817C240.613 36.5351 240.55 36.9517 240.49 37.3317C240.603 37.1051 240.713 36.8984 240.82 36.7117C240.933 36.5184 241.047 36.3417 241.16 36.1817C241.64 35.4684 242.15 34.9251 242.69 34.5517C243.237 34.1717 243.79 33.9817 244.35 33.9817C244.603 33.9817 244.847 34.0251 245.08 34.1117C245.313 34.1917 245.517 34.3117 245.69 34.4717C245.857 34.6184 245.94 34.8117 245.94 35.0517C245.94 35.2384 245.887 35.3984 245.78 35.5317C245.673 35.6651 245.53 35.7317 245.35 35.7317C245.237 35.7317 245.063 35.6817 244.83 35.5817C244.603 35.4817 244.397 35.4317 244.21 35.4317C243.817 35.4317 243.41 35.5917 242.99 35.9117C242.577 36.2317 242.16 36.7017 241.74 37.3217C241.367 37.8751 241.013 38.5517 240.68 39.3517C240.353 40.1451 240.09 40.9551 239.89 41.7817C239.883 42.2617 239.807 42.6251 239.66 42.8717C239.52 43.1184 239.313 43.2417 239.04 43.2417ZM250.127 43.5617C249.22 43.5617 248.437 43.3017 247.777 42.7817C247.117 42.2551 246.67 41.5484 246.437 40.6617C246.21 39.7684 246.233 38.8117 246.507 37.7917C246.713 37.0317 247.05 36.3484 247.517 35.7417C247.99 35.1351 248.553 34.6617 249.207 34.3217C249.867 33.9751 250.543 33.8017 251.237 33.8017C252.13 33.8017 252.83 34.0351 253.337 34.5017C253.843 34.9684 254.073 35.5884 254.027 36.3617C253.967 37.2951 253.483 38.0284 252.577 38.5617C251.67 39.0951 250.43 39.3617 248.857 39.3617C248.657 39.3617 248.463 39.3584 248.277 39.3517C248.097 39.3451 247.917 39.3351 247.737 39.3217C247.723 40.1817 247.943 40.8851 248.397 41.4317C248.85 41.9784 249.453 42.2517 250.207 42.2517C250.68 42.2517 251.143 42.1751 251.597 42.0217C252.05 41.8617 252.43 41.6384 252.737 41.3517C252.917 41.1851 253.107 41.1217 253.307 41.1617C253.507 41.2017 253.64 41.3184 253.707 41.5117C253.773 41.7051 253.733 41.9017 253.587 42.1017C253.367 42.4017 253.083 42.6617 252.737 42.8817C252.39 43.0951 251.987 43.2617 251.527 43.3817C251.073 43.5017 250.607 43.5617 250.127 43.5617ZM248.537 38.2417C249.717 38.2417 250.663 38.0717 251.377 37.7317C252.09 37.3917 252.47 36.9351 252.517 36.3617C252.543 35.9884 252.433 35.6851 252.187 35.4517C251.947 35.2117 251.613 35.0917 251.187 35.0917C250.713 35.0917 250.247 35.2251 249.787 35.4917C249.327 35.7584 248.927 36.1317 248.587 36.6117C248.253 37.0917 248.02 37.6284 247.887 38.2217C247.96 38.2284 248.04 38.2351 248.127 38.2417C248.22 38.2417 248.357 38.2417 248.537 38.2417ZM263.273 43.6017C263.02 43.6017 262.786 43.5217 262.573 43.3617C262.36 43.2017 262.183 42.9717 262.043 42.6717C261.936 42.4384 261.853 42.1617 261.793 41.8417C261.74 41.5151 261.713 41.1584 261.713 40.7717C261.713 40.6251 261.716 40.5117 261.723 40.4317C261.476 40.9384 261.223 41.3651 260.963 41.7117C260.556 42.2517 260.123 42.6551 259.663 42.9217C259.21 43.1884 258.716 43.3217 258.183 43.3217C257.403 43.3217 256.77 43.0251 256.283 42.4317C255.796 41.8384 255.553 41.0417 255.553 40.0417C255.553 39.4484 255.643 38.8484 255.823 38.2417C256.003 37.6284 256.26 37.0484 256.593 36.5017C257.066 35.7284 257.653 35.1284 258.353 34.7017C259.053 34.2684 259.81 34.0517 260.623 34.0517C261.11 34.0517 261.573 34.1117 262.013 34.2317C262.453 34.3451 262.843 34.5117 263.183 34.7317C263.35 34.8384 263.47 34.9651 263.543 35.1117C263.623 35.2584 263.643 35.3984 263.603 35.5317C263.676 35.6717 263.7 35.8384 263.673 36.0317C263.493 37.2384 263.363 38.2117 263.283 38.9517C263.21 39.6917 263.173 40.2951 263.173 40.7617C263.173 41.2751 263.216 41.6717 263.303 41.9517C263.356 42.1317 263.46 42.2651 263.613 42.3517C263.86 42.4984 263.983 42.7017 263.983 42.9617C263.983 43.1351 263.916 43.2851 263.783 43.4117C263.656 43.5384 263.486 43.6017 263.273 43.6017ZM258.443 41.9117C259.023 41.9117 259.58 41.5617 260.113 40.8617C260.5 40.3617 260.856 39.7017 261.183 38.8817C261.516 38.0617 261.85 37.0117 262.183 35.7317C262.19 35.6984 262.206 35.6551 262.233 35.6017C261.94 35.5017 261.67 35.4284 261.423 35.3817C261.176 35.3284 260.936 35.3017 260.703 35.3017C260.156 35.3017 259.65 35.4484 259.183 35.7417C258.723 36.0284 258.326 36.4451 257.993 36.9917C257.713 37.4451 257.493 37.9351 257.333 38.4617C257.18 38.9817 257.103 39.4884 257.103 39.9817C257.103 40.5751 257.223 41.0451 257.463 41.3917C257.703 41.7384 258.03 41.9117 258.443 41.9117ZM268.875 43.9017C268.108 43.9017 267.442 43.7217 266.875 43.3617C266.308 43.0017 265.918 42.4884 265.705 41.8217C265.658 41.6884 265.622 41.5551 265.595 41.4217C265.575 41.2884 265.565 41.1651 265.565 41.0517C265.565 40.8251 265.612 40.6484 265.705 40.5217C265.805 40.3884 265.952 40.3217 266.145 40.3217C266.378 40.3217 266.585 40.4584 266.765 40.7317C266.952 40.9984 267.142 41.4751 267.335 42.1617C267.548 42.3017 267.778 42.4117 268.025 42.4917C268.272 42.5651 268.528 42.6017 268.795 42.6017C269.262 42.6017 269.655 42.4851 269.975 42.2517C270.295 42.0117 270.472 41.7051 270.505 41.3317C270.532 41.0051 270.452 40.6917 270.265 40.3917C270.078 40.0851 269.542 39.5751 268.655 38.8617C267.915 38.2617 267.415 37.7451 267.155 37.3117C266.895 36.8784 266.792 36.3951 266.845 35.8617C266.912 35.1751 267.225 34.6151 267.785 34.1817C268.345 33.7484 269.052 33.5317 269.905 33.5317C270.445 33.5317 270.932 33.6151 271.365 33.7817C271.805 33.9484 272.188 34.1951 272.515 34.5217C272.728 34.7351 272.835 34.9484 272.835 35.1617C272.835 35.2951 272.788 35.4117 272.695 35.5117C272.602 35.6051 272.485 35.6517 272.345 35.6517C272.178 35.6517 271.998 35.5817 271.805 35.4417C271.525 35.2351 271.238 35.0851 270.945 34.9917C270.652 34.8917 270.322 34.8417 269.955 34.8417C269.535 34.8417 269.172 34.9384 268.865 35.1317C268.558 35.3184 268.392 35.5684 268.365 35.8817C268.338 36.1417 268.412 36.3984 268.585 36.6517C268.765 36.8984 269.292 37.3684 270.165 38.0617C270.892 38.6351 271.402 39.1917 271.695 39.7317C271.988 40.2717 272.098 40.8484 272.025 41.4617C271.938 42.1751 271.602 42.7617 271.015 43.2217C270.435 43.6751 269.722 43.9017 268.875 43.9017ZM281.015 43.6617C280.761 43.6617 280.568 43.5984 280.435 43.4717C280.308 43.3517 280.235 43.1517 280.215 42.8717C280.021 42.3251 279.841 41.7317 279.675 41.0917C279.508 40.4451 279.341 39.7017 279.175 38.8617C279.041 38.2017 278.921 37.5817 278.815 37.0017C278.715 36.4151 278.608 35.7784 278.495 35.0917C278.441 34.7717 278.471 34.5184 278.585 34.3317C278.705 34.1384 278.898 34.0417 279.165 34.0417C279.418 34.0417 279.615 34.1017 279.755 34.2217C279.895 34.3417 279.985 34.5384 280.025 34.8117C280.071 35.1584 280.131 35.5584 280.205 36.0117C280.285 36.4651 280.435 37.3084 280.655 38.5417C280.828 39.5284 280.965 40.2617 281.065 40.7417C281.165 41.2151 281.265 41.6251 281.365 41.9717C281.685 41.6184 282.005 41.2184 282.325 40.7717C282.645 40.3184 282.941 39.8484 283.215 39.3617C283.681 38.5417 284.075 37.7484 284.395 36.9817C284.715 36.2151 284.961 35.4751 285.135 34.7617C285.268 34.2084 285.561 33.9317 286.015 33.9317C286.288 33.9317 286.478 34.0284 286.585 34.2217C286.698 34.4151 286.718 34.6717 286.645 34.9917C286.491 35.7051 286.228 36.4917 285.855 37.3517C285.488 38.2051 285.021 39.1117 284.455 40.0717C284.081 40.6984 283.695 41.2717 283.295 41.7917C282.901 42.3117 282.521 42.7384 282.155 43.0717C281.901 43.2984 281.691 43.4517 281.525 43.5317C281.365 43.6184 281.195 43.6617 281.015 43.6617ZM293.44 47.3317C293.3 47.3317 293.167 47.2951 293.04 47.2217C291.493 46.3417 290.317 45.0851 289.51 43.4517C288.71 41.8251 288.373 39.9851 288.5 37.9317C288.56 36.9717 288.747 36.0117 289.06 35.0517C289.38 34.0917 289.81 33.1817 290.35 32.3217C290.89 31.4617 291.51 30.7084 292.21 30.0617C292.91 29.4084 293.647 28.9017 294.42 28.5417C294.553 28.4817 294.677 28.4517 294.79 28.4517C294.99 28.4517 295.157 28.5251 295.29 28.6717C295.43 28.8117 295.487 28.9784 295.46 29.1717C295.433 29.3651 295.32 29.5184 295.12 29.6317C294.193 30.1717 293.363 30.8751 292.63 31.7417C291.903 32.6084 291.32 33.5784 290.88 34.6517C290.44 35.7251 290.18 36.8251 290.1 37.9517C289.967 39.7851 290.207 41.3851 290.82 42.7517C291.44 44.1117 292.443 45.2484 293.83 46.1617C294.017 46.2884 294.12 46.4417 294.14 46.6217C294.167 46.8017 294.11 46.9651 293.97 47.1117C293.83 47.2584 293.653 47.3317 293.44 47.3317ZM299.476 43.4917C298.636 43.4917 297.989 43.2684 297.536 42.8217C297.089 42.3751 296.843 41.7017 296.796 40.8017C296.763 40.2151 296.783 39.4951 296.856 38.6417C296.936 37.7817 297.063 36.8151 297.236 35.7417C297.149 35.7484 297.056 35.7551 296.956 35.7617C296.863 35.7684 296.689 35.7784 296.436 35.7917C296.183 35.8051 295.979 35.7584 295.826 35.6517C295.679 35.5384 295.606 35.3717 295.606 35.1517C295.606 34.7851 295.866 34.5551 296.386 34.4617C296.453 34.4484 296.549 34.4351 296.676 34.4217C296.809 34.4017 297.083 34.3717 297.496 34.3317C297.569 33.9651 297.646 33.6084 297.726 33.2617C297.813 32.9084 297.896 32.5784 297.976 32.2717C298.116 31.7717 298.386 31.5217 298.786 31.5217C299.026 31.5217 299.199 31.6184 299.306 31.8117C299.419 32.0051 299.436 32.2751 299.356 32.6217C299.316 32.8084 299.269 33.0284 299.216 33.2817C299.163 33.5284 299.099 33.8351 299.026 34.2017C299.466 34.1684 299.929 34.1417 300.416 34.1217C300.903 34.1017 301.276 34.0917 301.536 34.0917C301.769 34.0917 301.953 34.1451 302.086 34.2517C302.226 34.3584 302.296 34.5051 302.296 34.6917C302.296 34.8584 302.243 34.9984 302.136 35.1117C302.036 35.2184 301.883 35.2884 301.676 35.3217C301.529 35.3417 301.326 35.3684 301.066 35.4017C300.813 35.4284 300.049 35.4984 298.776 35.6117C298.589 36.7251 298.456 37.7017 298.376 38.5417C298.296 39.3817 298.276 40.0717 298.316 40.6117C298.356 41.1851 298.469 41.5917 298.656 41.8317C298.849 42.0651 299.163 42.1817 299.596 42.1817C299.989 42.1817 300.503 42.0551 301.136 41.8017C301.316 41.7284 301.466 41.7317 301.586 41.8117C301.713 41.8917 301.776 42.0217 301.776 42.2017C301.776 42.4084 301.706 42.5817 301.566 42.7217C301.053 43.2351 300.356 43.4917 299.476 43.4917ZM303.613 47.1117C303.433 47.1117 303.277 47.0451 303.143 46.9117C303.01 46.7851 302.95 46.6284 302.963 46.4417C302.977 46.2617 303.067 46.1084 303.233 45.9817C304.66 44.9084 305.753 43.6817 306.513 42.3017C307.273 40.9217 307.71 39.3617 307.823 37.6217C307.923 36.0684 307.74 34.6417 307.273 33.3417C306.807 32.0417 306.037 30.8284 304.963 29.7017C304.817 29.5484 304.743 29.3784 304.743 29.1917C304.75 28.9984 304.817 28.8417 304.943 28.7217C305.077 28.5951 305.233 28.5317 305.413 28.5317C305.633 28.5317 305.863 28.6317 306.103 28.8317C306.897 29.5184 307.567 30.3751 308.113 31.4017C308.667 32.4217 309.05 33.5351 309.263 34.7417C309.477 35.9417 309.5 37.1651 309.333 38.4117C309.087 40.2651 308.507 41.9384 307.593 43.4317C306.68 44.9317 305.507 46.1117 304.073 46.9717C303.92 47.0651 303.767 47.1117 303.613 47.1117ZM320.376 38.3117C320.07 38.3117 319.813 38.2017 319.606 37.9817C319.406 37.7617 319.306 37.4917 319.306 37.1717C319.306 36.8317 319.426 36.5451 319.666 36.3117C319.913 36.0717 320.226 35.9517 320.606 35.9517C320.906 35.9517 321.143 36.0284 321.316 36.1817C321.49 36.3284 321.57 36.5184 321.556 36.7517C321.65 37.0184 321.66 37.2684 321.586 37.5017C321.513 37.7351 321.36 37.9284 321.126 38.0817C320.9 38.2351 320.65 38.3117 320.376 38.3117ZM339.689 43.3917C339.382 43.3917 339.089 43.3017 338.809 43.1217C338.536 42.9351 338.326 42.6784 338.179 42.3517C337.986 41.9251 337.869 41.3251 337.829 40.5517C337.822 40.3451 337.816 40.1917 337.809 40.0917C337.809 39.9917 337.809 39.8984 337.809 39.8117C337.489 40.6251 337.136 41.2951 336.749 41.8217C336.362 42.3484 335.932 42.7417 335.459 43.0017C334.992 43.2551 334.466 43.3817 333.879 43.3817C333.239 43.3817 332.679 43.1851 332.199 42.7917C331.719 42.3984 331.392 41.8517 331.219 41.1517C331.052 40.4517 331.062 39.6484 331.249 38.7417C331.429 37.8617 331.772 37.0684 332.279 36.3617C332.786 35.6484 333.409 35.0884 334.149 34.6817C334.889 34.2684 335.642 34.0617 336.409 34.0617C336.689 34.0617 336.972 34.0851 337.259 34.1317C337.552 34.1784 337.832 34.2484 338.099 34.3417C338.179 33.9217 338.252 33.5117 338.319 33.1117C338.386 32.7117 338.446 32.3351 338.499 31.9817C338.606 30.9551 338.742 30.2384 338.909 29.8317C339.076 29.4251 339.322 29.2217 339.649 29.2217C339.882 29.2217 340.056 29.3051 340.169 29.4717C340.282 29.6317 340.339 29.8884 340.339 30.2417C340.339 30.5484 340.296 30.9284 340.209 31.3817C340.129 31.8351 339.999 32.3784 339.819 33.0117C339.499 35.3517 339.309 36.9217 339.249 37.7217C339.196 38.5151 339.182 39.2317 339.209 39.8717C339.229 40.3851 339.256 40.7817 339.289 41.0617C339.322 41.3417 339.369 41.5817 339.429 41.7817C339.509 41.8417 339.642 41.9417 339.829 42.0817C340.022 42.2217 340.156 42.3284 340.229 42.4017C340.302 42.4684 340.356 42.5317 340.389 42.5917C340.422 42.6517 340.439 42.7184 340.439 42.7917C340.439 42.9717 340.369 43.1184 340.229 43.2317C340.096 43.3384 339.916 43.3917 339.689 43.3917ZM334.119 42.0617C334.606 42.0617 335.062 41.8451 335.489 41.4117C335.922 40.9717 336.329 40.3051 336.709 39.4117C337.089 38.5117 337.442 37.3784 337.769 36.0117L337.869 35.5217C337.462 35.3617 337.046 35.2817 336.619 35.2817C336.019 35.2817 335.449 35.4351 334.909 35.7417C334.369 36.0484 333.906 36.4851 333.519 37.0517C333.139 37.6117 332.882 38.2251 332.749 38.8917C332.562 39.8317 332.599 40.5951 332.859 41.1817C333.126 41.7684 333.546 42.0617 334.119 42.0617ZM345.135 43.4817C344.528 43.4817 344.022 43.3317 343.615 43.0317C343.215 42.7317 342.948 42.2884 342.815 41.7017C342.722 41.2951 342.672 40.8251 342.665 40.2917C342.665 39.7584 342.705 39.1484 342.785 38.4617C342.872 37.7751 343.015 36.9084 343.215 35.8617C343.082 35.8684 342.938 35.8717 342.785 35.8717H342.155C341.895 35.8717 341.688 35.8084 341.535 35.6817C341.382 35.5551 341.305 35.3917 341.305 35.1917C341.305 35.0184 341.362 34.8717 341.475 34.7517C341.595 34.6251 341.755 34.5551 341.955 34.5417C342.108 34.5284 342.298 34.5184 342.525 34.5117C342.752 34.4984 343.068 34.4851 343.475 34.4717C343.562 34.0384 343.645 33.6251 343.725 33.2317C343.812 32.8384 343.898 32.4617 343.985 32.1017C344.032 31.9151 344.125 31.7684 344.265 31.6617C344.405 31.5484 344.568 31.4917 344.755 31.4917C344.982 31.4917 345.162 31.5684 345.295 31.7217C345.428 31.8751 345.472 32.0817 345.425 32.3417C345.378 32.6017 345.322 32.8917 345.255 33.2117C345.195 33.5251 345.115 33.9351 345.015 34.4417C345.468 34.4351 345.928 34.4284 346.395 34.4217C346.862 34.4151 347.305 34.4117 347.725 34.4117C347.945 34.4117 348.122 34.4717 348.255 34.5917C348.395 34.7051 348.465 34.8484 348.465 35.0217C348.465 35.1951 348.405 35.3417 348.285 35.4617C348.172 35.5817 348.015 35.6484 347.815 35.6617C347.362 35.6951 346.872 35.7251 346.345 35.7517C345.825 35.7784 345.292 35.7984 344.745 35.8117C344.525 36.9384 344.375 37.8151 344.295 38.4417C344.215 39.0684 344.172 39.6217 344.165 40.1017C344.165 40.5817 344.202 40.9884 344.275 41.3217C344.342 41.6084 344.458 41.8251 344.625 41.9717C344.792 42.1117 345.008 42.1817 345.275 42.1817C345.488 42.1817 345.722 42.1351 345.975 42.0417C346.235 41.9484 346.488 41.8184 346.735 41.6517C346.955 41.5051 347.162 41.4684 347.355 41.5417C347.555 41.6084 347.668 41.7517 347.695 41.9717C347.722 42.1851 347.635 42.3817 347.435 42.5617C347.142 42.8351 346.785 43.0584 346.365 43.2317C345.952 43.3984 345.542 43.4817 345.135 43.4817ZM355.331 43.5017C355.104 43.5017 354.927 43.4217 354.801 43.2617C354.674 43.1017 354.614 42.8684 354.621 42.5617C354.627 41.9951 354.651 41.3184 354.691 40.5317C354.737 39.7451 354.797 38.9284 354.871 38.0817C354.944 37.2284 355.031 36.4151 355.131 35.6417C355.024 35.6484 354.914 35.6584 354.801 35.6717C354.687 35.6784 354.444 35.7017 354.071 35.7417C353.837 35.7684 353.647 35.7217 353.501 35.6017C353.354 35.4751 353.281 35.3017 353.281 35.0817C353.281 34.9017 353.331 34.7584 353.431 34.6517C353.537 34.5451 353.724 34.4584 353.991 34.3917C354.151 34.3517 354.337 34.3151 354.551 34.2817C354.771 34.2417 355.031 34.2051 355.331 34.1717C355.437 33.5117 355.547 32.9417 355.661 32.4617C355.927 31.3217 356.334 30.4784 356.881 29.9317C357.434 29.3851 358.137 29.1117 358.991 29.1117C359.617 29.1117 360.207 29.2384 360.761 29.4917C361.321 29.7384 361.737 30.0584 362.011 30.4517C362.197 30.7117 362.201 30.9517 362.021 31.1717C361.934 31.2717 361.827 31.3284 361.701 31.3417C361.574 31.3551 361.447 31.3117 361.321 31.2117C360.981 30.9651 360.621 30.7717 360.241 30.6317C359.867 30.4917 359.497 30.4217 359.131 30.4217C358.564 30.4217 358.107 30.6317 357.761 31.0517C357.421 31.4717 357.171 32.1317 357.011 33.0317C356.971 33.2651 356.937 33.4617 356.911 33.6217C356.884 33.7817 356.861 33.9351 356.841 34.0817C357.181 34.0751 357.431 34.0717 357.591 34.0717C357.751 34.0651 357.897 34.0617 358.031 34.0617C358.291 34.0617 358.527 34.0651 358.741 34.0717C358.954 34.0784 359.151 34.0884 359.331 34.1017C359.724 34.1351 359.921 34.3217 359.921 34.6617C359.921 34.8484 359.867 34.9984 359.761 35.1117C359.661 35.2251 359.507 35.2917 359.301 35.3117C359.147 35.3251 358.771 35.3517 358.171 35.3917C357.571 35.4317 357.064 35.4684 356.651 35.5017C356.557 36.2551 356.474 37.0684 356.401 37.9417C356.327 38.8084 356.224 40.3617 356.091 42.6017C356.051 43.2017 355.797 43.5017 355.331 43.5017ZM361.268 43.3617C361.041 43.3617 360.871 43.2817 360.758 43.1217C360.651 42.9617 360.598 42.7117 360.598 42.3717C360.598 42.1317 360.628 41.8384 360.688 41.4917C360.754 41.0251 360.824 40.5384 360.898 40.0317C360.971 39.5251 361.034 39.0417 361.088 38.5817C361.161 38.0017 361.221 37.3951 361.268 36.7617C361.314 36.1217 361.344 35.4917 361.358 34.8717C361.371 34.5517 361.441 34.3051 361.568 34.1317C361.694 33.9584 361.888 33.8717 362.148 33.8717C362.588 33.8717 362.814 34.1051 362.828 34.5717C362.834 34.8651 362.821 35.2017 362.788 35.5817C362.761 35.9551 362.711 36.3784 362.638 36.8517C362.704 36.6917 362.774 36.5317 362.848 36.3717C362.928 36.2117 363.011 36.0551 363.098 35.9017C363.484 35.2484 363.904 34.7651 364.358 34.4517C364.818 34.1384 365.338 33.9817 365.918 33.9817C366.431 33.9817 366.828 34.0884 367.108 34.3017C367.394 34.5084 367.538 34.7551 367.538 35.0417C367.538 35.2551 367.468 35.4284 367.328 35.5617C367.194 35.6951 367.024 35.7617 366.818 35.7617C366.631 35.7617 366.478 35.7184 366.358 35.6317C366.244 35.5451 366.174 35.4317 366.148 35.2917C365.108 35.3717 364.221 36.0917 363.488 37.4517C363.214 37.9651 362.968 38.5684 362.748 39.2617C362.528 39.9551 362.328 40.7684 362.148 41.7017C362.101 42.2884 362.011 42.7117 361.878 42.9717C361.751 43.2317 361.548 43.3617 361.268 43.3617ZM371.559 43.4917C370.832 43.4917 370.182 43.3217 369.609 42.9817C369.035 42.6417 368.585 42.1617 368.259 41.5417C367.939 40.9151 367.779 40.2051 367.779 39.4117C367.779 38.7717 367.892 38.1351 368.119 37.5017C368.345 36.8617 368.665 36.2917 369.079 35.7917C369.499 35.2851 369.982 34.8951 370.529 34.6217C371.075 34.3484 371.662 34.2117 372.289 34.2117C372.715 34.2117 373.125 34.2784 373.519 34.4117C373.919 34.5384 374.245 34.7151 374.499 34.9417C374.552 34.9951 374.589 35.0384 374.609 35.0717C375.122 35.2784 375.515 35.6517 375.789 36.1917C376.069 36.7317 376.209 37.3751 376.209 38.1217C376.209 38.7751 376.089 39.4284 375.849 40.0817C375.615 40.7351 375.282 41.3251 374.849 41.8517C374.415 42.3717 373.915 42.7751 373.349 43.0617C372.789 43.3484 372.192 43.4917 371.559 43.4917ZM371.599 42.1717C371.999 42.1717 372.382 42.0684 372.749 41.8617C373.122 41.6551 373.462 41.3584 373.769 40.9717C374.075 40.5784 374.315 40.1351 374.489 39.6417C374.669 39.1484 374.759 38.6717 374.759 38.2117C374.759 37.7051 374.675 37.2684 374.509 36.9017C374.349 36.5284 374.105 36.2384 373.779 36.0317C373.672 35.9717 373.585 35.8951 373.519 35.8017C373.332 35.7217 373.125 35.6584 372.899 35.6117C372.679 35.5651 372.465 35.5417 372.259 35.5417C371.725 35.5417 371.232 35.7151 370.779 36.0617C370.325 36.4084 369.955 36.8884 369.669 37.5017C369.389 38.1151 369.249 38.7317 369.249 39.3517C369.249 40.1984 369.462 40.8817 369.889 41.4017C370.322 41.9151 370.892 42.1717 371.599 42.1717ZM384.37 43.6017C384.03 43.6017 383.83 43.4284 383.77 43.0817C383.717 42.7284 383.8 42.1351 384.02 41.3017C384.407 39.0951 384.58 37.5484 384.54 36.6617C384.507 35.7684 384.257 35.3217 383.79 35.3217C383.43 35.3217 383.02 35.5417 382.56 35.9817C382.107 36.4217 381.68 37.0084 381.28 37.7417C380.887 38.4617 380.557 39.1384 380.29 39.7717C380.03 40.4051 379.8 41.0884 379.6 41.8217C379.593 42.3817 379.527 42.7851 379.4 43.0317C379.273 43.2717 379.067 43.3917 378.78 43.3917C378.56 43.3917 378.38 43.3117 378.24 43.1517C378.107 42.9851 378.04 42.7484 378.04 42.4417C378.04 42.2017 378.083 41.9284 378.17 41.6217C378.297 40.6351 378.403 39.7284 378.49 38.9017C378.577 38.0751 378.643 37.3151 378.69 36.6217C378.737 35.9217 378.767 35.2917 378.78 34.7317C378.793 34.0451 379.05 33.7017 379.55 33.7017C379.79 33.7017 379.973 33.7884 380.1 33.9617C380.227 34.1351 380.287 34.3917 380.28 34.7317C380.273 35.1784 380.247 35.6717 380.2 36.2117C380.16 36.7517 380.103 37.3284 380.03 37.9417C380.49 36.6951 381.087 35.7084 381.82 34.9817C382.553 34.2484 383.317 33.8817 384.11 33.8817C385.603 33.8817 386.21 35.1451 385.93 37.6717C386.443 36.4851 387.05 35.5751 387.75 34.9417C388.457 34.3084 389.207 33.9917 390 33.9917C390.613 33.9917 391.103 34.2117 391.47 34.6517C391.843 35.0917 392.03 35.7084 392.03 36.5017C392.03 36.7884 391.997 37.1484 391.93 37.5817C391.863 38.0084 391.743 38.6217 391.57 39.4217C391.463 39.9151 391.38 40.3617 391.32 40.7617C391.26 41.1617 391.23 41.4951 391.23 41.7617C391.23 41.9417 391.27 42.0751 391.35 42.1617C391.437 42.2417 391.593 42.3017 391.82 42.3417C392.113 42.4017 392.26 42.5784 392.26 42.8717C392.26 43.0584 392.19 43.2151 392.05 43.3417C391.91 43.4684 391.72 43.5317 391.48 43.5317C390.913 43.5317 390.487 43.3617 390.2 43.0217C389.92 42.6817 389.78 42.1684 389.78 41.4817C389.78 40.8951 389.877 40.1817 390.07 39.3417C390.217 38.7084 390.323 38.1684 390.39 37.7217C390.463 37.2751 390.5 36.9151 390.5 36.6417C390.5 36.2284 390.43 35.9117 390.29 35.6917C390.15 35.4651 389.957 35.3517 389.71 35.3517C389.337 35.3517 388.923 35.5584 388.47 35.9717C388.023 36.3851 387.58 36.9651 387.14 37.7117C386.82 38.2517 386.523 38.8317 386.25 39.4517C385.983 40.0651 385.723 40.7417 385.47 41.4817C385.397 41.9751 385.31 42.3784 385.21 42.6917C385.117 43.0051 385.003 43.2351 384.87 43.3817C384.737 43.5284 384.57 43.6017 384.37 43.6017ZM402.331 43.4517C400.984 43.4517 399.961 42.9984 399.261 42.0917C398.567 41.1851 398.221 39.8551 398.221 38.1017C398.221 36.9751 398.354 35.9084 398.621 34.9017C398.887 33.8951 399.274 33.0117 399.781 32.2517C400.287 31.4917 400.881 30.9084 401.561 30.5017C402.241 30.0884 402.967 29.8817 403.741 29.8817C404.581 29.8817 405.327 30.1084 405.981 30.5617C406.634 31.0151 407.047 31.5884 407.221 32.2817C407.254 32.4017 407.254 32.5084 407.221 32.6017C407.561 33.2151 407.731 34.0917 407.731 35.2317C407.731 36.0517 407.647 36.8917 407.481 37.7517C407.321 38.6117 407.091 39.4184 406.791 40.1717C406.364 41.2384 405.767 42.0517 405.001 42.6117C404.241 43.1717 403.351 43.4517 402.331 43.4517ZM402.321 42.1417C403.021 42.1417 403.634 41.9217 404.161 41.4817C404.694 41.0417 405.117 40.3951 405.431 39.5417C405.671 38.8817 405.857 38.1817 405.991 37.4417C406.131 36.6951 406.201 35.9651 406.201 35.2517C406.201 34.3784 406.111 33.6517 405.931 33.0717C405.884 32.9051 405.881 32.7584 405.921 32.6317C405.734 32.1917 405.437 31.8417 405.031 31.5817C404.624 31.3151 404.157 31.1817 403.631 31.1817C403.111 31.1817 402.614 31.3584 402.141 31.7117C401.667 32.0584 401.247 32.5584 400.881 33.2117C400.514 33.8584 400.231 34.6084 400.031 35.4617C399.831 36.3084 399.731 37.1917 399.731 38.1117C399.731 40.7984 400.594 42.1417 402.321 42.1417ZM417.074 43.4917C416.234 43.4917 415.587 43.2684 415.134 42.8217C414.687 42.3751 414.44 41.7017 414.394 40.8017C414.36 40.2151 414.38 39.4951 414.454 38.6417C414.534 37.7817 414.66 36.8151 414.834 35.7417C414.747 35.7484 414.654 35.7551 414.554 35.7617C414.46 35.7684 414.287 35.7784 414.034 35.7917C413.78 35.8051 413.577 35.7584 413.424 35.6517C413.277 35.5384 413.204 35.3717 413.204 35.1517C413.204 34.7851 413.464 34.5551 413.984 34.4617C414.05 34.4484 414.147 34.4351 414.274 34.4217C414.407 34.4017 414.68 34.3717 415.094 34.3317C415.167 33.9651 415.244 33.6084 415.324 33.2617C415.41 32.9084 415.494 32.5784 415.574 32.2717C415.714 31.7717 415.984 31.5217 416.384 31.5217C416.624 31.5217 416.797 31.6184 416.904 31.8117C417.017 32.0051 417.034 32.2751 416.954 32.6217C416.914 32.8084 416.867 33.0284 416.814 33.2817C416.76 33.5284 416.697 33.8351 416.624 34.2017C417.064 34.1684 417.527 34.1417 418.014 34.1217C418.5 34.1017 418.874 34.0917 419.134 34.0917C419.367 34.0917 419.55 34.1451 419.684 34.2517C419.824 34.3584 419.894 34.5051 419.894 34.6917C419.894 34.8584 419.84 34.9984 419.734 35.1117C419.634 35.2184 419.48 35.2884 419.274 35.3217C419.127 35.3417 418.924 35.3684 418.664 35.4017C418.41 35.4284 417.647 35.4984 416.374 35.6117C416.187 36.7251 416.054 37.7017 415.974 38.5417C415.894 39.3817 415.874 40.0717 415.914 40.6117C415.954 41.1851 416.067 41.5917 416.254 41.8317C416.447 42.0651 416.76 42.1817 417.194 42.1817C417.587 42.1817 418.1 42.0551 418.734 41.8017C418.914 41.7284 419.064 41.7317 419.184 41.8117C419.31 41.8917 419.374 42.0217 419.374 42.2017C419.374 42.4084 419.304 42.5817 419.164 42.7217C418.65 43.2351 417.954 43.4917 417.074 43.4917ZM424.449 43.4917C423.723 43.4917 423.073 43.3217 422.499 42.9817C421.926 42.6417 421.476 42.1617 421.149 41.5417C420.829 40.9151 420.669 40.2051 420.669 39.4117C420.669 38.7717 420.783 38.1351 421.009 37.5017C421.236 36.8617 421.556 36.2917 421.969 35.7917C422.389 35.2851 422.873 34.8951 423.419 34.6217C423.966 34.3484 424.553 34.2117 425.179 34.2117C425.606 34.2117 426.016 34.2784 426.409 34.4117C426.809 34.5384 427.136 34.7151 427.389 34.9417C427.443 34.9951 427.479 35.0384 427.499 35.0717C428.013 35.2784 428.406 35.6517 428.679 36.1917C428.959 36.7317 429.099 37.3751 429.099 38.1217C429.099 38.7751 428.979 39.4284 428.739 40.0817C428.506 40.7351 428.173 41.3251 427.739 41.8517C427.306 42.3717 426.806 42.7751 426.239 43.0617C425.679 43.3484 425.083 43.4917 424.449 43.4917ZM424.489 42.1717C424.889 42.1717 425.273 42.0684 425.639 41.8617C426.013 41.6551 426.353 41.3584 426.659 40.9717C426.966 40.5784 427.206 40.1351 427.379 39.6417C427.559 39.1484 427.649 38.6717 427.649 38.2117C427.649 37.7051 427.566 37.2684 427.399 36.9017C427.239 36.5284 426.996 36.2384 426.669 36.0317C426.563 35.9717 426.476 35.8951 426.409 35.8017C426.223 35.7217 426.016 35.6584 425.789 35.6117C425.569 35.5651 425.356 35.5417 425.149 35.5417C424.616 35.5417 424.123 35.7151 423.669 36.0617C423.216 36.4084 422.846 36.8884 422.559 37.5017C422.279 38.1151 422.139 38.7317 422.139 39.3517C422.139 40.1984 422.353 40.8817 422.779 41.4017C423.213 41.9151 423.783 42.1717 424.489 42.1717ZM439.012 43.7917C437.585 43.7917 436.458 43.4817 435.632 42.8617C434.805 42.2417 434.392 41.3984 434.392 40.3317C434.392 39.4517 434.742 38.6551 435.442 37.9417C436.148 37.2217 437.145 36.6417 438.432 36.2017C437.572 35.8017 436.928 35.3284 436.502 34.7817C436.075 34.2284 435.862 33.5851 435.862 32.8517C435.862 32.2051 436.025 31.6251 436.352 31.1117C436.678 30.5984 437.138 30.1984 437.732 29.9117C438.332 29.6184 439.005 29.4717 439.752 29.4717C440.565 29.4717 441.318 29.6417 442.012 29.9817C442.705 30.3151 443.228 30.7617 443.582 31.3217C443.742 31.5817 443.768 31.8151 443.662 32.0217C443.842 32.3151 443.928 32.6784 443.922 33.1117C443.922 33.5451 443.795 33.9584 443.542 34.3517C443.295 34.7451 442.938 35.0917 442.472 35.3917C441.952 35.7251 441.402 36.0051 440.822 36.2317C441.142 36.3651 441.442 36.5151 441.722 36.6817C442.008 36.8484 442.272 37.0284 442.512 37.2217C443.378 37.9351 443.812 38.8151 443.812 39.8617C443.812 41.0684 443.385 42.0251 442.532 42.7317C441.678 43.4384 440.505 43.7917 439.012 43.7917ZM439.572 35.5217C439.998 35.3617 440.368 35.2117 440.682 35.0717C440.995 34.9251 441.232 34.7984 441.392 34.6917C441.758 34.4517 442.028 34.2084 442.202 33.9617C442.382 33.7084 442.472 33.4351 442.472 33.1417C442.472 33.0084 442.452 32.8784 442.412 32.7517C442.378 32.6251 442.315 32.4851 442.222 32.3317C442.095 32.1117 442.098 31.9051 442.232 31.7117C441.532 31.0717 440.718 30.7517 439.792 30.7517C439.045 30.7517 438.455 30.9517 438.022 31.3517C437.588 31.7517 437.372 32.2884 437.372 32.9617C437.372 33.5017 437.538 33.9684 437.872 34.3617C438.212 34.7551 438.778 35.1417 439.572 35.5217ZM439.072 42.4717C440.072 42.4717 440.858 42.2317 441.432 41.7517C442.005 41.2717 442.292 40.6084 442.292 39.7617C442.292 39.0484 441.982 38.4551 441.362 37.9817C441.142 37.8151 440.885 37.6517 440.592 37.4917C440.305 37.3317 439.962 37.1651 439.562 36.9917C438.582 37.4184 437.848 37.7917 437.362 38.1117C436.875 38.4251 436.512 38.7584 436.272 39.1117C436.032 39.4584 435.912 39.8351 435.912 40.2417C435.912 41.7284 436.965 42.4717 439.072 42.4717Z" fill="#808080"/>
<path d="M194.59 177.694C193.777 177.694 193.16 177.417 192.74 176.864C192.32 176.304 192.147 175.527 192.22 174.534C192.28 173.787 192.463 173.034 192.77 172.274C193.077 171.507 193.477 170.83 193.97 170.244C194.47 169.65 195.027 169.197 195.64 168.884C196.253 168.57 196.903 168.414 197.59 168.414C197.91 168.414 198.24 168.45 198.58 168.524C198.92 168.59 199.223 168.684 199.49 168.804C199.577 168.757 199.683 168.734 199.81 168.734C200.03 168.734 200.193 168.8 200.3 168.934C200.413 169.067 200.47 169.284 200.47 169.584C200.47 170.084 200.297 170.914 199.95 172.074C199.877 172.507 199.82 172.947 199.78 173.394C199.747 173.84 199.73 174.28 199.73 174.714C199.73 175.14 199.743 175.454 199.77 175.654C199.797 175.847 199.84 176 199.9 176.114C199.947 176.207 200.04 176.294 200.18 176.374C200.327 176.447 200.43 176.504 200.49 176.544C200.657 176.664 200.74 176.817 200.74 177.004C200.74 177.19 200.667 177.35 200.52 177.484C200.373 177.617 200.18 177.684 199.94 177.684C199.707 177.684 199.477 177.617 199.25 177.484C199.03 177.35 198.853 177.18 198.72 176.974C198.593 176.767 198.493 176.507 198.42 176.194C198.347 175.874 198.31 175.514 198.31 175.114C198.31 174.967 198.313 174.854 198.32 174.774C197.807 175.754 197.243 176.487 196.63 176.974C196.023 177.454 195.343 177.694 194.59 177.694ZM194.9 176.344C195.333 176.344 195.76 176.164 196.18 175.804C196.6 175.437 197.017 174.877 197.43 174.124C197.843 173.364 198.25 172.404 198.65 171.244C198.697 170.937 198.74 170.677 198.78 170.464C198.827 170.244 198.87 170.05 198.91 169.884C198.417 169.724 197.97 169.644 197.57 169.644C197.103 169.644 196.657 169.757 196.23 169.984C195.81 170.204 195.42 170.534 195.06 170.974C194.7 171.414 194.397 171.934 194.15 172.534C193.903 173.134 193.75 173.717 193.69 174.284C193.623 174.91 193.697 175.41 193.91 175.784C194.123 176.157 194.453 176.344 194.9 176.344ZM205.276 178.024C204.403 178.024 203.656 177.824 203.036 177.424C202.416 177.024 202.043 176.5 201.916 175.854C201.856 175.547 201.916 175.307 202.096 175.134C202.276 174.96 202.493 174.907 202.746 174.974C203 175.034 203.16 175.2 203.226 175.474C203.32 175.86 203.546 176.164 203.906 176.384C204.273 176.604 204.726 176.714 205.266 176.714C206.24 176.714 206.726 176.37 206.726 175.684C206.726 175.45 206.596 175.177 206.336 174.864C206.083 174.544 205.656 174.15 205.056 173.684C204.343 173.117 203.83 172.6 203.516 172.134C203.203 171.667 203.046 171.19 203.046 170.704C203.046 170.41 203.103 170.124 203.216 169.844C203.336 169.557 203.513 169.29 203.746 169.044C204.066 168.704 204.466 168.437 204.946 168.244C205.426 168.044 205.933 167.944 206.466 167.944C207.013 167.944 207.523 168.044 207.996 168.244C208.476 168.437 208.85 168.707 209.116 169.054C209.283 169.274 209.33 169.49 209.256 169.704C209.19 169.917 209.036 170.047 208.796 170.094C208.563 170.134 208.333 170.06 208.106 169.874C207.846 169.66 207.586 169.507 207.326 169.414C207.066 169.314 206.783 169.264 206.476 169.264C205.816 169.264 205.293 169.474 204.906 169.894C204.666 170.147 204.546 170.41 204.546 170.684C204.546 170.924 204.663 171.19 204.896 171.484C205.13 171.777 205.55 172.164 206.156 172.644C206.936 173.264 207.48 173.8 207.786 174.254C208.1 174.707 208.256 175.164 208.256 175.624C208.256 176.344 207.983 176.924 207.436 177.364C206.89 177.804 206.17 178.024 205.276 178.024ZM223.134 177.764C222.828 177.764 222.534 177.674 222.254 177.494C221.981 177.307 221.771 177.05 221.624 176.724C221.431 176.297 221.314 175.697 221.274 174.924C221.268 174.717 221.261 174.564 221.254 174.464C221.254 174.364 221.254 174.27 221.254 174.184C220.934 174.997 220.581 175.667 220.194 176.194C219.808 176.72 219.378 177.114 218.904 177.374C218.438 177.627 217.911 177.754 217.324 177.754C216.684 177.754 216.124 177.557 215.644 177.164C215.164 176.77 214.838 176.224 214.664 175.524C214.498 174.824 214.508 174.02 214.694 173.114C214.874 172.234 215.218 171.44 215.724 170.734C216.231 170.02 216.854 169.46 217.594 169.054C218.334 168.64 219.088 168.434 219.854 168.434C220.134 168.434 220.418 168.457 220.704 168.504C220.998 168.55 221.278 168.62 221.544 168.714C221.624 168.294 221.698 167.884 221.764 167.484C221.831 167.084 221.891 166.707 221.944 166.354C222.051 165.327 222.188 164.61 222.354 164.204C222.521 163.797 222.768 163.594 223.094 163.594C223.328 163.594 223.501 163.677 223.614 163.844C223.728 164.004 223.784 164.26 223.784 164.614C223.784 164.92 223.741 165.3 223.654 165.754C223.574 166.207 223.444 166.75 223.264 167.384C222.944 169.724 222.754 171.294 222.694 172.094C222.641 172.887 222.628 173.604 222.654 174.244C222.674 174.757 222.701 175.154 222.734 175.434C222.768 175.714 222.814 175.954 222.874 176.154C222.954 176.214 223.088 176.314 223.274 176.454C223.468 176.594 223.601 176.7 223.674 176.774C223.748 176.84 223.801 176.904 223.834 176.964C223.868 177.024 223.884 177.09 223.884 177.164C223.884 177.344 223.814 177.49 223.674 177.604C223.541 177.71 223.361 177.764 223.134 177.764ZM217.564 176.434C218.051 176.434 218.508 176.217 218.934 175.784C219.368 175.344 219.774 174.677 220.154 173.784C220.534 172.884 220.888 171.75 221.214 170.384L221.314 169.894C220.908 169.734 220.491 169.654 220.064 169.654C219.464 169.654 218.894 169.807 218.354 170.114C217.814 170.42 217.351 170.857 216.964 171.424C216.584 171.984 216.328 172.597 216.194 173.264C216.008 174.204 216.044 174.967 216.304 175.554C216.571 176.14 216.991 176.434 217.564 176.434ZM228.58 177.854C227.973 177.854 227.467 177.704 227.06 177.404C226.66 177.104 226.393 176.66 226.26 176.074C226.167 175.667 226.117 175.197 226.11 174.664C226.11 174.13 226.15 173.52 226.23 172.834C226.317 172.147 226.46 171.28 226.66 170.234C226.527 170.24 226.383 170.244 226.23 170.244H225.6C225.34 170.244 225.133 170.18 224.98 170.054C224.827 169.927 224.75 169.764 224.75 169.564C224.75 169.39 224.807 169.244 224.92 169.124C225.04 168.997 225.2 168.927 225.4 168.914C225.553 168.9 225.743 168.89 225.97 168.884C226.197 168.87 226.513 168.857 226.92 168.844C227.007 168.41 227.09 167.997 227.17 167.604C227.257 167.21 227.343 166.834 227.43 166.474C227.477 166.287 227.57 166.14 227.71 166.034C227.85 165.92 228.013 165.864 228.2 165.864C228.427 165.864 228.607 165.94 228.74 166.094C228.873 166.247 228.917 166.454 228.87 166.714C228.823 166.974 228.767 167.264 228.7 167.584C228.64 167.897 228.56 168.307 228.46 168.814C228.913 168.807 229.373 168.8 229.84 168.794C230.307 168.787 230.75 168.784 231.17 168.784C231.39 168.784 231.567 168.844 231.7 168.964C231.84 169.077 231.91 169.22 231.91 169.394C231.91 169.567 231.85 169.714 231.73 169.834C231.617 169.954 231.46 170.02 231.26 170.034C230.807 170.067 230.317 170.097 229.79 170.124C229.27 170.15 228.737 170.17 228.19 170.184C227.97 171.31 227.82 172.187 227.74 172.814C227.66 173.44 227.617 173.994 227.61 174.474C227.61 174.954 227.647 175.36 227.72 175.694C227.787 175.98 227.903 176.197 228.07 176.344C228.237 176.484 228.453 176.554 228.72 176.554C228.933 176.554 229.167 176.507 229.42 176.414C229.68 176.32 229.933 176.19 230.18 176.024C230.4 175.877 230.607 175.84 230.8 175.914C231 175.98 231.113 176.124 231.14 176.344C231.167 176.557 231.08 176.754 230.88 176.934C230.587 177.207 230.23 177.43 229.81 177.604C229.397 177.77 228.987 177.854 228.58 177.854ZM244.726 177.974C244.473 177.974 244.239 177.894 244.026 177.734C243.813 177.574 243.636 177.344 243.496 177.044C243.389 176.81 243.306 176.534 243.246 176.214C243.193 175.887 243.166 175.53 243.166 175.144C243.166 174.997 243.169 174.884 243.176 174.804C242.929 175.31 242.676 175.737 242.416 176.084C242.009 176.624 241.576 177.027 241.116 177.294C240.663 177.56 240.169 177.694 239.636 177.694C238.856 177.694 238.223 177.397 237.736 176.804C237.249 176.21 237.006 175.414 237.006 174.414C237.006 173.82 237.096 173.22 237.276 172.614C237.456 172 237.713 171.42 238.046 170.874C238.519 170.1 239.106 169.5 239.806 169.074C240.506 168.64 241.263 168.424 242.076 168.424C242.563 168.424 243.026 168.484 243.466 168.604C243.906 168.717 244.296 168.884 244.636 169.104C244.803 169.21 244.923 169.337 244.996 169.484C245.076 169.63 245.096 169.77 245.056 169.904C245.129 170.044 245.153 170.21 245.126 170.404C244.946 171.61 244.816 172.584 244.736 173.324C244.663 174.064 244.626 174.667 244.626 175.134C244.626 175.647 244.669 176.044 244.756 176.324C244.809 176.504 244.913 176.637 245.066 176.724C245.313 176.87 245.436 177.074 245.436 177.334C245.436 177.507 245.369 177.657 245.236 177.784C245.109 177.91 244.939 177.974 244.726 177.974ZM239.896 176.284C240.476 176.284 241.033 175.934 241.566 175.234C241.953 174.734 242.309 174.074 242.636 173.254C242.969 172.434 243.303 171.384 243.636 170.104C243.643 170.07 243.659 170.027 243.686 169.974C243.393 169.874 243.123 169.8 242.876 169.754C242.629 169.7 242.389 169.674 242.156 169.674C241.609 169.674 241.103 169.82 240.636 170.114C240.176 170.4 239.779 170.817 239.446 171.364C239.166 171.817 238.946 172.307 238.786 172.834C238.633 173.354 238.556 173.86 238.556 174.354C238.556 174.947 238.676 175.417 238.916 175.764C239.156 176.11 239.483 176.284 239.896 176.284ZM247.62 182.104C247.393 182.104 247.226 182.014 247.12 181.834C247.013 181.654 246.96 181.364 246.96 180.964C246.96 180.617 247.003 180.16 247.09 179.594C247.183 179.034 247.323 178.344 247.51 177.524C247.616 176.717 247.706 175.93 247.78 175.164C247.86 174.39 247.93 173.58 247.99 172.734C248.05 171.887 248.12 170.74 248.2 169.294C248.126 169.02 248.156 168.797 248.29 168.624C248.43 168.444 248.633 168.354 248.9 168.354C249.14 168.354 249.33 168.427 249.47 168.574C249.61 168.72 249.673 168.924 249.66 169.184C249.633 169.844 249.59 170.51 249.53 171.184C249.47 171.85 249.393 172.544 249.3 173.264C249.426 172.944 249.553 172.64 249.68 172.354C249.813 172.067 249.953 171.787 250.1 171.514C250.633 170.52 251.213 169.76 251.84 169.234C252.473 168.707 253.133 168.444 253.82 168.444C254.473 168.444 255.03 168.674 255.49 169.134C255.956 169.587 256.266 170.21 256.42 171.004C256.573 171.797 256.55 172.657 256.35 173.584C256.09 174.777 255.593 175.734 254.86 176.454C254.126 177.174 253.293 177.534 252.36 177.534C251.76 177.534 251.2 177.41 250.68 177.164C250.16 176.91 249.733 176.557 249.4 176.104C249.106 177.117 248.87 178.177 248.69 179.284C248.656 179.937 248.596 180.47 248.51 180.884C248.423 181.304 248.31 181.61 248.17 181.804C248.03 182.004 247.846 182.104 247.62 182.104ZM252.23 176.294C252.87 176.294 253.423 176.03 253.89 175.504C254.363 174.977 254.69 174.224 254.87 173.244C254.983 172.624 255.003 172.047 254.93 171.514C254.863 170.98 254.713 170.557 254.48 170.244C254.246 169.93 253.96 169.774 253.62 169.774C253.113 169.774 252.56 170.12 251.96 170.814C251.366 171.507 250.793 172.477 250.24 173.724C250.173 173.877 250.103 174.044 250.03 174.224C249.963 174.397 249.886 174.604 249.8 174.844C250.526 175.81 251.336 176.294 252.23 176.294ZM258.401 182.104C258.174 182.104 258.007 182.014 257.901 181.834C257.794 181.654 257.741 181.364 257.741 180.964C257.741 180.617 257.784 180.16 257.871 179.594C257.964 179.034 258.104 178.344 258.291 177.524C258.397 176.717 258.487 175.93 258.561 175.164C258.641 174.39 258.711 173.58 258.771 172.734C258.831 171.887 258.901 170.74 258.981 169.294C258.907 169.02 258.937 168.797 259.071 168.624C259.211 168.444 259.414 168.354 259.681 168.354C259.921 168.354 260.111 168.427 260.251 168.574C260.391 168.72 260.454 168.924 260.441 169.184C260.414 169.844 260.371 170.51 260.311 171.184C260.251 171.85 260.174 172.544 260.081 173.264C260.207 172.944 260.334 172.64 260.461 172.354C260.594 172.067 260.734 171.787 260.881 171.514C261.414 170.52 261.994 169.76 262.621 169.234C263.254 168.707 263.914 168.444 264.601 168.444C265.254 168.444 265.811 168.674 266.271 169.134C266.737 169.587 267.047 170.21 267.201 171.004C267.354 171.797 267.331 172.657 267.131 173.584C266.871 174.777 266.374 175.734 265.641 176.454C264.907 177.174 264.074 177.534 263.141 177.534C262.541 177.534 261.981 177.41 261.461 177.164C260.941 176.91 260.514 176.557 260.181 176.104C259.887 177.117 259.651 178.177 259.471 179.284C259.437 179.937 259.377 180.47 259.291 180.884C259.204 181.304 259.091 181.61 258.951 181.804C258.811 182.004 258.627 182.104 258.401 182.104ZM263.011 176.294C263.651 176.294 264.204 176.03 264.671 175.504C265.144 174.977 265.471 174.224 265.651 173.244C265.764 172.624 265.784 172.047 265.711 171.514C265.644 170.98 265.494 170.557 265.261 170.244C265.027 169.93 264.741 169.774 264.401 169.774C263.894 169.774 263.341 170.12 262.741 170.814C262.147 171.507 261.574 172.477 261.021 173.724C260.954 173.877 260.884 174.044 260.811 174.224C260.744 174.397 260.667 174.604 260.581 174.844C261.307 175.81 262.117 176.294 263.011 176.294ZM269.752 177.734C269.525 177.734 269.355 177.654 269.242 177.494C269.135 177.334 269.082 177.084 269.082 176.744C269.082 176.504 269.112 176.21 269.172 175.864C269.239 175.397 269.309 174.91 269.382 174.404C269.455 173.897 269.519 173.414 269.572 172.954C269.645 172.374 269.705 171.767 269.752 171.134C269.799 170.494 269.829 169.864 269.842 169.244C269.855 168.924 269.925 168.677 270.052 168.504C270.179 168.33 270.372 168.244 270.632 168.244C271.072 168.244 271.299 168.477 271.312 168.944C271.319 169.237 271.305 169.574 271.272 169.954C271.245 170.327 271.195 170.75 271.122 171.224C271.189 171.064 271.259 170.904 271.332 170.744C271.412 170.584 271.495 170.427 271.582 170.274C271.969 169.62 272.389 169.137 272.842 168.824C273.302 168.51 273.822 168.354 274.402 168.354C274.915 168.354 275.312 168.46 275.592 168.674C275.879 168.88 276.022 169.127 276.022 169.414C276.022 169.627 275.952 169.8 275.812 169.934C275.679 170.067 275.509 170.134 275.302 170.134C275.115 170.134 274.962 170.09 274.842 170.004C274.729 169.917 274.659 169.804 274.632 169.664C273.592 169.744 272.705 170.464 271.972 171.824C271.699 172.337 271.452 172.94 271.232 173.634C271.012 174.327 270.812 175.14 270.632 176.074C270.585 176.66 270.495 177.084 270.362 177.344C270.235 177.604 270.032 177.734 269.752 177.734ZM280.043 177.864C279.316 177.864 278.666 177.694 278.093 177.354C277.52 177.014 277.07 176.534 276.743 175.914C276.423 175.287 276.263 174.577 276.263 173.784C276.263 173.144 276.376 172.507 276.603 171.874C276.83 171.234 277.15 170.664 277.563 170.164C277.983 169.657 278.466 169.267 279.013 168.994C279.56 168.72 280.146 168.584 280.773 168.584C281.2 168.584 281.61 168.65 282.003 168.784C282.403 168.91 282.73 169.087 282.983 169.314C283.036 169.367 283.073 169.41 283.093 169.444C283.606 169.65 284 170.024 284.273 170.564C284.553 171.104 284.693 171.747 284.693 172.494C284.693 173.147 284.573 173.8 284.333 174.454C284.1 175.107 283.766 175.697 283.333 176.224C282.9 176.744 282.4 177.147 281.833 177.434C281.273 177.72 280.676 177.864 280.043 177.864ZM280.083 176.544C280.483 176.544 280.866 176.44 281.233 176.234C281.606 176.027 281.946 175.73 282.253 175.344C282.56 174.95 282.8 174.507 282.973 174.014C283.153 173.52 283.243 173.044 283.243 172.584C283.243 172.077 283.16 171.64 282.993 171.274C282.833 170.9 282.59 170.61 282.263 170.404C282.156 170.344 282.07 170.267 282.003 170.174C281.816 170.094 281.61 170.03 281.383 169.984C281.163 169.937 280.95 169.914 280.743 169.914C280.21 169.914 279.716 170.087 279.263 170.434C278.81 170.78 278.44 171.26 278.153 171.874C277.873 172.487 277.733 173.104 277.733 173.724C277.733 174.57 277.946 175.254 278.373 175.774C278.806 176.287 279.376 176.544 280.083 176.544ZM288.574 177.694C287.761 177.694 287.144 177.417 286.724 176.864C286.304 176.304 286.131 175.527 286.204 174.534C286.264 173.787 286.448 173.034 286.754 172.274C287.061 171.507 287.461 170.83 287.954 170.244C288.454 169.65 289.011 169.197 289.624 168.884C290.238 168.57 290.888 168.414 291.574 168.414C291.894 168.414 292.224 168.45 292.564 168.524C292.904 168.59 293.208 168.684 293.474 168.804C293.561 168.757 293.668 168.734 293.794 168.734C294.014 168.734 294.178 168.8 294.284 168.934C294.398 169.067 294.454 169.284 294.454 169.584C294.454 170.084 294.281 170.914 293.934 172.074C293.861 172.507 293.804 172.947 293.764 173.394C293.731 173.84 293.714 174.28 293.714 174.714C293.714 175.14 293.728 175.454 293.754 175.654C293.781 175.847 293.824 176 293.884 176.114C293.931 176.207 294.024 176.294 294.164 176.374C294.311 176.447 294.414 176.504 294.474 176.544C294.641 176.664 294.724 176.817 294.724 177.004C294.724 177.19 294.651 177.35 294.504 177.484C294.358 177.617 294.164 177.684 293.924 177.684C293.691 177.684 293.461 177.617 293.234 177.484C293.014 177.35 292.838 177.18 292.704 176.974C292.578 176.767 292.478 176.507 292.404 176.194C292.331 175.874 292.294 175.514 292.294 175.114C292.294 174.967 292.298 174.854 292.304 174.774C291.791 175.754 291.228 176.487 290.614 176.974C290.008 177.454 289.328 177.694 288.574 177.694ZM288.884 176.344C289.318 176.344 289.744 176.164 290.164 175.804C290.584 175.437 291.001 174.877 291.414 174.124C291.828 173.364 292.234 172.404 292.634 171.244C292.681 170.937 292.724 170.677 292.764 170.464C292.811 170.244 292.854 170.05 292.894 169.884C292.401 169.724 291.954 169.644 291.554 169.644C291.088 169.644 290.641 169.757 290.214 169.984C289.794 170.204 289.404 170.534 289.044 170.974C288.684 171.414 288.381 171.934 288.134 172.534C287.888 173.134 287.734 173.717 287.674 174.284C287.608 174.91 287.681 175.41 287.894 175.784C288.108 176.157 288.438 176.344 288.884 176.344ZM300.132 177.864C299.252 177.864 298.495 177.664 297.862 177.264C297.229 176.864 296.782 176.294 296.522 175.554C296.262 174.814 296.219 173.947 296.392 172.954C296.552 172.047 296.852 171.25 297.292 170.564C297.739 169.877 298.295 169.347 298.962 168.974C299.635 168.6 300.359 168.414 301.132 168.414C301.652 168.414 302.135 168.497 302.582 168.664C303.035 168.824 303.399 169.047 303.672 169.334C303.925 169.6 303.999 169.877 303.892 170.164C303.792 170.45 303.585 170.594 303.272 170.594C303.092 170.594 302.919 170.54 302.752 170.434C302.585 170.32 302.432 170.154 302.292 169.934C301.912 169.8 301.499 169.734 301.052 169.734C300.312 169.734 299.649 170.034 299.062 170.634C298.482 171.234 298.095 172.03 297.902 173.024C297.695 174.11 297.812 174.974 298.252 175.614C298.699 176.247 299.389 176.564 300.322 176.564C300.709 176.564 301.082 176.514 301.442 176.414C301.802 176.307 302.182 176.14 302.582 175.914C302.749 175.82 302.892 175.817 303.012 175.904C303.139 175.984 303.212 176.124 303.232 176.324C303.252 176.524 303.209 176.684 303.102 176.804C302.815 177.117 302.402 177.374 301.862 177.574C301.329 177.767 300.752 177.864 300.132 177.864ZM313.252 177.984C312.639 177.984 312.179 177.814 311.872 177.474C311.572 177.134 311.422 176.607 311.422 175.894C311.422 175.674 311.439 175.407 311.472 175.094C311.512 174.78 311.579 174.347 311.672 173.794C311.785 173.14 311.899 172.497 312.012 171.864C312.132 171.224 312.192 170.76 312.192 170.474C312.192 170.207 312.145 170.01 312.052 169.884C311.965 169.757 311.819 169.694 311.612 169.694C311.205 169.694 310.759 169.894 310.272 170.294C309.785 170.694 309.295 171.257 308.802 171.984C308.442 172.517 308.095 173.13 307.762 173.824C307.429 174.51 307.115 175.264 306.822 176.084C306.795 176.504 306.749 176.847 306.682 177.114C306.622 177.38 306.535 177.574 306.422 177.694C306.309 177.814 306.152 177.874 305.952 177.874C305.485 177.874 305.252 177.527 305.252 176.834C305.252 176.534 305.285 176.197 305.352 175.824C305.605 173.784 305.785 172.304 305.892 171.384C305.999 170.457 306.082 169.677 306.142 169.044C306.255 167.944 306.349 166.984 306.422 166.164C306.502 165.344 306.572 164.724 306.632 164.304C306.705 163.824 306.969 163.584 307.422 163.584C307.649 163.584 307.815 163.667 307.922 163.834C308.035 164 308.079 164.25 308.052 164.584C307.959 165.684 307.869 166.63 307.782 167.424C307.695 168.217 307.599 169.027 307.492 169.854C307.372 170.767 307.285 171.394 307.232 171.734C307.185 172.074 307.139 172.404 307.092 172.724C307.372 172.07 307.705 171.437 308.092 170.824C308.665 169.904 309.282 169.21 309.942 168.744C310.602 168.277 311.305 168.044 312.052 168.044C312.599 168.044 313.012 168.214 313.292 168.554C313.572 168.894 313.712 169.394 313.712 170.054C313.712 170.254 313.695 170.484 313.662 170.744C313.635 171.004 313.589 171.32 313.522 171.694C313.195 173.494 313.009 174.57 312.962 174.924C312.922 175.277 312.902 175.584 312.902 175.844C312.902 176.17 312.929 176.417 312.982 176.584C313.309 176.65 313.515 176.7 313.602 176.734C313.695 176.76 313.782 176.794 313.862 176.834C314.089 176.947 314.202 177.12 314.202 177.354C314.202 177.554 314.119 177.707 313.952 177.814C313.785 177.927 313.552 177.984 313.252 177.984ZM319.548 177.934C318.642 177.934 317.858 177.674 317.198 177.154C316.538 176.627 316.092 175.92 315.858 175.034C315.632 174.14 315.655 173.184 315.928 172.164C316.135 171.404 316.472 170.72 316.938 170.114C317.412 169.507 317.975 169.034 318.628 168.694C319.288 168.347 319.965 168.174 320.658 168.174C321.552 168.174 322.252 168.407 322.758 168.874C323.265 169.34 323.495 169.96 323.448 170.734C323.388 171.667 322.905 172.4 321.998 172.934C321.092 173.467 319.852 173.734 318.278 173.734C318.078 173.734 317.885 173.73 317.698 173.724C317.518 173.717 317.338 173.707 317.158 173.694C317.145 174.554 317.365 175.257 317.818 175.804C318.272 176.35 318.875 176.624 319.628 176.624C320.102 176.624 320.565 176.547 321.018 176.394C321.472 176.234 321.852 176.01 322.158 175.724C322.338 175.557 322.528 175.494 322.728 175.534C322.928 175.574 323.062 175.69 323.128 175.884C323.195 176.077 323.155 176.274 323.008 176.474C322.788 176.774 322.505 177.034 322.158 177.254C321.812 177.467 321.408 177.634 320.948 177.754C320.495 177.874 320.028 177.934 319.548 177.934ZM317.958 172.614C319.138 172.614 320.085 172.444 320.798 172.104C321.512 171.764 321.892 171.307 321.938 170.734C321.965 170.36 321.855 170.057 321.608 169.824C321.368 169.584 321.035 169.464 320.608 169.464C320.135 169.464 319.668 169.597 319.208 169.864C318.748 170.13 318.348 170.504 318.008 170.984C317.675 171.464 317.442 172 317.308 172.594C317.382 172.6 317.462 172.607 317.548 172.614C317.642 172.614 317.778 172.614 317.958 172.614ZM328.043 178.274C327.276 178.274 326.61 178.094 326.043 177.734C325.476 177.374 325.086 176.86 324.873 176.194C324.826 176.06 324.79 175.927 324.763 175.794C324.743 175.66 324.733 175.537 324.733 175.424C324.733 175.197 324.78 175.02 324.873 174.894C324.973 174.76 325.12 174.694 325.313 174.694C325.546 174.694 325.753 174.83 325.933 175.104C326.12 175.37 326.31 175.847 326.503 176.534C326.716 176.674 326.946 176.784 327.193 176.864C327.44 176.937 327.696 176.974 327.963 176.974C328.43 176.974 328.823 176.857 329.143 176.624C329.463 176.384 329.64 176.077 329.673 175.704C329.7 175.377 329.62 175.064 329.433 174.764C329.246 174.457 328.71 173.947 327.823 173.234C327.083 172.634 326.583 172.117 326.323 171.684C326.063 171.25 325.96 170.767 326.013 170.234C326.08 169.547 326.393 168.987 326.953 168.554C327.513 168.12 328.22 167.904 329.073 167.904C329.613 167.904 330.1 167.987 330.533 168.154C330.973 168.32 331.356 168.567 331.683 168.894C331.896 169.107 332.003 169.32 332.003 169.534C332.003 169.667 331.956 169.784 331.863 169.884C331.77 169.977 331.653 170.024 331.513 170.024C331.346 170.024 331.166 169.954 330.973 169.814C330.693 169.607 330.406 169.457 330.113 169.364C329.82 169.264 329.49 169.214 329.123 169.214C328.703 169.214 328.34 169.31 328.033 169.504C327.726 169.69 327.56 169.94 327.533 170.254C327.506 170.514 327.58 170.77 327.753 171.024C327.933 171.27 328.46 171.74 329.333 172.434C330.06 173.007 330.57 173.564 330.863 174.104C331.156 174.644 331.266 175.22 331.193 175.834C331.106 176.547 330.77 177.134 330.183 177.594C329.603 178.047 328.89 178.274 328.043 178.274ZM341.753 177.824C340.406 177.824 339.383 177.37 338.683 176.464C337.989 175.557 337.643 174.227 337.643 172.474C337.643 171.347 337.776 170.28 338.043 169.274C338.309 168.267 338.696 167.384 339.203 166.624C339.709 165.864 340.303 165.28 340.983 164.874C341.663 164.46 342.389 164.254 343.163 164.254C344.003 164.254 344.749 164.48 345.403 164.934C346.056 165.387 346.469 165.96 346.643 166.654C346.676 166.774 346.676 166.88 346.643 166.974C346.983 167.587 347.153 168.464 347.153 169.604C347.153 170.424 347.069 171.264 346.903 172.124C346.743 172.984 346.513 173.79 346.213 174.544C345.786 175.61 345.189 176.424 344.423 176.984C343.663 177.544 342.773 177.824 341.753 177.824ZM341.743 176.514C342.443 176.514 343.056 176.294 343.583 175.854C344.116 175.414 344.539 174.767 344.853 173.914C345.093 173.254 345.279 172.554 345.413 171.814C345.553 171.067 345.623 170.337 345.623 169.624C345.623 168.75 345.533 168.024 345.353 167.444C345.306 167.277 345.303 167.13 345.343 167.004C345.156 166.564 344.859 166.214 344.453 165.954C344.046 165.687 343.579 165.554 343.053 165.554C342.533 165.554 342.036 165.73 341.563 166.084C341.089 166.43 340.669 166.93 340.303 167.584C339.936 168.23 339.652 168.98 339.452 169.834C339.253 170.68 339.153 171.564 339.153 172.484C339.153 175.17 340.016 176.514 341.743 176.514Z" fill="#808080"/>
</svg>
