<svg width="600" height="420" viewBox="0 0 600 420" fill="none" xmlns="http://www.w3.org/2000/svg">
<g clip-path="url(#clip0_902_5950)">
<path d="M600 0H0V420H600V0Z" fill="black"/>
<path d="M540 60H60V360H540V60Z" fill="black"/>
<path d="M60 72H540" stroke="#181818"/>
<path d="M60 84H540" stroke="#181818"/>
<path d="M60 96H540" stroke="#181818"/>
<path d="M60 108H540" stroke="#181818"/>
<path d="M60 132H540" stroke="#181818"/>
<path d="M60 144H540" stroke="#181818"/>
<path d="M60 156H540" stroke="#181818"/>
<path d="M60 168H540" stroke="#181818"/>
<path d="M60 192H540" stroke="#181818"/>
<path d="M60 204H540" stroke="#181818"/>
<path d="M60 216H540" stroke="#181818"/>
<path d="M60 228H540" stroke="#181818"/>
<path d="M60 252H540" stroke="#181818"/>
<path d="M60 264H540" stroke="#181818"/>
<path d="M60 276H540" stroke="#181818"/>
<path d="M60 288H540" stroke="#181818"/>
<path d="M60 312H540" stroke="#181818"/>
<path d="M60 324H540" stroke="#181818"/>
<path d="M60 336H540" stroke="#181818"/>
<path d="M60 348H540" stroke="#181818"/>
<path d="M120 60V360" stroke="#181818"/>
<path d="M180 60V360" stroke="#181818"/>
<path d="M240 60V360" stroke="#181818"/>
<path d="M300 60V360" stroke="#181818"/>
<path d="M420 60V360" stroke="#181818"/>
<path d="M480 60V360" stroke="#181818"/>
<path d="M540 60V360" stroke="#181818"/>
<path d="M60 60H540" stroke="#262626"/>
<path d="M60 180H540" stroke="#262626"/>
<path d="M60 300H540" stroke="#262626"/>
<path d="M360 60V360" stroke="#262626"/>
<path d="M60 120H540" stroke="#404040"/>
<path d="M60 240H540" stroke="#404040"/>
<path d="M60 360H540" stroke="#404040"/>
<path d="M60 60V360" stroke="#404040"/>
<path d="M60 72H540" stroke="#181818"/>
<path d="M60 84H540" stroke="#181818"/>
<path d="M60 96H540" stroke="#181818"/>
<path d="M60 108H540" stroke="#181818"/>
<path d="M60 132H540" stroke="#181818"/>
<path d="M60 144H540" stroke="#181818"/>
<path d="M60 156H540" stroke="#181818"/>
<path d="M60 168H540" stroke="#181818"/>
<path d="M60 192H540" stroke="#181818"/>
<path d="M60 204H540" stroke="#181818"/>
<path d="M60 216H540" stroke="#181818"/>
<path d="M60 228H540" stroke="#181818"/>
<path d="M60 252H540" stroke="#181818"/>
<path d="M60 264H540" stroke="#181818"/>
<path d="M60 276H540" stroke="#181818"/>
<path d="M60 288H540" stroke="#181818"/>
<path d="M60 312H540" stroke="#181818"/>
<path d="M60 324H540" stroke="#181818"/>
<path d="M60 336H540" stroke="#181818"/>
<path d="M60 348H540" stroke="#181818"/>
<path d="M120 60V360" stroke="#181818"/>
<path d="M180 60V360" stroke="#181818"/>
<path d="M240 60V360" stroke="#181818"/>
<path d="M300 60V360" stroke="#181818"/>
<path d="M420 60V360" stroke="#181818"/>
<path d="M480 60V360" stroke="#181818"/>
<path d="M540 60V360" stroke="#181818"/>
<path d="M60 60H540" stroke="#262626"/>
<path d="M60 180H540" stroke="#262626"/>
<path d="M60 300H540" stroke="#262626"/>
<path d="M360 60V360" stroke="#262626"/>
<path d="M60 120H540" stroke="#404040"/>
<path d="M60 240H540" stroke="#404040"/>
<path d="M60 360H540" stroke="#404040"/>
<path d="M60 60V360" stroke="#404040"/>
<path d="M60 360L61 358.403L62 356.813L63 355.23L64 353.653L65 352.083L66 350.52L67 348.963L68 347.413L69 345.87L70 344.333L71 342.803L72 341.28L73 339.763L74 338.253L75 336.75L76 335.253L77 333.763L78 332.28L79 330.803L80 329.333L81 327.87L82 326.413L83 324.963L84 323.52L85 322.083L86 320.653L87 319.23L88 317.813L89 316.403L90 315L91 313.603L92 312.213L93 310.83L94 309.453L95 308.083L96 306.72L97 305.363L98 304.013L99 302.67L100 301.333L101 300.003L102 298.68L103 297.363L104 296.053L105 294.75L106 293.453L107 292.163L108 290.88L109 289.603L110 288.333L111 287.07L112 285.813L113 284.563L114 283.32L115 282.083L116 280.853L117 279.63L118 278.413L119 277.203L120 276L121 274.803L122 273.613L123 272.43L124 271.253L125 270.083L126 268.92L127 267.763L128 266.613L129 265.47L130 264.333L131 263.203L132 262.08L133 260.963L134 259.853L135 258.75L136 257.653L137 256.563L138 255.48L139 254.403L140 253.333L141 252.27L142 251.213L143 250.163L144 249.12L145 248.083L146 247.053L147 246.03L148 245.013L149 244.003L150 243L151 242.003L152 241.013L153 240.03L154 239.053L155 238.083L156 237.12L157 236.163L158 235.213L159 234.27L160 233.333L161 232.403L162 231.48L163 230.563L164 229.653L165 228.75L166 227.853L167 226.963L168 226.08L169 225.203L170 224.333L171 223.47L172 222.613L173 221.763L174 220.92L175 220.083L176 219.253L177 218.43L178 217.613L179 216.803L180 216L181 215.203L182 214.413L183 213.63L184 212.853L185 212.083L186 211.32L187 210.563L188 209.813L189 209.07L190 208.333L191 207.603L192 206.88L193 206.163L194 205.453L195 204.75L196 204.053L197 203.363L198 202.68L199 202.003L200 201.333L201 200.67L202 200.013L203 199.363L204 198.72L205 198.083L206 197.453L207 196.83L208 196.213L209 195.603L210 195L211 194.403L212 193.813L213 193.23L214 192.653L215 192.083L216 191.52L217 190.963L218 190.413L219 189.87L220 189.333L221 188.803L222 188.28L223 187.763L224 187.253L225 186.75L226 186.253L227 185.763L228 185.28L229 184.803L230 184.333L231 183.87L232 183.413L233 182.963L234 182.52L235 182.083L236 181.653L237 181.23L238 180.813L239 180.403L240 180L241 179.603L242 179.213L243 178.83L244 178.453L245 178.083L246 177.72L247 177.363L248 177.013L249 176.67L250 176.333L251 176.003L252 175.68L253 175.363L254 175.053L255 174.75L256 174.453L257 174.163L258 173.88L259 173.603L260 173.333L261 173.07L262 172.813L263 172.563L264 172.32L265 172.083L266 171.853L267 171.63L268 171.413L269 171.203L270 171L271 170.803L272 170.613L273 170.43L274 170.253L275 170.083L276 169.92L277 169.763L278 169.613L279 169.47L280 169.333L281 169.203L282 169.08L283 168.963L284 168.853L285 168.75L286 168.653L287 168.563L288 168.48L289 168.403L290 168.333L291 168.27L292 168.213L293 168.163L294 168.12L295 168.083L296 168.053L297 168.03L298 168.013L299 168.003L300 168L301 168.003L302 168.013L303 168.03L304 168.053L305 168.083L306 168.12L307 168.163L308 168.213L309 168.27L310 168.333L311 168.403L312 168.48L313 168.563L314 168.653L315 168.75L316 168.853L317 168.963L318 169.08L319 169.203L320 169.333L321 169.47L322 169.613L323 169.763L324 169.92L325 170.083L326 170.253L327 170.43L328 170.613L329 170.803L330 171L331 171.203L332 171.413L333 171.63L334 171.853L335 172.083L336 172.32L337 172.563L338 172.813L339 173.07L340 173.333L341 173.603L342 173.88L343 174.163L344 174.453L345 174.75L346 175.053L347 175.363L348 175.68L349 176.003L350 176.333L351 176.67L352 177.013L353 177.363L354 177.72L355 178.083L356 178.453L357 178.83L358 179.213L359 179.603L360 180L361 180.403L362 180.813L363 181.23L364 181.653L365 182.083L366 182.52L367 182.963L368 183.413L369 183.87L370 184.333L371 184.803L372 185.28L373 185.763L374 186.253L375 186.75L376 187.253L377 187.763L378 188.28L379 188.803L380 189.333L381 189.87L382 190.413L383 190.963L384 191.52L385 192.083L386 192.653L387 193.23L388 193.813L389 194.403L390 195L391 195.603L392 196.213L393 196.83L394 197.453L395 198.083L396 198.72L397 199.363L398 200.013L399 200.67L400 201.333L401 202.003L402 202.68L403 203.363L404 204.053L405 204.75L406 205.453L407 206.163L408 206.88L409 207.603L410 208.333L411 209.07L412 209.813L413 210.563L414 211.32L415 212.083L416 212.853L417 213.63L418 214.413L419 215.203L420 216L421 216.803L422 217.613L423 218.43L424 219.253L425 220.083L426 220.92L427 221.763L428 222.613L429 223.47L430 224.333L431 225.203L432 226.08L433 226.963L434 227.853L435 228.75L436 229.653L437 230.563L438 231.48L439 232.403L440 233.333L441 234.27L442 235.213L443 236.163L444 237.12L445 238.083L446 239.053L447 240.03L448 241.013L449 242.003L450 243L451 244.003L452 245.013L453 246.03L454 247.053L455 248.083L456 249.12L457 250.163L458 251.213L459 252.27L460 253.333L461 254.403L462 255.48L463 256.563L464 257.653L465 258.75L466 259.853L467 260.963L468 262.08L469 263.203L470 264.333L471 265.47L472 266.613L473 267.763L474 268.92L475 270.083L476 271.253L477 272.43L478 273.613L479 274.803L480 276L481 277.203L482 278.413L483 279.63L484 280.853L485 282.083L486 283.32L487 284.563L488 285.813L489 287.07L490 288.333L491 289.603L492 290.88L493 292.163L494 293.453L495 294.75L496 296.053L497 297.363L498 298.68L499 300.003L500 301.333L501 302.67L502 304.013L503 305.363L504 306.72L505 308.083L506 309.453L507 310.83L508 312.213L509 313.603L510 315L511 316.403L512 317.813L513 319.23L514 320.653L515 322.083L516 323.52L517 324.963L518 326.413L519 327.87L520 329.333L521 330.803L522 332.28L523 333.763L524 335.253L525 336.75L526 338.253L527 339.763L528 341.28L529 342.803L530 344.333L531 345.87L532 347.413L533 348.963L534 350.52L535 352.083L536 353.653L537 355.23L538 356.813L539 358.403L540 360" stroke="#6AB0F3" stroke-width="1.5"/>
<path d="M60 360H75V336.75H90V360V315H105V360V294.75H120V360V276H135V360V258.75H150V360V243H165V360V228.75H180V360V216H195V360V204.75H210V360V195H225V360V186.75H240V360V180H255V360V174.75H270V360V171H285V360V168.75H300V360V168H315V360V168.75H330V360V171H345V360V174.75H360V360V180H375V360V186.75H390V360V195H405V360V204.75H420V360V216H435V360V228.75H450V360V243H465V360V258.75H480V360V276H495V360V294.75H510V360V315H525V360V336.75H540V360" fill="#6AB0F3" fill-opacity="0.25"/>
<path d="M60 360H75V336.75H90V360V315H105V360V294.75H120V360V276H135V360V258.75H150V360V243H165V360V228.75H180V360V216H195V360V204.75H210V360V195H225V360V186.75H240V360V180H255V360V174.75H270V360V171H285V360V168.75H300V360V168H315V360V168.75H330V360V171H345V360V174.75H360V360V180H375V360V186.75H390V360V195H405V360V204.75H420V360V216H435V360V228.75H450V360V243H465V360V258.75H480V360V276H495V360V294.75H510V360V315H525V360V336.75H540V360" stroke="#6AB0F3" stroke-opacity="0.25" stroke-width="1.5"/>
<path d="M56.92 383.3C57.667 382.22 58.687 381.68 59.98 381.68C60.953 381.68 61.807 382.014 62.54 382.68C62.9 383.028 63.207 383.481 63.46 384.04C63.953 385.146 64.2 386.667 64.2 388.6C64.2 390.667 63.913 392.247 63.34 393.34C62.967 394.113 62.42 394.674 61.7 395.02C61.14 395.3 60.573 395.441 60 395.441C58.467 395.441 57.347 394.741 56.64 393.34C56.066 392.247 55.78 390.667 55.78 388.6C55.78 387.361 55.863 386.337 56.03 385.531C56.197 384.724 56.493 383.981 56.92 383.301V383.3ZM61.42 383.06C61.033 382.634 60.56 382.42 60 382.42C59.44 382.42 58.96 382.634 58.56 383.06C58.267 383.368 58.066 383.741 57.96 384.18C57.853 384.62 57.787 385.38 57.76 386.46C57.76 386.54 57.757 386.8 57.75 387.24C57.743 387.679 57.74 388.047 57.74 388.34C57.74 389.62 57.753 390.514 57.78 391.02C57.833 391.954 57.913 392.624 58.02 393.031C58.126 393.437 58.327 393.788 58.62 394.081C58.98 394.481 59.44 394.681 60 394.681C60.546 394.681 61 394.482 61.36 394.081C61.653 393.788 61.853 393.437 61.96 393.031C62.066 392.624 62.147 391.954 62.2 391.02C62.226 390.514 62.24 389.621 62.24 388.34C62.24 388.047 62.236 387.68 62.23 387.24C62.223 386.8 62.22 386.54 62.22 386.46C62.193 385.38 62.126 384.62 62.02 384.18C61.913 383.741 61.713 383.368 61.42 383.06Z" fill="#F0F0F0"/>
<path d="M538.439 388.3C537.787 387.873 537.283 387.427 536.929 386.96C536.575 386.493 536.4 385.88 536.4 385.12C536.4 384.547 536.505 384.066 536.72 383.68C537.013 383.08 537.443 382.597 538.009 382.231C538.575 381.864 539.226 381.68 539.959 381.68C540.866 381.68 541.652 381.917 542.319 382.39C542.985 382.864 543.399 383.474 543.559 384.22C543.572 384.3 543.579 384.46 543.579 384.7C543.579 384.993 543.565 385.193 543.539 385.3C543.339 386.18 542.731 386.941 541.72 387.58C541.693 387.594 541.656 387.613 541.609 387.64C541.562 387.667 541.533 387.694 541.519 387.72L541.48 387.741C542.226 388.248 542.613 388.514 542.64 388.541C543.64 389.341 544.14 390.334 544.14 391.52C544.14 392.6 543.743 393.524 542.95 394.291C542.156 395.058 541.166 395.441 539.98 395.441C538.339 395.441 537.132 394.84 536.359 393.64C536.026 393.161 535.859 392.58 535.859 391.901C535.859 391.594 535.873 391.387 535.9 391.281C536.099 390.267 536.74 389.401 537.82 388.68C537.9 388.627 538.019 388.554 538.179 388.46C538.339 388.367 538.426 388.314 538.439 388.3ZM537.14 391.861C537.14 392.647 537.426 393.298 537.999 393.81C538.572 394.324 539.239 394.581 539.999 394.581C540.546 394.581 541.042 394.468 541.489 394.241C541.935 394.014 542.272 393.72 542.499 393.361C542.726 393.014 542.839 392.647 542.839 392.26C542.839 391.687 542.606 391.18 542.14 390.74C542.033 390.634 541.48 390.254 540.48 389.599C540.292 389.48 540.089 389.349 539.87 389.209C539.651 389.069 539.48 388.959 539.359 388.879L539.2 388.779L538.96 388.899C538.12 389.446 537.566 390.112 537.3 390.899C537.194 391.246 537.141 391.565 537.141 391.859L537.14 391.861ZM542.419 384.741C542.419 384.168 542.231 383.68 541.858 383.281C541.485 382.881 541.032 382.628 540.499 382.52C540.405 382.507 540.186 382.5 539.839 382.5C539.132 382.5 538.539 382.74 538.06 383.22C537.726 383.528 537.56 383.894 537.56 384.321C537.56 384.894 537.799 385.347 538.279 385.68C538.346 385.747 538.773 386.028 539.56 386.52L540.72 387.281C540.732 387.267 540.82 387.211 540.98 387.111C541.14 387.01 541.259 386.921 541.339 386.84C542.06 386.267 542.419 385.567 542.419 384.74V384.741Z" fill="#F0F0F0"/>
<path d="M26.92 353.3C27.667 352.22 28.687 351.68 29.98 351.68C30.953 351.68 31.807 352.014 32.54 352.68C32.9 353.028 33.207 353.481 33.46 354.04C33.953 355.146 34.2 356.667 34.2 358.6C34.2 360.667 33.913 362.247 33.34 363.34C32.967 364.113 32.42 364.674 31.7 365.02C31.14 365.3 30.573 365.441 30 365.441C28.467 365.441 27.347 364.741 26.64 363.34C26.066 362.247 25.78 360.667 25.78 358.6C25.78 357.361 25.863 356.337 26.03 355.531C26.197 354.724 26.493 353.981 26.92 353.301V353.3ZM31.42 353.06C31.033 352.634 30.56 352.42 30 352.42C29.44 352.42 28.96 352.634 28.56 353.06C28.267 353.368 28.066 353.741 27.96 354.18C27.853 354.62 27.787 355.38 27.76 356.46C27.76 356.54 27.757 356.8 27.75 357.24C27.743 357.679 27.74 358.047 27.74 358.34C27.74 359.62 27.753 360.514 27.78 361.02C27.833 361.954 27.913 362.624 28.02 363.031C28.126 363.437 28.327 363.788 28.62 364.081C28.98 364.481 29.44 364.681 30 364.681C30.546 364.681 31 364.482 31.36 364.081C31.653 363.788 31.853 363.437 31.96 363.031C32.066 362.624 32.147 361.954 32.2 361.02C32.226 360.514 32.24 359.621 32.24 358.34C32.24 358.047 32.236 357.68 32.23 357.24C32.223 356.8 32.22 356.54 32.22 356.46C32.193 355.38 32.126 354.62 32.02 354.18C31.913 353.741 31.713 353.368 31.42 353.06Z" fill="#F0F0F0"/>
<path d="M27.14 300.72C27.46 300.72 27.73 300.83 27.95 301.05C28.17 301.27 28.28 301.547 28.28 301.88C28.28 302.187 28.167 302.447 27.94 302.66C27.713 302.873 27.46 302.98 27.18 302.98H27.04L27.1 303.08C27.3 303.507 27.606 303.86 28.02 304.14C28.433 304.42 28.92 304.56 29.48 304.56C30.427 304.56 31.106 304.161 31.52 303.361C31.773 302.868 31.9 302.014 31.9 300.8C31.9 299.427 31.72 298.5 31.36 298.02C31.013 297.581 30.587 297.361 30.08 297.361C29.04 297.361 28.253 297.814 27.72 298.72C27.666 298.814 27.616 298.87 27.57 298.89C27.523 298.911 27.427 298.92 27.28 298.92C27.053 298.92 26.927 298.88 26.9 298.8C26.873 298.747 26.86 297.58 26.86 295.3C26.86 294.901 26.857 294.427 26.85 293.88C26.843 293.333 26.84 292.987 26.84 292.84C26.84 292.094 26.88 291.72 26.96 291.72C26.986 291.694 27.013 291.68 27.04 291.68L27.4 291.8C28.267 292.147 29.153 292.321 30.06 292.321C31.006 292.321 31.913 292.134 32.78 291.76C32.887 291.707 32.973 291.68 33.04 291.68C33.146 291.68 33.2 291.8 33.2 292.04V292.3C32.12 293.594 30.753 294.24 29.1 294.24C28.686 294.24 28.313 294.2 27.98 294.12L27.78 294.08V297.519C28.54 296.907 29.32 296.599 30.12 296.599C30.373 296.599 30.646 296.633 30.94 296.7C31.833 296.927 32.563 297.433 33.13 298.22C33.697 299.007 33.98 299.927 33.98 300.981C33.98 302.194 33.557 303.241 32.71 304.121C31.863 305.001 30.82 305.441 29.58 305.441C28.74 305.441 28.026 305.208 27.44 304.741C27.187 304.581 26.967 304.361 26.78 304.081C26.26 303.454 26 302.734 26 301.921C26 301.548 26.106 301.255 26.32 301.041C26.533 300.828 26.807 300.721 27.14 300.721V300.72Z" fill="#F0F0F0"/>
<path d="M28.32 245C28.093 244.96 27.033 244.94 25.14 244.94C23.273 244.94 22.226 244.96 22 245H21.76V244.08H22.28C23.053 244.08 23.553 244.059 23.78 244.019C23.887 244.006 24.047 243.926 24.26 243.78V233.44C24.233 233.44 24.18 233.46 24.1 233.5C23.486 233.74 22.8 233.867 22.04 233.88H21.66V232.96H22.04C23.16 232.92 24.093 232.667 24.84 232.2C25.08 232.066 25.287 231.913 25.46 231.74C25.486 231.7 25.566 231.679 25.7 231.679C25.833 231.679 25.947 231.719 26.04 231.799V237.779L26.06 243.779C26.26 243.979 26.693 244.079 27.36 244.079H28.54V244.999H28.32V245Z" fill="#F0F0F0"/>
<path d="M31.92 233.3C32.667 232.22 33.687 231.68 34.98 231.68C35.953 231.68 36.807 232.014 37.54 232.68C37.9 233.028 38.207 233.481 38.46 234.04C38.953 235.146 39.2 236.667 39.2 238.6C39.2 240.667 38.913 242.247 38.34 243.34C37.967 244.113 37.42 244.674 36.7 245.02C36.14 245.3 35.573 245.441 35 245.441C33.467 245.441 32.347 244.741 31.64 243.34C31.066 242.247 30.78 240.667 30.78 238.6C30.78 237.361 30.863 236.337 31.03 235.531C31.197 234.724 31.493 233.98 31.92 233.3ZM36.42 233.06C36.033 232.634 35.56 232.42 35 232.42C34.44 232.42 33.96 232.634 33.56 233.06C33.267 233.368 33.066 233.741 32.96 234.18C32.853 234.62 32.787 235.38 32.76 236.46C32.76 236.54 32.757 236.8 32.75 237.24C32.743 237.679 32.74 238.047 32.74 238.34C32.74 239.62 32.753 240.514 32.78 241.02C32.833 241.954 32.913 242.624 33.02 243.031C33.126 243.437 33.327 243.788 33.62 244.081C33.98 244.481 34.44 244.681 35 244.681C35.546 244.681 36 244.482 36.36 244.081C36.653 243.788 36.853 243.437 36.96 243.031C37.066 242.624 37.147 241.954 37.2 241.02C37.226 240.514 37.24 239.621 37.24 238.34C37.24 238.047 37.236 237.68 37.23 237.24C37.223 236.8 37.22 236.54 37.22 236.46C37.193 235.38 37.126 234.62 37.02 234.18C36.913 233.741 36.713 233.368 36.42 233.06Z" fill="#F0F0F0"/>
<path d="M28.32 185C28.093 184.96 27.033 184.94 25.14 184.94C23.273 184.94 22.226 184.96 22 185H21.76V184.08H22.28C23.053 184.08 23.553 184.059 23.78 184.019C23.887 184.006 24.047 183.926 24.26 183.78V173.44C24.233 173.44 24.18 173.46 24.1 173.5C23.486 173.74 22.8 173.867 22.04 173.88H21.66V172.96H22.04C23.16 172.92 24.093 172.667 24.84 172.2C25.08 172.066 25.287 171.913 25.46 171.74C25.486 171.7 25.566 171.679 25.7 171.679C25.833 171.679 25.947 171.719 26.04 171.799V177.779L26.06 183.779C26.26 183.979 26.693 184.079 27.36 184.079H28.54V184.999H28.32V185Z" fill="#F0F0F0"/>
<path d="M32.14 180.72C32.46 180.72 32.73 180.83 32.95 181.05C33.17 181.27 33.28 181.547 33.28 181.88C33.28 182.187 33.167 182.447 32.94 182.66C32.713 182.873 32.46 182.98 32.18 182.98H32.04L32.1 183.08C32.3 183.507 32.606 183.86 33.02 184.14C33.433 184.42 33.92 184.56 34.48 184.56C35.427 184.56 36.106 184.161 36.52 183.361C36.773 182.868 36.9 182.014 36.9 180.8C36.9 179.427 36.72 178.5 36.36 178.02C36.013 177.581 35.587 177.361 35.08 177.361C34.04 177.361 33.253 177.814 32.72 178.72C32.666 178.814 32.616 178.87 32.57 178.89C32.523 178.911 32.427 178.92 32.28 178.92C32.053 178.92 31.927 178.88 31.9 178.8C31.873 178.747 31.86 177.58 31.86 175.3C31.86 174.901 31.857 174.427 31.85 173.88C31.843 173.333 31.84 172.987 31.84 172.84C31.84 172.094 31.88 171.72 31.96 171.72C31.986 171.694 32.013 171.68 32.04 171.68L32.4 171.8C33.267 172.147 34.153 172.321 35.06 172.321C36.006 172.321 36.913 172.134 37.78 171.76C37.887 171.707 37.973 171.68 38.04 171.68C38.146 171.68 38.2 171.8 38.2 172.04V172.3C37.12 173.594 35.753 174.24 34.1 174.24C33.686 174.24 33.313 174.2 32.98 174.12L32.78 174.08V177.519C33.54 176.907 34.32 176.599 35.12 176.599C35.373 176.599 35.646 176.633 35.94 176.7C36.833 176.927 37.563 177.433 38.13 178.22C38.697 179.007 38.98 179.927 38.98 180.981C38.98 182.194 38.557 183.241 37.71 184.121C36.863 185.001 35.82 185.441 34.58 185.441C33.74 185.441 33.026 185.208 32.44 184.741C32.187 184.581 31.967 184.361 31.78 184.081C31.26 183.454 31 182.734 31 181.921C31 181.548 31.106 181.255 31.32 181.041C31.533 180.828 31.807 180.72 32.14 180.72Z" fill="#F0F0F0"/>
<path d="M22.2 116.42C21.826 116.42 21.533 116.3 21.32 116.06C21.107 115.821 21 115.528 21 115.18C21 114.22 21.363 113.397 22.09 112.71C22.817 112.023 23.687 111.68 24.7 111.68C25.846 111.68 26.796 111.991 27.55 112.611C28.304 113.231 28.767 114.041 28.94 115.041C28.967 115.281 28.98 115.501 28.98 115.701C28.98 116.474 28.747 117.201 28.28 117.881C27.907 118.442 27.154 119.208 26.02 120.181C25.54 120.595 24.873 121.208 24.02 122.021L22.84 123.141L24.36 123.162C26.453 123.162 27.567 123.129 27.7 123.061C27.753 123.048 27.82 122.909 27.9 122.641C27.953 122.495 28.046 122.041 28.18 121.282V121.221H28.98V121.282L28.42 124.942V125.002H21V124.622C21 124.355 21.013 124.202 21.04 124.162C21.053 124.136 21.613 123.502 22.72 122.262C24.173 120.649 25.106 119.582 25.52 119.062C26.413 117.849 26.86 116.736 26.86 115.722C26.86 114.842 26.63 114.106 26.17 113.512C25.71 112.919 25.066 112.622 24.24 112.622C23.467 112.622 22.84 112.969 22.36 113.662C22.333 113.716 22.293 113.789 22.24 113.882C22.2 113.949 22.18 113.989 22.18 114.002C22.18 114.016 22.213 114.022 22.28 114.022C22.613 114.022 22.884 114.142 23.09 114.382C23.296 114.622 23.4 114.903 23.4 115.222C23.4 115.556 23.29 115.839 23.07 116.073C22.85 116.306 22.56 116.423 22.2 116.423V116.42Z" fill="#F0F0F0"/>
<path d="M31.92 113.3C32.667 112.22 33.687 111.68 34.98 111.68C35.953 111.68 36.807 112.014 37.54 112.68C37.9 113.028 38.207 113.481 38.46 114.04C38.953 115.146 39.2 116.667 39.2 118.6C39.2 120.667 38.913 122.247 38.34 123.34C37.967 124.113 37.42 124.674 36.7 125.02C36.14 125.3 35.573 125.441 35 125.441C33.467 125.441 32.347 124.741 31.64 123.34C31.066 122.247 30.78 120.667 30.78 118.6C30.78 117.361 30.863 116.337 31.03 115.531C31.197 114.724 31.493 113.98 31.92 113.3ZM36.42 113.06C36.033 112.634 35.56 112.42 35 112.42C34.44 112.42 33.96 112.634 33.56 113.06C33.267 113.368 33.066 113.741 32.96 114.18C32.853 114.62 32.787 115.38 32.76 116.46C32.76 116.54 32.757 116.8 32.75 117.24C32.743 117.679 32.74 118.047 32.74 118.34C32.74 119.62 32.753 120.514 32.78 121.02C32.833 121.954 32.913 122.624 33.02 123.031C33.126 123.437 33.327 123.788 33.62 124.081C33.98 124.481 34.44 124.681 35 124.681C35.546 124.681 36 124.482 36.36 124.081C36.653 123.788 36.853 123.437 36.96 123.031C37.066 122.624 37.147 121.954 37.2 121.02C37.226 120.514 37.24 119.621 37.24 118.34C37.24 118.047 37.236 117.68 37.23 117.24C37.223 116.8 37.22 116.54 37.22 116.46C37.193 115.38 37.126 114.62 37.02 114.18C36.913 113.741 36.713 113.368 36.42 113.06Z" fill="#F0F0F0"/>
<path d="M22.2 56.4197C21.826 56.4197 21.533 56.2997 21.32 56.0597C21.107 55.8207 21 55.5277 21 55.1797C21 54.2197 21.363 53.3967 22.09 52.7097C22.817 52.0227 23.687 51.6797 24.7 51.6797C25.846 51.6797 26.796 51.9907 27.55 52.6107C28.304 53.2307 28.767 54.0407 28.94 55.0407C28.967 55.2807 28.98 55.5007 28.98 55.7007C28.98 56.4737 28.747 57.2007 28.28 57.8807C27.907 58.4417 27.154 59.2077 26.02 60.1807C25.54 60.5947 24.873 61.2077 24.02 62.0207L22.84 63.1407L24.36 63.1617C26.453 63.1617 27.567 63.1287 27.7 63.0607C27.753 63.0477 27.82 62.9087 27.9 62.6407C27.953 62.4947 28.046 62.0407 28.18 61.2817V61.2207H28.98V61.2817L28.42 64.9417V65.0017H21V64.6217C21 64.3547 21.013 64.2017 21.04 64.1617C21.053 64.1357 21.613 63.5017 22.72 62.2617C24.173 60.6487 25.106 59.5817 25.52 59.0617C26.413 57.8487 26.86 56.7357 26.86 55.7217C26.86 54.8417 26.63 54.1057 26.17 53.5117C25.71 52.9187 25.066 52.6217 24.24 52.6217C23.467 52.6217 22.84 52.9687 22.36 53.6617C22.333 53.7157 22.293 53.7887 22.24 53.8817C22.2 53.9487 22.18 53.9887 22.18 54.0017C22.18 54.0157 22.213 54.0217 22.28 54.0217C22.613 54.0217 22.884 54.1417 23.09 54.3817C23.296 54.6217 23.4 54.9027 23.4 55.2217C23.4 55.5557 23.29 55.8387 23.07 56.0727C22.85 56.3057 22.56 56.4227 22.2 56.4227V56.4197Z" fill="#F0F0F0"/>
<path d="M32.14 60.7197C32.46 60.7197 32.73 60.8297 32.95 61.0497C33.17 61.2697 33.28 61.5467 33.28 61.8797C33.28 62.1867 33.167 62.4467 32.94 62.6597C32.713 62.8727 32.46 62.9797 32.18 62.9797H32.04L32.1 63.0797C32.3 63.5067 32.606 63.8597 33.02 64.1397C33.433 64.4197 33.92 64.5597 34.48 64.5597C35.427 64.5597 36.106 64.1607 36.52 63.3607C36.773 62.8677 36.9 62.0137 36.9 60.7997C36.9 59.4267 36.72 58.4997 36.36 58.0197C36.013 57.5807 35.587 57.3607 35.08 57.3607C34.04 57.3607 33.253 57.8137 32.72 58.7197C32.666 58.8137 32.616 58.8697 32.57 58.8897C32.523 58.9107 32.427 58.9197 32.28 58.9197C32.053 58.9197 31.927 58.8797 31.9 58.7997C31.873 58.7467 31.86 57.5797 31.86 55.2997C31.86 54.9007 31.857 54.4267 31.85 53.8797C31.843 53.3327 31.84 52.9867 31.84 52.8397C31.84 52.0937 31.88 51.7197 31.96 51.7197C31.986 51.6937 32.013 51.6797 32.04 51.6797L32.4 51.7997C33.267 52.1467 34.153 52.3207 35.06 52.3207C36.006 52.3207 36.913 52.1337 37.78 51.7597C37.887 51.7067 37.973 51.6797 38.04 51.6797C38.146 51.6797 38.2 51.7997 38.2 52.0397V52.2997C37.12 53.5937 35.753 54.2397 34.1 54.2397C33.686 54.2397 33.313 54.1997 32.98 54.1197L32.78 54.0797V57.5187C33.54 56.9067 34.32 56.5987 35.12 56.5987C35.373 56.5987 35.646 56.6327 35.94 56.6997C36.833 56.9267 37.563 57.4327 38.13 58.2197C38.697 59.0067 38.98 59.9267 38.98 60.9807C38.98 62.1937 38.557 63.2407 37.71 64.1207C36.863 65.0007 35.82 65.4407 34.58 65.4407C33.74 65.4407 33.026 65.2077 32.44 64.7407C32.187 64.5807 31.967 64.3607 31.78 64.0807C31.26 63.4537 31 62.7337 31 61.9207C31 61.5477 31.106 61.2547 31.32 61.0407C31.533 60.8277 31.807 60.7197 32.14 60.7197Z" fill="#F0F0F0"/>
<path d="M77.002 20.5879H39.48V49.1889H77.002V20.5879Z" fill="black"/>
<path d="M46.942 32.4721C46.942 32.1371 46.815 31.9691 46.56 31.9691C46.238 31.9691 45.903 32.1631 45.555 32.5521C45.207 32.9411 44.918 33.5371 44.69 34.3411C44.677 34.3541 44.663 34.3751 44.65 34.4011C44.637 34.4271 44.63 34.4481 44.63 34.4611C44.63 34.4741 44.617 34.4881 44.59 34.5011C44.563 34.5141 44.543 34.5211 44.53 34.5211H44.007C43.927 34.4411 43.886 34.3801 43.886 34.3401C43.886 34.2461 43.94 34.0521 44.047 33.7571C44.154 33.4621 44.315 33.1141 44.53 32.7111C44.745 32.3081 45.039 31.9671 45.415 31.6861C45.791 31.4051 46.213 31.2571 46.682 31.2441C47.245 31.2441 47.681 31.4051 47.989 31.7271C48.297 32.0491 48.458 32.4241 48.472 32.8531C48.472 33.0811 48.452 33.2551 48.412 33.3761C48.412 33.4561 48.311 33.7511 48.11 34.2611C47.909 34.7711 47.701 35.3671 47.487 36.0501C47.273 36.7331 47.152 37.3301 47.125 37.8391C47.125 38.2011 47.159 38.4961 47.226 38.7241C47.4 39.3001 47.822 39.5891 48.493 39.5891C48.989 39.5891 49.451 39.3611 49.88 38.9051C50.309 38.4491 50.644 37.9201 50.885 37.3171C51.126 36.7141 51.321 36.1581 51.468 35.6481C51.615 35.1381 51.689 34.7701 51.689 34.5421C51.689 34.2341 51.635 33.9661 51.528 33.7381C51.421 33.5101 51.3 33.3361 51.166 33.2151C51.032 33.0941 50.911 32.9741 50.804 32.8531C50.697 32.7321 50.643 32.5851 50.643 32.4111C50.643 32.1161 50.77 31.8411 51.025 31.5871C51.28 31.3331 51.554 31.2051 51.849 31.2051C52.104 31.2051 52.332 31.3261 52.533 31.5671C52.734 31.8081 52.841 32.1971 52.855 32.7331C52.855 33.0951 52.775 33.6511 52.614 34.4021C52.453 35.1531 52.205 35.9901 51.87 36.9151C51.535 37.8401 51.059 38.6371 50.442 39.3081C49.825 39.9781 49.115 40.3201 48.311 40.3331C47.453 40.3331 46.769 40.1121 46.26 39.6691C45.764 39.2401 45.516 38.6031 45.516 37.7591C45.516 37.3431 45.57 36.9151 45.677 36.4721C45.784 36.0291 46.059 35.2451 46.501 34.1201C46.796 33.2621 46.943 32.7131 46.943 32.4711L46.942 32.4721Z" fill="#F0F0F0"/>
<path d="M55.105 35.0862C55.105 34.1612 55.172 33.2832 55.306 32.4522C55.44 31.6212 55.594 30.9042 55.768 30.3012C55.942 29.6982 56.19 29.1082 56.512 28.5322C56.834 27.9562 57.088 27.5072 57.276 27.1852C57.464 26.8632 57.745 26.5152 58.12 26.1392C58.495 25.7642 58.716 25.5362 58.784 25.4552C58.852 25.3742 59.019 25.2342 59.287 25.0332H59.629C59.817 25.0332 59.91 25.0932 59.91 25.2142C59.91 25.2542 59.796 25.3952 59.568 25.6362C59.34 25.8772 59.065 26.2322 58.744 26.7022C58.423 27.1722 58.094 27.7482 57.759 28.4312C57.424 29.1142 57.142 30.0402 56.915 31.2062C56.688 32.3722 56.573 33.6662 56.573 35.0872C56.573 36.5082 56.687 37.7952 56.915 38.9472C57.143 40.1002 57.418 41.0312 57.739 41.7422C58.061 42.4522 58.389 43.0292 58.724 43.4712C59.059 43.9132 59.341 44.2692 59.568 44.5372C59.795 44.8052 59.91 44.9462 59.91 44.9592C59.91 45.0802 59.809 45.1402 59.608 45.1402H59.286L58.723 44.6572C57.463 43.5182 56.545 42.0972 55.968 40.3942C55.392 38.6922 55.103 36.9222 55.103 35.0862H55.105Z" fill="#F0F0F0"/>
<path d="M61.56 32.3724C61.466 32.2784 61.419 32.2114 61.419 32.1714C61.419 32.1174 61.439 32.0104 61.479 31.8494C61.519 31.6884 61.553 31.5944 61.58 31.5684C61.607 31.5014 61.667 31.4674 61.761 31.4674C61.855 31.4674 62.197 31.4604 62.786 31.4474H63.852L64.234 29.8384C64.274 29.6914 64.321 29.4964 64.375 29.2554C64.429 29.0144 64.476 28.8394 64.516 28.7324C64.556 28.6254 64.596 28.4914 64.637 28.3304C64.678 28.1694 64.731 28.0554 64.798 27.9884C64.865 27.9214 64.932 27.8414 64.999 27.7474C65.066 27.6534 65.16 27.5934 65.28 27.5664C65.4 27.5394 65.521 27.5264 65.642 27.5264C65.883 27.5394 66.051 27.6134 66.145 27.7474C66.239 27.8814 66.286 28.0084 66.286 28.1294C66.286 28.2234 66.226 28.5384 66.105 29.0744C65.984 29.6104 65.85 30.1404 65.703 30.6624L65.502 31.4064C65.502 31.4334 65.837 31.4464 66.507 31.4464H67.532C67.626 31.5404 67.673 31.6144 67.673 31.6674C67.673 31.9624 67.586 32.1964 67.412 32.3714H65.261L64.537 35.2864C64.014 37.4314 63.753 38.5834 63.753 38.7444C63.753 39.3074 63.934 39.5884 64.296 39.5884C64.765 39.5884 65.221 39.3604 65.663 38.9044C66.105 38.4484 66.461 37.8854 66.729 37.2154C66.756 37.1354 66.789 37.0884 66.83 37.0744C66.871 37.0604 66.971 37.0474 67.132 37.0344H67.212C67.413 37.0344 67.514 37.0884 67.514 37.1954C67.514 37.2354 67.494 37.3164 67.454 37.4364C67.387 37.6504 67.266 37.9054 67.092 38.2004C66.918 38.4954 66.69 38.8104 66.408 39.1454C66.127 39.4804 65.785 39.7624 65.383 39.9894C64.981 40.2174 64.572 40.3314 64.156 40.3314C63.754 40.3314 63.372 40.2304 63.01 40.0294C62.648 39.8284 62.387 39.4794 62.226 38.9834C62.199 38.8764 62.186 38.6954 62.186 38.4404V38.0784L62.89 35.2634C63.359 33.3734 63.6 32.4214 63.614 32.4084C63.614 32.3814 63.272 32.3684 62.589 32.3684H61.564L61.56 32.3724Z" fill="#F0F0F0"/>
<path d="M69.502 25.0532L69.582 25.0332H70.024L70.587 25.5162C71.847 26.6552 72.765 28.0762 73.342 29.7792C73.918 31.4812 74.207 33.2512 74.207 35.0872C74.207 35.9992 74.14 36.8762 74.006 37.7212C73.872 38.5662 73.718 39.2832 73.544 39.8722C73.37 40.4622 73.122 41.0522 72.8 41.6412C72.478 42.2312 72.224 42.6802 72.036 42.9882C71.848 43.2962 71.574 43.6382 71.212 44.0132C70.85 44.3882 70.636 44.6092 70.569 44.6772C70.502 44.7452 70.348 44.8712 70.107 45.0592C70.067 45.0992 70.04 45.1262 70.027 45.1392H69.565C69.525 45.1392 69.491 45.1192 69.464 45.0792C69.437 45.0392 69.417 44.9782 69.404 44.8982C69.417 44.8852 69.491 44.7972 69.625 44.6372C71.703 42.4792 72.742 39.2952 72.742 35.0862C72.742 30.8772 71.703 27.6932 69.625 25.5352C69.491 25.3742 69.417 25.2872 69.404 25.2742C69.404 25.1672 69.438 25.0932 69.505 25.0532H69.502Z" fill="#F0F0F0"/>
<path d="M567.83 348.569H556.563V369.209H567.83V348.569Z" fill="black"/>
<path d="M561.113 357.86C561.019 357.766 560.972 357.699 560.972 357.659C560.972 357.605 560.992 357.498 561.032 357.337C561.072 357.176 561.106 357.082 561.133 357.055C561.16 356.988 561.22 356.954 561.314 356.954C561.408 356.954 561.75 356.947 562.34 356.934H563.406L563.788 355.325C563.828 355.178 563.875 354.983 563.929 354.742C563.983 354.501 564.03 354.326 564.07 354.219C564.11 354.112 564.15 353.978 564.191 353.817C564.232 353.656 564.285 353.542 564.352 353.475C564.419 353.408 564.486 353.328 564.553 353.234C564.62 353.14 564.714 353.08 564.835 353.053C564.956 353.026 565.076 353.013 565.197 353.013C565.438 353.026 565.606 353.1 565.7 353.234C565.794 353.368 565.841 353.495 565.841 353.616C565.841 353.71 565.781 354.025 565.66 354.561C565.539 355.097 565.405 355.627 565.258 356.15L565.057 356.894C565.057 356.921 565.392 356.934 566.062 356.934H567.088C567.182 357.028 567.229 357.102 567.229 357.155C567.229 357.45 567.142 357.685 566.968 357.859H564.816L564.092 360.775C563.569 362.92 563.308 364.073 563.308 364.234C563.308 364.797 563.489 365.079 563.851 365.079C564.32 365.079 564.776 364.851 565.218 364.395C565.66 363.939 566.016 363.376 566.284 362.706C566.311 362.626 566.344 362.579 566.385 362.565C566.426 362.551 566.526 362.538 566.687 362.525H566.767C566.968 362.525 567.069 362.579 567.069 362.686C567.069 362.726 567.049 362.807 567.009 362.927C566.942 363.141 566.821 363.396 566.647 363.691C566.473 363.986 566.245 364.301 565.963 364.636C565.681 364.971 565.34 365.253 564.937 365.481C564.535 365.709 564.126 365.823 563.71 365.823C563.308 365.823 562.926 365.722 562.564 365.521C562.202 365.32 561.941 364.971 561.78 364.475C561.753 364.368 561.74 364.187 561.74 363.932V363.57L562.444 360.755C562.913 358.865 563.154 357.913 563.168 357.9C563.168 357.873 562.826 357.86 562.142 357.86H561.116H561.113Z" fill="#F0F0F0"/>
<path d="M210.014 265.331C210.36 265.331 210.62 265.478 210.794 265.771C210.967 266.065 211.054 266.425 211.054 266.851C211.054 267.318 210.92 268.085 210.654 269.151C210.4 270.178 210.08 271.071 209.694 271.831C208.854 273.551 207.8 274.411 206.534 274.411C205.68 274.411 205 274.198 204.494 273.771C204 273.331 203.754 272.691 203.754 271.851C203.754 271.611 203.767 271.385 203.794 271.171C203.914 270.531 204.227 269.551 204.734 268.231L205.054 267.271C205.134 267.031 205.174 266.805 205.174 266.591C205.174 266.258 205.047 266.091 204.794 266.091C204.7 266.091 204.594 266.111 204.474 266.151C203.794 266.391 203.28 267.158 202.934 268.451C202.934 268.465 202.927 268.491 202.914 268.531C202.9 268.558 202.887 268.578 202.874 268.591C202.874 268.591 202.867 268.598 202.854 268.611C202.84 268.625 202.814 268.631 202.774 268.631C202.747 268.631 202.72 268.631 202.694 268.631C202.667 268.631 202.614 268.631 202.534 268.631H202.254C202.147 268.525 202.127 268.365 202.194 268.151C202.514 267.098 203.007 266.311 203.674 265.791C204.034 265.511 204.447 265.371 204.914 265.371C205.434 265.371 205.86 265.518 206.194 265.811C206.527 266.105 206.694 266.491 206.694 266.971C206.694 267.198 206.674 267.371 206.634 267.491C206.634 267.585 206.534 267.878 206.334 268.371C205.72 270.038 205.394 271.225 205.354 271.931C205.354 272.291 205.387 272.585 205.454 272.811C205.627 273.385 206.047 273.671 206.714 273.671C207.074 273.671 207.394 273.565 207.674 273.351C208.5 272.805 209.187 271.545 209.734 269.571C209.84 269.198 209.894 268.891 209.894 268.651C209.894 268.065 209.634 267.538 209.114 267.071C208.94 266.911 208.854 266.731 208.854 266.531C208.854 266.238 208.974 265.965 209.214 265.711C209.454 265.458 209.72 265.331 210.014 265.331ZM218.081 279.011C218.081 279.131 217.961 279.191 217.721 279.191H217.461C217.367 279.111 217.181 278.951 216.901 278.711C214.501 276.525 213.301 273.351 213.301 269.191C213.301 267.565 213.494 266.078 213.881 264.731C214.494 262.638 215.501 260.951 216.901 259.671C216.994 259.591 217.101 259.505 217.221 259.411C217.341 259.305 217.421 259.231 217.461 259.191H217.721C217.881 259.191 217.981 259.211 218.021 259.251C218.061 259.291 218.081 259.331 218.081 259.371C218.081 259.425 218.007 259.525 217.861 259.671C215.794 261.858 214.761 265.031 214.761 269.191C214.761 273.351 215.794 276.525 217.861 278.711C218.007 278.858 218.081 278.958 218.081 279.011ZM221.894 272.831C221.894 273.391 222.074 273.671 222.434 273.671C222.528 273.671 222.608 273.665 222.674 273.651C223.341 273.531 223.948 272.998 224.494 272.051C224.628 271.838 224.748 271.591 224.854 271.311C224.881 271.231 224.914 271.185 224.954 271.171C224.994 271.145 225.094 271.131 225.254 271.131C225.521 271.131 225.654 271.185 225.654 271.291C225.654 271.318 225.628 271.398 225.574 271.531C225.428 271.958 225.188 272.391 224.854 272.831C224.534 273.258 224.208 273.598 223.874 273.851C223.381 274.225 222.854 274.411 222.294 274.411C221.814 274.411 221.401 274.291 221.054 274.051C220.721 273.798 220.494 273.471 220.374 273.071C220.348 272.965 220.334 272.785 220.334 272.531V272.171L221.034 269.371C221.501 267.491 221.741 266.545 221.754 266.531C221.754 266.505 221.414 266.491 220.734 266.491H219.714C219.634 266.411 219.588 266.358 219.574 266.331C219.574 266.305 219.594 266.191 219.634 265.991C219.688 265.805 219.721 265.705 219.734 265.691C219.761 265.625 219.821 265.591 219.914 265.591C220.021 265.578 220.361 265.571 220.934 265.571H221.994L222.374 263.971C222.654 262.891 222.814 262.311 222.854 262.231C223.014 261.858 223.321 261.671 223.774 261.671C223.948 261.685 224.094 261.745 224.214 261.851C224.348 261.958 224.414 262.098 224.414 262.271C224.414 262.431 224.288 262.998 224.034 263.971C223.981 264.198 223.914 264.451 223.834 264.731C223.768 264.998 223.714 265.198 223.674 265.331L223.634 265.531C223.634 265.558 223.968 265.571 224.634 265.571H225.654C225.734 265.651 225.774 265.711 225.774 265.751C225.788 265.778 225.774 265.898 225.734 266.111C225.694 266.271 225.628 266.398 225.534 266.491H223.394L222.674 269.391C222.181 271.378 221.928 272.425 221.914 272.531C221.901 272.598 221.894 272.698 221.894 272.831ZM227.621 259.211L227.701 259.191C227.767 259.191 227.834 259.191 227.901 259.191H228.141C228.234 259.271 228.421 259.431 228.701 259.671C231.101 261.858 232.301 265.031 232.301 269.191C232.301 270.831 232.107 272.311 231.721 273.631C231.107 275.738 230.101 277.431 228.701 278.711C228.607 278.791 228.501 278.878 228.381 278.971C228.261 279.078 228.181 279.151 228.141 279.191H227.901C227.741 279.191 227.634 279.178 227.581 279.151C227.541 279.125 227.521 279.058 227.521 278.951C227.534 278.938 227.607 278.851 227.741 278.691C229.807 276.545 230.841 273.378 230.841 269.191C230.841 265.005 229.807 261.838 227.741 259.691C227.607 259.531 227.534 259.445 227.521 259.431C227.521 259.325 227.554 259.251 227.621 259.211Z" fill="white"/>
<path d="M259.739 376.231C259.752 376.231 260.232 376.197 261.179 376.131C262.139 376.051 262.625 376.011 262.639 376.011C262.799 376.011 262.879 376.064 262.879 376.171C262.879 376.264 262.385 378.284 261.399 382.231C260.425 386.164 259.932 388.164 259.919 388.231C259.905 388.297 259.899 388.397 259.899 388.531C259.899 389.091 260.085 389.371 260.459 389.371C260.579 389.357 260.712 389.297 260.859 389.191C261.139 388.924 261.412 388.284 261.679 387.271C261.759 387.004 261.825 386.864 261.879 386.851C261.905 386.837 261.972 386.831 262.079 386.831H262.159C262.412 386.831 262.539 386.884 262.539 386.991C262.539 387.044 262.519 387.151 262.479 387.311C262.185 388.431 261.825 389.204 261.399 389.631C261.092 389.937 260.719 390.091 260.279 390.091C259.439 390.091 258.852 389.764 258.519 389.111C258.452 388.937 258.419 388.857 258.419 388.871C258.405 388.857 258.379 388.864 258.339 388.891C258.312 388.917 258.285 388.944 258.259 388.971C257.619 389.571 256.985 389.937 256.359 390.071C256.279 390.084 256.112 390.091 255.859 390.091C254.979 390.091 254.252 389.724 253.679 388.991C253.279 388.404 253.079 387.657 253.079 386.751C253.079 385.511 253.532 384.284 254.439 383.071C255.265 382.057 256.185 381.424 257.199 381.171C257.479 381.091 257.752 381.051 258.019 381.051C258.752 381.051 259.312 381.331 259.699 381.891C259.765 381.971 259.799 381.997 259.799 381.971C259.812 381.917 259.992 381.191 260.339 379.791C260.699 378.377 260.885 377.637 260.899 377.571C260.899 377.411 260.859 377.304 260.779 377.251C260.632 377.197 260.365 377.164 259.979 377.151H259.559C259.479 377.071 259.432 377.017 259.419 376.991C259.419 376.964 259.439 376.837 259.479 376.611C259.545 376.357 259.632 376.231 259.739 376.231ZM259.459 383.371C259.165 382.317 258.665 381.791 257.959 381.791C257.425 381.791 256.952 382.017 256.539 382.471C256.139 382.924 255.832 383.444 255.619 384.031C255.232 385.084 254.959 386.177 254.799 387.311C254.799 387.351 254.792 387.424 254.779 387.531C254.779 387.637 254.779 387.717 254.779 387.771C254.779 388.251 254.879 388.637 255.079 388.931C255.292 389.224 255.599 389.371 255.999 389.371C256.705 389.371 257.445 388.891 258.219 387.931L258.379 387.711C258.499 387.231 258.679 386.511 258.919 385.551C259.159 384.577 259.339 383.851 259.459 383.371ZM265.509 388.531C265.509 389.091 265.689 389.371 266.049 389.371C266.143 389.371 266.223 389.364 266.289 389.351C266.956 389.231 267.563 388.697 268.109 387.751C268.243 387.537 268.363 387.291 268.469 387.011C268.496 386.931 268.529 386.884 268.569 386.871C268.609 386.844 268.709 386.831 268.869 386.831C269.136 386.831 269.269 386.884 269.269 386.991C269.269 387.017 269.243 387.097 269.189 387.231C269.043 387.657 268.803 388.091 268.469 388.531C268.149 388.957 267.823 389.297 267.489 389.551C266.996 389.924 266.469 390.111 265.909 390.111C265.429 390.111 265.016 389.991 264.669 389.751C264.336 389.497 264.109 389.171 263.989 388.771C263.963 388.664 263.949 388.484 263.949 388.231V387.871L264.649 385.071C265.116 383.191 265.356 382.244 265.369 382.231C265.369 382.204 265.029 382.191 264.349 382.191H263.329C263.249 382.111 263.203 382.057 263.189 382.031C263.189 382.004 263.209 381.891 263.249 381.691C263.303 381.504 263.336 381.404 263.349 381.391C263.376 381.324 263.436 381.291 263.529 381.291C263.636 381.277 263.976 381.271 264.549 381.271H265.609L265.989 379.671C266.269 378.591 266.429 378.011 266.469 377.931C266.629 377.557 266.936 377.371 267.389 377.371C267.563 377.384 267.709 377.444 267.829 377.551C267.963 377.657 268.029 377.797 268.029 377.971C268.029 378.131 267.903 378.697 267.649 379.671C267.596 379.897 267.529 380.151 267.449 380.431C267.383 380.697 267.329 380.897 267.289 381.031L267.249 381.231C267.249 381.257 267.583 381.271 268.249 381.271H269.269C269.349 381.351 269.389 381.411 269.389 381.451C269.403 381.477 269.389 381.597 269.349 381.811C269.309 381.971 269.243 382.097 269.149 382.191H267.009L266.289 385.091C265.796 387.077 265.543 388.124 265.529 388.231C265.516 388.297 265.509 388.397 265.509 388.531Z" fill="white"/>
<path d="M270.036 364C270.036 370.077 262.623 364.81 262.405 370.32" stroke="#F0F0F0" stroke-linecap="round"/>
<path d="M254.774 364C254.774 370.077 262.187 364.81 262.405 370.32" stroke="#F0F0F0" stroke-linecap="round"/>
<path d="M250.774 360C245.974 360 244.774 354.405 244.774 351.608C244.774 329.23 244.774 282.797 244.774 276.083C244.774 269.37 240.691 267.692 238.774 267.692C240.691 267.692 244.774 266.013 244.774 259.3C244.774 252.587 244.774 206.153 244.774 183.775C244.774 180.978 245.974 175.384 250.774 175.384" stroke="#F0F0F0" stroke-linecap="round"/>
<path d="M254.834 360V174.8H270.036V360H254.834Z" fill="#FFF175" stroke="#FFF933"/>
<path d="M243.3 22.14C243.647 22.14 243.907 22.2867 244.08 22.58C244.253 22.8733 244.34 23.2333 244.34 23.66C244.34 24.1267 244.207 24.8933 243.94 25.96C243.687 26.9867 243.367 27.88 242.98 28.64C242.14 30.36 241.087 31.22 239.82 31.22C238.967 31.22 238.287 31.0067 237.78 30.58C237.287 30.14 237.04 29.5 237.04 28.66C237.04 28.42 237.053 28.1933 237.08 27.98C237.2 27.34 237.513 26.36 238.02 25.04L238.34 24.08C238.42 23.84 238.46 23.6133 238.46 23.4C238.46 23.0667 238.333 22.9 238.08 22.9C237.987 22.9 237.88 22.92 237.76 22.96C237.08 23.2 236.567 23.9667 236.22 25.26C236.22 25.2733 236.213 25.3 236.2 25.34C236.187 25.3667 236.173 25.3867 236.16 25.4C236.16 25.4 236.153 25.4067 236.14 25.42C236.127 25.4333 236.1 25.44 236.06 25.44C236.033 25.44 236.007 25.44 235.98 25.44C235.953 25.44 235.9 25.44 235.82 25.44H235.54C235.433 25.3333 235.413 25.1733 235.48 24.96C235.8 23.9067 236.293 23.12 236.96 22.6C237.32 22.32 237.733 22.18 238.2 22.18C238.72 22.18 239.147 22.3267 239.48 22.62C239.813 22.9133 239.98 23.3 239.98 23.78C239.98 24.0067 239.96 24.18 239.92 24.3C239.92 24.3933 239.82 24.6867 239.62 25.18C239.007 26.8467 238.68 28.0333 238.64 28.74C238.64 29.1 238.673 29.3933 238.74 29.62C238.913 30.1933 239.333 30.48 240 30.48C240.36 30.48 240.68 30.3733 240.96 30.16C241.787 29.6133 242.473 28.3533 243.02 26.38C243.127 26.0067 243.18 25.7 243.18 25.46C243.18 24.8733 242.92 24.3467 242.4 23.88C242.227 23.72 242.14 23.54 242.14 23.34C242.14 23.0467 242.26 22.7733 242.5 22.52C242.74 22.2667 243.007 22.14 243.3 22.14Z" fill="#6AB0F3"/>
<path d="M251.367 35.82C251.367 35.94 251.247 36 251.007 36H250.747C250.654 35.92 250.467 35.76 250.187 35.52C247.787 33.3333 246.587 30.16 246.587 26C246.587 24.3733 246.78 22.8867 247.167 21.54C247.78 19.4467 248.787 17.76 250.187 16.48C250.28 16.4 250.387 16.3133 250.507 16.22C250.627 16.1133 250.707 16.04 250.747 16H251.007C251.167 16 251.267 16.02 251.307 16.06C251.347 16.1 251.367 16.14 251.367 16.18C251.367 16.2333 251.294 16.3333 251.147 16.48C249.08 18.6667 248.047 21.84 248.047 26C248.047 30.16 249.08 33.3333 251.147 35.52C251.294 35.6667 251.367 35.7667 251.367 35.82ZM255.18 29.64C255.18 30.2 255.36 30.48 255.72 30.48C255.814 30.48 255.894 30.4733 255.96 30.46C256.627 30.34 257.234 29.8067 257.78 28.86C257.914 28.6467 258.034 28.4 258.14 28.12C258.167 28.04 258.2 27.9933 258.24 27.98C258.28 27.9533 258.38 27.94 258.54 27.94C258.807 27.94 258.94 27.9933 258.94 28.1C258.94 28.1267 258.914 28.2067 258.86 28.34C258.714 28.7667 258.474 29.2 258.14 29.64C257.82 30.0667 257.494 30.4067 257.16 30.66C256.667 31.0333 256.14 31.22 255.58 31.22C255.1 31.22 254.687 31.1 254.34 30.86C254.007 30.6067 253.78 30.28 253.66 29.88C253.634 29.7733 253.62 29.5933 253.62 29.34V28.98L254.32 26.18C254.787 24.3 255.027 23.3533 255.04 23.34C255.04 23.3133 254.7 23.3 254.02 23.3H253C252.92 23.22 252.874 23.1667 252.86 23.14C252.86 23.1133 252.88 23 252.92 22.8C252.974 22.6133 253.007 22.5133 253.02 22.5C253.047 22.4333 253.107 22.4 253.2 22.4C253.307 22.3867 253.647 22.38 254.22 22.38H255.28L255.66 20.78C255.94 19.7 256.1 19.12 256.14 19.04C256.3 18.6667 256.607 18.48 257.06 18.48C257.234 18.4933 257.38 18.5533 257.5 18.66C257.634 18.7667 257.7 18.9067 257.7 19.08C257.7 19.24 257.574 19.8067 257.32 20.78C257.267 21.0067 257.2 21.26 257.12 21.54C257.054 21.8067 257 22.0067 256.96 22.14L256.92 22.34C256.92 22.3667 257.254 22.38 257.92 22.38H258.94C259.02 22.46 259.06 22.52 259.06 22.56C259.074 22.5867 259.06 22.7067 259.02 22.92C258.98 23.08 258.914 23.2067 258.82 23.3H256.68L255.96 26.2C255.467 28.1867 255.214 29.2333 255.2 29.34C255.187 29.4067 255.18 29.5067 255.18 29.64ZM260.907 16.02L260.987 16C261.054 16 261.12 16 261.187 16H261.427C261.52 16.08 261.707 16.24 261.987 16.48C264.387 18.6667 265.587 21.84 265.587 26C265.587 27.64 265.394 29.12 265.007 30.44C264.394 32.5467 263.387 34.24 261.987 35.52C261.894 35.6 261.787 35.6867 261.667 35.78C261.547 35.8867 261.467 35.96 261.427 36H261.187C261.027 36 260.92 35.9867 260.867 35.96C260.827 35.9333 260.807 35.8667 260.807 35.76C260.82 35.7467 260.894 35.66 261.027 35.5C263.094 33.3533 264.127 30.1867 264.127 26C264.127 21.8133 263.094 18.6467 261.027 16.5C260.894 16.34 260.82 16.2533 260.807 16.24C260.807 16.1333 260.84 16.06 260.907 16.02ZM273.6 24.06C273.6 23.8867 273.694 23.7533 273.88 23.66H286.62C286.82 23.7533 286.92 23.8867 286.92 24.06C286.92 24.2067 286.827 24.3333 286.64 24.44L280.28 24.46H273.92C273.707 24.3933 273.6 24.26 273.6 24.06ZM273.6 27.94C273.6 27.74 273.707 27.6067 273.92 27.54H286.64C286.654 27.5533 286.68 27.58 286.72 27.62C286.774 27.6467 286.807 27.6733 286.82 27.7C286.847 27.7133 286.867 27.7467 286.88 27.8C286.907 27.84 286.92 27.8867 286.92 27.94C286.92 28.1133 286.82 28.2467 286.62 28.34H273.88C273.694 28.2467 273.6 28.1133 273.6 27.94ZM295.007 26.4C294.82 26.3067 294.727 26.1733 294.727 26C294.727 25.8267 294.82 25.6933 295.007 25.6H306.627C306.827 25.7067 306.927 25.84 306.927 26C306.927 26.16 306.827 26.2933 306.627 26.4H295.007ZM311.313 29.64C311.313 30.2 311.493 30.48 311.853 30.48C311.947 30.48 312.027 30.4733 312.093 30.46C312.76 30.34 313.367 29.8067 313.913 28.86C314.047 28.6467 314.167 28.4 314.273 28.12C314.3 28.04 314.333 27.9933 314.373 27.98C314.413 27.9533 314.513 27.94 314.673 27.94C314.94 27.94 315.073 27.9933 315.073 28.1C315.073 28.1267 315.047 28.2067 314.993 28.34C314.847 28.7667 314.607 29.2 314.273 29.64C313.953 30.0667 313.627 30.4067 313.293 30.66C312.8 31.0333 312.273 31.22 311.713 31.22C311.233 31.22 310.82 31.1 310.473 30.86C310.14 30.6067 309.913 30.28 309.793 29.88C309.767 29.7733 309.753 29.5933 309.753 29.34V28.98L310.453 26.18C310.92 24.3 311.16 23.3533 311.173 23.34C311.173 23.3133 310.833 23.3 310.153 23.3H309.133C309.053 23.22 309.007 23.1667 308.993 23.14C308.993 23.1133 309.013 23 309.053 22.8C309.107 22.6133 309.14 22.5133 309.153 22.5C309.18 22.4333 309.24 22.4 309.333 22.4C309.44 22.3867 309.78 22.38 310.353 22.38H311.413L311.793 20.78C312.073 19.7 312.233 19.12 312.273 19.04C312.433 18.6667 312.74 18.48 313.193 18.48C313.367 18.4933 313.513 18.5533 313.633 18.66C313.767 18.7667 313.833 18.9067 313.833 19.08C313.833 19.24 313.707 19.8067 313.453 20.78C313.4 21.0067 313.333 21.26 313.253 21.54C313.187 21.8067 313.133 22.0067 313.093 22.14L313.053 22.34C313.053 22.3667 313.387 22.38 314.053 22.38H315.073C315.153 22.46 315.193 22.52 315.193 22.56C315.207 22.5867 315.193 22.7067 315.153 22.92C315.113 23.08 315.047 23.2067 314.953 23.3H312.813L312.093 26.2C311.6 28.1867 311.347 29.2333 311.333 29.34C311.32 29.4067 311.313 29.5067 311.313 29.64ZM317.16 18.852C316.936 18.852 316.76 18.78 316.632 18.636C316.504 18.492 316.44 18.316 316.44 18.108C316.44 17.532 316.656 17.04 317.088 16.632C317.528 16.216 318.052 16.008 318.66 16.008C319.348 16.008 319.916 16.196 320.364 16.572C320.82 16.94 321.1 17.424 321.204 18.024C321.22 18.168 321.228 18.3 321.228 18.42C321.228 18.884 321.088 19.32 320.808 19.728C320.584 20.064 320.132 20.524 319.452 21.108C319.164 21.356 318.764 21.724 318.252 22.212L317.544 22.884L318.456 22.896C319.712 22.896 320.38 22.876 320.46 22.836C320.492 22.828 320.532 22.744 320.58 22.584C320.612 22.496 320.668 22.224 320.748 21.768V21.732H321.228V21.768L320.892 23.964V24H316.44V23.772C316.44 23.612 316.448 23.52 316.464 23.496C316.472 23.48 316.808 23.1 317.472 22.356C318.344 21.388 318.904 20.748 319.152 20.436C319.688 19.708 319.956 19.04 319.956 18.432C319.956 17.904 319.816 17.464 319.536 17.112C319.264 16.752 318.88 16.572 318.384 16.572C317.92 16.572 317.544 16.78 317.256 17.196C317.24 17.228 317.216 17.272 317.184 17.328C317.16 17.368 317.148 17.392 317.148 17.4C317.148 17.408 317.168 17.412 317.208 17.412C317.408 17.412 317.568 17.484 317.688 17.628C317.816 17.772 317.88 17.94 317.88 18.132C317.88 18.332 317.812 18.504 317.676 18.648C317.548 18.784 317.376 18.852 317.16 18.852ZM328.6 26.4C328.413 26.3067 328.32 26.1733 328.32 26C328.32 25.8267 328.413 25.6933 328.6 25.6H334.58V22.6L334.6 19.6C334.733 19.4267 334.86 19.34 334.98 19.34C335.153 19.34 335.287 19.44 335.38 19.64V25.6H341.34C341.54 25.7067 341.64 25.84 341.64 26C341.64 26.16 341.54 26.2933 341.34 26.4H335.38V32.36C335.287 32.5467 335.153 32.64 334.98 32.64C334.807 32.64 334.673 32.5467 334.58 32.36V26.4H328.6ZM351.206 24.3C350.553 23.8733 350.046 23.4267 349.686 22.96C349.34 22.4933 349.166 21.88 349.166 21.12C349.166 20.5467 349.273 20.0667 349.486 19.68C349.78 19.08 350.206 18.6 350.766 18.24C351.34 17.8667 351.993 17.68 352.726 17.68C353.633 17.68 354.42 17.92 355.086 18.4C355.753 18.8667 356.166 19.4733 356.326 20.22C356.34 20.3 356.346 20.46 356.346 20.7C356.346 20.9933 356.333 21.1933 356.306 21.3C356.106 22.18 355.5 22.94 354.486 23.58C354.46 23.5933 354.42 23.6133 354.366 23.64C354.326 23.6667 354.3 23.6933 354.286 23.72L354.246 23.74C354.993 24.2467 355.38 24.5133 355.406 24.54C356.406 25.34 356.906 26.3333 356.906 27.52C356.906 28.6 356.506 29.5267 355.706 30.3C354.92 31.06 353.933 31.44 352.746 31.44C351.106 31.44 349.9 30.84 349.126 29.64C348.793 29.16 348.626 28.58 348.626 27.9C348.626 27.5933 348.64 27.3867 348.666 27.28C348.866 26.2667 349.506 25.4 350.586 24.68C350.666 24.6267 350.786 24.5533 350.946 24.46C351.106 24.3667 351.193 24.3133 351.206 24.3ZM355.186 20.74C355.186 20.1667 355 19.68 354.626 19.28C354.253 18.88 353.8 18.6267 353.266 18.52C353.173 18.5067 352.953 18.5 352.606 18.5C351.9 18.5 351.306 18.74 350.826 19.22C350.493 19.5267 350.326 19.8933 350.326 20.32C350.326 20.8933 350.566 21.3467 351.046 21.68C351.113 21.7467 351.54 22.0267 352.326 22.52L353.486 23.28C353.5 23.2667 353.586 23.2133 353.746 23.12C353.906 23.0133 354.026 22.92 354.106 22.84C354.826 22.2667 355.186 21.5667 355.186 20.74ZM349.906 27.86C349.906 28.6467 350.193 29.3 350.766 29.82C351.34 30.3267 352.006 30.58 352.766 30.58C353.313 30.58 353.806 30.4667 354.246 30.24C354.7 30.0133 355.04 29.72 355.266 29.36C355.493 29.0133 355.606 28.6467 355.606 28.26C355.606 27.6867 355.373 27.18 354.906 26.74C354.8 26.6333 354.246 26.2533 353.246 25.6C353.06 25.48 352.853 25.3533 352.626 25.22C352.413 25.0733 352.246 24.96 352.126 24.88L351.966 24.78L351.726 24.9C350.886 25.4467 350.333 26.1133 350.066 26.9C349.96 27.2467 349.906 27.5667 349.906 27.86ZM360.466 29.64C360.466 30.2 360.646 30.48 361.006 30.48C361.1 30.48 361.18 30.4733 361.246 30.46C361.913 30.34 362.52 29.8067 363.066 28.86C363.2 28.6467 363.32 28.4 363.426 28.12C363.453 28.04 363.486 27.9933 363.526 27.98C363.566 27.9533 363.666 27.94 363.826 27.94C364.093 27.94 364.226 27.9933 364.226 28.1C364.226 28.1267 364.2 28.2067 364.146 28.34C364 28.7667 363.76 29.2 363.426 29.64C363.106 30.0667 362.78 30.4067 362.446 30.66C361.953 31.0333 361.426 31.22 360.866 31.22C360.386 31.22 359.973 31.1 359.626 30.86C359.293 30.6067 359.066 30.28 358.946 29.88C358.92 29.7733 358.906 29.5933 358.906 29.34V28.98L359.606 26.18C360.073 24.3 360.313 23.3533 360.326 23.34C360.326 23.3133 359.986 23.3 359.306 23.3H358.286C358.206 23.22 358.16 23.1667 358.146 23.14C358.146 23.1133 358.166 23 358.206 22.8C358.26 22.6133 358.293 22.5133 358.306 22.5C358.333 22.4333 358.393 22.4 358.486 22.4C358.593 22.3867 358.933 22.38 359.506 22.38H360.566L360.946 20.78C361.226 19.7 361.386 19.12 361.426 19.04C361.586 18.6667 361.893 18.48 362.346 18.48C362.52 18.4933 362.666 18.5533 362.786 18.66C362.92 18.7667 362.986 18.9067 362.986 19.08C362.986 19.24 362.86 19.8067 362.606 20.78C362.553 21.0067 362.486 21.26 362.406 21.54C362.34 21.8067 362.286 22.0067 362.246 22.14L362.206 22.34C362.206 22.3667 362.54 22.38 363.206 22.38H364.226C364.306 22.46 364.346 22.52 364.346 22.56C364.36 22.5867 364.346 22.7067 364.306 22.92C364.266 23.08 364.2 23.2067 364.106 23.3H361.966L361.246 26.2C360.753 28.1867 360.5 29.2333 360.486 29.34C360.473 29.4067 360.466 29.5067 360.466 29.64Z" fill="#F0F0F0"/>
<path d="M355 68.9785H235V156H295H355V68.9785Z" fill="black"/>
<path d="M252.201 121.169C252.446 121.521 252.792 121.698 253.24 121.698H253.28C253.661 121.698 254.041 121.291 254.421 120.476C254.801 119.662 255.154 118.549 255.479 117.137C255.805 115.725 256.111 114.307 256.396 112.882C256.681 111.456 256.966 109.916 257.251 108.26C257.292 107.975 257.325 107.764 257.353 107.629C258.33 101.86 259.389 96.5114 260.529 91.584C261.669 86.6567 262.497 83.4532 263.013 81.9736C263.094 81.7293 263.162 81.5257 263.217 81.3628C263.271 81.1999 263.386 80.9013 263.563 80.4669C263.739 80.0326 263.922 79.6525 264.112 79.3267C264.303 79.0009 264.533 78.6684 264.805 78.329C265.076 77.9897 265.375 77.7182 265.701 77.5146C266.026 77.311 266.373 77.216 266.739 77.2295C267.499 77.2295 268.069 77.4671 268.449 77.9422C268.829 78.4173 269.047 78.9602 269.101 79.571C269.101 79.9104 269.019 80.1819 268.857 80.3855C268.694 80.5891 268.538 80.7181 268.388 80.7723C268.239 80.8266 268.09 80.847 267.94 80.8334C267.655 80.8334 267.397 80.7316 267.167 80.528C266.936 80.3244 266.82 80.0461 266.82 79.6932C266.82 79.0417 267.18 78.6548 267.9 78.5326L267.839 78.4512C267.798 78.4105 267.744 78.363 267.676 78.3087C267.608 78.2544 267.553 78.2136 267.513 78.1865C267.309 78.0508 267.085 77.9829 266.841 77.9829C266.651 77.9829 266.474 78.0643 266.311 78.2272C266.149 78.3901 265.931 78.7702 265.66 79.3674C265.388 79.9647 265.124 80.752 264.866 81.7293C264.608 82.7066 264.289 84.0844 263.909 85.8626C263.529 87.6408 263.149 89.7312 262.769 92.1338C261.968 96.6811 261.133 100.977 260.264 105.022C259.396 109.067 258.717 111.999 258.228 113.818C257.739 115.637 257.366 116.94 257.108 117.728C256.063 120.89 254.774 122.472 253.24 122.472C252.697 122.472 252.201 122.261 251.753 121.84C251.305 121.42 251.054 120.843 251 120.11C251 119.635 251.129 119.309 251.387 119.132C251.645 118.956 251.903 118.868 252.161 118.868C252.446 118.868 252.704 118.97 252.934 119.173C253.165 119.377 253.28 119.655 253.28 120.008C253.28 120.66 252.921 121.046 252.201 121.169Z" fill="#F0F0F0"/>
<path d="M272.707 76.7635C272.707 76.7635 272.707 76.394 272.707 75.6551C272.707 74.9161 272.966 74.3211 273.484 73.8701C274.002 73.419 274.597 73.1887 275.269 73.1791C275.95 73.1791 276.555 73.3806 277.083 73.7837C277.611 74.1868 277.875 74.7098 277.875 75.3528C277.875 75.6407 277.822 75.9094 277.716 76.1589C277.611 76.4084 277.486 76.61 277.342 76.7635C277.198 76.9171 277.049 77.0514 276.896 77.1666C276.742 77.2817 276.617 77.3681 276.521 77.4257C276.425 77.4833 276.373 77.5217 276.363 77.5408L276.565 77.6704C276.699 77.7664 276.833 77.8623 276.968 77.9583C277.102 78.0543 277.179 78.1071 277.198 78.1167C277.918 78.6829 278.278 79.3978 278.278 80.2615C278.278 81.0197 277.999 81.6771 277.443 82.2337C276.886 82.7903 276.166 83.0734 275.283 83.083C274.42 83.083 273.71 82.8383 273.153 82.3489C272.596 81.8594 272.318 81.2548 272.318 80.5351C272.318 79.4986 272.937 78.6349 274.175 77.9439L273.916 77.7568C273.714 77.632 273.585 77.536 273.527 77.4689C272.98 76.9986 272.707 76.394 272.707 75.6551V76.7635ZM275.816 77.2098L275.902 77.1522C275.96 77.1138 276.003 77.085 276.032 77.0658C276.061 77.0466 276.109 77.013 276.176 76.965C276.243 76.9171 276.301 76.8691 276.349 76.8211C276.397 76.7731 276.449 76.7155 276.507 76.6483C276.565 76.5812 276.617 76.5188 276.665 76.4612C276.713 76.4036 276.761 76.3268 276.809 76.2309C276.857 76.1349 276.9 76.0533 276.939 75.9862C276.977 75.919 277.001 75.823 277.011 75.6983C277.02 75.5735 277.03 75.4679 277.04 75.3816C277.04 74.9689 276.9 74.6186 276.622 74.3307C276.344 74.0428 276.022 73.8605 275.658 73.7837C275.591 73.7741 275.432 73.7693 275.183 73.7693C274.789 73.7693 274.42 73.8941 274.074 74.1436C273.729 74.3931 273.551 74.705 273.542 75.0793C273.542 75.3 273.604 75.5015 273.729 75.6839C273.853 75.8662 273.978 76.0054 274.103 76.1013C274.228 76.1973 274.468 76.3508 274.823 76.562C274.89 76.61 274.943 76.6435 274.981 76.6627L275.816 77.2098ZM275.298 82.464C275.854 82.464 276.334 82.3009 276.737 81.9746C277.14 81.6483 277.342 81.2548 277.342 80.7942C277.342 80.631 277.318 80.4775 277.27 80.3335C277.222 80.1896 277.164 80.0696 277.097 79.9736C277.03 79.8777 276.924 79.7721 276.781 79.6569C276.637 79.5418 276.526 79.4554 276.449 79.3978C276.373 79.3402 276.233 79.2491 276.032 79.1243C275.83 78.9996 275.701 78.918 275.643 78.8796C275.509 78.7932 275.365 78.7021 275.211 78.6061C275.058 78.5101 274.933 78.4286 274.837 78.3614L274.722 78.2894C274.664 78.2894 274.525 78.371 274.305 78.5341C274.084 78.6973 273.853 78.9612 273.614 79.3259C273.374 79.6905 273.249 80.084 273.239 80.5063C273.239 81.0725 273.446 81.5379 273.858 81.9026C274.271 82.2673 274.751 82.4544 275.298 82.464Z" fill="#F0F0F0"/>
<path d="M262.583 114.751C263.12 113.974 263.854 113.585 264.785 113.585C265.246 113.585 265.707 113.71 266.167 113.96C266.628 114.209 267.002 114.651 267.29 115.284C267.645 116.081 267.823 117.175 267.823 118.566C267.823 120.054 267.616 121.191 267.204 121.978C267.012 122.381 266.748 122.702 266.412 122.942C266.076 123.182 265.783 123.331 265.534 123.388C265.284 123.446 265.04 123.48 264.8 123.489C264.55 123.489 264.301 123.46 264.051 123.403C263.802 123.345 263.509 123.192 263.173 122.942C262.837 122.693 262.573 122.371 262.381 121.978C261.969 121.191 261.762 120.054 261.762 118.566C261.762 116.896 262.036 115.625 262.583 114.751ZM265.822 114.579C265.534 114.272 265.193 114.118 264.8 114.118C264.397 114.118 264.051 114.272 263.763 114.579C263.523 114.828 263.365 115.174 263.288 115.615C263.211 116.057 263.173 116.978 263.173 118.379C263.173 119.895 263.211 120.893 263.288 121.373C263.365 121.853 263.538 122.232 263.806 122.51C264.075 122.798 264.406 122.942 264.8 122.942C265.184 122.942 265.51 122.798 265.779 122.51C266.057 122.222 266.23 121.819 266.297 121.301C266.364 120.783 266.402 119.809 266.412 118.379C266.412 116.987 266.374 116.071 266.297 115.629C266.22 115.188 266.062 114.838 265.822 114.579Z" fill="#F0F0F0"/>
<path d="M286.831 97.1834C286.831 96.844 286.702 96.6744 286.444 96.6744C286.119 96.6744 285.779 96.8712 285.426 97.2648C285.073 97.6585 284.782 98.2625 284.551 99.077C284.537 99.0905 284.524 99.1109 284.51 99.138C284.497 99.1652 284.49 99.1855 284.49 99.1991C284.49 99.2127 284.476 99.2263 284.449 99.2398C284.422 99.2534 284.402 99.2602 284.388 99.2602C284.374 99.2602 284.347 99.2602 284.307 99.2602C284.266 99.2602 284.212 99.2602 284.144 99.2602H283.859C283.777 99.1788 283.736 99.1177 283.736 99.077C283.736 98.9819 283.791 98.7851 283.899 98.4865C284.008 98.1879 284.171 97.8349 284.388 97.4277C284.605 97.0205 284.904 96.6744 285.284 96.3893C285.664 96.1042 286.092 95.9549 286.567 95.9414C287.137 95.9414 287.578 96.1042 287.89 96.43C288.202 96.7558 288.365 97.1359 288.379 97.5702C288.379 97.801 288.358 97.9775 288.318 98.0996C288.318 98.1811 288.216 98.4797 288.012 98.9955C287.809 99.5113 287.598 100.115 287.381 100.808C287.164 101.5 287.042 102.104 287.015 102.62C287.015 102.986 287.049 103.285 287.116 103.516C287.293 104.099 287.72 104.391 288.399 104.391C288.901 104.391 289.37 104.16 289.804 103.699C290.238 103.237 290.578 102.701 290.822 102.09C291.066 101.48 291.263 100.916 291.413 100.4C291.562 99.8846 291.637 99.5113 291.637 99.2806C291.637 98.9684 291.582 98.6969 291.474 98.4661C291.365 98.2354 291.243 98.0589 291.107 97.9367C290.971 97.8146 290.849 97.6924 290.741 97.5702C290.632 97.4481 290.578 97.2988 290.578 97.1223C290.578 96.8237 290.707 96.5454 290.965 96.2875C291.223 96.0296 291.501 95.9006 291.799 95.9006C292.057 95.9006 292.288 96.0228 292.492 96.2671C292.695 96.5115 292.804 96.9051 292.817 97.4481C292.817 97.8146 292.736 98.3779 292.573 99.138C292.41 99.8982 292.159 100.747 291.82 101.683C291.48 102.62 290.999 103.427 290.374 104.106C289.75 104.785 289.03 105.131 288.216 105.145C287.347 105.145 286.655 104.921 286.139 104.473C285.637 104.038 285.386 103.393 285.386 102.538C285.386 102.118 285.44 101.683 285.549 101.235C285.657 100.787 285.935 99.9932 286.383 98.853C286.682 97.9842 286.831 97.4277 286.831 97.1834Z" fill="#F0F0F0"/>
<path d="M295.098 99.8302C295.098 98.8936 295.166 98.0045 295.301 97.1629C295.437 96.3214 295.593 95.5952 295.77 94.9843C295.946 94.3735 296.197 93.7762 296.523 93.1926C296.849 92.6089 297.107 92.1541 297.297 91.8284C297.487 91.5026 297.772 91.1497 298.152 90.7696C298.532 90.3895 298.756 90.1588 298.824 90.0773C298.892 89.9959 299.061 89.8533 299.333 89.6497H299.598H299.679C299.869 89.6497 299.964 89.7108 299.964 89.833C299.964 89.8737 299.849 90.0162 299.618 90.2606C299.387 90.5049 299.109 90.8646 298.783 91.3397C298.457 91.8148 298.125 92.3985 297.785 93.0907C297.446 93.783 297.161 94.7196 296.93 95.9006C296.7 97.0815 296.584 98.3914 296.584 99.8302C296.584 101.269 296.7 102.572 296.93 103.74C297.161 104.907 297.439 105.85 297.765 106.57C298.091 107.289 298.423 107.873 298.763 108.321C299.102 108.769 299.387 109.128 299.618 109.4C299.849 109.671 299.964 109.814 299.964 109.827C299.964 109.95 299.862 110.011 299.659 110.011H299.598H299.333L298.763 109.522C297.487 108.368 296.557 106.929 295.973 105.206C295.39 103.482 295.098 101.69 295.098 99.8302Z" fill="#F0F0F0"/>
<path d="M301.634 97.0816C301.539 96.9866 301.491 96.9187 301.491 96.878C301.491 96.8237 301.512 96.7151 301.552 96.5522C301.593 96.3893 301.627 96.2943 301.654 96.2671C301.681 96.1993 301.742 96.1653 301.837 96.1653C301.932 96.1653 302.279 96.1585 302.876 96.145H303.955L304.342 94.5161C304.382 94.3668 304.43 94.17 304.484 93.9256C304.539 93.6813 304.586 93.5048 304.627 93.3962C304.668 93.2876 304.708 93.1519 304.749 92.989C304.79 92.8261 304.844 92.7107 304.912 92.6429C304.98 92.575 305.048 92.4936 305.115 92.3985C305.183 92.3035 305.278 92.2424 305.401 92.2153C305.523 92.1881 305.645 92.1746 305.767 92.1746C306.011 92.1881 306.181 92.2628 306.276 92.3985C306.371 92.5343 306.419 92.6632 306.419 92.7854C306.419 92.8804 306.357 93.1994 306.235 93.7424C306.113 94.2853 305.977 94.8215 305.828 95.3509L305.624 96.1042C305.624 96.1314 305.964 96.145 306.643 96.145H307.681C307.776 96.24 307.823 96.3146 307.823 96.3689C307.823 96.6676 307.735 96.9051 307.559 97.0816H305.38L304.647 100.034C304.118 102.206 303.853 103.373 303.853 103.536C303.853 104.106 304.036 104.391 304.403 104.391C304.878 104.391 305.339 104.16 305.787 103.699C306.235 103.237 306.595 102.667 306.867 101.989C306.894 101.907 306.928 101.86 306.968 101.846C307.009 101.832 307.111 101.819 307.274 101.805H307.355C307.559 101.805 307.661 101.86 307.661 101.968C307.661 102.009 307.64 102.09 307.6 102.213C307.532 102.43 307.409 102.688 307.233 102.986C307.057 103.285 306.826 103.604 306.541 103.943C306.256 104.283 305.91 104.568 305.502 104.798C305.095 105.029 304.681 105.145 304.26 105.145C303.853 105.145 303.466 105.043 303.1 104.839C302.733 104.636 302.469 104.283 302.306 103.78C302.279 103.672 302.265 103.489 302.265 103.231V102.864L302.978 100.014C303.453 98.0996 303.697 97.1359 303.711 97.1223C303.711 97.0951 303.364 97.0816 302.672 97.0816H301.634Z" fill="#F0F0F0"/>
<path d="M309.676 89.6701L309.758 89.6497C309.826 89.6497 309.894 89.6497 309.961 89.6497H310.206L310.776 90.1384C312.052 91.2922 312.982 92.731 313.565 94.4549C314.149 96.1788 314.441 97.9706 314.441 99.8302C314.441 100.753 314.373 101.642 314.237 102.498C314.101 103.353 313.945 104.079 313.769 104.676C313.592 105.273 313.341 105.871 313.016 106.468C312.69 107.065 312.432 107.52 312.242 107.832C312.052 108.144 311.774 108.49 311.407 108.871C311.041 109.251 310.823 109.475 310.755 109.542C310.688 109.61 310.531 109.739 310.287 109.929C310.246 109.97 310.219 109.997 310.206 110.011H309.961C309.853 110.011 309.778 110.011 309.737 110.011C309.697 110.011 309.663 109.99 309.636 109.95C309.608 109.909 309.588 109.848 309.575 109.766C309.588 109.753 309.663 109.665 309.798 109.502C311.902 107.316 312.954 104.092 312.954 99.8302C312.954 95.568 311.902 92.3442 309.798 90.1588C309.663 89.9959 309.588 89.9076 309.575 89.8941C309.575 89.7855 309.608 89.7108 309.676 89.6701Z" fill="#F0F0F0"/>
<path d="M323.827 91.0148C323.841 91.0148 324.329 90.9809 325.293 90.913C326.257 90.8452 326.752 90.8044 326.78 90.7909C326.942 90.7909 327.024 90.8452 327.024 90.9537C327.024 91.0488 326.528 93.0984 325.538 97.1028C324.547 101.107 324.038 103.15 324.01 103.231C323.983 103.313 323.977 103.415 323.99 103.537C323.99 104.107 324.18 104.392 324.56 104.392C324.682 104.378 324.818 104.317 324.967 104.209C325.252 103.937 325.531 103.286 325.802 102.254C325.884 101.983 325.952 101.84 326.006 101.827C326.033 101.813 326.101 101.806 326.209 101.806H326.291H326.372C326.576 101.806 326.678 101.86 326.678 101.969C326.678 102.037 326.657 102.146 326.617 102.295C326.44 102.974 326.237 103.523 326.006 103.944C325.775 104.365 325.585 104.636 325.436 104.759C325.286 104.881 325.096 104.989 324.866 105.084C324.757 105.111 324.594 105.125 324.377 105.125C323.915 105.125 323.529 105.023 323.216 104.82C322.904 104.616 322.701 104.406 322.606 104.188L322.483 103.883C322.47 103.869 322.443 103.876 322.402 103.903C322.375 103.93 322.348 103.958 322.32 103.985C321.52 104.745 320.705 105.125 319.877 105.125C319.131 105.125 318.472 104.854 317.902 104.311C317.332 103.768 317.047 102.906 317.047 101.725C317.047 101.073 317.183 100.408 317.454 99.7293C317.726 99.0506 318.051 98.467 318.432 97.9783C319.07 97.2046 319.708 96.6684 320.345 96.3698C320.983 96.0711 321.56 95.9218 322.076 95.9218C322.836 95.9218 323.406 96.2069 323.786 96.777C323.854 96.8584 323.888 96.8856 323.888 96.8584C323.902 96.8041 324.085 96.0644 324.438 94.6391C324.791 93.2138 324.981 92.4605 325.008 92.379C325.008 92.2026 324.961 92.094 324.866 92.0532C324.771 92.0125 324.506 91.9786 324.072 91.9514H323.644C323.563 91.87 323.522 91.8157 323.522 91.7885C323.522 91.7614 323.535 91.6324 323.563 91.4017C323.63 91.1438 323.719 91.0148 323.827 91.0148ZM323.542 98.2837C323.23 97.2114 322.721 96.6752 322.015 96.6752C321.54 96.6752 321.085 96.8856 320.651 97.3064C320.217 97.7272 319.877 98.2769 319.633 98.9556C319.239 100.028 318.961 101.141 318.798 102.295C318.798 102.336 318.798 102.41 318.798 102.519C318.798 102.627 318.791 102.709 318.778 102.763C318.778 103.374 318.9 103.795 319.144 104.026C319.389 104.256 319.68 104.378 320.02 104.392C320.753 104.392 321.506 103.903 322.28 102.926L322.443 102.702L323.542 98.2837Z" fill="#F0F0F0"/>
<path d="M327.492 97.0816C327.397 96.9866 327.35 96.9187 327.35 96.878C327.35 96.8237 327.37 96.7151 327.411 96.5522C327.451 96.3893 327.485 96.2943 327.513 96.2671C327.54 96.1993 327.601 96.1653 327.696 96.1653C327.791 96.1653 328.137 96.1585 328.734 96.145H329.813L330.2 94.5161C330.241 94.3668 330.288 94.17 330.343 93.9256C330.397 93.6813 330.445 93.5048 330.485 93.3962C330.526 93.2876 330.567 93.1519 330.607 92.989C330.648 92.8261 330.702 92.7107 330.77 92.6429C330.838 92.575 330.906 92.4936 330.974 92.3985C331.042 92.3035 331.137 92.2424 331.259 92.2153C331.381 92.1881 331.503 92.1746 331.625 92.1746C331.87 92.1881 332.039 92.2628 332.135 92.3985C332.23 92.5343 332.277 92.6632 332.277 92.7854C332.277 92.8804 332.216 93.1994 332.094 93.7424C331.972 94.2853 331.836 94.8215 331.687 95.3509L331.483 96.1042C331.483 96.1314 331.822 96.145 332.501 96.145H333.539C333.634 96.24 333.682 96.3146 333.682 96.3689C333.682 96.6676 333.594 96.9051 333.417 97.0816H331.239L330.506 100.034C329.976 102.206 329.712 103.373 329.712 103.536C329.712 104.106 329.895 104.391 330.261 104.391C330.736 104.391 331.198 104.16 331.646 103.699C332.094 103.237 332.453 102.667 332.725 101.989C332.752 101.907 332.786 101.86 332.827 101.846C332.868 101.832 332.969 101.819 333.132 101.805H333.214C333.417 101.805 333.519 101.86 333.519 101.968C333.519 102.009 333.499 102.09 333.458 102.213C333.39 102.43 333.268 102.688 333.091 102.986C332.915 103.285 332.684 103.604 332.399 103.943C332.114 104.283 331.768 104.568 331.361 104.798C330.954 105.029 330.54 105.145 330.119 105.145C329.712 105.145 329.325 105.043 328.958 104.839C328.592 104.636 328.327 104.283 328.164 103.78C328.137 103.672 328.123 103.489 328.123 103.231V102.864L328.836 100.014C329.311 98.0996 329.555 97.1359 329.569 97.1223C329.569 97.0951 329.223 97.0816 328.531 97.0816H327.492Z" fill="#F0F0F0"/>
<g clip-path="url(#clip1_902_5950)">
<path d="M265.808 135.093C265.808 134.754 265.916 134.469 266.133 134.238C266.351 134.007 266.642 133.885 267.009 133.871C267.389 133.871 267.735 134.048 268.047 134.401C268.36 134.754 268.523 135.358 268.536 136.213C268.536 136.946 268.387 137.645 268.088 138.31C267.789 138.975 267.484 139.471 267.172 139.796C266.86 140.122 266.67 140.285 266.602 140.285C266.547 140.285 266.459 140.224 266.337 140.102C266.215 139.98 266.147 139.891 266.133 139.837C266.133 139.796 266.215 139.688 266.378 139.511C266.541 139.335 266.717 139.125 266.907 138.88C267.097 138.636 267.287 138.283 267.477 137.821C267.667 137.36 267.769 136.871 267.783 136.355C267.783 136.192 267.776 136.111 267.762 136.111C267.749 136.111 267.715 136.131 267.661 136.172C267.606 136.213 267.518 136.247 267.396 136.274C267.274 136.301 267.151 136.321 267.029 136.335C266.69 136.335 266.405 136.22 266.174 135.989C265.943 135.758 265.821 135.459 265.808 135.093ZM269.961 135.093C269.961 134.754 270.07 134.469 270.287 134.238C270.504 134.007 270.796 133.885 271.163 133.871C271.543 133.871 271.889 134.048 272.201 134.401C272.513 134.754 272.676 135.358 272.69 136.213C272.69 136.946 272.541 137.645 272.242 138.31C271.943 138.975 271.638 139.471 271.326 139.796C271.013 140.122 270.823 140.285 270.756 140.285C270.701 140.285 270.613 140.224 270.491 140.102C270.369 139.98 270.301 139.891 270.287 139.837C270.287 139.796 270.369 139.688 270.532 139.511C270.694 139.335 270.871 139.125 271.061 138.88C271.251 138.636 271.441 138.283 271.631 137.821C271.821 137.36 271.923 136.871 271.936 136.355C271.936 136.192 271.93 136.111 271.916 136.111C271.903 136.111 271.869 136.131 271.814 136.172C271.76 136.213 271.672 136.247 271.55 136.274C271.427 136.301 271.305 136.321 271.183 136.335C270.844 136.335 270.559 136.22 270.328 135.989C270.097 135.758 269.975 135.459 269.961 135.093Z" fill="white"/>
<path d="M276.416 137.679C276.416 136.552 276.803 135.602 277.577 134.828C278.35 134.054 279.24 133.668 280.244 133.668H280.529C281.683 133.668 282.687 134.095 283.543 134.95L283.97 134.319C284.038 134.224 284.106 134.122 284.174 134.014C284.242 133.905 284.31 133.817 284.377 133.749L284.439 133.668C284.452 133.668 284.479 133.668 284.52 133.668C284.561 133.668 284.601 133.661 284.642 133.647H284.724C284.764 133.647 284.825 133.688 284.907 133.769V138.595L284.785 138.717H284.418C284.269 138.717 284.181 138.697 284.154 138.656C284.126 138.616 284.092 138.48 284.052 138.249C283.821 136.539 283.135 135.405 281.995 134.849C281.493 134.631 280.984 134.523 280.468 134.523C279.749 134.523 279.165 134.767 278.717 135.256C278.269 135.745 278.045 136.315 278.045 136.966C278.045 137.428 278.16 137.849 278.391 138.229C278.622 138.609 278.948 138.914 279.369 139.145C279.504 139.199 280.088 139.355 281.12 139.613C282.151 139.871 282.721 140.027 282.83 140.082C283.604 140.38 284.235 140.889 284.724 141.609C285.212 142.328 285.463 143.163 285.477 144.113C285.477 145.213 285.124 146.204 284.418 147.086C283.712 147.968 282.715 148.416 281.425 148.43C280.665 148.43 279.986 148.314 279.389 148.084C278.792 147.853 278.378 147.643 278.147 147.452L277.78 147.167C277.726 147.235 277.624 147.371 277.475 147.575C277.326 147.778 277.19 147.968 277.068 148.145C276.945 148.321 276.884 148.416 276.884 148.43C276.857 148.443 276.789 148.45 276.681 148.45H276.599C276.559 148.45 276.498 148.409 276.416 148.328V145.946C276.416 144.33 276.423 143.509 276.436 143.482C276.464 143.414 276.599 143.38 276.844 143.38H277.108C277.19 143.462 277.231 143.55 277.231 143.645C277.231 144.079 277.298 144.507 277.434 144.928C277.57 145.348 277.801 145.762 278.126 146.17C278.452 146.577 278.9 146.903 279.47 147.147C280.04 147.391 280.719 147.514 281.506 147.514C282.144 147.514 282.694 147.256 283.156 146.74C283.617 146.224 283.848 145.593 283.848 144.846C283.848 144.262 283.699 143.733 283.4 143.258C283.101 142.783 282.708 142.457 282.219 142.281C281.459 142.091 280.957 141.962 280.712 141.894C280.645 141.88 280.461 141.839 280.163 141.772C279.864 141.704 279.64 141.649 279.491 141.609C279.341 141.568 279.124 141.493 278.839 141.385C278.554 141.276 278.33 141.154 278.167 141.018C278.004 140.882 277.807 140.72 277.577 140.53C277.346 140.339 277.163 140.102 277.027 139.817C276.62 139.152 276.416 138.439 276.416 137.679Z" fill="white"/>
<path d="M294.416 146.822C293.656 147.745 292.794 148.206 291.83 148.206H291.687C289.99 148.206 289.013 147.534 288.755 146.19C288.742 146.095 288.728 145.166 288.714 143.401C288.701 141.921 288.694 141.093 288.694 140.917C288.694 140.74 288.653 140.598 288.572 140.489C288.436 140.272 288.029 140.163 287.35 140.163H287.126V139.695C287.126 139.383 287.14 139.227 287.167 139.227L287.391 139.206C287.527 139.193 287.724 139.179 287.981 139.166C288.239 139.152 288.497 139.138 288.755 139.125C288.986 139.111 289.237 139.098 289.509 139.084C289.78 139.071 289.984 139.05 290.119 139.023C290.255 138.996 290.337 138.989 290.364 139.003H290.425V142.688C290.438 145.186 290.459 146.523 290.486 146.699C290.527 146.903 290.622 147.066 290.771 147.188C291.043 147.378 291.45 147.473 291.993 147.473C292.346 147.473 292.665 147.412 292.95 147.29C293.235 147.168 293.452 147.012 293.601 146.822C293.751 146.632 293.886 146.414 294.009 146.17C294.131 145.926 294.212 145.722 294.253 145.559C294.294 145.396 294.321 145.233 294.334 145.071C294.334 145.057 294.334 144.942 294.334 144.724C294.334 144.507 294.341 144.236 294.355 143.91C294.368 143.584 294.368 143.265 294.355 142.953V141.589C294.355 140.964 294.287 140.577 294.151 140.428C294.015 140.279 293.676 140.19 293.133 140.163H292.766V139.227C292.794 139.227 293.309 139.193 294.314 139.125C295.318 139.057 295.855 139.016 295.923 139.003H296.065V142.627C296.065 145.071 296.072 146.313 296.085 146.353C296.126 146.625 296.221 146.801 296.37 146.883C296.52 146.964 296.825 147.025 297.287 147.066H297.653V148.003C297.626 148.003 297.117 148.037 296.126 148.104C295.135 148.172 294.613 148.213 294.558 148.227H294.416V146.822Z" fill="white"/>
<path d="M298.773 147.065H299.058C299.588 147.065 299.907 146.97 300.015 146.78V146.617C300.015 146.495 300.015 146.339 300.015 146.149C300.015 145.959 300.015 145.749 300.015 145.518C300.015 145.287 300.022 145.022 300.036 144.724C300.049 144.425 300.049 144.14 300.036 143.869C300.036 143.448 300.036 143 300.036 142.525C300.036 142.05 300.029 141.649 300.015 141.323V140.855C299.975 140.597 299.879 140.427 299.73 140.346C299.581 140.265 299.275 140.203 298.814 140.163H298.447V139.694C298.447 139.382 298.461 139.226 298.488 139.226L298.692 139.206C298.827 139.192 299.018 139.179 299.262 139.165C299.506 139.151 299.757 139.138 300.015 139.124C300.246 139.111 300.49 139.097 300.748 139.084C301.006 139.07 301.203 139.05 301.339 139.022C301.474 138.995 301.549 138.989 301.563 139.002H301.624V139.817C301.624 140.332 301.631 140.59 301.644 140.59C301.658 140.59 301.692 140.556 301.746 140.488C301.8 140.421 301.882 140.319 301.99 140.183C302.099 140.047 302.228 139.925 302.377 139.817C302.527 139.708 302.723 139.579 302.968 139.43C303.212 139.28 303.47 139.172 303.741 139.104C304.013 139.036 304.359 139.002 304.78 139.002C304.983 139.002 305.174 139.016 305.35 139.043C305.526 139.07 305.683 139.111 305.818 139.165C305.954 139.219 306.083 139.274 306.205 139.328C306.327 139.382 306.429 139.443 306.511 139.511C306.592 139.579 306.667 139.654 306.735 139.735C306.802 139.817 306.864 139.891 306.918 139.959C306.972 140.027 307.02 140.102 307.06 140.183C307.101 140.265 307.128 140.332 307.142 140.387C307.155 140.441 307.176 140.495 307.203 140.55L307.244 140.651L307.305 140.57C307.345 140.516 307.386 140.461 307.427 140.407C307.468 140.353 307.529 140.278 307.61 140.183C307.692 140.088 307.78 140 307.875 139.918C307.97 139.837 308.072 139.749 308.18 139.654C308.289 139.559 308.425 139.477 308.588 139.409C308.75 139.341 308.907 139.274 309.056 139.206C309.205 139.138 309.382 139.09 309.585 139.063C309.789 139.036 309.999 139.016 310.216 139.002C311.927 139.002 312.857 139.769 313.006 141.303C313.02 141.398 313.026 142.341 313.026 144.133V145.884C313.026 146.4 313.04 146.706 313.067 146.801C313.094 146.896 313.169 146.964 313.291 147.004C313.576 147.045 313.909 147.065 314.289 147.065H314.615V148.002H314.452L313.983 147.982C313.658 147.968 313.311 147.961 312.945 147.961C312.578 147.961 312.32 147.954 312.171 147.941C310.773 147.941 310.013 147.961 309.891 148.002H309.728V147.065H310.054C310.882 147.065 311.296 146.957 311.296 146.74C311.309 146.712 311.316 145.776 311.316 143.93C311.302 142.097 311.289 141.126 311.275 141.018C311.194 140.638 311.058 140.353 310.868 140.163C310.678 139.973 310.515 139.857 310.379 139.817C310.244 139.776 310.067 139.762 309.85 139.776C309.239 139.776 308.703 140.007 308.241 140.468C307.875 140.835 307.644 141.208 307.549 141.588C307.454 141.968 307.4 142.531 307.386 143.278V144.581V145.803C307.386 146.21 307.393 146.482 307.407 146.617C307.42 146.753 307.44 146.841 307.468 146.882C307.495 146.923 307.556 146.964 307.651 147.004C307.936 147.045 308.269 147.065 308.649 147.065H308.974V148.002H308.811L308.323 147.982C308.011 147.968 307.671 147.961 307.305 147.961C306.938 147.961 306.68 147.954 306.531 147.941C305.133 147.941 304.373 147.961 304.25 148.002H304.088V147.065H304.413C305.241 147.065 305.655 146.957 305.655 146.74C305.669 146.712 305.676 145.776 305.676 143.93C305.662 142.097 305.649 141.126 305.635 141.018C305.554 140.638 305.418 140.353 305.228 140.163C305.038 139.973 304.875 139.857 304.739 139.817C304.603 139.776 304.427 139.762 304.21 139.776C303.599 139.776 303.063 140.007 302.601 140.468C302.235 140.835 302.004 141.208 301.909 141.588C301.814 141.968 301.76 142.531 301.746 143.278V144.581V145.803C301.746 146.21 301.753 146.482 301.766 146.617C301.78 146.753 301.8 146.841 301.827 146.882C301.855 146.923 301.916 146.964 302.011 147.004C302.296 147.045 302.628 147.065 303.008 147.065H303.334V148.002H303.171L302.703 147.982C302.377 147.968 302.031 147.961 301.665 147.961C301.298 147.961 301.04 147.954 300.891 147.941C299.493 147.941 298.732 147.961 298.61 148.002H298.447V147.065H298.773Z" fill="white"/>
<path d="M315.592 135.093C315.592 134.754 315.701 134.469 315.918 134.238C316.135 134.007 316.427 133.885 316.793 133.871C317.173 133.871 317.519 134.048 317.832 134.401C318.144 134.754 318.307 135.358 318.32 136.213C318.32 136.946 318.171 137.645 317.872 138.31C317.574 138.975 317.268 139.471 316.956 139.796C316.644 140.122 316.454 140.285 316.386 140.285C316.332 140.285 316.243 140.224 316.121 140.102C315.999 139.98 315.931 139.891 315.918 139.837C315.918 139.796 315.999 139.688 316.162 139.511C316.325 139.335 316.501 139.125 316.691 138.88C316.881 138.636 317.072 138.283 317.262 137.821C317.452 137.36 317.553 136.871 317.567 136.355C317.567 136.192 317.56 136.111 317.547 136.111C317.533 136.111 317.499 136.131 317.445 136.172C317.391 136.213 317.302 136.247 317.18 136.274C317.058 136.301 316.936 136.321 316.814 136.335C316.474 136.335 316.189 136.22 315.958 135.989C315.728 135.758 315.605 135.459 315.592 135.093ZM319.746 135.093C319.746 134.754 319.854 134.469 320.071 134.238C320.289 134.007 320.581 133.885 320.947 133.871C321.327 133.871 321.673 134.048 321.985 134.401C322.298 134.754 322.461 135.358 322.474 136.213C322.474 136.946 322.325 137.645 322.026 138.31C321.728 138.975 321.422 139.471 321.11 139.796C320.798 140.122 320.608 140.285 320.54 140.285C320.486 140.285 320.397 140.224 320.275 140.102C320.153 139.98 320.085 139.891 320.071 139.837C320.071 139.796 320.153 139.688 320.316 139.511C320.479 139.335 320.655 139.125 320.845 138.88C321.035 138.636 321.225 138.283 321.415 137.821C321.605 137.36 321.707 136.871 321.721 136.355C321.721 136.192 321.714 136.111 321.7 136.111C321.687 136.111 321.653 136.131 321.599 136.172C321.544 136.213 321.456 136.247 321.334 136.274C321.212 136.301 321.09 136.321 320.967 136.335C320.628 136.335 320.343 136.22 320.112 135.989C319.881 135.758 319.759 135.459 319.746 135.093Z" fill="white"/>
</g>
</g>
<defs>
<clipPath id="clip0_902_5950">
<rect width="600" height="420" fill="white"/>
</clipPath>
<clipPath id="clip1_902_5950">
<rect width="70.146" height="14.805" fill="white" transform="translate(260.025 133.646)"/>
</clipPath>
</defs>
</svg>
