<svg width="601" height="600" viewBox="0 0 601 600" fill="none" xmlns="http://www.w3.org/2000/svg">
<g clip-path="url(#clip0_965_174)">
<path d="M600.536 0H0.536377V600H600.536V0Z" fill="black"/>
<path d="M540.536 60H60.5364V540H540.536V60Z" fill="black"/>
<path d="M60.5364 84H540.536" stroke="#181818" stroke-miterlimit="10"/>
<path d="M60.5364 108H540.536" stroke="#181818" stroke-miterlimit="10"/>
<path d="M60.5364 132H540.536" stroke="#181818" stroke-miterlimit="10"/>
<path d="M60.5364 156H540.536" stroke="#181818" stroke-miterlimit="10"/>
<path d="M60.5364 204H540.536" stroke="#181818" stroke-miterlimit="10"/>
<path d="M60.5364 228H540.536" stroke="#181818" stroke-miterlimit="10"/>
<path d="M60.5364 252H540.536" stroke="#181818" stroke-miterlimit="10"/>
<path d="M60.5364 276H540.536" stroke="#181818" stroke-miterlimit="10"/>
<path d="M60.5364 324H540.536" stroke="#181818" stroke-miterlimit="10"/>
<path d="M60.5364 348H540.536" stroke="#181818" stroke-miterlimit="10"/>
<path d="M60.5364 372H540.536" stroke="#181818" stroke-miterlimit="10"/>
<path d="M60.5364 396H540.536" stroke="#181818" stroke-miterlimit="10"/>
<path d="M60.5364 444H540.536" stroke="#181818" stroke-miterlimit="10"/>
<path d="M60.5364 468H540.536" stroke="#181818" stroke-miterlimit="10"/>
<path d="M60.5364 492H540.536" stroke="#181818" stroke-miterlimit="10"/>
<path d="M60.5364 516H540.536" stroke="#181818" stroke-miterlimit="10"/>
<path d="M84.5364 60V540" stroke="#181818" stroke-miterlimit="10"/>
<path d="M108.536 60V540" stroke="#181818" stroke-miterlimit="10"/>
<path d="M132.536 60V540" stroke="#181818" stroke-miterlimit="10"/>
<path d="M156.536 60V540" stroke="#181818" stroke-miterlimit="10"/>
<path d="M204.536 60V540" stroke="#181818" stroke-miterlimit="10"/>
<path d="M228.536 60V540" stroke="#181818" stroke-miterlimit="10"/>
<path d="M252.536 60V540" stroke="#181818" stroke-miterlimit="10"/>
<path d="M276.536 60V540" stroke="#181818" stroke-miterlimit="10"/>
<path d="M324.536 60V540" stroke="#181818" stroke-miterlimit="10"/>
<path d="M348.536 60V540" stroke="#181818" stroke-miterlimit="10"/>
<path d="M372.536 60V540" stroke="#181818" stroke-miterlimit="10"/>
<path d="M396.536 60V540" stroke="#181818" stroke-miterlimit="10"/>
<path d="M444.536 60V540" stroke="#181818" stroke-miterlimit="10"/>
<path d="M468.536 60V540" stroke="#181818" stroke-miterlimit="10"/>
<path d="M492.536 60V540" stroke="#181818" stroke-miterlimit="10"/>
<path d="M516.536 60V540" stroke="#181818" stroke-miterlimit="10"/>
<path d="M60.5364 60H540.536" stroke="#262626" stroke-miterlimit="10"/>
<path d="M60.5364 300H540.536" stroke="#262626" stroke-miterlimit="10"/>
<path d="M60.5364 540H540.536" stroke="#262626" stroke-miterlimit="10"/>
<path d="M180.536 60V540" stroke="#262626" stroke-miterlimit="10"/>
<path d="M420.536 60V540" stroke="#262626" stroke-miterlimit="10"/>
<path d="M60.5364 180H540.536" stroke="#404040" stroke-miterlimit="10"/>
<path d="M60.5364 420H540.536" stroke="#404040" stroke-miterlimit="10"/>
<path d="M60.5364 60V540" stroke="#404040" stroke-miterlimit="10"/>
<path d="M300.536 60V540" stroke="#404040" stroke-miterlimit="10"/>
<path d="M540.536 60V540" stroke="#404040" stroke-miterlimit="10"/>
<path d="M60.5364 84H540.536" stroke="#181818" stroke-miterlimit="10"/>
<path d="M60.5364 108H540.536" stroke="#181818" stroke-miterlimit="10"/>
<path d="M60.5364 132H540.536" stroke="#181818" stroke-miterlimit="10"/>
<path d="M60.5364 156H540.536" stroke="#181818" stroke-miterlimit="10"/>
<path d="M60.5364 204H540.536" stroke="#181818" stroke-miterlimit="10"/>
<path d="M60.5364 228H540.536" stroke="#181818" stroke-miterlimit="10"/>
<path d="M60.5364 252H540.536" stroke="#181818" stroke-miterlimit="10"/>
<path d="M60.5364 276H540.536" stroke="#181818" stroke-miterlimit="10"/>
<path d="M60.5364 324H540.536" stroke="#181818" stroke-miterlimit="10"/>
<path d="M60.5364 348H540.536" stroke="#181818" stroke-miterlimit="10"/>
<path d="M60.5364 372H540.536" stroke="#181818" stroke-miterlimit="10"/>
<path d="M60.5364 396H540.536" stroke="#181818" stroke-miterlimit="10"/>
<path d="M60.5364 444H540.536" stroke="#181818" stroke-miterlimit="10"/>
<path d="M60.5364 468H540.536" stroke="#181818" stroke-miterlimit="10"/>
<path d="M60.5364 492H540.536" stroke="#181818" stroke-miterlimit="10"/>
<path d="M60.5364 516H540.536" stroke="#181818" stroke-miterlimit="10"/>
<path d="M84.5364 60V540" stroke="#181818" stroke-miterlimit="10"/>
<path d="M108.536 60V540" stroke="#181818" stroke-miterlimit="10"/>
<path d="M132.536 60V540" stroke="#181818" stroke-miterlimit="10"/>
<path d="M156.536 60V540" stroke="#181818" stroke-miterlimit="10"/>
<path d="M204.536 60V540" stroke="#181818" stroke-miterlimit="10"/>
<path d="M228.536 60V540" stroke="#181818" stroke-miterlimit="10"/>
<path d="M252.536 60V540" stroke="#181818" stroke-miterlimit="10"/>
<path d="M276.536 60V540" stroke="#181818" stroke-miterlimit="10"/>
<path d="M324.536 60V540" stroke="#181818" stroke-miterlimit="10"/>
<path d="M348.536 60V540" stroke="#181818" stroke-miterlimit="10"/>
<path d="M372.536 60V540" stroke="#181818" stroke-miterlimit="10"/>
<path d="M396.536 60V540" stroke="#181818" stroke-miterlimit="10"/>
<path d="M444.536 60V540" stroke="#181818" stroke-miterlimit="10"/>
<path d="M468.536 60V540" stroke="#181818" stroke-miterlimit="10"/>
<path d="M492.536 60V540" stroke="#181818" stroke-miterlimit="10"/>
<path d="M516.536 60V540" stroke="#181818" stroke-miterlimit="10"/>
<path d="M60.5364 60H540.536" stroke="#262626" stroke-miterlimit="10"/>
<path d="M60.5364 300H540.536" stroke="#262626" stroke-miterlimit="10"/>
<path d="M60.5364 540H540.536" stroke="#262626" stroke-miterlimit="10"/>
<path d="M180.536 60V540" stroke="#262626" stroke-miterlimit="10"/>
<path d="M420.536 60V540" stroke="#262626" stroke-miterlimit="10"/>
<path d="M60.5364 180H540.536" stroke="#404040" stroke-miterlimit="10"/>
<path d="M60.5364 60V540" stroke="#404040" stroke-miterlimit="10"/>
<path d="M300.536 60V540" stroke="#404040" stroke-miterlimit="10"/>
<path d="M540.536 60V540" stroke="#404040" stroke-miterlimit="10"/>
<path opacity="0.75" d="M60.5364 420L61.5364 420.008L62.5364 420.033L63.5364 420.074L64.5364 420.131L65.5364 420.204L66.5364 420.293L67.5364 420.397L68.5364 420.516L69.5364 420.65L70.5364 420.799L71.5364 420.963L72.5364 421.141L73.5364 421.333L74.5364 421.539L75.5364 421.759L76.5364 421.992L77.5364 422.239L78.5364 422.499L79.5364 422.772L80.5364 423.057L81.5364 423.355L82.5364 423.665L83.5364 423.987L84.5364 424.321L85.5364 424.667L86.5364 425.024L87.5364 425.393L88.5364 425.773L89.5364 426.163L90.5364 426.564L91.5364 426.975L92.5364 427.397L93.5364 427.829L94.5364 428.27L95.5364 428.721L96.5364 429.181L97.5364 429.651L98.5364 430.13L99.5364 430.617L100.536 431.113L101.536 431.617L102.536 432.129L103.536 432.649L104.536 433.177L105.536 433.712L106.536 434.255L107.536 434.805L108.536 435.362L109.536 435.925L110.536 436.495L111.536 437.071L112.536 437.653L113.536 438.241L114.536 438.835L115.536 439.434L116.536 440.038L117.536 440.647L118.536 441.261L119.536 441.88L120.536 442.503L121.536 443.13L122.536 443.761L123.536 444.396L124.536 445.034L125.536 445.676L126.536 446.321L127.536 446.969L128.536 447.619L129.536 448.272L130.536 448.927L131.536 449.584L132.536 450.243L133.536 450.904L134.536 451.566L135.536 452.23L136.536 452.895L137.536 453.56L138.536 454.226L139.536 454.892L140.536 455.559L141.536 456.226L142.536 456.892L143.536 457.558L144.536 458.223L145.536 458.888L146.536 459.552L147.536 460.214L148.536 460.875L149.536 461.534L150.536 462.191L151.536 462.846L152.536 463.499L153.536 464.149L154.536 464.797L155.536 465.442L156.536 466.084L157.536 466.722L158.536 467.357L159.536 467.988L160.536 468.615L161.536 469.238L162.536 469.857L163.536 470.471L164.536 471.08L165.536 471.684L166.536 472.283L167.536 472.877L168.536 473.465L169.536 474.047L170.536 474.623L171.536 475.193L172.536 475.756L173.536 476.313L174.536 476.863L175.536 477.406L176.536 477.941L177.536 478.469L178.536 478.989L179.536 479.501L180.536 480.005L181.536 480.501L182.536 480.988L183.536 481.467L184.536 481.937L185.536 482.397L186.536 482.848L187.536 483.289L188.536 483.721L189.536 484.143L190.536 484.554L191.536 484.955L192.536 485.345L193.536 485.725L194.536 486.094L195.536 486.451L196.536 486.797L197.536 487.131L198.536 487.453L199.536 487.763L200.536 488.061L201.536 488.346L202.536 488.619L203.536 488.879L204.536 489.126L205.536 489.359L206.536 489.579L207.536 489.785L208.536 489.977L209.536 490.155L210.536 490.319L211.536 490.468L212.536 490.602L213.536 490.721L214.536 490.825L215.536 490.914L216.536 490.987L217.536 491.044L218.536 491.085L219.536 491.11L220.536 491.118L221.536 491.11L222.536 491.085L223.536 491.043L224.536 490.983L225.536 490.906L226.536 490.811L227.536 490.698L228.536 490.567L229.536 490.418L230.536 490.25L231.536 490.064L232.536 489.859L233.536 489.634L234.536 489.39L235.536 489.126L236.536 488.843L237.536 488.54L238.536 488.216L239.536 487.872L240.536 487.507L241.536 487.122L242.536 486.716L243.536 486.288L244.536 485.839L245.536 485.368L246.536 484.875L247.536 484.36L248.536 483.823L249.536 483.263L250.536 482.681L251.536 482.076L252.536 481.448L253.536 480.796L254.536 480.121L255.536 479.422L256.536 478.699L257.536 477.952L258.536 477.181L259.536 476.385L260.536 475.564L261.536 474.718L262.536 473.847L263.536 472.95L264.536 472.028L265.536 471.08L266.536 470.106L267.536 469.106L268.536 468.079L269.536 467.026L270.536 465.946L271.536 464.839L272.536 463.704L273.536 462.542L274.536 461.352L275.536 460.134L276.536 458.888L277.536 457.614L278.536 456.311L279.536 454.98L280.536 453.62L281.536 452.23L282.536 450.811L283.536 449.362L284.536 447.884L285.536 446.376L286.536 444.837L287.536 443.268L288.536 441.668L289.536 440.038L290.536 438.377L291.536 436.684L292.536 434.96L293.536 433.204L294.536 431.416L295.536 429.596L296.536 427.744L297.536 425.859L298.536 423.942L299.536 421.992L300.536 420.009H60.5364V420Z" fill="#F2777A"/>
<path opacity="0.75" d="M300.536 420L301.536 417.983L302.536 415.933L303.536 413.849L304.536 411.731L305.536 409.579L306.536 407.393L307.536 405.172L308.536 402.916L309.536 400.625L310.536 398.299L311.536 395.937L312.536 393.54L313.536 391.107L314.536 388.638L315.536 386.133L316.536 383.591L317.536 381.013L318.536 378.398L319.536 375.746L320.536 373.056L321.536 370.329L322.536 367.564L323.536 364.761L324.536 361.92L325.536 359.041L326.536 356.123L327.536 353.167L328.536 350.172L329.536 347.137L330.536 344.063L331.536 340.949L332.536 337.796L333.536 334.603L334.536 331.369L335.536 328.095L336.536 324.78L337.536 321.424L338.536 318.028L339.536 314.59L340.536 311.111L341.536 307.59L342.536 304.027L343.536 300.422L344.536 296.775L345.536 293.085L346.536 289.353L347.536 285.578L348.536 281.76L349.536 277.898L350.536 273.993L351.536 270.044L352.536 266.051L353.536 262.014L354.536 257.932L355.536 253.806L356.536 249.635L357.536 245.419L358.536 241.158L359.536 236.852L360.536 232.5L361.536 228.102L362.536 223.658L363.536 219.168L364.536 214.631L365.536 210.048L366.536 205.418L367.536 200.741L368.536 196.016L369.536 191.244L370.536 186.424L371.536 181.556L372.536 176.64L373.536 171.676L374.536 166.663L375.536 161.601L376.536 156.49L377.536 151.33L378.536 146.121L379.536 140.863L380.536 135.555V420H300.536Z" fill="#6AB0F3"/>
<path d="M57.4564 563.3C58.2034 562.22 59.2234 561.68 60.5164 561.68C61.4894 561.68 62.3434 562.014 63.0764 562.68C63.4364 563.028 63.7434 563.481 63.9964 564.04C64.4894 565.146 64.7364 566.667 64.7364 568.6C64.7364 570.667 64.4494 572.247 63.8764 573.34C63.5034 574.113 62.9564 574.674 62.2364 575.02C61.6764 575.3 61.1094 575.441 60.5364 575.441C59.0034 575.441 57.8834 574.741 57.1764 573.34C56.6024 572.247 56.3164 570.667 56.3164 568.6C56.3164 567.361 56.3994 566.337 56.5664 565.531C56.7334 564.724 57.0294 563.981 57.4564 563.301V563.3ZM61.9564 563.06C61.5694 562.634 61.0964 562.42 60.5364 562.42C59.9764 562.42 59.4964 562.634 59.0964 563.06C58.8034 563.368 58.6024 563.741 58.4964 564.18C58.3894 564.62 58.3234 565.38 58.2964 566.46C58.2964 566.54 58.2934 566.8 58.2864 567.24C58.2794 567.679 58.2764 568.047 58.2764 568.34C58.2764 569.62 58.2894 570.514 58.3164 571.02C58.3694 571.954 58.4494 572.624 58.5564 573.031C58.6624 573.437 58.8634 573.788 59.1564 574.081C59.5164 574.481 59.9764 574.681 60.5364 574.681C61.0824 574.681 61.5364 574.482 61.8964 574.081C62.1894 573.788 62.3894 573.437 62.4964 573.031C62.6024 572.624 62.6834 571.954 62.7364 571.02C62.7624 570.514 62.7764 569.621 62.7764 568.34C62.7764 568.047 62.7724 567.68 62.7664 567.24C62.7594 566.8 62.7564 566.54 62.7564 566.46C62.7294 565.38 62.6624 564.62 62.5564 564.18C62.4494 563.741 62.2494 563.368 61.9564 563.06Z" fill="#F0F0F0"/>
<path d="M303.856 575.001C303.629 574.961 302.569 574.941 300.676 574.941C298.808 574.941 297.762 574.961 297.535 575.001H297.295V574.081H297.815C298.588 574.081 299.088 574.06 299.315 574.02C299.422 574.007 299.582 573.927 299.795 573.781V563.441C299.768 563.441 299.715 563.461 299.635 563.501C299.021 563.741 298.335 563.868 297.575 563.881H297.195V562.961H297.575C298.695 562.921 299.628 562.668 300.375 562.201C300.615 562.067 300.822 561.914 300.995 561.741C301.021 561.701 301.101 561.68 301.235 561.68C301.368 561.68 301.482 561.72 301.575 561.8V567.78L301.596 573.78C301.795 573.98 302.229 574.08 302.895 574.08H304.076V575L303.856 575.001Z" fill="#F0F0F0"/>
<path d="M537.736 566.42C537.362 566.42 537.069 566.3 536.856 566.06C536.642 565.821 536.536 565.528 536.536 565.18C536.536 564.22 536.899 563.397 537.626 562.71C538.353 562.023 539.223 561.68 540.236 561.68C541.382 561.68 542.333 561.991 543.086 562.611C543.839 563.231 544.303 564.041 544.476 565.041C544.503 565.281 544.517 565.501 544.517 565.701C544.517 566.474 544.283 567.201 543.816 567.881C543.443 568.442 542.69 569.208 541.556 570.181C541.077 570.595 540.41 571.208 539.556 572.021L538.376 573.141L539.896 573.162C541.99 573.162 543.103 573.129 543.237 573.061C543.29 573.048 543.357 572.909 543.437 572.641C543.49 572.495 543.583 572.041 543.716 571.282V571.221H544.517V571.282L543.956 574.942V575.002H536.536V574.622C536.536 574.355 536.55 574.202 536.576 574.162C536.589 574.136 537.149 573.502 538.257 572.262C539.71 570.649 540.643 569.582 541.056 569.062C541.95 567.849 542.396 566.736 542.396 565.722C542.396 564.842 542.167 564.106 541.707 563.512C541.247 562.919 540.603 562.622 539.777 562.622C539.004 562.622 538.377 562.969 537.896 563.662C537.87 563.716 537.83 563.789 537.777 563.882C537.737 563.949 537.716 563.989 537.716 564.002C537.716 564.016 537.749 564.022 537.816 564.022C538.15 564.022 538.42 564.142 538.627 564.382C538.834 564.622 538.938 564.903 538.938 565.222C538.938 565.556 538.828 565.839 538.608 566.073C538.387 566.306 538.098 566.423 537.738 566.423L537.736 566.42Z" fill="#F0F0F0"/>
<path d="M27.4564 413.302C28.2034 412.222 29.2234 411.682 30.5164 411.682C31.4894 411.682 32.3434 412.016 33.0764 412.682C33.4364 413.03 33.7434 413.483 33.9964 414.042C34.4894 415.148 34.7364 416.669 34.7364 418.602C34.7364 420.669 34.4494 422.249 33.8764 423.342C33.5034 424.115 32.9564 424.676 32.2364 425.022C31.6764 425.302 31.1094 425.443 30.5364 425.443C29.0034 425.443 27.8834 424.743 27.1764 423.342C26.6024 422.249 26.3164 420.669 26.3164 418.602C26.3164 417.363 26.3994 416.339 26.5664 415.533C26.7334 414.726 27.0294 413.983 27.4564 413.303V413.302ZM31.9564 413.062C31.5694 412.636 31.0964 412.422 30.5364 412.422C29.9764 412.422 29.4964 412.636 29.0964 413.062C28.8034 413.37 28.6024 413.743 28.4964 414.182C28.3894 414.622 28.3234 415.382 28.2964 416.462C28.2964 416.542 28.2934 416.802 28.2864 417.242C28.2794 417.681 28.2764 418.049 28.2764 418.342C28.2764 419.622 28.2894 420.516 28.3164 421.022C28.3694 421.956 28.4494 422.626 28.5564 423.033C28.6624 423.439 28.8634 423.79 29.1564 424.083C29.5164 424.483 29.9764 424.683 30.5364 424.683C31.0824 424.683 31.5364 424.484 31.8964 424.083C32.1894 423.79 32.3894 423.439 32.4964 423.033C32.6024 422.626 32.6834 421.956 32.7364 421.022C32.7624 420.516 32.7764 419.623 32.7764 418.342C32.7764 418.049 32.7724 417.682 32.7664 417.242C32.7594 416.802 32.7564 416.542 32.7564 416.462C32.7294 415.382 32.6624 414.622 32.5564 414.182C32.4494 413.743 32.2494 413.37 31.9564 413.062Z" fill="#F0F0F0"/>
<path d="M33.8564 185.001C33.6294 184.961 32.5694 184.941 30.6764 184.941C28.8094 184.941 27.7624 184.961 27.5364 185.001H27.2964V184.081H27.8164C28.5894 184.081 29.0894 184.06 29.3164 184.02C29.4234 184.007 29.5834 183.927 29.7964 183.781V173.441C29.7694 173.441 29.7164 173.461 29.6364 173.501C29.0224 173.741 28.3364 173.868 27.5764 173.881H27.1964V172.961H27.5764C28.6964 172.921 29.6294 172.668 30.3764 172.201C30.6164 172.067 30.8234 171.914 30.9964 171.741C31.0224 171.701 31.1024 171.68 31.2364 171.68C31.3694 171.68 31.4834 171.72 31.5764 171.8V177.78L31.5964 183.78C31.7964 183.98 32.2294 184.08 32.8964 184.08H34.0764V185H33.8564V185.001Z" fill="#F0F0F0"/>
<path d="M374.14 43.1191H223.428V74.6581H374.14V43.1191Z" fill="black"/>
<path d="M230.89 57.6937C230.89 57.3587 230.763 57.1907 230.508 57.1907C230.186 57.1907 229.851 57.3847 229.503 57.7737C229.155 58.1627 228.866 58.7587 228.638 59.5637C228.625 59.5767 228.611 59.5977 228.598 59.6237C228.585 59.6497 228.578 59.6707 228.578 59.6837C228.578 59.6967 228.565 59.7107 228.538 59.7237C228.511 59.7367 228.491 59.7437 228.478 59.7437H227.955C227.875 59.6637 227.834 59.6027 227.834 59.5627C227.834 59.4687 227.888 59.2747 227.995 58.9797C228.102 58.6847 228.263 58.3367 228.478 57.9337C228.693 57.5307 228.987 57.1897 229.363 56.9087C229.739 56.6277 230.161 56.4797 230.63 56.4667C231.193 56.4667 231.629 56.6277 231.937 56.9497C232.245 57.2717 232.406 57.6467 232.42 58.0757C232.42 58.3037 232.4 58.4777 232.36 58.5987C232.36 58.6787 232.259 58.9737 232.058 59.4837C231.857 59.9937 231.649 60.5897 231.435 61.2737C231.221 61.9577 231.1 62.5537 231.073 63.0637C231.073 63.4257 231.107 63.7207 231.174 63.9487C231.348 64.5247 231.771 64.8137 232.441 64.8137C232.937 64.8137 233.399 64.5857 233.828 64.1297C234.257 63.6737 234.592 63.1447 234.833 62.5417C235.074 61.9387 235.269 61.3817 235.416 60.8727C235.563 60.3637 235.637 59.9947 235.637 59.7667C235.637 59.4587 235.583 59.1907 235.476 58.9627C235.369 58.7347 235.248 58.5607 235.114 58.4397C234.98 58.3187 234.859 58.1987 234.752 58.0777C234.645 57.9567 234.591 57.8097 234.591 57.6357C234.591 57.3407 234.718 57.0657 234.973 56.8117C235.228 56.5577 235.503 56.4297 235.797 56.4297C236.052 56.4297 236.28 56.5507 236.481 56.7917C236.682 57.0327 236.789 57.4217 236.803 57.9577C236.803 58.3197 236.723 58.8757 236.562 59.6267C236.401 60.3777 236.153 61.2147 235.818 62.1397C235.483 63.0647 235.007 63.8627 234.39 64.5327C233.773 65.2027 233.063 65.5447 232.259 65.5577C231.401 65.5577 230.717 65.3367 230.208 64.8937C229.712 64.4647 229.464 63.8277 229.464 62.9837C229.464 62.5677 229.518 62.1387 229.625 61.6967C229.732 61.2547 230.007 60.4697 230.449 59.3437C230.744 58.4857 230.891 57.9357 230.891 57.6947L230.89 57.6937Z" fill="#F0F0F0"/>
<path d="M239.054 60.3079C239.054 59.3829 239.121 58.5049 239.255 57.6739C239.389 56.8429 239.543 56.1259 239.717 55.5219C239.891 54.9189 240.139 54.3289 240.461 53.7529C240.783 53.1769 241.037 52.7279 241.225 52.4059C241.413 52.0839 241.694 51.7359 242.07 51.3599C242.445 50.9849 242.667 50.7569 242.734 50.6759C242.801 50.5949 242.969 50.4549 243.237 50.2539H243.579C243.767 50.2539 243.861 50.3139 243.861 50.4349C243.861 50.4749 243.747 50.6159 243.519 50.8569C243.291 51.0979 243.016 51.4539 242.695 51.9229C242.374 52.3919 242.045 52.9689 241.71 53.6519C241.375 54.3349 241.093 55.2609 240.865 56.4269C240.637 57.5929 240.523 58.8869 240.523 60.3079C240.523 61.7289 240.637 63.0159 240.865 64.1689C241.093 65.3219 241.368 66.2529 241.689 66.9639C242.011 67.6739 242.339 68.2509 242.674 68.6929C243.009 69.1349 243.291 69.4909 243.519 69.7589C243.747 70.0269 243.861 70.1679 243.861 70.1809C243.861 70.3019 243.76 70.3619 243.559 70.3619H243.237L242.674 69.8789C241.414 68.7399 240.496 67.3189 239.919 65.6159C239.343 63.9139 239.054 62.1439 239.054 60.3079Z" fill="#F0F0F0"/>
<path d="M245.508 57.595C245.414 57.501 245.367 57.434 245.367 57.394C245.367 57.34 245.387 57.233 245.427 57.072C245.467 56.911 245.501 56.817 245.528 56.79C245.555 56.723 245.615 56.689 245.709 56.689C245.803 56.689 246.145 56.682 246.734 56.669H247.8L248.182 55.06C248.222 54.913 248.269 54.718 248.323 54.477C248.377 54.236 248.424 54.061 248.464 53.954C248.504 53.847 248.544 53.713 248.585 53.552C248.626 53.391 248.679 53.277 248.746 53.21C248.813 53.143 248.88 53.063 248.947 52.969C249.014 52.875 249.108 52.815 249.229 52.788C249.35 52.761 249.47 52.748 249.591 52.748C249.832 52.761 250 52.835 250.094 52.969C250.188 53.103 250.235 53.23 250.235 53.351C250.235 53.445 250.175 53.76 250.054 54.296C249.933 54.832 249.799 55.362 249.652 55.884L249.451 56.628C249.451 56.655 249.786 56.668 250.456 56.668H251.481C251.575 56.762 251.622 56.836 251.622 56.889C251.622 57.184 251.535 57.419 251.361 57.593H249.209L248.485 60.509C247.962 62.654 247.701 63.807 247.701 63.968C247.701 64.531 247.882 64.813 248.244 64.813C248.713 64.813 249.169 64.585 249.611 64.129C250.053 63.673 250.409 63.11 250.677 62.44C250.704 62.36 250.737 62.313 250.778 62.299C250.819 62.285 250.919 62.272 251.08 62.259H251.16C251.361 62.259 251.462 62.313 251.462 62.42C251.462 62.46 251.442 62.541 251.402 62.661C251.335 62.875 251.214 63.13 251.04 63.425C250.866 63.72 250.638 64.035 250.356 64.37C250.074 64.705 249.733 64.987 249.331 65.215C248.929 65.443 248.52 65.557 248.104 65.557C247.702 65.557 247.32 65.456 246.958 65.255C246.596 65.054 246.335 64.705 246.174 64.209C246.147 64.102 246.134 63.921 246.134 63.666V63.304L246.838 60.489C247.307 58.599 247.548 57.647 247.562 57.634C247.562 57.607 247.22 57.594 246.537 57.594H245.512L245.508 57.595Z" fill="#F0F0F0"/>
<path d="M253.451 50.2759L253.531 50.2559H253.973L254.536 50.7389C255.796 51.8779 256.714 53.2989 257.291 55.0019C257.867 56.7039 258.156 58.4739 258.156 60.3099C258.156 61.2219 258.089 62.0999 257.955 62.9439C257.821 63.7879 257.667 64.5059 257.493 65.0959C257.319 65.6859 257.071 66.2759 256.749 66.8649C256.427 67.4549 256.173 67.9039 255.985 68.2119C255.797 68.5199 255.523 68.8619 255.161 69.2369C254.799 69.6119 254.585 69.8339 254.518 69.9009C254.451 69.9679 254.297 70.0949 254.056 70.2829C254.016 70.3229 253.989 70.3499 253.976 70.3629H253.514C253.474 70.3629 253.44 70.3429 253.413 70.3029C253.386 70.2629 253.366 70.2019 253.353 70.1219C253.366 70.1089 253.44 70.0209 253.574 69.8609C255.652 67.7029 256.691 64.5189 256.691 60.3099C256.691 56.1009 255.652 52.9169 253.574 50.7589C253.44 50.5979 253.366 50.5109 253.353 50.4979C253.353 50.3909 253.387 50.3169 253.454 50.2769L253.451 50.2759Z" fill="#F0F0F0"/>
<path d="M266.778 58.359C266.778 58.185 266.872 58.051 267.06 57.957H279.869C280.07 58.064 280.171 58.198 280.171 58.359C280.171 58.506 280.077 58.634 279.889 58.741L273.495 58.761H267.101C266.887 58.694 266.779 58.56 266.779 58.359H266.778ZM266.778 62.26C266.778 62.059 266.885 61.925 267.1 61.858H279.888C280.076 61.992 280.17 62.126 280.17 62.26C280.17 62.434 280.069 62.568 279.868 62.662H267.059C266.871 62.568 266.777 62.434 266.777 62.26H266.778Z" fill="#F0F0F0"/>
<path d="M289.073 56.7094C288.711 56.7094 288.423 56.5884 288.208 56.3474C287.994 56.1064 287.886 55.8114 287.886 55.4624C287.886 54.5104 288.241 53.6864 288.952 52.9894C289.662 52.2924 290.547 51.9434 291.606 51.9434C292.826 51.9434 293.845 52.3184 294.662 53.0694C295.479 53.8204 295.895 54.7924 295.909 55.9854C295.909 56.5614 295.775 57.1114 295.507 57.6344C295.239 58.1574 294.917 58.6134 294.542 59.0014C294.167 59.3894 293.63 59.8864 292.933 60.4894C292.45 60.9054 291.78 61.5214 290.922 62.3394L289.736 63.4654L291.264 63.4854C293.369 63.4854 294.488 63.4514 294.622 63.3844C294.716 63.3574 294.877 62.7614 295.105 61.5944V61.5344H295.909V61.5944C295.896 61.6344 295.808 62.2444 295.648 63.4244C295.487 64.6044 295.387 65.2204 295.346 65.2744V65.3344H287.886V64.7114C287.886 64.6174 287.926 64.5174 288.007 64.4094C288.088 64.3014 288.289 64.0674 288.61 63.7054C288.999 63.2764 289.334 62.9014 289.615 62.5794C289.736 62.4454 289.964 62.1974 290.299 61.8354C290.634 61.4734 290.862 61.2254 290.983 61.0914C291.104 60.9574 291.298 60.7364 291.566 60.4274C291.834 60.1194 292.022 59.8914 292.129 59.7434C292.236 59.5964 292.39 59.3944 292.591 59.1404C292.792 58.8864 292.933 58.6714 293.013 58.4974C293.093 58.3234 293.194 58.1284 293.315 57.9144C293.436 57.7004 293.523 57.4854 293.576 57.2714C293.629 57.0574 293.677 56.8554 293.717 56.6684C293.757 56.4814 293.777 56.2594 293.777 56.0044C293.777 55.1594 293.549 54.4294 293.093 53.8124C292.637 53.1954 291.987 52.8874 291.143 52.8874C290.701 52.8874 290.312 53.0014 289.977 53.2294C289.642 53.4574 289.407 53.6784 289.273 53.8934C289.139 54.1084 289.072 54.2354 289.072 54.2754C289.072 54.2884 289.106 54.2954 289.173 54.2954C289.414 54.2954 289.662 54.3894 289.917 54.5774C290.172 54.7654 290.299 55.0734 290.299 55.5024C290.299 55.8374 290.192 56.1194 289.977 56.3474C289.762 56.5754 289.462 56.6964 289.073 56.7094Z" fill="#F0F0F0"/>
<path d="M297.458 57.595C297.364 57.501 297.317 57.434 297.317 57.394C297.317 57.34 297.337 57.233 297.377 57.072C297.417 56.911 297.451 56.817 297.478 56.79C297.505 56.723 297.565 56.689 297.659 56.689C297.753 56.689 298.095 56.682 298.684 56.669H299.75L300.132 55.06C300.172 54.913 300.219 54.718 300.273 54.477C300.327 54.236 300.374 54.061 300.414 53.954C300.454 53.847 300.494 53.713 300.535 53.552C300.576 53.391 300.629 53.277 300.696 53.21C300.763 53.143 300.83 53.063 300.897 52.969C300.964 52.875 301.058 52.815 301.179 52.788C301.3 52.761 301.42 52.748 301.541 52.748C301.782 52.761 301.95 52.835 302.044 52.969C302.138 53.103 302.185 53.23 302.185 53.351C302.185 53.445 302.125 53.76 302.004 54.296C301.883 54.832 301.749 55.362 301.602 55.884L301.401 56.628C301.401 56.655 301.736 56.668 302.406 56.668H303.431C303.525 56.762 303.572 56.836 303.572 56.889C303.572 57.184 303.485 57.419 303.311 57.593H301.159L300.435 60.509C299.912 62.654 299.651 63.807 299.651 63.968C299.651 64.531 299.832 64.813 300.194 64.813C300.663 64.813 301.119 64.585 301.561 64.129C302.003 63.673 302.359 63.11 302.627 62.44C302.654 62.36 302.687 62.313 302.728 62.299C302.769 62.285 302.869 62.272 303.03 62.259H303.11C303.311 62.259 303.412 62.313 303.412 62.42C303.412 62.46 303.392 62.541 303.352 62.661C303.285 62.875 303.164 63.13 302.99 63.425C302.816 63.72 302.588 64.035 302.306 64.37C302.024 64.705 301.683 64.987 301.281 65.215C300.879 65.443 300.47 65.557 300.054 65.557C299.652 65.557 299.27 65.456 298.908 65.255C298.546 65.054 298.285 64.705 298.124 64.209C298.097 64.102 298.084 63.921 298.084 63.666V63.304L298.788 60.489C299.257 58.599 299.498 57.647 299.512 57.634C299.512 57.607 299.17 57.594 298.487 57.594H297.462L297.458 57.595Z" fill="#F0F0F0"/>
<path d="M306.663 50.4501C306.407 50.4501 306.208 50.3691 306.066 50.2081C305.924 50.0471 305.848 49.8381 305.839 49.5821C305.839 49.0611 306.066 48.5961 306.521 48.1891C306.976 47.7821 307.526 47.5781 308.17 47.5781C308.502 47.5781 308.71 47.5831 308.796 47.5921C309.497 47.7061 310.033 47.9571 310.402 48.3451C310.771 48.7331 310.961 49.1551 310.971 49.6101C310.971 50.1031 310.81 50.5811 310.488 51.0461C310.166 51.5111 309.72 51.8471 309.152 52.0551L309.109 52.0831C309.109 52.0921 309.152 52.1071 309.237 52.1261C309.322 52.1451 309.46 52.1881 309.649 52.2541C309.838 52.3201 310.019 52.4201 310.189 52.5531C310.966 53.0551 311.355 53.7191 311.355 54.5431C311.355 55.2921 311.061 55.9461 310.474 56.5051C309.886 57.0641 309.142 57.3441 308.242 57.3441C307.484 57.3441 306.83 57.1401 306.28 56.7331C305.73 56.3251 305.455 55.8091 305.455 55.1831C305.455 54.9181 305.54 54.7041 305.711 54.5431C305.882 54.3821 306.095 54.2971 306.351 54.2871C306.616 54.2871 306.834 54.3721 307.005 54.5431C307.176 54.7141 307.261 54.9271 307.261 55.1831C307.261 55.2871 307.247 55.3821 307.218 55.4671C307.189 55.5521 307.156 55.6281 307.118 55.6941C307.08 55.7601 307.028 55.8171 306.962 55.8651C306.896 55.9131 306.839 55.9501 306.791 55.9791C306.743 56.0081 306.696 56.0261 306.649 56.0361C306.602 56.0451 306.564 56.0601 306.535 56.0791L306.478 56.0931C306.961 56.5191 307.549 56.7331 308.241 56.7331C308.762 56.7331 309.156 56.4821 309.421 55.9801C309.582 55.6671 309.663 55.1891 309.663 54.5441V54.2601C309.663 53.3601 309.36 52.7581 308.753 52.4551C308.611 52.3981 308.322 52.3651 307.886 52.3551L307.289 52.3411L307.246 52.3131C307.227 52.2851 307.218 52.2091 307.218 52.0861C307.218 51.9151 307.256 51.8301 307.332 51.8301C307.597 51.8301 307.872 51.8061 308.157 51.7591C308.479 51.7121 308.773 51.5131 309.038 51.1621C309.303 50.8111 309.436 50.2811 309.436 49.5701V49.4561C309.436 48.9161 309.27 48.5411 308.938 48.3331C308.729 48.2001 308.507 48.1341 308.27 48.1341C307.967 48.1341 307.687 48.1861 307.431 48.2901C307.175 48.3941 306.995 48.5031 306.891 48.6171C306.787 48.7311 306.735 48.7881 306.735 48.7881H306.778C306.806 48.7971 306.844 48.8071 306.892 48.8161C306.94 48.8251 306.987 48.8491 307.034 48.8871C307.081 48.9251 307.138 48.9581 307.205 48.9871C307.272 49.0161 307.319 49.0681 307.347 49.1431C307.375 49.2181 307.413 49.2901 307.461 49.3561C307.509 49.4221 307.523 49.5171 307.504 49.6401C307.504 49.8491 307.438 50.0331 307.305 50.1941C307.172 50.3551 306.959 50.4401 306.665 50.4501H306.663Z" fill="#F0F0F0"/>
<path d="M319.128 60.3102C319.128 60.1362 319.222 60.0022 319.41 59.9082H331.093C331.294 60.0152 331.395 60.1492 331.395 60.3102C331.395 60.4712 331.294 60.6052 331.093 60.7122H319.41C319.222 60.6182 319.128 60.4842 319.128 60.3102Z" fill="#F0F0F0"/>
<path d="M339.744 56.7094C339.382 56.7094 339.094 56.5884 338.879 56.3474C338.665 56.1064 338.557 55.8114 338.557 55.4624C338.557 54.5104 338.912 53.6864 339.623 52.9894C340.333 52.2924 341.218 51.9434 342.277 51.9434C343.497 51.9434 344.516 52.3184 345.333 53.0694C346.15 53.8204 346.566 54.7924 346.58 55.9854C346.58 56.5614 346.446 57.1114 346.178 57.6344C345.91 58.1574 345.588 58.6134 345.213 59.0014C344.838 59.3894 344.301 59.8864 343.604 60.4894C343.121 60.9054 342.451 61.5214 341.593 62.3394L340.407 63.4654L341.935 63.4854C344.04 63.4854 345.159 63.4514 345.293 63.3844C345.387 63.3574 345.548 62.7614 345.776 61.5944V61.5344H346.58V61.5944C346.567 61.6344 346.479 62.2444 346.319 63.4244C346.158 64.6044 346.058 65.2204 346.017 65.2744V65.3344H338.557V64.7114C338.557 64.6174 338.597 64.5174 338.678 64.4094C338.759 64.3014 338.96 64.0674 339.281 63.7054C339.67 63.2764 340.005 62.9014 340.286 62.5794C340.407 62.4454 340.635 62.1974 340.97 61.8354C341.305 61.4734 341.533 61.2254 341.654 61.0914C341.775 60.9574 341.969 60.7364 342.237 60.4274C342.505 60.1194 342.693 59.8914 342.8 59.7434C342.907 59.5964 343.061 59.3944 343.262 59.1404C343.463 58.8864 343.604 58.6714 343.684 58.4974C343.764 58.3234 343.865 58.1284 343.986 57.9144C344.107 57.7004 344.194 57.4854 344.247 57.2714C344.3 57.0574 344.348 56.8554 344.388 56.6684C344.428 56.4814 344.448 56.2594 344.448 56.0044C344.448 55.1594 344.22 54.4294 343.764 53.8124C343.308 53.1954 342.658 52.8874 341.814 52.8874C341.372 52.8874 340.983 53.0014 340.648 53.2294C340.313 53.4574 340.078 53.6784 339.944 53.8934C339.81 54.1084 339.743 54.2354 339.743 54.2754C339.743 54.2884 339.777 54.2954 339.844 54.2954C340.085 54.2954 340.333 54.3894 340.588 54.5774C340.843 54.7654 340.97 55.0734 340.97 55.5024C340.97 55.8374 340.863 56.1194 340.648 56.3474C340.433 56.5754 340.132 56.6964 339.743 56.7094H339.744Z" fill="#F0F0F0"/>
<path d="M348.129 57.595C348.035 57.501 347.988 57.434 347.988 57.394C347.988 57.34 348.008 57.233 348.048 57.072C348.088 56.911 348.122 56.817 348.149 56.79C348.176 56.723 348.236 56.689 348.33 56.689C348.424 56.689 348.766 56.682 349.355 56.669H350.421L350.803 55.06C350.843 54.913 350.89 54.718 350.944 54.477C350.998 54.236 351.045 54.061 351.085 53.954C351.125 53.847 351.165 53.713 351.206 53.552C351.247 53.391 351.3 53.277 351.367 53.21C351.434 53.143 351.501 53.063 351.568 52.969C351.635 52.875 351.729 52.815 351.85 52.788C351.971 52.761 352.091 52.748 352.212 52.748C352.453 52.761 352.621 52.835 352.715 52.969C352.809 53.103 352.856 53.23 352.856 53.351C352.856 53.445 352.796 53.76 352.675 54.296C352.554 54.832 352.42 55.362 352.273 55.884L352.072 56.628C352.072 56.655 352.407 56.668 353.077 56.668H354.102C354.196 56.762 354.243 56.836 354.243 56.889C354.243 57.184 354.156 57.419 353.982 57.593H351.83L351.106 60.509C350.583 62.654 350.322 63.807 350.322 63.968C350.322 64.531 350.503 64.813 350.865 64.813C351.334 64.813 351.79 64.585 352.232 64.129C352.674 63.673 353.03 63.11 353.298 62.44C353.325 62.36 353.358 62.313 353.399 62.299C353.44 62.285 353.54 62.272 353.701 62.259H353.781C353.982 62.259 354.083 62.313 354.083 62.42C354.083 62.46 354.063 62.541 354.023 62.661C353.956 62.875 353.835 63.13 353.661 63.425C353.487 63.72 353.259 64.035 352.977 64.37C352.695 64.705 352.354 64.987 351.952 65.215C351.55 65.443 351.141 65.557 350.725 65.557C350.323 65.557 349.941 65.456 349.579 65.255C349.217 65.054 348.956 64.705 348.795 64.209C348.768 64.102 348.755 63.921 348.755 63.666V63.304L349.459 60.489C349.928 58.599 350.169 57.647 350.183 57.634C350.183 57.607 349.841 57.594 349.158 57.594H348.133L348.129 57.595Z" fill="#F0F0F0"/>
<path d="M357.078 50.9325C356.822 50.9325 356.618 50.8475 356.467 50.6765C356.315 50.5055 356.24 50.2975 356.24 50.0505C356.24 49.3775 356.491 48.7945 356.993 48.3015C357.495 47.8085 358.121 47.5625 358.87 47.5625C359.732 47.5625 360.453 47.8275 361.031 48.3585C361.609 48.8895 361.903 49.5765 361.912 50.4195C361.912 50.8275 361.817 51.2155 361.628 51.5855C361.439 51.9555 361.211 52.2775 360.946 52.5525C360.681 52.8275 360.302 53.1785 359.809 53.6045C359.468 53.8985 358.994 54.3345 358.387 54.9125L357.548 55.7085L358.628 55.7225C360.116 55.7225 360.907 55.6985 361.002 55.6515C361.068 55.6325 361.182 55.2105 361.343 54.3865V54.3435H361.912V54.3865C361.903 54.4145 361.841 54.8465 361.727 55.6805C361.613 56.5145 361.542 56.9505 361.514 56.9885V57.0315H356.24V56.5905C356.24 56.5245 356.268 56.4535 356.325 56.3775C356.382 56.3015 356.524 56.1355 356.751 55.8795C357.026 55.5765 357.263 55.3105 357.462 55.0835C357.547 54.9885 357.708 54.8135 357.945 54.5575C358.182 54.3015 358.343 54.1265 358.428 54.0315C358.513 53.9365 358.651 53.7805 358.84 53.5625C359.03 53.3445 359.162 53.1835 359.238 53.0795C359.314 52.9755 359.423 52.8335 359.565 52.6535C359.707 52.4735 359.807 52.3215 359.864 52.1985C359.921 52.0755 359.992 51.9375 360.077 51.7865C360.162 51.6355 360.224 51.4835 360.262 51.3315C360.3 51.1795 360.333 51.0375 360.362 50.9055C360.391 50.7735 360.405 50.6165 360.405 50.4365C360.405 49.8395 360.244 49.3225 359.922 48.8865C359.6 48.4505 359.14 48.2325 358.543 48.2325C358.23 48.2325 357.955 48.3135 357.718 48.4745C357.481 48.6355 357.315 48.7915 357.22 48.9435C357.125 49.0955 357.078 49.1855 357.078 49.2135C357.078 49.2225 357.102 49.2275 357.149 49.2275C357.32 49.2275 357.495 49.2935 357.675 49.4265C357.855 49.5595 357.945 49.7775 357.945 50.0805C357.945 50.3175 357.869 50.5165 357.718 50.6775C357.567 50.8385 357.353 50.9235 357.078 50.9335V50.9325Z" fill="#F0F0F0"/>
<path d="M74.4994 11.6367H47.3944V58.1267H74.4994V11.6367Z" fill="black"/>
<path d="M54.4554 24.0509H54.7374C55.2604 24.0509 55.5754 23.9569 55.6824 23.7689V22.5219C55.6824 22.2939 55.6894 22.0329 55.7024 21.7379C55.7154 21.4429 55.7154 21.1619 55.7024 20.8929V19.5659C55.7024 19.0969 55.6954 18.7009 55.6824 18.3799V17.9169C55.6424 17.6619 55.5484 17.4949 55.4004 17.4139C55.2524 17.3329 54.9514 17.2729 54.4954 17.2329H54.1334V16.7699C54.1334 16.4619 54.1464 16.3069 54.1734 16.3069L54.3744 16.2869C54.5084 16.2739 54.6964 16.2599 54.9374 16.2469C55.1784 16.2339 55.4264 16.2199 55.6814 16.2069C55.9094 16.1939 56.1504 16.1799 56.4054 16.1669C56.6604 16.1539 56.8544 16.1329 56.9884 16.1069C57.1224 16.0809 57.1964 16.0729 57.2094 16.0869H57.2694V16.8909C57.2694 17.3999 57.2764 17.6549 57.2894 17.6549C57.3024 17.6549 57.3364 17.6209 57.3904 17.5539C57.4444 17.4869 57.5244 17.3859 57.6314 17.2519C57.7384 17.1179 57.8664 16.9969 58.0134 16.8899C58.1604 16.7829 58.3554 16.6549 58.5964 16.5079C58.8374 16.3609 59.0924 16.2529 59.3604 16.1859C59.6284 16.1189 59.9704 16.0849 60.3864 16.0849C60.5874 16.0849 60.7754 16.0979 60.9494 16.1249C61.1234 16.1519 61.2774 16.1919 61.4124 16.2459C61.5474 16.2999 61.6734 16.3529 61.7944 16.4069C61.9154 16.4609 62.0154 16.5209 62.0964 16.5879C62.1774 16.6549 62.2504 16.7289 62.3174 16.8089C62.3844 16.8889 62.4444 16.9629 62.4984 17.0299C62.5524 17.0969 62.5994 17.1709 62.6394 17.2509C62.6794 17.3309 62.7064 17.3979 62.7194 17.4519C62.7324 17.5059 62.7534 17.5589 62.7794 17.6129L62.8194 17.7139L62.8794 17.6339C62.9194 17.5799 62.9594 17.5269 63.0004 17.4729C63.0414 17.4189 63.1014 17.3459 63.1814 17.2519C63.2614 17.1579 63.3494 17.0709 63.4424 16.9909C63.5354 16.9109 63.6364 16.8229 63.7444 16.7299C63.8524 16.6369 63.9854 16.5559 64.1464 16.4889C64.3074 16.4219 64.4614 16.3549 64.6094 16.2879C64.7574 16.2209 64.9314 16.1739 65.1324 16.1469C65.3334 16.1199 65.5414 16.0999 65.7554 16.0869C67.4444 16.0869 68.3624 16.8439 68.5104 18.3589C68.5234 18.4529 68.5304 19.3849 68.5304 21.1539V22.8829C68.5304 23.3919 68.5434 23.6939 68.5704 23.7879C68.5974 23.8819 68.6714 23.9489 68.7914 23.9889C69.0734 24.0289 69.4014 24.0489 69.7764 24.0489H70.0984V24.9739H69.9374L69.4744 24.9539C69.1524 24.9409 68.8104 24.9339 68.4484 24.9339C68.0864 24.9339 67.8314 24.9269 67.6844 24.9139C66.3034 24.9139 65.5524 24.9339 65.4324 24.9739H65.2714V24.0489H65.5934C66.4114 24.0489 66.8204 23.9419 66.8204 23.7269C66.8334 23.6999 66.8404 22.7749 66.8404 20.9519C66.8274 19.1419 66.8134 18.1839 66.8004 18.0759C66.7204 17.7009 66.5864 17.4189 66.3984 17.2309C66.2104 17.0429 66.0494 16.9289 65.9154 16.8889C65.7814 16.8489 65.6074 16.8349 65.3924 16.8489C64.7894 16.8489 64.2594 17.0769 63.8034 17.5329C63.4414 17.8949 63.2134 18.2639 63.1194 18.6389C63.0254 19.0139 62.9724 19.5709 62.9584 20.3079V22.8019C62.9584 23.2039 62.9654 23.4719 62.9784 23.6059C62.9914 23.7399 63.0124 23.8269 63.0384 23.8669C63.0644 23.9069 63.1254 23.9469 63.2194 23.9879C63.5014 24.0279 63.8294 24.0479 64.2044 24.0479H64.5264V24.9729H64.3654L63.8824 24.9529C63.5744 24.9399 63.2394 24.9329 62.8774 24.9329C62.5154 24.9329 62.2604 24.9259 62.1134 24.9129C60.7324 24.9129 59.9814 24.9329 59.8614 24.9729H59.7004V24.0479H60.0224C60.8404 24.0479 61.2494 23.9409 61.2494 23.7259C61.2624 23.6989 61.2694 22.7739 61.2694 20.9509C61.2564 19.1409 61.2424 18.1829 61.2294 18.0749C61.1494 17.6999 61.0154 17.4179 60.8274 17.2299C60.6394 17.0419 60.4784 16.9279 60.3444 16.8879C60.2104 16.8479 60.0364 16.8339 59.8214 16.8479C59.2184 16.8479 58.6884 17.0759 58.2324 17.5319C57.8704 17.8939 57.6424 18.2629 57.5484 18.6379C57.4544 19.0129 57.4014 19.5699 57.3874 20.3069V22.8009C57.3874 23.2029 57.3944 23.4709 57.4074 23.6049C57.4204 23.7389 57.4414 23.8259 57.4674 23.8659C57.4934 23.9059 57.5544 23.9459 57.6484 23.9869C57.9304 24.0269 58.2584 24.0469 58.6334 24.0469H58.9554V24.9719H58.7944L58.3314 24.9519C58.0094 24.9389 57.6674 24.9319 57.3054 24.9319C56.9434 24.9319 56.6884 24.9249 56.5414 24.9119C55.1604 24.9119 54.4094 24.9319 54.2894 24.9719H54.1284V24.0469H54.4504L54.4554 24.0509Z" fill="#F0F0F0"/>
<path d="M63.9764 46.0105C63.9764 45.4745 63.7954 45.0115 63.4334 44.6225C63.0714 44.2335 62.5484 44.0395 61.8654 44.0395C61.3824 44.0395 60.9674 44.1265 60.6184 44.3005C60.2164 44.5555 60.0154 44.9035 60.0154 45.3465C60.0024 45.4135 60.0024 45.5005 60.0154 45.6075C60.0284 45.7145 60.1364 45.8755 60.3374 46.0905C60.5384 46.3055 60.8264 46.4725 61.2024 46.5935C61.4434 46.6605 61.7384 46.7205 62.0874 46.7745C62.4364 46.8285 62.7304 46.8885 62.9724 46.9555C63.2144 47.0225 63.4284 47.1095 63.6154 47.2165C63.8434 47.3235 64.0644 47.4575 64.2794 47.6185C64.4944 47.7795 64.7084 48.0545 64.9224 48.4425C65.1364 48.8305 65.2504 49.2465 65.2644 49.6895C65.2644 50.5205 65.0094 51.2045 64.5004 51.7405C63.9914 52.2765 63.1664 52.5515 62.0274 52.5645H61.8664C61.1694 52.5645 60.5254 52.3235 59.9364 51.8405L59.7754 51.9815L59.5944 52.1625C59.5144 52.2425 59.4334 52.3165 59.3534 52.3835L59.1324 52.5845H58.8914C58.8514 52.5845 58.7904 52.5445 58.7104 52.4635V49.7085C58.7104 49.4265 58.7234 49.2595 58.7504 49.2055C58.7774 49.1515 58.8444 49.1185 58.9514 49.1045H59.1324C59.2934 49.1045 59.4004 49.1315 59.4544 49.1845C59.5084 49.2375 59.5414 49.3185 59.5554 49.4255C59.5694 49.5325 59.6154 49.7135 59.6964 49.9685C59.7764 50.2235 59.9044 50.5045 60.0784 50.8135C60.5474 51.4975 61.1974 51.8395 62.0294 51.8395C63.3294 51.8395 63.9804 51.3165 63.9804 50.2715C63.9804 49.8825 63.8594 49.5675 63.6184 49.3265C63.3504 49.0045 62.7944 48.7635 61.9494 48.6025C61.1044 48.4415 60.5484 48.2875 60.2804 48.1395C59.7974 47.9115 59.4154 47.6035 59.1344 47.2145C58.8524 46.8255 58.7124 46.4105 58.7124 45.9675C58.7124 45.4445 58.8264 45.0025 59.0544 44.6405C59.2824 44.2785 59.5704 44.0105 59.9194 43.8365C60.2684 43.6625 60.6034 43.5415 60.9244 43.4745C61.2454 43.4075 61.5414 43.3735 61.8094 43.3735H62.0304C62.5664 43.3735 63.0354 43.4745 63.4384 43.6755L63.7404 43.8365L63.9214 43.6955C64.0554 43.5745 64.2034 43.4605 64.3634 43.3535H64.6044C64.6444 43.3535 64.7054 43.3935 64.7854 43.4745V46.1285L64.6644 46.2495H64.1014C64.0214 46.1695 63.9804 46.0885 63.9804 46.0085L63.9764 46.0105Z" fill="#F0F0F0"/>
<path d="M72.3924 32.9395H51.6194V34.1465H72.3924V32.9395Z" fill="#F0F0F0"/>
<path d="M568.366 408.568H557.099V429.208H568.366V408.568Z" fill="black"/>
<path d="M561.649 417.859C561.555 417.765 561.508 417.698 561.508 417.658C561.508 417.604 561.528 417.497 561.568 417.336C561.608 417.175 561.642 417.081 561.669 417.054C561.696 416.987 561.756 416.953 561.85 416.953C561.944 416.953 562.286 416.946 562.876 416.933H563.942L564.324 415.324C564.364 415.177 564.411 414.982 564.465 414.741C564.519 414.5 564.566 414.325 564.606 414.218C564.646 414.111 564.686 413.977 564.727 413.816C564.768 413.655 564.821 413.541 564.888 413.474C564.955 413.407 565.022 413.327 565.089 413.233C565.156 413.139 565.25 413.079 565.371 413.052C565.492 413.025 565.612 413.012 565.733 413.012C565.974 413.025 566.142 413.099 566.236 413.233C566.33 413.367 566.377 413.494 566.377 413.615C566.377 413.709 566.317 414.024 566.196 414.56C566.075 415.096 565.941 415.626 565.794 416.149L565.593 416.893C565.593 416.92 565.928 416.933 566.598 416.933H567.624C567.718 417.027 567.765 417.101 567.765 417.154C567.765 417.449 567.678 417.684 567.504 417.858H565.352L564.628 420.774C564.105 422.919 563.844 424.072 563.844 424.233C563.844 424.796 564.025 425.078 564.387 425.078C564.856 425.078 565.312 424.85 565.754 424.394C566.196 423.938 566.552 423.375 566.82 422.705C566.847 422.625 566.88 422.578 566.921 422.564C566.962 422.55 567.062 422.537 567.223 422.524H567.303C567.504 422.524 567.605 422.578 567.605 422.685C567.605 422.725 567.585 422.806 567.545 422.926C567.478 423.14 567.357 423.395 567.183 423.69C567.009 423.985 566.781 424.3 566.499 424.635C566.217 424.97 565.876 425.252 565.473 425.48C565.071 425.708 564.662 425.822 564.246 425.822C563.844 425.822 563.462 425.721 563.1 425.52C562.738 425.319 562.477 424.97 562.316 424.474C562.289 424.367 562.276 424.186 562.276 423.931V423.569L562.98 420.754C563.449 418.864 563.69 417.912 563.704 417.899C563.704 417.872 563.362 417.859 562.678 417.859H561.652H561.649Z" fill="#F0F0F0"/>
<path d="M380.536 423.5C382.469 423.5 384.036 421.933 384.036 420C384.036 418.067 382.469 416.5 380.536 416.5C378.603 416.5 377.036 418.067 377.036 420C377.036 421.933 378.603 423.5 380.536 423.5Z" fill="#F0F0F0"/>
<path d="M60.5364 420H534.501" stroke="#F0F0F0" stroke-miterlimit="10"/>
<path d="M540.536 419.999C537.696 421.053 534.173 422.851 531.989 424.755L533.709 419.999L531.989 415.244C534.173 417.148 537.697 418.946 540.536 419.999Z" fill="#F0F0F0"/>
<path d="M60.5364 420.001L61.5364 420.009L62.5364 420.034L63.5364 420.075L64.5364 420.132L65.5364 420.205L66.5364 420.294L67.5364 420.398L68.5364 420.517L69.5364 420.651L70.5364 420.8L71.5364 420.964L72.5364 421.142L73.5364 421.334L74.5364 421.54L75.5364 421.76L76.5364 421.993L77.5364 422.24L78.5364 422.5L79.5364 422.773L80.5364 423.058L81.5364 423.356L82.5364 423.666L83.5364 423.988L84.5364 424.322L85.5364 424.668L86.5364 425.025L87.5364 425.394L88.5364 425.774L89.5364 426.164L90.5364 426.565L91.5364 426.976L92.5364 427.398L93.5364 427.83L94.5364 428.271L95.5364 428.722L96.5364 429.182L97.5364 429.652L98.5364 430.131L99.5364 430.618L100.536 431.114L101.536 431.618L102.536 432.13L103.536 432.65L104.536 433.178L105.536 433.713L106.536 434.256L107.536 434.806L108.536 435.363L109.536 435.926L110.536 436.496L111.536 437.072L112.536 437.654L113.536 438.242L114.536 438.836L115.536 439.435L116.536 440.039L117.536 440.648L118.536 441.262L119.536 441.881L120.536 442.504L121.536 443.131L122.536 443.762L123.536 444.397L124.536 445.035L125.536 445.677L126.536 446.322L127.536 446.97L128.536 447.62L129.536 448.273L130.536 448.928L131.536 449.585L132.536 450.244L133.536 450.905L134.536 451.567L135.536 452.231L136.536 452.896L137.536 453.561L138.536 454.227L139.536 454.893L140.536 455.56L141.536 456.227L142.536 456.893L143.536 457.559L144.536 458.224L145.536 458.889L146.536 459.553L147.536 460.215L148.536 460.876L149.536 461.535L150.536 462.192L151.536 462.847L152.536 463.5L153.536 464.15L154.536 464.798L155.536 465.443L156.536 466.085L157.536 466.723L158.536 467.358L159.536 467.989L160.536 468.616L161.536 469.239L162.536 469.858L163.536 470.472L164.536 471.081L165.536 471.685L166.536 472.284L167.536 472.878L168.536 473.466L169.536 474.048L170.536 474.624L171.536 475.194L172.536 475.757L173.536 476.314L174.536 476.864L175.536 477.407L176.536 477.942L177.536 478.47L178.536 478.99L179.536 479.502L180.536 480.006L181.536 480.502L182.536 480.989L183.536 481.468L184.536 481.938L185.536 482.398L186.536 482.849L187.536 483.29L188.536 483.722L189.536 484.144L190.536 484.555L191.536 484.956L192.536 485.346L193.536 485.726L194.536 486.095L195.536 486.452L196.536 486.798L197.536 487.132L198.536 487.454L199.536 487.764L200.536 488.062L201.536 488.347L202.536 488.62L203.536 488.88L204.536 489.127L205.536 489.36L206.536 489.58L207.536 489.786L208.536 489.978L209.536 490.156L210.536 490.32L211.536 490.469L212.536 490.603L213.536 490.722L214.536 490.826L215.536 490.915L216.536 490.988L217.536 491.045L218.536 491.086L219.536 491.111L220.536 491.119L221.536 491.111L222.536 491.086L223.536 491.044L224.536 490.984L225.536 490.907L226.536 490.812L227.536 490.699L228.536 490.568L229.536 490.419L230.536 490.251L231.536 490.065L232.536 489.86L233.536 489.635L234.536 489.391L235.536 489.127L236.536 488.844L237.536 488.541L238.536 488.217L239.536 487.873L240.536 487.508L241.536 487.123L242.536 486.717L243.536 486.289L244.536 485.84L245.536 485.369L246.536 484.876L247.536 484.361L248.536 483.824L249.536 483.264L250.536 482.682L251.536 482.077L252.536 481.449L253.536 480.797L254.536 480.122L255.536 479.423L256.536 478.7L257.536 477.953L258.536 477.182L259.536 476.386L260.536 475.565L261.536 474.719L262.536 473.848L263.536 472.951L264.536 472.029L265.536 471.081L266.536 470.107L267.536 469.107L268.536 468.08L269.536 467.027L270.536 465.947L271.536 464.84L272.536 463.705L273.536 462.543L274.536 461.353L275.536 460.135L276.536 458.889L277.536 457.615L278.536 456.312L279.536 454.981L280.536 453.621L281.536 452.231L282.536 450.812L283.536 449.363L284.536 447.885L285.536 446.377L286.536 444.838L287.536 443.269L288.536 441.669L289.536 440.039L290.536 438.378L291.536 436.685L292.536 434.961L293.536 433.205L294.536 431.417L295.536 429.597L296.536 427.745L297.536 425.86L298.536 423.943L299.536 421.993L300.536 420.01L301.536 417.993L302.536 415.943L303.536 413.859L304.536 411.741L305.536 409.589L306.536 407.403L307.536 405.182L308.536 402.926L309.536 400.635L310.536 398.309L311.536 395.947L312.536 393.55L313.536 391.117L314.536 388.648L315.536 386.143L316.536 383.601L317.536 381.023L318.536 378.408L319.536 375.756L320.536 373.066L321.536 370.339L322.536 367.574L323.536 364.771L324.536 361.93L325.536 359.051L326.536 356.133L327.536 353.177L328.536 350.182L329.536 347.147L330.536 344.073L331.536 340.959L332.536 337.806L333.536 334.613L334.536 331.379L335.536 328.105L336.536 324.79L337.536 321.434L338.536 318.038L339.536 314.6L340.536 311.121L341.536 307.6L342.536 304.037L343.536 300.432L344.536 296.785L345.536 293.095L346.536 289.363L347.536 285.588L348.536 281.77L349.536 277.908L350.536 274.003L351.536 270.054L352.536 266.061L353.536 262.024L354.536 257.942L355.536 253.816L356.536 249.645L357.536 245.429L358.536 241.168L359.536 236.862L360.536 232.51L361.536 228.112L362.536 223.668L363.536 219.178L364.536 214.641L365.536 210.058L366.536 205.428L367.536 200.751L368.536 196.026L369.536 191.254L370.536 186.434L371.536 181.566L372.536 176.65L373.536 171.686L374.536 166.673L375.536 161.611L376.536 156.5L377.536 151.34L378.536 146.131L379.536 140.873L380.536 135.565L381.536 130.207L382.536 124.798L383.536 119.339L384.536 113.829L385.536 108.269L386.536 102.657L387.536 96.9938L388.536 91.2798L389.536 85.5138L390.536 79.6958L391.536 73.8258L392.536 67.9038L393.536 61.9288L393.855 60.0078" stroke="#6AB0F3" stroke-width="1.5" stroke-miterlimit="10"/>
<path d="M380.536 420V135.555" stroke="#F0F0F0" stroke-miterlimit="10"/>
<path d="M380.536 140.863C382.469 140.863 384.036 139.296 384.036 137.363C384.036 135.43 382.469 133.863 380.536 133.863C378.603 133.863 377.036 135.43 377.036 137.363C377.036 139.296 378.603 140.863 380.536 140.863Z" fill="#F0F0F0"/>
<path d="M367.336 454.559C366.976 454.559 366.376 454.552 365.536 454.539C364.71 454.525 364.063 454.519 363.596 454.519C361.876 454.519 360.783 454.532 360.316 454.559H360.016C359.936 454.479 359.89 454.425 359.876 454.399C359.876 454.359 359.896 454.232 359.936 454.019C359.99 453.845 360.056 453.719 360.136 453.639H360.696C361.496 453.639 362.036 453.619 362.316 453.579C362.543 453.565 362.71 453.525 362.816 453.459C362.83 453.445 362.843 453.439 362.856 453.439C362.923 453.399 362.99 453.265 363.056 453.039C363.123 452.799 363.39 451.752 363.856 449.899C364.083 448.992 364.27 448.252 364.416 447.679C365.35 444.012 365.816 442.139 365.816 442.059C365.816 441.992 365.623 441.959 365.236 441.959H364.616C363.723 441.959 363.136 441.999 362.856 442.079C362.283 442.199 361.85 442.432 361.556 442.779C361.196 443.179 360.803 443.992 360.376 445.219C360.283 445.512 360.216 445.685 360.176 445.739C360.136 445.792 360.043 445.819 359.896 445.819H359.836C359.663 445.819 359.556 445.799 359.516 445.759C359.476 445.719 359.456 445.685 359.456 445.659C359.456 445.579 359.656 444.939 360.056 443.739C360.35 442.819 360.596 442.085 360.796 441.539C360.876 441.285 360.963 441.112 361.056 441.019H370.416C372.19 441.045 373.083 441.085 373.096 441.139L373.116 441.159C373.116 441.185 373.116 441.205 373.116 441.219C373.116 441.299 372.996 442.059 372.756 443.499C372.53 444.939 372.41 445.665 372.396 445.679C372.396 445.719 372.37 445.752 372.316 445.779C372.29 445.805 372.19 445.819 372.016 445.819C371.936 445.819 371.87 445.819 371.816 445.819C371.776 445.805 371.75 445.799 371.736 445.799C371.723 445.785 371.703 445.765 371.676 445.739C371.65 445.699 371.63 445.672 371.616 445.659C371.616 445.565 371.636 445.385 371.676 445.119C371.796 444.399 371.856 443.872 371.856 443.539C371.856 443.232 371.816 442.979 371.736 442.779C371.656 442.579 371.563 442.425 371.456 442.319C371.363 442.212 371.183 442.132 370.916 442.079C370.663 442.025 370.443 441.992 370.256 441.979C370.07 441.965 369.763 441.952 369.336 441.939C368.723 441.939 368.33 441.952 368.156 441.979C367.996 441.992 367.883 442.039 367.816 442.119C367.803 442.132 367.33 443.999 366.396 447.719C365.463 451.425 364.996 453.305 364.996 453.359C364.996 453.452 365.083 453.512 365.256 453.539C365.443 453.592 365.943 453.625 366.756 453.639C367.21 453.639 367.476 453.645 367.556 453.659C367.65 453.672 367.71 453.712 367.736 453.779C367.75 453.819 367.736 453.932 367.696 454.119C367.683 454.159 367.67 454.205 367.656 454.259C367.656 454.299 367.65 454.332 367.636 454.359C367.636 454.372 367.63 454.399 367.616 454.439C367.603 454.465 367.59 454.485 367.576 454.499C367.576 454.499 367.57 454.505 367.556 454.519C367.543 454.532 367.523 454.545 367.496 454.559C367.483 454.559 367.463 454.559 367.436 454.559C367.41 454.559 367.376 454.559 367.336 454.559ZM376.836 447.619C376.836 447.445 376.929 447.312 377.116 447.219H389.856C390.056 447.312 390.156 447.445 390.156 447.619C390.156 447.765 390.063 447.892 389.876 447.999L383.516 448.019H377.156C376.943 447.952 376.836 447.819 376.836 447.619ZM376.836 451.499C376.836 451.299 376.943 451.165 377.156 451.099H389.876C389.889 451.112 389.916 451.139 389.956 451.179C390.009 451.205 390.043 451.232 390.056 451.259C390.083 451.272 390.103 451.305 390.116 451.359C390.143 451.399 390.156 451.445 390.156 451.499C390.156 451.672 390.056 451.805 389.856 451.899H377.116C376.929 451.805 376.836 451.672 376.836 451.499ZM399.222 443.979C399.022 444.179 398.769 444.279 398.462 444.279C398.156 444.279 397.896 444.185 397.682 443.999C397.482 443.799 397.382 443.545 397.382 443.239C397.382 442.279 397.782 441.565 398.582 441.099C399.102 440.752 399.662 440.545 400.262 440.479C400.289 440.479 400.362 440.479 400.482 440.479C400.602 440.465 400.696 440.459 400.762 440.459H400.842C402.616 440.459 403.769 440.985 404.302 442.039C404.502 442.425 404.602 442.819 404.602 443.219C404.602 444.059 404.236 444.759 403.502 445.319C402.249 446.212 401.489 447.272 401.222 448.499C401.156 448.819 401.122 449.232 401.122 449.739C401.122 450.112 401.116 450.339 401.102 450.419C401.089 450.499 401.056 450.552 401.002 450.579C400.962 450.592 400.869 450.599 400.722 450.599C400.509 450.599 400.382 450.565 400.342 450.499C400.329 450.472 400.322 450.165 400.322 449.579C400.336 448.779 400.389 448.165 400.482 447.739C400.589 447.312 400.776 446.825 401.042 446.279C401.336 445.719 401.676 445.225 402.062 444.799C402.302 444.545 402.456 444.319 402.522 444.119C402.589 443.905 402.622 443.559 402.622 443.079V442.819C402.622 442.219 402.476 441.799 402.182 441.559C401.902 441.319 401.442 441.199 400.802 441.199C400.056 441.199 399.436 441.385 398.942 441.759L398.562 442.139C398.602 442.152 398.649 442.165 398.702 442.179C399.249 442.325 399.522 442.672 399.522 443.219C399.522 443.525 399.422 443.779 399.222 443.979ZM400.762 452.139C401.096 452.165 401.369 452.285 401.582 452.499C401.796 452.699 401.902 452.979 401.902 453.339C401.902 453.819 401.722 454.159 401.362 454.359C401.189 454.479 400.976 454.539 400.722 454.539C400.176 454.539 399.789 454.272 399.562 453.739C399.536 453.659 399.522 453.525 399.522 453.339C399.522 452.965 399.636 452.672 399.862 452.459C400.102 452.245 400.402 452.139 400.762 452.139Z" fill="white"/>
</g>
<defs>
<clipPath id="clip0_965_174">
<rect width="600" height="600" fill="white" transform="translate(0.536377)"/>
</clipPath>
</defs>
</svg>
