<svg xmlns="http://www.w3.org/2000/svg" width="360" height="320" viewBox="0 0 360 320">
  <rect width="360" height="320"/>
  <g>
    <circle cx="180.3" cy="160" r="3.5" style="fill: #fff"/>
    <path d="M180,249a89,89,0,1,0-89-89A89,89,0,0,0,180,249Z" style="fill: #1c758a;opacity: 0.5"/>
    <path d="M180.3,88v72" style="fill: none;stroke: #e65a4c;stroke-width: 1.600000023841858px"/>
    <circle cx="180.3" cy="160" r="3.5" style="fill: #8ebac3"/>
  </g>
  <g>
    <path d="M180,72a88,88,0,1,1-88,88A88.13,88.13,0,0,1,180,72Zm0-2a90,90,0,1,0,90,90A90.007,90.007,0,0,0,180,70Z" style="fill: #fff"/>
    <path d="M224.5,237c11.5-6.5,18.6-20.6,18.7-40.6.1-40-28.1-88.9-62.9-109-17.8-10.3-34-11.1-45.5-4" style="fill: none;stroke: #fff;stroke-miterlimit: 10;stroke-width: 1.5px"/>
    <path d="M134.4,236.3c-10.8-6.8-17.5-20.6-17.5-39.9-.1-40,28.1-88.9,62.9-109,17.4-10,33.2-11,44.7-4.5" style="fill: none;stroke: #fff;stroke-miterlimit: 10;stroke-width: 1.5px"/>
    <path d="M268.9,157.9c1,13.9-7.5,27.9-25.7,38.5-34.6,20.1-91,20.1-125.9,0-18.3-10.6-27-24.6-26.2-38.5" style="fill: none;stroke: #fff;stroke-miterlimit: 10;stroke-width: 1.5px"/>
    <path d="M91.414,163.5c-1-13.9,7.5-27.9,25.7-38.5,34.6-20.1,91-20.1,125.9,0,18.3,10.6,27,24.6,26.2,38.5" style="fill: none;stroke: #fff;stroke-miterlimit: 10;stroke-width: 1.5px;opacity: 0.15"/>
    <path d="M193.411,122.9a1.006,1.006,0,0,0-.488-.3,10.034,10.034,0,0,0-1.262-.075h-.826v-1.15h4.375q4.651.025,5.125.1a3.264,3.264,0,0,0,.326.075,7.075,7.075,0,0,1,2,.7,4.532,4.532,0,0,1,2.724,3.275,2.211,2.211,0,0,1,.026.4,3.341,3.341,0,0,1-1.063,2.45,6.33,6.33,0,0,1-2.513,1.525.421.421,0,0,1-.112.037.447.447,0,0,0-.112.038l-.05.025a.8.8,0,0,0,.274.15,4.241,4.241,0,0,1,2.226,2.65q.024.1.274,1.65t.276,1.65a4.136,4.136,0,0,0,.437,1.325,1.313,1.313,0,0,0,.688.575,1.142,1.142,0,0,0,.425.05h.125a.836.836,0,0,0,.6-.275,2.287,2.287,0,0,0,.575-1.5.534.534,0,0,1,.088-.363.638.638,0,0,1,.412-.087.866.866,0,0,1,.4.062c.066.042.1.146.1.313a3.142,3.142,0,0,1-.437,1.637,2.374,2.374,0,0,1-1.063,1.013,3.041,3.041,0,0,1-1.049.15q-3.726-.15-4.3-2.8a17.669,17.669,0,0,1-.063-1.825,9.319,9.319,0,0,0-.163-2.075,2.791,2.791,0,0,0-.737-1.163,2.917,2.917,0,0,0-1.162-.687l-.25-.05-1.651-.025h-1.649v3.275l.024,3.275a.689.689,0,0,0,.438.3,11.13,11.13,0,0,0,1.288.075h.824v1.15h-.274q-.4-.075-3.55-.075-3.176,0-3.575.075h-.276V137.3h.826a10.246,10.246,0,0,0,1.262-.075,1.021,1.021,0,0,0,.488-.3Zm9,2.075A2.39,2.39,0,0,0,201.073,123a8.719,8.719,0,0,0-3.313-.475q-.375,0-.849.012l-.5.013c-.217.016-.35.083-.4.2a31.168,31.168,0,0,0-.074,3.4v3.3h1.449a17.047,17.047,0,0,0,2.776-.163,2.92,2.92,0,0,0,1.575-.837,2.073,2.073,0,0,0,.562-.95,6.431,6.431,0,0,0,.138-1.525C202.436,125.441,202.427,125.108,202.411,124.975Z" style="fill: #fc6255"/>
  </g>
</svg>
