<svg width="600" height="400" viewBox="0 0 600 400" fill="none" xmlns="http://www.w3.org/2000/svg">
<g clip-path="url(#clip0_197_406)">
<path d="M600 0H0V400H600V0Z" fill="white"/>
<path d="M46.92 367.3C47.6667 366.22 48.6867 365.68 49.98 365.68C50.9533 365.68 51.8067 366.013 52.54 366.68C52.9 367.027 53.2067 367.48 53.46 368.04C53.9533 369.147 54.2 370.667 54.2 372.6C54.2 374.667 53.9133 376.247 53.34 377.34C52.9667 378.113 52.42 378.673 51.7 379.02C51.14 379.3 50.5733 379.44 50 379.44C48.4667 379.44 47.3467 378.74 46.64 377.34C46.0667 376.247 45.78 374.667 45.78 372.6C45.78 371.36 45.86 370.34 46.02 369.54C46.1933 368.727 46.4933 367.98 46.92 367.3ZM51.42 367.06C51.0333 366.633 50.56 366.42 50 366.42C49.44 366.42 48.96 366.633 48.56 367.06C48.2667 367.367 48.0667 367.74 47.96 368.18C47.8533 368.62 47.7867 369.38 47.76 370.46C47.76 370.54 47.7533 370.8 47.74 371.24C47.74 371.68 47.74 372.047 47.74 372.34C47.74 373.62 47.7533 374.513 47.78 375.02C47.8333 375.953 47.9133 376.627 48.02 377.04C48.1267 377.44 48.3267 377.787 48.62 378.08C48.98 378.48 49.44 378.68 50 378.68C50.5467 378.68 51 378.48 51.36 378.08C51.6533 377.787 51.8533 377.44 51.96 377.04C52.0667 376.627 52.1467 375.953 52.2 375.02C52.2267 374.513 52.24 373.62 52.24 372.34C52.24 372.047 52.2333 371.68 52.22 371.24C52.22 370.8 52.22 370.54 52.22 370.46C52.1933 369.38 52.1267 368.62 52.02 368.18C51.9133 367.74 51.7133 367.367 51.42 367.06Z" fill="#333333"/>
<path d="M297.14 374.72C297.46 374.72 297.727 374.833 297.94 375.06C298.167 375.273 298.28 375.547 298.28 375.88C298.28 376.187 298.167 376.447 297.94 376.66C297.713 376.873 297.46 376.98 297.18 376.98H297.04L297.1 377.08C297.3 377.507 297.607 377.86 298.02 378.14C298.433 378.42 298.92 378.56 299.48 378.56C300.427 378.56 301.107 378.16 301.52 377.36C301.773 376.867 301.9 376.013 301.9 374.8C301.9 373.427 301.72 372.5 301.36 372.02C301.013 371.58 300.587 371.36 300.08 371.36C299.04 371.36 298.253 371.813 297.72 372.72C297.667 372.813 297.613 372.873 297.56 372.9C297.52 372.913 297.427 372.92 297.28 372.92C297.053 372.92 296.927 372.88 296.9 372.8C296.873 372.747 296.86 371.58 296.86 369.3C296.86 368.9 296.853 368.427 296.84 367.88C296.84 367.333 296.84 366.987 296.84 366.84C296.84 366.093 296.88 365.72 296.96 365.72C296.987 365.693 297.013 365.68 297.04 365.68L297.4 365.8C298.267 366.147 299.153 366.32 300.06 366.32C301.007 366.32 301.913 366.133 302.78 365.76C302.887 365.707 302.973 365.68 303.04 365.68C303.147 365.68 303.2 365.8 303.2 366.04V366.3C302.12 367.593 300.753 368.24 299.1 368.24C298.687 368.24 298.313 368.2 297.98 368.12L297.78 368.08V371.52C298.54 370.907 299.32 370.6 300.12 370.6C300.373 370.6 300.647 370.633 300.94 370.7C301.833 370.927 302.56 371.433 303.12 372.22C303.693 373.007 303.98 373.927 303.98 374.98C303.98 376.193 303.553 377.24 302.7 378.12C301.86 379 300.82 379.44 299.58 379.44C298.74 379.44 298.027 379.207 297.44 378.74C297.187 378.58 296.967 378.36 296.78 378.08C296.26 377.453 296 376.733 296 375.92C296 375.547 296.107 375.253 296.32 375.04C296.533 374.827 296.807 374.72 297.14 374.72Z" fill="#333333"/>
<path d="M548.32 379C548.093 378.96 547.033 378.94 545.14 378.94C543.273 378.94 542.227 378.96 542 379H541.76V378.08H542.28C543.053 378.08 543.553 378.06 543.78 378.02C543.887 378.007 544.047 377.927 544.26 377.78V367.44C544.233 367.44 544.18 367.46 544.1 367.5C543.487 367.74 542.8 367.867 542.04 367.88H541.66V366.96H542.04C543.16 366.92 544.093 366.667 544.84 366.2C545.08 366.067 545.287 365.913 545.46 365.74C545.487 365.7 545.567 365.68 545.7 365.68C545.833 365.68 545.947 365.72 546.04 365.8V371.78L546.06 377.78C546.26 377.98 546.693 378.08 547.36 378.08H548.02H548.54V379H548.32ZM551.92 367.3C552.667 366.22 553.687 365.68 554.98 365.68C555.953 365.68 556.807 366.013 557.54 366.68C557.9 367.027 558.207 367.48 558.46 368.04C558.953 369.147 559.2 370.667 559.2 372.6C559.2 374.667 558.913 376.247 558.34 377.34C557.967 378.113 557.42 378.673 556.7 379.02C556.14 379.3 555.573 379.44 555 379.44C553.467 379.44 552.347 378.74 551.64 377.34C551.067 376.247 550.78 374.667 550.78 372.6C550.78 371.36 550.86 370.34 551.02 369.54C551.193 368.727 551.493 367.98 551.92 367.3ZM556.42 367.06C556.033 366.633 555.56 366.42 555 366.42C554.44 366.42 553.96 366.633 553.56 367.06C553.267 367.367 553.067 367.74 552.96 368.18C552.853 368.62 552.787 369.38 552.76 370.46C552.76 370.54 552.753 370.8 552.74 371.24C552.74 371.68 552.74 372.047 552.74 372.34C552.74 373.62 552.753 374.513 552.78 375.02C552.833 375.953 552.913 376.627 553.02 377.04C553.127 377.44 553.327 377.787 553.62 378.08C553.98 378.48 554.44 378.68 555 378.68C555.547 378.68 556 378.48 556.36 378.08C556.653 377.787 556.853 377.44 556.96 377.04C557.067 376.627 557.147 375.953 557.2 375.02C557.227 374.513 557.24 373.62 557.24 372.34C557.24 372.047 557.233 371.68 557.22 371.24C557.22 370.8 557.22 370.54 557.22 370.46C557.193 369.38 557.127 368.62 557.02 368.18C556.913 367.74 556.713 367.367 556.42 367.06Z" fill="#333333"/>
<path d="M21.92 342.3C22.6667 341.22 23.6867 340.68 24.98 340.68C25.9533 340.68 26.8067 341.013 27.54 341.68C27.9 342.027 28.2067 342.48 28.46 343.04C28.9533 344.147 29.2 345.667 29.2 347.6C29.2 349.667 28.9133 351.247 28.34 352.34C27.9667 353.113 27.42 353.673 26.7 354.02C26.14 354.3 25.5733 354.44 25 354.44C23.4667 354.44 22.3467 353.74 21.64 352.34C21.0667 351.247 20.78 349.667 20.78 347.6C20.78 346.36 20.86 345.34 21.02 344.54C21.1933 343.727 21.4933 342.98 21.92 342.3ZM26.42 342.06C26.0333 341.633 25.56 341.42 25 341.42C24.44 341.42 23.96 341.633 23.56 342.06C23.2667 342.367 23.0667 342.74 22.96 343.18C22.8533 343.62 22.7867 344.38 22.76 345.46C22.76 345.54 22.7533 345.8 22.74 346.24C22.74 346.68 22.74 347.047 22.74 347.34C22.74 348.62 22.7533 349.513 22.78 350.02C22.8333 350.953 22.9133 351.627 23.02 352.04C23.1267 352.44 23.3267 352.787 23.62 353.08C23.98 353.48 24.44 353.68 25 353.68C25.5467 353.68 26 353.48 26.36 353.08C26.6533 352.787 26.8533 352.44 26.96 352.04C27.0667 351.627 27.1467 350.953 27.2 350.02C27.2267 349.513 27.24 348.62 27.24 347.34C27.24 347.047 27.2333 346.68 27.22 346.24C27.22 345.8 27.22 345.54 27.22 345.46C27.1933 344.38 27.1267 343.62 27.02 343.18C26.9133 342.74 26.7133 342.367 26.42 342.06Z" fill="#333333"/>
<path d="M23.32 254C23.0933 253.96 22.0333 253.94 20.14 253.94C18.2733 253.94 17.2267 253.96 17 254H16.76V253.08H17.28C18.0533 253.08 18.5533 253.06 18.78 253.02C18.8867 253.007 19.0467 252.927 19.26 252.78V242.44C19.2333 242.44 19.18 242.46 19.1 242.5C18.4867 242.74 17.8 242.867 17.04 242.88H16.66V241.96H17.04C18.16 241.92 19.0933 241.667 19.84 241.2C20.08 241.067 20.2867 240.913 20.46 240.74C20.4867 240.7 20.5667 240.68 20.7 240.68C20.8333 240.68 20.9467 240.72 21.04 240.8V246.78L21.06 252.78C21.26 252.98 21.6933 253.08 22.36 253.08H23.02H23.54V254H23.32ZM26.92 242.3C27.6667 241.22 28.6867 240.68 29.98 240.68C30.9533 240.68 31.8067 241.013 32.54 241.68C32.9 242.027 33.2067 242.48 33.46 243.04C33.9533 244.147 34.2 245.667 34.2 247.6C34.2 249.667 33.9133 251.247 33.34 252.34C32.9667 253.113 32.42 253.673 31.7 254.02C31.14 254.3 30.5733 254.44 30 254.44C28.4667 254.44 27.3467 253.74 26.64 252.34C26.0667 251.247 25.78 249.667 25.78 247.6C25.78 246.36 25.86 245.34 26.02 244.54C26.1933 243.727 26.4933 242.98 26.92 242.3ZM31.42 242.06C31.0333 241.633 30.56 241.42 30 241.42C29.44 241.42 28.96 241.633 28.56 242.06C28.2667 242.367 28.0667 242.74 27.96 243.18C27.8533 243.62 27.7867 244.38 27.76 245.46C27.76 245.54 27.7533 245.8 27.74 246.24C27.74 246.68 27.74 247.047 27.74 247.34C27.74 248.62 27.7533 249.513 27.78 250.02C27.8333 250.953 27.9133 251.627 28.02 252.04C28.1267 252.44 28.3267 252.787 28.62 253.08C28.98 253.48 29.44 253.68 30 253.68C30.5467 253.68 31 253.48 31.36 253.08C31.6533 252.787 31.8533 252.44 31.96 252.04C32.0667 251.627 32.1467 250.953 32.2 250.02C32.2267 249.513 32.24 248.62 32.24 247.34C32.24 247.047 32.2333 246.68 32.22 246.24C32.22 245.8 32.22 245.54 32.22 245.46C32.1933 244.38 32.1267 243.62 32.02 243.18C31.9133 242.74 31.7133 242.367 31.42 242.06Z" fill="#333333"/>
<path d="M17.2 145.42C16.8267 145.42 16.5333 145.3 16.32 145.06C16.1067 144.82 16 144.527 16 144.18C16 143.22 16.36 142.4 17.08 141.72C17.8133 141.027 18.6867 140.68 19.7 140.68C20.8467 140.68 21.7933 140.993 22.54 141.62C23.3 142.233 23.7667 143.04 23.94 144.04C23.9667 144.28 23.98 144.5 23.98 144.7C23.98 145.473 23.7467 146.2 23.28 146.88C22.9067 147.44 22.1533 148.207 21.02 149.18C20.54 149.593 19.8733 150.207 19.02 151.02L17.84 152.14L19.36 152.16C21.4533 152.16 22.5667 152.127 22.7 152.06C22.7533 152.047 22.82 151.907 22.9 151.64C22.9533 151.493 23.0467 151.04 23.18 150.28V150.22H23.98V150.28L23.42 153.94V154H16V153.62C16 153.353 16.0133 153.2 16.04 153.16C16.0533 153.133 16.6133 152.5 17.72 151.26C19.1733 149.647 20.1067 148.58 20.52 148.06C21.4133 146.847 21.86 145.733 21.86 144.72C21.86 143.84 21.6267 143.107 21.16 142.52C20.7067 141.92 20.0667 141.62 19.24 141.62C18.4667 141.62 17.84 141.967 17.36 142.66C17.3333 142.713 17.2933 142.787 17.24 142.88C17.2 142.947 17.18 142.987 17.18 143C17.18 143.013 17.2133 143.02 17.28 143.02C17.6133 143.02 17.88 143.14 18.08 143.38C18.2933 143.62 18.4 143.9 18.4 144.22C18.4 144.553 18.2867 144.84 18.06 145.08C17.8467 145.307 17.56 145.42 17.2 145.42ZM26.92 142.3C27.6667 141.22 28.6867 140.68 29.98 140.68C30.9533 140.68 31.8067 141.013 32.54 141.68C32.9 142.027 33.2067 142.48 33.46 143.04C33.9533 144.147 34.2 145.667 34.2 147.6C34.2 149.667 33.9133 151.247 33.34 152.34C32.9667 153.113 32.42 153.673 31.7 154.02C31.14 154.3 30.5733 154.44 30 154.44C28.4667 154.44 27.3467 153.74 26.64 152.34C26.0667 151.247 25.78 149.667 25.78 147.6C25.78 146.36 25.86 145.34 26.02 144.54C26.1933 143.727 26.4933 142.98 26.92 142.3ZM31.42 142.06C31.0333 141.633 30.56 141.42 30 141.42C29.44 141.42 28.96 141.633 28.56 142.06C28.2667 142.367 28.0667 142.74 27.96 143.18C27.8533 143.62 27.7867 144.38 27.76 145.46C27.76 145.54 27.7533 145.8 27.74 146.24C27.74 146.68 27.74 147.047 27.74 147.34C27.74 148.62 27.7533 149.513 27.78 150.02C27.8333 150.953 27.9133 151.627 28.02 152.04C28.1267 152.44 28.3267 152.787 28.62 153.08C28.98 153.48 29.44 153.68 30 153.68C30.5467 153.68 31 153.48 31.36 153.08C31.6533 152.787 31.8533 152.44 31.96 152.04C32.0667 151.627 32.1467 150.953 32.2 150.02C32.2267 149.513 32.24 148.62 32.24 147.34C32.24 147.047 32.2333 146.68 32.22 146.24C32.22 145.8 32.22 145.54 32.22 145.46C32.1933 144.38 32.1267 143.62 32.02 143.18C31.9133 142.74 31.7133 142.367 31.42 142.06Z" fill="#333333"/>
<path d="M17.54 44.74C17.18 44.74 16.8933 44.6267 16.68 44.4C16.48 44.1733 16.38 43.88 16.38 43.52C16.38 42.76 16.68 42.1267 17.28 41.62C17.88 41.1 18.5733 40.7933 19.36 40.7H19.66C20.5 40.7 21.24 40.8467 21.88 41.14C22.76 41.58 23.3133 42.2067 23.54 43.02C23.58 43.1533 23.6 43.3333 23.6 43.56C23.6 44.3467 23.3533 45.0533 22.86 45.68C22.38 46.2933 21.7733 46.7333 21.04 47C20.9733 47.0267 20.9733 47.0467 21.04 47.06C21.0667 47.0733 21.1333 47.0933 21.24 47.12C22.0533 47.3467 22.74 47.7733 23.3 48.4C23.86 49.0133 24.14 49.7133 24.14 50.5C24.14 51.1933 23.96 51.8267 23.6 52.4C23.2533 52.9733 22.8067 53.42 22.26 53.74C21.5133 54.2067 20.68 54.44 19.76 54.44C18.88 54.44 18.1 54.2533 17.42 53.88C16.74 53.5067 16.28 53.0067 16.04 52.38C15.9067 52.1 15.84 51.7733 15.84 51.4C15.84 51.0267 15.96 50.7267 16.2 50.5C16.4533 50.26 16.7533 50.14 17.1 50.14C17.4733 50.14 17.78 50.26 18.02 50.5C18.26 50.74 18.38 51.04 18.38 51.4C18.38 51.7067 18.2933 51.9733 18.12 52.2C17.9467 52.4267 17.7133 52.5733 17.42 52.64L17.28 52.68C18 53.28 18.8267 53.58 19.76 53.58C20.4933 53.58 21.0467 53.2267 21.42 52.52C21.6467 52.08 21.76 51.4067 21.76 50.5V50.1C21.76 48.8333 21.3333 47.9867 20.48 47.56C20.28 47.48 19.8733 47.4333 19.26 47.42L18.42 47.4L18.36 47.36C18.3333 47.32 18.32 47.2133 18.32 47.04C18.32 46.88 18.34 46.78 18.38 46.74C18.42 46.7 18.4533 46.68 18.48 46.68C18.8533 46.68 19.24 46.6467 19.64 46.58C20.2267 46.5 20.6733 46.1733 20.98 45.6C21.2867 45.0133 21.44 44.3133 21.44 43.5C21.44 42.6333 21.2067 42.0533 20.74 41.76C20.46 41.5733 20.1467 41.48 19.8 41.48C19.1333 41.48 18.5467 41.66 18.04 42.02C17.9867 42.0467 17.9267 42.0933 17.86 42.16C17.7933 42.2133 17.74 42.2667 17.7 42.32L17.64 42.4C17.68 42.4133 17.7267 42.4267 17.78 42.44C18.0467 42.4667 18.2667 42.5933 18.44 42.82C18.6267 43.0467 18.72 43.3067 18.72 43.6C18.72 43.92 18.6067 44.1933 18.38 44.42C18.1667 44.6333 17.8867 44.74 17.54 44.74ZM26.92 42.3C27.6667 41.22 28.6867 40.68 29.98 40.68C30.9533 40.68 31.8067 41.0133 32.54 41.68C32.9 42.0267 33.2067 42.48 33.46 43.04C33.9533 44.1467 34.2 45.6667 34.2 47.6C34.2 49.6667 33.9133 51.2467 33.34 52.34C32.9667 53.1133 32.42 53.6733 31.7 54.02C31.14 54.3 30.5733 54.44 30 54.44C28.4667 54.44 27.3467 53.74 26.64 52.34C26.0667 51.2467 25.78 49.6667 25.78 47.6C25.78 46.36 25.86 45.34 26.02 44.54C26.1933 43.7267 26.4933 42.98 26.92 42.3ZM31.42 42.06C31.0333 41.6333 30.56 41.42 30 41.42C29.44 41.42 28.96 41.6333 28.56 42.06C28.2667 42.3667 28.0667 42.74 27.96 43.18C27.8533 43.62 27.7867 44.38 27.76 45.46C27.76 45.54 27.7533 45.8 27.74 46.24C27.74 46.68 27.74 47.0467 27.74 47.34C27.74 48.62 27.7533 49.5133 27.78 50.02C27.8333 50.9533 27.9133 51.6267 28.02 52.04C28.1267 52.44 28.3267 52.7867 28.62 53.08C28.98 53.48 29.44 53.68 30 53.68C30.5467 53.68 31 53.48 31.36 53.08C31.6533 52.7867 31.8533 52.44 31.96 52.04C32.0667 51.6267 32.1467 50.9533 32.2 50.02C32.2267 49.5133 32.24 48.62 32.24 47.34C32.24 47.0467 32.2333 46.68 32.22 46.24C32.22 45.8 32.22 45.54 32.22 45.46C32.1933 44.38 32.1267 43.62 32.02 43.18C31.9133 42.74 31.7133 42.3667 31.42 42.06Z" fill="#333333"/>
<path d="M50 50V350" stroke="#F0F0F0"/>
<path d="M100 50V350" stroke="#F0F0F0"/>
<path d="M150 50V350" stroke="#F0F0F0"/>
<path d="M200 50V350" stroke="#F0F0F0"/>
<path d="M250 50V350" stroke="#F0F0F0"/>
<path d="M300 50V350" stroke="#F0F0F0"/>
<path d="M350 50V350" stroke="#F0F0F0"/>
<path d="M400 50V350" stroke="#F0F0F0"/>
<path d="M450 50V350" stroke="#F0F0F0"/>
<path d="M500 50V350" stroke="#F0F0F0"/>
<path d="M550 50V350" stroke="#F0F0F0"/>
<path d="M50 50H550" stroke="#F0F0F0"/>
<path d="M50 60H550" stroke="#F0F0F0"/>
<path d="M50 70H550" stroke="#F0F0F0"/>
<path d="M50 80H550" stroke="#F0F0F0"/>
<path d="M50 90H550" stroke="#F0F0F0"/>
<path d="M50 100H550" stroke="#F0F0F0"/>
<path d="M50 110H550" stroke="#F0F0F0"/>
<path d="M50 120H550" stroke="#F0F0F0"/>
<path d="M50 130H550" stroke="#F0F0F0"/>
<path d="M50 140H550" stroke="#F0F0F0"/>
<path d="M50 150H550" stroke="#F0F0F0"/>
<path d="M50 160H550" stroke="#F0F0F0"/>
<path d="M50 170H550" stroke="#F0F0F0"/>
<path d="M50 180H550" stroke="#F0F0F0"/>
<path d="M50 190H550" stroke="#F0F0F0"/>
<path d="M50 200H550" stroke="#F0F0F0"/>
<path d="M50 210H550" stroke="#F0F0F0"/>
<path d="M50 220H550" stroke="#F0F0F0"/>
<path d="M50 230H550" stroke="#F0F0F0"/>
<path d="M50 240H550" stroke="#F0F0F0"/>
<path d="M50 250H550" stroke="#F0F0F0"/>
<path d="M50 260H550" stroke="#F0F0F0"/>
<path d="M50 270H550" stroke="#F0F0F0"/>
<path d="M50 280H550" stroke="#F0F0F0"/>
<path d="M50 290H550" stroke="#F0F0F0"/>
<path d="M50 300H550" stroke="#F0F0F0"/>
<path d="M50 310H550" stroke="#F0F0F0"/>
<path d="M50 320H550" stroke="#F0F0F0"/>
<path d="M50 330H550" stroke="#F0F0F0"/>
<path d="M50 340H550" stroke="#F0F0F0"/>
<path d="M50 350H550" stroke="#F0F0F0"/>
<path d="M50 50V350" stroke="#D0D0D0"/>
<path d="M300 50V350" stroke="#D0D0D0"/>
<path d="M550 50V350" stroke="#D0D0D0"/>
<path d="M50 50H550" stroke="#D0D0D0"/>
<path d="M50 100H550" stroke="#D0D0D0"/>
<path d="M50 150H550" stroke="#D0D0D0"/>
<path d="M50 200H550" stroke="#D0D0D0"/>
<path d="M50 250H550" stroke="#D0D0D0"/>
<path d="M50 300H550" stroke="#D0D0D0"/>
<path d="M50 350H550" stroke="#D0D0D0"/>
<path d="M50 50V350" stroke="#A0A0A0"/>
<path d="M550 50V350" stroke="#A0A0A0"/>
<path d="M50 50H550" stroke="#A0A0A0"/>
<path d="M50 150H550" stroke="#A0A0A0"/>
<path d="M50 250H550" stroke="#A0A0A0"/>
<path d="M50 350H550" stroke="#A0A0A0"/>
<path d="M50 350.003L50.6944 348.894L51.3889 347.789L52.0833 346.688L52.7778 345.59L53.4722 344.496L54.1667 343.406L54.8611 342.32L55.5556 341.238L56.25 340.16L56.9444 339.086L57.6389 338.015L58.3333 336.948L59.0278 335.885L59.7222 334.826L60.4167 333.771L61.1111 332.72L61.8056 331.673L62.5 330.629L63.1944 329.589L63.8889 328.553L64.5833 327.521L65.2778 326.493L65.9722 325.469L66.6667 324.449L67.3611 323.432L68.0556 322.419L68.75 321.41L69.4444 320.405L70.1389 319.404L70.8333 318.407L71.5278 317.414L72.2222 316.424L72.9167 315.438L73.6111 314.456L74.3056 313.478L75 312.504L75.6944 311.534L76.3889 310.568L77.0833 309.605L77.7778 308.646L78.4722 307.691L79.1667 306.74L79.8611 305.793L80.5556 304.85L81.25 303.911L81.9444 302.975L82.6389 302.043L83.3333 301.115L84.0278 300.191L84.7222 299.271L85.4167 298.355L86.1111 297.443L86.8056 296.534L87.5 295.629L88.1944 294.728L88.8889 293.831L89.5833 292.938L90.2778 292.049L90.9722 291.164L91.6667 290.282L92.3611 289.404L93.0556 288.53L93.75 287.66L94.4444 286.794L95.1389 285.932L95.8333 285.074L96.5278 284.219L97.2222 283.368L97.9167 282.521L98.6111 281.678L99.3056 280.839L100 280.004L100.694 279.173L101.389 278.345L102.083 277.521L102.778 276.701L103.472 275.885L104.167 275.073L104.861 274.265L105.556 273.461L106.25 272.66L106.944 271.863L107.639 271.07L108.333 270.281L109.028 269.496L109.722 268.715L110.417 267.938L111.111 267.164L111.806 266.394L112.5 265.628L113.194 264.866L113.889 264.108L114.583 263.354L115.278 262.604L115.972 261.857L116.667 261.114L117.361 260.375L118.056 259.64L118.75 258.909L119.444 258.182L120.139 257.459L120.833 256.739L121.528 256.023L122.222 255.311L122.917 254.603L123.611 253.899L124.306 253.199L125 252.503L125.694 251.81L126.389 251.121L127.083 250.436L127.778 249.755L128.472 249.078L129.167 248.405L129.861 247.736L130.556 247.07L131.25 246.408L131.944 245.75L132.639 245.096L133.333 244.446L134.028 243.8L134.722 243.158L135.417 242.519L136.111 241.884L136.806 241.253L137.5 240.626L138.194 240.003L138.889 239.384L139.583 238.769L140.278 238.157L140.972 237.549L141.667 236.945L142.361 236.345L143.056 235.749L143.75 235.157L144.444 234.569L145.139 233.985L145.833 233.404L146.528 232.827L147.222 232.254L147.917 231.685L148.611 231.12L149.306 230.559L150 230.002L150.694 229.448L151.389 228.898L152.083 228.352L152.778 227.81L153.472 227.272L154.167 226.738L154.861 226.208L155.556 225.681L156.25 225.158L156.944 224.639L157.639 224.124L158.333 223.613L159.028 223.106L159.722 222.603L160.417 222.103L161.111 221.607L161.806 221.115L162.5 220.627L163.194 220.143L163.889 219.663L164.583 219.187L165.278 218.714L165.972 218.245L166.667 217.78L167.361 217.319L168.056 216.862L168.75 216.409L169.444 215.96L170.139 215.514L170.833 215.072L171.528 214.634L172.222 214.2L172.917 213.77L173.611 213.344L174.306 212.922L175 212.503L175.694 212.088L176.389 211.677L177.083 211.27L177.778 210.867L178.472 210.468L179.167 210.073L179.861 209.681L180.556 209.293L181.25 208.909L181.944 208.529L182.639 208.153L183.333 207.781L184.028 207.413L184.722 207.048L185.417 206.687L186.111 206.33L186.806 205.977L187.5 205.628L188.194 205.283L188.889 204.942L189.583 204.604L190.278 204.27L190.972 203.94L191.667 203.614L192.361 203.292L193.056 202.974L193.75 202.66L194.444 202.349L195.139 202.042L195.833 201.739L196.528 201.44L197.222 201.145L197.917 200.854L198.611 200.567L199.306 200.283L200 200.003L200.694 199.727L201.389 199.455L202.083 199.187L202.778 198.923L203.472 198.663L204.167 198.406L204.861 198.153L205.556 197.904L206.25 197.659L206.944 197.418L207.639 197.181L208.333 196.948L209.028 196.718L209.722 196.492L210.417 196.27L211.111 196.052L211.806 195.838L212.5 195.628L213.194 195.422L213.889 195.219L214.583 195.02L215.278 194.825L215.972 194.634L216.667 194.447L217.361 194.264L218.056 194.085L218.75 193.909L219.444 193.737L220.139 193.569L220.833 193.405L221.528 193.245L222.222 193.089L222.917 192.937L223.611 192.788L224.306 192.643L225 192.502L225.694 192.365L226.389 192.232L227.083 192.103L227.778 191.978L228.472 191.856L229.167 191.738L229.861 191.624L230.556 191.514L231.25 191.408L231.944 191.306L232.639 191.208L233.333 191.113L234.028 191.022L234.722 190.935L235.417 190.852L236.111 190.773L236.806 190.698L237.5 190.627L238.194 190.559L238.889 190.495L239.583 190.435L240.278 190.379L240.972 190.327L241.667 190.279L242.361 190.235L243.056 190.194L243.75 190.157L244.444 190.124L245.139 190.095L245.833 190.07L246.528 190.049L247.222 190.032L247.917 190.018L248.611 190.008L249.306 190.002L250 190L250.694 190.002L251.389 190.008L252.083 190.018L252.778 190.032L253.472 190.049L254.167 190.07L254.861 190.095L255.556 190.124L256.25 190.157L256.944 190.194L257.639 190.235L258.333 190.279L259.028 190.327L259.722 190.379L260.417 190.435L261.111 190.495L261.806 190.559L262.5 190.627L263.194 190.698L263.889 190.773L264.583 190.852L265.278 190.935L265.972 191.022L266.667 191.113L267.361 191.208L268.056 191.306L268.75 191.408L269.444 191.514L270.139 191.624L270.833 191.738L271.528 191.856L272.222 191.978L272.917 192.103L273.611 192.232L274.306 192.365L275 192.502L275.694 192.643L276.389 192.788L277.083 192.937L277.778 193.089L278.472 193.245L279.167 193.405L279.861 193.569L280.556 193.737L281.25 193.909L281.944 194.085L282.639 194.264L283.333 194.447L284.028 194.634L284.722 194.825L285.417 195.02L286.111 195.219L286.806 195.422L287.5 195.628L288.194 195.838L288.889 196.052L289.583 196.27L290.278 196.492L290.972 196.718L291.667 196.948L292.361 197.181L293.056 197.418L293.75 197.659L294.444 197.904L295.139 198.153L295.833 198.406L296.528 198.663L297.222 198.923L297.917 199.187L298.611 199.455L299.306 199.727L300 200.003L300.694 200.283L301.389 200.567L302.083 200.854L302.778 201.145L303.472 201.44L304.167 201.739L304.861 202.042L305.556 202.349L306.25 202.66L306.944 202.974L307.639 203.292L308.333 203.614L309.028 203.94L309.722 204.27L310.417 204.604L311.111 204.942L311.806 205.283L312.5 205.628L313.194 205.977L313.889 206.33L314.583 206.687L315.278 207.048L315.972 207.413L316.667 207.781L317.361 208.153L318.056 208.529L318.75 208.909L319.444 209.293L320.139 209.681L320.833 210.073L321.528 210.468L322.222 210.867L322.917 211.27L323.611 211.677L324.306 212.088L325 212.503L325.694 212.922L326.389 213.344L327.083 213.77L327.778 214.2L328.472 214.634L329.167 215.072L329.861 215.514L330.556 215.96L331.25 216.409L331.944 216.862L332.639 217.319L333.333 217.78L334.028 218.245L334.722 218.714L335.417 219.187L336.111 219.663L336.806 220.143L337.5 220.627L338.194 221.115L338.889 221.607L339.583 222.103L340.278 222.603L340.972 223.106L341.667 223.613L342.361 224.124L343.056 224.639L343.75 225.158L344.444 225.681L345.139 226.208L345.833 226.738L346.528 227.272L347.222 227.81L347.917 228.352L348.611 228.898L349.306 229.448L350 230.002L350.694 230.559L351.389 231.12L352.083 231.685L352.778 232.254L353.472 232.827L354.167 233.404L354.861 233.985L355.556 234.569L356.25 235.157L356.944 235.749L357.639 236.345L358.333 236.945L359.028 237.549L359.722 238.157L360.417 238.768L361.111 239.383L361.806 240.002L362.5 240.625L363.194 241.252L363.889 241.883L364.583 242.518L365.278 243.156L365.972 243.798L366.667 244.444L367.361 245.094L368.056 245.748L368.75 246.406L369.444 247.068L370.139 247.734L370.833 248.403L371.528 249.076L372.222 249.753L372.917 250.434L373.611 251.119L374.306 251.808L375 252.501L375.694 253.197L376.389 253.897L377.083 254.601L377.778 255.309L378.472 256.021L379.167 256.737L379.861 257.457L380.556 258.18L381.25 258.907L381.944 259.638L382.639 260.373L383.333 261.112L384.028 261.855L384.722 262.602L385.417 263.352L386.111 264.106L386.806 264.864L387.5 265.626L388.194 266.392L388.889 267.162L389.583 267.936L390.278 268.713L390.972 269.494L391.667 270.279L392.361 271.068L393.056 271.861L393.75 272.658L394.444 273.459L395.139 274.263L395.833 275.071L396.528 275.883L397.222 276.699L397.917 277.519L398.611 278.343L399.306 279.171L400 280.002L400.694 280.837L401.389 281.676L402.083 282.519L402.778 283.366L403.472 284.217L404.167 285.072L404.861 285.93L405.556 286.792L406.25 287.658L406.944 288.528L407.639 289.402L408.333 290.28L409.028 291.162L409.722 292.047L410.417 292.936L411.111 293.829L411.806 294.726L412.5 295.627L413.194 296.532L413.889 297.441L414.583 298.353L415.278 299.269L415.972 300.189L416.667 301.113L417.361 302.041L418.056 302.973L418.75 303.909L419.444 304.848L420.139 305.791L420.833 306.738L421.528 307.689L422.222 308.644L422.917 309.603L423.611 310.566L424.306 311.532L425 312.502L425.694 313.476L426.389 314.454L427.083 315.436L427.778 316.422L428.472 317.412L429.167 318.405L429.861 319.402L430.556 320.403L431.25 321.408L431.944 322.417L432.639 323.43L433.333 324.447L434.028 325.467L434.722 326.491L435.417 327.519L436.111 328.551L436.806 329.587L437.5 330.627L438.194 331.671L438.889 332.718L439.583 333.769L440.278 334.824L440.972 335.883L441.667 336.946L442.361 338.013L443.056 339.084L443.75 340.158L444.444 341.236L445.139 342.318L445.833 343.404L446.528 344.494L447.222 345.588L447.917 346.686L448.611 347.787L449.306 348.892L450 350.001" stroke="#1F72EF" stroke-opacity="0.6" stroke-width="1.5"/>
<path d="M400 280H450" stroke="#2A9B4A" stroke-width="1.5"/>
<path d="M350 230H400" stroke="#2A9B4A" stroke-width="1.5"/>
<path d="M300 200H350" stroke="#2A9B4A" stroke-width="1.5"/>
<path d="M250 190H300" stroke="#2A9B4A" stroke-width="1.5"/>
<path d="M200 200H250" stroke="#2A9B4A" stroke-width="1.5"/>
<path d="M150 230H200" stroke="#2A9B4A" stroke-width="1.5"/>
<path d="M100 280H150" stroke="#2A9B4A" stroke-width="1.5"/>
<path d="M50 350H100" stroke="#2A9B4A" stroke-width="1.5"/>
<path d="M245.8 26.14C246.147 26.14 246.407 26.2867 246.58 26.58C246.753 26.8733 246.84 27.2333 246.84 27.66C246.84 28.1267 246.707 28.8933 246.44 29.96C246.187 30.9867 245.867 31.88 245.48 32.64C244.64 34.36 243.587 35.22 242.32 35.22C241.467 35.22 240.787 35.0067 240.28 34.58C239.787 34.14 239.54 33.5 239.54 32.66C239.54 32.42 239.553 32.1933 239.58 31.98C239.7 31.34 240.013 30.36 240.52 29.04L240.84 28.08C240.92 27.84 240.96 27.6133 240.96 27.4C240.96 27.0667 240.833 26.9 240.58 26.9C240.487 26.9 240.38 26.92 240.26 26.96C239.58 27.2 239.067 27.9667 238.72 29.26C238.72 29.2733 238.713 29.3 238.7 29.34C238.687 29.3667 238.673 29.3867 238.66 29.4C238.66 29.4 238.653 29.4067 238.64 29.42C238.627 29.4333 238.6 29.44 238.56 29.44C238.533 29.44 238.507 29.44 238.48 29.44C238.453 29.44 238.4 29.44 238.32 29.44H238.04C237.933 29.3333 237.913 29.1733 237.98 28.96C238.3 27.9067 238.793 27.12 239.46 26.6C239.82 26.32 240.233 26.18 240.7 26.18C241.22 26.18 241.647 26.3267 241.98 26.62C242.313 26.9133 242.48 27.3 242.48 27.78C242.48 28.0067 242.46 28.18 242.42 28.3C242.42 28.3933 242.32 28.6867 242.12 29.18C241.507 30.8467 241.18 32.0333 241.14 32.74C241.14 33.1 241.173 33.3933 241.24 33.62C241.413 34.1933 241.833 34.48 242.5 34.48C242.86 34.48 243.18 34.3733 243.46 34.16C244.287 33.6133 244.973 32.3533 245.52 30.38C245.627 30.0067 245.68 29.7 245.68 29.46C245.68 28.8733 245.42 28.3467 244.9 27.88C244.727 27.72 244.64 27.54 244.64 27.34C244.64 27.0467 244.76 26.7733 245 26.52C245.24 26.2667 245.507 26.14 245.8 26.14Z" fill="#1F72EF"/>
<path d="M253.867 39.82C253.867 39.94 253.747 40 253.507 40H253.247C253.154 39.92 252.967 39.76 252.687 39.52C250.287 37.3333 249.087 34.16 249.087 30C249.087 28.3733 249.28 26.8867 249.667 25.54C250.28 23.4467 251.287 21.76 252.687 20.48C252.78 20.4 252.887 20.3133 253.007 20.22C253.127 20.1133 253.207 20.04 253.247 20H253.507C253.667 20 253.767 20.02 253.807 20.06C253.847 20.1 253.867 20.14 253.867 20.18C253.867 20.2333 253.794 20.3333 253.647 20.48C251.58 22.6667 250.547 25.84 250.547 30C250.547 34.16 251.58 37.3333 253.647 39.52C253.794 39.6667 253.867 39.7667 253.867 39.82ZM257.68 33.64C257.68 34.2 257.86 34.48 258.22 34.48C258.314 34.48 258.394 34.4733 258.46 34.46C259.127 34.34 259.734 33.8067 260.28 32.86C260.414 32.6467 260.534 32.4 260.64 32.12C260.667 32.04 260.7 31.9933 260.74 31.98C260.78 31.9533 260.88 31.94 261.04 31.94C261.307 31.94 261.44 31.9933 261.44 32.1C261.44 32.1267 261.414 32.2067 261.36 32.34C261.214 32.7667 260.974 33.2 260.64 33.64C260.32 34.0667 259.994 34.4067 259.66 34.66C259.167 35.0333 258.64 35.22 258.08 35.22C257.6 35.22 257.187 35.1 256.84 34.86C256.507 34.6067 256.28 34.28 256.16 33.88C256.134 33.7733 256.12 33.5933 256.12 33.34V32.98L256.82 30.18C257.287 28.3 257.527 27.3533 257.54 27.34C257.54 27.3133 257.2 27.3 256.52 27.3H255.5C255.42 27.22 255.374 27.1667 255.36 27.14C255.36 27.1133 255.38 27 255.42 26.8C255.474 26.6133 255.507 26.5133 255.52 26.5C255.547 26.4333 255.607 26.4 255.7 26.4C255.807 26.3867 256.147 26.38 256.72 26.38H257.78L258.16 24.78C258.44 23.7 258.6 23.12 258.64 23.04C258.8 22.6667 259.107 22.48 259.56 22.48C259.734 22.4933 259.88 22.5533 260 22.66C260.134 22.7667 260.2 22.9067 260.2 23.08C260.2 23.24 260.074 23.8067 259.82 24.78C259.767 25.0067 259.7 25.26 259.62 25.54C259.554 25.8067 259.5 26.0067 259.46 26.14L259.42 26.34C259.42 26.3667 259.754 26.38 260.42 26.38H261.44C261.52 26.46 261.56 26.52 261.56 26.56C261.574 26.5867 261.56 26.7067 261.52 26.92C261.48 27.08 261.414 27.2067 261.32 27.3H259.18L258.46 30.2C257.967 32.1867 257.714 33.2333 257.7 33.34C257.687 33.4067 257.68 33.5067 257.68 33.64ZM263.407 20.02L263.487 20C263.554 20 263.62 20 263.687 20H263.927C264.02 20.08 264.207 20.24 264.487 20.48C266.887 22.6667 268.087 25.84 268.087 30C268.087 31.64 267.894 33.12 267.507 34.44C266.894 36.5467 265.887 38.24 264.487 39.52C264.394 39.6 264.287 39.6867 264.167 39.78C264.047 39.8867 263.967 39.96 263.927 40H263.687C263.527 40 263.42 39.9867 263.367 39.96C263.327 39.9333 263.307 39.8667 263.307 39.76C263.32 39.7467 263.394 39.66 263.527 39.5C265.594 37.3533 266.627 34.1867 266.627 30C266.627 25.8133 265.594 22.6467 263.527 20.5C263.394 20.34 263.32 20.2533 263.307 20.24C263.307 20.1333 263.34 20.06 263.407 20.02ZM276.1 28.06C276.1 27.8867 276.194 27.7533 276.38 27.66H289.12C289.32 27.7533 289.42 27.8867 289.42 28.06C289.42 28.2067 289.327 28.3333 289.14 28.44L282.78 28.46H276.42C276.207 28.3933 276.1 28.26 276.1 28.06ZM276.1 31.94C276.1 31.74 276.207 31.6067 276.42 31.54H289.14C289.154 31.5533 289.18 31.58 289.22 31.62C289.274 31.6467 289.307 31.6733 289.32 31.7C289.347 31.7133 289.367 31.7467 289.38 31.8C289.407 31.84 289.42 31.8867 289.42 31.94C289.42 32.1133 289.32 32.2467 289.12 32.34H276.38C276.194 32.2467 276.1 32.1133 276.1 31.94ZM297.507 30.4C297.32 30.3067 297.227 30.1733 297.227 30C297.227 29.8267 297.32 29.6933 297.507 29.6H309.127C309.327 29.7067 309.427 29.84 309.427 30C309.427 30.16 309.327 30.2933 309.127 30.4H297.507ZM313.813 33.64C313.813 34.2 313.993 34.48 314.353 34.48C314.447 34.48 314.527 34.4733 314.593 34.46C315.26 34.34 315.867 33.8067 316.413 32.86C316.547 32.6467 316.667 32.4 316.773 32.12C316.8 32.04 316.833 31.9933 316.873 31.98C316.913 31.9533 317.013 31.94 317.173 31.94C317.44 31.94 317.573 31.9933 317.573 32.1C317.573 32.1267 317.547 32.2067 317.493 32.34C317.347 32.7667 317.107 33.2 316.773 33.64C316.453 34.0667 316.127 34.4067 315.793 34.66C315.3 35.0333 314.773 35.22 314.213 35.22C313.733 35.22 313.32 35.1 312.973 34.86C312.64 34.6067 312.413 34.28 312.293 33.88C312.267 33.7733 312.253 33.5933 312.253 33.34V32.98L312.953 30.18C313.42 28.3 313.66 27.3533 313.673 27.34C313.673 27.3133 313.333 27.3 312.653 27.3H311.633C311.553 27.22 311.507 27.1667 311.493 27.14C311.493 27.1133 311.513 27 311.553 26.8C311.607 26.6133 311.64 26.5133 311.653 26.5C311.68 26.4333 311.74 26.4 311.833 26.4C311.94 26.3867 312.28 26.38 312.853 26.38H313.913L314.293 24.78C314.573 23.7 314.733 23.12 314.773 23.04C314.933 22.6667 315.24 22.48 315.693 22.48C315.867 22.4933 316.013 22.5533 316.133 22.66C316.267 22.7667 316.333 22.9067 316.333 23.08C316.333 23.24 316.207 23.8067 315.953 24.78C315.9 25.0067 315.833 25.26 315.753 25.54C315.687 25.8067 315.633 26.0067 315.593 26.14L315.553 26.34C315.553 26.3667 315.887 26.38 316.553 26.38H317.573C317.653 26.46 317.693 26.52 317.693 26.56C317.707 26.5867 317.693 26.7067 317.653 26.92C317.613 27.08 317.547 27.2067 317.453 27.3H315.313L314.593 30.2C314.1 32.1867 313.847 33.2333 313.833 33.34C313.82 33.4067 313.813 33.5067 313.813 33.64ZM319.66 22.852C319.436 22.852 319.26 22.78 319.132 22.636C319.004 22.492 318.94 22.316 318.94 22.108C318.94 21.532 319.156 21.04 319.588 20.632C320.028 20.216 320.552 20.008 321.16 20.008C321.848 20.008 322.416 20.196 322.864 20.572C323.32 20.94 323.6 21.424 323.704 22.024C323.72 22.168 323.728 22.3 323.728 22.42C323.728 22.884 323.588 23.32 323.308 23.728C323.084 24.064 322.632 24.524 321.952 25.108C321.664 25.356 321.264 25.724 320.752 26.212L320.044 26.884L320.956 26.896C322.212 26.896 322.88 26.876 322.96 26.836C322.992 26.828 323.032 26.744 323.08 26.584C323.112 26.496 323.168 26.224 323.248 25.768V25.732H323.728V25.768L323.392 27.964V28H318.94V27.772C318.94 27.612 318.948 27.52 318.964 27.496C318.972 27.48 319.308 27.1 319.972 26.356C320.844 25.388 321.404 24.748 321.652 24.436C322.188 23.708 322.456 23.04 322.456 22.432C322.456 21.904 322.316 21.464 322.036 21.112C321.764 20.752 321.38 20.572 320.884 20.572C320.42 20.572 320.044 20.78 319.756 21.196C319.74 21.228 319.716 21.272 319.684 21.328C319.66 21.368 319.648 21.392 319.648 21.4C319.648 21.408 319.668 21.412 319.708 21.412C319.908 21.412 320.068 21.484 320.188 21.628C320.316 21.772 320.38 21.94 320.38 22.132C320.38 22.332 320.312 22.504 320.176 22.648C320.048 22.784 319.876 22.852 319.66 22.852ZM331.1 30.4C330.913 30.3067 330.82 30.1733 330.82 30C330.82 29.8267 330.913 29.6933 331.1 29.6H337.08V26.6L337.1 23.6C337.233 23.4267 337.36 23.34 337.48 23.34C337.653 23.34 337.787 23.44 337.88 23.64V29.6H343.84C344.04 29.7067 344.14 29.84 344.14 30C344.14 30.16 344.04 30.2933 343.84 30.4H337.88V36.36C337.787 36.5467 337.653 36.64 337.48 36.64C337.307 36.64 337.173 36.5467 337.08 36.36V30.4H331.1ZM353.706 28.3C353.053 27.8733 352.546 27.4267 352.186 26.96C351.84 26.4933 351.666 25.88 351.666 25.12C351.666 24.5467 351.773 24.0667 351.986 23.68C352.28 23.08 352.706 22.6 353.266 22.24C353.84 21.8667 354.493 21.68 355.226 21.68C356.133 21.68 356.92 21.92 357.586 22.4C358.253 22.8667 358.666 23.4733 358.826 24.22C358.84 24.3 358.846 24.46 358.846 24.7C358.846 24.9933 358.833 25.1933 358.806 25.3C358.606 26.18 358 26.94 356.986 27.58C356.96 27.5933 356.92 27.6133 356.866 27.64C356.826 27.6667 356.8 27.6933 356.786 27.72L356.746 27.74C357.493 28.2467 357.88 28.5133 357.906 28.54C358.906 29.34 359.406 30.3333 359.406 31.52C359.406 32.6 359.006 33.5267 358.206 34.3C357.42 35.06 356.433 35.44 355.246 35.44C353.606 35.44 352.4 34.84 351.626 33.64C351.293 33.16 351.126 32.58 351.126 31.9C351.126 31.5933 351.14 31.3867 351.166 31.28C351.366 30.2667 352.006 29.4 353.086 28.68C353.166 28.6267 353.286 28.5533 353.446 28.46C353.606 28.3667 353.693 28.3133 353.706 28.3ZM357.686 24.74C357.686 24.1667 357.5 23.68 357.126 23.28C356.753 22.88 356.3 22.6267 355.766 22.52C355.673 22.5067 355.453 22.5 355.106 22.5C354.4 22.5 353.806 22.74 353.326 23.22C352.993 23.5267 352.826 23.8933 352.826 24.32C352.826 24.8933 353.066 25.3467 353.546 25.68C353.613 25.7467 354.04 26.0267 354.826 26.52L355.986 27.28C356 27.2667 356.086 27.2133 356.246 27.12C356.406 27.0133 356.526 26.92 356.606 26.84C357.326 26.2667 357.686 25.5667 357.686 24.74ZM352.406 31.86C352.406 32.6467 352.693 33.3 353.266 33.82C353.84 34.3267 354.506 34.58 355.266 34.58C355.813 34.58 356.306 34.4667 356.746 34.24C357.2 34.0133 357.54 33.72 357.766 33.36C357.993 33.0133 358.106 32.6467 358.106 32.26C358.106 31.6867 357.873 31.18 357.406 30.74C357.3 30.6333 356.746 30.2533 355.746 29.6C355.56 29.48 355.353 29.3533 355.126 29.22C354.913 29.0733 354.746 28.96 354.626 28.88L354.466 28.78L354.226 28.9C353.386 29.4467 352.833 30.1133 352.566 30.9C352.46 31.2467 352.406 31.5667 352.406 31.86ZM362.966 33.64C362.966 34.2 363.146 34.48 363.506 34.48C363.6 34.48 363.68 34.4733 363.746 34.46C364.413 34.34 365.02 33.8067 365.566 32.86C365.7 32.6467 365.82 32.4 365.926 32.12C365.953 32.04 365.986 31.9933 366.026 31.98C366.066 31.9533 366.166 31.94 366.326 31.94C366.593 31.94 366.726 31.9933 366.726 32.1C366.726 32.1267 366.7 32.2067 366.646 32.34C366.5 32.7667 366.26 33.2 365.926 33.64C365.606 34.0667 365.28 34.4067 364.946 34.66C364.453 35.0333 363.926 35.22 363.366 35.22C362.886 35.22 362.473 35.1 362.126 34.86C361.793 34.6067 361.566 34.28 361.446 33.88C361.42 33.7733 361.406 33.5933 361.406 33.34V32.98L362.106 30.18C362.573 28.3 362.813 27.3533 362.826 27.34C362.826 27.3133 362.486 27.3 361.806 27.3H360.786C360.706 27.22 360.66 27.1667 360.646 27.14C360.646 27.1133 360.666 27 360.706 26.8C360.76 26.6133 360.793 26.5133 360.806 26.5C360.833 26.4333 360.893 26.4 360.986 26.4C361.093 26.3867 361.433 26.38 362.006 26.38H363.066L363.446 24.78C363.726 23.7 363.886 23.12 363.926 23.04C364.086 22.6667 364.393 22.48 364.846 22.48C365.02 22.4933 365.166 22.5533 365.286 22.66C365.42 22.7667 365.486 22.9067 365.486 23.08C365.486 23.24 365.36 23.8067 365.106 24.78C365.053 25.0067 364.986 25.26 364.906 25.54C364.84 25.8067 364.786 26.0067 364.746 26.14L364.706 26.34C364.706 26.3667 365.04 26.38 365.706 26.38H366.726C366.806 26.46 366.846 26.52 366.846 26.56C366.86 26.5867 366.846 26.7067 366.806 26.92C366.766 27.08 366.7 27.2067 366.606 27.3H364.466L363.746 30.2C363.253 32.1867 363 33.2333 362.986 33.34C362.973 33.4067 362.966 33.5067 362.966 33.64Z" fill="#333333"/>
</g>
<defs>
<clipPath id="clip0_197_406">
<rect width="600" height="400" fill="white"/>
</clipPath>
</defs>
</svg>
