<svg width="600" height="400" viewBox="0 0 600 400" fill="none" xmlns="http://www.w3.org/2000/svg">
<g clip-path="url(#clip0_197_321)">
<path d="M600 0H0V400H600V0Z" fill="white"/>
<path d="M46.92 367.3C47.6667 366.22 48.6867 365.68 49.98 365.68C50.9533 365.68 51.8067 366.013 52.54 366.68C52.9 367.027 53.2067 367.48 53.46 368.04C53.9533 369.147 54.2 370.667 54.2 372.6C54.2 374.667 53.9133 376.247 53.34 377.34C52.9667 378.113 52.42 378.673 51.7 379.02C51.14 379.3 50.5733 379.44 50 379.44C48.4667 379.44 47.3467 378.74 46.64 377.34C46.0667 376.247 45.78 374.667 45.78 372.6C45.78 371.36 45.86 370.34 46.02 369.54C46.1933 368.727 46.4933 367.98 46.92 367.3ZM51.42 367.06C51.0333 366.633 50.56 366.42 50 366.42C49.44 366.42 48.96 366.633 48.56 367.06C48.2667 367.367 48.0667 367.74 47.96 368.18C47.8533 368.62 47.7867 369.38 47.76 370.46C47.76 370.54 47.7533 370.8 47.74 371.24C47.74 371.68 47.74 372.047 47.74 372.34C47.74 373.62 47.7533 374.513 47.78 375.02C47.8333 375.953 47.9133 376.627 48.02 377.04C48.1267 377.44 48.3267 377.787 48.62 378.08C48.98 378.48 49.44 378.68 50 378.68C50.5467 378.68 51 378.48 51.36 378.08C51.6533 377.787 51.8533 377.44 51.96 377.04C52.0667 376.627 52.1467 375.953 52.2 375.02C52.2267 374.513 52.24 373.62 52.24 372.34C52.24 372.047 52.2333 371.68 52.22 371.24C52.22 370.8 52.22 370.54 52.22 370.46C52.1933 369.38 52.1267 368.62 52.02 368.18C51.9133 367.74 51.7133 367.367 51.42 367.06Z" fill="#333333"/>
<path d="M297.14 374.72C297.46 374.72 297.727 374.833 297.94 375.06C298.167 375.273 298.28 375.547 298.28 375.88C298.28 376.187 298.167 376.447 297.94 376.66C297.713 376.873 297.46 376.98 297.18 376.98H297.04L297.1 377.08C297.3 377.507 297.607 377.86 298.02 378.14C298.433 378.42 298.92 378.56 299.48 378.56C300.427 378.56 301.107 378.16 301.52 377.36C301.773 376.867 301.9 376.013 301.9 374.8C301.9 373.427 301.72 372.5 301.36 372.02C301.013 371.58 300.587 371.36 300.08 371.36C299.04 371.36 298.253 371.813 297.72 372.72C297.667 372.813 297.613 372.873 297.56 372.9C297.52 372.913 297.427 372.92 297.28 372.92C297.053 372.92 296.927 372.88 296.9 372.8C296.873 372.747 296.86 371.58 296.86 369.3C296.86 368.9 296.853 368.427 296.84 367.88C296.84 367.333 296.84 366.987 296.84 366.84C296.84 366.093 296.88 365.72 296.96 365.72C296.987 365.693 297.013 365.68 297.04 365.68L297.4 365.8C298.267 366.147 299.153 366.32 300.06 366.32C301.007 366.32 301.913 366.133 302.78 365.76C302.887 365.707 302.973 365.68 303.04 365.68C303.147 365.68 303.2 365.8 303.2 366.04V366.3C302.12 367.593 300.753 368.24 299.1 368.24C298.687 368.24 298.313 368.2 297.98 368.12L297.78 368.08V371.52C298.54 370.907 299.32 370.6 300.12 370.6C300.373 370.6 300.647 370.633 300.94 370.7C301.833 370.927 302.56 371.433 303.12 372.22C303.693 373.007 303.98 373.927 303.98 374.98C303.98 376.193 303.553 377.24 302.7 378.12C301.86 379 300.82 379.44 299.58 379.44C298.74 379.44 298.027 379.207 297.44 378.74C297.187 378.58 296.967 378.36 296.78 378.08C296.26 377.453 296 376.733 296 375.92C296 375.547 296.107 375.253 296.32 375.04C296.533 374.827 296.807 374.72 297.14 374.72Z" fill="#333333"/>
<path d="M548.32 379C548.093 378.96 547.033 378.94 545.14 378.94C543.273 378.94 542.227 378.96 542 379H541.76V378.08H542.28C543.053 378.08 543.553 378.06 543.78 378.02C543.887 378.007 544.047 377.927 544.26 377.78V367.44C544.233 367.44 544.18 367.46 544.1 367.5C543.487 367.74 542.8 367.867 542.04 367.88H541.66V366.96H542.04C543.16 366.92 544.093 366.667 544.84 366.2C545.08 366.067 545.287 365.913 545.46 365.74C545.487 365.7 545.567 365.68 545.7 365.68C545.833 365.68 545.947 365.72 546.04 365.8V371.78L546.06 377.78C546.26 377.98 546.693 378.08 547.36 378.08H548.02H548.54V379H548.32ZM551.92 367.3C552.667 366.22 553.687 365.68 554.98 365.68C555.953 365.68 556.807 366.013 557.54 366.68C557.9 367.027 558.207 367.48 558.46 368.04C558.953 369.147 559.2 370.667 559.2 372.6C559.2 374.667 558.913 376.247 558.34 377.34C557.967 378.113 557.42 378.673 556.7 379.02C556.14 379.3 555.573 379.44 555 379.44C553.467 379.44 552.347 378.74 551.64 377.34C551.067 376.247 550.78 374.667 550.78 372.6C550.78 371.36 550.86 370.34 551.02 369.54C551.193 368.727 551.493 367.98 551.92 367.3ZM556.42 367.06C556.033 366.633 555.56 366.42 555 366.42C554.44 366.42 553.96 366.633 553.56 367.06C553.267 367.367 553.067 367.74 552.96 368.18C552.853 368.62 552.787 369.38 552.76 370.46C552.76 370.54 552.753 370.8 552.74 371.24C552.74 371.68 552.74 372.047 552.74 372.34C552.74 373.62 552.753 374.513 552.78 375.02C552.833 375.953 552.913 376.627 553.02 377.04C553.127 377.44 553.327 377.787 553.62 378.08C553.98 378.48 554.44 378.68 555 378.68C555.547 378.68 556 378.48 556.36 378.08C556.653 377.787 556.853 377.44 556.96 377.04C557.067 376.627 557.147 375.953 557.2 375.02C557.227 374.513 557.24 373.62 557.24 372.34C557.24 372.047 557.233 371.68 557.22 371.24C557.22 370.8 557.22 370.54 557.22 370.46C557.193 369.38 557.127 368.62 557.02 368.18C556.913 367.74 556.713 367.367 556.42 367.06Z" fill="#333333"/>
<path d="M21.92 342.3C22.6667 341.22 23.6867 340.68 24.98 340.68C25.9533 340.68 26.8067 341.013 27.54 341.68C27.9 342.027 28.2067 342.48 28.46 343.04C28.9533 344.147 29.2 345.667 29.2 347.6C29.2 349.667 28.9133 351.247 28.34 352.34C27.9667 353.113 27.42 353.673 26.7 354.02C26.14 354.3 25.5733 354.44 25 354.44C23.4667 354.44 22.3467 353.74 21.64 352.34C21.0667 351.247 20.78 349.667 20.78 347.6C20.78 346.36 20.86 345.34 21.02 344.54C21.1933 343.727 21.4933 342.98 21.92 342.3ZM26.42 342.06C26.0333 341.633 25.56 341.42 25 341.42C24.44 341.42 23.96 341.633 23.56 342.06C23.2667 342.367 23.0667 342.74 22.96 343.18C22.8533 343.62 22.7867 344.38 22.76 345.46C22.76 345.54 22.7533 345.8 22.74 346.24C22.74 346.68 22.74 347.047 22.74 347.34C22.74 348.62 22.7533 349.513 22.78 350.02C22.8333 350.953 22.9133 351.627 23.02 352.04C23.1267 352.44 23.3267 352.787 23.62 353.08C23.98 353.48 24.44 353.68 25 353.68C25.5467 353.68 26 353.48 26.36 353.08C26.6533 352.787 26.8533 352.44 26.96 352.04C27.0667 351.627 27.1467 350.953 27.2 350.02C27.2267 349.513 27.24 348.62 27.24 347.34C27.24 347.047 27.2333 346.68 27.22 346.24C27.22 345.8 27.22 345.54 27.22 345.46C27.1933 344.38 27.1267 343.62 27.02 343.18C26.9133 342.74 26.7133 342.367 26.42 342.06Z" fill="#333333"/>
<path d="M23.32 254C23.0933 253.96 22.0333 253.94 20.14 253.94C18.2733 253.94 17.2267 253.96 17 254H16.76V253.08H17.28C18.0533 253.08 18.5533 253.06 18.78 253.02C18.8867 253.007 19.0467 252.927 19.26 252.78V242.44C19.2333 242.44 19.18 242.46 19.1 242.5C18.4867 242.74 17.8 242.867 17.04 242.88H16.66V241.96H17.04C18.16 241.92 19.0933 241.667 19.84 241.2C20.08 241.067 20.2867 240.913 20.46 240.74C20.4867 240.7 20.5667 240.68 20.7 240.68C20.8333 240.68 20.9467 240.72 21.04 240.8V246.78L21.06 252.78C21.26 252.98 21.6933 253.08 22.36 253.08H23.02H23.54V254H23.32ZM26.92 242.3C27.6667 241.22 28.6867 240.68 29.98 240.68C30.9533 240.68 31.8067 241.013 32.54 241.68C32.9 242.027 33.2067 242.48 33.46 243.04C33.9533 244.147 34.2 245.667 34.2 247.6C34.2 249.667 33.9133 251.247 33.34 252.34C32.9667 253.113 32.42 253.673 31.7 254.02C31.14 254.3 30.5733 254.44 30 254.44C28.4667 254.44 27.3467 253.74 26.64 252.34C26.0667 251.247 25.78 249.667 25.78 247.6C25.78 246.36 25.86 245.34 26.02 244.54C26.1933 243.727 26.4933 242.98 26.92 242.3ZM31.42 242.06C31.0333 241.633 30.56 241.42 30 241.42C29.44 241.42 28.96 241.633 28.56 242.06C28.2667 242.367 28.0667 242.74 27.96 243.18C27.8533 243.62 27.7867 244.38 27.76 245.46C27.76 245.54 27.7533 245.8 27.74 246.24C27.74 246.68 27.74 247.047 27.74 247.34C27.74 248.62 27.7533 249.513 27.78 250.02C27.8333 250.953 27.9133 251.627 28.02 252.04C28.1267 252.44 28.3267 252.787 28.62 253.08C28.98 253.48 29.44 253.68 30 253.68C30.5467 253.68 31 253.48 31.36 253.08C31.6533 252.787 31.8533 252.44 31.96 252.04C32.0667 251.627 32.1467 250.953 32.2 250.02C32.2267 249.513 32.24 248.62 32.24 247.34C32.24 247.047 32.2333 246.68 32.22 246.24C32.22 245.8 32.22 245.54 32.22 245.46C32.1933 244.38 32.1267 243.62 32.02 243.18C31.9133 242.74 31.7133 242.367 31.42 242.06Z" fill="#333333"/>
<path d="M17.2 145.42C16.8267 145.42 16.5333 145.3 16.32 145.06C16.1067 144.82 16 144.527 16 144.18C16 143.22 16.36 142.4 17.08 141.72C17.8133 141.027 18.6867 140.68 19.7 140.68C20.8467 140.68 21.7933 140.993 22.54 141.62C23.3 142.233 23.7667 143.04 23.94 144.04C23.9667 144.28 23.98 144.5 23.98 144.7C23.98 145.473 23.7467 146.2 23.28 146.88C22.9067 147.44 22.1533 148.207 21.02 149.18C20.54 149.593 19.8733 150.207 19.02 151.02L17.84 152.14L19.36 152.16C21.4533 152.16 22.5667 152.127 22.7 152.06C22.7533 152.047 22.82 151.907 22.9 151.64C22.9533 151.493 23.0467 151.04 23.18 150.28V150.22H23.98V150.28L23.42 153.94V154H16V153.62C16 153.353 16.0133 153.2 16.04 153.16C16.0533 153.133 16.6133 152.5 17.72 151.26C19.1733 149.647 20.1067 148.58 20.52 148.06C21.4133 146.847 21.86 145.733 21.86 144.72C21.86 143.84 21.6267 143.107 21.16 142.52C20.7067 141.92 20.0667 141.62 19.24 141.62C18.4667 141.62 17.84 141.967 17.36 142.66C17.3333 142.713 17.2933 142.787 17.24 142.88C17.2 142.947 17.18 142.987 17.18 143C17.18 143.013 17.2133 143.02 17.28 143.02C17.6133 143.02 17.88 143.14 18.08 143.38C18.2933 143.62 18.4 143.9 18.4 144.22C18.4 144.553 18.2867 144.84 18.06 145.08C17.8467 145.307 17.56 145.42 17.2 145.42ZM26.92 142.3C27.6667 141.22 28.6867 140.68 29.98 140.68C30.9533 140.68 31.8067 141.013 32.54 141.68C32.9 142.027 33.2067 142.48 33.46 143.04C33.9533 144.147 34.2 145.667 34.2 147.6C34.2 149.667 33.9133 151.247 33.34 152.34C32.9667 153.113 32.42 153.673 31.7 154.02C31.14 154.3 30.5733 154.44 30 154.44C28.4667 154.44 27.3467 153.74 26.64 152.34C26.0667 151.247 25.78 149.667 25.78 147.6C25.78 146.36 25.86 145.34 26.02 144.54C26.1933 143.727 26.4933 142.98 26.92 142.3ZM31.42 142.06C31.0333 141.633 30.56 141.42 30 141.42C29.44 141.42 28.96 141.633 28.56 142.06C28.2667 142.367 28.0667 142.74 27.96 143.18C27.8533 143.62 27.7867 144.38 27.76 145.46C27.76 145.54 27.7533 145.8 27.74 146.24C27.74 146.68 27.74 147.047 27.74 147.34C27.74 148.62 27.7533 149.513 27.78 150.02C27.8333 150.953 27.9133 151.627 28.02 152.04C28.1267 152.44 28.3267 152.787 28.62 153.08C28.98 153.48 29.44 153.68 30 153.68C30.5467 153.68 31 153.48 31.36 153.08C31.6533 152.787 31.8533 152.44 31.96 152.04C32.0667 151.627 32.1467 150.953 32.2 150.02C32.2267 149.513 32.24 148.62 32.24 147.34C32.24 147.047 32.2333 146.68 32.22 146.24C32.22 145.8 32.22 145.54 32.22 145.46C32.1933 144.38 32.1267 143.62 32.02 143.18C31.9133 142.74 31.7133 142.367 31.42 142.06Z" fill="#333333"/>
<path d="M17.54 44.74C17.18 44.74 16.8933 44.6267 16.68 44.4C16.48 44.1733 16.38 43.88 16.38 43.52C16.38 42.76 16.68 42.1267 17.28 41.62C17.88 41.1 18.5733 40.7933 19.36 40.7H19.66C20.5 40.7 21.24 40.8467 21.88 41.14C22.76 41.58 23.3133 42.2067 23.54 43.02C23.58 43.1533 23.6 43.3333 23.6 43.56C23.6 44.3467 23.3533 45.0533 22.86 45.68C22.38 46.2933 21.7733 46.7333 21.04 47C20.9733 47.0267 20.9733 47.0467 21.04 47.06C21.0667 47.0733 21.1333 47.0933 21.24 47.12C22.0533 47.3467 22.74 47.7733 23.3 48.4C23.86 49.0133 24.14 49.7133 24.14 50.5C24.14 51.1933 23.96 51.8267 23.6 52.4C23.2533 52.9733 22.8067 53.42 22.26 53.74C21.5133 54.2067 20.68 54.44 19.76 54.44C18.88 54.44 18.1 54.2533 17.42 53.88C16.74 53.5067 16.28 53.0067 16.04 52.38C15.9067 52.1 15.84 51.7733 15.84 51.4C15.84 51.0267 15.96 50.7267 16.2 50.5C16.4533 50.26 16.7533 50.14 17.1 50.14C17.4733 50.14 17.78 50.26 18.02 50.5C18.26 50.74 18.38 51.04 18.38 51.4C18.38 51.7067 18.2933 51.9733 18.12 52.2C17.9467 52.4267 17.7133 52.5733 17.42 52.64L17.28 52.68C18 53.28 18.8267 53.58 19.76 53.58C20.4933 53.58 21.0467 53.2267 21.42 52.52C21.6467 52.08 21.76 51.4067 21.76 50.5V50.1C21.76 48.8333 21.3333 47.9867 20.48 47.56C20.28 47.48 19.8733 47.4333 19.26 47.42L18.42 47.4L18.36 47.36C18.3333 47.32 18.32 47.2133 18.32 47.04C18.32 46.88 18.34 46.78 18.38 46.74C18.42 46.7 18.4533 46.68 18.48 46.68C18.8533 46.68 19.24 46.6467 19.64 46.58C20.2267 46.5 20.6733 46.1733 20.98 45.6C21.2867 45.0133 21.44 44.3133 21.44 43.5C21.44 42.6333 21.2067 42.0533 20.74 41.76C20.46 41.5733 20.1467 41.48 19.8 41.48C19.1333 41.48 18.5467 41.66 18.04 42.02C17.9867 42.0467 17.9267 42.0933 17.86 42.16C17.7933 42.2133 17.74 42.2667 17.7 42.32L17.64 42.4C17.68 42.4133 17.7267 42.4267 17.78 42.44C18.0467 42.4667 18.2667 42.5933 18.44 42.82C18.6267 43.0467 18.72 43.3067 18.72 43.6C18.72 43.92 18.6067 44.1933 18.38 44.42C18.1667 44.6333 17.8867 44.74 17.54 44.74ZM26.92 42.3C27.6667 41.22 28.6867 40.68 29.98 40.68C30.9533 40.68 31.8067 41.0133 32.54 41.68C32.9 42.0267 33.2067 42.48 33.46 43.04C33.9533 44.1467 34.2 45.6667 34.2 47.6C34.2 49.6667 33.9133 51.2467 33.34 52.34C32.9667 53.1133 32.42 53.6733 31.7 54.02C31.14 54.3 30.5733 54.44 30 54.44C28.4667 54.44 27.3467 53.74 26.64 52.34C26.0667 51.2467 25.78 49.6667 25.78 47.6C25.78 46.36 25.86 45.34 26.02 44.54C26.1933 43.7267 26.4933 42.98 26.92 42.3ZM31.42 42.06C31.0333 41.6333 30.56 41.42 30 41.42C29.44 41.42 28.96 41.6333 28.56 42.06C28.2667 42.3667 28.0667 42.74 27.96 43.18C27.8533 43.62 27.7867 44.38 27.76 45.46C27.76 45.54 27.7533 45.8 27.74 46.24C27.74 46.68 27.74 47.0467 27.74 47.34C27.74 48.62 27.7533 49.5133 27.78 50.02C27.8333 50.9533 27.9133 51.6267 28.02 52.04C28.1267 52.44 28.3267 52.7867 28.62 53.08C28.98 53.48 29.44 53.68 30 53.68C30.5467 53.68 31 53.48 31.36 53.08C31.6533 52.7867 31.8533 52.44 31.96 52.04C32.0667 51.6267 32.1467 50.9533 32.2 50.02C32.2267 49.5133 32.24 48.62 32.24 47.34C32.24 47.0467 32.2333 46.68 32.22 46.24C32.22 45.8 32.22 45.54 32.22 45.46C32.1933 44.38 32.1267 43.62 32.02 43.18C31.9133 42.74 31.7133 42.3667 31.42 42.06Z" fill="#333333"/>
<path d="M50 50V350" stroke="#F0F0F0"/>
<path d="M100 50V350" stroke="#F0F0F0"/>
<path d="M150 50V350" stroke="#F0F0F0"/>
<path d="M200 50V350" stroke="#F0F0F0"/>
<path d="M250 50V350" stroke="#F0F0F0"/>
<path d="M300 50V350" stroke="#F0F0F0"/>
<path d="M350 50V350" stroke="#F0F0F0"/>
<path d="M400 50V350" stroke="#F0F0F0"/>
<path d="M450 50V350" stroke="#F0F0F0"/>
<path d="M500 50V350" stroke="#F0F0F0"/>
<path d="M550 50V350" stroke="#F0F0F0"/>
<path d="M50 50H550" stroke="#F0F0F0"/>
<path d="M50 60H550" stroke="#F0F0F0"/>
<path d="M50 70H550" stroke="#F0F0F0"/>
<path d="M50 80H550" stroke="#F0F0F0"/>
<path d="M50 90H550" stroke="#F0F0F0"/>
<path d="M50 100H550" stroke="#F0F0F0"/>
<path d="M50 110H550" stroke="#F0F0F0"/>
<path d="M50 120H550" stroke="#F0F0F0"/>
<path d="M50 130H550" stroke="#F0F0F0"/>
<path d="M50 140H550" stroke="#F0F0F0"/>
<path d="M50 150H550" stroke="#F0F0F0"/>
<path d="M50 160H550" stroke="#F0F0F0"/>
<path d="M50 170H550" stroke="#F0F0F0"/>
<path d="M50 180H550" stroke="#F0F0F0"/>
<path d="M50 190H550" stroke="#F0F0F0"/>
<path d="M50 200H550" stroke="#F0F0F0"/>
<path d="M50 210H550" stroke="#F0F0F0"/>
<path d="M50 220H550" stroke="#F0F0F0"/>
<path d="M50 230H550" stroke="#F0F0F0"/>
<path d="M50 240H550" stroke="#F0F0F0"/>
<path d="M50 250H550" stroke="#F0F0F0"/>
<path d="M50 260H550" stroke="#F0F0F0"/>
<path d="M50 270H550" stroke="#F0F0F0"/>
<path d="M50 280H550" stroke="#F0F0F0"/>
<path d="M50 290H550" stroke="#F0F0F0"/>
<path d="M50 300H550" stroke="#F0F0F0"/>
<path d="M50 310H550" stroke="#F0F0F0"/>
<path d="M50 320H550" stroke="#F0F0F0"/>
<path d="M50 330H550" stroke="#F0F0F0"/>
<path d="M50 340H550" stroke="#F0F0F0"/>
<path d="M50 350H550" stroke="#F0F0F0"/>
<path d="M50 50V350" stroke="#D0D0D0"/>
<path d="M300 50V350" stroke="#D0D0D0"/>
<path d="M550 50V350" stroke="#D0D0D0"/>
<path d="M50 50H550" stroke="#D0D0D0"/>
<path d="M50 100H550" stroke="#D0D0D0"/>
<path d="M50 150H550" stroke="#D0D0D0"/>
<path d="M50 200H550" stroke="#D0D0D0"/>
<path d="M50 250H550" stroke="#D0D0D0"/>
<path d="M50 300H550" stroke="#D0D0D0"/>
<path d="M50 350H550" stroke="#D0D0D0"/>
<path d="M50 50V350" stroke="#A0A0A0"/>
<path d="M550 50V350" stroke="#A0A0A0"/>
<path d="M50 50H550" stroke="#A0A0A0"/>
<path d="M50 150H550" stroke="#A0A0A0"/>
<path d="M50 250H550" stroke="#A0A0A0"/>
<path d="M50 350H550" stroke="#A0A0A0"/>
<rect x="50" y="250" width="400" height="100" fill="#38DC66" fill-opacity="0.33"/>
<path d="M240.38 199.08C240.38 198.16 240.727 197.367 241.42 196.7C242.113 196.02 242.953 195.68 243.94 195.68C244.86 195.68 245.647 195.913 246.3 196.38C246.953 196.847 247.373 197.46 247.56 198.22C247.573 198.3 247.58 198.46 247.58 198.7C247.58 199.273 247.42 199.813 247.1 200.32C246.767 200.8 246.2 201.287 245.4 201.78C245.56 201.887 245.733 202 245.92 202.12C246.453 202.467 246.833 202.753 247.06 202.98C247.3 203.207 247.54 203.547 247.78 204C248.007 204.52 248.12 205.04 248.12 205.56V205.8C248.12 206.013 248.087 206.233 248.02 206.46C247.807 207.313 247.333 208.02 246.6 208.58C245.867 209.14 244.973 209.42 243.92 209.42C242.88 209.42 241.993 209.147 241.26 208.6C240.54 208.053 240.087 207.353 239.9 206.5C239.873 206.393 239.86 206.193 239.86 205.9C239.86 205.047 240.127 204.313 240.66 203.7C241.1 203.18 241.66 202.733 242.34 202.36L242.52 202.26L242.22 202.06C241.86 201.833 241.593 201.633 241.42 201.46C240.727 200.767 240.38 199.973 240.38 199.08ZM243.98 196.48C243.367 196.48 242.807 196.653 242.3 197C241.793 197.333 241.54 197.787 241.54 198.36C241.54 198.787 241.7 199.173 242.02 199.52C242.127 199.64 242.64 200 243.56 200.6L244.68 201.32L244.88 201.18C245.573 200.74 246.033 200.22 246.26 199.62C246.367 199.393 246.42 199.1 246.42 198.74C246.42 198.5 246.407 198.327 246.38 198.22C246.247 197.713 245.96 197.3 245.52 196.98C245.093 196.647 244.58 196.48 243.98 196.48ZM244 208.58C244.8 208.58 245.473 208.347 246.02 207.88C246.58 207.4 246.86 206.84 246.86 206.2C246.86 205.68 246.653 205.193 246.24 204.74C246.08 204.58 245.513 204.187 244.54 203.56C244.353 203.44 244.14 203.307 243.9 203.16C243.673 203.013 243.507 202.907 243.4 202.84L243.24 202.74C243.173 202.74 242.987 202.86 242.68 203.1C241.92 203.647 241.433 204.32 241.22 205.12C241.153 205.413 241.12 205.66 241.12 205.86C241.12 206.62 241.407 207.267 241.98 207.8C242.553 208.32 243.227 208.58 244 208.58ZM259.9 202.68C259.9 202.067 259.713 201.587 259.34 201.24C258.967 200.893 258.453 200.72 257.8 200.72C256.573 200.72 255.96 201.153 255.96 202.02C255.96 202.193 255.973 202.307 256 202.36C256.12 202.68 256.327 202.913 256.62 203.06C256.913 203.193 257.367 203.32 257.98 203.44C258.74 203.573 259.26 203.72 259.54 203.88C260.38 204.28 260.92 204.94 261.16 205.86C261.173 205.94 261.18 206.1 261.18 206.34C261.18 207.287 260.893 208 260.32 208.48C259.76 208.96 258.973 209.2 257.96 209.2C257.16 209.2 256.467 208.96 255.88 208.48L255.72 208.62L255.54 208.8C255.46 208.88 255.38 208.953 255.3 209.02L255.08 209.22H254.92C254.827 209.22 254.74 209.18 254.66 209.1V207.52C254.66 206.667 254.66 206.173 254.66 206.04C254.673 205.893 254.707 205.807 254.76 205.78C254.787 205.767 254.893 205.76 255.08 205.76C255.253 205.76 255.353 205.773 255.38 205.8C255.42 205.827 255.46 205.92 255.5 206.08C255.607 206.587 255.78 207.047 256.02 207.46C256.487 208.14 257.133 208.48 257.96 208.48C259.253 208.48 259.9 207.96 259.9 206.92C259.9 206.533 259.78 206.22 259.54 205.98C259.327 205.727 259.047 205.547 258.7 205.44C258.473 205.387 258.153 205.313 257.74 205.22C256.993 205.073 256.487 204.933 256.22 204.8C255.34 204.387 254.827 203.767 254.68 202.94C254.667 202.887 254.66 202.787 254.66 202.64C254.66 201.107 255.6 200.247 257.48 200.06C257.533 200.033 257.693 200.033 257.96 200.06C258.493 200.06 258.96 200.16 259.36 200.36L259.66 200.52L259.84 200.38C260.013 200.233 260.16 200.12 260.28 200.04H260.44C260.533 200.04 260.62 200.08 260.7 200.16V202.8L260.58 202.92H260.02C259.94 202.84 259.9 202.76 259.9 202.68Z" fill="#333333"/>
<path d="M450.56 240.001C449.987 240.001 449.62 239.894 449.457 239.68C449.295 239.467 449.119 239.096 448.929 238.569C448.738 238.042 448.457 237.582 448.078 237.186C445.385 234.322 440.045 232.89 432.06 232.89L270.694 232.89C260.535 232.89 254.016 230.903 251.134 226.928C248.253 230.903 242.062 232.89 232.565 232.89L70.4409 232.89C68.1285 232.89 66.3774 232.923 65.1989 232.989C61.8906 233.22 59.0323 233.857 56.6241 234.903C54.2136 235.948 52.7722 237.244 52.2999 238.792C52.2999 238.825 52.2754 238.92 52.2286 239.075C52.1818 239.231 52.1351 239.343 52.0883 239.408C52.0415 239.475 51.968 239.565 51.8722 239.68C51.7742 239.796 51.6004 239.878 51.3531 239.927C51.108 239.977 50.8362 240.001 50.5399 240.001C49.3102 240.001 50.1813 236.334 53.1509 234.411C56.1228 232.489 60.4359 231.406 66.0923 231.162C67.0435 231.129 68.4448 231.113 70.2983 231.113L231.854 231.113C235.067 231.113 237.878 230.895 240.289 230.459C242.699 230.022 244.484 229.459 245.64 228.767C246.796 228.076 247.634 227.495 248.155 227.026C248.676 226.557 249.031 226.084 249.218 225.606C249.218 225.507 249.244 225.363 249.291 225.174C249.338 224.985 249.42 224.833 249.539 224.717C249.657 224.602 249.761 224.486 249.857 224.372C249.951 224.256 250.116 224.166 250.354 224.1C250.59 224.035 250.851 224.001 251.134 224.001C251.51 224.001 251.82 224.025 252.054 224.075C252.288 224.125 252.468 224.215 252.586 224.347C252.704 224.478 252.787 224.614 252.833 224.754C252.88 224.893 252.952 225.079 253.045 225.31C253.141 225.541 253.234 225.754 253.33 225.952C253.992 227.17 255.478 228.269 257.793 229.249C260.109 230.228 263.063 230.816 266.652 231.014C267.597 231.08 269.014 231.113 270.903 231.113L431.207 231.113C433.103 231.113 434.618 231.142 435.752 231.199C436.886 231.256 438.47 231.476 440.506 231.858C442.542 232.241 444.371 232.799 445.991 233.532C451.371 235.558 451.491 240.001 450.553 240.001L450.56 240.001Z" fill="#333333"/>
<path d="M491.32 305C491.093 304.96 490.033 304.94 488.14 304.94C486.273 304.94 485.227 304.96 485 305H484.76V304.08H485.28C486.053 304.08 486.553 304.06 486.78 304.02C486.887 304.007 487.047 303.927 487.26 303.78V293.44C487.233 293.44 487.18 293.46 487.1 293.5C486.487 293.74 485.8 293.867 485.04 293.88H484.66V292.96H485.04C486.16 292.92 487.093 292.667 487.84 292.2C488.08 292.067 488.287 291.913 488.46 291.74C488.487 291.7 488.567 291.68 488.7 291.68C488.833 291.68 488.947 291.72 489.04 291.8V297.78L489.06 303.78C489.26 303.98 489.693 304.08 490.36 304.08H491.02H491.54V305H491.32ZM494.92 293.3C495.667 292.22 496.687 291.68 497.98 291.68C498.953 291.68 499.807 292.013 500.54 292.68C500.9 293.027 501.207 293.48 501.46 294.04C501.953 295.147 502.2 296.667 502.2 298.6C502.2 300.667 501.913 302.247 501.34 303.34C500.967 304.113 500.42 304.673 499.7 305.02C499.14 305.3 498.573 305.44 498 305.44C496.467 305.44 495.347 304.74 494.64 303.34C494.067 302.247 493.78 300.667 493.78 298.6C493.78 297.36 493.86 296.34 494.02 295.54C494.193 294.727 494.493 293.98 494.92 293.3ZM499.42 293.06C499.033 292.633 498.56 292.42 498 292.42C497.44 292.42 496.96 292.633 496.56 293.06C496.267 293.367 496.067 293.74 495.96 294.18C495.853 294.62 495.787 295.38 495.76 296.46C495.76 296.54 495.753 296.8 495.74 297.24C495.74 297.68 495.74 298.047 495.74 298.34C495.74 299.62 495.753 300.513 495.78 301.02C495.833 301.953 495.913 302.627 496.02 303.04C496.127 303.44 496.327 303.787 496.62 304.08C496.98 304.48 497.44 304.68 498 304.68C498.547 304.68 499 304.48 499.36 304.08C499.653 303.787 499.853 303.44 499.96 303.04C500.067 302.627 500.147 301.953 500.2 301.02C500.227 300.513 500.24 299.62 500.24 298.34C500.24 298.047 500.233 297.68 500.22 297.24C500.22 296.8 500.22 296.54 500.22 296.46C500.193 295.38 500.127 294.62 500.02 294.18C499.913 293.74 499.713 293.367 499.42 293.06ZM508.54 296.38C508.593 296.38 509.1 296.347 510.06 296.28C511.033 296.2 511.533 296.16 511.56 296.16H511.62V296.96C511.62 297.467 511.627 297.72 511.64 297.72L511.66 297.7C512.38 296.673 513.4 296.16 514.72 296.16C516.013 296.2 516.807 296.707 517.1 297.68L517.14 297.78C517.46 297.38 517.64 297.16 517.68 297.12C518.36 296.48 519.153 296.16 520.06 296.16C521.727 296.16 522.64 296.913 522.8 298.42C522.813 298.513 522.82 299.44 522.82 301.2C522.82 302.907 522.827 303.773 522.84 303.8C522.947 303.987 523.28 304.08 523.84 304.08H524.06H524.38V305H524.22C524.047 304.96 523.3 304.94 521.98 304.94C520.66 304.94 519.913 304.96 519.74 305H519.58V304.08H519.9H520.06C520.767 304.08 521.12 303.973 521.12 303.76C521.133 303.733 521.14 302.813 521.14 301C521.127 299.2 521.113 298.247 521.1 298.14C521.007 297.713 520.853 297.407 520.64 297.22C520.44 297.02 520.127 296.92 519.7 296.92C519.1 296.92 518.573 297.147 518.12 297.6C517.653 298.067 517.38 298.653 517.3 299.36C517.3 299.373 517.293 299.5 517.28 299.74C517.28 299.967 517.28 300.26 517.28 300.62C517.28 300.98 517.28 301.32 517.28 301.64C517.28 301.84 517.28 302.053 517.28 302.28C517.28 302.493 517.28 302.687 517.28 302.86C517.28 303.033 517.28 303.193 517.28 303.34C517.293 303.473 517.3 303.587 517.3 303.68V303.8C517.407 303.987 517.74 304.08 518.3 304.08H518.52H518.84V305H518.68C518.507 304.96 517.76 304.94 516.44 304.94C515.12 304.94 514.373 304.96 514.2 305H514.04V304.08H514.36H514.52C515.227 304.08 515.58 303.973 515.58 303.76C515.593 303.733 515.6 302.813 515.6 301C515.587 299.2 515.573 298.247 515.56 298.14C515.467 297.713 515.313 297.407 515.1 297.22C514.9 297.02 514.587 296.92 514.16 296.92C513.56 296.92 513.033 297.147 512.58 297.6C512.113 298.067 511.84 298.653 511.76 299.36C511.76 299.373 511.76 299.5 511.76 299.74C511.76 299.967 511.753 300.26 511.74 300.62C511.74 300.98 511.74 301.32 511.74 301.64C511.74 301.84 511.74 302.053 511.74 302.28C511.74 302.493 511.74 302.687 511.74 302.86C511.753 303.033 511.76 303.193 511.76 303.34C511.76 303.473 511.76 303.587 511.76 303.68V303.8C511.867 303.987 512.2 304.08 512.76 304.08H512.98H513.3V305H513.14C512.967 304.96 512.22 304.94 510.9 304.94C509.58 304.94 508.833 304.96 508.66 305H508.5V304.08H508.82H509.04C509.6 304.08 509.933 303.987 510.04 303.8V303.64C510.04 303.52 510.04 303.367 510.04 303.18C510.04 302.993 510.04 302.787 510.04 302.56C510.053 302.32 510.06 302.06 510.06 301.78C510.06 301.487 510.06 301.207 510.06 300.94C510.06 300.527 510.053 300.087 510.04 299.62C510.04 299.14 510.04 298.747 510.04 298.44V297.98C510 297.727 509.9 297.56 509.74 297.48C509.593 297.387 509.3 297.327 508.86 297.3H508.5V296.84C508.5 296.533 508.513 296.38 508.54 296.38ZM532.8 290.2C532.867 290.067 532.987 290 533.16 290C533.267 290.013 533.36 290.06 533.44 290.14C533.52 290.22 533.553 290.307 533.54 290.4C533.54 290.467 532.38 293.687 530.06 300.06C527.753 306.42 526.567 309.667 526.5 309.8C526.42 309.933 526.313 310 526.18 310C526.073 310 525.98 309.96 525.9 309.88C525.82 309.813 525.78 309.727 525.78 309.62C525.78 309.487 526.94 306.233 529.26 299.86C531.58 293.473 532.76 290.253 532.8 290.2ZM540.56 298.68C540.56 298.067 540.373 297.587 540 297.24C539.627 296.893 539.113 296.72 538.46 296.72C537.233 296.72 536.62 297.153 536.62 298.02C536.62 298.193 536.633 298.307 536.66 298.36C536.78 298.68 536.987 298.913 537.28 299.06C537.573 299.193 538.027 299.32 538.64 299.44C539.4 299.573 539.92 299.72 540.2 299.88C541.04 300.28 541.58 300.94 541.82 301.86C541.833 301.94 541.84 302.1 541.84 302.34C541.84 303.287 541.553 304 540.98 304.48C540.42 304.96 539.633 305.2 538.62 305.2C537.82 305.2 537.127 304.96 536.54 304.48L536.38 304.62L536.2 304.8C536.12 304.88 536.04 304.953 535.96 305.02L535.74 305.22H535.58C535.487 305.22 535.4 305.18 535.32 305.1V303.52C535.32 302.667 535.32 302.173 535.32 302.04C535.333 301.893 535.367 301.807 535.42 301.78C535.447 301.767 535.553 301.76 535.74 301.76C535.913 301.76 536.013 301.773 536.04 301.8C536.08 301.827 536.12 301.92 536.16 302.08C536.267 302.587 536.44 303.047 536.68 303.46C537.147 304.14 537.793 304.48 538.62 304.48C539.913 304.48 540.56 303.96 540.56 302.92C540.56 302.533 540.44 302.22 540.2 301.98C539.987 301.727 539.707 301.547 539.36 301.44C539.133 301.387 538.813 301.313 538.4 301.22C537.653 301.073 537.147 300.933 536.88 300.8C536 300.387 535.487 299.767 535.34 298.94C535.327 298.887 535.32 298.787 535.32 298.64C535.32 297.107 536.26 296.247 538.14 296.06C538.193 296.033 538.353 296.033 538.62 296.06C539.153 296.06 539.62 296.16 540.02 296.36L540.32 296.52L540.5 296.38C540.673 296.233 540.82 296.12 540.94 296.04H541.1C541.193 296.04 541.28 296.08 541.36 296.16V298.8L541.24 298.92H540.68C540.6 298.84 540.56 298.76 540.56 298.68Z" fill="#333333"/>
<path d="M458 349.781C458 349.495 458.107 349.312 458.321 349.23C458.534 349.149 458.905 349.062 459.432 348.967C459.959 348.872 460.419 348.732 460.815 348.543C463.679 347.199 465.111 344.536 465.111 340.554V310.072C465.111 305.005 467.098 301.754 471.073 300.316C467.098 298.879 465.111 295.791 465.111 291.055V260.195C465.111 259.042 465.078 258.168 465.012 257.581C464.781 255.931 464.144 254.505 463.098 253.304C462.053 252.102 460.757 251.383 459.209 251.147C459.176 251.147 459.081 251.135 458.926 251.112C458.77 251.088 458.658 251.065 458.593 251.042C458.526 251.018 458.436 250.982 458.321 250.934C458.205 250.885 458.123 250.798 458.074 250.675C458.024 250.553 458 250.417 458 250.269C458 249.656 461.667 250.09 463.59 251.572C465.512 253.054 466.595 255.205 466.839 258.026C466.872 258.501 466.888 259.199 466.888 260.124V290.7C466.888 292.302 467.106 293.705 467.542 294.907C467.979 296.109 468.542 296.999 469.234 297.576C469.925 298.153 470.506 298.57 470.975 298.83C471.444 299.09 471.917 299.267 472.395 299.36C472.494 299.36 472.638 299.374 472.827 299.397C473.016 299.42 473.168 299.462 473.284 299.52C473.399 299.579 473.515 299.632 473.629 299.679C473.745 299.726 473.835 299.808 473.901 299.927C473.966 300.045 474 300.175 474 300.316C474 300.504 473.976 300.658 473.926 300.775C473.876 300.892 473.786 300.982 473.654 301.04C473.523 301.099 473.387 301.14 473.247 301.164C473.108 301.187 472.922 301.223 472.691 301.269C472.46 301.317 472.247 301.364 472.049 301.412C470.831 301.742 469.732 302.483 468.752 303.637C467.773 304.793 467.185 306.266 466.987 308.056C466.921 308.527 466.888 309.234 466.888 310.176V340.128C466.888 341.074 466.859 341.829 466.802 342.395C466.745 342.96 466.525 343.75 466.142 344.766C465.76 345.782 465.202 346.694 464.469 347.502C462.443 350.185 458 350.245 458 349.777V349.781Z" fill="#333333"/>
<path d="M199.32 304C199.093 303.96 198.033 303.94 196.14 303.94C194.273 303.94 193.227 303.96 193 304H192.76V303.08H193.28C194.053 303.08 194.553 303.06 194.78 303.02C194.887 303.007 195.047 302.927 195.26 302.78V292.44C195.233 292.44 195.18 292.46 195.1 292.5C194.487 292.74 193.8 292.867 193.04 292.88H192.66V291.96H193.04C194.16 291.92 195.093 291.667 195.84 291.2C196.08 291.067 196.287 290.913 196.46 290.74C196.487 290.7 196.567 290.68 196.7 290.68C196.833 290.68 196.947 290.72 197.04 290.8V296.78L197.06 302.78C197.26 302.98 197.693 303.08 198.36 303.08H199.02H199.54V304H199.32ZM202.92 292.3C203.667 291.22 204.687 290.68 205.98 290.68C206.953 290.68 207.807 291.013 208.54 291.68C208.9 292.027 209.207 292.48 209.46 293.04C209.953 294.147 210.2 295.667 210.2 297.6C210.2 299.667 209.913 301.247 209.34 302.34C208.967 303.113 208.42 303.673 207.7 304.02C207.14 304.3 206.573 304.44 206 304.44C204.467 304.44 203.347 303.74 202.64 302.34C202.067 301.247 201.78 299.667 201.78 297.6C201.78 296.36 201.86 295.34 202.02 294.54C202.193 293.727 202.493 292.98 202.92 292.3ZM207.42 292.06C207.033 291.633 206.56 291.42 206 291.42C205.44 291.42 204.96 291.633 204.56 292.06C204.267 292.367 204.067 292.74 203.96 293.18C203.853 293.62 203.787 294.38 203.76 295.46C203.76 295.54 203.753 295.8 203.74 296.24C203.74 296.68 203.74 297.047 203.74 297.34C203.74 298.62 203.753 299.513 203.78 300.02C203.833 300.953 203.913 301.627 204.02 302.04C204.127 302.44 204.327 302.787 204.62 303.08C204.98 303.48 205.44 303.68 206 303.68C206.547 303.68 207 303.48 207.36 303.08C207.653 302.787 207.853 302.44 207.96 302.04C208.067 301.627 208.147 300.953 208.2 300.02C208.227 299.513 208.24 298.62 208.24 297.34C208.24 297.047 208.233 296.68 208.22 296.24C208.22 295.8 208.22 295.54 208.22 295.46C208.193 294.38 208.127 293.62 208.02 293.18C207.913 292.74 207.713 292.367 207.42 292.06ZM228.6 303.42C228.6 303.527 228.56 303.62 228.48 303.7C228.4 303.78 228.3 303.82 228.18 303.82C228.113 303.82 227.967 303.713 227.74 303.5C227.513 303.287 226.887 302.667 225.86 301.64L223.78 299.56L221.68 301.66C220.267 303.047 219.54 303.753 219.5 303.78C219.447 303.807 219.4 303.82 219.36 303.82C219.253 303.82 219.153 303.78 219.06 303.7C218.98 303.62 218.94 303.527 218.94 303.42C218.94 303.393 218.953 303.34 218.98 303.26C219.02 303.18 219.727 302.453 221.1 301.08L223.18 299L221.1 296.92C219.727 295.547 219.02 294.82 218.98 294.74C218.953 294.687 218.94 294.64 218.94 294.6C218.94 294.493 218.98 294.4 219.06 294.32C219.14 294.227 219.233 294.18 219.34 294.18C219.367 294.18 219.42 294.193 219.5 294.22C219.54 294.247 220.267 294.953 221.68 296.34L223.78 298.44L225.86 296.36C226.887 295.333 227.513 294.713 227.74 294.5C227.967 294.287 228.113 294.18 228.18 294.18C228.3 294.18 228.4 294.22 228.48 294.3C228.56 294.38 228.6 294.473 228.6 294.58C228.6 294.633 228.587 294.687 228.56 294.74C228.533 294.793 227.827 295.513 226.44 296.9L224.36 299L226.44 301.1C227.827 302.487 228.533 303.207 228.56 303.26C228.587 303.313 228.6 303.367 228.6 303.42ZM240.006 297.3C239.353 296.873 238.846 296.427 238.486 295.96C238.14 295.493 237.966 294.88 237.966 294.12C237.966 293.547 238.073 293.067 238.286 292.68C238.58 292.08 239.006 291.6 239.566 291.24C240.14 290.867 240.793 290.68 241.526 290.68C242.433 290.68 243.22 290.92 243.886 291.4C244.553 291.867 244.966 292.473 245.126 293.22C245.14 293.3 245.146 293.46 245.146 293.7C245.146 293.993 245.133 294.193 245.106 294.3C244.906 295.18 244.3 295.94 243.286 296.58C243.26 296.593 243.22 296.613 243.166 296.64C243.126 296.667 243.1 296.693 243.086 296.72L243.046 296.74C243.793 297.247 244.18 297.513 244.206 297.54C245.206 298.34 245.706 299.333 245.706 300.52C245.706 301.6 245.306 302.527 244.506 303.3C243.72 304.06 242.733 304.44 241.546 304.44C239.906 304.44 238.7 303.84 237.926 302.64C237.593 302.16 237.426 301.58 237.426 300.9C237.426 300.593 237.44 300.387 237.466 300.28C237.666 299.267 238.306 298.4 239.386 297.68C239.466 297.627 239.586 297.553 239.746 297.46C239.906 297.367 239.993 297.313 240.006 297.3ZM243.986 293.74C243.986 293.167 243.8 292.68 243.426 292.28C243.053 291.88 242.6 291.627 242.066 291.52C241.973 291.507 241.753 291.5 241.406 291.5C240.7 291.5 240.106 291.74 239.626 292.22C239.293 292.527 239.126 292.893 239.126 293.32C239.126 293.893 239.366 294.347 239.846 294.68C239.913 294.747 240.34 295.027 241.126 295.52L242.286 296.28C242.3 296.267 242.386 296.213 242.546 296.12C242.706 296.013 242.826 295.92 242.906 295.84C243.626 295.267 243.986 294.567 243.986 293.74ZM238.706 300.86C238.706 301.647 238.993 302.3 239.566 302.82C240.14 303.327 240.806 303.58 241.566 303.58C242.113 303.58 242.606 303.467 243.046 303.24C243.5 303.013 243.84 302.72 244.066 302.36C244.293 302.013 244.406 301.647 244.406 301.26C244.406 300.687 244.173 300.18 243.706 299.74C243.6 299.633 243.046 299.253 242.046 298.6C241.86 298.48 241.653 298.353 241.426 298.22C241.213 298.073 241.046 297.96 240.926 297.88L240.766 297.78L240.526 297.9C239.686 298.447 239.133 299.113 238.866 299.9C238.76 300.247 238.706 300.567 238.706 300.86ZM252.106 295.38C252.16 295.38 252.666 295.347 253.626 295.28C254.6 295.2 255.1 295.16 255.126 295.16H255.186V295.96C255.186 296.467 255.193 296.72 255.206 296.72L255.226 296.7C255.946 295.673 256.966 295.16 258.286 295.16C259.58 295.2 260.373 295.707 260.666 296.68L260.706 296.78C261.026 296.38 261.206 296.16 261.246 296.12C261.926 295.48 262.72 295.16 263.626 295.16C265.293 295.16 266.206 295.913 266.366 297.42C266.38 297.513 266.386 298.44 266.386 300.2C266.386 301.907 266.393 302.773 266.406 302.8C266.513 302.987 266.846 303.08 267.406 303.08H267.626H267.946V304H267.786C267.613 303.96 266.866 303.94 265.546 303.94C264.226 303.94 263.48 303.96 263.306 304H263.146V303.08H263.466H263.626C264.333 303.08 264.686 302.973 264.686 302.76C264.7 302.733 264.706 301.813 264.706 300C264.693 298.2 264.68 297.247 264.666 297.14C264.573 296.713 264.42 296.407 264.206 296.22C264.006 296.02 263.693 295.92 263.266 295.92C262.666 295.92 262.14 296.147 261.686 296.6C261.22 297.067 260.946 297.653 260.866 298.36C260.866 298.373 260.86 298.5 260.846 298.74C260.846 298.967 260.846 299.26 260.846 299.62C260.846 299.98 260.846 300.32 260.846 300.64C260.846 300.84 260.846 301.053 260.846 301.28C260.846 301.493 260.846 301.687 260.846 301.86C260.846 302.033 260.846 302.193 260.846 302.34C260.86 302.473 260.866 302.587 260.866 302.68V302.8C260.973 302.987 261.306 303.08 261.866 303.08H262.086H262.406V304H262.246C262.073 303.96 261.326 303.94 260.006 303.94C258.686 303.94 257.94 303.96 257.766 304H257.606V303.08H257.926H258.086C258.793 303.08 259.146 302.973 259.146 302.76C259.16 302.733 259.166 301.813 259.166 300C259.153 298.2 259.14 297.247 259.126 297.14C259.033 296.713 258.88 296.407 258.666 296.22C258.466 296.02 258.153 295.92 257.726 295.92C257.126 295.92 256.6 296.147 256.146 296.6C255.68 297.067 255.406 297.653 255.326 298.36C255.326 298.373 255.326 298.5 255.326 298.74C255.326 298.967 255.32 299.26 255.306 299.62C255.306 299.98 255.306 300.32 255.306 300.64C255.306 300.84 255.306 301.053 255.306 301.28C255.306 301.493 255.306 301.687 255.306 301.86C255.32 302.033 255.326 302.193 255.326 302.34C255.326 302.473 255.326 302.587 255.326 302.68V302.8C255.433 302.987 255.766 303.08 256.326 303.08H256.546H256.866V304H256.706C256.533 303.96 255.786 303.94 254.466 303.94C253.146 303.94 252.4 303.96 252.226 304H252.066V303.08H252.386H252.606C253.166 303.08 253.5 302.987 253.606 302.8V302.64C253.606 302.52 253.606 302.367 253.606 302.18C253.606 301.993 253.606 301.787 253.606 301.56C253.62 301.32 253.626 301.06 253.626 300.78C253.626 300.487 253.626 300.207 253.626 299.94C253.626 299.527 253.62 299.087 253.606 298.62C253.606 298.14 253.606 297.747 253.606 297.44V296.98C253.566 296.727 253.466 296.56 253.306 296.48C253.16 296.387 252.866 296.327 252.426 296.3H252.066V295.84C252.066 295.533 252.08 295.38 252.106 295.38ZM276.527 299.1C276.527 299.193 276.48 299.287 276.387 299.38H270.747V299.68C270.747 300.667 270.88 301.413 271.147 301.92C271.627 302.907 272.453 303.4 273.627 303.4C274.2 303.4 274.68 303.187 275.067 302.76C275.333 302.493 275.54 302.147 275.687 301.72C275.727 301.573 275.767 301.48 275.807 301.44C275.847 301.4 275.953 301.38 276.127 301.38C276.393 301.38 276.527 301.447 276.527 301.58C276.527 301.633 276.507 301.72 276.467 301.84C276.213 302.533 275.807 303.107 275.247 303.56C274.7 304 274.027 304.22 273.227 304.22C272.973 304.22 272.68 304.187 272.347 304.12C271.587 303.973 270.907 303.627 270.307 303.08C269.707 302.533 269.28 301.873 269.027 301.1C268.867 300.62 268.787 300.133 268.787 299.64C268.787 298.413 269.147 297.38 269.867 296.54C270.587 295.687 271.473 295.193 272.527 295.06C272.58 295.047 272.673 295.04 272.807 295.04C274.02 295.04 274.94 295.4 275.567 296.12C276.207 296.827 276.527 297.82 276.527 299.1ZM274.887 298.5C274.767 297.047 274.273 296.167 273.407 295.86C273.313 295.82 273.173 295.793 272.987 295.78C272.293 295.78 271.727 296.1 271.287 296.74C271.02 297.167 270.847 297.76 270.767 298.52V298.66H274.887V298.5ZM279.933 292V291.7H280.733V295.38H283.433V296.3H280.733V299.18C280.747 300.847 280.753 301.793 280.753 302.02C280.767 302.233 280.813 302.44 280.893 302.64C281.08 303.16 281.407 303.42 281.873 303.42C282.46 303.42 282.82 302.947 282.953 302C282.967 301.893 282.973 301.587 282.973 301.08V300.38H283.773V301.08C283.773 301.693 283.74 302.133 283.673 302.4C283.527 302.933 283.273 303.367 282.913 303.7C282.567 304.033 282.107 304.2 281.533 304.2C280.813 304.2 280.24 304.007 279.813 303.62C279.387 303.22 279.14 302.68 279.073 302C279.06 301.907 279.053 300.92 279.053 299.04V296.3H277.473V295.56H277.653C278.147 295.52 278.567 295.307 278.913 294.92C279.527 294.28 279.867 293.307 279.933 292ZM293.187 299.1C293.187 299.193 293.14 299.287 293.047 299.38H287.407V299.68C287.407 300.667 287.54 301.413 287.807 301.92C288.287 302.907 289.113 303.4 290.287 303.4C290.86 303.4 291.34 303.187 291.727 302.76C291.993 302.493 292.2 302.147 292.347 301.72C292.387 301.573 292.427 301.48 292.467 301.44C292.507 301.4 292.613 301.38 292.787 301.38C293.053 301.38 293.187 301.447 293.187 301.58C293.187 301.633 293.167 301.72 293.127 301.84C292.873 302.533 292.467 303.107 291.907 303.56C291.36 304 290.687 304.22 289.887 304.22C289.633 304.22 289.34 304.187 289.007 304.12C288.247 303.973 287.567 303.627 286.967 303.08C286.367 302.533 285.94 301.873 285.687 301.1C285.527 300.62 285.447 300.133 285.447 299.64C285.447 298.413 285.807 297.38 286.527 296.54C287.247 295.687 288.133 295.193 289.187 295.06C289.24 295.047 289.333 295.04 289.467 295.04C290.68 295.04 291.6 295.4 292.227 296.12C292.867 296.827 293.187 297.82 293.187 299.1ZM291.547 298.5C291.427 297.047 290.933 296.167 290.067 295.86C289.973 295.82 289.833 295.793 289.647 295.78C288.953 295.78 288.387 296.1 287.947 296.74C287.68 297.167 287.507 297.76 287.427 298.52V298.66H291.547V298.5ZM294.213 295.38C294.267 295.38 294.767 295.347 295.713 295.28C296.673 295.2 297.167 295.16 297.193 295.16H297.253V296.54C297.507 296.113 297.787 295.78 298.093 295.54C298.4 295.3 298.807 295.18 299.313 295.18C299.687 295.18 300.007 295.253 300.273 295.4C300.793 295.667 301.053 296.047 301.053 296.54C301.053 296.833 300.953 297.08 300.753 297.28C300.553 297.467 300.313 297.56 300.033 297.56C299.753 297.56 299.513 297.467 299.313 297.28C299.127 297.093 299.033 296.853 299.033 296.56C299.033 296.333 299.087 296.147 299.193 296C299.22 295.947 299.233 295.913 299.233 295.9C299.207 295.873 299.053 295.9 298.773 295.98C298.56 296.087 298.4 296.187 298.293 296.28C297.76 296.787 297.453 297.627 297.373 298.8V299.58C297.36 300.1 297.353 300.547 297.353 300.92C297.353 301.093 297.353 301.28 297.353 301.48C297.353 301.667 297.353 301.833 297.353 301.98C297.367 302.127 297.373 302.26 297.373 302.38C297.373 302.5 297.373 302.6 297.373 302.68V302.78C297.427 302.887 297.507 302.953 297.613 302.98C297.747 303.033 298.1 303.067 298.673 303.08H299.293V304H299.113C298.873 303.96 298.027 303.94 296.573 303.94C295.267 303.94 294.52 303.96 294.333 304H294.173V303.08H294.493H294.713C295.273 303.08 295.607 302.987 295.713 302.8V302.64C295.713 302.52 295.713 302.367 295.713 302.18C295.727 301.993 295.733 301.787 295.733 301.56C295.733 301.32 295.733 301.06 295.733 300.78C295.733 300.487 295.733 300.207 295.733 299.94C295.733 299.527 295.733 299.087 295.733 298.62C295.733 298.14 295.733 297.747 295.733 297.44L295.713 296.98C295.673 296.727 295.573 296.56 295.413 296.48C295.267 296.387 294.973 296.327 294.533 296.3H294.173V295.84C294.173 295.533 294.187 295.38 294.213 295.38ZM307.505 297.68C307.505 297.067 307.319 296.587 306.945 296.24C306.572 295.893 306.059 295.72 305.405 295.72C304.179 295.72 303.565 296.153 303.565 297.02C303.565 297.193 303.579 297.307 303.605 297.36C303.725 297.68 303.932 297.913 304.225 298.06C304.519 298.193 304.972 298.32 305.585 298.44C306.345 298.573 306.865 298.72 307.145 298.88C307.985 299.28 308.525 299.94 308.765 300.86C308.779 300.94 308.785 301.1 308.785 301.34C308.785 302.287 308.499 303 307.925 303.48C307.365 303.96 306.579 304.2 305.565 304.2C304.765 304.2 304.072 303.96 303.485 303.48L303.325 303.62L303.145 303.8C303.065 303.88 302.985 303.953 302.905 304.02L302.685 304.22H302.525C302.432 304.22 302.345 304.18 302.265 304.1V302.52C302.265 301.667 302.265 301.173 302.265 301.04C302.279 300.893 302.312 300.807 302.365 300.78C302.392 300.767 302.499 300.76 302.685 300.76C302.859 300.76 302.959 300.773 302.985 300.8C303.025 300.827 303.065 300.92 303.105 301.08C303.212 301.587 303.385 302.047 303.625 302.46C304.092 303.14 304.739 303.48 305.565 303.48C306.859 303.48 307.505 302.96 307.505 301.92C307.505 301.533 307.385 301.22 307.145 300.98C306.932 300.727 306.652 300.547 306.305 300.44C306.079 300.387 305.759 300.313 305.345 300.22C304.599 300.073 304.092 299.933 303.825 299.8C302.945 299.387 302.432 298.767 302.285 297.94C302.272 297.887 302.265 297.787 302.265 297.64C302.265 296.107 303.205 295.247 305.085 295.06C305.139 295.033 305.299 295.033 305.565 295.06C306.099 295.06 306.565 295.16 306.965 295.36L307.265 295.52L307.445 295.38C307.619 295.233 307.765 295.12 307.885 295.04H308.045C308.139 295.04 308.225 295.08 308.305 295.16V297.8L308.185 297.92H307.625C307.545 297.84 307.505 297.76 307.505 297.68Z" fill="#333333"/>
<path d="M50 250H450" stroke="#1F72EF" stroke-width="1.5"/>
<path d="M264.3 25.14C264.647 25.14 264.907 25.2867 265.08 25.58C265.253 25.8733 265.34 26.2333 265.34 26.66C265.34 27.1267 265.207 27.8933 264.94 28.96C264.687 29.9867 264.367 30.88 263.98 31.64C263.14 33.36 262.087 34.22 260.82 34.22C259.967 34.22 259.287 34.0067 258.78 33.58C258.287 33.14 258.04 32.5 258.04 31.66C258.04 31.42 258.053 31.1933 258.08 30.98C258.2 30.34 258.513 29.36 259.02 28.04L259.34 27.08C259.42 26.84 259.46 26.6133 259.46 26.4C259.46 26.0667 259.333 25.9 259.08 25.9C258.987 25.9 258.88 25.92 258.76 25.96C258.08 26.2 257.567 26.9667 257.22 28.26C257.22 28.2733 257.213 28.3 257.2 28.34C257.187 28.3667 257.173 28.3867 257.16 28.4C257.16 28.4 257.153 28.4067 257.14 28.42C257.127 28.4333 257.1 28.44 257.06 28.44C257.033 28.44 257.007 28.44 256.98 28.44C256.953 28.44 256.9 28.44 256.82 28.44H256.54C256.433 28.3333 256.413 28.1733 256.48 27.96C256.8 26.9067 257.293 26.12 257.96 25.6C258.32 25.32 258.733 25.18 259.2 25.18C259.72 25.18 260.147 25.3267 260.48 25.62C260.813 25.9133 260.98 26.3 260.98 26.78C260.98 27.0067 260.96 27.18 260.92 27.3C260.92 27.3933 260.82 27.6867 260.62 28.18C260.007 29.8467 259.68 31.0333 259.64 31.74C259.64 32.1 259.673 32.3933 259.74 32.62C259.913 33.1933 260.333 33.48 261 33.48C261.36 33.48 261.68 33.3733 261.96 33.16C262.787 32.6133 263.473 31.3533 264.02 29.38C264.127 29.0067 264.18 28.7 264.18 28.46C264.18 27.8733 263.92 27.3467 263.4 26.88C263.227 26.72 263.14 26.54 263.14 26.34C263.14 26.0467 263.26 25.7733 263.5 25.52C263.74 25.2667 264.007 25.14 264.3 25.14ZM272.367 38.82C272.367 38.94 272.247 39 272.007 39H271.747C271.654 38.92 271.467 38.76 271.187 38.52C268.787 36.3333 267.587 33.16 267.587 29C267.587 27.3733 267.78 25.8867 268.167 24.54C268.78 22.4467 269.787 20.76 271.187 19.48C271.28 19.4 271.387 19.3133 271.507 19.22C271.627 19.1133 271.707 19.04 271.747 19H272.007C272.167 19 272.267 19.02 272.307 19.06C272.347 19.1 272.367 19.14 272.367 19.18C272.367 19.2333 272.294 19.3333 272.147 19.48C270.08 21.6667 269.047 24.84 269.047 29C269.047 33.16 270.08 36.3333 272.147 38.52C272.294 38.6667 272.367 38.7667 272.367 38.82ZM276.18 32.64C276.18 33.2 276.36 33.48 276.72 33.48C276.814 33.48 276.894 33.4733 276.96 33.46C277.627 33.34 278.234 32.8067 278.78 31.86C278.914 31.6467 279.034 31.4 279.14 31.12C279.167 31.04 279.2 30.9933 279.24 30.98C279.28 30.9533 279.38 30.94 279.54 30.94C279.807 30.94 279.94 30.9933 279.94 31.1C279.94 31.1267 279.914 31.2067 279.86 31.34C279.714 31.7667 279.474 32.2 279.14 32.64C278.82 33.0667 278.494 33.4067 278.16 33.66C277.667 34.0333 277.14 34.22 276.58 34.22C276.1 34.22 275.687 34.1 275.34 33.86C275.007 33.6067 274.78 33.28 274.66 32.88C274.634 32.7733 274.62 32.5933 274.62 32.34V31.98L275.32 29.18C275.787 27.3 276.027 26.3533 276.04 26.34C276.04 26.3133 275.7 26.3 275.02 26.3H274C273.92 26.22 273.874 26.1667 273.86 26.14C273.86 26.1133 273.88 26 273.92 25.8C273.974 25.6133 274.007 25.5133 274.02 25.5C274.047 25.4333 274.107 25.4 274.2 25.4C274.307 25.3867 274.647 25.38 275.22 25.38H276.28L276.66 23.78C276.94 22.7 277.1 22.12 277.14 22.04C277.3 21.6667 277.607 21.48 278.06 21.48C278.234 21.4933 278.38 21.5533 278.5 21.66C278.634 21.7667 278.7 21.9067 278.7 22.08C278.7 22.24 278.574 22.8067 278.32 23.78C278.267 24.0067 278.2 24.26 278.12 24.54C278.054 24.8067 278 25.0067 277.96 25.14L277.92 25.34C277.92 25.3667 278.254 25.38 278.92 25.38H279.94C280.02 25.46 280.06 25.52 280.06 25.56C280.074 25.5867 280.06 25.7067 280.02 25.92C279.98 26.08 279.914 26.2067 279.82 26.3H277.68L276.96 29.2C276.467 31.1867 276.214 32.2333 276.2 32.34C276.187 32.4067 276.18 32.5067 276.18 32.64ZM281.907 19.02L281.987 19C282.054 19 282.12 19 282.187 19H282.427C282.52 19.08 282.707 19.24 282.987 19.48C285.387 21.6667 286.587 24.84 286.587 29C286.587 30.64 286.394 32.12 286.007 33.44C285.394 35.5467 284.387 37.24 282.987 38.52C282.894 38.6 282.787 38.6867 282.667 38.78C282.547 38.8867 282.467 38.96 282.427 39H282.187C282.027 39 281.92 38.9867 281.867 38.96C281.827 38.9333 281.807 38.8667 281.807 38.76C281.82 38.7467 281.894 38.66 282.027 38.5C284.094 36.3533 285.127 33.1867 285.127 29C285.127 24.8133 284.094 21.6467 282.027 19.5C281.894 19.34 281.82 19.2533 281.807 19.24C281.807 19.1333 281.84 19.06 281.907 19.02ZM294.6 27.06C294.6 26.8867 294.694 26.7533 294.88 26.66H307.62C307.82 26.7533 307.92 26.8867 307.92 27.06C307.92 27.2067 307.827 27.3333 307.64 27.44L301.28 27.46H294.92C294.707 27.3933 294.6 27.26 294.6 27.06ZM294.6 30.94C294.6 30.74 294.707 30.6067 294.92 30.54H307.64C307.654 30.5533 307.68 30.58 307.72 30.62C307.774 30.6467 307.807 30.6733 307.82 30.7C307.847 30.7133 307.867 30.7467 307.88 30.8C307.907 30.84 307.92 30.8867 307.92 30.94C307.92 31.1133 307.82 31.2467 307.62 31.34H294.88C294.694 31.2467 294.6 31.1133 294.6 30.94ZM322.367 34C322.14 33.96 321.08 33.94 319.187 33.94C317.32 33.94 316.274 33.96 316.047 34H315.807V33.08H316.327C317.1 33.08 317.6 33.06 317.827 33.02C317.934 33.0067 318.094 32.9267 318.307 32.78V22.44C318.28 22.44 318.227 22.46 318.147 22.5C317.534 22.74 316.847 22.8667 316.087 22.88H315.707V21.96H316.087C317.207 21.92 318.14 21.6667 318.887 21.2C319.127 21.0667 319.334 20.9133 319.507 20.74C319.534 20.7 319.614 20.68 319.747 20.68C319.88 20.68 319.994 20.72 320.087 20.8V26.78L320.107 32.78C320.307 32.98 320.74 33.08 321.407 33.08H322.067H322.587V34H322.367ZM325.967 22.3C326.714 21.22 327.734 20.68 329.027 20.68C330 20.68 330.854 21.0133 331.587 21.68C331.947 22.0267 332.254 22.48 332.507 23.04C333 24.1467 333.247 25.6667 333.247 27.6C333.247 29.6667 332.96 31.2467 332.387 32.34C332.014 33.1133 331.467 33.6733 330.747 34.02C330.187 34.3 329.62 34.44 329.047 34.44C327.514 34.44 326.394 33.74 325.687 32.34C325.114 31.2467 324.827 29.6667 324.827 27.6C324.827 26.36 324.907 25.34 325.067 24.54C325.24 23.7267 325.54 22.98 325.967 22.3ZM330.467 22.06C330.08 21.6333 329.607 21.42 329.047 21.42C328.487 21.42 328.007 21.6333 327.607 22.06C327.314 22.3667 327.114 22.74 327.007 23.18C326.9 23.62 326.834 24.38 326.807 25.46C326.807 25.54 326.8 25.8 326.787 26.24C326.787 26.68 326.787 27.0467 326.787 27.34C326.787 28.62 326.8 29.5133 326.827 30.02C326.88 30.9533 326.96 31.6267 327.067 32.04C327.174 32.44 327.374 32.7867 327.667 33.08C328.027 33.48 328.487 33.68 329.047 33.68C329.594 33.68 330.047 33.48 330.407 33.08C330.7 32.7867 330.9 32.44 331.007 32.04C331.114 31.6267 331.194 30.9533 331.247 30.02C331.274 29.5133 331.287 28.62 331.287 27.34C331.287 27.0467 331.28 26.68 331.267 26.24C331.267 25.8 331.267 25.54 331.267 25.46C331.24 24.38 331.174 23.62 331.067 23.18C330.96 22.74 330.76 22.3667 330.467 22.06Z" fill="#333333"/>
</g>
<defs>
<clipPath id="clip0_197_321">
<rect width="600" height="400" fill="white"/>
</clipPath>
</defs>
</svg>
