<svg width="600" height="420" viewBox="0 0 600 420" fill="none" xmlns="http://www.w3.org/2000/svg">
<g clip-path="url(#clip0_934_907)">
<path d="M600 0H0V420H600V0Z" fill="black"/>
<path d="M540 60H60V360H540V60Z" fill="black"/>
<path d="M60 72H540" stroke="#181818"/>
<path d="M60 84H540" stroke="#181818"/>
<path d="M60 96H540" stroke="#181818"/>
<path d="M60 108H540" stroke="#181818"/>
<path d="M60 132H540" stroke="#181818"/>
<path d="M60 144H540" stroke="#181818"/>
<path d="M60 156H540" stroke="#181818"/>
<path d="M60 168H540" stroke="#181818"/>
<path d="M60 192H540" stroke="#181818"/>
<path d="M60 204H540" stroke="#181818"/>
<path d="M60 216H540" stroke="#181818"/>
<path d="M60 228H540" stroke="#181818"/>
<path d="M60 252H540" stroke="#181818"/>
<path d="M60 264H540" stroke="#181818"/>
<path d="M60 276H540" stroke="#181818"/>
<path d="M60 288H540" stroke="#181818"/>
<path d="M60 312H540" stroke="#181818"/>
<path d="M60 324H540" stroke="#181818"/>
<path d="M60 336H540" stroke="#181818"/>
<path d="M60 348H540" stroke="#181818"/>
<path d="M120 60V360" stroke="#181818"/>
<path d="M180 60V360" stroke="#181818"/>
<path d="M240 60V360" stroke="#181818"/>
<path d="M300 60V360" stroke="#181818"/>
<path d="M420 60V360" stroke="#181818"/>
<path d="M480 60V360" stroke="#181818"/>
<path d="M540 60V360" stroke="#181818"/>
<path d="M60 60H540" stroke="#262626"/>
<path d="M60 180H540" stroke="#262626"/>
<path d="M60 300H540" stroke="#262626"/>
<path d="M360 60V360" stroke="#262626"/>
<path d="M60 120H540" stroke="#404040"/>
<path d="M60 240H540" stroke="#404040"/>
<path d="M60 360H540" stroke="#404040"/>
<path d="M60 60V360" stroke="#404040"/>
<path d="M60 72H540" stroke="#181818"/>
<path d="M60 84H540" stroke="#181818"/>
<path d="M60 96H540" stroke="#181818"/>
<path d="M60 108H540" stroke="#181818"/>
<path d="M60 132H540" stroke="#181818"/>
<path d="M60 144H540" stroke="#181818"/>
<path d="M60 156H540" stroke="#181818"/>
<path d="M60 168H540" stroke="#181818"/>
<path d="M60 192H540" stroke="#181818"/>
<path d="M60 204H540" stroke="#181818"/>
<path d="M60 216H540" stroke="#181818"/>
<path d="M60 228H540" stroke="#181818"/>
<path d="M60 252H540" stroke="#181818"/>
<path d="M60 264H540" stroke="#181818"/>
<path d="M60 276H540" stroke="#181818"/>
<path d="M60 288H540" stroke="#181818"/>
<path d="M60 312H540" stroke="#181818"/>
<path d="M60 324H540" stroke="#181818"/>
<path d="M60 336H540" stroke="#181818"/>
<path d="M60 348H540" stroke="#181818"/>
<path d="M120 60V360" stroke="#181818"/>
<path d="M180 60V360" stroke="#181818"/>
<path d="M240 60V360" stroke="#181818"/>
<path d="M300 60V360" stroke="#181818"/>
<path d="M420 60V360" stroke="#181818"/>
<path d="M480 60V360" stroke="#181818"/>
<path d="M540 60V360" stroke="#181818"/>
<path d="M60 60H540" stroke="#262626"/>
<path d="M60 180H540" stroke="#262626"/>
<path d="M60 300H540" stroke="#262626"/>
<path d="M360 60V360" stroke="#262626"/>
<path d="M60 120H540" stroke="#404040"/>
<path d="M60 240H540" stroke="#404040"/>
<path d="M60 360H540" stroke="#404040"/>
<path d="M60 60V360" stroke="#404040"/>
<path d="M60 360L61 358.403L62 356.813L63 355.23L64 353.653L65 352.083L66 350.52L67 348.963L68 347.413L69 345.87L70 344.333L71 342.803L72 341.28L73 339.763L74 338.253L75 336.75L76 335.253L77 333.763L78 332.28L79 330.803L80 329.333L81 327.87L82 326.413L83 324.963L84 323.52L85 322.083L86 320.653L87 319.23L88 317.813L89 316.403L90 315L91 313.603L92 312.213L93 310.83L94 309.453L95 308.083L96 306.72L97 305.363L98 304.013L99 302.67L100 301.333L101 300.003L102 298.68L103 297.363L104 296.053L105 294.75L106 293.453L107 292.163L108 290.88L109 289.603L110 288.333L111 287.07L112 285.813L113 284.563L114 283.32L115 282.083L116 280.853L117 279.63L118 278.413L119 277.203L120 276L121 274.803L122 273.613L123 272.43L124 271.253L125 270.083L126 268.92L127 267.763L128 266.613L129 265.47L130 264.333L131 263.203L132 262.08L133 260.963L134 259.853L135 258.75L136 257.653L137 256.563L138 255.48L139 254.403L140 253.333L141 252.27L142 251.213L143 250.163L144 249.12L145 248.083L146 247.053L147 246.03L148 245.013L149 244.003L150 243L151 242.003L152 241.013L153 240.03L154 239.053L155 238.083L156 237.12L157 236.163L158 235.213L159 234.27L160 233.333L161 232.403L162 231.48L163 230.563L164 229.653L165 228.75L166 227.853L167 226.963L168 226.08L169 225.203L170 224.333L171 223.47L172 222.613L173 221.763L174 220.92L175 220.083L176 219.253L177 218.43L178 217.613L179 216.803L180 216L181 215.203L182 214.413L183 213.63L184 212.853L185 212.083L186 211.32L187 210.563L188 209.813L189 209.07L190 208.333L191 207.603L192 206.88L193 206.163L194 205.453L195 204.75L196 204.053L197 203.363L198 202.68L199 202.003L200 201.333L201 200.67L202 200.013L203 199.363L204 198.72L205 198.083L206 197.453L207 196.83L208 196.213L209 195.603L210 195L211 194.403L212 193.813L213 193.23L214 192.653L215 192.083L216 191.52L217 190.963L218 190.413L219 189.87L220 189.333L221 188.803L222 188.28L223 187.763L224 187.253L225 186.75L226 186.253L227 185.763L228 185.28L229 184.803L230 184.333L231 183.87L232 183.413L233 182.963L234 182.52L235 182.083L236 181.653L237 181.23L238 180.813L239 180.403L240 180L241 179.603L242 179.213L243 178.83L244 178.453L245 178.083L246 177.72L247 177.363L248 177.013L249 176.67L250 176.333L251 176.003L252 175.68L253 175.363L254 175.053L255 174.75L256 174.453L257 174.163L258 173.88L259 173.603L260 173.333L261 173.07L262 172.813L263 172.563L264 172.32L265 172.083L266 171.853L267 171.63L268 171.413L269 171.203L270 171L271 170.803L272 170.613L273 170.43L274 170.253L275 170.083L276 169.92L277 169.763L278 169.613L279 169.47L280 169.333L281 169.203L282 169.08L283 168.963L284 168.853L285 168.75L286 168.653L287 168.563L288 168.48L289 168.403L290 168.333L291 168.27L292 168.213L293 168.163L294 168.12L295 168.083L296 168.053L297 168.03L298 168.013L299 168.003L300 168L301 168.003L302 168.013L303 168.03L304 168.053L305 168.083L306 168.12L307 168.163L308 168.213L309 168.27L310 168.333L311 168.403L312 168.48L313 168.563L314 168.653L315 168.75L316 168.853L317 168.963L318 169.08L319 169.203L320 169.333L321 169.47L322 169.613L323 169.763L324 169.92L325 170.083L326 170.253L327 170.43L328 170.613L329 170.803L330 171L331 171.203L332 171.413L333 171.63L334 171.853L335 172.083L336 172.32L337 172.563L338 172.813L339 173.07L340 173.333L341 173.603L342 173.88L343 174.163L344 174.453L345 174.75L346 175.053L347 175.363L348 175.68L349 176.003L350 176.333L351 176.67L352 177.013L353 177.363L354 177.72L355 178.083L356 178.453L357 178.83L358 179.213L359 179.603L360 180L361 180.403L362 180.813L363 181.23L364 181.653L365 182.083L366 182.52L367 182.963L368 183.413L369 183.87L370 184.333L371 184.803L372 185.28L373 185.763L374 186.253L375 186.75L376 187.253L377 187.763L378 188.28L379 188.803L380 189.333L381 189.87L382 190.413L383 190.963L384 191.52L385 192.083L386 192.653L387 193.23L388 193.813L389 194.403L390 195L391 195.603L392 196.213L393 196.83L394 197.453L395 198.083L396 198.72L397 199.363L398 200.013L399 200.67L400 201.333L401 202.003L402 202.68L403 203.363L404 204.053L405 204.75L406 205.453L407 206.163L408 206.88L409 207.603L410 208.333L411 209.07L412 209.813L413 210.563L414 211.32L415 212.083L416 212.853L417 213.63L418 214.413L419 215.203L420 216L421 216.803L422 217.613L423 218.43L424 219.253L425 220.083L426 220.92L427 221.763L428 222.613L429 223.47L430 224.333L431 225.203L432 226.08L433 226.963L434 227.853L435 228.75L436 229.653L437 230.563L438 231.48L439 232.403L440 233.333L441 234.27L442 235.213L443 236.163L444 237.12L445 238.083L446 239.053L447 240.03L448 241.013L449 242.003L450 243L451 244.003L452 245.013L453 246.03L454 247.053L455 248.083L456 249.12L457 250.163L458 251.213L459 252.27L460 253.333L461 254.403L462 255.48L463 256.563L464 257.653L465 258.75L466 259.853L467 260.963L468 262.08L469 263.203L470 264.333L471 265.47L472 266.613L473 267.763L474 268.92L475 270.083L476 271.253L477 272.43L478 273.613L479 274.803L480 276L481 277.203L482 278.413L483 279.63L484 280.853L485 282.083L486 283.32L487 284.563L488 285.813L489 287.07L490 288.333L491 289.603L492 290.88L493 292.163L494 293.453L495 294.75L496 296.053L497 297.363L498 298.68L499 300.003L500 301.333L501 302.67L502 304.013L503 305.363L504 306.72L505 308.083L506 309.453L507 310.83L508 312.213L509 313.603L510 315L511 316.403L512 317.813L513 319.23L514 320.653L515 322.083L516 323.52L517 324.963L518 326.413L519 327.87L520 329.333L521 330.803L522 332.28L523 333.763L524 335.253L525 336.75L526 338.253L527 339.763L528 341.28L529 342.803L530 344.333L531 345.87L532 347.413L533 348.963L534 350.52L535 352.083L536 353.653L537 355.23L538 356.813L539 358.403L540 360" stroke="#6AB0F3" stroke-width="1.5"/>
<path d="M56.92 383.3C57.667 382.22 58.687 381.68 59.98 381.68C60.953 381.68 61.807 382.014 62.54 382.68C62.9 383.028 63.207 383.481 63.46 384.04C63.953 385.146 64.2 386.667 64.2 388.6C64.2 390.667 63.913 392.247 63.34 393.34C62.967 394.113 62.42 394.674 61.7 395.02C61.14 395.3 60.573 395.441 60 395.441C58.467 395.441 57.347 394.741 56.64 393.34C56.066 392.247 55.78 390.667 55.78 388.6C55.78 387.361 55.863 386.337 56.03 385.531C56.197 384.724 56.493 383.981 56.92 383.301V383.3ZM61.42 383.06C61.033 382.634 60.56 382.42 60 382.42C59.44 382.42 58.96 382.634 58.56 383.06C58.267 383.368 58.066 383.741 57.96 384.18C57.853 384.62 57.787 385.38 57.76 386.46C57.76 386.54 57.757 386.8 57.75 387.24C57.743 387.679 57.74 388.047 57.74 388.34C57.74 389.62 57.753 390.514 57.78 391.02C57.833 391.954 57.913 392.624 58.02 393.031C58.126 393.437 58.327 393.788 58.62 394.081C58.98 394.481 59.44 394.681 60 394.681C60.546 394.681 61 394.482 61.36 394.081C61.653 393.788 61.853 393.437 61.96 393.031C62.066 392.624 62.147 391.954 62.2 391.02C62.226 390.514 62.24 389.621 62.24 388.34C62.24 388.047 62.236 387.68 62.23 387.24C62.223 386.8 62.22 386.54 62.22 386.46C62.193 385.38 62.126 384.62 62.02 384.18C61.913 383.741 61.713 383.368 61.42 383.06Z" fill="#F0F0F0"/>
<path d="M123.32 395C123.093 394.96 122.033 394.94 120.14 394.94C118.273 394.94 117.226 394.96 117 395H116.76V394.08H117.28C118.053 394.08 118.553 394.059 118.78 394.019C118.887 394.006 119.047 393.926 119.26 393.78V383.44C119.233 383.44 119.18 383.46 119.1 383.5C118.486 383.74 117.8 383.867 117.04 383.88H116.66V382.96H117.04C118.16 382.92 119.093 382.667 119.84 382.2C120.08 382.066 120.287 381.913 120.46 381.74C120.486 381.7 120.566 381.679 120.7 381.679C120.833 381.679 120.947 381.719 121.04 381.799V387.779L121.06 393.779C121.26 393.979 121.693 394.079 122.36 394.079H123.54V394.999H123.32V395Z" fill="#F0F0F0"/>
<path d="M177.2 386.42C176.826 386.42 176.533 386.3 176.32 386.06C176.107 385.821 176 385.528 176 385.18C176 384.22 176.363 383.397 177.09 382.71C177.817 382.023 178.687 381.68 179.7 381.68C180.846 381.68 181.796 381.991 182.55 382.611C183.304 383.231 183.767 384.041 183.94 385.041C183.967 385.281 183.98 385.501 183.98 385.701C183.98 386.474 183.747 387.201 183.28 387.881C182.907 388.442 182.154 389.208 181.02 390.181C180.54 390.595 179.873 391.208 179.02 392.021L177.84 393.141L179.36 393.162C181.453 393.162 182.567 393.129 182.7 393.061C182.753 393.048 182.82 392.909 182.9 392.641C182.953 392.495 183.046 392.041 183.18 391.282V391.221H183.98V391.282L183.42 394.942V395.002H176V394.622C176 394.355 176.013 394.202 176.04 394.162C176.053 394.136 176.613 393.502 177.72 392.262C179.173 390.649 180.106 389.582 180.52 389.062C181.413 387.849 181.86 386.736 181.86 385.722C181.86 384.842 181.63 384.106 181.17 383.512C180.71 382.919 180.066 382.622 179.24 382.622C178.467 382.622 177.84 382.969 177.36 383.662C177.333 383.716 177.293 383.789 177.24 383.882C177.2 383.949 177.18 383.989 177.18 384.002C177.18 384.016 177.213 384.022 177.28 384.022C177.613 384.022 177.884 384.142 178.09 384.382C178.296 384.622 178.4 384.903 178.4 385.222C178.4 385.556 178.29 385.839 178.07 386.073C177.85 386.306 177.56 386.423 177.2 386.423V386.42Z" fill="#F0F0F0"/>
<path d="M237.54 385.74C237.18 385.74 236.896 385.627 236.69 385.4C236.483 385.173 236.38 384.879 236.38 384.519C236.38 383.759 236.68 383.123 237.28 382.61C237.88 382.096 238.573 381.793 239.36 381.7H239.66C240.5 381.7 241.24 381.846 241.88 382.139C242.76 382.579 243.313 383.206 243.54 384.019C243.58 384.153 243.6 384.332 243.6 384.559C243.6 385.346 243.356 386.049 242.87 386.669C242.383 387.289 241.773 387.732 241.04 387.999C240.973 388.026 240.973 388.046 241.04 388.059C241.066 388.073 241.133 388.093 241.24 388.12C242.053 388.347 242.74 388.769 243.3 389.39C243.86 390.01 244.14 390.714 244.14 391.5C244.14 392.193 243.963 392.827 243.61 393.4C243.256 393.973 242.807 394.42 242.26 394.74C241.513 395.207 240.68 395.44 239.76 395.44C238.88 395.44 238.1 395.252 237.42 394.879C236.74 394.506 236.28 394.006 236.04 393.379C235.907 393.099 235.84 392.773 235.84 392.4C235.84 392.027 235.963 391.723 236.21 391.49C236.457 391.257 236.753 391.139 237.1 391.139C237.473 391.139 237.78 391.259 238.02 391.499C238.26 391.739 238.38 392.039 238.38 392.399C238.38 392.706 238.293 392.972 238.12 393.199C237.947 393.426 237.713 393.572 237.42 393.638L237.28 393.678C238 394.279 238.827 394.578 239.76 394.578C240.493 394.578 241.047 394.224 241.42 393.517C241.647 393.078 241.76 392.405 241.76 391.497V391.097C241.76 389.83 241.333 388.985 240.48 388.557C240.28 388.478 239.873 388.431 239.26 388.417L238.42 388.397L238.36 388.357C238.333 388.317 238.32 388.211 238.32 388.037C238.32 387.877 238.34 387.777 238.38 387.737C238.42 387.697 238.453 387.676 238.48 387.676C238.853 387.676 239.24 387.643 239.64 387.576C240.226 387.496 240.673 387.166 240.98 386.586C241.287 386.006 241.44 385.31 241.44 384.496C241.44 383.63 241.207 383.05 240.74 382.756C240.46 382.569 240.146 382.477 239.8 382.477C239.133 382.477 238.547 382.657 238.04 383.016C237.986 383.043 237.927 383.086 237.86 383.147C237.793 383.207 237.74 383.263 237.7 383.317L237.64 383.397C237.68 383.41 237.726 383.423 237.78 383.437C238.047 383.463 238.27 383.59 238.45 383.817C238.63 384.044 238.72 384.303 238.72 384.596C238.72 384.916 238.61 385.187 238.39 385.407C238.17 385.627 237.887 385.737 237.54 385.737V385.74Z" fill="#F0F0F0"/>
<path d="M304.24 395C304.052 394.96 303.193 394.94 301.66 394.94C300.06 394.94 299.166 394.96 298.98 395H298.8V394.08H299.42C299.993 394.066 300.347 394.033 300.481 393.98C300.586 393.953 300.667 393.886 300.721 393.78C300.733 393.754 300.741 393.393 300.741 392.7V391.7H295.561V390.78L298.581 386.16C300.621 383.066 301.654 381.514 301.681 381.5C301.708 381.474 301.848 381.46 302.101 381.46H302.461L302.581 381.58V390.78H304.421V391.7H302.581V392.72C302.581 393.267 302.584 393.587 302.591 393.68C302.598 393.774 302.634 393.854 302.701 393.92C302.807 394.014 303.187 394.066 303.841 394.08H304.421V395H304.241H304.24ZM300.859 390.78V384.099L296.48 390.759L298.66 390.78H300.859Z" fill="#F0F0F0"/>
<path d="M357.141 390.72C357.46 390.72 357.731 390.83 357.951 391.05C358.171 391.27 358.28 391.547 358.28 391.88C358.28 392.187 358.167 392.447 357.94 392.66C357.713 392.873 357.461 392.98 357.18 392.98H357.04L357.1 393.08C357.3 393.507 357.607 393.86 358.02 394.14C358.434 394.42 358.92 394.56 359.481 394.56C360.427 394.56 361.107 394.161 361.52 393.361C361.774 392.868 361.901 392.014 361.901 390.8C361.901 389.427 361.721 388.5 361.36 388.02C361.014 387.581 360.587 387.361 360.081 387.361C359.041 387.361 358.254 387.814 357.722 388.72C357.667 388.814 357.618 388.87 357.572 388.89C357.525 388.911 357.428 388.92 357.281 388.92C357.054 388.92 356.928 388.88 356.902 388.8C356.875 388.747 356.861 387.58 356.861 385.3C356.861 384.901 356.858 384.427 356.851 383.88C356.845 383.333 356.841 382.987 356.841 382.84C356.841 382.094 356.881 381.72 356.961 381.72C356.987 381.694 357.015 381.68 357.041 381.68L357.401 381.8C358.267 382.147 359.154 382.321 360.061 382.321C361.006 382.321 361.914 382.134 362.78 381.76C362.887 381.707 362.973 381.68 363.041 381.68C363.147 381.68 363.201 381.8 363.201 382.04V382.3C362.121 383.594 360.754 384.24 359.1 384.24C358.687 384.24 358.313 384.2 357.981 384.12L357.78 384.08V387.519C358.541 386.907 359.321 386.599 360.121 386.599C360.374 386.599 360.647 386.633 360.94 386.7C361.834 386.927 362.563 387.433 363.13 388.22C363.697 389.007 363.981 389.927 363.981 390.981C363.981 392.194 363.557 393.241 362.71 394.121C361.863 395.001 360.82 395.441 359.58 395.441C358.74 395.441 358.026 395.208 357.439 394.741C357.186 394.581 356.966 394.361 356.779 394.081C356.259 393.454 356 392.734 356 391.921C356 391.548 356.106 391.255 356.32 391.041C356.534 390.827 356.806 390.721 357.14 390.721L357.141 390.72Z" fill="#F0F0F0"/>
<path d="M422.46 382.98C422.166 382.686 421.753 382.519 421.221 382.48C420.287 382.48 419.506 382.879 418.88 383.679C418.253 384.546 417.94 385.893 417.94 387.719L417.961 387.799L418.121 387.539C418.667 386.739 419.407 386.339 420.341 386.339C420.954 386.339 421.494 386.466 421.961 386.719C422.468 387.013 422.921 387.452 423.321 388.039C423.721 388.626 423.973 389.259 424.081 389.939C424.107 390.098 424.121 390.385 424.121 390.798V391.158C424.121 391.465 424.087 391.752 424.02 392.017C423.86 392.804 423.448 393.544 422.78 394.238C422.208 394.838 421.567 395.211 420.86 395.358C420.647 395.411 420.381 395.438 420.061 395.438C419.807 395.438 419.581 395.417 419.38 395.377C418.153 395.137 417.256 394.414 416.69 393.207C416.124 392.001 415.84 390.511 415.84 388.737C415.84 387.297 416.094 386.037 416.6 384.957C417.107 383.877 417.813 383.037 418.721 382.437C419.44 381.93 420.221 381.676 421.061 381.676C421.833 381.676 422.457 381.883 422.93 382.296C423.404 382.71 423.641 383.276 423.641 383.996C423.641 384.329 423.543 384.596 423.35 384.796C423.157 384.996 422.901 385.096 422.58 385.096C422.259 385.096 422.003 385.003 421.81 384.817C421.617 384.63 421.519 384.37 421.519 384.037C421.519 383.437 421.832 383.084 422.459 382.977L422.46 382.98ZM421.58 387.78C421.207 387.3 420.726 387.059 420.141 387.059C419.647 387.059 419.246 387.213 418.94 387.519C418.288 388.173 417.961 389.226 417.961 390.679C417.961 391.867 418.041 392.686 418.201 393.139C418.334 393.539 418.561 393.879 418.881 394.16C419.201 394.44 419.581 394.58 420.021 394.58C420.702 394.58 421.222 394.327 421.582 393.82C421.781 393.54 421.908 393.207 421.962 392.82C422.016 392.433 422.042 391.873 422.042 391.139V390.499C422.042 389.739 422.016 389.166 421.962 388.779C421.908 388.392 421.781 388.058 421.582 387.779L421.58 387.78Z" fill="#F0F0F0"/>
<path d="M476.1 385.84C476.114 385.814 476.227 385.087 476.44 383.66L476.76 381.519C476.76 381.493 476.893 381.48 477.16 381.48H477.56V381.559C477.56 381.693 477.66 381.806 477.859 381.9C478.06 381.993 478.41 382.053 478.91 382.08C479.41 382.107 480.533 382.12 482.279 382.12H484.7V382.9L483.34 384.759C483.141 385.039 482.913 385.349 482.66 385.69C482.406 386.03 482.213 386.293 482.08 386.48C481.947 386.667 481.867 386.78 481.84 386.82C481.147 387.9 480.733 389.346 480.6 391.16C480.547 391.707 480.514 392.453 480.5 393.4C480.5 393.587 480.496 393.777 480.49 393.969C480.482 394.162 480.48 394.32 480.48 394.44V394.62C480.426 394.847 480.296 395.04 480.089 395.2C479.882 395.36 479.659 395.44 479.419 395.44C479.099 395.44 478.843 395.33 478.649 395.11C478.456 394.889 478.358 394.587 478.358 394.2C478.358 394 478.385 393.62 478.438 393.059C478.639 391.259 479.258 389.453 480.298 387.639C480.565 387.213 481.125 386.407 481.979 385.219L482.899 383.959H481.039C478.72 383.959 477.499 383.999 477.379 384.079C477.325 384.105 477.252 384.253 477.159 384.518C477.079 384.786 477.013 385.098 476.959 385.458C476.933 385.685 476.912 385.812 476.899 385.838V385.899H476.098V385.838L476.1 385.84Z" fill="#F0F0F0"/>
<path d="M538.439 388.3C537.787 387.873 537.283 387.427 536.929 386.96C536.575 386.493 536.4 385.88 536.4 385.12C536.4 384.547 536.505 384.066 536.72 383.68C537.013 383.08 537.443 382.597 538.009 382.231C538.575 381.864 539.226 381.68 539.959 381.68C540.866 381.68 541.652 381.917 542.319 382.39C542.985 382.864 543.399 383.474 543.559 384.22C543.572 384.3 543.579 384.46 543.579 384.7C543.579 384.993 543.565 385.193 543.539 385.3C543.339 386.18 542.731 386.941 541.72 387.58C541.693 387.594 541.656 387.613 541.609 387.64C541.562 387.667 541.533 387.694 541.519 387.72L541.48 387.741C542.226 388.248 542.613 388.514 542.64 388.541C543.64 389.341 544.14 390.334 544.14 391.52C544.14 392.6 543.743 393.524 542.95 394.291C542.156 395.058 541.166 395.441 539.98 395.441C538.339 395.441 537.132 394.84 536.359 393.64C536.026 393.161 535.859 392.58 535.859 391.901C535.859 391.594 535.873 391.387 535.9 391.281C536.099 390.267 536.74 389.401 537.82 388.68C537.9 388.627 538.019 388.554 538.179 388.46C538.339 388.367 538.426 388.314 538.439 388.3ZM537.14 391.861C537.14 392.647 537.426 393.298 537.999 393.81C538.572 394.324 539.239 394.581 539.999 394.581C540.546 394.581 541.042 394.468 541.489 394.241C541.935 394.014 542.272 393.72 542.499 393.361C542.726 393.014 542.839 392.647 542.839 392.26C542.839 391.687 542.606 391.18 542.14 390.74C542.033 390.634 541.48 390.254 540.48 389.599C540.292 389.48 540.089 389.349 539.87 389.209C539.651 389.069 539.48 388.959 539.359 388.879L539.2 388.779L538.96 388.899C538.12 389.446 537.566 390.112 537.3 390.899C537.194 391.246 537.141 391.565 537.141 391.859L537.14 391.861ZM542.419 384.741C542.419 384.168 542.231 383.68 541.858 383.281C541.485 382.881 541.032 382.628 540.499 382.52C540.405 382.507 540.186 382.5 539.839 382.5C539.132 382.5 538.539 382.74 538.06 383.22C537.726 383.528 537.56 383.894 537.56 384.321C537.56 384.894 537.799 385.347 538.279 385.68C538.346 385.747 538.773 386.028 539.56 386.52L540.72 387.281C540.732 387.267 540.82 387.211 540.98 387.111C541.14 387.01 541.259 386.921 541.339 386.84C542.06 386.267 542.419 385.567 542.419 384.74V384.741Z" fill="#F0F0F0"/>
<path d="M26.92 353.3C27.667 352.22 28.687 351.68 29.98 351.68C30.953 351.68 31.807 352.014 32.54 352.68C32.9 353.028 33.207 353.481 33.46 354.04C33.953 355.146 34.2 356.667 34.2 358.6C34.2 360.667 33.913 362.247 33.34 363.34C32.967 364.113 32.42 364.674 31.7 365.02C31.14 365.3 30.573 365.441 30 365.441C28.467 365.441 27.347 364.741 26.64 363.34C26.066 362.247 25.78 360.667 25.78 358.6C25.78 357.361 25.863 356.337 26.03 355.531C26.197 354.724 26.493 353.981 26.92 353.301V353.3ZM31.42 353.06C31.033 352.634 30.56 352.42 30 352.42C29.44 352.42 28.96 352.634 28.56 353.06C28.267 353.368 28.066 353.741 27.96 354.18C27.853 354.62 27.787 355.38 27.76 356.46C27.76 356.54 27.757 356.8 27.75 357.24C27.743 357.679 27.74 358.047 27.74 358.34C27.74 359.62 27.753 360.514 27.78 361.02C27.833 361.954 27.913 362.624 28.02 363.031C28.126 363.437 28.327 363.788 28.62 364.081C28.98 364.481 29.44 364.681 30 364.681C30.546 364.681 31 364.482 31.36 364.081C31.653 363.788 31.853 363.437 31.96 363.031C32.066 362.624 32.147 361.954 32.2 361.02C32.226 360.514 32.24 359.621 32.24 358.34C32.24 358.047 32.236 357.68 32.23 357.24C32.223 356.8 32.22 356.54 32.22 356.46C32.193 355.38 32.126 354.62 32.02 354.18C31.913 353.741 31.713 353.368 31.42 353.06Z" fill="#F0F0F0"/>
<path d="M27.14 300.72C27.46 300.72 27.73 300.83 27.95 301.05C28.17 301.27 28.28 301.547 28.28 301.88C28.28 302.187 28.167 302.447 27.94 302.66C27.713 302.873 27.46 302.98 27.18 302.98H27.04L27.1 303.08C27.3 303.507 27.606 303.86 28.02 304.14C28.433 304.42 28.92 304.56 29.48 304.56C30.427 304.56 31.106 304.161 31.52 303.361C31.773 302.868 31.9 302.014 31.9 300.8C31.9 299.427 31.72 298.5 31.36 298.02C31.013 297.581 30.587 297.361 30.08 297.361C29.04 297.361 28.253 297.814 27.72 298.72C27.666 298.814 27.616 298.87 27.57 298.89C27.523 298.911 27.427 298.92 27.28 298.92C27.053 298.92 26.927 298.88 26.9 298.8C26.873 298.747 26.86 297.58 26.86 295.3C26.86 294.901 26.857 294.427 26.85 293.88C26.843 293.333 26.84 292.987 26.84 292.84C26.84 292.094 26.88 291.72 26.96 291.72C26.986 291.694 27.013 291.68 27.04 291.68L27.4 291.8C28.267 292.147 29.153 292.321 30.06 292.321C31.006 292.321 31.913 292.134 32.78 291.76C32.887 291.707 32.973 291.68 33.04 291.68C33.146 291.68 33.2 291.8 33.2 292.04V292.3C32.12 293.594 30.753 294.24 29.1 294.24C28.686 294.24 28.313 294.2 27.98 294.12L27.78 294.08V297.519C28.54 296.907 29.32 296.599 30.12 296.599C30.373 296.599 30.646 296.633 30.94 296.7C31.833 296.927 32.563 297.433 33.13 298.22C33.697 299.007 33.98 299.927 33.98 300.981C33.98 302.194 33.557 303.241 32.71 304.121C31.863 305.001 30.82 305.441 29.58 305.441C28.74 305.441 28.026 305.208 27.44 304.741C27.187 304.581 26.967 304.361 26.78 304.081C26.26 303.454 26 302.734 26 301.921C26 301.548 26.106 301.255 26.32 301.041C26.533 300.828 26.807 300.721 27.14 300.721V300.72Z" fill="#F0F0F0"/>
<path d="M28.32 245C28.093 244.96 27.033 244.94 25.14 244.94C23.273 244.94 22.226 244.96 22 245H21.76V244.08H22.28C23.053 244.08 23.553 244.059 23.78 244.019C23.887 244.006 24.047 243.926 24.26 243.78V233.44C24.233 233.44 24.18 233.46 24.1 233.5C23.486 233.74 22.8 233.867 22.04 233.88H21.66V232.96H22.04C23.16 232.92 24.093 232.667 24.84 232.2C25.08 232.066 25.287 231.913 25.46 231.74C25.486 231.7 25.566 231.679 25.7 231.679C25.833 231.679 25.947 231.719 26.04 231.799V237.779L26.06 243.779C26.26 243.979 26.693 244.079 27.36 244.079H28.54V244.999H28.32V245Z" fill="#F0F0F0"/>
<path d="M31.92 233.3C32.667 232.22 33.687 231.68 34.98 231.68C35.953 231.68 36.807 232.014 37.54 232.68C37.9 233.028 38.207 233.481 38.46 234.04C38.953 235.146 39.2 236.667 39.2 238.6C39.2 240.667 38.913 242.247 38.34 243.34C37.967 244.113 37.42 244.674 36.7 245.02C36.14 245.3 35.573 245.441 35 245.441C33.467 245.441 32.347 244.741 31.64 243.34C31.066 242.247 30.78 240.667 30.78 238.6C30.78 237.361 30.863 236.337 31.03 235.531C31.197 234.724 31.493 233.98 31.92 233.3ZM36.42 233.06C36.033 232.634 35.56 232.42 35 232.42C34.44 232.42 33.96 232.634 33.56 233.06C33.267 233.368 33.066 233.741 32.96 234.18C32.853 234.62 32.787 235.38 32.76 236.46C32.76 236.54 32.757 236.8 32.75 237.24C32.743 237.679 32.74 238.047 32.74 238.34C32.74 239.62 32.753 240.514 32.78 241.02C32.833 241.954 32.913 242.624 33.02 243.031C33.126 243.437 33.327 243.788 33.62 244.081C33.98 244.481 34.44 244.681 35 244.681C35.546 244.681 36 244.482 36.36 244.081C36.653 243.788 36.853 243.437 36.96 243.031C37.066 242.624 37.147 241.954 37.2 241.02C37.226 240.514 37.24 239.621 37.24 238.34C37.24 238.047 37.236 237.68 37.23 237.24C37.223 236.8 37.22 236.54 37.22 236.46C37.193 235.38 37.126 234.62 37.02 234.18C36.913 233.741 36.713 233.368 36.42 233.06Z" fill="#F0F0F0"/>
<path d="M28.32 185C28.093 184.96 27.033 184.94 25.14 184.94C23.273 184.94 22.226 184.96 22 185H21.76V184.08H22.28C23.053 184.08 23.553 184.059 23.78 184.019C23.887 184.006 24.047 183.926 24.26 183.78V173.44C24.233 173.44 24.18 173.46 24.1 173.5C23.486 173.74 22.8 173.867 22.04 173.88H21.66V172.96H22.04C23.16 172.92 24.093 172.667 24.84 172.2C25.08 172.066 25.287 171.913 25.46 171.74C25.486 171.7 25.566 171.679 25.7 171.679C25.833 171.679 25.947 171.719 26.04 171.799V177.779L26.06 183.779C26.26 183.979 26.693 184.079 27.36 184.079H28.54V184.999H28.32V185Z" fill="#F0F0F0"/>
<path d="M32.14 180.72C32.46 180.72 32.73 180.83 32.95 181.05C33.17 181.27 33.28 181.547 33.28 181.88C33.28 182.187 33.167 182.447 32.94 182.66C32.713 182.873 32.46 182.98 32.18 182.98H32.04L32.1 183.08C32.3 183.507 32.606 183.86 33.02 184.14C33.433 184.42 33.92 184.56 34.48 184.56C35.427 184.56 36.106 184.161 36.52 183.361C36.773 182.868 36.9 182.014 36.9 180.8C36.9 179.427 36.72 178.5 36.36 178.02C36.013 177.581 35.587 177.361 35.08 177.361C34.04 177.361 33.253 177.814 32.72 178.72C32.666 178.814 32.616 178.87 32.57 178.89C32.523 178.911 32.427 178.92 32.28 178.92C32.053 178.92 31.927 178.88 31.9 178.8C31.873 178.747 31.86 177.58 31.86 175.3C31.86 174.901 31.857 174.427 31.85 173.88C31.843 173.333 31.84 172.987 31.84 172.84C31.84 172.094 31.88 171.72 31.96 171.72C31.986 171.694 32.013 171.68 32.04 171.68L32.4 171.8C33.267 172.147 34.153 172.321 35.06 172.321C36.006 172.321 36.913 172.134 37.78 171.76C37.887 171.707 37.973 171.68 38.04 171.68C38.146 171.68 38.2 171.8 38.2 172.04V172.3C37.12 173.594 35.753 174.24 34.1 174.24C33.686 174.24 33.313 174.2 32.98 174.12L32.78 174.08V177.519C33.54 176.907 34.32 176.599 35.12 176.599C35.373 176.599 35.646 176.633 35.94 176.7C36.833 176.927 37.563 177.433 38.13 178.22C38.697 179.007 38.98 179.927 38.98 180.981C38.98 182.194 38.557 183.241 37.71 184.121C36.863 185.001 35.82 185.441 34.58 185.441C33.74 185.441 33.026 185.208 32.44 184.741C32.187 184.581 31.967 184.361 31.78 184.081C31.26 183.454 31 182.734 31 181.921C31 181.548 31.106 181.255 31.32 181.041C31.533 180.828 31.807 180.72 32.14 180.72Z" fill="#F0F0F0"/>
<path d="M22.2 116.42C21.826 116.42 21.533 116.3 21.32 116.06C21.107 115.821 21 115.528 21 115.18C21 114.22 21.363 113.397 22.09 112.71C22.817 112.023 23.687 111.68 24.7 111.68C25.846 111.68 26.796 111.991 27.55 112.611C28.304 113.231 28.767 114.041 28.94 115.041C28.967 115.281 28.98 115.501 28.98 115.701C28.98 116.474 28.747 117.201 28.28 117.881C27.907 118.442 27.154 119.208 26.02 120.181C25.54 120.595 24.873 121.208 24.02 122.021L22.84 123.141L24.36 123.162C26.453 123.162 27.567 123.129 27.7 123.061C27.753 123.048 27.82 122.909 27.9 122.641C27.953 122.495 28.046 122.041 28.18 121.282V121.221H28.98V121.282L28.42 124.942V125.002H21V124.622C21 124.355 21.013 124.202 21.04 124.162C21.053 124.136 21.613 123.502 22.72 122.262C24.173 120.649 25.106 119.582 25.52 119.062C26.413 117.849 26.86 116.736 26.86 115.722C26.86 114.842 26.63 114.106 26.17 113.512C25.71 112.919 25.066 112.622 24.24 112.622C23.467 112.622 22.84 112.969 22.36 113.662C22.333 113.716 22.293 113.789 22.24 113.882C22.2 113.949 22.18 113.989 22.18 114.002C22.18 114.016 22.213 114.022 22.28 114.022C22.613 114.022 22.884 114.142 23.09 114.382C23.296 114.622 23.4 114.903 23.4 115.222C23.4 115.556 23.29 115.839 23.07 116.073C22.85 116.306 22.56 116.423 22.2 116.423V116.42Z" fill="#F0F0F0"/>
<path d="M31.92 113.3C32.667 112.22 33.687 111.68 34.98 111.68C35.953 111.68 36.807 112.014 37.54 112.68C37.9 113.028 38.207 113.481 38.46 114.04C38.953 115.146 39.2 116.667 39.2 118.6C39.2 120.667 38.913 122.247 38.34 123.34C37.967 124.113 37.42 124.674 36.7 125.02C36.14 125.3 35.573 125.441 35 125.441C33.467 125.441 32.347 124.741 31.64 123.34C31.066 122.247 30.78 120.667 30.78 118.6C30.78 117.361 30.863 116.337 31.03 115.531C31.197 114.724 31.493 113.98 31.92 113.3ZM36.42 113.06C36.033 112.634 35.56 112.42 35 112.42C34.44 112.42 33.96 112.634 33.56 113.06C33.267 113.368 33.066 113.741 32.96 114.18C32.853 114.62 32.787 115.38 32.76 116.46C32.76 116.54 32.757 116.8 32.75 117.24C32.743 117.679 32.74 118.047 32.74 118.34C32.74 119.62 32.753 120.514 32.78 121.02C32.833 121.954 32.913 122.624 33.02 123.031C33.126 123.437 33.327 123.788 33.62 124.081C33.98 124.481 34.44 124.681 35 124.681C35.546 124.681 36 124.482 36.36 124.081C36.653 123.788 36.853 123.437 36.96 123.031C37.066 122.624 37.147 121.954 37.2 121.02C37.226 120.514 37.24 119.621 37.24 118.34C37.24 118.047 37.236 117.68 37.23 117.24C37.223 116.8 37.22 116.54 37.22 116.46C37.193 115.38 37.126 114.62 37.02 114.18C36.913 113.741 36.713 113.368 36.42 113.06Z" fill="#F0F0F0"/>
<path d="M22.2 56.4202C21.826 56.4202 21.533 56.3002 21.32 56.0602C21.107 55.8212 21 55.5282 21 55.1802C21 54.2202 21.363 53.3972 22.09 52.7102C22.817 52.0232 23.687 51.6802 24.7 51.6802C25.846 51.6802 26.796 51.9912 27.55 52.6112C28.304 53.2312 28.767 54.0412 28.94 55.0412C28.967 55.2812 28.98 55.5012 28.98 55.7012C28.98 56.4742 28.747 57.2012 28.28 57.8812C27.907 58.4422 27.154 59.2082 26.02 60.1812C25.54 60.5952 24.873 61.2082 24.02 62.0212L22.84 63.1412L24.36 63.1622C26.453 63.1622 27.567 63.1292 27.7 63.0612C27.753 63.0482 27.82 62.9092 27.9 62.6412C27.953 62.4952 28.046 62.0412 28.18 61.2822V61.2212H28.98V61.2822L28.42 64.9422V65.0022H21V64.6222C21 64.3552 21.013 64.2022 21.04 64.1622C21.053 64.1362 21.613 63.5022 22.72 62.2622C24.173 60.6492 25.106 59.5822 25.52 59.0622C26.413 57.8492 26.86 56.7362 26.86 55.7222C26.86 54.8422 26.63 54.1062 26.17 53.5122C25.71 52.9192 25.066 52.6222 24.24 52.6222C23.467 52.6222 22.84 52.9692 22.36 53.6622C22.333 53.7162 22.293 53.7892 22.24 53.8822C22.2 53.9492 22.18 53.9892 22.18 54.0022C22.18 54.0162 22.213 54.0222 22.28 54.0222C22.613 54.0222 22.884 54.1422 23.09 54.3822C23.296 54.6222 23.4 54.9032 23.4 55.2222C23.4 55.5562 23.29 55.8392 23.07 56.0732C22.85 56.3062 22.56 56.4232 22.2 56.4232V56.4202Z" fill="#F0F0F0"/>
<path d="M32.14 60.7202C32.46 60.7202 32.73 60.8302 32.95 61.0502C33.17 61.2702 33.28 61.5472 33.28 61.8802C33.28 62.1872 33.167 62.4472 32.94 62.6602C32.713 62.8732 32.46 62.9802 32.18 62.9802H32.04L32.1 63.0802C32.3 63.5072 32.606 63.8602 33.02 64.1402C33.433 64.4202 33.92 64.5602 34.48 64.5602C35.427 64.5602 36.106 64.1612 36.52 63.3612C36.773 62.8682 36.9 62.0142 36.9 60.8002C36.9 59.4272 36.72 58.5002 36.36 58.0202C36.013 57.5812 35.587 57.3612 35.08 57.3612C34.04 57.3612 33.253 57.8142 32.72 58.7202C32.666 58.8142 32.616 58.8702 32.57 58.8902C32.523 58.9112 32.427 58.9202 32.28 58.9202C32.053 58.9202 31.927 58.8802 31.9 58.8002C31.873 58.7472 31.86 57.5802 31.86 55.3002C31.86 54.9012 31.857 54.4272 31.85 53.8802C31.843 53.3332 31.84 52.9872 31.84 52.8402C31.84 52.0942 31.88 51.7202 31.96 51.7202C31.986 51.6942 32.013 51.6802 32.04 51.6802L32.4 51.8002C33.267 52.1472 34.153 52.3212 35.06 52.3212C36.006 52.3212 36.913 52.1342 37.78 51.7602C37.887 51.7072 37.973 51.6802 38.04 51.6802C38.146 51.6802 38.2 51.8002 38.2 52.0402V52.3002C37.12 53.5942 35.753 54.2402 34.1 54.2402C33.686 54.2402 33.313 54.2002 32.98 54.1202L32.78 54.0802V57.5192C33.54 56.9072 34.32 56.5992 35.12 56.5992C35.373 56.5992 35.646 56.6332 35.94 56.7002C36.833 56.9272 37.563 57.4332 38.13 58.2202C38.697 59.0072 38.98 59.9272 38.98 60.9812C38.98 62.1942 38.557 63.2412 37.71 64.1212C36.863 65.0012 35.82 65.4412 34.58 65.4412C33.74 65.4412 33.026 65.2082 32.44 64.7412C32.187 64.5812 31.967 64.3612 31.78 64.0812C31.26 63.4542 31 62.7342 31 61.9212C31 61.5482 31.106 61.2552 31.32 61.0412C31.533 60.8282 31.807 60.7202 32.14 60.7202Z" fill="#F0F0F0"/>
<path d="M339.601 21.6953H256.788V48.0713H339.601V21.6953Z" fill="black"/>
<path d="M263.108 27.6356C263.095 27.6226 263.068 27.5956 263.028 27.5556L262.968 27.4956C262.968 27.4956 262.941 27.4756 262.888 27.4356C262.835 27.3956 262.801 27.3816 262.787 27.3956C262.773 27.4096 262.727 27.3956 262.646 27.3556C262.565 27.3156 262.492 27.3086 262.425 27.3356C262.358 27.3626 262.271 27.3556 262.164 27.3156C262.057 27.2756 261.929 27.2686 261.782 27.2956H261.199V26.3706H261.38C261.621 26.4106 262.453 26.4306 263.874 26.4306C265.496 26.4306 266.448 26.4106 266.73 26.3706H266.951V27.2956H266.529C265.711 27.3356 265.302 27.4496 265.302 27.6376C265.302 27.6646 265.905 29.3266 267.112 32.6256C268.319 35.9246 268.929 37.5726 268.942 37.5726L270.672 32.9066C271.812 29.8226 272.381 28.2206 272.381 28.0996C272.381 27.8446 272.24 27.6506 271.959 27.5166C271.678 27.3826 271.369 27.3086 271.034 27.2956H270.933V26.3706H271.114C271.315 26.4106 272.086 26.4306 273.427 26.4306C274.647 26.4306 275.297 26.4106 275.378 26.3706H275.499V27.2956H275.358C274.352 27.2956 273.709 27.5706 273.427 28.1206C273.427 28.1336 272.676 30.1786 271.175 34.2546C269.673 38.3306 268.909 40.3756 268.882 40.3886C268.815 40.4956 268.688 40.5496 268.5 40.5496H268.198C268.01 40.5496 267.883 40.4956 267.816 40.3886C267.789 40.3616 267.005 38.2366 265.463 34.0136C263.894 29.8036 263.11 27.6786 263.11 27.6386L263.108 27.6356Z" fill="#F0F0F0"/>
<path d="M276.462 35.7202C276.462 34.9832 276.596 34.3122 276.864 33.7092C277.132 33.1062 277.467 32.6162 277.87 32.2412C278.273 31.8662 278.708 31.5842 279.177 31.3962C279.646 31.2082 280.089 31.1082 280.504 31.0942C281.215 31.0942 281.825 31.2152 282.334 31.4562C282.843 31.6972 283.232 32.0332 283.5 32.4622C283.768 32.8912 283.956 33.3202 284.063 33.7492C284.17 34.1782 284.231 34.6542 284.244 35.1772C284.244 35.2712 284.197 35.3652 284.103 35.4592H278.432V35.7612C278.432 37.7452 279.102 38.9522 280.443 39.3812C280.711 39.4612 281.006 39.5022 281.328 39.5022C281.891 39.5022 282.374 39.2872 282.776 38.8582C283.004 38.6302 283.185 38.3492 283.319 38.0132L283.52 37.5302C283.56 37.4902 283.667 37.4702 283.842 37.4702H283.902C284.13 37.4702 284.244 37.5372 284.244 37.6712C284.244 37.7252 284.224 37.8122 284.184 37.9322C283.929 38.6692 283.507 39.2532 282.917 39.6822C282.327 40.1112 281.663 40.3262 280.926 40.3262C279.652 40.3262 278.593 39.8632 277.748 38.9382C276.903 38.0132 276.474 36.9402 276.461 35.7202H276.462ZM282.596 34.5742C282.449 32.8582 281.812 31.9462 280.685 31.8392H280.645C280.538 31.8392 280.43 31.8462 280.323 31.8592C280.216 31.8722 280.048 31.9262 279.82 32.0202C279.592 32.1142 279.398 32.2552 279.237 32.4422C279.076 32.6292 278.922 32.9052 278.774 33.2672C278.626 33.6292 278.519 34.0712 278.452 34.5942V34.7352H282.595V34.5742H282.596Z" fill="#F0F0F0"/>
<path d="M285.673 39.1795H285.955C286.478 39.1795 286.793 39.0855 286.9 38.8975V37.6105C286.9 37.3555 286.907 37.0675 286.92 36.7455C286.933 36.4235 286.933 36.0885 286.92 35.7395C286.907 35.3905 286.907 35.0225 286.92 34.6335C286.933 34.2445 286.933 33.8625 286.92 33.4875V29.2035C286.92 28.8545 286.913 28.5595 286.9 28.3185C286.887 28.0775 286.887 27.9635 286.9 27.9765C286.86 27.7215 286.766 27.5545 286.618 27.4735C286.47 27.3925 286.169 27.3325 285.713 27.2925H285.351V26.8295C285.351 26.5215 285.364 26.3665 285.391 26.3665L285.592 26.3465C285.726 26.3335 285.92 26.3195 286.175 26.3065C286.43 26.2935 286.678 26.2795 286.919 26.2665C287.147 26.2535 287.395 26.2395 287.663 26.2265C287.931 26.2135 288.132 26.1925 288.266 26.1665C288.4 26.1405 288.474 26.1325 288.487 26.1465H288.547V32.4815C288.547 36.7315 288.554 38.8705 288.567 38.8975C288.621 39.0045 288.701 39.0785 288.808 39.1185C289.09 39.1585 289.418 39.1785 289.793 39.1785H290.115V40.1035H289.954L289.491 40.0835C289.183 40.0705 288.854 40.0635 288.506 40.0635C288.158 40.0635 287.903 40.0565 287.742 40.0435C287.581 40.0305 287.326 40.0305 286.978 40.0435C286.63 40.0565 286.294 40.0705 285.972 40.0835L285.509 40.1035H285.348V39.1785H285.67L285.673 39.1795Z" fill="#F0F0F0"/>
<path d="M290.983 35.8002C290.983 34.5262 291.419 33.4272 292.29 32.5022C293.161 31.5772 294.214 31.1082 295.447 31.0942C296.654 31.0942 297.693 31.5502 298.564 32.4622C299.435 33.3742 299.878 34.4802 299.891 35.7802C299.891 37.0542 299.462 38.1262 298.604 38.9982C297.746 39.8692 296.693 40.3052 295.447 40.3052C294.146 40.3052 293.081 39.8562 292.249 38.9582C291.418 38.0602 290.995 37.0072 290.982 35.8012L290.983 35.8002ZM295.448 39.5002C297.084 39.5002 297.902 38.4072 297.902 36.2222V35.0762C297.902 34.7812 297.895 34.5262 297.882 34.3122C297.869 34.0982 297.822 33.8432 297.741 33.5482C297.66 33.2532 297.553 33.0122 297.419 32.8242C297.285 32.6362 297.077 32.4492 296.796 32.2612C296.515 32.0732 296.186 31.9392 295.811 31.8592C295.744 31.8462 295.637 31.8392 295.489 31.8392C295.087 31.8392 294.705 31.9192 294.343 32.0802C293.766 32.3752 293.391 32.7842 293.217 33.3072C293.043 33.8302 292.956 34.4472 292.956 35.1572V35.5592C292.956 36.8462 293.083 37.7512 293.338 38.2742C293.767 39.0922 294.471 39.5012 295.45 39.5012L295.448 39.5002Z" fill="#F0F0F0"/>
<path d="M307.917 33.9702H307.495C307.213 33.9702 306.972 33.8692 306.771 33.6682C306.57 33.4672 306.463 33.2122 306.449 32.9042C306.449 32.5962 306.55 32.3412 306.751 32.1402C306.818 32.0732 306.852 32.0332 306.852 32.0192C306.852 32.0052 306.785 31.9922 306.651 31.9792C306.302 31.9252 305.974 31.8992 305.666 31.8992C305.009 31.8992 304.473 32.1142 304.057 32.5432C303.427 33.1732 303.112 34.2262 303.112 35.7002C303.112 36.7992 303.32 37.6642 303.735 38.2942C304.285 39.1122 305.022 39.5212 305.947 39.5212C306.497 39.5212 306.939 39.3472 307.274 38.9982C307.609 38.6492 307.851 38.2342 307.998 37.7512C308.025 37.6442 308.058 37.5772 308.099 37.5502C308.139 37.5232 308.246 37.5102 308.421 37.5102H308.703C308.783 37.5902 308.824 37.6512 308.824 37.6912C308.824 37.7452 308.797 37.8522 308.744 38.0132C308.691 38.1742 308.583 38.3952 308.422 38.6772C308.261 38.9592 308.067 39.2132 307.839 39.4412C307.611 39.6692 307.289 39.8772 306.874 40.0642C306.458 40.2522 305.996 40.3392 305.486 40.3252C304.333 40.3252 303.327 39.8962 302.469 39.0382C301.611 38.1802 301.175 37.1012 301.162 35.8002C301.162 34.4062 301.598 33.2732 302.469 32.4012C303.34 31.5302 304.353 31.0942 305.506 31.0942C306.659 31.0942 307.464 31.2752 307.919 31.6372C308.374 31.9992 308.603 32.4282 308.603 32.9242C308.603 33.2322 308.489 33.4802 308.261 33.6682L307.919 33.9702H307.917Z" fill="#F0F0F0"/>
<path d="M310.792 27.8564C310.792 27.4814 310.913 27.1864 311.154 26.9714C311.395 26.7564 311.69 26.6494 312.039 26.6494C312.347 26.6764 312.616 26.7904 312.843 26.9914C313.07 27.1924 313.185 27.4804 313.185 27.8564C313.185 28.2584 313.071 28.5604 312.843 28.7614C312.615 28.9624 312.334 29.0634 311.998 29.0634C311.662 29.0634 311.381 28.9624 311.153 28.7614C310.925 28.5604 310.804 28.2584 310.791 27.8564H310.792ZM314.372 40.1044C314.171 40.0644 313.474 40.0444 312.28 40.0444H311.536C311.187 40.0444 310.852 40.0574 310.53 40.0844L310.088 40.1044H309.927V39.1794H310.249C310.624 39.1794 310.953 39.1594 311.234 39.1194C311.355 39.0654 311.428 38.9924 311.455 38.8984C311.482 38.8044 311.495 38.5234 311.495 38.0534V34.2124C311.495 33.5154 311.482 33.0724 311.455 32.8854C311.428 32.6984 311.334 32.5704 311.173 32.5034C310.985 32.4094 310.67 32.3624 310.228 32.3624H310.007V31.8994C310.007 31.5914 310.02 31.4364 310.047 31.4364L310.248 31.4164C310.382 31.4034 310.57 31.3894 310.811 31.3764C311.052 31.3634 311.294 31.3494 311.535 31.3364C311.763 31.3234 312.004 31.3094 312.259 31.2964C312.514 31.2834 312.708 31.2624 312.842 31.2364C312.976 31.2104 313.05 31.2024 313.063 31.2164H313.123V38.8584C313.19 38.9924 313.27 39.0734 313.364 39.0994C313.458 39.1254 313.692 39.1534 314.068 39.1794H314.531V40.1044H314.37H314.372Z" fill="#F0F0F0"/>
<path d="M315.539 31.6174C316.25 31.5634 316.799 31.1884 317.188 30.4914C317.577 29.7944 317.791 28.9764 317.832 28.0374V27.7354H318.636V31.4354H321.351V32.3604H318.636V35.2564C318.649 36.9324 318.656 37.8774 318.656 38.0924C318.656 38.3074 318.703 38.5214 318.797 38.7364C318.985 39.2594 319.313 39.5204 319.782 39.5204C320.372 39.5204 320.734 39.0444 320.868 38.0924C320.881 37.9854 320.888 37.6764 320.888 37.1674V36.4634H321.692V37.4084C321.692 38.4404 321.41 39.2254 320.847 39.7614C320.485 40.1234 320.016 40.3044 319.439 40.3044C318.983 40.3044 318.588 40.2244 318.252 40.0634C317.916 39.9024 317.662 39.6943 317.488 39.4403C317.314 39.1853 317.186 38.9514 317.106 38.7364C317.026 38.5214 316.979 38.3074 316.965 38.0924C316.952 37.9984 316.945 37.0064 316.945 35.1164V32.3614H315.356V31.6174H315.537H315.539Z" fill="#F0F0F0"/>
<path d="M324.207 41.4315C324.502 41.4315 324.737 41.5255 324.911 41.7135C325.085 41.9015 325.179 42.1425 325.193 42.4375C325.193 42.6785 325.133 42.8735 325.012 43.0205C324.891 43.1675 324.771 43.2685 324.65 43.3225C324.556 43.3625 324.596 43.4025 324.771 43.4435C324.865 43.4705 324.959 43.4835 325.053 43.4835C325.321 43.4835 325.569 43.4235 325.797 43.3025C326.025 43.1815 326.206 43.0415 326.34 42.8805C326.474 42.7195 326.622 42.5055 326.782 42.2365C326.942 41.9675 327.05 41.7605 327.104 41.6135C327.158 41.4665 327.238 41.2515 327.345 40.9695L327.687 40.1045L326.239 36.4245C325.971 35.7545 325.669 34.9895 325.334 34.1315C325.012 33.3135 324.818 32.8375 324.751 32.7035C324.684 32.5695 324.577 32.4825 324.429 32.4425C324.416 32.4295 324.402 32.4225 324.389 32.4225C324.228 32.3825 323.933 32.3625 323.504 32.3625H323.202V31.4375H323.343L323.745 31.4575C324 31.4575 324.281 31.4645 324.59 31.4775C324.899 31.4905 325.126 31.4975 325.274 31.4975H325.676C325.85 31.4975 326.045 31.4905 326.259 31.4775C326.473 31.4645 326.668 31.4575 326.842 31.4575H327.325L327.506 31.4375H327.667V32.3625H327.486C326.829 32.3625 326.514 32.4895 326.541 32.7445L328.572 37.8525C328.572 37.8395 328.88 37.0685 329.497 35.5395L330.382 33.2465V33.0655C330.382 32.8645 330.315 32.7105 330.181 32.6025C330.047 32.4945 329.926 32.4285 329.819 32.4015C329.712 32.3745 329.618 32.3615 329.537 32.3615H329.477V31.4365H330.08C330.214 31.4365 330.355 31.4435 330.502 31.4565C330.649 31.4695 330.804 31.4765 330.965 31.4765H331.307C332.044 31.4765 332.587 31.4635 332.936 31.4365H333.037V32.3615H332.816C332.065 32.4285 331.562 32.6965 331.308 33.1655C331.281 33.1925 330.986 33.9295 330.423 35.3775C329.86 36.8255 329.263 38.3405 328.633 39.9225C328.003 41.5045 327.587 42.4435 327.386 42.7385C326.756 43.7175 325.992 44.2065 325.093 44.2065C324.503 44.2065 324.041 44.0255 323.705 43.6635C323.37 43.3015 323.202 42.8925 323.202 42.4365C323.202 42.0745 323.309 41.8195 323.524 41.6725C323.739 41.5255 323.966 41.4445 324.208 41.4315H324.207Z" fill="#F0F0F0"/>
<path d="M372.473 103.12H224.03V134.659H372.473V103.12Z" fill="black"/>
<path d="M231.491 117.696C231.491 117.361 231.364 117.193 231.109 117.193C230.787 117.193 230.452 117.387 230.104 117.776C229.756 118.165 229.467 118.761 229.239 119.566C229.226 119.579 229.212 119.6 229.199 119.626C229.186 119.652 229.179 119.673 229.179 119.686C229.179 119.699 229.166 119.713 229.139 119.726C229.112 119.739 229.092 119.746 229.079 119.746H228.556C228.476 119.666 228.435 119.605 228.435 119.565C228.435 119.471 228.489 119.277 228.596 118.982C228.703 118.687 228.864 118.339 229.079 117.936C229.294 117.533 229.588 117.192 229.964 116.911C230.34 116.63 230.762 116.482 231.231 116.469C231.794 116.469 232.23 116.63 232.538 116.952C232.846 117.274 233.007 117.649 233.021 118.078C233.021 118.306 233.001 118.48 232.961 118.601C232.961 118.681 232.86 118.976 232.659 119.486C232.458 119.996 232.25 120.592 232.036 121.276C231.822 121.96 231.701 122.556 231.674 123.066C231.674 123.428 231.708 123.723 231.775 123.951C231.949 124.527 232.372 124.816 233.042 124.816C233.538 124.816 234 124.588 234.429 124.132C234.858 123.676 235.193 123.147 235.434 122.544C235.675 121.941 235.87 121.384 236.017 120.875C236.164 120.366 236.238 119.997 236.238 119.769C236.238 119.461 236.184 119.193 236.077 118.965C235.97 118.737 235.849 118.563 235.715 118.442C235.581 118.321 235.46 118.201 235.353 118.08C235.246 117.959 235.192 117.812 235.192 117.638C235.192 117.343 235.319 117.068 235.574 116.814C235.829 116.56 236.104 116.432 236.398 116.432C236.653 116.432 236.881 116.553 237.082 116.794C237.283 117.035 237.39 117.424 237.404 117.96C237.404 118.322 237.324 118.878 237.163 119.629C237.002 120.38 236.754 121.217 236.419 122.142C236.084 123.067 235.608 123.865 234.991 124.535C234.374 125.205 233.664 125.547 232.86 125.56C232.002 125.56 231.318 125.339 230.809 124.896C230.313 124.467 230.065 123.83 230.065 122.986C230.065 122.57 230.119 122.141 230.226 121.699C230.333 121.257 230.608 120.472 231.05 119.346C231.345 118.488 231.492 117.938 231.492 117.697L231.491 117.696Z" fill="#F0F0F0"/>
<path d="M239.655 120.31C239.655 119.385 239.722 118.507 239.856 117.676C239.99 116.845 240.144 116.128 240.318 115.524C240.492 114.921 240.74 114.331 241.062 113.755C241.384 113.179 241.638 112.73 241.826 112.408C242.014 112.086 242.295 111.738 242.671 111.362C243.046 110.987 243.268 110.759 243.335 110.678C243.402 110.597 243.57 110.457 243.838 110.256H244.18C244.368 110.256 244.462 110.316 244.462 110.437C244.462 110.477 244.348 110.618 244.12 110.859C243.892 111.1 243.617 111.456 243.296 111.925C242.975 112.394 242.646 112.971 242.311 113.654C241.976 114.337 241.694 115.263 241.466 116.429C241.238 117.595 241.124 118.889 241.124 120.31C241.124 121.731 241.238 123.018 241.466 124.171C241.694 125.324 241.969 126.255 242.29 126.966C242.612 127.676 242.94 128.253 243.275 128.695C243.61 129.137 243.892 129.493 244.12 129.761C244.348 130.029 244.462 130.17 244.462 130.183C244.462 130.304 244.361 130.364 244.16 130.364H243.838L243.275 129.881C242.015 128.742 241.097 127.321 240.52 125.618C239.944 123.916 239.655 122.146 239.655 120.31Z" fill="#F0F0F0"/>
<path d="M246.109 117.596C246.015 117.502 245.968 117.435 245.968 117.395C245.968 117.341 245.988 117.234 246.028 117.073C246.068 116.912 246.102 116.818 246.129 116.791C246.156 116.724 246.216 116.69 246.31 116.69C246.404 116.69 246.746 116.683 247.335 116.67H248.401L248.783 115.061C248.823 114.914 248.87 114.719 248.924 114.478C248.978 114.237 249.025 114.062 249.065 113.955C249.105 113.848 249.145 113.714 249.186 113.553C249.227 113.392 249.28 113.278 249.347 113.211C249.414 113.144 249.481 113.064 249.548 112.97C249.615 112.876 249.709 112.816 249.83 112.789C249.951 112.762 250.071 112.749 250.192 112.749C250.433 112.762 250.601 112.836 250.695 112.97C250.789 113.104 250.836 113.231 250.836 113.352C250.836 113.446 250.776 113.761 250.655 114.297C250.534 114.833 250.4 115.363 250.253 115.885L250.052 116.629C250.052 116.656 250.387 116.669 251.057 116.669H252.082C252.176 116.763 252.223 116.837 252.223 116.89C252.223 117.185 252.136 117.42 251.962 117.594H249.81L249.086 120.51C248.563 122.655 248.302 123.808 248.302 123.969C248.302 124.532 248.483 124.814 248.845 124.814C249.314 124.814 249.77 124.586 250.212 124.13C250.654 123.674 251.01 123.111 251.278 122.441C251.305 122.361 251.338 122.314 251.379 122.3C251.42 122.286 251.52 122.273 251.681 122.26H251.761C251.962 122.26 252.063 122.314 252.063 122.421C252.063 122.461 252.043 122.542 252.003 122.662C251.936 122.876 251.815 123.131 251.641 123.426C251.467 123.721 251.239 124.036 250.957 124.371C250.675 124.706 250.334 124.988 249.932 125.216C249.53 125.444 249.121 125.558 248.705 125.558C248.303 125.558 247.921 125.457 247.559 125.256C247.197 125.055 246.936 124.706 246.775 124.21C246.748 124.103 246.735 123.922 246.735 123.667V123.305L247.439 120.49C247.908 118.6 248.149 117.648 248.163 117.635C248.163 117.608 247.821 117.595 247.138 117.595H246.113L246.109 117.596Z" fill="#F0F0F0"/>
<path d="M254.052 110.277L254.132 110.257H254.574L255.137 110.74C256.397 111.879 257.315 113.3 257.892 115.003C258.468 116.705 258.757 118.475 258.757 120.311C258.757 121.223 258.69 122.101 258.556 122.945C258.422 123.789 258.268 124.507 258.094 125.097C257.92 125.687 257.672 126.277 257.35 126.866C257.028 127.456 256.774 127.905 256.586 128.213C256.398 128.521 256.124 128.863 255.762 129.238C255.4 129.613 255.186 129.835 255.119 129.902C255.052 129.969 254.898 130.096 254.657 130.284C254.617 130.324 254.59 130.351 254.577 130.364H254.115C254.075 130.364 254.041 130.344 254.014 130.304C253.987 130.264 253.967 130.203 253.954 130.123C253.967 130.11 254.041 130.022 254.175 129.862C256.253 127.704 257.292 124.52 257.292 120.311C257.292 116.102 256.253 112.918 254.175 110.76C254.041 110.599 253.967 110.512 253.954 110.499C253.954 110.392 253.988 110.318 254.055 110.278L254.052 110.277Z" fill="#F0F0F0"/>
<path d="M267.379 118.36C267.379 118.186 267.473 118.052 267.661 117.958H280.47C280.671 118.065 280.772 118.199 280.772 118.36C280.772 118.507 280.678 118.635 280.49 118.742L274.096 118.762H267.702C267.488 118.695 267.38 118.561 267.38 118.36H267.379ZM267.379 122.261C267.379 122.06 267.486 121.926 267.701 121.859H280.489C280.677 121.993 280.771 122.127 280.771 122.261C280.771 122.435 280.67 122.569 280.469 122.663H267.66C267.472 122.569 267.378 122.435 267.378 122.261H267.379Z" fill="#F0F0F0"/>
<path d="M289.172 120.311C289.172 120.137 289.266 120.003 289.454 119.909H301.137C301.338 120.016 301.439 120.15 301.439 120.311C301.439 120.472 301.338 120.606 301.137 120.713H289.454C289.266 120.619 289.172 120.485 289.172 120.311Z" fill="#F0F0F0"/>
<path d="M303.649 117.596C303.555 117.502 303.508 117.435 303.508 117.395C303.508 117.341 303.528 117.234 303.568 117.073C303.608 116.912 303.642 116.818 303.669 116.791C303.696 116.724 303.756 116.69 303.85 116.69C303.944 116.69 304.286 116.683 304.875 116.67H305.941L306.323 115.061C306.363 114.914 306.41 114.719 306.464 114.478C306.518 114.237 306.565 114.062 306.605 113.955C306.645 113.848 306.685 113.714 306.726 113.553C306.767 113.392 306.82 113.278 306.887 113.211C306.954 113.144 307.021 113.064 307.088 112.97C307.155 112.876 307.249 112.816 307.37 112.789C307.491 112.762 307.611 112.749 307.732 112.749C307.973 112.762 308.141 112.836 308.235 112.97C308.329 113.104 308.376 113.231 308.376 113.352C308.376 113.446 308.316 113.761 308.195 114.297C308.074 114.833 307.94 115.363 307.793 115.885L307.592 116.629C307.592 116.656 307.927 116.669 308.597 116.669H309.622C309.716 116.763 309.763 116.837 309.763 116.89C309.763 117.185 309.676 117.42 309.502 117.594H307.35L306.626 120.51C306.103 122.655 305.842 123.808 305.842 123.969C305.842 124.532 306.023 124.814 306.385 124.814C306.854 124.814 307.31 124.586 307.752 124.13C308.194 123.674 308.55 123.111 308.818 122.441C308.845 122.361 308.878 122.314 308.919 122.3C308.96 122.286 309.06 122.273 309.221 122.26H309.301C309.502 122.26 309.603 122.314 309.603 122.421C309.603 122.461 309.583 122.542 309.543 122.662C309.476 122.876 309.355 123.131 309.181 123.426C309.007 123.721 308.779 124.036 308.497 124.371C308.215 124.706 307.874 124.988 307.472 125.216C307.07 125.444 306.661 125.558 306.245 125.558C305.843 125.558 305.461 125.457 305.099 125.256C304.737 125.055 304.476 124.706 304.315 124.21C304.288 124.103 304.275 123.922 304.275 123.667V123.305L304.979 120.49C305.448 118.6 305.689 117.648 305.703 117.635C305.703 117.608 305.361 117.595 304.678 117.595H303.653L303.649 117.596Z" fill="#F0F0F0"/>
<path d="M312.598 110.934C312.342 110.934 312.138 110.849 311.987 110.678C311.835 110.507 311.76 110.299 311.76 110.052C311.76 109.379 312.011 108.796 312.513 108.303C313.015 107.81 313.641 107.564 314.39 107.564C315.252 107.564 315.973 107.829 316.551 108.36C317.129 108.891 317.423 109.578 317.432 110.421C317.432 110.829 317.337 111.217 317.148 111.587C316.959 111.957 316.731 112.279 316.466 112.554C316.201 112.829 315.822 113.18 315.329 113.606C314.988 113.9 314.514 114.336 313.907 114.914L313.068 115.71L314.148 115.724C315.636 115.724 316.427 115.7 316.522 115.653C316.588 115.634 316.702 115.212 316.863 114.388V114.345H317.432V114.388C317.423 114.416 317.361 114.848 317.247 115.682C317.133 116.516 317.062 116.952 317.034 116.99V117.033H311.76V116.592C311.76 116.526 311.788 116.455 311.845 116.379C311.902 116.303 312.044 116.137 312.271 115.881C312.546 115.578 312.783 115.312 312.982 115.085C313.067 114.99 313.228 114.815 313.465 114.559C313.702 114.303 313.863 114.128 313.948 114.033C314.033 113.938 314.171 113.782 314.36 113.564C314.55 113.346 314.682 113.185 314.758 113.081C314.834 112.977 314.943 112.835 315.085 112.655C315.227 112.475 315.327 112.323 315.384 112.2C315.441 112.077 315.512 111.939 315.597 111.788C315.682 111.637 315.744 111.485 315.782 111.333C315.82 111.181 315.853 111.039 315.882 110.907C315.911 110.775 315.925 110.618 315.925 110.438C315.925 109.841 315.764 109.324 315.442 108.888C315.12 108.452 314.66 108.234 314.063 108.234C313.75 108.234 313.475 108.315 313.238 108.476C313.001 108.637 312.835 108.793 312.74 108.945C312.645 109.097 312.598 109.187 312.598 109.215C312.598 109.224 312.622 109.229 312.669 109.229C312.84 109.229 313.015 109.295 313.195 109.428C313.375 109.561 313.465 109.779 313.465 110.082C313.465 110.319 313.389 110.518 313.238 110.679C313.087 110.84 312.873 110.924 312.598 110.934Z" fill="#F0F0F0"/>
<path d="M324.756 120.311C324.756 120.137 324.85 120.003 325.038 119.909H331.05V116.893L331.07 113.877C331.204 113.703 331.331 113.616 331.452 113.616C331.626 113.616 331.76 113.717 331.854 113.918V119.91H337.846C338.047 120.017 338.148 120.151 338.148 120.312C338.148 120.473 338.047 120.607 337.846 120.714H331.854V126.706C331.747 126.894 331.626 126.988 331.492 126.988H331.412C331.251 126.988 331.13 126.894 331.05 126.706V120.714H325.038C324.85 120.62 324.756 120.485 324.756 120.311Z" fill="#F0F0F0"/>
<path d="M345.151 116.952V115.404C345.151 114.372 345.513 113.541 346.237 112.911C346.961 112.281 347.792 111.959 348.73 111.946C349.682 111.946 350.526 112.228 351.264 112.791C352.002 113.354 352.37 114.085 352.37 114.983C352.37 115.385 352.296 115.76 352.149 116.109C352.002 116.458 351.827 116.739 351.626 116.954C351.425 117.169 351.217 117.356 351.003 117.517C350.789 117.678 350.614 117.799 350.48 117.879C350.346 117.959 350.272 118.013 350.259 118.04L350.541 118.221C350.729 118.355 350.916 118.489 351.104 118.623C351.292 118.757 351.399 118.831 351.426 118.844C352.431 119.635 352.934 120.634 352.934 121.84C352.934 122.899 352.545 123.817 351.768 124.595C350.991 125.372 349.985 125.768 348.752 125.781C347.546 125.781 346.554 125.439 345.776 124.756C344.999 124.072 344.61 123.228 344.61 122.222C344.61 120.774 345.475 119.568 347.204 118.603L346.842 118.342C346.56 118.168 346.38 118.034 346.299 117.94C345.535 117.283 345.153 116.439 345.153 115.406V116.954L345.151 116.952ZM349.494 117.575L349.615 117.495C349.695 117.441 349.756 117.401 349.796 117.374C349.836 117.347 349.903 117.3 349.997 117.233C350.091 117.166 350.171 117.099 350.238 117.032C350.305 116.965 350.379 116.885 350.459 116.791C350.539 116.697 350.613 116.61 350.68 116.53C350.747 116.45 350.814 116.342 350.881 116.208C350.948 116.074 351.008 115.96 351.062 115.866C351.116 115.772 351.149 115.638 351.163 115.464C351.177 115.29 351.19 115.142 351.203 115.022C351.203 114.446 351.009 113.956 350.62 113.554C350.231 113.152 349.782 112.897 349.273 112.79C349.179 112.777 348.958 112.77 348.609 112.77C348.059 112.77 347.543 112.944 347.061 113.293C346.579 113.642 346.33 114.077 346.317 114.6C346.317 114.908 346.404 115.19 346.578 115.445C346.752 115.7 346.927 115.894 347.101 116.028C347.275 116.162 347.61 116.377 348.106 116.671C348.2 116.738 348.274 116.785 348.327 116.812L349.493 117.576L349.494 117.575ZM348.77 124.914C349.547 124.914 350.218 124.686 350.781 124.23C351.344 123.774 351.626 123.225 351.626 122.581C351.626 122.353 351.592 122.139 351.525 121.938C351.458 121.737 351.378 121.569 351.284 121.435C351.19 121.301 351.043 121.153 350.842 120.993C350.641 120.833 350.487 120.711 350.38 120.631C350.273 120.551 350.078 120.423 349.797 120.249C349.515 120.075 349.335 119.961 349.254 119.907C349.066 119.786 348.865 119.659 348.651 119.525C348.437 119.391 348.262 119.277 348.128 119.183L347.967 119.082C347.887 119.082 347.692 119.196 347.384 119.424C347.076 119.652 346.754 120.021 346.419 120.53C346.084 121.039 345.91 121.589 345.896 122.179C345.896 122.97 346.184 123.62 346.761 124.129C347.337 124.638 348.008 124.9 348.772 124.913L348.77 124.914Z" fill="#F0F0F0"/>
<path d="M354.32 117.596C354.226 117.502 354.179 117.435 354.179 117.395C354.179 117.341 354.199 117.234 354.239 117.073C354.279 116.912 354.313 116.818 354.34 116.791C354.367 116.724 354.427 116.69 354.521 116.69C354.615 116.69 354.957 116.683 355.546 116.67H356.612L356.994 115.061C357.034 114.914 357.081 114.719 357.135 114.478C357.189 114.237 357.236 114.062 357.276 113.955C357.316 113.848 357.356 113.714 357.397 113.553C357.438 113.392 357.491 113.278 357.558 113.211C357.625 113.144 357.692 113.064 357.759 112.97C357.826 112.876 357.92 112.816 358.041 112.789C358.162 112.762 358.282 112.749 358.403 112.749C358.644 112.762 358.812 112.836 358.906 112.97C359 113.104 359.047 113.231 359.047 113.352C359.047 113.446 358.987 113.761 358.866 114.297C358.745 114.833 358.611 115.363 358.464 115.885L358.263 116.629C358.263 116.656 358.598 116.669 359.268 116.669H360.293C360.387 116.763 360.434 116.837 360.434 116.89C360.434 117.185 360.347 117.42 360.173 117.594H358.021L357.297 120.51C356.774 122.655 356.513 123.808 356.513 123.969C356.513 124.532 356.694 124.814 357.056 124.814C357.525 124.814 357.981 124.586 358.423 124.13C358.865 123.674 359.221 123.111 359.489 122.441C359.516 122.361 359.549 122.314 359.59 122.3C359.631 122.286 359.731 122.273 359.892 122.26H359.972C360.173 122.26 360.274 122.314 360.274 122.421C360.274 122.461 360.254 122.542 360.214 122.662C360.147 122.876 360.026 123.131 359.852 123.426C359.678 123.721 359.45 124.036 359.168 124.371C358.886 124.706 358.545 124.988 358.143 125.216C357.741 125.444 357.332 125.558 356.916 125.558C356.514 125.558 356.132 125.457 355.77 125.256C355.408 125.055 355.147 124.706 354.986 124.21C354.959 124.103 354.946 123.922 354.946 123.667V123.305L355.65 120.49C356.119 118.6 356.36 117.648 356.374 117.635C356.374 117.608 356.032 117.595 355.349 117.595H354.324L354.32 117.596Z" fill="#F0F0F0"/>
<path d="M73.963 5.63721H46.858V52.1272H73.963V5.63721Z" fill="black"/>
<path d="M53.919 18.0524H54.201C54.724 18.0524 55.039 17.9584 55.146 17.7704V16.5234C55.146 16.2954 55.153 16.0344 55.166 15.7394C55.179 15.4444 55.179 15.1634 55.166 14.8944V13.5674C55.166 13.0984 55.159 12.7024 55.146 12.3814V11.9184C55.106 11.6634 55.012 11.4964 54.864 11.4154C54.716 11.3344 54.415 11.2744 53.959 11.2344H53.597V10.7714C53.597 10.4634 53.61 10.3084 53.637 10.3084L53.838 10.2884C53.972 10.2754 54.16 10.2614 54.401 10.2484C54.642 10.2354 54.89 10.2214 55.145 10.2084C55.373 10.1954 55.614 10.1814 55.869 10.1684C56.124 10.1554 56.318 10.1344 56.452 10.1084C56.586 10.0824 56.66 10.0744 56.673 10.0884H56.733V10.8924C56.733 11.4014 56.74 11.6564 56.753 11.6564C56.766 11.6564 56.8 11.6224 56.854 11.5554C56.908 11.4884 56.988 11.3874 57.095 11.2534C57.202 11.1194 57.33 10.9984 57.477 10.8914C57.624 10.7844 57.819 10.6564 58.06 10.5094C58.301 10.3624 58.556 10.2544 58.824 10.1874C59.092 10.1204 59.434 10.0864 59.85 10.0864C60.051 10.0864 60.239 10.0994 60.413 10.1264C60.587 10.1534 60.741 10.1934 60.876 10.2474C61.011 10.3014 61.137 10.3544 61.258 10.4084C61.379 10.4624 61.479 10.5224 61.56 10.5894C61.641 10.6564 61.714 10.7304 61.781 10.8104C61.848 10.8904 61.908 10.9644 61.962 11.0314C62.016 11.0984 62.063 11.1724 62.103 11.2524C62.143 11.3324 62.17 11.3994 62.183 11.4534C62.196 11.5074 62.217 11.5604 62.243 11.6144L62.283 11.7154L62.343 11.6354C62.383 11.5814 62.423 11.5284 62.464 11.4744C62.505 11.4204 62.565 11.3474 62.645 11.2534C62.725 11.1594 62.813 11.0724 62.906 10.9924C62.999 10.9124 63.1 10.8244 63.208 10.7314C63.316 10.6384 63.449 10.5574 63.61 10.4904C63.771 10.4234 63.925 10.3564 64.073 10.2894C64.221 10.2224 64.395 10.1754 64.596 10.1484C64.797 10.1214 65.005 10.1014 65.219 10.0884C66.908 10.0884 67.826 10.8454 67.974 12.3604C67.987 12.4544 67.994 13.3864 67.994 15.1554V16.8844C67.994 17.3934 68.007 17.6954 68.034 17.7894C68.061 17.8834 68.135 17.9504 68.255 17.9904C68.537 18.0304 68.865 18.0504 69.24 18.0504H69.562V18.9754H69.401L68.938 18.9554C68.616 18.9424 68.274 18.9354 67.912 18.9354C67.55 18.9354 67.295 18.9284 67.148 18.9154C65.767 18.9154 65.016 18.9354 64.896 18.9754H64.735V18.0504H65.057C65.875 18.0504 66.284 17.9434 66.284 17.7284C66.297 17.7014 66.304 16.7764 66.304 14.9534C66.291 13.1434 66.277 12.1854 66.264 12.0774C66.184 11.7024 66.05 11.4204 65.862 11.2324C65.674 11.0444 65.513 10.9304 65.379 10.8904C65.245 10.8504 65.071 10.8364 64.856 10.8504C64.253 10.8504 63.723 11.0784 63.267 11.5344C62.905 11.8964 62.677 12.2654 62.583 12.6404C62.489 13.0154 62.436 13.5724 62.422 14.3094V16.8034C62.422 17.2054 62.429 17.4734 62.442 17.6074C62.455 17.7414 62.476 17.8284 62.502 17.8684C62.528 17.9084 62.589 17.9484 62.683 17.9894C62.965 18.0294 63.293 18.0494 63.668 18.0494H63.99V18.9744H63.829L63.346 18.9544C63.038 18.9414 62.703 18.9344 62.341 18.9344C61.979 18.9344 61.724 18.9274 61.577 18.9144C60.196 18.9144 59.445 18.9344 59.325 18.9744H59.164V18.0494H59.486C60.304 18.0494 60.713 17.9424 60.713 17.7274C60.726 17.7004 60.733 16.7754 60.733 14.9524C60.72 13.1424 60.706 12.1844 60.693 12.0764C60.613 11.7014 60.479 11.4194 60.291 11.2314C60.103 11.0434 59.942 10.9294 59.808 10.8894C59.674 10.8494 59.5 10.8354 59.285 10.8494C58.682 10.8494 58.152 11.0774 57.696 11.5334C57.334 11.8954 57.106 12.2644 57.012 12.6394C56.918 13.0144 56.865 13.5714 56.851 14.3084V16.8024C56.851 17.2044 56.858 17.4724 56.871 17.6064C56.884 17.7404 56.905 17.8274 56.931 17.8674C56.957 17.9074 57.018 17.9474 57.112 17.9884C57.394 18.0284 57.722 18.0484 58.097 18.0484H58.419V18.9734H58.258L57.795 18.9534C57.473 18.9404 57.131 18.9334 56.769 18.9334C56.407 18.9334 56.152 18.9264 56.005 18.9134C54.624 18.9134 53.873 18.9334 53.753 18.9734H53.592V18.0484H53.914L53.919 18.0524Z" fill="#F0F0F0"/>
<path d="M63.44 40.0115C63.44 39.4755 63.259 39.0125 62.897 38.6235C62.535 38.2345 62.012 38.0405 61.329 38.0405C60.846 38.0405 60.431 38.1275 60.082 38.3015C59.68 38.5565 59.479 38.9045 59.479 39.3475C59.466 39.4145 59.466 39.5015 59.479 39.6085C59.492 39.7155 59.6 39.8765 59.801 40.0915C60.002 40.3065 60.29 40.4735 60.666 40.5945C60.907 40.6615 61.202 40.7215 61.551 40.7755C61.9 40.8295 62.194 40.8895 62.436 40.9565C62.678 41.0235 62.892 41.1105 63.079 41.2175C63.307 41.3245 63.528 41.4585 63.743 41.6195C63.958 41.7805 64.172 42.0555 64.386 42.4435C64.6 42.8315 64.714 43.2475 64.728 43.6905C64.728 44.5215 64.473 45.2055 63.964 45.7415C63.455 46.2775 62.63 46.5525 61.491 46.5655H61.33C60.633 46.5655 59.989 46.3245 59.4 45.8415L59.239 45.9825L59.058 46.1635C58.978 46.2435 58.897 46.3175 58.817 46.3845L58.596 46.5855H58.355C58.315 46.5855 58.254 46.5455 58.174 46.4645V43.7095C58.174 43.4275 58.187 43.2605 58.214 43.2065C58.241 43.1525 58.308 43.1195 58.415 43.1055H58.596C58.757 43.1055 58.864 43.1325 58.918 43.1855C58.972 43.2385 59.005 43.3195 59.019 43.4265C59.033 43.5335 59.079 43.7145 59.16 43.9695C59.24 44.2245 59.368 44.5055 59.542 44.8145C60.011 45.4985 60.661 45.8405 61.493 45.8405C62.793 45.8405 63.444 45.3175 63.444 44.2725C63.444 43.8835 63.323 43.5685 63.082 43.3275C62.814 43.0055 62.258 42.7645 61.413 42.6035C60.568 42.4425 60.012 42.2885 59.744 42.1405C59.261 41.9125 58.879 41.6045 58.598 41.2155C58.316 40.8265 58.176 40.4115 58.176 39.9685C58.176 39.4455 58.29 39.0035 58.518 38.6415C58.746 38.2795 59.034 38.0115 59.383 37.8375C59.732 37.6635 60.067 37.5425 60.388 37.4755C60.709 37.4085 61.005 37.3745 61.273 37.3745H61.494C62.03 37.3745 62.499 37.4755 62.902 37.6765L63.204 37.8375L63.385 37.6965C63.519 37.5755 63.667 37.4615 63.827 37.3545H64.068C64.108 37.3545 64.169 37.3945 64.249 37.4755V40.1295L64.128 40.2505H63.565C63.485 40.1705 63.444 40.0895 63.444 40.0095L63.44 40.0115Z" fill="#F0F0F0"/>
<path d="M71.856 26.9404H51.083V28.1474H71.856V26.9404Z" fill="#F0F0F0"/>
<path d="M567.83 348.569H556.563V369.209H567.83V348.569Z" fill="black"/>
<path d="M561.113 357.859C561.019 357.765 560.972 357.698 560.972 357.658C560.972 357.604 560.992 357.497 561.032 357.336C561.072 357.175 561.106 357.081 561.133 357.054C561.16 356.987 561.22 356.953 561.314 356.953C561.408 356.953 561.75 356.946 562.34 356.933H563.406L563.788 355.324C563.828 355.177 563.875 354.982 563.929 354.741C563.983 354.5 564.03 354.325 564.07 354.218C564.11 354.111 564.15 353.977 564.191 353.816C564.232 353.655 564.285 353.541 564.352 353.474C564.419 353.407 564.486 353.327 564.553 353.233C564.62 353.139 564.714 353.079 564.835 353.052C564.956 353.025 565.076 353.012 565.197 353.012C565.438 353.025 565.606 353.099 565.7 353.233C565.794 353.367 565.841 353.494 565.841 353.615C565.841 353.709 565.781 354.024 565.66 354.56C565.539 355.096 565.405 355.626 565.258 356.149L565.057 356.893C565.057 356.92 565.392 356.933 566.062 356.933H567.088C567.182 357.027 567.229 357.101 567.229 357.154C567.229 357.449 567.142 357.684 566.968 357.858H564.816L564.092 360.774C563.569 362.919 563.308 364.072 563.308 364.233C563.308 364.796 563.489 365.078 563.851 365.078C564.32 365.078 564.776 364.85 565.218 364.394C565.66 363.938 566.016 363.375 566.284 362.705C566.311 362.625 566.344 362.578 566.385 362.564C566.426 362.55 566.526 362.537 566.687 362.524H566.767C566.968 362.524 567.069 362.578 567.069 362.685C567.069 362.725 567.049 362.806 567.009 362.926C566.942 363.14 566.821 363.395 566.647 363.69C566.473 363.985 566.245 364.3 565.963 364.635C565.681 364.97 565.34 365.252 564.937 365.48C564.535 365.708 564.126 365.822 563.71 365.822C563.308 365.822 562.926 365.721 562.564 365.52C562.202 365.319 561.941 364.97 561.78 364.474C561.753 364.367 561.74 364.186 561.74 363.931V363.569L562.444 360.754C562.913 358.864 563.154 357.912 563.168 357.899C563.168 357.872 562.826 357.859 562.142 357.859H561.116H561.113Z" fill="#F0F0F0"/>
</g>
<defs>
<clipPath id="clip0_934_907">
<rect width="600" height="420" fill="white"/>
</clipPath>
</defs>
</svg>
