<svg width="600" height="400" viewBox="0 0 600 400" fill="none" xmlns="http://www.w3.org/2000/svg">
<g clip-path="url(#clip0_97_74)">
<path d="M600 0H0V400H600V0Z" fill="#181818"/>
<path d="M100 50V350" stroke="#262626"/>
<path d="M150 50V350" stroke="#262626"/>
<path d="M200 50V350" stroke="#262626"/>
<path d="M250 50V350" stroke="#262626"/>
<path d="M350 50V350" stroke="#262626"/>
<path d="M400 50V350" stroke="#262626"/>
<path d="M450 50V350" stroke="#262626"/>
<path d="M500 50V350" stroke="#262626"/>
<path d="M50 60H550" stroke="#262626"/>
<path d="M50 70H550" stroke="#262626"/>
<path d="M50 80H550" stroke="#262626"/>
<path d="M50 90H550" stroke="#262626"/>
<path d="M50 110H550" stroke="#262626"/>
<path d="M50 120H550" stroke="#262626"/>
<path d="M50 130H550" stroke="#262626"/>
<path d="M50 140H550" stroke="#262626"/>
<path d="M50 160H550" stroke="#262626"/>
<path d="M50 170H550" stroke="#262626"/>
<path d="M50 180H550" stroke="#262626"/>
<path d="M50 190H550" stroke="#262626"/>
<path d="M50 210H550" stroke="#262626"/>
<path d="M50 220H550" stroke="#262626"/>
<path d="M50 230H550" stroke="#262626"/>
<path d="M50 240H550" stroke="#262626"/>
<path d="M50 260H550" stroke="#262626"/>
<path d="M50 270H550" stroke="#262626"/>
<path d="M50 280H550" stroke="#262626"/>
<path d="M50 290H550" stroke="#262626"/>
<path d="M50 310H550" stroke="#262626"/>
<path d="M50 320H550" stroke="#262626"/>
<path d="M50 330H550" stroke="#262626"/>
<path d="M50 340H550" stroke="#262626"/>
<path d="M300 50V350" stroke="#404040"/>
<path d="M50 100H550" stroke="#404040"/>
<path d="M50 200H550" stroke="#404040"/>
<path d="M50 300H550" stroke="#404040"/>
<path d="M50 50V350" stroke="#666666"/>
<path d="M550 50V350" stroke="#666666"/>
<path d="M50 50H550" stroke="#666666"/>
<path d="M50 150H550" stroke="#666666"/>
<path d="M50 250H550" stroke="#666666"/>
<path d="M50 350H550" stroke="#666666"/>
<path d="M49.6362 349.713C182.939 136.219 316.597 136.64 449.636 349.713" stroke="#6AB0F3" stroke-width="1.5"/>
<path d="M29.3519 342.975C30.0989 341.895 31.1189 341.355 32.4119 341.355C33.3849 341.355 34.2389 341.689 34.9719 342.355C35.3319 342.703 35.6389 343.156 35.8919 343.715C36.3849 344.821 36.6319 346.342 36.6319 348.275C36.6319 350.342 36.3449 351.922 35.7719 353.015C35.3989 353.788 34.8519 354.349 34.1319 354.695C33.5719 354.975 33.0049 355.116 32.4319 355.116C30.8989 355.116 29.7789 354.416 29.0719 353.015C28.4979 351.922 28.2119 350.342 28.2119 348.275C28.2119 347.036 28.2949 346.012 28.4619 345.206C28.6289 344.399 28.9249 343.656 29.3519 342.976V342.975ZM33.8519 342.735C33.4649 342.309 32.9919 342.095 32.4319 342.095C31.8719 342.095 31.3919 342.309 30.9919 342.735C30.6989 343.043 30.4979 343.416 30.3919 343.855C30.2849 344.295 30.2189 345.055 30.1919 346.135C30.1919 346.215 30.1889 346.475 30.1819 346.915C30.1749 347.354 30.1719 347.722 30.1719 348.015C30.1719 349.295 30.1849 350.189 30.2119 350.695C30.2649 351.629 30.3449 352.299 30.4519 352.706C30.5579 353.112 30.7589 353.463 31.0519 353.756C31.4119 354.156 31.8719 354.356 32.4319 354.356C32.9779 354.356 33.4319 354.157 33.7919 353.756C34.0849 353.463 34.2849 353.112 34.3919 352.706C34.4979 352.299 34.5789 351.629 34.6319 350.695C34.6579 350.189 34.6719 349.296 34.6719 348.015C34.6719 347.722 34.6679 347.355 34.6619 346.915C34.6549 346.475 34.6519 346.215 34.6519 346.135C34.6249 345.055 34.5579 344.295 34.4519 343.855C34.3449 343.416 34.1449 343.043 33.8519 342.735Z" fill="#F0F0F0"/>
<path d="M43.8812 371.668C44.6282 370.588 45.6482 370.048 46.9412 370.048C47.9142 370.048 48.7682 370.382 49.5012 371.048C49.8612 371.396 50.1682 371.849 50.4212 372.408C50.9142 373.514 51.1612 375.035 51.1612 376.968C51.1612 379.035 50.8742 380.615 50.3012 381.708C49.9282 382.481 49.3812 383.042 48.6612 383.388C48.1012 383.668 47.5342 383.809 46.9612 383.809C45.4282 383.809 44.3082 383.109 43.6012 381.708C43.0272 380.615 42.7412 379.035 42.7412 376.968C42.7412 375.729 42.8242 374.705 42.9912 373.899C43.1582 373.092 43.4542 372.349 43.8812 371.669V371.668ZM48.3812 371.428C47.9942 371.002 47.5212 370.788 46.9612 370.788C46.4012 370.788 45.9212 371.002 45.5212 371.428C45.2282 371.736 45.0272 372.109 44.9212 372.548C44.8142 372.988 44.7482 373.748 44.7212 374.828C44.7212 374.908 44.7182 375.168 44.7112 375.608C44.7042 376.047 44.7012 376.415 44.7012 376.708C44.7012 377.988 44.7142 378.882 44.7412 379.388C44.7942 380.322 44.8742 380.992 44.9812 381.399C45.0872 381.805 45.2882 382.156 45.5812 382.449C45.9412 382.849 46.4012 383.049 46.9612 383.049C47.5072 383.049 47.9612 382.85 48.3212 382.449C48.6142 382.156 48.8142 381.805 48.9212 381.399C49.0272 380.992 49.1082 380.322 49.1612 379.388C49.1872 378.882 49.2012 377.989 49.2012 376.708C49.2012 376.415 49.1972 376.048 49.1912 375.608C49.1842 375.168 49.1812 374.908 49.1812 374.828C49.1542 373.748 49.0872 372.988 48.9812 372.548C48.8742 372.109 48.6742 371.736 48.3812 371.428Z" fill="#F0F0F0"/>
<path d="M552.066 383.807C551.839 383.767 550.779 383.747 548.886 383.747C547.019 383.747 545.972 383.767 545.746 383.807H545.506V382.887H546.026C546.799 382.887 547.299 382.866 547.526 382.826C547.633 382.813 547.793 382.733 548.006 382.587V372.247C547.979 372.247 547.926 372.267 547.846 372.307C547.232 372.547 546.546 372.674 545.786 372.687H545.406V371.767H545.786C546.906 371.727 547.839 371.474 548.586 371.007C548.826 370.873 549.033 370.72 549.206 370.547C549.232 370.507 549.312 370.486 549.446 370.486C549.579 370.486 549.693 370.526 549.786 370.606V376.586L549.806 382.586C550.006 382.786 550.439 382.886 551.106 382.886H552.286V383.806H552.066V383.807Z" fill="#F0F0F0"/>
<path d="M555.666 372.107C556.413 371.027 557.433 370.487 558.726 370.487C559.699 370.487 560.553 370.821 561.286 371.487C561.646 371.835 561.953 372.288 562.206 372.847C562.699 373.953 562.946 375.474 562.946 377.407C562.946 379.474 562.659 381.054 562.086 382.147C561.713 382.92 561.166 383.481 560.446 383.827C559.886 384.107 559.319 384.248 558.746 384.248C557.213 384.248 556.093 383.548 555.386 382.147C554.812 381.054 554.526 379.474 554.526 377.407C554.526 376.168 554.609 375.144 554.776 374.338C554.943 373.531 555.239 372.788 555.666 372.108V372.107ZM560.166 371.867C559.779 371.441 559.306 371.227 558.746 371.227C558.186 371.227 557.706 371.441 557.306 371.867C557.013 372.175 556.812 372.548 556.706 372.987C556.599 373.427 556.533 374.187 556.506 375.267C556.506 375.347 556.503 375.607 556.496 376.047C556.489 376.486 556.486 376.854 556.486 377.147C556.486 378.427 556.499 379.321 556.526 379.827C556.579 380.761 556.659 381.431 556.766 381.838C556.872 382.244 557.073 382.595 557.366 382.888C557.726 383.288 558.186 383.488 558.746 383.488C559.292 383.488 559.746 383.289 560.106 382.888C560.399 382.595 560.599 382.244 560.706 381.838C560.812 381.431 560.893 380.761 560.946 379.827C560.972 379.321 560.986 378.428 560.986 377.147C560.986 376.854 560.982 376.487 560.976 376.047C560.969 375.607 560.966 375.347 560.966 375.267C560.939 374.187 560.872 373.427 560.766 372.987C560.659 372.548 560.459 372.175 560.166 371.867Z" fill="#F0F0F0"/>
<path d="M26.972 254.977C26.745 254.937 25.685 254.917 23.792 254.917C21.925 254.917 20.878 254.937 20.652 254.977H20.412V254.057H20.932C21.705 254.057 22.205 254.036 22.432 253.996C22.539 253.983 22.699 253.903 22.912 253.757V243.417C22.885 243.417 22.832 243.437 22.752 243.477C22.138 243.717 21.452 243.844 20.692 243.857H20.312V242.937H20.692C21.812 242.897 22.745 242.644 23.492 242.177C23.732 242.043 23.939 241.89 24.112 241.717C24.138 241.677 24.218 241.656 24.352 241.656C24.485 241.656 24.599 241.696 24.692 241.776V247.756L24.712 253.756C24.912 253.956 25.345 254.056 26.012 254.056H27.192V254.976H26.972V254.977Z" fill="#F0F0F0"/>
<path d="M30.5721 243.276C31.3191 242.196 32.3391 241.656 33.6321 241.656C34.6051 241.656 35.4591 241.99 36.1921 242.656C36.5521 243.004 36.8591 243.457 37.1121 244.016C37.6051 245.122 37.8521 246.643 37.8521 248.576C37.8521 250.643 37.5651 252.223 36.9921 253.316C36.6191 254.089 36.0721 254.65 35.3521 254.996C34.7921 255.276 34.2251 255.417 33.6521 255.417C32.1191 255.417 30.9991 254.717 30.2921 253.316C29.7181 252.223 29.4321 250.643 29.4321 248.576C29.4321 247.337 29.5151 246.313 29.6821 245.507C29.8491 244.7 30.1451 243.956 30.5721 243.276ZM35.0721 243.036C34.6851 242.61 34.2121 242.396 33.6521 242.396C33.0921 242.396 32.6121 242.61 32.2121 243.036C31.9191 243.344 31.7181 243.717 31.6121 244.156C31.5051 244.596 31.4391 245.356 31.4121 246.436C31.4121 246.516 31.4091 246.776 31.4021 247.216C31.3951 247.655 31.3921 248.023 31.3921 248.316C31.3921 249.596 31.4051 250.49 31.4321 250.996C31.4851 251.93 31.5651 252.6 31.6721 253.007C31.7781 253.413 31.9791 253.764 32.2721 254.057C32.6321 254.457 33.0921 254.657 33.6521 254.657C34.1981 254.657 34.6521 254.458 35.0121 254.057C35.3051 253.764 35.5051 253.413 35.6121 253.007C35.7181 252.6 35.7991 251.93 35.8521 250.996C35.8781 250.49 35.8921 249.597 35.8921 248.316C35.8921 248.023 35.8881 247.656 35.8821 247.216C35.8751 246.776 35.8721 246.516 35.8721 246.436C35.8451 245.356 35.7781 244.596 35.6721 244.156C35.5651 243.717 35.3651 243.344 35.0721 243.036Z" fill="#F0F0F0"/>
<path d="M18.8519 147.242C18.4779 147.242 18.1849 147.122 17.9719 146.882C17.7589 146.643 17.6519 146.35 17.6519 146.002C17.6519 145.042 18.0149 144.219 18.7419 143.532C19.4689 142.845 20.3389 142.502 21.3519 142.502C22.4979 142.502 23.4479 142.813 24.2019 143.433C24.9559 144.053 25.4189 144.863 25.5919 145.863C25.6189 146.103 25.6319 146.323 25.6319 146.523C25.6319 147.296 25.3989 148.023 24.9319 148.703C24.5589 149.264 23.8059 150.03 22.6719 151.003C22.1919 151.417 21.5249 152.03 20.6719 152.843L19.4919 153.963L21.0119 153.984C23.1049 153.984 24.2189 153.951 24.3519 153.883C24.4049 153.87 24.4719 153.731 24.5519 153.463C24.6049 153.317 24.6979 152.863 24.8319 152.104V152.043H25.6319V152.104L25.0719 155.764V155.824H17.6519V155.444C17.6519 155.177 17.6649 155.024 17.6919 154.984C17.7049 154.958 18.2649 154.324 19.3719 153.084C20.8249 151.471 21.7579 150.404 22.1719 149.884C23.0649 148.671 23.5119 147.558 23.5119 146.544C23.5119 145.664 23.2819 144.928 22.8219 144.334C22.3619 143.741 21.7179 143.444 20.8919 143.444C20.1189 143.444 19.4919 143.791 19.0119 144.484C18.9849 144.538 18.9449 144.611 18.8919 144.704C18.8519 144.771 18.8319 144.811 18.8319 144.824C18.8319 144.838 18.8649 144.844 18.9319 144.844C19.2649 144.844 19.5359 144.964 19.7419 145.204C19.9479 145.444 20.0519 145.725 20.0519 146.044C20.0519 146.378 19.9419 146.661 19.7219 146.895C19.5019 147.128 19.2119 147.245 18.8519 147.245V147.242Z" fill="#F0F0F0"/>
<path d="M28.5716 144.122C29.3186 143.042 30.3386 142.502 31.6316 142.502C32.6046 142.502 33.4586 142.836 34.1916 143.502C34.5516 143.85 34.8586 144.303 35.1116 144.862C35.6046 145.968 35.8516 147.489 35.8516 149.422C35.8516 151.489 35.5646 153.069 34.9916 154.162C34.6186 154.935 34.0716 155.496 33.3516 155.842C32.7916 156.122 32.2246 156.263 31.6516 156.263C30.1186 156.263 28.9986 155.563 28.2916 154.162C27.7176 153.069 27.4316 151.489 27.4316 149.422C27.4316 148.183 27.5146 147.159 27.6816 146.353C27.8486 145.546 28.1446 144.803 28.5716 144.123V144.122ZM33.0716 143.882C32.6846 143.456 32.2116 143.242 31.6516 143.242C31.0916 143.242 30.6116 143.456 30.2116 143.882C29.9186 144.19 29.7176 144.563 29.6116 145.002C29.5046 145.442 29.4386 146.202 29.4116 147.282C29.4116 147.362 29.4086 147.622 29.4016 148.062C29.3946 148.501 29.3916 148.869 29.3916 149.162C29.3916 150.442 29.4046 151.336 29.4316 151.842C29.4846 152.776 29.5646 153.446 29.6716 153.853C29.7776 154.259 29.9786 154.61 30.2716 154.903C30.6316 155.303 31.0916 155.503 31.6516 155.503C32.1976 155.503 32.6516 155.304 33.0116 154.903C33.3046 154.61 33.5046 154.259 33.6116 153.853C33.7176 153.446 33.7986 152.776 33.8516 151.842C33.8776 151.336 33.8916 150.443 33.8916 149.162C33.8916 148.869 33.8876 148.502 33.8816 148.062C33.8746 147.622 33.8716 147.362 33.8716 147.282C33.8446 146.202 33.7776 145.442 33.6716 145.002C33.5646 144.563 33.3646 144.19 33.0716 143.882Z" fill="#F0F0F0"/>
<path d="M18.1922 47.8039C17.8322 47.8039 17.5482 47.6909 17.3422 47.4639C17.1352 47.2369 17.0322 46.9429 17.0322 46.5829C17.0322 45.8229 17.3322 45.1869 17.9322 44.6739C18.5322 44.1599 19.2252 43.8569 20.0122 43.7639H20.3122C21.1522 43.7639 21.8922 43.9099 22.5322 44.2029C23.4122 44.6429 23.9652 45.2699 24.1922 46.0829C24.2322 46.2169 24.2522 46.3959 24.2522 46.6229C24.2522 47.4099 24.0082 48.1129 23.5222 48.7329C23.0352 49.3529 22.4252 49.7959 21.6922 50.0629C21.6252 50.0899 21.6252 50.1099 21.6922 50.1229C21.7182 50.1369 21.7852 50.1569 21.8922 50.1839C22.7052 50.4109 23.3922 50.8329 23.9522 51.4539C24.5122 52.0739 24.7922 52.7779 24.7922 53.5639C24.7922 54.2569 24.6152 54.8909 24.2622 55.4639C23.9082 56.0369 23.4592 56.4839 22.9122 56.8039C22.1652 57.2709 21.3322 57.5039 20.4122 57.5039C19.5322 57.5039 18.7522 57.3159 18.0722 56.9429C17.3922 56.5699 16.9322 56.0699 16.6922 55.4429C16.5592 55.1629 16.4922 54.8369 16.4922 54.4639C16.4922 54.0909 16.6152 53.7869 16.8622 53.5539C17.1092 53.3209 17.4052 53.2029 17.7522 53.2029C18.1252 53.2029 18.4322 53.3229 18.6722 53.5629C18.9122 53.8029 19.0322 54.1029 19.0322 54.4629C19.0322 54.7699 18.9452 55.0359 18.7722 55.2629C18.5992 55.4899 18.3652 55.6359 18.0722 55.7019L17.9322 55.7419C18.6522 56.3429 19.4792 56.6419 20.4122 56.6419C21.1452 56.6419 21.6992 56.2879 22.0722 55.5809C22.2992 55.1419 22.4122 54.4689 22.4122 53.5609V53.1609C22.4122 51.8939 21.9852 51.0489 21.1322 50.6209C20.9322 50.5419 20.5252 50.4949 19.9122 50.4809L19.0722 50.4609L19.0122 50.4209C18.9852 50.3809 18.9722 50.2749 18.9722 50.1009C18.9722 49.9409 18.9922 49.8409 19.0322 49.8009C19.0722 49.7609 19.1052 49.7399 19.1322 49.7399C19.5052 49.7399 19.8922 49.7069 20.2922 49.6399C20.8782 49.5599 21.3252 49.2299 21.6322 48.6499C21.9392 48.0699 22.0922 47.3739 22.0922 46.5599C22.0922 45.6939 21.8592 45.1139 21.3922 44.8199C21.1122 44.6329 20.7982 44.5409 20.4522 44.5409C19.7852 44.5409 19.1992 44.7209 18.6922 45.0799C18.6382 45.1069 18.5792 45.1499 18.5122 45.2109C18.4452 45.2709 18.3922 45.3269 18.3522 45.3809L18.2922 45.4609C18.3322 45.4739 18.3782 45.4869 18.4322 45.5009C18.6992 45.5269 18.9222 45.6539 19.1022 45.8809C19.2822 46.1079 19.3722 46.3669 19.3722 46.6599C19.3722 46.9799 19.2622 47.2509 19.0422 47.4709C18.8222 47.6909 18.5392 47.8009 18.1922 47.8009V47.8039Z" fill="#F0F0F0"/>
<path d="M27.5721 45.3639C28.3191 44.2839 29.3391 43.7439 30.6321 43.7439C31.6051 43.7439 32.4591 44.0779 33.1921 44.7439C33.5521 45.0919 33.8591 45.5449 34.1121 46.1039C34.6051 47.2099 34.8521 48.7309 34.8521 50.6639C34.8521 52.7309 34.5651 54.3109 33.9921 55.4039C33.6191 56.1769 33.0721 56.7379 32.3521 57.0839C31.7921 57.3639 31.2251 57.5049 30.6521 57.5049C29.1191 57.5049 27.9991 56.8049 27.2921 55.4039C26.7181 54.3109 26.4321 52.7309 26.4321 50.6639C26.4321 49.4249 26.5151 48.4009 26.6821 47.5949C26.8491 46.7879 27.1451 46.0449 27.5721 45.3649V45.3639ZM32.0721 45.1239C31.6851 44.6979 31.2121 44.4839 30.6521 44.4839C30.0921 44.4839 29.6121 44.6979 29.2121 45.1239C28.9191 45.4319 28.7181 45.8049 28.6121 46.2439C28.5051 46.6839 28.4391 47.4439 28.4121 48.5239C28.4121 48.6039 28.4091 48.8639 28.4021 49.3039C28.3951 49.7429 28.3921 50.1109 28.3921 50.4039C28.3921 51.6839 28.4051 52.5779 28.4321 53.0839C28.4851 54.0179 28.5651 54.6879 28.6721 55.0949C28.7781 55.5009 28.9791 55.8519 29.2721 56.1449C29.6321 56.5449 30.0921 56.7449 30.6521 56.7449C31.1981 56.7449 31.6521 56.5459 32.0121 56.1449C32.3051 55.8519 32.5051 55.5009 32.6121 55.0949C32.7181 54.6879 32.7991 54.0179 32.8521 53.0839C32.8781 52.5779 32.8921 51.6849 32.8921 50.4039C32.8921 50.1109 32.8881 49.7439 32.8821 49.3039C32.8751 48.8639 32.8721 48.6039 32.8721 48.5239C32.8451 47.4439 32.7781 46.6839 32.6721 46.2439C32.5651 45.8049 32.3651 45.4319 32.0721 45.1239Z" fill="#F0F0F0"/>
<path d="M325 115H175V165H325V115Z" fill="#181818"/>
<path d="M190.32 139.491C190.32 139.152 190.191 138.982 189.933 138.982C189.607 138.982 189.268 139.179 188.915 139.572C188.562 139.965 188.27 140.57 188.04 141.384C188.026 141.398 188.013 141.418 187.999 141.445C187.985 141.472 187.979 141.493 187.979 141.506C187.979 141.519 187.965 141.533 187.938 141.547C187.911 141.561 187.89 141.567 187.877 141.567H187.348C187.267 141.486 187.226 141.424 187.226 141.384C187.226 141.289 187.28 141.092 187.389 140.794C187.498 140.495 187.66 140.143 187.878 139.735C188.096 139.327 188.394 138.982 188.774 138.697C189.154 138.412 189.582 138.263 190.057 138.249C190.627 138.249 191.068 138.412 191.38 138.738C191.692 139.064 191.855 139.444 191.869 139.878C191.869 140.109 191.849 140.285 191.808 140.407C191.808 140.488 191.706 140.787 191.503 141.303C191.3 141.819 191.089 142.423 190.872 143.115C190.655 143.807 190.533 144.411 190.506 144.927C190.506 145.293 190.54 145.592 190.608 145.823C190.784 146.407 191.212 146.698 191.891 146.698C192.393 146.698 192.861 146.467 193.296 146.006C193.73 145.545 194.07 145.008 194.314 144.398C194.558 143.788 194.755 143.224 194.904 142.708C195.053 142.192 195.128 141.819 195.128 141.588C195.128 141.276 195.074 141.004 194.965 140.774C194.856 140.544 194.734 140.367 194.599 140.245C194.464 140.123 194.341 140.001 194.233 139.879C194.125 139.757 194.07 139.608 194.07 139.431C194.07 139.132 194.199 138.854 194.457 138.596C194.715 138.338 194.993 138.209 195.292 138.209C195.55 138.209 195.781 138.331 195.984 138.575C196.187 138.819 196.296 139.213 196.31 139.756C196.31 140.122 196.229 140.686 196.066 141.446C195.903 142.206 195.652 143.054 195.313 143.991C194.974 144.928 194.492 145.735 193.868 146.414C193.244 147.093 192.524 147.439 191.71 147.452C190.841 147.452 190.149 147.228 189.633 146.78C189.131 146.346 188.88 145.701 188.88 144.846C188.88 144.425 188.934 143.991 189.043 143.543C189.152 143.095 189.43 142.301 189.878 141.161C190.177 140.292 190.326 139.736 190.326 139.492L190.32 139.491Z" fill="#6AB0F3"/>
<path d="M198.586 142.138C198.586 141.202 198.654 140.313 198.79 139.471C198.926 138.629 199.082 137.903 199.258 137.293C199.434 136.682 199.686 136.085 200.011 135.501C200.336 134.917 200.595 134.463 200.785 134.137C200.975 133.811 201.26 133.458 201.64 133.078C202.02 132.698 202.244 132.467 202.312 132.386C202.38 132.305 202.55 132.162 202.821 131.958H203.167C203.357 131.958 203.452 132.019 203.452 132.141C203.452 132.182 203.337 132.324 203.106 132.569C202.875 132.814 202.597 133.173 202.271 133.648C201.945 134.123 201.613 134.707 201.273 135.399C200.933 136.091 200.649 137.028 200.418 138.208C200.187 139.388 200.072 140.698 200.072 142.137C200.072 143.576 200.187 144.879 200.418 146.046C200.649 147.213 200.927 148.156 201.253 148.876C201.579 149.595 201.911 150.179 202.251 150.627C202.591 151.075 202.875 151.435 203.106 151.706C203.337 151.977 203.452 152.12 203.452 152.134C203.452 152.256 203.35 152.317 203.147 152.317H202.821L202.251 151.828C200.975 150.674 200.046 149.236 199.462 147.512C198.878 145.788 198.587 143.997 198.587 142.137L198.586 142.138Z" fill="#F0F0F0"/>
<path d="M205.12 139.389C205.025 139.294 204.977 139.226 204.977 139.185C204.977 139.131 204.997 139.022 205.038 138.859C205.079 138.696 205.113 138.601 205.14 138.574C205.167 138.506 205.228 138.472 205.323 138.472C205.418 138.472 205.764 138.465 206.361 138.452H207.44L207.827 136.823C207.868 136.674 207.915 136.477 207.97 136.233C208.025 135.989 208.072 135.812 208.113 135.704C208.154 135.596 208.194 135.46 208.235 135.297C208.276 135.134 208.33 135.019 208.398 134.951C208.466 134.883 208.534 134.802 208.602 134.707C208.67 134.612 208.765 134.551 208.887 134.524C209.009 134.497 209.131 134.483 209.253 134.483C209.497 134.497 209.667 134.571 209.762 134.707C209.857 134.843 209.905 134.972 209.905 135.094C209.905 135.189 209.844 135.508 209.722 136.051C209.6 136.594 209.464 137.13 209.315 137.659L209.111 138.412C209.111 138.439 209.45 138.453 210.129 138.453H211.167C211.262 138.548 211.31 138.623 211.31 138.677C211.31 138.976 211.222 139.213 211.045 139.39H208.867L208.134 142.342C207.605 144.514 207.34 145.681 207.34 145.844C207.34 146.414 207.523 146.699 207.89 146.699C208.365 146.699 208.826 146.468 209.274 146.007C209.722 145.546 210.082 144.976 210.353 144.297C210.38 144.216 210.414 144.168 210.455 144.154C210.496 144.14 210.598 144.127 210.76 144.113H210.841C211.045 144.113 211.146 144.167 211.146 144.276C211.146 144.317 211.126 144.398 211.085 144.52C211.017 144.737 210.895 144.995 210.719 145.294C210.543 145.593 210.312 145.912 210.027 146.251C209.742 146.59 209.396 146.875 208.989 147.106C208.582 147.337 208.168 147.452 207.747 147.452C207.34 147.452 206.953 147.35 206.587 147.147C206.221 146.944 205.956 146.591 205.793 146.088C205.766 145.979 205.752 145.796 205.752 145.538V145.172L206.465 142.322C206.94 140.408 207.184 139.445 207.198 139.431C207.198 139.404 206.852 139.39 206.16 139.39H205.122L205.12 139.389Z" fill="#F0F0F0"/>
<path d="M213.162 131.979L213.243 131.959H213.691L214.261 132.448C215.537 133.602 216.466 135.04 217.05 136.764C217.634 138.488 217.925 140.279 217.925 142.139C217.925 143.062 217.857 143.951 217.721 144.806C217.585 145.661 217.429 146.387 217.253 146.984C217.077 147.581 216.825 148.178 216.5 148.776C216.174 149.373 215.916 149.828 215.726 150.14C215.536 150.452 215.258 150.798 214.891 151.178C214.524 151.558 214.307 151.782 214.24 151.85C214.173 151.918 214.016 152.047 213.772 152.237C213.731 152.278 213.704 152.305 213.691 152.318H213.223C213.182 152.318 213.148 152.298 213.121 152.257C213.094 152.216 213.073 152.155 213.06 152.074C213.074 152.06 213.148 151.972 213.284 151.809C215.388 149.624 216.439 146.401 216.439 142.139C216.439 137.877 215.387 134.654 213.284 132.469C213.148 132.306 213.074 132.218 213.06 132.204C213.06 132.095 213.094 132.02 213.162 131.979Z" fill="#F0F0F0"/>
<path d="M226.655 140.163C226.655 139.987 226.75 139.851 226.94 139.756H239.908C240.112 139.865 240.213 140 240.213 140.163C240.213 140.312 240.118 140.441 239.928 140.55L233.454 140.57H226.98C226.763 140.502 226.655 140.366 226.655 140.163ZM226.655 144.112C226.655 143.908 226.764 143.773 226.981 143.705H239.929C240.119 143.841 240.214 143.976 240.214 144.112C240.214 144.288 240.112 144.424 239.909 144.519H226.941C226.751 144.424 226.656 144.288 226.656 144.112H226.655Z" fill="#F0F0F0"/>
<path d="M247.538 139.389C247.443 139.294 247.395 139.226 247.395 139.185C247.395 139.131 247.415 139.022 247.456 138.859C247.497 138.696 247.531 138.601 247.558 138.574C247.585 138.506 247.646 138.472 247.741 138.472C247.836 138.472 248.182 138.465 248.779 138.452H249.858L250.245 136.823C250.286 136.674 250.333 136.477 250.388 136.233C250.443 135.989 250.49 135.812 250.531 135.704C250.572 135.596 250.612 135.46 250.653 135.297C250.694 135.134 250.748 135.019 250.816 134.951C250.884 134.883 250.952 134.802 251.02 134.707C251.088 134.612 251.183 134.551 251.305 134.524C251.427 134.497 251.549 134.483 251.671 134.483C251.915 134.497 252.085 134.571 252.18 134.707C252.275 134.843 252.323 134.972 252.323 135.094C252.323 135.189 252.262 135.508 252.14 136.051C252.018 136.594 251.882 137.13 251.733 137.659L251.529 138.412C251.529 138.439 251.868 138.453 252.547 138.453H253.585C253.68 138.548 253.728 138.623 253.728 138.677C253.728 138.976 253.64 139.213 253.463 139.39H251.285L250.552 142.342C250.023 144.514 249.758 145.681 249.758 145.844C249.758 146.414 249.941 146.699 250.308 146.699C250.783 146.699 251.244 146.468 251.692 146.007C252.14 145.546 252.5 144.976 252.771 144.297C252.798 144.216 252.832 144.168 252.873 144.154C252.914 144.14 253.016 144.127 253.178 144.113H253.259C253.463 144.113 253.564 144.167 253.564 144.276C253.564 144.317 253.544 144.398 253.503 144.52C253.435 144.737 253.313 144.995 253.137 145.294C252.961 145.593 252.73 145.912 252.445 146.251C252.16 146.59 251.814 146.875 251.407 147.106C251 147.337 250.586 147.452 250.165 147.452C249.758 147.452 249.371 147.35 249.005 147.147C248.639 146.944 248.374 146.591 248.211 146.088C248.184 145.979 248.17 145.796 248.17 145.538V145.172L248.883 142.322C249.358 140.408 249.602 139.445 249.616 139.431C249.616 139.404 249.27 139.39 248.578 139.39H247.54L247.538 139.389Z" fill="#F0F0F0"/>
<path d="M256.272 142.138C256.272 141.202 256.34 140.313 256.476 139.471C256.612 138.629 256.768 137.903 256.944 137.293C257.12 136.682 257.372 136.085 257.697 135.501C258.022 134.917 258.281 134.463 258.471 134.137C258.661 133.811 258.946 133.458 259.326 133.078C259.706 132.698 259.93 132.467 259.998 132.386C260.066 132.305 260.236 132.162 260.507 131.958H260.853C261.043 131.958 261.138 132.019 261.138 132.141C261.138 132.182 261.023 132.324 260.792 132.569C260.561 132.814 260.283 133.173 259.957 133.648C259.631 134.123 259.299 134.707 258.959 135.399C258.619 136.091 258.335 137.028 258.104 138.208C257.873 139.388 257.758 140.698 257.758 142.137C257.758 143.576 257.873 144.879 258.104 146.046C258.335 147.213 258.613 148.156 258.939 148.876C259.265 149.595 259.597 150.179 259.937 150.627C260.277 151.075 260.561 151.435 260.792 151.706C261.023 151.977 261.138 152.12 261.138 152.134C261.138 152.256 261.036 152.317 260.833 152.317H260.507L259.937 151.828C258.661 150.674 257.732 149.236 257.148 147.512C256.564 145.788 256.273 143.997 256.273 142.137L256.272 142.138Z" fill="#F0F0F0"/>
<path d="M263.703 137.17C263.703 136.125 264.069 135.283 264.802 134.646C265.535 134.009 266.376 133.682 267.326 133.669C268.29 133.669 269.145 133.954 269.891 134.524C270.637 135.094 271.011 135.834 271.011 136.743C271.011 137.15 270.936 137.53 270.787 137.883C270.638 138.236 270.461 138.521 270.258 138.738C270.055 138.955 269.844 139.145 269.627 139.308C269.41 139.471 269.233 139.593 269.098 139.674C268.963 139.755 268.888 139.81 268.874 139.837L269.159 140.02C269.349 140.156 269.539 140.291 269.729 140.427C269.919 140.563 270.028 140.637 270.055 140.651C271.073 141.452 271.582 142.463 271.582 143.684C271.582 144.756 271.188 145.686 270.401 146.473C269.614 147.26 268.596 147.661 267.347 147.674C266.126 147.674 265.121 147.328 264.334 146.636C263.547 145.944 263.153 145.089 263.153 144.071C263.153 142.605 264.028 141.384 265.779 140.407L265.413 140.142C265.128 139.966 264.945 139.83 264.863 139.735C264.089 139.07 263.703 138.215 263.703 137.17ZM268.1 139.369L268.222 139.288C268.303 139.234 268.365 139.193 268.405 139.166C268.445 139.139 268.514 139.091 268.609 139.023C268.704 138.955 268.785 138.887 268.853 138.819C268.921 138.751 268.996 138.67 269.077 138.575C269.158 138.48 269.233 138.392 269.301 138.31C269.369 138.228 269.437 138.12 269.505 137.984C269.573 137.848 269.634 137.733 269.688 137.638C269.742 137.543 269.776 137.407 269.79 137.231C269.804 137.055 269.817 136.905 269.831 136.783C269.831 136.199 269.634 135.704 269.241 135.297C268.848 134.89 268.393 134.632 267.877 134.523C267.782 134.509 267.558 134.503 267.205 134.503C266.649 134.503 266.126 134.679 265.637 135.032C265.148 135.385 264.897 135.826 264.884 136.355C264.884 136.667 264.972 136.952 265.149 137.21C265.326 137.468 265.502 137.665 265.678 137.8C265.854 137.935 266.194 138.153 266.696 138.451C266.791 138.519 266.866 138.566 266.92 138.594L268.101 139.368L268.1 139.369ZM267.367 146.8C268.154 146.8 268.833 146.569 269.403 146.108C269.973 145.647 270.258 145.09 270.258 144.439C270.258 144.208 270.224 143.991 270.156 143.788C270.088 143.585 270.007 143.415 269.912 143.279C269.817 143.143 269.668 142.994 269.464 142.831C269.26 142.668 269.104 142.546 268.996 142.465C268.888 142.384 268.691 142.255 268.406 142.078C268.121 141.902 267.938 141.786 267.856 141.732C267.666 141.61 267.462 141.481 267.245 141.345C267.028 141.209 266.851 141.094 266.716 140.999L266.553 140.897C266.472 140.897 266.275 141.012 265.963 141.243C265.651 141.474 265.325 141.847 264.986 142.363C264.647 142.879 264.47 143.435 264.457 144.032C264.457 144.833 264.749 145.491 265.332 146.007C265.916 146.523 266.594 146.787 267.368 146.801L267.367 146.8Z" fill="#F0F0F0"/>
<path d="M278.69 142.137C278.69 141.961 278.785 141.825 278.975 141.73H290.803C291.007 141.839 291.108 141.974 291.108 142.137C291.108 142.3 291.006 142.436 290.803 142.544H278.975C278.785 142.449 278.69 142.313 278.69 142.137Z" fill="#F0F0F0"/>
<path d="M297.871 139.389C297.776 139.294 297.728 139.226 297.728 139.185C297.728 139.131 297.748 139.022 297.789 138.859C297.83 138.696 297.864 138.601 297.891 138.574C297.918 138.506 297.979 138.472 298.074 138.472C298.169 138.472 298.515 138.465 299.112 138.452H300.191L300.578 136.823C300.619 136.674 300.666 136.477 300.721 136.233C300.776 135.989 300.823 135.812 300.864 135.704C300.905 135.596 300.945 135.46 300.986 135.297C301.027 135.134 301.081 135.019 301.149 134.951C301.217 134.883 301.285 134.802 301.353 134.707C301.421 134.612 301.516 134.551 301.638 134.524C301.76 134.497 301.882 134.483 302.004 134.483C302.248 134.497 302.418 134.571 302.513 134.707C302.608 134.843 302.656 134.972 302.656 135.094C302.656 135.189 302.595 135.508 302.473 136.051C302.351 136.594 302.215 137.13 302.066 137.659L301.862 138.412C301.862 138.439 302.201 138.453 302.88 138.453H303.918C304.013 138.548 304.061 138.623 304.061 138.677C304.061 138.976 303.973 139.213 303.796 139.39H301.618L300.885 142.342C300.356 144.514 300.091 145.681 300.091 145.844C300.091 146.414 300.274 146.699 300.641 146.699C301.116 146.699 301.577 146.468 302.025 146.007C302.473 145.546 302.833 144.976 303.104 144.297C303.131 144.216 303.165 144.168 303.206 144.154C303.247 144.14 303.349 144.127 303.511 144.113H303.592C303.796 144.113 303.897 144.167 303.897 144.276C303.897 144.317 303.877 144.398 303.836 144.52C303.768 144.737 303.646 144.995 303.47 145.294C303.294 145.593 303.063 145.912 302.778 146.251C302.493 146.59 302.147 146.875 301.74 147.106C301.333 147.337 300.919 147.452 300.498 147.452C300.091 147.452 299.704 147.35 299.338 147.147C298.972 146.944 298.707 146.591 298.544 146.088C298.517 145.979 298.503 145.796 298.503 145.538V145.172L299.216 142.322C299.691 140.408 299.935 139.445 299.949 139.431C299.949 139.404 299.603 139.39 298.911 139.39H297.873L297.871 139.389Z" fill="#F0F0F0"/>
<path d="M305.913 131.979L305.994 131.959H306.442L307.012 132.448C308.288 133.602 309.217 135.04 309.801 136.764C310.385 138.488 310.676 140.279 310.676 142.139C310.676 143.062 310.608 143.951 310.472 144.806C310.336 145.661 310.18 146.387 310.004 146.984C309.828 147.581 309.576 148.178 309.251 148.776C308.925 149.373 308.667 149.828 308.477 150.14C308.287 150.452 308.009 150.798 307.642 151.178C307.275 151.558 307.058 151.782 306.991 151.85C306.924 151.918 306.767 152.047 306.523 152.237C306.482 152.278 306.455 152.305 306.442 152.318H305.974C305.933 152.318 305.899 152.298 305.872 152.257C305.845 152.216 305.824 152.155 305.811 152.074C305.825 152.06 305.899 151.972 306.035 151.809C308.139 149.624 309.19 146.401 309.19 142.139C309.19 137.877 308.138 134.654 306.035 132.469C305.899 132.306 305.825 132.218 305.811 132.204C305.811 132.095 305.845 132.02 305.913 131.979Z" fill="#F0F0F0"/>
<path d="M571.7 354.64C571.7 355.2 571.88 355.48 572.24 355.48C572.333 355.48 572.413 355.473 572.48 355.46C573.147 355.34 573.753 354.807 574.3 353.86C574.433 353.647 574.553 353.4 574.66 353.12C574.687 353.04 574.72 352.993 574.76 352.98C574.8 352.953 574.9 352.94 575.06 352.94C575.327 352.94 575.46 352.993 575.46 353.1C575.46 353.127 575.433 353.207 575.38 353.34C575.233 353.767 574.993 354.2 574.66 354.64C574.34 355.067 574.013 355.407 573.68 355.66C573.187 356.033 572.66 356.22 572.1 356.22C571.62 356.22 571.207 356.1 570.86 355.86C570.527 355.607 570.3 355.28 570.18 354.88C570.153 354.773 570.14 354.593 570.14 354.34V353.98L570.84 351.18C571.307 349.3 571.547 348.353 571.56 348.34C571.56 348.313 571.22 348.3 570.54 348.3H569.52C569.44 348.22 569.393 348.167 569.38 348.14C569.38 348.113 569.4 348 569.44 347.8C569.493 347.613 569.527 347.513 569.54 347.5C569.567 347.433 569.627 347.4 569.72 347.4C569.827 347.387 570.167 347.38 570.74 347.38H571.8L572.18 345.78C572.46 344.7 572.62 344.12 572.66 344.04C572.82 343.667 573.127 343.48 573.58 343.48C573.753 343.493 573.9 343.553 574.02 343.66C574.153 343.767 574.22 343.907 574.22 344.08C574.22 344.24 574.093 344.807 573.84 345.78C573.787 346.007 573.72 346.26 573.64 346.54C573.573 346.807 573.52 347.007 573.48 347.14L573.44 347.34C573.44 347.367 573.773 347.38 574.44 347.38H575.46C575.54 347.46 575.58 347.52 575.58 347.56C575.593 347.587 575.58 347.707 575.54 347.92C575.5 348.08 575.433 348.207 575.34 348.3H573.2L572.48 351.2C571.987 353.187 571.733 354.233 571.72 354.34C571.707 354.407 571.7 354.507 571.7 354.64Z" fill="#F0F0F0"/>
<path d="M261.28 20.6C261.133 20.4533 261 20.3667 260.88 20.34C260.76 20.3 260.453 20.2733 259.96 20.26H259.38V19.34H259.56C259.747 19.38 260.573 19.4 262.04 19.4C263.64 19.4 264.587 19.38 264.88 19.34H265.1V20.26H264.68C264.067 20.2733 263.687 20.3467 263.54 20.48C263.487 20.52 263.46 20.56 263.46 20.6C263.46 20.6267 264.06 22.28 265.26 25.56C266.46 28.84 267.067 30.48 267.08 30.48C269.36 24.2933 270.5 21.1533 270.5 21.06C270.5 20.8067 270.36 20.6133 270.08 20.48C269.8 20.3333 269.493 20.26 269.16 20.26H269.06V19.34H269.24C269.467 19.38 270.233 19.4 271.54 19.4C272.687 19.4 273.333 19.38 273.48 19.34H273.6V20.26H273.46C272.473 20.26 271.833 20.5333 271.54 21.08C271.54 21.0933 270.787 23.1267 269.28 27.18C267.787 31.2333 267.033 33.2667 267.02 33.28C266.98 33.36 266.933 33.4067 266.88 33.42C266.827 33.4333 266.693 33.44 266.48 33.44C266.453 33.44 266.42 33.44 266.38 33.44C266.153 33.44 266.02 33.4 265.98 33.32L265.96 33.28L261.28 20.6ZM282.3 28.1C282.3 28.1933 282.253 28.2867 282.16 28.38H276.52V28.68C276.52 29.6667 276.653 30.4133 276.92 30.92C277.4 31.9067 278.227 32.4 279.4 32.4C279.973 32.4 280.453 32.1867 280.84 31.76C281.107 31.4933 281.313 31.1467 281.46 30.72C281.5 30.5733 281.54 30.48 281.58 30.44C281.62 30.4 281.727 30.38 281.9 30.38C282.167 30.38 282.3 30.4467 282.3 30.58C282.3 30.6333 282.28 30.72 282.24 30.84C281.987 31.5333 281.58 32.1067 281.02 32.56C280.473 33 279.8 33.22 279 33.22C278.747 33.22 278.453 33.1867 278.12 33.12C277.36 32.9733 276.68 32.6267 276.08 32.08C275.48 31.5333 275.053 30.8733 274.8 30.1C274.64 29.62 274.56 29.1333 274.56 28.64C274.56 27.4133 274.92 26.38 275.64 25.54C276.36 24.6867 277.247 24.1933 278.3 24.06C278.353 24.0467 278.447 24.04 278.58 24.04C279.793 24.04 280.713 24.4 281.34 25.12C281.98 25.8267 282.3 26.82 282.3 28.1ZM280.66 27.5C280.54 26.0467 280.047 25.1667 279.18 24.86C279.087 24.82 278.947 24.7933 278.76 24.78C278.067 24.78 277.5 25.1 277.06 25.74C276.793 26.1667 276.62 26.76 276.54 27.52V27.66H280.66V27.5ZM283.447 19.34C283.513 19.34 284.033 19.3067 285.007 19.24C285.993 19.16 286.5 19.12 286.527 19.12H286.587V25.42C286.587 29.6467 286.593 31.7733 286.607 31.8C286.713 31.9867 287.047 32.08 287.607 32.08H287.827H288.147V33H287.987C287.747 32.96 287.013 32.94 285.787 32.94C284.48 32.94 283.74 32.96 283.567 33H283.407V32.08H283.727H283.947C284.507 32.08 284.84 31.9867 284.947 31.8V31.64C284.947 31.52 284.947 31.3667 284.947 31.18C284.947 30.9933 284.947 30.7733 284.947 30.52C284.96 30.2667 284.967 29.98 284.967 29.66C284.967 29.3267 284.967 28.9933 284.967 28.66C284.967 28.3133 284.967 27.9467 284.967 27.56C284.967 27.16 284.967 26.78 284.967 26.42C284.967 25.9267 284.967 25.4067 284.967 24.86C284.967 24.3 284.967 23.8 284.967 23.36C284.967 22.92 284.96 22.52 284.947 22.16C284.947 21.7867 284.947 21.4933 284.947 21.28C284.947 21.0667 284.947 20.9533 284.947 20.94C284.907 20.6867 284.807 20.52 284.647 20.44C284.5 20.3467 284.207 20.2867 283.767 20.26H283.407V19.8C283.407 19.4933 283.42 19.34 283.447 19.34ZM289.013 28.72C289.013 27.5067 289.4 26.4667 290.173 25.6C290.946 24.72 291.873 24.2133 292.953 24.08C293.166 24.0533 293.333 24.04 293.453 24.04C294.613 24.04 295.62 24.4667 296.473 25.32C297.406 26.2533 297.873 27.38 297.873 28.7C297.873 28.9667 297.84 29.28 297.773 29.64C297.613 30.48 297.233 31.2133 296.633 31.84C296.046 32.4533 295.333 32.8667 294.493 33.08C294.186 33.16 293.84 33.2 293.453 33.2C293.053 33.2 292.7 33.16 292.393 33.08C291.393 32.8267 290.58 32.3 289.953 31.5C289.326 30.6867 289.013 29.76 289.013 28.72ZM294.533 25.02C294.173 24.86 293.826 24.78 293.493 24.78C293.093 24.78 292.713 24.86 292.353 25.02C291.606 25.3933 291.16 26.12 291.013 27.2C290.986 27.44 290.973 27.8667 290.973 28.48C290.973 29.7467 291.1 30.6467 291.353 31.18C291.78 31.9933 292.48 32.4 293.453 32.4C295.08 32.4 295.893 31.3133 295.893 29.14V28.5C295.893 27.6333 295.86 27.0467 295.793 26.74C295.62 25.9267 295.2 25.3533 294.533 25.02ZM306.193 26.6C305.98 26.7867 305.726 26.88 305.433 26.88C305.14 26.88 304.893 26.78 304.693 26.58C304.493 26.38 304.393 26.1333 304.393 25.84C304.393 25.5333 304.493 25.28 304.693 25.08C304.76 25.0133 304.786 24.9733 304.773 24.96C304.773 24.9467 304.713 24.9333 304.593 24.92C304.246 24.8667 303.92 24.84 303.613 24.84C302.933 24.84 302.4 25.0533 302.013 25.48C301.386 26.1067 301.073 27.1533 301.073 28.62C301.073 29.7133 301.28 30.5733 301.693 31.2C302.24 32.0133 302.973 32.42 303.893 32.42C304.226 32.42 304.52 32.3533 304.773 32.22C305.333 31.94 305.72 31.42 305.933 30.66C305.96 30.5533 305.993 30.4867 306.033 30.46C306.073 30.4333 306.18 30.42 306.353 30.42H306.633C306.713 30.5 306.753 30.56 306.753 30.6C306.753 30.8533 306.586 31.2467 306.253 31.78C305.586 32.74 304.646 33.22 303.433 33.22C302.766 33.22 302.133 33.0667 301.533 32.76C300.213 32.08 299.42 30.9467 299.153 29.36C299.14 29.28 299.133 29.0667 299.133 28.72C299.133 28.3733 299.14 28.1533 299.153 28.06C299.286 27.02 299.7 26.1267 300.393 25.38C301.1 24.6333 301.966 24.1933 302.993 24.06C303.006 24.06 303.066 24.06 303.173 24.06C303.28 24.0467 303.373 24.04 303.453 24.04C305.173 24.04 306.18 24.4933 306.473 25.4C306.513 25.52 306.533 25.6733 306.533 25.86C306.533 26.1667 306.42 26.4133 306.193 26.6ZM309.96 19.62C310.293 19.6467 310.567 19.7667 310.78 19.98C310.993 20.18 311.1 20.46 311.1 20.82C311.1 21.3 310.92 21.64 310.56 21.84C310.387 21.96 310.173 22.02 309.92 22.02C309.373 22.02 308.987 21.7533 308.76 21.22C308.733 21.14 308.72 21.0067 308.72 20.82C308.72 20.4467 308.833 20.1533 309.06 19.94C309.3 19.7267 309.6 19.62 309.96 19.62ZM307.98 24.38C308.033 24.38 308.54 24.3467 309.5 24.28C310.46 24.2 310.953 24.16 310.98 24.16H311.04V31.76C311.107 31.8933 311.187 31.98 311.28 32.02C311.373 32.0467 311.607 32.0667 311.98 32.08H312.44V33H312.28C312.133 32.96 311.44 32.94 310.2 32.94C308.987 32.94 308.26 32.96 308.02 33H307.86V32.08H308.18H308.4C308.96 32.08 309.293 31.9867 309.4 31.8C309.413 31.7733 309.42 30.8067 309.42 28.9C309.42 26.9 309.393 25.8333 309.34 25.7C309.233 25.4333 308.84 25.3 308.16 25.3H307.94V24.84C307.94 24.5333 307.953 24.38 307.98 24.38ZM315.726 21V20.7H316.526V24.38H319.226V25.3H316.526V28.18C316.54 29.8467 316.546 30.7933 316.546 31.02C316.56 31.2333 316.606 31.44 316.686 31.64C316.873 32.16 317.2 32.42 317.666 32.42C318.253 32.42 318.613 31.9467 318.746 31C318.76 30.8933 318.766 30.5867 318.766 30.08V29.38H319.566V30.08C319.566 30.6933 319.533 31.1333 319.466 31.4C319.32 31.9333 319.066 32.3667 318.706 32.7C318.36 33.0333 317.9 33.2 317.326 33.2C316.606 33.2 316.033 33.0067 315.606 32.62C315.18 32.22 314.933 31.68 314.866 31C314.853 30.9067 314.846 29.92 314.846 28.04V25.3H313.266V24.56H313.446C313.94 24.52 314.36 24.3067 314.706 23.92C315.32 23.28 315.66 22.3067 315.726 21ZM321.34 34.58C321.54 34.4067 321.78 34.32 322.06 34.32C322.34 34.32 322.573 34.4133 322.76 34.6C322.946 34.8 323.04 35.04 323.04 35.32C323.04 35.5067 322.986 35.6867 322.88 35.86C322.773 36.0333 322.646 36.1467 322.5 36.2C322.446 36.2267 322.446 36.2533 322.5 36.28C322.593 36.3333 322.726 36.36 322.9 36.36C323.1 36.36 323.293 36.32 323.48 36.24C323.88 36.08 324.2 35.8133 324.44 35.44C324.68 35.0667 324.926 34.54 325.18 33.86L325.52 33L324.08 29.34L322.58 25.6C322.486 25.4 322.14 25.3 321.54 25.3H321.36H321.06V24.38H321.2C321.346 24.42 321.986 24.44 323.12 24.44C324.373 24.44 325.113 24.42 325.34 24.38H325.5V25.3H325.32C324.693 25.3 324.38 25.4133 324.38 25.64L326.4 30.76C326.4 30.7467 326.706 29.98 327.32 28.46L328.2 26.18V26C328.2 25.7867 328.12 25.62 327.96 25.5C327.8 25.3667 327.6 25.3 327.36 25.3H327.3V24.38H327.42C327.54 24.4067 328.106 24.42 329.12 24.42C329.853 24.42 330.393 24.4067 330.74 24.38H330.84V25.3H330.62C329.873 25.3667 329.373 25.6333 329.12 26.1C329.093 26.1267 328.8 26.8667 328.24 28.32C327.68 29.76 327.086 31.2667 326.46 32.84C325.833 34.4 325.42 35.3267 325.22 35.62C324.7 36.42 324.08 36.9 323.36 37.06C323.293 37.0733 323.153 37.08 322.94 37.08C322.393 37.08 321.94 36.9133 321.58 36.58C321.233 36.26 321.06 35.84 321.06 35.32C321.06 35.0133 321.153 34.7667 321.34 34.58Z" fill="#F0F0F0"/>
<path d="M298.14 379.72C298.46 379.72 298.727 379.833 298.94 380.06C299.167 380.273 299.28 380.547 299.28 380.88C299.28 381.187 299.167 381.447 298.94 381.66C298.713 381.873 298.46 381.98 298.18 381.98H298.04L298.1 382.08C298.3 382.507 298.607 382.86 299.02 383.14C299.433 383.42 299.92 383.56 300.48 383.56C301.427 383.56 302.107 383.16 302.52 382.36C302.773 381.867 302.9 381.013 302.9 379.8C302.9 378.427 302.72 377.5 302.36 377.02C302.013 376.58 301.587 376.36 301.08 376.36C300.04 376.36 299.253 376.813 298.72 377.72C298.667 377.813 298.613 377.873 298.56 377.9C298.52 377.913 298.427 377.92 298.28 377.92C298.053 377.92 297.927 377.88 297.9 377.8C297.873 377.747 297.86 376.58 297.86 374.3C297.86 373.9 297.853 373.427 297.84 372.88C297.84 372.333 297.84 371.987 297.84 371.84C297.84 371.093 297.88 370.72 297.96 370.72C297.987 370.693 298.013 370.68 298.04 370.68L298.4 370.8C299.267 371.147 300.153 371.32 301.06 371.32C302.007 371.32 302.913 371.133 303.78 370.76C303.887 370.707 303.973 370.68 304.04 370.68C304.147 370.68 304.2 370.8 304.2 371.04V371.3C303.12 372.593 301.753 373.24 300.1 373.24C299.687 373.24 299.313 373.2 298.98 373.12L298.78 373.08V376.52C299.54 375.907 300.32 375.6 301.12 375.6C301.373 375.6 301.647 375.633 301.94 375.7C302.833 375.927 303.56 376.433 304.12 377.22C304.693 378.007 304.98 378.927 304.98 379.98C304.98 381.193 304.553 382.24 303.7 383.12C302.86 384 301.82 384.44 300.58 384.44C299.74 384.44 299.027 384.207 298.44 383.74C298.187 383.58 297.967 383.36 297.78 383.08C297.26 382.453 297 381.733 297 380.92C297 380.547 297.107 380.253 297.32 380.04C297.533 379.827 297.807 379.72 298.14 379.72Z" fill="#F0F0F0"/>
</g>
<defs>
<clipPath id="clip0_97_74">
<rect width="600" height="400" fill="white"/>
</clipPath>
</defs>
</svg>
