<svg width="520" height="370" viewBox="0 0 520 370" fill="none" xmlns="http://www.w3.org/2000/svg">
<g clip-path="url(#clip0_913_11617)">
<path d="M520 0H0V370H520V0Z" fill="black"/>
<path d="M460 60H60V310H460V60Z" fill="black"/>
<path d="M60 70H460" stroke="#181818"/>
<path d="M60 80H460" stroke="#181818"/>
<path d="M60 90H460" stroke="#181818"/>
<path d="M60 100H460" stroke="#181818"/>
<path d="M60 120H460" stroke="#181818"/>
<path d="M60 130H460" stroke="#181818"/>
<path d="M60 140H460" stroke="#181818"/>
<path d="M60 150H460" stroke="#181818"/>
<path d="M60 170H460" stroke="#181818"/>
<path d="M60 180H460" stroke="#181818"/>
<path d="M60 190H460" stroke="#181818"/>
<path d="M60 200H460" stroke="#181818"/>
<path d="M60 220H460" stroke="#181818"/>
<path d="M60 230H460" stroke="#181818"/>
<path d="M60 240H460" stroke="#181818"/>
<path d="M60 250H460" stroke="#181818"/>
<path d="M60 270H460" stroke="#181818"/>
<path d="M60 280H460" stroke="#181818"/>
<path d="M60 290H460" stroke="#181818"/>
<path d="M60 300H460" stroke="#181818"/>
<path d="M110 60V310" stroke="#181818"/>
<path d="M160 60V310" stroke="#181818"/>
<path d="M210 60V310" stroke="#181818"/>
<path d="M260 60V310" stroke="#181818"/>
<path d="M360 60V310" stroke="#181818"/>
<path d="M410 60V310" stroke="#181818"/>
<path d="M460 60V310" stroke="#181818"/>
<path d="M60 60H460" stroke="#262626"/>
<path d="M60 160H460" stroke="#262626"/>
<path d="M60 260H460" stroke="#262626"/>
<path d="M310 60V310" stroke="#262626"/>
<path d="M60 110H460" stroke="#404040"/>
<path d="M60 210H460" stroke="#404040"/>
<path d="M60 310H460" stroke="#404040"/>
<path d="M60 60V310" stroke="#404040"/>
<path d="M60 70H460" stroke="#181818"/>
<path d="M60 80H460" stroke="#181818"/>
<path d="M60 90H460" stroke="#181818"/>
<path d="M60 100H460" stroke="#181818"/>
<path d="M60 120H460" stroke="#181818"/>
<path d="M60 130H460" stroke="#181818"/>
<path d="M60 140H460" stroke="#181818"/>
<path d="M60 150H460" stroke="#181818"/>
<path d="M60 170H460" stroke="#181818"/>
<path d="M60 180H460" stroke="#181818"/>
<path d="M60 190H460" stroke="#181818"/>
<path d="M60 200H460" stroke="#181818"/>
<path d="M60 220H460" stroke="#181818"/>
<path d="M60 230H460" stroke="#181818"/>
<path d="M60 240H460" stroke="#181818"/>
<path d="M60 250H460" stroke="#181818"/>
<path d="M60 270H460" stroke="#181818"/>
<path d="M60 280H460" stroke="#181818"/>
<path d="M60 290H460" stroke="#181818"/>
<path d="M60 300H460" stroke="#181818"/>
<path d="M110 60V310" stroke="#181818"/>
<path d="M160 60V310" stroke="#181818"/>
<path d="M210 60V310" stroke="#181818"/>
<path d="M260 60V310" stroke="#181818"/>
<path d="M360 60V310" stroke="#181818"/>
<path d="M410 60V310" stroke="#181818"/>
<path d="M460 60V310" stroke="#181818"/>
<path d="M60 60H460" stroke="#262626"/>
<path d="M60 160H460" stroke="#262626"/>
<path d="M60 260H460" stroke="#262626"/>
<path d="M310 60V310" stroke="#262626"/>
<path d="M60 110H460" stroke="#404040"/>
<path d="M60 210H460" stroke="#404040"/>
<path d="M60 310H460" stroke="#404040"/>
<path d="M60 60V310" stroke="#404040"/>
<path d="M60 310L61 308.404L62 306.816L63 305.236L64 303.664L65 302.1L66 300.544L67 298.996L68 297.456L69 295.924L70 294.4L71 292.884L72 291.376L73 289.876L74 288.384L75 286.9L76 285.424L77 283.956L78 282.496L79 281.044L80 279.6L81 278.164L82 276.736L83 275.316L84 273.904L85 272.5L86 271.104L87 269.716L88 268.336L89 266.964L90 265.6L91 264.244L92 262.896L93 261.556L94 260.224L95 258.9L96 257.584L97 256.276L98 254.976L99 253.684L100 252.4L101 251.124L102 249.856L103 248.596L104 247.344L105 246.1L106 244.864L107 243.636L108 242.416L109 241.204L110 240L111 238.804L112 237.616L113 236.436L114 235.264L115 234.1L116 232.944L117 231.796L118 230.656L119 229.524L120 228.4L121 227.284L122 226.176L123 225.076L124 223.984L125 222.9L126 221.824L127 220.756L128 219.696L129 218.644L130 217.6L131 216.564L132 215.536L133 214.516L134 213.504L135 212.5L136 211.504L137 210.516L138 209.536L139 208.564L140 207.6L141 206.644L142 205.696L143 204.756L144 203.824L145 202.9L146 201.984L147 201.076L148 200.176L149 199.284L150 198.4L151 197.524L152 196.656L153 195.796L154 194.944L155 194.1L156 193.264L157 192.436L158 191.616L159 190.804L160 190L161 189.204L162 188.416L163 187.636L164 186.864L165 186.1L166 185.344L167 184.596L168 183.856L169 183.124L170 182.4L171 181.684L172 180.976L173 180.276L174 179.584L175 178.9L176 178.224L177 177.556L178 176.896L179 176.244L180 175.6L181 174.964L182 174.336L183 173.716L184 173.104L185 172.5L186 171.904L187 171.316L188 170.736L189 170.164L190 169.6L191 169.044L192 168.496L193 167.956L194 167.424L195 166.9L196 166.384L197 165.876L198 165.376L199 164.884L200 164.4L201 163.924L202 163.456L203 162.996L204 162.544L205 162.1L206 161.664L207 161.236L208 160.816L209 160.404L210 160L211 159.604L212 159.216L213 158.836L214 158.464L215 158.1L216 157.744L217 157.396L218 157.056L219 156.724L220 156.4L221 156.084L222 155.776L223 155.476L224 155.184L225 154.9L226 154.624L227 154.356L228 154.096L229 153.844L230 153.6L231 153.364L232 153.136L233 152.916L234 152.704L235 152.5L236 152.304L237 152.116L238 151.936L239 151.764L240 151.6L241 151.444L242 151.296L243 151.156L244 151.024L245 150.9L246 150.784L247 150.676L248 150.576L249 150.484L250 150.4L251 150.324L252 150.256L253 150.196L254 150.144L255 150.1L256 150.064L257 150.036L258 150.016L259 150.004L260 150L261 150.004L262 150.016L263 150.036L264 150.064L265 150.1L266 150.144L267 150.196L268 150.256L269 150.324L270 150.4L271 150.484L272 150.576L273 150.676L274 150.784L275 150.9L276 151.024L277 151.156L278 151.296L279 151.444L280 151.6L281 151.764L282 151.936L283 152.116L284 152.304L285 152.5L286 152.704L287 152.916L288 153.136L289 153.364L290 153.6L291 153.844L292 154.096L293 154.356L294 154.624L295 154.9L296 155.184L297 155.476L298 155.776L299 156.084L300 156.4L301 156.724L302 157.056L303 157.396L304 157.744L305 158.1L306 158.464L307 158.836L308 159.216L309 159.604L310 160L311 160.404L312 160.816L313 161.236L314 161.664L315 162.1L316 162.544L317 162.996L318 163.456L319 163.924L320 164.4L321 164.884L322 165.376L323 165.876L324 166.384L325 166.9L326 167.424L327 167.956L328 168.496L329 169.044L330 169.6L331 170.164L332 170.736L333 171.316L334 171.904L335 172.5L336 173.104L337 173.716L338 174.336L339 174.964L340 175.6L341 176.244L342 176.896L343 177.556L344 178.224L345 178.9L346 179.584L347 180.276L348 180.976L349 181.684L350 182.4L351 183.124L352 183.856L353 184.596L354 185.344L355 186.1L356 186.864L357 187.636L358 188.416L359 189.204L360 190L361 190.804L362 191.616L363 192.436L364 193.264L365 194.1L366 194.944L367 195.796L368 196.656L369 197.524L370 198.4L371 199.284L372 200.176L373 201.076L374 201.984L375 202.9L376 203.824L377 204.756L378 205.696L379 206.644L380 207.6L381 208.564L382 209.536L383 210.516L384 211.504L385 212.5L386 213.504L387 214.516L388 215.536L389 216.564L390 217.6L391 218.644L392 219.696L393 220.756L394 221.824L395 222.9L396 223.984L397 225.076L398 226.176L399 227.284L400 228.4L401 229.524L402 230.656L403 231.796L404 232.944L405 234.1L406 235.264L407 236.436L408 237.616L409 238.804L410 240L411 241.204L412 242.416L413 243.636L414 244.864L415 246.1L416 247.344L417 248.596L418 249.856L419 251.124L420 252.4L421 253.684L422 254.976L423 256.276L424 257.584L425 258.9L426 260.224L427 261.556L428 262.896L429 264.244L430 265.6L431 266.964L432 268.336L433 269.716L434 271.104L435 272.5L436 273.904L437 275.316L438 276.736L439 278.164L440 279.6L441 281.044L442 282.496L443 283.956L444 285.424L445 286.9L446 288.384L447 289.876L448 291.376L449 292.884L450 294.4L451 295.924L452 297.456L453 298.996L454 300.544L455 302.1L456 303.664L457 305.236L458 306.816L459 308.404L460 310" stroke="#6AB0F3" stroke-width="1.5"/>
<path d="M60 310H72.5V290.625H85V310V272.5H97.5V310V255.625H110V310V240H122.5V310V225.625H135V310V212.5H147.5V310V200.625H160V310V190H172.5V310V180.625H185V310V172.5H197.5V310V165.625H210V310V160H222.5V310V155.625H235V310V152.5H247.5V310V150.625H260V310V150H272.5V310V150.625H285V310V152.5H297.5V310V155.625H310V310V160H322.5V310V165.625H335V310V172.5H347.5V310V180.625H360V310V190H372.5V310V200.625H385V310V212.5H397.5V310V225.625H410V310V240H422.5V310V255.625H435V310V272.5H447.5V310V290.625H460V310" fill="#5CD0B3" fill-opacity="0.25"/>
<path d="M60 310H72.5V290.625H85V310V272.5H97.5V310V255.625H110V310V240H122.5V310V225.625H135V310V212.5H147.5V310V200.625H160V310V190H172.5V310V180.625H185V310V172.5H197.5V310V165.625H210V310V160H222.5V310V155.625H235V310V152.5H247.5V310V150.625H260V310V150H272.5V310V150.625H285V310V152.5H297.5V310V155.625H310V310V160H322.5V310V165.625H335V310V172.5H347.5V310V180.625H360V310V190H372.5V310V200.625H385V310V212.5H397.5V310V225.625H410V310V240H422.5V310V255.625H435V310V272.5H447.5V310V290.625H460V310" stroke="#5CD0B3" stroke-opacity="0.5" stroke-width="1.5"/>
<path d="M56.92 333.3C57.667 332.22 58.687 331.68 59.98 331.68C60.953 331.68 61.807 332.014 62.54 332.68C62.9 333.028 63.207 333.481 63.46 334.04C63.953 335.146 64.2 336.667 64.2 338.6C64.2 340.667 63.913 342.247 63.34 343.34C62.967 344.113 62.42 344.674 61.7 345.02C61.14 345.3 60.573 345.441 60 345.441C58.467 345.441 57.347 344.741 56.64 343.34C56.066 342.247 55.78 340.667 55.78 338.6C55.78 337.361 55.863 336.337 56.03 335.531C56.197 334.724 56.493 333.981 56.92 333.301V333.3ZM61.42 333.06C61.033 332.634 60.56 332.42 60 332.42C59.44 332.42 58.96 332.634 58.56 333.06C58.267 333.368 58.066 333.741 57.96 334.18C57.853 334.62 57.787 335.38 57.76 336.46C57.76 336.54 57.757 336.8 57.75 337.24C57.743 337.679 57.74 338.047 57.74 338.34C57.74 339.62 57.753 340.514 57.78 341.02C57.833 341.954 57.913 342.624 58.02 343.031C58.126 343.437 58.327 343.788 58.62 344.081C58.98 344.481 59.44 344.681 60 344.681C60.546 344.681 61 344.482 61.36 344.081C61.653 343.788 61.853 343.437 61.96 343.031C62.066 342.624 62.147 341.954 62.2 341.02C62.226 340.514 62.24 339.621 62.24 338.34C62.24 338.047 62.236 337.68 62.23 337.24C62.223 336.8 62.22 336.54 62.22 336.46C62.193 335.38 62.126 334.62 62.02 334.18C61.913 333.741 61.713 333.368 61.42 333.06Z" fill="#F0F0F0"/>
<path d="M458.439 338.3C457.787 337.873 457.283 337.427 456.929 336.96C456.575 336.493 456.4 335.88 456.4 335.12C456.4 334.547 456.505 334.066 456.72 333.68C457.013 333.08 457.443 332.597 458.009 332.231C458.575 331.864 459.226 331.68 459.959 331.68C460.866 331.68 461.652 331.917 462.319 332.39C462.985 332.864 463.399 333.474 463.559 334.22C463.572 334.3 463.579 334.46 463.579 334.7C463.579 334.993 463.565 335.193 463.539 335.3C463.339 336.18 462.731 336.941 461.72 337.58C461.693 337.594 461.656 337.613 461.609 337.64C461.562 337.667 461.533 337.694 461.519 337.72L461.48 337.741C462.226 338.248 462.613 338.514 462.64 338.541C463.64 339.341 464.14 340.334 464.14 341.52C464.14 342.6 463.743 343.524 462.95 344.291C462.156 345.058 461.166 345.441 459.98 345.441C458.339 345.441 457.132 344.84 456.359 343.64C456.026 343.161 455.859 342.58 455.859 341.901C455.859 341.594 455.873 341.387 455.9 341.281C456.099 340.267 456.74 339.401 457.82 338.68C457.9 338.627 458.019 338.554 458.179 338.46C458.339 338.367 458.426 338.314 458.439 338.3ZM457.14 341.861C457.14 342.647 457.426 343.298 457.999 343.81C458.572 344.324 459.239 344.581 459.999 344.581C460.546 344.581 461.042 344.468 461.489 344.241C461.935 344.014 462.272 343.72 462.499 343.361C462.726 343.014 462.839 342.647 462.839 342.26C462.839 341.687 462.606 341.18 462.14 340.74C462.033 340.634 461.48 340.254 460.48 339.599C460.292 339.48 460.089 339.349 459.87 339.209C459.651 339.069 459.48 338.959 459.359 338.879L459.2 338.779L458.96 338.899C458.12 339.446 457.566 340.112 457.3 340.899C457.194 341.246 457.141 341.565 457.141 341.859L457.14 341.861ZM462.419 334.741C462.419 334.168 462.231 333.68 461.858 333.281C461.485 332.881 461.032 332.628 460.499 332.52C460.405 332.507 460.186 332.5 459.839 332.5C459.132 332.5 458.539 332.74 458.06 333.22C457.726 333.528 457.56 333.894 457.56 334.321C457.56 334.894 457.799 335.347 458.279 335.68C458.346 335.747 458.773 336.028 459.56 336.52L460.72 337.281C460.732 337.267 460.82 337.211 460.98 337.111C461.14 337.01 461.259 336.921 461.339 336.84C462.06 336.267 462.419 335.567 462.419 334.74V334.741Z" fill="#F0F0F0"/>
<path d="M26.92 303.3C27.667 302.22 28.687 301.68 29.98 301.68C30.953 301.68 31.807 302.014 32.54 302.68C32.9 303.028 33.207 303.481 33.46 304.04C33.953 305.146 34.2 306.667 34.2 308.6C34.2 310.667 33.913 312.247 33.34 313.34C32.967 314.113 32.42 314.674 31.7 315.02C31.14 315.3 30.573 315.441 30 315.441C28.467 315.441 27.347 314.741 26.64 313.34C26.066 312.247 25.78 310.667 25.78 308.6C25.78 307.361 25.863 306.337 26.03 305.531C26.197 304.724 26.493 303.981 26.92 303.301V303.3ZM31.42 303.06C31.033 302.634 30.56 302.42 30 302.42C29.44 302.42 28.96 302.634 28.56 303.06C28.267 303.368 28.066 303.741 27.96 304.18C27.853 304.62 27.787 305.38 27.76 306.46C27.76 306.54 27.757 306.8 27.75 307.24C27.743 307.679 27.74 308.047 27.74 308.34C27.74 309.62 27.753 310.514 27.78 311.02C27.833 311.954 27.913 312.624 28.02 313.031C28.126 313.437 28.327 313.788 28.62 314.081C28.98 314.481 29.44 314.681 30 314.681C30.546 314.681 31 314.482 31.36 314.081C31.653 313.788 31.853 313.437 31.96 313.031C32.066 312.624 32.147 311.954 32.2 311.02C32.226 310.514 32.24 309.621 32.24 308.34C32.24 308.047 32.236 307.68 32.23 307.24C32.223 306.8 32.22 306.54 32.22 306.46C32.193 305.38 32.126 304.62 32.02 304.18C31.913 303.741 31.713 303.368 31.42 303.06Z" fill="#F0F0F0"/>
<path d="M27.14 260.72C27.46 260.72 27.73 260.83 27.95 261.05C28.17 261.27 28.28 261.547 28.28 261.88C28.28 262.187 28.167 262.447 27.94 262.66C27.713 262.873 27.46 262.98 27.18 262.98H27.04L27.1 263.08C27.3 263.507 27.606 263.86 28.02 264.14C28.433 264.42 28.92 264.56 29.48 264.56C30.427 264.56 31.106 264.161 31.52 263.361C31.773 262.868 31.9 262.014 31.9 260.8C31.9 259.427 31.72 258.5 31.36 258.02C31.013 257.581 30.587 257.361 30.08 257.361C29.04 257.361 28.253 257.814 27.72 258.72C27.666 258.814 27.616 258.87 27.57 258.89C27.523 258.911 27.427 258.92 27.28 258.92C27.053 258.92 26.927 258.88 26.9 258.8C26.873 258.747 26.86 257.58 26.86 255.3C26.86 254.901 26.857 254.427 26.85 253.88C26.843 253.333 26.84 252.987 26.84 252.84C26.84 252.094 26.88 251.72 26.96 251.72C26.986 251.694 27.013 251.68 27.04 251.68L27.4 251.8C28.267 252.147 29.153 252.321 30.06 252.321C31.006 252.321 31.913 252.134 32.78 251.76C32.887 251.707 32.973 251.68 33.04 251.68C33.146 251.68 33.2 251.8 33.2 252.04V252.3C32.12 253.594 30.753 254.24 29.1 254.24C28.686 254.24 28.313 254.2 27.98 254.12L27.78 254.08V257.519C28.54 256.907 29.32 256.599 30.12 256.599C30.373 256.599 30.646 256.633 30.94 256.7C31.833 256.927 32.563 257.433 33.13 258.22C33.697 259.007 33.98 259.927 33.98 260.981C33.98 262.194 33.557 263.241 32.71 264.121C31.863 265.001 30.82 265.441 29.58 265.441C28.74 265.441 28.026 265.208 27.44 264.741C27.187 264.581 26.967 264.361 26.78 264.081C26.26 263.454 26 262.734 26 261.921C26 261.548 26.106 261.255 26.32 261.041C26.533 260.828 26.807 260.721 27.14 260.721V260.72Z" fill="#F0F0F0"/>
<path d="M28.32 215C28.093 214.96 27.033 214.94 25.14 214.94C23.273 214.94 22.226 214.96 22 215H21.76V214.08H22.28C23.053 214.08 23.553 214.059 23.78 214.019C23.887 214.006 24.047 213.926 24.26 213.78V203.44C24.233 203.44 24.18 203.46 24.1 203.5C23.486 203.74 22.8 203.867 22.04 203.88H21.66V202.96H22.04C23.16 202.92 24.093 202.667 24.84 202.2C25.08 202.066 25.287 201.913 25.46 201.74C25.486 201.7 25.566 201.679 25.7 201.679C25.833 201.679 25.947 201.719 26.04 201.799V207.779L26.06 213.779C26.26 213.979 26.693 214.079 27.36 214.079H28.54V214.999H28.32V215Z" fill="#F0F0F0"/>
<path d="M31.92 203.3C32.667 202.22 33.687 201.68 34.98 201.68C35.953 201.68 36.807 202.014 37.54 202.68C37.9 203.028 38.207 203.481 38.46 204.04C38.953 205.146 39.2 206.667 39.2 208.6C39.2 210.667 38.913 212.247 38.34 213.34C37.967 214.113 37.42 214.674 36.7 215.02C36.14 215.3 35.573 215.441 35 215.441C33.467 215.441 32.347 214.741 31.64 213.34C31.066 212.247 30.78 210.667 30.78 208.6C30.78 207.361 30.863 206.337 31.03 205.531C31.197 204.724 31.493 203.98 31.92 203.3ZM36.42 203.06C36.033 202.634 35.56 202.42 35 202.42C34.44 202.42 33.96 202.634 33.56 203.06C33.267 203.368 33.066 203.741 32.96 204.18C32.853 204.62 32.787 205.38 32.76 206.46C32.76 206.54 32.757 206.8 32.75 207.24C32.743 207.679 32.74 208.047 32.74 208.34C32.74 209.62 32.753 210.514 32.78 211.02C32.833 211.954 32.913 212.624 33.02 213.031C33.126 213.437 33.327 213.788 33.62 214.081C33.98 214.481 34.44 214.681 35 214.681C35.546 214.681 36 214.482 36.36 214.081C36.653 213.788 36.853 213.437 36.96 213.031C37.066 212.624 37.147 211.954 37.2 211.02C37.226 210.514 37.24 209.621 37.24 208.34C37.24 208.047 37.236 207.68 37.23 207.24C37.223 206.8 37.22 206.54 37.22 206.46C37.193 205.38 37.126 204.62 37.02 204.18C36.913 203.741 36.713 203.368 36.42 203.06Z" fill="#F0F0F0"/>
<path d="M28.32 165C28.093 164.96 27.033 164.94 25.14 164.94C23.273 164.94 22.226 164.96 22 165H21.76V164.08H22.28C23.053 164.08 23.553 164.059 23.78 164.019C23.887 164.006 24.047 163.926 24.26 163.78V153.44C24.233 153.44 24.18 153.46 24.1 153.5C23.486 153.74 22.8 153.867 22.04 153.88H21.66V152.96H22.04C23.16 152.92 24.093 152.667 24.84 152.2C25.08 152.066 25.287 151.913 25.46 151.74C25.486 151.7 25.566 151.679 25.7 151.679C25.833 151.679 25.947 151.719 26.04 151.799V157.779L26.06 163.779C26.26 163.979 26.693 164.079 27.36 164.079H28.54V164.999H28.32V165Z" fill="#F0F0F0"/>
<path d="M32.14 160.72C32.46 160.72 32.73 160.83 32.95 161.05C33.17 161.27 33.28 161.547 33.28 161.88C33.28 162.187 33.167 162.447 32.94 162.66C32.713 162.873 32.46 162.98 32.18 162.98H32.04L32.1 163.08C32.3 163.507 32.606 163.86 33.02 164.14C33.433 164.42 33.92 164.56 34.48 164.56C35.427 164.56 36.106 164.161 36.52 163.361C36.773 162.868 36.9 162.014 36.9 160.8C36.9 159.427 36.72 158.5 36.36 158.02C36.013 157.581 35.587 157.361 35.08 157.361C34.04 157.361 33.253 157.814 32.72 158.72C32.666 158.814 32.616 158.87 32.57 158.89C32.523 158.911 32.427 158.92 32.28 158.92C32.053 158.92 31.927 158.88 31.9 158.8C31.873 158.747 31.86 157.58 31.86 155.3C31.86 154.901 31.857 154.427 31.85 153.88C31.843 153.333 31.84 152.987 31.84 152.84C31.84 152.094 31.88 151.72 31.96 151.72C31.986 151.694 32.013 151.68 32.04 151.68L32.4 151.8C33.267 152.147 34.153 152.321 35.06 152.321C36.006 152.321 36.913 152.134 37.78 151.76C37.887 151.707 37.973 151.68 38.04 151.68C38.146 151.68 38.2 151.8 38.2 152.04V152.3C37.12 153.594 35.753 154.24 34.1 154.24C33.686 154.24 33.313 154.2 32.98 154.12L32.78 154.08V157.519C33.54 156.907 34.32 156.599 35.12 156.599C35.373 156.599 35.646 156.633 35.94 156.7C36.833 156.927 37.563 157.433 38.13 158.22C38.697 159.007 38.98 159.927 38.98 160.981C38.98 162.194 38.557 163.241 37.71 164.121C36.863 165.001 35.82 165.441 34.58 165.441C33.74 165.441 33.026 165.208 32.44 164.741C32.187 164.581 31.967 164.361 31.78 164.081C31.26 163.454 31 162.734 31 161.921C31 161.548 31.106 161.255 31.32 161.041C31.533 160.828 31.807 160.72 32.14 160.72Z" fill="#F0F0F0"/>
<path d="M22.2 106.42C21.826 106.42 21.533 106.3 21.32 106.06C21.107 105.821 21 105.528 21 105.18C21 104.22 21.363 103.397 22.09 102.71C22.817 102.023 23.687 101.68 24.7 101.68C25.846 101.68 26.796 101.991 27.55 102.611C28.304 103.231 28.767 104.041 28.94 105.041C28.967 105.281 28.98 105.501 28.98 105.701C28.98 106.474 28.747 107.201 28.28 107.881C27.907 108.442 27.154 109.208 26.02 110.181C25.54 110.595 24.873 111.208 24.02 112.021L22.84 113.141L24.36 113.162C26.453 113.162 27.567 113.129 27.7 113.061C27.753 113.048 27.82 112.909 27.9 112.641C27.953 112.495 28.046 112.041 28.18 111.282V111.221H28.98V111.282L28.42 114.942V115.002H21V114.622C21 114.355 21.013 114.202 21.04 114.162C21.053 114.136 21.613 113.502 22.72 112.262C24.173 110.649 25.106 109.582 25.52 109.062C26.413 107.849 26.86 106.736 26.86 105.722C26.86 104.842 26.63 104.106 26.17 103.512C25.71 102.919 25.066 102.622 24.24 102.622C23.467 102.622 22.84 102.969 22.36 103.662C22.333 103.716 22.293 103.789 22.24 103.882C22.2 103.949 22.18 103.989 22.18 104.002C22.18 104.016 22.213 104.022 22.28 104.022C22.613 104.022 22.884 104.142 23.09 104.382C23.296 104.622 23.4 104.903 23.4 105.222C23.4 105.556 23.29 105.839 23.07 106.073C22.85 106.306 22.56 106.423 22.2 106.423V106.42Z" fill="#F0F0F0"/>
<path d="M31.92 103.3C32.667 102.22 33.687 101.68 34.98 101.68C35.953 101.68 36.807 102.014 37.54 102.68C37.9 103.028 38.207 103.481 38.46 104.04C38.953 105.146 39.2 106.667 39.2 108.6C39.2 110.667 38.913 112.247 38.34 113.34C37.967 114.113 37.42 114.674 36.7 115.02C36.14 115.3 35.573 115.441 35 115.441C33.467 115.441 32.347 114.741 31.64 113.34C31.066 112.247 30.78 110.667 30.78 108.6C30.78 107.361 30.863 106.337 31.03 105.531C31.197 104.724 31.493 103.98 31.92 103.3ZM36.42 103.06C36.033 102.634 35.56 102.42 35 102.42C34.44 102.42 33.96 102.634 33.56 103.06C33.267 103.368 33.066 103.741 32.96 104.18C32.853 104.62 32.787 105.38 32.76 106.46C32.76 106.54 32.757 106.8 32.75 107.24C32.743 107.679 32.74 108.047 32.74 108.34C32.74 109.62 32.753 110.514 32.78 111.02C32.833 111.954 32.913 112.624 33.02 113.031C33.126 113.437 33.327 113.788 33.62 114.081C33.98 114.481 34.44 114.681 35 114.681C35.546 114.681 36 114.482 36.36 114.081C36.653 113.788 36.853 113.437 36.96 113.031C37.066 112.624 37.147 111.954 37.2 111.02C37.226 110.514 37.24 109.621 37.24 108.34C37.24 108.047 37.236 107.68 37.23 107.24C37.223 106.8 37.22 106.54 37.22 106.46C37.193 105.38 37.126 104.62 37.02 104.18C36.913 103.741 36.713 103.368 36.42 103.06Z" fill="#F0F0F0"/>
<path d="M22.2 56.4197C21.826 56.4197 21.533 56.2997 21.32 56.0597C21.107 55.8207 21 55.5277 21 55.1797C21 54.2197 21.363 53.3967 22.09 52.7097C22.817 52.0227 23.687 51.6797 24.7 51.6797C25.846 51.6797 26.796 51.9907 27.55 52.6107C28.304 53.2307 28.767 54.0407 28.94 55.0407C28.967 55.2807 28.98 55.5007 28.98 55.7007C28.98 56.4737 28.747 57.2007 28.28 57.8807C27.907 58.4417 27.154 59.2077 26.02 60.1807C25.54 60.5947 24.873 61.2077 24.02 62.0207L22.84 63.1407L24.36 63.1617C26.453 63.1617 27.567 63.1287 27.7 63.0607C27.753 63.0477 27.82 62.9087 27.9 62.6407C27.953 62.4947 28.046 62.0407 28.18 61.2817V61.2207H28.98V61.2817L28.42 64.9417V65.0017H21V64.6217C21 64.3547 21.013 64.2017 21.04 64.1617C21.053 64.1357 21.613 63.5017 22.72 62.2617C24.173 60.6487 25.106 59.5817 25.52 59.0617C26.413 57.8487 26.86 56.7357 26.86 55.7217C26.86 54.8417 26.63 54.1057 26.17 53.5117C25.71 52.9187 25.066 52.6217 24.24 52.6217C23.467 52.6217 22.84 52.9687 22.36 53.6617C22.333 53.7157 22.293 53.7887 22.24 53.8817C22.2 53.9487 22.18 53.9887 22.18 54.0017C22.18 54.0157 22.213 54.0217 22.28 54.0217C22.613 54.0217 22.884 54.1417 23.09 54.3817C23.296 54.6217 23.4 54.9027 23.4 55.2217C23.4 55.5557 23.29 55.8387 23.07 56.0727C22.85 56.3057 22.56 56.4227 22.2 56.4227V56.4197Z" fill="#F0F0F0"/>
<path d="M32.14 60.7197C32.46 60.7197 32.73 60.8297 32.95 61.0497C33.17 61.2697 33.28 61.5467 33.28 61.8797C33.28 62.1867 33.167 62.4467 32.94 62.6597C32.713 62.8727 32.46 62.9797 32.18 62.9797H32.04L32.1 63.0797C32.3 63.5067 32.606 63.8597 33.02 64.1397C33.433 64.4197 33.92 64.5597 34.48 64.5597C35.427 64.5597 36.106 64.1607 36.52 63.3607C36.773 62.8677 36.9 62.0137 36.9 60.7997C36.9 59.4267 36.72 58.4997 36.36 58.0197C36.013 57.5807 35.587 57.3607 35.08 57.3607C34.04 57.3607 33.253 57.8137 32.72 58.7197C32.666 58.8137 32.616 58.8697 32.57 58.8897C32.523 58.9107 32.427 58.9197 32.28 58.9197C32.053 58.9197 31.927 58.8797 31.9 58.7997C31.873 58.7467 31.86 57.5797 31.86 55.2997C31.86 54.9007 31.857 54.4267 31.85 53.8797C31.843 53.3327 31.84 52.9867 31.84 52.8397C31.84 52.0937 31.88 51.7197 31.96 51.7197C31.986 51.6937 32.013 51.6797 32.04 51.6797L32.4 51.7997C33.267 52.1467 34.153 52.3207 35.06 52.3207C36.006 52.3207 36.913 52.1337 37.78 51.7597C37.887 51.7067 37.973 51.6797 38.04 51.6797C38.146 51.6797 38.2 51.7997 38.2 52.0397V52.2997C37.12 53.5937 35.753 54.2397 34.1 54.2397C33.686 54.2397 33.313 54.1997 32.98 54.1197L32.78 54.0797V57.5187C33.54 56.9067 34.32 56.5987 35.12 56.5987C35.373 56.5987 35.646 56.6327 35.94 56.6997C36.833 56.9267 37.563 57.4327 38.13 58.2197C38.697 59.0067 38.98 59.9267 38.98 60.9807C38.98 62.1937 38.557 63.2407 37.71 64.1207C36.863 65.0007 35.82 65.4407 34.58 65.4407C33.74 65.4407 33.026 65.2077 32.44 64.7407C32.187 64.5807 31.967 64.3607 31.78 64.0807C31.26 63.4537 31 62.7337 31 61.9207C31 61.5477 31.106 61.2547 31.32 61.0407C31.533 60.8277 31.807 60.7197 32.14 60.7197Z" fill="#F0F0F0"/>
<path d="M332.473 13.1201H184.03V44.6591H332.473V13.1201Z" fill="black"/>
<path d="M191.491 27.6966C191.491 27.3616 191.364 27.1936 191.109 27.1936C190.787 27.1936 190.452 27.3876 190.104 27.7766C189.756 28.1656 189.467 28.7616 189.239 29.5666C189.226 29.5796 189.212 29.6006 189.199 29.6266C189.186 29.6526 189.179 29.6736 189.179 29.6866C189.179 29.6996 189.166 29.7136 189.139 29.7266C189.112 29.7396 189.092 29.7466 189.079 29.7466H188.556C188.476 29.6666 188.435 29.6056 188.435 29.5656C188.435 29.4716 188.489 29.2776 188.596 28.9826C188.703 28.6876 188.864 28.3396 189.079 27.9366C189.294 27.5336 189.588 27.1926 189.964 26.9116C190.34 26.6306 190.762 26.4826 191.231 26.4696C191.794 26.4696 192.23 26.6306 192.538 26.9526C192.846 27.2746 193.007 27.6496 193.021 28.0786C193.021 28.3066 193.001 28.4806 192.961 28.6016C192.961 28.6816 192.86 28.9766 192.659 29.4866C192.458 29.9966 192.25 30.5926 192.036 31.2766C191.822 31.9606 191.701 32.5566 191.674 33.0666C191.674 33.4286 191.708 33.7236 191.775 33.9516C191.949 34.5276 192.372 34.8166 193.042 34.8166C193.538 34.8166 194 34.5886 194.429 34.1326C194.858 33.6766 195.193 33.1476 195.434 32.5446C195.675 31.9416 195.87 31.3846 196.017 30.8756C196.164 30.3666 196.238 29.9976 196.238 29.7696C196.238 29.4616 196.184 29.1936 196.077 28.9656C195.97 28.7376 195.849 28.5636 195.715 28.4426C195.581 28.3216 195.46 28.2016 195.353 28.0806C195.246 27.9596 195.192 27.8126 195.192 27.6386C195.192 27.3436 195.319 27.0686 195.574 26.8146C195.829 26.5606 196.104 26.4326 196.398 26.4326C196.653 26.4326 196.881 26.5536 197.082 26.7946C197.283 27.0356 197.39 27.4246 197.404 27.9606C197.404 28.3226 197.324 28.8786 197.163 29.6296C197.002 30.3806 196.754 31.2176 196.419 32.1426C196.084 33.0676 195.608 33.8656 194.991 34.5356C194.374 35.2056 193.664 35.5476 192.86 35.5606C192.002 35.5606 191.318 35.3396 190.809 34.8966C190.313 34.4676 190.065 33.8306 190.065 32.9866C190.065 32.5706 190.119 32.1416 190.226 31.6996C190.333 31.2576 190.608 30.4726 191.05 29.3466C191.345 28.4886 191.492 27.9386 191.492 27.6976L191.491 27.6966Z" fill="#6AB0F3"/>
<path d="M199.655 30.3108C199.655 29.3858 199.722 28.5078 199.856 27.6768C199.99 26.8458 200.144 26.1288 200.318 25.5248C200.492 24.9218 200.74 24.3318 201.062 23.7558C201.384 23.1798 201.638 22.7308 201.826 22.4088C202.014 22.0868 202.295 21.7388 202.671 21.3628C203.046 20.9878 203.268 20.7598 203.335 20.6788C203.402 20.5978 203.57 20.4578 203.838 20.2568H204.18C204.368 20.2568 204.462 20.3168 204.462 20.4378C204.462 20.4778 204.348 20.6188 204.12 20.8598C203.892 21.1008 203.617 21.4568 203.296 21.9258C202.975 22.3948 202.646 22.9718 202.311 23.6548C201.976 24.3378 201.694 25.2638 201.466 26.4298C201.238 27.5958 201.124 28.8898 201.124 30.3108C201.124 31.7318 201.238 33.0188 201.466 34.1718C201.694 35.3248 201.969 36.2558 202.29 36.9668C202.612 37.6768 202.94 38.2538 203.275 38.6958C203.61 39.1378 203.892 39.4938 204.12 39.7618C204.348 40.0298 204.462 40.1708 204.462 40.1838C204.462 40.3048 204.361 40.3648 204.16 40.3648H203.838L203.275 39.8818C202.015 38.7428 201.097 37.3218 200.52 35.6188C199.944 33.9168 199.655 32.1468 199.655 30.3108Z" fill="#F0F0F0"/>
<path d="M206.109 27.596C206.015 27.502 205.968 27.435 205.968 27.395C205.968 27.341 205.988 27.234 206.028 27.073C206.068 26.912 206.102 26.818 206.129 26.791C206.156 26.724 206.216 26.69 206.31 26.69C206.404 26.69 206.746 26.683 207.335 26.67H208.401L208.783 25.061C208.823 24.914 208.87 24.719 208.924 24.478C208.978 24.237 209.025 24.062 209.065 23.955C209.105 23.848 209.145 23.714 209.186 23.553C209.227 23.392 209.28 23.278 209.347 23.211C209.414 23.144 209.481 23.064 209.548 22.97C209.615 22.876 209.709 22.816 209.83 22.789C209.951 22.762 210.071 22.749 210.192 22.749C210.433 22.762 210.601 22.836 210.695 22.97C210.789 23.104 210.836 23.231 210.836 23.352C210.836 23.446 210.776 23.761 210.655 24.297C210.534 24.833 210.4 25.363 210.253 25.885L210.052 26.629C210.052 26.656 210.387 26.669 211.057 26.669H212.082C212.176 26.763 212.223 26.837 212.223 26.89C212.223 27.185 212.136 27.42 211.962 27.594H209.81L209.086 30.51C208.563 32.655 208.302 33.808 208.302 33.969C208.302 34.532 208.483 34.814 208.845 34.814C209.314 34.814 209.77 34.586 210.212 34.13C210.654 33.674 211.01 33.111 211.278 32.441C211.305 32.361 211.338 32.314 211.379 32.3C211.42 32.286 211.52 32.273 211.681 32.26H211.761C211.962 32.26 212.063 32.314 212.063 32.421C212.063 32.461 212.043 32.542 212.003 32.662C211.936 32.876 211.815 33.131 211.641 33.426C211.467 33.721 211.239 34.036 210.957 34.371C210.675 34.706 210.334 34.988 209.932 35.216C209.53 35.444 209.121 35.558 208.705 35.558C208.303 35.558 207.921 35.457 207.559 35.256C207.197 35.055 206.936 34.706 206.775 34.21C206.748 34.103 206.735 33.922 206.735 33.667V33.305L207.439 30.49C207.908 28.6 208.149 27.648 208.163 27.635C208.163 27.608 207.821 27.595 207.138 27.595H206.113L206.109 27.596Z" fill="#F0F0F0"/>
<path d="M214.052 20.2778L214.132 20.2578H214.574L215.137 20.7408C216.397 21.8798 217.315 23.3008 217.892 25.0038C218.468 26.7058 218.757 28.4758 218.757 30.3118C218.757 31.2238 218.69 32.1018 218.556 32.9458C218.422 33.7898 218.268 34.5078 218.094 35.0978C217.92 35.6878 217.672 36.2778 217.35 36.8668C217.028 37.4568 216.774 37.9058 216.586 38.2138C216.398 38.5218 216.124 38.8638 215.762 39.2388C215.4 39.6138 215.186 39.8358 215.119 39.9028C215.052 39.9698 214.898 40.0968 214.657 40.2848C214.617 40.3248 214.59 40.3518 214.577 40.3648H214.115C214.075 40.3648 214.041 40.3448 214.014 40.3048C213.987 40.2648 213.967 40.2038 213.954 40.1238C213.967 40.1108 214.041 40.0228 214.175 39.8628C216.253 37.7048 217.292 34.5208 217.292 30.3118C217.292 26.1028 216.253 22.9188 214.175 20.7608C214.041 20.5998 213.967 20.5128 213.954 20.4998C213.954 20.3928 213.988 20.3188 214.055 20.2788L214.052 20.2778Z" fill="#F0F0F0"/>
<path d="M227.379 28.36C227.379 28.186 227.473 28.052 227.661 27.958H240.47C240.671 28.065 240.772 28.199 240.772 28.36C240.772 28.507 240.678 28.635 240.49 28.742L234.096 28.762H227.702C227.488 28.695 227.38 28.561 227.38 28.36H227.379ZM227.379 32.261C227.379 32.06 227.486 31.926 227.701 31.859H240.489C240.677 31.993 240.771 32.127 240.771 32.261C240.771 32.435 240.67 32.569 240.469 32.663H227.66C227.472 32.569 227.379 32.435 227.379 32.261Z" fill="#F0F0F0"/>
<path d="M249.172 30.3112C249.172 30.1372 249.266 30.0032 249.454 29.9092H261.137C261.338 30.0162 261.439 30.1502 261.439 30.3112C261.439 30.4722 261.338 30.6062 261.137 30.7132H249.454C249.266 30.6192 249.172 30.4852 249.172 30.3112Z" fill="#F0F0F0"/>
<path d="M263.649 27.596C263.555 27.502 263.508 27.435 263.508 27.395C263.508 27.341 263.528 27.234 263.568 27.073C263.608 26.912 263.642 26.818 263.669 26.791C263.696 26.724 263.756 26.69 263.85 26.69C263.944 26.69 264.286 26.683 264.875 26.67H265.941L266.323 25.061C266.363 24.914 266.41 24.719 266.464 24.478C266.518 24.237 266.565 24.062 266.605 23.955C266.645 23.848 266.685 23.714 266.726 23.553C266.767 23.392 266.82 23.278 266.887 23.211C266.954 23.144 267.021 23.064 267.088 22.97C267.155 22.876 267.249 22.816 267.37 22.789C267.491 22.762 267.611 22.749 267.732 22.749C267.973 22.762 268.141 22.836 268.235 22.97C268.329 23.104 268.376 23.231 268.376 23.352C268.376 23.446 268.316 23.761 268.195 24.297C268.074 24.833 267.94 25.363 267.793 25.885L267.592 26.629C267.592 26.656 267.927 26.669 268.597 26.669H269.622C269.716 26.763 269.763 26.837 269.763 26.89C269.763 27.185 269.676 27.42 269.502 27.594H267.35L266.626 30.51C266.103 32.655 265.842 33.808 265.842 33.969C265.842 34.532 266.023 34.814 266.385 34.814C266.854 34.814 267.31 34.586 267.752 34.13C268.194 33.674 268.55 33.111 268.818 32.441C268.845 32.361 268.878 32.314 268.919 32.3C268.96 32.286 269.06 32.273 269.221 32.26H269.301C269.502 32.26 269.603 32.314 269.603 32.421C269.603 32.461 269.583 32.542 269.543 32.662C269.476 32.876 269.355 33.131 269.181 33.426C269.007 33.721 268.779 34.036 268.497 34.371C268.215 34.706 267.874 34.988 267.472 35.216C267.07 35.444 266.661 35.558 266.245 35.558C265.843 35.558 265.461 35.457 265.099 35.256C264.737 35.055 264.476 34.706 264.315 34.21C264.288 34.103 264.275 33.922 264.275 33.667V33.305L264.979 30.49C265.448 28.6 265.689 27.648 265.703 27.635C265.703 27.608 265.361 27.595 264.678 27.595H263.653L263.649 27.596Z" fill="#F0F0F0"/>
<path d="M272.598 20.9345C272.342 20.9345 272.138 20.8495 271.987 20.6785C271.835 20.5075 271.76 20.2995 271.76 20.0525C271.76 19.3795 272.011 18.7965 272.513 18.3035C273.015 17.8105 273.641 17.5645 274.39 17.5645C275.252 17.5645 275.973 17.8295 276.551 18.3605C277.129 18.8915 277.423 19.5785 277.432 20.4215C277.432 20.8295 277.337 21.2175 277.148 21.5875C276.959 21.9575 276.731 22.2795 276.466 22.5545C276.201 22.8295 275.822 23.1805 275.329 23.6065C274.988 23.9005 274.514 24.3365 273.907 24.9145L273.068 25.7105L274.148 25.7245C275.636 25.7245 276.427 25.7005 276.522 25.6535C276.588 25.6345 276.702 25.2125 276.863 24.3885V24.3455H277.432V24.3885C277.423 24.4165 277.361 24.8485 277.247 25.6825C277.133 26.5165 277.062 26.9525 277.034 26.9905V27.0335H271.76V26.5925C271.76 26.5265 271.788 26.4555 271.845 26.3795C271.902 26.3035 272.044 26.1375 272.271 25.8815C272.546 25.5785 272.783 25.3125 272.982 25.0855C273.067 24.9905 273.228 24.8155 273.465 24.5595C273.702 24.3035 273.863 24.1285 273.948 24.0335C274.033 23.9385 274.171 23.7825 274.36 23.5645C274.55 23.3465 274.682 23.1855 274.758 23.0815C274.834 22.9775 274.943 22.8355 275.085 22.6555C275.227 22.4755 275.327 22.3235 275.384 22.2005C275.441 22.0775 275.512 21.9395 275.597 21.7885C275.682 21.6375 275.744 21.4855 275.782 21.3335C275.82 21.1815 275.853 21.0395 275.882 20.9075C275.911 20.7755 275.925 20.6185 275.925 20.4385C275.925 19.8415 275.764 19.3245 275.442 18.8885C275.12 18.4525 274.66 18.2345 274.063 18.2345C273.75 18.2345 273.475 18.3155 273.238 18.4765C273.001 18.6375 272.835 18.7935 272.74 18.9455C272.645 19.0975 272.598 19.1875 272.598 19.2155C272.598 19.2245 272.622 19.2295 272.669 19.2295C272.84 19.2295 273.015 19.2955 273.195 19.4285C273.375 19.5615 273.465 19.7795 273.465 20.0825C273.465 20.3195 273.389 20.5185 273.238 20.6795C273.087 20.8405 272.873 20.9245 272.598 20.9345Z" fill="#F0F0F0"/>
<path d="M284.756 30.3112C284.756 30.1372 284.85 30.0032 285.038 29.9092H291.05V26.8932L291.07 23.8772C291.204 23.7032 291.331 23.6162 291.452 23.6162C291.626 23.6162 291.76 23.7172 291.854 23.9182V29.9102H297.846C298.047 30.0172 298.148 30.1512 298.148 30.3122C298.148 30.4732 298.047 30.6072 297.846 30.7142H291.854V36.7062C291.747 36.8942 291.626 36.9882 291.492 36.9882H291.412C291.251 36.9882 291.13 36.8942 291.05 36.7062V30.7142H285.038C284.85 30.6202 284.756 30.4852 284.756 30.3112Z" fill="#F0F0F0"/>
<path d="M305.151 26.9523V25.4043C305.151 24.3723 305.513 23.5413 306.237 22.9113C306.961 22.2813 307.792 21.9593 308.73 21.9463C309.682 21.9463 310.526 22.2283 311.264 22.7913C312.002 23.3543 312.37 24.0853 312.37 24.9833C312.37 25.3853 312.296 25.7603 312.149 26.1093C312.002 26.4583 311.827 26.7393 311.626 26.9543C311.425 27.1693 311.217 27.3563 311.003 27.5173C310.789 27.6783 310.614 27.7993 310.48 27.8793C310.346 27.9593 310.272 28.0133 310.259 28.0403L310.541 28.2213C310.729 28.3553 310.916 28.4893 311.104 28.6233C311.292 28.7573 311.399 28.8313 311.426 28.8443C312.431 29.6353 312.934 30.6343 312.934 31.8403C312.934 32.8993 312.545 33.8173 311.768 34.5953C310.991 35.3723 309.985 35.7683 308.752 35.7813C307.546 35.7813 306.554 35.4393 305.776 34.7563C304.999 34.0723 304.61 33.2283 304.61 32.2223C304.61 30.7743 305.475 29.5683 307.204 28.6033L306.842 28.3423C306.56 28.1683 306.38 28.0343 306.299 27.9403C305.535 27.2833 305.153 26.4393 305.153 25.4063V26.9543L305.151 26.9523ZM309.494 27.5753L309.615 27.4953C309.695 27.4413 309.756 27.4013 309.796 27.3743C309.836 27.3473 309.903 27.3003 309.997 27.2333C310.091 27.1663 310.171 27.0993 310.238 27.0323C310.305 26.9653 310.379 26.8853 310.459 26.7913C310.539 26.6973 310.613 26.6103 310.68 26.5303C310.747 26.4503 310.814 26.3423 310.881 26.2083C310.948 26.0743 311.008 25.9603 311.062 25.8663C311.116 25.7723 311.149 25.6383 311.163 25.4643C311.177 25.2903 311.19 25.1423 311.203 25.0223C311.203 24.4463 311.009 23.9563 310.62 23.5543C310.231 23.1523 309.782 22.8973 309.273 22.7903C309.179 22.7773 308.958 22.7703 308.609 22.7703C308.059 22.7703 307.543 22.9443 307.061 23.2933C306.579 23.6423 306.33 24.0773 306.317 24.6003C306.317 24.9083 306.404 25.1903 306.578 25.4453C306.752 25.7003 306.927 25.8943 307.101 26.0283C307.275 26.1623 307.61 26.3773 308.106 26.6713C308.2 26.7383 308.274 26.7853 308.327 26.8123L309.493 27.5763L309.494 27.5753ZM308.77 34.9143C309.547 34.9143 310.218 34.6863 310.781 34.2303C311.344 33.7743 311.626 33.2253 311.626 32.5813C311.626 32.3533 311.592 32.1393 311.525 31.9383C311.458 31.7373 311.378 31.5693 311.284 31.4353C311.19 31.3013 311.043 31.1533 310.842 30.9933C310.641 30.8333 310.487 30.7113 310.38 30.6313C310.273 30.5513 310.078 30.4233 309.797 30.2493C309.515 30.0753 309.335 29.9613 309.254 29.9073C309.066 29.7863 308.865 29.6593 308.651 29.5253C308.437 29.3913 308.262 29.2773 308.128 29.1833L307.967 29.0823C307.887 29.0823 307.692 29.1963 307.384 29.4243C307.076 29.6523 306.754 30.0213 306.419 30.5303C306.084 31.0393 305.91 31.5893 305.896 32.1793C305.896 32.9703 306.184 33.6203 306.761 34.1293C307.337 34.6383 308.008 34.9003 308.772 34.9133L308.77 34.9143Z" fill="#F0F0F0"/>
<path d="M314.32 27.596C314.226 27.502 314.179 27.435 314.179 27.395C314.179 27.341 314.199 27.234 314.239 27.073C314.279 26.912 314.313 26.818 314.34 26.791C314.367 26.724 314.427 26.69 314.521 26.69C314.615 26.69 314.957 26.683 315.546 26.67H316.612L316.994 25.061C317.034 24.914 317.081 24.719 317.135 24.478C317.189 24.237 317.236 24.062 317.276 23.955C317.316 23.848 317.356 23.714 317.397 23.553C317.438 23.392 317.491 23.278 317.558 23.211C317.625 23.144 317.692 23.064 317.759 22.97C317.826 22.876 317.92 22.816 318.041 22.789C318.162 22.762 318.282 22.749 318.403 22.749C318.644 22.762 318.812 22.836 318.906 22.97C319 23.104 319.047 23.231 319.047 23.352C319.047 23.446 318.987 23.761 318.866 24.297C318.745 24.833 318.611 25.363 318.464 25.885L318.263 26.629C318.263 26.656 318.598 26.669 319.268 26.669H320.293C320.387 26.763 320.434 26.837 320.434 26.89C320.434 27.185 320.347 27.42 320.173 27.594H318.021L317.297 30.51C316.774 32.655 316.513 33.808 316.513 33.969C316.513 34.532 316.694 34.814 317.056 34.814C317.525 34.814 317.981 34.586 318.423 34.13C318.865 33.674 319.221 33.111 319.489 32.441C319.516 32.361 319.549 32.314 319.59 32.3C319.631 32.286 319.731 32.273 319.892 32.26H319.972C320.173 32.26 320.274 32.314 320.274 32.421C320.274 32.461 320.254 32.542 320.214 32.662C320.147 32.876 320.026 33.131 319.852 33.426C319.678 33.721 319.45 34.036 319.168 34.371C318.886 34.706 318.545 34.988 318.143 35.216C317.741 35.444 317.332 35.558 316.916 35.558C316.514 35.558 316.132 35.457 315.77 35.256C315.408 35.055 315.147 34.706 314.986 34.21C314.959 34.103 314.946 33.922 314.946 33.667V33.305L315.65 30.49C316.119 28.6 316.36 27.648 316.374 27.635C316.374 27.608 316.032 27.595 315.349 27.595H314.324L314.32 27.596Z" fill="#F0F0F0"/>
<path d="M73.963 5.63672H46.858V52.1267H73.963V5.63672Z" fill="black"/>
<path d="M53.919 18.0519H54.201C54.724 18.0519 55.039 17.9579 55.146 17.7699V16.5229C55.146 16.2949 55.153 16.0339 55.166 15.7389C55.179 15.4439 55.179 15.1629 55.166 14.8939V13.5669C55.166 13.0979 55.159 12.7019 55.146 12.3809V11.9179C55.106 11.6629 55.012 11.4959 54.864 11.4149C54.716 11.3339 54.415 11.2739 53.959 11.2339H53.597V10.7709C53.597 10.4629 53.61 10.3079 53.637 10.3079L53.838 10.2879C53.972 10.2749 54.16 10.2609 54.401 10.2479C54.642 10.2349 54.89 10.2209 55.145 10.2079C55.373 10.1949 55.614 10.1809 55.869 10.1679C56.124 10.1549 56.318 10.1339 56.452 10.1079C56.586 10.0819 56.66 10.0739 56.673 10.0879H56.733V10.8919C56.733 11.4009 56.74 11.6559 56.753 11.6559C56.766 11.6559 56.8 11.6219 56.854 11.5549C56.908 11.4879 56.988 11.3869 57.095 11.2529C57.202 11.1189 57.33 10.9979 57.477 10.8909C57.624 10.7839 57.819 10.6559 58.06 10.5089C58.301 10.3619 58.556 10.2539 58.824 10.1869C59.092 10.1199 59.434 10.0859 59.85 10.0859C60.051 10.0859 60.239 10.0989 60.413 10.1259C60.587 10.1529 60.741 10.1929 60.876 10.2469C61.011 10.3009 61.137 10.3539 61.258 10.4079C61.379 10.4619 61.479 10.5219 61.56 10.5889C61.641 10.6559 61.714 10.7299 61.781 10.8099C61.848 10.8899 61.908 10.9639 61.962 11.0309C62.016 11.0979 62.063 11.1719 62.103 11.2519C62.143 11.3319 62.17 11.3989 62.183 11.4529C62.196 11.5069 62.217 11.5599 62.243 11.6139L62.283 11.7149L62.343 11.6349C62.383 11.5809 62.423 11.5279 62.464 11.4739C62.505 11.4199 62.565 11.3469 62.645 11.2529C62.725 11.1589 62.813 11.0719 62.906 10.9919C62.999 10.9119 63.1 10.8239 63.208 10.7309C63.316 10.6379 63.449 10.5569 63.61 10.4899C63.771 10.4229 63.925 10.3559 64.073 10.2889C64.221 10.2219 64.395 10.1749 64.596 10.1479C64.797 10.1209 65.005 10.1009 65.219 10.0879C66.908 10.0879 67.826 10.8449 67.974 12.3599C67.987 12.4539 67.994 13.3859 67.994 15.1549V16.8839C67.994 17.3929 68.007 17.6949 68.034 17.7889C68.061 17.8829 68.135 17.9499 68.255 17.9899C68.537 18.0299 68.865 18.0499 69.24 18.0499H69.562V18.9749H69.401L68.938 18.9549C68.616 18.9419 68.274 18.9349 67.912 18.9349C67.55 18.9349 67.295 18.9279 67.148 18.9149C65.767 18.9149 65.016 18.9349 64.896 18.9749H64.735V18.0499H65.057C65.875 18.0499 66.284 17.9429 66.284 17.7279C66.297 17.7009 66.304 16.7759 66.304 14.9529C66.291 13.1429 66.277 12.1849 66.264 12.0769C66.184 11.7019 66.05 11.4199 65.862 11.2319C65.674 11.0439 65.513 10.9299 65.379 10.8899C65.245 10.8499 65.071 10.8359 64.856 10.8499C64.253 10.8499 63.723 11.0779 63.267 11.5339C62.905 11.8959 62.677 12.2649 62.583 12.6399C62.489 13.0149 62.436 13.5719 62.422 14.3089V16.8029C62.422 17.2049 62.429 17.4729 62.442 17.6069C62.455 17.7409 62.476 17.8279 62.502 17.8679C62.528 17.9079 62.589 17.9479 62.683 17.9889C62.965 18.0289 63.293 18.0489 63.668 18.0489H63.99V18.9739H63.829L63.346 18.9539C63.038 18.9409 62.703 18.9339 62.341 18.9339C61.979 18.9339 61.724 18.9269 61.577 18.9139C60.196 18.9139 59.445 18.9339 59.325 18.9739H59.164V18.0489H59.486C60.304 18.0489 60.713 17.9419 60.713 17.7269C60.726 17.6999 60.733 16.7749 60.733 14.9519C60.72 13.1419 60.706 12.1839 60.693 12.0759C60.613 11.7009 60.479 11.4189 60.291 11.2309C60.103 11.0429 59.942 10.9289 59.808 10.8889C59.674 10.8489 59.5 10.8349 59.285 10.8489C58.682 10.8489 58.152 11.0769 57.696 11.5329C57.334 11.8949 57.106 12.2639 57.012 12.6389C56.918 13.0139 56.865 13.5709 56.851 14.3079V16.8019C56.851 17.2039 56.858 17.4719 56.871 17.6059C56.884 17.7399 56.905 17.8269 56.931 17.8669C56.957 17.9069 57.018 17.9469 57.112 17.9879C57.394 18.0279 57.722 18.0479 58.097 18.0479H58.419V18.9729H58.258L57.795 18.9529C57.473 18.9399 57.131 18.9329 56.769 18.9329C56.407 18.9329 56.152 18.9259 56.005 18.9129C54.624 18.9129 53.873 18.9329 53.753 18.9729H53.592V18.0479H53.914L53.919 18.0519Z" fill="#F0F0F0"/>
<path d="M63.44 40.0105C63.44 39.4745 63.259 39.0115 62.897 38.6225C62.535 38.2335 62.012 38.0395 61.329 38.0395C60.846 38.0395 60.431 38.1265 60.082 38.3005C59.68 38.5555 59.479 38.9035 59.479 39.3465C59.466 39.4135 59.466 39.5005 59.479 39.6075C59.492 39.7145 59.6 39.8755 59.801 40.0905C60.002 40.3055 60.29 40.4725 60.666 40.5935C60.907 40.6605 61.202 40.7205 61.551 40.7745C61.9 40.8285 62.194 40.8885 62.436 40.9555C62.678 41.0225 62.892 41.1095 63.079 41.2165C63.307 41.3235 63.528 41.4575 63.743 41.6185C63.958 41.7795 64.172 42.0545 64.386 42.4425C64.6 42.8305 64.714 43.2465 64.728 43.6895C64.728 44.5205 64.473 45.2045 63.964 45.7405C63.455 46.2765 62.63 46.5515 61.491 46.5645H61.33C60.633 46.5645 59.989 46.3235 59.4 45.8405L59.239 45.9815L59.058 46.1625C58.978 46.2425 58.897 46.3165 58.817 46.3835L58.596 46.5845H58.355C58.315 46.5845 58.254 46.5445 58.174 46.4635V43.7085C58.174 43.4265 58.187 43.2595 58.214 43.2055C58.241 43.1515 58.308 43.1185 58.415 43.1045H58.596C58.757 43.1045 58.864 43.1315 58.918 43.1845C58.972 43.2375 59.005 43.3185 59.019 43.4255C59.033 43.5325 59.079 43.7135 59.16 43.9685C59.24 44.2235 59.368 44.5045 59.542 44.8135C60.011 45.4975 60.661 45.8395 61.493 45.8395C62.793 45.8395 63.444 45.3165 63.444 44.2715C63.444 43.8825 63.323 43.5675 63.082 43.3265C62.814 43.0045 62.258 42.7635 61.413 42.6025C60.568 42.4415 60.012 42.2875 59.744 42.1395C59.261 41.9115 58.879 41.6035 58.598 41.2145C58.316 40.8255 58.176 40.4105 58.176 39.9675C58.176 39.4445 58.29 39.0025 58.518 38.6405C58.746 38.2785 59.034 38.0105 59.383 37.8365C59.732 37.6625 60.067 37.5415 60.388 37.4745C60.709 37.4075 61.005 37.3735 61.273 37.3735H61.494C62.03 37.3735 62.499 37.4745 62.902 37.6755L63.204 37.8365L63.385 37.6955C63.519 37.5745 63.667 37.4605 63.827 37.3535H64.068C64.108 37.3535 64.169 37.3935 64.249 37.4745V40.1285L64.128 40.2495H63.565C63.485 40.1695 63.444 40.0885 63.444 40.0085L63.44 40.0105Z" fill="#F0F0F0"/>
<path d="M71.856 26.9395H51.083V28.1465H71.856V26.9395Z" fill="#F0F0F0"/>
<path d="M483.83 298.568H472.563V319.208H483.83V298.568Z" fill="black"/>
<path d="M477.113 307.859C477.019 307.765 476.972 307.698 476.972 307.658C476.972 307.604 476.992 307.497 477.032 307.336C477.072 307.175 477.106 307.081 477.133 307.054C477.16 306.987 477.22 306.953 477.314 306.953C477.408 306.953 477.75 306.946 478.34 306.933H479.406L479.788 305.324C479.828 305.177 479.875 304.982 479.929 304.741C479.983 304.5 480.03 304.325 480.07 304.218C480.11 304.111 480.15 303.977 480.191 303.816C480.232 303.655 480.285 303.541 480.352 303.474C480.419 303.407 480.486 303.327 480.553 303.233C480.62 303.139 480.714 303.079 480.835 303.052C480.956 303.025 481.076 303.012 481.197 303.012C481.438 303.025 481.606 303.099 481.7 303.233C481.794 303.367 481.841 303.494 481.841 303.615C481.841 303.709 481.781 304.024 481.66 304.56C481.539 305.096 481.405 305.626 481.258 306.149L481.057 306.893C481.057 306.92 481.392 306.933 482.062 306.933H483.088C483.182 307.027 483.229 307.101 483.229 307.154C483.229 307.449 483.142 307.684 482.968 307.858H480.816L480.092 310.774C479.569 312.919 479.308 314.072 479.308 314.233C479.308 314.796 479.489 315.078 479.851 315.078C480.32 315.078 480.776 314.85 481.218 314.394C481.66 313.938 482.016 313.375 482.284 312.705C482.311 312.625 482.344 312.578 482.385 312.564C482.426 312.55 482.526 312.537 482.687 312.524H482.767C482.968 312.524 483.069 312.578 483.069 312.685C483.069 312.725 483.049 312.806 483.009 312.926C482.942 313.14 482.821 313.395 482.647 313.69C482.473 313.985 482.245 314.3 481.963 314.635C481.681 314.97 481.34 315.252 480.937 315.48C480.535 315.708 480.126 315.822 479.71 315.822C479.308 315.822 478.926 315.721 478.564 315.52C478.202 315.319 477.941 314.97 477.78 314.474C477.753 314.367 477.74 314.186 477.74 313.931V313.569L478.444 310.754C478.913 308.864 479.154 307.912 479.168 307.899C479.168 307.872 478.826 307.859 478.142 307.859H477.116H477.113Z" fill="#F0F0F0"/>
<path d="M110.363 310V240H121.863V310H110.363Z" fill="#FFF175"/>
<path d="M148.984 273.441C148.998 273.414 149.113 272.674 149.331 271.222L149.656 269.043C149.656 269.016 149.792 269.002 150.064 269.002H150.471V269.083C150.471 269.219 150.573 269.335 150.776 269.43C150.98 269.525 151.333 269.586 151.835 269.613C152.338 269.64 153.485 269.654 155.277 269.654H157.741V270.448L156.356 272.342C156.234 272.505 156.03 272.776 155.745 273.156C155.46 273.536 155.277 273.787 155.195 273.91C155.114 274.032 154.971 274.249 154.768 274.561C154.564 274.874 154.428 275.118 154.36 275.294C154.292 275.471 154.197 275.722 154.075 276.048C153.953 276.374 153.865 276.686 153.811 276.985C153.756 277.283 153.702 277.65 153.648 278.084C153.593 278.519 153.553 278.98 153.525 279.469C153.498 279.958 153.478 280.514 153.464 281.139C153.464 281.329 153.464 281.519 153.464 281.709C153.464 281.899 153.458 282.062 153.444 282.198V282.381C153.39 282.612 153.261 282.809 153.057 282.971C152.853 283.134 152.623 283.216 152.365 283.216C152.215 283.216 152.073 283.195 151.937 283.155C151.801 283.114 151.659 282.985 151.509 282.768C151.36 282.551 151.285 282.279 151.285 281.953C151.285 279.808 151.944 277.582 153.261 275.274C153.532 274.84 154.102 274.018 154.971 272.81L155.908 271.527H154.014C151.652 271.527 150.41 271.568 150.288 271.649C150.206 271.69 150.132 271.853 150.064 272.138C149.996 272.423 149.928 272.715 149.86 273.014L149.799 273.441V273.502H148.984V273.441Z" fill="#E0E0E0"/>
<path d="M163.361 268.065H163.646C164.176 268.065 164.495 267.97 164.603 267.78V267.617C164.603 267.495 164.603 267.339 164.603 267.149C164.603 266.959 164.603 266.748 164.603 266.518C164.603 266.287 164.61 266.022 164.624 265.723C164.637 265.425 164.637 265.14 164.624 264.868C164.624 264.447 164.624 263.999 164.624 263.524C164.624 263.049 164.617 262.648 164.603 262.323V261.854C164.563 261.596 164.468 261.427 164.318 261.345C164.169 261.264 163.863 261.203 163.402 261.162H163.035V260.694C163.035 260.381 163.049 260.225 163.076 260.225L163.28 260.205C163.415 260.191 163.605 260.178 163.85 260.164C164.094 260.151 164.345 260.137 164.603 260.123C164.834 260.11 165.078 260.096 165.336 260.083C165.594 260.069 165.791 260.049 165.927 260.022C166.063 259.994 166.137 259.988 166.151 260.001H166.212V260.816C166.212 261.332 166.219 261.59 166.232 261.59C166.246 261.59 166.28 261.556 166.334 261.488C166.388 261.42 166.47 261.318 166.579 261.182C166.687 261.047 166.816 260.924 166.965 260.816C167.115 260.707 167.312 260.578 167.556 260.429C167.8 260.28 168.058 260.171 168.33 260.103C168.601 260.035 168.948 260.001 169.368 260.001C169.572 260.001 169.762 260.015 169.939 260.042C170.115 260.069 170.271 260.11 170.407 260.164C170.543 260.218 170.672 260.273 170.794 260.327C170.916 260.381 171.018 260.442 171.099 260.51C171.181 260.578 171.255 260.653 171.323 260.734C171.391 260.816 171.452 260.89 171.507 260.958C171.561 261.026 171.608 261.101 171.649 261.182C171.69 261.264 171.717 261.332 171.731 261.386C171.744 261.44 171.764 261.495 171.792 261.549L171.832 261.651L171.893 261.569C171.934 261.515 171.975 261.461 172.016 261.406C172.056 261.352 172.117 261.277 172.199 261.182C172.28 261.087 172.369 260.999 172.464 260.918C172.559 260.836 172.66 260.748 172.769 260.653C172.878 260.558 173.013 260.476 173.176 260.408C173.339 260.341 173.495 260.273 173.645 260.205C173.794 260.137 173.971 260.089 174.174 260.062C174.378 260.035 174.588 260.015 174.805 260.001C176.516 260.001 177.446 260.768 177.595 262.302C177.609 262.397 177.616 263.341 177.616 265.133V266.884C177.616 267.4 177.629 267.705 177.656 267.8C177.684 267.896 177.758 267.963 177.88 268.004C178.165 268.045 178.498 268.065 178.878 268.065H179.204V269.002H179.041L178.573 268.982C178.247 268.968 177.901 268.961 177.534 268.961C177.168 268.961 176.91 268.954 176.76 268.941C175.362 268.941 174.602 268.961 174.48 269.002H174.317V268.065H174.643C175.471 268.065 175.885 267.957 175.885 267.739C175.898 267.712 175.905 266.776 175.905 264.929C175.892 263.096 175.878 262.126 175.864 262.017C175.783 261.637 175.647 261.352 175.457 261.162C175.267 260.972 175.104 260.856 174.968 260.816C174.833 260.775 174.656 260.761 174.439 260.775C173.828 260.775 173.292 261.006 172.83 261.467C172.464 261.834 172.233 262.207 172.138 262.587C172.043 262.968 171.988 263.531 171.975 264.278V265.581V266.803C171.975 267.21 171.982 267.481 171.995 267.617C172.009 267.753 172.029 267.841 172.056 267.882C172.084 267.923 172.145 267.963 172.24 268.004C172.525 268.045 172.857 268.065 173.237 268.065H173.563V269.002H173.4L172.912 268.982C172.599 268.968 172.26 268.961 171.893 268.961C171.527 268.961 171.269 268.954 171.12 268.941C169.721 268.941 168.961 268.961 168.839 269.002H168.676V268.065H169.002C169.83 268.065 170.244 267.957 170.244 267.739C170.258 267.712 170.264 266.776 170.264 264.929C170.251 263.096 170.237 262.126 170.224 262.017C170.142 261.637 170.006 261.352 169.816 261.162C169.626 260.972 169.463 260.856 169.328 260.816C169.192 260.775 169.015 260.761 168.798 260.775C168.187 260.775 167.651 261.006 167.189 261.467C166.823 261.834 166.592 262.207 166.497 262.587C166.402 262.968 166.348 263.531 166.334 264.278V265.581V266.803C166.334 267.21 166.341 267.481 166.355 267.617C166.368 267.753 166.388 267.841 166.416 267.882C166.443 267.923 166.504 267.963 166.599 268.004C166.884 268.045 167.217 268.065 167.597 268.065H167.923V269.002H167.76L167.291 268.982C166.965 268.968 166.619 268.961 166.253 268.961C165.886 268.961 165.628 268.954 165.479 268.941C164.081 268.941 163.32 268.961 163.198 269.002H163.035V268.065H163.361Z" fill="#E0E0E0"/>
<path d="M173.003 290.302C173.003 289.759 172.82 289.291 172.453 288.897C172.087 288.503 171.557 288.306 170.865 288.306C170.376 288.306 169.955 288.395 169.603 288.571C169.195 288.829 168.992 289.182 168.992 289.63C168.978 289.698 168.978 289.786 168.992 289.895C169.005 290.003 169.114 290.166 169.317 290.383C169.521 290.601 169.813 290.77 170.193 290.893C170.437 290.96 170.736 291.022 171.089 291.076C171.442 291.13 171.741 291.191 171.985 291.259C172.229 291.327 172.447 291.415 172.637 291.524C172.867 291.632 173.091 291.768 173.309 291.931C173.526 292.094 173.743 292.372 173.96 292.766C174.178 293.16 174.293 293.581 174.307 294.029C174.307 294.87 174.049 295.563 173.533 296.106C173.017 296.649 172.182 296.927 171.028 296.941H170.865C170.159 296.941 169.507 296.696 168.91 296.207L168.747 296.35L168.564 296.533C168.483 296.615 168.401 296.689 168.32 296.757L168.096 296.961H167.933H167.851C167.811 296.961 167.749 296.92 167.668 296.839V295.23V294.049C167.668 293.764 167.682 293.594 167.709 293.54C167.736 293.486 167.804 293.452 167.912 293.438H168.096C168.259 293.438 168.367 293.465 168.421 293.519C168.476 293.574 168.51 293.655 168.523 293.764C168.537 293.872 168.584 294.056 168.666 294.314C168.747 294.572 168.876 294.857 169.053 295.169C169.528 295.861 170.186 296.207 171.028 296.207C172.345 296.207 173.003 295.678 173.003 294.619C173.003 294.225 172.881 293.906 172.637 293.662C172.365 293.336 171.802 293.092 170.947 292.929C170.091 292.766 169.528 292.61 169.256 292.461C168.768 292.23 168.381 291.918 168.096 291.524C167.811 291.13 167.668 290.709 167.668 290.261C167.668 289.732 167.783 289.284 168.014 288.917C168.245 288.551 168.537 288.279 168.89 288.103C169.243 287.926 169.582 287.804 169.908 287.736C170.234 287.668 170.532 287.634 170.804 287.634H171.028C171.571 287.634 172.046 287.736 172.453 287.94L172.759 288.103L172.942 287.96C173.078 287.838 173.227 287.723 173.39 287.614H173.553H173.635C173.675 287.614 173.736 287.655 173.818 287.736V290.424L173.696 290.546H173.125C173.044 290.465 173.003 290.383 173.003 290.302Z" fill="#E0E0E0"/>
<path d="M181.525 278.287H160.49V277.065H181.525V278.287Z" fill="#E0E0E0"/>
<path d="M127.864 310C132.664 310 133.864 307.879 133.864 306.818C133.864 298.333 133.864 280.727 133.864 278.182C133.864 275.636 137.948 275 139.864 275C137.948 275 133.864 274.364 133.864 271.818C133.864 269.273 133.864 251.667 133.864 243.182C133.864 242.121 132.664 240 127.864 240" stroke="#F0F0F0" stroke-linecap="round"/>
<path d="M114.65 329.224C114.664 329.224 115.152 329.19 116.117 329.122C117.081 329.054 117.576 329.013 117.604 329C117.767 329 117.848 329.054 117.848 329.163C117.848 329.258 117.352 331.308 116.361 335.314C115.37 339.32 114.861 341.364 114.833 341.445C114.806 341.527 114.799 341.629 114.813 341.751C114.813 342.321 115.003 342.607 115.383 342.607C115.506 342.593 115.641 342.532 115.791 342.423C116.076 342.152 116.354 341.5 116.626 340.468C116.707 340.196 116.775 340.054 116.83 340.04C116.857 340.026 116.925 340.02 117.033 340.02H117.115H117.196C117.4 340.02 117.502 340.074 117.502 340.183C117.502 340.25 117.481 340.359 117.441 340.508C117.264 341.187 117.06 341.737 116.83 342.158C116.599 342.579 116.409 342.851 116.259 342.973C116.11 343.095 115.92 343.204 115.689 343.299C115.58 343.326 115.417 343.34 115.2 343.34C114.738 343.34 114.351 343.238 114.039 343.034C113.727 342.831 113.523 342.62 113.428 342.403L113.306 342.097C113.292 342.084 113.265 342.091 113.224 342.118C113.197 342.145 113.17 342.172 113.143 342.199C112.341 342.96 111.527 343.34 110.698 343.34C109.951 343.34 109.293 343.068 108.722 342.525C108.152 341.982 107.867 341.12 107.867 339.938C107.867 339.286 108.003 338.621 108.274 337.942C108.546 337.263 108.872 336.679 109.252 336.19C109.89 335.416 110.529 334.88 111.167 334.581C111.805 334.282 112.382 334.133 112.898 334.133C113.659 334.133 114.229 334.418 114.609 334.988C114.677 335.07 114.711 335.097 114.711 335.07C114.725 335.015 114.908 334.275 115.261 332.849C115.614 331.424 115.804 330.67 115.831 330.588C115.831 330.412 115.784 330.303 115.689 330.263C115.594 330.222 115.329 330.188 114.894 330.161H114.467C114.385 330.079 114.344 330.025 114.344 329.998C114.344 329.971 114.358 329.842 114.385 329.611C114.453 329.353 114.541 329.224 114.65 329.224ZM114.365 336.496C114.053 335.423 113.543 334.886 112.837 334.886C112.362 334.886 111.907 335.097 111.472 335.518C111.038 335.939 110.698 336.489 110.454 337.168C110.06 338.241 109.782 339.354 109.619 340.508C109.619 340.549 109.619 340.624 109.619 340.733C109.619 340.841 109.612 340.923 109.598 340.977C109.598 341.588 109.721 342.009 109.965 342.24C110.209 342.471 110.501 342.593 110.841 342.607C111.574 342.607 112.328 342.118 113.102 341.14L113.265 340.916L114.365 336.496Z" fill="#E0E0E0"/>
<path d="M118.317 335.294C118.222 335.199 118.174 335.131 118.174 335.09C118.174 335.036 118.194 334.927 118.235 334.764C118.276 334.601 118.31 334.506 118.337 334.479C118.364 334.411 118.425 334.377 118.52 334.377C118.615 334.377 118.962 334.371 119.559 334.357H120.639L121.026 332.727C121.067 332.578 121.114 332.381 121.168 332.137C121.223 331.892 121.27 331.716 121.311 331.607C121.352 331.498 121.392 331.363 121.433 331.2C121.474 331.037 121.528 330.921 121.596 330.853C121.664 330.785 121.732 330.704 121.8 330.609C121.868 330.514 121.963 330.453 122.085 330.426C122.207 330.398 122.329 330.385 122.452 330.385C122.696 330.398 122.866 330.473 122.961 330.609C123.056 330.745 123.103 330.874 123.103 330.996C123.103 331.091 123.042 331.41 122.92 331.953C122.798 332.497 122.662 333.033 122.513 333.563L122.309 334.316C122.309 334.343 122.649 334.357 123.328 334.357H124.366C124.461 334.452 124.509 334.527 124.509 334.581C124.509 334.88 124.421 335.117 124.244 335.294H122.065L121.331 338.248C120.802 340.42 120.537 341.588 120.537 341.751C120.537 342.321 120.72 342.607 121.087 342.607C121.562 342.607 122.024 342.376 122.472 341.914C122.92 341.452 123.28 340.882 123.552 340.203C123.579 340.122 123.613 340.074 123.653 340.06C123.694 340.047 123.796 340.033 123.959 340.02H124.04C124.244 340.02 124.346 340.074 124.346 340.183C124.346 340.223 124.326 340.305 124.285 340.427C124.217 340.644 124.095 340.902 123.918 341.201C123.742 341.5 123.511 341.819 123.226 342.159C122.941 342.498 122.594 342.783 122.187 343.014C121.779 343.245 121.365 343.36 120.944 343.36C120.537 343.36 120.15 343.259 119.783 343.055C119.417 342.851 119.152 342.498 118.989 341.996C118.962 341.887 118.948 341.704 118.948 341.446V341.079L119.661 338.227C120.136 336.312 120.381 335.348 120.394 335.335C120.394 335.308 120.048 335.294 119.355 335.294H118.317Z" fill="#E0E0E0"/>
<path d="M131.94 336.068C131.94 335.891 132.035 335.755 132.225 335.66H145.2C145.404 335.769 145.506 335.905 145.506 336.068C145.506 336.217 145.411 336.346 145.221 336.455L138.743 336.475H132.266C132.048 336.407 131.94 336.271 131.94 336.068ZM131.94 340.019C131.94 339.816 132.048 339.68 132.266 339.612H145.221C145.411 339.748 145.506 339.884 145.506 340.019C145.506 340.196 145.404 340.332 145.2 340.427H132.225C132.035 340.332 131.94 340.196 131.94 340.019Z" fill="#E0E0E0"/>
<path d="M154.261 331.22C155.021 330.12 156.06 329.57 157.377 329.57C158.029 329.57 158.681 329.746 159.333 330.099C159.985 330.452 160.514 331.077 160.922 331.973C161.424 333.1 161.675 334.648 161.675 336.618C161.675 338.722 161.383 340.332 160.8 341.445C160.528 342.016 160.154 342.47 159.679 342.81C159.204 343.149 158.79 343.36 158.437 343.441C158.084 343.523 157.737 343.57 157.398 343.584C157.045 343.584 156.692 343.543 156.339 343.462C155.985 343.38 155.571 343.163 155.096 342.81C154.621 342.457 154.247 342.002 153.976 341.445C153.392 340.332 153.1 338.722 153.1 336.618C153.1 334.255 153.487 332.455 154.261 331.22ZM158.844 330.975C158.437 330.541 157.955 330.323 157.398 330.323C156.827 330.323 156.339 330.541 155.931 330.975C155.592 331.328 155.368 331.817 155.259 332.442C155.15 333.066 155.096 334.37 155.096 336.353C155.096 338.498 155.15 339.911 155.259 340.59C155.368 341.269 155.612 341.805 155.992 342.199C156.373 342.606 156.841 342.81 157.398 342.81C157.941 342.81 158.403 342.606 158.783 342.199C159.177 341.791 159.421 341.221 159.516 340.488C159.611 339.754 159.666 338.376 159.679 336.353C159.679 334.384 159.625 333.087 159.516 332.462C159.408 331.837 159.184 331.342 158.844 330.975Z" fill="#E0E0E0"/>
<path d="M164.079 341.914C164.079 341.588 164.194 341.302 164.425 341.058C164.656 340.814 164.948 340.691 165.301 340.691C165.627 340.691 165.912 340.8 166.157 341.017C166.401 341.235 166.53 341.527 166.544 341.893C166.544 342.233 166.428 342.525 166.197 342.769C165.967 343.014 165.675 343.136 165.322 343.136C164.969 343.136 164.677 343.02 164.446 342.789C164.215 342.559 164.093 342.267 164.079 341.914Z" fill="#E0E0E0"/>
<path d="M170.373 334.397C170.007 334.397 169.715 334.275 169.497 334.031C169.28 333.786 169.171 333.487 169.171 333.134C169.171 332.17 169.531 331.335 170.251 330.629C170.971 329.923 171.867 329.57 172.94 329.57C174.176 329.57 175.208 329.95 176.036 330.71C176.864 331.471 177.285 332.455 177.299 333.664C177.299 334.248 177.163 334.805 176.892 335.334C176.62 335.864 176.294 336.325 175.914 336.719C175.534 337.113 174.99 337.616 174.284 338.227C173.795 338.648 173.116 339.272 172.247 340.101L171.045 341.241L172.594 341.262C174.726 341.262 175.859 341.228 175.995 341.16C176.09 341.133 176.253 340.528 176.484 339.347V339.286H177.299V339.347C177.285 339.388 177.197 340.006 177.034 341.201C176.871 342.396 176.769 343.02 176.729 343.075V343.136H169.171V342.749V342.504C169.171 342.409 169.212 342.307 169.294 342.199C169.375 342.09 169.579 341.852 169.905 341.486C170.299 341.051 170.638 340.671 170.923 340.345C171.045 340.209 171.276 339.958 171.616 339.591C171.955 339.225 172.186 338.974 172.308 338.838C172.431 338.702 172.627 338.478 172.899 338.166C173.171 337.853 173.361 337.622 173.469 337.473C173.578 337.324 173.734 337.12 173.938 336.862C174.142 336.604 174.284 336.387 174.366 336.21C174.447 336.034 174.549 335.837 174.671 335.619C174.793 335.402 174.882 335.185 174.936 334.968C174.99 334.75 175.038 334.547 175.079 334.356C175.119 334.166 175.14 333.942 175.14 333.684C175.14 332.829 174.909 332.089 174.447 331.464C173.985 330.839 173.327 330.527 172.471 330.527C172.023 330.527 171.629 330.642 171.29 330.873C170.95 331.104 170.713 331.328 170.577 331.545C170.441 331.763 170.373 331.892 170.373 331.932C170.373 331.946 170.407 331.953 170.475 331.953C170.72 331.953 170.971 332.048 171.229 332.238C171.487 332.428 171.616 332.74 171.616 333.175C171.616 333.514 171.507 333.8 171.29 334.031C171.073 334.261 170.767 334.384 170.373 334.397Z" fill="#E0E0E0"/>
<path d="M181.678 339.938C181.678 340.264 181.57 340.535 181.352 340.753C181.135 340.97 180.87 341.079 180.558 341.079H180.415C181.04 342.151 181.869 342.688 182.901 342.688C183.851 342.688 184.544 342.28 184.978 341.466C185.236 341.017 185.365 340.148 185.365 338.858C185.365 337.46 185.182 336.516 184.815 336.027C184.462 335.579 184.068 335.355 183.634 335.355H183.512C182.452 335.355 181.651 335.816 181.108 336.74C181.054 336.835 181.006 336.889 180.965 336.903C180.925 336.916 180.823 336.93 180.66 336.943C180.429 336.943 180.3 336.903 180.273 336.821C180.246 336.767 180.232 335.579 180.232 333.257V330.629C180.232 329.95 180.266 329.61 180.334 329.61C180.361 329.583 180.388 329.57 180.415 329.57C180.429 329.57 180.572 329.624 180.843 329.733C181.115 329.841 181.488 329.95 181.964 330.059C182.439 330.167 182.948 330.221 183.491 330.221C184.455 330.221 185.379 330.031 186.262 329.651C186.37 329.597 186.458 329.57 186.526 329.57C186.635 329.57 186.689 329.692 186.689 329.936V330.201C185.576 331.518 184.184 332.177 182.514 332.177C182.093 332.177 181.712 332.136 181.373 332.055L181.169 332.014V335.518C181.427 335.327 181.631 335.178 181.78 335.069C181.93 334.961 182.174 334.852 182.514 334.744C182.853 334.635 183.199 334.581 183.552 334.581C184.652 334.581 185.583 335.022 186.343 335.905C187.104 336.787 187.484 337.833 187.484 339.042C187.484 340.291 187.049 341.357 186.18 342.24C185.311 343.122 184.252 343.57 183.002 343.584C181.902 343.584 181.02 343.217 180.354 342.484C179.689 341.751 179.356 340.922 179.356 339.999C179.356 339.673 179.431 339.415 179.58 339.225C179.73 339.035 179.886 338.913 180.049 338.858C180.212 338.804 180.368 338.777 180.517 338.777C180.857 338.777 181.135 338.892 181.352 339.123C181.57 339.354 181.678 339.625 181.678 339.938Z" fill="#E0E0E0"/>
<path d="M121.962 315C121.962 321.077 116.453 315.81 116.29 321.32" stroke="#F0F0F0" stroke-linecap="round"/>
<path d="M110.619 315C110.619 321.077 116.128 315.81 116.29 321.32" stroke="#F0F0F0" stroke-linecap="round"/>
<g clip-path="url(#clip1_913_11617)">
<path d="M191.023 83.2584C191.023 82.9191 190.894 82.7494 190.636 82.7494C190.31 82.7494 189.971 82.9462 189.618 83.3398C189.265 83.7334 188.973 84.3374 188.742 85.1518C188.729 85.1654 188.715 85.1857 188.702 85.2129C188.688 85.24 188.681 85.2604 188.681 85.2739C188.681 85.2875 188.668 85.3011 188.641 85.3147C188.613 85.3282 188.593 85.335 188.58 85.335C188.566 85.335 188.539 85.335 188.498 85.335C188.457 85.335 188.403 85.335 188.335 85.335H188.05C187.969 85.2536 187.928 85.1925 187.928 85.1518C187.928 85.0568 187.982 84.86 188.091 84.5614C188.199 84.2628 188.362 83.9099 188.58 83.5027C188.797 83.0955 189.095 82.7494 189.475 82.4644C189.855 82.1794 190.283 82.0301 190.758 82.0165C191.328 82.0165 191.769 82.1794 192.081 82.5051C192.393 82.8309 192.556 83.2109 192.57 83.6452C192.57 83.876 192.55 84.0524 192.509 84.1746C192.509 84.256 192.407 84.5546 192.203 85.0704C192 85.5861 191.789 86.1901 191.572 86.8823C191.355 87.5745 191.233 88.1785 191.206 88.6942C191.206 89.0607 191.24 89.3593 191.308 89.59C191.484 90.1737 191.912 90.4655 192.59 90.4655C193.092 90.4655 193.561 90.2347 193.995 89.7733C194.429 89.3118 194.769 88.7757 195.013 88.1649C195.257 87.5541 195.454 86.9909 195.603 86.4751C195.753 85.9594 195.827 85.5861 195.827 85.3554C195.827 85.0432 195.773 84.7718 195.664 84.541C195.556 84.3103 195.434 84.1338 195.298 84.0117C195.162 83.8895 195.04 83.7674 194.932 83.6452C194.823 83.5231 194.769 83.3738 194.769 83.1973C194.769 82.8987 194.898 82.6205 195.155 82.3626C195.413 82.1047 195.692 81.9758 195.99 81.9758C196.248 81.9758 196.479 82.0979 196.682 82.3423C196.886 82.5866 196.995 82.9802 197.008 83.5231C197.008 83.8895 196.927 84.4528 196.764 85.2129C196.601 85.9729 196.35 86.8212 196.011 87.7577C195.671 88.6942 195.189 89.5018 194.565 90.1804C193.941 90.8591 193.221 91.2052 192.407 91.2188C191.538 91.2188 190.846 90.9948 190.33 90.5469C189.828 90.1126 189.577 89.4679 189.577 88.6128C189.577 88.1921 189.631 87.7577 189.74 87.3098C189.849 86.8619 190.127 86.0679 190.575 84.9278C190.873 84.0592 191.023 83.5027 191.023 83.2584Z" fill="#6AB0F3"/>
<path d="M199.288 85.9055C199.288 84.969 199.356 84.08 199.492 83.2385C199.628 82.397 199.784 81.6708 199.96 81.0601C200.137 80.4493 200.388 79.8521 200.713 79.2685C201.039 78.6849 201.297 78.2302 201.487 77.9044C201.677 77.5787 201.962 77.2258 202.342 76.8458C202.722 76.4657 202.946 76.235 203.014 76.1536C203.082 76.0721 203.252 75.9296 203.523 75.726H203.788H203.869C204.059 75.726 204.154 75.7871 204.154 75.9093C204.154 75.95 204.039 76.0925 203.808 76.3368C203.577 76.5811 203.299 76.9408 202.973 77.4158C202.648 77.8909 202.315 78.4745 201.976 79.1667C201.636 79.8589 201.351 80.7954 201.121 81.9762C200.89 83.157 200.775 84.4668 200.775 85.9055C200.775 87.3442 200.89 88.6472 201.121 89.8144C201.351 90.9817 201.63 91.925 201.955 92.6443C202.281 93.3636 202.614 93.9473 202.953 94.3952C203.292 94.8431 203.577 95.2027 203.808 95.4742C204.039 95.7456 204.154 95.8882 204.154 95.9017C204.154 96.0239 204.052 96.085 203.849 96.085H203.788H203.523L202.953 95.5963C201.677 94.4427 200.747 93.004 200.164 91.2803C199.58 89.5565 199.288 87.7649 199.288 85.9055Z" fill="white"/>
<path d="M209.631 79.2277L209.366 79.3294C209.176 79.3973 208.905 79.4652 208.552 79.533C208.199 79.6009 207.805 79.6484 207.371 79.6755H206.984V78.739H207.371C208.009 78.7119 208.599 78.6101 209.142 78.4337C209.685 78.2572 210.065 78.0943 210.282 77.945C210.499 77.7957 210.689 77.6464 210.852 77.4971C210.879 77.4564 210.961 77.4361 211.097 77.4361C211.219 77.4361 211.334 77.4768 211.443 77.5582V83.6455L211.463 89.7532C211.558 89.8482 211.639 89.9093 211.707 89.9365C211.775 89.9636 211.938 89.9907 212.196 90.0179C212.454 90.045 212.875 90.0586 213.458 90.0586H213.987V90.9951H213.764C213.479 90.9544 212.399 90.934 210.526 90.934C208.681 90.934 207.615 90.9544 207.33 90.9951H207.086V90.0586H207.615C207.914 90.0586 208.172 90.0586 208.389 90.0586C208.606 90.0586 208.776 90.0518 208.898 90.0382C209.02 90.0247 209.128 90.0043 209.223 89.9772C209.319 89.95 209.373 89.9365 209.386 89.9365C209.4 89.9365 209.441 89.9025 209.509 89.8347C209.576 89.7668 209.617 89.7396 209.631 89.7532V79.2277Z" fill="white"/>
<path d="M216.695 75.7464L216.777 75.726C216.845 75.726 216.912 75.726 216.98 75.726H217.225L217.795 76.2146C219.07 77.3683 220 78.807 220.584 80.5307C221.167 82.2545 221.459 84.046 221.459 85.9055C221.459 86.8284 221.391 87.7174 221.256 88.5725C221.12 89.4276 220.964 90.1537 220.787 90.7509C220.611 91.3481 220.36 91.9453 220.034 92.5425C219.708 93.1397 219.45 93.5944 219.26 93.9066C219.07 94.2187 218.792 94.5648 218.426 94.9449C218.059 95.3249 217.842 95.5488 217.774 95.6167C217.706 95.6846 217.55 95.8135 217.306 96.0035C217.265 96.0442 217.238 96.0714 217.225 96.085H216.98C216.872 96.085 216.797 96.085 216.756 96.085C216.716 96.085 216.682 96.0646 216.655 96.0239C216.627 95.9832 216.607 95.9221 216.593 95.8407C216.607 95.8271 216.682 95.7389 216.817 95.576C218.921 93.3908 219.973 90.1673 219.973 85.9055C219.973 81.6437 218.921 78.4202 216.817 76.235C216.682 76.0721 216.607 75.9839 216.593 75.9703C216.593 75.8617 216.627 75.7871 216.695 75.7464Z" fill="white"/>
<path d="M230.189 83.9303C230.189 83.7539 230.284 83.6181 230.474 83.5231H243.443C243.646 83.6317 243.748 83.7674 243.748 83.9303C243.748 84.0796 243.653 84.2085 243.463 84.3171L236.989 84.3375H230.515C230.298 84.2696 230.189 84.1339 230.189 83.9303ZM230.189 87.8799C230.189 87.6763 230.298 87.5406 230.515 87.4728H243.463C243.653 87.6085 243.748 87.7442 243.748 87.8799C243.748 88.0564 243.646 88.1921 243.443 88.2871H230.474C230.284 88.1921 230.189 88.0564 230.189 87.8799Z" fill="white"/>
<path d="M252.254 86.17C252.254 86.17 252.254 86.0818 252.254 85.9053C252.254 85.7289 252.349 85.5932 252.539 85.4981H264.368C264.571 85.6067 264.673 85.7424 264.673 85.9053C264.673 86.0682 264.571 86.2039 264.368 86.3125H252.539C252.349 86.2175 252.254 86.0818 252.254 85.9053V86.17Z" fill="white"/>
<path d="M268.297 85.9055C268.297 84.969 268.365 84.08 268.501 83.2385C268.636 82.397 268.792 81.6708 268.969 81.0601C269.145 80.4493 269.396 79.8521 269.722 79.2685C270.048 78.6849 270.306 78.2302 270.496 77.9044C270.686 77.5787 270.971 77.2258 271.351 76.8458C271.731 76.4657 271.955 76.235 272.023 76.1536C272.091 76.0721 272.26 75.9296 272.532 75.726H272.796H272.878C273.068 75.726 273.163 75.7871 273.163 75.9093C273.163 75.95 273.047 76.0925 272.817 76.3368C272.586 76.5811 272.308 76.9408 271.982 77.4158C271.656 77.8909 271.324 78.4745 270.984 79.1667C270.645 79.8589 270.36 80.7954 270.129 81.9762C269.899 83.157 269.783 84.4668 269.783 85.9055C269.783 87.3442 269.899 88.6472 270.129 89.8144C270.36 90.9817 270.638 91.925 270.964 92.6443C271.29 93.3636 271.622 93.9473 271.962 94.3952C272.301 94.8431 272.586 95.2027 272.817 95.4742C273.047 95.7456 273.163 95.8882 273.163 95.9017C273.163 96.0239 273.061 96.085 272.857 96.085H272.796H272.532L271.962 95.5963C270.686 94.4427 269.756 93.004 269.172 91.2803C268.589 89.5565 268.297 87.7649 268.297 85.9055Z" fill="white"/>
<path d="M278.639 79.2277L278.375 79.3294C278.185 79.3973 277.913 79.4652 277.56 79.533C277.207 79.6009 276.814 79.6484 276.379 79.6755H275.993V78.739H276.379C277.017 78.7119 277.608 78.6101 278.151 78.4337C278.694 78.2572 279.074 78.0943 279.291 77.945C279.508 77.7957 279.698 77.6464 279.861 77.4971C279.888 77.4564 279.969 77.4361 280.105 77.4361C280.227 77.4361 280.343 77.4768 280.451 77.5582V83.6455L280.472 89.7532C280.567 89.8482 280.648 89.9093 280.716 89.9365C280.784 89.9636 280.947 89.9907 281.205 90.0179C281.462 90.045 281.883 90.0586 282.467 90.0586H282.996V90.9951H282.772C282.487 90.9544 281.408 90.934 279.535 90.934C277.689 90.934 276.624 90.9544 276.339 90.9951H276.094V90.0586H276.624C276.922 90.0586 277.18 90.0586 277.397 90.0586C277.615 90.0586 277.784 90.0518 277.906 90.0382C278.029 90.0247 278.137 90.0043 278.232 89.9772C278.327 89.95 278.381 89.9365 278.395 89.9365C278.409 89.9365 278.449 89.9025 278.517 89.8347C278.585 89.7668 278.626 89.7396 278.639 89.7532V79.2277Z" fill="white"/>
<path d="M285.704 75.7464L285.785 75.726C285.853 75.726 285.921 75.726 285.989 75.726H286.233L286.803 76.2146C288.079 77.3683 289.009 78.807 289.592 80.5307C290.176 82.2545 290.468 84.046 290.468 85.9055C290.468 86.8284 290.4 87.7174 290.264 88.5725C290.129 89.4276 289.972 90.1537 289.796 90.7509C289.62 91.3481 289.368 91.9453 289.043 92.5425C288.717 93.1397 288.459 93.5944 288.269 93.9066C288.079 94.2187 287.801 94.5648 287.434 94.9449C287.068 95.3249 286.851 95.5488 286.783 95.6167C286.715 95.6846 286.559 95.8135 286.315 96.0035C286.274 96.0442 286.247 96.0714 286.233 96.085H285.989C285.88 96.085 285.806 96.085 285.765 96.085C285.724 96.085 285.69 96.0646 285.663 96.0239C285.636 95.9832 285.616 95.9221 285.602 95.8407C285.616 95.8271 285.69 95.7389 285.826 95.576C287.93 93.3908 288.982 90.1673 288.982 85.9055C288.982 81.6437 287.93 78.4202 285.826 76.235C285.69 76.0721 285.616 75.9839 285.602 75.9703C285.602 75.8617 285.636 75.7871 285.704 75.7464Z" fill="white"/>
<path d="M294.643 76.412C294.384 76.412 294.177 76.3256 294.024 76.1529C293.87 75.9802 293.793 75.7691 293.793 75.5196C293.793 74.8383 294.048 74.2481 294.556 73.7491C295.065 73.2502 295.698 73.0007 296.456 73.0007C297.33 73.0007 298.059 73.2693 298.644 73.8067C299.23 74.3441 299.527 75.0398 299.537 75.8938C299.537 76.3064 299.441 76.6999 299.249 77.0741C299.057 77.4483 298.826 77.7746 298.558 78.0529C298.289 78.3312 297.905 78.6862 297.406 79.118C297.061 79.4155 296.581 79.8569 295.967 80.4422L295.118 81.2483L296.212 81.2627C297.718 81.2627 298.519 81.2387 298.615 81.1907C298.683 81.1715 298.798 80.7445 298.961 79.9097V79.8665H299.537V79.9097C299.527 79.9385 299.465 80.3751 299.349 81.2195C299.234 82.0639 299.162 82.5053 299.134 82.5437V82.5869H293.793V82.3134V82.1407C293.793 82.0735 293.822 82.0016 293.88 81.9248C293.937 81.848 294.081 81.6801 294.312 81.421C294.59 81.114 294.83 80.8453 295.031 80.615C295.118 80.519 295.281 80.3415 295.521 80.0824C295.761 79.8233 295.924 79.6458 296.01 79.5498C296.096 79.4539 296.236 79.2955 296.428 79.0748C296.619 78.8541 296.754 78.691 296.831 78.5854C296.907 78.4799 297.018 78.336 297.162 78.1536C297.306 77.9713 297.406 77.8178 297.464 77.693C297.521 77.5683 297.593 77.4291 297.68 77.2756C297.766 77.1221 297.829 76.9685 297.867 76.815C297.905 76.6615 297.939 76.5175 297.968 76.3832C297.996 76.2489 298.011 76.0905 298.011 75.9082C298.011 75.3037 297.848 74.7807 297.521 74.3393C297.195 73.8979 296.73 73.6772 296.125 73.6772C295.809 73.6772 295.53 73.7587 295.29 73.9219C295.051 74.085 294.883 74.2433 294.787 74.3969C294.691 74.5504 294.643 74.6416 294.643 74.6703C294.643 74.6799 294.667 74.6847 294.715 74.6847C294.887 74.6847 295.065 74.7519 295.247 74.8862C295.43 75.0206 295.521 75.2413 295.521 75.5484C295.521 75.7883 295.444 75.9898 295.29 76.1529C295.137 76.316 294.921 76.4024 294.643 76.412Z" fill="white"/>
<path d="M306.953 86.1705C306.953 86.1705 306.953 86.0823 306.953 85.9059C306.953 85.7294 307.048 85.5937 307.238 85.4987H313.325V82.4449L313.345 79.391C313.481 79.2146 313.61 79.1263 313.732 79.1263C313.908 79.1263 314.044 79.2281 314.139 79.4317V85.4987H320.206C320.41 85.6073 320.512 85.743 320.512 85.9059C320.512 86.0687 320.41 86.2045 320.206 86.3131H314.139V92.38C314.031 92.57 313.908 92.665 313.773 92.665H313.732H313.691C313.528 92.665 313.406 92.57 313.325 92.38V86.3131H307.238C307.048 86.218 306.953 86.0823 306.953 85.9059V86.1705Z" fill="white"/>
<path d="M326.707 83.1566C326.612 83.0616 326.564 82.9937 326.564 82.953C326.564 82.8987 326.585 82.7902 326.625 82.6273C326.666 82.4644 326.7 82.3694 326.727 82.3423C326.754 82.2744 326.815 82.2405 326.91 82.2405C327.005 82.2405 327.351 82.2337 327.949 82.2201H329.028L329.414 80.5914C329.455 80.4421 329.503 80.2453 329.557 80.001C329.611 79.7567 329.659 79.5802 329.699 79.4716C329.74 79.3631 329.781 79.2273 329.822 79.0645C329.862 78.9016 329.917 78.7862 329.985 78.7184C330.052 78.6505 330.12 78.5691 330.188 78.4741C330.256 78.379 330.351 78.318 330.473 78.2908C330.595 78.2637 330.717 78.2501 330.84 78.2501C331.084 78.2637 331.254 78.3383 331.349 78.4741C331.444 78.6098 331.491 78.7387 331.491 78.8609C331.491 78.9559 331.43 79.2748 331.308 79.8177C331.186 80.3607 331.05 80.8968 330.901 81.4261L330.697 82.1794C330.697 82.2065 331.036 82.2201 331.715 82.2201H332.753C332.848 82.3151 332.896 82.3898 332.896 82.444C332.896 82.7426 332.808 82.9802 332.631 83.1566H330.453L329.72 86.1087C329.191 88.2803 328.926 89.4475 328.926 89.6104C328.926 90.1804 329.109 90.4655 329.476 90.4655C329.951 90.4655 330.412 90.2347 330.86 89.7733C331.308 89.3118 331.668 88.7417 331.939 88.0631C331.966 87.9817 332 87.9342 332.041 87.9206C332.081 87.907 332.183 87.8935 332.346 87.8799H332.428C332.631 87.8799 332.733 87.9342 332.733 88.0428C332.733 88.0835 332.713 88.1649 332.672 88.2871C332.604 88.5042 332.482 88.7621 332.305 89.0607C332.129 89.3593 331.898 89.6783 331.613 90.0176C331.328 90.3569 330.982 90.6419 330.575 90.8726C330.168 91.1034 329.754 91.2188 329.333 91.2188C328.926 91.2188 328.539 91.117 328.173 90.9134C327.806 90.7098 327.541 90.3569 327.379 89.8547C327.351 89.7461 327.338 89.5629 327.338 89.305V88.9385L328.05 86.0883C328.525 84.1746 328.77 83.2109 328.783 83.1973C328.783 83.1702 328.437 83.1566 327.745 83.1566H326.707Z" fill="white"/>
<path d="M335.441 85.9055C335.441 84.969 335.509 84.08 335.644 83.2385C335.78 82.397 335.936 81.6708 336.113 81.0601C336.289 80.4493 336.54 79.8521 336.866 79.2685C337.192 78.6849 337.45 78.2302 337.64 77.9044C337.83 77.5787 338.115 77.2258 338.495 76.8458C338.875 76.4657 339.099 76.235 339.166 76.1536C339.234 76.0721 339.404 75.9296 339.675 75.726H339.94H340.022C340.212 75.726 340.307 75.7871 340.307 75.9093C340.307 75.95 340.191 76.0925 339.96 76.3368C339.73 76.5811 339.452 76.9408 339.126 77.4158C338.8 77.8909 338.467 78.4745 338.128 79.1667C337.789 79.8589 337.504 80.7954 337.273 81.9762C337.042 83.157 336.927 84.4668 336.927 85.9055C336.927 87.3442 337.042 88.6472 337.273 89.8144C337.504 90.9817 337.782 91.925 338.108 92.6443C338.434 93.3636 338.766 93.9473 339.105 94.3952C339.445 94.8431 339.73 95.2027 339.96 95.4742C340.191 95.7456 340.307 95.8882 340.307 95.9017C340.307 96.0239 340.205 96.085 340.001 96.085H339.94H339.675L339.105 95.5963C337.83 94.4427 336.9 93.004 336.316 91.2803C335.733 89.5565 335.441 87.7649 335.441 85.9055Z" fill="white"/>
<path d="M341.976 83.1566C341.881 83.0616 341.833 82.9937 341.833 82.953C341.833 82.8987 341.854 82.7902 341.895 82.6273C341.935 82.4644 341.969 82.3694 341.996 82.3423C342.024 82.2744 342.085 82.2405 342.18 82.2405C342.275 82.2405 342.621 82.2337 343.218 82.2201H344.297L344.684 80.5914C344.724 80.4421 344.772 80.2453 344.826 80.001C344.881 79.7567 344.928 79.5802 344.969 79.4716C345.009 79.3631 345.05 79.2273 345.091 79.0645C345.132 78.9016 345.186 78.7862 345.254 78.7184C345.322 78.6505 345.39 78.5691 345.457 78.4741C345.525 78.379 345.62 78.318 345.742 78.2908C345.865 78.2637 345.987 78.2501 346.109 78.2501C346.353 78.2637 346.523 78.3383 346.618 78.4741C346.713 78.6098 346.76 78.7387 346.76 78.8609C346.76 78.9559 346.699 79.2748 346.577 79.8177C346.455 80.3607 346.319 80.8968 346.17 81.4261L345.966 82.1794C345.966 82.2065 346.306 82.2201 346.984 82.2201H348.023C348.118 82.3151 348.165 82.3898 348.165 82.444C348.165 82.7426 348.077 82.9802 347.9 83.1566H345.722L344.989 86.1087C344.46 88.2803 344.195 89.4475 344.195 89.6104C344.195 90.1804 344.378 90.4655 344.745 90.4655C345.22 90.4655 345.681 90.2347 346.129 89.7733C346.577 89.3118 346.937 88.7417 347.208 88.0631C347.235 87.9817 347.269 87.9342 347.31 87.9206C347.351 87.907 347.453 87.8935 347.615 87.8799H347.697C347.9 87.8799 348.002 87.9342 348.002 88.0428C348.002 88.0835 347.982 88.1649 347.941 88.2871C347.873 88.5042 347.751 88.7621 347.575 89.0607C347.398 89.3593 347.168 89.6783 346.883 90.0176C346.597 90.3569 346.251 90.6419 345.844 90.8726C345.437 91.1034 345.023 91.2188 344.602 91.2188C344.195 91.2188 343.808 91.117 343.442 90.9134C343.075 90.7098 342.811 90.3569 342.648 89.8547C342.621 89.7461 342.607 89.5629 342.607 89.305V88.9385L343.32 86.0883C343.795 84.1746 344.039 83.2109 344.053 83.1973C344.053 83.1702 343.707 83.1566 343.014 83.1566H341.976Z" fill="white"/>
<path d="M350.018 75.7464L350.099 75.726C350.167 75.726 350.235 75.726 350.303 75.726H350.547L351.117 76.2146C352.393 77.3683 353.323 78.807 353.906 80.5307C354.49 82.2545 354.782 84.046 354.782 85.9055C354.782 86.8284 354.714 87.7174 354.578 88.5725C354.442 89.4276 354.286 90.1537 354.11 90.7509C353.934 91.3481 353.682 91.9453 353.357 92.5425C353.031 93.1397 352.773 93.5944 352.583 93.9066C352.393 94.2187 352.115 94.5648 351.748 94.9449C351.382 95.3249 351.165 95.5488 351.097 95.6167C351.029 95.6846 350.873 95.8135 350.629 96.0035C350.588 96.0442 350.561 96.0714 350.547 96.085H350.303C350.194 96.085 350.12 96.085 350.079 96.085C350.038 96.085 350.004 96.0646 349.977 96.0239C349.95 95.9832 349.93 95.9221 349.916 95.8407C349.93 95.8271 350.004 95.7389 350.14 95.576C352.244 93.3908 353.296 90.1673 353.296 85.9055C353.296 81.6437 352.244 78.4202 350.14 76.235C350.004 76.0721 349.93 75.9839 349.916 75.9703C349.916 75.8617 349.95 75.7871 350.018 75.7464Z" fill="white"/>
<path d="M363.51 83.9303C363.51 83.7539 363.605 83.6181 363.795 83.5231H376.763C376.967 83.6317 377.069 83.7674 377.069 83.9303C377.069 84.0796 376.974 84.2085 376.784 84.3171L370.31 84.3375H363.835C363.618 84.2696 363.51 84.1339 363.51 83.9303ZM363.51 87.8799C363.51 87.6763 363.618 87.5406 363.835 87.4728H376.784C376.974 87.6085 377.069 87.7442 377.069 87.8799C377.069 88.0564 376.967 88.1921 376.763 88.2871H363.795C363.605 88.1921 363.51 88.0564 363.51 87.8799Z" fill="white"/>
<path d="M384.984 81.6711C384.998 81.6439 385.113 80.9042 385.33 79.4519L385.656 77.2735C385.656 77.2464 385.792 77.2328 386.063 77.2328H386.47V77.3143C386.47 77.45 386.572 77.5653 386.776 77.6604C386.979 77.7554 387.332 77.8164 387.835 77.8436C388.337 77.8707 389.484 77.8843 391.275 77.8843H393.739V78.6783L392.354 80.5717C392.232 80.7346 392.028 81.006 391.743 81.386C391.458 81.7661 391.275 82.0172 391.194 82.1393C391.112 82.2615 390.97 82.4786 390.766 82.7908C390.563 83.103 390.427 83.3473 390.359 83.5237C390.291 83.7002 390.196 83.9513 390.074 84.277C389.952 84.6028 389.864 84.9149 389.809 85.2135C389.755 85.5121 389.701 85.8786 389.646 86.3129C389.592 86.7472 389.551 87.2087 389.524 87.6973C389.497 88.1859 389.477 88.7424 389.463 89.3667C389.463 89.5568 389.463 89.7468 389.463 89.9368C389.463 90.1268 389.456 90.2897 389.443 90.4254V90.6086C389.389 90.8394 389.26 91.0362 389.056 91.1991C388.852 91.3619 388.622 91.4434 388.364 91.4434C388.215 91.4434 388.072 91.423 387.936 91.3823C387.801 91.3416 387.658 91.2126 387.509 90.9955C387.359 90.7783 387.285 90.5068 387.285 90.1811C387.285 88.0366 387.943 85.8107 389.26 83.5034C389.531 83.069 390.101 82.2479 390.97 81.0399L391.906 79.7573H390.013C387.651 79.7573 386.409 79.798 386.287 79.8795C386.206 79.9202 386.131 80.0831 386.063 80.3681C385.995 80.6531 385.928 80.9449 385.86 81.2435L385.799 81.6711V81.7321H384.984V81.6711Z" fill="white"/>
</g>
</g>
<defs>
<clipPath id="clip0_913_11617">
<rect width="520" height="370" fill="white"/>
</clipPath>
<clipPath id="clip1_913_11617">
<rect width="206.577" height="23.085" fill="white" transform="translate(187.484 73)"/>
</clipPath>
</defs>
</svg>
