<?xml version="1.0" encoding="utf-8"?>
<!-- Generator: Adobe Illustrator 25.2.3, SVG Export Plug-In . SVG Version: 6.00 Build 0)  -->
<svg version="1.1" id="Layer_1" xmlns="http://www.w3.org/2000/svg" xmlns:xlink="http://www.w3.org/1999/xlink" x="0px" y="0px"
	 viewBox="0 0 100 100" style="enable-background:new 0 0 100 100;" xml:space="preserve">
<style type="text/css">
	.st0{fill:#699C52;}
</style>
<circle cx="49.6" cy="38.9" r="4.2"/>
<g transform="translate(50 50) scale(0.69 0.69) rotate(0) translate(-50 -50)">
	<path class="st0" d="M76.5,76.1c4-13.8,2.3-30.8-9.8-39.3c-0.2-4.1-2.8-7.7-6.7-10l4.2-7.9c0.8-1.5,0.5-1.8-0.7-0.5l-6.8,6.9
		c-1.4-0.5-3-0.8-4.6-1l-1.7-11.7c-0.2-1.7-0.6-1.7-0.9,0l-1.7,11.7c-1.6,0.2-3.2,0.5-4.6,1l-6.8-6.9c-1.2-1.2-1.5-1-0.7,0.5
		l4.2,7.9c-3.1,1.8-5.4,4.5-6.3,7.5c-13.6,8-14.4,25.9-8.9,39.5c1.1,2.8,5.8,1.6,4.6-1.3c-4.4-10.8-4.8-24.7,4.3-32.3
		c0.9,3.2,3.3,5.9,6.5,7.8c1.2,6.5,2,13,2.3,19.5c0.2,4.4,0.7,10.5-1.6,14.5c-1.8,3.1-6.5,1.8-9.6,1.8c-3.1,0-3.1,4.8,0,4.8
		c4,0,9.2,1,12.3-2.2c3.4-3.6,3.7-9.8,3.7-14.4c0-0.4,0-0.8,0-1.2c0-6.9-0.8-13.9-2-20.8c1.5,0.3,3,0.5,4.6,0.5c0.6,0,1.2,0,1.8-0.1
		c-1.1,6.7-1.9,13.6-1.9,20.3c0,0.4,0,0.8,0,1.2c0.1,4.7,0.3,10.9,3.7,14.4c3.1,3.2,8.3,2.2,12.3,2.2c3.1,0,3.1-4.8,0-4.8
		c-2.9,0-7.6,1.2-9.4-1.6c-2.6-3.8-1.9-10.4-1.7-14.7c0.3-6.1,1-12.2,2.1-18.2c4-1.4,7.1-3.9,8.8-7.1c1.1,1,2.2,2.1,3.1,3.3
		c6.7,8.5,6.1,19.5,3.2,29.4C71.1,77.8,75.7,79,76.5,76.1z M50,39c-2.8,0-5.1-2.3-5.1-5.1c0-2.8,2.3-5.1,5.1-5.1s5.1,2.3,5.1,5.1
		C55.1,36.7,52.8,39,50,39z"/>
	<circle class="st0" cx="50" cy="33.9" r="1.6"/>
</g>
</svg>
