<svg width="480" height="480" viewBox="0 0 480 480" fill="none" xmlns="http://www.w3.org/2000/svg">
<path d="M233.915 122.5L234.66 122.493L235.105 121.894C237.593 118.54 239.1 114.227 239.1 109.7C239.1 98.3818 229.937 89.0959 218.493 89.2C207.168 89.2038 198 98.3739 198 109.7C198 114.31 199.498 118.863 202.351 122.264L202.806 122.807L203.515 122.8L233.915 122.5Z" fill="white" stroke="black" stroke-width="3"/>
<path d="M288.915 122.5L289.66 122.493L290.105 121.894C292.593 118.54 294.1 114.227 294.1 109.7C294.1 98.3818 284.937 89.0959 273.493 89.2C262.168 89.2038 253 98.3739 253 109.7C253 114.31 254.498 118.863 257.351 122.264L257.806 122.807L258.515 122.8L288.915 122.5Z" fill="white" stroke="black" stroke-width="3"/>
<path d="M224 94.8C222.7 94.9 221.7 95.9 221.7 97.2C221.7 98.5 222.8 99.6 224.1 99.6C225.4 99.6 226.5 98.5 226.5 97.2C226.5 95.9 225.4 94.8 224.1 94.8H224L226.9 93.8C231.2 93.8 234.6 97.3 234.6 101.5C234.6 105.7 231.1 109.2 226.9 109.2C222.7 109.2 219.2 105.7 219.2 101.5C219.2 97.3 222.7 93.8 226.9 93.8" fill="black"/>
<path d="M279 94.8C277.7 94.9 276.7 95.9 276.7 97.2C276.7 98.5 277.8 99.6 279.1 99.6C280.4 99.6 281.5 98.5 281.5 97.2C281.5 95.9 280.4 94.8 279.1 94.8H279L281.9 93.8C286.2 93.8 289.6 97.3 289.6 101.5C289.6 105.7 286.1 109.2 281.9 109.2C277.7 109.2 274.2 105.7 274.2 101.5C274.2 97.3 277.7 93.8 281.9 93.8" fill="black"/>
<path d="M214.4 151.1H278.8C263.4 214.9 253.7 256.5 253.7 302.1C253.7 310.1 253.7 371.6 277.1 371.6C289.1 371.6 299.3 360.8 299.3 351.1C299.3 348.3 299.3 347.1 295.3 338.6C279.9 299.3 279.9 250.3 279.9 246.3C279.9 242.9 279.9 202.4 291.9 151.2L361.1 150.2C374.9 149.8 387.7 129.3 387.7 111C387.7 98.5 370.8 121.1 343.7 121.1L173.4 120.4C160.3 120.4 155 121.3 149.1 115.1C138.9 104.3 144.3 95.8 144.3 92.4C144.3 89 141.5 87.8 138 87.8C134 87.8 131.4 88.6 130.6 92.9C121.5 140.1 154.1 150.5 168.8 151.1H201.3C188.8 193.8 174.5 243.4 127.8 343.1C123.2 352.2 123.2 353.4 123.2 356.8C123.2 368.8 133.5 371.6 138.6 371.6C155.1 371.6 159.7 356.8 166.5 332.9C175.6 303.8 175.6 302.7 181.3 279.9L214.4 151.1Z" fill="#0C7F99"/>
<path d="M227.9 142C227.9 142.9 232.8 147.7 244.3 147.3C253.6 146.9 255.3 145.8 257.4 141.8L258.3 137.8C254.6 137.9 245.1 138.6 239 138.4C234.8 138.3 229 138.3 228 138.5" fill="black"/>
</svg>
