<svg width="480" height="480" viewBox="0 0 480 480" fill="none" xmlns="http://www.w3.org/2000/svg">
<path d="M207.215 127.5L208.001 127.492L208.442 126.841C210.739 123.451 211.927 119.103 211.494 114.558C210.958 108.931 208.085 103.21 204.027 99.2181C199.975 95.232 194.513 92.7751 188.837 94.2446C183.677 95.4847 178.83 97.7055 175.365 101.089C171.853 104.519 169.815 109.101 170.306 114.828L170.306 114.828L170.307 114.839C170.733 119.424 172.548 123.95 175.705 127.325L176.156 127.806L176.815 127.8L207.215 127.5Z" fill="white" stroke="black" stroke-width="3"/>
<path d="M262.015 127.8L262.801 127.792L263.242 127.141C265.538 123.752 266.726 119.404 266.293 114.858C265.755 109.205 263.258 104.778 259.35 101.435C255.479 98.1247 250.278 95.9216 244.344 94.5399C238.438 93.1353 233.315 95.5663 229.876 99.6603C226.464 103.722 224.622 109.493 225.105 115.128L225.105 115.128L225.106 115.139C225.533 119.724 227.347 124.25 230.505 127.625L230.955 128.106L231.615 128.1L262.015 127.8Z" fill="white" stroke="black" stroke-width="3"/>
<path d="M194.4 103.8C193.1 103.9 192.2 104.9 192.3 106.2C192.4 107.5 193.6 108.6 195 108.6C196.3 108.6 197.3 107.5 197.2 106.2C197.1 104.9 195.9 103.8 194.5 103.8H194.4L197.2 102.8C201.5 102.8 205.2 106.3 205.6 110.5C206 114.7 202.8 118.2 198.6 118.2C194.3 118.2 190.6 114.7 190.2 110.5C189.8 106.2 193 102.8 197.2 102.8" fill="black"/>
<path d="M248.4 103.8C247.1 103.9 246.2 104.9 246.3 106.2C246.4 107.5 247.6 108.6 249 108.6C250.3 108.6 251.3 107.5 251.2 106.2C251.1 104.9 249.9 103.8 248.5 103.8H248.4L251.2 102.8C255.5 102.8 259.2 106.3 259.6 110.5C260 114.7 256.8 118.2 252.6 118.2C248.3 118.2 244.6 114.7 244.2 110.5C243.8 106.2 247 102.8 251.2 102.8" fill="black"/>
<path d="M195.1 156.6H259.5C255.3 220.4 252.9 262 260.8 307.6C262.2 315.6 273 377.1 296.3 377.1C308.3 377.1 316.6 366.3 314.9 356.6C314.4 353.8 314.2 352.6 308.7 344.1C286.4 304.8 277.9 255.8 277.2 251.8C276.6 248.4 269.5 207.9 272.5 156.7H336.3C343.7 156.7 358.4 154 355.3 135.8C349.3 101.2 330 126.2 319.8 126.2L148.7 125.9C135.6 125.9 107.6 130.2 95.7004 111.6C82.8004 91.5 73.8004 113.4 74.4004 116.8C75.0004 120.2 75.4004 129.3 81.3004 135.6C85.4004 140 93.3004 145 97.6004 147C119.3 157.2 135.4 156.6 149.6 156.6H182C176.9 199.3 171.4 248.9 142.1 348.6C139.1 357.7 139.3 358.9 139.9 362.3C142 374.3 152.7 377.1 157.9 377.1C174.4 377.1 176.4 362.3 179 338.4C183 309.3 182.8 308.2 184.5 285.4L195.1 156.6Z" fill="#0C7F99"/>
<path d="M205 149.5C208.8 148.8 208.2 149.1 219.8 149C230.1 148.9 230 147.8 234.2 149.3L232.8 145.2C228.7 143.5 223.4 141.8 218 141.8C214.1 141.8 209.6 142.9 204.4 145" fill="black"/>
</svg>
