<svg width="480" height="480" viewBox="0 0 480 480" fill="none" xmlns="http://www.w3.org/2000/svg">
<path d="M265.616 129.8L266.362 129.793L266.806 129.194C269.294 125.84 270.801 121.527 270.801 117C270.801 105.682 261.638 96.3959 250.194 96.5C238.869 96.5038 229.701 105.674 229.701 117C229.701 121.61 231.199 126.163 234.052 129.564L234.507 130.107L235.216 130.1L265.616 129.8Z" fill="white" stroke="black" stroke-width="3"/>
<path d="M320.616 129.8L321.362 129.793L321.806 129.194C324.294 125.84 325.801 121.527 325.801 117C325.801 105.682 316.638 96.3959 305.194 96.5C293.869 96.5038 284.701 105.674 284.701 117C284.701 121.61 286.199 126.163 289.052 129.564L289.507 130.107L290.216 130.1L320.616 129.8Z" fill="white" stroke="black" stroke-width="3"/>
<path d="M256.7 104.1C255.4 104.2 254.4 105.2 254.4 106.5C254.4 107.8 255.5 108.9 256.8 108.9C258.1 108.9 259.2 107.8 259.2 106.5C259.2 105.2 258.1 104.1 256.7 104.1L259.6 103.1C263.9 103.1 267.3 106.6 267.3 110.8C267.3 115 263.8 118.5 259.6 118.5C255.4 118.5 251.9 115 251.9 110.8C251.9 106.6 255.4 103.1 259.6 103.1" fill="black"/>
<path d="M311.7 104.1C310.4 104.2 309.4 105.2 309.4 106.5C309.4 107.8 310.5 108.9 311.8 108.9C313.1 108.9 314.2 107.8 314.2 106.5C314.2 105.2 313.1 104.1 311.8 104.1H311.7L314.6 103.1C318.9 103.1 322.3 106.6 322.3 110.8C322.3 115 318.8 118.5 314.6 118.5C310.4 118.5 306.9 115 306.9 110.8C306.9 106.6 310.4 103.1 314.6 103.1" fill="black"/>
<path d="M246.101 158.4H310.501C295.101 222.2 285.401 263.8 285.401 309.4C285.401 317.4 282.001 345.4 301.701 357.9C311.601 364.2 331.001 368 331.001 358.3C331.001 355.5 331.001 354.3 327.001 345.8C311.601 306.5 311.601 257.5 311.601 253.5C311.601 250.1 311.601 209.6 323.601 158.4H387.401C394.801 158.4 413.601 158.4 413.601 140.2C413.601 127.7 402.801 127.7 392.501 127.7H205.101C192.001 127.7 192.201 129.1 167.101 115.2C147.701 104.5 155.301 91.1 140.601 91.5C133.601 91.7 125.401 108 130.301 118.7C140.001 139.6 169.901 151.2 174.101 152.6C189.401 157.5 191.701 158.1 200.501 158.5H233.001C220.501 201.2 206.201 250.8 159.501 350.5C154.901 359.6 154.901 360.8 154.901 364.2C154.901 376.2 165.201 379 170.301 379C186.801 379 191.401 364.2 198.201 340.3C207.301 311.2 207.301 310.1 213.001 287.3L246.101 158.4Z" fill="#0C7F99"/>
<path d="M243.901 151.4C246.701 151.4 244.901 151.5 250.701 151.4C255.901 151.3 256.901 151.3 258.601 151.2L258.501 148.1C256.701 148.2 253.801 148.3 251.101 148.3C249.201 148.3 246.801 148.3 243.801 148.3" fill="black"/>
</svg>
