<svg width="480" height="480" viewBox="0 0 480 480" fill="none" xmlns="http://www.w3.org/2000/svg">
<path d="M246.814 138.6L247.56 138.593L248.004 137.994C250.493 134.64 251.999 130.327 251.999 125.8C251.999 114.482 242.836 105.196 231.392 105.3C220.067 105.304 210.899 114.474 210.899 125.8C210.899 130.41 212.397 134.963 215.25 138.364L215.706 138.907L216.414 138.9L246.814 138.6Z" fill="white" stroke="black" stroke-width="3"/>
<path d="M301.814 138.6L302.56 138.593L303.004 137.994C305.493 134.64 306.999 130.327 306.999 125.8C306.999 114.482 297.836 105.196 286.392 105.3C275.067 105.304 265.899 114.474 265.899 125.8C265.899 130.41 267.397 134.963 270.25 138.364L270.706 138.907L271.414 138.9L301.814 138.6Z" fill="white" stroke="black" stroke-width="3"/>
<path d="M237.9 112.9C236.6 113 235.6 114 235.6 115.3C235.6 116.6 236.7 117.7 238 117.7C239.3 117.7 240.4 116.6 240.4 115.3C240.4 114 239.3 112.9 237.9 112.9L240.8 111.9C245.1 111.9 248.5 115.4 248.5 119.6C248.5 123.8 245 127.3 240.8 127.3C236.6 127.3 233.1 123.8 233.1 119.6C233.1 115.4 236.6 111.9 240.8 111.9" fill="black"/>
<path d="M292.9 112.9C291.6 113 290.6 114 290.6 115.3C290.6 116.6 291.7 117.7 293 117.7C294.3 117.7 295.4 116.6 295.4 115.3C295.4 114 294.3 112.9 293 112.9H292.9L295.8 111.9C300.1 111.9 303.5 115.4 303.5 119.6C303.5 123.8 300 127.3 295.8 127.3C291.6 127.3 288.1 123.8 288.1 119.6C288.1 115.4 291.6 111.9 295.8 111.9" fill="black"/>
<path d="M227.3 167.2H291.7C276.3 231 266.6 272.6 266.6 318.2C266.6 326.2 263.2 354.2 282.9 366.7C292.8 373 312.2 376.8 312.2 367.1C312.2 364.3 312.2 363.1 308.2 354.6C292.8 315.3 292.8 266.3 292.8 262.3C292.8 258.9 292.8 218.4 304.8 167.2H368.6C376 167.2 394.8 167.2 394.8 149C394.8 136.5 384 136.5 373.7 136.5H186.3C173.2 136.5 162.3 135.9 147.4 123.8C133.3 112.1 136.5 99.9 121.8 100.3C114.8 100.5 114.4 113.7 119.3 124.4C129 145.3 151.1 160 155.3 161.4C170.6 166.3 172.9 166.9 181.7 167.3H214.2C201.7 210 187.4 259.6 140.7 359.3C136.1 368.4 136.1 369.6 136.1 373C136.1 385 146.4 387.8 151.5 387.8C168 387.8 172.6 373 179.4 349.1C188.5 320 188.5 318.9 194.2 296.1L227.3 167.2Z" fill="#0C7F99"/>
<path d="M241.6 155.5C244.1 157.1 250.2 159.2 256 159.1C261.2 159 268.8 157.4 271.1 156.2L271.3 153C265.8 155.4 258.2 156.1 255.8 156.1C253.9 156.1 245.3 154.3 241.7 152.6" fill="black"/>
</svg>
