<?xml version="1.0" encoding="utf-8"?>
<!-- Generator: Adobe Illustrator 25.2.3, SVG Export Plug-In . SVG Version: 6.00 Build 0)  -->
<svg version="1.1" id="Layer_1" xmlns="http://www.w3.org/2000/svg" xmlns:xlink="http://www.w3.org/1999/xlink" x="0px" y="0px"
	 viewBox="0 0 1920 1080" style="enable-background:new 0 0 1920 1080;" xml:space="preserve">
<style type="text/css">
	.st0{opacity:0.6;}
	.st1{fill:#005454;}
	.st2{opacity:0.44;}
	.st3{fill:#15E3FF;}
	.st4{opacity:0.49;}
	.st5{opacity:0.54;}
	.st6{fill:#FFFFFF;}
	.st7{opacity:0.5;fill:#FFF800;stroke:#000000;stroke-miterlimit:10;}
	.st8{fill:#FF5F5F;}
	.st9{fill:#8CFF61;}
	.st10{fill:#FFF800;stroke:#000000;stroke-miterlimit:10;}
</style>
<rect width="1919" height="1079"/>
<g id="grid" class="st0">
	<g>
		<rect x="0.5" y="0.5" width="1919" height="1079"/>
		<path d="M1919,1v1078H1V1H1919 M1920,0H0v1080h1920V0L1920,0z"/>
	</g>
	<g>
		<rect x="1.3" y="68.9" class="st1" width="1915.9" height="1.4"/>
	</g>
	<g>
		<rect x="1.3" y="201.9" class="st1" width="1915.9" height="1.4"/>
	</g>
	<g>
		<rect x="3.1" y="338.9" class="st1" width="1915.9" height="1.4"/>
	</g>
	<g>
		<rect x="2.2" y="475.9" class="st1" width="1915.9" height="1.4"/>
	</g>
	<g>
		<rect y="614.9" class="st1" width="1915.9" height="1.4"/>
	</g>
	<g>
		<rect y="750.9" class="st1" width="1915.9" height="1.4"/>
	</g>
	<g>
		<rect x="1.8" y="886.9" class="st1" width="1915.9" height="1.4"/>
	</g>
	<g>
		<rect x="0.9" y="1021.9" class="st1" width="1915.9" height="1.4"/>
	</g>
	<g>
		<rect x="84" y="-0.2" class="st1" width="1.4" height="1080"/>
	</g>
	<g>
		<rect x="220" y="-0.2" class="st1" width="1.4" height="1080"/>
	</g>
	<g>
		<rect x="351" y="-1.2" class="st1" width="1.4" height="1080"/>
	</g>
	<g>
		<rect x="483" y="-0.7" class="st1" width="1.4" height="1080"/>
	</g>
	<g>
		<rect x="616" y="-0.7" class="st1" width="1.4" height="1080"/>
	</g>
	<g>
		<rect x="753" y="-1.7" class="st1" width="1.4" height="1080"/>
	</g>
	<g>
		<rect x="890" y="-1.2" class="st1" width="1.4" height="1080"/>
	</g>
	<g>
		<rect x="1029" y="0.1" class="st1" width="1.4" height="1080"/>
	</g>
	<g>
		<rect x="1165" y="0.1" class="st1" width="1.4" height="1080"/>
	</g>
	<g>
		<rect x="1301" y="-0.9" class="st1" width="1.4" height="1080"/>
	</g>
	<g>
		<rect x="1436" y="-0.4" class="st1" width="1.4" height="1080"/>
	</g>
	<g>
		<rect x="1572" y="-0.4" class="st1" width="1.4" height="1080"/>
	</g>
	<g>
		<rect x="1698" y="-1.4" class="st1" width="1.4" height="1080"/>
	</g>
	<g>
		<rect x="1835" y="-0.9" class="st1" width="1.4" height="1080"/>
	</g>
	<g class="st2">
		<rect x="1098" class="st3" width="1.4" height="1080"/>
	</g>
	<g class="st2">
		<rect x="1232.2" class="st3" width="2.8" height="1080"/>
	</g>
	<g class="st2">
		<rect x="1367.8" class="st3" width="1.4" height="1080"/>
	</g>
	<g class="st2">
		<rect x="1502" class="st3" width="2.8" height="1080"/>
	</g>
	<g class="st2">
		<rect x="1630.7" y="1" class="st3" width="1.4" height="1080"/>
	</g>
	<g class="st2">
		<rect x="1764.9" y="1" class="st3" width="2.8" height="1080"/>
	</g>
	<g class="st2">
		<rect x="1904.6" class="st3" width="1.4" height="1080"/>
	</g>
	<g class="st2">
		<rect x="817.6" y="0.6" class="st3" width="1.4" height="1080"/>
	</g>
	<g class="st2">
		<rect x="682.8" y="0.6" class="st3" width="2.8" height="1080"/>
	</g>
	<g class="st2">
		<rect x="549.3" y="0.6" class="st3" width="1.4" height="1080"/>
	</g>
	<g class="st2">
		<rect x="414.5" y="0.6" class="st3" width="2.8" height="1080"/>
	</g>
	<g class="st2">
		<rect x="288" y="-0.4" class="st3" width="1.4" height="1080"/>
	</g>
	<g class="st2">
		<rect x="153.1" y="-0.4" class="st3" width="2.8" height="1080"/>
	</g>
	<g class="st2">
		<rect x="15.6" y="0.6" class="st3" width="1.4" height="1080"/>
	</g>
	<g class="st4">
		<rect x="1" y="684.8" class="st3" width="1919" height="1.4"/>
	</g>
	<g class="st4">
		<rect x="1" y="819" class="st3" width="1919" height="2.8"/>
	</g>
	<g class="st4">
		<rect x="1" y="954.6" class="st3" width="1919" height="1.4"/>
	</g>
	<g class="st4">
		<rect y="404.4" class="st3" width="1919" height="1.4"/>
	</g>
	<g class="st4">
		<rect y="269.6" class="st3" width="1919" height="2.8"/>
	</g>
	<g class="st4">
		<rect y="136.1" class="st3" width="1919" height="1.4"/>
	</g>
	<g class="st5">
		<rect x="959" class="st6" width="3" height="1080"/>
	</g>
	<g class="st5">
		<rect y="541.9" class="st6" width="1920" height="4.1"/>
	</g>
</g>
<rect x="1010.4" y="492.4" transform="matrix(-1.836970e-16 1 -1 -1.836970e-16 1558.2584 -469.0635)" class="st7" width="6.4" height="104.4"/>
<polygon class="st7" points="1099.3,542.7 1065.8,523.4 1065.8,562.1 "/>
<rect x="958.9" y="436.3" transform="matrix(1 1.284633e-03 -1.284633e-03 1 0.6331 -1.2355)" class="st7" width="6.4" height="111.8"/>
<polygon class="st7" points="961.8,406.5 942.4,440 981.1,440 "/>
<g>
	<path class="st8" d="M867.3,419.9c0-0.9,0-1.6,0.1-1.8c0.1-0.3,0.3-0.6,0.7-1.1l14.9-16.8c5.5-6.2,8.3-12,8.3-17.4
		c0-3.5-0.9-6.5-2.7-9s-4.4-3.7-7.8-3.7c-2.3,0-4.4,0.7-6.3,2.1c-1.9,1.4-3.3,3.3-4.2,5.8c0.1-0.1,0.5-0.1,1-0.1
		c1.3,0,2.3,0.4,3,1.2c0.7,0.8,1.1,1.8,1.1,2.9c0,1.4-0.4,2.5-1.3,3.2c-0.9,0.7-1.8,1-2.7,1c-0.4,0-0.8,0-1.2-0.1
		c-0.5-0.1-1.1-0.5-1.8-1.2c-0.7-0.7-1.1-1.8-1.1-3.1c0-3.6,1.4-6.9,4.1-9.8c2.7-2.9,6.2-4.4,10.4-4.4c4.8,0,8.7,1.4,11.8,4.3
		c3.1,2.8,4.7,6.5,4.7,10.9c0,1.6-0.2,3.1-0.7,4.5s-1,2.7-1.6,3.8c-0.6,1.1-1.8,2.5-3.4,4.3s-3.2,3.3-4.5,4.5
		c-1.3,1.3-3.5,3.2-6.5,5.9l-8.3,8.1h14c4.6,0,7-0.2,7.4-0.6c0.5-0.7,1.1-3.1,1.7-7h2l-2.2,13.6H867.3z"/>
	<path class="st8" d="M899.9,431.5c0-1.4,0.4-2.4,1.3-3.1c0.8-0.7,1.7-1.1,2.6-1.1c0.9,0,1.6,0.3,2.1,0.8c0.4,0.5,0.7,1.1,0.7,1.7
		c0,0.3-0.1,0.6-0.2,1c-0.1,0.4-0.4,0.9-0.9,1.5c-0.5,0.6-1.1,1-1.9,1.3c0.9,0.5,1.8,0.7,2.6,0.7c2.2,0,4.1-1.1,5.7-3.2
		c1.6-2.1,2.7-4.5,3.3-7.1l7.4-29.9c0.3-1.5,0.5-2.8,0.5-4c0-2.1-0.7-3.1-2.2-3.1c-3.5,0-6.6,3.3-9.2,9.8c-0.1,0.5-0.3,0.8-0.4,0.9
		c-0.1,0.2-0.2,0.3-0.4,0.3c-0.1,0.1-0.4,0.1-0.7,0.1c-0.8,0-1.2-0.3-1.2-0.8c0-0.2,0.2-0.6,0.5-1.4c0.3-0.8,0.8-1.8,1.5-3
		c0.7-1.2,1.5-2.4,2.4-3.5c0.9-1.1,2-2.1,3.4-2.9c1.3-0.8,2.7-1.2,4.2-1.2c2.1,0,3.8,0.7,5,2.1s1.8,3,1.8,5c0,0.9-0.2,1.8-0.5,2.6
		l-7.3,29.4c-0.8,3.3-2.6,6.1-5.3,8.4c-2.7,2.3-5.6,3.4-8.6,3.4c-1.8,0-3.3-0.4-4.5-1.2S899.9,432.9,899.9,431.5z M924.1,372.2
		c0-0.9,0.4-1.8,1.2-2.6c0.8-0.8,1.7-1.2,2.7-1.2c0.6,0,1.3,0.2,1.8,0.6c0.6,0.4,0.9,1.1,0.9,2.1c0,0.9-0.4,1.8-1.2,2.5
		c-0.8,0.8-1.7,1.1-2.6,1.1c-0.9,0-1.6-0.3-2-0.8S924.1,372.8,924.1,372.2z"/>
</g>
<g>
	<path class="st9" d="M502.1,602.6V600h39.2v2.7H502.1z"/>
	<path class="st9" d="M544.9,609.8c0-1.6,0.5-2.8,1.4-3.4c0.9-0.6,1.8-1,2.8-1c1.1,0,2,0.4,2.7,1.2c0.7,0.8,1,1.7,1,2.9
		s-0.3,2.1-1,2.9s-1.6,1.2-2.7,1.2c-0.6,0-1.1-0.1-1.4-0.2c0.7,2.4,2.1,4.5,4.2,6.2c2.1,1.7,4.5,2.6,7.3,2.6c3.5,0,6.3-1.7,8.4-5.2
		c1.3-2.2,1.9-5.9,1.9-11c0-4.3-0.5-7.5-1.4-9.6c-1.5-3.3-3.7-4.9-6.7-4.9c-4.2,0-7.6,1.8-10.1,5.3c-0.3,0.4-0.6,0.7-0.9,0.7
		c-0.5,0-0.7-0.1-0.8-0.4c-0.1-0.3-0.2-0.8-0.2-1.6v-23.1c0-1.2,0.3-1.9,0.8-1.9c0.2,0,0.5,0.1,1,0.2c3.3,1,6.8,1.6,10.4,1.6
		c3.8,0,7.3-0.8,10.7-2.3c0.3-0.2,0.5-0.2,0.6-0.2c0.5,0,0.8,0.3,0.8,0.9c0,0.2-0.2,0.6-0.6,1.2c-0.4,0.6-1.1,1.4-2,2.2
		s-1.9,1.7-3.1,2.5c-1.2,0.8-2.6,1.5-4.3,2.1c-1.7,0.6-3.5,0.8-5.3,0.8c-2.2,0-4.5-0.3-6.7-1v15.2c2.7-2.6,6-3.9,10-3.9
		c4.2,0,7.7,1.7,10.6,5c2.9,3.3,4.3,7.3,4.3,11.9c0,5-1.7,9.3-5.1,12.7c-3.4,3.4-7.4,5.2-12,5.2c-4.2,0-7.7-1.5-10.3-4.5
		C546.3,616.8,544.9,613.5,544.9,609.8z"/>
	<path class="st9" d="M587.1,600c0-0.2,0.1-0.6,0.3-1.4c0.2-0.8,0.6-1.8,1.1-3c0.5-1.2,1.2-2.4,1.9-3.5c0.7-1.1,1.7-2.1,2.9-2.9
		s2.5-1.2,3.8-1.2c1.6,0,3,0.5,4.2,1.6s1.8,2.6,1.8,4.7c0,1.1-0.4,2.5-1.1,4.3l-5,13.5c-1.3,3.9-2,6.4-2,7.6c0,1.5,0.6,2.2,1.7,2.2
		c3.1,0,5.5-3.3,7.3-9.8c0.2-0.6,0.3-1,0.4-1.1c0.1-0.1,0.4-0.2,0.9-0.2c0.8,0,1.2,0.3,1.2,0.8c0,0.2-0.1,0.6-0.3,1.4
		c-0.2,0.8-0.6,1.8-1.1,3c-0.5,1.2-1.1,2.4-1.9,3.6c-0.7,1.1-1.7,2.1-2.9,3c-1.2,0.8-2.5,1.2-3.8,1.2c-1.9,0-3.4-0.6-4.4-1.9
		c-1-1.3-1.5-2.7-1.5-4.4c0-1.1,0.5-2.9,1.4-5.5c1.3-3.4,2.2-6,2.9-7.7l2.3-6.5c0.9-2.6,1.4-4.4,1.4-5.7c0-1.5-0.6-2.2-1.7-2.2
		c-3.1,0-5.5,3.3-7.3,9.9c-0.2,0.6-0.3,0.9-0.5,1.1c-0.2,0.1-0.5,0.2-0.9,0.2C587.5,600.8,587.1,600.5,587.1,600z M599.8,574.9
		c0-1,0.4-1.9,1.2-2.7c0.8-0.7,1.7-1.1,2.6-1.1c0.7,0,1.3,0.2,1.9,0.6c0.6,0.4,0.8,1.1,0.8,2c0,1-0.4,1.9-1.3,2.7
		c-0.8,0.7-1.7,1.1-2.6,1.1c-0.7,0-1.3-0.2-1.9-0.6C600,576.5,599.8,575.8,599.8,574.9z"/>
</g>
<g>
	<path class="st9" d="M589.7,567.4l14.7-11.3l14.8,11.3l-1.2,1.6l-13.6-8.8l-13.5,8.8L589.7,567.4z"/>
</g>
<g>
	<g>
		<path class="st8" d="M912.4,360.8l14.7-11.3l14.8,11.3l-1.2,1.6l-13.6-8.8l-13.5,8.8L912.4,360.8z"/>
	</g>
</g>
<g>
	<path class="st9" d="M1048.8,105.6c0-0.1,0.1-0.5,0.2-1.1c0.2-0.6,0.4-1.4,0.9-2.4c0.4-1,0.9-1.9,1.5-2.8c0.6-0.9,1.3-1.6,2.3-2.3
		s1.9-0.9,3-0.9c1.3,0,2.4,0.4,3.3,1.3c0.9,0.8,1.4,2.1,1.4,3.7c0,0.9-0.3,2-0.9,3.4l-3.9,10.5c-1,3.1-1.5,5-1.5,5.9
		c0,1.1,0.5,1.7,1.4,1.7c2.4,0,4.3-2.6,5.7-7.7c0.1-0.5,0.2-0.8,0.3-0.9c0.1-0.1,0.3-0.1,0.7-0.1c0.6,0,0.9,0.2,0.9,0.6
		c0,0.1-0.1,0.5-0.2,1.1c-0.2,0.6-0.4,1.4-0.9,2.3c-0.4,1-0.9,1.9-1.5,2.8s-1.3,1.7-2.3,2.3c-0.9,0.6-1.9,1-3,1
		c-1.5,0-2.7-0.5-3.5-1.5c-0.8-1-1.2-2.1-1.2-3.4c0-0.8,0.4-2.3,1.1-4.3c1-2.7,1.7-4.7,2.3-6.1l1.8-5.1c0.7-2,1.1-3.5,1.1-4.4
		c0-1.1-0.5-1.7-1.4-1.7c-2.4,0-4.3,2.6-5.7,7.8c-0.1,0.5-0.2,0.7-0.4,0.8c-0.1,0.1-0.4,0.1-0.7,0.1
		C1049.1,106.2,1048.8,106,1048.8,105.6z M1058.7,85.9c0-0.8,0.3-1.5,1-2.1c0.6-0.6,1.3-0.9,2-0.9c0.6,0,1.1,0.2,1.5,0.5
		c0.4,0.3,0.7,0.8,0.7,1.5c0,0.8-0.3,1.5-1,2.1c-0.7,0.6-1.3,0.9-2.1,0.9c-0.6,0-1-0.2-1.5-0.5C1058.9,87.1,1058.7,86.6,1058.7,85.9
		z"/>
</g>
<g>
	<path class="st9" d="M1048,77l11.5-8.9l11.6,8.9l-0.9,1.3l-10.6-6.9l-10.6,6.9L1048,77z"/>
</g>
<g>
	<path class="st8" d="M1208.6,135.5c0-1.1,0.3-1.9,1-2.4c0.7-0.6,1.3-0.8,2-0.8c0.7,0,1.3,0.2,1.6,0.6c0.3,0.4,0.5,0.9,0.5,1.4
		c0,0.2,0,0.5-0.1,0.8s-0.3,0.7-0.7,1.2c-0.4,0.5-0.9,0.8-1.5,1c0.7,0.4,1.4,0.6,2.1,0.6c1.7,0,3.2-0.8,4.4-2.5
		c1.2-1.7,2.1-3.5,2.6-5.6l5.8-23.4c0.3-1.1,0.4-2.2,0.4-3.1c0-1.6-0.6-2.5-1.7-2.5c-2.8,0-5.2,2.6-7.2,7.7
		c-0.1,0.4-0.2,0.6-0.3,0.7c-0.1,0.1-0.2,0.2-0.3,0.3c-0.1,0-0.3,0.1-0.6,0.1c-0.6,0-0.9-0.2-0.9-0.6c0-0.1,0.1-0.5,0.4-1.1
		c0.2-0.6,0.6-1.4,1.2-2.4c0.5-1,1.1-1.9,1.9-2.7c0.7-0.9,1.6-1.6,2.6-2.3s2.1-0.9,3.3-0.9c1.7,0,3,0.5,3.9,1.6
		c1,1.1,1.4,2.4,1.4,3.9c0,0.7-0.1,1.4-0.4,2l-5.7,23c-0.7,2.6-2,4.8-4.2,6.5c-2.1,1.8-4.4,2.7-6.7,2.7c-1.4,0-2.6-0.3-3.5-1
		S1208.6,136.6,1208.6,135.5z M1227.6,89c0-0.7,0.3-1.4,0.9-2c0.6-0.6,1.3-0.9,2.1-0.9c0.5,0,1,0.2,1.4,0.5c0.4,0.3,0.7,0.8,0.7,1.6
		c0,0.7-0.3,1.4-0.9,2c-0.6,0.6-1.3,0.9-2.1,0.9c-0.7,0-1.2-0.2-1.6-0.6C1227.8,90,1227.6,89.5,1227.6,89z"/>
</g>
<g>
	<g>
		<path class="st8" d="M1216.6,80.1l11.5-8.9l11.6,8.9l-0.9,1.3l-10.6-6.9l-10.6,6.9L1216.6,80.1z"/>
	</g>
</g>
<g>
	<path class="st6" d="M1094.6,117.4c0-3.5,2.1-6.2,6.3-8c2.5-1.2,6.4-1.9,11.5-2.2v-2.2c0-2.5-0.7-4.5-2.1-5.8c-1.4-1.3-3-2-4.8-2
		c-3,0-5.3,1-6.7,2.9c1.2,0,2,0.4,2.4,1c0.4,0.6,0.6,1.2,0.6,1.8c0,0.8-0.2,1.5-0.7,2c-0.5,0.5-1.2,0.8-2,0.8c-0.8,0-1.4-0.3-2-0.8
		c-0.5-0.5-0.8-1.2-0.8-2.1c0-2,0.9-3.7,2.7-5c1.8-1.3,4-2,6.6-2c3.5,0,6.4,1.1,8.7,3.4c0.7,0.7,1.3,1.5,1.6,2.4
		c0.4,0.9,0.6,1.6,0.6,2.2s0.1,1.5,0.1,2.6v12.3c0,0.2,0,0.6,0.1,1c0.1,0.4,0.3,0.9,0.7,1.4c0.4,0.5,0.9,0.8,1.5,0.8
		c1.5,0,2.2-1.3,2.2-3.9v-3.4h1.5v3.5c0,2.2-0.6,3.7-1.7,4.6c-1.1,0.9-2.2,1.3-3.3,1.3c-1.4,0-2.5-0.5-3.3-1.5
		c-0.9-1-1.3-2.2-1.5-3.6c-0.7,1.6-1.7,2.9-3.2,3.9c-1.5,1-3.2,1.5-5.3,1.5c-1.5,0-2.9-0.2-4.3-0.6c-1.4-0.4-2.6-1.1-3.8-2.1
		S1094.6,119,1094.6,117.4z M1099.7,117.4c0,1.5,0.5,2.8,1.5,3.8c1,1,2.2,1.5,3.6,1.5c1.8,0,3.5-0.7,5.2-2c1.6-1.3,2.4-3.3,2.4-5.9
		v-6.2c-4.5,0.2-7.8,1.1-9.8,3C1100.7,113.3,1099.7,115.2,1099.7,117.4z"/>
	<path class="st6" d="M1124.8,123.3v-1.9c2.2,0,3.5-0.1,4.1-0.4c0.5-0.3,0.8-1.1,0.8-2.4v-16.5c0-1.5-0.3-2.5-0.8-2.9
		c-0.5-0.4-1.9-0.6-4-0.6v-1.9l8.7-0.7l0,6.5c1.9-4.3,5-6.5,9.1-6.5c3.1,0,5.2,0.8,6.5,2.3c0.9,1,1.4,2.1,1.6,3.2
		c0.2,1.1,0.3,3.2,0.3,6.2v11.7c0,0.9,0.4,1.4,1.1,1.6s1.9,0.3,3.8,0.3v1.9c-4.2-0.1-6.5-0.2-6.9-0.2c-0.3,0-2.6,0.1-6.9,0.2v-1.9
		c2.2,0,3.5-0.1,4-0.4c0.5-0.3,0.8-1.1,0.8-2.4v-14.3c0-2.1-0.3-3.7-1-5c-0.6-1.2-1.8-1.8-3.6-1.8c-2.1,0-4,0.9-5.8,2.7
		c-1.7,1.8-2.6,4.2-2.6,7.2v11.3c0,1.3,0.3,2.1,0.8,2.4c0.5,0.3,1.9,0.4,4,0.4v1.9c-4.2-0.1-6.5-0.2-6.9-0.2
		C1131.4,123.1,1129.1,123.2,1124.8,123.3z"/>
	<path class="st6" d="M1159.1,110.1c0-3.9,1.4-7.2,4.1-9.9c2.7-2.7,5.9-4.1,9.6-4.1c3.1,0,5.7,1.3,7.8,3.8V86.6
		c0-1.5-0.3-2.5-0.8-2.9c-0.5-0.4-1.9-0.6-4-0.6v-1.9l8.9-0.7v37.3c0,1.5,0.3,2.5,0.8,2.9c0.5,0.4,1.9,0.6,4,0.6v1.9l-9,0.7v-4.1
		c-2.1,2.7-4.9,4.1-8.2,4.1c-3.5,0-6.6-1.4-9.2-4.1C1160.4,117.2,1159.1,113.9,1159.1,110.1z M1164.2,110.1c0,3.8,0.6,6.7,1.8,8.6
		c1.6,2.6,3.8,4,6.5,4c3,0,5.5-1.4,7.3-4.3c0.5-0.7,0.7-1.5,0.7-2.3v-12.6c0-0.8-0.2-1.6-0.7-2.3c-1.7-2.5-3.9-3.7-6.6-3.7
		c-2.9,0-5.2,1.3-7,3.9C1164.8,103.3,1164.2,106.3,1164.2,110.1z"/>
	<path class="st6" d="M1255.1,117.4c0-3.5,2.1-6.2,6.3-8c2.5-1.2,6.4-1.9,11.5-2.2v-2.2c0-2.5-0.7-4.5-2.1-5.8c-1.4-1.3-3-2-4.8-2
		c-3,0-5.3,1-6.7,2.9c1.2,0,2,0.4,2.4,1c0.4,0.6,0.6,1.2,0.6,1.8c0,0.8-0.2,1.5-0.7,2c-0.5,0.5-1.2,0.8-2,0.8c-0.8,0-1.4-0.3-2-0.8
		c-0.5-0.5-0.8-1.2-0.8-2.1c0-2,0.9-3.7,2.7-5c1.8-1.3,4-2,6.6-2c3.5,0,6.4,1.1,8.7,3.4c0.7,0.7,1.3,1.5,1.6,2.4
		c0.4,0.9,0.6,1.6,0.6,2.2s0.1,1.5,0.1,2.6v12.3c0,0.2,0,0.6,0.1,1c0.1,0.4,0.3,0.9,0.7,1.4c0.4,0.5,0.9,0.8,1.5,0.8
		c1.5,0,2.2-1.3,2.2-3.9v-3.4h1.5v3.5c0,2.2-0.6,3.7-1.7,4.6c-1.1,0.9-2.2,1.3-3.3,1.3c-1.4,0-2.5-0.5-3.3-1.5
		c-0.9-1-1.3-2.2-1.5-3.6c-0.7,1.6-1.7,2.9-3.2,3.9c-1.5,1-3.2,1.5-5.3,1.5c-1.5,0-2.9-0.2-4.3-0.6c-1.4-0.4-2.6-1.1-3.8-2.1
		S1255.1,119,1255.1,117.4z M1260.2,117.4c0,1.5,0.5,2.8,1.5,3.8c1,1,2.2,1.5,3.6,1.5c1.8,0,3.5-0.7,5.2-2c1.6-1.3,2.4-3.3,2.4-5.9
		v-6.2c-4.5,0.2-7.8,1.1-9.8,3C1261.2,113.3,1260.2,115.2,1260.2,117.4z"/>
	<path class="st6" d="M1285,123.3v-1.9c2.2,0,3.5-0.1,4-0.4c0.5-0.3,0.8-1.1,0.8-2.4v-16.5c0-1.5-0.3-2.5-0.8-2.9
		c-0.5-0.4-1.9-0.6-4-0.6v-1.9l8.6-0.7v6.8c0.6-1.8,1.5-3.3,2.7-4.7c1.2-1.4,2.8-2.1,4.9-2.1c1.3,0,2.4,0.4,3.3,1.1
		c0.9,0.7,1.3,1.6,1.3,2.6c0,0.9-0.3,1.6-0.8,2s-1.2,0.7-1.8,0.7c-0.7,0-1.4-0.2-1.9-0.7c-0.5-0.5-0.8-1.1-0.8-1.9
		c0-0.5,0.1-0.9,0.3-1.3c0.2-0.4,0.4-0.7,0.6-0.8c0.2-0.1,0.3-0.2,0.5-0.3c-0.1,0-0.3-0.1-0.7-0.1c-2.3,0-4,1.1-5.3,3.4
		c-1.3,2.3-1.9,5-1.9,8.2v9.5c0,1.2,0.2,2,0.7,2.3c0.5,0.4,1.8,0.6,4,0.6h1.3v1.9c-1.6-0.1-4.2-0.2-7.8-0.2c-0.5,0-1.1,0-1.9,0
		c-0.8,0-1.7,0.1-2.7,0.1C1286.3,123.3,1285.5,123.3,1285,123.3z"/>
	<path class="st6" d="M1309,109.7c0-3.9,1.2-7.2,3.7-9.9s5.5-4.1,9.1-4.1c3.6,0,6.3,1.2,8.2,3.5s2.8,5.2,2.8,8.5
		c0,0.6-0.1,1-0.2,1.2c-0.2,0.1-0.6,0.2-1.3,0.2h-17.2c0,4.2,0.6,7.3,1.9,9.2c1.7,2.8,4,4.1,6.9,4.1c0.4,0,0.8,0,1.3-0.1
		c0.5-0.1,1.2-0.3,2.2-0.6c1-0.4,1.9-1,2.8-1.9c0.9-0.9,1.6-2.2,2.1-3.6c0.1-0.6,0.4-0.9,0.8-0.8c0.5,0,0.8,0.2,0.8,0.7
		c0,0.4-0.2,0.9-0.6,1.8s-1,1.7-1.7,2.7c-0.7,1-1.8,1.8-3.3,2.5c-1.4,0.7-3,1.1-4.7,1.1c-3.6,0-6.8-1.4-9.5-4.1
		C1310.4,117.2,1309,113.8,1309,109.7z M1314.2,107.7h14.6c0-0.9-0.1-1.8-0.2-2.7c-0.2-1-0.4-2.1-0.9-3.4c-0.4-1.3-1.1-2.4-2.1-3.3
		c-1-0.8-2.2-1.3-3.7-1.3c-0.7,0-1.3,0.1-2.1,0.4s-1.5,0.8-2.4,1.4c-0.9,0.7-1.6,1.8-2.2,3.3
		C1314.6,103.8,1314.2,105.6,1314.2,107.7z"/>
	<path class="st6" d="M1356.2,98.7v-1.4c1.9-0.1,3.5-0.8,4.7-2.1c1.3-1.3,2.1-2.8,2.5-4.5s0.7-3.4,0.7-5.3h1.5v11.3h8.8v1.9h-8.8
		v17.1c0,4.4,1.4,6.6,4.1,6.6c1.2,0,2.2-0.6,2.9-1.8c0.8-1.2,1.2-2.9,1.2-5.1v-3.4h1.5v3.5c0,2.2-0.5,4.2-1.5,5.8s-2.5,2.5-4.6,2.5
		c-0.7,0-1.5-0.1-2.2-0.3c-0.7-0.2-1.6-0.5-2.5-1c-1-0.5-1.7-1.3-2.3-2.6c-0.6-1.2-0.9-2.7-0.9-4.5v-17H1356.2z"/>
	<path class="st6" d="M1380.9,123.3v-1.9c2.2,0,3.5-0.1,4-0.4c0.5-0.3,0.8-1.1,0.8-2.4v-32c0-1.5-0.3-2.5-0.8-2.9
		c-0.5-0.4-1.9-0.6-4-0.6v-1.9l8.8-0.7V102h0.1c0.7-1.5,1.7-2.8,3.2-4.1s3.4-1.8,5.6-1.8c3.1,0,5.2,0.8,6.5,2.3
		c0.9,1,1.4,2.1,1.6,3.2c0.2,1.1,0.3,3.2,0.3,6.2v11.7c0,0.9,0.4,1.4,1.1,1.6s1.9,0.3,3.8,0.3v1.9c-4.2-0.1-6.5-0.2-6.9-0.2
		c-0.3,0-2.6,0.1-6.9,0.2v-1.9c2.2,0,3.5-0.1,4-0.4c0.5-0.3,0.8-1.1,0.8-2.4v-14.3c0-2.1-0.3-3.7-1-5c-0.6-1.2-1.8-1.8-3.6-1.8
		c-2.1,0-4,0.9-5.7,2.7c-1.7,1.8-2.6,4.2-2.6,7.2v11.3c0,1.3,0.3,2.1,0.8,2.4c0.5,0.3,1.8,0.4,4,0.4v1.9c-4.2-0.1-6.5-0.2-6.9-0.2
		C1387.5,123.1,1385.2,123.2,1380.9,123.3z"/>
	<path class="st6" d="M1414.8,109.7c0-3.9,1.2-7.2,3.7-9.9s5.5-4.1,9.1-4.1c3.6,0,6.3,1.2,8.2,3.5s2.8,5.2,2.8,8.5
		c0,0.6-0.1,1-0.2,1.2c-0.2,0.1-0.6,0.2-1.3,0.2h-17.2c0,4.2,0.6,7.3,1.9,9.2c1.7,2.8,4,4.1,6.9,4.1c0.4,0,0.8,0,1.3-0.1
		c0.5-0.1,1.2-0.3,2.2-0.6c1-0.4,1.9-1,2.8-1.9c0.9-0.9,1.6-2.2,2.1-3.6c0.1-0.6,0.4-0.9,0.8-0.8c0.5,0,0.8,0.2,0.8,0.7
		c0,0.4-0.2,0.9-0.6,1.8s-1,1.7-1.7,2.7c-0.7,1-1.8,1.8-3.3,2.5c-1.4,0.7-3,1.1-4.7,1.1c-3.6,0-6.8-1.4-9.5-4.1
		C1416.1,117.2,1414.8,113.8,1414.8,109.7z M1419.9,107.7h14.6c0-0.9-0.1-1.8-0.2-2.7c-0.2-1-0.4-2.1-0.9-3.4
		c-0.4-1.3-1.1-2.4-2.1-3.3c-1-0.8-2.2-1.3-3.7-1.3c-0.7,0-1.3,0.1-2.1,0.4s-1.5,0.8-2.4,1.4c-0.9,0.7-1.6,1.8-2.2,3.3
		C1420.4,103.8,1420,105.6,1419.9,107.7z"/>
	<path class="st6" d="M1460.5,92.6c0-2,0.4-4,1.2-6s1.7-3.4,2.6-4.4c0.9-1,1.5-1.5,1.9-1.5c0.4,0,0.6,0.2,0.6,0.5c0,0.2,0,0.6,0,1.2
		c0,0.6,0,1.3,0,2.1s0,1.9,0,3.3c0,1.4,0,3,0,4.6c0,0.6,0,1.1,0,1.4c0.1-0.9,0.3-1.3,0.5-1.3c0.2,0,0.3,0.3,0.4,0.9
		c0.1,0.6,0.2,1.4,0.2,2.3c0,0.9-0.3,1.7-0.9,2.3c-0.6,0.6-1.4,0.9-2.3,0.9c-1.2,0-2.2-0.6-3-1.8S1460.5,94.6,1460.5,92.6z
		 M1478.4,92.6c0-2,0.4-4,1.2-6c0.8-1.9,1.6-3.4,2.5-4.4c0.9-1,1.5-1.5,2-1.5c0.4,0,0.6,0.2,0.6,0.6c0,0.2-0.3,0.6-0.8,1.2
		c-0.5,0.6-1.1,1.3-1.7,2.1c-0.6,0.8-1.2,1.9-1.7,3.3c-0.5,1.4-0.8,3-0.8,4.6c0,0.3,0,0.8,0.1,1.4c0.8-0.9,1.7-1.3,2.6-1.3
		c0.9,0,1.7,0.3,2.3,0.9c0.6,0.6,0.9,1.4,0.9,2.3c0,0.9-0.3,1.7-0.9,2.3c-0.6,0.6-1.4,0.9-2.3,0.9c-1.2,0-2.2-0.6-3-1.8
		C1478.8,96.1,1478.4,94.6,1478.4,92.6z"/>
	<path class="st6" d="M1483,83.2v-1.9l8.9-0.7v19.5c2.4-2.7,5.2-4,8.4-4c3.5,0,6.6,1.4,9.2,4.1c2.6,2.7,3.9,6,3.9,9.9
		c0,3.9-1.4,7.2-4.1,9.9c-2.7,2.7-5.9,4.1-9.7,4.1c-3.4,0-6.1-1.5-8.1-4.5c-1.4,2.5-2.2,3.8-2.2,3.8h-1.5V86.6
		c0-1.5-0.3-2.5-0.8-2.9C1486.5,83.4,1485.1,83.2,1483,83.2z M1492.1,116.3c0,0.9,0.3,1.7,0.9,2.6c1.6,2.5,3.8,3.7,6.4,3.7
		c0,0,0,0,0.1,0c2.9,0,5.2-1.3,7-3.9c1.3-2,1.9-4.9,1.9-8.7c0-3.8-0.6-6.7-1.8-8.6c-1.6-2.6-3.8-3.9-6.5-3.9c-3,0-5.4,1.3-7.3,3.9
		c-0.5,0.7-0.7,1.4-0.7,2.2V116.3z"/>
	<path class="st6" d="M1518,117.4c0-3.5,2.1-6.2,6.3-8c2.5-1.2,6.4-1.9,11.5-2.2v-2.2c0-2.5-0.7-4.5-2.1-5.8c-1.4-1.3-3-2-4.8-2
		c-3,0-5.3,1-6.7,2.9c1.2,0,2,0.4,2.4,1c0.4,0.6,0.6,1.2,0.6,1.8c0,0.8-0.2,1.5-0.7,2c-0.5,0.5-1.2,0.8-2,0.8c-0.8,0-1.4-0.3-2-0.8
		c-0.5-0.5-0.8-1.2-0.8-2.1c0-2,0.9-3.7,2.7-5c1.8-1.3,4-2,6.6-2c3.5,0,6.4,1.1,8.7,3.4c0.7,0.7,1.3,1.5,1.6,2.4
		c0.4,0.9,0.6,1.6,0.6,2.2s0.1,1.5,0.1,2.6v12.3c0,0.2,0,0.6,0.1,1c0.1,0.4,0.3,0.9,0.7,1.4c0.4,0.5,0.9,0.8,1.5,0.8
		c1.5,0,2.2-1.3,2.2-3.9v-3.4h1.5v3.5c0,2.2-0.6,3.7-1.7,4.6c-1.1,0.9-2.2,1.3-3.3,1.3c-1.4,0-2.5-0.5-3.3-1.5
		c-0.9-1-1.3-2.2-1.5-3.6c-0.7,1.6-1.7,2.9-3.2,3.9c-1.5,1-3.2,1.5-5.3,1.5c-1.5,0-2.9-0.2-4.3-0.6c-1.4-0.4-2.6-1.1-3.8-2.1
		S1518,119,1518,117.4z M1523.1,117.4c0,1.5,0.5,2.8,1.5,3.8c1,1,2.2,1.5,3.6,1.5c1.8,0,3.5-0.7,5.2-2c1.6-1.3,2.4-3.3,2.4-5.9v-6.2
		c-4.5,0.2-7.8,1.1-9.8,3C1524.1,113.3,1523.1,115.2,1523.1,117.4z"/>
	<path class="st6" d="M1548.2,122.5v-8.1c0-0.5,0-0.8,0-0.9c0-0.2,0.1-0.3,0.2-0.4c0.1-0.1,0.3-0.2,0.6-0.2c0.3,0,0.5,0.1,0.6,0.2
		c0.1,0.1,0.2,0.4,0.3,0.9c0.6,2.8,1.6,5,2.9,6.5s3.2,2.2,5.6,2.2c2.3,0,4-0.5,5.2-1.5c1.2-1,1.7-2.4,1.7-4.1c0-3-2.1-4.9-6.4-5.7
		c-2.5-0.5-4.2-0.9-5.2-1.2c-1-0.3-2-0.9-2.9-1.6c-1.8-1.4-2.6-3.2-2.6-5.2c0-2,0.8-3.8,2.3-5.3c1.6-1.5,4.1-2.3,7.5-2.3
		c2.3,0,4.2,0.6,5.8,1.7c0.5-0.4,0.8-0.7,1.1-1c0.6-0.5,1-0.8,1.3-0.8c0.4,0,0.6,0.1,0.6,0.3c0.1,0.2,0.1,0.6,0.1,1.2v6.2
		c0,0.5,0,0.8,0,0.9c0,0.2-0.1,0.3-0.2,0.4c-0.1,0.1-0.3,0.2-0.6,0.2c-0.5,0-0.8-0.2-0.8-0.6c-0.3-5-2.7-7.5-7.2-7.5
		c-2.4,0-4.2,0.5-5.3,1.4c-1.1,0.9-1.6,2-1.6,3.3c0,0.7,0.2,1.3,0.5,1.8c0.3,0.5,0.7,1,1.1,1.3c0.4,0.3,1,0.6,1.8,0.9
		c0.8,0.3,1.4,0.5,1.9,0.6c0.5,0.1,1.2,0.3,2.1,0.5c3.3,0.6,5.6,1.6,7,2.9c1.7,1.7,2.6,3.7,2.6,5.9c0,2.4-0.8,4.4-2.5,6.1
		c-1.6,1.6-4.1,2.5-7.4,2.5c-2.7,0-4.9-0.9-6.8-2.6c-0.2,0.2-0.4,0.5-0.6,0.7c-0.2,0.2-0.3,0.4-0.4,0.4c-0.1,0.1-0.1,0.1-0.1,0.2
		c0,0,0,0.1-0.1,0.1c-0.8,0.8-1.3,1.2-1.5,1.2c-0.3,0-0.5-0.1-0.6-0.3C1548.3,123.5,1548.2,123.1,1548.2,122.5z"/>
	<path class="st6" d="M1572.5,123.3v-1.9c2.2,0,3.5-0.1,4-0.4c0.5-0.3,0.8-1.1,0.8-2.4V102c0-1.5-0.3-2.5-0.8-2.8
		c-0.5-0.4-1.8-0.5-3.8-0.5v-1.9l8.6-0.7v22.5c0,1.2,0.2,2,0.7,2.3c0.4,0.3,1.7,0.5,3.7,0.5v1.9c-4.2-0.1-6.3-0.2-6.4-0.2
		C1578.7,123.1,1576.4,123.2,1572.5,123.3z M1575,85.4c0-0.8,0.3-1.6,1-2.2c0.7-0.7,1.4-1,2.3-1s1.7,0.3,2.3,0.9
		c0.6,0.6,1,1.4,1,2.3c0,1-0.3,1.7-1,2.3c-0.6,0.6-1.4,0.9-2.3,0.9c-1,0-1.8-0.3-2.4-1C1575.3,87,1575,86.2,1575,85.4z"/>
	<path class="st6" d="M1589.5,122.5v-8.1c0-0.5,0-0.8,0-0.9c0-0.2,0.1-0.3,0.2-0.4c0.1-0.1,0.3-0.2,0.6-0.2c0.3,0,0.5,0.1,0.6,0.2
		c0.1,0.1,0.2,0.4,0.3,0.9c0.6,2.8,1.6,5,2.9,6.5s3.2,2.2,5.6,2.2c2.3,0,4-0.5,5.2-1.5c1.2-1,1.7-2.4,1.7-4.1c0-3-2.1-4.9-6.4-5.7
		c-2.5-0.5-4.2-0.9-5.2-1.2c-1-0.3-2-0.9-2.9-1.6c-1.8-1.4-2.6-3.2-2.6-5.2c0-2,0.8-3.8,2.3-5.3c1.6-1.5,4.1-2.3,7.5-2.3
		c2.3,0,4.2,0.6,5.8,1.7c0.5-0.4,0.8-0.7,1.1-1c0.6-0.5,1-0.8,1.3-0.8c0.4,0,0.6,0.1,0.6,0.3c0.1,0.2,0.1,0.6,0.1,1.2v6.2
		c0,0.5,0,0.8,0,0.9c0,0.2-0.1,0.3-0.2,0.4c-0.1,0.1-0.3,0.2-0.6,0.2c-0.5,0-0.8-0.2-0.8-0.6c-0.3-5-2.7-7.5-7.2-7.5
		c-2.4,0-4.2,0.5-5.3,1.4c-1.1,0.9-1.6,2-1.6,3.3c0,0.7,0.2,1.3,0.5,1.8c0.3,0.5,0.7,1,1.1,1.3c0.4,0.3,1,0.6,1.8,0.9
		c0.8,0.3,1.4,0.5,1.9,0.6c0.5,0.1,1.2,0.3,2.1,0.5c3.3,0.6,5.6,1.6,7,2.9c1.7,1.7,2.6,3.7,2.6,5.9c0,2.4-0.8,4.4-2.5,6.1
		c-1.6,1.6-4.1,2.5-7.4,2.5c-2.7,0-4.9-0.9-6.8-2.6c-0.2,0.2-0.4,0.5-0.6,0.7c-0.2,0.2-0.3,0.4-0.4,0.4c-0.1,0.1-0.1,0.1-0.1,0.2
		c0,0,0,0.1-0.1,0.1c-0.8,0.8-1.3,1.2-1.5,1.2c-0.3,0-0.5-0.1-0.6-0.3C1589.5,123.5,1589.5,123.1,1589.5,122.5z"/>
	<path class="st6" d="M1633.3,98.7v-1.9c1.8,0.1,3.8,0.2,6,0.2c0.8,0,3-0.1,6.7-0.2v1.9c-2.3,0-3.5,0.5-3.5,1.6
		c0,0.2,0.1,0.5,0.4,1.1l6.9,17.2l6.3-15.7c0.2-0.7,0.4-1.2,0.4-1.5c0-0.7-0.2-1.3-0.7-1.8s-1.2-0.8-2.2-0.8v-1.9
		c2.1,0.1,3.9,0.2,5.3,0.2c1.7,0,3.2-0.1,4.6-0.2v1.9c-1.2,0-2.3,0.3-3.1,0.8c-0.9,0.6-1.4,1.1-1.7,1.5s-0.5,1.1-0.8,1.8l-8.1,20
		c-0.3,0.8-0.8,1.2-1.3,1.2c-0.4,0-0.6-0.1-0.8-0.2c-0.2-0.2-0.3-0.5-0.5-0.9l-8.9-21.8c-0.4-1-0.9-1.7-1.4-1.9
		C1636.3,98.8,1635.2,98.7,1633.3,98.7z"/>
	<path class="st6" d="M1664.6,109.7c0-3.9,1.2-7.2,3.7-9.9s5.5-4.1,9.1-4.1c3.6,0,6.3,1.2,8.2,3.5s2.8,5.2,2.8,8.5
		c0,0.6-0.1,1-0.2,1.2c-0.2,0.1-0.6,0.2-1.3,0.2h-17.2c0,4.2,0.6,7.3,1.9,9.2c1.7,2.8,4,4.1,6.9,4.1c0.4,0,0.8,0,1.3-0.1
		c0.5-0.1,1.2-0.3,2.2-0.6c1-0.4,1.9-1,2.8-1.9c0.9-0.9,1.6-2.2,2.1-3.6c0.1-0.6,0.4-0.9,0.8-0.8c0.5,0,0.8,0.2,0.8,0.7
		c0,0.4-0.2,0.9-0.6,1.8s-1,1.7-1.7,2.7c-0.7,1-1.8,1.8-3.3,2.5c-1.4,0.7-3,1.1-4.7,1.1c-3.6,0-6.8-1.4-9.5-4.1
		C1665.9,117.2,1664.6,113.8,1664.6,109.7z M1669.7,107.7h14.6c0-0.9-0.1-1.8-0.2-2.7c-0.2-1-0.4-2.1-0.9-3.4
		c-0.4-1.3-1.1-2.4-2.1-3.3c-1-0.8-2.2-1.3-3.7-1.3c-0.7,0-1.3,0.1-2.1,0.4s-1.5,0.8-2.4,1.4c-0.9,0.7-1.6,1.8-2.2,3.3
		C1670.1,103.8,1669.8,105.6,1669.7,107.7z"/>
	<path class="st6" d="M1696.2,119.9c-2.6-2.7-3.9-6-3.9-9.9c0-3.9,1.3-7.3,3.8-10.1s5.7-4.2,9.5-4.2c2.5,0,4.6,0.6,6.5,1.8
		c1.8,1.2,2.8,2.8,2.8,4.8c0,0.9-0.3,1.6-0.8,2.1c-0.5,0.5-1.2,0.8-2,0.8c-0.8,0-1.5-0.3-2-0.8c-0.5-0.5-0.7-1.2-0.7-2
		c0-0.4,0.1-0.7,0.2-1.1c0.1-0.4,0.4-0.7,0.8-1.1c0.4-0.4,1-0.6,1.8-0.7c-1.4-1.5-3.6-2.3-6.4-2.3c0,0-0.1,0-0.1,0c-2.1,0-4,1-5.7,3
		c-1.7,2-2.6,5.2-2.6,9.7c0,2.3,0.3,4.4,0.9,6.1c0.6,1.7,1.3,3,2.3,3.9c0.9,0.9,1.9,1.5,2.8,1.9c0.9,0.4,1.8,0.6,2.7,0.6
		c4,0,6.6-2.2,8-6.5c0.1-0.4,0.4-0.6,0.7-0.6c0.5,0,0.8,0.2,0.8,0.6c0,0.2-0.1,0.6-0.2,1.1c-0.2,0.5-0.5,1.2-1,2
		c-0.5,0.8-1.1,1.6-1.8,2.3c-0.7,0.7-1.7,1.3-2.9,1.8c-1.2,0.5-2.6,0.8-4.1,0.8C1701.9,124,1698.8,122.6,1696.2,119.9z"/>
	<path class="st6" d="M1718.6,98.7v-1.4c1.9-0.1,3.5-0.8,4.7-2.1c1.3-1.3,2.1-2.8,2.5-4.5s0.7-3.4,0.7-5.3h1.5v11.3h8.8v1.9h-8.8
		v17.1c0,4.4,1.4,6.6,4.1,6.6c1.2,0,2.2-0.6,2.9-1.8c0.8-1.2,1.2-2.9,1.2-5.1v-3.4h1.5v3.5c0,2.2-0.5,4.2-1.5,5.8s-2.5,2.5-4.6,2.5
		c-0.7,0-1.5-0.1-2.2-0.3c-0.7-0.2-1.6-0.5-2.5-1c-1-0.5-1.7-1.3-2.3-2.6c-0.6-1.2-0.9-2.7-0.9-4.5v-17H1718.6z"/>
	<path class="st6" d="M1747.1,120c-2.7-2.7-4.1-6-4.1-9.9s1.3-7.3,4-10.1c2.7-2.8,5.9-4.3,9.7-4.3c3.7,0,6.9,1.4,9.6,4.3
		c2.7,2.8,4,6.2,4,10.2c0,3.9-1.3,7.1-4,9.8s-5.9,4-9.6,4C1753,124,1749.8,122.7,1747.1,120z M1748.2,109.6c0,4,0.5,6.9,1.6,8.7
		c1.6,2.8,3.9,4.1,7,4.1c1.5,0,2.9-0.4,4.2-1.2c1.3-0.8,2.3-1.9,3-3.3c0.9-1.8,1.4-4.6,1.4-8.3c0-4-0.5-6.8-1.6-8.6
		c-1.6-2.7-3.9-4-6.9-4c-1.3,0-2.6,0.3-3.9,1s-2.3,1.7-3.1,3.1C1748.6,103,1748.2,105.8,1748.2,109.6z"/>
	<path class="st6" d="M1773.8,123.3v-1.9c2.2,0,3.5-0.1,4-0.4c0.5-0.3,0.8-1.1,0.8-2.4v-16.5c0-1.5-0.3-2.5-0.8-2.9
		c-0.5-0.4-1.9-0.6-4-0.6v-1.9l8.6-0.7v6.8c0.6-1.8,1.5-3.3,2.7-4.7c1.2-1.4,2.8-2.1,4.9-2.1c1.3,0,2.4,0.4,3.3,1.1
		c0.9,0.7,1.3,1.6,1.3,2.6c0,0.9-0.3,1.6-0.8,2s-1.2,0.7-1.8,0.7c-0.7,0-1.4-0.2-1.9-0.7c-0.5-0.5-0.8-1.1-0.8-1.9
		c0-0.5,0.1-0.9,0.3-1.3c0.2-0.4,0.4-0.7,0.6-0.8c0.2-0.1,0.3-0.2,0.5-0.3c-0.1,0-0.3-0.1-0.7-0.1c-2.3,0-4,1.1-5.3,3.4
		c-1.3,2.3-1.9,5-1.9,8.2v9.5c0,1.2,0.2,2,0.7,2.3c0.5,0.4,1.8,0.6,4,0.6h1.3v1.9c-1.6-0.1-4.2-0.2-7.8-0.2c-0.5,0-1.1,0-1.9,0
		c-0.8,0-1.7,0.1-2.7,0.1C1775.2,123.3,1774.4,123.3,1773.8,123.3z"/>
	<path class="st6" d="M1798.2,122.5v-8.1c0-0.5,0-0.8,0-0.9c0-0.2,0.1-0.3,0.2-0.4c0.1-0.1,0.3-0.2,0.6-0.2c0.3,0,0.5,0.1,0.6,0.2
		c0.1,0.1,0.2,0.4,0.3,0.9c0.6,2.8,1.6,5,2.9,6.5s3.2,2.2,5.6,2.2c2.3,0,4-0.5,5.2-1.5c1.2-1,1.7-2.4,1.7-4.1c0-3-2.1-4.9-6.4-5.7
		c-2.5-0.5-4.2-0.9-5.2-1.2c-1-0.3-2-0.9-2.9-1.6c-1.8-1.4-2.6-3.2-2.6-5.2c0-2,0.8-3.8,2.3-5.3c1.6-1.5,4.1-2.3,7.5-2.3
		c2.3,0,4.2,0.6,5.8,1.7c0.5-0.4,0.8-0.7,1.1-1c0.6-0.5,1-0.8,1.3-0.8c0.4,0,0.6,0.1,0.6,0.3c0.1,0.2,0.1,0.6,0.1,1.2v6.2
		c0,0.5,0,0.8,0,0.9c0,0.2-0.1,0.3-0.2,0.4c-0.1,0.1-0.3,0.2-0.6,0.2c-0.5,0-0.8-0.2-0.8-0.6c-0.3-5-2.7-7.5-7.2-7.5
		c-2.4,0-4.2,0.5-5.3,1.4c-1.1,0.9-1.6,2-1.6,3.3c0,0.7,0.2,1.3,0.5,1.8c0.3,0.5,0.7,1,1.1,1.3c0.4,0.3,1,0.6,1.8,0.9
		c0.8,0.3,1.4,0.5,1.9,0.6c0.5,0.1,1.2,0.3,2.1,0.5c3.3,0.6,5.6,1.6,7,2.9c1.7,1.7,2.6,3.7,2.6,5.9c0,2.4-0.8,4.4-2.5,6.1
		c-1.6,1.6-4.1,2.5-7.4,2.5c-2.7,0-4.9-0.9-6.8-2.6c-0.2,0.2-0.4,0.5-0.6,0.7c-0.2,0.2-0.3,0.4-0.4,0.4c-0.1,0.1-0.1,0.1-0.1,0.2
		c0,0,0,0.1-0.1,0.1c-0.8,0.8-1.3,1.2-1.5,1.2c-0.3,0-0.5-0.1-0.6-0.3C1798.2,123.5,1798.2,123.1,1798.2,122.5z"/>
	<path class="st6" d="M1821.8,86.1c-0.6-0.6-0.9-1.4-0.9-2.3c0-0.9,0.3-1.7,0.9-2.3s1.4-0.9,2.3-0.9c1.2,0,2.2,0.6,3,1.7
		c0.8,1.2,1.1,2.7,1.1,4.7c0,2-0.4,4-1.2,5.9s-1.7,3.4-2.6,4.4c-0.9,1-1.5,1.5-1.9,1.5c-0.4,0-0.6-0.2-0.6-0.6
		c0-0.2,0.3-0.6,0.8-1.2c0.5-0.6,1.1-1.3,1.7-2.1s1.2-1.9,1.7-3.3s0.8-3,0.8-4.6c0-0.6,0-1.1-0.1-1.4c-0.8,0.9-1.7,1.3-2.6,1.3
		C1823.2,87.1,1822.4,86.7,1821.8,86.1z M1834.7,86.1c-0.6-0.6-0.9-1.4-0.9-2.3c0-0.9,0.3-1.7,0.9-2.3s1.4-0.9,2.3-0.9
		c1.2,0,2.2,0.6,3,1.7s1.1,2.7,1.1,4.7c0,2-0.4,4-1.2,5.9s-1.7,3.4-2.6,4.4c-0.9,1-1.5,1.5-1.9,1.5c-0.4,0-0.6-0.2-0.6-0.6
		c0-0.2,0.3-0.6,0.8-1.2c0.5-0.6,1.1-1.3,1.7-2.1s1.2-1.9,1.7-3.3s0.8-3,0.8-4.6c0-0.6,0-1.1-0.1-1.4c-0.8,0.9-1.7,1.3-2.6,1.3
		C1836.1,87.1,1835.3,86.7,1834.7,86.1z"/>
	<path class="st6" d="M1036.4,193.8c-2.7-2.7-4.1-6-4.1-9.9s1.3-7.3,4-10.1c2.7-2.8,5.9-4.3,9.7-4.3c3.7,0,6.9,1.4,9.6,4.3
		c2.7,2.8,4,6.2,4,10.2c0,3.9-1.3,7.1-4,9.8s-5.9,4-9.6,4C1042.3,197.8,1039.2,196.5,1036.4,193.8z M1037.5,183.5
		c0,4,0.5,6.9,1.6,8.7c1.6,2.8,3.9,4.1,7,4.1c1.5,0,2.9-0.4,4.2-1.2c1.3-0.8,2.3-1.9,3-3.3c0.9-1.8,1.4-4.6,1.4-8.3
		c0-4-0.5-6.8-1.6-8.6c-1.6-2.7-3.9-4-6.9-4c-1.3,0-2.6,0.3-3.9,1s-2.3,1.7-3.1,3.1C1038,176.8,1037.5,179.7,1037.5,183.5z"/>
	<path class="st6" d="M1063.4,172.5v-1.9h4.9v-7.1c0-3,1-5.4,3-7.2c2-1.7,4.2-2.6,6.6-2.6c1.6,0,2.9,0.4,3.9,1.3
		c1,0.9,1.5,1.9,1.5,3c0,0.8-0.2,1.4-0.7,1.9c-0.5,0.5-1.1,0.8-2,0.8c-0.8,0-1.5-0.3-1.9-0.8c-0.5-0.5-0.7-1.1-0.7-1.9
		c0-1.3,0.6-2.2,1.8-2.6c-0.6-0.3-1.3-0.4-2-0.5c-1.5,0-2.8,0.8-4,2.3c-1.2,1.5-1.7,3.6-1.7,6.1v7.1h7.2v1.9h-7v19.8
		c0,1.2,0.2,2,0.7,2.3c0.5,0.4,1.8,0.6,3.9,0.6h1.3v1.9c-1.6-0.1-4.3-0.2-7.8-0.2c-0.5,0-1.1,0-1.9,0c-0.8,0-1.7,0.1-2.7,0.1
		c-1,0-1.8,0.1-2.4,0.1v-1.9c2.2,0,3.5-0.1,4-0.4c0.5-0.3,0.8-1.1,0.8-2.4v-19.9H1063.4z"/>
	<path class="st6" d="M1101.8,172.5v-1.4c1.9-0.1,3.5-0.8,4.7-2.1c1.3-1.3,2.1-2.8,2.5-4.5s0.7-3.4,0.7-5.3h1.5v11.3h8.8v1.9h-8.8
		v17.1c0,4.4,1.4,6.6,4.1,6.6c1.2,0,2.2-0.6,2.9-1.8c0.8-1.2,1.2-2.9,1.2-5.1V186h1.5v3.5c0,2.2-0.5,4.2-1.5,5.8s-2.5,2.5-4.6,2.5
		c-0.7,0-1.5-0.1-2.2-0.3c-0.7-0.2-1.6-0.5-2.5-1c-1-0.5-1.7-1.3-2.3-2.6c-0.6-1.2-0.9-2.7-0.9-4.5v-17H1101.8z"/>
	<path class="st6" d="M1126.5,197.1v-1.9c2.2,0,3.5-0.1,4-0.4c0.5-0.3,0.8-1.1,0.8-2.4v-32c0-1.5-0.3-2.5-0.8-2.9
		c-0.5-0.4-1.9-0.6-4-0.6v-1.9l8.8-0.7v21.4h0.1c0.7-1.5,1.7-2.8,3.2-4.1s3.4-1.8,5.6-1.8c3.1,0,5.2,0.8,6.5,2.3
		c0.9,1,1.4,2.1,1.6,3.2c0.2,1.1,0.3,3.2,0.3,6.2v11.7c0,0.9,0.4,1.4,1.1,1.6s1.9,0.3,3.8,0.3v1.9c-4.2-0.1-6.5-0.2-6.9-0.2
		c-0.3,0-2.6,0.1-6.9,0.2v-1.9c2.2,0,3.5-0.1,4-0.4c0.5-0.3,0.8-1.1,0.8-2.4v-14.3c0-2.1-0.3-3.7-1-5c-0.6-1.2-1.8-1.8-3.6-1.8
		c-2.1,0-4,0.9-5.7,2.7c-1.7,1.8-2.6,4.2-2.6,7.2v11.3c0,1.3,0.3,2.1,0.8,2.4c0.5,0.3,1.8,0.4,4,0.4v1.9c-4.2-0.1-6.5-0.2-6.9-0.2
		C1133.1,197,1130.8,197,1126.5,197.1z"/>
	<path class="st6" d="M1160.4,183.6c0-3.9,1.2-7.2,3.7-9.9s5.5-4.1,9.1-4.1c3.6,0,6.3,1.2,8.2,3.5s2.8,5.2,2.8,8.5
		c0,0.6-0.1,1-0.2,1.2c-0.2,0.1-0.6,0.2-1.3,0.2h-17.2c0,4.2,0.6,7.3,1.9,9.2c1.7,2.8,4,4.1,6.9,4.1c0.4,0,0.8,0,1.3-0.1
		c0.5-0.1,1.2-0.3,2.2-0.6c1-0.4,1.9-1,2.8-1.9c0.9-0.9,1.6-2.2,2.1-3.6c0.1-0.6,0.4-0.9,0.8-0.8c0.5,0,0.8,0.2,0.8,0.7
		c0,0.4-0.2,0.9-0.6,1.8s-1,1.7-1.7,2.7c-0.7,1-1.8,1.8-3.3,2.5c-1.4,0.7-3,1.1-4.7,1.1c-3.6,0-6.8-1.4-9.5-4.1
		C1161.7,191,1160.4,187.6,1160.4,183.6z M1165.5,181.6h14.6c0-0.9-0.1-1.8-0.2-2.7c-0.2-1-0.4-2.1-0.9-3.4
		c-0.4-1.3-1.1-2.4-2.1-3.3c-1-0.8-2.2-1.3-3.7-1.3c-0.7,0-1.3,0.1-2.1,0.4s-1.5,0.8-2.4,1.4c-0.9,0.7-1.6,1.8-2.2,3.3
		C1165.9,177.6,1165.6,179.5,1165.5,181.6z"/>
	<path class="st6" d="M1209.7,194c0-1,0.3-1.8,0.9-2.4c0.6-0.6,1.3-0.9,2.1-0.9c1.4,0,2.1,0.7,2.1,2c0,0.6-0.2,1.2-0.6,1.8
		c-0.4,0.6-1,1-1.8,1.2c0.7,0.6,1.5,0.8,2.6,0.8c0,0,0.1,0,0.1,0c0.9,0,1.6-0.2,2.3-0.7c0.7-0.5,1.2-1.3,1.7-2.3s0.8-1.9,1-2.8
		c0.2-0.8,0.5-1.9,0.8-3.2c0.5-2,1-3.9,1.5-5.6c0.9-3.5,1.3-5.8,1.3-6.8c0-1.2-0.3-2.2-0.8-2.9s-1.3-1-2.2-1c-1.4,0-2.7,0.7-4.1,2
		c-1.4,1.3-2.4,3.2-3.2,5.7c-0.2,0.5-0.3,0.8-0.4,0.9c-0.1,0.1-0.3,0.1-0.7,0.1c-0.6,0-0.9-0.2-0.9-0.6s0.2-1.1,0.6-2.1s1-2,1.8-3.2
		c0.7-1.1,1.7-2.1,3-2.9c1.3-0.8,2.6-1.3,4-1.3c2.9,0,4.9,1.4,5.9,4.2c0.5-0.9,1.3-1.9,2.3-2.8c1-0.9,2.3-1.4,3.8-1.4
		c1.2,0,2.4,0.3,3.6,0.9s1.8,1.6,1.8,3c0,1.1-0.3,1.9-1,2.4c-0.7,0.6-1.3,0.8-2,0.8c-0.7,0-1.3-0.2-1.6-0.6s-0.5-0.9-0.5-1.3
		c0-0.2,0-0.4,0.1-0.7c0-0.3,0.3-0.7,0.7-1.2c0.4-0.5,1-0.9,1.7-1c-0.7-0.6-1.6-0.9-2.7-0.9c-2.5,0-4.3,2.2-5.5,6.6
		c-0.9,4-1.6,6.8-2.1,8.4c-0.8,3.3-1.2,5.4-1.2,6.2c0,1.4,0.3,2.5,0.9,3.1c0.6,0.6,1.3,0.9,2.1,0.9c1.4,0,2.8-0.7,4.1-2
		c1.4-1.3,2.4-3.2,3.2-5.7c0.2-0.5,0.3-0.8,0.4-0.9c0.1-0.1,0.3-0.1,0.7-0.1c0.6,0,0.9,0.2,0.9,0.6c0,0.4-0.2,1-0.6,2
		c-0.4,1-1,2-1.7,3.2s-1.7,2.2-3,3c-1.3,0.9-2.7,1.3-4.1,1.3c-1.1,0-2.2-0.3-3.4-0.9s-2-1.7-2.5-3.3c-1.6,2.8-3.6,4.2-6,4.2
		c-1.5,0-2.8-0.3-3.8-1C1210.2,196.1,1209.7,195.2,1209.7,194z"/>
	<path class="st6" d="M1240,179.4c0-0.1,0.1-0.5,0.2-1.1c0.2-0.6,0.5-1.4,0.9-2.4c0.4-1,0.9-1.9,1.5-2.8c0.6-0.9,1.3-1.6,2.3-2.3
		s1.9-0.9,3-0.9c1.4,0,2.5,0.5,3.4,1.4c0.9,0.9,1.3,2.1,1.3,3.6c0,0.8-0.3,1.9-0.8,3.3c-2.4,6.5-3.6,11-3.6,13.5
		c0,3.1,1.1,4.7,3.3,4.7h0c1.6,0,3.1-0.6,4.3-1.9c1.2-1.2,2-2.4,2.2-3.6l4.5-18.1c0.4-1.5,1.1-2.3,2.4-2.3c0.6,0,1,0.2,1.3,0.5
		c0.3,0.3,0.4,0.7,0.4,1.1c0,0.1,0,0.2-0.1,0.4c0,0.2-0.1,0.3-0.1,0.4l-6,24.3c-0.8,3.2-2.5,6.1-5.1,8.7c-2.6,2.5-5.4,3.8-8.4,3.8
		c-1.7,0-3.1-0.5-4.2-1.4c-1.1-1-1.7-2.2-1.7-3.9c0-1,0.2-1.9,0.7-2.5c0.5-0.6,0.9-1,1.3-1.1c0.4-0.1,0.8-0.2,1.2-0.2
		c0.6,0,1.1,0.2,1.5,0.5c0.4,0.4,0.6,0.8,0.6,1.5c0,0.6-0.2,1.2-0.7,1.8s-1.1,1-2,1.1c-0.3,0-0.5,0.1-0.5,0.2c0,0.2,0.1,0.4,0.3,0.8
		c0.2,0.4,0.6,0.8,1.2,1.2s1.4,0.6,2.3,0.6c1.9,0,3.8-1,5.6-3c1.9-2,3.3-5.3,4.4-9.9c-1.5,1.5-3.4,2.3-5.5,2.3
		c-1.9,0-3.6-0.6-4.9-1.7s-2-2.9-2-5.4c0-2.3,1.1-6.3,3.2-12.1c1-2.7,1.5-4.6,1.5-5.6c0-1.2-0.5-1.8-1.4-1.8c-2.5,0-4.4,2.6-5.7,7.8
		c-0.1,0.5-0.2,0.7-0.4,0.8c-0.1,0.1-0.4,0.1-0.7,0.1C1240.3,180,1240,179.8,1240,179.4z"/>
	<path class="st6" d="M1291.2,193.8c-2.6-2.7-3.9-6-3.9-9.9c0-3.9,1.3-7.3,3.8-10.1s5.7-4.2,9.5-4.2c2.5,0,4.6,0.6,6.5,1.8
		c1.8,1.2,2.8,2.8,2.8,4.8c0,0.9-0.3,1.6-0.8,2.1c-0.5,0.5-1.2,0.8-2,0.8c-0.8,0-1.5-0.3-2-0.8c-0.5-0.5-0.7-1.2-0.7-2
		c0-0.4,0.1-0.7,0.2-1.1c0.1-0.4,0.4-0.7,0.8-1.1c0.4-0.4,1-0.6,1.8-0.7c-1.4-1.5-3.6-2.3-6.4-2.3c0,0-0.1,0-0.1,0c-2.1,0-4,1-5.7,3
		c-1.7,2-2.6,5.2-2.6,9.7c0,2.3,0.3,4.4,0.9,6.1c0.6,1.7,1.3,3,2.3,3.9c0.9,0.9,1.9,1.5,2.8,1.9c0.9,0.4,1.8,0.6,2.7,0.6
		c4,0,6.6-2.2,8-6.5c0.1-0.4,0.4-0.6,0.7-0.6c0.5,0,0.8,0.2,0.8,0.6c0,0.2-0.1,0.6-0.2,1.1c-0.2,0.5-0.5,1.2-1,2
		c-0.5,0.8-1.1,1.6-1.8,2.3c-0.7,0.7-1.7,1.3-2.9,1.8c-1.2,0.5-2.6,0.8-4.1,0.8C1296.9,197.8,1293.8,196.5,1291.2,193.8z"/>
	<path class="st6" d="M1318.3,193.8c-2.7-2.7-4.1-6-4.1-9.9s1.3-7.3,4-10.1c2.7-2.8,5.9-4.3,9.7-4.3c3.7,0,6.9,1.4,9.6,4.3
		c2.7,2.8,4,6.2,4,10.2c0,3.9-1.3,7.1-4,9.8s-5.9,4-9.6,4C1324.2,197.8,1321,196.5,1318.3,193.8z M1319.3,183.5c0,4,0.5,6.9,1.6,8.7
		c1.6,2.8,3.9,4.1,7,4.1c1.5,0,2.9-0.4,4.2-1.2c1.3-0.8,2.3-1.9,3-3.3c0.9-1.8,1.4-4.6,1.4-8.3c0-4-0.5-6.8-1.6-8.6
		c-1.6-2.7-3.9-4-6.9-4c-1.3,0-2.6,0.3-3.9,1s-2.3,1.7-3.1,3.1C1319.8,176.8,1319.3,179.7,1319.3,183.5z"/>
	<path class="st6" d="M1350.8,193.8c-2.7-2.7-4.1-6-4.1-9.9s1.3-7.3,4-10.1c2.7-2.8,5.9-4.3,9.7-4.3c3.7,0,6.9,1.4,9.6,4.3
		c2.7,2.8,4,6.2,4,10.2c0,3.9-1.3,7.1-4,9.8s-5.9,4-9.6,4C1356.7,197.8,1353.5,196.5,1350.8,193.8z M1351.8,183.5
		c0,4,0.5,6.9,1.6,8.7c1.6,2.8,3.9,4.1,7,4.1c1.5,0,2.9-0.4,4.2-1.2c1.3-0.8,2.3-1.9,3-3.3c0.9-1.8,1.4-4.6,1.4-8.3
		c0-4-0.5-6.8-1.6-8.6c-1.6-2.7-3.9-4-6.9-4c-1.3,0-2.6,0.3-3.9,1s-2.3,1.7-3.1,3.1C1352.3,176.8,1351.8,179.7,1351.8,183.5z"/>
	<path class="st6" d="M1377.5,197.1v-1.9c2.2,0,3.5-0.1,4-0.4c0.5-0.3,0.8-1.1,0.8-2.4V176c0-1.5-0.3-2.5-0.8-2.9
		c-0.5-0.4-1.9-0.6-4-0.6v-1.9l8.6-0.7v6.8c0.6-1.8,1.5-3.3,2.7-4.7c1.2-1.4,2.8-2.1,4.9-2.1c1.3,0,2.4,0.4,3.3,1.1
		c0.9,0.7,1.3,1.6,1.3,2.6c0,0.9-0.3,1.6-0.8,2s-1.2,0.7-1.8,0.7c-0.7,0-1.4-0.2-1.9-0.7c-0.5-0.5-0.8-1.1-0.8-1.9
		c0-0.5,0.1-0.9,0.3-1.3c0.2-0.4,0.4-0.7,0.6-0.8c0.2-0.1,0.3-0.2,0.5-0.3c-0.1,0-0.3-0.1-0.7-0.1c-2.3,0-4,1.1-5.3,3.4
		c-1.3,2.3-1.9,5-1.9,8.2v9.5c0,1.2,0.2,2,0.7,2.3c0.5,0.4,1.8,0.6,4,0.6h1.3v1.9c-1.6-0.1-4.2-0.2-7.8-0.2c-0.5,0-1.1,0-1.9,0
		c-0.8,0-1.7,0.1-2.7,0.1C1378.9,197.1,1378.1,197.1,1377.5,197.1z"/>
	<path class="st6" d="M1401.9,183.9c0-3.9,1.4-7.2,4.1-9.9c2.7-2.7,5.9-4.1,9.6-4.1c3.1,0,5.7,1.3,7.8,3.8v-13.3
		c0-1.5-0.3-2.5-0.8-2.9c-0.5-0.4-1.9-0.6-4-0.6v-1.9l8.9-0.7v37.3c0,1.5,0.3,2.5,0.8,2.9c0.5,0.4,1.9,0.6,4,0.6v1.9l-9,0.7v-4.1
		c-2.1,2.7-4.9,4.1-8.2,4.1c-3.5,0-6.6-1.4-9.2-4.1C1403.2,191.1,1401.9,187.8,1401.9,183.9z M1407,184c0,3.8,0.6,6.7,1.8,8.6
		c1.6,2.6,3.8,4,6.5,4c3,0,5.5-1.4,7.3-4.3c0.5-0.7,0.7-1.5,0.7-2.3v-12.6c0-0.8-0.2-1.6-0.7-2.3c-1.7-2.5-3.9-3.7-6.6-3.7
		c-2.9,0-5.2,1.3-7,3.9C1407.6,177.2,1407,180.1,1407,184z"/>
	<path class="st6" d="M1436,197.1v-1.9c2.2,0,3.5-0.1,4-0.4c0.5-0.3,0.8-1.1,0.8-2.4v-16.5c0-1.5-0.3-2.5-0.8-2.8
		c-0.5-0.4-1.8-0.5-3.8-0.5v-1.9l8.6-0.7v22.5c0,1.2,0.2,2,0.7,2.3c0.4,0.3,1.7,0.5,3.7,0.5v1.9c-4.2-0.1-6.3-0.2-6.4-0.2
		C1442.2,197,1439.9,197,1436,197.1z M1438.5,159.2c0-0.8,0.3-1.6,1-2.2c0.7-0.7,1.4-1,2.3-1s1.7,0.3,2.3,0.9c0.6,0.6,1,1.4,1,2.3
		c0,1-0.3,1.7-1,2.3c-0.6,0.6-1.4,0.9-2.3,0.9c-1,0-1.8-0.3-2.4-1C1438.8,160.8,1438.5,160.1,1438.5,159.2z"/>
	<path class="st6" d="M1452.9,197.1v-1.9c2.2,0,3.5-0.1,4.1-0.4c0.5-0.3,0.8-1.1,0.8-2.4V176c0-1.5-0.3-2.5-0.8-2.9
		c-0.5-0.4-1.9-0.6-4-0.6v-1.9l8.7-0.7l0,6.5c1.9-4.3,5-6.5,9.1-6.5c3.1,0,5.2,0.8,6.5,2.3c0.9,1,1.4,2.1,1.6,3.2
		c0.2,1.1,0.3,3.2,0.3,6.2v11.7c0,0.9,0.4,1.4,1.1,1.6s1.9,0.3,3.8,0.3v1.9c-4.2-0.1-6.5-0.2-6.9-0.2c-0.3,0-2.6,0.1-6.9,0.2v-1.9
		c2.2,0,3.5-0.1,4-0.4c0.5-0.3,0.8-1.1,0.8-2.4v-14.3c0-2.1-0.3-3.7-1-5c-0.6-1.2-1.8-1.8-3.6-1.8c-2.1,0-4,0.9-5.8,2.7
		c-1.7,1.8-2.6,4.2-2.6,7.2v11.3c0,1.3,0.3,2.1,0.8,2.4c0.5,0.3,1.9,0.4,4,0.4v1.9c-4.2-0.1-6.5-0.2-6.9-0.2
		C1459.6,197,1457.2,197,1452.9,197.1z"/>
	<path class="st6" d="M1487.7,191.3c0-3.5,2.1-6.2,6.3-8c2.5-1.2,6.4-1.9,11.5-2.2v-2.2c0-2.5-0.7-4.5-2.1-5.8c-1.4-1.3-3-2-4.8-2
		c-3,0-5.3,1-6.7,2.9c1.2,0,2,0.4,2.4,1c0.4,0.6,0.6,1.2,0.6,1.8c0,0.8-0.2,1.5-0.7,2c-0.5,0.5-1.2,0.8-2,0.8c-0.8,0-1.4-0.3-2-0.8
		c-0.5-0.5-0.8-1.2-0.8-2.1c0-2,0.9-3.7,2.7-5c1.8-1.3,4-2,6.6-2c3.5,0,6.4,1.1,8.7,3.4c0.7,0.7,1.3,1.5,1.6,2.4
		c0.4,0.9,0.6,1.6,0.6,2.2s0.1,1.5,0.1,2.6v12.3c0,0.2,0,0.6,0.1,1c0.1,0.4,0.3,0.9,0.7,1.4c0.4,0.5,0.9,0.8,1.5,0.8
		c1.5,0,2.2-1.3,2.2-3.9v-3.4h1.5v3.5c0,2.2-0.6,3.7-1.7,4.6c-1.1,0.9-2.2,1.3-3.3,1.3c-1.4,0-2.5-0.5-3.3-1.5
		c-0.9-1-1.3-2.2-1.5-3.6c-0.7,1.6-1.7,2.9-3.2,3.9c-1.5,1-3.2,1.5-5.3,1.5c-1.5,0-2.9-0.2-4.3-0.6c-1.4-0.4-2.6-1.1-3.8-2.1
		S1487.7,192.8,1487.7,191.3z M1492.8,191.2c0,1.5,0.5,2.8,1.5,3.8c1,1,2.2,1.5,3.6,1.5c1.8,0,3.5-0.7,5.2-2
		c1.6-1.3,2.4-3.3,2.4-5.9v-6.2c-4.5,0.2-7.8,1.1-9.8,3C1493.8,187.1,1492.8,189.1,1492.8,191.2z"/>
	<path class="st6" d="M1517.1,172.5v-1.4c1.9-0.1,3.5-0.8,4.7-2.1c1.3-1.3,2.1-2.8,2.5-4.5s0.7-3.4,0.7-5.3h1.5v11.3h8.8v1.9h-8.8
		v17.1c0,4.4,1.4,6.6,4.1,6.6c1.2,0,2.2-0.6,2.9-1.8c0.8-1.2,1.2-2.9,1.2-5.1V186h1.5v3.5c0,2.2-0.5,4.2-1.5,5.8s-2.5,2.5-4.6,2.5
		c-0.7,0-1.5-0.1-2.2-0.3c-0.7-0.2-1.6-0.5-2.5-1c-1-0.5-1.7-1.3-2.3-2.6c-0.6-1.2-0.9-2.7-0.9-4.5v-17H1517.1z"/>
	<path class="st6" d="M1541.5,183.6c0-3.9,1.2-7.2,3.7-9.9s5.5-4.1,9.1-4.1c3.6,0,6.3,1.2,8.2,3.5s2.8,5.2,2.8,8.5
		c0,0.6-0.1,1-0.2,1.2c-0.2,0.1-0.6,0.2-1.3,0.2h-17.2c0,4.2,0.6,7.3,1.9,9.2c1.7,2.8,4,4.1,6.9,4.1c0.4,0,0.8,0,1.3-0.1
		c0.5-0.1,1.2-0.3,2.2-0.6c1-0.4,1.9-1,2.8-1.9c0.9-0.9,1.6-2.2,2.1-3.6c0.1-0.6,0.4-0.9,0.8-0.8c0.5,0,0.8,0.2,0.8,0.7
		c0,0.4-0.2,0.9-0.6,1.8s-1,1.7-1.7,2.7c-0.7,1-1.8,1.8-3.3,2.5c-1.4,0.7-3,1.1-4.7,1.1c-3.6,0-6.8-1.4-9.5-4.1
		C1542.8,191,1541.5,187.6,1541.5,183.6z M1546.6,181.6h14.6c0-0.9-0.1-1.8-0.2-2.7c-0.2-1-0.4-2.1-0.9-3.4
		c-0.4-1.3-1.1-2.4-2.1-3.3c-1-0.8-2.2-1.3-3.7-1.3c-0.7,0-1.3,0.1-2.1,0.4s-1.5,0.8-2.4,1.4c-0.9,0.7-1.6,1.8-2.2,3.3
		C1547,177.6,1546.7,179.5,1546.6,181.6z"/>
	<path class="st6" d="M1589.6,196.3v-8.1c0-0.5,0-0.8,0-0.9c0-0.2,0.1-0.3,0.2-0.4c0.1-0.1,0.3-0.2,0.6-0.2c0.3,0,0.5,0.1,0.6,0.2
		c0.1,0.1,0.2,0.4,0.3,0.9c0.6,2.8,1.6,5,2.9,6.5s3.2,2.2,5.6,2.2c2.3,0,4-0.5,5.2-1.5c1.2-1,1.7-2.4,1.7-4.1c0-3-2.1-4.9-6.4-5.7
		c-2.5-0.5-4.2-0.9-5.2-1.2c-1-0.3-2-0.9-2.9-1.6c-1.8-1.4-2.6-3.2-2.6-5.2c0-2,0.8-3.8,2.3-5.3c1.6-1.5,4.1-2.3,7.5-2.3
		c2.3,0,4.2,0.6,5.8,1.7c0.5-0.4,0.8-0.7,1.1-1c0.6-0.5,1-0.8,1.3-0.8c0.4,0,0.6,0.1,0.6,0.3c0.1,0.2,0.1,0.6,0.1,1.2v6.2
		c0,0.5,0,0.8,0,0.9c0,0.2-0.1,0.3-0.2,0.4c-0.1,0.1-0.3,0.2-0.6,0.2c-0.5,0-0.8-0.2-0.8-0.6c-0.3-5-2.7-7.5-7.2-7.5
		c-2.4,0-4.2,0.5-5.3,1.4c-1.1,0.9-1.6,2-1.6,3.3c0,0.7,0.2,1.3,0.5,1.8c0.3,0.5,0.7,1,1.1,1.3c0.4,0.3,1,0.6,1.8,0.9
		c0.8,0.3,1.4,0.5,1.9,0.6c0.5,0.1,1.2,0.3,2.1,0.5c3.3,0.6,5.6,1.6,7,2.9c1.7,1.7,2.6,3.7,2.6,5.9c0,2.4-0.8,4.4-2.5,6.1
		c-1.6,1.6-4.1,2.5-7.4,2.5c-2.7,0-4.9-0.9-6.8-2.6c-0.2,0.2-0.4,0.5-0.6,0.7c-0.2,0.2-0.3,0.4-0.4,0.4c-0.1,0.1-0.1,0.1-0.1,0.2
		c0,0,0,0.1-0.1,0.1c-0.8,0.8-1.3,1.2-1.5,1.2c-0.3,0-0.5-0.1-0.6-0.3C1589.6,197.3,1589.6,196.9,1589.6,196.3z"/>
	<path class="st6" d="M1612.9,204.8c0-0.9,0.3-1.5,0.8-2s1.1-0.7,1.8-0.7c0.7,0,1.3,0.2,1.8,0.7c0.5,0.5,0.7,1.1,0.7,1.9
		c0,1.5-0.8,2.4-2.4,2.6c0.8,0.7,1.7,1.1,2.9,1.1c1.2,0,2.3-0.5,3.3-1.4s1.7-1.8,2.1-2.6c0.4-0.9,1-2.1,1.6-3.6
		c0.6-1.2,1.1-2.4,1.5-3.6l-9.2-22.5c-0.4-1-0.9-1.6-1.5-1.8c-0.6-0.2-1.8-0.3-3.4-0.3v-1.9c1.8,0.1,3.8,0.2,6,0.2
		c1.3,0,3.5-0.1,6.7-0.2v1.9c-2.3,0-3.5,0.5-3.5,1.6c0,0.1,0.1,0.5,0.4,1.1l6.9,16.6l6.2-15.1c0.2-0.6,0.4-1.1,0.4-1.5
		c0-1.7-1-2.6-2.9-2.6v-1.9c2.7,0.1,4.5,0.2,5.3,0.2c1.7,0,3.2-0.1,4.6-0.2v1.9c-2.7,0-4.6,1.3-5.7,3.9l-10.8,26.3
		c-2,4.7-4.6,7-7.9,7c-1.6,0-2.9-0.5-4-1.4C1613.5,207.4,1612.9,206.2,1612.9,204.8z"/>
	<path class="st6" d="M1646.2,196.3v-8.1c0-0.5,0-0.8,0-0.9c0-0.2,0.1-0.3,0.2-0.4c0.1-0.1,0.3-0.2,0.6-0.2c0.3,0,0.5,0.1,0.6,0.2
		c0.1,0.1,0.2,0.4,0.3,0.9c0.6,2.8,1.6,5,2.9,6.5s3.2,2.2,5.6,2.2c2.3,0,4-0.5,5.2-1.5c1.2-1,1.7-2.4,1.7-4.1c0-3-2.1-4.9-6.4-5.7
		c-2.5-0.5-4.2-0.9-5.2-1.2c-1-0.3-2-0.9-2.9-1.6c-1.8-1.4-2.6-3.2-2.6-5.2c0-2,0.8-3.8,2.3-5.3c1.6-1.5,4.1-2.3,7.5-2.3
		c2.3,0,4.2,0.6,5.8,1.7c0.5-0.4,0.8-0.7,1.1-1c0.6-0.5,1-0.8,1.3-0.8c0.4,0,0.6,0.1,0.6,0.3c0.1,0.2,0.1,0.6,0.1,1.2v6.2
		c0,0.5,0,0.8,0,0.9c0,0.2-0.1,0.3-0.2,0.4c-0.1,0.1-0.3,0.2-0.6,0.2c-0.5,0-0.8-0.2-0.8-0.6c-0.3-5-2.7-7.5-7.2-7.5
		c-2.4,0-4.2,0.5-5.3,1.4c-1.1,0.9-1.6,2-1.6,3.3c0,0.7,0.2,1.3,0.5,1.8c0.3,0.5,0.7,1,1.1,1.3c0.4,0.3,1,0.6,1.8,0.9
		c0.8,0.3,1.4,0.5,1.9,0.6c0.5,0.1,1.2,0.3,2.1,0.5c3.3,0.6,5.6,1.6,7,2.9c1.7,1.7,2.6,3.7,2.6,5.9c0,2.4-0.8,4.4-2.5,6.1
		c-1.6,1.6-4.1,2.5-7.4,2.5c-2.7,0-4.9-0.9-6.8-2.6c-0.2,0.2-0.4,0.5-0.6,0.7c-0.2,0.2-0.3,0.4-0.4,0.4c-0.1,0.1-0.1,0.1-0.1,0.2
		c0,0,0,0.1-0.1,0.1c-0.8,0.8-1.3,1.2-1.5,1.2c-0.3,0-0.5-0.1-0.6-0.3C1646.2,197.3,1646.2,196.9,1646.2,196.3z"/>
	<path class="st6" d="M1669.5,172.5v-1.4c1.9-0.1,3.5-0.8,4.7-2.1c1.3-1.3,2.1-2.8,2.5-4.5s0.7-3.4,0.7-5.3h1.5v11.3h8.8v1.9h-8.8
		v17.1c0,4.4,1.4,6.6,4.1,6.6c1.2,0,2.2-0.6,2.9-1.8c0.8-1.2,1.2-2.9,1.2-5.1V186h1.5v3.5c0,2.2-0.5,4.2-1.5,5.8s-2.5,2.5-4.6,2.5
		c-0.7,0-1.5-0.1-2.2-0.3c-0.7-0.2-1.6-0.5-2.5-1c-1-0.5-1.7-1.3-2.3-2.6c-0.6-1.2-0.9-2.7-0.9-4.5v-17H1669.5z"/>
	<path class="st6" d="M1693.9,183.6c0-3.9,1.2-7.2,3.7-9.9s5.5-4.1,9.1-4.1c3.6,0,6.3,1.2,8.2,3.5s2.8,5.2,2.8,8.5
		c0,0.6-0.1,1-0.2,1.2c-0.2,0.1-0.6,0.2-1.3,0.2h-17.2c0,4.2,0.6,7.3,1.9,9.2c1.7,2.8,4,4.1,6.9,4.1c0.4,0,0.8,0,1.3-0.1
		c0.5-0.1,1.2-0.3,2.2-0.6c1-0.4,1.9-1,2.8-1.9c0.9-0.9,1.6-2.2,2.1-3.6c0.1-0.6,0.4-0.9,0.8-0.8c0.5,0,0.8,0.2,0.8,0.7
		c0,0.4-0.2,0.9-0.6,1.8s-1,1.7-1.7,2.7c-0.7,1-1.8,1.8-3.3,2.5c-1.4,0.7-3,1.1-4.7,1.1c-3.6,0-6.8-1.4-9.5-4.1
		C1695.3,191,1693.9,187.6,1693.9,183.6z M1699.1,181.6h14.6c0-0.9-0.1-1.8-0.2-2.7c-0.2-1-0.4-2.1-0.9-3.4
		c-0.4-1.3-1.1-2.4-2.1-3.3c-1-0.8-2.2-1.3-3.7-1.3c-0.7,0-1.3,0.1-2.1,0.4s-1.5,0.8-2.4,1.4c-0.9,0.7-1.6,1.8-2.2,3.3
		C1699.5,177.6,1699.2,179.5,1699.1,181.6z"/>
	<path class="st6" d="M1721.5,197.1v-1.9c2.2,0,3.5-0.1,4.1-0.4c0.5-0.3,0.8-1.1,0.8-2.4V176c0-1.5-0.3-2.5-0.8-2.9
		c-0.5-0.4-1.9-0.6-4-0.6v-1.9l8.7-0.7l0,6.5c1.9-4.3,5-6.5,9.1-6.5c4.8,0,7.6,2,8.2,6c0.7-1.6,1.8-3,3.3-4.2
		c1.5-1.2,3.4-1.8,5.7-1.8c3.1,0,5.2,0.8,6.5,2.3c0.9,1,1.4,2.1,1.6,3.2c0.2,1.1,0.3,3.2,0.3,6.2v11.7c0,0.9,0.4,1.4,1.1,1.6
		s1.9,0.3,3.8,0.3v1.9c-4.2-0.1-6.5-0.2-6.9-0.2c-0.3,0-2.6,0.1-7,0.2v-1.9c2.2,0,3.5-0.1,4-0.4c0.5-0.3,0.8-1.1,0.8-2.4v-14.3
		c0-2.1-0.3-3.7-1-5c-0.6-1.2-1.8-1.8-3.6-1.8c-2.1,0-4,0.9-5.7,2.7c-1.7,1.8-2.6,4.2-2.6,7.2v11.3c0,1.3,0.3,2.1,0.8,2.4
		c0.5,0.3,1.9,0.4,4,0.4v1.9c-4.2-0.1-6.5-0.2-6.9-0.2c-0.3,0-2.6,0.1-6.9,0.2v-1.9c2.2,0,3.5-0.1,4-0.4c0.5-0.3,0.8-1.1,0.8-2.4
		v-14.3c0-2.1-0.3-3.7-1-5c-0.6-1.2-1.8-1.8-3.6-1.8c-2.1,0-4,0.9-5.8,2.7c-1.7,1.8-2.6,4.2-2.6,7.2v11.3c0,1.3,0.3,2.1,0.8,2.4
		c0.5,0.3,1.9,0.4,4,0.4v1.9c-4.2-0.1-6.5-0.2-6.9-0.2C1728.1,197,1725.8,197,1721.5,197.1z"/>
</g>
<rect x="635.9" y="223.3" transform="matrix(-1.836970e-16 1 -1 -1.836970e-16 1184.0989 -94.1711)" class="st9" width="6.4" height="643.4"/>
<polygon class="st9" points="288,544 321.5,563.3 321.5,524.6 "/>
<rect x="958.3" y="299.1" transform="matrix(1 1.284637e-03 -1.284637e-03 1 0.5444 -1.2349)" class="st8" width="6.4" height="248.3"/>
<polygon class="st8" points="961.1,269.6 941.8,303.1 980.5,303.1 "/>
<rect x="630.6" y="61.6" transform="matrix(0.37 -0.929 0.929 0.37 13.9587 850.1707)" class="st10" width="6.4" height="706.5"/>
<polygon class="st10" points="287.2,273.4 306.6,306.9 325.9,273.4 "/>
<g>
	<g>
		<path class="st9" d="M141.8,116.1v-1.9h28.3v1.9H141.8z"/>
		<path class="st9" d="M172.8,121.2c0-1.2,0.3-2,1-2.5c0.7-0.5,1.3-0.7,2-0.7c0.8,0,1.5,0.3,1.9,0.9c0.5,0.6,0.7,1.3,0.7,2.1
			c0,0.8-0.2,1.5-0.7,2.1c-0.5,0.6-1.1,0.9-1.9,0.9c-0.5,0-0.8,0-1-0.1c0.5,1.7,1.5,3.2,3,4.5c1.5,1.2,3.3,1.9,5.3,1.9
			c2.5,0,4.6-1.3,6.1-3.8c0.9-1.6,1.4-4.3,1.4-8c0-3.1-0.3-5.4-1-7c-1.1-2.4-2.7-3.5-4.8-3.5c-3.1,0-5.5,1.3-7.3,3.8
			c-0.2,0.3-0.4,0.5-0.7,0.5c-0.3,0-0.5-0.1-0.6-0.3s-0.1-0.6-0.1-1.2V94.2c0-0.9,0.2-1.3,0.6-1.3c0.1,0,0.4,0,0.7,0.1
			c2.4,0.8,4.9,1.1,7.5,1.2c2.7,0,5.3-0.6,7.7-1.7c0.2-0.1,0.3-0.2,0.4-0.2c0.4,0,0.6,0.2,0.6,0.6c0,0.1-0.2,0.4-0.5,0.9
			c-0.3,0.4-0.8,1-1.4,1.6s-1.4,1.2-2.2,1.8c-0.8,0.6-1.9,1.1-3.1,1.5c-1.2,0.4-2.5,0.6-3.8,0.6c-1.6,0-3.2-0.2-4.9-0.7v11
			c2-1.9,4.4-2.8,7.2-2.8c3,0,5.6,1.2,7.7,3.6c2.1,2.4,3.1,5.2,3.1,8.6c0,3.6-1.2,6.7-3.7,9.2c-2.5,2.5-5.4,3.7-8.7,3.7
			c-3,0-5.5-1.1-7.5-3.3C173.7,126.3,172.8,123.9,172.8,121.2z"/>
	</g>
</g>
<g>
	<g>
		<path class="st8" d="M161.6,202.6c0-0.7,0-1.1,0.1-1.3c0.1-0.2,0.2-0.5,0.5-0.8l10.8-12.1c4-4.5,6-8.7,6-12.6c0-2.5-0.7-4.7-2-6.5
			c-1.3-1.8-3.2-2.7-5.6-2.7c-1.6,0-3.2,0.5-4.6,1.5c-1.4,1-2.4,2.4-3,4.2c0.1,0,0.4-0.1,0.7-0.1c0.9,0,1.6,0.3,2.2,0.9
			c0.5,0.6,0.8,1.3,0.8,2.1c0,1-0.3,1.8-1,2.3c-0.6,0.5-1.3,0.7-1.9,0.7c-0.3,0-0.5,0-0.9-0.1c-0.3-0.1-0.8-0.3-1.3-0.9
			c-0.5-0.5-0.8-1.3-0.8-2.2c0-2.6,1-5,3-7.1s4.5-3.1,7.5-3.1c3.4,0,6.3,1,8.5,3.1c2.3,2.1,3.4,4.7,3.4,7.9c0,1.1-0.2,2.2-0.5,3.2
			c-0.3,1-0.7,1.9-1.2,2.7c-0.4,0.8-1.3,1.8-2.5,3.1c-1.2,1.3-2.3,2.4-3.3,3.3s-2.5,2.3-4.7,4.2l-6,5.8H176c3.3,0,5.1-0.1,5.3-0.4
			c0.4-0.5,0.8-2.2,1.2-5h1.4l-1.6,9.9H161.6z"/>
	</g>
</g>
<g>
	<g>
		<path class="st6" d="M123.5,220.7V72.7h18.5v3.3h-10.4v141.6h10.4v3.3H123.5z"/>
	</g>
</g>
<g>
	<g>
		<path class="st6" d="M203.5,217.5h10.4V76h-10.4v-3.3H222v148.1h-18.5V217.5z"/>
	</g>
</g>
<g>
	<path class="st6" d="M249.9,143.4c0-0.6,0.5-0.9,1.6-0.9h48c1.6,0,2.4,0.3,2.4,0.9c0,0.6-0.7,0.8-2,0.8h-48.4
		C250.4,144.2,249.9,143.9,249.9,143.4z M249.9,158.7c0.1-0.6,0.6-0.9,1.6-0.9h48.1c1.5,0,2.3,0.3,2.3,0.8c0,0.6-0.7,0.9-2.1,0.9
		H252C250.6,159.5,249.9,159.3,249.9,158.7z"/>
</g>
<g>
	<path class="st9" d="M335.2,153.9c0-8.8,1.6-16.8,4.9-24c1.4-3,3.1-5.7,5.1-8.2c2-2.5,3.6-4.3,4.9-5.4c1.3-1.1,2.1-1.6,2.5-1.6
		c0.5,0,0.8,0.3,0.8,0.8c0,0.3-0.3,0.7-1,1.3c-8.4,8.6-12.6,21-12.6,37.1c0,16.2,4.1,28.5,12.3,36.7c0.9,0.9,1.3,1.5,1.3,1.8
		c0,0.5-0.3,0.8-0.8,0.8c-0.4,0-1.2-0.5-2.4-1.6c-1.3-1-2.8-2.8-4.8-5.2c-1.9-2.4-3.6-5.1-5-8C336.9,171.2,335.2,163.1,335.2,153.9z
		"/>
	<path class="st9" d="M357.8,153.5v-2.7H397v2.7H357.8z"/>
	<path class="st9" d="M400.7,160.6c0-1.6,0.5-2.8,1.4-3.4c0.9-0.6,1.8-1,2.8-1c1.1,0,2,0.4,2.7,1.2c0.7,0.8,1,1.7,1,2.9
		c0,1.1-0.3,2.1-1,2.9c-0.7,0.8-1.6,1.2-2.7,1.2c-0.6,0-1.1-0.1-1.4-0.2c0.7,2.4,2.1,4.5,4.2,6.2c2.1,1.7,4.5,2.6,7.3,2.6
		c3.5,0,6.3-1.7,8.4-5.2c1.3-2.2,1.9-5.9,1.9-11c0-4.3-0.5-7.5-1.4-9.6c-1.5-3.3-3.7-4.9-6.7-4.9c-4.2,0-7.6,1.8-10.1,5.3
		c-0.3,0.4-0.6,0.7-0.9,0.7c-0.5,0-0.7-0.1-0.9-0.4c-0.1-0.3-0.2-0.8-0.2-1.6v-23.1c0-1.2,0.3-1.9,0.8-1.9c0.2,0,0.5,0.1,1,0.2
		c3.3,1,6.8,1.6,10.4,1.6c3.8,0,7.3-0.8,10.7-2.3c0.3-0.2,0.5-0.2,0.6-0.2c0.5,0,0.8,0.3,0.8,0.9c0,0.2-0.2,0.6-0.6,1.2
		c-0.4,0.6-1.1,1.4-2,2.2c-0.9,0.9-1.9,1.7-3.1,2.5s-2.6,1.5-4.3,2.1c-1.7,0.6-3.5,0.8-5.3,0.8c-2.2,0-4.5-0.3-6.7-1v15.2
		c2.7-2.6,6-3.9,10-3.9c4.2,0,7.7,1.7,10.6,5s4.3,7.3,4.3,11.9c0,5-1.7,9.3-5.1,12.7c-3.4,3.4-7.4,5.2-12,5.2
		c-4.2,0-7.7-1.5-10.3-4.5C402,167.6,400.7,164.3,400.7,160.6z"/>
	<path class="st9" d="M440.8,192.3c0-0.3,0.3-0.7,1-1.3c8.4-8.6,12.6-21,12.6-37.1c0-16.2-4-28.4-12.2-36.6c-1-0.9-1.5-1.6-1.5-1.8
		c0-0.5,0.3-0.8,0.8-0.8c0.4,0,1.2,0.5,2.4,1.6c1.3,1,2.9,2.8,4.8,5.2c1.9,2.4,3.6,5.1,5,8c3.5,7.1,5.2,15.3,5.2,24.5
		c0,8.8-1.6,16.8-4.9,24c-1.4,3-3.1,5.7-5.1,8.2s-3.6,4.3-4.9,5.4c-1.3,1.1-2.1,1.6-2.5,1.6C441,193.1,440.8,192.9,440.8,192.3z"/>
	<path class="st9" d="M473.3,150.9c0-0.2,0.1-0.6,0.3-1.4c0.2-0.8,0.6-1.8,1.1-3c0.5-1.2,1.2-2.4,1.9-3.5c0.7-1.1,1.7-2.1,2.9-2.9
		c1.2-0.8,2.5-1.2,3.8-1.2c1.6,0,3,0.5,4.2,1.6c1.2,1.1,1.8,2.6,1.8,4.7c0,1.1-0.4,2.5-1.1,4.3l-5,13.5c-1.3,3.9-2,6.4-2,7.6
		c0,1.5,0.6,2.2,1.7,2.2c3.1,0,5.5-3.3,7.3-9.8c0.2-0.6,0.3-1,0.4-1.1c0.1-0.1,0.4-0.2,0.9-0.2c0.8,0,1.2,0.3,1.2,0.8
		c0,0.2-0.1,0.6-0.3,1.4c-0.2,0.8-0.6,1.8-1.1,3c-0.5,1.2-1.1,2.4-1.9,3.6c-0.7,1.1-1.7,2.1-2.9,3c-1.2,0.8-2.5,1.2-3.8,1.2
		c-1.9,0-3.4-0.6-4.4-1.9c-1-1.3-1.5-2.7-1.5-4.4c0-1.1,0.5-2.9,1.4-5.5c1.3-3.4,2.2-6,2.9-7.7l2.3-6.5c0.9-2.6,1.4-4.4,1.4-5.7
		c0-1.5-0.6-2.2-1.7-2.2c-3.1,0-5.5,3.3-7.3,9.9c-0.2,0.6-0.3,0.9-0.5,1.1c-0.2,0.1-0.5,0.2-0.9,0.2
		C473.7,151.7,473.3,151.4,473.3,150.9z M485.9,125.8c0-1,0.4-1.9,1.2-2.7c0.8-0.7,1.7-1.1,2.6-1.1c0.7,0,1.3,0.2,1.9,0.6
		s0.8,1.1,0.8,2c0,1-0.4,1.9-1.3,2.7c-0.8,0.7-1.7,1.1-2.6,1.1c-0.7,0-1.3-0.2-1.9-0.6C486.2,127.3,485.9,126.7,485.9,125.8z"/>
	<path class="st6" d="M523.3,153.9c0-0.6,0.6-0.9,1.9-0.9c0.2,0,0.4,0,0.6,0c0.3,0,0.4,0,0.5,0h22.1v-22.2c0-0.1,0-0.2,0-0.4
		s0-0.4,0-0.6c0-1.3,0.3-1.9,1-1.9c0.7,0,1,0.6,1,1.9V153h22.2c0.1,0,0.2,0,0.5,0c0.3,0,0.5,0,0.6,0c1.2,0,1.8,0.3,1.8,0.9
		c0,0.6-0.6,0.9-1.9,0.9c-0.2,0-0.3,0-0.6,0c-0.2,0-0.4,0-0.4,0h-22.2v23.3c0,1.2-0.3,1.8-1,1.8c-0.7,0-1-0.6-1-1.9
		c0-0.2,0-0.4,0-0.6s0-0.4,0-0.4v-22.2h-22.1c-0.1,0-0.2,0-0.5,0c-0.3,0-0.5,0-0.7,0C523.9,154.8,523.3,154.5,523.3,153.9z"/>
	<path class="st8" d="M613.8,153.9c0-8.8,1.6-16.8,4.9-24c1.4-3,3.1-5.7,5.1-8.2c2-2.5,3.6-4.3,4.9-5.4c1.3-1.1,2.1-1.6,2.5-1.6
		c0.5,0,0.8,0.3,0.8,0.8c0,0.3-0.3,0.7-1,1.3c-8.4,8.6-12.6,21-12.6,37.1c0,16.2,4.1,28.5,12.3,36.7c0.9,0.9,1.3,1.5,1.3,1.8
		c0,0.5-0.3,0.8-0.8,0.8c-0.4,0-1.2-0.5-2.4-1.6c-1.3-1-2.8-2.8-4.8-5.2c-1.9-2.4-3.6-5.1-5-8C615.5,171.2,613.8,163.1,613.8,153.9z
		"/>
	<path class="st8" d="M640.3,173.5c0-0.9,0-1.6,0.1-1.8c0.1-0.3,0.3-0.6,0.7-1.1l14.9-16.8c5.5-6.2,8.3-12,8.3-17.4
		c0-3.5-0.9-6.5-2.7-9c-1.8-2.5-4.4-3.7-7.8-3.7c-2.3,0-4.4,0.7-6.3,2.1c-1.9,1.4-3.3,3.3-4.2,5.8c0.2-0.1,0.5-0.1,1-0.1
		c1.3,0,2.3,0.4,3,1.2c0.7,0.8,1.1,1.8,1.1,2.9c0,1.4-0.4,2.5-1.3,3.2c-0.9,0.7-1.8,1-2.7,1c-0.4,0-0.8,0-1.2-0.1
		c-0.5-0.1-1.1-0.5-1.8-1.2c-0.7-0.7-1.1-1.8-1.1-3.1c0-3.6,1.4-6.9,4.1-9.8c2.7-2.9,6.2-4.4,10.4-4.4c4.8,0,8.7,1.4,11.8,4.3
		c3.1,2.8,4.7,6.5,4.7,10.9c0,1.6-0.2,3.1-0.7,4.5c-0.5,1.4-1,2.7-1.6,3.8c-0.6,1.1-1.8,2.5-3.4,4.3c-1.7,1.8-3.2,3.3-4.5,4.5
		c-1.3,1.3-3.5,3.2-6.5,5.9l-8.3,8.1h14c4.6,0,7-0.2,7.4-0.6c0.5-0.7,1.1-3.1,1.7-7h2l-2.2,13.6H640.3z"/>
	<path class="st8" d="M680.2,192.3c0-0.3,0.3-0.7,1-1.3c8.4-8.6,12.6-21,12.6-37.1c0-16.2-4-28.4-12.2-36.6c-1-0.9-1.5-1.6-1.5-1.8
		c0-0.5,0.3-0.8,0.8-0.8c0.4,0,1.2,0.5,2.4,1.6c1.3,1,2.9,2.8,4.8,5.2c1.9,2.4,3.6,5.1,5,8c3.5,7.1,5.2,15.3,5.2,24.5
		c0,8.8-1.6,16.8-4.9,24c-1.4,3-3.1,5.7-5.1,8.2s-3.6,4.3-4.9,5.4c-1.3,1.1-2.1,1.6-2.5,1.6C680.4,193.1,680.2,192.9,680.2,192.3z"
		/>
	<path class="st8" d="M703.4,185c0-1.4,0.4-2.4,1.3-3.1c0.8-0.7,1.7-1.1,2.6-1.1c0.9,0,1.6,0.3,2.1,0.8c0.4,0.5,0.7,1.1,0.7,1.7
		c0,0.3-0.1,0.6-0.2,1c-0.1,0.4-0.4,0.9-0.9,1.5c-0.5,0.6-1.1,1-1.9,1.3c0.9,0.5,1.8,0.7,2.6,0.7c2.2,0,4.1-1.1,5.7-3.2
		c1.6-2.1,2.7-4.5,3.3-7.1l7.4-29.9c0.3-1.5,0.5-2.8,0.5-4c0-2.1-0.7-3.1-2.2-3.1c-3.5,0-6.6,3.3-9.2,9.8c-0.1,0.5-0.3,0.8-0.4,0.9
		c-0.1,0.2-0.2,0.3-0.4,0.3c-0.1,0.1-0.4,0.1-0.7,0.1c-0.8,0-1.2-0.3-1.2-0.8c0-0.2,0.2-0.6,0.5-1.4c0.3-0.8,0.8-1.8,1.5-3
		c0.7-1.2,1.5-2.4,2.4-3.5c0.9-1.1,2-2.1,3.4-2.9c1.3-0.8,2.7-1.2,4.2-1.2c2.1,0,3.8,0.7,5,2.1c1.2,1.4,1.8,3,1.8,5
		c0,0.9-0.2,1.8-0.5,2.6l-7.3,29.4c-0.8,3.3-2.6,6.1-5.3,8.4c-2.7,2.3-5.6,3.4-8.6,3.4c-1.8,0-3.3-0.4-4.5-1.2
		S703.4,186.4,703.4,185z M727.6,125.8c0-0.9,0.4-1.8,1.2-2.6c0.8-0.8,1.7-1.2,2.7-1.2c0.6,0,1.3,0.2,1.8,0.6
		c0.6,0.4,0.9,1.1,0.9,2.1c0,0.9-0.4,1.8-1.2,2.5c-0.8,0.8-1.7,1.1-2.6,1.1c-0.9,0-1.6-0.3-2-0.8C727.8,127,727.6,126.4,727.6,125.8
		z"/>
</g>
<g>
	<path class="st9" d="M476.4,118.2l14.7-11.3l14.8,11.3l-1.2,1.6l-13.6-8.8l-13.5,8.8L476.4,118.2z"/>
</g>
<g>
	<g>
		<path class="st8" d="M716.7,118.2l14.7-11.3l14.8,11.3l-1.2,1.6l-13.6-8.8l-13.5,8.8L716.7,118.2z"/>
	</g>
</g>
</svg>
