<svg xmlns="http://www.w3.org/2000/svg" viewBox="-5.0 -10.0 110.0 135.0">
  <title>Edy Susanto</title>
  <desc>https://thenounproject.com/icon/brain-8234764/</desc>
  <path
    fill="none"
    stroke="black"
    d="m 34.59 63.652 c -2.5156 -0.0977 -4.707 -0.6797 -6.4961 -1.7109 c -1.6445 -0.9492 -2.9375 -2.2578 -3.832 -3.9102 c -4.0156 0.7617 -7.3867 -0.1367 -9.8477 -1.9531 c -1.5391 -1.1367 -2.7148 -2.6367 -3.4688 -4.3125 c -0.75 -1.6836 -1.0781 -3.5391 -0.918 -5.3945 c 0.2656 -3.082 1.8438 -6.1602 5.0078 -8.4102 c 0.8672 -3.6367 2.7539 -6.6133 5.2109 -8.7422 c 2.5859 -2.2461 5.8086 -3.5508 9.1328 -3.6953 c 2.2852 -2.3711 4.7344 -3.9453 7.3516 -4.7227 c 2.6523 -0.7891 5.4297 -0.75 8.3359 0.1094 c 6.3789 -2.7969 12.32 -2.5898 17.816 0.6172 c 5.5352 -0.1953 9.6641 1.6797 12.387 5.625 c 7.1523 1.9883 10.875 6.3555 11.176 13.109 c 1.1641 1.3047 2.0547 2.8164 2.6523 4.4336 c 0.9023 2.4297 1.1484 5.0898 0.6875 7.6094 c -0.4688 2.5586 -1.6523 4.9766 -3.6055 6.8828 c -1.0508 1.0234 -2.3203 1.8984 -3.8203 2.5625 c -0.1367 0.6523 -0.3398 1.293 -0.5977 1.918 c -1.1719 2.8281 -3.5156 5.2422 -6.4688 6.832 c -2.9141 1.5664 -6.4375 2.3438 -10.004 1.9141 c -0.2656 -0.0313 -0.5352 -0.0703 -0.8047 -0.1172 c 0.375 0.7266 0.7383 1.418 1.0859 2.0742 c 0.1719 0.3242 0.3594 0.6211 0.5273 0.8828 c 1.1328 1.793 1.8203 2.8789 -0.5117 4.7852 c -1.4688 1.1992 -3.0977 1.3281 -4.8906 0.3867 c -1.4102 -0.7422 -2.9141 -2.2383 -4.5078 -4.4883 l -0.0273 -0.0391 l -0.0039 0.0039 c -1.6562 -2.4883 -3.332 -4.6406 -5.0273 -6.457 c -1.4961 -1.6094 -3.0039 -2.9492 -4.5195 -4.0234 c -2.7969 0.6172 -5.1797 0.7891 -7.1484 0.5117 c -2.043 -0.293 -3.6719 -1.0508 -4.8711 -2.2812 z "
  />
</svg>
