<svg xmlns="http://www.w3.org/2000/svg" viewBox="-5.0 -10.0 110.0 135.0">
  <title>Rachel Fredericks</title>
  <desc>https://thenounproject.com/icon/elephant-6868375/</desc>
  <path
    fill="none"
    stroke="black"
    d="m 96.723 78.723 c -0.3438 -0.457 -0.6641 -0.8906 -0.793 -1.2344 c -0.3047 -0.8125 -0.6172 -1.6875 -0.8164 -2.6133 c -0.6719 -1.7344 -0.9023 -3.6016 -1.1289 -5.4062 c -0.0703 -0.5547 -0.1406 -1.1289 -0.2227 -1.6875 c -0.1523 -0.9141 -0.375 -1.8242 -0.5859 -2.7031 c -0.2422 -0.9961 -0.4922 -2.0234 -0.6445 -3.0703 c -0.7266 -4.1094 -0.4844 -7.7891 -0.25 -11.348 c 0.2188 -3.3555 0.4297 -6.5195 -0.2305 -9.6484 c -0.3516 -1.6719 -0.9258 -3.2031 -1.7461 -4.6836 c -0.9141 -1.6445 -2.1211 -3.1953 -3.6875 -4.7383 l -0.0898 -0.1445 c -4.2695 -6.7812 -9.1094 -14.469 -18.367 -11.328 c -2.457 0.4219 -5.0391 0.2695 -7.5352 0.1172 c -0.5391 -0.0352 -1.0898 -0.0664 -1.625 -0.0938 c -0.6875 -0.0898 -1.3945 -0.1094 -2.0742 -0.125 c -0.6953 -0.0195 -1.4102 -0.0391 -2.1094 -0.1328 c -1.4961 -0.2344 -2.9727 -0.6914 -4.4023 -1.1328 c -0.207 -0.0625 -0.4141 -0.1289 -0.6211 -0.1914 c -1.1367 -0.3359 -2.1055 -1.0742 -3.043 -1.7891 c -1.2578 -0.957 -2.5547 -1.9453 -4.2539 -1.9453 h -0.0273 c -1.5508 -0.1016 -3.1992 -0.1719 -4.8164 0.2031 c -2.918 0.9805 -6.2344 1.5977 -10.438 1.9414 c -1.3867 0.1445 -2.7852 -0.2227 -4.0938 -0.6406 c -2.7812 -0.6523 -5.5547 -0.0391 -7.4258 1.6367 c -2.2344 2.0898 -5.207 6.2031 -7.9492 11.004 c -2.7578 4.8203 -4.6992 9.3203 -5.1953 12.031 c -0.7617 4.1797 -0.8516 5.0586 0.4805 11.598 c 0.5508 2.7031 1.8281 5.2695 3.6016 7.2227 c 1.832 2.0195 4.0312 3.1875 6.1992 3.2891 c 0.1211 0.0078 0.2422 0.0078 0.3594 0.0078 c 1.5586 0 2.8281 -0.4844 3.7852 -1.4414 c 1.1719 -1.1719 1.543 -2.7695 1.5078 -3.5547 c -0.1055 -2.2617 -0.5547 -3.1641 -0.9883 -4.0352 c -0.0781 -0.1563 -0.1523 -0.3047 -0.2227 -0.4648 c -0.3867 -0.8398 -0.8828 -1.3828 -1.3672 -1.4922 c -0.293 -0.0664 -0.5859 0.0156 -0.8672 0.2461 c -0.2227 0.1797 -0.3516 0.4844 -0.3906 0.9023 c -0.0977 1.0352 0.4102 2.4688 0.4961 2.5938 c 0.0273 0.7734 -0.3438 1.3594 -1.0195 1.6055 c -0.5352 0.1953 -1.1992 0.1641 -1.8711 -0.0859 c -0.7305 -0.2695 -1.3945 -0.7695 -1.9141 -1.4375 c -1.7734 -2.2852 -1.0977 -7.5977 -0.8477 -9.168 c 0.2422 -1.5352 1.1602 -3.5586 2.0469 -4.5156 c 0.4453 -0.4805 1.1523 -0.1211 1.9023 0.2617 c 0.7031 0.3555 1.4297 0.7266 2.082 0.5352 c 0.7539 -0.2188 1.0742 -0.6875 1.3555 -1.1016 c 0.2344 -0.3438 0.4609 -0.6719 0.8945 -0.8125 c 0.2227 -0.0703 0.6172 -0.1172 1.1172 -0.1797 c 1.6484 -0.1992 4.3984 -0.5352 5.1602 -2.2891 c 0.0391 0.3984 0.0273 0.8555 0.0156 1.3359 c -0.043 1.5234 -0.0938 3.25 1.5586 3.9062 c 0.668 0.2656 1.3633 0.3789 2.0391 0.3789 c 1.4336 0 2.7969 -0.5078 3.6875 -1.1562 c -0.8047 1.6172 -1.0078 3.2305 -1.2227 4.9375 l -0.0273 0.2148 c -0.1016 0.4492 -0.2734 0.8945 -0.4453 1.3281 c -0.168 0.4297 -0.3398 0.8711 -0.4453 1.3203 c -0.1523 0.6758 -0.2539 1.3711 -0.3477 2.0469 c -0.1211 0.8672 -0.25 1.7617 -0.4961 2.6172 c -0.4531 1.3477 -1.0156 2.7109 -1.5547 4.0234 c -1.4336 3.4883 -2.918 7.0938 -2.6758 10.973 c 0.0117 0.5781 -0.1953 1.1094 -0.3906 1.6211 c -0.1211 0.3125 -0.2461 0.6367 -0.3203 0.9727 l -0.0117 0.0508 c -0.3086 1.6094 -0.6289 3.2695 -1.3125 4.7773 c -0.4102 0.6953 -0.9063 1.1641 -1.3906 1.6172 c -0.8047 0.7578 -1.5625 1.4688 -1.7617 3.1289 v 0.0078 c 0.4727 1.7812 2.6367 1.918 4.2188 2.0195 c 0.1016 0.0078 0.1992 0.0117 0.293 0.0195 c 0.3047 0.0039 0.625 0.0195 0.9297 0.0313 c 1.5664 0.0703 3.1914 0.1445 4.4492 -0.957 c 1.0117 -0.7539 0.7578 -1.9141 0.5117 -3.0391 c -0.0859 -0.3945 -0.168 -0.7656 -0.1953 -1.1172 c 0.0156 -1.0547 0.3047 -2.1133 0.5859 -3.1367 c 0.0586 -0.2109 0.1172 -0.4297 0.1719 -0.6406 c 0.1523 -0.4063 0.3008 -0.8242 0.4414 -1.2344 c 0.4531 -1.2969 0.9219 -2.6367 1.6602 -3.8164 c 0.2188 -0.2695 0.4453 -0.543 0.6602 -0.8047 c 0.668 -0.8047 1.3594 -1.6367 1.9297 -2.5391 c 0.4531 -0.5781 0.8281 -1.2188 1.1914 -1.8398 c 0.2852 -0.4883 0.5859 -0.9922 0.918 -1.4648 c 0.3242 -0.3945 0.6797 -0.7617 1.0273 -1.1172 c 0.7578 -0.7813 1.5391 -1.5898 2.043 -2.7305 c 0.4414 -1.0078 0.5117 -2.0547 0.582 -3.1641 c 0.0469 -0.7344 0.0977 -1.4961 0.2539 -2.3281 c 2.3789 4.4922 3.1016 8.2344 3.8711 12.195 c 0.4688 2.4297 0.957 4.9375 1.8398 7.8281 c 0.4297 3.6289 -0.0859 4.3945 -0.9414 5.668 c -0.4219 0.6328 -0.9492 1.418 -1.4766 2.7578 c -0.0742 0.3945 0.0039 0.7305 0.2227 0.9922 c 0.7031 0.8516 2.7695 0.8594 4.1367 0.8672 c 0.3789 0.0039 0.7031 0.0039 0.9414 0.0195 c 0.3516 -0.0195 0.7227 -0.0352 1.0742 -0.0508 c 2.3281 -0.1016 4.7383 -0.2031 5.3594 -1.4688 c 0.4063 -0.8242 0.0117 -2.0586 -1.1953 -3.7656 c -0.0977 -0.6367 -0.125 -1.293 -0.1523 -1.9258 c -0.0273 -0.6211 -0.0508 -1.2656 -0.1484 -1.8984 c -0.0703 -0.3398 -0.1484 -0.6797 -0.2188 -1.0117 c -0.2344 -1.0547 -0.4531 -2.0547 -0.582 -3.1367 c -0.1484 -1.6133 -0.4648 -3.2227 -0.7695 -4.7812 c -0.3438 -1.7617 -0.6992 -3.5781 -0.8164 -5.4062 c 0.0352 -1.4531 0.6484 -2.8047 1.2422 -4.1133 c 0.4688 -1.0273 0.9492 -2.0938 1.1523 -3.2031 c 3.6562 1.6992 5.4062 1.6055 7.4375 1.5 c 1.2773 -0.0664 2.6016 -0.1367 4.5508 0.2383 c 0.9609 0.6523 1.5938 1.6719 2.2109 2.6562 c 0.3516 0.5664 0.7148 1.1484 1.1367 1.6523 c 0.3125 0.4453 0.6719 0.8789 1.0156 1.293 c 0.6992 0.8438 1.4219 1.7148 1.8086 2.7656 c 0.8086 1.9297 1.4727 5.1992 1.1328 8.1484 c -0.2539 2.1875 -1.2383 4.0742 -1.7109 4.9805 l -0.0156 0.0273 c -0.1797 0.3398 -0.3672 0.6875 -0.5703 1.0547 c -0.9805 1.7852 -1.9922 3.6289 -1.4648 4.5781 c 0.5156 0.9258 1.4883 0.9063 3.0977 0.875 c 0.375 -0.0078 0.8008 -0.0156 1.2578 -0.0117 c 2.3945 0.0156 3.3984 -0.1328 4.9219 -0.3594 c 1.3281 -0.3633 2.0469 -1.1914 2.1914 -2.5352 c 0.125 -1.1797 -0.1953 -2.5859 -0.5039 -3.9414 c -0.2461 -1.0898 -0.4805 -2.1172 -0.4688 -2.9531 c -0.0781 -2.1367 0.2266 -4.293 0.5195 -6.3789 c 0.2656 -1.8867 0.543 -3.8398 0.5352 -5.7734 c 1.8047 1.1484 3.6055 2.4531 4.1055 4.6211 c 0.2344 0.7813 0.4766 1.5781 0.7109 2.3477 c 0.7305 2.3984 1.4883 4.8789 2.1133 7.3555 c 0.2305 0.918 0.3867 1.6992 0.5508 2.5234 c 0.043 0.207 0.0859 0.418 0.1289 0.6328 c 0.1133 0.5625 -0.0078 1.1992 -0.1289 1.8125 c -0.1445 0.7461 -0.2813 1.4492 0.0859 1.8477 c 0.4063 0.4414 1.2578 0.6719 2.3906 0.6445 c 1.1289 -0.0273 2.418 -0.3047 3.6289 -0.7813 c 0.1836 -0.0391 0.3672 -0.0742 0.5508 -0.1094 c 1.1875 -0.2266 2.3047 -0.4414 2.5625 -1.6523 c 0.2227 -0.8984 -0.543 -1.9258 -1.2188 -2.8281 z"
  />
</svg>
