<svg xmlns="http://www.w3.org/2000/svg" viewBox="-5.0 -10.0 110.0 135.0">
  <title>Deni Sudibyo</title>
  <desc>https://thenounproject.com/icon/mountain-6834840/</desc>
  <path
    fill="none"
    stroke="black"
    d="m 86.34 61.754 l -4.0703 -4.582 l -6.7891 -2.8906 l -12.082 -10.996 l -3.9336 3.0234 l -2.9102 -1.2539 l -5.5352 -7.3789 l -13.281 10.234 l -2.1875 -2.3594 l -8.3125 8.4844 l -0.9141 -1.6016 l -12.664 9.8906 l 6.4453 -0.8359 l 1.4297 -3.5195 l 7.8164 -4.1094 l -0.5898 3.2773 l 3.1797 -3.2773 l 2.4336 -3.7656 l 0.2461 4.3555 l 4.625 3.9414 l -2.9727 -4.1289 l -0.0742 -4.0312 l 4.4727 3.6289 l -2.6875 -4.1641 l 8.4648 5.8398 l -5.6094 -6.4492 l 5.6094 2.5898 l 0.7656 2.3594 l 2.6797 0.9102 l 1.2539 4.2812 l 4.7031 -0.8359 l 7.625 1.1797 l -7.2852 -3.1016 l -1.3516 -2.1875 l -4.2812 -2.5117 l 7.1367 2.5117 l -8.1406 -8.7305 l 3.1953 1.2734 l -2.4336 -4.1094 l 0.9688 -1.6367 l 2.7188 4.0117 l 7.2109 5.8789 l 1.8984 2.9844 l -2.0117 0.8438 l 2.6641 -0.0781 l 0.3398 -2.1133 l 6.7539 3.2734 l -8.9609 -8.5586 l 2.7578 0.7578 l -2.5117 -2.4336 l 5.3242 2.4688 l 1.0859 1.9258 l 5.9141 5.9727 l 7.2109 2.3789 z"
  />
</svg>
