<svg width="540" height="540" viewBox="0 0 540 540" fill="none" xmlns="http://www.w3.org/2000/svg">
<g clip-path="url(#clip0_755_7148)">
<path d="M540 0H0V540H540V0Z" fill="black"/>
<path d="M81.6511 274.182H66.0362V289.126H81.6511V274.182Z" fill="black"/>
<g clip-path="url(#clip1_755_7148)">
<path d="M69.2862 279.951C69.3707 279.444 69.6965 278.859 70.2635 278.196C70.8306 277.532 71.5304 277.194 72.3629 277.182C72.7852 277.182 73.1713 277.291 73.5212 277.508C73.871 277.725 74.1304 277.996 74.2994 278.322C74.8061 277.562 75.4154 277.182 76.1272 277.182C76.5737 277.182 76.9598 277.315 77.2855 277.58C77.6113 277.846 77.7802 278.202 77.7923 278.648C77.7923 278.998 77.7078 279.281 77.5389 279.499C77.37 279.716 77.2071 279.848 77.0502 279.897C76.8934 279.945 76.7546 279.969 76.634 279.969C76.4047 279.969 76.2177 279.903 76.073 279.77C75.9282 279.637 75.8558 279.462 75.8558 279.245C75.8558 278.69 76.1574 278.31 76.7607 278.105C76.628 277.948 76.3867 277.87 76.0368 277.87C75.8799 277.87 75.7653 277.882 75.6929 277.906C75.2344 278.099 74.8966 278.497 74.6794 279.1C73.9555 281.767 73.5935 283.323 73.5935 283.77C73.5935 284.107 73.6901 284.349 73.8831 284.494C74.0762 284.638 74.2873 284.711 74.5165 284.711C74.963 284.711 75.4033 284.512 75.8377 284.114C76.272 283.715 76.5676 283.227 76.7245 282.648C76.7607 282.527 76.7969 282.461 76.8331 282.449C76.8693 282.436 76.9658 282.424 77.1226 282.412H77.195C77.376 282.412 77.4665 282.461 77.4665 282.557C77.4665 282.569 77.4544 282.636 77.4303 282.756C77.2373 283.444 76.8632 284.053 76.3082 284.584C75.7532 285.115 75.1077 285.38 74.3718 285.38C73.5272 285.38 72.8877 285 72.4534 284.24C71.9587 284.988 71.3916 285.362 70.7522 285.362H70.6436C70.0524 285.362 69.6301 285.205 69.3767 284.892C69.1234 284.578 68.9906 284.246 68.9786 283.896C68.9786 283.51 69.0932 283.197 69.3224 282.955C69.5517 282.714 69.8231 282.593 70.1368 282.593C70.6556 282.593 70.9151 282.847 70.9151 283.353C70.9151 283.595 70.8427 283.806 70.6979 283.987C70.5531 284.168 70.4143 284.288 70.2816 284.349C70.1489 284.409 70.0705 284.439 70.0464 284.439L69.9921 284.457C69.9921 284.469 70.0283 284.494 70.1006 284.53C70.173 284.566 70.2696 284.608 70.3902 284.656C70.5109 284.705 70.6255 284.723 70.7341 284.711C71.1684 284.711 71.5424 284.439 71.8561 283.896C71.9647 283.703 72.1035 283.293 72.2724 282.666C72.4413 282.038 72.6102 281.387 72.7791 280.711C72.9481 280.035 73.0446 279.637 73.0687 279.517C73.129 279.191 73.1592 278.956 73.1592 278.811C73.1592 278.473 73.0687 278.232 72.8877 278.087C72.7067 277.942 72.5016 277.87 72.2724 277.87C71.7898 277.87 71.3373 278.063 70.9151 278.449C70.4928 278.835 70.1972 279.33 70.0283 279.933C70.0041 280.041 69.974 280.102 69.9378 280.114C69.9016 280.126 69.805 280.138 69.6482 280.15H69.3948C69.3224 280.078 69.2862 280.011 69.2862 279.951Z" fill="#92D192"/>
</g>
<path d="M318.7 340.116H303.315V358.893H318.7V340.116Z" fill="black"/>
<g clip-path="url(#clip2_755_7148)">
<path d="M306.281 345.922C306.281 345.753 306.371 345.464 306.552 345.054C306.733 344.643 307.023 344.215 307.421 343.768C307.819 343.322 308.266 343.105 308.761 343.117C309.255 343.117 309.654 343.255 309.955 343.533C310.257 343.811 310.414 344.197 310.426 344.691C310.402 344.921 310.384 345.047 310.372 345.072C310.372 345.108 310.275 345.385 310.082 345.904C309.889 346.423 309.69 347.009 309.485 347.66C309.28 348.312 309.183 348.831 309.195 349.217C309.195 349.736 309.28 350.098 309.448 350.303C309.617 350.508 309.871 350.617 310.209 350.629C310.486 350.629 310.746 350.563 310.987 350.43C311.229 350.297 311.416 350.158 311.548 350.013C311.681 349.869 311.844 349.67 312.037 349.416C312.037 349.404 312.067 349.283 312.128 349.054C312.188 348.825 312.272 348.469 312.381 347.986C312.49 347.503 312.604 347.057 312.725 346.647C313.184 344.836 313.437 343.889 313.485 343.804C313.642 343.479 313.902 343.316 314.264 343.316C314.42 343.316 314.547 343.358 314.644 343.442C314.74 343.527 314.807 343.599 314.843 343.66C314.879 343.72 314.891 343.774 314.879 343.823C314.879 343.979 314.583 345.247 313.992 347.624C313.401 350.001 313.063 351.305 312.978 351.534C312.64 352.536 312.055 353.332 311.222 353.924C310.39 354.515 309.557 354.817 308.724 354.829C308.181 354.829 307.705 354.696 307.294 354.43C306.884 354.165 306.679 353.767 306.679 353.236C306.679 352.97 306.721 352.747 306.806 352.566C306.89 352.385 307.005 352.252 307.15 352.168C307.294 352.083 307.415 352.023 307.512 351.987C307.608 351.95 307.711 351.932 307.819 351.932C308.35 351.932 308.616 352.186 308.616 352.693C308.616 352.934 308.543 353.145 308.399 353.326C308.254 353.507 308.115 353.628 307.982 353.688C307.849 353.749 307.771 353.779 307.747 353.779L307.693 353.797C307.717 353.857 307.831 353.93 308.037 354.014C308.242 354.098 308.447 354.141 308.652 354.141H308.797C309.002 354.141 309.159 354.129 309.267 354.105C309.666 353.996 310.034 353.767 310.372 353.417C310.71 353.067 310.969 352.693 311.15 352.294C311.331 351.896 311.47 351.558 311.566 351.281C311.663 351.003 311.711 350.822 311.711 350.738L311.603 350.81C311.53 350.858 311.416 350.925 311.259 351.009C311.102 351.094 310.945 351.166 310.788 351.226C310.547 351.287 310.311 351.317 310.082 351.317C309.527 351.317 309.038 351.184 308.616 350.919C308.193 350.653 307.916 350.225 307.783 349.633C307.771 349.549 307.765 349.362 307.765 349.072C307.765 348.384 307.976 347.485 308.399 346.375C308.821 345.265 309.032 344.559 309.032 344.257C309.032 344.245 309.032 344.233 309.032 344.221C309.032 344.112 309.032 344.04 309.032 344.004C309.032 343.967 309.008 343.925 308.96 343.877C308.911 343.829 308.845 343.804 308.761 343.804H308.688C308.411 343.804 308.157 343.919 307.928 344.148C307.699 344.378 307.518 344.625 307.385 344.891C307.252 345.156 307.15 345.41 307.077 345.651C307.005 345.892 306.956 346.025 306.932 346.049C306.908 346.073 306.812 346.085 306.643 346.085H306.389C306.317 346.013 306.281 345.959 306.281 345.922Z" fill="#F2777A"/>
</g>
<path d="M277.966 67.4902H263.416V82.4344H277.966V67.4902Z" fill="black"/>
<g clip-path="url(#clip3_755_7148)">
<path d="M272.006 72.3724C271.885 72.3724 271.565 72.3061 271.046 72.1734C270.528 72.0406 270.148 71.9743 269.906 71.9743C269.665 71.9743 269.46 71.9984 269.291 72.0467C269.122 72.0949 268.983 72.1553 268.875 72.2276C268.766 72.3 268.694 72.3664 268.657 72.4267C268.621 72.4871 268.579 72.5534 268.531 72.6258L268.495 72.6982C268.458 72.7344 268.368 72.7525 268.223 72.7525C267.97 72.7525 267.843 72.7043 267.843 72.6077C267.843 72.5474 267.861 72.4629 267.897 72.3543C268.054 71.8838 268.314 71.4796 268.675 71.1417C269.037 70.8039 269.436 70.5987 269.87 70.5263C270.015 70.5022 270.117 70.4902 270.178 70.4902C270.479 70.4902 270.751 70.5927 270.992 70.7978C271.233 71.003 271.463 71.202 271.68 71.3951C271.897 71.5882 272.126 71.6907 272.368 71.7028C272.633 71.7028 272.899 71.5037 273.164 71.1055C273.429 70.7073 273.568 70.5083 273.58 70.5083C273.592 70.4962 273.683 70.4902 273.852 70.4902H274.087C274.159 70.5625 274.196 70.6108 274.196 70.6349C274.196 70.6832 274.166 70.7677 274.105 70.8883C274.045 71.009 273.96 71.1357 273.852 71.2684C273.743 71.4011 273.641 71.5339 273.544 71.6666C273.448 71.7993 273.363 71.9139 273.291 72.0105L273.164 72.1734C272.645 72.7887 271.825 73.6032 270.703 74.6167C269.58 75.6302 268.887 76.2818 268.621 76.5714L268.404 76.7886L268.675 76.8067C268.941 76.8067 269.327 76.873 269.834 77.0058C270.341 77.1385 270.721 77.2049 270.974 77.2049C271.433 77.2049 271.855 77.0902 272.241 76.861C272.627 76.6317 272.88 76.3301 273.001 75.956C273.049 75.8474 273.092 75.7811 273.128 75.7569C273.164 75.7328 273.255 75.7207 273.399 75.7207C273.629 75.7207 273.743 75.7811 273.743 75.9017C273.743 75.9621 273.737 76.0164 273.725 76.0646C273.52 76.8127 273.122 77.4341 272.531 77.9288C271.939 78.4235 271.348 78.6769 270.757 78.689C270.443 78.689 270.166 78.5864 269.924 78.3813C269.683 78.1762 269.448 77.971 269.218 77.7659C268.989 77.5608 268.76 77.4582 268.531 77.4582C268 77.4582 267.523 77.8202 267.101 78.5442C267.028 78.6407 266.926 78.689 266.793 78.689H266.703H266.467C266.395 78.6166 266.359 78.5623 266.359 78.5261C266.359 78.3451 266.709 77.8262 267.409 76.9696C267.879 76.4266 268.675 75.6423 269.798 74.6167C270.92 73.5911 271.614 72.9395 271.879 72.662C272.024 72.469 272.066 72.3724 272.006 72.3724Z" fill="#6AB0F3"/>
</g>
<path d="M427.235 253.93L442.608 259.782L428.033 267.407L430.629 260.491L427.235 253.93Z" fill="#A0A0A0"/>
<path d="M102.153 286.698L86.7801 280.846L101.355 273.221L98.7591 280.137L102.153 286.698Z" fill="#A0A0A0"/>
<path d="M90.7731 280.61L438.615 260.019" stroke="#A0A0A0" stroke-width="1.5"/>
<path d="M244.431 234.765L243.622 218.336L256.455 228.626L249.079 229.023L244.431 234.765Z" fill="#A0A0A0"/>
<path d="M306.493 326.63L307.302 343.059L294.469 332.769L301.845 332.371L306.493 326.63Z" fill="#A0A0A0"/>
<path d="M305.483 339.496L245.441 221.898" stroke="#A0A0A0" stroke-width="1.5"/>
<path d="M276.75 414.578L270 429.578L263.25 414.578L270 417.578L276.75 414.578Z" fill="#A0A0A0"/>
<path d="M263.25 103.943L270 88.9429L276.75 103.943L270 100.943L263.25 103.943Z" fill="#A0A0A0"/>
<path d="M270 92.9429V425.578" stroke="#A0A0A0" stroke-width="1.5"/>
<path opacity="0.75" d="M264.594 235.927L275.396 235.35" stroke="#6AB0F3" stroke-width="1.5"/>
<path opacity="0.75" d="M270.944 237.307L269.066 233.987" stroke="#6AB0F3" stroke-width="1.5"/>
<path opacity="0.4" d="M264.729 303.847L275.262 303.165" stroke="#6AB0F3" stroke-width="1.5"/>
<path opacity="0.4" d="M270.92 305.479L269.089 301.552" stroke="#6AB0F3" stroke-width="1.5"/>
<path opacity="0.75" d="M234.987 273.964L233.492 270.289" stroke="#92D192" stroke-width="1.5"/>
<path opacity="0.75" d="M234.167 266.992L234.303 277.223" stroke="#92D192" stroke-width="1.5"/>
<path opacity="0.4" d="M306.448 269.712L304.244 266.123" stroke="#92D192" stroke-width="1.5"/>
<path opacity="0.4" d="M305.407 262.835L305.274 272.961" stroke="#92D192" stroke-width="1.5"/>
<path opacity="0.75" d="M270.879 282.874L281.911 282.197" stroke="#F2777A" stroke-width="1.5"/>
<path opacity="0.75" d="M276.413 277.28L276.388 287.771" stroke="#F2777A" stroke-width="1.5"/>
<path opacity="0.4" d="M258.859 258.592L269.181 258.001" stroke="#F2777A" stroke-width="1.5"/>
<path opacity="0.4" d="M264.014 253.345L264.035 263.229" stroke="#F2777A" stroke-width="1.5"/>
<path opacity="0.75" d="M264.524 200.648L275.466 200.128" stroke="#6AB0F3" stroke-width="1.5"/>
<path opacity="0.75" d="M270.956 201.891L269.054 198.901" stroke="#6AB0F3" stroke-width="1.5"/>
<path opacity="0.4" d="M264.794 336.553L275.197 335.822" stroke="#6AB0F3" stroke-width="1.5"/>
<path opacity="0.4" d="M270.909 338.301L269.1 334.094" stroke="#6AB0F3" stroke-width="1.5"/>
<path opacity="0.75" d="M198.606 276.129L197.479 272.41" stroke="#92D192" stroke-width="1.5"/>
<path opacity="0.75" d="M197.901 269.107L198.177 279.392" stroke="#92D192" stroke-width="1.5"/>
<path opacity="0.4" d="M341.544 267.623L338.997 264.076" stroke="#92D192" stroke-width="1.5"/>
<path opacity="0.4" d="M340.396 260.794L340.133 270.868" stroke="#92D192" stroke-width="1.5"/>
<path opacity="0.75" d="M277.553 296.358L288.979 295.631" stroke="#F2777A" stroke-width="1.5"/>
<path opacity="0.75" d="M283.299 290.572L283.245 301.395" stroke="#F2777A" stroke-width="1.5"/>
<path opacity="0.4" d="M253.429 247.621L263.428 247.068" stroke="#F2777A" stroke-width="1.5"/>
<path opacity="0.4" d="M258.412 242.533L258.453 252.138" stroke="#F2777A" stroke-width="1.5"/>
<path opacity="0.75" d="M264.452 164.443L275.537 163.984" stroke="#6AB0F3" stroke-width="1.5"/>
<path opacity="0.75" d="M270.969 165.542L269.042 162.899" stroke="#6AB0F3" stroke-width="1.5"/>
<path opacity="0.4" d="M264.857 368.463L275.134 367.685" stroke="#6AB0F3" stroke-width="1.5"/>
<path opacity="0.4" d="M270.898 370.321L269.111 365.849" stroke="#6AB0F3" stroke-width="1.5"/>
<path opacity="0.75" d="M161.78 278.321L161.03 274.556" stroke="#92D192" stroke-width="1.5"/>
<path opacity="0.75" d="M161.194 271.249L161.612 281.588" stroke="#92D192" stroke-width="1.5"/>
<path opacity="0.4" d="M376.226 265.559L373.345 262.054" stroke="#92D192" stroke-width="1.5"/>
<path opacity="0.4" d="M374.974 258.777L374.584 268.8" stroke="#92D192" stroke-width="1.5"/>
<path opacity="0.75" d="M284.739 310.875L296.587 310.091" stroke="#F2777A" stroke-width="1.5"/>
<path opacity="0.75" d="M290.713 304.883L290.625 316.059" stroke="#F2777A" stroke-width="1.5"/>
<path opacity="0.4" d="M248.336 237.333L258.034 236.814" stroke="#F2777A" stroke-width="1.5"/>
<path opacity="0.4" d="M253.16 232.395L253.218 241.736" stroke="#F2777A" stroke-width="1.5"/>
<path opacity="0.75" d="M264.379 127.276L275.611 126.88" stroke="#6AB0F3" stroke-width="1.5"/>
<path opacity="0.75" d="M270.982 128.222L269.029 125.946" stroke="#6AB0F3" stroke-width="1.5"/>
<path opacity="0.4" d="M264.919 399.606L275.072 398.785" stroke="#6AB0F3" stroke-width="1.5"/>
<path opacity="0.4" d="M270.887 401.568L269.122 396.845" stroke="#6AB0F3" stroke-width="1.5"/>
<path opacity="0.75" d="M124.502 280.539L124.139 276.728" stroke="#92D192" stroke-width="1.5"/>
<path opacity="0.75" d="M124.037 273.417L124.601 283.811" stroke="#92D192" stroke-width="1.5"/>
<path opacity="0.4" d="M410.503 263.519L407.295 260.055" stroke="#92D192" stroke-width="1.5"/>
<path opacity="0.4" d="M409.148 256.783L408.635 266.755" stroke="#92D192" stroke-width="1.5"/>
<path opacity="0.75" d="M292.497 326.548L304.799 325.7" stroke="#F2777A" stroke-width="1.5"/>
<path opacity="0.75" d="M298.718 320.335L298.592 331.886" stroke="#F2777A" stroke-width="1.5"/>
<path opacity="0.4" d="M243.551 227.666L252.964 227.178" stroke="#F2777A" stroke-width="1.5"/>
<path opacity="0.4" d="M248.225 222.869L248.297 231.961" stroke="#F2777A" stroke-width="1.5"/>
<path d="M192.497 194.032L165.36 296.295L248.468 377.365L270 270" fill="#8AFDFF" fill-opacity="0.3"/>
<path d="M192.497 194.032L165.36 296.295L248.468 377.365L270 270" stroke="#F0F0F0" stroke-width="1.5"/>
<path d="M198.484 209.353L192.497 194.032L207.934 199.712L201.067 202.432L198.484 209.353Z" fill="#FFF888"/>
<path d="M270 270L195.354 196.832" stroke="#FFF888" stroke-width="1.5"/>
<path d="M258.036 363.985L248.468 377.365L244.799 361.331L250.828 365.6L258.036 363.985Z" fill="#D582FF"/>
<path d="M270 270L249.255 373.443" stroke="#D582FF" stroke-width="1.5"/>
<path d="M185.924 170.348H168.988V191.173H185.924V170.348Z" fill="black"/>
<g clip-path="url(#clip4_755_7148)">
<path d="M178.731 178.667C178.876 178.703 179.443 178.721 180.432 178.721C181.313 178.721 181.789 178.703 181.862 178.667H181.97V179.789H180.704L178.876 183.878C178.14 185.543 177.718 186.448 177.609 186.592C177.513 186.713 177.398 186.773 177.265 186.773C177.241 186.773 177.199 186.773 177.139 186.773C177.078 186.773 177.018 186.767 176.958 186.755H176.686C176.505 186.755 176.361 186.665 176.252 186.484C176.143 186.303 175.884 185.76 175.474 184.855C175.293 184.457 175.148 184.131 175.04 183.878L173.212 179.789H171.945V178.667H172.09C172.271 178.703 172.941 178.721 174.099 178.721C175.39 178.721 176.143 178.703 176.361 178.667H176.524V179.789H175.655L176.614 181.924C177.229 183.311 177.555 184.005 177.591 184.005C177.591 183.993 177.899 183.299 178.514 181.924C179.129 180.549 179.449 179.843 179.473 179.807C179.473 179.795 179.328 179.789 179.039 179.789H178.604V178.667H178.731Z" fill="#FFF888"/>
<path d="M179.265 173.546C179.265 173.449 179.295 173.365 179.355 173.292C179.416 173.22 179.506 173.184 179.627 173.184C179.711 173.184 179.784 173.214 179.844 173.274C179.904 173.322 179.965 173.437 180.025 173.618C180.146 174.064 180.393 174.408 180.767 174.649C180.9 174.734 180.966 174.842 180.966 174.975C180.966 175.084 180.948 175.156 180.912 175.192C180.875 175.228 180.791 175.283 180.658 175.355C180.14 175.621 179.687 176.001 179.301 176.495C179.277 176.519 179.247 176.555 179.211 176.604C179.175 176.652 179.144 176.688 179.12 176.712C179.096 176.736 179.066 176.749 179.03 176.749C178.994 176.749 178.951 176.755 178.903 176.767C178.819 176.767 178.74 176.736 178.668 176.676C178.595 176.616 178.553 176.525 178.541 176.405C178.541 176.175 178.825 175.82 179.392 175.337H176.297L173.203 175.319C173.046 175.21 172.968 175.096 172.968 174.975C172.968 174.891 173.046 174.77 173.203 174.613H179.699C179.41 174.155 179.265 173.799 179.265 173.546Z" fill="#FFF888"/>
</g>
<path d="M255.482 389.757H234.083V410.603H255.482V389.757Z" fill="black"/>
<g clip-path="url(#clip5_755_7148)">
<path d="M247.882 398.076C248.027 398.112 248.618 398.13 249.655 398.13C250.56 398.13 251.031 398.112 251.067 398.076H251.157V399.198H249.999L247.321 405.912C247.309 405.924 247.291 405.942 247.267 405.966C247.242 405.991 247.218 406.015 247.194 406.039C247.17 406.063 247.158 406.075 247.158 406.075C247.158 406.075 247.14 406.087 247.104 406.111C247.067 406.135 247.055 406.147 247.067 406.147C247.08 406.147 247.055 406.153 246.995 406.165C246.935 406.178 246.911 406.178 246.923 406.165C246.935 406.153 246.911 406.159 246.85 406.184C246.79 406.208 246.754 406.208 246.742 406.184C246.73 406.159 246.681 406.159 246.597 406.184H246.398C246.193 406.184 246.048 406.123 245.964 406.003C245.879 405.882 245.71 405.496 245.457 404.844C245.264 404.362 245.101 403.958 244.968 403.632L244.1 401.46L243.231 403.632C243.11 403.946 242.953 404.338 242.76 404.808C242.507 405.472 242.338 405.864 242.254 405.984C242.169 406.105 242.024 406.171 241.819 406.184H241.602C241.385 406.184 241.24 406.171 241.168 406.147C241.096 406.123 241.005 406.045 240.896 405.912L238.218 399.198H237.042V398.076H237.169C237.349 398.112 238.001 398.13 239.123 398.13C240.366 398.13 241.096 398.112 241.313 398.076H241.476V399.198H240.607L242.199 403.143L243.502 399.922L243.213 399.198H242.073V398.076H242.199C242.344 398.112 242.929 398.13 243.955 398.13C245.173 398.13 245.873 398.112 246.054 398.076H246.199V399.198H245.746C245.445 399.198 245.294 399.21 245.294 399.234C245.306 399.283 245.596 400.013 246.163 401.424C246.73 402.836 247.019 403.541 247.031 403.541L248.787 399.198H247.755V398.076H247.882Z" fill="#D582FF"/>
<path d="M246.407 392.955C246.407 392.859 246.437 392.774 246.497 392.702C246.558 392.629 246.648 392.593 246.769 392.593C246.853 392.593 246.926 392.623 246.986 392.684C247.046 392.732 247.107 392.846 247.167 393.027C247.288 393.474 247.535 393.818 247.909 394.059C248.042 394.143 248.108 394.252 248.108 394.385C248.108 394.493 248.09 394.566 248.054 394.602C248.018 394.638 247.933 394.692 247.8 394.765C247.282 395.03 246.829 395.41 246.443 395.905C246.419 395.929 246.389 395.965 246.353 396.013C246.316 396.062 246.286 396.098 246.262 396.122C246.238 396.146 246.208 396.158 246.172 396.158C246.135 396.158 246.093 396.164 246.045 396.176C245.961 396.176 245.882 396.146 245.81 396.086C245.737 396.025 245.695 395.935 245.683 395.814C245.683 395.585 245.967 395.229 246.534 394.747H243.439L240.344 394.729C240.188 394.62 240.109 394.505 240.109 394.385C240.109 394.3 240.188 394.18 240.344 394.023H246.841C246.552 393.564 246.407 393.208 246.407 392.955Z" fill="#D582FF"/>
</g>
<path d="M245.743 451.487H147.921V532.514H245.743V451.487Z" fill="black"/>
<g clip-path="url(#clip6_755_7148)">
<path d="M157.666 485.363C157.81 485.399 158.377 485.417 159.367 485.417C160.248 485.417 160.724 485.399 160.797 485.363H160.905V486.485H159.638L157.81 490.575C157.074 492.24 156.652 493.145 156.543 493.29C156.447 493.411 156.332 493.471 156.2 493.471C156.175 493.471 156.133 493.471 156.073 493.471C156.013 493.471 155.952 493.465 155.892 493.453H155.62C155.439 493.453 155.295 493.363 155.186 493.182C155.077 493.001 154.818 492.458 154.408 491.553C154.227 491.155 154.082 490.829 153.973 490.575L152.145 486.485H150.879V485.363H151.023C151.204 485.399 151.874 485.417 153.032 485.417C154.323 485.417 155.077 485.399 155.295 485.363H155.458V486.485H154.589L155.548 488.621C156.163 490.008 156.489 490.702 156.525 490.702C156.525 490.69 156.833 489.996 157.448 488.621C158.064 487.245 158.383 486.539 158.408 486.503C158.408 486.491 158.263 486.485 157.973 486.485H157.539V485.363H157.666Z" fill="#FFF888"/>
<path d="M158.199 480.241C158.199 480.144 158.23 480.06 158.29 479.987C158.35 479.915 158.441 479.879 158.561 479.879C158.646 479.879 158.718 479.909 158.779 479.969C158.839 480.018 158.899 480.132 158.96 480.313C159.08 480.76 159.328 481.104 159.702 481.345C159.834 481.429 159.901 481.538 159.901 481.671C159.901 481.779 159.883 481.852 159.846 481.888C159.81 481.924 159.726 481.978 159.593 482.051C159.074 482.316 158.622 482.696 158.236 483.191C158.212 483.215 158.181 483.251 158.145 483.3C158.109 483.348 158.079 483.384 158.055 483.408C158.031 483.432 158 483.444 157.964 483.444C157.928 483.444 157.886 483.45 157.838 483.462C157.753 483.462 157.675 483.432 157.602 483.372C157.53 483.312 157.488 483.221 157.476 483.1C157.476 482.871 157.759 482.515 158.326 482.033H155.231L152.136 482.015C151.98 481.906 151.901 481.791 151.901 481.671C151.901 481.586 151.98 481.466 152.136 481.309H158.634C158.344 480.85 158.199 480.494 158.199 480.241Z" fill="#FFF888"/>
<path d="M167.435 487.119C167.435 486.962 167.52 486.841 167.689 486.757H179.218C179.398 486.853 179.489 486.974 179.489 487.119C179.489 487.251 179.405 487.366 179.236 487.462L173.48 487.481H167.725C167.532 487.42 167.435 487.3 167.435 487.119ZM167.435 490.63C167.435 490.449 167.532 490.328 167.725 490.268H179.236C179.405 490.388 179.489 490.509 179.489 490.63C179.489 490.787 179.398 490.907 179.218 490.992H167.689C167.52 490.907 167.435 490.787 167.435 490.63Z" fill="#F0F0F0"/>
<path d="M191.304 487.046V454.487H197.584V456.007H192.824V487.046H191.304Z" fill="#F0F0F0"/>
<path d="M191.304 523.262V490.702H192.824V521.741H197.584V523.262H191.304Z" fill="#F0F0F0"/>
<g clip-path="url(#clip7_755_7148)">
<path d="M191.304 494.331V483.414H192.824V494.331H191.304Z" fill="#F0F0F0"/>
</g>
<path d="M210.633 460.296C210.307 460.296 210.048 460.188 209.855 459.97C209.662 459.753 209.565 459.488 209.565 459.174C209.565 458.317 209.885 457.575 210.525 456.948C211.164 456.321 211.96 456.007 212.914 456.007C214.012 456.007 214.929 456.345 215.665 457.02C216.401 457.696 216.775 458.571 216.787 459.645C216.787 460.163 216.666 460.658 216.425 461.129C216.184 461.599 215.894 462.01 215.556 462.359C215.218 462.709 214.736 463.156 214.108 463.699C213.674 464.073 213.071 464.628 212.298 465.364L211.23 466.377L212.606 466.395C214.5 466.395 215.508 466.365 215.628 466.305C215.713 466.281 215.858 465.744 216.063 464.694V464.64H216.787V464.694C216.775 464.73 216.696 465.279 216.552 466.341C216.407 467.403 216.316 467.958 216.28 468.006V468.061H209.565V467.717V467.499C209.565 467.415 209.602 467.325 209.674 467.228C209.746 467.131 209.927 466.92 210.217 466.595C210.567 466.208 210.869 465.871 211.122 465.581C211.23 465.46 211.436 465.237 211.737 464.911C212.039 464.586 212.244 464.362 212.353 464.242C212.461 464.121 212.636 463.922 212.877 463.644C213.119 463.367 213.288 463.162 213.384 463.029C213.481 462.896 213.62 462.715 213.801 462.486C213.982 462.257 214.108 462.064 214.181 461.907C214.253 461.75 214.343 461.575 214.452 461.382C214.561 461.189 214.639 460.996 214.687 460.803C214.736 460.61 214.778 460.429 214.814 460.26C214.85 460.091 214.868 459.892 214.868 459.663C214.868 458.903 214.663 458.245 214.253 457.69C213.843 457.135 213.258 456.857 212.497 456.857C212.099 456.857 211.749 456.96 211.448 457.165C211.146 457.37 210.935 457.569 210.814 457.762C210.694 457.955 210.633 458.07 210.633 458.106C210.633 458.118 210.663 458.124 210.724 458.124C210.941 458.124 211.164 458.209 211.393 458.378C211.623 458.547 211.737 458.824 211.737 459.21C211.737 459.512 211.641 459.765 211.448 459.97C211.255 460.176 210.983 460.284 210.633 460.296Z" fill="#F0F0F0"/>
<path d="M203.14 489.109C203.14 489.109 203.14 489.031 203.14 488.874C203.14 488.717 203.225 488.596 203.394 488.512H213.909C214.09 488.608 214.181 488.729 214.181 488.874C214.181 489.019 214.09 489.139 213.909 489.236H203.394C203.225 489.151 203.14 489.031 203.14 488.874V489.109Z" fill="#F0F0F0"/>
<path d="M219.556 482.937L219.321 483.028C219.152 483.088 218.91 483.149 218.597 483.209C218.283 483.269 217.933 483.311 217.547 483.336H217.203V482.503H217.547C218.114 482.479 218.639 482.388 219.122 482.232C219.604 482.075 219.942 481.93 220.135 481.797C220.328 481.664 220.497 481.532 220.642 481.399C220.666 481.363 220.738 481.345 220.859 481.345C220.968 481.345 221.07 481.381 221.167 481.453V486.865L221.185 492.294C221.269 492.379 221.342 492.433 221.402 492.457C221.462 492.481 221.607 492.506 221.836 492.53C222.066 492.554 222.44 492.566 222.958 492.566H223.429V493.398H223.23C222.977 493.362 222.017 493.344 220.352 493.344C218.711 493.344 217.764 493.362 217.511 493.398H217.294V492.566H217.764C218.03 492.566 218.259 492.566 218.452 492.566C218.645 492.566 218.796 492.56 218.904 492.548C219.013 492.536 219.109 492.518 219.194 492.494C219.278 492.469 219.327 492.457 219.339 492.457C219.351 492.457 219.387 492.427 219.447 492.367C219.508 492.306 219.544 492.282 219.556 492.294V482.937Z" fill="#F0F0F0"/>
<path d="M210.633 510.972C210.307 510.972 210.048 510.864 209.855 510.647C209.662 510.43 209.565 510.164 209.565 509.85C209.565 508.994 209.885 508.252 210.525 507.624C211.164 506.997 211.96 506.683 212.914 506.683C214.012 506.683 214.929 507.021 215.665 507.697C216.401 508.372 216.775 509.247 216.787 510.321C216.787 510.84 216.666 511.334 216.425 511.805C216.184 512.276 215.894 512.686 215.556 513.036C215.218 513.386 214.736 513.832 214.108 514.375C213.674 514.749 213.071 515.304 212.298 516.04L211.23 517.054L212.606 517.072C214.5 517.072 215.508 517.042 215.628 516.981C215.713 516.957 215.858 516.42 216.063 515.37V515.316H216.787V515.37C216.775 515.407 216.696 515.956 216.552 517.017C216.407 518.079 216.316 518.634 216.28 518.683V518.737H209.565V518.393V518.176C209.565 518.091 209.602 518.001 209.674 517.904C209.746 517.808 209.927 517.597 210.217 517.271C210.567 516.885 210.869 516.547 211.122 516.257C211.23 516.137 211.436 515.913 211.737 515.588C212.039 515.262 212.244 515.039 212.353 514.918C212.461 514.797 212.636 514.598 212.877 514.321C213.119 514.043 213.288 513.838 213.384 513.705C213.481 513.573 213.62 513.392 213.801 513.162C213.982 512.933 214.108 512.74 214.181 512.583C214.253 512.426 214.343 512.251 214.452 512.058C214.561 511.865 214.639 511.672 214.687 511.479C214.736 511.286 214.778 511.105 214.814 510.936C214.85 510.767 214.868 510.568 214.868 510.339C214.868 509.579 214.663 508.921 214.253 508.366C213.843 507.811 213.258 507.534 212.497 507.534C212.099 507.534 211.749 507.636 211.448 507.841C211.146 508.047 210.935 508.246 210.814 508.439C210.694 508.632 210.633 508.746 210.633 508.783C210.633 508.795 210.663 508.801 210.724 508.801C210.941 508.801 211.164 508.885 211.393 509.054C211.623 509.223 211.737 509.5 211.737 509.887C211.737 510.188 211.641 510.442 211.448 510.647C211.255 510.852 210.983 510.96 210.633 510.972Z" fill="#F0F0F0"/>
<path d="M228.768 456.007V454.487H235.048V487.046H233.528V456.007H228.768Z" fill="#F0F0F0"/>
<path d="M233.528 521.741V490.702H235.048V523.262H228.768V521.741H233.528Z" fill="#F0F0F0"/>
<g clip-path="url(#clip8_755_7148)">
<path d="M233.528 494.331V483.414H235.048V494.331H233.528Z" fill="#F0F0F0"/>
</g>
</g>
<path d="M391.945 451.486H289.68V532.514H391.945V451.486Z" fill="black"/>
<g clip-path="url(#clip9_755_7148)">
<path d="M303.48 485.362C303.625 485.399 304.216 485.417 305.254 485.417C306.159 485.417 306.629 485.399 306.666 485.362H306.756V486.484H305.598L302.919 493.199C302.907 493.211 302.889 493.229 302.865 493.253C302.841 493.278 302.817 493.302 302.792 493.326C302.768 493.35 302.756 493.362 302.756 493.362C302.756 493.362 302.738 493.374 302.702 493.398C302.666 493.422 302.654 493.434 302.666 493.434C302.678 493.434 302.654 493.441 302.593 493.453C302.533 493.465 302.509 493.465 302.521 493.453C302.533 493.441 302.509 493.447 302.449 493.471C302.388 493.495 302.352 493.495 302.34 493.471C302.328 493.447 302.28 493.447 302.195 493.471H301.996C301.791 493.471 301.646 493.41 301.562 493.29C301.477 493.169 301.308 492.783 301.055 492.131C300.862 491.649 300.699 491.244 300.566 490.919L299.697 488.747L298.829 490.919C298.708 491.232 298.551 491.625 298.358 492.095C298.105 492.759 297.936 493.151 297.851 493.272C297.767 493.392 297.622 493.459 297.417 493.471H297.2C296.983 493.471 296.838 493.459 296.765 493.434C296.693 493.41 296.603 493.332 296.494 493.199L293.815 486.484H292.639V485.362H292.766C292.947 485.399 293.598 485.417 294.72 485.417C295.963 485.417 296.693 485.399 296.91 485.362H297.073V486.484H296.204L297.797 490.43L299.1 487.208L298.811 486.484H297.67V485.362H297.797C297.942 485.399 298.527 485.417 299.553 485.417C300.771 485.417 301.471 485.399 301.652 485.362H301.797V486.484H301.344C301.043 486.484 300.892 486.497 300.892 486.521C300.904 486.569 301.194 487.299 301.761 488.711C302.328 490.122 302.617 490.828 302.63 490.828L304.385 486.484H303.353V485.362H303.48Z" fill="#D582FF"/>
<path d="M302.005 480.24C302.005 480.144 302.035 480.059 302.096 479.987C302.156 479.915 302.246 479.878 302.367 479.878C302.452 479.878 302.524 479.908 302.584 479.969C302.645 480.017 302.705 480.132 302.765 480.313C302.886 480.759 303.133 481.103 303.507 481.344C303.64 481.429 303.706 481.537 303.706 481.67C303.706 481.779 303.688 481.851 303.652 481.887C303.616 481.924 303.531 481.978 303.399 482.05C302.88 482.316 302.427 482.696 302.041 483.19C302.017 483.215 301.987 483.251 301.951 483.299C301.915 483.347 301.884 483.383 301.86 483.408C301.836 483.432 301.806 483.444 301.77 483.444C301.734 483.444 301.691 483.45 301.643 483.462C301.559 483.462 301.48 483.432 301.408 483.371C301.335 483.311 301.293 483.221 301.281 483.1C301.281 482.871 301.565 482.515 302.132 482.032H299.037L295.942 482.014C295.785 481.905 295.707 481.791 295.707 481.67C295.707 481.586 295.785 481.465 295.942 481.308H302.439C302.15 480.85 302.005 480.494 302.005 480.24Z" fill="#D582FF"/>
<path d="M313.268 487.118C313.268 486.961 313.353 486.841 313.521 486.756H325.05C325.231 486.853 325.322 486.973 325.322 487.118C325.322 487.251 325.238 487.365 325.069 487.462L319.313 487.48H313.558C313.365 487.42 313.268 487.299 313.268 487.118ZM313.268 490.629C313.268 490.448 313.365 490.328 313.558 490.267H325.069C325.238 490.388 325.322 490.509 325.322 490.629C325.322 490.786 325.231 490.907 325.05 490.991H313.521C313.353 490.907 313.268 490.786 313.268 490.629Z" fill="#F0F0F0"/>
<path d="M337.137 487.046V454.486H343.417V456.006H338.657V487.046H337.137Z" fill="#F0F0F0"/>
<path d="M337.137 523.262V490.702H338.657V521.741H343.417V523.262H337.137Z" fill="#F0F0F0"/>
<g clip-path="url(#clip10_755_7148)">
<path d="M337.137 494.331V483.413H338.657V494.331H337.137Z" fill="#F0F0F0"/>
</g>
<path d="M358.349 457.598L358.114 457.689C357.945 457.749 357.703 457.81 357.39 457.87C357.076 457.93 356.726 457.972 356.34 457.997H355.996V457.164H356.34C356.907 457.14 357.432 457.049 357.915 456.893C358.397 456.736 358.735 456.591 358.928 456.458C359.121 456.325 359.29 456.193 359.435 456.06C359.459 456.024 359.531 456.006 359.652 456.006C359.761 456.006 359.863 456.042 359.96 456.114V461.526L359.978 466.956C360.062 467.04 360.135 467.094 360.195 467.118C360.255 467.143 360.4 467.167 360.629 467.191C360.859 467.215 361.233 467.227 361.752 467.227H362.222V468.06H362.023C361.77 468.023 360.81 468.005 359.145 468.005C357.504 468.005 356.557 468.023 356.304 468.06H356.087V467.227H356.557C356.823 467.227 357.052 467.227 357.245 467.227C357.438 467.227 357.589 467.221 357.697 467.209C357.806 467.197 357.902 467.179 357.987 467.155C358.071 467.13 358.12 467.118 358.132 467.118C358.144 467.118 358.18 467.088 358.24 467.028C358.301 466.968 358.337 466.943 358.349 466.956V457.598Z" fill="#F0F0F0"/>
<path d="M349.426 485.634C349.1 485.634 348.841 485.525 348.648 485.308C348.455 485.091 348.358 484.826 348.358 484.512C348.358 483.655 348.678 482.913 349.318 482.286C349.957 481.658 350.753 481.345 351.707 481.345C352.805 481.345 353.722 481.682 354.458 482.358C355.194 483.034 355.568 483.909 355.58 484.982C355.58 485.501 355.459 485.996 355.218 486.467C354.976 486.937 354.687 487.347 354.349 487.697C354.011 488.047 353.529 488.494 352.901 489.037C352.467 489.411 351.863 489.966 351.091 490.702L350.023 491.715L351.399 491.733C353.293 491.733 354.301 491.703 354.421 491.643C354.506 491.619 354.651 491.082 354.856 490.032V489.978H355.58V490.032C355.568 490.068 355.489 490.617 355.345 491.679C355.2 492.741 355.109 493.296 355.073 493.344V493.398H348.358V493.055V492.837C348.358 492.753 348.395 492.662 348.467 492.566C348.539 492.469 348.72 492.258 349.01 491.932C349.36 491.546 349.661 491.208 349.915 490.919C350.023 490.798 350.229 490.575 350.53 490.249C350.832 489.923 351.037 489.7 351.146 489.58C351.254 489.459 351.429 489.26 351.67 488.982C351.912 488.705 352.081 488.5 352.177 488.367C352.274 488.234 352.412 488.053 352.593 487.824C352.774 487.595 352.901 487.402 352.974 487.245C353.046 487.088 353.136 486.913 353.245 486.72C353.354 486.527 353.432 486.334 353.48 486.141C353.529 485.948 353.571 485.767 353.607 485.598C353.643 485.429 353.661 485.23 353.661 485.001C353.661 484.24 353.456 483.583 353.046 483.028C352.636 482.473 352.05 482.195 351.29 482.195C350.892 482.195 350.542 482.298 350.241 482.503C349.939 482.708 349.728 482.907 349.607 483.1C349.486 483.293 349.426 483.408 349.426 483.444C349.426 483.456 349.456 483.462 349.517 483.462C349.734 483.462 349.957 483.547 350.186 483.716C350.416 483.884 350.53 484.162 350.53 484.548C350.53 484.85 350.434 485.103 350.241 485.308C350.048 485.513 349.776 485.622 349.426 485.634Z" fill="#F0F0F0"/>
<path d="M357.915 492.313C357.915 492.023 358.017 491.77 358.222 491.552C358.427 491.335 358.687 491.227 359 491.227C359.29 491.227 359.543 491.323 359.761 491.516C359.978 491.709 360.092 491.969 360.105 492.294C360.105 492.596 360.002 492.855 359.797 493.073C359.592 493.29 359.332 493.398 359.019 493.398C358.705 493.398 358.445 493.296 358.24 493.091C358.035 492.886 357.927 492.626 357.915 492.313Z" fill="#F0F0F0"/>
<path d="M364.503 490.557C364.503 490.846 364.406 491.088 364.213 491.281C364.02 491.474 363.785 491.57 363.507 491.57H363.38C363.935 492.523 364.671 493 365.589 493C366.433 493 367.048 492.638 367.435 491.914C367.664 491.516 367.778 490.744 367.778 489.597C367.778 488.355 367.616 487.516 367.29 487.082C366.976 486.683 366.626 486.484 366.24 486.484H366.131C365.19 486.484 364.478 486.895 363.996 487.715C363.948 487.8 363.905 487.848 363.869 487.86C363.833 487.872 363.742 487.884 363.598 487.896C363.392 487.896 363.278 487.86 363.254 487.788C363.23 487.739 363.218 486.683 363.218 484.62V482.285C363.218 481.682 363.248 481.381 363.308 481.381C363.332 481.356 363.356 481.344 363.38 481.344C363.392 481.344 363.519 481.393 363.761 481.489C364.002 481.586 364.334 481.682 364.756 481.779C365.178 481.875 365.631 481.923 366.113 481.923C366.97 481.923 367.791 481.755 368.575 481.417C368.671 481.368 368.75 481.344 368.81 481.344C368.907 481.344 368.955 481.453 368.955 481.67V481.905C367.965 483.076 366.729 483.661 365.245 483.661C364.871 483.661 364.533 483.625 364.231 483.552L364.05 483.516V486.629C364.279 486.46 364.46 486.328 364.593 486.231C364.726 486.134 364.943 486.038 365.245 485.941C365.546 485.845 365.854 485.797 366.168 485.797C367.145 485.797 367.972 486.189 368.647 486.973C369.323 487.757 369.661 488.686 369.661 489.76C369.661 490.87 369.275 491.818 368.502 492.602C367.73 493.386 366.789 493.784 365.679 493.796C364.702 493.796 363.917 493.471 363.326 492.819C362.735 492.167 362.439 491.431 362.439 490.611C362.439 490.321 362.506 490.092 362.638 489.923C362.771 489.754 362.91 489.646 363.055 489.597C363.199 489.549 363.338 489.525 363.471 489.525C363.773 489.525 364.02 489.628 364.213 489.833C364.406 490.038 364.503 490.279 364.503 490.557Z" fill="#F0F0F0"/>
<path d="M348.974 514.448C348.974 514.448 348.974 514.369 348.974 514.212C348.974 514.055 349.058 513.935 349.227 513.85H359.743C359.924 513.947 360.014 514.067 360.014 514.212C360.014 514.357 359.924 514.478 359.743 514.574H349.227C349.058 514.49 348.974 514.369 348.974 514.212V514.448Z" fill="#F0F0F0"/>
<path d="M363.507 510.972C363.181 510.972 362.922 510.864 362.729 510.647C362.536 510.429 362.439 510.164 362.439 509.85C362.439 508.994 362.759 508.251 363.399 507.624C364.038 506.997 364.834 506.683 365.788 506.683C366.886 506.683 367.803 507.021 368.539 507.696C369.275 508.372 369.649 509.247 369.661 510.321C369.661 510.84 369.54 511.334 369.299 511.805C369.057 512.275 368.768 512.686 368.43 513.036C368.092 513.386 367.61 513.832 366.982 514.375C366.548 514.749 365.944 515.304 365.172 516.04L364.104 517.054L365.48 517.072C367.374 517.072 368.382 517.042 368.502 516.981C368.587 516.957 368.732 516.42 368.937 515.37V515.316H369.661V515.37C369.649 515.407 369.57 515.956 369.425 517.017C369.281 518.079 369.19 518.634 369.154 518.683V518.737H362.439V518.393V518.176C362.439 518.091 362.475 518.001 362.548 517.904C362.62 517.808 362.801 517.597 363.091 517.271C363.441 516.885 363.742 516.547 363.996 516.257C364.104 516.137 364.31 515.913 364.611 515.588C364.913 515.262 365.118 515.039 365.227 514.918C365.335 514.797 365.51 514.598 365.751 514.321C365.993 514.043 366.162 513.838 366.258 513.705C366.355 513.573 366.493 513.392 366.674 513.162C366.855 512.933 366.982 512.74 367.055 512.583C367.127 512.426 367.217 512.251 367.326 512.058C367.435 511.865 367.513 511.672 367.561 511.479C367.61 511.286 367.652 511.105 367.688 510.936C367.724 510.767 367.742 510.568 367.742 510.339C367.742 509.579 367.537 508.921 367.127 508.366C366.717 507.811 366.131 507.534 365.371 507.534C364.973 507.534 364.623 507.636 364.322 507.841C364.02 508.046 363.809 508.245 363.688 508.439C363.567 508.632 363.507 508.746 363.507 508.782C363.507 508.794 363.537 508.8 363.598 508.8C363.815 508.8 364.038 508.885 364.267 509.054C364.497 509.223 364.611 509.5 364.611 509.886C364.611 510.188 364.515 510.441 364.322 510.647C364.129 510.852 363.857 510.96 363.507 510.972Z" fill="#F0F0F0"/>
<path d="M374.602 456.006V454.486H380.882V487.046H379.362V456.006H374.602Z" fill="#F0F0F0"/>
<path d="M379.362 521.741V490.702H380.882V523.262H374.602V521.741H379.362Z" fill="#F0F0F0"/>
<g clip-path="url(#clip11_755_7148)">
<path d="M379.362 494.331V483.413H380.882V494.331H379.362Z" fill="#F0F0F0"/>
</g>
</g>
</g>
<defs>
<clipPath id="clip0_755_7148">
<rect width="540" height="540" fill="white"/>
</clipPath>
<clipPath id="clip1_755_7148">
<rect width="10.352" height="8.2" fill="white" transform="translate(68.3452 277.181)"/>
</clipPath>
<clipPath id="clip2_755_7148">
<rect width="8.872" height="11.712" fill="white" transform="translate(305.899 343.117)"/>
</clipPath>
<clipPath id="clip3_755_7148">
<rect width="8.416" height="8.2" fill="white" transform="translate(265.725 70.4897)"/>
</clipPath>
<clipPath id="clip4_755_7148">
<rect width="10.984" height="15.328" fill="white" transform="translate(171.475 171.374)"/>
</clipPath>
<clipPath id="clip5_755_7148">
<rect width="15.04" height="15.328" fill="white" transform="translate(236.589 390.783)"/>
</clipPath>
<clipPath id="clip6_755_7148">
<rect width="90.432" height="68.776" fill="white" transform="translate(150.408 454.486)"/>
</clipPath>
<clipPath id="clip7_755_7148">
<rect width="12.0718" height="7.27568" fill="white" transform="matrix(1 0 0 -1 185.53 492.512)"/>
</clipPath>
<clipPath id="clip8_755_7148">
<rect width="12.0718" height="7.27568" fill="white" transform="matrix(1 0 0 -1 228.768 492.512)"/>
</clipPath>
<clipPath id="clip9_755_7148">
<rect width="94.488" height="68.776" fill="white" transform="translate(292.186 454.486)"/>
</clipPath>
<clipPath id="clip10_755_7148">
<rect width="12.072" height="7.27578" fill="white" transform="matrix(1 0 0 -1 331.363 492.512)"/>
</clipPath>
<clipPath id="clip11_755_7148">
<rect width="12.072" height="7.27578" fill="white" transform="matrix(1 0 0 -1 374.602 492.512)"/>
</clipPath>
</defs>
</svg>
