<svg width="640" height="360" viewBox="0 0 640 360" fill="none" xmlns="http://www.w3.org/2000/svg">
<g clip-path="url(#clip0_755_7793)">
<path d="M640 0H0V360H640V0Z" fill="black"/>
<path d="M63.2226 202.744H46.2863V223.569H63.2226V202.744Z" fill="black"/>
<g clip-path="url(#clip1_755_7793)">
<path d="M56.0294 211.062C56.1742 211.098 56.7411 211.116 57.7304 211.116C58.611 211.116 59.0875 211.098 59.1599 211.062H59.2685V212.184H58.0018L56.1742 216.274C55.4383 217.938 55.016 218.843 54.9075 218.988C54.811 219.109 54.6963 219.169 54.5636 219.169C54.5395 219.169 54.4973 219.169 54.437 219.169C54.3767 219.169 54.3163 219.163 54.256 219.151H53.9846C53.8036 219.151 53.6589 219.06 53.5503 218.879C53.4417 218.698 53.1824 218.156 52.7722 217.251C52.5912 216.853 52.4465 216.527 52.3379 216.274L50.5102 212.184H49.2436V211.062H49.3883C49.5693 211.098 50.2388 211.116 51.3969 211.116C52.6877 211.116 53.4417 211.098 53.6589 211.062H53.8217V212.184H52.9531L53.9122 214.319C54.5275 215.707 54.8532 216.4 54.8894 216.4C54.8894 216.388 55.197 215.695 55.8122 214.319C56.4275 212.944 56.7472 212.238 56.7713 212.202C56.7713 212.19 56.6265 212.184 56.337 212.184H55.9027V211.062H56.0294Z" fill="#FFF888"/>
<path d="M56.5632 205.941C56.5632 205.845 56.5934 205.76 56.6537 205.688C56.714 205.615 56.8045 205.579 56.9251 205.579C57.0096 205.579 57.0819 205.609 57.1423 205.67C57.2026 205.718 57.2629 205.833 57.3232 206.013C57.4439 206.46 57.6912 206.804 58.0651 207.045C58.1978 207.129 58.2642 207.238 58.2642 207.371C58.2642 207.479 58.2461 207.552 58.2099 207.588C58.1737 207.624 58.0893 207.678 57.9566 207.751C57.4378 208.016 56.9854 208.396 56.5994 208.891C56.5753 208.915 56.5451 208.951 56.5089 208.999C56.4727 209.048 56.4426 209.084 56.4184 209.108C56.3943 209.132 56.3642 209.144 56.328 209.144C56.2918 209.144 56.2495 209.15 56.2013 209.162C56.1168 209.162 56.0384 209.132 55.9661 209.072C55.8937 209.011 55.8514 208.921 55.8394 208.8C55.8394 208.571 56.1229 208.215 56.6899 207.733H53.5955L50.5012 207.714C50.3444 207.606 50.266 207.491 50.266 207.371C50.266 207.286 50.3444 207.166 50.5012 207.009H56.9975C56.708 206.55 56.5632 206.194 56.5632 205.941Z" fill="#FFF888"/>
</g>
<path d="M84.6214 274.409H63.2226V295.255H84.6214V274.409Z" fill="black"/>
<g clip-path="url(#clip2_755_7793)">
<path d="M77.0214 282.728C77.1662 282.764 77.7574 282.782 78.7949 282.782C79.6998 282.782 80.1703 282.764 80.2065 282.728H80.2969V283.85H79.1388L76.4604 290.563C76.4484 290.576 76.4303 290.594 76.4061 290.618C76.382 290.642 76.3579 290.666 76.3337 290.69C76.3096 290.714 76.2976 290.726 76.2976 290.726C76.2976 290.726 76.2795 290.738 76.2433 290.763C76.2071 290.787 76.195 290.799 76.2071 290.799C76.2191 290.799 76.195 290.805 76.1347 290.817C76.0744 290.829 76.0502 290.829 76.0623 290.817C76.0744 290.805 76.0502 290.811 75.9899 290.835C75.9296 290.859 75.8934 290.859 75.8813 290.835C75.8693 290.811 75.821 290.811 75.7366 290.835H75.5375C75.3324 290.835 75.1876 290.775 75.1032 290.654C75.0187 290.533 74.8498 290.147 74.5965 289.496C74.4034 289.013 74.2406 288.609 74.1078 288.283L73.2392 286.112L72.3705 288.283C72.2499 288.597 72.0931 288.989 71.9 289.46C71.6467 290.123 71.4778 290.515 71.3933 290.636C71.3089 290.757 71.1641 290.823 70.959 290.835H70.7418C70.5247 290.835 70.3799 290.823 70.3075 290.799C70.2351 290.775 70.1446 290.696 70.0361 290.563L67.3577 283.85H66.1814V282.728H66.3081C66.4891 282.764 67.1406 282.782 68.2626 282.782C69.5052 282.782 70.2351 282.764 70.4523 282.728H70.6152V283.85H69.7465L71.339 287.795L72.642 284.573L72.3524 283.85H71.2124V282.728H71.339C71.4838 282.764 72.0689 282.782 73.0944 282.782C74.3129 282.782 75.0127 282.764 75.1936 282.728H75.3384V283.85H74.886C74.5844 283.85 74.4336 283.862 74.4336 283.886C74.4456 283.934 74.7352 284.664 75.3022 286.075C75.8693 287.487 76.1588 288.193 76.1709 288.193L77.9263 283.85H76.8947V282.728H77.0214Z" fill="#D582FF"/>
<path d="M75.5465 277.606C75.5465 277.51 75.5767 277.425 75.637 277.353C75.6973 277.281 75.7878 277.244 75.9085 277.244C75.9929 277.244 76.0653 277.275 76.1256 277.335C76.186 277.383 76.2463 277.498 76.3066 277.679C76.4272 278.125 76.6746 278.469 77.0486 278.71C77.1813 278.795 77.2476 278.903 77.2476 279.036C77.2476 279.145 77.2295 279.217 77.1933 279.253C77.1572 279.289 77.0727 279.344 76.94 279.416C76.4212 279.682 75.9688 280.062 75.5827 280.556C75.5586 280.58 75.5284 280.617 75.4922 280.665C75.4561 280.713 75.4259 280.749 75.4018 280.773C75.3776 280.797 75.3475 280.81 75.3113 280.81C75.2751 280.81 75.2329 280.816 75.1846 280.828C75.1001 280.828 75.0217 280.797 74.9493 280.737C74.877 280.677 74.8347 280.586 74.8227 280.466C74.8227 280.236 75.1062 279.881 75.6732 279.398H72.5787L69.4841 279.38C69.3273 279.271 69.2488 279.157 69.2488 279.036C69.2488 278.952 69.3273 278.831 69.4841 278.674H75.9809C75.6913 278.216 75.5465 277.86 75.5465 277.606Z" fill="#D582FF"/>
</g>
<rect x="161.148" y="35.6772" width="62.171" height="25.244" fill="black"/>
<g clip-path="url(#clip3_755_7793)">
<path d="M173.316 47.8816C173.479 47.9224 174.117 47.9427 175.23 47.9427C176.221 47.9427 176.757 47.9224 176.838 47.8816H176.961V49.1439H175.536L173.479 53.745C172.651 55.618 172.176 56.636 172.054 56.7989C171.946 56.9346 171.817 57.0024 171.667 57.0024C171.64 57.0024 171.593 57.0024 171.525 57.0024C171.457 57.0024 171.389 56.9957 171.321 56.9821H171.016C170.812 56.9821 170.649 56.8803 170.527 56.6767C170.405 56.4731 170.113 55.8623 169.652 54.8444C169.448 54.3965 169.285 54.03 169.163 53.745L167.107 49.1439H165.682V47.8816H165.845C166.048 47.9224 166.802 47.9427 168.105 47.9427C169.557 47.9427 170.405 47.9224 170.649 47.8816H170.833V49.1439H169.855L170.934 51.5463C171.627 53.1071 171.993 53.8875 172.034 53.8875C172.034 53.874 172.38 53.0935 173.072 51.5463C173.764 49.999 174.124 49.205 174.151 49.1643C174.151 49.1507 173.988 49.1439 173.662 49.1439H173.174V47.8816H173.316Z" fill="#99FDFF"/>
<path d="M173.917 42.1203C173.917 42.0117 173.951 41.9167 174.019 41.8352C174.087 41.7538 174.188 41.7131 174.324 41.7131C174.419 41.7131 174.501 41.747 174.568 41.8149C174.636 41.8692 174.704 41.9981 174.772 42.2017C174.908 42.7039 175.186 43.0907 175.607 43.3621C175.756 43.4572 175.831 43.5793 175.831 43.7286C175.831 43.8508 175.81 43.9322 175.77 43.9729C175.729 44.0136 175.634 44.0747 175.485 44.1561C174.901 44.4547 174.392 44.8823 173.958 45.4388C173.931 45.4659 173.897 45.5066 173.856 45.5609C173.815 45.6152 173.781 45.6559 173.754 45.6831C173.727 45.7102 173.693 45.7238 173.652 45.7238C173.612 45.7238 173.564 45.7306 173.51 45.7441C173.415 45.7441 173.327 45.7102 173.245 45.6423C173.164 45.5745 173.116 45.4727 173.103 45.337C173.103 45.0791 173.422 44.6787 174.059 44.1358H170.578L167.097 44.1154C166.92 43.9933 166.832 43.8643 166.832 43.7286C166.832 43.6336 166.92 43.4979 167.097 43.3214H174.406C174.08 42.8057 173.917 42.4053 173.917 42.1203Z" fill="#99FDFF"/>
<path d="M194.86 56.3306C194.86 56.6021 194.718 56.7378 194.433 56.7378C194.365 56.7378 194.215 56.6292 193.985 56.4121C193.754 56.1949 193.116 55.5638 192.071 54.5187L189.954 52.4013L187.816 54.539C186.377 55.9506 185.638 56.6699 185.597 56.6971C185.543 56.7242 185.495 56.7378 185.454 56.7378C185.346 56.7378 185.251 56.6971 185.169 56.6156C185.088 56.5342 185.04 56.4392 185.027 56.3306C185.027 56.2356 185.122 56.0863 185.312 55.8827C185.502 55.6791 186.14 55.0344 187.226 53.9486L189.343 51.8313L187.226 49.714C186.126 48.6146 185.488 47.9699 185.312 47.7799C185.135 47.5899 185.04 47.4406 185.027 47.332C185.027 47.2098 185.068 47.1148 185.149 47.047C185.23 46.9791 185.332 46.9452 185.454 46.9452C185.522 46.9452 185.57 46.9519 185.597 46.9655C185.638 46.9927 186.377 47.712 187.816 49.1236L189.954 51.2612L192.071 49.1439C193.116 48.0988 193.754 47.4677 193.985 47.2505C194.215 47.0334 194.365 46.9248 194.433 46.9248C194.718 46.9248 194.86 47.0605 194.86 47.332C194.86 47.427 194.792 47.5491 194.657 47.6984C194.521 47.8477 193.856 48.5128 192.661 49.6936L190.544 51.8313L192.661 53.969C193.802 55.1091 194.453 55.7674 194.616 55.9438C194.779 56.1202 194.86 56.2492 194.86 56.3306Z" fill="#99FDFF"/>
<path d="M215.101 47.8818C215.264 47.9225 215.929 47.9429 217.096 47.9429C218.114 47.9429 218.643 47.9225 218.684 47.8818H218.786V49.144H217.483L214.47 56.6972C214.456 56.7108 214.436 56.7311 214.409 56.7583C214.382 56.7854 214.355 56.8126 214.327 56.8397C214.3 56.8669 214.287 56.8804 214.287 56.8804C214.287 56.8804 214.266 56.894 214.226 56.9212C214.185 56.9483 214.171 56.9619 214.185 56.9619C214.198 56.9619 214.171 56.9687 214.103 56.9822C214.036 56.9958 214.008 56.9958 214.022 56.9822C214.036 56.9687 214.008 56.9754 213.941 57.0026C213.873 57.0297 213.832 57.0297 213.818 57.0026C213.805 56.9754 213.751 56.9754 213.656 57.0026H213.432C213.201 57.0026 213.038 56.9347 212.943 56.799C212.848 56.6633 212.658 56.229 212.373 55.496C212.156 54.9531 211.973 54.4984 211.823 54.132L210.846 51.6889L209.869 54.132C209.733 54.4849 209.557 54.926 209.339 55.4553C209.054 56.2018 208.864 56.6429 208.769 56.7786C208.674 56.9144 208.512 56.989 208.281 57.0026H208.036C207.792 57.0026 207.629 56.989 207.548 56.9619C207.466 56.9347 207.365 56.8465 207.242 56.6972L204.229 49.144H202.906V47.8818H203.049C203.252 47.9225 203.985 47.9429 205.247 47.9429C206.645 47.9429 207.466 47.9225 207.711 47.8818H207.894V49.144H206.917L208.708 53.5823L210.174 49.9584L209.848 49.144H208.566V47.8818H208.708C208.871 47.9225 209.529 47.9429 210.683 47.9429C212.054 47.9429 212.841 47.9225 213.045 47.8818H213.208V49.144H212.699C212.359 49.144 212.19 49.1576 212.19 49.1848C212.203 49.2391 212.529 50.0602 213.167 51.6482C213.805 53.2362 214.131 54.0302 214.144 54.0302L216.119 49.144H214.959V47.8818H215.101Z" fill="#99FDFF"/>
<path d="M213.442 42.1203C213.442 42.0117 213.476 41.9167 213.544 41.8352C213.611 41.7538 213.713 41.7131 213.849 41.7131C213.944 41.7131 214.025 41.747 214.093 41.8149C214.161 41.8692 214.229 41.9981 214.297 42.2017C214.433 42.7039 214.711 43.0907 215.132 43.3621C215.281 43.4572 215.356 43.5793 215.356 43.7286C215.356 43.8508 215.335 43.9322 215.294 43.9729C215.254 44.0136 215.159 44.0747 215.009 44.1561C214.426 44.4547 213.917 44.8823 213.482 45.4388C213.455 45.4659 213.421 45.5066 213.381 45.5609C213.34 45.6152 213.306 45.6559 213.279 45.6831C213.252 45.7102 213.218 45.7238 213.177 45.7238C213.136 45.7238 213.089 45.7306 213.035 45.7441C212.94 45.7441 212.851 45.7102 212.77 45.6423C212.688 45.5745 212.641 45.4727 212.627 45.337C212.627 45.0791 212.946 44.6787 213.584 44.1358H210.103L206.622 44.1154C206.445 43.9933 206.357 43.8643 206.357 43.7286C206.357 43.6336 206.445 43.4979 206.622 43.3214H213.93C213.605 42.8057 213.442 42.4053 213.442 42.1203Z" fill="#99FDFF"/>
</g>
<path d="M640 0H280V360H640V0Z" fill="black"/>
<path d="M337.267 180.297H321.652V195.241H337.267V180.297Z" fill="black"/>
<g clip-path="url(#clip4_755_7793)">
<path d="M324.902 186.066C324.986 185.559 325.312 184.974 325.879 184.311C326.446 183.647 327.146 183.309 327.979 183.297C328.401 183.297 328.787 183.406 329.137 183.623C329.487 183.84 329.746 184.112 329.915 184.437C330.422 183.677 331.031 183.297 331.743 183.297C332.189 183.297 332.576 183.43 332.901 183.695C333.227 183.961 333.396 184.317 333.408 184.763C333.408 185.113 333.324 185.397 333.155 185.614C332.986 185.831 332.823 185.964 332.666 186.012C332.509 186.06 332.37 186.084 332.25 186.084C332.021 186.084 331.834 186.018 331.689 185.885C331.544 185.753 331.472 185.578 331.472 185.36C331.472 184.805 331.773 184.425 332.376 184.22C332.244 184.063 332.002 183.985 331.653 183.985C331.496 183.985 331.381 183.997 331.309 184.021C330.85 184.214 330.512 184.612 330.295 185.216C329.571 187.882 329.209 189.438 329.209 189.885C329.209 190.223 329.306 190.464 329.499 190.609C329.692 190.754 329.903 190.826 330.132 190.826C330.579 190.826 331.019 190.627 331.453 190.229C331.888 189.831 332.183 189.342 332.34 188.763C332.376 188.642 332.413 188.576 332.449 188.564C332.485 188.552 332.582 188.54 332.738 188.528H332.811C332.992 188.528 333.082 188.576 333.082 188.672C333.082 188.684 333.07 188.751 333.046 188.871C332.853 189.559 332.479 190.168 331.924 190.699C331.369 191.23 330.724 191.496 329.988 191.496C329.143 191.496 328.504 191.116 328.069 190.355C327.574 191.103 327.007 191.478 326.368 191.478H326.259C325.668 191.478 325.246 191.321 324.993 191.007C324.739 190.693 324.606 190.361 324.594 190.012C324.594 189.625 324.709 189.312 324.938 189.07C325.167 188.829 325.439 188.709 325.753 188.709C326.271 188.709 326.531 188.962 326.531 189.469C326.531 189.71 326.458 189.921 326.314 190.102C326.169 190.283 326.03 190.404 325.897 190.464C325.765 190.524 325.686 190.555 325.662 190.555L325.608 190.573C325.608 190.585 325.644 190.609 325.716 190.645C325.789 190.681 325.885 190.723 326.006 190.772C326.127 190.82 326.241 190.838 326.35 190.826C326.784 190.826 327.158 190.555 327.472 190.012C327.581 189.819 327.719 189.408 327.888 188.781C328.057 188.154 328.226 187.502 328.395 186.826C328.564 186.151 328.66 185.753 328.684 185.632C328.745 185.306 328.775 185.071 328.775 184.926C328.775 184.588 328.684 184.347 328.504 184.202C328.323 184.057 328.117 183.985 327.888 183.985C327.406 183.985 326.953 184.178 326.531 184.564C326.109 184.95 325.813 185.445 325.644 186.048C325.62 186.157 325.59 186.217 325.554 186.229C325.517 186.241 325.421 186.253 325.264 186.265H325.011C324.938 186.193 324.902 186.127 324.902 186.066Z" fill="#92D192"/>
</g>
<path d="M499.17 231.614H483.785V250.391H499.17V231.614Z" fill="black"/>
<g clip-path="url(#clip5_755_7793)">
<path d="M486.751 237.42C486.751 237.251 486.841 236.961 487.022 236.551C487.203 236.141 487.493 235.712 487.891 235.266C488.289 234.819 488.736 234.602 489.231 234.614C489.725 234.614 490.124 234.753 490.425 235.031C490.727 235.308 490.884 235.694 490.896 236.189C490.872 236.418 490.854 236.545 490.842 236.569C490.842 236.605 490.745 236.883 490.552 237.402C490.359 237.921 490.16 238.506 489.955 239.158C489.75 239.809 489.653 240.328 489.665 240.715C489.665 241.233 489.75 241.596 489.918 241.801C490.087 242.006 490.341 242.114 490.679 242.127C490.956 242.127 491.216 242.06 491.457 241.927C491.699 241.795 491.886 241.656 492.018 241.511C492.151 241.366 492.314 241.167 492.507 240.914C492.507 240.902 492.537 240.781 492.598 240.552C492.658 240.322 492.742 239.966 492.851 239.484C492.96 239.001 493.074 238.554 493.195 238.144C493.654 236.334 493.907 235.387 493.955 235.302C494.112 234.976 494.372 234.813 494.734 234.813C494.891 234.813 495.017 234.856 495.114 234.94C495.21 235.024 495.277 235.097 495.313 235.157C495.349 235.218 495.361 235.272 495.349 235.32C495.349 235.477 495.053 236.744 494.462 239.122C493.871 241.499 493.533 242.802 493.448 243.032C493.11 244.033 492.525 244.83 491.692 245.421C490.86 246.012 490.027 246.314 489.194 246.326C488.651 246.326 488.175 246.193 487.764 245.928C487.354 245.662 487.149 245.264 487.149 244.733C487.149 244.468 487.191 244.244 487.276 244.063C487.36 243.882 487.475 243.75 487.62 243.665C487.764 243.581 487.885 243.52 487.982 243.484C488.078 243.448 488.181 243.43 488.289 243.43C488.82 243.43 489.086 243.683 489.086 244.19C489.086 244.431 489.013 244.643 488.869 244.824C488.724 245.005 488.585 245.125 488.452 245.186C488.319 245.246 488.241 245.276 488.217 245.276L488.163 245.294C488.187 245.355 488.301 245.427 488.507 245.512C488.712 245.596 488.917 245.638 489.122 245.638H489.267C489.472 245.638 489.629 245.626 489.737 245.602C490.136 245.493 490.504 245.264 490.842 244.914C491.18 244.564 491.439 244.19 491.62 243.792C491.801 243.394 491.94 243.056 492.036 242.778C492.133 242.501 492.181 242.32 492.181 242.235L492.073 242.308C492 242.356 491.886 242.422 491.729 242.507C491.572 242.591 491.415 242.664 491.258 242.724C491.017 242.784 490.781 242.814 490.552 242.814C489.997 242.814 489.508 242.682 489.086 242.416C488.663 242.151 488.386 241.722 488.253 241.131C488.241 241.046 488.235 240.859 488.235 240.57C488.235 239.882 488.446 238.983 488.869 237.873C489.291 236.762 489.502 236.056 489.502 235.755C489.502 235.743 489.502 235.73 489.502 235.718C489.502 235.61 489.502 235.537 489.502 235.501C489.502 235.465 489.478 235.423 489.43 235.374C489.381 235.326 489.315 235.302 489.231 235.302H489.158C488.881 235.302 488.627 235.417 488.398 235.646C488.169 235.875 487.988 236.123 487.855 236.388C487.722 236.654 487.62 236.907 487.547 237.148C487.475 237.39 487.426 237.523 487.402 237.547C487.378 237.571 487.282 237.583 487.113 237.583H486.859C486.787 237.51 486.751 237.456 486.751 237.42Z" fill="#F2777A"/>
</g>
<path d="M467.966 42.5029H453.416V57.4471H467.966V42.5029Z" fill="black"/>
<g clip-path="url(#clip6_755_7793)">
<path d="M462.006 47.3851C461.885 47.3851 461.565 47.3188 461.046 47.186C460.528 47.0533 460.148 46.987 459.906 46.987C459.665 46.987 459.46 47.0111 459.291 47.0594C459.122 47.1076 458.983 47.1679 458.875 47.2403C458.766 47.3127 458.694 47.3791 458.657 47.4394C458.621 47.4998 458.579 47.5661 458.531 47.6385L458.494 47.7109C458.458 47.7471 458.368 47.7652 458.223 47.7652C457.97 47.7652 457.843 47.7169 457.843 47.6204C457.843 47.5601 457.861 47.4756 457.897 47.367C458.054 46.8965 458.313 46.4923 458.675 46.1544C459.037 45.8166 459.436 45.6114 459.87 45.539C460.015 45.5149 460.117 45.5028 460.178 45.5028C460.479 45.5028 460.751 45.6054 460.992 45.8105C461.233 46.0157 461.463 46.2147 461.68 46.4078C461.897 46.6008 462.126 46.7034 462.368 46.7155C462.633 46.7155 462.899 46.5164 463.164 46.1182C463.429 45.72 463.568 45.5209 463.58 45.5209C463.592 45.5089 463.683 45.5028 463.852 45.5028H464.087C464.159 45.5752 464.196 45.6235 464.196 45.6476C464.196 45.6959 464.165 45.7804 464.105 45.901C464.045 46.0217 463.96 46.1484 463.852 46.2811C463.743 46.4138 463.641 46.5466 463.544 46.6793C463.448 46.812 463.363 46.9266 463.291 47.0232L463.164 47.186C462.645 47.8014 461.825 48.6159 460.703 49.6294C459.58 50.6429 458.887 51.2945 458.621 51.5841L458.404 51.8013L458.675 51.8194C458.941 51.8194 459.327 51.8857 459.834 52.0185C460.341 52.1512 460.721 52.2175 460.974 52.2175C461.433 52.2175 461.855 52.1029 462.241 51.8737C462.627 51.6444 462.88 51.3428 463.001 50.9687C463.049 50.8601 463.092 50.7938 463.128 50.7696C463.164 50.7455 463.254 50.7334 463.399 50.7334C463.629 50.7334 463.743 50.7938 463.743 50.9144C463.743 50.9748 463.737 51.0291 463.725 51.0773C463.52 51.8254 463.122 52.4468 462.531 52.9415C461.939 53.4362 461.348 53.6896 460.757 53.7017C460.443 53.7017 460.166 53.5991 459.924 53.394C459.683 53.1889 459.448 52.9837 459.218 52.7786C458.989 52.5735 458.76 52.4709 458.531 52.4709C458 52.4709 457.523 52.8329 457.101 53.5569C457.028 53.6534 456.926 53.7017 456.793 53.7017H456.703H456.467C456.395 53.6293 456.359 53.575 456.359 53.5388C456.359 53.3578 456.709 52.8389 457.409 51.9823C457.879 51.4393 458.675 50.655 459.798 49.6294C460.92 48.6038 461.614 47.9522 461.879 47.6747C462.024 47.4817 462.066 47.3851 462.006 47.3851Z" fill="#6AB0F3"/>
</g>
<path d="M559.699 167.336L575.072 173.188L560.497 180.813L563.093 173.897L559.699 167.336Z" fill="#A0A0A0"/>
<path d="M353.226 193.083L337.853 187.231L352.428 179.607L349.832 186.522L353.226 193.083Z" fill="#A0A0A0"/>
<path d="M341.846 186.995L571.079 173.424" stroke="#A0A0A0" stroke-width="1.5"/>
<path d="M443.224 161.987L442.415 145.558L455.248 155.848L447.872 156.246L443.224 161.987Z" fill="#A0A0A0"/>
<path d="M484.059 212.277L484.868 228.706L472.035 218.416L479.411 218.019L484.059 212.277Z" fill="#A0A0A0"/>
<path d="M483.049 225.144L444.234 149.121" stroke="#A0A0A0" stroke-width="1.5"/>
<path d="M466.75 271.385L460 286.385L453.25 271.385L460 274.385L466.75 271.385Z" fill="#A0A0A0"/>
<path d="M453.25 74.2949L460 59.2949L466.75 74.2949L460 71.2949L453.25 74.2949Z" fill="#A0A0A0"/>
<path d="M460 63.2949V282.385" stroke="#A0A0A0" stroke-width="1.5"/>
<path opacity="0.75" d="M456.396 157.285L463.597 156.9" stroke="#6AB0F3" stroke-width="1.5"/>
<path opacity="0.75" d="M460.629 158.205L459.377 155.992" stroke="#6AB0F3" stroke-width="1.5"/>
<path opacity="0.4" d="M456.486 202.565L463.508 202.11" stroke="#6AB0F3" stroke-width="1.5"/>
<path opacity="0.4" d="M460.613 203.653L459.393 201.035" stroke="#6AB0F3" stroke-width="1.5"/>
<path opacity="0.75" d="M436.658 182.643L435.661 180.193" stroke="#92D192" stroke-width="1.5"/>
<path opacity="0.75" d="M436.112 177.994L436.202 184.815" stroke="#92D192" stroke-width="1.5"/>
<path opacity="0.4" d="M484.299 179.808L482.829 177.415" stroke="#92D192" stroke-width="1.5"/>
<path opacity="0.4" d="M483.605 175.224L483.516 181.974" stroke="#92D192" stroke-width="1.5"/>
<path opacity="0.75" d="M460.586 188.583L467.941 188.131" stroke="#F2777A" stroke-width="1.5"/>
<path opacity="0.75" d="M464.275 184.853L464.258 191.847" stroke="#F2777A" stroke-width="1.5"/>
<path opacity="0.4" d="M452.573 172.394L459.454 172.001" stroke="#F2777A" stroke-width="1.5"/>
<path opacity="0.4" d="M456.009 168.897L456.024 175.486" stroke="#F2777A" stroke-width="1.5"/>
<path opacity="0.75" d="M456.35 133.765L463.644 133.419" stroke="#6AB0F3" stroke-width="1.5"/>
<path opacity="0.75" d="M460.637 134.594L459.369 132.6" stroke="#6AB0F3" stroke-width="1.5"/>
<path opacity="0.4" d="M456.529 224.369L463.465 223.881" stroke="#6AB0F3" stroke-width="1.5"/>
<path opacity="0.4" d="M460.606 225.534L459.4 222.729" stroke="#6AB0F3" stroke-width="1.5"/>
<path opacity="0.75" d="M412.404 184.086L411.652 181.606" stroke="#92D192" stroke-width="1.5"/>
<path opacity="0.75" d="M411.934 179.405L412.118 186.262" stroke="#92D192" stroke-width="1.5"/>
<path opacity="0.4" d="M507.696 178.415L505.998 176.051" stroke="#92D192" stroke-width="1.5"/>
<path opacity="0.4" d="M506.93 173.863L506.755 180.579" stroke="#92D192" stroke-width="1.5"/>
<path opacity="0.75" d="M465.036 197.572L472.653 197.087" stroke="#F2777A" stroke-width="1.5"/>
<path opacity="0.75" d="M468.866 193.715L468.83 200.93" stroke="#F2777A" stroke-width="1.5"/>
<path opacity="0.4" d="M448.952 165.081L455.619 164.712" stroke="#F2777A" stroke-width="1.5"/>
<path opacity="0.4" d="M452.275 161.689L452.302 168.092" stroke="#F2777A" stroke-width="1.5"/>
<path opacity="0.75" d="M456.302 109.629L463.691 109.323" stroke="#6AB0F3" stroke-width="1.5"/>
<path opacity="0.75" d="M460.646 110.361L459.361 108.599" stroke="#6AB0F3" stroke-width="1.5"/>
<path opacity="0.4" d="M456.572 245.642L463.423 245.124" stroke="#6AB0F3" stroke-width="1.5"/>
<path opacity="0.4" d="M460.599 246.881L459.407 243.899" stroke="#6AB0F3" stroke-width="1.5"/>
<path opacity="0.75" d="M387.853 185.547L387.354 183.037" stroke="#92D192" stroke-width="1.5"/>
<path opacity="0.75" d="M387.463 180.833L387.741 187.725" stroke="#92D192" stroke-width="1.5"/>
<path opacity="0.4" d="M530.818 177.039L528.897 174.703" stroke="#92D192" stroke-width="1.5"/>
<path opacity="0.4" d="M529.982 172.518L529.723 179.2" stroke="#92D192" stroke-width="1.5"/>
<path opacity="0.75" d="M469.826 207.25L477.725 206.727" stroke="#F2777A" stroke-width="1.5"/>
<path opacity="0.75" d="M473.808 203.255L473.75 210.706" stroke="#F2777A" stroke-width="1.5"/>
<path opacity="0.4" d="M445.557 158.222L452.022 157.876" stroke="#F2777A" stroke-width="1.5"/>
<path opacity="0.4" d="M448.773 154.93L448.812 161.157" stroke="#F2777A" stroke-width="1.5"/>
<path opacity="0.75" d="M456.253 84.8506L463.74 84.5869" stroke="#6AB0F3" stroke-width="1.5"/>
<path opacity="0.75" d="M460.654 85.4813L459.353 83.9644" stroke="#6AB0F3" stroke-width="1.5"/>
<path opacity="0.4" d="M456.613 266.404L463.382 265.857" stroke="#6AB0F3" stroke-width="1.5"/>
<path opacity="0.4" d="M460.591 267.712L459.414 264.563" stroke="#6AB0F3" stroke-width="1.5"/>
<path opacity="0.75" d="M363.002 187.026L362.759 184.485" stroke="#92D192" stroke-width="1.5"/>
<path opacity="0.75" d="M362.691 182.278L363.068 189.207" stroke="#92D192" stroke-width="1.5"/>
<path opacity="0.4" d="M553.668 175.679L551.53 173.37" stroke="#92D192" stroke-width="1.5"/>
<path opacity="0.4" d="M552.765 171.189L552.423 177.837" stroke="#92D192" stroke-width="1.5"/>
<path opacity="0.75" d="M474.998 217.698L483.2 217.133" stroke="#F2777A" stroke-width="1.5"/>
<path opacity="0.75" d="M479.145 213.557L479.061 221.258" stroke="#F2777A" stroke-width="1.5"/>
<path opacity="0.4" d="M442.368 151.778L448.643 151.452" stroke="#F2777A" stroke-width="1.5"/>
<path opacity="0.4" d="M445.483 148.579L445.532 154.64" stroke="#F2777A" stroke-width="1.5"/>
<path d="M408.331 129.354L390.24 197.53L445.645 251.577L460 180" fill="#8AFDFF" fill-opacity="0.2"/>
<path d="M408.331 129.354L390.24 197.53L445.645 251.577L460 180" stroke="#F0F0F0" stroke-width="1.5"/>
<path d="M414.318 144.674L408.331 129.354L423.768 135.033L416.901 137.754L414.318 144.674Z" fill="#FFF888"/>
<path d="M460 180L411.188 132.154" stroke="#FFF888" stroke-width="1.5"/>
<path d="M455.213 238.197L445.645 251.577L441.976 235.543L448.005 239.811L455.213 238.197Z" fill="#D582FF"/>
<path d="M460 180L446.432 247.655" stroke="#D582FF" stroke-width="1.5"/>
<path d="M574.621 61.2188L590.131 55.7416L583.944 70.9825L581.452 64.0288L574.621 61.2188Z" fill="#8AFDFF"/>
<path d="M460 180L587.238 58.5039" stroke="#8AFDFF" stroke-width="1.5"/>
<path d="M406.943 110.753H390.007V131.578H406.943V110.753Z" fill="black"/>
<g clip-path="url(#clip7_755_7793)">
<path d="M399.75 119.071C399.895 119.108 400.462 119.126 401.451 119.126C402.332 119.126 402.808 119.108 402.881 119.071H402.989V120.193H401.723L399.895 124.283C399.159 125.948 398.737 126.853 398.628 126.997C398.532 127.118 398.417 127.178 398.284 127.178C398.26 127.178 398.218 127.178 398.158 127.178C398.097 127.178 398.037 127.172 397.977 127.16H397.705C397.524 127.16 397.38 127.07 397.271 126.889C397.162 126.708 396.903 126.165 396.493 125.26C396.312 124.862 396.167 124.536 396.059 124.283L394.231 120.193H392.964V119.071H393.109C393.29 119.108 393.96 119.126 395.118 119.126C396.409 119.126 397.162 119.108 397.38 119.071H397.542V120.193H396.674L397.633 122.329C398.248 123.716 398.574 124.41 398.61 124.41C398.61 124.398 398.918 123.704 399.533 122.329C400.148 120.953 400.468 120.248 400.492 120.211C400.492 120.199 400.347 120.193 400.058 120.193H399.623V119.071H399.75Z" fill="#FFF888"/>
<path d="M400.284 113.95C400.284 113.854 400.314 113.769 400.374 113.697C400.435 113.625 400.525 113.588 400.646 113.588C400.73 113.588 400.803 113.619 400.863 113.679C400.923 113.727 400.984 113.842 401.044 114.023C401.165 114.469 401.412 114.813 401.786 115.054C401.919 115.139 401.985 115.247 401.985 115.38C401.985 115.489 401.967 115.561 401.931 115.597C401.894 115.633 401.81 115.688 401.677 115.76C401.159 116.025 400.706 116.405 400.32 116.9C400.296 116.924 400.266 116.96 400.23 117.009C400.193 117.057 400.163 117.093 400.139 117.117C400.115 117.141 400.085 117.153 400.049 117.153C400.013 117.153 399.97 117.159 399.922 117.171C399.838 117.171 399.759 117.141 399.687 117.081C399.614 117.021 399.572 116.93 399.56 116.809C399.56 116.58 399.844 116.224 400.411 115.742H397.316L394.222 115.724C394.065 115.615 393.987 115.501 393.987 115.38C393.987 115.295 394.065 115.175 394.222 115.018H400.718C400.429 114.56 400.284 114.204 400.284 113.95Z" fill="#FFF888"/>
</g>
<path d="M454.053 257.021H432.654V277.867H454.053V257.021Z" fill="black"/>
<g clip-path="url(#clip8_755_7793)">
<path d="M446.453 265.34C446.598 265.376 447.189 265.394 448.226 265.394C449.131 265.394 449.602 265.376 449.638 265.34H449.728V266.462H448.57L445.892 273.176C445.88 273.188 445.862 273.206 445.837 273.23C445.813 273.254 445.789 273.278 445.765 273.302C445.741 273.327 445.729 273.339 445.729 273.339C445.729 273.339 445.711 273.351 445.675 273.375C445.638 273.399 445.626 273.411 445.638 273.411C445.65 273.411 445.626 273.417 445.566 273.429C445.506 273.441 445.482 273.441 445.494 273.429C445.506 273.417 445.482 273.423 445.421 273.447C445.361 273.471 445.325 273.471 445.313 273.447C445.301 273.423 445.252 273.423 445.168 273.447H444.969C444.764 273.447 444.619 273.387 444.535 273.266C444.45 273.146 444.281 272.76 444.028 272.108C443.835 271.625 443.672 271.221 443.539 270.896L442.671 268.724L441.802 270.896C441.681 271.209 441.524 271.601 441.331 272.072C441.078 272.735 440.909 273.128 440.825 273.248C440.74 273.369 440.595 273.435 440.39 273.447H440.173C439.956 273.447 439.811 273.435 439.739 273.411C439.666 273.387 439.576 273.308 439.467 273.176L436.789 266.462H435.613V265.34H435.739C435.92 265.376 436.572 265.394 437.694 265.394C438.937 265.394 439.666 265.376 439.884 265.34H440.047V266.462H439.178L440.77 270.407L442.073 267.186L441.784 266.462H440.644V265.34H440.77C440.915 265.376 441.5 265.394 442.526 265.394C443.744 265.394 444.444 265.376 444.625 265.34H444.77V266.462H444.317C444.016 266.462 443.865 266.474 443.865 266.498C443.877 266.546 444.167 267.276 444.734 268.688C445.301 270.099 445.59 270.805 445.602 270.805L447.358 266.462H446.326V265.34H446.453Z" fill="#D582FF"/>
<path d="M444.978 260.219C444.978 260.122 445.008 260.038 445.068 259.965C445.129 259.893 445.219 259.857 445.34 259.857C445.424 259.857 445.497 259.887 445.557 259.947C445.617 259.996 445.678 260.11 445.738 260.291C445.859 260.737 446.106 261.081 446.48 261.323C446.613 261.407 446.679 261.516 446.679 261.648C446.679 261.757 446.661 261.829 446.625 261.866C446.589 261.902 446.504 261.956 446.371 262.028C445.853 262.294 445.4 262.674 445.014 263.168C444.99 263.193 444.96 263.229 444.924 263.277C444.887 263.325 444.857 263.362 444.833 263.386C444.809 263.41 444.779 263.422 444.743 263.422C444.706 263.422 444.664 263.428 444.616 263.44C444.532 263.44 444.453 263.41 444.381 263.349C444.308 263.289 444.266 263.199 444.254 263.078C444.254 262.849 444.538 262.493 445.105 262.01H442.01L438.915 261.992C438.759 261.884 438.68 261.769 438.68 261.648C438.68 261.564 438.759 261.443 438.915 261.286H445.412C445.123 260.828 444.978 260.472 444.978 260.219Z" fill="#D582FF"/>
</g>
<path d="M611.411 33.8413H594.136V58.5415H611.411V33.8413Z" fill="black"/>
<g clip-path="url(#clip9_755_7793)">
<path d="M597.142 42.3065L598.789 42.2341C599.887 42.1858 600.443 42.1616 600.455 42.1616H600.563V42.9038C600.575 42.9038 600.624 42.8797 600.708 42.8314C600.793 42.7831 600.925 42.7228 601.106 42.6504C601.287 42.578 601.486 42.4995 601.704 42.4151C601.921 42.3306 602.186 42.2703 602.5 42.2341C602.814 42.1979 603.14 42.1737 603.478 42.1616C604.66 42.1616 605.614 42.5357 606.338 43.2839C607.062 44.0321 607.424 45.0277 607.424 46.2706C607.424 47.417 607.056 48.3945 606.319 49.203C605.583 50.0116 604.509 50.4158 603.097 50.4158H602.971C602.223 50.4158 601.511 50.2107 600.835 49.8004L600.672 49.6918V52.6966H601.921V53.8188H601.758C601.541 53.7826 600.793 53.7645 599.513 53.7645C598.222 53.7645 597.468 53.7826 597.251 53.8188H597.088V52.6966H598.337V48.2618V45.1665C598.337 44.6113 598.331 44.2252 598.319 44.008C598.307 43.7908 598.283 43.658 598.246 43.6097C598.21 43.5615 598.15 43.5253 598.065 43.5011C597.896 43.4529 597.649 43.4287 597.323 43.4287H597.088V42.3065H597.142ZM604.835 46.2525C604.835 45.2992 604.654 44.545 604.292 43.9899C603.93 43.4348 603.466 43.1572 602.898 43.1572C602.078 43.1572 601.384 43.4167 600.817 43.9356L600.672 44.0623V48.4247L600.78 48.5514C601.275 49.1789 601.903 49.4927 602.663 49.4927C603.218 49.4927 603.719 49.2453 604.165 48.7505C604.612 48.2557 604.835 47.4231 604.835 46.2525Z" fill="#8AFDFF"/>
<path d="M604.645 37.0392C604.645 36.9427 604.675 36.8582 604.736 36.7858C604.796 36.7134 604.886 36.6772 605.007 36.6772C605.092 36.6772 605.164 36.7074 605.224 36.7677C605.285 36.816 605.345 36.9306 605.405 37.1116C605.526 37.5581 605.773 37.902 606.148 38.1434C606.28 38.2279 606.347 38.3365 606.347 38.4692C606.347 38.5778 606.329 38.6502 606.292 38.6864C606.256 38.7226 606.172 38.7769 606.039 38.8493C605.52 39.1148 605.067 39.4949 604.681 39.9897C604.657 40.0138 604.627 40.05 604.591 40.0983C604.555 40.1466 604.524 40.1828 604.5 40.2069C604.476 40.2311 604.446 40.2431 604.41 40.2431C604.374 40.2431 604.331 40.2492 604.283 40.2612C604.199 40.2612 604.12 40.2311 604.048 40.1707C603.975 40.1104 603.933 40.0199 603.921 39.8992C603.921 39.6699 604.205 39.3139 604.772 38.8312H601.677L598.581 38.8131C598.424 38.7045 598.346 38.5899 598.346 38.4692C598.346 38.3847 598.424 38.2641 598.581 38.1072H605.08C604.79 37.6486 604.645 37.2926 604.645 37.0392Z" fill="#8AFDFF"/>
</g>
<g filter="url(#filter0_d_755_7793)">
<path d="M233.207 283.023C235.734 282.696 236.68 280.672 237.449 278.801C239.502 273.808 239.414 268.444 239.711 263.164C239.742 262.606 239.818 261.7 239.015 261.68C238.121 261.658 238.384 262.554 238.365 263.112C238.281 265.564 238.39 268.034 238.133 270.466C237.647 275.058 236.772 279.555 233.207 283.023L233.207 283.023Z" fill="#303030"/>
<path d="M232.072 251.077C231.837 252.073 231.069 252.566 230.255 253.03C229.931 253.215 229.508 253.47 229.753 253.911C230.043 254.434 230.551 254.26 230.952 254.026C232.391 253.183 233.396 251.956 233.992 250.403C234.346 249.478 234.659 248.537 234.99 247.603C235.003 247.456 235.019 247.309 235.035 247.162C235.225 246.843 235.206 246.535 234.978 246.241C233.641 245.609 233.648 246.584 233.581 247.429C233.472 248.811 233.036 250.051 232.072 251.077L232.072 251.077Z" fill="#303030"/>
<path d="M132.36 268.35C132.041 265.415 131.182 262.602 130.437 259.762C130.395 259.457 130.352 259.151 130.309 258.845C129.927 258.201 129.452 257.944 128.787 258.48C130.375 261.764 130.15 265.507 131.408 268.875L132.36 268.35Z" fill="#303030"/>
<path d="M143.813 260.723C142.918 259.151 143.406 257.247 142.589 255.648C142.279 255.04 142.128 254.348 141.799 253.751C141.508 253.222 140.982 252.54 140.386 252.878C139.494 253.384 140.443 253.855 140.682 254.302C142.013 256.785 142.255 259.527 142.603 262.245C143.026 262.064 143.448 261.883 143.872 261.702C143.941 261.63 144.011 261.559 144.081 261.487C144.181 261.166 144.104 260.907 143.813 260.724L143.813 260.723Z" fill="#303030"/>
<path d="M143.953 262.043C144.113 261.91 144.273 261.776 144.432 261.643C144.312 261.485 144.157 261.435 143.968 261.495L143.872 261.702C143.91 261.813 143.937 261.927 143.953 262.043L143.953 262.043Z" fill="#303030"/>
<path d="M108.137 224.647C107.713 221.815 109.111 219.92 111.592 218.487C109.201 218.072 107.546 219.338 107.134 221.897C106.965 222.949 106.723 223.786 105.774 224.318C106.561 224.428 107.349 224.537 108.137 224.647Z" fill="#303030"/>
<path d="M155.803 259.364C155.591 256.3 154.744 253.387 153.682 250.53C153.408 249.793 152.856 248.941 152.048 249.38C151.311 249.78 152.247 250.379 152.406 250.902C153.257 253.704 154.654 256.412 153.93 259.495C154.596 260.044 155.216 259.936 155.803 259.364Z" fill="#303030"/>
<path d="M192.662 244.923C195.21 248.857 198.582 251.563 203.391 252.126C203.89 252.183 204.589 252.571 204.768 251.847C204.971 251.026 204.153 251.18 203.685 251.098C196.565 249.84 193.11 244.659 190.568 238.635C189.902 237.057 189.163 235.404 189.155 233.596C188.152 231.803 188.825 229.52 187.498 227.754C186.345 231.063 188.933 239.588 192.662 244.922L192.662 244.923Z" fill="#303030"/>
<path d="M178.995 234.283C180.184 234.642 180.345 233.787 180.299 233.015C180.154 230.598 180.792 228.496 182.472 226.724C182.776 226.403 183.18 225.965 182.597 225.594C182.145 225.306 181.697 225.635 181.4 225.985C179.481 228.245 178.592 230.836 178.963 233.814C178.812 233.929 178.767 234.037 178.826 234.138C178.886 234.238 178.942 234.287 178.995 234.283Z" fill="#303030"/>
<path d="M185.381 286.651C182.826 285.977 180.753 284.742 180.176 281.505C178.65 284.049 181.139 285.118 181.207 286.808C182.607 286.988 184.058 288.504 185.381 286.651Z" fill="#303030"/>
<path d="M200.845 282.84C200.761 282.629 200.738 282.308 200.583 282.221C198.855 281.252 197.508 279.948 196.907 277.478C196.216 280.495 196.795 281.45 199.898 283.23C200.278 283.255 200.665 283.301 200.845 282.84Z" fill="#303030"/>
<path d="M167.227 243.93C170.688 245.341 173.731 247.259 175.668 250.616C177.039 252.993 176.965 253.306 174.397 254.396C175.615 254.119 176.869 255.032 178.073 254.283C177.878 250.639 175.851 248.054 173.124 245.939C170.248 243.709 166.986 242.3 163.379 241.728C163.058 241.64 162.737 241.552 162.416 241.464C162.32 241.075 162.169 241.053 161.964 241.397C160.188 241.64 158.358 240.683 156.196 241.817C160.052 242.864 163.835 242.487 167.227 243.93L167.227 243.93Z" fill="#303030"/>
<path d="M153.774 225.935C152.854 225.234 152.323 225.59 151.874 225.994C149.906 227.762 149.318 230.075 149.388 232.612C149.401 233.059 149.534 233.592 150.16 233.508C150.619 233.446 150.688 232.995 150.69 232.612C150.701 229.942 151.214 227.483 153.774 225.935Z" fill="#303030"/>
<path d="M130.024 226.361C130.845 223.636 131.751 221.385 134.427 220.318C132.684 219.95 132.014 220.037 131.276 221.06C130.27 222.454 128.647 223.739 130.024 226.361Z" fill="#303030"/>
<path d="M176.387 268.23C175.969 267.195 176.571 265.522 175.4 265.601C174.26 265.678 174.843 267.266 174.918 268.162C175 269.152 174.635 271.027 175.651 270.932C177.258 270.783 175.762 269.009 176.387 268.23Z" fill="#303030"/>
<path d="M122.991 273.76C125.034 272.747 127.342 272.802 129.496 272.098C133.439 270.809 136.642 268.34 140.031 266.179C141.35 265.337 143.043 265.257 144.091 263.981C144.415 263.357 144.924 262.775 144.55 261.99C144.446 261.766 144.295 261.581 144.1 261.432C143.51 261.065 142.95 261.349 142.385 261.511C141.76 261.614 141.485 262.171 141.06 262.53C138.018 264.176 135.062 265.98 132.017 267.624C131.592 267.785 131.227 268.064 130.806 268.234C125.817 270.911 120.662 271.81 115.224 269.702C114.173 269.009 113.813 268.136 114.528 266.986C114.867 264.928 116.455 263.188 116.067 260.945C115.739 260.272 115.532 259.485 114.601 259.38C112.983 261.904 111.519 264.527 111.516 267.609C111.512 271.013 112.942 272.569 116.297 273.332C117.012 273.494 117.691 273.82 118.386 274.071C119.921 273.967 121.456 273.864 122.991 273.76Z" fill="#A0A0A0"/>
<path d="M150.164 217.312C144.524 215.697 138.736 214.912 132.929 214.252C127.254 213.607 121.55 213.588 115.877 212.44C110.465 211.345 104.99 209.744 99.3241 210.507C96.2537 210.92 93.4702 211.955 91.6001 214.647C89.3223 217.926 90.1471 221.827 94.0783 223.52C97.9323 225.18 102.06 225.594 106.125 226.184C113.41 227.242 120.685 228.337 127.93 229.643C132.644 230.492 137.455 230.888 141.958 232.7C142.213 232.823 142.475 232.84 142.743 232.749C143.442 232.334 143.507 231.696 143.361 230.986C143.039 230.009 142.275 229.501 141.349 229.299C137.682 228.501 134.146 227.231 130.3 227.07C127.864 226.968 125.452 225.993 122.98 225.607C118.146 224.853 113.333 223.969 108.45 223.587C107.574 223.637 106.795 223.265 105.988 223.012C102.965 222.507 99.8849 222.31 96.963 221.272C95.4579 220.737 94.0271 220.088 93.9331 218.235C93.8443 216.479 94.999 215.43 96.3773 214.62C98.3083 213.484 100.424 213.291 102.612 213.454C106.297 213.727 109.894 214.544 113.512 215.211C119.026 216.226 124.555 216.855 130.174 217.073C135.602 217.283 140.993 218.213 146.329 219.331C147.584 219.593 148.864 220.136 150.066 219.149C150.503 218.557 150.603 217.948 150.164 217.311L150.164 217.312Z" fill="#A0A0A0"/>
<path d="M150.164 217.312C150.041 217.736 149.917 218.16 149.794 218.585C149.773 219.603 150.368 220.188 151.271 220.349C158.184 221.574 164.987 223.494 172.066 223.674C172.443 223.667 172.821 223.67 173.198 223.689C178.39 224.383 182.339 222.075 185.754 218.479C186.505 217.688 186.396 216.64 186.579 215.679C188.608 212.114 190.297 208.48 189.541 204.175C189.247 202.5 188.614 201.067 187.395 199.891C186.592 200.096 186.601 200.787 186.49 201.406C190.07 207.94 185.21 215.871 181.223 218.32C178.58 221.008 175.162 220.895 171.844 220.701C164.73 220.287 157.866 218.257 150.844 217.221C150.626 217.189 150.391 217.279 150.164 217.313L150.164 217.312Z" fill="#A0A0A0"/>
<path d="M114.601 259.381C114.812 260.021 115.023 260.662 115.234 261.302C115.969 261.669 116.72 261.503 117.083 260.878C118.721 258.057 121.561 256.838 124.199 255.337C124.673 255.067 125.022 254.646 125.437 254.305C127.55 252.877 130.08 252.479 132.37 251.49C137.576 249.755 142.834 248.189 148.087 246.609C148.493 246.509 148.78 246.218 149.104 245.987C153.872 242.609 153.292 237.229 147.803 233.894C146.996 233.903 146.218 233.991 145.661 234.681C145.379 236.833 147.215 237.885 148.152 239.398C148.418 239.827 148.985 240.042 149.34 240.441C149.789 242.789 147.974 243.241 146.431 243.922C143.468 243.211 136.387 245.348 134.643 247.481C130.734 249.344 126.571 250.577 122.731 252.666C119.526 254.409 116.683 256.378 114.601 259.381L114.601 259.381Z" fill="#A0A0A0"/>
<path d="M143.953 262.043C143.874 262.698 143.802 263.352 144.091 263.981C147.343 263.599 150.299 261.9 153.622 261.831C155.483 261.385 157.365 260.288 159.161 261.998C157.969 266.791 160.772 272.889 165.437 274.913C165.956 275.138 166.124 275.411 166.24 275.856C166.955 276.501 167.498 277.424 168.654 277.366C171.868 278.332 175.079 278.097 178.142 276.928C186.355 273.79 194.979 272.29 203.494 270.35C205.666 269.856 207.83 269.308 209.774 268.199C211.385 267.281 213.095 267.929 214.738 267.667C215.397 267.277 216.051 266.88 216.365 266.127C216.518 265.587 216.496 265.005 216.104 264.627C215.158 263.718 215.029 262.677 215.413 261.511C215.783 260.387 215.239 259.438 214.881 258.446C214.105 256.806 212.808 255.913 211.012 255.727C208.317 255.066 205.522 255.488 202.814 254.951C202.054 254.8 201.3 254.894 200.677 255.445C200.225 255.966 199.89 256.532 199.99 257.26C200.445 258.642 201.623 258.665 202.79 258.783C204.772 258.985 206.797 258.882 208.726 259.462C210.647 260.04 210.813 260.873 209.595 262.458C207.213 265.558 203.681 266.106 200.22 266.804C192.318 268.397 184.464 270.136 176.859 272.892C171.41 274.867 165.963 273.056 163.284 268.7C162.035 266.669 161.694 264.59 162.377 262.308C162.635 261.446 163.124 260.588 162.697 259.631C162.374 258.406 161.503 257.927 160.321 257.867C158.923 258.11 157.488 258.141 156.114 258.539C155.266 258.681 154.415 258.737 153.558 258.608C150.792 259.204 147.941 259.413 145.27 260.435C144.977 260.651 144.68 260.864 144.381 261.072C144.101 261.335 144.038 261.694 143.952 262.043L143.953 262.043Z" fill="#A0A0A0"/>
<path d="M215.878 265.488C215.572 266.056 215.106 266.424 214.49 266.607C214.068 267.699 214.9 268.175 215.582 268.61C217.345 269.736 217.243 271.132 216.424 272.786C214.775 276.116 211.909 277.899 208.594 279.157C205.943 280.163 203.171 280.825 200.568 281.972C200.154 282.202 199.649 282.189 199.253 282.469C196.317 283.25 193.384 284.051 190.397 284.586C188.745 284.882 187.11 285.22 185.487 285.634C184.184 287.115 182.601 286.439 181.075 286.2C180.303 286.237 179.558 285.831 178.803 285.96C174.585 286.677 172.497 284.282 170.915 280.847C170.241 279.384 170.14 277.507 168.43 276.632C167.763 276.194 167.076 275.815 166.24 275.855C166.71 279.823 168.346 283.345 170.723 286.46C172.137 288.314 174.191 289.614 176.683 288.997C180.621 288.023 183.873 290.202 187.399 291.067C192.617 292.347 197.862 293.233 203.246 292.772C205.124 292.612 206.98 292.183 208.846 291.876C212.487 290.998 216.17 290.749 219.895 291.131C220.509 291.09 221.123 291.048 221.736 291.007C222.208 290.41 222.17 289.847 221.622 289.319C216.715 289.648 211.808 289.977 206.901 290.306C203.993 290.763 201.069 290.967 198.126 290.893C194.323 291.026 190.727 290.094 187.039 288.826C187.572 287.925 188.289 287.798 189.096 287.724C194.002 287.279 198.658 285.807 203.279 284.204C205.753 283.345 208.22 282.47 210.704 281.643C214.477 280.388 217.111 277.788 219.217 274.543C219.778 274.196 220.065 273.636 220.347 273.072C221.797 270.414 221.677 268.87 219.853 266.731C218.571 266.18 217.816 263.94 215.878 265.488L215.878 265.488Z" fill="#A0A0A0"/>
<path d="M221.622 289.32C221.66 289.883 221.698 290.446 221.736 291.009C225.582 291.945 229.578 291.989 233.41 293.041C240.201 294.904 246.718 297.361 252.514 301.469C254.007 300.991 254.434 300.484 252.851 299.367C248.644 296.399 243.928 294.518 239.157 292.763C233.504 290.684 227.627 289.653 221.622 289.32Z" fill="#A0A0A0"/>
<path d="M219.895 291.132C219.504 290.583 218.949 290.378 218.304 290.42C215.645 290.591 212.986 290.77 210.328 290.958C209.683 291.003 209.16 291.28 208.846 291.876C212.529 291.628 216.212 291.38 219.895 291.131L219.895 291.132Z" fill="#A0A0A0"/>
<path d="M159.162 261.998C159.391 261.553 159.49 260.929 158.926 260.888C157.098 260.754 155.153 260.215 153.622 261.831C155.011 261.785 156.399 261.738 157.788 261.692C158.329 261.421 158.713 261.855 159.162 261.998Z" fill="#A0A0A0"/>
<path d="M186.49 201.406C187.003 201.027 187.301 200.52 187.395 199.89C186.34 197.838 185.164 195.837 184.252 193.723C181.396 187.106 181.487 180.394 183.633 173.575C184.802 169.862 185.74 166.074 187.603 162.625C189.152 159.757 192.129 158.244 195.17 158.707C197.172 159.012 197.572 160.374 197.164 162.071C196.656 164.186 196.024 166.271 195.444 168.368C194.468 171.902 196.031 175.036 197.022 178.251C198.969 184.573 201.807 190.552 204.193 196.706C204.294 196.966 204.539 197.169 204.717 197.399C205.747 197.676 206.095 197.35 205.659 196.332C205 192.981 203.351 189.99 202.201 186.817C200.205 181.311 197.471 176.049 197.323 169.967C197.259 167.349 198.59 165.188 198.962 162.727C199.591 158.569 198.02 156.676 193.822 156.916C187.872 157.257 186.174 160.136 184.306 165.174C182.978 168.756 181.734 172.4 180.982 176.177C179.398 184.123 180.037 191.674 184.873 198.496C185.519 199.407 185.579 200.642 186.489 201.405L186.49 201.406Z" fill="#A0A0A0"/>
<path d="M232.666 233.386C235.078 235.469 237.829 237.072 240.438 238.877C240.679 239.182 240.85 239.615 241.379 239.388C244.949 240.89 248.174 243.066 251.838 244.441C256.332 246.128 260.898 247.417 265.599 248.293C266.374 248.438 266.987 248.121 267.074 247.289C267.166 246.413 266.44 246.526 265.873 246.433C260.294 245.521 254.917 243.924 249.81 241.49C246.508 239.917 243.196 238.349 240.214 236.19C235.746 233.45 231.611 230.317 227.868 226.605C224.687 223.451 221.547 220.272 218.797 216.745C216.355 213.613 213.551 210.73 211.829 207.076C210.421 206.778 210.226 207.454 210.611 208.595C216.692 217.99 223.832 226.443 232.666 233.387L232.666 233.386Z" fill="#A0A0A0"/>
<path d="M190.07 255.835C192.907 255.884 200.244 255.884 202.836 256.373" stroke="#A0A0A0" stroke-width="4" stroke-linecap="round"/>
<path d="M210.611 208.594C210.72 207.85 211.103 207.326 211.828 207.075C210.011 203.758 207.894 200.6 206.493 197.057C206.373 196.753 205.944 196.572 205.659 196.333C205.507 196.833 205.192 197.187 204.717 197.4C205.568 200.29 207.246 202.768 208.687 205.364C209.295 206.459 209.967 207.518 210.611 208.594Z" fill="#A0A0A0"/>
<path d="M147.564 234.544C146.307 232.958 144.91 231.577 142.785 231.253C142.646 231.703 142.507 232.153 142.368 232.603C143.501 233.451 144.634 234.298 145.767 235.145C146.366 234.945 146.965 234.745 147.564 234.544L147.564 234.544Z" fill="#A0A0A0"/>
<path d="M198.126 290.894C201.092 291.304 204.019 291.145 206.901 290.307C203.976 290.503 201.051 290.698 198.126 290.894Z" fill="#A0A0A0"/>
<path d="M161.846 259.987C162.703 259.131 163.562 258.276 164.42 257.42C168.144 257.529 171.914 258.105 175.457 256.348C178.34 256.072 181.201 256.445 184.055 256.729C186.76 256.998 189.447 257.412 192.163 256.911C193.006 256.417 194.866 257.127 194.364 255.047C193.977 254.686 193.598 254.352 193.002 254.371C188.096 254.522 183.297 252.84 178.36 253.509C176.925 253.744 175.598 252.727 174.146 253.138C172.891 253.433 171.623 253.509 170.342 253.358C168.738 253.168 167.205 253.381 165.776 254.172C165.415 254.29 165.054 254.407 164.693 254.524C164.346 254.687 164.08 254.947 163.845 255.245C162.727 256.58 161.162 257.51 160.342 259.116C161.115 258.937 161.74 259.012 161.845 259.986L161.846 259.987Z" fill="#A0A0A0"/>
<path d="M200.887 255.881C200.156 255.152 199.331 255.693 198.544 255.709C197.995 256.194 197.543 256.7 198.198 257.429C198.968 257.377 199.737 257.326 200.507 257.274C200.633 256.81 200.76 256.345 200.887 255.881Z" fill="#A0A0A0"/>
<path d="M195.741 255.28C195.281 255.365 194.821 255.451 194.361 255.537C193.645 256.02 192.662 256.077 192.163 256.91C193.012 257.615 193.992 257.285 194.932 257.262C196.026 257.234 197.132 256.925 198.199 257.428C198.314 256.855 198.429 256.281 198.545 255.708C197.746 255.644 196.895 255.849 196.202 255.248C196.048 255.259 195.895 255.269 195.741 255.279L195.741 255.28Z" fill="#A0A0A0"/>
</g>
<path d="M192.085 230.891L77 215.23" stroke="#FFF888" stroke-width="1.5"/>
<path d="M192.083 230.863L98.5608 274.622" stroke="#D582FF" stroke-width="1.5"/>
<path d="M191.668 231.089V79" stroke="#8AFDFF" stroke-width="1.5"/>
<path d="M107.729 277.831L91.2813 278.038L102.034 265.591L102.161 272.976L107.729 277.831Z" fill="#D582FF"/>
<path d="M82.9285 222.858L68.9649 214.164L84.7323 209.479L80.8573 215.768L82.9285 222.858Z" fill="#FFF888"/>
<path d="M185 87L191.75 72L198.5 87L191.75 84L185 87Z" fill="#8AFDFF"/>
</g>
<defs>
<filter id="filter0_d_755_7793" x="86.3461" y="156.896" width="184.736" height="152.573" filterUnits="userSpaceOnUse" color-interpolation-filters="sRGB">
<feFlood flood-opacity="0" result="BackgroundImageFix"/>
<feColorMatrix in="SourceAlpha" type="matrix" values="0 0 0 0 0 0 0 0 0 0 0 0 0 0 0 0 0 0 127 0" result="hardAlpha"/>
<feOffset dy="4"/>
<feGaussianBlur stdDeviation="2"/>
<feComposite in2="hardAlpha" operator="out"/>
<feColorMatrix type="matrix" values="0 0 0 0 0 0 0 0 0 0 0 0 0 0 0 0 0 0 0.25 0"/>
<feBlend mode="normal" in2="BackgroundImageFix" result="effect1_dropShadow_755_7793"/>
<feBlend mode="normal" in="SourceGraphic" in2="effect1_dropShadow_755_7793" result="shape"/>
</filter>
<clipPath id="clip0_755_7793">
<rect width="640" height="360" fill="white"/>
</clipPath>
<clipPath id="clip1_755_7793">
<rect width="10.984" height="15.328" fill="white" transform="translate(48.7731 203.769)"/>
</clipPath>
<clipPath id="clip2_755_7793">
<rect width="15.04" height="15.328" fill="white" transform="translate(65.7282 275.435)"/>
</clipPath>
<clipPath id="clip3_755_7793">
<rect width="54.171" height="17.244" fill="white" transform="translate(165.148 39.6772)"/>
</clipPath>
<clipPath id="clip4_755_7793">
<rect width="10.352" height="8.2" fill="white" transform="translate(323.961 183.296)"/>
</clipPath>
<clipPath id="clip5_755_7793">
<rect width="8.872" height="11.712" fill="white" transform="translate(486.369 234.614)"/>
</clipPath>
<clipPath id="clip6_755_7793">
<rect width="8.416" height="8.2" fill="white" transform="translate(455.725 45.5024)"/>
</clipPath>
<clipPath id="clip7_755_7793">
<rect width="10.984" height="15.328" fill="white" transform="translate(392.494 111.778)"/>
</clipPath>
<clipPath id="clip8_755_7793">
<rect width="15.04" height="15.328" fill="white" transform="translate(435.16 258.047)"/>
</clipPath>
<clipPath id="clip9_755_7793">
<rect width="11.568" height="18.952" fill="white" transform="translate(596.562 34.8667)"/>
</clipPath>
</defs>
</svg>
