<svg width="540" height="541" viewBox="0 0 540 541" fill="none" xmlns="http://www.w3.org/2000/svg">
<g clip-path="url(#clip0_1601_35843)">
<path d="M540 0.743164H0V540.743H540V0.743164Z" fill="black"/>
<path d="M162.57 219.741H144.956V234.685H162.57V219.741Z" fill="black"/>
<g clip-path="url(#clip1_1601_35843)">
<path d="M149.288 226.753C149.38 226.202 149.734 225.565 150.351 224.844C150.967 224.122 151.728 223.755 152.634 223.742C153.093 223.742 153.513 223.86 153.893 224.096C154.274 224.332 154.556 224.627 154.74 224.981C155.291 224.155 155.953 223.742 156.728 223.742C157.213 223.742 157.633 223.886 157.987 224.175C158.341 224.463 158.525 224.85 158.538 225.336C158.538 225.716 158.446 226.025 158.263 226.261C158.079 226.497 157.902 226.641 157.731 226.694C157.561 226.746 157.41 226.772 157.279 226.772C157.029 226.772 156.826 226.7 156.669 226.556C156.511 226.412 156.432 226.221 156.432 225.985C156.432 225.382 156.76 224.968 157.416 224.745C157.272 224.575 157.01 224.489 156.629 224.489C156.459 224.489 156.334 224.503 156.255 224.529C155.757 224.739 155.389 225.172 155.153 225.828C154.366 228.727 153.972 230.42 153.972 230.906C153.972 231.273 154.077 231.535 154.287 231.693C154.497 231.85 154.727 231.929 154.976 231.929C155.461 231.929 155.94 231.713 156.413 231.28C156.885 230.847 157.206 230.315 157.377 229.685C157.416 229.554 157.456 229.482 157.495 229.469C157.535 229.456 157.639 229.443 157.81 229.429H157.889C158.086 229.429 158.184 229.482 158.184 229.587C158.184 229.6 158.171 229.672 158.145 229.803C157.935 230.551 157.528 231.214 156.924 231.791C156.321 232.369 155.619 232.657 154.818 232.657C153.9 232.657 153.205 232.244 152.732 231.417C152.194 232.231 151.578 232.638 150.882 232.638H150.764C150.121 232.638 149.662 232.467 149.386 232.126C149.111 231.785 148.967 231.424 148.953 231.043C148.953 230.623 149.078 230.282 149.327 230.02C149.577 229.757 149.872 229.626 150.213 229.626C150.777 229.626 151.059 229.902 151.059 230.453C151.059 230.715 150.981 230.945 150.823 231.142C150.666 231.339 150.515 231.47 150.37 231.535C150.226 231.601 150.141 231.634 150.115 231.634L150.056 231.653C150.056 231.667 150.095 231.693 150.174 231.732C150.252 231.772 150.357 231.817 150.489 231.87C150.62 231.922 150.744 231.942 150.863 231.929C151.335 231.929 151.742 231.634 152.083 231.043C152.201 230.833 152.352 230.387 152.535 229.705C152.719 229.023 152.903 228.314 153.087 227.579C153.27 226.845 153.375 226.412 153.401 226.28C153.467 225.926 153.5 225.67 153.5 225.513C153.5 225.145 153.401 224.883 153.205 224.726C153.008 224.568 152.785 224.489 152.535 224.489C152.011 224.489 151.519 224.699 151.059 225.119C150.6 225.539 150.279 226.077 150.095 226.733C150.069 226.851 150.036 226.917 149.997 226.93C149.957 226.943 149.852 226.956 149.682 226.969H149.406C149.327 226.891 149.288 226.818 149.288 226.753Z" fill="#F0F0F0"/>
</g>
<path d="M110.387 311.077H93.0023V329.854H110.387V311.077Z" fill="black"/>
<g clip-path="url(#clip2_1601_35843)">
<path d="M97.001 318.129C97.001 317.945 97.0994 317.63 97.2963 317.184C97.4931 316.738 97.8081 316.272 98.2412 315.786C98.6743 315.301 99.1599 315.065 99.6979 315.078C100.236 315.078 100.669 315.229 100.997 315.53C101.325 315.832 101.496 316.252 101.509 316.79C101.483 317.04 101.463 317.177 101.45 317.204C101.45 317.243 101.345 317.545 101.135 318.109C100.925 318.674 100.708 319.31 100.485 320.019C100.262 320.728 100.157 321.292 100.17 321.712C100.17 322.276 100.262 322.67 100.446 322.893C100.63 323.116 100.905 323.234 101.273 323.247C101.575 323.247 101.857 323.175 102.119 323.031C102.382 322.886 102.585 322.735 102.73 322.578C102.874 322.421 103.051 322.204 103.261 321.928C103.261 321.915 103.294 321.784 103.36 321.535C103.425 321.285 103.517 320.898 103.635 320.373C103.753 319.848 103.878 319.363 104.009 318.916C104.508 316.948 104.783 315.918 104.836 315.826C105.007 315.471 105.289 315.294 105.682 315.294C105.853 315.294 105.991 315.34 106.096 315.432C106.201 315.524 106.273 315.603 106.312 315.668C106.352 315.734 106.365 315.793 106.352 315.845C106.352 316.016 106.03 317.394 105.387 319.979C104.744 322.565 104.377 323.982 104.285 324.232C103.917 325.321 103.281 326.187 102.375 326.83C101.47 327.473 100.564 327.801 99.6586 327.814C99.068 327.814 98.5496 327.67 98.1034 327.381C97.6572 327.093 97.4341 326.66 97.4341 326.082C97.4341 325.793 97.48 325.551 97.5719 325.354C97.6637 325.157 97.7884 325.012 97.9459 324.921C98.1034 324.829 98.2346 324.763 98.3396 324.724C98.4446 324.684 98.5562 324.665 98.6743 324.665C99.2517 324.665 99.5404 324.94 99.5404 325.492C99.5404 325.754 99.4617 325.984 99.3042 326.181C99.1467 326.377 98.9958 326.509 98.8514 326.574C98.7071 326.64 98.6218 326.673 98.5955 326.673L98.5365 326.692C98.5627 326.758 98.6874 326.837 98.9105 326.929C99.1336 327.02 99.3567 327.066 99.5798 327.066H99.7373C99.9604 327.066 100.131 327.053 100.249 327.027C100.682 326.909 101.083 326.66 101.45 326.279C101.817 325.898 102.1 325.492 102.296 325.058C102.493 324.625 102.644 324.258 102.749 323.956C102.854 323.654 102.907 323.457 102.907 323.365L102.789 323.444C102.71 323.497 102.585 323.569 102.415 323.661C102.244 323.753 102.073 323.831 101.903 323.897C101.64 323.963 101.384 323.995 101.135 323.995C100.531 323.995 99.9998 323.851 99.5404 323.562C99.0811 323.274 98.7793 322.808 98.6349 322.165C98.6218 322.073 98.6152 321.869 98.6152 321.554C98.6152 320.806 98.8449 319.829 99.3042 318.621C99.7636 317.414 99.9932 316.646 99.9932 316.318C99.9932 316.305 99.9932 316.292 99.9932 316.278C99.9932 316.16 99.9932 316.082 99.9932 316.042C99.9932 316.003 99.967 315.957 99.9145 315.904C99.862 315.852 99.7898 315.826 99.6979 315.826H99.6192C99.3173 315.826 99.0417 315.95 98.7924 316.2C98.543 316.449 98.3462 316.718 98.2018 317.007C98.0574 317.296 97.9459 317.571 97.8671 317.834C97.7884 318.096 97.7359 318.241 97.7097 318.267C97.6834 318.293 97.5784 318.306 97.3947 318.306H97.1191C97.0403 318.227 97.001 318.168 97.001 318.129Z" fill="#F0F0F0"/>
</g>
<path d="M278.91 61.4482H262.36V76.3926H278.91V61.4482Z" fill="black"/>
<g clip-path="url(#clip3_1601_35843)">
<path d="M272.499 67.495C272.368 67.495 272.02 67.4229 271.456 67.2785C270.892 67.1342 270.478 67.062 270.216 67.062C269.954 67.062 269.731 67.0883 269.547 67.1408C269.363 67.1932 269.212 67.2588 269.094 67.3376C268.976 67.4163 268.897 67.4885 268.858 67.5541C268.819 67.6197 268.773 67.6919 268.72 67.7706L268.681 67.8493C268.641 67.8887 268.543 67.9084 268.386 67.9084C268.11 67.9084 267.972 67.8559 267.972 67.7509C267.972 67.6853 267.992 67.5935 268.031 67.4754C268.202 66.9636 268.484 66.524 268.878 66.1566C269.271 65.7892 269.704 65.5661 270.177 65.4874C270.334 65.4612 270.446 65.448 270.511 65.448C270.839 65.448 271.135 65.5596 271.397 65.7827C271.659 66.0057 271.909 66.2222 272.145 66.4322C272.381 66.6421 272.63 66.7537 272.893 66.7668C273.182 66.7668 273.47 66.5503 273.759 66.1173C274.048 65.6842 274.199 65.4677 274.212 65.4677C274.225 65.4546 274.323 65.448 274.507 65.448H274.763C274.841 65.5268 274.881 65.5793 274.881 65.6055C274.881 65.658 274.848 65.7498 274.782 65.8811C274.717 66.0123 274.625 66.1501 274.507 66.2944C274.389 66.4387 274.277 66.5831 274.172 66.7274C274.067 66.8718 273.975 66.9964 273.897 67.1014L273.759 67.2785C273.195 67.9477 272.302 68.8335 271.082 69.9357C269.862 71.0379 269.107 71.7465 268.819 72.0614L268.582 72.2976L268.878 72.3173C269.166 72.3173 269.586 72.3894 270.137 72.5338C270.688 72.6781 271.102 72.7503 271.377 72.7503C271.876 72.7503 272.335 72.6256 272.755 72.3763C273.175 72.127 273.451 71.799 273.582 71.3922C273.634 71.2741 273.68 71.2019 273.72 71.1757C273.759 71.1494 273.857 71.1363 274.015 71.1363C274.264 71.1363 274.389 71.2019 274.389 71.3331C274.389 71.3987 274.382 71.4578 274.369 71.5103C274.146 72.3238 273.713 72.9996 273.07 73.5376C272.427 74.0756 271.784 74.3511 271.141 74.3643C270.8 74.3643 270.498 74.2527 270.236 74.0297C269.973 73.8066 269.717 73.5835 269.468 73.3604C269.219 73.1374 268.969 73.0258 268.72 73.0258C268.143 73.0258 267.625 73.4195 267.165 74.2068C267.087 74.3118 266.975 74.3643 266.831 74.3643H266.732H266.476C266.398 74.2855 266.358 74.2265 266.358 74.1871C266.358 73.9903 266.739 73.4261 267.5 72.4944C268.012 71.9039 268.878 71.051 270.098 69.9357C271.318 68.8203 272.073 68.1118 272.361 67.81C272.519 67.6 272.565 67.495 272.499 67.495Z" fill="#F0F0F0"/>
</g>
<path d="M397.543 309.994L409.33 321.467L392.926 322.68L398.053 317.363L397.543 309.994Z" fill="#A0A0A0"/>
<path d="M174.267 243.108L162.48 231.636L178.884 230.422L173.757 235.739L174.267 243.108Z" fill="#A0A0A0"/>
<path d="M166.239 233.004L405.571 320.099" stroke="#A0A0A0" stroke-width="1.5"/>
<path d="M373.098 232.674L389.406 234.818L376.985 245.602L377.914 238.274L373.098 232.674Z" fill="#A0A0A0"/>
<path d="M134.963 318.386L118.655 316.242L131.076 305.458L130.147 312.786L134.963 318.386Z" fill="#A0A0A0"/>
<path d="M122.486 315.089L385.575 235.97" stroke="#A0A0A0" stroke-width="1.5"/>
<path d="M276.696 416.178L269.946 431.178L263.196 416.178L269.946 419.178L276.696 416.178Z" fill="#A0A0A0"/>
<path d="M263.194 104.369L269.944 89.3691L276.694 104.369L269.944 101.369L263.194 104.369Z" fill="#A0A0A0"/>
<path d="M269.944 93.3691L269.946 427.179" stroke="#A0A0A0" stroke-width="1.5"/>
<path d="M266.273 235.067L273.646 237.479" stroke="#A0A0A0" stroke-width="1.5"/>
<path d="M265.876 237.368L273.985 235.176" stroke="#A0A0A0" stroke-width="1.5"/>
<path d="M266.362 302.951L273.556 305.827" stroke="#A0A0A0" stroke-width="1.5"/>
<path d="M265.975 305.696L273.888 303.081" stroke="#A0A0A0" stroke-width="1.5"/>
<path d="M242.286 263.282L250.257 260.993" stroke="#A0A0A0" stroke-width="1.5"/>
<path d="M246.242 257.13L246.327 267.118" stroke="#A0A0A0" stroke-width="1.5"/>
<path d="M290.826 281.085L298.869 278.546" stroke="#A0A0A0" stroke-width="1.5"/>
<path d="M294.909 274.575L294.815 285.027" stroke="#A0A0A0" stroke-width="1.5"/>
<path d="M238.996 277.582L246.236 280.362" stroke="#A0A0A0" stroke-width="1.5"/>
<path d="M242.55 273.741L242.653 284.172" stroke="#A0A0A0" stroke-width="1.5"/>
<path d="M292.391 261.638L299.703 264.167" stroke="#A0A0A0" stroke-width="1.5"/>
<path d="M296.08 257.884L295.986 267.893" stroke="#A0A0A0" stroke-width="1.5"/>
<path d="M266.227 199.852L273.692 202.013" stroke="#A0A0A0" stroke-width="1.5"/>
<path d="M265.824 201.913L274.036 199.948" stroke="#A0A0A0" stroke-width="1.5"/>
<path d="M266.405 335.682L273.513 338.771" stroke="#A0A0A0" stroke-width="1.5"/>
<path d="M266.023 338.629L273.842 335.82" stroke="#A0A0A0" stroke-width="1.5"/>
<path d="M219.812 255.039L227.738 252.861" stroke="#A0A0A0" stroke-width="1.5"/>
<path d="M223.707 249.052L223.869 258.824" stroke="#A0A0A0" stroke-width="1.5"/>
<path d="M317.089 290.717L325.156 288.038" stroke="#A0A0A0" stroke-width="1.5"/>
<path d="M321.237 284.012L321.039 294.713" stroke="#A0A0A0" stroke-width="1.5"/>
<path d="M210.33 286.143L217.515 289.061" stroke="#A0A0A0" stroke-width="1.5"/>
<path d="M213.8 282.258L214.016 292.912" stroke="#A0A0A0" stroke-width="1.5"/>
<path d="M317.296 254.201L324.629 256.618" stroke="#A0A0A0" stroke-width="1.5"/>
<path d="M321.038 250.491L320.859 260.302" stroke="#A0A0A0" stroke-width="1.5"/>
<path d="M266.18 163.743L273.74 165.639" stroke="#A0A0A0" stroke-width="1.5"/>
<path d="M265.771 165.552L274.087 163.828" stroke="#A0A0A0" stroke-width="1.5"/>
<path d="M266.447 367.639L273.471 370.932" stroke="#A0A0A0" stroke-width="1.5"/>
<path d="M266.07 370.782L273.796 367.787" stroke="#A0A0A0" stroke-width="1.5"/>
<path d="M198.42 247.193L206.296 245.118" stroke="#A0A0A0" stroke-width="1.5"/>
<path d="M202.256 241.362L202.486 250.926" stroke="#A0A0A0" stroke-width="1.5"/>
<path d="M344.831 300.893L352.912 298.062" stroke="#A0A0A0" stroke-width="1.5"/>
<path d="M349.044 293.98L348.73 304.94" stroke="#A0A0A0" stroke-width="1.5"/>
<path d="M180.221 295.134L187.336 298.201" stroke="#A0A0A0" stroke-width="1.5"/>
<path d="M183.593 291.206L183.934 302.095" stroke="#A0A0A0" stroke-width="1.5"/>
<path d="M341.111 247.089L348.456 249.401" stroke="#A0A0A0" stroke-width="1.5"/>
<path d="M344.899 243.423L344.642 253.043" stroke="#A0A0A0" stroke-width="1.5"/>
<path d="M266.131 126.707L273.788 128.325" stroke="#A0A0A0" stroke-width="1.5"/>
<path d="M265.717 128.251L274.14 126.78" stroke="#A0A0A0" stroke-width="1.5"/>
<path d="M266.488 398.854L273.43 402.341" stroke="#A0A0A0" stroke-width="1.5"/>
<path d="M266.115 402.181L273.751 399.011" stroke="#A0A0A0" stroke-width="1.5"/>
<path d="M178.035 239.716L185.856 237.738" stroke="#A0A0A0" stroke-width="1.5"/>
<path d="M181.811 234.034L182.104 243.398" stroke="#A0A0A0" stroke-width="1.5"/>
<path d="M374.179 311.656L382.262 308.659" stroke="#A0A0A0" stroke-width="1.5"/>
<path d="M378.459 304.524L378.015 315.757" stroke="#A0A0A0" stroke-width="1.5"/>
<path d="M148.555 304.589L155.583 307.818" stroke="#A0A0A0" stroke-width="1.5"/>
<path d="M151.814 300.619L152.293 311.752" stroke="#A0A0A0" stroke-width="1.5"/>
<path d="M363.907 240.282L371.255 242.496" stroke="#A0A0A0" stroke-width="1.5"/>
<path d="M367.732 236.659L367.404 246.096" stroke="#A0A0A0" stroke-width="1.5"/>
<path d="M223.788 253.946L298.066 233.537L344.77 248.241L269.945 270.744" fill="#8AFDFF" fill-opacity="0.2"/>
<path d="M223.788 253.946L298.066 233.537L344.77 248.241L269.945 270.744" stroke="#F0F0F0" stroke-width="1.5"/>
<path d="M235.575 265.419L223.788 253.946L240.192 252.733L235.065 258.05L235.575 265.419Z" fill="#FFF888"/>
<path d="M269.945 270.744L227.547 255.314" stroke="#FFF888" stroke-width="1.5"/>
<path d="M328.462 246.097L344.77 248.241L332.349 259.025L333.278 251.697L328.462 246.097Z" fill="#D582FF"/>
<path d="M269.945 270.744L340.939 249.394" stroke="#D582FF" stroke-width="1.5"/>
<path d="M276.697 446.068L269.947 461.068L263.197 446.069L269.947 449.068L276.697 446.068Z" fill="#8AFDFF"/>
<path d="M269.945 270.743L269.947 457.068" stroke="#8AFDFF" stroke-width="1.5"/>
<path d="M280.158 467.302H260.883V492.002H280.158V467.302Z" fill="black"/>
<g clip-path="url(#clip4_1601_35843)">
<path d="M264.94 477.418L266.731 477.339C267.925 477.287 268.529 477.26 268.542 477.26H268.66V478.067C268.673 478.067 268.726 478.041 268.818 477.989C268.91 477.936 269.054 477.871 269.251 477.792C269.448 477.713 269.664 477.628 269.901 477.536C270.137 477.444 270.425 477.378 270.767 477.339C271.108 477.3 271.462 477.273 271.83 477.26C273.116 477.26 274.153 477.667 274.94 478.481C275.727 479.294 276.121 480.377 276.121 481.729C276.121 482.976 275.721 484.039 274.92 484.918C274.12 485.797 272.952 486.237 271.416 486.237H271.278C270.465 486.237 269.691 486.014 268.956 485.567L268.778 485.449V488.717H270.137V489.938H269.96C269.723 489.898 268.91 489.878 267.519 489.878C266.114 489.878 265.294 489.898 265.058 489.938H264.881V488.717H266.239V483.894V480.528C266.239 479.924 266.233 479.504 266.219 479.268C266.206 479.032 266.18 478.888 266.141 478.835C266.101 478.783 266.036 478.743 265.944 478.717C265.76 478.664 265.491 478.638 265.137 478.638H264.881V477.418H264.94ZM273.306 481.709C273.306 480.672 273.109 479.852 272.715 479.248C272.322 478.645 271.817 478.343 271.2 478.343C270.307 478.343 269.553 478.625 268.936 479.189L268.778 479.327V484.071L268.897 484.209C269.435 484.892 270.117 485.233 270.944 485.233C271.548 485.233 272.092 484.964 272.578 484.426C273.063 483.888 273.306 482.982 273.306 481.709Z" fill="#8AFDFF"/>
<path d="M273.099 471.689C273.099 471.584 273.132 471.493 273.198 471.414C273.263 471.335 273.362 471.296 273.493 471.296C273.585 471.296 273.664 471.329 273.729 471.394C273.795 471.447 273.861 471.571 273.926 471.768C274.057 472.254 274.326 472.628 274.733 472.89C274.878 472.982 274.95 473.1 274.95 473.245C274.95 473.363 274.93 473.441 274.891 473.481C274.851 473.52 274.759 473.579 274.615 473.658C274.051 473.947 273.559 474.36 273.139 474.898C273.112 474.924 273.08 474.964 273.04 475.016C273.001 475.069 272.968 475.108 272.942 475.134C272.916 475.161 272.883 475.174 272.843 475.174C272.804 475.174 272.758 475.18 272.706 475.193C272.614 475.193 272.528 475.161 272.45 475.095C272.371 475.029 272.325 474.931 272.312 474.8C272.312 474.55 272.62 474.163 273.237 473.638H269.871L266.505 473.619C266.334 473.5 266.249 473.376 266.249 473.245C266.249 473.153 266.334 473.021 266.505 472.851H273.572C273.257 472.352 273.099 471.965 273.099 471.689Z" fill="#8AFDFF"/>
</g>
<path d="M220.794 239.786H201.858V260.611H220.794V239.786Z" fill="black"/>
<g clip-path="url(#clip5_1601_35843)">
<path d="M213.236 249.742C213.394 249.782 214.01 249.801 215.086 249.801C216.044 249.801 216.562 249.782 216.641 249.742H216.759V250.963H215.381L213.394 255.41C212.593 257.22 212.134 258.204 212.016 258.362C211.911 258.493 211.786 258.559 211.642 258.559C211.616 258.559 211.57 258.559 211.504 258.559C211.439 258.559 211.373 258.552 211.308 258.539H211.012C210.816 258.539 210.658 258.441 210.54 258.244C210.422 258.047 210.14 257.457 209.694 256.473C209.497 256.04 209.34 255.685 209.222 255.41L207.234 250.963H205.857V249.742H206.014C206.211 249.782 206.939 249.801 208.198 249.801C209.602 249.801 210.422 249.782 210.658 249.742H210.835V250.963H209.891L210.934 253.285C211.603 254.793 211.957 255.548 211.996 255.548C211.996 255.535 212.331 254.78 213 253.285C213.669 251.789 214.017 251.022 214.043 250.982C214.043 250.969 213.886 250.963 213.571 250.963H213.098V249.742H213.236Z" fill="#FFF888"/>
<path d="M213.817 244.173C213.817 244.068 213.849 243.976 213.915 243.897C213.981 243.819 214.079 243.779 214.21 243.779C214.302 243.779 214.381 243.812 214.446 243.878C214.512 243.93 214.578 244.055 214.643 244.252C214.774 244.737 215.043 245.111 215.45 245.373C215.594 245.465 215.666 245.583 215.666 245.728C215.666 245.846 215.647 245.924 215.607 245.964C215.568 246.003 215.476 246.062 215.332 246.141C214.768 246.429 214.276 246.843 213.856 247.381C213.83 247.407 213.797 247.446 213.758 247.499C213.718 247.551 213.685 247.591 213.659 247.617C213.633 247.643 213.6 247.656 213.561 247.656C213.521 247.656 213.476 247.663 213.423 247.676C213.331 247.676 213.246 247.643 213.167 247.577C213.089 247.512 213.043 247.413 213.029 247.282C213.029 247.033 213.338 246.646 213.954 246.121H210.589L207.224 246.101C207.054 245.983 206.968 245.859 206.968 245.728C206.968 245.636 207.054 245.505 207.224 245.334H214.289C213.974 244.835 213.817 244.448 213.817 244.173Z" fill="#FFF888"/>
</g>
<path d="M370.761 234.644H347.362V255.49H370.761V234.644Z" fill="black"/>
<g clip-path="url(#clip6_1601_35843)">
<path d="M363.149 244.601C363.306 244.64 363.949 244.66 365.078 244.66C366.062 244.66 366.573 244.64 366.613 244.601H366.711V245.821H365.452L362.539 253.123C362.526 253.136 362.506 253.155 362.48 253.182C362.454 253.208 362.427 253.234 362.401 253.26C362.375 253.287 362.362 253.3 362.362 253.3C362.362 253.3 362.342 253.313 362.303 253.339C362.263 253.365 362.25 253.378 362.263 253.378C362.276 253.378 362.25 253.385 362.185 253.398C362.119 253.411 362.093 253.411 362.106 253.398C362.119 253.385 362.093 253.392 362.027 253.418C361.962 253.444 361.922 253.444 361.909 253.418C361.896 253.392 361.844 253.392 361.752 253.418H361.535C361.312 253.418 361.155 253.352 361.063 253.221C360.971 253.09 360.787 252.67 360.512 251.961C360.302 251.437 360.125 250.997 359.98 250.643L359.036 248.281L358.091 250.643C357.96 250.984 357.789 251.41 357.579 251.922C357.304 252.644 357.12 253.07 357.028 253.201C356.937 253.333 356.779 253.405 356.556 253.418H356.32C356.084 253.418 355.926 253.405 355.848 253.378C355.769 253.352 355.67 253.267 355.552 253.123L352.64 245.821H351.36V244.601H351.498C351.695 244.64 352.404 244.66 353.624 244.66C354.975 244.66 355.769 244.64 356.005 244.601H356.182V245.821H355.237L356.969 250.112L358.386 246.608L358.071 245.821H356.832V244.601H356.969C357.127 244.64 357.763 244.66 358.878 244.66C360.203 244.66 360.964 244.64 361.161 244.601H361.319V245.821H360.827C360.499 245.821 360.335 245.834 360.335 245.861C360.348 245.913 360.663 246.707 361.279 248.242C361.896 249.777 362.211 250.544 362.224 250.544L364.133 245.821H363.011V244.601H363.149Z" fill="#D582FF"/>
<path d="M361.545 239.031C361.545 238.926 361.578 238.834 361.643 238.756C361.709 238.677 361.807 238.637 361.939 238.637C362.03 238.637 362.109 238.67 362.175 238.736C362.24 238.788 362.306 238.913 362.372 239.11C362.503 239.595 362.772 239.969 363.178 240.232C363.323 240.323 363.395 240.442 363.395 240.586C363.395 240.704 363.375 240.783 363.336 240.822C363.297 240.861 363.205 240.92 363.06 240.999C362.496 241.288 362.004 241.701 361.584 242.239C361.558 242.265 361.525 242.305 361.486 242.357C361.447 242.41 361.414 242.449 361.388 242.475C361.361 242.501 361.329 242.514 361.289 242.514C361.25 242.514 361.204 242.521 361.151 242.534C361.06 242.534 360.974 242.501 360.896 242.436C360.817 242.37 360.771 242.272 360.758 242.141C360.758 241.891 361.066 241.504 361.683 240.979H358.317L354.952 240.96C354.782 240.842 354.696 240.717 354.696 240.586C354.696 240.494 354.782 240.363 354.952 240.192H362.017C361.702 239.694 361.545 239.307 361.545 239.031Z" fill="#D582FF"/>
</g>
</g>
<defs>
<clipPath id="clip0_1601_35843">
<rect width="540" height="540" fill="white" transform="translate(0 0.743164)"/>
</clipPath>
<clipPath id="clip1_1601_35843">
<rect width="11.2578" height="8.9175" fill="white" transform="translate(148.265 223.74)"/>
</clipPath>
<clipPath id="clip2_1601_35843">
<rect width="9.6483" height="12.7368" fill="white" transform="translate(96.5865 315.078)"/>
</clipPath>
<clipPath id="clip3_1601_35843">
<rect width="9.1524" height="8.9175" fill="white" transform="translate(265.669 65.4473)"/>
</clipPath>
<clipPath id="clip4_1601_35843">
<rect width="12.5802" height="20.6103" fill="white" transform="translate(264.309 469.327)"/>
</clipPath>
<clipPath id="clip5_1601_35843">
<rect width="11.9451" height="16.6692" fill="white" transform="translate(205.345 241.812)"/>
</clipPath>
<clipPath id="clip6_1601_35843">
<rect width="16.356" height="16.6692" fill="white" transform="translate(350.868 236.67)"/>
</clipPath>
</defs>
</svg>
