<svg width="1260" height="1260" viewBox="0 0 1260 1260" fill="none" xmlns="http://www.w3.org/2000/svg">
<rect width="1260" height="1260" fill="black"/>
<path d="M475 1108H795" stroke="white" stroke-width="2"/>
<path d="M475 1108L475 149" stroke="white" stroke-width="2"/>
<path d="M475 1090V1126" stroke="white" stroke-width="2"/>
<path d="M795 1090V1126" stroke="white" stroke-width="2"/>
<path d="M635 1090V1126" stroke="white" stroke-width="2"/>
<path d="M457 1108H493" stroke="white" stroke-width="2"/>
<path d="M457 948H493" stroke="white" stroke-width="2"/>
<path d="M457 628H493" stroke="white" stroke-width="2"/>
<path d="M457 308H493" stroke="white" stroke-width="2"/>
<path d="M457 788H493" stroke="white" stroke-width="2"/>
<path d="M457 468H493" stroke="white" stroke-width="2"/>
<path d="M457 148H493" stroke="white" stroke-width="2"/>
<path d="M834.48 1122.66C833.92 1122.66 833.44 1122.5 833.04 1122.18C832.64 1121.9 832.44 1121.5 832.44 1120.98C832.44 1120.46 833.24 1117.02 834.84 1110.66C836.44 1104.3 837.24 1100.76 837.24 1100.04C837.24 1098.48 836.72 1097.7 835.68 1097.7C835.24 1097.7 834.86 1097.84 834.54 1098.12C833.58 1098.88 832.62 1101.1 831.66 1104.78C831.66 1104.82 831.64 1104.9 831.6 1105.02C831.56 1105.1 831.52 1105.16 831.48 1105.2C831.48 1105.2 831.46 1105.22 831.42 1105.26C831.38 1105.3 831.3 1105.32 831.18 1105.32C831.1 1105.32 831.02 1105.32 830.94 1105.32C830.86 1105.32 830.7 1105.32 830.46 1105.32H829.62C829.38 1105.08 829.26 1104.9 829.26 1104.78C829.26 1104.46 829.52 1103.52 830.04 1101.96C830.8 1099.64 831.7 1097.96 832.74 1096.92C833.7 1095.96 834.76 1095.48 835.92 1095.48C837.48 1095.48 838.76 1095.86 839.76 1096.62C840.64 1097.3 841.22 1098 841.5 1098.72C841.58 1098.96 841.64 1099.1 841.68 1099.14C841.72 1099.14 841.88 1098.98 842.16 1098.66C843.64 1097.02 845.34 1096 847.26 1095.6C847.5 1095.56 848.02 1095.54 848.82 1095.54C850.3 1095.54 851.5 1095.96 852.42 1096.8C853.34 1097.64 853.8 1098.78 853.8 1100.22C853.8 1101.5 853.44 1102.58 852.72 1103.46C852.04 1104.3 851.12 1104.72 849.96 1104.72C849.2 1104.72 848.56 1104.5 848.04 1104.06C847.56 1103.62 847.32 1103.04 847.32 1102.32C847.32 1100.36 848.44 1099.08 850.68 1098.48C849.8 1097.96 849.08 1097.7 848.52 1097.7C847.68 1097.7 846.88 1097.9 846.12 1098.3C844.8 1098.94 843.54 1100.22 842.34 1102.14C841.94 1102.78 841.64 1103.44 841.44 1104.12C841.24 1104.8 840.56 1107.46 839.4 1112.1C838.04 1117.7 837.26 1120.68 837.06 1121.04C836.54 1122.12 835.68 1122.66 834.48 1122.66Z" fill="white"/>
<path d="M463.76 1177.9C466 1174.66 469.06 1173.04 472.94 1173.04C475.86 1173.04 478.42 1174.04 480.62 1176.04C481.7 1177.08 482.62 1178.44 483.38 1180.12C484.86 1183.44 485.6 1188 485.6 1193.8C485.6 1200 484.74 1204.74 483.02 1208.02C481.9 1210.34 480.26 1212.02 478.1 1213.06C476.42 1213.9 474.72 1214.32 473 1214.32C468.4 1214.32 465.04 1212.22 462.92 1208.02C461.2 1204.74 460.34 1200 460.34 1193.8C460.34 1190.08 460.58 1187.02 461.06 1184.62C461.58 1182.18 462.48 1179.94 463.76 1177.9ZM477.26 1177.18C476.1 1175.9 474.68 1175.26 473 1175.26C471.32 1175.26 469.88 1175.9 468.68 1177.18C467.8 1178.1 467.2 1179.22 466.88 1180.54C466.56 1181.86 466.36 1184.14 466.28 1187.38C466.28 1187.62 466.26 1188.4 466.22 1189.72C466.22 1191.04 466.22 1192.14 466.22 1193.02C466.22 1196.86 466.26 1199.54 466.34 1201.06C466.5 1203.86 466.74 1205.88 467.06 1207.12C467.38 1208.32 467.98 1209.36 468.86 1210.24C469.94 1211.44 471.32 1212.04 473 1212.04C474.64 1212.04 476 1211.44 477.08 1210.24C477.96 1209.36 478.56 1208.32 478.88 1207.12C479.2 1205.88 479.44 1203.86 479.6 1201.06C479.68 1199.54 479.72 1196.86 479.72 1193.02C479.72 1192.14 479.7 1191.04 479.66 1189.72C479.66 1188.4 479.66 1187.62 479.66 1187.38C479.58 1184.14 479.38 1181.86 479.06 1180.54C478.74 1179.22 478.14 1178.1 477.26 1177.18Z" fill="white"/>
<mask id="mask0" mask-type="alpha" maskUnits="userSpaceOnUse" x="475" y="102" width="160" height="1007">
<path d="M635 102L475 1108.14H635V102Z" fill="#C4C4C4"/>
</mask>
<g mask="url(#mask0)">
<rect x="475" y="1108" width="1005.31" height="160" transform="rotate(-90 475 1108)" fill="url(#paint0_linear)"/>
</g>
<path d="M635 102L475 1108.14H635V102Z" stroke="white" stroke-width="2"/>
<path d="M475 1108H635" stroke="#FFFF00" stroke-width="3"/>
<path d="M399.76 1091.9C402 1088.66 405.06 1087.04 408.94 1087.04C411.86 1087.04 414.42 1088.04 416.62 1090.04C417.7 1091.08 418.62 1092.44 419.38 1094.12C420.86 1097.44 421.6 1102 421.6 1107.8C421.6 1114 420.74 1118.74 419.02 1122.02C417.9 1124.34 416.26 1126.02 414.1 1127.06C412.42 1127.9 410.72 1128.32 409 1128.32C404.4 1128.32 401.04 1126.22 398.92 1122.02C397.2 1118.74 396.34 1114 396.34 1107.8C396.34 1104.08 396.58 1101.02 397.06 1098.62C397.58 1096.18 398.48 1093.94 399.76 1091.9ZM413.26 1091.18C412.1 1089.9 410.68 1089.26 409 1089.26C407.32 1089.26 405.88 1089.9 404.68 1091.18C403.8 1092.1 403.2 1093.22 402.88 1094.54C402.56 1095.86 402.36 1098.14 402.28 1101.38C402.28 1101.62 402.26 1102.4 402.22 1103.72C402.22 1105.04 402.22 1106.14 402.22 1107.02C402.22 1110.86 402.26 1113.54 402.34 1115.06C402.5 1117.86 402.74 1119.88 403.06 1121.12C403.38 1122.32 403.98 1123.36 404.86 1124.24C405.94 1125.44 407.32 1126.04 409 1126.04C410.64 1126.04 412 1125.44 413.08 1124.24C413.96 1123.36 414.56 1122.32 414.88 1121.12C415.2 1119.88 415.44 1117.86 415.6 1115.06C415.68 1113.54 415.72 1110.86 415.72 1107.02C415.72 1106.14 415.7 1105.04 415.66 1103.72C415.66 1102.4 415.66 1101.62 415.66 1101.38C415.58 1098.14 415.38 1095.86 415.06 1094.54C414.74 1093.22 414.14 1092.1 413.26 1091.18Z" fill="white"/>
<path d="M519.6 76.26C518.48 76.26 517.6 75.9 516.96 75.18C516.32 74.46 516 73.58 516 72.54C516 69.66 517.08 67.2 519.24 65.16C521.44 63.08 524.06 62.04 527.1 62.04C530.54 62.04 533.38 62.98 535.62 64.86C537.9 66.7 539.3 69.12 539.82 72.12C539.9 72.84 539.94 73.5 539.94 74.1C539.94 76.42 539.24 78.6 537.84 80.64C536.72 82.32 534.46 84.62 531.06 87.54C529.62 88.78 527.62 90.62 525.06 93.06L521.52 96.42L526.08 96.48C532.36 96.48 535.7 96.38 536.1 96.18C536.26 96.14 536.46 95.72 536.7 94.92C536.86 94.48 537.14 93.12 537.54 90.84V90.66H539.94V90.84L538.26 101.82V102H516V100.86C516 100.06 516.04 99.6 516.12 99.48C516.16 99.44 517.84 97.54 521.16 93.78C525.52 88.94 528.32 85.74 529.56 84.18C532.24 80.54 533.58 77.2 533.58 74.16C533.58 71.52 532.88 69.32 531.48 67.56C530.12 65.76 528.2 64.86 525.72 64.86C523.4 64.86 521.52 65.9 520.08 67.98C520 68.14 519.88 68.36 519.72 68.64C519.6 68.84 519.54 68.96 519.54 69C519.54 69.04 519.64 69.06 519.84 69.06C520.84 69.06 521.64 69.42 522.24 70.14C522.88 70.86 523.2 71.7 523.2 72.66C523.2 73.66 522.86 74.52 522.18 75.24C521.54 75.92 520.68 76.26 519.6 76.26ZM568.86 99.78C568.86 100.46 568.56 101.1 567.96 101.7C567.4 102.3 566.7 102.6 565.86 102.6C565.26 102.6 564.84 102.52 564.6 102.36C564.4 102.2 564.18 101.88 563.94 101.4C563.18 99.64 562.8 97.42 562.8 94.74C562.8 93.3 562.82 92.34 562.86 91.86C563.14 89.1 563.76 85.76 564.72 81.84C564.92 81.04 565.02 80.6 565.02 80.52H559.14L559.08 80.76C559.08 80.8 559.04 80.98 558.96 81.3C558.88 81.58 558.76 82.02 558.6 82.62C558.48 83.18 558.36 83.7 558.24 84.18C555.6 94.46 554.02 100.06 553.5 100.98C553.02 102.1 552.16 102.66 550.92 102.66C550 102.66 549.36 102.32 549 101.64C548.92 101.44 548.88 101.12 548.88 100.68V100.02L549.66 98.34C552.66 92.02 554.84 86.56 556.2 81.96L556.68 80.52H554.76C553.16 80.52 552.04 80.58 551.4 80.7C550.8 80.82 550.06 81.2 549.18 81.84C548.22 82.44 547.38 83.26 546.66 84.3C546.46 84.62 546.3 84.82 546.18 84.9C546.06 84.94 545.76 84.96 545.28 84.96C544.52 84.96 544.14 84.76 544.14 84.36C544.14 84.2 544.34 83.8 544.74 83.16C547.5 78.96 550.2 76.66 552.84 76.26C553.12 76.18 557.62 76.14 566.34 76.14C572.74 76.14 576.02 76.16 576.18 76.2C576.98 76.48 577.38 77.04 577.38 77.88C577.38 79.12 576.74 79.96 575.46 80.4C575.22 80.48 573.84 80.52 571.32 80.52H567.48L567.3 81.54C566.82 84.42 566.58 86.8 566.58 88.68C566.58 92.24 567.2 95.46 568.44 98.34C568.72 99.06 568.86 99.54 568.86 99.78ZM583.699 102.66C583.139 102.66 582.659 102.5 582.259 102.18C581.859 101.9 581.659 101.5 581.659 100.98C581.659 100.46 582.459 97.02 584.059 90.66C585.659 84.3 586.459 80.76 586.459 80.04C586.459 78.48 585.939 77.7 584.899 77.7C584.459 77.7 584.079 77.84 583.759 78.12C582.799 78.88 581.839 81.1 580.879 84.78C580.879 84.82 580.859 84.9 580.819 85.02C580.779 85.1 580.739 85.16 580.699 85.2C580.699 85.2 580.679 85.22 580.639 85.26C580.599 85.3 580.519 85.32 580.399 85.32C580.319 85.32 580.239 85.32 580.159 85.32C580.079 85.32 579.919 85.32 579.679 85.32H578.839C578.599 85.08 578.479 84.9 578.479 84.78C578.479 84.46 578.739 83.52 579.259 81.96C580.019 79.64 580.919 77.96 581.959 76.92C582.919 75.96 583.979 75.48 585.139 75.48C586.699 75.48 587.979 75.86 588.979 76.62C589.859 77.3 590.439 78 590.719 78.72C590.799 78.96 590.859 79.1 590.899 79.14C590.939 79.14 591.099 78.98 591.379 78.66C592.859 77.02 594.559 76 596.479 75.6C596.719 75.56 597.239 75.54 598.039 75.54C599.519 75.54 600.719 75.96 601.639 76.8C602.559 77.64 603.019 78.78 603.019 80.22C603.019 81.5 602.659 82.58 601.939 83.46C601.259 84.3 600.339 84.72 599.179 84.72C598.419 84.72 597.779 84.5 597.259 84.06C596.779 83.62 596.539 83.04 596.539 82.32C596.539 80.36 597.659 79.08 599.899 78.48C599.019 77.96 598.299 77.7 597.739 77.7C596.899 77.7 596.099 77.9 595.339 78.3C594.019 78.94 592.759 80.22 591.559 82.14C591.159 82.78 590.859 83.44 590.659 84.12C590.459 84.8 589.779 87.46 588.619 92.1C587.259 97.7 586.479 100.68 586.279 101.04C585.759 102.12 584.899 102.66 583.699 102.66Z" fill="#58C4DD"/>
<path d="M708.6 599.26C707.48 599.26 706.6 598.9 705.96 598.18C705.32 597.46 705 596.58 705 595.54C705 592.66 706.08 590.2 708.24 588.16C710.44 586.08 713.06 585.04 716.1 585.04C719.54 585.04 722.38 585.98 724.62 587.86C726.9 589.7 728.3 592.12 728.82 595.12C728.9 595.84 728.94 596.5 728.94 597.1C728.94 599.42 728.24 601.6 726.84 603.64C725.72 605.32 723.46 607.62 720.06 610.54C718.62 611.78 716.62 613.62 714.06 616.06L710.52 619.42L715.08 619.48C721.36 619.48 724.7 619.38 725.1 619.18C725.26 619.14 725.46 618.72 725.7 617.92C725.86 617.48 726.14 616.12 726.54 613.84V613.66H728.94V613.84L727.26 624.82V625H705V623.86C705 623.06 705.04 622.6 705.12 622.48C705.16 622.44 706.84 620.54 710.16 616.78C714.52 611.94 717.32 608.74 718.56 607.18C721.24 603.54 722.58 600.2 722.58 597.16C722.58 594.52 721.88 592.32 720.48 590.56C719.12 588.76 717.2 587.86 714.72 587.86C712.4 587.86 710.52 588.9 709.08 590.98C709 591.14 708.88 591.36 708.72 591.64C708.6 591.84 708.54 591.96 708.54 592C708.54 592.04 708.64 592.06 708.84 592.06C709.84 592.06 710.64 592.42 711.24 593.14C711.88 593.86 712.2 594.7 712.2 595.66C712.2 596.66 711.86 597.52 711.18 598.24C710.54 598.92 709.68 599.26 708.6 599.26ZM757.86 622.78C757.86 623.46 757.56 624.1 756.96 624.7C756.4 625.3 755.7 625.6 754.86 625.6C754.26 625.6 753.84 625.52 753.6 625.36C753.4 625.2 753.18 624.88 752.94 624.4C752.18 622.64 751.8 620.42 751.8 617.74C751.8 616.3 751.82 615.34 751.86 614.86C752.14 612.1 752.76 608.76 753.72 604.84C753.92 604.04 754.02 603.6 754.02 603.52H748.14L748.08 603.76C748.08 603.8 748.04 603.98 747.96 604.3C747.88 604.58 747.76 605.02 747.6 605.62C747.48 606.18 747.36 606.7 747.24 607.18C744.6 617.46 743.02 623.06 742.5 623.98C742.02 625.1 741.16 625.66 739.92 625.66C739 625.66 738.36 625.32 738 624.64C737.92 624.44 737.88 624.12 737.88 623.68V623.02L738.66 621.34C741.66 615.02 743.84 609.56 745.2 604.96L745.68 603.52H743.76C742.16 603.52 741.04 603.58 740.4 603.7C739.8 603.82 739.06 604.2 738.18 604.84C737.22 605.44 736.38 606.26 735.66 607.3C735.46 607.62 735.3 607.82 735.18 607.9C735.06 607.94 734.76 607.96 734.28 607.96C733.52 607.96 733.14 607.76 733.14 607.36C733.14 607.2 733.34 606.8 733.74 606.16C736.5 601.96 739.2 599.66 741.84 599.26C742.12 599.18 746.62 599.14 755.34 599.14C761.74 599.14 765.02 599.16 765.18 599.2C765.98 599.48 766.38 600.04 766.38 600.88C766.38 602.12 765.74 602.96 764.46 603.4C764.22 603.48 762.84 603.52 760.32 603.52H756.48L756.3 604.54C755.82 607.42 755.58 609.8 755.58 611.68C755.58 615.24 756.2 618.46 757.44 621.34C757.72 622.06 757.86 622.54 757.86 622.78ZM788.119 607.12C787.079 607.12 786.179 606.74 785.419 605.98C784.659 605.22 784.279 604.32 784.279 603.28C784.279 602.24 784.659 601.34 785.419 600.58C786.179 599.82 787.079 599.44 788.119 599.44C789.159 599.44 790.059 599.82 790.819 600.58C791.579 601.34 791.959 602.24 791.959 603.28C791.959 604.32 791.579 605.22 790.819 605.98C790.059 606.74 789.159 607.12 788.119 607.12ZM827.267 587.32C827.267 587.28 827.247 587.24 827.207 587.2C827.167 587.12 827.107 587.08 827.027 587.08C826.947 587.04 826.867 587 826.787 586.96C826.707 586.92 826.587 586.9 826.427 586.9C826.267 586.86 826.127 586.84 826.007 586.84C825.887 586.84 825.727 586.84 825.527 586.84C825.327 586.84 825.147 586.84 824.987 586.84C824.867 586.8 824.687 586.78 824.447 586.78C824.207 586.78 824.007 586.78 823.847 586.78C822.887 586.78 822.307 586.76 822.107 586.72C821.907 586.68 821.767 586.56 821.687 586.36C821.607 586.24 821.627 585.88 821.747 585.28C821.947 584.56 822.127 584.16 822.287 584.08C822.367 584.04 825.847 584.02 832.727 584.02C839.607 584.06 843.327 584.12 843.887 584.2C847.527 584.72 850.287 585.96 852.167 587.92C853.647 589.52 854.387 591.3 854.387 593.26C854.387 593.66 854.307 594.26 854.147 595.06C853.227 598.62 850.287 601.5 845.327 603.7C843.567 604.38 842.567 604.72 842.327 604.72L842.747 605.02C845.427 606.54 846.767 608.74 846.767 611.62C846.767 612.1 846.667 613.38 846.467 615.46C846.267 617.38 846.167 618.96 846.167 620.2C846.167 621.6 846.307 622.6 846.587 623.2C846.867 623.76 847.487 624.04 848.447 624.04C849.007 624.04 849.367 624 849.527 623.92C851.047 623.32 852.127 621.98 852.767 619.9C852.967 619.34 853.127 619 853.247 618.88C853.367 618.76 853.667 618.7 854.147 618.7C854.947 618.7 855.347 618.94 855.347 619.42C855.347 620.14 854.867 621.28 853.907 622.84C852.707 624.6 851.307 625.7 849.707 626.14C849.387 626.22 848.807 626.26 847.967 626.26C843.807 626.26 841.107 625 839.867 622.48C839.507 621.84 839.307 621.04 839.267 620.08C839.267 619.64 839.267 619.3 839.267 619.06C839.307 618.78 839.347 618.48 839.387 618.16C839.427 617.84 839.467 617.6 839.507 617.44C839.547 617.28 839.647 616.94 839.807 616.42C839.967 615.9 840.087 615.44 840.167 615.04C840.767 612.76 841.067 611.3 841.067 610.66C841.067 608.66 840.207 607.18 838.487 606.22C837.887 605.94 837.387 605.78 836.987 605.74C836.587 605.7 835.167 605.66 832.727 605.62H828.587L826.667 613.42C825.347 618.7 824.687 621.38 824.687 621.46C824.687 621.74 824.747 621.9 824.867 621.94C825.147 622.06 826.247 622.16 828.167 622.24H830.027C830.227 622.52 830.327 622.7 830.327 622.78C830.367 622.82 830.327 623.18 830.207 623.86C830.047 624.38 829.847 624.76 829.607 625H828.707C827.267 624.92 824.647 624.88 820.847 624.88C819.887 624.88 818.547 624.9 816.827 624.94C815.107 624.94 813.847 624.94 813.047 624.94C812.367 624.94 812.027 624.76 812.027 624.4C812.027 624.32 812.087 624.04 812.207 623.56C812.407 622.8 812.607 622.38 812.807 622.3C812.967 622.26 813.267 622.24 813.707 622.24H814.067C815.147 622.24 816.347 622.18 817.667 622.06C818.227 621.94 818.607 621.7 818.807 621.34C818.927 621.18 820.367 615.62 823.127 604.66C825.887 593.7 827.267 587.92 827.267 587.32ZM846.887 588.88C846.047 588 844.947 587.44 843.587 587.2C842.227 586.92 840.287 586.78 837.767 586.78C837.287 586.78 836.787 586.8 836.267 586.84C835.747 586.84 835.287 586.84 834.887 586.84C834.527 586.84 834.327 586.84 834.287 586.84C833.767 586.88 833.407 587.06 833.207 587.38C833.167 587.5 832.487 590.18 831.167 595.42C829.847 600.62 829.187 603.26 829.187 603.34C829.187 603.38 830.567 603.4 833.327 603.4C836.447 603.36 838.527 603.22 839.567 602.98C842.167 602.54 844.167 601.36 845.567 599.44C846.207 598.52 846.747 597.32 847.187 595.84C847.627 594.32 847.847 592.96 847.847 591.76C847.847 590.52 847.527 589.56 846.887 588.88Z" fill="white"/>
<path d="M625.22 1180.32C625.22 1180.28 625.2 1180.24 625.16 1180.2C625.12 1180.12 625.06 1180.08 624.98 1180.08C624.9 1180.04 624.82 1180 624.74 1179.96C624.66 1179.92 624.54 1179.9 624.38 1179.9C624.22 1179.86 624.08 1179.84 623.96 1179.84C623.84 1179.84 623.68 1179.84 623.48 1179.84C623.28 1179.84 623.1 1179.84 622.94 1179.84C622.82 1179.8 622.64 1179.78 622.4 1179.78C622.16 1179.78 621.96 1179.78 621.8 1179.78C620.84 1179.78 620.26 1179.76 620.06 1179.72C619.86 1179.68 619.72 1179.56 619.64 1179.36C619.56 1179.24 619.58 1178.88 619.7 1178.28C619.9 1177.56 620.08 1177.16 620.24 1177.08C620.32 1177.04 623.8 1177.02 630.68 1177.02C637.56 1177.06 641.28 1177.12 641.84 1177.2C645.48 1177.72 648.24 1178.96 650.12 1180.92C651.6 1182.52 652.34 1184.3 652.34 1186.26C652.34 1186.66 652.26 1187.26 652.1 1188.06C651.18 1191.62 648.24 1194.5 643.28 1196.7C641.52 1197.38 640.52 1197.72 640.28 1197.72L640.7 1198.02C643.38 1199.54 644.72 1201.74 644.72 1204.62C644.72 1205.1 644.62 1206.38 644.42 1208.46C644.22 1210.38 644.12 1211.96 644.12 1213.2C644.12 1214.6 644.26 1215.6 644.54 1216.2C644.82 1216.76 645.44 1217.04 646.4 1217.04C646.96 1217.04 647.32 1217 647.48 1216.92C649 1216.32 650.08 1214.98 650.72 1212.9C650.92 1212.34 651.08 1212 651.2 1211.88C651.32 1211.76 651.62 1211.7 652.1 1211.7C652.9 1211.7 653.3 1211.94 653.3 1212.42C653.3 1213.14 652.82 1214.28 651.86 1215.84C650.66 1217.6 649.26 1218.7 647.66 1219.14C647.34 1219.22 646.76 1219.26 645.92 1219.26C641.76 1219.26 639.06 1218 637.82 1215.48C637.46 1214.84 637.26 1214.04 637.22 1213.08C637.22 1212.64 637.22 1212.3 637.22 1212.06C637.26 1211.78 637.3 1211.48 637.34 1211.16C637.38 1210.84 637.42 1210.6 637.46 1210.44C637.5 1210.28 637.6 1209.94 637.76 1209.42C637.92 1208.9 638.04 1208.44 638.12 1208.04C638.72 1205.76 639.02 1204.3 639.02 1203.66C639.02 1201.66 638.16 1200.18 636.44 1199.22C635.84 1198.94 635.34 1198.78 634.94 1198.74C634.54 1198.7 633.12 1198.66 630.68 1198.62H626.54L624.62 1206.42C623.3 1211.7 622.64 1214.38 622.64 1214.46C622.64 1214.74 622.7 1214.9 622.82 1214.94C623.1 1215.06 624.2 1215.16 626.12 1215.24H627.98C628.18 1215.52 628.28 1215.7 628.28 1215.78C628.32 1215.82 628.28 1216.18 628.16 1216.86C628 1217.38 627.8 1217.76 627.56 1218H626.66C625.22 1217.92 622.6 1217.88 618.8 1217.88C617.84 1217.88 616.5 1217.9 614.78 1217.94C613.06 1217.94 611.8 1217.94 611 1217.94C610.32 1217.94 609.98 1217.76 609.98 1217.4C609.98 1217.32 610.04 1217.04 610.16 1216.56C610.36 1215.8 610.56 1215.38 610.76 1215.3C610.92 1215.26 611.22 1215.24 611.66 1215.24H612.02C613.1 1215.24 614.3 1215.18 615.62 1215.06C616.18 1214.94 616.56 1214.7 616.76 1214.34C616.88 1214.18 618.32 1208.62 621.08 1197.66C623.84 1186.7 625.22 1180.92 625.22 1180.32ZM644.84 1181.88C644 1181 642.9 1180.44 641.54 1180.2C640.18 1179.92 638.24 1179.78 635.72 1179.78C635.24 1179.78 634.74 1179.8 634.22 1179.84C633.7 1179.84 633.24 1179.84 632.84 1179.84C632.48 1179.84 632.28 1179.84 632.24 1179.84C631.72 1179.88 631.36 1180.06 631.16 1180.38C631.12 1180.5 630.44 1183.18 629.12 1188.42C627.8 1193.62 627.14 1196.26 627.14 1196.34C627.14 1196.38 628.52 1196.4 631.28 1196.4C634.4 1196.36 636.48 1196.22 637.52 1195.98C640.12 1195.54 642.12 1194.36 643.52 1192.44C644.16 1191.52 644.7 1190.32 645.14 1188.84C645.58 1187.32 645.8 1185.96 645.8 1184.76C645.8 1183.52 645.48 1182.56 644.84 1181.88Z" fill="white"/>
<path d="M653 103.444C653 102.867 653 102.578 653.334 102L655.005 102C658.682 102 662.359 102.578 666.035 103.733C668.709 104.889 671.049 106.911 671.717 109.511C671.717 109.8 672.051 113.266 672.051 119.91L672.051 590.201C672.051 592.512 672.051 595.112 672.385 597.423C672.385 597.423 672.385 597.423 672.385 597.711C673.054 599.445 674.391 600.6 676.062 601.467C678.067 602.622 680.073 603.2 682.412 603.2C682.747 603.2 683.081 603.2 683.749 603.489C684.084 604.356 684.084 604.933 683.749 605.8C683.415 606.089 683.081 606.089 682.412 606.089C680.073 606.089 678.067 606.667 676.062 607.822C674.391 608.689 673.054 610.133 672.385 611.577C672.051 612.155 672.051 612.733 672.051 613.311C672.051 613.888 672.051 1083.6 672.051 1089.38C672.051 1096.02 672.051 1099.49 671.717 1099.78C671.383 1101.22 670.38 1102.67 669.043 1103.53C667.038 1104.98 664.698 1106.13 662.358 1106.42C661.022 1106.71 659.35 1107 658.013 1107C658.013 1107 657.679 1107 657.011 1107C656.342 1107 656.008 1107 655.674 1107L654.003 1107C653.668 1106.71 653.334 1106.13 653.668 1105.56C653.668 1105.27 653.668 1104.69 654.003 1104.4C654.003 1104.4 654.671 1104.11 655.34 1104.11C658.013 1104.11 661.022 1103.24 663.027 1101.8C664.03 1101.22 664.698 1100.36 665.032 1099.2C665.367 1095.73 665.701 1091.98 665.367 1088.51C665.367 1082.16 665.367 612.444 665.367 612.155C666.035 608.4 669.377 605.8 675.394 604.067C673.054 603.489 670.38 602.333 668.375 600.889C666.704 599.734 665.367 598 665.367 595.978C665.367 595.689 665.367 125.977 665.367 119.621C665.701 116.155 665.367 112.4 665.032 108.933C664.364 107.489 663.027 106.333 661.356 105.467C659.016 105.178 657.011 104.889 654.671 104.6C654.003 104.6 653.334 104.6 653.334 104.311C653 104.022 653 103.733 653 103.444Z" fill="white"/>
<path d="M475 1108.28L647 27" stroke="#58C4DD" stroke-width="3"/>
<defs>
<linearGradient id="paint0_linear" x1="977.655" y1="1108" x2="977.655" y2="1268" gradientUnits="userSpaceOnUse">
<stop stop-color="#58C4DD"/>
<stop offset="1" stop-color="#77B05D"/>
</linearGradient>
</defs>
</svg>
