<svg width="1440" height="1080" viewBox="0 0 1440 1080" fill="none" xmlns="http://www.w3.org/2000/svg">
<rect width="1440" height="1080" fill="black"/>
<path fill-rule="evenodd" clip-rule="evenodd" d="M880 878C880 966.366 808.366 1038 720 1038C631.634 1038 560 966.366 560 878C560 789.634 631.634 718 720 718C808.366 718 880 789.634 880 878ZM864 878C864 957.529 799.529 1022 720 1022C640.471 1022 576 957.529 576 878C576 798.471 640.471 734 720 734C799.529 734 864 798.471 864 878Z" fill="#699D55"/>
<path d="M700.2 677.2C699.64 676.92 699.36 676.52 699.36 676C699.36 675.48 699.64 675.08 700.2 674.8H718.14V665.8L718.2 656.8C718.6 656.28 718.98 656.02 719.34 656.02C719.86 656.02 720.26 656.32 720.54 656.92V674.8H738.42C739.02 675.12 739.32 675.52 739.32 676C739.32 676.48 739.02 676.88 738.42 677.2H720.54V695.08C720.26 695.64 719.86 695.92 719.34 695.92C718.82 695.92 718.42 695.64 718.14 695.08V677.2H700.2Z" fill="white"/>
<path d="M698.68 603.4C698.68 602.36 699.02 601.5 699.7 600.82C700.38 600.14 701.24 599.8 702.28 599.8C703.32 599.8 704.18 600.16 704.86 600.88C705.58 601.56 705.94 602.38 705.94 603.34C705.94 604.38 705.58 605.26 704.86 605.98C704.14 606.66 703.3 607 702.34 607C701.3 607 700.42 606.64 699.7 605.92C699.02 605.2 698.68 604.36 698.68 603.4ZM715.379 603.4C715.379 602.36 715.719 601.5 716.399 600.82C717.079 600.14 717.939 599.8 718.979 599.8C720.019 599.8 720.879 600.16 721.559 600.88C722.279 601.56 722.639 602.38 722.639 603.34C722.639 604.38 722.279 605.26 721.559 605.98C720.839 606.66 719.999 607 719.039 607C717.999 607 717.119 606.64 716.399 605.92C715.719 605.2 715.379 604.36 715.379 603.4ZM732.078 603.4C732.078 602.36 732.418 601.5 733.098 600.82C733.778 600.14 734.638 599.8 735.678 599.8C736.718 599.8 737.578 600.16 738.258 600.88C738.978 601.56 739.338 602.38 739.338 603.34C739.338 604.38 738.978 605.26 738.258 605.98C737.538 606.66 736.698 607 735.738 607C734.698 607 733.818 606.64 733.098 605.92C732.418 605.2 732.078 604.36 732.078 603.4Z" fill="white"/>
<path d="M700.2 509.2C699.64 508.92 699.36 508.52 699.36 508C699.36 507.48 699.64 507.08 700.2 506.8H718.14V497.8L718.2 488.8C718.6 488.28 718.98 488.02 719.34 488.02C719.86 488.02 720.26 488.32 720.54 488.92V506.8H738.42C739.02 507.12 739.32 507.52 739.32 508C739.32 508.48 739.02 508.88 738.42 509.2H720.54V527.08C720.26 527.64 719.86 527.92 719.34 527.92C718.82 527.92 718.42 527.64 718.14 527.08V509.2H700.2Z" fill="white"/>
<path fill-rule="evenodd" clip-rule="evenodd" d="M768 398C768 424.51 746.51 446 720 446C693.49 446 672 424.51 672 398C672 371.49 693.49 350 720 350C746.51 350 768 371.49 768 398ZM752 398C752 415.673 737.673 430 720 430C702.327 430 688 415.673 688 398C688 380.327 702.327 366 720 366C737.673 366 752 380.327 752 398Z" fill="#60B29E"/>
<path d="M700.2 297.2C699.64 296.92 699.36 296.52 699.36 296C699.36 295.48 699.64 295.08 700.2 294.8H718.14V285.8L718.2 276.8C718.6 276.28 718.98 276.02 719.34 276.02C719.86 276.02 720.26 276.32 720.54 276.92V294.8H738.42C739.02 295.12 739.32 295.52 739.32 296C739.32 296.48 739.02 296.88 738.42 297.2H720.54V315.08C720.26 315.64 719.86 315.92 719.34 315.92C718.82 315.92 718.42 315.64 718.14 315.08V297.2H700.2Z" fill="white"/>
<path fill-rule="evenodd" clip-rule="evenodd" d="M752 206C752 223.673 737.673 238 720 238C702.327 238 688 223.673 688 206C688 188.327 702.327 174 720 174C737.673 174 752 188.327 752 206ZM736 206C736 214.837 728.837 222 720 222C711.163 222 704 214.837 704 206C704 197.163 711.163 190 720 190C728.837 190 736 197.163 736 206Z" fill="#5DBABB"/>
<path d="M700.2 125.2C699.64 124.92 699.36 124.52 699.36 124C699.36 123.48 699.64 123.08 700.2 122.8H718.14V113.8L718.2 104.8C718.6 104.28 718.98 104.02 719.34 104.02C719.86 104.02 720.26 104.32 720.54 104.92V122.8H738.42C739.02 123.12 739.32 123.52 739.32 124C739.32 124.48 739.02 124.88 738.42 125.2H720.54V143.08C720.26 143.64 719.86 143.92 719.34 143.92C718.82 143.92 718.42 143.64 718.14 143.08V125.2H700.2Z" fill="white"/>
<path d="M736 58C736 49.1634 728.837 42 720 42C711.163 42 704 49.1634 704 58C704 66.8366 711.163 74 720 74C728.837 74 736 66.8366 736 58Z" fill="#5AC1D4"/>
<path d="M720 205.5L731 194.5M720 398L742.5 375.5M720 878L821.5 776.5" stroke="#FFFF00" stroke-width="3"/>
<path d="M723 58C723 56.3431 721.657 55 720 55C718.343 55 717 56.3431 717 58C717 59.6569 718.343 61 720 61C721.657 61 723 59.6569 723 58Z" fill="#FFFF00"/>
<path d="M864 876H880" stroke="#FF8080" stroke-width="3"/>
<path d="M384.68 601.4C384.68 600.36 385.02 599.5 385.7 598.82C386.38 598.14 387.24 597.8 388.28 597.8C389.32 597.8 390.18 598.16 390.86 598.88C391.58 599.56 391.94 600.38 391.94 601.34C391.94 602.38 391.58 603.26 390.86 603.98C390.14 604.66 389.3 605 388.34 605C387.3 605 386.42 604.64 385.7 603.92C385.02 603.2 384.68 602.36 384.68 601.4ZM401.379 601.4C401.379 600.36 401.719 599.5 402.399 598.82C403.079 598.14 403.939 597.8 404.979 597.8C406.019 597.8 406.879 598.16 407.559 598.88C408.279 599.56 408.639 600.38 408.639 601.34C408.639 602.38 408.279 603.26 407.559 603.98C406.839 604.66 405.999 605 405.039 605C403.999 605 403.119 604.64 402.399 603.92C401.719 603.2 401.379 602.36 401.379 601.4ZM418.078 601.4C418.078 600.36 418.418 599.5 419.098 598.82C419.778 598.14 420.638 597.8 421.678 597.8C422.718 597.8 423.578 598.16 424.258 598.88C424.978 599.56 425.338 600.38 425.338 601.34C425.338 602.38 424.978 603.26 424.258 603.98C423.538 604.66 422.698 605 421.738 605C420.698 605 419.818 604.64 419.098 603.92C418.418 603.2 418.078 602.36 418.078 601.4Z" fill="#FFF1B6"/>
<path d="M828.939 394.939C828.354 395.525 828.354 396.475 828.939 397.061L838.485 406.607C839.071 407.192 840.021 407.192 840.607 406.607C841.192 406.021 841.192 405.071 840.607 404.485L832.121 396L840.607 387.515C841.192 386.929 841.192 385.979 840.607 385.393C840.021 384.808 839.071 384.808 838.485 385.393L828.939 394.939ZM1028 394.5H830V397.5H1028V394.5Z" fill="#9CDCEB"/>
<path d="M866.576 713.471C866.836 714.257 867.684 714.684 868.471 714.424L881.289 710.187C882.075 709.927 882.502 709.079 882.242 708.292C881.982 707.506 881.134 707.079 880.347 707.339L868.953 711.105L865.187 699.711C864.927 698.925 864.079 698.498 863.292 698.758C862.506 699.018 862.079 699.866 862.339 700.653L866.576 713.471ZM1026.66 394.326L866.66 712.326L869.34 713.674L1029.34 395.674L1026.66 394.326Z" fill="#9CDCEB"/>
<path d="M799.683 228.025C798.593 228.2 797.85 229.226 798.025 230.317L800.874 248.09C801.049 249.18 802.075 249.923 803.166 249.748C804.256 249.573 804.999 248.547 804.824 247.457L802.291 231.658L818.09 229.126C819.18 228.951 819.923 227.925 819.748 226.834C819.573 225.744 818.547 225.001 817.456 225.176L799.683 228.025ZM1029.17 393.38L801.172 228.38L798.827 231.62L1026.83 396.62L1029.17 393.38Z" fill="#9CDCEB"/>
<path d="M778.25 71.0157C777.154 70.8777 776.154 71.6543 776.016 72.7502L773.768 90.6093C773.63 91.7052 774.406 92.7055 775.502 92.8434C776.598 92.9814 777.598 92.2048 777.736 91.1089L779.735 75.2341L795.609 77.2324C796.705 77.3703 797.705 76.5937 797.843 75.4978C797.981 74.4019 797.205 73.4016 796.109 73.2637L778.25 71.0157ZM1029.58 393.773L779.58 71.7735L776.42 74.2265L1026.42 396.227L1029.58 393.773Z" fill="#9CDCEB"/>
<circle cx="1028" cy="396" r="50" fill="black"/>
<circle cx="1332" cy="396" r="50" fill="black"/>
<path d="M1019.3 411C1018.58 410.88 1016.28 410.82 1012.4 410.82C1008.84 410.82 1006.82 410.88 1006.34 411H1005.92V408.24H1006.82C1009.7 408.12 1011.54 407.28 1012.34 405.72C1012.38 405.6 1013.44 402.46 1015.52 396.3C1017.6 390.1 1019.66 383.94 1021.7 377.82C1023.78 371.66 1024.84 368.56 1024.88 368.52C1025 368.2 1025.38 368.04 1026.02 368.04H1026.56C1027.36 368.08 1027.84 368.22 1028 368.46C1028.04 368.5 1029.98 374.22 1033.82 385.62C1037.7 397.02 1040.1 404.14 1041.02 406.98C1041.14 407.22 1041.28 407.42 1041.44 407.58C1041.88 407.98 1043.14 408.2 1045.22 408.24H1047.02V411H1046.48C1045.88 410.88 1043.34 410.82 1038.86 410.82C1033.7 410.82 1030.82 410.88 1030.22 411H1029.62V408.24H1030.4C1033.2 408.24 1034.6 407.88 1034.6 407.16C1034.6 407.08 1034.12 405.6 1033.16 402.72L1031.72 398.46H1017.74L1016.54 402C1015.74 404.36 1015.34 405.66 1015.34 405.9C1015.34 406.1 1015.4 406.28 1015.52 406.44C1015.76 406.96 1016.26 407.4 1017.02 407.76C1017.82 408.08 1018.66 408.24 1019.54 408.24H1019.84V411H1019.3ZM1028.96 390.18C1027.8 386.7 1026.78 383.68 1025.9 381.12L1024.7 377.58L1021.7 386.58L1018.64 395.64C1018.64 395.68 1020.66 395.7 1024.7 395.7H1030.82L1028.96 390.18ZM1051.16 408.24H1052C1053.56 408.24 1054.5 407.96 1054.82 407.4V406.92C1054.82 406.56 1054.82 406.1 1054.82 405.54C1054.86 404.98 1054.88 404.36 1054.88 403.68C1054.88 402.96 1054.88 402.18 1054.88 401.34C1054.88 400.46 1054.88 399.62 1054.88 398.82C1054.88 397.58 1054.88 396.26 1054.88 394.86C1054.88 393.42 1054.88 392.24 1054.88 391.32L1054.82 389.94C1054.7 389.18 1054.4 388.68 1053.92 388.44C1053.48 388.16 1052.6 387.98 1051.28 387.9H1050.2V386.52C1050.2 385.6 1050.24 385.14 1050.32 385.14L1050.92 385.08C1051.32 385.04 1051.88 385 1052.6 384.96C1053.32 384.92 1054.04 384.88 1054.76 384.84C1055.4 384.8 1056.1 384.76 1056.86 384.72C1057.62 384.64 1058.2 384.58 1058.6 384.54C1059 384.5 1059.22 384.48 1059.26 384.48H1059.44V388.62C1060.2 387.34 1061.04 386.34 1061.96 385.62C1062.88 384.9 1064.1 384.54 1065.62 384.54C1066.74 384.54 1067.7 384.76 1068.5 385.2C1070.06 386 1070.84 387.14 1070.84 388.62C1070.84 389.5 1070.54 390.24 1069.94 390.84C1069.34 391.4 1068.62 391.68 1067.78 391.68C1066.94 391.68 1066.22 391.4 1065.62 390.84C1065.06 390.28 1064.78 389.56 1064.78 388.68C1064.78 388 1064.94 387.44 1065.26 387C1065.34 386.84 1065.38 386.74 1065.38 386.7C1065.3 386.62 1064.84 386.7 1064 386.94C1063.36 387.26 1062.88 387.56 1062.56 387.84C1060.96 389.36 1060.04 391.88 1059.8 395.4V397.74C1059.76 399.3 1059.74 400.64 1059.74 401.76C1059.74 402.28 1059.74 402.84 1059.74 403.44C1059.74 404 1059.74 404.5 1059.74 404.94C1059.78 405.38 1059.8 405.78 1059.8 406.14C1059.8 406.5 1059.8 406.8 1059.8 407.04V407.34C1059.96 407.66 1060.2 407.86 1060.52 407.94C1060.92 408.1 1061.98 408.2 1063.7 408.24H1065.56V411H1065.02C1064.3 410.88 1061.76 410.82 1057.4 410.82C1053.48 410.82 1051.24 410.88 1050.68 411H1050.2V408.24H1051.16ZM1097.4 396.3C1097.4 396.58 1097.26 396.86 1096.98 397.14H1080.06V398.04C1080.06 401 1080.46 403.24 1081.26 404.76C1082.7 407.72 1085.18 409.2 1088.7 409.2C1090.42 409.2 1091.86 408.56 1093.02 407.28C1093.82 406.48 1094.44 405.44 1094.88 404.16C1095 403.72 1095.12 403.44 1095.24 403.32C1095.36 403.2 1095.68 403.14 1096.2 403.14C1097 403.14 1097.4 403.34 1097.4 403.74C1097.4 403.9 1097.34 404.16 1097.22 404.52C1096.46 406.6 1095.24 408.32 1093.56 409.68C1091.92 411 1089.9 411.66 1087.5 411.66C1086.74 411.66 1085.86 411.56 1084.86 411.36C1082.58 410.92 1080.54 409.88 1078.74 408.24C1076.94 406.6 1075.66 404.62 1074.9 402.3C1074.42 400.86 1074.18 399.4 1074.18 397.92C1074.18 394.24 1075.26 391.14 1077.42 388.62C1079.58 386.06 1082.24 384.58 1085.4 384.18C1085.56 384.14 1085.84 384.12 1086.24 384.12C1089.88 384.12 1092.64 385.2 1094.52 387.36C1096.44 389.48 1097.4 392.46 1097.4 396.3ZM1092.48 394.5C1092.12 390.14 1090.64 387.5 1088.04 386.58C1087.76 386.46 1087.34 386.38 1086.78 386.34C1084.7 386.34 1083 387.3 1081.68 389.22C1080.88 390.5 1080.36 392.28 1080.12 394.56V394.98H1092.48V394.5ZM1108.4 391.74C1107.8 392.38 1107.04 392.7 1106.12 392.7C1105.2 392.7 1104.44 392.38 1103.84 391.74C1103.24 391.1 1102.94 390.34 1102.94 389.46C1102.94 388.9 1103.1 388.26 1103.42 387.54C1103.94 386.46 1104.98 385.62 1106.54 385.02C1108.1 384.42 1110 384.12 1112.24 384.12C1114.88 384.12 1117.16 384.72 1119.08 385.92C1121.04 387.12 1122.32 388.68 1122.92 390.6C1123.12 391.16 1123.22 391.8 1123.22 392.52C1123.26 393.2 1123.28 395.48 1123.28 399.36C1123.28 403.28 1123.28 405.58 1123.28 406.26C1123.32 406.9 1123.44 407.4 1123.64 407.76C1123.88 408.32 1124.28 408.6 1124.84 408.6C1125.36 408.6 1125.74 408.32 1125.98 407.76C1126.22 407.28 1126.34 406.18 1126.34 404.46V402.3H1128.74V404.64C1128.7 406.24 1128.64 407.18 1128.56 407.46C1128.2 408.58 1127.54 409.52 1126.58 410.28C1125.62 411 1124.48 411.36 1123.16 411.36C1122.16 411.36 1121.26 411.02 1120.46 410.34C1119.7 409.62 1119.18 408.76 1118.9 407.76V407.52C1118.78 407.64 1118.54 407.92 1118.18 408.36C1117.82 408.76 1117.56 409.04 1117.4 409.2C1115.44 410.84 1113.16 411.66 1110.56 411.66C1108.48 411.66 1106.62 411.22 1104.98 410.34C1103.34 409.46 1102.24 408.3 1101.68 406.86C1101.36 406.1 1101.2 405.34 1101.2 404.58C1101.2 402.7 1101.98 400.98 1103.54 399.42C1104.46 398.5 1105.6 397.74 1106.96 397.14C1109.68 395.9 1113.16 395.16 1117.4 394.92H1118.24V393.6C1118.24 392.24 1118.12 391.24 1117.88 390.6C1117.48 389.28 1116.78 388.24 1115.78 387.48C1114.78 386.72 1113.54 386.34 1112.06 386.34C1109.38 386.34 1108.04 386.5 1108.04 386.82C1108.92 387.42 1109.36 388.3 1109.36 389.46C1109.36 390.34 1109.04 391.1 1108.4 391.74ZM1118.24 400.5C1118.24 398.18 1118.22 397.02 1118.18 397.02C1118.06 397.02 1117.96 397.04 1117.88 397.08C1112.4 397.44 1108.9 399.06 1107.38 401.94C1106.94 402.74 1106.72 403.64 1106.72 404.64C1106.72 406 1107.2 407.14 1108.16 408.06C1109.12 408.98 1110.3 409.44 1111.7 409.44C1113.3 409.44 1114.66 408.96 1115.78 408C1116.94 407.04 1117.7 405.86 1118.06 404.46C1118.14 404.18 1118.2 402.86 1118.24 400.5ZM1185.8 383.76C1185.8 382.6 1186.08 382.02 1186.64 382.02C1187.2 382.02 1187.48 382.64 1187.48 383.88C1187.48 386.16 1186.86 388.12 1185.62 389.76C1184.38 391.36 1182.74 392.48 1180.7 393.12C1179.62 393.48 1178.54 393.66 1177.46 393.66C1176.14 393.66 1174.74 393.38 1173.26 392.82C1172.02 392.38 1170 391.24 1167.2 389.4C1165.8 388.56 1164.82 387.94 1164.26 387.54C1162.46 386.54 1160.76 385.86 1159.16 385.5C1158.88 385.46 1158.36 385.44 1157.6 385.44C1155.6 385.44 1153.82 385.94 1152.26 386.94C1150.3 388.18 1149.26 389.84 1149.14 391.92C1149.06 393.08 1148.78 393.66 1148.3 393.66C1147.74 393.66 1147.46 393.06 1147.46 391.86C1147.46 391.38 1147.54 390.7 1147.7 389.82C1148.06 388.06 1148.8 386.54 1149.92 385.26C1151.08 383.98 1152.52 383.08 1154.24 382.56C1155.04 382.24 1155.78 382.08 1156.46 382.08C1156.54 382.08 1156.7 382.08 1156.94 382.08C1157.18 382.04 1157.38 382.02 1157.54 382.02C1159.26 382.02 1161.12 382.5 1163.12 383.46C1163.2 383.5 1165.74 385.06 1170.74 388.14C1172.5 389.14 1174.2 389.82 1175.84 390.18C1176.08 390.22 1176.58 390.24 1177.34 390.24C1179.34 390.24 1181.12 389.74 1182.68 388.74C1184.52 387.58 1185.56 385.92 1185.8 383.76ZM1148.3 407.7C1147.74 407.7 1147.46 407.1 1147.46 405.9C1147.46 405.42 1147.54 404.74 1147.7 403.86C1148.06 402.1 1148.8 400.58 1149.92 399.3C1151.08 398.02 1152.52 397.12 1154.24 396.6C1155.04 396.28 1155.78 396.12 1156.46 396.12C1156.54 396.12 1156.7 396.12 1156.94 396.12C1157.18 396.08 1157.38 396.06 1157.54 396.06C1159.26 396.06 1161.12 396.54 1163.12 397.5C1163.2 397.54 1165.74 399.1 1170.74 402.18C1172.5 403.18 1174.2 403.86 1175.84 404.22C1176.08 404.26 1176.58 404.28 1177.34 404.28C1179.34 404.28 1181.12 403.78 1182.68 402.78C1184.52 401.62 1185.56 399.96 1185.8 397.8C1185.8 396.64 1186.08 396.06 1186.64 396.06C1187.2 396.06 1187.48 396.7 1187.48 397.98C1187.48 398.62 1187.4 399.26 1187.24 399.9C1186.76 402.14 1185.64 404 1183.88 405.48C1182.16 406.96 1180.02 407.7 1177.46 407.7C1176.14 407.7 1174.74 407.42 1173.26 406.86C1172.02 406.42 1170 405.28 1167.2 403.44C1165.8 402.6 1164.82 401.98 1164.26 401.58C1162.46 400.58 1160.76 399.9 1159.16 399.54C1158.88 399.5 1158.36 399.48 1157.6 399.48C1155.6 399.48 1153.82 399.98 1152.26 400.98C1150.3 402.22 1149.26 403.88 1149.14 405.96C1149.06 407.12 1148.78 407.7 1148.3 407.7ZM1212.46 385.26C1211.34 385.26 1210.46 384.9 1209.82 384.18C1209.18 383.46 1208.86 382.58 1208.86 381.54C1208.86 378.66 1209.94 376.2 1212.1 374.16C1214.3 372.08 1216.92 371.04 1219.96 371.04C1223.4 371.04 1226.24 371.98 1228.48 373.86C1230.76 375.7 1232.16 378.12 1232.68 381.12C1232.76 381.84 1232.8 382.5 1232.8 383.1C1232.8 385.42 1232.1 387.6 1230.7 389.64C1229.58 391.32 1227.32 393.62 1223.92 396.54C1222.48 397.78 1220.48 399.62 1217.92 402.06L1214.38 405.42L1218.94 405.48C1225.22 405.48 1228.56 405.38 1228.96 405.18C1229.12 405.14 1229.32 404.72 1229.56 403.92C1229.72 403.48 1230 402.12 1230.4 399.84V399.66H1232.8V399.84L1231.12 410.82V411H1208.86V409.86C1208.86 409.06 1208.9 408.6 1208.98 408.48C1209.02 408.44 1210.7 406.54 1214.02 402.78C1218.38 397.94 1221.18 394.74 1222.42 393.18C1225.1 389.54 1226.44 386.2 1226.44 383.16C1226.44 380.52 1225.74 378.32 1224.34 376.56C1222.98 374.76 1221.06 373.86 1218.58 373.86C1216.26 373.86 1214.38 374.9 1212.94 376.98C1212.86 377.14 1212.74 377.36 1212.58 377.64C1212.46 377.84 1212.4 377.96 1212.4 378C1212.4 378.04 1212.5 378.06 1212.7 378.06C1213.7 378.06 1214.5 378.42 1215.1 379.14C1215.74 379.86 1216.06 380.7 1216.06 381.66C1216.06 382.66 1215.72 383.52 1215.04 384.24C1214.4 384.92 1213.54 385.26 1212.46 385.26ZM1261.72 408.78C1261.72 409.46 1261.42 410.1 1260.82 410.7C1260.26 411.3 1259.56 411.6 1258.72 411.6C1258.12 411.6 1257.7 411.52 1257.46 411.36C1257.26 411.2 1257.04 410.88 1256.8 410.4C1256.04 408.64 1255.66 406.42 1255.66 403.74C1255.66 402.3 1255.68 401.34 1255.72 400.86C1256 398.1 1256.62 394.76 1257.58 390.84C1257.78 390.04 1257.88 389.6 1257.88 389.52H1252L1251.94 389.76C1251.94 389.8 1251.9 389.98 1251.82 390.3C1251.74 390.58 1251.62 391.02 1251.46 391.62C1251.34 392.18 1251.22 392.7 1251.1 393.18C1248.46 403.46 1246.88 409.06 1246.36 409.98C1245.88 411.1 1245.02 411.66 1243.78 411.66C1242.86 411.66 1242.22 411.32 1241.86 410.64C1241.78 410.44 1241.74 410.12 1241.74 409.68V409.02L1242.52 407.34C1245.52 401.02 1247.7 395.56 1249.06 390.96L1249.54 389.52H1247.62C1246.02 389.52 1244.9 389.58 1244.26 389.7C1243.66 389.82 1242.92 390.2 1242.04 390.84C1241.08 391.44 1240.24 392.26 1239.52 393.3C1239.32 393.62 1239.16 393.82 1239.04 393.9C1238.92 393.94 1238.62 393.96 1238.14 393.96C1237.38 393.96 1237 393.76 1237 393.36C1237 393.2 1237.2 392.8 1237.6 392.16C1240.36 387.96 1243.06 385.66 1245.7 385.26C1245.98 385.18 1250.48 385.14 1259.2 385.14C1265.6 385.14 1268.88 385.16 1269.04 385.2C1269.84 385.48 1270.24 386.04 1270.24 386.88C1270.24 388.12 1269.6 388.96 1268.32 389.4C1268.08 389.48 1266.7 389.52 1264.18 389.52H1260.34L1260.16 390.54C1259.68 393.42 1259.44 395.8 1259.44 397.68C1259.44 401.24 1260.06 404.46 1261.3 407.34C1261.58 408.06 1261.72 408.54 1261.72 408.78Z" fill="white"/>
<path d="M1276.55 411.66C1275.99 411.66 1275.51 411.5 1275.11 411.18C1274.71 410.9 1274.51 410.5 1274.51 409.98C1274.51 409.46 1275.31 406.02 1276.91 399.66C1278.51 393.3 1279.31 389.76 1279.31 389.04C1279.31 387.48 1278.79 386.7 1277.75 386.7C1277.31 386.7 1276.93 386.84 1276.61 387.12C1275.65 387.88 1274.69 390.1 1273.73 393.78C1273.73 393.82 1273.71 393.9 1273.67 394.02C1273.63 394.1 1273.59 394.16 1273.55 394.2C1273.55 394.2 1273.53 394.22 1273.49 394.26C1273.45 394.3 1273.37 394.32 1273.25 394.32C1273.17 394.32 1273.09 394.32 1273.01 394.32C1272.93 394.32 1272.77 394.32 1272.53 394.32H1271.69C1271.45 394.08 1271.33 393.9 1271.33 393.78C1271.33 393.46 1271.59 392.52 1272.11 390.96C1272.87 388.64 1273.77 386.96 1274.81 385.92C1275.77 384.96 1276.83 384.48 1277.99 384.48C1279.55 384.48 1280.83 384.86 1281.83 385.62C1282.71 386.3 1283.29 387 1283.57 387.72C1283.65 387.96 1283.71 388.1 1283.75 388.14C1283.79 388.14 1283.95 387.98 1284.23 387.66C1285.71 386.02 1287.41 385 1289.33 384.6C1289.57 384.56 1290.09 384.54 1290.89 384.54C1292.37 384.54 1293.57 384.96 1294.49 385.8C1295.41 386.64 1295.87 387.78 1295.87 389.22C1295.87 390.5 1295.51 391.58 1294.79 392.46C1294.11 393.3 1293.19 393.72 1292.03 393.72C1291.27 393.72 1290.63 393.5 1290.11 393.06C1289.63 392.62 1289.39 392.04 1289.39 391.32C1289.39 389.36 1290.51 388.08 1292.75 387.48C1291.87 386.96 1291.15 386.7 1290.59 386.7C1289.75 386.7 1288.95 386.9 1288.19 387.3C1286.87 387.94 1285.61 389.22 1284.41 391.14C1284.01 391.78 1283.71 392.44 1283.51 393.12C1283.31 393.8 1282.63 396.46 1281.47 401.1C1280.11 406.7 1279.33 409.68 1279.13 410.04C1278.61 411.12 1277.75 411.66 1276.55 411.66Z" fill="#FFFF00"/>
<path d="M1323.42 369.72C1324.02 369.68 1324.7 369.64 1325.46 369.6C1326.22 369.52 1326.78 369.46 1327.14 369.42C1327.54 369.38 1327.76 369.36 1327.8 369.36C1328.28 369.36 1328.52 369.52 1328.52 369.84C1328.52 370.12 1327.04 376.18 1324.08 388.02C1321.16 399.82 1319.68 405.82 1319.64 406.02C1319.6 406.22 1319.58 406.52 1319.58 406.92C1319.58 408.6 1320.14 409.44 1321.26 409.44C1321.62 409.4 1322.02 409.22 1322.46 408.9C1323.3 408.1 1324.12 406.18 1324.92 403.14C1325.16 402.34 1325.36 401.92 1325.52 401.88C1325.6 401.84 1325.8 401.82 1326.12 401.82H1326.36C1327.12 401.82 1327.5 401.98 1327.5 402.3C1327.5 402.46 1327.44 402.78 1327.32 403.26C1326.44 406.62 1325.36 408.94 1324.08 410.22C1323.56 410.74 1322.92 411.16 1322.16 411.48C1321.84 411.56 1321.36 411.6 1320.72 411.6C1318.2 411.6 1316.44 410.62 1315.44 408.66C1315.24 408.14 1315.14 407.9 1315.14 407.94C1315.1 407.9 1315.02 407.92 1314.9 408C1314.82 408.08 1314.74 408.16 1314.66 408.24C1312.74 410.04 1310.84 411.14 1308.96 411.54C1308.72 411.58 1308.22 411.6 1307.46 411.6C1304.82 411.6 1302.64 410.5 1300.92 408.3C1299.72 406.54 1299.12 404.3 1299.12 401.58C1299.12 397.86 1300.48 394.18 1303.2 390.54C1305.68 387.5 1308.44 385.6 1311.48 384.84C1312.32 384.6 1313.14 384.48 1313.94 384.48C1316.14 384.48 1317.82 385.32 1318.98 387C1319.18 387.24 1319.28 387.32 1319.28 387.24C1319.32 387.08 1319.86 384.9 1320.9 380.7C1321.98 376.46 1322.54 374.24 1322.58 374.04C1322.58 373.56 1322.46 373.24 1322.22 373.08C1321.78 372.92 1320.98 372.82 1319.82 372.78H1318.56C1318.32 372.54 1318.18 372.38 1318.14 372.3C1318.14 372.22 1318.2 371.84 1318.32 371.16C1318.52 370.4 1318.78 370.02 1319.1 370.02C1319.14 370.02 1319.34 370 1319.7 369.96C1320.1 369.92 1320.64 369.88 1321.32 369.84C1322.04 369.8 1322.74 369.76 1323.42 369.72ZM1318.26 391.44C1317.38 388.28 1315.88 386.7 1313.76 386.7C1312.16 386.7 1310.74 387.38 1309.5 388.74C1308.3 390.1 1307.38 391.66 1306.74 393.42C1305.58 396.58 1304.76 399.86 1304.28 403.26C1304.28 403.38 1304.26 403.6 1304.22 403.92C1304.22 404.24 1304.22 404.48 1304.22 404.64C1304.22 406.08 1304.52 407.24 1305.12 408.12C1305.76 409 1306.68 409.44 1307.88 409.44C1310 409.44 1312.22 408 1314.54 405.12L1315.02 404.46C1315.38 403.02 1315.92 400.86 1316.64 397.98C1317.36 395.06 1317.9 392.88 1318.26 391.44ZM1334.8 411.66C1334.24 411.66 1333.76 411.5 1333.36 411.18C1332.96 410.9 1332.76 410.5 1332.76 409.98C1332.76 409.46 1333.56 406.02 1335.16 399.66C1336.76 393.3 1337.56 389.76 1337.56 389.04C1337.56 387.48 1337.04 386.7 1336 386.7C1335.56 386.7 1335.18 386.84 1334.86 387.12C1333.9 387.88 1332.94 390.1 1331.98 393.78C1331.98 393.82 1331.96 393.9 1331.92 394.02C1331.88 394.1 1331.84 394.16 1331.8 394.2C1331.8 394.2 1331.78 394.22 1331.74 394.26C1331.7 394.3 1331.62 394.32 1331.5 394.32C1331.42 394.32 1331.34 394.32 1331.26 394.32C1331.18 394.32 1331.02 394.32 1330.78 394.32H1329.94C1329.7 394.08 1329.58 393.9 1329.58 393.78C1329.58 393.46 1329.84 392.52 1330.36 390.96C1331.12 388.64 1332.02 386.96 1333.06 385.92C1334.02 384.96 1335.08 384.48 1336.24 384.48C1337.8 384.48 1339.08 384.86 1340.08 385.62C1340.96 386.3 1341.54 387 1341.82 387.72C1341.9 387.96 1341.96 388.1 1342 388.14C1342.04 388.14 1342.2 387.98 1342.48 387.66C1343.96 386.02 1345.66 385 1347.58 384.6C1347.82 384.56 1348.34 384.54 1349.14 384.54C1350.62 384.54 1351.82 384.96 1352.74 385.8C1353.66 386.64 1354.12 387.78 1354.12 389.22C1354.12 390.5 1353.76 391.58 1353.04 392.46C1352.36 393.3 1351.44 393.72 1350.28 393.72C1349.52 393.72 1348.88 393.5 1348.36 393.06C1347.88 392.62 1347.64 392.04 1347.64 391.32C1347.64 389.36 1348.76 388.08 1351 387.48C1350.12 386.96 1349.4 386.7 1348.84 386.7C1348 386.7 1347.2 386.9 1346.44 387.3C1345.12 387.94 1343.86 389.22 1342.66 391.14C1342.26 391.78 1341.96 392.44 1341.76 393.12C1341.56 393.8 1340.88 396.46 1339.72 401.1C1338.36 406.7 1337.58 409.68 1337.38 410.04C1336.86 411.12 1336 411.66 1334.8 411.66Z" fill="#FF8080"/>
<path d="M335.48 221.66C334.92 221.66 334.44 221.5 334.04 221.18C333.64 220.9 333.44 220.5 333.44 219.98C333.44 219.46 334.24 216.02 335.84 209.66C337.44 203.3 338.24 199.76 338.24 199.04C338.24 197.48 337.72 196.7 336.68 196.7C336.24 196.7 335.86 196.84 335.54 197.12C334.58 197.88 333.62 200.1 332.66 203.78C332.66 203.82 332.64 203.9 332.6 204.02C332.56 204.1 332.52 204.16 332.48 204.2C332.48 204.2 332.46 204.22 332.42 204.26C332.38 204.3 332.3 204.32 332.18 204.32C332.1 204.32 332.02 204.32 331.94 204.32C331.86 204.32 331.7 204.32 331.46 204.32H330.62C330.38 204.08 330.26 203.9 330.26 203.78C330.26 203.46 330.52 202.52 331.04 200.96C331.8 198.64 332.7 196.96 333.74 195.92C334.7 194.96 335.76 194.48 336.92 194.48C338.48 194.48 339.76 194.86 340.76 195.62C341.64 196.3 342.22 197 342.5 197.72C342.58 197.96 342.64 198.1 342.68 198.14C342.72 198.14 342.88 197.98 343.16 197.66C344.64 196.02 346.34 195 348.26 194.6C348.5 194.56 349.02 194.54 349.82 194.54C351.3 194.54 352.5 194.96 353.42 195.8C354.34 196.64 354.8 197.78 354.8 199.22C354.8 200.5 354.44 201.58 353.72 202.46C353.04 203.3 352.12 203.72 350.96 203.72C350.2 203.72 349.56 203.5 349.04 203.06C348.56 202.62 348.32 202.04 348.32 201.32C348.32 199.36 349.44 198.08 351.68 197.48C350.8 196.96 350.08 196.7 349.52 196.7C348.68 196.7 347.88 196.9 347.12 197.3C345.8 197.94 344.54 199.22 343.34 201.14C342.94 201.78 342.64 202.44 342.44 203.12C342.24 203.8 341.56 206.46 340.4 211.1C339.04 216.7 338.26 219.68 338.06 220.04C337.54 221.12 336.68 221.66 335.48 221.66ZM374.43 200.18C374.43 199.66 374.71 199.26 375.27 198.98H413.49C414.09 199.26 414.39 199.66 414.39 200.18C414.39 200.62 414.11 201 413.55 201.32L394.47 201.38H375.39C374.75 201.18 374.43 200.78 374.43 200.18ZM374.43 211.82C374.43 211.22 374.75 210.82 375.39 210.62H413.55C413.59 210.66 413.67 210.74 413.79 210.86C413.95 210.94 414.05 211.02 414.09 211.1C414.17 211.14 414.23 211.24 414.27 211.4C414.35 211.52 414.39 211.66 414.39 211.82C414.39 212.34 414.09 212.74 413.49 213.02H375.27C374.71 212.74 374.43 212.34 374.43 211.82ZM438.53 185.9C440.77 182.66 443.83 181.04 447.71 181.04C450.63 181.04 453.19 182.04 455.39 184.04C456.47 185.08 457.39 186.44 458.15 188.12C459.63 191.44 460.37 196 460.37 201.8C460.37 208 459.51 212.74 457.79 216.02C456.67 218.34 455.03 220.02 452.87 221.06C451.19 221.9 449.49 222.32 447.77 222.32C443.17 222.32 439.81 220.22 437.69 216.02C435.97 212.74 435.11 208 435.11 201.8C435.11 198.08 435.35 195.02 435.83 192.62C436.35 190.18 437.25 187.94 438.53 185.9ZM452.03 185.18C450.87 183.9 449.45 183.26 447.77 183.26C446.09 183.26 444.65 183.9 443.45 185.18C442.57 186.1 441.97 187.22 441.65 188.54C441.33 189.86 441.13 192.14 441.05 195.38C441.05 195.62 441.03 196.4 440.99 197.72C440.99 199.04 440.99 200.14 440.99 201.02C440.99 204.86 441.03 207.54 441.11 209.06C441.27 211.86 441.51 213.88 441.83 215.12C442.15 216.32 442.75 217.36 443.63 218.24C444.71 219.44 446.09 220.04 447.77 220.04C449.41 220.04 450.77 219.44 451.85 218.24C452.73 217.36 453.33 216.32 453.65 215.12C453.97 213.88 454.21 211.86 454.37 209.06C454.45 207.54 454.49 204.86 454.49 201.02C454.49 200.14 454.47 199.04 454.43 197.72C454.43 196.4 454.43 195.62 454.43 195.38C454.35 192.14 454.15 189.86 453.83 188.54C453.51 187.22 452.91 186.1 452.03 185.18ZM467.45 217.4C467.45 216.36 467.79 215.5 468.47 214.82C469.15 214.14 470.01 213.8 471.05 213.8C472.09 213.8 472.95 214.16 473.63 214.88C474.35 215.56 474.71 216.38 474.71 217.34C474.71 218.38 474.35 219.26 473.63 219.98C472.91 220.66 472.07 221 471.11 221C470.07 221 469.19 220.64 468.47 219.92C467.79 219.2 467.45 218.36 467.45 217.4ZM504.429 221C503.749 220.88 500.569 220.82 494.889 220.82C489.289 220.82 486.149 220.88 485.469 221H484.749V218.24H486.309C488.629 218.24 490.129 218.18 490.809 218.06C491.129 218.02 491.609 217.78 492.249 217.34V186.32C492.169 186.32 492.009 186.38 491.769 186.5C489.929 187.22 487.869 187.6 485.589 187.64H484.449V184.88H485.589C488.949 184.76 491.749 184 493.989 182.6C494.709 182.2 495.329 181.74 495.849 181.22C495.929 181.1 496.169 181.04 496.569 181.04C496.969 181.04 497.309 181.16 497.589 181.4V199.34L497.649 217.34C498.249 217.94 499.549 218.24 501.549 218.24H503.529H505.089V221H504.429Z" fill="#FFFF00"/>
<path d="M335.48 71.66C334.92 71.66 334.44 71.5 334.04 71.18C333.64 70.9 333.44 70.5 333.44 69.98C333.44 69.46 334.24 66.02 335.84 59.66C337.44 53.3 338.24 49.76 338.24 49.04C338.24 47.48 337.72 46.7 336.68 46.7C336.24 46.7 335.86 46.84 335.54 47.12C334.58 47.88 333.62 50.1 332.66 53.78C332.66 53.82 332.64 53.9 332.6 54.02C332.56 54.1 332.52 54.16 332.48 54.2C332.48 54.2 332.46 54.22 332.42 54.26C332.38 54.3 332.3 54.32 332.18 54.32C332.1 54.32 332.02 54.32 331.94 54.32C331.86 54.32 331.7 54.32 331.46 54.32H330.62C330.38 54.08 330.26 53.9 330.26 53.78C330.26 53.46 330.52 52.52 331.04 50.96C331.8 48.64 332.7 46.96 333.74 45.92C334.7 44.96 335.76 44.48 336.92 44.48C338.48 44.48 339.76 44.86 340.76 45.62C341.64 46.3 342.22 47 342.5 47.72C342.58 47.96 342.64 48.1 342.68 48.14C342.72 48.14 342.88 47.98 343.16 47.66C344.64 46.02 346.34 45 348.26 44.6C348.5 44.56 349.02 44.54 349.82 44.54C351.3 44.54 352.5 44.96 353.42 45.8C354.34 46.64 354.8 47.78 354.8 49.22C354.8 50.5 354.44 51.58 353.72 52.46C353.04 53.3 352.12 53.72 350.96 53.72C350.2 53.72 349.56 53.5 349.04 53.06C348.56 52.62 348.32 52.04 348.32 51.32C348.32 49.36 349.44 48.08 351.68 47.48C350.8 46.96 350.08 46.7 349.52 46.7C348.68 46.7 347.88 46.9 347.12 47.3C345.8 47.94 344.54 49.22 343.34 51.14C342.94 51.78 342.64 52.44 342.44 53.12C342.24 53.8 341.56 56.46 340.4 61.1C339.04 66.7 338.26 69.68 338.06 70.04C337.54 71.12 336.68 71.66 335.48 71.66ZM374.43 50.18C374.43 49.66 374.71 49.26 375.27 48.98H413.49C414.09 49.26 414.39 49.66 414.39 50.18C414.39 50.62 414.11 51 413.55 51.32L394.47 51.38H375.39C374.75 51.18 374.43 50.78 374.43 50.18ZM374.43 61.82C374.43 61.22 374.75 60.82 375.39 60.62H413.55C413.59 60.66 413.67 60.74 413.79 60.86C413.95 60.94 414.05 61.02 414.09 61.1C414.17 61.14 414.23 61.24 414.27 61.4C414.35 61.52 414.39 61.66 414.39 61.82C414.39 62.34 414.09 62.74 413.49 63.02H375.27C374.71 62.74 374.43 62.34 374.43 61.82ZM438.53 35.9C440.77 32.66 443.83 31.04 447.71 31.04C450.63 31.04 453.19 32.04 455.39 34.04C456.47 35.08 457.39 36.44 458.15 38.12C459.63 41.44 460.37 46 460.37 51.8C460.37 58 459.51 62.74 457.79 66.02C456.67 68.34 455.03 70.02 452.87 71.06C451.19 71.9 449.49 72.32 447.77 72.32C443.17 72.32 439.81 70.22 437.69 66.02C435.97 62.74 435.11 58 435.11 51.8C435.11 48.08 435.35 45.02 435.83 42.62C436.35 40.18 437.25 37.94 438.53 35.9ZM452.03 35.18C450.87 33.9 449.45 33.26 447.77 33.26C446.09 33.26 444.65 33.9 443.45 35.18C442.57 36.1 441.97 37.22 441.65 38.54C441.33 39.86 441.13 42.14 441.05 45.38C441.05 45.62 441.03 46.4 440.99 47.72C440.99 49.04 440.99 50.14 440.99 51.02C440.99 54.86 441.03 57.54 441.11 59.06C441.27 61.86 441.51 63.88 441.83 65.12C442.15 66.32 442.75 67.36 443.63 68.24C444.71 69.44 446.09 70.04 447.77 70.04C449.41 70.04 450.77 69.44 451.85 68.24C452.73 67.36 453.33 66.32 453.65 65.12C453.97 63.88 454.21 61.86 454.37 59.06C454.45 57.54 454.49 54.86 454.49 51.02C454.49 50.14 454.47 49.04 454.43 47.72C454.43 46.4 454.43 45.62 454.43 45.38C454.35 42.14 454.15 39.86 453.83 38.54C453.51 37.22 452.91 36.1 452.03 35.18ZM467.45 67.4C467.45 66.36 467.79 65.5 468.47 64.82C469.15 64.14 470.01 63.8 471.05 63.8C472.09 63.8 472.95 64.16 473.63 64.88C474.35 65.56 474.71 66.38 474.71 67.34C474.71 68.38 474.35 69.26 473.63 69.98C472.91 70.66 472.07 71 471.11 71C470.07 71 469.19 70.64 468.47 69.92C467.79 69.2 467.45 68.36 467.45 67.4ZM485.229 35.9C487.469 32.66 490.529 31.04 494.409 31.04C497.329 31.04 499.889 32.04 502.089 34.04C503.169 35.08 504.089 36.44 504.849 38.12C506.329 41.44 507.069 46 507.069 51.8C507.069 58 506.209 62.74 504.489 66.02C503.369 68.34 501.729 70.02 499.569 71.06C497.889 71.9 496.189 72.32 494.469 72.32C489.869 72.32 486.509 70.22 484.389 66.02C482.669 62.74 481.809 58 481.809 51.8C481.809 48.08 482.049 45.02 482.529 42.62C483.049 40.18 483.949 37.94 485.229 35.9ZM498.729 35.18C497.569 33.9 496.149 33.26 494.469 33.26C492.789 33.26 491.349 33.9 490.149 35.18C489.269 36.1 488.669 37.22 488.349 38.54C488.029 39.86 487.829 42.14 487.749 45.38C487.749 45.62 487.729 46.4 487.689 47.72C487.689 49.04 487.689 50.14 487.689 51.02C487.689 54.86 487.729 57.54 487.809 59.06C487.969 61.86 488.209 63.88 488.529 65.12C488.849 66.32 489.449 67.36 490.329 68.24C491.409 69.44 492.789 70.04 494.469 70.04C496.109 70.04 497.469 69.44 498.549 68.24C499.429 67.36 500.029 66.32 500.349 65.12C500.669 63.88 500.909 61.86 501.069 59.06C501.149 57.54 501.189 54.86 501.189 51.02C501.189 50.14 501.169 49.04 501.129 47.72C501.129 46.4 501.129 45.62 501.129 45.38C501.049 42.14 500.849 39.86 500.529 38.54C500.209 37.22 499.609 36.1 498.729 35.18Z" fill="#FFFF00"/>
<path d="M334.48 411.66C333.92 411.66 333.44 411.5 333.04 411.18C332.64 410.9 332.44 410.5 332.44 409.98C332.44 409.46 333.24 406.02 334.84 399.66C336.44 393.3 337.24 389.76 337.24 389.04C337.24 387.48 336.72 386.7 335.68 386.7C335.24 386.7 334.86 386.84 334.54 387.12C333.58 387.88 332.62 390.1 331.66 393.78C331.66 393.82 331.64 393.9 331.6 394.02C331.56 394.1 331.52 394.16 331.48 394.2C331.48 394.2 331.46 394.22 331.42 394.26C331.38 394.3 331.3 394.32 331.18 394.32C331.1 394.32 331.02 394.32 330.94 394.32C330.86 394.32 330.7 394.32 330.46 394.32H329.62C329.38 394.08 329.26 393.9 329.26 393.78C329.26 393.46 329.52 392.52 330.04 390.96C330.8 388.64 331.7 386.96 332.74 385.92C333.7 384.96 334.76 384.48 335.92 384.48C337.48 384.48 338.76 384.86 339.76 385.62C340.64 386.3 341.22 387 341.5 387.72C341.58 387.96 341.64 388.1 341.68 388.14C341.72 388.14 341.88 387.98 342.16 387.66C343.64 386.02 345.34 385 347.26 384.6C347.5 384.56 348.02 384.54 348.82 384.54C350.3 384.54 351.5 384.96 352.42 385.8C353.34 386.64 353.8 387.78 353.8 389.22C353.8 390.5 353.44 391.58 352.72 392.46C352.04 393.3 351.12 393.72 349.96 393.72C349.2 393.72 348.56 393.5 348.04 393.06C347.56 392.62 347.32 392.04 347.32 391.32C347.32 389.36 348.44 388.08 350.68 387.48C349.8 386.96 349.08 386.7 348.52 386.7C347.68 386.7 346.88 386.9 346.12 387.3C344.8 387.94 343.54 389.22 342.34 391.14C341.94 391.78 341.64 392.44 341.44 393.12C341.24 393.8 340.56 396.46 339.4 401.1C338.04 406.7 337.26 409.68 337.06 410.04C336.54 411.12 335.68 411.66 334.48 411.66ZM373.43 390.18C373.43 389.66 373.71 389.26 374.27 388.98H412.49C413.09 389.26 413.39 389.66 413.39 390.18C413.39 390.62 413.11 391 412.55 391.32L393.47 391.38H374.39C373.75 391.18 373.43 390.78 373.43 390.18ZM373.43 401.82C373.43 401.22 373.75 400.82 374.39 400.62H412.55C412.59 400.66 412.67 400.74 412.79 400.86C412.95 400.94 413.05 401.02 413.09 401.1C413.17 401.14 413.23 401.24 413.27 401.4C413.35 401.52 413.39 401.66 413.39 401.82C413.39 402.34 413.09 402.74 412.49 403.02H374.27C373.71 402.74 373.43 402.34 373.43 401.82ZM437.53 375.9C439.77 372.66 442.83 371.04 446.71 371.04C449.63 371.04 452.19 372.04 454.39 374.04C455.47 375.08 456.39 376.44 457.15 378.12C458.63 381.44 459.37 386 459.37 391.8C459.37 398 458.51 402.74 456.79 406.02C455.67 408.34 454.03 410.02 451.87 411.06C450.19 411.9 448.49 412.32 446.77 412.32C442.17 412.32 438.81 410.22 436.69 406.02C434.97 402.74 434.11 398 434.11 391.8C434.11 388.08 434.35 385.02 434.83 382.62C435.35 380.18 436.25 377.94 437.53 375.9ZM451.03 375.18C449.87 373.9 448.45 373.26 446.77 373.26C445.09 373.26 443.65 373.9 442.45 375.18C441.57 376.1 440.97 377.22 440.65 378.54C440.33 379.86 440.13 382.14 440.05 385.38C440.05 385.62 440.03 386.4 439.99 387.72C439.99 389.04 439.99 390.14 439.99 391.02C439.99 394.86 440.03 397.54 440.11 399.06C440.27 401.86 440.51 403.88 440.83 405.12C441.15 406.32 441.75 407.36 442.63 408.24C443.71 409.44 445.09 410.04 446.77 410.04C448.41 410.04 449.77 409.44 450.85 408.24C451.73 407.36 452.33 406.32 452.65 405.12C452.97 403.88 453.21 401.86 453.37 399.06C453.45 397.54 453.49 394.86 453.49 391.02C453.49 390.14 453.47 389.04 453.43 387.72C453.43 386.4 453.43 385.62 453.43 385.38C453.35 382.14 453.15 379.86 452.83 378.54C452.51 377.22 451.91 376.1 451.03 375.18ZM466.45 407.4C466.45 406.36 466.79 405.5 467.47 404.82C468.15 404.14 469.01 403.8 470.05 403.8C471.09 403.8 471.95 404.16 472.63 404.88C473.35 405.56 473.71 406.38 473.71 407.34C473.71 408.38 473.35 409.26 472.63 409.98C471.91 410.66 471.07 411 470.11 411C469.07 411 468.19 410.64 467.47 409.92C466.79 409.2 466.45 408.36 466.45 407.4ZM485.069 385.26C483.949 385.26 483.069 384.9 482.429 384.18C481.789 383.46 481.469 382.58 481.469 381.54C481.469 378.66 482.549 376.2 484.709 374.16C486.909 372.08 489.529 371.04 492.569 371.04C496.009 371.04 498.849 371.98 501.089 373.86C503.369 375.7 504.769 378.12 505.289 381.12C505.369 381.84 505.409 382.5 505.409 383.1C505.409 385.42 504.709 387.6 503.309 389.64C502.189 391.32 499.929 393.62 496.529 396.54C495.089 397.78 493.089 399.62 490.529 402.06L486.989 405.42L491.549 405.48C497.829 405.48 501.169 405.38 501.569 405.18C501.729 405.14 501.929 404.72 502.169 403.92C502.329 403.48 502.609 402.12 503.009 399.84V399.66H505.409V399.84L503.729 410.82V411H481.469V409.86C481.469 409.06 481.509 408.6 481.589 408.48C481.629 408.44 483.309 406.54 486.629 402.78C490.989 397.94 493.789 394.74 495.029 393.18C497.709 389.54 499.049 386.2 499.049 383.16C499.049 380.52 498.349 378.32 496.949 376.56C495.589 374.76 493.669 373.86 491.189 373.86C488.869 373.86 486.989 374.9 485.549 376.98C485.469 377.14 485.349 377.36 485.189 377.64C485.069 377.84 485.009 377.96 485.009 378C485.009 378.04 485.109 378.06 485.309 378.06C486.309 378.06 487.109 378.42 487.709 379.14C488.349 379.86 488.669 380.7 488.669 381.66C488.669 382.66 488.329 383.52 487.649 384.24C487.009 384.92 486.149 385.26 485.069 385.26Z" fill="#FFFF00"/>
<path d="M328.48 877.66C327.92 877.66 327.44 877.5 327.04 877.18C326.64 876.9 326.44 876.5 326.44 875.98C326.44 875.46 327.24 872.02 328.84 865.66C330.44 859.3 331.24 855.76 331.24 855.04C331.24 853.48 330.72 852.7 329.68 852.7C329.24 852.7 328.86 852.84 328.54 853.12C327.58 853.88 326.62 856.1 325.66 859.78C325.66 859.82 325.64 859.9 325.6 860.02C325.56 860.1 325.52 860.16 325.48 860.2C325.48 860.2 325.46 860.22 325.42 860.26C325.38 860.3 325.3 860.32 325.18 860.32C325.1 860.32 325.02 860.32 324.94 860.32C324.86 860.32 324.7 860.32 324.46 860.32H323.62C323.38 860.08 323.26 859.9 323.26 859.78C323.26 859.46 323.52 858.52 324.04 856.96C324.8 854.64 325.7 852.96 326.74 851.92C327.7 850.96 328.76 850.48 329.92 850.48C331.48 850.48 332.76 850.86 333.76 851.62C334.64 852.3 335.22 853 335.5 853.72C335.58 853.96 335.64 854.1 335.68 854.14C335.72 854.14 335.88 853.98 336.16 853.66C337.64 852.02 339.34 851 341.26 850.6C341.5 850.56 342.02 850.54 342.82 850.54C344.3 850.54 345.5 850.96 346.42 851.8C347.34 852.64 347.8 853.78 347.8 855.22C347.8 856.5 347.44 857.58 346.72 858.46C346.04 859.3 345.12 859.72 343.96 859.72C343.2 859.72 342.56 859.5 342.04 859.06C341.56 858.62 341.32 858.04 341.32 857.32C341.32 855.36 342.44 854.08 344.68 853.48C343.8 852.96 343.08 852.7 342.52 852.7C341.68 852.7 340.88 852.9 340.12 853.3C338.8 853.94 337.54 855.22 336.34 857.14C335.94 857.78 335.64 858.44 335.44 859.12C335.24 859.8 334.56 862.46 333.4 867.1C332.04 872.7 331.26 875.68 331.06 876.04C330.54 877.12 329.68 877.66 328.48 877.66ZM367.43 856.18C367.43 855.66 367.71 855.26 368.27 854.98H406.49C407.09 855.26 407.39 855.66 407.39 856.18C407.39 856.62 407.11 857 406.55 857.32L387.47 857.38H368.39C367.75 857.18 367.43 856.78 367.43 856.18ZM367.43 867.82C367.43 867.22 367.75 866.82 368.39 866.62H406.55C406.59 866.66 406.67 866.74 406.79 866.86C406.95 866.94 407.05 867.02 407.09 867.1C407.17 867.14 407.23 867.24 407.27 867.4C407.35 867.52 407.39 867.66 407.39 867.82C407.39 868.34 407.09 868.74 406.49 869.02H368.27C367.71 868.74 367.43 868.34 367.43 867.82ZM431.53 841.9C433.77 838.66 436.83 837.04 440.71 837.04C443.63 837.04 446.19 838.04 448.39 840.04C449.47 841.08 450.39 842.44 451.15 844.12C452.63 847.44 453.37 852 453.37 857.8C453.37 864 452.51 868.74 450.79 872.02C449.67 874.34 448.03 876.02 445.87 877.06C444.19 877.9 442.49 878.32 440.77 878.32C436.17 878.32 432.81 876.22 430.69 872.02C428.97 868.74 428.11 864 428.11 857.8C428.11 854.08 428.35 851.02 428.83 848.62C429.35 846.18 430.25 843.94 431.53 841.9ZM445.03 841.18C443.87 839.9 442.45 839.26 440.77 839.26C439.09 839.26 437.65 839.9 436.45 841.18C435.57 842.1 434.97 843.22 434.65 844.54C434.33 845.86 434.13 848.14 434.05 851.38C434.05 851.62 434.03 852.4 433.99 853.72C433.99 855.04 433.99 856.14 433.99 857.02C433.99 860.86 434.03 863.54 434.11 865.06C434.27 867.86 434.51 869.88 434.83 871.12C435.15 872.32 435.75 873.36 436.63 874.24C437.71 875.44 439.09 876.04 440.77 876.04C442.41 876.04 443.77 875.44 444.85 874.24C445.73 873.36 446.33 872.32 446.65 871.12C446.97 869.88 447.21 867.86 447.37 865.06C447.45 863.54 447.49 860.86 447.49 857.02C447.49 856.14 447.47 855.04 447.43 853.72C447.43 852.4 447.43 851.62 447.43 851.38C447.35 848.14 447.15 845.86 446.83 844.54C446.51 843.22 445.91 842.1 445.03 841.18ZM460.45 873.4C460.45 872.36 460.79 871.5 461.47 870.82C462.15 870.14 463.01 869.8 464.05 869.8C465.09 869.8 465.95 870.16 466.63 870.88C467.35 871.56 467.71 872.38 467.71 873.34C467.71 874.38 467.35 875.26 466.63 875.98C465.91 876.66 465.07 877 464.11 877C463.07 877 462.19 876.64 461.47 875.92C460.79 875.2 460.45 874.36 460.45 873.4ZM482.849 871.24C482.849 872.08 482.629 872.78 482.189 873.34C481.789 873.9 481.249 874.24 480.569 874.36L480.329 874.42C480.329 874.46 480.469 874.58 480.749 874.78C481.029 874.94 481.249 875.04 481.409 875.08C482.329 875.48 483.469 875.68 484.829 875.68C485.589 875.68 486.109 875.64 486.389 875.56C488.309 875.08 489.929 873.84 491.249 871.84C492.809 869.6 493.589 865.72 493.589 860.2V859.78L493.289 860.26C491.649 862.98 489.349 864.34 486.389 864.34C483.189 864.34 480.469 862.96 478.229 860.2C477.069 858.76 476.229 857.36 475.709 856C475.229 854.64 474.989 852.92 474.989 850.84C474.989 848.52 475.289 846.62 475.889 845.14C476.529 843.66 477.609 842.16 479.129 840.64C481.209 838.56 483.689 837.38 486.569 837.1L486.749 837.04C486.869 837.04 486.969 837.04 487.049 837.04C487.129 837.04 487.249 837.06 487.409 837.1C487.609 837.1 487.769 837.1 487.889 837.1C488.729 837.1 489.309 837.14 489.629 837.22C492.869 837.94 495.409 840 497.249 843.4C498.969 846.88 499.829 851.4 499.829 856.96C499.829 862.56 498.629 867.3 496.229 871.18C494.829 873.42 493.129 875.18 491.129 876.46C489.169 877.7 487.109 878.32 484.949 878.32C482.429 878.32 480.389 877.74 478.829 876.58C477.309 875.38 476.549 873.66 476.549 871.42C476.549 869.18 477.609 868.06 479.729 868.06C480.649 868.06 481.389 868.34 481.949 868.9C482.549 869.46 482.849 870.24 482.849 871.24ZM488.909 839.62C488.509 839.54 487.949 839.5 487.229 839.5C485.709 839.5 484.409 840.04 483.329 841.12C482.489 842 481.929 843.06 481.649 844.3C481.409 845.5 481.289 847.58 481.289 850.54C481.289 853.26 481.389 855.42 481.589 857.02C481.789 858.54 482.369 859.78 483.329 860.74C484.329 861.66 485.589 862.12 487.109 862.12H487.349C489.509 861.92 491.069 860.8 492.029 858.76C493.029 856.68 493.529 854.16 493.529 851.2C493.529 848.08 493.369 845.84 493.049 844.48C492.849 843.32 492.349 842.28 491.549 841.36C490.789 840.44 489.909 839.86 488.909 839.62Z" fill="#FFFF00"/>
<path d="M930.28 849.72C930.88 849.68 931.56 849.64 932.32 849.6C933.08 849.52 933.64 849.46 934 849.42C934.4 849.38 934.62 849.36 934.66 849.36C935.14 849.36 935.38 849.52 935.38 849.84C935.38 850.12 933.9 856.18 930.94 868.02C928.02 879.82 926.54 885.82 926.5 886.02C926.46 886.22 926.44 886.52 926.44 886.92C926.44 888.6 927 889.44 928.12 889.44C928.48 889.4 928.88 889.22 929.32 888.9C930.16 888.1 930.98 886.18 931.78 883.14C932.02 882.34 932.22 881.92 932.38 881.88C932.46 881.84 932.66 881.82 932.98 881.82H933.22C933.98 881.82 934.36 881.98 934.36 882.3C934.36 882.46 934.3 882.78 934.18 883.26C933.3 886.62 932.22 888.94 930.94 890.22C930.42 890.74 929.78 891.16 929.02 891.48C928.7 891.56 928.22 891.6 927.58 891.6C925.06 891.6 923.3 890.62 922.3 888.66C922.1 888.14 922 887.9 922 887.94C921.96 887.9 921.88 887.92 921.76 888C921.68 888.08 921.6 888.16 921.52 888.24C919.6 890.04 917.7 891.14 915.82 891.54C915.58 891.58 915.08 891.6 914.32 891.6C911.68 891.6 909.5 890.5 907.78 888.3C906.58 886.54 905.98 884.3 905.98 881.58C905.98 877.86 907.34 874.18 910.06 870.54C912.54 867.5 915.3 865.6 918.34 864.84C919.18 864.6 920 864.48 920.8 864.48C923 864.48 924.68 865.32 925.84 867C926.04 867.24 926.14 867.32 926.14 867.24C926.18 867.08 926.72 864.9 927.76 860.7C928.84 856.46 929.4 854.24 929.44 854.04C929.44 853.56 929.32 853.24 929.08 853.08C928.64 852.92 927.84 852.82 926.68 852.78H925.42C925.18 852.54 925.04 852.38 925 852.3C925 852.22 925.06 851.84 925.18 851.16C925.38 850.4 925.64 850.02 925.96 850.02C926 850.02 926.2 850 926.56 849.96C926.96 849.92 927.5 849.88 928.18 849.84C928.9 849.8 929.6 849.76 930.28 849.72ZM925.12 871.44C924.24 868.28 922.74 866.7 920.62 866.7C919.02 866.7 917.6 867.38 916.36 868.74C915.16 870.1 914.24 871.66 913.6 873.42C912.44 876.58 911.62 879.86 911.14 883.26C911.14 883.38 911.12 883.6 911.08 883.92C911.08 884.24 911.08 884.48 911.08 884.64C911.08 886.08 911.38 887.24 911.98 888.12C912.62 889 913.54 889.44 914.74 889.44C916.86 889.44 919.08 888 921.4 885.12L921.88 884.46C922.24 883.02 922.78 880.86 923.5 877.98C924.22 875.06 924.76 872.88 925.12 871.44ZM941.652 891.66C941.092 891.66 940.612 891.5 940.212 891.18C939.812 890.9 939.612 890.5 939.612 889.98C939.612 889.46 940.412 886.02 942.012 879.66C943.612 873.3 944.412 869.76 944.412 869.04C944.412 867.48 943.892 866.7 942.852 866.7C942.412 866.7 942.032 866.84 941.712 867.12C940.752 867.88 939.792 870.1 938.832 873.78C938.832 873.82 938.812 873.9 938.772 874.02C938.732 874.1 938.692 874.16 938.652 874.2C938.652 874.2 938.632 874.22 938.592 874.26C938.552 874.3 938.472 874.32 938.352 874.32C938.272 874.32 938.192 874.32 938.112 874.32C938.032 874.32 937.872 874.32 937.632 874.32H936.792C936.552 874.08 936.432 873.9 936.432 873.78C936.432 873.46 936.692 872.52 937.212 870.96C937.972 868.64 938.872 866.96 939.912 865.92C940.872 864.96 941.932 864.48 943.092 864.48C944.652 864.48 945.932 864.86 946.932 865.62C947.812 866.3 948.392 867 948.672 867.72C948.752 867.96 948.812 868.1 948.852 868.14C948.892 868.14 949.052 867.98 949.332 867.66C950.812 866.02 952.512 865 954.432 864.6C954.672 864.56 955.192 864.54 955.992 864.54C957.472 864.54 958.672 864.96 959.592 865.8C960.512 866.64 960.972 867.78 960.972 869.22C960.972 870.5 960.612 871.58 959.892 872.46C959.212 873.3 958.292 873.72 957.132 873.72C956.372 873.72 955.732 873.5 955.212 873.06C954.732 872.62 954.492 872.04 954.492 871.32C954.492 869.36 955.612 868.08 957.852 867.48C956.972 866.96 956.252 866.7 955.692 866.7C954.852 866.7 954.052 866.9 953.292 867.3C951.972 867.94 950.712 869.22 949.512 871.14C949.112 871.78 948.812 872.44 948.612 873.12C948.412 873.8 947.732 876.46 946.572 881.1C945.212 886.7 944.432 889.68 944.232 890.04C943.712 891.12 942.852 891.66 941.652 891.66Z" fill="#FF8080"/>
</svg>
