<?xml version="1.0" encoding="UTF-8"?>
<svg id="Layer_2" data-name="Layer 2" xmlns="http://www.w3.org/2000/svg" viewBox="0 0 101.8 69">
  <defs>
    <style>
      .cls-1 {
        fill: #303082;
      }

      .cls-2 {
        fill: #8585bc;
      }

      .cls-3 {
        fill: #8eccf5;
      }
    </style>
  </defs>
  <g id="Layer_1-2" data-name="Layer 1">
    <path class="cls-1" d="M50.2,0C51.4,0,52.6.5,54,2.1c1.4,1.6,2.8,4.1,4.1,7.3,2,4.8,3.6,10.9,5.3,17.5-5.3,6.7-9.4,19-14.9,28.6-4.9-6.9-8.9-14.5-14.6-17.5.4-1.4.8-2.8,1.1-4.2,2.4-9.1,4.5-17.9,7.1-24.4,1.3-3.3,2.7-5.7,4.1-7.3,1.4-1.6,2.6-2.1,3.8-2.1h.2Z"/>
    <path class="cls-3" d="M28.9,39.6c2.7,0,5.1,1.4,7.7,4.1,2.6,2.8,5,6.6,7.8,10.7.8,1.2,1.7,2.5,2.6,3.8-4,6.2-8.7,10.8-15.1,10.8H0c5.8-3.4,10-9.3,13.5-14.5,2.8-4.2,5.2-7.9,7.8-10.7,2.6-2.7,5-4.1,7.7-4.1l-.1-.1Z"/>
    <path class="cls-2" d="M71.5,25c2.2,0,4.6,1.7,7.3,6,2.7,4.2,5.1,9.8,7.9,15.8,2.7,5.8,5.7,12,9.4,16.7,1.7,2.1,3.6,4.1,5.7,5.5h-60.8c2.2-1.5,4.1-3.4,5.7-5.5,3.7-4.7,6.7-10.9,9.4-16.7,2.8-6,5.2-11.6,7.9-15.8,2.8-4.3,5.1-6,7.3-6h.2Z"/>
  </g>
</svg>