<?xml version="1.0" encoding="UTF-8"?>
<svg id="Layer_1" xmlns="http://www.w3.org/2000/svg" version="1.1" viewBox="0 0 330.6 92.2">
  <!-- Generator: Adobe Illustrator 30.2.1, SVG Export Plug-In . SVG Version: 2.1.1 Build 1)  -->
  <defs>
    <style>
      .st0, .st1 {
        fill: #303082;
      }

      .st2 {
        fill: #8585bc;
      }

      .st1 {
        fill-rule: evenodd;
      }

      .st3 {
        fill: #8eccf5;
      }
    </style>
  </defs>
  <path class="st0" d="M50.2,0c1.2,0,2.4.5,3.8,2.1,1.4,1.6,2.8,4.1,4.1,7.3,2,4.8,3.6,10.9,5.3,17.5-5.3,6.7-9.4,19-14.9,28.6-4.9-6.9-8.9-14.5-14.6-17.5.4-1.4.8-2.8,1.1-4.2,2.4-9.1,4.5-17.9,7.1-24.4,1.3-3.3,2.7-5.7,4.1-7.3,1.4-1.6,2.6-2.1,3.8-2.1Z"/>
  <path class="st3" d="M28.9,39.6c2.7,0,5.1,1.4,7.7,4.1,2.6,2.8,5,6.6,7.8,10.7.8,1.2,1.7,2.5,2.6,3.8-4,6.2-8.7,10.8-15.1,10.8H0c5.8-3.4,10-9.3,13.5-14.5,2.8-4.2,5.2-7.9,7.8-10.7,2.6-2.7,5-4.1,7.7-4.1Z"/>
  <path class="st2" d="M71.5,25c2.2,0,4.6,1.7,7.3,6,2.7,4.2,5.1,9.8,7.9,15.8,2.7,5.8,5.7,12,9.4,16.7,1.7,2.1,3.6,4.1,5.7,5.5h-60.8c2.2-1.5,4.1-3.4,5.7-5.5,3.7-4.7,6.7-10.9,9.4-16.7,2.8-6,5.2-11.6,7.9-15.8,2.8-4.3,5.1-6,7.3-6Z"/>
  <path class="st0" d="M235.4,0c11.4,0,17.5,2.5,20.7,4l-2.2,8.7c-4.3-2.3-9.9-4.5-18.5-4.5-4.2,0-7.6,1-10.2,3-2.6,1.9-3.8,4.6-3.8,8s.8,4.5,2.3,6.2c1.6,1.6,3.9,2.8,7.1,3.6l11.1,2.6c5.6,1.2,9.7,3.4,12.5,6.5,2.8,3,4.2,7.3,4.2,12.1,0,4.1-1,7.6-3,10.6-1.9,3-4.7,5.3-8.3,6.9-3.6,1.6-7.7,2.4-12.5,2.4-11.5,0-19.1-3.1-22.6-4.6l2.3-8.6c6.6,2.8,14.4,5,20.2,5,4.5,0,8.1-1,10.7-3,2.7-2,4-4.7,4-8,0-2.7-.8-5.3-2.2-7-1.5-1.7-3.9-2.9-7.1-3.7l-11.1-2.5c-5.5-1.2-9.7-3.4-12.5-6.6-2.8-3.2-4.2-6.7-4.2-11.6,0-3.9,1-7.3,2.9-10.2,1.9-2.9,4.7-5.2,8.1-6.8C226.7.8,230.8,0,235.4,0Z"/>
  <path class="st1" d="M298.1,0c6.4,0,12.1,1.5,16.9,4.5,4.9,3,8.7,7.1,11.4,12.4,2.8,5.2,4.2,11.3,4.2,18.2s-1.4,13-4.2,18.3c-2.7,5.2-6.6,9.4-11.5,12.4-4.9,2.9-10.5,4.4-16.9,4.4-6.3,0-11.9-1.5-16.9-4.4-4.9-3-8.7-7.1-11.4-12.4-2.7-5.2-4.1-11.3-4.1-18.3,0-6.9,1.4-12.9,4.1-18.2,2.8-5.2,6.6-9.4,11.5-12.4,4.9-3,10.5-4.5,16.9-4.5ZM298.1,8.9c-4.6,0-8.6,1.1-12,3.3-3.4,2.1-6.1,5.2-8,9.1-1.9,3.9-2.8,8.5-2.8,13.8s.9,9.8,2.8,13.8c1.9,3.9,4.6,7,8,9.2,3.4,2.2,7.4,3.3,12,3.3,4.6,0,8.6-1.1,12.1-3.3,3.4-2.2,6.1-5.3,8-9.3,1.9-3.9,2.9-8.5,2.9-13.7s-1-9.8-2.9-13.8c-1.9-3.9-4.5-7-8-9.1-3.4-2.2-7.5-3.3-12.1-3.3Z"/>
  <path class="st0" d="M138.4,28.9c2.4-.1,5.5-1.2,8.4-3.5,7.8-5.9,13.3-14.6,19.2-22.3.6-.8,1.2-1.5,1.8-2.3h12.4c-2.1,2.1-4.3,4.9-6.8,8-6.5,8.4-12.1,16.5-20.9,23.2,6.6,2.8,10.9,6.3,15.1,11.6,5.7,7.2,10,16.5,13.9,25.3h-10.3c-3.4-7.4-6.8-14.2-11-19.5-5.4-6.8-12.3-11.1-21.9-11.2v30.8h-10V.8h10v28.1Z"/>
  <path class="st0" d="M200.6,69h-10V.8h10v68.2Z"/>
  <g>
    <path class="st0" d="M128.4,89.3l3.8-9.8h1.4l4,9.8h-1.5l-1.1-3h-4.1l-1.1,3h-1.4ZM131.3,85.3h3.3l-1-2.7c-.3-.8-.5-1.5-.7-2-.1.6-.3,1.2-.5,1.9l-1.1,2.9Z"/>
    <path class="st0" d="M138.5,92v-9.8h1.1v.9c.3-.4.5-.6.9-.8.3-.2.7-.3,1.2-.3s1.1.2,1.6.5.8.7,1,1.3c.2.6.4,1.2.4,1.9s-.1,1.4-.4,2c-.3.6-.6,1-1.1,1.3-.5.3-1,.5-1.6.5s-.8,0-1.1-.3c-.3-.2-.6-.4-.8-.6v3.4h-1.2ZM139.5,85.8c0,.9.2,1.6.6,2s.8.7,1.3.7,1-.2,1.4-.7c.4-.5.6-1.1.6-2.1s-.2-1.6-.6-2c-.4-.4-.8-.7-1.3-.7s-1,.2-1.4.7c-.4.5-.6,1.2-.6,2.1Z"/>
    <path class="st0" d="M146.1,92v-9.8h1.1v.9c.3-.4.5-.6.9-.8.3-.2.7-.3,1.2-.3s1.1.2,1.6.5.8.7,1,1.3c.2.6.4,1.2.4,1.9s-.1,1.4-.4,2c-.3.6-.6,1-1.1,1.3-.5.3-1,.5-1.6.5s-.8,0-1.1-.3c-.3-.2-.6-.4-.8-.6v3.4h-1.2ZM147.1,85.8c0,.9.2,1.6.6,2s.8.7,1.3.7,1-.2,1.4-.7c.4-.5.6-1.1.6-2.1s-.2-1.6-.6-2c-.4-.4-.8-.7-1.3-.7s-1,.2-1.4.7c-.4.5-.6,1.2-.6,2.1Z"/>
    <path class="st0" d="M153.6,89.3v-9.8h1.2v9.8h-1.2Z"/>
    <path class="st0" d="M156.7,80.9v-1.4h1.2v1.4h-1.2ZM156.7,89.3v-7.1h1.2v7.1h-1.2Z"/>
    <path class="st0" d="M164.6,87l1.2.2c-.2.7-.6,1.3-1.1,1.7-.5.4-1.2.6-2,.6s-1.9-.3-2.5-1c-.6-.6-.9-1.5-.9-2.7s.3-2.1.9-2.8,1.4-1,2.4-1,1.7.3,2.3,1c.6.6.9,1.6.9,2.7s0,.2,0,.3h-5.3c0,.8.3,1.4.7,1.8.4.4.9.6,1.5.6s.8-.1,1.1-.3.6-.6.7-1.1ZM160.6,85.1h4c0-.6-.2-1-.5-1.3-.4-.5-.9-.7-1.5-.7s-1,.2-1.4.6c-.4.4-.6.9-.6,1.5Z"/>
    <path class="st0" d="M171.9,89.3v-.9c-.4.7-1.1,1.1-2,1.1s-1.1-.2-1.6-.5c-.5-.3-.8-.7-1.1-1.3-.3-.6-.4-1.2-.4-1.9s.1-1.3.4-1.9c.2-.6.6-1,1.1-1.3.5-.3,1-.5,1.6-.5s.8,0,1.1.3c.3.2.6.4.8.7v-3.5h1.2v9.8h-1.1ZM168.1,85.8c0,.9.2,1.6.6,2,.4.4.8.7,1.4.7s1-.2,1.3-.6c.4-.4.6-1.1.6-2s-.2-1.7-.6-2.1-.8-.7-1.4-.7-1,.2-1.3.7c-.4.4-.5,1.1-.5,2.1Z"/>
    <path class="st0" d="M177,89.3l3.8-9.8h1.4l4,9.8h-1.5l-1.1-3h-4.1l-1.1,3h-1.4ZM179.8,85.3h3.3l-1-2.7c-.3-.8-.5-1.5-.7-2-.1.6-.3,1.2-.5,1.9l-1.1,2.9Z"/>
    <path class="st0" d="M187.4,89.3v-9.8h1.3v9.8h-1.3Z"/>
    <path class="st0" d="M191.2,89.3v-1.4h1.4v1.4c0,.5,0,.9-.3,1.2-.2.3-.5.5-.8.7l-.3-.5c.3-.1.4-.3.6-.5s.2-.5.2-.9h-.7Z"/>
    <path class="st0" d="M203.3,87l1.2.2c-.2.7-.6,1.3-1.1,1.7-.5.4-1.2.6-2,.6s-1.9-.3-2.5-1c-.6-.6-.9-1.5-.9-2.7s.3-2.1.9-2.8,1.4-1,2.4-1,1.7.3,2.3,1c.6.6.9,1.6.9,2.7s0,.2,0,.3h-5.3c0,.8.3,1.4.7,1.8.4.4.9.6,1.5.6s.8-.1,1.1-.3c.3-.2.6-.6.7-1.1ZM199.3,85.1h4c0-.6-.2-1-.5-1.3-.4-.5-.9-.7-1.5-.7s-1,.2-1.4.6c-.4.4-.6.9-.6,1.5Z"/>
    <path class="st0" d="M206,89.3v-7.1h1.1v1c.5-.8,1.3-1.2,2.3-1.2s.8,0,1.2.2c.4.2.6.4.8.6.2.2.3.5.4.9,0,.2,0,.6,0,1.2v4.4h-1.2v-4.3c0-.5,0-.9-.1-1.1,0-.2-.3-.4-.5-.6s-.5-.2-.8-.2c-.5,0-1,.2-1.3.5-.4.3-.6.9-.6,1.8v3.9h-1.2Z"/>
    <path class="st0" d="M213.4,89.9l1.2.2c0,.4.2.6.4.8.3.2.7.3,1.2.3s1-.1,1.3-.3.5-.5.6-.9c0-.2,0-.8,0-1.5-.5.6-1.2.9-2,.9s-1.7-.4-2.3-1.1-.8-1.5-.8-2.5.1-1.3.4-1.9c.2-.6.6-1,1.1-1.3s1-.5,1.6-.5,1.5.3,2.1,1v-.9h1.1v6.1c0,1.1-.1,1.9-.3,2.3-.2.5-.6.8-1.1,1.1-.5.3-1.1.4-1.8.4s-1.5-.2-2-.6c-.5-.4-.8-1-.8-1.7ZM214.4,85.6c0,.9.2,1.6.6,2s.8.6,1.4.6,1-.2,1.4-.6.6-1.1.6-2-.2-1.5-.6-2-.8-.7-1.4-.7-1,.2-1.4.6c-.4.4-.6,1.1-.6,1.9Z"/>
    <path class="st0" d="M221.2,80.9v-1.4h1.2v1.4h-1.2ZM221.2,89.3v-7.1h1.2v7.1h-1.2Z"/>
    <path class="st0" d="M224.2,89.3v-7.1h1.1v1c.5-.8,1.3-1.2,2.3-1.2s.8,0,1.2.2c.4.2.6.4.8.6.2.2.3.5.4.9,0,.2,0,.6,0,1.2v4.4h-1.2v-4.3c0-.5,0-.9-.1-1.1,0-.2-.3-.4-.5-.6s-.5-.2-.8-.2c-.5,0-1,.2-1.3.5-.4.3-.6.9-.6,1.8v3.9h-1.2Z"/>
    <path class="st0" d="M236.7,87l1.2.2c-.2.7-.6,1.3-1.1,1.7-.5.4-1.2.6-2,.6s-1.9-.3-2.5-1c-.6-.6-.9-1.5-.9-2.7s.3-2.1.9-2.8,1.4-1,2.4-1,1.7.3,2.3,1c.6.6.9,1.6.9,2.7s0,.2,0,.3h-5.3c0,.8.3,1.4.7,1.8.4.4.9.6,1.5.6s.8-.1,1.1-.3c.3-.2.6-.6.7-1.1ZM232.7,85.1h4c0-.6-.2-1-.5-1.3-.4-.5-.9-.7-1.5-.7s-1,.2-1.4.6c-.4.4-.6.9-.6,1.5Z"/>
    <path class="st0" d="M244.3,87l1.2.2c-.2.7-.6,1.3-1.1,1.7-.5.4-1.2.6-2,.6s-1.9-.3-2.5-1c-.6-.6-.9-1.5-.9-2.7s.3-2.1.9-2.8,1.4-1,2.4-1,1.7.3,2.3,1c.6.6.9,1.6.9,2.7s0,.2,0,.3h-5.3c0,.8.3,1.4.7,1.8.4.4.9.6,1.5.6s.8-.1,1.1-.3c.3-.2.6-.6.7-1.1ZM240.3,85.1h4c0-.6-.2-1-.5-1.3-.4-.5-.9-.7-1.5-.7s-1,.2-1.4.6c-.4.4-.6.9-.6,1.5Z"/>
    <path class="st0" d="M247,89.3v-7.1h1.1v1.1c.3-.5.5-.8.8-1,.2-.2.5-.2.8-.2.4,0,.8.1,1.2.4l-.4,1.1c-.3-.2-.6-.3-.9-.3s-.5,0-.7.2-.4.4-.4.7c-.1.4-.2.9-.2,1.4v3.7h-1.2Z"/>
    <path class="st0" d="M256.4,87l1.2.2c-.2.7-.6,1.3-1.1,1.7-.5.4-1.2.6-2,.6s-1.9-.3-2.5-1c-.6-.6-.9-1.5-.9-2.7s.3-2.1.9-2.8,1.4-1,2.4-1,1.7.3,2.3,1c.6.6.9,1.6.9,2.7s0,.2,0,.3h-5.3c0,.8.3,1.4.7,1.8.4.4.9.6,1.5.6s.8-.1,1.1-.3c.3-.2.6-.6.7-1.1ZM252.5,85.1h4c0-.6-.2-1-.5-1.3-.4-.5-.9-.7-1.5-.7s-1,.2-1.4.6c-.4.4-.6.9-.6,1.5Z"/>
    <path class="st0" d="M263.8,89.3v-.9c-.4.7-1.1,1.1-2,1.1s-1.1-.2-1.6-.5c-.5-.3-.8-.7-1.1-1.3-.3-.6-.4-1.2-.4-1.9s.1-1.3.4-1.9c.2-.6.6-1,1.1-1.3.5-.3,1-.5,1.6-.5s.8,0,1.1.3c.3.2.6.4.8.7v-3.5h1.2v9.8h-1.1ZM260,85.8c0,.9.2,1.6.6,2,.4.4.8.7,1.4.7s1-.2,1.3-.6c.4-.4.6-1.1.6-2s-.2-1.7-.6-2.1-.8-.7-1.4-.7-1,.2-1.3.7c-.4.4-.5,1.1-.5,2.1Z"/>
    <path class="st0" d="M270.8,89.3v-6.1h-1.1v-.9h1.1v-.8c0-.5,0-.8.1-1.1.1-.3.3-.6.6-.8.3-.2.7-.3,1.2-.3s.7,0,1.1.1l-.2,1c-.2,0-.5,0-.7,0-.4,0-.6,0-.8.2-.2.2-.2.4-.2.9v.7h1.4v.9h-1.4v6.1h-1.2Z"/>
    <path class="st0" d="M273.9,85.8c0-1.3.4-2.3,1.1-2.9.6-.5,1.4-.8,2.2-.8s1.8.3,2.4,1,.9,1.5.9,2.6-.1,1.6-.4,2.1c-.3.5-.7.9-1.2,1.2-.5.3-1.1.4-1.7.4-1,0-1.8-.3-2.4-1-.6-.6-.9-1.6-.9-2.7ZM275.1,85.8c0,.9.2,1.6.6,2s.9.7,1.5.7,1.1-.2,1.5-.7c.4-.5.6-1.1.6-2.1s-.2-1.5-.6-2-.9-.7-1.5-.7-1.1.2-1.5.7-.6,1.1-.6,2Z"/>
    <path class="st0" d="M281.9,89.3v-7.1h1.1v1.1c.3-.5.5-.8.8-1,.2-.2.5-.2.8-.2.4,0,.8.1,1.2.4l-.4,1.1c-.3-.2-.6-.3-.9-.3s-.5,0-.7.2-.4.4-.4.7c-.1.4-.2.9-.2,1.4v3.7h-1.2Z"/>
    <path class="st0" d="M290.3,80.9v-1.4h1.2v1.4h-1.2ZM290.3,89.3v-7.1h1.2v7.1h-1.2Z"/>
    <path class="st0" d="M293.3,89.3v-7.1h1.1v1c.2-.3.5-.6.9-.8.4-.2.8-.3,1.3-.3s1,.1,1.3.3c.3.2.6.5.7.9.6-.8,1.3-1.2,2.2-1.2s1.2.2,1.6.6c.4.4.6,1,.6,1.8v4.9h-1.2v-4.5c0-.5,0-.8-.1-1s-.2-.4-.4-.5c-.2-.1-.4-.2-.7-.2-.5,0-.9.2-1.2.5s-.5.9-.5,1.6v4.1h-1.2v-4.6c0-.5,0-.9-.3-1.2s-.5-.4-1-.4-.7,0-.9.3c-.3.2-.5.4-.6.8-.1.3-.2.8-.2,1.5v3.7h-1.2Z"/>
    <path class="st0" d="M304.7,92v-9.8h1.1v.9c.3-.4.5-.6.9-.8.3-.2.7-.3,1.2-.3s1.1.2,1.6.5c.5.3.8.7,1,1.3.2.6.4,1.2.4,1.9s-.1,1.4-.4,2c-.3.6-.6,1-1.1,1.3s-1,.5-1.6.5-.8,0-1.1-.3-.6-.4-.8-.6v3.4h-1.2ZM305.8,85.8c0,.9.2,1.6.6,2,.4.4.8.7,1.3.7s1-.2,1.4-.7c.4-.5.6-1.1.6-2.1s-.2-1.6-.6-2-.8-.7-1.3-.7-1,.2-1.4.7c-.4.5-.6,1.2-.6,2.1Z"/>
    <path class="st0" d="M316.9,88.4c-.4.4-.9.6-1.3.8-.4.2-.9.2-1.3.2-.8,0-1.4-.2-1.8-.6-.4-.4-.6-.9-.6-1.5s0-.7.2-.9c.2-.3.4-.5.6-.7s.5-.3.9-.4c.2,0,.6-.1,1.1-.2,1-.1,1.7-.3,2.1-.4,0-.2,0-.3,0-.3,0-.5-.1-.8-.3-1-.3-.3-.8-.4-1.4-.4s-1,0-1.3.3-.5.5-.6,1l-1.2-.2c.1-.5.3-.9.5-1.2s.6-.5,1.1-.7c.5-.2,1-.3,1.6-.3s1.1,0,1.5.2c.4.1.7.3.8.5s.3.5.4.8c0,.2,0,.6,0,1.1v1.6c0,1.1,0,1.8,0,2.1s.2.6.3.9h-1.3c-.1-.2-.2-.5-.2-.9ZM316.8,85.8c-.4.2-1.1.3-2,.5-.5,0-.8.2-1,.2-.2,0-.4.2-.5.4-.1.2-.2.4-.2.6,0,.3.1.6.4.8s.6.3,1.1.3.9-.1,1.2-.3c.4-.2.6-.5.8-.8.1-.3.2-.7.2-1.2v-.4Z"/>
    <path class="st0" d="M324.5,86.7l1.2.2c-.1.8-.5,1.5-1,1.9-.5.5-1.2.7-2,.7s-1.7-.3-2.3-.9c-.6-.6-.9-1.5-.9-2.7s.1-1.4.4-2c.3-.6.6-1,1.2-1.3.5-.3,1.1-.4,1.7-.4s1.4.2,1.9.6c.5.4.8.9.9,1.7l-1.2.2c-.1-.5-.3-.8-.6-1.1s-.6-.4-1-.4c-.6,0-1.1.2-1.5.7-.4.4-.6,1.1-.6,2.1s.2,1.6.5,2.1c.4.4.8.6,1.4.6s.9-.1,1.2-.4c.3-.3.5-.7.6-1.3Z"/>
    <path class="st0" d="M329.3,88.2l.2,1.1c-.3,0-.6.1-.9.1-.4,0-.8,0-1-.2-.2-.1-.4-.3-.5-.5s-.1-.7-.1-1.4v-4.1h-.9v-.9h.9v-1.8l1.2-.7v2.5h1.2v.9h-1.2v4.1c0,.3,0,.6,0,.7s.1.2.2.2c0,0,.2,0,.4,0s.3,0,.5,0Z"/>
  </g>
</svg>