<svg width="640" height="360" viewBox="0 0 640 360" fill="none" xmlns="http://www.w3.org/2000/svg">
<g clip-path="url(#clip0_97_2282)">
<path d="M640 0H0V360H640V0Z" fill="black"/>
<g clip-path="url(#clip1_97_2282)">
<path d="M436.111 141.238C435.971 141.238 435.844 141.191 435.731 141.098C435.618 141.011 435.521 140.871 435.441 140.678C435.188 140.078 434.871 139.415 434.491 138.688C434.118 137.961 433.734 137.281 433.341 136.648C432.748 137.308 432.204 137.971 431.711 138.638C431.224 139.298 430.874 139.841 430.661 140.268C430.534 140.521 430.404 140.705 430.271 140.818C430.138 140.931 429.978 140.988 429.791 140.988C429.518 140.988 429.334 140.871 429.241 140.638C429.154 140.398 429.184 140.098 429.331 139.738C429.444 139.458 429.638 139.115 429.911 138.708C430.191 138.301 430.548 137.828 430.981 137.288C431.421 136.741 431.948 136.125 432.561 135.438C432.001 134.598 431.544 133.965 431.191 133.538C430.844 133.105 430.508 132.761 430.181 132.508C430.068 132.421 429.978 132.325 429.911 132.218C429.851 132.105 429.821 131.991 429.821 131.878C429.821 131.705 429.884 131.561 430.011 131.448C430.138 131.328 430.298 131.268 430.491 131.268C430.604 131.268 430.711 131.288 430.811 131.328C430.918 131.368 431.058 131.451 431.231 131.578C431.564 131.818 431.931 132.175 432.331 132.648C432.738 133.121 433.171 133.701 433.631 134.388C434.151 133.828 434.628 133.331 435.061 132.898C435.501 132.465 435.924 132.068 436.331 131.708C436.531 131.528 436.738 131.438 436.951 131.438C437.144 131.438 437.311 131.505 437.451 131.638C437.591 131.765 437.661 131.921 437.661 132.108C437.661 132.315 437.584 132.491 437.431 132.638C436.891 133.131 436.378 133.618 435.891 134.098C435.411 134.571 434.921 135.075 434.421 135.608C434.948 136.461 435.404 137.298 435.791 138.118C436.178 138.938 436.441 139.628 436.581 140.188C436.654 140.501 436.644 140.755 436.551 140.948C436.464 141.141 436.318 141.238 436.111 141.238ZM438.892 136.618C438.639 136.618 438.436 136.561 438.282 136.448C438.129 136.328 438.052 136.165 438.052 135.958C438.052 135.785 438.109 135.635 438.222 135.508C438.336 135.381 438.492 135.308 438.692 135.288C438.926 135.261 439.262 135.238 439.702 135.218C440.142 135.191 440.602 135.171 441.082 135.158C441.562 135.138 442.002 135.128 442.402 135.128C442.536 135.128 442.679 135.131 442.832 135.138C442.986 135.138 443.156 135.141 443.342 135.148C443.529 135.155 443.679 135.211 443.792 135.318C443.906 135.425 443.962 135.565 443.962 135.738C443.962 135.878 443.919 136.005 443.832 136.118C443.752 136.225 443.632 136.291 443.472 136.318C443.292 136.345 443.056 136.371 442.762 136.398C442.469 136.425 441.919 136.465 441.112 136.518C440.646 136.545 440.206 136.568 439.792 136.588C439.386 136.608 439.086 136.618 438.892 136.618ZM447.846 140.738C447.033 140.738 446.416 140.461 445.996 139.908C445.576 139.348 445.403 138.571 445.476 137.578C445.536 136.831 445.719 136.078 446.026 135.318C446.333 134.551 446.733 133.875 447.226 133.288C447.726 132.695 448.283 132.241 448.896 131.928C449.509 131.615 450.159 131.458 450.846 131.458C451.166 131.458 451.496 131.495 451.836 131.568C452.176 131.635 452.479 131.728 452.746 131.848C452.833 131.801 452.939 131.778 453.066 131.778C453.286 131.778 453.449 131.845 453.556 131.978C453.669 132.111 453.726 132.328 453.726 132.628C453.726 133.128 453.553 133.958 453.206 135.118C453.133 135.551 453.076 135.991 453.036 136.438C453.003 136.885 452.986 137.325 452.986 137.758C452.986 138.185 452.999 138.498 453.026 138.698C453.053 138.891 453.096 139.045 453.156 139.158C453.203 139.251 453.296 139.338 453.436 139.418C453.583 139.491 453.686 139.548 453.746 139.588C453.913 139.708 453.996 139.861 453.996 140.048C453.996 140.235 453.923 140.395 453.776 140.528C453.629 140.661 453.436 140.728 453.196 140.728C452.963 140.728 452.733 140.661 452.506 140.528C452.286 140.395 452.109 140.225 451.976 140.018C451.849 139.811 451.749 139.551 451.676 139.238C451.603 138.918 451.566 138.558 451.566 138.158C451.566 138.011 451.569 137.898 451.576 137.818C451.063 138.798 450.499 139.531 449.886 140.018C449.279 140.498 448.599 140.738 447.846 140.738ZM448.156 139.388C448.589 139.388 449.016 139.208 449.436 138.848C449.856 138.481 450.273 137.921 450.686 137.168C451.099 136.408 451.506 135.448 451.906 134.288C451.953 133.981 451.996 133.721 452.036 133.508C452.083 133.288 452.126 133.095 452.166 132.928C451.673 132.768 451.226 132.688 450.826 132.688C450.359 132.688 449.913 132.801 449.486 133.028C449.066 133.248 448.676 133.578 448.316 134.018C447.956 134.458 447.653 134.978 447.406 135.578C447.159 136.178 447.006 136.761 446.946 137.328C446.879 137.955 446.953 138.455 447.166 138.828C447.379 139.201 447.709 139.388 448.156 139.388ZM462.244 141.238C462.104 141.238 461.977 141.191 461.864 141.098C461.75 141.011 461.654 140.871 461.574 140.678C461.32 140.078 461.004 139.415 460.624 138.688C460.25 137.961 459.867 137.281 459.474 136.648C458.88 137.308 458.337 137.971 457.844 138.638C457.357 139.298 457.007 139.841 456.794 140.268C456.667 140.521 456.537 140.705 456.404 140.818C456.27 140.931 456.11 140.988 455.924 140.988C455.65 140.988 455.467 140.871 455.374 140.638C455.287 140.398 455.317 140.098 455.464 139.738C455.577 139.458 455.77 139.115 456.044 138.708C456.324 138.301 456.68 137.828 457.114 137.288C457.554 136.741 458.08 136.125 458.694 135.438C458.134 134.598 457.677 133.965 457.324 133.538C456.977 133.105 456.64 132.761 456.314 132.508C456.2 132.421 456.11 132.325 456.044 132.218C455.984 132.105 455.954 131.991 455.954 131.878C455.954 131.705 456.017 131.561 456.144 131.448C456.27 131.328 456.43 131.268 456.624 131.268C456.737 131.268 456.844 131.288 456.944 131.328C457.05 131.368 457.19 131.451 457.364 131.578C457.697 131.818 458.064 132.175 458.464 132.648C458.87 133.121 459.304 133.701 459.764 134.388C460.284 133.828 460.76 133.331 461.194 132.898C461.634 132.465 462.057 132.068 462.464 131.708C462.664 131.528 462.87 131.438 463.084 131.438C463.277 131.438 463.444 131.505 463.584 131.638C463.724 131.765 463.794 131.921 463.794 132.108C463.794 132.315 463.717 132.491 463.564 132.638C463.024 133.131 462.51 133.618 462.024 134.098C461.544 134.571 461.054 135.075 460.554 135.608C461.08 136.461 461.537 137.298 461.924 138.118C462.31 138.938 462.574 139.628 462.714 140.188C462.787 140.501 462.777 140.755 462.684 140.948C462.597 141.141 462.45 141.238 462.244 141.238ZM466.265 140.898C466.025 140.898 465.835 140.828 465.695 140.688C465.555 140.548 465.485 140.351 465.485 140.098C465.492 139.838 465.509 139.505 465.535 139.098C465.569 138.691 465.669 137.631 465.835 135.918C465.902 135.258 465.962 134.588 466.015 133.908C466.069 133.228 466.112 132.611 466.145 132.058C466.165 131.765 466.232 131.548 466.345 131.408C466.465 131.268 466.642 131.198 466.875 131.198C467.109 131.198 467.292 131.268 467.425 131.408C467.559 131.548 467.625 131.735 467.625 131.968C467.619 132.341 467.579 132.918 467.505 133.698C467.439 134.478 467.372 135.235 467.305 135.968C467.279 136.301 467.212 136.931 467.105 137.858C467.005 138.778 466.945 139.468 466.925 139.928C466.985 140.208 466.952 140.441 466.825 140.628C466.699 140.808 466.512 140.898 466.265 140.898ZM467.085 129.418C466.805 129.418 466.555 129.335 466.335 129.168C466.122 129.001 466.015 128.801 466.015 128.568C466.015 128.275 466.125 128.038 466.345 127.858C466.572 127.671 466.859 127.578 467.205 127.578C467.512 127.578 467.752 127.661 467.925 127.828C468.105 127.995 468.195 128.225 468.195 128.518C468.195 128.778 468.085 128.995 467.865 129.168C467.652 129.335 467.392 129.418 467.085 129.418ZM472.497 141.068C471.624 141.068 470.877 140.868 470.257 140.468C469.637 140.068 469.264 139.545 469.137 138.898C469.077 138.591 469.137 138.351 469.317 138.178C469.497 138.005 469.714 137.951 469.967 138.018C470.221 138.078 470.381 138.245 470.447 138.518C470.541 138.905 470.767 139.208 471.127 139.428C471.494 139.648 471.947 139.758 472.487 139.758C473.461 139.758 473.947 139.415 473.947 138.728C473.947 138.495 473.817 138.221 473.557 137.908C473.304 137.588 472.877 137.195 472.277 136.728C471.564 136.161 471.051 135.645 470.737 135.178C470.424 134.711 470.267 134.235 470.267 133.748C470.267 133.455 470.324 133.168 470.437 132.888C470.557 132.601 470.734 132.335 470.967 132.088C471.287 131.748 471.687 131.481 472.167 131.288C472.647 131.088 473.154 130.988 473.687 130.988C474.234 130.988 474.744 131.088 475.217 131.288C475.697 131.481 476.071 131.751 476.337 132.098C476.504 132.318 476.551 132.535 476.477 132.748C476.411 132.961 476.257 133.091 476.017 133.138C475.784 133.178 475.554 133.105 475.327 132.918C475.067 132.705 474.807 132.551 474.547 132.458C474.287 132.358 474.004 132.308 473.697 132.308C473.037 132.308 472.514 132.518 472.127 132.938C471.887 133.191 471.767 133.455 471.767 133.728C471.767 133.968 471.884 134.235 472.117 134.528C472.351 134.821 472.771 135.208 473.377 135.688C474.157 136.308 474.701 136.845 475.007 137.298C475.321 137.751 475.477 138.208 475.477 138.668C475.477 139.388 475.204 139.968 474.657 140.408C474.111 140.848 473.391 141.068 472.497 141.068Z" fill="white"/>
<path d="M241.945 79.899C241.772 79.899 241.622 79.8457 241.495 79.739C241.375 79.6323 241.315 79.499 241.315 79.339C241.315 79.2323 241.349 79.1257 241.415 79.019C241.489 78.9123 241.599 78.7957 241.745 78.669C242.305 78.2023 242.805 77.7323 243.245 77.259C243.685 76.7923 244.149 76.2257 244.635 75.559C243.989 74.4523 243.462 73.2223 243.055 71.869C242.649 70.5157 242.369 69.059 242.215 67.499C242.182 67.159 242.225 66.8957 242.345 66.709C242.465 66.5223 242.652 66.429 242.905 66.429C243.125 66.429 243.302 66.4957 243.435 66.629C243.569 66.7623 243.649 66.959 243.675 67.219C243.829 68.6457 244.059 69.9323 244.365 71.079C244.679 72.219 245.085 73.2957 245.585 74.309C246.305 73.209 246.955 72.019 247.535 70.739C248.115 69.459 248.565 68.2223 248.885 67.029C248.945 66.7957 249.039 66.6223 249.165 66.509C249.299 66.389 249.462 66.329 249.655 66.329C249.915 66.329 250.112 66.429 250.245 66.629C250.379 66.8223 250.412 67.079 250.345 67.399C250.185 68.1323 249.919 68.9657 249.545 69.899C249.179 70.8257 248.732 71.7757 248.205 72.749C247.685 73.7223 247.145 74.609 246.585 75.409C245.112 77.5157 243.709 78.969 242.375 79.769C242.222 79.8557 242.079 79.899 241.945 79.899ZM252.1 71.659C251.847 71.659 251.644 71.6023 251.49 71.489C251.337 71.369 251.26 71.2057 251.26 70.999C251.26 70.8257 251.317 70.6757 251.43 70.549C251.544 70.4223 251.7 70.349 251.9 70.329C252.134 70.3023 252.47 70.279 252.91 70.259C253.35 70.2323 253.81 70.2123 254.29 70.199C254.77 70.179 255.21 70.169 255.61 70.169C255.744 70.169 255.887 70.1723 256.04 70.179C256.194 70.179 256.364 70.1823 256.55 70.189C256.737 70.1957 256.887 70.2523 257 70.359C257.114 70.4657 257.17 70.6057 257.17 70.779C257.17 70.919 257.127 71.0457 257.04 71.159C256.96 71.2657 256.84 71.3323 256.68 71.359C256.5 71.3857 256.264 71.4123 255.97 71.439C255.677 71.4657 255.127 71.5057 254.32 71.559C253.854 71.5857 253.414 71.609 253 71.629C252.594 71.649 252.294 71.659 252.1 71.659ZM261.054 75.779C260.241 75.779 259.624 75.5023 259.204 74.949C258.784 74.389 258.611 73.6123 258.684 72.619C258.744 71.8723 258.927 71.119 259.234 70.359C259.541 69.5923 259.941 68.9157 260.434 68.329C260.934 67.7357 261.491 67.2823 262.104 66.969C262.717 66.6557 263.367 66.499 264.054 66.499C264.374 66.499 264.704 66.5357 265.044 66.609C265.384 66.6757 265.687 66.769 265.954 66.889C266.041 66.8423 266.147 66.819 266.274 66.819C266.494 66.819 266.657 66.8857 266.764 67.019C266.877 67.1523 266.934 67.369 266.934 67.669C266.934 68.169 266.761 68.999 266.414 70.159C266.341 70.5923 266.284 71.0323 266.244 71.479C266.211 71.9257 266.194 72.3657 266.194 72.799C266.194 73.2257 266.207 73.539 266.234 73.739C266.261 73.9323 266.304 74.0857 266.364 74.199C266.411 74.2923 266.504 74.379 266.644 74.459C266.791 74.5323 266.894 74.589 266.954 74.629C267.121 74.749 267.204 74.9023 267.204 75.089C267.204 75.2757 267.131 75.4357 266.984 75.569C266.837 75.7023 266.644 75.769 266.404 75.769C266.171 75.769 265.941 75.7023 265.714 75.569C265.494 75.4357 265.317 75.2657 265.184 75.059C265.057 74.8523 264.957 74.5923 264.884 74.279C264.811 73.959 264.774 73.599 264.774 73.199C264.774 73.0523 264.777 72.939 264.784 72.859C264.271 73.839 263.707 74.5723 263.094 75.059C262.487 75.539 261.807 75.779 261.054 75.779ZM261.364 74.429C261.797 74.429 262.224 74.249 262.644 73.889C263.064 73.5223 263.481 72.9623 263.894 72.209C264.307 71.449 264.714 70.489 265.114 69.329C265.161 69.0223 265.204 68.7623 265.244 68.549C265.291 68.329 265.334 68.1357 265.374 67.969C264.881 67.809 264.434 67.729 264.034 67.729C263.567 67.729 263.121 67.8423 262.694 68.069C262.274 68.289 261.884 68.619 261.524 69.059C261.164 69.499 260.861 70.019 260.614 70.619C260.367 71.219 260.214 71.8023 260.154 72.369C260.087 72.9957 260.161 73.4957 260.374 73.869C260.587 74.2423 260.917 74.429 261.364 74.429ZM275.452 76.279C275.312 76.279 275.185 76.2323 275.072 76.139C274.958 76.0523 274.862 75.9123 274.782 75.719C274.528 75.119 274.212 74.4557 273.832 73.729C273.458 73.0023 273.075 72.3223 272.682 71.689C272.088 72.349 271.545 73.0123 271.052 73.679C270.565 74.339 270.215 74.8823 270.002 75.309C269.875 75.5623 269.745 75.7457 269.612 75.859C269.478 75.9723 269.318 76.029 269.132 76.029C268.858 76.029 268.675 75.9123 268.582 75.679C268.495 75.439 268.525 75.139 268.672 74.779C268.785 74.499 268.978 74.1557 269.252 73.749C269.532 73.3423 269.888 72.869 270.322 72.329C270.762 71.7823 271.288 71.1657 271.902 70.479C271.342 69.639 270.885 69.0057 270.532 68.579C270.185 68.1457 269.848 67.8023 269.522 67.549C269.408 67.4623 269.318 67.3657 269.252 67.259C269.192 67.1457 269.162 67.0323 269.162 66.919C269.162 66.7457 269.225 66.6023 269.352 66.489C269.478 66.369 269.638 66.309 269.832 66.309C269.945 66.309 270.052 66.329 270.152 66.369C270.258 66.409 270.398 66.4923 270.572 66.619C270.905 66.859 271.272 67.2157 271.672 67.689C272.078 68.1623 272.512 68.7423 272.972 69.429C273.492 68.869 273.968 68.3723 274.402 67.939C274.842 67.5057 275.265 67.109 275.672 66.749C275.872 66.569 276.078 66.479 276.292 66.479C276.485 66.479 276.652 66.5457 276.792 66.679C276.932 66.8057 277.002 66.9623 277.002 67.149C277.002 67.3557 276.925 67.5323 276.772 67.679C276.232 68.1723 275.718 68.659 275.232 69.139C274.752 69.6123 274.262 70.1157 273.762 70.649C274.288 71.5023 274.745 72.339 275.132 73.159C275.518 73.979 275.782 74.669 275.922 75.229C275.995 75.5423 275.985 75.7957 275.892 75.989C275.805 76.1823 275.658 76.279 275.452 76.279ZM279.473 75.939C279.233 75.939 279.043 75.869 278.903 75.729C278.763 75.589 278.693 75.3923 278.693 75.139C278.7 74.879 278.717 74.5457 278.743 74.139C278.777 73.7323 278.877 72.6723 279.043 70.959C279.11 70.299 279.17 69.629 279.223 68.949C279.277 68.269 279.32 67.6523 279.353 67.099C279.373 66.8057 279.44 66.589 279.553 66.449C279.673 66.309 279.85 66.239 280.083 66.239C280.317 66.239 280.5 66.309 280.633 66.449C280.767 66.589 280.833 66.7757 280.833 67.009C280.827 67.3823 280.787 67.959 280.713 68.739C280.647 69.519 280.58 70.2757 280.513 71.009C280.487 71.3423 280.42 71.9723 280.313 72.899C280.213 73.819 280.153 74.509 280.133 74.969C280.193 75.249 280.16 75.4823 280.033 75.669C279.907 75.849 279.72 75.939 279.473 75.939ZM280.293 64.459C280.013 64.459 279.763 64.3757 279.543 64.209C279.33 64.0423 279.223 63.8423 279.223 63.609C279.223 63.3157 279.333 63.079 279.553 62.899C279.78 62.7123 280.067 62.619 280.413 62.619C280.72 62.619 280.96 62.7023 281.133 62.869C281.313 63.0357 281.403 63.2657 281.403 63.559C281.403 63.819 281.293 64.0357 281.073 64.209C280.86 64.3757 280.6 64.459 280.293 64.459ZM285.705 76.109C284.832 76.109 284.085 75.909 283.465 75.509C282.845 75.109 282.472 74.5857 282.345 73.939C282.285 73.6323 282.345 73.3923 282.525 73.219C282.705 73.0457 282.922 72.9923 283.175 73.059C283.428 73.119 283.588 73.2857 283.655 73.559C283.748 73.9457 283.975 74.249 284.335 74.469C284.702 74.689 285.155 74.799 285.695 74.799C286.668 74.799 287.155 74.4557 287.155 73.769C287.155 73.5357 287.025 73.2623 286.765 72.949C286.512 72.629 286.085 72.2357 285.485 71.769C284.772 71.2023 284.258 70.6857 283.945 70.219C283.632 69.7523 283.475 69.2757 283.475 68.789C283.475 68.4957 283.532 68.209 283.645 67.929C283.765 67.6423 283.942 67.3757 284.175 67.129C284.495 66.789 284.895 66.5223 285.375 66.329C285.855 66.129 286.362 66.029 286.895 66.029C287.442 66.029 287.952 66.129 288.425 66.329C288.905 66.5223 289.278 66.7923 289.545 67.139C289.712 67.359 289.758 67.5757 289.685 67.789C289.618 68.0023 289.465 68.1323 289.225 68.179C288.992 68.219 288.762 68.1457 288.535 67.959C288.275 67.7457 288.015 67.5923 287.755 67.499C287.495 67.399 287.212 67.349 286.905 67.349C286.245 67.349 285.722 67.559 285.335 67.979C285.095 68.2323 284.975 68.4957 284.975 68.769C284.975 69.009 285.092 69.2757 285.325 69.569C285.558 69.8623 285.978 70.249 286.585 70.729C287.365 71.349 287.908 71.8857 288.215 72.339C288.528 72.7923 288.685 73.249 288.685 73.709C288.685 74.429 288.412 75.009 287.865 75.449C287.318 75.889 286.598 76.109 285.705 76.109Z" fill="white"/>
<path d="M412.484 141.417C412.892 141.346 413.165 140.958 413.095 140.55C413.024 140.142 412.636 139.868 412.228 139.939L412.484 141.417ZM379.919 169.597C380.203 169.899 380.678 169.913 380.979 169.629L385.895 165.003C386.196 164.719 386.211 164.244 385.927 163.943C385.643 163.641 385.168 163.627 384.867 163.911L380.497 168.023L376.385 163.654C376.101 163.352 375.627 163.338 375.325 163.622C375.023 163.905 375.009 164.38 375.293 164.682L379.919 169.597ZM412.228 139.939C386.917 144.322 379.959 161.042 379.716 169.06L381.215 169.106C381.437 161.789 387.885 145.677 412.484 141.417L412.228 139.939Z" fill="white"/>
<path d="M268.142 88.5197C268.043 88.1175 267.637 87.8719 267.235 87.9711C266.832 88.0702 266.587 88.4766 266.686 88.8788L268.142 88.5197ZM298.538 119.026C298.819 118.722 298.8 118.247 298.496 117.966L293.536 113.388C293.232 113.107 292.757 113.126 292.476 113.43C292.195 113.734 292.214 114.209 292.519 114.49L296.927 118.56L292.858 122.968C292.577 123.273 292.596 123.747 292.9 124.028C293.204 124.309 293.679 124.29 293.96 123.986L298.538 119.026ZM266.686 88.8788C272.835 113.819 290.001 119.587 298.017 119.267L297.957 117.768C290.643 118.06 274.118 112.759 268.142 88.5197L266.686 88.8788Z" fill="white"/>
</g>
<path d="M4 180H636" stroke="#F0F0F0" stroke-width="1.5"/>
<path d="M320 4V356" stroke="#F0F0F0" stroke-width="1.5"/>
<path d="M625 173.25L640 180L625 186.75L628 180L625 173.25Z" fill="#F0F0F0"/>
<path d="M326.75 345L320 360L313.25 345L320 348L326.75 345Z" fill="#F0F0F0"/>
<path d="M15 186.75L0 180L15 173.25L12 180L15 186.75Z" fill="#F0F0F0"/>
<path d="M313.25 15L320 0L326.75 15L320 12L313.25 15Z" fill="#F0F0F0"/>
</g>
<defs>
<clipPath id="clip0_97_2282">
<rect width="640" height="360" fill="white"/>
</clipPath>
<clipPath id="clip1_97_2282">
<rect width="640" height="360" fill="white"/>
</clipPath>
</defs>
</svg>
