<svg width="640" height="540" viewBox="0 0 640 540" fill="none" xmlns="http://www.w3.org/2000/svg">
<g clip-path="url(#clip0_1582_230)">
<path d="M640 0H0V540H640V0Z" fill="black"/>
<path d="M135.874 310.696H118.26V325.64H135.874V310.696Z" fill="black"/>
<g clip-path="url(#clip1_1582_230)">
<path d="M122.592 317.707C122.684 317.156 123.038 316.52 123.655 315.798C124.271 315.077 125.032 314.709 125.938 314.696C126.397 314.696 126.817 314.814 127.197 315.05C127.578 315.287 127.86 315.582 128.044 315.936C128.595 315.109 129.257 314.696 130.031 314.696C130.517 314.696 130.937 314.84 131.291 315.129C131.645 315.418 131.829 315.805 131.842 316.29C131.842 316.671 131.75 316.979 131.567 317.215C131.383 317.452 131.206 317.596 131.035 317.648C130.865 317.701 130.714 317.727 130.583 317.727C130.333 317.727 130.13 317.655 129.972 317.511C129.815 317.366 129.736 317.176 129.736 316.94C129.736 316.336 130.064 315.923 130.72 315.7C130.576 315.529 130.314 315.444 129.933 315.444C129.763 315.444 129.638 315.457 129.559 315.483C129.061 315.693 128.693 316.126 128.457 316.782C127.67 319.682 127.276 321.375 127.276 321.86C127.276 322.228 127.381 322.49 127.591 322.647C127.801 322.805 128.031 322.884 128.28 322.884C128.765 322.884 129.244 322.667 129.717 322.234C130.189 321.801 130.51 321.27 130.681 320.64C130.72 320.509 130.76 320.437 130.799 320.423C130.838 320.41 130.943 320.397 131.114 320.384H131.193C131.39 320.384 131.488 320.437 131.488 320.542C131.488 320.555 131.475 320.627 131.449 320.758C131.239 321.506 130.832 322.169 130.228 322.746C129.625 323.323 128.923 323.612 128.122 323.612C127.204 323.612 126.509 323.199 126.036 322.372C125.498 323.185 124.882 323.592 124.186 323.592H124.068C123.425 323.592 122.966 323.422 122.69 323.08C122.415 322.739 122.27 322.378 122.257 321.998C122.257 321.578 122.382 321.237 122.631 320.974C122.881 320.712 123.176 320.581 123.517 320.581C124.081 320.581 124.363 320.856 124.363 321.407C124.363 321.67 124.285 321.9 124.127 322.096C123.97 322.293 123.819 322.424 123.674 322.49C123.53 322.556 123.445 322.588 123.419 322.588L123.359 322.608C123.359 322.621 123.399 322.647 123.478 322.687C123.556 322.726 123.661 322.772 123.792 322.825C123.924 322.877 124.048 322.897 124.166 322.884C124.639 322.884 125.046 322.588 125.387 321.998C125.505 321.788 125.656 321.342 125.839 320.66C126.023 319.977 126.207 319.269 126.39 318.534C126.574 317.799 126.679 317.366 126.705 317.235C126.771 316.881 126.804 316.625 126.804 316.467C126.804 316.1 126.705 315.838 126.509 315.68C126.312 315.523 126.089 315.444 125.839 315.444C125.315 315.444 124.822 315.654 124.363 316.074C123.904 316.494 123.583 317.032 123.399 317.688C123.373 317.806 123.34 317.871 123.3 317.885C123.261 317.898 123.156 317.911 122.986 317.924H122.71C122.631 317.845 122.592 317.773 122.592 317.707Z" fill="#92D192"/>
</g>
<path d="M480.732 332.115H463.347V350.892H480.732V332.115Z" fill="black"/>
<g clip-path="url(#clip2_1582_230)">
<path d="M467.346 339.167C467.346 338.983 467.444 338.668 467.641 338.222C467.838 337.776 468.153 337.31 468.586 336.824C469.019 336.338 469.505 336.102 470.043 336.115C470.581 336.115 471.014 336.266 471.342 336.568C471.67 336.87 471.841 337.29 471.854 337.828C471.828 338.077 471.808 338.215 471.795 338.241C471.795 338.281 471.69 338.583 471.48 339.147C471.27 339.711 471.053 340.348 470.83 341.057C470.607 341.765 470.502 342.33 470.515 342.75C470.515 343.314 470.607 343.708 470.791 343.931C470.975 344.154 471.25 344.272 471.618 344.285C471.92 344.285 472.202 344.213 472.464 344.068C472.727 343.924 472.93 343.773 473.075 343.616C473.219 343.458 473.396 343.242 473.606 342.966C473.606 342.953 473.639 342.822 473.705 342.572C473.77 342.323 473.862 341.936 473.98 341.411C474.098 340.886 474.223 340.4 474.354 339.954C474.853 337.986 475.128 336.955 475.181 336.863C475.352 336.509 475.634 336.332 476.027 336.332C476.198 336.332 476.336 336.378 476.441 336.47C476.546 336.562 476.618 336.64 476.657 336.706C476.697 336.772 476.71 336.831 476.697 336.883C476.697 337.054 476.375 338.432 475.732 341.017C475.089 343.603 474.722 345.02 474.63 345.269C474.262 346.359 473.626 347.225 472.72 347.868C471.815 348.511 470.909 348.839 470.004 348.852C469.413 348.852 468.895 348.708 468.448 348.419C468.002 348.13 467.779 347.697 467.779 347.12C467.779 346.831 467.825 346.588 467.917 346.391C468.009 346.195 468.133 346.05 468.291 345.958C468.448 345.866 468.58 345.801 468.685 345.761C468.79 345.722 468.901 345.702 469.019 345.702C469.597 345.702 469.885 345.978 469.885 346.529C469.885 346.792 469.807 347.021 469.649 347.218C469.492 347.415 469.341 347.546 469.196 347.612C469.052 347.678 468.967 347.71 468.941 347.71L468.881 347.73C468.908 347.796 469.032 347.874 469.255 347.966C469.479 348.058 469.702 348.104 469.925 348.104H470.082C470.305 348.104 470.476 348.091 470.594 348.065C471.027 347.947 471.427 347.697 471.795 347.317C472.162 346.936 472.445 346.529 472.641 346.096C472.838 345.663 472.989 345.296 473.094 344.994C473.199 344.692 473.252 344.495 473.252 344.403L473.134 344.482C473.055 344.534 472.93 344.607 472.76 344.698C472.589 344.79 472.418 344.869 472.248 344.935C471.985 345 471.729 345.033 471.48 345.033C470.876 345.033 470.345 344.889 469.885 344.6C469.426 344.311 469.124 343.845 468.98 343.202C468.967 343.11 468.96 342.907 468.96 342.592C468.96 341.844 469.19 340.866 469.649 339.659C470.109 338.451 470.338 337.684 470.338 337.356C470.338 337.342 470.338 337.329 470.338 337.316C470.338 337.198 470.338 337.119 470.338 337.08C470.338 337.041 470.312 336.995 470.259 336.942C470.207 336.89 470.135 336.863 470.043 336.863H469.964C469.662 336.863 469.387 336.988 469.137 337.237C468.888 337.487 468.691 337.756 468.547 338.045C468.402 338.333 468.291 338.609 468.212 338.871C468.133 339.134 468.081 339.278 468.055 339.304C468.028 339.331 467.923 339.344 467.74 339.344H467.464C467.385 339.265 467.346 339.206 467.346 339.167Z" fill="#F2777A"/>
</g>
<path d="M328.096 53.1366H311.546V68.0808H328.096V53.1366Z" fill="black"/>
<g clip-path="url(#clip3_1582_230)">
<path d="M321.685 59.1836C321.554 59.1836 321.206 59.1114 320.642 58.9671C320.078 58.8227 319.665 58.7506 319.402 58.7506C319.14 58.7506 318.917 58.7768 318.733 58.8293C318.549 58.8818 318.398 58.9474 318.28 59.0261C318.162 59.1048 318.083 59.177 318.044 59.2426C318.005 59.3082 317.959 59.3804 317.906 59.4591L317.867 59.5379C317.827 59.5772 317.729 59.5969 317.572 59.5969C317.296 59.5969 317.158 59.5444 317.158 59.4394C317.158 59.3738 317.178 59.282 317.217 59.1639C317.388 58.6521 317.67 58.2126 318.064 57.8452C318.457 57.4778 318.89 57.2547 319.363 57.176C319.52 57.1497 319.632 57.1366 319.697 57.1366C320.025 57.1366 320.321 57.2481 320.583 57.4712C320.845 57.6943 321.095 57.9108 321.331 58.1207C321.567 58.3307 321.816 58.4422 322.079 58.4553C322.368 58.4553 322.656 58.2388 322.945 57.8058C323.234 57.3728 323.385 57.1563 323.398 57.1563C323.411 57.1431 323.509 57.1366 323.693 57.1366H323.949C324.027 57.2153 324.067 57.2678 324.067 57.294C324.067 57.3465 324.034 57.4384 323.968 57.5696C323.903 57.7008 323.811 57.8386 323.693 57.9829C323.575 58.1273 323.463 58.2716 323.358 58.416C323.253 58.5603 323.161 58.685 323.083 58.7899L322.945 58.9671C322.381 59.6363 321.488 60.522 320.268 61.6242C319.048 62.7264 318.293 63.435 318.005 63.7499L317.768 63.9861L318.064 64.0058C318.352 64.0058 318.772 64.078 319.323 64.2223C319.874 64.3667 320.288 64.4388 320.563 64.4388C321.062 64.4388 321.521 64.3142 321.941 64.0649C322.361 63.8155 322.637 63.4875 322.768 63.0807C322.82 62.9626 322.866 62.8905 322.906 62.8642C322.945 62.838 323.043 62.8249 323.201 62.8249C323.45 62.8249 323.575 62.8905 323.575 63.0217C323.575 63.0873 323.568 63.1463 323.555 63.1988C323.332 64.0124 322.899 64.6881 322.256 65.2261C321.613 65.7641 320.97 66.0397 320.327 66.0528C319.986 66.0528 319.684 65.9413 319.422 65.7182C319.159 65.4951 318.903 65.2721 318.654 65.049C318.405 64.8259 318.156 64.7144 317.906 64.7144C317.329 64.7144 316.811 65.108 316.351 65.8953C316.273 66.0003 316.161 66.0528 316.017 66.0528H315.918H315.662C315.584 65.9741 315.544 65.915 315.544 65.8757C315.544 65.6788 315.925 65.1146 316.686 64.183C317.198 63.5925 318.064 62.7396 319.284 61.6242C320.504 60.5089 321.259 59.8003 321.547 59.4985C321.705 59.2885 321.751 59.1836 321.685 59.1836Z" fill="#6AB0F3"/>
</g>
<path opacity="0.2" d="M347.594 205.192L80.1984 256.932" stroke="#F0F0F0" stroke-width="1.5"/>
<path opacity="0.2" d="M364.636 210.836L91.3632 266.434" stroke="#F0F0F0" stroke-width="1.5"/>
<path opacity="0.2" d="M382.795 216.85L103.492 276.756" stroke="#F0F0F0" stroke-width="1.5"/>
<path opacity="0.2" d="M402.184 223.272L116.714 288.009" stroke="#F0F0F0" stroke-width="1.5"/>
<path opacity="0.2" d="M422.932 230.143L131.185 300.324" stroke="#F0F0F0" stroke-width="1.5"/>
<path opacity="0.2" d="M445.188 237.514L147.091 313.861" stroke="#F0F0F0" stroke-width="1.5"/>
<path opacity="0.2" d="M469.121 245.441L164.657 328.81" stroke="#F0F0F0" stroke-width="1.5"/>
<path opacity="0.2" d="M494.93 253.988L184.156 345.404" stroke="#F0F0F0" stroke-width="1.5"/>
<path opacity="0.2" d="M522.844 263.233L205.925 363.93" stroke="#F0F0F0" stroke-width="1.5"/>
<path opacity="0.2" d="M553.13 273.263L230.386 384.748" stroke="#F0F0F0" stroke-width="1.5"/>
<path opacity="0.2" d="M586.106 284.185L258.073 408.31" stroke="#F0F0F0" stroke-width="1.5"/>
<path opacity="0.2" d="M347.594 205.192L586.106 284.185" stroke="#F0F0F0" stroke-width="1.5"/>
<path opacity="0.2" d="M326.421 209.289L563.265 292.827" stroke="#F0F0F0" stroke-width="1.5"/>
<path opacity="0.2" d="M304.245 213.58L538.829 302.074" stroke="#F0F0F0" stroke-width="1.5"/>
<path opacity="0.2" d="M280.994 218.079L512.625 311.989" stroke="#F0F0F0" stroke-width="1.5"/>
<path opacity="0.2" d="M256.587 222.802L484.453 322.649" stroke="#F0F0F0" stroke-width="1.5"/>
<path opacity="0.2" d="M230.936 227.765L454.082 334.141" stroke="#F0F0F0" stroke-width="1.5"/>
<path opacity="0.2" d="M203.942 232.988L421.246 346.566" stroke="#F0F0F0" stroke-width="1.5"/>
<path opacity="0.2" d="M175.499 238.492L385.631 360.043" stroke="#F0F0F0" stroke-width="1.5"/>
<path opacity="0.2" d="M145.486 244.3L346.869 374.71" stroke="#F0F0F0" stroke-width="1.5"/>
<path opacity="0.2" d="M113.769 250.437L304.523 390.733" stroke="#F0F0F0" stroke-width="1.5"/>
<path opacity="0.2" d="M80.1984 256.932L258.073 408.31" stroke="#F0F0F0" stroke-width="1.5"/>
<path d="M428.982 234.697L445.188 237.514L432.332 247.775L433.563 240.491L428.982 234.697Z" fill="#A0A0A0"/>
<path d="M163.297 316.678L147.091 313.861L159.948 303.6L158.716 310.884L163.297 316.678Z" fill="#A0A0A0"/>
<path d="M150.966 312.869L441.313 238.506" stroke="#A0A0A0" stroke-width="1.5"/>
<path d="M241.572 240.313L230.936 227.765L247.381 228.127L241.768 232.929L241.572 240.313Z" fill="#A0A0A0"/>
<path d="M443.446 321.593L454.082 334.141L437.637 333.779L443.25 328.977L443.446 321.593Z" fill="#A0A0A0"/>
<path d="M450.471 332.42L234.547 229.486" stroke="#A0A0A0" stroke-width="1.5"/>
<path d="M325.86 408.879L319.109 423.879L312.36 408.879L319.11 411.879L325.86 408.879Z" fill="#A0A0A0"/>
<path d="M312.378 97.5708L319.129 82.5712L325.878 97.5716L319.128 94.5712L312.378 97.5708Z" fill="#A0A0A0"/>
<path d="M319.129 86.5712L319.109 419.879" stroke="#A0A0A0" stroke-width="1.5"/>
<path d="M314.647 236.306L323.551 234.351" stroke="#A0A0A0" stroke-width="1.5"/>
<path d="M322.404 236.667L315.877 233.998" stroke="#A0A0A0" stroke-width="1.5"/>
<path d="M314.814 304.22L323.378 301.725" stroke="#A0A0A0" stroke-width="1.5"/>
<path d="M322.274 304.678L315.996 301.276" stroke="#A0A0A0" stroke-width="1.5"/>
<path d="M292.218 279.127L286.004 275.879" stroke="#A0A0A0" stroke-width="1.5"/>
<path d="M289.001 272.268L289.181 282.687" stroke="#A0A0A0" stroke-width="1.5"/>
<path d="M350.645 264.017L344.092 261.145" stroke="#A0A0A0" stroke-width="1.5"/>
<path d="M347.429 257.618L347.269 267.498" stroke="#A0A0A0" stroke-width="1.5"/>
<path d="M336.915 281.642L345.813 279.205" stroke="#A0A0A0" stroke-width="1.5"/>
<path d="M341.454 275.141L341.318 285.663" stroke="#A0A0A0" stroke-width="1.5"/>
<path d="M294.343 261.076L302.904 259.017" stroke="#A0A0A0" stroke-width="1.5"/>
<path d="M298.585 255.133L298.699 264.923" stroke="#A0A0A0" stroke-width="1.5"/>
<path d="M314.559 200.28L323.642 198.631" stroke="#A0A0A0" stroke-width="1.5"/>
<path d="M322.474 200.586L315.814 198.332" stroke="#A0A0A0" stroke-width="1.5"/>
<path d="M314.893 336.263L323.297 333.531" stroke="#A0A0A0" stroke-width="1.5"/>
<path d="M322.213 336.765L316.052 333.039" stroke="#A0A0A0" stroke-width="1.5"/>
<path d="M260.105 287.433L254.116 283.968" stroke="#A0A0A0" stroke-width="1.5"/>
<path d="M256.898 280.317L257.282 291.027" stroke="#A0A0A0" stroke-width="1.5"/>
<path d="M377.298 257.124L370.62 254.416" stroke="#A0A0A0" stroke-width="1.5"/>
<path d="M374.091 250.933L373.789 260.564" stroke="#A0A0A0" stroke-width="1.5"/>
<path d="M361.139 293.344L370.198 290.679" stroke="#A0A0A0" stroke-width="1.5"/>
<path d="M365.84 286.522L365.543 297.452" stroke="#A0A0A0" stroke-width="1.5"/>
<path d="M275.538 251.992L283.929 250.089" stroke="#A0A0A0" stroke-width="1.5"/>
<path d="M279.645 246.294L279.857 255.753" stroke="#A0A0A0" stroke-width="1.5"/>
<path d="M314.466 162.76L323.737 161.444" stroke="#A0A0A0" stroke-width="1.5"/>
<path d="M322.545 163.006L315.749 161.204" stroke="#A0A0A0" stroke-width="1.5"/>
<path d="M314.969 367.124L323.219 364.174" stroke="#A0A0A0" stroke-width="1.5"/>
<path d="M322.154 367.666L316.106 363.643" stroke="#A0A0A0" stroke-width="1.5"/>
<path d="M225.795 296.306L220.076 292.602" stroke="#A0A0A0" stroke-width="1.5"/>
<path d="M222.606 288.914L223.223 299.933" stroke="#A0A0A0" stroke-width="1.5"/>
<path d="M402.438 250.622L395.66 248.065" stroke="#A0A0A0" stroke-width="1.5"/>
<path d="M399.243 244.627L398.817 254.02" stroke="#A0A0A0" stroke-width="1.5"/>
<path d="M387.698 306.174L396.91 303.247" stroke="#A0A0A0" stroke-width="1.5"/>
<path d="M392.574 298.999L392.085 310.368" stroke="#A0A0A0" stroke-width="1.5"/>
<path d="M258.139 243.587L266.362 241.823" stroke="#A0A0A0" stroke-width="1.5"/>
<path d="M262.12 238.115L262.414 247.264" stroke="#A0A0A0" stroke-width="1.5"/>
<path d="M314.37 123.652L323.836 122.698" stroke="#A0A0A0" stroke-width="1.5"/>
<path d="M322.62 123.831L315.68 122.523" stroke="#A0A0A0" stroke-width="1.5"/>
<path d="M315.042 396.868L323.143 393.716" stroke="#A0A0A0" stroke-width="1.5"/>
<path d="M322.097 397.446L316.158 393.15" stroke="#A0A0A0" stroke-width="1.5"/>
<path d="M189.054 305.808L183.659 301.84" stroke="#A0A0A0" stroke-width="1.5"/>
<path d="M185.895 298.119L186.777 309.463" stroke="#A0A0A0" stroke-width="1.5"/>
<path d="M426.19 244.479L419.332 242.06" stroke="#A0A0A0" stroke-width="1.5"/>
<path d="M423.012 238.668L422.474 247.834" stroke="#A0A0A0" stroke-width="1.5"/>
<path d="M416.949 320.304L426.299 317.074" stroke="#A0A0A0" stroke-width="1.5"/>
<path d="M422.011 312.738L421.292 324.582" stroke="#A0A0A0" stroke-width="1.5"/>
<path d="M241.995 235.788L250.051 234.149" stroke="#A0A0A0" stroke-width="1.5"/>
<path d="M245.856 230.524L246.221 239.384" stroke="#A0A0A0" stroke-width="1.5"/>
<path opacity="0.4" d="M257.091 285.689L277.989 297.777" stroke="#F0F0F0" stroke-width="1.5"/>
<path opacity="0.4" d="M341.385 280.418L277.989 297.777" stroke="#F0F0F0" stroke-width="1.5"/>
<path opacity="0.4" d="M257.091 285.689L252.99 171.49" stroke="#F0F0F0" stroke-width="1.5"/>
<path opacity="0.4" d="M341.385 280.418L342.835 168.383" stroke="#F0F0F0" stroke-width="1.5"/>
<path opacity="0.4" d="M277.989 297.777L275.136 178.706" stroke="#F0F0F0" stroke-width="1.5"/>
<path opacity="0.4" d="M319.124 162.099L252.99 171.49" stroke="#F0F0F0" stroke-width="1.5"/>
<path opacity="0.4" d="M319.124 162.099L342.835 168.383" stroke="#F0F0F0" stroke-width="1.5"/>
<path opacity="0.4" d="M252.99 171.49L275.136 178.706" stroke="#F0F0F0" stroke-width="1.5"/>
<path opacity="0.4" d="M342.835 168.383L275.136 178.706" stroke="#F0F0F0" stroke-width="1.5"/>
<path d="M275.579 195.149L275.136 178.706L287.736 189.279L280.353 189.512L275.579 195.149Z" fill="#F0F0F0"/>
<path d="M319.118 269.802L276.875 182.308" stroke="#F0F0F0" stroke-width="1.5"/>
<path d="M275.753 83.6248H235.392V164.653H275.753V83.6248Z" fill="black"/>
<g clip-path="url(#clip4_1582_230)">
<path d="M239.373 123.034V87.6248H246.203V89.2781H241.026V123.034H239.373Z" fill="#F0F0F0"/>
<path d="M239.373 162.419V127.01H241.026V160.765H246.203V162.419H239.373Z" fill="#F0F0F0"/>
<g clip-path="url(#clip5_1582_230)">
<path d="M239.373 130.956V119.083H241.026V130.956H239.373Z" fill="#F0F0F0"/>
</g>
<path d="M252.737 93.9429C252.383 93.9429 252.101 93.8248 251.891 93.5886C251.681 93.3524 251.576 93.0637 251.576 92.7226C251.576 91.7909 251.924 90.9839 252.619 90.3016C253.315 89.6193 254.181 89.2781 255.217 89.2781C256.411 89.2781 257.408 89.6455 258.209 90.3803C259.009 91.1151 259.416 92.0665 259.429 93.2343C259.429 93.7985 259.298 94.3365 259.036 94.8483C258.773 95.36 258.458 95.8062 258.091 96.1867C257.723 96.5672 257.199 97.0527 256.516 97.6432C256.044 98.05 255.388 98.6536 254.548 99.454L253.387 100.556L254.883 100.576C256.943 100.576 258.038 100.543 258.17 100.478C258.261 100.451 258.419 99.8673 258.642 98.7258V98.6667H259.429V98.7258C259.416 98.7651 259.331 99.3622 259.173 100.517C259.016 101.672 258.917 102.275 258.878 102.328V102.387H251.576V102.013V101.777C251.576 101.685 251.615 101.586 251.694 101.481C251.773 101.376 251.97 101.147 252.284 100.792C252.665 100.373 252.993 100.005 253.269 99.6902C253.387 99.559 253.61 99.3162 253.938 98.9619C254.266 98.6077 254.489 98.3649 254.607 98.2337C254.725 98.1025 254.915 97.886 255.178 97.5842C255.44 97.2824 255.624 97.0593 255.729 96.915C255.834 96.7706 255.985 96.5738 256.182 96.3245C256.378 96.0752 256.516 95.8652 256.595 95.6946C256.674 95.5241 256.772 95.3338 256.89 95.1238C257.008 94.9139 257.094 94.7039 257.146 94.494C257.199 94.284 257.244 94.0872 257.284 93.9035C257.323 93.7198 257.343 93.5033 257.343 93.254C257.343 92.4273 257.12 91.7122 256.674 91.1086C256.228 90.505 255.591 90.2032 254.764 90.2032C254.331 90.2032 253.951 90.3147 253.623 90.5378C253.295 90.7609 253.065 90.9774 252.934 91.1873C252.803 91.3973 252.737 91.5219 252.737 91.5613C252.737 91.5744 252.77 91.581 252.836 91.581C253.072 91.581 253.315 91.6728 253.564 91.8565C253.813 92.0402 253.938 92.342 253.938 92.7619C253.938 93.09 253.833 93.3655 253.623 93.5886C253.413 93.8117 253.118 93.9298 252.737 93.9429Z" fill="#92D192"/>
<path d="M254.784 118.566L254.528 118.664C254.345 118.73 254.082 118.795 253.741 118.861C253.4 118.927 253.019 118.973 252.599 118.999H252.225V118.093H252.599C253.216 118.067 253.787 117.969 254.312 117.798C254.837 117.628 255.204 117.47 255.414 117.326C255.624 117.181 255.808 117.037 255.965 116.893C255.991 116.853 256.07 116.834 256.201 116.834C256.319 116.834 256.431 116.873 256.536 116.952V122.837L256.556 128.742C256.647 128.834 256.726 128.893 256.792 128.919C256.857 128.945 257.015 128.971 257.264 128.998C257.513 129.024 257.92 129.037 258.484 129.037H258.996V129.942H258.78C258.504 129.903 257.461 129.883 255.65 129.883C253.866 129.883 252.836 129.903 252.56 129.942H252.324V129.037H252.836C253.124 129.037 253.374 129.037 253.584 129.037C253.793 129.037 253.957 129.03 254.076 129.017C254.194 129.004 254.299 128.984 254.391 128.958C254.482 128.932 254.535 128.919 254.548 128.919C254.561 128.919 254.6 128.886 254.666 128.82C254.732 128.755 254.771 128.729 254.784 128.742V118.566Z" fill="#F2777A"/>
<path d="M253.091 148.385C252.737 148.385 252.462 148.273 252.265 148.05C252.068 147.827 251.963 147.539 251.95 147.184C251.95 146.463 252.265 145.82 252.895 145.255C253.524 144.691 254.286 144.409 255.178 144.409C255.637 144.409 255.926 144.416 256.044 144.429C257.015 144.586 257.756 144.934 258.268 145.472C258.78 146.01 259.042 146.594 259.055 147.224C259.055 147.906 258.832 148.569 258.386 149.212C257.94 149.855 257.323 150.32 256.536 150.609L256.477 150.648C256.477 150.662 256.536 150.681 256.654 150.708C256.772 150.734 256.962 150.793 257.225 150.885C257.487 150.977 257.737 151.114 257.973 151.298C259.049 151.993 259.587 152.912 259.587 154.054C259.587 155.09 259.18 155.996 258.366 156.77C257.553 157.544 256.523 157.931 255.276 157.931C254.226 157.931 253.321 157.649 252.56 157.085C251.799 156.52 251.418 155.805 251.418 154.939C251.418 154.572 251.537 154.277 251.773 154.054C252.009 153.83 252.304 153.712 252.658 153.699C253.026 153.699 253.328 153.817 253.564 154.054C253.8 154.29 253.918 154.585 253.918 154.939C253.918 155.084 253.898 155.215 253.859 155.333C253.82 155.451 253.774 155.556 253.721 155.648C253.669 155.74 253.597 155.818 253.505 155.884C253.413 155.95 253.334 156.002 253.269 156.042C253.203 156.081 253.137 156.107 253.072 156.12C253.006 156.133 252.954 156.153 252.914 156.179L252.836 156.199C253.505 156.789 254.318 157.085 255.276 157.085C255.998 157.085 256.542 156.737 256.91 156.042C257.133 155.608 257.244 154.946 257.244 154.054V153.66C257.244 152.413 256.825 151.58 255.985 151.16C255.788 151.081 255.388 151.036 254.784 151.022L253.957 151.003L253.898 150.963C253.872 150.924 253.859 150.819 253.859 150.648C253.859 150.412 253.912 150.294 254.017 150.294C254.384 150.294 254.764 150.261 255.158 150.196C255.604 150.13 256.011 149.855 256.378 149.369C256.746 148.884 256.93 148.149 256.93 147.165V147.007C256.93 146.259 256.7 145.741 256.241 145.452C255.952 145.269 255.644 145.177 255.316 145.177C254.896 145.177 254.509 145.249 254.154 145.393C253.8 145.538 253.551 145.688 253.406 145.846C253.262 146.003 253.19 146.082 253.19 146.082H253.249C253.288 146.095 253.341 146.108 253.406 146.121C253.472 146.135 253.538 146.167 253.603 146.22C253.669 146.272 253.748 146.318 253.839 146.358C253.931 146.397 253.997 146.469 254.036 146.574C254.076 146.679 254.128 146.778 254.194 146.869C254.259 146.961 254.279 147.092 254.253 147.263C254.253 147.552 254.161 147.808 253.977 148.031C253.793 148.254 253.498 148.372 253.091 148.385Z" fill="#6AB0F3"/>
<path d="M264.803 89.2781V87.6248H271.632V123.034H269.979V89.2781H264.803Z" fill="#F0F0F0"/>
<path d="M269.979 160.765V127.01H271.632V162.419H264.803V160.765H269.979Z" fill="#F0F0F0"/>
<g clip-path="url(#clip6_1582_230)">
<path d="M269.979 130.956V119.083H271.632V130.956H269.979Z" fill="#F0F0F0"/>
</g>
</g>
</g>
<defs>
<clipPath id="clip0_1582_230">
<rect width="640" height="540" fill="white"/>
</clipPath>
<clipPath id="clip1_1582_230">
<rect width="11.2578" height="8.9175" fill="white" transform="translate(121.568 314.695)"/>
</clipPath>
<clipPath id="clip2_1582_230">
<rect width="9.6483" height="12.7368" fill="white" transform="translate(466.931 336.115)"/>
</clipPath>
<clipPath id="clip3_1582_230">
<rect width="9.1524" height="8.9175" fill="white" transform="translate(314.855 57.1359)"/>
</clipPath>
<clipPath id="clip4_1582_230">
<rect width="44.8398" height="74.7939" fill="white" transform="translate(233.092 87.6248)"/>
</clipPath>
<clipPath id="clip5_1582_230">
<rect width="13.1283" height="7.91241" fill="white" transform="matrix(1 0 0 -1 233.094 128.978)"/>
</clipPath>
<clipPath id="clip6_1582_230">
<rect width="13.1283" height="7.91241" fill="white" transform="matrix(1 0 0 -1 264.803 128.978)"/>
</clipPath>
</defs>
</svg>
