<svg width="641" height="360" viewBox="0 0 641 360" fill="none" xmlns="http://www.w3.org/2000/svg">
<g clip-path="url(#clip0_384_2305)">
<path d="M640.5 0H0.5V360H640.5V0Z" fill="black"/>
<g clip-path="url(#clip1_384_2305)">
<path d="M0.5 5H640.5" stroke="#202020" stroke-width="1.5"/>
<path d="M0.5 55H640.5" stroke="#202020" stroke-width="1.5"/>
<path d="M0.5 105H640.5" stroke="#202020" stroke-width="1.5"/>
<path d="M0.5 155H640.5" stroke="#202020" stroke-width="1.5"/>
<path d="M0.5 205H640.5" stroke="#202020" stroke-width="1.5"/>
<path d="M0.5 255H640.5" stroke="#202020" stroke-width="1.5"/>
<path d="M0.5 305H640.5" stroke="#202020" stroke-width="1.5"/>
<path d="M0.5 355H640.5" stroke="#202020" stroke-width="1.5"/>
<path d="M45.5 0V360" stroke="#202020" stroke-width="1.5"/>
<path d="M95.5 0V360" stroke="#202020" stroke-width="1.5"/>
<path d="M145.5 0V360" stroke="#202020" stroke-width="1.5"/>
<path d="M195.5 0V360" stroke="#202020" stroke-width="1.5"/>
<path d="M245.5 0V360" stroke="#202020" stroke-width="1.5"/>
<path d="M295.5 0V360" stroke="#202020" stroke-width="1.5"/>
<path d="M345.5 0V360" stroke="#202020" stroke-width="1.5"/>
<path d="M395.5 0V360" stroke="#202020" stroke-width="1.5"/>
<path d="M445.5 0V360" stroke="#202020" stroke-width="1.5"/>
<path d="M495.5 0V360" stroke="#202020" stroke-width="1.5"/>
<path d="M545.5 0V360" stroke="#202020" stroke-width="1.5"/>
<path d="M595.5 0V360" stroke="#202020" stroke-width="1.5"/>
<path d="M0.5 30H640.5" stroke="#404040" stroke-width="1.5"/>
<path d="M0.5 80H640.5" stroke="#404040" stroke-width="1.5"/>
<path d="M0.5 130H640.5" stroke="#404040" stroke-width="1.5"/>
<path d="M0.5 180H640.5" stroke="#404040" stroke-width="1.5"/>
<path d="M0.5 230H640.5" stroke="#404040" stroke-width="1.5"/>
<path d="M0.5 280H640.5" stroke="#404040" stroke-width="1.5"/>
<path d="M0.5 330H640.5" stroke="#404040" stroke-width="1.5"/>
<path d="M20.5 0V360" stroke="#404040" stroke-width="1.5"/>
<path d="M70.5 0V360" stroke="#404040" stroke-width="1.5"/>
<path d="M120.5 0V360" stroke="#404040" stroke-width="1.5"/>
<path d="M170.5 0V360" stroke="#404040" stroke-width="1.5"/>
<path d="M220.5 0V360" stroke="#404040" stroke-width="1.5"/>
<path d="M270.5 0V360" stroke="#404040" stroke-width="1.5"/>
<path d="M320.5 0V360" stroke="#404040" stroke-width="1.5"/>
<path d="M370.5 0V360" stroke="#404040" stroke-width="1.5"/>
<path d="M420.5 0V360" stroke="#404040" stroke-width="1.5"/>
<path d="M470.5 0V360" stroke="#404040" stroke-width="1.5"/>
<path d="M520.5 0V360" stroke="#404040" stroke-width="1.5"/>
<path d="M570.5 0V360" stroke="#404040" stroke-width="1.5"/>
<path d="M620.5 0V360" stroke="#404040" stroke-width="1.5"/>
</g>
<path d="M625.5 173.25L640.5 180L625.5 186.75L628.5 180L625.5 173.25Z" fill="#F0F0F0"/>
<path d="M15.5 186.75L0.5 180L15.5 173.25L12.5 180L15.5 186.75Z" fill="#F0F0F0"/>
<path d="M4.5 180H636.5" stroke="#F0F0F0" stroke-width="1.5"/>
<path d="M327.25 345L320.5 360L313.75 345L320.5 348L327.25 345Z" fill="#F0F0F0"/>
<path d="M313.75 15L320.5 0L327.25 15L320.5 12L313.75 15Z" fill="#F0F0F0"/>
<path d="M320.5 4V356" stroke="#F0F0F0" stroke-width="1.5"/>
<path d="M616.998 172.529H601.384V187.473H616.998V172.529Z" fill="black"/>
<g clip-path="url(#clip2_384_2305)">
<path d="M604.634 178.298C604.718 177.791 605.044 177.206 605.611 176.542C606.178 175.879 606.878 175.541 607.71 175.529C608.133 175.529 608.519 175.638 608.869 175.855C609.218 176.072 609.478 176.343 609.647 176.669C610.154 175.909 610.763 175.529 611.475 175.529C611.921 175.529 612.307 175.662 612.633 175.927C612.959 176.193 613.128 176.549 613.14 176.995C613.14 177.345 613.055 177.628 612.886 177.846C612.717 178.063 612.555 178.195 612.398 178.244C612.241 178.292 612.102 178.316 611.981 178.316C611.752 178.316 611.565 178.25 611.42 178.117C611.276 177.984 611.203 177.809 611.203 177.592C611.203 177.037 611.505 176.657 612.108 176.452C611.975 176.295 611.734 176.217 611.384 176.217C611.227 176.217 611.113 176.229 611.04 176.253C610.582 176.446 610.244 176.844 610.027 177.447C609.303 180.114 608.941 181.67 608.941 182.117C608.941 182.454 609.037 182.696 609.231 182.841C609.424 182.985 609.635 183.058 609.864 183.058C610.31 183.058 610.751 182.859 611.185 182.461C611.619 182.062 611.915 181.574 612.072 180.995C612.108 180.874 612.144 180.808 612.18 180.795C612.217 180.783 612.313 180.771 612.47 180.759H612.542C612.723 180.759 612.814 180.808 612.814 180.904C612.814 180.916 612.802 180.983 612.778 181.103C612.585 181.791 612.211 182.4 611.656 182.931C611.101 183.462 610.455 183.727 609.719 183.727C608.875 183.727 608.235 183.347 607.801 182.587C607.306 183.335 606.739 183.709 606.1 183.709H605.991C605.4 183.709 604.978 183.552 604.724 183.239C604.471 182.925 604.338 182.593 604.326 182.243C604.326 181.857 604.441 181.544 604.67 181.302C604.899 181.061 605.171 180.94 605.484 180.94C606.003 180.94 606.262 181.194 606.262 181.7C606.262 181.942 606.19 182.153 606.045 182.334C605.901 182.515 605.762 182.635 605.629 182.696C605.496 182.756 605.418 182.786 605.394 182.786L605.339 182.804C605.339 182.816 605.376 182.841 605.448 182.877C605.52 182.913 605.617 182.955 605.738 183.003C605.858 183.052 605.973 183.07 606.081 183.058C606.516 183.058 606.89 182.786 607.204 182.243C607.312 182.05 607.451 181.64 607.62 181.013C607.789 180.385 607.958 179.734 608.127 179.058C608.295 178.382 608.392 177.984 608.416 177.864C608.476 177.538 608.507 177.303 608.507 177.158C608.507 176.82 608.416 176.579 608.235 176.434C608.054 176.289 607.849 176.217 607.62 176.217C607.137 176.217 606.685 176.41 606.262 176.796C605.84 177.182 605.545 177.677 605.376 178.28C605.352 178.388 605.321 178.449 605.285 178.461C605.249 178.473 605.152 178.485 604.996 178.497H604.742C604.67 178.425 604.634 178.358 604.634 178.298Z" fill="#F0F0F0"/>
</g>
<path d="M328.608 22.6109H313.223V41.3881H328.608V22.6109Z" fill="black"/>
<g clip-path="url(#clip3_384_2305)">
<path d="M316.189 28.4172C316.189 28.2483 316.279 27.9586 316.46 27.5483C316.641 27.138 316.931 26.7096 317.329 26.2631C317.727 25.8166 318.174 25.5993 318.669 25.6114C319.163 25.6114 319.562 25.7502 319.863 26.0277C320.165 26.3053 320.322 26.6915 320.334 27.1863C320.31 27.4156 320.292 27.5423 320.28 27.5664C320.28 27.6026 320.183 27.8802 319.99 28.3991C319.797 28.918 319.598 29.5033 319.393 30.155C319.188 30.8067 319.091 31.3256 319.103 31.7118C319.103 32.2307 319.188 32.5927 319.356 32.7979C319.525 33.003 319.779 33.1117 320.117 33.1237C320.394 33.1237 320.654 33.0574 320.895 32.9246C321.137 32.7919 321.324 32.6531 321.456 32.5083C321.589 32.3634 321.752 32.1643 321.945 31.9109C321.945 31.8988 321.975 31.7781 322.036 31.5489C322.096 31.3196 322.18 30.9636 322.289 30.4808C322.398 29.9981 322.512 29.5516 322.633 29.1413C323.092 27.3311 323.345 26.3837 323.393 26.2993C323.55 25.9734 323.81 25.8105 324.172 25.8105C324.328 25.8105 324.455 25.8528 324.552 25.9372C324.648 26.0217 324.715 26.0941 324.751 26.1545C324.787 26.2148 324.799 26.2691 324.787 26.3174C324.787 26.4743 324.491 27.7414 323.9 30.1188C323.309 32.4962 322.971 33.7995 322.886 34.0288C322.548 35.0305 321.963 35.827 321.13 36.4183C320.298 37.0096 319.465 37.3113 318.632 37.3234C318.089 37.3234 317.613 37.1906 317.202 36.9252C316.792 36.6597 316.587 36.2614 316.587 35.7304C316.587 35.4649 316.629 35.2417 316.714 35.0606C316.798 34.8796 316.913 34.7469 317.058 34.6624C317.202 34.5779 317.323 34.5176 317.42 34.4814C317.516 34.4452 317.619 34.4271 317.727 34.4271C318.258 34.4271 318.524 34.6805 318.524 35.1874C318.524 35.4287 318.451 35.6399 318.307 35.8209C318.162 36.0019 318.023 36.1226 317.89 36.183C317.757 36.2433 317.679 36.2735 317.655 36.2735L317.601 36.2916C317.625 36.3519 317.739 36.4243 317.945 36.5088C318.15 36.5933 318.355 36.6355 318.56 36.6355H318.705C318.91 36.6355 319.067 36.6235 319.175 36.5993C319.574 36.4907 319.942 36.2614 320.28 35.9114C320.618 35.5615 320.877 35.1874 321.058 34.7891C321.239 34.3909 321.378 34.053 321.474 33.7754C321.571 33.4978 321.619 33.3168 321.619 33.2323L321.511 33.3047C321.438 33.353 321.324 33.4194 321.167 33.5039C321.01 33.5883 320.853 33.6608 320.696 33.7211C320.455 33.7814 320.219 33.8116 319.99 33.8116C319.435 33.8116 318.946 33.6789 318.524 33.4134C318.101 33.1479 317.824 32.7195 317.691 32.1281C317.679 32.0436 317.673 31.8566 317.673 31.567C317.673 30.8791 317.884 29.98 318.307 28.8698C318.729 27.7595 318.94 27.0535 318.94 26.7518C318.94 26.7398 318.94 26.7277 318.94 26.7156C318.94 26.607 318.94 26.5346 318.94 26.4984C318.94 26.4622 318.916 26.42 318.868 26.3717C318.819 26.3234 318.753 26.2993 318.669 26.2993H318.596C318.319 26.2993 318.065 26.4139 317.836 26.6432C317.607 26.8725 317.426 27.1199 317.293 27.3854C317.16 27.6509 317.058 27.9043 316.985 28.1457C316.913 28.387 316.864 28.5198 316.84 28.5439C316.816 28.5681 316.72 28.5801 316.551 28.5801H316.297C316.225 28.5077 316.189 28.4534 316.189 28.4172Z" fill="#F0F0F0"/>
</g>
<path d="M179.237 93.9368L170.5 80L186.725 82.7041L180.485 86.6564L179.237 93.9368Z" fill="#FFF888"/>
<path d="M320.5 180L173.828 82.2188" stroke="#FFF888" stroke-width="1.5"/>
</g>
<defs>
<clipPath id="clip0_384_2305">
<rect width="640" height="360" fill="white" transform="translate(0.5)"/>
</clipPath>
<clipPath id="clip1_384_2305">
<rect width="640" height="360" fill="white" transform="translate(0.5)"/>
</clipPath>
<clipPath id="clip2_384_2305">
<rect width="10.352" height="8.2" fill="white" transform="translate(603.693 175.528)"/>
</clipPath>
<clipPath id="clip3_384_2305">
<rect width="8.872" height="11.712" fill="white" transform="translate(315.807 25.6114)"/>
</clipPath>
</defs>
</svg>
