<?xml version="1.0" encoding="utf-8"?>
<!-- Generator: Adobe Illustrator 25.2.3, SVG Export Plug-In . SVG Version: 6.00 Build 0)  -->
<svg version="1.1" id="Layer_1" xmlns="http://www.w3.org/2000/svg" xmlns:xlink="http://www.w3.org/1999/xlink" x="0px" y="0px"
	 viewBox="0 0 1920 1080" style="enable-background:new 0 0 1920 1080;" xml:space="preserve">
<style type="text/css">
	.st0{fill:#005454;}
	.st1{fill:#15E3FF;}
	.st2{fill:#FFFFFF;}
</style>
<g id="Layer_1_1_">
	<g>
		<rect x="0.5" y="0.5" width="1919" height="1079"/>
		<path d="M1919,1v1078H1V1H1919 M1920,0H0v1080h1920V0L1920,0z"/>
	</g>
	<g>
		<rect x="1.3" y="68.9" class="st0" width="1915.9" height="1.4"/>
	</g>
	<g>
		<rect x="1.3" y="201.9" class="st0" width="1915.9" height="1.4"/>
	</g>
	<g>
		<rect x="3.1" y="338.9" class="st0" width="1915.9" height="1.4"/>
	</g>
	<g>
		<rect x="2.2" y="475.9" class="st0" width="1915.9" height="1.4"/>
	</g>
	<g>
		<rect y="614.9" class="st0" width="1915.9" height="1.4"/>
	</g>
	<g>
		<rect y="750.9" class="st0" width="1915.9" height="1.4"/>
	</g>
	<g>
		<rect x="1.8" y="886.9" class="st0" width="1915.9" height="1.4"/>
	</g>
	<g>
		<rect x="0.9" y="1021.9" class="st0" width="1915.9" height="1.4"/>
	</g>
	<g>
		<rect x="84" y="-0.2" class="st0" width="1.4" height="1080"/>
	</g>
	<g>
		<rect x="220" y="-0.2" class="st0" width="1.4" height="1080"/>
	</g>
	<g>
		<rect x="351" y="-1.2" class="st0" width="1.4" height="1080"/>
	</g>
	<g>
		<rect x="483" y="-0.7" class="st0" width="1.4" height="1080"/>
	</g>
	<g>
		<rect x="616" y="-0.7" class="st0" width="1.4" height="1080"/>
	</g>
	<g>
		<rect x="753" y="-1.7" class="st0" width="1.4" height="1080"/>
	</g>
	<g>
		<rect x="890" y="-1.2" class="st0" width="1.4" height="1080"/>
	</g>
	<g>
		<rect x="1029" y="0.1" class="st0" width="1.4" height="1080"/>
	</g>
	<g>
		<rect x="1165" y="0.1" class="st0" width="1.4" height="1080"/>
	</g>
	<g>
		<rect x="1301" y="-0.9" class="st0" width="1.4" height="1080"/>
	</g>
	<g>
		<rect x="1436" y="-0.4" class="st0" width="1.4" height="1080"/>
	</g>
	<g>
		<rect x="1572" y="-0.4" class="st0" width="1.4" height="1080"/>
	</g>
	<g>
		<rect x="1698" y="-1.4" class="st0" width="1.4" height="1080"/>
	</g>
	<g>
		<rect x="1835" y="-0.9" class="st0" width="1.4" height="1080"/>
	</g>
	<g>
		<rect x="1098" class="st1" width="1.4" height="1080"/>
	</g>
	<g>
		<rect x="1232.2" class="st1" width="2.8" height="1080"/>
	</g>
	<g>
		<rect x="1367.8" class="st1" width="1.4" height="1080"/>
	</g>
	<g>
		<rect x="1502" class="st1" width="2.8" height="1080"/>
	</g>
	<g>
		<rect x="1630.7" y="1" class="st1" width="1.4" height="1080"/>
	</g>
	<g>
		<rect x="1764.9" y="1" class="st1" width="2.8" height="1080"/>
	</g>
	<g>
		<rect x="1904.6" class="st1" width="1.4" height="1080"/>
	</g>
	<g>
		<rect x="817.6" y="0.6" class="st1" width="1.4" height="1080"/>
	</g>
	<g>
		<rect x="682.8" y="0.6" class="st1" width="2.8" height="1080"/>
	</g>
	<g>
		<rect x="549.3" y="0.6" class="st1" width="1.4" height="1080"/>
	</g>
	<g>
		<rect x="414.5" y="0.6" class="st1" width="2.8" height="1080"/>
	</g>
	<g>
		<rect x="288" y="-0.4" class="st1" width="1.4" height="1080"/>
	</g>
	<g>
		<rect x="153.1" y="-0.4" class="st1" width="2.8" height="1080"/>
	</g>
	<g>
		<rect x="15.6" y="0.6" class="st1" width="1.4" height="1080"/>
	</g>
	<g>
		<rect x="1" y="684.8" class="st1" width="1919" height="1.4"/>
	</g>
	<g>
		<rect x="1" y="819" class="st1" width="1919" height="2.8"/>
	</g>
	<g>
		<rect x="1" y="954.6" class="st1" width="1919" height="1.4"/>
	</g>
	<g>
		<rect y="404.4" class="st1" width="1919" height="1.4"/>
	</g>
	<g>
		<rect y="269.6" class="st1" width="1919" height="2.8"/>
	</g>
	<g>
		<rect y="136.1" class="st1" width="1919" height="1.4"/>
	</g>
	<g>
		<rect x="959" class="st2" width="3" height="1080"/>
	</g>
	<g>
		<rect y="541.9" class="st2" width="1920" height="4.1"/>
	</g>
	<g>
		<path class="st2" d="M1868.6,582c0-0.9,0.3-1.7,0.8-2.2c0.6-0.6,1.2-0.9,2-0.9c1.3,0,1.9,0.6,1.9,1.8c0,0.5-0.2,1.1-0.5,1.6
			c-0.4,0.6-0.9,0.9-1.7,1.1c0.6,0.5,1.4,0.8,2.4,0.8c0,0,0.1,0,0.1,0c0.8,0,1.5-0.2,2.1-0.7s1.2-1.2,1.6-2.1c0.4-1,0.8-1.8,1-2.5
			s0.4-1.7,0.8-2.9c0.5-1.8,0.9-3.6,1.4-5.2c0.8-3.2,1.2-5.3,1.2-6.2c0-1.1-0.2-2-0.8-2.6s-1.2-0.9-2-0.9c-1.2,0-2.5,0.6-3.8,1.8
			s-2.2,3-2.9,5.3c-0.2,0.5-0.3,0.7-0.3,0.8c-0.1,0.1-0.3,0.1-0.7,0.1c-0.6,0-0.9-0.2-0.9-0.6s0.2-1,0.6-1.9
			c0.4-0.9,0.9-1.9,1.6-2.9c0.7-1,1.6-1.9,2.8-2.7s2.4-1.2,3.7-1.2c2.7,0,4.5,1.3,5.4,3.8c0.5-0.9,1.2-1.7,2.1-2.6
			c0.9-0.8,2.1-1.3,3.5-1.3c1.1,0,2.2,0.3,3.3,0.8c1.1,0.5,1.6,1.5,1.6,2.8c0,1-0.3,1.7-0.9,2.2s-1.2,0.8-1.8,0.8
			c-0.7,0-1.2-0.2-1.5-0.6s-0.5-0.8-0.5-1.2c0-0.2,0-0.4,0.1-0.7s0.2-0.6,0.6-1.1s0.9-0.8,1.6-1c-0.6-0.5-1.4-0.8-2.5-0.8
			c-2.3,0-4,2-5.1,6c-0.9,3.7-1.5,6.3-1.9,7.8c-0.7,3.1-1.1,5-1.1,5.7c0,1.3,0.3,2.3,0.8,2.8c0.5,0.5,1.2,0.8,1.9,0.8
			c1.3,0,2.6-0.6,3.8-1.8s2.2-3,2.9-5.3c0.2-0.5,0.3-0.7,0.4-0.8c0.1-0.1,0.3-0.1,0.7-0.1c0.6,0,0.9,0.2,0.8,0.5
			c0,0.3-0.2,1-0.6,1.8c-0.4,0.9-0.9,1.9-1.6,2.9c-0.7,1.1-1.6,2-2.8,2.8c-1.2,0.8-2.4,1.2-3.8,1.2c-1,0-2-0.3-3.1-0.8
			c-1-0.6-1.8-1.6-2.3-3c-1.5,2.5-3.3,3.8-5.5,3.9c-1.4,0-2.5-0.3-3.5-1C1869.1,583.9,1868.6,583.1,1868.6,582z"/>
	</g>
	<g>
		<path class="st2" d="M982.2,29.5c0-0.1,0.1-0.5,0.2-1c0.2-0.6,0.4-1.3,0.8-2.2c0.4-0.9,0.8-1.8,1.4-2.6s1.2-1.5,2.1-2.1
			s1.8-0.9,2.8-0.9c1.2,0,2.3,0.4,3.1,1.2s1.2,2,1.2,3.4c0,0.8-0.2,1.8-0.8,3c-2.2,6-3.3,10.1-3.3,12.4c0,2.9,1,4.3,3,4.3h0
			c1.5,0,2.8-0.6,3.9-1.7s1.8-2.2,2.1-3.3l4.2-16.7c0.3-1.4,1.1-2.1,2.2-2.1c0.5,0,0.9,0.1,1.2,0.5c0.3,0.3,0.4,0.6,0.4,1
			c0,0.1,0,0.2-0.1,0.4s-0.1,0.3-0.1,0.4l-5.6,22.4c-0.8,3-2.3,5.7-4.7,8c-2.4,2.3-5,3.5-7.8,3.5c-1.6,0-2.9-0.4-3.9-1.3
			c-1-0.9-1.5-2.1-1.5-3.5c0-1,0.2-1.7,0.6-2.3c0.4-0.6,0.8-1,1.2-1.1s0.7-0.2,1.1-0.2c0.5,0,1,0.2,1.4,0.5c0.4,0.3,0.6,0.8,0.6,1.3
			s-0.2,1.1-0.6,1.7s-1,0.9-1.8,1c-0.3,0-0.5,0.1-0.5,0.2c0,0.2,0.1,0.4,0.3,0.8c0.2,0.4,0.6,0.7,1.1,1.1c0.6,0.4,1.3,0.6,2.1,0.6
			c1.7,0,3.5-0.9,5.2-2.8c1.7-1.8,3.1-4.9,4-9.1c-1.4,1.4-3.1,2.1-5.1,2.1c-1.8,0-3.3-0.5-4.5-1.6s-1.9-2.7-1.9-5
			c0-2.1,1-5.8,3-11.1c0.9-2.5,1.4-4.2,1.4-5.1c0-1.1-0.4-1.6-1.2-1.6c-2.3,0-4,2.4-5.3,7.1c-0.1,0.4-0.2,0.7-0.3,0.8
			s-0.3,0.1-0.7,0.1C982.5,30.1,982.2,29.9,982.2,29.5z"/>
	</g>
</g>
</svg>
