<svg width="640" height="360" viewBox="0 0 640 360" fill="none" xmlns="http://www.w3.org/2000/svg">
<g clip-path="url(#clip0_1354_10933)">
<path d="M640 0H0V360H640V0Z" fill="white"/>
<g clip-path="url(#clip1_1354_10933)">
<path d="M0 20H640" stroke="#C0C0C0" stroke-width="1.5"/>
<path d="M0 60H640" stroke="#C0C0C0" stroke-width="1.5"/>
<path d="M0 100H640" stroke="#C0C0C0" stroke-width="1.5"/>
<path d="M0 140H640" stroke="#C0C0C0" stroke-width="1.5"/>
<path d="M0 220H640" stroke="#C0C0C0" stroke-width="1.5"/>
<path d="M0 260H640" stroke="#C0C0C0" stroke-width="1.5"/>
<path d="M0 300H640" stroke="#C0C0C0" stroke-width="1.5"/>
<path d="M0 340H640" stroke="#C0C0C0" stroke-width="1.5"/>
<path d="M0 0V360" stroke="#C0C0C0" stroke-width="1.5"/>
<path d="M40 0V360" stroke="#C0C0C0" stroke-width="1.5"/>
<path d="M80 0V360" stroke="#C0C0C0" stroke-width="1.5"/>
<path d="M160 0V360" stroke="#C0C0C0" stroke-width="1.5"/>
<path d="M200 0V360" stroke="#C0C0C0" stroke-width="1.5"/>
<path d="M240 0V360" stroke="#C0C0C0" stroke-width="1.5"/>
<path d="M280 0V360" stroke="#C0C0C0" stroke-width="1.5"/>
<path d="M360 0V360" stroke="#C0C0C0" stroke-width="1.5"/>
<path d="M400 0V360" stroke="#C0C0C0" stroke-width="1.5"/>
<path d="M440 0V360" stroke="#C0C0C0" stroke-width="1.5"/>
<path d="M480 0V360" stroke="#C0C0C0" stroke-width="1.5"/>
<path d="M560 0V360" stroke="#C0C0C0" stroke-width="1.5"/>
<path d="M600 0V360" stroke="#C0C0C0" stroke-width="1.5"/>
<path d="M640 0V360" stroke="#C0C0C0" stroke-width="1.5"/>
<path d="M120 0V360" stroke="#B0B0B0" stroke-width="1.5"/>
<path d="M520 0V360" stroke="#B0B0B0" stroke-width="1.5"/>
<path d="M0 180H640" stroke="#A0A0A0" stroke-width="1.5"/>
<path d="M320 0V360" stroke="#A0A0A0" stroke-width="1.5"/>
</g>
<g clip-path="url(#clip2_1354_10933)">
<path d="M-1520 2180L3600 -380" stroke="#7684FE" stroke-opacity="0.75" stroke-width="1.19291"/>
<path d="M-1560 2140L3560 -420" stroke="#7684FE" stroke-opacity="0.75" stroke-width="1.19291"/>
<path d="M-1600 2100L3520 -460" stroke="#7684FE" stroke-opacity="0.75" stroke-width="1.19291"/>
<path d="M-1640 2060L3480 -500" stroke="#7684FE" stroke-opacity="0.75" stroke-width="1.19291"/>
<path d="M-1680 2020L3440 -540" stroke="#7684FE" stroke-opacity="0.75" stroke-width="1.19291"/>
<path d="M-1720 1980L3400 -580" stroke="#7684FE" stroke-opacity="0.75" stroke-width="1.19291"/>
<path d="M-1760 1940L3360 -620" stroke="#7684FE" stroke-opacity="0.75" stroke-width="1.19291"/>
<path d="M-1800 1900L3320 -660" stroke="#7684FE" stroke-opacity="0.75" stroke-width="1.19291"/>
<path d="M-1840 1860L3280 -700" stroke="#7684FE" stroke-opacity="0.75" stroke-width="1.19291"/>
<path d="M-1880 1820L3240 -740" stroke="#7684FE" stroke-opacity="0.75" stroke-width="1.19291"/>
<path d="M-1920 1780L3200 -780" stroke="#7684FE" stroke-opacity="0.75" stroke-width="1.19291"/>
<path d="M-1960 1740L3160 -820" stroke="#7684FE" stroke-opacity="0.75" stroke-width="1.19291"/>
<path d="M-2000 1700L3120 -860" stroke="#7684FE" stroke-opacity="0.75" stroke-width="1.19291"/>
<path d="M-2040 1660L3080 -900" stroke="#7684FE" stroke-opacity="0.75" stroke-width="1.19291"/>
<path d="M-2080 1620L3040 -940" stroke="#7684FE" stroke-opacity="0.75" stroke-width="1.19291"/>
<path d="M-2120 1580L3000 -980" stroke="#7684FE" stroke-opacity="0.75" stroke-width="1.19291"/>
<path d="M-2160 1540L2960 -1020" stroke="#7684FE" stroke-opacity="0.75" stroke-width="1.19291"/>
<path d="M-2200 1500L2920 -1060" stroke="#7684FE" stroke-opacity="0.75" stroke-width="1.19291"/>
<path d="M-2240 1460L2880 -1100" stroke="#7684FE" stroke-opacity="0.75" stroke-width="1.19291"/>
<path d="M-2280 1420L2840 -1140" stroke="#7684FE" stroke-opacity="0.75" stroke-width="1.19291"/>
<path d="M-2320 1380L2800 -1180" stroke="#7684FE" stroke-opacity="0.75" stroke-width="1.19291"/>
<path d="M-2360 1340L2760 -1220" stroke="#7684FE" stroke-opacity="0.75" stroke-width="1.19291"/>
<path d="M-2400 1300L2720 -1260" stroke="#7684FE" stroke-opacity="0.75" stroke-width="1.19291"/>
<path d="M-2440 1260L2680 -1300" stroke="#7684FE" stroke-opacity="0.75" stroke-width="1.19291"/>
<path d="M-2480 1220L2640 -1340" stroke="#7684FE" stroke-opacity="0.75" stroke-width="1.19291"/>
<path d="M-2520 1180L2600 -1380" stroke="#7684FE" stroke-opacity="0.75" stroke-width="1.19291"/>
<path d="M-2560 1140L2560 -1420" stroke="#7684FE" stroke-opacity="0.75" stroke-width="1.19291"/>
<path d="M-2600 1100L2520 -1460" stroke="#7684FE" stroke-opacity="0.75" stroke-width="1.19291"/>
<path d="M-2640 1060L2480 -1500" stroke="#7684FE" stroke-opacity="0.75" stroke-width="1.19291"/>
<path d="M-2680 1020L2440 -1540" stroke="#7684FE" stroke-opacity="0.75" stroke-width="1.19291"/>
<path d="M-2720 980L2400 -1580" stroke="#7684FE" stroke-opacity="0.75" stroke-width="1.19291"/>
<path d="M-2760 940L2360 -1620" stroke="#7684FE" stroke-opacity="0.75" stroke-width="1.19291"/>
<path d="M-2800 900L2320 -1660" stroke="#7684FE" stroke-opacity="0.75" stroke-width="1.19291"/>
<path d="M-2840 860L2280 -1700" stroke="#7684FE" stroke-opacity="0.75" stroke-width="1.19291"/>
<path d="M-2880 820L2240 -1740" stroke="#7684FE" stroke-opacity="0.75" stroke-width="1.19291"/>
<path d="M-2920 780L2200 -1780" stroke="#7684FE" stroke-opacity="0.75" stroke-width="1.19291"/>
<path d="M-2960 740L2160 -1820" stroke="#7684FE" stroke-opacity="0.75" stroke-width="1.19291"/>
<path d="M-9.15527e-05 1420L-1440 -20" stroke="#7684FE" stroke-opacity="0.75" stroke-width="1.19291"/>
<path d="M80 1380L-1360 -60" stroke="#7684FE" stroke-opacity="0.75" stroke-width="1.19291"/>
<path d="M160 1340L-1280 -100" stroke="#7684FE" stroke-opacity="0.75" stroke-width="1.19291"/>
<path d="M240 1300L-1200 -140" stroke="#7684FE" stroke-opacity="0.75" stroke-width="1.19291"/>
<path d="M320 1260L-1120 -180" stroke="#7684FE" stroke-opacity="0.75" stroke-width="1.19291"/>
<path d="M400 1220L-1040 -220" stroke="#7684FE" stroke-opacity="0.75" stroke-width="1.19291"/>
<path d="M480 1180L-960 -260" stroke="#7684FE" stroke-opacity="0.75" stroke-width="1.19291"/>
<path d="M560 1140L-880 -300" stroke="#7684FE" stroke-opacity="0.75" stroke-width="1.19291"/>
<path d="M640 1100L-800 -340" stroke="#7684FE" stroke-opacity="0.75" stroke-width="1.19291"/>
<path d="M720 1060L-720 -380" stroke="#7684FE" stroke-opacity="0.75" stroke-width="1.19291"/>
<path d="M800 1020L-640 -420" stroke="#7684FE" stroke-opacity="0.75" stroke-width="1.19291"/>
<path d="M880 980L-560 -460" stroke="#7684FE" stroke-opacity="0.75" stroke-width="1.19291"/>
<path d="M960 940L-480 -500" stroke="#7684FE" stroke-opacity="0.75" stroke-width="1.19291"/>
<path d="M1040 900L-400 -540" stroke="#7684FE" stroke-opacity="0.75" stroke-width="1.19291"/>
<path d="M1120 860L-320 -580" stroke="#7684FE" stroke-opacity="0.75" stroke-width="1.19291"/>
<path d="M1200 820L-240 -620" stroke="#7684FE" stroke-opacity="0.75" stroke-width="1.19291"/>
<path d="M1280 780L-160 -660" stroke="#7684FE" stroke-opacity="0.75" stroke-width="1.19291"/>
<path d="M1360 740L-80 -700" stroke="#7684FE" stroke-opacity="0.75" stroke-width="1.19291"/>
<path d="M1440 700L-3.60226e-05 -740" stroke="#7684FE" stroke-opacity="0.75" stroke-width="1.19291"/>
<path d="M1520 660L79.9999 -780" stroke="#7684FE" stroke-opacity="0.75" stroke-width="1.19291"/>
<path d="M1600 620L160 -820" stroke="#7684FE" stroke-opacity="0.75" stroke-width="1.19291"/>
<path d="M1680 580L240 -860" stroke="#7684FE" stroke-opacity="0.75" stroke-width="1.19291"/>
<path d="M1760 540L320 -900" stroke="#7684FE" stroke-opacity="0.75" stroke-width="1.19291"/>
<path d="M1840 500L400 -940" stroke="#7684FE" stroke-opacity="0.75" stroke-width="1.19291"/>
<path d="M1920 460L480 -980" stroke="#7684FE" stroke-opacity="0.75" stroke-width="1.19291"/>
<path d="M2000 420L560 -1020" stroke="#7684FE" stroke-opacity="0.75" stroke-width="1.19291"/>
<path d="M2080 380L640 -1060" stroke="#7684FE" stroke-opacity="0.75" stroke-width="1.19291"/>
<path d="M2880 -1100L-2240 1460" stroke="#6D79EB" stroke-width="1.19291"/>
<path d="M1040 900L-400 -540" stroke="#6D79EB" stroke-width="1.19291"/>
<rect x="214.169" y="31.5649" width="211.661" height="56.87" fill="white"/>
<g clip-path="url(#clip3_1354_10933)">
<path d="M223.199 84.4238V35.5763H228.676V36.8387H224.461V83.1614H228.676V84.4238H223.199Z" fill="#101010"/>
<path d="M231.14 42.1023C230.773 42.1023 230.481 41.9801 230.264 41.7358C230.047 41.4914 229.938 41.1928 229.938 40.8398C229.938 39.8761 230.298 39.0412 231.018 38.3354C231.737 37.6295 232.633 37.2766 233.705 37.2766C234.941 37.2766 235.972 37.6566 236.8 38.4168C237.628 39.177 238.049 40.1611 238.063 41.3692C238.063 41.9529 237.927 42.5095 237.656 43.0389C237.384 43.5683 237.058 44.0298 236.678 44.4235C236.298 44.8171 235.755 45.3194 235.049 45.9303C234.561 46.3511 233.882 46.9755 233.013 47.8035L231.812 48.9438L233.359 48.9641C235.49 48.9641 236.624 48.9302 236.76 48.8623C236.855 48.8352 237.018 48.2311 237.248 47.0501V46.9891H238.063V47.0501C238.049 47.0909 237.961 47.7085 237.798 48.903C237.635 50.0976 237.533 50.722 237.493 50.7763V50.8374H229.938V50.4505V50.2062C229.938 50.1112 229.979 50.0094 230.061 49.9008C230.142 49.7922 230.346 49.5546 230.671 49.1881C231.065 48.7537 231.404 48.3736 231.69 48.0479C231.812 47.9121 232.042 47.661 232.382 47.2945C232.721 46.928 232.952 46.6768 233.074 46.5411C233.196 46.4054 233.393 46.1814 233.665 45.8692C233.936 45.557 234.126 45.3262 234.235 45.1769C234.343 45.0276 234.499 44.8239 234.703 44.566C234.907 44.3081 235.049 44.0909 235.131 43.9145C235.212 43.738 235.314 43.5412 235.436 43.324C235.558 43.1068 235.646 42.8896 235.701 42.6724C235.755 42.4552 235.803 42.2516 235.843 42.0615C235.884 41.8715 235.904 41.6475 235.904 41.3896C235.904 40.5344 235.674 39.7946 235.212 39.1702C234.751 38.5458 234.092 38.2336 233.237 38.2336C232.789 38.2336 232.395 38.3489 232.056 38.5797C231.717 38.8105 231.479 39.0344 231.343 39.2516C231.208 39.4688 231.14 39.5978 231.14 39.6385C231.14 39.6521 231.174 39.6589 231.242 39.6589C231.486 39.6589 231.737 39.7539 231.995 39.9439C232.253 40.134 232.382 40.4462 232.382 40.8806C232.382 41.2199 232.273 41.505 232.056 41.7358C231.839 41.9665 231.533 42.0887 231.14 42.1023Z" fill="#92D192"/>
<path d="M261.173 46.0118C261.173 46.0118 261.173 45.9235 261.173 45.7471C261.173 45.5706 261.268 45.4349 261.458 45.3398H273.288C273.492 45.4484 273.594 45.5842 273.594 45.7471C273.594 45.91 273.492 46.0457 273.288 46.1543H261.458C261.268 46.0593 261.173 45.9235 261.173 45.7471V46.0118Z" fill="#F2777A"/>
<path d="M279.641 39.0684L279.376 39.1702C279.186 39.2381 278.915 39.3059 278.562 39.3738C278.209 39.4417 277.815 39.4892 277.381 39.5163H276.994V38.5797H277.381C278.019 38.5526 278.609 38.4507 279.152 38.2743C279.695 38.0978 280.076 37.9349 280.293 37.7856C280.51 37.6363 280.7 37.487 280.863 37.3376C280.89 37.2969 280.971 37.2766 281.107 37.2766C281.229 37.2766 281.345 37.3173 281.453 37.3987V43.4869L281.474 49.5953C281.569 49.6904 281.65 49.7514 281.718 49.7786C281.786 49.8057 281.949 49.8329 282.207 49.86C282.465 49.8872 282.885 49.9008 283.469 49.9008H283.999V50.8374H283.775C283.489 50.7967 282.41 50.7763 280.537 50.7763C278.691 50.7763 277.625 50.7967 277.34 50.8374H277.096V49.9008H277.625C277.924 49.9008 278.182 49.9008 278.399 49.9008C278.616 49.9008 278.786 49.894 278.908 49.8804C279.03 49.8668 279.139 49.8465 279.234 49.8193C279.329 49.7922 279.383 49.7786 279.397 49.7786C279.41 49.7786 279.451 49.7447 279.519 49.6768C279.587 49.6089 279.628 49.5818 279.641 49.5953V39.0684Z" fill="#F2777A"/>
<path d="M233.257 67.5747L232.993 67.6765C232.803 67.7444 232.531 67.8123 232.178 67.8802C231.825 67.948 231.432 67.9955 230.997 68.0227H230.61V67.0861H230.997C231.635 67.0589 232.226 66.9571 232.769 66.7806C233.312 66.6042 233.692 66.4413 233.909 66.292C234.126 66.1426 234.316 65.9933 234.479 65.844C234.506 65.8033 234.588 65.7829 234.723 65.7829C234.846 65.7829 234.961 65.8236 235.07 65.9051V71.9932L235.09 78.1017C235.185 78.1967 235.266 78.2578 235.334 78.2849C235.402 78.3121 235.565 78.3392 235.823 78.3664C236.081 78.3935 236.502 78.4071 237.085 78.4071H237.615V79.3438H237.391C237.106 79.303 236.027 79.2827 234.153 79.2827C232.307 79.2827 231.242 79.303 230.957 79.3438H230.712V78.4071H231.242C231.54 78.4071 231.798 78.4071 232.015 78.4071C232.233 78.4071 232.402 78.4003 232.524 78.3868C232.647 78.3732 232.755 78.3528 232.85 78.3257C232.945 78.2985 232.999 78.2849 233.013 78.2849C233.027 78.2849 233.067 78.251 233.135 78.1831C233.203 78.1153 233.244 78.0881 233.257 78.1017V67.5747Z" fill="#92D192"/>
<path d="M271.72 67.5747L271.456 67.6765C271.266 67.7444 270.994 67.8123 270.641 67.8802C270.288 67.948 269.895 67.9955 269.46 68.0227H269.073V67.0861H269.46C270.098 67.0589 270.689 66.9571 271.232 66.7806C271.775 66.6042 272.155 66.4413 272.372 66.292C272.589 66.1426 272.779 65.9933 272.942 65.844C272.969 65.8033 273.051 65.7829 273.187 65.7829C273.309 65.7829 273.424 65.8236 273.533 65.9051V71.9932L273.553 78.1017C273.648 78.1967 273.73 78.2578 273.797 78.2849C273.865 78.3121 274.028 78.3392 274.286 78.3664C274.544 78.3935 274.965 78.4071 275.548 78.4071H276.078V79.3438H275.854C275.569 79.303 274.49 79.2827 272.616 79.2827C270.77 79.2827 269.705 79.303 269.42 79.3438H269.175V78.4071H269.705C270.003 78.4071 270.261 78.4071 270.478 78.4071C270.696 78.4071 270.865 78.4003 270.987 78.3868C271.11 78.3732 271.218 78.3528 271.313 78.3257C271.408 78.2985 271.463 78.2849 271.476 78.2849C271.49 78.2849 271.53 78.251 271.598 78.1831C271.666 78.1153 271.707 78.0881 271.72 78.1017V67.5747Z" fill="#F2777A"/>
<path d="M285.709 36.8387V35.5763H291.186V84.4238H285.709V83.1614H289.924V36.8387H285.709Z" fill="#101010"/>
<path d="M304.659 84.4238V35.5763H310.137V36.8387H305.922V83.1614H310.137V84.4238H304.659Z" fill="#101010"/>
<path d="M312.091 46.0118C312.091 46.0118 312.091 45.9235 312.091 45.7471C312.091 45.5706 312.186 45.4349 312.377 45.3398H324.207C324.41 45.4484 324.512 45.5842 324.512 45.7471C324.512 45.91 324.41 46.0457 324.207 46.1543H312.377C312.186 46.0593 312.091 45.9235 312.091 45.7471V46.0118Z" fill="#101010"/>
<path d="M330.559 39.0684L330.295 39.1702C330.105 39.2381 329.833 39.3059 329.48 39.3738C329.127 39.4417 328.734 39.4892 328.299 39.5163H327.912V38.5797H328.299C328.937 38.5526 329.528 38.4507 330.071 38.2743C330.614 38.0978 330.994 37.9349 331.211 37.7856C331.428 37.6363 331.618 37.487 331.781 37.3376C331.808 37.2969 331.89 37.2766 332.026 37.2766C332.148 37.2766 332.263 37.3173 332.372 37.3987V43.4869L332.392 49.5953C332.487 49.6904 332.568 49.7514 332.636 49.7786C332.704 49.8057 332.867 49.8329 333.125 49.86C333.383 49.8872 333.804 49.9008 334.387 49.9008H334.917V50.8374H334.693C334.408 50.7967 333.329 50.7763 331.455 50.7763C329.609 50.7763 328.544 50.7967 328.259 50.8374H328.014V49.9008H328.544C328.842 49.9008 329.1 49.9008 329.317 49.9008C329.535 49.9008 329.704 49.894 329.826 49.8804C329.949 49.8668 330.057 49.8465 330.152 49.8193C330.247 49.7922 330.302 49.7786 330.315 49.7786C330.329 49.7786 330.369 49.7447 330.437 49.6768C330.505 49.6089 330.546 49.5818 330.559 49.5953V39.0684Z" fill="#101010"/>
<path d="M320.521 70.6086C320.155 70.6086 319.863 70.4864 319.646 70.2421C319.428 69.9978 319.32 69.6991 319.32 69.3462C319.32 68.3824 319.68 67.5476 320.399 66.8417C321.118 66.1358 322.014 65.7829 323.087 65.7829C324.322 65.7829 325.354 66.163 326.182 66.9232C327.01 67.6833 327.431 68.6675 327.444 69.8756C327.444 70.4593 327.308 71.0158 327.037 71.5452C326.765 72.0747 326.44 72.5362 326.06 72.9298C325.679 73.3235 325.136 73.8258 324.431 74.4366C323.942 74.8574 323.263 75.4818 322.394 76.3099L321.193 77.4501L322.741 77.4705C324.872 77.4705 326.005 77.4365 326.141 77.3687C326.236 77.3415 326.399 76.7375 326.63 75.5565V75.4954H327.444V75.5565C327.431 75.5972 327.342 76.2148 327.179 77.4094C327.017 78.6039 326.915 79.2284 326.874 79.2827V79.3438H319.32V78.9569V78.7125C319.32 78.6175 319.361 78.5157 319.442 78.4071C319.523 78.2985 319.727 78.061 320.053 77.6945C320.447 77.2601 320.786 76.88 321.071 76.5542C321.193 76.4185 321.424 76.1673 321.763 75.8008C322.103 75.4343 322.333 75.1832 322.456 75.0474C322.578 74.9117 322.775 74.6877 323.046 74.3755C323.318 74.0633 323.508 73.8325 323.616 73.6832C323.725 73.5339 323.881 73.3303 324.084 73.0724C324.288 72.8145 324.431 72.5973 324.512 72.4208C324.594 72.2443 324.695 72.0475 324.817 71.8303C324.94 71.6131 325.028 71.3959 325.082 71.1787C325.136 70.9615 325.184 70.7579 325.225 70.5679C325.265 70.3778 325.286 70.1539 325.286 69.896C325.286 69.0408 325.055 68.301 324.594 67.6765C324.132 67.0521 323.474 66.7399 322.618 66.7399C322.17 66.7399 321.777 66.8553 321.437 67.0861C321.098 67.3168 320.861 67.5408 320.725 67.758C320.589 67.9752 320.521 68.1041 320.521 68.1449C320.521 68.1584 320.555 68.1652 320.623 68.1652C320.867 68.1652 321.118 68.2602 321.376 68.4503C321.634 68.6403 321.763 68.9525 321.763 69.3869C321.763 69.7263 321.655 70.0113 321.437 70.2421C321.22 70.4729 320.915 70.595 320.521 70.6086Z" fill="#101010"/>
<path d="M336.627 36.8387V35.5763H342.105V84.4238H336.627V83.1614H340.842V36.8387H336.627Z" fill="#101010"/>
<path d="M353.949 58.0249C353.949 57.8485 354.044 57.7127 354.234 57.6177H367.204C367.408 57.7263 367.51 57.862 367.51 58.0249C367.51 58.1743 367.415 58.3032 367.225 58.4118L360.75 58.4322H354.275C354.057 58.3643 353.949 58.2286 353.949 58.0249ZM353.949 61.9751C353.949 61.7715 354.057 61.6357 354.275 61.5679H367.225C367.415 61.7036 367.51 61.8393 367.51 61.9751C367.51 62.1516 367.408 62.2873 367.204 62.3823H354.234C354.044 62.2873 353.949 62.1516 353.949 61.9751Z" fill="#101010"/>
<path d="M379.336 84.4238V35.5763H384.813V36.8387H380.598V83.1614H384.813V84.4238H379.336Z" fill="#101010"/>
<path d="M386.768 46.0118C386.768 46.0118 386.768 45.9235 386.768 45.7471C386.768 45.5706 386.863 45.4349 387.053 45.3398H398.883C399.087 45.4484 399.188 45.5842 399.188 45.7471C399.188 45.91 399.087 46.0457 398.883 46.1543H387.053C386.863 46.0593 386.768 45.9235 386.768 45.7471V46.0118Z" fill="#101010"/>
<path d="M410.306 50.8374C410.061 50.7967 409.186 50.7763 407.679 50.7763C406.104 50.7763 405.195 50.7967 404.951 50.8374H404.767V49.9008H405.399C405.67 49.9008 405.853 49.9008 405.948 49.9008C406.043 49.9008 406.159 49.8872 406.295 49.86C406.43 49.8329 406.525 49.799 406.58 49.7582C406.634 49.7175 406.681 49.6632 406.722 49.5953C406.736 49.5682 406.742 49.2017 406.742 48.4958V47.4777H401.469V46.5411L404.543 41.8376C406.62 38.6883 407.672 37.1069 407.699 37.0933C407.727 37.0662 407.869 37.0526 408.127 37.0526H408.494L408.616 37.1748V46.5411H410.489V47.4777H408.616V48.5162C408.616 49.0727 408.616 49.3985 408.616 49.4935C408.616 49.5886 408.656 49.67 408.738 49.7379C408.847 49.8329 409.233 49.8872 409.899 49.9008H410.489V50.8374H410.306ZM406.865 46.5411V39.7403L402.405 46.5207L404.625 46.5411H406.865Z" fill="#101010"/>
<path d="M397.315 67.5747L397.05 67.6765C396.86 67.7444 396.589 67.8123 396.236 67.8802C395.883 67.948 395.489 67.9955 395.055 68.0227H394.668V67.0861H395.055C395.693 67.0589 396.283 66.9571 396.826 66.7806C397.369 66.6042 397.749 66.4413 397.967 66.292C398.184 66.1426 398.374 65.9933 398.537 65.844C398.564 65.8033 398.645 65.7829 398.781 65.7829C398.903 65.7829 399.019 65.8236 399.127 65.9051V71.9932L399.148 78.1017C399.243 78.1967 399.324 78.2578 399.392 78.2849C399.46 78.3121 399.623 78.3392 399.881 78.3664C400.139 78.3935 400.559 78.4071 401.143 78.4071H401.672V79.3438H401.448C401.163 79.303 400.084 79.2827 398.211 79.2827C396.365 79.2827 395.299 79.303 395.014 79.3438H394.77V78.4071H395.299C395.598 78.4071 395.856 78.4071 396.073 78.4071C396.29 78.4071 396.46 78.4003 396.582 78.3868C396.704 78.3732 396.813 78.3528 396.908 78.3257C397.003 78.2985 397.057 78.2849 397.071 78.2849C397.084 78.2849 397.125 78.251 397.193 78.1831C397.261 78.1153 397.301 78.0881 397.315 78.1017V67.5747Z" fill="#101010"/>
<path d="M411.303 36.8387V35.5763H416.781V84.4238H411.303V83.1614H415.518V36.8387H411.303Z" fill="#101010"/>
</g>
</g>
<path d="M383.565 140.671L400 140L389.602 152.746L389.267 145.367L383.565 140.671Z" fill="#A0D49C"/>
<path d="M320 180L396.422 141.789" stroke="#A0D49C" stroke-width="1.5"/>
<path d="M285.834 155.379L280 140L295.38 145.833L288.485 148.485L285.834 155.379Z" fill="#E3A2A0"/>
<path d="M320 180L282.828 142.829" stroke="#E3A2A0" stroke-width="1.5"/>
<path d="M640 0H0V360H640V0Z" stroke="#A0A0A0" stroke-width="2"/>
<path d="M256.435 219.329L240 220L250.398 207.254L250.733 214.633L256.435 219.329Z" fill="#40A839"/>
<path d="M320 180L243.578 218.211" stroke="#40A839" stroke-width="1.5"/>
<path d="M165.834 155.379L160 140L175.38 145.833L168.485 148.485L165.834 155.379Z" fill="#C74440"/>
<path d="M240 220L162.828 142.829" stroke="#C74440" stroke-width="1.5"/>
<path d="M172.915 150.187L160 140L176.189 137.09L171.642 142.91L172.915 150.187Z" fill="#202020"/>
<path d="M320 180L163.881 140.97" stroke="#202020" stroke-width="1.5"/>
<path d="M317.794 208.118H266.994V236.763H317.794V208.118Z" fill="white"/>
<g clip-path="url(#clip4_1354_10933)">
<path d="M270.966 226.836C270.966 226.836 270.966 226.752 270.966 226.583C270.966 226.415 271.056 226.286 271.237 226.195H282.515C282.709 226.299 282.806 226.428 282.806 226.583C282.806 226.739 282.709 226.868 282.515 226.972H271.237C271.056 226.881 270.966 226.752 270.966 226.583V226.836Z" fill="#40A839"/>
<path d="M288.57 220.217L288.318 220.314C288.137 220.379 287.878 220.444 287.542 220.508C287.205 220.573 286.83 220.618 286.416 220.644H286.047V219.751H286.416C287.024 219.725 287.587 219.628 288.105 219.46C288.622 219.292 288.985 219.137 289.192 218.994C289.399 218.852 289.58 218.71 289.735 218.567C289.761 218.528 289.839 218.509 289.968 218.509C290.084 218.509 290.194 218.548 290.298 218.625V224.429L290.317 230.252C290.408 230.343 290.486 230.401 290.55 230.427C290.615 230.453 290.77 230.478 291.016 230.504C291.262 230.53 291.663 230.543 292.22 230.543H292.724V231.436H292.511C292.239 231.397 291.21 231.378 289.424 231.378C287.665 231.378 286.649 231.397 286.377 231.436H286.144V230.543H286.649C286.934 230.543 287.179 230.543 287.386 230.543C287.593 230.543 287.755 230.537 287.872 230.524C287.988 230.511 288.092 230.491 288.182 230.466C288.273 230.44 288.325 230.427 288.338 230.427C288.35 230.427 288.389 230.394 288.454 230.33C288.519 230.265 288.558 230.239 288.57 230.252V220.217Z" fill="#40A839"/>
<path d="M294.762 218.121L296.529 218.043C297.706 217.992 298.301 217.966 298.314 217.966H298.431V223.498C299.311 222.967 300.326 222.702 301.478 222.702C302.785 222.702 303.827 223.109 304.603 223.925C305.379 224.74 305.774 225.814 305.787 227.147C305.787 228.428 305.367 229.482 304.525 230.31C303.684 231.139 302.539 231.553 301.09 231.553H301.032C299.958 231.553 298.974 231.171 298.081 230.408L297.247 231.417L296.645 231.436H296.043V225.594C296.043 224.805 296.043 223.938 296.043 222.993C296.043 222.048 296.05 221.466 296.063 221.246C296.063 220.392 296.05 219.881 296.024 219.713C295.998 219.544 295.907 219.441 295.752 219.402C295.571 219.35 295.306 219.324 294.956 219.324H294.704V218.121H294.762ZM298.547 229.398L298.644 229.515C298.709 229.592 298.774 229.67 298.838 229.748C298.903 229.825 299.007 229.916 299.149 230.019C299.291 230.123 299.434 230.213 299.576 230.291C299.718 230.369 299.886 230.433 300.081 230.485C300.275 230.537 300.488 230.563 300.721 230.563C301.252 230.563 301.717 230.427 302.119 230.155C302.52 229.883 302.779 229.463 302.895 228.894C302.973 228.518 303.011 227.878 303.011 226.972C303.011 226.532 303.005 226.183 302.992 225.924C302.979 225.665 302.927 225.374 302.837 225.05C302.746 224.727 302.63 224.481 302.487 224.313C302.345 224.145 302.125 224.002 301.827 223.886C301.53 223.769 301.187 223.711 300.799 223.711C300.009 223.711 299.311 223.989 298.702 224.546L298.547 224.682V229.398Z" fill="#40A839"/>
<path d="M302.808 212.473C302.808 212.369 302.84 212.279 302.905 212.201C302.969 212.123 303.066 212.085 303.196 212.085C303.286 212.085 303.364 212.117 303.429 212.182C303.493 212.233 303.558 212.356 303.623 212.55C303.752 213.029 304.018 213.398 304.419 213.657C304.561 213.747 304.632 213.864 304.632 214.006C304.632 214.123 304.613 214.2 304.574 214.239C304.535 214.278 304.445 214.336 304.302 214.414C303.746 214.698 303.261 215.106 302.846 215.637C302.821 215.662 302.788 215.701 302.749 215.753C302.711 215.805 302.678 215.844 302.652 215.87C302.626 215.895 302.594 215.908 302.555 215.908C302.516 215.908 302.471 215.915 302.419 215.928C302.329 215.928 302.245 215.895 302.167 215.831C302.089 215.766 302.044 215.669 302.031 215.54C302.031 215.294 302.335 214.912 302.943 214.394H299.624L296.305 214.375C296.137 214.258 296.053 214.136 296.053 214.006C296.053 213.916 296.137 213.786 296.305 213.618H303.273C302.963 213.126 302.808 212.745 302.808 212.473Z" fill="#40A839"/>
<path d="M310.108 226.416L309.929 226.484C309.801 226.53 309.618 226.576 309.38 226.622C309.142 226.667 308.877 226.699 308.584 226.718H308.324V226.087H308.584C309.014 226.068 309.412 226 309.778 225.881C310.144 225.762 310.4 225.652 310.547 225.551C310.693 225.451 310.821 225.35 310.931 225.249C310.949 225.222 311.004 225.208 311.096 225.208C311.178 225.208 311.256 225.236 311.329 225.291V229.394L311.343 233.511C311.407 233.575 311.462 233.616 311.507 233.634C311.553 233.652 311.663 233.671 311.837 233.689C312.01 233.707 312.294 233.716 312.687 233.716H313.044V234.348H312.893C312.701 234.32 311.974 234.306 310.711 234.306C309.467 234.306 308.749 234.32 308.557 234.348H308.392V233.716H308.749C308.95 233.716 309.124 233.716 309.27 233.716C309.417 233.716 309.531 233.712 309.614 233.703C309.696 233.694 309.769 233.68 309.833 233.662C309.897 233.643 309.934 233.634 309.943 233.634C309.952 233.634 309.979 233.611 310.025 233.565C310.071 233.52 310.098 233.501 310.108 233.511V226.416Z" fill="#40A839"/>
</g>
<path d="M202.229 183.623H165.809V212.268H202.229V183.623Z" fill="white"/>
<g clip-path="url(#clip5_1354_10933)">
<path d="M170.938 198.614C170.589 198.614 170.31 198.498 170.103 198.265C169.896 198.032 169.793 197.747 169.793 197.411C169.793 196.492 170.136 195.696 170.821 195.023C171.507 194.35 172.361 194.014 173.384 194.014C174.561 194.014 175.545 194.376 176.334 195.101C177.123 195.825 177.524 196.764 177.537 197.915C177.537 198.472 177.408 199.002 177.149 199.507C176.89 200.012 176.58 200.452 176.217 200.827C175.855 201.202 175.338 201.681 174.665 202.263C174.199 202.664 173.552 203.26 172.724 204.049L171.578 205.136L173.054 205.155C175.085 205.155 176.166 205.123 176.295 205.058C176.386 205.032 176.541 204.456 176.761 203.331V203.272H177.537V203.331C177.524 203.369 177.44 203.958 177.285 205.097C177.13 206.236 177.033 206.831 176.994 206.883V206.941H169.793V206.572V206.339C169.793 206.249 169.832 206.152 169.909 206.048C169.987 205.945 170.181 205.718 170.492 205.369C170.867 204.955 171.19 204.592 171.462 204.282C171.578 204.152 171.798 203.913 172.122 203.564C172.445 203.214 172.665 202.975 172.782 202.845C172.898 202.716 173.086 202.503 173.345 202.205C173.604 201.907 173.785 201.687 173.888 201.545C173.992 201.403 174.141 201.209 174.335 200.963C174.529 200.717 174.665 200.51 174.742 200.342C174.82 200.173 174.917 199.986 175.033 199.779C175.15 199.572 175.234 199.365 175.286 199.158C175.338 198.95 175.383 198.756 175.422 198.575C175.46 198.394 175.48 198.181 175.48 197.935C175.48 197.119 175.26 196.414 174.82 195.819C174.38 195.224 173.752 194.926 172.937 194.926C172.51 194.926 172.135 195.036 171.811 195.256C171.488 195.476 171.261 195.69 171.132 195.897C171.003 196.104 170.938 196.227 170.938 196.265C170.938 196.278 170.97 196.285 171.035 196.285C171.268 196.285 171.507 196.375 171.753 196.557C171.999 196.738 172.122 197.035 172.122 197.449C172.122 197.773 172.018 198.045 171.811 198.265C171.604 198.485 171.313 198.601 170.938 198.614Z" fill="#C74440"/>
<path d="M179.148 193.626L180.915 193.548C182.092 193.497 182.687 193.471 182.7 193.471H182.817V199.002C183.697 198.472 184.713 198.207 185.864 198.207C187.171 198.207 188.213 198.614 188.989 199.43C189.766 200.245 190.16 201.319 190.173 202.652C190.173 203.933 189.753 204.987 188.912 205.815C188.07 206.644 186.925 207.058 185.476 207.058H185.418C184.344 207.058 183.36 206.676 182.467 205.912L181.633 206.922L181.031 206.941H180.429V201.099C180.429 200.309 180.429 199.442 180.429 198.498C180.429 197.553 180.436 196.971 180.449 196.751C180.449 195.897 180.436 195.386 180.41 195.218C180.384 195.049 180.294 194.946 180.138 194.907C179.957 194.855 179.692 194.829 179.342 194.829H179.09V193.626H179.148ZM182.933 204.903L183.03 205.02C183.095 205.097 183.16 205.175 183.224 205.252C183.289 205.33 183.393 205.421 183.535 205.524C183.677 205.628 183.82 205.718 183.962 205.796C184.104 205.874 184.273 205.938 184.467 205.99C184.661 206.042 184.874 206.068 185.107 206.068C185.638 206.068 186.104 205.932 186.505 205.66C186.906 205.388 187.165 204.968 187.281 204.398C187.359 204.023 187.398 203.383 187.398 202.477C187.398 202.037 187.391 201.688 187.378 201.429C187.365 201.17 187.313 200.879 187.223 200.555C187.132 200.232 187.016 199.986 186.874 199.818C186.731 199.649 186.511 199.507 186.214 199.391C185.916 199.274 185.573 199.216 185.185 199.216C184.395 199.216 183.697 199.494 183.089 200.051L182.933 200.187V204.903Z" fill="#C74440"/>
<path d="M187.194 187.978C187.194 187.874 187.226 187.784 187.291 187.706C187.356 187.628 187.453 187.589 187.582 187.589C187.673 187.589 187.75 187.622 187.815 187.687C187.88 187.738 187.944 187.861 188.009 188.055C188.138 188.534 188.404 188.903 188.805 189.162C188.947 189.252 189.018 189.369 189.018 189.511C189.018 189.627 188.999 189.705 188.96 189.744C188.921 189.783 188.831 189.841 188.688 189.919C188.132 190.203 187.647 190.611 187.233 191.141C187.207 191.167 187.174 191.206 187.136 191.258C187.097 191.31 187.064 191.349 187.038 191.374C187.013 191.4 186.98 191.413 186.941 191.413C186.903 191.413 186.857 191.42 186.806 191.433C186.715 191.433 186.631 191.4 186.553 191.336C186.476 191.271 186.43 191.174 186.417 191.044C186.417 190.799 186.721 190.417 187.33 189.899H184.011L180.691 189.88C180.523 189.763 180.439 189.64 180.439 189.511C180.439 189.42 180.523 189.291 180.691 189.123H187.66C187.349 188.631 187.194 188.249 187.194 187.978Z" fill="#C74440"/>
<path d="M193.066 203.965C192.819 203.965 192.623 203.883 192.476 203.718C192.33 203.554 192.257 203.352 192.257 203.115C192.257 202.465 192.499 201.902 192.984 201.427C193.469 200.951 194.073 200.713 194.796 200.713C195.628 200.713 196.323 200.969 196.881 201.482C197.439 201.994 197.723 202.657 197.732 203.471C197.732 203.865 197.641 204.24 197.458 204.597C197.275 204.953 197.055 205.265 196.799 205.53C196.543 205.795 196.177 206.134 195.701 206.545C195.372 206.829 194.914 207.25 194.329 207.808L193.519 208.576L194.562 208.59C195.999 208.59 196.762 208.567 196.854 208.521C196.918 208.503 197.028 208.096 197.183 207.3V207.259H197.732V207.3C197.723 207.328 197.664 207.744 197.554 208.549C197.444 209.354 197.375 209.775 197.348 209.811V209.853H192.257V209.592V209.427C192.257 209.363 192.284 209.294 192.339 209.221C192.394 209.148 192.531 208.988 192.751 208.741C193.016 208.448 193.245 208.192 193.437 207.973C193.519 207.881 193.675 207.712 193.904 207.465C194.132 207.218 194.288 207.049 194.37 206.957C194.452 206.866 194.585 206.715 194.768 206.504C194.951 206.294 195.079 206.138 195.152 206.038C195.226 205.937 195.331 205.8 195.468 205.626C195.605 205.452 195.701 205.306 195.756 205.187C195.811 205.068 195.88 204.935 195.962 204.789C196.044 204.642 196.104 204.496 196.14 204.35C196.177 204.203 196.209 204.066 196.236 203.938C196.264 203.81 196.278 203.659 196.278 203.485C196.278 202.909 196.122 202.41 195.811 201.989C195.5 201.569 195.056 201.358 194.48 201.358C194.178 201.358 193.913 201.436 193.684 201.591C193.455 201.747 193.295 201.898 193.204 202.044C193.112 202.191 193.066 202.278 193.066 202.305C193.066 202.314 193.089 202.319 193.135 202.319C193.3 202.319 193.469 202.383 193.643 202.511C193.817 202.639 193.904 202.849 193.904 203.142C193.904 203.371 193.83 203.563 193.684 203.718C193.538 203.874 193.332 203.956 193.066 203.965Z" fill="#C74440"/>
</g>
<path d="M387.315 173.487H360.662V202.13H387.315V173.487Z" fill="white"/>
<g clip-path="url(#clip6_1354_10933)">
<path d="M364.71 183.489L366.477 183.412C367.654 183.36 368.249 183.334 368.262 183.334H368.379V188.865C369.258 188.335 370.274 188.069 371.426 188.069C372.732 188.069 373.774 188.477 374.55 189.292C375.327 190.107 375.721 191.181 375.734 192.514C375.734 193.795 375.314 194.849 374.473 195.677C373.632 196.505 372.487 196.919 371.037 196.919H370.979C369.905 196.919 368.922 196.538 368.029 195.774L367.195 196.784L366.593 196.803H365.991V190.961C365.991 190.172 365.991 189.305 365.991 188.361C365.991 187.416 365.998 186.834 366.011 186.614C366.011 185.76 365.998 185.249 365.972 185.081C365.946 184.912 365.855 184.809 365.7 184.77C365.519 184.718 365.254 184.692 364.905 184.692H364.652V183.489H364.71ZM368.495 194.765L368.592 194.882C368.657 194.959 368.721 195.037 368.786 195.114C368.851 195.192 368.954 195.283 369.097 195.386C369.239 195.49 369.381 195.58 369.524 195.658C369.666 195.736 369.834 195.8 370.028 195.852C370.222 195.904 370.436 195.93 370.669 195.93C371.199 195.93 371.665 195.794 372.066 195.522C372.467 195.25 372.726 194.83 372.842 194.261C372.92 193.885 372.959 193.245 372.959 192.339C372.959 191.899 372.952 191.55 372.939 191.291C372.926 191.032 372.875 190.741 372.784 190.418C372.694 190.094 372.577 189.848 372.435 189.68C372.292 189.512 372.072 189.37 371.775 189.253C371.477 189.137 371.134 189.079 370.746 189.079C369.957 189.079 369.258 189.357 368.65 189.913L368.495 190.049V194.765Z" fill="#A0D49C"/>
<path d="M372.755 177.841C372.755 177.738 372.787 177.647 372.852 177.57C372.917 177.492 373.014 177.453 373.143 177.453C373.234 177.453 373.311 177.485 373.376 177.55C373.441 177.602 373.505 177.725 373.57 177.919C373.7 178.398 373.965 178.766 374.366 179.025C374.508 179.116 374.579 179.232 374.579 179.375C374.579 179.491 374.56 179.569 374.521 179.607C374.482 179.646 374.392 179.704 374.249 179.782C373.693 180.067 373.208 180.474 372.794 181.005C372.768 181.031 372.736 181.069 372.697 181.121C372.658 181.173 372.626 181.212 372.6 181.238C372.574 181.264 372.542 181.276 372.503 181.276C372.464 181.276 372.419 181.283 372.367 181.296C372.276 181.296 372.192 181.264 372.115 181.199C372.037 181.134 371.992 181.037 371.979 180.908C371.979 180.662 372.283 180.28 372.891 179.763H369.572L366.253 179.743C366.085 179.627 366.001 179.504 366.001 179.375C366.001 179.284 366.085 179.155 366.253 178.986H373.221C372.91 178.495 372.755 178.113 372.755 177.841Z" fill="#A0D49C"/>
<path d="M380.054 191.783L379.876 191.852C379.748 191.898 379.565 191.943 379.327 191.989C379.089 192.035 378.824 192.067 378.531 192.085H378.27V191.454H378.531C378.961 191.436 379.359 191.367 379.725 191.248C380.091 191.129 380.347 191.02 380.493 190.919C380.64 190.818 380.768 190.718 380.877 190.617C380.896 190.59 380.951 190.576 381.042 190.576C381.124 190.576 381.202 190.603 381.275 190.658V194.761L381.289 198.877C381.353 198.941 381.408 198.983 381.454 199.001C381.499 199.019 381.609 199.037 381.783 199.056C381.957 199.074 382.24 199.083 382.634 199.083H382.991V199.714H382.84C382.647 199.687 381.92 199.673 380.658 199.673C379.414 199.673 378.696 199.687 378.504 199.714H378.339V199.083H378.696C378.897 199.083 379.071 199.083 379.217 199.083C379.364 199.083 379.478 199.079 379.56 199.069C379.643 199.06 379.716 199.047 379.78 199.028C379.844 199.01 379.88 199.001 379.889 199.001C379.899 199.001 379.926 198.978 379.972 198.932C380.018 198.886 380.045 198.868 380.054 198.877V191.783Z" fill="#A0D49C"/>
</g>
<path d="M335.266 125.441H308.305V154.084H335.266V125.441Z" fill="white"/>
<g clip-path="url(#clip7_1354_10933)">
<path d="M312.354 135.443L314.12 135.366C315.298 135.314 315.893 135.288 315.906 135.288H316.022V140.819C316.902 140.289 317.918 140.024 319.069 140.024C320.376 140.024 321.417 140.431 322.194 141.246C322.97 142.061 323.365 143.135 323.378 144.468C323.378 145.749 322.957 146.803 322.116 147.631C321.275 148.459 320.13 148.874 318.681 148.874H318.623C317.549 148.874 316.565 148.492 315.673 147.728L314.838 148.738L314.237 148.757H313.635V142.915C313.635 142.126 313.635 141.259 313.635 140.315C313.635 139.37 313.641 138.788 313.654 138.568C313.654 137.714 313.641 137.203 313.615 137.035C313.59 136.867 313.499 136.763 313.344 136.724C313.163 136.672 312.897 136.647 312.548 136.647H312.296V135.443H312.354ZM316.139 146.719L316.236 146.836C316.3 146.913 316.365 146.991 316.43 147.069C316.494 147.146 316.598 147.237 316.74 147.34C316.882 147.444 317.025 147.534 317.167 147.612C317.309 147.69 317.478 147.754 317.672 147.806C317.866 147.858 318.079 147.884 318.312 147.884C318.843 147.884 319.308 147.748 319.71 147.476C320.111 147.204 320.369 146.784 320.486 146.215C320.564 145.839 320.602 145.199 320.602 144.293C320.602 143.853 320.596 143.504 320.583 143.245C320.57 142.986 320.518 142.695 320.428 142.372C320.337 142.048 320.221 141.803 320.078 141.634C319.936 141.466 319.716 141.324 319.418 141.207C319.121 141.091 318.778 141.033 318.39 141.033C317.601 141.033 316.902 141.311 316.294 141.867L316.139 142.003V146.719Z" fill="#E3A2A0"/>
<path d="M320.399 129.795C320.399 129.692 320.431 129.601 320.496 129.524C320.56 129.446 320.657 129.407 320.787 129.407C320.877 129.407 320.955 129.44 321.02 129.504C321.084 129.556 321.149 129.679 321.214 129.873C321.343 130.352 321.608 130.721 322.009 130.979C322.152 131.07 322.223 131.186 322.223 131.329C322.223 131.445 322.203 131.523 322.165 131.562C322.126 131.6 322.035 131.659 321.893 131.736C321.337 132.021 320.851 132.428 320.437 132.959C320.411 132.985 320.379 133.024 320.34 133.075C320.302 133.127 320.269 133.166 320.243 133.192C320.217 133.218 320.185 133.231 320.146 133.231C320.107 133.231 320.062 133.237 320.01 133.25C319.92 133.25 319.836 133.218 319.758 133.153C319.68 133.088 319.635 132.991 319.622 132.862C319.622 132.616 319.926 132.234 320.534 131.717H317.216L313.897 131.697C313.729 131.581 313.645 131.458 313.645 131.329C313.645 131.238 313.729 131.109 313.897 130.94H320.864C320.554 130.449 320.399 130.067 320.399 129.795Z" fill="#E3A2A0"/>
<path d="M326.271 145.782C326.024 145.782 325.827 145.7 325.681 145.535C325.534 145.37 325.461 145.169 325.461 144.931C325.461 144.282 325.704 143.719 326.188 143.244C326.673 142.768 327.277 142.53 328 142.53C328.832 142.53 329.527 142.786 330.085 143.298C330.643 143.811 330.927 144.474 330.936 145.288C330.936 145.681 330.844 146.056 330.662 146.413C330.479 146.77 330.259 147.081 330.003 147.346C329.747 147.612 329.381 147.95 328.905 148.362C328.576 148.645 328.118 149.066 327.533 149.624L326.723 150.392L327.766 150.406C329.202 150.406 329.966 150.383 330.058 150.337C330.122 150.319 330.232 149.912 330.387 149.116V149.075H330.936V149.116C330.927 149.144 330.867 149.56 330.758 150.365C330.648 151.17 330.579 151.591 330.552 151.627V151.668H325.461V151.408V151.243C325.461 151.179 325.489 151.11 325.543 151.037C325.598 150.964 325.736 150.804 325.955 150.557C326.22 150.264 326.449 150.008 326.641 149.789C326.723 149.697 326.879 149.528 327.108 149.281C327.336 149.034 327.492 148.865 327.574 148.773C327.657 148.682 327.789 148.531 327.972 148.32C328.155 148.11 328.283 147.955 328.356 147.854C328.43 147.753 328.535 147.616 328.672 147.442C328.809 147.268 328.905 147.122 328.96 147.003C329.015 146.884 329.084 146.752 329.166 146.605C329.248 146.459 329.308 146.313 329.344 146.166C329.381 146.02 329.413 145.883 329.44 145.755C329.468 145.626 329.481 145.476 329.481 145.302C329.481 144.725 329.326 144.227 329.015 143.806C328.704 143.385 328.26 143.175 327.684 143.175C327.382 143.175 327.117 143.253 326.888 143.408C326.659 143.564 326.499 143.715 326.408 143.861C326.316 144.007 326.271 144.094 326.271 144.122C326.271 144.131 326.294 144.135 326.339 144.135C326.504 144.135 326.673 144.199 326.847 144.328C327.021 144.456 327.108 144.666 327.108 144.959C327.108 145.187 327.034 145.379 326.888 145.535C326.742 145.691 326.536 145.773 326.271 145.782Z" fill="#E3A2A0"/>
</g>
<path d="M142.981 38.8013C154.128 30.8908 172.826 40.5992 167.432 53.184C182.965 47.1433 186.489 73.6794 174.983 76.9155C187.352 81.2303 182.174 101.726 167.432 98.13C178.651 104.746 172.466 122.94 159.522 113.951C164.412 123.444 147.296 133.368 138.667 120.064C142.406 133.008 119.25 138.761 112.059 126.176C112.634 139.121 90.8442 140.199 90.8442 128.693C87.3924 139.336 69.6298 133.008 72.1467 120.064C65.5307 130.419 48.4153 120.064 54.8875 109.996C44.532 117.475 29.3582 103.164 40.1453 93.4556C27.2008 94.8939 25.403 75.4772 40.1453 71.522C26.6255 67.4948 34.7517 47.0714 45.8983 50.3075C37.844 40.8149 56.3258 30.1717 67.8319 38.8013C61.7912 24.9939 84.372 17.5869 90.8442 31.9695C89.406 18.7375 114.576 17.2273 117.093 30.1717C121.983 16.652 145.139 25.4973 142.981 38.8013Z" fill="white" stroke="#606060" stroke-width="1.5"/>
<path d="M43.8805 174.879C45.2838 168.331 55.2238 162.476 57.2701 176.118C57.2701 180.398 52.768 185.17 48.792 184.936C44.8161 184.702 42.4772 181.428 43.8805 174.879Z" fill="white" stroke="#606060" stroke-width="1.5"/>
<path d="M36.8488 137.365C39.548 125.686 54.728 126.44 57.0697 140.46C58.504 149.048 51.9512 155.369 46.6432 155.162C40.0083 154.904 33.6893 151.035 36.8488 137.365Z" fill="white" stroke="#606060" stroke-width="1.5"/>
<path d="M58.6546 197.757C60.0042 191.918 67.5942 192.295 68.7651 199.305C69.4822 203.599 66.2058 206.759 63.5518 206.656C60.2344 206.527 57.0749 204.592 58.6546 197.757Z" fill="white" stroke="#606060" stroke-width="1.5"/>
<rect x="76.9601" y="50.499" width="55.529" height="56.87" fill="white"/>
<g clip-path="url(#clip8_1354_10933)">
<path d="M85.9911 103.359V54.5092H91.4686V55.7717H87.2536V102.096H91.4686V103.359H85.9911Z" fill="#111111"/>
<path d="M93.4234 64.9449C93.4234 64.9449 93.4234 64.8566 93.4234 64.6802C93.4234 64.5037 93.5184 64.3679 93.7085 64.2729H105.539C105.743 64.3815 105.845 64.5173 105.845 64.6802C105.845 64.8431 105.743 64.9788 105.539 65.0874H93.7085C93.5184 64.9924 93.4234 64.8566 93.4234 64.6802V64.9449Z" fill="#111111"/>
<path d="M111.892 58.0015L111.627 58.1033C111.437 58.1712 111.166 58.239 110.813 58.3069C110.46 58.3748 110.066 58.4223 109.632 58.4494H109.245V57.5128H109.632C110.27 57.4856 110.86 57.3838 111.403 57.2073C111.946 57.0309 112.327 56.868 112.544 56.7186C112.761 56.5693 112.951 56.42 113.114 56.2707C113.141 56.2299 113.223 56.2096 113.358 56.2096C113.48 56.2096 113.596 56.2503 113.704 56.3317V62.4201L113.725 68.5289C113.82 68.6239 113.901 68.685 113.969 68.7121C114.037 68.7393 114.2 68.7664 114.458 68.7936C114.716 68.8207 115.137 68.8343 115.72 68.8343H116.25V69.771H116.026C115.741 69.7303 114.661 69.7099 112.788 69.7099C110.942 69.7099 109.876 69.7303 109.591 69.771H109.347V68.8343H109.876C110.175 68.8343 110.433 68.8343 110.65 68.8343C110.867 68.8343 111.037 68.8275 111.159 68.814C111.281 68.8004 111.39 68.78 111.485 68.7529C111.58 68.7257 111.634 68.7121 111.648 68.7121C111.661 68.7121 111.702 68.6782 111.77 68.6103C111.838 68.5425 111.879 68.5153 111.892 68.5289V58.0015Z" fill="#111111"/>
<path d="M101.853 89.5428C101.487 89.5428 101.195 89.4206 100.978 89.1763C100.761 88.9319 100.652 88.6333 100.652 88.2803C100.652 87.3165 101.012 86.4816 101.731 85.7757C102.451 85.0698 103.347 84.7169 104.419 84.7169C105.654 84.7169 106.686 85.097 107.514 85.8572C108.342 86.6174 108.763 87.6016 108.777 88.8098C108.777 89.3935 108.641 89.9501 108.369 90.4795C108.098 91.0089 107.772 91.4705 107.392 91.8641C107.012 92.2578 106.469 92.7601 105.763 93.371C105.274 93.7918 104.596 94.4162 103.727 95.2443L102.525 96.3846L104.073 96.405C106.204 96.405 107.338 96.371 107.474 96.3032C107.569 96.276 107.731 95.6719 107.962 94.4909V94.4298H108.777V94.4909C108.763 94.5316 108.675 95.1493 108.512 96.3439C108.349 97.5385 108.247 98.1629 108.207 98.2172V98.2783H100.652V97.8914V97.6471C100.652 97.5521 100.693 97.4502 100.774 97.3416C100.856 97.233 101.059 96.9955 101.385 96.629C101.779 96.1946 102.118 95.8145 102.403 95.4887C102.525 95.3529 102.756 95.1018 103.096 94.7352C103.435 94.3687 103.666 94.1176 103.788 93.9818C103.91 93.8461 104.107 93.6221 104.378 93.3099C104.65 92.9976 104.84 92.7669 104.949 92.6175C105.057 92.4682 105.213 92.2646 105.417 92.0067C105.621 91.7487 105.763 91.5315 105.845 91.3551C105.926 91.1786 106.028 90.9818 106.15 90.7646C106.272 90.5474 106.36 90.3302 106.415 90.113C106.469 89.8958 106.516 89.6921 106.557 89.5021C106.598 89.312 106.618 89.088 106.618 88.8301C106.618 87.9749 106.388 87.2351 105.926 86.6106C105.464 85.9862 104.806 85.6739 103.951 85.6739C103.503 85.6739 103.109 85.7893 102.77 86.0201C102.43 86.2509 102.193 86.4749 102.057 86.6921C101.921 86.9093 101.853 87.0382 101.853 87.0789C101.853 87.0925 101.887 87.0993 101.955 87.0993C102.2 87.0993 102.451 87.1943 102.709 87.3844C102.967 87.5744 103.096 87.8867 103.096 88.3211C103.096 88.6604 102.987 88.9455 102.77 89.1763C102.553 89.4071 102.247 89.5292 101.853 89.5428Z" fill="#111111"/>
<path d="M117.96 55.7717V54.5092H123.438V103.359H117.96V102.096H122.175V55.7717H117.96Z" fill="#111111"/>
</g>
<path d="M491.41 38.8013C480.263 30.8908 461.566 40.5992 466.959 53.184C451.426 47.1433 447.902 73.6794 459.408 76.9155C447.039 81.2303 452.217 101.726 466.959 98.13C455.741 104.746 461.925 122.94 474.87 113.951C469.98 123.444 487.095 133.368 495.725 120.064C491.985 133.008 515.141 138.761 522.333 126.176C521.757 139.121 543.547 140.199 543.547 128.693C546.999 139.336 564.762 133.008 562.245 120.064C568.861 130.419 585.976 120.064 579.504 109.996C589.859 117.475 605.033 103.164 594.246 93.4556C607.19 94.8939 608.988 75.4772 594.246 71.522C607.766 67.4948 599.64 47.0714 588.493 50.3075C596.547 40.8149 578.066 30.1717 566.559 38.8013C572.6 24.9939 550.019 17.5869 543.547 31.9695C544.985 18.7375 519.816 17.2273 517.299 30.1717C512.409 16.652 489.252 25.4973 491.41 38.8013Z" fill="white" stroke="#606060" stroke-width="1.5"/>
<path d="M590.511 174.879C589.108 168.331 579.168 162.476 577.121 176.118C577.121 180.398 581.623 185.17 585.599 184.936C589.575 184.702 591.914 181.428 590.511 174.879Z" fill="white" stroke="#606060" stroke-width="1.5"/>
<path d="M597.543 137.365C594.843 125.686 579.663 126.44 577.322 140.46C575.887 149.048 582.44 155.369 587.748 155.162C594.383 154.904 600.702 151.035 597.543 137.365Z" fill="white" stroke="#606060" stroke-width="1.5"/>
<path d="M575.737 197.757C574.387 191.918 566.797 192.295 565.626 199.305C564.909 203.599 568.185 206.759 570.839 206.656C574.157 206.527 577.316 204.592 575.737 197.757Z" fill="white" stroke="#606060" stroke-width="1.5"/>
<rect x="502.236" y="51.3149" width="55.529" height="56.87" fill="white"/>
<g clip-path="url(#clip9_1354_10933)">
<path d="M511.267 104.175V55.3252H516.744V56.5876H512.529V102.912H516.744V104.175H511.267Z" fill="#101010"/>
<path d="M518.699 65.7608C518.699 65.7608 518.699 65.6725 518.699 65.4961C518.699 65.3196 518.794 65.1838 518.984 65.0888H530.815C531.018 65.1974 531.12 65.3332 531.12 65.4961C531.12 65.659 531.018 65.7947 530.815 65.9033H518.984C518.794 65.8083 518.699 65.6725 518.699 65.4961V65.7608Z" fill="#101010"/>
<path d="M542.238 70.5869C541.994 70.5462 541.118 70.5258 539.611 70.5258C538.036 70.5258 537.127 70.5462 536.883 70.5869H536.699V69.6502H537.331C537.602 69.6502 537.785 69.6502 537.88 69.6502C537.975 69.6502 538.091 69.6367 538.226 69.6095C538.362 69.5824 538.457 69.5484 538.512 69.5077C538.566 69.467 538.613 69.4127 538.654 69.3448C538.668 69.3177 538.674 68.9511 538.674 68.2452V67.2271H533.401V66.2904L536.475 61.5867C538.552 58.4373 539.604 56.8558 539.631 56.8422C539.659 56.8151 539.801 56.8015 540.059 56.8015H540.426L540.548 56.9237V66.2904H542.421V67.2271H540.548V68.2656C540.548 68.8222 540.548 69.148 540.548 69.243C540.548 69.338 540.589 69.4195 540.67 69.4873C540.779 69.5824 541.165 69.6367 541.831 69.6502H542.421V70.5869H542.238ZM538.797 66.2904V59.4894L534.337 66.2701L536.557 66.2904H538.797Z" fill="#101010"/>
<path d="M529.247 87.3247L528.982 87.4265C528.792 87.4944 528.52 87.5623 528.167 87.6302C527.814 87.698 527.421 87.7455 526.986 87.7727H526.599V86.836H526.986C527.624 86.8089 528.215 86.7071 528.758 86.5306C529.301 86.3541 529.681 86.1912 529.898 86.0419C530.115 85.8926 530.305 85.7432 530.468 85.5939C530.495 85.5532 530.577 85.5328 530.713 85.5328C530.835 85.5328 530.95 85.5735 531.059 85.655V91.7434L531.079 97.8521C531.174 97.9472 531.256 98.0082 531.324 98.0354C531.391 98.0625 531.554 98.0897 531.812 98.1168C532.07 98.144 532.491 98.1576 533.075 98.1576H533.604V99.0942H533.38C533.095 99.0535 532.016 99.0332 530.143 99.0332C528.296 99.0332 527.231 99.0535 526.946 99.0942H526.701V98.1576H527.231C527.529 98.1576 527.787 98.1576 528.004 98.1576C528.222 98.1576 528.391 98.1508 528.514 98.1372C528.636 98.1236 528.744 98.1033 528.839 98.0761C528.934 98.049 528.989 98.0354 529.002 98.0354C529.016 98.0354 529.057 98.0015 529.124 97.9336C529.192 97.8657 529.233 97.8386 529.247 97.8521V87.3247Z" fill="#101010"/>
<path d="M543.236 56.5876V55.3252H548.713V104.175H543.236V102.912H547.451V56.5876H543.236Z" fill="#101010"/>
</g>
<path d="M87.7267 230.781L87.8352 230.78L87.9004 230.693C88.9338 229.299 89.5621 227.504 89.5621 225.619C89.5621 220.905 85.7466 217.043 80.9862 217.087C76.2721 217.088 72.4558 220.904 72.4558 225.619C72.4558 227.545 73.0827 229.434 74.257 230.834L74.3235 230.913L74.4268 230.912L87.7267 230.781Z" fill="white" stroke="black"/>
<path d="M111.789 230.781L111.898 230.78L111.963 230.693C112.996 229.299 113.625 227.504 113.625 225.619C113.625 220.905 109.809 217.043 105.049 217.087C100.335 217.088 96.5183 220.904 96.5183 225.619C96.5183 227.545 97.1452 229.434 98.3195 230.834L98.386 230.913L98.4893 230.912L111.789 230.781Z" fill="white" stroke="black"/>
<path d="M83.3933 219.1C82.8246 219.144 82.3871 219.581 82.3871 220.15C82.3871 220.719 82.8683 221.2 83.4371 221.2C84.0058 221.2 84.4871 220.719 84.4871 220.15C84.4871 219.581 84.0058 219.1 83.4371 219.1H83.3933L84.6621 218.663C86.5433 218.663 88.0308 220.194 88.0308 222.031C88.0308 223.869 86.4996 225.4 84.6621 225.4C82.8246 225.4 81.2933 223.869 81.2933 222.031C81.2933 220.194 82.8246 218.663 84.6621 218.663" fill="black"/>
<path d="M107.456 219.1C106.887 219.144 106.45 219.581 106.45 220.15C106.45 220.719 106.931 221.2 107.5 221.2C108.068 221.2 108.55 220.719 108.55 220.15C108.55 219.581 108.068 219.1 107.5 219.1H107.456L108.725 218.663C110.606 218.663 112.093 220.194 112.093 222.031C112.093 223.869 110.562 225.4 108.725 225.4C106.887 225.4 105.356 223.869 105.356 222.031C105.356 220.194 106.887 218.663 108.725 218.663" fill="black"/>
<path d="M79.1933 243.731H107.368C100.631 271.644 96.3871 289.844 96.3871 309.794C96.3871 313.294 96.3871 340.2 106.625 340.2C111.875 340.2 116.337 335.475 116.337 331.231C116.337 330.006 116.337 329.481 114.587 325.762C107.85 308.569 107.85 287.131 107.85 285.381C107.85 283.894 107.85 266.175 113.1 243.775L143.375 243.337C149.412 243.162 155.012 234.194 155.012 226.187C155.012 220.719 147.618 230.606 135.762 230.606L61.2558 230.3C55.5246 230.3 47.0371 230.3 35.5746 242.506C29.0996 249.725 29.4496 262.937 29.4496 264.425C29.4496 265.912 30.6746 266.437 32.2058 266.437C33.9558 266.437 35.1371 266.131 35.4433 264.206C38.9433 243.512 53.0308 243.775 59.2871 243.775H73.5058C68.0371 262.456 61.7808 284.156 41.3496 327.775C39.3371 331.756 39.3371 332.281 39.3371 333.769C39.3371 339.019 43.8433 340.244 46.0746 340.244C53.2933 340.244 55.3058 333.769 58.2808 323.312C62.2621 310.581 62.2621 310.1 64.7558 300.125L79.1933 243.731Z" fill="#E066F4"/>
<path d="M85.2745 239.881C85.0558 241.281 84.3558 243.162 89.387 242.594C95.2933 241.937 96.7808 240.887 98.9683 239.706L98.837 238.35C97.2183 238.394 93.8058 238.656 91.5308 238.175C89.6933 237.781 85.9308 237.737 85.712 238.569" fill="black"/>
<path d="M557.667 228.156L557.558 228.155L557.493 228.068C556.459 226.674 555.831 224.879 555.831 222.994C555.831 218.28 559.647 214.418 564.407 214.462C569.121 214.463 572.938 218.279 572.938 222.994C572.938 224.92 572.311 226.809 571.136 228.209L571.07 228.288L570.967 228.287L557.667 228.156Z" fill="white" stroke="black"/>
<path d="M533.604 228.156L533.496 228.155L533.43 228.068C532.397 226.674 531.769 224.879 531.769 222.994C531.769 218.28 535.584 214.418 540.345 214.462C545.059 214.463 548.875 218.279 548.875 222.994C548.875 224.92 548.248 226.809 547.074 228.209L547.007 228.288L546.904 228.287L533.604 228.156Z" fill="white" stroke="black"/>
<path d="M562 216.475C562.569 216.519 563.006 216.956 563.006 217.525C563.006 218.094 562.525 218.575 561.956 218.575C561.387 218.575 560.906 218.094 560.906 217.525C560.906 216.956 561.387 216.475 561.956 216.475H562L560.731 216.038C558.85 216.038 557.362 217.569 557.362 219.406C557.362 221.244 558.894 222.775 560.731 222.775C562.569 222.775 564.1 221.244 564.1 219.406C564.1 217.569 562.569 216.038 560.731 216.038" fill="black"/>
<path d="M537.937 216.475C538.506 216.519 538.944 216.956 538.944 217.525C538.944 218.094 538.462 218.575 537.894 218.575C537.325 218.575 536.844 218.094 536.844 217.525C536.844 216.956 537.325 216.475 537.894 216.475H537.937L536.669 216.038C534.787 216.038 533.3 217.569 533.3 219.406C533.3 221.244 534.831 222.775 536.669 222.775C538.506 222.775 540.037 221.244 540.037 219.406C540.037 217.569 538.506 216.038 536.669 216.038" fill="black"/>
<path d="M566.2 241.106H538.025C544.763 269.019 549.006 287.219 549.006 307.169C549.006 310.669 549.006 337.575 538.769 337.575C533.519 337.575 529.056 332.85 529.056 328.606C529.056 327.381 529.056 326.856 530.806 323.138C537.544 305.944 537.544 284.506 537.544 282.756C537.544 281.269 537.544 263.55 532.294 241.15L502.019 240.713C495.981 240.538 490.381 231.569 490.381 223.563C490.381 218.094 497.775 227.981 509.631 227.981L584.138 227.675C589.869 227.675 592.188 228.069 594.769 225.356C599.231 220.631 596.869 216.913 596.869 215.425C596.869 213.938 598.094 213.413 599.625 213.413C601.375 213.413 602.513 213.763 602.863 215.644C606.844 236.294 592.581 240.844 586.15 241.106H571.931C577.4 259.788 583.656 281.488 604.088 325.106C606.1 329.088 606.1 329.613 606.1 331.1C606.1 336.35 601.594 337.575 599.363 337.575C592.144 337.575 590.131 331.1 587.156 320.644C583.175 307.913 583.175 307.431 580.681 297.456L566.2 241.106Z" fill="#0C7F99"/>
<path d="M560.294 237.125C560.294 237.519 558.15 239.619 553.119 239.444C549.05 239.269 548.306 238.788 547.388 237.038L546.994 235.288C548.613 235.331 552.769 235.638 555.438 235.55C557.275 235.506 559.813 235.506 560.25 235.594" fill="black"/>
</g>
<defs>
<clipPath id="clip0_1354_10933">
<rect width="640" height="360" fill="white"/>
</clipPath>
<clipPath id="clip1_1354_10933">
<rect width="640" height="360" fill="white"/>
</clipPath>
<clipPath id="clip2_1354_10933">
<rect width="2560" height="1440" fill="white" transform="translate(-960 -540)"/>
</clipPath>
<clipPath id="clip3_1354_10933">
<rect width="203.661" height="48.87" fill="white" transform="translate(218.169 35.5649)"/>
</clipPath>
<clipPath id="clip4_1354_10933">
<rect width="45.6885" height="24.2042" fill="white" transform="translate(269.333 210.144)"/>
</clipPath>
<clipPath id="clip5_1354_10933">
<rect width="30.5877" height="24.2042" fill="white" transform="translate(168.82 185.648)"/>
</clipPath>
<clipPath id="clip6_1354_10933">
<rect width="20.8751" height="24.2042" fill="white" transform="translate(364.089 175.511)"/>
</clipPath>
<clipPath id="clip7_1354_10933">
<rect width="20.8751" height="24.2042" fill="white" transform="translate(311.733 127.465)"/>
</clipPath>
<clipPath id="clip8_1354_10933">
<rect width="47.529" height="48.87" fill="white" transform="translate(80.9601 54.499)"/>
</clipPath>
<clipPath id="clip9_1354_10933">
<rect width="47.529" height="48.87" fill="white" transform="translate(506.236 55.3149)"/>
</clipPath>
</defs>
</svg>
