<svg width="640" height="360" viewBox="0 0 640 360" fill="none" xmlns="http://www.w3.org/2000/svg">
<g clip-path="url(#clip0_1583_1304)">
<path d="M640 0H0V360H640V0Z" fill="black"/>
<g clip-path="url(#clip1_1583_1304)">
<path d="M0 0H640" stroke="#303030" stroke-width="1.5"/>
<path d="M0 40H640" stroke="#303030" stroke-width="1.5"/>
<path d="M0 80H640" stroke="#303030" stroke-width="1.5"/>
<path d="M0 120H640" stroke="#303030" stroke-width="1.5"/>
<path d="M0 160H640" stroke="#303030" stroke-width="1.5"/>
<path d="M0 200H640" stroke="#303030" stroke-width="1.5"/>
<path d="M0 240H640" stroke="#303030" stroke-width="1.5"/>
<path d="M0 280H640" stroke="#303030" stroke-width="1.5"/>
<path d="M0 320H640" stroke="#303030" stroke-width="1.5"/>
<path d="M0 360H640" stroke="#303030" stroke-width="1.5"/>
<path d="M20 0V360" stroke="#303030" stroke-width="1.5"/>
<path d="M60 0V360" stroke="#303030" stroke-width="1.5"/>
<path d="M100 0V360" stroke="#303030" stroke-width="1.5"/>
<path d="M140 0V360" stroke="#303030" stroke-width="1.5"/>
<path d="M180 0V360" stroke="#303030" stroke-width="1.5"/>
<path d="M220 0V360" stroke="#303030" stroke-width="1.5"/>
<path d="M260 0V360" stroke="#303030" stroke-width="1.5"/>
<path d="M300 0V360" stroke="#303030" stroke-width="1.5"/>
<path d="M340 0V360" stroke="#303030" stroke-width="1.5"/>
<path d="M380 0V360" stroke="#303030" stroke-width="1.5"/>
<path d="M420 0V360" stroke="#303030" stroke-width="1.5"/>
<path d="M460 0V360" stroke="#303030" stroke-width="1.5"/>
<path d="M500 0V360" stroke="#303030" stroke-width="1.5"/>
<path d="M540 0V360" stroke="#303030" stroke-width="1.5"/>
<path d="M580 0V360" stroke="#303030" stroke-width="1.5"/>
<path d="M620 0V360" stroke="#303030" stroke-width="1.5"/>
<path d="M0 20H640" stroke="#505050" stroke-width="1.5"/>
<path d="M0 60H640" stroke="#505050" stroke-width="1.5"/>
<path d="M0 100H640" stroke="#505050" stroke-width="1.5"/>
<path d="M0 140H640" stroke="#505050" stroke-width="1.5"/>
<path d="M0 180H640" stroke="#505050" stroke-width="1.5"/>
<path d="M0 220H640" stroke="#505050" stroke-width="1.5"/>
<path d="M0 260H640" stroke="#505050" stroke-width="1.5"/>
<path d="M0 300H640" stroke="#505050" stroke-width="1.5"/>
<path d="M0 340H640" stroke="#505050" stroke-width="1.5"/>
<path d="M0 0V360" stroke="#505050" stroke-width="1.5"/>
<path d="M40 0V360" stroke="#505050" stroke-width="1.5"/>
<path d="M80 0V360" stroke="#505050" stroke-width="1.5"/>
<path d="M120 0V360" stroke="#505050" stroke-width="1.5"/>
<path d="M160 0V360" stroke="#505050" stroke-width="1.5"/>
<path d="M200 0V360" stroke="#505050" stroke-width="1.5"/>
<path d="M240 0V360" stroke="#505050" stroke-width="1.5"/>
<path d="M280 0V360" stroke="#505050" stroke-width="1.5"/>
<path d="M320 0V360" stroke="#505050" stroke-width="1.5"/>
<path d="M360 0V360" stroke="#505050" stroke-width="1.5"/>
<path d="M400 0V360" stroke="#505050" stroke-width="1.5"/>
<path d="M440 0V360" stroke="#505050" stroke-width="1.5"/>
<path d="M480 0V360" stroke="#505050" stroke-width="1.5"/>
<path d="M520 0V360" stroke="#505050" stroke-width="1.5"/>
<path d="M560 0V360" stroke="#505050" stroke-width="1.5"/>
<path d="M600 0V360" stroke="#505050" stroke-width="1.5"/>
<path d="M640 0V360" stroke="#505050" stroke-width="1.5"/>
</g>
<path d="M0 180H640" stroke="#C0C0C0" stroke-width="1.5"/>
<path d="M320 0V360" stroke="#C0C0C0" stroke-width="1.5"/>
<path d="M90.3977 72.7456L80 60L96.4351 60.6708L90.7331 65.3666L90.3977 72.7456Z" fill="#FEE9AF"/>
<path d="M320 180L83.5777 61.7888" stroke="#FEE9AF" stroke-width="1.5"/>
<path d="M95 186.75L80 180L95 173.25L92 180L95 186.75Z" fill="#92D192"/>
<path d="M320 180H84" stroke="#92D192" stroke-width="1.5"/>
<path d="M73.25 75L80 60L86.75 75L80 72L73.25 75Z" fill="#F2777A"/>
<path d="M80 180V64" stroke="#F2777A" stroke-width="1.5"/>
<path d="M290.597 216.327H103.157V269.695H290.597V216.327Z" fill="black"/>
<g clip-path="url(#clip2_1583_1304)">
<path d="M107.142 267.547V220.327H112.436V221.547H108.362V266.326H112.436V267.547H107.142Z" fill="#FFF888"/>
<path d="M118.695 230.414C118.695 230.414 118.695 230.329 118.695 230.159C118.695 229.988 118.787 229.857 118.971 229.765H130.407C130.604 229.87 130.702 230.001 130.702 230.159C130.702 230.316 130.604 230.447 130.407 230.552H118.971C118.787 230.46 118.695 230.329 118.695 230.159V230.414Z" fill="#FFF888"/>
<path d="M133.182 228.919C133.182 226.78 133.714 225.087 134.777 223.84C135.839 222.594 137.02 221.97 138.319 221.97C139.225 221.97 139.874 222.207 140.268 222.679C140.662 223.151 140.859 223.676 140.859 224.254C140.859 224.582 140.767 224.844 140.583 225.041C140.399 225.238 140.143 225.336 139.815 225.336C139.514 225.336 139.264 225.244 139.067 225.061C138.871 224.877 138.772 224.621 138.772 224.293C138.772 223.716 139.081 223.368 139.697 223.25C139.409 222.961 139.002 222.797 138.477 222.758C137.545 222.758 136.778 223.151 136.174 223.939C135.557 224.805 135.249 226.13 135.249 227.915L135.269 227.993C135.334 227.915 135.387 227.829 135.426 227.738C135.964 226.95 136.666 226.557 137.532 226.557H137.611C138.214 226.557 138.746 226.681 139.205 226.931C139.52 227.114 139.835 227.377 140.15 227.718C140.465 228.059 140.721 228.433 140.918 228.84C141.193 229.483 141.331 230.185 141.331 230.946V231.3C141.331 231.602 141.298 231.884 141.233 232.147C141.088 232.921 140.668 233.675 139.973 234.41C139.277 235.145 138.398 235.512 137.335 235.512C136.968 235.512 136.614 235.46 136.272 235.355C135.931 235.25 135.564 235.053 135.17 234.764C134.777 234.476 134.442 234.089 134.166 233.603C133.891 233.118 133.655 232.481 133.458 231.694C133.261 230.906 133.169 229.981 133.182 228.919ZM137.414 227.265C137.02 227.265 136.679 227.377 136.391 227.6C136.102 227.823 135.879 228.118 135.721 228.485C135.564 228.853 135.452 229.227 135.387 229.607C135.321 229.988 135.282 230.395 135.269 230.828C135.269 231.917 135.347 232.698 135.505 233.17C135.662 233.642 135.912 234.023 136.253 234.312C136.568 234.548 136.915 234.666 137.296 234.666C137.965 234.666 138.477 234.417 138.831 233.918C139.002 233.682 139.12 233.387 139.186 233.032C139.251 232.678 139.284 231.989 139.284 230.966C139.284 229.916 139.251 229.214 139.186 228.859C139.12 228.505 139.002 228.21 138.831 227.974C138.477 227.501 138.005 227.265 137.414 227.265Z" fill="#FFF888"/>
<path d="M127.199 253.522C126.844 253.522 126.569 253.411 126.372 253.188C126.175 252.965 126.07 252.676 126.057 252.322C126.057 251.6 126.372 250.957 127.002 250.393C127.632 249.828 128.393 249.546 129.285 249.546C129.744 249.546 130.033 249.553 130.151 249.566C131.122 249.723 131.863 250.071 132.375 250.609C132.887 251.147 133.149 251.731 133.163 252.361C133.163 253.043 132.939 253.706 132.493 254.349C132.047 254.992 131.43 255.458 130.643 255.747L130.584 255.786C130.584 255.799 130.643 255.819 130.761 255.845C130.879 255.871 131.07 255.93 131.332 256.022C131.594 256.114 131.844 256.252 132.08 256.435C133.156 257.131 133.694 258.049 133.694 259.191C133.694 260.228 133.287 261.133 132.474 261.907C131.66 262.682 130.63 263.069 129.383 263.069C128.334 263.069 127.428 262.786 126.667 262.222C125.906 261.658 125.525 260.943 125.525 260.077C125.525 259.709 125.644 259.414 125.88 259.191C126.116 258.968 126.411 258.85 126.766 258.837C127.133 258.837 127.435 258.955 127.671 259.191C127.907 259.427 128.025 259.722 128.025 260.077C128.025 260.221 128.006 260.352 127.966 260.47C127.927 260.589 127.881 260.694 127.828 260.785C127.776 260.877 127.704 260.956 127.612 261.022C127.52 261.087 127.441 261.14 127.376 261.179C127.31 261.218 127.244 261.245 127.179 261.258C127.113 261.271 127.061 261.291 127.021 261.317L126.943 261.336C127.612 261.927 128.425 262.222 129.383 262.222C130.105 262.222 130.65 261.874 131.017 261.179C131.24 260.746 131.352 260.083 131.352 259.191V258.797C131.352 257.551 130.932 256.718 130.092 256.298C129.895 256.219 129.495 256.173 128.891 256.16L128.065 256.14L128.006 256.101C127.979 256.061 127.966 255.956 127.966 255.786C127.966 255.55 128.019 255.432 128.124 255.432C128.491 255.432 128.872 255.399 129.265 255.333C129.711 255.268 130.118 254.992 130.486 254.506C130.853 254.021 131.037 253.286 131.037 252.302V252.145C131.037 251.397 130.807 250.878 130.348 250.59C130.059 250.406 129.751 250.314 129.423 250.314C129.003 250.314 128.616 250.386 128.261 250.53C127.907 250.675 127.658 250.826 127.513 250.983C127.369 251.141 127.297 251.219 127.297 251.219H127.356C127.395 251.233 127.448 251.246 127.513 251.259C127.579 251.272 127.645 251.305 127.71 251.357C127.776 251.41 127.855 251.456 127.947 251.495C128.038 251.534 128.104 251.607 128.143 251.711C128.183 251.816 128.235 251.915 128.301 252.007C128.366 252.099 128.386 252.23 128.36 252.4C128.36 252.689 128.268 252.945 128.084 253.168C127.901 253.391 127.605 253.509 127.199 253.522Z" fill="#FFF888"/>
<path d="M146.783 221.547V220.327H152.078V267.547H146.783V266.326H150.858V221.547H146.783Z" fill="#FFF888"/>
<path d="M163.53 242.027C163.53 241.857 163.621 241.726 163.805 241.634H176.343C176.54 241.739 176.638 241.87 176.638 242.027C176.638 242.172 176.547 242.296 176.363 242.401L170.104 242.421H163.844C163.634 242.356 163.53 242.224 163.53 242.027ZM163.53 245.846C163.53 245.649 163.634 245.518 163.844 245.452H176.363C176.547 245.584 176.638 245.715 176.638 245.846C176.638 246.017 176.54 246.148 176.343 246.24H163.805C163.621 246.148 163.53 246.017 163.53 245.846Z" fill="#F0F0F0"/>
<path d="M185.059 243.937C185.059 243.031 185.124 242.172 185.256 241.358C185.387 240.545 185.538 239.843 185.708 239.252C185.879 238.662 186.122 238.084 186.437 237.52C186.752 236.956 187.001 236.516 187.185 236.201C187.368 235.886 187.644 235.545 188.011 235.178C188.379 234.81 188.595 234.587 188.661 234.508C188.726 234.43 188.89 234.292 189.153 234.095H189.409H189.488C189.671 234.095 189.763 234.154 189.763 234.272C189.763 234.312 189.652 234.449 189.428 234.686C189.205 234.922 188.936 235.27 188.621 235.729C188.307 236.188 187.985 236.752 187.657 237.422C187.329 238.091 187.053 238.996 186.83 240.138C186.607 241.279 186.496 242.546 186.496 243.937C186.496 245.328 186.607 246.587 186.83 247.716C187.053 248.844 187.322 249.756 187.637 250.452C187.952 251.147 188.274 251.711 188.602 252.145C188.93 252.578 189.205 252.925 189.428 253.188C189.652 253.45 189.763 253.588 189.763 253.601C189.763 253.719 189.665 253.778 189.468 253.778H189.409H189.153L188.602 253.306C187.368 252.19 186.469 250.799 185.905 249.133C185.341 247.466 185.059 245.734 185.059 243.937Z" fill="#92D192"/>
<path d="M192.519 244.193C192.519 244.193 192.519 244.107 192.519 243.937C192.519 243.766 192.611 243.635 192.794 243.543H204.23C204.427 243.648 204.525 243.779 204.525 243.937C204.525 244.094 204.427 244.225 204.23 244.33H192.794C192.611 244.238 192.519 244.107 192.519 243.937V244.193Z" fill="#92D192"/>
<path d="M207.005 242.697C207.005 240.558 207.537 238.865 208.6 237.618C209.663 236.372 210.844 235.749 212.143 235.749C213.048 235.749 213.698 235.985 214.091 236.457C214.485 236.93 214.682 237.454 214.682 238.032C214.682 238.36 214.59 238.622 214.406 238.819C214.223 239.016 213.967 239.114 213.639 239.114C213.337 239.114 213.088 239.023 212.891 238.839C212.694 238.655 212.595 238.399 212.595 238.071C212.595 237.494 212.904 237.146 213.521 237.028C213.232 236.739 212.825 236.575 212.3 236.536C211.369 236.536 210.601 236.93 209.997 237.717C209.381 238.583 209.072 239.908 209.072 241.693L209.092 241.772C209.157 241.693 209.21 241.608 209.249 241.516C209.787 240.728 210.489 240.335 211.355 240.335H211.434C212.038 240.335 212.569 240.459 213.028 240.709C213.343 240.892 213.658 241.155 213.973 241.496C214.288 241.837 214.544 242.211 214.741 242.618C215.016 243.261 215.154 243.963 215.154 244.724V245.078C215.154 245.38 215.121 245.662 215.056 245.925C214.911 246.699 214.492 247.453 213.796 248.188C213.101 248.923 212.221 249.291 211.159 249.291C210.791 249.291 210.437 249.238 210.096 249.133C209.755 249.028 209.387 248.831 208.993 248.543C208.6 248.254 208.265 247.867 207.99 247.381C207.714 246.896 207.478 246.259 207.281 245.472C207.084 244.685 206.992 243.76 207.005 242.697ZM211.237 241.043C210.844 241.043 210.502 241.155 210.214 241.378C209.925 241.601 209.702 241.896 209.545 242.264C209.387 242.631 209.276 243.005 209.21 243.386C209.144 243.766 209.105 244.173 209.092 244.606C209.092 245.695 209.171 246.476 209.328 246.948C209.486 247.421 209.735 247.801 210.076 248.09C210.391 248.326 210.739 248.444 211.119 248.444C211.788 248.444 212.3 248.195 212.654 247.696C212.825 247.46 212.943 247.165 213.009 246.81C213.074 246.456 213.107 245.767 213.107 244.744C213.107 243.694 213.074 242.992 213.009 242.638C212.943 242.283 212.825 241.988 212.654 241.752C212.3 241.28 211.828 241.043 211.237 241.043Z" fill="#92D192"/>
<path d="M217.201 234.115L217.28 234.095C217.346 234.095 217.411 234.095 217.477 234.095H217.713L218.264 234.568C219.498 235.683 220.396 237.074 220.961 238.74C221.525 240.407 221.807 242.139 221.807 243.937C221.807 244.829 221.741 245.688 221.61 246.515C221.479 247.342 221.328 248.044 221.158 248.621C220.987 249.199 220.744 249.776 220.429 250.353C220.114 250.931 219.865 251.37 219.681 251.672C219.498 251.974 219.229 252.309 218.874 252.676C218.52 253.043 218.31 253.26 218.244 253.325C218.179 253.391 218.028 253.516 217.792 253.699C217.752 253.739 217.726 253.765 217.713 253.778H217.477C217.372 253.778 217.3 253.778 217.26 253.778C217.221 253.778 217.188 253.759 217.162 253.719C217.136 253.68 217.116 253.621 217.103 253.542C217.116 253.529 217.188 253.444 217.319 253.286C219.353 251.173 220.37 248.057 220.37 243.937C220.37 239.816 219.353 236.7 217.319 234.587C217.188 234.43 217.116 234.344 217.103 234.331C217.103 234.226 217.136 234.154 217.201 234.115Z" fill="#92D192"/>
<path d="M225.153 243.208C225.153 243.143 225.199 242.972 225.291 242.697C225.383 242.421 225.521 242.1 225.704 241.732C225.888 241.365 226.144 241.03 226.472 240.728C226.8 240.427 227.154 240.243 227.535 240.177H227.889C228.335 240.177 228.703 240.322 228.991 240.61C229.28 240.899 229.431 241.306 229.444 241.831C229.431 242.08 229.405 242.257 229.365 242.362C229.326 242.467 229.037 243.268 228.499 244.763C227.817 246.548 227.476 247.611 227.476 247.952C227.476 248.215 227.581 248.346 227.791 248.346C228.04 248.346 228.289 248.234 228.539 248.011C228.88 247.644 229.175 247.034 229.424 246.181C229.464 246.023 229.497 245.931 229.523 245.905C229.549 245.879 229.641 245.859 229.798 245.846H229.917C230.048 245.846 230.133 245.846 230.172 245.846C230.212 245.846 230.258 245.866 230.31 245.905C230.363 245.944 230.382 245.99 230.369 246.043C230.369 246.174 230.304 246.423 230.172 246.791C230.041 247.158 229.792 247.578 229.424 248.05C229.057 248.523 228.637 248.844 228.165 249.015C228.06 249.041 227.902 249.054 227.692 249.054C227.115 249.054 226.702 248.89 226.452 248.562C226.203 248.234 226.078 247.867 226.078 247.46C226.078 247.106 226.4 246.082 227.043 244.389C227.686 242.697 228.014 241.667 228.027 241.299C228.027 241.142 228.007 241.037 227.968 240.984C227.929 240.932 227.83 240.899 227.673 240.886C227.305 240.912 226.997 241.115 226.748 241.496C226.498 241.877 226.315 242.283 226.196 242.716C226.078 243.149 226 243.366 225.96 243.366C225.947 243.379 225.822 243.386 225.586 243.386H225.271C225.193 243.307 225.153 243.248 225.153 243.208Z" fill="#92D192"/>
<path d="M224.468 237.54L227.165 234.902L227.322 235.06C229.028 236.687 229.881 237.514 229.881 237.54L229.369 238.111C229.343 238.097 228.963 237.769 228.228 237.126L227.185 236.221L226.102 237.146C225.931 237.29 225.761 237.441 225.59 237.599C225.42 237.756 225.282 237.881 225.177 237.973L225.019 238.091C224.993 238.117 224.895 238.025 224.724 237.815L224.468 237.54Z" fill="#92D192"/>
<path d="M235.845 244.193C235.845 244.193 235.845 244.107 235.845 243.937C235.845 243.766 235.937 243.635 236.121 243.543H242.006V240.591L242.026 237.638C242.157 237.467 242.281 237.382 242.4 237.382C242.57 237.382 242.701 237.481 242.793 237.677V243.543H248.659C248.856 243.648 248.954 243.779 248.954 243.937C248.954 244.094 248.856 244.225 248.659 244.33H242.793V250.196C242.688 250.38 242.57 250.471 242.439 250.471H242.4H242.36C242.203 250.471 242.085 250.38 242.006 250.196V244.33H236.121C235.937 244.238 235.845 244.107 235.845 243.937V244.193Z" fill="#F0F0F0"/>
<path d="M256.28 243.937C256.28 243.031 256.346 242.172 256.477 241.358C256.608 240.545 256.759 239.843 256.93 239.252C257.1 238.662 257.343 238.084 257.658 237.52C257.973 236.956 258.222 236.516 258.406 236.201C258.589 235.886 258.865 235.545 259.232 235.178C259.6 234.81 259.816 234.587 259.882 234.508C259.948 234.43 260.112 234.292 260.374 234.095H260.63H260.709C260.892 234.095 260.984 234.154 260.984 234.272C260.984 234.312 260.873 234.449 260.65 234.686C260.427 234.922 260.158 235.27 259.843 235.729C259.528 236.188 259.206 236.752 258.878 237.422C258.55 238.091 258.275 238.996 258.051 240.138C257.828 241.279 257.717 242.546 257.717 243.937C257.717 245.328 257.828 246.587 258.051 247.716C258.275 248.844 258.544 249.756 258.858 250.452C259.173 251.147 259.495 251.711 259.823 252.145C260.151 252.578 260.427 252.925 260.65 253.188C260.873 253.45 260.984 253.588 260.984 253.601C260.984 253.719 260.886 253.778 260.689 253.778H260.63H260.374L259.823 253.306C258.589 252.19 257.691 250.799 257.126 249.133C256.562 247.466 256.28 245.734 256.28 243.937Z" fill="#F2777A"/>
<path d="M264.586 239.744C264.232 239.744 263.956 239.633 263.76 239.41C263.563 239.187 263.458 238.898 263.445 238.544C263.445 237.822 263.76 237.179 264.389 236.615C265.019 236.05 265.78 235.768 266.673 235.768C267.132 235.768 267.421 235.775 267.539 235.788C268.51 235.945 269.251 236.293 269.763 236.831C270.275 237.369 270.537 237.953 270.55 238.583C270.55 239.265 270.327 239.928 269.881 240.571C269.435 241.214 268.818 241.68 268.031 241.968L267.972 242.008C267.972 242.021 268.031 242.041 268.149 242.067C268.267 242.093 268.457 242.152 268.72 242.244C268.982 242.336 269.231 242.474 269.468 242.657C270.544 243.353 271.082 244.271 271.082 245.413C271.082 246.45 270.675 247.355 269.861 248.129C269.048 248.903 268.018 249.291 266.771 249.291C265.721 249.291 264.816 249.008 264.055 248.444C263.294 247.88 262.913 247.165 262.913 246.299C262.913 245.931 263.031 245.636 263.268 245.413C263.504 245.19 263.799 245.072 264.153 245.059C264.521 245.059 264.822 245.177 265.059 245.413C265.295 245.649 265.413 245.944 265.413 246.299C265.413 246.443 265.393 246.574 265.354 246.692C265.315 246.81 265.269 246.915 265.216 247.007C265.164 247.099 265.091 247.178 265 247.243C264.908 247.309 264.829 247.362 264.763 247.401C264.698 247.44 264.632 247.467 264.567 247.48C264.501 247.493 264.448 247.512 264.409 247.539L264.33 247.558C265 248.149 265.813 248.444 266.771 248.444C267.493 248.444 268.037 248.096 268.405 247.401C268.628 246.968 268.739 246.305 268.739 245.413V245.019C268.739 243.773 268.319 242.939 267.48 242.52C267.283 242.441 266.883 242.395 266.279 242.382L265.452 242.362L265.393 242.323C265.367 242.283 265.354 242.178 265.354 242.008C265.354 241.772 265.406 241.654 265.511 241.654C265.879 241.654 266.259 241.621 266.653 241.555C267.099 241.489 267.506 241.214 267.873 240.728C268.241 240.243 268.424 239.508 268.424 238.524V238.366C268.424 237.618 268.195 237.1 267.736 236.811C267.447 236.628 267.139 236.536 266.81 236.536C266.391 236.536 266.003 236.608 265.649 236.752C265.295 236.897 265.046 237.048 264.901 237.205C264.757 237.363 264.685 237.441 264.685 237.441H264.744C264.783 237.454 264.836 237.468 264.901 237.481C264.967 237.494 265.032 237.527 265.098 237.579C265.164 237.632 265.242 237.678 265.334 237.717C265.426 237.756 265.492 237.828 265.531 237.933C265.57 238.038 265.623 238.137 265.689 238.229C265.754 238.321 265.774 238.452 265.748 238.622C265.748 238.911 265.656 239.167 265.472 239.39C265.288 239.613 264.993 239.731 264.586 239.744Z" fill="#F2777A"/>
<path d="M273.109 234.115L273.188 234.095C273.253 234.095 273.319 234.095 273.385 234.095H273.621L274.172 234.568C275.405 235.683 276.304 237.074 276.868 238.74C277.433 240.407 277.715 242.139 277.715 243.937C277.715 244.829 277.649 245.688 277.518 246.515C277.387 247.342 277.236 248.044 277.065 248.621C276.895 249.199 276.652 249.776 276.337 250.353C276.022 250.931 275.773 251.37 275.589 251.672C275.405 251.974 275.136 252.309 274.782 252.676C274.428 253.043 274.218 253.26 274.152 253.325C274.087 253.391 273.936 253.516 273.699 253.699C273.66 253.739 273.634 253.765 273.621 253.778H273.385C273.28 253.778 273.207 253.778 273.168 253.778C273.129 253.778 273.096 253.759 273.07 253.719C273.043 253.68 273.024 253.621 273.011 253.542C273.024 253.529 273.096 253.444 273.227 253.286C275.261 251.173 276.278 248.057 276.278 243.937C276.278 239.816 275.261 236.7 273.227 234.587C273.096 234.43 273.024 234.344 273.011 234.331C273.011 234.226 273.043 234.154 273.109 234.115Z" fill="#F2777A"/>
<path d="M281.061 243.267C281.061 243.267 281.061 243.248 281.061 243.208C281.061 243.169 281.1 243.051 281.179 242.854C281.258 242.657 281.389 242.408 281.573 242.106C281.756 241.804 281.966 241.503 282.203 241.201C282.439 240.899 282.747 240.656 283.128 240.472C283.508 240.289 283.902 240.184 284.309 240.158C284.742 240.184 285.135 240.328 285.49 240.591C285.844 240.853 286.021 241.312 286.021 241.968V242.323L285.057 246.22C284.912 246.771 284.748 247.407 284.565 248.129C284.381 248.851 284.25 249.389 284.171 249.743C284.092 250.097 284.04 250.281 284.013 250.294C283.79 250.95 283.377 251.541 282.773 252.066C282.17 252.591 281.461 252.86 280.648 252.873C280.044 252.873 279.591 252.722 279.29 252.42C279.066 252.197 278.955 251.928 278.955 251.613C278.955 251.246 279.073 250.957 279.309 250.747C279.545 250.537 279.814 250.426 280.116 250.412C280.392 250.412 280.589 250.491 280.707 250.649C280.825 250.806 280.89 250.957 280.904 251.101C280.904 251.521 280.72 251.862 280.352 252.125L280.451 252.145H280.746H280.766C281.448 252.145 282.006 251.534 282.439 250.314C282.478 250.196 282.826 248.831 283.482 246.22C284.138 243.609 284.486 242.211 284.525 242.027C284.538 241.949 284.545 241.798 284.545 241.575C284.545 241.417 284.538 241.299 284.525 241.22C284.512 241.142 284.473 241.07 284.407 241.004C284.341 240.938 284.243 240.899 284.112 240.886C283.771 240.886 283.41 241.063 283.029 241.417C282.793 241.653 282.596 241.922 282.439 242.224C282.281 242.526 282.157 242.782 282.065 242.992C281.973 243.202 281.914 243.32 281.888 243.346C281.861 243.372 281.737 243.386 281.514 243.386H281.179C281.1 243.307 281.061 243.248 281.061 243.208V243.267Z" fill="#F2777A"/>
<path d="M280.136 237.52L282.832 234.882L282.99 235.04C284.696 236.667 285.549 237.494 285.549 237.52L285.037 238.091C285.011 238.078 284.63 237.75 283.895 237.107L282.852 236.201L281.77 237.126C281.599 237.271 281.428 237.422 281.258 237.579C281.087 237.737 280.949 237.861 280.844 237.953L280.687 238.071C280.661 238.097 280.562 238.006 280.392 237.796L280.136 237.52Z" fill="#F2777A"/>
</g>
<path d="M220.807 170.757H182.511V191.192H220.807V170.757Z" fill="black"/>
<g clip-path="url(#clip3_1583_1304)">
<path d="M186.506 184.042C186.506 184.042 186.506 183.957 186.506 183.786C186.506 183.616 186.598 183.485 186.782 183.393H198.219C198.416 183.498 198.514 183.629 198.514 183.786C198.514 183.944 198.416 184.075 198.219 184.18H186.782C186.598 184.088 186.506 183.957 186.506 183.786V184.042Z" fill="#92D192"/>
<path d="M200.994 182.546C200.994 180.407 201.526 178.714 202.589 177.468C203.652 176.221 204.833 175.598 206.132 175.598C207.038 175.598 207.687 175.834 208.081 176.306C208.475 176.779 208.671 177.304 208.671 177.881C208.671 178.209 208.58 178.472 208.396 178.668C208.212 178.865 207.956 178.964 207.628 178.964C207.326 178.964 207.077 178.872 206.88 178.688C206.683 178.504 206.585 178.248 206.585 177.92C206.585 177.343 206.893 176.995 207.51 176.877C207.221 176.588 206.814 176.424 206.29 176.385C205.358 176.385 204.59 176.779 203.986 177.566C203.37 178.432 203.061 179.758 203.061 181.542L203.081 181.621C203.146 181.542 203.199 181.457 203.238 181.365C203.776 180.578 204.479 180.184 205.345 180.184H205.423C206.027 180.184 206.559 180.309 207.018 180.558C207.333 180.742 207.648 181.004 207.963 181.346C208.278 181.687 208.534 182.061 208.73 182.468C209.006 183.111 209.144 183.813 209.144 184.574V184.928C209.144 185.23 209.111 185.512 209.045 185.775C208.901 186.549 208.481 187.303 207.786 188.038C207.09 188.773 206.211 189.141 205.148 189.141C204.78 189.141 204.426 189.088 204.085 188.983C203.744 188.878 203.376 188.681 202.982 188.393C202.589 188.104 202.254 187.717 201.979 187.231C201.703 186.746 201.467 186.109 201.27 185.322C201.073 184.534 200.981 183.609 200.994 182.546ZM205.227 180.893C204.833 180.893 204.492 181.004 204.203 181.227C203.914 181.451 203.691 181.746 203.534 182.113C203.376 182.481 203.265 182.855 203.199 183.235C203.133 183.616 203.094 184.023 203.081 184.456C203.081 185.545 203.16 186.326 203.317 186.798C203.475 187.271 203.724 187.651 204.065 187.94C204.38 188.176 204.728 188.294 205.108 188.294C205.778 188.294 206.29 188.045 206.644 187.546C206.814 187.31 206.933 187.015 206.998 186.66C207.064 186.306 207.097 185.617 207.097 184.594C207.097 183.544 207.064 182.842 206.998 182.487C206.933 182.133 206.814 181.838 206.644 181.601C206.29 181.129 205.817 180.893 205.227 180.893Z" fill="#92D192"/>
<path d="M211.486 183.058C211.486 182.993 211.532 182.822 211.624 182.546C211.716 182.271 211.854 181.949 212.037 181.582C212.221 181.214 212.477 180.88 212.805 180.578C213.133 180.276 213.488 180.092 213.868 180.027H214.223C214.669 180.027 215.036 180.171 215.325 180.46C215.614 180.748 215.764 181.155 215.778 181.68C215.764 181.93 215.738 182.107 215.699 182.212C215.66 182.317 215.371 183.117 214.833 184.613C214.15 186.398 213.809 187.461 213.809 187.802C213.809 188.065 213.914 188.196 214.124 188.196C214.373 188.196 214.623 188.084 214.872 187.861C215.213 187.494 215.509 186.884 215.758 186.031C215.797 185.873 215.83 185.781 215.856 185.755C215.883 185.729 215.974 185.709 216.132 185.696H216.25C216.381 185.696 216.467 185.696 216.506 185.696C216.545 185.696 216.591 185.716 216.644 185.755C216.696 185.794 216.716 185.84 216.703 185.893C216.703 186.024 216.637 186.273 216.506 186.641C216.375 187.008 216.125 187.428 215.758 187.901C215.39 188.373 214.971 188.695 214.498 188.865C214.393 188.891 214.236 188.905 214.026 188.905C213.448 188.905 213.035 188.741 212.786 188.412C212.536 188.084 212.412 187.717 212.412 187.31C212.412 186.956 212.733 185.932 213.376 184.239C214.019 182.546 214.347 181.516 214.36 181.149C214.36 180.991 214.341 180.886 214.301 180.834C214.262 180.781 214.163 180.748 214.006 180.735C213.639 180.762 213.33 180.965 213.081 181.346C212.831 181.726 212.648 182.133 212.53 182.566C212.412 182.999 212.333 183.216 212.293 183.216C212.28 183.229 212.156 183.235 211.919 183.235H211.604C211.526 183.157 211.486 183.098 211.486 183.058Z" fill="#92D192"/>
<path d="M210.801 177.389L213.498 174.751L213.656 174.909C215.362 176.536 216.215 177.363 216.215 177.389L215.703 177.96C215.677 177.947 215.296 177.619 214.561 176.975L213.518 176.07L212.435 176.995C212.265 177.14 212.094 177.29 211.923 177.448C211.753 177.605 211.615 177.73 211.51 177.822L211.352 177.94C211.326 177.966 211.228 177.874 211.057 177.664L210.801 177.389Z" fill="#92D192"/>
</g>
<path d="M92.5776 108.954H69.0807V132.997H92.5776V108.954Z" fill="black"/>
<g clip-path="url(#clip4_1583_1304)">
<path d="M74.7509 117.808C74.3966 117.808 74.1211 117.697 73.9243 117.474C73.7275 117.251 73.6226 116.962 73.6094 116.608C73.6094 115.886 73.9243 115.243 74.5541 114.679C75.1838 114.115 75.9448 113.833 76.8369 113.833C77.2961 113.833 77.5847 113.84 77.7028 113.853C78.6737 114.01 79.4149 114.358 79.9266 114.896C80.4383 115.434 80.7006 116.017 80.7138 116.647C80.7138 117.329 80.4907 117.992 80.0447 118.635C79.5986 119.278 78.982 119.743 78.1948 120.032L78.1357 120.071C78.1357 120.085 78.1948 120.104 78.3129 120.131C78.4309 120.157 78.6212 120.216 78.8836 120.308C79.146 120.399 79.3952 120.537 79.6314 120.721C80.7072 121.416 81.2451 122.335 81.2451 123.476C81.2451 124.512 80.8384 125.418 80.025 126.192C79.2116 126.966 78.1817 127.353 76.9353 127.353C75.8857 127.353 74.9805 127.071 74.2195 126.507C73.4586 125.943 73.0781 125.228 73.0781 124.362C73.0781 123.994 73.1962 123.699 73.4323 123.476C73.6685 123.253 73.9637 123.135 74.3179 123.122C74.6853 123.122 74.987 123.24 75.2232 123.476C75.4593 123.712 75.5774 124.007 75.5774 124.362C75.5774 124.506 75.5577 124.637 75.5184 124.755C75.479 124.873 75.4331 124.978 75.3806 125.07C75.3281 125.162 75.256 125.241 75.1641 125.306C75.0723 125.372 74.9936 125.424 74.928 125.464C74.8624 125.503 74.7968 125.529 74.7312 125.542C74.6656 125.556 74.6131 125.575 74.5737 125.601L74.495 125.621C75.1641 126.211 75.9776 126.507 76.9353 126.507C77.6569 126.507 78.2013 126.159 78.5687 125.464C78.7917 125.031 78.9032 124.368 78.9032 123.476V123.082C78.9032 121.836 78.4834 121.003 77.6438 120.583C77.447 120.504 77.0468 120.458 76.4433 120.445L75.6168 120.426L75.5577 120.386C75.5315 120.347 75.5184 120.242 75.5184 120.071C75.5184 119.835 75.5708 119.717 75.6758 119.717C76.0431 119.717 76.4236 119.684 76.8172 119.619C77.2633 119.553 77.67 119.278 78.0373 118.792C78.4047 118.307 78.5884 117.572 78.5884 116.588V116.431C78.5884 115.683 78.3588 115.165 77.8996 114.876C77.611 114.692 77.3026 114.601 76.9746 114.601C76.5548 114.601 76.1678 114.673 75.8136 114.817C75.4593 114.961 75.21 115.112 75.0657 115.27C74.9214 115.427 74.8493 115.506 74.8493 115.506H74.9083C74.9477 115.519 75.0001 115.532 75.0657 115.545C75.1313 115.558 75.1969 115.591 75.2625 115.644C75.3281 115.696 75.4068 115.742 75.4987 115.781C75.5905 115.821 75.6561 115.893 75.6955 115.998C75.7348 116.103 75.7873 116.201 75.8529 116.293C75.9185 116.385 75.9382 116.516 75.912 116.687C75.912 116.975 75.8201 117.231 75.6364 117.454C75.4528 117.677 75.1576 117.795 74.7509 117.808Z" fill="#F2777A"/>
<path d="M83.5673 121.331C83.5673 121.331 83.5673 121.311 83.5673 121.272C83.5673 121.233 83.6067 121.114 83.6854 120.918C83.7641 120.721 83.8953 120.472 84.079 120.17C84.2627 119.868 84.4726 119.566 84.7087 119.265C84.9449 118.963 85.2532 118.72 85.6337 118.536C86.0141 118.353 86.4077 118.248 86.8144 118.222C87.2474 118.248 87.641 118.392 87.9952 118.655C88.3494 118.917 88.5266 119.376 88.5266 120.032V120.386L87.5623 124.283C87.4179 124.834 87.2539 125.47 87.0703 126.192C86.8866 126.913 86.7554 127.451 86.6767 127.806C86.598 128.16 86.5455 128.343 86.5192 128.357C86.2962 129.013 85.8829 129.603 85.2794 130.128C84.6759 130.652 83.9675 130.921 83.154 130.935C82.5505 130.935 82.0979 130.784 81.7961 130.482C81.5731 130.259 81.4616 129.99 81.4616 129.675C81.4616 129.308 81.5797 129.019 81.8158 128.809C82.052 128.599 82.3209 128.488 82.6227 128.475C82.8982 128.475 83.095 128.553 83.2131 128.711C83.3312 128.868 83.3968 129.019 83.4099 129.163C83.4099 129.583 83.2262 129.924 82.8588 130.187L82.9572 130.206H83.2524H83.2721C83.9543 130.206 84.5119 129.596 84.9449 128.376C84.9842 128.258 85.3319 126.894 85.9879 124.283C86.6439 121.672 86.9916 120.275 87.0309 120.091C87.044 120.012 87.0506 119.862 87.0506 119.638C87.0506 119.481 87.044 119.363 87.0309 119.284C87.0178 119.206 86.9784 119.133 86.9128 119.068C86.8472 119.002 86.7488 118.963 86.6176 118.95C86.2765 118.95 85.9157 119.127 85.5353 119.481C85.2991 119.717 85.1023 119.986 84.9449 120.288C84.7874 120.59 84.6628 120.846 84.571 121.055C84.4791 121.265 84.4201 121.383 84.3938 121.41C84.3676 121.436 84.243 121.449 84.0199 121.449H83.6854C83.6067 121.37 83.5673 121.311 83.5673 121.272V121.331Z" fill="#F2777A"/>
<path d="M82.6424 115.585L85.3385 112.948L85.4959 113.105C87.2015 114.732 88.0542 115.558 88.0542 115.585L87.5426 116.155C87.5163 116.142 87.1359 115.814 86.4012 115.171L85.3581 114.266L84.2758 115.191C84.1052 115.335 83.9347 115.486 83.7641 115.644C83.5935 115.801 83.4558 115.926 83.3508 116.018L83.1934 116.136C83.1672 116.162 83.0688 116.07 82.8982 115.86L82.6424 115.585Z" fill="#F2777A"/>
</g>
</g>
<defs>
<clipPath id="clip0_1583_1304">
<rect width="640" height="360" fill="white"/>
</clipPath>
<clipPath id="clip1_1583_1304">
<rect width="640" height="360" fill="white"/>
</clipPath>
<clipPath id="clip2_1583_1304">
<rect width="183.84" height="47.241" fill="white" transform="translate(102.28 220.316)"/>
</clipPath>
<clipPath id="clip3_1583_1304">
<rect width="31.8507" height="17.5392" fill="white" transform="translate(184.852 172.783)"/>
</clipPath>
<clipPath id="clip4_1583_1304">
<rect width="16.3734" height="19.9578" fill="white" transform="translate(72.2516 110.978)"/>
</clipPath>
</defs>
</svg>
