<svg width="640" height="360" viewBox="0 0 640 360" fill="none" xmlns="http://www.w3.org/2000/svg">
<g clip-path="url(#clip0_1583_1134)">
<path d="M640 0H0V360H640V0Z" fill="black"/>
<g clip-path="url(#clip1_1583_1134)">
<path d="M0 5H640" stroke="#303030" stroke-width="1.5"/>
<path d="M0 55H640" stroke="#303030" stroke-width="1.5"/>
<path d="M0 105H640" stroke="#303030" stroke-width="1.5"/>
<path d="M0 155H640" stroke="#303030" stroke-width="1.5"/>
<path d="M0 205H640" stroke="#303030" stroke-width="1.5"/>
<path d="M0 255H640" stroke="#303030" stroke-width="1.5"/>
<path d="M0 305H640" stroke="#303030" stroke-width="1.5"/>
<path d="M0 355H640" stroke="#303030" stroke-width="1.5"/>
<path d="M45 0V360" stroke="#303030" stroke-width="1.5"/>
<path d="M95 0V360" stroke="#303030" stroke-width="1.5"/>
<path d="M145 0V360" stroke="#303030" stroke-width="1.5"/>
<path d="M195 0V360" stroke="#303030" stroke-width="1.5"/>
<path d="M245 0V360" stroke="#303030" stroke-width="1.5"/>
<path d="M295 0V360" stroke="#303030" stroke-width="1.5"/>
<path d="M345 0V360" stroke="#303030" stroke-width="1.5"/>
<path d="M395 0V360" stroke="#303030" stroke-width="1.5"/>
<path d="M445 0V360" stroke="#303030" stroke-width="1.5"/>
<path d="M495 0V360" stroke="#303030" stroke-width="1.5"/>
<path d="M545 0V360" stroke="#303030" stroke-width="1.5"/>
<path d="M595 0V360" stroke="#303030" stroke-width="1.5"/>
<path d="M0 30H640" stroke="#505050" stroke-width="1.5"/>
<path d="M0 80H640" stroke="#505050" stroke-width="1.5"/>
<path d="M0 130H640" stroke="#505050" stroke-width="1.5"/>
<path d="M0 180H640" stroke="#505050" stroke-width="1.5"/>
<path d="M0 230H640" stroke="#505050" stroke-width="1.5"/>
<path d="M0 280H640" stroke="#505050" stroke-width="1.5"/>
<path d="M0 330H640" stroke="#505050" stroke-width="1.5"/>
<path d="M20 0V360" stroke="#505050" stroke-width="1.5"/>
<path d="M70 0V360" stroke="#505050" stroke-width="1.5"/>
<path d="M120 0V360" stroke="#505050" stroke-width="1.5"/>
<path d="M170 0V360" stroke="#505050" stroke-width="1.5"/>
<path d="M220 0V360" stroke="#505050" stroke-width="1.5"/>
<path d="M270 0V360" stroke="#505050" stroke-width="1.5"/>
<path d="M320 0V360" stroke="#505050" stroke-width="1.5"/>
<path d="M370 0V360" stroke="#505050" stroke-width="1.5"/>
<path d="M420 0V360" stroke="#505050" stroke-width="1.5"/>
<path d="M470 0V360" stroke="#505050" stroke-width="1.5"/>
<path d="M520 0V360" stroke="#505050" stroke-width="1.5"/>
<path d="M570 0V360" stroke="#505050" stroke-width="1.5"/>
<path d="M620 0V360" stroke="#505050" stroke-width="1.5"/>
</g>
<path d="M625 173.25L640 180L625 186.75L628 180L625 173.25Z" fill="#C0C0C0"/>
<path d="M15 186.75L0 180L15 173.25L12 180L15 186.75Z" fill="#C0C0C0"/>
<path d="M4 180H636" stroke="#C0C0C0" stroke-width="1.5"/>
<path d="M326.75 345L320 360L313.25 345L320 348L326.75 345Z" fill="#C0C0C0"/>
<path d="M313.25 15L320 0L326.75 15L320 12L313.25 15Z" fill="#C0C0C0"/>
<path d="M320 4V356" stroke="#C0C0C0" stroke-width="1.5"/>
<path d="M617.498 171.529H599.884V186.473H617.498V171.529Z" fill="black"/>
<g clip-path="url(#clip2_1583_1134)">
<path d="M604.216 178.54C604.308 177.989 604.662 177.353 605.279 176.631C605.895 175.91 606.656 175.542 607.562 175.529C608.021 175.529 608.441 175.647 608.821 175.883C609.202 176.12 609.484 176.415 609.668 176.769C610.219 175.942 610.881 175.529 611.656 175.529C612.141 175.529 612.561 175.673 612.915 175.962C613.269 176.251 613.453 176.638 613.466 177.123C613.466 177.504 613.374 177.812 613.191 178.048C613.007 178.285 612.83 178.429 612.659 178.481C612.489 178.534 612.338 178.56 612.207 178.56C611.957 178.56 611.754 178.488 611.597 178.344C611.439 178.199 611.36 178.009 611.36 177.773C611.36 177.169 611.688 176.756 612.344 176.533C612.2 176.362 611.938 176.277 611.557 176.277C611.387 176.277 611.262 176.29 611.183 176.316C610.685 176.526 610.317 176.959 610.081 177.615C609.294 180.515 608.9 182.208 608.9 182.693C608.9 183.061 609.005 183.323 609.215 183.48C609.425 183.638 609.655 183.717 609.904 183.717C610.389 183.717 610.868 183.5 611.341 183.067C611.813 182.634 612.135 182.103 612.305 181.473C612.344 181.342 612.384 181.27 612.423 181.256C612.463 181.243 612.567 181.23 612.738 181.217H612.817C613.014 181.217 613.112 181.27 613.112 181.375C613.112 181.388 613.099 181.46 613.073 181.591C612.863 182.339 612.456 183.002 611.852 183.579C611.249 184.156 610.547 184.445 609.746 184.445C608.828 184.445 608.133 184.032 607.66 183.205C607.122 184.018 606.506 184.425 605.81 184.425H605.692C605.049 184.425 604.59 184.255 604.314 183.913C604.039 183.572 603.895 183.211 603.881 182.831C603.881 182.411 604.006 182.07 604.255 181.808C604.505 181.545 604.8 181.414 605.141 181.414C605.705 181.414 605.987 181.689 605.987 182.24C605.987 182.503 605.909 182.733 605.751 182.929C605.594 183.126 605.443 183.257 605.298 183.323C605.154 183.389 605.069 183.421 605.043 183.421L604.984 183.441C604.984 183.454 605.023 183.48 605.102 183.52C605.18 183.559 605.285 183.605 605.417 183.658C605.548 183.71 605.672 183.73 605.791 183.717C606.263 183.717 606.67 183.421 607.011 182.831C607.129 182.621 607.28 182.175 607.463 181.493C607.647 180.81 607.831 180.102 608.015 179.367C608.198 178.632 608.303 178.199 608.329 178.068C608.395 177.714 608.428 177.458 608.428 177.3C608.428 176.933 608.329 176.671 608.133 176.513C607.936 176.356 607.713 176.277 607.463 176.277C606.939 176.277 606.447 176.487 605.987 176.907C605.528 177.327 605.207 177.865 605.023 178.521C604.997 178.639 604.964 178.704 604.925 178.718C604.885 178.731 604.78 178.744 604.61 178.757H604.334C604.255 178.678 604.216 178.606 604.216 178.54Z" fill="#C0C0C0"/>
</g>
<path d="M329.108 21.6108H311.723V40.3881H329.108V21.6108Z" fill="black"/>
<g clip-path="url(#clip3_1583_1134)">
<path d="M315.722 28.6627C315.722 28.4789 315.82 28.164 316.017 27.7177C316.214 27.2715 316.529 26.8056 316.962 26.32C317.395 25.8345 317.881 25.5982 318.419 25.6113C318.957 25.6113 319.39 25.7623 319.718 26.0641C320.046 26.366 320.217 26.7859 320.23 27.324C320.204 27.5734 320.184 27.7112 320.171 27.7374C320.171 27.7768 320.066 28.0786 319.856 28.643C319.646 29.2073 319.429 29.8438 319.206 30.5525C318.983 31.2612 318.878 31.8255 318.891 32.2455C318.891 32.8098 318.983 33.2036 319.167 33.4267C319.351 33.6498 319.626 33.7679 319.994 33.781C320.296 33.781 320.578 33.7088 320.84 33.5645C321.103 33.4201 321.306 33.2692 321.451 33.1117C321.595 32.9542 321.772 32.7377 321.982 32.462C321.982 32.4489 322.015 32.3177 322.081 32.0683C322.146 31.819 322.238 31.4318 322.356 30.9069C322.474 30.3819 322.599 29.8963 322.73 29.4501C323.229 27.4815 323.504 26.4513 323.557 26.3594C323.728 26.0051 324.01 25.8279 324.403 25.8279C324.574 25.8279 324.712 25.8738 324.817 25.9657C324.922 26.0576 324.994 26.1363 325.033 26.2019C325.073 26.2675 325.086 26.3266 325.073 26.3791C325.073 26.5497 324.751 27.9277 324.108 30.5131C323.465 33.0986 323.098 34.5159 323.006 34.7653C322.638 35.8546 322.002 36.7208 321.096 37.3638C320.191 38.0069 319.285 38.335 318.38 38.3481C317.789 38.3481 317.271 38.2038 316.824 37.9151C316.378 37.6263 316.155 37.1932 316.155 36.6158C316.155 36.3271 316.201 36.0843 316.293 35.8874C316.385 35.6905 316.509 35.5462 316.667 35.4543C316.824 35.3624 316.956 35.2968 317.061 35.2575C317.166 35.2181 317.277 35.1984 317.395 35.1984C317.973 35.1984 318.261 35.474 318.261 36.0252C318.261 36.2877 318.183 36.5174 318.025 36.7142C317.868 36.9111 317.717 37.0423 317.572 37.1079C317.428 37.1736 317.343 37.2064 317.317 37.2064L317.257 37.226C317.284 37.2917 317.408 37.3704 317.631 37.4623C317.855 37.5541 318.078 37.6001 318.301 37.6001H318.458C318.681 37.6001 318.852 37.587 318.97 37.5607C319.403 37.4426 319.804 37.1932 320.171 36.8126C320.538 36.432 320.821 36.0252 321.017 35.5921C321.214 35.159 321.365 34.7916 321.47 34.4897C321.575 34.1879 321.628 33.991 321.628 33.8991L321.51 33.9779C321.431 34.0304 321.306 34.1025 321.136 34.1944C320.965 34.2863 320.794 34.365 320.624 34.4306C320.361 34.4963 320.105 34.5291 319.856 34.5291C319.252 34.5291 318.721 34.3847 318.261 34.096C317.802 33.8073 317.5 33.3414 317.356 32.6983C317.343 32.6064 317.336 32.403 317.336 32.088C317.336 31.34 317.566 30.3622 318.025 29.1548C318.485 27.9474 318.714 27.1797 318.714 26.8516C318.714 26.8384 318.714 26.8253 318.714 26.8122C318.714 26.6941 318.714 26.6153 318.714 26.576C318.714 26.5366 318.688 26.4906 318.635 26.4382C318.583 26.3857 318.511 26.3594 318.419 26.3594H318.34C318.038 26.3594 317.763 26.4841 317.513 26.7334C317.264 26.9828 317.067 27.2518 316.923 27.5406C316.778 27.8293 316.667 28.1049 316.588 28.3674C316.509 28.6299 316.457 28.7742 316.431 28.8005C316.404 28.8267 316.299 28.8398 316.116 28.8398H315.84C315.761 28.7611 315.722 28.702 315.722 28.6627Z" fill="#C0C0C0"/>
</g>
<path d="M461.263 266.063L470 280L453.775 277.296L460.015 273.344L461.263 266.063Z" fill="#FFF888"/>
<path d="M320 180L466.672 277.781" stroke="#FFF888" stroke-width="1.5"/>
<path d="M613.451 293.928H461.112V347.297H613.451V293.928Z" fill="black"/>
<g clip-path="url(#clip4_1583_1134)">
<path d="M465.096 345.149V297.928H470.391V299.149H466.317V343.929H470.391V345.149H465.096Z" fill="#F0F0F0"/>
<path d="M482.969 303.568C482.615 303.568 482.339 303.456 482.142 303.233C481.946 303.01 481.841 302.721 481.828 302.367C481.828 301.645 482.142 301.002 482.772 300.438C483.402 299.874 484.163 299.591 485.056 299.591C485.515 299.591 485.804 299.598 485.922 299.611C486.893 299.769 487.634 300.116 488.146 300.654C488.658 301.192 488.92 301.776 488.933 302.406C488.933 303.089 488.71 303.751 488.264 304.394C487.818 305.037 487.201 305.503 486.414 305.792L486.355 305.831C486.355 305.844 486.414 305.864 486.532 305.89C486.65 305.916 486.84 305.976 487.103 306.067C487.365 306.159 487.615 306.297 487.851 306.481C488.927 307.176 489.465 308.095 489.465 309.236C489.465 310.273 489.058 311.179 488.244 311.953C487.431 312.727 486.401 313.114 485.154 313.114C484.104 313.114 483.199 312.832 482.438 312.268C481.677 311.703 481.296 310.988 481.296 310.122C481.296 309.755 481.414 309.46 481.65 309.236C481.887 309.013 482.182 308.895 482.536 308.882C482.904 308.882 483.205 309 483.442 309.236C483.678 309.473 483.796 309.768 483.796 310.122C483.796 310.267 483.776 310.398 483.737 310.516C483.697 310.634 483.652 310.739 483.599 310.831C483.547 310.923 483.474 311.001 483.383 311.067C483.291 311.133 483.212 311.185 483.146 311.224C483.081 311.264 483.015 311.29 482.95 311.303C482.884 311.316 482.831 311.336 482.792 311.362L482.713 311.382C483.383 311.972 484.196 312.268 485.154 312.268C485.876 312.268 486.42 311.92 486.788 311.224C487.011 310.791 487.122 310.129 487.122 309.236V308.843C487.122 307.596 486.703 306.763 485.863 306.343C485.666 306.264 485.266 306.218 484.662 306.205L483.835 306.185L483.776 306.146C483.75 306.107 483.737 306.002 483.737 305.831C483.737 305.595 483.789 305.477 483.894 305.477C484.262 305.477 484.642 305.444 485.036 305.378C485.482 305.313 485.889 305.037 486.256 304.552C486.624 304.066 486.808 303.331 486.808 302.347V302.19C486.808 301.442 486.578 300.923 486.119 300.635C485.83 300.451 485.522 300.359 485.193 300.359C484.774 300.359 484.386 300.431 484.032 300.576C483.678 300.72 483.428 300.871 483.284 301.028C483.14 301.186 483.068 301.265 483.068 301.265H483.127C483.166 301.278 483.219 301.291 483.284 301.304C483.35 301.317 483.415 301.35 483.481 301.402C483.547 301.455 483.625 301.501 483.717 301.54C483.809 301.579 483.875 301.652 483.914 301.757C483.953 301.862 484.006 301.96 484.071 302.052C484.137 302.144 484.157 302.275 484.131 302.446C484.131 302.734 484.039 302.99 483.855 303.213C483.671 303.436 483.376 303.554 482.969 303.568Z" fill="#92D192"/>
<path d="M472.281 335.573C472.281 335.573 472.281 335.488 472.281 335.317C472.281 335.147 472.373 335.016 472.557 334.924H483.993C484.19 335.029 484.288 335.16 484.288 335.317C484.288 335.475 484.19 335.606 483.993 335.711H472.557C472.373 335.619 472.281 335.488 472.281 335.317V335.573Z" fill="#F2777A"/>
<path d="M488.087 331.794C487.733 331.794 487.451 331.676 487.241 331.44C487.031 331.203 486.926 330.915 486.926 330.574C486.926 329.642 487.273 328.835 487.969 328.152C488.664 327.47 489.53 327.129 490.567 327.129C491.761 327.129 492.759 327.496 493.559 328.231C494.36 328.966 494.766 329.917 494.779 331.085C494.779 331.65 494.648 332.188 494.386 332.699C494.123 333.211 493.808 333.657 493.441 334.038C493.074 334.418 492.549 334.904 491.866 335.495C491.394 335.901 490.738 336.505 489.898 337.305L488.737 338.408L490.232 338.427C492.293 338.427 493.388 338.395 493.52 338.329C493.612 338.303 493.769 337.719 493.992 336.577V336.518H494.779V336.577C494.766 336.616 494.681 337.214 494.524 338.368C494.366 339.523 494.268 340.127 494.228 340.179V340.238H486.926V339.864V339.628C486.926 339.536 486.965 339.438 487.044 339.333C487.122 339.228 487.319 338.998 487.634 338.644C488.015 338.224 488.343 337.857 488.618 337.542C488.737 337.41 488.96 337.168 489.288 336.813C489.616 336.459 489.839 336.216 489.957 336.085C490.075 335.954 490.265 335.737 490.528 335.435C490.79 335.134 490.974 334.911 491.079 334.766C491.184 334.622 491.335 334.425 491.532 334.176C491.728 333.926 491.866 333.716 491.945 333.546C492.024 333.375 492.122 333.185 492.24 332.975C492.358 332.765 492.444 332.555 492.496 332.345C492.549 332.135 492.595 331.938 492.634 331.755C492.673 331.571 492.693 331.354 492.693 331.105C492.693 330.278 492.47 329.563 492.024 328.96C491.578 328.356 490.941 328.054 490.114 328.054C489.681 328.054 489.301 328.166 488.973 328.389C488.645 328.612 488.415 328.828 488.284 329.038C488.153 329.248 488.087 329.373 488.087 329.412C488.087 329.425 488.12 329.432 488.185 329.432C488.422 329.432 488.664 329.524 488.914 329.707C489.163 329.891 489.288 330.193 489.288 330.613C489.288 330.941 489.183 331.217 488.973 331.44C488.763 331.663 488.468 331.781 488.087 331.794Z" fill="#F2777A"/>
<path d="M500.37 299.149V297.928H505.665V345.149H500.37V343.929H504.444V299.149H500.37Z" fill="#F0F0F0"/>
<path d="M517.117 319.629C517.117 319.459 517.208 319.328 517.392 319.236H529.931C530.127 319.341 530.226 319.472 530.226 319.629C530.226 319.774 530.134 319.898 529.95 320.003L523.691 320.023H517.431C517.221 319.958 517.117 319.826 517.117 319.629ZM517.117 323.448C517.117 323.251 517.221 323.12 517.431 323.054H529.95C530.134 323.186 530.226 323.317 530.226 323.448C530.226 323.619 530.127 323.75 529.931 323.842H517.392C517.208 323.75 517.117 323.619 517.117 323.448Z" fill="#F0F0F0"/>
<path d="M539.296 317.346C538.942 317.346 538.666 317.235 538.469 317.012C538.273 316.789 538.168 316.5 538.155 316.146C538.155 315.424 538.469 314.781 539.099 314.217C539.729 313.652 540.49 313.37 541.383 313.37C541.842 313.37 542.131 313.377 542.249 313.39C543.22 313.547 543.961 313.895 544.473 314.433C544.985 314.971 545.247 315.555 545.26 316.185C545.26 316.867 545.037 317.53 544.591 318.173C544.145 318.816 543.528 319.282 542.741 319.57L542.682 319.61C542.682 319.623 542.741 319.643 542.859 319.669C542.977 319.695 543.167 319.754 543.43 319.846C543.692 319.938 543.942 320.076 544.178 320.259C545.254 320.955 545.792 321.873 545.792 323.015C545.792 324.052 545.385 324.957 544.571 325.731C543.758 326.506 542.728 326.893 541.481 326.893C540.431 326.893 539.526 326.611 538.765 326.046C538.004 325.482 537.623 324.767 537.623 323.901C537.623 323.533 537.741 323.238 537.977 323.015C538.214 322.792 538.509 322.674 538.863 322.661C539.231 322.661 539.532 322.779 539.769 323.015C540.005 323.251 540.123 323.547 540.123 323.901C540.123 324.045 540.103 324.176 540.064 324.295C540.024 324.413 539.979 324.518 539.926 324.61C539.874 324.701 539.801 324.78 539.71 324.846C539.618 324.911 539.539 324.964 539.473 325.003C539.408 325.043 539.342 325.069 539.276 325.082C539.211 325.095 539.158 325.115 539.119 325.141L539.04 325.161C539.71 325.751 540.523 326.046 541.481 326.046C542.203 326.046 542.747 325.699 543.115 325.003C543.338 324.57 543.449 323.907 543.449 323.015V322.621C543.449 321.375 543.03 320.542 542.19 320.122C541.993 320.043 541.593 319.997 540.989 319.984L540.162 319.964L540.103 319.925C540.077 319.885 540.064 319.78 540.064 319.61C540.064 319.374 540.116 319.256 540.221 319.256C540.589 319.256 540.969 319.223 541.363 319.157C541.809 319.092 542.216 318.816 542.583 318.33C542.951 317.845 543.134 317.11 543.134 316.126V315.968C543.134 315.22 542.905 314.702 542.446 314.413C542.157 314.23 541.848 314.138 541.52 314.138C541.101 314.138 540.713 314.21 540.359 314.354C540.005 314.499 539.755 314.65 539.611 314.807C539.467 314.964 539.395 315.043 539.395 315.043H539.454C539.493 315.056 539.545 315.069 539.611 315.083C539.677 315.096 539.742 315.129 539.808 315.181C539.874 315.233 539.952 315.279 540.044 315.319C540.136 315.358 540.202 315.43 540.241 315.535C540.28 315.64 540.333 315.739 540.398 315.831C540.464 315.922 540.484 316.054 540.458 316.224C540.458 316.513 540.366 316.769 540.182 316.992C539.998 317.215 539.703 317.333 539.296 317.346Z" fill="#92D192"/>
<path d="M548.114 320.811C548.114 320.745 548.16 320.574 548.252 320.299C548.344 320.023 548.482 319.702 548.666 319.334C548.849 318.967 549.105 318.632 549.433 318.33C549.761 318.029 550.116 317.845 550.496 317.779H550.85C551.297 317.779 551.664 317.924 551.953 318.212C552.241 318.501 552.392 318.908 552.405 319.433C552.392 319.682 552.366 319.859 552.327 319.964C552.287 320.069 551.999 320.87 551.461 322.366C550.778 324.15 550.437 325.213 550.437 325.554C550.437 325.817 550.542 325.948 550.752 325.948C551.001 325.948 551.251 325.836 551.5 325.613C551.841 325.246 552.136 324.636 552.386 323.783C552.425 323.625 552.458 323.533 552.484 323.507C552.51 323.481 552.602 323.461 552.76 323.448H552.878C553.009 323.448 553.094 323.448 553.134 323.448C553.173 323.448 553.219 323.468 553.272 323.507C553.324 323.547 553.344 323.593 553.331 323.645C553.331 323.776 553.265 324.026 553.134 324.393C553.003 324.76 552.753 325.18 552.386 325.653C552.018 326.125 551.598 326.447 551.126 326.617C551.021 326.643 550.864 326.657 550.654 326.657C550.076 326.657 549.663 326.493 549.414 326.165C549.164 325.836 549.04 325.469 549.04 325.062C549.04 324.708 549.361 323.684 550.004 321.992C550.647 320.299 550.975 319.269 550.988 318.901C550.988 318.744 550.969 318.639 550.929 318.586C550.89 318.534 550.791 318.501 550.634 318.488C550.267 318.514 549.958 318.718 549.709 319.098C549.459 319.479 549.276 319.885 549.158 320.318C549.04 320.751 548.961 320.968 548.921 320.968C548.908 320.981 548.784 320.988 548.547 320.988H548.233C548.154 320.909 548.114 320.85 548.114 320.811Z" fill="#92D192"/>
<path d="M547.429 315.142L550.126 312.504L550.284 312.662C551.99 314.289 552.842 315.115 552.842 315.142L552.331 315.713C552.304 315.699 551.924 315.371 551.189 314.728L550.146 313.823L549.063 314.748C548.893 314.892 548.722 315.043 548.551 315.201C548.381 315.358 548.243 315.483 548.138 315.575L547.981 315.693C547.954 315.719 547.856 315.627 547.685 315.417L547.429 315.142Z" fill="#92D192"/>
<path d="M558.807 321.795C558.807 321.795 558.807 321.709 558.807 321.539C558.807 321.368 558.898 321.237 559.082 321.145H564.968V318.193L564.987 315.24C565.119 315.069 565.243 314.984 565.361 314.984C565.532 314.984 565.663 315.082 565.755 315.279V321.145H571.621C571.818 321.25 571.916 321.381 571.916 321.539C571.916 321.696 571.818 321.827 571.621 321.932H565.755V327.798C565.65 327.982 565.532 328.074 565.401 328.074H565.361H565.322C565.164 328.074 565.046 327.982 564.968 327.798V321.932H559.082C558.898 321.841 558.807 321.709 558.807 321.539V321.795Z" fill="#F0F0F0"/>
<path d="M579.045 321.795C579.045 321.795 579.045 321.709 579.045 321.539C579.045 321.368 579.137 321.237 579.321 321.145H590.757C590.954 321.25 591.052 321.381 591.052 321.539C591.052 321.696 590.954 321.828 590.757 321.932H579.321C579.137 321.841 579.045 321.709 579.045 321.539V321.795Z" fill="#F2777A"/>
<path d="M594.851 318.015C594.497 318.015 594.215 317.897 594.005 317.661C593.795 317.425 593.69 317.136 593.69 316.795C593.69 315.863 594.038 315.056 594.733 314.374C595.429 313.692 596.295 313.35 597.332 313.35C598.526 313.35 599.523 313.718 600.324 314.453C601.124 315.188 601.531 316.139 601.544 317.307C601.544 317.871 601.413 318.409 601.15 318.921C600.888 319.433 600.573 319.879 600.205 320.259C599.838 320.64 599.313 321.125 598.631 321.716C598.158 322.123 597.502 322.726 596.662 323.527L595.501 324.629L596.997 324.649C599.057 324.649 600.153 324.616 600.284 324.55C600.376 324.524 600.533 323.94 600.757 322.799V322.739H601.544V322.799C601.531 322.838 601.446 323.435 601.288 324.59C601.131 325.745 601.032 326.348 600.993 326.401V326.46H593.69V326.086V325.85C593.69 325.758 593.729 325.659 593.808 325.554C593.887 325.449 594.084 325.22 594.399 324.865C594.779 324.445 595.107 324.078 595.383 323.763C595.501 323.632 595.724 323.389 596.052 323.035C596.38 322.68 596.603 322.438 596.721 322.306C596.84 322.175 597.03 321.959 597.292 321.657C597.555 321.355 597.738 321.132 597.843 320.988C597.948 320.843 598.099 320.646 598.296 320.397C598.493 320.148 598.631 319.938 598.709 319.767C598.788 319.597 598.887 319.406 599.005 319.196C599.123 318.986 599.208 318.777 599.261 318.567C599.313 318.357 599.359 318.16 599.398 317.976C599.438 317.792 599.457 317.576 599.457 317.326C599.457 316.5 599.234 315.785 598.788 315.181C598.342 314.577 597.706 314.275 596.879 314.275C596.446 314.275 596.065 314.387 595.737 314.61C595.409 314.833 595.18 315.05 595.048 315.26C594.917 315.47 594.851 315.594 594.851 315.634C594.851 315.647 594.884 315.653 594.95 315.653C595.186 315.653 595.429 315.745 595.678 315.929C595.928 316.113 596.052 316.414 596.052 316.834C596.052 317.162 595.947 317.438 595.737 317.661C595.527 317.884 595.232 318.002 594.851 318.015Z" fill="#F2777A"/>
<path d="M604.024 320.87C604.024 320.87 604.024 320.85 604.024 320.811C604.024 320.771 604.063 320.653 604.142 320.456C604.221 320.259 604.352 320.01 604.536 319.708C604.72 319.406 604.93 319.105 605.166 318.803C605.402 318.501 605.71 318.258 606.091 318.074C606.471 317.891 606.865 317.786 607.272 317.76C607.705 317.786 608.099 317.93 608.453 318.193C608.807 318.455 608.984 318.914 608.984 319.57V319.925L608.02 323.822C607.876 324.373 607.711 325.01 607.528 325.731C607.344 326.453 607.213 326.991 607.134 327.346C607.055 327.7 607.003 327.884 606.977 327.897C606.754 328.553 606.34 329.143 605.737 329.668C605.133 330.193 604.424 330.462 603.611 330.475C603.007 330.475 602.554 330.324 602.253 330.022C602.029 329.799 601.918 329.53 601.918 329.215C601.918 328.848 602.036 328.559 602.272 328.349C602.508 328.139 602.777 328.028 603.079 328.015C603.355 328.015 603.552 328.093 603.67 328.251C603.788 328.408 603.853 328.559 603.867 328.704C603.867 329.124 603.683 329.465 603.315 329.727L603.414 329.747H603.709H603.729C604.411 329.747 604.969 329.137 605.402 327.916C605.441 327.798 605.789 326.433 606.445 323.822C607.101 321.211 607.449 319.813 607.488 319.629C607.502 319.551 607.508 319.4 607.508 319.177C607.508 319.019 607.502 318.901 607.488 318.822C607.475 318.744 607.436 318.672 607.37 318.606C607.305 318.54 607.206 318.501 607.075 318.488C606.734 318.488 606.373 318.665 605.992 319.019C605.756 319.255 605.559 319.525 605.402 319.826C605.244 320.128 605.12 320.384 605.028 320.594C604.936 320.804 604.877 320.922 604.851 320.948C604.825 320.975 604.7 320.988 604.477 320.988H604.142C604.063 320.909 604.024 320.85 604.024 320.811V320.87Z" fill="#F2777A"/>
<path d="M603.099 315.122L605.796 312.484L605.953 312.642C607.659 314.269 608.512 315.096 608.512 315.122L608 315.693C607.974 315.68 607.593 315.352 606.859 314.709L605.815 313.803L604.733 314.728C604.562 314.873 604.392 315.024 604.221 315.181C604.05 315.338 603.913 315.463 603.808 315.555L603.65 315.673C603.624 315.699 603.525 315.607 603.355 315.397L603.099 315.122Z" fill="#F2777A"/>
</g>
<path d="M455 173.25L470 180L455 186.75L458 180L455 173.25Z" fill="#92D192"/>
<path d="M320 180H466" stroke="#92D192" stroke-width="1.5"/>
<path d="M407.707 170.76H383.951V191.191H407.707V170.76Z" fill="black"/>
<g clip-path="url(#clip5_1583_1134)">
<path d="M389.621 179.595C389.267 179.595 388.991 179.484 388.794 179.261C388.598 179.038 388.493 178.749 388.48 178.395C388.48 177.673 388.794 177.031 389.424 176.466C390.054 175.902 390.815 175.62 391.707 175.62C392.166 175.62 392.455 175.627 392.573 175.64C393.543 175.797 394.285 176.145 394.796 176.683C395.308 177.221 395.57 177.805 395.583 178.434C395.583 179.116 395.36 179.779 394.914 180.422C394.468 181.065 393.852 181.53 393.065 181.819L393.006 181.858C393.006 181.871 393.065 181.891 393.183 181.917C393.301 181.944 393.491 182.003 393.753 182.094C394.016 182.186 394.265 182.324 394.501 182.508C395.577 183.203 396.115 184.121 396.115 185.263C396.115 186.299 395.708 187.204 394.895 187.978C394.081 188.752 393.051 189.139 391.805 189.139C390.756 189.139 389.85 188.857 389.09 188.293C388.329 187.729 387.948 187.014 387.948 186.148C387.948 185.781 388.066 185.486 388.302 185.263C388.539 185.04 388.834 184.922 389.188 184.909C389.555 184.909 389.857 185.027 390.093 185.263C390.329 185.499 390.447 185.794 390.447 186.148C390.447 186.293 390.428 186.424 390.388 186.542C390.349 186.66 390.303 186.765 390.251 186.857C390.198 186.949 390.126 187.027 390.034 187.093C389.942 187.158 389.864 187.211 389.798 187.25C389.732 187.29 389.667 187.316 389.601 187.329C389.536 187.342 389.483 187.362 389.444 187.388L389.365 187.408C390.034 187.998 390.847 188.293 391.805 188.293C392.527 188.293 393.071 187.946 393.439 187.25C393.662 186.817 393.773 186.155 393.773 185.263V184.869C393.773 183.623 393.353 182.79 392.514 182.37C392.317 182.291 391.917 182.245 391.313 182.232L390.487 182.213L390.428 182.173C390.401 182.134 390.388 182.029 390.388 181.858C390.388 181.622 390.441 181.504 390.546 181.504C390.913 181.504 391.294 181.471 391.687 181.406C392.133 181.34 392.54 181.065 392.907 180.579C393.275 180.094 393.458 179.359 393.458 178.375V178.218C393.458 177.47 393.229 176.952 392.769 176.663C392.481 176.48 392.173 176.388 391.845 176.388C391.425 176.388 391.038 176.46 390.684 176.604C390.329 176.748 390.08 176.899 389.936 177.057C389.791 177.214 389.719 177.293 389.719 177.293H389.778C389.818 177.306 389.87 177.319 389.936 177.332C390.001 177.345 390.067 177.378 390.133 177.431C390.198 177.483 390.277 177.529 390.369 177.568C390.46 177.608 390.526 177.68 390.565 177.785C390.605 177.89 390.657 177.988 390.723 178.08C390.788 178.172 390.808 178.303 390.782 178.474C390.782 178.762 390.69 179.018 390.506 179.241C390.323 179.464 390.028 179.582 389.621 179.595Z" fill="#92D192"/>
<path d="M398.437 183.059C398.437 182.993 398.483 182.823 398.575 182.547C398.666 182.272 398.804 181.95 398.988 181.583C399.172 181.216 399.427 180.881 399.755 180.579C400.083 180.278 400.438 180.094 400.818 180.028H401.172C401.618 180.028 401.986 180.173 402.274 180.461C402.563 180.75 402.714 181.157 402.727 181.681C402.714 181.931 402.687 182.108 402.648 182.213C402.609 182.318 402.32 183.118 401.782 184.613C401.1 186.398 400.759 187.46 400.759 187.801C400.759 188.064 400.864 188.195 401.074 188.195C401.323 188.195 401.572 188.083 401.822 187.86C402.163 187.493 402.458 186.883 402.707 186.03C402.746 185.873 402.779 185.781 402.806 185.755C402.832 185.729 402.924 185.709 403.081 185.696H403.199C403.33 185.696 403.416 185.696 403.455 185.696C403.494 185.696 403.54 185.715 403.593 185.755C403.645 185.794 403.665 185.84 403.652 185.892C403.652 186.024 403.586 186.273 403.455 186.64C403.324 187.008 403.074 187.427 402.707 187.9C402.34 188.372 401.92 188.693 401.448 188.864C401.343 188.89 401.185 188.903 400.975 188.903C400.398 188.903 399.985 188.739 399.736 188.411C399.486 188.083 399.362 187.716 399.362 187.309C399.362 186.955 399.683 185.932 400.326 184.239C400.969 182.547 401.297 181.517 401.31 181.15C401.31 180.993 401.29 180.888 401.251 180.835C401.212 180.783 401.113 180.75 400.956 180.737C400.588 180.763 400.28 180.966 400.031 181.347C399.782 181.727 399.598 182.134 399.48 182.567C399.362 183 399.283 183.216 399.244 183.216C399.231 183.229 399.106 183.236 398.87 183.236H398.555C398.476 183.157 398.437 183.098 398.437 183.059Z" fill="#92D192"/>
<path d="M397.752 177.391L400.448 174.754L400.605 174.912C402.311 176.539 403.164 177.365 403.164 177.391L402.652 177.962C402.626 177.949 402.245 177.621 401.511 176.978L400.468 176.073L399.385 176.998C399.215 177.142 399.044 177.293 398.874 177.45C398.703 177.608 398.565 177.732 398.46 177.824L398.303 177.942C398.277 177.969 398.178 177.877 398.008 177.667L397.752 177.391Z" fill="#92D192"/>
</g>
<path d="M326.75 265L320 280L313.25 265L320 268L326.75 265Z" fill="#F2777A"/>
<path d="M320 180V276" stroke="#F2777A" stroke-width="1.5"/>
<path d="M340.677 218.951H302.646V242.997H340.677V218.951Z" fill="black"/>
<g clip-path="url(#clip6_1583_1134)">
<path d="M306.641 232.255C306.641 232.255 306.641 232.17 306.641 231.999C306.641 231.828 306.733 231.697 306.916 231.605H318.352C318.549 231.71 318.647 231.842 318.647 231.999C318.647 232.157 318.549 232.288 318.352 232.393H306.916C306.733 232.301 306.641 232.17 306.641 231.999V232.255Z" fill="#F2777A"/>
<path d="M322.446 228.476C322.091 228.476 321.809 228.358 321.599 228.122C321.389 227.886 321.284 227.597 321.284 227.256C321.284 226.324 321.632 225.517 322.328 224.835C323.023 224.152 323.889 223.811 324.926 223.811C326.12 223.811 327.117 224.179 327.917 224.914C328.718 225.648 329.125 226.6 329.138 227.767C329.138 228.332 329.006 228.87 328.744 229.381C328.482 229.893 328.167 230.339 327.799 230.72C327.432 231.1 326.907 231.586 326.225 232.176C325.752 232.583 325.096 233.187 324.256 233.987L323.095 235.089L324.591 235.109C326.651 235.109 327.747 235.076 327.878 235.01C327.97 234.984 328.127 234.4 328.35 233.259V233.2H329.138V233.259C329.125 233.298 329.039 233.895 328.882 235.05C328.724 236.205 328.626 236.808 328.587 236.861V236.92H321.284V236.546V236.31C321.284 236.218 321.324 236.119 321.403 236.014C321.481 235.909 321.678 235.68 321.993 235.325C322.374 234.906 322.702 234.538 322.977 234.223C323.095 234.092 323.318 233.849 323.646 233.495C323.974 233.141 324.197 232.898 324.316 232.767C324.434 232.636 324.624 232.419 324.886 232.117C325.149 231.815 325.332 231.592 325.437 231.448C325.542 231.304 325.693 231.107 325.89 230.858C326.087 230.608 326.225 230.398 326.303 230.228C326.382 230.057 326.481 229.867 326.599 229.657C326.717 229.447 326.802 229.237 326.855 229.027C326.907 228.817 326.953 228.62 326.992 228.437C327.032 228.253 327.051 228.036 327.051 227.787C327.051 226.96 326.828 226.245 326.382 225.642C325.936 225.038 325.3 224.736 324.473 224.736C324.04 224.736 323.659 224.848 323.331 225.071C323.003 225.294 322.774 225.511 322.643 225.72C322.511 225.93 322.446 226.055 322.446 226.094C322.446 226.108 322.479 226.114 322.544 226.114C322.78 226.114 323.023 226.206 323.272 226.39C323.522 226.573 323.646 226.875 323.646 227.295C323.646 227.623 323.541 227.899 323.331 228.122C323.121 228.345 322.826 228.463 322.446 228.476Z" fill="#F2777A"/>
<path d="M331.618 231.33C331.618 231.33 331.618 231.31 331.618 231.271C331.618 231.231 331.657 231.113 331.736 230.917C331.814 230.72 331.946 230.47 332.129 230.169C332.313 229.867 332.523 229.565 332.759 229.263C332.995 228.961 333.304 228.719 333.684 228.535C334.065 228.351 334.458 228.246 334.865 228.22C335.298 228.246 335.692 228.391 336.046 228.653C336.4 228.916 336.578 229.375 336.578 230.031V230.385L335.613 234.282C335.469 234.833 335.305 235.47 335.121 236.191C334.937 236.913 334.806 237.451 334.727 237.805C334.649 238.16 334.596 238.343 334.57 238.356C334.347 239.013 333.934 239.603 333.33 240.128C332.726 240.653 332.018 240.922 331.204 240.935C330.601 240.935 330.148 240.784 329.846 240.482C329.623 240.259 329.512 239.99 329.512 239.675C329.512 239.308 329.63 239.019 329.866 238.809C330.102 238.599 330.371 238.488 330.673 238.475C330.948 238.475 331.145 238.553 331.263 238.711C331.381 238.868 331.447 239.019 331.46 239.163C331.46 239.583 331.276 239.924 330.909 240.187L331.007 240.207H331.303H331.322C332.005 240.207 332.562 239.596 332.995 238.376C333.035 238.258 333.382 236.893 334.039 234.282C334.695 231.671 335.042 230.274 335.082 230.09C335.095 230.011 335.101 229.86 335.101 229.637C335.101 229.48 335.095 229.362 335.082 229.283C335.069 229.204 335.029 229.132 334.964 229.066C334.898 229.001 334.8 228.961 334.668 228.948C334.327 228.948 333.966 229.125 333.586 229.48C333.35 229.716 333.153 229.985 332.995 230.287C332.838 230.589 332.713 230.844 332.621 231.054C332.53 231.264 332.471 231.382 332.444 231.409C332.418 231.435 332.293 231.448 332.07 231.448H331.736C331.657 231.369 331.618 231.31 331.618 231.271V231.33Z" fill="#F2777A"/>
<path d="M330.693 225.583L333.389 222.945L333.546 223.103C335.252 224.73 336.105 225.556 336.105 225.583L335.593 226.153C335.567 226.14 335.187 225.812 334.452 225.169L333.409 224.264L332.326 225.189C332.156 225.333 331.985 225.484 331.814 225.642C331.644 225.799 331.506 225.924 331.401 226.016L331.244 226.134C331.217 226.16 331.119 226.068 330.948 225.858L330.693 225.583Z" fill="#F2777A"/>
</g>
</g>
<defs>
<clipPath id="clip0_1583_1134">
<rect width="640" height="360" fill="white"/>
</clipPath>
<clipPath id="clip1_1583_1134">
<rect width="640" height="360" fill="white"/>
</clipPath>
<clipPath id="clip2_1583_1134">
<rect width="11.2578" height="8.9175" fill="white" transform="translate(603.193 175.528)"/>
</clipPath>
<clipPath id="clip3_1583_1134">
<rect width="9.6483" height="12.7368" fill="white" transform="translate(315.307 25.6113)"/>
</clipPath>
<clipPath id="clip4_1583_1134">
<rect width="148.848" height="47.241" fill="white" transform="translate(460.234 297.918)"/>
</clipPath>
<clipPath id="clip5_1583_1134">
<rect width="16.53" height="16.356" fill="white" transform="translate(387.122 172.785)"/>
</clipPath>
<clipPath id="clip6_1583_1134">
<rect width="31.6941" height="19.9578" fill="white" transform="translate(304.985 220.977)"/>
</clipPath>
</defs>
</svg>
