<?xml version="1.0" encoding="UTF-8"?>
<svg version="1.1" xmlns="http://www.w3.org/2000/svg" width="129" height="106">
<path d="M0 0 C3.97521886 2.28485553 6.54218476 4.62655429 8 9 C7.79486102 10.48331516 7.58840679 11.96644865 7.38110352 13.44946289 C7.35208409 18.63338761 9.11047341 20.91110809 12.57397461 24.67749023 C14.64228011 26.76617349 16.76741174 28.78840187 18.90234375 30.80859375 C20.02327691 31.90576523 21.14186137 33.00534094 22.25819397 34.10719299 C25.19085595 36.99053824 28.15139338 39.84341731 31.11981201 42.68988037 C35.30666129 46.7153347 39.45409864 50.78145415 43.60609436 54.8427887 C45.81526661 57.00350926 48.0348028 59.15266103 50.26341248 61.2933197 C51.27451785 62.27160329 52.28559233 63.24991881 53.29663086 64.22827148 C54.18265488 65.07969223 55.06867889 65.93111298 55.98155212 66.80833435 C58 69 58 69 59 72 C49.91104397 85.95803962 29.60087757 94.23793552 14 98 C-1.69059274 100.93723553 -18.92023414 100.29782819 -34 95 C-35.07121094 94.62617187 -36.14242187 94.25234375 -37.24609375 93.8671875 C-47.54430628 89.90532739 -62.75954772 82.52644011 -67.90515137 72.17997742 C-68 70 -68 70 -66.17736816 67.64338684 C-64.81049866 66.33841499 -64.81049866 66.33841499 -63.41601562 65.00708008 C-62.91712326 64.52352051 -62.4182309 64.03996094 -61.90422058 63.54174805 C-60.81811272 62.49144308 -59.72650604 61.44680195 -58.63017273 60.40717506 C-56.89472219 58.75858039 -55.17751157 57.0929227 -53.46447754 55.42106628 C-48.59145066 50.67038404 -43.69171275 45.94799205 -38.76904297 41.2487793 C-35.75983307 38.37374464 -32.77565143 35.4746056 -29.80534363 32.55942345 C-28.66956897 31.4546388 -27.5243993 30.35942669 -26.36982727 29.27430153 C-19.95391892 23.74322443 -19.95391892 23.74322443 -16.58178711 16.37704468 C-16.80509731 13.99113091 -16.80509731 13.99113091 -17.50109863 11.87406921 C-18 10 -18 10 -16.875 6.6875 C-12.36689159 0.22587795 -7.73309382 -1.6235889 0 0 Z " fill="#FDFDFD" transform="translate(69,6)"/>
<path d="M0 0 C3.97521886 2.28485553 6.54218476 4.62655429 8 9 C7.79486102 10.48331516 7.58840679 11.96644865 7.38110352 13.44946289 C7.35208409 18.63338761 9.11047341 20.91110809 12.57397461 24.67749023 C14.64228011 26.76617349 16.76741174 28.78840187 18.90234375 30.80859375 C20.02327691 31.90576523 21.14186137 33.00534094 22.25819397 34.10719299 C25.19085595 36.99053824 28.15139338 39.84341731 31.11981201 42.68988037 C35.30666129 46.7153347 39.45409864 50.78145415 43.60609436 54.8427887 C45.81526661 57.00350926 48.0348028 59.15266103 50.26341248 61.2933197 C51.27451785 62.27160329 52.28559233 63.24991881 53.29663086 64.22827148 C54.18265488 65.07969223 55.06867889 65.93111298 55.98155212 66.80833435 C58 69 58 69 59 72 C49.91104397 85.95803962 29.60087757 94.23793552 14 98 C-1.69059274 100.93723553 -18.92023414 100.29782819 -34 95 C-35.07121094 94.62617187 -36.14242187 94.25234375 -37.24609375 93.8671875 C-47.54430628 89.90532739 -62.75954772 82.52644011 -67.90515137 72.17997742 C-68 70 -68 70 -66.17736816 67.64338684 C-64.81049866 66.33841499 -64.81049866 66.33841499 -63.41601562 65.00708008 C-62.91712326 64.52352051 -62.4182309 64.03996094 -61.90422058 63.54174805 C-60.81811272 62.49144308 -59.72650604 61.44680195 -58.63017273 60.40717506 C-56.89472219 58.75858039 -55.17751157 57.0929227 -53.46447754 55.42106628 C-48.59145066 50.67038404 -43.69171275 45.94799205 -38.76904297 41.2487793 C-35.75983307 38.37374464 -32.77565143 35.4746056 -29.80534363 32.55942345 C-28.66956897 31.4546388 -27.5243993 30.35942669 -26.36982727 29.27430153 C-19.95391892 23.74322443 -19.95391892 23.74322443 -16.58178711 16.37704468 C-16.80509731 13.99113091 -16.80509731 13.99113091 -17.50109863 11.87406921 C-18 10 -18 10 -16.875 6.6875 C-12.36689159 0.22587795 -7.73309382 -1.6235889 0 0 Z M-6 14 C-7.4735111 15.45184501 -7.4735111 15.45184501 -9.01245117 17.37915039 C-13.35979396 22.48759173 -18.05417076 27.19794787 -22.80078125 31.93359375 C-24.17716011 33.3114077 -24.17716011 33.3114077 -25.5813446 34.71705627 C-27.50679608 36.64396949 -29.43401307 38.56909375 -31.36254883 40.49291992 C-33.83519715 42.95982339 -36.30326319 45.43125536 -38.77006245 47.904006 C-41.13204714 50.27046121 -43.49782089 52.63311268 -45.86328125 54.99609375 C-46.74969803 55.88453476 -47.63611481 56.77297577 -48.5493927 57.68833923 C-49.77658272 58.91080101 -49.77658272 58.91080101 -51.02856445 60.15795898 C-52.1094207 61.23762184 -52.1094207 61.23762184 -53.21211243 62.33909607 C-55 64 -55 64 -57 65 C-54.14820117 72.73309867 -42.73440903 77.85154549 -35.6875 81.375 C-17.85667766 89.09025967 3.54479797 89.36502227 21.6875 82.6875 C31.36279157 78.72523774 38.99888485 73.73162715 47 67 C45.44115869 63.27092524 43.14652096 60.89298626 40.30664062 58.04785156 C39.8316362 57.5693425 39.35663177 57.09083344 38.86723328 56.5978241 C37.30188647 55.02370191 35.72937006 53.45697606 34.15625 51.890625 C33.06501471 50.7980423 31.97407645 49.70516288 30.88342285 48.61199951 C28.60016205 46.32579351 26.31333087 44.0432362 24.02392578 41.76318359 C21.08470373 38.83538273 18.15458691 35.89865908 15.22705841 32.9591713 C12.97794566 30.70284671 10.72411 28.45128863 8.46879578 26.20116425 C7.38601201 25.11971745 6.30471969 24.03677529 5.22492981 22.95233917 C3.71918137 21.44153368 2.2072098 19.93725137 0.69335938 18.43457031 C-0.16664673 17.5761554 -1.02665283 16.71774048 -1.91271973 15.83331299 C-3.78743088 13.78002704 -3.78743088 13.78002704 -6 14 Z " fill="#181E29" transform="translate(69,6)"/>
<path d="M0 0 C0 3.41297963 -0.80400275 4.90715597 -2.3125 7.9375 C-9.30472103 23.2329835 -9.39723448 39.52867925 -7 56 C-11.63624558 55.3633009 -15.54775889 53.51422443 -19.6875 51.4375 C-20.74227539 50.90938721 -20.74227539 50.90938721 -21.81835938 50.37060547 C-27.73827097 47.31162274 -33.31507717 43.79754117 -38 39 C-38 38.34 -38 37.68 -38 37 C-36.50817871 35.52818298 -36.50817871 35.52818298 -34.45898438 33.82788086 C-30.32681852 30.31223679 -26.47482376 26.60453076 -22.65625 22.75390625 C-22.00168823 22.09792953 -21.34712646 21.44195282 -20.67272949 20.76609802 C-18.61276177 18.70059855 -16.55632634 16.63162405 -14.5 14.5625 C-13.0913795 13.14885566 -11.68252733 11.73544214 -10.2734375 10.32226562 C-6.84627867 6.88416851 -3.42227981 3.44295344 0 0 Z " fill="#9DC78E" transform="translate(50,34)"/>
<path d="M0 0 C1 2 1 2 0.5859375 3.62890625 C-2.11298462 14.55054444 -0.26553363 26.22685045 5 36 C10.91952512 45.52583775 18.69567746 50.94505826 29 55 C29 55.33 29 55.66 29 56 C16.56015876 57.77712018 4.29791137 57.60864787 -8 55 C-9.57862877 41.31182011 -11.19244584 26.05238347 -6 13 C-5.57847656 11.91589844 -5.15695313 10.83179688 -4.72265625 9.71484375 C-1.34558824 1.34558824 -1.34558824 1.34558824 0 0 Z " fill="#F2E290" transform="translate(52,36)"/>
<path d="M0 0 C1.9346183 2.90192745 2.96849332 5.43820234 4.1875 8.6875 C8.3567543 18.67684052 13.47292442 23.27415053 23.23046875 27.87109375 C28.32918994 29.94941593 32.90158308 30.15321349 38.375 30.125 C39.1175 30.12886719 39.86 30.13273437 40.625 30.13671875 C44.8598522 30.12923668 48.82909897 29.83418021 53 29 C48.96248029 33.76256727 42.58585305 35.58467986 37 38 C35.824375 38.5775 34.64875 39.155 33.4375 39.75 C25.79239118 40.30600791 18.80685469 34.95288648 13.125 30.25 C5.39715524 22.87214821 0.19939078 13.00886288 -0.0703125 2.17578125 C-0.04710937 1.45777344 -0.02390625 0.73976562 0 0 Z " fill="#F9A9A9" transform="translate(53,51)"/>
<path d="M0 0 C2.69082872 0.17635452 5.32851446 0.61835921 8 1 C8 2.32 8 3.64 8 5 C8.66 5 9.32 5 10 5 C10 4.01 10 3.02 10 2 C12.64 2 15.28 2 18 2 C18 3.32 18 4.64 18 6 C18.66 6 19.32 6 20 6 C20 4.68 20 3.36 20 2 C22.97 2 25.94 2 29 2 C29 2.99 29 3.98 29 5 C29.66 5 30.32 5 31 5 C31 3.68 31 2.36 31 1 C33.64 0.67 36.28 0.34 39 0 C39.495 2.475 39.495 2.475 40 5 C26.53888519 9.03833444 13.76170906 8.56031797 0 6 C-0.38218767 4.34385343 -0.71395102 2.67542976 -1 1 C-0.67 0.67 -0.34 0.34 0 0 Z " fill="#D4C780" transform="translate(45,93)"/>
<path d="M0 0 C0.99 0.33 1.98 0.66 3 1 C3 2.65 3 4.3 3 6 C2.443125 5.7525 1.88625 5.505 1.3125 5.25 C-1.20655128 4.73101314 -1.20655128 4.73101314 -3.6875 6.75 C-6.20769744 8.85738747 -6.20769744 8.85738747 -7 12 C-7.66 11.34 -8.32 10.68 -9 10 C-10.98 10.99 -12.96 11.98 -15 13 C-15 13.99 -15 14.98 -15 16 C-15.66 16 -16.32 16 -17 16 C-17 15.34 -17 14.68 -17 14 C-19.64 14.66 -22.28 15.32 -25 16 C-24.505 18.475 -24.505 18.475 -24 21 C-24.99 20.67 -25.98 20.34 -27 20 C-27 19.01 -27 18.02 -27 17 C-30.96 17.495 -30.96 17.495 -35 18 C-35 19.32 -35 20.64 -35 22 C-35.66 22 -36.32 22 -37 22 C-37 21.01 -37 20.02 -37 19 C-39.97 19 -42.94 19 -46 19 C-46 20.32 -46 21.64 -46 23 C-46.66 23 -47.32 23 -48 23 C-48 21.68 -48 20.36 -48 19 C-50.64 19 -53.28 19 -56 19 C-56 19.99 -56 20.98 -56 22 C-56.66 22 -57.32 22 -58 22 C-58 20.68 -58 19.36 -58 18 C-59.98 18 -61.96 18 -64 18 C-60.76413103 15.84275402 -60.02139394 15.77137405 -56.31640625 15.875 C-55.394646 15.89216064 -54.47288574 15.90932129 -53.52319336 15.92700195 C-52.54616455 15.95109131 -51.56913574 15.97518066 -50.5625 16 C-33.1086846 16.18452504 -16.00430554 13.09051327 -2.125 1.625 C-1.42375 1.08875 -0.7225 0.5525 0 0 Z " fill="#2E2D33" transform="translate(111,76)"/>
<path d="M0 0 C1.32 0.66 2.64 1.32 4 2 C4 5 4 5 2.375 6.76171875 C-5.62934865 13.25208698 -19.31831902 23 -30 23 C-30.33 21.35 -30.66 19.7 -31 18 C-28.09399739 16.74335022 -26.20395416 16 -23 16 C-23 16.66 -23 17.32 -23 18 C-22.34 18 -21.68 18 -21 18 C-21.33 17.01 -21.66 16.02 -22 15 C-20.68872739 14.3309224 -19.3759455 13.66480194 -18.0625 13 C-16.96615234 12.443125 -16.96615234 12.443125 -15.84765625 11.875 C-14 11 -14 11 -13 11 C-12.236875 10.360625 -11.47375 9.72125 -10.6875 9.0625 C-8 7 -8 7 -5.8125 6.5 C-3.7973928 6.17169693 -3.7973928 6.17169693 -2.875 4.0625 C-2.441875 3.0415625 -2.441875 3.0415625 -2 2 C-1.34 1.34 -0.68 0.68 0 0 Z " fill="#EC9D9D" transform="translate(117,74)"/>
<path d="M0 0 C2.5363613 1.01454452 3.79351461 1.6853556 5.3125 4 C5.539375 4.66 5.76625 5.32 6 6 C5.67 6.66 5.34 7.32 5 8 C6.32 7.34 7.64 6.68 9 6 C10.98 7.32 12.96 8.64 15 10 C14.67 11.32 14.34 12.64 14 14 C14.66 14 15.32 14 16 14 C16 13.34 16 12.68 16 12 C19.37462715 12.54723683 21.08235 13.0549 24 15 C24 15.99 24 16.98 24 18 C24.53625 17.62875 25.0725 17.2575 25.625 16.875 C28.94612897 15.65142617 30.81090417 16.69536989 34 18 C33.505 20.475 33.505 20.475 33 23 C27.3984643 22.48416468 23.17198941 21.00103801 18.1875 18.4375 C17.49188965 18.08469971 16.7962793 17.73189941 16.07958984 17.3684082 C9.18024793 13.75724628 2.37977967 9.5696695 -2 3 C-1.34 2.01 -0.68 1.02 0 0 Z " fill="#95BE88" transform="translate(9,74)"/>
<path d="M0 0 C0.33 0 0.66 0 1 0 C0.95359375 0.64324219 0.9071875 1.28648438 0.859375 1.94921875 C0.40661417 13.2844096 3.37819458 24.38262685 11 33 C16.69135433 38.42957142 22.61972227 42.29033281 30 45 C30 45.33 30 45.66 30 46 C21.27257678 45.62054682 14.56497884 41.00452466 8.6875 34.75 C4.89996555 30.21261024 2.31541544 25.41508449 0 20 C-0.45375 19.030625 -0.9075 18.06125 -1.375 17.0625 C-2.5255734 11.42469032 -1.8132155 5.4396465 0 0 Z " fill="#FDF7F1" transform="translate(53,45)"/>
<path d="M0 0 C0.66 1.32 1.32 2.64 2 4 C1.33677734 4.56847656 1.33677734 4.56847656 0.66015625 5.1484375 C-1.42113662 7.46969119 -2.37525349 9.74434546 -3.5625 12.625 C-3.97628906 13.60726562 -4.39007813 14.58953125 -4.81640625 15.6015625 C-7.49674744 23.29759165 -8.2998906 30.37238487 -8.1875 38.5 C-8.1865332 39.82837891 -8.1865332 39.82837891 -8.18554688 41.18359375 C-8.14805239 46.85775917 -7.71502246 52.37134323 -7 58 C-7.66 58 -8.32 58 -9 58 C-15.1173321 37.23519144 -9.83186689 18.40263921 0 0 Z " fill="#FAFAF0" transform="translate(52,32)"/>
<path d="M0 0 C2.64 0.33 5.28 0.66 8 1 C8 2.32 8 3.64 8 5 C8.66 5 9.32 5 10 5 C10 4.01 10 3.02 10 2 C12.64 2 15.28 2 18 2 C18 3.32 18 4.64 18 6 C18.66 6.33 19.32 6.66 20 7 C17.62468606 7.0543965 15.25064117 7.09385864 12.875 7.125 C12.20984375 7.14175781 11.5446875 7.15851563 10.859375 7.17578125 C6.50483944 7.21847278 3.04399886 6.59996217 -1 5 C-0.67 3.35 -0.34 1.7 0 0 Z " fill="#E0D286" transform="translate(45,93)"/>
<path d="M0 0 C3.78590116 1.3754533 6.90760772 3.1369654 10.25 5.375 C14.99491114 8.45887033 19.74688657 10.91172528 25 13 C24.67 13.99 24.34 14.98 24 16 C23.34 16 22.68 16 22 16 C21.34 16.66 20.68 17.32 20 18 C19.979375 17.401875 19.95875 16.80375 19.9375 16.1875 C19.09543384 13.56685398 19.09543384 13.56685398 15.4375 12.25 C14.303125 11.8375 13.16875 11.425 12 11 C12 11.66 12 12.32 12 13 C11.34 13 10.68 13 10 13 C10 11.68 10 10.36 10 9 C7.1668838 7.37492804 7.1668838 7.37492804 4 6 C3.01 6.33 2.02 6.66 1 7 C0.67 4.69 0.34 2.38 0 0 Z " fill="#263234" transform="translate(13,75)"/>
<path d="M0 0 C3.31469389 1.22499557 4.84046741 2.16720362 6.875 5.0625 C7.125 8.3125 7.125 8.3125 6.875 11.0625 C3.70894693 8.95179795 2.67912643 7.32710973 0.875 4.0625 C-1.49733611 4.10030298 -1.49733611 4.10030298 -4.125 5.0625 C-6.38825246 8.04013043 -6.38825246 8.04013043 -8.125 11.0625 C-8.455 11.0625 -8.785 11.0625 -9.125 11.0625 C-9.5 8.375 -9.5 8.375 -9.125 5.0625 C-6.16174116 1.74647225 -4.52716343 0.09054327 0 0 Z " fill="#E4E4E6" transform="translate(65.125,9.9375)"/>
<path d="M0 0 C0.33 1.65 0.66 3.3 1 5 C-5.625 7 -5.625 7 -9 7 C-8.67 5.02 -8.34 3.04 -8 1 C-5.10765685 0.17361624 -3.11257569 0 0 0 Z " fill="#DECF85" transform="translate(84,93)"/>
<path d="M0 0 C2.64 0 5.28 0 8 0 C8 1.32 8 2.64 8 4 C8.66 4.33 9.32 4.66 10 5 C6.04 5 2.08 5 -2 5 C-2 4.34 -2 3.68 -2 3 C-1.34 3 -0.68 3 0 3 C0 2.01 0 1.02 0 0 Z " fill="#EDDE8C" transform="translate(55,95)"/>
<path d="M0 0 C5.94 1.485 5.94 1.485 12 3 C12 3.33 12 3.66 12 4 C10.35 4.33 8.7 4.66 7 5 C7 6.65 7 8.3 7 10 C6.34 10 5.68 10 5 10 C3.875 5.25 3.875 5.25 5 3 C3.35 2.67 1.7 2.34 0 2 C0 1.34 0 0.68 0 0 Z " fill="#20262D" transform="translate(38,89)"/>
<path d="M0 0 C0.33 0 0.66 0 1 0 C0.98839844 0.71285156 0.97679687 1.42570312 0.96484375 2.16015625 C0.91393974 7.56325366 1.05391729 12.67828475 2 18 C1.01 17.67 0.02 17.34 -1 17 C-2.0748291 10.72532201 -1.88341198 6.09339169 0 0 Z " fill="#FDEEEA" transform="translate(53,45)"/>
<path d="M0 0 C0.66 0.33 1.32 0.66 2 1 C0.50164236 4.11197356 -1.13977927 7.08835016 -3 10 C-3.33 10 -3.66 10 -4 10 C-4.25 7.25 -4.25 7.25 -4 4 C-2 1.625 -2 1.625 0 0 Z " fill="#EDEEEE" transform="translate(60,11)"/>
<path d="M0 0 C0 2.31 0 4.62 0 7 C-0.99 6.67 -1.98 6.34 -3 6 C-3 5.01 -3 4.02 -3 3 C-4.98 3 -6.96 3 -9 3 C-5.73209435 0.82139623 -3.91954654 0 0 0 Z " fill="#262630" transform="translate(87,90)"/>
<path d="M0 0 C2.875 -0.125 2.875 -0.125 6 0 C6.66 0.66 7.32 1.32 8 2 C6.68 2 5.36 2 4 2 C4 3.32 4 4.64 4 6 C3.34 6 2.68 6 2 6 C2 5.01 2 4.02 2 3 C1.34 2.67 0.68 2.34 0 2 C0 1.34 0 0.68 0 0 Z " fill="#41433B" transform="translate(72,92)"/>
</svg>
