<svg xmlns="http://www.w3.org/2000/svg" width="640" height="180" viewBox="0 0 640 180"><defs><style>.a{fill:#83c167;}.b{fill:#fff;}.c{fill:#fff933;}.d{fill:#f8f8f8;}</style></defs><rect width="640" height="180"/><path class="a" d="M202.807,74.692c.25-.015.534-.037.85-.062s.554-.045.713-.063.246-.024.262-.024c.2,0,.3.066.3.2q0,.174-1.837,7.562t-1.863,7.512a2.145,2.145,0,0,0-.025.375q0,1.05.7,1.051a1.089,1.089,0,0,0,.5-.226,5.667,5.667,0,0,0,1.025-2.4c.1-.334.184-.509.25-.525a.717.717,0,0,1,.25-.026h.1c.316,0,.475.068.475.2a2.09,2.09,0,0,1-.075.4,6.511,6.511,0,0,1-1.35,2.9,2.48,2.48,0,0,1-.8.526,2.693,2.693,0,0,1-.6.049,2.257,2.257,0,0,1-2.2-1.224,1.774,1.774,0,0,0-.125-.3c-.016-.017-.05-.009-.1.024l-.1.1a5.12,5.12,0,0,1-2.375,1.375,5.019,5.019,0,0,1-.625.024,3.318,3.318,0,0,1-2.725-1.375,4.862,4.862,0,0,1-.75-2.8,7.643,7.643,0,0,1,1.7-4.6,6.532,6.532,0,0,1,3.45-2.375,3.686,3.686,0,0,1,1.025-.15,2.393,2.393,0,0,1,2.1,1.049c.083.1.125.134.125.1q.024-.1.688-2.738t.687-2.762a.449.449,0,0,0-.15-.4,3.692,3.692,0,0,0-1-.125h-.525a.656.656,0,0,1-.162-.2,2.458,2.458,0,0,1,.062-.474c.083-.317.192-.476.325-.476.017,0,.1-.008.263-.024s.383-.033.675-.05S202.524,74.71,202.807,74.692Zm-2.15,9.051q-.551-1.974-1.875-1.976a2.312,2.312,0,0,0-1.762.851,5.917,5.917,0,0,0-1.163,1.949,20.006,20.006,0,0,0-1.025,4.1c0,.05,0,.141-.012.274s-.013.235-.013.3a2.458,2.458,0,0,0,.388,1.449,1.3,1.3,0,0,0,1.137.551q1.326,0,2.775-1.8l.2-.274q.225-.9.675-2.713T200.657,83.743Z"/><path class="a" d="M205.507,82.267c-.117-.116-.175-.2-.175-.25a2.006,2.006,0,0,1,.087-.412,1.633,1.633,0,0,1,.113-.338.243.243,0,0,1,.237-.137q.188-.012,1.263-.012h1.325l.475-2q.525-2.026.6-2.176a1.134,1.134,0,0,1,1.15-.7.969.969,0,0,1,.562.225.651.651,0,0,1,.238.525,15.879,15.879,0,0,1-.475,2.125c-.067.283-.146.6-.238.937s-.162.6-.212.762l-.05.25a5.787,5.787,0,0,0,1.25.051h1.275c.116.116.175.208.175.274a1.18,1.18,0,0,1-.325.875h-2.675l-.9,3.625q-.925,3.726-.95,3.925a2.05,2.05,0,0,0-.025.375q0,1.05.675,1.051a1.618,1.618,0,0,0,.3-.025,3.6,3.6,0,0,0,2.275-2,5.458,5.458,0,0,0,.45-.925.3.3,0,0,1,.125-.188,1.092,1.092,0,0,1,.375-.038c.333,0,.5.068.5.2a1.392,1.392,0,0,1-.1.3,5.9,5.9,0,0,1-.888,1.613,6.637,6.637,0,0,1-1.237,1.288,3.219,3.219,0,0,1-1.975.7,2.551,2.551,0,0,1-1.538-.463,2.261,2.261,0,0,1-.862-1.212,3.106,3.106,0,0,1-.05-.676v-.449l.875-3.5q.874-3.526.9-3.551a6.174,6.174,0,0,0-1.275-.05Z"/><rect class="b" x="186.869" y="64.301" width="32" height="1" rx="0.5"/><path class="b" d="M194.182,35.928c.25-.016.534-.038.85-.063s.554-.045.713-.062.246-.025.262-.025c.2,0,.3.066.3.2q0,.174-1.837,7.563t-1.863,7.512a2.129,2.129,0,0,0-.025.375q0,1.05.7,1.05a1.086,1.086,0,0,0,.5-.225,5.673,5.673,0,0,0,1.025-2.4c.1-.334.184-.509.25-.525a.726.726,0,0,1,.25-.025h.1c.316,0,.475.067.475.2a2.1,2.1,0,0,1-.075.4,6.516,6.516,0,0,1-1.35,2.9,2.494,2.494,0,0,1-.8.525,2.681,2.681,0,0,1-.6.05,2.258,2.258,0,0,1-2.2-1.225,1.833,1.833,0,0,0-.125-.3c-.016-.016-.05-.009-.1.025l-.1.1a5.12,5.12,0,0,1-2.375,1.375,4.95,4.95,0,0,1-.625.025A3.318,3.318,0,0,1,184.807,52a4.866,4.866,0,0,1-.75-2.8,7.643,7.643,0,0,1,1.7-4.6,6.544,6.544,0,0,1,3.45-2.375,3.724,3.724,0,0,1,1.025-.15,2.394,2.394,0,0,1,2.1,1.05c.083.1.125.133.125.1q.024-.1.688-2.738t.687-2.762a.449.449,0,0,0-.15-.4,3.692,3.692,0,0,0-1-.125h-.525A.67.67,0,0,1,192,37a2.455,2.455,0,0,1,.062-.475c.083-.316.192-.475.325-.475.017,0,.1-.008.263-.025s.383-.033.675-.05Zm-2.15,9.05Q191.481,43,190.157,43a2.311,2.311,0,0,0-1.762.85,5.922,5.922,0,0,0-1.163,1.95,19.98,19.98,0,0,0-1.025,4.1c0,.05,0,.142-.012.275s-.013.234-.013.3a2.463,2.463,0,0,0,.388,1.45,1.3,1.3,0,0,0,1.137.55q1.326,0,2.775-1.8l.2-.275q.225-.9.675-2.713T192.032,44.978Z"/><path class="b" d="M202.907,53.128q-.351,0-1.213-.025t-1.537-.025q-1.8,0-2.225.025a2.072,2.072,0,0,1-.675-.025.213.213,0,0,1-.15-.225,2.608,2.608,0,0,1,.087-.363,3.306,3.306,0,0,1,.113-.362q.05-.15.55-.15,1.8-.1,2.225-1,.1-.15,1.737-6.713t1.638-6.862c0-.066-.025-.1-.075-.1h-.05a6.894,6.894,0,0,0-1.3-.1,4.146,4.146,0,0,1-.75-.037.261.261,0,0,1-.175-.163.9.9,0,0,1,.025-.35,1.52,1.52,0,0,1,.225-.55q.075-.05,2.55-.05,1.974,0,2.287.012c.209.009.338.046.388.113q.024.1.925,7.038t.9,6.987a3.584,3.584,0,0,0,.3-.438q.3-.462.812-1.275t1.175-1.85q.663-1.037,1.388-2.2t1.45-2.325q.724-1.161,1.387-2.212l1.175-1.862q.513-.813.813-1.313l.3-.475a1.03,1.03,0,0,1,.087-.075c.042-.034.071-.058.088-.075l.15-.05h2.4q2.4,0,2.475.05a.238.238,0,0,1,.1.2,2.46,2.46,0,0,1-.075.387,2.926,2.926,0,0,0-.075.363q-.1.15-.925.15a4.2,4.2,0,0,0-1.55.175.438.438,0,0,0-.175.175q-.075.125-1.813,7.075t-1.737,7.025c0,.116.025.184.075.2a6.979,6.979,0,0,0,1.375.125h.775a.892.892,0,0,1,.15.275,1.667,1.667,0,0,1-.175.75.547.547,0,0,1-.4.125q-.426,0-1.475-.025t-1.85-.025q-.775,0-1.788.013t-1.387.012c-.217,0-.35-.042-.4-.125a.932.932,0,0,1,.025-.475q.1-.4.2-.462a1.467,1.467,0,0,1,.575-.063q.675,0,1.5-.075a.666.666,0,0,0,.475-.3q.05-.1.95-3.663t1.775-7.062q.874-3.5.875-3.525-2.2,3.476-4.85,7.725L207.657,52.9a.811.811,0,0,1-.6.225q-.375,0-.45-.175-.075-.125-.963-7.15t-1.037-8.275q-3.375,13.376-3.375,13.625.15.825,1.8.825h.25a.484.484,0,0,1,.175.225,1.2,1.2,0,0,1-.075.45q-.1.4-.2.45A1.174,1.174,0,0,1,202.907,53.128Z"/><path class="b" d="M232.746,76.341q0,.224-.45.224h-.325c-.117-.1-.35-.3-.7-.6q-4.5-4.1-4.5-11.9a20.176,20.176,0,0,1,.725-5.575,13.481,13.481,0,0,1,3.775-6.324c.117-.1.25-.213.4-.338s.25-.213.3-.263h.325a.6.6,0,0,1,.375.075.216.216,0,0,1,.075.151c0,.066-.091.191-.275.375q-3.875,4.1-3.875,11.9t3.875,11.9C232.655,76.148,232.746,76.273,232.746,76.341Z"/><path class="c" d="M236,60.69c-.117-.116-.175-.2-.175-.25a1.963,1.963,0,0,1,.088-.412,1.669,1.669,0,0,1,.112-.338.245.245,0,0,1,.238-.137q.188-.012,1.262-.012h1.325l.475-2q.525-2.026.6-2.176a1.134,1.134,0,0,1,1.15-.7.974.974,0,0,1,.563.224.656.656,0,0,1,.237.526,15.879,15.879,0,0,1-.475,2.125q-.1.425-.237.937t-.213.762l-.05.25a5.787,5.787,0,0,0,1.25.051h1.275c.116.116.175.208.175.274a1.18,1.18,0,0,1-.325.875H240.6l-.9,3.625q-.925,3.726-.95,3.925a2.05,2.05,0,0,0-.025.375q0,1.05.675,1.051a1.515,1.515,0,0,0,.3-.026,3.6,3.6,0,0,0,2.275-2,5.336,5.336,0,0,0,.45-.924.3.3,0,0,1,.125-.188,1.092,1.092,0,0,1,.375-.038q.5,0,.5.2a1.349,1.349,0,0,1-.1.3,5.845,5.845,0,0,1-.888,1.613A6.543,6.543,0,0,1,241.2,69.89a3.215,3.215,0,0,1-1.975.7,2.554,2.554,0,0,1-1.538-.463,2.267,2.267,0,0,1-.862-1.212,3.112,3.112,0,0,1-.05-.676v-.449l.875-3.5q.875-3.526.9-3.551a6.174,6.174,0,0,0-1.275-.05Z"/><path class="b" d="M245.871,51.591l.1-.026h.55l.7.6q4.5,4.1,4.5,11.9a19.731,19.731,0,0,1-.725,5.55,13.492,13.492,0,0,1-3.775,6.351c-.117.1-.25.212-.4.337s-.25.212-.3.262h-.3a.927.927,0,0,1-.388-.05c-.058-.033-.087-.117-.087-.25.017-.016.108-.125.275-.325q3.875-4.024,3.875-11.875T246.021,52.19c-.167-.2-.258-.307-.275-.325A.29.29,0,0,1,245.871,51.591Z"/><path class="b" d="M264.145,61.64a.547.547,0,0,1,.35-.5H280.42a.549.549,0,0,1,.375.5.565.565,0,0,1-.349.475l-7.951.025h-7.95A.5.5,0,0,1,264.145,61.64Zm0,4.85a.5.5,0,0,1,.4-.5h15.9a.748.748,0,0,0,.112.088,1.131,1.131,0,0,1,.125.1.412.412,0,0,1,.075.125.469.469,0,0,1,.037.187.546.546,0,0,1-.375.5H264.5A.544.544,0,0,1,264.145,66.49Z"/><path class="b" d="M298.384,60.591a1.4,1.4,0,0,1-1.1-.451,1.594,1.594,0,0,1-.4-1.1,4.1,4.1,0,0,1,1.362-3.087,4.585,4.585,0,0,1,3.263-1.288,5.423,5.423,0,0,1,3.563,1.163,4.88,4.88,0,0,1,1.737,3.037,7.6,7.6,0,0,1,.05.825,4.731,4.731,0,0,1-.875,2.725,16.569,16.569,0,0,1-2.825,2.875q-.9.775-2.5,2.3l-1.475,1.4,1.9.025a30.074,30.074,0,0,0,4.175-.125q.1-.024.25-.525a15.75,15.75,0,0,0,.35-1.7v-.074h1v.074l-.7,4.575v.075h-9.275v-.474a1.7,1.7,0,0,1,.05-.576q.026-.024,2.1-2.375,2.724-3.024,3.5-4a7.244,7.244,0,0,0,1.675-4.174,4.371,4.371,0,0,0-.862-2.763,2.881,2.881,0,0,0-2.413-1.112,2.743,2.743,0,0,0-2.35,1.3c-.033.067-.084.159-.15.275a.568.568,0,0,0-.075.15c0,.017.042.026.125.026a1.27,1.27,0,0,1,1.012.449,1.559,1.559,0,0,1,.388,1.051,1.5,1.5,0,0,1-.412,1.062A1.429,1.429,0,0,1,298.384,60.591Z"/><path class="c" d="M308.513,57.379c-.068-.069-.1-.117-.1-.146a1.171,1.171,0,0,1,.051-.241.914.914,0,0,1,.066-.2.139.139,0,0,1,.138-.08q.109-.008.736-.008h.773l.276-1.166q.308-1.18.35-1.268a.663.663,0,0,1,.671-.408A.572.572,0,0,1,311.8,54a.383.383,0,0,1,.138.306,9.075,9.075,0,0,1-.277,1.239c-.039.166-.085.347-.138.547s-.1.347-.124.444l-.029.146a3.4,3.4,0,0,0,.728.029h.744c.067.068.1.122.1.161a.686.686,0,0,1-.19.51H311.2l-.525,2.113q-.54,2.172-.553,2.288A1.1,1.1,0,0,0,310.1,62q0,.612.393.612a.884.884,0,0,0,.175-.015A2.09,2.09,0,0,0,312,61.43a3.04,3.04,0,0,0,.263-.539.179.179,0,0,1,.073-.109.634.634,0,0,1,.218-.021c.194,0,.292.038.292.116a.865.865,0,0,1-.058.175,3.432,3.432,0,0,1-.518.94,3.881,3.881,0,0,1-.721.75,1.877,1.877,0,0,1-1.152.408,1.487,1.487,0,0,1-.9-.269,1.316,1.316,0,0,1-.5-.707,1.8,1.8,0,0,1-.029-.394v-.262l.51-2.041q.51-2.055.525-2.069a3.546,3.546,0,0,0-.744-.029Z"/><path class="b" d="M356.209,40.208a1.4,1.4,0,0,1-1.1-.449,1.6,1.6,0,0,1-.4-1.1,4.1,4.1,0,0,1,1.363-3.087,4.585,4.585,0,0,1,3.262-1.288,5.421,5.421,0,0,1,3.563,1.163,4.88,4.88,0,0,1,1.737,3.037,7.618,7.618,0,0,1,.051.825,4.731,4.731,0,0,1-.875,2.725,16.607,16.607,0,0,1-2.825,2.875q-.9.775-2.5,2.3l-1.476,1.4,1.9.026a30.074,30.074,0,0,0,4.175-.125c.067-.017.151-.192.25-.526a15.634,15.634,0,0,0,.351-1.7v-.075h1v.075l-.7,4.575v.075h-9.276v-.475a1.682,1.682,0,0,1,.05-.574q.025-.026,2.1-2.375,2.724-3.026,3.5-4a7.254,7.254,0,0,0,1.674-4.176,4.37,4.37,0,0,0-.862-2.762,2.879,2.879,0,0,0-2.413-1.113,2.74,2.74,0,0,0-2.35,1.3c-.033.066-.083.158-.15.274a.548.548,0,0,0-.074.15c0,.017.041.025.125.025a1.272,1.272,0,0,1,1.012.45,1.561,1.561,0,0,1,.387,1.05,1.489,1.489,0,0,1-.412,1.062A1.425,1.425,0,0,1,356.209,40.208Z"/><path class="a" d="M373.543,32.58c.147-.009.312-.022.5-.036s.323-.027.415-.036l.154-.015c.116,0,.175.039.175.116s-.358,1.538-1.072,4.409-1.076,4.331-1.086,4.38a1.3,1.3,0,0,0-.014.219c0,.408.135.612.408.612a.63.63,0,0,0,.292-.132,3.322,3.322,0,0,0,.6-1.4c.058-.194.107-.3.146-.307a.452.452,0,0,1,.146-.014h.058c.185,0,.276.039.276.117a1.2,1.2,0,0,1-.043.232,3.8,3.8,0,0,1-.788,1.692,1.445,1.445,0,0,1-.465.3,1.523,1.523,0,0,1-.35.03,1.318,1.318,0,0,1-1.283-.714,1.173,1.173,0,0,0-.072-.175c-.01-.01-.03-.005-.059.015l-.059.057a2.974,2.974,0,0,1-1.384.8,2.731,2.731,0,0,1-.365.015,1.936,1.936,0,0,1-1.588-.8,2.834,2.834,0,0,1-.437-1.632,4.456,4.456,0,0,1,.991-2.683,3.808,3.808,0,0,1,2.011-1.383,2.144,2.144,0,0,1,.6-.088,1.4,1.4,0,0,1,1.224.612c.049.059.073.078.073.059q.014-.059.4-1.6c.257-1.024.39-1.562.4-1.61a.262.262,0,0,0-.087-.234,2.236,2.236,0,0,0-.583-.072h-.306a.43.43,0,0,1-.1-.117,1.515,1.515,0,0,1,.037-.277c.048-.184.111-.277.189-.277l.153-.015c.093-.009.223-.019.393-.029S373.378,32.591,373.543,32.58Zm-1.253,5.276q-.321-1.151-1.093-1.151a1.349,1.349,0,0,0-1.028.5,3.44,3.44,0,0,0-.677,1.137,11.641,11.641,0,0,0-.6,2.389c0,.03,0,.083-.007.161s-.008.136-.008.175a1.425,1.425,0,0,0,.227.845.758.758,0,0,0,.663.321,2.257,2.257,0,0,0,1.617-1.05l.117-.16q.13-.523.394-1.581T372.29,37.856Z"/><path class="a" d="M375.817,37c-.068-.069-.1-.117-.1-.147a1.179,1.179,0,0,1,.051-.24,1.056,1.056,0,0,1,.065-.2.143.143,0,0,1,.139-.08q.109-.008.736-.008h.773l.276-1.166q.306-1.18.35-1.268a.663.663,0,0,1,.671-.408.572.572,0,0,1,.328.131.383.383,0,0,1,.139.307,9.2,9.2,0,0,1-.278,1.238c-.039.165-.085.348-.139.547s-.094.347-.124.444l-.028.146a3.485,3.485,0,0,0,.729.029h.743c.067.068.1.122.1.16a.688.688,0,0,1-.189.511H378.5l-.524,2.113q-.538,2.171-.554,2.288a1.2,1.2,0,0,0-.014.219c0,.408.13.612.393.612a.968.968,0,0,0,.175-.014,2.1,2.1,0,0,0,1.326-1.166,3.074,3.074,0,0,0,.263-.539.179.179,0,0,1,.073-.11.647.647,0,0,1,.218-.022c.194,0,.292.039.292.117a.851.851,0,0,1-.059.175,3.4,3.4,0,0,1-.517.939,3.8,3.8,0,0,1-.721.751,1.877,1.877,0,0,1-1.151.408,1.488,1.488,0,0,1-.9-.269,1.32,1.32,0,0,1-.5-.707,1.869,1.869,0,0,1-.029-.394v-.262l.51-2.041q.509-2.055.525-2.069A3.637,3.637,0,0,0,376.56,37Z"/><path class="b" d="M387.842,44.683a.544.544,0,0,1,.351-.5h14.524a.521.521,0,0,1,0,1H388.193A.542.542,0,0,1,387.842,44.683Z"/><path class="b" d="M421.842,50.933q-.424-.074-3.974-.075-3.5,0-3.925.075h-.3v-1.15h.649a13.9,13.9,0,0,0,1.875-.075,1.6,1.6,0,0,0,.6-.3V36.483a.615.615,0,0,0-.2.075,7.385,7.385,0,0,1-2.575.475h-.475V35.884h.475a6.991,6.991,0,0,0,3.5-.951,3.5,3.5,0,0,0,.775-.575q.05-.075.3-.075a.634.634,0,0,1,.425.15v7.475l.025,7.5a2.419,2.419,0,0,0,1.625.375h1.475v1.15Z"/><path class="a" d="M387.588,72.5q.375-.024.85-.063c.316-.025.554-.045.713-.062s.245-.026.262-.026c.2,0,.3.068.3.2q0,.174-1.838,7.562t-1.862,7.512a2.05,2.05,0,0,0-.025.375q0,1.05.7,1.051a1.1,1.1,0,0,0,.5-.226,5.68,5.68,0,0,0,1.025-2.4q.15-.5.25-.526a.745.745,0,0,1,.25-.025h.1c.316,0,.475.066.475.2a2.079,2.079,0,0,1-.075.4,6.521,6.521,0,0,1-1.35,2.9,2.488,2.488,0,0,1-.8.525,2.687,2.687,0,0,1-.6.05,2.256,2.256,0,0,1-2.2-1.226,1.725,1.725,0,0,0-.125-.3c-.017-.018-.05-.009-.1.024l-.1.1a5.129,5.129,0,0,1-2.375,1.375,5.234,5.234,0,0,1-.625.024,3.318,3.318,0,0,1-2.725-1.375,4.866,4.866,0,0,1-.75-2.8,7.633,7.633,0,0,1,1.7-4.6,6.527,6.527,0,0,1,3.45-2.375,3.688,3.688,0,0,1,1.025-.151,2.394,2.394,0,0,1,2.1,1.05c.083.1.125.134.125.1q.024-.1.688-2.739t.687-2.761a.45.45,0,0,0-.15-.4,3.776,3.776,0,0,0-1-.125h-.525a.657.657,0,0,1-.162-.2,2.487,2.487,0,0,1,.062-.476c.083-.316.192-.474.325-.474.017,0,.1-.008.263-.026s.383-.033.674-.048Zm-2.15,9.051q-.55-1.976-1.875-1.976a2.307,2.307,0,0,0-1.762.851,5.907,5.907,0,0,0-1.163,1.949,19.971,19.971,0,0,0-1.025,4.1c0,.051,0,.143-.013.276s-.012.234-.012.3a2.467,2.467,0,0,0,.387,1.449,1.3,1.3,0,0,0,1.138.551q1.325,0,2.775-1.8l.2-.276q.225-.9.675-2.711T385.438,81.549Z"/><path class="a" d="M390.287,80.073c-.116-.116-.174-.2-.174-.25a1.954,1.954,0,0,1,.087-.413,1.75,1.75,0,0,1,.112-.337.248.248,0,0,1,.238-.138q.188-.011,1.262-.011h1.326l.475-2q.525-2.027.6-2.176a1.132,1.132,0,0,1,1.15-.7.958.958,0,0,1,.562.224.655.655,0,0,1,.237.526,15.7,15.7,0,0,1-.475,2.125c-.066.283-.146.595-.237.937s-.163.6-.212.762l-.051.25a5.881,5.881,0,0,0,1.25.051h1.276c.116.116.175.208.175.274a1.182,1.182,0,0,1-.326.875h-2.674l-.9,3.625q-.925,3.725-.951,3.925a2.166,2.166,0,0,0-.024.375q0,1.05.674,1.051a1.533,1.533,0,0,0,.3-.026,3.6,3.6,0,0,0,2.275-2,5.36,5.36,0,0,0,.45-.926.3.3,0,0,1,.125-.187,1.13,1.13,0,0,1,.375-.037c.333,0,.5.066.5.2a1.41,1.41,0,0,1-.1.3,5.912,5.912,0,0,1-.888,1.613,6.6,6.6,0,0,1-1.237,1.287,3.212,3.212,0,0,1-1.975.7,2.555,2.555,0,0,1-1.538-.461,2.261,2.261,0,0,1-.862-1.212,3.1,3.1,0,0,1-.051-.676v-.449l.875-3.5q.876-3.527.9-3.551a6.189,6.189,0,0,0-1.276-.05Z"/><rect class="b" x="347.65" y="62.106" width="80" height="1" rx="0.5"/><path class="b" d="M340.114,97.242c0,.05-.051.125-.151.225h-.4a1.91,1.91,0,0,1-.475-.025,9.924,9.924,0,0,1-1.125-1.225q-10.875-12.325-10.875-36.25,0-23.874,10.875-36.225.624-.75,1.1-1.225a2.192,2.192,0,0,1,.475-.025h.425c.1.1.151.175.151.225a2.246,2.246,0,0,1-.351.55,40.818,40.818,0,0,0-7.024,13.575q-2.875,9.351-2.875,23.125,0,13.8,2.875,23.15a40.818,40.818,0,0,0,7.024,13.575A2.266,2.266,0,0,1,340.114,97.242Z"/><path class="b" d="M437.793,22.717q0-.225.475-.225h.2a1.128,1.128,0,0,1,.35.025,9.661,9.661,0,0,1,1.125,1.225q10.875,12.325,10.875,36.225t-10.875,36.25a9.746,9.746,0,0,1-1.125,1.225h-.15a2.126,2.126,0,0,1-.3.025h-.15c-.284,0-.425-.083-.425-.25a2.567,2.567,0,0,1,.425-.6,38.9,38.9,0,0,0,6.525-12.2q3.3-9.8,3.3-24.45,0-14.625-3.3-24.425a38.908,38.908,0,0,0-6.525-12.2A2.15,2.15,0,0,1,437.793,22.717Z"/><path class="d" d="M335.48,115.892q.249,0,.319.321t.153,1.111a8.635,8.635,0,0,0,.246,1.384q1.168,4.3,4.635,4.3h46.7q4.41,0,5.661,5.962Q394.445,123,398.568,123h46.919a8.725,8.725,0,0,0,1.517-.1,4.2,4.2,0,0,0,2.482-1.914,8.2,8.2,0,0,0,1.251-3.889c0-.033.007-.128.021-.283a3,3,0,0,1,.041-.334c.013-.066.034-.157.062-.272a.383.383,0,0,1,.385-.321c.356,0,.1,3.668-.756,5.59a4.922,4.922,0,0,1-3.745,3.25,11.093,11.093,0,0,1-1.217.049H398.773a4.507,4.507,0,0,0-2.441.654,4.081,4.081,0,0,0-1.549,1.692,13.931,13.931,0,0,0-.727,1.741,7.3,7.3,0,0,0-.308,1.42c0,.1-.007.242-.021.431a2.258,2.258,0,0,1-.072.457c-.034.115-.064.231-.092.346a.542.542,0,0,1-.143.272.324.324,0,0,1-.226.1.444.444,0,0,1-.267-.074.468.468,0,0,1-.154-.272,2.563,2.563,0,0,1-.071-.407c-.014-.139-.034-.325-.062-.556s-.054-.444-.082-.641a7.957,7.957,0,0,0-1.292-3.3,3.944,3.944,0,0,0-2.564-1.765,5.647,5.647,0,0,0-1.23-.1H341.079a8.035,8.035,0,0,1-1.315-.085,4.177,4.177,0,0,1-1.376-.66,5.445,5.445,0,0,1-1.588-1.674C335.243,120.336,335.209,115.892,335.48,115.892Z"/><path class="a" d="M373.481,143.308c.22-.014.469-.033.747-.055s.488-.04.628-.055.216-.021.231-.021c.176,0,.263.058.263.175s-.539,2.321-1.616,6.656-1.625,6.537-1.639,6.61a1.8,1.8,0,0,0-.022.33q0,.924.616.924a.963.963,0,0,0,.44-.2,5.018,5.018,0,0,0,.9-2.113c.087-.293.161-.447.219-.462a.669.669,0,0,1,.221-.022h.087c.279,0,.418.058.418.176a1.845,1.845,0,0,1-.066.352,5.718,5.718,0,0,1-1.188,2.552,2.17,2.17,0,0,1-.7.462,2.357,2.357,0,0,1-.527.044,1.986,1.986,0,0,1-1.936-1.078,1.68,1.68,0,0,0-.11-.264c-.015-.015-.044-.007-.088.022l-.089.088a4.49,4.49,0,0,1-2.089,1.21,4.18,4.18,0,0,1-.55.022,2.917,2.917,0,0,1-2.4-1.21,4.272,4.272,0,0,1-.66-2.464,6.72,6.72,0,0,1,1.5-4.048,5.76,5.76,0,0,1,3.035-2.09,3.279,3.279,0,0,1,.9-.132,2.105,2.105,0,0,1,1.847.924c.074.088.111.117.111.088q.021-.087.6-2.409t.605-2.431a.394.394,0,0,0-.133-.352,3.279,3.279,0,0,0-.88-.11H371.7a.608.608,0,0,1-.144-.176,2.351,2.351,0,0,1,.056-.418q.11-.419.285-.418c.015,0,.092-.007.232-.022s.337-.029.594-.044Zm-1.892,7.964q-.484-1.737-1.65-1.738a2.033,2.033,0,0,0-1.551.748A5.193,5.193,0,0,0,367.365,152a17.537,17.537,0,0,0-.9,3.608c0,.044,0,.125-.012.242s-.01.2-.01.264a2.167,2.167,0,0,0,.341,1.276,1.145,1.145,0,0,0,1,.484,3.413,3.413,0,0,0,2.441-1.584l.177-.242q.2-.792.593-2.387C371.259,152.6,371.456,151.8,371.589,151.272Z"/><path class="a" d="M375.856,149.974c-.1-.1-.154-.176-.154-.22a1.753,1.753,0,0,1,.078-.363,1.439,1.439,0,0,1,.1-.3.214.214,0,0,1,.209-.121q.165-.011,1.111-.011h1.166l.418-1.76q.462-1.782.527-1.914a1,1,0,0,1,1.013-.616.858.858,0,0,1,.5.2.576.576,0,0,1,.209.462,13.887,13.887,0,0,1-.418,1.87c-.059.25-.129.524-.209.825s-.143.525-.187.671l-.045.22a5.143,5.143,0,0,0,1.1.044h1.122c.1.1.154.183.154.242a1.041,1.041,0,0,1-.285.77h-2.354l-.792,3.19q-.815,3.278-.836,3.454a1.8,1.8,0,0,0-.022.33q0,.924.593.924a1.354,1.354,0,0,0,.265-.022,3.163,3.163,0,0,0,2-1.759,4.833,4.833,0,0,0,.4-.815.271.271,0,0,1,.109-.165.973.973,0,0,1,.331-.033c.292,0,.439.058.439.176a1.212,1.212,0,0,1-.087.264,5.153,5.153,0,0,1-.782,1.419,5.732,5.732,0,0,1-1.089,1.133,2.833,2.833,0,0,1-1.737.616,2.235,2.235,0,0,1-1.353-.407,2,2,0,0,1-.76-1.067,2.79,2.79,0,0,1-.044-.594v-.4l.77-3.08q.771-3.1.792-3.124a5.437,5.437,0,0,0-1.122-.044Z"/><path class="b" d="M389.958,152.944a.479.479,0,0,1,.308-.44H407.1a8.221,8.221,0,0,1-2.42-2.816,7.083,7.083,0,0,1-.726-2.09.37.37,0,0,0-.011-.087.273.273,0,0,1-.011-.067q0-.242.44-.242a.657.657,0,0,1,.341.056.425.425,0,0,1,.121.253,4.319,4.319,0,0,0,.242.9,6.755,6.755,0,0,0,1.606,2.629A6.508,6.508,0,0,0,409.3,152.7a.247.247,0,0,1,0,.484,6.508,6.508,0,0,0-2.618,1.661,6.762,6.762,0,0,0-1.606,2.629,8.052,8.052,0,0,0-.242.88.462.462,0,0,1-.121.275.671.671,0,0,1-.341.055q-.462,0-.462-.242a4.437,4.437,0,0,1,.132-.55,7.823,7.823,0,0,1,3.058-4.509h-16.83A.479.479,0,0,1,389.958,152.944Z"/><path class="b" d="M418.338,145.574a3.881,3.881,0,0,1,3.366-1.782,4.06,4.06,0,0,1,2.816,1.1,4.787,4.787,0,0,1,1.012,1.5,12.579,12.579,0,0,1,.814,5.016,11.49,11.49,0,0,1-.946,5.214,3.817,3.817,0,0,1-1.8,1.849,4.156,4.156,0,0,1-1.87.461,3.876,3.876,0,0,1-3.7-2.31,11.477,11.477,0,0,1-.946-5.214,17.1,17.1,0,0,1,.275-3.377A7.361,7.361,0,0,1,418.338,145.574Zm4.95-.264a2.03,2.03,0,0,0-1.562-.7,2.1,2.1,0,0,0-1.584.7,2.64,2.64,0,0,0-.66,1.232,13.592,13.592,0,0,0-.22,2.509c0,.087,0,.374-.011.857s-.011.888-.011,1.21q0,2.112.044,2.948a12.431,12.431,0,0,0,.264,2.211,2.494,2.494,0,0,0,.66,1.155,1.952,1.952,0,0,0,1.518.661,1.928,1.928,0,0,0,1.5-.661,2.511,2.511,0,0,0,.66-1.155,12.625,12.625,0,0,0,.264-2.211q.043-.836.044-2.948,0-.483-.011-1.21c-.008-.483-.011-.77-.011-.857a13.592,13.592,0,0,0-.22-2.509A2.658,2.658,0,0,0,423.288,145.31Z"/></svg>