<svg xmlns="http://www.w3.org/2000/svg" width="360" height="240" viewBox="0 0 360 240"><rect width="360" height="240"/><path d="M56.637,86.5q.375-.024.849-.062t.713-.063c.158-.016.246-.025.262-.025.2,0,.3.067.3.2q0,.175-1.838,7.563t-1.862,7.512a2.05,2.05,0,0,0-.025.375q0,1.05.7,1.05a1.067,1.067,0,0,0,.5-.225,5.671,5.671,0,0,0,1.026-2.4c.1-.333.183-.508.25-.524a.709.709,0,0,1,.25-.026h.1q.476,0,.475.2a2.054,2.054,0,0,1-.074.4,6.521,6.521,0,0,1-1.35,2.9,2.484,2.484,0,0,1-.8.526,2.689,2.689,0,0,1-.6.049,2.255,2.255,0,0,1-2.2-1.225,2.041,2.041,0,0,0-.125-.3c-.017-.016-.05-.008-.1.025l-.1.1a5.11,5.11,0,0,1-2.375,1.375,4.736,4.736,0,0,1-.625.025,3.316,3.316,0,0,1-2.724-1.375,4.862,4.862,0,0,1-.75-2.8,7.642,7.642,0,0,1,1.7-4.6A6.55,6.55,0,0,1,51.662,92.8a3.716,3.716,0,0,1,1.025-.149,2.4,2.4,0,0,1,2.1,1.049c.083.1.125.134.125.1q.024-.1.687-2.737t.688-2.763a.45.45,0,0,0-.15-.4,3.7,3.7,0,0,0-1-.125h-.526a.7.7,0,0,1-.162-.2,2.525,2.525,0,0,1,.063-.475c.083-.316.191-.475.324-.475.017,0,.105-.008.263-.025s.383-.033.675-.05Zm-2.151,9.05q-.549-1.974-1.875-1.975a2.311,2.311,0,0,0-1.762.85,5.9,5.9,0,0,0-1.162,1.95,19.868,19.868,0,0,0-1.025,4.1c0,.051-.005.142-.013.275s-.012.234-.012.3a2.466,2.466,0,0,0,.387,1.45,1.3,1.3,0,0,0,1.138.55q1.325,0,2.775-1.8l.2-.275q.225-.9.675-2.712T54.486,95.553Z" style="fill:#83c167"/><path d="M59.336,94.078c-.117-.116-.175-.2-.175-.25a1.963,1.963,0,0,1,.088-.412,1.669,1.669,0,0,1,.112-.338.245.245,0,0,1,.238-.137q.188-.012,1.262-.013h1.325l.475-2q.525-2.025.6-2.175a1.135,1.135,0,0,1,1.15-.7.967.967,0,0,1,.563.226.652.652,0,0,1,.237.524,15.808,15.808,0,0,1-.475,2.125c-.066.284-.146.6-.237.938s-.163.6-.213.762l-.05.25a5.843,5.843,0,0,0,1.25.05h1.275c.117.117.175.209.175.275a1.18,1.18,0,0,1-.325.875H63.936l-.9,3.625q-.924,3.726-.95,3.925a2.05,2.05,0,0,0-.025.375q0,1.05.675,1.05a1.611,1.611,0,0,0,.3-.024,3.6,3.6,0,0,0,2.275-2,5.287,5.287,0,0,0,.45-.926.308.308,0,0,1,.125-.187,1.092,1.092,0,0,1,.375-.038q.5,0,.5.2a1.349,1.349,0,0,1-.1.3,5.867,5.867,0,0,1-.887,1.613,6.61,6.61,0,0,1-1.238,1.288,3.216,3.216,0,0,1-1.975.7,2.548,2.548,0,0,1-1.537-.462,2.265,2.265,0,0,1-.863-1.213,3.161,3.161,0,0,1-.05-.675v-.45l.875-3.5q.875-3.525.9-3.55a6.174,6.174,0,0,0-1.275-.05Z" style="fill:#83c167"/><path d="M153.858,53.078a1.4,1.4,0,0,1-1.1-.45,1.6,1.6,0,0,1-.4-1.1,4.1,4.1,0,0,1,1.363-3.087,4.581,4.581,0,0,1,3.262-1.288,5.416,5.416,0,0,1,3.563,1.163,4.882,4.882,0,0,1,1.737,3.037,7.618,7.618,0,0,1,.051.825,4.731,4.731,0,0,1-.875,2.725,16.584,16.584,0,0,1-2.826,2.875q-.9.776-2.5,2.3l-1.475,1.4,1.9.025a29.874,29.874,0,0,0,4.174-.125q.1-.024.25-.525a15.634,15.634,0,0,0,.351-1.7v-.075h1v.075l-.7,4.575V63.8h-9.275v-.475a1.694,1.694,0,0,1,.05-.575q.026-.024,2.1-2.375,2.725-3.024,3.5-4a7.246,7.246,0,0,0,1.676-4.175,4.371,4.371,0,0,0-.863-2.762,2.879,2.879,0,0,0-2.413-1.113,2.739,2.739,0,0,0-2.349,1.3c-.034.067-.084.158-.151.275a.534.534,0,0,0-.074.15c0,.017.041.025.125.025a1.273,1.273,0,0,1,1.012.45,1.561,1.561,0,0,1,.387,1.05,1.489,1.489,0,0,1-.412,1.062A1.424,1.424,0,0,1,153.858,53.078Z" style="fill:#fff"/><path d="M165.188,49.866c-.068-.067-.1-.116-.1-.146a1.179,1.179,0,0,1,.051-.24.928.928,0,0,1,.065-.2.145.145,0,0,1,.139-.08q.109-.008.736-.007h.772l.277-1.166q.306-1.18.35-1.268a.661.661,0,0,1,.671-.408.554.554,0,0,1,.327.131.383.383,0,0,1,.139.306,9.287,9.287,0,0,1-.277,1.239c-.039.165-.085.348-.139.546s-.094.348-.124.445l-.028.146a3.478,3.478,0,0,0,.728.029h.743c.068.068.1.122.1.16a.689.689,0,0,1-.189.51h-1.56l-.524,2.114q-.54,2.171-.554,2.288a1.183,1.183,0,0,0-.015.219q0,.612.394.612a.884.884,0,0,0,.175-.015,2.093,2.093,0,0,0,1.326-1.166,3.039,3.039,0,0,0,.262-.539.18.18,0,0,1,.073-.109.628.628,0,0,1,.219-.022c.194,0,.291.039.291.116a.782.782,0,0,1-.058.175,3.413,3.413,0,0,1-.517.94,3.806,3.806,0,0,1-.722.751,1.875,1.875,0,0,1-1.151.408,1.486,1.486,0,0,1-.9-.27,1.311,1.311,0,0,1-.5-.707,1.769,1.769,0,0,1-.03-.393v-.262l.51-2.041q.51-2.055.525-2.069a3.481,3.481,0,0,0-.743-.03Z" style="fill:#fff933"/><path d="M171.586,51.834a.317.317,0,0,1,.2-.291h4.358V49.356l.014-2.186c.1-.126.19-.189.277-.189a.318.318,0,0,1,.292.218v4.344h4.343a.337.337,0,0,1,.219.291.341.341,0,0,1-.219.292h-4.343v4.343a.31.31,0,0,1-.583,0V52.126H171.79A.318.318,0,0,1,171.586,51.834Z" style="fill:#fff"/><path d="M189.192,45.45c.146-.009.311-.022.5-.036s.323-.027.416-.037l.152-.015c.117,0,.175.04.175.117s-.357,1.538-1.071,4.409-1.076,4.331-1.086,4.38a1.3,1.3,0,0,0-.014.219q0,.612.408.612a.634.634,0,0,0,.292-.132,3.322,3.322,0,0,0,.6-1.4c.058-.2.107-.3.146-.307a.448.448,0,0,1,.145-.014h.059c.184,0,.277.039.277.116a1.222,1.222,0,0,1-.044.233,3.8,3.8,0,0,1-.787,1.691,1.43,1.43,0,0,1-.467.306,1.572,1.572,0,0,1-.349.029,1.316,1.316,0,0,1-1.283-.714,1.074,1.074,0,0,0-.073-.174c-.01-.01-.029-.005-.058.014l-.058.058a2.064,2.064,0,0,1-1.749.816,1.935,1.935,0,0,1-1.589-.8,2.842,2.842,0,0,1-.437-1.632,4.452,4.452,0,0,1,.991-2.682,3.812,3.812,0,0,1,2.011-1.385,2.181,2.181,0,0,1,.6-.088,1.394,1.394,0,0,1,1.224.613c.049.058.073.078.073.058q.013-.059.4-1.6t.4-1.61a.262.262,0,0,0-.087-.234,2.192,2.192,0,0,0-.583-.072h-.306a.43.43,0,0,1-.095-.117,1.418,1.418,0,0,1,.037-.277c.048-.185.111-.277.189-.277l.153-.015c.092-.009.224-.019.394-.029Zm-1.253,5.276q-.321-1.15-1.093-1.151a1.346,1.346,0,0,0-1.028.5,3.445,3.445,0,0,0-.677,1.136,11.667,11.667,0,0,0-.6,2.39c0,.03,0,.083-.007.161s-.008.136-.008.175a1.442,1.442,0,0,0,.226.845.761.761,0,0,0,.664.321,2.262,2.262,0,0,0,1.617-1.049l.117-.161q.131-.525.393-1.581T187.939,50.726Z" style="fill:#83c167"/><path d="M191.466,49.866c-.068-.067-.1-.116-.1-.146a1.179,1.179,0,0,1,.051-.24.963.963,0,0,1,.066-.2.142.142,0,0,1,.138-.08q.109-.008.736-.007h.773l.276-1.166q.306-1.18.35-1.268a.662.662,0,0,1,.671-.408.559.559,0,0,1,.328.131.382.382,0,0,1,.138.306,9.287,9.287,0,0,1-.277,1.239c-.039.165-.085.348-.138.546s-.095.348-.124.445l-.029.146a3.487,3.487,0,0,0,.728.029h.744c.067.068.1.122.1.16a.686.686,0,0,1-.19.51h-1.559l-.525,2.114q-.54,2.171-.554,2.288a1.2,1.2,0,0,0-.014.219q0,.612.393.612a.884.884,0,0,0,.175-.015,2.093,2.093,0,0,0,1.326-1.166,3.039,3.039,0,0,0,.262-.539.177.177,0,0,1,.074-.109.624.624,0,0,1,.218-.022c.194,0,.292.039.292.116a.812.812,0,0,1-.059.175,3.413,3.413,0,0,1-.517.94,3.832,3.832,0,0,1-.721.751,1.877,1.877,0,0,1-1.152.408,1.481,1.481,0,0,1-.9-.27,1.313,1.313,0,0,1-.5-.707,1.786,1.786,0,0,1-.029-.393v-.262l.51-2.041q.51-2.055.525-2.069a3.488,3.488,0,0,0-.744-.03Z" style="fill:#83c167"/><path d="M203.491,57.553a.545.545,0,0,1,.35-.5h14.525a.521.521,0,0,1,0,1H203.841A.543.543,0,0,1,203.491,57.553Z" style="fill:#fff"/><path d="M229.841,53.078a1.4,1.4,0,0,1-1.1-.45,1.6,1.6,0,0,1-.4-1.1,4.1,4.1,0,0,1,1.363-3.087,4.581,4.581,0,0,1,3.262-1.288,5.418,5.418,0,0,1,3.563,1.163,4.882,4.882,0,0,1,1.737,3.037,7.6,7.6,0,0,1,.05.825,4.731,4.731,0,0,1-.875,2.725,16.531,16.531,0,0,1-2.825,2.875q-.9.776-2.5,2.3l-1.475,1.4,1.9.025a29.874,29.874,0,0,0,4.174-.125q.1-.024.25-.525a15.75,15.75,0,0,0,.35-1.7v-.075h1v.075l-.7,4.575V63.8h-9.275v-.475a1.694,1.694,0,0,1,.05-.575q.025-.024,2.1-2.375,2.725-3.024,3.5-4a7.246,7.246,0,0,0,1.676-4.175,4.371,4.371,0,0,0-.863-2.762,2.879,2.879,0,0,0-2.413-1.113,2.739,2.739,0,0,0-2.349,1.3c-.034.067-.084.158-.151.275a.553.553,0,0,0-.075.15c0,.017.042.025.125.025a1.274,1.274,0,0,1,1.013.45,1.561,1.561,0,0,1,.387,1.05,1.489,1.489,0,0,1-.412,1.062A1.424,1.424,0,0,1,229.841,53.078Z" style="fill:#fff"/><path d="M239.97,49.866c-.068-.067-.1-.116-.1-.146a1.136,1.136,0,0,1,.052-.24.928.928,0,0,1,.065-.2.143.143,0,0,1,.139-.08q.108-.008.735-.007h.773l.277-1.166q.306-1.18.349-1.268a.663.663,0,0,1,.671-.408.557.557,0,0,1,.328.131.383.383,0,0,1,.139.306,9.287,9.287,0,0,1-.277,1.239c-.039.165-.086.348-.139.546s-.095.348-.124.445l-.029.146a3.493,3.493,0,0,0,.729.029h.743c.068.068.1.122.1.16a.686.686,0,0,1-.19.51h-1.559l-.524,2.114q-.54,2.171-.554,2.288a1.183,1.183,0,0,0-.015.219q0,.612.394.612a.884.884,0,0,0,.175-.015,2.1,2.1,0,0,0,1.326-1.166,3.11,3.11,0,0,0,.262-.539.176.176,0,0,1,.073-.109.624.624,0,0,1,.218-.022c.195,0,.292.039.292.116a.845.845,0,0,1-.058.175,3.418,3.418,0,0,1-.518.94,3.8,3.8,0,0,1-.721.751,1.877,1.877,0,0,1-1.151.408,1.486,1.486,0,0,1-.9-.27,1.318,1.318,0,0,1-.5-.707,1.851,1.851,0,0,1-.029-.393v-.262l.51-2.041q.51-2.055.525-2.069a3.488,3.488,0,0,0-.744-.03Z" style="fill:#fff933"/><path d="M198.269,85.367q.375-.024.849-.062c.317-.025.554-.046.713-.063s.246-.025.262-.025c.2,0,.3.067.3.2q0,.174-1.838,7.562t-1.863,7.512a2.166,2.166,0,0,0-.024.375c0,.7.232,1.051.7,1.051a1.087,1.087,0,0,0,.5-.225,5.677,5.677,0,0,0,1.026-2.4c.1-.334.183-.509.25-.525a.709.709,0,0,1,.25-.026h.1q.476,0,.475.2a2.146,2.146,0,0,1-.074.4,6.532,6.532,0,0,1-1.35,2.9,2.484,2.484,0,0,1-.8.526,2.677,2.677,0,0,1-.6.05,2.258,2.258,0,0,1-2.2-1.226,1.778,1.778,0,0,0-.125-.3c-.016-.017-.049-.009-.1.025l-.1.1a5.12,5.12,0,0,1-2.375,1.375,4.927,4.927,0,0,1-.625.025,3.316,3.316,0,0,1-2.724-1.375,4.868,4.868,0,0,1-.75-2.8,7.637,7.637,0,0,1,1.7-4.6,6.54,6.54,0,0,1,3.451-2.375,3.717,3.717,0,0,1,1.024-.15,2.394,2.394,0,0,1,2.1,1.05c.083.1.125.133.125.1q.024-.1.687-2.738t.688-2.762a.451.451,0,0,0-.15-.4,3.7,3.7,0,0,0-1-.125h-.526a.7.7,0,0,1-.162-.2,2.428,2.428,0,0,1,.063-.476c.083-.316.191-.475.324-.475.017,0,.1-.007.263-.025s.383-.033.675-.049Zm-2.151,9.051q-.549-1.976-1.875-1.975a2.307,2.307,0,0,0-1.762.85,5.917,5.917,0,0,0-1.163,1.949,19.93,19.93,0,0,0-1.024,4.1c0,.051-.005.143-.013.275s-.012.234-.012.3a2.465,2.465,0,0,0,.387,1.449,1.3,1.3,0,0,0,1.138.551q1.324,0,2.774-1.8l.2-.275q.225-.9.674-2.712T196.118,94.418Z" style="fill:#83c167"/><path d="M200.968,92.943c-.117-.117-.175-.2-.175-.25a2,2,0,0,1,.087-.413,1.653,1.653,0,0,1,.113-.337.247.247,0,0,1,.238-.138q.188-.012,1.262-.012h1.325l.475-2q.525-2.025.6-2.176a1.134,1.134,0,0,1,1.15-.7.962.962,0,0,1,.563.225.653.653,0,0,1,.237.525,15.879,15.879,0,0,1-.475,2.125c-.067.283-.146.6-.238.937s-.162.6-.212.762l-.05.25a5.787,5.787,0,0,0,1.25.051h1.275c.116.116.175.208.175.275a1.183,1.183,0,0,1-.325.875h-2.675l-.9,3.625q-.926,3.725-.95,3.924a2.05,2.05,0,0,0-.025.375q0,1.051.675,1.051a1.61,1.61,0,0,0,.3-.025,3.6,3.6,0,0,0,2.275-2,5.4,5.4,0,0,0,.45-.926.3.3,0,0,1,.125-.187,1.092,1.092,0,0,1,.375-.038q.5,0,.5.2a1.43,1.43,0,0,1-.1.3,5.857,5.857,0,0,1-.888,1.613,6.551,6.551,0,0,1-1.237,1.288,3.218,3.218,0,0,1-1.975.7,2.553,2.553,0,0,1-1.538-.462,2.267,2.267,0,0,1-.862-1.212,3.112,3.112,0,0,1-.05-.676v-.449l.875-3.5q.875-3.525.9-3.551a6.235,6.235,0,0,0-1.275-.049Z" style="fill:#83c167"/><rect x="150.33" y="74.976" width="96" height="1" rx="0.5" style="fill:#fff"/><rect x="40.699" y="76.111" width="32" height="1" rx="0.5" style="fill:#fff"/><path d="M143.168,117.661c.154,0,.252.106.3.321s.091.584.142,1.111a9.245,9.245,0,0,0,.228,1.383q1.086,4.3,4.3,4.3h43.351q4.094,0,5.255,5.963,1.159-5.963,4.988-5.963h43.554a7.548,7.548,0,0,0,1.408-.1,3.954,3.954,0,0,0,2.3-1.915,8.652,8.652,0,0,0,1.162-3.889c0-.032.006-.127.019-.283a3.178,3.178,0,0,1,.038-.333c.012-.067.032-.157.058-.272a.4.4,0,0,1,.139-.247.352.352,0,0,1,.218-.074c.331,0,.1,3.667-.7,5.589s-1.957,3.006-3.477,3.251a9.846,9.846,0,0,1-1.13.048h-43.4a3.972,3.972,0,0,0-3.7,2.346,14.552,14.552,0,0,0-.676,1.741,7.8,7.8,0,0,0-.285,1.42c0,.1-.007.243-.02.432a2.327,2.327,0,0,1-.066.457c-.032.115-.06.23-.086.345a.544.544,0,0,1-.133.272.29.29,0,0,1-.209.1.393.393,0,0,1-.248-.074.483.483,0,0,1-.143-.272,2.846,2.846,0,0,1-.066-.408c-.013-.139-.032-.325-.057-.555s-.051-.444-.077-.642a8.32,8.32,0,0,0-1.2-3.3,3.67,3.67,0,0,0-2.38-1.765,4.887,4.887,0,0,0-1.142-.1H148.366a6.931,6.931,0,0,1-1.221-.085,3.757,3.757,0,0,1-1.278-.66,5.3,5.3,0,0,1-1.473-1.674C142.948,122.1,142.916,117.661,143.168,117.661Z" style="fill:#f8f8f8"/><path d="M263.239,73.673a.544.544,0,0,1,.35-.5h15.925a.546.546,0,0,1,.375.5.565.565,0,0,1-.349.474l-7.951.026h-7.95A.5.5,0,0,1,263.239,73.673Zm0,4.849a.5.5,0,0,1,.4-.5h15.9a.823.823,0,0,0,.112.088,1.131,1.131,0,0,1,.125.1.412.412,0,0,1,.075.125.469.469,0,0,1,.037.187.546.546,0,0,1-.375.5H263.589A.544.544,0,0,1,263.239,78.522Z" style="fill:#fff"/><path d="M291.214,69.122a1.286,1.286,0,0,1-.949.375,1.353,1.353,0,0,1-.963-.362,1.227,1.227,0,0,1-.387-.938,2.891,2.891,0,0,1,1.5-2.675,4.681,4.681,0,0,1,2.1-.775c.033,0,.125,0,.275-.012s.266-.013.35-.013h.1q3.324,0,4.325,1.975a3.084,3.084,0,0,1,.375,1.476,3.189,3.189,0,0,1-1.375,2.625,6.618,6.618,0,0,0-2.851,3.974,7.877,7.877,0,0,0-.125,1.55,8.237,8.237,0,0,1-.024.851.253.253,0,0,1-.125.2,1.44,1.44,0,0,1-.351.025c-.266,0-.424-.041-.474-.125a10.639,10.639,0,0,1-.026-1.15,11.589,11.589,0,0,1,.213-2.3,8.661,8.661,0,0,1,1.963-3.675,2.392,2.392,0,0,0,.574-.862A4.632,4.632,0,0,0,295.464,68v-.324a2.113,2.113,0,0,0-.449-1.526,2.872,2.872,0,0,0-1.825-.5,3.745,3.745,0,0,0-2.325.7l-.063.063a.763.763,0,0,1-.088.075.448.448,0,0,0-.087.087.427.427,0,0,1-.087.088.318.318,0,0,0-.076.075.432.432,0,0,1-.049.063l-.025.024c.05.017.108.034.175.05a1.239,1.239,0,0,1,1.024,1.3A1.286,1.286,0,0,1,291.214,69.122Zm1.926,10.2a1.614,1.614,0,0,1,1.025.438,1.411,1.411,0,0,1,.4,1.062,1.339,1.339,0,0,1-.675,1.275,1.375,1.375,0,0,1-.8.225,1.413,1.413,0,0,1-.824-.225,1.338,1.338,0,0,1-.676-1.275,1.417,1.417,0,0,1,.438-1.1A1.588,1.588,0,0,1,293.14,79.322Z" style="fill:#fff"/><path d="M303.014,69.122a1.288,1.288,0,0,1-.95.375,1.349,1.349,0,0,1-.962-.362,1.224,1.224,0,0,1-.388-.938,2.891,2.891,0,0,1,1.5-2.675,4.681,4.681,0,0,1,2.1-.775c.033,0,.125,0,.275-.012s.267-.013.35-.013h.1q3.324,0,4.325,1.975a3.084,3.084,0,0,1,.375,1.476,3.189,3.189,0,0,1-1.375,2.625,6.612,6.612,0,0,0-2.85,3.974,7.8,7.8,0,0,0-.125,1.55,8.105,8.105,0,0,1-.025.851.253.253,0,0,1-.125.2,1.436,1.436,0,0,1-.35.025c-.267,0-.425-.041-.475-.125a10.839,10.839,0,0,1-.025-1.15,11.513,11.513,0,0,1,.213-2.3,8.643,8.643,0,0,1,1.962-3.675,2.41,2.41,0,0,0,.575-.862A4.671,4.671,0,0,0,307.264,68v-.324a2.113,2.113,0,0,0-.45-1.526,2.872,2.872,0,0,0-1.825-.5,3.745,3.745,0,0,0-2.325.7l-.062.063a.981.981,0,0,1-.088.075.453.453,0,0,0-.088.087.427.427,0,0,1-.087.088.3.3,0,0,0-.075.075.433.433,0,0,1-.05.063l-.025.024c.05.017.108.034.175.05a1.239,1.239,0,0,1,1.025,1.3A1.286,1.286,0,0,1,303.014,69.122Zm1.925,10.2a1.611,1.611,0,0,1,1.025.438,1.407,1.407,0,0,1,.4,1.062,1.337,1.337,0,0,1-.675,1.275,1.374,1.374,0,0,1-.8.225,1.414,1.414,0,0,1-.825-.225,1.337,1.337,0,0,1-.675-1.275,1.419,1.419,0,0,1,.437-1.1A1.59,1.59,0,0,1,304.939,79.322Z" style="fill:#fff"/><path d="M314.814,69.122a1.288,1.288,0,0,1-.95.375,1.353,1.353,0,0,1-.963-.362,1.227,1.227,0,0,1-.387-.938,2.891,2.891,0,0,1,1.5-2.675,4.681,4.681,0,0,1,2.1-.775c.033,0,.125,0,.275-.012s.266-.013.35-.013h.1q3.324,0,4.325,1.975a3.084,3.084,0,0,1,.375,1.476,3.189,3.189,0,0,1-1.375,2.625,6.612,6.612,0,0,0-2.85,3.974,7.8,7.8,0,0,0-.125,1.55,8.105,8.105,0,0,1-.025.851.253.253,0,0,1-.125.2,1.436,1.436,0,0,1-.35.025c-.267,0-.425-.041-.475-.125a10.839,10.839,0,0,1-.025-1.15,11.527,11.527,0,0,1,.212-2.3,8.661,8.661,0,0,1,1.963-3.675,2.41,2.41,0,0,0,.575-.862A4.671,4.671,0,0,0,319.064,68v-.324a2.113,2.113,0,0,0-.45-1.526,2.872,2.872,0,0,0-1.825-.5,3.745,3.745,0,0,0-2.325.7l-.063.063a.842.842,0,0,1-.087.075.427.427,0,0,0-.088.087.427.427,0,0,1-.087.088.3.3,0,0,0-.075.075.513.513,0,0,1-.05.063l-.025.024c.05.017.108.034.175.05a1.239,1.239,0,0,1,1.025,1.3A1.286,1.286,0,0,1,314.814,69.122Zm1.925,10.2a1.614,1.614,0,0,1,1.025.438,1.411,1.411,0,0,1,.4,1.062,1.337,1.337,0,0,1-.675,1.275,1.374,1.374,0,0,1-.8.225,1.414,1.414,0,0,1-.825-.225,1.337,1.337,0,0,1-.675-1.275,1.419,1.419,0,0,1,.437-1.1A1.59,1.59,0,0,1,316.739,79.322Z" style="fill:#fff"/><path d="M136.482,159.492a.888.888,0,0,0-.428-.264,9.052,9.052,0,0,0-1.112-.066h-.725V158.15h3.849q4.093.022,4.511.088a2.808,2.808,0,0,0,.286.066,6.226,6.226,0,0,1,1.76.616,3.992,3.992,0,0,1,2.4,2.882,2.07,2.07,0,0,1,.022.352,2.936,2.936,0,0,1-.936,2.156,5.555,5.555,0,0,1-2.21,1.342.379.379,0,0,1-.1.033.4.4,0,0,0-.1.033l-.044.022a.7.7,0,0,0,.242.132,3.736,3.736,0,0,1,1.958,2.332q.021.089.242,1.452t.241,1.452a3.612,3.612,0,0,0,.386,1.166,1.15,1.15,0,0,0,.605.506.984.984,0,0,0,.374.044h.11a.736.736,0,0,0,.527-.242,2.013,2.013,0,0,0,.507-1.32.47.47,0,0,1,.076-.319.566.566,0,0,1,.364-.077.747.747,0,0,1,.352.055c.058.037.088.129.088.275a2.778,2.778,0,0,1-.385,1.441,2.092,2.092,0,0,1-.935.891,2.687,2.687,0,0,1-.925.132q-3.278-.132-3.783-2.464a15.558,15.558,0,0,1-.055-1.606,8.4,8.4,0,0,0-.143-1.826,2.474,2.474,0,0,0-.649-1.023,2.575,2.575,0,0,0-1.023-.605l-.221-.044-1.451-.022h-1.452v2.882l.022,2.882a.6.6,0,0,0,.384.264,9.377,9.377,0,0,0,1.134.066h.726v1.012h-.242q-.353-.066-3.124-.066-2.794,0-3.146.066h-.242v-1.012h.725a8.636,8.636,0,0,0,1.112-.066.881.881,0,0,0,.428-.264Zm7.92,1.826a2.1,2.1,0,0,0-1.176-1.738,7.676,7.676,0,0,0-2.915-.418q-.332,0-.748.011l-.44.011c-.191.015-.308.074-.352.176a27.266,27.266,0,0,0-.066,2.992v2.9h1.276a14.969,14.969,0,0,0,2.441-.143,2.567,2.567,0,0,0,1.387-.737,1.833,1.833,0,0,0,.5-.836,5.678,5.678,0,0,0,.12-1.342Q144.424,161.495,144.4,161.318Z" style="fill:#fff"/><path d="M153.213,166.114a1.129,1.129,0,0,1-.847.352,1.1,1.1,0,0,1-.836-.352,1.183,1.183,0,0,1-.329-.836,1.758,1.758,0,0,1,.176-.7,1.964,1.964,0,0,1,1.144-.924,5.832,5.832,0,0,1,2.089-.33,4.688,4.688,0,0,1,2.519.66,3.072,3.072,0,0,1,1.4,1.716,2.251,2.251,0,0,1,.122.693q.011.385.011,2.519,0,2.156.011,2.519a1.237,1.237,0,0,0,.121.561.45.45,0,0,0,.44.308.438.438,0,0,0,.418-.308,3.4,3.4,0,0,0,.131-1.21v-.792h.881v.858a6.792,6.792,0,0,1-.067,1.034,2.067,2.067,0,0,1-.725,1.023,1.991,1.991,0,0,1-1.255.407,1.429,1.429,0,0,1-.979-.385,1.938,1.938,0,0,1-.583-.935V171.9c-.044.044-.132.143-.263.3s-.228.261-.286.319a3.794,3.794,0,0,1-2.508.9,4.26,4.26,0,0,1-2.047-.484,2.48,2.48,0,0,1-1.21-1.276,2.14,2.14,0,0,1-.175-.836,2.631,2.631,0,0,1,.857-1.892,4.1,4.1,0,0,1,1.254-.836,10.762,10.762,0,0,1,3.829-.814h.308V166.8a3.338,3.338,0,0,0-.133-1.1,2.1,2.1,0,0,0-2.133-1.562q-1.474,0-1.475.176a1.1,1.1,0,0,1,.485.968A1.157,1.157,0,0,1,153.213,166.114Zm3.6,3.212q0-1.275-.022-1.276a.247.247,0,0,0-.111.022q-3.013.2-3.849,1.782a2.017,2.017,0,0,0-.243.99,1.67,1.67,0,0,0,.528,1.254,1.8,1.8,0,0,0,1.3.506,2.264,2.264,0,0,0,1.507-.528,2.475,2.475,0,0,0,.825-1.3A12.257,12.257,0,0,0,156.811,169.326Z" style="fill:#fff"/><path d="M163.917,159.976v-.33h.879v4.048h2.971v1.012H164.8v3.168q.023,2.751.034,3.113a1.985,1.985,0,0,0,.143.693,1.105,1.105,0,0,0,1.077.858q.969,0,1.188-1.562.022-.175.022-1.012v-.77h.881v.77a6.634,6.634,0,0,1-.111,1.452,3.011,3.011,0,0,1-.824,1.43,2.138,2.138,0,0,1-1.53.55,2.509,2.509,0,0,1-2.706-2.42q-.021-.153-.022-3.256v-3.014h-1.737v-.814h.2a2.031,2.031,0,0,0,1.386-.7A4.871,4.871,0,0,0,163.917,159.976Z" style="fill:#fff"/><path d="M178.5,167.786a.442.442,0,0,1-.154.308h-6.2v.33a5.444,5.444,0,0,0,.44,2.464,2.791,2.791,0,0,0,2.728,1.628,2.053,2.053,0,0,0,1.584-.7,2.925,2.925,0,0,0,.682-1.144.775.775,0,0,1,.132-.308.574.574,0,0,1,.352-.066c.294,0,.44.073.44.22a1.044,1.044,0,0,1-.066.286,4.237,4.237,0,0,1-1.331,1.881,3.438,3.438,0,0,1-2.233.737,5.039,5.039,0,0,1-.968-.11,4.569,4.569,0,0,1-2.244-1.144,5.178,5.178,0,0,1-1.672-3.784,5.1,5.1,0,0,1,1.188-3.421,4.475,4.475,0,0,1,2.926-1.617,1.435,1.435,0,0,1,.308-.022,3.863,3.863,0,0,1,3.047,1.177A4.789,4.789,0,0,1,178.5,167.786Zm-1.8-.66q-.2-2.4-1.628-2.9a1.517,1.517,0,0,0-.462-.088,2.188,2.188,0,0,0-1.87,1.056,4.617,4.617,0,0,0-.572,1.958v.154H176.7Z" style="fill:#fff"/><path d="M185.256,168.468a5.017,5.017,0,0,1,1.276-3.443,4.918,4.918,0,0,1,3.608-1.705,4.543,4.543,0,0,1,3.321,1.408A5.066,5.066,0,0,1,195,168.446a5.817,5.817,0,0,1-.11,1.034,4.687,4.687,0,0,1-1.243,2.409,4.871,4.871,0,0,1-2.365,1.375,4.546,4.546,0,0,1-1.144.132,4.638,4.638,0,0,1-1.166-.132,4.91,4.91,0,0,1-3.718-4.8Zm5.28-4.312a1.969,1.969,0,0,0-.352-.022,3.053,3.053,0,0,0-1.254.264,2.888,2.888,0,0,0-1.474,2.4q-.045.4-.044,1.408a7.513,7.513,0,0,0,.418,2.97,2.411,2.411,0,0,0,2.31,1.342q2.684,0,2.684-3.586v-.7a11.006,11.006,0,0,0-.11-1.936A2.619,2.619,0,0,0,190.536,164.156Z" style="fill:#fff"/><path d="M201.646,173.176q-.4-.066-2.794-.066a22.629,22.629,0,0,0-2.464.066h-.177v-1.012h.353a7.726,7.726,0,0,0,1.078-.066.477.477,0,0,0,.264-.242q.021-.043.022-3.608v-3.542h-1.562v-1.012h1.562v-1.452l.022-1.474.044-.22a3.874,3.874,0,0,1,1.254-1.958,4.178,4.178,0,0,1,2.244-.9c.014,0,.084,0,.209-.011s.223-.011.3-.011a2.091,2.091,0,0,1,1.3.506,1.528,1.528,0,0,1,.529,1.21,1.123,1.123,0,1,1-2.244,0,1.447,1.447,0,0,1,.4-.88h-.088a1.346,1.346,0,0,0-.484,0,1.693,1.693,0,0,0-.957.539,2.923,2.923,0,0,0-.649,1.111,10.136,10.136,0,0,0-.154,2.09v1.452h2.442v1.012H199.71v3.52q0,3.564.022,3.608a.391.391,0,0,0,.264.22,4.605,4.605,0,0,0,1.166.11h.682v1.012Z" style="fill:#fff"/><path d="M216.419,166.147a1.193,1.193,0,0,1-.847.319,1.11,1.11,0,0,1-.836-.341,1.21,1.21,0,0,1,0-1.661q.11-.11.1-.132c-.007-.014-.077-.029-.209-.044a7.193,7.193,0,0,0-1.078-.088,2.256,2.256,0,0,0-1.76.7,4.769,4.769,0,0,0-1.034,3.454,5.113,5.113,0,0,0,.682,2.838,2.782,2.782,0,0,0,2.42,1.342,2.044,2.044,0,0,0,.968-.22A2.561,2.561,0,0,0,216.1,170.6a.375.375,0,0,1,.11-.22.822.822,0,0,1,.352-.044h.308q.132.132.132.2a2.938,2.938,0,0,1-.55,1.3,3.558,3.558,0,0,1-3.1,1.584,4.536,4.536,0,0,1-2.09-.506,4.848,4.848,0,0,1-2.618-3.74,6.457,6.457,0,0,1-.022-.7,7.207,7.207,0,0,1,.022-.726,5.086,5.086,0,0,1,1.8-3.366,4.572,4.572,0,0,1,2.926-1.056q2.838,0,3.322,1.5a1.63,1.63,0,0,1,.066.506A1.076,1.076,0,0,1,216.419,166.147Z" style="fill:#fff"/><path d="M221.776,171.856q.175.309,1.034.308h.66v1.012h-.176a46.028,46.028,0,0,0-4.928,0h-.176v-1.012h.66q.858,0,1.034-.308v-1.408c0-.278,0-.6.011-.957s.011-.726.011-1.1v-4.18q0-.912-.011-1.639t-.011-1.331V159.91a.731.731,0,0,0-.319-.561,2.584,2.584,0,0,0-.979-.187h-.4v-.506c0-.337.014-.506.044-.506l.22-.022c.146-.015.359-.029.638-.044s.55-.029.814-.044c.249-.014.52-.033.814-.055s.513-.04.66-.055.227-.022.242-.022h.066V165.1a4.026,4.026,0,0,1,3.168-1.65q2.706,0,2.97,2.486.021.155.022,3.058,0,2.817.022,2.86a.471.471,0,0,0,.264.242,7.7,7.7,0,0,0,1.077.066h.353v1.012h-.176a46.028,46.028,0,0,0-4.928,0h-.176v-1.012h.528q1.165,0,1.166-.352.021-.044.022-3.036-.022-2.97-.044-3.146a1.946,1.946,0,0,0-.495-1.023,1.49,1.49,0,0,0-1.045-.319,2.382,2.382,0,0,0-1.738.748,3.15,3.15,0,0,0-.9,1.936v.407q0,.386-.011.979t-.012,1.122v.693c0,.242,0,.459.012.649s.011.363.011.517v.517Z" style="fill:#fff"/><path d="M233.271,166.114a1.133,1.133,0,0,1-.848.352,1.1,1.1,0,0,1-.836-.352,1.183,1.183,0,0,1-.329-.836,1.758,1.758,0,0,1,.176-.7,1.964,1.964,0,0,1,1.144-.924,5.834,5.834,0,0,1,2.09-.33,4.693,4.693,0,0,1,2.519.66,3.08,3.08,0,0,1,1.4,1.716,2.281,2.281,0,0,1,.121.693q.01.385.011,2.519,0,2.156.011,2.519a1.237,1.237,0,0,0,.121.561.451.451,0,0,0,.44.308.438.438,0,0,0,.418-.308,3.378,3.378,0,0,0,.131-1.21v-.792h.881v.858a6.792,6.792,0,0,1-.067,1.034,2.061,2.061,0,0,1-.725,1.023,1.991,1.991,0,0,1-1.255.407,1.431,1.431,0,0,1-.979-.385,1.938,1.938,0,0,1-.583-.935V171.9c-.043.044-.131.143-.263.3s-.228.261-.286.319a3.794,3.794,0,0,1-2.508.9,4.26,4.26,0,0,1-2.047-.484,2.48,2.48,0,0,1-1.21-1.276,2.14,2.14,0,0,1-.175-.836,2.629,2.629,0,0,1,.858-1.892,4.075,4.075,0,0,1,1.254-.836,10.751,10.751,0,0,1,3.828-.814h.308V166.8a3.338,3.338,0,0,0-.133-1.1,2.1,2.1,0,0,0-2.133-1.562q-1.475,0-1.474.176a1.1,1.1,0,0,1,.484.968A1.16,1.16,0,0,1,233.271,166.114Zm3.6,3.212q0-1.275-.022-1.276a.247.247,0,0,0-.111.022q-3.014.2-3.849,1.782a2.016,2.016,0,0,0-.242.99,1.669,1.669,0,0,0,.527,1.254,1.8,1.8,0,0,0,1.3.506,2.264,2.264,0,0,0,1.507-.528,2.463,2.463,0,0,0,.825-1.3A12.257,12.257,0,0,0,236.868,169.326Z" style="fill:#fff"/><path d="M245.008,171.856q.175.309,1.034.308h.66v1.012h-.177a46.009,46.009,0,0,0-4.927,0h-.177v-1.012h.661q.858,0,1.034-.308v-.682c0-.205,0-.436.011-.693s.011-.542.011-.858v-.913q0-.681-.011-1.463t-.011-1.287v-.506a.725.725,0,0,0-.32-.561,2.575,2.575,0,0,0-.979-.187h-.4V164.2c0-.337.015-.506.045-.506l.22-.022c.146-.015.355-.029.627-.044l.8-.044c.249-.014.513-.033.792-.055s.491-.04.637-.055.228-.022.243-.022h.066v.88a5.915,5.915,0,0,0,.022.836l.022-.022a3.87,3.87,0,0,1,3.366-1.694,2.569,2.569,0,0,1,2.794,2.486q.021.155.022,3.058,0,2.817.022,2.86a.471.471,0,0,0,.264.242,7.7,7.7,0,0,0,1.077.066h.352v1.012h-.175a46.046,46.046,0,0,0-4.929,0h-.175v-1.012h.528q1.165,0,1.166-.352.021-.044.022-3.036-.022-2.97-.044-3.146a1.939,1.939,0,0,0-.5-1.023,1.486,1.486,0,0,0-1.044-.319,2.382,2.382,0,0,0-1.738.748,3.15,3.15,0,0,0-.9,1.936v.407q0,.386-.011.979t-.012,1.122v.693c0,.242,0,.459.012.649s.011.363.011.517v.517Z" style="fill:#fff"/><path d="M260.341,164.178a3.036,3.036,0,0,1,2.2-.968,1.189,1.189,0,0,1,.879.352,1.221,1.221,0,0,1,.353.9.754.754,0,0,1-.792.792.729.729,0,0,1-.814-.66.635.635,0,0,1,.065-.462.177.177,0,0,1,.022-.066v-.022c-.058.015-.124.029-.2.044a2.093,2.093,0,0,0-.969.44c-.117.074-.175.125-.175.154a.829.829,0,0,1,.088.11,2.954,2.954,0,0,1,.131,3.718,3.546,3.546,0,0,1-3.146,1.518,4.513,4.513,0,0,1-2.177-.616,1.737,1.737,0,0,0-.243.836,1.272,1.272,0,0,0,.573,1.144.776.776,0,0,0,.384.143c.125.008.649.018,1.574.033a16.364,16.364,0,0,1,2.376.132,3.9,3.9,0,0,1,2.112.9,2.922,2.922,0,0,1,.857,2.156,1.986,1.986,0,0,1-.044.528,2.876,2.876,0,0,1-1.671,1.738,6.65,6.65,0,0,1-3.124.682,6.864,6.864,0,0,1-3.146-.682,2.875,2.875,0,0,1-1.672-1.738,1.63,1.63,0,0,1-.044-.462,2.033,2.033,0,0,1,.681-1.54,2.532,2.532,0,0,1,.7-.506l.242-.132a2.309,2.309,0,0,1-.792-1.848,3.07,3.07,0,0,1,.637-1.87,3.008,3.008,0,0,1-.967-2.178,3.087,3.087,0,0,1,.593-1.782,3.316,3.316,0,0,1,1.3-1.1,4.127,4.127,0,0,1,1.869-.418,4.046,4.046,0,0,1,2.091.572Zm1.013,9.5a2.554,2.554,0,0,0-1.089-.418,12.772,12.772,0,0,0-1.727-.088H257.9a6.307,6.307,0,0,0-1.759.132,1.524,1.524,0,0,0-.694.616,1.678,1.678,0,0,0-.253.88,1.387,1.387,0,0,0,.066.44,1.986,1.986,0,0,0,.793.935,3.658,3.658,0,0,0,1.43.583,5.455,5.455,0,0,0,1.122.088,5.316,5.316,0,0,0,1.1-.088,4.048,4.048,0,0,0,1.441-.6,1.83,1.83,0,0,0,.78-.935,1.184,1.184,0,0,0,.045-.4A1.28,1.28,0,0,0,261.354,173.682Zm-5.126-6.93a3.512,3.512,0,0,0,.374,1.8,1.485,1.485,0,0,0,1.385.616,1.737,1.737,0,0,0,1.144-.363,1.569,1.569,0,0,0,.551-.957,6.575,6.575,0,0,0,.066-1.1,7.019,7.019,0,0,0-.066-1.122,1.551,1.551,0,0,0-1.717-1.342,1.723,1.723,0,0,0-1.1.363,1.541,1.541,0,0,0-.572.979A7.019,7.019,0,0,0,256.228,166.752Z" style="fill:#fff"/><path d="M273.233,167.786a.445.445,0,0,1-.153.308h-6.2v.33a5.43,5.43,0,0,0,.44,2.464,2.79,2.79,0,0,0,2.728,1.628,2.054,2.054,0,0,0,1.584-.7,2.949,2.949,0,0,0,.682-1.144.793.793,0,0,1,.131-.308.578.578,0,0,1,.353-.066q.44,0,.439.22a1.071,1.071,0,0,1-.065.286,4.231,4.231,0,0,1-1.332,1.881,3.436,3.436,0,0,1-2.232.737,5.03,5.03,0,0,1-.968-.11,4.565,4.565,0,0,1-2.244-1.144,5.008,5.008,0,0,1-1.409-2.178,5.365,5.365,0,0,1,.925-5.027,4.475,4.475,0,0,1,2.926-1.617,1.429,1.429,0,0,1,.308-.022,3.864,3.864,0,0,1,3.047,1.177A4.789,4.789,0,0,1,273.233,167.786Zm-1.8-.66q-.2-2.4-1.628-2.9a1.525,1.525,0,0,0-.463-.088,2.187,2.187,0,0,0-1.869,1.056,4.6,4.6,0,0,0-.572,1.958v.154h4.532Z" style="fill:#fff"/><path d="M139.057,199.576a18.806,18.806,0,0,0-2.288-.066,23.215,23.215,0,0,0-2.4.066h-.177v-1.012h.352a7.741,7.741,0,0,0,1.079-.066.477.477,0,0,0,.264-.242q.021-.043.022-3.19a30.628,30.628,0,0,0-.088-3.52c-.118-.293-.55-.44-1.3-.44h-.241V190.6c0-.337.014-.506.044-.506l.219-.022c.147-.015.353-.029.617-.044l.792-.044q.374-.023.792-.055t.638-.055c.146-.014.227-.022.242-.022h.065v8.36a.512.512,0,0,0,.265.275,3.408,3.408,0,0,0,.77.077h.5v1.012ZM136.5,184.858a1.416,1.416,0,0,1,.9.385,1.243,1.243,0,0,1,.352.935,1.178,1.178,0,0,1-.594,1.122,1.209,1.209,0,0,1-.7.2,1.25,1.25,0,0,1-.727-.2,1.177,1.177,0,0,1-.593-1.122,1.248,1.248,0,0,1,.384-.968A1.394,1.394,0,0,1,136.5,184.858Z" style="fill:#83c167"/><path d="M143.875,198.256q.175.309,1.034.308h.66v1.012h-.176a46.028,46.028,0,0,0-4.928,0h-.176v-1.012h.66q.858,0,1.034-.308v-.682c0-.205,0-.436.011-.693s.011-.542.011-.858v-.913q0-.683-.011-1.463c-.008-.52-.011-.95-.011-1.287v-.506a.728.728,0,0,0-.319-.561,2.545,2.545,0,0,0-.979-.187h-.4V190.6c0-.337.014-.506.044-.506l.22-.022c.146-.015.355-.029.627-.044l.8-.044q.373-.023.792-.055t.638-.055c.146-.014.227-.022.242-.022h.066v.88a5.915,5.915,0,0,0,.022.836l.022-.022a3.87,3.87,0,0,1,3.366-1.694,2.567,2.567,0,0,1,2.794,2.486q.021.155.022,3.058,0,2.817.022,2.86a.471.471,0,0,0,.264.242,7.715,7.715,0,0,0,1.078.066h.352v1.012h-.176a46.028,46.028,0,0,0-4.928,0h-.176v-1.012h.528q1.165,0,1.166-.352.021-.043.022-3.036-.022-2.97-.044-3.146a1.942,1.942,0,0,0-.5-1.023,1.49,1.49,0,0,0-1.045-.319,2.382,2.382,0,0,0-1.738.748,3.145,3.145,0,0,0-.9,1.936v.407q0,.386-.011.979t-.011,1.122v.693q0,.363.011.649c.007.191.011.363.011.517v.517Z" style="fill:#83c167"/><path d="M160.87,192.514a1.132,1.132,0,0,1-.847.352,1.094,1.094,0,0,1-.836-.352,1.181,1.181,0,0,1-.33-.836,1.758,1.758,0,0,1,.176-.7,1.967,1.967,0,0,1,1.144-.924,5.838,5.838,0,0,1,2.09-.33,4.693,4.693,0,0,1,2.519.66,3.08,3.08,0,0,1,1.4,1.716,2.27,2.27,0,0,1,.121.693q.011.386.011,2.519,0,2.156.011,2.519a1.237,1.237,0,0,0,.121.561.452.452,0,0,0,.44.308.44.44,0,0,0,.418-.308,3.37,3.37,0,0,0,.132-1.21v-.792h.88v.858a7.025,7.025,0,0,1-.066,1.034,2.067,2.067,0,0,1-.726,1.023,2,2,0,0,1-1.254.407,1.427,1.427,0,0,1-.979-.385,1.924,1.924,0,0,1-.583-.935V198.3q-.066.066-.264.3c-.132.154-.228.261-.286.319a3.794,3.794,0,0,1-2.508.9,4.264,4.264,0,0,1-2.046-.484,2.476,2.476,0,0,1-1.21-1.276,2.128,2.128,0,0,1-.176-.836,2.627,2.627,0,0,1,.858-1.892,4.075,4.075,0,0,1,1.254-.836,10.751,10.751,0,0,1,3.828-.814h.308V193.2a3.367,3.367,0,0,0-.132-1.1,2.1,2.1,0,0,0-2.134-1.562q-1.475,0-1.474.176a1.1,1.1,0,0,1,.484.968A1.162,1.162,0,0,1,160.87,192.514Zm3.6,3.212q0-1.275-.022-1.276a.24.24,0,0,0-.11.022q-3.015.2-3.85,1.782a2.016,2.016,0,0,0-.242.99,1.666,1.666,0,0,0,.528,1.254,1.8,1.8,0,0,0,1.3.506,2.264,2.264,0,0,0,1.507-.528,2.463,2.463,0,0,0,.825-1.3A12.257,12.257,0,0,0,164.467,195.726Z" style="fill:#83c167"/><path d="M178.151,190.468q-2.025,0-2.024,1.43a.984.984,0,0,0,.044.374,1.316,1.316,0,0,0,.682.759,6.663,6.663,0,0,0,1.5.429,5.949,5.949,0,0,1,1.716.484,3.187,3.187,0,0,1,1.782,2.178,4.1,4.1,0,0,1,.022.528,3.557,3.557,0,0,1-.308,1.518,3.314,3.314,0,0,1-3.234,1.628,3.5,3.5,0,0,1-2.288-.792l-.176.154-.2.2c-.088.088-.176.169-.264.242l-.242.22h-.176a.4.4,0,0,1-.286-.132v-1.738q0-1.429.011-1.65t.1-.264a1.378,1.378,0,0,1,.352-.022.741.741,0,0,1,.341.044.726.726,0,0,1,.121.308,5.075,5.075,0,0,0,.572,1.518A2.447,2.447,0,0,0,178.327,199q2.133,0,2.134-1.716a1.4,1.4,0,0,0-.4-1.034,1.915,1.915,0,0,0-.924-.594q-.375-.088-1.056-.242a7.511,7.511,0,0,1-1.672-.462,2.744,2.744,0,0,1-1.694-2.046,1.593,1.593,0,0,1-.022-.33q0-2.531,3.1-2.838a1.436,1.436,0,0,1,.528,0,3.4,3.4,0,0,1,1.54.33l.33.176.2-.154a5.528,5.528,0,0,1,.484-.374h.176a.4.4,0,0,1,.286.132v2.9l-.132.132h-.616a.38.38,0,0,1-.132-.264,2.058,2.058,0,0,0-.616-1.584A2.4,2.4,0,0,0,178.151,190.468Z" style="fill:#83c167"/><path d="M186.775,198.256q.175.309,1.034.308h.66v1.012h-.176a46.028,46.028,0,0,0-4.928,0h-.176v-1.012h.66q.858,0,1.034-.308v-.682c0-.205,0-.436.011-.693s.011-.542.011-.858v-.913q0-.683-.011-1.463c-.008-.52-.011-.95-.011-1.287v-.506a.728.728,0,0,0-.319-.561,2.545,2.545,0,0,0-.979-.187h-.4V190.6c0-.337.014-.506.044-.506l.22-.022c.146-.015.355-.029.627-.044l.8-.044q.374-.023.792-.055t.638-.055c.146-.014.227-.022.242-.022h.066v.88a5.915,5.915,0,0,0,.022.836l.022-.022a3.87,3.87,0,0,1,3.366-1.694,2.467,2.467,0,0,1,2.618,1.672l.044.11q.528-.66.594-.726a3.7,3.7,0,0,1,2.618-1.056q2.749,0,3.014,2.486.021.155.022,3.058,0,2.817.022,2.86a.471.471,0,0,0,.264.242,7.715,7.715,0,0,0,1.078.066h.352v1.012h-.176a46.028,46.028,0,0,0-4.928,0h-.176v-1.012h.528q1.165,0,1.166-.352.021-.043.022-3.036-.022-2.97-.044-3.146a1.942,1.942,0,0,0-.5-1.023,1.49,1.49,0,0,0-1.045-.319,2.382,2.382,0,0,0-1.738.748,3.145,3.145,0,0,0-.9,1.936c0,.014,0,.151-.011.407s-.011.583-.011.979v2.464c0,.191,0,.363.011.517s.011.283.011.385v.132q.175.309,1.034.308h.66v1.012h-.176a46.028,46.028,0,0,0-4.928,0h-.176v-1.012h.528q1.165,0,1.166-.352.021-.043.022-3.036-.022-2.97-.044-3.146a1.942,1.942,0,0,0-.5-1.023,1.49,1.49,0,0,0-1.045-.319,2.382,2.382,0,0,0-1.738.748,3.145,3.145,0,0,0-.9,1.936v.407q0,.386-.011.979c-.008.4-.011.77-.011,1.122v.693c0,.242,0,.458.011.649s.011.363.011.517v.517Z" style="fill:#83c167"/><path d="M204.363,192.514a1.129,1.129,0,0,1-.847.352,1.1,1.1,0,0,1-.836-.352,1.184,1.184,0,0,1-.329-.836,1.771,1.771,0,0,1,.175-.7,1.97,1.97,0,0,1,1.144-.924,5.842,5.842,0,0,1,2.09-.33,4.688,4.688,0,0,1,2.519.66,3.072,3.072,0,0,1,1.4,1.716,2.211,2.211,0,0,1,.121.693q.012.386.012,2.519,0,2.156.01,2.519a1.249,1.249,0,0,0,.122.561.451.451,0,0,0,.439.308.438.438,0,0,0,.418-.308,3.37,3.37,0,0,0,.132-1.21v-.792h.881v.858a6.954,6.954,0,0,1-.067,1.034,2.071,2.071,0,0,1-.725,1.023,2,2,0,0,1-1.255.407,1.429,1.429,0,0,1-.979-.385,1.938,1.938,0,0,1-.583-.935V198.3c-.044.044-.132.143-.263.3s-.228.261-.287.319a3.789,3.789,0,0,1-2.507.9,4.268,4.268,0,0,1-2.047-.484,2.484,2.484,0,0,1-1.21-1.276,2.146,2.146,0,0,1-.176-.836,2.631,2.631,0,0,1,.858-1.892,4.1,4.1,0,0,1,1.254-.836,10.761,10.761,0,0,1,3.828-.814h.309V193.2a3.334,3.334,0,0,0-.133-1.1,2.1,2.1,0,0,0-2.134-1.562q-1.474,0-1.474.176a1.1,1.1,0,0,1,.485.968A1.163,1.163,0,0,1,204.363,192.514Zm3.6,3.212q0-1.275-.022-1.276a.244.244,0,0,0-.111.022q-3.014.2-3.849,1.782a2.017,2.017,0,0,0-.243.99,1.67,1.67,0,0,0,.528,1.254,1.8,1.8,0,0,0,1.3.506,2.261,2.261,0,0,0,1.506-.528,2.471,2.471,0,0,0,.826-1.3A12.513,12.513,0,0,0,207.961,195.726Z" style="fill:#83c167"/><path d="M212.888,198.564h.308c.573,0,.917-.1,1.035-.308v-.682q0-.308.01-.726t.012-.957v-6.919q0-.726-.012-1.331c-.007-.4-.01-.722-.01-.957v-.374a.725.725,0,0,0-.32-.561,2.575,2.575,0,0,0-.979-.187h-.4v-.506c0-.338.015-.506.045-.506l.219-.022c.147-.015.36-.029.639-.044l.814-.044q.374-.022.813-.055c.293-.022.514-.041.661-.055s.227-.022.241-.022h.066v6.93q0,6.974.022,7.018a.477.477,0,0,0,.264.242,7.731,7.731,0,0,0,1.079.066h.352v1.012h-.177a23.568,23.568,0,0,0-2.42-.066,21.9,21.9,0,0,0-2.442.066h-.176v-1.012Z" style="fill:#83c167"/><path d="M219,198.564h.308q.858,0,1.034-.308v-.682q0-.308.011-.726t.011-.957v-6.919q0-.726-.011-1.331c-.007-.4-.011-.722-.011-.957v-.374a.728.728,0,0,0-.319-.561,2.584,2.584,0,0,0-.979-.187h-.4v-.506c0-.338.015-.506.044-.506l.22-.022c.147-.015.359-.029.638-.044l.814-.044c.249-.015.521-.033.814-.055s.513-.041.66-.055.227-.022.242-.022h.066v6.93q0,6.974.022,7.018a.474.474,0,0,0,.264.242,7.726,7.726,0,0,0,1.078.066h.352v1.012h-.176a23.582,23.582,0,0,0-2.42-.066,21.9,21.9,0,0,0-2.442.066h-.176v-1.012Z" style="fill:#83c167"/><path d="M232.8,186.376v-.33h.88v4.048h2.971v1.012h-2.971v3.168q.023,2.751.033,3.113a2.009,2.009,0,0,0,.144.693,1.105,1.105,0,0,0,1.077.858q.969,0,1.188-1.562c.015-.118.022-.454.022-1.012v-.77h.881v.77a6.7,6.7,0,0,1-.111,1.452,3,3,0,0,1-.825,1.43,2.138,2.138,0,0,1-1.529.55,2.509,2.509,0,0,1-2.706-2.42q-.023-.153-.022-3.256v-3.014h-1.738v-.814h.2a2.027,2.027,0,0,0,1.385-.7A4.86,4.86,0,0,0,232.8,186.376Z" style="fill:#83c167"/><path d="M243.688,199.576a18.793,18.793,0,0,0-2.288-.066,23.215,23.215,0,0,0-2.4.066h-.176v-1.012h.352a7.726,7.726,0,0,0,1.078-.066.477.477,0,0,0,.264-.242q.021-.043.022-3.19a30.628,30.628,0,0,0-.088-3.52q-.177-.44-1.3-.44h-.242V190.6c0-.337.014-.506.044-.506l.22-.022c.146-.015.352-.029.616-.044l.792-.044q.373-.023.792-.055t.638-.055c.146-.014.227-.022.242-.022h.066v8.36a.507.507,0,0,0,.264.275,3.417,3.417,0,0,0,.77.077h.506v1.012Zm-2.552-14.718a1.413,1.413,0,0,1,.9.385,1.239,1.239,0,0,1,.352.935,1.178,1.178,0,0,1-.594,1.122,1.209,1.209,0,0,1-.7.2,1.244,1.244,0,0,1-.726-.2,1.178,1.178,0,0,1-.594-1.122,1.245,1.245,0,0,1,.385-.968A1.394,1.394,0,0,1,241.136,184.858Z" style="fill:#83c167"/><path d="M248.506,198.256q.177.309,1.034.308h.66v1.012h-.176a46.028,46.028,0,0,0-4.928,0h-.176v-1.012h.66q.858,0,1.034-.308v-.682q0-.308.011-.693c.007-.257.011-.542.011-.858v-.913q0-.683-.011-1.463c-.007-.52-.011-.95-.011-1.287v-.506a.728.728,0,0,0-.319-.561,2.54,2.54,0,0,0-.979-.187h-.4V190.6c0-.337.015-.506.044-.506l.22-.022c.147-.015.356-.029.627-.044l.8-.044c.249-.015.514-.033.792-.055s.492-.04.638-.055.228-.022.242-.022h.066v.88a5.915,5.915,0,0,0,.022.836l.022-.022a3.87,3.87,0,0,1,3.366-1.694,2.466,2.466,0,0,1,2.618,1.672l.044.11q.528-.66.594-.726a3.7,3.7,0,0,1,2.618-1.056q2.749,0,3.014,2.486.023.155.022,3.058,0,2.817.022,2.86a.474.474,0,0,0,.264.242,7.726,7.726,0,0,0,1.078.066h.352v1.012h-.176a46.028,46.028,0,0,0-4.928,0h-.176v-1.012h.528q1.167,0,1.166-.352.021-.043.022-3.036-.021-2.97-.044-3.146a1.942,1.942,0,0,0-.495-1.023,1.487,1.487,0,0,0-1.045-.319,2.383,2.383,0,0,0-1.738.748,3.15,3.15,0,0,0-.9,1.936c0,.014,0,.151-.011.407s-.011.583-.011.979v2.464c0,.191,0,.363.011.517s.011.283.011.385v.132q.176.309,1.034.308h.66v1.012h-.176a46.028,46.028,0,0,0-4.928,0h-.176v-1.012h.528q1.165,0,1.166-.352.023-.043.022-3.036-.022-2.97-.044-3.146a1.928,1.928,0,0,0-.5-1.023,1.49,1.49,0,0,0-1.045-.319,2.383,2.383,0,0,0-1.738.748,3.15,3.15,0,0,0-.9,1.936v.407c0,.257,0,.583-.011.979s-.011.77-.011,1.122v.693q0,.363.011.649c.008.191.011.363.011.517v.517Z" style="fill:#83c167"/><path d="M271.826,194.186a.446.446,0,0,1-.154.308h-6.2v.33a5.43,5.43,0,0,0,.44,2.464,2.79,2.79,0,0,0,2.728,1.628,2.053,2.053,0,0,0,1.584-.7,2.949,2.949,0,0,0,.682-1.144.768.768,0,0,1,.132-.308.574.574,0,0,1,.352-.066q.439,0,.44.22a1.044,1.044,0,0,1-.066.286,4.237,4.237,0,0,1-1.331,1.881,3.444,3.444,0,0,1-2.233.737,5.03,5.03,0,0,1-.968-.11,4.569,4.569,0,0,1-2.244-1.144,5,5,0,0,1-1.408-2.178,5.358,5.358,0,0,1,.924-5.027,4.47,4.47,0,0,1,2.926-1.617,1.429,1.429,0,0,1,.308-.022,3.861,3.861,0,0,1,3.047,1.177A4.789,4.789,0,0,1,271.826,194.186Zm-1.8-.66q-.2-2.4-1.628-2.9a1.524,1.524,0,0,0-.462-.088,2.188,2.188,0,0,0-1.87,1.056,4.617,4.617,0,0,0-.572,1.958v.154h4.532Z" style="fill:#83c167"/><path d="M48.012,47.738q.375-.024.85-.063t.713-.062c.158-.016.245-.025.262-.025.2,0,.3.067.3.2q0,.176-1.838,7.563t-1.862,7.512a2.05,2.05,0,0,0-.025.375q0,1.05.7,1.05a1.075,1.075,0,0,0,.5-.225,5.673,5.673,0,0,0,1.025-2.4q.15-.5.25-.525a.745.745,0,0,1,.25-.025h.1c.316,0,.475.067.475.2a2.1,2.1,0,0,1-.075.4,6.521,6.521,0,0,1-1.35,2.9,2.472,2.472,0,0,1-.8.525,2.628,2.628,0,0,1-.6.05,2.256,2.256,0,0,1-2.2-1.225,1.9,1.9,0,0,0-.125-.3c-.017-.016-.05-.008-.1.025l-.1.1a5.12,5.12,0,0,1-2.375,1.375,4.95,4.95,0,0,1-.625.025,3.318,3.318,0,0,1-2.725-1.375,4.863,4.863,0,0,1-.75-2.8,7.643,7.643,0,0,1,1.7-4.6,6.544,6.544,0,0,1,3.45-2.375,3.724,3.724,0,0,1,1.025-.15,2.394,2.394,0,0,1,2.1,1.05c.083.1.125.134.125.1q.024-.1.688-2.738t.687-2.762a.45.45,0,0,0-.15-.4,3.776,3.776,0,0,0-1-.125h-.525a.67.67,0,0,1-.162-.2,2.472,2.472,0,0,1,.062-.475c.083-.316.192-.475.325-.475.017,0,.1-.008.263-.025s.383-.033.674-.05Zm-2.15,9.05q-.551-1.974-1.875-1.975a2.309,2.309,0,0,0-1.762.85,5.922,5.922,0,0,0-1.163,1.95,20,20,0,0,0-1.025,4.1c0,.05,0,.142-.013.275s-.012.234-.012.3a2.468,2.468,0,0,0,.387,1.45,1.3,1.3,0,0,0,1.138.55q1.325,0,2.775-1.8l.2-.275q.225-.9.675-2.712T45.862,56.788Z" style="fill:#fff"/><path d="M56.736,64.938q-.349,0-1.212-.025t-1.538-.025q-1.8,0-2.224.025a2.048,2.048,0,0,1-.676-.025.211.211,0,0,1-.149-.225,2.452,2.452,0,0,1,.087-.363,3.306,3.306,0,0,1,.113-.362q.05-.15.55-.15,1.8-.1,2.225-1,.1-.15,1.737-6.712t1.638-6.863c0-.066-.025-.1-.076-.1h-.049a6.991,6.991,0,0,0-1.3-.1,4.062,4.062,0,0,1-.75-.037.26.26,0,0,1-.174-.163.916.916,0,0,1,.024-.35,1.543,1.543,0,0,1,.226-.55q.073-.049,2.549-.05,1.976,0,2.288.013c.208.008.337.046.388.112q.024.1.924,7.038t.9,6.987a3.542,3.542,0,0,0,.3-.437q.3-.463.812-1.276t1.175-1.849q.662-1.038,1.388-2.2l1.449-2.326q.726-1.161,1.388-2.212l1.175-1.862q.513-.813.812-1.313l.3-.475q.024-.024.087-.075a.871.871,0,0,0,.087-.075l.15-.05h2.4q2.4,0,2.474.05a.237.237,0,0,1,.1.2,2.409,2.409,0,0,1-.074.388,2.73,2.73,0,0,0-.075.362q-.1.15-.925.15a4.23,4.23,0,0,0-1.551.175.442.442,0,0,0-.174.175q-.077.126-1.813,7.075t-1.738,7.025c0,.117.026.184.076.2a6.979,6.979,0,0,0,1.375.125h.774a.879.879,0,0,1,.15.275,1.66,1.66,0,0,1-.174.75.547.547,0,0,1-.4.125q-.426,0-1.475-.025t-1.851-.025q-.774,0-1.787.013t-1.387.012c-.217,0-.35-.041-.4-.125a.919.919,0,0,1,.025-.475c.066-.266.133-.421.2-.462a1.477,1.477,0,0,1,.576-.063q.675,0,1.5-.075a.666.666,0,0,0,.475-.3q.049-.1.949-3.662t1.776-7.063q.874-3.5.875-3.525-2.2,3.475-4.85,7.725l-4.926,7.825a.809.809,0,0,1-.6.225c-.25,0-.4-.058-.45-.175q-.075-.124-.963-7.15t-1.037-8.275q-3.375,13.376-3.375,13.625.15.825,1.8.825h.25a.5.5,0,0,1,.176.225,1.184,1.184,0,0,1-.076.45c-.066.267-.133.417-.2.45A1.178,1.178,0,0,1,56.736,64.938Z" style="fill:#fff"/><path d="M86.576,88.151q0,.225-.45.225H85.8l-.7-.6q-4.5-4.1-4.5-11.9a20.139,20.139,0,0,1,.725-5.575A13.481,13.481,0,0,1,85.1,63.976c.116-.1.25-.212.4-.337s.25-.213.3-.263h.325a.593.593,0,0,1,.375.075.216.216,0,0,1,.075.15q0,.1-.275.375-3.876,4.1-3.875,11.9t3.875,11.9Q86.575,88.051,86.576,88.151Z" style="fill:#fff"/><path d="M89.826,72.5c-.117-.116-.175-.2-.175-.25a2.006,2.006,0,0,1,.087-.412,1.633,1.633,0,0,1,.113-.338.246.246,0,0,1,.237-.138c.125-.007.546-.012,1.263-.012h1.325l.475-2q.525-2.025.6-2.175a1.135,1.135,0,0,1,1.15-.7.969.969,0,0,1,.562.225.653.653,0,0,1,.238.525,15.808,15.808,0,0,1-.475,2.125c-.067.284-.146.6-.238.938s-.162.6-.212.762l-.05.25a5.843,5.843,0,0,0,1.25.05h1.275c.116.117.175.209.175.275a1.183,1.183,0,0,1-.325.875H94.426l-.9,3.625q-.925,3.726-.95,3.925a2.05,2.05,0,0,0-.025.375q0,1.05.675,1.05a1.536,1.536,0,0,0,.3-.025,3.6,3.6,0,0,0,2.275-2,5.384,5.384,0,0,0,.45-.925.3.3,0,0,1,.125-.187,1.092,1.092,0,0,1,.375-.038q.5,0,.5.2a1.41,1.41,0,0,1-.1.3,5.9,5.9,0,0,1-.888,1.613A6.572,6.572,0,0,1,95.026,81.7a3.213,3.213,0,0,1-1.975.7,2.553,2.553,0,0,1-1.538-.462,2.264,2.264,0,0,1-.862-1.213,3.1,3.1,0,0,1-.05-.675V79.6l.875-3.5q.874-3.525.9-3.55A6.174,6.174,0,0,0,91.1,72.5Z" style="fill:#fff933"/><path d="M99.7,63.4l.1-.025h.55l.7.6q4.5,4.1,4.5,11.9a19.736,19.736,0,0,1-.725,5.55,13.489,13.489,0,0,1-3.775,6.35q-.176.15-.4.337c-.15.125-.25.213-.3.263h-.3a.927.927,0,0,1-.388-.05c-.058-.033-.087-.117-.087-.25.016-.017.108-.125.275-.325q3.874-4.025,3.875-11.875T99.851,64c-.167-.2-.259-.308-.275-.325A.293.293,0,0,1,99.7,63.4Z" style="fill:#fff"/><path d="M117.975,73.451a.546.546,0,0,1,.35-.5H134.25a.548.548,0,0,1,.375.5.567.567,0,0,1-.35.475l-7.95.025h-7.95A.5.5,0,0,1,117.975,73.451Zm0,4.85a.5.5,0,0,1,.4-.5h15.9a1.053,1.053,0,0,0,.113.088,1.15,1.15,0,0,1,.125.1.425.425,0,0,1,.075.125.478.478,0,0,1,.037.188.546.546,0,0,1-.375.5H118.325A.544.544,0,0,1,117.975,78.3Z" style="fill:#fff"/></svg>