<svg xmlns="http://www.w3.org/2000/svg" width="640" height="180" viewBox="0 0 640 180"><defs><style>.a{fill:#83c167;}.b{fill:#fff;}.c{fill:#fff933;}</style></defs><rect width="640" height="180"/><path class="a" d="M176.961,103.942q.375-.024.85-.062c.316-.026.554-.046.713-.063s.245-.025.262-.025c.2,0,.3.067.3.2q0,.175-1.838,7.562t-1.862,7.513a2.05,2.05,0,0,0-.025.375q0,1.05.7,1.05a1.086,1.086,0,0,0,.5-.225,5.673,5.673,0,0,0,1.025-2.4q.15-.5.25-.524a.709.709,0,0,1,.25-.026h.1c.316,0,.475.067.475.2a2.084,2.084,0,0,1-.075.4,6.521,6.521,0,0,1-1.35,2.9,2.49,2.49,0,0,1-.8.526,2.706,2.706,0,0,1-.6.049,2.256,2.256,0,0,1-2.2-1.225,1.97,1.97,0,0,0-.125-.3c-.017-.017-.05-.008-.1.025l-.1.1a5.12,5.12,0,0,1-2.375,1.375,4.757,4.757,0,0,1-.625.025,3.317,3.317,0,0,1-2.725-1.375,4.864,4.864,0,0,1-.75-2.8,7.637,7.637,0,0,1,1.7-4.6,6.538,6.538,0,0,1,3.45-2.375,3.716,3.716,0,0,1,1.025-.149,2.4,2.4,0,0,1,2.1,1.049c.083.1.125.134.125.1q.024-.1.687-2.737t.688-2.763a.447.447,0,0,0-.15-.4,3.7,3.7,0,0,0-1-.125h-.525a.663.663,0,0,1-.162-.2,2.472,2.472,0,0,1,.062-.475q.125-.476.325-.475c.016,0,.1-.008.262-.025s.384-.033.675-.05Zm-2.15,9.05q-.551-1.974-1.875-1.975a2.313,2.313,0,0,0-1.763.85,5.919,5.919,0,0,0-1.162,1.95,19.932,19.932,0,0,0-1.025,4.1c0,.051,0,.142-.013.275s-.012.234-.012.3a2.466,2.466,0,0,0,.387,1.45,1.3,1.3,0,0,0,1.138.55q1.325,0,2.775-1.8l.2-.275q.225-.9.675-2.712T174.811,112.992Z"/><path class="a" d="M179.66,111.517c-.116-.116-.175-.2-.175-.25a1.981,1.981,0,0,1,.088-.413,1.72,1.72,0,0,1,.112-.337.245.245,0,0,1,.238-.137q.188-.012,1.262-.013h1.325l.475-2q.526-2.025.6-2.175a1.132,1.132,0,0,1,1.149-.7.967.967,0,0,1,.563.226.651.651,0,0,1,.237.524,15.632,15.632,0,0,1-.475,2.125c-.066.284-.146.6-.237.937s-.163.6-.213.763l-.05.25a5.939,5.939,0,0,0,1.25.05h1.276c.116.117.174.209.174.275a1.18,1.18,0,0,1-.325.875H184.26l-.9,3.625q-.924,3.726-.95,3.925a2.145,2.145,0,0,0-.025.375q0,1.05.675,1.05a1.611,1.611,0,0,0,.3-.024,3.6,3.6,0,0,0,2.275-2,5.359,5.359,0,0,0,.451-.926.306.306,0,0,1,.125-.188,1.121,1.121,0,0,1,.375-.037q.5,0,.5.2a1.379,1.379,0,0,1-.1.3,5.862,5.862,0,0,1-.887,1.612,6.59,6.59,0,0,1-1.238,1.289,3.22,3.22,0,0,1-1.975.7,2.555,2.555,0,0,1-1.537-.462,2.269,2.269,0,0,1-.863-1.213,3.161,3.161,0,0,1-.05-.675v-.45l.875-3.5q.876-3.525.9-3.55a6.189,6.189,0,0,0-1.276-.05Z"/><rect class="b" x="161.023" y="93.55" width="32" height="1" rx="0.5"/><path class="b" d="M168.336,65.178q.375-.025.85-.063t.713-.062c.158-.017.245-.026.262-.026.2,0,.3.067.3.2q0,.175-1.838,7.563T166.761,80.3a2.036,2.036,0,0,0-.025.375q0,1.05.7,1.049a1.083,1.083,0,0,0,.5-.224,5.679,5.679,0,0,0,1.025-2.4q.15-.5.25-.524a.718.718,0,0,1,.25-.025h.1c.316,0,.475.066.475.2a2.092,2.092,0,0,1-.075.4,6.526,6.526,0,0,1-1.35,2.9,2.5,2.5,0,0,1-.8.525,2.693,2.693,0,0,1-.6.05,2.256,2.256,0,0,1-2.2-1.226,2.041,2.041,0,0,0-.125-.3c-.017-.016-.05-.008-.1.026l-.1.1a5.12,5.12,0,0,1-2.375,1.375,4.7,4.7,0,0,1-.625.026,3.317,3.317,0,0,1-2.725-1.375,4.868,4.868,0,0,1-.75-2.8,7.637,7.637,0,0,1,1.7-4.6,6.549,6.549,0,0,1,3.45-2.375,3.754,3.754,0,0,1,1.025-.149,2.4,2.4,0,0,1,2.1,1.05c.083.1.125.133.125.1q.024-.1.687-2.737t.688-2.763a.447.447,0,0,0-.15-.4,3.7,3.7,0,0,0-1-.125h-.525a.677.677,0,0,1-.162-.2,2.47,2.47,0,0,1,.062-.476q.125-.474.325-.474c.016,0,.1-.008.262-.026s.384-.033.675-.05Zm-2.15,9.049q-.551-1.974-1.875-1.974a2.312,2.312,0,0,0-1.763.849,5.924,5.924,0,0,0-1.162,1.951,19.907,19.907,0,0,0-1.025,4.1c0,.051,0,.143-.013.276s-.012.233-.012.3a2.471,2.471,0,0,0,.387,1.451,1.3,1.3,0,0,0,1.138.549q1.325,0,2.775-1.8l.2-.276q.225-.9.675-2.712T166.186,74.227Z"/><path class="b" d="M177.06,82.378q-.35,0-1.212-.026t-1.538-.024q-1.8,0-2.224.024a2.1,2.1,0,0,1-.676-.024.213.213,0,0,1-.15-.226,2.533,2.533,0,0,1,.088-.362,3.007,3.007,0,0,1,.113-.362q.049-.151.549-.151,1.8-.1,2.225-1,.1-.149,1.738-6.712t1.637-6.863c0-.066-.024-.1-.075-.1h-.05a6.894,6.894,0,0,0-1.3-.1,4.021,4.021,0,0,1-.75-.038.264.264,0,0,1-.175-.162.949.949,0,0,1,.025-.351,1.551,1.551,0,0,1,.225-.55q.075-.049,2.55-.049,1.976,0,2.288.012c.208.009.337.046.387.113q.025.1.925,7.037t.9,6.988a3.584,3.584,0,0,0,.3-.438q.3-.462.813-1.275t1.175-1.85q.661-1.037,1.387-2.2l1.45-2.325q.726-1.162,1.388-2.213l1.175-1.862q.512-.812.812-1.313l.3-.474a1.064,1.064,0,0,1,.088-.075c.041-.034.071-.059.087-.076l.15-.049h2.4q2.4,0,2.474.049a.238.238,0,0,1,.1.2,2.556,2.556,0,0,1-.074.387,2.789,2.789,0,0,0-.076.363c-.067.1-.375.15-.924.15a4.182,4.182,0,0,0-1.551.175.431.431,0,0,0-.175.175q-.075.124-1.812,7.075T190.31,80.9c0,.117.026.184.075.2a7,7,0,0,0,1.375.125h.775a.9.9,0,0,1,.15.276,1.654,1.654,0,0,1-.175.75.548.548,0,0,1-.4.125q-.425,0-1.475-.026t-1.85-.024q-.774,0-1.787.012t-1.388.012c-.216,0-.35-.041-.4-.125a.922.922,0,0,1,.024-.474q.1-.4.2-.463a1.492,1.492,0,0,1,.575-.063c.451,0,.951-.024,1.5-.075a.659.659,0,0,0,.475-.3q.051-.1.95-3.662t1.776-7.062q.875-3.5.875-3.526-2.2,3.477-4.851,7.726l-4.925,7.824a.805.805,0,0,1-.6.226c-.25,0-.4-.059-.451-.175q-.073-.126-.962-7.15t-1.038-8.276q-3.375,13.376-3.375,13.625.15.826,1.8.825h.25a.49.49,0,0,1,.175.226,1.15,1.15,0,0,1-.075.449c-.067.268-.133.417-.2.45A1.169,1.169,0,0,1,177.06,82.378Z"/><path class="b" d="M206.9,105.59q0,.225-.45.225h-.325l-.7-.6q-4.5-4.1-4.5-11.9a20.139,20.139,0,0,1,.725-5.575,13.481,13.481,0,0,1,3.775-6.325c.116-.1.25-.212.4-.337s.25-.213.3-.263h.325a.593.593,0,0,1,.375.075.216.216,0,0,1,.075.15q0,.1-.275.375-3.876,4.1-3.875,11.9t3.875,11.9Q206.9,105.489,206.9,105.59Z"/><path class="c" d="M210.149,89.94c-.116-.116-.174-.2-.174-.25a1.954,1.954,0,0,1,.087-.413,1.72,1.72,0,0,1,.112-.337.246.246,0,0,1,.238-.137q.188-.012,1.262-.013H213l.475-2q.525-2.025.6-2.175a1.133,1.133,0,0,1,1.15-.7.965.965,0,0,1,.562.225.654.654,0,0,1,.237.525,15.632,15.632,0,0,1-.475,2.125c-.066.284-.146.6-.237.937s-.163.6-.212.763l-.051.25a5.939,5.939,0,0,0,1.25.05h1.276c.116.117.175.209.175.275a1.183,1.183,0,0,1-.326.875H214.75l-.9,3.625q-.925,3.726-.951,3.925a2.166,2.166,0,0,0-.024.375q0,1.05.674,1.05a1.54,1.54,0,0,0,.3-.025,3.6,3.6,0,0,0,2.275-2,5.384,5.384,0,0,0,.45-.925.306.306,0,0,1,.125-.188,1.13,1.13,0,0,1,.375-.037c.333,0,.5.066.5.2a1.429,1.429,0,0,1-.1.3,5.893,5.893,0,0,1-.888,1.612,6.58,6.58,0,0,1-1.237,1.288,3.219,3.219,0,0,1-1.975.7,2.555,2.555,0,0,1-1.538-.462,2.267,2.267,0,0,1-.862-1.213,3.085,3.085,0,0,1-.051-.675v-.45l.875-3.5q.876-3.525.9-3.55a6.189,6.189,0,0,0-1.276-.05Z"/><path class="b" d="M220.024,80.84l.1-.025h.549l.7.6q4.5,4.1,4.5,11.9a19.7,19.7,0,0,1-.726,5.55,13.479,13.479,0,0,1-3.774,6.35q-.175.15-.4.338c-.151.125-.25.212-.3.262h-.3a.924.924,0,0,1-.388-.05c-.059-.034-.088-.117-.088-.25.017-.017.109-.125.275-.325q3.876-4.024,3.875-11.875T220.174,81.44c-.166-.2-.258-.308-.275-.325A.3.3,0,0,1,220.024,80.84Z"/><path class="b" d="M238.3,90.89a.546.546,0,0,1,.35-.5h15.925a.548.548,0,0,1,.375.5.567.567,0,0,1-.35.475l-7.95.025H238.7A.5.5,0,0,1,238.3,90.89Zm0,4.85a.5.5,0,0,1,.4-.5h15.9a1.006,1.006,0,0,0,.112.088.819.819,0,0,1,.125.1.418.418,0,0,1,.076.125.469.469,0,0,1,.037.187.546.546,0,0,1-.375.5H238.649A.544.544,0,0,1,238.3,95.74Z"/><path class="b" d="M272.538,89.841a1.4,1.4,0,0,1-1.1-.451,1.594,1.594,0,0,1-.4-1.1A4.1,4.1,0,0,1,272.4,85.2a4.581,4.581,0,0,1,3.263-1.288,5.42,5.42,0,0,1,3.562,1.163,4.871,4.871,0,0,1,1.737,3.037,7.372,7.372,0,0,1,.051.825,4.731,4.731,0,0,1-.875,2.725,16.607,16.607,0,0,1-2.825,2.875q-.9.775-2.5,2.3l-1.476,1.4,1.9.025a30.085,30.085,0,0,0,4.175-.125c.066-.016.15-.191.25-.525a16.025,16.025,0,0,0,.35-1.7v-.074h1v.074l-.7,4.575v.075h-9.275v-.474a1.711,1.711,0,0,1,.049-.576q.025-.024,2.1-2.375,2.724-3.024,3.5-4a7.251,7.251,0,0,0,1.675-4.174A4.371,4.371,0,0,0,277.5,86.2a2.88,2.88,0,0,0-2.413-1.112,2.741,2.741,0,0,0-2.349,1.3c-.034.067-.084.159-.151.275a.584.584,0,0,0-.074.15c0,.017.041.026.125.026a1.271,1.271,0,0,1,1.012.449,1.564,1.564,0,0,1,.388,1.051,1.493,1.493,0,0,1-.413,1.062A1.427,1.427,0,0,1,272.538,89.841Z"/><path class="c" d="M282.667,86.629c-.068-.069-.1-.117-.1-.146a1.171,1.171,0,0,1,.051-.241.882.882,0,0,1,.065-.2.142.142,0,0,1,.139-.08q.109-.007.736-.008h.772l.277-1.166q.306-1.181.35-1.268a.662.662,0,0,1,.671-.408.567.567,0,0,1,.327.131.384.384,0,0,1,.139.306,9.252,9.252,0,0,1-.277,1.239c-.039.166-.085.347-.139.547s-.094.347-.124.444l-.028.146a3.391,3.391,0,0,0,.728.029H287c.068.068.1.122.1.161a.689.689,0,0,1-.189.51h-1.56l-.524,2.113q-.54,2.172-.554,2.288a1.183,1.183,0,0,0-.015.219q0,.612.394.612a.884.884,0,0,0,.175-.015,2.09,2.09,0,0,0,1.326-1.166,3.039,3.039,0,0,0,.262-.539.183.183,0,0,1,.073-.109.637.637,0,0,1,.219-.021c.194,0,.291.038.291.116a.8.8,0,0,1-.058.175,3.427,3.427,0,0,1-.517.94,3.854,3.854,0,0,1-.722.75,1.875,1.875,0,0,1-1.151.408,1.492,1.492,0,0,1-.9-.269,1.315,1.315,0,0,1-.5-.707,1.786,1.786,0,0,1-.03-.394v-.262l.51-2.041q.51-2.055.525-2.069a3.539,3.539,0,0,0-.743-.029Z"/><path class="b" d="M381.489,65.192a1.4,1.4,0,0,1-1.1-.45,1.6,1.6,0,0,1-.4-1.1,4.1,4.1,0,0,1,1.363-3.088,4.584,4.584,0,0,1,3.262-1.287,5.423,5.423,0,0,1,3.563,1.162,4.887,4.887,0,0,1,1.737,3.038,7.6,7.6,0,0,1,.05.825,4.731,4.731,0,0,1-.875,2.725,16.531,16.531,0,0,1-2.825,2.875q-.9.776-2.5,2.3l-1.475,1.4,1.9.025a29.874,29.874,0,0,0,4.174-.125c.067-.017.15-.191.25-.525a15.75,15.75,0,0,0,.35-1.7v-.075h1v.075l-.7,4.575v.075h-9.275v-.475a1.694,1.694,0,0,1,.05-.575q.025-.026,2.1-2.375,2.726-3.026,3.5-4a7.248,7.248,0,0,0,1.676-4.175,4.377,4.377,0,0,0-.863-2.763,2.881,2.881,0,0,0-2.413-1.112,2.741,2.741,0,0,0-2.349,1.3c-.034.066-.084.158-.151.275a.539.539,0,0,0-.075.15c0,.016.042.025.125.025a1.274,1.274,0,0,1,1.013.45,1.561,1.561,0,0,1,.387,1.05,1.493,1.493,0,0,1-.412,1.063A1.423,1.423,0,0,1,381.489,65.192Z"/><path class="a" d="M398.823,57.564c.146-.01.311-.021.5-.036s.323-.027.415-.037l.153-.015c.117,0,.175.039.175.118s-.357,1.537-1.071,4.409-1.076,4.331-1.086,4.379a1.287,1.287,0,0,0-.014.218c0,.409.135.613.408.613a.634.634,0,0,0,.291-.131,3.319,3.319,0,0,0,.6-1.4c.058-.194.107-.3.146-.305a.407.407,0,0,1,.145-.015h.059c.184,0,.277.039.277.116a1.255,1.255,0,0,1-.044.234,3.782,3.782,0,0,1-.788,1.69,1.427,1.427,0,0,1-.466.307,1.65,1.65,0,0,1-.349.028,1.314,1.314,0,0,1-1.283-.714,1.206,1.206,0,0,0-.073-.175c-.01-.009-.029,0-.059.015l-.058.059a2.064,2.064,0,0,1-1.749.815,1.933,1.933,0,0,1-1.588-.8,2.831,2.831,0,0,1-.438-1.633,4.453,4.453,0,0,1,.992-2.681,3.818,3.818,0,0,1,2.011-1.385,2.144,2.144,0,0,1,.6-.088,1.4,1.4,0,0,1,1.224.612c.049.059.073.079.073.059q.014-.059.4-1.6t.4-1.61a.262.262,0,0,0-.087-.233,2.17,2.17,0,0,0-.583-.074h-.306a.4.4,0,0,1-.095-.116,1.426,1.426,0,0,1,.037-.277c.048-.185.111-.277.189-.277.01,0,.061,0,.153-.014s.223-.02.393-.029Zm-1.253,5.277q-.321-1.152-1.093-1.152a1.348,1.348,0,0,0-1.028.495,3.46,3.46,0,0,0-.677,1.137,11.66,11.66,0,0,0-.6,2.391c0,.029,0,.083-.007.16s-.008.137-.008.175a1.437,1.437,0,0,0,.226.845.76.76,0,0,0,.663.321,2.261,2.261,0,0,0,1.618-1.049l.117-.161q.13-.525.393-1.581T397.57,62.841Z"/><path class="a" d="M401.1,61.98c-.068-.067-.1-.116-.1-.145a1.171,1.171,0,0,1,.051-.241,1.051,1.051,0,0,1,.065-.2.145.145,0,0,1,.139-.08q.109-.008.736-.007h.772l.277-1.166q.306-1.181.35-1.268a.662.662,0,0,1,.671-.408.554.554,0,0,1,.327.131.38.38,0,0,1,.139.306,9.323,9.323,0,0,1-.277,1.239c-.039.165-.085.348-.138.546s-.1.348-.125.446l-.028.145a3.391,3.391,0,0,0,.728.029h.743c.068.068.1.121.1.16a.689.689,0,0,1-.189.51h-1.56l-.524,2.114q-.54,2.172-.554,2.288a1.189,1.189,0,0,0-.014.218c0,.409.13.613.393.613a.884.884,0,0,0,.175-.015,2.093,2.093,0,0,0,1.326-1.166,3.039,3.039,0,0,0,.262-.539.174.174,0,0,1,.074-.109.62.62,0,0,1,.218-.022c.194,0,.291.039.291.116a.782.782,0,0,1-.058.175,3.418,3.418,0,0,1-.517.941,3.826,3.826,0,0,1-.722.75,1.872,1.872,0,0,1-1.151.408,1.481,1.481,0,0,1-.9-.27,1.313,1.313,0,0,1-.5-.707,1.769,1.769,0,0,1-.03-.393V66.12l.511-2.041q.51-2.055.525-2.069a3.488,3.488,0,0,0-.744-.03Z"/><path class="b" d="M413.122,69.667a.545.545,0,0,1,.35-.5H428a.521.521,0,0,1,0,1H413.472A.543.543,0,0,1,413.122,69.667Z"/><path class="b" d="M447.122,75.917q-.426-.075-3.975-.075-3.5,0-3.925.075h-.3v-1.15h.65a14.075,14.075,0,0,0,1.875-.075,1.593,1.593,0,0,0,.6-.3V61.467a.606.606,0,0,0-.2.075,7.358,7.358,0,0,1-2.575.475H438.8v-1.15h.475a6.97,6.97,0,0,0,3.5-.95,3.455,3.455,0,0,0,.775-.575c.034-.05.133-.075.3-.075a.631.631,0,0,1,.425.15v7.475l.025,7.5a2.419,2.419,0,0,0,1.625.375H447.4v1.15Z"/><path class="a" d="M412.868,97.481c.25-.015.533-.037.85-.062s.554-.045.713-.063.245-.024.262-.024c.2,0,.3.066.3.2q0,.174-1.838,7.562t-1.862,7.512a2.05,2.05,0,0,0-.025.375q0,1.05.7,1.051a1.089,1.089,0,0,0,.5-.226,5.667,5.667,0,0,0,1.025-2.4q.15-.5.25-.525a.709.709,0,0,1,.25-.026h.1c.316,0,.475.068.475.2a2.09,2.09,0,0,1-.075.4,6.522,6.522,0,0,1-1.35,2.9,2.49,2.49,0,0,1-.8.526,2.7,2.7,0,0,1-.6.049,2.257,2.257,0,0,1-2.2-1.224,1.774,1.774,0,0,0-.125-.3c-.017-.017-.05-.009-.1.024l-.1.1a5.12,5.12,0,0,1-2.375,1.375,5.019,5.019,0,0,1-.625.024,3.318,3.318,0,0,1-2.725-1.375,4.862,4.862,0,0,1-.75-2.8,7.643,7.643,0,0,1,1.7-4.6,6.532,6.532,0,0,1,3.45-2.375,3.686,3.686,0,0,1,1.025-.15,2.393,2.393,0,0,1,2.1,1.049c.083.1.125.134.125.1q.024-.1.688-2.738t.687-2.762a.449.449,0,0,0-.15-.4,3.692,3.692,0,0,0-1-.125h-.525a.656.656,0,0,1-.162-.2,2.458,2.458,0,0,1,.062-.474c.083-.317.192-.476.325-.476.017,0,.1-.008.263-.024s.383-.033.674-.05S412.585,97.5,412.868,97.481Zm-2.15,9.051q-.55-1.974-1.875-1.976a2.31,2.31,0,0,0-1.762.851,5.917,5.917,0,0,0-1.163,1.949,20.006,20.006,0,0,0-1.025,4.1c0,.05,0,.141-.013.274s-.012.235-.012.3a2.465,2.465,0,0,0,.387,1.449,1.3,1.3,0,0,0,1.138.551q1.325,0,2.775-1.8l.2-.274q.225-.9.675-2.713T410.718,106.532Z"/><path class="a" d="M415.567,105.056c-.116-.116-.174-.2-.174-.25a1.937,1.937,0,0,1,.087-.412,1.746,1.746,0,0,1,.112-.338.248.248,0,0,1,.238-.137q.188-.012,1.262-.012h1.326l.475-2q.525-2.026.6-2.176a1.134,1.134,0,0,1,1.15-.7.972.972,0,0,1,.562.225.653.653,0,0,1,.237.525,15.7,15.7,0,0,1-.475,2.125c-.066.283-.146.6-.237.937s-.163.6-.212.762l-.051.25a5.8,5.8,0,0,0,1.25.051h1.276c.116.116.175.208.175.274a1.177,1.177,0,0,1-.326.875h-2.674l-.9,3.625q-.925,3.726-.951,3.925a2.166,2.166,0,0,0-.024.375q0,1.05.674,1.051a1.622,1.622,0,0,0,.3-.025,3.6,3.6,0,0,0,2.275-2,5.458,5.458,0,0,0,.45-.925.3.3,0,0,1,.125-.188,1.092,1.092,0,0,1,.375-.038c.333,0,.5.068.5.2a1.392,1.392,0,0,1-.1.3,5.884,5.884,0,0,1-.888,1.613,6.608,6.608,0,0,1-1.237,1.288,3.219,3.219,0,0,1-1.975.7,2.543,2.543,0,0,1-1.538-.463,2.261,2.261,0,0,1-.862-1.212,3.09,3.09,0,0,1-.051-.676v-.449l.875-3.5q.876-3.526.9-3.551a6.189,6.189,0,0,0-1.276-.05Z"/><rect class="b" x="372.93" y="87.09" width="80" height="1" rx="0.5"/><path class="b" d="M326.844,90.149h.35q.975,0,1.175-.349v-.776c0-.232,0-.508.012-.824s.013-.68.013-1.088V79.25q0-.825-.013-1.513c-.008-.458-.012-.82-.012-1.088v-.425a.827.827,0,0,0-.363-.637,2.908,2.908,0,0,0-1.112-.212h-.45V74.8c0-.383.017-.576.05-.576l.25-.024c.166-.017.408-.033.725-.051s.625-.033.925-.05q.425-.024.925-.062t.75-.063c.166-.016.258-.024.275-.024h.075v7.875q0,7.925.025,7.975a.539.539,0,0,0,.3.275,8.781,8.781,0,0,0,1.225.074h.4V91.3h-.2a26.655,26.655,0,0,0-2.75-.076,24.715,24.715,0,0,0-2.775.076h-.2V90.149Z"/><path class="b" d="M338.919,91.3a21.231,21.231,0,0,0-2.6-.076,26.242,26.242,0,0,0-2.725.076h-.2V90.149h.4a8.781,8.781,0,0,0,1.225-.074.542.542,0,0,0,.3-.275q.026-.051.025-3.625a34.5,34.5,0,0,0-.1-4q-.2-.5-1.475-.5h-.275V81.1c0-.382.017-.575.05-.575l.25-.024c.167-.017.4-.033.7-.05s.6-.033.9-.051c.283-.015.584-.037.9-.062s.559-.045.725-.063.258-.024.275-.024h.075v9.5a.576.576,0,0,0,.3.312,3.841,3.841,0,0,0,.875.087h.575V91.3Zm-2.9-16.725a1.605,1.605,0,0,1,1.025.437,1.41,1.41,0,0,1,.4,1.063,1.337,1.337,0,0,1-.675,1.274,1.365,1.365,0,0,1-.8.226,1.409,1.409,0,0,1-.825-.226,1.337,1.337,0,0,1-.675-1.274,1.417,1.417,0,0,1,.438-1.1A1.585,1.585,0,0,1,336.019,74.575Z"/><path class="b" d="M344.394,89.8q.2.35,1.175.349h.75V91.3h-.2a51.617,51.617,0,0,0-5.6,0h-.2V90.149h.75q.975,0,1.175-.349v-.776c0-.232,0-.5.012-.787s.013-.616.013-.975V86.224q0-.774-.013-1.662t-.012-1.463v-.575a.827.827,0,0,0-.363-.637,2.908,2.908,0,0,0-1.112-.212h-.45V81.1c0-.382.017-.575.05-.575l.25-.024c.166-.017.4-.033.713-.05s.612-.033.912-.051c.283-.015.583-.037.9-.062s.558-.045.725-.063.258-.024.275-.024h.075v1a6.717,6.717,0,0,0,.025.95l.025-.025a4.4,4.4,0,0,1,3.825-1.925q2.425.075,2.975,1.9l.05.125q.6-.75.675-.824a4.2,4.2,0,0,1,2.975-1.2q3.124,0,3.425,2.825.026.174.025,3.475,0,3.2.025,3.25a.539.539,0,0,0,.3.275,8.781,8.781,0,0,0,1.225.074h.4V91.3h-.2a51.617,51.617,0,0,0-5.6,0h-.2V90.149h.6q1.324,0,1.325-.4.024-.049.025-3.45-.026-3.375-.05-3.576a2.2,2.2,0,0,0-.563-1.162,1.689,1.689,0,0,0-1.187-.362,2.707,2.707,0,0,0-1.975.85,3.577,3.577,0,0,0-1.025,2.2c0,.016,0,.171-.013.462s-.012.663-.012,1.113v2.8c0,.217,0,.412.012.587s.013.321.013.437V89.8q.2.35,1.175.349h.75V91.3h-.2a51.617,51.617,0,0,0-5.6,0h-.2V90.149h.6q1.325,0,1.325-.4.024-.049.025-3.45-.026-3.375-.05-3.576a2.212,2.212,0,0,0-.562-1.162,1.694,1.694,0,0,0-1.188-.362,2.707,2.707,0,0,0-1.975.85,3.583,3.583,0,0,0-1.025,2.2v.462q0,.438-.013,1.113c-.008.449-.012.875-.012,1.274v.788q0,.413.012.738c.009.217.013.412.013.587V89.8Z"/><path class="a" d="M326.572,100.425l.68-.05c.253-.021.443-.037.57-.051s.2-.02.21-.02c.16,0,.24.054.24.161q0,.138-1.47,6.049t-1.49,6.01a1.609,1.609,0,0,0-.02.3q0,.842.56.841a.867.867,0,0,0,.4-.181,4.531,4.531,0,0,0,.82-1.92q.12-.4.2-.42a.63.63,0,0,1,.2-.019h.08c.253,0,.38.053.38.159a1.673,1.673,0,0,1-.06.32,5.212,5.212,0,0,1-1.08,2.321,2,2,0,0,1-.64.419,2.1,2.1,0,0,1-.48.041,1.806,1.806,0,0,1-1.76-.981,1.45,1.45,0,0,0-.1-.239c-.014-.014-.04-.007-.08.019l-.08.08a4.093,4.093,0,0,1-1.9,1.1,3.672,3.672,0,0,1-.5.021,2.656,2.656,0,0,1-2.18-1.1,3.889,3.889,0,0,1-.6-2.239,6.112,6.112,0,0,1,1.36-3.681,5.233,5.233,0,0,1,2.76-1.9,2.978,2.978,0,0,1,.82-.121,1.918,1.918,0,0,1,1.68.84c.067.08.1.107.1.08q.019-.078.55-2.19t.55-2.21a.356.356,0,0,0-.12-.319,2.976,2.976,0,0,0-.8-.1h-.42a.554.554,0,0,1-.13-.16,2.029,2.029,0,0,1,.05-.38c.067-.253.153-.38.26-.38.013,0,.083-.007.21-.019s.307-.028.54-.04Zm-1.72,7.24q-.439-1.581-1.5-1.58a1.847,1.847,0,0,0-1.41.679,4.738,4.738,0,0,0-.93,1.56,15.962,15.962,0,0,0-.82,3.28c0,.04,0,.114-.01.22s-.01.187-.01.24a1.969,1.969,0,0,0,.31,1.16,1.044,1.044,0,0,0,.91.441,3.107,3.107,0,0,0,2.22-1.441l.16-.219q.18-.721.54-2.17T324.852,107.665Z"/><path class="a" d="M328.732,106.484c-.093-.093-.14-.16-.14-.2a1.581,1.581,0,0,1,.07-.33,1.348,1.348,0,0,1,.09-.27.2.2,0,0,1,.19-.11c.1-.006.436-.01,1.01-.01h1.06l.38-1.6q.42-1.62.48-1.741a.907.907,0,0,1,.92-.559.775.775,0,0,1,.45.179.524.524,0,0,1,.19.42,12.615,12.615,0,0,1-.38,1.7c-.053.226-.117.476-.19.75s-.13.476-.17.609l-.04.2a4.609,4.609,0,0,0,1,.04h1.02c.093.094.14.167.14.22a.946.946,0,0,1-.26.7h-2.14l-.72,2.9q-.741,2.979-.76,3.139a1.7,1.7,0,0,0-.02.3q0,.842.54.841a1.189,1.189,0,0,0,.24-.021,2.879,2.879,0,0,0,1.82-1.6,4.3,4.3,0,0,0,.36-.741.25.25,0,0,1,.1-.15.916.916,0,0,1,.3-.029c.267,0,.4.053.4.159a1.123,1.123,0,0,1-.08.24,4.674,4.674,0,0,1-.71,1.29,5.217,5.217,0,0,1-.99,1.03,2.567,2.567,0,0,1-1.58.56,2.036,2.036,0,0,1-1.23-.37,1.806,1.806,0,0,1-.69-.97,2.484,2.484,0,0,1-.04-.54v-.359l.7-2.8q.7-2.82.72-2.84a4.976,4.976,0,0,0-1.02-.04Z"/><path class="b" d="M336.552,109.184a.436.436,0,0,1,.28-.4h15.3a7.463,7.463,0,0,1-2.2-2.56,6.411,6.411,0,0,1-.66-1.9.373.373,0,0,0-.01-.08.245.245,0,0,1-.01-.06q0-.219.4-.219a.615.615,0,0,1,.309.049.391.391,0,0,1,.111.23,3.926,3.926,0,0,0,.22.82,6.134,6.134,0,0,0,1.46,2.39,5.927,5.927,0,0,0,2.38,1.511.224.224,0,0,1,0,.439,5.938,5.938,0,0,0-2.38,1.511,6.138,6.138,0,0,0-1.46,2.389,7.144,7.144,0,0,0-.22.8.414.414,0,0,1-.111.25.611.611,0,0,1-.309.05q-.42,0-.42-.22a4.005,4.005,0,0,1,.12-.5,7.1,7.1,0,0,1,2.78-4.1h-15.3A.436.436,0,0,1,336.552,109.184Z"/><path class="b" d="M357.352,102.484a3.527,3.527,0,0,1,3.06-1.62,3.692,3.692,0,0,1,2.56,1,4.389,4.389,0,0,1,.92,1.36,11.448,11.448,0,0,1,.74,4.56,10.444,10.444,0,0,1-.86,4.74,3.459,3.459,0,0,1-1.64,1.68,3.769,3.769,0,0,1-1.7.421,3.523,3.523,0,0,1-3.36-2.1,10.429,10.429,0,0,1-.861-4.74,15.629,15.629,0,0,1,.25-3.069A6.729,6.729,0,0,1,357.352,102.484Zm4.5-.24a1.846,1.846,0,0,0-1.42-.64,1.907,1.907,0,0,0-1.44.64,2.407,2.407,0,0,0-.6,1.12,12.329,12.329,0,0,0-.2,2.28q0,.12-.009.781c-.007.439-.01.806-.01,1.1q0,1.92.039,2.68a11.472,11.472,0,0,0,.241,2.011,2.261,2.261,0,0,0,.6,1.049,1.77,1.77,0,0,0,1.38.6,1.749,1.749,0,0,0,1.36-.6,2.278,2.278,0,0,0,.6-1.049,11.6,11.6,0,0,0,.24-2.011q.039-.759.04-2.68c0-.293,0-.66-.01-1.1s-.01-.7-.01-.781a12.444,12.444,0,0,0-.2-2.28A2.425,2.425,0,0,0,361.852,102.244Z"/><path class="b" d="M314.267,126.491q0,.075-.15.225h-.4a1.9,1.9,0,0,1-.475-.025,9.746,9.746,0,0,1-1.125-1.225q-10.875-12.325-10.875-36.25,0-23.874,10.875-36.225.624-.75,1.1-1.225a2.192,2.192,0,0,1,.475-.025h.425q.15.15.15.225a2.223,2.223,0,0,1-.35.55,40.8,40.8,0,0,0-7.025,13.575q-2.875,9.351-2.875,23.125,0,13.8,2.875,23.15a40.8,40.8,0,0,0,7.025,13.575A2.243,2.243,0,0,1,314.267,126.491Z"/><path class="b" d="M463.639,51.966q0-.225.475-.225h.2a1.128,1.128,0,0,1,.35.025,9.661,9.661,0,0,1,1.125,1.225q10.875,12.325,10.875,36.225t-10.875,36.25a9.746,9.746,0,0,1-1.125,1.225h-.15a2.126,2.126,0,0,1-.3.025h-.15c-.284,0-.425-.083-.425-.25a2.567,2.567,0,0,1,.425-.6,38.9,38.9,0,0,0,6.525-12.2q3.3-9.8,3.3-24.45,0-14.625-3.3-24.425a38.908,38.908,0,0,0-6.525-12.2A2.15,2.15,0,0,1,463.639,51.966Z"/></svg>