<svg xmlns="http://www.w3.org/2000/svg" width="720" height="720" viewBox="0 0 720 720"><rect width="720" height="720"/><g style="opacity:0.1"><line x1="66" y1="60" x2="66" y2="660" style="fill:none;stroke:#fff;stroke-miterlimit:24"/><line x1="72" y1="60" x2="72" y2="660" style="fill:none;stroke:#fff;stroke-miterlimit:24"/><line x1="78" y1="60" x2="78" y2="660" style="fill:none;stroke:#fff;stroke-miterlimit:24"/><line x1="84" y1="60" x2="84" y2="660" style="fill:none;stroke:#fff;stroke-miterlimit:24"/><line x1="96" y1="60" x2="96" y2="660" style="fill:none;stroke:#fff;stroke-miterlimit:24"/><line x1="102" y1="60" x2="102" y2="660" style="fill:none;stroke:#fff;stroke-miterlimit:24"/><line x1="108" y1="60" x2="108" y2="660" style="fill:none;stroke:#fff;stroke-miterlimit:24"/><line x1="114" y1="60" x2="114" y2="660" style="fill:none;stroke:#fff;stroke-miterlimit:24"/><line x1="126" y1="60" x2="126" y2="660" style="fill:none;stroke:#fff;stroke-miterlimit:24"/><line x1="132" y1="60" x2="132" y2="660" style="fill:none;stroke:#fff;stroke-miterlimit:24"/><line x1="138" y1="60" x2="138" y2="660" style="fill:none;stroke:#fff;stroke-miterlimit:24"/><line x1="144" y1="60" x2="144" y2="660" style="fill:none;stroke:#fff;stroke-miterlimit:24"/><line x1="156" y1="60" x2="156" y2="660" style="fill:none;stroke:#fff;stroke-miterlimit:24"/><line x1="162" y1="60" x2="162" y2="660" style="fill:none;stroke:#fff;stroke-miterlimit:24"/><line x1="168" y1="60" x2="168" y2="660" style="fill:none;stroke:#fff;stroke-miterlimit:24"/><line x1="174" y1="60" x2="174" y2="660" style="fill:none;stroke:#fff;stroke-miterlimit:24"/><line x1="186" y1="60" x2="186" y2="660" style="fill:none;stroke:#fff;stroke-miterlimit:24"/><line x1="192" y1="60" x2="192" y2="660" style="fill:none;stroke:#fff;stroke-miterlimit:24"/><line x1="198" y1="60" x2="198" y2="660" style="fill:none;stroke:#fff;stroke-miterlimit:24"/><line x1="204" y1="60" x2="204" y2="660" style="fill:none;stroke:#fff;stroke-miterlimit:24"/><line x1="216" y1="60" x2="216" y2="660" style="fill:none;stroke:#fff;stroke-miterlimit:24"/><line x1="222" y1="60" x2="222" y2="660" style="fill:none;stroke:#fff;stroke-miterlimit:24"/><line x1="228" y1="60" x2="228" y2="660" style="fill:none;stroke:#fff;stroke-miterlimit:24"/><line x1="234" y1="60" x2="234" y2="660" style="fill:none;stroke:#fff;stroke-miterlimit:24"/><line x1="246" y1="60" x2="246" y2="660" style="fill:none;stroke:#fff;stroke-miterlimit:24"/><line x1="252" y1="60" x2="252" y2="660" style="fill:none;stroke:#fff;stroke-miterlimit:24"/><line x1="258" y1="60" x2="258" y2="660" style="fill:none;stroke:#fff;stroke-miterlimit:24"/><line x1="264" y1="60" x2="264" y2="660" style="fill:none;stroke:#fff;stroke-miterlimit:24"/><line x1="276" y1="60" x2="276" y2="660" style="fill:none;stroke:#fff;stroke-miterlimit:24"/><line x1="282" y1="60" x2="282" y2="660" style="fill:none;stroke:#fff;stroke-miterlimit:24"/><line x1="288" y1="60" x2="288" y2="660" style="fill:none;stroke:#fff;stroke-miterlimit:24"/><line x1="294" y1="60" x2="294" y2="660" style="fill:none;stroke:#fff;stroke-miterlimit:24"/><line x1="306" y1="60" x2="306" y2="660" style="fill:none;stroke:#fff;stroke-miterlimit:24"/><line x1="312" y1="60" x2="312" y2="660" style="fill:none;stroke:#fff;stroke-miterlimit:24"/><line x1="318" y1="60" x2="318" y2="660" style="fill:none;stroke:#fff;stroke-miterlimit:24"/><line x1="324" y1="60" x2="324" y2="660" style="fill:none;stroke:#fff;stroke-miterlimit:24"/><line x1="336" y1="60" x2="336" y2="660" style="fill:none;stroke:#fff;stroke-miterlimit:24"/><line x1="342" y1="60" x2="342" y2="660" style="fill:none;stroke:#fff;stroke-miterlimit:24"/><line x1="348" y1="60" x2="348" y2="660" style="fill:none;stroke:#fff;stroke-miterlimit:24"/><line x1="354" y1="60" x2="354" y2="660" style="fill:none;stroke:#fff;stroke-miterlimit:24"/><line x1="366" y1="60" x2="366" y2="660" style="fill:none;stroke:#fff;stroke-miterlimit:24"/><line x1="372" y1="60" x2="372" y2="660" style="fill:none;stroke:#fff;stroke-miterlimit:24"/><line x1="378" y1="60" x2="378" y2="660" style="fill:none;stroke:#fff;stroke-miterlimit:24"/><line x1="384" y1="60" x2="384" y2="660" style="fill:none;stroke:#fff;stroke-miterlimit:24"/><line x1="396" y1="60" x2="396" y2="660" style="fill:none;stroke:#fff;stroke-miterlimit:24"/><line x1="402" y1="60" x2="402" y2="660" style="fill:none;stroke:#fff;stroke-miterlimit:24"/><line x1="408" y1="60" x2="408" y2="660" style="fill:none;stroke:#fff;stroke-miterlimit:24"/><line x1="414" y1="60" x2="414" y2="660" style="fill:none;stroke:#fff;stroke-miterlimit:24"/><line x1="426" y1="60" x2="426" y2="660" style="fill:none;stroke:#fff;stroke-miterlimit:24"/><line x1="432" y1="60" x2="432" y2="660" style="fill:none;stroke:#fff;stroke-miterlimit:24"/><line x1="438" y1="60" x2="438" y2="660" style="fill:none;stroke:#fff;stroke-miterlimit:24"/><line x1="444" y1="60" x2="444" y2="660" style="fill:none;stroke:#fff;stroke-miterlimit:24"/><line x1="456" y1="60" x2="456" y2="660" style="fill:none;stroke:#fff;stroke-miterlimit:24"/><line x1="462" y1="60" x2="462" y2="660" style="fill:none;stroke:#fff;stroke-miterlimit:24"/><line x1="468" y1="60" x2="468" y2="660" style="fill:none;stroke:#fff;stroke-miterlimit:24"/><line x1="474" y1="60" x2="474" y2="660" style="fill:none;stroke:#fff;stroke-miterlimit:24"/><line x1="486" y1="60" x2="486" y2="660" style="fill:none;stroke:#fff;stroke-miterlimit:24"/><line x1="492" y1="60" x2="492" y2="660" style="fill:none;stroke:#fff;stroke-miterlimit:24"/><line x1="498" y1="60" x2="498" y2="660" style="fill:none;stroke:#fff;stroke-miterlimit:24"/><line x1="504" y1="60" x2="504" y2="660" style="fill:none;stroke:#fff;stroke-miterlimit:24"/><line x1="516" y1="60" x2="516" y2="660" style="fill:none;stroke:#fff;stroke-miterlimit:24"/><line x1="522" y1="60" x2="522" y2="660" style="fill:none;stroke:#fff;stroke-miterlimit:24"/><line x1="528" y1="60" x2="528" y2="660" style="fill:none;stroke:#fff;stroke-miterlimit:24"/><line x1="534" y1="60" x2="534" y2="660" style="fill:none;stroke:#fff;stroke-miterlimit:24"/><line x1="546" y1="60" x2="546" y2="660" style="fill:none;stroke:#fff;stroke-miterlimit:24"/><line x1="552" y1="60" x2="552" y2="660" style="fill:none;stroke:#fff;stroke-miterlimit:24"/><line x1="558" y1="60" x2="558" y2="660" style="fill:none;stroke:#fff;stroke-miterlimit:24"/><line x1="564" y1="60" x2="564" y2="660" style="fill:none;stroke:#fff;stroke-miterlimit:24"/><line x1="576" y1="60" x2="576" y2="660" style="fill:none;stroke:#fff;stroke-miterlimit:24"/><line x1="582" y1="60" x2="582" y2="660" style="fill:none;stroke:#fff;stroke-miterlimit:24"/><line x1="588" y1="60" x2="588" y2="660" style="fill:none;stroke:#fff;stroke-miterlimit:24"/><line x1="594" y1="60" x2="594" y2="660" style="fill:none;stroke:#fff;stroke-miterlimit:24"/><line x1="606" y1="60" x2="606" y2="660" style="fill:none;stroke:#fff;stroke-miterlimit:24"/><line x1="612" y1="60" x2="612" y2="660" style="fill:none;stroke:#fff;stroke-miterlimit:24"/><line x1="618" y1="60" x2="618" y2="660" style="fill:none;stroke:#fff;stroke-miterlimit:24"/><line x1="624" y1="60" x2="624" y2="660" style="fill:none;stroke:#fff;stroke-miterlimit:24"/><line x1="636" y1="60" x2="636" y2="660" style="fill:none;stroke:#fff;stroke-miterlimit:24"/><line x1="642" y1="60" x2="642" y2="660" style="fill:none;stroke:#fff;stroke-miterlimit:24"/><line x1="648" y1="60" x2="648" y2="660" style="fill:none;stroke:#fff;stroke-miterlimit:24"/><line x1="654" y1="60" x2="654" y2="660" style="fill:none;stroke:#fff;stroke-miterlimit:24"/><line x1="60" y1="66" x2="660" y2="66" style="fill:none;stroke:#fff;stroke-miterlimit:24"/><line x1="60" y1="72" x2="660" y2="72" style="fill:none;stroke:#fff;stroke-miterlimit:24"/><line x1="60" y1="78" x2="660" y2="78" style="fill:none;stroke:#fff;stroke-miterlimit:24"/><line x1="60" y1="84" x2="660" y2="84" style="fill:none;stroke:#fff;stroke-miterlimit:24"/><line x1="60" y1="96" x2="660" y2="96" style="fill:none;stroke:#fff;stroke-miterlimit:24"/><line x1="60" y1="102" x2="660" y2="102" style="fill:none;stroke:#fff;stroke-miterlimit:24"/><line x1="60" y1="108" x2="660" y2="108" style="fill:none;stroke:#fff;stroke-miterlimit:24"/><line x1="60" y1="114" x2="660" y2="114" style="fill:none;stroke:#fff;stroke-miterlimit:24"/><line x1="60" y1="126" x2="660" y2="126" style="fill:none;stroke:#fff;stroke-miterlimit:24"/><line x1="60" y1="132" x2="660" y2="132" style="fill:none;stroke:#fff;stroke-miterlimit:24"/><line x1="60" y1="138" x2="660" y2="138" style="fill:none;stroke:#fff;stroke-miterlimit:24"/><line x1="60" y1="144" x2="660" y2="144" style="fill:none;stroke:#fff;stroke-miterlimit:24"/><line x1="60" y1="156" x2="660" y2="156" style="fill:none;stroke:#fff;stroke-miterlimit:24"/><line x1="60" y1="162" x2="660" y2="162" style="fill:none;stroke:#fff;stroke-miterlimit:24"/><line x1="60" y1="168" x2="660" y2="168" style="fill:none;stroke:#fff;stroke-miterlimit:24"/><line x1="60" y1="174" x2="660" y2="174" style="fill:none;stroke:#fff;stroke-miterlimit:24"/><line x1="60" y1="186" x2="660" y2="186" style="fill:none;stroke:#fff;stroke-miterlimit:24"/><line x1="60" y1="192" x2="660" y2="192" style="fill:none;stroke:#fff;stroke-miterlimit:24"/><line x1="60" y1="198" x2="660" y2="198" style="fill:none;stroke:#fff;stroke-miterlimit:24"/><line x1="60" y1="204" x2="660" y2="204" style="fill:none;stroke:#fff;stroke-miterlimit:24"/><line x1="60" y1="216" x2="660" y2="216" style="fill:none;stroke:#fff;stroke-miterlimit:24"/><line x1="60" y1="222" x2="660" y2="222" style="fill:none;stroke:#fff;stroke-miterlimit:24"/><line x1="60" y1="228" x2="660" y2="228" style="fill:none;stroke:#fff;stroke-miterlimit:24"/><line x1="60" y1="234" x2="660" y2="234" style="fill:none;stroke:#fff;stroke-miterlimit:24"/><line x1="60" y1="246" x2="660" y2="246" style="fill:none;stroke:#fff;stroke-miterlimit:24"/><line x1="60" y1="252" x2="660" y2="252" style="fill:none;stroke:#fff;stroke-miterlimit:24"/><line x1="60" y1="258" x2="660" y2="258" style="fill:none;stroke:#fff;stroke-miterlimit:24"/><line x1="60" y1="264" x2="660" y2="264" style="fill:none;stroke:#fff;stroke-miterlimit:24"/><line x1="60" y1="276" x2="660" y2="276" style="fill:none;stroke:#fff;stroke-miterlimit:24"/><line x1="60" y1="282" x2="660" y2="282" style="fill:none;stroke:#fff;stroke-miterlimit:24"/><line x1="60" y1="288" x2="660" y2="288" style="fill:none;stroke:#fff;stroke-miterlimit:24"/><line x1="60" y1="294" x2="660" y2="294" style="fill:none;stroke:#fff;stroke-miterlimit:24"/><line x1="60" y1="306" x2="660" y2="306" style="fill:none;stroke:#fff;stroke-miterlimit:24"/><line x1="60" y1="312" x2="660" y2="312" style="fill:none;stroke:#fff;stroke-miterlimit:24"/><line x1="60" y1="318" x2="660" y2="318" style="fill:none;stroke:#fff;stroke-miterlimit:24"/><line x1="60" y1="324" x2="660" y2="324" style="fill:none;stroke:#fff;stroke-miterlimit:24"/><line x1="60" y1="336" x2="660" y2="336" style="fill:none;stroke:#fff;stroke-miterlimit:24"/><line x1="60" y1="342" x2="660" y2="342" style="fill:none;stroke:#fff;stroke-miterlimit:24"/><line x1="60" y1="348" x2="660" y2="348" style="fill:none;stroke:#fff;stroke-miterlimit:24"/><line x1="60" y1="354" x2="660" y2="354" style="fill:none;stroke:#fff;stroke-miterlimit:24"/><line x1="60" y1="366" x2="660" y2="366" style="fill:none;stroke:#fff;stroke-miterlimit:24"/><line x1="60" y1="372" x2="660" y2="372" style="fill:none;stroke:#fff;stroke-miterlimit:24"/><line x1="60" y1="378" x2="660" y2="378" style="fill:none;stroke:#fff;stroke-miterlimit:24"/><line x1="60" y1="384" x2="660" y2="384" style="fill:none;stroke:#fff;stroke-miterlimit:24"/><line x1="60" y1="396" x2="660" y2="396" style="fill:none;stroke:#fff;stroke-miterlimit:24"/><line x1="60" y1="402" x2="660" y2="402" style="fill:none;stroke:#fff;stroke-miterlimit:24"/><line x1="60" y1="408" x2="660" y2="408" style="fill:none;stroke:#fff;stroke-miterlimit:24"/><line x1="60" y1="414" x2="660" y2="414" style="fill:none;stroke:#fff;stroke-miterlimit:24"/><line x1="60" y1="426" x2="660" y2="426" style="fill:none;stroke:#fff;stroke-miterlimit:24"/><line x1="60" y1="432" x2="660" y2="432" style="fill:none;stroke:#fff;stroke-miterlimit:24"/><line x1="60" y1="438" x2="660" y2="438" style="fill:none;stroke:#fff;stroke-miterlimit:24"/><line x1="60" y1="444" x2="660" y2="444" style="fill:none;stroke:#fff;stroke-miterlimit:24"/><line x1="60" y1="456" x2="660" y2="456" style="fill:none;stroke:#fff;stroke-miterlimit:24"/><line x1="60" y1="462" x2="660" y2="462" style="fill:none;stroke:#fff;stroke-miterlimit:24"/><line x1="60" y1="468" x2="660" y2="468" style="fill:none;stroke:#fff;stroke-miterlimit:24"/><line x1="60" y1="474" x2="660" y2="474" style="fill:none;stroke:#fff;stroke-miterlimit:24"/><line x1="60" y1="486" x2="660" y2="486" style="fill:none;stroke:#fff;stroke-miterlimit:24"/><line x1="60" y1="492" x2="660" y2="492" style="fill:none;stroke:#fff;stroke-miterlimit:24"/><line x1="60" y1="498" x2="660" y2="498" style="fill:none;stroke:#fff;stroke-miterlimit:24"/><line x1="60" y1="504" x2="660" y2="504" style="fill:none;stroke:#fff;stroke-miterlimit:24"/><line x1="60" y1="516" x2="660" y2="516" style="fill:none;stroke:#fff;stroke-miterlimit:24"/><line x1="60" y1="522" x2="660" y2="522" style="fill:none;stroke:#fff;stroke-miterlimit:24"/><line x1="60" y1="528" x2="660" y2="528" style="fill:none;stroke:#fff;stroke-miterlimit:24"/><line x1="60" y1="534" x2="660" y2="534" style="fill:none;stroke:#fff;stroke-miterlimit:24"/><line x1="60" y1="546" x2="660" y2="546" style="fill:none;stroke:#fff;stroke-miterlimit:24"/><line x1="60" y1="552" x2="660" y2="552" style="fill:none;stroke:#fff;stroke-miterlimit:24"/><line x1="60" y1="558" x2="660" y2="558" style="fill:none;stroke:#fff;stroke-miterlimit:24"/><line x1="60" y1="564" x2="660" y2="564" style="fill:none;stroke:#fff;stroke-miterlimit:24"/><line x1="60" y1="576" x2="660" y2="576" style="fill:none;stroke:#fff;stroke-miterlimit:24"/><line x1="60" y1="582" x2="660" y2="582" style="fill:none;stroke:#fff;stroke-miterlimit:24"/><line x1="60" y1="588" x2="660" y2="588" style="fill:none;stroke:#fff;stroke-miterlimit:24"/><line x1="60" y1="594" x2="660" y2="594" style="fill:none;stroke:#fff;stroke-miterlimit:24"/><line x1="60" y1="606" x2="660" y2="606" style="fill:none;stroke:#fff;stroke-miterlimit:24"/><line x1="60" y1="612" x2="660" y2="612" style="fill:none;stroke:#fff;stroke-miterlimit:24"/><line x1="60" y1="618" x2="660" y2="618" style="fill:none;stroke:#fff;stroke-miterlimit:24"/><line x1="60" y1="624" x2="660" y2="624" style="fill:none;stroke:#fff;stroke-miterlimit:24"/><line x1="60" y1="636" x2="660" y2="636" style="fill:none;stroke:#fff;stroke-miterlimit:24"/><line x1="60" y1="642" x2="660" y2="642" style="fill:none;stroke:#fff;stroke-miterlimit:24"/><line x1="60" y1="648" x2="660" y2="648" style="fill:none;stroke:#fff;stroke-miterlimit:24"/><line x1="60" y1="654" x2="660" y2="654" style="fill:none;stroke:#fff;stroke-miterlimit:24"/></g><g style="opacity:0.2"><line x1="90" y1="60" x2="90" y2="660" style="fill:none;stroke:#fff;stroke-miterlimit:24"/><line x1="150" y1="60" x2="150" y2="660" style="fill:none;stroke:#fff;stroke-miterlimit:24"/><line x1="210" y1="60" x2="210" y2="660" style="fill:none;stroke:#fff;stroke-miterlimit:24"/><line x1="270" y1="60" x2="270" y2="660" style="fill:none;stroke:#fff;stroke-miterlimit:24"/><line x1="330" y1="60" x2="330" y2="660" style="fill:none;stroke:#fff;stroke-miterlimit:24"/><line x1="390" y1="60" x2="390" y2="660" style="fill:none;stroke:#fff;stroke-miterlimit:24"/><line x1="450" y1="60" x2="450" y2="660" style="fill:none;stroke:#fff;stroke-miterlimit:24"/><line x1="510" y1="60" x2="510" y2="660" style="fill:none;stroke:#fff;stroke-miterlimit:24"/><line x1="570" y1="60" x2="570" y2="660" style="fill:none;stroke:#fff;stroke-miterlimit:24"/><line x1="630" y1="60" x2="630" y2="660" style="fill:none;stroke:#fff;stroke-miterlimit:24"/><line x1="60" y1="90" x2="660" y2="90" style="fill:none;stroke:#fff;stroke-miterlimit:24"/><line x1="60" y1="150" x2="660" y2="150" style="fill:none;stroke:#fff;stroke-miterlimit:24"/><line x1="60" y1="210" x2="660" y2="210" style="fill:none;stroke:#fff;stroke-miterlimit:24"/><line x1="60" y1="270" x2="660" y2="270" style="fill:none;stroke:#fff;stroke-miterlimit:24"/><line x1="60" y1="330" x2="660" y2="330" style="fill:none;stroke:#fff;stroke-miterlimit:24"/><line x1="60" y1="390" x2="660" y2="390" style="fill:none;stroke:#fff;stroke-miterlimit:24"/><line x1="60" y1="450" x2="660" y2="450" style="fill:none;stroke:#fff;stroke-miterlimit:24"/><line x1="60" y1="510" x2="660" y2="510" style="fill:none;stroke:#fff;stroke-miterlimit:24"/><line x1="60" y1="570" x2="660" y2="570" style="fill:none;stroke:#fff;stroke-miterlimit:24"/><line x1="60" y1="630" x2="660" y2="630" style="fill:none;stroke:#fff;stroke-miterlimit:24"/></g><g style="opacity:0.4000000059604645"><line x1="60" y1="60" x2="60" y2="660" style="fill:none;stroke:#fff;stroke-miterlimit:24"/><line x1="120" y1="60" x2="120" y2="660" style="fill:none;stroke:#fff;stroke-miterlimit:24"/><line x1="180" y1="60" x2="180" y2="660" style="fill:none;stroke:#fff;stroke-miterlimit:24"/><line x1="240" y1="60" x2="240" y2="660" style="fill:none;stroke:#fff;stroke-miterlimit:24"/><line x1="300" y1="60" x2="300" y2="660" style="fill:none;stroke:#fff;stroke-miterlimit:24"/><line x1="360" y1="60" x2="360" y2="660" style="fill:none;stroke:#fff;stroke-miterlimit:24"/><line x1="420" y1="60" x2="420" y2="660" style="fill:none;stroke:#fff;stroke-miterlimit:24"/><line x1="480" y1="60" x2="480" y2="660" style="fill:none;stroke:#fff;stroke-miterlimit:24"/><line x1="540" y1="60" x2="540" y2="660" style="fill:none;stroke:#fff;stroke-miterlimit:24"/><line x1="600" y1="60" x2="600" y2="660" style="fill:none;stroke:#fff;stroke-miterlimit:24"/><line x1="660" y1="60" x2="660" y2="660" style="fill:none;stroke:#fff;stroke-miterlimit:24"/><line x1="60" y1="60" x2="660" y2="60" style="fill:none;stroke:#fff;stroke-miterlimit:24"/><line x1="60" y1="120" x2="660" y2="120" style="fill:none;stroke:#fff;stroke-miterlimit:24"/><line x1="60" y1="180" x2="660" y2="180" style="fill:none;stroke:#fff;stroke-miterlimit:24"/><line x1="60" y1="240" x2="660" y2="240" style="fill:none;stroke:#fff;stroke-miterlimit:24"/><line x1="60" y1="300" x2="660" y2="300" style="fill:none;stroke:#fff;stroke-miterlimit:24"/><line x1="60" y1="360" x2="660" y2="360" style="fill:none;stroke:#fff;stroke-miterlimit:24"/><line x1="60" y1="420" x2="660" y2="420" style="fill:none;stroke:#fff;stroke-miterlimit:24"/><line x1="60" y1="480" x2="660" y2="480" style="fill:none;stroke:#fff;stroke-miterlimit:24"/><line x1="60" y1="540" x2="660" y2="540" style="fill:none;stroke:#fff;stroke-miterlimit:24"/><line x1="60" y1="600" x2="660" y2="600" style="fill:none;stroke:#fff;stroke-miterlimit:24"/><line x1="60" y1="660" x2="660" y2="660" style="fill:none;stroke:#fff;stroke-miterlimit:24"/></g><path d="M356.4,685.2a4.411,4.411,0,0,1,3.825-2.026,4.609,4.609,0,0,1,3.2,1.25,5.411,5.411,0,0,1,1.15,1.7,14.294,14.294,0,0,1,.926,5.7,13.044,13.044,0,0,1-1.076,5.925,4.333,4.333,0,0,1-2.049,2.1,4.714,4.714,0,0,1-2.126.525,4.4,4.4,0,0,1-4.2-2.625,13.046,13.046,0,0,1-1.075-5.925,19.438,19.438,0,0,1,.313-3.838A8.365,8.365,0,0,1,356.4,685.2Zm5.626-.3a2.308,2.308,0,0,0-1.776-.8,2.381,2.381,0,0,0-1.8.8,3.008,3.008,0,0,0-.75,1.4,15.455,15.455,0,0,0-.25,2.851q0,.15-.012.975t-.014,1.375q0,2.4.051,3.35a14.127,14.127,0,0,0,.3,2.512,2.829,2.829,0,0,0,.75,1.312,2.212,2.212,0,0,0,1.724.75,2.187,2.187,0,0,0,1.7-.75,2.829,2.829,0,0,0,.75-1.312,14.224,14.224,0,0,0,.3-2.512q.05-.951.049-3.35,0-.55-.012-1.375t-.012-.975a15.638,15.638,0,0,0-.25-2.851A3.026,3.026,0,0,0,362.026,684.9Z" style="fill:#fff"/><path d="M24.732,654.547a4.413,4.413,0,0,1,3.826-2.025,4.609,4.609,0,0,1,3.2,1.25,5.417,5.417,0,0,1,1.15,1.7,14.3,14.3,0,0,1,.926,5.7,13.041,13.041,0,0,1-1.076,5.925,4.335,4.335,0,0,1-2.049,2.1,4.721,4.721,0,0,1-2.125.524,4.406,4.406,0,0,1-4.2-2.625,13.058,13.058,0,0,1-1.074-5.925,19.531,19.531,0,0,1,.312-3.838A8.4,8.4,0,0,1,24.732,654.547Zm5.626-.3a2.3,2.3,0,0,0-1.775-.8,2.379,2.379,0,0,0-1.8.8,3,3,0,0,0-.75,1.4,15.455,15.455,0,0,0-.25,2.851q0,.148-.011.974t-.014,1.375q0,2.4.051,3.351a14.123,14.123,0,0,0,.3,2.511,2.832,2.832,0,0,0,.75,1.313,2.216,2.216,0,0,0,1.725.75,2.185,2.185,0,0,0,1.7-.75,2.832,2.832,0,0,0,.75-1.313,14.2,14.2,0,0,0,.3-2.511q.05-.951.049-3.351,0-.549-.012-1.375t-.012-.974a15.638,15.638,0,0,0-.25-2.851A3.016,3.016,0,0,0,30.358,654.248Z" style="fill:#fff"/><path d="M32.733,609q-.427-.075-3.976-.076-3.5,0-3.924.076h-.3v-1.151h.65a14.162,14.162,0,0,0,1.875-.074,1.613,1.613,0,0,0,.6-.3V594.549a.615.615,0,0,0-.2.076,7.368,7.368,0,0,1-2.576.474h-.474V593.95h.474a6.97,6.97,0,0,0,3.5-.95,3.428,3.428,0,0,0,.775-.576c.033-.049.133-.075.3-.075a.627.627,0,0,1,.424.151v7.474l.025,7.5a2.419,2.419,0,0,0,1.625.375h1.475V609Z" style="fill:#fff"/><path d="M25.083,536.275a1.4,1.4,0,0,1-1.1-.45,1.6,1.6,0,0,1-.4-1.1,4.1,4.1,0,0,1,1.362-3.087,4.584,4.584,0,0,1,3.263-1.288,5.421,5.421,0,0,1,3.563,1.163,4.881,4.881,0,0,1,1.736,3.037,7.635,7.635,0,0,1,.051.826,4.72,4.72,0,0,1-.875,2.724,16.607,16.607,0,0,1-2.825,2.875q-.9.777-2.5,2.3l-1.476,1.4,1.9.026a30.106,30.106,0,0,0,4.176-.125c.066-.017.15-.192.25-.526a15.689,15.689,0,0,0,.35-1.7v-.074h1v.074l-.7,4.575V547H23.583v-.475a1.7,1.7,0,0,1,.049-.575q.025-.026,2.1-2.375,2.726-3.026,3.5-4a7.251,7.251,0,0,0,1.674-4.175,4.376,4.376,0,0,0-.861-2.763,2.884,2.884,0,0,0-2.414-1.112,2.744,2.744,0,0,0-2.35,1.3c-.033.066-.083.158-.15.274a.567.567,0,0,0-.074.151c0,.016.041.025.125.025a1.268,1.268,0,0,1,1.011.449,1.557,1.557,0,0,1,.389,1.051,1.5,1.5,0,0,1-.412,1.062A1.43,1.43,0,0,1,25.083,536.275Z" style="fill:#fff"/><path d="M25.507,474.424A1.366,1.366,0,0,1,24.445,474a1.573,1.573,0,0,1-.387-1.1,3.02,3.02,0,0,1,1.125-2.388,4.789,4.789,0,0,1,2.6-1.137h.375q.876,0,1.1.025a6.077,6.077,0,0,1,1.676.524,3.724,3.724,0,0,1,2.074,2.351,2.388,2.388,0,0,1,.076.675,4.165,4.165,0,0,1-.912,2.637,5.05,5.05,0,0,1-2.289,1.663q-.123.05,0,.075a1.674,1.674,0,0,0,.25.075,5.329,5.329,0,0,1,2.576,1.587,3.832,3.832,0,0,1,1.049,2.638,4.355,4.355,0,0,1-.475,1.974,4.946,4.946,0,0,1-1.963,2.113,5.684,5.684,0,0,1-3.037.837,5.973,5.973,0,0,1-2.924-.7,3.6,3.6,0,0,1-1.726-1.875,2.824,2.824,0,0,1-.25-1.224,1.5,1.5,0,0,1,.463-1.138,1.662,1.662,0,0,1,2.263.013,1.527,1.527,0,0,1,.45,1.125,1.611,1.611,0,0,1-.325,1,1.474,1.474,0,0,1-.875.549l-.175.05a4.7,4.7,0,0,0,3.1,1.125,2.232,2.232,0,0,0,2.076-1.324,5.74,5.74,0,0,0,.424-2.525v-.5a3.2,3.2,0,0,0-1.6-3.175,5.214,5.214,0,0,0-1.526-.175l-1.049-.025-.076-.05a.946.946,0,0,1-.049-.4.587.587,0,0,1,.075-.375.208.208,0,0,1,.125-.075,8.741,8.741,0,0,0,1.449-.125,2.163,2.163,0,0,0,1.676-1.237,5.538,5.538,0,0,0,.574-2.612,2.375,2.375,0,0,0-.875-2.175,2.062,2.062,0,0,0-1.174-.351,3.707,3.707,0,0,0-2.2.676,1.054,1.054,0,0,0-.225.162,1.452,1.452,0,0,0-.2.213l-.076.1c.051.016.109.033.176.049a1.2,1.2,0,0,1,.838.476,1.528,1.528,0,0,1,.337.975,1.373,1.373,0,0,1-.414,1.012A1.434,1.434,0,0,1,25.507,474.424Z" style="fill:#fff"/><path d="M33.882,426q-.349-.075-3.225-.076-3,0-3.349.076h-.225v-1.151h.775a5.156,5.156,0,0,0,1.325-.125.451.451,0,0,0,.3-.25q.024-.05.024-1.349v-1.25H23.033v-1.151l3.775-5.774q3.825-5.8,3.875-5.825a1.3,1.3,0,0,1,.525-.05h.449l.151.149v11.5h2.3v1.151h-2.3v1.275q0,1.026.011,1.2a.467.467,0,0,0,.139.3,3.162,3.162,0,0,0,1.424.2h.726V426Zm-4.225-5.276v-8.349L24.183,420.7l2.724.024Z" style="fill:#fff"/><path d="M25.007,363.311a1.381,1.381,0,0,1,1.014.412,1.408,1.408,0,0,1,.412,1.037,1.292,1.292,0,0,1-.426.976,1.354,1.354,0,0,1-.949.4h-.176l.076.125a3.237,3.237,0,0,0,1.15,1.325,3.167,3.167,0,0,0,1.825.526,2.656,2.656,0,0,0,2.55-1.5,7.618,7.618,0,0,0,.475-3.2,6.211,6.211,0,0,0-.676-3.475,1.965,1.965,0,0,0-1.6-.825,3.217,3.217,0,0,0-2.95,1.7.5.5,0,0,1-.187.212,1.111,1.111,0,0,1-.363.038c-.284,0-.442-.051-.475-.15q-.051-.1-.05-4.375,0-.75-.013-1.776t-.013-1.3q0-1.4.151-1.4a.145.145,0,0,1,.1-.051l.451.151a8.877,8.877,0,0,0,3.324.65,8.5,8.5,0,0,0,3.4-.7.774.774,0,0,1,.324-.1c.135,0,.2.151.2.45v.326a6.392,6.392,0,0,1-5.125,2.424,6,6,0,0,1-1.4-.149l-.25-.051v4.3a4.286,4.286,0,0,1,3.949-1.025,4.734,4.734,0,0,1,2.738,1.9,5.741,5.741,0,0,1,1.063,3.449,5.47,5.47,0,0,1-1.588,3.926,5.214,5.214,0,0,1-3.912,1.649,4.167,4.167,0,0,1-2.676-.875,2.768,2.768,0,0,1-.824-.825,4.43,4.43,0,0,1-.951-2.224c0-.05,0-.129-.012-.238s-.012-.187-.012-.237a1.491,1.491,0,0,1,.4-1.1A1.391,1.391,0,0,1,25.007,363.311Z" style="fill:#fff"/><path d="M31.657,290.975a2.367,2.367,0,0,0-1.549-.625,3.578,3.578,0,0,0-2.925,1.5,8.683,8.683,0,0,0-1.176,5.051l.025.1.2-.325a3.2,3.2,0,0,1,2.774-1.5,4.176,4.176,0,0,1,2.025.476,5.133,5.133,0,0,1,1.2,1.012,6.342,6.342,0,0,1,.975,1.413,6.715,6.715,0,0,1,.525,2.674v.451a4.5,4.5,0,0,1-.125,1.075,5.623,5.623,0,0,1-1.55,2.774,4.6,4.6,0,0,1-2.4,1.4,4.232,4.232,0,0,1-1,.1,4.276,4.276,0,0,1-.849-.075,4.424,4.424,0,0,1-2.951-2,11.671,11.671,0,0,1-1.475-6.3,11,11,0,0,1,.951-4.724,7.476,7.476,0,0,1,2.65-3.151,4.98,4.98,0,0,1,2.924-.95,3.43,3.43,0,0,1,2.338.775,2.674,2.674,0,0,1,.887,2.125,1.383,1.383,0,0,1-.361,1,1.28,1.28,0,0,1-.963.375,1.328,1.328,0,0,1-.963-.349,1.293,1.293,0,0,1-.362-.976A1.236,1.236,0,0,1,31.657,290.975Zm-1.1,6a2.181,2.181,0,0,0-1.8-.9,2.031,2.031,0,0,0-1.5.575,5.413,5.413,0,0,0-1.225,3.949,10.534,10.534,0,0,0,.3,3.075,2.869,2.869,0,0,0,.85,1.276,2.1,2.1,0,0,0,1.425.524,2.245,2.245,0,0,0,1.95-.949,2.76,2.76,0,0,0,.474-1.25,16.474,16.474,0,0,0,.1-2.1v-.8a17,17,0,0,0-.1-2.15A2.765,2.765,0,0,0,30.558,296.975Z" style="fill:#fff"/><path d="M23.708,234.55q.024-.05.424-2.724l.4-2.675c0-.033.166-.051.5-.051h.5v.1q0,.251.375.424a3.89,3.89,0,0,0,1.313.225q.938.051,4.213.051h3.025v.974l-1.7,2.326q-.375.524-.85,1.162c-.316.425-.558.755-.724.987s-.268.375-.3.426a11.56,11.56,0,0,0-1.549,5.425q-.1,1.024-.125,2.8c0,.234,0,.471-.014.713s-.011.438-.011.587v.226a1.27,1.27,0,0,1-.489.724,1.33,1.33,0,0,1-.836.3,1.214,1.214,0,0,1-.962-.412A1.658,1.658,0,0,1,26.532,245q0-.375.1-1.424a17.468,17.468,0,0,1,2.326-6.776q.5-.8,2.1-3.024l1.15-1.575H29.882a29.45,29.45,0,0,0-4.574.149c-.067.034-.159.217-.275.551a8.294,8.294,0,0,0-.25,1.175,3.062,3.062,0,0,1-.075.474v.075h-1Z" style="fill:#fff"/><path d="M26.632,177.625a7.424,7.424,0,0,1-1.887-1.674,4.3,4.3,0,0,1-.263-4.1,4.454,4.454,0,0,1,1.613-1.812,4.392,4.392,0,0,1,2.437-.688,4.973,4.973,0,0,1,2.951.888,3.688,3.688,0,0,1,1.549,2.288,4.222,4.222,0,0,1,.026.6,3.651,3.651,0,0,1-.051.75,4.672,4.672,0,0,1-2.274,2.85l-.3.2q1.4.951,1.449,1a4.6,4.6,0,0,1,1.875,3.726,4.646,4.646,0,0,1-1.486,3.462,5.137,5.137,0,0,1-3.713,1.437,5,5,0,0,1-4.525-2.25,3.713,3.713,0,0,1-.625-2.175Q23.408,179.4,26.632,177.625Zm-1.625,4.451a3.128,3.128,0,0,0,1.076,2.437,3.629,3.629,0,0,0,2.5.962,4.038,4.038,0,0,0,1.861-.425,3.1,3.1,0,0,0,1.264-1.1,2.475,2.475,0,0,0,.424-1.375,2.542,2.542,0,0,0-.875-1.9q-.2-.2-2.074-1.425l-.762-.487c-.275-.175-.488-.312-.639-.413l-.2-.125-.3.15a4.862,4.862,0,0,0-2.074,2.5A4.092,4.092,0,0,0,25.007,182.076Zm6.6-8.9a2.577,2.577,0,0,0-.7-1.825,3.1,3.1,0,0,0-1.7-.949,7.766,7.766,0,0,0-.826-.026,3.02,3.02,0,0,0-2.225.9,1.807,1.807,0,0,0-.625,1.375,1.963,1.963,0,0,0,.9,1.7q.126.126,1.6,1.051l1.451.949c.016-.016.125-.087.325-.212a2.575,2.575,0,0,0,.449-.338A3.246,3.246,0,0,0,31.608,173.175Z" style="fill:#fff"/><path d="M26.657,123.6a1.425,1.425,0,0,1-.261.875,1.07,1.07,0,0,1-.688.426l-.1.024c0,.017.057.063.174.138a1.049,1.049,0,0,0,.276.138,3.563,3.563,0,0,0,1.425.25,2.774,2.774,0,0,0,.649-.05,3.417,3.417,0,0,0,2.025-1.551q.976-1.4.975-4.85v-.174l-.125.2a3.2,3.2,0,0,1-2.875,1.7,4.237,4.237,0,0,1-3.4-1.725,5.423,5.423,0,0,1-1.35-3.9,6.194,6.194,0,0,1,.388-2.375,6.016,6.016,0,0,1,1.337-1.875,4.953,4.953,0,0,1,3.1-1.475l.074-.025h.125c.033,0,.088.005.162.013a1.624,1.624,0,0,0,.188.012,3.521,3.521,0,0,1,.726.05A4.731,4.731,0,0,1,32.657,112a12.787,12.787,0,0,1,1.076,5.651,11.057,11.057,0,0,1-1.5,5.925,6.838,6.838,0,0,1-2.113,2.187,4.745,4.745,0,0,1-2.588.787A4.065,4.065,0,0,1,25,125.813a2.528,2.528,0,0,1-.962-2.138q0-1.4,1.325-1.4a1.224,1.224,0,0,1,1.3,1.324Zm2.526-13.175a3.806,3.806,0,0,0-.7-.05,2.214,2.214,0,0,0-1.625.675,2.652,2.652,0,0,0-.687,1.313,14.227,14.227,0,0,0-.164,2.612,23.147,23.147,0,0,0,.125,2.7,2.514,2.514,0,0,0,.738,1.538,2.165,2.165,0,0,0,1.563.587h.1a2.3,2.3,0,0,0,1.963-1.412,7.267,7.267,0,0,0,.613-3.138,13.687,13.687,0,0,0-.2-2.8,2.692,2.692,0,0,0-.611-1.3A2.106,2.106,0,0,0,29.183,110.425Z" style="fill:#fff"/><path d="M27.733,69.313q-.427-.075-3.976-.076-3.5,0-3.924.076h-.3V68.162h.65a14.162,14.162,0,0,0,1.875-.074,1.613,1.613,0,0,0,.6-.3V54.862a.615.615,0,0,0-.2.076,7.391,7.391,0,0,1-2.576.474h-.474V54.263h.474a6.98,6.98,0,0,0,3.5-.95,3.458,3.458,0,0,0,.775-.576c.033-.049.133-.075.3-.075a.627.627,0,0,1,.424.151v7.474l.025,7.5a2.419,2.419,0,0,0,1.625.375h1.475v1.151Z" style="fill:#fff"/><path d="M32.233,54.688a4.411,4.411,0,0,1,3.825-2.026,4.613,4.613,0,0,1,3.2,1.25,5.451,5.451,0,0,1,1.15,1.7,14.319,14.319,0,0,1,.925,5.7,13.041,13.041,0,0,1-1.075,5.924,4.337,4.337,0,0,1-2.05,2.1,4.705,4.705,0,0,1-2.125.524,4.406,4.406,0,0,1-4.2-2.625,13.041,13.041,0,0,1-1.075-5.924,19.517,19.517,0,0,1,.312-3.838A8.388,8.388,0,0,1,32.233,54.688Zm5.625-.3a2.306,2.306,0,0,0-1.775-.8,2.382,2.382,0,0,0-1.8.8,3,3,0,0,0-.75,1.4,15.365,15.365,0,0,0-.25,2.851c0,.1-.005.425-.012.974s-.013,1.009-.013,1.375q0,2.4.05,3.351a14.247,14.247,0,0,0,.3,2.512,2.834,2.834,0,0,0,.75,1.312,2.217,2.217,0,0,0,1.725.75,2.189,2.189,0,0,0,1.7-.75,2.851,2.851,0,0,0,.75-1.312,14.247,14.247,0,0,0,.3-2.512q.05-.951.05-3.351,0-.549-.013-1.375c-.008-.549-.012-.875-.012-.974a15.546,15.546,0,0,0-.25-2.851A3,3,0,0,0,37.858,54.388Z" style="fill:#fff"/><path d="M424.4,699.82q-.428-.075-3.976-.075-3.5,0-3.925.075h-.3v-1.151h.651a14.162,14.162,0,0,0,1.875-.074,1.6,1.6,0,0,0,.6-.3V685.37a.6.6,0,0,0-.2.075,7.346,7.346,0,0,1-2.576.474h-.475V684.77h.475a6.97,6.97,0,0,0,3.5-.95,3.455,3.455,0,0,0,.775-.575c.033-.05.133-.076.3-.076a.627.627,0,0,1,.424.151v7.474l.025,7.5a2.419,2.419,0,0,0,1.625.375h1.475v1.151Z" style="fill:#fff"/><path d="M287.275,695.345V693.52h6.649v1.825Z" style="fill:#fff"/><path d="M305.725,699.82q-.426-.075-3.975-.075-3.5,0-3.925.075h-.3v-1.151h.649a14.141,14.141,0,0,0,1.875-.074,1.6,1.6,0,0,0,.6-.3V685.37a.591.591,0,0,0-.2.075,7.34,7.34,0,0,1-2.575.474H297.4V684.77h.475a6.97,6.97,0,0,0,3.5-.95,3.5,3.5,0,0,0,.775-.575c.033-.05.133-.076.3-.076a.633.633,0,0,1,.425.151v7.474l.025,7.5a2.419,2.419,0,0,0,1.625.375H306v1.151Z" style="fill:#fff"/><path d="M229.275,695.345V693.52h6.649v1.825Z" style="fill:#fff"/><path d="M240.075,689.1a1.4,1.4,0,0,1-1.1-.45,1.6,1.6,0,0,1-.4-1.1,4.1,4.1,0,0,1,1.362-3.086,4.582,4.582,0,0,1,3.263-1.289,5.414,5.414,0,0,1,3.562,1.164,4.876,4.876,0,0,1,1.738,3.037,7.569,7.569,0,0,1,.049.825,4.718,4.718,0,0,1-.875,2.724,16.483,16.483,0,0,1-2.824,2.875q-.9.777-2.5,2.3l-1.475,1.4,1.9.025a30.085,30.085,0,0,0,4.175-.125c.066-.017.15-.191.25-.525a15.851,15.851,0,0,0,.349-1.7V695.1h1v.074l-.7,4.576v.075h-9.275v-.475a1.662,1.662,0,0,1,.05-.575q.024-.025,2.1-2.375,2.726-3.025,3.5-4a7.253,7.253,0,0,0,1.675-4.175,4.376,4.376,0,0,0-.862-2.762,2.881,2.881,0,0,0-2.413-1.113,2.744,2.744,0,0,0-2.35,1.3c-.034.066-.084.158-.15.274a.571.571,0,0,0-.076.151c0,.016.042.025.125.025a1.276,1.276,0,0,1,1.013.449,1.561,1.561,0,0,1,.388,1.051,1.5,1.5,0,0,1-.412,1.063A1.43,1.43,0,0,1,240.075,689.1Z" style="fill:#fff"/><path d="M164.275,695.345V693.52h6.649v1.825Z" style="fill:#fff"/><path d="M175.5,688.245a1.368,1.368,0,0,1-1.063-.425,1.568,1.568,0,0,1-.388-1.1,3.017,3.017,0,0,1,1.125-2.387,4.785,4.785,0,0,1,2.6-1.138h.375c.583,0,.95.009,1.1.025a6.045,6.045,0,0,1,1.674.525A3.723,3.723,0,0,1,183,686.1a2.47,2.47,0,0,1,.075.675,4.17,4.17,0,0,1-.912,2.638,5.063,5.063,0,0,1-2.288,1.662q-.125.049,0,.075a1.52,1.52,0,0,0,.25.075,5.333,5.333,0,0,1,2.575,1.587,3.83,3.83,0,0,1,1.05,2.638,4.365,4.365,0,0,1-.475,1.974,4.96,4.96,0,0,1-1.963,2.114,5.7,5.7,0,0,1-3.037.837,5.972,5.972,0,0,1-2.925-.7,3.589,3.589,0,0,1-1.725-1.875,2.807,2.807,0,0,1-.25-1.224,1.5,1.5,0,0,1,.462-1.138,1.665,1.665,0,0,1,2.263.013,1.526,1.526,0,0,1,.449,1.125,1.6,1.6,0,0,1-.324,1,1.478,1.478,0,0,1-.875.55l-.176.049a4.707,4.707,0,0,0,3.1,1.125,2.232,2.232,0,0,0,2.075-1.324,5.75,5.75,0,0,0,.425-2.525v-.5a3.2,3.2,0,0,0-1.6-3.175,5.2,5.2,0,0,0-1.524-.175l-1.05-.025-.075-.05a.92.92,0,0,1-.05-.4.6.6,0,0,1,.074-.375.211.211,0,0,1,.125-.076,8.755,8.755,0,0,0,1.451-.125,2.158,2.158,0,0,0,1.674-1.237,5.511,5.511,0,0,0,.576-2.612,2.377,2.377,0,0,0-.875-2.175,2.076,2.076,0,0,0-1.175-.351,3.7,3.7,0,0,0-2.2.676,1.03,1.03,0,0,0-.225.162,1.58,1.58,0,0,0-.2.213l-.075.1c.049.016.108.033.174.05a1.192,1.192,0,0,1,.838.475,1.525,1.525,0,0,1,.338.975,1.38,1.38,0,0,1-.413,1.013A1.439,1.439,0,0,1,175.5,688.245Z" style="fill:#fff"/><path d="M106.275,695.345V693.52h6.649v1.825Z" style="fill:#fff"/><path d="M125.875,699.82q-.351-.075-3.225-.075-3,0-3.351.075h-.224v-1.151h.775a5.139,5.139,0,0,0,1.324-.125.446.446,0,0,0,.3-.25q.024-.049.025-1.349V695.7h-6.475v-1.151l3.774-5.774q3.826-5.8,3.875-5.825a1.332,1.332,0,0,1,.526-.05h.45l.149.149v11.5h2.3V695.7h-2.3v1.275q0,1.026.013,1.2a.459.459,0,0,0,.138.3,3.168,3.168,0,0,0,1.425.2h.725v1.151Zm-4.225-5.276V686.2l-5.476,8.325,2.726.024Z" style="fill:#fff"/><path d="M44.117,695.345V693.52h6.649v1.825Z" style="fill:#fff"/><path d="M54.841,694.47a1.376,1.376,0,0,1,1.013.412,1.408,1.408,0,0,1,.412,1.037,1.288,1.288,0,0,1-.425.976,1.349,1.349,0,0,1-.95.4h-.175l.076.125a3.233,3.233,0,0,0,1.15,1.326,3.173,3.173,0,0,0,1.824.525,2.658,2.658,0,0,0,2.551-1.5,7.634,7.634,0,0,0,.475-3.2,6.222,6.222,0,0,0-.675-3.475,1.967,1.967,0,0,0-1.6-.825,3.217,3.217,0,0,0-2.949,1.7.484.484,0,0,1-.188.212,1.075,1.075,0,0,1-.363.038c-.283,0-.441-.051-.474-.15q-.051-.1-.05-4.375,0-.75-.013-1.776c-.009-.682-.013-1.116-.013-1.3q0-1.4.151-1.4a.145.145,0,0,1,.1-.051l.451.151a8.882,8.882,0,0,0,3.325.65,8.5,8.5,0,0,0,3.4-.7.8.8,0,0,1,.325-.1c.134,0,.2.151.2.451v.325a6.392,6.392,0,0,1-5.125,2.425,6.019,6.019,0,0,1-1.4-.15l-.25-.051v4.3a4.288,4.288,0,0,1,3.95-1.025,4.731,4.731,0,0,1,2.738,1.9,5.742,5.742,0,0,1,1.062,3.449A5.468,5.468,0,0,1,61.8,698.72a5.214,5.214,0,0,1-3.913,1.65,4.166,4.166,0,0,1-2.675-.875,2.8,2.8,0,0,1-.825-.826,4.415,4.415,0,0,1-.949-2.224c0-.05-.005-.129-.013-.237s-.012-.188-.012-.238a1.48,1.48,0,0,1,.4-1.1A1.383,1.383,0,0,1,54.841,694.47Z" style="fill:#fff"/><path d="M477.628,689.1a1.4,1.4,0,0,1-1.1-.45,1.6,1.6,0,0,1-.4-1.1,4.1,4.1,0,0,1,1.362-3.086,4.579,4.579,0,0,1,3.263-1.289,5.412,5.412,0,0,1,3.562,1.164,4.875,4.875,0,0,1,1.737,3.037,7.6,7.6,0,0,1,.051.825,4.718,4.718,0,0,1-.875,2.724,16.536,16.536,0,0,1-2.825,2.875q-.9.777-2.5,2.3l-1.476,1.4,1.9.025a30.106,30.106,0,0,0,4.176-.125c.066-.017.15-.191.25-.525a15.733,15.733,0,0,0,.35-1.7V695.1h1v.074l-.7,4.576v.075h-9.275v-.475a1.69,1.69,0,0,1,.05-.575q.024-.025,2.1-2.375,2.726-3.025,3.5-4a7.251,7.251,0,0,0,1.674-4.175,4.375,4.375,0,0,0-.861-2.762,2.883,2.883,0,0,0-2.414-1.113,2.744,2.744,0,0,0-2.35,1.3c-.033.066-.083.158-.149.274a.552.552,0,0,0-.075.151c0,.016.042.025.125.025a1.272,1.272,0,0,1,1.011.449,1.557,1.557,0,0,1,.389,1.051,1.5,1.5,0,0,1-.412,1.063A1.431,1.431,0,0,1,477.628,689.1Z" style="fill:#fff"/><path d="M538.174,688.245a1.367,1.367,0,0,1-1.062-.425,1.572,1.572,0,0,1-.387-1.1,3.017,3.017,0,0,1,1.125-2.387,4.783,4.783,0,0,1,2.6-1.138h.375c.584,0,.951.009,1.1.025a6.046,6.046,0,0,1,1.676.525,3.722,3.722,0,0,1,2.074,2.35,2.388,2.388,0,0,1,.076.675,4.17,4.17,0,0,1-.912,2.638,5.055,5.055,0,0,1-2.289,1.662q-.123.049,0,.075a1.556,1.556,0,0,0,.25.075,5.336,5.336,0,0,1,2.576,1.587,3.834,3.834,0,0,1,1.049,2.638,4.352,4.352,0,0,1-.475,1.974,4.954,4.954,0,0,1-1.963,2.114,5.693,5.693,0,0,1-3.037.837,5.974,5.974,0,0,1-2.924-.7,3.593,3.593,0,0,1-1.725-1.875,2.807,2.807,0,0,1-.25-1.224,1.494,1.494,0,0,1,.463-1.138,1.664,1.664,0,0,1,2.262.013,1.53,1.53,0,0,1,.45,1.125,1.607,1.607,0,0,1-.325,1,1.475,1.475,0,0,1-.875.55l-.175.049a4.7,4.7,0,0,0,3.1,1.125,2.232,2.232,0,0,0,2.076-1.324,5.737,5.737,0,0,0,.424-2.525v-.5a3.2,3.2,0,0,0-1.6-3.175,5.214,5.214,0,0,0-1.526-.175l-1.049-.025-.076-.05a.943.943,0,0,1-.049-.4.583.583,0,0,1,.075-.375.206.206,0,0,1,.125-.076,8.741,8.741,0,0,0,1.449-.125,2.161,2.161,0,0,0,1.676-1.237,5.535,5.535,0,0,0,.574-2.612,2.375,2.375,0,0,0-.875-2.175,2.07,2.07,0,0,0-1.174-.351,3.707,3.707,0,0,0-2.2.676,1.054,1.054,0,0,0-.225.162,1.5,1.5,0,0,0-.2.213l-.076.1c.051.016.109.033.176.05a1.19,1.19,0,0,1,.837.475,1.525,1.525,0,0,1,.338.975,1.377,1.377,0,0,1-.414,1.013A1.438,1.438,0,0,1,538.174,688.245Z" style="fill:#fff"/><path d="M605.549,699.82q-.349-.075-3.225-.075-3,0-3.349.075h-.225v-1.151h.775a5.156,5.156,0,0,0,1.325-.125.451.451,0,0,0,.3-.25q.024-.049.024-1.349V695.7H594.7v-1.151l3.775-5.774q3.825-5.8,3.875-5.825a1.325,1.325,0,0,1,.525-.05h.449l.151.149v11.5h2.3V695.7h-2.3v1.275q0,1.026.011,1.2a.465.465,0,0,0,.139.3,3.162,3.162,0,0,0,1.424.2h.726v1.151Zm-4.225-5.276V686.2l-5.474,8.325,2.724.024Z" style="fill:#fff"/><path d="M656.675,694.47a1.38,1.38,0,0,1,1.013.412,1.408,1.408,0,0,1,.412,1.037,1.292,1.292,0,0,1-.426.976,1.35,1.35,0,0,1-.949.4h-.175l.075.125a3.24,3.24,0,0,0,1.15,1.326,3.174,3.174,0,0,0,1.825.525,2.656,2.656,0,0,0,2.55-1.5,7.618,7.618,0,0,0,.475-3.2,6.211,6.211,0,0,0-.676-3.475,1.965,1.965,0,0,0-1.6-.825,3.217,3.217,0,0,0-2.95,1.7.5.5,0,0,1-.187.212,1.083,1.083,0,0,1-.363.038c-.284,0-.442-.051-.475-.15q-.051-.1-.05-4.375,0-.75-.013-1.776c-.008-.682-.012-1.116-.012-1.3q0-1.4.15-1.4a.147.147,0,0,1,.1-.051l.45.151a8.877,8.877,0,0,0,3.324.65,8.5,8.5,0,0,0,3.4-.7.789.789,0,0,1,.324-.1c.135,0,.2.151.2.451v.325a6.392,6.392,0,0,1-5.125,2.425,6,6,0,0,1-1.4-.15l-.25-.051v4.3a4.286,4.286,0,0,1,3.949-1.025,4.734,4.734,0,0,1,2.738,1.9,5.743,5.743,0,0,1,1.063,3.449,5.469,5.469,0,0,1-1.588,3.926,5.215,5.215,0,0,1-3.912,1.65,4.167,4.167,0,0,1-2.676-.875,2.783,2.783,0,0,1-.824-.826,4.426,4.426,0,0,1-.951-2.224c0-.05,0-.129-.011-.237s-.013-.188-.013-.238a1.487,1.487,0,0,1,.4-1.1A1.389,1.389,0,0,1,656.675,694.47Z" style="fill:#fff"/><g style="opacity:0.8"><line x1="360" y1="660" x2="360" y2="66.035" style="fill:none;stroke:#fff;stroke-miterlimit:10"/><path d="M360,60a30.231,30.231,0,0,0,4.756,8.547L360,66.827l-4.755,1.72A30.2,30.2,0,0,0,360,60Z" style="fill:#fff"/></g><g style="opacity:0.8"><line x1="66.035" y1="660" x2="653.965" y2="660" style="fill:none;stroke:#fff;stroke-miterlimit:10"/><path d="M60,660a30.231,30.231,0,0,1,8.547,4.756L66.827,660l1.72-4.755A30.2,30.2,0,0,1,60,660Z" style="fill:#fff"/><path d="M660,660a30.231,30.231,0,0,0-8.547,4.756l1.72-4.756-1.72-4.755A30.2,30.2,0,0,0,660,660Z" style="fill:#fff"/></g><path d="M69.049,657.914c35.627-.864,71.261-2.162,106.784-5.062,35.626-2.994,71.327-7.507,105.834-17.126,46.557-12.828,86.864-35.656,119.166-71.892,56.143-62.761,86.215-156.374,107.5-236.773C530.228,242.184,545.227,155.632,558,68.954" style="fill:none;stroke:#58c4dd;stroke-miterlimit:24;stroke-width:1.5px"/><path d="M60,658.125c4.306,1.449,9.672,3.982,13.034,6.736l-2.8-7.051L72.6,650.6C69.409,653.558,64.209,656.416,60,658.125Z" style="fill:#58c4dd"/><path d="M559.315,60c.918,4.45,2.783,10.082,5.111,13.753l-6.661-3.63-7.441,1.471C553.644,68.788,557.109,63.972,559.315,60Z" style="fill:#58c4dd"/><path d="M524.95,40.776c.449.1.692.15.725.15q.575,0,1-1.05.3-.825,1.825-8.9.7-3.776.725-3.8V27.1H528.05a6.785,6.785,0,0,1-1.25-.05c-.117-.066-.134-.25-.05-.55a2.118,2.118,0,0,1,.125-.4.226.226,0,0,1,.212-.138c.108-.007.5-.012,1.163-.012a10.717,10.717,0,0,0,1.2-.025c0-.033.074-.45.225-1.25s.25-1.283.3-1.45a6.1,6.1,0,0,1,1.575-3.3,3.228,3.228,0,0,1,2.075-.825,2.557,2.557,0,0,1,1.513.55,1.627,1.627,0,0,1,.612,1.325,1.765,1.765,0,0,1-.45,1.225,1.448,1.448,0,0,1-1.125.5q-1.1,0-1.1-1.05a1.411,1.411,0,0,1,.875-1.35l.225-.125a2.468,2.468,0,0,0-.75-.15q-.726,0-.95.95-.2.75-.65,3.275L531.5,25.9a7.064,7.064,0,0,0,1.375.05q1.125,0,1.35.025c.15.017.225.075.225.175a2.75,2.75,0,0,1-.176.8.24.24,0,0,1-.237.137q-.187.014-1.337.013h-1.4l-.575,3.05q-.926,4.775-1.15,5.775-.851,3.774-2.275,5.125a2.821,2.821,0,0,1-1.825.8,2.266,2.266,0,0,1-1.5-.5,1.638,1.638,0,0,1-.6-1.325,1.838,1.838,0,0,1,.45-1.262,1.435,1.435,0,0,1,1.125-.513q1.1,0,1.1,1.05a1.412,1.412,0,0,1-.875,1.35Z" style="fill:#58c4dd"/><path d="M542.575,42.751q0,.225-.45.225H541.8l-.7-.6q-4.5-4.1-4.5-11.9a20.134,20.134,0,0,1,.725-5.575,13.481,13.481,0,0,1,3.775-6.325c.116-.1.25-.212.4-.337s.25-.213.3-.263h.325a.593.593,0,0,1,.375.075.216.216,0,0,1,.075.15q0,.1-.275.375-3.876,4.1-3.875,11.9t3.875,11.9Q542.575,42.65,542.575,42.751Z" style="fill:#58c4dd"/><path d="M545.425,29.776a.415.415,0,0,1-.151-.275,4.77,4.77,0,0,1,.776-1.725A4.286,4.286,0,0,1,549,25.726a4.126,4.126,0,0,1,.525-.05,3.039,3.039,0,0,1,1.613.45,2.693,2.693,0,0,1,1.062,1.125q.326-.425.4-.525a2.769,2.769,0,0,1,2.125-1.05,2.356,2.356,0,0,1,1.662.588,1.879,1.879,0,0,1,.637,1.437,1.965,1.965,0,0,1-.437,1.3,1.439,1.439,0,0,1-1.162.525,1.1,1.1,0,0,1-.776-.275.936.936,0,0,1-.3-.725,1.59,1.59,0,0,1,1.25-1.575,1.025,1.025,0,0,0-.276-.175,1.424,1.424,0,0,0-.724-.15,1.656,1.656,0,0,0-.476.05,2.616,2.616,0,0,0-1.4,1.65q-.075.2-.726,2.788t-.7,2.912a3.741,3.741,0,0,0-.075.75,1.284,1.284,0,0,0,.349.95,1.253,1.253,0,0,0,.925.35,2.579,2.579,0,0,0,1.9-.888,4.6,4.6,0,0,0,1.151-1.962c.05-.166.1-.263.149-.288a1.258,1.258,0,0,1,.4-.037q.474,0,.474.2c0,.017-.016.108-.05.275a5.434,5.434,0,0,1-1.75,2.7A3.939,3.939,0,0,1,552.3,37a2.882,2.882,0,0,1-2.651-1.575,3.5,3.5,0,0,1-1.849,1.5,3.233,3.233,0,0,1-.651.05,2.177,2.177,0,0,1-2.049-1.025,1.933,1.933,0,0,1-.25-1,1.887,1.887,0,0,1,.45-1.275,1.445,1.445,0,0,1,1.149-.525.939.939,0,0,1,1.075,1.05,1.411,1.411,0,0,1-.875,1.35l-.125.063-.125.062a.183.183,0,0,1-.075.025l-.075.025q0,.075.375.225a1.662,1.662,0,0,0,.65.125,1.845,1.845,0,0,0,1.55-1.125,18.8,18.8,0,0,0,.976-3.25c.1-.383.208-.808.324-1.275s.2-.825.263-1.075.1-.4.112-.45a6.018,6.018,0,0,0,.125-.975,1.343,1.343,0,0,0-.324-.95,1.172,1.172,0,0,0-.9-.35,2.611,2.611,0,0,0-1.95.863,4.726,4.726,0,0,0-1.149,1.987c-.034.15-.071.237-.113.263a1.21,1.21,0,0,1-.413.037Z" style="fill:#58c4dd"/><path d="M559.774,18l.1-.025h.55l.7.6q4.5,4.1,4.5,11.9a19.7,19.7,0,0,1-.725,5.55,13.481,13.481,0,0,1-3.775,6.35c-.116.1-.25.212-.4.337s-.25.213-.3.263h-.3a.948.948,0,0,1-.388-.05c-.058-.033-.087-.117-.087-.25.017-.017.109-.125.275-.325q3.876-4.026,3.875-11.875T559.924,18.6q-.249-.3-.275-.325A.293.293,0,0,1,559.774,18Z" style="fill:#58c4dd"/><path d="M575.648,28.051a.546.546,0,0,1,.351-.5h15.925a.547.547,0,0,1,.375.5.565.565,0,0,1-.35.475l-7.95.025h-7.95A.5.5,0,0,1,575.648,28.051Zm0,4.85a.5.5,0,0,1,.4-.5h15.9a1.053,1.053,0,0,0,.113.088,1.127,1.127,0,0,1,.125.1.448.448,0,0,1,.075.125.492.492,0,0,1,.037.188.546.546,0,0,1-.375.5H576A.545.545,0,0,1,575.648,32.9Z" style="fill:#58c4dd"/><path d="M602.7,26a1.391,1.391,0,0,1-1.1-.45,1.59,1.59,0,0,1-.4-1.1,4.1,4.1,0,0,1,1.363-3.087,4.581,4.581,0,0,1,3.262-1.288,5.416,5.416,0,0,1,3.563,1.163,4.882,4.882,0,0,1,1.737,3.037,7.6,7.6,0,0,1,.05.825,4.723,4.723,0,0,1-.875,2.725,16.591,16.591,0,0,1-2.824,2.875q-.9.776-2.5,2.3L603.5,34.4l1.9.025a29.883,29.883,0,0,0,4.175-.125c.067-.016.151-.191.25-.525a15.484,15.484,0,0,0,.35-1.7V32h1v.075l-.7,4.575v.075H601.2v-.475a1.694,1.694,0,0,1,.05-.575q.025-.024,2.1-2.375,2.724-3.024,3.5-4a7.248,7.248,0,0,0,1.674-4.175,4.376,4.376,0,0,0-.862-2.762,2.879,2.879,0,0,0-2.413-1.113,2.744,2.744,0,0,0-2.35,1.3c-.034.067-.084.158-.15.275a.553.553,0,0,0-.075.15c0,.017.042.025.125.025a1.274,1.274,0,0,1,1.013.45,1.561,1.561,0,0,1,.387,1.05,1.489,1.489,0,0,1-.412,1.062A1.425,1.425,0,0,1,602.7,26Z" style="fill:#58c4dd"/><path d="M614.795,24.349a.241.241,0,0,1-.088-.161,2.766,2.766,0,0,1,.452-1,2.5,2.5,0,0,1,1.72-1.2,2.45,2.45,0,0,1,.306-.029,1.773,1.773,0,0,1,.94.262,1.571,1.571,0,0,1,.619.656l.234-.306a1.614,1.614,0,0,1,1.239-.612,1.375,1.375,0,0,1,.969.342,1.1,1.1,0,0,1,.372.838,1.145,1.145,0,0,1-.255.758.841.841,0,0,1-.678.306.639.639,0,0,1-.452-.16A.546.546,0,0,1,620,23.62a.925.925,0,0,1,.729-.918.578.578,0,0,0-.161-.1.833.833,0,0,0-.422-.087.946.946,0,0,0-.278.029,1.524,1.524,0,0,0-.815.962q-.045.117-.423,1.625t-.408,1.7a2.16,2.16,0,0,0-.044.437.749.749,0,0,0,.2.554.728.728,0,0,0,.539.2,1.5,1.5,0,0,0,1.108-.518,2.678,2.678,0,0,0,.67-1.144c.03-.1.059-.152.088-.167a.7.7,0,0,1,.234-.022c.183,0,.276.039.276.117,0,.009-.01.063-.029.16a3.171,3.171,0,0,1-1.02,1.574,2.3,2.3,0,0,1-1.443.539,1.678,1.678,0,0,1-1.545-.918,2.046,2.046,0,0,1-1.079.875,1.9,1.9,0,0,1-.379.028,1.268,1.268,0,0,1-1.195-.6,1.129,1.129,0,0,1-.146-.583,1.1,1.1,0,0,1,.263-.743.839.839,0,0,1,.671-.306.547.547,0,0,1,.626.612.822.822,0,0,1-.51.787l-.073.036-.073.037a.119.119,0,0,1-.044.014l-.044.015c0,.029.074.073.219.131a.966.966,0,0,0,.379.073,1.075,1.075,0,0,0,.9-.656,10.853,10.853,0,0,0,.569-1.895c.058-.223.122-.471.19-.743s.118-.481.153-.627.055-.233.065-.262a3.509,3.509,0,0,0,.073-.568.782.782,0,0,0-.189-.554.682.682,0,0,0-.525-.2,1.517,1.517,0,0,0-1.136.5,2.746,2.746,0,0,0-.671,1.158c-.02.088-.041.139-.066.153a.685.685,0,0,1-.24.022Z" style="fill:#58c4dd"/><path d="M686.751,658.527a.409.409,0,0,1-.15-.274,4.757,4.757,0,0,1,.775-1.726,4.288,4.288,0,0,1,2.95-2.049,3.946,3.946,0,0,1,.525-.05,3.026,3.026,0,0,1,1.612.45A2.68,2.68,0,0,1,693.525,656c.217-.283.351-.459.4-.525a2.766,2.766,0,0,1,2.125-1.05,2.358,2.358,0,0,1,1.662.587,1.878,1.878,0,0,1,.638,1.437,1.963,1.963,0,0,1-.438,1.3,1.436,1.436,0,0,1-1.162.524,1.1,1.1,0,0,1-.775-.274.937.937,0,0,1-.3-.726,1.59,1.59,0,0,1,1.25-1.575,1.088,1.088,0,0,0-.276-.175,1.433,1.433,0,0,0-.724-.149,1.643,1.643,0,0,0-.475.05,2.613,2.613,0,0,0-1.4,1.649q-.075.2-.725,2.788t-.7,2.912a3.816,3.816,0,0,0-.075.75,1.286,1.286,0,0,0,.349.951,1.253,1.253,0,0,0,.926.349,2.581,2.581,0,0,0,1.9-.887,4.617,4.617,0,0,0,1.15-1.962c.05-.166.1-.263.149-.288a1.22,1.22,0,0,1,.4-.038c.316,0,.474.068.474.2,0,.016-.016.108-.049.275a5.438,5.438,0,0,1-1.75,2.7,3.945,3.945,0,0,1-2.475.926,2.88,2.88,0,0,1-2.65-1.575,3.5,3.5,0,0,1-1.85,1.5,3.222,3.222,0,0,1-.65.05,2.179,2.179,0,0,1-2.05-1.026,1.931,1.931,0,0,1-.25-1,1.888,1.888,0,0,1,.45-1.274,1.444,1.444,0,0,1,1.149-.526.94.94,0,0,1,1.076,1.05,1.413,1.413,0,0,1-.875,1.351l-.125.062-.125.063a.2.2,0,0,1-.076.024l-.074.026c0,.049.125.125.375.224a1.655,1.655,0,0,0,.65.125,1.844,1.844,0,0,0,1.549-1.125,18.8,18.8,0,0,0,.976-3.25q.15-.575.325-1.274t.262-1.075c.058-.25.1-.4.113-.451a6.127,6.127,0,0,0,.125-.974,1.342,1.342,0,0,0-.325-.95,1.166,1.166,0,0,0-.9-.35,2.614,2.614,0,0,0-1.951.862,4.746,4.746,0,0,0-1.149,1.988c-.034.15-.071.237-.112.262a1.218,1.218,0,0,1-.413.037Z" style="fill:#fff"/><path d="M363.55,25.951a.973.973,0,0,1,.6.187.609.609,0,0,1,.25.513q0,.325-1.225,5.25t-1.4,5.4a6.628,6.628,0,0,1-1.288,2.263,6.718,6.718,0,0,1-2.062,1.637,5.855,5.855,0,0,1-2.525.65,2.69,2.69,0,0,1-2.575-1.2,1.7,1.7,0,0,1-.25-1,1.788,1.788,0,0,1,.475-1.325,1.625,1.625,0,0,1,1.1-.475q1.1,0,1.1,1.05a1.413,1.413,0,0,1-.875,1.35l-.125.063-.125.062a.206.206,0,0,1-.075.025l-.075.025q.075.15.525.325a2.265,2.265,0,0,0,.8.15h.2a3.222,3.222,0,0,0,.65-.05,3.812,3.812,0,0,0,1.8-1.275,6.923,6.923,0,0,0,1.3-2.4,5.444,5.444,0,0,0,.275-.975c0-.016-.017-.012-.05.012l-.15.113a3.4,3.4,0,0,1-2.05.675,3.48,3.48,0,0,1-2.1-.6,2.792,2.792,0,0,1-1.075-1.725,7.1,7.1,0,0,1-.025-.775,6.544,6.544,0,0,1,.05-.925,22.884,22.884,0,0,1,1.15-3.675,7.16,7.16,0,0,0,.55-2.05,1.334,1.334,0,0,0-.062-.488c-.042-.091-.138-.137-.288-.137h-.125a1.554,1.554,0,0,0-1.1.525,5.256,5.256,0,0,0-1.225,2.4.268.268,0,0,1-.025.087.285.285,0,0,1-.037.075l-.038.038a.121.121,0,0,1-.087.025h-.663q-.15-.15-.15-.225a1.86,1.86,0,0,1,.075-.35,5.965,5.965,0,0,1,1.575-2.725,2.578,2.578,0,0,1,1.775-.8,2.379,2.379,0,0,1,1.675.575,2.066,2.066,0,0,1,.625,1.6,3.4,3.4,0,0,1-.075.525,5.659,5.659,0,0,1-.375,1.075,23.815,23.815,0,0,0-1.225,4.075,5.138,5.138,0,0,0-.025.575,2.848,2.848,0,0,0,.3,1.45,1.175,1.175,0,0,0,1.1.5,2.119,2.119,0,0,0,1.087-.3,3.322,3.322,0,0,0,.775-.587q.263-.288.663-.788,0-.024.125-.512t.363-1.463q.237-.975.462-1.85.951-3.75,1.05-3.925A1.109,1.109,0,0,1,363.55,25.951Z" style="fill:#fff"/></svg>