<svg xmlns="http://www.w3.org/2000/svg" width="720" height="120" viewBox="0 0 720 120"><rect width="720" height="120"/><path d="M289.815,69.308a1.069,1.069,0,0,1,.75.275.941.941,0,0,1,.3.725,1.528,1.528,0,0,1-.5,1.15c-.116.117-.159.175-.125.175a8.067,8.067,0,0,0,1.5.075,3.148,3.148,0,0,0,1.5-.3,3.442,3.442,0,0,0,1.075-.838,3.348,3.348,0,0,0,.7-1.162q.151-.477.4-1.55a9.872,9.872,0,0,0,.325-1.4,5,5,0,0,1-2,1.026,3.84,3.84,0,0,1-.625.05,3.141,3.141,0,0,1-2.562-1.138,4.351,4.351,0,0,1-.938-2.862,6.666,6.666,0,0,1,.726-3.026,7.2,7.2,0,0,1,3.3-3.474,5.059,5.059,0,0,1,2.176-.55,2.894,2.894,0,0,1,2.175,1.2.88.88,0,0,0,.1-.125,1.145,1.145,0,0,1,1.048-.574.9.9,0,0,1,.577.2.62.62,0,0,1,.25.5q0,.375-1.426,6.051t-1.5,5.8a4.281,4.281,0,0,1-1.963,2.237,6.383,6.383,0,0,1-3.337.888q-2.876,0-3.4-1.1a1.225,1.225,0,0,1-.125-.6,1.669,1.669,0,0,1,.449-1.15A1.48,1.48,0,0,1,289.815,69.308Zm7.75-9.975a5.949,5.949,0,0,0-.387-1,1.932,1.932,0,0,0-.587-.637,1.628,1.628,0,0,0-.976-.287c-.034,0-.087,0-.163.012s-.121.012-.137.012a3.192,3.192,0,0,0-1.825,1.3,10.145,10.145,0,0,0-1.325,3.375,11.62,11.62,0,0,0-.425,2.5q0,1.974,1.55,1.974a3.608,3.608,0,0,0,2.75-1.75l.2-.25Q297.142,61.084,297.565,59.333Z" style="fill:#58c4dd"/><path d="M308.216,73.558c0,.15-.151.226-.452.226h-.324l-.7-.6q-4.5-4.1-4.5-11.9a20.1,20.1,0,0,1,.726-5.576,13.477,13.477,0,0,1,3.774-6.325c.116-.1.25-.212.4-.337s.25-.213.3-.262h.324c.2,0,.327.024.375.075a.213.213,0,0,1,.077.149q0,.1-.276.375-3.876,4.1-3.875,11.9t3.875,11.9Q308.216,73.459,308.216,73.558Z" style="fill:#58c4dd"/><path d="M319.965,67.784a2.249,2.249,0,0,1-1.6-.588,1.986,1.986,0,0,1-.625-1.513,3.552,3.552,0,0,1,.25-1.1,29.427,29.427,0,0,0,1.5-4.724,4.889,4.889,0,0,0,.076-.95q0-1.476-1.225-1.476a2.983,2.983,0,0,0-.65.051,4.759,4.759,0,0,0-2.951,2.4l-.174.325-.85,3.375q-.8,3.251-.925,3.55a1.129,1.129,0,0,1-1.1.675,1.063,1.063,0,0,1-.588-.187.564.564,0,0,1-.287-.488q0-.3,3.674-15a.447.447,0,0,0-.149-.4,3.7,3.7,0,0,0-1-.125h-.525a.728.728,0,0,1-.163-.2,2.521,2.521,0,0,1,.063-.476c.083-.316.191-.475.325-.475.015,0,.621-.045,1.812-.137s1.8-.138,1.813-.138c.2,0,.3.075.3.226q0,.274-.9,3.774-.952,3.7-.951,3.775c0,.034.059-.007.176-.125a4.708,4.708,0,0,1,3.25-1.349,3.359,3.359,0,0,1,2.2.675,2.4,2.4,0,0,1,.826,1.974,4.882,4.882,0,0,1-.076.95,30.894,30.894,0,0,1-1.375,4.425,6,6,0,0,0-.449,1.776.886.886,0,0,0,.125.474.457.457,0,0,0,.375.125,1.709,1.709,0,0,0,1.312-.762,5.589,5.589,0,0,0,.963-2.038.634.634,0,0,1,.15-.325.925.925,0,0,1,.4-.05c.316.05.484.118.5.2,0,.016-.033.141-.1.375a5.694,5.694,0,0,1-1.275,2.424A2.628,2.628,0,0,1,319.965,67.784Z" style="fill:#83c167"/><path d="M332.34,73.558c0,.15-.151.226-.451.226h-.325c-.116-.1-.349-.3-.7-.6q-4.5-4.1-4.5-11.9a20.14,20.14,0,0,1,.726-5.576,13.485,13.485,0,0,1,3.774-6.325c.117-.1.25-.212.4-.337s.25-.213.3-.262h.325a.583.583,0,0,1,.375.075.216.216,0,0,1,.076.149q0,.1-.276.375-3.875,4.1-3.875,11.9t3.875,11.9Q332.34,73.459,332.34,73.558Z" style="fill:#83c167"/><path d="M335.189,60.583a.413.413,0,0,1-.15-.275,4.761,4.761,0,0,1,.775-1.725,4.285,4.285,0,0,1,2.95-2.049,3.961,3.961,0,0,1,.525-.05,3.034,3.034,0,0,1,1.612.449,2.7,2.7,0,0,1,1.063,1.125l.4-.524a2.766,2.766,0,0,1,2.125-1.05,2.352,2.352,0,0,1,1.662.587,1.876,1.876,0,0,1,.638,1.437,1.96,1.96,0,0,1-.438,1.3,1.433,1.433,0,0,1-1.162.525,1.1,1.1,0,0,1-.775-.275.936.936,0,0,1-.3-.725,1.59,1.59,0,0,1,1.25-1.575,1.029,1.029,0,0,0-.275-.175,1.436,1.436,0,0,0-.725-.15,1.636,1.636,0,0,0-.475.051,2.616,2.616,0,0,0-1.4,1.649q-.075.2-.725,2.788t-.7,2.912a3.816,3.816,0,0,0-.075.75,1.283,1.283,0,0,0,.35.951,1.251,1.251,0,0,0,.925.349,2.583,2.583,0,0,0,1.9-.887,4.617,4.617,0,0,0,1.15-1.962q.075-.251.15-.288a1.208,1.208,0,0,1,.4-.038c.316,0,.475.067.475.2,0,.016-.017.108-.05.274a5.427,5.427,0,0,1-1.75,2.7,3.942,3.942,0,0,1-2.475.925,2.879,2.879,0,0,1-2.65-1.574,3.5,3.5,0,0,1-1.85,1.5,3.222,3.222,0,0,1-.65.05,2.179,2.179,0,0,1-2.05-1.026,1.931,1.931,0,0,1-.25-1,1.888,1.888,0,0,1,.45-1.274,1.444,1.444,0,0,1,1.15-.526.94.94,0,0,1,1.075,1.05,1.413,1.413,0,0,1-.875,1.351l-.125.062-.125.063a.2.2,0,0,1-.075.024l-.075.026c0,.049.125.125.375.224a1.659,1.659,0,0,0,.65.125,1.846,1.846,0,0,0,1.55-1.125,18.938,18.938,0,0,0,.975-3.25q.15-.575.325-1.274t.262-1.075c.059-.25.1-.4.113-.451a6.14,6.14,0,0,0,.125-.974,1.342,1.342,0,0,0-.325-.95,1.165,1.165,0,0,0-.9-.351,2.611,2.611,0,0,0-1.95.863,4.737,4.737,0,0,0-1.15,1.988c-.034.149-.071.237-.112.262a1.218,1.218,0,0,1-.413.037Z" style="fill:#83c167"/><path d="M349.539,48.808l.1-.024h.549l.7.6q4.5,4.1,4.5,11.9a19.734,19.734,0,0,1-.725,5.549,13.489,13.489,0,0,1-3.775,6.35c-.117.1-.25.213-.4.338s-.25.213-.3.263h-.3a.942.942,0,0,1-.388-.05c-.059-.034-.087-.117-.087-.25.016-.018.108-.125.274-.325q3.876-4.026,3.875-11.875t-3.875-11.875c-.166-.2-.258-.309-.274-.326A.3.3,0,0,1,349.539,48.808Z" style="fill:#83c167"/><path d="M359.264,48.808l.1-.024h.55l.7.6q4.5,4.1,4.5,11.9a19.734,19.734,0,0,1-.725,5.549,13.489,13.489,0,0,1-3.775,6.35c-.117.1-.25.213-.4.338s-.25.213-.3.263h-.3a.945.945,0,0,1-.388-.05c-.058-.034-.087-.117-.087-.25.016-.018.108-.125.275-.325q3.875-4.026,3.875-11.875t-3.875-11.875c-.167-.2-.259-.309-.275-.326A.3.3,0,0,1,359.264,48.808Z" style="fill:#58c4dd"/><path d="M375.139,58.859a.544.544,0,0,1,.35-.5h15.925a.546.546,0,0,1,.375.5.563.563,0,0,1-.35.474l-7.95.026h-7.95A.5.5,0,0,1,375.139,58.859Zm0,4.849a.5.5,0,0,1,.4-.5h15.9a1.053,1.053,0,0,0,.113.088,1.11,1.11,0,0,1,.125.1.419.419,0,0,1,.075.125.491.491,0,0,1,.037.187.546.546,0,0,1-.375.5H375.489A.544.544,0,0,1,375.139,63.708Z" style="fill:#58c4dd"/><path d="M257.169,69.228c.25-.017.533-.037.849-.062s.554-.046.713-.063.245-.024.263-.024c.2,0,.3.066.3.2q0,.175-1.838,7.562t-1.862,7.513a2.032,2.032,0,0,0-.026.375q0,1.05.7,1.05a1.067,1.067,0,0,0,.5-.225,5.658,5.658,0,0,0,1.026-2.4q.149-.5.25-.525a.745.745,0,0,1,.25-.025h.1q.476,0,.476.2a2.117,2.117,0,0,1-.075.4,6.521,6.521,0,0,1-1.351,2.9,2.461,2.461,0,0,1-.8.525,2.618,2.618,0,0,1-.6.05,2.256,2.256,0,0,1-2.2-1.224,2.035,2.035,0,0,0-.125-.3c-.017-.016-.05-.008-.1.025l-.1.1a5.1,5.1,0,0,1-2.375,1.375,4.927,4.927,0,0,1-.625.025,3.316,3.316,0,0,1-2.724-1.375,4.863,4.863,0,0,1-.75-2.8,7.639,7.639,0,0,1,1.7-4.6,6.545,6.545,0,0,1,3.449-2.375,3.731,3.731,0,0,1,1.026-.15,2.392,2.392,0,0,1,2.1,1.05c.084.1.125.134.125.1l.688-2.737q.662-2.637.687-2.763a.454.454,0,0,0-.149-.4,3.783,3.783,0,0,0-1-.125h-.526a.7.7,0,0,1-.162-.2,2.51,2.51,0,0,1,.063-.474q.124-.475.325-.476c.016,0,.1-.008.262-.024s.383-.034.675-.051Zm-2.151,9.05q-.549-1.976-1.875-1.975a2.306,2.306,0,0,0-1.762.85,5.919,5.919,0,0,0-1.162,1.95,19.927,19.927,0,0,0-1.026,4.1c0,.049,0,.141-.012.274s-.012.233-.012.3a2.468,2.468,0,0,0,.387,1.45,1.3,1.3,0,0,0,1.137.55q1.326,0,2.776-1.8l.2-.274q.224-.9.675-2.713T255.018,78.278Z" style="fill:#fff"/><path d="M260.669,79.478a.413.413,0,0,1-.151-.274,4.765,4.765,0,0,1,.776-1.726,4.287,4.287,0,0,1,2.95-2.05,4.114,4.114,0,0,1,.524-.05,3.033,3.033,0,0,1,1.613.451,2.675,2.675,0,0,1,1.062,1.125q.326-.426.4-.526a2.769,2.769,0,0,1,2.125-1.05,2.363,2.363,0,0,1,1.662.587,1.882,1.882,0,0,1,.637,1.438,1.964,1.964,0,0,1-.437,1.3,1.439,1.439,0,0,1-1.162.524,1.1,1.1,0,0,1-.776-.274.939.939,0,0,1-.3-.726,1.589,1.589,0,0,1,1.25-1.575,1.056,1.056,0,0,0-.276-.175,1.422,1.422,0,0,0-.724-.149,1.651,1.651,0,0,0-.475.049,2.615,2.615,0,0,0-1.4,1.65q-.075.2-.725,2.788t-.7,2.912a3.816,3.816,0,0,0-.075.75,1.284,1.284,0,0,0,.349.95,1.25,1.25,0,0,0,.926.35,2.577,2.577,0,0,0,1.9-.887,4.613,4.613,0,0,0,1.151-1.963c.05-.166.1-.262.149-.287a1.22,1.22,0,0,1,.4-.038q.474,0,.474.2c0,.017-.016.109-.05.276a5.429,5.429,0,0,1-1.75,2.7,3.941,3.941,0,0,1-2.474.926,2.883,2.883,0,0,1-2.651-1.576,3.5,3.5,0,0,1-1.849,1.5,3.16,3.16,0,0,1-.651.05,2.18,2.18,0,0,1-2.049-1.025,1.931,1.931,0,0,1-.25-1,1.892,1.892,0,0,1,.45-1.275,1.445,1.445,0,0,1,1.149-.525.94.94,0,0,1,1.075,1.05,1.411,1.411,0,0,1-.875,1.35l-.125.063-.125.062a.183.183,0,0,1-.075.025l-.074.025q0,.075.375.225a1.654,1.654,0,0,0,.649.125,1.844,1.844,0,0,0,1.55-1.125,18.8,18.8,0,0,0,.976-3.25q.149-.575.325-1.275t.262-1.075c.058-.25.1-.4.113-.45a6.122,6.122,0,0,0,.125-.975,1.345,1.345,0,0,0-.325-.95,1.17,1.17,0,0,0-.9-.349,2.612,2.612,0,0,0-1.95.862,4.732,4.732,0,0,0-1.149,1.987c-.034.151-.072.238-.113.263a1.243,1.243,0,0,1-.413.037Z" style="fill:#fff"/><path d="M263.959,35.741q.375-.024.849-.063c.317-.023.554-.045.713-.062s.245-.024.263-.024c.2,0,.3.067.3.2s-.613,2.637-1.838,7.563-1.846,7.43-1.862,7.512a2.032,2.032,0,0,0-.026.375c0,.7.234,1.05.7,1.05a1.064,1.064,0,0,0,.5-.224,5.664,5.664,0,0,0,1.026-2.4c.1-.333.182-.507.25-.525a.745.745,0,0,1,.25-.025h.1c.317,0,.476.068.476.2a2.125,2.125,0,0,1-.075.4,6.521,6.521,0,0,1-1.351,2.9,2.461,2.461,0,0,1-.8.525,2.665,2.665,0,0,1-.6.051,2.256,2.256,0,0,1-2.2-1.225,2.111,2.111,0,0,0-.125-.3c-.017-.015-.05-.007-.1.026l-.1.1a5.1,5.1,0,0,1-2.375,1.375,4.86,4.86,0,0,1-.625.026,3.319,3.319,0,0,1-2.724-1.375,4.867,4.867,0,0,1-.75-2.8,7.641,7.641,0,0,1,1.7-4.6,6.551,6.551,0,0,1,3.449-2.375,3.769,3.769,0,0,1,1.026-.15,2.391,2.391,0,0,1,2.1,1.051c.084.1.125.133.125.1q.026-.1.688-2.738t.687-2.762a.454.454,0,0,0-.149-.4,3.827,3.827,0,0,0-1-.125h-.526a.7.7,0,0,1-.162-.2,2.617,2.617,0,0,1,.063-.475c.083-.316.191-.476.325-.476.016,0,.1-.008.262-.024s.383-.033.675-.051S263.675,35.758,263.959,35.741Zm-2.151,9.05q-.549-1.974-1.875-1.974a2.308,2.308,0,0,0-1.762.849,5.919,5.919,0,0,0-1.162,1.95,19.927,19.927,0,0,0-1.026,4.1c0,.049,0,.141-.012.274s-.012.234-.012.3a2.468,2.468,0,0,0,.387,1.45,1.3,1.3,0,0,0,1.137.55q1.326,0,2.776-1.8l.2-.274q.224-.9.675-2.713T261.808,44.791Z" style="fill:#f8f8f8"/><path d="M243.868,61.892c0-.217.223-.384.672-.5h30.607q.721.174.721.5c0,.183-.223.341-.672.474l-15.28.026h-15.28C244.123,62.309,243.868,62.142,243.868,61.892Z" style="fill:#fff"/><path d="M414.126,68.077c.25-.017.533-.037.849-.063s.554-.046.713-.062.245-.025.263-.025c.2,0,.3.067.3.2s-.613,2.638-1.838,7.563-1.846,7.43-1.862,7.513a2.032,2.032,0,0,0-.026.375q0,1.05.7,1.049a1.054,1.054,0,0,0,.5-.224,5.657,5.657,0,0,0,1.026-2.4c.1-.333.182-.507.25-.524a.718.718,0,0,1,.25-.025h.1q.475,0,.476.2a2.111,2.111,0,0,1-.075.4,6.526,6.526,0,0,1-1.351,2.9,2.494,2.494,0,0,1-.8.525,2.677,2.677,0,0,1-.6.05,2.256,2.256,0,0,1-2.2-1.225,2.111,2.111,0,0,0-.125-.3c-.017-.015-.05-.007-.1.026l-.1.1A5.1,5.1,0,0,1,408.1,85.5a4.674,4.674,0,0,1-.625.026,3.316,3.316,0,0,1-2.724-1.375,4.866,4.866,0,0,1-.75-2.8,7.641,7.641,0,0,1,1.7-4.6,6.556,6.556,0,0,1,3.449-2.375,3.767,3.767,0,0,1,1.026-.149,2.392,2.392,0,0,1,2.1,1.05c.084.1.125.134.125.1q.025-.1.688-2.737t.687-2.763a.451.451,0,0,0-.149-.4,3.783,3.783,0,0,0-1-.125H412.1a.716.716,0,0,1-.162-.2,2.516,2.516,0,0,1,.063-.475c.083-.316.191-.475.325-.475.016,0,.1-.008.262-.025s.383-.033.675-.051S413.842,68.093,414.126,68.077Zm-2.151,9.049q-.549-1.974-1.875-1.974a2.308,2.308,0,0,0-1.762.849,5.924,5.924,0,0,0-1.162,1.951,19.918,19.918,0,0,0-1.026,4.1c0,.05,0,.142-.012.275s-.012.233-.012.3a2.471,2.471,0,0,0,.387,1.451,1.3,1.3,0,0,0,1.137.549q1.326,0,2.776-1.8l.2-.275q.224-.9.675-2.713T411.975,77.126Z" style="fill:#58c4dd"/><path d="M426.525,85.527a2.239,2.239,0,0,1-1.6-.588,1.981,1.981,0,0,1-.625-1.512,3.517,3.517,0,0,1,.25-1.1,29.432,29.432,0,0,0,1.5-4.725,5.055,5.055,0,0,0,.075-.95q0-1.476-1.226-1.475a2.987,2.987,0,0,0-.649.05,4.752,4.752,0,0,0-2.95,2.4l-.175.326-.851,3.375q-.8,3.251-.925,3.549a1.127,1.127,0,0,1-1.1.676,1.063,1.063,0,0,1-.588-.187.563.563,0,0,1-.287-.489q0-.3,3.675-15a.446.446,0,0,0-.151-.4,3.77,3.77,0,0,0-1-.125h-.524a.688.688,0,0,1-.163-.2,2.561,2.561,0,0,1,.062-.475c.084-.316.192-.475.325-.475q.025,0,1.813-.138t1.812-.137c.2,0,.3.074.3.225q0,.274-.9,3.775-.951,3.7-.95,3.775c0,.034.058-.008.174-.125a4.714,4.714,0,0,1,3.25-1.35,3.37,3.37,0,0,1,2.2.675,2.4,2.4,0,0,1,.825,1.974,5.066,5.066,0,0,1-.075.951,31.439,31.439,0,0,1-1.375,4.424,6,6,0,0,0-.451,1.776.914.914,0,0,0,.125.474.459.459,0,0,0,.375.125,1.71,1.71,0,0,0,1.313-.761A5.613,5.613,0,0,0,429,81.827a.654.654,0,0,1,.149-.326.949.949,0,0,1,.4-.049c.316.049.483.117.5.2,0,.016-.034.141-.1.375a5.737,5.737,0,0,1-1.275,2.425A2.633,2.633,0,0,1,426.525,85.527Z" style="fill:#58c4dd"/><path d="M414.915,34.589q.375-.024.849-.062c.317-.025.554-.046.713-.063s.245-.024.263-.024c.2,0,.3.066.3.2q0,.175-1.838,7.563t-1.862,7.512a2.032,2.032,0,0,0-.026.375c0,.7.234,1.05.7,1.05a1.064,1.064,0,0,0,.5-.224,5.657,5.657,0,0,0,1.026-2.4q.148-.5.25-.524a.709.709,0,0,1,.25-.026h.1c.317,0,.476.068.476.2a2.111,2.111,0,0,1-.075.4,6.521,6.521,0,0,1-1.351,2.9,2.48,2.48,0,0,1-.8.526,2.677,2.677,0,0,1-.6.05,2.257,2.257,0,0,1-2.2-1.225,2.111,2.111,0,0,0-.125-.3c-.017-.015-.05-.008-.1.026l-.1.1a5.1,5.1,0,0,1-2.375,1.375,4.674,4.674,0,0,1-.625.026,3.316,3.316,0,0,1-2.724-1.375,4.866,4.866,0,0,1-.75-2.8,7.641,7.641,0,0,1,1.7-4.6,6.556,6.556,0,0,1,3.449-2.375,3.767,3.767,0,0,1,1.026-.149,2.39,2.39,0,0,1,2.1,1.05c.084.1.125.133.125.1q.026-.1.688-2.737t.687-2.763a.451.451,0,0,0-.149-.4,3.7,3.7,0,0,0-1-.125h-.526a.716.716,0,0,1-.162-.2,2.607,2.607,0,0,1,.063-.475c.083-.316.191-.476.325-.476.016,0,.1-.007.262-.024s.384-.033.676-.051S414.631,34.606,414.915,34.589Zm-2.151,9.05q-.549-1.974-1.875-1.974a2.31,2.31,0,0,0-1.762.849,5.93,5.93,0,0,0-1.162,1.95,19.943,19.943,0,0,0-1.026,4.1c0,.05,0,.142-.011.274s-.013.234-.013.3a2.459,2.459,0,0,0,.388,1.45,1.3,1.3,0,0,0,1.136.55q1.326,0,2.776-1.8l.2-.274q.224-.9.675-2.713T412.764,43.639Z" style="fill:#58c4dd"/><path d="M418.814,53.565a1.065,1.065,0,0,1,.75.274.939.939,0,0,1,.3.726,1.527,1.527,0,0,1-.5,1.149c-.117.117-.159.175-.125.175a7.957,7.957,0,0,0,1.5.075,3.153,3.153,0,0,0,1.5-.3,3.439,3.439,0,0,0,1.074-.838,3.342,3.342,0,0,0,.7-1.162q.151-.476.4-1.55a10,10,0,0,0,.325-1.4,5,5,0,0,1-2,1.026,3.84,3.84,0,0,1-.625.05,3.14,3.14,0,0,1-2.562-1.138,4.349,4.349,0,0,1-.938-2.862,6.678,6.678,0,0,1,.725-3.026,7.207,7.207,0,0,1,3.3-3.474,5.052,5.052,0,0,1,2.175-.55,2.892,2.892,0,0,1,2.176,1.2.866.866,0,0,0,.1-.125,1.147,1.147,0,0,1,1.049-.575.893.893,0,0,1,.576.2.617.617,0,0,1,.25.5q0,.375-1.425,6.05t-1.5,5.8a4.286,4.286,0,0,1-1.963,2.237,6.386,6.386,0,0,1-3.337.888q-2.876,0-3.4-1.1a1.232,1.232,0,0,1-.125-.6,1.666,1.666,0,0,1,.45-1.149A1.473,1.473,0,0,1,418.814,53.565Zm7.75-9.976a5.909,5.909,0,0,0-.386-1,1.925,1.925,0,0,0-.588-.637,1.625,1.625,0,0,0-.975-.287,1.44,1.44,0,0,0-.163.012c-.075.009-.121.013-.138.013a3.184,3.184,0,0,0-1.824,1.3,10.145,10.145,0,0,0-1.325,3.375,11.565,11.565,0,0,0-.425,2.5q0,1.974,1.55,1.974a3.61,3.61,0,0,0,2.75-1.75l.2-.25Q426.14,45.34,426.564,43.589Z" style="fill:#58c4dd"/><path d="M400.825,60.74c0-.217.223-.384.672-.5H432.1q.72.174.721.5c0,.183-.224.342-.672.474l-15.28.026H401.592Q400.824,61.116,400.825,60.74Z" style="fill:#58c4dd"/><path d="M457.432,68.228c.25-.017.534-.037.85-.062s.555-.046.713-.063.246-.024.264-.024c.2,0,.3.066.3.2q0,.175-1.837,7.562t-1.862,7.513a2.05,2.05,0,0,0-.025.375c0,.7.232,1.05.7,1.05a1.075,1.075,0,0,0,.5-.225,5.647,5.647,0,0,0,1.025-2.4c.1-.333.184-.508.25-.525a.758.758,0,0,1,.25-.025h.1c.316,0,.477.067.477.2a2.094,2.094,0,0,1-.077.4,6.523,6.523,0,0,1-1.349,2.9,2.477,2.477,0,0,1-.8.525,2.616,2.616,0,0,1-.6.05,2.257,2.257,0,0,1-2.2-1.224,2.035,2.035,0,0,0-.125-.3c-.017-.016-.051-.008-.1.025s-.069.067-.1.1a5.106,5.106,0,0,1-2.375,1.375,4.95,4.95,0,0,1-.625.025,3.318,3.318,0,0,1-2.725-1.375,4.863,4.863,0,0,1-.75-2.8,7.635,7.635,0,0,1,1.7-4.6,6.538,6.538,0,0,1,3.449-2.375,3.713,3.713,0,0,1,1.025-.15,2.4,2.4,0,0,1,2.1,1.05c.084.1.125.134.125.1.015-.067.246-.979.687-2.737s.67-2.679.688-2.763a.452.452,0,0,0-.151-.4,3.763,3.763,0,0,0-1-.125h-.525a.683.683,0,0,1-.162-.2,2.775,2.775,0,0,1,.062-.474c.084-.317.192-.476.327-.476.015,0,.1-.008.261-.024s.383-.034.676-.051Zm-2.15,9.05q-.548-1.976-1.875-1.975a2.307,2.307,0,0,0-1.762.85,5.937,5.937,0,0,0-1.162,1.95,19.861,19.861,0,0,0-1.025,4.1c0,.049,0,.141-.012.274s-.014.233-.014.3a2.454,2.454,0,0,0,.389,1.45,1.3,1.3,0,0,0,1.137.55q1.325,0,2.775-1.8l.2-.274q.226-.9.676-2.713C454.907,78.783,455.134,77.878,455.282,77.278Z" style="fill:#83c167"/><path d="M460.932,78.478a.42.42,0,0,1-.15-.274,4.76,4.76,0,0,1,.775-1.726,4.293,4.293,0,0,1,2.952-2.05,4.118,4.118,0,0,1,.523-.05,3.031,3.031,0,0,1,1.613.451,2.672,2.672,0,0,1,1.063,1.125c.217-.284.349-.459.4-.526a2.766,2.766,0,0,1,2.125-1.05,2.361,2.361,0,0,1,1.662.587,1.879,1.879,0,0,1,.637,1.438,1.959,1.959,0,0,1-.437,1.3,1.437,1.437,0,0,1-1.163.524,1.106,1.106,0,0,1-.775-.274.943.943,0,0,1-.3-.726,1.589,1.589,0,0,1,1.25-1.575,1.06,1.06,0,0,0-.275-.175,1.424,1.424,0,0,0-.725-.149,1.638,1.638,0,0,0-.474.049,2.613,2.613,0,0,0-1.4,1.65q-.076.2-.724,2.788t-.7,2.912a3.972,3.972,0,0,0-.074.75,1.277,1.277,0,0,0,.35.95,1.246,1.246,0,0,0,.926.35,2.575,2.575,0,0,0,1.9-.887,4.61,4.61,0,0,0,1.15-1.963c.051-.166.1-.262.151-.287a1.212,1.212,0,0,1,.4-.038q.476,0,.475.2c0,.017-.018.109-.051.276a5.422,5.422,0,0,1-1.75,2.7,3.939,3.939,0,0,1-2.475.926,2.884,2.884,0,0,1-2.65-1.576,3.5,3.5,0,0,1-1.85,1.5,3.149,3.149,0,0,1-.65.05,2.18,2.18,0,0,1-2.049-1.025,1.921,1.921,0,0,1-.25-1,1.9,1.9,0,0,1,.449-1.275,1.45,1.45,0,0,1,1.151-.525.939.939,0,0,1,1.074,1.05,1.41,1.41,0,0,1-.875,1.35l-.125.063-.125.062a.19.19,0,0,1-.074.025l-.074.025q0,.075.375.225a1.652,1.652,0,0,0,.648.125,1.845,1.845,0,0,0,1.551-1.125,18.881,18.881,0,0,0,.974-3.25q.15-.575.327-1.275c.115-.466.2-.825.261-1.075s.1-.4.114-.45a6.244,6.244,0,0,0,.125-.975,1.342,1.342,0,0,0-.327-.95,1.165,1.165,0,0,0-.9-.349,2.61,2.61,0,0,0-1.949.862,4.736,4.736,0,0,0-1.151,1.987c-.033.151-.07.238-.111.263a1.255,1.255,0,0,1-.414.037Z" style="fill:#83c167"/><path d="M458.222,34.742c.25-.017.534-.037.85-.063s.554-.046.713-.062.245-.025.263-.025c.2,0,.3.067.3.2s-.612,2.638-1.837,7.563-1.846,7.43-1.863,7.513a2.145,2.145,0,0,0-.025.375q0,1.05.7,1.049a1.062,1.062,0,0,0,.5-.224,5.66,5.66,0,0,0,1.025-2.4c.1-.333.183-.507.25-.524a.726.726,0,0,1,.25-.025h.1c.316,0,.476.067.476.2a2.143,2.143,0,0,1-.076.4,6.527,6.527,0,0,1-1.35,2.9,2.5,2.5,0,0,1-.8.525,2.687,2.687,0,0,1-.6.05,2.256,2.256,0,0,1-2.2-1.225,2.111,2.111,0,0,0-.125-.3c-.016-.015-.05-.007-.1.026s-.068.066-.1.1a5.111,5.111,0,0,1-2.375,1.375,4.7,4.7,0,0,1-.625.026,3.317,3.317,0,0,1-2.725-1.375,4.866,4.866,0,0,1-.75-2.8,7.643,7.643,0,0,1,1.7-4.6,6.553,6.553,0,0,1,3.449-2.375,3.754,3.754,0,0,1,1.025-.149,2.4,2.4,0,0,1,2.1,1.05c.084.1.125.134.125.1q.024-.1.687-2.737t.688-2.763a.448.448,0,0,0-.15-.4,3.77,3.77,0,0,0-1-.125H456.2a.7.7,0,0,1-.162-.2,2.561,2.561,0,0,1,.062-.475c.083-.316.192-.475.326-.475.015,0,.1-.008.261-.025s.384-.033.676-.051S457.938,34.758,458.222,34.742Zm-2.15,9.049q-.549-1.974-1.875-1.974a2.312,2.312,0,0,0-1.763.849,5.958,5.958,0,0,0-1.162,1.951,19.98,19.98,0,0,0-1.025,4.1c0,.05,0,.142-.012.275s-.013.233-.013.3a2.464,2.464,0,0,0,.388,1.451,1.3,1.3,0,0,0,1.137.549q1.326,0,2.775-1.8l.2-.275q.225-.9.675-2.713T456.072,43.791Z" style="fill:#83c167"/><path d="M470.622,52.192a2.24,2.24,0,0,1-1.6-.588,1.981,1.981,0,0,1-.625-1.512,3.517,3.517,0,0,1,.25-1.1,29.432,29.432,0,0,0,1.5-4.725,4.972,4.972,0,0,0,.075-.95q0-1.476-1.225-1.475a3,3,0,0,0-.65.05,4.755,4.755,0,0,0-2.95,2.4l-.175.326-.85,3.375q-.8,3.251-.925,3.549a1.128,1.128,0,0,1-1.1.676,1.06,1.06,0,0,1-.587-.187.564.564,0,0,1-.288-.489q0-.3,3.675-15a.448.448,0,0,0-.15-.4,3.783,3.783,0,0,0-1-.125h-.525a.728.728,0,0,1-.163-.2,2.727,2.727,0,0,1,.063-.475c.084-.316.191-.475.325-.475q.025,0,1.813-.138t1.812-.137c.2,0,.3.074.3.225q0,.274-.9,3.775-.949,3.7-.95,3.775c0,.034.059-.008.175-.125a4.711,4.711,0,0,1,3.25-1.35,3.367,3.367,0,0,1,2.2.675,2.4,2.4,0,0,1,.825,1.974,4.983,4.983,0,0,1-.075.951,31.164,31.164,0,0,1-1.375,4.424,5.987,5.987,0,0,0-.45,1.776.914.914,0,0,0,.125.474.457.457,0,0,0,.375.125,1.711,1.711,0,0,0,1.313-.761,5.6,5.6,0,0,0,.962-2.038.653.653,0,0,1,.15-.326.943.943,0,0,1,.4-.049c.317.049.484.117.5.2q0,.024-.1.375a5.738,5.738,0,0,1-1.276,2.425A2.63,2.63,0,0,1,470.622,52.192Z" style="fill:#83c167"/><path d="M444.132,60.892c0-.217.223-.384.672-.5h30.607q.721.174.721.5c0,.183-.223.341-.672.474l-15.28.026H444.9C444.387,61.309,444.132,61.142,444.132,60.892Z" style="fill:#83c167"/></svg>