<svg xmlns="http://www.w3.org/2000/svg" width="720" height="120" viewBox="0 0 720 120"><rect width="720" height="120"/><path d="M321.19,55.292q-2.3,0-2.3,1.625a1.121,1.121,0,0,0,.05.425,1.5,1.5,0,0,0,.775.862,7.586,7.586,0,0,0,1.7.488,6.759,6.759,0,0,1,1.95.55,3.622,3.622,0,0,1,2.025,2.475,4.644,4.644,0,0,1,.025.6,4.026,4.026,0,0,1-.35,1.725,3.767,3.767,0,0,1-3.675,1.85,3.978,3.978,0,0,1-2.6-.9l-.2.175-.225.225c-.1.1-.2.192-.3.275l-.275.25h-.2a.453.453,0,0,1-.325-.15V63.792q0-1.624.012-1.875c.009-.167.046-.266.113-.3a1.629,1.629,0,0,1,.4-.025.841.841,0,0,1,.388.05.826.826,0,0,1,.137.35,5.779,5.779,0,0,0,.65,1.725,2.782,2.782,0,0,0,2.425,1.275q2.426,0,2.425-1.95a1.59,1.59,0,0,0-.45-1.175,2.176,2.176,0,0,0-1.05-.675c-.284-.067-.683-.159-1.2-.275a8.56,8.56,0,0,1-1.9-.525,3.12,3.12,0,0,1-1.925-2.325,1.813,1.813,0,0,1-.025-.375q0-2.874,3.525-3.225a1.63,1.63,0,0,1,.6,0,3.868,3.868,0,0,1,1.75.375l.375.2.225-.175a6.44,6.44,0,0,1,.55-.425h.2a.455.455,0,0,1,.325.15v3.3l-.15.15h-.7a.432.432,0,0,1-.15-.3,2.335,2.335,0,0,0-.7-1.8A2.721,2.721,0,0,0,321.19,55.292Z" style="fill:#58c4dd"/><path d="M332.465,65.642a21.355,21.355,0,0,0-2.6-.075,26.381,26.381,0,0,0-2.725.075h-.2v-1.15h.4a8.778,8.778,0,0,0,1.225-.075.535.535,0,0,0,.3-.275q.025-.049.025-3.625a34.778,34.778,0,0,0-.1-4q-.2-.5-1.475-.5h-.275v-.575c0-.383.016-.575.05-.575l.25-.025c.167-.017.4-.033.7-.05l.9-.05c.283-.016.583-.038.9-.062s.558-.046.725-.063.258-.025.275-.025h.075v9.5a.572.572,0,0,0,.3.312,3.879,3.879,0,0,0,.875.088h.575v1.15Zm-2.9-16.725a1.6,1.6,0,0,1,1.025.438,1.411,1.411,0,0,1,.4,1.062,1.338,1.338,0,0,1-.675,1.275,1.371,1.371,0,0,1-.8.225,1.414,1.414,0,0,1-.825-.225,1.338,1.338,0,0,1-.675-1.275,1.415,1.415,0,0,1,.438-1.1A1.586,1.586,0,0,1,329.565,48.917Z" style="fill:#58c4dd"/><path d="M337.94,64.142q.2.35,1.175.35h.75v1.15h-.2a52.3,52.3,0,0,0-5.6,0h-.2v-1.15h.75q.974,0,1.175-.35v-.775q0-.349.013-.788c.007-.291.012-.616.012-.974V60.567c0-.516,0-1.071-.012-1.663s-.013-1.079-.013-1.462v-.575a.827.827,0,0,0-.362-.637,2.919,2.919,0,0,0-1.113-.213h-.45v-.575q0-.575.05-.575l.25-.025c.166-.017.4-.033.713-.05l.912-.05c.283-.016.583-.038.9-.062s.558-.046.725-.063.258-.025.275-.025h.074v1a6.588,6.588,0,0,0,.026.95l.025-.025a4.4,4.4,0,0,1,3.824-1.925,2.918,2.918,0,0,1,3.176,2.825q.024.174.025,3.475,0,3.2.025,3.25a.532.532,0,0,0,.3.275,8.753,8.753,0,0,0,1.224.075h.4v1.15h-.2a52.3,52.3,0,0,0-5.6,0h-.2v-1.15h.6q1.326,0,1.326-.4.024-.05.025-3.45-.025-3.375-.05-3.575a2.212,2.212,0,0,0-.562-1.163,1.694,1.694,0,0,0-1.188-.362,2.707,2.707,0,0,0-1.975.85,3.585,3.585,0,0,0-1.025,2.2v.463c0,.291,0,.662-.012,1.112s-.013.875-.013,1.275v.788q0,.411.013.737c.007.217.012.412.012.588v.587Z" style="fill:#58c4dd"/><path d="M355.465,71.667c0,.15-.151.225-.451.225h-.325l-.7-.6q-4.5-4.1-4.5-11.9a20.134,20.134,0,0,1,.725-5.575,13.476,13.476,0,0,1,3.775-6.325c.116-.1.25-.213.4-.338s.25-.212.3-.262h.325a.589.589,0,0,1,.375.075.218.218,0,0,1,.076.15q0,.1-.276.375-3.875,4.1-3.875,11.9t3.875,11.9Q355.465,71.566,355.465,71.667Z" style="fill:#58c4dd"/><path d="M358.315,58.692a.417.417,0,0,1-.15-.275,4.747,4.747,0,0,1,.775-1.725,4.284,4.284,0,0,1,2.949-2.05,4.154,4.154,0,0,1,.526-.05,3.035,3.035,0,0,1,1.612.45,2.7,2.7,0,0,1,1.063,1.125c.216-.283.35-.458.4-.525a2.769,2.769,0,0,1,2.125-1.05,2.354,2.354,0,0,1,1.662.588,1.88,1.88,0,0,1,.638,1.437,1.966,1.966,0,0,1-.438,1.3,1.437,1.437,0,0,1-1.162.525,1.1,1.1,0,0,1-.775-.275.936.936,0,0,1-.3-.725,1.59,1.59,0,0,1,1.25-1.575,1.029,1.029,0,0,0-.275-.175,1.428,1.428,0,0,0-.725-.15,1.656,1.656,0,0,0-.476.05,2.619,2.619,0,0,0-1.4,1.65q-.075.2-.726,2.787t-.7,2.913a3.741,3.741,0,0,0-.075.75,1.282,1.282,0,0,0,.35.95,1.251,1.251,0,0,0,.924.35,2.583,2.583,0,0,0,1.9-.887,4.621,4.621,0,0,0,1.15-1.963c.05-.166.1-.263.15-.287a1.176,1.176,0,0,1,.4-.038c.316,0,.475.067.475.2,0,.016-.017.108-.05.275a5.438,5.438,0,0,1-1.75,2.7,3.942,3.942,0,0,1-2.475.925,2.879,2.879,0,0,1-2.65-1.575,3.5,3.5,0,0,1-1.85,1.5,3.222,3.222,0,0,1-.65.05,2.177,2.177,0,0,1-2.05-1.025,1.933,1.933,0,0,1-.25-1,1.887,1.887,0,0,1,.45-1.275,1.447,1.447,0,0,1,1.15-.525.94.94,0,0,1,1.075,1.05,1.411,1.411,0,0,1-.875,1.35l-.125.062-.125.063a.188.188,0,0,1-.075.025l-.076.025q0,.075.375.225a1.685,1.685,0,0,0,.651.125,1.848,1.848,0,0,0,1.55-1.125,18.938,18.938,0,0,0,.975-3.25q.15-.574.324-1.275t.263-1.075c.059-.25.1-.4.112-.45a6.018,6.018,0,0,0,.125-.975,1.343,1.343,0,0,0-.324-.95,1.166,1.166,0,0,0-.9-.35,2.609,2.609,0,0,0-1.95.862,4.744,4.744,0,0,0-1.15,1.988c-.034.15-.071.237-.113.262a1.168,1.168,0,0,1-.412.038Z" style="fill:#83c167"/><path d="M372.767,51.065a.812.812,0,0,1-.64-.263.93.93,0,0,1-.234-.642,2.391,2.391,0,0,1,.794-1.8,2.678,2.678,0,0,1,1.9-.751,3.164,3.164,0,0,1,2.077.677,2.837,2.837,0,0,1,1.012,1.772,4.255,4.255,0,0,1,.03.48,2.756,2.756,0,0,1-.51,1.589,9.661,9.661,0,0,1-1.647,1.676q-.525.453-1.457,1.341l-.861.816,1.108.015a17.908,17.908,0,0,0,2.434-.072c.038-.01.087-.113.146-.307a9.451,9.451,0,0,0,.2-.991v-.044h.583v.044l-.408,2.667v.044h-5.408V57.04a.966.966,0,0,1,.03-.336q.014-.012,1.224-1.383,1.589-1.764,2.04-2.333a4.228,4.228,0,0,0,.977-2.434,2.547,2.547,0,0,0-.5-1.61,1.676,1.676,0,0,0-1.406-.649,1.6,1.6,0,0,0-1.37.758c-.02.039-.049.093-.088.16a.283.283,0,0,0-.043.088c0,.01.023.015.072.015a.747.747,0,0,1,.591.261.912.912,0,0,1,.225.613.87.87,0,0,1-.24.619A.829.829,0,0,1,372.767,51.065Z" style="fill:#83c167"/><path d="M379.952,46.917l.1-.025h.549l.7.6q4.5,4.1,4.5,11.9a19.735,19.735,0,0,1-.726,5.55,13.487,13.487,0,0,1-3.774,6.35c-.118.1-.25.212-.4.337s-.25.213-.3.263h-.3a.938.938,0,0,1-.388-.05c-.059-.033-.088-.117-.088-.25.017-.017.108-.125.275-.325q3.875-4.026,3.875-11.875T380.1,47.517c-.167-.2-.258-.308-.275-.325A.3.3,0,0,1,379.952,46.917Z" style="fill:#58c4dd"/><path d="M395.827,56.967a.544.544,0,0,1,.35-.5H412.1a.547.547,0,0,1,.375.5.565.565,0,0,1-.349.475l-7.95.025h-7.951A.5.5,0,0,1,395.827,56.967Zm0,4.85a.5.5,0,0,1,.4-.5h15.9a.845.845,0,0,0,.112.087,1.153,1.153,0,0,1,.125.1.412.412,0,0,1,.075.125.474.474,0,0,1,.037.188.548.548,0,0,1-.375.5H396.177A.545.545,0,0,1,395.827,61.817Z" style="fill:#fff"/><path d="M429.84,57.654a1.352,1.352,0,0,1-.963.363,1.263,1.263,0,0,1-.95-.388,1.374,1.374,0,0,1,0-1.887c.083-.084.121-.133.112-.15s-.087-.033-.237-.05a8.172,8.172,0,0,0-1.225-.1,2.562,2.562,0,0,0-2,.8,5.416,5.416,0,0,0-1.175,3.925,5.8,5.8,0,0,0,.775,3.225,3.164,3.164,0,0,0,2.75,1.525,2.324,2.324,0,0,0,1.1-.25,2.909,2.909,0,0,0,1.449-1.95.438.438,0,0,1,.125-.25.943.943,0,0,1,.4-.05h.349c.1.1.151.175.151.225a3.343,3.343,0,0,1-.625,1.475,4.046,4.046,0,0,1-3.526,1.8,5.154,5.154,0,0,1-2.375-.575A5.512,5.512,0,0,1,421,61.092a6.929,6.929,0,0,1-.026-.8,7.742,7.742,0,0,1,.026-.825,5.778,5.778,0,0,1,2.05-3.825,5.2,5.2,0,0,1,3.325-1.2q3.225,0,3.775,1.7a1.855,1.855,0,0,1,.074.575A1.226,1.226,0,0,1,429.84,57.654Z" style="fill:#58c4dd"/><path d="M431.927,60.292a5.7,5.7,0,0,1,1.45-3.913,5.587,5.587,0,0,1,4.1-1.937,5.168,5.168,0,0,1,3.776,1.6A5.76,5.76,0,0,1,443,60.267a6.6,6.6,0,0,1-.125,1.175,5.332,5.332,0,0,1-1.413,2.738,5.535,5.535,0,0,1-2.688,1.562,5.16,5.16,0,0,1-1.3.15,5.276,5.276,0,0,1-1.325-.15,5.579,5.579,0,0,1-4.224-5.45Zm6-4.9a2.246,2.246,0,0,0-.4-.025,3.473,3.473,0,0,0-1.425.3,3.281,3.281,0,0,0-1.674,2.725c-.035.3-.05.834-.05,1.6a8.564,8.564,0,0,0,.474,3.375,2.742,2.742,0,0,0,2.625,1.525q3.051,0,3.05-4.075v-.8a12.493,12.493,0,0,0-.125-2.2A2.973,2.973,0,0,0,437.927,55.392Z" style="fill:#58c4dd"/><path d="M448.476,55.292q-2.3,0-2.3,1.625a1.149,1.149,0,0,0,.049.425A1.5,1.5,0,0,0,447,58.2a7.558,7.558,0,0,0,1.7.488,6.748,6.748,0,0,1,1.95.55,3.623,3.623,0,0,1,2.026,2.475,4.707,4.707,0,0,1,.024.6,4.026,4.026,0,0,1-.35,1.725,3.766,3.766,0,0,1-3.674,1.85,3.981,3.981,0,0,1-2.6-.9l-.2.175-.226.225c-.1.1-.2.192-.3.275l-.275.25h-.2a.452.452,0,0,1-.325-.15V63.792q0-1.624.012-1.875c.008-.167.045-.266.113-.3a1.618,1.618,0,0,1,.4-.025.841.841,0,0,1,.388.05.8.8,0,0,1,.137.35,5.754,5.754,0,0,0,.651,1.725,2.78,2.78,0,0,0,2.425,1.275q2.424,0,2.424-1.95a1.59,1.59,0,0,0-.45-1.175,2.166,2.166,0,0,0-1.05-.675q-.425-.1-1.2-.275a8.547,8.547,0,0,1-1.9-.525,3.122,3.122,0,0,1-1.926-2.325,1.835,1.835,0,0,1-.024-.375q0-2.874,3.524-3.225a1.636,1.636,0,0,1,.6,0,3.868,3.868,0,0,1,1.75.375l.375.2.224-.175a6.6,6.6,0,0,1,.55-.425h.2a.453.453,0,0,1,.325.15v3.3l-.15.15h-.7a.43.43,0,0,1-.151-.3,2.335,2.335,0,0,0-.7-1.8A2.721,2.721,0,0,0,448.476,55.292Z" style="fill:#58c4dd"/><path d="M461.9,71.667q0,.225-.45.225h-.325l-.7-.6q-4.5-4.1-4.5-11.9a20.171,20.171,0,0,1,.725-5.575,13.484,13.484,0,0,1,3.775-6.325q.175-.15.4-.338c.15-.125.25-.212.3-.262h.325a.593.593,0,0,1,.375.075.216.216,0,0,1,.075.15q0,.1-.275.375-3.874,4.1-3.875,11.9t3.875,11.9Q461.9,71.566,461.9,71.667Z" style="fill:#58c4dd"/><path d="M464.751,58.692a.415.415,0,0,1-.151-.275,4.77,4.77,0,0,1,.776-1.725,4.284,4.284,0,0,1,2.95-2.05,4.114,4.114,0,0,1,.524-.05,3.041,3.041,0,0,1,1.613.45,2.687,2.687,0,0,1,1.062,1.125q.326-.425.4-.525a2.769,2.769,0,0,1,2.125-1.05,2.354,2.354,0,0,1,1.662.588,1.879,1.879,0,0,1,.637,1.437,1.96,1.96,0,0,1-.437,1.3,1.437,1.437,0,0,1-1.162.525,1.1,1.1,0,0,1-.776-.275.936.936,0,0,1-.3-.725,1.59,1.59,0,0,1,1.25-1.575,1.025,1.025,0,0,0-.276-.175,1.421,1.421,0,0,0-.724-.15,1.643,1.643,0,0,0-.475.05,2.612,2.612,0,0,0-1.4,1.65q-.075.2-.725,2.787t-.7,2.913a3.816,3.816,0,0,0-.075.75,1.285,1.285,0,0,0,.349.95,1.254,1.254,0,0,0,.926.35,2.581,2.581,0,0,0,1.9-.887,4.613,4.613,0,0,0,1.151-1.963c.05-.166.1-.263.149-.287a1.192,1.192,0,0,1,.4-.038q.474,0,.474.2c0,.016-.016.108-.05.275a5.432,5.432,0,0,1-1.75,2.7,3.939,3.939,0,0,1-2.474.925,2.883,2.883,0,0,1-2.651-1.575,3.5,3.5,0,0,1-1.849,1.5,3.233,3.233,0,0,1-.651.05,2.178,2.178,0,0,1-2.049-1.025,1.933,1.933,0,0,1-.25-1,1.892,1.892,0,0,1,.45-1.275,1.445,1.445,0,0,1,1.149-.525.939.939,0,0,1,1.075,1.05,1.411,1.411,0,0,1-.875,1.35l-.125.062c-.049.026-.091.046-.125.063a.183.183,0,0,1-.075.025l-.074.025q0,.075.375.225a1.672,1.672,0,0,0,.649.125,1.844,1.844,0,0,0,1.55-1.125,18.8,18.8,0,0,0,.976-3.25q.149-.574.325-1.275t.262-1.075c.058-.25.095-.4.113-.45a6.136,6.136,0,0,0,.125-.975,1.344,1.344,0,0,0-.325-.95,1.167,1.167,0,0,0-.9-.35,2.612,2.612,0,0,0-1.95.862,4.741,4.741,0,0,0-1.149,1.988c-.034.15-.072.237-.113.262a1.175,1.175,0,0,1-.413.038Z" style="fill:#83c167"/><path d="M479.2,51.065a.815.815,0,0,1-.642-.263.934.934,0,0,1-.233-.642,2.389,2.389,0,0,1,.8-1.8,2.672,2.672,0,0,1,1.9-.751,3.162,3.162,0,0,1,2.077.677,2.843,2.843,0,0,1,1.013,1.772,4.239,4.239,0,0,1,.029.48,2.762,2.762,0,0,1-.509,1.589,9.714,9.714,0,0,1-1.648,1.676q-.524.453-1.457,1.341l-.86.816,1.108.015a17.908,17.908,0,0,0,2.434-.072c.039-.01.088-.113.145-.307a8.911,8.911,0,0,0,.2-.991v-.044h.583v.044l-.408,2.667v.044h-5.407V57.04a1.007,1.007,0,0,1,.029-.336q.015-.012,1.225-1.383,1.587-1.764,2.04-2.333a4.225,4.225,0,0,0,.976-2.434,2.541,2.541,0,0,0-.5-1.61,1.674,1.674,0,0,0-1.406-.649,1.6,1.6,0,0,0-1.37.758c-.019.039-.049.093-.087.16a.331.331,0,0,0-.044.088c0,.01.025.015.073.015a.742.742,0,0,1,.59.261.908.908,0,0,1,.226.613.87.87,0,0,1-.24.619A.828.828,0,0,1,479.2,51.065Z" style="fill:#83c167"/><path d="M486.388,46.917l.1-.025h.551l.7.6q4.5,4.1,4.5,11.9a19.7,19.7,0,0,1-.725,5.55,13.481,13.481,0,0,1-3.775,6.35c-.116.1-.25.212-.4.337s-.25.213-.3.263h-.3a.942.942,0,0,1-.387-.05c-.058-.033-.088-.117-.088-.25q.026-.025.276-.325,3.875-4.026,3.875-11.875t-3.875-11.875q-.25-.3-.276-.325A.293.293,0,0,1,486.388,46.917Z" style="fill:#58c4dd"/><path d="M497.363,54.917a1.4,1.4,0,0,1-1.1-.45,1.594,1.594,0,0,1-.4-1.1,4.1,4.1,0,0,1,1.362-3.088,4.586,4.586,0,0,1,3.263-1.287,5.421,5.421,0,0,1,3.563,1.162,4.887,4.887,0,0,1,1.737,3.038,7.6,7.6,0,0,1,.05.825,4.723,4.723,0,0,1-.875,2.725,16.607,16.607,0,0,1-2.825,2.875q-.9.776-2.5,2.3l-1.475,1.4,1.9.025a29.9,29.9,0,0,0,4.175-.125c.066-.017.15-.191.25-.525a15.75,15.75,0,0,0,.35-1.7v-.075h1v.075l-.7,4.575v.075h-9.275v-.475a1.694,1.694,0,0,1,.05-.575q.024-.025,2.1-2.375,2.726-3.025,3.5-4a7.246,7.246,0,0,0,1.675-4.175,4.383,4.383,0,0,0-.862-2.763,2.881,2.881,0,0,0-2.413-1.112,2.744,2.744,0,0,0-2.35,1.3c-.034.066-.084.158-.15.275a.539.539,0,0,0-.075.15c0,.016.042.025.125.025a1.27,1.27,0,0,1,1.012.45,1.557,1.557,0,0,1,.388,1.05,1.5,1.5,0,0,1-.412,1.063A1.425,1.425,0,0,1,497.363,54.917Z" style="fill:#83c167"/><path d="M508.563,58.692a.417.417,0,0,1-.15-.275,4.747,4.747,0,0,1,.775-1.725,4.286,4.286,0,0,1,2.95-2.05,4.142,4.142,0,0,1,.525-.05,3.035,3.035,0,0,1,1.612.45,2.689,2.689,0,0,1,1.063,1.125c.216-.283.35-.458.4-.525a2.769,2.769,0,0,1,2.125-1.05,2.353,2.353,0,0,1,1.662.588,1.876,1.876,0,0,1,.638,1.437,1.96,1.96,0,0,1-.438,1.3,1.436,1.436,0,0,1-1.162.525,1.1,1.1,0,0,1-.775-.275.936.936,0,0,1-.3-.725,1.59,1.59,0,0,1,1.25-1.575,1.029,1.029,0,0,0-.275-.175,1.425,1.425,0,0,0-.725-.15,1.643,1.643,0,0,0-.475.05,2.618,2.618,0,0,0-1.4,1.65q-.075.2-.725,2.787t-.7,2.913a3.816,3.816,0,0,0-.075.75,1.282,1.282,0,0,0,.35.95,1.252,1.252,0,0,0,.925.35,2.583,2.583,0,0,0,1.9-.887,4.621,4.621,0,0,0,1.15-1.963c.05-.166.1-.263.15-.287a1.18,1.18,0,0,1,.4-.038c.316,0,.475.067.475.2,0,.016-.017.108-.05.275a5.432,5.432,0,0,1-1.75,2.7,3.942,3.942,0,0,1-2.475.925,2.88,2.88,0,0,1-2.65-1.575,3.5,3.5,0,0,1-1.85,1.5,3.222,3.222,0,0,1-.65.05,2.178,2.178,0,0,1-2.05-1.025,1.933,1.933,0,0,1-.25-1,1.892,1.892,0,0,1,.45-1.275,1.447,1.447,0,0,1,1.15-.525.94.94,0,0,1,1.075,1.05,1.411,1.411,0,0,1-.875,1.35l-.125.062-.125.063a.188.188,0,0,1-.075.025l-.075.025q0,.075.375.225a1.677,1.677,0,0,0,.65.125,1.846,1.846,0,0,0,1.55-1.125,18.938,18.938,0,0,0,.975-3.25q.15-.574.325-1.275t.262-1.075c.059-.25.1-.4.113-.45a6.136,6.136,0,0,0,.125-.975,1.344,1.344,0,0,0-.325-.95,1.165,1.165,0,0,0-.9-.35,2.61,2.61,0,0,0-1.95.862,4.744,4.744,0,0,0-1.15,1.988c-.034.15-.071.237-.112.262a1.179,1.179,0,0,1-.413.038Z" style="fill:#83c167"/><path d="M284.643,67.336c.25-.015.534-.037.85-.062s.554-.045.713-.063.245-.023.263-.023c.2,0,.3.066.3.2q0,.175-1.838,7.562t-1.862,7.512a2.145,2.145,0,0,0-.025.375q0,1.052.7,1.051a1.086,1.086,0,0,0,.5-.225,5.667,5.667,0,0,0,1.025-2.4c.1-.334.183-.508.25-.525a.744.744,0,0,1,.25-.026h.1c.316,0,.476.068.476.2a2.148,2.148,0,0,1-.076.4,6.523,6.523,0,0,1-1.35,2.9,2.474,2.474,0,0,1-.8.526,2.687,2.687,0,0,1-.6.05,2.257,2.257,0,0,1-2.2-1.224,2.035,2.035,0,0,0-.125-.3c-.016-.016-.05-.008-.1.025l-.1.1a5.111,5.111,0,0,1-2.375,1.375,4.95,4.95,0,0,1-.625.025,3.319,3.319,0,0,1-2.725-1.375,4.866,4.866,0,0,1-.75-2.8,7.64,7.64,0,0,1,1.7-4.6,6.536,6.536,0,0,1,3.449-2.375,3.718,3.718,0,0,1,1.025-.15,2.393,2.393,0,0,1,2.1,1.05c.084.1.125.133.125.1q.024-.1.687-2.738t.688-2.762a.45.45,0,0,0-.15-.4,3.727,3.727,0,0,0-1-.125h-.525a.67.67,0,0,1-.162-.2,2.555,2.555,0,0,1,.062-.474c.083-.317.192-.477.326-.477.015,0,.1-.008.261-.023s.384-.034.676-.051S284.359,67.354,284.643,67.336Zm-2.15,9.051q-.549-1.974-1.875-1.975a2.313,2.313,0,0,0-1.763.85,5.932,5.932,0,0,0-1.162,1.949,20,20,0,0,0-1.025,4.1q0,.073-.012.273c-.009.135-.013.235-.013.3a2.456,2.456,0,0,0,.388,1.449,1.3,1.3,0,0,0,1.137.551q1.326,0,2.775-1.8l.2-.273c.15-.6.375-1.5.675-2.713S282.344,76.987,282.493,76.387Z" style="fill:#fff"/><path d="M288.143,77.586a.413.413,0,0,1-.15-.273,4.753,4.753,0,0,1,.775-1.727,4.293,4.293,0,0,1,2.951-2.049,4.114,4.114,0,0,1,.524-.05,3.027,3.027,0,0,1,1.612.451,2.678,2.678,0,0,1,1.063,1.125q.325-.426.4-.526a2.766,2.766,0,0,1,2.125-1.05,2.361,2.361,0,0,1,1.662.587,1.881,1.881,0,0,1,.638,1.438,1.967,1.967,0,0,1-.438,1.3,1.437,1.437,0,0,1-1.162.523,1.1,1.1,0,0,1-.775-.273.941.941,0,0,1-.3-.727,1.589,1.589,0,0,1,1.25-1.574,1.076,1.076,0,0,0-.275-.176,1.435,1.435,0,0,0-.725-.148,1.6,1.6,0,0,0-.474.049,2.616,2.616,0,0,0-1.4,1.65q-.075.2-.724,2.787t-.7,2.912a3.893,3.893,0,0,0-.075.75,1.283,1.283,0,0,0,.35.951,1.253,1.253,0,0,0,.926.35,2.577,2.577,0,0,0,1.9-.887,4.621,4.621,0,0,0,1.15-1.963c.05-.166.1-.263.15-.287a1.2,1.2,0,0,1,.4-.039c.317,0,.475.068.475.2,0,.016-.017.108-.05.276a5.429,5.429,0,0,1-1.75,2.7,3.941,3.941,0,0,1-2.475.926,2.882,2.882,0,0,1-2.65-1.576,3.5,3.5,0,0,1-1.85,1.5,3.222,3.222,0,0,1-.65.05,2.179,2.179,0,0,1-2.05-1.025,1.933,1.933,0,0,1-.25-1,1.9,1.9,0,0,1,.45-1.275,1.447,1.447,0,0,1,1.15-.526.94.94,0,0,1,1.075,1.051,1.412,1.412,0,0,1-.875,1.35l-.125.062-.125.063a.188.188,0,0,1-.075.025l-.074.025c0,.049.125.125.375.225a1.654,1.654,0,0,0,.649.125,1.845,1.845,0,0,0,1.55-1.125,18.872,18.872,0,0,0,.975-3.25c.1-.383.208-.809.326-1.275s.2-.825.261-1.075.1-.4.114-.451a6.1,6.1,0,0,0,.125-.974,1.342,1.342,0,0,0-.326-.95,1.163,1.163,0,0,0-.9-.349,2.614,2.614,0,0,0-1.95.861,4.744,4.744,0,0,0-1.15,1.988c-.034.151-.071.237-.112.262a1.218,1.218,0,0,1-.413.037Z" style="fill:#fff"/><path d="M291.433,33.85c.25-.017.534-.037.85-.063s.554-.046.713-.062.245-.025.263-.025c.2,0,.3.067.3.2q0,.176-1.837,7.562t-1.863,7.513a2.145,2.145,0,0,0-.025.375q0,1.05.7,1.05a1.075,1.075,0,0,0,.5-.225,5.66,5.66,0,0,0,1.025-2.4q.15-.5.25-.525a.754.754,0,0,1,.25-.025h.1c.316,0,.476.067.476.2a2.143,2.143,0,0,1-.076.4,6.521,6.521,0,0,1-1.35,2.9,2.488,2.488,0,0,1-.8.525,2.687,2.687,0,0,1-.6.05,2.256,2.256,0,0,1-2.2-1.225,2.041,2.041,0,0,0-.125-.3c-.016-.016-.05-.008-.1.025s-.068.066-.1.1a5.111,5.111,0,0,1-2.375,1.375,4.95,4.95,0,0,1-.625.025,3.317,3.317,0,0,1-2.725-1.375,4.863,4.863,0,0,1-.75-2.8,7.638,7.638,0,0,1,1.7-4.6,6.541,6.541,0,0,1,3.449-2.375,3.718,3.718,0,0,1,1.025-.15,2.4,2.4,0,0,1,2.1,1.05c.084.1.125.134.125.1q.024-.1.687-2.738t.688-2.762a.45.45,0,0,0-.15-.4,3.77,3.77,0,0,0-1-.125h-.525a.683.683,0,0,1-.162-.2,2.57,2.57,0,0,1,.062-.475c.083-.316.192-.475.326-.475.015,0,.1-.008.261-.025s.384-.033.676-.05Zm-2.15,9.05q-.549-1.976-1.875-1.975a2.309,2.309,0,0,0-1.763.85,5.943,5.943,0,0,0-1.162,1.95,19.98,19.98,0,0,0-1.025,4.1c0,.05,0,.142-.012.275s-.013.233-.013.3a2.461,2.461,0,0,0,.388,1.45,1.3,1.3,0,0,0,1.137.55q1.326,0,2.775-1.8l.2-.275q.225-.9.675-2.713T289.283,42.9Z" style="fill:#f8f8f8"/><path d="M271.343,60c0-.217.223-.384.672-.5h30.607q.721.174.721.5,0,.276-.672.475l-15.28.025H272.11Q271.342,60.376,271.343,60Z" style="fill:#fff"/><path d="M211.888,67.336c.25-.015.534-.037.85-.062s.554-.045.713-.063.245-.023.263-.023c.2,0,.3.066.3.2q0,.175-1.837,7.562t-1.863,7.512a2.145,2.145,0,0,0-.025.375q0,1.052.7,1.051a1.086,1.086,0,0,0,.5-.225,5.667,5.667,0,0,0,1.025-2.4c.1-.334.183-.508.25-.525a.744.744,0,0,1,.25-.026h.1c.316,0,.476.068.476.2a2.148,2.148,0,0,1-.076.4,6.523,6.523,0,0,1-1.35,2.9,2.474,2.474,0,0,1-.8.526,2.687,2.687,0,0,1-.6.05,2.257,2.257,0,0,1-2.2-1.224,2.035,2.035,0,0,0-.125-.3c-.016-.016-.05-.008-.1.025l-.1.1a5.111,5.111,0,0,1-2.375,1.375,4.95,4.95,0,0,1-.625.025,3.319,3.319,0,0,1-2.725-1.375,4.866,4.866,0,0,1-.75-2.8,7.64,7.64,0,0,1,1.7-4.6,6.536,6.536,0,0,1,3.449-2.375,3.718,3.718,0,0,1,1.025-.15,2.393,2.393,0,0,1,2.1,1.05c.084.1.125.133.125.1q.024-.1.687-2.738t.688-2.762a.45.45,0,0,0-.15-.4,3.727,3.727,0,0,0-1-.125h-.525a.67.67,0,0,1-.162-.2,2.555,2.555,0,0,1,.062-.474c.083-.317.192-.477.326-.477.015,0,.1-.008.261-.023s.384-.034.676-.051S211.6,67.354,211.888,67.336Zm-2.15,9.051q-.549-1.974-1.875-1.975a2.313,2.313,0,0,0-1.763.85,5.949,5.949,0,0,0-1.162,1.949,20,20,0,0,0-1.025,4.1q0,.073-.012.273c-.009.135-.013.235-.013.3a2.456,2.456,0,0,0,.388,1.449,1.3,1.3,0,0,0,1.137.551q1.326,0,2.775-1.8l.2-.273c.15-.6.375-1.5.675-2.713S209.589,76.987,209.738,76.387Z" style="fill:#fff"/><path d="M215.388,77.586a.413.413,0,0,1-.15-.273,4.753,4.753,0,0,1,.775-1.727,4.293,4.293,0,0,1,2.951-2.049,4.114,4.114,0,0,1,.524-.05,3.027,3.027,0,0,1,1.612.451,2.672,2.672,0,0,1,1.063,1.125q.325-.426.4-.526a2.766,2.766,0,0,1,2.125-1.05,2.36,2.36,0,0,1,1.662.587,1.881,1.881,0,0,1,.638,1.438,1.966,1.966,0,0,1-.437,1.3,1.439,1.439,0,0,1-1.163.523,1.1,1.1,0,0,1-.775-.273.941.941,0,0,1-.3-.727,1.589,1.589,0,0,1,1.25-1.574,1.076,1.076,0,0,0-.275-.176,1.435,1.435,0,0,0-.725-.148,1.6,1.6,0,0,0-.474.049,2.616,2.616,0,0,0-1.4,1.65q-.075.2-.724,2.787t-.7,2.912a3.893,3.893,0,0,0-.075.75,1.283,1.283,0,0,0,.35.951,1.253,1.253,0,0,0,.926.35,2.577,2.577,0,0,0,1.9-.887,4.621,4.621,0,0,0,1.15-1.963c.05-.166.1-.263.15-.287a1.2,1.2,0,0,1,.4-.039c.317,0,.475.068.475.2,0,.016-.017.108-.05.276a5.429,5.429,0,0,1-1.75,2.7,3.941,3.941,0,0,1-2.475.926,2.882,2.882,0,0,1-2.65-1.576,3.5,3.5,0,0,1-1.85,1.5,3.222,3.222,0,0,1-.65.05,2.179,2.179,0,0,1-2.05-1.025,1.933,1.933,0,0,1-.25-1,1.9,1.9,0,0,1,.45-1.275,1.447,1.447,0,0,1,1.15-.526.94.94,0,0,1,1.075,1.051,1.412,1.412,0,0,1-.875,1.35l-.125.062-.125.063a.188.188,0,0,1-.075.025l-.074.025c0,.049.125.125.375.225a1.654,1.654,0,0,0,.649.125,1.845,1.845,0,0,0,1.55-1.125,18.872,18.872,0,0,0,.975-3.25c.1-.383.208-.809.326-1.275s.2-.825.261-1.075.1-.4.114-.451a6.1,6.1,0,0,0,.125-.974,1.342,1.342,0,0,0-.326-.95,1.163,1.163,0,0,0-.9-.349,2.614,2.614,0,0,0-1.95.861,4.744,4.744,0,0,0-1.15,1.988c-.034.151-.071.237-.112.262a1.218,1.218,0,0,1-.413.037Z" style="fill:#fff"/><path d="M212.33,33.85c.25-.017.533-.037.849-.063s.554-.046.713-.062.246-.025.263-.025c.2,0,.3.067.3.2q0,.176-1.838,7.562t-1.862,7.513a2.032,2.032,0,0,0-.026.375q0,1.05.7,1.05a1.067,1.067,0,0,0,.5-.225,5.658,5.658,0,0,0,1.026-2.4c.1-.333.183-.508.25-.525a.745.745,0,0,1,.25-.025h.1q.476,0,.476.2a2.111,2.111,0,0,1-.075.4,6.51,6.51,0,0,1-1.351,2.9,2.467,2.467,0,0,1-.8.525,2.677,2.677,0,0,1-.6.05,2.256,2.256,0,0,1-2.2-1.225,2.041,2.041,0,0,0-.125-.3c-.017-.016-.05-.008-.1.025l-.1.1a5.1,5.1,0,0,1-2.375,1.375,4.927,4.927,0,0,1-.625.025,3.316,3.316,0,0,1-2.724-1.375,4.863,4.863,0,0,1-.75-2.8,7.636,7.636,0,0,1,1.7-4.6,6.545,6.545,0,0,1,3.449-2.375A3.731,3.731,0,0,1,208.38,40a2.392,2.392,0,0,1,2.1,1.05c.084.1.125.134.125.1l.688-2.738q.662-2.637.687-2.762a.453.453,0,0,0-.149-.4,3.783,3.783,0,0,0-1-.125H210.3a.7.7,0,0,1-.162-.2,2.627,2.627,0,0,1,.063-.475c.083-.316.191-.475.325-.475.016,0,.1-.008.262-.025s.384-.033.676-.05Zm-2.151,9.05q-.549-1.976-1.875-1.975a2.309,2.309,0,0,0-1.762.85,5.909,5.909,0,0,0-1.162,1.95,19.918,19.918,0,0,0-1.026,4.1c0,.05,0,.142-.011.275s-.013.233-.013.3a2.461,2.461,0,0,0,.388,1.45,1.3,1.3,0,0,0,1.136.55q1.326,0,2.776-1.8l.2-.275q.224-.9.675-2.713T210.179,42.9Z" style="fill:#f8f8f8"/><path d="M217.33,55.1q.675.15.724.15.576,0,1-1.05.3-.825,1.826-8.9.7-3.775.724-3.8v-.075h-1.175a6.785,6.785,0,0,1-1.25-.05c-.116-.066-.133-.25-.049-.55a2.118,2.118,0,0,1,.125-.4.225.225,0,0,1,.213-.138c.107-.008.5-.012,1.162-.012a10.732,10.732,0,0,0,1.2-.025q0-.05.224-1.25c.151-.8.25-1.283.3-1.45a6.1,6.1,0,0,1,1.575-3.3,3.232,3.232,0,0,1,2.076-.825,2.55,2.55,0,0,1,1.512.55,1.625,1.625,0,0,1,.613,1.325,1.766,1.766,0,0,1-.451,1.225,1.446,1.446,0,0,1-1.125.5q-1.1,0-1.1-1.05a1.411,1.411,0,0,1,.875-1.35l.224-.125a2.457,2.457,0,0,0-.75-.15q-.725,0-.95.95-.2.75-.649,3.275l-.325,1.65a7.064,7.064,0,0,0,1.375.05q1.125,0,1.349.025c.151.017.226.075.226.175a2.81,2.81,0,0,1-.175.8.244.244,0,0,1-.238.137q-.187.014-1.337.013h-1.4l-.575,3.05q-.924,4.774-1.149,5.775-.851,3.776-2.276,5.125a2.817,2.817,0,0,1-1.825.8,2.269,2.269,0,0,1-1.5-.5,1.642,1.642,0,0,1-.6-1.325,1.847,1.847,0,0,1,.45-1.263,1.434,1.434,0,0,1,1.125-.512q1.1,0,1.1,1.05a1.411,1.411,0,0,1-.875,1.35Z" style="fill:#f8f8f8"/><path d="M198.587,60q0-.325.672-.5h30.608q.72.174.72.5c0,.184-.223.342-.672.475l-15.28.025h-15.28Q198.587,60.376,198.587,60Z" style="fill:#fff"/><path d="M242.064,57.967a.543.543,0,0,1,.35-.5h15.925a.546.546,0,0,1,.375.5.567.567,0,0,1-.35.475l-7.95.025h-7.95A.5.5,0,0,1,242.064,57.967Zm0,4.85a.5.5,0,0,1,.4-.5h15.9a1.358,1.358,0,0,0,.112.087,1.153,1.153,0,0,1,.125.1.411.411,0,0,1,.076.125.492.492,0,0,1,.037.188.548.548,0,0,1-.375.5H242.414A.545.545,0,0,1,242.064,62.817Z" style="fill:#fff"/></svg>