<svg xmlns="http://www.w3.org/2000/svg" width="720" height="400" viewBox="0 0 720 400"><rect width="720" height="400"/><rect x="89.908" y="114.49" width="212.132" height="185.055" style="fill:#58c4dd"/><path d="M174.522,55.183a1.069,1.069,0,0,1,.75.274.943.943,0,0,1,.3.726,1.526,1.526,0,0,1-.5,1.149c-.117.118-.159.176-.125.176a8.094,8.094,0,0,0,1.5.074,3.153,3.153,0,0,0,1.5-.3,3.45,3.45,0,0,0,1.075-.837,3.343,3.343,0,0,0,.7-1.163q.151-.475.4-1.55a9.839,9.839,0,0,0,.325-1.4,5,5,0,0,1-2,1.026,3.84,3.84,0,0,1-.625.05,3.14,3.14,0,0,1-2.562-1.138,4.349,4.349,0,0,1-.938-2.862,6.674,6.674,0,0,1,.725-3.025,7.205,7.205,0,0,1,3.3-3.475,5.056,5.056,0,0,1,2.176-.55,2.9,2.9,0,0,1,2.175,1.2.866.866,0,0,0,.1-.125,1.147,1.147,0,0,1,1.049-.575.893.893,0,0,1,.576.2.616.616,0,0,1,.25.5q0,.375-1.425,6.05t-1.5,5.8a4.277,4.277,0,0,1-1.963,2.237,6.383,6.383,0,0,1-3.337.888q-2.875,0-3.4-1.1a1.243,1.243,0,0,1-.125-.6,1.666,1.666,0,0,1,.45-1.149A1.475,1.475,0,0,1,174.522,55.183Zm7.75-9.976a6.019,6.019,0,0,0-.387-1,1.922,1.922,0,0,0-.588-.636,1.626,1.626,0,0,0-.975-.288c-.034,0-.088,0-.163.012s-.121.013-.137.013a3.19,3.19,0,0,0-1.825,1.3,10.164,10.164,0,0,0-1.325,3.375,11.629,11.629,0,0,0-.425,2.5q0,1.974,1.55,1.974a3.61,3.61,0,0,0,2.75-1.75l.2-.25Q181.847,46.958,182.272,45.207Z" style="fill:#fff"/><path d="M192.922,59.433c0,.149-.151.225-.451.225h-.325l-.7-.6q-4.5-4.1-4.5-11.9a20.141,20.141,0,0,1,.725-5.576,13.478,13.478,0,0,1,3.775-6.324c.116-.1.25-.213.4-.338s.25-.213.3-.262h.325a.589.589,0,0,1,.375.075.216.216,0,0,1,.076.15q0,.1-.276.375-3.874,4.1-3.875,11.9t3.875,11.9Q192.922,59.332,192.922,59.433Z" style="fill:#fff"/><path d="M195.771,46.457a.417.417,0,0,1-.15-.274,4.757,4.757,0,0,1,.775-1.726,4.29,4.29,0,0,1,2.95-2.049,3.975,3.975,0,0,1,.525-.05,3.039,3.039,0,0,1,1.613.45,2.7,2.7,0,0,1,1.063,1.125q.324-.425.4-.525a2.766,2.766,0,0,1,2.125-1.05,2.357,2.357,0,0,1,1.663.588,1.879,1.879,0,0,1,.637,1.437,1.962,1.962,0,0,1-.438,1.3,1.434,1.434,0,0,1-1.162.524,1.1,1.1,0,0,1-.775-.274.942.942,0,0,1-.3-.726,1.59,1.59,0,0,1,1.25-1.574,1.048,1.048,0,0,0-.274-.176,1.441,1.441,0,0,0-.726-.149,1.643,1.643,0,0,0-.475.05,2.615,2.615,0,0,0-1.4,1.65q-.075.2-.725,2.787t-.7,2.912a3.816,3.816,0,0,0-.075.75,1.28,1.28,0,0,0,.351.951,1.248,1.248,0,0,0,.924.35,2.577,2.577,0,0,0,1.9-.888,4.617,4.617,0,0,0,1.15-1.962c.05-.166.1-.263.151-.288a1.2,1.2,0,0,1,.4-.038c.317,0,.476.068.476.2,0,.016-.018.108-.051.275a5.432,5.432,0,0,1-1.75,2.7,3.946,3.946,0,0,1-2.475.925A2.88,2.88,0,0,1,200,52.108a3.5,3.5,0,0,1-1.85,1.5,3.222,3.222,0,0,1-.65.05,2.178,2.178,0,0,1-2.05-1.025,1.933,1.933,0,0,1-.25-1,1.891,1.891,0,0,1,.45-1.275,1.449,1.449,0,0,1,1.151-.526.94.94,0,0,1,1.074,1.051,1.411,1.411,0,0,1-.875,1.35l-.125.062-.125.063a.209.209,0,0,1-.074.025l-.076.025c0,.049.125.125.375.225a1.684,1.684,0,0,0,.65.125,1.848,1.848,0,0,0,1.551-1.125,19.049,19.049,0,0,0,.974-3.25c.1-.384.208-.808.325-1.275s.2-.825.263-1.075.1-.4.112-.451a6,6,0,0,0,.125-.974,1.337,1.337,0,0,0-.325-.95,1.163,1.163,0,0,0-.9-.35,2.607,2.607,0,0,0-1.949.862,4.74,4.74,0,0,0-1.151,1.988c-.033.15-.071.237-.112.262a1.191,1.191,0,0,1-.413.037Z" style="fill:#fff"/><path d="M210.121,34.683l.1-.025h.55c.117.1.35.3.7.6q4.5,4.1,4.5,11.9a19.729,19.729,0,0,1-.725,5.549,13.492,13.492,0,0,1-3.775,6.351q-.175.15-.4.337c-.15.125-.25.213-.3.263h-.3a.936.936,0,0,1-.387-.05c-.059-.033-.088-.117-.088-.25.017-.017.108-.125.275-.325q3.875-4.026,3.875-11.875t-3.875-11.875c-.167-.2-.258-.308-.275-.326A.294.294,0,0,1,210.121,34.683Z" style="fill:#fff"/><path d="M33.48,210.805c.067,0,.18.079.338.237s.237.272.237.338q0,.227-.774.925a7.279,7.279,0,0,1-3.926,1.75q-.549.049-.974.05a3.775,3.775,0,0,1-3.725-2.2,4.426,4.426,0,0,1-.476-2.051,6.356,6.356,0,0,1,.476-2.35,7.494,7.494,0,0,1,2.362-3.187,6.672,6.672,0,0,1,3.488-1.513,3.165,3.165,0,0,1,.474-.024,4.69,4.69,0,0,1,1.625.274,2,2,0,0,1,1.4,1.9,1.736,1.736,0,0,1-.475,1.263,1.609,1.609,0,0,1-1.2.487,1.037,1.037,0,0,1-.75-.262.97.97,0,0,1-.276-.738,1.536,1.536,0,0,1,.25-.825,1.447,1.447,0,0,1,.651-.575.69.69,0,0,1,.274-.125c.067,0,.009-.058-.175-.175a2.661,2.661,0,0,0-1.325-.275,3.061,3.061,0,0,0-1.425.35,3.563,3.563,0,0,0-1.075.775,5.09,5.09,0,0,0-1.05,1.551,15.529,15.529,0,0,0-.8,2.574,8.686,8.686,0,0,0-.276,1.875,2.18,2.18,0,0,0,.651,1.725,2.043,2.043,0,0,0,1.549.6,6.334,6.334,0,0,0,.776-.05,6.126,6.126,0,0,0,3.849-2.075C33.331,210.889,33.43,210.805,33.48,210.805Z" style="fill:#f0ac5f"/><path d="M73.908,114.644c0,.2-.16.326-.481.382s-.876.117-1.667.182a15.848,15.848,0,0,0-2.075.3q-6.444,1.4-6.444,5.544v79.286q0,5.274-8.944,6.77,8.945,1.5,8.944,6.427v78.94a8.336,8.336,0,0,0,.148,1.814,5.33,5.33,0,0,0,2.871,2.968,14.545,14.545,0,0,0,5.834,1.5c.048,0,.191.008.425.025s.4.032.5.048.235.042.408.075a.638.638,0,0,1,.37.18.417.417,0,0,1,.111.281c0,.426-5.5.124-8.384-.9s-4.509-2.521-4.876-4.479a10.718,10.718,0,0,1-.073-1.456V213.775a4.594,4.594,0,0,0-.981-2.919A5.822,5.822,0,0,0,57.056,209a24.12,24.12,0,0,0-2.611-.871,13.405,13.405,0,0,0-2.13-.367q-.222,0-.647-.026a4.216,4.216,0,0,1-.686-.085c-.172-.041-.346-.078-.518-.11a.887.887,0,0,1-.408-.172.353.353,0,0,1-.148-.27.457.457,0,0,1,.111-.319.765.765,0,0,1,.408-.184,4.966,4.966,0,0,1,.611-.086c.209-.016.488-.04.834-.073s.666-.065.962-.1a13.826,13.826,0,0,0,4.945-1.544,4.854,4.854,0,0,0,2.648-3.067,5.44,5.44,0,0,0,.148-1.471V121.341a7.727,7.727,0,0,1,.128-1.573,4.634,4.634,0,0,1,.99-1.646,7.679,7.679,0,0,1,2.511-1.9C67.243,114.361,73.908,114.32,73.908,114.644Z" style="fill:#f8f8f8"/><path d="M301.863,98.49c-.226,0-.372-.16-.436-.482s-.134-.876-.209-1.666a14.049,14.049,0,0,0-.336-2.075q-1.6-6.444-6.34-6.444H203.876q-6.032,0-7.742-8.944-1.71,8.943-7.349,8.944H98.514a10.874,10.874,0,0,0-2.075.148,5.846,5.846,0,0,0-3.394,2.871,13.135,13.135,0,0,0-1.711,5.833c0,.049-.009.192-.028.425s-.037.4-.056.5-.048.236-.086.408a.606.606,0,0,1-.2.37.512.512,0,0,1-.321.112c-.487,0-.142-5.5,1.033-8.385s2.883-4.509,5.123-4.875a13.963,13.963,0,0,1,1.664-.073H188.5a5.756,5.756,0,0,0,3.338-.982,5.924,5.924,0,0,0,2.118-2.537,22.063,22.063,0,0,0,1-2.612,11.827,11.827,0,0,0,.42-2.129c0-.148.011-.364.029-.648a3.647,3.647,0,0,1,.1-.685q.071-.259.126-.518a.822.822,0,0,1,.2-.409.422.422,0,0,1,.308-.147.567.567,0,0,1,.365.111.717.717,0,0,1,.21.408,4.164,4.164,0,0,1,.1.611q.029.313.084.833c.038.346.075.666.113.963a12.622,12.622,0,0,0,1.766,4.945,5.417,5.417,0,0,0,3.507,2.648,7.079,7.079,0,0,0,1.683.148h90.246a10,10,0,0,1,1.8.128,5.5,5.5,0,0,1,1.882.99,7.9,7.9,0,0,1,2.171,2.511C302.187,91.825,302.234,98.49,301.863,98.49Z" style="fill:#f8f8f8"/><path d="M461.726,217.879c.451.1.692.151.725.151q.576,0,1-1.05.3-.826,1.825-8.9.7-3.774.725-3.8V204.2h-1.175a6.848,6.848,0,0,1-1.25-.049c-.116-.067-.134-.25-.05-.55a2.341,2.341,0,0,1,.125-.4.225.225,0,0,1,.213-.137c.107-.008.5-.013,1.162-.013a11.273,11.273,0,0,0,1.2-.024c0-.034.076-.451.225-1.25s.25-1.284.3-1.451a6.092,6.092,0,0,1,1.575-3.3,3.231,3.231,0,0,1,2.075-.826,2.557,2.557,0,0,1,1.513.55,1.628,1.628,0,0,1,.612,1.325,1.763,1.763,0,0,1-.45,1.225,1.448,1.448,0,0,1-1.125.5q-1.1,0-1.1-1.05a1.41,1.41,0,0,1,.875-1.349l.225-.125a2.443,2.443,0,0,0-.75-.151c-.483,0-.8.318-.95.95q-.2.75-.65,3.276L468.276,203a7.064,7.064,0,0,0,1.375.05q1.125,0,1.35.025c.15.017.225.076.225.175a2.794,2.794,0,0,1-.174.8.248.248,0,0,1-.239.138c-.125.009-.57.012-1.337.012h-1.4l-.575,3.05q-.924,4.776-1.15,5.776-.851,3.774-2.275,5.125a2.817,2.817,0,0,1-1.825.8,2.266,2.266,0,0,1-1.5-.5,1.64,1.64,0,0,1-.6-1.325,1.848,1.848,0,0,1,.45-1.262,1.434,1.434,0,0,1,1.125-.512q1.1,0,1.1,1.05a1.411,1.411,0,0,1-.875,1.349Z" style="fill:#fff"/><path d="M479.351,219.855q0,.224-.45.224h-.325l-.7-.6q-4.5-4.1-4.5-11.9A20.176,20.176,0,0,1,474.1,202a13.494,13.494,0,0,1,3.775-6.325q.176-.15.4-.337c.151-.125.25-.213.3-.263h.325a.592.592,0,0,1,.375.076.212.212,0,0,1,.075.149c0,.067-.091.192-.275.375q-3.875,4.1-3.875,11.9t3.875,11.9C479.26,219.662,479.351,219.787,479.351,219.855Z" style="fill:#fff"/><path d="M482.2,206.879a.409.409,0,0,1-.15-.274,4.75,4.75,0,0,1,.775-1.726,4.292,4.292,0,0,1,2.95-2.05,4.083,4.083,0,0,1,.525-.049,3.026,3.026,0,0,1,1.612.45,2.68,2.68,0,0,1,1.062,1.125c.217-.283.351-.459.4-.526a2.768,2.768,0,0,1,2.125-1.049,2.358,2.358,0,0,1,1.662.587,1.878,1.878,0,0,1,.638,1.437,1.963,1.963,0,0,1-.438,1.3,1.439,1.439,0,0,1-1.162.524,1.1,1.1,0,0,1-.775-.274.937.937,0,0,1-.3-.726,1.59,1.59,0,0,1,1.25-1.575,1.056,1.056,0,0,0-.276-.175,1.433,1.433,0,0,0-.724-.149,1.608,1.608,0,0,0-.475.05,2.613,2.613,0,0,0-1.4,1.649q-.075.2-.725,2.788t-.7,2.912a3.816,3.816,0,0,0-.075.75,1.282,1.282,0,0,0,.349.95,1.25,1.25,0,0,0,.926.35,2.581,2.581,0,0,0,1.9-.887,4.615,4.615,0,0,0,1.15-1.963c.05-.166.1-.262.149-.287a1.22,1.22,0,0,1,.4-.038c.316,0,.474.068.474.2,0,.017-.016.109-.049.276a5.442,5.442,0,0,1-1.75,2.7,3.945,3.945,0,0,1-2.475.926,2.882,2.882,0,0,1-2.65-1.575,3.5,3.5,0,0,1-1.85,1.5,3.236,3.236,0,0,1-.65.049,2.178,2.178,0,0,1-2.05-1.025,1.931,1.931,0,0,1-.25-1,1.888,1.888,0,0,1,.45-1.274,1.444,1.444,0,0,1,1.149-.526.94.94,0,0,1,1.076,1.05,1.414,1.414,0,0,1-.875,1.351l-.125.062-.125.063a.2.2,0,0,1-.076.024l-.074.025q0,.075.375.225a1.655,1.655,0,0,0,.65.125,1.844,1.844,0,0,0,1.549-1.125,18.8,18.8,0,0,0,.976-3.25q.15-.575.325-1.274t.262-1.076c.058-.25.1-.4.113-.45a6.127,6.127,0,0,0,.125-.974,1.346,1.346,0,0,0-.325-.951,1.169,1.169,0,0,0-.9-.349,2.614,2.614,0,0,0-1.951.862,4.742,4.742,0,0,0-1.149,1.987c-.034.151-.071.238-.112.263a1.218,1.218,0,0,1-.413.037Z" style="fill:#fff"/><path d="M496.551,195.105l.1-.026h.551l.7.6q4.5,4.1,4.5,11.9a19.732,19.732,0,0,1-.724,5.55,13.493,13.493,0,0,1-3.776,6.351c-.116.1-.25.212-.4.337s-.25.213-.3.262h-.3a.948.948,0,0,1-.387-.049c-.058-.035-.087-.118-.087-.25.016-.017.108-.125.275-.326q3.874-4.025,3.875-11.875T496.7,195.7q-.251-.3-.275-.325A.291.291,0,0,1,496.551,195.105Z" style="fill:#fff"/><path d="M512.426,205.155a.543.543,0,0,1,.349-.5H528.7a.546.546,0,0,1,.375.5.565.565,0,0,1-.35.474l-7.95.026h-7.95A.494.494,0,0,1,512.426,205.155Zm0,4.849a.5.5,0,0,1,.4-.5h15.9a1.053,1.053,0,0,0,.113.088,1.238,1.238,0,0,1,.125.1.412.412,0,0,1,.075.125.487.487,0,0,1,.037.187.546.546,0,0,1-.375.5H512.775A.543.543,0,0,1,512.426,210Z" style="fill:#fff"/><path d="M546.876,210.8c.066,0,.179.08.337.238s.237.271.237.337q0,.227-.774.925a7.275,7.275,0,0,1-3.925,1.75c-.367.033-.693.051-.976.051a3.777,3.777,0,0,1-3.724-2.2,4.406,4.406,0,0,1-.476-2.05,6.337,6.337,0,0,1,.476-2.351,7.494,7.494,0,0,1,2.362-3.187A6.676,6.676,0,0,1,543.9,202.8a3.361,3.361,0,0,1,.476-.024,4.694,4.694,0,0,1,1.625.274,2,2,0,0,1,1.4,1.9,1.736,1.736,0,0,1-.474,1.263,1.608,1.608,0,0,1-1.2.487,1.043,1.043,0,0,1-.75-.262.973.973,0,0,1-.275-.738,1.544,1.544,0,0,1,.25-.825,1.449,1.449,0,0,1,.65-.575.688.688,0,0,1,.276-.125c.066,0,.008-.058-.176-.175a2.671,2.671,0,0,0-1.324-.274,3.061,3.061,0,0,0-1.426.349,3.541,3.541,0,0,0-1.074.776,5.07,5.07,0,0,0-1.051,1.55,15.5,15.5,0,0,0-.8,2.575,8.708,8.708,0,0,0-.274,1.875,2.181,2.181,0,0,0,.649,1.724,2.045,2.045,0,0,0,1.55.6,6.106,6.106,0,0,0,4.625-2.125C546.725,210.888,546.825,210.8,546.876,210.8Z" style="fill:#f0ac5f"/><path d="M555.751,207.579a1.454,1.454,0,0,1,1.5-1.5,1.479,1.479,0,0,1,1.087.438,1.417,1.417,0,0,1,.437,1.037,1.512,1.512,0,0,1-3.024.025Z" style="fill:#fff"/><path d="M568.849,215.605a1.065,1.065,0,0,1,.75.274.936.936,0,0,1,.3.726,1.527,1.527,0,0,1-.5,1.149c-.117.116-.159.175-.125.175a7.957,7.957,0,0,0,1.5.075,3.14,3.14,0,0,0,1.5-.3,3.42,3.42,0,0,0,1.074-.837,3.356,3.356,0,0,0,.7-1.163c.1-.316.233-.834.4-1.549a10,10,0,0,0,.325-1.4,4.99,4.99,0,0,1-2,1.026,3.842,3.842,0,0,1-.625.049,3.139,3.139,0,0,1-2.562-1.137,4.35,4.35,0,0,1-.938-2.863,6.677,6.677,0,0,1,.725-3.025,7.207,7.207,0,0,1,3.3-3.475,5.056,5.056,0,0,1,2.174-.549,2.891,2.891,0,0,1,2.176,1.2.8.8,0,0,0,.1-.125,1.148,1.148,0,0,1,1.05-.575.893.893,0,0,1,.575.2.617.617,0,0,1,.25.5q0,.375-1.425,6.05t-1.5,5.8a4.28,4.28,0,0,1-1.963,2.238,6.382,6.382,0,0,1-3.337.887q-2.875,0-3.4-1.1a1.235,1.235,0,0,1-.125-.6,1.666,1.666,0,0,1,.45-1.149A1.475,1.475,0,0,1,568.849,215.605Zm7.75-9.976a5.824,5.824,0,0,0-.386-1,1.925,1.925,0,0,0-.588-.637,1.626,1.626,0,0,0-.975-.288,1.5,1.5,0,0,0-.163.013c-.075.009-.121.013-.138.013a3.179,3.179,0,0,0-1.824,1.3,10.145,10.145,0,0,0-1.325,3.375,11.547,11.547,0,0,0-.425,2.5q0,1.974,1.55,1.974a3.61,3.61,0,0,0,2.75-1.75l.2-.25Q576.175,207.38,576.6,205.629Z" style="fill:#fff"/><path d="M587.25,219.855c0,.149-.151.224-.45.224h-.326l-.7-.6q-4.5-4.1-4.5-11.9A20.138,20.138,0,0,1,582,202a13.485,13.485,0,0,1,3.774-6.325c.117-.1.25-.212.4-.337s.25-.213.3-.263h.326a.592.592,0,0,1,.375.076.216.216,0,0,1,.075.149q0,.1-.276.375-3.875,4.1-3.875,11.9t3.875,11.9Q587.25,219.753,587.25,219.855Z" style="fill:#fff"/><path d="M590.1,206.879a.413.413,0,0,1-.15-.274,4.75,4.75,0,0,1,.775-1.726,4.294,4.294,0,0,1,2.951-2.05,4.071,4.071,0,0,1,.524-.049,3.026,3.026,0,0,1,1.612.45,2.683,2.683,0,0,1,1.063,1.125c.217-.283.35-.459.4-.526a2.768,2.768,0,0,1,2.125-1.049,2.355,2.355,0,0,1,1.662.587,1.878,1.878,0,0,1,.638,1.437,1.962,1.962,0,0,1-.437,1.3,1.44,1.44,0,0,1-1.163.524,1.1,1.1,0,0,1-.775-.274.94.94,0,0,1-.3-.726,1.59,1.59,0,0,1,1.25-1.575,1.06,1.06,0,0,0-.275-.175,1.434,1.434,0,0,0-.725-.149,1.6,1.6,0,0,0-.474.05,2.614,2.614,0,0,0-1.4,1.649q-.075.2-.724,2.788t-.7,2.912a3.893,3.893,0,0,0-.075.75,1.279,1.279,0,0,0,.35.95,1.249,1.249,0,0,0,.926.35,2.577,2.577,0,0,0,1.9-.887,4.615,4.615,0,0,0,1.15-1.963c.05-.166.1-.262.15-.287a1.212,1.212,0,0,1,.4-.038c.317,0,.475.068.475.2,0,.017-.017.109-.05.276a5.429,5.429,0,0,1-1.75,2.7,3.941,3.941,0,0,1-2.475.926,2.883,2.883,0,0,1-2.65-1.575,3.5,3.5,0,0,1-1.85,1.5,3.236,3.236,0,0,1-.65.049,2.179,2.179,0,0,1-2.05-1.025,1.931,1.931,0,0,1-.25-1,1.893,1.893,0,0,1,.45-1.274,1.444,1.444,0,0,1,1.15-.526.94.94,0,0,1,1.075,1.05,1.414,1.414,0,0,1-.875,1.351l-.125.062-.125.063a.2.2,0,0,1-.075.024l-.074.025q0,.075.375.225a1.654,1.654,0,0,0,.649.125,1.845,1.845,0,0,0,1.55-1.125,18.838,18.838,0,0,0,.975-3.25q.15-.575.326-1.274t.261-1.076c.059-.25.1-.4.114-.45a6.127,6.127,0,0,0,.125-.974,1.347,1.347,0,0,0-.326-.951,1.166,1.166,0,0,0-.9-.349,2.612,2.612,0,0,0-1.95.862,4.734,4.734,0,0,0-1.15,1.987c-.034.151-.071.238-.112.263a1.218,1.218,0,0,1-.413.037Z" style="fill:#fff"/><path d="M604.45,195.105l.1-.026h.55l.7.6q4.5,4.1,4.5,11.9a19.731,19.731,0,0,1-.725,5.55,13.492,13.492,0,0,1-3.775,6.351c-.117.1-.25.212-.4.337s-.25.213-.3.262h-.3a.944.944,0,0,1-.387-.049c-.059-.035-.088-.118-.088-.25.017-.017.108-.125.275-.326q3.875-4.025,3.875-11.875T604.6,195.7c-.167-.2-.258-.308-.275-.325A.291.291,0,0,1,604.45,195.105Z" style="fill:#fff"/><path d="M461.726,161.05c.451.1.692.151.725.151.384,0,.717-.352,1-1.051q.3-.827,1.825-8.9.7-3.772.725-3.8v-.077h-1.175a6.913,6.913,0,0,1-1.25-.048c-.116-.067-.134-.25-.05-.551a2.379,2.379,0,0,1,.125-.4.223.223,0,0,1,.213-.136c.107-.008.5-.014,1.162-.014a11.89,11.89,0,0,0,1.2-.023c0-.034.076-.452.225-1.25s.25-1.284.3-1.452a6.088,6.088,0,0,1,1.575-3.3,3.227,3.227,0,0,1,2.075-.827,2.551,2.551,0,0,1,1.513.551,1.627,1.627,0,0,1,.612,1.324,1.76,1.76,0,0,1-.45,1.225,1.448,1.448,0,0,1-1.125.5q-1.1,0-1.1-1.049a1.409,1.409,0,0,1,.875-1.349l.225-.125a2.414,2.414,0,0,0-.75-.151q-.725,0-.95.949-.2.75-.65,3.276l-.325,1.65a7.241,7.241,0,0,0,1.375.049c.75,0,1.2.01,1.35.025s.225.077.225.176a2.788,2.788,0,0,1-.174.8.248.248,0,0,1-.239.139q-.187.011-1.337.011h-1.4l-.575,3.051q-.924,4.776-1.15,5.776-.851,3.773-2.275,5.125a2.815,2.815,0,0,1-1.825.8,2.26,2.26,0,0,1-1.5-.5,1.639,1.639,0,0,1-.6-1.324,1.855,1.855,0,0,1,.45-1.264,1.436,1.436,0,0,1,1.125-.511c.734,0,1.1.349,1.1,1.051a1.412,1.412,0,0,1-.875,1.349Z" style="fill:#fff"/><path d="M479.351,163.025c0,.15-.15.224-.45.224h-.325q-.174-.148-.7-.6-4.5-4.1-4.5-11.9a20.169,20.169,0,0,1,.725-5.574,13.5,13.5,0,0,1,3.775-6.326c.117-.1.25-.211.4-.336s.25-.213.3-.264h.325a.583.583,0,0,1,.375.077.21.21,0,0,1,.075.148c0,.068-.091.193-.275.375q-3.875,4.1-3.875,11.9t3.875,11.9C479.26,162.833,479.351,162.958,479.351,163.025Z" style="fill:#fff"/><path d="M482.2,150.05a.409.409,0,0,1-.15-.275,4.747,4.747,0,0,1,.775-1.725,4.291,4.291,0,0,1,2.95-2.051,4.04,4.04,0,0,1,.525-.048,3.025,3.025,0,0,1,1.612.449,2.692,2.692,0,0,1,1.062,1.125c.217-.283.351-.459.4-.526a2.77,2.77,0,0,1,2.125-1.048,2.362,2.362,0,0,1,1.662.585,1.881,1.881,0,0,1,.638,1.438,1.961,1.961,0,0,1-.438,1.3,1.44,1.44,0,0,1-1.162.525,1.1,1.1,0,0,1-.775-.275.936.936,0,0,1-.3-.725,1.591,1.591,0,0,1,1.25-1.576,1.04,1.04,0,0,0-.276-.174,1.432,1.432,0,0,0-.724-.15,1.6,1.6,0,0,0-.475.051,2.611,2.611,0,0,0-1.4,1.648c-.05.135-.292,1.062-.725,2.789s-.667,2.695-.7,2.912a3.816,3.816,0,0,0-.075.75,1.278,1.278,0,0,0,.349.949,1.246,1.246,0,0,0,.926.35,2.581,2.581,0,0,0,1.9-.887,4.621,4.621,0,0,0,1.15-1.963c.05-.166.1-.261.149-.287a1.231,1.231,0,0,1,.4-.037c.316,0,.474.067.474.2,0,.018-.016.11-.049.276a5.442,5.442,0,0,1-1.75,2.7,3.945,3.945,0,0,1-2.475.926,2.883,2.883,0,0,1-2.65-1.574,3.5,3.5,0,0,1-1.85,1.5,3.25,3.25,0,0,1-.65.048,2.178,2.178,0,0,1-2.05-1.025,1.928,1.928,0,0,1-.25-1,1.885,1.885,0,0,1,.45-1.273,1.441,1.441,0,0,1,1.149-.526.94.94,0,0,1,1.076,1.049,1.415,1.415,0,0,1-.875,1.352c-.034.015-.076.037-.125.062s-.092.045-.125.063a.216.216,0,0,1-.076.023l-.074.025c0,.051.125.125.375.225a1.655,1.655,0,0,0,.65.125,1.844,1.844,0,0,0,1.549-1.125,18.762,18.762,0,0,0,.976-3.25q.15-.574.325-1.273c.116-.467.2-.827.262-1.077s.1-.4.113-.449a6.154,6.154,0,0,0,.125-.974,1.35,1.35,0,0,0-.325-.952,1.173,1.173,0,0,0-.9-.349,2.611,2.611,0,0,0-1.951.863,4.733,4.733,0,0,0-1.149,1.986c-.034.151-.071.239-.112.264a1.278,1.278,0,0,1-.413.037Z" style="fill:#fff"/><path d="M496.551,138.275l.1-.026h.551l.7.6q4.5,4.1,4.5,11.9a19.74,19.74,0,0,1-.724,5.551,13.49,13.49,0,0,1-3.776,6.35c-.116.1-.25.213-.4.338s-.25.213-.3.261h-.3a.953.953,0,0,1-.387-.048c-.058-.036-.087-.118-.087-.25.016-.018.108-.125.275-.327q3.874-4.024,3.875-11.875T496.7,138.874c-.167-.2-.259-.308-.275-.324A.294.294,0,0,1,496.551,138.275Z" style="fill:#fff"/><path d="M512.426,148.326a.542.542,0,0,1,.349-.5H528.7a.545.545,0,0,1,.375.5.565.565,0,0,1-.35.474l-7.95.026h-7.95A.5.5,0,0,1,512.426,148.326Zm0,4.849a.5.5,0,0,1,.4-.5h15.9a1.416,1.416,0,0,0,.113.088,1.007,1.007,0,0,1,.125.1.4.4,0,0,1,.075.125.487.487,0,0,1,.037.187.547.547,0,0,1-.375.5H512.775A.544.544,0,0,1,512.426,153.175Z" style="fill:#fff"/><path d="M543.1,157q-.448-.072-2.875-.074A21.284,21.284,0,0,0,537.7,157h-.175v-1.15h.375q1.8-.073,2.3-1.049l1.325-3.937q1.3-3.865,2.588-7.7t1.313-3.861c.049-.133.208-.2.474-.2h.226c.333.018.533.076.6.176q.025.025,2.438,7.15t2.987,8.9a.991.991,0,0,0,.175.25,2.986,2.986,0,0,0,1.575.273h.75V157h-.224q-.375-.072-3.175-.074-3.226,0-3.6.074h-.25v-1.15h.325c1.166,0,1.75-.148,1.75-.449q0-.05-.6-1.85l-.6-1.775H542.45l-.5,1.474a13.811,13.811,0,0,0-.5,1.625.363.363,0,0,0,.075.225,1.181,1.181,0,0,0,.638.539,2.578,2.578,0,0,0,1.037.211h.125V157Zm4.026-8.673q-.727-2.178-1.276-3.776l-.5-1.474-1.25,3.75-1.275,3.773q0,.027,2.525.025h2.55Z" style="fill:#58c4dd"/><path d="M556.376,155.849h.349c.651,0,1.041-.115,1.175-.35v-.2c0-.15,0-.342.013-.576s.013-.494.013-.787V148.8l-.026-.576a.831.831,0,0,0-.362-.637,2.953,2.953,0,0,0-1.112-.213h-.451V146.8c0-.383.017-.576.05-.576l.25-.023c.167-.018.4-.034.7-.051l.9-.051q.4-.024.875-.063t.724-.062c.166-.016.258-.023.276-.023h.074v1.724a4.409,4.409,0,0,1,1.051-1.25,2.4,2.4,0,0,1,1.524-.451,2.46,2.46,0,0,1,1.2.275,1.554,1.554,0,0,1,.975,1.426,1.215,1.215,0,0,1-.375.912,1.248,1.248,0,0,1-.9.364,1.227,1.227,0,0,1-.888-.352,1.19,1.19,0,0,1-.362-.9,1.162,1.162,0,0,1,.2-.7.427.427,0,0,0,.05-.125c-.035-.033-.226,0-.576.1a3.062,3.062,0,0,0-.6.375,4.664,4.664,0,0,0-1.151,3.15v.975q-.024.975-.025,1.676v.687c0,.242,0,.455.013.637s.012.352.012.5v.5a.442.442,0,0,0,.3.25,5.2,5.2,0,0,0,1.325.125h.776V157h-.226q-.45-.072-3.175-.074a26.458,26.458,0,0,0-2.8.074h-.2v-1.15Z" style="fill:#58c4dd"/><path d="M575.65,150.874a.5.5,0,0,1-.175.35h-7.049v.375a6.174,6.174,0,0,0,.5,2.8,3.166,3.166,0,0,0,3.1,1.849,2.329,2.329,0,0,0,1.8-.8,3.35,3.35,0,0,0,.775-1.3.866.866,0,0,1,.15-.35.645.645,0,0,1,.4-.076c.333,0,.5.084.5.25a1.184,1.184,0,0,1-.075.326,4.8,4.8,0,0,1-1.513,2.137,3.91,3.91,0,0,1-2.537.838,5.634,5.634,0,0,1-1.1-.125,5.192,5.192,0,0,1-2.551-1.3,5.884,5.884,0,0,1-1.9-4.3,5.807,5.807,0,0,1,1.35-3.889,5.088,5.088,0,0,1,3.325-1.835,1.559,1.559,0,0,1,.35-.026,4.385,4.385,0,0,1,3.463,1.338A5.437,5.437,0,0,1,575.65,150.874Zm-2.05-.75q-.225-2.724-1.85-3.3a1.706,1.706,0,0,0-.525-.1,2.485,2.485,0,0,0-2.125,1.2,5.267,5.267,0,0,0-.65,2.225v.176h5.15Z" style="fill:#58c4dd"/><path d="M580.237,148.974a1.281,1.281,0,0,1-.962.4,1.24,1.24,0,0,1-.95-.4,1.338,1.338,0,0,1-.375-.949,2.007,2.007,0,0,1,.2-.8,2.238,2.238,0,0,1,1.3-1.049,6.631,6.631,0,0,1,2.375-.375,5.329,5.329,0,0,1,2.862.75,3.5,3.5,0,0,1,1.588,1.949,2.559,2.559,0,0,1,.137.787q.014.44.013,2.864,0,2.449.012,2.863a1.414,1.414,0,0,0,.138.637.512.512,0,0,0,.5.349.5.5,0,0,0,.475-.349,3.826,3.826,0,0,0,.15-1.375v-.9h1v.975a7.975,7.975,0,0,1-.075,1.176,2.354,2.354,0,0,1-.825,1.162,2.268,2.268,0,0,1-1.425.463,1.621,1.621,0,0,1-1.112-.438,2.2,2.2,0,0,1-.664-1.062v-.1q-.074.073-.3.338c-.15.174-.259.295-.326.361a4.3,4.3,0,0,1-2.849,1.026,4.834,4.834,0,0,1-2.325-.551,2.809,2.809,0,0,1-1.375-1.449,2.42,2.42,0,0,1-.2-.949,2.991,2.991,0,0,1,.976-2.151,4.633,4.633,0,0,1,1.425-.951,12.241,12.241,0,0,1,4.349-.924h.351v-.551a3.834,3.834,0,0,0-.15-1.25,2.392,2.392,0,0,0-2.425-1.775q-1.675,0-1.675.2a1.248,1.248,0,0,1,.55,1.1A1.313,1.313,0,0,1,580.237,148.974Zm4.088,3.65q0-1.449-.025-1.449a.26.26,0,0,0-.125.026q-3.426.222-4.375,2.023a2.292,2.292,0,0,0-.275,1.125,1.89,1.89,0,0,0,.6,1.426,2.049,2.049,0,0,0,1.474.574,2.565,2.565,0,0,0,1.713-.6,2.8,2.8,0,0,0,.938-1.474A13.915,13.915,0,0,0,584.325,152.624Z" style="fill:#58c4dd"/></svg>