<svg xmlns="http://www.w3.org/2000/svg" width="720" height="600" viewBox="0 0 720 600"><rect width="720" height="600"/><path d="M288.107,52.331q.675.15.724.15.576,0,1-1.05.3-.825,1.826-8.9.7-3.775.725-3.8v-.075h-1.176a6.794,6.794,0,0,1-1.25-.05c-.116-.066-.132-.25-.049-.55a2.087,2.087,0,0,1,.125-.4.226.226,0,0,1,.213-.138q.162-.012,1.162-.012a10.732,10.732,0,0,0,1.2-.025q0-.05.224-1.25c.151-.8.25-1.283.3-1.45a6.106,6.106,0,0,1,1.574-3.3,3.232,3.232,0,0,1,2.076-.825,2.545,2.545,0,0,1,1.512.55,1.625,1.625,0,0,1,.613,1.325,1.763,1.763,0,0,1-.451,1.225,1.449,1.449,0,0,1-1.125.5q-1.1,0-1.1-1.05a1.41,1.41,0,0,1,.875-1.35l.224-.125a2.457,2.457,0,0,0-.75-.15q-.725,0-.949.95-.2.75-.65,3.275l-.325,1.65a7.17,7.17,0,0,0,1.375.05q1.125,0,1.35.025c.15.016.225.075.225.175a2.81,2.81,0,0,1-.175.8.244.244,0,0,1-.237.137c-.125.009-.572.013-1.338.013h-1.4l-.574,3.05q-.925,4.775-1.15,5.775-.851,3.774-2.276,5.125a2.816,2.816,0,0,1-1.824.8,2.266,2.266,0,0,1-1.5-.5,1.64,1.64,0,0,1-.6-1.325,1.847,1.847,0,0,1,.45-1.263,1.437,1.437,0,0,1,1.125-.512q1.1,0,1.1,1.05a1.412,1.412,0,0,1-.875,1.35Z" style="fill:#f8f8f8"/><path d="M305.732,54.306c0,.15-.151.225-.45.225h-.326l-.7-.6q-4.5-4.1-4.5-11.9a20.1,20.1,0,0,1,.726-5.575,13.467,13.467,0,0,1,3.774-6.325q.174-.15.4-.338c.149-.125.25-.212.3-.262h.326a.593.593,0,0,1,.375.075.22.22,0,0,1,.075.15q0,.1-.276.375-3.876,4.1-3.875,11.9t3.875,11.9Q305.732,54.206,305.732,54.306Z" style="fill:#f8f8f8"/><path d="M308.581,41.331a.421.421,0,0,1-.15-.275,4.747,4.747,0,0,1,.775-1.725,4.285,4.285,0,0,1,2.951-2.05,4.13,4.13,0,0,1,.524-.05,3.039,3.039,0,0,1,1.613.45,2.689,2.689,0,0,1,1.063,1.125c.216-.284.349-.458.4-.525a2.769,2.769,0,0,1,2.125-1.05,2.359,2.359,0,0,1,1.663.587,1.881,1.881,0,0,1,.637,1.438,1.961,1.961,0,0,1-.437,1.3,1.437,1.437,0,0,1-1.163.525,1.1,1.1,0,0,1-.775-.275.94.94,0,0,1-.3-.725,1.59,1.59,0,0,1,1.25-1.575,1,1,0,0,0-.274-.175,1.429,1.429,0,0,0-.726-.15,1.631,1.631,0,0,0-.474.05,2.616,2.616,0,0,0-1.4,1.65q-.075.2-.724,2.787t-.7,2.913a3.893,3.893,0,0,0-.075.75,1.279,1.279,0,0,0,.351.95,1.249,1.249,0,0,0,.925.35,2.577,2.577,0,0,0,1.9-.888,4.611,4.611,0,0,0,1.15-1.962c.05-.167.1-.263.151-.288a1.212,1.212,0,0,1,.4-.037c.317,0,.476.066.476.2,0,.016-.018.108-.051.275a5.436,5.436,0,0,1-1.75,2.7,3.94,3.94,0,0,1-2.475.925,2.881,2.881,0,0,1-2.65-1.575,3.5,3.5,0,0,1-1.85,1.5,3.222,3.222,0,0,1-.65.05,2.181,2.181,0,0,1-2.05-1.025,1.933,1.933,0,0,1-.25-1,1.9,1.9,0,0,1,.45-1.275,1.449,1.449,0,0,1,1.151-.525.939.939,0,0,1,1.074,1.05,1.41,1.41,0,0,1-.875,1.35l-.125.062-.125.063a.19.19,0,0,1-.074.025l-.075.025q0,.075.375.225a1.675,1.675,0,0,0,.649.125,1.846,1.846,0,0,0,1.551-1.125,18.982,18.982,0,0,0,.974-3.25q.15-.575.326-1.275t.262-1.075c.058-.25.1-.4.113-.45a6.136,6.136,0,0,0,.125-.975,1.34,1.34,0,0,0-.326-.95,1.163,1.163,0,0,0-.9-.35,2.608,2.608,0,0,0-1.949.862,4.74,4.74,0,0,0-1.151,1.988c-.033.15-.071.237-.112.262a1.206,1.206,0,0,1-.413.038Z" style="fill:#f8f8f8"/><path d="M322.931,29.556l.1-.025h.549l.7.6q4.5,4.1,4.5,11.9a19.735,19.735,0,0,1-.726,5.55,13.487,13.487,0,0,1-3.774,6.35c-.118.1-.25.212-.4.337s-.25.213-.3.263h-.3a.942.942,0,0,1-.388-.05c-.059-.034-.088-.117-.088-.25.017-.017.108-.125.275-.325q3.874-4.026,3.875-11.875t-3.875-11.875c-.167-.2-.258-.308-.275-.325A.3.3,0,0,1,322.931,29.556Z" style="fill:#f8f8f8"/><path d="M338.806,39.606a.544.544,0,0,1,.35-.5H355.08a.547.547,0,0,1,.375.5.565.565,0,0,1-.349.475l-7.95.025h-7.951A.5.5,0,0,1,338.806,39.606Zm0,4.85a.5.5,0,0,1,.4-.5h15.9a.923.923,0,0,0,.112.087.965.965,0,0,1,.125.1.393.393,0,0,1,.075.125.457.457,0,0,1,.037.188.548.548,0,0,1-.375.5H339.156A.545.545,0,0,1,338.806,44.456Z" style="fill:#fff"/><path d="M366.906,42.006a23.2,23.2,0,0,1,1.539-8.738,15.856,15.856,0,0,1,4.361-6.237h.7c.1.1.149.175.149.225,0,.067-.082.192-.25.375q-4.4,4.95-4.4,14.4,0,9.375,4.4,14.375c.168.183.25.308.25.375,0,.05-.049.125-.149.225h-.7a15.859,15.859,0,0,1-4.361-6.238A23.265,23.265,0,0,1,366.906,42.006Z" style="fill:#58c4dd"/><path d="M379.306,37.931q-2.3,0-2.3,1.625a1.146,1.146,0,0,0,.05.425,1.5,1.5,0,0,0,.775.862,7.586,7.586,0,0,0,1.7.488,6.759,6.759,0,0,1,1.95.55,3.622,3.622,0,0,1,2.025,2.475,4.461,4.461,0,0,1,.025.6,4.041,4.041,0,0,1-.35,1.725,3.767,3.767,0,0,1-3.675,1.85,3.978,3.978,0,0,1-2.6-.9l-.2.175-.225.225c-.1.1-.2.192-.3.275l-.275.25h-.2a.453.453,0,0,1-.325-.15V46.431q0-1.624.013-1.875c.008-.167.045-.266.112-.3a1.569,1.569,0,0,1,.4-.025.839.839,0,0,1,.387.05.8.8,0,0,1,.138.35,5.779,5.779,0,0,0,.65,1.725,2.781,2.781,0,0,0,2.425,1.275q2.424,0,2.425-1.95a1.59,1.59,0,0,0-.45-1.175,2.164,2.164,0,0,0-1.05-.675c-.283-.067-.684-.159-1.2-.275a8.543,8.543,0,0,1-1.9-.525,3.122,3.122,0,0,1-1.925-2.325,1.813,1.813,0,0,1-.025-.375q0-2.874,3.525-3.225a1.63,1.63,0,0,1,.6,0,3.868,3.868,0,0,1,1.75.375l.375.2.225-.175a6.44,6.44,0,0,1,.55-.425h.2a.455.455,0,0,1,.325.15v3.3l-.15.15h-.7a.432.432,0,0,1-.15-.3,2.333,2.333,0,0,0-.7-1.8A2.718,2.718,0,0,0,379.306,37.931Z" style="fill:#83c167"/><path d="M390.58,48.281a21.319,21.319,0,0,0-2.6-.075,26.421,26.421,0,0,0-2.726.075h-.2v-1.15h.4a8.793,8.793,0,0,0,1.226-.075.538.538,0,0,0,.3-.275q.024-.05.024-3.625a34.941,34.941,0,0,0-.1-4q-.2-.5-1.475-.5h-.275v-.575q0-.575.049-.575l.25-.025c.167-.017.4-.033.7-.05l.9-.05q.425-.026.9-.063t.726-.062c.166-.017.258-.025.274-.025h.076v9.5a.578.578,0,0,0,.3.312,3.952,3.952,0,0,0,.875.088h.576v1.15Zm-2.9-16.725a1.6,1.6,0,0,1,1.024.437,1.412,1.412,0,0,1,.4,1.063,1.34,1.34,0,0,1-.675,1.275,1.375,1.375,0,0,1-.8.225,1.413,1.413,0,0,1-.824-.225,1.339,1.339,0,0,1-.676-1.275,1.419,1.419,0,0,1,.438-1.1A1.585,1.585,0,0,1,387.681,31.556Z" style="fill:#83c167"/><path d="M396.056,46.781q.2.35,1.175.35h.75v1.15h-.2a52.3,52.3,0,0,0-5.6,0h-.2v-1.15h.75q.975,0,1.175-.35v-.775c0-.234,0-.5.012-.788s.013-.616.013-.975V43.206q0-.776-.013-1.663t-.012-1.462v-.575a.827.827,0,0,0-.363-.638,2.908,2.908,0,0,0-1.112-.212h-.45v-.575c0-.383.016-.575.05-.575l.25-.025c.167-.017.4-.033.713-.05l.912-.05q.425-.026.9-.063t.725-.062c.167-.017.258-.025.275-.025h.075v1a6.73,6.73,0,0,0,.025.95l.025-.025a4.4,4.4,0,0,1,3.825-1.925,2.917,2.917,0,0,1,3.175,2.825q.026.174.024,3.475,0,3.2.026,3.25a.532.532,0,0,0,.3.275,8.768,8.768,0,0,0,1.225.075h.4v1.15h-.2a52.286,52.286,0,0,0-5.6,0h-.2v-1.15h.6q1.325,0,1.324-.4.026-.05.026-3.45-.025-3.375-.05-3.575a2.216,2.216,0,0,0-.562-1.163,1.694,1.694,0,0,0-1.188-.362,2.711,2.711,0,0,0-1.976.85,3.582,3.582,0,0,0-1.024,2.2v.462c0,.292,0,.663-.013,1.113s-.012.875-.012,1.275v.787q0,.413.012.738c.008.217.013.412.013.587v.588Z" style="fill:#83c167"/><path d="M413.581,54.306q0,.225-.45.225h-.325l-.7-.6q-4.5-4.1-4.5-11.9a20.171,20.171,0,0,1,.725-5.575,13.484,13.484,0,0,1,3.775-6.325q.176-.15.4-.338c.151-.125.25-.212.3-.262h.325a.593.593,0,0,1,.375.075.216.216,0,0,1,.075.15c0,.067-.091.192-.275.375q-3.874,4.1-3.875,11.9t3.875,11.9C413.49,54.114,413.581,54.239,413.581,54.306Z" style="fill:#83c167"/><path d="M416.431,41.331a.413.413,0,0,1-.15-.275,4.747,4.747,0,0,1,.775-1.725,4.283,4.283,0,0,1,2.95-2.05,4.126,4.126,0,0,1,.525-.05,3.035,3.035,0,0,1,1.612.45,2.68,2.68,0,0,1,1.062,1.125c.217-.284.351-.458.4-.525a2.769,2.769,0,0,1,2.125-1.05,2.358,2.358,0,0,1,1.662.587,1.878,1.878,0,0,1,.638,1.438,1.962,1.962,0,0,1-.438,1.3,1.437,1.437,0,0,1-1.162.525,1.1,1.1,0,0,1-.775-.275.933.933,0,0,1-.3-.725,1.589,1.589,0,0,1,1.25-1.575,1,1,0,0,0-.276-.175,1.421,1.421,0,0,0-.724-.15,1.643,1.643,0,0,0-.475.05,2.615,2.615,0,0,0-1.4,1.65q-.075.2-.725,2.787t-.7,2.913a3.816,3.816,0,0,0-.075.75,1.285,1.285,0,0,0,.349.95,1.254,1.254,0,0,0,.926.35,2.582,2.582,0,0,0,1.9-.888,4.611,4.611,0,0,0,1.15-1.962c.05-.167.1-.263.149-.288a1.231,1.231,0,0,1,.4-.037c.316,0,.474.066.474.2,0,.016-.016.108-.049.275a5.449,5.449,0,0,1-1.75,2.7,3.944,3.944,0,0,1-2.475.925,2.88,2.88,0,0,1-2.65-1.575,3.5,3.5,0,0,1-1.85,1.5,3.222,3.222,0,0,1-.65.05,2.18,2.18,0,0,1-2.05-1.025,1.933,1.933,0,0,1-.25-1,1.892,1.892,0,0,1,.45-1.275,1.446,1.446,0,0,1,1.149-.525.94.94,0,0,1,1.076,1.05,1.411,1.411,0,0,1-.875,1.35l-.125.062-.125.063a.191.191,0,0,1-.076.025l-.074.025q0,.075.375.225a1.673,1.673,0,0,0,.65.125,1.844,1.844,0,0,0,1.549-1.125,18.8,18.8,0,0,0,.976-3.25q.15-.575.325-1.275t.262-1.075c.059-.25.1-.4.113-.45a6.136,6.136,0,0,0,.125-.975,1.344,1.344,0,0,0-.325-.95,1.166,1.166,0,0,0-.9-.35,2.614,2.614,0,0,0-1.951.862,4.746,4.746,0,0,0-1.149,1.988c-.034.15-.071.237-.112.262a1.206,1.206,0,0,1-.413.038Z" style="fill:#83c167"/><path d="M432.031,29.556l.1-.025h.551l.7.6q4.5,4.1,4.5,11.9a19.737,19.737,0,0,1-.724,5.55,13.49,13.49,0,0,1-3.776,6.35c-.116.1-.25.212-.4.337s-.25.213-.3.263h-.3a.933.933,0,0,1-.386-.05c-.059-.034-.088-.117-.088-.25.016-.017.108-.125.275-.325q3.875-4.026,3.875-11.875t-3.875-11.875q-.25-.3-.275-.325A.293.293,0,0,1,432.031,29.556Z" style="fill:#83c167"/><path d="M447.88,42.006a23.427,23.427,0,0,1-1.525,8.775,15.674,15.674,0,0,1-4.375,6.225h-.324a1.149,1.149,0,0,1-.426-.05.229.229,0,0,1-.1-.225,1.682,1.682,0,0,1,.3-.4q4.35-4.9,4.351-14.3,0-9.425-4.351-14.325a1.724,1.724,0,0,1-.3-.4c0-.134.034-.213.1-.238a1.5,1.5,0,0,1,.426-.037h.324a15.87,15.87,0,0,1,4.363,6.237A23.223,23.223,0,0,1,447.88,42.006Z" style="fill:#58c4dd"/><path d="M453.309,33.7a.816.816,0,0,1-.642-.263.93.93,0,0,1-.233-.641,2.391,2.391,0,0,1,.795-1.8,2.671,2.671,0,0,1,1.9-.75,3.162,3.162,0,0,1,2.077.677A2.843,2.843,0,0,1,458.22,32.7a4.243,4.243,0,0,1,.029.481,2.757,2.757,0,0,1-.509,1.589,9.714,9.714,0,0,1-1.648,1.676q-.524.452-1.457,1.341l-.86.816,1.108.015a17.6,17.6,0,0,0,2.434-.073c.039-.01.088-.112.145-.306a8.911,8.911,0,0,0,.2-.991V37.2h.583v.044l-.408,2.667v.044h-5.407v-.277a1,1,0,0,1,.029-.336q.015-.014,1.225-1.384,1.589-1.764,2.04-2.332a4.228,4.228,0,0,0,.977-2.434,2.546,2.546,0,0,0-.5-1.611,1.679,1.679,0,0,0-1.407-.648,1.6,1.6,0,0,0-1.37.757c-.019.039-.049.093-.087.161a.333.333,0,0,0-.044.087c0,.01.025.015.073.015a.743.743,0,0,1,.59.262.908.908,0,0,1,.226.613.871.871,0,0,1-.24.619A.831.831,0,0,1,453.309,33.7Z" style="fill:#58c4dd"/><line x1="60" y1="135" x2="540" y2="135" style="fill:none;stroke:#fff;stroke-miterlimit:10;stroke-width:1.5px;opacity:0.6000000000000001"/><line x1="60" y1="127" x2="60" y2="143" style="fill:none;stroke:#fff;stroke-miterlimit:10;stroke-width:1.5px;opacity:0.6000000000000001"/><line x1="540" y1="127" x2="540" y2="143" style="fill:none;stroke:#fff;stroke-miterlimit:10;stroke-width:1.5px;opacity:0.6000000000000001"/><line x1="220" y1="127" x2="220" y2="143" style="fill:none;stroke:#fff;stroke-miterlimit:10;stroke-width:1.5px;opacity:0.6000000000000001"/><line x1="140" y1="129" x2="140" y2="141" style="fill:none;stroke:#fff;stroke-miterlimit:10;stroke-width:1.5px;opacity:0.6000000000000001"/><line x1="100" y1="129" x2="100" y2="141" style="fill:none;stroke:#fff;stroke-miterlimit:10;stroke-width:1.5px;opacity:0.6000000000000001"/><line x1="180" y1="129" x2="180" y2="141" style="fill:none;stroke:#fff;stroke-miterlimit:10;stroke-width:1.5px;opacity:0.6000000000000001"/><line x1="300" y1="129" x2="300" y2="141" style="fill:none;stroke:#fff;stroke-miterlimit:10;stroke-width:1.5px;opacity:0.6000000000000001"/><line x1="260" y1="129" x2="260" y2="141" style="fill:none;stroke:#fff;stroke-miterlimit:10;stroke-width:1.5px;opacity:0.6000000000000001"/><line x1="340" y1="129" x2="340" y2="141" style="fill:none;stroke:#fff;stroke-miterlimit:10;stroke-width:1.5px;opacity:0.6000000000000001"/><line x1="460" y1="129" x2="460" y2="141" style="fill:none;stroke:#fff;stroke-miterlimit:10;stroke-width:1.5px;opacity:0.6000000000000001"/><line x1="420" y1="129" x2="420" y2="141" style="fill:none;stroke:#fff;stroke-miterlimit:10;stroke-width:1.5px;opacity:0.6000000000000001"/><line x1="500" y1="129" x2="500" y2="141" style="fill:none;stroke:#fff;stroke-miterlimit:10;stroke-width:1.5px;opacity:0.6000000000000001"/><line x1="380" y1="127" x2="380" y2="143" style="fill:none;stroke:#fff;stroke-miterlimit:10;stroke-width:1.5px;opacity:0.6000000000000001"/><g style="opacity:0.6000000000000001"><path d="M56.15,165.413a4.407,4.407,0,0,1,3.825-2.025,4.6,4.6,0,0,1,3.2,1.25,5.447,5.447,0,0,1,1.151,1.7,14.321,14.321,0,0,1,.924,5.7,13.041,13.041,0,0,1-1.075,5.924,4.326,4.326,0,0,1-2.05,2.1,4.694,4.694,0,0,1-2.125.525,4.406,4.406,0,0,1-4.2-2.625,13.043,13.043,0,0,1-1.074-5.924,19.431,19.431,0,0,1,.313-3.838A8.373,8.373,0,0,1,56.15,165.413Zm5.625-.3a2.308,2.308,0,0,0-1.776-.8,2.381,2.381,0,0,0-1.8.8,2.979,2.979,0,0,0-.75,1.4,15.342,15.342,0,0,0-.25,2.85c0,.1,0,.425-.013.974s-.013,1.009-.013,1.375q0,2.4.051,3.35a14.152,14.152,0,0,0,.3,2.513,2.842,2.842,0,0,0,.75,1.313,2.215,2.215,0,0,0,1.724.75,2.192,2.192,0,0,0,1.7-.75,2.859,2.859,0,0,0,.75-1.313,14.37,14.37,0,0,0,.3-2.513q.051-.95.05-3.35,0-.549-.011-1.375c-.009-.549-.013-.875-.013-.974a15.522,15.522,0,0,0-.25-2.85A3.015,3.015,0,0,0,61.775,165.113Z" style="fill:#fff"/></g><g style="opacity:0.6000000000000001"><path d="M224.149,180.038q-.424-.075-3.975-.076-3.5,0-3.925.076h-.3v-1.15h.649a13.833,13.833,0,0,0,1.875-.076,1.612,1.612,0,0,0,.6-.3V165.587a.6.6,0,0,0-.2.076,7.4,7.4,0,0,1-2.575.475h-.474v-1.15h.474a6.974,6.974,0,0,0,3.5-.95,3.488,3.488,0,0,0,.776-.576c.033-.049.132-.074.3-.074a.633.633,0,0,1,.425.15v7.475l.026,7.5a2.419,2.419,0,0,0,1.625.375h1.474v1.15Z" style="fill:#fff"/></g><g style="opacity:0.6000000000000001"><path d="M376.5,169.312a1.393,1.393,0,0,1-1.1-.449,1.6,1.6,0,0,1-.4-1.1,4.1,4.1,0,0,1,1.363-3.088,4.584,4.584,0,0,1,3.262-1.287,5.419,5.419,0,0,1,3.563,1.162,4.882,4.882,0,0,1,1.737,3.037,7.65,7.65,0,0,1,.051.826,4.733,4.733,0,0,1-.875,2.725,16.679,16.679,0,0,1-2.825,2.875q-.9.774-2.5,2.3l-1.476,1.4,1.9.026a30.064,30.064,0,0,0,4.174-.125c.067-.017.151-.192.25-.526a15.65,15.65,0,0,0,.351-1.7v-.076h1v.076l-.7,4.574v.076H375v-.476a1.686,1.686,0,0,1,.05-.574q.025-.025,2.1-2.375,2.724-3.025,3.5-4a7.253,7.253,0,0,0,1.675-4.175,4.367,4.367,0,0,0-.863-2.763,2.882,2.882,0,0,0-2.413-1.113,2.74,2.74,0,0,0-2.349,1.3c-.034.066-.084.158-.151.275a.521.521,0,0,0-.074.15c0,.016.041.024.125.024a1.27,1.27,0,0,1,1.012.451,1.553,1.553,0,0,1,.387,1.049,1.493,1.493,0,0,1-.412,1.063A1.423,1.423,0,0,1,376.5,169.312Z" style="fill:#fff"/></g><g style="opacity:0.6000000000000001"><path d="M536.924,168.462a1.366,1.366,0,0,1-1.062-.424,1.572,1.572,0,0,1-.387-1.1,3.02,3.02,0,0,1,1.125-2.388,4.775,4.775,0,0,1,2.6-1.137h.375q.874,0,1.1.025a6.077,6.077,0,0,1,1.676.524,3.724,3.724,0,0,1,2.074,2.35,2.406,2.406,0,0,1,.075.676,4.149,4.149,0,0,1-.913,2.637,5.044,5.044,0,0,1-2.287,1.663q-.126.049,0,.075a1.812,1.812,0,0,0,.25.075,5.321,5.321,0,0,1,2.575,1.587,3.824,3.824,0,0,1,1.05,2.638,4.374,4.374,0,0,1-.474,1.975,4.962,4.962,0,0,1-1.963,2.112,5.687,5.687,0,0,1-3.037.837,5.989,5.989,0,0,1-2.926-.7,3.612,3.612,0,0,1-1.725-1.875,2.832,2.832,0,0,1-.25-1.225,1.5,1.5,0,0,1,.463-1.138,1.661,1.661,0,0,1,2.262.013,1.52,1.52,0,0,1,.451,1.125,1.6,1.6,0,0,1-.326,1,1.474,1.474,0,0,1-.875.549l-.174.051a4.7,4.7,0,0,0,3.1,1.125,2.231,2.231,0,0,0,2.074-1.325,5.747,5.747,0,0,0,.426-2.525v-.5a3.2,3.2,0,0,0-1.6-3.175,5.284,5.284,0,0,0-1.525-.176l-1.051-.024-.074-.05a.917.917,0,0,1-.051-.4.589.589,0,0,1,.076-.375.2.2,0,0,1,.125-.074,8.85,8.85,0,0,0,1.449-.125,2.169,2.169,0,0,0,1.676-1.238,5.526,5.526,0,0,0,.574-2.612,2.375,2.375,0,0,0-.875-2.175,2.065,2.065,0,0,0-1.175-.35,3.707,3.707,0,0,0-2.2.674,1.1,1.1,0,0,0-.224.163,1.482,1.482,0,0,0-.2.213l-.075.1c.051.016.109.033.176.049a1.2,1.2,0,0,1,.837.475,1.521,1.521,0,0,1,.337.976,1.375,1.375,0,0,1-.412,1.012A1.439,1.439,0,0,1,536.924,168.462Z" style="fill:#fff"/></g><line x1="60" y1="295" x2="540" y2="295" style="fill:none;stroke:#fff;stroke-miterlimit:10;stroke-width:1.5px;opacity:0.6000000000000001"/><line x1="60" y1="287" x2="60" y2="303" style="fill:none;stroke:#fff;stroke-miterlimit:10;stroke-width:1.5px;opacity:0.6000000000000001"/><line x1="420" y1="287" x2="420" y2="303" style="fill:none;stroke:#fff;stroke-miterlimit:10;stroke-width:1.5px;opacity:0.6000000000000001"/><line x1="540" y1="287" x2="540" y2="303" style="fill:none;stroke:#fff;stroke-miterlimit:10;stroke-width:1.5px;opacity:0.6000000000000001"/><line x1="180" y1="287" x2="180" y2="303" style="fill:none;stroke:#fff;stroke-miterlimit:10;stroke-width:1.5px;opacity:0.6000000000000001"/><line x1="120" y1="289" x2="120" y2="301" style="fill:none;stroke:#fff;stroke-miterlimit:10;stroke-width:1.5px;opacity:0.6000000000000001"/><line x1="240" y1="289" x2="240" y2="301" style="fill:none;stroke:#fff;stroke-miterlimit:10;stroke-width:1.5px;opacity:0.6000000000000001"/><line x1="360" y1="289" x2="360" y2="301" style="fill:none;stroke:#fff;stroke-miterlimit:10;stroke-width:1.5px;opacity:0.6000000000000001"/><line x1="480" y1="289" x2="480" y2="301" style="fill:none;stroke:#fff;stroke-miterlimit:10;stroke-width:1.5px;opacity:0.6000000000000001"/><line x1="300" y1="287" x2="300" y2="303" style="fill:none;stroke:#fff;stroke-miterlimit:10;stroke-width:1.5px;opacity:0.6000000000000001"/><g style="opacity:0.6000000000000001"><path d="M43.875,335.562v-1.825h6.651v1.825Z" style="fill:#fff"/><path d="M62.325,340.037q-.426-.075-3.975-.075-3.5,0-3.925.075h-.3v-1.15h.651a14.1,14.1,0,0,0,1.875-.075,1.614,1.614,0,0,0,.6-.3V325.587a.614.614,0,0,0-.2.075,7.381,7.381,0,0,1-2.575.475H54v-1.15h.475a6.98,6.98,0,0,0,3.5-.95,3.433,3.433,0,0,0,.775-.575c.034-.05.133-.075.3-.075a.631.631,0,0,1,.425.15v7.475l.025,7.5a2.419,2.419,0,0,0,1.625.375H62.6v1.15Z" style="fill:#fff"/></g><g style="opacity:0.6000000000000001"><path d="M296.149,325.412a4.409,4.409,0,0,1,3.825-2.025,4.609,4.609,0,0,1,3.2,1.25,5.441,5.441,0,0,1,1.151,1.7,14.315,14.315,0,0,1,.924,5.7,13.046,13.046,0,0,1-1.075,5.925,4.326,4.326,0,0,1-2.05,2.1,4.707,4.707,0,0,1-2.125.525,4.406,4.406,0,0,1-4.2-2.625,13.047,13.047,0,0,1-1.074-5.925,19.438,19.438,0,0,1,.313-3.838A8.373,8.373,0,0,1,296.149,325.412Zm5.625-.3a2.307,2.307,0,0,0-1.776-.8,2.38,2.38,0,0,0-1.8.8,2.984,2.984,0,0,0-.75,1.4,15.352,15.352,0,0,0-.25,2.85q0,.15-.013.975t-.013,1.375q0,2.4.051,3.35a14.137,14.137,0,0,0,.3,2.512,2.832,2.832,0,0,0,.75,1.313,2.215,2.215,0,0,0,1.724.75,2.192,2.192,0,0,0,1.7-.75,2.849,2.849,0,0,0,.75-1.313,14.355,14.355,0,0,0,.3-2.512q.051-.95.05-3.35,0-.549-.011-1.375t-.013-.975a15.532,15.532,0,0,0-.25-2.85A3.02,3.02,0,0,0,301.774,325.112Z" style="fill:#fff"/></g><g style="opacity:0.6000000000000001"><path d="M545.3,340.037q-.425-.075-3.974-.075-3.5,0-3.925.075h-.3v-1.15h.649a14.075,14.075,0,0,0,1.875-.075,1.618,1.618,0,0,0,.6-.3V325.587a.591.591,0,0,0-.2.075,7.385,7.385,0,0,1-2.575.475h-.475v-1.15h.475a6.98,6.98,0,0,0,3.5-.95,3.5,3.5,0,0,0,.775-.575q.049-.075.3-.075a.634.634,0,0,1,.425.15v7.475l.025,7.5a2.419,2.419,0,0,0,1.625.375h1.475v1.15Z" style="fill:#fff"/></g><line x1="185.664" y1="135" x2="197.664" y2="135" style="fill:none;stroke:#fff;stroke-miterlimit:10;stroke-width:2px"/><line x1="485.8" y1="295" x2="469.706" y2="295" style="fill:none;stroke:#83c167;stroke-miterlimit:10;stroke-width:2px"/><polygon points="185.664 134.081 194.901 118.081 176.426 118.081 185.664 134.081" style="fill:#fff"/><path d="M181.45,95.984a.419.419,0,0,1-.151-.275,4.752,4.752,0,0,1,.776-1.725,4.287,4.287,0,0,1,2.95-2.05,4.13,4.13,0,0,1,.524-.05,3.045,3.045,0,0,1,1.614.45,2.693,2.693,0,0,1,1.062,1.125c.216-.283.35-.458.4-.525a2.772,2.772,0,0,1,2.125-1.05,2.36,2.36,0,0,1,1.664.588,1.881,1.881,0,0,1,.636,1.437,1.96,1.96,0,0,1-.437,1.3,1.436,1.436,0,0,1-1.162.525,1.1,1.1,0,0,1-.776-.275.94.94,0,0,1-.3-.725,1.591,1.591,0,0,1,1.25-1.575,1.01,1.01,0,0,0-.274-.175,1.429,1.429,0,0,0-.726-.15,1.635,1.635,0,0,0-.474.05,2.619,2.619,0,0,0-1.4,1.65q-.073.2-.724,2.788t-.7,2.912a3.817,3.817,0,0,0-.076.75,1.281,1.281,0,0,0,.351.95,1.249,1.249,0,0,0,.925.35,2.577,2.577,0,0,0,1.9-.888,4.614,4.614,0,0,0,1.151-1.962c.049-.166.1-.263.15-.288a1.246,1.246,0,0,1,.4-.037q.476,0,.476.2c0,.017-.018.108-.051.275a5.427,5.427,0,0,1-1.75,2.7,3.939,3.939,0,0,1-2.474.925,2.883,2.883,0,0,1-2.651-1.575,3.5,3.5,0,0,1-1.849,1.5,3.24,3.24,0,0,1-.651.05,2.179,2.179,0,0,1-2.05-1.025,1.933,1.933,0,0,1-.25-1,1.893,1.893,0,0,1,.451-1.275,1.445,1.445,0,0,1,1.15-.525.939.939,0,0,1,1.074,1.05,1.41,1.41,0,0,1-.875,1.35l-.125.063-.125.062a.185.185,0,0,1-.074.025l-.075.025q0,.075.375.225a1.657,1.657,0,0,0,.649.125,1.846,1.846,0,0,0,1.551-1.125,18.938,18.938,0,0,0,.975-3.25q.149-.575.325-1.275t.263-1.075c.057-.25.095-.4.112-.45a6.136,6.136,0,0,0,.125-.975,1.344,1.344,0,0,0-.325-.95,1.171,1.171,0,0,0-.9-.35,2.609,2.609,0,0,0-1.949.863,4.717,4.717,0,0,0-1.15,1.987c-.034.15-.072.237-.113.263a1.214,1.214,0,0,1-.413.037Z" style="fill:#fff"/><path d="M187.848,183.471q.375-.024.85-.062t.713-.063c.158-.016.246-.025.262-.025.2,0,.3.067.3.2q0,.176-1.838,7.563t-1.862,7.512a2.05,2.05,0,0,0-.025.375q0,1.05.7,1.05a1.075,1.075,0,0,0,.5-.225,5.673,5.673,0,0,0,1.025-2.4c.1-.333.184-.508.25-.524a.709.709,0,0,1,.25-.026h.1c.316,0,.475.067.475.2a2.084,2.084,0,0,1-.075.4,6.51,6.51,0,0,1-1.35,2.9,2.48,2.48,0,0,1-.8.526,2.693,2.693,0,0,1-.6.049,2.256,2.256,0,0,1-2.2-1.225,1.9,1.9,0,0,0-.125-.3c-.017-.016-.05-.008-.1.025l-.1.1a5.12,5.12,0,0,1-2.375,1.375,4.757,4.757,0,0,1-.625.025,3.318,3.318,0,0,1-2.725-1.375,4.862,4.862,0,0,1-.75-2.8,7.637,7.637,0,0,1,1.7-4.6,6.544,6.544,0,0,1,3.45-2.375,3.721,3.721,0,0,1,1.025-.149,2.393,2.393,0,0,1,2.1,1.049c.083.1.125.134.125.1q.024-.1.688-2.737t.687-2.763a.447.447,0,0,0-.15-.4,3.7,3.7,0,0,0-1-.125h-.525a.663.663,0,0,1-.162-.2,2.472,2.472,0,0,1,.062-.475c.083-.316.191-.475.325-.475.017,0,.1-.008.263-.025s.383-.033.675-.05Zm-2.15,9.05q-.551-1.974-1.875-1.975a2.311,2.311,0,0,0-1.762.85,5.9,5.9,0,0,0-1.163,1.95,19.932,19.932,0,0,0-1.025,4.1c0,.051,0,.142-.012.275s-.013.234-.013.3a2.459,2.459,0,0,0,.388,1.45,1.3,1.3,0,0,0,1.137.55q1.325,0,2.775-1.8l.2-.275q.225-.9.675-2.712T185.7,192.521Z" style="fill:#fff"/><path d="M191.348,193.721a.409.409,0,0,1-.15-.275,4.754,4.754,0,0,1,.775-1.725,4.288,4.288,0,0,1,2.949-2.05,4.1,4.1,0,0,1,.526-.049,3.034,3.034,0,0,1,1.612.449,2.7,2.7,0,0,1,1.062,1.125q.325-.424.4-.525a2.768,2.768,0,0,1,2.125-1.049,2.356,2.356,0,0,1,1.662.587,1.881,1.881,0,0,1,.638,1.437,1.966,1.966,0,0,1-.438,1.3,1.439,1.439,0,0,1-1.162.525,1.1,1.1,0,0,1-.775-.275.933.933,0,0,1-.3-.725,1.59,1.59,0,0,1,1.25-1.575,1.025,1.025,0,0,0-.276-.175,1.434,1.434,0,0,0-.724-.15,1.613,1.613,0,0,0-.476.051,2.615,2.615,0,0,0-1.4,1.649q-.075.2-.726,2.788t-.7,2.912a3.741,3.741,0,0,0-.075.75,1.282,1.282,0,0,0,.349.95,1.249,1.249,0,0,0,.925.35,2.581,2.581,0,0,0,1.9-.887,4.621,4.621,0,0,0,1.15-1.963c.05-.166.1-.262.149-.287a1.216,1.216,0,0,1,.4-.038q.474,0,.474.2c0,.017-.016.109-.049.275a5.447,5.447,0,0,1-1.75,2.7,3.944,3.944,0,0,1-2.475.925,2.88,2.88,0,0,1-2.65-1.574,3.5,3.5,0,0,1-1.85,1.5,3.236,3.236,0,0,1-.65.049,2.177,2.177,0,0,1-2.05-1.025,1.931,1.931,0,0,1-.25-1,1.883,1.883,0,0,1,.45-1.274,1.444,1.444,0,0,1,1.149-.526.94.94,0,0,1,1.076,1.05,1.414,1.414,0,0,1-.875,1.351l-.125.062-.125.063a.2.2,0,0,1-.076.024l-.075.025q0,.075.375.225a1.664,1.664,0,0,0,.651.125,1.845,1.845,0,0,0,1.549-1.125,18.8,18.8,0,0,0,.976-3.25q.15-.574.324-1.274t.263-1.076c.059-.25.1-.4.112-.45a6.022,6.022,0,0,0,.125-.974,1.346,1.346,0,0,0-.324-.951,1.171,1.171,0,0,0-.9-.35,2.613,2.613,0,0,0-1.951.863,4.742,4.742,0,0,0-1.149,1.987c-.034.15-.071.238-.113.263a1.206,1.206,0,0,1-.412.037Z" style="fill:#fff"/><path d="M437.166,360.062a1.348,1.348,0,0,1-.962.363,1.265,1.265,0,0,1-.951-.388,1.374,1.374,0,0,1,0-1.887c.084-.084.121-.133.114-.15s-.088-.033-.239-.05a8.149,8.149,0,0,0-1.224-.1,2.563,2.563,0,0,0-2,.8,5.42,5.42,0,0,0-1.175,3.925,5.812,5.812,0,0,0,.774,3.225,3.166,3.166,0,0,0,2.75,1.525,2.328,2.328,0,0,0,1.1-.25,2.91,2.91,0,0,0,1.45-1.95.42.42,0,0,1,.125-.25.934.934,0,0,1,.4-.05h.35q.15.15.15.225a3.331,3.331,0,0,1-.625,1.475,4.044,4.044,0,0,1-3.525,1.8,5.151,5.151,0,0,1-2.375-.575,5.511,5.511,0,0,1-2.975-4.25,7.033,7.033,0,0,1-.025-.8,7.853,7.853,0,0,1,.025-.825,5.781,5.781,0,0,1,2.049-3.825,5.2,5.2,0,0,1,3.326-1.2q3.225,0,3.775,1.7a1.852,1.852,0,0,1,.075.575A1.224,1.224,0,0,1,437.166,360.062Z" style="fill:#83c167"/><path d="M439.253,362.7a5.7,5.7,0,0,1,1.451-3.913,5.587,5.587,0,0,1,4.1-1.937,5.17,5.17,0,0,1,3.776,1.6,5.76,5.76,0,0,1,1.75,4.225,6.6,6.6,0,0,1-.125,1.175,5.326,5.326,0,0,1-1.414,2.738,5.523,5.523,0,0,1-2.687,1.562,5.154,5.154,0,0,1-1.3.15,5.276,5.276,0,0,1-1.325-.15,5.581,5.581,0,0,1-4.225-5.45Zm6-4.9a2.233,2.233,0,0,0-.4-.025,3.47,3.47,0,0,0-1.425.3,3.286,3.286,0,0,0-1.675,2.725q-.049.45-.049,1.6a8.564,8.564,0,0,0,.474,3.375A2.74,2.74,0,0,0,444.8,367.3q3.05,0,3.05-4.075v-.8a12.393,12.393,0,0,0-.125-2.2A2.973,2.973,0,0,0,445.253,357.8Z" style="fill:#83c167"/><path d="M455.8,357.7q-2.3,0-2.3,1.625a1.142,1.142,0,0,0,.05.425,1.493,1.493,0,0,0,.776.862,7.553,7.553,0,0,0,1.7.488,6.76,6.76,0,0,1,1.949.55A3.617,3.617,0,0,1,460,364.125a4.4,4.4,0,0,1,.026.6,4.026,4.026,0,0,1-.351,1.725A3.766,3.766,0,0,1,456,368.3a3.974,3.974,0,0,1-2.6-.9l-.2.175-.226.225c-.1.1-.2.192-.3.275l-.274.25h-.2a.454.454,0,0,1-.326-.15V366.2q0-1.624.013-1.875c.008-.167.046-.266.112-.3a1.634,1.634,0,0,1,.4-.025.83.83,0,0,1,.386.05.808.808,0,0,1,.138.35,5.808,5.808,0,0,0,.651,1.725A2.78,2.78,0,0,0,456,367.4q2.425,0,2.425-1.95a1.586,1.586,0,0,0-.45-1.175,2.171,2.171,0,0,0-1.05-.675q-.425-.1-1.2-.275a8.53,8.53,0,0,1-1.9-.525,3.116,3.116,0,0,1-1.925-2.325,1.724,1.724,0,0,1-.026-.375q0-2.874,3.526-3.225a1.624,1.624,0,0,1,.6,0,3.868,3.868,0,0,1,1.75.375l.375.2.225-.175a6.278,6.278,0,0,1,.551-.425h.2a.452.452,0,0,1,.325.15v3.3l-.149.15h-.7a.43.43,0,0,1-.151-.3,2.335,2.335,0,0,0-.7-1.8A2.721,2.721,0,0,0,455.8,357.7Z" style="fill:#83c167"/><path d="M469.229,374.075q0,.225-.45.225h-.325l-.7-.6q-4.5-4.1-4.5-11.9a20.133,20.133,0,0,1,.726-5.575,13.475,13.475,0,0,1,3.774-6.325c.117-.1.25-.212.4-.338s.25-.212.3-.262h.325a.593.593,0,0,1,.375.075.216.216,0,0,1,.075.15q0,.1-.275.375-3.876,4.1-3.875,11.9t3.875,11.9Q469.229,373.975,469.229,374.075Z" style="fill:#83c167"/><path d="M472.079,361.1a.415.415,0,0,1-.151-.275,4.752,4.752,0,0,1,.776-1.725,4.282,4.282,0,0,1,2.949-2.05,4.126,4.126,0,0,1,.525-.05,3.035,3.035,0,0,1,1.612.45,2.689,2.689,0,0,1,1.063,1.125c.217-.283.351-.458.4-.525a2.772,2.772,0,0,1,2.125-1.05,2.353,2.353,0,0,1,1.662.588,1.88,1.88,0,0,1,.638,1.437,1.965,1.965,0,0,1-.437,1.3,1.439,1.439,0,0,1-1.162.525,1.1,1.1,0,0,1-.776-.275.936.936,0,0,1-.3-.725,1.59,1.59,0,0,1,1.25-1.575,1.007,1.007,0,0,0-.275-.175,1.425,1.425,0,0,0-.725-.15,1.648,1.648,0,0,0-.475.05,2.618,2.618,0,0,0-1.4,1.65q-.073.2-.725,2.788t-.7,2.912a3.743,3.743,0,0,0-.076.75,1.286,1.286,0,0,0,.35.95,1.252,1.252,0,0,0,.925.35,2.581,2.581,0,0,0,1.9-.887,4.623,4.623,0,0,0,1.151-1.963c.049-.166.1-.263.149-.287a1.184,1.184,0,0,1,.4-.038q.476,0,.475.2c0,.016-.017.108-.05.275a5.438,5.438,0,0,1-1.75,2.7,3.939,3.939,0,0,1-2.474.925,2.882,2.882,0,0,1-2.651-1.575,3.5,3.5,0,0,1-1.849,1.5,3.24,3.24,0,0,1-.651.05,2.178,2.178,0,0,1-2.05-1.025,1.933,1.933,0,0,1-.25-1,1.888,1.888,0,0,1,.451-1.275,1.443,1.443,0,0,1,1.149-.525.939.939,0,0,1,1.075,1.05,1.411,1.411,0,0,1-.875,1.35l-.125.063-.125.062a.183.183,0,0,1-.075.025l-.075.025q0,.075.375.225a1.68,1.68,0,0,0,.65.125,1.846,1.846,0,0,0,1.55-1.125,18.8,18.8,0,0,0,.976-3.25c.1-.383.208-.808.324-1.275s.2-.825.262-1.075.1-.4.113-.45a6.018,6.018,0,0,0,.125-.975,1.348,1.348,0,0,0-.324-.95,1.169,1.169,0,0,0-.9-.35,2.61,2.61,0,0,0-1.95.862,4.731,4.731,0,0,0-1.149,1.988c-.035.15-.072.237-.114.262a1.164,1.164,0,0,1-.412.038Z" style="fill:#fff"/><path d="M486.428,349.325l.1-.025h.55l.7.6q4.5,4.1,4.5,11.9a19.7,19.7,0,0,1-.725,5.55,13.481,13.481,0,0,1-3.775,6.35c-.116.1-.25.212-.4.337s-.25.213-.3.263h-.3a.948.948,0,0,1-.388-.05c-.059-.033-.087-.117-.087-.25q.025-.025.275-.325,3.876-4.026,3.875-11.875t-3.875-11.875q-.249-.3-.275-.325A.293.293,0,0,1,486.428,349.325Z" style="fill:#83c167"/><path d="M511.853,350.85c.25-.016.533-.038.85-.063s.553-.045.712-.062.246-.025.263-.025c.2,0,.3.067.3.2q0,.176-1.838,7.563t-1.862,7.512a2.032,2.032,0,0,0-.026.375q0,1.05.7,1.05a1.075,1.075,0,0,0,.5-.225,5.673,5.673,0,0,0,1.025-2.4c.1-.334.183-.508.25-.525a.718.718,0,0,1,.25-.025h.1c.316,0,.475.067.475.2a2.1,2.1,0,0,1-.075.4,6.515,6.515,0,0,1-1.351,2.9,2.489,2.489,0,0,1-.8.525,2.687,2.687,0,0,1-.6.05,2.256,2.256,0,0,1-2.2-1.225,1.97,1.97,0,0,0-.125-.3c-.017-.016-.05-.008-.1.025l-.1.1a5.12,5.12,0,0,1-2.375,1.375,4.95,4.95,0,0,1-.625.025,3.317,3.317,0,0,1-2.725-1.375,4.866,4.866,0,0,1-.75-2.8,7.641,7.641,0,0,1,1.7-4.6,6.546,6.546,0,0,1,3.451-2.375A3.718,3.718,0,0,1,507.9,357a2.392,2.392,0,0,1,2.1,1.05c.084.1.125.134.125.1q.026-.1.688-2.738t.687-2.762a.449.449,0,0,0-.149-.4,3.783,3.783,0,0,0-1-.125h-.525a.68.68,0,0,1-.163-.2,2.617,2.617,0,0,1,.063-.475c.083-.316.191-.475.325-.475.016,0,.1-.008.262-.025s.384-.033.676-.05Zm-2.15,9.05q-.55-1.974-1.875-1.975a2.313,2.313,0,0,0-1.763.85,5.9,5.9,0,0,0-1.162,1.95,19.982,19.982,0,0,0-1.026,4.1c0,.05,0,.142-.012.275s-.012.234-.012.3a2.47,2.47,0,0,0,.387,1.45,1.3,1.3,0,0,0,1.137.55q1.326,0,2.776-1.8l.2-.275q.224-.9.675-2.713T509.7,359.9Z" style="fill:#fff"/><path d="M515.353,361.1a.413.413,0,0,1-.15-.275,4.747,4.747,0,0,1,.775-1.725,4.286,4.286,0,0,1,2.95-2.05,4.126,4.126,0,0,1,.525-.05,3.035,3.035,0,0,1,1.612.45,2.68,2.68,0,0,1,1.062,1.125q.326-.425.4-.525a2.769,2.769,0,0,1,2.125-1.05,2.354,2.354,0,0,1,1.662.588,1.876,1.876,0,0,1,.638,1.437,1.96,1.96,0,0,1-.438,1.3,1.437,1.437,0,0,1-1.162.525,1.1,1.1,0,0,1-.775-.275.933.933,0,0,1-.3-.725,1.59,1.59,0,0,1,1.25-1.575,1.025,1.025,0,0,0-.276-.175,1.421,1.421,0,0,0-.724-.15,1.643,1.643,0,0,0-.475.05,2.615,2.615,0,0,0-1.4,1.65q-.075.2-.725,2.788t-.7,2.912a3.816,3.816,0,0,0-.075.75,1.285,1.285,0,0,0,.349.95,1.254,1.254,0,0,0,.926.35,2.584,2.584,0,0,0,1.9-.887,4.621,4.621,0,0,0,1.15-1.963c.05-.166.1-.263.149-.287a1.192,1.192,0,0,1,.4-.038q.474,0,.474.2c0,.016-.016.108-.049.275a5.445,5.445,0,0,1-1.75,2.7,3.944,3.944,0,0,1-2.475.925,2.88,2.88,0,0,1-2.65-1.575,3.5,3.5,0,0,1-1.85,1.5,3.222,3.222,0,0,1-.65.05,2.178,2.178,0,0,1-2.05-1.025,1.933,1.933,0,0,1-.25-1,1.892,1.892,0,0,1,.45-1.275,1.446,1.446,0,0,1,1.149-.525.94.94,0,0,1,1.076,1.05,1.411,1.411,0,0,1-.875,1.35c-.034.017-.076.037-.125.063l-.125.062a.191.191,0,0,1-.076.025l-.074.025q0,.075.375.225a1.673,1.673,0,0,0,.65.125,1.844,1.844,0,0,0,1.549-1.125,18.8,18.8,0,0,0,.976-3.25q.15-.574.325-1.275t.262-1.075c.058-.25.1-.4.113-.45a6.136,6.136,0,0,0,.125-.975,1.344,1.344,0,0,0-.325-.95,1.166,1.166,0,0,0-.9-.35,2.614,2.614,0,0,0-1.951.862,4.752,4.752,0,0,0-1.149,1.988c-.034.15-.071.237-.112.262a1.179,1.179,0,0,1-.413.038Z" style="fill:#fff"/><polygon points="469.706 295 478.943 279 460.468 279 469.706 295" style="fill:#83c167"/><path d="M609.448,212.715q-2.3,0-2.3,1.625a1.121,1.121,0,0,0,.05.425,1.492,1.492,0,0,0,.775.862,7.57,7.57,0,0,0,1.7.488,6.749,6.749,0,0,1,1.949.55,3.621,3.621,0,0,1,2.026,2.475,4.644,4.644,0,0,1,.025.6,4.041,4.041,0,0,1-.35,1.725,3.767,3.767,0,0,1-3.675,1.85,3.978,3.978,0,0,1-2.6-.9l-.2.175-.226.225c-.1.1-.2.192-.3.275l-.275.25h-.2a.452.452,0,0,1-.325-.15v-1.975q0-1.624.013-1.875c.007-.167.045-.266.112-.3a1.569,1.569,0,0,1,.4-.025.836.836,0,0,1,.387.05.808.808,0,0,1,.138.35,5.769,5.769,0,0,0,.65,1.725,2.782,2.782,0,0,0,2.425,1.275q2.424,0,2.425-1.95a1.586,1.586,0,0,0-.451-1.175,2.175,2.175,0,0,0-1.049-.675q-.426-.1-1.2-.275a8.547,8.547,0,0,1-1.9-.525,3.12,3.12,0,0,1-1.925-2.325,1.813,1.813,0,0,1-.025-.375q0-2.874,3.525-3.225a1.631,1.631,0,0,1,.6,0,3.868,3.868,0,0,1,1.75.375l.375.2.224-.175a6.432,6.432,0,0,1,.551-.425h.2a.454.454,0,0,1,.326.15v3.3l-.15.15h-.7a.428.428,0,0,1-.15-.3,2.334,2.334,0,0,0-.7-1.8A2.718,2.718,0,0,0,609.448,212.715Z" style="fill:#83c167"/><path d="M620.723,223.065a21.355,21.355,0,0,0-2.6-.075,26.381,26.381,0,0,0-2.725.075h-.2v-1.15h.4a8.768,8.768,0,0,0,1.225-.075.538.538,0,0,0,.3-.275q.024-.049.025-3.625a34.5,34.5,0,0,0-.1-4q-.2-.5-1.475-.5H615.3v-.575q0-.575.05-.575l.25-.025c.166-.016.4-.033.7-.05l.9-.05c.283-.017.584-.038.9-.062s.559-.046.725-.063.258-.025.275-.025h.075v9.5a.578.578,0,0,0,.3.313,4.025,4.025,0,0,0,.875.087h.575v1.15Zm-2.9-16.725a1.61,1.61,0,0,1,1.025.437,1.411,1.411,0,0,1,.4,1.063,1.338,1.338,0,0,1-.675,1.275,1.374,1.374,0,0,1-.8.225,1.416,1.416,0,0,1-.825-.225,1.338,1.338,0,0,1-.675-1.275,1.416,1.416,0,0,1,.437-1.1A1.59,1.59,0,0,1,617.823,206.34Z" style="fill:#83c167"/><path d="M626.2,221.565c.132.233.525.35,1.174.35h.75v1.15h-.2a52.286,52.286,0,0,0-5.6,0h-.2v-1.15h.75q.977,0,1.175-.35v-.775q0-.35.013-.788t.013-.975V217.99c0-.516,0-1.071-.013-1.662s-.013-1.079-.013-1.463v-.575a.831.831,0,0,0-.362-.638,2.933,2.933,0,0,0-1.112-.212h-.451v-.575q0-.575.05-.575l.25-.025q.251-.024.713-.05l.912-.05c.283-.017.584-.038.9-.062s.558-.046.724-.063.259-.025.276-.025h.075v1a7.078,7.078,0,0,0,.024.95l.026-.025a4.4,4.4,0,0,1,3.825-1.925,2.918,2.918,0,0,1,3.175,2.825q.024.175.025,3.475,0,3.2.024,3.25a.538.538,0,0,0,.3.275,8.793,8.793,0,0,0,1.226.075h.4v1.15h-.2a52.323,52.323,0,0,0-5.6,0h-.2v-1.15h.6q1.324,0,1.325-.4.024-.049.024-3.45-.024-3.375-.049-3.575a2.213,2.213,0,0,0-.563-1.162,1.686,1.686,0,0,0-1.187-.363,2.711,2.711,0,0,0-1.975.85,3.572,3.572,0,0,0-1.025,2.2v.463q0,.436-.013,1.112t-.013,1.275v.787q0,.413.013.738c.009.217.013.412.013.588v.587Z" style="fill:#83c167"/><path d="M643.723,229.09q0,.225-.45.225h-.325l-.7-.6q-4.5-4.1-4.5-11.9a20.133,20.133,0,0,1,.726-5.575,13.48,13.48,0,0,1,3.774-6.325c.117-.1.25-.212.4-.337s.25-.213.3-.263h.325a.593.593,0,0,1,.375.075.216.216,0,0,1,.075.15q0,.1-.275.375-3.876,4.1-3.875,11.9t3.875,11.9Q643.723,228.99,643.723,229.09Z" style="fill:#83c167"/><path d="M647.073,221.565a1.452,1.452,0,0,1,1.5-1.5,1.481,1.481,0,0,1,1.088.437,1.421,1.421,0,0,1,.437,1.038,1.513,1.513,0,0,1-3.025.025Z" style="fill:#f8f8f8"/><path d="M654.023,221.565a1.454,1.454,0,0,1,1.5-1.5,1.48,1.48,0,0,1,1.087.437,1.418,1.418,0,0,1,.437,1.038,1.512,1.512,0,0,1-3.024.025Z" style="fill:#f8f8f8"/><path d="M660.973,221.565a1.454,1.454,0,0,1,1.5-1.5,1.478,1.478,0,0,1,1.087.437A1.418,1.418,0,0,1,664,221.54a1.512,1.512,0,0,1-3.024.025Z" style="fill:#f8f8f8"/><path d="M667.473,204.34l.1-.025h.549l.7.6q4.5,4.1,4.5,11.9a19.736,19.736,0,0,1-.725,5.55,13.489,13.489,0,0,1-3.775,6.35q-.175.15-.4.337c-.15.125-.25.213-.3.263h-.3a.945.945,0,0,1-.388-.05c-.059-.034-.087-.117-.087-.25q.026-.025.274-.325,3.876-4.026,3.875-11.875t-3.875-11.875q-.249-.3-.274-.325A.293.293,0,0,1,667.473,204.34Z" style="fill:#83c167"/><path d="M442.643,240.081q-2.3,0-2.3,1.625a1.13,1.13,0,0,0,.05.426,1.5,1.5,0,0,0,.774.862,7.623,7.623,0,0,0,1.7.487,6.759,6.759,0,0,1,1.95.55,3.624,3.624,0,0,1,2.025,2.476,4.625,4.625,0,0,1,.025.6,4.038,4.038,0,0,1-.35,1.725,3.767,3.767,0,0,1-3.675,1.851,3.974,3.974,0,0,1-2.6-.9l-.2.175-.224.226c-.1.1-.2.191-.3.274l-.275.25h-.2a.456.456,0,0,1-.324-.149v-1.976q0-1.624.012-1.875c.009-.166.046-.266.113-.3a1.651,1.651,0,0,1,.4-.024.824.824,0,0,1,.387.05.808.808,0,0,1,.138.349,5.8,5.8,0,0,0,.649,1.726,2.785,2.785,0,0,0,2.426,1.274q2.424,0,2.425-1.95a1.591,1.591,0,0,0-.45-1.175,2.183,2.183,0,0,0-1.05-.675q-.426-.1-1.2-.275a8.588,8.588,0,0,1-1.9-.524,3.122,3.122,0,0,1-1.924-2.326,1.8,1.8,0,0,1-.025-.375q0-2.874,3.525-3.225a1.63,1.63,0,0,1,.6,0,3.868,3.868,0,0,1,1.75.375l.375.2.225-.175a6.44,6.44,0,0,1,.55-.425h.2a.457.457,0,0,1,.325.15v3.3l-.15.149h-.7a.433.433,0,0,1-.149-.3,2.336,2.336,0,0,0-.7-1.8A2.722,2.722,0,0,0,442.643,240.081Z" style="fill:#83c167"/><path d="M453.917,250.432a21.2,21.2,0,0,0-2.6-.076,26.242,26.242,0,0,0-2.725.076h-.2v-1.151h.4a8.642,8.642,0,0,0,1.226-.075.54.54,0,0,0,.3-.274q.024-.051.025-3.625a34.778,34.778,0,0,0-.1-4q-.2-.5-1.475-.5h-.275v-.575q0-.574.049-.575l.25-.025q.251-.024.7-.05l.9-.05q.425-.024.9-.062t.726-.063c.166-.016.258-.025.274-.025h.076v9.5a.581.581,0,0,0,.3.312,3.985,3.985,0,0,0,.875.087h.576v1.151Zm-2.9-16.726a1.6,1.6,0,0,1,1.024.438,1.408,1.408,0,0,1,.4,1.062,1.338,1.338,0,0,1-.675,1.275,1.371,1.371,0,0,1-.8.225,1.414,1.414,0,0,1-.825-.225,1.338,1.338,0,0,1-.675-1.275,1.417,1.417,0,0,1,.438-1.1A1.586,1.586,0,0,1,451.018,233.706Z" style="fill:#83c167"/><path d="M459.393,248.932q.2.35,1.175.349h.75v1.151h-.2a51.617,51.617,0,0,0-5.6,0h-.2v-1.151h.75q.974,0,1.175-.349v-.776q0-.35.012-.787c.008-.292.013-.616.013-.975v-1.038q0-.774-.013-1.662t-.012-1.463v-.575a.827.827,0,0,0-.363-.637,2.928,2.928,0,0,0-1.112-.213h-.45v-.575c0-.383.016-.575.05-.575l.25-.025c.166-.016.4-.033.712-.05l.913-.05q.425-.024.9-.062t.725-.063c.166-.016.257-.025.275-.025h.074v1a6.588,6.588,0,0,0,.026.95l.025-.024a4.395,4.395,0,0,1,3.824-1.926,2.918,2.918,0,0,1,3.176,2.825q.024.176.024,3.476,0,3.2.026,3.25a.534.534,0,0,0,.3.274,8.593,8.593,0,0,0,1.224.075h.4v1.151h-.2a51.6,51.6,0,0,0-5.6,0h-.2v-1.151h.6q1.326,0,1.325-.4.026-.05.026-3.45-.025-3.375-.05-3.576a2.209,2.209,0,0,0-.563-1.162,1.685,1.685,0,0,0-1.187-.363,2.712,2.712,0,0,0-1.976.851,3.579,3.579,0,0,0-1.024,2.2v.462c0,.292,0,.663-.013,1.112s-.012.875-.012,1.275v.788q0,.413.012.738c.008.217.013.412.013.587v.588Z" style="fill:#83c167"/><path d="M476.917,256.456c0,.15-.15.226-.45.226h-.325c-.116-.1-.35-.3-.7-.6q-4.5-4.1-4.5-11.9a20.18,20.18,0,0,1,.724-5.576,13.491,13.491,0,0,1,3.776-6.325c.116-.1.25-.212.4-.337s.25-.213.3-.263h.325a.593.593,0,0,1,.375.075.216.216,0,0,1,.075.15c0,.067-.091.192-.275.375q-3.874,4.1-3.875,11.9t3.875,11.9C476.826,256.265,476.917,256.39,476.917,256.456Z" style="fill:#83c167"/><path d="M479.768,243.481a.409.409,0,0,1-.15-.275,4.761,4.761,0,0,1,.775-1.725,4.288,4.288,0,0,1,2.949-2.05,4.138,4.138,0,0,1,.526-.05,3.035,3.035,0,0,1,1.612.45,2.687,2.687,0,0,1,1.062,1.125q.326-.424.4-.525a2.769,2.769,0,0,1,2.125-1.05,2.356,2.356,0,0,1,1.662.588,1.88,1.88,0,0,1,.638,1.437,1.966,1.966,0,0,1-.438,1.3,1.436,1.436,0,0,1-1.162.525,1.1,1.1,0,0,1-.775-.275.933.933,0,0,1-.3-.725,1.59,1.59,0,0,1,1.25-1.575,1.025,1.025,0,0,0-.276-.175,1.424,1.424,0,0,0-.724-.15,1.656,1.656,0,0,0-.476.05,2.619,2.619,0,0,0-1.4,1.65q-.075.2-.726,2.788t-.7,2.912a3.741,3.741,0,0,0-.075.75,1.286,1.286,0,0,0,.349.951,1.253,1.253,0,0,0,.925.349,2.585,2.585,0,0,0,1.9-.887,4.617,4.617,0,0,0,1.15-1.962c.05-.167.1-.263.149-.288a1.216,1.216,0,0,1,.4-.038q.474,0,.474.2c0,.016-.016.108-.049.274a5.447,5.447,0,0,1-1.75,2.7,3.944,3.944,0,0,1-2.475.925,2.878,2.878,0,0,1-2.65-1.574,3.5,3.5,0,0,1-1.85,1.5,3.222,3.222,0,0,1-.65.05,2.178,2.178,0,0,1-2.05-1.026,1.931,1.931,0,0,1-.25-1,1.883,1.883,0,0,1,.45-1.274,1.444,1.444,0,0,1,1.149-.526.94.94,0,0,1,1.076,1.05,1.413,1.413,0,0,1-.875,1.351l-.125.062-.125.063a.2.2,0,0,1-.076.024l-.075.026c0,.049.125.125.375.224a1.664,1.664,0,0,0,.651.125,1.845,1.845,0,0,0,1.549-1.125,18.8,18.8,0,0,0,.976-3.25q.15-.575.324-1.274t.263-1.075c.059-.25.1-.4.112-.451a6.022,6.022,0,0,0,.125-.974,1.346,1.346,0,0,0-.324-.951,1.171,1.171,0,0,0-.9-.35,2.613,2.613,0,0,0-1.951.863,4.746,4.746,0,0,0-1.149,1.988c-.034.149-.071.237-.113.262a1.206,1.206,0,0,1-.412.037Z" style="fill:#fff"/><path d="M494.118,231.706l.1-.025h.55l.7.6q4.5,4.1,4.5,11.9a19.735,19.735,0,0,1-.724,5.549,13.49,13.49,0,0,1-3.776,6.35c-.116.1-.25.213-.4.338s-.25.213-.3.263h-.3a.939.939,0,0,1-.387-.05c-.059-.034-.087-.117-.087-.25.016-.018.108-.125.274-.325q3.876-4.026,3.875-11.875t-3.875-11.876c-.166-.2-.258-.308-.274-.325A.293.293,0,0,1,494.118,231.706Z" style="fill:#83c167"/><path d="M618.326,387.134c0,.15-.151.225-.451.225h-.325l-.7-.6q-4.5-4.1-4.5-11.9a20.139,20.139,0,0,1,.725-5.575,13.486,13.486,0,0,1,3.775-6.325c.116-.1.25-.212.4-.337s.25-.213.3-.263h.325a.581.581,0,0,1,.375.076.214.214,0,0,1,.076.149q0,.1-.276.375-3.874,4.1-3.875,11.9t3.875,11.9Q618.326,387.034,618.326,387.134Z" style="fill:#58c4dd"/><path d="M621.675,379.609a1.454,1.454,0,0,1,1.5-1.5,1.476,1.476,0,0,1,1.088.438,1.422,1.422,0,0,1,.438,1.037,1.513,1.513,0,0,1-3.026.025Z" style="fill:#83c167"/><path d="M628.625,379.609a1.454,1.454,0,0,1,1.5-1.5,1.476,1.476,0,0,1,1.088.438,1.422,1.422,0,0,1,.438,1.037,1.513,1.513,0,0,1-3.026.025Z" style="fill:#83c167"/><path d="M635.576,379.609a1.452,1.452,0,0,1,1.5-1.5,1.478,1.478,0,0,1,1.088.438,1.421,1.421,0,0,1,.437,1.037,1.513,1.513,0,0,1-3.025.025Z" style="fill:#83c167"/><path d="M642.076,362.384l.1-.025h.55l.7.6q4.5,4.1,4.5,11.9a19.737,19.737,0,0,1-.724,5.55,13.49,13.49,0,0,1-3.776,6.35c-.116.1-.25.213-.4.338s-.25.213-.3.262h-.3a.944.944,0,0,1-.387-.049c-.059-.035-.087-.118-.087-.25.016-.018.108-.125.274-.326q3.876-4.024,3.875-11.875t-3.875-11.875c-.166-.2-.258-.308-.274-.325A.294.294,0,0,1,642.076,362.384Z" style="fill:#58c4dd"/><path d="M651.9,366.531a.816.816,0,0,1-.642-.262.932.932,0,0,1-.233-.641,2.388,2.388,0,0,1,.795-1.8,2.672,2.672,0,0,1,1.9-.75,3.158,3.158,0,0,1,2.076.678,2.85,2.85,0,0,1,1.014,1.77,4.747,4.747,0,0,1,.028.482,2.761,2.761,0,0,1-.51,1.589,9.723,9.723,0,0,1-1.646,1.675q-.527.451-1.458,1.341l-.859.817,1.107.014a17.406,17.406,0,0,0,2.434-.073c.039-.01.087-.111.146-.306a9.51,9.51,0,0,0,.2-.991v-.044h.583v.044l-.407,2.667v.044h-5.408v-.277a.991.991,0,0,1,.029-.335q.015-.015,1.225-1.385,1.587-1.764,2.04-2.332a4.223,4.223,0,0,0,.976-2.434,2.553,2.553,0,0,0-.5-1.611,1.683,1.683,0,0,0-1.407-.648,1.6,1.6,0,0,0-1.37.758c-.02.039-.049.092-.087.161a.318.318,0,0,0-.044.087c0,.009.025.014.073.014a.74.74,0,0,1,.59.263.907.907,0,0,1,.226.612.871.871,0,0,1-.24.619A.832.832,0,0,1,651.9,366.531Z" style="fill:#58c4dd"/><path d="M148.326,424.981c0,.151-.151.226-.451.226h-.325l-.7-.6q-4.5-4.1-4.5-11.9a20.1,20.1,0,0,1,.726-5.575,13.472,13.472,0,0,1,3.774-6.325c.116-.1.25-.212.4-.337s.25-.213.3-.263h.325a.583.583,0,0,1,.375.075.218.218,0,0,1,.076.15q0,.1-.276.375-3.876,4.1-3.875,11.9t3.875,11.9Q148.326,424.882,148.326,424.981Z" style="fill:#58c4dd"/><path d="M154.475,408.606q-2.3,0-2.3,1.625a1.127,1.127,0,0,0,.05.426,1.5,1.5,0,0,0,.774.863,7.733,7.733,0,0,0,1.7.487,6.726,6.726,0,0,1,1.95.55,3.624,3.624,0,0,1,2.025,2.475,4.644,4.644,0,0,1,.025.6,4.037,4.037,0,0,1-.35,1.724,3.765,3.765,0,0,1-3.675,1.851,3.978,3.978,0,0,1-2.6-.9l-.2.174-.224.226c-.1.1-.2.191-.3.274l-.275.25h-.2a.452.452,0,0,1-.324-.149v-1.976q0-1.624.012-1.875c.009-.166.046-.265.113-.3a1.569,1.569,0,0,1,.4-.025.839.839,0,0,1,.387.05.809.809,0,0,1,.138.35,5.8,5.8,0,0,0,.649,1.725,2.784,2.784,0,0,0,2.426,1.275q2.424,0,2.425-1.951a1.587,1.587,0,0,0-.45-1.174,2.176,2.176,0,0,0-1.05-.675c-.284-.067-.684-.158-1.2-.276a8.531,8.531,0,0,1-1.9-.524,3.123,3.123,0,0,1-1.924-2.325,1.813,1.813,0,0,1-.025-.375q0-2.874,3.525-3.225a1.63,1.63,0,0,1,.6,0,3.868,3.868,0,0,1,1.75.375l.375.2.225-.174a6.24,6.24,0,0,1,.55-.425h.2a.457.457,0,0,1,.325.15v3.3l-.15.149h-.7a.431.431,0,0,1-.149-.3,2.333,2.333,0,0,0-.7-1.8A2.718,2.718,0,0,0,154.475,408.606Z" style="fill:#83c167"/><path d="M165.749,418.957a21.319,21.319,0,0,0-2.6-.075,26.381,26.381,0,0,0-2.725.075h-.2v-1.15h.4a8.63,8.63,0,0,0,1.226-.076.533.533,0,0,0,.3-.274q.024-.05.025-3.625a34.778,34.778,0,0,0-.1-4q-.2-.5-1.475-.5h-.275v-.575q0-.575.049-.575l.25-.025q.251-.024.7-.051c.3-.015.6-.033.9-.049.283-.017.583-.037.9-.063s.559-.046.726-.062.258-.025.274-.025h.076v9.5a.584.584,0,0,0,.3.313,4.052,4.052,0,0,0,.875.087h.576v1.15Zm-2.9-16.726a1.614,1.614,0,0,1,1.024.438,1.411,1.411,0,0,1,.4,1.062,1.339,1.339,0,0,1-.675,1.276,1.371,1.371,0,0,1-.8.224,1.414,1.414,0,0,1-.825-.224,1.339,1.339,0,0,1-.675-1.276,1.414,1.414,0,0,1,.438-1.1A1.582,1.582,0,0,1,162.85,402.231Z" style="fill:#83c167"/><path d="M171.225,417.457q.2.35,1.175.35h.75v1.15h-.2a52.3,52.3,0,0,0-5.6,0h-.2v-1.15h.75q.975,0,1.175-.35v-.775c0-.234,0-.5.012-.787s.013-.617.013-.976v-1.037c0-.517,0-1.07-.013-1.662s-.012-1.079-.012-1.463v-.575a.827.827,0,0,0-.363-.638,2.928,2.928,0,0,0-1.112-.212h-.45v-.575c0-.383.016-.575.05-.575l.25-.025c.167-.016.4-.033.713-.051s.612-.033.912-.049c.283-.017.584-.037.9-.063s.559-.046.725-.062.258-.025.275-.025h.075v1a6.707,6.707,0,0,0,.025.949l.025-.024a4.4,4.4,0,0,1,3.825-1.925,2.917,2.917,0,0,1,3.175,2.824q.025.177.025,3.476,0,3.2.025,3.25a.53.53,0,0,0,.3.274,8.6,8.6,0,0,0,1.225.076h.4v1.15h-.2a52.3,52.3,0,0,0-5.6,0h-.2v-1.15h.6q1.324,0,1.325-.4.024-.049.025-3.45-.025-3.375-.05-3.575a2.212,2.212,0,0,0-.562-1.162,1.689,1.689,0,0,0-1.188-.364,2.713,2.713,0,0,0-1.975.851,3.575,3.575,0,0,0-1.025,2.2v.462q0,.438-.013,1.112c-.008.451-.012.875-.012,1.276v.787q0,.413.012.738c.009.217.013.412.013.587v.588Z" style="fill:#83c167"/><path d="M188.75,424.981q0,.226-.45.226h-.325l-.7-.6q-4.5-4.1-4.5-11.9a20.134,20.134,0,0,1,.725-5.575,13.481,13.481,0,0,1,3.775-6.325c.116-.1.25-.212.4-.337s.25-.213.3-.263h.325a.587.587,0,0,1,.375.075.216.216,0,0,1,.075.15c0,.067-.091.192-.275.375q-3.876,4.1-3.875,11.9t3.875,11.9C188.659,424.79,188.75,424.915,188.75,424.981Z" style="fill:#83c167"/><path d="M191.6,412.007a.412.412,0,0,1-.15-.276,4.751,4.751,0,0,1,.775-1.724,4.284,4.284,0,0,1,2.949-2.05,4.138,4.138,0,0,1,.526-.05,3.043,3.043,0,0,1,1.612.449,2.7,2.7,0,0,1,1.062,1.125l.4-.524a2.769,2.769,0,0,1,2.125-1.05,2.36,2.36,0,0,1,1.662.587,1.882,1.882,0,0,1,.638,1.438,1.963,1.963,0,0,1-.438,1.3,1.436,1.436,0,0,1-1.162.526,1.1,1.1,0,0,1-.775-.276.929.929,0,0,1-.3-.724,1.589,1.589,0,0,1,1.25-1.575.97.97,0,0,0-.276-.175,1.423,1.423,0,0,0-.724-.151,1.648,1.648,0,0,0-.476.051,2.619,2.619,0,0,0-1.4,1.65q-.075.2-.726,2.788t-.7,2.912a3.741,3.741,0,0,0-.075.75,1.284,1.284,0,0,0,.349.95,1.253,1.253,0,0,0,.925.35,2.582,2.582,0,0,0,1.9-.888,4.611,4.611,0,0,0,1.15-1.962c.05-.167.1-.263.149-.288a1.258,1.258,0,0,1,.4-.037c.316,0,.474.066.474.2,0,.017-.016.108-.049.274a5.45,5.45,0,0,1-1.75,2.7,3.943,3.943,0,0,1-2.475.924,2.878,2.878,0,0,1-2.65-1.574,3.5,3.5,0,0,1-1.85,1.5,3.222,3.222,0,0,1-.65.05,2.179,2.179,0,0,1-2.05-1.025,1.936,1.936,0,0,1-.25-1,1.887,1.887,0,0,1,.45-1.275,1.446,1.446,0,0,1,1.149-.525.939.939,0,0,1,1.076,1.05,1.411,1.411,0,0,1-.875,1.35c-.034.017-.076.037-.125.063l-.125.062a.191.191,0,0,1-.076.025l-.075.025q0,.075.375.225a1.664,1.664,0,0,0,.651.125A1.845,1.845,0,0,0,195,417.182a18.8,18.8,0,0,0,.976-3.25q.15-.575.324-1.275t.263-1.075c.059-.25.1-.4.112-.45a6.031,6.031,0,0,0,.125-.975,1.343,1.343,0,0,0-.324-.95,1.172,1.172,0,0,0-.9-.351,2.614,2.614,0,0,0-1.951.864,4.736,4.736,0,0,0-1.149,1.987c-.034.149-.071.237-.113.263a1.235,1.235,0,0,1-.412.037Z" style="fill:#fff"/><path d="M205.95,400.231l.1-.024h.55l.7.6q4.5,4.1,4.5,11.9a19.742,19.742,0,0,1-.724,5.55,13.482,13.482,0,0,1-3.776,6.349c-.116.1-.25.213-.4.338s-.25.213-.3.263h-.3a.939.939,0,0,1-.387-.05c-.059-.034-.087-.117-.087-.25.016-.017.108-.125.274-.325q3.876-4.026,3.875-11.875T206.1,400.832c-.166-.2-.258-.309-.274-.325A.3.3,0,0,1,205.95,400.231Z" style="fill:#83c167"/><path d="M215.674,400.231l.1-.024h.55l.7.6q4.5,4.1,4.5,11.9a19.7,19.7,0,0,1-.725,5.55,13.471,13.471,0,0,1-3.774,6.349c-.117.1-.25.213-.4.338s-.25.213-.3.263h-.3a.945.945,0,0,1-.388-.05c-.058-.034-.088-.117-.088-.25q.025-.026.276-.325,3.875-4.026,3.875-11.875t-3.875-11.875c-.167-.2-.259-.309-.276-.325A.3.3,0,0,1,215.674,400.231Z" style="fill:#58c4dd"/><path d="M225.5,404.379a.813.813,0,0,1-.641-.263.925.925,0,0,1-.234-.64,2.39,2.39,0,0,1,.795-1.8,2.673,2.673,0,0,1,1.9-.75,3.153,3.153,0,0,1,2.077.678,2.844,2.844,0,0,1,1.013,1.77,4.488,4.488,0,0,1,.029.481,2.758,2.758,0,0,1-.51,1.589,9.661,9.661,0,0,1-1.647,1.676q-.525.452-1.457,1.341l-.861.816,1.109.015a17.385,17.385,0,0,0,2.433-.073c.039-.01.088-.112.146-.306a9.112,9.112,0,0,0,.2-.991v-.044h.583v.044l-.408,2.667v.044h-5.408v-.278a.946.946,0,0,1,.03-.334l1.224-1.385q1.588-1.764,2.04-2.332a4.221,4.221,0,0,0,.977-2.434,2.546,2.546,0,0,0-.5-1.611,1.679,1.679,0,0,0-1.406-.649,1.6,1.6,0,0,0-1.37.758c-.02.039-.049.093-.087.161a.288.288,0,0,0-.044.087q0,.015.072.015a.744.744,0,0,1,.591.263.908.908,0,0,1,.225.612.871.871,0,0,1-.24.619A.831.831,0,0,1,225.5,404.379Z" style="fill:#58c4dd"/><path d="M569.449,152.931C603.1,199.621,589.23,243.306,573.9,269.7" style="fill:none;stroke:#83c167;stroke-miterlimit:10;stroke-width:1.5px"/><path d="M569.1,277.377c.888-4.456,1.363-10.37.648-14.658l4.722,5.938L581.9,270.2C577.747,271.491,572.679,274.578,569.1,277.377Z" style="fill:#83c167"/><path d="M570.449,312.805C604.1,359.5,590.23,403.18,574.9,429.573" style="fill:none;stroke:#58c4dd;stroke-miterlimit:10;stroke-width:1.5px"/><path d="M570.1,437.251c.888-4.456,1.363-10.37.648-14.658l4.722,5.938,7.426,1.542C578.747,431.365,573.679,434.452,570.1,437.251Z" style="fill:#58c4dd"/><path d="M185.7,150.863c.047,0,.077.161.09.482s.028.876.043,1.666.039,1.481.07,2.075q.33,6.444,1.307,6.444h2.806q1.244,0,1.6,8.944.353-8.943,1.516-8.944H196a.578.578,0,0,0,.428-.147,7.433,7.433,0,0,0,.7-2.872,55.278,55.278,0,0,0,.353-5.833c0-.049,0-.192.006-.425s.008-.4.011-.5.01-.236.018-.408a1.908,1.908,0,0,1,.042-.37c.02-.075.043-.112.067-.112a81.513,81.513,0,0,1-.213,8.385q-.365,4.326-1.057,4.875a.648.648,0,0,1-.343.073h-2.821q-.395,0-.689.982a13.254,13.254,0,0,0-.436,2.537q-.143,1.556-.206,2.612t-.086,2.129c0,.148,0,.364-.006.648s-.011.512-.021.685-.018.346-.026.518a2.877,2.877,0,0,1-.04.409c-.019.1-.041.147-.064.147s-.056-.036-.075-.111a2.328,2.328,0,0,1-.043-.408q-.015-.3-.021-.611t-.017-.833c-.008-.346-.015-.666-.023-.963q-.081-2.74-.364-4.945a5.687,5.687,0,0,0-.723-2.648A.414.414,0,0,0,190,164.2h-2.72a.525.525,0,0,1-.371-.128,3.057,3.057,0,0,1-.388-.99,16.9,16.9,0,0,1-.447-2.51A74.513,74.513,0,0,1,185.7,150.863Z" style="fill:#fff"/><path d="M470.814,309c.054,0,.089.16.1.481s.032.877.05,1.667.045,1.481.08,2.075q.384,6.444,1.522,6.444h3.265q1.446,0,1.857,8.944.411-8.944,1.763-8.944h3.337a.737.737,0,0,0,.5-.148,6.628,6.628,0,0,0,.814-2.871,47.815,47.815,0,0,0,.411-5.834c0-.048,0-.191.007-.425s.009-.4.013-.5.012-.236.021-.409a1.61,1.61,0,0,1,.049-.37c.023-.074.049-.111.077-.111a69.845,69.845,0,0,1-.248,8.384q-.423,4.326-1.229,4.876a.857.857,0,0,1-.4.073h-3.283c-.305,0-.572.328-.8.981a11.509,11.509,0,0,0-.508,2.538q-.165,1.554-.239,2.611t-.1,2.13c0,.148,0,.364-.007.648s-.012.511-.024.685-.021.346-.03.518a2.46,2.46,0,0,1-.047.408c-.022.1-.047.148-.074.148s-.065-.037-.087-.111a1.98,1.98,0,0,1-.051-.408q-.017-.3-.023-.611c0-.209-.012-.488-.021-.834s-.018-.665-.027-.962a43.844,43.844,0,0,0-.424-4.945,5.112,5.112,0,0,0-.841-2.648.518.518,0,0,0-.4-.148h-3.164a.674.674,0,0,1-.431-.128,2.855,2.855,0,0,1-.452-.99,14.809,14.809,0,0,1-.521-2.511A64.1,64.1,0,0,1,470.814,309Z" style="fill:#83c167"/><path d="M180.072,467.98c.092,0,.151.16.177.482s.054.876.085,1.666.076,1.481.136,2.075q.649,6.444,2.575,6.444h5.525q2.45,0,3.144,8.944.695-8.943,2.984-8.944h5.647a1.894,1.894,0,0,0,.843-.148q.8-.521,1.378-2.871a28.745,28.745,0,0,0,.695-5.833c0-.049,0-.192.011-.425s.016-.4.023-.5.019-.236.035-.408a1.026,1.026,0,0,1,.083-.37c.04-.075.083-.112.131-.112.2,0,.057,5.5-.42,8.385s-1.171,4.509-2.08,4.875a2.354,2.354,0,0,1-.676.073h-5.556a1.635,1.635,0,0,0-1.355.982,7.6,7.6,0,0,0-.86,2.537q-.279,1.556-.405,2.612t-.17,2.129c0,.148,0,.364-.012.648s-.021.512-.04.685-.036.346-.051.518a1.532,1.532,0,0,1-.08.408c-.038.1-.08.148-.125.148a.167.167,0,0,1-.148-.111,1.263,1.263,0,0,1-.086-.408q-.028-.3-.039-.611t-.034-.833c-.016-.346-.031-.666-.046-.963a26.461,26.461,0,0,0-.718-4.945q-.558-2.2-1.424-2.648a1.262,1.262,0,0,0-.683-.148h-5.355a1.732,1.732,0,0,1-.73-.128,2.634,2.634,0,0,1-.764-.99,9.77,9.77,0,0,1-.882-2.511A38.112,38.112,0,0,1,180.072,467.98Z" style="fill:#58c4dd"/><path d="M102.75,522.87a1.4,1.4,0,0,1-1.1-.449,1.6,1.6,0,0,1-.4-1.1,4.1,4.1,0,0,1,1.363-3.087,4.585,4.585,0,0,1,3.262-1.288,5.423,5.423,0,0,1,3.563,1.163,4.885,4.885,0,0,1,1.737,3.038,7.586,7.586,0,0,1,.05.825,4.725,4.725,0,0,1-.875,2.724,16.533,16.533,0,0,1-2.825,2.875q-.9.775-2.5,2.3l-1.475,1.4,1.9.025a30.064,30.064,0,0,0,4.174-.125q.1-.026.25-.525a15.794,15.794,0,0,0,.35-1.7v-.075h1v.075l-.7,4.576v.075H101.25v-.476a1.686,1.686,0,0,1,.05-.574q.025-.026,2.1-2.375,2.724-3.026,3.5-4A7.248,7.248,0,0,0,108.576,522a4.369,4.369,0,0,0-.864-2.762,2.876,2.876,0,0,0-2.412-1.113,2.74,2.74,0,0,0-2.349,1.3c-.035.066-.084.158-.151.274a.552.552,0,0,0-.075.151c0,.016.042.024.125.024a1.277,1.277,0,0,1,1.013.45,1.562,1.562,0,0,1,.387,1.05,1.488,1.488,0,0,1-.413,1.063A1.419,1.419,0,0,1,102.75,522.87Z" style="fill:#58c4dd"/><path d="M123.5,523.245q-2.3,0-2.3,1.625a1.137,1.137,0,0,0,.049.426,1.5,1.5,0,0,0,.775.862,7.64,7.64,0,0,0,1.7.488,6.723,6.723,0,0,1,1.95.549,3.627,3.627,0,0,1,2.026,2.476,4.911,4.911,0,0,1,.024.6,4.022,4.022,0,0,1-.35,1.724,3.767,3.767,0,0,1-3.674,1.851,3.976,3.976,0,0,1-2.6-.9l-.2.175-.225.226c-.1.1-.2.191-.3.274l-.275.25h-.2a.454.454,0,0,1-.324-.149v-1.976q0-1.625.011-1.875c.009-.166.046-.266.114-.3a1.646,1.646,0,0,1,.4-.024.827.827,0,0,1,.388.05.8.8,0,0,1,.137.349,5.775,5.775,0,0,0,.65,1.726,2.782,2.782,0,0,0,2.426,1.274q2.424,0,2.424-1.95a1.591,1.591,0,0,0-.45-1.175,2.169,2.169,0,0,0-1.05-.674c-.284-.067-.683-.159-1.2-.276a8.535,8.535,0,0,1-1.9-.524,3.124,3.124,0,0,1-1.925-2.325,1.835,1.835,0,0,1-.024-.375q0-2.875,3.524-3.225a1.636,1.636,0,0,1,.6,0,3.868,3.868,0,0,1,1.75.375l.375.2.224-.175a6.558,6.558,0,0,1,.55-.424h.2a.451.451,0,0,1,.325.15v3.3l-.15.149h-.7a.429.429,0,0,1-.15-.3,2.332,2.332,0,0,0-.7-1.8A2.716,2.716,0,0,0,123.5,523.245Z" style="fill:#83c167"/><path d="M134.775,533.6a21.355,21.355,0,0,0-2.6-.075,26.355,26.355,0,0,0-2.724.075h-.2v-1.151h.4a8.618,8.618,0,0,0,1.225-.075.537.537,0,0,0,.3-.274q.025-.051.026-3.625a34.617,34.617,0,0,0-.1-4q-.2-.5-1.475-.5h-.275V523.4c0-.383.017-.576.05-.576l.25-.024c.167-.017.4-.033.7-.051l.9-.05c.284-.016.583-.037.9-.062s.558-.046.725-.063.258-.024.275-.024h.075v9.5a.583.583,0,0,0,.3.312,3.968,3.968,0,0,0,.875.087h.575V533.6Zm-2.9-16.726a1.614,1.614,0,0,1,1.025.438,1.413,1.413,0,0,1,.4,1.062,1.337,1.337,0,0,1-.675,1.276,1.368,1.368,0,0,1-.8.224,1.417,1.417,0,0,1-.826-.224,1.338,1.338,0,0,1-.674-1.276,1.412,1.412,0,0,1,.437-1.1A1.582,1.582,0,0,1,131.875,516.87Z" style="fill:#83c167"/><path d="M140.25,532.1q.2.349,1.175.349h.75V533.6h-.2a25.275,25.275,0,0,0-2.8-.075,25.262,25.262,0,0,0-2.8.075h-.2v-1.151h.75q.975,0,1.175-.349v-.776q0-.35.013-.787c.008-.292.012-.616.012-.975v-1.037q0-.775-.012-1.663T138.1,525.4v-.576a.829.829,0,0,0-.362-.637,2.924,2.924,0,0,0-1.113-.212h-.45V523.4c0-.383.017-.576.05-.576l.25-.024c.166-.017.4-.033.713-.051l.912-.05q.425-.024.9-.062c.317-.025.558-.046.725-.063s.258-.024.275-.024h.075v1a6.707,6.707,0,0,0,.025.949l.025-.024a4.4,4.4,0,0,1,3.825-1.925,2.916,2.916,0,0,1,3.175,2.824q.024.175.025,3.476,0,3.2.025,3.25a.537.537,0,0,0,.3.274,8.618,8.618,0,0,0,1.225.075h.4V533.6h-.2a52.3,52.3,0,0,0-5.6,0h-.2v-1.151h.6q1.325,0,1.325-.4.024-.05.025-3.45-.024-3.375-.05-3.575a2.208,2.208,0,0,0-.562-1.163,1.687,1.687,0,0,0-1.188-.363,2.708,2.708,0,0,0-1.975.851,3.58,3.58,0,0,0-1.025,2.2v.462q0,.438-.012,1.112t-.013,1.276v.787q0,.412.013.738c.008.217.012.412.012.587v.588Z" style="fill:#83c167"/><path d="M157.775,539.62c0,.151-.151.226-.45.226H157c-.116-.1-.349-.3-.7-.6q-4.5-4.1-4.5-11.9a20.129,20.129,0,0,1,.725-5.575,13.485,13.485,0,0,1,3.775-6.326c.116-.1.25-.212.4-.337s.25-.212.3-.262h.326a.587.587,0,0,1,.375.075.22.22,0,0,1,.075.149q0,.1-.276.375-3.874,4.1-3.875,11.9t3.875,11.9Q157.775,539.521,157.775,539.62Z" style="fill:#83c167"/><path d="M160.625,526.646a.417.417,0,0,1-.15-.276,4.751,4.751,0,0,1,.775-1.724,4.283,4.283,0,0,1,2.95-2.05,3.946,3.946,0,0,1,.525-.05,3.034,3.034,0,0,1,1.612.449,2.7,2.7,0,0,1,1.063,1.125q.325-.424.4-.524a2.769,2.769,0,0,1,2.125-1.05,2.352,2.352,0,0,1,1.662.587,1.88,1.88,0,0,1,.638,1.437,1.963,1.963,0,0,1-.437,1.3,1.437,1.437,0,0,1-1.163.526,1.1,1.1,0,0,1-.775-.276.934.934,0,0,1-.3-.724,1.59,1.59,0,0,1,1.25-1.576,1.014,1.014,0,0,0-.275-.174,1.424,1.424,0,0,0-.725-.151,1.636,1.636,0,0,0-.475.051,2.616,2.616,0,0,0-1.4,1.649q-.075.2-.725,2.788t-.7,2.913a3.816,3.816,0,0,0-.075.75,1.282,1.282,0,0,0,.35.95,1.251,1.251,0,0,0,.925.349,2.581,2.581,0,0,0,1.9-.887,4.617,4.617,0,0,0,1.15-1.962q.075-.251.15-.288a1.219,1.219,0,0,1,.4-.037c.317,0,.475.066.475.2,0,.016-.017.108-.05.274a5.434,5.434,0,0,1-1.75,2.7,3.94,3.94,0,0,1-2.475.925,2.879,2.879,0,0,1-2.65-1.574,3.5,3.5,0,0,1-1.85,1.5,3.222,3.222,0,0,1-.65.05,2.179,2.179,0,0,1-2.05-1.026,1.931,1.931,0,0,1-.25-1,1.89,1.89,0,0,1,.45-1.274,1.444,1.444,0,0,1,1.15-.525.938.938,0,0,1,1.075,1.049,1.412,1.412,0,0,1-.875,1.351l-.125.062-.125.063a.2.2,0,0,1-.075.024l-.075.026c0,.05.125.125.375.224a1.662,1.662,0,0,0,.65.125,1.846,1.846,0,0,0,1.55-1.125,18.772,18.772,0,0,0,.975-3.25q.15-.573.325-1.274t.262-1.075c.059-.25.1-.4.113-.45a6.044,6.044,0,0,0,.125-.975,1.344,1.344,0,0,0-.325-.95,1.165,1.165,0,0,0-.9-.351,2.611,2.611,0,0,0-1.95.863,4.737,4.737,0,0,0-1.15,1.988c-.034.149-.071.237-.113.262a1.2,1.2,0,0,1-.412.038Z" style="fill:#fff"/><path d="M174.975,514.87l.1-.024h.549c.118.1.351.3.7.6q4.5,4.1,4.5,11.9a19.778,19.778,0,0,1-.725,5.55,13.493,13.493,0,0,1-3.775,6.349c-.117.1-.25.213-.4.338s-.25.213-.3.263h-.3a.945.945,0,0,1-.388-.05c-.059-.034-.087-.117-.087-.25.017-.018.108-.125.274-.325Q179,535.2,179,527.346t-3.875-11.875c-.166-.2-.257-.309-.274-.325A.3.3,0,0,1,174.975,514.87Z" style="fill:#83c167"/><path d="M191.4,527.346a1.454,1.454,0,0,1,1.5-1.5,1.475,1.475,0,0,1,1.087.437,1.417,1.417,0,0,1,.437,1.037,1.512,1.512,0,0,1-3.024.026Z" style="fill:#fff"/><path d="M211.412,525.608a1.358,1.358,0,0,1-.963.363,1.265,1.265,0,0,1-.951-.388,1.376,1.376,0,0,1,0-1.888c.083-.083.122-.133.113-.149s-.087-.033-.238-.051a8.142,8.142,0,0,0-1.224-.1,2.561,2.561,0,0,0-2,.8,5.416,5.416,0,0,0-1.175,3.925,5.816,5.816,0,0,0,.774,3.226,3.165,3.165,0,0,0,2.75,1.524,2.328,2.328,0,0,0,1.1-.25,2.907,2.907,0,0,0,1.449-1.949.423.423,0,0,1,.125-.25.937.937,0,0,1,.4-.051h.349c.1.1.151.176.151.226a3.341,3.341,0,0,1-.625,1.474,4.043,4.043,0,0,1-3.526,1.8,5.153,5.153,0,0,1-2.375-.574,5.514,5.514,0,0,1-2.974-4.25,6.964,6.964,0,0,1-.026-.8,7.705,7.705,0,0,1,.026-.824,5.774,5.774,0,0,1,2.049-3.825,5.2,5.2,0,0,1,3.326-1.2q3.225,0,3.775,1.7a1.851,1.851,0,0,1,.074.575A1.229,1.229,0,0,1,211.412,525.608Z" style="fill:#83c167"/><path d="M213.5,528.245a5.7,5.7,0,0,1,1.451-3.912,5.565,5.565,0,0,1,4.1-1.937,5.169,5.169,0,0,1,3.776,1.6,5.761,5.761,0,0,1,1.75,4.226,6.615,6.615,0,0,1-.125,1.175,5.336,5.336,0,0,1-1.413,2.737,5.528,5.528,0,0,1-2.688,1.562,5.112,5.112,0,0,1-1.3.151,5.227,5.227,0,0,1-1.325-.151,5.579,5.579,0,0,1-4.225-5.45Zm6-4.9a2.211,2.211,0,0,0-.4-.026,3.486,3.486,0,0,0-1.425.3A3.284,3.284,0,0,0,216,526.346c-.034.3-.049.833-.049,1.6a8.558,8.558,0,0,0,.474,3.375,2.741,2.741,0,0,0,2.625,1.526q3.049,0,3.05-4.075v-.8a12.493,12.493,0,0,0-.125-2.2A2.973,2.973,0,0,0,219.5,523.346Z" style="fill:#83c167"/><path d="M230.048,523.245q-2.3,0-2.3,1.625a1.152,1.152,0,0,0,.05.426,1.5,1.5,0,0,0,.776.862,7.612,7.612,0,0,0,1.7.488,6.733,6.733,0,0,1,1.95.549,3.621,3.621,0,0,1,2.025,2.476,4.461,4.461,0,0,1,.025.6,4.022,4.022,0,0,1-.35,1.724,3.767,3.767,0,0,1-3.675,1.851,3.974,3.974,0,0,1-2.6-.9l-.2.175-.226.226c-.1.1-.2.191-.3.274l-.275.25h-.2a.456.456,0,0,1-.326-.149v-1.976q0-1.625.013-1.875c.008-.166.045-.266.112-.3a1.657,1.657,0,0,1,.4-.024.827.827,0,0,1,.388.05.8.8,0,0,1,.137.349,5.75,5.75,0,0,0,.651,1.726,2.778,2.778,0,0,0,2.424,1.274q2.426,0,2.425-1.95a1.591,1.591,0,0,0-.45-1.175,2.169,2.169,0,0,0-1.05-.674q-.425-.1-1.2-.276a8.488,8.488,0,0,1-1.9-.524,3.121,3.121,0,0,1-1.926-2.325,1.813,1.813,0,0,1-.025-.375q0-2.875,3.525-3.225a1.63,1.63,0,0,1,.6,0,3.868,3.868,0,0,1,1.75.375l.375.2.225-.175a6.4,6.4,0,0,1,.55-.424h.2a.449.449,0,0,1,.325.15v3.3l-.15.149h-.7a.426.426,0,0,1-.151-.3,2.332,2.332,0,0,0-.7-1.8A2.716,2.716,0,0,0,230.048,523.245Z" style="fill:#83c167"/><path d="M243.474,539.62q0,.226-.45.226H242.7l-.7-.6q-4.5-4.1-4.5-11.9a20.165,20.165,0,0,1,.726-5.575A13.491,13.491,0,0,1,242,515.445c.118-.1.25-.212.4-.337s.25-.212.3-.262h.325a.587.587,0,0,1,.375.075.216.216,0,0,1,.075.149q0,.1-.275.375-3.875,4.1-3.875,11.9t3.875,11.9Q243.474,539.521,243.474,539.62Z" style="fill:#83c167"/><path d="M246.324,526.646a.414.414,0,0,1-.151-.276,4.756,4.756,0,0,1,.776-1.724,4.281,4.281,0,0,1,2.95-2.05,3.935,3.935,0,0,1,.524-.05,3.04,3.04,0,0,1,1.613.449,2.7,2.7,0,0,1,1.062,1.125c.217-.283.351-.458.4-.524a2.772,2.772,0,0,1,2.125-1.05,2.355,2.355,0,0,1,1.663.587,1.879,1.879,0,0,1,.637,1.437,1.958,1.958,0,0,1-.437,1.3,1.435,1.435,0,0,1-1.162.526,1.1,1.1,0,0,1-.776-.276.934.934,0,0,1-.3-.724,1.59,1.59,0,0,1,1.25-1.576.993.993,0,0,0-.275-.174,1.422,1.422,0,0,0-.725-.151,1.628,1.628,0,0,0-.474.051,2.614,2.614,0,0,0-1.4,1.649q-.073.2-.724,2.788t-.7,2.913a3.817,3.817,0,0,0-.076.75,1.286,1.286,0,0,0,.35.95,1.252,1.252,0,0,0,.926.349,2.581,2.581,0,0,0,1.9-.887,4.62,4.62,0,0,0,1.151-1.962c.049-.167.1-.263.149-.288a1.228,1.228,0,0,1,.4-.037c.317,0,.475.066.475.2,0,.016-.017.108-.05.274a5.427,5.427,0,0,1-1.75,2.7,3.939,3.939,0,0,1-2.474.925,2.882,2.882,0,0,1-2.651-1.574,3.5,3.5,0,0,1-1.849,1.5,3.24,3.24,0,0,1-.651.05A2.18,2.18,0,0,1,246,532.82a1.931,1.931,0,0,1-.25-1,1.891,1.891,0,0,1,.451-1.274,1.44,1.44,0,0,1,1.149-.525.938.938,0,0,1,1.075,1.049,1.412,1.412,0,0,1-.875,1.351l-.125.062-.125.063a.194.194,0,0,1-.075.024l-.074.026c0,.05.125.125.375.224a1.654,1.654,0,0,0,.649.125,1.845,1.845,0,0,0,1.55-1.125,18.73,18.73,0,0,0,.976-3.25q.148-.573.325-1.274t.262-1.075c.058-.25.095-.4.113-.45a6.163,6.163,0,0,0,.125-.975,1.348,1.348,0,0,0-.325-.95,1.168,1.168,0,0,0-.9-.351,2.613,2.613,0,0,0-1.95.863,4.725,4.725,0,0,0-1.149,1.988c-.035.149-.072.237-.113.262a1.2,1.2,0,0,1-.413.038Z" style="fill:#fff"/><path d="M260.673,514.87l.1-.024h.551l.7.6q4.5,4.1,4.5,11.9a19.7,19.7,0,0,1-.725,5.55,13.477,13.477,0,0,1-3.775,6.349c-.116.1-.25.213-.4.338s-.25.213-.3.263h-.3a.942.942,0,0,1-.387-.05c-.058-.034-.088-.117-.088-.25.017-.018.109-.125.276-.325q3.874-4.026,3.875-11.875t-3.875-11.875c-.167-.2-.259-.309-.276-.325A.3.3,0,0,1,260.673,514.87Z" style="fill:#83c167"/><path d="M286.1,516.4q.375-.025.85-.063c.316-.025.553-.046.713-.062s.245-.026.262-.026c.2,0,.3.067.3.2q0,.175-1.838,7.563t-1.862,7.513a2.017,2.017,0,0,0-.026.375q0,1.05.7,1.049a1.083,1.083,0,0,0,.5-.224,5.679,5.679,0,0,0,1.025-2.4q.15-.5.25-.524a.718.718,0,0,1,.25-.025h.1c.316,0,.475.066.475.2a2.092,2.092,0,0,1-.075.4,6.515,6.515,0,0,1-1.351,2.9,2.489,2.489,0,0,1-.8.525,2.687,2.687,0,0,1-.6.05,2.255,2.255,0,0,1-2.2-1.226,2.041,2.041,0,0,0-.125-.3c-.017-.016-.05-.008-.1.026l-.1.1a5.12,5.12,0,0,1-2.375,1.375,4.7,4.7,0,0,1-.625.026,3.317,3.317,0,0,1-2.725-1.375,4.868,4.868,0,0,1-.75-2.8,7.637,7.637,0,0,1,1.7-4.6,6.551,6.551,0,0,1,3.449-2.375,3.767,3.767,0,0,1,1.026-.149,2.392,2.392,0,0,1,2.1,1.05c.084.1.125.133.125.1q.026-.1.688-2.737t.687-2.763a.447.447,0,0,0-.149-.4,3.74,3.74,0,0,0-1-.125h-.525a.677.677,0,0,1-.162-.2,2.478,2.478,0,0,1,.062-.476q.124-.474.325-.474c.016,0,.1-.008.262-.026s.384-.033.676-.05Zm-2.15,9.049q-.55-1.974-1.875-1.974a2.312,2.312,0,0,0-1.763.849,5.924,5.924,0,0,0-1.162,1.951,19.973,19.973,0,0,0-1.026,4.1c0,.051,0,.143-.011.276s-.013.233-.013.3a2.464,2.464,0,0,0,.388,1.451,1.3,1.3,0,0,0,1.136.549q1.326,0,2.776-1.8l.2-.276q.224-.9.675-2.712T283.948,525.445Z" style="fill:#fff"/><path d="M289.6,526.646a.412.412,0,0,1-.15-.276,4.751,4.751,0,0,1,.775-1.724,4.283,4.283,0,0,1,2.95-2.05,3.946,3.946,0,0,1,.525-.05,3.034,3.034,0,0,1,1.612.449,2.692,2.692,0,0,1,1.062,1.125l.4-.524a2.769,2.769,0,0,1,2.125-1.05,2.354,2.354,0,0,1,1.662.587,1.876,1.876,0,0,1,.638,1.437,1.958,1.958,0,0,1-.438,1.3,1.435,1.435,0,0,1-1.162.526,1.1,1.1,0,0,1-.775-.276.931.931,0,0,1-.3-.724,1.59,1.59,0,0,1,1.25-1.576,1.011,1.011,0,0,0-.276-.174,1.42,1.42,0,0,0-.724-.151,1.636,1.636,0,0,0-.475.051,2.613,2.613,0,0,0-1.4,1.649q-.075.2-.725,2.788t-.7,2.913a3.816,3.816,0,0,0-.075.75,1.285,1.285,0,0,0,.349.95,1.253,1.253,0,0,0,.926.349,2.584,2.584,0,0,0,1.9-.887,4.617,4.617,0,0,0,1.15-1.962c.05-.167.1-.263.149-.288a1.231,1.231,0,0,1,.4-.037c.316,0,.474.066.474.2,0,.016-.016.108-.049.274a5.441,5.441,0,0,1-1.75,2.7,3.944,3.944,0,0,1-2.475.925,2.879,2.879,0,0,1-2.65-1.574,3.5,3.5,0,0,1-1.85,1.5,3.222,3.222,0,0,1-.65.05,2.179,2.179,0,0,1-2.05-1.026,1.931,1.931,0,0,1-.25-1,1.89,1.89,0,0,1,.45-1.274,1.443,1.443,0,0,1,1.149-.525.939.939,0,0,1,1.076,1.049,1.412,1.412,0,0,1-.875,1.351l-.125.062-.125.063a.2.2,0,0,1-.076.024l-.074.026c0,.05.125.125.375.224a1.655,1.655,0,0,0,.65.125A1.844,1.844,0,0,0,293,531.82a18.73,18.73,0,0,0,.976-3.25q.15-.573.325-1.274t.262-1.075c.059-.25.1-.4.113-.45a6.163,6.163,0,0,0,.125-.975,1.344,1.344,0,0,0-.325-.95,1.167,1.167,0,0,0-.9-.351,2.615,2.615,0,0,0-1.951.863,4.746,4.746,0,0,0-1.149,1.988c-.034.149-.071.237-.112.262a1.206,1.206,0,0,1-.413.038Z" style="fill:#fff"/><line x1="60" y1="455" x2="540" y2="455" style="fill:none;stroke:#fff;stroke-miterlimit:10;stroke-width:1.5px;opacity:0.6000000000000001"/><line x1="60" y1="447" x2="60" y2="463" style="fill:none;stroke:#fff;stroke-miterlimit:10;stroke-width:1.5px;opacity:0.6000000000000001"/><line x1="420" y1="447" x2="420" y2="463" style="fill:none;stroke:#fff;stroke-miterlimit:10;stroke-width:1.5px;opacity:0.6000000000000001"/><line x1="540" y1="447" x2="540" y2="463" style="fill:none;stroke:#fff;stroke-miterlimit:10;stroke-width:1.5px;opacity:0.6000000000000001"/><line x1="180" y1="447" x2="180" y2="463" style="fill:none;stroke:#fff;stroke-miterlimit:10;stroke-width:1.5px;opacity:0.6000000000000001"/><line x1="120" y1="449" x2="120" y2="461" style="fill:none;stroke:#fff;stroke-miterlimit:10;stroke-width:1.5px;opacity:0.6000000000000001"/><line x1="240" y1="449" x2="240" y2="461" style="fill:none;stroke:#fff;stroke-miterlimit:10;stroke-width:1.5px;opacity:0.6000000000000001"/><line x1="360" y1="449" x2="360" y2="461" style="fill:none;stroke:#fff;stroke-miterlimit:10;stroke-width:1.5px;opacity:0.6000000000000001"/><line x1="480" y1="449" x2="480" y2="461" style="fill:none;stroke:#fff;stroke-miterlimit:10;stroke-width:1.5px;opacity:0.6000000000000001"/><line x1="300" y1="447" x2="300" y2="463" style="fill:none;stroke:#fff;stroke-miterlimit:10;stroke-width:1.5px;opacity:0.6000000000000001"/><g style="opacity:0.6000000000000001"><path d="M54,485.412a4.413,4.413,0,0,1,3.826-2.025,4.614,4.614,0,0,1,3.2,1.25,5.456,5.456,0,0,1,1.15,1.7,14.333,14.333,0,0,1,.924,5.7,13.047,13.047,0,0,1-1.074,5.925,4.332,4.332,0,0,1-2.051,2.1,4.7,4.7,0,0,1-2.125.525,4.4,4.4,0,0,1-4.2-2.625,13.046,13.046,0,0,1-1.075-5.925,19.524,19.524,0,0,1,.312-3.838A8.4,8.4,0,0,1,54,485.412Zm5.625-.3a2.3,2.3,0,0,0-1.775-.8,2.381,2.381,0,0,0-1.8.8,3,3,0,0,0-.75,1.4,15.263,15.263,0,0,0-.25,2.85c0,.1-.005.425-.013.975s-.012,1.009-.012,1.375q0,2.4.05,3.35a14.355,14.355,0,0,0,.3,2.512,2.832,2.832,0,0,0,.75,1.313,2.22,2.22,0,0,0,1.725.75,2.192,2.192,0,0,0,1.7-.75,2.867,2.867,0,0,0,.75-1.313,14.257,14.257,0,0,0,.3-2.512q.05-.95.051-3.35,0-.549-.013-1.375t-.013-.975a15.442,15.442,0,0,0-.25-2.85A2.984,2.984,0,0,0,59.625,485.112Z" style="fill:#fff"/></g><g style="opacity:0.6000000000000001"><path d="M304.149,500.037q-.426-.075-3.976-.075-3.5,0-3.925.075h-.3v-1.15h.65a14.1,14.1,0,0,0,1.875-.075,1.616,1.616,0,0,0,.6-.3V485.587a.609.609,0,0,0-.2.075,7.381,7.381,0,0,1-2.575.475h-.474v-1.15h.474a6.974,6.974,0,0,0,3.5-.95,3.462,3.462,0,0,0,.776-.575c.033-.05.132-.075.3-.075a.629.629,0,0,1,.425.15v7.475l.026,7.5a2.419,2.419,0,0,0,1.625.375h1.474v1.15Z" style="fill:#fff"/></g><g style="opacity:0.6000000000000001"><path d="M537.649,489.312a1.4,1.4,0,0,1-1.1-.45,1.6,1.6,0,0,1-.4-1.1,4.1,4.1,0,0,1,1.362-3.087,4.581,4.581,0,0,1,3.263-1.288,5.417,5.417,0,0,1,3.562,1.163,4.876,4.876,0,0,1,1.738,3.037,7.584,7.584,0,0,1,.049.825,4.731,4.731,0,0,1-.875,2.725,16.531,16.531,0,0,1-2.825,2.875q-.9.774-2.5,2.3l-1.474,1.4,1.9.025a30.085,30.085,0,0,0,4.175-.125q.1-.024.25-.525a16.21,16.21,0,0,0,.349-1.7v-.075h1v.075l-.7,4.575v.075h-9.274v-.475a1.666,1.666,0,0,1,.05-.575q.024-.024,2.1-2.375,2.726-3.024,3.5-4a7.246,7.246,0,0,0,1.676-4.175,4.371,4.371,0,0,0-.863-2.762,2.876,2.876,0,0,0-2.412-1.113,2.742,2.742,0,0,0-2.35,1.3c-.034.067-.084.159-.15.275a.589.589,0,0,0-.076.15c0,.017.042.025.125.025a1.274,1.274,0,0,1,1.013.45,1.562,1.562,0,0,1,.388,1.05,1.49,1.49,0,0,1-.413,1.062A1.423,1.423,0,0,1,537.649,489.312Z" style="fill:#fff"/></g><line x1="203.84" y1="455" x2="180" y2="455" style="fill:none;stroke:#58c4dd;stroke-miterlimit:10;stroke-width:2px"/><polygon points="180 455 189.237 439 170.762 439 180 455" style="fill:#58c4dd"/></svg>