<svg xmlns="http://www.w3.org/2000/svg" width="720" height="120" viewBox="0 0 720 120"><rect width="720" height="120"/><path d="M171.836,52.574c.25-.017.533-.037.849-.063s.555-.046.713-.062.246-.026.263-.026c.2,0,.3.068.3.2q0,.175-1.838,7.562T170.261,67.7a2.05,2.05,0,0,0-.025.375q0,1.05.7,1.05a1.077,1.077,0,0,0,.5-.225,5.664,5.664,0,0,0,1.026-2.4c.1-.333.183-.508.25-.525a.745.745,0,0,1,.25-.025h.1c.317,0,.476.066.476.2a2.092,2.092,0,0,1-.075.4,6.521,6.521,0,0,1-1.35,2.9,2.482,2.482,0,0,1-.8.525,2.671,2.671,0,0,1-.6.05,2.256,2.256,0,0,1-2.2-1.226,1.837,1.837,0,0,0-.125-.3c-.017-.017-.05-.008-.1.025l-.1.1A5.11,5.11,0,0,1,165.81,70a4.927,4.927,0,0,1-.625.025,3.317,3.317,0,0,1-2.724-1.375,4.866,4.866,0,0,1-.75-2.8,7.632,7.632,0,0,1,1.7-4.6,6.538,6.538,0,0,1,3.45-2.375,3.724,3.724,0,0,1,1.025-.15,2.394,2.394,0,0,1,2.1,1.05c.083.1.125.134.125.1q.024-.1.688-2.738t.687-2.762a.452.452,0,0,0-.15-.4,3.783,3.783,0,0,0-1-.125h-.526a.7.7,0,0,1-.162-.2,2.643,2.643,0,0,1,.063-.476q.125-.474.325-.474c.017,0,.1-.008.263-.026s.383-.033.675-.049Zm-2.151,9.05q-.549-1.976-1.875-1.975a2.306,2.306,0,0,0-1.761.85,5.9,5.9,0,0,0-1.163,1.95,19.843,19.843,0,0,0-1.025,4.1c0,.051,0,.143-.012.276s-.013.233-.013.3a2.461,2.461,0,0,0,.388,1.45,1.3,1.3,0,0,0,1.137.55q1.325,0,2.775-1.8l.2-.276q.225-.9.675-2.712T169.685,61.624Z" style="fill:#fff933"/><path d="M176.836,73.824c.449.1.691.15.724.15q.575,0,1-1.051.3-.824,1.826-8.9.7-3.776.724-3.8v-.075h-1.175a6.785,6.785,0,0,1-1.25-.05q-.175-.1-.049-.551a2.091,2.091,0,0,1,.125-.4.225.225,0,0,1,.212-.138q.162-.012,1.163-.012a10.732,10.732,0,0,0,1.2-.025q0-.049.224-1.25c.151-.8.25-1.283.3-1.45a6.1,6.1,0,0,1,1.575-3.3,3.225,3.225,0,0,1,2.076-.825,2.55,2.55,0,0,1,1.512.55,1.625,1.625,0,0,1,.613,1.325,1.766,1.766,0,0,1-.451,1.225,1.446,1.446,0,0,1-1.125.5q-1.1,0-1.1-1.05a1.411,1.411,0,0,1,.875-1.35l.224-.125a2.457,2.457,0,0,0-.75-.15q-.725,0-.95.95-.2.75-.649,3.274l-.325,1.651a7.17,7.17,0,0,0,1.375.05q1.125,0,1.349.025c.151.017.226.075.226.175a2.784,2.784,0,0,1-.176.8.242.242,0,0,1-.237.137c-.125.009-.572.013-1.337.013h-1.4l-.575,3.05q-.924,4.775-1.149,5.775-.852,3.774-2.276,5.125a2.819,2.819,0,0,1-1.825.8,2.269,2.269,0,0,1-1.5-.5,1.642,1.642,0,0,1-.6-1.325,1.842,1.842,0,0,1,.45-1.263,1.435,1.435,0,0,1,1.125-.513q1.1,0,1.1,1.051a1.412,1.412,0,0,1-.875,1.35Z" style="fill:#fff933"/><path d="M193.785,61.1a.544.544,0,0,1,.351-.5H210.06a.546.546,0,0,1,.375.5.567.567,0,0,1-.349.475l-7.95.025h-7.951A.5.5,0,0,1,193.785,61.1Zm0,4.85a.5.5,0,0,1,.4-.5h15.9a1.03,1.03,0,0,0,.112.088,1.038,1.038,0,0,1,.125.1.425.425,0,0,1,.075.125.474.474,0,0,1,.037.188.546.546,0,0,1-.375.5H194.136A.544.544,0,0,1,193.785,65.949Z" style="fill:#fff"/><path d="M222.836,59.423q-2.3,0-2.3,1.625a1.127,1.127,0,0,0,.05.426,1.49,1.49,0,0,0,.774.862,7.657,7.657,0,0,0,1.7.488,6.725,6.725,0,0,1,1.951.55,3.627,3.627,0,0,1,2.025,2.475,4.707,4.707,0,0,1,.024.6,4.037,4.037,0,0,1-.349,1.724,3.766,3.766,0,0,1-3.675,1.851,3.983,3.983,0,0,1-2.6-.9l-.2.174-.224.226c-.1.1-.2.191-.3.274l-.276.25h-.2a.452.452,0,0,1-.324-.149V67.923q0-1.624.012-1.875c.009-.166.046-.265.113-.3a1.564,1.564,0,0,1,.4-.025.841.841,0,0,1,.388.05.809.809,0,0,1,.138.35,5.768,5.768,0,0,0,.649,1.725,2.784,2.784,0,0,0,2.426,1.275q2.424,0,2.425-1.951a1.591,1.591,0,0,0-.45-1.174,2.18,2.18,0,0,0-1.05-.675c-.284-.067-.684-.158-1.2-.276a8.531,8.531,0,0,1-1.9-.524,3.126,3.126,0,0,1-1.925-2.325,1.913,1.913,0,0,1-.024-.375q0-2.874,3.524-3.225a1.637,1.637,0,0,1,.6,0,3.868,3.868,0,0,1,1.75.375l.375.2.225-.174a6.248,6.248,0,0,1,.549-.425h.2a.457.457,0,0,1,.325.15v3.3l-.151.149h-.7a.431.431,0,0,1-.149-.3,2.337,2.337,0,0,0-.7-1.8A2.718,2.718,0,0,0,222.836,59.423Z" style="fill:#fff"/><path d="M234.11,69.774a21.332,21.332,0,0,0-2.6-.075,26.392,26.392,0,0,0-2.726.075h-.2v-1.15h.4a8.6,8.6,0,0,0,1.225-.076.535.535,0,0,0,.3-.274q.023-.049.024-3.625a34.5,34.5,0,0,0-.1-4q-.2-.5-1.475-.5h-.275v-.575q0-.574.05-.575l.25-.025c.166-.016.4-.033.7-.051s.6-.033.9-.049c.283-.017.584-.038.9-.063s.559-.046.725-.062.259-.025.275-.025h.075v9.5a.582.582,0,0,0,.3.313,4.025,4.025,0,0,0,.875.087h.575v1.15Zm-2.9-16.726a1.614,1.614,0,0,1,1.025.438,1.411,1.411,0,0,1,.4,1.062,1.339,1.339,0,0,1-.676,1.276,1.373,1.373,0,0,1-.8.224,1.418,1.418,0,0,1-.825-.224,1.34,1.34,0,0,1-.675-1.276,1.414,1.414,0,0,1,.438-1.1A1.585,1.585,0,0,1,231.21,53.048Z" style="fill:#fff"/><path d="M239.586,68.274q.2.35,1.175.35h.75v1.15h-.2a52.286,52.286,0,0,0-5.6,0h-.2v-1.15h.75q.974,0,1.174-.35V67.5c0-.234,0-.5.013-.788s.013-.616.013-.975V64.7q0-.775-.013-1.662t-.013-1.463V61a.824.824,0,0,0-.362-.638,2.913,2.913,0,0,0-1.112-.212h-.45v-.575q0-.574.049-.575l.25-.025c.166-.016.405-.033.713-.051s.613-.033.912-.049c.284-.017.583-.038.9-.063s.557-.046.724-.062.258-.025.276-.025h.074v1a6.912,6.912,0,0,0,.025.949l.026-.024a4.4,4.4,0,0,1,3.824-1.925,2.918,2.918,0,0,1,3.176,2.824q.022.177.024,3.476,0,3.2.026,3.25a.528.528,0,0,0,.3.274,8.6,8.6,0,0,0,1.225.076h.4v1.15h-.2a52.286,52.286,0,0,0-5.6,0h-.2v-1.15h.6q1.326,0,1.325-.4.025-.05.026-3.45-.025-3.375-.05-3.575a2.205,2.205,0,0,0-.563-1.162,1.68,1.68,0,0,0-1.187-.364,2.715,2.715,0,0,0-1.976.851,3.574,3.574,0,0,0-1.024,2.2v.462c0,.292-.005.663-.013,1.112s-.013.875-.013,1.276v.787q0,.412.013.738c.008.217.013.412.013.587v.588Z" style="fill:#fff"/><path d="M257.11,75.8q0,.226-.45.226h-.325c-.116-.1-.35-.3-.7-.6q-4.5-4.1-4.5-11.9a20.172,20.172,0,0,1,.724-5.575,13.491,13.491,0,0,1,3.776-6.325c.116-.1.25-.212.4-.337s.25-.213.3-.263h.325a.587.587,0,0,1,.375.075.216.216,0,0,1,.075.15q0,.1-.275.375-3.874,4.1-3.875,11.9t3.875,11.9Q257.109,75.7,257.11,75.8Z" style="fill:#fff"/><path d="M259.96,62.824a.417.417,0,0,1-.15-.276,4.751,4.751,0,0,1,.775-1.724,4.284,4.284,0,0,1,2.95-2.05,4.126,4.126,0,0,1,.525-.05,3.049,3.049,0,0,1,1.613.449,2.7,2.7,0,0,1,1.062,1.125l.4-.524a2.769,2.769,0,0,1,2.125-1.05,2.358,2.358,0,0,1,1.663.587,1.881,1.881,0,0,1,.637,1.438,1.958,1.958,0,0,1-.438,1.3,1.434,1.434,0,0,1-1.162.526,1.1,1.1,0,0,1-.775-.276.933.933,0,0,1-.3-.724A1.59,1.59,0,0,1,270.135,60a.973.973,0,0,0-.275-.175,1.427,1.427,0,0,0-.725-.151,1.636,1.636,0,0,0-.475.051,2.618,2.618,0,0,0-1.4,1.65q-.075.2-.725,2.788t-.7,2.912a3.816,3.816,0,0,0-.075.75,1.281,1.281,0,0,0,.35.95,1.25,1.25,0,0,0,.925.35,2.58,2.58,0,0,0,1.9-.888,4.611,4.611,0,0,0,1.15-1.962q.075-.251.15-.288a1.219,1.219,0,0,1,.4-.037c.316,0,.475.066.475.2,0,.017-.017.108-.05.274a5.443,5.443,0,0,1-1.75,2.7,3.943,3.943,0,0,1-2.475.924,2.879,2.879,0,0,1-2.65-1.574,3.5,3.5,0,0,1-1.85,1.5,3.222,3.222,0,0,1-.65.05A2.18,2.18,0,0,1,259.635,69a1.936,1.936,0,0,1-.25-1,1.892,1.892,0,0,1,.45-1.275,1.447,1.447,0,0,1,1.15-.525.939.939,0,0,1,1.075,1.05,1.411,1.411,0,0,1-.875,1.35l-.125.063-.125.062a.193.193,0,0,1-.075.025l-.075.025q0,.075.375.225a1.659,1.659,0,0,0,.65.125A1.845,1.845,0,0,0,263.36,68a18.938,18.938,0,0,0,.975-3.25q.15-.575.325-1.275t.263-1.075c.057-.25.095-.4.112-.45a6.149,6.149,0,0,0,.125-.975,1.339,1.339,0,0,0-.325-.95,1.17,1.17,0,0,0-.9-.351,2.609,2.609,0,0,0-1.95.864,4.738,4.738,0,0,0-1.15,1.987c-.033.149-.071.237-.112.263a1.247,1.247,0,0,1-.413.037Z" style="fill:#fff"/><path d="M274.31,51.048l.1-.024h.55l.7.6q4.5,4.1,4.5,11.9a19.741,19.741,0,0,1-.725,5.55,13.48,13.48,0,0,1-3.775,6.349c-.117.1-.25.213-.4.338s-.25.213-.3.263h-.3a.945.945,0,0,1-.388-.05c-.058-.034-.087-.117-.087-.25.016-.017.108-.125.275-.325q3.875-4.026,3.875-11.875T274.46,51.649c-.167-.2-.259-.309-.275-.325A.3.3,0,0,1,274.31,51.048Z" style="fill:#fff"/><path d="M290.485,63.524a1.454,1.454,0,0,1,1.5-1.5,1.475,1.475,0,0,1,1.087.437,1.419,1.419,0,0,1,.438,1.038,1.513,1.513,0,0,1-3.025.025Z" style="fill:#fff"/><path d="M304.484,59.048a1.393,1.393,0,0,1-1.1-.449,1.6,1.6,0,0,1-.4-1.1,4.094,4.094,0,0,1,1.363-3.087,4.581,4.581,0,0,1,3.262-1.288,5.416,5.416,0,0,1,3.563,1.163,4.88,4.88,0,0,1,1.737,3.037,7.618,7.618,0,0,1,.051.825,4.731,4.731,0,0,1-.875,2.725,16.607,16.607,0,0,1-2.825,2.875q-.9.774-2.5,2.3l-1.476,1.4,1.9.025a30.064,30.064,0,0,0,4.174-.125c.067-.016.151-.191.25-.525a15.694,15.694,0,0,0,.351-1.7v-.076h1v.076l-.7,4.575v.075h-9.276V69.3a1.686,1.686,0,0,1,.05-.574q.025-.024,2.1-2.375,2.724-3.024,3.5-4a7.251,7.251,0,0,0,1.675-4.176,4.37,4.37,0,0,0-.863-2.761,2.877,2.877,0,0,0-2.413-1.114,2.74,2.74,0,0,0-2.349,1.3c-.034.067-.084.158-.151.275a.534.534,0,0,0-.074.15c0,.017.041.024.125.024a1.273,1.273,0,0,1,1.012.451,1.558,1.558,0,0,1,.387,1.049,1.491,1.491,0,0,1-.412,1.063A1.423,1.423,0,0,1,304.484,59.048Z" style="fill:#fff"/><path d="M315.685,62.824a.419.419,0,0,1-.151-.276,4.756,4.756,0,0,1,.776-1.724,4.284,4.284,0,0,1,2.95-2.05,4.13,4.13,0,0,1,.524-.05,3.047,3.047,0,0,1,1.613.449A2.7,2.7,0,0,1,322.46,60.3c.216-.283.35-.458.4-.524a2.772,2.772,0,0,1,2.125-1.05,2.355,2.355,0,0,1,1.663.587,1.881,1.881,0,0,1,.637,1.438,1.957,1.957,0,0,1-.437,1.3,1.434,1.434,0,0,1-1.162.526,1.1,1.1,0,0,1-.776-.276.936.936,0,0,1-.3-.724A1.59,1.59,0,0,1,325.859,60a.956.956,0,0,0-.274-.175,1.428,1.428,0,0,0-.726-.151,1.628,1.628,0,0,0-.474.051,2.619,2.619,0,0,0-1.4,1.65q-.073.2-.724,2.788t-.7,2.912a3.817,3.817,0,0,0-.076.75,1.281,1.281,0,0,0,.351.95,1.249,1.249,0,0,0,.925.35,2.577,2.577,0,0,0,1.9-.888,4.614,4.614,0,0,0,1.151-1.962q.073-.251.15-.288a1.216,1.216,0,0,1,.4-.037c.317,0,.476.066.476.2,0,.017-.018.108-.051.274a5.43,5.43,0,0,1-1.75,2.7,3.938,3.938,0,0,1-2.474.924,2.882,2.882,0,0,1-2.651-1.574,3.5,3.5,0,0,1-1.849,1.5,3.24,3.24,0,0,1-.651.05A2.181,2.181,0,0,1,315.359,69a1.936,1.936,0,0,1-.25-1,1.893,1.893,0,0,1,.451-1.275,1.445,1.445,0,0,1,1.15-.525.938.938,0,0,1,1.074,1.05,1.41,1.41,0,0,1-.875,1.35l-.125.063-.125.062a.185.185,0,0,1-.074.025l-.075.025q0,.075.375.225a1.657,1.657,0,0,0,.649.125A1.846,1.846,0,0,0,319.085,68a18.938,18.938,0,0,0,.975-3.25q.148-.575.325-1.275t.262-1.075c.058-.25.1-.4.113-.45a6.149,6.149,0,0,0,.125-.975,1.344,1.344,0,0,0-.325-.95,1.171,1.171,0,0,0-.9-.351,2.607,2.607,0,0,0-1.949.864,4.717,4.717,0,0,0-1.15,1.987c-.034.149-.072.237-.113.263a1.243,1.243,0,0,1-.413.037Z" style="fill:#f8f8f8"/><path d="M336.484,63.524a1.455,1.455,0,0,1,1.5-1.5,1.474,1.474,0,0,1,1.088.437,1.422,1.422,0,0,1,.438,1.038,1.513,1.513,0,0,1-3.026.025Z" style="fill:#fff"/><path d="M358.685,52.574c.25-.017.533-.037.849-.063s.554-.046.713-.062.245-.026.263-.026c.2,0,.3.068.3.2q0,.175-1.838,7.562T357.109,67.7a2.145,2.145,0,0,0-.025.375q0,1.05.7,1.05a1.077,1.077,0,0,0,.5-.225,5.664,5.664,0,0,0,1.026-2.4q.148-.5.25-.525a.745.745,0,0,1,.25-.025h.1c.317,0,.476.066.476.2a2.179,2.179,0,0,1-.075.4,6.531,6.531,0,0,1-1.351,2.9,2.477,2.477,0,0,1-.8.525,2.683,2.683,0,0,1-.6.05,2.256,2.256,0,0,1-2.2-1.226,1.975,1.975,0,0,0-.125-.3c-.016-.017-.049-.008-.1.025-.034.033-.068.066-.1.1A5.12,5.12,0,0,1,352.659,70a4.927,4.927,0,0,1-.625.025,3.315,3.315,0,0,1-2.724-1.375,4.866,4.866,0,0,1-.75-2.8,7.632,7.632,0,0,1,1.7-4.6,6.536,6.536,0,0,1,3.449-2.375,3.724,3.724,0,0,1,1.025-.15,2.394,2.394,0,0,1,2.1,1.05c.084.1.125.134.125.1q.026-.1.687-2.738t.688-2.762a.452.452,0,0,0-.149-.4,3.783,3.783,0,0,0-1-.125h-.526a.7.7,0,0,1-.162-.2,2.54,2.54,0,0,1,.063-.476q.124-.474.325-.474c.015,0,.1-.008.261-.026s.384-.033.676-.049Zm-2.151,9.05q-.549-1.976-1.875-1.975a2.309,2.309,0,0,0-1.763.85,5.943,5.943,0,0,0-1.162,1.95,19.971,19.971,0,0,0-1.025,4.1q0,.077-.012.276c-.009.134-.012.233-.012.3a2.461,2.461,0,0,0,.387,1.45,1.3,1.3,0,0,0,1.137.55q1.326,0,2.775-1.8l.2-.276q.224-.9.674-2.712T356.534,61.624Z" style="fill:#f8f8f8"/><path d="M362.185,62.824a.414.414,0,0,1-.151-.276,4.756,4.756,0,0,1,.776-1.724,4.284,4.284,0,0,1,2.95-2.05,4.114,4.114,0,0,1,.524-.05,3.043,3.043,0,0,1,1.612.449,2.7,2.7,0,0,1,1.063,1.125c.217-.283.351-.458.4-.524a2.772,2.772,0,0,1,2.125-1.05,2.351,2.351,0,0,1,1.662.587,1.878,1.878,0,0,1,.638,1.438,1.957,1.957,0,0,1-.437,1.3,1.435,1.435,0,0,1-1.162.526,1.1,1.1,0,0,1-.776-.276.933.933,0,0,1-.3-.724A1.589,1.589,0,0,1,372.359,60a.953.953,0,0,0-.275-.175,1.422,1.422,0,0,0-.725-.151,1.628,1.628,0,0,0-.474.051,2.619,2.619,0,0,0-1.4,1.65q-.073.2-.724,2.788t-.7,2.912a3.817,3.817,0,0,0-.076.75,1.284,1.284,0,0,0,.35.95,1.253,1.253,0,0,0,.926.35,2.578,2.578,0,0,0,1.9-.888,4.614,4.614,0,0,0,1.151-1.962c.049-.167.1-.263.149-.288a1.228,1.228,0,0,1,.4-.037c.317,0,.475.066.475.2,0,.017-.017.108-.05.274a5.43,5.43,0,0,1-1.75,2.7,3.938,3.938,0,0,1-2.474.924,2.882,2.882,0,0,1-2.651-1.574,3.5,3.5,0,0,1-1.849,1.5,3.24,3.24,0,0,1-.651.05A2.181,2.181,0,0,1,361.859,69a1.936,1.936,0,0,1-.25-1,1.893,1.893,0,0,1,.451-1.275,1.443,1.443,0,0,1,1.149-.525.939.939,0,0,1,1.075,1.05,1.411,1.411,0,0,1-.875,1.35l-.125.063-.125.062a.183.183,0,0,1-.075.025l-.074.025q0,.075.375.225a1.654,1.654,0,0,0,.649.125A1.845,1.845,0,0,0,365.584,68a18.8,18.8,0,0,0,.976-3.25q.148-.575.325-1.275t.261-1.075c.059-.25.1-.4.114-.45a6.149,6.149,0,0,0,.125-.975,1.348,1.348,0,0,0-.325-.95,1.171,1.171,0,0,0-.9-.351,2.61,2.61,0,0,0-1.95.864,4.715,4.715,0,0,0-1.149,1.987c-.035.149-.072.237-.113.263a1.243,1.243,0,0,1-.413.037Z" style="fill:#f8f8f8"/><path d="M382.685,63.524a.543.543,0,0,1,.349-.5h7.475v-3.75l.025-3.75c.166-.217.325-.325.475-.325a.546.546,0,0,1,.5.375v7.45h7.45a.521.521,0,0,1,0,1h-7.45v7.45a.532.532,0,0,1-1,0v-7.45h-7.475A.543.543,0,0,1,382.685,63.524Z" style="fill:#fff"/><path d="M408.435,62.824a.414.414,0,0,1-.151-.276,4.756,4.756,0,0,1,.776-1.724,4.284,4.284,0,0,1,2.95-2.05,4.114,4.114,0,0,1,.524-.05,3.043,3.043,0,0,1,1.612.449,2.7,2.7,0,0,1,1.063,1.125c.217-.283.351-.458.4-.524a2.772,2.772,0,0,1,2.125-1.05,2.351,2.351,0,0,1,1.662.587,1.878,1.878,0,0,1,.638,1.438,1.957,1.957,0,0,1-.437,1.3,1.435,1.435,0,0,1-1.162.526,1.1,1.1,0,0,1-.776-.276.933.933,0,0,1-.3-.724A1.589,1.589,0,0,1,418.609,60a.953.953,0,0,0-.275-.175,1.422,1.422,0,0,0-.725-.151,1.628,1.628,0,0,0-.474.051,2.619,2.619,0,0,0-1.4,1.65q-.073.2-.724,2.788t-.7,2.912a3.817,3.817,0,0,0-.076.75,1.284,1.284,0,0,0,.35.95,1.253,1.253,0,0,0,.926.35,2.578,2.578,0,0,0,1.9-.888,4.614,4.614,0,0,0,1.151-1.962c.049-.167.1-.263.149-.288a1.228,1.228,0,0,1,.4-.037c.317,0,.475.066.475.2,0,.017-.017.108-.05.274a5.43,5.43,0,0,1-1.75,2.7,3.938,3.938,0,0,1-2.474.924,2.882,2.882,0,0,1-2.651-1.574,3.5,3.5,0,0,1-1.849,1.5,3.24,3.24,0,0,1-.651.05A2.181,2.181,0,0,1,408.109,69a1.936,1.936,0,0,1-.25-1,1.893,1.893,0,0,1,.451-1.275,1.443,1.443,0,0,1,1.149-.525.939.939,0,0,1,1.075,1.05,1.411,1.411,0,0,1-.875,1.35l-.125.063-.125.062a.183.183,0,0,1-.075.025l-.074.025q0,.075.375.225a1.654,1.654,0,0,0,.649.125A1.845,1.845,0,0,0,411.834,68a18.8,18.8,0,0,0,.976-3.25q.148-.575.325-1.275T413.4,62.4c.059-.25.1-.4.114-.45a6.149,6.149,0,0,0,.125-.975,1.348,1.348,0,0,0-.325-.95,1.171,1.171,0,0,0-.9-.351,2.61,2.61,0,0,0-1.95.864,4.715,4.715,0,0,0-1.149,1.987c-.035.149-.072.237-.113.263a1.243,1.243,0,0,1-.413.037Z" style="fill:#f8f8f8"/><path d="M422.888,55.2a.814.814,0,0,1-.642-.263.931.931,0,0,1-.233-.64,2.386,2.386,0,0,1,.8-1.8,2.671,2.671,0,0,1,1.9-.75,3.158,3.158,0,0,1,2.077.677A2.846,2.846,0,0,1,427.8,54.19a4.488,4.488,0,0,1,.029.481,2.758,2.758,0,0,1-.51,1.589,9.661,9.661,0,0,1-1.647,1.676q-.525.452-1.457,1.341l-.861.816,1.109.015a17.385,17.385,0,0,0,2.433-.073c.04-.01.088-.112.146-.306a9.112,9.112,0,0,0,.2-.991v-.044h.583v.044l-.408,2.667v.044h-5.407v-.278a.971.971,0,0,1,.029-.335q.015-.014,1.225-1.384,1.587-1.764,2.04-2.332a4.225,4.225,0,0,0,.976-2.434,2.544,2.544,0,0,0-.5-1.611,1.679,1.679,0,0,0-1.406-.649,1.6,1.6,0,0,0-1.37.758c-.02.039-.049.093-.087.161a.318.318,0,0,0-.044.087q0,.015.072.015a.742.742,0,0,1,.591.263.909.909,0,0,1,.226.612.868.868,0,0,1-.241.619A.83.83,0,0,1,422.888,55.2Z" style="fill:#f8f8f8"/><path d="M434.165,63.524a1.454,1.454,0,0,1,1.5-1.5,1.473,1.473,0,0,1,1.087.437,1.418,1.418,0,0,1,.437,1.038,1.512,1.512,0,0,1-3.024.025Z" style="fill:#fff"/><path d="M455.128,61.787a1.36,1.36,0,0,1-.963.362,1.263,1.263,0,0,1-.95-.388,1.374,1.374,0,0,1,0-1.887c.083-.083.121-.133.112-.15s-.087-.033-.237-.051a8.165,8.165,0,0,0-1.225-.1,2.561,2.561,0,0,0-2,.8A5.413,5.413,0,0,0,448.69,64.3a5.8,5.8,0,0,0,.775,3.226,3.161,3.161,0,0,0,2.75,1.524,2.324,2.324,0,0,0,1.1-.25,2.908,2.908,0,0,0,1.45-1.949.423.423,0,0,1,.125-.25.928.928,0,0,1,.4-.051h.35c.1.1.15.176.15.226a3.343,3.343,0,0,1-.625,1.475,4.044,4.044,0,0,1-3.525,1.8,5.153,5.153,0,0,1-2.375-.574,5.509,5.509,0,0,1-2.975-4.25,7.056,7.056,0,0,1-.025-.8,7.829,7.829,0,0,1,.025-.824,5.778,5.778,0,0,1,2.05-3.825,5.2,5.2,0,0,1,3.325-1.2q3.225,0,3.775,1.7a1.848,1.848,0,0,1,.075.575A1.23,1.23,0,0,1,455.128,61.787Z" style="fill:#fff"/><path d="M457.215,64.423a5.7,5.7,0,0,1,1.45-3.912,5.417,5.417,0,0,1,3.475-1.887,5.046,5.046,0,0,1,4.4,1.549,5.762,5.762,0,0,1,1.75,4.226,6.605,6.605,0,0,1-.125,1.175,5.321,5.321,0,0,1-1.413,2.737,5.533,5.533,0,0,1-2.688,1.563,5.151,5.151,0,0,1-1.3.15,5.284,5.284,0,0,1-1.326-.15,5.581,5.581,0,0,1-4.224-5.451Zm6-4.9a2.246,2.246,0,0,0-.4-.025,3.48,3.48,0,0,0-1.424.3,3.28,3.28,0,0,0-1.675,2.726q-.051.45-.05,1.6a8.535,8.535,0,0,0,.475,3.375,2.742,2.742,0,0,0,2.625,1.525q3.05,0,3.049-4.075v-.8a12.5,12.5,0,0,0-.125-2.2A2.973,2.973,0,0,0,463.215,59.524Z" style="fill:#fff"/><path d="M473.765,59.423q-2.3,0-2.3,1.625a1.127,1.127,0,0,0,.05.426,1.492,1.492,0,0,0,.775.862,7.628,7.628,0,0,0,1.7.488,6.716,6.716,0,0,1,1.95.55,3.623,3.623,0,0,1,2.026,2.475,4.707,4.707,0,0,1,.024.6,4.037,4.037,0,0,1-.349,1.724,3.766,3.766,0,0,1-3.675,1.851,3.983,3.983,0,0,1-2.6-.9l-.2.174-.226.226c-.1.1-.2.191-.3.274l-.276.25h-.2a.45.45,0,0,1-.325-.149V67.923q0-1.624.012-1.875c.008-.166.045-.265.113-.3a1.564,1.564,0,0,1,.4-.025.841.841,0,0,1,.388.05.8.8,0,0,1,.138.35,5.716,5.716,0,0,0,.65,1.725,2.781,2.781,0,0,0,2.425,1.275q2.424,0,2.425-1.951A1.588,1.588,0,0,0,475.939,66a2.168,2.168,0,0,0-1.049-.675c-.284-.067-.684-.158-1.2-.276a8.5,8.5,0,0,1-1.9-.524,3.123,3.123,0,0,1-1.926-2.325,1.913,1.913,0,0,1-.024-.375q0-2.874,3.524-3.225a1.637,1.637,0,0,1,.6,0,3.868,3.868,0,0,1,1.75.375l.375.2.224-.174a6.392,6.392,0,0,1,.55-.425h.2a.455.455,0,0,1,.326.15v3.3l-.151.149h-.7a.424.424,0,0,1-.15-.3,2.334,2.334,0,0,0-.7-1.8A2.714,2.714,0,0,0,473.765,59.423Z" style="fill:#fff"/><path d="M487.19,75.8q0,.226-.45.226h-.325c-.116-.1-.35-.3-.7-.6q-4.5-4.1-4.5-11.9a20.171,20.171,0,0,1,.725-5.575,13.489,13.489,0,0,1,3.775-6.325q.175-.15.4-.337c.151-.125.25-.213.3-.263h.325a.587.587,0,0,1,.375.075.216.216,0,0,1,.075.15c0,.067-.091.192-.275.375q-3.875,4.1-3.875,11.9t3.875,11.9C487.1,75.607,487.19,75.732,487.19,75.8Z" style="fill:#fff"/><path d="M490.04,62.824a.412.412,0,0,1-.15-.276,4.751,4.751,0,0,1,.775-1.724,4.286,4.286,0,0,1,2.95-2.05,4.126,4.126,0,0,1,.525-.05,3.043,3.043,0,0,1,1.612.449,2.692,2.692,0,0,1,1.062,1.125l.4-.524a2.769,2.769,0,0,1,2.125-1.05,2.354,2.354,0,0,1,1.662.587,1.878,1.878,0,0,1,.638,1.438,1.958,1.958,0,0,1-.438,1.3,1.435,1.435,0,0,1-1.162.526,1.1,1.1,0,0,1-.775-.276.929.929,0,0,1-.3-.724A1.589,1.589,0,0,1,500.215,60a.97.97,0,0,0-.276-.175,1.42,1.42,0,0,0-.724-.151,1.636,1.636,0,0,0-.475.051,2.618,2.618,0,0,0-1.4,1.65q-.075.2-.725,2.788t-.7,2.912a3.816,3.816,0,0,0-.075.75,1.284,1.284,0,0,0,.349.95,1.254,1.254,0,0,0,.926.35,2.582,2.582,0,0,0,1.9-.888,4.611,4.611,0,0,0,1.15-1.962c.05-.167.1-.263.149-.288a1.231,1.231,0,0,1,.4-.037c.316,0,.474.066.474.2,0,.017-.016.108-.049.274a5.443,5.443,0,0,1-1.75,2.7,3.943,3.943,0,0,1-2.475.924,2.879,2.879,0,0,1-2.65-1.574,3.5,3.5,0,0,1-1.85,1.5,3.222,3.222,0,0,1-.65.05A2.18,2.18,0,0,1,489.715,69a1.936,1.936,0,0,1-.25-1,1.892,1.892,0,0,1,.45-1.275,1.446,1.446,0,0,1,1.149-.525.939.939,0,0,1,1.076,1.05,1.411,1.411,0,0,1-.875,1.35c-.034.017-.076.037-.125.063l-.125.062a.191.191,0,0,1-.076.025l-.074.025q0,.075.375.225a1.655,1.655,0,0,0,.65.125A1.844,1.844,0,0,0,493.439,68a18.8,18.8,0,0,0,.976-3.25q.15-.575.325-1.275T495,62.4c.058-.25.1-.4.113-.45a6.149,6.149,0,0,0,.125-.975,1.344,1.344,0,0,0-.325-.95,1.17,1.17,0,0,0-.9-.351,2.612,2.612,0,0,0-1.951.864,4.736,4.736,0,0,0-1.149,1.987c-.034.149-.071.237-.112.263a1.247,1.247,0,0,1-.413.037Z" style="fill:#fff"/><path d="M504.39,51.048l.1-.024h.551l.7.6q4.5,4.1,4.5,11.9a19.742,19.742,0,0,1-.724,5.55,13.482,13.482,0,0,1-3.776,6.349c-.116.1-.25.213-.4.338s-.25.213-.3.263h-.3a.942.942,0,0,1-.387-.05c-.058-.034-.087-.117-.087-.25.016-.017.108-.125.275-.325q3.874-4.026,3.875-11.875T504.54,51.649c-.167-.2-.259-.309-.275-.325A.3.3,0,0,1,504.39,51.048Z" style="fill:#fff"/><path d="M520.564,63.524a1.454,1.454,0,0,1,1.5-1.5,1.473,1.473,0,0,1,1.087.437,1.419,1.419,0,0,1,.438,1.038,1.513,1.513,0,0,1-3.025.025Z" style="fill:#fff"/><path d="M542.765,52.574c.25-.017.533-.037.849-.063s.554-.046.713-.062.245-.026.263-.026c.2,0,.3.068.3.2q0,.175-1.838,7.562T541.189,67.7a2.145,2.145,0,0,0-.025.375q0,1.05.7,1.05a1.077,1.077,0,0,0,.5-.225,5.664,5.664,0,0,0,1.026-2.4q.149-.5.25-.525a.745.745,0,0,1,.25-.025h.1c.317,0,.476.066.476.2a2.179,2.179,0,0,1-.075.4,6.531,6.531,0,0,1-1.351,2.9,2.477,2.477,0,0,1-.8.525,2.683,2.683,0,0,1-.6.05,2.256,2.256,0,0,1-2.2-1.226,1.975,1.975,0,0,0-.125-.3c-.016-.017-.049-.008-.1.025-.034.033-.068.066-.1.1A5.12,5.12,0,0,1,536.739,70a4.927,4.927,0,0,1-.625.025,3.315,3.315,0,0,1-2.724-1.375,4.866,4.866,0,0,1-.75-2.8,7.632,7.632,0,0,1,1.7-4.6,6.536,6.536,0,0,1,3.449-2.375,3.724,3.724,0,0,1,1.025-.15,2.394,2.394,0,0,1,2.1,1.05c.084.1.125.134.125.1q.026-.1.687-2.738t.688-2.762a.452.452,0,0,0-.149-.4,3.783,3.783,0,0,0-1-.125h-.526a.7.7,0,0,1-.162-.2,2.54,2.54,0,0,1,.063-.476q.125-.474.325-.474c.015,0,.1-.008.261-.026s.384-.033.676-.049Zm-2.151,9.05q-.549-1.976-1.875-1.975a2.309,2.309,0,0,0-1.763.85,5.943,5.943,0,0,0-1.162,1.95,19.971,19.971,0,0,0-1.025,4.1q0,.077-.012.276c-.009.134-.012.233-.012.3a2.461,2.461,0,0,0,.387,1.45,1.3,1.3,0,0,0,1.137.55q1.326,0,2.775-1.8l.2-.276q.223-.9.674-2.712T540.614,61.624Z" style="fill:#f8f8f8"/><path d="M546.264,62.824a.414.414,0,0,1-.151-.276,4.756,4.756,0,0,1,.776-1.724,4.284,4.284,0,0,1,2.95-2.05,4.114,4.114,0,0,1,.524-.05,3.049,3.049,0,0,1,1.613.449,2.7,2.7,0,0,1,1.062,1.125c.217-.283.351-.458.4-.524a2.772,2.772,0,0,1,2.125-1.05,2.355,2.355,0,0,1,1.663.587,1.881,1.881,0,0,1,.637,1.438,1.957,1.957,0,0,1-.437,1.3,1.435,1.435,0,0,1-1.162.526,1.1,1.1,0,0,1-.776-.276.933.933,0,0,1-.3-.724A1.589,1.589,0,0,1,556.438,60a.953.953,0,0,0-.275-.175,1.422,1.422,0,0,0-.725-.151,1.628,1.628,0,0,0-.474.051,2.619,2.619,0,0,0-1.4,1.65q-.073.2-.724,2.788t-.7,2.912a3.817,3.817,0,0,0-.076.75,1.284,1.284,0,0,0,.35.95,1.253,1.253,0,0,0,.926.35,2.578,2.578,0,0,0,1.9-.888,4.614,4.614,0,0,0,1.151-1.962c.049-.167.1-.263.149-.288a1.228,1.228,0,0,1,.4-.037c.317,0,.475.066.475.2,0,.017-.017.108-.05.274a5.43,5.43,0,0,1-1.75,2.7,3.938,3.938,0,0,1-2.474.924,2.882,2.882,0,0,1-2.651-1.574,3.5,3.5,0,0,1-1.849,1.5,3.24,3.24,0,0,1-.651.05A2.181,2.181,0,0,1,545.938,69a1.936,1.936,0,0,1-.25-1,1.893,1.893,0,0,1,.451-1.275,1.443,1.443,0,0,1,1.149-.525.939.939,0,0,1,1.075,1.05,1.411,1.411,0,0,1-.875,1.35l-.125.063-.125.062a.183.183,0,0,1-.075.025l-.074.025q0,.075.375.225a1.654,1.654,0,0,0,.649.125A1.845,1.845,0,0,0,549.663,68a18.8,18.8,0,0,0,.976-3.25q.149-.575.325-1.275t.262-1.075c.058-.25.1-.4.113-.45a6.149,6.149,0,0,0,.125-.975,1.348,1.348,0,0,0-.325-.95,1.171,1.171,0,0,0-.9-.351,2.61,2.61,0,0,0-1.95.864,4.715,4.715,0,0,0-1.149,1.987c-.035.149-.072.237-.113.263a1.243,1.243,0,0,1-.413.037Z" style="fill:#f8f8f8"/></svg>