<svg xmlns="http://www.w3.org/2000/svg" width="640" height="480" viewBox="0 0 640 480"><rect width="640" height="480"/><rect x="173.301" y="110.816" width="212.132" height="185.055" style="fill:#58c4dd"/><path d="M255.379,39.383q-2.3,0-2.3,1.625a1.152,1.152,0,0,0,.05.426,1.5,1.5,0,0,0,.775.862,7.579,7.579,0,0,0,1.7.487,6.759,6.759,0,0,1,1.95.55,3.621,3.621,0,0,1,2.025,2.476,4.432,4.432,0,0,1,.025.6,4.038,4.038,0,0,1-.35,1.725,3.767,3.767,0,0,1-3.675,1.85,3.973,3.973,0,0,1-2.6-.9l-.2.175-.225.225c-.1.1-.2.192-.3.275l-.275.25h-.2a.453.453,0,0,1-.325-.15V47.883q0-1.625.013-1.875c.007-.166.046-.266.112-.3a1.651,1.651,0,0,1,.4-.024.841.841,0,0,1,.387.049.808.808,0,0,1,.138.35,5.8,5.8,0,0,0,.65,1.726,2.783,2.783,0,0,0,2.425,1.274q2.424,0,2.425-1.95a1.59,1.59,0,0,0-.45-1.175,2.183,2.183,0,0,0-1.05-.675c-.283-.066-.684-.158-1.2-.275a8.543,8.543,0,0,1-1.9-.525,3.119,3.119,0,0,1-1.925-2.325,1.8,1.8,0,0,1-.025-.375q0-2.874,3.525-3.224a1.584,1.584,0,0,1,.6,0,3.868,3.868,0,0,1,1.75.375l.375.2.225-.175a6.286,6.286,0,0,1,.55-.425h.2a.451.451,0,0,1,.325.151v3.3l-.15.15h-.7a.43.43,0,0,1-.15-.3,2.34,2.34,0,0,0-.7-1.8A2.722,2.722,0,0,0,255.379,39.383Z" style="fill:#fff"/><path d="M266.654,49.733a21.572,21.572,0,0,0-2.6-.075,26.712,26.712,0,0,0-2.726.075h-.2v-1.15h.4a8.618,8.618,0,0,0,1.225-.075.54.54,0,0,0,.3-.275q.022-.049.024-3.625a34.5,34.5,0,0,0-.1-4q-.2-.5-1.475-.5h-.275v-.575q0-.575.05-.575l.25-.024c.166-.017.4-.034.7-.051l.9-.05c.283-.016.584-.037.9-.062s.559-.046.725-.063.259-.024.275-.024h.075v9.5a.576.576,0,0,0,.3.312,3.9,3.9,0,0,0,.875.087h.575v1.15Zm-2.9-16.725a1.609,1.609,0,0,1,1.025.438,1.411,1.411,0,0,1,.4,1.062,1.339,1.339,0,0,1-.676,1.275,1.366,1.366,0,0,1-.8.225,1.411,1.411,0,0,1-.825-.225,1.34,1.34,0,0,1-.675-1.275,1.416,1.416,0,0,1,.437-1.1A1.592,1.592,0,0,1,263.754,33.008Z" style="fill:#fff"/><path d="M272.129,48.233q.2.351,1.175.35h.75v1.15h-.2a52.286,52.286,0,0,0-5.6,0h-.2v-1.15h.75q.975,0,1.174-.35v-.775q0-.349.013-.787c.009-.292.013-.616.013-.975V44.658q0-.774-.013-1.662t-.013-1.463v-.575a.826.826,0,0,0-.362-.637,2.923,2.923,0,0,0-1.112-.213h-.45v-.575q0-.575.049-.575l.25-.024q.25-.025.713-.051l.912-.05q.426-.024.9-.062c.316-.025.558-.046.724-.063s.259-.024.276-.024h.075v1a7.054,7.054,0,0,0,.024.949l.026-.025a4.4,4.4,0,0,1,3.825-1.924A2.917,2.917,0,0,1,279,41.508q.024.175.025,3.475,0,3.2.025,3.25a.536.536,0,0,0,.3.275,8.642,8.642,0,0,0,1.226.075h.4v1.15h-.2a52.3,52.3,0,0,0-5.6,0h-.2v-1.15h.6q1.325,0,1.325-.4.024-.051.025-3.451-.025-3.375-.05-3.575A2.209,2.209,0,0,0,276.316,40a1.686,1.686,0,0,0-1.187-.363,2.712,2.712,0,0,0-1.975.85,3.575,3.575,0,0,0-1.025,2.2v.462q0,.438-.013,1.112t-.013,1.275v.788q0,.412.013.738c.009.216.013.412.013.587v.587Z" style="fill:#fff"/><path d="M289.654,55.758q0,.225-.45.225h-.325l-.7-.6q-4.5-4.1-4.5-11.9a20.139,20.139,0,0,1,.725-5.575,13.486,13.486,0,0,1,3.775-6.325c.116-.1.25-.212.4-.337s.25-.213.3-.263h.325a.585.585,0,0,1,.375.076.212.212,0,0,1,.075.149q0,.1-.275.375-3.876,4.1-3.875,11.9t3.875,11.9Q289.654,55.658,289.654,55.758Z" style="fill:#fff"/><path d="M292.5,42.783a.415.415,0,0,1-.151-.275,4.777,4.777,0,0,1,.776-1.725,4.287,4.287,0,0,1,2.95-2.05,4.086,4.086,0,0,1,.524-.049,3.044,3.044,0,0,1,1.614.449,2.7,2.7,0,0,1,1.062,1.125c.216-.283.35-.458.4-.525a2.768,2.768,0,0,1,2.125-1.049,2.358,2.358,0,0,1,1.663.587,1.883,1.883,0,0,1,.636,1.437,1.96,1.96,0,0,1-.437,1.3,1.436,1.436,0,0,1-1.162.525,1.1,1.1,0,0,1-.776-.275.939.939,0,0,1-.3-.725,1.591,1.591,0,0,1,1.25-1.575,1.029,1.029,0,0,0-.275-.175,1.438,1.438,0,0,0-.725-.15,1.6,1.6,0,0,0-.475.051,2.61,2.61,0,0,0-1.4,1.649q-.075.2-.725,2.788t-.7,2.912a3.816,3.816,0,0,0-.075.75,1.279,1.279,0,0,0,.35.95,1.246,1.246,0,0,0,.925.35,2.575,2.575,0,0,0,1.9-.887,4.613,4.613,0,0,0,1.151-1.963c.05-.166.1-.262.15-.287a1.208,1.208,0,0,1,.4-.038c.316,0,.475.067.475.2,0,.017-.017.109-.051.275a5.427,5.427,0,0,1-1.75,2.7,3.939,3.939,0,0,1-2.474.925,2.883,2.883,0,0,1-2.651-1.574,3.5,3.5,0,0,1-1.849,1.5,3.247,3.247,0,0,1-.651.049,2.178,2.178,0,0,1-2.049-1.025,1.931,1.931,0,0,1-.25-1,1.888,1.888,0,0,1,.45-1.274,1.444,1.444,0,0,1,1.15-.526.939.939,0,0,1,1.074,1.05,1.412,1.412,0,0,1-.875,1.351l-.125.062-.125.063a.2.2,0,0,1-.074.024l-.075.025q0,.075.375.225a1.657,1.657,0,0,0,.649.125,1.845,1.845,0,0,0,1.551-1.125,18.938,18.938,0,0,0,.975-3.25q.149-.574.325-1.274t.263-1.076c.057-.25.1-.4.112-.45a6.14,6.14,0,0,0,.125-.974,1.342,1.342,0,0,0-.325-.951,1.171,1.171,0,0,0-.9-.35,2.609,2.609,0,0,0-1.949.863,4.734,4.734,0,0,0-1.15,1.987c-.033.15-.072.238-.113.263a1.214,1.214,0,0,1-.413.037Z" style="fill:#fff"/><path d="M306.853,31.008l.1-.025h.55l.7.6q4.5,4.1,4.5,11.9a19.7,19.7,0,0,1-.726,5.55,13.474,13.474,0,0,1-3.774,6.35q-.175.15-.4.338c-.151.125-.25.213-.3.262h-.3a.95.95,0,0,1-.388-.049c-.058-.034-.088-.118-.088-.25.017-.017.109-.125.276-.326q3.874-4.024,3.875-11.875T307,31.608q-.251-.3-.276-.325A.3.3,0,0,1,306.853,31.008Z" style="fill:#fff"/><path d="M254.379,437.9q-2.3,0-2.3,1.625a1.127,1.127,0,0,0,.05.426,1.493,1.493,0,0,0,.774.862,7.657,7.657,0,0,0,1.7.488,6.765,6.765,0,0,1,1.951.549,3.629,3.629,0,0,1,2.025,2.476,4.707,4.707,0,0,1,.024.6,4.037,4.037,0,0,1-.349,1.724,3.766,3.766,0,0,1-3.675,1.851,3.978,3.978,0,0,1-2.6-.9l-.2.175-.224.226c-.1.1-.2.191-.3.274l-.276.25h-.2a.456.456,0,0,1-.324-.149V446.4q0-1.624.012-1.875c.008-.166.046-.265.113-.3a1.646,1.646,0,0,1,.4-.024.841.841,0,0,1,.388.05.808.808,0,0,1,.138.349,5.774,5.774,0,0,0,.649,1.726,2.783,2.783,0,0,0,2.426,1.274q2.424,0,2.425-1.95a1.6,1.6,0,0,0-.45-1.175,2.179,2.179,0,0,0-1.05-.674q-.426-.1-1.2-.276a8.531,8.531,0,0,1-1.9-.524,3.126,3.126,0,0,1-1.925-2.325,1.913,1.913,0,0,1-.024-.375q0-2.874,3.524-3.225a1.637,1.637,0,0,1,.6,0,3.868,3.868,0,0,1,1.75.375l.375.2.225-.175a6.407,6.407,0,0,1,.549-.424h.2a.453.453,0,0,1,.325.15v3.3l-.151.149h-.7a.431.431,0,0,1-.149-.3,2.336,2.336,0,0,0-.7-1.8A2.718,2.718,0,0,0,254.379,437.9Z" style="fill:#fff"/><path d="M265.653,448.255a21.332,21.332,0,0,0-2.6-.075,26.381,26.381,0,0,0-2.725.075h-.2V447.1h.4a8.642,8.642,0,0,0,1.226-.075.536.536,0,0,0,.3-.274q.024-.05.025-3.625a34.343,34.343,0,0,0-.1-4q-.2-.5-1.474-.5h-.276v-.575c0-.383.017-.576.05-.576l.25-.024c.167-.017.4-.033.7-.051s.6-.033.9-.05q.424-.024.9-.062c.317-.024.559-.046.726-.063s.258-.024.274-.024h.075v9.5a.585.585,0,0,0,.3.313,3.993,3.993,0,0,0,.875.086h.575v1.151Zm-2.9-16.726a1.609,1.609,0,0,1,1.024.438,1.411,1.411,0,0,1,.4,1.062,1.339,1.339,0,0,1-.675,1.276,1.373,1.373,0,0,1-.8.224,1.414,1.414,0,0,1-.825-.224,1.339,1.339,0,0,1-.675-1.276,1.412,1.412,0,0,1,.437-1.1A1.584,1.584,0,0,1,262.754,431.529Z" style="fill:#fff"/><path d="M271.129,446.755q.2.35,1.175.349h.75v1.151h-.2a52.286,52.286,0,0,0-5.6,0h-.2V447.1h.75q.974,0,1.174-.349v-.776q0-.349.013-.787c.008-.292.013-.616.013-.975V443.18q0-.776-.013-1.662t-.013-1.463v-.576a.826.826,0,0,0-.362-.637,2.913,2.913,0,0,0-1.112-.212h-.45v-.575c0-.383.016-.576.049-.576l.25-.024c.166-.017.4-.033.713-.051s.613-.033.912-.05c.284-.016.583-.037.9-.062s.557-.046.724-.063.258-.024.276-.024h.074v1a6.912,6.912,0,0,0,.025.949l.026-.024a4.4,4.4,0,0,1,3.824-1.925A2.917,2.917,0,0,1,278,440.029q.022.176.024,3.476,0,3.2.026,3.25a.531.531,0,0,0,.3.274,8.618,8.618,0,0,0,1.225.075h.4v1.151h-.2a52.286,52.286,0,0,0-5.6,0h-.2V447.1h.6c.884,0,1.325-.132,1.325-.4q.025-.049.026-3.45-.025-3.375-.05-3.575a2.2,2.2,0,0,0-.563-1.162,1.682,1.682,0,0,0-1.187-.364,2.712,2.712,0,0,0-1.976.851,3.574,3.574,0,0,0-1.024,2.2v.462c0,.292,0,.663-.013,1.112s-.013.875-.013,1.276v.787q0,.413.013.738c.008.217.013.412.013.587v.588Z" style="fill:#fff"/><path d="M288.653,454.279q0,.226-.45.226h-.325c-.116-.1-.35-.3-.7-.6q-4.5-4.1-4.5-11.9a20.172,20.172,0,0,1,.724-5.575,13.494,13.494,0,0,1,3.776-6.326c.116-.1.25-.211.4-.336s.25-.213.3-.263h.325a.587.587,0,0,1,.375.075.216.216,0,0,1,.075.149q0,.1-.275.375-3.874,4.1-3.875,11.9t3.875,11.9Q288.653,454.18,288.653,454.279Z" style="fill:#fff"/><path d="M291.5,441.305a.414.414,0,0,1-.151-.276,4.774,4.774,0,0,1,.776-1.724,4.279,4.279,0,0,1,2.949-2.05,4.126,4.126,0,0,1,.525-.05,3.04,3.04,0,0,1,1.613.449,2.7,2.7,0,0,1,1.062,1.125l.4-.524a2.769,2.769,0,0,1,2.125-1.05,2.356,2.356,0,0,1,1.662.587,1.88,1.88,0,0,1,.637,1.437,1.963,1.963,0,0,1-.437,1.3,1.436,1.436,0,0,1-1.162.526,1.1,1.1,0,0,1-.776-.276.933.933,0,0,1-.3-.724,1.591,1.591,0,0,1,1.25-1.576,1.011,1.011,0,0,0-.276-.174,1.423,1.423,0,0,0-.724-.151,1.648,1.648,0,0,0-.476.051,2.614,2.614,0,0,0-1.4,1.649q-.075.2-.726,2.789t-.7,2.912a3.741,3.741,0,0,0-.075.75,1.285,1.285,0,0,0,.349.95,1.253,1.253,0,0,0,.925.349,2.577,2.577,0,0,0,1.9-.887,4.6,4.6,0,0,0,1.151-1.962c.05-.167.1-.263.149-.288a1.227,1.227,0,0,1,.4-.037c.316,0,.474.066.474.2,0,.016-.016.108-.05.274a5.434,5.434,0,0,1-1.75,2.7,3.934,3.934,0,0,1-2.474.925,2.881,2.881,0,0,1-2.651-1.574,3.5,3.5,0,0,1-1.849,1.5,3.233,3.233,0,0,1-.651.05,2.177,2.177,0,0,1-2.049-1.026,1.931,1.931,0,0,1-.25-1,1.885,1.885,0,0,1,.45-1.274,1.442,1.442,0,0,1,1.149-.525.938.938,0,0,1,1.075,1.049,1.412,1.412,0,0,1-.875,1.351l-.125.063-.125.062a.178.178,0,0,1-.075.024l-.075.026c0,.05.125.125.375.224a1.662,1.662,0,0,0,.65.125,1.845,1.845,0,0,0,1.55-1.125,18.73,18.73,0,0,0,.976-3.25c.1-.382.208-.807.324-1.274s.2-.825.263-1.075.095-.4.112-.45a6.044,6.044,0,0,0,.125-.975,1.343,1.343,0,0,0-.324-.95,1.169,1.169,0,0,0-.9-.351,2.609,2.609,0,0,0-1.95.864,4.726,4.726,0,0,0-1.149,1.987c-.034.149-.072.237-.113.263a1.243,1.243,0,0,1-.413.037Z" style="fill:#fff"/><path d="M305.753,442.005a.544.544,0,0,1,.35-.5h7.475v-3.75l.025-3.75c.166-.217.326-.325.475-.325a.546.546,0,0,1,.5.375v7.45h7.45a.521.521,0,0,1,0,1h-7.45v7.45a.532.532,0,0,1-1,0v-7.45H306.1A.544.544,0,0,1,305.753,442.005Z" style="fill:#fff"/><path d="M334.753,431.055c.25-.017.533-.037.849-.063s.555-.046.713-.062.246-.026.263-.026c.2,0,.3.068.3.2s-.612,2.638-1.838,7.563-1.846,7.43-1.862,7.513a2.05,2.05,0,0,0-.025.375q0,1.05.7,1.049a1.064,1.064,0,0,0,.5-.224,5.664,5.664,0,0,0,1.026-2.4c.1-.333.183-.507.25-.524a.718.718,0,0,1,.25-.025h.1c.317,0,.476.066.476.2a2.092,2.092,0,0,1-.075.4,6.526,6.526,0,0,1-1.35,2.9,2.5,2.5,0,0,1-.8.525,2.671,2.671,0,0,1-.6.05,2.256,2.256,0,0,1-2.2-1.226,1.9,1.9,0,0,0-.125-.3c-.017-.016-.05-.007-.1.026l-.1.1a5.11,5.11,0,0,1-2.375,1.375,4.674,4.674,0,0,1-.625.026,3.317,3.317,0,0,1-2.724-1.375,4.868,4.868,0,0,1-.75-2.8,7.637,7.637,0,0,1,1.7-4.6,6.549,6.549,0,0,1,3.45-2.375,3.76,3.76,0,0,1,1.025-.149,2.394,2.394,0,0,1,2.1,1.05c.083.1.125.134.125.1q.024-.1.688-2.737t.687-2.763a.45.45,0,0,0-.15-.4,3.783,3.783,0,0,0-1-.125h-.526a.716.716,0,0,1-.162-.2,2.633,2.633,0,0,1,.063-.476q.125-.474.325-.474c.017,0,.1-.008.263-.026s.383-.033.675-.05ZM332.6,440.1q-.549-1.974-1.875-1.974a2.308,2.308,0,0,0-1.761.849,5.909,5.909,0,0,0-1.163,1.951,19.843,19.843,0,0,0-1.025,4.1c0,.051,0,.143-.012.276s-.013.233-.013.3a2.464,2.464,0,0,0,.388,1.451,1.3,1.3,0,0,0,1.137.549q1.324,0,2.775-1.8l.2-.276q.225-.9.675-2.712T332.6,440.1Z" style="fill:#f8f8f8"/><path d="M338.253,441.305a.419.419,0,0,1-.151-.276,4.774,4.774,0,0,1,.776-1.724,4.281,4.281,0,0,1,2.95-2.05,4.13,4.13,0,0,1,.524-.05,3.041,3.041,0,0,1,1.614.449,2.7,2.7,0,0,1,1.062,1.125l.4-.524a2.769,2.769,0,0,1,2.125-1.05,2.358,2.358,0,0,1,1.663.587,1.879,1.879,0,0,1,.636,1.437,1.958,1.958,0,0,1-.437,1.3,1.434,1.434,0,0,1-1.162.526,1.1,1.1,0,0,1-.776-.276.937.937,0,0,1-.3-.724,1.592,1.592,0,0,1,1.25-1.576,1.014,1.014,0,0,0-.275-.174,1.427,1.427,0,0,0-.725-.151,1.636,1.636,0,0,0-.475.051,2.613,2.613,0,0,0-1.4,1.649q-.075.2-.725,2.789t-.7,2.912a3.816,3.816,0,0,0-.075.75,1.282,1.282,0,0,0,.35.95,1.25,1.25,0,0,0,.925.349,2.575,2.575,0,0,0,1.9-.887,4.6,4.6,0,0,0,1.151-1.962c.05-.167.1-.263.15-.288a1.219,1.219,0,0,1,.4-.037c.316,0,.475.066.475.2,0,.016-.017.108-.051.274a5.427,5.427,0,0,1-1.75,2.7,3.934,3.934,0,0,1-2.474.925,2.882,2.882,0,0,1-2.651-1.574,3.5,3.5,0,0,1-1.849,1.5,3.233,3.233,0,0,1-.651.05,2.178,2.178,0,0,1-2.049-1.026,1.931,1.931,0,0,1-.25-1,1.89,1.89,0,0,1,.45-1.274,1.444,1.444,0,0,1,1.15-.525.938.938,0,0,1,1.074,1.049,1.41,1.41,0,0,1-.875,1.351l-.125.063-.125.062a.179.179,0,0,1-.074.024l-.075.026c0,.05.125.125.375.224a1.657,1.657,0,0,0,.649.125,1.845,1.845,0,0,0,1.551-1.125,18.871,18.871,0,0,0,.975-3.25q.148-.573.325-1.274t.263-1.075c.057-.25.095-.4.112-.45a6.163,6.163,0,0,0,.125-.975,1.339,1.339,0,0,0-.325-.95,1.168,1.168,0,0,0-.9-.351,2.607,2.607,0,0,0-1.949.864,4.728,4.728,0,0,0-1.15,1.987c-.033.149-.071.237-.112.263a1.251,1.251,0,0,1-.414.037Z" style="fill:#f8f8f8"/><path d="M352.6,429.529l.1-.024h.55c.116.1.349.3.7.6q4.5,4.1,4.5,11.9a19.7,19.7,0,0,1-.726,5.55,13.471,13.471,0,0,1-3.774,6.349c-.117.1-.25.213-.4.338s-.25.213-.3.263h-.3a.945.945,0,0,1-.388-.05c-.058-.034-.088-.117-.088-.25q.026-.026.276-.325,3.875-4.026,3.875-11.875t-3.875-11.875c-.167-.2-.259-.309-.276-.325A.3.3,0,0,1,352.6,429.529Z" style="fill:#fff"/><path d="M373.154,34.814q.375-.024.85-.063c.316-.024.553-.045.713-.062s.245-.025.261-.025c.2,0,.3.067.3.2q0,.176-1.838,7.563t-1.862,7.512a2.05,2.05,0,0,0-.025.375q0,1.05.7,1.05a1.075,1.075,0,0,0,.5-.225,5.686,5.686,0,0,0,1.025-2.4q.15-.5.25-.525a.745.745,0,0,1,.25-.025h.1q.474,0,.474.2a2.067,2.067,0,0,1-.074.4,6.521,6.521,0,0,1-1.35,2.9,2.472,2.472,0,0,1-.8.525,2.634,2.634,0,0,1-.6.05,2.255,2.255,0,0,1-2.2-1.225,2.041,2.041,0,0,0-.125-.3c-.017-.016-.05-.008-.1.025l-.1.1a5.12,5.12,0,0,1-2.375,1.375,4.95,4.95,0,0,1-.625.025,3.317,3.317,0,0,1-2.725-1.375,4.863,4.863,0,0,1-.75-2.8,7.648,7.648,0,0,1,1.7-4.6,6.55,6.55,0,0,1,3.451-2.375,3.718,3.718,0,0,1,1.025-.15,2.4,2.4,0,0,1,2.1,1.05c.083.1.125.134.125.1q.024-.1.687-2.738t.688-2.762a.45.45,0,0,0-.15-.4,3.776,3.776,0,0,0-1-.125h-.525a.652.652,0,0,1-.162-.2,2.382,2.382,0,0,1,.062-.475c.083-.316.192-.475.324-.475.017,0,.105-.008.263-.025s.384-.033.675-.05ZM371,43.864q-.551-1.974-1.875-1.975a2.313,2.313,0,0,0-1.763.85,5.919,5.919,0,0,0-1.162,1.95,20,20,0,0,0-1.025,4.1c0,.05,0,.142-.013.275s-.012.234-.012.3a2.468,2.468,0,0,0,.387,1.45,1.3,1.3,0,0,0,1.138.55q1.325,0,2.775-1.8l.2-.275q.225-.9.675-2.712T371,43.864Z" style="fill:#fff"/><path d="M378.851,45.99a22.309,22.309,0,0,1,1.476-8.388,15.249,15.249,0,0,1,4.189-5.988h.671q.144.144.144.216c0,.064-.08.184-.239.36q-4.226,4.752-4.225,13.824,0,9,4.225,13.8c.159.176.239.3.239.36q0,.072-.144.216h-.671a15.234,15.234,0,0,1-4.189-5.988A22.379,22.379,0,0,1,378.851,45.99Z" style="fill:#fff"/><path d="M390.945,41.664q-2.3,0-2.3,1.625a1.142,1.142,0,0,0,.05.425,1.5,1.5,0,0,0,.776.863,7.616,7.616,0,0,0,1.7.487,6.76,6.76,0,0,1,1.949.55,3.617,3.617,0,0,1,2.025,2.475,4.4,4.4,0,0,1,.026.6,4.026,4.026,0,0,1-.351,1.725,3.766,3.766,0,0,1-3.675,1.85,3.974,3.974,0,0,1-2.6-.9l-.2.175-.226.225c-.1.1-.2.192-.3.275l-.274.25h-.2a.454.454,0,0,1-.326-.15V50.164q0-1.624.013-1.875c.008-.166.046-.266.112-.3a1.634,1.634,0,0,1,.4-.025.83.83,0,0,1,.386.05.808.808,0,0,1,.138.35,5.787,5.787,0,0,0,.651,1.725,2.78,2.78,0,0,0,2.424,1.275q2.426,0,2.425-1.95a1.586,1.586,0,0,0-.45-1.175,2.178,2.178,0,0,0-1.05-.675q-.425-.1-1.2-.275a8.53,8.53,0,0,1-1.9-.525,3.114,3.114,0,0,1-1.925-2.325,1.711,1.711,0,0,1-.026-.375q0-2.874,3.526-3.225a1.624,1.624,0,0,1,.6,0,3.868,3.868,0,0,1,1.75.375l.375.2.225-.175a6.278,6.278,0,0,1,.551-.425h.2a.452.452,0,0,1,.325.15v3.3l-.149.15h-.7a.43.43,0,0,1-.151-.3,2.336,2.336,0,0,0-.7-1.8A2.721,2.721,0,0,0,390.945,41.664Z" style="fill:#fff"/><path d="M402.22,52.014a21.355,21.355,0,0,0-2.6-.075,26.381,26.381,0,0,0-2.725.075h-.2v-1.15h.4a8.778,8.778,0,0,0,1.225-.075.535.535,0,0,0,.3-.275q.025-.05.025-3.625a34.778,34.778,0,0,0-.1-4q-.2-.5-1.475-.5H396.8v-.575c0-.383.016-.575.05-.575l.25-.025q.25-.024.7-.05l.9-.05q.425-.024.9-.062t.725-.063c.166-.016.258-.025.275-.025h.075v9.5a.578.578,0,0,0,.3.313,3.968,3.968,0,0,0,.875.087h.575v1.15Zm-2.9-16.725a1.608,1.608,0,0,1,1.025.438,1.411,1.411,0,0,1,.4,1.062,1.338,1.338,0,0,1-.675,1.275,1.371,1.371,0,0,1-.8.225,1.414,1.414,0,0,1-.825-.225,1.338,1.338,0,0,1-.675-1.275,1.417,1.417,0,0,1,.438-1.1A1.586,1.586,0,0,1,399.32,35.289Z" style="fill:#fff"/><path d="M407.7,50.514c.133.234.526.35,1.175.35h.75v1.15h-.2a52.3,52.3,0,0,0-5.6,0h-.2v-1.15h.75q.975,0,1.175-.35v-.775q0-.349.012-.787t.013-.975V46.939q0-.774-.013-1.662t-.012-1.463v-.575a.825.825,0,0,0-.363-.637,2.923,2.923,0,0,0-1.112-.213h-.45v-.575q0-.575.05-.575l.25-.025c.167-.016.4-.033.713-.05l.912-.05c.283-.016.584-.037.9-.062s.559-.046.725-.063.259-.025.275-.025h.075v1a6.717,6.717,0,0,0,.025.95l.025-.025a4.4,4.4,0,0,1,3.825-1.925,2.918,2.918,0,0,1,3.175,2.825q.026.175.026,3.475,0,3.2.024,3.25a.535.535,0,0,0,.3.275,8.778,8.778,0,0,0,1.225.075h.4v1.15h-.2a52.323,52.323,0,0,0-5.6,0h-.2v-1.15h.6c.883,0,1.326-.133,1.326-.4q.022-.05.024-3.45-.025-3.375-.05-3.575a2.209,2.209,0,0,0-.562-1.162,1.689,1.689,0,0,0-1.188-.363,2.708,2.708,0,0,0-1.974.85,3.581,3.581,0,0,0-1.026,2.2v.463q0,.437-.013,1.112t-.012,1.275V48.6c0,.274,0,.521.012.737s.013.412.013.588v.587Z" style="fill:#fff"/><path d="M425.221,58.039c0,.15-.151.225-.451.225h-.325l-.7-.6q-4.5-4.1-4.5-11.9a20.1,20.1,0,0,1,.726-5.575,13.472,13.472,0,0,1,3.774-6.325c.116-.1.25-.212.4-.337s.25-.213.3-.263h.325a.589.589,0,0,1,.375.075.218.218,0,0,1,.076.15q0,.1-.276.375-3.876,4.1-3.875,11.9t3.875,11.9Q425.221,57.939,425.221,58.039Z" style="fill:#fff"/><path d="M428.07,45.064a.419.419,0,0,1-.15-.275,4.747,4.747,0,0,1,.775-1.725,4.289,4.289,0,0,1,2.95-2.05,4.158,4.158,0,0,1,.525-.05,3.039,3.039,0,0,1,1.613.45,2.7,2.7,0,0,1,1.063,1.125c.215-.283.349-.458.4-.525a2.769,2.769,0,0,1,2.125-1.05,2.357,2.357,0,0,1,1.663.588,1.879,1.879,0,0,1,.637,1.437,1.96,1.96,0,0,1-.438,1.3,1.435,1.435,0,0,1-1.162.525,1.1,1.1,0,0,1-.775-.275.94.94,0,0,1-.3-.725,1.591,1.591,0,0,1,1.25-1.575,1.032,1.032,0,0,0-.274-.175,1.432,1.432,0,0,0-.726-.15,1.643,1.643,0,0,0-.475.05,2.62,2.62,0,0,0-1.4,1.65q-.075.2-.725,2.788t-.7,2.912a3.816,3.816,0,0,0-.075.75,1.277,1.277,0,0,0,.351.95,1.244,1.244,0,0,0,.924.35,2.581,2.581,0,0,0,1.9-.887,4.621,4.621,0,0,0,1.15-1.963c.05-.166.1-.263.151-.287a1.2,1.2,0,0,1,.4-.038c.316,0,.476.067.476.2,0,.017-.018.109-.051.275a5.427,5.427,0,0,1-1.75,2.7,3.942,3.942,0,0,1-2.475.925,2.88,2.88,0,0,1-2.65-1.575,3.5,3.5,0,0,1-1.85,1.5,3.149,3.149,0,0,1-.65.05,2.178,2.178,0,0,1-2.05-1.025,1.931,1.931,0,0,1-.25-1,1.892,1.892,0,0,1,.45-1.275,1.449,1.449,0,0,1,1.151-.525.939.939,0,0,1,1.074,1.05,1.41,1.41,0,0,1-.875,1.35l-.125.063-.125.062a.19.19,0,0,1-.074.025l-.076.025q0,.075.375.225a1.662,1.662,0,0,0,.65.125,1.848,1.848,0,0,0,1.551-1.125,19.083,19.083,0,0,0,.974-3.25q.15-.574.325-1.275t.263-1.075c.058-.25.1-.4.112-.45a6.136,6.136,0,0,0,.125-.975,1.341,1.341,0,0,0-.325-.95,1.168,1.168,0,0,0-.9-.35,2.608,2.608,0,0,0-1.949.863,4.736,4.736,0,0,0-1.151,1.987c-.033.15-.071.237-.112.263a1.218,1.218,0,0,1-.413.037Z" style="fill:#fff"/><path d="M442.42,33.289l.1-.025h.55l.7.6q4.5,4.1,4.5,11.9a19.737,19.737,0,0,1-.724,5.55,13.49,13.49,0,0,1-3.776,6.35c-.116.1-.25.212-.4.337s-.25.213-.3.263h-.3a.922.922,0,0,1-.387-.05c-.059-.033-.087-.117-.087-.25.016-.017.108-.125.274-.325q3.876-4.024,3.875-11.875t-3.875-11.875c-.166-.2-.258-.308-.274-.325A.293.293,0,0,1,442.42,33.289Z" style="fill:#fff"/><path d="M458.269,45.739a23.447,23.447,0,0,1-1.524,8.775,15.687,15.687,0,0,1-4.375,6.225h-.325a1.142,1.142,0,0,1-.425-.05c-.067-.033-.1-.108-.1-.225a1.733,1.733,0,0,1,.3-.4q4.352-4.9,4.351-14.3,0-9.425-4.351-14.325a1.712,1.712,0,0,1-.3-.4c0-.133.034-.212.1-.237a1.483,1.483,0,0,1,.425-.038h.325A15.885,15.885,0,0,1,456.732,37,23.223,23.223,0,0,1,458.269,45.739Z" style="fill:#fff"/><path d="M99.052,203.206a.417.417,0,0,1-.151-.275,4.752,4.752,0,0,1,.776-1.725,4.284,4.284,0,0,1,2.95-2.05,4.13,4.13,0,0,1,.524-.05,3.045,3.045,0,0,1,1.614.45,2.693,2.693,0,0,1,1.062,1.125c.216-.284.35-.458.4-.525a2.772,2.772,0,0,1,2.125-1.05,2.363,2.363,0,0,1,1.664.587,1.883,1.883,0,0,1,.636,1.438,1.961,1.961,0,0,1-.437,1.3,1.436,1.436,0,0,1-1.162.525,1.106,1.106,0,0,1-.776-.275.94.94,0,0,1-.3-.725,1.59,1.59,0,0,1,1.25-1.575.982.982,0,0,0-.274-.175,1.429,1.429,0,0,0-.726-.15,1.635,1.635,0,0,0-.474.05,2.619,2.619,0,0,0-1.4,1.65q-.073.2-.724,2.788t-.7,2.912a3.817,3.817,0,0,0-.076.75,1.281,1.281,0,0,0,.351.95,1.245,1.245,0,0,0,.925.35,2.577,2.577,0,0,0,1.9-.888,4.614,4.614,0,0,0,1.151-1.962c.049-.167.1-.262.15-.288a1.246,1.246,0,0,1,.4-.037c.317,0,.476.066.476.2,0,.017-.018.109-.051.275a5.432,5.432,0,0,1-1.75,2.7,3.939,3.939,0,0,1-2.474.925,2.883,2.883,0,0,1-2.651-1.575,3.5,3.5,0,0,1-1.849,1.5,3.167,3.167,0,0,1-.651.05,2.181,2.181,0,0,1-2.05-1.025,1.931,1.931,0,0,1-.25-1,1.893,1.893,0,0,1,.451-1.275,1.445,1.445,0,0,1,1.15-.525.939.939,0,0,1,1.074,1.05,1.41,1.41,0,0,1-.875,1.35l-.125.063-.125.062a.185.185,0,0,1-.074.025l-.075.025q0,.075.375.225a1.657,1.657,0,0,0,.649.125,1.846,1.846,0,0,0,1.551-1.125,18.938,18.938,0,0,0,.975-3.25q.148-.575.325-1.275t.263-1.075c.057-.25.095-.4.112-.45a6.136,6.136,0,0,0,.125-.975,1.345,1.345,0,0,0-.325-.95,1.171,1.171,0,0,0-.9-.35,2.609,2.609,0,0,0-1.949.863,4.717,4.717,0,0,0-1.15,1.987c-.034.15-.072.238-.113.263a1.243,1.243,0,0,1-.413.037Z" style="fill:#f8f8f8"/><path d="M113.505,195.578a.814.814,0,0,1-.642-.263.927.927,0,0,1-.233-.64,2.388,2.388,0,0,1,.8-1.8,2.672,2.672,0,0,1,1.9-.75,3.158,3.158,0,0,1,2.076.678,2.85,2.85,0,0,1,1.014,1.77,4.747,4.747,0,0,1,.028.482,2.763,2.763,0,0,1-.51,1.589,9.723,9.723,0,0,1-1.646,1.675q-.526.451-1.458,1.341l-.859.817,1.107.014a17.406,17.406,0,0,0,2.434-.073c.039-.01.087-.111.146-.306a9.229,9.229,0,0,0,.2-.991v-.044h.583v.044l-.407,2.667v.044H112.63v-.277a.991.991,0,0,1,.029-.335q.015-.015,1.225-1.385,1.587-1.764,2.04-2.332a4.223,4.223,0,0,0,.976-2.434,2.553,2.553,0,0,0-.5-1.611,1.68,1.68,0,0,0-1.407-.648,1.6,1.6,0,0,0-1.37.757q-.03.058-.087.162a.319.319,0,0,0-.044.086c0,.01.025.015.073.015a.74.74,0,0,1,.59.263.907.907,0,0,1,.226.612.871.871,0,0,1-.24.619A.832.832,0,0,1,113.505,195.578Z" style="fill:#f8f8f8"/><path d="M488.8,256.2c0,.15-.151.225-.45.225h-.326l-.7-.6q-4.5-4.1-4.5-11.9a20.139,20.139,0,0,1,.725-5.575,13.486,13.486,0,0,1,3.775-6.325c.116-.1.25-.212.4-.337s.25-.213.3-.263h.326a.585.585,0,0,1,.375.076.216.216,0,0,1,.075.149q0,.1-.276.375-3.875,4.1-3.875,11.9t3.875,11.9Q488.8,256.1,488.8,256.2Z" style="fill:#fff"/><path d="M491.648,243.221a.421.421,0,0,1-.15-.275,4.747,4.747,0,0,1,.775-1.725,4.291,4.291,0,0,1,2.951-2.05,4.086,4.086,0,0,1,.524-.049,3.038,3.038,0,0,1,1.613.449,2.707,2.707,0,0,1,1.063,1.125q.324-.424.4-.525a2.768,2.768,0,0,1,2.125-1.049,2.356,2.356,0,0,1,1.663.587,1.88,1.88,0,0,1,.637,1.437,1.96,1.96,0,0,1-.438,1.3,1.435,1.435,0,0,1-1.162.525,1.1,1.1,0,0,1-.775-.275.94.94,0,0,1-.3-.725,1.591,1.591,0,0,1,1.25-1.575,1.032,1.032,0,0,0-.274-.175,1.44,1.44,0,0,0-.726-.15,1.589,1.589,0,0,0-.474.051,2.614,2.614,0,0,0-1.4,1.649q-.075.2-.724,2.788t-.7,2.912a3.893,3.893,0,0,0-.075.75,1.277,1.277,0,0,0,.351.95,1.249,1.249,0,0,0,.925.35,2.575,2.575,0,0,0,1.9-.887,4.621,4.621,0,0,0,1.15-1.963c.05-.166.1-.263.151-.287a1.173,1.173,0,0,1,.4-.038q.476,0,.476.2c0,.016-.018.108-.051.275a5.432,5.432,0,0,1-1.75,2.7,3.94,3.94,0,0,1-2.475.925,2.881,2.881,0,0,1-2.65-1.575,3.5,3.5,0,0,1-1.85,1.5,3.222,3.222,0,0,1-.65.05,2.179,2.179,0,0,1-2.05-1.025,1.933,1.933,0,0,1-.25-1,1.9,1.9,0,0,1,.45-1.275,1.449,1.449,0,0,1,1.151-.525.939.939,0,0,1,1.074,1.05,1.41,1.41,0,0,1-.875,1.35l-.125.063-.125.062a.19.19,0,0,1-.074.025l-.075.025q0,.075.375.225a1.675,1.675,0,0,0,.649.125,1.846,1.846,0,0,0,1.551-1.125,18.982,18.982,0,0,0,.974-3.25q.15-.574.326-1.275t.262-1.075c.058-.25.1-.4.113-.45a6.136,6.136,0,0,0,.125-.975,1.341,1.341,0,0,0-.326-.95,1.167,1.167,0,0,0-.9-.35,2.609,2.609,0,0,0-1.949.863,4.736,4.736,0,0,0-1.151,1.987c-.033.15-.071.237-.112.263a1.218,1.218,0,0,1-.413.037Z" style="fill:#f8f8f8"/><path d="M505.9,243.921a.546.546,0,0,1,.35-.5h7.476v-3.75l.024-3.75c.167-.216.325-.325.476-.325a.55.55,0,0,1,.5.375v7.45h7.449a.521.521,0,0,1,0,1h-7.449v7.45a.532.532,0,0,1-1,0v-7.45h-7.476A.544.544,0,0,1,505.9,243.921Z" style="fill:#fff"/><path d="M534.9,232.971c.25-.016.534-.037.85-.062s.555-.046.713-.063.246-.025.263-.025c.2,0,.3.067.3.2q0,.176-1.838,7.563t-1.862,7.512a2.166,2.166,0,0,0-.024.375c0,.7.232,1.05.7,1.05a1.075,1.075,0,0,0,.5-.225,5.66,5.66,0,0,0,1.025-2.4c.1-.334.184-.508.25-.525a.726.726,0,0,1,.25-.025h.1c.316,0,.476.067.476.2a2.128,2.128,0,0,1-.076.4,6.528,6.528,0,0,1-1.349,2.9,2.51,2.51,0,0,1-.8.525,2.681,2.681,0,0,1-.6.05,2.257,2.257,0,0,1-2.2-1.225,1.833,1.833,0,0,0-.125-.3c-.016-.016-.05-.008-.1.025l-.1.1a5.12,5.12,0,0,1-2.375,1.375,4.95,4.95,0,0,1-.625.025,3.318,3.318,0,0,1-2.725-1.375,4.866,4.866,0,0,1-.75-2.8,7.638,7.638,0,0,1,1.7-4.6,6.54,6.54,0,0,1,3.45-2.375,3.709,3.709,0,0,1,1.024-.149,2.4,2.4,0,0,1,2.1,1.049c.083.1.125.134.125.1q.023-.1.687-2.737t.688-2.763a.447.447,0,0,0-.151-.4,3.686,3.686,0,0,0-1-.125h-.525a.681.681,0,0,1-.162-.2,2.57,2.57,0,0,1,.062-.475c.083-.316.192-.475.326-.475.016,0,.1-.008.262-.025s.383-.033.675-.05Zm-2.15,9.05q-.549-1.974-1.875-1.975a2.311,2.311,0,0,0-1.762.85,5.922,5.922,0,0,0-1.163,1.95,19.914,19.914,0,0,0-1.024,4.1c0,.05,0,.142-.013.275s-.013.234-.013.3a2.463,2.463,0,0,0,.388,1.45,1.3,1.3,0,0,0,1.138.55q1.325,0,2.774-1.8l.2-.275q.226-.9.675-2.713T532.748,242.021Z" style="fill:#f8f8f8"/><path d="M538.4,243.221a.417.417,0,0,1-.15-.275,4.747,4.747,0,0,1,.775-1.725,4.289,4.289,0,0,1,2.95-2.05,4.083,4.083,0,0,1,.525-.049,3.034,3.034,0,0,1,1.612.449,2.707,2.707,0,0,1,1.063,1.125q.325-.424.4-.525a2.768,2.768,0,0,1,2.125-1.049,2.354,2.354,0,0,1,1.662.587,1.881,1.881,0,0,1,.638,1.437,1.966,1.966,0,0,1-.438,1.3,1.437,1.437,0,0,1-1.162.525,1.1,1.1,0,0,1-.775-.275.936.936,0,0,1-.3-.725,1.59,1.59,0,0,1,1.25-1.575,1.029,1.029,0,0,0-.275-.175,1.436,1.436,0,0,0-.725-.15,1.6,1.6,0,0,0-.475.051,2.616,2.616,0,0,0-1.4,1.649q-.075.2-.725,2.788t-.7,2.912a3.816,3.816,0,0,0-.075.75,1.281,1.281,0,0,0,.35.95,1.252,1.252,0,0,0,.925.35,2.577,2.577,0,0,0,1.9-.887,4.621,4.621,0,0,0,1.15-1.963c.05-.166.1-.263.15-.287a1.18,1.18,0,0,1,.4-.038q.476,0,.475.2c0,.016-.017.108-.05.275a5.438,5.438,0,0,1-1.75,2.7,3.94,3.94,0,0,1-2.475.925,2.88,2.88,0,0,1-2.65-1.575,3.5,3.5,0,0,1-1.85,1.5,3.222,3.222,0,0,1-.65.05,2.178,2.178,0,0,1-2.05-1.025,1.933,1.933,0,0,1-.25-1,1.892,1.892,0,0,1,.45-1.275,1.447,1.447,0,0,1,1.15-.525.939.939,0,0,1,1.075,1.05,1.411,1.411,0,0,1-.875,1.35l-.125.063-.125.062a.188.188,0,0,1-.075.025l-.075.025q0,.075.375.225a1.68,1.68,0,0,0,.65.125,1.846,1.846,0,0,0,1.55-1.125,18.838,18.838,0,0,0,.975-3.25q.15-.574.325-1.275t.262-1.075c.059-.25.1-.4.113-.45a6.018,6.018,0,0,0,.125-.975,1.345,1.345,0,0,0-.325-.95,1.168,1.168,0,0,0-.9-.35,2.611,2.611,0,0,0-1.95.863,4.734,4.734,0,0,0-1.15,1.987c-.034.15-.071.237-.113.263a1.206,1.206,0,0,1-.412.037Z" style="fill:#f8f8f8"/><path d="M552.748,231.446l.1-.025h.549l.7.6q4.5,4.1,4.5,11.9a19.736,19.736,0,0,1-.725,5.55,13.489,13.489,0,0,1-3.775,6.35q-.175.15-.4.337c-.15.125-.25.213-.3.263h-.3a.942.942,0,0,1-.388-.05c-.059-.033-.087-.117-.087-.25.017-.017.108-.125.274-.325q3.876-4.026,3.875-11.875T552.9,232.046c-.166-.2-.257-.308-.274-.325A.294.294,0,0,1,552.748,231.446Z" style="fill:#fff"/><path d="M562.576,235.594a.816.816,0,0,1-.642-.263.932.932,0,0,1-.233-.641,2.389,2.389,0,0,1,.795-1.8,2.672,2.672,0,0,1,1.9-.751,3.156,3.156,0,0,1,2.076.678,2.849,2.849,0,0,1,1.014,1.771,4.471,4.471,0,0,1,.028.481,2.76,2.76,0,0,1-.509,1.589,9.741,9.741,0,0,1-1.647,1.675q-.525.453-1.458,1.341l-.859.817,1.107.014a17.7,17.7,0,0,0,2.434-.072c.039-.01.088-.112.146-.307a9.168,9.168,0,0,0,.2-.991v-.044h.583v.044l-.407,2.667v.044H561.7v-.277a1.007,1.007,0,0,1,.029-.336q.015-.012,1.225-1.383,1.588-1.764,2.04-2.332a4.23,4.23,0,0,0,.977-2.435,2.549,2.549,0,0,0-.5-1.61,1.683,1.683,0,0,0-1.408-.649,1.6,1.6,0,0,0-1.37.758c-.019.039-.049.093-.087.161a.318.318,0,0,0-.044.087c0,.01.025.015.074.015a.739.739,0,0,1,.589.262.907.907,0,0,1,.226.612.87.87,0,0,1-.24.619A.827.827,0,0,1,562.576,235.594Z" style="fill:#f8f8f8"/><path d="M83.552,331.834c.25-.017.533-.037.849-.063s.555-.045.713-.062.246-.025.263-.025c.2,0,.3.067.3.2q0,.175-1.838,7.562t-1.863,7.513a2.166,2.166,0,0,0-.024.375c0,.7.232,1.05.7,1.05a1.077,1.077,0,0,0,.5-.225,5.664,5.664,0,0,0,1.026-2.4c.1-.333.183-.508.25-.525a.745.745,0,0,1,.25-.025h.1c.317,0,.476.066.476.2a2.185,2.185,0,0,1-.075.4,6.532,6.532,0,0,1-1.35,2.9,2.466,2.466,0,0,1-.8.525,2.618,2.618,0,0,1-.6.05,2.258,2.258,0,0,1-2.2-1.225,1.833,1.833,0,0,0-.125-.3c-.016-.017-.049-.008-.1.025l-.1.1a5.12,5.12,0,0,1-2.375,1.375,4.927,4.927,0,0,1-.625.025,3.316,3.316,0,0,1-2.724-1.375,4.866,4.866,0,0,1-.75-2.8,7.634,7.634,0,0,1,1.7-4.6,6.534,6.534,0,0,1,3.45-2.375,3.717,3.717,0,0,1,1.024-.15,2.4,2.4,0,0,1,2.1,1.05c.083.1.125.134.125.1q.024-.1.688-2.738t.687-2.762a.453.453,0,0,0-.15-.4,3.783,3.783,0,0,0-1-.125h-.526a.7.7,0,0,1-.162-.2,2.525,2.525,0,0,1,.063-.475q.124-.476.325-.475c.016,0,.1-.008.263-.025s.382-.034.674-.05Zm-2.151,9.05q-.549-1.976-1.875-1.975a2.3,2.3,0,0,0-1.761.85,5.924,5.924,0,0,0-1.164,1.95,19.914,19.914,0,0,0-1.024,4.1c0,.05,0,.142-.013.275s-.012.233-.012.3a2.468,2.468,0,0,0,.387,1.45,1.3,1.3,0,0,0,1.138.55q1.325,0,2.774-1.8l.2-.275q.225-.9.674-2.712T81.4,340.884Z" style="fill:#fff"/><path d="M89.249,343.01a22.289,22.289,0,0,1,1.476-8.388,15.257,15.257,0,0,1,4.188-5.988h.672c.1.095.144.168.144.216q0,.1-.24.36-4.224,4.752-4.223,13.824,0,9,4.223,13.8.24.264.24.36c0,.048-.047.119-.144.216h-.672a15.257,15.257,0,0,1-4.188-5.988A22.359,22.359,0,0,1,89.249,343.01Z" style="fill:#fff"/><path d="M98.044,342.084a.413.413,0,0,1-.151-.275,4.77,4.77,0,0,1,.776-1.725,4.282,4.282,0,0,1,2.949-2.05,4.126,4.126,0,0,1,.525-.05,3.039,3.039,0,0,1,1.613.45,2.693,2.693,0,0,1,1.062,1.125c.217-.284.351-.458.4-.525a2.769,2.769,0,0,1,2.125-1.05,2.36,2.36,0,0,1,1.662.587,1.881,1.881,0,0,1,.637,1.438,1.967,1.967,0,0,1-.437,1.3,1.439,1.439,0,0,1-1.162.525,1.106,1.106,0,0,1-.776-.275.936.936,0,0,1-.3-.725,1.589,1.589,0,0,1,1.25-1.575,1,1,0,0,0-.276-.175,1.424,1.424,0,0,0-.724-.15,1.656,1.656,0,0,0-.476.05,2.616,2.616,0,0,0-1.4,1.65q-.075.2-.726,2.788t-.7,2.912a3.741,3.741,0,0,0-.075.75,1.284,1.284,0,0,0,.349.95,1.249,1.249,0,0,0,.925.35,2.579,2.579,0,0,0,1.9-.888,4.6,4.6,0,0,0,1.151-1.962c.05-.167.1-.263.149-.288a1.258,1.258,0,0,1,.4-.037c.316,0,.474.066.474.2,0,.017-.016.109-.05.275a5.438,5.438,0,0,1-1.75,2.7,3.939,3.939,0,0,1-2.474.925,2.882,2.882,0,0,1-2.651-1.575,3.5,3.5,0,0,1-1.849,1.5,3.16,3.16,0,0,1-.651.05,2.179,2.179,0,0,1-2.049-1.025,1.931,1.931,0,0,1-.25-1,1.887,1.887,0,0,1,.45-1.275,1.445,1.445,0,0,1,1.149-.525.939.939,0,0,1,1.075,1.05,1.411,1.411,0,0,1-.875,1.35l-.125.063-.125.062a.183.183,0,0,1-.075.025l-.075.025q0,.075.375.225a1.662,1.662,0,0,0,.65.125,1.845,1.845,0,0,0,1.55-1.125,18.8,18.8,0,0,0,.976-3.25c.1-.383.208-.808.324-1.275s.2-.825.263-1.075.095-.4.112-.45a6.018,6.018,0,0,0,.125-.975,1.345,1.345,0,0,0-.324-.95,1.172,1.172,0,0,0-.9-.35,2.611,2.611,0,0,0-1.95.863,4.726,4.726,0,0,0-1.149,1.987c-.034.15-.071.237-.113.263a1.239,1.239,0,0,1-.413.037Z" style="fill:#f8f8f8"/><path d="M112.5,334.456a.814.814,0,0,1-.641-.263.927.927,0,0,1-.233-.64,2.394,2.394,0,0,1,.794-1.8,2.675,2.675,0,0,1,1.9-.75,3.157,3.157,0,0,1,2.077.678,2.844,2.844,0,0,1,1.013,1.77,4.246,4.246,0,0,1,.029.482,2.769,2.769,0,0,1-.509,1.589,9.754,9.754,0,0,1-1.648,1.675q-.524.452-1.457,1.341l-.86.817,1.107.014a17.427,17.427,0,0,0,2.435-.073c.038-.01.087-.111.145-.306a9.112,9.112,0,0,0,.2-.991v-.044h.583V338l-.408,2.667v.044h-5.407v-.277a.991.991,0,0,1,.029-.335q.015-.015,1.225-1.385,1.587-1.764,2.04-2.332a4.23,4.23,0,0,0,.976-2.434,2.56,2.56,0,0,0-.5-1.611,1.679,1.679,0,0,0-1.407-.648,1.6,1.6,0,0,0-1.37.757c-.019.039-.049.093-.088.161a.313.313,0,0,0-.043.087c0,.01.024.015.073.015a.742.742,0,0,1,.59.263.907.907,0,0,1,.226.612.871.871,0,0,1-.24.619A.832.832,0,0,1,112.5,334.456Z" style="fill:#f8f8f8"/><path d="M125.5,343.01a22.5,22.5,0,0,1-1.464,8.424,15.047,15.047,0,0,1-4.2,5.976h-.312a1.093,1.093,0,0,1-.408-.048c-.063-.032-.1-.1-.1-.216a1.634,1.634,0,0,1,.288-.384q4.177-4.7,4.176-13.728,0-9.048-4.176-13.752a1.613,1.613,0,0,1-.288-.385c0-.126.033-.2.1-.227a1.435,1.435,0,0,1,.408-.036h.312a15.257,15.257,0,0,1,4.188,5.988A22.27,22.27,0,0,1,125.5,343.01Z" style="fill:#fff"/><path d="M157.3,110.97q0,.3-.481.382t-1.667.182a15.873,15.873,0,0,0-2.075.295q-6.444,1.4-6.444,5.543v79.287q0,5.274-8.944,6.77,8.945,1.5,8.944,6.426V288.8a8.336,8.336,0,0,0,.148,1.814,5.335,5.335,0,0,0,2.872,2.968,14.535,14.535,0,0,0,5.833,1.5c.049,0,.192.008.425.024s.4.033.5.049.236.042.408.075a.638.638,0,0,1,.37.18.411.411,0,0,1,.111.281c0,.425-5.5.124-8.384-.9s-4.509-2.521-4.875-4.479a10.684,10.684,0,0,1-.074-1.456V210.1a4.594,4.594,0,0,0-.981-2.919,5.816,5.816,0,0,0-2.538-1.852,23.9,23.9,0,0,0-2.611-.871,13.522,13.522,0,0,0-2.13-.368c-.148,0-.364-.009-.647-.025a4.216,4.216,0,0,1-.686-.085c-.172-.041-.346-.078-.518-.11a.892.892,0,0,1-.408-.172.353.353,0,0,1-.148-.27.457.457,0,0,1,.111-.319.761.761,0,0,1,.409-.184,4.74,4.74,0,0,1,.61-.086c.209-.016.488-.041.834-.073s.666-.065.963-.1a13.813,13.813,0,0,0,4.945-1.545,4.852,4.852,0,0,0,2.647-3.066,5.444,5.444,0,0,0,.148-1.472V117.667a7.745,7.745,0,0,1,.128-1.574,4.641,4.641,0,0,1,.99-1.645,7.679,7.679,0,0,1,2.511-1.9C150.636,110.687,157.3,110.646,157.3,110.97Z" style="fill:#f8f8f8"/><path d="M440.516,378.472a.544.544,0,0,1,.482-.552,14.948,14.948,0,0,1,1.667-.264,11.515,11.515,0,0,0,2.074-.426q6.444-2.025,6.444-8.026V254.432q0-7.635,8.944-9.8-8.943-2.165-8.944-9.3V121.057a17.512,17.512,0,0,0-.147-2.627,7.253,7.253,0,0,0-2.872-4.3,11.224,11.224,0,0,0-5.833-2.167c-.049,0-.192-.011-.425-.035a4.239,4.239,0,0,1-.5-.071c-.1-.023-.236-.06-.408-.108a.6.6,0,0,1-.37-.26.765.765,0,0,1-.112-.407c0-.616,5.5-.179,8.385,1.309a8.293,8.293,0,0,1,4.875,6.484q.073.714.073,2.107V234.974a8.736,8.736,0,0,0,.981,4.225,6.524,6.524,0,0,0,2.538,2.681,19.246,19.246,0,0,0,2.611,1.26,9.752,9.752,0,0,0,2.129.533c.148,0,.364.013.648.036a2.964,2.964,0,0,1,.685.124q.26.088.519.159a.785.785,0,0,1,.408.249.6.6,0,0,1,.147.391.849.849,0,0,1-.111.461.69.69,0,0,1-.408.267,3.519,3.519,0,0,1-.611.124c-.209.023-.487.059-.833.106s-.666.094-.963.143a11.048,11.048,0,0,0-4.945,2.236A6.931,6.931,0,0,0,454,252.408a11.287,11.287,0,0,0-.147,2.13v114.24a15.931,15.931,0,0,1-.129,2.278,7.786,7.786,0,0,1-.989,2.382,8.839,8.839,0,0,1-2.511,2.749C447.182,378.882,440.516,378.942,440.516,378.472Z" style="fill:#f8f8f8"/><path d="M173.514,390.7c.271,0,.446.16.523.481a15.924,15.924,0,0,1,.251,1.667,11.893,11.893,0,0,0,.4,2.075q1.92,6.444,7.609,6.444H291.129q7.239,0,9.293,8.944,2.052-8.945,8.821-8.944H417.6a15.617,15.617,0,0,0,2.491-.148,6.867,6.867,0,0,0,4.074-2.871,11.6,11.6,0,0,0,2.054-5.833c0-.049.011-.192.034-.426a4.22,4.22,0,0,1,.067-.5c.022-.1.057-.236.1-.408a.6.6,0,0,1,.246-.371.7.7,0,0,1,.386-.111c.584,0,.17,5.5-1.241,8.385s-3.461,4.508-6.148,4.875q-.678.073-2,.073H309.58a7.95,7.95,0,0,0-4.007.981,6.344,6.344,0,0,0-2.542,2.538,19.919,19.919,0,0,0-1.195,2.611,10.235,10.235,0,0,0-.5,2.13c0,.148-.012.364-.034.648a3.117,3.117,0,0,1-.118.685c-.056.172-.106.346-.151.518a.784.784,0,0,1-.236.408.552.552,0,0,1-.37.148.784.784,0,0,1-.438-.111.7.7,0,0,1-.253-.408,3.606,3.606,0,0,1-.117-.611c-.022-.209-.056-.488-.1-.833s-.089-.666-.135-.963a11.365,11.365,0,0,0-2.12-4.945,6.521,6.521,0,0,0-4.21-2.648,10.133,10.133,0,0,0-2.019-.148H182.705a14.468,14.468,0,0,1-2.159-.128,7.208,7.208,0,0,1-2.259-.99,8.537,8.537,0,0,1-2.606-2.511C173.125,397.361,173.068,390.7,173.514,390.7Z" style="fill:#f8f8f8"/><path d="M385.257,94.816c-.227,0-.372-.16-.437-.482s-.134-.876-.209-1.666a14.049,14.049,0,0,0-.336-2.075q-1.6-6.444-6.34-6.444H287.269q-6.03,0-7.742-8.944-1.71,8.943-7.349,8.944h-90.27a10.968,10.968,0,0,0-2.075.147,5.842,5.842,0,0,0-3.394,2.872A13.122,13.122,0,0,0,174.727,93c0,.049-.009.192-.028.425s-.037.4-.056.5-.047.236-.086.408a.606.606,0,0,1-.2.37.512.512,0,0,1-.321.112c-.487,0-.142-5.5,1.034-8.385s2.883-4.509,5.122-4.875a13.971,13.971,0,0,1,1.665-.073H271.9a5.76,5.76,0,0,0,3.338-.982,5.944,5.944,0,0,0,2.118-2.537,22.21,22.21,0,0,0,1-2.612,11.917,11.917,0,0,0,.421-2.129c0-.148.01-.364.028-.648a3.732,3.732,0,0,1,.1-.685q.07-.26.126-.518a.831.831,0,0,1,.2-.409.424.424,0,0,1,.308-.147.564.564,0,0,1,.365.111.723.723,0,0,1,.211.408,4.3,4.3,0,0,1,.1.611q.029.314.084.833c.039.346.075.666.113.963a12.608,12.608,0,0,0,1.767,4.945,5.415,5.415,0,0,0,3.506,2.648,7.079,7.079,0,0,0,1.683.148H377.6a9.989,9.989,0,0,1,1.8.128,5.491,5.491,0,0,1,1.882.99,7.9,7.9,0,0,1,2.171,2.51C385.581,88.15,385.628,94.816,385.257,94.816Z" style="fill:#f8f8f8"/><rect x="397.433" y="110.816" width="25.874" height="185.055" style="fill:#fff933"/><rect x="397.433" y="307.871" width="25.874" height="66.825" style="fill:#bbb"/><rect x="173.301" y="307.871" width="212.132" height="66.825" style="fill:#fff933"/><path d="M423.229,94.941c-.1,0-.166-.16-.194-.482s-.06-.876-.093-1.666-.083-1.481-.15-2.075q-.711-6.444-2.818-6.444h-6.051q-2.68,0-3.442-8.944-.76,8.943-3.267,8.944H401.03a2.243,2.243,0,0,0-.922.148q-.873.521-1.509,2.871a26.353,26.353,0,0,0-.761,5.833c0,.049,0,.192-.013.425s-.016.4-.024.5-.022.236-.038.408a.966.966,0,0,1-.092.371c-.043.074-.09.111-.143.111-.216,0-.063-5.5.46-8.385s1.282-4.508,2.277-4.875a2.816,2.816,0,0,1,.741-.073h6.083a1.8,1.8,0,0,0,1.484-.981,7.223,7.223,0,0,0,.942-2.538q.3-1.554.442-2.611t.187-2.13c0-.148,0-.364.013-.648s.023-.512.044-.685.039-.346.056-.518a1.4,1.4,0,0,1,.087-.408c.042-.1.088-.148.137-.148a.181.181,0,0,1,.162.111,1.167,1.167,0,0,1,.094.408c.021.2.035.4.044.611s.02.487.037.833.033.666.05.963a24.349,24.349,0,0,0,.785,4.945q.612,2.2,1.56,2.648a1.491,1.491,0,0,0,.748.148h5.863a2.058,2.058,0,0,1,.8.128,2.707,2.707,0,0,1,.837.99,9.284,9.284,0,0,1,.965,2.511A34.9,34.9,0,0,1,423.229,94.941Z" style="fill:#f8f8f8"/><path d="M157.3,308.074q0,.39-.481.5a16.173,16.173,0,0,1-1.667.239,12.484,12.484,0,0,0-2.075.387q-6.444,1.836-6.444,7.28v15.626q0,6.924-8.944,8.89,8.945,1.963,8.944,8.439v15.97a14.308,14.308,0,0,0,.148,2.383,6.583,6.583,0,0,0,2.871,3.9,11.925,11.925,0,0,0,5.834,1.965c.048,0,.191.011.425.032a4.642,4.642,0,0,1,.5.065c.1.021.235.054.408.1a.6.6,0,0,1,.37.235.656.656,0,0,1,.111.37c0,.559-5.5.162-8.384-1.187s-4.509-3.311-4.876-5.882a18.432,18.432,0,0,1-.073-1.912V349.758a7.333,7.333,0,0,0-.981-3.833,6.217,6.217,0,0,0-2.538-2.432,20.209,20.209,0,0,0-2.611-1.143,10.5,10.5,0,0,0-2.13-.483c-.148,0-.364-.012-.647-.033a3.227,3.227,0,0,1-.686-.113c-.172-.053-.346-.1-.518-.144a.8.8,0,0,1-.408-.226A.516.516,0,0,1,133.3,341a.723.723,0,0,1,.111-.419.7.7,0,0,1,.408-.242,3.809,3.809,0,0,1,.611-.112c.209-.022.488-.054.834-.1s.666-.085.962-.129a11.612,11.612,0,0,0,4.945-2.029,6.208,6.208,0,0,0,2.648-4.026,9.3,9.3,0,0,0,.148-1.933V316.867a13.261,13.261,0,0,1,.128-2.066,6.737,6.737,0,0,1,.99-2.161,8.342,8.342,0,0,1,2.511-2.493C150.636,307.7,157.3,307.648,157.3,308.074Z" style="fill:#f8f8f8"/></svg>