<svg xmlns="http://www.w3.org/2000/svg" width="720" height="120" viewBox="0 0 720 120"><rect width="720" height="120"/><path d="M187.229,52.573c.25-.016.534-.037.85-.062s.554-.045.713-.063.245-.024.262-.024c.2,0,.3.066.3.2q0,.174-1.837,7.562T185.654,67.7a2.145,2.145,0,0,0-.025.375q0,1.05.7,1.051a1.089,1.089,0,0,0,.5-.226,5.674,5.674,0,0,0,1.025-2.4q.15-.5.25-.526a.754.754,0,0,1,.25-.025h.1c.316,0,.475.067.475.2a2.1,2.1,0,0,1-.075.4,6.522,6.522,0,0,1-1.35,2.9,2.472,2.472,0,0,1-.8.525,2.634,2.634,0,0,1-.6.05,2.256,2.256,0,0,1-2.2-1.224,1.9,1.9,0,0,0-.125-.3c-.016-.017-.05-.009-.1.024l-.1.1A5.12,5.12,0,0,1,181.2,70a5.234,5.234,0,0,1-.625.024,3.317,3.317,0,0,1-2.725-1.375,4.863,4.863,0,0,1-.75-2.8,7.64,7.64,0,0,1,1.7-4.6,6.532,6.532,0,0,1,3.45-2.375,3.683,3.683,0,0,1,1.025-.151,2.4,2.4,0,0,1,2.1,1.05c.083.1.125.134.125.1q.024-.1.687-2.738t.688-2.762a.452.452,0,0,0-.15-.4,3.776,3.776,0,0,0-1-.125H185.2a.657.657,0,0,1-.162-.2,2.458,2.458,0,0,1,.062-.474c.083-.317.192-.476.325-.476.016,0,.1-.008.262-.024s.384-.034.675-.05S186.945,52.591,187.229,52.573Zm-2.15,9.051q-.551-1.976-1.875-1.976a2.311,2.311,0,0,0-1.763.851,5.932,5.932,0,0,0-1.162,1.949,19.989,19.989,0,0,0-1.025,4.1c0,.049,0,.141-.013.274s-.012.234-.012.3a2.467,2.467,0,0,0,.387,1.449,1.3,1.3,0,0,0,1.138.551q1.326,0,2.775-1.8l.2-.274q.225-.9.675-2.713T185.079,61.624Z" style="fill:#fff933"/><path d="M192.228,73.823c.451.1.692.15.725.15q.576,0,1-1.049.3-.825,1.825-8.9.7-3.774.726-3.8v-.075h-1.176a6.687,6.687,0,0,1-1.25-.05c-.116-.066-.133-.25-.05-.549a2.341,2.341,0,0,1,.125-.4.225.225,0,0,1,.213-.137c.109-.008.495-.012,1.162-.012a10.51,10.51,0,0,0,1.2-.026c0-.033.076-.45.225-1.25s.25-1.283.3-1.45a6.1,6.1,0,0,1,1.574-3.3,3.235,3.235,0,0,1,2.075-.825,2.552,2.552,0,0,1,1.513.55,1.627,1.627,0,0,1,.612,1.325,1.763,1.763,0,0,1-.45,1.226,1.452,1.452,0,0,1-1.125.5q-1.1,0-1.1-1.051a1.412,1.412,0,0,1,.875-1.35l.225-.125a2.5,2.5,0,0,0-.75-.15q-.725,0-.949.95-.2.75-.651,3.276l-.325,1.649a7,7,0,0,0,1.375.051q1.125,0,1.351.024c.149.017.224.075.224.175a2.805,2.805,0,0,1-.174.8.247.247,0,0,1-.238.137q-.187.012-1.338.012h-1.4L198,63.2q-.925,4.776-1.151,5.775Q196,72.749,194.578,74.1a2.813,2.813,0,0,1-1.824.8,2.262,2.262,0,0,1-1.5-.5,1.635,1.635,0,0,1-.6-1.325,1.848,1.848,0,0,1,.45-1.262,1.434,1.434,0,0,1,1.125-.512q1.1,0,1.1,1.049a1.41,1.41,0,0,1-.875,1.35Z" style="fill:#fff933"/><path d="M209.179,61.1a.546.546,0,0,1,.349-.5h15.925a.549.549,0,0,1,.375.5.565.565,0,0,1-.35.475l-7.95.025h-7.95A.494.494,0,0,1,209.179,61.1Zm0,4.85a.5.5,0,0,1,.4-.5h15.9a.84.84,0,0,0,.113.088,1.131,1.131,0,0,1,.125.1.412.412,0,0,1,.075.125.469.469,0,0,1,.037.187.546.546,0,0,1-.375.5H209.528A.543.543,0,0,1,209.179,65.948Z" style="fill:#fff"/><path d="M238.228,59.424q-2.3,0-2.3,1.625a1.146,1.146,0,0,0,.049.424,1.5,1.5,0,0,0,.776.863,7.509,7.509,0,0,0,1.7.487,6.742,6.742,0,0,1,1.949.551,3.619,3.619,0,0,1,2.026,2.474,4.644,4.644,0,0,1,.025.6,4.031,4.031,0,0,1-.351,1.726,3.766,3.766,0,0,1-3.674,1.849,3.981,3.981,0,0,1-2.6-.9l-.2.175-.226.224a3.8,3.8,0,0,1-.3.276l-.274.25h-.2a.449.449,0,0,1-.325-.151V67.924q0-1.625.012-1.875c.008-.167.046-.267.113-.3a1.544,1.544,0,0,1,.4-.026.836.836,0,0,1,.387.05.805.805,0,0,1,.137.351A5.791,5.791,0,0,0,236,67.848a2.782,2.782,0,0,0,2.425,1.276q2.424,0,2.424-1.95A1.584,1.584,0,0,0,240.4,66a2.168,2.168,0,0,0-1.05-.676q-.425-.1-1.2-.274a8.589,8.589,0,0,1-1.9-.526,3.116,3.116,0,0,1-1.925-2.325,1.731,1.731,0,0,1-.025-.375q0-2.874,3.525-3.225a1.63,1.63,0,0,1,.6,0,3.868,3.868,0,0,1,1.75.375l.375.2.224-.175a6.474,6.474,0,0,1,.551-.426h.2a.455.455,0,0,1,.325.15v3.3l-.149.151H241a.433.433,0,0,1-.151-.3,2.337,2.337,0,0,0-.7-1.8A2.72,2.72,0,0,0,238.228,59.424Z" style="fill:#fff"/><path d="M249.5,69.773a21.355,21.355,0,0,0-2.6-.075,26.355,26.355,0,0,0-2.724.075h-.2V68.624h.4a8.924,8.924,0,0,0,1.225-.075.537.537,0,0,0,.3-.276q.025-.049.026-3.625a34.617,34.617,0,0,0-.1-4q-.2-.5-1.475-.5h-.275v-.575q0-.575.05-.574l.25-.026c.167-.016.4-.033.7-.049l.9-.05c.284-.017.583-.038.9-.063s.558-.046.725-.062.258-.026.275-.026h.075v9.5a.578.578,0,0,0,.3.313,3.943,3.943,0,0,0,.875.088h.575v1.149Zm-2.9-16.724a1.6,1.6,0,0,1,1.025.437,1.414,1.414,0,0,1,.4,1.063,1.336,1.336,0,0,1-.675,1.274,1.369,1.369,0,0,1-.8.226,1.418,1.418,0,0,1-.826-.226,1.337,1.337,0,0,1-.674-1.274,1.418,1.418,0,0,1,.437-1.1A1.585,1.585,0,0,1,246.6,53.049Z" style="fill:#fff"/><path d="M254.978,68.273c.133.234.526.351,1.175.351h.75v1.149h-.2a52.3,52.3,0,0,0-5.6,0h-.2V68.624h.75q.977,0,1.175-.351V67.5c0-.234,0-.5.013-.788s.012-.617.012-.975V64.7c0-.516,0-1.07-.012-1.662s-.013-1.079-.013-1.463V61a.827.827,0,0,0-.362-.638,2.934,2.934,0,0,0-1.113-.213h-.45v-.575q0-.575.05-.574l.25-.026c.167-.016.4-.033.713-.049l.912-.05c.283-.017.584-.038.9-.063s.559-.046.725-.062.259-.026.275-.026h.076v1a6.874,6.874,0,0,0,.024.951l.025-.026a4.4,4.4,0,0,1,3.826-1.925,2.917,2.917,0,0,1,3.174,2.826q.026.174.026,3.474,0,3.2.024,3.25a.54.54,0,0,0,.3.276,8.95,8.95,0,0,0,1.226.075h.4v1.149h-.2a52.323,52.323,0,0,0-5.6,0h-.2V68.624h.6c.882,0,1.325-.134,1.325-.4q.022-.05.024-3.45-.024-3.375-.05-3.575a2.209,2.209,0,0,0-.562-1.162,1.692,1.692,0,0,0-1.188-.362,2.707,2.707,0,0,0-1.974.849,3.584,3.584,0,0,0-1.026,2.2v.463c0,.291,0,.662-.012,1.113s-.013.875-.013,1.274v.788q0,.412.013.737c.009.217.012.413.012.588v.587Z" style="fill:#fff"/><path d="M272.5,75.8c0,.149-.151.224-.45.224h-.326c-.117-.1-.349-.3-.7-.6q-4.5-4.1-4.5-11.9a20.1,20.1,0,0,1,.726-5.575,13.463,13.463,0,0,1,3.774-6.324c.116-.1.25-.213.4-.338s.25-.213.3-.263h.326a.6.6,0,0,1,.375.075.22.22,0,0,1,.075.151q0,.1-.276.375-3.876,4.1-3.875,11.9t3.875,11.9Q272.5,75.7,272.5,75.8Z" style="fill:#fff"/><path d="M275.353,62.823a.415.415,0,0,1-.15-.274,4.743,4.743,0,0,1,.775-1.726,4.289,4.289,0,0,1,2.95-2.05,4.126,4.126,0,0,1,.525-.05,3.036,3.036,0,0,1,1.612.451,2.678,2.678,0,0,1,1.063,1.125c.217-.284.35-.458.4-.526a2.769,2.769,0,0,1,2.125-1.05,2.357,2.357,0,0,1,1.662.588,1.882,1.882,0,0,1,.638,1.438,1.969,1.969,0,0,1-.437,1.3,1.441,1.441,0,0,1-1.163.524,1.1,1.1,0,0,1-.775-.274.938.938,0,0,1-.3-.726A1.588,1.588,0,0,1,285.528,60a1.014,1.014,0,0,0-.275-.176,1.426,1.426,0,0,0-.725-.149,1.651,1.651,0,0,0-.475.049,2.62,2.62,0,0,0-1.4,1.651q-.075.2-.725,2.787t-.7,2.912a3.816,3.816,0,0,0-.075.75,1.281,1.281,0,0,0,.35.95,1.248,1.248,0,0,0,.925.351,2.579,2.579,0,0,0,1.9-.888,4.621,4.621,0,0,0,1.15-1.963c.05-.166.1-.262.15-.287a1.208,1.208,0,0,1,.4-.038q.476,0,.475.2c0,.017-.017.109-.05.276a5.443,5.443,0,0,1-1.75,2.7,3.946,3.946,0,0,1-2.475.925,2.881,2.881,0,0,1-2.65-1.576,3.5,3.5,0,0,1-1.85,1.5,3.149,3.149,0,0,1-.65.05A2.18,2.18,0,0,1,275.028,69a1.933,1.933,0,0,1-.25-1,1.9,1.9,0,0,1,.45-1.276,1.45,1.45,0,0,1,1.15-.525.94.94,0,0,1,1.075,1.051,1.411,1.411,0,0,1-.875,1.349l-.125.063-.125.062a.194.194,0,0,1-.075.026l-.075.024q0,.075.375.226a1.68,1.68,0,0,0,.65.125A1.846,1.846,0,0,0,278.753,68a18.905,18.905,0,0,0,.975-3.25q.15-.576.325-1.276t.262-1.075c.059-.25.1-.4.113-.45a5.992,5.992,0,0,0,.125-.975,1.345,1.345,0,0,0-.325-.95,1.168,1.168,0,0,0-.9-.349,2.61,2.61,0,0,0-1.95.862,4.734,4.734,0,0,0-1.15,1.987c-.034.151-.071.238-.113.263a1.206,1.206,0,0,1-.412.037Z" style="fill:#fff"/><path d="M289.7,51.049l.1-.026h.549l.7.6q4.5,4.1,4.5,11.9a19.731,19.731,0,0,1-.725,5.55,13.492,13.492,0,0,1-3.775,6.351c-.117.1-.25.212-.4.337s-.25.212-.3.262h-.3a.927.927,0,0,1-.388-.05c-.059-.033-.087-.117-.087-.25.017-.016.108-.125.274-.325q3.876-4.024,3.875-11.875t-3.875-11.875c-.166-.2-.257-.307-.274-.325A.29.29,0,0,1,289.7,51.049Z" style="fill:#fff"/><path d="M305.878,63.523a1.454,1.454,0,0,1,1.5-1.5,1.482,1.482,0,0,1,1.088.438A1.42,1.42,0,0,1,308.9,63.5a1.513,1.513,0,0,1-3.025.024Z" style="fill:#fff"/><path d="M328.078,52.573q.375-.024.85-.062c.316-.025.553-.045.713-.063s.245-.024.261-.024c.2,0,.3.066.3.2q0,.174-1.838,7.562T326.5,67.7a2.032,2.032,0,0,0-.026.375q0,1.05.7,1.051a1.089,1.089,0,0,0,.5-.226,5.687,5.687,0,0,0,1.025-2.4q.15-.5.25-.526a.745.745,0,0,1,.25-.025h.1q.474,0,.474.2a2.073,2.073,0,0,1-.074.4,6.511,6.511,0,0,1-1.351,2.9,2.457,2.457,0,0,1-.8.525,2.634,2.634,0,0,1-.6.05,2.255,2.255,0,0,1-2.2-1.224,1.9,1.9,0,0,0-.125-.3c-.017-.017-.05-.009-.1.024l-.1.1A5.12,5.12,0,0,1,322.053,70a5.234,5.234,0,0,1-.625.024,3.317,3.317,0,0,1-2.725-1.375,4.863,4.863,0,0,1-.75-2.8,7.639,7.639,0,0,1,1.7-4.6,6.536,6.536,0,0,1,3.45-2.375,3.7,3.7,0,0,1,1.026-.151,2.392,2.392,0,0,1,2.1,1.05c.083.1.125.134.125.1q.026-.1.688-2.738t.687-2.762a.452.452,0,0,0-.149-.4,3.79,3.79,0,0,0-1-.125h-.525a.64.64,0,0,1-.162-.2,2.368,2.368,0,0,1,.062-.474q.125-.476.324-.476c.017,0,.105-.008.263-.024s.384-.034.675-.05S327.794,52.591,328.078,52.573Zm-2.15,9.051q-.552-1.976-1.875-1.976a2.311,2.311,0,0,0-1.763.851,5.9,5.9,0,0,0-1.162,1.949,19.991,19.991,0,0,0-1.026,4.1c0,.049,0,.141-.012.274s-.012.234-.012.3a2.467,2.467,0,0,0,.387,1.449,1.3,1.3,0,0,0,1.137.551q1.326,0,2.776-1.8l.2-.274q.224-.9.675-2.713T325.928,61.624Z" style="fill:#fff"/><path d="M333.775,63.75a22.294,22.294,0,0,1,1.477-8.389,15.244,15.244,0,0,1,4.187-5.987h.672c.1.095.145.168.145.216s-.08.183-.24.359q-4.226,4.754-4.224,13.824,0,9,4.224,13.8c.16.177.24.3.24.36,0,.048-.048.12-.145.216h-.672a15.244,15.244,0,0,1-4.187-5.987A22.362,22.362,0,0,1,333.775,63.75Z" style="fill:#fff"/><path d="M342.569,62.823a.42.42,0,0,1-.15-.274,4.743,4.743,0,0,1,.775-1.726,4.289,4.289,0,0,1,2.95-2.05,4.158,4.158,0,0,1,.525-.05,3.04,3.04,0,0,1,1.613.451,2.684,2.684,0,0,1,1.063,1.125c.215-.284.349-.458.4-.526a2.769,2.769,0,0,1,2.125-1.05,2.357,2.357,0,0,1,1.662.588,1.878,1.878,0,0,1,.638,1.438,1.964,1.964,0,0,1-.438,1.3,1.438,1.438,0,0,1-1.162.524,1.1,1.1,0,0,1-.775-.274.938.938,0,0,1-.3-.726A1.588,1.588,0,0,1,352.744,60a1.014,1.014,0,0,0-.275-.176,1.426,1.426,0,0,0-.725-.149,1.651,1.651,0,0,0-.475.049,2.62,2.62,0,0,0-1.4,1.651q-.075.2-.725,2.787t-.7,2.912a3.816,3.816,0,0,0-.075.75,1.277,1.277,0,0,0,.351.95,1.245,1.245,0,0,0,.924.351,2.579,2.579,0,0,0,1.9-.888,4.621,4.621,0,0,0,1.15-1.963c.05-.166.1-.262.15-.287a1.208,1.208,0,0,1,.4-.038c.316,0,.475.067.475.2,0,.017-.017.109-.05.276a5.436,5.436,0,0,1-1.75,2.7,3.948,3.948,0,0,1-2.475.925,2.881,2.881,0,0,1-2.65-1.576,3.5,3.5,0,0,1-1.85,1.5,3.149,3.149,0,0,1-.65.05A2.18,2.18,0,0,1,342.244,69a1.933,1.933,0,0,1-.25-1,1.9,1.9,0,0,1,.45-1.276A1.452,1.452,0,0,1,343.6,66.2a.94.94,0,0,1,1.074,1.051,1.41,1.41,0,0,1-.875,1.349l-.125.063-.125.062a.2.2,0,0,1-.074.026l-.076.024q0,.075.375.226a1.68,1.68,0,0,0,.65.125A1.848,1.848,0,0,0,345.97,68a19.151,19.151,0,0,0,.974-3.25q.15-.576.325-1.276t.263-1.075c.058-.25.1-.4.112-.45a6.109,6.109,0,0,0,.125-.975,1.341,1.341,0,0,0-.325-.95,1.168,1.168,0,0,0-.9-.349,2.607,2.607,0,0,0-1.949.862,4.736,4.736,0,0,0-1.151,1.987c-.033.151-.071.238-.112.263a1.218,1.218,0,0,1-.413.037Z" style="fill:#f8f8f8"/><path d="M357.022,55.2a.813.813,0,0,1-.641-.263.931.931,0,0,1-.234-.641,2.391,2.391,0,0,1,.8-1.8,2.674,2.674,0,0,1,1.9-.751,3.164,3.164,0,0,1,2.077.678,2.843,2.843,0,0,1,1.013,1.771,4.488,4.488,0,0,1,.029.481,2.761,2.761,0,0,1-.51,1.589,9.664,9.664,0,0,1-1.647,1.675q-.525.453-1.457,1.341l-.861.817,1.109.014a17.689,17.689,0,0,0,2.433-.072c.039-.01.088-.112.146-.307a9.053,9.053,0,0,0,.2-.991v-.044h.583v.044l-.408,2.667v.044h-5.408v-.276a.958.958,0,0,1,.03-.336q.013-.014,1.224-1.384,1.588-1.764,2.04-2.332a4.223,4.223,0,0,0,.977-2.435,2.545,2.545,0,0,0-.5-1.61,1.675,1.675,0,0,0-1.406-.648,1.6,1.6,0,0,0-1.37.757c-.02.039-.049.093-.087.16a.312.312,0,0,0-.044.088q0,.015.072.015a.743.743,0,0,1,.591.262.912.912,0,0,1,.225.612.87.87,0,0,1-.24.619A.828.828,0,0,1,357.022,55.2Z" style="fill:#f8f8f8"/><path d="M370.026,63.75a22.5,22.5,0,0,1-1.464,8.424,15.043,15.043,0,0,1-4.2,5.975h-.312a1.072,1.072,0,0,1-.408-.048c-.064-.032-.1-.1-.1-.215a1.6,1.6,0,0,1,.288-.384q4.176-4.706,4.176-13.729,0-9.047-4.176-13.752a1.6,1.6,0,0,1-.288-.384c0-.127.032-.2.1-.227a1.435,1.435,0,0,1,.408-.036h.312a15.246,15.246,0,0,1,4.188,5.987A22.3,22.3,0,0,1,370.026,63.75Z" style="fill:#fff"/><path d="M381.1,63.523a.545.545,0,0,1,.349-.5h7.475v-3.75l.025-3.75c.166-.216.325-.325.475-.325a.546.546,0,0,1,.5.375v7.45h7.45a.521.521,0,0,1,0,1h-7.45v7.45a.532.532,0,0,1-1,0v-7.45h-7.475A.543.543,0,0,1,381.1,63.523Z" style="fill:#fff"/><path d="M406.849,62.823a.413.413,0,0,1-.151-.274,4.748,4.748,0,0,1,.776-1.726,4.287,4.287,0,0,1,2.95-2.05,4.114,4.114,0,0,1,.524-.05,3.036,3.036,0,0,1,1.612.451,2.672,2.672,0,0,1,1.063,1.125c.217-.284.351-.458.4-.526a2.772,2.772,0,0,1,2.125-1.05,2.356,2.356,0,0,1,1.662.588,1.878,1.878,0,0,1,.638,1.438,1.963,1.963,0,0,1-.437,1.3,1.439,1.439,0,0,1-1.162.524,1.1,1.1,0,0,1-.776-.274.938.938,0,0,1-.3-.726A1.588,1.588,0,0,1,417.023,60a.993.993,0,0,0-.275-.176,1.424,1.424,0,0,0-.725-.149,1.643,1.643,0,0,0-.474.049,2.618,2.618,0,0,0-1.4,1.651q-.074.2-.724,2.787t-.7,2.912a3.817,3.817,0,0,0-.076.75,1.284,1.284,0,0,0,.35.95,1.249,1.249,0,0,0,.926.351,2.578,2.578,0,0,0,1.9-.888,4.623,4.623,0,0,0,1.151-1.963c.049-.166.1-.262.149-.287a1.217,1.217,0,0,1,.4-.038q.475,0,.475.2c0,.017-.017.109-.05.276a5.436,5.436,0,0,1-1.75,2.7,3.945,3.945,0,0,1-2.474.925,2.883,2.883,0,0,1-2.651-1.576,3.5,3.5,0,0,1-1.849,1.5,3.167,3.167,0,0,1-.651.05A2.181,2.181,0,0,1,406.523,69a1.933,1.933,0,0,1-.25-1,1.9,1.9,0,0,1,.451-1.276,1.446,1.446,0,0,1,1.149-.525.94.94,0,0,1,1.075,1.051,1.411,1.411,0,0,1-.875,1.349l-.125.063-.125.062a.189.189,0,0,1-.075.026l-.074.024q0,.075.375.226a1.672,1.672,0,0,0,.649.125A1.845,1.845,0,0,0,410.248,68a18.862,18.862,0,0,0,.976-3.25q.148-.576.325-1.276t.261-1.075c.059-.25.1-.4.114-.45a6.109,6.109,0,0,0,.125-.975,1.35,1.35,0,0,0-.325-.95,1.17,1.17,0,0,0-.9-.349,2.612,2.612,0,0,0-1.95.862,4.721,4.721,0,0,0-1.149,1.987c-.035.151-.072.238-.113.263a1.214,1.214,0,0,1-.413.037Z" style="fill:#f8f8f8"/><path d="M421.3,55.2a.814.814,0,0,1-.642-.263.93.93,0,0,1-.233-.641,2.387,2.387,0,0,1,.795-1.8,2.672,2.672,0,0,1,1.9-.751,3.164,3.164,0,0,1,2.077.678,2.843,2.843,0,0,1,1.013,1.771,4.488,4.488,0,0,1,.029.481,2.761,2.761,0,0,1-.51,1.589,9.664,9.664,0,0,1-1.647,1.675q-.525.453-1.457,1.341l-.86.817,1.108.014a17.722,17.722,0,0,0,2.434-.072c.039-.01.087-.112.145-.307a9.053,9.053,0,0,0,.2-.991v-.044h.583v.044l-.408,2.667v.044h-5.407v-.276a.97.97,0,0,1,.029-.336q.015-.014,1.225-1.384,1.587-1.764,2.04-2.332a4.228,4.228,0,0,0,.976-2.435,2.545,2.545,0,0,0-.5-1.61,1.674,1.674,0,0,0-1.406-.648,1.6,1.6,0,0,0-1.37.757c-.02.039-.049.093-.087.16a.347.347,0,0,0-.044.088q0,.015.072.015a.742.742,0,0,1,.591.262.907.907,0,0,1,.226.612.866.866,0,0,1-.241.619A.827.827,0,0,1,421.3,55.2Z" style="fill:#f8f8f8"/><path d="M432.579,63.523a1.454,1.454,0,0,1,1.5-1.5,1.478,1.478,0,0,1,1.087.438A1.416,1.416,0,0,1,435.6,63.5a1.512,1.512,0,0,1-3.024.024Z" style="fill:#fff"/><path d="M454.779,52.573q.375-.024.85-.062c.316-.025.554-.045.713-.063s.245-.024.262-.024c.2,0,.3.066.3.2q0,.174-1.838,7.562T453.2,67.7a2.05,2.05,0,0,0-.025.375q0,1.05.7,1.051a1.089,1.089,0,0,0,.5-.226,5.674,5.674,0,0,0,1.025-2.4q.15-.5.25-.526a.745.745,0,0,1,.25-.025h.1c.316,0,.475.067.475.2a2.1,2.1,0,0,1-.075.4,6.522,6.522,0,0,1-1.35,2.9,2.472,2.472,0,0,1-.8.525,2.628,2.628,0,0,1-.6.05,2.256,2.256,0,0,1-2.2-1.224,1.9,1.9,0,0,0-.125-.3c-.017-.017-.05-.009-.1.024l-.1.1A5.12,5.12,0,0,1,448.754,70a5.234,5.234,0,0,1-.625.024,3.317,3.317,0,0,1-2.725-1.375,4.863,4.863,0,0,1-.75-2.8,7.64,7.64,0,0,1,1.7-4.6,6.536,6.536,0,0,1,3.45-2.375,3.683,3.683,0,0,1,1.025-.151,2.4,2.4,0,0,1,2.1,1.05c.084.1.125.134.125.1q.024-.1.687-2.738t.688-2.762a.452.452,0,0,0-.15-.4,3.77,3.77,0,0,0-1-.125h-.525a.657.657,0,0,1-.162-.2,2.458,2.458,0,0,1,.062-.474c.083-.317.192-.476.325-.476.016,0,.1-.008.262-.024s.384-.034.676-.05S454.5,52.591,454.779,52.573Zm-2.15,9.051q-.549-1.976-1.875-1.976a2.311,2.311,0,0,0-1.763.851,5.932,5.932,0,0,0-1.162,1.949,19.989,19.989,0,0,0-1.025,4.1c0,.049,0,.141-.012.274s-.013.234-.013.3a2.46,2.46,0,0,0,.388,1.449,1.3,1.3,0,0,0,1.137.551q1.325,0,2.775-1.8l.2-.274q.225-.9.675-2.713T452.629,61.624Z" style="fill:#fff"/><path d="M460.477,63.75a22.3,22.3,0,0,1,1.476-8.389,15.246,15.246,0,0,1,4.188-5.987h.672c.1.095.144.168.144.216s-.08.183-.24.359q-4.226,4.754-4.224,13.824,0,9,4.224,13.8c.16.177.24.3.24.36q0,.072-.144.216h-.672a15.246,15.246,0,0,1-4.188-5.987A22.363,22.363,0,0,1,460.477,63.75Z" style="fill:#fff"/><path d="M472.57,59.424q-2.3,0-2.3,1.625a1.139,1.139,0,0,0,.05.424,1.5,1.5,0,0,0,.776.863,7.514,7.514,0,0,0,1.7.487,6.751,6.751,0,0,1,1.95.551,3.618,3.618,0,0,1,2.025,2.474,4.461,4.461,0,0,1,.025.6,4.031,4.031,0,0,1-.35,1.726,3.768,3.768,0,0,1-3.675,1.849,3.983,3.983,0,0,1-2.6-.9l-.2.175-.226.224q-.15.151-.3.276l-.275.25h-.2a.451.451,0,0,1-.326-.151V67.924q0-1.625.013-1.875c.008-.167.045-.267.112-.3a1.55,1.55,0,0,1,.4-.026.841.841,0,0,1,.388.05.819.819,0,0,1,.137.351,5.738,5.738,0,0,0,.651,1.724,2.78,2.78,0,0,0,2.424,1.276q2.426,0,2.425-1.95a1.588,1.588,0,0,0-.45-1.175,2.173,2.173,0,0,0-1.05-.676q-.425-.1-1.2-.274a8.572,8.572,0,0,1-1.9-.526A3.118,3.118,0,0,1,468.67,62.2a1.8,1.8,0,0,1-.025-.375q0-2.874,3.525-3.225a1.63,1.63,0,0,1,.6,0,3.868,3.868,0,0,1,1.75.375l.375.2L475.12,59a6.483,6.483,0,0,1,.55-.426h.2a.457.457,0,0,1,.325.15v3.3l-.15.151h-.7a.433.433,0,0,1-.151-.3,2.337,2.337,0,0,0-.7-1.8A2.72,2.72,0,0,0,472.57,59.424Z" style="fill:#fff"/><path d="M483.846,69.773a21.355,21.355,0,0,0-2.6-.075,26.421,26.421,0,0,0-2.726.075h-.2V68.624h.4a8.934,8.934,0,0,0,1.225-.075.54.54,0,0,0,.3-.276q.025-.049.024-3.625a34.941,34.941,0,0,0-.1-4q-.2-.5-1.475-.5h-.275v-.575c0-.383.016-.574.05-.574l.25-.026c.167-.016.4-.033.7-.049l.9-.05q.424-.026.9-.063t.725-.062c.166-.017.258-.026.275-.026h.075v9.5a.575.575,0,0,0,.3.313,3.934,3.934,0,0,0,.875.088h.575v1.149Zm-2.9-16.724a1.6,1.6,0,0,1,1.025.437,1.414,1.414,0,0,1,.4,1.063,1.339,1.339,0,0,1-.675,1.274,1.375,1.375,0,0,1-.8.226,1.413,1.413,0,0,1-.824-.226,1.338,1.338,0,0,1-.676-1.274,1.422,1.422,0,0,1,.438-1.1A1.589,1.589,0,0,1,480.946,53.049Z" style="fill:#fff"/><path d="M489.321,68.273q.2.351,1.175.351h.75v1.149h-.2a52.3,52.3,0,0,0-5.6,0h-.2V68.624H486q.975,0,1.175-.351V67.5c0-.234,0-.5.013-.788s.012-.617.012-.975V64.7c0-.516-.005-1.07-.012-1.662s-.013-1.079-.013-1.463V61a.827.827,0,0,0-.362-.638,2.934,2.934,0,0,0-1.113-.213h-.45v-.575q0-.575.05-.574l.25-.026c.167-.016.4-.033.713-.049l.912-.05q.425-.026.9-.063c.317-.025.558-.046.725-.062s.259-.026.275-.026h.075v1a6.74,6.74,0,0,0,.025.951l.025-.026a4.4,4.4,0,0,1,3.825-1.925,2.918,2.918,0,0,1,3.175,2.826q.025.174.025,3.474,0,3.2.025,3.25a.534.534,0,0,0,.3.276,8.934,8.934,0,0,0,1.225.075h.4v1.149h-.2a52.3,52.3,0,0,0-5.6,0h-.2V68.624h.6q1.325,0,1.325-.4.024-.05.025-3.45-.025-3.375-.05-3.575a2.209,2.209,0,0,0-.562-1.162,1.694,1.694,0,0,0-1.188-.362,2.71,2.71,0,0,0-1.975.849,3.588,3.588,0,0,0-1.025,2.2v.463c0,.291-.005.662-.012,1.113s-.013.875-.013,1.274v.788q0,.412.013.737c.007.217.012.413.012.588v.587Z" style="fill:#fff"/><path d="M506.846,75.8c0,.149-.151.224-.451.224h-.325c-.116-.1-.349-.3-.7-.6q-4.5-4.1-4.5-11.9a20.138,20.138,0,0,1,.726-5.575,13.472,13.472,0,0,1,3.774-6.324c.117-.1.25-.213.4-.338s.25-.213.3-.263h.325a.6.6,0,0,1,.375.075.218.218,0,0,1,.076.151q0,.1-.276.375-3.874,4.1-3.875,11.9t3.875,11.9Q506.846,75.7,506.846,75.8Z" style="fill:#fff"/><path d="M509.7,62.823a.415.415,0,0,1-.15-.274,4.743,4.743,0,0,1,.775-1.726,4.289,4.289,0,0,1,2.95-2.05,4.142,4.142,0,0,1,.525-.05,3.036,3.036,0,0,1,1.612.451A2.678,2.678,0,0,1,516.47,60.3c.216-.284.35-.458.4-.526A2.769,2.769,0,0,1,519,58.723a2.357,2.357,0,0,1,1.662.588,1.878,1.878,0,0,1,.638,1.438,1.964,1.964,0,0,1-.438,1.3,1.438,1.438,0,0,1-1.162.524,1.1,1.1,0,0,1-.775-.274.938.938,0,0,1-.3-.726A1.588,1.588,0,0,1,519.87,60a1.014,1.014,0,0,0-.275-.176,1.426,1.426,0,0,0-.725-.149,1.651,1.651,0,0,0-.475.049,2.62,2.62,0,0,0-1.4,1.651q-.075.2-.725,2.787t-.7,2.912a3.816,3.816,0,0,0-.075.75,1.281,1.281,0,0,0,.35.95,1.248,1.248,0,0,0,.925.351,2.58,2.58,0,0,0,1.9-.888,4.621,4.621,0,0,0,1.15-1.963c.05-.166.1-.262.15-.287a1.208,1.208,0,0,1,.4-.038c.316,0,.475.067.475.2,0,.017-.017.109-.05.276a5.436,5.436,0,0,1-1.75,2.7,3.948,3.948,0,0,1-2.475.925,2.881,2.881,0,0,1-2.65-1.576,3.5,3.5,0,0,1-1.85,1.5,3.149,3.149,0,0,1-.65.05A2.18,2.18,0,0,1,509.37,69a1.933,1.933,0,0,1-.25-1,1.9,1.9,0,0,1,.45-1.276,1.45,1.45,0,0,1,1.15-.525.94.94,0,0,1,1.075,1.051,1.411,1.411,0,0,1-.875,1.349l-.125.063-.125.062a.194.194,0,0,1-.075.026l-.075.024q0,.075.375.226a1.677,1.677,0,0,0,.65.125A1.846,1.846,0,0,0,513.1,68a19.006,19.006,0,0,0,.975-3.25q.15-.576.325-1.276t.262-1.075c.059-.25.1-.4.113-.45a6.109,6.109,0,0,0,.125-.975,1.345,1.345,0,0,0-.325-.95,1.168,1.168,0,0,0-.9-.349,2.61,2.61,0,0,0-1.95.862,4.734,4.734,0,0,0-1.15,1.987c-.034.151-.071.238-.112.263a1.218,1.218,0,0,1-.413.037Z" style="fill:#fff"/><path d="M524.045,51.049l.1-.026h.551c.116.1.35.3.7.6q4.5,4.1,4.5,11.9a19.732,19.732,0,0,1-.724,5.55,13.493,13.493,0,0,1-3.776,6.351c-.116.1-.25.212-.4.337s-.25.212-.3.262h-.3a.916.916,0,0,1-.386-.05c-.059-.033-.088-.117-.088-.25.016-.016.108-.125.275-.325q3.875-4.024,3.875-11.875T524.2,51.648c-.167-.2-.259-.307-.275-.325A.29.29,0,0,1,524.045,51.049Z" style="fill:#fff"/><path d="M539.9,63.5a23.425,23.425,0,0,1-1.525,8.774A15.678,15.678,0,0,1,534,78.5h-.324a1.142,1.142,0,0,1-.426-.051c-.066-.033-.1-.108-.1-.225a1.7,1.7,0,0,1,.3-.4q4.351-4.9,4.351-14.3,0-9.425-4.351-14.325a1.7,1.7,0,0,1-.3-.4c0-.134.034-.213.1-.238a1.492,1.492,0,0,1,.426-.038H534a15.873,15.873,0,0,1,4.363,6.238A23.223,23.223,0,0,1,539.9,63.5Z" style="fill:#fff"/></svg>