<svg xmlns="http://www.w3.org/2000/svg" width="720" height="120" viewBox="0 0 720 120"><rect width="720" height="120"/><path d="M206.44,33.141c.25-.017.533-.037.849-.063s.554-.046.713-.062.245-.025.263-.025c.2,0,.3.067.3.2q0,.175-1.838,7.562t-1.863,7.513a2.145,2.145,0,0,0-.025.375q0,1.05.7,1.05a1.067,1.067,0,0,0,.5-.225,5.658,5.658,0,0,0,1.026-2.4q.148-.5.25-.525a.745.745,0,0,1,.25-.025h.1q.476,0,.476.2a2.2,2.2,0,0,1-.075.4,6.532,6.532,0,0,1-1.351,2.9,2.477,2.477,0,0,1-.8.525,2.683,2.683,0,0,1-.6.05,2.257,2.257,0,0,1-2.2-1.225,2.041,2.041,0,0,0-.125-.3c-.016-.016-.049-.008-.1.025-.034.033-.068.066-.1.1a5.111,5.111,0,0,1-2.375,1.375,4.927,4.927,0,0,1-.625.025,3.315,3.315,0,0,1-2.724-1.375,4.863,4.863,0,0,1-.75-2.8,7.636,7.636,0,0,1,1.7-4.6,6.541,6.541,0,0,1,3.449-2.375,3.724,3.724,0,0,1,1.025-.15,2.394,2.394,0,0,1,2.1,1.05c.084.1.125.134.125.1q.025-.1.687-2.738t.688-2.762a.453.453,0,0,0-.149-.4,3.783,3.783,0,0,0-1-.125h-.526a.7.7,0,0,1-.162-.2,2.525,2.525,0,0,1,.063-.475c.083-.316.191-.475.325-.475.015,0,.1-.008.261-.025s.384-.033.676-.05Zm-2.151,9.05q-.549-1.975-1.875-1.975a2.309,2.309,0,0,0-1.763.85,5.943,5.943,0,0,0-1.162,1.95,19.98,19.98,0,0,0-1.025,4.1c0,.05,0,.142-.012.275s-.012.233-.012.3a2.461,2.461,0,0,0,.387,1.45,1.3,1.3,0,0,0,1.137.55q1.326,0,2.775-1.8l.2-.275q.224-.9.674-2.713T204.289,42.191Z" style="fill:#f8f8f8"/><path d="M199.327,64.128c.25-.017.533-.037.85-.062s.554-.046.713-.063.245-.024.262-.024c.2,0,.3.066.3.2q0,.175-1.838,7.562t-1.862,7.513a2.05,2.05,0,0,0-.025.375q0,1.05.7,1.05a1.075,1.075,0,0,0,.5-.225,5.673,5.673,0,0,0,1.025-2.4q.15-.5.25-.525a.745.745,0,0,1,.25-.025h.1c.316,0,.475.067.475.2a2.117,2.117,0,0,1-.075.4A6.522,6.522,0,0,1,199.6,81a2.472,2.472,0,0,1-.8.525,2.628,2.628,0,0,1-.6.05,2.256,2.256,0,0,1-2.2-1.224,2.035,2.035,0,0,0-.125-.3c-.017-.016-.05-.008-.1.025l-.1.1a5.111,5.111,0,0,1-2.375,1.375,4.95,4.95,0,0,1-.625.025,3.317,3.317,0,0,1-2.725-1.375,4.863,4.863,0,0,1-.75-2.8,7.645,7.645,0,0,1,1.7-4.6,6.547,6.547,0,0,1,3.45-2.375,3.718,3.718,0,0,1,1.025-.15,2.4,2.4,0,0,1,2.1,1.05c.084.1.125.134.125.1q.024-.1.687-2.737t.688-2.763a.452.452,0,0,0-.15-.4,3.77,3.77,0,0,0-1-.125H197.3a.683.683,0,0,1-.162-.2,2.458,2.458,0,0,1,.062-.474c.083-.317.192-.476.325-.476.016,0,.1-.008.262-.024s.384-.034.676-.051Zm-2.15,9.05Q196.628,71.2,195.3,71.2a2.309,2.309,0,0,0-1.763.85A5.937,5.937,0,0,0,192.377,74a19.989,19.989,0,0,0-1.025,4.1c0,.049,0,.141-.012.274s-.013.233-.013.3a2.461,2.461,0,0,0,.388,1.45,1.3,1.3,0,0,0,1.137.55q1.325,0,2.775-1.8l.2-.274q.225-.9.675-2.713T197.177,73.178Z" style="fill:#f8f8f8"/><path d="M202.827,74.378a.415.415,0,0,1-.15-.274,4.743,4.743,0,0,1,.775-1.726,4.289,4.289,0,0,1,2.95-2.05,4.142,4.142,0,0,1,.525-.05,3.027,3.027,0,0,1,1.612.451,2.678,2.678,0,0,1,1.063,1.125c.216-.284.35-.459.4-.526a2.769,2.769,0,0,1,2.125-1.05,2.361,2.361,0,0,1,1.662.587,1.88,1.88,0,0,1,.638,1.438,1.965,1.965,0,0,1-.438,1.3,1.438,1.438,0,0,1-1.162.524,1.1,1.1,0,0,1-.775-.274.94.94,0,0,1-.3-.726A1.589,1.589,0,0,1,213,71.553a1.06,1.06,0,0,0-.275-.175,1.426,1.426,0,0,0-.725-.149,1.651,1.651,0,0,0-.475.049,2.62,2.62,0,0,0-1.4,1.65q-.075.2-.725,2.788t-.7,2.912a3.816,3.816,0,0,0-.075.75,1.281,1.281,0,0,0,.35.95,1.248,1.248,0,0,0,.925.35,2.579,2.579,0,0,0,1.9-.887,4.621,4.621,0,0,0,1.15-1.963c.05-.166.1-.262.15-.287a1.208,1.208,0,0,1,.4-.038c.316,0,.475.067.475.2,0,.017-.017.109-.05.276a5.429,5.429,0,0,1-1.75,2.7,3.943,3.943,0,0,1-2.475.926,2.881,2.881,0,0,1-2.65-1.576,3.5,3.5,0,0,1-1.85,1.5,3.149,3.149,0,0,1-.65.05,2.18,2.18,0,0,1-2.05-1.025,1.931,1.931,0,0,1-.25-1,1.892,1.892,0,0,1,.45-1.275,1.447,1.447,0,0,1,1.15-.525.94.94,0,0,1,1.075,1.05,1.411,1.411,0,0,1-.875,1.35l-.125.063-.125.062a.188.188,0,0,1-.075.025l-.075.025q0,.075.375.225a1.659,1.659,0,0,0,.65.125,1.846,1.846,0,0,0,1.55-1.125,18.938,18.938,0,0,0,.975-3.25q.15-.575.325-1.275t.262-1.075c.059-.25.1-.4.113-.45a6.122,6.122,0,0,0,.125-.975,1.345,1.345,0,0,0-.325-.95,1.168,1.168,0,0,0-.9-.349,2.61,2.61,0,0,0-1.95.862,4.734,4.734,0,0,0-1.15,1.987c-.034.151-.071.238-.112.263a1.247,1.247,0,0,1-.413.037Z" style="fill:#f8f8f8"/><rect x="184.027" y="57.291" width="36" height="1.5" rx="0.75" style="fill:#f8f8f8"/><path d="M431.869,29.141c.25-.017.533-.037.85-.063s.554-.046.713-.062.245-.025.262-.025c.2,0,.3.067.3.2q0,.176-1.838,7.562t-1.862,7.513a2.05,2.05,0,0,0-.025.375q0,1.05.7,1.05a1.075,1.075,0,0,0,.5-.225,5.673,5.673,0,0,0,1.025-2.4q.15-.5.25-.525a.745.745,0,0,1,.25-.025h.1c.316,0,.475.067.475.2a2.111,2.111,0,0,1-.075.4,6.521,6.521,0,0,1-1.35,2.9,2.488,2.488,0,0,1-.8.525,2.687,2.687,0,0,1-.6.05,2.256,2.256,0,0,1-2.2-1.225,2.041,2.041,0,0,0-.125-.3c-.017-.016-.05-.008-.1.025l-.1.1a5.111,5.111,0,0,1-2.375,1.375,4.95,4.95,0,0,1-.625.025,3.317,3.317,0,0,1-2.725-1.375,4.863,4.863,0,0,1-.75-2.8,7.643,7.643,0,0,1,1.7-4.6,6.547,6.547,0,0,1,3.45-2.375,3.718,3.718,0,0,1,1.025-.15,2.4,2.4,0,0,1,2.1,1.05c.084.1.125.134.125.1q.024-.1.687-2.738t.688-2.762a.45.45,0,0,0-.15-.4,3.77,3.77,0,0,0-1-.125h-.525a.683.683,0,0,1-.162-.2,2.472,2.472,0,0,1,.062-.475c.083-.316.192-.475.325-.475.016,0,.1-.008.262-.025s.384-.033.676-.05Zm-2.15,9.05q-.549-1.975-1.875-1.975a2.309,2.309,0,0,0-1.763.85,5.926,5.926,0,0,0-1.162,1.95,19.98,19.98,0,0,0-1.025,4.1c0,.05,0,.142-.012.275s-.013.233-.013.3a2.461,2.461,0,0,0,.388,1.45,1.3,1.3,0,0,0,1.137.55q1.324,0,2.775-1.8l.2-.275q.225-.9.675-2.713T429.719,38.191Z" style="fill:#58c4dd"/><path d="M435.769,48.116a1.065,1.065,0,0,1,.75.275.936.936,0,0,1,.3.725,1.53,1.53,0,0,1-.5,1.15c-.117.116-.159.175-.125.175a8.052,8.052,0,0,0,1.5.075,3.152,3.152,0,0,0,1.5-.3,3.442,3.442,0,0,0,1.075-.838,3.358,3.358,0,0,0,.7-1.162c.1-.316.233-.834.4-1.55a10,10,0,0,0,.325-1.4,4.975,4.975,0,0,1-2,1.025,3.84,3.84,0,0,1-.625.05,3.14,3.14,0,0,1-2.562-1.138,4.349,4.349,0,0,1-.938-2.862,6.684,6.684,0,0,1,.725-3.025,7.212,7.212,0,0,1,3.3-3.475,5.059,5.059,0,0,1,2.175-.55,2.894,2.894,0,0,1,2.175,1.2.749.749,0,0,0,.1-.125,1.149,1.149,0,0,1,1.05-.575.9.9,0,0,1,.575.2.617.617,0,0,1,.25.5q0,.375-1.425,6.05t-1.5,5.8a4.277,4.277,0,0,1-1.963,2.237,6.383,6.383,0,0,1-3.337.888q-2.876,0-3.4-1.1a1.228,1.228,0,0,1-.125-.6,1.667,1.667,0,0,1,.45-1.15A1.475,1.475,0,0,1,435.769,48.116Zm7.75-9.975a5.83,5.83,0,0,0-.387-1,1.907,1.907,0,0,0-.588-.638,1.632,1.632,0,0,0-.975-.287,1.5,1.5,0,0,0-.163.013c-.075.008-.121.012-.137.012a3.183,3.183,0,0,0-1.825,1.3,10.167,10.167,0,0,0-1.325,3.375,11.565,11.565,0,0,0-.425,2.5q0,1.975,1.55,1.975a3.61,3.61,0,0,0,2.75-1.75l.2-.25Q443.094,39.892,443.519,38.141Z" style="fill:#58c4dd"/><path d="M431.758,62.128c.25-.017.533-.037.849-.062s.554-.046.713-.063.245-.024.263-.024c.2,0,.3.066.3.2q0,.176-1.838,7.562t-1.862,7.513a2.032,2.032,0,0,0-.026.375q0,1.05.7,1.05a1.067,1.067,0,0,0,.5-.225,5.658,5.658,0,0,0,1.026-2.4q.149-.5.25-.525a.745.745,0,0,1,.25-.025h.1q.475,0,.476.2a2.117,2.117,0,0,1-.075.4,6.521,6.521,0,0,1-1.351,2.9,2.461,2.461,0,0,1-.8.525,2.618,2.618,0,0,1-.6.05,2.256,2.256,0,0,1-2.2-1.224,2.035,2.035,0,0,0-.125-.3c-.017-.016-.05-.008-.1.025l-.1.1a5.1,5.1,0,0,1-2.375,1.375,4.927,4.927,0,0,1-.625.025,3.316,3.316,0,0,1-2.724-1.375,4.863,4.863,0,0,1-.75-2.8,7.639,7.639,0,0,1,1.7-4.6,6.545,6.545,0,0,1,3.449-2.375,3.731,3.731,0,0,1,1.026-.15,2.392,2.392,0,0,1,2.1,1.05c.084.1.125.134.125.1l.688-2.737q.661-2.637.687-2.763a.454.454,0,0,0-.149-.4,3.783,3.783,0,0,0-1-.125h-.526a.7.7,0,0,1-.162-.2,2.612,2.612,0,0,1,.063-.474q.125-.475.325-.476c.016,0,.1-.008.262-.024s.384-.034.676-.051Zm-2.151,9.05q-.549-1.975-1.875-1.975a2.307,2.307,0,0,0-1.762.85A5.919,5.919,0,0,0,424.808,72a19.927,19.927,0,0,0-1.026,4.1c0,.049,0,.141-.011.274s-.013.233-.013.3a2.461,2.461,0,0,0,.388,1.45,1.3,1.3,0,0,0,1.136.55q1.326,0,2.776-1.8l.2-.274q.224-.9.675-2.713T429.607,71.178Z" style="fill:#58c4dd"/><path d="M435.258,72.378a.413.413,0,0,1-.151-.274,4.765,4.765,0,0,1,.776-1.726,4.287,4.287,0,0,1,2.95-2.05,4.114,4.114,0,0,1,.524-.05,3.031,3.031,0,0,1,1.613.451,2.675,2.675,0,0,1,1.062,1.125q.326-.426.4-.526a2.769,2.769,0,0,1,2.125-1.05,2.363,2.363,0,0,1,1.662.587,1.879,1.879,0,0,1,.637,1.438,1.964,1.964,0,0,1-.437,1.3,1.439,1.439,0,0,1-1.162.524,1.1,1.1,0,0,1-.776-.274.939.939,0,0,1-.3-.726,1.589,1.589,0,0,1,1.25-1.575,1.056,1.056,0,0,0-.276-.175,1.422,1.422,0,0,0-.724-.149,1.651,1.651,0,0,0-.475.049,2.615,2.615,0,0,0-1.4,1.65q-.075.2-.725,2.788t-.7,2.912a3.816,3.816,0,0,0-.075.75,1.284,1.284,0,0,0,.349.95,1.25,1.25,0,0,0,.926.35,2.577,2.577,0,0,0,1.9-.887,4.613,4.613,0,0,0,1.151-1.963c.05-.166.1-.262.149-.287a1.22,1.22,0,0,1,.4-.038q.474,0,.474.2c0,.017-.016.109-.05.276a5.429,5.429,0,0,1-1.75,2.7,3.941,3.941,0,0,1-2.474.926,2.883,2.883,0,0,1-2.651-1.576,3.5,3.5,0,0,1-1.849,1.5,3.16,3.16,0,0,1-.651.05,2.18,2.18,0,0,1-2.049-1.025,1.931,1.931,0,0,1-.25-1,1.892,1.892,0,0,1,.45-1.275,1.445,1.445,0,0,1,1.149-.525.94.94,0,0,1,1.075,1.05,1.411,1.411,0,0,1-.875,1.35l-.125.063-.125.062a.183.183,0,0,1-.075.025l-.074.025q0,.075.375.225a1.654,1.654,0,0,0,.649.125,1.844,1.844,0,0,0,1.55-1.125,18.8,18.8,0,0,0,.976-3.25q.149-.575.325-1.275t.262-1.075c.058-.25.095-.4.113-.45a6.122,6.122,0,0,0,.125-.975,1.345,1.345,0,0,0-.325-.95,1.17,1.17,0,0,0-.9-.349,2.612,2.612,0,0,0-1.95.862,4.732,4.732,0,0,0-1.149,1.987c-.034.151-.071.238-.112.263a1.251,1.251,0,0,1-.414.037Z" style="fill:#58c4dd"/><rect x="416.457" y="55.291" width="36" height="1.5" rx="0.75" style="fill:#58c4dd"/><path d="M515.386,29.141c.25-.017.533-.037.849-.063s.554-.046.713-.062.245-.025.263-.025c.2,0,.3.067.3.2q0,.176-1.838,7.562t-1.862,7.513a2.032,2.032,0,0,0-.026.375q0,1.05.7,1.05a1.067,1.067,0,0,0,.5-.225,5.658,5.658,0,0,0,1.026-2.4q.149-.5.25-.525a.745.745,0,0,1,.25-.025h.1q.476,0,.476.2a2.111,2.111,0,0,1-.075.4,6.521,6.521,0,0,1-1.351,2.9,2.477,2.477,0,0,1-.8.525,2.677,2.677,0,0,1-.6.05,2.256,2.256,0,0,1-2.2-1.225,2.041,2.041,0,0,0-.125-.3c-.017-.016-.05-.008-.1.025l-.1.1a5.1,5.1,0,0,1-2.375,1.375,4.927,4.927,0,0,1-.625.025,3.316,3.316,0,0,1-2.724-1.375,4.863,4.863,0,0,1-.75-2.8,7.636,7.636,0,0,1,1.7-4.6,6.545,6.545,0,0,1,3.449-2.375,3.731,3.731,0,0,1,1.026-.15,2.392,2.392,0,0,1,2.1,1.05c.084.1.125.134.125.1l.688-2.738q.662-2.637.687-2.762a.453.453,0,0,0-.149-.4,3.783,3.783,0,0,0-1-.125h-.526a.7.7,0,0,1-.162-.2,2.627,2.627,0,0,1,.063-.475c.083-.316.191-.475.325-.475.016,0,.1-.008.262-.025s.383-.033.675-.05Zm-2.151,9.05q-.549-1.975-1.875-1.975a2.306,2.306,0,0,0-1.762.85,5.909,5.909,0,0,0-1.162,1.95,19.918,19.918,0,0,0-1.026,4.1c0,.05,0,.142-.012.275s-.012.233-.012.3a2.468,2.468,0,0,0,.387,1.45,1.3,1.3,0,0,0,1.137.55q1.326,0,2.776-1.8l.2-.275q.223-.9.675-2.713T513.235,38.191Z" style="fill:#83c167"/><path d="M527.785,46.591a2.239,2.239,0,0,1-1.6-.588,1.979,1.979,0,0,1-.625-1.512,3.523,3.523,0,0,1,.25-1.1,29.432,29.432,0,0,0,1.5-4.725,5.055,5.055,0,0,0,.075-.95q0-1.475-1.226-1.475a2.987,2.987,0,0,0-.649.05,4.754,4.754,0,0,0-2.95,2.4l-.175.325-.851,3.375q-.8,3.251-.925,3.55a1.127,1.127,0,0,1-1.1.675,1.063,1.063,0,0,1-.588-.187.562.562,0,0,1-.287-.488q0-.3,3.675-15a.448.448,0,0,0-.151-.4,3.77,3.77,0,0,0-1-.125h-.524a.675.675,0,0,1-.163-.2,2.57,2.57,0,0,1,.062-.475c.084-.316.192-.475.325-.475q.025,0,1.813-.138t1.812-.137c.2,0,.3.075.3.225q0,.276-.9,3.775-.951,3.7-.95,3.775c0,.034.058-.008.174-.125a4.714,4.714,0,0,1,3.25-1.35,3.37,3.37,0,0,1,2.2.675,2.406,2.406,0,0,1,.825,1.975,5.062,5.062,0,0,1-.075.95,31.481,31.481,0,0,1-1.375,4.425,5.986,5.986,0,0,0-.451,1.775.919.919,0,0,0,.125.475.459.459,0,0,0,.375.125,1.711,1.711,0,0,0,1.313-.762,5.613,5.613,0,0,0,.963-2.038.644.644,0,0,1,.149-.325.926.926,0,0,1,.4-.05q.474.075.5.2c0,.017-.034.142-.1.375a5.737,5.737,0,0,1-1.275,2.425A2.63,2.63,0,0,1,527.785,46.591Z" style="fill:#83c167"/><path d="M515.273,62.128c.25-.017.534-.037.85-.062s.554-.046.713-.063.245-.024.263-.024c.2,0,.3.066.3.2q0,.176-1.837,7.562T513.7,77.253a2.145,2.145,0,0,0-.025.375q0,1.05.7,1.05a1.071,1.071,0,0,0,.5-.225,5.647,5.647,0,0,0,1.025-2.4q.15-.5.25-.525a.754.754,0,0,1,.25-.025h.1q.476,0,.476.2a2.148,2.148,0,0,1-.076.4,6.522,6.522,0,0,1-1.35,2.9,2.461,2.461,0,0,1-.8.525,2.628,2.628,0,0,1-.6.05,2.257,2.257,0,0,1-2.2-1.224,2.035,2.035,0,0,0-.125-.3c-.016-.016-.05-.008-.1.025l-.1.1a5.111,5.111,0,0,1-2.375,1.375,4.938,4.938,0,0,1-.625.025A3.317,3.317,0,0,1,505.9,78.2a4.863,4.863,0,0,1-.75-2.8,7.64,7.64,0,0,1,1.7-4.6,6.541,6.541,0,0,1,3.449-2.375,3.718,3.718,0,0,1,1.025-.15,2.394,2.394,0,0,1,2.1,1.05c.084.1.125.134.125.1q.026-.1.687-2.737t.688-2.763a.452.452,0,0,0-.15-.4,3.77,3.77,0,0,0-1-.125h-.525a.683.683,0,0,1-.162-.2,2.555,2.555,0,0,1,.062-.474q.125-.475.326-.476c.015,0,.1-.008.261-.024s.384-.034.676-.051Zm-2.15,9.05q-.549-1.975-1.875-1.975a2.309,2.309,0,0,0-1.763.85A5.954,5.954,0,0,0,508.323,72a19.989,19.989,0,0,0-1.025,4.1c0,.049,0,.141-.012.274s-.013.233-.013.3a2.461,2.461,0,0,0,.388,1.45,1.3,1.3,0,0,0,1.137.55q1.326,0,2.775-1.8l.2-.274q.225-.9.675-2.713T513.123,71.178Z" style="fill:#83c167"/><path d="M518.773,72.378a.415.415,0,0,1-.15-.274,4.76,4.76,0,0,1,.775-1.726,4.291,4.291,0,0,1,2.951-2.05,4.114,4.114,0,0,1,.524-.05,3.027,3.027,0,0,1,1.612.451,2.672,2.672,0,0,1,1.063,1.125q.325-.426.4-.526a2.77,2.77,0,0,1,2.125-1.05,2.36,2.36,0,0,1,1.662.587,1.88,1.88,0,0,1,.638,1.438,1.964,1.964,0,0,1-.437,1.3,1.44,1.44,0,0,1-1.163.524,1.1,1.1,0,0,1-.775-.274.94.94,0,0,1-.3-.726,1.589,1.589,0,0,1,1.25-1.575,1.06,1.06,0,0,0-.275-.175,1.424,1.424,0,0,0-.725-.149,1.638,1.638,0,0,0-.474.049,2.619,2.619,0,0,0-1.4,1.65q-.075.2-.724,2.788t-.7,2.912a3.893,3.893,0,0,0-.075.75,1.284,1.284,0,0,0,.35.95,1.249,1.249,0,0,0,.926.35,2.577,2.577,0,0,0,1.9-.887,4.61,4.61,0,0,0,1.15-1.963c.05-.166.1-.262.15-.287a1.212,1.212,0,0,1,.4-.038q.476,0,.475.2c0,.017-.017.109-.05.276a5.429,5.429,0,0,1-1.75,2.7,3.941,3.941,0,0,1-2.475.926A2.882,2.882,0,0,1,523,78.028a3.5,3.5,0,0,1-1.85,1.5,3.149,3.149,0,0,1-.65.05,2.181,2.181,0,0,1-2.05-1.025,1.931,1.931,0,0,1-.25-1,1.9,1.9,0,0,1,.45-1.275,1.447,1.447,0,0,1,1.15-.525.94.94,0,0,1,1.075,1.05,1.411,1.411,0,0,1-.875,1.35l-.125.063-.125.062a.183.183,0,0,1-.075.025l-.074.025q0,.075.375.225a1.654,1.654,0,0,0,.649.125,1.845,1.845,0,0,0,1.55-1.125,18.838,18.838,0,0,0,.975-3.25q.15-.575.326-1.275t.261-1.075c.059-.25.1-.4.114-.45a6.122,6.122,0,0,0,.125-.975,1.346,1.346,0,0,0-.326-.95,1.166,1.166,0,0,0-.9-.349,2.612,2.612,0,0,0-1.95.862,4.734,4.734,0,0,0-1.15,1.987c-.034.151-.071.238-.112.263a1.247,1.247,0,0,1-.413.037Z" style="fill:#83c167"/><rect x="499.973" y="55.291" width="36" height="1.5" rx="0.75" style="fill:#83c167"/><path d="M237.884,78.834c0,.05-.051.125-.151.225h-.7a21.642,21.642,0,0,1-4.45-5.313,26.934,26.934,0,0,1-2.925-6.887,38.306,38.306,0,0,1-1.3-10.275,38.756,38.756,0,0,1,1.3-10.3,23.906,23.906,0,0,1,7.375-12.2h.7c.1.1.151.175.151.225,0,.067-.11.216-.325.45q-.75.825-1.55,1.825-4.326,5.85-5.151,15.125a48.5,48.5,0,0,0-.2,4.85q0,2.949.2,4.875.95,10.751,6.7,16.95C237.774,78.617,237.884,78.768,237.884,78.834Z" style="fill:#f8f8f8"/><path d="M240.633,64.609a1.061,1.061,0,0,1,.75.275.937.937,0,0,1,.3.725,1.53,1.53,0,0,1-.5,1.15c-.118.116-.16.175-.125.175a8.052,8.052,0,0,0,1.5.075,3.158,3.158,0,0,0,1.5-.3,3.45,3.45,0,0,0,1.074-.838,3.358,3.358,0,0,0,.7-1.162c.1-.316.233-.834.4-1.55a10.085,10.085,0,0,0,.326-1.4,4.988,4.988,0,0,1-2,1.025,3.859,3.859,0,0,1-.625.05,3.142,3.142,0,0,1-2.563-1.138,4.347,4.347,0,0,1-.937-2.862,6.682,6.682,0,0,1,.724-3.025,7.212,7.212,0,0,1,3.3-3.475,5.063,5.063,0,0,1,2.175-.55,2.9,2.9,0,0,1,2.176,1.2.8.8,0,0,0,.1-.125,1.151,1.151,0,0,1,1.05-.575.9.9,0,0,1,.575.2.617.617,0,0,1,.25.5q0,.375-1.425,6.05t-1.5,5.8a4.276,4.276,0,0,1-1.962,2.237,6.388,6.388,0,0,1-3.337.888q-2.876,0-3.4-1.1a1.228,1.228,0,0,1-.125-.6,1.671,1.671,0,0,1,.45-1.15A1.475,1.475,0,0,1,240.633,64.609Zm7.75-9.975a5.83,5.83,0,0,0-.387-1,1.917,1.917,0,0,0-.588-.638,1.629,1.629,0,0,0-.974-.287,1.487,1.487,0,0,0-.163.013c-.076.009-.122.012-.138.012a3.181,3.181,0,0,0-1.824,1.3,10.142,10.142,0,0,0-1.326,3.375,11.548,11.548,0,0,0-.424,2.5q0,1.976,1.549,1.975a3.607,3.607,0,0,0,2.75-1.75l.2-.25Q247.957,56.385,248.383,54.634Z" style="fill:#58c4dd"/><path d="M259.033,68.859q0,.225-.45.225h-.325l-.7-.6q-4.5-4.1-4.5-11.9a20.171,20.171,0,0,1,.725-5.575,13.489,13.489,0,0,1,3.775-6.325q.176-.15.4-.337c.15-.125.25-.213.3-.263h.325a.593.593,0,0,1,.375.075.216.216,0,0,1,.075.15q0,.1-.275.375-3.874,4.1-3.875,11.9t3.875,11.9Q259.032,68.759,259.033,68.859Z" style="fill:#58c4dd"/><path d="M261.883,55.884a.415.415,0,0,1-.151-.275,4.77,4.77,0,0,1,.776-1.725,4.287,4.287,0,0,1,2.95-2.05,4.114,4.114,0,0,1,.524-.05,3.039,3.039,0,0,1,1.613.45,2.687,2.687,0,0,1,1.062,1.125c.217-.283.351-.459.4-.525a2.769,2.769,0,0,1,2.125-1.05,2.363,2.363,0,0,1,1.662.587,1.879,1.879,0,0,1,.637,1.438,1.96,1.96,0,0,1-.437,1.3,1.437,1.437,0,0,1-1.162.525,1.1,1.1,0,0,1-.776-.275.936.936,0,0,1-.3-.725,1.589,1.589,0,0,1,1.25-1.575,1.025,1.025,0,0,0-.276-.175,1.421,1.421,0,0,0-.724-.15,1.643,1.643,0,0,0-.475.05,2.615,2.615,0,0,0-1.4,1.65q-.075.2-.725,2.788t-.7,2.912a3.816,3.816,0,0,0-.075.75,1.284,1.284,0,0,0,.349.95,1.254,1.254,0,0,0,.926.35,2.577,2.577,0,0,0,1.9-.887,4.613,4.613,0,0,0,1.151-1.963c.05-.166.1-.263.149-.287a1.22,1.22,0,0,1,.4-.038q.474,0,.474.2c0,.017-.016.108-.05.275a5.427,5.427,0,0,1-1.75,2.7,3.939,3.939,0,0,1-2.474.925,2.883,2.883,0,0,1-2.651-1.575,3.5,3.5,0,0,1-1.849,1.5,3.233,3.233,0,0,1-.651.05,2.18,2.18,0,0,1-2.049-1.025,1.936,1.936,0,0,1-.25-1,1.892,1.892,0,0,1,.45-1.275,1.445,1.445,0,0,1,1.149-.525.939.939,0,0,1,1.075,1.05,1.411,1.411,0,0,1-.875,1.35l-.125.063-.125.062a.183.183,0,0,1-.075.025l-.074.025q0,.075.375.225a1.654,1.654,0,0,0,.649.125,1.844,1.844,0,0,0,1.55-1.125,18.8,18.8,0,0,0,.976-3.25q.149-.574.325-1.275t.262-1.075c.058-.25.095-.4.113-.45a6.136,6.136,0,0,0,.125-.975,1.344,1.344,0,0,0-.325-.95,1.171,1.171,0,0,0-.9-.35,2.613,2.613,0,0,0-1.95.863,4.732,4.732,0,0,0-1.149,1.987c-.034.15-.071.237-.112.263a1.251,1.251,0,0,1-.414.037Z" style="fill:#58c4dd"/><path d="M276.232,44.109l.1-.025h.551l.7.6q4.5,4.1,4.5,11.9a19.7,19.7,0,0,1-.725,5.55,13.476,13.476,0,0,1-3.775,6.35c-.116.1-.25.212-.4.337s-.25.213-.3.263h-.3a.942.942,0,0,1-.387-.05c-.058-.034-.088-.117-.088-.25.017-.016.109-.125.276-.325q3.875-4.026,3.875-11.875t-3.875-11.875c-.167-.2-.259-.309-.276-.325A.293.293,0,0,1,276.232,44.109Z" style="fill:#58c4dd"/><path d="M292.107,56.584a.545.545,0,0,1,.35-.5h7.475v-3.75l.025-3.75c.166-.217.325-.325.475-.325a.548.548,0,0,1,.5.375v7.45h7.45a.521.521,0,0,1,0,1h-7.45v7.45a.532.532,0,0,1-1,0v-7.45h-7.475A.544.544,0,0,1,292.107,56.584Z" style="fill:#fff"/><path d="M326.757,63.084a2.24,2.24,0,0,1-1.6-.588,1.978,1.978,0,0,1-.625-1.512,3.523,3.523,0,0,1,.25-1.1,29.432,29.432,0,0,0,1.5-4.725,4.972,4.972,0,0,0,.075-.95q0-1.475-1.225-1.475a3,3,0,0,0-.65.05,4.757,4.757,0,0,0-2.95,2.4l-.175.325-.85,3.375q-.8,3.251-.925,3.55a1.129,1.129,0,0,1-1.1.675,1.06,1.06,0,0,1-.587-.187.563.563,0,0,1-.288-.488q0-.3,3.675-15a.45.45,0,0,0-.15-.4,3.783,3.783,0,0,0-1-.125h-.525a.713.713,0,0,1-.163-.2,2.738,2.738,0,0,1,.063-.475c.084-.316.191-.475.325-.475q.025,0,1.813-.138t1.812-.137q.3,0,.3.225,0,.276-.9,3.775-.95,3.7-.95,3.775c0,.034.059-.008.175-.125a4.711,4.711,0,0,1,3.25-1.35,3.367,3.367,0,0,1,2.2.675,2.4,2.4,0,0,1,.825,1.975,4.979,4.979,0,0,1-.075.95,31.2,31.2,0,0,1-1.375,4.425,5.975,5.975,0,0,0-.45,1.775.919.919,0,0,0,.125.475.457.457,0,0,0,.375.125,1.713,1.713,0,0,0,1.313-.762,5.6,5.6,0,0,0,.962-2.038.643.643,0,0,1,.15-.325.92.92,0,0,1,.4-.05q.476.075.5.2,0,.025-.1.375a5.738,5.738,0,0,1-1.276,2.425A2.627,2.627,0,0,1,326.757,63.084Z" style="fill:#83c167"/><path d="M339.132,68.859c0,.15-.151.225-.45.225h-.326l-.7-.6q-4.5-4.1-4.5-11.9a20.133,20.133,0,0,1,.726-5.575,13.48,13.48,0,0,1,3.774-6.325c.117-.1.25-.212.4-.337s.25-.213.3-.263h.326a.593.593,0,0,1,.375.075.22.22,0,0,1,.075.15q0,.1-.276.375-3.874,4.1-3.875,11.9t3.875,11.9Q339.132,68.759,339.132,68.859Z" style="fill:#83c167"/><path d="M341.981,55.884a.417.417,0,0,1-.15-.275,4.764,4.764,0,0,1,.775-1.725,4.291,4.291,0,0,1,2.951-2.05,4.114,4.114,0,0,1,.524-.05,3.035,3.035,0,0,1,1.612.45,2.683,2.683,0,0,1,1.063,1.125c.217-.283.35-.459.4-.525a2.77,2.77,0,0,1,2.125-1.05,2.36,2.36,0,0,1,1.662.587,1.88,1.88,0,0,1,.638,1.438,1.96,1.96,0,0,1-.437,1.3,1.438,1.438,0,0,1-1.163.525,1.1,1.1,0,0,1-.775-.275.936.936,0,0,1-.3-.725,1.589,1.589,0,0,1,1.25-1.575,1.007,1.007,0,0,0-.275-.175,1.423,1.423,0,0,0-.725-.15,1.635,1.635,0,0,0-.474.05,2.619,2.619,0,0,0-1.4,1.65q-.075.2-.724,2.788t-.7,2.912a3.893,3.893,0,0,0-.075.75,1.284,1.284,0,0,0,.35.95,1.253,1.253,0,0,0,.926.35,2.577,2.577,0,0,0,1.9-.887,4.61,4.61,0,0,0,1.15-1.963c.05-.166.1-.263.15-.287a1.217,1.217,0,0,1,.4-.038q.476,0,.475.2c0,.017-.017.108-.05.275a5.427,5.427,0,0,1-1.75,2.7,3.94,3.94,0,0,1-2.475.925,2.882,2.882,0,0,1-2.65-1.575,3.5,3.5,0,0,1-1.85,1.5,3.222,3.222,0,0,1-.65.05,2.181,2.181,0,0,1-2.05-1.025,1.936,1.936,0,0,1-.25-1,1.9,1.9,0,0,1,.45-1.275,1.447,1.447,0,0,1,1.15-.525.939.939,0,0,1,1.075,1.05,1.411,1.411,0,0,1-.875,1.35l-.125.063-.125.062a.183.183,0,0,1-.075.025l-.074.025q0,.075.375.225a1.654,1.654,0,0,0,.649.125,1.845,1.845,0,0,0,1.55-1.125,18.74,18.74,0,0,0,.975-3.25q.15-.574.326-1.275t.261-1.075c.059-.25.1-.4.114-.45a6.136,6.136,0,0,0,.125-.975,1.344,1.344,0,0,0-.326-.95,1.167,1.167,0,0,0-.9-.35,2.613,2.613,0,0,0-1.95.863,4.734,4.734,0,0,0-1.15,1.987c-.034.15-.071.237-.112.263a1.243,1.243,0,0,1-.413.037Z" style="fill:#83c167"/><path d="M356.331,44.109l.1-.025h.55l.7.6q4.5,4.1,4.5,11.9a19.7,19.7,0,0,1-.725,5.55,13.476,13.476,0,0,1-3.775,6.35c-.116.1-.25.212-.4.337s-.25.213-.3.263h-.3a.939.939,0,0,1-.387-.05c-.059-.034-.088-.117-.088-.25.017-.016.109-.125.275-.325q3.876-4.026,3.875-11.875t-3.875-11.875c-.166-.2-.258-.309-.275-.325A.293.293,0,0,1,356.331,44.109Z" style="fill:#83c167"/><path d="M365.432,34.384c0-.133.033-.216.1-.25a1.152,1.152,0,0,1,.426-.05h.324a21.62,21.62,0,0,1,4.45,5.313,26.884,26.884,0,0,1,2.925,6.887,38.359,38.359,0,0,1,1.3,10.3,38.616,38.616,0,0,1-1.3,10.275,23.882,23.882,0,0,1-7.375,12.2h-.324a1.126,1.126,0,0,1-.437-.05c-.059-.033-.088-.116-.088-.25.016-.017.125-.142.325-.375q5.749-6.2,6.7-16.95.2-1.926.2-4.875a48.536,48.536,0,0,0-.2-4.85q-.827-9.276-5.15-15.125-.8-1.026-1.55-1.825C365.557,34.525,365.448,34.4,365.432,34.384Z" style="fill:#f8f8f8"/><path d="M387.131,54.159a.543.543,0,0,1,.35-.5h15.924a.546.546,0,0,1,.375.5.565.565,0,0,1-.349.475l-7.95.025H387.53A.5.5,0,0,1,387.131,54.159Zm0,4.85a.5.5,0,0,1,.4-.5h15.9a1.03,1.03,0,0,0,.112.088,1.174,1.174,0,0,1,.125.1.439.439,0,0,1,.075.125.474.474,0,0,1,.037.188.546.546,0,0,1-.375.5H387.481A.543.543,0,0,1,387.131,59.009Z" style="fill:#f8f8f8"/><path d="M468.37,56.584a.544.544,0,0,1,.35-.5h7.474v-3.75l.026-3.75c.166-.217.325-.325.474-.325a.546.546,0,0,1,.5.375v7.45h7.451a.521.521,0,0,1,0,1h-7.451v7.45a.532.532,0,0,1-1,0v-7.45H468.72A.543.543,0,0,1,468.37,56.584Z" style="fill:#fff"/></svg>