<svg xmlns="http://www.w3.org/2000/svg" width="720" height="720" viewBox="0 0 720 720">
  <rect width="720" height="720"/>
  <g>
    <g>
      <g style="opacity: 0.2">
        <line x1="103.5" y1="90" x2="103.5" y2="630" style="fill: none;stroke: #fff;stroke-miterlimit: 54"/>
        <line x1="117" y1="90" x2="117" y2="630" style="fill: none;stroke: #fff;stroke-miterlimit: 54"/>
        <line x1="130.5" y1="90" x2="130.5" y2="630" style="fill: none;stroke: #fff;stroke-miterlimit: 54"/>
        <line x1="144" y1="90" x2="144" y2="630" style="fill: none;stroke: #fff;stroke-miterlimit: 54"/>
        <line x1="171" y1="90" x2="171" y2="630" style="fill: none;stroke: #fff;stroke-miterlimit: 54"/>
        <line x1="184.5" y1="90" x2="184.5" y2="630" style="fill: none;stroke: #fff;stroke-miterlimit: 54"/>
        <line x1="198" y1="90" x2="198" y2="630" style="fill: none;stroke: #fff;stroke-miterlimit: 54"/>
        <line x1="211.5" y1="90" x2="211.5" y2="630" style="fill: none;stroke: #fff;stroke-miterlimit: 54"/>
        <line x1="238.5" y1="90" x2="238.5" y2="630" style="fill: none;stroke: #fff;stroke-miterlimit: 54"/>
        <line x1="252" y1="90" x2="252" y2="630" style="fill: none;stroke: #fff;stroke-miterlimit: 54"/>
        <line x1="265.5" y1="90" x2="265.5" y2="630" style="fill: none;stroke: #fff;stroke-miterlimit: 54"/>
        <line x1="279" y1="90" x2="279" y2="630" style="fill: none;stroke: #fff;stroke-miterlimit: 54"/>
        <line x1="306" y1="90" x2="306" y2="630" style="fill: none;stroke: #fff;stroke-miterlimit: 54"/>
        <line x1="319.5" y1="90" x2="319.5" y2="630" style="fill: none;stroke: #fff;stroke-miterlimit: 54"/>
        <line x1="333" y1="90" x2="333" y2="630" style="fill: none;stroke: #fff;stroke-miterlimit: 54"/>
        <line x1="346.5" y1="90" x2="346.5" y2="630" style="fill: none;stroke: #fff;stroke-miterlimit: 54"/>
        <line x1="373.5" y1="90" x2="373.5" y2="630" style="fill: none;stroke: #fff;stroke-miterlimit: 54"/>
        <line x1="387" y1="90" x2="387" y2="630" style="fill: none;stroke: #fff;stroke-miterlimit: 54"/>
        <line x1="400.5" y1="90" x2="400.5" y2="630" style="fill: none;stroke: #fff;stroke-miterlimit: 54"/>
        <line x1="414" y1="90" x2="414" y2="630" style="fill: none;stroke: #fff;stroke-miterlimit: 54"/>
        <line x1="441" y1="90" x2="441" y2="630" style="fill: none;stroke: #fff;stroke-miterlimit: 54"/>
        <line x1="454.5" y1="90" x2="454.5" y2="630" style="fill: none;stroke: #fff;stroke-miterlimit: 54"/>
        <line x1="468" y1="90" x2="468" y2="630" style="fill: none;stroke: #fff;stroke-miterlimit: 54"/>
        <line x1="481.5" y1="90" x2="481.5" y2="630" style="fill: none;stroke: #fff;stroke-miterlimit: 54"/>
        <line x1="508.5" y1="90" x2="508.5" y2="630" style="fill: none;stroke: #fff;stroke-miterlimit: 54"/>
        <line x1="522" y1="90" x2="522" y2="630" style="fill: none;stroke: #fff;stroke-miterlimit: 54"/>
        <line x1="535.5" y1="90" x2="535.5" y2="630" style="fill: none;stroke: #fff;stroke-miterlimit: 54"/>
        <line x1="549" y1="90" x2="549" y2="630" style="fill: none;stroke: #fff;stroke-miterlimit: 54"/>
        <line x1="576" y1="90" x2="576" y2="630" style="fill: none;stroke: #fff;stroke-miterlimit: 54"/>
        <line x1="589.5" y1="90" x2="589.5" y2="630" style="fill: none;stroke: #fff;stroke-miterlimit: 54"/>
        <line x1="603" y1="90" x2="603" y2="630" style="fill: none;stroke: #fff;stroke-miterlimit: 54"/>
        <line x1="616.5" y1="90" x2="616.5" y2="630" style="fill: none;stroke: #fff;stroke-miterlimit: 54"/>
        <line x1="90" y1="103.5" x2="630" y2="103.5" style="fill: none;stroke: #fff;stroke-miterlimit: 54"/>
        <line x1="90" y1="117" x2="630" y2="117" style="fill: none;stroke: #fff;stroke-miterlimit: 54"/>
        <line x1="90" y1="130.5" x2="630" y2="130.5" style="fill: none;stroke: #fff;stroke-miterlimit: 54"/>
        <line x1="90" y1="144" x2="630" y2="144" style="fill: none;stroke: #fff;stroke-miterlimit: 54"/>
        <line x1="90" y1="171" x2="630" y2="171" style="fill: none;stroke: #fff;stroke-miterlimit: 54"/>
        <line x1="90" y1="184.5" x2="630" y2="184.5" style="fill: none;stroke: #fff;stroke-miterlimit: 54"/>
        <line x1="90" y1="198" x2="630" y2="198" style="fill: none;stroke: #fff;stroke-miterlimit: 54"/>
        <line x1="90" y1="211.5" x2="630" y2="211.5" style="fill: none;stroke: #fff;stroke-miterlimit: 54"/>
        <line x1="90" y1="238.5" x2="630" y2="238.5" style="fill: none;stroke: #fff;stroke-miterlimit: 54"/>
        <line x1="90" y1="252" x2="630" y2="252" style="fill: none;stroke: #fff;stroke-miterlimit: 54"/>
        <line x1="90" y1="265.5" x2="630" y2="265.5" style="fill: none;stroke: #fff;stroke-miterlimit: 54"/>
        <line x1="90" y1="279" x2="630" y2="279" style="fill: none;stroke: #fff;stroke-miterlimit: 54"/>
        <line x1="90" y1="306" x2="630" y2="306" style="fill: none;stroke: #fff;stroke-miterlimit: 54"/>
        <line x1="90" y1="319.5" x2="630" y2="319.5" style="fill: none;stroke: #fff;stroke-miterlimit: 54"/>
        <line x1="90" y1="333" x2="630" y2="333" style="fill: none;stroke: #fff;stroke-miterlimit: 54"/>
        <line x1="90" y1="346.5" x2="630" y2="346.5" style="fill: none;stroke: #fff;stroke-miterlimit: 54"/>
        <line x1="90" y1="373.5" x2="630" y2="373.5" style="fill: none;stroke: #fff;stroke-miterlimit: 54"/>
        <line x1="90" y1="387" x2="630" y2="387" style="fill: none;stroke: #fff;stroke-miterlimit: 54"/>
        <line x1="90" y1="400.5" x2="630" y2="400.5" style="fill: none;stroke: #fff;stroke-miterlimit: 54"/>
        <line x1="90" y1="414" x2="630" y2="414" style="fill: none;stroke: #fff;stroke-miterlimit: 54"/>
        <line x1="90" y1="441" x2="630" y2="441" style="fill: none;stroke: #fff;stroke-miterlimit: 54"/>
        <line x1="90" y1="454.5" x2="630" y2="454.5" style="fill: none;stroke: #fff;stroke-miterlimit: 54"/>
        <line x1="90" y1="468" x2="630" y2="468" style="fill: none;stroke: #fff;stroke-miterlimit: 54"/>
        <line x1="90" y1="481.5" x2="630" y2="481.5" style="fill: none;stroke: #fff;stroke-miterlimit: 54"/>
        <line x1="90" y1="508.5" x2="630" y2="508.5" style="fill: none;stroke: #fff;stroke-miterlimit: 54"/>
        <line x1="90" y1="522" x2="630" y2="522" style="fill: none;stroke: #fff;stroke-miterlimit: 54"/>
        <line x1="90" y1="535.5" x2="630" y2="535.5" style="fill: none;stroke: #fff;stroke-miterlimit: 54"/>
        <line x1="90" y1="549" x2="630" y2="549" style="fill: none;stroke: #fff;stroke-miterlimit: 54"/>
        <line x1="90" y1="576" x2="630" y2="576" style="fill: none;stroke: #fff;stroke-miterlimit: 54"/>
        <line x1="90" y1="589.5" x2="630" y2="589.5" style="fill: none;stroke: #fff;stroke-miterlimit: 54"/>
        <line x1="90" y1="603" x2="630" y2="603" style="fill: none;stroke: #fff;stroke-miterlimit: 54"/>
        <line x1="90" y1="616.5" x2="630" y2="616.5" style="fill: none;stroke: #fff;stroke-miterlimit: 54"/>
      </g>
      <g style="opacity: 0.4">
        <line x1="157.5" y1="90" x2="157.5" y2="630" style="fill: none;stroke: #fff;stroke-miterlimit: 54"/>
        <line x1="292.5" y1="90" x2="292.5" y2="630" style="fill: none;stroke: #fff;stroke-miterlimit: 54"/>
        <line x1="427.5" y1="90" x2="427.5" y2="630" style="fill: none;stroke: #fff;stroke-miterlimit: 54"/>
        <line x1="562.5" y1="90" x2="562.5" y2="630" style="fill: none;stroke: #fff;stroke-miterlimit: 54"/>
        <line x1="90" y1="157.5" x2="630" y2="157.5" style="fill: none;stroke: #fff;stroke-miterlimit: 54"/>
        <line x1="90" y1="292.5" x2="630" y2="292.5" style="fill: none;stroke: #fff;stroke-miterlimit: 54"/>
        <line x1="90" y1="427.5" x2="630" y2="427.5" style="fill: none;stroke: #fff;stroke-miterlimit: 54"/>
        <line x1="90" y1="562.5" x2="630" y2="562.5" style="fill: none;stroke: #fff;stroke-miterlimit: 54"/>
      </g>
      <g style="opacity: 0.6000000000000001">
        <line x1="90" y1="90" x2="90" y2="630" style="fill: none;stroke: #fff;stroke-miterlimit: 54"/>
        <line x1="225" y1="90" x2="225" y2="630" style="fill: none;stroke: #fff;stroke-miterlimit: 54"/>
        <line x1="360" y1="90" x2="360" y2="630" style="fill: none;stroke: #fff;stroke-miterlimit: 54"/>
        <line x1="495" y1="90" x2="495" y2="630" style="fill: none;stroke: #fff;stroke-miterlimit: 54"/>
        <line x1="630" y1="90" x2="630" y2="630" style="fill: none;stroke: #fff;stroke-miterlimit: 54"/>
        <line x1="90" y1="90" x2="630" y2="90" style="fill: none;stroke: #fff;stroke-miterlimit: 54"/>
        <line x1="90" y1="225" x2="630" y2="225" style="fill: none;stroke: #fff;stroke-miterlimit: 54"/>
        <line x1="90" y1="360" x2="630" y2="360" style="fill: none;stroke: #fff;stroke-miterlimit: 54"/>
        <line x1="90" y1="495" x2="630" y2="495" style="fill: none;stroke: #fff;stroke-miterlimit: 54"/>
        <line x1="90" y1="630" x2="630" y2="630" style="fill: none;stroke: #fff;stroke-miterlimit: 54"/>
      </g>
    </g>
    <g>
      <line x1="360" y1="99.053" x2="360" y2="620.947" style="fill: none;stroke: #fff;stroke-miterlimit: 54;stroke-width: 1.5px"/>
      <path d="M360,90c-1.581,4.26-4.277,9.545-7.134,12.821l7.134-2.58,7.132,2.58C364.276,99.545,361.579,94.26,360,90Z" style="fill: #fff"/>
      <path d="M360,630c-1.581-4.26-4.277-9.545-7.134-12.821l7.134,2.58,7.132-2.58C364.276,620.455,361.579,625.74,360,630Z" style="fill: #fff"/>
    </g>
    <g>
      <line x1="99.053" y1="495" x2="620.947" y2="495" style="fill: none;stroke: #fff;stroke-miterlimit: 54;stroke-width: 1.5px"/>
      <path d="M90,495c4.26,1.581,9.545,4.277,12.821,7.134L100.241,495l2.58-7.132C99.545,490.724,94.26,493.421,90,495Z" style="fill: #fff"/>
      <path d="M630,495c-4.26,1.581-9.545,4.277-12.821,7.134l2.58-7.134-2.58-7.132C620.455,490.724,625.74,493.421,630,495Z" style="fill: #fff"/>
    </g>
  </g>
  <g>
    <path d="M646.56,494.137a.415.415,0,0,1-.151-.275,4.752,4.752,0,0,1,.776-1.725,4.287,4.287,0,0,1,2.95-2.05,4.114,4.114,0,0,1,.524-.05,3.035,3.035,0,0,1,1.612.45,2.683,2.683,0,0,1,1.063,1.125c.217-.283.351-.459.4-.525a2.772,2.772,0,0,1,2.125-1.05,2.355,2.355,0,0,1,1.662.587,1.88,1.88,0,0,1,.638,1.438,1.96,1.96,0,0,1-.437,1.3,1.437,1.437,0,0,1-1.162.525,1.1,1.1,0,0,1-.776-.275.936.936,0,0,1-.3-.725,1.589,1.589,0,0,1,1.25-1.575,1.007,1.007,0,0,0-.275-.175,1.423,1.423,0,0,0-.725-.15,1.635,1.635,0,0,0-.474.05,2.619,2.619,0,0,0-1.4,1.65q-.074.2-.724,2.788t-.7,2.912a3.817,3.817,0,0,0-.076.75,1.284,1.284,0,0,0,.35.95,1.253,1.253,0,0,0,.926.35,2.577,2.577,0,0,0,1.9-.887,4.623,4.623,0,0,0,1.151-1.963c.049-.166.1-.263.149-.287a1.188,1.188,0,0,1,.4-.038q.476,0,.475.2c0,.017-.017.108-.05.275a5.427,5.427,0,0,1-1.75,2.7,3.939,3.939,0,0,1-2.474.925,2.883,2.883,0,0,1-2.651-1.575,3.5,3.5,0,0,1-1.849,1.5,3.24,3.24,0,0,1-.651.05,2.181,2.181,0,0,1-2.05-1.025,1.936,1.936,0,0,1-.25-1,1.893,1.893,0,0,1,.451-1.275,1.443,1.443,0,0,1,1.149-.525.939.939,0,0,1,1.075,1.05,1.411,1.411,0,0,1-.875,1.35l-.125.063-.125.062a.183.183,0,0,1-.075.025l-.074.025q0,.075.375.225a1.654,1.654,0,0,0,.649.125,1.845,1.845,0,0,0,1.55-1.125,18.8,18.8,0,0,0,.976-3.25q.149-.575.325-1.275t.261-1.075c.059-.25.1-.4.114-.45a6.136,6.136,0,0,0,.125-.975,1.348,1.348,0,0,0-.325-.95,1.171,1.171,0,0,0-.9-.35,2.609,2.609,0,0,0-1.95.863,4.721,4.721,0,0,0-1.149,1.987c-.035.15-.072.237-.113.263a1.243,1.243,0,0,1-.413.037Z" style="fill: #fff"/>
    <g>
      <path d="M649.858,369.978q-2.3,0-2.3,1.625a1.146,1.146,0,0,0,.049.424,1.5,1.5,0,0,0,.776.863,7.567,7.567,0,0,0,1.7.487,6.781,6.781,0,0,1,1.95.55,3.623,3.623,0,0,1,2.026,2.475,4.707,4.707,0,0,1,.024.6,4.031,4.031,0,0,1-.35,1.726,3.767,3.767,0,0,1-3.674,1.849,3.981,3.981,0,0,1-2.6-.9l-.2.176-.226.224c-.1.1-.2.192-.3.276l-.275.25h-.2a.453.453,0,0,1-.325-.151v-1.974q0-1.626.012-1.875c.008-.167.045-.267.113-.3a1.618,1.618,0,0,1,.4-.025.841.841,0,0,1,.388.05.8.8,0,0,1,.137.35,5.734,5.734,0,0,0,.651,1.725,2.78,2.78,0,0,0,2.425,1.275q2.424,0,2.424-1.949a1.592,1.592,0,0,0-.45-1.176,2.166,2.166,0,0,0-1.05-.675q-.424-.1-1.2-.274a8.589,8.589,0,0,1-1.9-.526,3.12,3.12,0,0,1-1.926-2.325,1.822,1.822,0,0,1-.024-.375q0-2.874,3.524-3.225a1.636,1.636,0,0,1,.6,0,3.868,3.868,0,0,1,1.75.375l.375.2.224-.176a6.827,6.827,0,0,1,.55-.425h.2a.453.453,0,0,1,.325.15v3.3l-.15.151h-.7a.434.434,0,0,1-.151-.3,2.336,2.336,0,0,0-.7-1.8A2.72,2.72,0,0,0,649.858,369.978Z" style="fill: #58c4dd"/>
      <path d="M661.133,380.327a21.355,21.355,0,0,0-2.6-.075,26.4,26.4,0,0,0-2.725.075h-.2v-1.15h.4a8.938,8.938,0,0,0,1.225-.074.543.543,0,0,0,.3-.276q.025-.05.025-3.625a34.778,34.778,0,0,0-.1-4q-.2-.5-1.475-.5h-.275v-.575q0-.575.05-.575l.25-.025c.167-.016.4-.033.7-.049l.9-.051c.284-.016.583-.037.9-.063s.558-.045.725-.062.258-.025.275-.025h.075v9.5a.581.581,0,0,0,.3.313,3.9,3.9,0,0,0,.875.087h.575v1.15Zm-2.9-16.724a1.6,1.6,0,0,1,1.025.437,1.412,1.412,0,0,1,.4,1.063,1.338,1.338,0,0,1-.675,1.274,1.372,1.372,0,0,1-.8.226,1.417,1.417,0,0,1-.825-.226,1.338,1.338,0,0,1-.675-1.274,1.42,1.42,0,0,1,.437-1.1A1.585,1.585,0,0,1,658.233,363.6Z" style="fill: #58c4dd"/>
      <path d="M666.608,378.827q.2.351,1.175.35h.75v1.15h-.2a52.3,52.3,0,0,0-5.6,0h-.2v-1.15h.75c.651,0,1.041-.116,1.175-.35v-.775q0-.35.013-.787c.008-.291.012-.617.012-.975v-1.038c0-.517,0-1.07-.012-1.662s-.013-1.079-.013-1.463v-.575a.825.825,0,0,0-.362-.637,2.914,2.914,0,0,0-1.113-.213h-.45v-.575q0-.575.05-.575l.25-.025c.167-.016.4-.033.713-.049l.912-.051q.424-.024.9-.063c.317-.024.558-.045.725-.062s.259-.025.275-.025h.076v1a6.874,6.874,0,0,0,.024.951l.025-.026a4.4,4.4,0,0,1,3.826-1.925,2.917,2.917,0,0,1,3.174,2.826q.026.174.025,3.474,0,3.2.025,3.25a.54.54,0,0,0,.3.276,8.963,8.963,0,0,0,1.226.074h.4v1.15h-.2a52.3,52.3,0,0,0-5.6,0h-.2v-1.15h.6q1.323,0,1.324-.4.024-.049.025-3.45-.024-3.375-.05-3.575a2.2,2.2,0,0,0-.562-1.162,1.692,1.692,0,0,0-1.188-.362,2.71,2.71,0,0,0-1.975.849,3.585,3.585,0,0,0-1.025,2.2v.462q0,.438-.012,1.114c-.009.449-.013.875-.013,1.274v.788c0,.274,0,.521.013.737s.012.412.012.587v.588Z" style="fill: #58c4dd"/>
      <path d="M684.134,386.353c0,.149-.151.224-.45.224h-.326c-.116-.1-.349-.3-.7-.6q-4.5-4.1-4.5-11.9a20.138,20.138,0,0,1,.726-5.575,13.48,13.48,0,0,1,3.774-6.325c.117-.1.25-.212.4-.337s.25-.213.3-.263h.326a.6.6,0,0,1,.375.075.22.22,0,0,1,.075.15q0,.1-.276.375-3.874,4.1-3.875,11.9t3.875,11.9Q684.134,386.251,684.134,386.353Z" style="fill: #58c4dd"/>
      <path d="M686.983,373.377a.415.415,0,0,1-.15-.274,4.743,4.743,0,0,1,.775-1.726,4.291,4.291,0,0,1,2.951-2.05,4.114,4.114,0,0,1,.524-.05,3.027,3.027,0,0,1,1.612.451,2.672,2.672,0,0,1,1.063,1.125q.325-.426.4-.526a2.769,2.769,0,0,1,2.125-1.05,2.36,2.36,0,0,1,1.662.587,1.88,1.88,0,0,1,.638,1.438,1.964,1.964,0,0,1-.437,1.3,1.44,1.44,0,0,1-1.163.524,1.1,1.1,0,0,1-.775-.274.94.94,0,0,1-.3-.726,1.589,1.589,0,0,1,1.25-1.575,1.06,1.06,0,0,0-.275-.175,1.424,1.424,0,0,0-.725-.149,1.638,1.638,0,0,0-.474.049,2.619,2.619,0,0,0-1.4,1.65q-.075.2-.724,2.788t-.7,2.912a3.893,3.893,0,0,0-.075.75,1.281,1.281,0,0,0,.35.95,1.249,1.249,0,0,0,.926.35,2.577,2.577,0,0,0,1.9-.887,4.621,4.621,0,0,0,1.15-1.963c.05-.166.1-.263.15-.287a1.212,1.212,0,0,1,.4-.038q.476,0,.475.2c0,.017-.017.109-.05.276a5.429,5.429,0,0,1-1.75,2.7,3.941,3.941,0,0,1-2.475.926,2.882,2.882,0,0,1-2.65-1.576,3.5,3.5,0,0,1-1.85,1.5,3.149,3.149,0,0,1-.65.05,2.181,2.181,0,0,1-2.05-1.025,1.931,1.931,0,0,1-.25-1,1.9,1.9,0,0,1,.45-1.275,1.447,1.447,0,0,1,1.15-.525.94.94,0,0,1,1.075,1.05,1.411,1.411,0,0,1-.875,1.35l-.125.063-.125.062a.188.188,0,0,1-.075.025l-.074.025q0,.075.375.225a1.654,1.654,0,0,0,.649.125,1.845,1.845,0,0,0,1.55-1.125,18.838,18.838,0,0,0,.975-3.25q.15-.575.326-1.275t.261-1.075c.059-.25.1-.4.114-.45a6.122,6.122,0,0,0,.125-.975,1.346,1.346,0,0,0-.326-.95,1.166,1.166,0,0,0-.9-.349,2.612,2.612,0,0,0-1.95.862,4.734,4.734,0,0,0-1.15,1.987c-.034.151-.071.237-.112.263a1.247,1.247,0,0,1-.413.037Z" style="fill: #58c4dd"/>
      <path d="M701.333,361.6l.1-.026h.55l.7.6q4.5,4.1,4.5,11.9a19.731,19.731,0,0,1-.725,5.55,13.492,13.492,0,0,1-3.775,6.351l-.4.336c-.15.125-.25.213-.3.263h-.3a.922.922,0,0,1-.387-.05c-.059-.034-.088-.117-.088-.25.017-.016.108-.125.275-.325q3.875-4.024,3.875-11.875T701.483,362.2c-.167-.2-.258-.308-.275-.325A.29.29,0,0,1,701.333,361.6Z" style="fill: #58c4dd"/>
    </g>
    <path d="M499.15,667.119q-.426-.077-3.975-.076-3.5,0-3.925.076h-.3v-1.15h.65a14.539,14.539,0,0,0,1.875-.074,1.649,1.649,0,0,0,.6-.3V652.668a.586.586,0,0,0-.2.076,7.385,7.385,0,0,1-2.575.475h-.475v-1.151h.475a6.95,6.95,0,0,0,3.5-.949,3.451,3.451,0,0,0,.775-.576c.033-.049.133-.074.3-.074a.636.636,0,0,1,.425.15v7.475l.025,7.5a2.419,2.419,0,0,0,1.625.375h1.475v1.15Z" style="fill: #fff"/>
    <g>
      <path d="M213.316,662.644v-1.826h6.65v1.826Z" style="fill: #fff"/>
      <path d="M231.767,667.118q-.428-.075-3.976-.075-3.5,0-3.925.075h-.3v-1.15h.65a14.326,14.326,0,0,0,1.875-.074,1.625,1.625,0,0,0,.6-.3V652.668a.6.6,0,0,0-.2.075,7.358,7.358,0,0,1-2.575.475h-.475v-1.15h.475a6.96,6.96,0,0,0,3.5-.95,3.425,3.425,0,0,0,.775-.575c.034-.05.133-.075.3-.075a.636.636,0,0,1,.425.15v7.475l.025,7.5a2.419,2.419,0,0,0,1.625.375h1.475v1.15Z" style="fill: #fff"/>
    </g>
    <g>
      <path d="M49.863,632.644v-1.826h6.649v1.826Z" style="fill: #fff"/>
      <path d="M68.313,637.118q-.426-.075-3.976-.075-3.5,0-3.924.075h-.3v-1.15h.649a14.326,14.326,0,0,0,1.875-.074,1.634,1.634,0,0,0,.6-.3V622.668a.591.591,0,0,0-.2.075,7.364,7.364,0,0,1-2.576.475h-.474v-1.15h.474a6.954,6.954,0,0,0,3.5-.95,3.454,3.454,0,0,0,.776-.575q.049-.075.3-.075a.633.633,0,0,1,.424.15v7.475l.026,7.5a2.419,2.419,0,0,0,1.625.375h1.474v1.15Z" style="fill: #fff"/>
    </g>
    <path d="M626.5,656.4a1.393,1.393,0,0,1-1.1-.452,1.59,1.59,0,0,1-.4-1.1,4.1,4.1,0,0,1,1.362-3.088,4.586,4.586,0,0,1,3.263-1.287,5.415,5.415,0,0,1,3.563,1.162,4.882,4.882,0,0,1,1.737,3.037,7.633,7.633,0,0,1,.05.826,4.723,4.723,0,0,1-.875,2.725,16.679,16.679,0,0,1-2.825,2.875q-.9.775-2.5,2.3l-1.475,1.4,1.9.025a29.9,29.9,0,0,0,4.175-.125c.066-.015.15-.191.25-.525a15.7,15.7,0,0,0,.35-1.7V662.4h1v.074l-.7,4.574v.076H625v-.474a1.71,1.71,0,0,1,.05-.577q.024-.023,2.1-2.375,2.726-3.023,3.5-4a7.241,7.241,0,0,0,1.675-4.173,4.38,4.38,0,0,0-.862-2.764,2.883,2.883,0,0,0-2.413-1.111,2.744,2.744,0,0,0-2.35,1.3q-.051.1-.15.276a.553.553,0,0,0-.075.15c0,.016.042.026.125.026a1.266,1.266,0,0,1,1.012.449A1.559,1.559,0,0,1,628,654.9a1.5,1.5,0,0,1-.412,1.062A1.43,1.43,0,0,1,626.5,656.4Z" style="fill: #fff"/>
    <g>
      <path d="M78.863,662.645v-1.827h6.649v1.827Z" style="fill: #fff"/>
      <path d="M89.663,656.4a1.393,1.393,0,0,1-1.1-.452,1.585,1.585,0,0,1-.4-1.1,4.1,4.1,0,0,1,1.362-3.088,4.585,4.585,0,0,1,3.263-1.287,5.413,5.413,0,0,1,3.562,1.162,4.873,4.873,0,0,1,1.737,3.037,7.386,7.386,0,0,1,.05.826,4.723,4.723,0,0,1-.875,2.725,16.663,16.663,0,0,1-2.824,2.875q-.9.775-2.5,2.3l-1.476,1.4,1.9.025a29.9,29.9,0,0,0,4.175-.125c.066-.015.15-.191.25-.525a15.822,15.822,0,0,0,.349-1.7V662.4h1v.074l-.7,4.574v.076H88.163v-.474a1.724,1.724,0,0,1,.049-.577q.025-.023,2.1-2.375,2.724-3.023,3.5-4a7.248,7.248,0,0,0,1.675-4.173,4.374,4.374,0,0,0-.863-2.764,2.882,2.882,0,0,0-2.413-1.111,2.742,2.742,0,0,0-2.349,1.3c-.034.067-.084.159-.151.276a.589.589,0,0,0-.075.15c0,.016.042.026.125.026a1.27,1.27,0,0,1,1.013.449,1.559,1.559,0,0,1,.388,1.051,1.5,1.5,0,0,1-.413,1.062A1.427,1.427,0,0,1,89.663,656.4Z" style="fill: #fff"/>
    </g>
    <path d="M356.15,652.494a4.412,4.412,0,0,1,3.825-2.025,4.608,4.608,0,0,1,3.2,1.25,5.446,5.446,0,0,1,1.15,1.7,14.325,14.325,0,0,1,.925,5.7,13.035,13.035,0,0,1-1.075,5.924,4.339,4.339,0,0,1-2.05,2.1,4.717,4.717,0,0,1-2.125.523,4.406,4.406,0,0,1-4.2-2.625,13.035,13.035,0,0,1-1.075-5.924,19.51,19.51,0,0,1,.312-3.838A8.4,8.4,0,0,1,356.15,652.494Zm5.625-.3a2.3,2.3,0,0,0-1.775-.8,2.38,2.38,0,0,0-1.8.8,3.01,3.01,0,0,0-.75,1.4,15.358,15.358,0,0,0-.25,2.849c0,.1,0,.426-.012.975s-.013,1.01-.013,1.375c0,1.6.016,2.717.05,3.352a14.233,14.233,0,0,0,.3,2.511,2.842,2.842,0,0,0,.75,1.313,2.217,2.217,0,0,0,1.725.75,2.189,2.189,0,0,0,1.7-.75,2.859,2.859,0,0,0,.75-1.313,14.233,14.233,0,0,0,.3-2.511c.033-.635.05-1.75.05-3.352q0-.548-.013-1.375c-.008-.549-.012-.875-.012-.975a15.538,15.538,0,0,0-.25-2.849A3.01,3.01,0,0,0,361.775,652.193Z" style="fill: #fff"/>
    <path d="M56.15,487.493a4.412,4.412,0,0,1,3.825-2.025,4.613,4.613,0,0,1,3.2,1.25,5.439,5.439,0,0,1,1.15,1.7,14.317,14.317,0,0,1,.925,5.7,13.043,13.043,0,0,1-1.075,5.925,4.337,4.337,0,0,1-2.05,2.1,4.718,4.718,0,0,1-2.125.524,4.406,4.406,0,0,1-4.2-2.625,13.043,13.043,0,0,1-1.075-5.925,19.524,19.524,0,0,1,.312-3.838A8.4,8.4,0,0,1,56.15,487.493Zm5.625-.3a2.305,2.305,0,0,0-1.775-.8,2.381,2.381,0,0,0-1.8.8,3.006,3.006,0,0,0-.75,1.4,15.361,15.361,0,0,0-.25,2.85c0,.1-.005.425-.012.975s-.013,1.009-.013,1.375q0,2.4.05,3.351a14.233,14.233,0,0,0,.3,2.511,2.832,2.832,0,0,0,.75,1.313,2.217,2.217,0,0,0,1.725.75,2.189,2.189,0,0,0,1.7-.75,2.849,2.849,0,0,0,.75-1.313,14.233,14.233,0,0,0,.3-2.511q.05-.951.05-3.351,0-.549-.013-1.375t-.012-.975a15.542,15.542,0,0,0-.25-2.85A3.006,3.006,0,0,0,61.775,487.193Z" style="fill: #fff"/>
    <path d="M364.412,60.065a.974.974,0,0,1,.6.188.609.609,0,0,1,.25.513q0,.324-1.226,5.25t-1.4,5.4a6.884,6.884,0,0,1-3.35,3.9,5.846,5.846,0,0,1-2.525.651,2.692,2.692,0,0,1-2.575-1.2,1.7,1.7,0,0,1-.25-1,1.792,1.792,0,0,1,.475-1.326,1.627,1.627,0,0,1,1.1-.474q1.1,0,1.1,1.05a1.413,1.413,0,0,1-.875,1.35l-.125.063-.125.062a.206.206,0,0,1-.075.025l-.076.025a1.041,1.041,0,0,0,.526.325,2.261,2.261,0,0,0,.8.15h.2a3.222,3.222,0,0,0,.65-.05,3.814,3.814,0,0,0,1.8-1.276,6.935,6.935,0,0,0,1.3-2.4,5.516,5.516,0,0,0,.275-.976c0-.015-.017-.011-.051.013s-.083.063-.149.112a3.393,3.393,0,0,1-2.05.676,3.478,3.478,0,0,1-2.1-.6,2.793,2.793,0,0,1-1.076-1.725,7.484,7.484,0,0,1-.024-.775,6.544,6.544,0,0,1,.05-.925,22.853,22.853,0,0,1,1.15-3.675,7.194,7.194,0,0,0,.55-2.05,1.307,1.307,0,0,0-.063-.488c-.042-.091-.137-.137-.288-.137h-.125a1.552,1.552,0,0,0-1.1.525,5.246,5.246,0,0,0-1.225,2.4.3.3,0,0,1-.025.087.348.348,0,0,1-.037.075l-.038.038a.121.121,0,0,1-.087.025h-.663q-.15-.15-.15-.225a1.933,1.933,0,0,1,.074-.351,5.963,5.963,0,0,1,1.576-2.724,2.578,2.578,0,0,1,1.775-.8,2.375,2.375,0,0,1,1.675.575,2.066,2.066,0,0,1,.625,1.6,3.4,3.4,0,0,1-.075.525,5.637,5.637,0,0,1-.375,1.074,23.819,23.819,0,0,0-1.225,4.076,4.894,4.894,0,0,0-.025.575,2.86,2.86,0,0,0,.3,1.45,1.178,1.178,0,0,0,1.1.5,2.129,2.129,0,0,0,1.087-.3,3.316,3.316,0,0,0,.775-.588q.262-.287.662-.787,0-.024.125-.512t.363-1.463q.237-.975.462-1.85.951-3.75,1.05-3.925A1.111,1.111,0,0,1,364.412,60.065Z" style="fill: #fff"/>
    <path d="M64.15,367.118q-.426-.075-3.975-.075-3.5,0-3.925.075h-.3v-1.15h.65a14.348,14.348,0,0,0,1.875-.074,1.632,1.632,0,0,0,.6-.3V352.668a.609.609,0,0,0-.2.076,7.363,7.363,0,0,1-2.575.474h-.475v-1.149H56.3a6.97,6.97,0,0,0,3.5-.95,3.451,3.451,0,0,0,.775-.576c.033-.049.133-.075.3-.075a.632.632,0,0,1,.425.151v7.474l.025,7.5a2.419,2.419,0,0,0,1.625.375h1.475v1.15Z" style="fill: #fff"/>
    <path d="M56.5,221.394a1.4,1.4,0,0,1-1.1-.45,1.6,1.6,0,0,1-.4-1.1,4.1,4.1,0,0,1,1.362-3.087,4.587,4.587,0,0,1,3.263-1.288,5.421,5.421,0,0,1,3.563,1.163,4.882,4.882,0,0,1,1.737,3.037,7.618,7.618,0,0,1,.05.826,4.72,4.72,0,0,1-.875,2.724,16.607,16.607,0,0,1-2.825,2.875q-.9.777-2.5,2.3l-1.475,1.4,1.9.026a30.085,30.085,0,0,0,4.175-.125c.066-.017.15-.192.25-.526a15.689,15.689,0,0,0,.35-1.7v-.074h1v.074l-.7,4.575v.076H55v-.475a1.69,1.69,0,0,1,.05-.575q.024-.025,2.1-2.375,2.726-3.025,3.5-4a7.246,7.246,0,0,0,1.675-4.175,4.379,4.379,0,0,0-.862-2.763,2.881,2.881,0,0,0-2.413-1.112,2.744,2.744,0,0,0-2.35,1.3c-.034.066-.084.158-.15.274a.552.552,0,0,0-.075.151c0,.016.042.025.125.025a1.27,1.27,0,0,1,1.012.449A1.561,1.561,0,0,1,58,219.894a1.5,1.5,0,0,1-.412,1.063A1.43,1.43,0,0,1,56.5,221.394Z" style="fill: #fff"/>
    <path d="M56.925,85.543a1.368,1.368,0,0,1-1.063-.424,1.573,1.573,0,0,1-.387-1.1A3.02,3.02,0,0,1,56.6,81.631a4.788,4.788,0,0,1,2.6-1.137h.375q.874,0,1.1.025a6.081,6.081,0,0,1,1.675.524,3.723,3.723,0,0,1,2.075,2.351,2.431,2.431,0,0,1,.075.675,4.17,4.17,0,0,1-.912,2.638A5.057,5.057,0,0,1,61.3,88.369q-.124.049,0,.075a1.633,1.633,0,0,0,.25.075,5.333,5.333,0,0,1,2.575,1.587,3.828,3.828,0,0,1,1.05,2.638,4.355,4.355,0,0,1-.475,1.974,4.954,4.954,0,0,1-1.963,2.114,5.7,5.7,0,0,1-3.037.836,5.975,5.975,0,0,1-2.925-.7,3.6,3.6,0,0,1-1.725-1.875,2.81,2.81,0,0,1-.25-1.224,1.494,1.494,0,0,1,.463-1.138,1.661,1.661,0,0,1,2.262.013,1.523,1.523,0,0,1,.45,1.125,1.605,1.605,0,0,1-.325,1,1.471,1.471,0,0,1-.875.549l-.175.05a4.7,4.7,0,0,0,3.1,1.125,2.231,2.231,0,0,0,2.075-1.324,5.738,5.738,0,0,0,.425-2.525v-.5a3.2,3.2,0,0,0-1.6-3.175,5.211,5.211,0,0,0-1.525-.175l-1.05-.025-.075-.05a.923.923,0,0,1-.05-.4.593.593,0,0,1,.075-.375.208.208,0,0,1,.125-.075,8.753,8.753,0,0,0,1.45-.125,2.161,2.161,0,0,0,1.675-1.237,5.526,5.526,0,0,0,.575-2.612,2.377,2.377,0,0,0-.875-2.175,2.066,2.066,0,0,0-1.175-.351,3.7,3.7,0,0,0-2.2.676,1.03,1.03,0,0,0-.225.162,1.522,1.522,0,0,0-.2.213l-.075.1c.05.016.108.033.175.049a1.2,1.2,0,0,1,.837.476,1.523,1.523,0,0,1,.338.975,1.372,1.372,0,0,1-.413,1.012A1.436,1.436,0,0,1,56.925,85.543Z" style="fill: #fff"/>
    <g>
      <path d="M98.436,621.053q53.5,19.263,107.064-3.138c27.257-11.336,51.589-28.6,74.25-47.308,26.935-22.368,51.739-47.147,76.5-71.857,25.412-25.367,50.681-50.973,78-74.313,22.938-19.485,47.451-37.657,75-50.088,36.947-16.769,74.027-18.99,111.55-5.673" style="fill: none;stroke: #58c4dd;stroke-miterlimit: 54;stroke-width: 1.5px"/>
      <path d="M90,617.755c3.41,3,7.378,7.414,9.412,11.255l.148-7.585,4.966-5.733A45.3,45.3,0,0,1,90,617.755Z" style="fill: #58c4dd"/>
      <path d="M629.25,371.935c-4.543-.032-10.441.617-14.517,2.127l4.941-5.756.115-7.584C621.84,364.554,625.826,368.948,629.25,371.935Z" style="fill: #58c4dd"/>
    </g>
    <g>
      <path d="M503,53.649q-2.3,0-2.3,1.625a1.142,1.142,0,0,0,.05.425,1.5,1.5,0,0,0,.775.863,7.649,7.649,0,0,0,1.7.487,6.759,6.759,0,0,1,1.95.55,3.622,3.622,0,0,1,2.025,2.475,4.461,4.461,0,0,1,.025.6,4.041,4.041,0,0,1-.35,1.725,3.767,3.767,0,0,1-3.675,1.85,3.978,3.978,0,0,1-2.6-.9l-.2.175-.225.225c-.1.1-.2.191-.3.275l-.275.25h-.2a.453.453,0,0,1-.325-.15V62.149q0-1.626.013-1.875c.008-.167.045-.266.112-.3a1.623,1.623,0,0,1,.4-.025.839.839,0,0,1,.387.05.8.8,0,0,1,.138.35,5.769,5.769,0,0,0,.65,1.725,2.781,2.781,0,0,0,2.425,1.275q2.424,0,2.425-1.95a1.59,1.59,0,0,0-.45-1.175,2.171,2.171,0,0,0-1.05-.675c-.283-.067-.684-.158-1.2-.275a8.543,8.543,0,0,1-1.9-.525,3.12,3.12,0,0,1-1.925-2.325,1.813,1.813,0,0,1-.025-.375q0-2.874,3.525-3.225a1.63,1.63,0,0,1,.6,0,3.868,3.868,0,0,1,1.75.375l.375.2.225-.175a6.44,6.44,0,0,1,.55-.425h.2a.455.455,0,0,1,.325.15v3.3l-.15.15h-.7a.432.432,0,0,1-.15-.3,2.335,2.335,0,0,0-.7-1.8A2.722,2.722,0,0,0,503,53.649Z" style="fill: #fff933"/>
      <path d="M514.276,64a21.319,21.319,0,0,0-2.6-.075,26.421,26.421,0,0,0-2.726.075h-.2v-1.15h.4a8.793,8.793,0,0,0,1.226-.075.541.541,0,0,0,.3-.275q.024-.05.024-3.625a34.941,34.941,0,0,0-.1-4q-.2-.5-1.475-.5h-.275V53.8q0-.575.049-.575l.25-.025q.25-.024.7-.05l.9-.05q.425-.024.9-.063t.726-.062c.166-.016.258-.025.274-.025h.076v9.5a.58.58,0,0,0,.3.313,3.911,3.911,0,0,0,.875.087h.576V64Zm-2.9-16.725a1.6,1.6,0,0,1,1.024.438,1.408,1.408,0,0,1,.4,1.062,1.34,1.34,0,0,1-.675,1.275,1.375,1.375,0,0,1-.8.225,1.413,1.413,0,0,1-.824-.225,1.339,1.339,0,0,1-.676-1.275,1.419,1.419,0,0,1,.438-1.1A1.585,1.585,0,0,1,511.377,47.274Z" style="fill: #fff933"/>
      <path d="M519.752,62.5q.2.349,1.175.35h.75V64h-.2a52.3,52.3,0,0,0-5.6,0h-.2v-1.15h.75q.975,0,1.175-.35v-.775c0-.233,0-.495.012-.787s.013-.617.013-.975V58.924c0-.517,0-1.07-.013-1.662s-.012-1.079-.012-1.463v-.575a.823.823,0,0,0-.363-.637,2.9,2.9,0,0,0-1.112-.213h-.45V53.8c0-.383.016-.575.05-.575l.25-.025q.25-.024.712-.05l.913-.05q.424-.024.9-.063t.725-.062c.167-.016.258-.025.275-.025h.075v1a6.717,6.717,0,0,0,.025.95l.025-.025a4.4,4.4,0,0,1,3.825-1.925,2.918,2.918,0,0,1,3.175,2.825q.026.175.024,3.475,0,3.2.026,3.25a.532.532,0,0,0,.3.275,8.768,8.768,0,0,0,1.225.075h.4V64h-.2a52.286,52.286,0,0,0-5.6,0h-.2v-1.15h.6q1.325,0,1.324-.4.026-.05.026-3.45-.026-3.375-.05-3.575a2.205,2.205,0,0,0-.563-1.162,1.689,1.689,0,0,0-1.187-.363,2.714,2.714,0,0,0-1.976.85,3.582,3.582,0,0,0-1.024,2.2v.462c0,.292,0,.663-.013,1.113s-.012.875-.012,1.275v.788c0,.274,0,.52.012.737s.013.412.013.587V62.5Z" style="fill: #fff933"/>
      <path d="M537.277,70.024q0,.225-.45.225H536.5l-.7-.6q-4.5-4.1-4.5-11.9a20.171,20.171,0,0,1,.725-5.575,13.489,13.489,0,0,1,3.775-6.325q.175-.15.4-.337c.151-.125.25-.213.3-.263h.325a.593.593,0,0,1,.375.075.216.216,0,0,1,.075.15c0,.067-.091.192-.275.375q-3.874,4.1-3.875,11.9T537,69.649C537.186,69.832,537.277,69.957,537.277,70.024Z" style="fill: #fff933"/>
      <path d="M540.127,57.049a.413.413,0,0,1-.15-.275,4.747,4.747,0,0,1,.775-1.725A4.289,4.289,0,0,1,543.7,53a4.126,4.126,0,0,1,.525-.05,3.035,3.035,0,0,1,1.612.45,2.68,2.68,0,0,1,1.062,1.125c.217-.283.351-.459.4-.525a2.769,2.769,0,0,1,2.125-1.05,2.363,2.363,0,0,1,1.662.587,1.88,1.88,0,0,1,.638,1.438,1.96,1.96,0,0,1-.438,1.3,1.437,1.437,0,0,1-1.162.525,1.1,1.1,0,0,1-.775-.275.933.933,0,0,1-.3-.725,1.589,1.589,0,0,1,1.25-1.575,1.025,1.025,0,0,0-.276-.175,1.421,1.421,0,0,0-.724-.15,1.643,1.643,0,0,0-.475.05,2.618,2.618,0,0,0-1.4,1.65q-.075.2-.725,2.788T546,61.3a3.816,3.816,0,0,0-.075.75,1.284,1.284,0,0,0,.349.95,1.254,1.254,0,0,0,.926.35,2.581,2.581,0,0,0,1.9-.887,4.621,4.621,0,0,0,1.15-1.963c.05-.166.1-.263.149-.287a1.22,1.22,0,0,1,.4-.038q.474,0,.474.2c0,.017-.016.108-.049.275a5.441,5.441,0,0,1-1.75,2.7,3.944,3.944,0,0,1-2.475.925,2.88,2.88,0,0,1-2.65-1.575,3.5,3.5,0,0,1-1.85,1.5,3.222,3.222,0,0,1-.65.05,2.18,2.18,0,0,1-2.05-1.025,1.936,1.936,0,0,1-.25-1,1.892,1.892,0,0,1,.45-1.275,1.446,1.446,0,0,1,1.149-.525.94.94,0,0,1,1.076,1.05,1.411,1.411,0,0,1-.875,1.35c-.034.017-.076.037-.125.063l-.125.062a.191.191,0,0,1-.076.025l-.074.025q0,.075.375.225a1.655,1.655,0,0,0,.65.125,1.844,1.844,0,0,0,1.549-1.125,18.8,18.8,0,0,0,.976-3.25q.15-.574.325-1.275t.262-1.075c.058-.25.1-.4.113-.45a6.136,6.136,0,0,0,.125-.975,1.344,1.344,0,0,0-.325-.95,1.17,1.17,0,0,0-.9-.35,2.615,2.615,0,0,0-1.951.863A4.742,4.742,0,0,0,541,56.749c-.034.15-.071.237-.112.263a1.247,1.247,0,0,1-.413.037Z" style="fill: #fff933"/>
      <path d="M554.477,45.274l.1-.025h.551l.7.6q4.5,4.1,4.5,11.9a19.737,19.737,0,0,1-.724,5.55,13.485,13.485,0,0,1-3.776,6.35c-.116.1-.25.212-.4.337s-.25.213-.3.263h-.3a.942.942,0,0,1-.387-.05c-.058-.034-.087-.117-.087-.25.016-.016.108-.125.275-.325Q558.5,65.6,558.5,57.749t-3.875-11.875c-.167-.2-.259-.309-.275-.325A.293.293,0,0,1,554.477,45.274Z" style="fill: #fff933"/>
      <path d="M570.352,57.749a.544.544,0,0,1,.349-.5h7.475V53.5l.025-3.75c.166-.217.325-.325.475-.325a.546.546,0,0,1,.5.375v7.45h7.45a.521.521,0,0,1,0,1h-7.45V65.7a.532.532,0,0,1-1,0v-7.45H570.7A.543.543,0,0,1,570.352,57.749Z" style="fill: #fff933"/>
      <path d="M596.1,57.049a.415.415,0,0,1-.151-.275,4.752,4.752,0,0,1,.776-1.725,4.287,4.287,0,0,1,2.95-2.05,4.114,4.114,0,0,1,.524-.05,3.035,3.035,0,0,1,1.612.45,2.683,2.683,0,0,1,1.063,1.125c.217-.283.351-.459.4-.525a2.772,2.772,0,0,1,2.125-1.05,2.36,2.36,0,0,1,1.662.587,1.88,1.88,0,0,1,.638,1.438,1.96,1.96,0,0,1-.437,1.3,1.437,1.437,0,0,1-1.162.525,1.1,1.1,0,0,1-.776-.275.936.936,0,0,1-.3-.725,1.589,1.589,0,0,1,1.25-1.575,1.007,1.007,0,0,0-.275-.175,1.423,1.423,0,0,0-.725-.15,1.635,1.635,0,0,0-.474.05,2.619,2.619,0,0,0-1.4,1.65q-.073.2-.724,2.788t-.7,2.912a3.817,3.817,0,0,0-.076.75,1.284,1.284,0,0,0,.35.95,1.253,1.253,0,0,0,.926.35,2.577,2.577,0,0,0,1.9-.887,4.623,4.623,0,0,0,1.151-1.963c.049-.166.1-.263.149-.287a1.217,1.217,0,0,1,.4-.038q.476,0,.475.2c0,.017-.017.108-.05.275a5.427,5.427,0,0,1-1.75,2.7,3.939,3.939,0,0,1-2.474.925,2.883,2.883,0,0,1-2.651-1.575,3.5,3.5,0,0,1-1.849,1.5,3.24,3.24,0,0,1-.651.05,2.181,2.181,0,0,1-2.05-1.025,1.936,1.936,0,0,1-.25-1,1.893,1.893,0,0,1,.451-1.275,1.443,1.443,0,0,1,1.149-.525.939.939,0,0,1,1.075,1.05,1.411,1.411,0,0,1-.875,1.35l-.125.063-.125.062a.183.183,0,0,1-.075.025l-.074.025q0,.075.375.225a1.654,1.654,0,0,0,.649.125,1.845,1.845,0,0,0,1.55-1.125,18.8,18.8,0,0,0,.976-3.25q.149-.574.325-1.275t.261-1.075c.059-.25.1-.4.114-.45a6.136,6.136,0,0,0,.125-.975,1.348,1.348,0,0,0-.325-.95,1.171,1.171,0,0,0-.9-.35,2.613,2.613,0,0,0-1.95.863,4.721,4.721,0,0,0-1.149,1.987c-.035.15-.072.237-.113.263a1.243,1.243,0,0,1-.413.037Z" style="fill: #fff933"/>
      <path d="M610.555,49.421a.813.813,0,0,1-.642-.262.932.932,0,0,1-.233-.641,2.384,2.384,0,0,1,.8-1.8,2.668,2.668,0,0,1,1.9-.751,3.153,3.153,0,0,1,2.077.678,2.844,2.844,0,0,1,1.013,1.77,4.518,4.518,0,0,1,.029.481,2.758,2.758,0,0,1-.51,1.589,9.625,9.625,0,0,1-1.647,1.676q-.525.453-1.457,1.341l-.86.816,1.108.015a17.385,17.385,0,0,0,2.433-.073c.04-.01.088-.112.146-.306a9.053,9.053,0,0,0,.2-.991v-.044h.583v.044l-.408,2.667v.044H609.68V55.4a.963.963,0,0,1,.029-.334q.015-.015,1.225-1.385,1.587-1.762,2.04-2.332a4.225,4.225,0,0,0,.976-2.434,2.543,2.543,0,0,0-.5-1.61,1.675,1.675,0,0,0-1.406-.649,1.6,1.6,0,0,0-1.37.758c-.02.039-.049.092-.087.16a.35.35,0,0,0-.044.087q0,.015.072.015a.742.742,0,0,1,.591.263.9.9,0,0,1,.226.612.866.866,0,0,1-.241.619A.83.83,0,0,1,610.555,49.421Z" style="fill: #fff933"/>
    </g>
    <rect x="549" y="265.5" width="40.5" height="40.5"/>
    <g>
      <path d="M562.95,285.55a.417.417,0,0,1-.15-.275,4.747,4.747,0,0,1,.775-1.725,4.289,4.289,0,0,1,2.95-2.05,4.142,4.142,0,0,1,.525-.05,3.035,3.035,0,0,1,1.612.45,2.689,2.689,0,0,1,1.063,1.125l.4-.525a2.769,2.769,0,0,1,2.125-1.05,2.357,2.357,0,0,1,1.662.587,1.88,1.88,0,0,1,.638,1.438,1.96,1.96,0,0,1-.438,1.3,1.436,1.436,0,0,1-1.162.525,1.1,1.1,0,0,1-.775-.275.936.936,0,0,1-.3-.725,1.589,1.589,0,0,1,1.25-1.575,1.029,1.029,0,0,0-.275-.175,1.425,1.425,0,0,0-.725-.15,1.643,1.643,0,0,0-.475.05,2.62,2.62,0,0,0-1.4,1.65q-.075.2-.725,2.788t-.7,2.912a3.816,3.816,0,0,0-.075.75,1.281,1.281,0,0,0,.35.95,1.252,1.252,0,0,0,.925.35,2.579,2.579,0,0,0,1.9-.887,4.621,4.621,0,0,0,1.15-1.963c.05-.166.1-.263.15-.287a1.208,1.208,0,0,1,.4-.038c.316,0,.475.067.475.2,0,.017-.017.108-.05.275a5.427,5.427,0,0,1-1.75,2.7,3.942,3.942,0,0,1-2.475.925,2.88,2.88,0,0,1-2.65-1.575,3.5,3.5,0,0,1-1.85,1.5,3.222,3.222,0,0,1-.65.05,2.18,2.18,0,0,1-2.05-1.025,1.936,1.936,0,0,1-.25-1,1.892,1.892,0,0,1,.45-1.275,1.447,1.447,0,0,1,1.15-.525.94.94,0,0,1,1.075,1.05,1.411,1.411,0,0,1-.875,1.35l-.125.063-.125.062a.188.188,0,0,1-.075.025l-.075.025q0,.075.375.225a1.659,1.659,0,0,0,.65.125,1.846,1.846,0,0,0,1.55-1.125,18.938,18.938,0,0,0,.975-3.25q.15-.575.325-1.275t.262-1.075c.059-.25.1-.4.113-.45a6.136,6.136,0,0,0,.125-.975,1.344,1.344,0,0,0-.325-.95,1.168,1.168,0,0,0-.9-.35,2.611,2.611,0,0,0-1.95.863,4.734,4.734,0,0,0-1.15,1.987c-.034.15-.071.237-.112.263a1.247,1.247,0,0,1-.413.037Z" style="fill: #83c167"/>
      <path d="M577.4,277.922a.812.812,0,0,1-.641-.262.93.93,0,0,1-.234-.641,2.388,2.388,0,0,1,.795-1.8,2.67,2.67,0,0,1,1.9-.751,3.153,3.153,0,0,1,2.077.678,2.842,2.842,0,0,1,1.012,1.77,4.286,4.286,0,0,1,.03.481,2.758,2.758,0,0,1-.51,1.589,9.625,9.625,0,0,1-1.647,1.676q-.525.453-1.458,1.341l-.86.816,1.109.015a17.4,17.4,0,0,0,2.433-.073c.039-.01.088-.112.146-.306a9.053,9.053,0,0,0,.2-.991v-.044h.583v.044l-.408,2.667v.044h-5.408V283.9a.951.951,0,0,1,.03-.334q.014-.015,1.224-1.385,1.588-1.763,2.04-2.332a4.221,4.221,0,0,0,.977-2.434,2.543,2.543,0,0,0-.5-1.61,1.676,1.676,0,0,0-1.406-.649,1.6,1.6,0,0,0-1.37.758c-.02.039-.049.092-.087.16a.313.313,0,0,0-.044.087q0,.015.072.015a.744.744,0,0,1,.591.263.908.908,0,0,1,.225.612.87.87,0,0,1-.24.619A.831.831,0,0,1,577.4,277.922Z" style="fill: #83c167"/>
    </g>
    <g>
      <path d="M94.831,98.818C109.306,161.134,125.124,223.207,144,284.342c15.27,48.9,32.162,97.545,54.75,143.605C255.9,543.52,319.132,565.388,396,449.825c31.425-47.646,55.535-99.68,78-152.018,27.674-65.306,51.9-132.036,74.584-199.226" style="fill: none;stroke: #fff933;stroke-miterlimit: 54;stroke-width: 1.5px"/>
      <path d="M92.792,90c-.558,4.509-1.966,10.273-3.992,14.118l6.348-4.152,7.535.87C99.149,98.305,95.309,93.782,92.792,90Z" style="fill: #fff933"/>
      <path d="M551.472,90c.115,4.542.954,10.416,2.6,14.441l-5.913-4.753-7.584.131C544.334,97.645,548.6,93.518,551.472,90Z" style="fill: #fff933"/>
    </g>
    <g>
      <path d="M128.7,98.7c154.373,529.319,308.818,527.327,462.61,0" style="fill: none;stroke: #83c167;stroke-miterlimit: 54;stroke-width: 1.5px"/>
      <path d="M126.173,90c-.3,4.534-1.374,10.369-3.177,14.324l6.1-4.509,7.572.437C133,97.927,128.9,93.632,126.173,90Z" style="fill: #83c167"/>
      <path d="M593.827,90c.3,4.534,1.375,10.369,3.177,14.324l-6.1-4.509-7.572.437C587,97.927,591.1,93.632,593.827,90Z" style="fill: #83c167"/>
    </g>
  </g>
</svg>
