<svg width="640" height="360" viewBox="0 0 640 360" fill="none" xmlns="http://www.w3.org/2000/svg">
<g clip-path="url(#clip0_1583_1869)">
<path d="M640 0H0V360H640V0Z" fill="black"/>
<g clip-path="url(#clip1_1583_1869)">
<path d="M0 0H640" stroke="#303030" stroke-width="1.5"/>
<path d="M0 40H640" stroke="#303030" stroke-width="1.5"/>
<path d="M0 80H640" stroke="#303030" stroke-width="1.5"/>
<path d="M0 120H640" stroke="#303030" stroke-width="1.5"/>
<path d="M0 160H640" stroke="#303030" stroke-width="1.5"/>
<path d="M0 200H640" stroke="#303030" stroke-width="1.5"/>
<path d="M0 240H640" stroke="#303030" stroke-width="1.5"/>
<path d="M0 280H640" stroke="#303030" stroke-width="1.5"/>
<path d="M0 320H640" stroke="#303030" stroke-width="1.5"/>
<path d="M0 360H640" stroke="#303030" stroke-width="1.5"/>
<path d="M20 0V360" stroke="#303030" stroke-width="1.5"/>
<path d="M60 0V360" stroke="#303030" stroke-width="1.5"/>
<path d="M100 0V360" stroke="#303030" stroke-width="1.5"/>
<path d="M140 0V360" stroke="#303030" stroke-width="1.5"/>
<path d="M180 0V360" stroke="#303030" stroke-width="1.5"/>
<path d="M220 0V360" stroke="#303030" stroke-width="1.5"/>
<path d="M260 0V360" stroke="#303030" stroke-width="1.5"/>
<path d="M300 0V360" stroke="#303030" stroke-width="1.5"/>
<path d="M340 0V360" stroke="#303030" stroke-width="1.5"/>
<path d="M380 0V360" stroke="#303030" stroke-width="1.5"/>
<path d="M420 0V360" stroke="#303030" stroke-width="1.5"/>
<path d="M460 0V360" stroke="#303030" stroke-width="1.5"/>
<path d="M500 0V360" stroke="#303030" stroke-width="1.5"/>
<path d="M540 0V360" stroke="#303030" stroke-width="1.5"/>
<path d="M580 0V360" stroke="#303030" stroke-width="1.5"/>
<path d="M620 0V360" stroke="#303030" stroke-width="1.5"/>
<path d="M0 20H640" stroke="#505050" stroke-width="1.5"/>
<path d="M0 60H640" stroke="#505050" stroke-width="1.5"/>
<path d="M0 100H640" stroke="#505050" stroke-width="1.5"/>
<path d="M0 140H640" stroke="#505050" stroke-width="1.5"/>
<path d="M0 180H640" stroke="#505050" stroke-width="1.5"/>
<path d="M0 220H640" stroke="#505050" stroke-width="1.5"/>
<path d="M0 260H640" stroke="#505050" stroke-width="1.5"/>
<path d="M0 300H640" stroke="#505050" stroke-width="1.5"/>
<path d="M0 340H640" stroke="#505050" stroke-width="1.5"/>
<path d="M0 0V360" stroke="#505050" stroke-width="1.5"/>
<path d="M40 0V360" stroke="#505050" stroke-width="1.5"/>
<path d="M80 0V360" stroke="#505050" stroke-width="1.5"/>
<path d="M120 0V360" stroke="#505050" stroke-width="1.5"/>
<path d="M160 0V360" stroke="#505050" stroke-width="1.5"/>
<path d="M200 0V360" stroke="#505050" stroke-width="1.5"/>
<path d="M240 0V360" stroke="#505050" stroke-width="1.5"/>
<path d="M280 0V360" stroke="#505050" stroke-width="1.5"/>
<path d="M320 0V360" stroke="#505050" stroke-width="1.5"/>
<path d="M360 0V360" stroke="#505050" stroke-width="1.5"/>
<path d="M400 0V360" stroke="#505050" stroke-width="1.5"/>
<path d="M440 0V360" stroke="#505050" stroke-width="1.5"/>
<path d="M480 0V360" stroke="#505050" stroke-width="1.5"/>
<path d="M520 0V360" stroke="#505050" stroke-width="1.5"/>
<path d="M560 0V360" stroke="#505050" stroke-width="1.5"/>
<path d="M600 0V360" stroke="#505050" stroke-width="1.5"/>
<path d="M640 0V360" stroke="#505050" stroke-width="1.5"/>
</g>
<path d="M0 180H640" stroke="#909090" stroke-width="1.5"/>
<path d="M320 0V360" stroke="#909090" stroke-width="1.5"/>
<path d="M300.746 233.602L288 244L288.671 227.565L293.367 233.267L300.746 233.602Z" fill="#FFF888"/>
<path d="M320 180L289.789 240.422" stroke="#FFF888" stroke-width="1.5"/>
<path d="M437.657 280.823L444 296L428.435 290.682L435.237 287.802L437.657 280.823Z" fill="#F0F0F0"/>
<path d="M320 180L441.079 293.267" stroke="#F0F0F0" stroke-width="1.5"/>
<path d="M431.904 284.853L444 296L427.635 297.66L432.616 292.205L431.904 284.853Z" fill="#D582FF"/>
<path d="M288 244L440.205 294.735" stroke="#D582FF" stroke-width="1.5"/>
<path d="M334.854 202.383H276.464V223.567H334.854V202.383Z" fill="black"/>
<path d="M280.458 216.416C280.458 216.416 280.458 216.33 280.458 216.16C280.458 215.989 280.55 215.858 280.734 215.766H292.17C292.367 215.871 292.465 216.002 292.465 216.16C292.465 216.317 292.367 216.448 292.17 216.553H280.734C280.55 216.461 280.458 216.33 280.458 216.16V216.416Z" fill="#F0F0F0"/>
<path d="M296.008 209.566C296.743 208.503 297.747 207.971 299.02 207.971C299.65 207.971 300.28 208.142 300.91 208.483C301.54 208.824 302.051 209.428 302.445 210.294C302.931 211.383 303.173 212.879 303.173 214.782C303.173 216.816 302.891 218.371 302.327 219.447C302.064 219.998 301.704 220.438 301.244 220.766C300.785 221.094 300.385 221.297 300.044 221.376C299.702 221.455 299.368 221.501 299.04 221.514C298.699 221.514 298.357 221.474 298.016 221.396C297.675 221.317 297.275 221.107 296.816 220.766C296.356 220.425 295.995 219.985 295.733 219.447C295.169 218.371 294.887 216.816 294.887 214.782C294.887 212.499 295.26 210.76 296.008 209.566ZM300.437 209.33C300.044 208.91 299.578 208.7 299.04 208.7C298.489 208.7 298.016 208.91 297.623 209.33C297.294 209.671 297.078 210.143 296.973 210.747C296.868 211.35 296.816 212.61 296.816 214.526C296.816 216.599 296.868 217.964 296.973 218.62C297.078 219.276 297.314 219.795 297.682 220.175C298.049 220.569 298.502 220.766 299.04 220.766C299.565 220.766 300.011 220.569 300.378 220.175C300.759 219.782 300.995 219.23 301.087 218.522C301.179 217.813 301.231 216.481 301.244 214.526C301.244 212.623 301.192 211.37 301.087 210.766C300.982 210.163 300.765 209.684 300.437 209.33Z" fill="#F0F0F0"/>
<path d="M305.496 219.9C305.496 219.585 305.608 219.309 305.831 219.073C306.054 218.837 306.336 218.719 306.677 218.719C306.992 218.719 307.267 218.824 307.504 219.034C307.74 219.244 307.865 219.526 307.878 219.88C307.878 220.208 307.766 220.49 307.543 220.726C307.32 220.963 307.038 221.081 306.697 221.081C306.355 221.081 306.073 220.969 305.85 220.746C305.627 220.523 305.509 220.241 305.496 219.9Z" fill="#F0F0F0"/>
<path d="M310.811 212.873C310.811 212.873 310.811 212.367 310.811 211.357C310.811 210.346 311.165 209.533 311.873 208.916C312.582 208.299 313.396 207.984 314.314 207.971C315.246 207.971 316.073 208.247 316.794 208.798C317.516 209.349 317.877 210.064 317.877 210.944C317.877 211.337 317.805 211.705 317.66 212.046C317.516 212.387 317.346 212.663 317.149 212.873C316.952 213.083 316.748 213.266 316.539 213.424C316.329 213.581 316.158 213.699 316.027 213.778C315.896 213.857 315.823 213.909 315.81 213.935L316.086 214.113C316.269 214.244 316.453 214.375 316.637 214.506C316.821 214.638 316.926 214.71 316.952 214.723C317.936 215.497 318.428 216.475 318.428 217.656C318.428 218.692 318.048 219.591 317.286 220.352C316.525 221.113 315.541 221.501 314.334 221.514C313.153 221.514 312.182 221.179 311.421 220.51C310.66 219.841 310.279 219.014 310.279 218.03C310.279 216.612 311.126 215.431 312.818 214.487L312.464 214.231C312.188 214.06 312.011 213.929 311.933 213.837C311.185 213.194 310.811 212.367 310.811 211.357V212.873ZM315.062 213.483L315.18 213.404C315.259 213.352 315.318 213.312 315.357 213.286C315.397 213.26 315.462 213.214 315.554 213.148C315.646 213.083 315.725 213.017 315.791 212.951C315.856 212.886 315.928 212.807 316.007 212.715C316.086 212.623 316.158 212.538 316.224 212.459C316.289 212.38 316.355 212.275 316.42 212.144C316.486 212.013 316.545 211.901 316.598 211.81C316.65 211.718 316.683 211.587 316.696 211.416C316.709 211.245 316.722 211.101 316.735 210.983C316.735 210.419 316.545 209.94 316.165 209.546C315.784 209.152 315.344 208.903 314.846 208.798C314.754 208.785 314.537 208.778 314.196 208.778C313.658 208.778 313.153 208.949 312.681 209.29C312.208 209.631 311.965 210.058 311.952 210.57C311.952 210.871 312.038 211.147 312.208 211.396C312.379 211.646 312.549 211.836 312.72 211.967C312.89 212.098 313.219 212.308 313.704 212.597C313.796 212.663 313.868 212.709 313.921 212.735L315.062 213.483ZM314.354 220.667C315.115 220.667 315.771 220.444 316.322 219.998C316.873 219.552 317.149 219.014 317.149 218.384C317.149 218.161 317.116 217.951 317.05 217.754C316.985 217.557 316.906 217.393 316.814 217.262C316.722 217.131 316.578 216.986 316.381 216.829C316.184 216.671 316.033 216.553 315.928 216.475C315.823 216.396 315.633 216.271 315.357 216.101C315.082 215.93 314.905 215.819 314.826 215.766C314.642 215.648 314.445 215.523 314.236 215.392C314.026 215.261 313.855 215.149 313.724 215.057L313.566 214.959C313.488 214.959 313.297 215.071 312.995 215.294C312.694 215.517 312.379 215.878 312.051 216.376C311.723 216.875 311.552 217.413 311.539 217.99C311.539 218.765 311.821 219.401 312.385 219.9C312.95 220.398 313.606 220.654 314.354 220.667Z" fill="#F0F0F0"/>
<path d="M327.168 212.341C327.325 212.381 327.942 212.4 329.018 212.4C329.976 212.4 330.494 212.381 330.573 212.341H330.691V213.562H329.313L327.325 218.01C326.525 219.821 326.065 220.805 325.947 220.963C325.842 221.094 325.718 221.159 325.573 221.159C325.547 221.159 325.501 221.159 325.435 221.159C325.37 221.159 325.304 221.153 325.239 221.14H324.943C324.747 221.14 324.589 221.041 324.471 220.844C324.353 220.648 324.071 220.057 323.625 219.073C323.428 218.64 323.27 218.286 323.152 218.01L321.164 213.562H319.786V212.341H319.944C320.141 212.381 320.869 212.4 322.129 212.4C323.533 212.4 324.353 212.381 324.589 212.341H324.766V213.562H323.821L324.865 215.884C325.534 217.393 325.888 218.148 325.928 218.148C325.928 218.135 326.262 217.38 326.931 215.884C327.601 214.388 327.948 213.621 327.975 213.581C327.975 213.568 327.817 213.562 327.502 213.562H327.03V212.341H327.168Z" fill="#FFF888"/>
<path d="M327.748 206.771C327.748 206.666 327.781 206.574 327.847 206.495C327.912 206.416 328.011 206.377 328.142 206.377C328.234 206.377 328.313 206.41 328.378 206.475C328.444 206.528 328.509 206.653 328.575 206.849C328.706 207.335 328.975 207.709 329.382 207.971C329.526 208.063 329.599 208.181 329.599 208.326C329.599 208.444 329.579 208.523 329.54 208.562C329.5 208.601 329.408 208.66 329.264 208.739C328.7 209.028 328.208 209.441 327.788 209.979C327.761 210.005 327.729 210.045 327.689 210.097C327.65 210.15 327.617 210.189 327.591 210.215C327.565 210.242 327.532 210.255 327.492 210.255C327.453 210.255 327.407 210.261 327.355 210.274C327.263 210.274 327.177 210.242 327.099 210.176C327.02 210.11 326.974 210.012 326.961 209.881C326.961 209.631 327.269 209.244 327.886 208.719H324.52L321.154 208.7C320.984 208.582 320.898 208.457 320.898 208.326C320.898 208.234 320.984 208.103 321.154 207.932H328.221C327.906 207.433 327.748 207.046 327.748 206.771Z" fill="#FFF888"/>
<path d="M391.382 260.384H343.896V281.566H391.382V260.384Z" fill="black"/>
<g clip-path="url(#clip2_1583_1869)">
<path d="M350.449 267.704L350.193 267.802C350.01 267.868 349.747 267.933 349.406 267.999C349.065 268.065 348.684 268.11 348.265 268.137H347.891V267.231H348.265C348.881 267.205 349.452 267.107 349.977 266.936C350.502 266.766 350.869 266.608 351.079 266.464C351.289 266.319 351.473 266.175 351.63 266.031C351.656 265.991 351.735 265.972 351.866 265.972C351.984 265.972 352.096 266.011 352.201 266.09V271.975L352.221 277.879C352.312 277.971 352.391 278.03 352.457 278.056C352.522 278.082 352.68 278.109 352.929 278.135C353.178 278.161 353.585 278.174 354.149 278.174H354.661V279.079H354.445C354.169 279.04 353.126 279.02 351.315 279.02C349.531 279.02 348.501 279.04 348.225 279.079H347.989V278.174H348.501C348.789 278.174 349.039 278.174 349.249 278.174C349.459 278.174 349.623 278.168 349.741 278.154C349.859 278.141 349.964 278.122 350.056 278.095C350.147 278.069 350.2 278.056 350.213 278.056C350.226 278.056 350.266 278.023 350.331 277.958C350.397 277.892 350.436 277.866 350.449 277.879V267.704Z" fill="#F0F0F0"/>
<path d="M357.633 277.899C357.633 277.584 357.744 277.308 357.967 277.072C358.191 276.836 358.473 276.718 358.814 276.718C359.129 276.718 359.404 276.823 359.64 277.033C359.877 277.243 360.001 277.525 360.014 277.879C360.014 278.207 359.903 278.489 359.68 278.725C359.457 278.961 359.175 279.079 358.833 279.079C358.492 279.079 358.21 278.968 357.987 278.745C357.764 278.522 357.646 278.24 357.633 277.899Z" fill="#F0F0F0"/>
<path d="M364.069 269.967C363.714 269.967 363.439 269.856 363.242 269.632C363.045 269.409 362.94 269.121 362.927 268.767C362.927 268.045 363.242 267.402 363.872 266.838C364.502 266.274 365.263 265.991 366.155 265.991C366.614 265.991 366.903 265.998 367.021 266.011C367.992 266.169 368.733 266.516 369.245 267.054C369.756 267.592 370.019 268.176 370.032 268.806C370.032 269.488 369.809 270.151 369.363 270.794C368.917 271.437 368.3 271.902 367.513 272.191L367.454 272.23C367.454 272.244 367.513 272.263 367.631 272.289C367.749 272.316 367.939 272.375 368.202 272.467C368.464 272.558 368.713 272.696 368.95 272.88C370.025 273.575 370.563 274.494 370.563 275.635C370.563 276.672 370.157 277.577 369.343 278.351C368.53 279.125 367.5 279.512 366.253 279.512C365.204 279.512 364.298 279.23 363.537 278.666C362.776 278.102 362.396 277.387 362.396 276.521C362.396 276.154 362.514 275.858 362.75 275.635C362.986 275.412 363.281 275.294 363.636 275.281C364.003 275.281 364.305 275.399 364.541 275.635C364.777 275.871 364.895 276.167 364.895 276.521C364.895 276.665 364.876 276.796 364.836 276.915C364.797 277.033 364.751 277.138 364.698 277.229C364.646 277.321 364.574 277.4 364.482 277.466C364.39 277.531 364.311 277.584 364.246 277.623C364.18 277.662 364.115 277.689 364.049 277.702C363.983 277.715 363.931 277.735 363.891 277.761L363.813 277.781C364.482 278.371 365.295 278.666 366.253 278.666C366.975 278.666 367.519 278.318 367.887 277.623C368.11 277.19 368.221 276.527 368.221 275.635V275.242C368.221 273.995 367.801 273.162 366.962 272.742C366.765 272.663 366.365 272.617 365.761 272.604L364.935 272.585L364.876 272.545C364.849 272.506 364.836 272.401 364.836 272.23C364.836 271.994 364.889 271.876 364.994 271.876C365.361 271.876 365.742 271.843 366.135 271.778C366.581 271.712 366.988 271.437 367.355 270.951C367.723 270.466 367.906 269.731 367.906 268.747V268.589C367.906 267.841 367.677 267.323 367.218 267.035C366.929 266.851 366.621 266.759 366.293 266.759C365.873 266.759 365.486 266.831 365.131 266.976C364.777 267.12 364.528 267.271 364.384 267.428C364.239 267.586 364.167 267.664 364.167 267.664H364.226C364.265 267.677 364.318 267.691 364.384 267.704C364.449 267.717 364.515 267.75 364.58 267.802C364.646 267.855 364.725 267.901 364.817 267.94C364.908 267.979 364.974 268.051 365.013 268.156C365.053 268.261 365.105 268.36 365.171 268.452C365.236 268.543 365.256 268.675 365.23 268.845C365.23 269.134 365.138 269.39 364.954 269.613C364.771 269.836 364.475 269.954 364.069 269.967Z" fill="#F0F0F0"/>
<path d="M383.691 270.341C383.848 270.38 384.491 270.4 385.62 270.4C386.604 270.4 387.115 270.38 387.155 270.341H387.253V271.561H385.993L383.081 278.863C383.068 278.876 383.048 278.896 383.022 278.922C382.995 278.948 382.969 278.974 382.943 279.001C382.917 279.027 382.904 279.04 382.904 279.04C382.904 279.04 382.884 279.053 382.844 279.079C382.805 279.106 382.792 279.119 382.805 279.119C382.818 279.119 382.792 279.125 382.726 279.138C382.661 279.152 382.635 279.152 382.648 279.138C382.661 279.125 382.635 279.132 382.569 279.158C382.503 279.184 382.464 279.184 382.451 279.158C382.438 279.132 382.385 279.132 382.293 279.158H382.077C381.854 279.158 381.696 279.093 381.605 278.961C381.513 278.83 381.329 278.41 381.054 277.702C380.844 277.177 380.666 276.737 380.522 276.383L379.577 274.021L378.633 276.383C378.502 276.724 378.331 277.151 378.121 277.662C377.845 278.384 377.662 278.81 377.57 278.942C377.478 279.073 377.321 279.145 377.098 279.158H376.861C376.625 279.158 376.468 279.145 376.389 279.119C376.31 279.093 376.212 279.007 376.094 278.863L373.181 271.561H371.902V270.341H372.04C372.236 270.38 372.945 270.4 374.165 270.4C375.517 270.4 376.31 270.38 376.547 270.341H376.724V271.561H375.779L377.511 275.852L378.928 272.348L378.613 271.561H377.373V270.341H377.511C377.668 270.38 378.305 270.4 379.42 270.4C380.745 270.4 381.506 270.38 381.703 270.341H381.86V271.561H381.368C381.04 271.561 380.876 271.574 380.876 271.601C380.889 271.653 381.204 272.447 381.821 273.982C382.438 275.517 382.753 276.285 382.766 276.285L384.675 271.561H383.553V270.341H383.691Z" fill="#D582FF"/>
<path d="M382.087 264.771C382.087 264.666 382.12 264.574 382.185 264.496C382.251 264.417 382.349 264.378 382.48 264.378C382.572 264.378 382.651 264.41 382.717 264.476C382.782 264.528 382.848 264.653 382.913 264.85C383.045 265.335 383.314 265.709 383.72 265.972C383.865 266.064 383.937 266.182 383.937 266.326C383.937 266.444 383.917 266.523 383.878 266.562C383.838 266.602 383.747 266.661 383.602 266.739C383.038 267.028 382.546 267.441 382.126 267.979C382.1 268.005 382.067 268.045 382.028 268.097C381.988 268.15 381.956 268.189 381.929 268.215C381.903 268.242 381.87 268.255 381.831 268.255C381.792 268.255 381.746 268.261 381.693 268.274C381.601 268.274 381.516 268.242 381.437 268.176C381.359 268.11 381.313 268.012 381.3 267.881C381.3 267.631 381.608 267.244 382.225 266.72H378.859L375.494 266.7C375.323 266.582 375.238 266.457 375.238 266.326C375.238 266.234 375.323 266.103 375.494 265.932H382.559C382.244 265.434 382.087 265.047 382.087 264.771Z" fill="#D582FF"/>
</g>
</g>
<defs>
<clipPath id="clip0_1583_1869">
<rect width="640" height="360" fill="white"/>
</clipPath>
<clipPath id="clip1_1583_1869">
<rect width="640" height="360" fill="white"/>
</clipPath>
<clipPath id="clip2_1583_1869">
<rect width="41.5077" height="17.1042" fill="white" transform="translate(346.257 262.409)"/>
</clipPath>
</defs>
</svg>
