<svg width="640" height="360" viewBox="0 0 640 360" fill="none" xmlns="http://www.w3.org/2000/svg">
<g clip-path="url(#clip0_290_2123)">
<path d="M640 0H0V360H640V0Z" fill="black"/>
<g clip-path="url(#clip1_290_2123)">
<path d="M0 5H640" stroke="#202020" stroke-width="1.5"/>
<path d="M0 55H640" stroke="#202020" stroke-width="1.5"/>
<path d="M0 105H640" stroke="#202020" stroke-width="1.5"/>
<path d="M0 155H640" stroke="#202020" stroke-width="1.5"/>
<path d="M0 205H640" stroke="#202020" stroke-width="1.5"/>
<path d="M0 255H640" stroke="#202020" stroke-width="1.5"/>
<path d="M0 305H640" stroke="#202020" stroke-width="1.5"/>
<path d="M0 355H640" stroke="#202020" stroke-width="1.5"/>
<path d="M45 0V360" stroke="#202020" stroke-width="1.5"/>
<path d="M95 0V360" stroke="#202020" stroke-width="1.5"/>
<path d="M145 0V360" stroke="#202020" stroke-width="1.5"/>
<path d="M195 0V360" stroke="#202020" stroke-width="1.5"/>
<path d="M245 0V360" stroke="#202020" stroke-width="1.5"/>
<path d="M295 0V360" stroke="#202020" stroke-width="1.5"/>
<path d="M345 0V360" stroke="#202020" stroke-width="1.5"/>
<path d="M395 0V360" stroke="#202020" stroke-width="1.5"/>
<path d="M445 0V360" stroke="#202020" stroke-width="1.5"/>
<path d="M495 0V360" stroke="#202020" stroke-width="1.5"/>
<path d="M545 0V360" stroke="#202020" stroke-width="1.5"/>
<path d="M595 0V360" stroke="#202020" stroke-width="1.5"/>
<path d="M0 30H640" stroke="#404040" stroke-width="1.5"/>
<path d="M0 80H640" stroke="#404040" stroke-width="1.5"/>
<path d="M0 130H640" stroke="#404040" stroke-width="1.5"/>
<path d="M0 180H640" stroke="#404040" stroke-width="1.5"/>
<path d="M0 230H640" stroke="#404040" stroke-width="1.5"/>
<path d="M0 280H640" stroke="#404040" stroke-width="1.5"/>
<path d="M0 330H640" stroke="#404040" stroke-width="1.5"/>
<path d="M20 0V360" stroke="#404040" stroke-width="1.5"/>
<path d="M70 0V360" stroke="#404040" stroke-width="1.5"/>
<path d="M120 0V360" stroke="#404040" stroke-width="1.5"/>
<path d="M170 0V360" stroke="#404040" stroke-width="1.5"/>
<path d="M220 0V360" stroke="#404040" stroke-width="1.5"/>
<path d="M270 0V360" stroke="#404040" stroke-width="1.5"/>
<path d="M320 0V360" stroke="#404040" stroke-width="1.5"/>
<path d="M370 0V360" stroke="#404040" stroke-width="1.5"/>
<path d="M420 0V360" stroke="#404040" stroke-width="1.5"/>
<path d="M470 0V360" stroke="#404040" stroke-width="1.5"/>
<path d="M520 0V360" stroke="#404040" stroke-width="1.5"/>
<path d="M570 0V360" stroke="#404040" stroke-width="1.5"/>
<path d="M620 0V360" stroke="#404040" stroke-width="1.5"/>
</g>
<path d="M4 180H636" stroke="#A0A0A0" stroke-width="1.5"/>
<path d="M320 4V356" stroke="#A0A0A0" stroke-width="1.5"/>
<path d="M328.547 24.0682H311.453V44.9318H328.547V24.0682Z" fill="black"/>
<g clip-path="url(#clip2_290_2123)">
<path d="M315.21 30.519C315.21 30.3313 315.31 30.0095 315.511 29.5536C315.712 29.0977 316.034 28.6217 316.477 28.1255C316.919 27.6294 317.415 27.3881 317.965 27.4015C318.515 27.4015 318.957 27.5557 319.293 27.8641C319.628 28.1725 319.802 28.6016 319.816 29.1513C319.789 29.4061 319.769 29.5469 319.755 29.5737C319.755 29.6139 319.648 29.9223 319.433 30.4989C319.219 31.0755 318.998 31.7258 318.77 32.4499C318.542 33.174 318.434 33.7506 318.448 34.1797C318.448 34.7562 318.542 35.1585 318.729 35.3865C318.917 35.6144 319.199 35.7351 319.574 35.7485C319.883 35.7485 320.171 35.6748 320.439 35.5273C320.707 35.3798 320.915 35.2256 321.063 35.0646C321.21 34.9037 321.391 34.6825 321.606 34.4009C321.606 34.3875 321.639 34.2534 321.706 33.9986C321.773 33.7439 321.867 33.3483 321.988 32.812C322.108 32.2756 322.236 31.7795 322.37 31.3236C322.879 29.3122 323.161 28.2596 323.215 28.1658C323.389 27.8037 323.677 27.6227 324.08 27.6227C324.254 27.6227 324.395 27.6696 324.502 27.7635C324.609 27.8574 324.683 27.9378 324.723 28.0049C324.763 28.0719 324.777 28.1322 324.763 28.1859C324.763 28.3602 324.435 29.7681 323.778 32.4097C323.121 35.0512 322.745 36.4994 322.652 36.7542C322.276 37.8671 321.626 38.7521 320.701 39.4091C319.775 40.0662 318.85 40.4014 317.925 40.4148C317.321 40.4148 316.792 40.2673 316.336 39.9723C315.88 39.6773 315.652 39.2348 315.652 38.6448C315.652 38.3498 315.699 38.1018 315.793 37.9006C315.887 37.6995 316.014 37.552 316.175 37.4581C316.336 37.3643 316.47 37.2972 316.577 37.257C316.685 37.2168 316.799 37.1967 316.919 37.1967C317.509 37.1967 317.804 37.4782 317.804 38.0414C317.804 38.3096 317.724 38.5443 317.563 38.7454C317.402 38.9465 317.248 39.0806 317.1 39.1477C316.953 39.2147 316.866 39.2482 316.839 39.2482L316.778 39.2683C316.805 39.3354 316.933 39.4158 317.161 39.5097C317.389 39.6036 317.616 39.6505 317.844 39.6505H318.005C318.233 39.6505 318.408 39.6371 318.528 39.6103C318.971 39.4896 319.38 39.2348 319.755 38.846C320.131 38.4571 320.419 38.0414 320.62 37.5989C320.821 37.1564 320.975 36.781 321.083 36.4726C321.19 36.1642 321.244 35.963 321.244 35.8692L321.123 35.9496C321.042 36.0033 320.915 36.077 320.741 36.1709C320.566 36.2647 320.392 36.3452 320.218 36.4122C319.95 36.4793 319.688 36.5128 319.433 36.5128C318.817 36.5128 318.274 36.3653 317.804 36.0703C317.335 35.7753 317.027 35.2993 316.879 34.6423C316.866 34.5484 316.859 34.3406 316.859 34.0188C316.859 33.2544 317.094 32.2555 317.563 31.0219C318.032 29.7882 318.267 29.0038 318.267 28.6686C318.267 28.6552 318.267 28.6418 318.267 28.6284C318.267 28.5077 318.267 28.4272 318.267 28.387C318.267 28.3468 318.24 28.2999 318.186 28.2462C318.133 28.1926 318.059 28.1658 317.965 28.1658H317.885C317.576 28.1658 317.295 28.2932 317.04 28.5479C316.785 28.8027 316.584 29.0776 316.437 29.3726C316.289 29.6676 316.175 29.9492 316.095 30.2173C316.014 30.4855 315.96 30.633 315.934 30.6598C315.907 30.6866 315.8 30.7001 315.612 30.7001H315.33C315.25 30.6196 315.21 30.5593 315.21 30.519Z" fill="#A0A0A0"/>
</g>
<path d="M614.175 171.698H596.825V188.302H614.175V171.698Z" fill="black"/>
<g clip-path="url(#clip3_290_2123)">
<path d="M601.204 178.109C601.298 177.546 601.66 176.896 602.29 176.158C602.92 175.421 603.698 175.046 604.623 175.032C605.092 175.032 605.521 175.153 605.909 175.394C606.298 175.635 606.586 175.937 606.774 176.299C607.337 175.454 608.014 175.032 608.805 175.032C609.301 175.032 609.73 175.18 610.092 175.475C610.454 175.77 610.642 176.165 610.655 176.661C610.655 177.05 610.561 177.365 610.374 177.606C610.186 177.847 610.005 177.995 609.831 178.049C609.656 178.102 609.502 178.129 609.368 178.129C609.113 178.129 608.906 178.055 608.745 177.908C608.584 177.76 608.504 177.566 608.504 177.325C608.504 176.708 608.839 176.286 609.509 176.058C609.361 175.883 609.093 175.796 608.705 175.796C608.53 175.796 608.403 175.81 608.323 175.837C607.813 176.051 607.438 176.493 607.196 177.164C606.392 180.126 605.99 181.856 605.99 182.352C605.99 182.727 606.097 182.995 606.312 183.156C606.526 183.317 606.761 183.397 607.015 183.397C607.511 183.397 608.001 183.176 608.483 182.734C608.966 182.291 609.294 181.749 609.469 181.105C609.509 180.971 609.549 180.897 609.589 180.884C609.63 180.87 609.737 180.857 609.911 180.844H609.992C610.193 180.844 610.293 180.897 610.293 181.005C610.293 181.018 610.28 181.092 610.253 181.226C610.038 181.99 609.623 182.667 609.006 183.257C608.39 183.847 607.672 184.141 606.855 184.141C605.916 184.141 605.206 183.719 604.723 182.875C604.173 183.706 603.543 184.121 602.833 184.121H602.712C602.055 184.121 601.586 183.947 601.305 183.599C601.023 183.25 600.876 182.881 600.862 182.493C600.862 182.064 600.99 181.715 601.244 181.447C601.499 181.179 601.801 181.045 602.149 181.045C602.726 181.045 603.014 181.326 603.014 181.889C603.014 182.157 602.933 182.392 602.773 182.593C602.612 182.794 602.457 182.928 602.31 182.995C602.163 183.062 602.075 183.096 602.049 183.096L601.988 183.116C601.988 183.129 602.028 183.156 602.109 183.196C602.189 183.237 602.297 183.284 602.431 183.337C602.565 183.391 602.692 183.411 602.813 183.397C603.295 183.397 603.711 183.096 604.059 182.493C604.18 182.278 604.334 181.822 604.522 181.125C604.71 180.428 604.897 179.704 605.085 178.953C605.273 178.203 605.38 177.76 605.407 177.626C605.474 177.264 605.507 177.003 605.507 176.842C605.507 176.467 605.407 176.199 605.206 176.038C605.005 175.877 604.777 175.796 604.522 175.796C603.986 175.796 603.483 176.011 603.014 176.44C602.545 176.869 602.216 177.418 602.028 178.089C602.002 178.209 601.968 178.276 601.928 178.29C601.888 178.303 601.78 178.317 601.606 178.33H601.325C601.244 178.25 601.204 178.176 601.204 178.109Z" fill="#A0A0A0"/>
</g>
<path d="M0 260L640 100" stroke="#F0F0F0"/>
<path d="M320 180L516.119 130.97" stroke="#FFF888" stroke-width="1.5"/>
<path d="M320 180L416.422 228.211" stroke="#6AB0F3" stroke-width="1.5"/>
<path d="M402.353 159.412L420 230" stroke="#F0F0F0" stroke-width="1.5" stroke-dasharray="4.5 4.5"/>
<path d="M418.06 110.145H401.123V130.97H418.06V110.145Z" fill="black"/>
<g clip-path="url(#clip4_290_2123)">
<path d="M411.38 120.438C411.524 120.474 412.091 120.492 413.081 120.492C413.961 120.492 414.438 120.474 414.51 120.438H414.619V121.56H413.352L411.524 125.65C410.789 127.314 410.366 128.219 410.258 128.364C410.161 128.484 410.047 128.545 409.914 128.545C409.89 128.545 409.848 128.545 409.787 128.545C409.727 128.545 409.667 128.539 409.606 128.527H409.335C409.154 128.527 409.009 128.436 408.901 128.255C408.792 128.074 408.533 127.531 408.123 126.627C407.942 126.229 407.797 125.903 407.688 125.65L405.861 121.56H404.594V120.438H404.739C404.92 120.474 405.589 120.492 406.747 120.492C408.038 120.492 408.792 120.474 409.009 120.438H409.172V121.56H408.303L409.263 123.695C409.878 125.083 410.203 125.776 410.24 125.776C410.24 125.764 410.547 125.07 411.163 123.695C411.778 122.32 412.097 121.614 412.122 121.578C412.122 121.566 411.977 121.56 411.687 121.56H411.253V120.438H411.38Z" fill="#FFF888"/>
<path d="M411.913 115.317C411.913 115.22 411.944 115.136 412.004 115.064C412.064 114.991 412.155 114.955 412.275 114.955C412.36 114.955 412.432 114.985 412.493 115.046C412.553 115.094 412.613 115.208 412.673 115.389C412.794 115.836 413.041 116.18 413.415 116.421C413.548 116.505 413.614 116.614 413.614 116.747C413.614 116.855 413.596 116.927 413.56 116.964C413.524 117 413.44 117.054 413.307 117.127C412.788 117.392 412.336 117.772 411.95 118.267C411.926 118.291 411.895 118.327 411.859 118.375C411.823 118.423 411.793 118.46 411.769 118.484C411.745 118.508 411.714 118.52 411.678 118.52C411.642 118.52 411.6 118.526 411.552 118.538C411.467 118.538 411.389 118.508 411.316 118.447C411.244 118.387 411.202 118.297 411.19 118.176C411.19 117.947 411.473 117.591 412.04 117.108H408.946L405.851 117.09C405.695 116.982 405.616 116.867 405.616 116.747C405.616 116.662 405.695 116.541 405.851 116.385H412.348C412.058 115.926 411.913 115.57 411.913 115.317Z" fill="#FFF888"/>
</g>
<path d="M380.699 194.577H359.301V215.423H380.699V194.577Z" fill="black"/>
<g clip-path="url(#clip5_290_2123)">
<path d="M373.594 204.87C373.739 204.906 374.33 204.924 375.367 204.924C376.272 204.924 376.743 204.906 376.779 204.87H376.869V205.992H375.711L373.033 212.706C373.021 212.718 373.003 212.736 372.979 212.76C372.954 212.784 372.93 212.808 372.906 212.833C372.882 212.857 372.87 212.869 372.87 212.869C372.87 212.869 372.852 212.881 372.816 212.905C372.78 212.929 372.767 212.941 372.78 212.941C372.792 212.941 372.767 212.947 372.707 212.959C372.647 212.971 372.623 212.971 372.635 212.959C372.647 212.947 372.623 212.953 372.562 212.977C372.502 213.002 372.466 213.002 372.454 212.977C372.442 212.953 372.393 212.953 372.309 212.977H372.11C371.905 212.977 371.76 212.917 371.676 212.796C371.591 212.676 371.422 212.29 371.169 211.638C370.976 211.156 370.813 210.751 370.68 210.426L369.812 208.254L368.943 210.426C368.822 210.739 368.666 211.132 368.472 211.602C368.219 212.266 368.05 212.658 367.966 212.778C367.881 212.899 367.737 212.965 367.531 212.977H367.314C367.097 212.977 366.952 212.965 366.88 212.941C366.808 212.917 366.717 212.839 366.609 212.706L363.93 205.992H362.754V204.87H362.881C363.062 204.906 363.713 204.924 364.835 204.924C366.078 204.924 366.808 204.906 367.025 204.87H367.188V205.992H366.319L367.911 209.937L369.214 206.716L368.925 205.992H367.785V204.87H367.911C368.056 204.906 368.641 204.924 369.667 204.924C370.885 204.924 371.585 204.906 371.766 204.87H371.911V205.992H371.458C371.157 205.992 371.006 206.004 371.006 206.028C371.018 206.076 371.308 206.806 371.875 208.218C372.442 209.629 372.731 210.335 372.743 210.335L374.499 205.992H373.467V204.87H373.594Z" fill="#6AB0F3"/>
<path d="M372.119 199.749C372.119 199.652 372.149 199.568 372.209 199.495C372.27 199.423 372.36 199.387 372.481 199.387C372.565 199.387 372.638 199.417 372.698 199.477C372.758 199.525 372.819 199.64 372.879 199.821C373 200.267 373.247 200.611 373.621 200.853C373.754 200.937 373.82 201.046 373.82 201.178C373.82 201.287 373.802 201.359 373.766 201.395C373.73 201.432 373.645 201.486 373.512 201.558C372.994 201.824 372.541 202.204 372.155 202.698C372.131 202.723 372.101 202.759 372.065 202.807C372.028 202.855 371.998 202.891 371.974 202.916C371.95 202.94 371.92 202.952 371.884 202.952C371.848 202.952 371.805 202.958 371.757 202.97C371.673 202.97 371.594 202.94 371.522 202.879C371.449 202.819 371.407 202.729 371.395 202.608C371.395 202.379 371.679 202.023 372.246 201.54H369.151L366.057 201.522C365.9 201.414 365.821 201.299 365.821 201.178C365.821 201.094 365.9 200.973 366.057 200.816H372.553C372.264 200.358 372.119 200.002 372.119 199.749Z" fill="#6AB0F3"/>
</g>
<path d="M518.81 126.174C518.525 126.246 518.315 126.188 518.182 126C518.05 125.814 517.872 125.476 517.65 124.988C517.426 124.501 517.175 124.09 516.89 123.753C514.852 121.31 511.841 120.587 507.859 121.582L427.378 141.703C422.311 142.969 418.578 141.853 416.176 138.356C415.704 142.572 413.098 145.273 408.361 146.457L327.502 166.672C326.348 166.96 325.483 167.21 324.911 167.421C323.317 168.058 322.046 169.032 321.099 170.347C320.15 171.662 319.746 173.099 319.885 174.659C319.893 174.691 319.904 174.787 319.919 174.943C319.933 175.1 319.937 175.214 319.929 175.283C319.922 175.354 319.907 175.451 319.887 175.574C319.867 175.699 319.8 175.8 319.688 175.878C319.578 175.958 319.449 176.015 319.301 176.052C318.688 176.205 318.233 172.539 319.247 170.303C320.263 168.068 322.152 166.478 324.914 165.536C325.38 165.386 326.075 165.196 326.999 164.964L407.575 144.82C409.178 144.42 410.527 143.858 411.624 143.134C412.72 142.41 413.473 141.641 413.882 140.826C414.291 140.011 414.568 139.343 414.714 138.823C414.861 138.303 414.922 137.8 414.9 137.313C414.876 137.217 414.854 137.074 414.832 136.885C414.809 136.695 414.814 136.538 414.844 136.41C414.875 136.284 414.899 136.159 414.92 136.036C414.938 135.912 414.998 135.804 415.101 135.71C415.203 135.618 415.325 135.552 415.466 135.517C415.654 135.47 415.814 135.455 415.943 135.474C416.072 135.493 416.184 135.558 416.274 135.671C416.365 135.784 416.439 135.905 416.497 136.035C416.554 136.164 416.634 136.336 416.737 136.548C416.841 136.761 416.939 136.956 417.035 137.136C417.66 138.235 418.668 139.116 420.06 139.778C421.453 140.439 423.069 140.641 424.907 140.386C425.394 140.332 426.109 140.187 427.051 139.952L507.002 119.964C507.948 119.727 508.71 119.567 509.29 119.481C509.869 119.394 510.712 119.41 511.821 119.528C512.929 119.646 513.977 119.959 514.962 120.468C518.137 121.763 519.275 126.058 518.807 126.175L518.81 126.174Z" fill="#FFF888"/>
<path d="M625 173.25L640 180L625 186.75L628 180L625 173.25Z" fill="#A0A0A0"/>
<path d="M326.75 345L320 360L313.25 345L320 348L326.75 345Z" fill="#A0A0A0"/>
<path d="M503.811 127.09L520 130L507.085 140.187L508.358 132.91L503.811 127.09Z" fill="#FFF888"/>
<path d="M409.602 217.254L420 230L403.565 229.329L409.267 224.633L409.602 217.254Z" fill="#6AB0F3"/>
<path d="M320 180L398.472 160.382" stroke="#FF777A" stroke-width="1.5"/>
<path d="M386.164 156.502L402.353 159.412L389.438 169.598L390.711 162.322L386.164 156.502Z" fill="#FF777A"/>
<path d="M15 186.75L0 180L15 173.25L12 180L15 186.75Z" fill="#A0A0A0"/>
<path d="M313.25 15L320 0L326.75 15L320 12L313.25 15Z" fill="#A0A0A0"/>
<path d="M64.3463 109.256C64.4649 109.256 64.5404 109.363 64.5744 109.577C64.6078 109.79 64.6443 110.161 64.6833 110.688C64.7229 111.215 64.7812 111.675 64.8592 112.071C65.4162 114.935 66.5206 116.367 68.1719 116.367H75.2827C77.3835 116.367 78.7317 118.355 79.3283 122.33C79.9238 118.355 81.2046 116.367 83.1685 116.367H90.436C90.9144 116.367 91.2763 116.334 91.5201 116.268C92.2043 116.037 92.7953 115.4 93.2935 114.354C93.7917 113.309 94.0897 112.013 94.1881 110.465C94.1881 110.432 94.1931 110.337 94.2028 110.182C94.2124 110.026 94.222 109.914 94.2322 109.849C94.2418 109.782 94.257 109.692 94.2768 109.577C94.297 109.461 94.333 109.379 94.3837 109.33C94.4344 109.28 94.4901 109.256 94.552 109.256C94.8064 109.256 94.626 112.923 94.0117 114.846C93.3969 116.768 92.5049 117.852 91.3351 118.096C91.1385 118.129 90.8485 118.145 90.4654 118.145H83.3155C82.651 118.145 82.0697 118.363 81.571 118.799C81.0728 119.236 80.7033 119.799 80.4641 120.491C80.2248 121.182 80.0515 121.763 79.9441 122.232C79.8366 122.701 79.7626 123.174 79.7246 123.652C79.7246 123.751 79.719 123.895 79.7094 124.084C79.6998 124.273 79.6825 124.425 79.6582 124.541C79.6339 124.656 79.6121 124.772 79.5923 124.886C79.5731 125.002 79.5386 125.092 79.4894 125.158C79.4408 125.223 79.3865 125.257 79.3283 125.257C79.2502 125.257 79.1863 125.233 79.1377 125.183C79.089 125.133 79.052 125.043 79.0277 124.911C79.0034 124.78 78.9862 124.644 78.9765 124.504C78.9669 124.365 78.9522 124.179 78.9329 123.948C78.9132 123.717 78.8939 123.504 78.8741 123.306C78.7373 122.088 78.4296 120.989 77.9512 120.009C77.4717 119.03 76.861 118.442 76.1185 118.244C75.9234 118.178 75.6299 118.145 75.2391 118.145H68.3477C67.9554 118.145 67.6422 118.116 67.4076 118.059C67.1734 118.002 66.8455 117.782 66.4243 117.399C66.0031 117.016 65.625 116.458 65.29 115.725C64.177 113.699 64.1527 109.256 64.3463 109.256Z" fill="#F0F0F0"/>
<path d="M90.654 130.235H68.2635V157.426H90.654V130.235Z" fill="black"/>
<g clip-path="url(#clip6_290_2123)">
<path d="M80.7705 142.783C80.9314 142.823 81.5614 142.843 82.6605 142.843C83.639 142.843 84.1685 142.823 84.2489 142.783H84.3695V144.029H82.9621L80.9314 148.573C80.1137 150.423 79.6446 151.428 79.5239 151.589C79.4167 151.723 79.2894 151.79 79.1419 151.79C79.1151 151.79 79.0682 151.79 79.0012 151.79C78.9342 151.79 78.8671 151.784 78.8001 151.77H78.4985C78.2975 151.77 78.1366 151.67 78.016 151.469C77.8953 151.268 77.6072 150.664 77.1514 149.659C76.9504 149.217 76.7895 148.855 76.6689 148.573L74.6381 144.029H73.2307V142.783H73.3916C73.5926 142.823 74.3366 142.843 75.6233 142.843C77.0576 142.843 77.8953 142.823 78.1366 142.783H78.3176V144.029H77.3525L78.4181 146.402C79.1017 147.943 79.4636 148.714 79.5038 148.714C79.5038 148.701 79.8456 147.93 80.5293 146.402C81.2129 144.874 81.5681 144.09 81.5949 144.049C81.5949 144.036 81.434 144.029 81.1123 144.029H80.6298V142.783H80.7705Z" fill="#FFF888"/>
<path d="M81.3636 137.093C81.3636 136.985 81.3972 136.892 81.4642 136.811C81.5312 136.731 81.6317 136.691 81.7658 136.691C81.8596 136.691 81.94 136.724 82.007 136.791C82.0741 136.845 82.1411 136.972 82.2081 137.173C82.3421 137.669 82.6169 138.051 83.0325 138.319C83.1799 138.413 83.2536 138.534 83.2536 138.681C83.2536 138.802 83.2335 138.882 83.1933 138.922C83.1531 138.963 83.0593 139.023 82.9118 139.103C82.3354 139.398 81.8328 139.82 81.4039 140.37C81.377 140.397 81.3435 140.437 81.3033 140.491C81.2631 140.544 81.2296 140.584 81.2028 140.611C81.176 140.638 81.1425 140.651 81.1023 140.651C81.0621 140.651 81.0151 140.658 80.9615 140.672C80.8677 140.672 80.7806 140.638 80.7001 140.571C80.6197 140.504 80.5728 140.403 80.5594 140.269C80.5594 140.015 80.8744 139.619 81.5044 139.083H78.0662L74.6281 139.063C74.4538 138.942 74.3667 138.815 74.3667 138.681C74.3667 138.587 74.4538 138.453 74.6281 138.279H81.8462C81.5245 137.77 81.3636 137.374 81.3636 137.093Z" fill="#FFF888"/>
</g>
<path d="M118.866 110.234C119.044 110.234 119.158 110.341 119.209 110.555C119.259 110.768 119.314 111.139 119.372 111.666C119.432 112.193 119.519 112.653 119.636 113.049C120.473 115.913 122.131 117.345 124.611 117.345H135.288C138.442 117.345 140.467 119.333 141.362 123.308C142.257 119.333 144.18 117.345 147.129 117.345H158.041C158.76 117.345 159.303 117.312 159.669 117.246C160.697 117.015 161.584 116.378 162.332 115.332C163.08 114.287 163.528 112.991 163.675 111.443C163.675 111.41 163.683 111.315 163.697 111.16C163.712 111.004 163.726 110.892 163.742 110.827C163.756 110.76 163.779 110.67 163.809 110.555C163.839 110.439 163.893 110.357 163.969 110.308C164.045 110.258 164.129 110.234 164.222 110.234C164.604 110.234 164.333 113.901 163.41 115.824C162.487 117.746 161.148 118.83 159.391 119.074C159.096 119.107 158.661 119.123 158.086 119.123H147.35C146.352 119.123 145.479 119.341 144.73 119.777C143.982 120.214 143.427 120.777 143.068 121.469C142.709 122.16 142.448 122.741 142.287 123.21C142.126 123.679 142.015 124.152 141.958 124.63C141.958 124.729 141.949 124.873 141.935 125.062C141.92 125.251 141.894 125.403 141.858 125.519C141.821 125.634 141.789 125.75 141.759 125.864C141.73 125.98 141.678 126.07 141.604 126.136C141.531 126.201 141.45 126.235 141.362 126.235C141.245 126.235 141.149 126.211 141.076 126.161C141.003 126.111 140.948 126.021 140.911 125.889C140.875 125.758 140.849 125.622 140.834 125.482C140.82 125.343 140.798 125.157 140.769 124.926C140.739 124.695 140.71 124.482 140.681 124.284C140.475 123.066 140.013 121.967 139.295 120.987C138.575 120.008 137.658 119.42 136.543 119.222C136.25 119.156 135.809 119.123 135.222 119.123H124.875C124.286 119.123 123.815 119.094 123.463 119.037C123.111 118.98 122.619 118.76 121.986 118.377C121.354 117.994 120.786 117.436 120.283 116.703C118.612 114.677 118.576 110.234 118.866 110.234Z" fill="#F0F0F0"/>
<path d="M156.499 129.586H128.599V156.803H156.499V129.586Z" fill="black"/>
<g clip-path="url(#clip7_290_2123)">
<path d="M145.592 142.134C145.752 142.174 146.409 142.194 147.562 142.194C148.567 142.194 149.09 142.174 149.13 142.134H149.231V143.381H147.944L144.968 150.841C144.955 150.854 144.935 150.874 144.908 150.901C144.881 150.928 144.854 150.955 144.827 150.981C144.801 151.008 144.787 151.022 144.787 151.022C144.787 151.022 144.767 151.035 144.727 151.062C144.687 151.089 144.673 151.102 144.687 151.102C144.7 151.102 144.673 151.109 144.606 151.122C144.539 151.136 144.512 151.136 144.526 151.122C144.539 151.109 144.512 151.115 144.445 151.142C144.378 151.169 144.338 151.169 144.325 151.142C144.311 151.115 144.258 151.115 144.164 151.142H143.943C143.715 151.142 143.554 151.075 143.46 150.941C143.366 150.807 143.179 150.378 142.897 149.654C142.683 149.118 142.502 148.669 142.354 148.307L141.389 145.894L140.424 148.307C140.29 148.656 140.116 149.091 139.901 149.614C139.62 150.351 139.432 150.787 139.338 150.921C139.244 151.055 139.083 151.129 138.856 151.142H138.614C138.373 151.142 138.212 151.129 138.132 151.102C138.051 151.075 137.951 150.988 137.83 150.841L134.854 143.381H133.547V142.134H133.688C133.889 142.174 134.613 142.194 135.859 142.194C137.24 142.194 138.051 142.174 138.293 142.134H138.473V143.381H137.508L139.278 147.764L140.726 144.185L140.404 143.381H139.137V142.134H139.278C139.439 142.174 140.089 142.194 141.228 142.194C142.582 142.194 143.36 142.174 143.561 142.134H143.722V143.381H143.219C142.884 143.381 142.716 143.394 142.716 143.421C142.73 143.475 143.051 144.286 143.681 145.854C144.311 147.422 144.633 148.207 144.646 148.207L146.597 143.381H145.451V142.134H145.592Z" fill="#6AB0F3"/>
<path d="M143.953 136.444C143.953 136.336 143.986 136.243 144.053 136.162C144.12 136.082 144.221 136.041 144.355 136.041C144.449 136.041 144.529 136.075 144.596 136.142C144.663 136.196 144.73 136.323 144.797 136.524C144.931 137.02 145.206 137.402 145.622 137.67C145.769 137.764 145.843 137.885 145.843 138.032C145.843 138.153 145.823 138.233 145.783 138.273C145.742 138.314 145.648 138.374 145.501 138.454C144.925 138.749 144.422 139.172 143.993 139.721C143.966 139.748 143.933 139.788 143.892 139.842C143.852 139.895 143.819 139.936 143.792 139.962C143.765 139.989 143.732 140.003 143.691 140.003C143.651 140.003 143.604 140.009 143.551 140.023C143.457 140.023 143.37 139.989 143.289 139.922C143.209 139.855 143.162 139.755 143.148 139.621C143.148 139.366 143.463 138.97 144.094 138.434H140.655L137.217 138.414C137.042 138.294 136.955 138.166 136.955 138.032C136.955 137.938 137.042 137.804 137.217 137.63H144.435C144.114 137.121 143.953 136.725 143.953 136.444Z" fill="#6AB0F3"/>
</g>
<path d="M170 47.6204H54.3167V105.169H170V47.6204Z" fill="black"/>
<path d="M533 58.7952H167.068V94.2545H533V58.7952Z" fill="black"/>
<g clip-path="url(#clip8_290_2123)">
<path d="M63.7284 100.321V52.0756H69.1381V53.3225H64.9752V99.0738H69.1381V100.321H63.7284Z" fill="#F0F0F0"/>
<path d="M83.1351 67.1484C82.8937 67.1082 82.029 67.0881 80.5408 67.0881C78.9856 67.0881 78.0873 67.1082 77.846 67.1484H77.665V66.2234H78.2884C78.5566 66.2234 78.7376 66.2234 78.8314 66.2234C78.9253 66.2234 79.0392 66.2099 79.1733 66.1831C79.3074 66.1563 79.4012 66.1228 79.4548 66.0826C79.5085 66.0424 79.5554 65.9887 79.5956 65.9217C79.609 65.8949 79.6157 65.5329 79.6157 64.8357V63.8302H74.4071V62.9051L77.4438 58.2596C79.4951 55.1492 80.5341 53.5873 80.5609 53.5739C80.5877 53.547 80.7285 53.5336 80.9832 53.5336H81.3452L81.4659 53.6543V62.9051H83.3161V63.8302H81.4659V64.8558C81.4659 65.4055 81.4659 65.7273 81.4659 65.8211C81.4659 65.915 81.5061 65.9954 81.5866 66.0625C81.6938 66.1563 82.0759 66.2099 82.7328 66.2234H83.3161V67.1484H83.1351ZM79.7364 62.9051V56.1882L75.3322 62.885L77.5242 62.9051H79.7364Z" fill="#F0F0F0"/>
<path d="M78.1275 83.6792L77.8661 83.7798C77.6784 83.8468 77.4103 83.9139 77.0617 83.9809C76.7131 84.0479 76.3243 84.0949 75.8953 84.1217H75.5132V83.1966H75.8953C76.5254 83.1698 77.1086 83.0692 77.6449 82.8949C78.1812 82.7206 78.5566 82.5598 78.7711 82.4123C78.9856 82.2648 79.1733 82.1173 79.3342 81.9698C79.361 81.9296 79.4414 81.9095 79.5755 81.9095C79.6962 81.9095 79.8101 81.9497 79.9174 82.0302V88.0432L79.9375 94.0764C80.0313 94.1702 80.1118 94.2305 80.1788 94.2574C80.2459 94.2842 80.4067 94.311 80.6615 94.3378C80.9162 94.3646 81.3318 94.378 81.9083 94.378H82.4312V95.3031H82.21C81.9284 95.2629 80.8626 95.2428 79.0124 95.2428C77.1891 95.2428 76.1366 95.2629 75.8551 95.3031H75.6137V94.378H76.1366C76.4316 94.378 76.6863 94.378 76.9008 94.378C77.1153 94.378 77.2829 94.3713 77.4036 94.3579C77.5242 94.3445 77.6315 94.3244 77.7253 94.2976C77.8192 94.2708 77.8728 94.2574 77.8862 94.2574C77.8996 94.2574 77.9398 94.2238 78.0069 94.1568C78.0739 94.0898 78.1141 94.063 78.1275 94.0764V83.6792Z" fill="#F0F0F0"/>
<path d="M88.585 53.3225V52.0756H93.9947V100.321H88.585V99.0738H92.7478V53.3225H88.585Z" fill="#F0F0F0"/>
<path d="M105.019 76.1982C105.019 75.8764 105.133 75.5948 105.361 75.3535C105.589 75.1122 105.877 74.9915 106.226 74.9915C106.548 74.9915 106.829 75.0988 107.071 75.3133C107.312 75.5278 107.439 75.8161 107.453 76.178C107.453 76.5132 107.339 76.8015 107.111 77.0428C106.883 77.2841 106.595 77.4048 106.246 77.4048C105.897 77.4048 105.609 77.2908 105.381 77.0629C105.153 76.835 105.033 76.5467 105.019 76.1982Z" fill="#F0F0F0"/>
<path d="M118.477 100.321V52.0756H123.887V53.3225H119.724V99.0738H123.887V100.321H118.477Z" fill="#F0F0F0"/>
<path d="M138.608 58.521C138.246 58.521 137.958 58.4004 137.743 58.159C137.529 57.9177 137.421 57.6228 137.421 57.2742C137.421 56.3223 137.777 55.4978 138.487 54.8006C139.198 54.1034 140.083 53.7548 141.142 53.7548C142.362 53.7548 143.381 54.1302 144.199 54.881C145.016 55.6318 145.432 56.6038 145.445 57.7971C145.445 58.3736 145.311 58.9232 145.043 59.4461C144.775 59.969 144.453 60.4248 144.078 60.8136C143.702 61.2024 143.166 61.6985 142.469 62.3018C141.986 62.7174 141.316 63.3341 140.458 64.152L139.271 65.2782L140.8 65.2983C142.905 65.2983 144.024 65.2648 144.158 65.1977C144.252 65.1709 144.413 64.5743 144.641 63.4079V63.3476H145.445V63.4079C145.432 63.4481 145.345 64.0581 145.184 65.2379C145.023 66.4178 144.922 67.0345 144.882 67.0881V67.1484H137.421V66.7663V66.525C137.421 66.4312 137.461 66.3306 137.542 66.2234C137.622 66.1161 137.823 65.8815 138.145 65.5195C138.534 65.0905 138.869 64.7151 139.151 64.3933C139.271 64.2592 139.499 64.0112 139.835 63.6492C140.17 63.2872 140.398 63.0392 140.518 62.9051C140.639 62.7711 140.833 62.5498 141.101 62.2415C141.37 61.9331 141.557 61.7052 141.665 61.5577C141.772 61.4102 141.926 61.2091 142.127 60.9544C142.328 60.6997 142.469 60.4852 142.549 60.3109C142.63 60.1366 142.73 59.9422 142.851 59.7277C142.972 59.5132 143.059 59.2986 143.113 59.0841C143.166 58.8696 143.213 58.6685 143.253 58.4808C143.294 58.2931 143.314 58.0719 143.314 57.8172C143.314 56.9725 143.086 56.2418 142.63 55.6251C142.174 55.0084 141.524 54.7 140.679 54.7C140.237 54.7 139.848 54.814 139.513 55.0419C139.178 55.2698 138.943 55.4911 138.809 55.7056C138.675 55.9201 138.608 56.0474 138.608 56.0877C138.608 56.1011 138.641 56.1078 138.708 56.1078C138.95 56.1078 139.198 56.2016 139.452 56.3893C139.707 56.577 139.835 56.8854 139.835 57.3144C139.835 57.6496 139.727 57.9311 139.513 58.159C139.298 58.387 138.997 58.5076 138.608 58.521Z" fill="#F0F0F0"/>
<path d="M130.282 90.5369C130.282 90.5369 130.282 90.4498 130.282 90.2755C130.282 90.1012 130.376 89.9671 130.564 89.8733H142.248C142.449 89.9805 142.549 90.1146 142.549 90.2755C142.549 90.4363 142.449 90.5704 142.248 90.6777H130.564C130.376 90.5838 130.282 90.4498 130.282 90.2755V90.5369Z" fill="#F0F0F0"/>
<path d="M148.522 83.6792L148.261 83.7798C148.073 83.8468 147.805 83.9139 147.456 83.9809C147.108 84.0479 146.719 84.0949 146.29 84.1217H145.908V83.1966H146.29C146.92 83.1698 147.503 83.0692 148.04 82.8949C148.576 82.7206 148.951 82.5598 149.166 82.4123C149.38 82.2648 149.568 82.1173 149.729 81.9698C149.756 81.9296 149.836 81.9095 149.97 81.9095C150.091 81.9095 150.205 81.9497 150.312 82.0302V88.0432L150.332 94.0764C150.426 94.1702 150.506 94.2305 150.573 94.2574C150.641 94.2842 150.801 94.311 151.056 94.3378C151.311 94.3646 151.726 94.378 152.303 94.378H152.826V95.3031H152.605C152.323 95.2629 151.257 95.2428 149.407 95.2428C147.584 95.2428 146.531 95.2629 146.25 95.3031H146.008V94.378H146.531C146.826 94.378 147.081 94.378 147.295 94.378C147.51 94.378 147.678 94.3713 147.798 94.3579C147.919 94.3445 148.026 94.3244 148.12 94.2976C148.214 94.2708 148.267 94.2574 148.281 94.2574C148.294 94.2574 148.335 94.2238 148.402 94.1568C148.469 94.0898 148.509 94.063 148.522 94.0764V83.6792Z" fill="#F0F0F0"/>
<path d="M158.98 53.3225V52.0756H164.389V100.321H158.98V99.0738H163.143V53.3225H158.98Z" fill="#F0F0F0"/>
<path d="M176.09 74.2474C176.09 74.0731 176.184 73.9391 176.371 73.8452H189.182C189.383 73.9525 189.483 74.0866 189.483 74.2474C189.483 74.3949 189.389 74.5223 189.202 74.6295L182.807 74.6497H176.411C176.197 74.5826 176.09 74.4485 176.09 74.2474ZM176.09 78.1489C176.09 77.9478 176.197 77.8137 176.411 77.7467H189.202C189.389 77.8807 189.483 78.0148 189.483 78.1489C189.483 78.3232 189.383 78.4572 189.182 78.5511H176.371C176.184 78.4572 176.09 78.3232 176.09 78.1489Z" fill="#F0F0F0"/>
<path d="M199.253 76.1881C199.253 70.8923 200.835 66.8769 203.999 64.1419H204.562C204.643 64.2224 204.683 64.2827 204.683 64.3229C204.683 64.3765 204.555 64.5441 204.301 64.8257C204.046 65.1072 203.738 65.5295 203.376 66.0926C203.014 66.6557 202.645 67.3529 202.27 68.1841C201.894 69.0154 201.579 70.1348 201.324 71.5426C201.07 72.9503 200.942 74.5055 200.942 76.2082C200.942 77.8975 201.07 79.446 201.324 80.8537C201.579 82.2615 201.887 83.3742 202.249 84.1921C202.611 85.0099 202.98 85.7071 203.355 86.2836C203.731 86.8601 204.046 87.2891 204.301 87.5706C204.555 87.8522 204.683 88.0198 204.683 88.0734C204.683 88.1136 204.643 88.174 204.562 88.2544H203.999C203.61 87.9326 203.235 87.5773 202.873 87.1885C202.511 86.7997 202.102 86.2433 201.646 85.5194C201.19 84.7954 200.795 84.0178 200.46 83.1866C200.124 82.3553 199.843 81.3297 199.615 80.1096C199.387 78.8896 199.266 77.5824 199.253 76.1881Z" fill="#FF777A"/>
<path d="M207.981 68.717C207.887 68.6232 207.813 68.5629 207.76 68.536C207.706 68.5092 207.599 68.4891 207.438 68.4757C207.277 68.4623 206.989 68.4422 206.573 68.4154H205.91V67.4903H206.131C206.292 67.5305 207.27 67.5506 209.067 67.5506C210.971 67.5506 212.083 67.5305 212.405 67.4903H212.647V68.4154H212.104C211.299 68.4154 210.796 68.4288 210.595 68.4556C210.394 68.4824 210.227 68.5696 210.093 68.717L210.072 74.348V78.6315C210.072 79.5968 210.106 80.113 210.173 80.18C210.253 80.2471 210.763 80.2806 211.701 80.2806C212.653 80.2806 213.304 80.2404 213.652 80.1599C214.457 79.932 215.046 79.5499 215.422 79.0136C215.797 78.4773 216.052 77.7332 216.186 76.7814C216.186 76.7143 216.193 76.6004 216.206 76.4395C216.22 76.2786 216.24 76.1244 216.266 75.9769C216.293 75.8295 216.307 75.7557 216.307 75.7557C216.307 75.7557 216.441 75.749 216.709 75.7356H217.111V75.8362C217.084 75.8764 216.99 76.7545 216.83 78.4706C216.669 80.1867 216.575 81.0716 216.548 81.1252V81.2258H205.91V80.3007H206.573C207.136 80.2873 207.478 80.2672 207.599 80.2404C207.719 80.2135 207.847 80.1331 207.981 79.999V68.717Z" fill="#FF777A"/>
<path d="M218.539 76.8417C218.539 76.1043 218.673 75.4339 218.941 74.8306C219.209 74.2273 219.544 73.7379 219.947 73.3625C220.349 72.9871 220.785 72.7056 221.254 72.5179C221.723 72.3302 222.166 72.2297 222.581 72.2162C223.292 72.2162 223.902 72.3369 224.411 72.5782C224.921 72.8196 225.309 73.1547 225.578 73.5838C225.846 74.0128 226.033 74.4418 226.141 74.8708C226.248 75.2999 226.308 75.7758 226.322 76.2987C226.322 76.3925 226.275 76.4864 226.181 76.5802H220.51V76.8819C220.51 78.8661 221.18 80.0727 222.521 80.5018C222.789 80.5822 223.084 80.6224 223.406 80.6224C223.969 80.6224 224.451 80.4079 224.854 79.9789C225.082 79.751 225.263 79.4694 225.397 79.1343L225.598 78.6516C225.638 78.6114 225.745 78.5913 225.919 78.5913H225.98C226.208 78.5913 226.322 78.6583 226.322 78.7924C226.322 78.846 226.302 78.9331 226.261 79.0538C226.007 79.7912 225.584 80.3744 224.994 80.8034C224.405 81.2324 223.741 81.447 223.003 81.447C221.73 81.447 220.671 80.9844 219.826 80.0593C218.981 79.1343 218.552 78.0617 218.539 76.8417ZM224.673 75.6954C224.525 73.9793 223.888 73.0676 222.762 72.9603H222.722C222.615 72.9603 222.507 72.967 222.4 72.9804C222.293 72.9938 222.125 73.0475 221.897 73.1413C221.669 73.2352 221.475 73.3759 221.314 73.5636C221.153 73.7513 220.999 74.0262 220.852 74.3882C220.704 74.7502 220.597 75.1926 220.53 75.7155V75.8562H224.673V75.6954Z" fill="#FF777A"/>
<path d="M227.729 80.3007H228.011C228.534 80.3007 228.849 80.2068 228.956 80.0191V79.8583C228.956 79.7376 228.956 79.5834 228.956 79.3957C228.956 79.208 228.956 79.0002 228.956 78.7723C228.956 78.5444 228.963 78.2829 228.976 77.988C228.99 77.693 228.99 77.4115 228.976 77.1433C228.976 76.7277 228.976 76.2853 228.976 75.816C228.976 75.3468 228.97 74.9513 228.956 74.6295V74.167C228.916 73.9123 228.822 73.7447 228.675 73.6642C228.527 73.5838 228.226 73.5235 227.77 73.4832H227.408V73.0207C227.408 72.7123 227.421 72.5581 227.448 72.5581L227.649 72.538C227.783 72.5246 227.971 72.5112 228.212 72.4978C228.453 72.4844 228.701 72.471 228.956 72.4576C229.184 72.4442 229.425 72.4308 229.68 72.4174C229.935 72.404 230.129 72.3839 230.263 72.357C230.397 72.3302 230.471 72.3235 230.485 72.3369H230.545V73.1414C230.545 73.6508 230.552 73.9056 230.565 73.9056C230.578 73.9056 230.612 73.872 230.666 73.805C230.719 73.738 230.8 73.6374 230.907 73.5033C231.014 73.3693 231.142 73.2486 231.289 73.1414C231.437 73.0341 231.631 72.9067 231.872 72.7593C232.114 72.6118 232.368 72.5045 232.636 72.4375C232.905 72.3704 233.246 72.3369 233.662 72.3369C235.19 72.3906 236.042 73.1481 236.216 74.6094C236.23 74.7033 236.236 75.6351 236.236 77.4048V79.1343C236.236 79.6437 236.25 79.9454 236.276 80.0393C236.303 80.1331 236.377 80.2001 236.498 80.2404C236.779 80.2806 237.108 80.3007 237.483 80.3007H237.805V81.2258H237.644L237.161 81.2057C236.853 81.1923 236.518 81.1855 236.156 81.1855C235.794 81.1855 235.539 81.1788 235.392 81.1654C234.011 81.1654 233.26 81.1855 233.139 81.2258H232.978V80.3007H233.3C234.118 80.3007 234.527 80.1934 234.527 79.9789C234.54 79.9521 234.547 79.027 234.547 77.2037C234.534 75.3937 234.52 74.4351 234.507 74.3279C234.426 73.9525 234.292 73.6709 234.105 73.4832C233.917 73.2955 233.756 73.1816 233.622 73.1414C233.488 73.1011 233.313 73.0877 233.099 73.1011C232.496 73.1011 231.966 73.329 231.51 73.7849C231.148 74.1469 230.92 74.5156 230.826 74.891C230.733 75.2664 230.679 75.8228 230.666 76.5601V77.8472V79.0538C230.666 79.456 230.672 79.7242 230.686 79.8583C230.699 79.9923 230.719 80.0795 230.746 80.1197C230.773 80.1599 230.833 80.2001 230.927 80.2404C231.209 80.2806 231.537 80.3007 231.912 80.3007H232.234V81.2258H232.073L231.611 81.2057C231.289 81.1923 230.947 81.1855 230.585 81.1855C230.223 81.1855 229.968 81.1788 229.821 81.1654C228.44 81.1654 227.689 81.1855 227.569 81.2258H227.408V80.3007H227.729Z" fill="#FF777A"/>
<path d="M244.703 73.0006C245.293 72.4107 245.963 72.1157 246.714 72.1157C247.116 72.1157 247.404 72.2431 247.579 72.4978C247.753 72.7525 247.84 73.0073 247.84 73.262C247.84 73.4497 247.78 73.6173 247.659 73.7648C247.538 73.9123 247.357 73.986 247.116 73.986C246.674 73.986 246.426 73.7849 246.372 73.3827C246.345 73.195 246.365 73.0542 246.432 72.9604C246.432 72.9469 246.439 72.9268 246.452 72.9V72.8799C246.077 72.9201 245.722 73.0676 245.386 73.3223C245.279 73.3894 245.226 73.4363 245.226 73.4631C245.226 73.4765 245.252 73.51 245.306 73.5637C245.36 73.6173 245.42 73.6977 245.487 73.805C245.554 73.9123 245.628 74.0329 245.708 74.167C245.789 74.3011 245.849 74.4753 245.889 74.6899C245.929 74.9044 245.956 75.1256 245.97 75.3535C245.97 76.1847 245.641 76.8886 244.984 77.4651C244.327 78.0416 243.516 78.3366 242.551 78.35C241.881 78.35 241.217 78.1623 240.56 77.7869C240.412 78.0282 240.339 78.2829 240.339 78.5511C240.339 79.0203 240.513 79.3689 240.862 79.5968C240.982 79.6773 241.096 79.7175 241.203 79.7175C241.311 79.7175 241.793 79.7309 242.651 79.7577C243.778 79.7711 244.502 79.8113 244.823 79.8784C245.641 79.999 246.285 80.2739 246.754 80.7029C247.277 81.2258 247.538 81.8827 247.538 82.6737C247.538 83.572 247.015 84.2625 245.97 84.7451C245.165 85.1607 244.213 85.3685 243.114 85.3685C242.001 85.3685 241.043 85.1607 240.238 84.7451C239.192 84.2759 238.67 83.6055 238.67 82.7341C238.67 82.2514 238.81 81.8492 239.092 81.5274C239.373 81.2057 239.655 80.9844 239.937 80.8638L240.158 80.7431C239.675 80.3275 239.434 79.7644 239.434 79.0538C239.434 78.4237 239.628 77.8539 240.017 77.3444C239.427 76.7545 239.132 76.0909 239.132 75.3535C239.132 74.5089 239.467 73.7983 240.138 73.2218C240.808 72.6453 241.619 72.3503 242.571 72.3369C243.255 72.3369 243.892 72.5112 244.481 72.8598L244.703 73.0006ZM244.099 74.3279C244.032 73.9525 243.858 73.6575 243.577 73.443C243.295 73.2285 242.946 73.1145 242.531 73.1011C242.142 73.1011 241.807 73.2084 241.525 73.4229C241.244 73.6374 241.069 73.9391 241.002 74.3279C240.962 74.5558 240.942 74.8977 240.942 75.3535C240.942 75.9434 240.989 76.3791 241.083 76.6607C241.177 76.9422 241.378 77.1769 241.686 77.3646C241.914 77.4986 242.202 77.5657 242.551 77.5657C242.846 77.5657 243.101 77.5187 243.315 77.4249C243.53 77.331 243.684 77.2104 243.778 77.0629C243.871 76.9154 243.945 76.7814 243.999 76.6607C244.052 76.54 244.086 76.4395 244.099 76.359C244.14 76.1445 244.16 75.8093 244.16 75.3535C244.16 74.8977 244.14 74.5558 244.099 74.3279ZM246.191 82.7341C246.191 82.3989 246.097 82.124 245.909 81.9095C245.722 81.695 245.447 81.5408 245.085 81.447C244.723 81.3531 244.394 81.2928 244.099 81.266C243.804 81.2392 243.442 81.2258 243.013 81.2258H242.47C241.572 81.2258 241.036 81.266 240.862 81.3464C240.593 81.4671 240.386 81.6548 240.238 81.9095C240.091 82.1643 240.01 82.4324 239.997 82.7139C239.997 82.848 240.037 83.0022 240.118 83.1765C240.198 83.3508 240.339 83.5519 240.54 83.7798C240.741 84.0077 241.063 84.1954 241.505 84.3429C241.948 84.4904 242.484 84.5708 243.114 84.5842C244.039 84.5842 244.783 84.3965 245.346 84.0211C245.909 83.6457 246.191 83.2167 246.191 82.7341Z" fill="#FF777A"/>
<path d="M248.685 72.7391C249.395 72.6855 249.945 72.3101 250.334 71.613C250.722 70.9158 250.937 70.098 250.977 69.1595V68.8578H251.782V72.5582H254.496V73.4832H251.782V76.3791C251.795 78.055 251.802 79.0002 251.802 79.2147C251.802 79.4292 251.849 79.6437 251.942 79.8583C252.13 80.3811 252.459 80.6426 252.928 80.6426C253.518 80.6426 253.88 80.1666 254.014 79.2147C254.027 79.1075 254.034 78.7991 254.034 78.2896V77.5858H254.838V78.2896V78.531C254.838 79.5633 254.557 80.3476 253.994 80.8839C253.632 81.2459 253.162 81.4269 252.586 81.4269C252.13 81.4269 251.735 81.3464 251.399 81.1856C251.064 81.0247 250.81 80.8169 250.635 80.5621C250.461 80.3074 250.334 80.0728 250.253 79.8583C250.173 79.6437 250.126 79.4292 250.112 79.2147C250.099 79.1209 250.092 78.1288 250.092 76.2384V73.4832H248.504V72.7391H248.685Z" fill="#FF777A"/>
<path d="M256.789 80.3007H257.071C257.593 80.3007 257.909 80.2068 258.016 80.0191V79.8583C258.016 79.7376 258.016 79.5834 258.016 79.3957C258.016 79.208 258.016 78.9868 258.016 78.7321C258.016 78.4773 258.016 78.1891 258.016 77.8673C258.016 77.5455 258.022 77.2104 258.036 76.8618C258.049 76.5132 258.049 76.1445 258.036 75.7557C258.022 75.3669 258.022 74.9848 258.036 74.6094C258.036 74.1134 258.036 73.5905 258.036 73.0408C258.036 72.4911 258.036 71.9883 258.036 71.5325C258.036 71.0767 258.029 70.6745 258.016 70.3259C258.002 69.9773 258.002 69.6823 258.016 69.441C258.029 69.1997 258.029 69.0857 258.016 69.0991C257.976 68.8444 257.882 68.6768 257.734 68.5964C257.587 68.5159 257.285 68.4556 256.829 68.4154H256.467V67.9528C256.467 67.6445 256.481 67.4903 256.508 67.4903L256.709 67.4702C256.843 67.4568 257.037 67.4434 257.292 67.43C257.547 67.4166 257.795 67.4032 258.036 67.3898C258.264 67.3763 258.512 67.3629 258.78 67.3495C259.048 67.3361 259.249 67.316 259.383 67.2892C259.517 67.2624 259.591 67.2557 259.605 67.2691H259.665V73.8452C260.469 72.8397 261.435 72.3369 262.561 72.3369C264.21 72.3369 265.115 73.0944 265.276 74.6094C265.289 74.7033 265.296 75.6351 265.296 77.4048V79.1343C265.296 79.6437 265.309 79.9454 265.336 80.0393C265.363 80.1331 265.437 80.2001 265.557 80.2404C265.839 80.2806 266.167 80.3007 266.543 80.3007H266.864V81.2258H266.704L266.221 81.2057C265.913 81.1923 265.577 81.1855 265.215 81.1855C264.853 81.1855 264.599 81.1788 264.451 81.1654C263.07 81.1654 262.319 81.1855 262.199 81.2258H262.038V80.3007H262.36C263.177 80.3007 263.586 80.1934 263.586 79.9789C263.6 79.9521 263.607 79.027 263.607 77.2037C263.593 75.3937 263.58 74.4351 263.566 74.3279C263.486 73.9525 263.352 73.6709 263.164 73.4832C262.976 73.2955 262.815 73.1816 262.681 73.1414C262.547 73.1011 262.373 73.0877 262.159 73.1011C261.555 73.1011 261.026 73.329 260.57 73.7849C260.208 74.1469 259.98 74.5156 259.886 74.891C259.792 75.2664 259.739 75.8228 259.725 76.5601V77.8472V79.0538C259.725 79.456 259.732 79.7242 259.745 79.8583C259.759 79.9923 259.779 80.0795 259.806 80.1197C259.832 80.1599 259.893 80.2001 259.987 80.2404C260.268 80.2806 260.597 80.3007 260.972 80.3007H261.294V81.2258H261.133L260.67 81.2057C260.349 81.1923 260.007 81.1855 259.645 81.1855C259.283 81.1855 259.028 81.1788 258.881 81.1654C257.5 81.1654 256.749 81.1855 256.628 81.2258H256.467V80.3007H256.789Z" fill="#FF777A"/>
<path d="M272.737 76.9221C272.737 75.6485 273.172 74.5491 274.044 73.624C274.915 72.6989 275.968 72.2297 277.201 72.2163C278.408 72.2163 279.447 72.6721 280.318 73.5838C281.19 74.4955 281.632 75.6015 281.646 76.902C281.646 78.1757 281.217 79.2482 280.359 80.1197C279.501 80.9912 278.448 81.4269 277.201 81.4269C275.901 81.4269 274.835 80.9777 274.004 80.0795C273.172 79.1812 272.75 78.1288 272.737 76.9221ZM277.201 80.6225C278.837 80.6225 279.655 79.5298 279.655 77.3444V76.7009V76.1982C279.655 75.9032 279.648 75.6485 279.635 75.434C279.621 75.2194 279.574 74.9647 279.494 74.6698C279.413 74.3748 279.306 74.1335 279.172 73.9458C279.038 73.7581 278.83 73.5704 278.549 73.3827C278.267 73.195 277.939 73.0609 277.563 72.9805C277.496 72.9671 277.389 72.9604 277.241 72.9604C276.839 72.9604 276.457 73.0408 276.095 73.2017C275.519 73.4966 275.143 73.9056 274.969 74.4284C274.795 74.9513 274.708 75.568 274.708 76.2786V76.6808C274.708 77.9679 274.835 78.8728 275.09 79.3957C275.519 80.2135 276.223 80.6225 277.201 80.6225Z" fill="#FF777A"/>
<path d="M287.719 81.2258C287.478 81.1855 286.626 81.1654 285.165 81.1654C283.784 81.1654 283.033 81.1855 282.913 81.2258H282.752V80.3007H283.073C283.449 80.3007 283.777 80.2806 284.059 80.2404C284.166 80.2001 284.247 80.1264 284.3 80.0191C284.314 79.9923 284.32 78.893 284.32 76.721V73.4832H282.892V72.5581H284.32V71.2309L284.34 69.8835L284.381 69.6823C284.635 68.8109 285.064 68.1808 285.668 67.792C286.271 67.4032 286.908 67.1618 287.578 67.068C287.592 67.068 287.652 67.068 287.759 67.068C287.866 67.068 287.96 67.0613 288.041 67.0479C288.59 67.0881 289.006 67.2624 289.288 67.5707C289.569 67.8791 289.71 68.2277 289.71 68.6165C289.71 68.9249 289.616 69.1729 289.428 69.3606C289.241 69.5483 288.993 69.6421 288.684 69.6421C288.376 69.6421 288.128 69.5483 287.94 69.3606C287.753 69.1729 287.659 68.9249 287.659 68.6165C287.659 68.3483 287.779 68.0802 288.021 67.8121H287.94C287.887 67.7987 287.813 67.792 287.719 67.792C287.344 67.792 287.008 67.9327 286.713 68.2143C286.419 68.4958 286.191 68.8645 286.03 69.3204C285.949 69.5885 285.902 70.2253 285.889 71.2309V72.5581H288.121V73.4832H285.949V76.7009C285.949 78.8728 285.956 79.9722 285.969 79.999C285.983 80.0258 286.003 80.0527 286.03 80.0795C286.057 80.1063 286.09 80.1264 286.13 80.1398C286.17 80.1532 286.204 80.1733 286.231 80.2001C286.258 80.2269 286.305 80.2404 286.372 80.2404C286.439 80.2404 286.486 80.2471 286.512 80.2605C286.539 80.2739 286.6 80.2806 286.693 80.2806C286.787 80.2806 286.848 80.2806 286.874 80.2806C286.901 80.2806 286.968 80.2873 287.075 80.3007C287.183 80.3141 287.25 80.3141 287.277 80.3007H287.9V81.2258H287.719Z" fill="#FF777A"/>
<path d="M294.134 84.2021H294.416C294.939 84.2021 295.254 84.1083 295.361 83.9206V83.7597C295.361 83.6658 295.361 83.5385 295.361 83.3776C295.361 83.2167 295.361 83.0156 295.361 82.7743C295.361 82.5329 295.368 82.2715 295.381 81.99C295.395 81.7084 295.395 81.4135 295.381 81.1051C295.368 80.7967 295.368 80.4683 295.381 80.1197C295.395 79.7711 295.395 79.4292 295.381 79.094C295.381 78.6382 295.381 78.1623 295.381 77.6662C295.381 77.1701 295.381 76.7277 295.381 76.3389C295.381 75.9501 295.381 75.5948 295.381 75.2731C295.381 74.9513 295.374 74.6899 295.361 74.4887C295.348 74.2876 295.348 74.1804 295.361 74.167C295.321 73.9122 295.227 73.7447 295.079 73.6642C294.932 73.5838 294.63 73.5234 294.174 73.4832H293.812V73.0207C293.812 72.7123 293.826 72.5581 293.853 72.5581L294.054 72.538C294.188 72.5246 294.382 72.5112 294.637 72.4978C294.892 72.4844 295.14 72.471 295.381 72.4576C295.609 72.4442 295.857 72.4308 296.125 72.4174C296.393 72.404 296.594 72.3838 296.729 72.357C296.863 72.3302 296.936 72.3235 296.95 72.3369H297.01V72.8598L297.03 73.3827L297.191 73.2419C297.982 72.652 298.907 72.357 299.966 72.357C301.052 72.357 301.977 72.7861 302.742 73.6441C303.506 74.5022 303.895 75.5814 303.908 76.8819C303.908 78.236 303.472 79.3354 302.601 80.18C301.729 81.0247 300.744 81.447 299.645 81.447C298.733 81.447 297.928 81.152 297.231 80.5621L297.07 80.4213V82.1307V83.2569C297.07 83.6189 297.084 83.8401 297.111 83.9206C297.137 84.001 297.211 84.0747 297.332 84.1418C297.613 84.182 297.942 84.2021 298.317 84.2021H298.639V85.1272H298.478L297.995 85.1071C297.687 85.0937 297.352 85.087 296.99 85.087C296.628 85.087 296.373 85.0803 296.226 85.0669C294.845 85.0669 294.094 85.087 293.973 85.1272H293.812V84.2021H294.134ZM301.937 76.8417C301.937 75.8496 301.709 74.9848 301.253 74.2474C300.798 73.51 300.228 73.1413 299.544 73.1413C298.592 73.1413 297.768 73.5771 297.07 74.4485V79.2549C297.607 80.2202 298.357 80.7029 299.323 80.7029C300.007 80.7029 300.61 80.3409 301.133 79.6169C301.656 78.8929 301.924 77.9679 301.937 76.8417Z" fill="#FF777A"/>
<path d="M305.316 80.3007H305.597C306.12 80.3007 306.435 80.2068 306.542 80.0191V79.8583C306.542 79.7376 306.542 79.5834 306.542 79.3957C306.542 79.208 306.549 79.0002 306.563 78.7723C306.576 78.5444 306.576 78.2829 306.563 77.988C306.549 77.693 306.549 77.4115 306.563 77.1433C306.563 76.7277 306.563 76.2853 306.563 75.816C306.563 75.3468 306.563 74.9513 306.563 74.6295L306.542 74.167C306.502 73.9123 306.408 73.7447 306.261 73.6642C306.113 73.5838 305.812 73.5235 305.356 73.4832H304.994V73.0207C304.994 72.7123 305.007 72.5581 305.034 72.5581L305.235 72.538C305.369 72.5246 305.557 72.5112 305.798 72.4978C306.04 72.4844 306.281 72.471 306.522 72.4576C306.737 72.4442 306.971 72.4308 307.226 72.4174C307.481 72.404 307.675 72.3839 307.809 72.357C307.943 72.3302 308.017 72.3235 308.031 72.3369H308.091V73.7246C308.614 72.8129 309.264 72.357 310.042 72.357H310.162C310.766 72.357 311.208 72.5045 311.49 72.7995C311.771 73.0944 311.912 73.4028 311.912 73.7246C311.912 74.0061 311.825 74.2474 311.65 74.4485C311.476 74.6496 311.221 74.7502 310.886 74.7502C310.551 74.7502 310.303 74.6429 310.142 74.4284C309.981 74.2139 309.894 73.986 309.881 73.7447C309.881 73.624 309.894 73.5167 309.921 73.4229C309.948 73.329 309.981 73.2486 310.022 73.1816C310.062 73.1145 310.082 73.081 310.082 73.081C310.055 73.0542 309.901 73.081 309.619 73.1615C309.405 73.2687 309.244 73.3693 309.137 73.4631C308.507 74.0664 308.191 75.2664 308.191 77.0629V78.1288C308.191 78.303 308.191 78.484 308.191 78.6717C308.191 78.8594 308.191 79.0337 308.191 79.1946C308.191 79.3555 308.198 79.4896 308.212 79.5968C308.225 79.7041 308.225 79.8046 308.212 79.8985V79.999C308.225 80.0258 308.245 80.0527 308.272 80.0795C308.299 80.1063 308.332 80.1264 308.372 80.1398C308.413 80.1532 308.446 80.1733 308.473 80.2001C308.5 80.2269 308.547 80.2404 308.614 80.2404C308.681 80.2404 308.728 80.2471 308.755 80.2605C308.781 80.2739 308.842 80.2806 308.936 80.2806C309.029 80.2806 309.09 80.2806 309.117 80.2806C309.143 80.2806 309.21 80.2873 309.318 80.3007C309.425 80.3141 309.492 80.3141 309.519 80.3007H310.142V81.2258H309.961C309.72 81.1855 308.869 81.1654 307.407 81.1654C306.026 81.1654 305.275 81.1855 305.155 81.2258H304.994V80.3007H305.316Z" fill="#FF777A"/>
<path d="M313.038 76.9221C313.038 75.6485 313.474 74.5491 314.345 73.624C315.217 72.6989 316.269 72.2297 317.503 72.2163C318.709 72.2163 319.748 72.6721 320.62 73.5838C321.491 74.4955 321.934 75.6015 321.947 76.902C321.947 78.1757 321.518 79.2482 320.66 80.1197C319.802 80.9912 318.749 81.4269 317.503 81.4269C316.202 81.4269 315.136 80.9777 314.305 80.0795C313.474 79.1812 313.051 78.1288 313.038 76.9221ZM317.503 80.6225C319.138 80.6225 319.956 79.5298 319.956 77.3444V76.7009V76.1982C319.956 75.9032 319.949 75.6485 319.936 75.434C319.923 75.2194 319.876 74.9647 319.795 74.6698C319.715 74.3748 319.608 74.1335 319.473 73.9458C319.339 73.7581 319.132 73.5704 318.85 73.3827C318.568 73.195 318.24 73.0609 317.865 72.9805C317.798 72.9671 317.69 72.9604 317.543 72.9604C317.141 72.9604 316.759 73.0408 316.397 73.2017C315.82 73.4966 315.445 73.9056 315.27 74.4284C315.096 74.9513 315.009 75.568 315.009 76.2786V76.6808C315.009 77.9679 315.136 78.8728 315.391 79.3957C315.82 80.2135 316.524 80.6225 317.503 80.6225Z" fill="#FF777A"/>
<path d="M324.501 68.9785C324.501 68.6031 324.622 68.3082 324.863 68.0936C325.104 67.8791 325.399 67.7719 325.748 67.7719C326.056 67.7987 326.324 67.9127 326.552 68.1138C326.78 68.3149 326.894 68.6031 326.894 68.9785C326.894 69.3807 326.78 69.6824 326.552 69.8835C326.324 70.0846 326.043 70.1851 325.708 70.1851C325.373 70.1851 325.091 70.0846 324.863 69.8835C324.635 69.6824 324.515 69.3807 324.501 68.9785ZM323.093 84.5038C323.496 84.5708 323.737 84.6044 323.817 84.6044C324.622 84.6044 325.098 83.9943 325.245 82.7743C325.272 82.6134 325.285 81.1521 325.285 78.3902C325.285 75.6284 325.279 74.2072 325.265 74.1268C325.212 73.8855 325.104 73.7246 324.944 73.6441C324.783 73.5637 324.461 73.5101 323.978 73.4833H323.576V73.0207C323.576 72.7124 323.589 72.5582 323.616 72.5582L323.697 72.5381C323.75 72.5381 323.831 72.5381 323.938 72.5381C324.045 72.5381 324.159 72.5314 324.28 72.518C324.401 72.5045 324.541 72.4978 324.702 72.4978C324.863 72.4978 325.031 72.4844 325.205 72.4576C325.446 72.4442 325.701 72.4308 325.969 72.4174C326.237 72.404 326.445 72.3839 326.593 72.3571C326.74 72.3303 326.821 72.3236 326.834 72.337H326.914V77.5255C326.901 80.475 326.894 82.104 326.894 82.4123C326.894 82.7207 326.854 82.9821 326.774 83.1966C326.559 83.8268 326.17 84.3429 325.607 84.7451C325.044 85.1473 324.407 85.3484 323.697 85.3484C323.04 85.3484 322.497 85.1742 322.068 84.8256C321.639 84.477 321.424 84.0614 321.424 83.5787C321.424 83.2704 321.525 83.0156 321.726 82.8145C321.927 82.6134 322.182 82.5129 322.49 82.5129C322.798 82.5129 323.053 82.6134 323.254 82.8145C323.455 83.0156 323.563 83.2771 323.576 83.5988C323.576 83.934 323.415 84.2357 323.093 84.5038Z" fill="#FF777A"/>
<path d="M329.247 76.8417C329.247 76.1043 329.381 75.4339 329.649 74.8306C329.918 74.2273 330.253 73.7379 330.655 73.3625C331.057 72.9871 331.493 72.7056 331.962 72.5179C332.431 72.3302 332.874 72.2297 333.289 72.2162C334 72.2162 334.61 72.3369 335.119 72.5782C335.629 72.8196 336.018 73.1547 336.286 73.5838C336.554 74.0128 336.742 74.4418 336.849 74.8708C336.956 75.2999 337.017 75.7758 337.03 76.2987C337.03 76.3925 336.983 76.4864 336.889 76.5802H331.218V76.8819C331.218 78.8661 331.888 80.0727 333.229 80.5018C333.497 80.5822 333.792 80.6224 334.114 80.6224C334.677 80.6224 335.16 80.4079 335.562 79.9789C335.79 79.751 335.971 79.4694 336.105 79.1343L336.306 78.6516C336.346 78.6114 336.453 78.5913 336.628 78.5913H336.688C336.916 78.5913 337.03 78.6583 337.03 78.7924C337.03 78.846 337.01 78.9331 336.97 79.0538C336.715 79.7912 336.293 80.3744 335.703 80.8034C335.113 81.2324 334.449 81.447 333.712 81.447C332.438 81.447 331.379 80.9844 330.534 80.0593C329.69 79.1343 329.261 78.0617 329.247 76.8417ZM335.381 75.6954C335.233 73.9793 334.597 73.0676 333.47 72.9603H333.43C333.323 72.9603 333.216 72.967 333.108 72.9804C333.001 72.9938 332.834 73.0475 332.606 73.1413C332.378 73.2352 332.183 73.3759 332.022 73.5636C331.862 73.7513 331.707 74.0262 331.56 74.3882C331.412 74.7502 331.305 75.1926 331.238 75.7155V75.8562H335.381V75.6954Z" fill="#FF777A"/>
<path d="M345.054 75.092C345.054 75.092 344.913 75.092 344.632 75.092C344.35 75.092 344.109 74.9915 343.908 74.7904C343.707 74.5893 343.599 74.3346 343.586 74.0262C343.586 73.7178 343.686 73.4631 343.888 73.262C343.955 73.195 343.988 73.1547 343.988 73.1413C343.988 73.1279 343.921 73.1145 343.787 73.1011C343.438 73.0475 343.11 73.0207 342.802 73.0207C342.145 73.0207 341.608 73.2352 341.193 73.6642C340.563 74.2943 340.248 75.3468 340.248 76.8215C340.248 77.9209 340.455 78.7857 340.871 79.4158C341.421 80.2336 342.158 80.6425 343.083 80.6425C343.633 80.6425 344.075 80.4683 344.41 80.1197C344.746 79.7711 344.987 79.3555 345.134 78.8728C345.161 78.7656 345.195 78.6985 345.235 78.6717C345.275 78.6449 345.382 78.6315 345.557 78.6315H345.838C345.919 78.7119 345.959 78.7723 345.959 78.8125C345.959 78.8661 345.932 78.9734 345.879 79.1343C345.825 79.2951 345.718 79.5164 345.557 79.7979C345.396 80.0794 345.201 80.3342 344.974 80.5621C344.746 80.79 344.424 80.9978 344.008 81.1855C343.593 81.3732 343.13 81.4604 342.621 81.447C341.468 81.447 340.462 81.0179 339.604 80.1599C338.746 79.3018 338.31 78.2226 338.297 76.9221C338.297 75.5278 338.733 74.3949 339.604 73.5234C340.476 72.652 341.488 72.2162 342.641 72.2162C343.794 72.2162 344.598 72.3972 345.054 72.7592C345.51 73.1212 345.738 73.5502 345.738 74.0463C345.738 74.3547 345.624 74.6027 345.396 74.7904L345.054 75.092Z" fill="#FF777A"/>
<path d="M347.085 72.7391C347.796 72.6855 348.345 72.3101 348.734 71.613C349.123 70.9158 349.338 70.098 349.378 69.1595V68.8578H350.182V72.5582H352.897V73.4832H350.182V76.3791C350.196 78.055 350.202 79.0002 350.202 79.2147C350.202 79.4292 350.249 79.6437 350.343 79.8583C350.531 80.3811 350.859 80.6426 351.328 80.6426C351.918 80.6426 352.28 80.1666 352.414 79.2147C352.428 79.1075 352.435 78.7991 352.435 78.2896V77.5858H353.239V78.2896V78.531C353.239 79.5633 352.957 80.3476 352.394 80.8839C352.032 81.2459 351.563 81.4269 350.987 81.4269C350.531 81.4269 350.135 81.3464 349.8 81.1856C349.465 81.0247 349.21 80.8169 349.036 80.5621C348.862 80.3074 348.734 80.0728 348.654 79.8583C348.573 79.6437 348.526 79.4292 348.513 79.2147C348.5 79.1209 348.493 78.1288 348.493 76.2384V73.4832H346.904V72.7391H347.085Z" fill="#FF777A"/>
<path d="M354.928 76.8417C354.928 76.1043 355.062 75.4339 355.33 74.8306C355.599 74.2273 355.934 73.7379 356.336 73.3625C356.738 72.9871 357.174 72.7056 357.643 72.5179C358.112 72.3302 358.555 72.2297 358.97 72.2162C359.681 72.2162 360.291 72.3369 360.8 72.5782C361.31 72.8196 361.699 73.1547 361.967 73.5838C362.235 74.0128 362.423 74.4418 362.53 74.8708C362.637 75.2999 362.698 75.7758 362.711 76.2987C362.711 76.3925 362.664 76.4864 362.57 76.5802H356.899V76.8819C356.899 78.8661 357.569 80.0727 358.91 80.5018C359.178 80.5822 359.473 80.6224 359.795 80.6224C360.358 80.6224 360.841 80.4079 361.243 79.9789C361.471 79.751 361.652 79.4694 361.786 79.1343L361.987 78.6516C362.027 78.6114 362.134 78.5913 362.309 78.5913H362.369C362.597 78.5913 362.711 78.6583 362.711 78.7924C362.711 78.846 362.691 78.9331 362.651 79.0538C362.396 79.7912 361.974 80.3744 361.384 80.8034C360.794 81.2324 360.13 81.447 359.393 81.447C358.119 81.447 357.06 80.9844 356.215 80.0593C355.371 79.1343 354.942 78.0617 354.928 76.8417ZM361.062 75.6954C360.914 73.9793 360.278 73.0676 359.151 72.9603H359.111C359.004 72.9603 358.897 72.967 358.789 72.9804C358.682 72.9938 358.515 73.0475 358.287 73.1413C358.059 73.2352 357.864 73.3759 357.703 73.5636C357.543 73.7513 357.388 74.0262 357.241 74.3882C357.093 74.7502 356.986 75.1926 356.919 75.7155V75.8562H361.062V75.6954Z" fill="#FF777A"/>
<path d="M370.856 71.2711C370.856 71.0565 370.856 70.7884 370.856 70.4666C370.856 70.1449 370.863 69.9236 370.876 69.803C370.876 69.1997 370.809 68.8243 370.675 68.6768C370.541 68.5293 370.199 68.4422 369.649 68.4154H369.287V67.9528C369.287 67.6445 369.301 67.4903 369.327 67.4903L369.529 67.4702C369.663 67.4568 369.857 67.4434 370.112 67.4299C370.366 67.4165 370.614 67.4031 370.856 67.3897C371.084 67.3763 371.332 67.3629 371.6 67.3495C371.868 67.3361 372.069 67.316 372.203 67.2892C372.337 67.2624 372.411 67.2557 372.424 67.2691H372.485V73.3827C372.485 77.4852 372.491 79.5566 372.505 79.5968C372.545 79.8649 372.639 80.0392 372.786 80.1197C372.934 80.2001 373.236 80.2604 373.691 80.3007H374.053V81.2257C374.027 81.2257 373.517 81.2593 372.525 81.3263C371.533 81.3933 371.003 81.4336 370.936 81.447H370.795V80.3409L370.635 80.4817C369.857 81.1252 368.986 81.447 368.02 81.447C366.988 81.447 366.056 81.038 365.225 80.2202C364.394 79.4024 363.978 78.2963 363.978 76.902C363.978 75.5613 364.4 74.4686 365.245 73.624C366.09 72.7793 367.075 72.3503 368.201 72.3369C369.207 72.3369 370.092 72.6654 370.856 73.3223V71.2711ZM370.795 74.348C370.192 73.5033 369.435 73.081 368.523 73.081C367.866 73.081 367.283 73.3223 366.773 73.805C366.411 74.1804 366.183 74.6094 366.09 75.092C365.996 75.5747 365.942 76.2048 365.929 76.9824C365.929 77.7332 365.976 78.3432 366.07 78.8125C366.163 79.2817 366.398 79.6906 366.773 80.0392C367.176 80.4817 367.698 80.7029 368.342 80.7029C369.294 80.7029 370.112 80.1867 370.795 79.1544V74.348Z" fill="#FF777A"/>
<path d="M392.052 72.2967C392.213 72.337 392.87 72.3571 394.023 72.3571C395.029 72.3571 395.552 72.337 395.592 72.2967H395.692V73.5436H394.405L391.429 81.0046C391.415 81.018 391.395 81.0381 391.369 81.0649C391.342 81.0917 391.315 81.1185 391.288 81.1454C391.261 81.1722 391.248 81.1856 391.248 81.1856C391.248 81.1856 391.228 81.199 391.188 81.2258C391.147 81.2526 391.134 81.266 391.147 81.266C391.161 81.266 391.134 81.2727 391.067 81.2861C391 81.2995 390.973 81.2995 390.986 81.2861C391 81.2727 390.973 81.2794 390.906 81.3062C390.839 81.3331 390.799 81.3331 390.785 81.3062C390.772 81.2794 390.718 81.2794 390.624 81.3062H390.403C390.175 81.3062 390.014 81.2392 389.921 81.1051C389.827 80.9711 389.639 80.542 389.357 79.8181C389.143 79.2818 388.962 78.8327 388.814 78.4707L387.849 76.0574L386.884 78.4707C386.75 78.8192 386.576 79.255 386.361 79.7778C386.079 80.5152 385.892 80.951 385.798 81.085C385.704 81.2191 385.543 81.2928 385.315 81.3062H385.074C384.833 81.3062 384.672 81.2928 384.591 81.266C384.511 81.2392 384.41 81.1521 384.29 81.0046L381.313 73.5436H380.006V72.2967H380.147C380.348 72.337 381.072 72.3571 382.319 72.3571C383.7 72.3571 384.511 72.337 384.752 72.2967H384.933V73.5436H383.968L385.738 77.9277L387.186 74.348L386.864 73.5436H385.597V72.2967H385.738C385.898 72.337 386.549 72.3571 387.688 72.3571C389.042 72.3571 389.82 72.337 390.021 72.2967H390.182V73.5436H389.679C389.344 73.5436 389.176 73.557 389.176 73.5838C389.19 73.6374 389.512 74.4486 390.142 76.0172C390.772 77.5858 391.094 78.3701 391.107 78.3701L393.058 73.5436H391.912V72.2967H392.052Z" fill="#FF777A"/>
<path d="M390.413 66.6055C390.413 66.4982 390.447 66.4043 390.514 66.3239C390.581 66.2435 390.681 66.2032 390.815 66.2032C390.909 66.2032 390.99 66.2368 391.057 66.3038C391.124 66.3574 391.191 66.4848 391.258 66.6859C391.392 67.182 391.667 67.5641 392.082 67.8322C392.23 67.926 392.304 68.0467 392.304 68.1942C392.304 68.3148 392.284 68.3953 392.243 68.4355C392.203 68.4757 392.109 68.5361 391.962 68.6165C391.385 68.9115 390.882 69.3338 390.453 69.8835C390.427 69.9103 390.393 69.9505 390.353 70.0041C390.313 70.0578 390.279 70.098 390.252 70.1248C390.226 70.1516 390.192 70.165 390.152 70.165C390.112 70.165 390.065 70.1717 390.011 70.1851C389.917 70.1851 389.83 70.1516 389.75 70.0846C389.669 70.0175 389.622 69.917 389.609 69.7829C389.609 69.5282 389.924 69.1327 390.554 68.5964H387.115L383.676 68.5763C383.502 68.4556 383.415 68.3283 383.415 68.1942C383.415 68.1003 383.502 67.9663 383.676 67.792H390.896C390.574 67.2825 390.413 66.887 390.413 66.6055Z" fill="#FF777A"/>
<path d="M402.349 76.1881C402.349 81.4973 400.767 85.5194 397.603 88.2544H397.341C397.167 88.2544 397.053 88.241 396.999 88.2142C396.946 88.1874 396.919 88.127 396.919 88.0332C396.946 87.9661 397.113 87.7583 397.422 87.4098C397.73 87.0612 398.052 86.6053 398.387 86.0422C398.722 85.4791 399.071 84.7887 399.433 83.9709C399.795 83.153 400.09 82.0604 400.318 80.6928C400.546 79.3253 400.659 77.8305 400.659 76.2082C400.659 74.586 400.546 73.0911 400.318 71.7236C400.09 70.3561 399.795 69.2634 399.433 68.4456C399.071 67.6277 398.722 66.9306 398.387 66.3541C398.052 65.7776 397.73 65.3284 397.422 65.0067C397.113 64.6849 396.946 64.4704 396.919 64.3631C396.919 64.2157 397.019 64.1419 397.221 64.1419H397.341H397.603C399.319 65.5765 400.572 67.4803 401.363 69.8533C402.02 71.7437 402.349 73.8553 402.349 76.1881Z" fill="#FF777A"/>
<path d="M411.835 76.1881C411.835 70.8923 413.417 66.8769 416.581 64.1419H417.144C417.225 64.2224 417.265 64.2827 417.265 64.3229C417.265 64.3765 417.137 64.5441 416.883 64.8257C416.628 65.1072 416.32 65.5295 415.958 66.0926C415.596 66.6557 415.227 67.3529 414.852 68.1841C414.476 69.0154 414.161 70.1348 413.906 71.5426C413.652 72.9503 413.524 74.5055 413.524 76.2082C413.524 77.8975 413.652 79.446 413.906 80.8537C414.161 82.2615 414.469 83.3742 414.831 84.1921C415.193 85.0099 415.562 85.7071 415.938 86.2836C416.313 86.8601 416.628 87.2891 416.883 87.5706C417.137 87.8522 417.265 88.0198 417.265 88.0734C417.265 88.1136 417.225 88.174 417.144 88.2544H416.581C416.192 87.9326 415.817 87.5773 415.455 87.1885C415.093 86.7997 414.684 86.2433 414.228 85.5194C413.772 84.7954 413.377 84.0178 413.042 83.1866C412.706 82.3553 412.425 81.3297 412.197 80.1096C411.969 78.8896 411.848 77.5824 411.835 76.1881Z" fill="#FFF888"/>
<path d="M420.563 68.717C420.469 68.6232 420.395 68.5629 420.342 68.536C420.288 68.5092 420.181 68.4891 420.02 68.4757C419.859 68.4623 419.571 68.4422 419.155 68.4154H418.492V67.4903H418.713C418.874 67.5305 419.852 67.5506 421.649 67.5506C423.553 67.5506 424.665 67.5305 424.987 67.4903H425.229V68.4154H424.686C423.881 68.4154 423.378 68.4288 423.177 68.4556C422.976 68.4824 422.809 68.5696 422.675 68.717L422.654 74.348V78.6315C422.654 79.5968 422.688 80.113 422.755 80.18C422.835 80.2471 423.345 80.2806 424.283 80.2806C425.235 80.2806 425.886 80.2404 426.234 80.1599C427.039 79.932 427.628 79.5499 428.004 79.0136C428.379 78.4773 428.634 77.7332 428.768 76.7814C428.768 76.7143 428.775 76.6004 428.788 76.4395C428.802 76.2786 428.822 76.1244 428.848 75.9769C428.875 75.8295 428.889 75.7557 428.889 75.7557C428.889 75.7557 429.023 75.749 429.291 75.7356H429.693V75.8362C429.666 75.8764 429.572 76.7545 429.412 78.4706C429.251 80.1867 429.157 81.0716 429.13 81.1252V81.2258H418.492V80.3007H419.155C419.718 80.2873 420.06 80.2672 420.181 80.2404C420.302 80.2135 420.429 80.1331 420.563 79.999V68.717Z" fill="#FFF888"/>
<path d="M431.121 76.8417C431.121 76.1043 431.255 75.4339 431.523 74.8306C431.791 74.2273 432.126 73.7379 432.529 73.3625C432.931 72.9871 433.367 72.7056 433.836 72.5179C434.305 72.3302 434.748 72.2297 435.163 72.2162C435.874 72.2162 436.484 72.3369 436.993 72.5782C437.503 72.8196 437.892 73.1547 438.16 73.5838C438.428 74.0128 438.615 74.4418 438.723 74.8708C438.83 75.2999 438.89 75.7758 438.904 76.2987C438.904 76.3925 438.857 76.4864 438.763 76.5802H433.092V76.8819C433.092 78.8661 433.762 80.0727 435.103 80.5018C435.371 80.5822 435.666 80.6224 435.988 80.6224C436.551 80.6224 437.033 80.4079 437.436 79.9789C437.664 79.751 437.845 79.4694 437.979 79.1343L438.18 78.6516C438.22 78.6114 438.327 78.5913 438.502 78.5913H438.562C438.79 78.5913 438.904 78.6583 438.904 78.7924C438.904 78.846 438.884 78.9331 438.843 79.0538C438.589 79.7912 438.166 80.3744 437.576 80.8034C436.987 81.2324 436.323 81.447 435.586 81.447C434.312 81.447 433.253 80.9844 432.408 80.0593C431.563 79.1343 431.134 78.0617 431.121 76.8417ZM437.255 75.6954C437.107 73.9793 436.47 73.0676 435.344 72.9603H435.304C435.197 72.9603 435.089 72.967 434.982 72.9804C434.875 72.9938 434.707 73.0475 434.479 73.1413C434.252 73.2352 434.057 73.3759 433.896 73.5636C433.735 73.7513 433.581 74.0262 433.434 74.3882C433.286 74.7502 433.179 75.1926 433.112 75.7155V75.8562H437.255V75.6954Z" fill="#FFF888"/>
<path d="M440.312 80.3007H440.593C441.116 80.3007 441.431 80.2068 441.538 80.0191V79.8583C441.538 79.7376 441.538 79.5834 441.538 79.3957C441.538 79.208 441.538 79.0002 441.538 78.7723C441.538 78.5444 441.545 78.2829 441.558 77.988C441.572 77.693 441.572 77.4115 441.558 77.1433C441.558 76.7277 441.558 76.2853 441.558 75.816C441.558 75.3468 441.552 74.9513 441.538 74.6295V74.167C441.498 73.9123 441.404 73.7447 441.257 73.6642C441.109 73.5838 440.808 73.5235 440.352 73.4832H439.99V73.0207C439.99 72.7123 440.003 72.5581 440.03 72.5581L440.231 72.538C440.365 72.5246 440.553 72.5112 440.794 72.4978C441.035 72.4844 441.284 72.471 441.538 72.4576C441.766 72.4442 442.007 72.4308 442.262 72.4174C442.517 72.404 442.711 72.3839 442.845 72.357C442.98 72.3302 443.053 72.3235 443.067 72.3369H443.127V73.1414C443.127 73.6508 443.134 73.9056 443.147 73.9056C443.161 73.9056 443.194 73.872 443.248 73.805C443.301 73.738 443.382 73.6374 443.489 73.5033C443.596 73.3693 443.724 73.2486 443.871 73.1414C444.019 73.0341 444.213 72.9067 444.454 72.7593C444.696 72.6118 444.95 72.5045 445.218 72.4375C445.487 72.3704 445.828 72.3369 446.244 72.3369C447.773 72.3906 448.624 73.1481 448.798 74.6094C448.812 74.7033 448.818 75.6351 448.818 77.4048V79.1343C448.818 79.6437 448.832 79.9454 448.858 80.0393C448.885 80.1331 448.959 80.2001 449.08 80.2404C449.361 80.2806 449.69 80.3007 450.065 80.3007H450.387V81.2258H450.226L449.743 81.2057C449.435 81.1923 449.1 81.1855 448.738 81.1855C448.376 81.1855 448.121 81.1788 447.974 81.1654C446.593 81.1654 445.842 81.1855 445.721 81.2258H445.56V80.3007H445.882C446.7 80.3007 447.109 80.1934 447.109 79.9789C447.122 79.9521 447.129 79.027 447.129 77.2037C447.116 75.3937 447.102 74.4351 447.089 74.3279C447.008 73.9525 446.874 73.6709 446.687 73.4832C446.499 73.2955 446.338 73.1816 446.204 73.1414C446.07 73.1011 445.896 73.0877 445.681 73.1011C445.078 73.1011 444.548 73.329 444.092 73.7849C443.73 74.1469 443.502 74.5156 443.409 74.891C443.315 75.2664 443.261 75.8228 443.248 76.5601V77.8472V79.0538C443.248 79.456 443.254 79.7242 443.268 79.8583C443.281 79.9923 443.301 80.0795 443.328 80.1197C443.355 80.1599 443.415 80.2001 443.509 80.2404C443.791 80.2806 444.119 80.3007 444.494 80.3007H444.816V81.2258H444.655L444.193 81.2057C443.871 81.1923 443.529 81.1855 443.167 81.1855C442.805 81.1855 442.55 81.1788 442.403 81.1654C441.022 81.1654 440.271 81.1855 440.151 81.2258H439.99V80.3007H440.312Z" fill="#FFF888"/>
<path d="M457.285 73.0006C457.875 72.4107 458.545 72.1157 459.296 72.1157C459.698 72.1157 459.986 72.2431 460.16 72.4978C460.335 72.7525 460.422 73.0073 460.422 73.262C460.422 73.4497 460.362 73.6173 460.241 73.7648C460.12 73.9123 459.939 73.986 459.698 73.986C459.255 73.986 459.007 73.7849 458.954 73.3827C458.927 73.195 458.947 73.0542 459.014 72.9604C459.014 72.9469 459.021 72.9268 459.034 72.9V72.8799C458.659 72.9201 458.304 73.0676 457.968 73.3223C457.861 73.3894 457.807 73.4363 457.807 73.4631C457.807 73.4765 457.834 73.51 457.888 73.5637C457.942 73.6173 458.002 73.6977 458.069 73.805C458.136 73.9123 458.21 74.0329 458.29 74.167C458.371 74.3011 458.431 74.4753 458.471 74.6899C458.511 74.9044 458.538 75.1256 458.552 75.3535C458.552 76.1847 458.223 76.8886 457.566 77.4651C456.909 78.0416 456.098 78.3366 455.133 78.35C454.462 78.35 453.799 78.1623 453.142 77.7869C452.994 78.0282 452.921 78.2829 452.921 78.5511C452.921 79.0203 453.095 79.3689 453.444 79.5968C453.564 79.6773 453.678 79.7175 453.785 79.7175C453.893 79.7175 454.375 79.7309 455.233 79.7577C456.36 79.7711 457.084 79.8113 457.405 79.8784C458.223 79.999 458.867 80.2739 459.336 80.7029C459.859 81.2258 460.12 81.8827 460.12 82.6737C460.12 83.572 459.597 84.2625 458.552 84.7451C457.747 85.1607 456.795 85.3685 455.696 85.3685C454.583 85.3685 453.625 85.1607 452.82 84.7451C451.774 84.2759 451.251 83.6055 451.251 82.7341C451.251 82.2514 451.392 81.8492 451.674 81.5274C451.955 81.2057 452.237 80.9844 452.518 80.8638L452.74 80.7431C452.257 80.3275 452.016 79.7644 452.016 79.0538C452.016 78.4237 452.21 77.8539 452.599 77.3444C452.009 76.7545 451.714 76.0909 451.714 75.3535C451.714 74.5089 452.049 73.7983 452.72 73.2218C453.39 72.6453 454.201 72.3503 455.153 72.3369C455.837 72.3369 456.473 72.5112 457.063 72.8598L457.285 73.0006ZM456.681 74.3279C456.614 73.9525 456.44 73.6575 456.158 73.443C455.877 73.2285 455.528 73.1145 455.113 73.1011C454.724 73.1011 454.389 73.2084 454.107 73.4229C453.826 73.6374 453.651 73.9391 453.584 74.3279C453.544 74.5558 453.524 74.8977 453.524 75.3535C453.524 75.9434 453.571 76.3791 453.665 76.6607C453.759 76.9422 453.96 77.1769 454.268 77.3646C454.496 77.4986 454.784 77.5657 455.133 77.5657C455.428 77.5657 455.682 77.5187 455.897 77.4249C456.112 77.331 456.266 77.2104 456.36 77.0629C456.453 76.9154 456.527 76.7814 456.581 76.6607C456.634 76.54 456.668 76.4395 456.681 76.359C456.722 76.1445 456.742 75.8093 456.742 75.3535C456.742 74.8977 456.722 74.5558 456.681 74.3279ZM458.773 82.7341C458.773 82.3989 458.679 82.124 458.491 81.9095C458.304 81.695 458.029 81.5408 457.667 81.447C457.305 81.3531 456.976 81.2928 456.681 81.266C456.386 81.2392 456.024 81.2258 455.595 81.2258H455.052C454.154 81.2258 453.618 81.266 453.444 81.3464C453.175 81.4671 452.968 81.6548 452.82 81.9095C452.673 82.1643 452.592 82.4324 452.579 82.7139C452.579 82.848 452.619 83.0022 452.699 83.1765C452.78 83.3508 452.921 83.5519 453.122 83.7798C453.323 84.0077 453.645 84.1954 454.087 84.3429C454.529 84.4904 455.066 84.5708 455.696 84.5842C456.621 84.5842 457.365 84.3965 457.928 84.0211C458.491 83.6457 458.773 83.2167 458.773 82.7341Z" fill="#FFF888"/>
<path d="M461.267 72.7391C461.977 72.6855 462.527 72.3101 462.916 71.613C463.304 70.9158 463.519 70.098 463.559 69.1595V68.8578H464.364V72.5582H467.078V73.4832H464.364V76.3791C464.377 78.055 464.384 79.0002 464.384 79.2147C464.384 79.4292 464.431 79.6437 464.524 79.8583C464.712 80.3811 465.041 80.6426 465.51 80.6426C466.1 80.6426 466.462 80.1666 466.596 79.2147C466.609 79.1075 466.616 78.7991 466.616 78.2896V77.5858H467.42V78.2896V78.531C467.42 79.5633 467.139 80.3476 466.576 80.8839C466.214 81.2459 465.745 81.4269 465.168 81.4269C464.712 81.4269 464.317 81.3464 463.981 81.1856C463.646 81.0247 463.392 80.8169 463.217 80.5621C463.043 80.3074 462.916 80.0728 462.835 79.8583C462.755 79.6437 462.708 79.4292 462.694 79.2147C462.681 79.1209 462.674 78.1288 462.674 76.2384V73.4832H461.086V72.7391H461.267Z" fill="#FFF888"/>
<path d="M469.371 80.3007H469.653C470.176 80.3007 470.491 80.2068 470.598 80.0191V79.8583C470.598 79.7376 470.598 79.5834 470.598 79.3957C470.598 79.208 470.598 78.9868 470.598 78.7321C470.598 78.4773 470.598 78.1891 470.598 77.8673C470.598 77.5455 470.605 77.2104 470.618 76.8618C470.631 76.5132 470.631 76.1445 470.618 75.7557C470.605 75.3669 470.605 74.9848 470.618 74.6094C470.618 74.1134 470.618 73.5905 470.618 73.0408C470.618 72.4911 470.618 71.9883 470.618 71.5325C470.618 71.0767 470.611 70.6745 470.598 70.3259C470.584 69.9773 470.584 69.6823 470.598 69.441C470.611 69.1997 470.611 69.0857 470.598 69.0991C470.558 68.8444 470.464 68.6768 470.316 68.5964C470.169 68.5159 469.867 68.4556 469.411 68.4154H469.049V67.9528C469.049 67.6445 469.063 67.4903 469.09 67.4903L469.291 67.4702C469.425 67.4568 469.619 67.4434 469.874 67.43C470.129 67.4166 470.377 67.4032 470.618 67.3898C470.846 67.3763 471.094 67.3629 471.362 67.3495C471.63 67.3361 471.831 67.316 471.965 67.2892C472.099 67.2624 472.173 67.2557 472.187 67.2691H472.247V73.8452C473.051 72.8397 474.017 72.3369 475.143 72.3369C476.792 72.3369 477.697 73.0944 477.858 74.6094C477.871 74.7033 477.878 75.6351 477.878 77.4048V79.1343C477.878 79.6437 477.891 79.9454 477.918 80.0393C477.945 80.1331 478.019 80.2001 478.139 80.2404C478.421 80.2806 478.749 80.3007 479.125 80.3007H479.446V81.2258H479.286L478.803 81.2057C478.495 81.1923 478.159 81.1855 477.797 81.1855C477.435 81.1855 477.181 81.1788 477.033 81.1654C475.652 81.1654 474.901 81.1855 474.781 81.2258H474.62V80.3007H474.942C475.76 80.3007 476.168 80.1934 476.168 79.9789C476.182 79.9521 476.189 79.027 476.189 77.2037C476.175 75.3937 476.162 74.4351 476.148 74.3279C476.068 73.9525 475.934 73.6709 475.746 73.4832C475.558 73.2955 475.398 73.1816 475.263 73.1414C475.129 73.1011 474.955 73.0877 474.741 73.1011C474.137 73.1011 473.608 73.329 473.152 73.7849C472.79 74.1469 472.562 74.5156 472.468 74.891C472.374 75.2664 472.321 75.8228 472.307 76.5601V77.8472V79.0538C472.307 79.456 472.314 79.7242 472.327 79.8583C472.341 79.9923 472.361 80.0795 472.388 80.1197C472.414 80.1599 472.475 80.2001 472.569 80.2404C472.85 80.2806 473.179 80.3007 473.554 80.3007H473.876V81.2258H473.715L473.252 81.2057C472.931 81.1923 472.589 81.1855 472.227 81.1855C471.865 81.1855 471.61 81.1788 471.463 81.1654C470.082 81.1654 469.331 81.1855 469.21 81.2258H469.049V80.3007H469.371Z" fill="#FFF888"/>
<path d="M485.319 76.9221C485.319 75.6485 485.754 74.5491 486.626 73.624C487.497 72.6989 488.55 72.2297 489.783 72.2163C490.99 72.2163 492.029 72.6721 492.9 73.5838C493.772 74.4955 494.214 75.6015 494.228 76.902C494.228 78.1757 493.799 79.2482 492.941 80.1197C492.083 80.9912 491.03 81.4269 489.783 81.4269C488.483 81.4269 487.417 80.9777 486.586 80.0795C485.754 79.1812 485.332 78.1288 485.319 76.9221ZM489.783 80.6225C491.419 80.6225 492.237 79.5298 492.237 77.3444V76.7009V76.1982C492.237 75.9032 492.23 75.6485 492.217 75.434C492.203 75.2194 492.156 74.9647 492.076 74.6698C491.995 74.3748 491.888 74.1335 491.754 73.9458C491.62 73.7581 491.412 73.5704 491.131 73.3827C490.849 73.195 490.521 73.0609 490.145 72.9805C490.078 72.9671 489.971 72.9604 489.823 72.9604C489.421 72.9604 489.039 73.0408 488.677 73.2017C488.101 73.4966 487.725 73.9056 487.551 74.4284C487.377 74.9513 487.29 75.568 487.29 76.2786V76.6808C487.29 77.9679 487.417 78.8728 487.672 79.3957C488.101 80.2135 488.805 80.6225 489.783 80.6225Z" fill="#FFF888"/>
<path d="M500.301 81.2258C500.06 81.1855 499.208 81.1654 497.747 81.1654C496.366 81.1654 495.615 81.1855 495.495 81.2258H495.334V80.3007H495.656C496.031 80.3007 496.359 80.2806 496.641 80.2404C496.748 80.2001 496.829 80.1264 496.882 80.0191C496.896 79.9923 496.902 78.893 496.902 76.721V73.4832H495.475V72.5581H496.902V71.2309L496.922 69.8835L496.963 69.6823C497.217 68.8109 497.646 68.1808 498.25 67.792C498.853 67.4032 499.49 67.1618 500.16 67.068C500.174 67.068 500.234 67.068 500.341 67.068C500.449 67.068 500.542 67.0613 500.623 67.0479C501.172 67.0881 501.588 67.2624 501.87 67.5707C502.151 67.8791 502.292 68.2277 502.292 68.6165C502.292 68.9249 502.198 69.1729 502.01 69.3606C501.823 69.5483 501.575 69.6421 501.266 69.6421C500.958 69.6421 500.71 69.5483 500.522 69.3606C500.335 69.1729 500.241 68.9249 500.241 68.6165C500.241 68.3483 500.361 68.0802 500.603 67.8121H500.522C500.469 67.7987 500.395 67.792 500.301 67.792C499.926 67.792 499.59 67.9327 499.296 68.2143C499.001 68.4958 498.773 68.8645 498.612 69.3204C498.531 69.5885 498.484 70.2253 498.471 71.2309V72.5581H500.703V73.4832H498.531V76.7009C498.531 78.8728 498.538 79.9722 498.551 79.999C498.565 80.0258 498.585 80.0527 498.612 80.0795C498.639 80.1063 498.672 80.1264 498.712 80.1398C498.753 80.1532 498.786 80.1733 498.813 80.2001C498.84 80.2269 498.887 80.2404 498.954 80.2404C499.021 80.2404 499.068 80.2471 499.094 80.2605C499.121 80.2739 499.182 80.2806 499.275 80.2806C499.369 80.2806 499.43 80.2806 499.456 80.2806C499.483 80.2806 499.55 80.2873 499.657 80.3007C499.765 80.3141 499.832 80.3141 499.859 80.3007H500.482V81.2258H500.301Z" fill="#FFF888"/>
<path d="M514.057 72.2967C514.217 72.3369 514.848 72.357 515.947 72.357C516.926 72.357 517.455 72.3369 517.536 72.2967H517.656V73.5436H516.249L514.217 78.0885C513.4 79.9387 512.93 80.9442 512.81 81.1051C512.702 81.2392 512.575 81.3062 512.428 81.3062C512.401 81.3062 512.354 81.3062 512.287 81.3062C512.22 81.3062 512.153 81.2995 512.086 81.2861H511.784C511.583 81.2861 511.422 81.1856 511.301 80.9844C511.181 80.7833 510.893 80.18 510.437 79.1745C510.236 78.7321 510.075 78.3701 509.954 78.0885L507.923 73.5436H506.515V72.2967H506.676C506.877 72.3369 507.621 72.357 508.908 72.357C510.343 72.357 511.181 72.3369 511.422 72.2967H511.603V73.5436H510.638L511.704 75.9166C512.387 77.4584 512.749 78.2293 512.79 78.2293C512.79 78.2159 513.131 77.445 513.815 75.9166C514.499 74.3882 514.854 73.6039 514.881 73.5637C514.881 73.5503 514.72 73.5436 514.398 73.5436H513.916V72.2967H514.057Z" fill="#FFF888"/>
<path d="M514.65 66.6055C514.65 66.4982 514.683 66.4043 514.75 66.3239C514.817 66.2435 514.918 66.2032 515.052 66.2032C515.146 66.2032 515.226 66.2368 515.293 66.3038C515.36 66.3574 515.427 66.4848 515.494 66.6859C515.629 67.182 515.903 67.5641 516.319 67.8322C516.466 67.926 516.54 68.0467 516.54 68.1942C516.54 68.3148 516.52 68.3953 516.48 68.4355C516.44 68.4757 516.346 68.5361 516.198 68.6165C515.622 68.9115 515.119 69.3338 514.69 69.8835C514.663 69.9103 514.63 69.9505 514.589 70.0041C514.549 70.0578 514.516 70.098 514.489 70.1248C514.462 70.1516 514.429 70.165 514.388 70.165C514.348 70.165 514.301 70.1717 514.248 70.1851C514.154 70.1851 514.067 70.1516 513.986 70.0846C513.906 70.0175 513.859 69.917 513.845 69.7829C513.845 69.5282 514.16 69.1327 514.791 68.5964H511.352L507.913 68.5763C507.739 68.4556 507.651 68.3283 507.651 68.1942C507.651 68.1003 507.739 67.9663 507.913 67.792H515.132C514.811 67.2825 514.65 66.887 514.65 66.6055Z" fill="#FFF888"/>
<path d="M524.333 76.1881C524.333 81.4973 522.751 85.5194 519.587 88.2544H519.326C519.151 88.2544 519.037 88.241 518.984 88.2142C518.93 88.1874 518.903 88.127 518.903 88.0332C518.93 87.9661 519.098 87.7583 519.406 87.4098C519.714 87.0612 520.036 86.6053 520.371 86.0422C520.706 85.4791 521.055 84.7887 521.417 83.9709C521.779 83.153 522.074 82.0604 522.302 80.6928C522.53 79.3253 522.644 77.8305 522.644 76.2082C522.644 74.586 522.53 73.0911 522.302 71.7236C522.074 70.3561 521.779 69.2634 521.417 68.4456C521.055 67.6277 520.706 66.9306 520.371 66.3541C520.036 65.7776 519.714 65.3284 519.406 65.0067C519.098 64.6849 518.93 64.4704 518.903 64.3631C518.903 64.2157 519.004 64.1419 519.205 64.1419H519.326H519.587C521.303 65.5765 522.557 67.4803 523.348 69.8533C524.005 71.7437 524.333 73.8553 524.333 76.1881Z" fill="#FFF888"/>
</g>
</g>
<defs>
<clipPath id="clip0_290_2123">
<rect width="640" height="360" fill="white"/>
</clipPath>
<clipPath id="clip1_290_2123">
<rect width="640" height="360" fill="white"/>
</clipPath>
<clipPath id="clip2_290_2123">
<rect width="9.85778" height="13.0133" fill="white" transform="translate(314.786 27.4015)"/>
</clipPath>
<clipPath id="clip3_290_2123">
<rect width="11.5022" height="9.11111" fill="white" transform="translate(600.158 175.031)"/>
</clipPath>
<clipPath id="clip4_290_2123">
<rect width="10.984" height="15.328" fill="white" transform="translate(404.123 113.145)"/>
</clipPath>
<clipPath id="clip5_290_2123">
<rect width="15.04" height="15.328" fill="white" transform="translate(362.301 197.577)"/>
</clipPath>
<clipPath id="clip6_290_2123">
<rect width="12.2044" height="17.0311" fill="white" transform="translate(72.708 134.679)"/>
</clipPath>
<clipPath id="clip7_290_2123">
<rect width="16.7111" height="17.0311" fill="white" transform="translate(133.044 134.031)"/>
</clipPath>
<clipPath id="clip8_290_2123">
<rect width="468.649" height="48.2667" fill="white" transform="translate(58.7611 52.0648)"/>
</clipPath>
</defs>
</svg>
