<svg width="640" height="360" viewBox="0 0 640 360" fill="none" xmlns="http://www.w3.org/2000/svg">
<g clip-path="url(#clip0_290_3132)">
<path d="M640 0H0V360H640V0Z" fill="black"/>
<g clip-path="url(#clip1_290_3132)">
<path d="M0 5H640" stroke="#202020" stroke-width="1.5"/>
<path d="M0 55H640" stroke="#202020" stroke-width="1.5"/>
<path d="M0 105H640" stroke="#202020" stroke-width="1.5"/>
<path d="M0 155H640" stroke="#202020" stroke-width="1.5"/>
<path d="M0 205H640" stroke="#202020" stroke-width="1.5"/>
<path d="M0 255H640" stroke="#202020" stroke-width="1.5"/>
<path d="M0 305H640" stroke="#202020" stroke-width="1.5"/>
<path d="M0 355H640" stroke="#202020" stroke-width="1.5"/>
<path d="M45 0V360" stroke="#202020" stroke-width="1.5"/>
<path d="M95 0V360" stroke="#202020" stroke-width="1.5"/>
<path d="M145 0V360" stroke="#202020" stroke-width="1.5"/>
<path d="M195 0V360" stroke="#202020" stroke-width="1.5"/>
<path d="M245 0V360" stroke="#202020" stroke-width="1.5"/>
<path d="M295 0V360" stroke="#202020" stroke-width="1.5"/>
<path d="M345 0V360" stroke="#202020" stroke-width="1.5"/>
<path d="M395 0V360" stroke="#202020" stroke-width="1.5"/>
<path d="M445 0V360" stroke="#202020" stroke-width="1.5"/>
<path d="M495 0V360" stroke="#202020" stroke-width="1.5"/>
<path d="M545 0V360" stroke="#202020" stroke-width="1.5"/>
<path d="M595 0V360" stroke="#202020" stroke-width="1.5"/>
<path d="M0 30H640" stroke="#404040" stroke-width="1.5"/>
<path d="M0 80H640" stroke="#404040" stroke-width="1.5"/>
<path d="M0 130H640" stroke="#404040" stroke-width="1.5"/>
<path d="M0 180H640" stroke="#404040" stroke-width="1.5"/>
<path d="M0 230H640" stroke="#404040" stroke-width="1.5"/>
<path d="M0 280H640" stroke="#404040" stroke-width="1.5"/>
<path d="M0 330H640" stroke="#404040" stroke-width="1.5"/>
<path d="M20 0V360" stroke="#404040" stroke-width="1.5"/>
<path d="M70 0V360" stroke="#404040" stroke-width="1.5"/>
<path d="M120 0V360" stroke="#404040" stroke-width="1.5"/>
<path d="M170 0V360" stroke="#404040" stroke-width="1.5"/>
<path d="M220 0V360" stroke="#404040" stroke-width="1.5"/>
<path d="M270 0V360" stroke="#404040" stroke-width="1.5"/>
<path d="M320 0V360" stroke="#404040" stroke-width="1.5"/>
<path d="M370 0V360" stroke="#404040" stroke-width="1.5"/>
<path d="M420 0V360" stroke="#404040" stroke-width="1.5"/>
<path d="M470 0V360" stroke="#404040" stroke-width="1.5"/>
<path d="M520 0V360" stroke="#404040" stroke-width="1.5"/>
<path d="M570 0V360" stroke="#404040" stroke-width="1.5"/>
<path d="M620 0V360" stroke="#404040" stroke-width="1.5"/>
</g>
<path d="M4 180H636" stroke="#A0A0A0" stroke-width="1.5"/>
<path d="M320 4V356" stroke="#A0A0A0" stroke-width="1.5"/>
<path d="M328.547 24.0682H311.453V44.9318H328.547V24.0682Z" fill="black"/>
<g clip-path="url(#clip2_290_3132)">
<path d="M315.21 30.5191C315.21 30.3314 315.31 30.0096 315.511 29.5537C315.712 29.0977 316.034 28.6217 316.477 28.1256C316.919 27.6295 317.415 27.3881 317.965 27.4015C318.515 27.4015 318.957 27.5557 319.293 27.8641C319.628 28.1725 319.802 28.6016 319.816 29.1514C319.789 29.4062 319.769 29.5469 319.755 29.5738C319.755 29.614 319.648 29.9224 319.433 30.499C319.219 31.0756 318.998 31.7259 318.77 32.45C318.542 33.1741 318.434 33.7506 318.448 34.1797C318.448 34.7563 318.542 35.1586 318.729 35.3865C318.917 35.6145 319.199 35.7352 319.574 35.7486C319.883 35.7486 320.171 35.6748 320.439 35.5273C320.707 35.3798 320.915 35.2256 321.063 35.0647C321.21 34.9038 321.391 34.6826 321.606 34.401C321.606 34.3876 321.639 34.2535 321.706 33.9987C321.773 33.7439 321.867 33.3484 321.988 32.812C322.108 32.2757 322.236 31.7795 322.37 31.3236C322.879 29.3123 323.161 28.2597 323.215 28.1658C323.389 27.8038 323.677 27.6228 324.08 27.6228C324.254 27.6228 324.395 27.6697 324.502 27.7636C324.609 27.8574 324.683 27.9379 324.723 28.0049C324.763 28.072 324.777 28.1323 324.763 28.1859C324.763 28.3603 324.435 29.7682 323.778 32.4097C323.121 35.0513 322.745 36.4995 322.652 36.7542C322.276 37.8672 321.626 38.7522 320.701 39.4092C319.775 40.0662 318.85 40.4014 317.925 40.4149C317.321 40.4149 316.792 40.2674 316.336 39.9724C315.88 39.6774 315.652 39.2349 315.652 38.6449C315.652 38.3499 315.699 38.1018 315.793 37.9007C315.887 37.6996 316.014 37.5521 316.175 37.4582C316.336 37.3643 316.47 37.2973 316.577 37.2571C316.685 37.2168 316.799 37.1967 316.919 37.1967C317.509 37.1967 317.804 37.4783 317.804 38.0415C317.804 38.3097 317.724 38.5443 317.563 38.7454C317.402 38.9466 317.248 39.0807 317.1 39.1477C316.953 39.2148 316.866 39.2483 316.839 39.2483L316.778 39.2684C316.805 39.3354 316.933 39.4159 317.161 39.5098C317.389 39.6036 317.616 39.6505 317.844 39.6505H318.005C318.233 39.6505 318.408 39.6371 318.528 39.6103C318.971 39.4896 319.38 39.2349 319.755 38.846C320.131 38.4572 320.419 38.0415 320.62 37.599C320.821 37.1565 320.975 36.781 321.083 36.4726C321.19 36.1642 321.244 35.9631 321.244 35.8692L321.123 35.9497C321.042 36.0033 320.915 36.0771 320.741 36.1709C320.566 36.2648 320.392 36.3453 320.218 36.4123C319.95 36.4793 319.688 36.5129 319.433 36.5129C318.817 36.5129 318.274 36.3654 317.804 36.0704C317.335 35.7754 317.027 35.2994 316.879 34.6423C316.866 34.5485 316.859 34.3406 316.859 34.0188C316.859 33.2545 317.094 32.2555 317.563 31.0219C318.032 29.7883 318.267 29.0039 318.267 28.6687C318.267 28.6553 318.267 28.6418 318.267 28.6284C318.267 28.5078 318.267 28.4273 318.267 28.3871C318.267 28.3469 318.24 28.2999 318.186 28.2463C318.133 28.1926 318.059 28.1658 317.965 28.1658H317.885C317.576 28.1658 317.295 28.2932 317.04 28.548C316.785 28.8028 316.584 29.0776 316.437 29.3726C316.289 29.6676 316.175 29.9492 316.095 30.2174C316.014 30.4856 315.96 30.6331 315.934 30.6599C315.907 30.6867 315.8 30.7001 315.612 30.7001H315.33C315.25 30.6197 315.21 30.5593 315.21 30.5191Z" fill="#A0A0A0"/>
</g>
<path d="M614.175 171.698H596.825V188.302H614.175V171.698Z" fill="black"/>
<g clip-path="url(#clip3_290_3132)">
<path d="M601.204 178.109C601.298 177.546 601.66 176.896 602.29 176.158C602.92 175.421 603.698 175.046 604.623 175.032C605.092 175.032 605.521 175.153 605.909 175.394C606.298 175.635 606.586 175.937 606.774 176.299C607.337 175.455 608.014 175.032 608.805 175.032C609.301 175.032 609.73 175.18 610.092 175.475C610.454 175.77 610.642 176.165 610.655 176.661C610.655 177.05 610.561 177.365 610.374 177.606C610.186 177.847 610.005 177.995 609.831 178.049C609.656 178.102 609.502 178.129 609.368 178.129C609.113 178.129 608.906 178.055 608.745 177.908C608.584 177.76 608.504 177.566 608.504 177.325C608.504 176.708 608.839 176.286 609.509 176.058C609.361 175.884 609.093 175.796 608.705 175.796C608.53 175.796 608.403 175.81 608.323 175.837C607.813 176.051 607.438 176.493 607.196 177.164C606.392 180.126 605.99 181.856 605.99 182.352C605.99 182.727 606.097 182.995 606.312 183.156C606.526 183.317 606.761 183.397 607.015 183.397C607.511 183.397 608.001 183.176 608.483 182.734C608.966 182.292 609.294 181.749 609.469 181.105C609.509 180.971 609.549 180.897 609.589 180.884C609.63 180.87 609.737 180.857 609.911 180.844H609.992C610.193 180.844 610.293 180.897 610.293 181.005C610.293 181.018 610.28 181.092 610.253 181.226C610.038 181.99 609.623 182.667 609.006 183.257C608.39 183.847 607.672 184.142 606.855 184.142C605.916 184.142 605.206 183.719 604.723 182.875C604.173 183.706 603.543 184.121 602.833 184.121H602.712C602.055 184.121 601.586 183.947 601.305 183.599C601.023 183.25 600.876 182.881 600.862 182.493C600.862 182.064 600.99 181.715 601.244 181.447C601.499 181.179 601.801 181.045 602.149 181.045C602.726 181.045 603.014 181.326 603.014 181.889C603.014 182.157 602.933 182.392 602.773 182.593C602.612 182.794 602.457 182.928 602.31 182.995C602.163 183.062 602.075 183.096 602.049 183.096L601.988 183.116C601.988 183.129 602.028 183.156 602.109 183.196C602.189 183.237 602.297 183.284 602.431 183.337C602.565 183.391 602.692 183.411 602.813 183.397C603.295 183.397 603.711 183.096 604.059 182.493C604.18 182.278 604.334 181.822 604.522 181.125C604.71 180.428 604.897 179.704 605.085 178.953C605.273 178.203 605.38 177.76 605.407 177.626C605.474 177.264 605.507 177.003 605.507 176.842C605.507 176.467 605.407 176.199 605.206 176.038C605.005 175.877 604.777 175.796 604.522 175.796C603.986 175.796 603.483 176.011 603.014 176.44C602.545 176.869 602.216 177.418 602.028 178.089C602.002 178.209 601.968 178.276 601.928 178.29C601.888 178.303 601.78 178.317 601.606 178.33H601.325C601.244 178.25 601.204 178.176 601.204 178.109Z" fill="#A0A0A0"/>
</g>
<path d="M0 260L640 100" stroke="#F0F0F0"/>
<path d="M320 180L516.119 130.97" stroke="#FFF888" stroke-width="1.5"/>
<path d="M320 180L416.422 228.211" stroke="#6AB0F3" stroke-width="1.5"/>
<path d="M320 180L398.472 160.382" stroke="#FF777A" stroke-width="1.5"/>
<path d="M402.353 159.412L420 230" stroke="#F0F0F0" stroke-width="1.5" stroke-dasharray="4.5 4.5"/>
<path d="M428.468 144.587H411.532V165.413H428.468V144.587Z" fill="black"/>
<g clip-path="url(#clip4_290_3132)">
<path d="M421.788 154.88C421.933 154.917 422.5 154.935 423.489 154.935C424.37 154.935 424.846 154.917 424.919 154.88H425.027V156.002H423.761L421.933 160.092C421.197 161.757 420.775 162.662 420.666 162.806C420.57 162.927 420.455 162.987 420.322 162.987C420.298 162.987 420.256 162.987 420.196 162.987C420.135 162.987 420.075 162.981 420.015 162.969H419.743C419.562 162.969 419.418 162.879 419.309 162.698C419.2 162.517 418.941 161.974 418.531 161.069C418.35 160.671 418.205 160.345 418.097 160.092L416.269 156.002H415.002V154.88H415.147C415.328 154.917 415.998 154.935 417.156 154.935C418.447 154.935 419.2 154.917 419.418 154.88H419.58V156.002H418.712L419.671 158.138C420.286 159.525 420.612 160.219 420.648 160.219C420.648 160.207 420.956 159.513 421.571 158.138C422.186 156.762 422.506 156.057 422.53 156.02C422.53 156.008 422.385 156.002 422.096 156.002H421.661V154.88H421.788Z" fill="#FFF888"/>
<path d="M422.322 149.759C422.322 149.663 422.352 149.578 422.412 149.506C422.473 149.434 422.563 149.397 422.684 149.397C422.768 149.397 422.841 149.428 422.901 149.488C422.961 149.536 423.022 149.651 423.082 149.832C423.203 150.278 423.45 150.622 423.824 150.863C423.957 150.948 424.023 151.056 424.023 151.189C424.023 151.298 424.005 151.37 423.969 151.406C423.932 151.442 423.848 151.497 423.715 151.569C423.197 151.834 422.744 152.214 422.358 152.709C422.334 152.733 422.304 152.769 422.268 152.818C422.231 152.866 422.201 152.902 422.177 152.926C422.153 152.95 422.123 152.962 422.087 152.962C422.05 152.962 422.008 152.968 421.96 152.98C421.876 152.98 421.797 152.95 421.725 152.89C421.652 152.83 421.61 152.739 421.598 152.618C421.598 152.389 421.882 152.033 422.449 151.551H419.354L416.26 151.533C416.103 151.424 416.025 151.31 416.025 151.189C416.025 151.105 416.103 150.984 416.26 150.827H422.756C422.467 150.369 422.322 150.013 422.322 149.759Z" fill="#FFF888"/>
</g>
<path d="M380.699 194.577H359.301V215.423H380.699V194.577Z" fill="black"/>
<g clip-path="url(#clip5_290_3132)">
<path d="M373.594 204.87C373.739 204.906 374.33 204.924 375.367 204.924C376.272 204.924 376.743 204.906 376.779 204.87H376.869V205.992H375.711L373.033 212.706C373.021 212.718 373.003 212.736 372.979 212.76C372.954 212.784 372.93 212.809 372.906 212.833C372.882 212.857 372.87 212.869 372.87 212.869C372.87 212.869 372.852 212.881 372.816 212.905C372.78 212.929 372.767 212.941 372.78 212.941C372.792 212.941 372.767 212.947 372.707 212.959C372.647 212.971 372.623 212.971 372.635 212.959C372.647 212.947 372.623 212.953 372.562 212.977C372.502 213.002 372.466 213.002 372.454 212.977C372.442 212.953 372.393 212.953 372.309 212.977H372.11C371.905 212.977 371.76 212.917 371.676 212.796C371.591 212.676 371.422 212.29 371.169 211.638C370.976 211.156 370.813 210.752 370.68 210.426L369.812 208.254L368.943 210.426C368.822 210.739 368.666 211.132 368.472 211.602C368.219 212.266 368.05 212.658 367.966 212.778C367.881 212.899 367.737 212.965 367.531 212.977H367.314C367.097 212.977 366.952 212.965 366.88 212.941C366.808 212.917 366.717 212.839 366.609 212.706L363.93 205.992H362.754V204.87H362.881C363.062 204.906 363.713 204.924 364.835 204.924C366.078 204.924 366.808 204.906 367.025 204.87H367.188V205.992H366.319L367.911 209.937L369.214 206.716L368.925 205.992H367.785V204.87H367.911C368.056 204.906 368.641 204.924 369.667 204.924C370.885 204.924 371.585 204.906 371.766 204.87H371.911V205.992H371.458C371.157 205.992 371.006 206.004 371.006 206.028C371.018 206.076 371.308 206.806 371.875 208.218C372.442 209.63 372.731 210.335 372.743 210.335L374.499 205.992H373.467V204.87H373.594Z" fill="#6AB0F3"/>
<path d="M372.119 199.749C372.119 199.652 372.149 199.568 372.209 199.495C372.27 199.423 372.36 199.387 372.481 199.387C372.565 199.387 372.638 199.417 372.698 199.477C372.758 199.525 372.819 199.64 372.879 199.821C373 200.267 373.247 200.611 373.621 200.853C373.754 200.937 373.82 201.046 373.82 201.178C373.82 201.287 373.802 201.359 373.766 201.395C373.73 201.432 373.645 201.486 373.512 201.558C372.994 201.824 372.541 202.204 372.155 202.698C372.131 202.723 372.101 202.759 372.065 202.807C372.028 202.855 371.998 202.891 371.974 202.916C371.95 202.94 371.92 202.952 371.884 202.952C371.848 202.952 371.805 202.958 371.757 202.97C371.673 202.97 371.594 202.94 371.522 202.879C371.449 202.819 371.407 202.729 371.395 202.608C371.395 202.379 371.679 202.023 372.246 201.54H369.151L366.057 201.522C365.9 201.414 365.821 201.299 365.821 201.178C365.821 201.094 365.9 200.973 366.057 200.816H372.553C372.264 200.358 372.119 200.002 372.119 199.749Z" fill="#6AB0F3"/>
</g>
<path d="M401.132 155.594C400.811 155.674 400.581 155.621 400.437 155.437C400.295 155.253 400.106 154.918 399.872 154.433C399.637 153.948 399.368 153.541 399.061 153.21C396.858 150.809 393.519 150.167 389.048 151.285L369.791 156.099C364.102 157.522 359.968 156.506 357.389 153.053C356.74 157.313 353.754 160.109 348.435 161.438L328.754 166.358C327.459 166.682 326.487 166.959 325.842 167.188C324.046 167.876 322.6 168.894 321.504 170.246C320.408 171.597 319.916 173.056 320.025 174.625C320.033 174.657 320.042 174.752 320.054 174.909C320.065 175.067 320.066 175.182 320.055 175.252C320.045 175.323 320.026 175.421 320 175.546C319.973 175.672 319.896 175.776 319.77 175.858C319.645 175.941 319.5 176.002 319.333 176.044C318.643 176.216 318.243 172.536 319.44 170.255C320.639 167.974 322.791 166.318 325.9 165.29C326.425 165.125 327.206 164.913 328.243 164.653L347.606 159.813C349.405 159.363 350.927 158.758 352.172 157.997C353.415 157.236 354.279 156.44 354.759 155.606C355.239 154.774 355.568 154.093 355.745 153.565C355.922 153.038 356.008 152.529 355.995 152.039C355.971 151.943 355.951 151.8 355.931 151.61C355.912 151.42 355.921 151.261 355.959 151.132C355.997 151.004 356.028 150.876 356.054 150.752C356.078 150.627 356.149 150.516 356.266 150.419C356.382 150.323 356.521 150.253 356.679 150.214C356.89 150.161 357.069 150.141 357.213 150.156C357.357 150.172 357.479 150.234 357.577 150.346C357.674 150.457 357.754 150.577 357.814 150.706C357.874 150.834 357.959 151.005 358.067 151.216C358.177 151.427 358.28 151.62 358.382 151.799C359.048 152.888 360.148 153.746 361.681 154.373C363.217 154.998 365.013 155.155 367.072 154.844C367.617 154.776 368.419 154.609 369.478 154.345L388.14 149.679C389.203 149.414 390.058 149.23 390.707 149.126C391.355 149.023 392.296 149.014 393.53 149.101C394.763 149.187 395.923 149.473 397.008 149.957C400.513 151.169 401.657 155.463 401.132 155.594Z" fill="#FF777A"/>
<path d="M625 173.25L640 180L625 186.75L628 180L625 173.25Z" fill="#A0A0A0"/>
<path d="M326.75 345L320 360L313.25 345L320 348L326.75 345Z" fill="#A0A0A0"/>
<path d="M503.811 127.09L520 130L507.085 140.186L508.358 132.91L503.811 127.09Z" fill="#FFF888"/>
<path d="M409.602 217.254L420 230L403.565 229.329L409.267 224.633L409.602 217.254Z" fill="#6AB0F3"/>
<path d="M386.164 156.502L402.353 159.412L389.438 169.598L390.711 162.322L386.164 156.502Z" fill="#FF777A"/>
<path d="M15 186.75L0 180L15 173.25L12 180L15 186.75Z" fill="#A0A0A0"/>
<path d="M313.25 15L320 0L326.75 15L320 12L313.25 15Z" fill="#A0A0A0"/>
<path d="M251.309 153.735C250.016 148.6 250.57 144.32 252.97 140.895L253.516 140.757C253.614 140.816 253.668 140.865 253.678 140.904C253.691 140.956 253.608 141.149 253.43 141.484C253.252 141.82 253.056 142.304 252.842 142.939C252.629 143.573 252.441 144.339 252.28 145.237C252.119 146.135 252.087 147.297 252.184 148.725C252.28 150.152 252.537 151.691 252.952 153.342C253.365 154.981 253.866 156.451 254.457 157.754C255.048 159.057 255.619 160.061 256.169 160.765C256.72 161.47 257.248 162.056 257.753 162.524C258.257 162.991 258.668 163.33 258.983 163.541C259.299 163.752 259.464 163.883 259.477 163.935C259.487 163.974 259.462 164.042 259.404 164.14L258.858 164.278C258.402 164.061 257.952 163.808 257.506 163.519C257.06 163.23 256.527 162.791 255.908 162.2C255.29 161.609 254.716 160.952 254.188 160.227C253.66 159.503 253.137 158.577 252.618 157.45C252.099 156.322 251.663 155.084 251.309 153.735Z" fill="#FF777A"/>
<path d="M257.949 144.359C257.835 144.291 257.749 144.251 257.69 144.238C257.632 144.225 257.523 144.232 257.363 144.258C257.204 144.284 256.92 144.335 256.51 144.411L255.867 144.573L255.641 143.676L255.855 143.622C256.021 143.621 256.975 143.402 258.717 142.963C260.563 142.498 261.638 142.207 261.94 142.089L262.174 142.031L262.4 142.928L261.873 143.06C261.093 143.257 260.609 143.392 260.42 143.468C260.232 143.543 260.091 143.668 259.997 143.844L261.352 149.309L262.398 153.463C262.634 154.399 262.792 154.892 262.874 154.94C262.968 154.986 263.47 154.894 264.38 154.665C265.303 154.432 265.924 154.234 266.242 154.071C266.967 153.654 267.446 153.139 267.679 152.527C267.912 151.916 267.977 151.132 267.875 150.176C267.858 150.111 267.837 149.999 267.811 149.84C267.784 149.68 267.766 149.526 267.756 149.376C267.746 149.227 267.741 149.152 267.741 149.152C267.741 149.152 267.87 149.113 268.126 149.034L268.516 148.936L268.541 149.034C268.525 149.079 268.648 149.954 268.911 151.657C269.174 153.361 269.299 154.242 269.286 154.3L269.311 154.398L258.995 156.995L258.769 156.098L259.412 155.936C259.955 155.786 260.282 155.683 260.392 155.627C260.503 155.572 260.606 155.463 260.704 155.3L257.949 144.359Z" fill="#FF777A"/>
<path d="M270.171 149.66C269.991 148.945 269.957 148.262 270.07 147.612C270.183 146.961 270.388 146.405 270.687 145.943C270.985 145.48 271.339 145.101 271.748 144.804C272.157 144.508 272.562 144.302 272.962 144.188C273.651 144.014 274.272 143.982 274.825 144.092C275.378 144.202 275.837 144.432 276.201 144.782C276.566 145.133 276.853 145.503 277.062 145.893C277.27 146.283 277.445 146.73 277.586 147.233C277.609 147.324 277.586 147.427 277.518 147.541L272.019 148.925L272.092 149.218C272.577 151.142 273.521 152.149 274.926 152.237C275.206 152.25 275.502 152.217 275.814 152.138C276.36 152.001 276.775 151.675 277.061 151.161C277.226 150.884 277.333 150.567 277.381 150.209L277.458 149.692C277.487 149.643 277.587 149.597 277.756 149.555L277.814 149.54C278.035 149.484 278.162 149.522 278.195 149.652C278.208 149.704 278.21 149.793 278.2 149.92C278.133 150.697 277.866 151.366 277.399 151.926C276.931 152.486 276.34 152.856 275.625 153.036C274.39 153.347 273.25 153.157 272.205 152.466C271.16 151.775 270.482 150.84 270.171 149.66ZM275.839 147.051C275.277 145.423 274.437 144.694 273.319 144.865L273.28 144.875C273.176 144.901 273.073 144.934 272.973 144.973C272.872 145.012 272.723 145.105 272.524 145.252C272.326 145.398 272.172 145.582 272.062 145.804C271.952 146.025 271.869 146.329 271.815 146.716C271.76 147.103 271.764 147.559 271.827 148.082L271.861 148.218L275.879 147.207L275.839 147.051Z" fill="#FF777A"/>
<path d="M279.928 150.77L280.201 150.702C280.708 150.574 280.991 150.406 281.049 150.198L281.01 150.042C280.98 149.925 280.943 149.775 280.897 149.593C280.851 149.411 280.8 149.21 280.744 148.989C280.689 148.768 280.632 148.513 280.572 148.223C280.513 147.934 280.445 147.661 280.366 147.404C280.265 147.001 280.157 146.572 280.042 146.117C279.928 145.662 279.825 145.28 279.733 144.971L279.62 144.523C279.519 144.286 279.387 144.146 279.224 144.104C279.062 144.062 278.754 144.077 278.302 144.15L277.951 144.238L277.838 143.789C277.763 143.49 277.739 143.338 277.765 143.331L277.955 143.262C278.081 143.217 278.26 143.158 278.491 143.086C278.722 143.014 278.959 142.94 279.203 142.865C279.42 142.797 279.651 142.725 279.895 142.649C280.139 142.574 280.322 142.507 280.446 142.449C280.569 142.39 280.639 142.365 280.655 142.375L280.714 142.36L280.91 143.14C281.035 143.634 281.103 143.88 281.116 143.877C281.129 143.873 281.154 143.833 281.189 143.754C281.225 143.676 281.278 143.559 281.35 143.403C281.421 143.247 281.515 143.099 281.632 142.959C281.749 142.819 281.906 142.648 282.104 142.446C282.302 142.244 282.523 142.078 282.767 141.947C283.01 141.817 283.334 141.701 283.737 141.599C285.232 141.278 286.242 141.805 286.768 143.179C286.804 143.267 287.038 144.169 287.47 145.885L287.893 147.562C288.017 148.056 288.104 148.346 288.153 148.43C288.201 148.514 288.289 148.561 288.416 148.571C288.699 148.541 289.022 148.481 289.386 148.389L289.698 148.31L289.924 149.207L289.768 149.247L289.295 149.345C288.993 149.407 288.666 149.483 288.315 149.571C287.964 149.659 287.716 149.715 287.569 149.738C286.23 150.075 285.507 150.278 285.4 150.347L285.244 150.386L285.018 149.489L285.33 149.41C286.123 149.211 286.493 149.007 286.441 148.799C286.448 148.769 286.228 147.871 285.783 146.103C285.328 144.351 285.081 143.424 285.042 143.324C284.872 142.979 284.673 142.739 284.446 142.603C284.218 142.467 284.034 142.395 283.894 142.389C283.754 142.383 283.582 142.412 283.377 142.478C282.792 142.625 282.334 142.975 282.003 143.529C281.741 143.968 281.61 144.381 281.61 144.768C281.611 145.155 281.695 145.708 281.862 146.426L282.176 147.674L282.471 148.844C282.569 149.234 282.641 149.493 282.687 149.62C282.733 149.746 282.773 149.826 282.809 149.858C282.845 149.891 282.913 149.915 283.014 149.931C283.297 149.901 283.62 149.841 283.984 149.749L284.296 149.671L284.522 150.568L284.366 150.607L283.913 150.7C283.598 150.766 283.264 150.843 282.913 150.931C282.562 151.02 282.314 151.075 282.167 151.098C280.828 151.436 280.105 151.638 279.998 151.707L279.842 151.746L279.616 150.849L279.928 150.77Z" fill="#FF777A"/>
<path d="M294.605 139.547C295.033 138.831 295.611 138.381 296.339 138.198C296.729 138.1 297.04 138.153 297.271 138.357C297.502 138.562 297.649 138.787 297.711 139.034C297.757 139.216 297.739 139.394 297.658 139.566C297.577 139.739 297.42 139.854 297.186 139.913C296.757 140.021 296.467 139.887 296.317 139.51C296.245 139.334 296.23 139.193 296.272 139.086C296.269 139.073 296.271 139.052 296.277 139.022L296.272 139.003C295.918 139.133 295.61 139.363 295.347 139.692C295.259 139.783 295.219 139.842 295.225 139.868C295.228 139.881 295.263 139.907 295.328 139.946C295.393 139.985 295.471 140.048 295.562 140.136C295.653 140.223 295.754 140.322 295.865 140.433C295.976 140.543 296.077 140.697 296.168 140.895C296.26 141.094 296.34 141.302 296.408 141.519C296.611 142.325 296.465 143.088 295.968 143.808C295.472 144.527 294.757 145.011 293.825 145.26C293.174 145.424 292.485 145.404 291.756 145.2C291.672 145.47 291.663 145.735 291.728 145.995C291.843 146.45 292.097 146.746 292.491 146.881C292.627 146.93 292.748 146.941 292.852 146.915C292.956 146.889 293.427 146.784 294.266 146.6C295.361 146.338 296.073 146.201 296.401 146.187C297.224 146.104 297.915 146.214 298.475 146.515C299.11 146.895 299.524 147.468 299.717 148.235C299.936 149.106 299.598 149.903 298.701 150.627C298.023 151.226 297.15 151.66 296.084 151.928C295.005 152.2 294.025 152.233 293.143 152.026C292.015 151.826 291.344 151.304 291.131 150.459C291.013 149.991 291.052 149.566 291.246 149.186C291.441 148.805 291.66 148.522 291.903 148.336L292.088 148.165C291.519 147.88 291.147 147.393 290.974 146.704C290.82 146.092 290.869 145.492 291.122 144.903C290.406 144.475 289.958 143.904 289.778 143.189C289.571 142.37 289.723 141.599 290.232 140.876C290.741 140.153 291.456 139.669 292.376 139.424C293.039 139.257 293.699 139.27 294.356 139.464L294.605 139.547ZM294.344 140.981C294.187 140.634 293.946 140.39 293.621 140.251C293.296 140.112 292.93 140.086 292.523 140.175C292.146 140.27 291.848 140.456 291.627 140.732C291.406 141.009 291.311 141.344 291.341 141.738C291.357 141.968 291.421 142.305 291.533 142.747C291.677 143.319 291.829 143.73 291.988 143.98C292.148 144.23 292.401 144.409 292.745 144.515C292.999 144.59 293.295 144.584 293.633 144.499C293.919 144.427 294.155 144.32 294.34 144.176C294.525 144.033 294.645 143.878 294.7 143.712C294.755 143.546 294.794 143.398 294.816 143.268C294.839 143.138 294.847 143.032 294.84 142.951C294.827 142.733 294.764 142.403 294.653 141.961C294.542 141.519 294.439 141.193 294.344 140.981ZM298.425 148.622C298.343 148.297 298.185 148.054 297.95 147.892C297.716 147.729 297.412 147.647 297.038 147.644C296.664 147.642 296.331 147.663 296.038 147.71C295.746 147.756 295.391 147.831 294.975 147.936L294.449 148.068C293.578 148.288 293.067 148.458 292.918 148.578C292.687 148.761 292.532 148.993 292.451 149.276C292.37 149.559 292.358 149.839 292.413 150.115C292.446 150.245 292.523 150.385 292.643 150.534C292.764 150.684 292.949 150.844 293.2 151.016C293.451 151.188 293.809 151.292 294.274 151.327C294.739 151.362 295.278 151.309 295.893 151.168C296.79 150.942 297.466 150.578 297.92 150.077C298.374 149.575 298.543 149.091 298.425 148.622Z" fill="#FF777A"/>
<path d="M298.403 138.321C299.079 138.096 299.52 137.597 299.727 136.826C299.934 136.055 299.942 135.21 299.752 134.29L299.678 133.998L300.458 133.801L301.362 137.389L303.994 136.727L304.22 137.624L301.588 138.287L302.295 141.095C302.717 142.717 302.954 143.632 303.007 143.84C303.059 144.048 303.157 144.244 303.3 144.429C303.61 144.891 303.992 145.064 304.447 144.949C305.019 144.805 305.254 144.255 305.152 143.299C305.139 143.192 305.07 142.892 304.945 142.398L304.774 141.715L305.554 141.519L305.725 142.201L305.784 142.435C306.036 143.436 305.955 144.266 305.54 144.923C305.277 145.362 304.866 145.653 304.307 145.793C303.865 145.905 303.462 145.923 303.098 145.849C302.733 145.775 302.436 145.636 302.204 145.431C301.973 145.227 301.792 145.03 301.662 144.842C301.532 144.653 301.434 144.457 301.368 144.252C301.332 144.164 301.084 143.204 300.622 141.371L299.949 138.699L298.409 139.087L298.227 138.365L298.403 138.321Z" fill="#FF777A"/>
<path d="M308.108 143.675L308.381 143.606C308.888 143.479 309.171 143.311 309.229 143.102L309.19 142.946C309.16 142.829 309.123 142.68 309.077 142.498C309.031 142.316 308.977 142.101 308.915 141.854C308.853 141.607 308.782 141.328 308.704 141.016C308.625 140.704 308.55 140.377 308.478 140.036C308.405 139.694 308.315 139.337 308.207 138.963C308.1 138.589 308.006 138.219 307.928 137.852C307.806 137.37 307.679 136.863 307.545 136.33C307.41 135.797 307.288 135.31 307.176 134.868C307.065 134.426 306.96 134.037 306.862 133.703C306.764 133.368 306.692 133.082 306.646 132.844C306.6 132.607 306.572 132.497 306.563 132.513C306.461 132.276 306.33 132.136 306.167 132.094C306.004 132.052 305.697 132.067 305.245 132.14L304.894 132.228L304.781 131.779C304.706 131.48 304.681 131.328 304.707 131.321L304.897 131.252C305.024 131.207 305.209 131.146 305.453 131.071C305.697 130.996 305.934 130.922 306.165 130.85C306.383 130.782 306.62 130.708 306.877 130.63C307.133 130.551 307.323 130.483 307.447 130.424C307.57 130.365 307.64 130.341 307.656 130.35L307.715 130.336L309.321 136.713C309.855 135.541 310.669 134.818 311.761 134.543C313.36 134.14 314.422 134.654 314.948 136.084C314.984 136.172 315.218 137.073 315.65 138.79L316.073 140.467C316.197 140.961 316.284 141.25 316.333 141.335C316.381 141.419 316.469 141.466 316.596 141.476C316.879 141.446 317.202 141.385 317.566 141.293L317.879 141.215L318.104 142.112L317.948 142.151L317.475 142.25C317.173 142.312 316.846 142.387 316.495 142.476C316.144 142.564 315.896 142.62 315.749 142.643C314.41 142.98 313.687 143.183 313.58 143.251L313.424 143.29L313.198 142.393L313.51 142.315C314.303 142.115 314.674 141.911 314.621 141.703C314.628 141.674 314.408 140.775 313.963 139.007C313.508 137.255 313.261 136.329 313.222 136.228C313.052 135.884 312.853 135.643 312.626 135.507C312.398 135.371 312.214 135.3 312.074 135.294C311.934 135.287 311.762 135.317 311.557 135.382C310.972 135.53 310.514 135.88 310.184 136.433C309.921 136.873 309.79 137.286 309.791 137.673C309.791 138.06 309.875 138.612 310.042 139.331L310.356 140.579L310.651 141.749C310.749 142.139 310.821 142.397 310.867 142.524C310.913 142.651 310.953 142.73 310.989 142.763C311.025 142.795 311.093 142.82 311.194 142.836C311.477 142.806 311.8 142.745 312.165 142.654L312.477 142.575L312.702 143.472L312.546 143.511L312.093 143.605C311.778 143.67 311.444 143.747 311.093 143.836C310.742 143.924 310.494 143.98 310.347 144.003C309.008 144.34 308.285 144.543 308.178 144.611L308.022 144.651L307.796 143.754L308.108 143.675Z" fill="#FF777A"/>
<path d="M322.748 136.505C322.437 135.27 322.591 134.097 323.21 132.987C323.83 131.877 324.736 131.165 325.928 130.851C327.099 130.557 328.217 130.745 329.285 131.416C330.353 132.088 331.052 133.052 331.382 134.31C331.693 135.545 331.539 136.69 330.92 137.745C330.301 138.799 329.387 139.479 328.177 139.783C326.916 140.101 325.773 139.925 324.748 139.257C323.722 138.589 323.056 137.672 322.748 136.505ZM327.981 139.003C329.567 138.604 330.093 137.344 329.56 135.225L329.403 134.601L329.28 134.114C329.208 133.828 329.139 133.582 329.074 133.377C329.008 133.173 328.901 132.937 328.751 132.671C328.601 132.404 328.438 132.196 328.262 132.047C328.086 131.898 327.839 131.767 327.52 131.653C327.201 131.54 326.85 131.49 326.466 131.504C326.398 131.507 326.292 131.527 326.149 131.563C325.759 131.661 325.408 131.833 325.096 132.077C324.609 132.504 324.345 132.992 324.304 133.541C324.263 134.091 324.329 134.71 324.502 135.399L324.6 135.79C324.915 137.038 325.259 137.884 325.634 138.329C326.25 139.017 327.032 139.242 327.981 139.003Z" fill="#FF777A"/>
<path d="M338.328 137.02C338.084 137.04 337.253 137.228 335.836 137.585C334.497 137.922 333.774 138.125 333.667 138.194L333.511 138.233L333.285 137.336L333.597 137.257C333.961 137.165 334.275 137.066 334.538 136.958C334.632 136.893 334.692 136.802 334.718 136.685C334.724 136.655 334.462 135.588 333.932 133.481L333.142 130.342L331.757 130.69L331.531 129.793L332.916 129.445L332.592 128.157L332.282 126.846L332.272 126.641C332.306 125.734 332.568 125.018 333.059 124.494C333.549 123.969 334.107 123.58 334.734 123.325C334.747 123.322 334.806 123.307 334.91 123.281C335.014 123.255 335.103 123.225 335.178 123.193C335.721 123.097 336.167 123.165 336.515 123.395C336.863 123.625 337.085 123.929 337.18 124.306C337.255 124.605 337.225 124.869 337.088 125.096C336.952 125.324 336.735 125.476 336.436 125.551C336.137 125.626 335.873 125.596 335.645 125.46C335.417 125.324 335.266 125.106 335.191 124.807C335.125 124.547 335.177 124.258 335.345 123.939L335.267 123.958C335.212 123.958 335.139 123.97 335.048 123.993C334.684 124.084 334.393 124.303 334.176 124.648C333.958 124.993 333.827 125.406 333.783 125.887C333.77 126.167 333.88 126.796 334.113 127.774L334.437 129.061L336.601 128.516L336.827 129.414L334.721 129.944L335.507 133.064C336.037 135.17 336.312 136.235 336.332 136.258C336.351 136.28 336.377 136.301 336.41 136.321C336.442 136.34 336.48 136.352 336.522 136.355C336.564 136.358 336.602 136.369 336.634 136.389C336.667 136.408 336.716 136.41 336.781 136.393C336.846 136.377 336.893 136.372 336.922 136.378C336.951 136.385 337.011 136.377 337.102 136.354C337.193 136.331 337.252 136.316 337.278 136.31C337.304 136.303 337.371 136.293 337.478 136.28C337.585 136.267 337.65 136.25 337.673 136.231L338.277 136.079L338.503 136.976L338.328 137.02Z" fill="#FF777A"/>
<path d="M345.276 138.34L345.549 138.271C346.056 138.143 346.338 137.975 346.396 137.767L346.357 137.611C346.334 137.52 346.303 137.397 346.264 137.241C346.225 137.085 346.176 136.89 346.117 136.656C346.058 136.422 346 136.166 345.945 135.89C345.889 135.614 345.817 135.328 345.729 135.032C345.64 134.736 345.56 134.418 345.488 134.076C345.416 133.735 345.332 133.404 345.237 133.082C345.126 132.64 345.01 132.178 344.889 131.697C344.768 131.216 344.66 130.787 344.565 130.41C344.47 130.033 344.383 129.689 344.305 129.377C344.226 129.065 344.156 128.813 344.094 128.621C344.031 128.429 344.005 128.325 344.015 128.309C343.914 128.072 343.782 127.932 343.619 127.89C343.457 127.848 343.149 127.863 342.697 127.935L342.346 128.024L342.233 127.575C342.158 127.276 342.133 127.124 342.159 127.117L342.35 127.048C342.476 127.003 342.662 126.942 342.905 126.867C343.149 126.792 343.386 126.718 343.617 126.646C343.835 126.578 344.072 126.504 344.329 126.426C344.586 126.347 344.776 126.279 344.899 126.22C345.023 126.161 345.092 126.137 345.109 126.146L345.167 126.132L345.295 126.639L345.442 127.141L345.564 126.965C346.187 126.2 347.012 125.688 348.039 125.429C349.092 125.164 350.094 125.354 351.044 126C351.995 126.645 352.636 127.597 352.966 128.855C353.297 130.168 353.143 131.34 352.504 132.372C351.865 133.404 351.012 134.054 349.946 134.323C349.062 134.545 348.21 134.456 347.39 134.054L347.2 133.957L347.617 135.614L347.892 136.706C347.98 137.057 348.047 137.269 348.093 137.34C348.139 137.411 348.228 137.465 348.362 137.501C348.645 137.471 348.968 137.41 349.332 137.318L349.644 137.24L349.87 138.137L349.714 138.176L349.241 138.275C348.939 138.337 348.612 138.412 348.261 138.501C347.91 138.589 347.661 138.645 347.515 138.668C346.176 139.005 345.453 139.208 345.345 139.276L345.189 139.315L344.964 138.418L345.276 138.34ZM351.045 129.297C350.803 128.335 350.371 127.552 349.749 126.948C349.127 126.344 348.484 126.126 347.821 126.293C346.898 126.525 346.205 127.149 345.741 128.164L346.915 132.825C347.671 133.631 348.517 133.915 349.453 133.68C350.116 133.513 350.612 133.014 350.943 132.185C351.273 131.355 351.307 130.392 351.045 129.297Z" fill="#FF777A"/>
<path d="M355.166 131.826L355.439 131.758C355.946 131.63 356.229 131.462 356.287 131.254L356.248 131.098C356.218 130.981 356.18 130.831 356.135 130.649C356.089 130.467 356.045 130.264 356.002 130.04C355.959 129.815 355.895 129.562 355.81 129.279C355.725 128.996 355.657 128.723 355.604 128.46C355.503 128.057 355.395 127.628 355.28 127.173C355.166 126.718 355.069 126.334 354.99 126.022L354.858 125.579C354.757 125.342 354.625 125.202 354.462 125.16C354.299 125.118 353.992 125.133 353.54 125.205L353.189 125.294L353.076 124.845C353.001 124.546 352.976 124.393 353.002 124.387L353.193 124.318C353.319 124.273 353.498 124.214 353.729 124.142C353.96 124.07 354.19 123.998 354.421 123.926C354.626 123.861 354.85 123.79 355.094 123.715C355.338 123.64 355.521 123.573 355.645 123.514C355.768 123.455 355.838 123.431 355.854 123.441L355.913 123.426L356.252 124.772C356.536 123.76 357.055 123.159 357.809 122.969L357.926 122.94C358.511 122.792 358.976 122.827 359.321 123.045C359.667 123.262 359.878 123.527 359.957 123.839C360.026 124.112 360 124.367 359.88 124.605C359.76 124.842 359.538 125.002 359.213 125.084C358.888 125.165 358.621 125.122 358.413 124.953C358.204 124.785 358.064 124.585 357.992 124.354C357.963 124.237 357.949 124.13 357.953 124.032C357.956 123.935 357.969 123.848 357.991 123.774C358.014 123.699 358.025 123.661 358.025 123.661C357.993 123.642 357.85 123.706 357.596 123.852C357.414 124.009 357.283 124.146 357.202 124.263C356.738 125.002 356.726 126.242 357.164 127.984L357.424 129.018C357.467 129.187 357.511 129.362 357.557 129.544C357.603 129.726 357.645 129.895 357.685 130.052C357.724 130.208 357.763 130.336 357.802 130.437C357.842 130.537 357.866 130.635 357.876 130.729L357.901 130.827C357.92 130.849 357.946 130.87 357.979 130.89C358.011 130.909 358.049 130.921 358.091 130.924C358.133 130.927 358.171 130.938 358.203 130.958C358.236 130.977 358.285 130.979 358.35 130.962C358.415 130.946 358.462 130.941 358.491 130.948C358.52 130.954 358.58 130.946 358.671 130.923C358.762 130.9 358.821 130.885 358.847 130.879C358.873 130.872 358.94 130.862 359.047 130.849C359.154 130.836 359.219 130.82 359.242 130.8L359.846 130.648L360.072 131.545L359.897 131.589C359.653 131.609 358.822 131.797 357.405 132.154C356.066 132.491 355.343 132.694 355.236 132.763L355.08 132.802L354.854 131.905L355.166 131.826Z" fill="#FF777A"/>
<path d="M361.83 126.664C361.519 125.429 361.673 124.257 362.292 123.147C362.911 122.037 363.817 121.325 365.01 121.011C366.18 120.716 367.299 120.905 368.367 121.576C369.435 122.247 370.134 123.212 370.464 124.47C370.775 125.705 370.621 126.85 370.002 127.904C369.382 128.959 368.468 129.638 367.259 129.943C365.998 130.26 364.855 130.085 363.829 129.417C362.804 128.749 362.137 127.831 361.83 126.664ZM367.063 129.163C368.649 128.763 369.175 127.504 368.642 125.385L368.484 124.761L368.362 124.273C368.29 123.987 368.221 123.742 368.156 123.537C368.09 123.332 367.982 123.097 367.832 122.83C367.682 122.564 367.519 122.356 367.344 122.207C367.168 122.058 366.92 121.926 366.602 121.813C366.283 121.7 365.931 121.65 365.548 121.664C365.479 121.667 365.374 121.687 365.231 121.723C364.841 121.821 364.49 121.992 364.178 122.237C363.691 122.663 363.427 123.152 363.386 123.701C363.344 124.251 363.41 124.87 363.584 125.559L363.682 125.949C363.996 127.197 364.341 128.044 364.715 128.489C365.331 129.177 366.114 129.402 367.063 129.163Z" fill="#FF777A"/>
<path d="M371.006 116.162C370.914 115.798 370.959 115.483 371.141 115.216C371.323 114.949 371.583 114.773 371.921 114.688C372.226 114.638 372.514 114.684 372.784 114.823C373.054 114.962 373.235 115.214 373.327 115.578C373.425 115.968 373.388 116.288 373.216 116.539C373.044 116.79 372.796 116.956 372.471 117.038C372.146 117.12 371.848 117.091 371.578 116.951C371.308 116.812 371.117 116.549 371.006 116.162ZM373.432 131.561C373.838 131.528 374.08 131.502 374.158 131.482C374.939 131.286 375.251 130.578 375.096 129.359C375.083 129.196 374.739 127.776 374.065 125.098C373.39 122.419 373.037 121.043 373.004 120.968C372.893 120.747 372.75 120.617 372.574 120.579C372.399 120.54 372.074 120.567 371.599 120.658L371.209 120.757L371.096 120.308C371.021 120.009 370.996 119.856 371.022 119.85L371.095 119.811C371.147 119.797 371.225 119.778 371.329 119.752C371.433 119.725 371.542 119.691 371.656 119.649C371.77 119.606 371.904 119.565 372.06 119.526C372.216 119.487 372.376 119.433 372.538 119.364C372.769 119.292 373.013 119.217 373.269 119.139C373.526 119.06 373.723 118.99 373.859 118.928C373.996 118.866 374.072 118.84 374.088 118.85L374.166 118.83L375.433 123.861C376.14 126.725 376.532 128.306 376.607 128.605C376.682 128.904 376.707 129.168 376.681 129.395C376.627 130.059 376.376 130.654 375.928 131.182C375.481 131.709 374.912 132.06 374.223 132.233C373.586 132.394 373.017 132.357 372.516 132.124C372.015 131.891 371.705 131.54 371.587 131.072C371.512 130.773 371.547 130.501 371.693 130.257C371.839 130.013 372.062 129.853 372.361 129.778C372.66 129.703 372.931 129.738 373.175 129.884C373.419 130.03 373.587 130.257 373.679 130.566C373.761 130.891 373.678 131.223 373.432 131.561Z" fill="#FF777A"/>
<path d="M377.528 122.629C377.348 121.914 377.315 121.231 377.427 120.58C377.54 119.93 377.746 119.373 378.044 118.911C378.342 118.449 378.696 118.069 379.105 117.773C379.515 117.476 379.919 117.271 380.319 117.156C381.008 116.983 381.629 116.951 382.182 117.06C382.735 117.17 383.194 117.4 383.559 117.751C383.923 118.101 384.21 118.472 384.419 118.861C384.628 119.251 384.802 119.698 384.943 120.202C384.966 120.293 384.943 120.395 384.875 120.509L379.376 121.894L379.449 122.186C379.934 124.111 380.879 125.117 382.284 125.206C382.563 125.218 382.859 125.185 383.171 125.107C383.717 124.969 384.133 124.643 384.418 124.129C384.583 123.852 384.69 123.535 384.738 123.177L384.816 122.66C384.845 122.611 384.944 122.566 385.113 122.523L385.171 122.508C385.392 122.453 385.519 122.49 385.552 122.62C385.565 122.672 385.567 122.761 385.557 122.888C385.49 123.666 385.223 124.334 384.756 124.894C384.289 125.454 383.697 125.824 382.982 126.004C381.747 126.315 380.607 126.126 379.562 125.435C378.517 124.744 377.839 123.808 377.528 122.629ZM383.197 120.019C382.635 118.391 381.794 117.663 380.676 117.834L380.637 117.843C380.533 117.87 380.431 117.902 380.33 117.942C380.229 117.981 380.08 118.074 379.882 118.22C379.684 118.367 379.53 118.551 379.419 118.772C379.309 118.994 379.227 119.298 379.172 119.685C379.117 120.072 379.122 120.527 379.184 121.05L379.219 121.187L383.236 120.175L383.197 120.019Z" fill="#FF777A"/>
<path d="M392.43 117.072C392.43 117.072 392.293 117.107 392.02 117.176C391.747 117.244 391.489 117.206 391.245 117.06C391 116.914 390.834 116.693 390.746 116.397C390.671 116.098 390.706 115.827 390.852 115.583C390.9 115.501 390.923 115.454 390.92 115.441C390.917 115.428 390.848 115.431 390.715 115.451C390.364 115.484 390.039 115.538 389.74 115.614C389.103 115.774 388.635 116.113 388.337 116.631C387.88 117.396 387.831 118.493 388.191 119.923C388.46 120.989 388.872 121.777 389.429 122.287C390.162 122.946 390.977 123.162 391.874 122.936C392.407 122.802 392.793 122.525 393.033 122.105C393.273 121.685 393.406 121.223 393.431 120.719C393.431 120.609 393.447 120.535 393.479 120.5C393.512 120.464 393.613 120.425 393.782 120.382L394.055 120.313C394.152 120.372 394.206 120.42 394.216 120.459C394.229 120.511 394.229 120.622 394.216 120.791C394.204 120.96 394.154 121.201 394.066 121.513C393.979 121.825 393.853 122.12 393.687 122.397C393.522 122.673 393.261 122.953 392.904 123.237C392.546 123.52 392.119 123.718 391.622 123.829C390.504 124.111 389.424 123.94 388.382 123.318C387.341 122.695 386.655 121.755 386.324 120.497C385.984 119.145 386.13 117.94 386.762 116.882C387.394 115.824 388.269 115.154 389.387 114.873C390.506 114.591 391.33 114.571 391.86 114.81C392.391 115.05 392.716 115.41 392.838 115.891C392.913 116.19 392.863 116.459 392.688 116.696L392.43 117.072Z" fill="#FF777A"/>
<path d="M393.825 114.295C394.501 114.069 394.942 113.571 395.149 112.8C395.356 112.029 395.364 111.184 395.174 110.264L395.1 109.971L395.88 109.775L396.784 113.363L399.417 112.7L399.643 113.597L397.01 114.26L397.717 117.068C398.139 118.69 398.376 119.605 398.429 119.813C398.481 120.021 398.579 120.218 398.722 120.403C399.032 120.864 399.414 121.037 399.87 120.923C400.442 120.779 400.676 120.229 400.574 119.273C400.561 119.166 400.492 118.865 400.368 118.371L400.196 117.689L400.976 117.492L401.148 118.175L401.207 118.409C401.459 119.41 401.377 120.239 400.962 120.897C400.699 121.336 400.289 121.626 399.729 121.767C399.287 121.878 398.884 121.897 398.52 121.823C398.156 121.748 397.858 121.609 397.627 121.405C397.395 121.2 397.215 121.004 397.084 120.815C396.954 120.627 396.856 120.43 396.791 120.226C396.755 120.138 396.506 119.178 396.044 117.344L395.372 114.673L393.831 115.061L393.649 114.339L393.825 114.295Z" fill="#FF777A"/>
<path d="M402.432 116.358C402.252 115.643 402.219 114.96 402.331 114.31C402.444 113.659 402.65 113.103 402.948 112.641C403.246 112.178 403.6 111.799 404.009 111.502C404.419 111.206 404.823 111 405.223 110.886C405.912 110.712 406.533 110.68 407.086 110.79C407.639 110.9 408.098 111.13 408.462 111.48C408.827 111.831 409.114 112.201 409.323 112.591C409.532 112.981 409.706 113.427 409.847 113.931C409.87 114.022 409.847 114.125 409.779 114.239L404.28 115.623L404.353 115.916C404.838 117.84 405.782 118.847 407.187 118.935C407.467 118.948 407.763 118.915 408.075 118.836C408.621 118.699 409.037 118.373 409.322 117.859C409.487 117.582 409.594 117.265 409.642 116.907L409.719 116.39C409.749 116.341 409.848 116.295 410.017 116.253L410.075 116.238C410.296 116.182 410.423 116.219 410.456 116.349C410.469 116.401 410.471 116.491 410.461 116.618C410.394 117.395 410.127 118.064 409.66 118.624C409.192 119.184 408.601 119.554 407.886 119.734C406.651 120.045 405.511 119.855 404.466 119.164C403.421 118.473 402.743 117.538 402.432 116.358ZM408.1 113.749C407.538 112.121 406.698 111.392 405.58 111.563L405.541 111.573C405.437 111.599 405.335 111.632 405.234 111.671C405.133 111.71 404.984 111.803 404.786 111.95C404.587 112.096 404.433 112.28 404.323 112.502C404.213 112.723 404.131 113.027 404.076 113.414C404.021 113.801 404.025 114.256 404.088 114.78L404.122 114.916L408.14 113.905L408.1 113.749Z" fill="#FF777A"/>
<path d="M416.518 107.067C416.465 106.859 416.4 106.599 416.321 106.287C416.243 105.975 416.195 105.759 416.179 105.639C416.031 105.054 415.875 104.706 415.709 104.596C415.543 104.485 415.19 104.484 414.65 104.592L414.299 104.681L414.186 104.232C414.111 103.933 414.086 103.781 414.112 103.774L414.302 103.705C414.429 103.66 414.614 103.599 414.858 103.524C415.102 103.449 415.339 103.375 415.57 103.303C415.788 103.235 416.025 103.161 416.282 103.083C416.538 103.004 416.729 102.936 416.852 102.877C416.975 102.818 417.045 102.794 417.062 102.803L417.12 102.789L418.613 108.717C419.615 112.695 420.127 114.702 420.15 114.738C420.254 114.988 420.388 115.135 420.55 115.177C420.713 115.219 421.02 115.203 421.472 115.131L421.823 115.043L422.049 115.94C422.023 115.946 421.537 116.103 420.591 116.41C419.646 116.718 419.142 116.886 419.08 116.915L418.944 116.95L418.674 115.877L418.552 116.053C417.955 116.867 417.189 117.392 416.253 117.627C415.251 117.879 414.248 117.71 413.242 117.12C412.236 116.53 411.563 115.559 411.223 114.207C410.896 112.907 411.038 111.744 411.651 110.719C412.264 109.694 413.115 109.037 414.204 108.749C415.179 108.503 416.117 108.606 417.018 109.056L416.518 107.067ZM417.21 110.066C416.419 109.394 415.581 109.169 414.697 109.392C414.06 109.552 413.554 109.929 413.177 110.521C412.918 110.974 412.802 111.445 412.829 111.936C412.855 112.427 412.957 113.051 413.134 113.809C413.318 114.537 413.512 115.117 413.718 115.549C413.923 115.981 414.251 116.32 414.7 116.567C415.198 116.898 415.759 116.984 416.383 116.827C417.306 116.595 417.973 115.895 418.384 114.727L417.21 110.066Z" fill="#FF777A"/>
<path d="M437.323 102.886C437.489 102.886 438.131 102.745 439.249 102.463C440.224 102.218 440.726 102.071 440.755 102.022L440.853 101.997L441.157 103.207L439.909 103.521L438.845 111.483C438.835 111.499 438.82 111.523 438.801 111.556C438.781 111.588 438.762 111.621 438.742 111.654C438.723 111.686 438.713 111.702 438.713 111.702C438.713 111.702 438.697 111.72 438.665 111.756C438.632 111.792 438.622 111.808 438.635 111.805C438.648 111.802 438.624 111.815 438.562 111.844C438.501 111.873 438.475 111.88 438.484 111.864C438.494 111.847 438.47 111.861 438.411 111.903C438.353 111.945 438.314 111.955 438.294 111.932C438.275 111.91 438.223 111.923 438.138 111.972L437.924 112.026C437.703 112.081 437.53 112.056 437.406 111.948C437.283 111.841 436.996 111.471 436.546 110.838C436.207 110.37 435.922 109.979 435.691 109.664L434.165 107.559L433.818 110.135C433.774 110.506 433.711 110.971 433.631 111.53C433.538 112.314 433.462 112.783 433.404 112.936C433.345 113.089 433.207 113.199 432.99 113.268L432.756 113.327C432.522 113.386 432.362 113.412 432.278 113.406C432.193 113.399 432.074 113.339 431.921 113.226L427.213 106.717L425.946 107.037L425.641 105.827L425.778 105.793C425.983 105.783 426.69 105.626 427.899 105.321C429.238 104.984 430.02 104.767 430.244 104.669L430.419 104.624L430.724 105.834L429.788 106.069L432.574 109.889L433.104 106.064L432.596 105.362L431.367 105.672L431.063 104.462L431.199 104.428C431.365 104.428 432.001 104.288 433.106 104.01C434.419 103.68 435.168 103.47 435.353 103.382L435.509 103.343L435.814 104.552L435.326 104.675C435.001 104.757 434.842 104.81 434.848 104.836C434.874 104.885 435.385 105.593 436.379 106.961C437.373 108.328 437.876 109.01 437.889 109.007L438.602 103.85L437.491 104.13L437.186 102.921L437.323 102.886Z" fill="#FF777A"/>
<path d="M434.344 97.7674C434.318 97.6633 434.327 97.5642 434.373 97.4698C434.418 97.3754 434.506 97.3118 434.636 97.2791C434.727 97.2562 434.813 97.2691 434.894 97.3177C434.972 97.3533 435.068 97.4605 435.183 97.6391C435.434 98.0874 435.794 98.3909 436.262 98.5494C436.428 98.6044 436.529 98.7034 436.565 98.8464C436.594 98.9634 436.595 99.0464 436.565 99.0952C436.536 99.144 436.46 99.2254 436.337 99.3394C435.849 99.7662 435.465 100.299 435.183 100.936C435.164 100.969 435.141 101.016 435.115 101.078C435.089 101.14 435.067 101.187 435.047 101.219C435.028 101.252 434.998 101.273 434.959 101.283C434.92 101.293 434.877 101.311 434.828 101.337C434.737 101.36 434.644 101.349 434.55 101.303C434.455 101.258 434.385 101.172 434.34 101.045C434.277 100.798 434.486 100.338 434.966 99.6637L431.632 100.503L428.292 101.324C428.093 101.249 427.978 101.147 427.945 101.017C427.922 100.926 427.974 100.775 428.1 100.563L435.102 98.8001C434.665 98.3846 434.413 98.0404 434.344 97.7674Z" fill="#FF777A"/>
<path d="M448.258 104.146C449.554 109.294 449.002 113.581 446.602 117.006L446.348 117.069C446.179 117.112 446.065 117.127 446.007 117.114C445.948 117.101 445.908 117.049 445.885 116.958C445.894 116.886 446.006 116.644 446.22 116.231C446.434 115.817 446.635 115.297 446.822 114.669C447.01 114.041 447.179 113.286 447.331 112.405C447.482 111.523 447.501 110.392 447.388 109.01C447.275 107.628 447.021 106.151 446.625 104.578C446.229 103.004 445.753 101.583 445.198 100.312C444.643 99.0417 444.09 98.0542 443.54 97.3495C442.989 96.6448 442.481 96.0538 442.015 95.5766C441.549 95.0994 441.127 94.7424 440.75 94.5057C440.372 94.269 440.157 94.1019 440.105 94.0044C440.069 93.8614 440.149 93.7653 440.344 93.7162L440.461 93.6868L440.714 93.6229C442.729 94.595 444.409 96.1351 445.756 98.2432C446.854 99.916 447.688 101.883 448.258 104.146Z" fill="#FF777A"/>
<path d="M260.887 50.2394H66.4382V110.223H260.887V50.2394Z" fill="black"/>
<g clip-path="url(#clip6_290_3132)">
<path d="M75.8501 102.94V54.6941H81.26V55.9409H77.097V101.693H81.26V102.94H75.8501Z" fill="#F0F0F0"/>
<path d="M95.2572 69.7672C95.0159 69.727 94.1511 69.7069 92.6629 69.7069C91.1077 69.7069 90.2094 69.727 89.968 69.7672H89.787V68.8421H90.4105C90.6786 68.8421 90.8596 68.8421 90.9535 68.8421C91.0473 68.8421 91.1613 68.8287 91.2954 68.8019C91.4294 68.7751 91.5233 68.7416 91.5769 68.7014C91.6305 68.6611 91.6775 68.6075 91.7177 68.5405C91.7311 68.5137 91.7378 68.1517 91.7378 67.4545V66.4489H86.5291V65.5238L89.5658 60.8782C91.6171 57.7677 92.6562 56.2057 92.683 56.1923C92.7098 56.1655 92.8506 56.1521 93.1053 56.1521H93.4673L93.588 56.2728V65.5238H95.4382V66.4489H93.588V67.4746C93.588 68.0243 93.588 68.3461 93.588 68.4399C93.588 68.5338 93.6282 68.6142 93.7087 68.6812C93.8159 68.7751 94.198 68.8287 94.855 68.8421H95.4382V69.7672H95.2572ZM91.8585 65.5238V58.8068L87.4542 65.5037L89.6463 65.5238H91.8585Z" fill="#F0F0F0"/>
<path d="M90.2496 86.2985L89.9881 86.399C89.8004 86.4661 89.5323 86.5331 89.1837 86.6001C88.8351 86.6672 88.4463 86.7141 88.0172 86.7409H87.6351V85.8158H88.0172C88.6474 85.789 89.2306 85.6884 89.7669 85.5141C90.3032 85.3398 90.6786 85.179 90.8931 85.0315C91.1076 84.884 91.2953 84.7365 91.4562 84.589C91.483 84.5488 91.5635 84.5287 91.6975 84.5287C91.8182 84.5287 91.9322 84.5689 92.0394 84.6494V90.6625L92.0595 96.6958C92.1534 96.7897 92.2338 96.85 92.3009 96.8768C92.3679 96.9037 92.5288 96.9305 92.7835 96.9573C93.0383 96.9841 93.4539 96.9975 94.0304 96.9975H94.5533V97.9226H94.3321C94.0505 97.8824 92.9847 97.8623 91.1344 97.8623C89.311 97.8623 88.2586 97.8824 87.977 97.9226H87.7357V96.9975H88.2586C88.5535 96.9975 88.8083 96.9975 89.0228 96.9975C89.2373 96.9975 89.4049 96.9908 89.5256 96.9774C89.6462 96.964 89.7535 96.9439 89.8473 96.9171C89.9412 96.8902 89.9948 96.8768 90.0082 96.8768C90.0216 96.8768 90.0619 96.8433 90.1289 96.7763C90.1959 96.7092 90.2362 96.6824 90.2496 96.6958V86.2985Z" fill="#F0F0F0"/>
<path d="M100.707 55.9409V54.6941H106.117V102.94H100.707V101.693H104.87V55.9409H100.707Z" fill="#F0F0F0"/>
<path d="M117.142 78.8172C117.142 78.4954 117.256 78.2138 117.484 77.9725C117.712 77.7312 118 77.6105 118.349 77.6105C118.67 77.6105 118.952 77.7178 119.193 77.9323C119.435 78.1468 119.562 78.4351 119.575 78.7971C119.575 79.1322 119.461 79.4205 119.234 79.6618C119.006 79.9032 118.717 80.0238 118.369 80.0238C118.02 80.0238 117.732 79.9099 117.504 79.6819C117.276 79.454 117.155 79.1658 117.142 78.8172Z" fill="#F0F0F0"/>
<path d="M130.6 102.94V54.6941H136.01V55.9409H131.847V101.693H136.01V102.94H130.6Z" fill="#F0F0F0"/>
<path d="M150.731 61.1396C150.369 61.1396 150.081 61.019 149.867 60.7776C149.652 60.5363 149.545 60.2413 149.545 59.8928C149.545 58.9408 149.9 58.1163 150.611 57.4191C151.321 56.7219 152.206 56.3733 153.265 56.3733C154.485 56.3733 155.504 56.7487 156.322 57.4995C157.14 58.2504 157.556 59.2224 157.569 60.4156C157.569 60.9922 157.435 61.5419 157.167 62.0647C156.899 62.5876 156.577 63.0435 156.202 63.4323C155.826 63.8211 155.29 64.3172 154.593 64.9205C154.11 65.3361 153.44 65.9529 152.582 66.7707L151.395 67.8969L152.923 67.917C155.028 67.917 156.148 67.8835 156.282 67.8165C156.376 67.7897 156.537 67.193 156.765 66.0266V65.9663H157.569V66.0266C157.556 66.0668 157.469 66.6769 157.308 67.8567C157.147 69.0365 157.046 69.6533 157.006 69.7069V69.7672H149.545V69.3851V69.1438C149.545 69.05 149.585 68.9494 149.665 68.8421C149.746 68.7349 149.947 68.5003 150.269 68.1383C150.658 67.7092 150.993 67.3338 151.274 67.012C151.395 66.878 151.623 66.6299 151.958 66.2679C152.293 65.9059 152.521 65.6579 152.642 65.5238C152.763 65.3898 152.957 65.1685 153.225 64.8602C153.493 64.5518 153.681 64.3239 153.788 64.1764C153.895 64.0289 154.05 63.8278 154.251 63.5731C154.452 63.3183 154.593 63.1038 154.673 62.9295C154.754 62.7552 154.854 62.5608 154.975 62.3463C155.095 62.1318 155.183 61.9173 155.236 61.7027C155.29 61.4882 155.337 61.2871 155.377 61.0994C155.417 60.9117 155.437 60.6905 155.437 60.4357C155.437 59.5911 155.209 58.8604 154.754 58.2437C154.298 57.6269 153.647 57.3185 152.803 57.3185C152.36 57.3185 151.972 57.4325 151.636 57.6604C151.301 57.8884 151.067 58.1096 150.932 58.3241C150.798 58.5386 150.731 58.666 150.731 58.7062C150.731 58.7196 150.765 58.7263 150.832 58.7263C151.073 58.7263 151.321 58.8202 151.576 59.0079C151.831 59.1956 151.958 59.5039 151.958 59.933C151.958 60.2682 151.851 60.5497 151.636 60.7776C151.422 61.0056 151.12 61.1262 150.731 61.1396Z" fill="#F0F0F0"/>
<path d="M142.405 93.1563C142.405 93.1563 142.405 93.0692 142.405 92.8949C142.405 92.7206 142.499 92.5865 142.687 92.4926H154.371C154.573 92.5999 154.673 92.734 154.673 92.8949C154.673 93.0558 154.573 93.1898 154.371 93.2971H142.687C142.499 93.2032 142.405 93.0692 142.405 92.8949V93.1563Z" fill="#F0F0F0"/>
<path d="M160.646 86.2985L160.385 86.399C160.197 86.4661 159.929 86.5331 159.58 86.6001C159.232 86.6672 158.843 86.7141 158.414 86.7409H158.032V85.8158H158.414C159.044 85.789 159.627 85.6884 160.163 85.5141C160.7 85.3398 161.075 85.179 161.29 85.0315C161.504 84.884 161.692 84.7365 161.853 84.589C161.88 84.5488 161.96 84.5287 162.094 84.5287C162.215 84.5287 162.329 84.5689 162.436 84.6494V90.6625L162.456 96.6958C162.55 96.7897 162.63 96.85 162.697 96.8768C162.764 96.9037 162.925 96.9305 163.18 96.9573C163.435 96.9841 163.85 96.9975 164.427 96.9975H164.95V97.9226H164.729C164.447 97.8824 163.381 97.8623 161.531 97.8623C159.708 97.8623 158.655 97.8824 158.374 97.9226H158.132V96.9975H158.655C158.95 96.9975 159.205 96.9975 159.419 96.9975C159.634 96.9975 159.801 96.9908 159.922 96.9774C160.043 96.964 160.15 96.9439 160.244 96.9171C160.338 96.8902 160.391 96.8768 160.405 96.8768C160.418 96.8768 160.458 96.8433 160.525 96.7763C160.592 96.7092 160.633 96.6824 160.646 96.6958V86.2985Z" fill="#F0F0F0"/>
<path d="M171.104 55.9409V54.6941H176.514V102.94H171.104V101.693H175.267V55.9409H171.104Z" fill="#F0F0F0"/>
<path d="M188.214 76.8664C188.214 76.6921 188.308 76.558 188.496 76.4642H201.306C201.507 76.5715 201.608 76.7055 201.608 76.8664C201.608 77.0139 201.514 77.1413 201.326 77.2485L194.931 77.2686H188.536C188.321 77.2016 188.214 77.0675 188.214 76.8664ZM188.214 80.7679C188.214 80.5668 188.321 80.4328 188.536 80.3657H201.326C201.514 80.4998 201.608 80.6339 201.608 80.7679C201.608 80.9422 201.507 81.0763 201.306 81.1702H188.496C188.308 81.0763 188.214 80.9422 188.214 80.7679Z" fill="#F0F0F0"/>
<path d="M218.819 82.6383C218.819 82.3165 218.933 82.035 219.161 81.7936C219.389 81.5523 219.677 81.4316 220.026 81.4316C220.348 81.4316 220.629 81.5389 220.87 81.7534C221.112 81.9679 221.239 82.2562 221.253 82.6182C221.253 82.9534 221.139 83.2416 220.911 83.4829C220.683 83.7243 220.394 83.8449 220.046 83.8449C219.697 83.8449 219.409 83.731 219.181 83.5031C218.953 83.2751 218.832 82.9869 218.819 82.6383ZM227.809 82.6383C227.809 82.3165 227.923 82.035 228.151 81.7936C228.379 81.5523 228.667 81.4316 229.015 81.4316C229.337 81.4316 229.619 81.5389 229.86 81.7534C230.101 81.9679 230.229 82.2562 230.242 82.6182C230.242 82.9534 230.128 83.2416 229.9 83.4829C229.672 83.7243 229.384 83.8449 229.035 83.8449C228.687 83.8449 228.399 83.731 228.171 83.5031C227.943 83.2751 227.822 82.9869 227.809 82.6383ZM236.798 82.6383C236.798 82.3165 236.912 82.035 237.14 81.7936C237.368 81.5523 237.656 81.4316 238.005 81.4316C238.327 81.4316 238.608 81.5389 238.85 81.7534C239.091 81.9679 239.218 82.2562 239.232 82.6182C239.232 82.9534 239.118 83.2416 238.89 83.4829C238.662 83.7243 238.374 83.8449 238.025 83.8449C237.676 83.8449 237.388 83.731 237.16 83.5031C236.932 83.2751 236.812 82.9869 236.798 82.6383Z" fill="#F0F0F0"/>
</g>
<path d="M76.4705 117.609C76.589 117.609 76.6646 117.716 76.6985 117.93C76.732 118.143 76.7685 118.514 76.8075 119.041C76.847 119.568 76.9053 120.028 76.9834 120.424C77.5404 123.288 78.6448 124.72 80.296 124.72H87.4069C89.5077 124.72 90.8559 126.708 91.4524 130.683C92.0479 126.708 93.3287 124.72 95.2927 124.72H102.56C103.039 124.72 103.4 124.687 103.644 124.621C104.328 124.39 104.919 123.753 105.418 122.707C105.916 121.662 106.214 120.366 106.312 118.818C106.312 118.785 106.317 118.69 106.327 118.535C106.337 118.379 106.346 118.267 106.356 118.202C106.366 118.135 106.381 118.045 106.401 117.93C106.421 117.814 106.457 117.732 106.508 117.683C106.559 117.633 106.614 117.609 106.676 117.609C106.931 117.609 106.75 121.276 106.136 123.199C105.521 125.121 104.629 126.205 103.459 126.449C103.263 126.482 102.973 126.498 102.59 126.498H95.4397C94.7752 126.498 94.1939 126.716 93.6951 127.152C93.1969 127.589 92.8274 128.152 92.5882 128.844C92.349 129.535 92.1757 130.116 92.0682 130.585C91.9608 131.054 91.8868 131.527 91.8487 132.005C91.8487 132.104 91.8432 132.248 91.8335 132.437C91.8239 132.626 91.8067 132.778 91.7824 132.894C91.758 133.009 91.7362 133.125 91.7165 133.239C91.6972 133.355 91.6627 133.445 91.6136 133.511C91.5649 133.576 91.5107 133.61 91.4524 133.61C91.3744 133.61 91.3105 133.586 91.2618 133.536C91.2132 133.486 91.1762 133.396 91.1519 133.264C91.1275 133.133 91.1103 132.997 91.1007 132.857C91.091 132.718 91.0763 132.532 91.0571 132.301C91.0373 132.07 91.0181 131.857 90.9983 131.659C90.8614 130.441 90.5538 129.342 90.0753 128.362C89.5959 127.383 88.9852 126.795 88.2426 126.597C88.0475 126.531 87.7541 126.498 87.3633 126.498H80.4719C80.0796 126.498 79.7664 126.469 79.5317 126.412C79.2975 126.355 78.9696 126.135 78.5485 125.752C78.1273 125.369 77.7492 124.811 77.4142 124.078C76.3012 122.052 76.2768 117.609 76.4705 117.609Z" fill="#F0F0F0"/>
<path d="M102.778 138.587H80.3877V165.779H102.778V138.587Z" fill="black"/>
<g clip-path="url(#clip7_290_3132)">
<path d="M92.8947 151.135C93.0555 151.175 93.6855 151.196 94.7847 151.196C95.7632 151.196 96.2926 151.175 96.373 151.135H96.4937V152.382H95.0862L93.0555 156.926C92.2379 158.776 91.7687 159.781 91.6481 159.942C91.5409 160.076 91.4135 160.143 91.2661 160.143C91.2393 160.143 91.1923 160.143 91.1253 160.143C91.0583 160.143 90.9913 160.136 90.9243 160.123H90.6227C90.4216 160.123 90.2608 160.022 90.1401 159.821C90.0195 159.62 89.7313 159.017 89.2756 158.012C89.0745 157.569 88.9137 157.207 88.793 156.926L86.7623 152.382H85.3549V151.135H85.5157C85.7168 151.175 86.4607 151.196 87.7475 151.196C89.1817 151.196 90.0195 151.175 90.2608 151.135H90.4417V152.382H89.4766L90.5422 154.754C91.2259 156.296 91.5878 157.067 91.628 157.067C91.628 157.053 91.9698 156.282 92.6534 154.754C93.337 153.226 93.6922 152.442 93.719 152.402C93.719 152.389 93.5582 152.382 93.2365 152.382H92.7539V151.135H92.8947Z" fill="#FFF888"/>
<path d="M93.4878 145.445C93.4878 145.338 93.5213 145.244 93.5883 145.164C93.6553 145.083 93.7559 145.043 93.8899 145.043C93.9837 145.043 94.0642 145.077 94.1312 145.144C94.1982 145.197 94.2652 145.325 94.3323 145.526C94.4663 146.022 94.7411 146.404 95.1566 146.672C95.304 146.765 95.3778 146.886 95.3778 147.034C95.3778 147.154 95.3577 147.235 95.3175 147.275C95.2772 147.315 95.1834 147.375 95.036 147.456C94.4596 147.751 93.9569 148.173 93.528 148.722C93.5012 148.749 93.4677 148.79 93.4275 148.843C93.3873 148.897 93.3538 148.937 93.3269 148.964C93.3001 148.991 93.2666 149.004 93.2264 149.004C93.1862 149.004 93.1393 149.011 93.0857 149.024C92.9918 149.024 92.9047 148.991 92.8243 148.924C92.7439 148.857 92.6969 148.756 92.6835 148.622C92.6835 148.367 92.9985 147.972 93.6285 147.436H90.1904L86.7522 147.416C86.578 147.295 86.4908 147.168 86.4908 147.034C86.4908 146.94 86.578 146.806 86.7522 146.631H93.9703C93.6486 146.122 93.4878 145.727 93.4878 145.445Z" fill="#FFF888"/>
</g>
<path d="M130.99 118.586C131.168 118.586 131.282 118.693 131.333 118.907C131.383 119.12 131.438 119.491 131.496 120.018C131.556 120.545 131.643 121.005 131.761 121.401C132.597 124.265 134.255 125.697 136.735 125.697H147.412C150.567 125.697 152.591 127.685 153.487 131.66C154.381 127.685 156.304 125.697 159.253 125.697H170.166C170.884 125.697 171.427 125.664 171.793 125.598C172.821 125.367 173.708 124.73 174.456 123.684C175.204 122.639 175.652 121.343 175.799 119.795C175.799 119.762 175.807 119.667 175.822 119.512C175.836 119.356 175.85 119.244 175.866 119.179C175.88 119.112 175.903 119.022 175.933 118.907C175.963 118.791 176.017 118.709 176.093 118.66C176.169 118.61 176.253 118.586 176.346 118.586C176.728 118.586 176.457 122.253 175.535 124.176C174.611 126.098 173.272 127.182 171.516 127.426C171.22 127.459 170.785 127.475 170.21 127.475H159.474C158.476 127.475 157.603 127.693 156.854 128.129C156.106 128.566 155.551 129.129 155.192 129.821C154.833 130.512 154.573 131.093 154.411 131.562C154.25 132.031 154.139 132.504 154.082 132.982C154.082 133.081 154.073 133.225 154.059 133.414C154.044 133.603 154.019 133.755 153.982 133.871C153.946 133.986 153.913 134.102 153.883 134.216C153.854 134.332 153.802 134.422 153.729 134.488C153.656 134.553 153.574 134.587 153.487 134.587C153.369 134.587 153.274 134.563 153.2 134.513C153.127 134.463 153.072 134.373 153.035 134.241C152.999 134.11 152.973 133.974 152.958 133.834C152.944 133.695 152.922 133.509 152.893 133.278C152.863 133.047 152.834 132.834 152.805 132.636C152.599 131.418 152.137 130.319 151.419 129.339C150.699 128.36 149.782 127.772 148.667 127.574C148.374 127.508 147.933 127.475 147.347 127.475H136.999C136.41 127.475 135.939 127.446 135.587 127.389C135.235 127.332 134.743 127.112 134.111 126.729C133.478 126.346 132.91 125.788 132.407 125.055C130.736 123.029 130.7 118.586 130.99 118.586Z" fill="#F0F0F0"/>
<path d="M168.623 137.939H140.723V165.156H168.623V137.939Z" fill="black"/>
<g clip-path="url(#clip8_290_3132)">
<path d="M157.716 150.487C157.877 150.527 158.533 150.547 159.686 150.547C160.692 150.547 161.214 150.527 161.255 150.487H161.355V151.733H160.068L157.092 159.193C157.079 159.207 157.059 159.227 157.032 159.253C157.005 159.28 156.978 159.307 156.952 159.334C156.925 159.361 156.911 159.374 156.911 159.374C156.911 159.374 156.891 159.388 156.851 159.414C156.811 159.441 156.797 159.455 156.811 159.455C156.824 159.455 156.797 159.461 156.73 159.475C156.663 159.488 156.637 159.488 156.65 159.475C156.663 159.461 156.637 159.468 156.57 159.495C156.503 159.522 156.462 159.522 156.449 159.495C156.436 159.468 156.382 159.468 156.288 159.495H156.067C155.839 159.495 155.678 159.428 155.584 159.294C155.49 159.16 155.303 158.731 155.021 158.007C154.807 157.471 154.626 157.022 154.478 156.66L153.513 154.247L152.548 156.66C152.414 157.008 152.24 157.444 152.025 157.967C151.744 158.704 151.556 159.14 151.462 159.274C151.368 159.408 151.208 159.481 150.98 159.495H150.738C150.497 159.495 150.336 159.481 150.256 159.455C150.175 159.428 150.075 159.341 149.954 159.193L146.978 151.733H145.671V150.487H145.812C146.013 150.527 146.737 150.547 147.984 150.547C149.364 150.547 150.175 150.527 150.417 150.487H150.598V151.733H149.632L151.402 156.117L152.85 152.538L152.528 151.733H151.261V150.487H151.402C151.563 150.527 152.213 150.547 153.352 150.547C154.706 150.547 155.484 150.527 155.685 150.487H155.846V151.733H155.343C155.008 151.733 154.84 151.747 154.84 151.773C154.854 151.827 155.175 152.638 155.805 154.206C156.436 155.775 156.757 156.559 156.771 156.559L158.721 151.733H157.575V150.487H157.716Z" fill="#6AB0F3"/>
<path d="M156.077 144.796C156.077 144.689 156.11 144.595 156.177 144.515C156.244 144.434 156.345 144.394 156.479 144.394C156.573 144.394 156.653 144.428 156.72 144.495C156.787 144.548 156.854 144.676 156.921 144.877C157.055 145.373 157.33 145.755 157.746 146.023C157.893 146.117 157.967 146.237 157.967 146.385C157.967 146.505 157.947 146.586 157.907 146.626C157.866 146.666 157.773 146.726 157.625 146.807C157.049 147.102 156.546 147.524 156.117 148.074C156.09 148.101 156.057 148.141 156.017 148.194C155.976 148.248 155.943 148.288 155.916 148.315C155.889 148.342 155.856 148.355 155.816 148.355C155.775 148.355 155.728 148.362 155.675 148.375C155.581 148.375 155.494 148.342 155.413 148.275C155.333 148.208 155.286 148.107 155.273 147.973C155.273 147.718 155.588 147.323 156.218 146.787H152.779L149.341 146.767C149.167 146.646 149.079 146.519 149.079 146.385C149.079 146.291 149.167 146.157 149.341 145.983H156.559C156.238 145.473 156.077 145.078 156.077 144.796Z" fill="#6AB0F3"/>
</g>
</g>
<defs>
<clipPath id="clip0_290_3132">
<rect width="640" height="360" fill="white"/>
</clipPath>
<clipPath id="clip1_290_3132">
<rect width="640" height="360" fill="white"/>
</clipPath>
<clipPath id="clip2_290_3132">
<rect width="9.85778" height="13.0133" fill="white" transform="translate(314.786 27.4015)"/>
</clipPath>
<clipPath id="clip3_290_3132">
<rect width="11.5022" height="9.11111" fill="white" transform="translate(600.158 175.031)"/>
</clipPath>
<clipPath id="clip4_290_3132">
<rect width="10.984" height="15.328" fill="white" transform="translate(414.532 147.587)"/>
</clipPath>
<clipPath id="clip5_290_3132">
<rect width="15.04" height="15.328" fill="white" transform="translate(362.301 197.577)"/>
</clipPath>
<clipPath id="clip6_290_3132">
<rect width="169.938" height="48.2667" fill="white" transform="translate(70.8827 54.6839)"/>
</clipPath>
<clipPath id="clip7_290_3132">
<rect width="12.2044" height="17.0311" fill="white" transform="translate(84.8322 143.032)"/>
</clipPath>
<clipPath id="clip8_290_3132">
<rect width="16.7111" height="17.0311" fill="white" transform="translate(145.168 142.383)"/>
</clipPath>
</defs>
</svg>
