<svg xmlns="http://www.w3.org/2000/svg" viewBox="0 0 1190.88 841.68"><defs><clipPath id="a"><path d="M0 0h1190.88v841.68H0z" style="fill:none"/></clipPath><style>.c,.d,.f,.h,.j,.l{fill:none}.c,.j{stroke:#000}.c,.d,.h,.j,.l{stroke-linecap:round;stroke-linejoin:round}.c{stroke-width:2.8346px}.d,.f{stroke:#d2d2d2;stroke-width:4.0661px}.e{fill:#d2d2d2}.e,.g,.i,.k{opacity:.1}.f{stroke-miterlimit:10}.g{fill:#007aff}.h{stroke:#007aff}.h,.j,.l{stroke-width:5.6693px}.k{fill:#7ec636}.l{stroke:#7ec636}</style></defs><g style="clip-path:url(#a)"><path d="m53.676 120.939-.261-.44q-.03-.05-.03.485l-.004 2.605q-.002 2.072.074 5.3t.117 6.329q.041 3.1.095 4.868t.13 2.218a.8.8 0 0 0 .31.593q.332.198.658-.86" class="c"/><path d="M53.794 128.19a2.4 2.4 0 0 1 1.21-.034q.524.083 1.314.177t1.732.153 2.562.064 2.223-.054a11.8 11.8 0 0 0 2.823-.883M67.655 119.9q-.447-.461-.476.239a12 12 0 0 0 .028 1.24q.05.722.323 2.834t.395 3.494.207 2.858.142 2.937.13 3.793.108 3.163q.037.832.102 1.474a7 7 0 0 0 .144.95q.113.437.769.371M73.318 138.258a3.9 3.9 0 0 0 .382 1.1 1.8 1.8 0 0 0 .373.422 1.24 1.24 0 0 0 .534.263 3.4 3.4 0 0 0 .687.075 1.7 1.7 0 0 0 .837-.236 3.8 3.8 0 0 0 .86-.645 6.7 6.7 0 0 0 .777-.93 13 13 0 0 0 .72-1.164 10 10 0 0 0 .591-1.282 12 12 0 0 0 .41-1.342 14 14 0 0 0 .275-1.535 15 15 0 0 0 .115-1.711 6 6 0 0 0-.21-1.678 9 9 0 0 0-.544-1.479 4.2 4.2 0 0 0-.647-1.024 1.7 1.7 0 0 0-.61-.458 1.05 1.05 0 0 0-.536-.071.73.73 0 0 0-.466.37 5 5 0 0 0-.436.854q-.217.52-.445 1.254a14 14 0 0 0-.384 1.571q-.157.838-.268 1.761t-.172 1.903q-.06.98-.067 1.932a12.5 12.5 0 0 0 .127 1.871 8.6 8.6 0 0 0 .437 1.742 4.6 4.6 0 0 0 .724 1.331 3.2 3.2 0 0 0 .897.778 3 3 0 0 0 1.01.355 2.8 2.8 0 0 0 1.072-.036 12.5 12.5 0 0 0 3.372-2.483M86.2 129.937a29 29 0 0 0-.16 3.801q-.002 2.865.032 4.121t.11 2.341.183 1.864.213 1.22.286.495.378-.683.331-1.367.428-2.468.456-2.982.333-2.219.446-2.12a14 14 0 0 1 .69-2.01 5.4 5.4 0 0 1 1.005-1.588 5.5 5.5 0 0 1 1.338-1.035 8 8 0 0 1 1.563-.662 10.5 10.5 0 0 1 3.196-.316M99.217 136.649a16 16 0 0 0 2.262-.895 8.4 8.4 0 0 0 1.079-.687 6.7 6.7 0 0 0 1.032-.945 6.6 6.6 0 0 0 .829-1.177 8.7 8.7 0 0 0 .614-1.384 6.6 6.6 0 0 0 .329-1.378 12 12 0 0 0 .082-1.206 4.3 4.3 0 0 0-.125-1.095 3 3 0 0 0-.402-.937 3 3 0 0 0-.587-.663 1.8 1.8 0 0 0-.64-.347 1.05 1.05 0 0 0-.644.025 1.74 1.74 0 0 0-.695.564 10 10 0 0 0-.799 1.15 12 12 0 0 0-.832 1.707q-.406 1.007-.775 2.164t-.673 2.37a15.4 15.4 0 0 0-.408 2.32q-.103 1.106-.102 2.138a6.5 6.5 0 0 0 .296 1.964 5.3 5.3 0 0 0 .782 1.583 4.2 4.2 0 0 0 1.144 1.058 5.2 5.2 0 0 0 1.402.603 6.3 6.3 0 0 0 1.439.219 6.2 6.2 0 0 0 2.679-.787M127.22 130.07a6.8 6.8 0 0 0-.173 1.815 24 24 0 0 0 .264 2.978q.253 1.81.366 2.693t.197 1.74q.084.856.138 1.61t.12 1.217a1.55 1.55 0 0 0 .548 1.045M126.703 124.311l-.079-.288a4 4 0 0 1 .734.468l4.601 3.17M140.354 128.365a2.8 2.8 0 0 0-1.28-.366 5.6 5.6 0 0 0-1.247.063 5.3 5.3 0 0 0-1.065.313 5.6 5.6 0 0 0-.98.518 5 5 0 0 0-.829.685 1.9 1.9 0 0 0-.495.833 2.7 2.7 0 0 0-.072.957 2.23 2.23 0 0 0 .455 1.07 5.2 5.2 0 0 0 1.065 1.068q.66.506 1.44.995t1.588.95 2.238 1.19 1.985 1.092a2.9 2.9 0 0 1 .801.716 1.46 1.46 0 0 1 .271.765 1.56 1.56 0 0 1-.251.881 4.1 4.1 0 0 1-.763.916 12 12 0 0 1-1.058.867q-.572.42-1.175.818t-1.16.691a7.3 7.3 0 0 1-1.126.482 6.5 6.5 0 0 1-1.132.266 7.3 7.3 0 0 1-2.072-.075M173.345 119.562q-.079-.335-.243-.39a.225.225 0 0 0-.236.092 1.8 1.8 0 0 0-.257.69 15 15 0 0 0-.255 1.516q-.12.955-.22 2.17t-.155 2.651-.089 3.026-.035 3.075.008 2.765.073 2.393.168 1.966a13 13 0 0 0 .273 1.52 4.6 4.6 0 0 0 .413 1.111 1.64 1.64 0 0 0 .538.624 1.3 1.3 0 0 0 .615.197 2.37 2.37 0 0 0 1.348-.69" class="c"/><path d="M165.89 131.42q-.67-.75.846-1.077t2.455-.557 1.981-.571a15 15 0 0 0 2.055-.848 25 25 0 0 0 4.506-3.43M181.282 118.099a2.6 2.6 0 0 0-.795.845 3.5 3.5 0 0 0-.346.953 10.6 10.6 0 0 0-.214 1.605q-.072.997-.106 2.288t-.037 2.611-.038 2.853-.088 3.218-.081 2.997-.032 2.319q-.002 1.007.02 1.726a2.25 2.25 0 0 0 .22 1.046 1.33 1.33 0 0 0 1.125.679.98.98 0 0 0 .706-.311 4 4 0 0 0 .716-.968q.364-.64.752-1.494t.744-1.828 1.078-3.386 1.113-3.512a18 18 0 0 1 .807-1.939 6.2 6.2 0 0 1 .872-1.35 1.67 1.67 0 0 1 .813-.585.64.64 0 0 1 .639.245 3 3 0 0 1 .503.9 5.8 5.8 0 0 1 .318 1.334q.094.75.142 2.654t.048 2.892q.002.988-.062 3.163t-.067 3.114a8.7 8.7 0 0 0 .13 1.64 3.16 3.16 0 0 0 1.28 1.872M198.338 135.614a.33.33 0 0 1 .351-.272 2.3 2.3 0 0 0 .532-.062 2 2 0 0 0 .554-.25 4 4 0 0 0 .636-.5 6 6 0 0 0 .67-.766 7.6 7.6 0 0 0 .652-1.061 5.4 5.4 0 0 0 .463-1.238 7 7 0 0 0 .18-1.255 4 4 0 0 0-.116-1.196 2.1 2.1 0 0 0-.424-.885 1.2 1.2 0 0 0-.612-.391 1.07 1.07 0 0 0-.683.07 1.7 1.7 0 0 0-.688.674 11 11 0 0 0-.71 1.344q-.374.82-.762 1.839t-.684 1.982-.492 1.914a13 13 0 0 0-.256 1.918 12 12 0 0 0 .009 1.747 3.3 3.3 0 0 0 .425 1.392 4.3 4.3 0 0 0 .929 1.101 4.8 4.8 0 0 0 1.174.755 4.6 4.6 0 0 0 1.282.353 21 21 0 0 0 4.035-.237M229.308 129.779a.95.95 0 0 0-.376-.511q-.144-.072-.198.488a20 20 0 0 0 .434 3.34q.487 2.78.655 3.854t.405 3.186.304 2.798a5.6 5.6 0 0 0 .55 1.938M228.722 123.96a1.1 1.1 0 0 0-.036-.507l-.05-.083q-.005-.008 0 .01l.056.186a18 18 0 0 0 1.544 2.142M235.455 129.885a23 23 0 0 1 .672 2.562q.172.862.323 1.825t.273 1.972.195 2.082.158 2.646.138 1.957.238.464.386-.234a10 10 0 0 0 .49-.894q.288-.578.645-1.415t.756-1.857.718-2.082.595-2.215q.276-1.155.62-2.364t.705-2.158a7.6 7.6 0 0 1 .712-1.479 1.9 1.9 0 0 1 .667-.68q.314-.15.552.258a5.4 5.4 0 0 1 .456 1.143 25 25 0 0 1 .524 2.462q.305 1.728.975 5.428a41.5 41.5 0 0 0 1.744 6.672M258.826 128.124a2.1 2.1 0 0 0 .779-.634 6 6 0 0 0 .555-.855 10 10 0 0 0 .488-1.077 12 12 0 0 0 .462-1.46 13 13 0 0 0 .313-1.727 17 17 0 0 0 .116-1.716 5.9 5.9 0 0 0-.157-1.486 5 5 0 0 0-.405-1.134 1.1 1.1 0 0 0-.48-.551.52.52 0 0 0-.472.042 1.55 1.55 0 0 0-.483.611 6.4 6.4 0 0 0-.473 1.29 20 20 0 0 0-.41 2.016q-.19 1.202-.442 3.97t-.4 4.713-.257 3.963-.194 4.13-.092 3.965.04 2.865a4.8 4.8 0 0 0 .283 1.575 2.75 2.75 0 0 0 .586.91 1.9 1.9 0 0 0 .7.47 2 2 0 0 0 1.37-.183" class="c"/><path d="M256.284 137.839q-.255-.796.104-1.027a16 16 0 0 1 1.658-.737q1.407-.574 2.302-.987t1.774-.867 1.744-.866 1.558-.696 1.26-.46a7 7 0 0 1 1-.237 1.8 1.8 0 0 1 .647-.01q.211.054.282.4a5.5 5.5 0 0 1 .09.891 9 9 0 0 1-.053 1.232 13 13 0 0 1-.245 1.472q-.176.785-.365 1.702t-.342 1.863-.24 1.816-.109 1.59a3.3 3.3 0 0 0 .112 1.11.74.74 0 0 0 .534.5 2.8 2.8 0 0 0 .963.062 2.55 2.55 0 0 0 1.162-.443 7.7 7.7 0 0 0 1.186-.97 12 12 0 0 0 1.127-1.288 9 9 0 0 0 .95-1.552 12.5 12.5 0 0 0 .686-1.747 10.5 10.5 0 0 0 .398-1.962 10.2 10.2 0 0 0-.018-2.253 15.5 15.5 0 0 0-.525-2.559q-.392-1.36-.805-2.493a8.6 8.6 0 0 0-.76-1.66 1.65 1.65 0 0 0-.622-.642.53.53 0 0 0-.498.022 1.1 1.1 0 0 0-.39.512 29 29 0 0 0-.873 3.58M278.216 131.961a9 9 0 0 1 .442 1.563q.19.94.327 2.036t.214 1.867q.078.771.136 1.602t.104 1.883.083 1.33a.9.9 0 0 0 .105.376q.069.096.188-.633t.198-1.398.136-2.346.132-2.666.216-1.84a10 10 0 0 1 .423-1.657 8 8 0 0 1 .738-1.551 4.5 4.5 0 0 1 1.01-1.19 4.1 4.1 0 0 1 1.178-.665 5.6 5.6 0 0 1 1.306-.296 15.2 15.2 0 0 1 3.097.157M292.362 130.327a1.21 1.21 0 0 0-.658-.724q-.325-.15-.378.974t.024 2.564.114 2.426.058 2.179-.029 2.431-.236 3.056-.195 2.104.293.131a1.9 1.9 0 0 0 .626-.617q.324-.46.708-1.116a13 13 0 0 0 .728-1.475 12 12 0 0 0 .596-1.86 19 19 0 0 0 .4-2.303q.147-1.26.251-4.287t.231-4.246a8.3 8.3 0 0 1 .382-1.915 1.95 1.95 0 0 1 .569-.922.59.59 0 0 1 .603-.103 1.47 1.47 0 0 1 .584.573 9 9 0 0 1 .604 1.103 11.4 11.4 0 0 1 .557 1.436q.25.784.48 1.702t.415 1.931a20 20 0 0 1 .26 1.969q.075.955.083 1.912t-.038 2.039q-.045 1.08-.134 1.822t-.097 1.13.15.428.367-.359q.207-.396.495-1.08t.57-1.543q.28-.86.576-1.844t.653-2.095q.358-1.11.746-2.142t.815-1.965a18 18 0 0 1 .846-1.63 4 4 0 0 1 .726-.966 1.2 1.2 0 0 1 .57-.305.84.84 0 0 1 .542.115 1.5 1.5 0 0 1 .528.562 5 5 0 0 1 .442 1.004 12 12 0 0 1 .35 1.363q.153.764.23 1.534t.107 1.577.034 1.764-.058 1.94q-.088 1.431-.571 4.4M320.639 134.233l-.069.226q-.005.016-.008-.096l-.03-.856a13 13 0 0 0-.1-1.274 7.5 7.5 0 0 0-.262-1.144 6 6 0 0 0-.534-1.223 6.6 6.6 0 0 0-.855-1.167 6.5 6.5 0 0 0-1.117-.979 2.8 2.8 0 0 0-1.144-.499 1.83 1.83 0 0 0-1 .12 2.13 2.13 0 0 0-.876.79 5.6 5.6 0 0 0-.695 1.491 18 18 0 0 0-.509 2.06q-.223 1.16-.425 2.54t-.321 2.782q-.12 1.404-.166 2.796t-.051 2.516a4.6 4.6 0 0 0 .212 1.652 1.16 1.16 0 0 0 .568.678 1.8 1.8 0 0 0 .81.128 1.93 1.93 0 0 0 .978-.377 12 12 0 0 0 1.13-.888q.61-.534 1.3-1.27a16 16 0 0 0 1.33-1.624 15 15 0 0 0 1.153-1.889 13 13 0 0 0 .857-2.085 10.7 10.7 0 0 0 .448-2.118q.107-1.034.132-2.303t.007-1.193l-.086.381a9 9 0 0 0-.137.94q-.067.637-.12 1.393t-.075 2.445q-.022 1.688-.007 2.579a13 13 0 0 0 .15 1.78 11.5 11.5 0 0 0 .378 1.677 3.4 3.4 0 0 0 .595 1.2 1.5 1.5 0 0 0 .812.522 2.5 2.5 0 0 0 1.075-.031 3.4 3.4 0 0 0 1.295-.647 13 13 0 0 0 1.456-1.305 34 34 0 0 0 3.241-4.3M331.629 121.284a7 7 0 0 0 .384-1.453l.033-.346v-.002l-.001.142-.053 2.977q-.05 2.819-.154 6.75-.103 3.933-.168 5.43t-.106 2.96-.045 2.775.04 1.993a1.76 1.76 0 0 0 .246.93q.283.357 1.208-.204" class="c"/><path d="M329.44 128.881a.8.8 0 0 1 .277-.664 2.5 2.5 0 0 1 1.028-.207q.843-.067 1.597-.057t2.693.226 2.916.364 1.607.293a4.6 4.6 0 0 1 1.02.344 2.3 2.3 0 0 1 .625.438 1.26 1.26 0 0 1 .319.53 6 6 0 0 1 .119 1.199q.034.907.012 2.058a23 23 0 0 1-.206 2.547q-.183 1.396-.276 2.182t-.164 1.656-.079 2.274a8 8 0 0 0 .115 1.808q.122.403.352.48a.8.8 0 0 0 .497 0q.383-.111 1.378-1.596M345.217 122.163a1.15 1.15 0 0 0 .085.874 7 7 0 0 0 .935 1.09q.79.817 1.282 1.36t.869 1.035a10 10 0 0 1 .649.943 4 4 0 0 1 .416.959 5.2 5.2 0 0 1 .187 1.02q.04.513.045 1.17a13 13 0 0 1-.083 1.48q-.088.823-.361 2.518t-.449 2.706q-.175 1.01-.277 1.988t-.123 1.877a10 10 0 0 0 .087 1.671 1.764 1.764 0 0 0 1.588 1.685 11 11 0 0 0 1.712.134 8.8 8.8 0 0 0 2.112-.241 10.3 10.3 0 0 0 2.041-.703 7 7 0 0 0 1.649-1.055 3.6 3.6 0 0 0 .99-1.323 6.4 6.4 0 0 0 .416-1.639 19 19 0 0 0 .14-2.036 13 13 0 0 0-.157-2.286 18.6 18.6 0 0 0-.662-2.697 25 25 0 0 0-1.22-3.102 10.6 10.6 0 0 0-1.516-2.464 4.9 4.9 0 0 0-1.435-1.206 3.3 3.3 0 0 0-1.21-.35 1.55 1.55 0 0 0-1.019.303 5.3 5.3 0 0 0-.892.82 7.5 7.5 0 0 0-.77 1.056 5.3 5.3 0 0 0-.527 1.163 8.6 8.6 0 0 0-.286 1.296q-.103.704-.147 1.455t-.05 1.412a6.8 6.8 0 0 0 .453 2.268M361.053 130.06a5.2 5.2 0 0 1 1.398-.932 1.4 1.4 0 0 1 .503-.04.6.6 0 0 1 .429.36 4.2 4.2 0 0 1 .333.89 12 12 0 0 1 .263 1.28q.11.723.16 1.537t.054 2.675a23 23 0 0 1-.263 3.606q-.27 1.746-.379 2.353a6 6 0 0 0-.11.9q0 .293.123.173a2 2 0 0 0 .315-.532 10 10 0 0 0 .395-1.013 12 12 0 0 0 .368-1.39q.165-.79.443-4.146t.48-4.61a15 15 0 0 1 .516-2.23 4 4 0 0 1 .648-1.354 1.16 1.16 0 0 1 .684-.428 1.2 1.2 0 0 1 .76.19 3.1 3.1 0 0 1 .801.712 8 8 0 0 1 .784 1.153q.39.68.808 1.588t.76 1.837q.344.93.657 1.91t.6 2.173a15 15 0 0 1 .378 2.442 34.6 34.6 0 0 1-.393 5.975M395.699 128.095a10 10 0 0 1-.852-.92l-.079-.13q-.015-.025-.01.114t.023.744q.018.606.108 1.38t.277 2.79.437 4.082.386 2.886q.135.82.282 1.45a5.5 5.5 0 0 0 .334 1.033.86.86 0 0 0 .4.481.7.7 0 0 0 .476-.012q.374-.128 1.298-1.686M398.267 125.303a1.2 1.2 0 0 1 .737-.15.8.8 0 0 1 .395.354 5 5 0 0 1 .441.837 11 11 0 0 1 .445 1.275 15 15 0 0 1 .385 1.817q.167 1.071.267 2.335t.126 2.448.028 2.238-.024 1.988-.075 1.585-.07 1.249a2 2 0 0 0 .005.566l.136-.156a2 2 0 0 0 .265-.543q.156-.418.569-1.872t.63-2.353q.217-.897.491-1.958t.657-2.178a11.7 11.7 0 0 1 .833-1.921 4.3 4.3 0 0 1 .943-1.212 1.97 1.97 0 0 1 .977-.474 1.1 1.1 0 0 1 .888.268 3.6 3.6 0 0 1 .758.915q.353.58.996 1.887t.951 1.904q.31.597.654 1.204t.596 1.143a6 6 0 0 1 .388 1.074 7.5 7.5 0 0 1 .176 1.451q.04.914-.235.977M403.619 119.027a2.4 2.4 0 0 0-.804-.302q-.243-.014.2.672M438.935 121.423q-.003-.281-.434-.483a.56.56 0 0 0-.451-.064.9.9 0 0 0-.337.42 4.3 4.3 0 0 0-.316.953q-.14.604-.26 1.432t-.218 1.885-.132 2.279-.052 2.66-.017 4.026.01 3.542a17 17 0 0 0 .112 1.8 7 7 0 0 0 .279 1.382 2.7 2.7 0 0 0 .452.868 2.2 2.2 0 0 0 .641.537 1.9 1.9 0 0 0 .779.234 3.8 3.8 0 0 0 .903-.048 3 3 0 0 0 1.026-.395 5.8 5.8 0 0 0 1.719-2.077" class="c"/><path d="M432.97 129.2q-1.56-.158-1.32.034a1.75 1.75 0 0 0 .663.246 9 9 0 0 0 1.148.168q.656.06 1.38.077t1.497-.03a9 9 0 0 0 1.728-.295 18 18 0 0 0 2.102-.71 16 16 0 0 0 2.246-1.117 12.7 12.7 0 0 0 1.96-1.424 9.2 9.2 0 0 0 1.433-1.588 5.3 5.3 0 0 0 .789-1.594 6.3 6.3 0 0 0 .24-1.522 14 14 0 0 0-.026-1.395 5 5 0 0 0-.137-.942q-.089-.294-.24-.037a2.6 2.6 0 0 0-.245.822q-.095.564-.162 1.413t-.112 1.834q-.044.984-.06 2.068t-.056 2.395q-.04 1.31-.232 4.493t-.276 4.633q-.083 1.452-.108 3.233a10.6 10.6 0 0 0 .096 2.197.7.7 0 0 0 .388.513.46.46 0 0 0 .478-.072 2.4 2.4 0 0 0 .497-.697q.284-.527.668-1.456t.835-2.213.893-2.68.987-2.821a28 28 0 0 1 1.192-2.703 10 10 0 0 1 1.212-1.934 2.9 2.9 0 0 1 1.007-.837 1.3 1.3 0 0 1 .777-.099.84.84 0 0 1 .54.538 6 6 0 0 1 .36 1.136q.154.679.277 1.586t.222 1.813.171 1.837.17 3.851.196 3.828a4.6 4.6 0 0 0 .315 1.372 1.3 1.3 0 0 0 .47.61.72.72 0 0 0 .498.098q.346-.065 1.777-2.545M463.939 135.331a.566.566 0 0 0 .378.75 2 2 0 0 0 .692.143 1.8 1.8 0 0 0 .714-.151 3.3 3.3 0 0 0 .8-.488 4.1 4.1 0 0 0 .75-.779 3.6 3.6 0 0 0 .521-1.014 5.6 5.6 0 0 0 .247-1.364 5.4 5.4 0 0 0-.193-1.755 8 8 0 0 0-.737-1.842 8 8 0 0 0-.995-1.462 2.2 2.2 0 0 0-.959-.707 1.5 1.5 0 0 0-.898.015 2.2 2.2 0 0 0-.915.672 5.6 5.6 0 0 0-.844 1.307 13 13 0 0 0-.692 1.809q-.316 1.026-.554 2.163t-.373 2.235a22 22 0 0 0-.16 2.242 20 20 0 0 0 .057 2.12 5.2 5.2 0 0 0 .48 1.816 6.1 6.1 0 0 0 1.067 1.556 5.9 5.9 0 0 0 1.563 1.19 9 9 0 0 0 2.1.764 20 20 0 0 0 2.495.431 7.35 7.35 0 0 0 3.681-.524M497.986 118.5q-.263-.243-.429-.024a2 2 0 0 0-.24.56 6 6 0 0 0-.195.956q-.074.55-.107 1.74a7.2 7.2 0 0 0 .073 1.622 1.41 1.41 0 0 0 .977.945M503.024 117.048a11 11 0 0 0-.574 1.114 6 6 0 0 0-.311.904 8 8 0 0 0-.21 1.184 31 31 0 0 0 .044 3.98M510.932 125.75q.076-1.38.274-3.125.13-1.147.192-2.212t.064-1.53a2.3 2.3 0 0 0-.097-.742.66.66 0 0 0-.278-.378.9.9 0 0 0-.413-.11.78.78 0 0 0-.527.256 4.4 4.4 0 0 0-.637.779 9 9 0 0 0-.71 1.318 11.5 11.5 0 0 0-.628 1.821q-.265 1.017-.475 2.19t-.4 2.542-.341 2.831-.264 3.19q-.11 1.728-.194 3.664t-.107 3.652q-.024 1.714-.026 3.1t.097 2.437a9 9 0 0 0 .277 1.656 6 6 0 0 0 .402 1.042 5 5 0 0 0 .464.748 1.15 1.15 0 0 0 .413.379.26.26 0 0 0 .297-.048 8.4 8.4 0 0 0 .247-2.545" class="c"/><path d="M504.749 142.016a3.5 3.5 0 0 0 1.274-.3q.68-.285 1.657-.8t2.118-1.272a22 22 0 0 0 2.118-1.585 21 21 0 0 0 1.729-1.63 18 18 0 0 0 1.323-1.575 8.2 8.2 0 0 0 .923-1.57 6.8 6.8 0 0 0 .493-1.7 14 14 0 0 0 .168-1.725q.026-.82-.006-1.243t-.163-.526-.272.203a8 8 0 0 0-.312.833q-.171.529-.333 1.275t-.278 1.576-.253 2.782-.182 3.062q-.044 1.11-.049 2.304a18 18 0 0 0 .129 2.261 3.7 3.7 0 0 0 .582 1.698 2.44 2.44 0 0 0 1.223.9 4 4 0 0 0 1.616.21 4.1 4.1 0 0 0 1.618-.465 6 6 0 0 0 1.437-1.067 7.2 7.2 0 0 0 1.153-1.504 14 14 0 0 0 .913-1.94q.424-1.095.806-2.407a17.4 17.4 0 0 0 .554-2.647q.172-1.334.24-2.71t.157-2.413a10 10 0 0 1 .172-1.347q.082-.31.1-.198l.087.56a5.3 5.3 0 0 1 0 1.228q-.071.78-.384 2.636t-.428 2.744-.21 1.826-.152 2.019-.06 1.989a5.3 5.3 0 0 0 .21 1.61 2.77 2.77 0 0 0 1.964 1.58M535.946 121.756a4 4 0 0 0-.874-.136.65.65 0 0 0-.488.237 2.4 2.4 0 0 0-.434.728 6 6 0 0 0-.334 1.107 11 11 0 0 0-.19 1.377q-.059.755-.082 2.535t.014 2.891.138 2.353.22 2.412.278 2.467.284 2.643.257 2.441.305 1.922a8.4 8.4 0 0 0 .408 1.41q.338.834 1.598.793M543.702 122.88q-.082 1.1-.104 2.87-.015 1.145-.016 2.709t-.063 3.286-.174 3.356-.224 2.878q-.11 1.246-.183 2.356t-.102 2.06q-.046 1.456-.03 2.494M551.238 117.826q.532 2.08 1.062 4.896M556.01 116.804a23 23 0 0 0-.115 2.62 8.2 8.2 0 0 0 .517 2.738M586.394 124.066a3.8 3.8 0 0 0 .147-1.275q-.043-.249-.155-.255t-.223.215a3 3 0 0 0-.206.665q-.095.446-.177 1.15t-.387 4.125-.524 6.219-.242 4.785a26 26 0 0 0 .059 2.71 3.8 3.8 0 0 0 .276 1.134 2.1 2.1 0 0 0 .49.683 3.14 3.14 0 0 0 1.676.764 15 15 0 0 0 1.768.066 10 10 0 0 0 1.8-.117 15 15 0 0 0 1.804-.567q1.254-.454 1.953-.735a33 33 0 0 0 3.319-1.709" class="c"/><path d="M585.087 131.692a3.36 3.36 0 0 1 .118-1.69 1.1 1.1 0 0 1 .538-.264 7.5 7.5 0 0 1 1.04-.173q.647-.07 2.282-.116t2.531-.124q.898-.077 1.885-.205 1.428-.185 5.167-1.007M588.756 124.27q-.441-.3-.26-.682.125-.268.822-.497a12 12 0 0 1 1.454-.378 15 15 0 0 1 1.778-.225q1.02-.075 2.264-.083a25 25 0 0 1 4.811.587M600.632 141.421q-.097-1.131.183-1.336a1.4 1.4 0 0 1 .59-.206 8 8 0 0 1 .995-.084 7 7 0 0 1 1.219.063 3.6 3.6 0 0 1 1.126.336 3.2 3.2 0 0 1 .877.63 1.87 1.87 0 0 1 .489.841 4.4 4.4 0 0 1 .133 1.02 3.5 3.5 0 0 1-.205 1.197 9.6 9.6 0 0 1-.578 1.336q-.361.697-.872 1.497t-.996 1.645-.814 1.513a9 9 0 0 0-.51 1.26 6 6 0 0 0-.234 1.051 1.5 1.5 0 0 0 .038.687q.09.226.488.286a8 8 0 0 0 1.035.066 8.3 8.3 0 0 0 1.475-.14 12.5 12.5 0 0 0 1.737-.437 26 26 0 0 0 3.745-1.72M624.597 127.057q-.29-.474-.294-.045-.003.316.35 2.514t.559 3.96.286 3.579.102 3.591.022 4.368.036 3.478a10.6 10.6 0 0 0 .16 1.546 2.23 2.23 0 0 0 .71 1.401" class="c"/><path d="M622.641 130.83a8.6 8.6 0 0 1 .304-1.61 1.76 1.76 0 0 1 .416-.72 1.7 1.7 0 0 1 .7-.424 7.4 7.4 0 0 1 1.613-.2 7.7 7.7 0 0 1 2.128.152 18 18 0 0 1 2.031.61 15 15 0 0 1 2.167.984 8.5 8.5 0 0 1 1.806 1.292 7.3 7.3 0 0 1 1.178 1.421 6.4 6.4 0 0 1 .664 1.417 4.6 4.6 0 0 1 .234 1.318 2.8 2.8 0 0 1-.3 1.263 10 10 0 0 1-.845 1.404q-.531.758-1.25 1.6t-1.592 1.693-1.824 1.627-1.76 1.331a16.4 16.4 0 0 1-3.038 1.566M646.189 134.035a7.5 7.5 0 0 0 .617-1.462 5.6 5.6 0 0 0 .127-1.159 3 3 0 0 0-.159-1.21 3.1 3.1 0 0 0-.457-.779 3.3 3.3 0 0 0-.642-.599 5 5 0 0 0-.79-.46 2.6 2.6 0 0 0-.817-.241 4 4 0 0 0-.822.001 2.4 2.4 0 0 0-.923.327 4.4 4.4 0 0 0-.979.786 13 13 0 0 0-1.03 1.235q-.545.732-1.206 1.705t-1.263 2.055-1.158 2.321a18.5 18.5 0 0 0-.94 2.615 13.2 13.2 0 0 0-.473 2.438 4.8 4.8 0 0 0 .097 1.693 1.4 1.4 0 0 0 .729.9 3.2 3.2 0 0 0 1.36.284 6.4 6.4 0 0 0 1.774-.24 13.4 13.4 0 0 0 1.878-.657 8.7 8.7 0 0 0 1.631-.916 7.2 7.2 0 0 0 1.28-1.186 11 11 0 0 0 1.036-1.456 10 10 0 0 0 .773-1.595 13 13 0 0 0 .501-1.691q.198-.883.34-1.799t.218-1.578a8 8 0 0 1 .19-1.109l.126-.492q.011-.045.01.01l-.01.599a16 16 0 0 1-.188 1.768q-.178 1.225-.26 1.868t-.14 1.318-.075 1.326a13 13 0 0 0 .03 1.287 3.1 3.1 0 0 0 .344 1.208 3 3 0 0 0 .787.972 3.9 3.9 0 0 0 1.144.632 6.7 6.7 0 0 0 1.364.333 8 8 0 0 0 3.337-.7" class="c"/><path d="M661.396 136.36a9 9 0 0 0 .415-1.373q.093-.44.164-.982t.1-1.241q.03-.699.032-1.45a7.6 7.6 0 0 0-.153-1.531 8.6 8.6 0 0 0-.427-1.468 4.5 4.5 0 0 0-.567-1.071 1.5 1.5 0 0 0-.603-.509 1.9 1.9 0 0 0-.652-.136 1.23 1.23 0 0 0-.707.218 3.7 3.7 0 0 0-.751.666 9.5 9.5 0 0 0-.816 1.09 13 13 0 0 0-.834 1.509q-.406.855-1.33 3.176t-1.337 3.465a20 20 0 0 0-.671 2.281 12.3 12.3 0 0 0-.308 2.15 3.75 3.75 0 0 0 .187 1.578 1.43 1.43 0 0 0 .856.803 4.8 4.8 0 0 0 1.422.286 11 11 0 0 0 1.537-.006 4 4 0 0 0 1.353-.33 5 5 0 0 0 1.144-.703 3.8 3.8 0 0 0 .844-.944 5 5 0 0 0 .52-1.177 13 13 0 0 0 .342-1.492 13 13 0 0 0 .179-1.693q.038-.862.041-2.847t.004-2.089v-.05 2.316q0 2.145.061 2.978t.178 1.768.285 2.035.644 3.441.66 3.64a21 21 0 0 1 .216 2.393 9.6 9.6 0 0 1-.14 2.004 6.47 6.47 0 0 1-1.343 2.929 8.6 8.6 0 0 1-.868.906 3.4 3.4 0 0 1-.873.577 2.3 2.3 0 0 1-.94.193 2.7 2.7 0 0 1-1.137-.31 16 16 0 0 1-1.424-.788q-.782-.48-1.479-.989a13 13 0 0 1-1.24-1.02 7.3 7.3 0 0 1-.923-1.04 5.24 5.24 0 0 1-.753-2.378M669.118 139.074a6.7 6.7 0 0 1 .549-1.625q.21-.388.631-1.006a12 12 0 0 0 .675-1.092 8 8 0 0 0 .483-1.126 7.3 7.3 0 0 0 .339-1.44 16 16 0 0 0 .133-1.678q.026-.894.002-1.7a4.7 4.7 0 0 0-.183-1.287 1.6 1.6 0 0 0-.359-.664.73.73 0 0 0-.572-.154.88.88 0 0 0-.638.363 5 5 0 0 0-.536.888 10 10 0 0 0-.527 1.352 22 22 0 0 0-.558 2.31q-.302 1.513-.547 3.193t-.314 2.779q-.068 1.097-.075 2.332a11 11 0 0 0 .198 2.241 8 8 0 0 0 .399 1.447 5.4 5.4 0 0 0 .418.79 5.5 5.5 0 0 0 .78.88 4.5 4.5 0 0 0 1.204.841 6.5 6.5 0 0 0 1.408.474 10.5 10.5 0 0 0 1.913.196 5.5 5.5 0 0 0 1.429-.066 3.2 3.2 0 0 0 .724-.422 9.4 9.4 0 0 0 1.83-2.296M713.511 119.003a2.8 2.8 0 0 0-.908-.368 2 2 0 0 0-.613.074 1.46 1.46 0 0 0-.802.678 8 8 0 0 0-.627 1.078 16 16 0 0 0-.64 1.796 27 27 0 0 0-.682 2.671q-.278 1.372-.474 2.91t-.326 3.32-.143 3.371.12 3.11a21 21 0 0 0 .473 2.974 10.4 10.4 0 0 0 .824 2.376 4.5 4.5 0 0 0 1.163 1.466 4.2 4.2 0 0 0 1.488.768 5.6 5.6 0 0 0 3.112-.293M719.226 128.617q-.34.108-.567.793a5.7 5.7 0 0 0-.214 1.288q-.065.835-.071 1.976t.02 2.423.112 2.59.157 2.668q.07 1.36.16 2.566a20 20 0 0 0 .246 2.055 5.6 5.6 0 0 0 .437 1.434 1.73 1.73 0 0 0 .64.788q.505.286 1.615-1.244M722.491 124.776v-.689l.002.008.027.333a3.6 3.6 0 0 0 .64 1.394M725.417 130.47a17 17 0 0 0 .105 4.267q.195 2.044.237 2.916t.06 2.784.017 3.003 0 1.17.061-.129.911-3.067 1.495-5.391 1.055-3.79a19 19 0 0 1 .91-2.31 4.8 4.8 0 0 1 1.011-1.508 1.86 1.86 0 0 1 1-.514 1.22 1.22 0 0 1 .925.289 2.6 2.6 0 0 1 .738 1.048 10.6 10.6 0 0 1 .524 1.612q.225.909.415 1.876t.333 1.855q.14.887.24 1.852.14 1.386.443 6.898M759.357 130.43q.36-.789.48-.606a5.2 5.2 0 0 1 .102 1.348q.017 1.22.017 4.73t.096 4.84a12 12 0 0 0 .35 2.252 3.8 3.8 0 0 0 .692 1.442 2.1 2.1 0 0 0 1.09.692 3.8 3.8 0 0 0 1.491.057 5.6 5.6 0 0 0 1.738-.564 10.5 10.5 0 0 0 1.703-1.067 6.1 6.1 0 0 0 1.324-1.373 7.5 7.5 0 0 0 .85-1.644 11 11 0 0 0 .509-1.853 11.5 11.5 0 0 0 .196-1.864 6 6 0 0 0-.271-1.853 11.5 11.5 0 0 0-.852-2.024 14 14 0 0 0-1.239-1.952 8.2 8.2 0 0 0-1.328-1.41 4 4 0 0 0-1.263-.725 2.25 2.25 0 0 0-1.131-.098 1.96 1.96 0 0 0-.973.525 6.45 6.45 0 0 0-1.547 2.332 15 15 0 0 0-.466 1.431 13 13 0 0 0-.303 1.443 6.9 6.9 0 0 0 .085 2.323M773.332 129.46q.273-.653.42-.314a3.3 3.3 0 0 1 .184.783q.078.538.227 2.072t.206 2.54.098 2.083.116 2.25.23 2.304a10 10 0 0 0 .401 1.86 3.1 3.1 0 0 0 .613 1.122 1.65 1.65 0 0 0 .826.502 2.2 2.2 0 0 0 .92.025 2.04 2.04 0 0 0 .928-.485 10 10 0 0 0 1.013-1.02 12 12 0 0 0 1.026-1.364 13 13 0 0 0 .894-1.646 15 15 0 0 0 .73-1.977 12 12 0 0 0 .437-2.18q.116-1.104.14-2.371t.025-3.302.03-2.18l.037-.203q.01-.058.032.129c.022.187.036.343.07.656s.05.746.052 1.294-.023 1.147-.07 1.794-.084 1.278-.107 1.894-.035 1.612-.038 2.985.03 2.416.095 3.13a15 15 0 0 0 .328 2.044 7.7 7.7 0 0 0 .602 1.713 2.7 2.7 0 0 0 .847 1.06 2.16 2.16 0 0 0 .982.372 2.04 2.04 0 0 0 .985-.135 2.4 2.4 0 0 0 .912-.695 24 24 0 0 0 2.214-4.046M789.814 129.988q.326 1.933.64 4.054t.454 3.32.25 2.353.23 2.097q.122.943.23 1.498a5 5 0 0 0 .25.904q.142.348.154.254t.057-.47.071-1.039.03-2.73-.01-4.41a26 26 0 0 1 .143-3.425 6.7 6.7 0 0 1 .524-1.873 4.9 4.9 0 0 1 .866-1.319 4.5 4.5 0 0 1 1.072-.847 3.3 3.3 0 0 1 1.139-.4q.565-.081 1.29-.115 1.039-.048 5.812.165M823.888 129.177a2.5 2.5 0 0 0-.228-.396l-.053-.063q-.008-.008-.002.01l.039.136q.034.117.175.455a9 9 0 0 1 .317.932q.173.592.326 1.336t.295 1.725.28 2.224.25 2.4.206 2.225.19 1.87a10 10 0 0 0 .202 1.22 2.2 2.2 0 0 0 .237.619.5.5 0 0 0 .296.238.35.35 0 0 0 .33-.154 2.7 2.7 0 0 0 .37-.67q.205-.481.448-1.146t.518-1.46.54-1.725.457-1.974a15 15 0 0 0 .233-2.16q.043-1.114.047-2.137a14 14 0 0 1 .102-1.747 1.94 1.94 0 0 1 .266-.91q.17-.187.322-.051a1.2 1.2 0 0 1 .26.604 19 19 0 0 1 .236 2.03q.13 1.56.24 2.632t.264 2.177.372 2.22a12.4 12.4 0 0 0 .52 1.92 2.95 2.95 0 0 0 .708 1.173 1.93 1.93 0 0 0 .918.47 3.3 3.3 0 0 0 1.03.047 1.9 1.9 0 0 0 .934-.36 4.3 4.3 0 0 0 .794-.764 5.7 5.7 0 0 0 .706-1.15 7.6 7.6 0 0 0 .537-1.602 12 12 0 0 0 .268-2.002 12.7 12.7 0 0 0-.109-2.361 16 16 0 0 0-.516-2.45q-.347-1.17-.53-2.018a9 9 0 0 1-.201-1.212q-.019-.364.139-.405a4 4 0 0 1 1.509.704M842.164 131.686a1.3 1.3 0 0 1 .158.557q.026.334.046 1.18t.05 1.524.083 1.488.14 1.752.22 1.794a9 9 0 0 0 .356 1.497 3.2 3.2 0 0 0 .564 1.045 1.53 1.53 0 0 0 .843.514 5 5 0 0 0 1.16.11 5 5 0 0 0 1.294-.183 4.4 4.4 0 0 0 1.09-.452 6 6 0 0 0 .9-.672 5 5 0 0 0 .824-.974 4.2 4.2 0 0 0 .56-1.3 7.6 7.6 0 0 0 .216-1.544 9.3 9.3 0 0 0-.127-1.837 6.7 6.7 0 0 0-.621-1.94 15 15 0 0 0-1.116-1.864q-.655-.942-1.335-1.915a10.3 10.3 0 0 0-1.169-1.446 2.3 2.3 0 0 0-.844-.578.84.84 0 0 0-.618.021.9.9 0 0 0-.416.425 10.3 10.3 0 0 0-.558 1.705M856.084 128.437a.45.45 0 0 0-.347.208 1.1 1.1 0 0 0-.136.483q-.039.35-.042 1.018t.04 1.63q.044.961.1 1.92t.112 1.988q.057 1.03.137 2.04t.162 1.84q.082.832.187 1.4a3.3 3.3 0 0 0 .257.864.63.63 0 0 0 .326.348.6.6 0 0 0 .386-.022 1.2 1.2 0 0 0 .466-.367 3.4 3.4 0 0 0 .486-.778 8 8 0 0 0 .435-1.2 13 13 0 0 0 .34-1.586 15 15 0 0 0 .164-1.824q.031-.953.03-2.035t-.039-2.302.002-2.089a4.5 4.5 0 0 1 .216-1.343 1.45 1.45 0 0 1 .391-.637.51.51 0 0 1 .404-.127 1.3 1.3 0 0 1 .44.193q.247.158.567.356t.664.378 1.141.504 1.134.45a6 6 0 0 0 .706.21 4.6 4.6 0 0 0 .833.108 4.5 4.5 0 0 0 1.838-.47M870.393 121.169q-.352-.05-.474.147a1.2 1.2 0 0 0-.133.42 5 5 0 0 0-.052.778 8 8 0 0 0 .091 1.156q.097.66.237 1.438t.296 1.705q.155.928.343 1.985t.377 2.269q.188 1.212.315 2.347t.173 2.258.05 2.08-.02 1.759-.042 1.395-.012.984a2.2 2.2 0 0 0 .067.595 2 2 0 0 0 .103.281q.042.077.05.016c.008-.06.022-.141.048-.303q.054-.348.217-1.905" class="c"/><path d="M875.66 128.899q.169-.771.164-.703l-.017.24a1.5 1.5 0 0 1-.074.37 6 6 0 0 1-.244.561q-.184.383-.815 1.461t-1.03 1.771q-.4.693-.605 1.092t-.504 1.147a11 11 0 0 0-.46 1.381 8 8 0 0 0-.217 1.148 7 7 0 0 0-.044.965 2.7 2.7 0 0 0 .155.854 5 5 0 0 0 .373.809 4 4 0 0 0 .578.776 2.8 2.8 0 0 0 .84.603 5.2 5.2 0 0 0 1.111.369 11 11 0 0 0 1.254.202q.632.065 1.191.077t1.11.03q.55.019 1.037.054.715.052 1.833.027M881.5 136.988a7 7 0 0 1 .838.274q.286.113.616.272a4 4 0 0 0 .665.255 2.7 2.7 0 0 0 .67.106 2 2 0 0 0 .733-.138 4.6 4.6 0 0 0 .853-.436 7.4 7.4 0 0 0 .909-.687 5.6 5.6 0 0 0 .838-.924 5.2 5.2 0 0 0 .607-1.068 4.8 4.8 0 0 0 .31-1.094 6 6 0 0 0 .064-1.14 3.8 3.8 0 0 0-.255-1.209 5 5 0 0 0-.666-1.204 7 7 0 0 0-.914-1.028 5 5 0 0 0-.872-.662 1.7 1.7 0 0 0-.73-.242.77.77 0 0 0-.602.227 3.6 3.6 0 0 0-.528.66q-.265.412-.583 1.007a12 12 0 0 0-.597 1.326q-.28.732-.52 1.576a17 17 0 0 0-.41 1.875 15 15 0 0 0-.2 2.051 10.5 10.5 0 0 0 .137 2.023 7.5 7.5 0 0 0 .56 1.868 4.4 4.4 0 0 0 .91 1.361 5 5 0 0 0 1.121.816 5.9 5.9 0 0 0 1.495.51 11 11 0 0 0 1.778.234 18 18 0 0 0 1.827-.012 17.1 17.1 0 0 0 4.615-1.414M904.107 132.5a1.76 1.76 0 0 0-.331-.838 4.6 4.6 0 0 0-.774-.75q-.581-.478-1.226-.96t-.944-.693a3.4 3.4 0 0 0-.63-.353 2.2 2.2 0 0 0-.705-.167 3.5 3.5 0 0 0-.805.046 3.3 3.3 0 0 0-.85.267 2.8 2.8 0 0 0-.738.494 3.6 3.6 0 0 0-.597.74 11 11 0 0 0-.572 1.066q-.296.625-.598 1.338t-.588 1.605a15 15 0 0 0-.474 1.922 13.4 13.4 0 0 0-.22 1.954 5.2 5.2 0 0 0 .195 1.685 3.6 3.6 0 0 0 .662 1.285 3.3 3.3 0 0 0 .958.812 4.8 4.8 0 0 0 1.048.43 6.3 6.3 0 0 0 1.157.191 7.6 7.6 0 0 0 1.272-.009 3.6 3.6 0 0 0 1.162-.297 3.7 3.7 0 0 0 .987-.675 6.5 6.5 0 0 0 .9-1.077q.44-.642.893-1.47a17 17 0 0 0 .847-1.806 11.4 11.4 0 0 0 .613-2.147 18 18 0 0 0 .282-2.588q.061-1.417.057-2.967t-.063-2.925-.068-2.425-.013-1.782q0-.732.033-1.107a2.7 2.7 0 0 1 .118-.618 2 2 0 0 1 .155-.358l.094-.15q.022-.036.01.036l-.046.298q-.036.227-.127.646c-.09.419-.128.636-.201 1.07s-.194 1.226-.357 2.375-.289 2.113-.377 2.89-.17 1.601-.243 2.473-.127 1.785-.16 2.74-.053 1.893-.056 2.816a22 22 0 0 0 .085 2.249q.092.864.214 1.491t.236 1.152.217.862.199.582a2 2 0 0 0 .197.395.266.266 0 0 0 .385.09M932.687 137.207q-.222-.031-.244.155a.53.53 0 0 0 .126.335 1.2 1.2 0 0 0 .305.315 3.7 3.7 0 0 0 1.106.23 3.26 3.26 0 0 0 1.567-.12 6.5 6.5 0 0 0 1.271-.673 11 11 0 0 0 1.317-1.048 8.2 8.2 0 0 0 1.161-1.314 9.6 9.6 0 0 0 .804-1.347 7 7 0 0 0 .473-1.252 5.5 5.5 0 0 0 .185-1.207 4.1 4.1 0 0 0-.123-1.182 6.6 6.6 0 0 0-.423-1.173q-.275-.594-.64-1.212a4.6 4.6 0 0 0-.793-1.022 1.75 1.75 0 0 0-.887-.485 1.03 1.03 0 0 0-.873.276 3.9 3.9 0 0 0-.793 1.02 17 17 0 0 0-.761 1.528q-.384.866-.775 1.95t-.801 2.31a27 27 0 0 0-.723 2.625 17 17 0 0 0-.392 2.726 12.3 12.3 0 0 0 .074 2.417 5.1 5.1 0 0 0 .572 1.826 3.4 3.4 0 0 0 1.008 1.142 3.8 3.8 0 0 0 1.193.565 5.5 5.5 0 0 0 1.343.17 5.4 5.4 0 0 0 1.551-.224 5.3 5.3 0 0 0 1.52-.711 27.6 27.6 0 0 0 3.092-2.676M945.396 129.012a4.4 4.4 0 0 0 0-.64.5.5 0 0 0-.022-.14l-.028.052q-.023.042.132.179a6 6 0 0 0 .465.356q.311.219.706.51t.833.678q.44.387 1.557 1.54t1.725 1.86a6.3 6.3 0 0 1 .992 1.58 4.9 4.9 0 0 1 .43 1.704 4.5 4.5 0 0 1-.235 1.676 9 9 0 0 1-.831 1.77 11 11 0 0 1-1.205 1.664q-.653.742-1.23 1.45t-1.075 1.264a3.3 3.3 0 0 1-.88.753 1.51 1.51 0 0 1-1.422-.184" class="c"/><path d="M954.185 129.437a1.8 1.8 0 0 0 .397-.336l.076-.102q.01-.011.002.013c-.008.024-.025.089-.061.217s-.105.32-.204.577-.296.791-.587 1.602-.531 1.486-.718 2.025-.371 1.138-.554 1.796-.34 1.302-.47 1.93a16 16 0 0 0-.28 1.835 15 15 0 0 0-.068 1.626 3.2 3.2 0 0 0 .215 1.19 2.15 2.15 0 0 0 .522.746 2.8 2.8 0 0 0 .791.49 9.3 9.3 0 0 0 2.73.378M966.093 134.126q.912-1.133 1.106-1.456a2.4 2.4 0 0 0 .229-.79 1.66 1.66 0 0 0-.064-.929 2.4 2.4 0 0 0-.484-.708 3.8 3.8 0 0 0-.776-.618 5.7 5.7 0 0 0-.937-.462 4.3 4.3 0 0 0-.993-.252 2.65 2.65 0 0 0-1.033.078 4 4 0 0 0-1.082.493 4.7 4.7 0 0 0-1.031.9 5 5 0 0 0-.791 1.27 14 14 0 0 0-.573 1.586q-.26.865-.513 1.966t-.427 2.294a24 24 0 0 0-.226 2.414 10.3 10.3 0 0 0 .116 2.18 4.5 4.5 0 0 0 .558 1.598 4.1 4.1 0 0 0 .85 1.02 2.7 2.7 0 0 0 1.013.534 3.8 3.8 0 0 0 1.263.106 4.3 4.3 0 0 0 1.417-.348 6.2 6.2 0 0 0 1.355-.798q.645-.498 1.262-1.078t1.15-1.168a8 8 0 0 0 .923-1.224 5.8 5.8 0 0 0 .6-1.325 6.8 6.8 0 0 0 .27-1.427 11 11 0 0 0 .01-1.597 11.5 11.5 0 0 0-.232-1.71q-.181-.85-.342-1.443t-.251-.84-.15-.22a2.9 2.9 0 0 0-.275.787q-.214.761-.34 1.384a14 14 0 0 0-.2 1.426q-.075.803-.082 1.597t.06 1.7a14 14 0 0 0 .267 1.852 8.5 8.5 0 0 0 .51 1.65 4.2 4.2 0 0 0 .733 1.163 2.1 2.1 0 0 0 1.012.618 3 3 0 0 0 1.188.085 5.67 5.67 0 0 0 2.51-1.628M977.378 129.758q.012 1.307.012 3.08t-.045 2.903-.193 3.6-.19 3.376q-.044.905-.048 1.537t.024.952a.72.72 0 0 0 .111.403.21.21 0 0 0 .17.076q.088-.009.227-.267c.14-.258.209-.425.347-.762s.294-.757.468-1.262.346-1.062.515-1.672a17 17 0 0 0 .415-2.004q.16-1.089.245-2.304t.105-2.62q.022-1.403.108-2.592a8.2 8.2 0 0 1 .317-1.896 2.5 2.5 0 0 1 .493-.971.92.92 0 0 1 .533-.296 1.6 1.6 0 0 1 .588.05 2.5 2.5 0 0 1 .673.3 3.5 3.5 0 0 1 .728.624 5.7 5.7 0 0 1 .74 1.054 12 12 0 0 1 .687 1.45 13.5 13.5 0 0 1 .553 1.714 20 20 0 0 1 .39 2.002 22 22 0 0 1 .209 2.287q.05 1.197.01 2.258t-.14 1.886-.158 1.369-.062.746q-.006.202.013.161t.093-.204q.076-.164.386-1.456t.5-2.262.344-2.106.25-2.44q.094-1.304.218-2.587a11 11 0 0 1 .393-2.152 3.7 3.7 0 0 1 .659-1.321 2.5 2.5 0 0 1 .777-.64 2 2 0 0 1 .76-.212 3.2 3.2 0 0 1 .85.075 3.6 3.6 0 0 1 .962.361 3.5 3.5 0 0 1 .939.767 6.3 6.3 0 0 1 .838 1.228 13 13 0 0 1 .675 1.486 15 15 0 0 1 .523 1.717 13 13 0 0 1 .326 2.093 16 16 0 0 1 .02 2.273 16 16 0 0 1-.278 2.172q-.205 1.037-.391 1.96t-.315 1.79q-.129.867-.257.88M997.361 128.75a1.2 1.2 0 0 1 .248-.4q.053-.03.121.162a7 7 0 0 1 .183.701q.114.51.261 1.365t.311 2q.164 1.144.492 3.875t.43 4.072.119 2.501.017 2.126-.021 1.736-.08 1.73q-.055.963-.07 1.18l-.018.25M999.058 132.003q.162-1.127.297-1.671a1.3 1.3 0 0 1 .267-.566 1.2 1.2 0 0 1 .482-.303 2.7 2.7 0 0 1 .72-.139 3.4 3.4 0 0 1 .89.066 7 7 0 0 1 1.188.377 14 14 0 0 1 1.524.734 18 18 0 0 1 1.552.964q.735.512 1.595 1.054a17 17 0 0 1 1.64 1.177 7 7 0 0 1 1.29 1.349 6.3 6.3 0 0 1 .795 1.48 4.5 4.5 0 0 1 .289 1.528 3.2 3.2 0 0 1-.34 1.465 8 8 0 0 1-.82 1.326 15 15 0 0 1-.97 1.159 8 8 0 0 1-1.047.953 12 12 0 0 1-1.237.814 14 14 0 0 1-1.352.686 5.7 5.7 0 0 1-1.178.388 5.4 5.4 0 0 1-1.028.096 2.8 2.8 0 0 1-1.007-.189 1.87 1.87 0 0 1-.783-.538 4.85 4.85 0 0 1-.71-2.044M1017.686 122.566a3 3 0 0 0-.615-.17q-.114-.01-.189.155a2 2 0 0 0-.115.529q-.041.364-.085.93t-.09 1.348-.112 1.777-.148 2.053-.15 2.178-.112 2.306q-.042 1.185-.046 2.243t.025 1.969.127 1.747a10 10 0 0 0 .251 1.4 6 6 0 0 0 .355.996 7 7 0 0 0 .452.813 4 4 0 0 0 .523.657 2 2 0 0 0 .655.436 3.6 3.6 0 0 0 1.95-.098M1022.882 138.213a3.2 3.2 0 0 1 .188-.625 1.6 1.6 0 0 1 .255-.42 3 3 0 0 1 .493-.447q.325-.243.79-.559t.902-.677.87-.769.89-.864a8 8 0 0 0 .823-.952 4.4 4.4 0 0 0 .595-1.15 5.3 5.3 0 0 0 .281-1.403 7 7 0 0 0-.04-1.407 6.6 6.6 0 0 0-.29-1.23 5.3 5.3 0 0 0-.42-.955 1.16 1.16 0 0 0-.469-.495 1.2 1.2 0 0 0-.542-.1 1.5 1.5 0 0 0-.653.206 2.9 2.9 0 0 0-.708.58q-.355.384-.76.924t-.904 1.232a16 16 0 0 0-.995 1.572 20 20 0 0 0-.93 1.89 17.5 17.5 0 0 0-.76 2.151 11.2 11.2 0 0 0-.406 2.109 7.5 7.5 0 0 0 .028 1.71 4.1 4.1 0 0 0 .44 1.357 3.5 3.5 0 0 0 .864 1.053 5.6 5.6 0 0 0 1.247.76q.713.323 1.411.568a13 13 0 0 0 1.314.388 9 9 0 0 0 1.269.204 11 11 0 0 0 1.196.049 2.08 2.08 0 0 0 1.467-.707M1032.853 117.354a2.2 2.2 0 0 1 1.055.036 2.8 2.8 0 0 1 .784.487 11 11 0 0 1 1.182 1.155q.69.764 1.443 1.774t1.625 2.27q.87 1.258 1.754 2.445a20 20 0 0 1 1.582 2.48q.697 1.293 1.261 2.568a19 19 0 0 1 .877 2.361 13 13 0 0 1 .43 2.096 11.5 11.5 0 0 1 .084 1.788 3.4 3.4 0 0 1-.293 1.32 6 6 0 0 1-.638 1.037q-.379.499-1.029 1.254t-.831 1.01a5 5 0 0 0-.297.462 2.1 2.1 0 0 0-.236.622M1051.646 143.342a2 2 0 0 0 .092-.515.64.64 0 0 0-.076-.294.5.5 0 0 0-.184-.217q-.146-.085-.182.07" class="c"/><path d="m81.918 416.719 187.044-187.512M106.926 440.371 293.619 253.21M268.962 229.207l24.657 24.003M81.918 416.719l25.008 23.652M129.926 417.111 316.97 229.599M154.934 440.763l186.693-187.161M316.97 229.599l24.657 24.003M129.926 417.111l25.008 23.652M176.732 418.362 363.776 230.85M201.739 442.014l186.694-187.16M363.776 230.85l24.657 24.004M176.732 418.362l25.007 23.652M223.178 420.285l187.044-187.512M248.185 443.937l186.693-187.161M410.222 232.773l24.656 24.003M223.178 420.285l25.007 23.652M244.089 257.276l186.467 186.002M268.81 233.634l186.514 186.048" class="d"/><path d="M454.845 420.668c.155.146-4.824 5.674-11.122 12.346s-11.529 11.961-11.684 11.814 4.823-5.674 11.121-12.346 11.53-11.961 11.685-11.814" class="e"/><path d="M454.845 420.668c.155.146-4.824 5.674-11.122 12.346s-11.529 11.961-11.684 11.814 4.823-5.674 11.121-12.346 11.53-11.961 11.685-11.815Z" class="f"/><path d="m243.433 255.88 24.721-23.642M293.624 257.872l186.467 186.001M318.345 234.23l186.513 186.047" class="d"/><path d="M504.38 421.263c.156.147-4.824 5.675-11.121 12.346s-11.53 11.962-11.685 11.815 4.824-5.675 11.121-12.346 11.529-11.962 11.685-11.815" class="e"/><path d="M504.38 421.263c.156.147-4.824 5.675-11.121 12.347s-11.53 11.96-11.685 11.814 4.824-5.674 11.121-12.346 11.529-11.962 11.685-11.815Z" class="f"/><path d="m292.968 256.475 24.721-23.642M341.252 257.272l186.467 186.002M365.973 233.631l186.513 186.048" class="d"/><path d="M552.007 420.664c.156.147-4.823 5.675-11.121 12.346s-11.53 11.962-11.685 11.815 4.824-5.675 11.121-12.346 11.53-11.962 11.685-11.815" class="e"/><path d="M552.007 420.664c.156.147-4.823 5.675-11.121 12.347s-11.53 11.96-11.685 11.814 4.824-5.675 11.122-12.346 11.529-11.961 11.684-11.815Z" class="f"/><path d="m340.595 255.876 24.722-23.642M387.926 257.17l186.467 186.002M412.647 233.528 599.16 419.576" class="d"/><path d="M598.682 420.562c.155.146-4.824 5.674-11.122 12.346s-11.529 11.96-11.685 11.814 4.824-5.674 11.122-12.346 11.529-11.961 11.685-11.814" class="e"/><path d="M598.682 420.562c.155.146-4.824 5.674-11.122 12.345s-11.529 11.962-11.684 11.815 4.823-5.674 11.12-12.346 11.53-11.962 11.686-11.814Z" class="f"/><path d="m387.27 255.774 24.721-23.642M408.447 418.503 595.491 230.99M433.454 442.154l186.693-187.16M595.491 230.99l24.656 24.004M408.447 418.503l25.007 23.651M456.455 418.894l187.044-187.512M481.462 442.546l186.694-187.161M643.499 231.382l24.657 24.003M456.455 418.894l25.007 23.652M503.261 420.146l187.044-187.513M528.268 443.797l186.693-187.16M690.305 232.633l24.656 24.004M503.261 420.146l25.007 23.651M549.707 422.068 736.75 234.556M574.714 445.72l186.693-187.161M736.75 234.556l24.657 24.003M549.707 422.068l25.007 23.652M569.948 257.786l186.467 186.001M594.669 234.144l186.514 186.047" class="d"/><path d="M780.704 421.177c.155.147-4.824 5.675-11.122 12.346s-11.529 11.962-11.684 11.815 4.823-5.675 11.121-12.346 11.53-11.962 11.685-11.815" class="e"/><path d="M780.704 421.177c.155.147-4.824 5.675-11.122 12.346s-11.529 11.962-11.684 11.815 4.823-5.675 11.12-12.347 11.53-11.961 11.686-11.814Z" class="f"/><path d="m569.291 256.389 24.722-23.642M619.483 258.381 805.95 444.383M644.204 234.739l186.513 186.048" class="d"/><path d="M830.238 421.773c.156.147-4.823 5.674-11.121 12.346s-11.53 11.961-11.685 11.814 4.824-5.674 11.122-12.346 11.529-11.96 11.684-11.814" class="e"/><path d="M830.239 421.773c.155.147-4.824 5.674-11.122 12.346s-11.529 11.961-11.684 11.814 4.823-5.674 11.12-12.346 11.53-11.961 11.686-11.814Z" class="f"/><path d="m618.826 256.985 24.722-23.642M667.111 257.782l186.467 186.002M691.832 234.14l186.513 186.048" class="d"/><path d="M877.866 421.174c.156.147-4.824 5.674-11.121 12.346s-11.53 11.961-11.685 11.814 4.824-5.674 11.121-12.346 11.53-11.961 11.685-11.814" class="e"/><path d="M877.866 421.174c.156.146-4.823 5.674-11.121 12.346s-11.53 11.961-11.685 11.815 4.824-5.675 11.121-12.347 11.53-11.961 11.685-11.814Z" class="f"/><path d="m666.454 256.386 24.722-23.642M713.785 257.68l186.467 186.001M738.506 234.037l186.513 186.049" class="d"/><path d="M924.54 421.071c.156.147-4.823 5.675-11.12 12.346s-11.53 11.962-11.686 11.815 4.824-5.675 11.122-12.346 11.529-11.962 11.684-11.815" class="e"/><path d="M924.54 421.071c.156.147-4.823 5.674-11.12 12.346s-11.53 11.962-11.685 11.815 4.823-5.675 11.12-12.346 11.53-11.962 11.686-11.815Z" class="f"/><path d="m713.128 256.283 24.722-23.642M733.679 421.287l187.043-187.512M758.686 444.939l186.693-187.16M920.722 233.775l24.657 24.004M733.679 421.287l25.007 23.652M781.687 421.679l187.044-187.512M806.694 445.331l186.693-187.16M968.731 234.167l24.656 24.004M781.687 421.679l25.007 23.652M828.493 422.931l187.044-187.512M853.5 446.582l186.693-187.16M1015.537 235.419l24.656 24.003M828.493 422.931l25.007 23.651M874.938 424.853l187.045-187.512M899.946 448.505l186.693-187.161M1061.983 237.341l24.656 24.003M874.938 424.853l25.008 23.652" class="d"/><path d="m293.194 304.472 117.252 117.202 19.246-31.989-114.039-111.792z" class="g"/><path d="m293.194 304.472 117.252 117.202 19.246-31.989-114.039-111.792z" class="h"/><path d="m341.28 303.537 22.092-24.28 88.5 93.713-18.219 17.748z" class="g"/><path d="m341.28 303.538 22.092-24.281 88.5 93.713-18.219 17.749zM388.867 301.998l25.158-23.214 86.168 92.086-21.3 22.466-27.021-20.366" class="h"/><path d="m414.025 278.784 21.491-20.124 115.007 114.871-23.251 18.87-27.079-21.531" class="h"/><path d="m458.444 369 17.793 26.392 116.46-114.365-26.009-21.806z" class="i"/><path d="m458.444 369 17.794 26.392 116.459-114.364-26.009-21.807z" class="j"/><path d="m504.799 369.242 22.884 21.334 93.619-87.929-26.375-22.884z" class="i"/><path d="m504.799 369.242 22.884 21.334 93.619-87.929-26.375-22.884z" class="j"/><path d="m550.523 373.531 22.781 22.598 96.333-93.713-23.955-21.345-24.38 21.576" class="j"/><path d="m689.441 286.636 25.392 20.025L600.75 420.552l-27.813-24.423z" class="i"/><path d="m689.441 286.636 25.393 20.025-114.083 113.891-27.814-24.423z" class="j"/><path d="m619.68 303.517 112.59 115.334 24.128-24.611L647.6 281.886z" class="k"/><path d="m619.68 303.517 112.591 115.334 24.128-24.611L647.6 281.886z" class="l"/><path d="m668.761 301.284 18.724-16.104 94.051 89.034-21.814 19.869z" class="k"/><path d="m668.762 301.284 18.724-16.104 94.05 89.034-21.814 19.869zM735.434 285.263l-19.512 23.08 89.201 85.343 26.516-20.921-92.02-92.02" class="l"/><path d="m764.019 263.273-21.039 21.75 108.368 109.336 28.388-17.635z" class="k"/><path d="m764.019 263.272-21.039 21.751 108.368 109.336 28.387-17.635z" class="l"/><path d="m739.394 286.162-22.22 21.7 83.869 83.222 24.284-18.044z" class="k"/><path d="m549.93 370.536 24.229 25.681 95.744-90.184-23.808-25.453z" class="i"/><path d="m391.723 305.865 28.777-27.164 81.813 90.379-24.292 25.171z" class="g"/><path d="m411.427 281.376 27.656-23.178 109.692 114.954-21.876 22.108z" class="g"/><path d="M115.527 546.885q.12-.204.56-.188.296.011 1.523.23t2.16.325q.932.106 1.874.174t2.786.09 2.707-.002 2.246-.126a20 20 0 0 1 2.75-.017M124.086 548.057v-.491q0-.023.013.025l.155.55q.141.502.258 1.12t.22 1.391.16 1.677.086 1.974q.028 1.069.03 3.225t-.054 3.209-.227 2.886-.203 3.638M133.44 548.019q-.433-.143-.504.21a2.8 2.8 0 0 0-.04.617 14 14 0 0 0 .34 1.851q.33 1.486.535 2.584t.343 2.208.195 2.328.089 2.517q.031 1.297.024 3.11t-.109 2.85q-.1 1.038-.14 1.605l-.043.6-.002.015v-.016l.011-.612a15 15 0 0 1 .18-1.718q.168-1.138.295-1.792t.315-1.361q.189-.707.438-1.488t.54-1.533.662-1.515.8-1.492a11 11 0 0 1 .845-1.243 11 11 0 0 1 .78-.88 7 7 0 0 1 .706-.623 2.8 2.8 0 0 1 .604-.364 1.8 1.8 0 0 1 .5-.13 1.2 1.2 0 0 1 .481.056.86.86 0 0 1 .443.378 4 4 0 0 1 .37.772 7 7 0 0 1 .293 1.157 15 15 0 0 1 .18 1.558q.06.872.15 2.969t.206 4.113.203 2.954.19 1.566a4.8 4.8 0 0 0 .253.995q.213.522.89.33M148.68 556.23v-.29l-.004.05-.037.532q-.032.468-.02 1.974t.122 3.046.162 2.297.14 1.496.167 1.512.189 1.327a2.9 2.9 0 0 0 .85 1.503M150.779 547.815q-.416-.186-.324-.19l.593-.023M162.004 554.323a2.5 2.5 0 0 0-.64-.814 1.9 1.9 0 0 0-.715-.406 2.9 2.9 0 0 0-1.023-.098 2.4 2.4 0 0 0-.965.211 4.4 4.4 0 0 0-.697.452 6 6 0 0 0-.688.637 6.3 6.3 0 0 0-.613.774 9 9 0 0 0-.512.858q-.235.45-.456.96a10 10 0 0 0-.372 1.004 7 7 0 0 0-.223.972 7 7 0 0 0-.081.91 2.4 2.4 0 0 0 .072.698.78.78 0 0 0 .333.431 2.4 2.4 0 0 0 .604.276 19 19 0 0 0 2.262.311q1.912.202 2.49.275t1.147.186a6 6 0 0 1 1 .276 2.7 2.7 0 0 1 .725.4 1.5 1.5 0 0 1 .442.552 1.9 1.9 0 0 1 .172.626 2.3 2.3 0 0 1-.03.608 2 2 0 0 1-.233.62 4.4 4.4 0 0 1-.418.62 11.8 11.8 0 0 1-2.134 1.805q-.456.265-.944.489a10 10 0 0 1-.976.386 6 6 0 0 1-1.255.242 9.8 9.8 0 0 1-1.854.06" class="c"/><path d="M124.77 577.251q-.24-.55.368-.645a12 12 0 0 1 1.554-.071 22 22 0 0 1 2.92.24q1.803.245 2.848.34t2.302.128q1.256.03 2.577.045t4.753.016 4.493.026 3.422.151q2.36.127 3.811.255t2.335.256q1.296.187 3.392.575" style="fill:none;stroke-linecap:round;stroke-linejoin:round;stroke-width:2.8346px;stroke:#d20000"/><path d="M194.015 554.574q-.007-.449-.17-.536-.114-.06-.168.363a14 14 0 0 0-.056 1.484q-.001 1.06.02 1.855t.141 1.733.285 2.024.365 2.066.417 1.895.462 1.796.477 1.484a5.5 5.5 0 0 0 .465.962 1.73 1.73 0 0 0 1.066.723M196.821 548.751l-.308-.335M208.037 556.247a6.7 6.7 0 0 0-1.548-.975 5.6 5.6 0 0 0-.792-.234 8 8 0 0 0-1.236-.12 8 8 0 0 0-1.18.013 2.7 2.7 0 0 0-.884.344 1.83 1.83 0 0 0-.75.68 1.8 1.8 0 0 0-.21.894 1.5 1.5 0 0 0 .202.816 6 6 0 0 0 .53.685 9 9 0 0 0 .785.778q.454.4 1.01.835t1.11.793 1.7 1.033 2.224 1.273 1.582.931a4.2 4.2 0 0 1 .787.644 1.54 1.54 0 0 1 .371.66 3.4 3.4 0 0 1 .096.753 1.38 1.38 0 0 1-.247.796 6.6 6.6 0 0 1-.638.812q-.384.422-.832.851a7.5 7.5 0 0 1-.91.749 9 9 0 0 1-.939.573 9 9 0 0 1-.975.444 4.5 4.5 0 0 1-.931.255 6.5 6.5 0 0 1-.872.073 8 8 0 0 1-.914-.04 3.1 3.1 0 0 1-.822-.18 2 2 0 0 1-.558-.31 1 1 0 0 1-.244-.898M236.822 547.256q-.215-.42-.23-.308l-.051.404q-.042.322-.094 2.922t-.101 3.91-.125 2.828-.125 2.904-.057 2.592.027 2.238a7.3 7.3 0 0 0 .222 1.704 8 8 0 0 0 .44 1.207 5 5 0 0 0 .555.934 1.64 1.64 0 0 0 .615.535 1.7 1.7 0 0 0 .618.147 1.3 1.3 0 0 0 .632-.147 1.95 1.95 0 0 0 .633-.55 22 22 0 0 0 1.606-2.838" class="c"/><path d="m232.88 554.781-.534-.235q-.04-.017.156.012l1.387.204q1.192.176 1.887.232 1 .08 4.852.015M248.043 547.895q-.465-.154-.602.216a4.2 4.2 0 0 0-.09 1.178q.007.915.164 2.784t.214 2.945.084 2.311.03 5.58q.004 4.347.051 4.634t.224.286.456-.83.95-3.228q.671-2.4.985-3.422t.708-2.057a16 16 0 0 1 .85-1.883 10.6 10.6 0 0 1 .955-1.49 7.6 7.6 0 0 1 1.003-1.078 3 3 0 0 1 .89-.574 2.4 2.4 0 0 1 .681-.15.7.7 0 0 1 .521.193 1.4 1.4 0 0 1 .356.6 7 7 0 0 1 .222.935q.093.54.15 1.187t.11 2.105q.052 1.46.127 3.2t.15 2.546.175 1.585q.15 1.149.531 2.78M264.774 562.083q-.178.68.199.686a1.36 1.36 0 0 0 .72-.324 5 5 0 0 0 .734-.627 7 7 0 0 0 .587-.725q.306-.425.65-.97a12 12 0 0 0 .636-1.132q.29-.59.528-1.182a6.6 6.6 0 0 0 .356-1.212 7 7 0 0 0 .131-1.135 1.7 1.7 0 0 0-.268-.964 3.4 3.4 0 0 0-.693-.795 2.1 2.1 0 0 0-.822-.452 3.7 3.7 0 0 0-.803-.114 1.22 1.22 0 0 0-.767.268 3.8 3.8 0 0 0-.739.759 11 11 0 0 0-.736 1.123q-.372.642-.779 1.428t-.761 1.666q-.356.882-.636 1.787a12 12 0 0 0-.41 1.785 10 10 0 0 0-.122 1.573 3 3 0 0 0 .276 1.254 5 5 0 0 0 .653 1.033 6 6 0 0 0 .819.835q.433.362.908.689a21.4 21.4 0 0 0 2.873 1.443M291.023 555.014a2.9 2.9 0 0 0-.207-.895q-.066-.087-.08 1.296t-.013 5.76q0 4.378.022 5.188t.071 1.414a7.2 7.2 0 0 0 .375 1.77M291.41 548.336a3 3 0 0 0-.04-.864q-.074-.332.55.116M297.679 555.116q-.03 2.19.035 3.207.044.7.194 2.412t.184 2.626.037 3.256a17.6 17.6 0 0 0 .087 2.542q.082.2.273-.3a12 12 0 0 0 .43-1.685q.242-1.184.502-2.728t.422-2.43.377-1.836a19 19 0 0 1 .56-1.962 11 11 0 0 1 .798-1.813 7.5 7.5 0 0 1 1.009-1.404 7 7 0 0 1 1.168-1.026 4 4 0 0 1 1.174-.58 5 5 0 0 1 1.06-.186 2.8 2.8 0 0 1 .918.086 1.5 1.5 0 0 1 .728.463 3.5 3.5 0 0 1 .552.885 7.4 7.4 0 0 1 .417 1.218 9 9 0 0 1 .24 1.495q.064.813.082 1.791t.019 2.88q.002 1.903-.035 2.884-.053 1.42-.014 4.991M323.534 546.787q.121-.206-.159-.73a2 2 0 0 0-.345-.501 1.3 1.3 0 0 0-.375-.255 2.8 2.8 0 0 0-.833-.145 3 3 0 0 0-.968.046 2.5 2.5 0 0 0-.705.322 7 7 0 0 0-.732.541 4.7 4.7 0 0 0-.691.718 4.8 4.8 0 0 0-.567.946 8 8 0 0 0-.451 1.306 10 10 0 0 0-.28 1.712q-.078.948-.087 3.453t.04 3.85q.046 1.347.198 3.786t.425 5.335q.275 2.895.339 3.373t.15.896a7 7 0 0 0 .166.66 1.7 1.7 0 0 0 .295.516.55.55 0 0 0 .533.228" class="c"/><path d="M314.38 565.283a4.4 4.4 0 0 1 .228-1.239 2 2 0 0 1 .543-.534 3.9 3.9 0 0 1 .822-.497q.375-.157 2.45-.716t2.917-.828a21 21 0 0 0 3.177-1.41M327.936 556.317q-1.09-.222-1.373.048a2.6 2.6 0 0 0-.454.897 9 9 0 0 0-.372 1.299q-.116.59-.222 1.359t-.14 1.578q-.032.808-.035 1.646t.055 1.702a8 8 0 0 0 .24 1.543 5.4 5.4 0 0 0 .465 1.202 3.3 3.3 0 0 0 .709.9 2.1 2.1 0 0 0 .904.5 4.3 4.3 0 0 0 1.052.118 2.64 2.64 0 0 0 1.188-.315 4.7 4.7 0 0 0 1.153-.834 9 9 0 0 0 .975-1.12 11 11 0 0 0 .781-1.227 9 9 0 0 0 .564-1.23 9 9 0 0 0 .35-1.206 9.2 9.2 0 0 0 .143-2.79 7.3 7.3 0 0 0-.372-1.65 17 17 0 0 0-.71-1.746 10.3 10.3 0 0 0-.85-1.5 4.6 4.6 0 0 0-.864-.968 3 3 0 0 0-.843-.491 1.9 1.9 0 0 0-.746-.129 1.02 1.02 0 0 0-.62.278 3.4 3.4 0 0 0-.526.598 3.2 3.2 0 0 0-.378.723 5 5 0 0 0-.213.747 7.6 7.6 0 0 0-.1 1.458M335.794 555.539a3.5 3.5 0 0 1 .914-.026.57.57 0 0 1 .31.248 3.5 3.5 0 0 1 .359.816 16 16 0 0 1 .422 1.58q.218.98.344 1.684t.357 2.21.345 2.85.146 1.447l.042.123q.007.02.01-.167t.013-1.135 0-1.496-.07-1.208-.113-1.459-.059-1.576a14 14 0 0 1 .078-1.556 7.5 7.5 0 0 1 .333-1.54 6.5 6.5 0 0 1 .6-1.34 5.5 5.5 0 0 1 .817-1.045 6.7 6.7 0 0 1 1.07-.86 5.1 5.1 0 0 1 1.29-.61 10.5 10.5 0 0 1 1.49-.341q1.16-.182 3.939-.36M351.072 554.24a5.8 5.8 0 0 1 .167-1.127l.1.26a4 4 0 0 1 .156.749q.076.54.153 1.325t.118 1.843.059 2.303.02 2.478q.002 1.231-.092 2.377t-.288 2.916q-.193 1.77-.211 2.189l-.025.565q-.006.145.097-.082l.401-.881q.299-.655.82-2.247t.806-2.575.52-2.046.542-2.323q.305-1.26.705-2.549a19 19 0 0 1 .86-2.291 17 17 0 0 1 .912-1.742 10 10 0 0 1 .87-1.232 2.1 2.1 0 0 1 .786-.636 1.65 1.65 0 0 1 .703-.121 1 1 0 0 1 .649.35 3 3 0 0 1 .554.884 6.4 6.4 0 0 1 .392 1.298 13 13 0 0 1 .211 1.629q.063.888.069 1.862t-.015 2.072-.119 2.243-.267 2.798-.189 2.43.217.657a1.27 1.27 0 0 0 .466-.594q.23-.472.493-1.114t.547-1.416q.282-.774.86-2.686t.946-3.026.777-2.053a15 15 0 0 1 .834-1.65 6.2 6.2 0 0 1 .873-1.166 1.83 1.83 0 0 1 .855-.546 1.3 1.3 0 0 1 .77.05 1.05 1.05 0 0 1 .563.6 4 4 0 0 1 .28 1.11 22 22 0 0 1 .075 2.31q-.002 1.659-.05 2.533t-.054 2.664a14.1 14.1 0 0 0 .71 4.75M381.626 559.34a6.7 6.7 0 0 0 .575-1.912 14 14 0 0 0 .148-1.748 4.1 4.1 0 0 0-.12-1.421 5.6 5.6 0 0 0-.41-.835 8 8 0 0 0-.62-.897 5.8 5.8 0 0 0-.782-.825 3.7 3.7 0 0 0-.882-.57 3.2 3.2 0 0 0-.937-.265 1.63 1.63 0 0 0-.905.146 2.7 2.7 0 0 0-.848.678 8.3 8.3 0 0 0-.827 1.15 11 11 0 0 0-.744 1.477 16 16 0 0 0-.597 1.708q-.264.905-.477 2.042t-.329 2.37-.15 2.45-.037 2.28.055 1.753a2.85 2.85 0 0 0 .261 1.07 1.46 1.46 0 0 0 .48.563 1.16 1.16 0 0 0 .618.185 1.6 1.6 0 0 0 .771-.226 7 7 0 0 0 .947-.639 12 12 0 0 0 1.035-.924q.516-.518 1.068-1.14a13 13 0 0 0 .988-1.254 11 11 0 0 0 .794-1.348 12 12 0 0 0 .65-1.579 20 20 0 0 0 .606-2.541q.314-1.677.4-2.342t.09-.706l.004-.02-.002.022-.07.723q-.067.682-.105 1.286t-.056 1.338-.02 2.089.067 2.048a7.6 7.6 0 0 0 .241 1.3q.172.607.375 1.13a4.8 4.8 0 0 0 .502.963 1.53 1.53 0 0 0 .712.598 3.42 3.42 0 0 0 2.021-.226M392.333 548.885q-.647-.408-.786.121a7.7 7.7 0 0 0-.115 1.517q-.015 1.137-.015 2.866t.035 3.66.037 4.975a35 35 0 0 1-.34 6.42" class="c"/><path d="M387.695 555.321q-.103-1.142.08-1.333a1.3 1.3 0 0 1 .451-.265 5.5 5.5 0 0 1 .766-.237q.442-.106 2.156-.291t2.996-.253a20 20 0 0 1 3.132.026M399.055 556.67q0 1.125-.102 2.954t-.163 3.293a52 52 0 0 0 .096 5.248M400.149 547.684q-.25-1.387.404-.802M408.576 556.21a3.2 3.2 0 0 1-.778-1.266q-.096-.382-.266-.14a2 2 0 0 0-.275.588q-.103.348-.205.86t-.192 1.237-.117 2.534a21 21 0 0 0 .113 2.86 17 17 0 0 0 .386 2.006 14 14 0 0 0 .576 1.76 8.5 8.5 0 0 0 .73 1.423 2.66 2.66 0 0 0 .849.877 2.2 2.2 0 0 0 .955.296 2.6 2.6 0 0 0 1.06-.157 3.1 3.1 0 0 0 1.072-.679 7.4 7.4 0 0 0 .977-1.129 11 11 0 0 0 .818-1.346 7 7 0 0 0 .546-1.414 9 9 0 0 0 .252-1.468q.066-.757.073-1.636a5.9 5.9 0 0 0-.307-1.851 10.6 10.6 0 0 0-.868-1.956 12 12 0 0 0-1.283-1.849 11 11 0 0 0-1.426-1.44 11 11 0 0 0-1.327-.947 3.5 3.5 0 0 0-1.007-.445 1.1 1.1 0 0 0-.576.002.54.54 0 0 0-.299.362 4.2 4.2 0 0 0-.11 1.12 10 10 0 0 0 .057 1.357 5 5 0 0 0 .249 1.019q.178.496.42 1.034a25 25 0 0 0 1.337 2.409M419.498 554.755a.53.53 0 0 0-.465.257 2.7 2.7 0 0 0-.145.962q-.04.792-.015 1.494a25 25 0 0 0 .308 2.499q.282 1.796.542 3.223t.367 1.97a7 7 0 0 0 .209.841.73.73 0 0 0 .318.422q.217.123.56-.65t.558-1.402.414-1.403.605-2.76.664-2.943a17 17 0 0 1 .58-1.794 9 9 0 0 1 .768-1.542 3.3 3.3 0 0 1 .962-1.04 2.56 2.56 0 0 1 1.094-.405 2.7 2.7 0 0 1 1.108.089 1.94 1.94 0 0 1 .922.603 4.8 4.8 0 0 1 .685 1.047 7.7 7.7 0 0 1 .5 1.35 11 11 0 0 1 .306 1.614q.1.867.147 3.07t.036 3.322q-.013 1.609-.601 7.578M452.355 554.933l.047-1.621q.002-.078-.01-.024l-.126.586a12 12 0 0 0-.192 1.257q-.078.725-.104 1.777t-.028 1.902.035 1.878a19 19 0 0 0 .18 2.016q.142.988.34 1.9t.45 1.714a8.3 8.3 0 0 0 .535 1.337 3.5 3.5 0 0 0 .587.843 2.5 2.5 0 0 0 .513.422 1.2 1.2 0 0 0 .66.068 1.14 1.14 0 0 0 .76-.391 5.5 5.5 0 0 0 .62-.879 8.5 8.5 0 0 0 .573-1.203q.262-.67.805-2.346t.781-2.67a18 18 0 0 0 .361-2.047q.125-1.051.174-1.715t.032-1.883a8 8 0 0 0-.246-2.024 6 6 0 0 0-.313-.945l-.109-.18q-.024-.042-.025.228t-.001 1.174q-.002.906.02 1.637t.196 2.542q.174 1.81.301 2.85t.312 1.947.32 1.338a6 6 0 0 0 .288.753 3.4 3.4 0 0 0 .515.738 1.5 1.5 0 0 0 .805.513 2.2 2.2 0 0 0 .885.016 2.6 2.6 0 0 0 .706-.218 3.1 3.1 0 0 0 .751-.714 4.6 4.6 0 0 0 .715-1.094 8.5 8.5 0 0 0 .649-2.456q.075-.69.094-1.551t-.016-1.726a8.4 8.4 0 0 0-.221-1.639q-.187-.774-.541-1.788a10 10 0 0 1-.41-1.376q-.078-.508.724-.461M470.165 548.495q-.478-.181-.545.472t-.07 1.902q-.002 1.248.081 2.998t.111 2.782.03 3.112-.008 3.115-.136 2.308-.14 1.583l-.018.377q-.003.065.038-.031t.242-.555.605-1.77.634-2.189.45-1.801.499-1.89.62-1.91a15 15 0 0 1 .702-1.657 8.7 8.7 0 0 1 .71-1.191 2.8 2.8 0 0 1 .71-.714 1.3 1.3 0 0 1 .617-.247.59.59 0 0 1 .478.255 4 4 0 0 1 .443.692 5 5 0 0 1 .37.976q.15.552.282 1.202t.506 3.121.737 4.964q.615 4.23 1.12 5.016M485.598 555.27a2.2 2.2 0 0 1 .192-.62l.078.148a8 8 0 0 1 .077 1.459q.015 1.34.015 3.618 0 3.36-.106 8.152M485.156 546.528l-.098-.335M496 556.22a5.2 5.2 0 0 0-1.3-1.166 2.9 2.9 0 0 0-.9-.414 3 3 0 0 0-.559-.087.7.7 0 0 0-.363.112 1.7 1.7 0 0 0-.394.36 5 5 0 0 0-.413.584 5.4 5.4 0 0 0-.388.79q-.182.45-.364 1.043t-.318 1.223-.219 1.334-.135 1.47-.047 2.055a8 8 0 0 0 .156 1.836 4.4 4.4 0 0 0 .353.919 2.5 2.5 0 0 0 .489.64 2.8 2.8 0 0 0 .663.459 3.7 3.7 0 0 0 1.353.233 7.2 7.2 0 0 0 1.635-.08 6 6 0 0 0 1.293-.408 10 10 0 0 0 1.244-.657 13.5 13.5 0 0 0 2.308-2.016M504.373 547.375a.47.47 0 0 0-.585.208 2.7 2.7 0 0 0-.194 1.161 11 11 0 0 0 .072 1.785q.105.853.28 1.87t.332 2.037.264 2.078.165 2.223.077 3.083.018 3.022.011 1.281a.28.28 0 0 0 .093.232q.081.054.323-.542t.442-1.24.403-1.456.638-2.949.693-3.148a18 18 0 0 1 .597-1.914 10.3 10.3 0 0 1 .791-1.657 4.1 4.1 0 0 1 .95-1.142 2.6 2.6 0 0 1 1.034-.509 4.4 4.4 0 0 1 1.043-.11 1.36 1.36 0 0 1 .894.35 3.2 3.2 0 0 1 .682.884 4.9 4.9 0 0 1 .452 1.215 23 23 0 0 1 .347 2.343q.19 1.672.514 5.079a41.3 41.3 0 0 1 .363 6.95M546.008 555.44a2 2 0 0 0-.183-1.417 1.61 1.61 0 0 0-1.357-.915 4 4 0 0 0-.787-.038 2 2 0 0 0-.638.178 5 5 0 0 0-.704.39 13 13 0 0 0-1.117.895q-.758.658-1.063.986a3.8 3.8 0 0 0-.499.662 2.4 2.4 0 0 0-.273.683 1.9 1.9 0 0 0-.027.685 1.37 1.37 0 0 0 .403.707 11 11 0 0 0 .866.805q.515.435 1.642 1.24t1.733 1.192q.605.388 1.827 1.078a18 18 0 0 1 1.737 1.075 3.1 3.1 0 0 1 .752.75 1.64 1.64 0 0 1 .273.76 1.8 1.8 0 0 1-.148.844 3.4 3.4 0 0 1-.538.876q-.355.429-.774.855t-.841.807a5 5 0 0 1-.86.629 6 6 0 0 1-.912.424 4.4 4.4 0 0 1-1.319.207 4 4 0 0 1-1.338-.13 5 5 0 0 1-.918-.4 7 7 0 0 1-.768-.494 4.6 4.6 0 0 1-.6-.527 1.44 1.44 0 0 1-.346-.702q-.132-.618 1.046-1.315M552.406 547.923q-.427-.152-.445.654t.014 1.37q.033.567.244 2.116t.418 3.338q.21 1.787.267 2.752t.085 1.981q.027 1.017.02 2.728a26 26 0 0 1-.17 3.02l-.15 1.215v-.008l.078-.51q.062-.408.478-2.335t.64-2.83.526-1.853a19 19 0 0 1 .703-1.871 13 13 0 0 1 .945-1.769 11 11 0 0 1 1.081-1.445 9 9 0 0 1 1.026-.984 6.6 6.6 0 0 1 .87-.6 1.9 1.9 0 0 1 .643-.246.6.6 0 0 1 .46.126 1.15 1.15 0 0 1 .334.525 10 10 0 0 1 .321 1.513q.188 1.146.255 1.793t.16 2.334.118 2.596.03 2.825q.004 2.82.103 7.02M564.803 558.126a11 11 0 0 0-1.129 1.242 2.7 2.7 0 0 0-.339.676 4.6 4.6 0 0 0-.2.907 9 9 0 0 0-.067 1.151q-.002.633.057 1.277a6 6 0 0 0 .166 1.024 10 10 0 0 0 .375 1.024q.267.643.619 1.324a10 10 0 0 0 .738 1.227 7.7 7.7 0 0 0 .795.958q.407.414.656.62a2 2 0 0 0 .45.294 2.9 2.9 0 0 0 .792.139 2.15 2.15 0 0 0 1.04-.144 4.7 4.7 0 0 0 1.134-.804 16 16 0 0 0 1.213-1.196q.528-.585.984-1.185a8.6 8.6 0 0 0 .78-1.219 6 6 0 0 0 .495-1.262 8 8 0 0 0 .236-1.381 6 6 0 0 0-.068-1.525 5.8 5.8 0 0 0-.343-1.282 9 9 0 0 0-.488-.978 15 15 0 0 0-.944-1.378 17 17 0 0 0-1.385-1.637q-.718-.741-1.393-1.317a6.4 6.4 0 0 0-1.174-.83 2.9 2.9 0 0 0-.907-.31 1.8 1.8 0 0 0-.717.026 1.13 1.13 0 0 0-.549.346 3 3 0 0 0-.417.583 5 5 0 0 0-.312.706 3 3 0 0 0-.145.93 2.1 2.1 0 0 0 .153.899 5.7 5.7 0 0 0 .889 1.28M578.707 554.75l.203-.964.003-.013-.004.04q-.01.062-.122.86t-.19 1.534q-.077.737-.12 1.682t-.062 3.202.089 3.347.299 2.083a10.4 10.4 0 0 0 .458 1.689 3.8 3.8 0 0 0 .605 1.1 2.1 2.1 0 0 0 .733.588 1.75 1.75 0 0 0 .816.162 1.8 1.8 0 0 0 .871-.298 5 5 0 0 0 .902-.751 5.5 5.5 0 0 0 .826-1.122 14 14 0 0 0 .697-1.428q.325-.775.603-1.62t.477-1.675a18 18 0 0 0 .326-1.763q.126-.933.186-2.015t.066-2.03-.008-1.648a12 12 0 0 0-.1-1.34q-.086-.638-.115-.577t-.14.302a4.2 4.2 0 0 0-.217 1.021 26 26 0 0 0-.12 2.726q-.016 1.946.042 2.801t.167 1.708.284 1.73.412 1.768a10 10 0 0 0 .55 1.572 4 4 0 0 0 .785 1.158 4.9 4.9 0 0 0 2.518 1.048M595.595 548.366q.07-.86-.101-.82-.12.027-.22.385a8 8 0 0 0-.194 1.02q-.094.664-.184 1.59t-.168 2.01q-.079 1.082-.16 3.662t-.086 5.177q-.004 2.596.09 3.538a9.7 9.7 0 0 0 .335 1.76 6 6 0 0 0 .578 1.387 5.7 5.7 0 0 0 2.381 1.75M609.818 559.447a3.3 3.3 0 0 0 .41-1.387 7 7 0 0 0 .124-1.146 4.5 4.5 0 0 0-.034-.66 1.6 1.6 0 0 0-.18-.5 4 4 0 0 0-.354-.539 4.4 4.4 0 0 0-.511-.541 7 7 0 0 0-.665-.531 5 5 0 0 0-.776-.45 4.5 4.5 0 0 0-.869-.3 5.3 5.3 0 0 0-.91-.133 8 8 0 0 0-.857-.007 2.2 2.2 0 0 0-.806.197 3 3 0 0 0-.72.452 3.8 3.8 0 0 0-.6.66 5.6 5.6 0 0 0-.5.833 6.5 6.5 0 0 0-.38.982 9.5 9.5 0 0 0-.273 1.228q-.11.694-.18 1.589t-.078 2.788a27 27 0 0 0 .099 2.839 14 14 0 0 0 .277 1.659 6.5 6.5 0 0 0 .445 1.284 5.6 5.6 0 0 0 .637 1.036 2.45 2.45 0 0 0 .831.7 2.5 2.5 0 0 0 .98.267 9 9 0 0 0 1.143-.01 3.4 3.4 0 0 0 1.251-.338 6 6 0 0 0 1.204-.769 8.3 8.3 0 0 0 1.107-1.09 8 8 0 0 0 .879-1.25 12 12 0 0 0 .653-1.371q.296-.74.54-1.546a16 16 0 0 0 .407-1.701 31 31 0 0 0 .23-4.753" class="c"/><path d="m610.922 549.659-.25-1.392q-.009-.047-.009.093v2.11q0 1.97.022 2.779c.022.809.039 1.09.072 1.647s.108 1.506.224 2.84.209 2.33.279 2.984q.148 1.413.884 6.195M629.372 548.52a5 5 0 0 0-.008-.73l-.063.127a2.1 2.1 0 0 0-.042.642 13 13 0 0 0 .126 1.434q.117.893.46 3.146t.521 3.653.303 2.669.195 2.374.114 2.637q.07 2.502.134 3.361" class="c"/><path d="M629.716 556.847a21 21 0 0 1 .39-2.258 3 3 0 0 1 .26-.608 2.6 2.6 0 0 1 .42-.538 3.4 3.4 0 0 1 .826-.554 3.3 3.3 0 0 1 1.023-.356 8 8 0 0 1 .944-.07 2.8 2.8 0 0 1 1.002.179 12.6 12.6 0 0 1 1.71.883q1.197.698 1.856 1.122t1.303.9a11 11 0 0 1 1.22 1.046 4.6 4.6 0 0 1 .88 1.162 4 4 0 0 1 .402 1.268 7.4 7.4 0 0 1 .062 1.442 4 4 0 0 1-.33 1.425 7.4 7.4 0 0 1-.739 1.282q-.446.625-.991 1.258a13 13 0 0 1-1.102 1.137q-.555.504-1.134.952t-1.192.84a8 8 0 0 1-1.128.62 3.8 3.8 0 0 1-1.03.294 8 8 0 0 1-1.09.065 3.3 3.3 0 0 1-1.096-.19 7.5 7.5 0 0 1-.936-.403 5.5 5.5 0 0 1-.686-.413 1.05 1.05 0 0 1-.354-.379q-.116-.257 2.162-.94M644.385 562.468a1.7 1.7 0 0 0-.244.686q-.005.17.619.229a3.4 3.4 0 0 0 1.34-.163 9 9 0 0 0 1.298-.51 8.6 8.6 0 0 0 1.179-.711 9 9 0 0 0 1.142-.968 6.4 6.4 0 0 0 .914-1.133 5.7 5.7 0 0 0 .578-1.206 5.4 5.4 0 0 0 .266-1.25 4.6 4.6 0 0 0-.031-1.172 2.6 2.6 0 0 0-.41-1.025 5.3 5.3 0 0 0-.757-.905 3 3 0 0 0-.935-.628 3.7 3.7 0 0 0-1.026-.263 5 5 0 0 0-1.057-.002 1.9 1.9 0 0 0-.965.387 3.8 3.8 0 0 0-.816.888 10 10 0 0 0-.744 1.308 10 10 0 0 0-.608 1.63q-.245.879-.445 1.898t-.311 2.112q-.111 1.091-.123 2.044a15 15 0 0 0 .056 1.649 5 5 0 0 0 .322 1.335 3.7 3.7 0 0 0 .613 1.063 3.4 3.4 0 0 0 .873.723 6.6 6.6 0 0 0 1.214.538 6 6 0 0 0 1.412.298q.71.06 1.464.066a11.5 11.5 0 0 0 1.504-.087 5.9 5.9 0 0 0 2.49-1.089M674.46 554.338a5.8 5.8 0 0 0 .457-1.12l.057-.266q.005-.032-.01.01l-.14.349a4 4 0 0 0-.198.903q-.076.595-.164 1.641t-.155 2.592-.07 3.256.044 2.504a8 8 0 0 0 .18 1.362 5.4 5.4 0 0 0 .322.986 4.4 4.4 0 0 0 .368.68.63.63 0 0 0 .54.27.8.8 0 0 0 .613-.25 3.2 3.2 0 0 0 .488-.683 22 22 0 0 0 1.01-2.418M676.736 548.13l.054-.363q.002-.012.006.02.004.045.113.998M682.612 556.908a37 37 0 0 1 .11 3.946 32 32 0 0 1-.184 3.594q-.185 1.66-.22 2.302a2.4 2.4 0 0 0-.01.582l.121-.3q.097-.24.441-1.87.345-1.63.649-3.242t.518-2.482.503-1.75a17 17 0 0 1 .668-1.712 11 11 0 0 1 .787-1.45 7 7 0 0 1 .843-1.064 5.4 5.4 0 0 1 .874-.734 2.7 2.7 0 0 1 .775-.375 3 3 0 0 1 .612-.095.86.86 0 0 1 .514.152 1.9 1.9 0 0 1 .446.432 4.4 4.4 0 0 1 .403.649 6.6 6.6 0 0 1 .366.868 5 5 0 0 1 .234 1.04q.065.55.095 2.71t.07 3.703.074 2.096a5 5 0 0 0 .144.957 3.7 3.7 0 0 0 .26.701 2.2 2.2 0 0 0 .509.613 1.4 1.4 0 0 0 .732.367 1.05 1.05 0 0 0 .817-.359 12.4 12.4 0 0 0 1.42-1.609M718.504 547.721a.29.29 0 0 0-.384.158 2 2 0 0 0-.119.577q-.04.41-.045 2.3t.028 3.187.172 4.071.236 3.957.225 2.162.278 1.661.332 1.26.384 1.069a2.7 2.7 0 0 0 .433.748.96.96 0 0 0 .482.319 1.72 1.72 0 0 0 1.133-.401" class="c"/><path d="M715.855 554.263q-.331-.59 1.967-.593a27.8 27.8 0 0 0 5.434-.403M727.041 546.879a2.04 2.04 0 0 0-.83.477 1.8 1.8 0 0 0-.146.77 9.4 9.4 0 0 0 .264 2.091q.3 1.473.482 2.455t.33 2.035q.146 1.052.22 2.218t.09 2.352q.02 1.185-.038 2.34t-.283 2.98q-.225 1.827-.284 2.417t-.076 1.06.015.397.165-.366q.132-.293.535-1.63t1.172-4.052 1.108-3.734.699-1.866a13 13 0 0 1 .746-1.503 5.2 5.2 0 0 1 .82-1.08 2 2 0 0 1 .857-.537 2.4 2.4 0 0 1 .862-.068 1.7 1.7 0 0 1 .853.366 2.8 2.8 0 0 1 .714.84 5.8 5.8 0 0 1 .503 1.189 13 13 0 0 1 .354 1.48q.148.813.244 1.675t.222 1.82.347 2.738a35.5 35.5 0 0 0 .895 4.798M741.245 561.228a.62.62 0 0 0-.368.511.8.8 0 0 0 .022.393.5.5 0 0 0 .286.236 3.7 3.7 0 0 0 1.007.134 3.4 3.4 0 0 0 1.271-.137 5.4 5.4 0 0 0 1.043-.519 5.5 5.5 0 0 0 1.036-.844 6 6 0 0 0 .857-1.131 9.3 9.3 0 0 0 .642-1.322 6.6 6.6 0 0 0 .378-1.355 10 10 0 0 0 .13-1.29q.022-.625-.01-1.222a3.3 3.3 0 0 0-.252-1.122 4.6 4.6 0 0 0-.57-.987 4 4 0 0 0-.756-.773 1.74 1.74 0 0 0-.785-.368 1.3 1.3 0 0 0-.729.103 2 2 0 0 0-.713.616 6.4 6.4 0 0 0-.711 1.191q-.35.734-.685 1.621t-.636 1.92a20 20 0 0 0-.494 2.134 18 18 0 0 0-.247 2.308q-.053 1.204-.025 2.199a7.2 7.2 0 0 0 .276 1.837 8 8 0 0 0 .645 1.579 4.4 4.4 0 0 0 .887 1.182 4.2 4.2 0 0 0 1.109.724 9.7 9.7 0 0 0 3.372.429M771.983 555.448a8.3 8.3 0 0 0-1.827-1.107 5 5 0 0 0-.992-.315 13 13 0 0 0-1.414-.139 12 12 0 0 0-1.422-.027 2.6 2.6 0 0 0-.811.188 2.1 2.1 0 0 0-.616.37 1.8 1.8 0 0 0-.376.478 1.8 1.8 0 0 0-.187.571 2 2 0 0 0 .007.638 1.7 1.7 0 0 0 .348.727 4.8 4.8 0 0 0 .814.819 14 14 0 0 0 1.232.885q.715.461 1.587.962t2.422 1.353 2.192 1.25a9 9 0 0 1 1.018.72 2.7 2.7 0 0 1 .57.63 1.5 1.5 0 0 1 .221.634 1.52 1.52 0 0 1-.583 1.456 5.2 5.2 0 0 1-.798.759 2.7 2.7 0 0 1-.65.328 3.6 3.6 0 0 1-.812.173q-.455.048-.987.053t-1.156-.03a13 13 0 0 1-1.29-.143q-.665-.108-1.514-.316t-1.047-.276q-.278-.094 1.249-.722M780.939 546.779a1.1 1.1 0 0 0-.502.466 2.1 2.1 0 0 0-.171.588 18 18 0 0 0-.089 2.024q-.02 1.63.024 2.669t.143 2.062q.1 1.025.28 2.996t.404 4.946.314 3.636.498.667" class="c"/><path d="M777.053 555.299a6.6 6.6 0 0 1 1.346-.412q.86-.185 2.475-.598 2.405-.616 5.215-1.194M792.485 559.78a2.8 2.8 0 0 1-.747-1.03 6.3 6.3 0 0 1-.182-1.604 15 15 0 0 0-.105-1.579 4 4 0 0 0-.168-.628 2 2 0 0 0-.247-.493 1.1 1.1 0 0 0-.329-.307 1.5 1.5 0 0 0-.625-.15 1.19 1.19 0 0 0-.921.483 6 6 0 0 0-.765.983 12 12 0 0 0-.574 1.104q-.295.638-.617 1.54t-.563 1.865-.403 2.061a23 23 0 0 0-.216 2.279q-.053 1.179-.048 2.157a7.8 7.8 0 0 0 .193 1.764 6 6 0 0 0 .473 1.342 1.8 1.8 0 0 0 .596.74 1.29 1.29 0 0 0 1.352.025 2.5 2.5 0 0 0 .733-.598 7 7 0 0 0 .713-1.003q.36-.6.758-1.347t.717-1.475.594-1.45.513-1.518a10.4 10.4 0 0 0 .34-1.574 15 15 0 0 0 .125-1.624q.021-.845.002-1.65a7.7 7.7 0 0 0-.117-1.281 2.2 2.2 0 0 0-.217-.67q-.12-.194-.123.103t-.017 1.484.009 1.933a12 12 0 0 0 .14 1.495q.12.748.282 1.511t.364 1.456.468 1.38.591 1.381a6.7 6.7 0 0 0 .696 1.186 3.6 3.6 0 0 0 2.217 1.038M803.121 548.132a.8.8 0 0 0-.667.102 1 1 0 0 0-.29.433 2.5 2.5 0 0 0-.135.846 8.4 8.4 0 0 0 .092 1.307q.105.764.302 1.68t.377 1.81.327 1.797.24 1.88.142 1.944.101 2.724q.084 2.67.295 4.77" class="c"/><path d="M798.528 556.742a12 12 0 0 1 1.696-.668q.97-.307 1.956-.6 1.43-.425 4.887-1.68M811.074 561.651q-1.201-.157-.973-.182l.819-.09a3.7 3.7 0 0 0 .988-.216 4 4 0 0 0 .678-.38 4.6 4.6 0 0 0 .693-.597 5 5 0 0 0 .64-.816 7 7 0 0 0 .528-1.014 13 13 0 0 0 .437-1.206 7 7 0 0 0 .267-1.236q.067-.588.074-1.102a2.7 2.7 0 0 0-.146-.949 1.7 1.7 0 0 0-.446-.7 2.3 2.3 0 0 0-.67-.419 3 3 0 0 0-.788-.203 2.2 2.2 0 0 0-.777.037 1.4 1.4 0 0 0-.703.456 5.3 5.3 0 0 0-.684 1 11 11 0 0 0-.64 1.404 16 16 0 0 0-.528 1.736 19 19 0 0 0-.389 2.141 21 21 0 0 0-.167 2.366 19 19 0 0 0 .112 2.342 14.6 14.6 0 0 0 .428 2.26 11 11 0 0 0 .704 1.925 7.2 7.2 0 0 0 .86 1.38 4 4 0 0 0 .979.883 2.6 2.6 0 0 0 1.015.392 5 5 0 0 0 .987.04 3 3 0 0 0 1.041-.276 7.5 7.5 0 0 0 1.15-.655 25 25 0 0 0 3.266-3.28M822.099 555.013a9 9 0 0 0-.253 1.836q-.031.935-.032 1.689t.138 3.288q.137 2.534.188 3.794t.14 1.956a2.4 2.4 0 0 0 .193.83q.101.134.176-.134a12 12 0 0 0 .194-1.32q.12-1.051.245-2.483t.228-2.24q.101-.806.26-1.712a14 14 0 0 1 .422-1.741 9 9 0 0 1 .66-1.583 7.8 7.8 0 0 1 .936-1.381 4.2 4.2 0 0 1 1.125-.963 3.7 3.7 0 0 1 1.18-.434 4.4 4.4 0 0 1 1.141-.057 1.53 1.53 0 0 1 .919.378 2.6 2.6 0 0 1 .614.855 5.7 5.7 0 0 1 .398 1.261 11 11 0 0 1 .2 1.579q.049.841.054 1.742t-.017 1.852q-.022.95-.115 1.766t-.408 2.73q-.314 1.913-.345 2.167l-.033.268v.004l.002-.035.058-.825q.055-.778.382-3.192.326-2.414.481-3.407t.341-1.988a18 18 0 0 1 .484-1.967 13 13 0 0 1 .71-1.836 6.6 6.6 0 0 1 .908-1.442 3.8 3.8 0 0 1 1.045-.878 4 4 0 0 1 1.092-.414 1.87 1.87 0 0 1 .968.027 1.56 1.56 0 0 1 .748.55 3.3 3.3 0 0 1 .517 1.012 5.6 5.6 0 0 1 .25 1.346q.052.745.057 1.634t-.016 1.873q-.021.986-.159 2.734t-.144 3.228a18.5 18.5 0 0 0 .281 3.703M844.084 561.44a2 2 0 0 0-.748.046q-.186.06-.135.188a.5.5 0 0 0 .287.227 3 3 0 0 0 .596.167 10 10 0 0 0 1.265.1 7 7 0 0 0 1.348-.048 3 3 0 0 0 .87-.31 5.7 5.7 0 0 0 .91-.625 6.3 6.3 0 0 0 .914-.934 10.6 10.6 0 0 0 .826-1.198 13 13 0 0 0 .712-1.378 8 8 0 0 0 .466-1.35 6.4 6.4 0 0 0 .174-1.17 2.4 2.4 0 0 0-.169-1.025 2.3 2.3 0 0 0-.61-.858 5 5 0 0 0-.897-.646 4.8 4.8 0 0 0-.964-.412 3.5 3.5 0 0 0-.864-.156 1.3 1.3 0 0 0-.723.181 2.4 2.4 0 0 0-.664.61 6.3 6.3 0 0 0-.626.993q-.3.579-.596 1.3t-.583 1.583a14.5 14.5 0 0 0-.475 1.857q-.19.997-.289 2.119T844 562.96a14 14 0 0 0 .128 2.1 8.2 8.2 0 0 0 .463 1.806 9.7 9.7 0 0 0 .74 1.532 4.7 4.7 0 0 0 .853 1.082 2.8 2.8 0 0 0 .901.56 3.7 3.7 0 0 0 .95.21 2.45 2.45 0 0 0 1.034-.154 9.4 9.4 0 0 0 1.255-.574 16 16 0 0 0 1.53-.954 16 16 0 0 0 1.615-1.296 19.2 19.2 0 0 0 2.81-3.62M857.252 554.838a.5.5 0 0 0-.383.337 3 3 0 0 0-.167.621 9 9 0 0 0-.123 1.063q-.045.647-.06 1.55t-.017 4.367.009 3.87a2.3 2.3 0 0 0 .086.633.5.5 0 0 0 .194.294.21.21 0 0 0 .25-.028 3.7 3.7 0 0 0 .472-1.053q.342-.955.8-2.395t.784-2.32.698-1.736.834-1.708a18 18 0 0 1 1.048-1.684 13 13 0 0 1 1.107-1.39 8 8 0 0 1 .945-.885 2.5 2.5 0 0 1 .756-.426.61.61 0 0 1 .529.029 1.1 1.1 0 0 1 .341.56 7 7 0 0 1 .258 1.066 13 13 0 0 1 .154 1.4q.043.763.048 4.391a74 74 0 0 0 .218 7.54M874.05 547.77l-.2-.35q-.022-.038-.02.159t.009 1.007.152 2.752.213 3.14q.067 1.2.11 2.575t.048 2.655q.005 1.28-.01 2.431t-.136 2.881-.127 2.924-.006 1.266.002.055l.066-.598" class="c"/><path d="M870.183 555.23a8.7 8.7 0 0 0 1.624-.08q.426-.072 1.294-.312t1.801-.462q1.339-.318 6.669-1.468M908.32 555.425a5.5 5.5 0 0 0-1.504-.438 7 7 0 0 0-.88-.075 1.57 1.57 0 0 0-.875.374 4.6 4.6 0 0 0-.76.665 7 7 0 0 0-.494.668 9 9 0 0 0-.503.895 5.8 5.8 0 0 0-.42 1.183 9 9 0 0 0-.228 1.467q-.064.798-.07 1.706a9 9 0 0 0 .154 1.744 10 10 0 0 0 .458 1.63q.298.794.675 1.605a13 13 0 0 0 .75 1.404 7 7 0 0 0 .76 1.015 3.9 3.9 0 0 0 .807.683 1.95 1.95 0 0 0 .837.301 2.8 2.8 0 0 0 .943-.096 4.6 4.6 0 0 0 1.173-.522 8 8 0 0 0 1.28-.962 10.5 10.5 0 0 0 1.185-1.272 10.3 10.3 0 0 0 .978-1.487 7.5 7.5 0 0 0 .646-1.58 8 8 0 0 0 .273-1.637 15 15 0 0 0-.01-1.864 6.7 6.7 0 0 0-.475-2.058 9.6 9.6 0 0 0-1.024-1.93 10 10 0 0 0-1.288-1.533 4.9 4.9 0 0 0-1.254-.92 3.1 3.1 0 0 0-1.022-.312 2.1 2.1 0 0 0-.774.062.83.83 0 0 0-.506.423 4.4 4.4 0 0 0-.325 1.14 8.5 8.5 0 0 0 .208 3.214M921.469 553.944a16.4 16.4 0 0 0 .73-2.685 12 12 0 0 0 .18-1.868 4.2 4.2 0 0 0-.142-1.435 3.3 3.3 0 0 0-.47-.852 4.6 4.6 0 0 0-.745-.773 3.7 3.7 0 0 0-.9-.566 3.3 3.3 0 0 0-.935-.253 6 6 0 0 0-.942-.04 1.36 1.36 0 0 0-.83.31 3.2 3.2 0 0 0-.65.73 6 6 0 0 0-.54 1.05 7 7 0 0 0-.394 1.35q-.141.736-.225 1.626t-.114 1.887-.023 3.102.334 6.01.454 5.242.335 3.348.3 2.801.195 1.415.227 1.2.268 1.088.257.832q.16.436.414.079" class="c"/><path d="M914.075 566.454a1.69 1.69 0 0 1 .757-.967 6 6 0 0 1 .915-.572q.46-.228 1.157-.52t1.588-.622q1.302-.482 3.738-1.575M952.253 555.658a4 4 0 0 0-.942-.479 4.6 4.6 0 0 0-1.336-.25 3.1 3.1 0 0 0-1.208.114 2.5 2.5 0 0 0-.768.444 3.1 3.1 0 0 0-.51.526 2.2 2.2 0 0 0-.274.496 2.5 2.5 0 0 0-.142.56 4 4 0 0 0-.036.663 1.9 1.9 0 0 0 .237.811 5.4 5.4 0 0 0 .638.956q.407.5.912 1.013t1.079 1.056a15 15 0 0 0 1.142.98q.569.438.904.657t.983.553 1.672.785 1.517.731a3 3 0 0 1 .76.588 1.06 1.06 0 0 1 .202 1.249 3.4 3.4 0 0 1-.444.721 3.8 3.8 0 0 1-.648.656 4.3 4.3 0 0 1-.843.504 7 7 0 0 1-1.049.388 7 7 0 0 1-1.124.223 17 17 0 0 1-1.75.055 8.5 8.5 0 0 1-2.412-.374q-1.227-.368-1.773-.564t-.488-.217l.521-.18M962.11 556.372a.6.6 0 0 0-.12-.51 2 2 0 0 0-.503-.488q-.373-.28-.41.471t-.039 4.49.042 4.874.176 2.113a13 13 0 0 0 .343 1.738 4.8 4.8 0 0 0 .546 1.289 1.8 1.8 0 0 0 .742.71 2.05 2.05 0 0 0 .875.175 2.3 2.3 0 0 0 1.005-.284 3.6 3.6 0 0 0 .986-.76 6.5 6.5 0 0 0 .851-1.183 13 13 0 0 0 .77-1.596q.365-.895.668-1.787t.543-1.774.401-1.844a14 14 0 0 0 .194-1.955q.03-.993.02-1.928t-.083-1.613a8 8 0 0 0-.132-.933l-.071-.29q-.009-.035-.02.163l-.1 1.669q-.087 1.47-.104 2.949c-.017 1.479-.009 1.736.006 2.252a8 8 0 0 0 .174 1.468 8.5 8.5 0 0 0 .423 1.366 16.8 16.8 0 0 0 2.178 3.253M981.424 555.519a3.4 3.4 0 0 0-.818-.944 1.3 1.3 0 0 0-.692-.3 1.9 1.9 0 0 0-.565.01 2.4 2.4 0 0 0-.736.486 6 6 0 0 0-.805.77 6.4 6.4 0 0 0-.547.782 10 10 0 0 0-.54 1.057 10 10 0 0 0-.471 1.315 13 13 0 0 0-.33 1.537q-.125.828-.182 1.727t-.062 1.653a6 6 0 0 0 .144 1.399 5 5 0 0 0 .442 1.208 3.7 3.7 0 0 0 .684.946 3.5 3.5 0 0 0 .895.632 5.2 5.2 0 0 0 1.179.4 8 8 0 0 0 1.394.18 8.3 8.3 0 0 0 1.408-.061 4.9 4.9 0 0 0 1.326-.368 7.9 7.9 0 0 0 2.395-2.189M989.943 548.002q-.02 1.09.02 2.188.025.731.097 1.698t.138 2.053.105 2.184.044 2.362-.007 2.401a17.5 17.5 0 0 1-.15 2.173q-.14 1.034-.489 2.578a19 19 0 0 0-.4 2.148q-.053.604.05.614.101.009.265-.305a8 8 0 0 0 .378-.905q.213-.59.625-2.057t.849-3.19q.438-1.725.668-2.577t.508-1.707a9.4 9.4 0 0 1 .574-1.418 3.3 3.3 0 0 1 .628-.874 1.5 1.5 0 0 1 .702-.388 1.6 1.6 0 0 1 .743.018 2.1 2.1 0 0 1 .784.432 7 7 0 0 1 .846.836 8 8 0 0 1 .805 1.108 12 12 0 0 1 .706 1.367q.336.757.626 1.567a12 12 0 0 1 .446 1.53 12 12 0 0 1 .22 1.397q.091.974.023 4.647M1016.059 548.885v-.854 3.369q0 3.066.11 5.324t.198 3.556.176 2.323.204 1.852.266 1.525a9 9 0 0 0 .315 1.153 5.6 5.6 0 0 0 .357.8 2.7 2.7 0 0 0 .42.58 1.34 1.34 0 0 0 .812.296 1.45 1.45 0 0 0 .896-.121 4.96 4.96 0 0 0 1.147-2.1" class="c"/><path d="M1012.216 554.885a3.75 3.75 0 0 0 1.63.228 18 18 0 0 0 2.146-.1q.88-.105 1.804-.256 1.347-.218 4.119-.675M1025.954 545.778q.018-.313-.128-.4-.103-.06-.168.55t-.067 2.243q-.001 1.631.01 2.835t.055 2.548.087 2.793.056 2.782.017 3.539-.022 3.304-.024 1.531-.001.502.03-.02l.228-.647q.199-.562.377-1.167c.178-.605.31-1.122.573-2.159s.471-1.869.624-2.496.334-1.317.544-2.07a19 19 0 0 1 .753-2.176 13.4 13.4 0 0 1 1.015-1.963 11 11 0 0 1 1.25-1.638 3.8 3.8 0 0 1 1.204-.942 1.8 1.8 0 0 1 .899-.177.88.88 0 0 1 .627.446 3 3 0 0 1 .388 1.023 11 11 0 0 1 .19 1.442q.06.82.088 1.808t.03 2.042.03 2.126.071 2.123q.047 1.05.146 1.969t.223 1.814.264 1.705.297 1.369a3.1 3.1 0 0 0 .997 1.49M1042.099 561.297a2.55 2.55 0 0 0 .25 1.076.56.56 0 0 0 .45.31 1.3 1.3 0 0 0 .527-.034 1.6 1.6 0 0 0 .527-.32 7 7 0 0 0 .656-.637 8 8 0 0 0 .716-.924q.361-.538.7-1.151t.66-1.307a7 7 0 0 0 .46-1.284 7 7 0 0 0 .177-1.195 5.3 5.3 0 0 0-.066-1.203 2.3 2.3 0 0 0-.45-1.04 3.4 3.4 0 0 0-.775-.733 3.6 3.6 0 0 0-.857-.432 2.9 2.9 0 0 0-.8-.16.92.92 0 0 0-.658.228 3.2 3.2 0 0 0-.568.674 6 6 0 0 0-.521 1.01q-.237.58-.447 1.266t-.407 1.51q-.196.826-.322 1.758t-.171 1.968q-.046 1.036-.05 2.118a16 16 0 0 0 .112 2.005 14 14 0 0 0 .51 2.226q.395 1.304.538 1.631a5.4 5.4 0 0 0 .461.802 3.4 3.4 0 0 0 .734.8 2.8 2.8 0 0 0 1.002.49 5.4 5.4 0 0 0 1.317.177 6 6 0 0 0 1.167-.065 9 9 0 0 0 2.142-.938M1054.367 556.262a.48.48 0 0 0-.49-.452.47.47 0 0 0-.456.198 2.7 2.7 0 0 0-.299.617 8 8 0 0 0-.282 1.046 12 12 0 0 0-.204 1.35q-.064.697-.072 2.035t.073 2.3a12 12 0 0 0 .286 1.826 12 12 0 0 0 .519 1.649 9 9 0 0 0 .739 1.47 4 4 0 0 0 .922 1.065 3.1 3.1 0 0 0 1.08.537 5.6 5.6 0 0 0 1.223.182 2.7 2.7 0 0 0 1.179-.203 4.1 4.1 0 0 0 1.024-.638 7 7 0 0 0 .951-.984 8 8 0 0 0 .837-1.274 14 14 0 0 0 .665-1.44 9.4 9.4 0 0 0 .462-1.553 9.6 9.6 0 0 0 .196-1.636 8.2 8.2 0 0 0-.178-1.862 13.6 13.6 0 0 0-.658-2.212 17.5 17.5 0 0 0-.961-2.107 14 14 0 0 0-.956-1.537 6.4 6.4 0 0 0-.779-.91 1 1 0 0 0-.679-.304q-.346.001-.554.445a4.7 4.7 0 0 0-.406 1.338M1066.37 554.988a.376.376 0 0 0-.406.367 6 6 0 0 0-.045.944q.01.577.29 2.624t.387 3.091.181 2.694.077 2.515l.003.91v-1.538q0-1.432.012-3.91t.027-3.479a16 16 0 0 1 .13-1.867 9 9 0 0 1 .348-1.595 5.7 5.7 0 0 1 .617-1.324 2.9 2.9 0 0 1 .873-.911 3.6 3.6 0 0 1 1.063-.461 6.5 6.5 0 0 1 1.222-.186q.65-.04 1.226-.043a5 5 0 0 1 1.1.11 7.5 7.5 0 0 1 1.99.881M1078.201 562.75q-.018.385.266.274a3.4 3.4 0 0 0 .777-.657q.574-.576.931-1.009t.72-.952a12 12 0 0 0 .679-1.107 8.6 8.6 0 0 0 .521-1.147 6.3 6.3 0 0 0 .294-1.08 7 7 0 0 0 .098-1.014 2.1 2.1 0 0 0-.162-.894 2.7 2.7 0 0 0-.491-.753 4.7 4.7 0 0 0-.7-.634 2.7 2.7 0 0 0-.743-.4 2.8 2.8 0 0 0-.692-.145 1.7 1.7 0 0 0-.618.068 1.1 1.1 0 0 0-.526.39 4.2 4.2 0 0 0-.447.714 10 10 0 0 0-.415.956 11 11 0 0 0-.363 1.168q-.159.624-.281 1.383t-.215 1.651-.112 1.785-.012 1.75a8 8 0 0 0 .182 1.64 6.3 6.3 0 0 0 .457 1.376 5.3 5.3 0 0 0 .674 1.067 5.4 5.4 0 0 0 .872.85 3.5 3.5 0 0 0 1.052.564 4.5 4.5 0 0 0 1.221.22q.649.03 1.28-.002a3 3 0 0 0 1.138-.269 8.4 8.4 0 0 0 2.147-1.963M1091.557 555.116l.103-.747q.003-.023.006.083t.063 1.777.145 3.299.128 2.542.058 2.536.017 2.852v1.296l.001.045.002-.011.048-.657q.046-.622.207-2.006.162-1.384.273-2.155t.264-1.615.341-1.65.451-1.642q.263-.838.615-1.678a11 11 0 0 1 .735-1.472 8 8 0 0 1 .816-1.126 9 9 0 0 1 .882-.88 3.8 3.8 0 0 1 .797-.554 2.7 2.7 0 0 1 .842-.225q.492-.057.629.071a2.2 2.2 0 0 1 .335.784 8 8 0 0 1 .272 1.735q.072 1.08.076 5.055t-.07 5.247q-.073 1.272-.077 1.883t.14.477a4.2 4.2 0 0 0 .444-1.236q.301-1.101.792-3.342t.694-3.08.48-1.715a15 15 0 0 1 .64-1.685 7.4 7.4 0 0 1 .76-1.344 3.7 3.7 0 0 1 .795-.823 2.7 2.7 0 0 1 .768-.397.98.98 0 0 1 .6-.029.8.8 0 0 1 .406.42 3 3 0 0 1 .26.799 9 9 0 0 1 .129 1.076q.042.616.108 2.967t.204 3.853q.208 2.266.344 4.327M1117.226 554.729a2.6 2.6 0 0 0 .768-.802 1.07 1.07 0 0 0 .191-.554q-.006-.232-.467-.29a8 8 0 0 0-.921-.06 6.3 6.3 0 0 0-1.03.091 8 8 0 0 0-1.252.325q-.682.231-1.401.556a13 13 0 0 0-1.335.694 9 9 0 0 0-1.074.744 5.5 5.5 0 0 0-.773.762 1.7 1.7 0 0 0-.38.74 2.6 2.6 0 0 0-.039.68 1.3 1.3 0 0 0 .286.674 3.5 3.5 0 0 0 .715.684 8 8 0 0 0 1.06.652 13 13 0 0 0 1.349.6q.747.286 1.495.537t1.461.508q.715.258 1.342.54a12 12 0 0 1 1.096.552q.469.272.867.557a5.6 5.6 0 0 1 .704.592 2 2 0 0 1 .429.583 1.5 1.5 0 0 1 .134.557 1.2 1.2 0 0 1-.114.555 1.45 1.45 0 0 1-.396.497 3.8 3.8 0 0 1-.584.4 4.3 4.3 0 0 1-.662.297 6.3 6.3 0 0 1-1.462.174q-1.116.051-1.795.124a4.2 4.2 0 0 0-.934.17.84.84 0 0 0-.37.247q-.168.214.062 1.106M1126.28 567.628a1 1 0 0 1 .809.316 1.04 1.04 0 0 1 .296.399l.048.172.002.005-.006-.015-.203-.557" class="c"/></g></svg>