<svg xmlns="http://www.w3.org/2000/svg" viewBox="0 0 1190.88 841.68"><defs><clipPath id="a"><path d="M0 0h1190.88v841.68H0z" style="fill:none"/></clipPath><style>.c,.d,.e,.f,.g,.h,.i,.k,.l,.m,.o,.p{fill:none}.c,.l{stroke:#000}.c,.d,.e,.f,.g,.h,.i,.l,.m,.p{stroke-linecap:round;stroke-linejoin:round}.c,.d,.e,.f,.g{stroke-width:2.8346px}.d,.m,.o{stroke:#7ec636}.e,.i,.k{stroke:#007aff}.f,.p{stroke:#f59a23}.g,.h{stroke:#f65353}.h,.i,.k,.l,.m,.o,.p{stroke-width:4.0766px}.j{fill:#007aff}.j,.n{opacity:.1}.k,.o{stroke-miterlimit:10}.n{fill:#7ec636}</style></defs><g style="clip-path:url(#a)"><path d="M83.744 133.191a.3.3 0 0 0-.207.179 1 1 0 0 0-.102.341q-.022.184-.03.874t-.002 1.26.08 2.347.103 2.932q.028 1.155.049 3.502t.022 6.285-.058 3.84a2 2 0 0 1-.136-.68M84.47 138.656q-.2.104-.071.21a1.3 1.3 0 0 0 .414.17q.322.091.805.195t1.038.199 1.225.165 1.462.106q.791.035 1.488.039t1.358-.014 1.385-.073 1.309-.08 1.027-.03.856.024a10.5 10.5 0 0 1 1.871.416M99.786 132.732q-.18-.11-.195.355t.018.956.126 1.194.202 1.65.21 1.98.16 2.204.088 2.354.032 3.301-.015 3.028-.035 1.565-.025 1.686-.003 1.352a2.4 2.4 0 0 0 .055.522 1.4 1.4 0 0 0 .106.303q.056.104.112.115.08.014.385-.763M106.608 147.31a.34.34 0 0 0 .094.36 1.6 1.6 0 0 0 .329.235 3 3 0 0 0 .601.241 4 4 0 0 0 .924.142 6.5 6.5 0 0 0 1.19-.06 5.3 5.3 0 0 0 1.264-.335 5 5 0 0 0 1.112-.613 12 12 0 0 0 1.025-.855q.53-.489 1.063-1.085a10 10 0 0 0 .903-1.16 6.2 6.2 0 0 0 .587-1.104 7 7 0 0 0 .337-1.071 5.4 5.4 0 0 0 .14-1 3.2 3.2 0 0 0-.082-.876 2.4 2.4 0 0 0-.353-.781 3 3 0 0 0-.688-.704 5.5 5.5 0 0 0-1.006-.595 6.6 6.6 0 0 0-1.126-.411 3.4 3.4 0 0 0-.937-.13 1 1 0 0 0-.669.282 3.7 3.7 0 0 0-.58.75q-.294.479-.626 1.102t-.682 1.438-.675 1.787a16 16 0 0 0-.541 2.14 24 24 0 0 0-.321 2.51q-.104 1.34-.127 2.707t.07 2.482a10.4 10.4 0 0 0 .33 1.952 4.7 4.7 0 0 0 .614 1.385 3 3 0 0 0 .875.86 3.8 3.8 0 0 0 1.035.454 3.9 3.9 0 0 0 1.092.13 4.1 4.1 0 0 0 1.295-.288 14 14 0 0 0 1.544-.688q.804-.413 1.588-.901a32 32 0 0 0 3.205-2.426M124.323 138.079a1.2 1.2 0 0 0-.588.04 1 1 0 0 0-.074.443 6 6 0 0 0 .014.798q.033.405.322 2.04t.434 2.7q.145 1.067.254 2.218t.187 2.34q.078 1.188.124 2.094t.111 2.08q.065 1.174.1 1.425a1.2 1.2 0 0 0 .086.344.2.2 0 0 0 .108.107q.06.014.117-.162a3 3 0 0 0 .095-.557q.04-.38.066-.945t.035-1.24q.008-.676-.01-1.554t-.061-1.875-.056-1.98a14 14 0 0 1 .105-1.891 5.7 5.7 0 0 1 .418-1.597 3.7 3.7 0 0 1 .661-1.063 9 9 0 0 1 .696-.659q.338-.283.71-.552a6 6 0 0 1 .85-.508q.478-.239 1.078-.481t1.19-.484 1.246-.439 1.405-.351a13 13 0 0 1 1.36-.214 6.8 6.8 0 0 1 2.069.163M138.997 146.9a1.4 1.4 0 0 0-.26.484.9.9 0 0 0-.012.323.6.6 0 0 0 .193.346 1.1 1.1 0 0 0 .415.258 1.9 1.9 0 0 0 .587.098 2.4 2.4 0 0 0 .84-.17 5.2 5.2 0 0 0 1.066-.546 7 7 0 0 0 1.082-.87 8 8 0 0 0 .938-1.099 8 8 0 0 0 .685-1.125 8 8 0 0 0 .415-1 5 5 0 0 0 .213-.938 4 4 0 0 0 .021-.875 2.2 2.2 0 0 0-.277-.843 4.3 4.3 0 0 0-.608-.833 4 4 0 0 0-.779-.663 2.5 2.5 0 0 0-.846-.351 2.4 2.4 0 0 0-.86-.02 1.37 1.37 0 0 0-.783.456 4.2 4.2 0 0 0-.68 1.069 13 13 0 0 0-.592 1.536q-.273.855-.472 1.779t-.353 2.004q-.153 1.082-.237 2.29t-.057 2.284a9.5 9.5 0 0 0 .23 1.939 8 8 0 0 0 .512 1.527 2.92 2.92 0 0 0 1.882 1.684 9 9 0 0 0 1.446.34 11 11 0 0 0 1.159.13 8 8 0 0 0 1.225-.105q.837-.116 1.75-.334a30 30 0 0 0 3.632-1.207M176.028 132.507q-.116.044-.138.32t-.024 2.675-.056 3.575-.15 2.404-.204 2.53-.205 2.505-.133 2.429-.041 2.359a19 19 0 0 0 .09 2.013 14 14 0 0 0 .255 1.576 6.2 6.2 0 0 0 .387 1.19 2.33 2.33 0 0 0 1.332 1.289 3.5 3.5 0 0 0 1.009.244 2.3 2.3 0 0 0 1.015-.122 2.9 2.9 0 0 0 .92-.576q.448-.403.967-.968a15 15 0 0 0 1.914-3.157" class="c"/><path d="M171.022 141.13a.47.47 0 0 1-.257-.105q-.033-.043.475-.151t1.113-.244 1.495-.345 1.87-.497l2.1-.62q1.12-.33 2.112-.637 1.435-.445 5.545-1.484M189.6 131.374q-.248-.15-.319.045a1.7 1.7 0 0 0-.068.45q-.017.31-.002.854a10 10 0 0 0 .146 1.337q.13.79.31 1.77t.343 2.031q.163 1.053.246 2.175t.086 2.363a21 21 0 0 1-.147 2.51q-.151 1.268-.355 2.484t-.37 2.382-.287 2.003-.192 1.468-.088 1.345a3.7 3.7 0 0 0 .02.794.086.086 0 0 0 .126.045q.088-.036.214-.33a8 8 0 0 0 .296-.866q.168-.572.375-1.417t.432-1.89q.226-1.044.477-2.278t.56-2.562a19 19 0 0 1 .747-2.474 8.4 8.4 0 0 1 1.124-2.057 9.3 9.3 0 0 1 1.395-1.514 9.7 9.7 0 0 1 1.26-.927 7 7 0 0 1 1.13-.545 5 5 0 0 1 1.139-.29 2.3 2.3 0 0 1 .92.033 1.05 1.05 0 0 1 .582.416 2.1 2.1 0 0 1 .322.74 6 6 0 0 1 .132 1.08q.03.652.034 1.55t-.035 1.926q-.038 1.027-.142 2.242t-.192 2.469-.113 2.252-.03 1.86a9 9 0 0 0 .115 1.55 2.9 2.9 0 0 0 .347 1.044 1.9 1.9 0 0 0 .585.584 2.4 2.4 0 0 0 .866.317 3.3 3.3 0 0 0 1.019.02 4.3 4.3 0 0 0 1.932-1.148M206.586 147.33a.95.95 0 0 1 .32.31q.181.25.261.344a2 2 0 0 0 .272.243 1.4 1.4 0 0 0 .452.225 2 2 0 0 0 .636.062 2.5 2.5 0 0 0 .871-.229 5.2 5.2 0 0 0 1.012-.6 5.7 5.7 0 0 0 .971-.924 8 8 0 0 0 .834-1.215 10.5 10.5 0 0 0 .624-1.288 8 8 0 0 0 .363-1.14 4.4 4.4 0 0 0 .115-1.02 2.1 2.1 0 0 0-.25-.961 4 4 0 0 0-.594-.852 4.2 4.2 0 0 0-.706-.632 1.75 1.75 0 0 0-.696-.308 2 2 0 0 0-.71.014 2.3 2.3 0 0 0-.8.353 3.8 3.8 0 0 0-.839.789 7.4 7.4 0 0 0-.787 1.23 11.5 11.5 0 0 0-.647 1.487q-.272.765-.532 1.735t-.537 2.206q-.277 1.235-.44 2.505a20 20 0 0 0-.167 2.458 7.6 7.6 0 0 0 .28 2.155 4 4 0 0 0 .712 1.472 4.2 4.2 0 0 0 .912.818 3.8 3.8 0 0 0 1.15.479 5.5 5.5 0 0 0 1.477.142 6.6 6.6 0 0 0 1.252-.126q.442-.104 1.884-.631a19 19 0 0 0 2.318-.99q.877-.463 1.844-1.072a13.2 13.2 0 0 0 2.714-2.31M222.08 139.812a3.4 3.4 0 0 0-.73-.097.32.32 0 0 0-.27.177 1.7 1.7 0 0 0-.153.325 1.4 1.4 0 0 0-.067.334q-.015.182-.017.97t.103 2.49.161 2.695.086 2.007q.028 1.011.041 1.893t.038 1.625.037 1.318a8 8 0 0 0 .053.864 1.3 1.3 0 0 0 .116.421.43.43 0 0 0 .167.182.15.15 0 0 0 .186-.049 1.3 1.3 0 0 0 .208-.446q.114-.35.26-.994t.287-1.462q.143-.818.264-1.867t.233-2.265.274-2.444a18 18 0 0 1 .44-2.278 7.7 7.7 0 0 1 .718-1.83 3.8 3.8 0 0 1 .97-1.182 6.3 6.3 0 0 1 1.488-.778 9 9 0 0 1 1.43-.463 7 7 0 0 1 1.105-.103 5.5 5.5 0 0 1 1.227.107 2.14 2.14 0 0 1 .986.458 2.8 2.8 0 0 1 .667.873 6.3 6.3 0 0 1 .468 1.299 11 11 0 0 1 .28 1.65q.087.886.09 2.019a16 16 0 0 1-.158 2.29q-.16 1.158-.35 2.246t-.327 1.98a16 16 0 0 0-.171 1.594 4.6 4.6 0 0 0 .051 1.12 1.53 1.53 0 0 0 .312.687q.324.387 1.628.281M256.983 140.408a1 1 0 0 0-.312-.176.55.55 0 0 0-.218-.036q-.102.006-.179.153a1.6 1.6 0 0 0-.128.406 8 8 0 0 0-.063 1.091 13 13 0 0 0 .05 1.462q.062.628.13 1.44t.112 1.77q.045.958.066 2.031t.05 2.063.122 1.893a13 13 0 0 0 .281 1.697 5 5 0 0 0 .486 1.315 2.9 2.9 0 0 0 .694.842 3.3 3.3 0 0 0 .8.486 2.4 2.4 0 0 0 .748.189 3.2 3.2 0 0 0 1.625-.766M258.89 134.738a2.1 2.1 0 0 0-.45.484q-.194.281.141 1.466M274.618 142.71a3 3 0 0 0 .107-.536 3.6 3.6 0 0 0-.017-.61 1.57 1.57 0 0 0-.335-.817 3.2 3.2 0 0 0-.802-.724 6.6 6.6 0 0 0-1.061-.563 9 9 0 0 0-1.133-.386 7 7 0 0 0-1.273-.2 8.4 8.4 0 0 0-1.32.008 3.5 3.5 0 0 0-1.092.262 6.6 6.6 0 0 0-.895.48q-.426.27-.83.59a5.6 5.6 0 0 0-.734.69 3.5 3.5 0 0 0-.537.8 2.7 2.7 0 0 0-.255.85 2.6 2.6 0 0 0 .04.84 1.96 1.96 0 0 0 .445.838 5 5 0 0 0 .948.837q.594.417 1.26.817a14 14 0 0 0 1.476.763q.809.363 1.676.678t1.74.732q.872.417 1.723.872a11.4 11.4 0 0 1 1.41.87 4.3 4.3 0 0 1 .842.785 2.5 2.5 0 0 1 .397.71 2 2 0 0 1 .111.648 1.5 1.5 0 0 1-.157.634 5 5 0 0 1-.388.666 4.4 4.4 0 0 1-.523.63 3 3 0 0 1-.7.51 4 4 0 0 1-.961.353 7 7 0 0 1-1.105.175q-.552.04-1.12.045t-1.136-.023-1.156-.075-1.076-.102a5 5 0 0 1-.755-.128 1.2 1.2 0 0 1-.416-.191q-.214-.17-.223-.96M303.317 140.014a1.05 1.05 0 0 0-.452-.249q-.148-.032-.204.208a3.5 3.5 0 0 0-.057.724q0 .486.007.872t.112 1.455q.105 1.068.188 1.799t.21 1.613.3 1.964.37 2.091.449 1.919a15 15 0 0 0 .552 1.639 3.2 3.2 0 0 0 .59 1.017 1.4 1.4 0 0 0 .571.37 1.3 1.3 0 0 0 .57.037 1.4 1.4 0 0 0 .631-.309 9 9 0 0 0 .81-.735 12 12 0 0 0 1.018-1.185 11.3 11.3 0 0 0 .972-1.498 12.4 12.4 0 0 0 .766-1.743q.342-.96.671-2.04a21 21 0 0 0 .53-2.102 15 15 0 0 0 .26-1.958 12 12 0 0 0-.012-1.782 9 9 0 0 0-.336-1.755q-.263-.908-.29-.989l-.039-.112q-.01-.031-.036.06l-.09.325q-.066.233-.155.69t-.154 1.027-.082 1.242-.019 1.492q-.001.821.048 1.68t.182 1.867q.133 1.006.348 2.14a15 15 0 0 0 .475 1.92 4.8 4.8 0 0 0 .621 1.286 2.3 2.3 0 0 0 .754.714 1.18 1.18 0 0 0 .738.16 1.4 1.4 0 0 0 .676-.312 7 7 0 0 0 .687-.64 8 8 0 0 0 .67-.818 6 6 0 0 0 .557-.97 5.7 5.7 0 0 0 .386-1.192 8 8 0 0 0 .166-1.36 10 10 0 0 0-.062-1.471 9.3 9.3 0 0 0-.38-1.711 16 16 0 0 0-.707-1.847q-.413-.91-.762-1.715a6.1 6.1 0 0 1-.558-2.233M322.218 133.73a.44.44 0 0 0-.247-.124.22.22 0 0 0-.177.051.55.55 0 0 0-.136.29 3.2 3.2 0 0 0-.07.593q-.015.37-.017.981t.065 1.573q.067.96.135 2.045t.097 2.348q.03 1.265.033 2.654t-.037 2.623-.104 2.395-.105 2.084-.046 1.454a9 9 0 0 0 .03.882 1 1 0 0 0 .139.486.204.204 0 0 0 .237.093q.133-.043.29-.36a17 17 0 0 0 .576-1.59l.72-2.191q.302-.92.707-1.95.403-1.032.856-2.033t.928-1.912a13 13 0 0 1 .997-1.627 4.8 4.8 0 0 1 1.09-1.118 4 4 0 0 1 1.106-.564 3.2 3.2 0 0 1 .93-.163.82.82 0 0 1 .646.291 2.7 2.7 0 0 1 .449.79 7.5 7.5 0 0 1 .34 1.151 14 14 0 0 1 .23 1.438q.088.786.18 1.736t.174 2.033.173 2.13.233 1.989a13 13 0 0 0 1.322 3.606M345.465 143.76a.36.36 0 0 0 .334-.14.7.7 0 0 0 .084-.33 3 3 0 0 0-.002-.425 2.2 2.2 0 0 0-.101-.469 3.6 3.6 0 0 0-.235-.56 2.8 2.8 0 0 0-.398-.57 3.5 3.5 0 0 0-.624-.544 4.5 4.5 0 0 0-.802-.445 4.7 4.7 0 0 0-.89-.278 6.5 6.5 0 0 0-.976-.123 3.5 3.5 0 0 0-.967.077 2.2 2.2 0 0 0-.882.455 4 4 0 0 0-.813.934 6 6 0 0 0-.622 1.232 10 10 0 0 0-.403 1.441q-.162.791-.268 1.808t-.144 2.142-.043 2.332.07 2.35a14 14 0 0 0 .257 2 6.6 6.6 0 0 0 .444 1.406 2.4 2.4 0 0 0 .63.85 1.7 1.7 0 0 0 .903.358 3.2 3.2 0 0 0 1.172-.115 4 4 0 0 0 1.22-.57 9 9 0 0 0 1.154-.94q.572-.543 1.175-1.227a11 11 0 0 0 1.086-1.463 8.3 8.3 0 0 0 .757-1.526 9 9 0 0 0 .416-1.565 13 13 0 0 0 .18-1.683 10 10 0 0 0-.065-1.682q-.102-.818-.219-1.52t-.169-1.137l-.055-.462q-.004-.026-.004-.006v.355q0 .334-.023.796t-.04 1.061q-.019.599-.026 1.257t-.008 1.356q0 .697.026 1.508t.108 1.698q.081.886.223 1.696a8.6 8.6 0 0 0 .373 1.448 3.4 3.4 0 0 0 1.503 1.663M355.647 134.798a.35.35 0 0 0-.216-.18.17.17 0 0 0-.169.079.9.9 0 0 0-.134.381 6 6 0 0 0-.08.737q-.028.453-.042 1.174t-.014 3.996-.048 4.572-.083 2.534-.042 2.331.052 1.914a11 11 0 0 0 .207 1.537 7 7 0 0 0 .372 1.248 2.3 2.3 0 0 0 .526.812 1.9 1.9 0 0 0 .716.411 3.2 3.2 0 0 0 .835.148 1.57 1.57 0 0 0 .793-.17 3 3 0 0 0 .726-.547q.36-.359.78-.86a16.7 16.7 0 0 0 1.645-2.709" class="c"/><path d="M351.896 140.382a.93.93 0 0 0-.592.203.31.31 0 0 0-.078.281q.03.168.333.32a2.4 2.4 0 0 0 .819.205q.517.054 1.13.06a14 14 0 0 0 1.427-.072q.814-.077 1.794-.241 1.416-.238 5.288-1.001M386.527 134.53v-.908l-.002.012-.03.428q-.028.402-.047.846t-.03 1.019-.014 1.325.004 1.736.088 3.31.132 3.52q.048 1.197.109 2.26t.157 2.096q.095 1.033.238 1.952a13.5 13.5 0 0 0 .363 1.675 5.6 5.6 0 0 0 .525 1.274 2.8 2.8 0 0 0 .711.82 2.4 2.4 0 0 0 .83.413 3.7 3.7 0 0 0 .803.12 1.6 1.6 0 0 0 .726-.151 2.6 2.6 0 0 0 .698-.497 12.4 12.4 0 0 0 1.612-2.817" class="c"/><path d="M382.226 140.555a3.4 3.4 0 0 0-.53.013.144.144 0 0 0-.138.124q-.018.107.196.207a1.8 1.8 0 0 0 .604.133q.39.032 1.008.035t1.36-.063q.744-.067 1.604-.201t1.927-.299q1.575-.243 3.749-.695M399.108 132.9a.4.4 0 0 0-.28.002q-.053.033-.07.255t-.017.662a9 9 0 0 0 .093 1.16q.095.72.221 1.825t.202 2.433.069 2.652-.128 2.695q-.124 1.37-.4 3.851t-.384 3.352-.197 1.629-.143 1.274q-.052.516-.072 1.097t.054.607.186-.178a4 4 0 0 0 .258-.66q.144-.456.31-1.138t.387-1.588.54-2.008.725-2.156.897-2.08 1.086-2.018a8.5 8.5 0 0 1 1.235-1.632 10.3 10.3 0 0 1 1.322-1.125q.682-.483 1.257-.9a10 10 0 0 1 .99-.647 2.8 2.8 0 0 1 .87-.311 2.5 2.5 0 0 1 .901.002 1.22 1.22 0 0 1 .73.413 2.2 2.2 0 0 1 .43.93 7.7 7.7 0 0 1 .189 1.4q.042.802.047 1.76t-.029 2.04q-.033 1.085-.048 2.239t-.018 2.18q-.001 1.025.06 1.966t.152 1.716a7.3 7.3 0 0 0 .243 1.27 2.9 2.9 0 0 0 .409.849 2 2 0 0 0 .632.565q.54.305 2.21-.304M419.085 148.196a3 3 0 0 1-.26.455.9.9 0 0 0-.14.329 1 1 0 0 0-.023.346.31.31 0 0 0 .176.24 1 1 0 0 0 .43.102 1.9 1.9 0 0 0 .633-.096 4 4 0 0 0 .816-.373 8 8 0 0 0 .975-.679 8.3 8.3 0 0 0 .966-.91 13 13 0 0 0 .875-1.092q.43-.596.858-1.293t.593-1.029a4.6 4.6 0 0 0 .303-.873 3.2 3.2 0 0 0 .092-1.093 2.6 2.6 0 0 0-.403-1.136 5 5 0 0 0-.63-.867 6 6 0 0 0-.56-.507 5.5 5.5 0 0 0-.776-.487 3.2 3.2 0 0 0-.963-.345 1.4 1.4 0 0 0-.934.167 4.2 4.2 0 0 0-.951.737 9 9 0 0 0-.78.867 6 6 0 0 0-.49.746q-.202.368-.53 1.13t-.509 1.23-.507 1.492-.463 1.601-.236 1.138a15 15 0 0 0-.153 1.633q-.055 1.072-.038 1.61a4.5 4.5 0 0 0 .142 1.005 3.8 3.8 0 0 0 .303.804 5.4 5.4 0 0 0 .622.862 5.6 5.6 0 0 0 .971.914 5 5 0 0 0 1.25.65 5.3 5.3 0 0 0 1.552.304 9 9 0 0 0 1.666-.07 15 15 0 0 0 1.761-.354 10 10 0 0 0 1.347-.42 4.5 4.5 0 0 0 .73-.389 15 15 0 0 0 1.938-2.046M463.019 134.32a.8.8 0 0 0-.314-.285q-.248-.147-.384-.25a.9.9 0 0 1-.24-.278 3 3 0 0 1-.203-.436q-.1-.258-.238-.58a6 6 0 0 0-.319-.627 2.4 2.4 0 0 0-.477-.57 2.7 2.7 0 0 0-.717-.448 2.5 2.5 0 0 0-.812-.213 1.36 1.36 0 0 0-.723.135 1.64 1.64 0 0 0-.587.518 2.8 2.8 0 0 0-.404.855 9 9 0 0 0-.251 1.197q-.103.693-.18 1.527t-.097 1.79-.022 2.111.026 2.574.092 2.742.155 2.693.177 2.811.156 2.76.144 2.5.148 2.227.155 1.86.166 1.482.178 1.238a10 10 0 0 0 .26 1.149l.176.615.003.014-.01-.04q-.026-.086-.596-2.054" class="c"/><path d="M453.818 150.734q.119-.552.362-.66a1.8 1.8 0 0 1 .536-.104q.368-.03.958-.11a8.5 8.5 0 0 0 1.255-.278 12 12 0 0 0 1.347-.492q.983-.426 3.836-1.706M468.997 139.768a1.3 1.3 0 0 0-.557-.19.36.36 0 0 0-.303.098.63.63 0 0 0-.14.385q-.028.27-.03.692t.007 1.024.057 1.254.1 1.46q.054.808.105 1.804t.094 2.007.098 2.044.166 2.004q.112.97.246 1.69a12 12 0 0 0 .286 1.225 3.4 3.4 0 0 0 .329.788.7.7 0 0 0 .355.336.56.56 0 0 0 .405-.06 1.8 1.8 0 0 0 .52-.46 12.6 12.6 0 0 0 1.312-2.581M470.08 134.237a1.08 1.08 0 0 0-.708.102q-.156.137.045.612M478.536 132.988a6.2 6.2 0 0 0-.334 1.545q-.047.538-.075 1.289t-.046 1.765-.03 2.031-.032 2.23-.044 2.57-.037 2.581-.015 2.46.043 2.267a18 18 0 0 0 .17 1.88 7.3 7.3 0 0 0 .353 1.45 3.4 3.4 0 0 0 .555 1 1.9 1.9 0 0 0 .757.567 2.7 2.7 0 0 0 .911.191 4.54 4.54 0 0 0 2.298-1.29M489.128 132.778a1.1 1.1 0 0 0-.735.073.75.75 0 0 0-.3.413 3 3 0 0 0-.158.767q-.045.46-.044 1.014t.142 1.993.204 2.255.13 1.843.163 3.116.162 3.132q.067 1.041.145 1.927t.192 1.729.209 1.575a11 11 0 0 0 .217 1.212 4 4 0 0 0 .273.78 1.1 1.1 0 0 0 .35.436.6.6 0 0 0 .437.1q.34-.052 1.134-1.12" class="c"/><path d="M485.353 139.644a2.4 2.4 0 0 0-.773.01.3.3 0 0 0-.233.17.2.2 0 0 0 .076.236.9.9 0 0 0 .459.146 7 7 0 0 0 .87.032 7 7 0 0 0 1.286-.159q.75-.152 1.64-.418t1.98-.612q1.094-.344 2.078-.68 1.456-.496 3.422-1.172M500.359 147.579a3.7 3.7 0 0 0-.06.608.38.38 0 0 0 .122.26 1 1 0 0 0 .312.206 1.2 1.2 0 0 0 .421.093 1.4 1.4 0 0 0 .494-.08 2.1 2.1 0 0 0 .603-.344q.334-.255.546-.447t.623-.62a10 10 0 0 0 .808-.957 9 9 0 0 0 .727-1.14q.329-.61.485-.974a5 5 0 0 0 .232-.644 4.4 4.4 0 0 0 .118-.769q.041-.487.045-.753a2.1 2.1 0 0 0-.05-.505 2.7 2.7 0 0 0-.271-.642 2.2 2.2 0 0 0-.585-.69 2.4 2.4 0 0 0-.794-.416 2.8 2.8 0 0 0-.855-.125 1.3 1.3 0 0 0-.79.278 2.7 2.7 0 0 0-.668.81q-.308.536-.502.93t-.49 1.116-.472 1.183-.477 1.437-.555 2.132a17 17 0 0 0-.34 2.352q-.087 1.193-.095 1.804a8 8 0 0 0 .057 1.12 6.2 6.2 0 0 0 .351 1.285 4.7 4.7 0 0 0 .509 1.079 2.6 2.6 0 0 0 .48.503 5 5 0 0 0 .779.464 3.7 3.7 0 0 0 .795.32 3 3 0 0 0 .576.065 10 10 0 0 0 1.079-.077 9.6 9.6 0 0 0 1.63-.326 13 13 0 0 0 1.657-.598 17.6 17.6 0 0 0 3.167-2.017M513.659 141.753a.65.65 0 0 0-.386-.281q-.122-.014-.166.18a3 3 0 0 0-.044.6q-.001.405.027.815t.105 1.015.156 1.431.154 1.712.138 1.853.109 1.856.079 1.86.058 1.46.049.738a1.1 1.1 0 0 0 .071.348q.048.097.13-.06a1.5 1.5 0 0 0 .112-.503q.032-.346.046-.9t.015-1.185-.01-1.37-.028-1.61q-.019-.873-.02-1.654a10 10 0 0 1 .11-1.528 7.8 7.8 0 0 1 .38-1.488 4.8 4.8 0 0 1 .672-1.277 7.4 7.4 0 0 1 .926-1.01q.52-.473 1.012-.956t.933-.894a5 5 0 0 1 .98-.709 5.7 5.7 0 0 1 1.155-.479 8 8 0 0 1 1.12-.254 10 10 0 0 1 1.02-.092q.519-.02 1.129-.01a7 7 0 0 1 2.141.454M527.89 148.496a3.6 3.6 0 0 1 .37.404 1.5 1.5 0 0 0 .415.371 1.3 1.3 0 0 0 .493.161 1.7 1.7 0 0 0 .607-.044 2.9 2.9 0 0 0 .801-.368q.467-.288 1.01-.69t1.084-.89a7 7 0 0 0 .984-1.105 6 6 0 0 0 .693-1.234q.25-.616.415-1.163a5.5 5.5 0 0 0 .215-1.07 3.6 3.6 0 0 0-.045-1.018 3.3 3.3 0 0 0-.378-.995 5.5 5.5 0 0 0-.64-.91 2.2 2.2 0 0 0-.738-.578 2.3 2.3 0 0 0-.804-.192 2 2 0 0 0-.879.172 2.6 2.6 0 0 0-.824.559 4 4 0 0 0-.678.938 13 13 0 0 0-.597 1.29q-.29.717-.523 1.442t-.447 1.602a18 18 0 0 0-.347 1.908 13 13 0 0 0-.114 1.99 6.2 6.2 0 0 0 .273 1.757 5.3 5.3 0 0 0 .647 1.382 4.4 4.4 0 0 0 .856.96 4.1 4.1 0 0 0 1.123.63 7 7 0 0 0 1.495.382 12 12 0 0 0 1.61.14 24.4 24.4 0 0 0 4.33-.654M551.573 143.76a1.7 1.7 0 0 0-.06-.8q-.087-.323-.16-.53a3.6 3.6 0 0 0-.263-.54 5 5 0 0 0-.531-.732 3.8 3.8 0 0 0-.607-.592 2.2 2.2 0 0 0-.424-.257 2.4 2.4 0 0 0-.51-.116 7 7 0 0 0-.777-.062 2.3 2.3 0 0 0-.84.133 3.8 3.8 0 0 0-.799.388 3.7 3.7 0 0 0-.715.603 10 10 0 0 0-.64.77q-.307.41-.655.863t-.578.745-.409.544a6.4 6.4 0 0 0-.463.843 9 9 0 0 0-.503 1.302 11 11 0 0 0-.342 1.487 12 12 0 0 0-.14 1.567q-.018.792.018 1.502a6.3 6.3 0 0 0 .192 1.291 5.4 5.4 0 0 0 .277.84 4 4 0 0 0 .268.48 4 4 0 0 0 .522.59 3.2 3.2 0 0 0 .62.506 3 3 0 0 0 .498.223 4.4 4.4 0 0 0 .735.157 6 6 0 0 0 1.072.05 4.8 4.8 0 0 0 1.283-.241 8 8 0 0 0 1.388-.6 11.9 11.9 0 0 0 2.512-2.086M553.22 133.577a.95.95 0 0 0-.418.433 4 4 0 0 0-.296.711 7.6 7.6 0 0 0-.231 1.176 14 14 0 0 0-.129 1.469q-.02.686-.018 1.358t.132 2.357.208 2.62.166 2.018q.087 1.083.15 2.012t.115 1.877.106 1.814.134 1.521.197 1.214a7.5 7.5 0 0 0 .276.992 4 4 0 0 0 .312.691 1.9 1.9 0 0 0 .344.427 1.5 1.5 0 0 0 .446.272 1.7 1.7 0 0 0 .58.111 2.9 2.9 0 0 0 .727-.084 5.5 5.5 0 0 0 1.874-1.325M590.869 141.664a2.2 2.2 0 0 0-.519-.68 3 3 0 0 0-.471-.327q-.262-.146-.578-.301a4 4 0 0 0-.643-.254 4 4 0 0 0-.684-.137 3.6 3.6 0 0 0-.732-.004 1.35 1.35 0 0 0-.67.246 2.8 2.8 0 0 0-.59.6q-.296.39-.689.955t-.804 1.19a13 13 0 0 0-.805 1.425 12.6 12.6 0 0 0-.71 1.813 14 14 0 0 0-.471 2.026 18 18 0 0 0-.193 2.062q-.038 1.051-.008 2.032a8 8 0 0 0 .221 1.738 4.1 4.1 0 0 0 .568 1.308 2.9 2.9 0 0 0 1.01.902 3.8 3.8 0 0 0 1.34.448 9 9 0 0 0 1.478.079 11 11 0 0 0 1.803-.216 20 20 0 0 0 4.045-1.425M599.406 141.578a2 2 0 0 0-.855.063 1.02 1.02 0 0 0-.523.383 3.2 3.2 0 0 0-.409.736 7.5 7.5 0 0 0-.32.983 10 10 0 0 0-.227 1.2q-.086.652-.112 1.37t-.016 1.45a12 12 0 0 0 .126 1.525q.117.794.29 1.565t.387 1.475a12 12 0 0 0 .463 1.281 5 5 0 0 0 .625 1.073 2.89 2.89 0 0 0 2.134 1.148 6.05 6.05 0 0 0 2.627-.36 7.5 7.5 0 0 0 1.358-.659 4.8 4.8 0 0 0 1.211-1.054 7.6 7.6 0 0 0 .913-1.384 9 9 0 0 0 .61-1.5 9 9 0 0 0 .323-1.648 6.8 6.8 0 0 0-.035-1.74 8.5 8.5 0 0 0-.549-1.889 23 23 0 0 0-1.048-2.21 13.4 13.4 0 0 0-1.383-2.104 10 10 0 0 0-1.392-1.45 5 5 0 0 0-1.003-.677q-.364-.158-.485-.062a1 1 0 0 0-.237.346q-.17.363-.607 1.243M612.22 142.55q-.022 1.169.027 1.892.033.492.235 1.816t.282 2.008q.079.686.126 1.43t.061 1.456q.016.711.017 1.245t-.008 1.035q-.011.5-.042 1.145t-.062.836q-.03.193-.038.16l-.043-.166q-.034-.133-.1-.891c-.066-.758-.088-.954-.131-1.345s-.09-.822-.139-1.292-.09-.953-.126-1.448-.062-1.002-.08-1.524-.027-1.074-.028-1.655a11 11 0 0 1 .117-1.68 7.5 7.5 0 0 1 .379-1.502 9 9 0 0 1 .601-1.307q.344-.611.662-1.085t.63-.913a6.6 6.6 0 0 1 .7-.829 3.2 3.2 0 0 1 .822-.609 3.4 3.4 0 0 1 .913-.307 3.7 3.7 0 0 1 .9-.063 1.1 1.1 0 0 1 .681.251 2.3 2.3 0 0 1 .475.595 7 7 0 0 1 .427.885q.21.517.394 1.066t.35 1.135.335 1.287a14 14 0 0 1 .268 1.486q.102.786.145 1.64t.053 1.783-.012 1.715-.14 1.886q-.12 1.1-.132 1.524t.044.438q.056.013.172-.248t.279-.756.345-1.115.342-1.312.41-2.07.455-2.368a19 19 0 0 1 .526-2.012 11 11 0 0 1 .57-1.504 8 8 0 0 1 1.67-2.08q.438-.364.767-.59a4 4 0 0 1 .601-.35 1.6 1.6 0 0 1 .534-.14.8.8 0 0 1 .51.152 1.5 1.5 0 0 1 .457.573 3.4 3.4 0 0 1 .31.985 10 10 0 0 1 .127 1.303q.028.72.03 3.27t.023 3.486.064 1.37.144 1.047a11 11 0 0 0 .266 1.182 6 6 0 0 0 .262.79 2.5 2.5 0 0 0 .562.715M635.6 140.43q-.052-.192-.064-.157l-.044.125a10 10 0 0 0-.032 1.249q.003 1.149.076 1.949t.147 1.83q.073 1.03.121 2.126t.064 2.324.016 2.488-.037 2.4q-.038 1.137-.088 2.211t-.098 2.01-.077 1.67-.035 1.378q-.008.643-.004 1.127a3 3 0 0 0 .1.8 1.33 1.33 0 0 0 .663.764" class="c"/><path d="M634.9 141.308q.015-.86.057-1.221a.9.9 0 0 1 .14-.414 1.3 1.3 0 0 1 .338-.321 3.6 3.6 0 0 1 .618-.323 5 5 0 0 1 .915-.277 9 9 0 0 1 1.113-.156 13 13 0 0 1 1.33-.023 7 7 0 0 1 1.565.244 7.2 7.2 0 0 1 2.35.992 9 9 0 0 1 1.325.964 8 8 0 0 1 .93.918 5 5 0 0 1 .5.746 5.6 5.6 0 0 1 .407 1.186 6.6 6.6 0 0 1 .191 1.715 9 9 0 0 1-.215 1.83 18 18 0 0 1-.542 1.91 11 11 0 0 1-.8 1.804 13 13 0 0 1-1.015 1.543q-.553.724-1.094 1.443a10 10 0 0 1-.942 1.106 4 4 0 0 1-.668.548 3 3 0 0 1-.545.26 3.8 3.8 0 0 1-.823.16q-.546.06-.784.062a1.2 1.2 0 0 1-.558-.173 2.8 2.8 0 0 1-.473-.308 5.2 5.2 0 0 1-.782-.982 2.3 2.3 0 0 1-.17-.398 7 7 0 0 1-.073-1.555M655.336 133.008a1.3 1.3 0 0 0-.363.078.8.8 0 0 0-.227.218 1.7 1.7 0 0 0-.263.574 7 7 0 0 0-.171.694q-.056.303-.256 1.8t-.343 2.548-.297 2.256-.27 2.336-.162 2.34-.05 2.368a20 20 0 0 0 .09 2.09 11 11 0 0 0 .288 1.667 12 12 0 0 0 .46 1.402 5.3 5.3 0 0 0 .57 1.095 2.5 2.5 0 0 0 .715.685 2.6 2.6 0 0 0 1.04.342 10.6 10.6 0 0 0 3.205-.392M662.303 149.464a.54.54 0 0 0 .376.13 4.2 4.2 0 0 0 .823-.613q.712-.597 1.347-1.178a17 17 0 0 0 1.28-1.315q.644-.734 1.183-1.455t.937-1.352a4.4 4.4 0 0 0 .557-1.248 3.15 3.15 0 0 0 .061-1.258 3.4 3.4 0 0 0-.447-1.238 4.1 4.1 0 0 0-.758-.966 2.9 2.9 0 0 0-.768-.527 1.1 1.1 0 0 0-1.33.25q-.332.312-.767.784t-.924 1.122a9.4 9.4 0 0 0-.86 1.38 13 13 0 0 0-.673 1.568q-.3.839-.61 1.94t-.568 2.26a22 22 0 0 0-.39 2.32 14.5 14.5 0 0 0-.095 2.141 4.6 4.6 0 0 0 .323 1.651 4 4 0 0 0 1.574 1.875 9.9 9.9 0 0 0 3.552.641M674.76 140.032a6 6 0 0 1 .33-.539 1.4 1.4 0 0 1 .267-.288 1.2 1.2 0 0 1 .406-.208 2.3 2.3 0 0 1 .615-.093 7 7 0 0 1 .837.03 4.3 4.3 0 0 1 .97.21 6 6 0 0 1 1.005.451 11 11 0 0 1 1.06.687 7.7 7.7 0 0 1 1.054.93 4.1 4.1 0 0 1 .763 1.087 3.3 3.3 0 0 1 .31 1.147 4.9 4.9 0 0 1-.076 1.26 6.7 6.7 0 0 1-.442 1.417 12.5 12.5 0 0 1-.774 1.499l-.952 1.58q-.497.824-.91 1.548-.412.724-.743 1.394t-.553 1.178q-.223.51-.402.851a2 2 0 0 1-.3.465q-.124.124-.154.035a11 11 0 0 1 .393-1.894" class="c"/><path d="M684.198 140.741a1.74 1.74 0 0 0-.774.376 2.4 2.4 0 0 0-.544.597 6 6 0 0 0-.472.863q-.22.485-.443 1.053t-.44 1.2-.446 1.371-.339 1.149-.257 1.127a10 10 0 0 0-.177 1.117q-.031.4-.035.754a3.8 3.8 0 0 0 .165.964 3.2 3.2 0 0 0 .334.862 4 4 0 0 0 .556.627q.39.376.826.75a7.5 7.5 0 0 0 .92.673 3.7 3.7 0 0 0 1.101.447 7 7 0 0 0 1.28.18 10.6 10.6 0 0 0 2.988-.52M715.914 134.23a.196.196 0 0 0-.266.108 2.4 2.4 0 0 0-.126.588q-.064.47-.091 1.148t-.05 1.667l-.054 2.161q-.03 1.172-.09 2.446-.059 1.273-.099 2.042t-.066 1.389-.045 1.72-.02 1.724.032 1.607a14 14 0 0 0 .146 1.692q.114.707.276 1.33a8.5 8.5 0 0 0 .369 1.116 2.4 2.4 0 0 0 .454.748 1.3 1.3 0 0 0 .614.355 3 3 0 0 0 .853.087 2.15 2.15 0 0 0 .943-.249 6.1 6.1 0 0 0 1.712-1.86M724.16 141.337a.87.87 0 0 0-.578-.38.37.37 0 0 0-.314.05 1.7 1.7 0 0 0-.225.495q-.142.41-.235.725t-.185.692q-.092.378-.196.868t-.175 1.115-.113 1.38-.05 1.606.034 1.742a13 13 0 0 0 .193 1.705 11 11 0 0 0 .375 1.483 4.2 4.2 0 0 0 .494 1.048 1.65 1.65 0 0 0 .584.54 2.5 2.5 0 0 0 .801.227 4 4 0 0 0 1.078-.017 4 4 0 0 0 1.184-.365 4.5 4.5 0 0 0 1.06-.7 6.7 6.7 0 0 0 .864-.93q.393-.512.794-1.116a13 13 0 0 0 .765-1.334 8 8 0 0 0 .568-1.474 6.8 6.8 0 0 0 .234-1.528 5.2 5.2 0 0 0-.245-1.694 7.7 7.7 0 0 0-.831-1.81q-.557-.902-1.193-1.835t-1.184-1.675a7.7 7.7 0 0 0-.933-1.09 1.85 1.85 0 0 0-.612-.416.44.44 0 0 0-.395.048 1 1 0 0 0-.3.373 3.3 3.3 0 0 0-.225.552 3.9 3.9 0 0 0-.097 1.239M739.115 140.704a.6.6 0 0 0-.252-.408.75.75 0 0 0-.33-.106 2 2 0 0 0-.474.022 1.6 1.6 0 0 0-.577.22 3.4 3.4 0 0 0-.593.453 6 6 0 0 0-.572.626 5 5 0 0 0-.492.744 6 6 0 0 0-.372.839 7 7 0 0 0-.27.984 8 8 0 0 0-.145 1.216q-.033.68-.037 1.484t.024 1.746a18 18 0 0 0 .148 1.845 12 12 0 0 0 .328 1.643 6 6 0 0 0 .522 1.303 2.27 2.27 0 0 0 .826.867 3.15 3.15 0 0 0 1.197.395 7 7 0 0 0 1.364.051 4.5 4.5 0 0 0 1.324-.286 9.5 9.5 0 0 0 1.336-.637 7.3 7.3 0 0 0 1.237-.88 5 5 0 0 0 .892-1.02 8 8 0 0 0 .614-1.158 9 9 0 0 0 .453-1.345 6.7 6.7 0 0 0 .207-1.425 4.6 4.6 0 0 0-.236-1.523 14 14 0 0 0-.692-1.744 13.4 13.4 0 0 0-.978-1.743 12.6 12.6 0 0 0-1.168-1.503 12 12 0 0 0-1.131-1.11 3.5 3.5 0 0 0-.777-.536.57.57 0 0 0-.395-.059.4.4 0 0 0-.201.246 4.1 4.1 0 0 0-.068 1.265M751.679 134.752q-.15-.231-.161 0-.008.168.06.933t.102 1.453q.033.69.052 1.592t.021 2.064-.06 2.283-.184 2.307q-.124 1.185-.275 2.303t-.228 2.068-.117 1.715-.04 1.293a4 4 0 0 0 .086.9 6 6 0 0 0 .165.604.9.9 0 0 0 .154.313q.075.08.134.032a4.3 4.3 0 0 0 .344-1.015M758.332 139.292q.277-.463.311-.333a1.5 1.5 0 0 1-.142.553q-.168.46-.319.793t-.355.757-.497.986-.646 1.211-.75 1.468-.783 1.565q-.385.746-.759 1.363t-.65 1.053-.342.556l-.074.132q-.006.012.003.003l.099-.103q.09-.095.268-.245a4 4 0 0 1 .417-.305 4 4 0 0 1 .52-.276 3 3 0 0 1 .532-.18 3 3 0 0 1 .488-.067 1.9 1.9 0 0 1 .49.044 1.04 1.04 0 0 1 .483.273 4 4 0 0 1 .484.568 8 8 0 0 1 .543.895 8 8 0 0 1 .49 1.09q.197.546.394 1.036t.414.952.392.794a3.2 3.2 0 0 0 .372.564 1.8 1.8 0 0 0 .424.375 1.15 1.15 0 0 0 .477.172 4.1 4.1 0 0 0 1.124-.097M771.604 140.888a2.1 2.1 0 0 0-.2-1.025 1.5 1.5 0 0 0-.297-.355 1.9 1.9 0 0 0-.426-.262 6 6 0 0 0-.627-.245 7 7 0 0 0-.816-.214 5.3 5.3 0 0 0-.851-.104 2 2 0 0 0-.794.134 5 5 0 0 0-.864.45q-.472.3-.955.676a9 9 0 0 0-.922.826 7.3 7.3 0 0 0-.778.938 4.4 4.4 0 0 0-.49.87 2.8 2.8 0 0 0-.188.708 4 4 0 0 0-.024.589.62.62 0 0 0 .193.438 1.7 1.7 0 0 0 .515.313 6 6 0 0 0 .91.27q.575.131 1.272.229t1.42.213 1.62.273 1.721.345q.826.19 1.617.427t1.61.55a5.8 5.8 0 0 1 1.304.663 2.4 2.4 0 0 1 .717.77 2.7 2.7 0 0 1 .306.943 4.6 4.6 0 0 1 .042.978 2.8 2.8 0 0 1-.203.868 5 5 0 0 1-.415.797 5 5 0 0 1-.539.7 4.2 4.2 0 0 1-.74.616 6.4 6.4 0 0 1-1.055.56 6.6 6.6 0 0 1-1.147.38 6 6 0 0 1-1.052.144 4.3 4.3 0 0 1-1.104-.103 4.6 4.6 0 0 1-1.168-.43 6 6 0 0 1-1.031-.68 10 10 0 0 1-.761-.692 3.3 3.3 0 0 1-.443-.54 1.3 1.3 0 0 1-.168-.366.4.4 0 0 1 .012-.249q.06-.148 1.018-.484M805.196 132.905q-.015.74-.016 1.342 0 .406.032 1.01t.072 1.497.047 1.926-.04 2.203q-.05 1.17-.145 2.337t-.158 2.29-.093 2.15-.032 2.019q-.003.99.04 1.782a15 15 0 0 0 .16 1.52q.116.726.28 1.347a4.2 4.2 0 0 0 .394 1.024 2.6 2.6 0 0 0 .529.66 2.3 2.3 0 0 0 .628.395 1.9 1.9 0 0 0 .642.15 1.4 1.4 0 0 0 .649-.14 15.4 15.4 0 0 0 2.143-1.548M815.281 141.398q-.21-.134-.334-.056a.5.5 0 0 0-.162.226 2 2 0 0 0-.121.403 4 4 0 0 0-.068.5q-.023.268-.018.981t.172 2.4q.167 1.687.217 2.347t.111 1.411.134 1.375.186 1.155a7 7 0 0 0 .29 1.004 4.4 4.4 0 0 0 .43.86 1.55 1.55 0 0 0 .597.56 2 2 0 0 0 .84.19 3.6 3.6 0 0 0 .96-.092 2.4 2.4 0 0 0 .826-.366 4.5 4.5 0 0 0 1.15-1.715M816.09 132.588a.58.58 0 0 0-.262-.357.4.4 0 0 0-.224-.047.19.19 0 0 0-.156.146 2 2 0 0 0-.055.548 2.6 2.6 0 0 0 .062.663 7.3 7.3 0 0 0 .5 1.178M825.237 134.17l.043-.158q.003-.008.004.029c0 .037.007.161.018.412s.055.844.133 1.778.138 1.748.18 2.441.07 1.415.08 2.166.005 1.5-.02 2.25-.074 1.51-.15 2.28-.156 1.488-.239 2.15a48 48 0 0 0-.318 3.66q-.036.78-.039 1.36c-.003.58.006.746.024 1.075a5 5 0 0 0 .11.85 1.9 1.9 0 0 0 .185.527.58.58 0 0 0 .528.251M833.449 139.087q.027.11-.131.301t-.407.556q-.25.365-.727 1.183t-.887 1.459-.867 1.252-.902 1.242-.809 1.247-.616 1.137-.543 1.334l-.226.662.02-.036a4 4 0 0 1 .26-.462 5 5 0 0 1 .406-.543q.233-.272.38-.41a2.7 2.7 0 0 1 .463-.327 2.3 2.3 0 0 1 .66-.268 3.7 3.7 0 0 1 .696-.094 1.4 1.4 0 0 1 .694.164 1.57 1.57 0 0 1 .592.57 3.8 3.8 0 0 1 .421.967q.171.575.316 1.291t.232 1.358a8 8 0 0 0 .23 1.135 5.7 5.7 0 0 0 .368.946 4.4 4.4 0 0 0 .494.788 3 3 0 0 0 .579.566 3 3 0 0 0 .643.363 2.65 2.65 0 0 0 1.224.128M839.793 147.883a10 10 0 0 0 .985.83 1.7 1.7 0 0 0 .492.216 2.5 2.5 0 0 0 .613.089 2.4 2.4 0 0 0 .68-.086 3.4 3.4 0 0 0 .714-.282 3.8 3.8 0 0 0 .668-.447q.31-.258 1.048-.993a15 15 0 0 0 1.114-1.206 8.5 8.5 0 0 0 .68-.987 6 6 0 0 0 .485-1.037 3.8 3.8 0 0 0 .212-1.015 4.4 4.4 0 0 0-.062-1.022 3.7 3.7 0 0 0-.335-1.017 2.5 2.5 0 0 0-.57-.773 1.84 1.84 0 0 0-.72-.395 3 3 0 0 0-.786-.118 1.43 1.43 0 0 0-.724.178 3.7 3.7 0 0 0-.669.48 10 10 0 0 0-.72.718q-.384.42-.79.932t-.81 1.122a12 12 0 0 0-.773 1.386 10.7 10.7 0 0 0-.63 1.69q-.26.916-.447 1.941t-.273 2.01a13 13 0 0 0-.055 1.69 4.7 4.7 0 0 0 .207 1.254 6 6 0 0 0 .417.992 3.1 3.1 0 0 0 .559.758 3.2 3.2 0 0 0 .809.556q.49.244 1.113.497a6.4 6.4 0 0 0 1.135.357 5.7 5.7 0 0 0 .99.113q.476.01 1.003-.027a5.3 5.3 0 0 0 1.002-.164 5 5 0 0 0 .891-.33 6.7 6.7 0 0 0 1.382-.962M854.667 154.135q.089-.139-.064-.129-.158.011-.189.363M515.366 593.759q.19-.949-.176-1.283a2.2 2.2 0 0 0-.727-.41 5.6 5.6 0 0 0-1.977-.406q-.758-.051-1.226-.053a4 4 0 0 0-.924.109 4.8 4.8 0 0 0-.95.347 3.4 3.4 0 0 0-.85.569 5.3 5.3 0 0 0-.69.79 11 11 0 0 0-.698 1.123 14 14 0 0 0-.83 1.966q-.462 1.301-1.088 3.465t-.884 3.555a16 16 0 0 0-.286 2.47q-.027 1.08.022 1.929a4.6 4.6 0 0 0 .355 1.563 6.3 6.3 0 0 0 .791 1.35 5.7 5.7 0 0 0 1.27 1.19 7.3 7.3 0 0 0 1.678.887 6.5 6.5 0 0 0 2.047.37 11.4 11.4 0 0 0 1.864-.059 13 13 0 0 0 1.905-.466 21.7 21.7 0 0 0 3.839-1.66M524.325 583.892q-.326-.407-.499-.373-.121.025-.173.533c-.052.508-.05 1.688-.051 4.047s-.068 4.346-.205 5.961-.21 2.752-.225 3.41-.005.964.027.919l.24-.342a5 5 0 0 0 .478-1.055 18 18 0 0 0 .57-1.954q.284-1.173.525-2.861t.404-2.628.356-1.748a15 15 0 0 1 .446-1.52 9 9 0 0 1 .566-1.294 5 5 0 0 1 .622-.928 3.2 3.2 0 0 1 .61-.545 3.7 3.7 0 0 1 .639-.337 2.8 2.8 0 0 1 .843-.173 2.5 2.5 0 0 1 .806.045 1.6 1.6 0 0 1 .59.325 3.3 3.3 0 0 1 .568.637 6.7 6.7 0 0 1 .549.97 14 14 0 0 1 .676 2.055q.401 1.479.611 2.652t.334 2.278q.126 1.104.223 2.524a14 14 0 0 0 .227 1.961 2.2 2.2 0 0 0 .311.78.94.94 0 0 0 .494.333 6.7 6.7 0 0 0 1.888.039" class="c"/><path d="M680.76 593.168a5 5 0 0 0 .348-1.361.99.99 0 0 0-.307-.763 3 3 0 0 0-.65-.549 4.3 4.3 0 0 0-.696-.324 4.3 4.3 0 0 0-.838-.21 7 7 0 0 0-.976-.076 6 6 0 0 0-1.125.102 4.1 4.1 0 0 0-1.208.437 6.5 6.5 0 0 0-1.19.84 6.8 6.8 0 0 0-1.107 1.277 9 9 0 0 0-.93 1.79q-.407 1.024-.792 2.306t-.752 2.757-.598 2.969a27 27 0 0 0-.292 2.88 16 16 0 0 0 .07 2.552 5.3 5.3 0 0 0 .598 1.998 6.3 6.3 0 0 0 1.125 1.465 8.7 8.7 0 0 0 1.454 1.122 6.8 6.8 0 0 0 1.763.76 12 12 0 0 0 2.122.376q1.154.108 2.365.106a7 7 0 0 0 2.143-.307 8.24 8.24 0 0 0 3.03-2.103M688.973 582.31l-.268-.43q-.032-.052-.033.059l-.003.517a10 10 0 0 0 .067 1.076q.068.67.149 2.47t.084 6.174q.004 4.372.173 4.003a5.6 5.6 0 0 0 .315-.967q.145-.597.285-1.371t.537-3.958.563-4.308.371-2.173a11 11 0 0 1 .447-1.685 4.3 4.3 0 0 1 .498-.99 1.8 1.8 0 0 1 .541-.513 1.3 1.3 0 0 1 .59-.177 2 2 0 0 1 .662.092 2.2 2.2 0 0 1 .752.436 4 4 0 0 1 .731.813 5.7 5.7 0 0 1 .604 1.168 13 13 0 0 1 .488 1.572q.22.89.367 1.777t.257 1.772.21 2.617.115 3.148.045 1.91a4 4 0 0 0 .111.807q.12.443.903.337M702.518 588.072l-1.076-.2q-.038-.008.151-.008h2.79q2.598 0 3.346-.013t1.423-.069 1.264-.146a7.2 7.2 0 0 0 1.954-.643" class="d"/><path d="M705.899 582.773a1.04 1.04 0 0 0-.923.263 3.4 3.4 0 0 0-.225 1.509 34 34 0 0 0 .126 3.438q.164 2.147.195 3.042a8.2 8.2 0 0 0 .362 2.307M719.479 579.107q.051-.676.29-.405a3.8 3.8 0 0 1 .387 1.294q.214 1.098.485 2.838t.397 2.78.22 2.106q.137 1.539.392 5.79" class="d"/><path d="M335.204 596.175a11 11 0 0 0 .035-1.799 2.5 2.5 0 0 0-.434-.88 3.2 3.2 0 0 0-.717-.815 2.4 2.4 0 0 0-.938-.348 4.3 4.3 0 0 0-1.107-.077 2.26 2.26 0 0 0-1.01.356 7 7 0 0 0-.8.556 6.3 6.3 0 0 0-.75.812q-.463.574-.743.974a9 9 0 0 0-.64 1.142 12 12 0 0 0-.654 1.695 18 18 0 0 0-.514 2.2 26 26 0 0 0-.317 2.596q-.097 1.35-.088 3.602a11.8 11.8 0 0 0 .27 3.048 9 9 0 0 0 .48 1.235 7.2 7.2 0 0 0 .777 1.142 7.8 7.8 0 0 0 1.311 1.294 7 7 0 0 0 1.227.815 8.7 8.7 0 0 0 1.352.467 10 10 0 0 0 1.848.321q.968.079 1.405.087a4 4 0 0 0 .796-.059 3.1 3.1 0 0 0 .943-.417 9.7 9.7 0 0 0 2.261-2.432M345.234 584.565a1.65 1.65 0 0 1-.701-.225q-.113-.093-.03.51t.303 1.6.344 1.7.23 1.483q.107.785.22 2.357t.116 2.752l.005 1.241q0 .063.005.014l.098-.958q.093-.911.174-2.518c.081-1.607.097-2.236.129-3.493s.067-2.173.107-2.749a12 12 0 0 1 .216-1.622 10 10 0 0 1 .375-1.372 3.4 3.4 0 0 1 .474-.935 1.27 1.27 0 0 1 .582-.437 2.4 2.4 0 0 1 .73-.124 1.6 1.6 0 0 1 .829.22 4.6 4.6 0 0 1 .864.626 10 10 0 0 1 .88.914 7.4 7.4 0 0 1 .774 1.093 8 8 0 0 1 .569 1.196 10 10 0 0 1 .397 1.313 10.5 10.5 0 0 1 .194 1.992 17.6 17.6 0 0 1-.154 2.721q-.186 1.421-.221 1.952a2.2 2.2 0 0 0 .414 1.446M359.36 588.33q-1.691-.149-1.53.063a.8.8 0 0 0 .516.21 15 15 0 0 0 1.565.079q1.163.02 2.37.02a21.2 21.2 0 0 0 4.42-.584M374.481 580.677q-.058-.643-.186-.499a7.8 7.8 0 0 0-.098 1.823q-.005 1.72.153 3.45t.278 2.673q.121.943.285 1.972a38 38 0 0 0 1.14 4.508M404.087 608.12q-.214-.299.495-.422a13 13 0 0 1 1.735-.156q1.028-.032 4.529-.032t6.036.013q2.535.015 5.032.015t4.755-.058 3.387-.102 1.98-.102 3.069-.284 3.02-.32q.801-.092 2.238-.217t2.512-.231q1.077-.106 2.241-.156t2.474-.052 1.837.024a16 16 0 0 1 1.838.268 15 15 0 0 0 2.282.265 10 10 0 0 0 1.49-.05 4.6 4.6 0 0 0 1.05-.284 1.7 1.7 0 0 0 .637-.351q.104-.14-.648-.246a3.6 3.6 0 0 1-1.134-.31 5.4 5.4 0 0 1-.935-.688 14 14 0 0 1-1.031-.996 2.3 2.3 0 0 1-.517-.685q-.04-.172.153-.191t.756.42q.564.44.923.771a9 9 0 0 1 .684.708 6.5 6.5 0 0 1 .56.743 3.3 3.3 0 0 1 .358.734 3 3 0 0 1 .148.746 1.26 1.26 0 0 1-.166.718 3.8 3.8 0 0 1-1.141.952 15 15 0 0 1-2.767 1.438M429.59 571.033a4.6 4.6 0 0 0 .471-1.41q.004-.256-.38-.56a5.6 5.6 0 0 0-1.13-.64 8.5 8.5 0 0 0-1.208-.463 7.6 7.6 0 0 0-1.42-.182 7.2 7.2 0 0 0-1.458.024 2.7 2.7 0 0 0-.908.308 3.3 3.3 0 0 0-.751.58 7 7 0 0 0-.68.829 6 6 0 0 0-.585 1.03 11 11 0 0 0-.468 1.27 17 17 0 0 0-.405 1.65 16 16 0 0 0-.26 1.866q-.075.93-.082 1.835a14 14 0 0 0 .086 1.723 4.2 4.2 0 0 0 .38 1.395 4.7 4.7 0 0 0 .655 1.003 7 7 0 0 0 .82.798 3.7 3.7 0 0 0 .893.562 5 5 0 0 0 .94.292 6 6 0 0 0 1.094.114 6 6 0 0 0 1.231-.115 5.4 5.4 0 0 0 1.327-.468 13 13 0 0 0 1.41-.813 9.4 9.4 0 0 0 2.232-2.295M431.478 560.796a3.2 3.2 0 0 0-.353-.99q-.145-.23-.149-.059l-.018.857a18 18 0 0 0 .204 2.335q.218 1.65.444 3.69t.332 3.106.337 3.175.317 3.36.117 2.474a15 15 0 0 0 .077 1.471q.046.25.237.052a4.4 4.4 0 0 0 .65-1.44M439.383 552.615l-.028-1.12v-.008l.001.057.04 1.554q.038 1.476.041 3.449t-.079 2.967-.21 1.96-.363 2.439-.26 2.025.017.5l.205-.26a4 4 0 0 0 .403-.684 9.5 9.5 0 0 0 .468-1.155 16 16 0 0 0 .431-1.545q.2-.867.345-1.83t.418-3.384q.273-2.42.439-3.497t.346-1.79a7.5 7.5 0 0 1 .35-1.1q.169-.388.293-.44t.237.205a4 4 0 0 1 .218.79q.106.533.198 1.26t.216 2.49q.125 1.763.186 2.57t.241 2.338.433 2.713a8 8 0 0 0 .474 1.634 1.8 1.8 0 0 0 .475.65q.365.281 1.83-.267M450.407 559.325a15.2 15.2 0 0 0 5.842-.909M462.426 551.028q-.134 1.964-.14 4.457-.003 1.638.055 2.972t.114 2.114q.082 1.133.124 3.9" class="e"/><path d="M587.038 604.842q16.675.008 18.929-.01 1.58-.013 3.122-.083t3.095-.16 3.745-.277 4.268-.393q2.074-.207 4.396-.43 2.32-.224 3.595-.362t1.885-.14a.82.82 0 0 1 .82.42q.29.588-.966.244" class="c"/><path d="M627.79 600.279a1.3 1.3 0 0 1-.624-.248l-.192-.154q-.034-.027.262.089l1.68.656q1.382.54 2.49 1.056a15 15 0 0 1 1.556.803 3.6 3.6 0 0 1 .714.578 1.2 1.2 0 0 1 .318.566 1.1 1.1 0 0 1-.038.548q-.09.273-.754.628a20 20 0 0 1-2.414.971q-1.75.617-3.047 1.203M611.962 566.519a.81.81 0 0 0 .036-.934 2.4 2.4 0 0 0-.796-.677 5.7 5.7 0 0 0-1.007-.506 6.5 6.5 0 0 0-.886-.236 5.4 5.4 0 0 0-.938-.105 5 5 0 0 0-.931.07 3.1 3.1 0 0 0-.969.35 6.6 6.6 0 0 0-.973.653 11 11 0 0 0-.933.848 14 14 0 0 0-.913 1.032 6.7 6.7 0 0 0-.778 1.216 6.6 6.6 0 0 0-.504 1.44 10.4 10.4 0 0 0-.24 1.668 12 12 0 0 0 .001 1.664 4.8 4.8 0 0 0 .328 1.456 5.4 5.4 0 0 0 .68 1.216 4.5 4.5 0 0 0 .862.891 4.6 4.6 0 0 0 .936.555 7 7 0 0 0 .956.344 7.5 7.5 0 0 0 1.524.178 3.14 3.14 0 0 0 1.646-.281 16 16 0 0 0 2.94-2.723M613.553 558.46a5.2 5.2 0 0 1-.278-1.659q.039-.304.203-.256t.272.608a23 23 0 0 1 .203 2.511q.092 1.952.11 4.767t.09 4.853.249 3.602.267 2.142a7 7 0 0 0 .29 1.166 1.86 1.86 0 0 0 .398.762.286.286 0 0 0 .412-.003 7 7 0 0 0 .664-2.687M622.167 547.901q-.416-.8-.483.098-.05.668-.05 1.686t.03 1.779q.03.76.205 2.658t.358 3.552q.182 1.655.3 2.337t.32 1.47.277.971.215-.13a4.5 4.5 0 0 0 .176-1.366q.035-1.05.035-1.782t-.038-1.49q-.04-.76-.112-1.563t-.095-2.208a9 9 0 0 1 .129-2.035 3.3 3.3 0 0 1 .45-1.078 3 3 0 0 1 .713-.752 5 5 0 0 1 .883-.514 3.9 3.9 0 0 1 1.313-.264 2.7 2.7 0 0 1 1.253.14 3 3 0 0 1 .807.58 7 7 0 0 1 .81.98q.41.59.848 1.32a23 23 0 0 1 1.09 2.181q.653 1.45.916 2.223a13 13 0 0 1 .415 1.482q.152.708.262 1.48t.272 1.632a18.4 18.4 0 0 0 1.004 3.202" class="c"/><path d="M776.297 604.381q-.942-.469-.642-.474l1.073-.02q.858-.015 2.747.147t5.353.259q3.466.096 6.21.113t6.814.018 5.018-.012 1.907-.085 1.917-.174 2.164-.285a21 21 0 0 0 2.049-.405q.843-.22 1.2-.272t.119.35a2.9 2.9 0 0 0-.419.996" class="d"/><path d="m810.732 600.58-.679-.647q-.052-.05.005.022l.396.503a10 10 0 0 0 .924.99q.584.56 1.408 1.293a9.2 9.2 0 0 1 1.21 1.243 1.9 1.9 0 0 1 .414.79q.031.28-.389.463a3.7 3.7 0 0 1-.9.258q-.482.077-1.269.127t-2.045.065a6.15 6.15 0 0 0-2.63.39" class="d"/><path d="M859.88 591.712a11 11 0 0 0-1.503-1.071 5.4 5.4 0 0 0-1.064-.494 4 4 0 0 0-1.142-.194 1.8 1.8 0 0 0-.951.169 4 4 0 0 0-.714.54q-.379.348-.84.865t-.933 1.157-.986 1.46a22 22 0 0 0-1.056 1.932 18 18 0 0 0-.97 2.46 22 22 0 0 0-.67 2.746 22 22 0 0 0-.312 2.677 8 8 0 0 0 .172 2.285 6 6 0 0 0 .893 1.972 12 12 0 0 0 1.598 1.888 11.2 11.2 0 0 0 1.916 1.521q.97.6 1.822 1.016a11 11 0 0 0 1.623.651 6.2 6.2 0 0 0 1.504.272 15 15 0 0 0 1.63-.015 6.2 6.2 0 0 0 1.672-.318 9.8 9.8 0 0 0 3.202-2.704M870.129 581.962l-.201-.472q-.015-.035-.006.086l.07.887q.06.767.095 1.448c.035.68.035.96.037 1.518s-.006 1.172-.026 1.84-.062 1.356-.127 2.063-.137 1.393-.216 2.059-.157 1.414-.236 2.245-.118 1.346-.122 1.542l-.005.356q-.001.06.065-.072l.386-.78q.32-.646.607-1.368c.287-.722.382-1.035.574-1.66s.388-1.346.588-2.159.43-1.662.688-2.547.53-1.694.811-2.425a18 18 0 0 1 .875-1.946 11.5 11.5 0 0 1 .881-1.43 3.9 3.9 0 0 1 .735-.803 1.65 1.65 0 0 1 .81-.276.86.86 0 0 1 .724.167 3.2 3.2 0 0 1 .45.597 4.8 4.8 0 0 1 .415.923 8 8 0 0 1 .3 1.205 14 14 0 0 1 .164 1.397q.05.739.056 2.534t-.121 3.77q-.125 1.975-.148 3.29a4.27 4.27 0 0 0 .678 2.417M886.626 587.919l-1.364-.351q-.06-.015.009-.016h.823q.754 0 1.816-.058t1.693-.115a32 32 0 0 0 3.612-.732" class="f"/><path d="M889.785 582.323a.89.89 0 0 0-.916.232 1.8 1.8 0 0 0-.417.783 8 8 0 0 0-.252 1.388q-.094.863-.115 2.265t-.008 1.82a7.5 7.5 0 0 0 .152 1.13q.14.715.327 1.34a6.5 6.5 0 0 0 1.05 1.965M898.14 582.465a7.9 7.9 0 0 1 1.304-2.044 4.5 4.5 0 0 1 1.23-.837 6.4 6.4 0 0 1 1.659-.56 10 10 0 0 1 1.273-.18 5 5 0 0 1 .782.022 1.7 1.7 0 0 1 .708.248 4 4 0 0 1 .688.545 4.2 4.2 0 0 1 .63.785 5 5 0 0 1 .473.984 7.6 7.6 0 0 1 .31 1.182 8 8 0 0 1 .13 1.302 6 6 0 0 1-.151 1.394 11 11 0 0 1-.499 1.595q-.335.856-1.036 2.452t-.867 2.11a5.6 5.6 0 0 0-.232 1.152q-.066.635.097.761a2.7 2.7 0 0 0 1.096.155q.933.028 1.728-.014a14 14 0 0 0 1.861-.25q1.068-.208 2.326-.52a23 23 0 0 0 2.33-.698 53 53 0 0 0 5.751-2.836" class="f"/><path d="M162.97 596.875q.298-.226.348-1.174a3.4 3.4 0 0 0-.024-.835 2.2 2.2 0 0 0-.474-.71 3 3 0 0 0-.759-.675 3.4 3.4 0 0 0-.772-.307 4.4 4.4 0 0 0-.94-.14 5 5 0 0 0-1.013.053 2.9 2.9 0 0 0-.994.361 6.6 6.6 0 0 0-.975.696 8 8 0 0 0-.904.907 11 11 0 0 0-.802 1.08 15 15 0 0 0-.766 1.33 12 12 0 0 0-.681 1.602q-.297.856-.56 1.932t-.483 2.447q-.22 1.372-.324 2.618t-.115 2.36.058 2.106a5.1 5.1 0 0 0 .377 1.694 5.3 5.3 0 0 0 .805 1.295 8.3 8.3 0 0 0 1.107 1.09 4.3 4.3 0 0 0 1.237.726 5.7 5.7 0 0 0 1.318.306 15 15 0 0 0 1.513.085 10 10 0 0 0 1.67-.127 12 12 0 0 0 1.702-.398 15 15 0 0 0 1.624-.602 6 6 0 0 0 1.301-.759 9.6 9.6 0 0 0 1.805-2.16M177.07 585.231q-.265-.47-.49-.527-.156-.039-.191.588t-.037 1.302-.101 2.645-.343 5.07q-.244 3.1-.264 3.79l-.022.728q0 .038.008-.012t.174-.94q.164-.89.254-1.53t.244-2.422.219-2.78.178-2.102.263-2.063a13 13 0 0 1 .385-1.733 6.3 6.3 0 0 1 .547-1.314 1.54 1.54 0 0 1 .672-.695 1.8 1.8 0 0 1 .779-.137 1.52 1.52 0 0 1 .897.413 4.5 4.5 0 0 1 .884 1.031 8 8 0 0 1 .722 1.448 15 15 0 0 1 .552 1.749 13 13 0 0 1 .327 1.808q.092.876.145 1.8t.072 2.942.033 2.78a6.3 6.3 0 0 0 .153 1.35 1.8 1.8 0 0 0 .356.807.92.92 0 0 0 .514.275q.428.074 1.415-.618M189.853 591.76a2.4 2.4 0 0 0-.52.572q-.07.139.635.161a8 8 0 0 0 1.78-.193 26.7 26.7 0 0 0 4.555-1.56M202.176 585.564q-1.147-.027-1.223-.463a1.6 1.6 0 0 1-.015-.529 2.7 2.7 0 0 1 .444-.804 10 10 0 0 1 1.062-1.252 13 13 0 0 1 1.406-1.243 7.8 7.8 0 0 1 1.435-.892 3.6 3.6 0 0 1 .967-.345 1.8 1.8 0 0 1 .527.026.83.83 0 0 1 .463.317 2.2 2.2 0 0 1 .361.717 5.6 5.6 0 0 1 .217 1.09q.071.637.091 1.441a12.4 12.4 0 0 1-.077 1.68 12 12 0 0 1-.379 1.885q-.281 1.01-.68 2.152t-.836 2.232-.839 2.16-.644 1.81a10 10 0 0 0-.337 1.239 5.6 5.6 0 0 0-.102.864 1 1 0 0 0 .097.54q.107.172.762.268a12 12 0 0 0 1.655.099 7.7 7.7 0 0 0 1.73-.162q.73-.166 3.138-.89 3.753-1.125 5.833-1.988M240.332 606.145a21.3 21.3 0 0 0-4.023.124q-.966.158-.825.21t.703.258a18.8 18.8 0 0 0 3.652.31q3.09.103 8.809.107t8.932-.024 9.05-.25 9.531-.388 5.49-.325a12.5 12.5 0 0 0 2.565-.415 2.35 2.35 0 0 0 1.154-.753q.384-.496-.518-.637a34 34 0 0 0-3.99-.142 29 29 0 0 1-3.905-.151 9.5 9.5 0 0 1-1.78-.54 8.4 8.4 0 0 1-1.47-.722 1.54 1.54 0 0 1-.615-.63q-.114-.296 1.857-.276a22 22 0 0 1 3.81.364 30 30 0 0 1 3.486.859 15.5 15.5 0 0 1 2.311.866 5.2 5.2 0 0 1 1.03.677 1.83 1.83 0 0 1 .493 1.073q.131.747-1.115 1.434a50 50 0 0 1-8.02 2.833M259.607 569.804q1.268.47 1.158-.761a2.65 2.65 0 0 0-.55-1.471 8 8 0 0 0-1.235-1.197 7.3 7.3 0 0 0-1.732-1.027 8 8 0 0 0-2.505-.528 3.47 3.47 0 0 0-2.42.554 5.6 5.6 0 0 0-1.52 1.848 9.2 9.2 0 0 0-.915 2.853 40 40 0 0 0-.352 5.173q-.072 3.499.01 4.586a9.3 9.3 0 0 0 .323 1.901 7.5 7.5 0 0 0 .586 1.457 2.9 2.9 0 0 0 .742.942 3.04 3.04 0 0 0 1.479.393 5.7 5.7 0 0 0 1.699-.05 4 4 0 0 0 1.35-.658 16 16 0 0 0 1.603-1.304 35.5 35.5 0 0 0 3.578-4.154" class="g"/><path d="M262.43 560.232q-1.424-2.543-1.65-1.746a44 44 0 0 0-.168 5.448q-.006 4.879.049 6.117t.372 3.73q.316 2.493.758 4.538a8.36 8.36 0 0 0 2.145 4.474M268.936 547.723q-.567-.322-.57.87t.37 4.59q.375 3.396.643 7.324t.336 4.256q.068.329.118.167l.25-.808a18 18 0 0 0 .429-2.653q.23-2.008.303-3.38t.11-3.848q.036-2.476.165-4.067a5.9 5.9 0 0 1 .375-2.008q.247-.417.852.892A41 41 0 0 1 274 554.23q1.076 3.863 1.78 5.663a17.6 17.6 0 0 0 1.122 2.476 7 7 0 0 0 2.882 2.08M282.048 557.774q-.88.028-.637-.043l.875-.255a14 14 0 0 1 1.733-.362 13 13 0 0 0 2.026-.48 8.9 8.9 0 0 0 2.826-1.57M288.162 548.307q0-.625.734-.674a3.17 3.17 0 0 1 1.673.456 5.85 5.85 0 0 1 1.795 1.599 7.6 7.6 0 0 1 1.137 1.835 10.8 10.8 0 0 1 .405 2.753 13.8 13.8 0 0 1-.08 3.12 19.7 19.7 0 0 1-1.34 3.697q-1.136 2.588-1.467 3.436a2.9 2.9 0 0 0-.26 1.38q.07.535 1.875.515a30 30 0 0 0 5.12-.687q4.924-.989 10.874-2.43" class="g"/><path d="M780.618 568.944a2.4 2.4 0 0 0 .139-.768 3 3 0 0 0-.055-.557 2.5 2.5 0 0 0-.258-.683 3.6 3.6 0 0 0-.492-.71 3.4 3.4 0 0 0-.71-.6 2.8 2.8 0 0 0-.854-.379 5 5 0 0 0-.974-.131 2.06 2.06 0 0 0-1 .201 3.3 3.3 0 0 0-.88.643 7 7 0 0 0-.656.733 3.4 3.4 0 0 0-.386.635q-.149.321-.386 1.022t-.349 1.16-.335 1.798-.286 1.847q-.064.505-.116 1.4t-.057 1.795.003 1.207a2.5 2.5 0 0 0 .166.743 2.8 2.8 0 0 0 .412.773 3.6 3.6 0 0 0 .446.504 1.1 1.1 0 0 0 .383.233 3.2 3.2 0 0 0 .687.1q.494.037 1.186.032a6.7 6.7 0 0 0 1.425-.17 7.6 7.6 0 0 0 1.424-.474 7.3 7.3 0 0 0 1.263-.716 8.8 8.8 0 0 0 1.613-1.512M782.756 558.763q-.361 0-.364.633a19 19 0 0 0 .128 1.86q.13 1.229.202 2.087t.149 2.31.106 2.954.043 2.582.052 1.902.207 2.332.271 2.376.118 1.431.07.482l.5-.74M791.13 551.923a3.6 3.6 0 0 0-.076 1.203q.022.564.033 1.694t.012 4.69.048 3.765.053.223.004-.08l.002-1.188q.002-1.091-.04-1.97c-.042-.88-.07-1.376-.126-2.37s-.084-1.912-.086-2.754a10 10 0 0 1 .085-1.672 4.2 4.2 0 0 1 .372-.973 3.9 3.9 0 0 1 .568-.87q.282-.306.6-.59t.65-.545a7 7 0 0 1 .59-.422 3 3 0 0 1 .472-.245 1.7 1.7 0 0 1 .49-.104.58.58 0 0 1 .492.246 3 3 0 0 1 .38.588 9 9 0 0 1 .421 1.169 14 14 0 0 1 .377 1.466q.117.62.17 1.183t.124 2.247.098 2.279.062.948a9 9 0 0 0 .177 1.009 5.4 5.4 0 0 0 .373 1.146 3.7 3.7 0 0 0 .583.888 4.1 4.1 0 0 0 .844.718 6.4 6.4 0 0 0 1.509.642 8.1 8.1 0 0 0 2.734.443M803.738 557.404h-.835q-.021 0-.002-.002l.386-.048q.366-.046 1.337-.223t2.067-.392q1.634-.32 3.412-.836" class="d"/><path d="M806.926 551.89q-.06 1.316-.043 2.318.012.677.084 2.125t.106 2.766a11.8 11.8 0 0 0 .287 2.839M815.668 549.25q-.207.084-.542.915a2.4 2.4 0 0 0-.21.796 3.6 3.6 0 0 0 .138.846q.142.562.239 1.15t.172 1.384.134 1.67.08 1.797.026 2.46-.04 2.505q-.041.968-.002 1.889" class="d"/><path d="M81.091 431.967 268.616 243.97M106.162 455.679l187.174-187.644M268.616 243.97l24.72 24.065M81.091 431.967l25.071 23.712M129.222 432.359l187.526-187.997M154.294 456.072l187.174-187.645M316.748 244.362l24.72 24.065M129.222 432.359l25.072 23.713M176.149 433.614l187.525-187.998M201.221 457.326l187.174-187.645M363.674 245.616l24.721 24.065M176.149 433.614l25.072 23.712M222.715 435.541 410.24 247.544M247.787 459.253 434.96 271.609M410.24 247.544l24.72 24.065M222.715 435.541l25.072 23.712" class="h"/><path d="m243.679 272.111 186.949 186.48M268.463 248.408l186.996 186.527" class="i"/><path d="M454.98 435.923c.155.147-4.837 5.689-11.15 12.378s-11.56 11.992-11.716 11.845 4.836-5.69 11.15-12.378 11.56-11.992 11.715-11.845" class="j"/><path d="M454.98 435.923c.155.147-4.837 5.689-11.15 12.378s-11.56 11.992-11.716 11.845 4.836-5.69 11.15-12.378 11.56-11.992 11.715-11.845Z" class="k"/><path d="m243.02 270.711 24.785-23.703M293.341 272.708l186.95 186.48M318.126 249.005l186.996 186.526" class="i"/><path d="M504.642 436.52c.156.147-4.836 5.689-11.15 12.378s-11.559 11.992-11.715 11.845 4.836-5.689 11.15-12.378 11.559-11.993 11.715-11.845" class="j"/><path d="M504.642 436.52c.156.147-4.836 5.69-11.15 12.378s-11.559 11.992-11.715 11.845 4.836-5.689 11.15-12.378 11.559-11.993 11.715-11.845Z" class="k"/><path d="m292.683 271.308 24.785-23.703M341.092 272.107l186.95 186.48M365.877 248.404 552.872 434.93" class="i"/><path d="M552.392 435.919c.156.147-4.836 5.689-11.15 12.378s-11.558 11.992-11.714 11.845 4.836-5.69 11.15-12.378 11.558-11.993 11.714-11.845" class="j"/><path d="M552.392 435.919c.156.147-4.836 5.689-11.15 12.378s-11.558 11.992-11.714 11.845 4.836-5.69 11.15-12.378 11.558-11.993 11.714-11.845Z" class="k"/><path d="m340.434 270.707 24.785-23.703M387.887 272.004l186.949 186.48M412.671 248.301l186.996 186.526" class="i"/><path d="M599.187 435.815c.156.148-4.836 5.69-11.15 12.379s-11.559 11.992-11.715 11.845 4.837-5.69 11.15-12.379 11.56-11.992 11.715-11.845" class="j"/><path d="M599.187 435.816c.156.147-4.836 5.689-11.15 12.378s-11.558 11.992-11.714 11.844 4.836-5.689 11.15-12.378 11.558-11.992 11.714-11.845Z" class="k"/><path d="m387.229 270.604 24.785-23.703" class="i"/><path d="m408.462 433.752 187.525-187.997M433.534 457.465 620.707 269.82M595.987 245.755l24.72 24.065M408.462 433.752l25.072 23.713M456.594 434.145l187.525-187.997M481.666 457.857l187.173-187.644M644.119 246.148l24.72 24.065M456.594 434.145l25.072 23.712M503.52 435.399l187.525-187.997M528.592 459.111l187.174-187.644M691.045 247.402l24.721 24.065M503.52 435.399l25.072 23.712M550.086 437.326l187.525-187.997M575.157 461.039l187.174-187.645M737.611 249.329l24.72 24.065M550.086 437.326l25.071 23.713" class="l"/><path d="m570.378 272.62 186.95 186.48M595.163 248.916l186.996 186.527" class="m"/><path d="M781.679 436.431c.156.148-4.836 5.69-11.15 12.378s-11.559 11.993-11.715 11.845 4.836-5.689 11.15-12.378 11.559-11.992 11.715-11.845" class="n"/><path d="M781.679 436.431c.156.148-4.836 5.69-11.15 12.378s-11.559 11.993-11.715 11.845 4.836-5.689 11.15-12.378 11.559-11.992 11.715-11.845Z" class="o"/><path d="m569.72 271.22 24.785-23.703M620.041 273.216l186.95 186.481M644.826 249.513 831.822 436.04" class="m"/><path d="M831.341 437.028c.156.147-4.836 5.69-11.15 12.378s-11.558 11.992-11.714 11.845 4.836-5.689 11.15-12.378 11.558-11.992 11.714-11.845" class="n"/><path d="M831.342 437.028c.156.147-4.836 5.69-11.15 12.378s-11.559 11.993-11.715 11.845 4.836-5.689 11.15-12.378 11.559-11.992 11.715-11.845Z" class="o"/><path d="m619.383 271.817 24.785-23.704M667.791 272.615l186.951 186.481M692.576 248.912l186.996 186.527" class="m"/><path d="M879.092 436.427c.156.147-4.836 5.69-11.15 12.378s-11.559 11.992-11.715 11.845 4.836-5.689 11.15-12.378 11.56-11.992 11.715-11.845" class="n"/><path d="M879.092 436.427c.156.147-4.836 5.69-11.15 12.378s-11.558 11.993-11.714 11.845 4.836-5.689 11.15-12.378 11.558-11.992 11.714-11.845Z" class="o"/><path d="m667.134 271.216 24.784-23.703M714.586 272.512l186.95 186.481M739.371 248.809l186.996 186.527" class="m"/><path d="M925.887 436.324c.156.147-4.836 5.689-11.15 12.378s-11.559 11.992-11.715 11.845 4.836-5.69 11.15-12.378 11.559-11.992 11.715-11.845" class="n"/><path d="M925.887 436.324c.156.147-4.836 5.689-11.15 12.378s-11.559 11.992-11.715 11.845 4.837-5.689 11.15-12.378 11.559-11.992 11.715-11.845Z" class="o"/><path d="m713.928 271.112 24.785-23.703" class="m"/><path d="m734.533 436.542 187.525-187.997M759.605 460.255 946.778 272.61M922.058 248.545l24.72 24.065M734.533 436.542l25.072 23.713M782.665 436.934 970.19 248.938M807.736 460.647 994.91 273.002M970.19 248.938l24.72 24.064M782.665 436.934l25.071 23.713M829.591 438.189l187.525-187.997M854.663 461.901l187.174-187.644M1017.116 250.192l24.721 24.065M829.591 438.189l25.072 23.712M876.157 440.116l187.525-187.997M901.229 463.829l187.173-187.645M1063.682 252.119l24.72 24.065M876.157 440.116l25.072 23.713" class="p"/></g></svg>