<svg xmlns="http://www.w3.org/2000/svg" viewBox="0 0 1190.88 841.68"><defs><clipPath id="a"><path d="M0 0h1190.88v841.68H0z" style="fill:none"/></clipPath><style>.d,.e,.f,.g,.h,.i,.j{fill:none}.d{stroke:#000}.d,.e,.f,.g,.h,.i,.j{stroke-linecap:round;stroke-linejoin:round;stroke-width:2.8346px}.e{stroke:#f59a23}.f{stroke:#007aff}.g{stroke:#82218b}.h{stroke:#9b9b9b}.i{stroke:#7ec636}.j{stroke:#f65353}</style></defs><g style="isolation:isolate"><g style="clip-path:url(#a)"><path d="M406.958 127.276a2 2 0 0 0-.028-.787.63.63 0 0 0-.247-.353 2.2 2.2 0 0 0-.47-.246 3.8 3.8 0 0 0-.895-.18q-.611-.067-.88-.07t-.734.043a3.6 3.6 0 0 0-.988.253 8 8 0 0 0-.973.462 10 10 0 0 0-.946.61 9 9 0 0 0-.916.754 6 6 0 0 0-.711.782 3.1 3.1 0 0 0-.44.786 2.4 2.4 0 0 0-.156.794 1.36 1.36 0 0 0 .247.78 3 3 0 0 0 .756.748 11 11 0 0 0 1.177.73q.675.367 1.375.757a18 18 0 0 0 1.782.843q1.081.453 2.024.799a13 13 0 0 1 1.56.674 7.6 7.6 0 0 1 1.083.693 2.7 2.7 0 0 1 .69.747 2.1 2.1 0 0 1 .273.759 3 3 0 0 1-.011.82 2.5 2.5 0 0 1-.281.844 3.2 3.2 0 0 1-.503.695 2.6 2.6 0 0 1-.706.505 3 3 0 0 1-1.036.269 13 13 0 0 1-1.4.05 8 8 0 0 1-1.564-.176q-.778-.166-1.46-.38t-1.142-.331-.843-.235-.413-.203q-.042-.122 1.153-.389M414.682 137.548a3 3 0 0 0 .765-.481 9 9 0 0 0 .73-.667 8.5 8.5 0 0 0 1.343-1.894 10 10 0 0 0 .529-1.185 8.3 8.3 0 0 0 .5-2.715 6 6 0 0 0-.15-1.46 5.7 5.7 0 0 0-.415-1.216 2.4 2.4 0 0 0-.516-.74 1.1 1.1 0 0 0-.526-.277.93.93 0 0 0-.558.092 2.7 2.7 0 0 0-.66.477 6 6 0 0 0-.73.846 9 9 0 0 0-.69 1.124 9.4 9.4 0 0 0-.573 1.354 15 15 0 0 0-.435 1.588q-.186.85-.3 1.823t-.15 1.936.021 1.931a8.5 8.5 0 0 0 .296 1.82 5.5 5.5 0 0 0 .656 1.5 3.7 3.7 0 0 0 1.061 1.084 6.8 6.8 0 0 0 1.523.748 16 16 0 0 0 1.645.496 13 13 0 0 0 1.267.245 19.6 19.6 0 0 0 3.243-.154M426.713 135.022a3.7 3.7 0 0 0-.082.826q.02.076.38.077a1.7 1.7 0 0 0 .77-.211 3.8 3.8 0 0 0 .815-.58 5.6 5.6 0 0 0 .759-.862q.357-.495.672-1.026t.557-1.008a7 7 0 0 0 .403-.966 3.9 3.9 0 0 0 .036-2.309 6.8 6.8 0 0 0-.482-1.277 4.4 4.4 0 0 0-.637-.971 1.86 1.86 0 0 0-.72-.52 1.64 1.64 0 0 0-.78-.097 1.8 1.8 0 0 0-.853.397 6 6 0 0 0-.954.966 11 11 0 0 0-.956 1.406 15 15 0 0 0-.834 1.683 21 21 0 0 0-.717 1.999q-.338 1.106-.577 2.165a14 14 0 0 0-.314 2.053 9.6 9.6 0 0 0 .03 1.876 5.1 5.1 0 0 0 .418 1.55 4.5 4.5 0 0 0 .802 1.185 4.2 4.2 0 0 0 1.218.872 6.9 6.9 0 0 0 1.54.532 10 10 0 0 0 1.526.218 12 12 0 0 0 1.496-.016 9.4 9.4 0 0 0 3.208-1.13M458.747 119.653a1.1 1.1 0 0 0-.411.477 5 5 0 0 0-.285.906q-.14.597-.375 2.167t-.386 2.632-.34 2.447-.35 2.727q-.162 1.343-.292 2.712t-.187 2.56-.063 2.183.045 1.7a4.8 4.8 0 0 0 .238 1.24 2.6 2.6 0 0 0 .478.861 1.7 1.7 0 0 0 .62.47 2 2 0 0 0 .74.146 1.54 1.54 0 0 0 .828-.25 5.7 5.7 0 0 0 1.5-2.139" class="d"/><path d="M455.44 126.315a1.07 1.07 0 0 0-.643.07 1.3 1.3 0 0 0-.422.294.85.85 0 0 0-.211.588.95.95 0 0 0 .163.617 1.5 1.5 0 0 0 .48.398 2 2 0 0 0 .523.214 5 5 0 0 0 .866.043 6.1 6.1 0 0 0 1.453-.207 10.6 10.6 0 0 0 1.629-.562q.825-.359 1.768-.839t1.942-1.017a12.6 12.6 0 0 0 1.792-1.155 17 17 0 0 0 1.499-1.312q.706-.694 1.296-1.269a15 15 0 0 0 1.026-1.098 4.3 4.3 0 0 0 .66-1.036 3.2 3.2 0 0 0 .261-1.044 4.5 4.5 0 0 0-.026-.962 2.2 2.2 0 0 0-.184-.662.73.73 0 0 0-.251-.307.24.24 0 0 0-.288.06 1.7 1.7 0 0 0-.345.64q-.19.502-.42 1.245t-.413 1.57a16 16 0 0 0-.282 1.949q-.101 1.122-.164 2.37t-.099 2.81-.054 3.09-.02 3.986.059 3.29a12 12 0 0 0 .177 1.423 4.3 4.3 0 0 0 .283.949 1.16 1.16 0 0 0 .375.492.5.5 0 0 0 .458.057 1.33 1.33 0 0 0 .56-.604 8 8 0 0 0 .607-1.332 18 18 0 0 0 .55-1.864q.256-1.052.47-2.483t.455-2.777.58-2.596a9 9 0 0 1 .745-1.969 5 5 0 0 1 .896-1.19 3 3 0 0 1 1.031-.67 3.8 3.8 0 0 1 1.031-.232 2.2 2.2 0 0 1 .933.128 2.5 2.5 0 0 1 .877.598 7.3 7.3 0 0 1 .902 1.151q.466.714.912 1.554t.85 1.692.75 1.742.611 1.83.484 1.802.388 1.633q.172.77.3 1.435a19 19 0 0 0 .444 1.826M484.227 135.943q.886-.165 1.418-.293.363-.086.79-.215a6 6 0 0 0 .91-.36q.48-.232 1.01-.556a12 12 0 0 0 1.059-.732q.527-.409.987-.842a8 8 0 0 0 .793-.853 3.46 3.46 0 0 0 .773-1.934 7 7 0 0 0-.022-1.363 5.7 5.7 0 0 0-.378-1.535 6 6 0 0 0-.694-1.306 2.7 2.7 0 0 0-.816-.786 1.7 1.7 0 0 0-.857-.243 1.26 1.26 0 0 0-.856.39 4.4 4.4 0 0 0-.801 1.054 13 13 0 0 0-.757 1.605q-.378.94-.717 1.982a23 23 0 0 0-.592 2.216 15.4 15.4 0 0 0-.324 2.351 14 14 0 0 0 .022 2.154 7.6 7.6 0 0 0 .453 1.947 9 9 0 0 0 .845 1.723 8.3 8.3 0 0 0 .973 1.264 4.9 4.9 0 0 0 1.115.864 6.7 6.7 0 0 0 1.242.552 5 5 0 0 0 1.15.244 2.8 2.8 0 0 0 1.876-.911M521.902 128.98a2.5 2.5 0 0 0-.034-.853 3 3 0 0 0-.087-.467l-.034-.078q-.006-.012-.006.016v.18q0 .15.203 1.36t.275 1.99q.072.78.133 1.702t.139 2.733.106 3.208.03 1.792.015.603a.5.5 0 0 0 .061.263q.048.058.151-.155a6 6 0 0 0 .272-.798q.168-.586.372-1.42t.437-1.889.437-2.424.405-2.673.484-2.459a14.4 14.4 0 0 1 .592-1.917 5 5 0 0 1 .656-1.207 2.5 2.5 0 0 1 .737-.662 2 2 0 0 1 .836-.247 2.4 2.4 0 0 1 .662.02 1.35 1.35 0 0 1 .548.37 2.8 2.8 0 0 1 .47.557 5 5 0 0 1 .34.975 14 14 0 0 1 .337 1.61q.135.87.239 1.825t.17 2.204.092 2.266.03 2.758q.002 1.74.01 2.15a2.5 2.5 0 0 0 .044.534.26.26 0 0 0 .156.174q.117.05.316-.337a10 10 0 0 0 .49-1.226q.29-.838.608-1.733t.773-2.054.695-1.71a14 14 0 0 1 .678-1.314q.44-.763.89-1.457t.805-1.154a5.7 5.7 0 0 1 .661-.739 1.8 1.8 0 0 1 .609-.382 1.3 1.3 0 0 1 .61-.061 1 1 0 0 1 .582.323 2.6 2.6 0 0 1 .481.755 6 6 0 0 1 .341 1.046q.133.574.245 1.294t.26 1.575q.216 1.246.872 3.7M551.623 132.067a3.5 3.5 0 0 0-.232-.578 2.6 2.6 0 0 1-.159-.385 5 5 0 0 1-.148-.898q-.072-.672-.157-1.099a3.2 3.2 0 0 0-.297-.838 2.6 2.6 0 0 0-.535-.716 2.1 2.1 0 0 0-.673-.44 2 2 0 0 0-.715-.142 1.04 1.04 0 0 0-.668.228 7.7 7.7 0 0 0-1.043 1.217q-.742.985-1.16 1.582t-.836 1.289a10 10 0 0 0-.776 1.626 16 16 0 0 0-.612 1.992q-.254 1.057-.424 2.148t-.231 2.051-.052 1.637a2.5 2.5 0 0 0 .236 1.112 1.36 1.36 0 0 0 .693.638 2.9 2.9 0 0 0 1.086.215 3.5 3.5 0 0 0 1.345-.272 7.4 7.4 0 0 0 1.426-.758 17 17 0 0 0 1.493-1.153 14 14 0 0 0 1.43-1.41 12.5 12.5 0 0 0 1.107-1.465 7 7 0 0 0 .729-1.478 6.8 6.8 0 0 0 .337-1.548q.08-.805.087-1.518t-.014-1.175a5 5 0 0 0-.069-.705 1.6 1.6 0 0 0-.098-.35q-.05-.107-.18.258a5 5 0 0 0-.208.757 7 7 0 0 0-.106.912q-.029.521-.032 1.108a10 10 0 0 0 .065 1.187 10 10 0 0 0 .209 1.195q.142.594.314 1.173a11 11 0 0 0 .394 1.112 6.8 6.8 0 0 0 1.46 1.925M558.596 127.467a1.1 1.1 0 0 0-.174.424 6.6 6.6 0 0 0-.057 1.017q-.005.765.026 1.112t.155 1.134.234 1.852.195 2.27.14 2.486.077 2.498q.02 1.22.052 2.5t.088 2.283.153 1.705a11 11 0 0 0 .249 1.276 3.4 3.4 0 0 0 .81 1.477" class="d"/><path d="M558.468 128.804q-.016-.899.018-1.411a1.4 1.4 0 0 1 .13-.551.96.96 0 0 1 .33-.35 1.7 1.7 0 0 1 .651-.215 8 8 0 0 1 1.09-.075 13 13 0 0 1 1.489.083 10 10 0 0 1 1.65.326q.821.234 1.793.61a13 13 0 0 1 1.868.904 8 8 0 0 1 1.535 1.144 7.5 7.5 0 0 1 1.058 1.252 4.8 4.8 0 0 1 .627 1.406 6.6 6.6 0 0 1 .221 1.63 5.7 5.7 0 0 1-.211 1.647 13 13 0 0 1-.587 1.624q-.362.839-.774 1.675a12 12 0 0 1-.892 1.53 7.5 7.5 0 0 1-1.123 1.282 6.7 6.7 0 0 1-1.274.933 6.4 6.4 0 0 1-1.152.509 4 4 0 0 1-.958.187 2.2 2.2 0 0 1-.752-.073q-.453-.138-.666-1.143M598.117 128.456a4.6 4.6 0 0 0-.722-.085.9.9 0 0 0-.353.064 1.1 1.1 0 0 0-.32.218 1.6 1.6 0 0 0-.305.436 4.5 4.5 0 0 0-.28.73q-.133.443-.26 1.097t-.216 1.554-.12 1.902-.035 1.998.074 2.012a12 12 0 0 0 .264 1.812 5.5 5.5 0 0 0 .5 1.37 2.34 2.34 0 0 0 .888.914 3.5 3.5 0 0 0 1.302.438 8 8 0 0 0 1.593.051 5.6 5.6 0 0 0 1.645-.342 12 12 0 0 0 1.611-.749 8.4 8.4 0 0 0 1.562-1.114 7.3 7.3 0 0 0 1.25-1.451 7.7 7.7 0 0 0 .805-1.583 7.2 7.2 0 0 0 .374-1.837 14 14 0 0 0-.007-2.254 11 11 0 0 0-.445-2.355 12 12 0 0 0-.882-2.155 6 6 0 0 0-1.107-1.548 4.4 4.4 0 0 0-1.038-.772 2.7 2.7 0 0 0-.872-.273 1.36 1.36 0 0 0-.735.109 2.6 2.6 0 0 0-.61.401 5 5 0 0 0-.567.605 11 11 0 0 0-.976 1.56M617.084 122.933q.137-1.157.208-1.537a7 7 0 0 1 .297-.944q.249-.682.406-1.125t.324-1.008a10 10 0 0 0 .252-1.057 8 8 0 0 0 .108-.933 6 6 0 0 0-.012-.823 1.4 1.4 0 0 0-.189-.625.8.8 0 0 0-.381-.334 1.3 1.3 0 0 0-.528-.086 1.5 1.5 0 0 0-.694.233 7 7 0 0 0-.824.565 6.6 6.6 0 0 0-.925.921 6.3 6.3 0 0 0-.862 1.35 13 13 0 0 0-.654 1.664q-.286.897-.525 2.01t-.451 2.45-.408 2.829-.327 3.023q-.131 1.534-.144 3.155t.105 2.995.342 2.814.686 3.824.693 3.347.482 1.716.672 1.918l.6 1.655q.177.489.155.384l-.13-.604" class="d"/><path d="M609.475 139.31a7.4 7.4 0 0 1 1.683-.964q1.005-.43 1.704-.707 1.005-.399 4.425-1.862M661.457 127.838a3.7 3.7 0 0 0-.447-.986 2.7 2.7 0 0 0-.356-.428 2.5 2.5 0 0 0-.389-.306 1.8 1.8 0 0 0-.57-.207 3.3 3.3 0 0 0-.63-.08 1.1 1.1 0 0 0-.557.161 2 2 0 0 0-.568.513 3.7 3.7 0 0 0-.524 1.007 12 12 0 0 0-.452 1.599q-.206.938-.348 2.102t-.185 2.49q-.044 1.328-.019 2.696a22 22 0 0 0 .224 2.733 18 18 0 0 0 .491 2.372 8.4 8.4 0 0 0 .713 1.764 3.7 3.7 0 0 0 1.044 1.209 3.56 3.56 0 0 0 1.37.61 4.2 4.2 0 0 0 1.5.046 4.5 4.5 0 0 0 1.598-.606q.843-.493 1.78-1.175a17.5 17.5 0 0 0 3.351-3.72M670.433 126.595a.7.7 0 0 0-.543.05 1.3 1.3 0 0 0-.65.604 5.2 5.2 0 0 0-.48 1.181 12 12 0 0 0-.333 1.554q-.127.837-.155 1.253t-.04 1.896.042 2.456a14.5 14.5 0 0 0 .225 1.887 7.6 7.6 0 0 0 .474 1.611A3.47 3.47 0 0 0 671 140.98a4.6 4.6 0 0 0 1.276.235 3.2 3.2 0 0 0 1.259-.195 4.3 4.3 0 0 0 1.196-.704 4.5 4.5 0 0 0 1.01-1.162 4.7 4.7 0 0 0 .583-1.479 5.8 5.8 0 0 0 .066-1.789 7.7 7.7 0 0 0-.603-2.173 28 28 0 0 0-1.253-2.551 25 25 0 0 0-1.543-2.476 6.8 6.8 0 0 0-1.579-1.656 4 4 0 0 0-1.37-.67 3.1 3.1 0 0 0-.952-.082.79.79 0 0 0-.562.294 1.26 1.26 0 0 0-.246.601 8.4 8.4 0 0 0-.035 1.452M682.93 117.646a1.03 1.03 0 0 0-.361.469 4.7 4.7 0 0 0-.284.963 13 13 0 0 0-.202 1.526q-.075.906-.083 2.785t.015 3.328q.023 1.447.033 2.871t.019 3.768.033 3.087.063 1.367q.039.625.149 1.454a14 14 0 0 0 .248 1.401 3.4 3.4 0 0 0 .303.855.67.67 0 0 0 .377.342q.213.059.491-.23a10 10 0 0 0 1.032-2.07q.753-1.783 1.278-2.932t1.015-2.512.947-2.908.893-2.797a19 19 0 0 1 .79-1.973 5.2 5.2 0 0 1 .698-1.116 2.5 2.5 0 0 1 .539-.504 1.1 1.1 0 0 1 .573-.095 1.02 1.02 0 0 1 .713.366 2.4 2.4 0 0 1 .463.654 5.4 5.4 0 0 1 .264 1.073q.135.776.231 1.854t.226 2.181.316 2.341.394 2.416q.208 1.177.417 2.16a13 13 0 0 0 .434 1.601 2.4 2.4 0 0 0 .533.921 1.07 1.07 0 0 0 .52.334 1.44 1.44 0 0 0 .7-.208 5.3 5.3 0 0 0 1.708-1.964M700.208 130.36q.023-.828.072-1.475.034-.437.054-1.125a2.3 2.3 0 0 0-.005-.618l-.126.35a4.3 4.3 0 0 0-.168.894q-.068.616-.09 1.416t-.025 1.69.06 2.028.15 2.168.264 2.13a11.6 11.6 0 0 0 .433 1.86 4.5 4.5 0 0 0 .692 1.323 2.7 2.7 0 0 0 1.041.832 3.8 3.8 0 0 0 1.28.325 3.6 3.6 0 0 0 1.274-.125 2.6 2.6 0 0 0 1.1-.668 3.9 3.9 0 0 0 .84-1.362 7.8 7.8 0 0 0 .477-1.913 12 12 0 0 0 .024-2.39 17 17 0 0 0-.509-2.888q-.402-1.542-.925-3.096a15 15 0 0 0-1.05-2.491 6 6 0 0 0-1.05-1.425 3.6 3.6 0 0 0-.888-.654 1.17 1.17 0 0 0-1.178.189M710.006 126.293q.078.578.405 2.217t.488 2.524q.16.886.288 1.967t.187 2.033q.06.952.121 2.57t.095 2.11q.034.49.066.786a1.4 1.4 0 0 0 .09.41q.057.114.138.034a7 7 0 0 0 .435-1.222q.354-1.143.624-1.951t.606-1.86.67-2.317.7-2.528a22 22 0 0 1 .772-2.255 12 12 0 0 1 .756-1.573 4 4 0 0 1 .732-.924 1.74 1.74 0 0 1 .774-.431 1.8 1.8 0 0 1 .778-.006 1.5 1.5 0 0 1 .733.42 2.8 2.8 0 0 1 .6.976 8 8 0 0 1 .415 1.521 19 19 0 0 1 .246 1.966q.084 1.08.115 2.303t.035 2.466q.004 1.244-.15 3.226t-.152 2.712q0 .73.152.71t.43-.527a9.6 9.6 0 0 0 .603-1.445q.323-.937.61-2.086t.595-2.648a27 27 0 0 1 .754-2.87 17 17 0 0 1 .957-2.38 15 15 0 0 1 .879-1.547 4.3 4.3 0 0 1 .661-.794 1.03 1.03 0 0 1 .52-.282q.226-.026.383.348a4 4 0 0 1 .241.968q.084.594.141 2.086t.105 2.331q.047.84.112 1.653t.148 1.527.204 1.373a4.1 4.1 0 0 0 .792 1.778M733.475 126.711l.211-.43q.015-.028.01.017l-.025.365q-.023.32-.108 1.011c-.085.691-.1.985-.13 1.573s-.05 1.208-.058 1.859-.013 1.772-.014 3.362.024 2.808.074 3.655a17 17 0 0 0 .285 2.331 8 8 0 0 0 .618 1.912 5.2 5.2 0 0 0 .982 1.433 4.5 4.5 0 0 0 1.182.88 3.5 3.5 0 0 0 1.145.36 1.63 1.63 0 0 0 1.05-.25 2.8 2.8 0 0 0 .933-1.056 10.3 10.3 0 0 0 .778-1.852 13.5 13.5 0 0 0 .53-2.473 23 23 0 0 0 .16-3.017 23 23 0 0 0-.28-3.35q-.264-1.7-.54-3.023a13 13 0 0 0-.536-1.988 4.6 4.6 0 0 0-.467-.95 1.8 1.8 0 0 0-.34-.383.24.24 0 0 0-.262-.03 2.7 2.7 0 0 0-.613.91M746.685 116.44q.045-.285-.173-.337a.55.55 0 0 0-.363.065 1.07 1.07 0 0 0-.412.481 3.3 3.3 0 0 0-.298.763 10 10 0 0 0-.188 1.227q-.093.843-.133 1.937t-.068 1.783q-.026.688-.035 1.871t-.01 2.769.006 3.039.104 2.984.314 2.858a24 24 0 0 0 .544 2.522 16 16 0 0 0 .68 2.013 6 6 0 0 0 .776 1.36 2.8 2.8 0 0 0 .824.754q.568.304 2.05-.645M755.056 129.37a12 12 0 0 0 .094-1.513q.016-.703.005-.849a.2.2 0 0 0-.135-.19q-.122-.045-.278.312a5.6 5.6 0 0 0-.292.995q-.137.637-.241 1.477t-.151 1.72q-.048.882-.052 1.91t.031 2.036a14 14 0 0 0 .206 1.943 9 9 0 0 0 .466 1.692 4 4 0 0 0 .848 1.328 3.4 3.4 0 0 0 1.222.834 5.2 5.2 0 0 0 1.344.332 5 5 0 0 0 1.304-.028 2.34 2.34 0 0 0 1.116-.484 3.9 3.9 0 0 0 .91-1.133 7.5 7.5 0 0 0 .687-1.641 8.3 8.3 0 0 0 .302-2.03 10 10 0 0 0-.247-2.47q-.29-1.333-.772-2.896t-.899-2.669a7 7 0 0 0-.844-1.682 2.8 2.8 0 0 0-.862-.815 1.9 1.9 0 0 0-.735-.262.56.56 0 0 0-.472.154.93.93 0 0 0-.235.467 3 3 0 0 0-.067.55 4 4 0 0 0 .271 1.212M773.76 128.65a1.56 1.56 0 0 0-.177-1.342q-.268-.429-.448-.662t-.378-.452a4 4 0 0 0-.432-.406 3 3 0 0 0-.473-.31 1.4 1.4 0 0 0-.483-.154 1.2 1.2 0 0 0-.516.06 1.5 1.5 0 0 0-.564.368 4.8 4.8 0 0 0-.63.782 7.3 7.3 0 0 0-.667 1.32 15 15 0 0 0-.587 1.795q-.259.977-.458 2.107t-.303 2.439-.105 2.38a8.4 8.4 0 0 0 .21 1.962 5.3 5.3 0 0 0 .57 1.492 3 3 0 0 0 .789.91 2.2 2.2 0 0 0 .908.392 2.7 2.7 0 0 0 1.01-.03 3.5 3.5 0 0 0 1.148-.506 6.7 6.7 0 0 0 1.225-1.029 13 13 0 0 0 1.125-1.353 10.4 10.4 0 0 0 .888-1.46 7.7 7.7 0 0 0 .58-1.614 12 12 0 0 0 .29-1.832q.081-.962.097-1.78a12 12 0 0 0-.042-1.42 6 6 0 0 0-.155-.947 1.6 1.6 0 0 0-.204-.494q-.108-.148-.195-.087t-.139.405a8 8 0 0 0-.074.816q-.02.472-.023 1.076t.042 1.417.14 1.783.218 2.037.294 2.372.385 2.548q.213 1.244.484 2.565t.53 2.523q.261 1.202.407 2.278a18 18 0 0 1 .168 1.892q.022.815-.02 1.499a5 5 0 0 1-.191 1.158 2.3 2.3 0 0 1-.343.725.82.82 0 0 1-.455.313 1.3 1.3 0 0 1-.56 0 3.8 3.8 0 0 1-1.017-.524q-.72-.462-1.082-.73a6 6 0 0 1-.631-.533 4.5 4.5 0 0 1-.752-1.905M784.754 127.382a5 5 0 0 0 .12-.866.22.22 0 0 0-.133-.162.9.9 0 0 0-.361-.078.48.48 0 0 0-.352.083 1.4 1.4 0 0 0-.248.311 2.1 2.1 0 0 0-.23.617 11 11 0 0 0-.18 1.115q-.085.71-.13 1.565t-.05 3.088.07 3.365a17 17 0 0 0 .263 2.102 6.5 6.5 0 0 0 .532 1.655 3.2 3.2 0 0 0 .868 1.1 3.05 3.05 0 0 0 1.095.568 4.7 4.7 0 0 0 1.218.155 3.9 3.9 0 0 0 1.38-.277 6 6 0 0 0 1.444-.796 6.6 6.6 0 0 0 1.305-1.292 9.5 9.5 0 0 0 1.02-1.634 11 11 0 0 0 .696-1.85 18 18 0 0 0 .454-2.216q.178-1.227.242-2.405t.094-1.987q.03-.81.054-1.191.023-.382.05-.534c.027-.152.033-.126.048-.075l.114.375q.09.3.279 1.522c.189 1.222.244 1.51.357 2.087s.236 1.236.373 1.976.263 1.485.382 2.237.248 1.633.386 2.64.277 1.967.416 2.876.278 1.836.413 2.78.244 1.821.326 2.633.137 1.565.16 2.258.038 1.307.04 1.843a9.5 9.5 0 0 1-.087 1.412 4 4 0 0 1-.289 1.052 2.3 2.3 0 0 1-.443.693 1.7 1.7 0 0 1-.587.385 2.4 2.4 0 0 1-.735.166q-.395.028-.79.024a2.7 2.7 0 0 1-.797-.133 4.7 4.7 0 0 1-.72-.29q-.318-.164-.59-.338a3.5 3.5 0 0 1-.49-.372 2.2 2.2 0 0 1-.365-.43 1.8 1.8 0 0 1-.226-.517 21 21 0 0 1 .028-3.337M800.935 132.306q.074-.196-.154-.231-.232-.036-.15.627M800.609 137.718l.133.219M753.507 311.085a1.42 1.42 0 0 0-.151-1.108 4.2 4.2 0 0 0-.483-.871 3.5 3.5 0 0 0-.55-.601 3.8 3.8 0 0 0-.744-.467 2.7 2.7 0 0 0-.84-.283 1.5 1.5 0 0 0-.685.05 1.5 1.5 0 0 0-.619.463 6.5 6.5 0 0 0-.769 1.29q-.457.93-.887 2.08a16.5 16.5 0 0 0-.666 2.229q-.236 1.078-.32 1.71t-.128 1.696-.048 1.592.043 1.501a10 10 0 0 0 .132 1.385 5.6 5.6 0 0 0 .307.954 3.3 3.3 0 0 0 .394.76 1.1 1.1 0 0 0 .482.332 1.8 1.8 0 0 0 .502.125.74.74 0 0 0 .403-.104 4.7 4.7 0 0 0 .831-.87 11 11 0 0 0 1.178-1.764 11.6 11.6 0 0 0 .796-1.717q.242-.706.419-1.383a15 15 0 0 0 .305-1.56q.13-.883.236-1.576t.368-.75q.26-.056.484.334t.916 2.069 1.196 2.868.806 2.113.52 1.883.318 1.521.205 1.445.172 1.811.091 2.161-.026 1.952-.11 1.083a6 6 0 0 1-.208.83 5 5 0 0 1-.348.852 1.7 1.7 0 0 1-.363.517 1.9 1.9 0 0 1-.528.262 3.6 3.6 0 0 1-1.173.109 4.7 4.7 0 0 1-1.157-.13 9 9 0 0 1-1.014-.423q-.665-.314-1.021-.508a5.7 5.7 0 0 1-.777-.528 3.7 3.7 0 0 1-.651-.636 1.35 1.35 0 0 1-.278-.646 2.34 2.34 0 0 1 .383-1.33M763.213 309.743v-.342l.002.022.048.57q.046.542.13 1.131.086.59.17 1.363t.201 2.145.208 2.699a32.5 32.5 0 0 0 .577 4.179M764.149 299.494v-.313q0-.008.007.01l.142.354a4.8 4.8 0 0 0 .82 1.096 10 10 0 0 0 1.655 1.574M769.359 303.377a2 2 0 0 1 .35.767 14 14 0 0 1 .321 1.576q.163 1.02.268 1.824t.312 2.779q.206 1.972.297 3.073t.24 2.226q.15 1.125.305 2.03t.311 1.567a7.6 7.6 0 0 0 .324 1.077 1.6 1.6 0 0 0 .37.596.7.7 0 0 0 .41.199q.209.018.427-.271a4 4 0 0 0 .452-.865q.233-.576.478-1.368t.787-2.977.873-3.246.69-2.054a19 19 0 0 1 .732-1.767 12 12 0 0 1 1.353-2.174M780.543 319.948a.82.82 0 0 0 .47.313 2.4 2.4 0 0 0 .494.113 1.05 1.05 0 0 0 .519-.222 4 4 0 0 0 .765-.685 9 9 0 0 0 .997-1.466 12 12 0 0 0 .903-1.872 12 12 0 0 0 .475-1.596 7.5 7.5 0 0 0 .177-1.419 4.15 4.15 0 0 0-.815-2.617 9 9 0 0 0-.964-1.167 4.5 4.5 0 0 0-.888-.735 1.6 1.6 0 0 0-.765-.238q-.378-.012-.579.456a8 8 0 0 0-.384 1.214q-.185.745-.388 1.994t-.24 1.841-.038 1.631.092 2.074a14 14 0 0 0 .326 2.002 17 17 0 0 0 .51 1.762q.28.795.46 1.202a8 8 0 0 0 .36.716 4 4 0 0 0 .362.526 2.5 2.5 0 0 0 .433.402 1.9 1.9 0 0 0 .826.274 3.92 3.92 0 0 0 2.817-.75 13.6 13.6 0 0 0 2.813-3.719M790.742 310.082q-.033 1.968.037 3.098.048.772.145 1.665t.296 2.257.31 2.01.24 1.22a5.5 5.5 0 0 0 .269.914 1 1 0 0 0 .296.44.3.3 0 0 0 .322.022q.168-.083.313-.569t.288-1.233.274-1.917.329-2.455a20 20 0 0 1 .475-2.275q.276-.99.61-1.858a9 9 0 0 1 .654-1.409 3.2 3.2 0 0 1 .636-.804 1.3 1.3 0 0 1 .637-.313.7.7 0 0 1 .601.201 2.3 2.3 0 0 1 .515.825 12 12 0 0 1 .46 1.375q.224.803.857 3.563 1.08 4.708 1.19 5.795M817.52 301.64q.006 1.006-.052 2.346-.039.878-.043 2.826t.02 4.03q.026 2.082.063 3.413t.074 2.046q.036.716.21 2.254a21 21 0 0 0 .333 2.212 2.7 2.7 0 0 0 .628 1.374M818.642 312.208a9 9 0 0 1-.269-1.055 6 6 0 0 1-.11-.8.86.86 0 0 1 .093-.452.9.9 0 0 1 .37-.337 3.7 3.7 0 0 1 .635-.267 4 4 0 0 1 .858-.167q.49-.048 1.041-.053a4.5 4.5 0 0 1 1.12.136 4.5 4.5 0 0 1 1.104.435 7 7 0 0 1 1.054.717 9 9 0 0 1 .981.933 10 10 0 0 1 .848 1.072 4.4 4.4 0 0 1 .586 1.216 6.5 6.5 0 0 1 .256 1.463 14 14 0 0 1 .014 1.66 8 8 0 0 1-.292 1.74q-.248.889-.984 2.768T824.821 324t-.755 1.563a6.2 6.2 0 0 1-.727 1.077 1.95 1.95 0 0 1-.739.562 1.1 1.1 0 0 1-.683.068q-.434-.113-.726-2.857M831.426 306.637q.143-.094.187.474t.104 1.194.311 2.234.497 3.365.399 2.452a9 9 0 0 0 .333 1.172 2.8 2.8 0 0 0 .383.733.9.9 0 0 0 .48.33 1.03 1.03 0 0 0 .585-.026 1.55 1.55 0 0 0 .657-.505 5.6 5.6 0 0 0 .696-1.087 12 12 0 0 0 .627-1.482q.28-.8.496-1.51t.4-1.26a6 6 0 0 1 .365-.897 2 2 0 0 1 .377-.53.74.74 0 0 1 .387-.215.49.49 0 0 1 .412.211 2.5 2.5 0 0 1 .427.801 12 12 0 0 1 .427 1.594q.221 1.034.587 3.63t.55 4.29q.182 1.695.236 3.51t-.013 3.6a27 27 0 0 1-.213 2.77q-.147.984-.499 2.435t-.609 2.237a18 18 0 0 1-.843 2.03 10.8 10.8 0 0 1-1.312 2.15 5.1 5.1 0 0 1-1.577 1.357 4.1 4.1 0 0 1-1.707.496 3.7 3.7 0 0 1-1.572-.241 6.7 6.7 0 0 1-1.465-.84 8 8 0 0 1-1.42-1.365 9.3 9.3 0 0 1-1.193-1.909q-.755-1.58-.74-6.628M351.601 306.455a7 7 0 0 0-1.84-.466 5.4 5.4 0 0 0-.874.006 2.9 2.9 0 0 0-.733.164 3.5 3.5 0 0 0-.751.412 3.1 3.1 0 0 0-.72.687 1.35 1.35 0 0 0-.313.568q-.008.167.431.365a9 9 0 0 0 1.394.435q.956.237 1.793.394t1.877.295 2.493.26 3.163.176 5.075.06 4.933-.062q1.567-.067 3.798-.27t4.825-.466 3.753-.31 2.12-.05a5.2 5.2 0 0 1 1.495.163 2.5 2.5 0 0 1 .726.32l.275.218q.081.064-.047.041l-.432-.076a4.3 4.3 0 0 1-.996-.4q-.693-.346-1.565-.822t-1.42-.714-2.082-.804-2.392-.898a17 17 0 0 1-1.61-.716 9 9 0 0 1-.963-.536l-.229-.165q-.018-.012.05.017l.868.381q.8.352 1.424.559t2.162.626 2.267.6 1.858.556 1.957.707a8 8 0 0 1 1.107.51 2.7 2.7 0 0 1 .544.472 1 1 0 0 1 .26.712.96.96 0 0 1-.341.721 5.5 5.5 0 0 1-.986.667q-.65.363-1.312.691t-1.308.604a13 13 0 0 1-1.45.506 9 9 0 0 0-1.14.386q-.48.22-.327 2.078M272.229 508.922a1 1 0 0 0-.46-.24q-.093.002-.13.569t-.058 1.594-.077 2.774-.094 2.824-.196 4.04-.18 3.538-.035 1.839.033 1.112l.392-1.34" class="d"/><path d="m271.422 509.94-.079-.53q-.001-.017.003-.002l.09.259a4 4 0 0 0 .267.586q.184.343.807 1.398t1.03 1.78.858 1.682.932 2.072.97 2.198.995 2.226q.509 1.142.97 2.185a19 19 0 0 1 .717 1.844q.258.8.437 1.451t.322 1.097a4.3 4.3 0 0 0 .251.651.45.45 0 0 0 .266.247q.158.041.202-.21t.078-.73.051-1.237.019-1.684-.033-1.984-.17-2.342q-.138-1.285-.377-2.659t-.518-2.834q-.279-1.461-.447-2.633t-.192-1.83a5.4 5.4 0 0 1 .04-1.04 2.4 2.4 0 0 1 .189-.638 1.6 1.6 0 0 1 .25-.394.746.746 0 0 1 .945-.192M286.653 517.252q-.026-.153-.41-.384a1.7 1.7 0 0 0-.467-.201.8.8 0 0 0-.32-.033.44.44 0 0 0-.21.14 1.3 1.3 0 0 0-.212.315 5 5 0 0 0-.203.478q-.104.283-.218.67a9 9 0 0 0-.203.872 12 12 0 0 0-.145 1.17q-.055.684-.067 1.587t.002 1.82a13.5 13.5 0 0 0 .178 1.926q.162 1.007.397 1.949a8.5 8.5 0 0 0 .49 1.491 2.3 2.3 0 0 0 .552.801 1.26 1.26 0 0 0 .706.292 2.4 2.4 0 0 0 .92-.109 4.4 4.4 0 0 0 1.115-.538 8 8 0 0 0 1.213-.976 6.6 6.6 0 0 0 1.034-1.277 9 9 0 0 0 .731-1.469 16 16 0 0 0 .527-1.595 7.8 7.8 0 0 0 .266-1.564 7.3 7.3 0 0 0-.097-1.615 8 8 0 0 0-.53-1.787 10.5 10.5 0 0 0-.945-1.76 13 13 0 0 0-1.256-1.595 8.5 8.5 0 0 0-1.351-1.213 3 3 0 0 0-1.129-.538 1.3 1.3 0 0 0-.814.084 1.7 1.7 0 0 0-.601.513 4.4 4.4 0 0 0-.463.778q-.2.43-.366.867a9 9 0 0 0-.278.87 4.4 4.4 0 0 0-.138.819 5.5 5.5 0 0 0 .214 1.57M300.535 509.209q.009-.29-.079-.268-.062.015-.152.67t-.152 1.291-.12 1.455-.238 3.212-.28 3.725-.187 2.715-.106 2.46.003 2.048a9 9 0 0 0 .19 1.75 4.6 4.6 0 0 0 .414 1.22 3.5 3.5 0 0 0 .517.73 2.8 2.8 0 0 0 .563.46 1.3 1.3 0 0 0 .546.202 1.1 1.1 0 0 0 .558-.111 3.3 3.3 0 0 0 .69-.458 17 17 0 0 0 1.721-1.814" class="d"/><path d="M295.906 516.599a2.7 2.7 0 0 0-.531.12l-.085.041q-.015.008.006.008l.116.002a8 8 0 0 0 .956-.27q.862-.27 1.639-.552 1.115-.405 5.758-2.27M308.491 513.83a6 6 0 0 1-.025 1.015q-.037.42-.049 1.854t-.011 3.344-.032 3.902-.033 2.795a8 8 0 0 0 .109 1.402 4.6 4.6 0 0 0 .275.984q.234.542.924.29M307.626 508.937q-.283-.034-.305.157a1 1 0 0 0 .05.36 4.8 4.8 0 0 0 1.2 1.314M324.38 516.857q-.698-.546-1.196-.917-.338-.25-.67-.547t-1.148-1.132a8.6 8.6 0 0 0-.984-.934.85.85 0 0 0-.34-.114.7.7 0 0 0-.37.077 1.14 1.14 0 0 0-.4.36 4.5 4.5 0 0 0-.413.687 8 8 0 0 0-.414 1.013q-.203.592-.377 1.252t-.33 1.399-.295 1.67-.227 1.938-.127 1.993-.042 1.913a9 9 0 0 0 .12 1.619 4.5 4.5 0 0 0 .354 1.165 2.14 2.14 0 0 0 .613.768 2.1 2.1 0 0 0 .94.39 8 8 0 0 0 1.262.105 8 8 0 0 0 1.325-.084 9.6 9.6 0 0 0 2.554-.962M330.51 523.667a1.7 1.7 0 0 0-.534.43 1 1 0 0 0-.165.334 1 1 0 0 0-.044.312q.004.135.172.199a1.3 1.3 0 0 0 .454.063 1.4 1.4 0 0 0 .644-.19 4.8 4.8 0 0 0 .745-.502 7.4 7.4 0 0 0 .799-.76 8 8 0 0 0 .795-1.028q.384-.58.78-1.296t.787-1.505a14 14 0 0 0 .656-1.541 6.5 6.5 0 0 0 .344-1.503 4.9 4.9 0 0 0-.09-1.534 3.74 3.74 0 0 0-.653-1.448 9 9 0 0 0-.988-1.148 4 4 0 0 0-.864-.672.61.61 0 0 0-.61-.038 1.8 1.8 0 0 0-.53.632q-.283.484-.647 1.177t-.743 1.568-.753 1.855-.72 2.095a18 18 0 0 0-.547 2.304 18.5 18.5 0 0 0-.25 2.296 9.6 9.6 0 0 0 .122 2.074 4.1 4.1 0 0 0 .58 1.583 3.4 3.4 0 0 0 1.015 1 6.2 6.2 0 0 0 1.279.62 6.5 6.5 0 0 0 1.319.32 14 14 0 0 0 1.46.097q1.188.022 3.746-.061M366.152 509.298a1.4 1.4 0 0 0-.598.074q-.083.052-.125.353a2.5 2.5 0 0 0 0 .657 14 14 0 0 0 .416 1.632q.372 1.276.598 2.258t.41 2.098.303 2.318.182 2.493.078 2.35.017 1.94.03 1.536a6 6 0 0 0 .103.988 2.2 2.2 0 0 0 .179.53 1.5 1.5 0 0 0 .185.288.28.28 0 0 0 .16.102q.074.01.14-.093a1.5 1.5 0 0 0 .138-.406q.073-.303.144-.793t.22-2.122.263-2.629.295-2.115a20 20 0 0 1 .513-2.282 9 9 0 0 1 .856-2.066 5.6 5.6 0 0 1 1.166-1.451 4.1 4.1 0 0 1 1.242-.768 3.6 3.6 0 0 1 1.016-.238 1.56 1.56 0 0 1 .736.122 1.9 1.9 0 0 1 .598.445 3 3 0 0 1 .506.8 7 7 0 0 1 .396 1.162 11 11 0 0 1 .258 1.463q.088.799.113 1.758t.027 2.16-.04 2.309-.078 2.193-.038 1.982a5 5 0 0 0 .134 1.355 1.06 1.06 0 0 0 .43.634 1.45 1.45 0 0 0 .664.201q.534.036 1.82-.995M384.953 515.053a.78.78 0 0 0-.302-.435.56.56 0 0 0-.294-.074.44.44 0 0 0-.321.184 3 3 0 0 0-.324.472q-.168.289-.346.64t-.326.715-.288.796a10 10 0 0 0-.256.986 12 12 0 0 0-.187 1.227q-.07.67-.12 1.522t-.072 1.791-.023 1.754a14 14 0 0 0 .085 1.588 8 8 0 0 0 .28 1.418 2.9 2.9 0 0 0 .49 1.005 2 2 0 0 0 .684.547 2.7 2.7 0 0 0 .82.238 3.2 3.2 0 0 0 .85-.006 2.9 2.9 0 0 0 .917-.323q.502-.263 1.15-.69a10.6 10.6 0 0 0 1.29-1.013 7 7 0 0 0 1.122-1.31 7.5 7.5 0 0 0 .764-1.463 5.6 5.6 0 0 0 .354-1.443 7 7 0 0 0-.022-1.528 8.2 8.2 0 0 0-.432-1.784 10.2 10.2 0 0 0-.913-1.906q-.574-.945-1.261-1.881t-1.244-1.594a4.3 4.3 0 0 0-.883-.855.73.73 0 0 0-.507-.153.6.6 0 0 0-.336.336 7 7 0 0 0-.317.7q-.231.593-.711 2.344M395.964 514.982a3 3 0 0 1 .052-.918q.046-.054.115.1a3 3 0 0 1 .157.54q.088.388.184.984t.2 1.329.195 1.538.18 1.8.23 3.162.22 3.091a12 12 0 0 0 .22 1.56 2.3 2.3 0 0 0 .364.916 1.1 1.1 0 0 0 .526.376 2.1 2.1 0 0 0 .66.09 1.3 1.3 0 0 0 .701-.225 3 3 0 0 0 .677-.622 6.7 6.7 0 0 0 .668-.993q.333-.59 1.013-2.182t1-2.51a11 11 0 0 0 .483-1.953 16.5 16.5 0 0 0 .193-2.099q.03-1.062.033-1.98t.02-1.406a1.9 1.9 0 0 1 .075-.603q.06-.114.123-.002a1.9 1.9 0 0 1 .113.557q.05.444.078 1.075t.046 2.269.034 2.635.083 2.025q.066 1.03.197 1.894a8 8 0 0 0 .349 1.477 2.6 2.6 0 0 0 .518.93 1.14 1.14 0 0 0 .658.372 2 2 0 0 0 .818-.073 5.4 5.4 0 0 0 1.018-.417 5.7 5.7 0 0 0 1.065-.723 5.2 5.2 0 0 0 .916-1.03 4.8 4.8 0 0 0 .612-1.209 5.8 5.8 0 0 0 .265-1.307q.064-.697.057-1.652a10.7 10.7 0 0 0-.22-2.019q-.212-1.063-.542-2.18t-.64-2.215q-.312-1.1-.45-1.708t-.167-.812l-.03-.222q-.003-.015.005.008l.19.622M435.66 506.359q.066-.376-.13-.368a.32.32 0 0 0-.25.184 5 5 0 0 0-.244.476 6 6 0 0 0-.26.692 7 7 0 0 0-.21.859q-.085.463-.137 1.037t-.058 1.18a8 8 0 0 0 .075 1.164 3.12 3.12 0 0 0 1.26 1.76M440.11 507.334a.45.45 0 0 0-.328.045.76.76 0 0 0-.242.24 2.4 2.4 0 0 0-.252.5 3.7 3.7 0 0 0-.193.79 18 18 0 0 0 .047 2.923M449.758 514.822a3.7 3.7 0 0 0-1.12-.755 2.7 2.7 0 0 0-.63-.149q-.308-.032-.668-.035a5 5 0 0 0-.818.069 9 9 0 0 0-.945.203q-.485.131-.95.298a9 9 0 0 0-.863.359 3.4 3.4 0 0 0-.643.388 3 3 0 0 0-.4.376 1.7 1.7 0 0 0-.235.346.63.63 0 0 0-.067.328.7.7 0 0 0 .218.383 5.6 5.6 0 0 0 .586.52 8 8 0 0 0 1.008.655q.629.352 1.467.73t1.724.79 1.773.835 1.902.931a14.4 14.4 0 0 1 1.745 1.016 4.4 4.4 0 0 1 1.1 1.032 2.7 2.7 0 0 1 .47 1.069 2.9 2.9 0 0 1 .012 1.013 3.7 3.7 0 0 1-.298.922 7 7 0 0 1-.475.847 3.3 3.3 0 0 1-.538.642 2.6 2.6 0 0 1-.61.407 3.5 3.5 0 0 1-.778.26 5 5 0 0 1-.918.114 8 8 0 0 1-.967-.025 3.5 3.5 0 0 1-.96-.221 3 3 0 0 1-.81-.462 4 4 0 0 1-.636-.661 4.5 4.5 0 0 1-.503-.843 2.8 2.8 0 0 1-.255-.853 2 2 0 0 1 .041-.723q.12-.476 1.444-1.405M457.556 516.347a.42.42 0 0 0-.407-.271q-.183.007-.219.215a4 4 0 0 0-.04.558q-.003.35.024.832t.118 1.05.202 1.306.218 1.601q.106.864.19 1.676t.13 1.63.088 2.17.092 1.657a1.3 1.3 0 0 0 .122.428.25.25 0 0 0 .155.134q.08.012.268-.24a2.9 2.9 0 0 0 .335-.61q.147-.358.307-.883t.323-1.237q.163-.71.324-1.55t.295-1.768.24-2.08.266-2.395a18 18 0 0 1 .416-2.23 8 8 0 0 1 .575-1.608 2.7 2.7 0 0 1 .648-.887 1.25 1.25 0 0 1 .62-.3 1.2 1.2 0 0 1 .537.05 1.1 1.1 0 0 1 .47.342 2.6 2.6 0 0 1 .404.708 8 8 0 0 1 .341 1.08q.159.63.299 1.367a15 15 0 0 1 .204 1.506q.065.768.078 1.754a19 19 0 0 1-.08 1.983 23 23 0 0 1-.474 2.714q-.38 1.714-.456 2.115a2.5 2.5 0 0 0-.064.567q.013.165.139.007a4 4 0 0 0 .336-.556q.21-.397.517-1.03t.636-1.34.707-1.584.78-2.025.733-2.34.65-2.46q.319-1.27.652-2.26a3.9 3.9 0 0 1 .665-1.345 1.23 1.23 0 0 1 .694-.412 2 2 0 0 1 .771.038 1.66 1.66 0 0 1 .728.376 2.7 2.7 0 0 1 .563.712 5.4 5.4 0 0 1 .442 1.103 12 12 0 0 1 .33 1.473q.13.8.194 1.707t.077 2.058-.08 2.315-.257 2.303-.246 2.265a14 14 0 0 0-.039 1.866 4.8 4.8 0 0 0 1.358 2.588M485.162 519.233a3.8 3.8 0 0 0 1.22-.037 1 1 0 0 0 .3-.226 1.5 1.5 0 0 0 .27-.403 2.4 2.4 0 0 0 .18-.568 4.5 4.5 0 0 0 .078-.715 2.3 2.3 0 0 0-.132-.825 6 6 0 0 0-.416-.933q-.27-.498-.619-1.015a7 7 0 0 0-.726-.914 4.3 4.3 0 0 0-.811-.67 2.16 2.16 0 0 0-.9-.331 2.2 2.2 0 0 0-1.01.136 4.1 4.1 0 0 0-1.131.651 4.8 4.8 0 0 0-1.04 1.141 10 10 0 0 0-.842 1.585q-.39.902-.793 1.973t-.75 2.24q-.35 1.17-.616 2.281a15 15 0 0 0-.354 2.014 7 7 0 0 0-.008 1.505 2.6 2.6 0 0 0 .342 1.03 2.25 2.25 0 0 0 .678.703 2 2 0 0 0 .85.332 3.6 3.6 0 0 0 .91-.003 4 4 0 0 0 1.095-.337 9 9 0 0 0 1.29-.721 10 10 0 0 0 1.328-1.053 10.4 10.4 0 0 0 1.2-1.328 7.2 7.2 0 0 0 .872-1.465 8.8 8.8 0 0 0 .527-1.698 14 14 0 0 0 .264-2.095q.063-1.144.056-2.135t-.031-1.648-.026-.886l-.003-.241q0-.012-.003.013l-.067.507q-.064.48-.308 1.7t-.344 1.912q-.099.693-.19 1.559t-.136 1.759-.05 1.824.069 1.887a4.7 4.7 0 0 0 .356 1.58 2.03 2.03 0 0 0 .824.941 3.4 3.4 0 0 0 1.253.417 5.5 5.5 0 0 0 1.33.034 3.93 3.93 0 0 0 2.05-1.11M496.045 507.303q.027-.174-.07-.228-.067-.037-.154.083a2 2 0 0 0-.204.536q-.117.415-.269 1.115t-.319 1.648-.337 2.075-.335 2.477-.275 2.663-.152 2.63-.038 2.446a10 10 0 0 0 .164 1.929 10 10 0 0 0 .412 1.487 9 9 0 0 0 .538 1.21 4.2 4.2 0 0 0 .58.84 2.6 2.6 0 0 0 .658.516 1.95 1.95 0 0 0 .774.234 5.1 5.1 0 0 0 2.084-.63M503.83 506.196a1.7 1.7 0 0 0-.552.678 6 6 0 0 0-.392.988q-.207.648-.462 1.664t-.515 2.13-.519 2.402-.498 2.787q-.24 1.497-.408 2.84t-.266 2.604-.114 2.304.046 1.82a6.5 6.5 0 0 0 .246 1.375 5.6 5.6 0 0 0 .434 1.052 3 3 0 0 0 .547.737 3.8 3.8 0 0 0 1.533.72M510.83 502.654a10 10 0 0 0-.604 1.649q-.298 1.027-.476 1.675t-.262 1.113a5 5 0 0 0-.093.748.48.48 0 0 0 .115.39q.175.155 1.3-.364M515.07 503.038a2.4 2.4 0 0 0-.387.918q-.058.317-.107.825a33 33 0 0 0 .066 3.49M547.73 505.807q.078-.75.08-.932l.003-.134v-.002.023l-.014.571q-.013.542-.106 1.69-.092 1.147-.171 1.878t-.16 1.698q-.082.966-.163 2.24t-.148 2.72-.139 2.93-.094 2.965q-.021 1.48-.024 2.522a14 14 0 0 0 .122 1.928 11.6 11.6 0 0 0 .327 1.59 5.4 5.4 0 0 0 .42 1.09 2.7 2.7 0 0 0 .442.608 1.5 1.5 0 0 0 .47.322.9.9 0 0 0 .472.069q.327-.047 1.047-1.18" class="d"/><path d="M543.684 514.323q-.387-.365.06-.348.329.012.784.013t1.122-.019a9 9 0 0 0 1.421-.169 14 14 0 0 0 1.524-.391q.77-.242 1.606-.582a17.2 17.2 0 0 0 3.645-2.462M554.991 504.113a2.9 2.9 0 0 0-.414.9 7.4 7.4 0 0 0-.207 1.008q-.091.624-.181 1.44t-.244 3.103-.243 3.73-.171 2.912-.155 2.918-.124 2.67-.065 2.099-.007 1.587a6 6 0 0 0 .103 1.153 1.7 1.7 0 0 0 .235.628.46.46 0 0 0 .316.202q.175.019.36-.228a5.5 5.5 0 0 0 .466-.82q.281-.575.682-1.453t.83-1.844q.428-.965.858-2.189t.867-2.65.832-2.696a20 20 0 0 1 .828-2.247 5.4 5.4 0 0 1 .916-1.491 1.7 1.7 0 0 1 .88-.58 1.35 1.35 0 0 1 .732.068 1.65 1.65 0 0 1 .59.408 1.9 1.9 0 0 1 .402.677 4.5 4.5 0 0 1 .208 1.02q.065.62.071 1.465t-.027 1.675-.314 2.98-.397 3.205-.152 2.12a10.4 10.4 0 0 0 .116 1.998 3.9 3.9 0 0 0 2.061 2.5M567.352 522.776a5 5 0 0 0-.205.774 3 3 0 0 0-.035.517.94.94 0 0 0 .15.514 1.03 1.03 0 0 0 .41.36 1.55 1.55 0 0 0 .619.153 1.7 1.7 0 0 0 .763-.154 4.2 4.2 0 0 0 .895-.55q.487-.375 1.076-.911t1.189-1.176a15 15 0 0 0 1.132-1.362 10.7 10.7 0 0 0 .903-1.438 4.3 4.3 0 0 0 .455-1.35 4.2 4.2 0 0 0-.028-1.292 8 8 0 0 0-.412-1.448 9.4 9.4 0 0 0-.632-1.376 3.4 3.4 0 0 0-.654-.861.8.8 0 0 0-.63-.24 1.3 1.3 0 0 0-.683.393 7 7 0 0 0-.806.948 9.3 9.3 0 0 0-.805 1.34 16 16 0 0 0-.695 1.626q-.323.88-.654 1.933t-.596 2.207-.446 2.374a22 22 0 0 0-.222 2.477 8.3 8.3 0 0 0 .16 2.114 4 4 0 0 0 .66 1.479 7.3 7.3 0 0 0 1.095 1.172 5.3 5.3 0 0 0 1.497.9 10 10 0 0 0 1.962.552 20 20 0 0 0 2.185.282 24.7 24.7 0 0 0 5.562-.678M600.871 514.242q-.202-.124-.303.06a1.9 1.9 0 0 0-.128.558q-.055.428-.093 1.388t-.04 4.238q-.005 3.277.002 3.982t.007 1.864a8.3 8.3 0 0 0 .269 2.154M601.312 509.453a3.1 3.1 0 0 0-.041-.875.86.86 0 0 0-.166-.377.38.38 0 0 0-.198-.148q-.12-.019-.021 1.06M606.567 514.591a1.35 1.35 0 0 1 .15.665q.011.444.012 1.307t-.051 1.982-.146 2.336-.196 2.276-.174 1.905-.105 1.566q-.034.721-.044 1.21t-.005.707a.48.48 0 0 0 .071.292.2.2 0 0 0 .159.072q.094 0 .22-.177a5 5 0 0 0 .323-.56q.197-.382.435-.94t.51-1.309.548-1.639.508-1.869.453-2.128.462-2.49.543-2.466a8 8 0 0 1 .661-1.769 2.3 2.3 0 0 1 .687-.85.62.62 0 0 1 .573-.101 1.13 1.13 0 0 1 .466.436 4.5 4.5 0 0 1 .426.858 6.6 6.6 0 0 1 .328 1.2q.123.674.2 1.465t.122 1.705q.044.914.049 1.92t-.076 2.118q-.08 1.11-.337 2.877t-.312 2.243-.06.736.213.185a1.4 1.4 0 0 0 .527-.45 8 8 0 0 0 .682-1.02q.374-.645.777-1.53t.786-2.006a24 24 0 0 0 .67-2.367q.286-1.247.533-2.594a25 25 0 0 1 .617-2.602 5.2 5.2 0 0 1 .83-1.805 1.93 1.93 0 0 1 .886-.67 1.9 1.9 0 0 1 .76-.074.86.86 0 0 1 .552.3 2 2 0 0 1 .354.66 6.3 6.3 0 0 1 .23.958 10 10 0 0 1 .128 1.187q.031.634.043 2.173t-.063 2.515l-.151 2.026q-.08 1.05-.124 2.142-.044 1.093-.05 2.03a8 8 0 0 0 .843 3.244M633.932 519.296a2.8 2.8 0 0 0 .474-1.101 3 3 0 0 0 .046-.745 3.4 3.4 0 0 0-.472-1.19q-.449-.822-.645-1.129a5 5 0 0 0-.393-.536 1.7 1.7 0 0 0-.46-.377 1.6 1.6 0 0 0-.732-.164 4 4 0 0 0-.675.022 4.4 4.4 0 0 0-.66.202q-.454.166-.718.29a5 5 0 0 0-.501.271 6 6 0 0 0-.685.525q-.447.38-.726.653a10 10 0 0 0-.898 1.117q-.618.845-1.12 1.575t-1.092 1.676a21 21 0 0 0-1.08 1.947 13.4 13.4 0 0 0-.773 1.922 8.5 8.5 0 0 0-.355 1.773 5 5 0 0 0 .001 1.23 2.9 2.9 0 0 0 .212.673 3 3 0 0 0 .548.72 4.5 4.5 0 0 0 .742.642 3.3 3.3 0 0 0 .679.343 7.5 7.5 0 0 0 1.068.262 12 12 0 0 0 1.436.187q.714.05 1.496.048a6.7 6.7 0 0 0 1.546-.185 6.6 6.6 0 0 0 1.403-.501 4.9 4.9 0 0 0 1.113-.747 4.2 4.2 0 0 0 .8-.98 9 9 0 0 0 .598-1.21q.27-.658.437-1.112t.279-.85q.11-.397.202-.818a9 9 0 0 0 .145-.887q.053-.466.065-1.523a17.8 17.8 0 0 0-.408-3.873q-.16-.671-.229-1.009t-.074-.362-.013.027l-.123.76q-.115.705-.144 1.178c-.03.473-.033.763-.038 1.345s-.009 1.219-.009 1.909.005 1.3.014 1.828a13 13 0 0 0 .116 1.54q.103.747.203 1.173t.218.805a18 18 0 0 0 1.505 2.69M649.155 518.604a3.7 3.7 0 0 0 .365-.969 3.3 3.3 0 0 0 .06-.572 3 3 0 0 0-.069-.657 6 6 0 0 0-.218-.797 8 8 0 0 0-.32-.804 3.6 3.6 0 0 0-.382-.644 1.5 1.5 0 0 0-.447-.409 1.1 1.1 0 0 0-.535-.144 1.7 1.7 0 0 0-.695.168 8 8 0 0 0-.911.486 6 6 0 0 0-1.005.78 9 9 0 0 0-.953 1.082 12 12 0 0 0-.877 1.36q-.419.75-.796 1.586t-.804 1.843q-.427 1.006-.835 2.029a13 13 0 0 0-.601 1.842 6 6 0 0 0-.175 1.524 2.64 2.64 0 0 0 .302 1.22 2 2 0 0 0 .753.788 3.8 3.8 0 0 0 .99.402 6.5 6.5 0 0 0 1.012.172q.49.043.736.04a2.2 2.2 0 0 0 .49-.061 4.4 4.4 0 0 0 .728-.286 7 7 0 0 0 1.015-.6 5.4 5.4 0 0 0 .98-.895 6.3 6.3 0 0 0 .806-1.2 9 9 0 0 0 .59-1.387 9 9 0 0 0 .353-1.502 15 15 0 0 0 .146-1.754q.027-.958.02-1.814a11 11 0 0 0-.063-1.294q-.058-.437-.088-.553t-.036-.138q-.006-.024-.02.068l-.089.555q-.073.465-.132 1.39c-.06.925-.062 1.36-.069 2.229s-.003 1.542.01 2.02a14 14 0 0 0 .156 1.615q.135.899.496 2.56t.523 2.46.239 1.477.09 1.275a9 9 0 0 1-.036 1.13 4 4 0 0 1-.208.97 7 7 0 0 1-.385.874q-.227.438-.507.892a7 7 0 0 1-.572.804 2.8 2.8 0 0 1-.605.556 3 3 0 0 1-.774.344 4.2 4.2 0 0 1-.983.166q-.522.027-1.055.03a6 6 0 0 1-1.003-.078 4 4 0 0 1-.75-.19 1.7 1.7 0 0 1-.464-.26 1.6 1.6 0 0 1-.31-.342 1.3 1.3 0 0 1-.18-.428 2.4 2.4 0 0 1-.054-.51 2.7 2.7 0 0 1 .316-1.071M653.658 524.052a8.4 8.4 0 0 1 .694-1.399q.259-.411.896-1.236t1.01-1.378a13 13 0 0 0 .703-1.183 8.5 8.5 0 0 0 .567-1.378 7.4 7.4 0 0 0 .312-1.52q.074-.77.082-1.418a9 9 0 0 0-.043-1.07 1.05 1.05 0 0 0-.164-.547.4.4 0 0 0-.273-.136 1 1 0 0 0-.436.11 4 4 0 0 0-.637.363 6.6 6.6 0 0 0-.772.623 7 7 0 0 0-.873.998 9.6 9.6 0 0 0-.853 1.395q-.395.778-.763 1.69t-.707 1.971a11.3 11.3 0 0 0-.46 2.014 6.8 6.8 0 0 0-.015 1.753 4.1 4.1 0 0 0 .467 1.456 5.1 5.1 0 0 0 .85 1.15 6 6 0 0 0 1.055.845 8 8 0 0 0 1.196.612 5.7 5.7 0 0 0 1.2.354 8 8 0 0 0 1.083.115 5.7 5.7 0 0 0 .934-.04 2.1 2.1 0 0 0 .758-.245 8.4 8.4 0 0 0 1.484-1.273M694.008 513.352a2.8 2.8 0 0 0-.906-.377 3.3 3.3 0 0 0-.523-.052 2.4 2.4 0 0 0-.576.067 4.4 4.4 0 0 0-.709.235 5.3 5.3 0 0 0-.788.413 5 5 0 0 0-.787.625 4.5 4.5 0 0 0-.737.97 5.1 5.1 0 0 0-.533 1.334 11 11 0 0 0-.272 1.597q-.086.857-.1 1.894t-.018 1.998a14 14 0 0 0 .109 1.803 8.4 8.4 0 0 0 .376 1.623 3.5 3.5 0 0 0 .716 1.27 2.6 2.6 0 0 0 1.153.712 5.6 5.6 0 0 0 1.488.254 5 5 0 0 0 1.39-.12 5 5 0 0 0 1.23-.496 11 11 0 0 0 1.298-.854 8 8 0 0 0 1.157-1.06 6 6 0 0 0 .797-1.138 5 5 0 0 0 .468-1.286 7.4 7.4 0 0 0 .171-1.461 6 6 0 0 0-.217-1.64 9.4 9.4 0 0 0-.693-1.789 8.8 8.8 0 0 0-1.077-1.658 8.6 8.6 0 0 0-1.198-1.212 3.9 3.9 0 0 0-1.04-.64 1.01 1.01 0 0 0-.731-.057.9.9 0 0 0-.446.47 5.6 5.6 0 0 0-.3.764 4.9 4.9 0 0 0-.04 1.851M707.973 511.548q.141-.381.29-.918.096-.35.23-1.024t.207-1.304q.074-.63.095-1.271t.023-1.97q.002-1.33-.034-1.602a.5.5 0 0 0-.142-.345.36.36 0 0 0-.313-.005 2 2 0 0 0-.551.337q-.343.27-.823.735a9 9 0 0 0-.938 1.069 12 12 0 0 0-.867 1.315 15 15 0 0 0-.788 1.604 16 16 0 0 0-.672 1.932q-.293 1.041-.57 2.235t-.562 2.77-.509 3.16-.43 3.246-.415 3.246-.34 2.821q-.13 1.235-.21 2.31t-.086 2.127.027 1.78a6.3 6.3 0 0 0 .194 1.319q.158.592.348 1.171t.364.99.314.692a1.6 1.6 0 0 0 .264.405q.17.172.184-.518" class="d"/><path d="M696.075 532.21a.645.645 0 0 1 .437-.58q.422-.19 1.694-.637t2.284-.752q1.489-.447 3.748-1.25M729.376 506.735q.038 1.129-.03 2.953-.043 1.179-.135 2.555t-.174 2.788q-.083 1.411-.142 2.716t-.095 2.644-.053 2.548-.02 2.363q0 1.154.006 2.133a14 14 0 0 0 .095 1.64 5 5 0 0 0 .271 1.132 2.9 2.9 0 0 0 .437.78 1.14 1.14 0 0 0 .547.399 1.4 1.4 0 0 0 .662.017 7 7 0 0 0 2.193-1.907" class="d"/><path d="M725.946 514.509a1.94 1.94 0 0 0 1.063.262 12 12 0 0 0 1.287-.013 7.6 7.6 0 0 0 1.743-.331q.97-.289 2.148-.757a12 12 0 0 0 2.034-1.02 13.1 13.1 0 0 0 3.074-3.481M738.66 503.823a3 3 0 0 0-.256.646q-.108.377-.236 1.08t-.258 1.639-.254 2.134-.209 2.453q-.086 1.254-.159 2.755t-.168 3.211q-.094 1.71-.208 3.309t-.231 2.915q-.12 1.316-.198 2.355t-.08 1.568a1.95 1.95 0 0 0 .13.808.7.7 0 0 0 .304.359.3.3 0 0 0 .353-.095 2.8 2.8 0 0 0 .438-.727q.26-.552.584-1.457t.613-1.911.573-2.153.628-2.468a24 24 0 0 1 .741-2.385 9 9 0 0 1 .974-1.909 6.2 6.2 0 0 1 1.281-1.406 3.5 3.5 0 0 1 1.27-.696 4.6 4.6 0 0 1 1.002-.142 2 2 0 0 1 .88.198 3.1 3.1 0 0 1 .884.656 6.4 6.4 0 0 1 .886 1.178 12 12 0 0 1 1.374 3.351 12.5 12.5 0 0 1 .3 2.021q.079 1.11.093 2.216a19 19 0 0 1-.092 2.147q-.106 1.042-.227 1.942t-.163 1.512a.77.77 0 0 0 .425.833M756.043 514.062q.205.093.245.512.027.28.03.852t-.018 1.366-.09 1.688-.162 1.918q-.094 1.026-.208 2.037t-.225 1.865q-.113.855-.205 1.732t-.137 1.505a6.7 6.7 0 0 0 .105 1.815M758.156 507.21v.34M767.543 513.694a4 4 0 0 0 .293-.93 1.5 1.5 0 0 0 .01-.507.64.64 0 0 0-.123-.312.56.56 0 0 0-.298-.142 2.4 2.4 0 0 0-.476-.052 1.4 1.4 0 0 0-.609.157 5.5 5.5 0 0 0-.745.433q-.401.27-.89.639a11 11 0 0 0-.908.76 6 6 0 0 0-.59.614 2.2 2.2 0 0 0-.315.632 2.5 2.5 0 0 0-.128.884 1.78 1.78 0 0 0 .403.997 5.3 5.3 0 0 0 1.057 1.029q.667.506 2.163 1.515t2.34 1.586q.847.576 1.743 1.22a15 15 0 0 1 1.452 1.161 5 5 0 0 1 .854.994 2.3 2.3 0 0 1 .35.963 2.05 2.05 0 0 1-.103.923 2.9 2.9 0 0 1-.463.826 7 7 0 0 1-.704.756 4.5 4.5 0 0 1-.866.632 5.6 5.6 0 0 1-1.138.465 16 16 0 0 1-2.928.565q-.663.058-2.165.058t-2.109-.067a5.6 5.6 0 0 1-.947-.167.55.55 0 0 1-.425-.659M787.891 514.29a1.2 1.2 0 0 1 .346-.413q.106-.067.205.108a3 3 0 0 1 .202.787q.104.61.196 1.463t.125 2.432q.035 1.58.043 2.696t.04 2.512q.033 1.394.018 2.637a16 16 0 0 1-.092 1.787q-.076.544-.106.843t.074.212a2 2 0 0 0 .311-.446q.208-.36.491-.929t.457-.978q.172-.409.337-.853t.475-1.398q.31-.955.594-2.043t.424-1.762q.139-.672.254-1.333t.324-2.03.493-2.595a6.6 6.6 0 0 1 .612-1.782 2 2 0 0 1 .53-.67.9.9 0 0 1 .396-.125 1.9 1.9 0 0 1 .594.111 1.8 1.8 0 0 1 .744.474 3.4 3.4 0 0 1 .616.897 6 6 0 0 1 .45 1.355 15 15 0 0 1 .272 1.702q.092.895.138 1.84t.058 2.093a20 20 0 0 1-.098 2.223q-.11 1.074-.215 1.614t-.22.982q-.113.441-.306 1.072t-.283.938l-.096.325v.005l.011-.03.303-.81q.287-.767.563-1.594.278-.827.581-1.86t.613-2.288q.308-1.254.705-2.673a27 27 0 0 1 1.013-2.924 12.4 12.4 0 0 1 1.283-2.446 5.3 5.3 0 0 1 1.18-1.29 2 2 0 0 1 .855-.385.76.76 0 0 1 .634.258 4.6 4.6 0 0 1 .59.764q.3.47.49.84a7 7 0 0 1 .335.744 13 13 0 0 1 .369 1.26q.226.886.322 1.443t.163 1.132.104 1.606.017 2.204-.145 2.344-.233 2.182-.125 1.842a4.96 4.96 0 0 0 .622 2.454M819.754 519.724a2.2 2.2 0 0 0 .586-1.004q.198-.523.297-.82a4 4 0 0 0 .152-.642 5 5 0 0 0 .059-.752 2.8 2.8 0 0 0-.155-.901 5.6 5.6 0 0 0-.441-.999 4.7 4.7 0 0 0-.608-.868 3.7 3.7 0 0 0-.52-.505 2.5 2.5 0 0 0-.374-.226 2.2 2.2 0 0 0-.578-.147 2.1 2.1 0 0 0-.86.065 3.8 3.8 0 0 0-1.013.469 6.6 6.6 0 0 0-1.095.874 6.2 6.2 0 0 0-.979 1.251q-.434.72-1.111 2.143t-.916 1.942-.693 1.632-.834 2.206a12.6 12.6 0 0 0-.544 2.066 9.7 9.7 0 0 0-.15 1.713 3 3 0 0 0 .276 1.283 2.6 2.6 0 0 0 .738.913 3.3 3.3 0 0 0 1.082.553 7 7 0 0 0 1.195.252 8.4 8.4 0 0 0 1.173.054 4 4 0 0 0 1.221-.236 7.3 7.3 0 0 0 1.284-.602 6.5 6.5 0 0 0 1.193-.902 4.3 4.3 0 0 0 .878-1.18 7.5 7.5 0 0 0 .557-1.545 11.4 11.4 0 0 0 .304-1.773q.08-.887.088-1.898a19 19 0 0 0-.102-2.086q-.11-1.075-.243-1.75a8 8 0 0 0-.2-.866l-.079-.222q-.011-.033-.013.005l-.016.253q-.014.217-.149 1.165c-.135.948-.154 1.14-.192 1.527s-.065.803-.083 1.25-.026 1.14-.023 2.079a11.6 11.6 0 0 0 .143 2.09 5.7 5.7 0 0 0 .431 1.306 3 3 0 0 0 .737 1.008 3.1 3.1 0 0 0 1.074.592 6.6 6.6 0 0 0 1.366.287 10 10 0 0 0 1.32.065 7.7 7.7 0 0 0 2.789-1.044M828.79 514.51q-.266-.067-.294.305t-.02 1.377q.006 1.005.175 2.805t.26 2.976.126 2.523.027 2.588a15.6 15.6 0 0 1-.193 2.367 22 22 0 0 1-.48 2.219 15 15 0 0 1-.58 1.782 21 21 0 0 1-1.133 2.272" class="d"/><path d="M825.9 514.161a2.8 2.8 0 0 1 .52-.942 1.5 1.5 0 0 1 .483-.323 2 2 0 0 1 .705-.15 3.8 3.8 0 0 1 .876.066 3.6 3.6 0 0 1 .95.329 7 7 0 0 1 1.015.633q.53.39 1.219.978t1.43 1.314a13 13 0 0 1 1.296 1.463 7 7 0 0 1 .86 1.473 5.7 5.7 0 0 1 .401 1.47 7.2 7.2 0 0 1 .054 1.392 4.7 4.7 0 0 1-.25 1.253 5.7 5.7 0 0 1-.581 1.186 8 8 0 0 1-.935 1.187 15 15 0 0 1-1.356 1.262q-.794.66-2.207 1.619t-2.084 1.319a7.7 7.7 0 0 1-1.284.555 10 10 0 0 1-1.195.304 11.3 11.3 0 0 1-2.088.15M855.848 514.898a4 4 0 0 0 .282-.774l.06-.258q.005-.02.006-.003v.218a5 5 0 0 1-.055.643q-.058.44-.303 1.715t-.375 2.016-.231 1.562-.161 1.692q-.06.871-.08 1.72t-.008 1.557a7 7 0 0 0 .13 1.297 4.7 4.7 0 0 0 .298.986.9.9 0 0 0 .416.495q.339.141 1.37-.455M858.112 510.014a2.8 2.8 0 0 0-.727-.124.42.42 0 0 0-.34.221 1.2 1.2 0 0 0-.185.55q-.051.471.955 1.805M868.39 514.363a1.5 1.5 0 0 1-.61-.116 7 7 0 0 0-.772-.207 7.5 7.5 0 0 0-1.151-.16q-.624-.041-1.256-.046a6 6 0 0 0-1.23.113 8 8 0 0 0-1.233.354 6.4 6.4 0 0 0-1.204.6 3.5 3.5 0 0 0-.866.74 1.8 1.8 0 0 0-.372.762 2 2 0 0 0 0 .758 1.34 1.34 0 0 0 .402.698 4.8 4.8 0 0 0 .933.678q.603.355 1.422.8t1.61.944q.79.497 1.593 1.037t1.673 1.078 1.51.987a4.5 4.5 0 0 1 .954.845 1.85 1.85 0 0 1 .387.772.95.95 0 0 1-.13.706 2.7 2.7 0 0 1-.552.628 3.5 3.5 0 0 1-.83.516 4.2 4.2 0 0 1-1.098.315 11 11 0 0 1-1.292.12q-.675.024-1.343.02a13.4 13.4 0 0 1-1.975-.228q-1.308-.223-1.826-.345a1.82 1.82 0 0 1-1.175-.853M877.468 503.498q-.014-.457-.127-.311a4 4 0 0 0-.145 1.13q-.064 1.026-.081 1.778t-.02 1.551q0 .8.087 1.758.126 1.386.65 5.278M877.416 526.997a.74.74 0 0 1-.297.32l-.157.102q-.01.005-.001 0l.245-.203" class="d"/><path d="M81.974 286.514v98.243M81.974 384.757h98.129M180.907 288.217l-.804 96.54M81.974 286.514l98.933 1.703" class="e"/><path d="M82.754 255.952v97.626M82.754 353.578h31.375M82.754 255.952h97.488M180.242 255.952l.665 32.265M114.129 353.578q53.37-10.458 66.778-65.36" class="f"/><path d="M216.268 386.074h95.697M311.965 386.074v-97.532M280.393 288.569l31.572-.027M215.798 354.81l.47 31.264M215.798 354.81q9.047-58.496 64.595-66.24" class="g"/><path d="M213.829 255.207h98.118M213.829 255.207l1.969 99.603M215.798 354.81h94.658M311.947 255.207l-1.491 99.603" class="h"/><path d="M215.798 354.81q53.481-14.904 64.595-66.24M279.684 254.912l.709 33.657M115.021 256.636l-.892 96.942M114.129 353.578l101.669 1.232M115.021 256.636l164.663-1.724" class="i"/><path d="M180.907 288.218q-57.456 3.985-66.778 65.36M114.129 353.578v28.893M180.907 288.217l99.486.352M280.393 288.569v95.853M114.129 382.471l166.264 1.951" class="j"/><path d="m437.417 288.818.001 98.244M437.418 387.062h98.129M536.35 290.522l-.803 96.54M437.417 288.818l98.933 1.704" class="e"/><path d="M438.198 258.257v97.626M438.198 355.883l31.374-.001M438.198 258.257h97.488M535.686 258.257l.664 32.265M469.572 355.883q53.37-10.459 66.778-65.36" class="f"/><path d="M571.711 388.379h95.697M667.408 388.379v-97.532M635.836 290.874l31.572-.027M571.241 357.115l.47 31.264M571.242 357.115q9.046-58.496 64.594-66.24" class="g"/><path d="M569.272 257.512h98.118M569.272 257.512l1.969 99.603M571.241 357.115h94.658M667.39 257.512l-1.491 99.603" class="h"/><path d="M571.242 357.115q53.48-14.904 64.594-66.24M635.127 257.217l.709 33.657M470.464 258.941l-.892 96.941M469.572 355.882l101.669 1.233M470.464 258.941l164.663-1.724" class="i"/><path d="M536.35 290.522q-57.455 3.986-66.778 65.36M469.572 355.882v28.893M536.35 290.522l99.486.352M635.836 290.874v95.853M469.572 384.775l166.264 1.952" class="j"/><path d="M898.947 287.373v98.243M898.947 385.616h98.13M997.88 289.077l-.803 96.539M898.947 287.373l98.933 1.704" class="e"/><path d="M899.728 256.811v97.626M899.728 354.437h31.374M899.728 256.811h97.488M997.216 256.811l.664 32.266M931.102 354.437q53.37-10.458 66.778-65.36" class="f"/><path d="M1033.241 386.933h95.697M1128.938 386.933v-97.532M1097.367 289.428l31.571-.027M1032.771 355.67l.47 31.263M1032.771 355.67q9.047-58.496 64.596-66.241" class="g"/><path d="M1030.802 256.066h98.118M1030.802 256.066l1.969 99.604M1032.771 355.67h94.658M1128.92 256.066l-1.491 99.604" class="h"/><path d="M1032.771 355.67q53.482-14.905 64.596-66.241M1096.657 255.771l.71 33.657M931.994 257.495l-.892 96.942M931.102 354.437l101.669 1.233M931.994 257.495l164.663-1.724" class="i"/><path d="M997.88 289.077q-57.455 3.985-66.778 65.36M931.102 354.437v28.892M997.88 289.077l99.487.351M1097.367 289.428v95.853M931.102 383.329l166.265 1.952" class="j"/><path d="M134.206 351.738q-.963-.369-.438-.5a5 5 0 0 1 1.025-.114q.644-.018 1.146-.07a10 10 0 0 0 1.117-.188 12 12 0 0 0 1.41-.415 16 16 0 0 0 1.784-.775q.99-.494 2.12-1.18t2.556-1.518 3.201-1.8 3.35-1.862q1.575-.897 2.878-1.77t2.564-1.778 2.417-1.708 2.251-1.653 2.036-1.664a15.5 15.5 0 0 0 1.717-1.735 7.2 7.2 0 0 0 .95-1.302q.174-.382-.196-.361a5.4 5.4 0 0 0-1.65.806q-1.28.784-2.32 1.464t-2.074 1.465-2.05 1.696-2 1.883a26 26 0 0 0-1.795 1.954 35 35 0 0 0-2.11 2.966q-1.3 1.985-1.677 2.646a8.4 8.4 0 0 0-.56 1.147q-.183.487-.05.381l.666-.53a11 11 0 0 0 1.144-1.085q.612-.66 2.071-2.39t2.368-2.772 1.963-2.179 3.579-3.71 3.33-3.403 1.22-1.194.502.023a7.8 7.8 0 0 1-.731 2.52q-.819 2.132-1.432 3.573t-1.355 2.97q-.742 1.53-2.517 4.828t-3.243 6.05q-1.468 2.751-1.773 3.302t-.345.625q-.042.075-.036.034l.048-.344a6.4 6.4 0 0 1 .376-1.154q.335-.85.902-2.131t1.372-2.96 1.832-3.46 2.292-3.896 2.474-4.371 3.302-6.5 2.79-5.698 1.216-2.351a9 9 0 0 1 .786-1.2q.267-.305.243-.163t-.121.713a22 22 0 0 1-1.105 3.005q-1.008 2.433-1.561 3.885t-1.121 3.029-1.044 3.1-.873 3.173-.737 3.431-.518 3.144-.235 2.248-.044 1.225.246.107a16 16 0 0 0 1.264-2.649q1.027-2.416 1.821-4.246t1.853-4.096 2.362-4.892 2.496-5.455 2.081-5.641 1.422-5.275.805-4.395.32-1.414a10 10 0 0 1-.065 1.71q-.115 1.191-.446 2.875t-.661 3.453-.647 3.829-.63 4.462-.576 4.874-.492 5.218-.416 5.288-.256 4.176q-.07 1.635-.078 2.347t.16.737q.167.024.534-.922t.85-2.607q.48-1.66 1.754-6.84t2.075-8.313 1.609-6.729 1.338-7.086a65 65 0 0 0 .683-6.572q.153-3.083.152-5.29t-.131-3.475-.199-1.982l-.072-.759q-.004-.043-.005-.01l-.016.587q-.016.554-.415 3.709t-.638 5.355q-.239 2.2-.467 4.92t-.434 5.822-.357 6.58-.25 7.184-.124 6.932.055 4.894a4.95 4.95 0 0 0 .388 2.12.565.565 0 0 0 .75.26 2.65 2.65 0 0 0 .99-1.159 15 15 0 0 0 1.1-2.646q.55-1.677 1.072-3.994t1.023-5.146q.502-2.828.95-6.26t.66-6.957q.212-3.525.233-7.607t-.275-8.441-.776-7.826-.925-6.38q-.445-2.912-.626-5.015t-.199-3.098a6.3 6.3 0 0 1 .096-1.46 1 1 0 0 1 .26-.561q.148-.097.293.258a7 7 0 0 1 .296 1.426q.15 1.07.229 3.025t.122 4.731.049 6.27-.131 7.656-.395 8.36-.537 8.3-.336 7.591a39.6 39.6 0 0 0 .196 5.455 17.7 17.7 0 0 0 .716 3.326 20 20 0 0 0 .903 2.282 4.8 4.8 0 0 0 .921 1.38q.477.46.604.324a6.1 6.1 0 0 0 .13-1.858q.003-1.72-.096-3.367t-.53-6.71q-.43-5.063-.739-8.12t-.683-6.893q-.377-3.835-.749-8.083t-.609-7.786q-.236-3.539-.374-6.293t-.169-4.944.03-3.742a27.4 27.4 0 0 1 .596-4.177q.535-2.623.825-4.255t.408-2.643q.12-1.01.178-1.843l.063-.879q.003-.046-.007-.03l-.154.222-.19.276q-.048.069-.049-.132l-.002-.847q-.002-.645-.184-2.61t-.321-2.666-.604-2.258-.592-1.816l-.153-.311q-.027-.054-.022-.006l.03.281q.023.234.339.35a2.2 2.2 0 0 0 .735.122 1.96 1.96 0 0 0 .933-.272 3.8 3.8 0 0 0 .997-.818 8 8 0 0 0 .868-1.166q.382-.625.393-.515l.05.555q.04.443.04 1.462t.24 5.786.39 9.02.213 9.593.07 19.236.022 16.366.07 3.963.159 2.613.214 1.744.145.583l.17-.21a3.2 3.2 0 0 0 .193-1.246q.056-1.078.134-5.318t.081-7.478-.011-6.81-.153-7.561q-.138-3.99-.382-8.703t-.42-9.017q-.176-4.303-.194-7.664a54 54 0 0 1 .2-5.512 17 17 0 0 1 .523-3.116 4.8 4.8 0 0 1 .565-1.312 1 1 0 0 1 .522-.414.72.72 0 0 1 .602.194 3.8 3.8 0 0 1 .824 1.302 27 27 0 0 1 1.097 2.962 41 41 0 0 1 1.156 4.827q.543 2.906.927 6.895t.621 9.068.313 11.117.215 12.44.518 11.935.884 9.086a52 52 0 0 0 .973 5.356 6.6 6.6 0 0 0 .814 2.187q.345.38.578-.15a7.8 7.8 0 0 0 .425-1.764q.19-1.234.324-3.322t.263-5.047q.129-2.959.21-6.985t.089-8.276-.206-9.19-.769-10.78-1.275-10.786-1.326-9.021-.797-6.652-.195-3.564a3.4 3.4 0 0 1 .211-1.42 1.75 1.75 0 0 1 .419-.593.325.325 0 0 1 .361-.078q.156.082.355.925t.465 2.61.543 4.192.489 5.946.347 8.039.181 9.315.05 10.095.026 9.89q.022 4.593.154 6.602a10.7 10.7 0 0 0 .377 2.625q.243.616.535.729a.86.86 0 0 0 .555.038q.265-.075.475-.714a12 12 0 0 0 .392-1.92q.184-1.28.306-3.14t.198-4.527.099-5.882-.053-6.534-.403-7.082-.757-7.655q-.43-3.89-.772-6.645t-.736-5.805-.409-3.508l-.015-.482v-.005l.003.074.071 1.875q.068 1.78.105 5.234t.039 14.538.018 11.408.153.19a7 7 0 0 0 .431-1.794q.293-1.662.624-4.284t.516-4.274.349-3.454.43-6.098.362-6.47.19-4.006.202-3.233.25-2.272a24 24 0 0 1 .665-2.641 7 7 0 0 1 .779-2.019.72.72 0 0 1 .589-.22 1.26 1.26 0 0 1 .722.415q.39.385.56.29a1.35 1.35 0 0 0 .373-.673 10.4 10.4 0 0 1 .712-1.501q.512-.924.87-1.752t.382-.735l.113.465q.09.371.268 3.746t.234 5.92.083 6.648-.091 9.043-.428 10.349-.67 10.582-.533 9.62-.221 8.34q-.049 3.893-.054 6.914t.21 5.32.533 3.98a26 26 0 0 0 .634 2.697 9 9 0 0 0 .566 1.485 2 2 0 0 0 .423.6q.172.13.297-.65a45 45 0 0 0 .13-4.522q.004-3.741-.095-6.555t-.293-6.193-.495-7.099-.714-7.354-.85-6.847-.804-5.681l-.39-2.634q-.024-.163-.026-.068l-.046 1.525q-.042 1.431-.108 2.857t-.2 5.33q-.133 3.907-.203 6.394t-.177 5.419q-.106 2.931-.253 6.02t-.344 5.95-.503 6.938-.353 5.943-.032 2.33a2.5 2.5 0 0 0 .116.746q.1.279.261.28t-.01-.183a.63.63 0 0 0-.48-.188 2.24 2.24 0 0 0-1.048.56 6 6 0 0 1-1.153.739 4.6 4.6 0 0 1-1.402.229 6.7 6.7 0 0 1-1.652-.08 20 20 0 0 1-2.576-.875q-1.914-.743-3.235-1.201t-2.537-.792-2.284-.565-2.086-.37a23 23 0 0 0-2.716-.154 23 23 0 0 0-3.374.212q-1.674.229-2.983.397a12 12 0 0 0-2.095.423 5.7 5.7 0 0 0-1.453.708q-.668.451-1.563 1.156a17 17 0 0 1-1.411 1.025 4.1 4.1 0 0 1-1.097.477 11 11 0 0 1-2.179.204 17 17 0 0 1-2.24-.035 10 10 0 0 1-1.642-.394 8.5 8.5 0 0 0-1.771-.38 1.7 1.7 0 0 0-1.071.15 3 3 0 0 0-.614.62 8.7 8.7 0 0 0-.766 1.308q-.454.902-.605 1.296a2.7 2.7 0 0 0-.17.877.63.63 0 0 0 .312.653 8 8 0 0 0 1.774.396q1.443.226 3.96.571t6.145.803q3.629.458 5.377.646t3.55.274 3.578.094 3.105-.072a17 17 0 0 0 2.393-.306q1.064-.224 3.173-.826t3.106-.95a13.6 13.6 0 0 0 1.714-.715 5.3 5.3 0 0 0 1.187-.805 3.4 3.4 0 0 0 .746-1.014 4 4 0 0 0 .358-1.298 16 16 0 0 0 .088-1.643 8.6 8.6 0 0 0-.258-2.047 13.3 13.3 0 0 0-.759-2.253 42 42 0 0 0-2.097-3.836q-1.604-2.708-2.318-3.851t-1.266-1.94a14 14 0 0 0-.943-1.241 1.9 1.9 0 0 0-.56-.505q-.17-.06-.278.681a24 24 0 0 0-.112 2.84q-.004 2.098.012 3.467t.148 2.654q.132 1.287.381 2.58t.587 2.69a20 20 0 0 0 .792 2.552 11.6 11.6 0 0 0 .995 2.005 6 6 0 0 0 1.13 1.35 2.2 2.2 0 0 0 1.128.566 1.45 1.45 0 0 0 .976-.21 2.4 2.4 0 0 0 .762-.821 4 4 0 0 0 .474-1.216 15 15 0 0 0 .181-2.466 13 13 0 0 0-.15-2.663q-.182-.867-.415-1.616t-.455-1.311a2.7 2.7 0 0 0-.427-.787q-.206-.226-.184-.075t.11.755a9.4 9.4 0 0 0 .69 2.004q.604 1.4 1.36 2.9t1.156 2.225a12 12 0 0 0 .806 1.28 6.5 6.5 0 0 0 .83.944 4.6 4.6 0 0 0 .882.643 3.3 3.3 0 0 0 1.331.317 3.2 3.2 0 0 0 1.295-.101 3.7 3.7 0 0 0 .786-.416 6 6 0 0 0 .923-.871 18 18 0 0 0 1.198-1.498 7 7 0 0 1 1.015-1.193q.379-.316.607-.05a2.9 2.9 0 0 1 .396 1.227q.167.963.171 1.12l.004.164v0l-.006-.078-.227-3.357" style="fill:none;stroke-linecap:round;stroke-linejoin:round;stroke:#0f0;stroke-width:7.2283px;mix-blend-mode:multiply;opacity:.5"/><path d="M540.712 295.867q-.035-.44 1.529-.443t3.62-.126q2.057-.125 6.095-.436t5.774-.412 3.99-.104 3.864.134 3.614.419 3.236.343q1.232.063 7.798.065t7.797.035 2.414.074 2.494.025a8.3 8.3 0 0 0 2.138-.253 11 11 0 0 1 1.346-.315 22 22 0 0 1 2.362-.083q1.84-.004 3.22.09t2.647.095a9.8 9.8 0 0 0 1.955-.145q.687-.148.63-.167l-.29-.096a2.2 2.2 0 0 0-.958.095q-.726.172-3.419 1.123t-4.07 1.525-2.662 1.247-2.595 1.438-2.854 1.643-3.043 1.682-2.879 1.62-2.632 1.66q-1.252.846-3.597 2.491t-3.598 2.564q-1.255.917-2.112 1.645a19 19 0 0 0-1.478 1.38q-.62.653-1.646 1.883t-2.23 2.448-1.786 1.83-1.105 1.272a13 13 0 0 0-.922 1.308 10.3 10.3 0 0 0-.76 1.548 7.6 7.6 0 0 0-.415 1.214q-.054.313.19.322a2.06 2.06 0 0 0 .913-.474q.67-.482 1.244-.982t2.133-2.121 2.489-2.644 1.972-2.094q1.04-1.07 4.79-4.45t5.968-5.257q2.218-1.879 4.401-3.432t3.894-2.657q1.71-1.104 2.53-1.764a6.5 6.5 0 0 0 1.1-1.043 2.5 2.5 0 0 0 .317-.498l.049-.156q.013-.042-.284.228t-1.106 1.008a21 21 0 0 1-1.871 1.497q-1.06.76-2.418 1.672t-2.784 1.983q-1.429 1.072-2.722 2.262a37 37 0 0 0-2.852 2.991q-1.558 1.802-3.409 4.147t-3.83 5.33-3.942 6.279-3.753 6.056q-1.792 2.761-3.3 5.305t-2.439 4.43a13 13 0 0 0-1.154 3.039 14.7 14.7 0 0 0-.233 2.692 4.4 4.4 0 0 0 .252 1.95q.26.412.537.24a4.7 4.7 0 0 0 .863-1.696q.585-1.525 1.119-2.72t1.305-2.582 1.81-3.055 2.075-3.369q1.035-1.7 2.138-3.568t3.601-6.245 3.75-6.237 2.473-3.382q1.218-1.52 2.005-2.57a17 17 0 0 0 1.315-2.022 15 15 0 0 0 .88-1.9 13.4 13.4 0 0 0 .57-1.95 7.3 7.3 0 0 0 .209-1.37q-.01-.35-.393-.36a3.4 3.4 0 0 0-1.24.363 6.6 6.6 0 0 1-1.468.477 7.2 7.2 0 0 1-1.443.074 9.4 9.4 0 0 1-2.236-.449q-1.402-.42-2.283-.727t-2.822-1.061-2.97-1.106-2.198-.671-2.38-.667-2.185-.686q-.969-.338-1.7-.638t-1.315-.495a6.8 6.8 0 0 0-1.56-.272 4.4 4.4 0 0 0-1.62.121 8.4 8.4 0 0 0-1.393.588q-.745.389-1.552.895t-1.605 1.07-1.458 1.138-1.223 1.13-1.316 1.414a4.4 4.4 0 0 1-1.115 1.024q-.364.164-.438-.415a14 14 0 0 1-.075-1.692 19 19 0 0 0-.192-2.503 18.4 18.4 0 0 0-.55-2.625q-.358-1.233-.512-1.61a1.28 1.28 0 0 0-.498-.602.94.94 0 0 0-.798-.096 2.7 2.7 0 0 0-.939.512 5.2 5.2 0 0 0-.926.978 8 8 0 0 0-.89 1.654 14 14 0 0 0-.67 1.907 15 15 0 0 0-.358 1.962q-.137 1.116-.392 5.625t-.437 7.71-.336 6.782-.248 7.323-.105 13.745.006 11.635.08 2.978a19 19 0 0 0 .19 2.114 6.7 6.7 0 0 0 .487 1.588 5 5 0 0 0 .58 1.083q.22.26.19-.072t-.153-1.658-.128-4.267.164-6.333.279-5.927.27-6.036q.164-3.501.447-7.182t.724-6.911q.442-3.231.989-5.97a42 42 0 0 1 1.145-4.599q.599-1.858 1.192-3.409t1.15-3.153q.557-1.603 1.047-2.932t.988-2.376.963-1.885a13 13 0 0 1 .876-1.404 11 11 0 0 1 .788-.972 4.5 4.5 0 0 1 .696-.63 2.1 2.1 0 0 1 .91-.306q.587-.081 3.307-.06t3.546-.018q.825-.04.91.196a1.7 1.7 0 0 1 .04.69 3.5 3.5 0 0 1-.362 1.116q-.319.661-1.412 2.49t-1.79 3.046q-.696 1.217-1.529 2.84t-1.948 3.984q-1.114 2.358-2.272 5.36t-2.237 6.4q-1.078 3.398-1.986 6.735t-1.444 5.553-.793 3.587a17 17 0 0 0-.3 2.242 4.3 4.3 0 0 0 .09 1.322 1.4 1.4 0 0 0 .428.697 1.14 1.14 0 0 0 .67.27 1.03 1.03 0 0 0 .795-.471 8.7 8.7 0 0 0 .964-1.546q.544-1.05 1.295-2.637t1.673-3.61 2.129-4.573 2.64-5.67q1.435-3.119 2.74-6.447t2.466-6.709q1.16-3.38 2.46-6.3a20.8 20.8 0 0 1 2.642-4.58 29 29 0 0 1 2.708-2.94q1.364-1.28 2.495-2.46t1.928-1.963a11.6 11.6 0 0 1 1.658-1.362 11 11 0 0 1 1.862-.999 8.6 8.6 0 0 1 1.813-.566 6.2 6.2 0 0 1 1.427-.108 1.66 1.66 0 0 1 1.074.472 2.55 2.55 0 0 1 .672 1.145 9.6 9.6 0 0 1 .319 1.782q.104 1.071.133 3.714t-.054 3.787q-.084 1.146-.272 2.84t-.195 2.269q-.007.573.095.59l.131.02q.03.005-.213.138l-1.118.615a26 26 0 0 1-2.47 1.146q-1.595.664-2.51 1.015t-1.74.618a14 14 0 0 1-1.54.41 9 9 0 0 1-1.284.175 6 6 0 0 1-.893-.002.83.83 0 0 1-.587-.433 2.3 2.3 0 0 1-.258-1.261 14 14 0 0 1 .081-1.525q.077-.665-.224-.535a3.2 3.2 0 0 0-.846.696q-.545.565-1.379 1.536t-1.932 2.436q-1.1 1.466-2.37 3.578t-2.545 4.704q-1.273 2.592-2.75 5.4t-2.854 5.436-2.494 5.058a48 48 0 0 0-1.877 4.687 29.4 29.4 0 0 0-1.103 4.163q-.343 1.909-.53 3.531t-.303 3.036-.148 2.912a5.2 5.2 0 0 0 .12 1.759q.152.26.314.265c.162.005.228-.16.36-.491a13 13 0 0 0 .44-1.414q.24-.917.818-3.519t.96-4.6.72-4.178.652-4.6q.316-2.417.516-5.574t.234-6.119q.035-2.963-.092-5.358a24 24 0 0 0-.406-3.65q-.28-1.256-.575-1.263t-.706.772-.966 2.058-1.095 2.77q-.542 1.493-1.078 3.176t-1.086 3.719-1.087 4.22-1.108 4.685-1.194 5.497-1.098 5.496-.79 4.633-.492 4.044-.249 3.17-.077 3.778.06 3.175a16 16 0 0 0 .268 1.606q.2.952.3 1.644a10 10 0 0 1 .103 1.343 8.4 8.4 0 0 1-.326 1.938 14 14 0 0 0-.39 1.92q-.058.634.5.567a8 8 0 0 0 1.2-.244 12 12 0 0 1 1.48-.298 10.7 10.7 0 0 1 1.824-.088 8.8 8.8 0 0 1 1.933.276 24 24 0 0 1 2.44.813q1.493.569 2.56.871a19 19 0 0 0 2.16.476q1.092.174 2.366.272a18 18 0 0 1 1.818.205 2.3 2.3 0 0 1 .789.272.8.8 0 0 1 .315.33l.08.191q.01.023.002-.055c-.008-.078-.025-.27-.063-.652s-.155-1.054-.356-2.014-.401-1.833-.601-2.619-.445-1.8-.733-3.045-.596-2.634-.921-4.168-.621-3.193-.888-4.978a53 53 0 0 1-.523-5.66q-.123-2.982-.036-5.199a44 44 0 0 1 .978-6.525q.89-4.31 1.076-5.148t.458-1.735a4 4 0 0 1 .282-.823l.043.368a5.5 5.5 0 0 1-.11 1.2q-.146.906-.512 2.33t-.914 3.3-1.19 3.876-1.333 4.235-1.447 4.824-1.442 5.162q-.687 2.573-1.254 5.13t-.941 4.591-.529 3.142a15 15 0 0 0-.153 2.09q-.002.982.043.858t.225-.618.632-2.707.708-3.988.48-3.853.383-4.464.273-5.393.159-5.736q.043-2.732.084-4.524t.074-2.32l.035-.56.002-.015v.016l.004.592q.003.56-.064 1.803-.068 1.244-.29 2.717t-.442 3.037q-.22 1.563-.41 3.336t-.339 3.695-.233 3.817-.107 3.85-.026 3.663.029 2.712a4.1 4.1 0 0 0 .27 1.522.85.85 0 0 0 .623.572 1.34 1.34 0 0 0 .941-.393 10 10 0 0 0 1.33-1.373 19.5 19.5 0 0 0 1.628-2.338q.857-1.41 1.838-3.333t1.963-4.228a50 50 0 0 0 1.76-4.82q.779-2.513 1.474-5.447t1.393-6.225 1.149-6.066 1.031-6.795q.581-4.019.753-4.81a7 7 0 0 1 .275-1.03l.124-.29q.022-.051-.01.182l-.183 1.315q-.15 1.08-.28 2.311c-.13 1.231-.172 1.781-.257 2.883s-.212 2.38-.377 3.834-.356 3.01-.57 4.667-.473 3.428-.77 5.314-.626 4.007-.987 6.36-.694 4.543-1 6.567-.565 3.852-.784 5.485-.378 2.987-.476 4.063-.153 1.794-.163 2.156.092.525.306.49.43-.283.648-.75.476-1.123.773-1.967.84-2.554 1.627-5.13 1.383-4.64 1.79-6.193.818-3.223 1.235-5.012.808-3.607 1.17-5.452.713-3.692 1.05-5.542.648-3.467.936-4.85.513-2.426.674-3.132.287-1.338.375-1.899a10 10 0 0 0 .137-1.093l.005-.265v-.003l-.002.044-.031 1.09q-.03 1.037-.328 3.694-.297 2.658-.582 4.657t-.68 4.314-.915 4.844-1.102 5.246-1.392 6.319-.897 4.233l-.106.787q-.021.158.072-.008l.464-.83a12 12 0 0 0 .753-1.698q.381-1.034 1.224-3.726t1.253-4.236.702-2.797.536-2.494.26-1.335l.006-.022-.027.224-.58 4.246q-.54 3.952-.787 6.41-.246 2.456-.34 3.763t-.178 3.517-.19 3.846-.22 2.604a15 15 0 0 0-.118 1.526 2.5 2.5 0 0 0 .096.83 4 4 0 0 0 .746.981q.648.708 1.126 1.239a3.8 3.8 0 0 1 .567.728q.088.197-.922-.032a16 16 0 0 0-1.992-.324q-.982-.096-2.332-.122a19 19 0 0 0-2.036.041q-.686.067-1.366.19t-1.65.403a11 11 0 0 1-1.723.367q-.754.089-.844-.446a9.7 9.7 0 0 1-.039-1.774q.052-1.239.353-3.363t.464-3.997q.164-1.874.3-4.36t.198-5.581q.06-3.097.098-6.572t.125-6.568.279-5.787.394-4.677q.203-1.984.338-3.383t.239-3.713q.104-2.314.108-3.245t.043-.683l.192 1.244q.154.995.247 2.292.094 1.297.14 2.992t.067 3.63.022 6.193-.034 6.248-.04 4.425a9.9 9.9 0 0 0 .132 2.541q.136.105.348-.332a10 10 0 0 0 .485-1.316q.272-.879.545-1.947t.536-2.31.488-2.78a31 31 0 0 0 .295-3.207q.07-1.668.076-3.534a31 31 0 0 0-.254-3.95q-.26-2.085-.59-3.811t-.593-2.848a14 14 0 0 0-.44-1.583q-.178-.462-.372.06-.276.747-1.144 5.3" style="fill:none;stroke-linecap:round;stroke-linejoin:round;stroke:#f65353;stroke-width:7.2283px;mix-blend-mode:multiply;opacity:.5"/><path d="M967.005 347.582q2.396-1.258 6.54-2.97 2.67-1.103 5.44-2.396t4.822-2.37 3.49-2.005 4.491-3.212 4.455-3.462 2.567-2.361a17 17 0 0 0 1.966-2.363 12 12 0 0 0 1.28-2.422 19 19 0 0 0 .767-2.468q.287-1.225.501-2.644a21 21 0 0 1 .514-2.49 8.8 8.8 0 0 1 .973-2.184 13 13 0 0 0 .794-1.43q.122-.317-.401.061t-2.617 1.89q-2.094 1.513-4.684 3.537t-3.958 3.28q-1.368 1.256-2.707 2.644t-3.699 4.11-3.29 3.72a19 19 0 0 1-1.89 1.78 19 19 0 0 1-1.77 1.298 20 20 0 0 1-2.312 1.206q-1.504.69-2.778 1.164a9 9 0 0 1-1.973.547 1.96 1.96 0 0 0-1.325 1.058q-.627.983-1.608 2.74t-1.735 2.846a15 15 0 0 1-1.599 1.958 12.5 12.5 0 0 1-1.802 1.535 8.7 8.7 0 0 1-1.957 1.039 18.3 18.3 0 0 1-3.37.71 16.8 16.8 0 0 0-4.37 1.215 11.96 11.96 0 0 1-6.172 1.319q-1.98.004-2.167.544a.496.496 0 0 0 .355.719 8.6 8.6 0 0 0 2.338.13 18.6 18.6 0 0 0 4.245-.708q2.45-.661 4.058-1.192t3.41-1.24 3.56-1.572a33 33 0 0 0 3.302-1.85 35 35 0 0 0 3.027-2.181q1.486-1.193 4.576-3.884t4.69-3.959q1.598-1.267 2.85-2.337t2.194-2.052a16.5 16.5 0 0 0 1.637-1.982 31 31 0 0 0 1.697-2.865 39 39 0 0 0 1.735-3.65q.734-1.787 1.304-3.543t.824-2.86a16 16 0 0 0 .342-1.995q.088-.892.094-3.536t.706-3.436a10 10 0 0 1 2.006-1.649 32 32 0 0 0 2.61-1.913 26 26 0 0 0 2.392-2.198 30 30 0 0 0 2.413-2.944 38 38 0 0 0 2.26-3.422 21 21 0 0 1 1.564-2.402 10.5 10.5 0 0 1 1.375-1.424 6.7 6.7 0 0 1 1.794-1.076 13.4 13.4 0 0 1 2.345-.714 23.7 23.7 0 0 1 4.015-.343 39 39 0 0 1 4.004.05q1.29.114 3.29.178t4.146.039 4.275-.175 3.75-.153a10.7 10.7 0 0 1 2.54.23 2.2 2.2 0 0 1 1.06.44q.142.21-1.78.823t-4.713 1.393-5.966 1.745-6.867 1.938-5.327 1.292-3.027.518-2.459.297a21 21 0 0 1-2.446.056 4.1 4.1 0 0 1-1.847-.336 2.9 2.9 0 0 1-.848-.863 4.1 4.1 0 0 1-.567-1.446 5.1 5.1 0 0 0-.484-1.408 3.9 3.9 0 0 0-1.27-1.174 5.2 5.2 0 0 1-1.4-1.25 2.6 2.6 0 0 1-.46-.853q-.036-.247 1.533-.282a20.3 20.3 0 0 1 4.941.842q3.373.879 6.18 1.37t4.396.655q1.588.165 3.224.233t4.527.075a42 42 0 0 0 5.178-.274q2.287-.28 5.157-.687t5.574-.659q2.703-.253 4.43-.34t3.646-.297q1.918-.21 3.756-.275t3.838-.064a24.5 24.5 0 0 0 3.084-.147 21 21 0 0 0 2.1-.394 20.3 20.3 0 0 1 3.913-.253 19 19 0 0 1 3.39.146q.494.154.386.54t-1.766 1.123a34 34 0 0 1-3.386 1.288q-1.727.552-6.437 1.705t-6.811 1.727-4.002 1.18-3.784 1.29-3.66 1.41-3.586 1.538q-1.809.813-3.545 1.712a26 26 0 0 0-3.033 1.813 19 19 0 0 0-2.27 1.848 22 22 0 0 0-1.782 1.93 28 28 0 0 0-1.983 2.915 39 39 0 0 0-2.106 3.925 26 26 0 0 0-1.213 2.924 13.8 13.8 0 0 0-.508 3.633q.025.464.61.672t1.269-.522a14 14 0 0 0 1.694-2.555q1.014-1.826 1.557-2.996t1.035-2.465.98-2.789.888-3.144.69-3.591.456-3.861.148-3.148a2.88 2.88 0 0 0-.509-1.822 1.47 1.47 0 0 0-1.356-.51q-.865.083-3.946 2.476t-5.118 4.046q-2.037 1.652-4.122 3.401t-4.035 3.592a44 44 0 0 0-3.401 3.558q-1.45 1.717-4.04 5.376t-3.711 5.051a26 26 0 0 1-2.047 2.296 12 12 0 0 1-1.657 1.394q-.73.49-.58-.22a10 10 0 0 1 1.18-2.442q1.03-1.73 2.138-3.36t2.532-3.46 2.632-3.513 2.255-3.332q1.048-1.65 1.943-3.288a24 24 0 0 0 1.337-2.788 7.7 7.7 0 0 0 .518-1.923q.077-.774-.068-.572t-.73 1.014a30 30 0 0 0-1.841 3.274q-1.257 2.462-2.863 5.782t-2.512 5.363q-.904 2.042-1.871 4.513t-1.913 5.176q-.947 2.706-1.582 4.812t-1.086 4.207a13.4 13.4 0 0 0-.41 2.594q.04.492.422.5a2.2 2.2 0 0 0 .92-.238 10.5 10.5 0 0 0 2.13-1.927q1.593-1.682 2.668-2.954t2.138-2.738a34 34 0 0 0 2.094-3.313q1.033-1.846 2.063-4.205a41 41 0 0 0 1.65-4.38q.62-2.02 1.21-4.855a10.3 10.3 0 0 0 .423-3.169q-.167-.333-.93.712t-1.783 2.722q-1.02 1.677-1.538 2.643t-1.545 3.303-2.889 6.838-2.196 5.696.076 1.528 1.298 0a6 6 0 0 0 1.94-1.335q1.055-1.005 1.684-1.686a27 27 0 0 0 1.819-2.338q1.189-1.657 2.67-4.18t2.157-3.864a13 13 0 0 0 .91-2.178q.235-.836-.039-.816a8 8 0 0 0-1.896 1.707q-1.621 1.686-3.144 3.313a45 45 0 0 1-3.385 3.24q-1.863 1.612-4.213 3.31t-4.348 3.027-2.752 1.85-.643.507l.556-.076a17 17 0 0 0 2.645-1.022q2.2-.962 3.661-1.439a13 13 0 0 1 1.8-.51q.339-.033.22.074t-.597.533a3.9 3.9 0 0 1-1.21.709 4.3 4.3 0 0 1-1.645.263 5 5 0 0 1-1.574-.257 5.4 5.4 0 0 0-1.748-.25 3.6 3.6 0 0 0-1.818.4 9 9 0 0 0-1.532 1.113 18 18 0 0 0-1.733 1.8q-.938 1.1-2.793 3.576t-3.19 4.003a23 23 0 0 1-2.282 2.334 11 11 0 0 1-1.805 1.273 5.6 5.6 0 0 1-2.263.571 4.35 4.35 0 0 1-2.164-.26 8.3 8.3 0 0 1-1.43-.881 7.4 7.4 0 0 0-1.56-.901 4.3 4.3 0 0 0-1.682-.392 1.9 1.9 0 0 0-1.177.285 1.85 1.85 0 0 0-.558.674 2.1 2.1 0 0 0-.19.877q-.01.496 1.016.628a12 12 0 0 0 1.847.107 15.5 15.5 0 0 0 2.649-.452q1.827-.426 7.246-1.569t7.3-1.484q1.882-.342 3.624-.595t3.472-.414q1.728-.16 3.482-.26t5.932-.133l5.019-.04q.84-.006.554.044l-1.704.3q-1.42.25-2.45.366t-3.17.24q-2.14.126-5.227.25t-6.29.131a14.3 14.3 0 0 1-3.602-.212q-.4-.218-.567-1.352a7.8 7.8 0 0 1 .798-3.548q.964-2.413 2.987-6.333t3.618-6.871 5.206-9.827 4.995-9.867a46 46 0 0 0 1.986-4.856 18 18 0 0 0 .751-2.98q.149-1.118.037-.985t-.562.667a5.4 5.4 0 0 0-.833 1.55q-.384 1.018-.81 2.485t-.904 3.416q-.481 1.949-.881 4.14t-1.27 8.681-1.269 10.654-.611 8.899-.233 9.014a31.8 31.8 0 0 0 .474 6.535 8.05 8.05 0 0 0 1.25 3.196 7.8 7.8 0 0 0 1.68 1.575 4.9 4.9 0 0 0 1.584.782 1.44 1.44 0 0 0 1.164-.192 3.2 3.2 0 0 0 .966-1.384 20.6 20.6 0 0 0 1.008-3.623q.544-2.579 1.14-6.95t.895-7.929.467-7.738.184-9.33-.033-7.55-.441-5.623q-.392-3.22-.594-4.496a24 24 0 0 0-.497-2.387q-.296-1.113-.353-1t-.286.56a40 40 0 0 0-.826 5.504q-.598 5.056-.811 7.957t-.346 6.384-.224 7.553-.16 9.317-.076 14.303.027 11.924a26 26 0 0 0 .338 4.418 20 20 0 0 0 .635 2.522 7.3 7.3 0 0 0 .578 1.372q.248.4.487.408t.532-1.312a33 33 0 0 0 .478-4.546q.185-3.226.278-6.647t.152-7.568q.061-4.147.068-8.495t-.183-8.858-.507-8.515-.634-7.09l-.332-3.266q-.018-.182-.019.706l-.009 15.918q-.009 15.03-.12 18.578t-.26 7.16-.393 7.872q-.245 4.259-.282 5.633t-.038 1.447l-.002.03v-2.126q0-1.962-.201-8.585t-.39-10.687-.302-5.646-.236-2.397a2.37 2.37 0 0 0-.4-1.143q-.275-.328-.638.328a23 23 0 0 0-1.047 4.468q-.684 3.813-1.783 9.327t-1.803 9.126-1.004 5.65a26 26 0 0 0-.318 3.555 3.74 3.74 0 0 0 .512 2.234 1.88 1.88 0 0 0 1.109.828q.582.11 1.053-.686a15.4 15.4 0 0 0 1.071-2.477q.602-1.68.96-2.895t.722-2.76q.362-1.544.759-3.56t.763-4.643.703-5.955.749-7.163q.411-3.835.89-7.386t.966-5.96q.485-2.408.809-3.441t.342-.674l.093 1.795q.074 1.436.075 5.612 0 4.177-.026 6.901t-.14 5.54-.298 9.828-.219 10.086q-.035 3.073-.039 6.61a21 21 0 0 0 .16 3.86q.163.325.42.222t.583-1.014.745-2.619.925-4.092 1.097-5.656 1.149-7.48 1.042-9.388.697-11.6q.212-6.422.233-12.587t-.277-11.515q-.299-5.348-.492-8.149t-.213-4.055l-.021-1.327q-.001-.073-.007-.006l-.106 1.21q-.1 1.144-.226 8.221-.127 7.078-.184 11.387t-.27 14.69-.328 17.184-.126 12.19q-.012 5.386.065 9.04a37 37 0 0 0 .496 5.875 8.7 8.7 0 0 0 .95 2.989 2.25 2.25 0 0 0 1.16.955 1.78 1.78 0 0 0 1.259-.09 2.9 2.9 0 0 0 1.19-1.594 21.4 21.4 0 0 0 1.081-3.77q.52-2.456 1.036-5.979t.894-7.814.656-9.614.392-11.925.125-12.704-.15-11.384-.23-8.845-.075-4.818.05-1.133.282.618a7 7 0 0 1 .375 1.86q.149 1.365.25 3.362t.22 8.349.124 10.704-.02 9.133q-.024 4.78-.354 9.933t-.713 9.961q-.386 4.81-.587 7.833t-.222 4.608q-.02 1.583.03 2.372t.354.92a.6.6 0 0 0 .586-.043q.28-.173.547-1.176a24 24 0 0 0 .519-2.905q.25-1.903.49-4.803t.453-6.906.496-13.455.462-14.853q.178-5.4.47-9.933t.7-7.36a19 19 0 0 1 .86-3.935q.454-1.107.823-.676a4.85 4.85 0 0 1 .492 2.33q.124 1.898.19 3.818t.098 4.654.035 5.828-.082 6.68-.42 7.936-.884 8.642q-.548 4.29-1.153 8.248t-1.095 6.838-.736 4.18a14 14 0 0 0-.27 1.893q-.024.594-.024.626v.008l.005-.063.138-1.71q.132-1.625.52-3.83.39-2.204.732-4.076t.531-3.443.25-2.559.065-1.041l.002-.026.001.03v1.114q.001 1.056-.411 5.15t-.629 6.61-.335 4.505-.125 3.842a21 21 0 0 1-.15 2.828 10 10 0 0 1-.537 2.035q-.393 1.062-1.045 1.07t-2.07-1.86-2.63-3.245-2.458-2.633a10.6 10.6 0 0 1-1.432-1.618q-.186-.361.585-.646a9.2 9.2 0 0 0 2.019-1.193 17.5 17.5 0 0 0 1.966-1.617 18 18 0 0 0 1.504-1.707 20.4 20.4 0 0 0 1.576-2.36 23.6 23.6 0 0 0 1.497-3.14q.706-1.778 1.343-4.003t1.14-4.771.775-5.177.378-5.36.145-7.137.04-9.508a67 67 0 0 1 .232-6.945 17 17 0 0 1 .705-3.26 17.6 17.6 0 0 1 1.068-2.555 16.6 16.6 0 0 1 1.262-2.062 26 26 0 0 1 1.752-2.12 14.4 14.4 0 0 1 2.239-2.03 15.4 15.4 0 0 1 3.33-1.678q2.176-.846 3.71-1.534t2.405-1.19 3.186-2.132 3.932-2.933a16 16 0 0 0 1.813-1.576q.196-.273.03-.175l-.822.493a7 7 0 0 0-1.305 1.035q-.644.641-1.31 1.446t-2.028 2.866-2.62 4.218-2.725 4.602-3.095 4.962-3.014 4.844-2.376 4.245-1.473 3.126a15 15 0 0 0-.7 2.145l-.23.994-.005.017.02-.109.472-2.532q.444-2.382.768-4.02t.939-3.882 1.061-3.62q.448-1.374.93-2.664t.995-2.481q.512-1.192 1.079-2.328t1.777-3.295 1.347-2.356.184-.265q.046-.07.048-.01l.004.182.003.168q0 .046.208-.254t1.04-1.505a23 23 0 0 1 1.45-1.92 18 18 0 0 1 1.334-1.386q.715-.67 1.576-1.343a22 22 0 0 1 1.935-1.338 26 26 0 0 1 3.283-1.607 35 35 0 0 1 4.227-1.508q2.019-.567 3.497-.847t2.929-.68 2.72-.88a14 14 0 0 1 2.605-.704 28 28 0 0 1 4.142-.232q2.808-.006 2.446.429a5.2 5.2 0 0 1-2.004 1.003q-1.642.57-4.932 1.612t-7.402 2.088-7.84 1.926-5.541 1.348-3.577 1.01-4.205 1.22-5.75 1.53-4.56 1.198q-1.254.345-3.027.925a26 26 0 0 1-2.985.818 12 12 0 0 1-2.19.245 3.6 3.6 0 0 1-1.73-.389 6.5 6.5 0 0 1-1.884-2.25q-1.137-1.854-1.606-2.48t-.597.26a7.8 7.8 0 0 1-.44 1.698 5.9 5.9 0 0 1-1.035 1.667 8 8 0 0 1-1.356 1.315 3 3 0 0 1-1.29.567q-.657.107-.714-.19t-.392-.125-.282-1.26.054-1.51l.002-.049-.001.017q0 .045-.026.89a18 18 0 0 1-.23 2.18q-.206 1.332-.509 2.503a14 14 0 0 1-.483 1.608q-.181.436-.436.007a5.2 5.2 0 0 1-.312-2.01q-.058-1.577-.262-3.918t-.427-4.367q-.224-2.026-.49-3.642a17 17 0 0 0-.52-2.376q-.252-.761-.544-.859t-.926 2.997q-.637 3.094-.796 4.448a20 20 0 0 0-.16 2.095q-.004.74.026.648t.15-.462a28 28 0 0 0 .15-3.718 39.5 39.5 0 0 0-.162-4.852 26 26 0 0 0-.826-3.693q-.631-2.19-1.296-4.026t-1.033-3.076q-.37-1.242-.86-3.4t-.68-3.33a22 22 0 0 1-.227-2.95 10.9 10.9 0 0 1 .262-2.912 14 14 0 0 0 .335-3.154 6.85 6.85 0 0 0-.449-3.004 4.4 4.4 0 0 1-.515-1.615 1.84 1.84 0 0 1 .35-1.174 2.77 2.77 0 0 1 1.066-.884 4.1 4.1 0 0 1 1.664-.375 10.3 10.3 0 0 1 2.442.278q1.463.313 2.937.505a54 54 0 0 0 5.402.23q3.929.039 4.283.384a1.84 1.84 0 0 1 .488.94q.135.596-1.112.244a24 24 0 0 0-2.547-.572q-1.3-.22-2.905-.575t-3.441-.755a15 15 0 0 0-2.742-.407l-.95-.007q-.047 0 .012-.042t1.184-.837a4.3 4.3 0 0 1 1.787-.867 1.31 1.31 0 0 1 1.202.75 9 9 0 0 1 .868 1.666 18 18 0 0 1 .635 2.075q.307 1.23.561 2.995t.357 4.02.113 3.686-.152 4.276-.59 5.758-1.013 5.927-.84 4.642-.275 1.735l-.01.05.002-.068q.01-.125.142-2.01t.172-4.705-.022-4.84a35 35 0 0 0-.366-4.08q-.306-2.063-.74-4.18t-.968-4.191-.972-3.4a12 12 0 0 0-.76-1.898q-.318-.57-.539-.628t-.274 2.84-.053 5.77a49 49 0 0 0 .215 4.95q.214 2.075.778 5.3t.98 4.875a30 30 0 0 0 1.075 3.383 4.07 4.07 0 0 0 1.22 2.028 1.03 1.03 0 0 0 .896.143q.335-.153.574-1.33a16.5 16.5 0 0 0 .307-2.374q.067-1.196.074-2.797t-.105-3.646q-.11-2.047-.448-4.55t-.92-5.399q-.584-2.896-1.27-5.812t-1.269-5.59-.805-4.004a25 25 0 0 1-.296-2.584l-.081-1.362q-.007-.108.009-.058c.016.05.072.243.188.63a31 31 0 0 1 .502 3.452q.329 2.872.93 9.123t1.012 10.222.886 7.525.792 4.98a15 15 0 0 0 .709 2.385 2.56 2.56 0 0 0 .865 1.25q.474.29.898-.459a11.5 11.5 0 0 0 .763-3.433q.337-2.685.432-4.788t.105-4.611-.127-5.11-.416-5.261-.471-4.846-.245-3.826-.024-2.675.483-1.305.966 1.12 1.71 6.06 1.624 6.406 1 5.466.882 6.253a18 18 0 0 0 .492 2.956q.185.43.234.083l.241-1.74q.193-1.393.312-2.881c.12-1.488.132-3.177.16-6.553a68 68 0 0 0-.553-9.51q-.594-4.446-.85-6.504t-.308-3.227l-.056-1.235q-.004-.065.008.01l.217 1.417q.205 1.343.616 6.703c.411 5.36.485 6.071.635 7.492s.369 3.879.656 7.372.454 5.689.503 6.589.139 1.95.27 3.152.277 2.19.44 2.968a7.5 7.5 0 0 0 .533 1.745.675.675 0 0 0 .808.45q.518-.129.885-1.358t.613-2.491q.245-1.263.485-2.921t.4-3.794q.162-2.136.264-4.59t.164-5.16.069-8.702.032-6.884.084-.823.292.305a7 7 0 0 1 .421 2.435q.189 2.191.522 8.25t.518 10.4q.185 4.341.309 5.61t.16 1.03l.18-1.194q.145-.954.235-3.545.09-2.59.094-5.891t-.074-5.004q-.078-1.703-.323-4.803t-.283-3.899q-.037-.8-.04-.842v-.013l-.001.075v2.056a36 36 0 0 0 .26 4.191q.26 2.24.565 4.369t.5 4.824a29.3 29.3 0 0 1-.014 6.193" style="fill:none;stroke-linecap:round;stroke-linejoin:round;stroke-width:7.2283px;mix-blend-mode:multiply;opacity:.5;stroke:#f0f"/><path d="M908.11 516.054a28 28 0 0 1 3.37.494q1.874.38 3.849.602t3.2.32 4.583.108a40 40 0 0 0 4.36-.132 26 26 0 0 0 3.07-.731 30 30 0 0 0 4.191-1.558 28 28 0 0 0 3.066-1.564 17 17 0 0 0 1.812-1.318 15 15 0 0 0 1.67-1.628 10.6 10.6 0 0 0 1.369-1.943 17 17 0 0 0 1.03-2.292q.464-1.255.943-2.876t1.254-4.702q.773-3.08 1.836-6.8t1.581-5.98a47 47 0 0 0 .838-5q.32-2.74.46-5.493t.356-5.659.721-7.59.762-7.688.393-5.4.358-7.273.542-9.869.397-8.043q.077-3.05.194-5.547a19.4 19.4 0 0 1 .431-3.689q.314-1.192.572-2.078a12.4 12.4 0 0 1 1.214-2.51q.956-1.624 1.518-2.633t1.865-2.862 3.2-4.895 3.101-4.903 2.412-3.573 2.31-3.078 2.116-2.499 3.295-3.55q2.282-2.418 3.72-4.133t3.268-4.19q1.831-2.473 2.69-3.85t1.694-2.96q.832-1.583 1.845-3.275t2.381-3.809 2.475-3.618a46 46 0 0 1 3.156-3.713q2.049-2.213 2.982-3.367t1.643-2.239a21 21 0 0 0 1.225-2.11 15 15 0 0 0 .77-1.756 19 19 0 0 0 .552-2.17q.297-1.44.96-3.91a31 31 0 0 1 1.08-3.47 16 16 0 0 1 .956-1.918q.538-.919 1.018-1.928t.342-.885l-.688.62q-.55.497-1.126 1.107a6.3 6.3 0 0 1-1.241 1.023 4.1 4.1 0 0 1-1.591.548q-.926.135-.731-.031l.973-.83a9.8 9.8 0 0 1 2.05-1.282 6.7 6.7 0 0 1 2.362-.708 2 2 0 0 1 1.702.55 7.6 7.6 0 0 1 1.096 1.488 17 17 0 0 1 .908 1.86 7.7 7.7 0 0 0 1.059 2.02M997.954 292.39l-.035-.716q-.002-.032.006-.01l.175.474M998.347 298.09q-.311.137-.26 1.155M998.27 302.855a1.38 1.38 0 0 0-.254.832 1.74 1.74 0 0 0 .234.901M998.215 310.156a7 7 0 0 0-.486 1.01 2.8 2.8 0 0 0-.135.817 4 4 0 0 0 .42 1.752M997.82 319.408a3.38 3.38 0 0 0 .3 2.154M998.059 327.909a9 9 0 0 1-.109 1.167q-.098.681-.198 1.343" class="d"/><path d="M997.405 339.86a6 6 0 0 0-.434.813 3 3 0 0 0-.18.57 4 4 0 0 0-.044.831q.022.822.316 1.044M997.22 350.979a3.6 3.6 0 0 0-.18 1.006 3 3 0 0 0 .021.453 1.6 1.6 0 0 0 .347.618M1001.56 355.754a.35.35 0 0 1 .345-.325 5.4 5.4 0 0 1 .779-.033 14.5 14.5 0 0 1 1.957.224M1009.123 355.72a4.4 4.4 0 0 0 1.026.74 5.5 5.5 0 0 0 .936.395 8 8 0 0 0 1.015.26 6 6 0 0 0 1.481.096M1018.049 355.996a3.3 3.3 0 0 0 .621.646 1.8 1.8 0 0 0 .504.234 6 6 0 0 0 1.018.222M1027.083 355.213q.999.256 1.652.395.683.146 1.152.229M1031.353 354.85l-.61-.308M1030.832 347.895a1.7 1.7 0 0 1-.056-1.027M1031.66 339.969a4 4 0 0 0-.183-1.117q-.184-.63-.238-.923a3 3 0 0 1-.038-.678 3.3 3.3 0 0 1 .219-1.087M1032.431 324.932a2.8 2.8 0 0 0-.07-1.09 3.3 3.3 0 0 0-.238-.558 1.17 1.17 0 0 1-.093-.871M1031.784 315.625a11 11 0 0 1 .49-1.85M1032.005 307.597q.056-.61.058-1.342t-.017-1.233-.017-1.256.025-1.186a17 17 0 0 1 .275-1.91M1031.805 296.96a5.5 5.5 0 0 0-.3-.936 4.6 4.6 0 0 1-.234-.777 5 5 0 0 1-.085-.962 1.58 1.58 0 0 1 .64-1.331M1030.521 289.472q-.33-.16-.254-.386M1023.903 288.298a6 6 0 0 0-1.168.23 6.1 6.1 0 0 1-1.666.278M1014.608 288.545q-.799-.02-1.518-.053-.482-.022-.879-.022a9 9 0 0 0-1.31.104M1007.266 288.279a12.4 12.4 0 0 0-1.892.047q-.683.065-1.08.114a2.3 2.3 0 0 1-.798.029M1000.077 288.648a1.7 1.7 0 0 0-.78.086.46.46 0 0 0-.372.34M215.815 126.594a6 6 0 0 1-.447-.908 1.2 1.2 0 0 1-.07-.293l-.003-.094v-.001.017l.016.415q.014.394.103 1.662t.143 2.19.177 3.338.2 3.46q.078 1.048.189 1.875a9 9 0 0 0 .235 1.252 1.8 1.8 0 0 0 .26.595q.195.237.776-.324M218.028 117.812q-.243-.305-.219-.225l.158.513M222.158 127.345a1.2 1.2 0 0 0-.564.332 1.2 1.2 0 0 0-.211.401 3.6 3.6 0 0 0-.134.673 9 9 0 0 0-.055 1q-.005.582.043 1.312t.252 2.324.298 2.385.161 1.271.116.717a1.2 1.2 0 0 0 .088.302q.04.065.132-.22a10 10 0 0 0 .236-1.197q.144-.912.235-1.588t.178-1.528.124-1.702.06-1.784q.024-.933.084-1.925a16 16 0 0 1 .17-1.65 4.3 4.3 0 0 1 .27-1.006.78.78 0 0 1 .34-.424.32.32 0 0 1 .357.076 1.8 1.8 0 0 1 .357.556 8 8 0 0 1 .366.995 10 10 0 0 1 .301 1.368q.121.774.226 1.715t.183 2.06q.08 1.117.11 2.28t.074 2.301q.045 1.14.098 2.159t.128 1.548a3 3 0 0 0 .167.73q.092.2.191.22t.18-.166a4.4 4.4 0 0 0 .188-.626q.107-.44.221-1.149t.225-1.58.212-1.96.237-2.343.345-2.47a19 19 0 0 1 .533-2.28 7.7 7.7 0 0 1 .74-1.75 3.2 3.2 0 0 1 .823-.975 3.3 3.3 0 0 1 .76-.412 3.7 3.7 0 0 1 .643-.176 3 3 0 0 1 .51-.045.78.78 0 0 1 .45.164 3 3 0 0 1 .493.472 4.7 4.7 0 0 1 .532.79 6.7 6.7 0 0 1 .493 1.202 13 13 0 0 1 .4 1.669q.17.947.265 1.947t.18 2.222q.087 1.223.138 2.432t.119 2.15.16 1.688a9 9 0 0 0 .225 1.234 1.5 1.5 0 0 0 .309.655q.248.238 1.042-.236M242.418 127.036a1.8 1.8 0 0 0-.349-.617q-.16-.191-.163.384t.105 1.897.179 2.32.139 2.224q.068 1.228.11 2.487t.062 2.373q.02 1.115.022 2.29t.002 1.238.007.033l.136-.595q.129-.565.252-1.2c.123-.635.168-.92.26-1.492s.19-1.2.292-1.888.218-1.402.344-2.143.292-1.487.495-2.234a20 20 0 0 1 .715-2.146 11.6 11.6 0 0 1 .836-1.722 6.6 6.6 0 0 1 .784-1.077 3 3 0 0 1 .631-.535 1.3 1.3 0 0 1 .495-.18.82.82 0 0 1 .468.108 2.2 2.2 0 0 1 .531.424 3.7 3.7 0 0 1 .551.772 7.6 7.6 0 0 1 .51 1.172 13 13 0 0 1 .427 1.54 16 16 0 0 1 .28 1.78q.096.934.112 2.044t-.044 2.259a20 20 0 0 1-.22 2.14q-.16.992-.295 1.659t-.185.943l-.055.304q-.006.029.005.004l.106-.261q.097-.237.269-.77t.391-1.371.451-1.932.408-2.381.363-2.826.448-3.235a16.5 16.5 0 0 1 .633-2.77 5.1 5.1 0 0 1 .848-1.638 3.2 3.2 0 0 1 .987-.816 2.2 2.2 0 0 1 .905-.264 1.12 1.12 0 0 1 .714.227 1.9 1.9 0 0 1 .554.73 4.8 4.8 0 0 1 .362 1.16q.127.666.203 1.504t.113 1.945q.036 1.107.047 2.222t.011 4.89.03 4.612a11 11 0 0 0 .386 2.523M262.923 134.456a.33.33 0 0 0 .049.286 1.1 1.1 0 0 0 .295.263 3 3 0 0 0 .688.313 6.3 6.3 0 0 0 1.117.248 8.6 8.6 0 0 0 1.35.081 3.6 3.6 0 0 0 1.312-.264 6.6 6.6 0 0 0 1.298-.727 10.4 10.4 0 0 0 1.256-1.034 8.7 8.7 0 0 0 1.009-1.155 6 6 0 0 0 .689-1.23 4.7 4.7 0 0 0 .326-1.218 8 8 0 0 0 .048-1.167 3.3 3.3 0 0 0-.26-1.16 3.4 3.4 0 0 0-.671-1.034 6 6 0 0 0-1.006-.846 9 9 0 0 0-1.122-.653 3 3 0 0 0-.883-.305.67.67 0 0 0-.565.173 2.2 2.2 0 0 0-.446.69 10 10 0 0 0-.421 1.122q-.205.644-.415 1.48t-.426 1.815-.371 1.976-.227 2.127-.045 2.253a7.2 7.2 0 0 0 .298 1.98 7.4 7.4 0 0 0 .666 1.53 5.3 5.3 0 0 0 .9 1.155 2.64 2.64 0 0 0 1.16.656 5.3 5.3 0 0 0 1.137.192 14 14 0 0 0 1.361-.045 8 8 0 0 0 1.718-.313 21 21 0 0 0 3.641-1.7M287.192 130.14a2.5 2.5 0 0 0 .216-1.208 3.7 3.7 0 0 0-.061-.866 5 5 0 0 0-.19-.608 5 5 0 0 0-.312-.65 5.3 5.3 0 0 0-.492-.71 4 4 0 0 0-.708-.68 4.4 4.4 0 0 0-.896-.524 4 4 0 0 0-.971-.292 2.2 2.2 0 0 0-.86.014 1.75 1.75 0 0 0-.737.409 4.3 4.3 0 0 0-.678.77 10.2 10.2 0 0 0-1.241 2.44 11 11 0 0 0-.46 1.688 16 16 0 0 0-.241 1.942q-.072 1.056-.08 2.285a20 20 0 0 0 .096 2.206 8 8 0 0 0 .373 1.77 7 7 0 0 0 .674 1.439 3.3 3.3 0 0 0 .858.97 2.6 2.6 0 0 0 .954.435 5.2 5.2 0 0 0 1.179.1 5.3 5.3 0 0 0 1.477-.256 8.3 8.3 0 0 0 1.555-.663 8.8 8.8 0 0 0 1.477-1.034q.72-.617 1.4-1.274a25 25 0 0 0 2.587-3.171" class="d"/><path d="M291.283 119.977q-.363-.83-.374-.722l-.039.386q-.03.309-.031 1.485t.028 2.085.17 3.297.22 3.744.164 2.53.177 2.223q.092 1.05.198 1.892t.222 1.472.254 1.143a3.1 3.1 0 0 0 .325.816q.268.433 1.385.135M298.688 125.324q-.17.124-.186.679-.01.358.009 1.067t.113 1.733.188 2.109.272 3.104.272 2.736q.134 1.044.571 3.171M299.361 117.604l-.328-.169M315.954 131.656a3.1 3.1 0 0 0 .303-.776q.07-.28.125-.61t.08-.706q.026-.376.028-.813a3.5 3.5 0 0 0-.123-.909 2.7 2.7 0 0 0-.417-.884 4.8 4.8 0 0 0-.756-.818 4.5 4.5 0 0 0-.985-.663 3.8 3.8 0 0 0-1.028-.345 3.6 3.6 0 0 0-1.032-.028 2.9 2.9 0 0 0-1.09.375 11 11 0 0 0-1.186.774 9.4 9.4 0 0 0-1.205 1.067 4.6 4.6 0 0 0-.911 1.376 8.4 8.4 0 0 0-.51 1.702 16 16 0 0 0-.247 2.112q-.066 1.18-.047 2.427a22 22 0 0 0 .17 2.41q.15 1.161.347 2.126a6.4 6.4 0 0 0 .44 1.461 1.7 1.7 0 0 0 .588.714 1.9 1.9 0 0 0 .865.261 4 4 0 0 0 1.102-.073 3.8 3.8 0 0 0 1.152-.443 5 5 0 0 0 1.089-.863 7 7 0 0 0 .941-1.23q.422-.692.828-1.463t.774-1.619a7.7 7.7 0 0 0 .525-1.732 9.7 9.7 0 0 0-.063-3.624q-.185-.864-.3-1.266t-.124-.261q-.01.14-.044.703t-.064 1.181q-.03.618-.027 2.09a19 19 0 0 0 .11 2.285q.106.812.285 1.734a17 17 0 0 0 .449 1.8 11 11 0 0 0 .613 1.575 4.2 4.2 0 0 0 .733 1.097 1.5 1.5 0 0 0 .82.468 5.25 5.25 0 0 0 2.25-.552M326.503 120.374q-.25-.208-.404.006a1.3 1.3 0 0 0-.169.532q-.06.38-.094.98t-.038 1.487q-.003.887.025 1.893t.108 2.104.15 2.279.118 2.22.083 2.08.094 1.99q.06.946.157 1.693t.218 1.472a10 10 0 0 0 .26 1.184 3.4 3.4 0 0 0 .306.743 1.8 1.8 0 0 0 .358.446.7.7 0 0 0 .378.178q.266.023.849-.656" class="d"/><path d="m321.707 126.72-.71-.027h-.007.02l.643-.001a12 12 0 0 0 1.262-.07q.653-.07 1.62-.26t2.175-.47 2.416-.53q1.771-.37 4.632-.863M337.257 134.34a1.5 1.5 0 0 0 .852-.21 4 4 0 0 0 .595-.384q.279-.216.641-.538t.82-.76q.457-.44.943-1.003a9.5 9.5 0 0 0 .837-1.118 5.7 5.7 0 0 0 .553-1.114 4.2 4.2 0 0 0 .243-1.107 2.7 2.7 0 0 0-.075-.944 1.6 1.6 0 0 0-.391-.684 1.8 1.8 0 0 0-.634-.427 1.7 1.7 0 0 0-.693-.127 1.45 1.45 0 0 0-.706.247 5.4 5.4 0 0 0-.807.642 5 5 0 0 0-.807.997 8.6 8.6 0 0 0-.689 1.368q-.317.78-.622 1.75a21 21 0 0 0-.524 2.04q-.22 1.072-.374 2.259t-.192 2.33a11 11 0 0 0 .085 1.95 3.6 3.6 0 0 0 .435 1.324 2.8 2.8 0 0 0 .75.834 2.3 2.3 0 0 0 1.008.406 9 9 0 0 0 1.409.081 8.8 8.8 0 0 0 1.784-.21 9.4 9.4 0 0 0 1.753-.552 29 29 0 0 0 3.764-2.216M353.516 121.468a4 4 0 0 0 .004-.6q-.013-.082-.116-.056t-.16.226a3 3 0 0 0-.08.549q-.026.35-.029 1.663t.046 2.235.095 2.143.067 2.458.022 3.65.015 3.232q.014.82.092 1.497t.205 1.273a3.8 3.8 0 0 0 .307.941 1.75 1.75 0 0 0 .436.557 3.07 3.07 0 0 0 1.806.218M361.248 126.642l.105-1.027.002-.01v.03l-.006.87q-.006.823-.044 2.059t-.04 2.834.033 2.596.103 1.918.164 1.75.226 1.64.267 1.438a9 9 0 0 0 .223.867 1.6 1.6 0 0 0 .176.374 1.3 1.3 0 0 0 .333.297 1.4 1.4 0 0 0 .553.217 3.5 3.5 0 0 0 .663.05 2 2 0 0 0 .785-.202 4.5 4.5 0 0 0 .897-.56 7 7 0 0 0 .72-.631 6.6 6.6 0 0 0 .667-.899 7.5 7.5 0 0 0 .703-1.387q.293-.757.533-1.582t.355-1.316.267-1.486.316-2.711q.163-1.717.227-2.207a7 7 0 0 1 .12-.7.7.7 0 0 1 .186-.338.37.37 0 0 1 .244-.126q.113.001.122.566t.002 1.633 0 1.535.048.99q.043.525.188 1.837t.208 1.957.111 1.355.069 1.602a14 14 0 0 1-.049 1.633q-.068.741-.18 1.425t-.227 1.42-.245 1.25a8 8 0 0 1-.337 1.013 8 8 0 0 1-.448.922 9 9 0 0 1-.601.904 10 10 0 0 1-.607.75 2.1 2.1 0 0 1-.558.434 1.9 1.9 0 0 1-.712.205q-.401.038-1.53.043a14 14 0 0 0-1.531.06 3.5 3.5 0 0 0-.75.187 7.5 7.5 0 0 0-1.011.519 7 7 0 0 1-1.421.714M160.072 120.935a2.4 2.4 0 0 0-.035-.743q-.043-.119-.102-.083a1.5 1.5 0 0 0-.117.596q-.057.562-.077.84t-.034 1.19-.014 3.707.01 3.952.017 2.364.008 3.072q0 1.868-.011 3.164t-.007 2.05a4 4 0 0 0 .064.916.7.7 0 0 0 .154.25.6.6 0 0 0 .237.138 2 2 0 0 0 .488.05 5 5 0 0 0 .556-.019 2 2 0 0 0 .42-.096 7 7 0 0 0 .677-.306 7 7 0 0 0 .674-.37q.205-.135.413-.296a3.4 3.4 0 0 0 .422-.393 5 5 0 0 0 .426-.542q.212-.31.485-.75t.651-1.023.778-1.242.807-1.492q.408-.831.757-1.721a14 14 0 0 0 .542-1.64q.193-.75.312-1.469t.2-1.362.1-1.149.021-.975a7 7 0 0 0-.043-.858 4 4 0 0 0-.097-.56.42.42 0 0 0-.154-.243.116.116 0 0 0-.177.024.9.9 0 0 0-.127.336 6.4 6.4 0 0 0-.081.958q-.027.717-.028 1.47t.005 1.199.057.991.146 1.256.231 1.477.304 1.586.363 1.562a12 12 0 0 0 .404 1.279 6.5 6.5 0 0 0 .432.922 3.5 3.5 0 0 0 .45.63 1 1 0 0 0 .442.303.86.86 0 0 0 .406.02.64.64 0 0 0 .363-.267 2.4 2.4 0 0 0 .31-.594q.138-.367.28-.866t.315-1.157.595-2.388.644-2.901.359-2.432.164-2.646a23 23 0 0 0-.107-2.71q-.133-1.325-.32-2.275t-.307-1.543-.153-.932-.04-.468.03-.072l.288.503M180.183 135.334a.83.83 0 0 0 .103.57.6.6 0 0 0 .22.142 1.2 1.2 0 0 0 .35.072 1.8 1.8 0 0 0 .507-.046 2.7 2.7 0 0 0 .686-.273 7 7 0 0 0 .833-.53 7 7 0 0 0 .837-.714 6.7 6.7 0 0 0 .726-.86 6.5 6.5 0 0 0 .593-1.029 6.7 6.7 0 0 0 .415-1.167q.155-.606.27-1.169t.172-1.064.063-.896a2 2 0 0 0-.139-.768 3.7 3.7 0 0 0-.37-.714 2.8 2.8 0 0 0-.476-.562 1.8 1.8 0 0 0-.53-.332 1.7 1.7 0 0 0-.56-.121 1.4 1.4 0 0 0-.617.14 3.6 3.6 0 0 0-.74.47 4.6 4.6 0 0 0-.757.772 8.4 8.4 0 0 0-.67 1.007 11 11 0 0 0-.599 1.223 11 11 0 0 0-.478 1.42 15 15 0 0 0-.324 1.634 18 18 0 0 0-.16 1.918q-.035 1.035.025 1.993a10 10 0 0 0 .271 1.784 11 11 0 0 0 .523 1.57 4.8 4.8 0 0 0 .707 1.217 2.9 2.9 0 0 0 .94.746 4.1 4.1 0 0 0 1.23.378 5.6 5.6 0 0 0 1.25.061 10 10 0 0 0 1.925-.468q1.36-.426 1.99-.643a8.4 8.4 0 0 0 1.23-.537q.6-.321 1.314-.726a16.7 16.7 0 0 0 2.83-2.278" class="d"/></g></g></svg>