<svg xmlns="http://www.w3.org/2000/svg" viewBox="0 0 1190.88 841.68"><defs><clipPath id="a"><path d="M0 0h1190.88v841.68H0z" style="fill:none"/></clipPath><style>.c,.d{fill:none;stroke:#000;stroke-linecap:round;stroke-linejoin:round}.c{stroke-width:4.5574px}.d{stroke-width:2.8346px}.e,.f{fill:#7ec636;opacity:.1}.f{fill:#007aff}</style></defs><g style="clip-path:url(#a)"><path d="M283.644 295.63q-.005-2.695-.008-5.391t-.008-5.392m.088 59.31-.008-5.392-.008-5.392-.008-5.392-.008-5.392-.008-5.391-.008-5.392m.12 80.876-.008-5.392-.008-5.392-.008-5.391-.008-5.392-.008-5.392-.008-5.392-.009-5.391m266.583 37.345.008 5.392.008 5.392.008 5.391.008 5.392-5.44.008-5.439.008-5.44.008-5.438.008-5.44.008-5.439.009-5.44.008-5.439.008-5.439.008-5.44.008-5.438.008-5.44.008-5.44.008-5.438.008-5.44.009-5.44.008-5.438.008-5.44.008-5.439.008-5.44.008-5.439.008-5.439.008-5.44.008-5.439.008-5.439.008-5.44.009-5.438.008-5.44.008-5.44.008-5.438.008-5.44.008-5.439.008-5.44.008-5.439.008-5.439.008-5.44.009-5.439.008-5.439.008-5.44.008-5.438.008-5.44.008-5.44.008-5.438.008-5.44.008-5.439.008-5.44.009-5.439.008-5.439.008-5.44.008-.007-5.392-.008-5.392m266.43-65.097.008 5.392.008 5.391.008 5.392.008 5.392.008 5.391.008 5.392.008 5.392m-.113-75.484.009 5.392.007 5.391.008 5.392.009 5.392m-266.582-37.346 5.439-.008 5.44-.008 5.438-.008 5.44-.008 5.44-.008 5.438-.008 5.44-.008 5.439-.009 5.44-.008 5.439-.008 5.439-.008 5.44-.008 5.439-.008 5.439-.008 5.44-.008 5.438-.008 5.44-.008 5.44-.008 5.438-.009 5.44-.008 5.439-.008 5.44-.008 5.439-.008 5.439-.008 5.44-.008 5.438-.008 5.44-.008 5.44-.009 5.438-.008 5.44-.008 5.44-.008 5.438-.008 5.44-.008 5.439-.008 5.44-.008 5.439-.008 5.439-.008 5.44-.008 5.439-.009 5.439-.008 5.44-.008 5.438-.008 5.44-.008 5.44-.008 5.438-.008 5.44-.008 5.439-.008 5.44-.008 5.439-.008.008 5.391M514.304 315.3l5.184-1.513 5.184-1.513 5.184-1.513 5.184-1.513 5.184-1.513 5.184-1.513 5.184-1.513m-124.415 36.312 5.184-1.513 5.184-1.513 5.184-1.513 5.184-1.513 5.184-1.513 5.184-1.513 5.184-1.513 5.184-1.513 5.184-1.513 5.184-1.513 5.184-1.513 5.184-1.513 5.184-1.513 5.184-1.513 5.184-1.513m-176.255 51.442 5.184-1.513 5.184-1.513 5.184-1.513 5.184-1.513 5.184-1.513 5.184-1.513 5.184-1.513 5.184-1.513 5.184-1.513 5.184-1.513 5.184-1.513 5.184-1.513 5.184-1.513 5.183-1.513 5.184-1.513 5.184-1.513 5.184-1.513M286.21 381.872l5.184-1.513 5.184-1.513 5.184-1.513 5.184-1.513 5.184-1.513 5.184-1.513" class="c"/><path d="m469.277 301.483-.008-5.392-.008-5.392-.009-5.392m.097 64.701-.008-5.392-.008-5.391-.008-5.392-.008-5.392-.008-5.392-.008-5.391-.008-5.392m.12 80.876-.008-5.392-.008-5.392-.008-5.391-.008-5.392-.008-5.392-.008-5.392m266.574 31.954.008 5.392.008 5.392.008 5.392.008 5.391-5.44.008-5.439.008-5.439.008-5.44.009-5.438.008-5.44.008-5.44.008-5.438.008-5.44.008-5.44.008-5.439.008-5.44.008-5.438.009-5.44.008-5.44.008-5.438.008-5.44.008-5.439.008-5.44.008-5.438.008-5.44.008-5.439.008-5.44.008-5.439.009-5.439.008-5.44.008-5.439.008-5.44.008-5.439.008-5.439.008-5.44.008-5.439.008-5.439.008-5.439.008-5.44.009-5.439.008-5.439.008-5.44.008-5.439.008-5.439.008-5.44.008-5.439.008-5.439.008-5.44.008-5.439.008-5.439.009-5.439.008-5.44.008-5.439.008-.008-5.392-.008-5.392m266.422-70.489.008 5.392.008 5.392.008 5.392.008 5.391.008 5.392.008 5.392.008 5.391.008 5.392.008 5.392m-.12-80.876.008 5.392.008 5.391.008 5.392.008 5.392m-266.582-37.346 5.44-.008 5.44-.008 5.438-.008 5.44-.008 5.439-.008 5.44-.008 5.439-.008 5.439-.008 5.44-.009 5.439-.008 5.439-.008 5.44-.008 5.438-.008 5.44-.008 5.44-.008 5.438-.008 5.44-.008 5.439-.008 5.44-.008 5.438-.009 5.44-.008 5.439-.008 5.44-.008 5.439-.008 5.44-.008 5.439-.008 5.439-.008 5.44-.008 5.439-.008 5.439-.008 5.44-.009 5.438-.008 5.44-.008 5.439-.008 5.44-.008 5.439-.008 5.439-.008 5.439-.008 5.44-.008 5.44-.008 5.439-.008 5.439-.008 5.439-.008 5.44-.009 5.439-.008 5.439-.008 5.44-.008 5.438-.008 5.44-.008.008 5.392" class="c"/><path d="m705.114 314.247 5.183-1.513 5.184-1.513 5.184-1.513 5.184-1.513 5.184-1.513 5.184-1.513m-129.599 37.825 5.184-1.513 5.184-1.513 5.184-1.513 5.184-1.513 5.184-1.513 5.184-1.513 5.184-1.513 5.183-1.513 5.184-1.513 5.184-1.513 5.184-1.513 5.185-1.513 5.183-1.513 5.184-1.513 5.185-1.513 5.184-1.513M518.49 368.715l5.184-1.513 5.184-1.513 5.184-1.513 5.184-1.513 5.184-1.513 5.184-1.513 5.184-1.513 5.184-1.513 5.184-1.513 5.184-1.513 5.183-1.513 5.184-1.513 5.184-1.513 5.184-1.513 5.184-1.513m-124.415 36.312 5.184-1.513 5.184-1.513 5.184-1.513 5.184-1.513 5.184-1.513 5.184-1.513 5.184-1.513" class="c"/><path d="m653.844 296.505-.008-5.392-.008-5.392m.088 59.31-.008-5.393-.008-5.391-.008-5.392-.008-5.392-.008-5.392-.008-5.391m.112 75.484-.008-5.392-.008-5.392-.008-5.391-.008-5.392-.008-5.392m266.582 37.346.009 5.391q.005 2.695.008 5.392l.007 5.392-5.439.008-5.44.008-5.438.008-5.44.008-5.44.008-5.438.009-5.44.008-5.439.008-5.44.008-5.438.008-5.44.008-5.439.008-5.44.008-5.44.008-5.439.008-5.439.008-5.44.009q-2.72.003-5.438.008t-5.439.008l-5.44.008-5.438.008-5.44.008-5.439.008-5.44.008-5.439.008-5.439.009-5.44.008-5.438.008-5.44.008-5.44.008-5.439.008-5.44.008-5.439.008-5.439.008-5.439.009-5.44.008-5.439.008-5.439.008-5.44.008-5.438.008-5.44.008-5.439.008-5.44.008-5.439.008-5.439.008-5.44.009-5.439.008-5.44.008-5.439.008-.008-5.392-.007-5.392m266.421-70.489.008 5.392.008 5.391.008 5.392.008 5.392.008 5.392.008 5.391.008 5.392.008 5.392.008 5.392m-.12-80.876.008 5.392.008 5.391.008 5.392.008 5.392M653.828 285.72l5.439-.008 5.44-.008 5.439-.008 5.44-.008 5.439-.008 5.439-.009 5.44-.008 5.439-.008 5.439-.008 5.44-.008 5.438-.008 5.44-.008 5.439-.008 5.44-.008 5.439-.008 5.439-.008 5.439-.009 5.44-.008 5.439-.008 5.439-.008 5.44-.008 5.44-.008 5.438-.008 5.44-.008 5.439-.008 5.44-.008 5.439-.009 5.439-.008 5.439-.008 5.44-.008 5.439-.008 5.439-.008 5.44-.008 5.438-.008 5.44-.008 5.439-.008 5.44-.008 5.44-.009 5.438-.008 5.44-.008 5.439-.008 5.44-.008 5.439-.008 5.439-.008 5.44-.008 5.438-.008 5.44-.008 5.439-.008 5.44-.009.007 5.392" class="c"/><path d="m884.505 316.174 5.184-1.513 5.184-1.513 5.184-1.513 5.183-1.513 5.184-1.513 5.184-1.513 5.184-1.513m-129.599 37.825 5.184-1.513 5.184-1.513 5.184-1.513 5.184-1.513 5.184-1.513 5.184-1.513 5.184-1.513 5.184-1.513 5.184-1.513 5.184-1.513 5.184-1.513 5.184-1.513 5.184-1.513 5.184-1.513 5.184-1.513 5.184-1.513m-171.07 49.929 5.184-1.513 5.184-1.513 5.183-1.513 5.184-1.513 5.184-1.513 5.184-1.513 5.184-1.513 5.184-1.513 5.184-1.513 5.184-1.513 5.184-1.513 5.184-1.513 5.184-1.513 5.184-1.513 5.184-1.513M656.41 382.746l5.184-1.513 5.184-1.513 5.184-1.513 5.184-1.513 5.184-1.513 5.184-1.513M837.59 297.04l-.008-5.39-.008-5.393m.096 64.701-.008-5.392-.008-5.391-.008-5.392-.008-5.392-.008-5.392-.008-5.391-.008-5.392m.12 80.876-.008-5.392-.008-5.392-.007-5.391q-.003-2.696-.009-5.392l-.008-5.392-.008-5.391m266.599 48.129.008 5.391-5.44.008-5.439.008-5.44.009-5.44.008-5.438.008-5.44.008-5.439.008-5.44.008-5.439.008-5.439.008-5.44.008-5.438.008-5.44.009-5.439.008-5.44.008-5.438.008-5.44.008-5.439.008-5.44.008-5.44.008-5.438.008-5.44.008-5.439.008-5.44.009-5.439.008-5.439.008-5.44.008-5.438.008-5.44.008-5.439.008-5.44.008-5.439.008-5.439.008-5.44.008-5.439.009-5.44.008-5.439.008-5.439.008-5.44.008-5.438.008-5.44.008-5.439.008-5.44.008-5.438.008-5.44.009-5.439.008-5.44.008-5.439.008-5.439.008-.008-5.392-.008-5.392m-.176-118.618 5.439-.008 5.44-.008 5.438-.008 5.44-.008 5.439-.008 5.44-.008 5.439-.008 5.439-.008 5.44-.008 5.438-.008 5.44-.009 5.439-.008 5.44-.008 5.438-.008 5.44-.008 5.44-.008 5.44-.008 5.438-.008 5.44-.008 5.439-.008 5.44-.008 5.438-.009 5.44-.008 5.439-.008 5.44-.008 5.439-.008 5.439-.008 5.44-.008 5.44-.008 5.438-.008 5.44-.008 5.439-.008 5.44-.009 5.438-.008 5.44-.008 5.439-.008 5.44-.008 5.438-.008 5.44-.008 5.44-.008 5.438-.008 5.44-.008 5.439-.009 5.44-.008 5.44-.008 5.438-.008 5.44-.008 5.44-.008 5.438-.008M886.813 369.665l5.184-1.513 5.184-1.513 5.184-1.513 5.184-1.513 5.184-1.513 5.183-1.513 5.184-1.513m-82.943 24.208 5.184-1.513 5.184-1.513 5.184-1.513 5.184-1.513 5.184-1.513 5.184-1.513 5.184-1.513M97.665 290.29l-.008-5.392m266.687 107.438.008 5.392.008 5.391.008 5.392.008 5.392-5.44.008-5.439.008-5.44.008-5.439.008-5.439.008-5.44.008-5.438.009-5.44.008-5.439.008-5.44.008-5.439.008-5.439.008-5.44.008-5.439.008-5.439.008-5.44.008-5.438.008-5.44.008-5.44.009-5.438.008-5.44.008-5.439.008-5.44.008-5.439.008-5.439.008-5.44.008-5.439.008-5.439.009-5.44.008-5.439.008-5.439.008-5.44.008-5.438.008-5.44.008-5.439.008-5.44.008-5.439.008-5.439.008-5.44.009-5.439.008-5.439.008-5.44.008-5.438.008-5.44.008-5.439.008-5.44.008-5.439.008-5.439.008-5.439.009-.008-5.392-.008-5.391m266.43-65.098.008 5.392.008 5.392.008 5.391.008 5.392.008 5.392.008 5.392.008 5.391.008 5.392m-.12-80.876.008 5.392.008 5.392.008 5.391.008 5.392M97.657 284.898l5.44-.008 5.439-.008 5.439-.008 5.44-.009 5.439-.008 5.439-.008 5.44-.008 5.439-.008 5.439-.008 5.44-.008 5.439-.008 5.439-.008 5.44-.008 5.438-.008 5.44-.008 5.439-.009 5.44-.008 5.439-.008 5.439-.008 5.44-.008 5.439-.008 5.439-.008 5.44-.008 5.439-.008 5.439-.008 5.44-.008 5.438-.009 5.44-.008 5.439-.008 5.44-.008 5.439-.008 5.439-.008 5.44-.008 5.439-.008 5.439-.008 5.44-.008 5.439-.008 5.439-.009 5.44-.008 5.439-.008 5.439-.008 5.44-.008 5.438-.008 5.44-.008 5.439-.008 5.44-.008 5.439-.008 5.439-.008 5.44-.009.007 5.392M333.518 313.838l5.184-1.513 5.184-1.513 5.184-1.513 5.184-1.513 5.184-1.513 5.184-1.513m-108.864 31.773 5.184-1.513 5.184-1.513 5.184-1.513 5.184-1.513 5.184-1.513 5.184-1.513 5.184-1.513 5.184-1.513 5.184-1.513 5.184-1.513 5.184-1.513 5.184-1.513M99.358 445.515a3.5 3.5 0 0 0-.605 1.07 4.3 4.3 0 0 0-.292 1.176 13 13 0 0 0-.084 1.4 6.4 6.4 0 0 0 .14 1.41 4.9 4.9 0 0 0 .539 1.366 9.6 9.6 0 0 0 .9 1.316 12 12 0 0 0 1.087 1.168 13 13 0 0 0 1.296 1.063 11 11 0 0 0 1.593.949 9.2 9.2 0 0 0 2.03.69 16 16 0 0 0 2.51.343q1.357.083 2.75.09a25 25 0 0 0 2.832-.155q1.44-.161 3.308-.544t3.718-.834 3.733-.978 4.145-1.138 4.197-1.157 4.319-1.187 4.682-1.306 4.849-1.422 4.836-1.388 5.026-1.282 5.21-1.083 5.007-.698 5.145-.369 5.279-.103a42 42 0 0 1 5.057.29 44 44 0 0 1 5.08.941 50 50 0 0 1 5.1 1.518q2.402.864 4.457 1.823t4.278 2 3.908 1.99a29 29 0 0 1 2.981 1.903 25 25 0 0 1 2.478 2.083q1.182 1.13 2.034 2.071a20 20 0 0 1 1.406 1.709 15 15 0 0 1 .932 1.44 9 9 0 0 1 .562 1.164 5 5 0 0 1 .262.949l.084.487q.005.03.005.01v-.32a3.3 3.3 0 0 1 .514-1.203 26 26 0 0 1 1.513-2.272q.998-1.371 1.752-2.232a15.6 15.6 0 0 1 1.839-1.753 23 23 0 0 1 2.373-1.696q1.29-.806 2.588-1.486t2.86-1.364a33 33 0 0 1 3.541-1.294q1.98-.61 3.711-1.01t3.95-.69 4.474-.394 4.232-.118 4.41.128 4.491.385q2.058.245 4.47.571t4.57.694q2.156.366 4.504.806t4.599.89 4.511.945 4.618.921q2.359.428 4.379.815t4.384.76 4.516.685 4.341.53 4.556.384 4.312.266q1.945.1 4.114.136t6.12.033 5.8-.105 3.45-.349q1.6-.245 3.264-.637t3.276-.828q1.613-.437 3.19-.965t3.037-1.15q1.458-.62 2.89-1.226t2.991-1.296q1.56-.691 2.75-1.328t2.188-1.289q.997-.651 2.861-1.847t3.247-2.102a19 19 0 0 0 3.212-2.513M215.703 482.957a17 17 0 0 0 .037-1.892 5.5 5.5 0 0 0-.338-1.222 8 8 0 0 0-.563-1.288 4.4 4.4 0 0 0-.598-.79 3.7 3.7 0 0 0-.805-.633 3.3 3.3 0 0 0-.986-.382 5 5 0 0 0-1.078-.109 1.86 1.86 0 0 0-1.103.414 4.1 4.1 0 0 0-1.028 1.21 15 15 0 0 0-.89 1.769q-.412.969-.759 2.073a24 24 0 0 0-.615 2.441 19 19 0 0 0-.334 2.946q-.066 1.609.001 3.287a19 19 0 0 0 .442 3.363q.376 1.684.928 3.355a18.6 18.6 0 0 0 1.308 3.06 10.8 10.8 0 0 0 1.712 2.374 9.54 9.54 0 0 0 4.281 2.57 11 11 0 0 0 2.082.384 8.7 8.7 0 0 0 1.991-.082q1.484-.226 5.544-2.678M228.16 471.11l.031-.22q.001-.007.002.082t.017 1.458.193 3.804.277 3.966.2 2.209.136.602l.175-.373a9 9 0 0 0 .357-1.68q.217-1.382.566-3.282t.57-2.675q.223-.775.465-1.408a7.3 7.3 0 0 1 .483-1.048 2.2 2.2 0 0 1 .515-.63 1.26 1.26 0 0 1 .578-.265 1.2 1.2 0 0 1 .671.104 2.1 2.1 0 0 1 .726.548 6 6 0 0 1 .688.93q.328.534.936 1.805.922 1.926 1.704 3.527M246.056 473.876a7 7 0 0 0-1.27.033l-.134.046q-.024.009.19.024l1.152.08q.937.066 1.437.067a7.8 7.8 0 0 0 2.183-.475M256.39 464.626q-.33-1.317.382-1.426a4.6 4.6 0 0 1 .825-.065 1.4 1.4 0 0 1 .676.231 2.2 2.2 0 0 1 .596.533 3.2 3.2 0 0 1 .427.782 4.1 4.1 0 0 1 .246 1.13q.06.661.068 1.485a9.5 9.5 0 0 1-.148 1.71 28 28 0 0 1-.802 2.982 19 19 0 0 0-.727 2.833 3.7 3.7 0 0 0-.025.991.59.59 0 0 0 .383.395 2.8 2.8 0 0 0 .783.198 18 18 0 0 0 3.658-.51M463.717 443.678q.034-.469 2.233-.067t2.948.597q.75.195 1.527.475a23 23 0 0 1 2.246 1.013q1.47.734 2.37 1.169t2.018.872q1.118.44 3.608 1.272t3.718 1.21q1.226.377 2.803.733t3.315.633 3.412.426 3.633.176 3.946.027 3.839-.14 3.938-.358 4.022-.409 5.926-.633 6.012-.698 6.819-.947 7.269-1.021q2.47-.33 5.226-.629t5.3-.467q2.543-.168 5.232-.22t4.885-.015a40 40 0 0 1 4.592.36q2.396.321 4.367.733a36 36 0 0 1 3.672.956q1.7.544 3.339 1.132t3.044 1.208a27 27 0 0 1 2.57 1.293 20.4 20.4 0 0 1 2.718 1.953q1.549 1.28 2.233 1.8t1.275.89a7 7 0 0 0 1.14.59 5.4 5.4 0 0 0 .988.302 5 5 0 0 0 .882.091 2.4 2.4 0 0 0 .837-.13 3 3 0 0 0 .785-.425q.391-.288 1.816-1.657a18 18 0 0 1 2.127-1.835 13 13 0 0 1 1.567-.881 18 18 0 0 1 1.81-.75q.944-.333 1.972-.597t2.018-.46 2.07-.324 2.336-.189 4.144-.054a43 43 0 0 1 4.364.17q1.478.167 3.233.41t3.616.542 3.638.555 3.857.523 4.183.55 4.386.537q2.28.254 4.62.49t4.828.396 5.202.233 5.176.078 5.6-.091 8.69-.642q5.551-.547 8.294-.857t5.607-.68q2.865-.37 5.506-.916t5.448-1.183q2.806-.638 5.367-1.363t5.238-1.552q2.677-.825 4.918-1.766t4.345-2.064 3.86-2.2a25 25 0 0 0 3.002-2.12 18.5 18.5 0 0 0 2.151-2.094 13.4 13.4 0 0 0 1.455-1.998 4.22 4.22 0 0 0 .115-3.495M575.634 483.537a5.7 5.7 0 0 0 .204-1.846 10 10 0 0 0-.176-2.114 6.3 6.3 0 0 0-.34-1.137 2.3 2.3 0 0 0-.397-.611 1.4 1.4 0 0 0-.82-.345 1.21 1.21 0 0 0-.957.181 4.2 4.2 0 0 0-.771.807q-.405.53-.856 1.243t-.937 1.625a18 18 0 0 0-.918 2.044 17.5 17.5 0 0 0-.746 2.654 21 21 0 0 0-.408 3.111q-.092 1.59-.068 3.169a15.8 15.8 0 0 0 .382 3.187 18.6 18.6 0 0 0 2.047 5.323 10 10 0 0 0 1.281 1.764 5.5 5.5 0 0 0 1.493 1.153 5.2 5.2 0 0 0 1.942.527 16 16 0 0 0 2.353.035 10.3 10.3 0 0 0 2.453-.444 13 13 0 0 0 2.281-.935 20 20 0 0 0 2.065-1.26 32 32 0 0 0 4.244-3.973M592.594 471.263a1.32 1.32 0 0 0-1.272-.51 1.17 1.17 0 0 0-.812.273 1.9 1.9 0 0 0-.354.689 5.2 5.2 0 0 0-.202 1.156q-.056.704-.057 4.548t.012 4.4a3.2 3.2 0 0 0 .123.898.83.83 0 0 0 .409.5.364.364 0 0 0 .515-.162 14.5 14.5 0 0 0 .833-1.745q.616-1.426 1.354-3.664t1.11-3.12a8.5 8.5 0 0 1 .731-1.413 2.1 2.1 0 0 1 .73-.724 1.8 1.8 0 0 1 .81-.197 1.27 1.27 0 0 1 .881.423 6.7 6.7 0 0 1 .87 1.052q.425.624 1.263 2.185a21.4 21.4 0 0 0 3.1 4.347M837.437 443.122q.3.058.334.457a4.2 4.2 0 0 0 .207.93 8.6 8.6 0 0 0 .528 1.224 9.4 9.4 0 0 0 1.066 1.573 16 16 0 0 0 1.24 1.396q.53.516 1.765 1.545t2.613 2.32 2.778 2.688a19 19 0 0 0 3.251 2.575 19.8 19.8 0 0 0 3.972 1.934q2.119.755 4.201 1.348t4.525 1.063 4.662.712 5.075.261 5.41-.193 5.639-.652 5.814-.885 6.035-.846q3.307-.402 6.13-.751t6.105-.8 6.308-.991 5.975-1.1q2.95-.56 6.11-1.218t5.923-1.184q2.765-.528 5.659-.847t5.237-.397 4.643.03a35 35 0 0 1 4.309.457 30 30 0 0 1 3.571.822q1.561.477 2.93 1.025t2.59 1.093 2.19 1.056 1.709.958 1.539 1.031a5 5 0 0 0 1.009.644q.213.06.234-.657a8 8 0 0 1 .116-1.234 6.3 6.3 0 0 1 .304-1.074 5.6 5.6 0 0 1 .593-1.135 6 6 0 0 1 .944-1.093 7.4 7.4 0 0 1 1.503-1.029 11.6 11.6 0 0 1 2.187-.884 20 20 0 0 1 2.715-.598q1.472-.225 3.104-.355t3.834-.194q2.2-.063 7.67-.14t8.651-.16q3.184-.085 10.961-.379t11.676-.515q3.9-.22 8.118-.478t8.822-.562 8.982-.633 8.539-.7q4.16-.374 7.99-.83t7.761-1.014q3.933-.556 7.453-1.21t6.488-1.382 5.777-1.616 5.032-1.696 3.808-1.536a12.6 12.6 0 0 0 4.14-3.054M968.9 481.6a3.4 3.4 0 0 0-.692-1.665 7.9 7.9 0 0 0-1.484-1.362q-1.087-.829-1.725-1.266t-1.008-.647a5.5 5.5 0 0 0-.928-.402 4.2 4.2 0 0 0-1.089-.224 1.57 1.57 0 0 0-1.013.302 3.2 3.2 0 0 0-.9 1.043 10.4 10.4 0 0 0-.793 1.772q-.377 1.065-.687 2.318a24 24 0 0 0-.507 2.907q-.198 1.654-.23 3.348t.075 3.362a28 28 0 0 0 .443 3.44q.334 1.77.797 3.431a18 18 0 0 0 1.063 2.911 8.5 8.5 0 0 0 1.474 2.17 7.8 7.8 0 0 0 1.94 1.499 9.2 9.2 0 0 0 2.26.864 14 14 0 0 0 2.401.36q1.737.106 7.762-1.42M982.315 469.954a.82.82 0 0 0-.623.306 3.5 3.5 0 0 0-.543.93 16 16 0 0 0-.542 1.5 20 20 0 0 0-.498 2.002q-.226 1.128-.4 2.25t-.296 2.073-.2 2.27a13 13 0 0 0-.034 1.76q.045.442.202.361a5.3 5.3 0 0 0 .7-1.504q.542-1.424 1.324-4.09t1.315-3.996a13.2 13.2 0 0 1 1.18-2.318 9 9 0 0 1 1.28-1.594 3.5 3.5 0 0 1 1.244-.82 3.1 3.1 0 0 1 1.163-.192 1.9 1.9 0 0 1 1.038.362 4 4 0 0 1 .873.83 7 7 0 0 1 .7 1.09 9 9 0 0 1 .562 1.332q.354 1.047 1.636 7.324M996.615 472.774a3.9 3.9 0 0 0 1.78.819 10.3 10.3 0 0 0 1.878.181 9.4 9.4 0 0 0 1.67-.07 5.6 5.6 0 0 0 1.033-.288 7 7 0 0 0 1.919-1.356" class="c"/><path d="M1003.415 466.666a8.3 8.3 0 0 0-1.184 2.299 12.5 12.5 0 0 0-.605 1.95 13 13 0 0 0-.214 2.221 17 17 0 0 0 .056 2.194 8.6 8.6 0 0 0 .317 1.569q.225.738.508 1.455a11 11 0 0 0 .605 1.294 5.5 5.5 0 0 0 1.619 1.674M1013.893 466.469a3.1 3.1 0 0 1 1.473-1.196 1.24 1.24 0 0 1 .773-.005 1.66 1.66 0 0 1 .606.467 2.6 2.6 0 0 1 .49.902 5.3 5.3 0 0 1 .235 1.312 13 13 0 0 1-.006 1.645 10 10 0 0 1-.35 1.97q-.295 1.083-.597 2.261t-.515 2.217a16 16 0 0 0-.28 1.845q-.067.806-.073 1.436a3 3 0 0 0 .147 1.046 1.46 1.46 0 0 0 .521.686 2.2 2.2 0 0 0 .88.373 6.6 6.6 0 0 0 1.204.112 10 10 0 0 0 1.56-.115 7.6 7.6 0 0 0 1.765-.486q1.298-.524 4.133-3.543M655.827 271.15a5.1 5.1 0 0 0-1.173-.293q-.404-.052-.497-.312a.8.8 0 0 1 .137-.66 11 11 0 0 1 1.98-1.784 27 27 0 0 1 2.73-1.962 20.5 20.5 0 0 1 2.31-1.145q1.329-.569 4.743-1.758t4.314-1.451 1.771-.457 2.399-.478 3.057-.526 3.276-.406 2.776-.23 3.432-.104 3.499-.044 2.066.022 2.825.166 3.633.288q1.777.15 3.566.33t3.59.378 3.452.415 4.808.688 4.664.706 2.82.47 2.641.44 2.804.393 4.162.413 5.84.25 4.62-.025 4.255-.364q2.79-.314 5.352-.673t3.616-.56 3.078-.646 3.754-.794 2.887-.576a10 10 0 0 0 1.749-.464 2.1 2.1 0 0 0 .795-.476.83.83 0 0 0 .215-.535q.008-.297-.013-.258l-.104.196a1.55 1.55 0 0 0-.084.625 3.3 3.3 0 0 0 .061.737 1.5 1.5 0 0 0 .301.572 3.7 3.7 0 0 0 .658.623 7.5 7.5 0 0 0 1.105.672q.685.352 2.582 1.14t3.003 1.286 2.15.99 2.299.983a23 23 0 0 0 2.864.89q1.612.4 3.168.682t3.135.493q1.578.212 3.543.365t3.925.228 6.062.077 6.116-.062q2.015-.065 4.254-.227t6.775-.574 6.74-.569 4.308-.285 4.428-.28 6.82-.384 8.794-.41 6.69-.3q2.392-.12 4.454-.212t5.83-.201 8.867-.125 6.79.046q1.689.06 2.98.125t2.688.162q1.4.096 2.793.242t2.682.311 2.444.363 2.13.43 1.914.5 1.846.552 1.719.606 1.414.623a10 10 0 0 1 1.075.625 7.3 7.3 0 0 1 1.01.853 4.6 4.6 0 0 1 .84 1.106l.533 1.006M756.744 230.658a6.4 6.4 0 0 0-.428-2.01q-.394-1.06-.816-1.925a8 8 0 0 0-.765-1.311 2.7 2.7 0 0 0-.775-.695 3 3 0 0 0-.98-.35 3.8 3.8 0 0 0-1.171-.02 3.3 3.3 0 0 0-1.343.55 7.5 7.5 0 0 0-1.433 1.25 12 12 0 0 0-1.275 1.67 11 11 0 0 0-.998 2.08 16.7 16.7 0 0 0-.723 2.748q-.285 1.557-.452 3.117t-.196 4.007q-.027 2.445-.015 3.322a13 13 0 0 0 .247 2.125 10.8 10.8 0 0 0 .718 2.352 6.7 6.7 0 0 0 1.27 1.932 6 6 0 0 0 1.323 1.123 8 8 0 0 0 1.023.475 9.6 9.6 0 0 0 1.635.369 19 19 0 0 0 2.959.19 12.7 12.7 0 0 0 3.144-.338q1.336-.341 2.186-.591t1.672-.535a30 30 0 0 0 3.946-1.934M772.331 213.687a5.3 5.3 0 0 0-1.09-.206 1.06 1.06 0 0 0-.576.271 4 4 0 0 0-.563.502 4.4 4.4 0 0 0-.514.815 6.8 6.8 0 0 0-.523 1.366q-.214.78-.387 1.79t-.314 2.136-.283 3.092-.146 3.191.05 1.083.272-.713 1.332-4.329 1.297-4.437q.184-.68.631-2.033t.766-2.1a16 16 0 0 1 .854-1.678 8 8 0 0 1 1.09-1.517 2.4 2.4 0 0 1 1.046-.72 2 2 0 0 1 .951-.04 1.74 1.74 0 0 1 .932.666 9 9 0 0 1 1.037 1.735q.567 1.166.91 2.057t.76 2.327a22 22 0 0 1 .584 2.448q.168 1.012.314 2.705t.278 2.762a10 10 0 0 0 .956 3.153M787.044 220.115q1.841-.178 3.069-.255.834-.052 2.386-.266a16.3 16.3 0 0 0 3.818-.91" class="c"/><path d="M793.164 212.864a11 11 0 0 1-.585 1.75q-.46 1.14-.723 1.966a11 11 0 0 0-.395 1.69 13 13 0 0 0-.143 1.791 8.5 8.5 0 0 0 .185 1.86 7.3 7.3 0 0 0 .616 1.776 13.8 13.8 0 0 0 2.116 2.897M809.701 212.128a4.9 4.9 0 0 1 .86 2.4q.18 1.496.327 2.264a11 11 0 0 0 .394 1.488q.247.72.61 1.508.528 1.149 1.822 3.4M285.077 260.946a1.98 1.98 0 0 1 .11-1.56 6 6 0 0 1 .714-.687q.48-.41 1.492-1.14t1.727-1.202q.716-.47 2.134-1.299t2.876-1.647q1.458-.82 3.072-1.592t3.825-1.601 4.236-1.636 4.803-1.775 5.286-1.757 5.567-1.468 5.81-1.118 6.048-.75 6.024-.42 5.744-.127 5.752.242 5.632.751a52 52 0 0 1 5.463 1.23q2.571.733 5.295 1.676t5.082 1.936 4.94 1.93 4.842 1.777 6.954 2.39 6.902 2.203 4.422 1.095 4.025.654q1.813.21 3.51.258t3.248-.026a13.6 13.6 0 0 0 2.883-.432 10.8 10.8 0 0 0 2.262-.855 8.6 8.6 0 0 0 1.6-1.08 7.5 7.5 0 0 0 1.123-1.198 5.6 5.6 0 0 0 .694-1.223 9 9 0 0 0 .416-1.378q.172-.767.194-.98t.386-.11 3.447 1.404 4.41 1.845 3.329 1.163 4.273 1.18 4.7 1.044 5.307.846 6.12.673 6.264.518 6.74.377 11.005.498q7.285.33 11.162.511t7.602.33 11.012.445 10.64.46q3.356.162 6.373.357t5.874.457q2.857.263 5.29.56t4.5.704q2.067.41 3.85.924a31 31 0 0 1 3.125 1.067 13 13 0 0 1 2.227 1.142 8 8 0 0 1 1.435 1.182 3.9 3.9 0 0 1 .776 1.143 3.1 3.1 0 0 1 .247 1.017q.034.666-1.486 1.522M404.282 211.19a3.9 3.9 0 0 0-1.13-.76 5.4 5.4 0 0 0-1.125-.372 10.5 10.5 0 0 0-1.905-.175 6.2 6.2 0 0 0-1.691.108 4.7 4.7 0 0 0-1.178.674 7 7 0 0 0-1.155 1 9 9 0 0 0-.761 1.004 16 16 0 0 0-.916 1.738q-.567 1.201-1.068 2.606t-.73 2.31-.377 1.79a24 24 0 0 0-.218 2.715q-.071 1.832-.033 3.682a12.7 12.7 0 0 0 .491 3.365 14.5 14.5 0 0 0 1.143 2.783 7 7 0 0 0 1.617 2.049 6 6 0 0 0 1.57 1.026 8 8 0 0 0 2.164.328q1.522.084 2.423.062a8.2 8.2 0 0 0 1.74-.225 13.7 13.7 0 0 0 2.284-.866 62 62 0 0 0 6.944-4.15M415.793 203.48a10.7 10.7 0 0 0-.439 2.604q-.026.813-.012 1.75a16.5 16.5 0 0 0 .39 2.774q.376 1.839.597 3.319t.291 1.705l.085.277q.016.051.038-.181t.119-1.254.112-2.876-.033-3.767-.036-2.555a3.2 3.2 0 0 1 .151-1.015.83.83 0 0 1 .368-.484.78.78 0 0 1 .526-.049 3.2 3.2 0 0 1 1.085.917q.787.853 2.263 2.607t1.923 2.408a14 14 0 0 1 .845 1.423q.398.768.745 1.579a27 27 0 0 0 1.355 2.677M431.182 207.799q.126.298 1.106.533t1.703.349a17 17 0 0 0 2.521.171M446.317 200.846a1.56 1.56 0 0 1 .458.91 16 16 0 0 1 .308 1.61 18 18 0 0 0 .355 1.796 14 14 0 0 0 .622 1.877 16 16 0 0 0 .907 1.868q.515.904 1.136 1.896t1.249 2.025a55 55 0 0 0 3.296 4.565" class="c"/><path d="M104.466 71.368a.9.9 0 0 1-.51-.135 13.2 13.2 0 0 1 2.428-.168q2.509-.094 4-.175t3.152-.215q1.663-.133 5.91-.45t4.917-.378l.71-.064.022-.003h-.012l-1.018.052M114.615 70.877a9 9 0 0 0-.366 2.485q-.022 1.353.013 2.305t.166 2.134.283 2.679.255 2.9.222 4.167.15 3.84.111 2.49.13 1.966.365.49M123.353 80.143q.119-1.728-.176-1.507a2.3 2.3 0 0 0-.5.833q-.288.675-.455 1.17t-.322 1.113-.286 1.362a16 16 0 0 0-.192 1.565q-.06.821-.067 1.826t.03 2.169a10.8 10.8 0 0 0 .276 2.176 9 9 0 0 0 .608 1.783 5.4 5.4 0 0 0 .843 1.304 2.3 2.3 0 0 0 1.11.711 7 7 0 0 0 1.512.223 15 15 0 0 0 1.942-.04 7.9 7.9 0 0 0 1.986-.409 7 7 0 0 0 1.596-.773 5.6 5.6 0 0 0 1.145-1 3.9 3.9 0 0 0 .71-1.214 8 8 0 0 0 .36-1.46q.124-.8.176-1.728a10 10 0 0 0-.082-1.905 11 11 0 0 0-.552-2.15q-.419-1.173-.965-2.389a18 18 0 0 0-1.081-2.084 7.2 7.2 0 0 0-1.081-1.397 2.5 2.5 0 0 0-1.03-.657 3.5 3.5 0 0 0-.997-.117 2.8 2.8 0 0 0-1.045.242 5.3 5.3 0 0 0-.962.53 6 6 0 0 0-.78.648 4 4 0 0 0-.598.759 7.1 7.1 0 0 0-.671 2.012M164.934 78.322a11 11 0 0 0-.826-1.513l.264.787q.211.63.474 1.56t.527 2.12.454 2.475.3 2.689q.11 1.405.17 2.784t.08 3.072l.025 1.782.002.069v-.006l.024-.505q.023-.48.089-1.05t.177-2.35.184-4.058.215-3.614a21 21 0 0 1 .396-2.441 10 10 0 0 1 .607-1.888 2.2 2.2 0 0 1 .68-.972.75.75 0 0 1 .66-.07 1.83 1.83 0 0 1 .734.64 8 8 0 0 1 .792 1.302q.393.784 1.19 2.818t1.132 3a20 20 0 0 1 .567 1.959 17 17 0 0 1 .346 2.13q.115 1.14.124 2.316l.013 1.644q.003.468.089.199l.301-.945q.216-.677.46-1.573t.497-2.022.53-2.516.534-2.83.557-2.798a18 18 0 0 1 .648-2.293 2.9 2.9 0 0 1 .605-1.14.32.32 0 0 1 .465-.013 1.9 1.9 0 0 1 .388.785 13 13 0 0 1 .33 1.344q.145.753.258 1.626t.213 1.818.23 2.72.238 2.826.255 2.056a13.9 13.9 0 0 0 1.859 4.281M195.158 84.62a7.6 7.6 0 0 1 .427-1.756 7 7 0 0 0 .298-.847 5 5 0 0 0 .151-1.094 2.2 2.2 0 0 0-.16-1.056 3.5 3.5 0 0 0-.539-.783 4 4 0 0 0-.796-.685 3.6 3.6 0 0 0-1.001-.45 6 6 0 0 0-1.213-.209 5 5 0 0 0-1.332.08 4.7 4.7 0 0 0-1.345.5 8.7 8.7 0 0 0-1.294.871 6.2 6.2 0 0 0-1.074 1.112 10 10 0 0 0-.827 1.325 17 17 0 0 0-.702 1.538 16 16 0 0 0-.563 1.657 14 14 0 0 0-.37 1.77 19 19 0 0 0-.176 1.973 11.3 11.3 0 0 0 .082 1.953 5.5 5.5 0 0 0 .465 1.637 2.94 2.94 0 0 0 .79 1.074 2.2 2.2 0 0 0 .983.45 7 7 0 0 0 1.187.108 4 4 0 0 0 1.283-.192 8 8 0 0 0 1.264-.525 8.7 8.7 0 0 0 1.246-.785A5.8 5.8 0 0 0 193 91.274a8 8 0 0 0 .8-1.215 12 12 0 0 0 .66-1.45 10.4 10.4 0 0 0 .472-1.597 12 12 0 0 0 .222-1.74q.052-.93.046-2.617t-.043-1.967-.059-.184l-.111.49a17 17 0 0 0-.19 1.89q-.1 1.499-.104 2.914a19 19 0 0 0 .083 2.156 9 9 0 0 0 .275 1.395 7.7 7.7 0 0 0 .456 1.214 5.6 5.6 0 0 0 .65 1.045 2.24 2.24 0 0 0 .823.685 2.6 2.6 0 0 0 .98.22 3.1 3.1 0 0 0 1.194-.231 4.4 4.4 0 0 0 1.28-.783 15.8 15.8 0 0 0 2.442-3.163" class="d"/><path d="M201.042 71.134a4.6 4.6 0 0 0-.59-.867q-.2-.221-.194.04a15 15 0 0 0 .555 2q.548 1.739.814 2.614t.66 2.547.582 2.973.283 2.658.115 2.668-.028 2.452-.295 2.94-.245 2.212.077.276l.69-1.238M208.645 78.657q.047-.89-.003-.837l-.177.189a6.2 6.2 0 0 0-.576 1.032q-.434.882-.742 1.616t-.616 1.579q-.31.844-.602 1.786t-.49 1.796a14 14 0 0 0-.279 1.608 17 17 0 0 0-.076 1.911 4.8 4.8 0 0 0 .16 1.52 3.4 3.4 0 0 0 .381.678 2.2 2.2 0 0 0 .503.512 3 3 0 0 0 .642.34 4.7 4.7 0 0 0 .91.236 10 10 0 0 0 1.215.125 17 17 0 0 0 3.233-.34M217.033 87.204q-.605.074-.334-.124l.988-.721q.79-.577 1.265-.988a11 11 0 0 0 1.138-1.187 7.2 7.2 0 0 0 .984-1.423 5.4 5.4 0 0 0 .463-1.404 10 10 0 0 0 .158-1.683 5.5 5.5 0 0 0-.235-1.725 5.2 5.2 0 0 0-.655-1.4 3.7 3.7 0 0 0-.875-.934 1.7 1.7 0 0 0-1.208-.26 2.2 2.2 0 0 0-1.269.542 6.3 6.3 0 0 0-1.012 1.17 7.2 7.2 0 0 0-.808 1.598 11.3 11.3 0 0 0-.51 1.943q-.183 1.05-.265 2.141t-.063 2.06a6.2 6.2 0 0 0 .3 1.823 8 8 0 0 0 .75 1.635 7 7 0 0 0 1.119 1.417 19 19 0 0 0 1.45 1.267 32 32 0 0 0 3.801 2.407M256.751 78.613a3.7 3.7 0 0 0 .218-1.336q.021-.61-.21-.739a3.6 3.6 0 0 0-1.172-.192 15 15 0 0 0-1.666-.031 6.6 6.6 0 0 0-1.441.226 12 12 0 0 0-1.384.466 8 8 0 0 0-2.01 1.164 2.7 2.7 0 0 0-.549.577 1.2 1.2 0 0 0-.218.615 1.4 1.4 0 0 0 .245.77 6.3 6.3 0 0 0 .779 1.012 8.3 8.3 0 0 0 1.325 1.137 14.4 14.4 0 0 0 1.987 1.15q1.177.575 3.654 1.588t3.233 1.425a3.6 3.6 0 0 1 1.093.83 1.36 1.36 0 0 1 .183 1.644 7 7 0 0 1-.56.892 6 6 0 0 1-.735.834 6 6 0 0 1-.895.69 3.4 3.4 0 0 1-1.063.45 6.6 6.6 0 0 1-1.266.159 8 8 0 0 1-1.5-.097 4.6 4.6 0 0 1-1.489-.49 4.2 4.2 0 0 1-1.146-.87 3 3 0 0 1-.654-1.111 3.44 3.44 0 0 1 .66-2.528M264.923 77.25q.55-.675.553-.24a8 8 0 0 1-.226 1.356q-.228 1.043-.376 1.982t-.302 2.057-.268 2.305-.15 2.216a16 16 0 0 0 .036 1.892 4.2 4.2 0 0 0 .393 1.517 2.7 2.7 0 0 0 .568.857 2 2 0 0 0 .525.312 4.3 4.3 0 0 0 1.126.151 2.25 2.25 0 0 0 1.297-.238 4.5 4.5 0 0 0 .898-.763 14 14 0 0 0 .96-1.175q.51-.691 1.017-1.43t1-1.584a12.4 12.4 0 0 0 .882-1.891 10 10 0 0 0 .541-2.253 22 22 0 0 0 .165-2.398q.015-1.193-.019-2.02a4.7 4.7 0 0 0-.113-1.05q-.079-.223-.298.425a12 12 0 0 0-.383 1.495q-.164.848-.308 1.882t-.245 2.15-.164 2.186-.082 3.469a18 18 0 0 0 .183 3.345 3.4 3.4 0 0 0 .675 1.508 2.76 2.76 0 0 0 1.088.808 3.2 3.2 0 0 0 1.257.233 2.64 2.64 0 0 0 1.237-.346 9.5 9.5 0 0 0 2.357-2.489M280.34 77.592a20 20 0 0 0-.205 2.736q-.023 1.576-.023 2.63t.015 2.134.117 2.175.25 1.977a15 15 0 0 0 .339 1.55 8 8 0 0 0 .399 1.128 1.9 1.9 0 0 0 .393.62.64.64 0 0 0 .33.174q.145.016.31-.197a2.4 2.4 0 0 0 .322-.704q.155-.492.322-1.285t.286-1.885.156-2.362.04-2.776.055-3.073a18 18 0 0 1 .271-2.737 6.7 6.7 0 0 1 .607-1.893 3.1 3.1 0 0 1 .867-1.073 1.84 1.84 0 0 1 .933-.385 5.4 5.4 0 0 1 1.61.302q1.156.336 2.59.877a14.4 14.4 0 0 1 3.946 2.255M294.792 86.067q.483.065 1.508-.74a6.6 6.6 0 0 0 .997-.933 9 9 0 0 0 .685-.965 5 5 0 0 0 .537-1.222 7.2 7.2 0 0 0 .256-1.513 13 13 0 0 0 .014-1.666 4.5 4.5 0 0 0-.265-1.382 1.9 1.9 0 0 0-.483-.772.85.85 0 0 0-.604-.202 1.2 1.2 0 0 0-.752.447 9.5 9.5 0 0 0-.87 1.08 16 16 0 0 0-.908 1.463 18 18 0 0 0-.838 1.728q-.386.914-.7 1.905t-.546 2.048a11.5 11.5 0 0 0-.269 2.099 12 12 0 0 0 .113 2.094 8.1 8.1 0 0 0 .55 2.02 7.3 7.3 0 0 0 .938 1.655 8 8 0 0 0 1.13 1.201 6.8 6.8 0 0 0 1.272.868 6.6 6.6 0 0 0 3.028.487M332.055 82.054a16 16 0 0 0 .425-1.91 15 15 0 0 0 .137-1.569 13 13 0 0 0 .013-1.297 3.4 3.4 0 0 0-.093-.593.66.66 0 0 0-.166-.332q-.1-.083-.118 1.544t.022 2.88.094 3.798.097 3.783a19 19 0 0 0 .197 2.246 6.7 6.7 0 0 0 .473 1.716 2.64 2.64 0 0 0 .83 1.083 2.08 2.08 0 0 0 1.183.397 3.8 3.8 0 0 0 1.429-.252 7 7 0 0 0 1.477-.746 6 6 0 0 0 1.296-1.15 7.6 7.6 0 0 0 1.015-1.567 11.6 11.6 0 0 0 .733-1.902 11.5 11.5 0 0 0 .399-2.036q.105-1.024.13-2.703t-.011-1.89-.074-.115l-.191.478a4.8 4.8 0 0 0-.252 1.071q-.097.69-.183 1.503t-.145 1.704-.05 2.555a7.5 7.5 0 0 0 .236 2.265 3 3 0 0 0 .616 1.016 2.2 2.2 0 0 0 .983.595 3.7 3.7 0 0 0 1.322.134 3.76 3.76 0 0 0 1.53-.48A7.3 7.3 0 0 0 347 91.082a8.4 8.4 0 0 0 1.335-1.662 9.6 9.6 0 0 0 .892-1.91 10 10 0 0 0 .466-2.264 17 17 0 0 0 .035-2.691 18 18 0 0 0-.414-2.874q-.326-1.433-.609-2.45t-.363-1.233l-.104-.28q-.023-.062-.03.167t-.029 1.032a36 36 0 0 0 .334 4.296M353.204 90.094a6.8 6.8 0 0 0 2.08-.27 3.3 3.3 0 0 0 .869-.467 4.3 4.3 0 0 0 .754-.753 7.5 7.5 0 0 0 .707-1.087 9 9 0 0 0 .575-1.273 9.6 9.6 0 0 0 .383-1.404 12 12 0 0 0 .193-1.784 21 21 0 0 0-.028-2.176 10.7 10.7 0 0 0-.372-2.228 9.3 9.3 0 0 0-.669-1.776 1.85 1.85 0 0 0-.722-.863.98.98 0 0 0-.791.015 3.6 3.6 0 0 0-1.013.698 12 12 0 0 0-1.173 1.246 12.5 12.5 0 0 0-1.114 1.593 14 14 0 0 0-.922 1.865 12 12 0 0 0-.62 1.993 12.3 12.3 0 0 0-.265 1.971q-.049.972-.002 1.954a4 4 0 0 0 .532 1.827 6.1 6.1 0 0 0 1.351 1.585 22.6 22.6 0 0 0 5.617 2.748M394.01 82.693a12.8 12.8 0 0 0 1.354-2.544 7 7 0 0 0 .237-1.21q.077-.683.078-1.045a2.3 2.3 0 0 0-.125-.74 2 2 0 0 0-.39-.681 2.2 2.2 0 0 0-.67-.512 3.1 3.1 0 0 0-.937-.292 4.7 4.7 0 0 0-1.15-.03 3.6 3.6 0 0 0-1.366.453 7.6 7.6 0 0 0-1.55 1.147 8.7 8.7 0 0 0-1.466 1.82 14 14 0 0 0-1.171 2.434 26 26 0 0 0-.876 2.81 19.6 19.6 0 0 0-.5 2.77q-.136 1.32-.15 2.489a8 8 0 0 0 .2 2.008 2.5 2.5 0 0 0 .588 1.201 1.6 1.6 0 0 0 .917.436 5.4 5.4 0 0 0 2.774-.4 10.7 10.7 0 0 0 1.678-.886 11.4 11.4 0 0 0 1.708-1.354 10 10 0 0 0 1.458-1.728 11 11 0 0 0 1.027-1.956 15 15 0 0 0 .683-2.194 16 16 0 0 0 .358-2.291q.09-1.129.131-2.36a4.8 4.8 0 0 0-.007-1.156l-.236.388a10.7 10.7 0 0 0-.629 1.744q-.44 1.434-.782 3.032t-.45 2.324-.154 1.418-.052 1.342a5.6 5.6 0 0 0 .082 1.093 1.12 1.12 0 0 0 .374.678 1.46 1.46 0 0 0 .744.297q.652.088 3.255-2.112M403.13 79.616q-.003.69-.104 1.699-.066.656-.124 1.517t-.065 2.609.115 3.198.165 2.512l.046 1.125q.003.06.006.014l.053-.867q.05-.82.067-2.925c.017-2.105 0-2.887-.036-4.451s-.055-2.722-.057-3.475.014-1.39.049-1.911a3.3 3.3 0 0 1 .27-1.227 1.22 1.22 0 0 1 .56-.602 1.4 1.4 0 0 1 .786-.1 4 4 0 0 1 1.072.342q.625.283 1.47.615t1.711.645a33 33 0 0 1 3.422 1.545M414.86 86.331q.824-.833 1.96-1.89a16 16 0 0 0 1.574-1.615 4.6 4.6 0 0 0 .68-1.198 4.4 4.4 0 0 0 .282-1.284 8 8 0 0 0-.007-1.176 2.3 2.3 0 0 0-.215-.85.68.68 0 0 0-.375-.377.83.83 0 0 0-.53.076 2.8 2.8 0 0 0-.76.54 8 8 0 0 0-.898 1.015q-.461.61-.924 1.328a15 15 0 0 0-.863 1.535 13.5 13.5 0 0 0-.678 1.646 12 12 0 0 0-.433 1.682 14 14 0 0 0-.206 1.773 7.5 7.5 0 0 0 .118 1.821 4.6 4.6 0 0 0 .679 1.686 5.3 5.3 0 0 0 1.382 1.407 7.2 7.2 0 0 0 2.057.989 14.4 14.4 0 0 0 2.49.527q1.305.162 2.583.217a29 29 0 0 0 5.1-.386M454.407 81.266a18 18 0 0 0 .902-2.142 2.7 2.7 0 0 0 .078-.572 1.2 1.2 0 0 0-.115-.549 1.2 1.2 0 0 0-.465-.483 2.1 2.1 0 0 0-.805-.29 5 5 0 0 0-1.037-.041 2.83 2.83 0 0 0-1.264.44 5 5 0 0 0-1.337 1.232 10.7 10.7 0 0 0-1.218 2.02q-.57 1.195-1.107 2.628a23 23 0 0 0-.881 2.916 18.5 18.5 0 0 0-.442 2.935 11 11 0 0 0 .095 2.57 2.8 2.8 0 0 0 .705 1.598 2.2 2.2 0 0 0 1.142.588 7 7 0 0 0 1.326.098 3.4 3.4 0 0 0 1.356-.318 8.5 8.5 0 0 0 1.359-.803 10.6 10.6 0 0 0 1.422-1.244 9.2 9.2 0 0 0 1.25-1.604 9 9 0 0 0 .844-1.792 11 11 0 0 0 .466-1.939 19 19 0 0 0 .147-2.66q0-1.656-.025-2.124t-.045-.388l-.097.4a9 9 0 0 0-.093 1.484q-.016 1.165.008 1.887a21 21 0 0 0 .276 2.309q.252 1.587.38 2.606t.194 2.006.083 1.945.008 1.865a7.5 7.5 0 0 1-.19 1.654 10 10 0 0 1-.46 1.442 9.6 9.6 0 0 1-.661 1.333 4.4 4.4 0 0 1-.837 1.04 3.6 3.6 0 0 1-.957.623 3.67 3.67 0 0 1-1.766.308q-.484-.047-.935-.824M464.946 88.718q.752-1.4 1.45-2.494.47-.736.686-1.166a7 7 0 0 0 .4-.992 7 7 0 0 0 .278-1.337q.094-.777.115-1.64t0-1.695a8 8 0 0 0-.174-1.509 4 4 0 0 0-.332-1 .7.7 0 0 0-.398-.376 1.1 1.1 0 0 0-.56.04 2.2 2.2 0 0 0-.775.471 12 12 0 0 0-.983.982q-.548.607-1.186 1.45a14.4 14.4 0 0 0-1.156 1.789 17 17 0 0 0-.91 1.95 16 16 0 0 0-.647 2.053 11 11 0 0 0-.303 1.961 8.7 8.7 0 0 0 .085 1.79 4.8 4.8 0 0 0 .64 1.72 4.1 4.1 0 0 0 1.327 1.375 7.5 7.5 0 0 0 1.837.846 16 16 0 0 0 2.086.502 13.4 13.4 0 0 0 2 .202 10.8 10.8 0 0 0 3.98-1.096M479.369 71.1q.155-.753.093-.696l-.223.203a3.3 3.3 0 0 0-.43 1.217q-.253 1.055-.39 1.773t-.24 1.472-.275 2.752-.23 3.234-.102 2.483-.045 2.395.082 2.073a7 7 0 0 0 .362 1.702 7 7 0 0 0 .668 1.397 3.5 3.5 0 0 0 .86.961 2.7 2.7 0 0 0 1.044.462 6.4 6.4 0 0 0 1.2.133 4.3 4.3 0 0 0 2.466-1.367" class="d"/><path d="m473.99 79.557-.986-.21q-.05-.011.034-.019l.872-.078q1.122-.102 9.331-1.66M492.382 70.038a.9.9 0 0 0-.715.264 1.6 1.6 0 0 0-.34.591 4.7 4.7 0 0 0-.225 1.033q-.078.635-.11 1.482t-.035 3.798.032 4.134.103 2.364.173 2.26a12 12 0 0 0 .331 1.92 10.4 10.4 0 0 0 .554 1.57 9 9 0 0 0 .726 1.322 5.2 5.2 0 0 0 .764.927 1.9 1.9 0 0 0 .68.435q.449.141 1.358-.828" class="d"/><path d="M487.343 78.444q-1.108-.406-.602-.413l1.831-.027q2.146-.032 5.81-.017M502.99 78.472a12.4 12.4 0 0 0-.63 1.953 10 10 0 0 0-.201 1.33q-.062.708-.069 2.308t.017 2.318a9.6 9.6 0 0 0 .153 1.42q.13.703.306 1.431t.344 1.293a7 7 0 0 0 .352.962 1.24 1.24 0 0 0 .918.723M502.868 71.465q.201-.085.865.504.962.854 3.425 2.894M511.46 80.344q.039 1.913-.04 3.5-.052 1.07-.16 2.219t-.32 2.816q-.212 1.667-.258 2.417t.211.491a2.6 2.6 0 0 0 .479-.716q.22-.457.457-1.071t.486-1.408.478-1.758.489-2.313.501-2.786.53-2.744a15.6 15.6 0 0 1 .685-2.31 3.07 3.07 0 0 1 .89-1.369 2.04 2.04 0 0 1 1.04-.413 1.8 1.8 0 0 1 1.048.235 2.6 2.6 0 0 1 .86.783 5.3 5.3 0 0 1 .602 1.141 12 12 0 0 1 .453 1.478q.204.835.464 2.807t.4 3.139.23 2.23.228 3.355q.14 2.292.238 3.155a4.03 4.03 0 0 0 .923 2.203M537.744 83.121a6.3 6.3 0 0 0-.15-2.22 5 5 0 0 0-.37-.74 7 7 0 0 0-.45-.657 5.4 5.4 0 0 0-.766-.748 6.5 6.5 0 0 0-.874-.643 3.8 3.8 0 0 0-.718-.32 5.5 5.5 0 0 0-1.22-.174 4.3 4.3 0 0 0-1.27.06 3.2 3.2 0 0 0-.893.416 7 7 0 0 0-1.022.824 17 17 0 0 0-1.215 1.294q-.663.773-1.36 1.723a21 21 0 0 0-1.296 1.994 9.4 9.4 0 0 0-.884 2.021 7 7 0 0 0-.291 1.932 4.16 4.16 0 0 0 .435 1.86 4.8 4.8 0 0 0 1.168 1.541 7.3 7.3 0 0 0 1.57 1.053 13 13 0 0 0 1.646.686 6.8 6.8 0 0 0 1.452.334 11 11 0 0 0 1.23.06 3 3 0 0 0 1.166-.26 3.9 3.9 0 0 0 1.074-.695 6.4 6.4 0 0 0 .942-1.094 10 10 0 0 0 .853-1.514 9.7 9.7 0 0 0 .625-1.81 15 15 0 0 0 .329-1.848q.102-.902.124-1.626a6 6 0 0 0-.028-1.023q-.049-.299-.369-.232a.8.8 0 0 0-.517.382 4 4 0 0 0-.357.736 5.5 5.5 0 0 0-.25.895 11 11 0 0 0-.101 1.713q-.01 1.238.065 2.029t.693 3.606q.617 2.816.729 3.686a15 15 0 0 1 .122 1.702 8 8 0 0 1-.103 1.486 3.7 3.7 0 0 1-.416 1.188 5 5 0 0 1-.736.99 3.7 3.7 0 0 1-.943.73 6.2 6.2 0 0 1-1.08.452q-.571.179-1.196.31t-1.635.251a26.5 26.5 0 0 0-3.476.697M568.162 86.748a.8.8 0 0 0 .582-.263 2.6 2.6 0 0 0 .502-.844 7 7 0 0 0 .362-1.135 10 10 0 0 0 .188-1.203q.064-.651.082-1.448a11 11 0 0 0-.107-1.714 6 6 0 0 0-.503-1.729 7.3 7.3 0 0 0-.944-1.512 6 6 0 0 0-1.293-1.2 5.3 5.3 0 0 0-1.428-.712 6.2 6.2 0 0 0-1.315-.262 2.9 2.9 0 0 0-1.18.15 2.17 2.17 0 0 0-.976.7 5.8 5.8 0 0 0-.753 1.246 14 14 0 0 0-.667 1.83q-.324 1.087-.587 2.396t-.515 2.778-.465 3.136a31 31 0 0 0-.248 3.082 11 11 0 0 0 .16 2.408 3.2 3.2 0 0 0 .7 1.544 1.73 1.73 0 0 0 1.067.622 3.1 3.1 0 0 0 1.179-.101 6.2 6.2 0 0 0 1.294-.54 8 8 0 0 0 1.34-.927 12 12 0 0 0 1.318-1.307 17 17 0 0 0 1.291-1.688 14.6 14.6 0 0 0 1.079-1.863 12.4 12.4 0 0 0 .715-1.841 16 16 0 0 0 .425-1.828 14 14 0 0 0 .188-1.612l.044-.886q.01-.186-.067.074l-.357 1.236q-.282.976-.465 1.783-.182.809-.34 1.622t-.26 1.678-.14 1.81-.015 1.775a4.4 4.4 0 0 0 .289 1.493 2.9 2.9 0 0 0 .684 1.06q.601.564 2.003-.055M582.613 79.53a7.3 7.3 0 0 0-.014-1.627 2 2 0 0 0-.209-.584.9.9 0 0 0-.362-.374 2 2 0 0 0-.809-.129 1.8 1.8 0 0 0-.927.178 4.7 4.7 0 0 0-.698.5q-.363.307-.777.72a7.5 7.5 0 0 0-.797.943 10 10 0 0 0-.758 1.256q-.376.723-.755 1.617t-.66 1.793a13 13 0 0 0-.431 1.874 15 15 0 0 0-.166 2.033 8.6 8.6 0 0 0 .17 1.924 3.4 3.4 0 0 0 .709 1.497 4.2 4.2 0 0 0 1.27 1.033 4.1 4.1 0 0 0 1.528.482 11 11 0 0 0 1.643.036 13.7 13.7 0 0 0 4.15-1.38M588.92 79.323a1 1 0 0 0-.743.54 2.8 2.8 0 0 0-.237.876q-.08.575-.1 2.413t.064 2.832q.088.993.211 1.977t.288 1.79q.164.807.354 1.495a8.6 8.6 0 0 0 .4 1.162 3 3 0 0 0 .37.66q.16.188.3.018a3.5 3.5 0 0 0 .147-1.386q.004-1.215-.047-2.176t-.184-1.993q-.131-1.03-.256-2.068t-.213-2.003-.112-1.691-.011-1.256a2 2 0 0 1 .23-.924 1.32 1.32 0 0 1 .65-.586 4.2 4.2 0 0 1 1.085-.285q.651-.094 1.523-.142 1.248-.069 6.864.03M605.14 79.13a1.84 1.84 0 0 0-1.176.43 5.5 5.5 0 0 0-.656.603 9 9 0 0 0-.606.747q-.323.436-.657.985t-.68 1.248a15 15 0 0 0-.61 1.399 13 13 0 0 0-.441 1.429 11 11 0 0 0-.259 1.486 10 10 0 0 0-.05 1.437 3.1 3.1 0 0 0 .333 1.281 3.2 3.2 0 0 0 .89 1.066 3.45 3.45 0 0 0 1.317.649 7.6 7.6 0 0 0 1.534.216 8.5 8.5 0 0 0 1.575-.08 2.9 2.9 0 0 0 1.317-.514 3.8 3.8 0 0 0 .93-.986 7.75 7.75 0 0 0 1.093-2.732 10 10 0 0 0 .158-1.546 19 19 0 0 0-.06-1.938 17 17 0 0 0-.387-2.432q-.302-1.326-.659-2.533a20 20 0 0 0-.693-2.01 2.9 2.9 0 0 0-.585-1.008.63.63 0 0 0-.516-.163 1.05 1.05 0 0 0-.555.335 4 4 0 0 0-.509.626 4 4 0 0 0-.368.696 6 6 0 0 0-.252.755 9.2 9.2 0 0 0 .126 2.625M619.969 79.474a1.95 1.95 0 0 0-.407-1.027 4.7 4.7 0 0 0-.564-.606 5 5 0 0 0-.712-.54 3.4 3.4 0 0 0-.777-.37 3.2 3.2 0 0 0-.773-.15 4 4 0 0 0-.757.02 1.9 1.9 0 0 0-.899.476 3 3 0 0 0-.67.682 1.9 1.9 0 0 0-.164.833 2.2 2.2 0 0 0 .158.967 7 7 0 0 0 .448.818 10 10 0 0 0 .625.88 10 10 0 0 0 .857.945 12 12 0 0 0 1.146.99q.642.494 2.432 1.687t2.603 1.812a11 11 0 0 1 1.421 1.276 4.5 4.5 0 0 1 .861 1.242 3.5 3.5 0 0 1 .288 1.148 2.9 2.9 0 0 1-.133 1.088 2.3 2.3 0 0 1-.53.892 4 4 0 0 1-.836.646 6.3 6.3 0 0 1-1.092.493 7 7 0 0 1-1.245.315 15 15 0 0 1-1.88.122 8.8 8.8 0 0 1-1.654-.065 1.7 1.7 0 0 1-.63-.25.94.94 0 0 1-.325-.379 1.2 1.2 0 0 1-.108-.428q-.014-.298 1.336-1.449M631.074 80.68q.135-1.232.142-1.722a2.8 2.8 0 0 0-.047-.587 1 1 0 0 0-.22-.448 1.05 1.05 0 0 0-.398-.298 2.8 2.8 0 0 0-.917-.098 2.5 2.5 0 0 0-1.1.205 8 8 0 0 0-.874.505 9 9 0 0 0-.921.697 7 7 0 0 0-.84.852 5.8 5.8 0 0 0-.651.982 7.3 7.3 0 0 0-.467 1.098 5 5 0 0 0-.237 1.11 8 8 0 0 0-.023 1.046 2.5 2.5 0 0 0 .275 1.015 3.4 3.4 0 0 0 .719.947 7 7 0 0 0 1.132.851q.666.41 1.527.845t1.753.82 1.717.79 1.498.823a5.4 5.4 0 0 1 1.043.803 2.8 2.8 0 0 1 .534.739 2.3 2.3 0 0 1 .203.731 1.7 1.7 0 0 1-.043.654 1.1 1.1 0 0 1-.294.482 2.2 2.2 0 0 1-.51.367 2.5 2.5 0 0 1-.666.24q-.367.078-2.185.194t-3.102.216a23 23 0 0 1-2.587.13M661.36 70.738l.077-1.116v-.005l-.01.132q-.01.156-.229 3.112t-.313 4.373-.192 3.04-.182 3.326-.121 3.039-.04 2.477q-.005 1.143.047 2.105a5 5 0 0 0 .259 1.488 2.3 2.3 0 0 0 .494.807 1.5 1.5 0 0 0 .642.384 2.2 2.2 0 0 0 .707.09 1.54 1.54 0 0 0 .802-.334 12.3 12.3 0 0 0 2.088-2.543" class="d"/><path d="M657.501 80.62a4.3 4.3 0 0 0-1.395 1.183 1.4 1.4 0 0 0-.172.572q-.016.27.324.423a2.9 2.9 0 0 0 .942.194 12 12 0 0 0 1.38.007 5.2 5.2 0 0 0 1.529-.303 8 8 0 0 0 1.526-.75 17 17 0 0 0 1.702-1.228q.924-.744 1.826-1.563t1.737-1.684a14 14 0 0 0 1.472-1.8 5.4 5.4 0 0 0 .83-1.737 7.4 7.4 0 0 0 .21-1.525 3.9 3.9 0 0 0-.145-1.251 2.9 2.9 0 0 0-.31-.733q-.142-.204-.342.013a1.5 1.5 0 0 0-.296.746q-.097.528-.17 1.25t-.12 1.593q-.048.87-.053 4.292t-.04 4.943-.116 3-.114 2.84 0 2.255a3.9 3.9 0 0 0 .254 1.39 1.5 1.5 0 0 0 .49.672.6.6 0 0 0 .553.079 1.23 1.23 0 0 0 .564-.612 10.4 10.4 0 0 0 .6-1.374q.319-.86.612-1.971t.817-3.916q.522-2.806.904-4.262a15 15 0 0 1 .923-2.6 6.2 6.2 0 0 1 1.2-1.786 2.43 2.43 0 0 1 1.18-.736.97.97 0 0 1 .854.204 2 2 0 0 1 .526.803 5 5 0 0 1 .279 1.194q.083.685.115 1.536t.036 2.805q.003 1.953-.06 2.999t-.106 1.983q-.041.938-.046 1.931t.083 1.95a4.67 4.67 0 0 0 1.203 2.654M686.51 87.317q.703-.628 1.802-1.502.713-.569 1.12-.953t.864-.878a13 13 0 0 0 .916-1.112 6 6 0 0 0 .735-1.299 5 5 0 0 0 .34-1.457 6.3 6.3 0 0 0-.082-1.602 3.4 3.4 0 0 0-.524-1.375 2.4 2.4 0 0 0-.783-.768 1.7 1.7 0 0 0-.837-.217 1.27 1.27 0 0 0-.854.395 7.2 7.2 0 0 0-.868 1.001q-.448.608-.957 1.377a15 15 0 0 0-.925 1.606q-.417.836-.764 1.741a17 17 0 0 0-.597 1.892 11.5 11.5 0 0 0-.321 1.907 13 13 0 0 0-.017 1.834 5.3 5.3 0 0 0 .451 1.815 5.9 5.9 0 0 0 1.015 1.587 6.6 6.6 0 0 0 1.388 1.17 7.7 7.7 0 0 0 1.727.8 21.8 21.8 0 0 0 5.929.31M723.43 67.985q-.482-.085-.717.543a7 7 0 0 0-.335 1.162q-.145.772-.384 2.669M727.626 70.436a6.2 6.2 0 0 0-.422 1.597q-.062.526-.092 1.21a27 27 0 0 0 .129 3.069M741.427 80.043a2.6 2.6 0 0 0-.802-1.462 2.44 2.44 0 0 0-1.079-.587 6.5 6.5 0 0 0-1.382-.198 9 9 0 0 0-1.378.042 5.2 5.2 0 0 0-1.222.296 8 8 0 0 0-1.103.51 5.4 5.4 0 0 0-.857.58 2.7 2.7 0 0 0-.566.654 3.2 3.2 0 0 0-.347.8 3.1 3.1 0 0 0-.122.875 1.9 1.9 0 0 0 .266.91 5 5 0 0 0 .73.978 8.5 8.5 0 0 0 1.097.982q.63.479 1.449.994t1.86 1.097 1.993 1.146 1.748 1.138a7.6 7.6 0 0 1 1.347 1.216 2.7 2.7 0 0 1 .655 1.196 2.1 2.1 0 0 1-.062 1.066 2.9 2.9 0 0 1-.626 1.018 4.9 4.9 0 0 1-1.107.9 8.5 8.5 0 0 1-1.485.697 15 15 0 0 1-1.816.526 12 12 0 0 1-1.898.278q-.916.058-1.678.052a3.26 3.26 0 0 1-2.27-1.267M745.777 78.855q-.152-.223-.36.509a11 11 0 0 0-.305 1.424q-.1.692-.185 1.547t-.216 2.976q-.13 2.121-.172 3.281t-.058 2.25a13 13 0 0 0 .082 1.83 2.1 2.1 0 0 0 .46 1.144 1.9 1.9 0 0 0 .917.558 4.3 4.3 0 0 0 1.227.142 3.1 3.1 0 0 0 1.374-.366 6.4 6.4 0 0 0 1.348-.933 5.6 5.6 0 0 0 1.104-1.344 8.2 8.2 0 0 0 .754-1.715 16 16 0 0 0 .492-2.044q.193-1.096.403-3.208t.313-3.268l.083-.97-.005.036-.128 1.102q-.102.882-.163 1.548-.06.666-.09 1.337t-.033 2.13.072 2.174a5.5 5.5 0 0 0 .361 1.444 2.8 2.8 0 0 0 3.016 1.94M761.791 69.975q.075-.876-.112-.761-.133.082-.176.668t-.1 2.616-.15 3.295-.47 4.555q-.381 3.29-.505 4.615t-.148 2.24.013 1.487a1.5 1.5 0 0 0 .192.768.5.5 0 0 0 .321.217q.166.02.346-.22a3.2 3.2 0 0 0 .376-.755 10 10 0 0 0 .367-1.212 15 15 0 0 0 .287-1.562q.116-.865.275-2.715t.317-2.662a7 7 0 0 1 .39-1.361 2.3 2.3 0 0 1 .583-.857 2.2 2.2 0 0 1 .84-.451 3 3 0 0 1 1.041-.108 3.4 3.4 0 0 1 1.177.317 6.4 6.4 0 0 1 1.23.74 5.3 5.3 0 0 1 1.096 1.137 7.8 7.8 0 0 1 .84 1.492q.35.815.64 1.691a10.7 10.7 0 0 1 .417 1.711 14 14 0 0 1 .153 1.714q.025.878.015 1.713a5.8 5.8 0 0 1-.225 1.574 7.3 7.3 0 0 1-.566 1.396 5.8 5.8 0 0 1-.827 1.178 2.95 2.95 0 0 1-1.064.761 4.4 4.4 0 0 1-1.365.29 15 15 0 0 1-1.701.006 6.1 6.1 0 0 1-1.827-.38 8.5 8.5 0 0 1-1.608-.786 8.7 8.7 0 0 1-1.17-.873 2.09 2.09 0 0 1-.597-1.784M783.144 78.829a1.8 1.8 0 0 0-.38-.612 2.1 2.1 0 0 0-.739-.488 5 5 0 0 0-1.106-.314 8 8 0 0 0-1.258-.12 5.7 5.7 0 0 0-1.354.15q-.721.164-1.588.409t-1.597.496a9 9 0 0 0-1.256.53 3 3 0 0 0-.832.62 1.37 1.37 0 0 0-.361.709 1.9 1.9 0 0 0 .09.842 3.8 3.8 0 0 0 .601 1.093 12 12 0 0 0 1.057 1.235q.602.618 1.33 1.264t1.522 1.29q.795.645 1.439 1.19t1.177 1.041a7 7 0 0 1 .94 1.066 3 3 0 0 1 .51 1.002 2.1 2.1 0 0 1 .052.797 1.1 1.1 0 0 1-.36.652 1.94 1.94 0 0 1-.744.431 4.6 4.6 0 0 1-.972.195q-.536.053-1.943.059a28 28 0 0 0-4.16.324M784.268 68.18q.434-.44.646.254a48 48 0 0 1 .195 6.753M790.514 68.653a1.7 1.7 0 0 0-.559.77 2.6 2.6 0 0 0-.16.829 19 19 0 0 0 .656 3.624M824.783 85.061a6 6 0 0 0-.323-1.703q-.3-.907-.524-1.477t-.525-1.196a10 10 0 0 0-.695-1.218 8 8 0 0 0-.678-.905 2.9 2.9 0 0 0-.739-.57 2.4 2.4 0 0 0-.931-.31 4 4 0 0 0-1 .02 2.3 2.3 0 0 0-1.004.407 6 6 0 0 0-.987.886 9 9 0 0 0-1.02 1.39 16 16 0 0 0-.943 1.795q-.43.956-.813 2.04t-.741 2.279a11.7 11.7 0 0 0-.456 2.288 10 10 0 0 0 .018 2.063 4.4 4.4 0 0 0 .586 1.748 3.3 3.3 0 0 0 1.095 1.16 4.4 4.4 0 0 0 1.396.545 8.6 8.6 0 0 0 1.63.18 16 16 0 0 0 1.6-.045 4 4 0 0 0 1.395-.37 5.3 5.3 0 0 0 1.223-.809 4.7 4.7 0 0 0 .941-1.117 6.2 6.2 0 0 0 .61-1.427 15 15 0 0 0 .403-1.813 19 19 0 0 0 .218-2.051q.057-1.047.062-2.215t-.033-2.32a14.5 14.5 0 0 0-.17-1.914 4.7 4.7 0 0 0-.267-1.052q-.137-.29-.329-.292t-.438.465a10 10 0 0 0-.497 1.133 11 11 0 0 0-.427 1.426 12.6 12.6 0 0 0-.213 2.33q-.036 1.57.003 2.422a8.5 8.5 0 0 0 .258 1.707 10.4 10.4 0 0 0 .606 1.713 9 9 0 0 0 .942 1.612 5.1 5.1 0 0 0 1.27 1.236 5.8 5.8 0 0 0 1.163.642 5 5 0 0 0 .871.228q.422.066 1.247.112a4.9 4.9 0 0 0 1.55-.153 7.6 7.6 0 0 0 2.73-1.828M833.129 78.801a11.4 11.4 0 0 0-.235 2.059q-.029.796-.032 2.98t.048 3.257.2 2.774.24 2.542.135.785.21-.281a2.9 2.9 0 0 0 .348-.712q.178-.486.383-1.204t.98-4.086 1.17-4.731a17 17 0 0 1 .828-2.31 5.1 5.1 0 0 1 .877-1.408 1.57 1.57 0 0 1 .858-.522.86.86 0 0 1 .718.201 2.4 2.4 0 0 1 .56.83 8.4 8.4 0 0 1 .46 1.357q.205.79.452 2.444t.387 2.561.253 1.753.188 1.83.134 2.118q.086 1.64.498 6.197M856.98 85.455a12.6 12.6 0 0 0 .349-2.239 3.6 3.6 0 0 0-.073-.796 4 4 0 0 0-.274-.767 8 8 0 0 0-.52-.925 11 11 0 0 0-.77-1.042 11 11 0 0 0-.97-1.028 8.4 8.4 0 0 0-1.095-.858 8 8 0 0 0-1.146-.631 4.1 4.1 0 0 0-1.095-.328 8 8 0 0 0-1.004-.08 3 3 0 0 0-.997.167 3.4 3.4 0 0 0-.997.547 9 9 0 0 0-1.021.939 8.7 8.7 0 0 0-1.024 1.32 14.5 14.5 0 0 0-.92 1.689q-.438.935-.835 2.014a11.5 11.5 0 0 0-.564 2.095 13 13 0 0 0-.172 2.005 5.1 5.1 0 0 0 .388 1.96 5 5 0 0 0 1.111 1.688A7.7 7.7 0 0 0 847 92.428a15 15 0 0 0 1.945.92 13 13 0 0 0 1.81.57 7.6 7.6 0 0 0 1.444.198 4 4 0 0 0 1.216-.144 2.46 2.46 0 0 0 .992-.545 4.2 4.2 0 0 0 .754-.926 5.7 5.7 0 0 0 .568-1.346 8.7 8.7 0 0 0 .311-1.778q.075-.977.083-2.137t-.095-2.554a33.7 33.7 0 0 0-1.21-5.892" class="d"/><path d="M854.489 75.947a2.57 2.57 0 0 0 .516-1.214 5.4 5.4 0 0 1 .225-.765l.102-.208q.03-.063.047.11l.055.576q.038.405.041 1.986c.003 1.581-.017 1.94-.056 2.657s-.067 1.477-.082 2.281-.017 1.601-.008 2.39a12 12 0 0 0 .253 2.338 20 20 0 0 0 .618 2.282 19 19 0 0 0 .832 2.086q.455.958.93 1.775.698 1.202 1.614 3.04" class="d"/><path d="M855.939 70.876a2.5 2.5 0 0 0-.159-1.291q-.134-.183-.289.168a8 8 0 0 0-.346 1.574q-.285 1.808-.435 4.266M906.707 83.783a8.2 8.2 0 0 1-.78-1.727q-.227-.679-.325-1.105t-.246-.874a5 5 0 0 0-.366-.846 3.2 3.2 0 0 0-.53-.716 3.1 3.1 0 0 0-.708-.54 2 2 0 0 0-.84-.256 4.2 4.2 0 0 0-.93.037 2.26 2.26 0 0 0-1.015.471 4.3 4.3 0 0 0-1.011 1.173 11 11 0 0 0-.908 1.9q-.425 1.129-.82 2.48t-.703 2.776-.51 2.97-.29 2.886-.057 2.135a2.13 2.13 0 0 0 .297 1.163 1.3 1.3 0 0 0 .66.497 1.8 1.8 0 0 0 .884.038 3.4 3.4 0 0 0 1.062-.416q.57-.327 1.206-.777a11 11 0 0 0 1.24-1.024 16 16 0 0 0 1.185-1.264 10 10 0 0 0 1.067-1.555 8.7 8.7 0 0 0 .762-1.8 12.6 12.6 0 0 0 .402-1.846q.127-.915.184-1.94t-.08-1.017-.343.49-.464 1.3-.523 1.925-.504 2.366q-.242 1.26-.432 2.523t-.297 2.592-.142 2.713-.013 2.522a12 12 0 0 0 .236 2.187 8 8 0 0 0 .492 1.66 3.3 3.3 0 0 0 .578.925q.431.45 1.234.003M886.115 70.094a9 9 0 0 1 .597-1.423 3 3 0 0 1 .333-.526q.118-.128.135 1.129t.017 3.228.016 2.627a7.9 7.9 0 0 0 .595 2.472M892.595 69.297q-.363-.093-.446.307a4 4 0 0 0-.064.752q-.007.47.044 1.15a7.6 7.6 0 0 0 .283 1.494 25.7 25.7 0 0 0 1.856 4.06M909.318 79.038a2.6 2.6 0 0 0-.327.915 10 10 0 0 0-.17 1.263q-.074.83-.082 2.946t.004 3.263.116 2.172a12 12 0 0 0 .33 1.863 5.6 5.6 0 0 0 .612 1.476 2.45 2.45 0 0 0 .907.918 2.9 2.9 0 0 0 1.163.333 7.3 7.3 0 0 0 1.328-.017 2.76 2.76 0 0 0 1.229-.419 5 5 0 0 0 1.029-.89 10 10 0 0 0 .948-1.265 14 14 0 0 0 .842-1.517q.376-.793.704-1.705t.61-2.017a19 19 0 0 0 .438-2.288q.155-1.185.277-3.599t.153-2.767l.033-.373.001-.01v.01q-.002.017-.024.365a8 8 0 0 1-.137.94q-.115.592-.213 1.32t-.16 1.562q-.061.832-.092 1.635t-.033 3.66.108 3.894a9 9 0 0 0 .44 1.99 4 4 0 0 0 .89 1.527 5.47 5.47 0 0 0 3.084 1.162M929.97 80.424a1.4 1.4 0 0 0-.815-.728 2.6 2.6 0 0 0-.693-.125.86.86 0 0 0-.637.279 2.2 2.2 0 0 0-.504.876 8 8 0 0 0-.33 1.365 16 16 0 0 0-.171 1.679q-.047.9-.053 1.847t.043 1.98a11 11 0 0 0 .306 2.094 7.2 7.2 0 0 0 .725 1.877 5.8 5.8 0 0 0 1.244 1.492 8.1 8.1 0 0 0 1.73 1.15 8.5 8.5 0 0 0 1.864.683 10 10 0 0 0 1.712.256 7 7 0 0 0 1.533-.075 3.2 3.2 0 0 0 1.34-.55 4.8 4.8 0 0 0 1.068-1.04 5 5 0 0 0 .735-1.408 6.4 6.4 0 0 0 .315-1.81 10.7 10.7 0 0 0-.167-2.242 19 19 0 0 0-.711-2.752q-.502-1.525-1.195-3.169t-1.419-3.024a11 11 0 0 0-1.226-1.958 2 2 0 0 0-.87-.675 1.1 1.1 0 0 0-.694.034 1.5 1.5 0 0 0-.586.432 4 4 0 0 0-.46.662 7.5 7.5 0 0 0-.582 1.82M946.725 70.261a7.1 7.1 0 0 0-.262 2.033q-.044 1.44-.087 3.87t-.081 3.876q-.038 1.445-.082 2.664t-.061 3.125.018 2.537a4.7 4.7 0 0 0 .217 1.188 7 7 0 0 0 .451 1.068 2.8 2.8 0 0 0 .613.816 2.4 2.4 0 0 0 .768.46 3 3 0 0 0 .923.17 3.2 3.2 0 0 0 .95-.107 6.9 6.9 0 0 0 2.24-2.097" class="d"/><path d="M942.06 79.268q-.576-.315-.323-.572a1.4 1.4 0 0 1 .663-.294q.484-.11 1.279-.223t1.92-.225q1.123-.112 3.759-.337a62 62 0 0 0 6.815-.904M959.518 77.238a6 6 0 0 0-.751 1.266 7 7 0 0 0-.294.974q-.138.595-.255 1.45t-.223 2.82q-.106 1.965-.123 3.793t-.006 2.709a11 11 0 0 0 .112 1.525 4 4 0 0 0 .301 1.076 2.6 2.6 0 0 0 .448.69 1.22 1.22 0 0 0 1.198.192M961.15 72.139a1.65 1.65 0 0 0-.047-.676q-.061-.193-.07-.217-.006-.025.012.017l.16.369a12.5 12.5 0 0 0 1.257 1.863M968.96 89.278q1.64-1.83 2.193-2.406.384-.399.8-.906a13 13 0 0 0 .798-1.088 6 6 0 0 0 .636-1.273 7.3 7.3 0 0 0 .365-1.557 15 15 0 0 0 .124-1.772 5.6 5.6 0 0 0-.226-1.695 7.3 7.3 0 0 0-.555-1.373 2.8 2.8 0 0 0-.623-.83 1.23 1.23 0 0 0-.614-.286 2.3 2.3 0 0 0-.63.007 1.3 1.3 0 0 0-.62.28 5 5 0 0 0-.593.562 9 9 0 0 0-.628.788 8 8 0 0 0-.654 1.115q-.323.653-1.153 2.628t-1.227 3.055-.716 2.264a10.3 10.3 0 0 0-.36 2.239 4.4 4.4 0 0 0 1.49 3.566 6 6 0 0 0 1.676 1.096 10.2 10.2 0 0 0 1.808.592 14 14 0 0 0 1.924.289q1.013.083 1.948.079a6.3 6.3 0 0 0 1.784-.257 8.6 8.6 0 0 0 2.94-1.854M980.28 77.056a1.9 1.9 0 0 0-.217 1.096q-.003.841.044 1.577t.23 2.635q.18 1.9.228 3.716t.037 3.115q-.01 1.297-.038 2.088t.01.726l.19-.322a14 14 0 0 0 .618-1.495q.466-1.238 1.02-3.004t.967-2.926.933-2.4a20 20 0 0 1 1.19-2.379 15.5 15.5 0 0 1 1.326-1.943 6 6 0 0 1 1.106-1.117 1.9 1.9 0 0 1 .73-.353 1 1 0 0 1 .49.03q.207.073.48.727a21 21 0 0 1 .744 2.531q.47 1.878.65 2.766t.328 1.76q.146.871.386 2.665t.328 2.696a14 14 0 0 0 .248 1.624 3.37 3.37 0 0 0 1.586 1.953M1000.904 71.093a.8.8 0 0 0-.619-.444.54.54 0 0 0-.434.063 1.05 1.05 0 0 0-.267.377 3.2 3.2 0 0 0-.213.63 8 8 0 0 0-.128 1.307q-.04.941-.041 1.486t.283 2.718.495 4.212.298 2.967.195 1.766.234 1.602.39 1.993.428 1.718a2.5 2.5 0 0 0 .372.754q.293.374 1.622-.23" class="d"/><path d="M995.738 79.046a4.4 4.4 0 0 1-.776-.529.34.34 0 0 1-.136-.34q.041-.178.646-.26t2.114-.132q1.511-.05 4.025-.052t3.67.048 2.102.118a26 26 0 0 1 3.062.42" class="d"/><path d="M1015.113 77.035a2.05 2.05 0 0 0-.439-.833 1.8 1.8 0 0 0-.458-.318 2 2 0 0 0-.689-.196q-.406-.05-1.664-.056a11 11 0 0 0-1.934.12 10 10 0 0 0-1.259.317 9 9 0 0 0-1.099.436 3.3 3.3 0 0 0-.805.511 2.3 2.3 0 0 0-.457.57 1.8 1.8 0 0 0-.21.664 4 4 0 0 0-.008.748 2 2 0 0 0 .337.87 8 8 0 0 0 .867 1.099 11.6 11.6 0 0 0 1.374 1.259q.81.642 2.967 1.987t3.05 1.931 1.6 1.128a11.5 11.5 0 0 1 1.209 1.047 3 3 0 0 1 .66.9 2.2 2.2 0 0 1 .178.713.9.9 0 0 1-.168.577 1.3 1.3 0 0 1-.51.41 3.3 3.3 0 0 1-.694.23 8 8 0 0 1-1.231.116 7.3 7.3 0 0 1-2.019-.253q-1.157-.287-1.776-.484t-1.15-.403a10 10 0 0 1-.937-.418 2.6 2.6 0 0 1-.61-.411q-.291-.286-.041-1.29M1025.473 65.822a97 97 0 0 0 .235 10.047M1031.204 68.122a3.97 3.97 0 0 0 .35 2.538 44 44 0 0 0 2.063 4.646M1037.2 93.374q.396-.353.613-.252a.86.86 0 0 1 .32.39 7 7 0 0 1 .358.83q.19.508.37 1.165t.295 1.33a10 10 0 0 1 .138 1.332 9 9 0 0 1-.06 1.344 8.7 8.7 0 0 1-1.136 2.814M1061.662 79.505q.155-.336.174-.379a2 2 0 0 1 .014.404v2.956q0 2.523-.09 5.233-.088 2.71-.116 3.927t-.032 1.945a9 9 0 0 0 .051 1.138.83.83 0 0 0 .277.58.82.82 0 0 0 .558.154 1.8 1.8 0 0 0 .81-.31 9 9 0 0 0 1.053-.788 11 11 0 0 0 1.109-1.095 9.7 9.7 0 0 0 .994-1.366 13 13 0 0 0 .868-1.736 12 12 0 0 0 .637-2.067 23 23 0 0 0 .366-2.306q.133-1.213.231-2.45t.172-1.945.112-.856l.041-.168q.005-.019.005.027l.004.406q.003.362-.06 1.235c-.063.873-.124 1.227-.244 1.935s-.235 1.456-.347 2.247-.2 1.569-.262 2.334-.102 1.503-.115 2.213a15 15 0 0 0 .087 1.995 3.1 3.1 0 0 0 .485 1.455 2.2 2.2 0 0 0 1.01.775 4.8 4.8 0 0 0 1.515.294 6.4 6.4 0 0 0 1.704-.133 4 4 0 0 0 1.49-.653 5.7 5.7 0 0 0 1.185-1.138 5.4 5.4 0 0 0 .809-1.434 9 9 0 0 0 .447-1.84 22 22 0 0 0 .208-2.467q.05-1.396-.033-2.886t-.285-2.842-.386-2.233a3.8 3.8 0 0 0-.32-1.077q-.138-.195-.237-.064a1.4 1.4 0 0 0-.173.533q-.108.583-.262 2.17M1081.441 91.504a12 12 0 0 0 1.457-2.421q.635-1.224.918-1.793t.56-1.21a9 9 0 0 0 .457-1.344 8 8 0 0 0 .23-1.551q.049-.847.022-1.821a8 8 0 0 0-.245-1.818 7.4 7.4 0 0 0-.511-1.425 1.24 1.24 0 0 0-.602-.683.83.83 0 0 0-.686.115 3.8 3.8 0 0 0-.867.781 14 14 0 0 0-1.038 1.367q-.546.803-1.15 1.824t-1.183 2.195a13 13 0 0 0-.883 2.309 11.7 11.7 0 0 0-.38 2.328 9.4 9.4 0 0 0 .165 2.416 5.8 5.8 0 0 0 .816 2.091 7.4 7.4 0 0 0 1.291 1.499 18 18 0 0 0 1.5 1.179q.78.55 1.434.971a11 11 0 0 0 1.312.734 8 8 0 0 0 1.46.517 10.9 10.9 0 0 0 4.02-.216M97.254 132.753a8 8 0 0 0 .095-1.313 8 8 0 0 0-.051-1.126 3.5 3.5 0 0 0-.202-.73 5.5 5.5 0 0 0-.41-.82 7 7 0 0 0-.651-.903 7 7 0 0 0-.828-.838 5.2 5.2 0 0 0-.866-.608 2.3 2.3 0 0 0-.877-.28 1.9 1.9 0 0 0-.894.13 3.5 3.5 0 0 0-.953.618 8 8 0 0 0-1.032 1.11 8.4 8.4 0 0 0-.923 1.485 12 12 0 0 0-.686 1.74 17 17 0 0 0-.489 2.116 21 21 0 0 0-.266 2.53q-.063 1.34-.07 2.739t.073 2.572a11 11 0 0 0 .261 1.885 4 4 0 0 0 .467 1.156 1.93 1.93 0 0 0 .7.669 1.8 1.8 0 0 0 1.022.176 4 4 0 0 0 1.356-.404 7.8 7.8 0 0 0 1.45-.898 8.7 8.7 0 0 0 1.27-1.21q.57-.665 1.128-1.437a18 18 0 0 0 1.063-1.671 13 13 0 0 0 .832-1.753 7.2 7.2 0 0 0 .43-1.738 9 9 0 0 0 .02-1.845 5.5 5.5 0 0 0-.395-1.69 9 9 0 0 0-.59-1.181 6 6 0 0 0-.409-.604q-.13-.153-.118-.044l.059.549q.048.438.153 1.727t.213 2.012.286 1.456a14 14 0 0 0 .412 1.396q.235.662.542 1.324t.664 1.282a6.1 6.1 0 0 0 2.417 1.916M113.277 131.09a8 8 0 0 0 .158-1.006q.051-.546.053-.85a5 5 0 0 0-.043-.643 2.3 2.3 0 0 0-.208-.675 2 2 0 0 0-.484-.628 3.6 3.6 0 0 0-.805-.528 7.5 7.5 0 0 0-1.053-.423 5 5 0 0 0-1.1-.23 5.4 5.4 0 0 0-1.073.013 4.2 4.2 0 0 0-1.137.306 5.6 5.6 0 0 0-1.114.62 5.16 5.16 0 0 0-1.703 2.076 7 7 0 0 0-.488 1.472 15 15 0 0 0-.26 1.71q-.087.921-.112 2.046t.046 2.162a14.6 14.6 0 0 0 .258 1.947 15 15 0 0 0 .439 1.677 4.8 4.8 0 0 0 .604 1.265 2.7 2.7 0 0 0 .866.796 3.9 3.9 0 0 0 1.204.436 7.7 7.7 0 0 0 1.344.151 9 9 0 0 0 1.238-.056 6.7 6.7 0 0 0 1.17-.253 13.5 13.5 0 0 0 2.467-1.194M114.76 121.055a13 13 0 0 0-.032 1.567q.013.714.118 1.79t.238 2.331.247 2.428.205 2.227q.092 1.056.16 2.15t.113 2.86.091 2.548.139 1.346a5.2 5.2 0 0 0 .854 1.932M129.65 132.455q.189.02.298-.297a3 3 0 0 0 .118-.672q.043-.453.052-1.097a2.8 2.8 0 0 0-.12-.993 2.7 2.7 0 0 0-.413-.71 4 4 0 0 0-.744-.71 5 5 0 0 0-1.011-.586 5.4 5.4 0 0 0-1.118-.35 7 7 0 0 0-1.075-.13 2 2 0 0 0-.87.132 2.6 2.6 0 0 0-.711.456 7.5 7.5 0 0 0-.745.772 9.7 9.7 0 0 0-1.413 2.224 10 10 0 0 0-.53 1.48 9 9 0 0 0-.3 1.865q-.066 1.028-.066 2.2a23 23 0 0 0 .13 2.408 18 18 0 0 0 .347 2.173 7.2 7.2 0 0 0 .534 1.577 3.6 3.6 0 0 0 .771 1.053 2.3 2.3 0 0 0 .947.55 4.2 4.2 0 0 0 .988.148 7.4 7.4 0 0 0 2.51-.745M130.468 121.525l.013-.749-.001.02-.018.504a9 9 0 0 0 .038 1.006q.053.603.255 2.446t.329 3.074.25 2.55.235 2.677q.113 1.354.167 2.58t.083 2.265.075 1.927a13 13 0 0 0 .144 1.471 4.1 4.1 0 0 0 .268.97 1.8 1.8 0 0 0 .42.613 1.13 1.13 0 0 0 .536.288 2.8 2.8 0 0 0 1.268-.186" class="d"/><path d="M126.79 143.266a3 3 0 0 0 1.064-.09q.37-.095.864-.264t1.022-.396a24 24 0 0 0 2.485-1.373M162.295 128.666a.5.5 0 0 0-.14-.41q-.097-.08-.1.478t.018 1.105q.02.547.214 2.101t.54 4.148.487 3.676a11 11 0 0 0 .22 1.337.73.73 0 0 0 .197.352q.166.138.79-.637M163.15 121.69q-.103-.242-.163-.05a.8.8 0 0 0 .005.39 3.5 3.5 0 0 0 .42.962M169.403 129.279q0 .563-.053 1.408t-.055 1.436q-.004.593.046 1.344t.144 1.531q.094.78.154 1.484t.086 1.318.03 1.55-.013 1.271q-.015.336.058.337t.225-.245a7 7 0 0 0 .362-.723q.212-.477.46-1.114t.465-1.303.417-1.46.412-1.804q.213-1.009.315-1.546t.207-1.049.231-1.034.277-1.042a11 11 0 0 1 .543-1.385 3.85 3.85 0 0 1 .831-1.265 1.8 1.8 0 0 1 .89-.476 1.5 1.5 0 0 1 .676-.005 1.9 1.9 0 0 1 .437.21 1.7 1.7 0 0 1 .457.516 4 4 0 0 1 .357.65 5 5 0 0 1 .195.566q.084.296.23.964t.347 2.065.297 2.3.156 1.816.08 1.796.029 1.772a26 26 0 0 0 .193 2.81M210.215 120.28q-.27-.084-.304.594a12 12 0 0 0 .044 1.588q.08.91.24 2.18t.3 2.755q.14 1.487.204 2.813t.102 3.885q.039 2.557.111 3.492a16 16 0 0 0 .24 1.785 8.4 8.4 0 0 0 .454 1.554 4.3 4.3 0 0 0 .611 1.1 3.5 3.5 0 0 0 .655.632 2.8 2.8 0 0 0 .653.355 2 2 0 0 0 .602.13 2.77 2.77 0 0 0 1.368-.741" class="d"/><path d="M206.616 128.024a12 12 0 0 0-1.354-.047q-.142.019-.136.101t.414.223a4 4 0 0 0 .831.19q.425.05.96.062t1.15.006q.612-.006.977-.042t.751-.107q.386-.07.838-.172t.925-.228 1.399-.45 1.396-.525a17 17 0 0 0 2.089-1.182M219.645 120.893l-.028-.734v-.006.024l.013.716a13 13 0 0 0 .093 1.335q.082.654.206 1.533t.217 1.425.347 1.77.717 3.265.617 2.742.272 1.358q.118.66.244 1.809t.148 2.165-.012 1.75-.045 1.165.002.619.12.209q.107.02.252-.205a3.4 3.4 0 0 0 .31-.75 12 12 0 0 0 .321-1.34q.156-.816.288-1.776t.253-2.118.256-2.364.338-2.397a17 17 0 0 1 .527-2.217 7 7 0 0 1 .546-1.384 2 2 0 0 1 .694-.64 2.6 2.6 0 0 1 1.101-.345 7 7 0 0 1 .887-.05 1.7 1.7 0 0 1 .674.231 3 3 0 0 1 .771.59 4 4 0 0 1 .657.975 11 11 0 0 1 .566 1.37q.263.766.506 1.614t.436 1.667a17 17 0 0 1 .315 1.763q.12.946.189 1.785t.105 1.62q.054 1.15.295 2.95M240.013 133.888a2.3 2.3 0 0 0-.37.472 1.5 1.5 0 0 0-.101.586 1.45 1.45 0 0 0 .1.677.95.95 0 0 0 .345.389 1.35 1.35 0 0 0 .601.184 5.9 5.9 0 0 0 1.904-.194q.397-.121.807-.293a11 11 0 0 0 1.19-.632q.781-.46 1.586-1.037t1.485-1.137a11 11 0 0 0 1.163-1.087 3.6 3.6 0 0 0 .69-1.034 1.84 1.84 0 0 0 .128-1.005 2.4 2.4 0 0 0-.255-.805 3.7 3.7 0 0 0-.425-.589 7 7 0 0 0-.848-.764 10 10 0 0 0-.956-.694 9 9 0 0 0-.899-.464 5 5 0 0 0-.8-.308 2.5 2.5 0 0 0-.662-.044 1.4 1.4 0 0 0-.823.358 7 7 0 0 0-.936.981 16 16 0 0 0-1.094 1.554 17 17 0 0 0-1.046 1.929 18 18 0 0 0-.844 2.2q-.374 1.185-.651 2.495t-.356 1.95a11 11 0 0 0-.085 1.214 11 11 0 0 0 .114 1.511 4.3 4.3 0 0 0 .533 1.641 3 3 0 0 0 1.097 1.1 6.7 6.7 0 0 0 1.713.657q1.025.259 1.674.386t1.14.197q.492.071 1.535.114t2.243.027a15 15 0 0 0 2.424-.23q1.223-.214 1.998-.423a25 25 0 0 0 3.569-1.447M288.428 127.064v-.505q0-.013.004.005l.08.359q.076.34.287 1.516t.37 2.348.263 2.685.123 2.9q.017 1.387-.04 2.77t-.171 2.61-.227 2.283-.199 1.981q-.127 1.398-.237 2.679" class="d"/><path d="M287.098 129.036q.073-.67.161-1.116a1.5 1.5 0 0 1 .182-.5.72.72 0 0 1 .411-.29 3.2 3.2 0 0 1 .838-.11q.55-.017.961.01a7.2 7.2 0 0 1 1.273.263 9.2 9.2 0 0 1 1.737.68q.876.445 1.923 1.087t1.645 1.047 1.005.73 1.028.895 1.149 1.158a8 8 0 0 1 .775.973 2.7 2.7 0 0 1 .338.709 3.3 3.3 0 0 1 .077.929 2.7 2.7 0 0 1-.16.95 3 3 0 0 1-.37.642 10 10 0 0 1-.756.84q-.531.546-1.085 1.124t-1.079 1.16-.868.909a6 6 0 0 1-.647.541 9 9 0 0 1-.907.534q-.604.319-.932.46a6 6 0 0 1-.6.228 4 4 0 0 1-1.548-.066M304.502 126.726q.242-.162.071.597t-.24 1.151q-.07.394-.128.84t-.153 1.43q-.092.983-.125 2.143t-.033 3.32.036 3.072.09 1.374q.054.462.132.851a1.9 1.9 0 0 0 .324.732 1.36 1.36 0 0 0 .683.495 3.7 3.7 0 0 0 1.012.18 6 6 0 0 0 1.09-.04 3.6 3.6 0 0 0 1.089-.345q.572-.276 1.385-.724t1.256-.742a9 9 0 0 0 .836-.627 8 8 0 0 0 1-1.096 16 16 0 0 0 1.152-1.665 15 15 0 0 0 .963-1.883 15.5 15.5 0 0 0 .726-2.18 19 19 0 0 0 .473-2.544 24 24 0 0 0 .177-2.451q.016-1.108.011-1.54a5 5 0 0 0-.05-.708l-.052-.335q-.01-.058-.02.042l-.064.58q-.052.48-.257 1.536t-.3 1.508-.237 1.281-.264 1.8-.2 1.953-.122 1.942q-.045.958-.05 1.903a10.4 10.4 0 0 0 .254 2.503M322.363 126.982a4.4 4.4 0 0 1-.154-.966.42.42 0 0 1 .128-.363.9.9 0 0 1 .35-.146 8 8 0 0 1 1.091-.06 15 15 0 0 1 1.67.059q.794.073 1.714.182t1.949.258q1.029.15 1.871.294t1.274.247.758.206a4 4 0 0 1 .57.225 3.5 3.5 0 0 1 .45.263.74.74 0 0 1 .284.448 2 2 0 0 1 .022.742 3.6 3.6 0 0 1-.325 1.019 6.8 6.8 0 0 1-.701 1.17 9.3 9.3 0 0 1-1.085 1.208q-.65.618-1.472 1.343a21 21 0 0 0-1.513 1.473q-.692.749-1.051 1.157t-.996 1.068-1.05 1.038-.918.868a6.2 6.2 0 0 0-.825.958 2.7 2.7 0 0 0-.416.86 1.6 1.6 0 0 0-.055.616.6.6 0 0 0 .262.389 2 2 0 0 0 .585.279 3.8 3.8 0 0 0 .842.158q.477.04 1.11.045t1.265-.045a10 10 0 0 0 1.29-.187q.66-.136 2.006-.468t1.717-.455a9 9 0 0 0 .895-.366 5.4 5.4 0 0 0 1.756-1.645" class="d"/><path d="m324.982 135.66-.434.056q-.034.005.027.008l.411.018q.351.016 1.011.01t2.055-.14 2.062-.205 2.005-.246 2.66-.365q1.934-.278 5.454-1.04M340.284 126.667a6 6 0 0 0 .86-.214q.34-.107.953-.256a11 11 0 0 1 1.256-.23q.642-.08 1.343-.112t1.794-.04a13 13 0 0 1 1.82.092 5 5 0 0 1 1.185.285 1.46 1.46 0 0 1 .648.443 1.26 1.26 0 0 1 .232.613 2.7 2.7 0 0 1-.04.804 3.5 3.5 0 0 1-.368.988 9 9 0 0 1-.74 1.145 7.5 7.5 0 0 1-1.097 1.162q-.642.556-1.446 1.142t-1.595 1.285a17 17 0 0 0-1.386 1.365q-.595.666-1.135 1.306t-.99 1.257a4.2 4.2 0 0 0-.613 1.1 3 3 0 0 0-.164.932 1.48 1.48 0 0 0 .26.843 1.9 1.9 0 0 0 .702.629 5 5 0 0 0 1.02.397 12 12 0 0 0 1.233.272 10 10 0 0 0 1.414.128q.761.018 1.701.013a13 13 0 0 0 1.833-.136 14 14 0 0 0 1.576-.311q.684-.181 1.341-.403a7.5 7.5 0 0 0 2.149-1.256" class="d"/><path d="M342.9 134.755q-.15-.183.072-.275a3.4 3.4 0 0 1 .59-.144q.429-.078 1.35-.189t2.27-.245 2.757-.286 2.735-.291q1.95-.204 4.834-.703M364.035 119.864q-.1-.24-.222-.218-.086.015-.209.307a5 5 0 0 0-.244.875q-.122.582-.25 1.534t-.316 2.277-.438 2.648-.544 2.65-.577 2.527a20 20 0 0 0-.408 2.26q-.122 1.058-.14 2.015a14 14 0 0 0 .072 1.814 7 7 0 0 0 .334 1.548 7 7 0 0 0 .57 1.245 7 7 0 0 0 .717 1.005 6.3 6.3 0 0 0 .725.727 5.2 5.2 0 0 0 1.818.762M370.57 135.13q.493-.646.89-1.073a5 5 0 0 1 .636-.571 7 7 0 0 1 .847-.55q.48-.268 1.007-.586a5.7 5.7 0 0 0 .95-.713 2.8 2.8 0 0 0 .639-.864 3.5 3.5 0 0 0 .28-1.098q.066-.63.072-1.317a6 6 0 0 0-.11-1.251 4 4 0 0 0-.293-.925 1.34 1.34 0 0 0-.384-.507.73.73 0 0 0-.525-.109 2.6 2.6 0 0 0-.829.296q-.509.259-1.186.661a7.7 7.7 0 0 0-1.295.974 7.4 7.4 0 0 0-1.16 1.4q-.54.829-1.059 1.799a18 18 0 0 0-.903 1.96 10.4 10.4 0 0 0-.56 2.02 7.5 7.5 0 0 0-.093 1.932 2.84 2.84 0 0 0 .577 1.533 7.2 7.2 0 0 0 1.175 1.17 12 12 0 0 0 1.351.938 9 9 0 0 0 1.515.705 18 18 0 0 0 1.805.55 23.6 23.6 0 0 0 4.18.5M411.504 128.153a2.3 2.3 0 0 0-.348-.723 3 3 0 0 0-.505-.467 3 3 0 0 0-.612-.393 2.9 2.9 0 0 0-.8-.16 7 7 0 0 0-1.012-.025 2.8 2.8 0 0 0-.942.233 3.8 3.8 0 0 0-.914.563 3.3 3.3 0 0 0-.745.893 6 6 0 0 0-.54 1.295q-.228.757-.344 1.27a8 8 0 0 0-.165.986q-.048.475-.066 1.525t-.02 1.716.078 1.858.174 1.776.344 1.522a8.6 8.6 0 0 0 .621 1.673 3.9 3.9 0 0 0 .962 1.228 4 4 0 0 0 1.453.748 10 10 0 0 0 1.776.352q.914.1 1.464.109a18.4 18.4 0 0 0 3.693-.78M424.384 126.594a1.9 1.9 0 0 0-.729.106 2.8 2.8 0 0 0-.605.453 4.2 4.2 0 0 0-.837 1.15 11 11 0 0 0-.737 1.764q-.324.993-.473 1.594t-.301 1.614-.21 1.646-.088 1.233-.031 1.228.04 1.605a7.5 7.5 0 0 0 .273 1.769 3.3 3.3 0 0 0 .644 1.267 2.02 2.02 0 0 0 1.065.642 6.8 6.8 0 0 0 1.573.174 8.4 8.4 0 0 0 1.84-.186 9 9 0 0 0 1.33-.361 9 9 0 0 0 .8-.37q.39-.205 1.205-.75a9 9 0 0 0 1.573-1.362 6.3 6.3 0 0 0 1.13-1.635 5.8 5.8 0 0 0 .483-1.733 13.5 13.5 0 0 0 .062-2.122 9.2 9.2 0 0 0-.444-2.436 15 15 0 0 0-.762-1.981 11 11 0 0 0-.816-1.406 12 12 0 0 0-1.41-1.608 8 8 0 0 0-1.615-1.31 2.7 2.7 0 0 0-1.009-.379q-.355-.022-.91.695-.84 1.086-1.532 2.007M438.44 127.631a3.6 3.6 0 0 0 .005-.623l-.067.12a4 4 0 0 0-.064.94q-.01.844-.012 1.728t.026 1.991q.028 1.108.074 2.331t.087 2.399.061 2.283.023 2.661.148 1.461a1.3 1.3 0 0 0 .348-.446 10 10 0 0 0 .446-.906q.244-.552.515-1.342t.538-1.74.474-2.02.582-3.86q.374-2.792.64-3.92a4.6 4.6 0 0 1 .706-1.708 2 2 0 0 1 1.049-.753 3.1 3.1 0 0 1 2.33.256 3.2 3.2 0 0 1 .887.74 5 5 0 0 1 .715 1.174q.322.71.672 1.587t.72 1.838q.37.96.689 1.973t.596 2.079q.278 1.067.54 2.118t.46 1.93q.2.877.386 1.538a9 9 0 0 0 .38 1.106 4.7 4.7 0 0 0 .366.7 1.1 1.1 0 0 0 .37.368q.285.161.93-.32M456.687 128.229a5 5 0 0 0-.05-1.132q-.045-.12-.097.02a5.2 5.2 0 0 0-.047 1.061q.007.923.051 1.664t.085 1.586.075 1.89.057 2.087.027 2.686-.005 2.145.022.459l.149-.22a4.6 4.6 0 0 0 .325-.648q.207-.474.732-1.813t.836-2.233q.31-.893.639-1.985t.644-2.291q.316-1.198.645-2.38a9.6 9.6 0 0 1 .73-1.933 2.33 2.33 0 0 1 .777-.957 1.24 1.24 0 0 1 .681-.183.92.92 0 0 1 .577.287 3 3 0 0 1 .515.704 9 9 0 0 1 .495 1.096q.25.656.492 1.492t.463 1.683q.22.847.41 1.754t.323 1.934q.136 1.027.177 1.958t.052 1.81q.01.88.034 1.65a8 8 0 0 0 .127 1.278 2.66 2.66 0 0 0 .844 1.398M473.598 134.879a1.5 1.5 0 0 0-.484.458q-.082.148.175.098a4.6 4.6 0 0 0 1.142-.678q.886-.626 1.512-1.101t1.282-1.04a12.5 12.5 0 0 0 1.185-1.158 7.5 7.5 0 0 0 .882-1.198 4.4 4.4 0 0 0 .494-1.203 2.85 2.85 0 0 0 .064-1.103 2.5 2.5 0 0 0-.357-.946 6 6 0 0 0-.602-.807 2.1 2.1 0 0 0-.654-.517 1.5 1.5 0 0 0-.712-.133 1.8 1.8 0 0 0-.855.323 5.2 5.2 0 0 0-.983.854 8.3 8.3 0 0 0-1.012 1.393 14 14 0 0 0-.92 1.878 16.1 16.1 0 0 0-1.116 4.531q-.13 1.282-.15 2.479a9.5 9.5 0 0 0 .188 2.16 5.9 5.9 0 0 0 .621 1.684 3.33 3.33 0 0 0 1.145 1.18 5 5 0 0 0 1.791.648 15 15 0 0 0 2.123.232q1.063.042 2.266.008a13.8 13.8 0 0 0 4.358-1.038M494.321 127.205a2 2 0 0 0-.605-.7 1.5 1.5 0 0 0-.677-.28 2.8 2.8 0 0 0-.88.007 3.2 3.2 0 0 0-1.039.38 5 5 0 0 0-.828.54 5 5 0 0 0-.692.817 8.6 8.6 0 0 0-.789 1.367 18 18 0 0 0-.689 1.693q-.32.91-.459 1.415t-.24 1.006q-.1.5-.198 1.496t-.115 1.93a6 6 0 0 0 .175 1.668 5.2 5.2 0 0 0 .564 1.352 5.5 5.5 0 0 0 .876 1.117 4 4 0 0 0 1.189.803 7 7 0 0 0 1.605.474 16 16 0 0 0 1.853.229q.929.06 1.385.065a7 7 0 0 0 1.32-.16 13.2 13.2 0 0 0 2.923-1.006M506.663 119.987q-.012.783.03 2.023t.19 2.564.323 2.657.315 2.7.214 2.524.088 2.354.016 3.945-.016 3.845.477.913" class="d"/><path d="M502.123 128.771a1.3 1.3 0 0 1-.184-.458.23.23 0 0 1 .079-.237 1.3 1.3 0 0 1 .544-.147q.44-.06 1.057-.088t1.506-.038 2.124-.01 2.316.027 2.198.09 2.1.141 1.544.182a5.4 5.4 0 0 1 .901.229 1.6 1.6 0 0 1 .533.305.75.75 0 0 1 .237.452 2 2 0 0 1-.034.663 4 4 0 0 1-.31.895q-.233.505-.54 1.086t-.62 1.323-.619 1.637-.576 1.756-.507 1.739a17 17 0 0 0-.377 1.766 11 11 0 0 0-.148 1.516 1.9 1.9 0 0 0 .232 1.024 1.86 1.86 0 0 0 .663.647 2.6 2.6 0 0 0 .95.327 9.5 9.5 0 0 0 1.241.084 9 9 0 0 0 1.59-.144 8 8 0 0 0 1.64-.458 9 9 0 0 0 1.433-.73 13 13 0 0 0 1.325-.97 6.5 6.5 0 0 0 1.135-1.216 6 6 0 0 0 .766-1.472 7.6 7.6 0 0 0 .388-1.767 9.8 9.8 0 0 0-.042-2.163 11.4 11.4 0 0 0-.597-2.471 14.6 14.6 0 0 0-1.14-2.45 12 12 0 0 0-1.298-1.866 4.3 4.3 0 0 0-1.006-.907 1.66 1.66 0 0 0-.667-.23.9.9 0 0 0-.54.152q-.382.238-2.245 1.447M529.625 127.179a13 13 0 0 1 .285 1.347q.12.747.278 1.804t.29 2.268q.132 1.21.21 2.35t.1 2.002q.024.862.026 1.588t-.033 1.366q-.037.64-.119 1.336t-.085.807l-.002.12a.4.4 0 0 0 .02-.073l.259-1.079q.239-.996.382-1.735t.288-1.6.255-1.819.201-2.043.164-2.26q.073-1.177.19-2.182a10 10 0 0 1 .326-1.702 3.5 3.5 0 0 1 .503-1.095 1.7 1.7 0 0 1 .637-.553 6.4 6.4 0 0 1 1.096-.334 10 10 0 0 1 1.11-.214q.356-.038.828-.055t1.092-.02q.621-.001 1.387.07a13 13 0 0 1 1.531.24 19.7 19.7 0 0 1 3.022 1.025M552.259 127.576a3.3 3.3 0 0 0-.68-.883 2.9 2.9 0 0 0-.656-.443 4 4 0 0 0-.849-.306 4.7 4.7 0 0 0-.934-.132 4 4 0 0 0-.966.08 5.7 5.7 0 0 0-1.873.759 9 9 0 0 0-.748.547q-.37.302-.741.666a4.2 4.2 0 0 0-.618.756 2.9 2.9 0 0 0-.359.833 3.3 3.3 0 0 0-.093.927 1.8 1.8 0 0 0 .338.95 6.7 6.7 0 0 0 .845.976q.525.512 1.16 1.136t1.379 1.292 1.608 1.33 1.657 1.317a12 12 0 0 1 1.342 1.28 9 9 0 0 1 .918 1.226 6 6 0 0 1 .548 1.097 2.1 2.1 0 0 1 .156.844.95.95 0 0 1-.305.622 4 4 0 0 1-.654.513 5.3 5.3 0 0 1-.775.407 6 6 0 0 1-.847.28 6.5 6.5 0 0 1-1.042.158q-.595.047-1.308.052a9.4 9.4 0 0 1-1.437-.103q-.725-.107-1.407-.279t-1.33-.37-1.257-.414a7 7 0 0 1-1.063-.469 2.3 2.3 0 0 1-.665-.513 1.3 1.3 0 0 1-.27-.494 1.2 1.2 0 0 1 .126-.793M564.045 142.307a5.4 5.4 0 0 0-.805-.305l-.134-.023M285.754 300.295a5 5 0 0 0-.483-.043.2.2 0 0 1-.133-.034q-.036-.034.053-.064a2 2 0 0 1 .285-.059 4 4 0 0 1 .487-.034q.293-.007.67.018a9 9 0 0 1 .916.116q.54.093 1.153.249t1.301.377q.689.22 1.397.512a13 13 0 0 1 1.211.566q.504.273.971.559a4 4 0 0 1 .8.633 1.9 1.9 0 0 1 .441.653 2 2 0 0 1 .119.593 1.36 1.36 0 0 1-.117.588 2.3 2.3 0 0 1-.38.594 3.4 3.4 0 0 1-.676.58 8 8 0 0 1-.913.533q-.49.247-.92.42a9 9 0 0 1-.981.318q-.552.147-1.13.269t-1.136.206-1.053.147a8 8 0 0 1-.818.069 2 2 0 0 1-.499-.04 1.6 1.6 0 0 1-.3-.108.6.6 0 0 1-.18-.126q-.077-.09.181-.226M321.097 319.747a.7.7 0 0 0-.327-.114.15.15 0 0 0-.157.088.8.8 0 0 0-.063.301 4 4 0 0 0-.007.393 3 3 0 0 0 .07.463q.06.277.16.649t.22.809l.258.94q.138.504.316 1.034.179.532.39 1.002a6.5 6.5 0 0 0 .484.887 6 6 0 0 0 .564.746 6 6 0 0 0 .529.535 4 4 0 0 0 .461.351 1.7 1.7 0 0 0 .46.211 2.3 2.3 0 0 0 .518.079 2.7 2.7 0 0 0 .586-.039 1.2 1.2 0 0 0 .518-.208 1.7 1.7 0 0 0 .393-.406 6 6 0 0 0 .373-.612q.197-.362.392-.776t.396-.856q.203-.444.406-.97a9.5 9.5 0 0 0 .541-2.025q.074-.49.103-1.005t.032-.891a5 5 0 0 0-.037-.66q-.039-.286-.138-.704t-.185-.85a2.1 2.1 0 0 1-.02-.78M365.602 292.206l-.243.016h-.002l.025-.005.577-.095q.546-.091.864-.134t.73-.07.905-.033.99.037a9 9 0 0 1 .974.14 9 9 0 0 1 .896.23 5.4 5.4 0 0 1 .778.31 3 3 0 0 1 .605.383 1.4 1.4 0 0 1 .34.376.9.9 0 0 1 .113.343 1.3 1.3 0 0 1-.007.34.7.7 0 0 1-.14.318 2.4 2.4 0 0 1-.294.311 6 6 0 0 1-.453.362 5 5 0 0 1-.619.385q-.345.185-.742.35t-.81.316a7 7 0 0 1-.848.244q-.435.094-.909.158t-.898.102-1.074.046-.87.005-.308-.015-.071-.02l.144-.078M365.37 327a1.2 1.2 0 0 1-.122-.432.2.2 0 0 1 .063-.155.8.8 0 0 1 .18-.119 1.6 1.6 0 0 1 .3-.109 2.4 2.4 0 0 1 .428-.068 5 5 0 0 1 .549-.007 1.8 1.8 0 0 1 .632.15q.329.139.742.36t.89.496q.48.274.9.552t.843.573q.421.294.85.622a4.7 4.7 0 0 1 .724.673 3.1 3.1 0 0 1 .446.66 2.4 2.4 0 0 1 .206.622 3 3 0 0 1 .039.645 2.2 2.2 0 0 1-.133.656 2.8 2.8 0 0 1-.311.608 2.3 2.3 0 0 1-.486.518q-.291.23-.68.479t-.728.475-.642.414a5 5 0 0 1-.65.34 4 4 0 0 1-.681.235q-.336.083-.835.157t-.722.097-.217.057q.01.048.375.072M284.75 347.91q-.045-.171-.101-.323a.25.25 0 0 1-.008-.181.32.32 0 0 1 .141-.147 1.3 1.3 0 0 1 .312-.124 2.3 2.3 0 0 1 .529-.069 3.4 3.4 0 0 1 .601.028 3 3 0 0 1 .579.151q.304.112.674.274t.802.37q.432.206.801.428t.696.456.522.379.338.268a5 5 0 0 1 .368.365 3 3 0 0 1 .317.388 1.4 1.4 0 0 1 .145.297 2 2 0 0 1 .08.32 2 2 0 0 1 .029.324 1.2 1.2 0 0 1-.12.435 2.1 2.1 0 0 1-.359.553 10 10 0 0 1-.833.8q-.595.529-.89.803t-.453.394a3 3 0 0 1-.329.216 4 4 0 0 1-.527.223 5 5 0 0 1-.558.172q-.201.045-.386.072a3 3 0 0 1-.42.03 2 2 0 0 1-.418-.038 3 3 0 0 1-.35-.1.5.5 0 0 1-.205-.108q-.036-.046-.007-.072a2.6 2.6 0 0 1 .591-.102M320.56 373.747q-.214-.261-.174-.105l.142.567q.114.454.202.783.089.33.206.743t.264.897.342.988.393.904q.198.399.394.754t.387.664a4 4 0 0 0 .354.502 1.4 1.4 0 0 0 .373.315 1.6 1.6 0 0 0 .493.183 3 3 0 0 0 .562.062 1.5 1.5 0 0 0 .529-.088 2 2 0 0 0 .469-.246 2.3 2.3 0 0 0 .402-.368 5 5 0 0 0 .391-.525q.208-.313.452-.721t.438-.806a5.7 5.7 0 0 0 .338-.864 7 7 0 0 0 .22-1.049 11 11 0 0 0 .095-1.15q.015-.569.017-2.045t-.006-1.563a.2.2 0 0 0-.048-.126q-.06-.056-.151.07M365.306 384.532a2 2 0 0 0-.414-.384 3 3 0 0 0-.246-.129q-.131-.06-.071-.12a.5.5 0 0 1 .17-.098 2 2 0 0 1 .25-.073 3 3 0 0 1 .308-.05q.169-.017.393-.02a3 3 0 0 1 .506.046 5 5 0 0 1 .667.17q.387.124.834.315t.911.405.966.45a8 8 0 0 1 .954.53 5 5 0 0 1 .77.603 7 7 0 0 1 .574.635 4 4 0 0 1 .43.663 1.8 1.8 0 0 1 .202.68 2.1 2.1 0 0 1-.067.7 2.4 2.4 0 0 1-.3.678 5.3 5.3 0 0 1-.726.83q-.52.51-.78.762a4 4 0 0 1-.57.46 3.7 3.7 0 0 1-.707.362 7 7 0 0 1-.777.255 4.6 4.6 0 0 1-.701.134q-.319.032-.666.042t-.915.01q-.566.002-.696.01a2 2 0 0 0-.2.02l-.1.02M416.334 346.6a1.2 1.2 0 0 0-.225-.255q-.063-.048-.058.103t.151 1.106.216 1.395.152.912q.083.473.184.993t.231 1.058a6.3 6.3 0 0 0 .295.94 2.8 2.8 0 0 0 .387.68 2.5 2.5 0 0 0 .498.477 2 2 0 0 0 .552.288 2 2 0 0 0 .522.097 1.3 1.3 0 0 0 .493-.08 2.5 2.5 0 0 0 .533-.281 8 8 0 0 0 .612-.463 5.5 5.5 0 0 0 .62-.606 4 4 0 0 0 .507-.733 7 7 0 0 0 .385-.874q.172-.478.315-1.018a7 7 0 0 0 .2-1.18q.057-.64.051-1.34a12 12 0 0 0-.102-1.43q-.096-.731-.196-1.314t-.128-.99-.031-.587-.007-.138l-.019.21a5 5 0 0 0-.014.589M469.777 349.117q.058-.034.205.051a2.5 2.5 0 0 0 .418.154q.32.098.645.165t.81.152.99.183 1.027.213 1.06.251a10 10 0 0 1 .953.288 7 7 0 0 1 .762.33q.35.18.686.396a2.8 2.8 0 0 1 .556.452 1.4 1.4 0 0 1 .31.512 1.5 1.5 0 0 1 .082.536 1.06 1.06 0 0 1-.157.51 3.5 3.5 0 0 1-.418.543 5 5 0 0 1-.582.547q-.314.253-.918.673a10 10 0 0 1-.902.577 7 7 0 0 1-.644.295q-.346.138-.685.299t-.587.295-.474.238a4 4 0 0 1-.479.182 3.4 3.4 0 0 1-.456.112 3 3 0 0 1-.455.037.4.4 0 0 1-.364-.169M470.284 303.117a2.4 2.4 0 0 1 .473-.25 3 3 0 0 1 .307-.08 3 3 0 0 1 .453-.058q.267-.018.599-.024t.673-.007q.34 0 .65.025t.7.074q.39.05.787.108t.76.144a3.5 3.5 0 0 1 .71.251 4 4 0 0 1 .638.378 5 5 0 0 1 .536.452 2.8 2.8 0 0 1 .42.512 1.6 1.6 0 0 1 .224.525 3 3 0 0 1 .058.537 2.5 2.5 0 0 1-.074.615 3.2 3.2 0 0 1-.208.611 3.3 3.3 0 0 1-.31.535 3.6 3.6 0 0 1-.432.495 6 6 0 0 1-.524.452q-.273.211-.551.437t-.578.446a4.6 4.6 0 0 1-.624.385 6 6 0 0 1-.693.3q-.37.136-.729.25t-.644.183q-.284.069-.581.112t-.589.066a5.5 5.5 0 0 1-1.07-.047M507.388 319.12a1.3 1.3 0 0 0-.4-.3.8.8 0 0 0-.324-.1.17.17 0 0 0-.192.092 1.1 1.1 0 0 0-.047.355 2.2 2.2 0 0 0 .034.46q.04.206.104.46t.274.934q.208.681.363 1.157t.463 1.44.472 1.42a6 6 0 0 0 .347.79 3.5 3.5 0 0 0 .404.6 3 3 0 0 0 .485.466 2.2 2.2 0 0 0 .52.306 1.63 1.63 0 0 0 .936.104 1.4 1.4 0 0 0 .488-.207 6 6 0 0 0 .576-.423 5 5 0 0 0 .618-.603 4.3 4.3 0 0 0 .534-.764 7.4 7.4 0 0 0 .43-.942q.2-.523.358-1.09a7.3 7.3 0 0 0 .225-1.165q.067-.599.077-1.155t.001-.988a6 6 0 0 0-.054-.724q-.045-.291-.088-.503a1.4 1.4 0 0 0-.086-.302.23.23 0 0 0-.162-.119q-.17-.042-.386.276M551.34 293.078a.32.32 0 0 1 .042-.19.3.3 0 0 1 .1-.097.7.7 0 0 1 .193-.079 2 2 0 0 1 .338-.054q.214-.021.558-.03t.79-.015.864-.005.894.04.982.111a4.7 4.7 0 0 1 .854.19 3.2 3.2 0 0 1 .637.296 4.4 4.4 0 0 1 .556.403 2.5 2.5 0 0 1 .421.446 1.7 1.7 0 0 1 .225.433 1.5 1.5 0 0 1 .077.427.9.9 0 0 1-.08.402 1.7 1.7 0 0 1-.256.386 4 4 0 0 1-.413.408 4 4 0 0 1-.5.375q-.256.165-.508.307t-.538.286a7 7 0 0 1-.599.262q-.312.119-1.018.342t-.987.315q-.282.09-.543.164t-.622.166-.302.162M551.727 325.974a.5.5 0 0 1 .388-.226 3 3 0 0 1 .278-.02 3 3 0 0 1 .482.083 6 6 0 0 1 .65.174 5 5 0 0 1 .588.248q.314.156.71.388t.843.52.851.612a9 9 0 0 1 .742.654 8 8 0 0 1 .598.655 5 5 0 0 1 .46.68 3.6 3.6 0 0 1 .301.7 2.6 2.6 0 0 1 .114.644 1.6 1.6 0 0 1-.115.632 3 3 0 0 1-.36.66 4 4 0 0 1-.524.598q-.289.27-.575.497t-.58.424a4 4 0 0 1-.637.345q-.34.148-1.072.403t-1.05.338q-.318.084-.684.146-.366.063-.643.083c-.277.02-.372.023-.561.027a1.3 1.3 0 0 1-.317-.012q-.044-.025.258-.187M508.155 373.463a.6.6 0 0 0-.11-.222l-.074-.1q-.013-.02.008.042l.117.334q.095.272.158.473t.209.75.25.926.344 1.225q.24.847.379 1.32t.263.845q.126.374.365 1.042t.344.89a2.3 2.3 0 0 0 .231.394 1.3 1.3 0 0 0 .313.298 1.5 1.5 0 0 0 .437.202 3 3 0 0 0 .564.107q.315.032.648.036a2.4 2.4 0 0 0 .595-.062 3.4 3.4 0 0 0 .583-.21q.32-.147.74-.377a4.5 4.5 0 0 0 .769-.53 5.4 5.4 0 0 0 .672-.696q.321-.396.683-.834t.702-.921a6 6 0 0 0 .598-1.063 7.5 7.5 0 0 0 .415-1.208 9 9 0 0 0 .224-1.278q.066-.648.076-1.22a9 9 0 0 0-.042-1.06 7 7 0 0 0-.115-.774 4 4 0 0 0-.112-.426 1.3 1.3 0 0 0-.087-.204.13.13 0 0 0-.116-.068q-.112-.006-.315.254M471.49 393.828q-.083-.253.105-.278a1.3 1.3 0 0 1 .25-.01 5 5 0 0 1 .605.127q.489.119.867.224t.753.234.76.268.81.289.79.302a7 7 0 0 1 .654.31q.288.158.82.496t.777.513a2.6 2.6 0 0 1 .42.369 1.3 1.3 0 0 1 .253.385 1.4 1.4 0 0 1 .097.41 3 3 0 0 1 .01.44 1.8 1.8 0 0 1-.089.474 3 3 0 0 1-.22.507 2.3 2.3 0 0 1-.34.468 3.4 3.4 0 0 1-.464.407 7 7 0 0 1-.573.374q-.31.181-.571.31a5 5 0 0 1-.535.228 4 4 0 0 1-.633.167 5 5 0 0 1-.716.082q-.355.014-.663.011a8 8 0 0 1-.855-.067q-.547-.064-.777-.082t-.504-.023l-.304-.005q-.03 0-.013-.008l.33-.143M551.26 381.814a.8.8 0 0 1 .106-.31.54.54 0 0 1 .245-.11 3 3 0 0 1 .356-.08q.153-.022.388-.04c.235-.017.34-.02.555-.025s.436-.01.665-.01a4.4 4.4 0 0 1 .69.053 7 7 0 0 1 .737.16 8 8 0 0 1 .783.26 6 6 0 0 1 .748.357 4.4 4.4 0 0 1 .649.449 5 5 0 0 1 .527.508q.234.263.434.522a5 5 0 0 1 .347.515 2 2 0 0 1 .213.486 2.2 2.2 0 0 1 .076.505 2.6 2.6 0 0 1-.05.586 2 2 0 0 1-.205.583 3 3 0 0 1-.358.522q-.212.25-.462.494t-.703.712a8 8 0 0 1-.68.65 3 3 0 0 1-.509.329 6 6 0 0 1-.595.266q-.315.12-.562.192t-.443.116-.38.073a4 4 0 0 1-.55.033 1.1 1.1 0 0 1-.553-.108M597.003 347.168a1.6 1.6 0 0 1 .137-.367l.02.108a7 7 0 0 1 .017.694q0 .608.005.839t.026.526.06.635.088.653c.05.313.096.509.188.899s.16.669.205.837.094.327.146.478a4 4 0 0 0 .176.432 3 3 0 0 0 .208.37q.11.164.235.318a4 4 0 0 0 .365.38q.24.228.378.336a2.5 2.5 0 0 0 .284.195 2.3 2.3 0 0 0 .323.156 3 3 0 0 0 .39.12 3 3 0 0 0 .429.07q.216.02.424.021a3 3 0 0 0 .411-.022 5 5 0 0 0 .642-.15l1.02-.294q.582-.167 1.045-.338t.946-.33q.484-.16.753-.262a4 4 0 0 0 .471-.21 1.8 1.8 0 0 0 .355-.243 3 3 0 0 0 .294-.308 2 2 0 0 0 .244-.369 4 4 0 0 0 .197-.457 4 4 0 0 0 .156-.57 4 4 0 0 0 .072-.628q.01-.319-.002-.709a6 6 0 0 0-.097-.864 9 9 0 0 0-.197-.87q-.113-.396-.347-1.1t-.317-.934-.198-.49a3 3 0 0 0-.174-.352.5.5 0 0 0-.088-.114l-.031-.025M655.149 348.958a.45.45 0 0 1 .335-.21 3 3 0 0 1 .348-.053q.176-.016 1.557-.017t1.728.01q.348.01.765.044t.787.09a6 6 0 0 1 .666.142 5 5 0 0 1 .576.205 3 3 0 0 1 .495.265 2.5 2.5 0 0 1 .401.332 2 2 0 0 1 .324.442 2 2 0 0 1 .193.494 2.7 2.7 0 0 1 .062.48 4 4 0 0 1-.018.505 2.4 2.4 0 0 1-.118.524 5 5 0 0 1-.234.57 6.4 6.4 0 0 1-.764 1.216q-.21.258-.42.496t-.427.488-.43.465a3.4 3.4 0 0 1-.495.406 6 6 0 0 1-.611.364q-.333.173-.613.288t-.518.198a4 4 0 0 1-.49.138 3.4 3.4 0 0 1-.503.071q-.251.017-.499.018t-.445-.009a1.4 1.4 0 0 1-.317-.047.44.44 0 0 1-.268-.23M656.23 394.836a1 1 0 0 0 .11-.288.18.18 0 0 1 .138-.142 1.3 1.3 0 0 1 .329-.023 2.3 2.3 0 0 1 .41.047q.194.04.435.109t.51.154q.268.087.872.296t.952.338a7 7 0 0 1 .672.29 2.4 2.4 0 0 1 .537.348 1.5 1.5 0 0 1 .33.413 2.2 2.2 0 0 1 .183.465 2.4 2.4 0 0 1 .08.48q.015.24.012.437a1.3 1.3 0 0 1-.06.382 2.4 2.4 0 0 1-.157.375q-.1.191-.246.415a4 4 0 0 1-.318.422 5 5 0 0 1-.397.401 5 5 0 0 1-.496.389q-.27.186-.898.565t-.81.47a3 3 0 0 1-.404.164 4 4 0 0 1-.481.128 3 3 0 0 1-.472.063q-.211.008-.376.006a1.3 1.3 0 0 1-.285-.032.8.8 0 0 1-.214-.08q-.14-.079-.138-.17M655.803 300.362q-.436.148-.481.16l-.036.008h.012l.17-.01q.158-.01.446-.053t.502-.056q.214-.013.466-.015a4 4 0 0 1 .563.042 6 6 0 0 1 .727.159 8 8 0 0 1 .862.297 9 9 0 0 1 .852.396q.406.215.79.438t.728.429.632.409a3.5 3.5 0 0 1 .495.414 1.7 1.7 0 0 1 .318.447 3 3 0 0 1 .188.515 5 5 0 0 1 .12.569 5 5 0 0 1 .051.56 4 4 0 0 1-.022.541 3 3 0 0 1-.36 1.099 2.1 2.1 0 0 1-.35.455 2.5 2.5 0 0 1-.522.387 5 5 0 0 1-.714.33q-.4.15-.81.295t-.85.285q-.437.14-.901.248t-.883.186a7 7 0 0 1-.694.101 7 7 0 0 1-.507.025 3 3 0 0 1-.427-.026.52.52 0 0 1-.373-.163M693.494 319.117a.31.31 0 0 0-.145-.223 1 1 0 0 0-.24-.108q-.16-.054-.191.008a.8.8 0 0 0-.046.255q-.013.193-.013.535a8 8 0 0 0 .082.974q.082.632.141 1.038t.115.835q.056.43.115.867t.13.816q.07.378.16.693a5 5 0 0 0 .205.586q.116.271.24.503t.254.46a2.5 2.5 0 0 0 .254.374 1.2 1.2 0 0 0 .28.242 1.3 1.3 0 0 0 .365.15 2.2 2.2 0 0 0 .445.061 3 3 0 0 0 .503-.022 2.1 2.1 0 0 0 .542-.143 2.2 2.2 0 0 0 .507-.286 6 6 0 0 0 .509-.439q.276-.262.63-.582t.67-.623a6 6 0 0 0 .58-.64 7 7 0 0 0 .517-.765q.253-.426.467-.828t.409-.804a8 8 0 0 0 .346-.835 7 7 0 0 0 .23-.777q.08-.345.124-.642.045-.297.07-.585c.025-.288.028-.428.032-.707a2.2 2.2 0 0 0-.032-.544.4.4 0 0 0-.093-.172.53.53 0 0 0-.26-.062.214.214 0 0 0-.255.169M736.47 292.376q3.418-.016 3.985.02.396.026.776.071t.72.116.66.17a4 4 0 0 1 .585.228 1.8 1.8 0 0 1 .416.268 1.5 1.5 0 0 1 .257.303 2 2 0 0 1 .177.346 1.3 1.3 0 0 1 .089.347 3 3 0 0 1 .012.34 1.2 1.2 0 0 1-.078.372 3 3 0 0 1-.18.39 3 3 0 0 1-.25.38 5 5 0 0 1-.322.379 2.5 2.5 0 0 1-.398.343 4 4 0 0 1-.517.293q-.298.142-.66.285t-.69.262-.675.224-.767.201q-.419.097-.754.156t-.56.085-.357.027q-.187.003-.172-.144M737.75 326.233q-.258.03-.26-.061-.003-.066.095-.117a1.3 1.3 0 0 1 .283-.1 4 4 0 0 1 .677-.113q.198-.017.483-.026c.285-.009.413-.008.669-.009s.52.01.791.031a8 8 0 0 1 .868.118q.46.087.954.214a7 7 0 0 1 .888.283q.394.157.756.326t.682.327q.319.158.598.32a3.5 3.5 0 0 1 .482.333 1.04 1.04 0 0 1 .28.336 1.1 1.1 0 0 1 .1.339 3 3 0 0 1 .022.367 1 1 0 0 1-.063.36 1.8 1.8 0 0 1-.167.335 4 4 0 0 1-.275.371 2.3 2.3 0 0 1-.397.375 4 4 0 0 1-.516.324q-.288.154-.6.324t-.577.33-.545.328a6 6 0 0 1-.646.33q-.365.165-.718.286t-.656.212q-.304.09-.593.154a5 5 0 0 1-.543.087q-.254.024-.701.042t-.649.04a1.1 1.1 0 0 0-.296.063.3.3 0 0 0-.136.098M782.197 347.09a3 3 0 0 1 .074-.324l.025-.074q.003-.008.003.044v.5q0 .45.003.638.004.187.018.414c.014.227.039.433.084.843s.084.713.113.908.059.379.09.554.068.352.11.532.093.38.156.599.132.43.206.631a4 4 0 0 0 .19.452 3 3 0 0 0 .167.276 2 2 0 0 0 .196.24 2 2 0 0 0 .23.205 3 3 0 0 0 .329.207q.208.115.436.227a2.6 2.6 0 0 0 .387.158 1.5 1.5 0 0 0 .307.06q.147.011.28.013a.8.8 0 0 0 .272-.045q.138-.047.524-.226t.61-.278q.222-.097.455-.208a5 5 0 0 0 .418-.222 2.8 2.8 0 0 0 .626-.514 3.4 3.4 0 0 0 .288-.38q.159-.237.34-.543t.298-.531.22-.478a4 4 0 0 0 .183-.563 4 4 0 0 0 .112-.681q.033-.372.04-.79t-.01-.826a7 7 0 0 0-.072-.767q-.054-.359-.104-.616t-.09-.43a2 2 0 0 0-.067-.242.14.14 0 0 0-.08-.088q-.053-.018-.05.033.002.072.29.201M838.452 303.415a.7.7 0 0 1 .295-.136 3 3 0 0 1 .294-.048q.179-.02.43-.032t.917-.01a10 10 0 0 1 1.12.057q.454.054.916.146t.676.154.412.134.58.237.581.275.378.228a1.9 1.9 0 0 1 .485.44 3 3 0 0 1 .22.338 4 4 0 0 1 .202.378 4 4 0 0 1 .124.325 2.4 2.4 0 0 1 .087.475q.03.302.03.46a.9.9 0 0 1-.05.298 1.7 1.7 0 0 1-.231.385 3 3 0 0 1-.303.362q-.122.115-.256.22a6 6 0 0 1-.482.315q-.348.212-.615.345t-.498.232q-.23.1-.63.254t-.788.284q-.388.13-.784.226t-.695.136q-.298.042-.573.055t-.237-.144M839.336 352.403a.3.3 0 0 1-.197-.047q-.035-.03.016-.063a.6.6 0 0 1 .21-.049q.156-.016.48-.017.324 0 .611.017c.287.017.417.031.676.06s.523.061.792.103.548.086.835.135.583.105.888.167.573.129.809.197a3.6 3.6 0 0 1 .608.233 2.7 2.7 0 0 1 .454.285 2.4 2.4 0 0 1 .343.323 2.5 2.5 0 0 1 .25.348 1.4 1.4 0 0 1 .155.369 1.3 1.3 0 0 1 .04.364.8.8 0 0 1-.104.36q-.098.183-.416.64t-.5.686q-.18.228-.357.43t-.345.367a4 4 0 0 1-.372.317q-.203.152-.464.311t-.54.311-.542.32-.5.333q-.236.166-.446.3a3 3 0 0 1-.432.227 4 4 0 0 1-.438.159 2 2 0 0 1-.378.077 3 3 0 0 1-.274.012.36.36 0 0 1-.184-.046.24.24 0 0 1-.097-.098.86.86 0 0 1 .031-.396M876.342 319.926a3 3 0 0 1-.188-.541q-.012-.087-.051-.086t-.082.214a4 4 0 0 0-.064.426q-.02.212-.032.48t-.018.555-.006.624.02.737q.022.4.071.785t.126.74.184.702a5 5 0 0 0 .24.638 5 5 0 0 0 .293.542 4 4 0 0 0 .346.467 2.7 2.7 0 0 0 .35.348 2 2 0 0 0 .34.218 2.3 2.3 0 0 0 .406.148 2.4 2.4 0 0 0 .514.075q.281.013.614.008a3 3 0 0 0 .66-.085 3.4 3.4 0 0 0 .598-.203 7 7 0 0 0 .596-.314q.328-.193.709-.46a3.7 3.7 0 0 0 .665-.595 4 4 0 0 0 .502-.72 7 7 0 0 0 .39-.852 6 6 0 0 0 .279-1.008 10 10 0 0 0 .146-1.096q.044-.547.05-1.022t-.004-.796a4 4 0 0 0-.05-.515 2 2 0 0 0-.077-.302.44.44 0 0 0-.13-.186.5.5 0 0 0-.137-.093l-.057-.02M921.494 327.253q-.115-.003-.142-.082-.018-.056.138-.11a2 2 0 0 1 .341-.083q.186-.029.453-.042t.612-.019a7 7 0 0 1 .732.031 4.2 4.2 0 0 1 .764.144 8 8 0 0 1 .805.283q.426.176.85.401a5 5 0 0 1 .72.453 5 5 0 0 1 .51.452 4 4 0 0 1 .374.444 1.4 1.4 0 0 1 .216.43 1.7 1.7 0 0 1 .062.449 1.2 1.2 0 0 1-.106.486 1.6 1.6 0 0 1-.297.45 4 4 0 0 1-.414.383q-.224.178-.478.343a4 4 0 0 1-.564.305q-.309.139-.677.275t-.728.278-.646.273-.58.238a6 6 0 0 1-.613.19 5 5 0 0 1-.57.109q-.25.03-.417.033a.54.54 0 0 1-.43-.217M921.737 293.102q.005-.252.102-.313a.7.7 0 0 1 .284-.06q.216-.017.428-.017t.493.021q.284.022.584.07t.625.126q.324.077.704.186a8 8 0 0 1 .755.258 5 5 0 0 1 .725.364 3 3 0 0 1 .591.464 6 6 0 0 1 .443.517q.2.265.37.536a2.3 2.3 0 0 1 .241.489 1.7 1.7 0 0 1 .082.433 1.4 1.4 0 0 1-.064.464 1.5 1.5 0 0 1-.229.456 2.6 2.6 0 0 1-.362.394q-.208.186-.441.359t-.458.309a5 5 0 0 1-.503.264q-.28.128-.649.26t-.714.232-.655.18-.64.136a5 5 0 0 1-.616.068q-.287.012-.516.014a1.4 1.4 0 0 1-.694-.2M877.177 373.712a.2.2 0 0 0-.063-.144.2.2 0 0 0-.102-.055q-.061-.015-.072.162t-.012.46.012.677.027.68q.016.287.045.603t.084.671.127.743.166.735a7 7 0 0 0 .217.673 4 4 0 0 0 .296.62 2.3 2.3 0 0 0 .362.486 2.2 2.2 0 0 0 .426.33 5 5 0 0 0 .484.252q.25.114.464.193a3 3 0 0 0 .451.132 4 4 0 0 0 .54.07q.304.02.636.01a2.8 2.8 0 0 0 .644-.092 4 4 0 0 0 .616-.217q.304-.134.658-.306t.76-.386a6.5 6.5 0 0 0 .76-.466 4.6 4.6 0 0 0 .64-.55q.287-.298.577-.659t.563-.737a4.3 4.3 0 0 0 .45-.775 4 4 0 0 0 .271-.893 8 8 0 0 0 .124-1.023q.031-.527.01-1.065a7 7 0 0 0-.114-1.026 5 5 0 0 0-.22-.828 1.9 1.9 0 0 0-.266-.51 1.3 1.3 0 0 0-.26-.253.8.8 0 0 0-.241-.114q-.17-.045-.198.151M922.105 386.707q-.11-.3.145-.333a2.3 2.3 0 0 1 .382-.017 1.5 1.5 0 0 1 .315.037q.114.029.55.196t1.064.438q.63.27.863.382t.436.217q.201.105.582.328t.743.456.54.369.315.26a2.5 2.5 0 0 1 .315.355 3 3 0 0 1 .247.373 1.3 1.3 0 0 1 .094.458 1.5 1.5 0 0 1-.051.552 2.7 2.7 0 0 1-.225.505 3 3 0 0 1-.266.41 3 3 0 0 1-.407.375 6 6 0 0 1-.485.357q-.194.124-.544.32t-.668.361-.683.32-.792.306q-.427.151-.79.264t-.538.152a3 3 0 0 1-.333.059 5 5 0 0 1-.46.02 4 4 0 0 1-.462-.017 2 2 0 0 1-.29-.052 3 3 0 0 1-.345-.12 2.5 2.5 0 0 1-.663-.418M839.334 395.395q-.085 0-.175-.187c-.09-.187-.028-.2.099-.226a2 2 0 0 1 .412-.04q.22-.002.506.016c.286.018.336.024.44.037s.34.053.702.119.859.144 1.486.235 1.084.155 1.37.192.583.08.896.13a6 6 0 0 1 .807.175 3 3 0 0 1 .48.175 2 2 0 0 1 .25.155 2 2 0 0 1 .286.278 3 3 0 0 1 .254.31 2 2 0 0 1 .122.215 1.7 1.7 0 0 1 .095.298 2 2 0 0 1 .053.426 1 1 0 0 1-.085.427 4 4 0 0 1-.243.445q-.152.245-.347.54t-.4.56q-.206.267-.33.4a3 3 0 0 1-.259.248 4 4 0 0 1-.459.31q-.325.195-.519.286t-.713.284q-.518.192-.881.297t-.736.184q-.375.08-.694.156a5 5 0 0 0-.536.155 1.6 1.6 0 0 0-.354.176 1.2 1.2 0 0 0-.194.16q-.055.063-.037.056l.16-.065M737.412 383.348q-.062-.353.535-.344a20 20 0 0 1 1.999.198q1.402.189 1.806.265t.785.182.685.221a5 5 0 0 1 .554.253 4 4 0 0 1 .631.457 3 3 0 0 1 .605.672 2.2 2.2 0 0 1 .299.7 3.3 3.3 0 0 1 .071.742 1.6 1.6 0 0 1-.272.82 5.7 5.7 0 0 1-.682.87 8 8 0 0 1-.675.658 6 6 0 0 1-.534.396 6 6 0 0 1-.571.33q-.3.151-.656.289a8 8 0 0 1-1.097.302 14 14 0 0 1-1.395.239 9 9 0 0 1-1.156.069q-.499-.006-.568-.103-.097-.136.555-.426M691.453 374.346q-.321.122-.322-.096l-.001-.165q0-.008.006.023c.006.03.052.231.139.63s.186.804.294 1.215.199.73.27.958.192.555.367.983.304.731.389.91a4 4 0 0 0 .28.508 3 3 0 0 0 .302.404 1.5 1.5 0 0 0 .313.269 1.4 1.4 0 0 0 .347.158 2.2 2.2 0 0 0 .6.043 2.1 2.1 0 0 0 .678-.11 6 6 0 0 0 .786-.414 7 7 0 0 0 .817-.553 6 6 0 0 0 .548-.516 6 6 0 0 0 .496-.609 8 8 0 0 0 .445-.696 5 5 0 0 0 .344-.739 8 8 0 0 0 .281-1.126 9.5 9.5 0 0 0 .163-1.637q.016-.884.007-1.637a1.86 1.86 0 0 1 .209-1.06M1105.093 291.558a1 1 0 0 0-.015-.304 2 2 0 0 0-.056-.217q-.036-.105.077-.1a2 2 0 0 1 .344.059q.232.053.434.105t.47.127q.265.076.541.163t1.018.311M99.782 399.75q-.587.067-.722.07l-.19.003q-.055.001 0-.041l.317-.25M285.761 393.693l-.399-.118h-.001l.076.025 1.492.491q1.406.462 3.04.979a17 17 0 0 1 2.227.817 6 6 0 0 1 .813.467 1.2 1.2 0 0 1 .36.473 1.64 1.64 0 0 1 .106.795 1.6 1.6 0 0 1-.243.795 3 3 0 0 1-.555.604 2.6 2.6 0 0 1-.831.466 17 17 0 0 1-1.887.445q-1.404.276-2.706.642t-1.742.521-.412.119l.267-.325M98.663 400.436q-.223-.255-.37-.397a.3.3 0 0 0-.162-.102q-.061-.005-.111.163a4 4 0 0 0-.098.533q-.048.365-.064.905a17 17 0 0 0 .056 1.836M285.205 308.724a3 3 0 0 0-.664-.145.7.7 0 0 0-.246.031.7.7 0 0 0-.217.145 2.5 2.5 0 0 0-.268.303 3 3 0 0 0-.293.475 5 5 0 0 0-.276.654 8 8 0 0 0-.233.797 7 7 0 0 0-.144.787 7 7 0 0 0 .06 1.521M283.241 295.452l-.068-.135q-.006-.011-.006.004l.002.098a4.4 4.4 0 0 0 .152.604q.152.521.279.903t.284.793q.228.593 1.01 2.147M283.573 343.081a.45.45 0 0 0-.24-.025.27.27 0 0 0-.137.115 1 1 0 0 0-.127.254 2.4 2.4 0 0 0-.094.365 4 4 0 0 0-.054.498q-.015.288-.017.644t.014.703a4.8 4.8 0 0 0 .283 1.276" class="d"/><path d="M332.767 313.67a8.5 8.5 0 0 0-1.121.47q-.814.385-1.191.584t-.559.318q-.18.119-.348.253a3.4 3.4 0 0 0-.326.296 3 3 0 0 0-.287.345q-.129.182-.243.375t-.214.381a4 4 0 0 0-.162.35 1.4 1.4 0 0 0-.048.654M320.174 373.137a.63.63 0 0 0-.062-.351.9.9 0 0 0-.155-.23 3 3 0 0 0-.238-.22q-.14-.115-.464-.336t-.498-.321a2 2 0 0 0-.31-.15 1 1 0 0 0-.26-.06.83.83 0 0 0-.497.227M364.103 322.516l-.045-.173q-.002-.007-.002.045V323q0 .561.012 1.076a13 13 0 0 0 .15 1.62M363.412 336.833q-.203-.135-.16.1a5 5 0 0 0 .137.511q.105.34.284 1.101t.254 1.15.086.501l.012.12v.002l-.001-.008-.026-.236q-.024-.223-.112-.757t-.128-.894-.047-.777.004-.513a.72.72 0 0 1 .307-.466 1 1 0 0 1 .345-.128 5 5 0 0 1 .488-.064q.28-.024.572-.035t.635-.041a5 5 0 0 0 .554-.078 2.8 2.8 0 0 0 .726-.297M364.393 297.576q-.222-.116-.326.025a.95.95 0 0 0-.115.387 7 7 0 0 0-.059.78q-.017.494-.018 1.278t.009.968q.013.265.242 1.59M422.969 342.863a.57.57 0 0 1 .003-.416 1.7 1.7 0 0 1 .343-.272q.292-.197.547-.337t.428-.221q.174-.082.574-.229.58-.212 2.082-.662M470.475 357.895a.65.65 0 0 0-.33-.144.13.13 0 0 0-.135.098 1.4 1.4 0 0 0-.063.278q-.025.176-.045.431t-.035.582q-.022.466.063 3.988M471.456 401.445a1.5 1.5 0 0 1-.02.435l-.028.104q-.003.01-.003-.007l-.004-.185q-.004-.168-.085-.195t-.34.236-.584.656-.502.63-.349.512a5.6 5.6 0 0 0-.485 1.054M550.245 376.47a.8.8 0 0 0-.133-.209q-.039-.034-.036.033a2 2 0 0 0 .092.365q.09.299.15.525t.176.74.18.804.113.585q.075.43.196 1.357M551.245 390.22q.067-.335-.022-.401a.25.25 0 0 0-.159-.044.4.4 0 0 0-.24.158 2 2 0 0 0-.223.287q-.08.133-.168.316t-.182.414-.18.497a7.7 7.7 0 0 0-.292 1.208 5 5 0 0 0-.06.7q-.01.578.115.703M550.936 335.384a1.5 1.5 0 0 0-.471.023.26.26 0 0 0-.113.125 2 2 0 0 0-.124.36q-.075.262-.19.818t-.183.906q-.068.351-.137.798a3.2 3.2 0 0 0-.057.958M550.006 320.959q-.032.256-.026 1.3a9 9 0 0 0 .047.955q.042.338.118.679a10 10 0 0 0 .418 1.302M551.144 299.018a1.6 1.6 0 0 0-.663.162 2.2 2.2 0 0 0-.454.289 4 4 0 0 0-.328.292 2.4 2.4 0 0 0-.347.76M653.937 347.876a2 2 0 0 0-.108-.354 2 2 0 0 1-.102-.322 4 4 0 0 1-.042-.526 22 22 0 0 1-.012-.635 5 5 0 0 1 .03-.51 3.5 3.5 0 0 1 .271-.927M654.212 358.353q-.099.265-.196.573a3 3 0 0 0-.1.466q-.036.263-.049.578c-.013.315-.013.529-.014.955a8 8 0 0 0 .034.915q.034.275.092.548a4.5 4.5 0 0 0 .436 1.065M655.794 308.844a.5.5 0 0 0-.058-.302.24.24 0 0 0-.167-.099.34.34 0 0 0-.215.024 1.2 1.2 0 0 0-.221.144 2 2 0 0 0-.247.236 4 4 0 0 0-.244.307 4 4 0 0 0-.241.379 4 4 0 0 0-.214.45 4 4 0 0 0-.176.546 7 7 0 0 0-.13.658q-.054.354-.072.682t-.017.881a4 4 0 0 0 .045.738 3 3 0 0 0 .102.34.8.8 0 0 0 .13.238.5.5 0 0 0 .346.144M653.157 293.68a2 2 0 0 0-.396.301.8.8 0 0 0-.112.17 1.3 1.3 0 0 0-.083.221 1.8 1.8 0 0 0-.04.427 2.2 2.2 0 0 0 .043.51q.047.208.275.912t.387 1.114.458 1.05.434.908a4.3 4.3 0 0 0 .575.836M690.484 318.452a1.3 1.3 0 0 0 .323.603M702.002 317.727a.93.93 0 0 1-.187-.638 1.8 1.8 0 0 1 .018-.45 1.6 1.6 0 0 1 .097-.27 2 2 0 0 1 .15-.269 3 3 0 0 1 .196-.26 4 4 0 0 1 .26-.278q.152-.145.32-.283.17-.137.38-.278c.21-.141.303-.19.484-.287a4 4 0 0 1 .564-.25 9.6 9.6 0 0 1 1.302-.315M699.867 371.02a1.4 1.4 0 0 1 .092-.606.7.7 0 0 1 .177-.18 2 2 0 0 1 .458-.217 12 12 0 0 1 1.88-.422M735.971 322.425a1.8 1.8 0 0 0 .043.754q.066.344.15.914t.13.728a1.6 1.6 0 0 0 .332.539M737.005 298.512q.035-.1-.1-.115a.34.34 0 0 0-.178.024.8.8 0 0 0-.177.113 2 2 0 0 0-.225.214q-.124.135-.269.319t-.298.419-.309.535a4.5 4.5 0 0 0-.264.618 5 5 0 0 0-.17 1.438M737.887 391.085a.7.7 0 0 0-.166-.25 1 1 0 0 0-.164-.114 1 1 0 0 0-.277-.09 1.6 1.6 0 0 0-.324-.04 1 1 0 0 0-.31.057 1.4 1.4 0 0 0-.327.162q-.16.106-.345.253a3 3 0 0 0-.345.314 4 4 0 0 0-.306.362q-.148.195-.298.432a4 4 0 0 0-.254.468 6 6 0 0 0-.302.899M653.504 387.677q-.186.028-.218.309a1.1 1.1 0 0 0 .042.413q.063.22.114.424t.094.475.077.574.08.56a4 4 0 0 0 .116.474 3.7 3.7 0 0 0 .29.614q.22.394.297.55a4 4 0 0 1 .17.441q.095.287.174.472a2 2 0 0 0 .18.333 1 1 0 0 0 .243.249 3.4 3.4 0 0 0 .496.267q.553.259.885.404M656.165 402.559a2.6 2.6 0 0 0-.154-.426 2 2 0 0 0-.183-.33.45.45 0 0 0-.17-.146.4.4 0 0 0-.187-.036.7.7 0 0 0-.301.145q-.204.142-.424.319t-.39.331-.317.312-.294.342-.232.31a3.4 3.4 0 0 0-.242.466 4.5 4.5 0 0 0-.232.616q-.078.274-.136.552a5 5 0 0 0-.083.505 4 4 0 0 0-.026.391 2 2 0 0 0 .013.281.3.3 0 0 0 .082.185.63.63 0 0 0 .415.098M687.476 373.657a1.3 1.3 0 0 1 .086-.469.5.5 0 0 1 .133-.173.7.7 0 0 1 .224-.115 1.3 1.3 0 0 1 .35-.056 3 3 0 0 1 .422.008 1.5 1.5 0 0 1 .427.103 3 3 0 0 1 .434.221 2.2 2.2 0 0 1 .369.277 6 6 0 0 1 .47.537q.485.6.881 1.041M839.685 403.684a4 4 0 0 1 .19-.503.7.7 0 0 1 .102-.16l.05-.052-.006.01-.128.177q-.117.163-.38.495c-.263.332-.316.405-.424.553q-.234.318-1.208 1.567M921.013 382.415l-.029-.245v-.001.1a6 6 0 0 1-.078.58q-.078.485-.107.739t-.051.619q-.024.364-.025.742a4 4 0 0 0 .02.501 1.5 1.5 0 0 0 .163.39l.238.455a2 2 0 0 0 .168.28 1.8 1.8 0 0 0 .461.34M921.408 394.82a.4.4 0 0 0-.148-.283.33.33 0 0 0-.202-.052.27.27 0 0 0-.203.089 1.2 1.2 0 0 0-.16.234 3 3 0 0 0-.16.38 5 5 0 0 0-.142.518q-.062.287-.111.613t-.08.69a12 12 0 0 0 .05 1.745M837.149 297.124q-.241-.075-.244 1.693t.012 1.954a.9.9 0 0 0 .068.303.46.46 0 0 0 .192.2q.139.083.34.183a2.2 2.2 0 0 1 .432.293 2.8 2.8 0 0 0 .497.334M839.51 310.271a.4.4 0 0 0-.088-.3.17.17 0 0 0-.15-.062q-.084.011-.254.207t-.31.383-.509.733-.552.863q-.266.457-.81 1.71M920.66 324.392a1.2 1.2 0 0 0-.353.28 1 1 0 0 0-.14.313 2 2 0 0 0-.069.494 2.4 2.4 0 0 0 .018.43.8.8 0 0 0 .1.275 2 2 0 0 0 .176.245 4 4 0 0 0 .523.475" class="d"/><path d="M283.909 382.485v30.348h268.048V303.406z" class="e"/><path d="M468.367 386.393v30.348h268.048V307.315z" class="e"/><path d="M653.944 383.231v30.348h268.048V304.152z" class="e"/><path d="m288.2 382.655-3.325-97.013 266.547-2.435.593 20.257z" class="f"/><path d="m473.483 381.801-3.325-97.013 266.546-2.435.594 20.257z" class="f"/><path d="m658.976 383.313-3.325-97.014 266.547-2.434.593 20.257z" class="f"/></g></svg>