<svg width="640" height="300" viewBox="0 0 640 300" fill="none" xmlns="http://www.w3.org/2000/svg">
<g clip-path="url(#clip0_1514_10278)">
<path d="M640 0H0V360H640V0Z" fill="white"/>
<path d="M264.746 157.036L264.631 157.034L264.567 156.939C263.619 155.541 263.125 153.74 263.305 151.853C263.529 149.501 264.735 147.091 266.443 145.412C268.15 143.733 270.39 142.755 272.676 143.348C274.887 143.879 276.928 144.823 278.37 146.232C279.819 147.647 280.656 149.525 280.453 151.892V151.893C280.274 153.816 279.514 155.701 278.208 157.098L278.142 157.168L278.046 157.167L264.746 157.036Z" fill="white" stroke="black"/>
<path d="M240.771 157.167L240.656 157.166L240.592 157.071C239.645 155.672 239.15 153.872 239.33 151.984C239.555 149.628 240.59 147.794 242.217 146.402C243.839 145.015 246.041 144.074 248.598 143.479C250.99 142.91 253.072 143.884 254.492 145.575C255.908 147.261 256.68 149.67 256.478 152.023V152.025C256.299 153.947 255.539 155.833 254.233 157.229L254.167 157.299L254.071 157.298L240.771 157.167Z" fill="white" stroke="black"/>
<path d="M270.024 145.357C270.592 145.401 270.986 145.839 270.942 146.407C270.899 146.976 270.374 147.457 269.761 147.457C269.192 147.457 268.755 146.976 268.799 146.407C268.842 145.839 269.367 145.357 269.98 145.357H270.024L268.799 144.92C266.917 144.92 265.299 146.451 265.124 148.289C264.949 150.126 266.349 151.657 268.186 151.657C270.067 151.657 271.686 150.126 271.861 148.289C272.036 146.407 270.636 144.92 268.799 144.92" fill="black"/>
<path d="M246.723 145.357C247.292 145.401 247.685 145.839 247.642 146.407C247.598 146.976 247.073 147.457 246.46 147.457C245.892 147.457 245.454 146.976 245.498 146.407C245.542 145.839 246.067 145.357 246.679 145.357H246.723L245.498 144.92C243.617 144.92 241.998 146.451 241.823 148.289C241.648 150.126 243.048 151.657 244.885 151.657C246.767 151.657 248.385 150.126 248.56 148.289C248.735 146.407 247.335 144.92 245.498 144.92" fill="black"/>
<path d="M270.042 170.205H241.867C243.704 198.117 244.754 216.317 241.298 236.267C240.685 239.767 235.96 266.673 225.767 266.673C220.517 266.673 216.885 261.948 217.629 257.705C217.848 256.48 217.935 255.955 220.342 252.236C230.098 235.042 233.817 213.605 234.123 211.855C234.385 210.367 237.492 192.648 236.179 170.248H208.267C205.029 170.248 198.598 169.067 199.954 161.105C202.579 145.967 211.023 156.905 215.485 156.905L290.342 156.773C296.073 156.773 308.323 158.655 313.529 150.517C319.173 141.723 323.11 151.305 322.848 152.792C322.585 154.28 322.41 158.261 319.829 161.017C318.035 162.942 314.579 165.13 312.698 166.005C303.204 170.467 296.16 170.205 289.948 170.205H275.773C278.004 188.886 280.41 210.586 293.229 254.205C294.542 258.186 294.454 258.711 294.192 260.198C293.273 265.448 288.592 266.673 286.317 266.673C279.098 266.673 278.223 260.198 277.085 249.742C275.335 237.011 275.423 236.53 274.679 226.555L270.042 170.205Z" fill="#0C7F99"/>
<path d="M265.71 167.098C264.048 166.792 264.31 166.923 259.235 166.879C254.729 166.836 254.773 166.354 252.935 167.011L253.548 165.217C255.342 164.473 257.66 163.729 260.023 163.729C261.729 163.729 263.698 164.211 265.973 165.129" fill="black"/>
<path d="M541.773 154.274L541.686 154.264L541.628 154.197C540.569 152.954 539.916 151.469 539.916 149.837C539.916 145.774 543.869 142.573 548.659 142.619C553.448 142.619 557.401 145.819 557.401 149.882C557.401 150.748 556.951 151.9 556.376 152.959C555.798 154.025 555.068 155.042 554.466 155.645L554.39 155.721L554.282 155.709L541.773 154.274Z" fill="white" stroke="black"/>
<path d="M517.555 155.037L517.445 155.042L517.373 154.958C516.841 154.333 516.314 153.461 515.92 152.548C515.527 151.637 515.257 150.664 515.257 149.836C515.257 145.773 519.212 142.573 524.045 142.573C528.834 142.573 532.787 145.774 532.787 149.836C532.787 151.51 532.136 153.091 530.929 154.299L530.868 154.36L530.781 154.364L517.555 155.037Z" fill="white" stroke="black"/>
<path d="M544.668 145.442C545.251 145.487 545.699 145.845 545.699 146.338C545.699 146.832 545.206 147.235 544.623 147.235C544.04 147.235 543.547 146.832 543.547 146.338C543.547 145.845 544.04 145.442 544.668 145.442L543.368 145.083C541.44 145.083 539.915 146.338 539.915 147.952C539.915 149.522 541.485 150.822 543.368 150.822C545.251 150.822 546.82 149.566 546.82 147.952C546.82 146.383 545.251 145.083 543.368 145.083" fill="black"/>
<path d="M520.746 145.442C521.329 145.487 521.777 145.845 521.777 146.338C521.777 146.832 521.284 147.235 520.701 147.235C520.119 147.235 519.625 146.832 519.625 146.338C519.625 145.845 520.119 145.442 520.701 145.442H520.746L519.446 145.083C517.518 145.083 515.994 146.338 515.994 147.952C515.994 149.522 517.563 150.822 519.446 150.822C521.329 150.822 522.898 149.566 522.898 147.952C522.898 146.383 521.329 145.083 519.446 145.083" fill="black"/>
<path d="M550.093 167.725H521.22C528.125 196.329 532.474 214.98 532.474 235.424C532.474 239.011 532.474 266.583 521.982 266.583C516.602 266.583 512.029 261.741 512.029 257.392C512.029 256.137 512.029 255.599 513.823 251.788C520.727 234.169 520.727 212.2 520.727 210.407C520.727 208.882 520.727 190.725 515.347 167.77L486.743 176.288C483.425 176.288 474.772 176.288 474.997 168.128C475.131 163.152 481.856 162.031 487.685 160.641C499.341 157.817 536.06 146.249 570.537 160.327C575.245 162.255 582.374 162.838 594.793 175.481C601.787 182.565 609.588 196.418 609.588 197.943C609.588 199.467 608.332 200.005 606.763 200.005C604.97 200.005 604.701 199.243 603.446 197.719C590.175 176.781 576.59 172.881 569.865 170.998L555.922 167.814C561.526 186.959 567.937 209.196 588.875 253.895C590.937 257.975 590.937 258.513 590.937 260.038C590.937 265.418 586.319 266.673 584.032 266.673C576.635 266.673 574.573 260.038 571.524 249.322C567.444 236.276 567.444 235.783 564.888 225.56L550.093 167.725Z" fill="#0D75A6"/>
<path d="M537.316 164.138C536.329 164.138 536.957 164.183 534.895 164.138C533.056 164.093 532.698 164.093 532.115 164.048L532.16 162.658C532.832 162.703 533.819 162.748 534.805 162.748C535.477 162.748 536.329 162.748 537.405 162.748" fill="black"/>
<path d="M399.883 149.479L399.778 149.478L399.708 149.401C398.573 148.168 397.873 146.627 397.873 144.977C397.873 142.884 398.979 141.432 400.71 140.554C402.426 139.684 404.761 139.372 407.274 139.518C409.79 139.661 412.106 139.974 413.797 140.767C414.647 141.166 415.35 141.691 415.841 142.387C416.333 143.085 416.599 143.94 416.599 144.977C416.599 146.671 415.901 148.316 414.606 149.511L414.537 149.575L414.442 149.575L399.883 149.479Z" fill="white" stroke="black"/>
<path d="M373.541 149.476L373.437 149.476L373.366 149.399C372.231 148.166 371.531 146.625 371.531 144.974C371.531 143.94 371.781 143.065 372.249 142.338C372.716 141.613 373.392 141.049 374.224 140.624C375.88 139.777 378.178 139.467 380.778 139.515C383.185 139.538 385.536 139.851 387.294 140.674C388.176 141.088 388.918 141.634 389.44 142.347C389.965 143.062 390.257 143.933 390.257 144.974C390.257 146.669 389.56 148.314 388.265 149.508L388.195 149.573L388.101 149.572L373.541 149.476Z" fill="white" stroke="black"/>
<path d="M402.951 140.548C403.813 140.596 404.436 141.649 403.718 142.559C402.472 143.517 401.036 142.08 401.993 140.835C402.329 140.596 402.616 140.5 402.951 140.548L401.562 140.069C398.641 140.069 396.534 143.421 398.88 146.487C401.945 148.785 405.298 146.678 405.298 143.805C405.298 141.745 403.622 140.117 401.61 140.117" fill="black"/>
<path d="M376.61 140.548C377.472 140.596 378.095 141.649 377.376 142.559C376.131 143.517 374.694 142.08 375.652 140.835C375.987 140.596 376.275 140.5 376.61 140.548L375.221 140.069C372.299 140.069 370.192 143.421 372.539 146.487C375.604 148.785 378.957 146.678 378.957 143.805C378.957 141.745 377.28 140.117 375.269 140.117" fill="black"/>
<path d="M408.361 160.972H377.518C384.893 191.528 389.539 211.452 389.539 233.291C389.539 237.123 389.539 266.577 378.332 266.577C372.585 266.577 367.7 261.405 367.7 256.759C367.7 255.418 367.7 254.843 369.615 250.772C376.991 231.95 377.949 208.482 377.949 206.566C377.949 204.938 376.991 185.541 371.244 161.02L362.719 160.924C353.715 162.552 345.86 166.767 345.86 158.05C345.86 152.064 357.738 149.19 362.671 149.19L428.285 149.286C434.559 149.286 441.408 153.596 445.575 168.683C446.916 173.52 450.364 190.187 450.364 191.815C450.364 193.444 449.023 194.018 447.347 194.018C445.431 194.018 444.281 193.635 443.803 191.576C438.199 168.252 437.002 161.068 430.153 161.068H414.587C420.574 181.518 427.423 205.273 449.789 253.023C451.992 257.382 451.992 257.956 451.992 259.585C451.992 265.332 447.059 266.673 444.617 266.673C436.714 266.673 434.511 259.585 431.254 248.138C426.896 234.201 426.896 233.674 424.166 222.755L408.361 160.972Z" fill="#0D9DAA"/>
<path d="M400.65 157.859C398.016 157.859 399.74 157.428 394.185 157.38C389.252 157.332 388.246 157.811 386.666 157.763L386.809 156.278C388.581 156.326 391.263 155.895 393.85 155.895C395.717 155.895 397.921 156.374 400.842 156.374" fill="black"/>
<rect x="35.82" y="39.0649" width="224.36" height="56.87" fill="white"/>
<g clip-path="url(#clip1_1514_10278)">
<path d="M47.4762 62.5112C47.4762 62.294 47.4762 62.0225 47.4762 61.6967C47.4762 61.3709 47.4829 61.1469 47.4965 61.0248C47.4965 60.4139 47.4286 60.0338 47.2929 59.8845C47.1571 59.7352 46.811 59.6469 46.2544 59.6198H45.8879V59.1515C45.8879 58.8392 45.9015 58.6831 45.9286 58.6831L46.1323 58.6628C46.268 58.6492 46.4648 58.6356 46.7228 58.622C46.9807 58.6085 47.2318 58.5949 47.4762 58.5813C47.7069 58.5677 47.9581 58.5542 48.2296 58.5406C48.5011 58.527 48.7047 58.5067 48.8404 58.4795C48.9762 58.4524 49.0508 58.4456 49.0644 58.4591H49.1255V64.6492C49.1255 68.8031 49.1323 70.9004 49.1459 70.9411C49.1866 71.2126 49.2816 71.3891 49.4309 71.4706C49.5802 71.552 49.8857 71.6131 50.3472 71.6538H50.7137V72.5905C50.6866 72.5905 50.1707 72.6244 49.1662 72.6923C48.1617 72.7602 47.6255 72.8009 47.5576 72.8145H47.4151V71.6945L47.2522 71.8371C46.4648 72.4887 45.5825 72.8145 44.6051 72.8145C43.5598 72.8145 42.6164 72.4004 41.7748 71.5724C40.9331 70.7443 40.5123 69.6244 40.5123 68.2126C40.5123 66.8551 40.9399 65.7488 41.7951 64.8936C42.6503 64.0384 43.6481 63.604 44.7884 63.5904C45.8065 63.5904 46.7024 63.923 47.4762 64.5881V62.5112ZM47.4151 65.6266C46.8042 64.7714 46.0372 64.3438 45.1141 64.3438C44.449 64.3438 43.8585 64.5881 43.3426 65.0768C42.9761 65.4569 42.7454 65.8913 42.6503 66.38C42.5553 66.8687 42.501 67.5067 42.4874 68.2941C42.4874 69.0542 42.5349 69.6719 42.63 70.147C42.725 70.6221 42.9625 71.0362 43.3426 71.3891C43.7499 71.8371 44.2793 72.0611 44.9309 72.0611C45.8947 72.0611 46.7228 71.5384 47.4151 70.4932V65.6266Z" fill="#202020"/>
<path d="M51.7115 68.1515C51.7115 67.4049 51.8472 66.7262 52.1187 66.1153C52.3902 65.5044 52.7296 65.009 53.1368 64.6289C53.5441 64.2488 53.9853 63.9637 54.4604 63.7737C54.9355 63.5836 55.3835 63.4818 55.8043 63.4682C56.5237 63.4682 57.1414 63.5904 57.6572 63.8347C58.1731 64.0791 58.5667 64.4185 58.8382 64.8529C59.1097 65.2872 59.2998 65.7216 59.4084 66.156C59.517 66.5904 59.5781 67.0723 59.5916 67.6017C59.5916 67.6968 59.5441 67.7918 59.4491 67.8868H53.707V68.1922C53.707 70.2013 54.3857 71.423 55.7432 71.8574C56.0147 71.9389 56.3133 71.9796 56.6391 71.9796C57.2093 71.9796 57.698 71.7624 58.1052 71.328C58.336 71.0972 58.5192 70.8122 58.655 70.4728L58.8586 69.9841C58.8993 69.9434 59.0079 69.923 59.1844 69.923H59.2455C59.4762 69.923 59.5916 69.9909 59.5916 70.1266C59.5916 70.1809 59.5713 70.2692 59.5305 70.3914C59.2726 71.138 58.845 71.7285 58.2477 72.1629C57.6504 72.5973 56.9785 72.8145 56.2319 72.8145C54.9423 72.8145 53.8699 72.3461 53.0147 71.4095C52.1594 70.4728 51.7251 69.3868 51.7115 68.1515ZM57.9219 66.9909C57.7726 65.2533 57.1278 64.3302 55.9875 64.2216H55.9468C55.8382 64.2216 55.7296 64.2284 55.621 64.242C55.5124 64.2556 55.3427 64.3099 55.112 64.4049C54.8812 64.4999 54.6844 64.6424 54.5215 64.8325C54.3586 65.0225 54.2025 65.3008 54.0531 65.6673C53.9038 66.0339 53.7952 66.4818 53.7273 67.0112V67.1538H57.9219V66.9909Z" fill="#202020"/>
<path d="M60.7319 63.9975C61.4514 63.9432 62.0079 63.5631 62.4016 62.8572C62.7953 62.1513 63.0125 61.3233 63.0532 60.373V60.0676H63.8677V63.8142H66.6166V64.7509H63.8677V67.683C63.8813 69.3799 63.888 70.3369 63.888 70.5541C63.888 70.7713 63.9356 70.9885 64.0306 71.2057C64.2206 71.7351 64.5532 71.9998 65.0283 71.9998C65.6256 71.9998 65.9921 71.5179 66.1279 70.5541C66.1415 70.4455 66.1482 70.1333 66.1482 69.6175V68.9048H66.9627V69.6175V69.8618C66.9627 70.9071 66.6777 71.7012 66.1075 72.2442C65.741 72.6107 65.2659 72.7939 64.6822 72.7939C64.2206 72.7939 63.8202 72.7125 63.4808 72.5496C63.1414 72.3867 62.8835 72.1763 62.707 71.9184C62.5306 71.6605 62.4016 71.4229 62.3202 71.2057C62.2387 70.9885 62.1912 70.7713 62.1776 70.5541C62.164 70.4591 62.1573 69.4546 62.1573 67.5405V64.7509H60.5487V63.9975H60.7319Z" fill="#202020"/>
<path d="M85.7712 91.7411C85.7712 91.7818 85.7305 91.8429 85.6491 91.9243H85.0178C84.9907 91.8972 84.8006 91.7139 84.4477 91.3745C84.0948 91.0352 83.7893 90.7433 83.5314 90.499C83.2735 90.2546 82.907 89.8406 82.4319 89.2569C81.9567 88.6732 81.5359 88.1234 81.1694 87.6075C80.8029 87.0917 80.3753 86.4062 79.8866 85.551C79.3979 84.6958 78.9771 83.8473 78.6241 83.0057C78.2712 82.1641 77.8979 81.1527 77.5042 79.9717C77.1105 78.7907 76.8051 77.5962 76.5879 76.388C76.3707 75.1798 76.1739 73.802 75.9974 72.2545C75.8209 70.707 75.7395 69.1187 75.7531 67.4897C75.7531 57.8381 78.2237 50.3041 83.1649 44.8878C83.4771 44.5484 83.769 44.2497 84.0405 43.9918C84.312 43.7339 84.5359 43.5167 84.7124 43.3402C84.8889 43.1638 84.9907 43.0755 85.0178 43.0755H85.6491C85.7305 43.157 85.7712 43.2181 85.7712 43.2588C85.7712 43.3267 85.6355 43.5031 85.364 43.7882C85.0925 44.0733 84.7396 44.4737 84.3052 44.9896C83.8708 45.5054 83.3821 46.1502 82.8391 46.924C82.2961 47.6977 81.7463 48.6683 81.1898 49.8358C80.6332 51.0032 80.1174 52.2996 79.6422 53.7249C79.1671 55.1503 78.7599 56.8607 78.4205 58.8562C78.0811 60.8517 77.8639 62.9965 77.7689 65.2906C77.7418 65.8065 77.7282 66.5463 77.7282 67.5101C77.7282 72.7907 78.3662 77.4061 79.6422 81.3564C80.9183 85.3066 82.8866 88.6596 85.5473 91.4153C85.6966 91.5782 85.7712 91.6868 85.7712 91.7411Z" fill="#202020"/>
<path d="M91.5134 91.9243V43.0755H96.9908V44.338H92.7758V90.6619H96.9908V91.9243H91.5134Z" fill="#202020"/>
<path d="M100.849 55.0994C100.849 53.6198 101.433 52.2894 102.601 51.1084C103.768 49.9274 105.03 49.3369 106.388 49.3369C107.148 49.3369 107.745 49.4998 108.18 49.8256C108.614 50.1514 108.838 50.579 108.852 51.1084C108.852 51.5021 108.723 51.8347 108.465 52.1062C108.207 52.3777 107.881 52.5202 107.487 52.5338C107.23 52.5338 107.026 52.4659 106.877 52.3302C106.727 52.1944 106.653 51.9908 106.653 51.7193C106.653 51.4478 106.727 51.217 106.877 51.027C107.026 50.8369 107.175 50.6944 107.325 50.5994C107.474 50.5044 107.569 50.4636 107.61 50.4772H107.63C107.63 50.4501 107.589 50.4093 107.508 50.355C107.426 50.3007 107.284 50.2464 107.08 50.1921C106.877 50.1378 106.646 50.1107 106.388 50.1107C105.981 50.1107 105.594 50.2057 105.227 50.3958C104.942 50.5179 104.65 50.7283 104.352 51.027C103.754 51.6243 103.32 52.4659 103.049 53.5519C102.777 54.6379 102.634 55.4252 102.621 55.9139C102.621 56.5383 102.797 57.0067 103.15 57.3189C103.449 57.6447 103.843 57.8076 104.331 57.8076H104.413C105.933 57.8076 107.189 57.2306 108.18 56.0768C108.302 55.941 108.383 55.8732 108.424 55.8732C108.478 55.8732 108.567 55.9343 108.689 56.0564C108.811 56.1786 108.879 56.2736 108.892 56.3415C108.906 56.4094 108.845 56.5112 108.709 56.6469C108.573 56.7827 108.377 56.9727 108.119 57.2171C107.861 57.4614 107.555 57.665 107.202 57.8279C106.849 57.9908 106.415 58.1605 105.899 58.337C105.383 58.5135 104.84 58.5881 104.27 58.561C103.252 58.561 102.431 58.2352 101.806 57.5836C101.182 56.932 100.863 56.1039 100.849 55.0994Z" fill="#A452CE"/>
<path d="M115.209 53.5113C115.209 53.5113 115.209 53.423 115.209 53.2466C115.209 53.0701 115.304 52.9343 115.494 52.8393H127.324C127.528 52.9479 127.63 53.0837 127.63 53.2466C127.63 53.4095 127.528 53.5452 127.324 53.6538H115.494C115.304 53.5588 115.209 53.423 115.209 53.2466V53.5113Z" fill="#202020"/>
<path d="M137.245 44.6335C137.245 44.4706 137.36 44.328 137.591 44.2059H137.978C139.199 44.2466 139.973 44.586 140.299 45.224C140.38 45.4276 140.767 46.5 141.46 48.4412C142.152 50.3824 142.838 52.2761 143.516 54.1222C144.195 55.9684 144.534 56.9186 144.534 56.9729C144.629 57.2444 144.718 57.4684 144.799 57.6449C144.881 57.8214 144.942 57.9503 144.982 58.0318C145.023 58.1132 145.057 58.1743 145.084 58.215C145.111 58.2557 145.138 58.2829 145.166 58.2965C145.193 58.31 145.2 58.3372 145.186 58.3779C145.172 58.4186 145.132 58.4797 145.064 58.5612H143.679C143.34 58.3711 143.123 58.1743 143.028 57.9707C142.933 57.7671 142.586 56.8575 141.989 55.2422L141.073 52.6969L140.788 53.0023C140.611 53.2195 140.292 53.5928 139.831 54.1222C139.369 54.6516 138.982 55.0996 138.67 55.4661C138.331 55.8598 137.91 56.3485 137.408 56.9322C136.715 57.7467 136.288 58.2218 136.125 58.3576C135.962 58.4933 135.772 58.568 135.555 58.5815C135.066 58.5815 134.822 58.3643 134.822 57.93C134.822 57.6992 134.917 57.482 135.107 57.2784C135.297 57.0747 136.233 56.1584 137.917 54.5295C138.324 54.1358 138.779 53.6946 139.281 53.2059C139.783 52.7172 140.157 52.3507 140.401 52.1064L140.747 51.7806C140.747 51.767 140.408 50.8168 139.729 48.9299C139.05 47.043 138.684 46.0249 138.629 45.8756C138.358 45.2647 138.012 44.9593 137.591 44.9593C137.36 44.9593 137.245 44.8507 137.245 44.6335Z" fill="#202020"/>
<path d="M174.691 55.14C174.691 53.769 175.207 52.4658 176.238 51.2305C177.27 49.9952 178.431 49.3708 179.72 49.3572C180.412 49.3572 181.023 49.6898 181.553 50.3549C181.77 49.9477 182.082 49.7441 182.489 49.7441C182.666 49.7441 182.822 49.7984 182.958 49.907C183.093 50.0156 183.161 50.1513 183.161 50.3142C183.161 50.4907 182.91 51.5767 182.408 53.5722C181.906 55.5677 181.648 56.6944 181.634 56.9523C181.634 57.2916 181.682 57.5156 181.777 57.6242C181.872 57.7328 182.014 57.7939 182.204 57.8075C182.327 57.7939 182.462 57.7328 182.612 57.6242C182.897 57.3527 183.175 56.7011 183.446 55.6695C183.528 55.398 183.596 55.2554 183.65 55.2419C183.677 55.2283 183.745 55.2215 183.854 55.2215H183.935C184.193 55.2215 184.322 55.2826 184.322 55.4048C184.322 55.4862 184.288 55.6695 184.22 55.9545C184.152 56.2396 184.017 56.6061 183.813 57.0541C183.609 57.5021 183.392 57.8414 183.161 58.0722C182.985 58.2487 182.768 58.3912 182.51 58.4998C182.401 58.527 182.238 58.5405 182.021 58.5405C181.56 58.5405 181.173 58.4387 180.86 58.2351C180.548 58.0315 180.345 57.8211 180.25 57.6039L180.127 57.2984C180.114 57.2849 180.087 57.2916 180.046 57.3188C180.019 57.3459 179.992 57.3731 179.964 57.4002C179.164 58.1604 178.349 58.5405 177.521 58.5405C176.774 58.5405 176.116 58.269 175.546 57.726C174.976 57.1831 174.691 56.3211 174.691 55.14ZM181.166 51.6581C181.166 51.5767 181.132 51.4274 181.064 51.2102C180.996 50.993 180.84 50.7554 180.596 50.4975C180.351 50.2396 180.039 50.1038 179.659 50.0902C179.184 50.0902 178.729 50.3006 178.295 50.7215C177.86 51.1423 177.521 51.6921 177.277 52.3708C176.883 53.4432 176.605 54.5563 176.442 55.7102C176.442 55.7509 176.442 55.8256 176.442 55.9342C176.442 56.0428 176.435 56.1242 176.421 56.1785C176.421 56.7894 176.544 57.2102 176.788 57.441C177.032 57.6717 177.324 57.7939 177.664 57.8075C178.179 57.8075 178.688 57.5835 179.191 57.1355C179.693 56.6876 179.992 56.3414 180.087 56.0971C180.114 56.0428 180.297 55.3165 180.636 53.9183C180.976 52.5201 181.152 51.7667 181.166 51.6581Z" fill="#A452CE"/>
<path d="M191.025 53.5113C191.025 53.5113 191.025 53.423 191.025 53.2466C191.025 53.0701 191.12 52.9343 191.31 52.8393H203.141C203.344 52.9479 203.446 53.0837 203.446 53.2466C203.446 53.4095 203.344 53.5452 203.141 53.6538H191.31C191.12 53.5588 191.025 53.423 191.025 53.2466V53.5113Z" fill="#202020"/>
<path d="M211.167 45.1627C211.167 45.027 211.195 44.8709 211.249 44.6944C211.303 44.5179 211.385 44.4297 211.493 44.4297C211.507 44.4297 211.996 44.3958 212.959 44.3279C213.923 44.26 214.419 44.2193 214.446 44.2057C214.609 44.2057 214.69 44.2668 214.69 44.389C214.69 44.5112 214.459 45.4818 213.998 47.3008C213.889 47.7623 213.774 48.2374 213.652 48.7261C213.529 49.2148 213.428 49.5813 213.346 49.8257L213.265 50.2126C213.265 50.2533 213.305 50.2329 213.387 50.1515C214.052 49.6085 214.738 49.337 215.443 49.337C216.285 49.337 216.964 49.6492 217.48 50.2736C217.996 50.8981 218.26 51.6854 218.274 52.6357C218.274 54.1424 217.738 55.5067 216.665 56.7284C215.593 57.9502 214.439 58.561 213.204 58.561C212.525 58.561 211.907 58.3031 211.351 57.7873C210.794 57.2714 210.509 56.4366 210.495 55.2827V55.0995C210.495 54.8144 210.55 54.4207 210.658 53.9185C210.767 53.4162 211.1 52.0791 211.656 49.9071C212.335 47.2329 212.674 45.8143 212.674 45.6514C212.674 45.4885 212.416 45.3935 211.9 45.3664C211.833 45.3664 211.778 45.3664 211.738 45.3664H211.636C211.5 45.3664 211.412 45.3664 211.371 45.3664C211.33 45.3664 211.283 45.346 211.229 45.3053C211.174 45.2646 211.154 45.217 211.167 45.1627ZM216.523 51.7194V51.5972C216.523 50.5926 216.109 50.0904 215.281 50.0904C215.05 50.0904 214.812 50.1447 214.568 50.2533C214.324 50.3619 214.1 50.5044 213.896 50.6809C213.692 50.8574 213.516 51.0203 213.367 51.1696C213.217 51.3189 213.095 51.4682 213 51.6175L212.878 51.7804L212.45 53.5316C212.152 54.699 212.002 55.5271 212.002 56.0158C212.002 56.6674 212.165 57.156 212.491 57.4818C212.708 57.699 212.98 57.8076 213.305 57.8076C213.753 57.8076 214.208 57.5904 214.67 57.156C215.009 56.8438 215.281 56.4637 215.484 56.0158C215.688 55.5678 215.912 54.8551 216.156 53.8777C216.401 52.9004 216.523 52.1809 216.523 51.7194Z" fill="#A452CE"/>
<path d="M222.163 46.1198C222.163 45.794 222.292 45.5089 222.55 45.2646C222.808 45.0202 223.106 44.8912 223.446 44.8777C223.69 44.8777 223.894 44.9591 224.057 45.122C224.22 45.2849 224.308 45.4885 224.321 45.7329C224.321 46.0451 224.186 46.3302 223.914 46.5881C223.643 46.846 223.344 46.9818 223.018 46.9953C222.815 46.9953 222.625 46.9275 222.448 46.7917C222.272 46.656 222.177 46.432 222.163 46.1198ZM218.844 52.4931C218.844 52.3845 218.905 52.1741 219.027 51.8619C219.149 51.5497 219.312 51.2035 219.516 50.8234C219.72 50.4433 220.018 50.0972 220.412 49.785C220.806 49.4727 221.213 49.3234 221.634 49.337C222.163 49.337 222.604 49.4931 222.957 49.8053C223.31 50.1175 223.493 50.5384 223.507 51.0678C223.507 51.2985 223.412 51.6786 223.222 52.208C223.032 52.7375 222.76 53.4501 222.407 54.3461C222.054 55.242 221.769 56.009 221.552 56.647C221.484 56.9456 221.45 57.1628 221.45 57.2986C221.45 57.638 221.566 57.8076 221.796 57.8076C221.919 57.8076 222.048 57.7873 222.183 57.7465C222.319 57.7058 222.475 57.6108 222.652 57.4615C222.828 57.3122 223.011 57.0746 223.201 56.7488C223.392 56.423 223.561 56.0226 223.711 55.5474C223.751 55.3845 223.785 55.2895 223.812 55.2624C223.839 55.2352 223.955 55.2216 224.158 55.2216C224.43 55.2216 224.566 55.2895 224.566 55.4253C224.566 55.5339 224.505 55.7443 224.382 56.0565C224.26 56.3687 224.091 56.7149 223.873 57.095C223.656 57.4751 223.351 57.8144 222.957 58.1131C222.563 58.4117 222.143 58.561 221.695 58.561C221.26 58.561 220.86 58.4185 220.493 58.1334C220.127 57.8484 219.937 57.414 219.923 56.8303C219.923 56.5995 219.957 56.3823 220.025 56.1787C220.093 55.975 220.385 55.2013 220.901 53.8574C221.416 52.4863 221.715 51.6651 221.796 51.3936C221.878 51.1221 221.925 50.8574 221.939 50.5994C221.939 50.2736 221.824 50.1107 221.593 50.1107H221.552C221.145 50.1107 220.772 50.3347 220.432 50.7827C220.093 51.2307 219.835 51.8008 219.658 52.4931C219.645 52.5067 219.631 52.5271 219.618 52.5542C219.604 52.5814 219.597 52.6017 219.597 52.6153C219.597 52.6289 219.584 52.6424 219.557 52.656C219.53 52.6696 219.509 52.6764 219.496 52.6764C219.482 52.6764 219.455 52.6764 219.414 52.6764C219.373 52.6764 219.319 52.6764 219.251 52.6764H218.966C218.885 52.5949 218.844 52.5338 218.844 52.4931Z" fill="#202020"/>
<path d="M97.9071 83.6469C97.9071 82.2758 98.4229 80.9727 99.4546 79.7374C100.486 78.5021 101.647 77.8776 102.937 77.864C103.629 77.864 104.24 78.1966 104.769 78.8618C104.986 78.4545 105.299 78.2509 105.706 78.2509C105.882 78.2509 106.038 78.3052 106.174 78.4138C106.31 78.5224 106.378 78.6582 106.378 78.8211C106.378 78.9975 106.127 80.0835 105.624 82.079C105.122 84.0745 104.864 85.2012 104.851 85.4591C104.851 85.7985 104.898 86.0225 104.993 86.1311C105.088 86.2397 105.231 86.3008 105.421 86.3143C105.543 86.3008 105.679 86.2397 105.828 86.1311C106.113 85.8596 106.391 85.208 106.663 84.1763C106.744 83.9048 106.812 83.7623 106.866 83.7487C106.894 83.7351 106.961 83.7283 107.07 83.7283H107.151C107.409 83.7283 107.538 83.7894 107.538 83.9116C107.538 83.993 107.504 84.1763 107.437 84.4614C107.369 84.7464 107.233 85.113 107.029 85.5609C106.826 86.0089 106.609 86.3483 106.378 86.579C106.201 86.7555 105.984 86.898 105.726 87.0066C105.618 87.0338 105.455 87.0474 105.237 87.0474C104.776 87.0474 104.389 86.9456 104.077 86.7419C103.765 86.5383 103.561 86.3279 103.466 86.1107L103.344 85.8053C103.33 85.7917 103.303 85.7985 103.262 85.8256C103.235 85.8528 103.208 85.8799 103.181 85.9071C102.38 86.6673 101.565 87.0474 100.737 87.0474C99.9908 87.0474 99.3324 86.7759 98.7623 86.2329C98.1922 85.6899 97.9071 84.8279 97.9071 83.6469ZM104.382 80.165C104.382 80.0835 104.348 79.9342 104.28 79.717C104.213 79.4998 104.056 79.2622 103.812 79.0043C103.568 78.7464 103.256 78.6106 102.875 78.5971C102.4 78.5971 101.946 78.8075 101.511 79.2283C101.077 79.6491 100.737 80.1989 100.493 80.8776C100.099 81.95 99.8211 83.0632 99.6582 84.217C99.6582 84.2577 99.6582 84.3324 99.6582 84.441C99.6582 84.5496 99.6514 84.6311 99.6379 84.6854C99.6379 85.2962 99.76 85.717 100.004 85.9478C100.249 86.1786 100.541 86.3008 100.88 86.3143C101.396 86.3143 101.905 86.0903 102.407 85.6424C102.909 85.1944 103.208 84.8483 103.303 84.6039C103.33 84.5496 103.513 83.8234 103.853 82.4252C104.192 81.027 104.369 80.2736 104.382 80.165Z" fill="#A452CE"/>
<path d="M113.671 82.0181C113.671 82.0181 113.671 81.9299 113.671 81.7534C113.671 81.577 113.766 81.4412 113.957 81.3462H120.045V78.2919L120.065 75.2376C120.201 75.0611 120.33 74.9728 120.452 74.9728C120.629 74.9728 120.764 75.0747 120.859 75.2783V81.3462H126.927C127.131 81.4548 127.233 81.5905 127.233 81.7534C127.233 81.9163 127.131 82.0521 126.927 82.1607H120.859V88.2286C120.751 88.4186 120.629 88.5137 120.493 88.5137H120.452H120.411C120.248 88.5137 120.126 88.4186 120.045 88.2286V82.1607H113.957C113.766 82.0657 113.671 81.9299 113.671 81.7534V82.0181Z" fill="#202020"/>
<path d="M134.384 73.6696C134.384 73.5338 134.411 73.3777 134.465 73.2013C134.52 73.0248 134.601 72.9365 134.71 72.9365C134.723 72.9365 135.212 72.9026 136.176 72.8347C137.14 72.7669 137.635 72.7261 137.662 72.7126C137.825 72.7126 137.906 72.7736 137.906 72.8958C137.906 73.018 137.676 73.9886 137.214 75.8076C137.106 76.2691 136.99 76.7443 136.868 77.233C136.746 77.7216 136.644 78.0882 136.563 78.3325L136.481 78.7194C136.481 78.7601 136.522 78.7398 136.603 78.6583C137.268 78.1153 137.954 77.8438 138.66 77.8438C139.502 77.8438 140.18 78.156 140.696 78.7805C141.212 79.4049 141.477 80.1923 141.49 81.1425C141.49 82.6493 140.954 84.0135 139.882 85.2353C138.809 86.457 137.655 87.0679 136.42 87.0679C135.741 87.0679 135.124 86.81 134.567 86.2941C134.011 85.7783 133.725 84.9434 133.712 83.7896V83.6063C133.712 83.3212 133.766 82.9276 133.875 82.4253C133.983 81.923 134.316 80.5859 134.873 78.414C135.551 75.7397 135.891 74.3212 135.891 74.1583C135.891 73.9954 135.633 73.9004 135.117 73.8732C135.049 73.8732 134.995 73.8732 134.954 73.8732H134.852C134.716 73.8732 134.628 73.8732 134.587 73.8732C134.547 73.8732 134.499 73.8528 134.445 73.8121C134.391 73.7714 134.37 73.7239 134.384 73.6696ZM139.739 80.2262V80.104C139.739 79.0995 139.325 78.5972 138.497 78.5972C138.266 78.5972 138.029 78.6515 137.784 78.7601C137.54 78.8687 137.316 79.0112 137.112 79.1877C136.909 79.3642 136.732 79.5271 136.583 79.6764C136.434 79.8257 136.311 79.9751 136.216 80.1244L136.094 80.2873L135.667 82.0384C135.368 83.2059 135.219 84.0339 135.219 84.5226C135.219 85.1742 135.382 85.6629 135.707 85.9887C135.925 86.2059 136.196 86.3145 136.522 86.3145C136.97 86.3145 137.425 86.0973 137.886 85.6629C138.225 85.3507 138.497 84.9706 138.701 84.5226C138.904 84.0746 139.128 83.362 139.373 82.3846C139.617 81.4072 139.739 80.6877 139.739 80.2262Z" fill="#A452CE"/>
<path d="M145.379 74.6266C145.379 74.3008 145.508 74.0157 145.766 73.7714C146.024 73.527 146.323 73.3981 146.662 73.3845C146.907 73.3845 147.11 73.466 147.273 73.6289C147.436 73.7918 147.524 73.9954 147.538 74.2397C147.538 74.5519 147.402 74.837 147.131 75.0949C146.859 75.3529 146.56 75.4886 146.235 75.5022C146.031 75.5022 145.841 75.4343 145.664 75.2986C145.488 75.1628 145.393 74.9388 145.379 74.6266ZM142.06 81C142.06 80.8914 142.121 80.6809 142.244 80.3687C142.366 80.0565 142.529 79.7103 142.732 79.3303C142.936 78.9502 143.235 78.604 143.628 78.2918C144.022 77.9796 144.429 77.8302 144.85 77.8438C145.379 77.8438 145.821 77.9999 146.174 78.3121C146.526 78.6244 146.71 79.0452 146.723 79.5746C146.723 79.8054 146.628 80.1855 146.438 80.7149C146.248 81.2443 145.977 81.957 145.624 82.8529C145.271 83.7488 144.986 84.5158 144.769 85.1538C144.701 85.4525 144.667 85.6697 144.667 85.8054C144.667 86.1448 144.782 86.3145 145.013 86.3145C145.135 86.3145 145.264 86.2941 145.4 86.2534C145.535 86.2127 145.692 86.1176 145.868 85.9683C146.045 85.819 146.228 85.5814 146.418 85.2556C146.608 84.9298 146.778 84.5294 146.927 84.0543C146.968 83.8914 147.002 83.7964 147.029 83.7692C147.056 83.7421 147.171 83.7285 147.375 83.7285C147.646 83.7285 147.782 83.7964 147.782 83.9321C147.782 84.0407 147.721 84.2511 147.599 84.5633C147.477 84.8755 147.307 85.2217 147.09 85.6018C146.873 85.9819 146.567 86.3213 146.174 86.6199C145.78 86.9185 145.359 87.0679 144.911 87.0679C144.477 87.0679 144.076 86.9253 143.71 86.6403C143.343 86.3552 143.153 85.9208 143.14 85.3371C143.14 85.1063 143.173 84.8891 143.241 84.6855C143.309 84.4819 143.601 83.7081 144.117 82.3642C144.633 80.9932 144.931 80.1719 145.013 79.9004C145.094 79.6289 145.142 79.3642 145.155 79.1063C145.155 78.7805 145.04 78.6176 144.809 78.6176H144.769C144.361 78.6176 143.988 78.8416 143.649 79.2895C143.309 79.7375 143.051 80.3076 142.875 81C142.861 81.0135 142.848 81.0339 142.834 81.061C142.821 81.0882 142.814 81.1086 142.814 81.1221C142.814 81.1357 142.8 81.1493 142.773 81.1628C142.746 81.1764 142.726 81.1832 142.712 81.1832C142.698 81.1832 142.671 81.1832 142.63 81.1832C142.59 81.1832 142.535 81.1832 142.468 81.1832H142.183C142.101 81.1018 142.06 81.0407 142.06 81Z" fill="#202020"/>
<path d="M170.73 82.0181C170.73 82.0181 170.73 81.9299 170.73 81.7534C170.73 81.5769 170.825 81.4412 171.015 81.3462H182.846C183.049 81.4548 183.151 81.5905 183.151 81.7534C183.151 81.9163 183.049 82.052 182.846 82.1606H171.015C170.825 82.0656 170.73 81.9299 170.73 81.7534V82.0181Z" fill="#202020"/>
<path d="M185.554 83.6062C185.554 82.1266 186.138 80.7963 187.305 79.6153C188.472 78.4343 189.735 77.8438 191.092 77.8438C191.853 77.8438 192.45 78.0067 192.884 78.3325C193.319 78.6582 193.543 79.0859 193.556 79.6153C193.556 80.0089 193.427 80.3415 193.169 80.613C192.911 80.8845 192.586 81.027 192.192 81.0406C191.934 81.0406 191.73 80.9727 191.581 80.837C191.432 80.7012 191.357 80.4976 191.357 80.2261C191.357 79.9546 191.432 79.7239 191.581 79.5338C191.73 79.3438 191.88 79.2012 192.029 79.1062C192.178 79.0112 192.273 78.9705 192.314 78.984H192.334C192.334 78.9569 192.294 78.9162 192.212 78.8619C192.131 78.8076 191.988 78.7533 191.785 78.699C191.581 78.6447 191.35 78.6175 191.092 78.6175C190.685 78.6175 190.298 78.7125 189.932 78.9026C189.647 79.0248 189.355 79.2352 189.056 79.5338C188.459 80.1311 188.025 80.9727 187.753 82.0587C187.482 83.1447 187.339 83.932 187.325 84.4207C187.325 85.0452 187.502 85.5135 187.855 85.8257C188.153 86.1515 188.547 86.3144 189.036 86.3144H189.117C190.638 86.3144 191.893 85.7375 192.884 84.5836C193.006 84.4479 193.088 84.38 193.129 84.38C193.183 84.38 193.271 84.4411 193.393 84.5633C193.515 84.6854 193.583 84.7805 193.597 84.8483C193.611 84.9162 193.549 85.018 193.414 85.1538C193.278 85.2895 193.081 85.4796 192.823 85.7239C192.565 85.9683 192.26 86.1719 191.907 86.3348C191.554 86.4977 191.12 86.6674 190.604 86.8438C190.088 87.0203 189.545 87.095 188.975 87.0678C187.957 87.0678 187.135 86.742 186.511 86.0904C185.886 85.4388 185.567 84.6108 185.554 83.6062Z" fill="#A452CE"/>
<path d="M199.913 82.0181C199.913 82.0181 199.913 81.9299 199.913 81.7534C199.913 81.5769 200.008 81.4412 200.198 81.3462H212.029C212.232 81.4548 212.334 81.5905 212.334 81.7534C212.334 81.9163 212.232 82.052 212.029 82.1606H200.198C200.008 82.0656 199.913 81.9299 199.913 81.7534V82.0181Z" fill="#202020"/>
<path d="M221.949 73.1403C221.949 72.9774 222.065 72.8349 222.295 72.7127H222.682C223.904 72.7534 224.678 73.0928 225.004 73.7308C225.085 73.9344 225.472 75.0068 226.164 76.948C226.856 78.8892 227.542 80.7829 228.221 82.6291C228.899 84.4752 229.239 85.4255 229.239 85.4798C229.334 85.7513 229.422 85.9752 229.504 86.1517C229.585 86.3282 229.646 86.4572 229.687 86.5386C229.728 86.62 229.761 86.6811 229.789 86.7219C229.816 86.7626 229.843 86.7897 229.87 86.8033C229.897 86.8169 229.904 86.844 229.89 86.8848C229.877 86.9255 229.836 86.9866 229.768 87.068H228.384C228.044 86.878 227.827 86.6811 227.732 86.4775C227.637 86.2739 227.291 85.3644 226.694 83.749L225.777 81.2037L225.492 81.5092C225.316 81.7263 224.997 82.0997 224.535 82.6291C224.074 83.1585 223.687 83.6065 223.375 83.973C223.035 84.3666 222.614 84.8553 222.112 85.439C221.42 86.2535 220.992 86.7286 220.829 86.8644C220.666 87.0001 220.476 87.0748 220.259 87.0884C219.77 87.0884 219.526 86.8712 219.526 86.4368C219.526 86.206 219.621 85.9888 219.811 85.7852C220.001 85.5816 220.938 84.6653 222.621 83.0363C223.028 82.6426 223.483 82.2015 223.985 81.7128C224.488 81.2241 224.861 80.8576 225.105 80.6132L225.451 80.2874C225.451 80.2738 225.112 79.3236 224.433 77.4367C223.755 75.5498 223.388 74.5317 223.334 74.3824C223.062 73.7715 222.716 73.4661 222.295 73.4661C222.065 73.4661 221.949 73.3575 221.949 73.1403Z" fill="#202020"/>
<path d="M230.666 44.338V43.0755H236.144V91.9243H230.666V90.6619H234.881V44.338H230.666Z" fill="#202020"/>
<path d="M241.886 43.3199C241.886 43.2113 241.906 43.1434 241.947 43.1163C241.988 43.0891 242.076 43.0755 242.212 43.0755H242.334H242.639C242.666 43.1027 242.856 43.2859 243.209 43.6253C243.562 43.9647 243.868 44.2565 244.126 44.5009C244.384 44.7452 244.75 45.1593 245.225 45.743C245.7 46.3267 246.121 46.8765 246.488 47.3923C246.854 47.9081 247.282 48.5937 247.77 49.4489C248.259 50.3041 248.68 51.1457 249.033 51.9738C249.386 52.8018 249.759 53.8132 250.153 55.0077C250.546 56.2023 250.852 57.3969 251.069 58.5915C251.286 59.7861 251.483 61.1639 251.66 62.725C251.836 64.2861 251.918 65.8743 251.904 67.4897C251.904 69.078 251.856 70.4219 251.761 71.5214C251.123 79.2862 248.7 85.4831 244.492 90.1121C244.18 90.4515 243.888 90.7501 243.617 91.008C243.345 91.2659 243.121 91.4831 242.945 91.6596C242.768 91.8361 242.666 91.9243 242.639 91.9243H242.334C242.157 91.9243 242.042 91.9107 241.988 91.8836C241.933 91.8564 241.899 91.7886 241.886 91.68C242.619 90.9469 243.338 90.1053 244.044 89.1551C247.954 83.9559 249.908 76.7342 249.908 67.4897C249.908 64.7476 249.732 62.1888 249.379 59.8132C249.026 57.4376 248.592 55.4421 248.076 53.8267C247.56 52.2113 246.929 50.691 246.182 49.2656C245.436 47.8403 244.757 46.7339 244.146 45.9466C243.535 45.1593 242.863 44.3719 242.13 43.5846C242.103 43.5574 242.076 43.5303 242.049 43.5031C242.022 43.476 242.001 43.4488 241.988 43.4217C241.974 43.3945 241.954 43.3742 241.926 43.3606L241.886 43.3199Z" fill="#202020"/>
</g>
</g>
<defs>
<clipPath id="clip0_1514_10278">
<rect width="640" height="300" fill="white"/>
</clipPath>
<clipPath id="clip1_1514_10278">
<rect width="216.36" height="48.87" fill="white" transform="translate(39.82 43.0649)"/>
</clipPath>
</defs>
</svg>
