<svg width="640" height="360" viewBox="0 0 640 360" fill="none" xmlns="http://www.w3.org/2000/svg">
<rect width="640" height="360" fill="white"/>
<rect x="49.5072" y="157.836" width="130.436" height="56.87" fill="white"/>
<g clip-path="url(#clip0_1511_9069)">
<path d="M57.2538 191.585C56.3307 191.585 55.5841 191.28 55.014 190.669C54.4439 190.058 54.152 189.291 54.1384 188.368C54.1384 187.011 54.6339 185.748 55.6249 184.581C56.6158 183.414 57.7696 182.755 59.0864 182.606C59.1 182.592 60.0502 182.585 61.937 182.585H64.747C64.7606 182.599 64.7809 182.613 64.8081 182.626C64.8352 182.64 64.8624 182.653 64.8895 182.667C64.9167 182.681 64.937 182.694 64.9506 182.708C64.9642 182.721 64.9845 182.742 65.0117 182.769C65.0388 182.796 65.0524 182.809 65.0524 182.809C65.0524 182.809 65.066 182.837 65.0931 182.891C65.1203 182.945 65.1271 182.972 65.1135 182.972C65.0999 182.972 65.1067 183.006 65.1339 183.074C65.161 183.142 65.1678 183.183 65.1542 183.196C65.1542 183.794 64.713 184.092 63.8307 184.092C63.7357 184.092 63.6203 184.092 63.4845 184.092C63.3488 184.092 63.2538 184.085 63.1995 184.072H61.9778L62.0796 184.276C62.3239 184.791 62.4461 185.368 62.4461 186.006C62.4461 187.499 61.9031 188.803 60.8171 189.916C59.7312 191.029 58.5434 191.585 57.2538 191.585ZM60.8579 185.701C60.8579 184.615 60.2809 184.072 59.1271 184.072C57.4439 184.072 56.3511 185.253 55.8488 187.615C55.8353 187.669 55.8285 187.71 55.8285 187.737C55.7199 188.239 55.6656 188.653 55.6656 188.979C55.6656 189.658 55.8353 190.133 56.1746 190.404C56.514 190.676 56.9009 190.818 57.3353 190.832C58.0683 190.832 58.7402 190.513 59.3511 189.875C59.7447 189.468 60.0638 188.925 60.3081 188.246C60.5524 187.567 60.7018 187.024 60.7561 186.617C60.8104 186.21 60.8443 185.904 60.8579 185.701Z" fill="#C74440"/>
<path d="M66.1081 190.284C66.1081 190.15 66.1801 189.919 66.3241 189.593C66.468 189.267 66.6983 188.926 67.0151 188.571C67.3318 188.216 67.6869 188.043 68.0803 188.053C68.4738 188.053 68.7905 188.163 69.0305 188.384C69.2704 188.604 69.3952 188.912 69.4048 189.305C69.3856 189.487 69.3712 189.588 69.3616 189.607C69.3616 189.636 69.2848 189.857 69.1312 190.27C68.9777 190.682 68.8193 191.148 68.6562 191.666C68.493 192.184 68.4163 192.597 68.4258 192.904C68.4258 193.317 68.493 193.605 68.6274 193.768C68.7618 193.931 68.9633 194.017 69.232 194.027C69.4528 194.027 69.6591 193.974 69.851 193.869C70.043 193.763 70.1917 193.653 70.2973 193.537C70.4029 193.422 70.5324 193.264 70.686 193.062C70.686 193.053 70.71 192.957 70.758 192.774C70.806 192.592 70.8731 192.309 70.9595 191.925C71.0459 191.541 71.1371 191.186 71.233 190.86C71.5977 189.42 71.7993 188.667 71.8377 188.6C71.9624 188.341 72.1688 188.211 72.4567 188.211C72.5815 188.211 72.6822 188.245 72.759 188.312C72.8358 188.379 72.8886 188.436 72.9174 188.484C72.9461 188.532 72.9557 188.576 72.9461 188.614C72.9461 188.739 72.711 189.746 72.2407 191.637C71.7705 193.528 71.5018 194.564 71.4346 194.747C71.1659 195.543 70.7004 196.177 70.0382 196.647C69.376 197.117 68.7138 197.357 68.0516 197.367C67.6197 197.367 67.2406 197.261 66.9143 197.05C66.588 196.839 66.4248 196.522 66.4248 196.1C66.4248 195.889 66.4584 195.711 66.5256 195.567C66.5928 195.423 66.684 195.318 66.7991 195.251C66.9143 195.183 67.0103 195.135 67.087 195.107C67.1638 195.078 67.2454 195.063 67.3318 195.063C67.754 195.063 67.9652 195.265 67.9652 195.668C67.9652 195.86 67.9076 196.028 67.7924 196.172C67.6773 196.316 67.5669 196.412 67.4613 196.46C67.3558 196.508 67.2934 196.532 67.2742 196.532L67.231 196.546C67.2502 196.594 67.3414 196.652 67.5045 196.719C67.6677 196.786 67.8308 196.82 67.994 196.82H68.1091C68.2723 196.82 68.3971 196.81 68.4834 196.791C68.8001 196.704 69.0929 196.522 69.3616 196.244C69.6303 195.966 69.8366 195.668 69.9806 195.351C70.1246 195.035 70.2349 194.766 70.3117 194.545C70.3885 194.324 70.4269 194.18 70.4269 194.113L70.3405 194.171C70.2829 194.209 70.1917 194.262 70.067 194.329C69.9422 194.396 69.8174 194.454 69.6927 194.502C69.5007 194.55 69.3136 194.574 69.1312 194.574C68.6898 194.574 68.3011 194.468 67.9652 194.257C67.6293 194.046 67.4085 193.705 67.303 193.235C67.2934 193.168 67.2886 193.019 67.2886 192.789C67.2886 192.242 67.4565 191.527 67.7924 190.644C68.1283 189.761 68.2963 189.199 68.2963 188.96C68.2963 188.95 68.2963 188.94 68.2963 188.931C68.2963 188.844 68.2963 188.787 68.2963 188.758C68.2963 188.729 68.2771 188.696 68.2387 188.657C68.2003 188.619 68.1475 188.6 68.0803 188.6H68.0228C67.802 188.6 67.6005 188.691 67.4181 188.873C67.2358 189.055 67.0918 189.252 66.9863 189.463C66.8807 189.675 66.7991 189.876 66.7415 190.068C66.684 190.26 66.6456 190.366 66.6264 190.385C66.6072 190.404 66.5304 190.414 66.396 190.414H66.1945C66.1369 190.356 66.1081 190.313 66.1081 190.284Z" fill="#C74440"/>
<path d="M80.6761 184.296C80.6761 184.119 80.7711 183.984 80.9612 183.889H93.9317C94.1353 183.997 94.2371 184.133 94.2371 184.296C94.2371 184.445 94.1421 184.574 93.952 184.683L87.477 184.703H81.0019C80.7847 184.635 80.6761 184.499 80.6761 184.296ZM80.6761 188.246C80.6761 188.042 80.7847 187.907 81.0019 187.839H93.952C94.1421 187.975 94.2371 188.11 94.2371 188.246C94.2371 188.423 94.1353 188.558 93.9317 188.653H80.9612C80.7711 188.558 80.6761 188.423 80.6761 188.246Z" fill="#202020"/>
<path d="M106.061 210.695V161.847H111.539V163.109H107.324V209.432H111.539V210.695H106.061Z" fill="#202020"/>
<path d="M113.738 165.196C114.498 164.096 115.536 163.547 116.853 163.547C117.505 163.547 118.156 163.723 118.808 164.076C119.459 164.429 119.989 165.053 120.396 165.949C120.898 167.076 121.149 168.624 121.149 170.592C121.149 172.696 120.858 174.305 120.274 175.418C120.002 175.988 119.629 176.443 119.154 176.782C118.679 177.121 118.265 177.332 117.912 177.413C117.559 177.495 117.213 177.542 116.873 177.556C116.52 177.556 116.168 177.515 115.815 177.433C115.462 177.352 115.048 177.135 114.573 176.782C114.097 176.429 113.724 175.974 113.453 175.418C112.869 174.305 112.577 172.696 112.577 170.592C112.577 168.23 112.964 166.431 113.738 165.196ZM118.319 164.952C117.912 164.517 117.43 164.3 116.873 164.3C116.303 164.3 115.815 164.517 115.407 164.952C115.068 165.305 114.844 165.793 114.735 166.418C114.627 167.042 114.573 168.345 114.573 170.327C114.573 172.472 114.627 173.884 114.735 174.562C114.844 175.241 115.088 175.777 115.468 176.171C115.849 176.578 116.317 176.782 116.873 176.782C117.416 176.782 117.878 176.578 118.258 176.171C118.652 175.764 118.896 175.194 118.991 174.461C119.086 173.728 119.14 172.35 119.154 170.327C119.154 168.359 119.1 167.063 118.991 166.438C118.882 165.814 118.658 165.318 118.319 164.952Z" fill="#202020"/>
<path d="M144.036 172.282C144.036 172.282 144.036 172.194 144.036 172.017C144.036 171.841 144.131 171.705 144.321 171.61H156.151C156.355 171.718 156.457 171.854 156.457 172.017C156.457 172.18 156.355 172.316 156.151 172.424H144.321C144.131 172.329 144.036 172.194 144.036 172.017V172.282Z" fill="#202020"/>
<path d="M161.914 164.89C161.914 164.565 162.043 164.28 162.301 164.035C162.559 163.791 162.857 163.662 163.197 163.648C163.441 163.648 163.645 163.73 163.808 163.893C163.97 164.056 164.059 164.259 164.072 164.504C164.072 164.816 163.937 165.101 163.665 165.359C163.394 165.617 163.095 165.752 162.769 165.766C162.565 165.766 162.375 165.698 162.199 165.562C162.022 165.427 161.927 165.203 161.914 164.89ZM158.595 171.264C158.595 171.155 158.656 170.945 158.778 170.632C158.9 170.32 159.063 169.974 159.267 169.594C159.47 169.214 159.769 168.868 160.163 168.556C160.556 168.243 160.964 168.094 161.384 168.108C161.914 168.108 162.355 168.264 162.708 168.576C163.061 168.888 163.244 169.309 163.258 169.838C163.258 170.069 163.163 170.449 162.973 170.979C162.783 171.508 162.511 172.221 162.158 173.117C161.805 174.013 161.52 174.78 161.303 175.418C161.235 175.716 161.201 175.933 161.201 176.069C161.201 176.408 161.317 176.578 161.547 176.578C161.67 176.578 161.799 176.558 161.934 176.517C162.07 176.476 162.226 176.381 162.403 176.232C162.579 176.083 162.762 175.845 162.952 175.519C163.142 175.194 163.312 174.793 163.461 174.318C163.502 174.155 163.536 174.06 163.563 174.033C163.59 174.006 163.706 173.992 163.909 173.992C164.181 173.992 164.317 174.06 164.317 174.196C164.317 174.304 164.256 174.515 164.133 174.827C164.011 175.139 163.841 175.485 163.624 175.865C163.407 176.246 163.102 176.585 162.708 176.884C162.314 177.182 161.894 177.332 161.446 177.332C161.011 177.332 160.611 177.189 160.244 176.904C159.878 176.619 159.688 176.184 159.674 175.601C159.674 175.37 159.708 175.153 159.776 174.949C159.844 174.746 160.136 173.972 160.651 172.628C161.167 171.257 161.466 170.436 161.547 170.164C161.629 169.893 161.676 169.628 161.69 169.37C161.69 169.044 161.575 168.881 161.344 168.881H161.303C160.896 168.881 160.523 169.105 160.183 169.553C159.844 170.001 159.586 170.571 159.409 171.264C159.396 171.277 159.382 171.298 159.369 171.325C159.355 171.352 159.348 171.372 159.348 171.386C159.348 171.399 159.335 171.413 159.308 171.427C159.28 171.44 159.26 171.447 159.246 171.447C159.233 171.447 159.206 171.447 159.165 171.447C159.124 171.447 159.07 171.447 159.002 171.447H158.717C158.636 171.366 158.595 171.304 158.595 171.264Z" fill="#202020"/>
<path d="M117.108 193.397C117.108 193.071 117.237 192.786 117.494 192.542C117.752 192.298 118.051 192.169 118.39 192.155C118.635 192.155 118.838 192.237 119.001 192.4C119.164 192.562 119.252 192.766 119.266 193.01C119.266 193.323 119.13 193.608 118.859 193.866C118.587 194.124 118.289 194.259 117.963 194.273C117.759 194.273 117.569 194.205 117.393 194.069C117.216 193.933 117.121 193.709 117.108 193.397ZM113.789 199.771C113.789 199.662 113.85 199.452 113.972 199.139C114.094 198.827 114.257 198.481 114.461 198.101C114.664 197.721 114.963 197.375 115.356 197.062C115.75 196.75 116.157 196.601 116.578 196.614C117.108 196.614 117.549 196.771 117.902 197.083C118.255 197.395 118.438 197.816 118.451 198.345C118.451 198.576 118.356 198.956 118.166 199.485C117.976 200.015 117.705 200.728 117.352 201.623C116.999 202.519 116.714 203.286 116.497 203.924C116.429 204.223 116.395 204.44 116.395 204.576C116.395 204.915 116.51 205.085 116.741 205.085C116.863 205.085 116.992 205.065 117.128 205.024C117.264 204.983 117.42 204.888 117.596 204.739C117.773 204.59 117.956 204.352 118.146 204.026C118.336 203.7 118.506 203.3 118.655 202.825C118.696 202.662 118.73 202.567 118.757 202.54C118.784 202.513 118.899 202.499 119.103 202.499C119.375 202.499 119.51 202.567 119.51 202.703C119.51 202.811 119.449 203.022 119.327 203.334C119.205 203.646 119.035 203.992 118.818 204.372C118.601 204.752 118.295 205.092 117.902 205.39C117.508 205.689 117.087 205.838 116.639 205.838C116.205 205.838 115.804 205.696 115.438 205.411C115.071 205.126 114.881 204.691 114.868 204.108C114.868 203.877 114.902 203.66 114.97 203.456C115.037 203.252 115.329 202.479 115.845 201.135C116.361 199.764 116.66 198.942 116.741 198.671C116.823 198.4 116.87 198.135 116.884 197.877C116.884 197.551 116.768 197.388 116.537 197.388H116.497C116.089 197.388 115.716 197.612 115.377 198.06C115.037 198.508 114.78 199.078 114.603 199.771C114.589 199.784 114.576 199.804 114.562 199.832C114.549 199.859 114.542 199.879 114.542 199.893C114.542 199.906 114.528 199.92 114.501 199.933C114.474 199.947 114.454 199.954 114.44 199.954C114.427 199.954 114.399 199.954 114.359 199.954C114.318 199.954 114.264 199.954 114.196 199.954H113.911C113.829 199.872 113.789 199.811 113.789 199.771Z" fill="#202020"/>
<path d="M150.623 193.703C151.383 192.603 152.422 192.054 153.739 192.054C154.39 192.054 155.042 192.23 155.693 192.583C156.345 192.936 156.874 193.56 157.282 194.456C157.784 195.583 158.035 197.13 158.035 199.099C158.035 201.203 157.743 202.811 157.159 203.925C156.888 204.495 156.515 204.949 156.039 205.289C155.564 205.628 155.15 205.839 154.797 205.92C154.444 206.001 154.098 206.049 153.759 206.062C153.406 206.062 153.053 206.022 152.7 205.94C152.347 205.859 151.933 205.642 151.458 205.289C150.983 204.936 150.61 204.481 150.338 203.925C149.754 202.811 149.463 201.203 149.463 199.099C149.463 196.737 149.849 194.938 150.623 193.703ZM155.205 193.458C154.797 193.024 154.316 192.807 153.759 192.807C153.189 192.807 152.7 193.024 152.293 193.458C151.954 193.811 151.73 194.3 151.621 194.925C151.512 195.549 151.458 196.852 151.458 198.834C151.458 200.979 151.512 202.391 151.621 203.069C151.73 203.748 151.974 204.284 152.354 204.678C152.734 205.085 153.202 205.289 153.759 205.289C154.302 205.289 154.763 205.085 155.144 204.678C155.537 204.271 155.782 203.701 155.877 202.967C155.972 202.234 156.026 200.857 156.039 198.834C156.039 196.866 155.985 195.569 155.877 194.945C155.768 194.32 155.544 193.825 155.205 193.458Z" fill="#202020"/>
<path d="M165.416 163.109V161.847H170.893V210.695H165.416V209.432H169.631V163.109H165.416Z" fill="#202020"/>
</g>
<rect x="49.5072" y="262.706" width="133.235" height="56.87" fill="white"/>
<g clip-path="url(#clip1_1511_9069)">
<path d="M57.2539 296.456C56.3308 296.456 55.5842 296.15 55.014 295.539C54.4439 294.928 54.152 294.161 54.1385 293.238C54.1385 291.881 54.6339 290.618 55.6249 289.451C56.6158 288.284 57.7697 287.625 59.0864 287.476C59.1 287.462 60.0502 287.456 61.9371 287.456H64.7471C64.7607 287.469 64.781 287.483 64.8082 287.496C64.8353 287.51 64.8625 287.523 64.8896 287.537C64.9168 287.551 64.9371 287.564 64.9507 287.578C64.9643 287.591 64.9847 287.612 65.0118 287.639C65.039 287.666 65.0525 287.68 65.0525 287.68C65.0525 287.68 65.0661 287.707 65.0933 287.761C65.1204 287.815 65.1272 287.842 65.1136 287.842C65.1 287.842 65.1068 287.876 65.134 287.944C65.1611 288.012 65.1679 288.053 65.1543 288.066C65.1543 288.664 64.7132 288.962 63.8308 288.962C63.7358 288.962 63.6204 288.962 63.4847 288.962C63.3489 288.962 63.2539 288.956 63.1996 288.942H61.9779L62.0797 289.146C62.324 289.661 62.4462 290.238 62.4462 290.876C62.4462 292.37 61.9032 293.673 60.8172 294.786C59.7312 295.899 58.5434 296.456 57.2539 296.456ZM60.8579 290.571C60.8579 289.485 60.281 288.942 59.1272 288.942C57.4439 288.942 56.3511 290.123 55.8489 292.485C55.8353 292.539 55.8285 292.58 55.8285 292.607C55.7199 293.109 55.6656 293.523 55.6656 293.849C55.6656 294.528 55.8353 295.003 56.1747 295.275C56.514 295.546 56.9009 295.689 57.3353 295.702C58.0683 295.702 58.7403 295.383 59.3511 294.745C59.7448 294.338 60.0638 293.795 60.3082 293.116C60.5525 292.437 60.7018 291.894 60.7561 291.487C60.8104 291.08 60.8444 290.775 60.8579 290.571Z" fill="#1282F3"/>
<path d="M70.8013 294.42C70.7054 294.42 70.451 294.367 70.0384 294.262C69.6257 294.156 69.3233 294.103 69.1314 294.103C68.9395 294.103 68.7763 294.123 68.6419 294.161C68.5076 294.199 68.3972 294.247 68.3108 294.305C68.2245 294.363 68.1669 294.415 68.1381 294.463C68.1093 294.511 68.0757 294.564 68.0373 294.622L68.0085 294.679C67.9797 294.708 67.9077 294.722 67.7926 294.722C67.591 294.722 67.4903 294.684 67.4903 294.607C67.4903 294.559 67.5047 294.492 67.5334 294.406C67.6582 294.031 67.8646 293.71 68.1525 293.441C68.4404 293.172 68.7571 293.009 69.1026 292.952C69.2178 292.933 69.2994 292.923 69.3473 292.923C69.5873 292.923 69.8032 293.005 69.9952 293.168C70.1871 293.331 70.3695 293.489 70.5422 293.643C70.715 293.796 70.8973 293.878 71.0893 293.887C71.3004 293.887 71.5115 293.729 71.7227 293.412C71.9338 293.096 72.0442 292.937 72.0538 292.937C72.0634 292.928 72.1354 292.923 72.2697 292.923H72.4569C72.5145 292.981 72.5433 293.019 72.5433 293.038C72.5433 293.077 72.5193 293.144 72.4713 293.24C72.4233 293.336 72.3561 293.436 72.2697 293.542C72.1834 293.648 72.1018 293.753 72.025 293.859C71.9482 293.964 71.881 294.055 71.8235 294.132L71.7227 294.262C71.31 294.751 70.6574 295.399 69.7648 296.205C68.8723 297.011 68.3204 297.53 68.1093 297.76L67.9365 297.933L68.1525 297.947C68.3636 297.947 68.6707 298 69.0738 298.106C69.4769 298.211 69.7792 298.264 69.9808 298.264C70.3455 298.264 70.6814 298.173 70.9885 297.99C71.2956 297.808 71.4971 297.568 71.5931 297.271C71.6315 297.184 71.6651 297.131 71.6939 297.112C71.7227 297.093 71.7947 297.083 71.9098 297.083C72.0922 297.083 72.1834 297.131 72.1834 297.227C72.1834 297.275 72.1786 297.319 72.169 297.357C72.0058 297.952 71.6891 298.446 71.2188 298.84C70.7486 299.233 70.2783 299.435 69.808 299.444C69.5585 299.444 69.3377 299.363 69.1458 299.2C68.9539 299.036 68.7667 298.873 68.5844 298.71C68.402 298.547 68.2197 298.465 68.0373 298.465C67.615 298.465 67.2359 298.753 66.9 299.329C66.8424 299.406 66.7609 299.444 66.6553 299.444H66.5833H66.3962C66.3386 299.387 66.3098 299.344 66.3098 299.315C66.3098 299.171 66.5881 298.758 67.1448 298.077C67.5191 297.645 68.1525 297.021 69.045 296.205C69.9376 295.389 70.4894 294.871 70.7006 294.65C70.8157 294.497 70.8493 294.42 70.8013 294.42Z" fill="#1282F3"/>
<path d="M80.316 289.166C80.316 288.989 80.411 288.854 80.601 288.759H93.5717C93.7753 288.867 93.8771 289.003 93.8771 289.166C93.8771 289.315 93.7821 289.444 93.592 289.553L87.1169 289.573H80.6417C80.4246 289.505 80.316 289.37 80.316 289.166ZM80.316 293.116C80.316 292.913 80.4246 292.777 80.6417 292.709H93.592C93.7821 292.845 93.8771 292.98 93.8771 293.116C93.8771 293.293 93.7753 293.428 93.5717 293.523H80.601C80.411 293.428 80.316 293.293 80.316 293.116Z" fill="#202020"/>
<path d="M105.703 315.565V266.717H111.181V267.979H106.966V314.303H111.181V315.565H105.703Z" fill="#202020"/>
<path d="M115.762 270.209L115.498 270.311C115.308 270.379 115.036 270.447 114.683 270.515C114.33 270.583 113.936 270.63 113.502 270.657H113.115V269.721H113.502C114.14 269.693 114.731 269.592 115.274 269.415C115.817 269.239 116.197 269.076 116.414 268.926C116.631 268.777 116.821 268.628 116.984 268.478C117.011 268.438 117.093 268.417 117.228 268.417C117.351 268.417 117.466 268.458 117.575 268.54V274.628L117.595 280.736C117.69 280.831 117.771 280.893 117.839 280.92C117.907 280.947 118.07 280.974 118.328 281.001C118.586 281.028 119.007 281.042 119.59 281.042H120.12V281.979H119.896C119.611 281.938 118.532 281.917 116.658 281.917C114.812 281.917 113.746 281.938 113.461 281.979H113.217V281.042H113.746C114.045 281.042 114.303 281.042 114.52 281.042C114.737 281.042 114.907 281.035 115.029 281.021C115.151 281.008 115.26 280.988 115.355 280.96C115.45 280.933 115.504 280.92 115.518 280.92C115.532 280.92 115.572 280.886 115.64 280.818C115.708 280.75 115.749 280.723 115.762 280.736V270.209Z" fill="#202020"/>
<path d="M151.844 270.066C152.604 268.967 153.643 268.417 154.959 268.417C155.611 268.417 156.262 268.594 156.914 268.947C157.566 269.3 158.095 269.924 158.502 270.82C159.005 271.947 159.256 273.494 159.256 275.462C159.256 277.567 158.964 279.175 158.38 280.288C158.109 280.858 157.735 281.313 157.26 281.653C156.785 281.992 156.371 282.202 156.018 282.284C155.665 282.365 155.319 282.413 154.98 282.426C154.627 282.426 154.274 282.386 153.921 282.304C153.568 282.223 153.154 282.005 152.679 281.653C152.204 281.3 151.83 280.845 151.559 280.288C150.975 279.175 150.683 277.567 150.683 275.462C150.683 273.1 151.07 271.302 151.844 270.066ZM156.425 269.822C156.018 269.388 155.536 269.171 154.98 269.171C154.41 269.171 153.921 269.388 153.514 269.822C153.174 270.175 152.95 270.664 152.842 271.288C152.733 271.913 152.679 273.216 152.679 275.198C152.679 277.343 152.733 278.754 152.842 279.433C152.95 280.112 153.195 280.648 153.575 281.042C153.955 281.449 154.423 281.653 154.98 281.653C155.523 281.653 155.984 281.449 156.364 281.042C156.758 280.634 157.002 280.064 157.097 279.331C157.192 278.598 157.247 277.22 157.26 275.198C157.26 273.229 157.206 271.933 157.097 271.309C156.989 270.684 156.765 270.189 156.425 269.822Z" fill="#202020"/>
<path d="M113.38 298.573C114.14 297.474 115.179 296.924 116.495 296.924C117.147 296.924 117.798 297.1 118.45 297.453C119.102 297.806 119.631 298.431 120.038 299.327C120.541 300.453 120.792 302.001 120.792 303.969C120.792 306.073 120.5 307.682 119.916 308.795C119.645 309.365 119.271 309.82 118.796 310.159C118.321 310.499 117.907 310.709 117.554 310.791C117.201 310.872 116.855 310.92 116.516 310.933C116.163 310.933 115.81 310.892 115.457 310.811C115.104 310.729 114.69 310.512 114.215 310.159C113.74 309.806 113.366 309.352 113.095 308.795C112.511 307.682 112.219 306.073 112.219 303.969C112.219 301.607 112.606 299.809 113.38 298.573ZM117.961 298.329C117.554 297.895 117.072 297.677 116.516 297.677C115.946 297.677 115.457 297.895 115.05 298.329C114.71 298.682 114.486 299.171 114.378 299.795C114.269 300.419 114.215 301.723 114.215 303.705C114.215 305.849 114.269 307.261 114.378 307.94C114.486 308.619 114.731 309.155 115.111 309.548C115.491 309.956 115.959 310.159 116.516 310.159C117.059 310.159 117.52 309.956 117.9 309.548C118.294 309.141 118.538 308.571 118.633 307.838C118.728 307.105 118.783 305.727 118.796 303.705C118.796 301.736 118.742 300.44 118.633 299.815C118.525 299.191 118.301 298.695 117.961 298.329Z" fill="#202020"/>
<path d="M143.679 305.66C143.679 305.66 143.679 305.571 143.679 305.395C143.679 305.219 143.774 305.083 143.964 304.988H155.794C155.998 305.096 156.1 305.232 156.1 305.395C156.1 305.558 155.998 305.694 155.794 305.802H143.964C143.774 305.707 143.679 305.571 143.679 305.395V305.66Z" fill="#202020"/>
<path d="M162.147 298.716L161.882 298.818C161.692 298.886 161.421 298.954 161.068 299.021C160.715 299.089 160.321 299.137 159.887 299.164H159.5V298.227H159.887C160.525 298.2 161.115 298.098 161.658 297.922C162.201 297.745 162.582 297.583 162.799 297.433C163.016 297.284 163.206 297.135 163.369 296.985C163.396 296.945 163.477 296.924 163.613 296.924C163.735 296.924 163.851 296.965 163.959 297.046V303.135L163.98 309.243C164.075 309.338 164.156 309.399 164.224 309.427C164.292 309.454 164.455 309.481 164.713 309.508C164.971 309.535 165.391 309.549 165.975 309.549H166.505V310.485H166.281C165.996 310.445 164.916 310.424 163.043 310.424C161.197 310.424 160.131 310.445 159.846 310.485H159.602V309.549H160.131C160.43 309.549 160.688 309.549 160.905 309.549C161.122 309.549 161.292 309.542 161.414 309.528C161.536 309.515 161.645 309.494 161.74 309.467C161.835 309.44 161.889 309.427 161.903 309.427C161.916 309.427 161.957 309.393 162.025 309.325C162.093 309.257 162.134 309.23 162.147 309.243V298.716Z" fill="#202020"/>
<path d="M168.215 267.979V266.717H173.692V315.565H168.215V314.303H172.43V267.979H168.215Z" fill="#202020"/>
</g>
<rect x="49.5072" y="52.9658" width="118.934" height="56.87" fill="white"/>
<g clip-path="url(#clip2_1511_9069)">
<path d="M57.2539 86.7158C56.3308 86.7158 55.5842 86.4104 55.014 85.7995C54.4439 85.1886 54.152 84.4217 54.1385 83.4986C54.1385 82.1411 54.6339 80.8786 55.6249 79.7112C56.6159 78.5437 57.7697 77.8854 59.0865 77.736C59.1001 77.7225 60.0503 77.7157 61.9372 77.7157H64.7472C64.7608 77.7292 64.7812 77.7428 64.8083 77.7564C64.8355 77.77 64.8626 77.7835 64.8898 77.7971C64.9169 77.8107 64.9373 77.8243 64.9509 77.8378C64.9644 77.8514 64.9848 77.8718 65.0119 77.8989C65.0391 77.9261 65.0527 77.9397 65.0527 77.9397C65.0527 77.9397 65.0662 77.9668 65.0934 78.0211C65.1205 78.0754 65.1273 78.1026 65.1138 78.1026C65.1002 78.1026 65.107 78.1365 65.1341 78.2044C65.1613 78.2722 65.1681 78.313 65.1545 78.3265C65.1545 78.9238 64.7133 79.2225 63.8309 79.2225C63.7359 79.2225 63.6205 79.2225 63.4848 79.2225C63.349 79.2225 63.254 79.2157 63.1997 79.2021H61.978L62.0798 79.4057C62.3241 79.9216 62.4463 80.4985 62.4463 81.1365C62.4463 82.6298 61.9033 83.933 60.8173 85.0461C59.7313 86.1592 58.5435 86.7158 57.2539 86.7158ZM60.858 80.8311C60.858 79.7451 60.2811 79.2021 59.1272 79.2021C57.4439 79.2021 56.3512 80.3831 55.8489 82.7452C55.8353 82.7995 55.8285 82.8402 55.8285 82.8673C55.7199 83.3696 55.6656 83.7836 55.6656 84.1094C55.6656 84.7882 55.8353 85.2633 56.1747 85.5348C56.5141 85.8063 56.9009 85.9488 57.3353 85.9624C58.0684 85.9624 58.7403 85.6434 59.3512 85.0054C59.7449 84.5981 60.0639 84.0551 60.3082 83.3764C60.5526 82.6977 60.7019 82.1547 60.7562 81.7474C60.8105 81.3402 60.8445 81.0347 60.858 80.8311Z" fill="#40A839"/>
<path d="M66.5547 85.3857C66.6219 84.9826 66.881 84.5172 67.3321 83.9893C67.7831 83.4615 68.3398 83.1927 69.002 83.1831C69.3379 83.1831 69.6451 83.2695 69.9234 83.4423C70.2017 83.615 70.4081 83.831 70.5424 84.0901C70.9455 83.4854 71.4302 83.1831 71.9964 83.1831C72.3515 83.1831 72.6587 83.2887 72.9178 83.4998C73.1769 83.711 73.3113 83.9941 73.3209 84.3492C73.3209 84.6275 73.2537 84.8531 73.1193 85.0258C72.985 85.1986 72.8554 85.3042 72.7306 85.3426C72.6059 85.3809 72.4955 85.4001 72.3995 85.4001C72.2172 85.4001 72.0684 85.3473 71.9532 85.2418C71.8381 85.1362 71.7805 84.997 71.7805 84.8243C71.7805 84.3828 72.0204 84.0805 72.5003 83.9173C72.3947 83.7926 72.2028 83.7302 71.9244 83.7302C71.7997 83.7302 71.7085 83.7398 71.6509 83.759C71.2862 83.9125 71.0175 84.2292 70.8447 84.7091C70.2689 86.8302 69.981 88.0682 69.981 88.4233C69.981 88.6921 70.0577 88.884 70.2113 88.9992C70.3649 89.1143 70.5328 89.1719 70.7152 89.1719C71.0703 89.1719 71.4206 89.0136 71.7661 88.6969C72.1116 88.3801 72.3467 87.9914 72.4715 87.5308C72.5003 87.4348 72.5291 87.382 72.5579 87.3724C72.5867 87.3628 72.6635 87.3532 72.7882 87.3436H72.8458C72.9898 87.3436 73.0617 87.382 73.0617 87.4588C73.0617 87.4684 73.0521 87.5212 73.033 87.6171C72.8794 88.1642 72.5819 88.6489 72.1404 89.0712C71.6989 89.4934 71.1854 89.7046 70.6 89.7046C69.9282 89.7046 69.4195 89.4023 69.074 88.7976C68.6805 89.3927 68.2294 89.6902 67.7208 89.6902H67.6344C67.1641 89.6902 66.8282 89.5654 66.6267 89.3159C66.4251 89.0664 66.3195 88.8024 66.3099 88.5241C66.3099 88.217 66.4011 87.9675 66.5835 87.7755C66.7658 87.5836 66.9818 87.4876 67.2313 87.4876C67.644 87.4876 67.8503 87.6891 67.8503 88.0922C67.8503 88.2842 67.7927 88.4521 67.6776 88.5961C67.5624 88.74 67.452 88.836 67.3465 88.884C67.2409 88.932 67.1785 88.956 67.1593 88.956L67.1161 88.9704C67.1161 88.98 67.1449 88.9992 67.2025 89.028C67.2601 89.0568 67.3369 89.0904 67.4328 89.1287C67.5288 89.1671 67.62 89.1815 67.7064 89.1719C68.0519 89.1719 68.3494 88.956 68.5989 88.5241C68.6853 88.3705 68.7957 88.0442 68.93 87.5452C69.0644 87.0461 69.1988 86.5278 69.3331 85.9904C69.4675 85.4529 69.5443 85.1362 69.5635 85.0402C69.6115 84.7811 69.6355 84.5939 69.6355 84.4788C69.6355 84.2101 69.5635 84.0181 69.4195 83.9029C69.2756 83.7878 69.1124 83.7302 68.93 83.7302C68.5461 83.7302 68.1862 83.8837 67.8503 84.1909C67.5144 84.498 67.2793 84.8915 67.1449 85.3713C67.1257 85.4577 67.1017 85.5057 67.0729 85.5153C67.0441 85.5249 66.9674 85.5345 66.8426 85.5441H66.6411C66.5835 85.4865 66.5547 85.4337 66.5547 85.3857Z" fill="#40A839"/>
<path d="M81.8557 79.4262C81.8557 79.2497 81.9507 79.1139 82.1407 79.0189H95.1115C95.3152 79.1275 95.417 79.2633 95.417 79.4262C95.417 79.5755 95.322 79.7044 95.1319 79.813L88.6567 79.8334H82.1815C81.9643 79.7655 81.8557 79.6298 81.8557 79.4262ZM81.8557 83.3764C81.8557 83.1728 81.9643 83.0371 82.1815 82.9692H95.1319C95.322 83.1049 95.417 83.2407 95.417 83.3764C95.417 83.5529 95.3152 83.6887 95.1115 83.7837H82.1407C81.9507 83.6887 81.8557 83.5529 81.8557 83.3764Z" fill="#202020"/>
<path d="M107.243 105.826V56.9764H112.721V58.2389H108.506V104.563H112.721V105.826H107.243Z" fill="#202020"/>
<path d="M114.92 60.3261C115.68 59.2265 116.719 58.6767 118.035 58.6767C118.687 58.6767 119.339 58.8532 119.99 59.2062C120.642 59.5591 121.171 60.1836 121.579 61.0795C122.081 62.2062 122.332 63.7538 122.332 65.7221C122.332 67.8262 122.04 69.4348 121.456 70.548C121.185 71.1181 120.812 71.5729 120.336 71.9123C119.861 72.2516 119.447 72.462 119.094 72.5435C118.741 72.6249 118.395 72.6725 118.056 72.686C117.703 72.686 117.35 72.6453 116.997 72.5639C116.644 72.4824 116.23 72.2652 115.755 71.9123C115.28 71.5593 114.906 71.1046 114.635 70.548C114.051 69.4348 113.759 67.8262 113.759 65.7221C113.759 63.3601 114.146 61.5614 114.92 60.3261ZM119.502 60.0817C119.094 59.6474 118.612 59.4302 118.056 59.4302C117.486 59.4302 116.997 59.6474 116.59 60.0817C116.25 60.4347 116.026 60.9234 115.918 61.5478C115.809 62.1723 115.755 63.4755 115.755 65.4574C115.755 67.6022 115.809 69.014 115.918 69.6928C116.026 70.3715 116.271 70.9077 116.651 71.3014C117.031 71.7086 117.499 71.9123 118.056 71.9123C118.599 71.9123 119.06 71.7086 119.44 71.3014C119.834 70.8941 120.078 70.324 120.174 69.591C120.269 68.8579 120.323 67.4801 120.336 65.4574C120.336 63.489 120.282 62.1926 120.174 61.5682C120.065 60.9438 119.841 60.4483 119.502 60.0817Z" fill="#202020"/>
<path d="M147.846 60.4689L147.581 60.5707C147.391 60.6385 147.12 60.7064 146.767 60.7743C146.414 60.8422 146.02 60.8897 145.586 60.9168H145.199V59.9802H145.586C146.224 59.953 146.814 59.8512 147.357 59.6747C147.9 59.4982 148.28 59.3353 148.498 59.186C148.715 59.0367 148.905 58.8874 149.068 58.7381C149.095 58.6973 149.176 58.677 149.312 58.677C149.434 58.677 149.55 58.7177 149.658 58.7991V64.8875L149.679 70.9962C149.774 71.0912 149.855 71.1523 149.923 71.1794C149.991 71.2066 150.154 71.2337 150.412 71.2609C150.669 71.288 151.09 71.3016 151.674 71.3016H152.203V72.2383H151.979C151.694 72.1976 150.615 72.1772 148.742 72.1772C146.896 72.1772 145.83 72.1976 145.545 72.2383H145.301V71.3016H145.83C146.129 71.3016 146.387 71.3016 146.604 71.3016C146.821 71.3016 146.991 71.2948 147.113 71.2813C147.235 71.2677 147.344 71.2473 147.439 71.2202C147.534 71.193 147.588 71.1794 147.602 71.1794C147.615 71.1794 147.656 71.1455 147.724 71.0776C147.792 71.0098 147.832 70.9826 147.846 70.9962V60.4689Z" fill="#202020"/>
<path d="M117.302 88.9762L117.038 89.078C116.848 89.1459 116.576 89.2137 116.223 89.2816C115.87 89.3495 115.477 89.397 115.042 89.4241H114.655V88.4875H115.042C115.68 88.4603 116.271 88.3585 116.814 88.182C117.357 88.0056 117.737 87.8427 117.954 87.6933C118.171 87.544 118.361 87.3947 118.524 87.2454C118.551 87.2047 118.633 87.1843 118.769 87.1843C118.891 87.1843 119.006 87.225 119.115 87.3065V93.3948L119.135 99.5035C119.23 99.5985 119.311 99.6596 119.379 99.6868C119.447 99.7139 119.61 99.7411 119.868 99.7682C120.126 99.7954 120.547 99.8089 121.131 99.8089H121.66V100.746H121.436C121.151 100.705 120.072 100.685 118.198 100.685C116.352 100.685 115.287 100.705 115.001 100.746H114.757V99.8089H115.287C115.585 99.8089 115.843 99.8089 116.06 99.8089C116.278 99.8089 116.447 99.8022 116.569 99.7886C116.692 99.775 116.8 99.7546 116.895 99.7275C116.99 99.7003 117.044 99.6868 117.058 99.6868C117.072 99.6868 117.112 99.6528 117.18 99.585C117.248 99.5171 117.289 99.4899 117.302 99.5035V88.9762Z" fill="#202020"/>
<path d="M145.464 88.8334C146.224 87.7339 147.262 87.1841 148.579 87.1841C149.231 87.1841 149.882 87.3605 150.534 87.7135C151.185 88.0664 151.715 88.6909 152.122 89.5868C152.624 90.7135 152.875 92.2611 152.875 94.2294C152.875 96.3335 152.584 97.9422 152 99.0553C151.728 99.6255 151.355 100.08 150.88 100.42C150.405 100.759 149.991 100.969 149.638 101.051C149.285 101.132 148.939 101.18 148.599 101.193C148.246 101.193 147.893 101.153 147.54 101.071C147.188 100.99 146.774 100.773 146.298 100.42C145.823 100.067 145.45 99.6119 145.178 99.0553C144.595 97.9422 144.303 96.3335 144.303 94.2294C144.303 91.8674 144.69 90.0687 145.464 88.8334ZM150.045 88.5891C149.638 88.1547 149.156 87.9375 148.599 87.9375C148.029 87.9375 147.54 88.1547 147.133 88.5891C146.794 88.942 146.57 89.4307 146.461 90.0552C146.353 90.6796 146.298 91.9828 146.298 93.9647C146.298 96.1096 146.353 97.5214 146.461 98.2001C146.57 98.8788 146.814 99.415 147.194 99.8087C147.574 100.216 148.043 100.42 148.599 100.42C149.142 100.42 149.604 100.216 149.984 99.8087C150.378 99.4015 150.622 98.8313 150.717 98.0983C150.812 97.3652 150.866 95.9874 150.88 93.9647C150.88 91.9964 150.826 90.7 150.717 90.0755C150.608 89.4511 150.384 88.9556 150.045 88.5891Z" fill="#202020"/>
<path d="M153.914 58.2389V56.9764H159.391V105.826H153.914V104.563H158.129V58.2389H153.914Z" fill="#202020"/>
</g>
<rect x="334.622" y="147.659" width="148.04" height="28.133" fill="white"/>
<g clip-path="url(#clip3_1511_9069)">
<path d="M339.311 162.591C339.311 161.22 339.827 159.918 340.858 158.683C341.889 157.448 343.05 156.823 344.339 156.81C345.031 156.81 345.642 157.142 346.171 157.807C346.388 157.4 346.7 157.197 347.108 157.197C347.284 157.197 347.44 157.251 347.576 157.359C347.711 157.468 347.779 157.604 347.779 157.767C347.779 157.943 347.528 159.029 347.026 161.024C346.524 163.019 346.266 164.145 346.253 164.403C346.253 164.742 346.3 164.966 346.395 165.075C346.49 165.183 346.633 165.244 346.823 165.258C346.945 165.244 347.08 165.183 347.23 165.075C347.515 164.803 347.793 164.152 348.064 163.12C348.146 162.849 348.214 162.706 348.268 162.693C348.295 162.679 348.363 162.673 348.471 162.673H348.553C348.811 162.673 348.94 162.734 348.94 162.856C348.94 162.937 348.906 163.12 348.838 163.405C348.77 163.69 348.634 164.057 348.431 164.505C348.227 164.953 348.01 165.292 347.779 165.523C347.603 165.699 347.386 165.841 347.128 165.95C347.019 165.977 346.856 165.991 346.639 165.991C346.178 165.991 345.791 165.889 345.479 165.685C345.167 165.482 344.963 165.271 344.868 165.054L344.746 164.749C344.733 164.735 344.705 164.742 344.665 164.769C344.638 164.796 344.61 164.824 344.583 164.851C343.783 165.611 342.968 165.991 342.14 165.991C341.394 165.991 340.736 165.719 340.166 165.176C339.596 164.634 339.311 163.772 339.311 162.591ZM345.784 159.11C345.784 159.029 345.75 158.879 345.683 158.662C345.615 158.445 345.459 158.208 345.214 157.95C344.97 157.692 344.658 157.556 344.278 157.543C343.803 157.543 343.348 157.753 342.914 158.174C342.48 158.594 342.14 159.144 341.896 159.823C341.503 160.895 341.224 162.008 341.062 163.161C341.062 163.202 341.062 163.276 341.062 163.385C341.062 163.494 341.055 163.575 341.041 163.629C341.041 164.24 341.163 164.661 341.408 164.891C341.652 165.122 341.944 165.244 342.283 165.258C342.799 165.258 343.308 165.034 343.81 164.586C344.312 164.138 344.61 163.792 344.705 163.548C344.733 163.494 344.916 162.768 345.255 161.37C345.594 159.972 345.771 159.219 345.784 159.11Z" fill="#A452CE"/>
<path d="M353.154 166.011C352.231 166.011 351.484 165.706 350.914 165.095C350.344 164.484 350.053 163.718 350.039 162.795C350.039 161.438 350.534 160.176 351.525 159.008C352.516 157.841 353.669 157.183 354.986 157.034C354.999 157.02 355.949 157.013 357.836 157.013H360.645C360.658 157.027 360.679 157.041 360.706 157.054C360.733 157.068 360.76 157.081 360.787 157.095C360.815 157.108 360.835 157.122 360.848 157.136C360.862 157.149 360.882 157.17 360.91 157.197C360.937 157.224 360.95 157.237 360.95 157.237C360.95 157.237 360.964 157.265 360.991 157.319C361.018 157.373 361.025 157.4 361.011 157.4C360.998 157.4 361.005 157.434 361.032 157.502C361.059 157.57 361.066 157.611 361.052 157.624C361.052 158.221 360.611 158.52 359.729 158.52C359.634 158.52 359.518 158.52 359.383 158.52C359.247 158.52 359.152 158.513 359.098 158.5H357.876L357.978 158.703C358.222 159.219 358.345 159.796 358.345 160.433C358.345 161.926 357.802 163.229 356.716 164.342C355.63 165.455 354.443 166.011 353.154 166.011ZM356.757 160.128C356.757 159.042 356.18 158.5 355.026 158.5C353.344 158.5 352.251 159.68 351.749 162.042C351.735 162.096 351.729 162.137 351.729 162.164C351.62 162.666 351.566 163.08 351.566 163.406C351.566 164.084 351.735 164.559 352.075 164.831C352.414 165.102 352.801 165.244 353.235 165.258C353.968 165.258 354.64 164.939 355.25 164.301C355.644 163.894 355.963 163.351 356.207 162.673C356.451 161.994 356.601 161.451 356.655 161.044C356.709 160.637 356.743 160.332 356.757 160.128Z" fill="#202020"/>
<path d="M362.452 164.681C362.519 164.278 362.778 163.813 363.229 163.285C363.68 162.758 364.237 162.489 364.899 162.479C365.234 162.479 365.541 162.566 365.82 162.738C366.098 162.911 366.304 163.127 366.439 163.386C366.842 162.782 367.326 162.479 367.892 162.479C368.247 162.479 368.554 162.585 368.813 162.796C369.072 163.007 369.207 163.29 369.216 163.645C369.216 163.923 369.149 164.149 369.015 164.322C368.88 164.494 368.751 164.6 368.626 164.638C368.501 164.677 368.391 164.696 368.295 164.696C368.113 164.696 367.964 164.643 367.849 164.537C367.734 164.432 367.676 164.293 367.676 164.12C367.676 163.679 367.916 163.376 368.396 163.213C368.29 163.089 368.098 163.026 367.82 163.026C367.695 163.026 367.604 163.036 367.547 163.055C367.182 163.209 366.913 163.525 366.741 164.005C366.165 166.125 365.877 167.363 365.877 167.718C365.877 167.987 365.954 168.179 366.108 168.294C366.261 168.409 366.429 168.467 366.611 168.467C366.966 168.467 367.316 168.308 367.662 167.992C368.007 167.675 368.242 167.286 368.367 166.826C368.396 166.73 368.425 166.677 368.453 166.667C368.482 166.658 368.559 166.648 368.684 166.639H368.741C368.885 166.639 368.957 166.677 368.957 166.754C368.957 166.763 368.948 166.816 368.928 166.912C368.775 167.459 368.477 167.944 368.036 168.366C367.595 168.788 367.081 168.999 366.496 168.999C365.824 168.999 365.316 168.697 364.971 168.092C364.577 168.687 364.126 168.985 363.618 168.985H363.531C363.061 168.985 362.725 168.86 362.524 168.61C362.322 168.361 362.217 168.097 362.207 167.819C362.207 167.512 362.298 167.262 362.481 167.07C362.663 166.879 362.879 166.783 363.128 166.783C363.541 166.783 363.747 166.984 363.747 167.387C363.747 167.579 363.69 167.747 363.574 167.891C363.459 168.035 363.349 168.131 363.243 168.179C363.138 168.227 363.076 168.251 363.056 168.251L363.013 168.265C363.013 168.275 363.042 168.294 363.1 168.323C363.157 168.351 363.234 168.385 363.33 168.423C363.426 168.462 363.517 168.476 363.603 168.467C363.949 168.467 364.246 168.251 364.496 167.819C364.582 167.665 364.692 167.339 364.827 166.84C364.961 166.341 365.095 165.823 365.23 165.286C365.364 164.748 365.441 164.432 365.46 164.336C365.508 164.077 365.532 163.89 365.532 163.775C365.532 163.506 365.46 163.314 365.316 163.199C365.172 163.084 365.009 163.026 364.827 163.026C364.443 163.026 364.083 163.18 363.747 163.487C363.411 163.794 363.176 164.187 363.042 164.667C363.023 164.753 362.999 164.801 362.97 164.811C362.941 164.82 362.864 164.83 362.74 164.84H362.538C362.481 164.782 362.452 164.729 362.452 164.681Z" fill="#202020"/>
<path d="M376.619 160.963C376.619 160.963 376.619 160.874 376.619 160.698C376.619 160.522 376.714 160.386 376.904 160.291H382.991V157.237L383.011 154.184C383.147 154.007 383.276 153.919 383.398 153.919C383.574 153.919 383.71 154.021 383.805 154.225V160.291H389.871C390.075 160.399 390.177 160.535 390.177 160.698C390.177 160.861 390.075 160.997 389.871 161.105H383.805V167.172C383.696 167.362 383.574 167.457 383.439 167.457H383.398H383.357C383.194 167.457 383.072 167.362 382.991 167.172V161.105H376.904C376.714 161.01 376.619 160.874 376.619 160.698V160.963Z" fill="#202020"/>
<path d="M397.326 152.616C397.326 152.48 397.353 152.324 397.407 152.148C397.462 151.971 397.543 151.883 397.652 151.883C397.665 151.883 398.154 151.849 399.117 151.781C400.081 151.713 400.576 151.673 400.604 151.659C400.766 151.659 400.848 151.72 400.848 151.842C400.848 151.964 400.617 152.935 400.156 154.753C400.047 155.215 399.932 155.69 399.81 156.178C399.687 156.667 399.586 157.033 399.504 157.278L399.423 157.664C399.423 157.705 399.464 157.685 399.545 157.603C400.21 157.06 400.895 156.789 401.601 156.789C402.442 156.789 403.121 157.101 403.637 157.725C404.152 158.35 404.417 159.137 404.431 160.087C404.431 161.593 403.895 162.957 402.822 164.179C401.75 165.4 400.597 166.011 399.362 166.011C398.683 166.011 398.066 165.753 397.509 165.237C396.953 164.721 396.668 163.887 396.654 162.733V162.55C396.654 162.265 396.709 161.872 396.817 161.369C396.926 160.867 397.258 159.53 397.815 157.359C398.493 154.686 398.832 153.267 398.832 153.104C398.832 152.942 398.575 152.847 398.059 152.819C397.991 152.819 397.937 152.819 397.896 152.819H397.794C397.659 152.819 397.57 152.819 397.53 152.819C397.489 152.819 397.441 152.799 397.387 152.758C397.333 152.718 397.312 152.67 397.326 152.616ZM402.68 159.171V159.049C402.68 158.044 402.266 157.542 401.438 157.542C401.207 157.542 400.97 157.597 400.726 157.705C400.481 157.814 400.257 157.956 400.054 158.133C399.85 158.309 399.674 158.472 399.525 158.621C399.375 158.77 399.253 158.92 399.158 159.069L399.036 159.232L398.609 160.983C398.31 162.15 398.161 162.978 398.161 163.466C398.161 164.118 398.324 164.606 398.649 164.932C398.866 165.149 399.138 165.258 399.464 165.258C399.911 165.258 400.366 165.04 400.827 164.606C401.167 164.294 401.438 163.914 401.642 163.466C401.845 163.018 402.069 162.306 402.313 161.329C402.558 160.352 402.68 159.632 402.68 159.171Z" fill="#A452CE"/>
<path d="M408.319 166.011C407.396 166.011 406.65 165.705 406.08 165.095C405.51 164.484 405.218 163.717 405.204 162.794C405.204 161.437 405.7 160.175 406.69 159.008C407.681 157.841 408.835 157.183 410.151 157.033C410.164 157.02 411.114 157.013 413.001 157.013H415.81C415.824 157.027 415.844 157.04 415.871 157.054C415.898 157.067 415.926 157.081 415.953 157.094C415.98 157.108 416 157.122 416.014 157.135C416.027 157.149 416.048 157.169 416.075 157.196C416.102 157.223 416.116 157.237 416.116 157.237C416.116 157.237 416.129 157.264 416.156 157.318C416.183 157.373 416.19 157.4 416.177 157.4C416.163 157.4 416.17 157.434 416.197 157.502C416.224 157.569 416.231 157.61 416.217 157.624C416.217 158.221 415.776 158.519 414.894 158.519C414.799 158.519 414.684 158.519 414.548 158.519C414.412 158.519 414.317 158.513 414.263 158.499H413.042L413.143 158.703C413.388 159.218 413.51 159.795 413.51 160.433C413.51 161.926 412.967 163.229 411.881 164.341C410.796 165.454 409.608 166.011 408.319 166.011ZM411.922 160.128C411.922 159.042 411.345 158.499 410.192 158.499C408.509 158.499 407.416 159.68 406.914 162.041C406.901 162.095 406.894 162.136 406.894 162.163C406.785 162.665 406.731 163.079 406.731 163.405C406.731 164.084 406.901 164.559 407.24 164.83C407.579 165.101 407.966 165.244 408.4 165.258C409.133 165.258 409.805 164.939 410.416 164.301C410.809 163.894 411.128 163.351 411.372 162.672C411.617 161.994 411.766 161.451 411.82 161.044C411.874 160.637 411.908 160.331 411.922 160.128Z" fill="#202020"/>
<path d="M417.171 164.71C417.171 164.576 417.243 164.345 417.387 164.019C417.531 163.693 417.761 163.352 418.078 162.997C418.394 162.642 418.749 162.47 419.143 162.479C419.536 162.479 419.853 162.59 420.093 162.81C420.332 163.031 420.457 163.338 420.467 163.731C420.448 163.914 420.433 164.014 420.424 164.034C420.424 164.062 420.347 164.283 420.193 164.696C420.04 165.108 419.882 165.574 419.718 166.092C419.555 166.61 419.479 167.022 419.488 167.329C419.488 167.742 419.555 168.03 419.69 168.193C419.824 168.356 420.025 168.442 420.294 168.452C420.515 168.452 420.721 168.399 420.913 168.294C421.105 168.188 421.254 168.078 421.359 167.963C421.465 167.848 421.594 167.689 421.748 167.488C421.748 167.478 421.772 167.382 421.82 167.2C421.868 167.018 421.935 166.735 422.021 166.351C422.108 165.967 422.199 165.612 422.295 165.286C422.659 163.846 422.861 163.093 422.899 163.026C423.024 162.767 423.23 162.637 423.518 162.637C423.643 162.637 423.743 162.671 423.82 162.738C423.897 162.805 423.95 162.863 423.979 162.911C424.007 162.959 424.017 163.002 424.007 163.04C424.007 163.165 423.772 164.173 423.302 166.063C422.832 167.953 422.563 168.989 422.496 169.172C422.227 169.968 421.762 170.601 421.1 171.071C420.438 171.542 419.776 171.781 419.114 171.791C418.682 171.791 418.303 171.685 417.977 171.474C417.651 171.263 417.488 170.947 417.488 170.524C417.488 170.313 417.521 170.136 417.588 169.992C417.656 169.848 417.747 169.743 417.862 169.675C417.977 169.608 418.073 169.56 418.15 169.531C418.226 169.503 418.308 169.488 418.394 169.488C418.816 169.488 419.028 169.69 419.028 170.093C419.028 170.285 418.97 170.453 418.855 170.596C418.74 170.74 418.629 170.836 418.524 170.884C418.418 170.932 418.356 170.956 418.337 170.956L418.294 170.971C418.313 171.019 418.404 171.076 418.567 171.143C418.73 171.211 418.893 171.244 419.056 171.244H419.171C419.335 171.244 419.459 171.235 419.546 171.215C419.862 171.129 420.155 170.947 420.424 170.668C420.692 170.39 420.899 170.093 421.043 169.776C421.186 169.459 421.297 169.191 421.374 168.97C421.45 168.749 421.489 168.606 421.489 168.538L421.402 168.596C421.345 168.634 421.254 168.687 421.129 168.754C421.004 168.821 420.879 168.879 420.755 168.927C420.563 168.975 420.376 168.999 420.193 168.999C419.752 168.999 419.363 168.893 419.028 168.682C418.692 168.471 418.471 168.131 418.366 167.66C418.356 167.593 418.351 167.445 418.351 167.214C418.351 166.667 418.519 165.953 418.855 165.07C419.191 164.187 419.359 163.626 419.359 163.386C419.359 163.376 419.359 163.367 419.359 163.357C419.359 163.271 419.359 163.213 419.359 163.184C419.359 163.156 419.339 163.122 419.301 163.084C419.263 163.045 419.21 163.026 419.143 163.026H419.085C418.864 163.026 418.663 163.117 418.481 163.3C418.298 163.482 418.154 163.679 418.049 163.89C417.943 164.101 417.862 164.302 417.804 164.494C417.747 164.686 417.708 164.792 417.689 164.811C417.67 164.83 417.593 164.84 417.459 164.84H417.257C417.2 164.782 417.171 164.739 417.171 164.71Z" fill="#202020"/>
<path d="M430.604 160.963C430.604 160.963 430.604 160.874 430.604 160.698C430.604 160.522 430.699 160.386 430.889 160.291H436.975V157.237L436.996 154.184C437.131 154.007 437.26 153.919 437.382 153.919C437.559 153.919 437.695 154.021 437.79 154.225V160.291H443.856C444.059 160.399 444.161 160.535 444.161 160.698C444.161 160.861 444.059 160.997 443.856 161.105H437.79V167.172C437.681 167.362 437.559 167.457 437.423 167.457H437.382H437.342C437.179 167.457 437.057 167.362 436.975 167.172V161.105H430.889C430.699 161.01 430.604 160.874 430.604 160.698V160.963Z" fill="#202020"/>
<path d="M450.517 162.55C450.517 161.071 451.1 159.741 452.267 158.561C453.434 157.38 454.697 156.789 456.054 156.789C456.814 156.789 457.411 156.952 457.845 157.278C458.279 157.604 458.503 158.031 458.517 158.561C458.517 158.954 458.388 159.287 458.13 159.558C457.872 159.829 457.547 159.972 457.153 159.986C456.895 159.986 456.692 159.918 456.542 159.782C456.393 159.646 456.318 159.443 456.318 159.171C456.318 158.9 456.393 158.669 456.542 158.479C456.692 158.289 456.841 158.147 456.99 158.052C457.139 157.957 457.234 157.916 457.275 157.929H457.296C457.296 157.902 457.255 157.862 457.173 157.807C457.092 157.753 456.949 157.699 456.746 157.644C456.542 157.59 456.312 157.563 456.054 157.563C455.647 157.563 455.26 157.658 454.893 157.848C454.608 157.97 454.317 158.181 454.018 158.479C453.421 159.076 452.987 159.918 452.715 161.003C452.444 162.089 452.301 162.876 452.288 163.365C452.288 163.989 452.464 164.457 452.817 164.769C453.116 165.095 453.509 165.258 453.998 165.258H454.079C455.599 165.258 456.854 164.681 457.845 163.528C457.967 163.392 458.049 163.324 458.089 163.324C458.144 163.324 458.232 163.385 458.354 163.507C458.476 163.629 458.544 163.724 458.558 163.792C458.571 163.86 458.51 163.962 458.374 164.098C458.239 164.233 458.042 164.423 457.784 164.668C457.526 164.912 457.221 165.115 456.868 165.278C456.515 165.441 456.081 165.611 455.565 165.787C455.049 165.964 454.507 166.038 453.937 166.011C452.919 166.011 452.098 165.685 451.473 165.034C450.849 164.383 450.53 163.555 450.517 162.55Z" fill="#A452CE"/>
<path d="M462.385 166.011C461.462 166.011 460.715 165.706 460.145 165.095C459.575 164.484 459.284 163.718 459.27 162.795C459.27 161.438 459.765 160.176 460.756 159.008C461.747 157.841 462.9 157.183 464.217 157.034C464.23 157.02 465.18 157.013 467.067 157.013H469.876C469.89 157.027 469.91 157.041 469.937 157.054C469.964 157.068 469.991 157.081 470.019 157.095C470.046 157.108 470.066 157.122 470.08 157.136C470.093 157.149 470.114 157.17 470.141 157.197C470.168 157.224 470.181 157.237 470.181 157.237C470.181 157.237 470.195 157.265 470.222 157.319C470.249 157.373 470.256 157.4 470.243 157.4C470.229 157.4 470.236 157.434 470.263 157.502C470.29 157.57 470.297 157.611 470.283 157.624C470.283 158.221 469.842 158.52 468.96 158.52C468.865 158.52 468.75 158.52 468.614 158.52C468.478 158.52 468.383 158.513 468.329 158.5H467.108L467.209 158.703C467.454 159.219 467.576 159.796 467.576 160.433C467.576 161.926 467.033 163.229 465.947 164.342C464.862 165.455 463.674 166.011 462.385 166.011ZM465.988 160.128C465.988 159.042 465.411 158.5 464.258 158.5C462.575 158.5 461.482 159.68 460.98 162.042C460.967 162.096 460.96 162.137 460.96 162.164C460.851 162.666 460.797 163.08 460.797 163.406C460.797 164.084 460.967 164.559 461.306 164.831C461.645 165.102 462.032 165.244 462.466 165.258C463.199 165.258 463.871 164.939 464.482 164.301C464.875 163.894 465.194 163.351 465.438 162.673C465.683 161.994 465.832 161.451 465.886 161.044C465.94 160.637 465.974 160.332 465.988 160.128Z" fill="#202020"/>
<path d="M475.929 163.976C475.833 163.976 475.579 163.923 475.166 163.818C474.753 163.712 474.451 163.659 474.259 163.659C474.067 163.659 473.904 163.679 473.77 163.717C473.636 163.755 473.525 163.803 473.439 163.861C473.353 163.919 473.295 163.971 473.266 164.019C473.237 164.067 473.204 164.12 473.165 164.178L473.137 164.235C473.108 164.264 473.036 164.278 472.921 164.278C472.719 164.278 472.619 164.24 472.619 164.163C472.619 164.115 472.633 164.048 472.662 163.962C472.786 163.588 472.993 163.266 473.281 162.997C473.568 162.729 473.885 162.566 474.231 162.508C474.346 162.489 474.427 162.479 474.475 162.479C474.715 162.479 474.931 162.561 475.123 162.724C475.315 162.887 475.497 163.045 475.67 163.199C475.842 163.352 476.025 163.434 476.217 163.444C476.428 163.444 476.639 163.285 476.85 162.969C477.061 162.652 477.171 162.494 477.181 162.494C477.191 162.484 477.262 162.479 477.397 162.479H477.584C477.641 162.537 477.67 162.575 477.67 162.594C477.67 162.633 477.646 162.7 477.598 162.796C477.55 162.892 477.483 162.993 477.397 163.098C477.31 163.204 477.229 163.309 477.152 163.415C477.075 163.52 477.008 163.611 476.951 163.688L476.85 163.818C476.437 164.307 475.785 164.955 474.893 165.761C474 166.567 473.449 167.085 473.237 167.315L473.065 167.488L473.281 167.502C473.492 167.502 473.799 167.555 474.202 167.661C474.605 167.766 474.907 167.819 475.108 167.819C475.473 167.819 475.809 167.728 476.116 167.545C476.423 167.363 476.624 167.123 476.72 166.826C476.759 166.739 476.792 166.687 476.821 166.667C476.85 166.648 476.922 166.639 477.037 166.639C477.219 166.639 477.31 166.687 477.31 166.783C477.31 166.831 477.306 166.874 477.296 166.912C477.133 167.507 476.816 168.001 476.346 168.395C475.876 168.788 475.406 168.989 474.936 168.999C474.686 168.999 474.466 168.917 474.274 168.754C474.082 168.591 473.895 168.428 473.712 168.265C473.53 168.102 473.348 168.02 473.165 168.02C472.743 168.02 472.364 168.308 472.028 168.884C471.971 168.961 471.889 168.999 471.784 168.999H471.712H471.525C471.467 168.941 471.438 168.898 471.438 168.869C471.438 168.726 471.717 168.313 472.273 167.632C472.647 167.2 473.281 166.576 474.173 165.761C475.065 164.945 475.617 164.427 475.828 164.206C475.943 164.053 475.977 163.976 475.929 163.976Z" fill="#202020"/>
</g>
<rect x="289.168" y="199.792" width="238.949" height="26.549" fill="white"/>
<g clip-path="url(#clip4_1511_9069)">
<path d="M309.3 204.24C309.545 204.28 310.373 204.301 311.785 204.301C312.83 204.301 313.434 204.28 313.597 204.24H313.719V205.176H313.454C312.572 205.231 312.022 205.495 311.805 205.97C311.764 206.065 311.411 207.151 310.746 209.228C310.081 211.305 309.423 213.361 308.771 215.398C308.12 217.434 307.78 218.465 307.753 218.492C307.685 218.56 307.536 218.594 307.305 218.594C307.061 218.594 306.918 218.547 306.877 218.452C306.85 218.425 306.307 216.755 305.249 213.443L303.64 208.434L302.032 213.382C301.774 214.196 301.475 215.16 301.136 216.273C300.796 217.386 300.572 218.051 300.464 218.268C300.355 218.486 300.24 218.594 300.118 218.594H299.914C299.683 218.581 299.541 218.533 299.486 218.452C299.473 218.438 298.781 216.287 297.41 211.997C296.039 207.708 295.333 205.536 295.292 205.482C295.211 205.346 295.095 205.271 294.946 205.258C294.756 205.203 294.403 205.176 293.887 205.176H293.541V204.24H293.724C294.294 204.267 295.156 204.28 296.31 204.28C296.446 204.28 296.629 204.28 296.86 204.28C297.091 204.28 297.328 204.28 297.572 204.28C297.817 204.28 298.041 204.274 298.244 204.26C298.448 204.246 298.631 204.24 298.794 204.24H299.018H299.242V205.176H298.977C298 205.176 297.511 205.292 297.511 205.522C297.511 205.577 298.027 207.199 299.059 210.389L300.586 215.214L301.869 211.244C302.724 208.583 303.165 207.178 303.192 207.029C303.124 206.839 303.056 206.622 302.988 206.378C302.921 206.133 302.873 205.97 302.846 205.889C302.819 205.807 302.771 205.699 302.703 205.563C302.636 205.427 302.588 205.359 302.561 205.359C302.534 205.359 302.452 205.326 302.317 205.258C302.181 205.19 302.072 205.169 301.991 205.197C301.909 205.224 301.74 205.217 301.482 205.176H300.912V204.24H301.075C301.197 204.28 302.011 204.301 303.518 204.301C305.16 204.301 306.124 204.28 306.409 204.24H306.613V205.176H306.348C305.384 205.176 304.902 205.298 304.902 205.543L307.977 215.174C309.904 209.282 310.868 206.201 310.868 205.93C310.868 205.862 310.828 205.78 310.746 205.685C310.665 205.59 310.502 205.488 310.257 205.38C310.013 205.271 309.708 205.203 309.341 205.176H309.117V204.24H309.3Z" fill="#202020"/>
<path d="M314.94 217.21H315.226C315.755 217.21 316.074 217.115 316.183 216.925V216.762C316.183 216.64 316.183 216.484 316.183 216.294C316.183 216.104 316.183 215.88 316.183 215.622C316.183 215.364 316.183 215.072 316.183 214.746C316.183 214.42 316.189 214.081 316.203 213.728C316.216 213.375 316.216 213.002 316.203 212.608C316.189 212.215 316.189 211.828 316.203 211.448C316.203 210.945 316.203 210.416 316.203 209.859C316.203 209.303 316.203 208.794 316.203 208.332C316.203 207.871 316.196 207.464 316.183 207.111C316.169 206.758 316.169 206.459 316.183 206.215C316.196 205.971 316.196 205.855 316.183 205.869C316.142 205.611 316.047 205.441 315.897 205.36C315.748 205.278 315.443 205.217 314.981 205.176H314.615V204.708C314.615 204.396 314.628 204.24 314.655 204.24L314.859 204.219C314.995 204.206 315.192 204.192 315.45 204.179C315.707 204.165 315.959 204.152 316.203 204.138C316.434 204.124 316.685 204.111 316.956 204.097C317.228 204.084 317.431 204.063 317.567 204.036C317.703 204.009 317.777 204.002 317.791 204.016H317.852V210.674C318.667 209.656 319.644 209.147 320.784 209.147C322.454 209.147 323.37 209.914 323.533 211.448C323.546 211.543 323.553 212.486 323.553 214.278V216.029C323.553 216.545 323.567 216.85 323.594 216.945C323.621 217.04 323.696 217.108 323.818 217.149C324.103 217.19 324.436 217.21 324.816 217.21H325.141V218.146H324.979L324.49 218.126C324.178 218.113 323.838 218.106 323.472 218.106C323.105 218.106 322.847 218.099 322.698 218.085C321.3 218.085 320.54 218.106 320.418 218.146H320.255V217.21H320.581C321.409 217.21 321.823 217.101 321.823 216.884C321.836 216.857 321.843 215.92 321.843 214.074C321.829 212.242 321.816 211.271 321.802 211.163C321.721 210.783 321.585 210.497 321.395 210.307C321.205 210.117 321.042 210.002 320.906 209.961C320.771 209.921 320.594 209.907 320.377 209.921C319.766 209.921 319.23 210.151 318.768 210.613C318.402 210.979 318.171 211.353 318.076 211.733C317.981 212.113 317.927 212.676 317.913 213.423V214.726V215.947C317.913 216.355 317.92 216.626 317.934 216.762C317.947 216.898 317.968 216.986 317.995 217.027C318.022 217.067 318.083 217.108 318.178 217.149C318.463 217.19 318.796 217.21 319.176 217.21H319.501V218.146H319.339L318.87 218.126C318.544 218.113 318.198 218.106 317.832 218.106C317.465 218.106 317.207 218.099 317.058 218.085C315.66 218.085 314.9 218.106 314.778 218.146H314.615V217.21H314.94Z" fill="#202020"/>
<path d="M328.216 211.936C328.216 211.936 328.067 211.936 327.768 211.936C327.469 211.936 327.218 211.835 327.015 211.631C326.811 211.427 326.709 211.163 326.709 210.837C326.709 210.362 326.94 209.941 327.401 209.575C327.863 209.208 328.684 209.025 329.865 209.025C330.856 209.025 331.657 209.242 332.268 209.676C332.879 210.111 333.286 210.627 333.489 211.224C333.557 211.414 333.591 211.624 333.591 211.855C333.591 212.086 333.598 212.866 333.612 214.197V215.622C333.612 216.273 333.646 216.721 333.713 216.966C333.781 217.21 333.924 217.332 334.141 217.332C334.345 217.332 334.48 217.224 334.548 217.006C334.616 216.789 334.65 216.43 334.65 215.927V215.194H335.465V215.988C335.451 216.531 335.431 216.85 335.403 216.945C335.281 217.353 335.044 217.672 334.691 217.902C334.338 218.133 333.965 218.255 333.571 218.269C333.177 218.282 332.858 218.16 332.614 217.902C332.37 217.644 332.207 217.359 332.125 217.047V216.966L332.085 217.027C332.057 217.067 332.023 217.108 331.983 217.149C331.942 217.19 331.888 217.251 331.82 217.332C331.752 217.414 331.671 217.488 331.576 217.556C331.481 217.624 331.379 217.705 331.27 217.8C331.162 217.896 331.039 217.97 330.904 218.024C330.768 218.079 330.619 218.133 330.456 218.187C330.293 218.242 330.116 218.282 329.926 218.31C329.736 218.337 329.526 218.357 329.295 218.371C328.481 218.371 327.748 218.16 327.096 217.739C326.445 217.319 326.119 216.728 326.119 215.968C326.119 215.683 326.166 215.411 326.261 215.154C326.356 214.896 326.54 214.617 326.811 214.319C327.083 214.02 327.408 213.769 327.788 213.565C328.168 213.362 328.698 213.172 329.377 212.995C330.055 212.819 330.802 212.717 331.616 212.69H331.901V212.242C331.901 211.78 331.861 211.441 331.779 211.224C331.481 210.26 330.822 209.778 329.804 209.778C329.56 209.778 329.329 209.785 329.112 209.799C328.895 209.812 328.725 209.839 328.603 209.88C328.481 209.921 328.426 209.941 328.44 209.941C328.739 210.145 328.888 210.443 328.888 210.837C328.888 211.176 328.779 211.441 328.562 211.631L328.216 211.936ZM327.992 215.988C327.992 216.409 328.155 216.782 328.481 217.108C328.806 217.434 329.207 217.604 329.682 217.617C330.198 217.617 330.652 217.461 331.046 217.149C331.44 216.837 331.704 216.43 331.84 215.927C331.867 215.832 331.888 215.384 331.901 214.583C331.901 213.796 331.895 213.402 331.881 213.402C331.772 213.402 331.63 213.409 331.453 213.423C331.277 213.436 330.971 213.498 330.537 213.606C330.103 213.715 329.709 213.85 329.356 214.013C329.003 214.176 328.691 214.427 328.42 214.767C328.148 215.106 328.006 215.513 327.992 215.988Z" fill="#202020"/>
<path d="M336.157 209.554C336.876 209.5 337.433 209.12 337.826 208.414C338.22 207.708 338.437 206.88 338.478 205.93V205.624H339.292V209.371H342.041V210.307H339.292V213.239C339.306 214.936 339.313 215.893 339.313 216.11C339.313 216.328 339.36 216.545 339.455 216.762C339.645 217.291 339.978 217.556 340.453 217.556C341.05 217.556 341.417 217.074 341.552 216.11C341.566 216.002 341.573 215.69 341.573 215.174V214.461H342.387V215.174V215.418C342.387 216.463 342.102 217.257 341.532 217.8C341.166 218.167 340.691 218.35 340.107 218.35C339.645 218.35 339.245 218.269 338.906 218.106C338.566 217.943 338.308 217.732 338.132 217.475C337.955 217.217 337.826 216.979 337.745 216.762C337.664 216.545 337.616 216.328 337.602 216.11C337.589 216.015 337.582 215.011 337.582 213.097V210.307H335.974V209.554H336.157Z" fill="#202020"/>
<path d="M351.407 211.936C351.407 211.936 351.258 211.936 350.959 211.936C350.661 211.936 350.41 211.835 350.206 211.631C350.002 211.427 349.901 211.163 349.901 210.837C349.901 210.362 350.131 209.941 350.593 209.575C351.054 209.208 351.876 209.025 353.057 209.025C354.047 209.025 354.848 209.242 355.459 209.676C356.07 210.111 356.477 210.627 356.681 211.224C356.749 211.414 356.783 211.624 356.783 211.855C356.783 212.086 356.789 212.866 356.803 214.197V215.622C356.803 216.273 356.837 216.721 356.905 216.966C356.973 217.21 357.115 217.332 357.332 217.332C357.536 217.332 357.672 217.224 357.74 217.006C357.807 216.789 357.841 216.43 357.841 215.927V215.194H358.656V215.988C358.642 216.531 358.622 216.85 358.595 216.945C358.473 217.353 358.235 217.672 357.882 217.902C357.529 218.133 357.156 218.255 356.762 218.269C356.369 218.282 356.05 218.16 355.805 217.902C355.561 217.644 355.398 217.359 355.317 217.047V216.966L355.276 217.027C355.249 217.067 355.215 217.108 355.174 217.149C355.133 217.19 355.079 217.251 355.011 217.332C354.943 217.414 354.862 217.488 354.767 217.556C354.672 217.624 354.57 217.705 354.461 217.8C354.353 217.896 354.231 217.97 354.095 218.024C353.959 218.079 353.81 218.133 353.647 218.187C353.484 218.242 353.308 218.282 353.118 218.31C352.928 218.337 352.717 218.357 352.486 218.371C351.672 218.371 350.939 218.16 350.287 217.739C349.636 217.319 349.31 216.728 349.31 215.968C349.31 215.683 349.358 215.411 349.453 215.154C349.548 214.896 349.731 214.617 350.002 214.319C350.274 214.02 350.6 213.769 350.98 213.565C351.36 213.362 351.889 213.172 352.568 212.995C353.247 212.819 353.993 212.717 354.808 212.69H355.093V212.242C355.093 211.78 355.052 211.441 354.97 211.224C354.672 210.26 354.014 209.778 352.995 209.778C352.751 209.778 352.52 209.785 352.303 209.799C352.086 209.812 351.916 209.839 351.794 209.88C351.672 209.921 351.618 209.941 351.631 209.941C351.93 210.145 352.079 210.443 352.079 210.837C352.079 211.176 351.971 211.441 351.753 211.631L351.407 211.936ZM351.183 215.988C351.183 216.409 351.346 216.782 351.672 217.108C351.998 217.434 352.398 217.604 352.873 217.617C353.389 217.617 353.844 217.461 354.237 217.149C354.631 216.837 354.896 216.43 355.032 215.927C355.059 215.832 355.079 215.384 355.093 214.583C355.093 213.796 355.086 213.402 355.072 213.402C354.964 213.402 354.821 213.409 354.645 213.423C354.468 213.436 354.163 213.498 353.728 213.606C353.294 213.715 352.9 213.85 352.548 214.013C352.195 214.176 351.882 214.427 351.611 214.767C351.339 215.106 351.197 215.513 351.183 215.988Z" fill="#202020"/>
<path d="M359.531 217.21H359.816C360.346 217.21 360.665 217.115 360.773 216.925V216.762C360.773 216.64 360.773 216.484 360.773 216.294C360.773 216.104 360.78 215.893 360.794 215.662C360.807 215.432 360.807 215.167 360.794 214.868C360.78 214.57 360.78 214.285 360.794 214.013C360.794 213.592 360.794 213.144 360.794 212.669C360.794 212.194 360.794 211.794 360.794 211.468L360.773 211C360.733 210.742 360.638 210.572 360.488 210.491C360.339 210.409 360.034 210.348 359.572 210.307H359.206V209.839C359.206 209.527 359.219 209.371 359.246 209.371L359.45 209.35C359.586 209.337 359.776 209.323 360.02 209.31C360.264 209.296 360.509 209.283 360.753 209.269C360.97 209.255 361.208 209.242 361.466 209.228C361.724 209.215 361.92 209.194 362.056 209.167C362.192 209.14 362.267 209.133 362.28 209.147H362.341V210.552C362.871 209.629 363.529 209.167 364.316 209.167H364.438C365.049 209.167 365.497 209.317 365.782 209.615C366.067 209.914 366.21 210.226 366.21 210.552C366.21 210.837 366.122 211.081 365.945 211.285C365.769 211.488 365.511 211.59 365.171 211.59C364.832 211.59 364.581 211.482 364.418 211.264C364.255 211.047 364.167 210.816 364.153 210.572C364.153 210.45 364.167 210.341 364.194 210.246C364.221 210.151 364.255 210.07 364.296 210.002C364.337 209.934 364.357 209.9 364.357 209.9C364.33 209.873 364.174 209.9 363.889 209.982C363.671 210.09 363.509 210.192 363.4 210.287C362.762 210.898 362.443 212.113 362.443 213.932V215.011C362.443 215.187 362.443 215.371 362.443 215.561C362.443 215.751 362.443 215.927 362.443 216.09C362.443 216.253 362.45 216.389 362.463 216.497C362.477 216.606 362.477 216.708 362.463 216.803V216.904C362.477 216.932 362.497 216.959 362.524 216.986C362.552 217.013 362.586 217.033 362.626 217.047C362.667 217.061 362.701 217.081 362.728 217.108C362.755 217.135 362.803 217.149 362.871 217.149C362.938 217.149 362.986 217.156 363.013 217.169C363.04 217.183 363.101 217.19 363.196 217.19C363.291 217.19 363.352 217.19 363.38 217.19C363.407 217.19 363.475 217.196 363.583 217.21C363.692 217.223 363.76 217.223 363.787 217.21H364.418V218.146H364.235C363.99 218.106 363.129 218.085 361.649 218.085C360.251 218.085 359.491 218.106 359.368 218.146H359.206V217.21H359.531Z" fill="#202020"/>
<path d="M367.35 213.708C367.35 212.961 367.486 212.283 367.757 211.672C368.029 211.061 368.368 210.566 368.775 210.185C369.183 209.805 369.624 209.52 370.099 209.33C370.574 209.14 371.022 209.038 371.443 209.025C372.162 209.025 372.78 209.147 373.296 209.391C373.811 209.636 374.205 209.975 374.476 210.409C374.748 210.844 374.938 211.278 375.047 211.713C375.155 212.147 375.216 212.629 375.23 213.158C375.23 213.253 375.182 213.348 375.087 213.443H369.345V213.749C369.345 215.758 370.024 216.979 371.382 217.414C371.653 217.495 371.952 217.536 372.277 217.536C372.848 217.536 373.336 217.319 373.743 216.884C373.974 216.653 374.157 216.368 374.293 216.029L374.497 215.54C374.538 215.5 374.646 215.479 374.823 215.479H374.884C375.114 215.479 375.23 215.547 375.23 215.683C375.23 215.737 375.209 215.825 375.169 215.948C374.911 216.694 374.483 217.285 373.886 217.719C373.289 218.153 372.617 218.371 371.87 218.371C370.581 218.371 369.508 217.902 368.653 216.966C367.798 216.029 367.364 214.943 367.35 213.708ZM373.56 212.547C373.411 210.81 372.766 209.887 371.626 209.778H371.585C371.477 209.778 371.368 209.785 371.259 209.799C371.151 209.812 370.981 209.866 370.75 209.961C370.52 210.056 370.323 210.199 370.16 210.389C369.997 210.579 369.841 210.857 369.692 211.224C369.542 211.59 369.434 212.038 369.366 212.568V212.71H373.56V212.547Z" fill="#202020"/>
<path d="M381.46 209.554C382.18 209.5 382.736 209.12 383.13 208.414C383.524 207.708 383.741 206.88 383.781 205.93V205.624H384.596V209.371H387.345V210.307H384.596V213.239C384.61 214.936 384.616 215.893 384.616 216.11C384.616 216.328 384.664 216.545 384.759 216.762C384.949 217.291 385.281 217.556 385.757 217.556C386.354 217.556 386.72 217.074 386.856 216.11C386.87 216.002 386.876 215.69 386.876 215.174V214.461H387.691V215.174V215.418C387.691 216.463 387.406 217.257 386.836 217.8C386.469 218.167 385.994 218.35 385.41 218.35C384.949 218.35 384.548 218.269 384.209 218.106C383.87 217.943 383.612 217.732 383.435 217.475C383.259 217.217 383.13 216.979 383.048 216.762C382.967 216.545 382.92 216.328 382.906 216.11C382.892 216.015 382.886 215.011 382.886 213.097V210.307H381.277V209.554H381.46Z" fill="#202020"/>
<path d="M389.666 217.21H389.951C390.48 217.21 390.799 217.115 390.908 216.925V216.762C390.908 216.64 390.908 216.484 390.908 216.294C390.908 216.104 390.908 215.88 390.908 215.622C390.908 215.364 390.908 215.072 390.908 214.746C390.908 214.42 390.915 214.081 390.928 213.728C390.942 213.375 390.942 213.002 390.928 212.608C390.915 212.215 390.915 211.828 390.928 211.448C390.928 210.945 390.928 210.416 390.928 209.859C390.928 209.303 390.928 208.794 390.928 208.332C390.928 207.871 390.921 207.464 390.908 207.111C390.894 206.758 390.894 206.459 390.908 206.215C390.921 205.971 390.921 205.855 390.908 205.869C390.867 205.611 390.772 205.441 390.623 205.36C390.474 205.278 390.168 205.217 389.707 205.176H389.34V204.708C389.34 204.396 389.354 204.24 389.381 204.24L389.584 204.219C389.72 204.206 389.917 204.192 390.175 204.179C390.433 204.165 390.684 204.152 390.928 204.138C391.159 204.124 391.41 204.111 391.682 204.097C391.953 204.084 392.157 204.063 392.292 204.036C392.428 204.009 392.503 204.002 392.516 204.016H392.578V210.674C393.392 209.656 394.369 209.147 395.51 209.147C397.179 209.147 398.095 209.914 398.258 211.448C398.272 211.543 398.279 212.486 398.279 214.278V216.029C398.279 216.545 398.292 216.85 398.319 216.945C398.346 217.04 398.421 217.108 398.543 217.149C398.828 217.19 399.161 217.21 399.541 217.21H399.867V218.146H399.704L399.215 218.126C398.903 218.113 398.564 218.106 398.197 218.106C397.831 218.106 397.573 218.099 397.423 218.085C396.025 218.085 395.265 218.106 395.143 218.146H394.98V217.21H395.306C396.134 217.21 396.548 217.101 396.548 216.884C396.562 216.857 396.568 215.92 396.568 214.074C396.555 212.242 396.541 211.271 396.528 211.163C396.446 210.783 396.31 210.497 396.12 210.307C395.93 210.117 395.767 210.002 395.632 209.961C395.496 209.921 395.319 209.907 395.102 209.921C394.491 209.921 393.955 210.151 393.494 210.613C393.127 210.979 392.897 211.353 392.801 211.733C392.706 212.113 392.652 212.676 392.639 213.423V214.726V215.947C392.639 216.355 392.645 216.626 392.659 216.762C392.673 216.898 392.693 216.986 392.72 217.027C392.747 217.067 392.808 217.108 392.903 217.149C393.188 217.19 393.521 217.21 393.901 217.21H394.227V218.146H394.064L393.596 218.126C393.27 218.113 392.924 218.106 392.557 218.106C392.191 218.106 391.933 218.099 391.783 218.085C390.385 218.085 389.625 218.106 389.503 218.146H389.34V217.21H389.666Z" fill="#202020"/>
<path d="M400.722 213.708C400.722 212.961 400.858 212.283 401.129 211.672C401.401 211.061 401.74 210.566 402.147 210.185C402.554 209.805 402.996 209.52 403.471 209.33C403.946 209.14 404.394 209.038 404.815 209.025C405.534 209.025 406.152 209.147 406.667 209.391C407.183 209.636 407.577 209.975 407.848 210.409C408.12 210.844 408.31 211.278 408.418 211.713C408.527 212.147 408.588 212.629 408.602 213.158C408.602 213.253 408.554 213.348 408.459 213.443H402.717V213.749C402.717 215.758 403.396 216.979 404.753 217.414C405.025 217.495 405.324 217.536 405.649 217.536C406.219 217.536 406.708 217.319 407.115 216.884C407.346 216.653 407.529 216.368 407.665 216.029L407.869 215.54C407.909 215.5 408.018 215.479 408.195 215.479H408.256C408.486 215.479 408.602 215.547 408.602 215.683C408.602 215.737 408.581 215.825 408.541 215.948C408.283 216.694 407.855 217.285 407.258 217.719C406.661 218.153 405.989 218.371 405.242 218.371C403.953 218.371 402.88 217.902 402.025 216.966C401.17 216.029 400.736 214.943 400.722 213.708ZM406.932 212.547C406.783 210.81 406.138 209.887 404.998 209.778H404.957C404.849 209.778 404.74 209.785 404.631 209.799C404.523 209.812 404.353 209.866 404.122 209.961C403.892 210.056 403.695 210.199 403.532 210.389C403.369 210.579 403.213 210.857 403.064 211.224C402.914 211.59 402.806 212.038 402.738 212.568V212.71H406.932V212.547Z" fill="#202020"/>
<path d="M414.853 213.708C414.853 212.961 414.988 212.283 415.26 211.672C415.531 211.061 415.871 210.566 416.278 210.185C416.685 209.805 417.126 209.52 417.601 209.33C418.076 209.14 418.524 209.038 418.945 209.025C419.665 209.025 420.282 209.147 420.798 209.391C421.314 209.636 421.708 209.975 421.979 210.409C422.25 210.844 422.441 211.278 422.549 211.713C422.658 212.147 422.719 212.629 422.732 213.158C422.732 213.253 422.685 213.348 422.59 213.443H416.848V213.749C416.848 215.758 417.527 216.979 418.884 217.414C419.156 217.495 419.454 217.536 419.78 217.536C420.35 217.536 420.839 217.319 421.246 216.884C421.477 216.653 421.66 216.368 421.796 216.029L421.999 215.54C422.04 215.5 422.149 215.479 422.325 215.479H422.386C422.617 215.479 422.732 215.547 422.732 215.683C422.732 215.737 422.712 215.825 422.671 215.948C422.413 216.694 421.986 217.285 421.389 217.719C420.791 218.153 420.119 218.371 419.373 218.371C418.083 218.371 417.011 217.902 416.156 216.966C415.301 216.029 414.866 214.943 414.853 213.708ZM421.063 212.547C420.913 210.81 420.269 209.887 419.128 209.778H419.088C418.979 209.778 418.871 209.785 418.762 209.799C418.653 209.812 418.484 209.866 418.253 209.961C418.022 210.056 417.825 210.199 417.662 210.389C417.5 210.579 417.343 210.857 417.194 211.224C417.045 211.59 416.936 212.038 416.868 212.568V212.71H421.063V212.547Z" fill="#202020"/>
<path d="M424.728 205.747C424.728 205.366 424.85 205.068 425.094 204.851C425.339 204.633 425.637 204.525 425.99 204.525C426.302 204.552 426.574 204.667 426.805 204.871C427.035 205.075 427.151 205.366 427.151 205.747C427.151 206.154 427.035 206.459 426.805 206.663C426.574 206.866 426.289 206.968 425.949 206.968C425.61 206.968 425.325 206.866 425.094 206.663C424.864 206.459 424.741 206.154 424.728 205.747ZM428.352 218.146C428.148 218.106 427.443 218.085 426.234 218.085C426.085 218.085 425.834 218.085 425.481 218.085C425.128 218.085 424.789 218.099 424.463 218.126L424.015 218.146H423.852V217.21H424.178C424.558 217.21 424.891 217.19 425.176 217.149C425.298 217.094 425.373 217.02 425.4 216.925C425.427 216.83 425.44 216.545 425.44 216.07V213.972V212.181C425.44 211.475 425.427 211.027 425.4 210.837C425.373 210.647 425.278 210.518 425.115 210.45C424.925 210.355 424.606 210.307 424.158 210.307H423.934V209.839C423.934 209.527 423.947 209.371 423.974 209.371L424.178 209.35C424.314 209.337 424.504 209.323 424.748 209.31C424.992 209.296 425.237 209.283 425.481 209.269C425.712 209.255 425.956 209.242 426.214 209.228C426.472 209.215 426.669 209.194 426.805 209.167C426.94 209.14 427.015 209.133 427.029 209.147H427.09V216.884C427.158 217.02 427.239 217.101 427.334 217.128C427.429 217.156 427.667 217.183 428.047 217.21H428.515V218.146H428.352Z" fill="#202020"/>
<path d="M435.682 209.819C436.279 209.221 436.958 208.923 437.718 208.923C438.125 208.923 438.417 209.052 438.594 209.31C438.77 209.568 438.858 209.826 438.858 210.083C438.858 210.273 438.797 210.443 438.675 210.592C438.553 210.742 438.37 210.816 438.125 210.816C437.677 210.816 437.426 210.613 437.372 210.206C437.345 210.016 437.365 209.873 437.433 209.778C437.433 209.764 437.44 209.744 437.453 209.717V209.697C437.073 209.737 436.714 209.887 436.374 210.144C436.266 210.212 436.211 210.26 436.211 210.287C436.211 210.301 436.239 210.335 436.293 210.389C436.347 210.443 436.408 210.525 436.476 210.633C436.544 210.742 436.619 210.864 436.7 211C436.782 211.135 436.843 211.312 436.883 211.529C436.924 211.746 436.951 211.97 436.965 212.201C436.965 213.043 436.632 213.755 435.967 214.339C435.302 214.923 434.481 215.221 433.503 215.235C432.825 215.235 432.153 215.045 431.488 214.665C431.338 214.909 431.264 215.167 431.264 215.438C431.264 215.913 431.44 216.266 431.793 216.497C431.915 216.579 432.031 216.619 432.139 216.619C432.248 216.619 432.736 216.633 433.605 216.66C434.745 216.674 435.478 216.714 435.804 216.782C436.632 216.904 437.284 217.183 437.759 217.617C438.288 218.146 438.553 218.812 438.553 219.612C438.553 220.522 438.024 221.221 436.965 221.71C436.15 222.13 435.187 222.341 434.074 222.341C432.947 222.341 431.976 222.13 431.162 221.71C430.103 221.235 429.574 220.556 429.574 219.674C429.574 219.185 429.716 218.778 430.001 218.452C430.286 218.126 430.571 217.902 430.856 217.78L431.08 217.658C430.592 217.237 430.347 216.667 430.347 215.947C430.347 215.309 430.544 214.733 430.938 214.217C430.341 213.619 430.042 212.948 430.042 212.201C430.042 211.346 430.381 210.626 431.06 210.043C431.739 209.459 432.56 209.16 433.524 209.147C434.216 209.147 434.861 209.323 435.458 209.676L435.682 209.819ZM435.071 211.163C435.003 210.782 434.827 210.484 434.542 210.267C434.257 210.049 433.904 209.934 433.483 209.921C433.089 209.921 432.75 210.029 432.465 210.246C432.18 210.463 432.003 210.769 431.936 211.163C431.895 211.393 431.875 211.739 431.875 212.201C431.875 212.798 431.922 213.239 432.017 213.524C432.112 213.81 432.316 214.047 432.628 214.237C432.859 214.373 433.151 214.441 433.503 214.441C433.802 214.441 434.06 214.393 434.277 214.298C434.494 214.203 434.65 214.081 434.745 213.932C434.84 213.782 434.915 213.647 434.969 213.524C435.024 213.402 435.058 213.3 435.071 213.219C435.112 213.002 435.132 212.662 435.132 212.201C435.132 211.739 435.112 211.393 435.071 211.163ZM437.189 219.674C437.189 219.334 437.094 219.056 436.904 218.839C436.714 218.622 436.435 218.465 436.069 218.37C435.702 218.275 435.37 218.214 435.071 218.187C434.773 218.16 434.406 218.146 433.972 218.146H433.422C432.513 218.146 431.97 218.187 431.793 218.269C431.522 218.391 431.311 218.581 431.162 218.839C431.013 219.097 430.931 219.368 430.918 219.653C430.918 219.789 430.958 219.945 431.04 220.121C431.121 220.298 431.264 220.502 431.467 220.732C431.671 220.963 431.997 221.153 432.445 221.302C432.893 221.452 433.436 221.533 434.074 221.547C435.01 221.547 435.764 221.357 436.334 220.977C436.904 220.597 437.189 220.162 437.189 219.674Z" fill="#202020"/>
<path d="M439.734 213.708C439.734 212.961 439.87 212.283 440.141 211.672C440.413 211.061 440.752 210.566 441.159 210.185C441.566 209.805 442.008 209.52 442.483 209.33C442.958 209.14 443.406 209.038 443.827 209.025C444.546 209.025 445.164 209.147 445.679 209.391C446.195 209.636 446.589 209.975 446.86 210.409C447.132 210.844 447.322 211.278 447.43 211.713C447.539 212.147 447.6 212.629 447.614 213.158C447.614 213.253 447.566 213.348 447.471 213.443H441.729V213.749C441.729 215.758 442.408 216.979 443.765 217.414C444.037 217.495 444.336 217.536 444.661 217.536C445.231 217.536 445.72 217.319 446.127 216.884C446.358 216.653 446.541 216.368 446.677 216.029L446.881 215.54C446.921 215.5 447.03 215.479 447.206 215.479H447.268C447.498 215.479 447.614 215.547 447.614 215.683C447.614 215.737 447.593 215.825 447.553 215.948C447.295 216.694 446.867 217.285 446.27 217.719C445.673 218.153 445.001 218.371 444.254 218.371C442.965 218.371 441.892 217.902 441.037 216.966C440.182 216.029 439.747 214.943 439.734 213.708ZM445.944 212.547C445.795 210.81 445.15 209.887 444.01 209.778H443.969C443.86 209.778 443.752 209.785 443.643 209.799C443.535 209.812 443.365 209.866 443.134 209.961C442.903 210.056 442.707 210.199 442.544 210.389C442.381 210.579 442.225 210.857 442.075 211.224C441.926 211.59 441.818 212.038 441.75 212.568V212.71H445.944V212.547Z" fill="#202020"/>
<path d="M449.039 217.21H449.324C449.853 217.21 450.172 217.115 450.281 216.925V216.762C450.281 216.64 450.281 216.484 450.281 216.294C450.281 216.104 450.281 215.893 450.281 215.662C450.281 215.432 450.288 215.167 450.301 214.868C450.315 214.57 450.315 214.285 450.301 214.013C450.301 213.592 450.301 213.144 450.301 212.669C450.301 212.194 450.295 211.794 450.281 211.468V211C450.24 210.742 450.145 210.572 449.996 210.491C449.847 210.409 449.541 210.348 449.08 210.307H448.713V209.839C448.713 209.527 448.727 209.371 448.754 209.371L448.958 209.35C449.093 209.337 449.283 209.323 449.528 209.31C449.772 209.296 450.023 209.283 450.281 209.269C450.512 209.255 450.756 209.242 451.014 209.228C451.272 209.215 451.469 209.194 451.604 209.167C451.74 209.14 451.815 209.133 451.828 209.147H451.89V209.961C451.89 210.477 451.896 210.735 451.91 210.735C451.923 210.735 451.957 210.701 452.012 210.633C452.066 210.565 452.147 210.464 452.256 210.328C452.365 210.192 452.494 210.07 452.643 209.961C452.792 209.853 452.989 209.724 453.233 209.574C453.478 209.425 453.736 209.317 454.007 209.249C454.279 209.181 454.625 209.147 455.046 209.147C456.593 209.201 457.455 209.968 457.631 211.448C457.645 211.543 457.652 212.486 457.652 214.278V216.029C457.652 216.545 457.665 216.85 457.692 216.945C457.72 217.04 457.794 217.108 457.916 217.149C458.201 217.19 458.534 217.21 458.914 217.21H459.24V218.146H459.077L458.588 218.126C458.276 218.113 457.937 218.106 457.57 218.106C457.204 218.106 456.946 218.099 456.797 218.085C455.398 218.085 454.638 218.106 454.516 218.146H454.353V217.21H454.679C455.507 217.21 455.921 217.101 455.921 216.884C455.935 216.857 455.941 215.92 455.941 214.074C455.928 212.242 455.914 211.271 455.901 211.163C455.819 210.783 455.683 210.497 455.493 210.307C455.303 210.117 455.141 210.002 455.005 209.961C454.869 209.921 454.693 209.907 454.475 209.921C453.865 209.921 453.328 210.151 452.867 210.613C452.5 210.979 452.27 211.353 452.175 211.733C452.08 212.113 452.025 212.676 452.012 213.423V214.726V215.947C452.012 216.355 452.018 216.626 452.032 216.762C452.046 216.898 452.066 216.986 452.093 217.027C452.12 217.067 452.181 217.108 452.276 217.149C452.561 217.19 452.894 217.21 453.274 217.21H453.6V218.146H453.437L452.969 218.126C452.643 218.113 452.297 218.106 451.93 218.106C451.564 218.106 451.306 218.099 451.157 218.085C449.758 218.085 448.998 218.106 448.876 218.146H448.713V217.21H449.039Z" fill="#202020"/>
<path d="M466.407 209.371C466.488 209.398 467.059 209.412 468.117 209.412C468.891 209.412 469.441 209.398 469.767 209.371H469.868V210.308H469.644C468.857 210.362 468.355 210.633 468.138 211.122C468.111 211.176 467.656 212.35 466.774 214.645C465.891 216.939 465.43 218.119 465.389 218.187C465.321 218.31 465.151 218.371 464.88 218.371C464.622 218.371 464.459 218.31 464.391 218.187C462.491 213.287 461.534 210.803 461.52 210.735C461.452 210.545 461.344 210.43 461.195 210.389C461.045 210.348 460.781 210.321 460.4 210.308H459.912V209.371H460.034L460.197 209.391C460.305 209.391 460.441 209.391 460.604 209.391C460.767 209.391 460.943 209.391 461.133 209.391C461.324 209.391 461.493 209.398 461.643 209.412C461.792 209.425 461.914 209.432 462.009 209.432C463.299 209.432 464.045 209.412 464.249 209.371H464.412V210.308H464.127C463.597 210.321 463.312 210.423 463.271 210.613C463.271 210.667 463.618 211.59 464.31 213.382L465.348 216.07L467.201 211.203V211.041C467.201 210.851 467.133 210.694 466.997 210.572C466.862 210.45 466.74 210.375 466.631 210.348C466.522 210.321 466.427 210.308 466.346 210.308H466.264V209.371H466.407Z" fill="#202020"/>
<path d="M473.065 211.936C473.065 211.936 472.916 211.936 472.617 211.936C472.319 211.936 472.067 211.835 471.864 211.631C471.66 211.427 471.558 211.163 471.558 210.837C471.558 210.362 471.789 209.941 472.251 209.575C472.712 209.208 473.533 209.025 474.714 209.025C475.705 209.025 476.506 209.242 477.117 209.676C477.728 210.111 478.135 210.627 478.339 211.224C478.406 211.414 478.44 211.624 478.44 211.855C478.44 212.086 478.447 212.866 478.461 214.197V215.622C478.461 216.273 478.495 216.721 478.563 216.966C478.63 217.21 478.773 217.332 478.99 217.332C479.194 217.332 479.33 217.224 479.397 217.006C479.465 216.789 479.499 216.43 479.499 215.927V215.194H480.314V215.988C480.3 216.531 480.28 216.85 480.253 216.945C480.13 217.353 479.893 217.672 479.54 217.902C479.187 218.133 478.814 218.255 478.42 218.269C478.026 218.282 477.707 218.16 477.463 217.902C477.219 217.644 477.056 217.359 476.974 217.047V216.966L476.934 217.027C476.907 217.067 476.873 217.108 476.832 217.149C476.791 217.19 476.737 217.251 476.669 217.332C476.601 217.414 476.52 217.488 476.425 217.556C476.33 217.624 476.228 217.705 476.119 217.8C476.011 217.896 475.889 217.97 475.753 218.024C475.617 218.079 475.468 218.133 475.305 218.187C475.142 218.242 474.965 218.282 474.775 218.31C474.585 218.337 474.375 218.357 474.144 218.371C473.33 218.371 472.597 218.16 471.945 217.739C471.294 217.319 470.968 216.728 470.968 215.968C470.968 215.683 471.015 215.411 471.11 215.154C471.205 214.896 471.389 214.617 471.66 214.319C471.932 214.02 472.257 213.769 472.638 213.565C473.018 213.362 473.547 213.172 474.226 212.995C474.904 212.819 475.651 212.717 476.465 212.69H476.75V212.242C476.75 211.78 476.71 211.441 476.628 211.224C476.33 210.26 475.671 209.778 474.653 209.778C474.409 209.778 474.178 209.785 473.961 209.799C473.744 209.812 473.574 209.839 473.452 209.88C473.33 209.921 473.275 209.941 473.289 209.941C473.588 210.145 473.737 210.443 473.737 210.837C473.737 211.176 473.628 211.441 473.411 211.631L473.065 211.936ZM472.841 215.988C472.841 216.409 473.004 216.782 473.33 217.108C473.656 217.434 474.056 217.604 474.531 217.617C475.047 217.617 475.502 217.461 475.895 217.149C476.289 216.837 476.554 216.43 476.689 215.927C476.717 215.832 476.737 215.384 476.75 214.583C476.75 213.796 476.744 213.402 476.73 213.402C476.622 213.402 476.479 213.409 476.303 213.423C476.126 213.436 475.821 213.498 475.386 213.606C474.952 213.715 474.558 213.85 474.205 214.013C473.852 214.176 473.54 214.427 473.269 214.767C472.997 215.106 472.855 215.513 472.841 215.988Z" fill="#202020"/>
<path d="M481.311 217.21H481.596C482.126 217.21 482.445 217.115 482.553 216.925V216.762C482.553 216.64 482.553 216.484 482.553 216.294C482.553 216.104 482.553 215.88 482.553 215.622C482.553 215.364 482.56 215.072 482.574 214.746C482.587 214.42 482.587 214.081 482.574 213.728C482.56 213.375 482.56 213.002 482.574 212.608C482.587 212.215 482.587 211.828 482.574 211.448C482.574 210.945 482.574 210.416 482.574 209.859C482.574 209.303 482.574 208.794 482.574 208.332C482.574 207.871 482.574 207.464 482.574 207.111C482.574 206.758 482.567 206.459 482.553 206.215C482.54 205.971 482.54 205.855 482.553 205.869C482.513 205.611 482.418 205.441 482.268 205.36C482.119 205.278 481.814 205.217 481.352 205.176H480.986V204.708C480.986 204.396 480.999 204.24 481.026 204.24L481.23 204.219C481.366 204.206 481.562 204.192 481.82 204.179C482.078 204.165 482.329 204.152 482.574 204.138C482.805 204.124 483.056 204.111 483.327 204.097C483.599 204.084 483.802 204.063 483.938 204.036C484.074 204.009 484.148 204.002 484.162 204.016H484.223V210.43C484.223 214.733 484.23 216.898 484.243 216.925C484.298 217.033 484.379 217.108 484.488 217.149C484.773 217.19 485.105 217.21 485.485 217.21H485.811V218.146H485.648L485.18 218.126C484.868 218.113 484.535 218.106 484.182 218.106C483.829 218.106 483.571 218.099 483.409 218.085C483.246 218.072 482.988 218.072 482.635 218.085C482.282 218.099 481.943 218.113 481.617 218.126L481.148 218.146H480.986V217.21H481.311Z" fill="#202020"/>
<path d="M493.915 216.966C493.155 217.889 492.293 218.35 491.329 218.35H491.187C489.49 218.35 488.512 217.678 488.255 216.334C488.241 216.239 488.227 215.31 488.214 213.545C488.2 212.065 488.193 211.237 488.193 211.061C488.193 210.884 488.153 210.742 488.071 210.633C487.936 210.416 487.528 210.308 486.85 210.308H486.626V209.839C486.626 209.527 486.639 209.371 486.666 209.371L486.89 209.351C487.026 209.337 487.223 209.323 487.481 209.31C487.739 209.296 487.997 209.283 488.255 209.269C488.485 209.256 488.736 209.242 489.008 209.228C489.279 209.215 489.483 209.195 489.619 209.167C489.754 209.14 489.836 209.133 489.863 209.147H489.924V212.832C489.938 215.33 489.958 216.667 489.985 216.844C490.026 217.047 490.121 217.21 490.27 217.332C490.542 217.522 490.949 217.617 491.492 217.617C491.845 217.617 492.164 217.556 492.449 217.434C492.734 217.312 492.951 217.156 493.1 216.966C493.25 216.776 493.386 216.558 493.508 216.314C493.63 216.07 493.711 215.866 493.752 215.703C493.793 215.54 493.82 215.378 493.833 215.215C493.833 215.201 493.833 215.086 493.833 214.868C493.833 214.651 493.84 214.38 493.854 214.054C493.867 213.728 493.867 213.409 493.854 213.097V211.733C493.854 211.108 493.786 210.722 493.65 210.572C493.514 210.423 493.175 210.335 492.632 210.308H492.266V209.371C492.293 209.371 492.809 209.337 493.813 209.269C494.818 209.201 495.354 209.161 495.422 209.147H495.564V212.771C495.564 215.215 495.571 216.457 495.585 216.497C495.625 216.769 495.72 216.945 495.87 217.027C496.019 217.108 496.324 217.169 496.786 217.21H497.152V218.147C497.125 218.147 496.616 218.181 495.625 218.248C494.634 218.316 494.112 218.357 494.057 218.371H493.915V216.966Z" fill="#202020"/>
<path d="M498.008 213.708C498.008 212.961 498.143 212.283 498.415 211.672C498.686 211.061 499.026 210.566 499.433 210.185C499.84 209.805 500.281 209.52 500.756 209.33C501.231 209.14 501.679 209.038 502.1 209.025C502.82 209.025 503.437 209.147 503.953 209.391C504.469 209.636 504.862 209.975 505.134 210.409C505.405 210.844 505.595 211.278 505.704 211.713C505.813 212.147 505.874 212.629 505.887 213.158C505.887 213.253 505.84 213.348 505.745 213.443H500.003V213.749C500.003 215.758 500.682 216.979 502.039 217.414C502.31 217.495 502.609 217.536 502.935 217.536C503.505 217.536 503.994 217.319 504.401 216.884C504.632 216.653 504.815 216.368 504.951 216.029L505.154 215.54C505.195 215.5 505.304 215.479 505.48 215.479H505.541C505.772 215.479 505.887 215.547 505.887 215.683C505.887 215.737 505.867 215.825 505.826 215.948C505.568 216.694 505.141 217.285 504.543 217.719C503.946 218.153 503.274 218.371 502.528 218.371C501.238 218.371 500.166 217.902 499.311 216.966C498.455 216.029 498.021 214.943 498.008 213.708ZM504.218 212.547C504.068 210.81 503.424 209.887 502.283 209.778H502.243C502.134 209.778 502.025 209.785 501.917 209.799C501.808 209.812 501.639 209.866 501.408 209.961C501.177 210.056 500.98 210.199 500.817 210.389C500.654 210.579 500.498 210.857 500.349 211.224C500.2 211.59 500.091 212.038 500.023 212.568V212.71H504.218V212.547Z" fill="#202020"/>
<path d="M512.484 211.713C512.484 211.17 512.301 210.701 511.935 210.308C511.568 209.914 511.039 209.717 510.346 209.717C509.858 209.717 509.437 209.805 509.084 209.982C508.677 210.24 508.473 210.593 508.473 211.041C508.46 211.108 508.46 211.197 508.473 211.305C508.487 211.414 508.595 211.577 508.799 211.794C509.003 212.011 509.294 212.181 509.674 212.303C509.919 212.371 510.217 212.432 510.57 212.486C510.923 212.541 511.222 212.602 511.466 212.669C511.711 212.737 511.928 212.826 512.118 212.934C512.349 213.043 512.573 213.179 512.79 213.341C513.007 213.504 513.224 213.783 513.441 214.176C513.658 214.57 513.774 214.991 513.787 215.439C513.787 216.28 513.529 216.972 513.014 217.515C512.498 218.058 511.663 218.337 510.509 218.35H510.346C509.641 218.35 508.989 218.106 508.392 217.617L508.229 217.76L508.046 217.943C507.964 218.024 507.883 218.099 507.801 218.167L507.577 218.371H507.414H507.333C507.292 218.371 507.231 218.33 507.15 218.248V216.64V215.459C507.15 215.174 507.163 215.004 507.19 214.95C507.218 214.896 507.285 214.862 507.394 214.848H507.577C507.74 214.848 507.849 214.875 507.903 214.93C507.957 214.984 507.991 215.065 508.005 215.174C508.018 215.282 508.066 215.466 508.147 215.724C508.229 215.982 508.358 216.267 508.534 216.579C509.009 217.271 509.668 217.617 510.509 217.617C511.826 217.617 512.484 217.088 512.484 216.029C512.484 215.635 512.362 215.316 512.118 215.072C511.846 214.746 511.283 214.502 510.428 214.339C509.573 214.176 509.009 214.02 508.738 213.871C508.249 213.64 507.862 213.328 507.577 212.934C507.292 212.541 507.15 212.12 507.15 211.672C507.15 211.142 507.265 210.694 507.496 210.328C507.727 209.961 508.018 209.69 508.371 209.514C508.724 209.337 509.064 209.215 509.389 209.147C509.715 209.079 510.014 209.045 510.285 209.045H510.509C511.052 209.045 511.527 209.147 511.935 209.351L512.24 209.514L512.423 209.371C512.559 209.249 512.708 209.133 512.871 209.025H513.034H513.115C513.156 209.025 513.217 209.066 513.299 209.147V211.835L513.177 211.957H512.606C512.525 211.875 512.484 211.794 512.484 211.713Z" fill="#202020"/>
<path d="M519.102 204.545C518.613 204.545 518.179 204.627 517.799 204.789C517.418 204.952 517.161 205.115 517.025 205.278L516.821 205.502C516.848 205.502 516.882 205.509 516.923 205.522C516.964 205.536 517.038 205.563 517.147 205.604C517.256 205.645 517.357 205.706 517.452 205.787C517.547 205.869 517.629 205.977 517.697 206.113C517.765 206.249 517.799 206.412 517.799 206.602C517.799 206.914 517.697 207.172 517.493 207.375C517.289 207.579 517.032 207.681 516.719 207.681C516.407 207.681 516.149 207.586 515.946 207.396C515.742 207.206 515.633 206.948 515.62 206.622C515.62 205.821 515.925 205.176 516.536 204.688C517.147 204.199 517.819 203.907 518.552 203.812C518.579 203.812 518.654 203.812 518.776 203.812C518.898 203.812 518.993 203.805 519.061 203.792H519.142C519.862 203.792 520.486 203.88 521.016 204.056C521.545 204.233 521.939 204.477 522.197 204.789C522.454 205.102 522.651 205.4 522.787 205.685C522.923 205.97 522.984 206.276 522.97 206.602C522.97 207.47 522.597 208.183 521.85 208.739C520.574 209.649 519.801 210.728 519.529 211.977C519.461 212.303 519.427 212.723 519.427 213.239V213.585C519.427 213.843 519.407 213.993 519.366 214.033C519.326 214.074 519.21 214.101 519.02 214.115C518.83 214.128 518.715 214.108 518.674 214.054C518.633 213.999 518.613 213.884 518.613 213.708V213.076C518.64 212.113 518.762 211.285 518.979 210.592C519.197 209.9 519.434 209.398 519.692 209.086C519.95 208.773 520.201 208.461 520.445 208.149C520.69 207.837 520.846 207.525 520.914 207.212C520.941 207.09 520.954 206.839 520.954 206.459V206.194C520.954 205.964 520.941 205.774 520.914 205.624C520.887 205.475 520.812 205.305 520.69 205.115C520.568 204.925 520.384 204.783 520.14 204.688C519.896 204.593 519.55 204.545 519.102 204.545ZM517.799 216.904C517.799 216.524 517.921 216.226 518.165 216.008C518.409 215.791 518.708 215.683 519.061 215.683C519.373 215.71 519.645 215.825 519.875 216.029C520.106 216.232 520.221 216.524 520.221 216.904C520.221 217.312 520.106 217.617 519.875 217.821C519.645 218.024 519.36 218.126 519.02 218.126C518.681 218.126 518.396 218.024 518.165 217.821C517.934 217.617 517.812 217.312 517.799 216.904Z" fill="#202020"/>
</g>
<defs>
<clipPath id="clip0_1511_9069">
<rect width="122.436" height="48.87" fill="white" transform="translate(53.5072 161.836)"/>
</clipPath>
<clipPath id="clip1_1511_9069">
<rect width="125.235" height="48.87" fill="white" transform="translate(53.5072 266.706)"/>
</clipPath>
<clipPath id="clip2_1511_9069">
<rect width="110.934" height="48.87" fill="white" transform="translate(53.5072 56.9658)"/>
</clipPath>
<clipPath id="clip3_1511_9069">
<rect width="140.04" height="20.133" fill="white" transform="translate(338.622 151.659)"/>
</clipPath>
<clipPath id="clip4_1511_9069">
<rect width="230.949" height="18.549" fill="white" transform="translate(293.168 203.792)"/>
</clipPath>
</defs>
</svg>
