<svg width="640" height="360" viewBox="0 0 640 360" fill="none" xmlns="http://www.w3.org/2000/svg">
<g clip-path="url(#clip0_1505_4826)">
<path d="M640 0H0V360H640V0Z" fill="white"/>
<path d="M273.583 227.009L273.692 227.008L273.757 226.921C274.791 225.527 275.419 223.732 275.419 221.847C275.419 217.133 271.603 213.271 266.843 213.315C262.129 213.316 258.312 217.133 258.312 221.847C258.312 223.773 258.939 225.662 260.114 227.062L260.18 227.141L260.283 227.14L273.583 227.009Z" fill="white" stroke="black"/>
<path d="M297.646 227.009L297.754 227.008L297.82 226.921C298.853 225.527 299.481 223.732 299.481 221.847C299.481 217.133 295.666 213.271 290.905 213.315C286.191 213.316 282.375 217.133 282.375 221.847C282.375 223.773 283.002 225.662 284.176 227.062L284.243 227.141L284.346 227.14L297.646 227.009Z" fill="white" stroke="black"/>
<path d="M269.25 215.328C268.681 215.372 268.244 215.809 268.244 216.378C268.244 216.947 268.725 217.428 269.294 217.428C269.862 217.428 270.344 216.947 270.344 216.378C270.344 215.809 269.862 215.328 269.294 215.328H269.25L270.519 214.89C272.4 214.89 273.887 216.422 273.887 218.259C273.887 220.097 272.356 221.628 270.519 221.628C268.681 221.628 267.15 220.097 267.15 218.259C267.15 216.422 268.681 214.89 270.519 214.89" fill="black"/>
<path d="M293.313 215.328C292.744 215.372 292.306 215.809 292.306 216.378C292.306 216.947 292.788 217.428 293.356 217.428C293.925 217.428 294.406 216.947 294.406 216.378C294.406 215.809 293.925 215.328 293.356 215.328H293.313L294.581 214.89C296.463 214.89 297.95 216.422 297.95 218.259C297.95 220.097 296.419 221.628 294.581 221.628C292.744 221.628 291.213 220.097 291.213 218.259C291.213 216.422 292.744 214.89 294.581 214.89" fill="black"/>
<path d="M265.05 239.959H293.225C286.487 267.872 282.244 286.072 282.244 306.022C282.244 309.522 282.244 336.428 292.481 336.428C297.731 336.428 302.194 331.703 302.194 327.459C302.194 326.234 302.194 325.709 300.444 321.99C293.706 304.797 293.706 283.359 293.706 281.609C293.706 280.122 293.706 262.403 298.956 240.003L329.231 239.565C335.269 239.39 340.869 230.422 340.869 222.415C340.869 216.947 333.475 226.834 321.619 226.834L247.112 226.528C241.381 226.528 232.894 226.528 221.431 238.734C214.956 245.953 215.306 259.165 215.306 260.653C215.306 262.14 216.531 262.665 218.063 262.665C219.813 262.665 220.994 262.359 221.3 260.434C224.8 239.74 238.887 240.003 245.144 240.003H259.362C253.894 258.684 247.637 280.384 227.206 324.003C225.194 327.984 225.194 328.509 225.194 329.997C225.194 335.247 229.7 336.472 231.931 336.472C239.15 336.472 241.163 329.997 244.138 319.54C248.119 306.809 248.119 306.328 250.612 296.353L265.05 239.959Z" fill="#BE8F66"/>
<path d="M271.131 236.109C270.912 237.509 270.212 239.39 275.244 238.821C281.15 238.165 282.637 237.115 284.825 235.934L284.694 234.578C283.075 234.621 279.662 234.884 277.387 234.403C275.55 234.009 271.787 233.965 271.569 234.796" fill="black"/>
<path d="M381.959 42.4064C398.865 33.2273 427.225 44.4926 419.045 59.0958C442.605 52.0863 447.95 82.8783 430.498 86.6334C449.259 91.6402 441.405 115.423 419.045 111.25C436.06 118.927 426.68 140.039 407.046 129.609C414.463 140.624 388.503 152.139 375.414 136.702C381.086 151.722 345.964 158.398 335.056 143.795C335.929 158.815 302.878 160.067 302.878 146.715C297.643 159.065 270.701 151.722 274.519 136.702C264.484 148.718 238.523 136.702 248.34 125.019C232.633 133.698 209.618 117.092 225.98 105.826C206.346 107.495 203.619 84.9645 225.98 80.3749C205.473 75.7018 217.799 52.0029 234.706 55.758C222.489 44.743 250.522 32.3928 267.974 42.4064C258.812 26.3846 293.062 17.7896 302.878 34.479C300.697 19.1247 338.874 17.3724 342.691 32.3928C350.108 16.7048 385.231 26.9687 381.959 42.4064Z" fill="white" stroke="#606060" stroke-width="1.5"/>
<path d="M209.414 143.892C212.113 132.214 227.293 132.967 229.635 146.988C231.069 155.575 224.516 161.896 219.208 161.689C212.573 161.431 206.254 157.563 209.414 143.892Z" fill="white" stroke="#606060" stroke-width="1.5"/>
<path d="M224.434 201.38C225.784 195.54 233.374 195.917 234.544 202.927C235.262 207.221 231.985 210.381 229.331 210.278C226.014 210.149 222.854 208.215 224.434 201.38Z" fill="white" stroke="#606060" stroke-width="1.5"/>
<path d="M215.713 178.275C217.116 171.727 227.056 165.872 229.102 179.515C229.102 183.794 224.6 188.566 220.624 188.332C216.648 188.098 214.309 184.824 215.713 178.275Z" fill="white" stroke="#606060" stroke-width="1.5"/>
<rect x="250.552" y="74.1284" width="133.442" height="33.659" fill="white"/>
<g clip-path="url(#clip1_1505_4826)">
<path d="M254.979 93.8331C254.993 93.7516 255.013 93.643 255.04 93.5073C255.067 93.3715 255.149 93.1136 255.285 92.7335C255.42 92.3534 255.556 92.0344 255.692 91.7764C255.828 91.5185 256.045 91.2674 256.344 91.023C256.642 90.7787 256.941 90.6633 257.239 90.6768C257.538 90.6904 257.83 90.7379 258.115 90.8194C258.4 90.9008 258.604 91.023 258.726 91.1859C258.848 91.3488 258.957 91.4981 259.052 91.6339C259.147 91.7696 259.201 91.8986 259.215 92.0208L259.255 92.1633C259.255 92.1905 259.262 92.204 259.276 92.204L259.5 91.9801C260.314 91.1113 261.271 90.6768 262.371 90.6768C262.602 90.6768 262.812 90.6904 263.002 90.7176C263.192 90.7447 263.369 90.7922 263.532 90.8601C263.694 90.928 263.823 90.9959 263.918 91.0637C264.013 91.1316 264.115 91.2131 264.224 91.3081C264.332 91.4031 264.4 91.4914 264.427 91.5728C264.455 91.6543 264.509 91.7425 264.59 91.8375C264.672 91.9325 264.699 92.014 264.672 92.0819C264.645 92.1497 264.665 92.2108 264.733 92.2651C264.801 92.3194 264.814 92.3669 264.774 92.4077L264.937 92.204C265.792 91.1859 266.803 90.6768 267.971 90.6768C268.704 90.6768 269.294 90.8601 269.742 91.2266C270.19 91.5932 270.421 92.1294 270.434 92.8353C270.434 93.5276 270.177 94.6 269.661 96.0526C269.145 97.5051 268.887 98.3739 268.887 98.659C268.9 98.8491 268.934 98.978 268.989 99.0459C269.043 99.1138 269.145 99.1477 269.294 99.1477C269.674 99.1477 270.027 98.9441 270.353 98.5368C270.679 98.1296 270.944 97.573 271.147 96.8671C271.188 96.7178 271.229 96.6295 271.269 96.6024C271.31 96.5752 271.419 96.5617 271.595 96.5617C271.867 96.5617 272.002 96.616 272.002 96.7246C272.002 96.7381 271.975 96.8399 271.921 97.03C271.812 97.4237 271.663 97.8106 271.473 98.1907C271.283 98.5708 270.971 98.9509 270.536 99.331C270.102 99.7111 269.634 99.8943 269.131 99.8808C268.493 99.8808 268.032 99.6975 267.747 99.331C267.462 98.9644 267.319 98.5843 267.319 98.1907C267.319 97.9327 267.563 97.1182 268.052 95.7471C268.541 94.3761 268.792 93.3444 268.805 92.652C268.805 91.8511 268.507 91.4506 267.91 91.4506H267.808C266.64 91.4506 265.656 92.1362 264.855 93.5073L264.713 93.7516L264.041 96.4802C263.593 98.2585 263.335 99.2156 263.267 99.3513C263.09 99.7179 262.798 99.9011 262.391 99.9011C262.215 99.9011 262.072 99.8536 261.964 99.7586C261.855 99.6636 261.78 99.5821 261.74 99.5142C261.699 99.4464 261.679 99.3785 261.679 99.3106C261.679 99.1613 261.909 98.1907 262.371 96.3987L263.104 93.4258C263.145 93.2222 263.165 92.9643 263.165 92.652C263.165 91.8511 262.866 91.4506 262.269 91.4506H262.167C261 91.4506 260.016 92.1362 259.215 93.5073L259.072 93.7516L258.4 96.4802C257.952 98.2585 257.694 99.2156 257.626 99.3513C257.45 99.7179 257.158 99.9011 256.751 99.9011C256.574 99.9011 256.432 99.8604 256.323 99.7789C256.215 99.6975 256.14 99.616 256.099 99.5346C256.058 99.4531 256.045 99.3853 256.058 99.331C256.058 99.1545 256.316 98.0413 256.832 95.9915C257.362 93.9009 257.626 92.8081 257.626 92.7131C257.667 92.5095 257.687 92.3262 257.687 92.1633C257.687 91.6746 257.518 91.4303 257.178 91.4303C256.88 91.4303 256.629 91.6203 256.425 92.0004C256.221 92.3805 256.065 92.7946 255.957 93.2425C255.848 93.6905 255.767 93.9349 255.712 93.9756C255.685 94.0027 255.577 94.0163 255.386 94.0163H255.101C255.02 93.9349 254.979 93.8738 254.979 93.8331Z" fill="#202020"/>
<path d="M278.095 93.1612C278.095 93.1612 278.095 93.073 278.095 92.8965C278.095 92.72 278.19 92.5843 278.38 92.4892H284.468V89.4552C284.468 87.4325 284.482 86.394 284.509 86.3397C284.577 86.1904 284.692 86.1157 284.855 86.1157C285.045 86.1157 285.161 86.1972 285.201 86.3601C285.242 86.523 285.269 86.9167 285.283 87.5411V89.4959V92.4892H291.351C291.555 92.5978 291.656 92.7336 291.656 92.8965C291.656 93.073 291.555 93.2087 291.351 93.3037H285.283V98.8627H291.351C291.555 98.9713 291.656 99.1071 291.656 99.27C291.656 99.4329 291.555 99.5686 291.351 99.6772H278.38C278.19 99.5822 278.095 99.4465 278.095 99.27C278.095 99.0935 278.19 98.9578 278.38 98.8627H284.468V93.3037H278.38C278.19 93.2087 278.095 93.073 278.095 92.8965V93.1612Z" fill="#202020"/>
<path d="M318.519 93.8331C318.532 93.7516 318.553 93.643 318.58 93.5073C318.607 93.3715 318.688 93.1136 318.824 92.7335C318.96 92.3534 319.096 92.0344 319.231 91.7764C319.367 91.5185 319.584 91.2674 319.883 91.023C320.182 90.7787 320.48 90.6633 320.779 90.6768C321.078 90.6904 321.37 90.7379 321.655 90.8194C321.94 90.9008 322.143 91.023 322.266 91.1859C322.388 91.3488 322.496 91.4981 322.591 91.6339C322.686 91.7696 322.741 91.8986 322.754 92.0208L322.795 92.1633C322.795 92.1905 322.802 92.204 322.815 92.204L323.039 91.9801C323.854 91.1113 324.811 90.6768 325.91 90.6768C326.141 90.6768 326.352 90.6904 326.542 90.7176C326.732 90.7447 326.908 90.7922 327.071 90.8601C327.234 90.928 327.363 90.9959 327.458 91.0637C327.553 91.1316 327.655 91.2131 327.763 91.3081C327.872 91.4031 327.94 91.4914 327.967 91.5728C327.994 91.6543 328.049 91.7425 328.13 91.8375C328.211 91.9325 328.239 92.014 328.211 92.0819C328.184 92.1497 328.205 92.2108 328.273 92.2651C328.34 92.3194 328.354 92.3669 328.313 92.4077L328.476 92.204C329.331 91.1859 330.343 90.6768 331.51 90.6768C332.243 90.6768 332.834 90.8601 333.282 91.2266C333.73 91.5932 333.96 92.1294 333.974 92.8353C333.974 93.5276 333.716 94.6 333.2 96.0526C332.684 97.5051 332.426 98.3739 332.426 98.659C332.44 98.8491 332.474 98.978 332.528 99.0459C332.583 99.1138 332.684 99.1477 332.834 99.1477C333.214 99.1477 333.567 98.9441 333.893 98.5368C334.218 98.1296 334.483 97.573 334.687 96.8671C334.727 96.7178 334.768 96.6295 334.809 96.6024C334.85 96.5752 334.958 96.5617 335.135 96.5617C335.406 96.5617 335.542 96.616 335.542 96.7246C335.542 96.7381 335.515 96.8399 335.461 97.03C335.352 97.4237 335.203 97.8106 335.013 98.1907C334.822 98.5708 334.51 98.9509 334.076 99.331C333.641 99.7111 333.173 99.8943 332.671 99.8808C332.033 99.8808 331.571 99.6975 331.286 99.331C331.001 98.9644 330.859 98.5843 330.859 98.1907C330.859 97.9327 331.103 97.1182 331.592 95.7471C332.08 94.3761 332.331 93.3444 332.345 92.652C332.345 91.8511 332.046 91.4506 331.449 91.4506H331.347C330.18 91.4506 329.196 92.1362 328.395 93.5073L328.252 93.7516L327.58 96.4802C327.132 98.2585 326.874 99.2156 326.806 99.3513C326.63 99.7179 326.338 99.9011 325.931 99.9011C325.754 99.9011 325.612 99.8536 325.503 99.7586C325.395 99.6636 325.32 99.5821 325.279 99.5142C325.238 99.4464 325.218 99.3785 325.218 99.3106C325.218 99.1613 325.449 98.1907 325.91 96.3987L326.643 93.4258C326.684 93.2222 326.705 92.9643 326.705 92.652C326.705 91.8511 326.406 91.4506 325.809 91.4506H325.707C324.539 91.4506 323.555 92.1362 322.754 93.5073L322.612 93.7516L321.94 96.4802C321.492 98.2585 321.234 99.2156 321.166 99.3513C320.989 99.7179 320.698 99.9011 320.29 99.9011C320.114 99.9011 319.971 99.8604 319.863 99.7789C319.754 99.6975 319.679 99.616 319.639 99.5346C319.598 99.4531 319.584 99.3853 319.598 99.331C319.598 99.1545 319.856 98.0413 320.372 95.9915C320.901 93.9009 321.166 92.8081 321.166 92.7131C321.207 92.5095 321.227 92.3262 321.227 92.1633C321.227 91.6746 321.057 91.4303 320.718 91.4303C320.419 91.4303 320.168 91.6203 319.965 92.0004C319.761 92.3805 319.605 92.7946 319.496 93.2425C319.388 93.6905 319.306 93.9349 319.252 93.9756C319.225 94.0027 319.116 94.0163 318.926 94.0163H318.641C318.56 93.9349 318.519 93.8738 318.519 93.8331Z" fill="#202020"/>
<path d="M338.211 87.6162C337.952 87.6162 337.745 87.5298 337.592 87.3571C337.438 87.1843 337.361 86.9731 337.361 86.7236C337.361 86.0422 337.616 85.4519 338.124 84.9529C338.633 84.4538 339.266 84.2042 340.025 84.2042C340.898 84.2042 341.627 84.473 342.213 85.0104C342.798 85.5479 343.096 86.2437 343.106 87.0979C343.106 87.5106 343.01 87.9041 342.818 88.2784C342.626 88.6527 342.395 88.979 342.127 89.2574C341.858 89.5357 341.474 89.8908 340.975 90.3227C340.629 90.6202 340.149 91.0617 339.535 91.6472L338.686 92.4534L339.78 92.4678C341.287 92.4678 342.088 92.4438 342.184 92.3958C342.251 92.3766 342.367 91.9495 342.53 91.1145V91.0713H343.106V91.1145C343.096 91.1433 343.034 91.58 342.918 92.4246C342.803 93.2692 342.731 93.7107 342.702 93.749V93.7922H337.361V93.5187V93.3459C337.361 93.2788 337.39 93.2068 337.448 93.13C337.505 93.0532 337.649 92.8853 337.88 92.6261C338.158 92.319 338.398 92.0503 338.599 91.8199C338.686 91.724 338.849 91.5464 339.089 91.2873C339.329 91.0281 339.492 90.8506 339.578 90.7546C339.665 90.6586 339.804 90.5003 339.996 90.2795C340.188 90.0588 340.322 89.8956 340.399 89.79C340.476 89.6845 340.586 89.5405 340.73 89.3581C340.874 89.1758 340.975 89.0222 341.032 88.8975C341.09 88.7727 341.162 88.6335 341.248 88.48C341.335 88.3264 341.397 88.1728 341.436 88.0193C341.474 87.8657 341.508 87.7218 341.536 87.5874C341.565 87.453 341.579 87.2947 341.579 87.1123C341.579 86.5077 341.416 85.9846 341.09 85.5431C340.764 85.1016 340.298 84.8809 339.694 84.8809C339.377 84.8809 339.099 84.9625 338.859 85.1256C338.619 85.2888 338.451 85.4471 338.355 85.6007C338.259 85.7543 338.211 85.8454 338.211 85.8742C338.211 85.8838 338.235 85.8886 338.283 85.8886C338.455 85.8886 338.633 85.9558 338.815 86.0902C338.998 86.2245 339.089 86.4453 339.089 86.7524C339.089 86.9923 339.012 87.1939 338.859 87.3571C338.705 87.5202 338.489 87.6066 338.211 87.6162Z" fill="#202020"/>
<path d="M351.095 94.8511C351.095 94.8511 351.095 94.7629 351.095 94.5864C351.095 94.4099 351.19 94.2742 351.38 94.1791H363.211C363.414 94.2877 363.516 94.4235 363.516 94.5864C363.516 94.7493 363.414 94.8851 363.211 94.9937H351.38C351.19 94.8986 351.095 94.7629 351.095 94.5864V94.8511Z" fill="#202020"/>
<path d="M370.22 93.833C370.233 93.7923 370.247 93.738 370.26 93.6701C370.274 93.6022 370.308 93.4529 370.362 93.2221C370.416 92.9914 370.484 92.7809 370.566 92.5909C370.647 92.4008 370.749 92.1769 370.871 91.9189C370.993 91.661 371.129 91.4574 371.278 91.308C371.428 91.1587 371.604 91.0094 371.808 90.8601C372.011 90.7107 372.235 90.6497 372.48 90.6768C373.498 90.6768 374.15 91.1112 374.435 91.98L374.638 91.7967C375.48 91.0501 376.281 90.6768 377.041 90.6768C377.923 90.6768 378.616 90.9958 379.118 91.6338C379.62 92.2719 379.871 93.0457 379.871 93.9552C379.871 95.4213 379.356 96.772 378.324 98.0074C377.292 99.2427 376.125 99.8671 374.821 99.8807C374.523 99.8807 374.258 99.84 374.027 99.7585C373.878 99.6907 373.722 99.5889 373.559 99.4531C373.396 99.3173 373.267 99.202 373.172 99.1069L373.03 98.944C373.016 98.9576 372.867 99.5481 372.582 100.716C372.297 101.883 372.154 102.474 372.154 102.487C372.154 102.569 372.208 102.616 372.317 102.63C372.425 102.643 372.677 102.664 373.07 102.691H373.579C373.661 102.786 373.702 102.847 373.702 102.874C373.702 102.901 373.681 103.023 373.64 103.241C373.6 103.403 373.559 103.505 373.518 103.546C373.478 103.587 373.389 103.614 373.254 103.627C373.226 103.627 373.152 103.627 373.03 103.627C372.907 103.627 372.677 103.621 372.337 103.607C371.998 103.594 371.577 103.587 371.075 103.587C370.124 103.587 369.52 103.6 369.262 103.627H369.1C369.005 103.532 368.957 103.458 368.957 103.403C368.984 103.037 369.072 102.799 369.222 102.691H369.629C370.091 102.677 370.355 102.596 370.423 102.446C370.464 102.365 370.878 100.743 371.665 97.5797C372.453 94.4167 372.867 92.7402 372.907 92.5502C372.921 92.4823 372.928 92.3873 372.928 92.2651C372.928 91.7085 372.758 91.4302 372.419 91.4302C372.12 91.4302 371.869 91.6203 371.665 92.0004C371.462 92.3805 371.306 92.7945 371.197 93.2425C371.088 93.6905 371.007 93.9348 370.953 93.9756C370.925 94.0027 370.817 94.0163 370.627 94.0163H370.342C370.26 93.9348 370.22 93.8737 370.22 93.833ZM373.376 97.6001C373.674 98.6318 374.177 99.1477 374.883 99.1477C375.29 99.1477 375.683 98.9915 376.064 98.6793C376.444 98.3671 376.756 97.9734 377 97.4983C377.245 97.0367 377.489 96.3037 377.733 95.2991C377.978 94.2946 378.107 93.5479 378.12 93.0592V92.9371C378.12 91.9325 377.706 91.4302 376.878 91.4302C376.729 91.4302 376.579 91.4506 376.43 91.4913C376.281 91.532 376.131 91.5931 375.982 91.6746C375.833 91.756 375.697 91.8443 375.575 91.9393C375.453 92.0343 375.337 92.1361 375.229 92.2447C375.12 92.3533 375.018 92.4551 374.923 92.5502C374.828 92.6452 374.754 92.7402 374.699 92.8352C374.645 92.9303 374.591 92.9981 374.536 93.0389L374.475 93.1203C374.475 93.1339 374.455 93.2289 374.414 93.4054C374.373 93.5819 374.299 93.8805 374.19 94.3014C374.082 94.7222 373.987 95.0751 373.905 95.3602C373.552 96.7992 373.376 97.5458 373.376 97.6001Z" fill="#202020"/>
<path d="M302.677 91.5892C302.69 91.5892 303.043 92.3969 303.736 94.0123C304.428 95.6277 305.12 97.2432 305.813 98.8586C306.505 100.474 306.865 101.289 306.892 101.302L312.084 90.5099C315.559 83.2473 317.304 79.6023 317.317 79.5752C317.412 79.4259 317.541 79.3512 317.704 79.3512C317.799 79.3512 317.881 79.3919 317.949 79.4734C318.017 79.5548 318.064 79.6363 318.091 79.7177V79.8399L312.41 91.7113C311.107 94.4264 309.743 97.2703 308.317 100.243C307.489 101.967 307.007 102.972 306.871 103.257C306.736 103.542 306.627 103.705 306.546 103.746C306.491 103.773 306.376 103.786 306.199 103.786L305.955 103.766L303.736 98.6143C302.256 95.1933 301.509 93.4829 301.496 93.4829L300.803 94.0123C300.355 94.3653 300.125 94.5417 300.111 94.5417L299.582 94.0123L302.677 91.5892Z" fill="#202020"/>
<path d="M379.994 80.573H318.091V79.3512H379.994V80.573Z" fill="#202020"/>
</g>
</g>
<defs>
<clipPath id="clip0_1505_4826">
<rect width="640" height="360" fill="white"/>
</clipPath>
<clipPath id="clip1_1505_4826">
<rect width="125.442" height="25.659" fill="white" transform="translate(254.552 78.1284)"/>
</clipPath>
</defs>
</svg>
