<svg width="1805" height="1472" viewBox="0 0 1805 1472" fill="none" xmlns="http://www.w3.org/2000/svg">
<path d="M1538.62 689.707C1521.39 688.576 1507.82 692.093 1498.54 700.113C1489.23 708.152 1484.5 720.485 1484.5 736.403C1484.5 749.272 1488.53 761.283 1495.15 771.007L1495.59 771.655L1496.38 771.663L1581.75 772.5L1582.49 772.507L1582.94 771.932C1590.48 762.423 1594.5 749.806 1594.5 736.403C1594.5 720.261 1587.43 709.003 1576.83 701.589C1566.31 694.226 1552.39 690.694 1538.62 689.707H1538.62Z" fill="white" stroke="black" stroke-width="3"/>
<path d="M1422.56 701.845C1411.9 692.137 1397.52 686.255 1382.53 687.724L1381.82 687.799L1381.8 687.801C1352.32 691.496 1330.5 711.222 1330.5 740.045C1330.5 751.835 1334.56 762.471 1341.2 771.08L1341.65 771.656L1342.38 771.663L1427.75 772.5L1428.44 772.507L1428.9 771.986C1436.45 763.329 1440.5 752.097 1440.5 740.045C1440.5 725.612 1433.39 711.701 1422.56 701.845Z" fill="white" stroke="black" stroke-width="3"/>
<path d="M1521.29 696.857C1525 697.143 1527.86 700 1527.86 703.714C1527.86 707.429 1524.71 710.571 1521 710.571C1517.29 710.571 1514.14 707.429 1514.14 703.714C1514.14 700 1517.29 696.857 1521 696.857H1521.29L1513 694C1500.71 694 1491 704 1491 716C1491 728 1501 738 1513 738C1525 738 1535 728 1535 716C1535 704 1525 694 1513 694" fill="black"/>
<path d="M1370.29 696.857C1374 697.143 1376.86 700 1376.86 703.714C1376.86 707.429 1373.71 710.571 1370 710.571C1366.29 710.571 1363.14 707.429 1363.14 703.714C1363.14 700 1366.29 696.857 1370 696.857C1370 696.857 1370.29 696.857 1370.29 696.857L1362 694C1349.71 694 1340 704 1340 716C1340 728 1350 738 1362 738C1374 738 1384 728 1384 716C1384 704 1374 694 1362 694" fill="black"/>
<path d="M1093.06 754.053C1090.68 753.865 1088.49 754.161 1086.62 755.25C1082.86 757.45 1081 762.53 1081 771.316C1081 797.155 1094.2 818.263 1109.95 832.878C1117.82 840.189 1126.35 845.897 1134.23 849.781C1142.09 853.654 1149.39 855.755 1154.79 855.755H1332.6C1349.06 927.209 1350.17 1001.69 1347 1065.23C1345.4 1097.11 1342.74 1126.22 1340.4 1150.8C1338.06 1175.35 1336.04 1195.44 1335.76 1209.21L1335.56 1217.83C1333.57 1303.85 1333.95 1339.3 1347.15 1417.74L1347.81 1421.64C1350.2 1435.69 1353.68 1443.87 1358.74 1448.82C1363.81 1453.78 1370.33 1455.35 1378.32 1456.62H1378.32C1383.69 1457.45 1387.92 1458.17 1391.45 1458.61C1394.99 1459.05 1397.89 1459.21 1400.63 1458.9C1406.15 1458.27 1410.81 1455.75 1418.52 1450.29C1432.23 1440.67 1437.8 1426.02 1438.47 1408.5C1439.14 1391 1434.94 1370.5 1428.99 1348.96C1423.04 1327.45 1415.28 1304.66 1408.83 1282.79C1402.36 1260.84 1397.17 1239.71 1396.27 1221.22V1221.22C1390.69 1111.26 1400.7 1034.19 1370.97 855.475H1549.14L1569.81 1239.8V1239.82L1569.81 1239.83C1572.6 1275.91 1572.95 1304.65 1573.58 1330.07C1574.21 1355.49 1575.12 1377.6 1579.06 1400.36L1579.06 1400.36C1579.8 1404.63 1579.41 1410.87 1579.1 1418.04C1578.78 1425.14 1578.55 1433.04 1579.68 1440.42C1580.82 1447.79 1583.35 1454.74 1588.64 1459.85C1593.95 1464.97 1601.91 1468.11 1613.64 1468.11C1617.13 1468.11 1622.86 1468.97 1629.69 1469.76C1636.46 1470.55 1644.2 1471.26 1651.51 1470.91C1658.81 1470.55 1665.81 1469.14 1671.01 1465.57C1676.28 1461.95 1679.59 1456.2 1679.59 1447.51C1679.59 1437.95 1678.75 1410.14 1671.72 1382.3L1671.72 1382.3C1637.3 1247.27 1625.06 1145.2 1617.05 1061.93C1609.1 979.284 1605.3 915.012 1588.09 855.475H1677.77L1677.79 855.474C1695.17 854.706 1710.99 855.425 1723.56 857.894C1736.18 860.373 1745.28 864.574 1749.55 870.56C1753.7 876.396 1753.47 884.289 1746.48 894.833C1739.48 905.391 1725.85 918.358 1703.77 934.013L1703.29 934.366C1702.2 935.199 1701.42 936.085 1700.97 937.033C1700.45 938.148 1700.43 939.28 1700.81 940.354C1701.54 942.397 1703.7 944.115 1706.25 945.48C1711.44 948.257 1719.31 950.114 1725.06 950.114C1729.94 950.114 1741.52 948.269 1752.78 945.785C1758.43 944.539 1764.04 943.124 1768.74 941.683C1773.39 940.254 1777.27 938.766 1779.37 937.342V937.341C1787.66 931.766 1796.28 922.208 1800.8 907.941C1805.32 893.669 1805.71 874.76 1797.68 850.521L1797.2 849.107C1786.88 819.577 1763.18 799.268 1737.55 786.313C1711.52 773.155 1683.37 767.516 1664.87 767.516H1140.51C1133.55 767.516 1126.45 765.551 1119.66 763.092C1116.27 761.863 1112.98 760.52 1109.82 759.246C1106.68 757.976 1103.66 756.772 1100.86 755.842C1098.07 754.913 1095.44 754.24 1093.06 754.053Z" fill="#0C7F99" stroke="black" stroke-width="2"/>
<path d="M1514.32 832.172C1511.79 836.548 1505.34 838.59 1500.01 838.882C1481.21 839.757 1468.59 835.673 1454 829.546V817.584C1462.14 821.376 1475.32 824.586 1495.24 825.461C1502.25 825.753 1512.07 821.668 1516 817" fill="black"/>
<path opacity="0.4" d="M102.021 4L100.756 4.00781C47.2993 4.66776 4.00012 47.1221 4 99.6104V469.61C4 522.512 47.984 565.221 102.021 565.221H581.597L1231.9 751.845L1234.82 744.439L884.913 565.221H1058.65C1112.69 565.221 1156.67 522.512 1156.67 469.61V99.6104C1156.67 46.7091 1112.69 4.00018 1058.65 4H102.021Z" stroke="black" stroke-width="8"/>
<path d="M132.048 114.24V107.27H180.158V114.24L164.518 116.11C164.405 123.25 164.292 130.503 164.178 137.87C164.178 145.237 164.178 152.603 164.178 159.97V168.3C164.178 175.553 164.178 182.863 164.178 190.23C164.292 197.483 164.405 204.793 164.518 212.16L180.158 214.03V221H132.048V214.03L147.688 212.16C147.915 205.02 148.028 197.767 148.028 190.4C148.028 183.033 148.028 175.667 148.028 168.3V159.97C148.028 152.603 148.028 145.293 148.028 138.04C148.028 130.673 147.915 123.363 147.688 116.11L132.048 114.24Z" fill="black"/>
<path d="M220.844 223.21C214.951 223.21 210.247 221.623 206.734 218.45C203.221 215.277 201.464 210.403 201.464 203.83C201.464 201.677 201.464 199.58 201.464 197.54C201.577 195.387 201.634 192.667 201.634 189.38V149.26H187.524V141.78L202.654 139.91L207.074 117.13H217.274L216.254 140.25H239.204V149.26H216.084V201.96C216.084 206.267 216.934 209.44 218.634 211.48C220.334 213.407 222.601 214.37 225.434 214.37C227.361 214.37 229.174 213.973 230.874 213.18C232.687 212.387 234.671 211.253 236.824 209.78L240.904 214.2C236.257 220.207 229.571 223.21 220.844 223.21Z" fill="black"/>
<path d="M274.182 109.14C274.182 114.013 273.105 118.773 270.952 123.42C268.798 127.953 265.965 132.147 262.452 136C258.938 139.74 255.028 142.97 250.722 145.69L247.492 141.1C251.572 137.813 254.915 134.753 257.522 131.92C260.128 128.973 262.338 125.233 264.152 120.7L259.222 116.28C256.728 114.013 254.972 111.917 253.952 109.99C253.045 107.95 252.592 105.853 252.592 103.7C252.592 100.3 253.498 97.8067 255.312 96.22C257.125 94.52 259.562 93.67 262.622 93.67C264.322 93.67 265.908 93.9534 267.382 94.52C268.968 94.9734 270.442 95.8234 271.802 97.07C273.388 100.923 274.182 104.947 274.182 109.14Z" fill="black"/>
<path d="M300.844 223.21C296.084 223.21 291.72 222.643 287.754 221.51C283.787 220.49 279.707 218.903 275.514 216.75L274.834 198.05H284.184L287.414 212.84C291.38 214.653 295.97 215.56 301.184 215.56C307.644 215.56 312.404 214.37 315.464 211.99C318.637 209.61 320.224 206.493 320.224 202.64C320.224 199.013 318.92 196.123 316.314 193.97C313.707 191.703 309.74 189.663 304.414 187.85L296.594 184.96C290.36 182.693 285.374 179.747 281.634 176.12C277.894 172.493 276.024 167.79 276.024 162.01C276.024 157.817 277.157 153.907 279.424 150.28C281.69 146.653 285.034 143.707 289.454 141.44C293.874 139.173 299.257 138.04 305.604 138.04C310.25 138.04 314.444 138.663 318.184 139.91C322.037 141.043 325.777 142.743 329.404 145.01L328.724 162.35H319.884L317.164 148.75C313.31 146.823 309.4 145.86 305.434 145.86C300.22 145.86 296.254 146.937 293.534 149.09C290.927 151.13 289.624 153.907 289.624 157.42C289.624 161.16 290.757 163.993 293.024 165.92C295.404 167.847 299.484 169.887 305.264 172.04L310.534 173.91C319.034 177.083 325.04 180.71 328.554 184.79C332.18 188.87 333.994 193.573 333.994 198.9C333.994 203.207 332.747 207.23 330.254 210.97C327.76 214.597 324.077 217.543 319.204 219.81C314.33 222.077 308.21 223.21 300.844 223.21Z" fill="black"/>
<path d="M450.952 222.7C446.872 222.7 443.472 221.51 440.752 219.13C438.032 216.75 436.332 213.577 435.652 209.61C431.006 214.143 426.926 217.543 423.412 219.81C419.899 222.077 415.649 223.21 410.662 223.21C404.429 223.21 399.046 221.453 394.512 217.94C390.092 214.313 387.882 208.987 387.882 201.96C387.882 198.673 388.619 195.613 390.092 192.78C391.679 189.947 394.512 187.17 398.592 184.45C402.672 181.73 408.509 179.01 416.102 176.29C418.709 175.383 421.712 174.42 425.112 173.4C428.512 172.38 431.912 171.473 435.312 170.68V166.43C435.312 158.157 434.066 152.66 431.572 149.94C429.079 147.22 424.999 145.86 419.332 145.86C418.086 145.86 416.669 145.917 415.082 146.03C413.609 146.143 411.966 146.427 410.152 146.88L406.922 157.93C405.336 163.37 402.389 166.09 398.082 166.09C393.322 166.09 390.659 163.767 390.092 159.12C391.679 152.66 395.419 147.56 401.312 143.82C407.319 139.967 414.629 138.04 423.242 138.04C432.196 138.04 438.826 140.307 443.132 144.84C447.439 149.26 449.592 156.853 449.592 167.62V203.83C449.592 207.457 450.159 210.063 451.292 211.65C452.426 213.123 453.899 213.86 455.712 213.86C457.186 213.86 458.432 213.52 459.452 212.84C460.472 212.16 461.436 211.253 462.342 210.12L465.742 213.86C463.702 217.147 461.436 219.47 458.942 220.83C456.562 222.077 453.899 222.7 450.952 222.7ZM403.012 199.41C403.012 203.943 404.316 207.173 406.922 209.1C409.529 211.027 412.759 211.99 416.612 211.99C418.312 211.99 419.899 211.763 421.372 211.31C422.959 210.857 424.829 210.007 426.982 208.76C429.136 207.4 431.912 205.473 435.312 202.98V176.97C432.366 177.763 429.476 178.67 426.642 179.69C423.809 180.597 421.486 181.39 419.672 182.07C414.799 183.997 411.172 185.98 408.792 188.02C406.412 190.06 404.826 192.043 404.032 193.97C403.352 195.897 403.012 197.71 403.012 199.41Z" fill="black"/>
<path d="M558.424 146.88V140.25H590.724V146.88L581.374 149.09L553.834 222.02H546.524L515.584 148.58L506.404 146.88V140.25H547.544V146.88L532.584 149.09L553.324 203.49L572.194 149.26L558.424 146.88Z" fill="black"/>
<path d="M598.184 221V214.88L610.934 212.5C611.048 208.193 611.104 203.547 611.104 198.56C611.218 193.46 611.274 189.04 611.274 185.3V177.31C611.274 172.663 611.218 168.81 611.104 165.75C611.104 162.577 610.991 159.29 610.764 155.89L597.164 154.36V148.41L623.344 138.04L625.894 139.74L625.384 162.86V185.3C625.384 189.04 625.384 193.46 625.384 198.56C625.498 203.547 625.611 208.193 625.724 212.5L637.624 214.88V221H598.184ZM618.244 119.34C615.071 119.34 612.351 118.32 610.084 116.28C607.931 114.24 606.854 111.633 606.854 108.46C606.854 105.173 607.931 102.567 610.084 100.64C612.351 98.6 615.071 97.58 618.244 97.58C621.418 97.58 624.081 98.6 626.234 100.64C628.501 102.567 629.634 105.173 629.634 108.46C629.634 111.633 628.501 114.24 626.234 116.28C624.081 118.32 621.418 119.34 618.244 119.34Z" fill="black"/>
<path d="M650.009 221V214.88L662.249 212.67C662.362 208.363 662.419 203.717 662.419 198.73C662.532 193.63 662.589 189.153 662.589 185.3V177.14C662.589 172.493 662.532 168.64 662.419 165.58C662.419 162.52 662.306 159.29 662.079 155.89L648.649 154.36V148.41L672.449 138.04L674.999 139.74L676.869 159.8C679.702 153 683.329 147.673 687.749 143.82C692.282 139.967 696.816 138.04 701.349 138.04C703.956 138.04 706.392 138.607 708.659 139.74C710.926 140.873 712.569 142.403 713.589 144.33C713.589 152.603 710.246 156.74 703.559 156.74C701.632 156.74 699.819 156.4 698.119 155.72C696.419 154.927 694.776 153.85 693.189 152.49L691.149 150.62C687.749 153.113 684.916 156.173 682.649 159.8C680.382 163.427 678.512 167.677 677.039 172.55V185.3C677.039 189.04 677.039 193.403 677.039 198.39C677.152 203.377 677.266 208.023 677.379 212.33L691.319 214.88V221H650.009Z" fill="black"/>
<path d="M752.758 223.21C746.865 223.21 742.162 221.623 738.648 218.45C735.135 215.277 733.378 210.403 733.378 203.83C733.378 201.677 733.378 199.58 733.378 197.54C733.492 195.387 733.548 192.667 733.548 189.38V149.26H719.438V141.78L734.568 139.91L738.988 117.13H749.188L748.168 140.25H771.118V149.26H747.998V201.96C747.998 206.267 748.848 209.44 750.548 211.48C752.248 213.407 754.515 214.37 757.348 214.37C759.275 214.37 761.088 213.973 762.788 213.18C764.602 212.387 766.585 211.253 768.738 209.78L772.818 214.2C768.172 220.207 761.485 223.21 752.758 223.21Z" fill="black"/>
<path d="M811.101 223.21C804.188 223.21 798.748 220.943 794.781 216.41C790.815 211.763 788.888 203.83 789.001 192.61L789.511 150.28L777.441 147.73V141.61L802.431 139.23L804.131 140.93L803.281 164.73V191.08C803.281 198.447 804.415 203.66 806.681 206.72C808.948 209.667 812.348 211.14 816.881 211.14C824.815 211.14 832.748 207.457 840.681 200.09L841.191 150.11L829.121 147.73V141.61L853.771 139.23L855.471 140.93L854.961 164.73V212.5L866.521 214.88V221L842.891 222.36L841.191 207.23C836.658 212.783 831.785 216.863 826.571 219.47C821.471 221.963 816.315 223.21 811.101 223.21Z" fill="black"/>
<path d="M943.023 222.7C938.943 222.7 935.543 221.51 932.823 219.13C930.103 216.75 928.403 213.577 927.723 209.61C923.076 214.143 918.996 217.543 915.483 219.81C911.969 222.077 907.719 223.21 902.733 223.21C896.499 223.21 891.116 221.453 886.583 217.94C882.163 214.313 879.953 208.987 879.953 201.96C879.953 198.673 880.689 195.613 882.163 192.78C883.749 189.947 886.583 187.17 890.663 184.45C894.743 181.73 900.579 179.01 908.173 176.29C910.779 175.383 913.783 174.42 917.183 173.4C920.583 172.38 923.983 171.473 927.383 170.68V166.43C927.383 158.157 926.136 152.66 923.643 149.94C921.149 147.22 917.069 145.86 911.403 145.86C910.156 145.86 908.739 145.917 907.153 146.03C905.679 146.143 904.036 146.427 902.223 146.88L898.993 157.93C897.406 163.37 894.459 166.09 890.153 166.09C885.393 166.09 882.729 163.767 882.163 159.12C883.749 152.66 887.489 147.56 893.383 143.82C899.389 139.967 906.699 138.04 915.313 138.04C924.266 138.04 930.896 140.307 935.203 144.84C939.509 149.26 941.663 156.853 941.663 167.62V203.83C941.663 207.457 942.229 210.063 943.363 211.65C944.496 213.123 945.969 213.86 947.783 213.86C949.256 213.86 950.503 213.52 951.523 212.84C952.543 212.16 953.506 211.253 954.413 210.12L957.813 213.86C955.773 217.147 953.506 219.47 951.013 220.83C948.633 222.077 945.969 222.7 943.023 222.7ZM895.083 199.41C895.083 203.943 896.386 207.173 898.993 209.1C901.599 211.027 904.829 211.99 908.683 211.99C910.383 211.99 911.969 211.763 913.443 211.31C915.029 210.857 916.899 210.007 919.053 208.76C921.206 207.4 923.983 205.473 927.383 202.98V176.97C924.436 177.763 921.546 178.67 918.713 179.69C915.879 180.597 913.556 181.39 911.743 182.07C906.869 183.997 903.243 185.98 900.863 188.02C898.483 190.06 896.896 192.043 896.103 193.97C895.423 195.897 895.083 197.71 895.083 199.41Z" fill="black"/>
<path d="M963.047 221V214.88L976.647 212.5C976.76 207.853 976.817 203.32 976.817 198.9C976.93 194.367 976.987 189.833 976.987 185.3V110.67L963.047 108.97V103.02L989.567 95.37L991.947 96.73L991.267 120.87V185.3C991.267 189.833 991.267 194.367 991.267 198.9C991.38 203.433 991.494 207.967 991.607 212.5L1005.21 214.88V221H963.047Z" fill="black"/>
<path d="M215.945 436.21C204.271 436.21 194.978 432.413 188.065 424.82C181.151 417.227 177.695 406.913 177.695 393.88C177.695 384.927 179.508 377.277 183.135 370.93C186.875 364.47 191.748 359.54 197.755 356.14C203.761 352.74 210.165 351.04 216.965 351.04C222.065 351.04 226.768 352.003 231.075 353.93C235.381 355.857 238.951 358.52 241.785 361.92C244.618 365.207 246.375 368.947 247.055 373.14C246.261 377.447 243.655 379.6 239.235 379.6C236.401 379.6 234.248 378.863 232.775 377.39C231.415 375.803 230.451 373.82 229.885 371.44L226.825 360.22C225.238 359.653 223.651 359.313 222.065 359.2C220.591 358.973 219.118 358.86 217.645 358.86C210.391 358.86 204.385 361.693 199.625 367.36C194.978 373.027 192.655 381.3 192.655 392.18C192.655 402.833 195.205 410.993 200.305 416.66C205.405 422.327 211.921 425.16 219.855 425.16C224.728 425.16 229.205 424.083 233.285 421.93C237.365 419.663 240.708 416.433 243.315 412.24L247.565 414.45C245.185 421.477 241.331 426.86 236.005 430.6C230.678 434.34 223.991 436.21 215.945 436.21Z" fill="black"/>
<path d="M324.282 435.7C320.202 435.7 316.802 434.51 314.082 432.13C311.362 429.75 309.662 426.577 308.982 422.61C304.336 427.143 300.256 430.543 296.742 432.81C293.229 435.077 288.979 436.21 283.992 436.21C277.759 436.21 272.376 434.453 267.842 430.94C263.422 427.313 261.212 421.987 261.212 414.96C261.212 411.673 261.949 408.613 263.422 405.78C265.009 402.947 267.842 400.17 271.922 397.45C276.002 394.73 281.839 392.01 289.432 389.29C292.039 388.383 295.042 387.42 298.442 386.4C301.842 385.38 305.242 384.473 308.642 383.68V379.43C308.642 371.157 307.396 365.66 304.902 362.94C302.409 360.22 298.329 358.86 292.662 358.86C291.416 358.86 289.999 358.917 288.412 359.03C286.939 359.143 285.296 359.427 283.482 359.88L280.252 370.93C278.666 376.37 275.719 379.09 271.412 379.09C266.652 379.09 263.989 376.767 263.422 372.12C265.009 365.66 268.749 360.56 274.642 356.82C280.649 352.967 287.959 351.04 296.572 351.04C305.526 351.04 312.156 353.307 316.462 357.84C320.769 362.26 322.922 369.853 322.922 380.62V416.83C322.922 420.457 323.489 423.063 324.622 424.65C325.756 426.123 327.229 426.86 329.042 426.86C330.516 426.86 331.762 426.52 332.782 425.84C333.802 425.16 334.766 424.253 335.672 423.12L339.072 426.86C337.032 430.147 334.766 432.47 332.272 433.83C329.892 435.077 327.229 435.7 324.282 435.7ZM276.342 412.41C276.342 416.943 277.646 420.173 280.252 422.1C282.859 424.027 286.089 424.99 289.942 424.99C291.642 424.99 293.229 424.763 294.702 424.31C296.289 423.857 298.159 423.007 300.312 421.76C302.466 420.4 305.242 418.473 308.642 415.98V389.97C305.696 390.763 302.806 391.67 299.972 392.69C297.139 393.597 294.816 394.39 293.002 395.07C288.129 396.997 284.502 398.98 282.122 401.02C279.742 403.06 278.156 405.043 277.362 406.97C276.682 408.897 276.342 410.71 276.342 412.41Z" fill="black"/>
<path d="M346.367 434V427.88L358.607 425.67C358.72 421.363 358.777 416.717 358.777 411.73C358.89 406.63 358.947 402.153 358.947 398.3V390.14C358.947 385.493 358.89 381.64 358.777 378.58C358.777 375.52 358.663 372.29 358.437 368.89L345.007 367.36V361.41L368.807 351.04L371.357 352.74L373.227 372.8C376.06 366 379.687 360.673 384.107 356.82C388.64 352.967 393.173 351.04 397.707 351.04C400.313 351.04 402.75 351.607 405.017 352.74C407.283 353.873 408.927 355.403 409.947 357.33C409.947 365.603 406.603 369.74 399.917 369.74C397.99 369.74 396.177 369.4 394.477 368.72C392.777 367.927 391.133 366.85 389.547 365.49L387.507 363.62C384.107 366.113 381.273 369.173 379.007 372.8C376.74 376.427 374.87 380.677 373.397 385.55V398.3C373.397 402.04 373.397 406.403 373.397 411.39C373.51 416.377 373.623 421.023 373.737 425.33L387.677 427.88V434H346.367Z" fill="black"/>
<path d="M455.181 358.86C452.008 358.86 448.778 359.767 445.491 361.58C442.318 363.393 439.541 366.283 437.161 370.25C434.894 374.217 433.421 379.487 432.741 386.06H463.681C467.761 386.06 470.424 385.21 471.671 383.51C473.031 381.81 473.711 379.713 473.711 377.22C473.711 373.933 472.861 370.93 471.161 368.21C469.574 365.377 467.364 363.11 464.531 361.41C461.811 359.71 458.694 358.86 455.181 358.86ZM455.011 436.21C443.564 436.21 434.384 432.527 427.471 425.16C420.558 417.68 417.101 407.423 417.101 394.39C417.101 385.663 418.858 378.07 422.371 371.61C425.998 365.15 430.758 360.107 436.651 356.48C442.658 352.853 449.174 351.04 456.201 351.04C462.094 351.04 467.421 352.343 472.181 354.95C476.941 357.557 480.738 361.297 483.571 366.17C486.405 370.93 487.821 376.767 487.821 383.68C487.821 385.607 487.708 387.42 487.481 389.12C487.254 390.707 486.971 392.067 486.631 393.2H432.401C432.628 403.627 435.234 411.56 440.221 417C445.208 422.44 451.781 425.16 459.941 425.16C465.381 425.16 469.914 424.083 473.541 421.93C477.168 419.663 480.511 416.773 483.571 413.26L487.651 416.49C484.478 422.497 480.171 427.313 474.731 430.94C469.291 434.453 462.718 436.21 455.011 436.21Z" fill="black"/>
<path d="M541.841 358.86C538.668 358.86 535.438 359.767 532.151 361.58C528.978 363.393 526.201 366.283 523.821 370.25C521.555 374.217 520.081 379.487 519.401 386.06H550.341C554.421 386.06 557.085 385.21 558.331 383.51C559.691 381.81 560.371 379.713 560.371 377.22C560.371 373.933 559.521 370.93 557.821 368.21C556.235 365.377 554.025 363.11 551.191 361.41C548.471 359.71 545.355 358.86 541.841 358.86ZM541.671 436.21C530.225 436.21 521.045 432.527 514.131 425.16C507.218 417.68 503.761 407.423 503.761 394.39C503.761 385.663 505.518 378.07 509.031 371.61C512.658 365.15 517.418 360.107 523.311 356.48C529.318 352.853 535.835 351.04 542.861 351.04C548.755 351.04 554.081 352.343 558.841 354.95C563.601 357.557 567.398 361.297 570.231 366.17C573.065 370.93 574.481 376.767 574.481 383.68C574.481 385.607 574.368 387.42 574.141 389.12C573.915 390.707 573.631 392.067 573.291 393.2H519.061C519.288 403.627 521.895 411.56 526.881 417C531.868 422.44 538.441 425.16 546.601 425.16C552.041 425.16 556.575 424.083 560.201 421.93C563.828 419.663 567.171 416.773 570.231 413.26L574.311 416.49C571.138 422.497 566.831 427.313 561.391 430.94C555.951 434.453 549.378 436.21 541.671 436.21Z" fill="black"/>
<path d="M589.911 434V427.88L602.151 425.67C602.265 421.363 602.321 416.717 602.321 411.73C602.435 406.63 602.491 402.153 602.491 398.3V390.14C602.491 385.493 602.435 381.64 602.321 378.58C602.321 375.52 602.208 372.29 601.981 368.89L588.551 367.36V361.41L612.351 351.04L614.901 352.74L616.771 372.8C619.605 366 623.231 360.673 627.651 356.82C632.185 352.967 636.718 351.04 641.251 351.04C643.858 351.04 646.295 351.607 648.561 352.74C650.828 353.873 652.471 355.403 653.491 357.33C653.491 365.603 650.148 369.74 643.461 369.74C641.535 369.74 639.721 369.4 638.021 368.72C636.321 367.927 634.678 366.85 633.091 365.49L631.051 363.62C627.651 366.113 624.818 369.173 622.551 372.8C620.285 376.427 618.415 380.677 616.941 385.55V398.3C616.941 402.04 616.941 406.403 616.941 411.39C617.055 416.377 617.168 421.023 617.281 425.33L631.221 427.88V434H589.911Z" fill="black"/>
<path d="M700.454 434V427.88L713.884 425.5C713.997 420.967 714.054 416.433 714.054 411.9C714.167 407.367 714.224 402.833 714.224 398.3V362.26H700.114V354.78L714.564 352.91C715.357 343.843 716.604 336.533 718.304 330.98C720.117 325.313 723.121 320.383 727.314 316.19C730.941 312.563 734.737 310.07 738.704 308.71C742.671 307.35 746.581 306.67 750.434 306.67C754.401 306.67 757.914 307.407 760.974 308.88C764.034 310.24 765.961 312.563 766.754 315.85C766.641 318.003 765.677 319.817 763.864 321.29C762.051 322.763 759.557 323.5 756.384 323.5C752.304 323.5 748.224 321.8 744.144 318.4L739.384 314.66C738.931 315 738.477 315.34 738.024 315.68C737.684 316.02 737.344 316.36 737.004 316.7C734.057 319.647 731.791 324.123 730.204 330.13C728.731 336.023 728.107 343.73 728.334 353.25H751.794V362.26H728.674V398.3C728.674 402.833 728.674 407.367 728.674 411.9C728.787 416.32 728.901 420.797 729.014 425.33L744.314 427.88V434H700.454Z" fill="black"/>
<path d="M825.152 435.7C821.072 435.7 817.672 434.51 814.952 432.13C812.232 429.75 810.532 426.577 809.852 422.61C805.205 427.143 801.125 430.543 797.612 432.81C794.098 435.077 789.848 436.21 784.862 436.21C778.628 436.21 773.245 434.453 768.712 430.94C764.292 427.313 762.082 421.987 762.082 414.96C762.082 411.673 762.818 408.613 764.292 405.78C765.878 402.947 768.712 400.17 772.792 397.45C776.872 394.73 782.708 392.01 790.302 389.29C792.908 388.383 795.912 387.42 799.312 386.4C802.712 385.38 806.112 384.473 809.512 383.68V379.43C809.512 371.157 808.265 365.66 805.772 362.94C803.278 360.22 799.198 358.86 793.532 358.86C792.285 358.86 790.868 358.917 789.282 359.03C787.808 359.143 786.165 359.427 784.352 359.88L781.122 370.93C779.535 376.37 776.588 379.09 772.282 379.09C767.522 379.09 764.858 376.767 764.292 372.12C765.878 365.66 769.618 360.56 775.512 356.82C781.518 352.967 788.828 351.04 797.442 351.04C806.395 351.04 813.025 353.307 817.332 357.84C821.638 362.26 823.792 369.853 823.792 380.62V416.83C823.792 420.457 824.358 423.063 825.492 424.65C826.625 426.123 828.098 426.86 829.912 426.86C831.385 426.86 832.632 426.52 833.652 425.84C834.672 425.16 835.635 424.253 836.542 423.12L839.942 426.86C837.902 430.147 835.635 432.47 833.142 433.83C830.762 435.077 828.098 435.7 825.152 435.7ZM777.212 412.41C777.212 416.943 778.515 420.173 781.122 422.1C783.728 424.027 786.958 424.99 790.812 424.99C792.512 424.99 794.098 424.763 795.572 424.31C797.158 423.857 799.028 423.007 801.182 421.76C803.335 420.4 806.112 418.473 809.512 415.98V389.97C806.565 390.763 803.675 391.67 800.842 392.69C798.008 393.597 795.685 394.39 793.872 395.07C788.998 396.997 785.372 398.98 782.992 401.02C780.612 403.06 779.025 405.043 778.232 406.97C777.552 408.897 777.212 410.71 777.212 412.41Z" fill="black"/>
<path d="M846.876 434V427.88L859.626 425.5C859.739 421.193 859.796 416.547 859.796 411.56C859.909 406.46 859.966 402.04 859.966 398.3V390.31C859.966 385.663 859.909 381.81 859.796 378.75C859.796 375.577 859.682 372.29 859.456 368.89L845.856 367.36V361.41L872.036 351.04L874.586 352.74L874.076 375.86V398.3C874.076 402.04 874.076 406.46 874.076 411.56C874.189 416.547 874.302 421.193 874.416 425.5L886.316 427.88V434H846.876ZM866.936 332.34C863.762 332.34 861.042 331.32 858.776 329.28C856.622 327.24 855.546 324.633 855.546 321.46C855.546 318.173 856.622 315.567 858.776 313.64C861.042 311.6 863.762 310.58 866.936 310.58C870.109 310.58 872.772 311.6 874.926 313.64C877.192 315.567 878.326 318.173 878.326 321.46C878.326 324.633 877.192 327.24 874.926 329.28C872.772 331.32 870.109 332.34 866.936 332.34Z" fill="black"/>
<path d="M898.701 434V427.88L910.941 425.67C911.054 421.363 911.111 416.717 911.111 411.73C911.224 406.63 911.281 402.153 911.281 398.3V390.14C911.281 385.493 911.224 381.64 911.111 378.58C911.111 375.52 910.997 372.29 910.771 368.89L897.341 367.36V361.41L921.141 351.04L923.691 352.74L925.561 372.8C928.394 366 932.021 360.673 936.441 356.82C940.974 352.967 945.507 351.04 950.041 351.04C952.647 351.04 955.084 351.607 957.351 352.74C959.617 353.873 961.261 355.403 962.281 357.33C962.281 365.603 958.937 369.74 952.251 369.74C950.324 369.74 948.511 369.4 946.811 368.72C945.111 367.927 943.467 366.85 941.881 365.49L939.841 363.62C936.441 366.113 933.607 369.173 931.341 372.8C929.074 376.427 927.204 380.677 925.731 385.55V398.3C925.731 402.04 925.731 406.403 925.731 411.39C925.844 416.377 925.957 421.023 926.071 425.33L940.011 427.88V434H898.701Z" fill="black"/>
</svg>
