<svg width="960" height="540" viewBox="0 0 960 540" fill="none" xmlns="http://www.w3.org/2000/svg">
<rect width="960" height="540" fill="black"/>
<path d="M516.707 270.707C517.098 270.317 517.098 269.683 516.707 269.293L510.343 262.929C509.953 262.538 509.319 262.538 508.929 262.929C508.538 263.319 508.538 263.953 508.929 264.343L514.586 270L508.929 275.657C508.538 276.047 508.538 276.681 508.929 277.071C509.319 277.462 509.953 277.462 510.343 277.071L516.707 270.707ZM444 271H516V269H444V271Z" fill="#F0F0F0"/>
<path d="M85.6601 259.129H71.6067V272.578H85.6601V259.129Z" fill="black"/>
<g clip-path="url(#clip0_1153_51052)">
<path d="M74.5317 264.321C74.6077 263.865 74.9009 263.338 75.4113 262.741C75.9216 262.143 76.5514 261.839 77.3007 261.829C77.6808 261.829 78.0282 261.926 78.3431 262.122C78.658 262.317 78.8915 262.561 79.0435 262.855C79.4996 262.171 80.048 261.829 80.6886 261.829C81.0904 261.829 81.4379 261.948 81.7311 262.187C82.0243 262.426 82.1763 262.746 82.1871 263.148C82.1871 263.463 82.1111 263.718 81.9591 263.913C81.8071 264.109 81.6605 264.228 81.5193 264.272C81.3782 264.315 81.2533 264.337 81.1447 264.337C80.9384 264.337 80.7701 264.277 80.6398 264.158C80.5095 264.038 80.4443 263.881 80.4443 263.685C80.4443 263.186 80.7158 262.844 81.2587 262.659C81.1393 262.518 80.9221 262.447 80.6072 262.447C80.466 262.447 80.3629 262.458 80.2977 262.48C79.8851 262.654 79.581 263.012 79.3856 263.555C78.7341 265.955 78.4083 267.356 78.4083 267.757C78.4083 268.061 78.4952 268.279 78.6689 268.409C78.8426 268.539 79.0327 268.604 79.239 268.604C79.6408 268.604 80.0371 268.425 80.428 268.067C80.8189 267.709 81.085 267.269 81.2261 266.748C81.2587 266.639 81.2913 266.579 81.3239 266.568C81.3564 266.557 81.4433 266.547 81.5845 266.536H81.6496C81.8125 266.536 81.8939 266.579 81.8939 266.666C81.8939 266.677 81.8831 266.737 81.8614 266.845C81.6876 267.464 81.351 268.013 80.8515 268.49C80.352 268.968 79.7711 269.207 79.1087 269.207C78.3486 269.207 77.7731 268.865 77.3821 268.181C76.9369 268.854 76.4266 269.191 75.8511 269.191H75.7533C75.2212 269.191 74.8412 269.05 74.6132 268.767C74.3851 268.485 74.2657 268.186 74.2548 267.871C74.2548 267.524 74.358 267.242 74.5643 267.024C74.7706 266.807 75.0149 266.699 75.2973 266.699C75.7642 266.699 75.9976 266.927 75.9976 267.383C75.9976 267.6 75.9325 267.79 75.8022 267.953C75.6719 268.116 75.547 268.224 75.4276 268.279C75.3081 268.333 75.2375 268.36 75.2158 268.36L75.167 268.376C75.167 268.387 75.1995 268.409 75.2647 268.441C75.3298 268.474 75.4167 268.512 75.5253 268.556C75.6339 268.599 75.737 268.615 75.8348 268.604C76.2257 268.604 76.5623 268.36 76.8446 267.871C76.9424 267.698 77.0672 267.328 77.2193 266.764C77.3713 266.199 77.5233 265.613 77.6753 265.005C77.8273 264.397 77.9142 264.038 77.9359 263.93C77.9902 263.636 78.0174 263.425 78.0174 263.294C78.0174 262.99 77.9359 262.773 77.7731 262.643C77.6102 262.513 77.4256 262.447 77.2193 262.447C76.7849 262.447 76.3777 262.621 75.9976 262.969C75.6176 263.316 75.3516 263.761 75.1995 264.304C75.1778 264.402 75.1507 264.456 75.1181 264.467C75.0855 264.478 74.9986 264.489 74.8575 264.5H74.6294C74.5643 264.435 74.5317 264.375 74.5317 264.321Z" fill="#F0F0F0"/>
</g>
<path d="M292.795 279.73H278.948V296.63H292.795V279.73Z" fill="black"/>
<g clip-path="url(#clip1_1153_51052)">
<path d="M281.617 284.957C281.617 284.805 281.699 284.544 281.862 284.175C282.025 283.806 282.285 283.42 282.644 283.018C283.002 282.616 283.404 282.421 283.849 282.432C284.295 282.432 284.653 282.557 284.925 282.807C285.196 283.056 285.337 283.404 285.348 283.849C285.326 284.056 285.31 284.17 285.299 284.191C285.299 284.224 285.212 284.474 285.039 284.941C284.865 285.408 284.686 285.935 284.501 286.521C284.316 287.108 284.229 287.575 284.24 287.922C284.24 288.389 284.316 288.715 284.468 288.9C284.62 289.084 284.849 289.182 285.153 289.193C285.402 289.193 285.636 289.133 285.853 289.014C286.07 288.894 286.239 288.769 286.358 288.639C286.478 288.509 286.624 288.329 286.798 288.101C286.798 288.091 286.825 287.982 286.88 287.776C286.934 287.569 287.01 287.249 287.108 286.814C287.205 286.38 287.309 285.978 287.417 285.609C287.83 283.98 288.058 283.127 288.101 283.051C288.243 282.758 288.476 282.611 288.802 282.611C288.943 282.611 289.057 282.649 289.144 282.725C289.231 282.801 289.291 282.866 289.323 282.921C289.356 282.975 289.367 283.024 289.356 283.067C289.356 283.208 289.09 284.349 288.558 286.489C288.025 288.628 287.721 289.801 287.645 290.008C287.341 290.909 286.814 291.626 286.065 292.158C285.316 292.69 284.566 292.962 283.817 292.973C283.328 292.973 282.899 292.853 282.53 292.614C282.16 292.375 281.976 292.017 281.976 291.539C281.976 291.3 282.014 291.099 282.09 290.936C282.166 290.773 282.269 290.654 282.399 290.578C282.53 290.502 282.638 290.447 282.725 290.415C282.812 290.382 282.904 290.366 283.002 290.366C283.48 290.366 283.719 290.594 283.719 291.05C283.719 291.267 283.654 291.458 283.523 291.62C283.393 291.783 283.268 291.892 283.149 291.946C283.029 292.001 282.959 292.028 282.937 292.028L282.888 292.044C282.91 292.098 283.013 292.163 283.198 292.24C283.382 292.316 283.567 292.354 283.752 292.354H283.882C284.067 292.354 284.208 292.343 284.305 292.321C284.664 292.223 284.995 292.017 285.299 291.702C285.603 291.387 285.837 291.05 286 290.692C286.163 290.333 286.288 290.029 286.375 289.779C286.461 289.53 286.505 289.367 286.505 289.291L286.407 289.356C286.342 289.399 286.239 289.459 286.098 289.535C285.956 289.611 285.815 289.676 285.674 289.731C285.457 289.785 285.245 289.812 285.039 289.812C284.539 289.812 284.099 289.693 283.719 289.454C283.339 289.215 283.089 288.829 282.97 288.297C282.959 288.221 282.953 288.053 282.953 287.792C282.953 287.173 283.143 286.364 283.523 285.364C283.904 284.365 284.094 283.73 284.094 283.458C284.094 283.447 284.094 283.437 284.094 283.426C284.094 283.328 284.094 283.263 284.094 283.23C284.094 283.198 284.072 283.16 284.029 283.116C283.985 283.073 283.925 283.051 283.849 283.051H283.784C283.534 283.051 283.306 283.154 283.1 283.36C282.894 283.567 282.731 283.79 282.611 284.028C282.492 284.267 282.399 284.495 282.334 284.713C282.269 284.93 282.226 285.049 282.204 285.071C282.182 285.093 282.095 285.104 281.943 285.104H281.715C281.65 285.039 281.617 284.99 281.617 284.957Z" fill="#F0F0F0"/>
</g>
<path d="M220.059 99.1924H206.965V112.642H220.059V99.1924Z" fill="black"/>
<g clip-path="url(#clip2_1153_51052)">
<path d="M214.695 103.587C214.587 103.587 214.299 103.527 213.832 103.407C213.365 103.288 213.023 103.228 212.806 103.228C212.588 103.228 212.404 103.25 212.252 103.293C212.1 103.337 211.975 103.391 211.877 103.456C211.779 103.521 211.714 103.581 211.682 103.635C211.649 103.69 211.611 103.75 211.568 103.815L211.535 103.88C211.503 103.912 211.421 103.929 211.291 103.929C211.063 103.929 210.949 103.885 210.949 103.798C210.949 103.744 210.965 103.668 210.998 103.57C211.139 103.147 211.372 102.783 211.698 102.479C212.024 102.175 212.382 101.99 212.773 101.925C212.903 101.903 212.996 101.893 213.05 101.893C213.321 101.893 213.566 101.985 213.783 102.169C214 102.354 214.206 102.533 214.402 102.707C214.597 102.881 214.804 102.973 215.021 102.984C215.26 102.984 215.499 102.805 215.738 102.446C215.977 102.088 216.101 101.909 216.112 101.909C216.123 101.898 216.205 101.893 216.357 101.893H216.568C216.634 101.958 216.666 102.001 216.666 102.023C216.666 102.066 216.639 102.142 216.585 102.251C216.53 102.36 216.454 102.474 216.357 102.593C216.259 102.712 216.167 102.832 216.08 102.951C215.993 103.071 215.917 103.174 215.852 103.261L215.738 103.407C215.271 103.961 214.532 104.694 213.522 105.606C212.512 106.519 211.888 107.105 211.649 107.366L211.454 107.561L211.698 107.577C211.937 107.577 212.284 107.637 212.74 107.757C213.197 107.876 213.539 107.936 213.767 107.936C214.179 107.936 214.559 107.833 214.907 107.626C215.254 107.42 215.482 107.148 215.591 106.812C215.634 106.714 215.672 106.654 215.705 106.633C215.738 106.611 215.819 106.6 215.949 106.6C216.156 106.6 216.259 106.654 216.259 106.763C216.259 106.817 216.253 106.866 216.243 106.91C216.058 107.583 215.7 108.142 215.168 108.587C214.635 109.033 214.103 109.261 213.571 109.271C213.289 109.271 213.039 109.179 212.822 108.995C212.605 108.81 212.393 108.625 212.187 108.441C211.98 108.256 211.774 108.164 211.568 108.164C211.09 108.164 210.661 108.49 210.281 109.141C210.216 109.228 210.123 109.271 210.004 109.271H209.922H209.711C209.646 109.206 209.613 109.157 209.613 109.125C209.613 108.962 209.928 108.495 210.558 107.724C210.981 107.235 211.698 106.529 212.708 105.606C213.718 104.683 214.342 104.097 214.581 103.847C214.711 103.673 214.749 103.587 214.695 103.587Z" fill="#F0F0F0"/>
</g>
<path d="M304.07 227.869L318.285 232.001L305.765 239.9L307.591 233.508L304.07 227.869Z" fill="#404040"/>
<path d="M107.605 267.819L93.3898 263.687L105.91 255.788L104.084 262.18L107.605 267.819Z" fill="#404040"/>
<path d="M96.9546 263.185L314.721 232.503" stroke="#404040" stroke-width="1.5"/>
<path d="M171.537 230.469L162.796 218.521L177.535 219.903L172.188 223.853L171.537 230.469Z" fill="#404040"/>
<path d="M267.873 271.188L276.614 283.136L261.874 281.754L267.222 277.804L267.873 271.188Z" fill="#404040"/>
<path d="M273.483 281.36L165.927 220.298" stroke="#404040" stroke-width="1.5"/>
<path d="M218.7 348.812L212.61 362.305L206.55 348.798L212.622 351.505L218.7 348.812Z" fill="#404040"/>
<path d="M206.783 135.153L212.873 121.66L218.933 135.167L212.861 132.46L206.783 135.153Z" fill="#404040"/>
<path d="M212.869 125.26L212.614 358.705" stroke="#404040" stroke-width="1.5"/>
<path opacity="0.214286" d="M258.339 306.098L164.428 322.792" stroke="#808080" stroke-width="1.5"/>
<path opacity="0.214286" d="M258.339 306.098L314.273 341.557" stroke="#808080" stroke-width="1.5"/>
<path opacity="0.214286" d="M258.339 306.097L260.015 206.656" stroke="#808080" stroke-width="1.5"/>
<path opacity="0.428571" d="M260.015 206.656L162.796 218.52" stroke="#808080" stroke-width="1.5"/>
<path opacity="0.428571" d="M260.015 206.656L318.285 232.001" stroke="#808080" stroke-width="1.5"/>
<path opacity="0.214286" d="M260.015 206.657L261.81 100.146" stroke="#808080" stroke-width="1.5"/>
<path opacity="0.214286" d="M261.81 100.146L161.041 106.415" stroke="#808080" stroke-width="1.5"/>
<path opacity="0.214286" d="M261.81 100.146L322.616 113.723" stroke="#808080" stroke-width="1.5"/>
<path opacity="0.428571" d="M314.273 341.556L212.61 362.304" stroke="#808080" stroke-width="1.5"/>
<path opacity="0.214286" d="M314.273 341.556L384.192 385.88" stroke="#808080" stroke-width="1.5"/>
<path opacity="0.428571" d="M314.273 341.556L318.285 232.001" stroke="#808080" stroke-width="1.5"/>
<path opacity="0.642857" d="M318.285 232.001L212.736 246.872" stroke="#808080" stroke-width="1.5"/>
<path opacity="0.428571" d="M318.285 232.001L391.754 263.956" stroke="#808080" stroke-width="1.5"/>
<path opacity="0.428571" d="M318.285 232.002L322.616 113.723" stroke="#808080" stroke-width="1.5"/>
<path opacity="0.428571" d="M322.616 113.723L212.873 121.66" stroke="#808080" stroke-width="1.5"/>
<path opacity="0.214286" d="M322.616 113.723L400 131" stroke="#808080" stroke-width="1.5"/>
<path opacity="0.214286" d="M384.192 385.88L273.644 412.358" stroke="#808080" stroke-width="1.5"/>
<path opacity="0.214286" d="M384.192 385.88L391.754 263.956" stroke="#808080" stroke-width="1.5"/>
<path opacity="0.428571" d="M391.754 263.956L276.614 283.136" stroke="#808080" stroke-width="1.5"/>
<path opacity="0.214286" d="M391.754 263.957L400 131" stroke="#808080" stroke-width="1.5"/>
<path opacity="0.214286" d="M400 131L279.872 141.365" stroke="#808080" stroke-width="1.5"/>
<path opacity="0.214286" d="M164.428 322.791L60.0583 341.345" stroke="#808080" stroke-width="1.5"/>
<path opacity="0.428571" d="M164.428 322.791L212.61 362.305" stroke="#808080" stroke-width="1.5"/>
<path opacity="0.428571" d="M164.428 322.792L162.796 218.521" stroke="#808080" stroke-width="1.5"/>
<path opacity="0.428571" d="M162.796 218.521L54.3343 231.756" stroke="#808080" stroke-width="1.5"/>
<path opacity="0.642857" d="M162.796 218.521L212.736 246.872" stroke="#808080" stroke-width="1.5"/>
<path opacity="0.428571" d="M162.796 218.52L161.041 106.414" stroke="#808080" stroke-width="1.5"/>
<path opacity="0.214286" d="M161.041 106.414L48.154 113.437" stroke="#808080" stroke-width="1.5"/>
<path opacity="0.428571" d="M161.041 106.414L212.873 121.659" stroke="#808080" stroke-width="1.5"/>
<path opacity="0.428571" d="M212.61 362.306L98.2093 385.655" stroke="#808080" stroke-width="1.5"/>
<path opacity="0.428571" d="M212.61 362.306L273.644 412.359" stroke="#808080" stroke-width="1.5"/>
<path opacity="0.642857" d="M212.61 362.305L212.736 246.872" stroke="#808080" stroke-width="1.5"/>
<path opacity="0.642857" d="M212.736 246.872L93.3898 263.688" stroke="#808080" stroke-width="1.5"/>
<path opacity="0.642857" d="M212.736 246.872L276.614 283.137" stroke="#808080" stroke-width="1.5"/>
<path opacity="0.642857" d="M212.736 246.873L212.873 121.66" stroke="#808080" stroke-width="1.5"/>
<path opacity="0.428571" d="M212.873 121.66L88.1346 130.682" stroke="#808080" stroke-width="1.5"/>
<path opacity="0.428571" d="M212.873 121.66L279.872 141.366" stroke="#808080" stroke-width="1.5"/>
<path opacity="0.214286" d="M273.644 412.359L147.264 442.629" stroke="#808080" stroke-width="1.5"/>
<path opacity="0.428571" d="M273.644 412.359L276.614 283.137" stroke="#808080" stroke-width="1.5"/>
<path opacity="0.428571" d="M276.614 283.137L144.164 305.2" stroke="#808080" stroke-width="1.5"/>
<path opacity="0.428571" d="M276.614 283.137L279.873 141.365" stroke="#808080" stroke-width="1.5"/>
<path opacity="0.214286" d="M279.873 141.365L140.741 153.37" stroke="#808080" stroke-width="1.5"/>
<path opacity="0.214286" d="M60.0583 341.345L98.2093 385.654" stroke="#808080" stroke-width="1.5"/>
<path opacity="0.214286" d="M60.0583 341.344L54.3343 231.755" stroke="#808080" stroke-width="1.5"/>
<path opacity="0.428571" d="M54.3343 231.755L93.3898 263.687" stroke="#808080" stroke-width="1.5"/>
<path opacity="0.214286" d="M54.3343 231.755L48.154 113.437" stroke="#808080" stroke-width="1.5"/>
<path opacity="0.214286" d="M48.154 113.437L88.1347 130.681" stroke="#808080" stroke-width="1.5"/>
<path opacity="0.214286" d="M98.2093 385.654L147.264 442.628" stroke="#808080" stroke-width="1.5"/>
<path opacity="0.428571" d="M98.2093 385.655L93.3898 263.688" stroke="#808080" stroke-width="1.5"/>
<path opacity="0.428571" d="M93.3898 263.688L144.164 305.2" stroke="#808080" stroke-width="1.5"/>
<path opacity="0.428571" d="M93.3898 263.687L88.1346 130.681" stroke="#808080" stroke-width="1.5"/>
<path opacity="0.214286" d="M88.1346 130.681L140.741 153.37" stroke="#808080" stroke-width="1.5"/>
<path opacity="0.214286" d="M147.264 442.628L144.164 305.2" stroke="#808080" stroke-width="1.5"/>
<path opacity="0.214286" d="M144.164 305.2L140.741 153.37" stroke="#808080" stroke-width="1.5"/>
<path d="M107.605 267.819L93.3898 263.687L105.91 255.788L104.084 262.18L107.605 267.819Z" fill="#F0F0F0"/>
<path d="M304.07 227.869L318.285 232.001L305.765 239.9L307.591 233.508L304.07 227.869Z" fill="#F0F0F0"/>
<path d="M314.721 232.503L96.9546 263.185" stroke="#F0F0F0" stroke-width="1.5"/>
<path d="M267.873 271.188L276.614 283.136L261.874 281.754L267.222 277.804L267.873 271.188Z" fill="#F0F0F0"/>
<path d="M171.537 230.469L162.796 218.521L177.535 219.903L172.188 223.853L171.537 230.469Z" fill="#F0F0F0"/>
<path d="M165.927 220.298L273.483 281.36" stroke="#F0F0F0" stroke-width="1.5"/>
<path d="M206.783 135.153L212.873 121.66L218.933 135.167L212.861 132.46L206.783 135.153Z" fill="#F0F0F0"/>
<path d="M218.7 348.812L212.61 362.305L206.55 348.798L212.622 351.505L218.7 348.812Z" fill="#F0F0F0"/>
<path d="M212.614 358.705L212.869 125.26" stroke="#F0F0F0" stroke-width="1.5"/>
<path d="M188.831 256.375L174.616 252.243L187.136 244.344L185.31 250.736L188.831 256.375Z" fill="#92D192"/>
<path d="M212.736 246.872L178.18 251.741" stroke="#92D192" stroke-width="1.5"/>
<path d="M223.476 245.983L232.217 257.932L217.477 256.549L222.825 252.599L223.476 245.983Z" fill="#F2777A"/>
<path d="M212.736 246.872L229.086 256.155" stroke="#F2777A" stroke-width="1.5"/>
<path d="M206.691 219.774L212.781 206.281L218.841 219.788L212.769 217.081L206.691 219.774Z" fill="#6AB0F3"/>
<path d="M212.736 246.872L212.777 209.881" stroke="#6AB0F3" stroke-width="1.5"/>
<path d="M164.997 247.147H154.267V265.321H164.997V247.147Z" fill="black"/>
<g clip-path="url(#clip3_1153_51052)">
<path d="M157.475 256.572C157.475 256.517 157.513 256.376 157.589 256.148C157.665 255.92 157.779 255.654 157.931 255.35C158.083 255.046 158.294 254.769 158.566 254.52C158.837 254.27 159.13 254.118 159.445 254.064H159.738C160.107 254.064 160.411 254.183 160.65 254.422C160.889 254.661 161.014 254.997 161.025 255.432C161.014 255.638 160.992 255.785 160.959 255.871C160.927 255.958 160.688 256.62 160.243 257.858C159.678 259.335 159.396 260.214 159.396 260.496C159.396 260.713 159.483 260.822 159.657 260.822C159.863 260.822 160.069 260.73 160.276 260.545C160.558 260.241 160.802 259.736 161.008 259.031C161.041 258.9 161.068 258.824 161.09 258.803C161.111 258.781 161.187 258.765 161.318 258.754H161.415C161.524 258.754 161.595 258.754 161.627 258.754C161.66 258.754 161.698 258.77 161.741 258.803C161.785 258.835 161.801 258.873 161.79 258.917C161.79 259.025 161.736 259.231 161.627 259.535C161.519 259.839 161.312 260.187 161.008 260.578C160.704 260.969 160.357 261.234 159.966 261.376C159.879 261.397 159.749 261.408 159.575 261.408C159.098 261.408 158.756 261.272 158.549 261.001C158.343 260.73 158.24 260.426 158.24 260.089C158.24 259.796 158.506 258.949 159.038 257.549C159.57 256.148 159.841 255.296 159.852 254.992C159.852 254.862 159.836 254.775 159.803 254.731C159.771 254.688 159.689 254.661 159.559 254.65C159.255 254.672 159 254.84 158.794 255.155C158.587 255.47 158.435 255.806 158.338 256.165C158.24 256.523 158.175 256.702 158.142 256.702C158.131 256.713 158.028 256.718 157.833 256.718H157.572C157.507 256.653 157.475 256.604 157.475 256.572Z" fill="#92D192"/>
<path d="M156.908 251.881L159.139 249.699L159.269 249.829C160.68 251.176 161.386 251.86 161.386 251.881L160.963 252.354C160.941 252.343 160.626 252.071 160.018 251.539L159.155 250.79L158.259 251.556C158.118 251.675 157.977 251.8 157.836 251.93C157.695 252.06 157.581 252.164 157.494 252.24L157.364 252.337C157.342 252.359 157.261 252.283 157.12 252.109L156.908 251.881Z" fill="#92D192"/>
</g>
<path d="M245.802 253.582H234.024V275.221H245.802V253.582Z" fill="black"/>
<g clip-path="url(#clip4_1153_51052)">
<path d="M238.514 263.072C238.514 263.072 238.514 263.055 238.514 263.023C238.514 262.99 238.546 262.892 238.611 262.73C238.676 262.567 238.785 262.36 238.937 262.111C239.089 261.861 239.263 261.611 239.458 261.361C239.654 261.112 239.909 260.911 240.224 260.759C240.539 260.607 240.864 260.52 241.201 260.498C241.559 260.52 241.885 260.639 242.178 260.857C242.471 261.074 242.618 261.454 242.618 261.997V262.29L241.82 265.515C241.7 265.971 241.565 266.497 241.413 267.094C241.261 267.692 241.152 268.137 241.087 268.43C241.022 268.723 240.978 268.875 240.957 268.886C240.772 269.429 240.43 269.917 239.931 270.352C239.431 270.786 238.845 271.009 238.172 271.02C237.672 271.02 237.298 270.895 237.048 270.645C236.863 270.46 236.771 270.238 236.771 269.977C236.771 269.673 236.869 269.434 237.064 269.261C237.26 269.087 237.482 268.995 237.732 268.984C237.96 268.984 238.123 269.049 238.22 269.179C238.318 269.309 238.372 269.434 238.383 269.554C238.383 269.901 238.231 270.183 237.927 270.401L238.009 270.417H238.253H238.269C238.834 270.417 239.295 269.912 239.654 268.902C239.686 268.805 239.974 267.675 240.517 265.515C241.06 263.354 241.348 262.198 241.38 262.046C241.391 261.98 241.396 261.856 241.396 261.671C241.396 261.541 241.391 261.443 241.38 261.378C241.369 261.313 241.337 261.253 241.282 261.199C241.228 261.144 241.147 261.112 241.038 261.101C240.756 261.101 240.457 261.247 240.142 261.541C239.947 261.736 239.784 261.959 239.654 262.208C239.523 262.458 239.42 262.67 239.344 262.844C239.268 263.017 239.219 263.115 239.198 263.137C239.176 263.158 239.073 263.169 238.888 263.169H238.611C238.546 263.104 238.514 263.055 238.514 263.023V263.072Z" fill="#F2777A"/>
<path d="M237.748 258.316L239.979 256.133L240.11 256.264C241.521 257.61 242.227 258.294 242.227 258.316L241.804 258.788C241.782 258.777 241.467 258.506 240.859 257.974L239.996 257.225L239.1 257.99C238.959 258.109 238.818 258.234 238.677 258.365C238.535 258.495 238.421 258.598 238.334 258.674L238.204 258.772C238.182 258.794 238.101 258.718 237.96 258.544L237.748 258.316Z" fill="#F2777A"/>
</g>
<path d="M220.4 175.994H206.914V198.688H220.4V175.994Z" fill="black"/>
<g clip-path="url(#clip5_1153_51052)">
<path d="M210.732 183.678C210.732 183.57 210.753 183.445 210.797 183.303C210.84 183.162 210.906 183.092 210.992 183.092C211.003 183.092 211.394 183.064 212.165 183.01C212.937 182.956 213.333 182.923 213.355 182.912C213.485 182.912 213.55 182.956 213.55 183.043C213.55 183.119 213.279 184.254 212.736 186.448C212.193 188.598 211.921 189.712 211.921 189.788C212.127 189.679 212.285 189.576 212.394 189.478C212.654 189.283 213.029 188.941 213.518 188.452C214.007 187.963 214.387 187.632 214.658 187.458C215.093 187.165 215.505 187.018 215.896 187.018C216.222 187.018 216.477 187.121 216.662 187.328C216.847 187.534 216.945 187.827 216.955 188.207C216.955 188.479 216.917 188.707 216.841 188.892C216.765 189.076 216.662 189.212 216.532 189.299C216.401 189.386 216.287 189.446 216.19 189.478C216.092 189.511 215.994 189.527 215.896 189.527C215.679 189.527 215.505 189.467 215.375 189.348C215.245 189.228 215.18 189.071 215.18 188.875C215.18 188.604 215.266 188.381 215.44 188.207C215.614 188.034 215.788 187.92 215.962 187.865L216.222 187.816C216.092 187.686 215.962 187.621 215.831 187.621H215.766C215.418 187.653 215.076 187.789 214.74 188.028C214.403 188.267 214.007 188.615 213.55 189.071C213.094 189.527 212.736 189.858 212.475 190.065C212.497 190.076 212.578 190.092 212.719 190.114C212.861 190.135 212.991 190.168 213.11 190.211C213.23 190.255 213.371 190.298 213.534 190.342C213.697 190.385 213.844 190.461 213.974 190.57C214.104 190.678 214.224 190.776 214.332 190.863C214.441 190.95 214.533 191.091 214.609 191.287C214.685 191.482 214.718 191.661 214.707 191.824C214.707 192.009 214.68 192.232 214.626 192.492C214.571 192.753 214.539 192.97 214.528 193.144C214.528 193.578 214.674 193.796 214.968 193.796C215.489 193.796 215.913 193.149 216.239 191.857C216.26 191.77 216.369 191.727 216.564 191.727H216.63C216.803 191.727 216.89 191.775 216.89 191.873C216.89 191.927 216.874 192.003 216.841 192.101C216.396 193.633 215.755 194.398 214.919 194.398C214.43 194.398 214.034 194.257 213.73 193.975C213.425 193.692 213.273 193.285 213.273 192.753C213.273 192.557 213.29 192.389 213.322 192.248C213.355 192.107 213.371 191.976 213.371 191.857C213.371 191.618 213.295 191.412 213.143 191.238C212.991 191.064 212.801 190.939 212.573 190.863C212.345 190.787 212.16 190.727 212.019 190.684C211.878 190.64 211.78 190.624 211.726 190.635H211.693C211.563 191.091 211.449 191.531 211.351 191.955C211.253 192.378 211.177 192.693 211.123 192.9C211.068 193.106 211.02 193.307 210.976 193.502C210.933 193.698 210.895 193.828 210.862 193.893C210.83 193.959 210.791 194.029 210.748 194.105C210.705 194.181 210.645 194.23 210.569 194.252C210.428 194.35 210.276 194.398 210.113 194.398C209.928 194.398 209.787 194.344 209.689 194.236C209.591 194.127 209.542 194.035 209.542 193.959C209.542 193.85 209.743 192.981 210.145 191.352C210.547 189.723 210.944 188.12 211.335 186.546L211.937 184.183C211.948 184.042 211.91 183.955 211.823 183.923C211.736 183.89 211.525 183.863 211.188 183.841H211.106C210.998 183.841 210.927 183.841 210.895 183.841C210.862 183.841 210.824 183.825 210.781 183.792C210.737 183.76 210.721 183.722 210.732 183.678Z" fill="#6AB0F3"/>
<path d="M210.756 180.73L212.988 178.547L213.119 178.677C214.531 180.024 215.237 180.708 215.237 180.73L214.813 181.202C214.791 181.191 214.476 180.92 213.868 180.388L213.004 179.638L212.108 180.404C211.967 180.523 211.826 180.648 211.685 180.779C211.544 180.909 211.43 181.012 211.343 181.088L211.212 181.186C211.191 181.208 211.109 181.132 210.968 180.958L210.756 180.73Z" fill="#6AB0F3"/>
</g>
<g opacity="0.5">
<path d="M597.506 257.307H583.453V270.756H597.506V257.307Z" fill="black"/>
<g clip-path="url(#clip6_1153_51052)">
<path d="M586.378 262.498C586.454 262.042 586.747 261.516 587.257 260.918C587.768 260.321 588.398 260.017 589.147 260.006C589.527 260.006 589.874 260.104 590.189 260.299C590.504 260.495 590.738 260.739 590.89 261.032C591.346 260.348 591.894 260.006 592.535 260.006C592.936 260.006 593.284 260.126 593.577 260.365C593.87 260.603 594.022 260.924 594.033 261.326C594.033 261.64 593.957 261.896 593.805 262.091C593.653 262.287 593.507 262.406 593.365 262.449C593.224 262.493 593.099 262.515 592.991 262.515C592.784 262.515 592.616 262.455 592.486 262.335C592.356 262.216 592.29 262.059 592.29 261.863C592.29 261.364 592.562 261.022 593.105 260.837C592.985 260.696 592.768 260.625 592.453 260.625C592.312 260.625 592.209 260.636 592.144 260.658C591.731 260.832 591.427 261.19 591.232 261.733C590.58 264.133 590.254 265.533 590.254 265.935C590.254 266.239 590.341 266.456 590.515 266.587C590.689 266.717 590.879 266.782 591.085 266.782C591.487 266.782 591.883 266.603 592.274 266.245C592.665 265.886 592.931 265.446 593.072 264.925C593.105 264.817 593.137 264.757 593.17 264.746C593.203 264.735 593.289 264.724 593.431 264.714H593.496C593.659 264.714 593.74 264.757 593.74 264.844C593.74 264.855 593.729 264.914 593.707 265.023C593.534 265.642 593.197 266.19 592.698 266.668C592.198 267.146 591.617 267.385 590.955 267.385C590.195 267.385 589.619 267.043 589.228 266.359C588.783 267.032 588.273 267.368 587.697 267.368H587.599C587.067 267.368 586.687 267.227 586.459 266.945C586.231 266.663 586.112 266.364 586.101 266.049C586.101 265.702 586.204 265.419 586.41 265.202C586.617 264.985 586.861 264.876 587.143 264.876C587.61 264.876 587.844 265.104 587.844 265.56C587.844 265.778 587.779 265.968 587.648 266.131C587.518 266.293 587.393 266.402 587.274 266.456C587.154 266.511 587.084 266.538 587.062 266.538L587.013 266.554C587.013 266.565 587.046 266.587 587.111 266.619C587.176 266.652 587.263 266.69 587.371 266.733C587.48 266.777 587.583 266.793 587.681 266.782C588.072 266.782 588.408 266.538 588.691 266.049C588.788 265.875 588.913 265.506 589.065 264.942C589.217 264.377 589.369 263.791 589.521 263.182C589.673 262.574 589.76 262.216 589.782 262.107C589.836 261.814 589.863 261.602 589.863 261.472C589.863 261.168 589.782 260.951 589.619 260.821C589.456 260.69 589.272 260.625 589.065 260.625C588.631 260.625 588.224 260.799 587.844 261.146C587.464 261.494 587.198 261.939 587.046 262.482C587.024 262.58 586.997 262.634 586.964 262.645C586.932 262.656 586.845 262.667 586.704 262.678H586.476C586.41 262.612 586.378 262.553 586.378 262.498Z" fill="#F0F0F0"/>
</g>
<path d="M804.641 277.908H790.794V294.808H804.641V277.908Z" fill="black"/>
<g clip-path="url(#clip7_1153_51052)">
<path d="M793.463 283.135C793.463 282.983 793.545 282.722 793.708 282.353C793.871 281.984 794.131 281.598 794.49 281.196C794.848 280.794 795.25 280.599 795.695 280.61C796.141 280.61 796.499 280.734 796.771 280.984C797.042 281.234 797.183 281.582 797.194 282.027C797.172 282.233 797.156 282.347 797.145 282.369C797.145 282.402 797.058 282.651 796.885 283.119C796.711 283.586 796.532 284.112 796.347 284.699C796.162 285.285 796.075 285.752 796.086 286.1C796.086 286.567 796.162 286.893 796.314 287.077C796.466 287.262 796.695 287.36 796.999 287.371C797.248 287.371 797.482 287.311 797.699 287.191C797.916 287.072 798.085 286.947 798.204 286.817C798.324 286.686 798.47 286.507 798.644 286.279C798.644 286.268 798.671 286.16 798.726 285.953C798.78 285.747 798.856 285.427 798.954 284.992C799.051 284.558 799.155 284.156 799.263 283.786C799.676 282.157 799.904 281.305 799.947 281.229C800.089 280.935 800.322 280.789 800.648 280.789C800.789 280.789 800.903 280.827 800.99 280.903C801.077 280.979 801.137 281.044 801.169 281.098C801.202 281.153 801.213 281.202 801.202 281.245C801.202 281.386 800.936 282.527 800.404 284.666C799.871 286.806 799.567 287.979 799.491 288.185C799.187 289.087 798.66 289.804 797.911 290.336C797.162 290.868 796.412 291.14 795.663 291.15C795.174 291.15 794.745 291.031 794.376 290.792C794.006 290.553 793.822 290.195 793.822 289.717C793.822 289.478 793.86 289.277 793.936 289.114C794.012 288.951 794.115 288.832 794.245 288.755C794.376 288.679 794.484 288.625 794.571 288.593C794.658 288.56 794.75 288.544 794.848 288.544C795.326 288.544 795.565 288.772 795.565 289.228C795.565 289.445 795.5 289.635 795.369 289.798C795.239 289.961 795.114 290.07 794.995 290.124C794.875 290.178 794.805 290.205 794.783 290.205L794.734 290.222C794.756 290.276 794.859 290.341 795.044 290.417C795.228 290.493 795.413 290.531 795.598 290.531H795.728C795.913 290.531 796.054 290.52 796.151 290.499C796.51 290.401 796.841 290.195 797.145 289.88C797.449 289.565 797.683 289.228 797.846 288.87C798.009 288.511 798.134 288.207 798.221 287.957C798.307 287.707 798.351 287.544 798.351 287.468L798.253 287.534C798.188 287.577 798.085 287.637 797.944 287.713C797.802 287.789 797.661 287.854 797.52 287.908C797.303 287.963 797.091 287.99 796.885 287.99C796.385 287.99 795.945 287.87 795.565 287.631C795.185 287.392 794.935 287.007 794.816 286.475C794.805 286.399 794.799 286.23 794.799 285.97C794.799 285.351 794.989 284.541 795.369 283.542C795.75 282.543 795.94 281.908 795.94 281.636C795.94 281.625 795.94 281.614 795.94 281.603C795.94 281.506 795.94 281.44 795.94 281.408C795.94 281.375 795.918 281.337 795.874 281.294C795.831 281.25 795.771 281.229 795.695 281.229H795.63C795.38 281.229 795.152 281.332 794.946 281.538C794.739 281.745 794.577 281.967 794.457 282.206C794.338 282.445 794.245 282.673 794.18 282.89C794.115 283.108 794.072 283.227 794.05 283.249C794.028 283.271 793.941 283.281 793.789 283.281H793.561C793.496 283.216 793.463 283.167 793.463 283.135Z" fill="#F0F0F0"/>
</g>
<path d="M731.905 97.3701H718.811V110.82H731.905V97.3701Z" fill="black"/>
<g clip-path="url(#clip8_1153_51052)">
<path d="M726.541 101.764C726.433 101.764 726.145 101.705 725.678 101.585C725.211 101.466 724.869 101.406 724.652 101.406C724.434 101.406 724.25 101.428 724.098 101.471C723.946 101.515 723.821 101.569 723.723 101.634C723.625 101.699 723.56 101.759 723.528 101.813C723.495 101.868 723.457 101.927 723.414 101.992L723.381 102.058C723.349 102.09 723.267 102.106 723.137 102.106C722.909 102.106 722.795 102.063 722.795 101.976C722.795 101.922 722.811 101.846 722.844 101.748C722.985 101.325 723.218 100.961 723.544 100.657C723.87 100.353 724.228 100.168 724.619 100.103C724.749 100.081 724.842 100.07 724.896 100.07C725.167 100.07 725.412 100.163 725.629 100.347C725.846 100.532 726.052 100.711 726.248 100.885C726.443 101.058 726.65 101.151 726.867 101.162C727.106 101.162 727.345 100.982 727.584 100.624C727.823 100.266 727.947 100.087 727.958 100.087C727.969 100.076 728.051 100.07 728.203 100.07H728.414C728.48 100.135 728.512 100.179 728.512 100.201C728.512 100.244 728.485 100.32 728.431 100.429C728.376 100.537 728.3 100.651 728.203 100.771C728.105 100.89 728.013 101.01 727.926 101.129C727.839 101.249 727.763 101.352 727.698 101.439L727.584 101.585C727.117 102.139 726.378 102.872 725.368 103.784C724.358 104.696 723.734 105.283 723.495 105.543L723.3 105.739L723.544 105.755C723.783 105.755 724.13 105.815 724.586 105.934C725.043 106.054 725.385 106.114 725.613 106.114C726.025 106.114 726.405 106.01 726.753 105.804C727.1 105.598 727.328 105.326 727.437 104.99C727.481 104.892 727.519 104.832 727.551 104.81C727.584 104.789 727.665 104.778 727.795 104.778C728.002 104.778 728.105 104.832 728.105 104.941C728.105 104.995 728.099 105.044 728.089 105.087C727.904 105.761 727.546 106.32 727.014 106.765C726.481 107.21 725.949 107.438 725.417 107.449C725.135 107.449 724.885 107.357 724.668 107.172C724.451 106.988 724.239 106.803 724.033 106.618C723.826 106.434 723.62 106.342 723.414 106.342C722.936 106.342 722.507 106.667 722.127 107.319C722.062 107.406 721.969 107.449 721.85 107.449H721.768H721.557C721.492 107.384 721.459 107.335 721.459 107.303C721.459 107.14 721.774 106.673 722.404 105.902C722.827 105.413 723.544 104.707 724.554 103.784C725.564 102.861 726.188 102.275 726.427 102.025C726.557 101.851 726.595 101.764 726.541 101.764Z" fill="#F0F0F0"/>
</g>
</g>
<path d="M815.916 226.047L830.131 230.179L817.611 238.078L819.437 231.686L815.916 226.047Z" fill="#404040"/>
<path d="M619.451 265.997L605.236 261.865L617.756 253.966L615.93 260.358L619.451 265.997Z" fill="#404040"/>
<path d="M608.801 261.362L826.567 230.681" stroke="#404040" stroke-width="1.5"/>
<path d="M683.383 228.646L674.642 216.698L689.381 218.08L684.034 222.03L683.383 228.646Z" fill="#404040"/>
<path d="M779.719 269.366L788.46 281.314L773.72 279.932L779.068 275.982L779.719 269.366Z" fill="#404040"/>
<path d="M785.329 279.537L677.773 218.476" stroke="#404040" stroke-width="1.5"/>
<path d="M730.546 346.989L724.456 360.483L718.396 346.976L724.468 349.683L730.546 346.989Z" fill="#404040"/>
<path d="M718.629 133.331L724.719 119.838L730.779 133.344L724.707 130.638L718.629 133.331Z" fill="#404040"/>
<path d="M724.715 123.438L724.46 356.883" stroke="#404040" stroke-width="1.5"/>
<path opacity="0.214286" d="M773.656 98.3242L771.861 204.835" stroke="#808080" stroke-width="1.5"/>
<path opacity="0.214286" d="M773.656 98.3242L834.462 111.901" stroke="#808080" stroke-width="1.5"/>
<path opacity="0.214286" d="M773.656 98.3242L672.887 104.593" stroke="#808080" stroke-width="1.5"/>
<path opacity="0.428571" d="M672.887 104.592L674.642 216.698" stroke="#808080" stroke-width="1.5"/>
<path opacity="0.428571" d="M672.887 104.592L724.719 119.837" stroke="#808080" stroke-width="1.5"/>
<path opacity="0.214286" d="M672.887 104.592L560 111.614" stroke="#808080" stroke-width="1.5"/>
<path opacity="0.214286" d="M560 111.614L566.18 229.933" stroke="#808080" stroke-width="1.5"/>
<path opacity="0.214286" d="M560 111.614L599.981 128.858" stroke="#808080" stroke-width="1.5"/>
<path opacity="0.428571" d="M834.462 111.9L830.131 230.179" stroke="#808080" stroke-width="1.5"/>
<path opacity="0.214286" d="M834.462 111.9L911.846 129.178" stroke="#808080" stroke-width="1.5"/>
<path opacity="0.428571" d="M834.462 111.9L724.719 119.837" stroke="#808080" stroke-width="1.5"/>
<path opacity="0.642857" d="M724.719 119.838L724.582 245.05" stroke="#808080" stroke-width="1.5"/>
<path opacity="0.428571" d="M724.719 119.838L791.719 139.543" stroke="#808080" stroke-width="1.5"/>
<path opacity="0.428571" d="M724.719 119.838L599.981 128.859" stroke="#808080" stroke-width="1.5"/>
<path opacity="0.428571" d="M599.981 128.858L605.236 261.865" stroke="#808080" stroke-width="1.5"/>
<path opacity="0.214286" d="M599.981 128.858L652.587 151.547" stroke="#808080" stroke-width="1.5"/>
<path opacity="0.214286" d="M911.846 129.178L903.6 262.135" stroke="#808080" stroke-width="1.5"/>
<path opacity="0.214286" d="M911.846 129.178L791.719 139.543" stroke="#808080" stroke-width="1.5"/>
<path opacity="0.428571" d="M791.719 139.543L788.46 281.315" stroke="#808080" stroke-width="1.5"/>
<path opacity="0.214286" d="M791.719 139.543L652.587 151.548" stroke="#808080" stroke-width="1.5"/>
<path opacity="0.214286" d="M652.587 151.548L656.01 303.378" stroke="#808080" stroke-width="1.5"/>
<path opacity="0.214286" d="M771.861 204.834L770.185 304.275" stroke="#808080" stroke-width="1.5"/>
<path opacity="0.428571" d="M771.861 204.834L830.131 230.179" stroke="#808080" stroke-width="1.5"/>
<path opacity="0.428571" d="M771.861 204.834L674.642 216.698" stroke="#808080" stroke-width="1.5"/>
<path opacity="0.428571" d="M674.642 216.698L676.274 320.97" stroke="#808080" stroke-width="1.5"/>
<path opacity="0.642857" d="M674.642 216.698L724.582 245.05" stroke="#808080" stroke-width="1.5"/>
<path opacity="0.428571" d="M674.642 216.698L566.18 229.934" stroke="#808080" stroke-width="1.5"/>
<path opacity="0.214286" d="M566.18 229.933L571.904 339.522" stroke="#808080" stroke-width="1.5"/>
<path opacity="0.428571" d="M566.18 229.933L605.236 261.865" stroke="#808080" stroke-width="1.5"/>
<path opacity="0.428571" d="M830.131 230.179L826.119 339.734" stroke="#808080" stroke-width="1.5"/>
<path opacity="0.428571" d="M830.131 230.179L903.6 262.134" stroke="#808080" stroke-width="1.5"/>
<path opacity="0.642857" d="M830.131 230.179L724.582 245.049" stroke="#808080" stroke-width="1.5"/>
<path opacity="0.642857" d="M724.582 245.05L724.456 360.483" stroke="#808080" stroke-width="1.5"/>
<path opacity="0.642857" d="M724.582 245.05L788.46 281.314" stroke="#808080" stroke-width="1.5"/>
<path opacity="0.642857" d="M724.582 245.05L605.236 261.865" stroke="#808080" stroke-width="1.5"/>
<path opacity="0.428571" d="M605.236 261.865L610.055 383.832" stroke="#808080" stroke-width="1.5"/>
<path opacity="0.428571" d="M605.236 261.865L656.01 303.378" stroke="#808080" stroke-width="1.5"/>
<path opacity="0.214286" d="M903.6 262.134L896.038 384.058" stroke="#808080" stroke-width="1.5"/>
<path opacity="0.428571" d="M903.6 262.134L788.46 281.314" stroke="#808080" stroke-width="1.5"/>
<path opacity="0.428571" d="M788.46 281.314L785.49 410.536" stroke="#808080" stroke-width="1.5"/>
<path opacity="0.428571" d="M788.46 281.314L656.01 303.378" stroke="#808080" stroke-width="1.5"/>
<path opacity="0.214286" d="M656.01 303.378L659.11 440.806" stroke="#808080" stroke-width="1.5"/>
<path opacity="0.214286" d="M770.185 304.275L826.119 339.735" stroke="#808080" stroke-width="1.5"/>
<path opacity="0.214286" d="M770.185 304.275L676.274 320.97" stroke="#808080" stroke-width="1.5"/>
<path opacity="0.428571" d="M676.274 320.969L724.456 360.482" stroke="#808080" stroke-width="1.5"/>
<path opacity="0.214286" d="M676.274 320.969L571.904 339.522" stroke="#808080" stroke-width="1.5"/>
<path opacity="0.214286" d="M571.904 339.522L610.055 383.832" stroke="#808080" stroke-width="1.5"/>
<path opacity="0.214286" d="M826.119 339.733L896.038 384.057" stroke="#808080" stroke-width="1.5"/>
<path opacity="0.428571" d="M826.119 339.733L724.456 360.482" stroke="#808080" stroke-width="1.5"/>
<path opacity="0.428571" d="M724.456 360.483L785.49 410.537" stroke="#808080" stroke-width="1.5"/>
<path opacity="0.428571" d="M724.456 360.483L610.055 383.833" stroke="#808080" stroke-width="1.5"/>
<path opacity="0.214286" d="M610.055 383.832L659.11 440.806" stroke="#808080" stroke-width="1.5"/>
<path opacity="0.214286" d="M896.038 384.058L785.49 410.536" stroke="#808080" stroke-width="1.5"/>
<path opacity="0.214286" d="M785.49 410.537L659.11 440.807" stroke="#808080" stroke-width="1.5"/>
<path d="M730.546 346.989L724.456 360.483L718.396 346.976L724.468 349.683L730.546 346.989Z" fill="#F0F0F0"/>
<path d="M718.629 133.331L724.719 119.838L730.779 133.344L724.707 130.638L718.629 133.331Z" fill="#F0F0F0"/>
<path d="M724.715 123.438L724.46 356.883" stroke="#F0F0F0" stroke-width="1.5"/>
<path d="M779.719 269.366L788.46 281.314L773.72 279.932L779.068 275.982L779.719 269.366Z" fill="#F0F0F0"/>
<path d="M683.383 228.646L674.642 216.698L689.381 218.08L684.034 222.03L683.383 228.646Z" fill="#F0F0F0"/>
<path d="M677.773 218.476L785.329 279.537" stroke="#F0F0F0" stroke-width="1.5"/>
<path d="M619.451 265.997L605.236 261.865L617.756 253.966L615.93 260.358L619.451 265.997Z" fill="#F0F0F0"/>
<path d="M815.916 226.047L830.131 230.179L817.611 238.078L819.437 231.686L815.916 226.047Z" fill="#F0F0F0"/>
<path d="M826.567 230.681L608.801 261.362" stroke="#F0F0F0" stroke-width="1.5"/>
<path d="M730.629 271.063L724.539 284.557L718.479 271.05L724.551 273.757L730.629 271.063Z" fill="#92D192"/>
<path d="M724.582 245.05L724.543 280.956" stroke="#92D192" stroke-width="1.5"/>
<path d="M735.322 244.161L744.063 256.109L729.323 254.727L734.671 250.777L735.322 244.161Z" fill="#F2777A"/>
<path d="M724.582 245.05L740.932 254.333" stroke="#F2777A" stroke-width="1.5"/>
<path d="M700.677 254.553L686.462 250.421L698.982 242.522L697.156 248.914L700.677 254.553Z" fill="#6AB0F3"/>
<path d="M724.582 245.05L690.026 249.919" stroke="#6AB0F3" stroke-width="1.5"/>
<defs>
<clipPath id="clip0_1153_51052">
<rect width="9.3168" height="7.38" fill="white" transform="translate(73.6848 261.828)"/>
</clipPath>
<clipPath id="clip1_1153_51052">
<rect width="7.9848" height="10.5408" fill="white" transform="translate(281.274 282.432)"/>
</clipPath>
<clipPath id="clip2_1153_51052">
<rect width="7.5744" height="7.38" fill="white" transform="translate(209.043 101.892)"/>
</clipPath>
<clipPath id="clip3_1153_51052">
<rect width="5.5368" height="13.3416" fill="white" transform="translate(156.253 248.068)"/>
</clipPath>
<clipPath id="clip4_1153_51052">
<rect width="5.4072" height="16.5168" fill="white" transform="translate(237.292 254.504)"/>
</clipPath>
<clipPath id="clip5_1153_51052">
<rect width="8.4888" height="17.4816" fill="white" transform="translate(208.76 176.917)"/>
</clipPath>
<clipPath id="clip6_1153_51052">
<rect width="9.3168" height="7.38" fill="white" transform="translate(585.531 260.006)"/>
</clipPath>
<clipPath id="clip7_1153_51052">
<rect width="7.9848" height="10.5408" fill="white" transform="translate(793.12 280.609)"/>
</clipPath>
<clipPath id="clip8_1153_51052">
<rect width="7.5744" height="7.38" fill="white" transform="translate(720.889 100.069)"/>
</clipPath>
</defs>
</svg>
