<svg width="540" height="540" viewBox="0 0 540 540" fill="none" xmlns="http://www.w3.org/2000/svg">
<g clip-path="url(#clip0_1584_3113)">
<path d="M540 0H0V540H540V0Z" fill="black"/>
<path d="M304.081 189.295L316.961 179.064L316.076 195.489L311.455 189.727L304.081 189.295Z" fill="#A0A0A0"/>
<path d="M218.202 385.013L205.322 395.243L206.207 378.818L210.828 384.581L218.202 385.013Z" fill="#A0A0A0"/>
<path d="M207.157 391.689L315.126 182.618" stroke="#A0A0A0" stroke-width="1.5"/>
<path d="M104.862 249.795L91.1503 240.709L107.044 236.472L102.993 242.649L104.862 249.795Z" fill="#A0A0A0"/>
<path d="M452.445 293.041L466.157 302.126L450.263 306.363L454.315 300.187L452.445 293.041Z" fill="#A0A0A0"/>
<path d="M462.21 301.48L95.0977 241.355" stroke="#A0A0A0" stroke-width="1.5"/>
<path d="M276.75 399.72L270 414.72L263.25 399.72L270 402.72L276.75 399.72Z" fill="#A0A0A0"/>
<path d="M263.25 103.542L270 88.5425L276.75 103.542L270 100.542L263.25 103.542Z" fill="#A0A0A0"/>
<path d="M270 92.5425V410.72" stroke="#A0A0A0" stroke-width="1.5"/>
<path d="M268.322 240.142L271.662 233.995" stroke="#A0A0A0" stroke-width="1.5"/>
<path d="M275.751 237.949L264.266 236.161" stroke="#A0A0A0" stroke-width="1.5"/>
<path d="M268.396 304.748L271.589 298.272" stroke="#A0A0A0" stroke-width="1.5"/>
<path d="M275.497 302.438L264.518 300.554" stroke="#A0A0A0" stroke-width="1.5"/>
<path d="M264.55 292.746L252.988 290.785" stroke="#A0A0A0" stroke-width="1.5"/>
<path d="M258.721 286.834L258.8 296.66" stroke="#A0A0A0" stroke-width="1.5"/>
<path d="M286.01 250.44L275.101 248.712" stroke="#A0A0A0" stroke-width="1.5"/>
<path d="M280.583 244.81L280.513 254.308" stroke="#A0A0A0" stroke-width="1.5"/>
<path d="M306.296 279.421L309.229 272.981" stroke="#A0A0A0" stroke-width="1.5"/>
<path d="M307.899 271.315L307.641 281.024" stroke="#A0A0A0" stroke-width="1.5"/>
<path d="M231.121 267.046L234.705 260.839" stroke="#A0A0A0" stroke-width="1.5"/>
<path d="M232.797 259.105L233.045 268.718" stroke="#A0A0A0" stroke-width="1.5"/>
<path d="M268.282 205.542L271.701 199.594" stroke="#A0A0A0" stroke-width="1.5"/>
<path d="M275.886 203.419L264.131 201.69" stroke="#A0A0A0" stroke-width="1.5"/>
<path d="M268.431 334.952L271.555 328.341" stroke="#A0A0A0" stroke-width="1.5"/>
<path d="M275.378 332.594L264.636 330.671" stroke="#A0A0A0" stroke-width="1.5"/>
<path d="M252.727 316.053L240.809 313.957" stroke="#A0A0A0" stroke-width="1.5"/>
<path d="M246.675 309.99L246.843 319.981" stroke="#A0A0A0" stroke-width="1.5"/>
<path d="M295.778 231.183L285.168 229.557" stroke="#A0A0A0" stroke-width="1.5"/>
<path d="M290.531 225.686L290.401 235.022" stroke="#A0A0A0" stroke-width="1.5"/>
<path d="M344.95 285.785L347.536 279.222" stroke="#A0A0A0" stroke-width="1.5"/>
<path d="M346.513 277.592L345.988 287.349" stroke="#A0A0A0" stroke-width="1.5"/>
<path d="M194.56 261.027L198.452 254.932" stroke="#A0A0A0" stroke-width="1.5"/>
<path d="M196.27 253.166L196.758 262.732" stroke="#A0A0A0" stroke-width="1.5"/>
<path d="M268.24 169.262L271.742 163.539" stroke="#A0A0A0" stroke-width="1.5"/>
<path d="M276.029 167.219L263.989 165.555" stroke="#A0A0A0" stroke-width="1.5"/>
<path d="M268.464 363.876L271.522 357.147" stroke="#A0A0A0" stroke-width="1.5"/>
<path d="M275.265 361.476L264.749 359.519" stroke="#A0A0A0" stroke-width="1.5"/>
<path d="M240.074 340.998L227.777 338.752" stroke="#A0A0A0" stroke-width="1.5"/>
<path d="M233.781 334.776L234.05 344.933" stroke="#A0A0A0" stroke-width="1.5"/>
<path d="M304.979 213.043L294.653 211.511" stroke="#A0A0A0" stroke-width="1.5"/>
<path d="M299.902 207.673L299.718 216.851" stroke="#A0A0A0" stroke-width="1.5"/>
<path d="M384.341 292.269L386.568 285.582" stroke="#A0A0A0" stroke-width="1.5"/>
<path d="M385.862 283.99L385.06 293.795" stroke="#A0A0A0" stroke-width="1.5"/>
<path d="M158.658 255.117L162.847 249.13" stroke="#A0A0A0" stroke-width="1.5"/>
<path d="M160.402 247.335L161.12 256.853" stroke="#A0A0A0" stroke-width="1.5"/>
<path d="M268.197 131.175L271.785 125.709" stroke="#A0A0A0" stroke-width="1.5"/>
<path d="M276.178 129.224L263.84 127.634" stroke="#A0A0A0" stroke-width="1.5"/>
<path d="M268.496 391.599L271.491 384.768" stroke="#A0A0A0" stroke-width="1.5"/>
<path d="M275.156 389.163L264.857 387.177" stroke="#A0A0A0" stroke-width="1.5"/>
<path d="M226.499 367.76L213.799 365.348" stroke="#A0A0A0" stroke-width="1.5"/>
<path d="M219.945 361.372L220.331 371.691" stroke="#A0A0A0" stroke-width="1.5"/>
<path d="M313.661 195.927L303.605 194.479" stroke="#A0A0A0" stroke-width="1.5"/>
<path d="M308.743 190.678L308.511 199.699" stroke="#A0A0A0" stroke-width="1.5"/>
<path d="M424.49 298.879L426.344 292.063" stroke="#A0A0A0" stroke-width="1.5"/>
<path d="M425.969 290.51L424.878 300.363" stroke="#A0A0A0" stroke-width="1.5"/>
<path d="M123.399 249.312L127.873 243.432" stroke="#A0A0A0" stroke-width="1.5"/>
<path d="M125.175 241.607L126.115 251.079" stroke="#A0A0A0" stroke-width="1.5"/>
<path opacity="0.4" d="M-76.5592 414.711L594.317 134.577" stroke="#F0F0F0" stroke-width="1.5"/>
<path opacity="0.4" d="M210.642 -282.071L712.883 1808.85" stroke="#F0F0F0" stroke-width="1.5"/>
<path d="M320.13 241.753L336.573 242.202L325.332 254.211L325.5 246.826L320.13 241.753Z" fill="#FFF888"/>
<path d="M270 270L332.882 243.744" stroke="#FFF888" stroke-width="1.5"/>
<path d="M381.554 400.568L378.494 416.73L368.427 403.721L375.691 405.062L381.554 400.568Z" fill="#D582FF"/>
<path d="M336.573 242.202L377.56 412.841" stroke="#D582FF" stroke-width="1.5"/>
<path opacity="0.3" d="M280.548 249.575L335.836 258.328" stroke="#FFF888" stroke-width="1.5"/>
<path opacity="0.3" d="M326.919 279.322L335.836 258.328" stroke="#FFF888" stroke-width="1.5"/>
<path opacity="0.3" d="M280.548 249.575L280.664 233.57" stroke="#FFF888" stroke-width="1.5"/>
<path opacity="0.3" d="M326.919 279.322L327.577 262.913" stroke="#FFF888" stroke-width="1.5"/>
<path opacity="0.3" d="M335.836 258.328L336.573 242.202" stroke="#FFF888" stroke-width="1.5"/>
<path opacity="0.3" d="M270 253.715L280.664 233.57" stroke="#FFF888" stroke-width="1.5"/>
<path opacity="0.3" d="M270 253.715L327.577 262.913" stroke="#FFF888" stroke-width="1.5"/>
<path opacity="0.3" d="M280.664 233.57L336.573 242.202" stroke="#FFF888" stroke-width="1.5"/>
<path opacity="0.3" d="M327.577 262.913L336.573 242.202" stroke="#FFF888" stroke-width="1.5"/>
<path opacity="0.3" d="M336.573 242.202L296.695 334.014" stroke="#D582FF" stroke-width="1.5"/>
<path opacity="0.3" d="M336.573 242.202L413.554 254.086" stroke="#D582FF" stroke-width="1.5"/>
<path opacity="0.3" d="M296.695 334.014L384.17 349.618" stroke="#D582FF" stroke-width="1.5"/>
<path opacity="0.3" d="M413.554 254.086L384.17 349.618" stroke="#D582FF" stroke-width="1.5"/>
<path opacity="0.3" d="M336.573 242.202L333.721 304.635" stroke="#D582FF" stroke-width="1.5"/>
<path opacity="0.3" d="M296.695 334.014L295.395 400.546" stroke="#D582FF" stroke-width="1.5"/>
<path opacity="0.3" d="M413.554 254.086L407.294 317.117" stroke="#D582FF" stroke-width="1.5"/>
<path opacity="0.3" d="M384.17 349.618L378.494 416.73" stroke="#D582FF" stroke-width="1.5"/>
<path opacity="0.3" d="M333.721 304.635L295.395 400.546" stroke="#D582FF" stroke-width="1.5"/>
<path opacity="0.3" d="M333.721 304.635L407.294 317.117" stroke="#D582FF" stroke-width="1.5"/>
<path opacity="0.3" d="M295.395 400.546L378.494 416.73" stroke="#D582FF" stroke-width="1.5"/>
<path opacity="0.3" d="M407.294 317.117L378.494 416.73" stroke="#D582FF" stroke-width="1.5"/>
<path d="M376.565 209.914H340.923V255.955H376.565V209.914Z" fill="black"/>
<g clip-path="url(#clip1_1584_3113)">
<path d="M351.076 215.646L350.82 215.745C350.637 215.81 350.374 215.876 350.033 215.941C349.692 216.007 349.312 216.053 348.892 216.079H348.518V215.174H348.892C349.508 215.148 350.079 215.049 350.604 214.879C351.129 214.708 351.496 214.55 351.706 214.406C351.916 214.262 352.1 214.117 352.257 213.973C352.284 213.934 352.362 213.914 352.493 213.914C352.612 213.914 352.723 213.953 352.828 214.032V219.917L352.848 225.822C352.94 225.914 353.018 225.973 353.084 225.999C353.15 226.025 353.307 226.051 353.556 226.078C353.806 226.104 354.212 226.117 354.777 226.117H355.288V227.022H355.072C354.796 226.983 353.753 226.963 351.942 226.963C350.158 226.963 349.128 226.983 348.852 227.022H348.616V226.117H349.128C349.416 226.117 349.666 226.117 349.876 226.117C350.086 226.117 350.25 226.111 350.368 226.097C350.486 226.084 350.591 226.065 350.683 226.038C350.775 226.012 350.827 225.999 350.84 225.999C350.853 225.999 350.893 225.966 350.958 225.901C351.024 225.835 351.063 225.809 351.076 225.822V215.646Z" fill="#F0F0F0"/>
<path d="M349.029 245.386C348.675 245.386 348.393 245.268 348.183 245.032C347.973 244.795 347.868 244.507 347.868 244.166C347.868 243.234 348.216 242.427 348.911 241.745C349.607 241.062 350.473 240.721 351.509 240.721C352.703 240.721 353.701 241.089 354.501 241.823C355.301 242.558 355.708 243.51 355.721 244.677C355.721 245.242 355.59 245.78 355.328 246.291C355.065 246.803 354.75 247.249 354.383 247.63C354.016 248.01 353.491 248.496 352.808 249.086C352.336 249.493 351.68 250.097 350.84 250.897L349.679 251.999L351.175 252.019C353.235 252.019 354.331 251.986 354.462 251.92C354.554 251.894 354.711 251.31 354.934 250.169V250.11H355.721V250.169C355.708 250.208 355.623 250.805 355.466 251.96C355.308 253.114 355.21 253.718 355.17 253.771V253.83H347.868V253.456V253.219C347.868 253.128 347.908 253.029 347.986 252.924C348.065 252.819 348.262 252.59 348.577 252.235C348.957 251.815 349.285 251.448 349.561 251.133C349.679 251.002 349.902 250.759 350.23 250.405C350.558 250.051 350.781 249.808 350.899 249.677C351.017 249.545 351.208 249.329 351.47 249.027C351.732 248.725 351.916 248.502 352.021 248.358C352.126 248.214 352.277 248.017 352.474 247.767C352.671 247.518 352.808 247.308 352.887 247.138C352.966 246.967 353.064 246.777 353.182 246.567C353.3 246.357 353.386 246.147 353.438 245.937C353.491 245.727 353.537 245.53 353.576 245.347C353.615 245.163 353.635 244.946 353.635 244.697C353.635 243.87 353.412 243.155 352.966 242.552C352.52 241.948 351.883 241.646 351.057 241.646C350.624 241.646 350.243 241.758 349.915 241.981C349.587 242.204 349.357 242.42 349.226 242.63C349.095 242.84 349.029 242.965 349.029 243.004C349.029 243.017 349.062 243.024 349.128 243.024C349.364 243.024 349.607 243.116 349.856 243.3C350.105 243.483 350.23 243.785 350.23 244.205C350.23 244.533 350.125 244.809 349.915 245.032C349.705 245.255 349.41 245.373 349.029 245.386Z" fill="#F0F0F0"/>
<path d="M358.693 235.998H344.916V234.817H358.693V235.998Z" fill="#F0F0F0"/>
<path d="M368.948 231.589C369.105 231.628 369.722 231.648 370.798 231.648C371.756 231.648 372.274 231.628 372.353 231.589H372.471V232.809H371.093L369.105 237.257C368.305 239.068 367.846 240.052 367.728 240.209C367.623 240.341 367.498 240.406 367.354 240.406C367.327 240.406 367.281 240.406 367.216 240.406C367.15 240.406 367.085 240.4 367.019 240.387H366.724C366.527 240.387 366.369 240.288 366.251 240.091C366.133 239.895 365.851 239.304 365.405 238.32C365.208 237.887 365.051 237.533 364.933 237.257L362.945 232.809H361.567V231.589H361.724C361.921 231.628 362.65 231.648 363.909 231.648C365.313 231.648 366.133 231.628 366.369 231.589H366.547V232.809H365.602L366.645 235.131C367.314 236.64 367.669 237.395 367.708 237.395C367.708 237.382 368.042 236.627 368.712 235.131C369.381 233.636 369.729 232.868 369.755 232.829C369.755 232.815 369.597 232.809 369.282 232.809H368.81V231.589H368.948Z" fill="#FFF888"/>
<path d="M369.528 226.019C369.528 225.914 369.561 225.822 369.627 225.743C369.693 225.664 369.791 225.625 369.922 225.625C370.014 225.625 370.093 225.658 370.158 225.723C370.224 225.776 370.29 225.9 370.355 226.097C370.486 226.583 370.755 226.957 371.162 227.219C371.306 227.311 371.379 227.429 371.379 227.573C371.379 227.692 371.359 227.77 371.32 227.81C371.28 227.849 371.188 227.908 371.044 227.987C370.48 228.275 369.988 228.689 369.568 229.227C369.542 229.253 369.509 229.292 369.469 229.345C369.43 229.397 369.397 229.437 369.371 229.463C369.345 229.489 369.312 229.502 369.273 229.502C369.233 229.502 369.187 229.509 369.135 229.522C369.043 229.522 368.958 229.489 368.879 229.424C368.8 229.358 368.754 229.26 368.741 229.128C368.741 228.879 369.05 228.492 369.666 227.967H366.301L362.935 227.947C362.764 227.829 362.679 227.705 362.679 227.573C362.679 227.482 362.764 227.35 362.935 227.18H370.001C369.686 226.681 369.528 226.294 369.528 226.019Z" fill="#FFF888"/>
</g>
<path d="M399.629 422.928H366.853V443.774H399.629V422.928Z" fill="black"/>
<g clip-path="url(#clip2_1584_3113)">
<path d="M372.011 433.18C371.656 433.18 371.374 433.062 371.164 432.826C370.955 432.59 370.85 432.301 370.85 431.96C370.85 431.028 371.197 430.222 371.893 429.539C372.588 428.857 373.454 428.516 374.49 428.516C375.684 428.516 376.681 428.883 377.482 429.618C378.282 430.353 378.689 431.304 378.702 432.472C378.702 433.036 378.571 433.574 378.308 434.085C378.046 434.597 377.731 435.043 377.364 435.424C376.996 435.804 376.472 436.29 375.789 436.88C375.317 437.287 374.661 437.89 373.821 438.691L372.66 439.793L374.156 439.812C376.216 439.812 377.311 439.78 377.442 439.714C377.534 439.688 377.692 439.104 377.915 437.963V437.903H378.702V437.963C378.689 438.002 378.604 438.599 378.446 439.753C378.289 440.908 378.19 441.512 378.151 441.564V441.623H370.85V441.249V441.013C370.85 440.921 370.889 440.823 370.968 440.718C371.046 440.613 371.243 440.383 371.558 440.029C371.939 439.609 372.267 439.242 372.542 438.927C372.66 438.796 372.883 438.553 373.211 438.199C373.539 437.844 373.762 437.602 373.88 437.471C373.998 437.339 374.189 437.123 374.451 436.821C374.713 436.519 374.897 436.296 375.002 436.152C375.107 436.008 375.258 435.811 375.455 435.562C375.652 435.312 375.789 435.102 375.868 434.932C375.947 434.761 376.045 434.571 376.163 434.361C376.281 434.151 376.367 433.941 376.419 433.731C376.472 433.521 376.517 433.325 376.557 433.141C376.596 432.957 376.616 432.741 376.616 432.491C376.616 431.665 376.393 430.95 375.947 430.346C375.501 429.743 374.864 429.441 374.038 429.441C373.605 429.441 373.224 429.552 372.896 429.776C372.568 429.999 372.339 430.215 372.207 430.425C372.076 430.635 372.011 430.76 372.011 430.799C372.011 430.812 372.043 430.819 372.109 430.819C372.345 430.819 372.588 430.91 372.837 431.094C373.087 431.278 373.211 431.58 373.211 431.999C373.211 432.327 373.106 432.603 372.896 432.826C372.686 433.049 372.391 433.167 372.011 433.18Z" fill="#F0F0F0"/>
<path d="M391.986 432.885C392.144 432.925 392.787 432.944 393.915 432.944C394.899 432.944 395.411 432.925 395.45 432.885H395.548V434.105H394.289L391.376 441.407C391.363 441.42 391.343 441.44 391.317 441.466C391.291 441.492 391.265 441.518 391.238 441.545C391.212 441.571 391.199 441.584 391.199 441.584C391.199 441.584 391.179 441.597 391.14 441.623C391.101 441.65 391.087 441.663 391.101 441.663C391.114 441.663 391.087 441.669 391.022 441.682C390.956 441.695 390.93 441.695 390.943 441.682C390.956 441.669 390.93 441.676 390.864 441.702C390.799 441.728 390.759 441.728 390.746 441.702C390.733 441.676 390.681 441.676 390.589 441.702H390.372C390.149 441.702 389.992 441.636 389.9 441.505C389.808 441.374 389.625 440.954 389.349 440.246C389.139 439.721 388.962 439.281 388.818 438.927L387.873 436.565L386.928 438.927C386.797 439.268 386.627 439.695 386.417 440.206C386.141 440.928 385.957 441.354 385.866 441.486C385.774 441.617 385.616 441.689 385.393 441.702H385.157C384.921 441.702 384.764 441.689 384.685 441.663C384.606 441.636 384.508 441.551 384.39 441.407L381.477 434.105H380.198V432.885H380.335C380.532 432.925 381.241 432.944 382.461 432.944C383.812 432.944 384.606 432.925 384.842 432.885H385.019V434.105H384.075L385.807 438.396L387.224 434.893L386.909 434.105H385.669V432.885H385.807C385.964 432.925 386.6 432.944 387.716 432.944C389.041 432.944 389.802 432.925 389.998 432.885H390.156V434.105H389.664C389.336 434.105 389.172 434.119 389.172 434.145C389.185 434.197 389.5 434.991 390.117 436.526C390.733 438.061 391.048 438.829 391.061 438.829L392.97 434.105H391.848V432.885H391.986Z" fill="#D582FF"/>
<path d="M390.382 427.316C390.382 427.211 390.415 427.119 390.481 427.04C390.546 426.962 390.645 426.922 390.776 426.922C390.868 426.922 390.946 426.955 391.012 427.021C391.078 427.073 391.143 427.198 391.209 427.394C391.34 427.88 391.609 428.254 392.016 428.516C392.16 428.608 392.232 428.726 392.232 428.87C392.232 428.989 392.213 429.067 392.173 429.107C392.134 429.146 392.042 429.205 391.898 429.284C391.333 429.572 390.841 429.986 390.422 430.524C390.395 430.55 390.363 430.589 390.323 430.642C390.284 430.694 390.251 430.734 390.225 430.76C390.199 430.786 390.166 430.799 390.126 430.799C390.087 430.799 390.041 430.806 389.989 430.819C389.897 430.819 389.812 430.786 389.733 430.72C389.654 430.655 389.608 430.556 389.595 430.425C389.595 430.176 389.903 429.789 390.52 429.264H387.155L383.789 429.244C383.619 429.126 383.534 429.002 383.534 428.87C383.534 428.779 383.619 428.647 383.789 428.477H390.855C390.54 427.978 390.382 427.591 390.382 427.316Z" fill="#D582FF"/>
</g>
<path d="M206.985 401.945H189.371V416.889H206.985V401.945Z" fill="black"/>
<g clip-path="url(#clip3_1584_3113)">
<path d="M193.703 408.956C193.795 408.405 194.149 407.769 194.766 407.047C195.382 406.326 196.144 405.958 197.049 405.945C197.508 405.945 197.928 406.063 198.308 406.299C198.689 406.536 198.971 406.831 199.155 407.185C199.706 406.358 200.368 405.945 201.143 405.945C201.628 405.945 202.048 406.089 202.402 406.378C202.756 406.667 202.94 407.054 202.953 407.539C202.953 407.92 202.861 408.228 202.678 408.464C202.494 408.701 202.317 408.845 202.146 408.897C201.976 408.95 201.825 408.976 201.694 408.976C201.444 408.976 201.241 408.904 201.084 408.76C200.926 408.615 200.847 408.425 200.847 408.189C200.847 407.585 201.175 407.172 201.831 406.949C201.687 406.778 201.425 406.693 201.044 406.693C200.874 406.693 200.749 406.706 200.67 406.732C200.172 406.942 199.804 407.375 199.568 408.031C198.781 410.931 198.387 412.624 198.387 413.109C198.387 413.477 198.492 413.739 198.702 413.896C198.912 414.054 199.142 414.133 199.391 414.133C199.876 414.133 200.355 413.916 200.828 413.483C201.3 413.05 201.622 412.519 201.792 411.889C201.831 411.758 201.871 411.686 201.91 411.672C201.95 411.659 202.055 411.646 202.225 411.633H202.304C202.501 411.633 202.599 411.686 202.599 411.791C202.599 411.804 202.586 411.876 202.56 412.007C202.35 412.755 201.943 413.418 201.339 413.995C200.736 414.572 200.034 414.861 199.234 414.861C198.315 414.861 197.62 414.448 197.147 413.621C196.609 414.434 195.993 414.841 195.297 414.841H195.179C194.536 414.841 194.077 414.671 193.801 414.329C193.526 413.988 193.382 413.627 193.368 413.247C193.368 412.827 193.493 412.486 193.742 412.224C193.992 411.961 194.287 411.83 194.628 411.83C195.192 411.83 195.474 412.105 195.474 412.657C195.474 412.919 195.396 413.149 195.238 413.345C195.081 413.542 194.93 413.673 194.785 413.739C194.641 413.805 194.556 413.837 194.53 413.837L194.471 413.857C194.471 413.87 194.51 413.896 194.589 413.936C194.667 413.975 194.772 414.021 194.904 414.074C195.035 414.126 195.159 414.146 195.278 414.133C195.75 414.133 196.157 413.837 196.498 413.247C196.616 413.037 196.767 412.591 196.95 411.909C197.134 411.226 197.318 410.518 197.502 409.783C197.685 409.048 197.79 408.615 197.816 408.484C197.882 408.13 197.915 407.874 197.915 407.716C197.915 407.349 197.816 407.087 197.62 406.929C197.423 406.772 197.2 406.693 196.95 406.693C196.426 406.693 195.934 406.903 195.474 407.323C195.015 407.743 194.694 408.281 194.51 408.937C194.484 409.055 194.451 409.12 194.412 409.134C194.372 409.147 194.267 409.16 194.097 409.173H193.821C193.742 409.094 193.703 409.022 193.703 408.956Z" fill="#F0F0F0"/>
</g>
<path d="M495.93 295.121H478.545V313.898H495.93V295.121Z" fill="black"/>
<g clip-path="url(#clip4_1584_3113)">
<path d="M482.544 302.173C482.544 301.989 482.642 301.674 482.839 301.228C483.036 300.782 483.351 300.316 483.784 299.83C484.217 299.345 484.703 299.108 485.241 299.122C485.779 299.122 486.212 299.273 486.54 299.574C486.868 299.876 487.039 300.296 487.052 300.834C487.026 301.084 487.006 301.221 486.993 301.248C486.993 301.287 486.888 301.589 486.678 302.153C486.468 302.718 486.251 303.354 486.028 304.063C485.805 304.771 485.7 305.336 485.713 305.756C485.713 306.32 485.805 306.714 485.989 306.937C486.173 307.16 486.448 307.278 486.816 307.291C487.118 307.291 487.4 307.219 487.662 307.075C487.925 306.93 488.128 306.779 488.273 306.622C488.417 306.464 488.594 306.248 488.804 305.972C488.804 305.959 488.837 305.828 488.903 305.579C488.968 305.329 489.06 304.942 489.178 304.417C489.296 303.892 489.421 303.407 489.552 302.96C490.051 300.992 490.326 299.962 490.379 299.87C490.55 299.515 490.832 299.338 491.225 299.338C491.396 299.338 491.534 299.384 491.639 299.476C491.744 299.568 491.816 299.647 491.855 299.712C491.895 299.778 491.908 299.837 491.895 299.889C491.895 300.06 491.573 301.438 490.93 304.023C490.287 306.609 489.92 308.026 489.828 308.276C489.46 309.365 488.824 310.231 487.918 310.874C487.013 311.517 486.107 311.845 485.202 311.858C484.611 311.858 484.093 311.714 483.646 311.425C483.2 311.137 482.977 310.703 482.977 310.126C482.977 309.837 483.023 309.595 483.115 309.398C483.207 309.201 483.331 309.056 483.489 308.965C483.646 308.873 483.778 308.807 483.883 308.768C483.988 308.728 484.099 308.709 484.217 308.709C484.795 308.709 485.083 308.984 485.083 309.535C485.083 309.798 485.005 310.028 484.847 310.224C484.69 310.421 484.539 310.553 484.394 310.618C484.25 310.684 484.165 310.717 484.139 310.717L484.079 310.736C484.106 310.802 484.23 310.881 484.453 310.973C484.677 311.064 484.9 311.11 485.123 311.11H485.28C485.503 311.11 485.674 311.097 485.792 311.071C486.225 310.953 486.625 310.703 486.993 310.323C487.36 309.942 487.643 309.535 487.839 309.102C488.036 308.669 488.187 308.302 488.292 308C488.397 307.698 488.45 307.501 488.45 307.409L488.332 307.488C488.253 307.541 488.128 307.613 487.958 307.705C487.787 307.797 487.616 307.875 487.446 307.941C487.183 308.007 486.927 308.039 486.678 308.039C486.074 308.039 485.543 307.895 485.083 307.606C484.624 307.318 484.322 306.852 484.178 306.209C484.165 306.117 484.158 305.913 484.158 305.598C484.158 304.85 484.388 303.872 484.847 302.665C485.307 301.458 485.536 300.69 485.536 300.362C485.536 300.349 485.536 300.336 485.536 300.322C485.536 300.204 485.536 300.126 485.536 300.086C485.536 300.047 485.51 300.001 485.457 299.948C485.405 299.896 485.333 299.87 485.241 299.87H485.162C484.86 299.87 484.585 299.994 484.335 300.244C484.086 300.493 483.889 300.762 483.745 301.051C483.6 301.34 483.489 301.615 483.41 301.878C483.331 302.14 483.279 302.284 483.253 302.311C483.226 302.337 483.121 302.35 482.938 302.35H482.662C482.583 302.271 482.544 302.212 482.544 302.173Z" fill="#F0F0F0"/>
</g>
<path d="M278.966 59.3594H262.416V74.3035H278.966V59.3594Z" fill="black"/>
<g clip-path="url(#clip5_1584_3113)">
<path d="M272.555 65.4067C272.424 65.4067 272.076 65.3345 271.512 65.1902C270.948 65.0458 270.534 64.9736 270.272 64.9736C270.01 64.9736 269.787 64.9999 269.603 65.0524C269.419 65.1049 269.268 65.1705 269.15 65.2492C269.032 65.3279 268.953 65.4001 268.914 65.4657C268.875 65.5313 268.829 65.6035 268.776 65.6822L268.737 65.7609C268.697 65.8003 268.599 65.82 268.442 65.82C268.166 65.82 268.028 65.7675 268.028 65.6625C268.028 65.5969 268.048 65.5051 268.087 65.387C268.258 64.8752 268.54 64.4357 268.934 64.0682C269.327 63.7008 269.76 63.4778 270.233 63.399C270.39 63.3728 270.502 63.3597 270.567 63.3597C270.895 63.3597 271.191 63.4712 271.453 63.6943C271.715 63.9173 271.965 64.1339 272.201 64.3438C272.437 64.5537 272.686 64.6653 272.949 64.6784C273.238 64.6784 273.526 64.4619 273.815 64.0289C274.104 63.5959 274.255 63.3794 274.268 63.3794C274.281 63.3662 274.379 63.3597 274.563 63.3597H274.819C274.897 63.4384 274.937 63.4909 274.937 63.5171C274.937 63.5696 274.904 63.6615 274.838 63.7927C274.773 63.9239 274.681 64.0617 274.563 64.206C274.445 64.3504 274.333 64.4947 274.228 64.639C274.123 64.7834 274.031 64.908 273.953 65.013L273.815 65.1902C273.251 65.8594 272.358 66.7451 271.138 67.8473C269.918 68.9495 269.163 69.6581 268.875 69.973L268.638 70.2092L268.934 70.2289C269.222 70.2289 269.642 70.3011 270.193 70.4454C270.744 70.5897 271.158 70.6619 271.433 70.6619C271.932 70.6619 272.391 70.5373 272.811 70.2879C273.231 70.0386 273.507 69.7106 273.638 69.3038C273.69 69.1857 273.736 69.1135 273.776 69.0873C273.815 69.0611 273.913 69.0479 274.071 69.0479C274.32 69.0479 274.445 69.1135 274.445 69.2448C274.445 69.3104 274.438 69.3694 274.425 69.4219C274.202 70.2355 273.769 70.9112 273.126 71.4492C272.483 71.9872 271.84 72.2628 271.197 72.2759C270.856 72.2759 270.554 72.1643 270.292 71.9413C270.029 71.7182 269.773 71.4951 269.524 71.2721C269.275 71.049 269.025 70.9375 268.776 70.9375C268.199 70.9375 267.681 71.3311 267.221 72.1184C267.143 72.2234 267.031 72.2759 266.887 72.2759H266.788H266.532C266.454 72.1971 266.414 72.1381 266.414 72.0987C266.414 71.9019 266.795 71.3377 267.556 70.406C268.068 69.8156 268.934 68.9626 270.154 67.8473C271.374 66.732 272.129 66.0234 272.417 65.7216C272.575 65.5116 272.621 65.4067 272.555 65.4067Z" fill="#F0F0F0"/>
</g>
</g>
<defs>
<clipPath id="clip0_1584_3113">
<rect width="540" height="540" fill="white"/>
</clipPath>
<clipPath id="clip1_1584_3113">
<rect width="30.45" height="39.9156" fill="white" transform="translate(342.553 213.914)"/>
</clipPath>
<clipPath id="clip2_1584_3113">
<rect width="26.1957" height="16.6692" fill="white" transform="translate(369.865 424.954)"/>
</clipPath>
<clipPath id="clip3_1584_3113">
<rect width="11.2578" height="8.9175" fill="white" transform="translate(192.68 405.944)"/>
</clipPath>
<clipPath id="clip4_1584_3113">
<rect width="9.6483" height="12.7368" fill="white" transform="translate(482.129 299.122)"/>
</clipPath>
<clipPath id="clip5_1584_3113">
<rect width="9.1524" height="8.9175" fill="white" transform="translate(265.725 63.3589)"/>
</clipPath>
</defs>
</svg>
