<svg width="720" height="405" viewBox="0 0 720 405" fill="none" xmlns="http://www.w3.org/2000/svg">
<g clip-path="url(#clip0_471_20532)">
<path d="M720 0H0V405H720V0Z" fill="black"/>
<g clip-path="url(#clip1_471_20532)">
<path d="M0 22.5H720" stroke="#404040" stroke-width="1.5"/>
<path d="M0 67.5H720" stroke="#404040" stroke-width="1.5"/>
<path d="M0 112.5H720" stroke="#404040" stroke-width="1.5"/>
<path d="M0 157.5H720" stroke="#404040" stroke-width="1.5"/>
<path d="M0 202.5H720" stroke="#404040" stroke-width="1.5"/>
<path d="M0 247.5H720" stroke="#404040" stroke-width="1.5"/>
<path d="M0 292.5H720" stroke="#404040" stroke-width="1.5"/>
<path d="M0 337.5H720" stroke="#404040" stroke-width="1.5"/>
<path d="M0 382.5H720" stroke="#404040" stroke-width="1.5"/>
<path d="M0 0V405" stroke="#404040" stroke-width="1.5"/>
<path d="M45 0V405" stroke="#404040" stroke-width="1.5"/>
<path d="M90 0V405" stroke="#404040" stroke-width="1.5"/>
<path d="M135 0V405" stroke="#404040" stroke-width="1.5"/>
<path d="M180 0V405" stroke="#404040" stroke-width="1.5"/>
<path d="M225 0V405" stroke="#404040" stroke-width="1.5"/>
<path d="M270 0V405" stroke="#404040" stroke-width="1.5"/>
<path d="M315 0V405" stroke="#404040" stroke-width="1.5"/>
<path d="M360 0V405" stroke="#404040" stroke-width="1.5"/>
<path d="M405 0V405" stroke="#404040" stroke-width="1.5"/>
<path d="M450 0V405" stroke="#404040" stroke-width="1.5"/>
<path d="M495 0V405" stroke="#404040" stroke-width="1.5"/>
<path d="M540 0V405" stroke="#404040" stroke-width="1.5"/>
<path d="M585 0V405" stroke="#404040" stroke-width="1.5"/>
<path d="M630 0V405" stroke="#404040" stroke-width="1.5"/>
<path d="M675 0V405" stroke="#404040" stroke-width="1.5"/>
<path d="M720 0V405" stroke="#404040" stroke-width="1.5"/>
</g>
<path d="M0 202.5H720" stroke="#808080" stroke-width="1.5"/>
<path d="M360 0V405" stroke="#808080" stroke-width="1.5"/>
<g clip-path="url(#clip2_471_20532)">
<g opacity="0.8">
<path d="M3420 832.5L540 -2047.5" stroke="#6AB0F3" stroke-width="1.1929"/>
<path d="M3330 877.5L450 -2002.5" stroke="#6AB0F3" stroke-width="1.1929"/>
<path d="M3240 922.5L360 -1957.5" stroke="#6AB0F3" stroke-width="1.1929"/>
<path d="M3150 967.5L270 -1912.5" stroke="#6AB0F3" stroke-width="1.1929"/>
<path d="M3060 1012.5L180 -1867.5" stroke="#6AB0F3" stroke-width="1.1929"/>
<path d="M2970 1057.5L90.0001 -1822.5" stroke="#6AB0F3" stroke-width="1.1929"/>
<path d="M2880 1102.5L5.0025e-05 -1777.5" stroke="#6AB0F3" stroke-width="1.1929"/>
<path d="M2790 1147.5L-89.9998 -1732.5" stroke="#6AB0F3" stroke-width="1.1929"/>
<path d="M2700 1192.5L-180 -1687.5" stroke="#6AB0F3" stroke-width="1.1929"/>
<path d="M2610 1237.5L-270 -1642.5" stroke="#6AB0F3" stroke-width="1.1929"/>
<path d="M2520 1282.5L-360 -1597.5" stroke="#6AB0F3" stroke-width="1.1929"/>
<path d="M2430 1327.5L-450 -1552.5" stroke="#6AB0F3" stroke-width="1.1929"/>
<path d="M2340 1372.5L-540 -1507.5" stroke="#6AB0F3" stroke-width="1.1929"/>
<path d="M2250 1417.5L-630 -1462.5" stroke="#6AB0F3" stroke-width="1.1929"/>
<path d="M2160 1462.5L-720 -1417.5" stroke="#6AB0F3" stroke-width="1.1929"/>
<path d="M2070 1507.5L-810 -1372.5" stroke="#6AB0F3" stroke-width="1.1929"/>
<path d="M1980 1552.5L-900 -1327.5" stroke="#6AB0F3" stroke-width="1.1929"/>
<path d="M1890 1597.5L-990 -1282.5" stroke="#6AB0F3" stroke-width="1.1929"/>
<path d="M1800 1642.5L-1080 -1237.5" stroke="#6AB0F3" stroke-width="1.1929"/>
<path d="M1710 1687.5L-1170 -1192.5" stroke="#6AB0F3" stroke-width="1.1929"/>
<path d="M1620 1732.5L-1260 -1147.5" stroke="#6AB0F3" stroke-width="1.1929"/>
<path d="M1530 1777.5L-1350 -1102.5" stroke="#6AB0F3" stroke-width="1.1929"/>
<path d="M1440 1822.5L-1440 -1057.5" stroke="#6AB0F3" stroke-width="1.1929"/>
<path d="M1350 1867.5L-1530 -1012.5" stroke="#6AB0F3" stroke-width="1.1929"/>
<path d="M1260 1912.5L-1620 -967.5" stroke="#6AB0F3" stroke-width="1.1929"/>
<path d="M1170 1957.5L-1710 -922.5" stroke="#6AB0F3" stroke-width="1.1929"/>
<path d="M1080 2002.5L-1800 -877.5" stroke="#6AB0F3" stroke-width="1.1929"/>
<path d="M990 2047.5L-1890 -832.5" stroke="#6AB0F3" stroke-width="1.1929"/>
<path d="M900 2092.5L-1980 -787.5" stroke="#6AB0F3" stroke-width="1.1929"/>
<path d="M810 2137.5L-2070 -742.5" stroke="#6AB0F3" stroke-width="1.1929"/>
<path d="M720 2182.5L-2160 -697.5" stroke="#6AB0F3" stroke-width="1.1929"/>
<path d="M630 2227.5L-2250 -652.5" stroke="#6AB0F3" stroke-width="1.1929"/>
<path d="M540 2272.5L-2340 -607.5" stroke="#6AB0F3" stroke-width="1.1929"/>
<path d="M450 2317.5L-2430 -562.5" stroke="#6AB0F3" stroke-width="1.1929"/>
<path d="M360 2362.5L-2520 -517.5" stroke="#6AB0F3" stroke-width="1.1929"/>
<path d="M270 2407.5L-2610 -472.5" stroke="#6AB0F3" stroke-width="1.1929"/>
<path d="M180 2452.5L-2700 -427.5" stroke="#6AB0F3" stroke-width="1.1929"/>
</g>
<g opacity="0.8">
<path d="M2970 382.5L-270 2002.5" stroke="#6AB0F3" stroke-width="1.1929"/>
<path d="M2925 337.5L-315.001 1957.5" stroke="#6AB0F3" stroke-width="1.1929"/>
<path d="M2880 292.5L-360 1912.5" stroke="#6AB0F3" stroke-width="1.1929"/>
<path d="M2835 247.5L-405 1867.5" stroke="#6AB0F3" stroke-width="1.1929"/>
<path d="M2790 202.5L-450 1822.5" stroke="#6AB0F3" stroke-width="1.1929"/>
<path d="M2745 157.5L-495 1777.5" stroke="#6AB0F3" stroke-width="1.1929"/>
<path d="M2700 112.5L-540 1732.5" stroke="#6AB0F3" stroke-width="1.1929"/>
<path d="M2655 67.5L-585 1687.5" stroke="#6AB0F3" stroke-width="1.1929"/>
<path d="M2610 22.5L-630 1642.5" stroke="#6AB0F3" stroke-width="1.1929"/>
<path d="M2565 -22.5L-675 1597.5" stroke="#6AB0F3" stroke-width="1.1929"/>
<path d="M2520 -67.5L-720 1552.5" stroke="#6AB0F3" stroke-width="1.1929"/>
<path d="M2475 -112.5L-765 1507.5" stroke="#6AB0F3" stroke-width="1.1929"/>
<path d="M2430 -157.5L-810 1462.5" stroke="#6AB0F3" stroke-width="1.1929"/>
<path d="M2385 -202.5L-855 1417.5" stroke="#6AB0F3" stroke-width="1.1929"/>
<path d="M2340 -247.5L-900 1372.5" stroke="#6AB0F3" stroke-width="1.1929"/>
<path d="M2295 -292.5L-945 1327.5" stroke="#6AB0F3" stroke-width="1.1929"/>
<path d="M2250 -337.5L-990 1282.5" stroke="#6AB0F3" stroke-width="1.1929"/>
<path d="M2205 -382.5L-1035 1237.5" stroke="#6AB0F3" stroke-width="1.1929"/>
<path d="M2160 -427.5L-1080 1192.5" stroke="#6AB0F3" stroke-width="1.1929"/>
<path d="M2115 -472.5L-1125 1147.5" stroke="#6AB0F3" stroke-width="1.1929"/>
<path d="M2070 -517.5L-1170 1102.5" stroke="#6AB0F3" stroke-width="1.1929"/>
<path d="M2025 -562.5L-1215 1057.5" stroke="#6AB0F3" stroke-width="1.1929"/>
<path d="M1980 -607.5L-1260 1012.5" stroke="#6AB0F3" stroke-width="1.1929"/>
<path d="M1935 -652.5L-1305 967.5" stroke="#6AB0F3" stroke-width="1.1929"/>
<path d="M1890 -697.5L-1350 922.5" stroke="#6AB0F3" stroke-width="1.1929"/>
<path d="M1845 -742.5L-1395 877.5" stroke="#6AB0F3" stroke-width="1.1929"/>
<path d="M1800 -787.5L-1440 832.5" stroke="#6AB0F3" stroke-width="1.1929"/>
<path d="M1755 -832.5L-1485 787.5" stroke="#6AB0F3" stroke-width="1.1929"/>
<path d="M1710 -877.5L-1530 742.5" stroke="#6AB0F3" stroke-width="1.1929"/>
<path d="M1665 -922.5L-1575 697.5" stroke="#6AB0F3" stroke-width="1.1929"/>
<path d="M1620 -967.5L-1620 652.5" stroke="#6AB0F3" stroke-width="1.1929"/>
<path d="M1575 -1012.5L-1665 607.5" stroke="#6AB0F3" stroke-width="1.1929"/>
<path d="M1530 -1057.5L-1710 562.5" stroke="#6AB0F3" stroke-width="1.1929"/>
<path d="M1485 -1102.5L-1755 517.5" stroke="#6AB0F3" stroke-width="1.1929"/>
<path d="M1440 -1147.5L-1800 472.5" stroke="#6AB0F3" stroke-width="1.1929"/>
<path d="M1395 -1192.5L-1845 427.5" stroke="#6AB0F3" stroke-width="1.1929"/>
<path d="M1350 -1237.5L-1890 382.5" stroke="#6AB0F3" stroke-width="1.1929"/>
<path d="M1305 -1282.5L-1935 337.5" stroke="#6AB0F3" stroke-width="1.1929"/>
<path d="M1260 -1327.5L-1980 292.5" stroke="#6AB0F3" stroke-width="1.1929"/>
<path d="M1215 -1372.5L-2025 247.5" stroke="#6AB0F3" stroke-width="1.1929"/>
<path d="M1170 -1417.5L-2070 202.5" stroke="#6AB0F3" stroke-width="1.1929"/>
<path d="M1125 -1462.5L-2115 157.5" stroke="#6AB0F3" stroke-width="1.1929"/>
<path d="M1080 -1507.5L-2160 112.5" stroke="#6AB0F3" stroke-width="1.1929"/>
<path d="M1035 -1552.5L-2205 67.5002" stroke="#6AB0F3" stroke-width="1.1929"/>
<path d="M990 -1597.5L-2250 22.5002" stroke="#6AB0F3" stroke-width="1.1929"/>
</g>
<path d="M-1080 -1237.5L1800 1642.5" stroke="#BEDFFF" stroke-width="1.1929"/>
<path d="M1980 -607.5L-1260 1012.5" stroke="#BEDFFF" stroke-width="1.1929"/>
</g>
<path d="M489.166 322.121L495 337.5L479.62 331.667L486.515 329.015L489.166 322.121Z" fill="#92D192"/>
<path d="M360 202.5L492.172 334.672" stroke="#92D192" stroke-width="1.5"/>
<path d="M568.565 293.171L585 292.5L574.602 305.246L574.267 297.867L568.565 293.171Z" fill="#F2777A"/>
<path d="M495 337.5L581.422 294.289" stroke="#F2777A" stroke-width="1.5"/>
<path d="M357.32 205.476C357.513 205.669 357.561 205.868 357.464 206.075C357.369 206.28 357.165 206.601 356.857 207.038C356.548 207.475 356.318 207.895 356.165 208.302C355.047 211.234 355.832 214.045 358.52 216.733L412.845 271.057C416.265 274.477 417.053 278.077 415.213 281.859C418.994 280.018 422.484 280.696 425.681 283.894L480.261 338.474C481.039 339.252 481.652 339.818 482.096 340.168C483.373 341.119 484.786 341.631 486.336 341.702C487.886 341.774 489.288 341.343 490.542 340.408C490.565 340.384 490.64 340.325 490.766 340.231C490.892 340.137 490.987 340.073 491.048 340.043C491.112 340.012 491.2 339.973 491.314 339.924C491.429 339.875 491.545 339.875 491.663 339.924C491.781 339.971 491.889 340.045 491.989 340.145C492.403 340.559 489.517 342.859 487.157 343.219C484.798 343.577 482.579 342.892 480.502 341.16C480.159 340.863 479.676 340.403 479.052 339.779L424.663 285.39C423.581 284.309 422.481 283.516 421.361 283.013C420.24 282.51 419.242 282.308 418.363 282.408C417.485 282.507 416.792 282.636 416.285 282.792C415.778 282.948 415.324 283.164 414.923 283.439C414.853 283.509 414.743 283.601 414.593 283.719C414.444 283.837 414.308 283.917 414.187 283.959C414.066 284.001 413.948 284.047 413.836 284.096C413.722 284.146 413.603 284.154 413.476 284.121C413.35 284.087 413.239 284.024 413.143 283.928C413.017 283.802 412.929 283.68 412.886 283.566C412.843 283.452 412.846 283.328 412.899 283.195C412.952 283.062 413.02 282.938 413.104 282.824C413.186 282.71 413.294 282.554 413.426 282.359C413.557 282.164 413.676 281.982 413.784 281.809C414.422 280.725 414.699 279.448 414.613 277.976C414.525 276.504 413.946 275.093 412.878 273.745C412.607 273.38 412.153 272.88 411.517 272.244L357.55 218.277C356.912 217.639 356.422 217.108 356.081 216.686C355.739 216.264 355.362 215.575 354.947 214.619C354.532 213.663 354.311 212.652 354.284 211.589C353.905 208.345 357.007 205.163 357.322 205.479L357.32 205.476Z" fill="#F0F0F0"/>
<path d="M416.266 291.015H333.443V344.384H416.266V291.015Z" fill="black"/>
<g clip-path="url(#clip3_471_20532)">
<path d="M336.305 315.96C336.305 315.96 336.305 315.882 336.305 315.725C336.305 315.568 336.389 315.447 336.558 315.363H347.074C347.255 315.459 347.346 315.58 347.346 315.725C347.346 315.87 347.255 315.99 347.074 316.087H336.558C336.389 316.002 336.305 315.882 336.305 315.725V315.96Z" fill="#F0F0F0"/>
<path d="M351.165 311.87C350.839 311.87 350.586 311.767 350.405 311.562C350.224 311.357 350.127 311.092 350.115 310.766C350.115 310.102 350.405 309.511 350.984 308.992C351.563 308.473 352.263 308.214 353.083 308.214C353.506 308.214 353.771 308.22 353.88 308.232C354.773 308.377 355.454 308.696 355.925 309.191C356.396 309.686 356.637 310.223 356.649 310.802C356.649 311.43 356.444 312.039 356.034 312.63C355.623 313.221 355.056 313.65 354.332 313.915L354.278 313.951C354.278 313.964 354.332 313.982 354.441 314.006C354.549 314.03 354.724 314.084 354.966 314.169C355.207 314.253 355.436 314.38 355.654 314.549C356.643 315.188 357.138 316.033 357.138 317.083C357.138 318.036 356.764 318.869 356.016 319.581C355.267 320.292 354.32 320.648 353.174 320.648C352.208 320.648 351.376 320.389 350.676 319.87C349.976 319.351 349.626 318.694 349.626 317.897C349.626 317.559 349.735 317.288 349.952 317.083C350.169 316.878 350.441 316.769 350.767 316.757C351.104 316.757 351.382 316.866 351.599 317.083C351.816 317.3 351.925 317.571 351.925 317.897C351.925 318.03 351.907 318.151 351.871 318.259C351.834 318.368 351.792 318.464 351.744 318.549C351.696 318.633 351.629 318.706 351.545 318.766C351.46 318.826 351.388 318.875 351.328 318.911C351.267 318.947 351.207 318.971 351.147 318.983C351.086 318.995 351.038 319.013 351.002 319.038L350.929 319.056C351.545 319.599 352.293 319.87 353.174 319.87C353.837 319.87 354.338 319.55 354.676 318.911C354.881 318.513 354.984 317.903 354.984 317.083V316.721C354.984 315.574 354.598 314.808 353.825 314.422C353.644 314.35 353.276 314.307 352.721 314.295L351.961 314.277L351.907 314.241C351.883 314.205 351.871 314.108 351.871 313.951C351.871 313.734 351.919 313.626 352.015 313.626C352.353 313.626 352.703 313.595 353.065 313.535C353.475 313.475 353.85 313.221 354.187 312.775C354.525 312.328 354.694 311.653 354.694 310.748V310.603C354.694 309.915 354.483 309.439 354.061 309.173C353.795 309.004 353.512 308.92 353.21 308.92C352.824 308.92 352.468 308.986 352.142 309.119C351.816 309.251 351.587 309.39 351.454 309.535C351.322 309.68 351.255 309.752 351.255 309.752H351.31C351.346 309.764 351.394 309.776 351.454 309.788C351.515 309.801 351.575 309.831 351.635 309.879C351.696 309.927 351.768 309.969 351.853 310.006C351.937 310.042 351.997 310.108 352.034 310.205C352.07 310.301 352.118 310.392 352.178 310.476C352.239 310.561 352.257 310.681 352.233 310.838C352.233 311.104 352.148 311.339 351.979 311.544C351.81 311.749 351.539 311.858 351.165 311.87Z" fill="#F0F0F0"/>
<path d="M365.404 337.436V294.014H370.273V295.136H366.526V336.314H370.273V337.436H365.404Z" fill="#92D192"/>
<path d="M376.029 303.29C376.029 303.29 376.029 303.212 376.029 303.055C376.029 302.898 376.113 302.777 376.282 302.693H386.798C386.979 302.79 387.07 302.91 387.07 303.055C387.07 303.2 386.979 303.32 386.798 303.417H376.282C376.113 303.333 376.029 303.212 376.029 303.055V303.29Z" fill="#92D192"/>
<path d="M392.445 297.118L392.21 297.209C392.041 297.269 391.8 297.329 391.486 297.39C391.172 297.45 390.822 297.492 390.436 297.516H390.092V296.684H390.436C391.003 296.66 391.528 296.569 392.011 296.412C392.494 296.256 392.832 296.111 393.025 295.978C393.218 295.845 393.387 295.713 393.531 295.58C393.556 295.544 393.628 295.525 393.749 295.525C393.857 295.525 393.96 295.562 394.056 295.634V301.046L394.074 306.476C394.159 306.56 394.231 306.615 394.292 306.639C394.352 306.663 394.497 306.687 394.726 306.711C394.955 306.735 395.329 306.747 395.848 306.747H396.319V307.58H396.12C395.866 307.544 394.907 307.526 393.242 307.526C391.601 307.526 390.653 307.544 390.4 307.58H390.183V306.747H390.653C390.919 306.747 391.148 306.747 391.341 306.747C391.534 306.747 391.685 306.741 391.794 306.729C391.902 306.717 391.999 306.699 392.083 306.675C392.168 306.651 392.216 306.639 392.228 306.639C392.24 306.639 392.276 306.609 392.337 306.548C392.397 306.488 392.433 306.464 392.445 306.476V297.118Z" fill="#92D192"/>
<path d="M385.404 322.458L385.169 322.549C385 322.609 384.759 322.669 384.445 322.73C384.131 322.79 383.782 322.832 383.395 322.856H383.051V322.024H383.395C383.963 322 384.487 321.909 384.97 321.752C385.453 321.595 385.791 321.451 385.984 321.318C386.177 321.185 386.346 321.052 386.49 320.92C386.515 320.883 386.587 320.865 386.708 320.865C386.816 320.865 386.919 320.902 387.015 320.974V326.386L387.033 331.816C387.118 331.9 387.19 331.955 387.251 331.979C387.311 332.003 387.456 332.027 387.685 332.051C387.914 332.075 388.288 332.087 388.807 332.087H389.278V332.92H389.079C388.825 332.884 387.866 332.866 386.201 332.866C384.56 332.866 383.613 332.884 383.359 332.92H383.142V332.087H383.613C383.878 332.087 384.107 332.087 384.3 332.087C384.493 332.087 384.644 332.081 384.753 332.069C384.861 332.057 384.958 332.039 385.042 332.015C385.127 331.991 385.175 331.979 385.187 331.979C385.199 331.979 385.236 331.949 385.296 331.888C385.356 331.828 385.392 331.804 385.404 331.816V322.458Z" fill="#92D192"/>
<path d="M401.857 295.136V294.014H406.726V337.436H401.857V336.314H405.604V295.136H401.857Z" fill="#92D192"/>
</g>
<path d="M497.135 341.461C497.392 341.332 497.604 341.345 497.773 341.5C497.941 341.654 498.186 341.947 498.507 342.376C498.829 342.804 499.16 343.152 499.507 343.422C501.997 345.379 505.035 345.461 508.619 343.669L536.052 329.953C540.612 327.673 544.427 327.988 547.498 330.896C547.014 326.694 548.904 323.527 553.167 321.395L580.94 307.509C581.978 306.99 582.749 306.567 583.248 306.244C584.63 305.294 585.628 304.083 586.241 302.607C586.856 301.131 586.924 299.649 586.443 298.158C586.428 298.129 586.397 298.038 586.349 297.889C586.3 297.739 586.271 297.628 586.263 297.56C586.254 297.489 586.247 297.392 586.238 297.268C586.23 297.142 586.272 297.03 586.361 296.93C586.448 296.831 586.56 296.748 586.693 296.682C587.245 296.406 588.493 299.881 588.02 302.268C587.546 304.654 586.095 306.591 583.665 308.079C583.253 308.322 582.631 308.651 581.799 309.067L554.281 322.826C552.839 323.547 551.674 324.373 550.787 325.304C549.901 326.236 549.352 327.14 549.142 328.018C548.932 328.896 548.816 329.603 548.792 330.14C548.767 330.676 548.82 331.179 548.95 331.649C548.994 331.737 549.046 331.872 549.11 332.051C549.173 332.231 549.204 332.385 549.203 332.516C549.202 332.645 549.207 332.772 549.215 332.896C549.224 333.02 549.191 333.138 549.113 333.251C549.036 333.362 548.934 333.451 548.807 333.514C548.638 333.599 548.489 333.647 548.361 333.654C548.234 333.662 548.113 333.622 548.001 333.531C547.889 333.44 547.791 333.337 547.708 333.222C547.625 333.108 547.509 332.958 547.364 332.772C547.218 332.587 547.08 332.418 546.949 332.262C546.107 331.321 544.949 330.672 543.471 330.315C541.994 329.959 540.405 330.096 538.705 330.724C538.252 330.877 537.601 331.166 536.753 331.59L509.797 345.068C508.946 345.493 508.253 345.807 507.718 346.011C507.184 346.214 506.374 346.373 505.289 346.488C504.204 346.602 503.133 346.513 502.079 346.221C498.758 345.617 496.717 341.67 497.138 341.459L497.135 341.461Z" fill="#F0F0F0"/>
<path d="M617.384 340.774H534.561V394.143H617.384V340.774Z" fill="black"/>
<g clip-path="url(#clip4_471_20532)">
<path d="M537.423 365.719C537.423 365.719 537.423 365.641 537.423 365.484C537.423 365.327 537.507 365.207 537.676 365.122H548.192C548.373 365.219 548.464 365.339 548.464 365.484C548.464 365.629 548.373 365.75 548.192 365.846H537.676C537.507 365.762 537.423 365.641 537.423 365.484V365.719Z" fill="#F0F0F0"/>
<path d="M553.839 359.547L553.604 359.638C553.435 359.698 553.194 359.759 552.88 359.819C552.566 359.879 552.216 359.922 551.83 359.946H551.486V359.113H551.83C552.397 359.089 552.922 358.998 553.405 358.842C553.887 358.685 554.225 358.54 554.418 358.407C554.611 358.274 554.78 358.142 554.925 358.009C554.949 357.973 555.022 357.955 555.142 357.955C555.251 357.955 555.354 357.991 555.45 358.063V363.475L555.468 368.905C555.553 368.99 555.625 369.044 555.685 369.068C555.746 369.092 555.891 369.116 556.12 369.14C556.349 369.165 556.723 369.177 557.242 369.177H557.713V370.009H557.514C557.26 369.973 556.301 369.955 554.636 369.955C552.995 369.955 552.047 369.973 551.794 370.009H551.577V369.177H552.047C552.313 369.177 552.542 369.177 552.735 369.177C552.928 369.177 553.079 369.171 553.188 369.159C553.296 369.147 553.393 369.128 553.477 369.104C553.562 369.08 553.61 369.068 553.622 369.068C553.634 369.068 553.67 369.038 553.731 368.978C553.791 368.917 553.827 368.893 553.839 368.905V359.547Z" fill="#F0F0F0"/>
<path d="M566.522 387.195V343.773H571.391V344.896H567.644V386.073H571.391V387.195H566.522Z" fill="#F2777A"/>
<path d="M577.147 353.05C577.147 353.05 577.147 352.971 577.147 352.814C577.147 352.657 577.231 352.537 577.4 352.452H587.916C588.097 352.549 588.188 352.669 588.188 352.814C588.188 352.959 588.097 353.08 587.916 353.176H577.4C577.231 353.092 577.147 352.971 577.147 352.814V353.05Z" fill="#F2777A"/>
<path d="M591.681 349.574C591.355 349.574 591.096 349.466 590.903 349.249C590.71 349.031 590.613 348.766 590.613 348.452C590.613 347.596 590.933 346.853 591.572 346.226C592.212 345.598 593.008 345.285 593.961 345.285C595.06 345.285 595.977 345.623 596.713 346.298C597.449 346.974 597.823 347.849 597.835 348.923C597.835 349.442 597.714 349.936 597.473 350.407C597.232 350.878 596.942 351.288 596.604 351.638C596.266 351.988 595.784 352.434 595.156 352.977C594.722 353.351 594.118 353.906 593.346 354.642L592.278 355.656L593.654 355.674C595.548 355.674 596.556 355.644 596.676 355.584C596.761 355.56 596.906 355.023 597.111 353.973V353.918H597.835V353.973C597.823 354.009 597.744 354.558 597.6 355.62C597.455 356.682 597.364 357.237 597.328 357.285V357.339H590.613V356.995V356.778C590.613 356.694 590.649 356.603 590.722 356.507C590.794 356.41 590.975 356.199 591.265 355.873C591.615 355.487 591.916 355.149 592.17 354.86C592.278 354.739 592.483 354.516 592.785 354.19C593.087 353.864 593.292 353.641 593.4 353.52C593.509 353.4 593.684 353.2 593.925 352.923C594.167 352.645 594.336 352.44 594.432 352.308C594.529 352.175 594.667 351.994 594.848 351.765C595.029 351.535 595.156 351.342 595.228 351.185C595.301 351.028 595.391 350.854 595.5 350.66C595.609 350.467 595.687 350.274 595.735 350.081C595.784 349.888 595.826 349.707 595.862 349.538C595.898 349.369 595.916 349.17 595.916 348.941C595.916 348.181 595.711 347.523 595.301 346.968C594.891 346.413 594.305 346.135 593.545 346.135C593.147 346.135 592.797 346.238 592.495 346.443C592.194 346.648 591.983 346.847 591.862 347.04C591.741 347.234 591.681 347.348 591.681 347.384C591.681 347.396 591.711 347.402 591.771 347.402C591.989 347.402 592.212 347.487 592.441 347.656C592.67 347.825 592.785 348.102 592.785 348.488C592.785 348.79 592.688 349.044 592.495 349.249C592.302 349.454 592.031 349.562 591.681 349.574Z" fill="#F2777A"/>
<path d="M577.147 378.389C577.147 378.389 577.147 378.311 577.147 378.154C577.147 377.997 577.231 377.877 577.4 377.792H587.916C588.097 377.889 588.188 378.009 588.188 378.154C588.188 378.299 588.097 378.42 587.916 378.516H577.4C577.231 378.432 577.147 378.311 577.147 378.154V378.389Z" fill="#F2777A"/>
<path d="M593.563 372.217L593.328 372.308C593.159 372.368 592.918 372.429 592.604 372.489C592.29 372.549 591.94 372.591 591.554 372.616H591.21V371.783H591.554C592.121 371.759 592.646 371.668 593.129 371.511C593.612 371.355 593.949 371.21 594.142 371.077C594.336 370.944 594.504 370.812 594.649 370.679C594.673 370.643 594.746 370.625 594.866 370.625C594.975 370.625 595.078 370.661 595.174 370.733V376.145L595.192 381.575C595.277 381.66 595.349 381.714 595.409 381.738C595.47 381.762 595.615 381.786 595.844 381.81C596.073 381.835 596.447 381.847 596.966 381.847H597.437V382.679H597.238C596.984 382.643 596.025 382.625 594.36 382.625C592.719 382.625 591.771 382.643 591.518 382.679H591.301V381.847H591.771C592.037 381.847 592.266 381.847 592.459 381.847C592.652 381.847 592.803 381.841 592.912 381.828C593.02 381.816 593.117 381.798 593.201 381.774C593.286 381.75 593.334 381.738 593.346 381.738C593.358 381.738 593.394 381.708 593.455 381.647C593.515 381.587 593.551 381.563 593.563 381.575V372.217Z" fill="#F2777A"/>
<path d="M602.975 344.896V343.773H607.844V387.195H602.975V386.073H606.722V344.896H602.975Z" fill="#F2777A"/>
</g>
<path d="M320.834 172.879L315 157.5L330.38 163.333L323.485 165.985L320.834 172.879Z" fill="#92D192"/>
<path d="M360 202.5L317.828 160.329" stroke="#92D192" stroke-width="1.5"/>
<path d="M286.435 246.829L270 247.5L280.398 234.754L280.733 242.133L286.435 246.829Z" fill="#F2777A"/>
<path d="M360 202.5L273.578 245.711" stroke="#F2777A" stroke-width="1.5"/>
<path d="M312.116 117.211H268.235V146.883H312.116V117.211Z" fill="black"/>
<g clip-path="url(#clip5_471_20532)">
<path d="M274.73 124.057C274.32 124.057 274.103 124.032 274.078 123.984C274.066 123.96 274.06 123.912 274.06 123.839C274.06 123.55 274.127 123.351 274.259 123.242C274.284 123.23 274.374 123.224 274.531 123.224C275.182 123.26 275.949 123.278 276.829 123.278C278.53 123.278 279.508 123.26 279.761 123.224H279.978C280.051 123.296 280.087 123.351 280.087 123.387C280.087 123.423 280.075 123.532 280.051 123.713C279.99 123.894 279.936 124.008 279.888 124.057H279.2C278.368 124.069 277.879 124.123 277.734 124.219C277.65 124.268 277.565 124.437 277.481 124.726C277.396 125.016 276.992 126.608 276.268 129.504C276.075 130.288 275.87 131.121 275.653 132.001C275.436 132.882 275.273 133.546 275.164 133.992L275.001 134.644C275.001 134.692 275.056 134.716 275.164 134.716C275.273 134.716 275.629 134.728 276.232 134.752H276.54C276.926 134.752 277.233 134.746 277.463 134.734C277.692 134.722 277.988 134.68 278.349 134.607C278.711 134.535 279.013 134.427 279.254 134.282C279.496 134.137 279.761 133.932 280.051 133.666C280.34 133.401 280.594 133.069 280.811 132.671C281.004 132.309 281.185 131.905 281.354 131.458C281.523 131.012 281.625 130.759 281.661 130.698C281.722 130.662 281.824 130.644 281.969 130.644H282.204C282.277 130.753 282.313 130.819 282.313 130.843C282.313 130.867 282.192 131.223 281.951 131.911C281.71 132.599 281.444 133.323 281.155 134.083C280.865 134.843 280.708 135.289 280.684 135.422C280.66 135.482 280.636 135.518 280.612 135.53C280.588 135.543 280.491 135.561 280.322 135.585C280.153 135.609 279.894 135.615 279.544 135.603C279.411 135.603 278.953 135.603 278.168 135.603C277.384 135.603 276.636 135.597 275.924 135.585H272.703C271.69 135.585 271.183 135.524 271.183 135.404C271.183 135.319 271.195 135.235 271.219 135.15C271.279 134.921 271.34 134.794 271.4 134.77C271.448 134.758 271.539 134.752 271.671 134.752H271.78C272.106 134.752 272.468 134.734 272.866 134.698C273.035 134.662 273.149 134.589 273.21 134.481C273.246 134.433 273.68 132.755 274.513 129.45C275.345 126.144 275.762 124.4 275.762 124.219C275.762 124.135 275.418 124.081 274.73 124.057Z" fill="#92D192"/>
<path d="M288.696 131.051C288.696 126.285 290.12 122.672 292.967 120.211H293.474C293.546 120.283 293.582 120.337 293.582 120.373C293.582 120.422 293.468 120.573 293.238 120.826C293.009 121.079 292.732 121.459 292.406 121.966C292.08 122.473 291.748 123.1 291.411 123.848C291.073 124.596 290.789 125.604 290.56 126.871C290.331 128.137 290.216 129.537 290.216 131.069C290.216 132.589 290.331 133.983 290.56 135.25C290.789 136.517 291.067 137.518 291.392 138.254C291.718 138.99 292.05 139.617 292.388 140.136C292.726 140.655 293.009 141.041 293.238 141.294C293.468 141.548 293.582 141.699 293.582 141.747C293.582 141.783 293.546 141.837 293.474 141.91H292.967C292.617 141.62 292.279 141.3 291.953 140.95C291.628 140.601 291.26 140.1 290.849 139.448C290.439 138.797 290.083 138.097 289.782 137.349C289.48 136.601 289.227 135.678 289.022 134.58C288.817 133.482 288.708 132.306 288.696 131.051Z" fill="#92D192"/>
<path d="M295.591 130.391C295.591 130.33 295.633 130.173 295.718 129.92C295.802 129.667 295.929 129.371 296.098 129.033C296.267 128.695 296.502 128.388 296.804 128.11C297.105 127.833 297.431 127.664 297.781 127.604H298.107C298.517 127.604 298.855 127.736 299.12 128.002C299.386 128.267 299.524 128.641 299.536 129.124C299.524 129.353 299.5 129.516 299.464 129.612C299.428 129.709 299.162 130.445 298.668 131.82C298.04 133.461 297.727 134.438 297.727 134.752C297.727 134.993 297.823 135.114 298.016 135.114C298.245 135.114 298.475 135.012 298.704 134.806C299.018 134.469 299.289 133.908 299.518 133.123C299.554 132.979 299.585 132.894 299.609 132.87C299.633 132.846 299.717 132.828 299.862 132.816H299.971C300.091 132.816 300.17 132.816 300.206 132.816C300.242 132.816 300.284 132.834 300.333 132.87C300.381 132.906 300.399 132.948 300.387 132.997C300.387 133.117 300.327 133.347 300.206 133.684C300.085 134.022 299.856 134.408 299.518 134.843C299.18 135.277 298.794 135.573 298.36 135.729C298.263 135.754 298.119 135.766 297.926 135.766C297.395 135.766 297.015 135.615 296.786 135.313C296.556 135.012 296.442 134.674 296.442 134.3C296.442 133.974 296.737 133.033 297.328 131.476C297.92 129.92 298.221 128.973 298.233 128.635C298.233 128.49 298.215 128.394 298.179 128.346C298.143 128.297 298.052 128.267 297.908 128.255C297.57 128.279 297.286 128.466 297.057 128.816C296.828 129.166 296.659 129.54 296.55 129.938C296.442 130.336 296.369 130.535 296.333 130.535C296.321 130.547 296.206 130.554 295.989 130.554H295.7C295.627 130.481 295.591 130.427 295.591 130.391Z" fill="#92D192"/>
<path d="M294.961 125.178L297.441 122.753L297.585 122.898C299.154 124.394 299.938 125.154 299.938 125.178L299.468 125.703C299.443 125.691 299.094 125.389 298.418 124.798L297.459 123.966L296.463 124.816C296.307 124.949 296.15 125.088 295.993 125.233C295.836 125.377 295.709 125.492 295.613 125.576L295.468 125.685C295.444 125.709 295.353 125.625 295.197 125.432L294.961 125.178Z" fill="#92D192"/>
<path d="M305.907 131.051C305.907 135.829 304.483 139.448 301.636 141.91H301.4C301.244 141.91 301.141 141.898 301.093 141.873C301.044 141.849 301.02 141.795 301.02 141.711C301.044 141.65 301.195 141.463 301.473 141.15C301.75 140.836 302.04 140.426 302.341 139.919C302.643 139.412 302.957 138.791 303.283 138.055C303.608 137.319 303.874 136.336 304.079 135.105C304.284 133.874 304.386 132.529 304.386 131.069C304.386 129.609 304.284 128.264 304.079 127.033C303.874 125.803 303.608 124.819 303.283 124.083C302.957 123.348 302.643 122.72 302.341 122.201C302.04 121.683 301.75 121.278 301.473 120.989C301.195 120.699 301.044 120.506 301.02 120.41C301.02 120.277 301.111 120.211 301.292 120.211H301.4H301.636C303.18 121.502 304.308 123.215 305.02 125.35C305.611 127.052 305.907 128.952 305.907 131.051Z" fill="#92D192"/>
</g>
<path d="M260.373 248.767H216.492V278.438H260.373V248.767Z" fill="black"/>
<g clip-path="url(#clip6_471_20532)">
<path d="M222.987 255.612C222.577 255.612 222.36 255.588 222.335 255.54C222.323 255.516 222.317 255.467 222.317 255.395C222.317 255.105 222.384 254.906 222.516 254.798C222.54 254.786 222.631 254.78 222.788 254.78C223.439 254.816 224.205 254.834 225.086 254.834C226.787 254.834 227.765 254.816 228.018 254.78H228.235C228.308 254.852 228.344 254.906 228.344 254.943C228.344 254.979 228.332 255.087 228.308 255.268C228.247 255.449 228.193 255.564 228.145 255.612H227.457C226.625 255.624 226.136 255.679 225.991 255.775C225.907 255.823 225.822 255.992 225.738 256.282C225.653 256.571 225.249 258.164 224.525 261.06C224.332 261.844 224.127 262.676 223.91 263.557C223.693 264.438 223.53 265.101 223.421 265.548L223.258 266.199C223.258 266.248 223.313 266.272 223.421 266.272C223.53 266.272 223.886 266.284 224.489 266.308H224.797C225.183 266.308 225.49 266.302 225.72 266.29C225.949 266.278 226.244 266.236 226.606 266.163C226.968 266.091 227.27 265.982 227.511 265.837C227.753 265.693 228.018 265.488 228.308 265.222C228.597 264.957 228.851 264.625 229.068 264.227C229.261 263.865 229.442 263.461 229.611 263.014C229.78 262.568 229.882 262.314 229.918 262.254C229.979 262.218 230.081 262.2 230.226 262.2H230.461C230.534 262.308 230.57 262.375 230.57 262.399C230.57 262.423 230.449 262.779 230.208 263.467C229.967 264.154 229.701 264.878 229.412 265.638C229.122 266.398 228.965 266.845 228.941 266.978C228.917 267.038 228.893 267.074 228.869 267.086C228.844 267.098 228.748 267.116 228.579 267.14C228.41 267.165 228.151 267.171 227.801 267.159C227.668 267.159 227.21 267.159 226.425 267.159C225.641 267.159 224.893 267.152 224.181 267.14H220.96C219.946 267.14 219.44 267.08 219.44 266.959C219.44 266.875 219.452 266.791 219.476 266.706C219.536 266.477 219.597 266.35 219.657 266.326C219.705 266.314 219.796 266.308 219.928 266.308H220.037C220.363 266.308 220.725 266.29 221.123 266.254C221.292 266.217 221.406 266.145 221.467 266.036C221.503 265.988 221.937 264.311 222.77 261.005C223.602 257.699 224.018 255.956 224.018 255.775C224.018 255.691 223.675 255.636 222.987 255.612Z" fill="#F2777A"/>
<path d="M236.953 262.607C236.953 257.841 238.377 254.228 241.224 251.766H241.731C241.803 251.839 241.839 251.893 241.839 251.929C241.839 251.977 241.725 252.128 241.495 252.382C241.266 252.635 240.989 253.015 240.663 253.522C240.337 254.028 240.005 254.656 239.667 255.404C239.33 256.152 239.046 257.159 238.817 258.426C238.588 259.693 238.473 261.093 238.473 262.625C238.473 264.145 238.588 265.539 238.817 266.805C239.046 268.072 239.324 269.074 239.649 269.81C239.975 270.546 240.307 271.173 240.645 271.692C240.983 272.211 241.266 272.597 241.495 272.85C241.725 273.103 241.839 273.254 241.839 273.302C241.839 273.339 241.803 273.393 241.731 273.465H241.224C240.874 273.176 240.536 272.856 240.21 272.506C239.885 272.156 239.517 271.656 239.106 271.004C238.696 270.353 238.34 269.653 238.039 268.905C237.737 268.157 237.484 267.234 237.279 266.136C237.073 265.038 236.965 263.862 236.953 262.607Z" fill="#F2777A"/>
<path d="M243.848 261.946C243.848 261.886 243.89 261.729 243.975 261.476C244.059 261.222 244.186 260.927 244.355 260.589C244.524 260.251 244.759 259.943 245.061 259.666C245.362 259.388 245.688 259.22 246.038 259.159H246.364C246.774 259.159 247.112 259.292 247.377 259.557C247.642 259.823 247.781 260.197 247.793 260.679C247.781 260.909 247.757 261.072 247.721 261.168C247.685 261.265 247.419 262.001 246.925 263.376C246.297 265.017 245.984 265.994 245.984 266.308C245.984 266.549 246.08 266.67 246.273 266.67C246.502 266.67 246.732 266.567 246.961 266.362C247.275 266.024 247.546 265.463 247.775 264.679C247.811 264.534 247.842 264.45 247.866 264.426C247.89 264.402 247.974 264.383 248.119 264.371H248.228C248.348 264.371 248.427 264.371 248.463 264.371C248.499 264.371 248.541 264.389 248.59 264.426C248.638 264.462 248.656 264.504 248.644 264.552C248.644 264.673 248.584 264.902 248.463 265.24C248.342 265.578 248.113 265.964 247.775 266.398C247.437 266.833 247.051 267.128 246.617 267.285C246.52 267.309 246.376 267.321 246.183 267.321C245.652 267.321 245.272 267.17 245.042 266.869C244.813 266.567 244.699 266.229 244.699 265.855C244.699 265.53 244.994 264.589 245.585 263.032C246.177 261.476 246.478 260.529 246.49 260.191C246.49 260.046 246.472 259.95 246.436 259.901C246.4 259.853 246.309 259.823 246.165 259.811C245.827 259.835 245.543 260.022 245.314 260.372C245.085 260.722 244.916 261.096 244.807 261.494C244.699 261.892 244.626 262.091 244.59 262.091C244.578 262.103 244.463 262.109 244.246 262.109H243.957C243.884 262.037 243.848 261.982 243.848 261.946Z" fill="#F2777A"/>
<path d="M243.218 256.734L245.698 254.309L245.842 254.454C247.411 255.95 248.195 256.71 248.195 256.734L247.725 257.259C247.7 257.247 247.35 256.945 246.675 256.354L245.716 255.521L244.72 256.372C244.563 256.505 244.407 256.643 244.25 256.788C244.093 256.933 243.966 257.048 243.87 257.132L243.725 257.241C243.701 257.265 243.61 257.18 243.453 256.987L243.218 256.734Z" fill="#F2777A"/>
<path d="M254.164 262.607C254.164 267.385 252.74 271.004 249.893 273.465H249.657C249.5 273.465 249.398 273.453 249.35 273.429C249.301 273.405 249.277 273.351 249.277 273.266C249.301 273.206 249.452 273.019 249.73 272.705C250.007 272.392 250.297 271.981 250.598 271.475C250.9 270.968 251.214 270.347 251.539 269.611C251.865 268.875 252.131 267.891 252.336 266.661C252.541 265.43 252.643 264.085 252.643 262.625C252.643 261.165 252.541 259.82 252.336 258.589C252.131 257.358 251.865 256.375 251.539 255.639C251.214 254.903 250.9 254.276 250.598 253.757C250.297 253.238 250.007 252.834 249.73 252.544C249.452 252.255 249.301 252.062 249.277 251.965C249.277 251.833 249.368 251.766 249.549 251.766H249.657H249.893C251.437 253.057 252.565 254.77 253.277 256.906C253.868 258.607 254.164 260.507 254.164 262.607Z" fill="#F2777A"/>
</g>
<path d="M643.633 291.037H594.481V320.709H643.633V291.037Z" fill="black"/>
<g clip-path="url(#clip7_471_20532)">
<path d="M600.975 297.883C600.565 297.883 600.348 297.859 600.324 297.81C600.312 297.786 600.306 297.738 600.306 297.666C600.306 297.376 600.372 297.177 600.505 297.068C600.529 297.056 600.619 297.05 600.776 297.05C601.428 297.086 602.194 297.105 603.075 297.105C604.776 297.105 605.753 297.086 606.006 297.05H606.224C606.296 297.123 606.332 297.177 606.332 297.213C606.332 297.249 606.32 297.358 606.296 297.539C606.236 297.72 606.181 297.834 606.133 297.883H605.445C604.613 297.895 604.124 297.949 603.98 298.046C603.895 298.094 603.811 298.263 603.726 298.552C603.642 298.842 603.238 300.435 602.514 303.33C602.321 304.114 602.115 304.947 601.898 305.828C601.681 306.708 601.518 307.372 601.41 307.818L601.247 308.47C601.247 308.518 601.301 308.542 601.41 308.542C601.518 308.542 601.874 308.554 602.477 308.578H602.785C603.171 308.578 603.479 308.572 603.708 308.56C603.937 308.548 604.233 308.506 604.595 308.434C604.957 308.361 605.258 308.253 605.5 308.108C605.741 307.963 606.006 307.758 606.296 307.493C606.586 307.227 606.839 306.895 607.056 306.497C607.249 306.135 607.43 305.731 607.599 305.285C607.768 304.838 607.87 304.585 607.907 304.525C607.967 304.488 608.07 304.47 608.214 304.47H608.45C608.522 304.579 608.558 304.645 608.558 304.669C608.558 304.693 608.438 305.049 608.196 305.737C607.955 306.425 607.69 307.149 607.4 307.909C607.11 308.669 606.954 309.115 606.929 309.248C606.905 309.308 606.881 309.345 606.857 309.357C606.833 309.369 606.736 309.387 606.567 309.411C606.399 309.435 606.139 309.441 605.789 309.429C605.657 309.429 605.198 309.429 604.414 309.429C603.63 309.429 602.882 309.423 602.17 309.411H598.948C597.935 309.411 597.428 309.351 597.428 309.23C597.428 309.145 597.44 309.061 597.464 308.977C597.525 308.747 597.585 308.621 597.645 308.597C597.694 308.584 597.784 308.578 597.917 308.578H598.025C598.351 308.578 598.713 308.56 599.111 308.524C599.28 308.488 599.395 308.416 599.455 308.307C599.491 308.259 599.926 306.582 600.758 303.276C601.591 299.97 602.007 298.227 602.007 298.046C602.007 297.961 601.663 297.907 600.975 297.883Z" fill="#FFF888"/>
<path d="M614.941 304.877C614.941 300.112 616.365 296.498 619.212 294.037H619.719C619.791 294.109 619.828 294.163 619.828 294.2C619.828 294.248 619.713 294.399 619.484 294.652C619.255 294.905 618.977 295.286 618.651 295.792C618.325 296.299 617.994 296.926 617.656 297.674C617.318 298.422 617.035 299.43 616.805 300.697C616.576 301.964 616.461 303.363 616.461 304.895C616.461 306.416 616.576 307.809 616.805 309.076C617.035 310.343 617.312 311.344 617.638 312.08C617.964 312.816 618.295 313.443 618.633 313.962C618.971 314.481 619.255 314.867 619.484 315.121C619.713 315.374 619.828 315.525 619.828 315.573C619.828 315.609 619.791 315.663 619.719 315.736H619.212C618.862 315.446 618.525 315.127 618.199 314.777C617.873 314.427 617.505 313.926 617.095 313.275C616.685 312.623 616.329 311.923 616.027 311.175C615.725 310.427 615.472 309.504 615.267 308.406C615.062 307.308 614.953 306.132 614.941 304.877Z" fill="#FFF888"/>
<path d="M627.736 301.375C627.881 301.411 628.448 301.429 629.437 301.429C630.318 301.429 630.795 301.411 630.867 301.375H630.976V302.497H629.709L627.881 306.587C627.145 308.252 626.723 309.157 626.614 309.302C626.518 309.423 626.403 309.483 626.27 309.483C626.246 309.483 626.204 309.483 626.144 309.483C626.083 309.483 626.023 309.477 625.963 309.465H625.691C625.51 309.465 625.365 309.374 625.257 309.193C625.148 309.012 624.889 308.469 624.479 307.565C624.298 307.166 624.153 306.841 624.044 306.587L622.216 302.497H620.95V301.375H621.094C621.275 301.411 621.945 301.429 623.103 301.429C624.394 301.429 625.148 301.411 625.365 301.375H625.528V302.497H624.66L625.619 304.633C626.234 306.02 626.56 306.714 626.596 306.714C626.596 306.702 626.904 306.008 627.519 304.633C628.134 303.257 628.454 302.552 628.478 302.515C628.478 302.503 628.333 302.497 628.044 302.497H627.61V301.375H627.736Z" fill="#FFF888"/>
<path d="M628.27 296.254C628.27 296.157 628.3 296.073 628.361 296C628.421 295.928 628.511 295.892 628.632 295.892C628.717 295.892 628.789 295.922 628.849 295.982C628.91 296.031 628.97 296.145 629.03 296.326C629.151 296.773 629.398 297.116 629.772 297.358C629.905 297.442 629.971 297.551 629.971 297.683C629.971 297.792 629.953 297.864 629.917 297.901C629.881 297.937 629.796 297.991 629.664 298.063C629.145 298.329 628.692 298.709 628.306 299.204C628.282 299.228 628.252 299.264 628.216 299.312C628.18 299.36 628.149 299.397 628.125 299.421C628.101 299.445 628.071 299.457 628.035 299.457C627.999 299.457 627.956 299.463 627.908 299.475C627.824 299.475 627.745 299.445 627.673 299.385C627.601 299.324 627.558 299.234 627.546 299.113C627.546 298.884 627.83 298.528 628.397 298.045H625.302L622.207 298.027C622.051 297.919 621.972 297.804 621.972 297.683C621.972 297.599 622.051 297.478 622.207 297.321H628.704C628.415 296.863 628.27 296.507 628.27 296.254Z" fill="#FFF888"/>
<path d="M636.984 304.877C636.984 309.655 635.56 313.275 632.713 315.736H632.478C632.321 315.736 632.218 315.724 632.17 315.7C632.122 315.676 632.098 315.621 632.098 315.537C632.122 315.476 632.273 315.289 632.55 314.976C632.828 314.662 633.117 314.252 633.419 313.745C633.721 313.238 634.034 312.617 634.36 311.881C634.686 311.145 634.951 310.162 635.156 308.931C635.361 307.701 635.464 306.355 635.464 304.895C635.464 303.435 635.361 302.09 635.156 300.86C634.951 299.629 634.686 298.646 634.36 297.91C634.034 297.174 633.721 296.546 633.419 296.028C633.117 295.509 632.828 295.105 632.55 294.815C632.273 294.525 632.122 294.332 632.098 294.236C632.098 294.103 632.188 294.037 632.369 294.037H632.478H632.713C634.257 295.328 635.385 297.041 636.097 299.177C636.689 300.878 636.984 302.778 636.984 304.877Z" fill="#FFF888"/>
</g>
<path d="M573.58 280.662L585 292.5L568.566 293.197L573.858 288.043L573.58 280.662Z" fill="#FFF888"/>
<path d="M360 202.5L581.286 291.014" stroke="#FFF888" stroke-width="1.5"/>
</g>
<defs>
<clipPath id="clip0_471_20532">
<rect width="720" height="405" fill="white"/>
</clipPath>
<clipPath id="clip1_471_20532">
<rect width="720" height="405" fill="white"/>
</clipPath>
<clipPath id="clip2_471_20532">
<rect width="2880" height="1620" fill="white" transform="translate(-1080 -607.5)"/>
</clipPath>
<clipPath id="clip3_471_20532">
<rect width="76.432" height="43.44" fill="white" transform="translate(334.784 294.005)"/>
</clipPath>
<clipPath id="clip4_471_20532">
<rect width="76.432" height="43.44" fill="white" transform="translate(535.902 343.764)"/>
</clipPath>
<clipPath id="clip5_471_20532">
<rect width="38.072" height="21.704" fill="white" transform="translate(270.604 120.208)"/>
</clipPath>
<clipPath id="clip6_471_20532">
<rect width="38.072" height="21.704" fill="white" transform="translate(218.861 251.764)"/>
</clipPath>
<clipPath id="clip7_471_20532">
<rect width="42.904" height="21.704" fill="white" transform="translate(596.849 294.034)"/>
</clipPath>
</defs>
</svg>
