<svg width="720" height="405" viewBox="0 0 720 405" fill="none" xmlns="http://www.w3.org/2000/svg">
<g clip-path="url(#clip0_471_20997)">
<path d="M720 0H0V405H720V0Z" fill="black"/>
<g clip-path="url(#clip1_471_20997)">
<path d="M0 22.5H720" stroke="#404040" stroke-width="1.5"/>
<path d="M0 67.5H720" stroke="#404040" stroke-width="1.5"/>
<path d="M0 112.5H720" stroke="#404040" stroke-width="1.5"/>
<path d="M0 157.5H720" stroke="#404040" stroke-width="1.5"/>
<path d="M0 202.5H720" stroke="#404040" stroke-width="1.5"/>
<path d="M0 247.5H720" stroke="#404040" stroke-width="1.5"/>
<path d="M0 292.5H720" stroke="#404040" stroke-width="1.5"/>
<path d="M0 337.5H720" stroke="#404040" stroke-width="1.5"/>
<path d="M0 382.5H720" stroke="#404040" stroke-width="1.5"/>
<path d="M0 0V405" stroke="#404040" stroke-width="1.5"/>
<path d="M45 0V405" stroke="#404040" stroke-width="1.5"/>
<path d="M90 0V405" stroke="#404040" stroke-width="1.5"/>
<path d="M135 0V405" stroke="#404040" stroke-width="1.5"/>
<path d="M180 0V405" stroke="#404040" stroke-width="1.5"/>
<path d="M225 0V405" stroke="#404040" stroke-width="1.5"/>
<path d="M270 0V405" stroke="#404040" stroke-width="1.5"/>
<path d="M315 0V405" stroke="#404040" stroke-width="1.5"/>
<path d="M360 0V405" stroke="#404040" stroke-width="1.5"/>
<path d="M405 0V405" stroke="#404040" stroke-width="1.5"/>
<path d="M450 0V405" stroke="#404040" stroke-width="1.5"/>
<path d="M495 0V405" stroke="#404040" stroke-width="1.5"/>
<path d="M540 0V405" stroke="#404040" stroke-width="1.5"/>
<path d="M585 0V405" stroke="#404040" stroke-width="1.5"/>
<path d="M630 0V405" stroke="#404040" stroke-width="1.5"/>
<path d="M675 0V405" stroke="#404040" stroke-width="1.5"/>
<path d="M720 0V405" stroke="#404040" stroke-width="1.5"/>
</g>
<path d="M0 202.5H720" stroke="#808080" stroke-width="1.5"/>
<path d="M360 0V405" stroke="#808080" stroke-width="1.5"/>
<path d="M240 209.25L225 202.5L240 195.75L237 202.5L240 209.25Z" fill="#92D192"/>
<path d="M360 202.5H229" stroke="#92D192" stroke-width="1.5"/>
<path d="M231.75 232.5L225 247.5L218.25 232.5L225 235.5L231.75 232.5Z" fill="#F2777A"/>
<path d="M225 202.5V243.5" stroke="#F2777A" stroke-width="1.5"/>
<path d="M359.815 198.003C359.43 198.003 359.182 197.896 359.073 197.682C358.963 197.469 358.845 197.098 358.717 196.571C358.588 196.044 358.399 195.584 358.144 195.188C356.331 192.324 352.735 190.892 347.359 190.892H306.21C299.37 190.892 294.981 188.904 293.04 184.929C291.1 188.904 286.932 190.892 280.537 190.892H238.878C237.321 190.892 236.142 190.925 235.348 190.991C233.121 191.222 231.196 191.859 229.575 192.905C227.952 193.95 226.981 195.246 226.663 196.794C226.663 196.827 226.647 196.922 226.615 197.077C226.584 197.233 226.552 197.345 226.521 197.41C226.489 197.477 226.44 197.567 226.375 197.682C226.309 197.798 226.192 197.88 226.026 197.929C225.861 197.979 225.678 198.003 225.478 198.003C224.65 198.003 225.237 194.336 227.236 192.413C229.237 190.491 232.141 189.407 235.95 189.163C236.59 189.13 237.534 189.114 238.782 189.114H280.059C282.222 189.114 284.115 188.896 285.738 188.46C287.361 188.023 288.562 187.46 289.341 186.768C290.119 186.077 290.683 185.496 291.034 185.027C291.385 184.558 291.624 184.085 291.75 183.607C291.75 183.508 291.768 183.364 291.799 183.175C291.831 182.986 291.886 182.834 291.966 182.718C292.045 182.603 292.116 182.487 292.18 182.373C292.243 182.257 292.354 182.167 292.515 182.101C292.674 182.036 292.849 182.002 293.04 182.002C293.293 182.002 293.502 182.026 293.659 182.076C293.817 182.126 293.938 182.216 294.018 182.348C294.097 182.479 294.153 182.615 294.184 182.755C294.216 182.894 294.264 183.08 294.327 183.311C294.391 183.542 294.454 183.755 294.519 183.953C294.964 185.171 295.965 186.27 297.523 187.25C299.083 188.229 301.072 188.817 303.489 189.015C304.125 189.081 305.079 189.114 306.351 189.114H346.785C348.061 189.114 349.081 189.143 349.845 189.2C350.608 189.257 351.675 189.477 353.046 189.86C354.417 190.243 355.648 190.801 356.739 191.534C360.361 193.56 360.442 198.003 359.811 198.003H359.815Z" fill="#F0F0F0"/>
<path d="M312.307 152.257H276.011V172.692H312.307V152.257Z" fill="black"/>
<g clip-path="url(#clip2_471_20997)">
<path d="M278.873 163.636C278.873 163.636 278.873 163.558 278.873 163.401C278.873 163.244 278.958 163.124 279.127 163.039H289.643C289.824 163.136 289.915 163.256 289.915 163.401C289.915 163.546 289.824 163.667 289.643 163.763H279.127C278.958 163.679 278.873 163.558 278.873 163.401V163.636Z" fill="#F0F0F0"/>
<path d="M293.734 159.546C293.408 159.546 293.155 159.443 292.974 159.238C292.793 159.033 292.696 158.767 292.684 158.442C292.684 157.778 292.974 157.187 293.553 156.668C294.132 156.149 294.832 155.889 295.653 155.889C296.075 155.889 296.341 155.895 296.449 155.907C297.342 156.052 298.024 156.372 298.495 156.867C298.965 157.362 299.207 157.899 299.219 158.478C299.219 159.105 299.014 159.715 298.603 160.306C298.193 160.897 297.626 161.326 296.902 161.591L296.848 161.627C296.848 161.639 296.902 161.658 297.01 161.682C297.119 161.706 297.294 161.76 297.535 161.845C297.777 161.929 298.006 162.056 298.223 162.225C299.213 162.864 299.707 163.709 299.707 164.759C299.707 165.712 299.333 166.545 298.585 167.257C297.837 167.969 296.89 168.325 295.743 168.325C294.778 168.325 293.945 168.065 293.245 167.546C292.546 167.027 292.196 166.37 292.196 165.573C292.196 165.235 292.304 164.964 292.521 164.759C292.739 164.554 293.01 164.445 293.336 164.433C293.674 164.433 293.951 164.542 294.169 164.759C294.386 164.976 294.494 165.248 294.494 165.573C294.494 165.706 294.476 165.827 294.44 165.935C294.404 166.044 294.362 166.141 294.313 166.225C294.265 166.309 294.199 166.382 294.114 166.442C294.03 166.503 293.957 166.551 293.897 166.587C293.837 166.623 293.776 166.647 293.716 166.659C293.656 166.671 293.607 166.69 293.571 166.714L293.499 166.732C294.114 167.275 294.862 167.546 295.743 167.546C296.407 167.546 296.908 167.227 297.246 166.587C297.451 166.189 297.553 165.579 297.553 164.759V164.397C297.553 163.25 297.167 162.484 296.395 162.098C296.214 162.026 295.846 161.983 295.291 161.971L294.531 161.953L294.476 161.917C294.452 161.881 294.44 161.784 294.44 161.627C294.44 161.41 294.488 161.302 294.585 161.302C294.923 161.302 295.273 161.271 295.635 161.211C296.045 161.151 296.419 160.897 296.757 160.451C297.095 160.004 297.264 159.329 297.264 158.423V158.279C297.264 157.591 297.053 157.114 296.63 156.849C296.365 156.68 296.081 156.595 295.78 156.595C295.393 156.595 295.037 156.662 294.712 156.794C294.386 156.927 294.156 157.066 294.024 157.211C293.891 157.355 293.825 157.428 293.825 157.428H293.879C293.915 157.44 293.963 157.452 294.024 157.464C294.084 157.476 294.144 157.506 294.205 157.555C294.265 157.603 294.338 157.645 294.422 157.681C294.506 157.718 294.567 157.784 294.603 157.88C294.639 157.977 294.687 158.067 294.748 158.152C294.808 158.236 294.826 158.357 294.802 158.514C294.802 158.779 294.718 159.015 294.549 159.22C294.38 159.425 294.108 159.534 293.734 159.546Z" fill="#F0F0F0"/>
<path d="M301.843 162.731C301.843 162.671 301.885 162.514 301.97 162.261C302.054 162.007 302.181 161.712 302.35 161.374C302.519 161.036 302.754 160.728 303.056 160.451C303.358 160.173 303.684 160.004 304.033 159.944H304.359C304.77 159.944 305.107 160.077 305.373 160.342C305.638 160.608 305.777 160.982 305.789 161.464C305.777 161.694 305.753 161.857 305.717 161.953C305.681 162.05 305.415 162.786 304.92 164.161C304.293 165.803 303.979 166.78 303.979 167.094C303.979 167.335 304.076 167.456 304.269 167.456C304.498 167.456 304.727 167.353 304.957 167.148C305.27 166.81 305.542 166.249 305.771 165.465C305.807 165.32 305.838 165.235 305.862 165.211C305.886 165.187 305.97 165.169 306.115 165.157H306.224C306.344 165.157 306.423 165.157 306.459 165.157C306.495 165.157 306.537 165.175 306.586 165.211C306.634 165.247 306.652 165.29 306.64 165.338C306.64 165.459 306.58 165.688 306.459 166.026C306.338 166.364 306.109 166.75 305.771 167.184C305.433 167.619 305.047 167.914 304.613 168.071C304.516 168.095 304.371 168.107 304.178 168.107C303.647 168.107 303.267 167.957 303.038 167.655C302.809 167.353 302.694 167.015 302.694 166.641C302.694 166.315 302.99 165.374 303.581 163.817C304.172 162.261 304.474 161.314 304.486 160.976C304.486 160.831 304.468 160.734 304.432 160.686C304.396 160.638 304.305 160.608 304.16 160.596C303.822 160.62 303.539 160.807 303.309 161.157C303.08 161.507 302.911 161.881 302.803 162.279C302.694 162.677 302.622 162.876 302.585 162.876C302.573 162.888 302.459 162.894 302.241 162.894H301.952C301.879 162.822 301.843 162.768 301.843 162.731Z" fill="#92D192"/>
<path d="M301.213 157.519L303.693 155.093L303.838 155.238C305.407 156.734 306.191 157.494 306.191 157.519L305.721 158.043C305.696 158.031 305.346 157.73 304.671 157.138L303.711 156.306L302.716 157.157C302.559 157.289 302.402 157.428 302.245 157.573C302.088 157.718 301.962 157.832 301.865 157.917L301.72 158.025C301.696 158.049 301.606 157.965 301.449 157.772L301.213 157.519Z" fill="#92D192"/>
</g>
<path d="M221 202.637C221 202.813 220.893 202.924 220.679 202.975C220.466 203.024 220.095 203.078 219.568 203.136C219.041 203.194 218.581 203.281 218.185 203.396C215.321 204.22 213.889 205.855 213.889 208.298V218.821C213.889 221.929 211.901 223.924 207.926 224.807C211.901 225.688 213.889 227.584 213.889 230.49V241.244C213.889 241.952 213.922 242.488 213.988 242.848C214.219 243.861 214.856 244.735 215.902 245.473C216.947 246.21 218.243 246.651 219.791 246.796C219.824 246.796 219.919 246.804 220.074 246.818C220.23 246.832 220.342 246.847 220.407 246.862C220.474 246.876 220.564 246.898 220.679 246.928C220.795 246.958 220.877 247.011 220.926 247.086C220.976 247.161 221 247.243 221 247.335C221 247.711 217.333 247.444 215.41 246.535C213.488 245.626 212.404 244.306 212.16 242.575C212.127 242.284 212.111 241.855 212.111 241.288V230.707C212.111 229.724 211.893 228.864 211.457 228.126C211.02 227.389 210.457 226.842 209.765 226.488C209.074 226.134 208.493 225.877 208.024 225.718C207.555 225.559 207.082 225.45 206.604 225.394C206.505 225.394 206.361 225.385 206.172 225.371C205.983 225.357 205.831 225.331 205.715 225.295C205.6 225.259 205.484 225.227 205.37 225.198C205.254 225.169 205.164 225.118 205.098 225.046C205.033 224.974 204.999 224.893 204.999 224.807C204.999 224.692 205.023 224.597 205.073 224.525C205.123 224.453 205.213 224.398 205.345 224.362C205.476 224.326 205.612 224.301 205.752 224.287C205.891 224.272 206.077 224.251 206.308 224.222C206.539 224.193 206.752 224.164 206.95 224.135C208.168 223.933 209.267 223.477 210.247 222.769C211.226 222.06 211.814 221.156 212.012 220.057C212.078 219.769 212.111 219.334 212.111 218.756V208.558C212.111 207.978 212.14 207.514 212.197 207.167C212.254 206.821 212.474 206.335 212.857 205.712C213.24 205.089 213.798 204.529 214.531 204.034C216.557 202.387 221 202.351 221 202.637Z" fill="#F0F0F0"/>
<path d="M202.677 214.951H166.646V238.997H202.677V214.951Z" fill="black"/>
<g clip-path="url(#clip3_471_20997)">
<path d="M169.508 226.347C169.508 226.347 169.508 226.269 169.508 226.112C169.508 225.955 169.592 225.834 169.761 225.75H180.276C180.457 225.846 180.548 225.967 180.548 226.112C180.548 226.256 180.457 226.377 180.276 226.474H169.761C169.592 226.389 169.508 226.269 169.508 226.112V226.347Z" fill="#F0F0F0"/>
<path d="M185.923 220.176L185.688 220.266C185.519 220.327 185.277 220.387 184.964 220.447C184.65 220.508 184.3 220.55 183.914 220.574H183.57V219.741H183.914C184.481 219.717 185.006 219.627 185.489 219.47C185.971 219.313 186.309 219.168 186.502 219.036C186.695 218.903 186.864 218.77 187.009 218.637C187.033 218.601 187.105 218.583 187.226 218.583C187.335 218.583 187.437 218.619 187.534 218.692V224.103L187.552 229.533C187.636 229.617 187.709 229.671 187.769 229.696C187.829 229.72 187.974 229.744 188.203 229.768C188.433 229.792 188.807 229.804 189.326 229.804H189.796V230.637H189.597C189.344 230.601 188.384 230.582 186.719 230.582C185.078 230.582 184.131 230.601 183.878 230.637H183.661V229.804H184.131C184.397 229.804 184.626 229.804 184.819 229.804C185.012 229.804 185.163 229.798 185.271 229.786C185.38 229.774 185.477 229.756 185.561 229.732C185.645 229.708 185.694 229.696 185.706 229.696C185.718 229.696 185.754 229.665 185.814 229.605C185.875 229.545 185.911 229.521 185.923 229.533V220.176Z" fill="#F0F0F0"/>
<path d="M192.475 225.496C192.475 225.496 192.475 225.478 192.475 225.442C192.475 225.406 192.511 225.297 192.583 225.116C192.656 224.935 192.776 224.706 192.945 224.429C193.114 224.151 193.307 223.874 193.524 223.596C193.742 223.319 194.025 223.095 194.375 222.926C194.725 222.758 195.087 222.661 195.461 222.637C195.859 222.661 196.221 222.794 196.547 223.035C196.873 223.276 197.036 223.699 197.036 224.302V224.628L196.149 228.211C196.016 228.718 195.865 229.303 195.696 229.967C195.527 230.63 195.407 231.125 195.334 231.451C195.262 231.777 195.214 231.946 195.19 231.958C194.984 232.561 194.604 233.104 194.049 233.587C193.494 234.069 192.843 234.317 192.095 234.329C191.54 234.329 191.123 234.19 190.846 233.912C190.641 233.707 190.538 233.46 190.538 233.17C190.538 232.832 190.647 232.567 190.864 232.374C191.081 232.181 191.329 232.078 191.606 232.066C191.859 232.066 192.04 232.139 192.149 232.283C192.258 232.428 192.318 232.567 192.33 232.7C192.33 233.086 192.161 233.4 191.823 233.641L191.914 233.659H192.185H192.203C192.831 233.659 193.343 233.098 193.742 231.976C193.778 231.867 194.098 230.612 194.701 228.211C195.304 225.81 195.624 224.525 195.66 224.356C195.672 224.284 195.678 224.145 195.678 223.94C195.678 223.795 195.672 223.687 195.66 223.614C195.648 223.542 195.612 223.475 195.552 223.415C195.491 223.355 195.401 223.319 195.28 223.307C194.966 223.307 194.635 223.469 194.285 223.795C194.067 224.012 193.886 224.26 193.742 224.537C193.597 224.815 193.482 225.05 193.398 225.243C193.313 225.436 193.259 225.545 193.235 225.569C193.211 225.593 193.096 225.605 192.891 225.605H192.583C192.511 225.533 192.475 225.478 192.475 225.442V225.496Z" fill="#F2777A"/>
<path d="M191.624 220.211L194.104 217.786L194.248 217.931C195.817 219.427 196.601 220.187 196.601 220.211L196.131 220.736C196.107 220.724 195.757 220.423 195.081 219.831L194.122 218.999L193.126 219.849C192.969 219.982 192.813 220.121 192.656 220.266C192.499 220.411 192.372 220.525 192.276 220.61L192.131 220.718C192.107 220.742 192.016 220.658 191.859 220.465L191.624 220.211Z" fill="#F2777A"/>
</g>
<path d="M390 195.75L405 202.5L390 209.25L393 202.5L390 195.75Z" fill="#92D192"/>
<path d="M360 202.5H401" stroke="#92D192" stroke-width="1.5"/>
<path d="M353.25 172.5L360 157.5L366.75 172.5L360 169.5L353.25 172.5Z" fill="#F2777A"/>
<path d="M360 202.5V161.5" stroke="#F2777A" stroke-width="1.5"/>
<path d="M425.254 192.13H413.333V212.323H425.254V192.13Z" fill="black"/>
<g clip-path="url(#clip4_471_20997)">
<path d="M416.896 202.602C416.896 202.541 416.938 202.385 417.023 202.131C417.107 201.878 417.234 201.582 417.403 201.245C417.572 200.907 417.807 200.599 418.108 200.322C418.41 200.044 418.736 199.875 419.086 199.815H419.411C419.821 199.815 420.159 199.948 420.424 200.213C420.69 200.479 420.829 200.853 420.841 201.335C420.829 201.564 420.804 201.727 420.768 201.824C420.732 201.92 420.467 202.656 419.972 204.031C419.345 205.672 419.031 206.649 419.031 206.962C419.031 207.204 419.128 207.324 419.321 207.324C419.55 207.324 419.779 207.222 420.008 207.017C420.322 206.679 420.593 206.118 420.823 205.334C420.859 205.189 420.889 205.105 420.913 205.081C420.937 205.056 421.022 205.038 421.166 205.026H421.275C421.396 205.026 421.474 205.026 421.51 205.026C421.546 205.026 421.589 205.044 421.637 205.081C421.685 205.117 421.703 205.159 421.691 205.207C421.691 205.328 421.631 205.557 421.51 205.895C421.389 206.233 421.16 206.619 420.823 207.053C420.485 207.487 420.099 207.783 419.665 207.939C419.568 207.964 419.423 207.976 419.23 207.976C418.699 207.976 418.32 207.825 418.09 207.523C417.861 207.222 417.747 206.884 417.747 206.51C417.747 206.184 418.042 205.243 418.633 203.687C419.224 202.131 419.526 201.184 419.538 200.847C419.538 200.702 419.52 200.605 419.484 200.557C419.447 200.509 419.357 200.479 419.212 200.467C418.874 200.491 418.591 200.678 418.362 201.027C418.133 201.377 417.964 201.751 417.855 202.149C417.747 202.547 417.674 202.746 417.638 202.746C417.626 202.758 417.511 202.764 417.294 202.764H417.005C416.932 202.692 416.896 202.638 416.896 202.602Z" fill="#92D192"/>
<path d="M416.266 197.39L418.745 194.966L418.89 195.11C420.458 196.606 421.242 197.366 421.242 197.39L420.772 197.915C420.748 197.903 420.398 197.601 419.722 197.01L418.763 196.178L417.768 197.028C417.611 197.161 417.455 197.3 417.298 197.445C417.141 197.589 417.014 197.704 416.918 197.788L416.773 197.897C416.749 197.921 416.659 197.837 416.502 197.644L416.266 197.39Z" fill="#92D192"/>
</g>
<path d="M365.912 124.954H352.825V148.997H365.912V124.954Z" fill="black"/>
<g clip-path="url(#clip5_471_20997)">
<path d="M357.814 135.498C357.814 135.498 357.814 135.48 357.814 135.444C357.814 135.408 357.85 135.299 357.922 135.118C357.995 134.937 358.115 134.708 358.284 134.43C358.453 134.153 358.646 133.875 358.863 133.598C359.08 133.32 359.364 133.097 359.714 132.928C360.064 132.759 360.426 132.663 360.8 132.639C361.198 132.663 361.56 132.796 361.885 133.037C362.211 133.278 362.374 133.7 362.374 134.304V134.629L361.487 138.213C361.354 138.719 361.204 139.304 361.035 139.968C360.866 140.631 360.745 141.126 360.673 141.452C360.6 141.778 360.552 141.946 360.528 141.958C360.323 142.562 359.943 143.105 359.388 143.587C358.833 144.07 358.182 144.317 357.434 144.329C356.879 144.329 356.462 144.19 356.185 143.913C355.98 143.708 355.877 143.46 355.877 143.171C355.877 142.833 355.986 142.568 356.203 142.375C356.42 142.182 356.668 142.079 356.945 142.067C357.198 142.067 357.379 142.139 357.488 142.284C357.596 142.429 357.657 142.568 357.669 142.7C357.669 143.086 357.5 143.4 357.162 143.641L357.253 143.66H357.524H357.542C358.17 143.66 358.682 143.099 359.08 141.977C359.117 141.868 359.436 140.613 360.039 138.213C360.643 135.812 360.962 134.527 360.999 134.358C361.011 134.286 361.017 134.147 361.017 133.942C361.017 133.797 361.011 133.688 360.999 133.616C360.987 133.544 360.95 133.477 360.89 133.417C360.83 133.357 360.739 133.32 360.619 133.308C360.305 133.308 359.973 133.471 359.623 133.797C359.406 134.014 359.225 134.261 359.08 134.539C358.936 134.816 358.821 135.052 358.737 135.245C358.652 135.438 358.598 135.546 358.574 135.57C358.55 135.595 358.435 135.607 358.23 135.607H357.922C357.85 135.534 357.814 135.48 357.814 135.444V135.498Z" fill="#F2777A"/>
<path d="M356.963 130.214L359.442 127.789L359.587 127.934C361.155 129.43 361.94 130.19 361.94 130.214L361.469 130.739C361.445 130.727 361.095 130.425 360.42 129.834L359.46 129.002L358.465 129.852C358.308 129.985 358.151 130.123 357.995 130.268C357.838 130.413 357.711 130.528 357.615 130.612L357.47 130.721C357.446 130.745 357.355 130.66 357.198 130.467L356.963 130.214Z" fill="#F2777A"/>
</g>
<path d="M241.365 249.16L225 247.5L237.096 236.353L236.384 243.705L241.365 249.16Z" fill="#FFF888"/>
<path d="M360 202.5L228.795 246.235" stroke="#FFF888" stroke-width="1.5"/>
<path d="M301.843 213.503H284.907V234.329H301.843V213.503Z" fill="black"/>
<g clip-path="url(#clip6_471_20997)">
<path d="M294.65 221.822C294.795 221.858 295.362 221.876 296.351 221.876C297.232 221.876 297.708 221.858 297.781 221.822H297.889V222.944H296.623L294.795 227.033C294.059 228.698 293.637 229.603 293.528 229.748C293.432 229.868 293.317 229.929 293.184 229.929C293.16 229.929 293.118 229.929 293.058 229.929C292.997 229.929 292.937 229.923 292.877 229.911H292.605C292.424 229.911 292.28 229.82 292.171 229.639C292.062 229.458 291.803 228.915 291.393 228.011C291.212 227.612 291.067 227.287 290.959 227.033L289.131 222.944H287.864V221.822H288.009C288.19 221.858 288.86 221.876 290.018 221.876C291.308 221.876 292.062 221.858 292.28 221.822H292.442V222.944H291.574L292.533 225.079C293.148 226.466 293.474 227.16 293.51 227.16C293.51 227.148 293.818 226.454 294.433 225.079C295.048 223.704 295.368 222.998 295.392 222.962C295.392 222.95 295.247 222.944 294.958 222.944H294.523V221.822H294.65Z" fill="#FFF888"/>
<path d="M295.184 216.701C295.184 216.604 295.214 216.52 295.274 216.448C295.335 216.375 295.425 216.339 295.546 216.339C295.63 216.339 295.703 216.369 295.763 216.429C295.823 216.478 295.884 216.592 295.944 216.773C296.064 217.22 296.312 217.563 296.686 217.805C296.818 217.889 296.885 217.998 296.885 218.13C296.885 218.239 296.867 218.311 296.831 218.348C296.794 218.384 296.71 218.438 296.577 218.51C296.058 218.776 295.606 219.156 295.22 219.65C295.196 219.675 295.166 219.711 295.13 219.759C295.093 219.807 295.063 219.843 295.039 219.868C295.015 219.892 294.985 219.904 294.949 219.904C294.912 219.904 294.87 219.91 294.822 219.922C294.737 219.922 294.659 219.892 294.587 219.831C294.514 219.771 294.472 219.681 294.46 219.56C294.46 219.331 294.744 218.975 295.311 218.492H292.216L289.122 218.474C288.965 218.366 288.887 218.251 288.887 218.13C288.887 218.046 288.965 217.925 289.122 217.769H295.618C295.329 217.31 295.184 216.954 295.184 216.701Z" fill="#FFF888"/>
</g>
</g>
<defs>
<clipPath id="clip0_471_20997">
<rect width="720" height="405" fill="white"/>
</clipPath>
<clipPath id="clip1_471_20997">
<rect width="720" height="405" fill="white"/>
</clipPath>
<clipPath id="clip2_471_20997">
<rect width="29.288" height="16.128" fill="white" transform="translate(277.352 153.283)"/>
</clipPath>
<clipPath id="clip3_471_20997">
<rect width="29.144" height="18.352" fill="white" transform="translate(167.985 215.977)"/>
</clipPath>
<clipPath id="clip4_471_20997">
<rect width="6.152" height="14.824" fill="white" transform="translate(415.539 193.154)"/>
</clipPath>
<clipPath id="clip5_471_20997">
<rect width="6.008" height="18.352" fill="white" transform="translate(356.456 125.978)"/>
</clipPath>
<clipPath id="clip6_471_20997">
<rect width="10.984" height="15.328" fill="white" transform="translate(287.394 214.529)"/>
</clipPath>
</defs>
</svg>
