<svg xmlns="http://www.w3.org/2000/svg" xmlns:xlink="http://www.w3.org/1999/xlink" width="720" height="480" viewBox="0 0 720 480">
  <defs>
    <clipPath id="a">
      <rect x="180" y="60" width="360" height="360" style="fill: none"/>
    </clipPath>
  </defs>
  <g>
    <rect width="720" height="480"/>
    <rect width="720" height="480" style="opacity: 0.4"/>
  </g>
  <g>
    <polygon points="298.018 249.82 298.018 304.132 388.018 304.132 298.018 249.82" style="fill: #fff;opacity: 0.5"/>
    <g>
      <path d="M378.277,212.259q.375-.024.849-.063t.713-.062c.158-.016.246-.025.262-.025.2,0,.3.067.3.2q0,.175-1.838,7.563t-1.863,7.512a2.166,2.166,0,0,0-.024.375c0,.7.232,1.05.7,1.05a1.067,1.067,0,0,0,.5-.225,5.671,5.671,0,0,0,1.026-2.4c.1-.334.183-.508.25-.525a.718.718,0,0,1,.25-.025h.1q.476,0,.475.2a2.152,2.152,0,0,1-.074.4,6.538,6.538,0,0,1-1.35,2.9,2.5,2.5,0,0,1-.8.525,2.683,2.683,0,0,1-.6.05,2.257,2.257,0,0,1-2.2-1.225,1.833,1.833,0,0,0-.125-.3c-.016-.016-.049-.008-.1.025l-.1.1a5.12,5.12,0,0,1-2.375,1.375,4.927,4.927,0,0,1-.625.025,3.316,3.316,0,0,1-2.724-1.375,4.866,4.866,0,0,1-.75-2.8,7.641,7.641,0,0,1,1.7-4.6,6.542,6.542,0,0,1,3.451-2.375,3.717,3.717,0,0,1,1.024-.15,2.4,2.4,0,0,1,2.1,1.05c.082.1.125.134.125.1q.024-.1.687-2.738t.688-2.762a.452.452,0,0,0-.15-.4,3.79,3.79,0,0,0-1-.125h-.526a.688.688,0,0,1-.162-.2,2.422,2.422,0,0,1,.063-.475c.083-.316.191-.475.324-.475.017,0,.1-.008.263-.025s.383-.033.674-.05Zm-2.151,9.05q-.55-1.974-1.875-1.975a2.311,2.311,0,0,0-1.762.85,5.922,5.922,0,0,0-1.163,1.95,19.914,19.914,0,0,0-1.024,4.1c0,.05,0,.142-.014.275s-.011.234-.011.3a2.478,2.478,0,0,0,.386,1.45,1.305,1.305,0,0,0,1.139.55q1.324,0,2.774-1.8l.2-.275q.225-.9.674-2.713T376.126,221.309Z" style="fill: #fc6255"/>
      <path d="M388.3,211.859c.017,0,.083,0,.2-.012s.217-.013.3-.013a2.731,2.731,0,0,1,2.1,1.225,7.236,7.236,0,0,1,.974,4.025,8.919,8.919,0,0,1-.051,1.075,18.28,18.28,0,0,1-1.724,6.225,14.076,14.076,0,0,1-1.987,3.1,7.481,7.481,0,0,1-2.238,1.875,3.364,3.364,0,0,1-1.349.35h-.176a2.387,2.387,0,0,1-1.824-.775,6.346,6.346,0,0,1-1.327-4.475,13.686,13.686,0,0,1,.25-2.525,16.416,16.416,0,0,1,3.776-8.175A5.338,5.338,0,0,1,388.3,211.859Zm.4,9.925.125-.425H383.95l-.024.175a21.135,21.135,0,0,0-.774,4.625,3.5,3.5,0,0,0,.6,2.35.938.938,0,0,0,.725.3q1,0,2.1-1.625A17.9,17.9,0,0,0,388.7,221.784Zm1.2-6.475q0-2.55-1.327-2.55a2.359,2.359,0,0,0-1.7,1.075,13.469,13.469,0,0,0-2.125,4.5,11.082,11.082,0,0,0-.5,1.85q1.226.025,2.425.025l2.425-.025a8.773,8.773,0,0,0,.45-1.95A16.4,16.4,0,0,0,389.9,215.309Z" style="fill: #fc6255"/>
    </g>
    <path d="M315.7,271.988l.2-.012c.117-.008.216-.013.3-.013a2.726,2.726,0,0,1,2.1,1.225,7.228,7.228,0,0,1,.975,4.025,9.194,9.194,0,0,1-.049,1.075,18.3,18.3,0,0,1-1.726,6.225,14.029,14.029,0,0,1-1.987,3.1,7.469,7.469,0,0,1-2.238,1.875,3.36,3.36,0,0,1-1.35.35h-.175a2.392,2.392,0,0,1-1.825-.775,6.356,6.356,0,0,1-1.324-4.475,13.523,13.523,0,0,1,.25-2.525,16.409,16.409,0,0,1,3.774-8.175A5.35,5.35,0,0,1,315.7,271.988Zm.4,9.925.125-.425h-4.875l-.026.175a21.169,21.169,0,0,0-.775,4.625,3.5,3.5,0,0,0,.6,2.35.936.936,0,0,0,.725.3q1,0,2.1-1.625A18,18,0,0,0,316.1,281.913Zm1.2-6.475q0-2.55-1.324-2.55a2.358,2.358,0,0,0-1.7,1.075,13.508,13.508,0,0,0-2.125,4.5,11.194,11.194,0,0,0-.5,1.85q1.224.025,2.425.025l2.425-.025a8.754,8.754,0,0,0,.45-1.95A16.375,16.375,0,0,0,317.3,275.438Z" style="fill: #fff933"/>
    <path d="M394.725,295.168q-.384-.231-.2-.792t.794-1.856a15.427,15.427,0,0,0,.9-2.363q2.173-7.714-3.187-10.936l-27.355-16.437q-6.82-4.1-3.228-14.461-7.461,8.038-13.839,4.206l-27.694-16.64a15.722,15.722,0,0,0-2.439-1.258,7.585,7.585,0,0,0-5.613.647,14.719,14.719,0,0,0-5.54,4.837c-.03.05-.129.191-.295.418a5.658,5.658,0,0,1-.372.476c-.083.091-.2.211-.349.362a.687.687,0,0,1-.893.137c-.55-.331,3.239-5.754,6.351-7.922s6.047-2.678,8.806-1.534a20.55,20.55,0,0,1,1.928,1.056l27.44,16.488a8.15,8.15,0,0,0,4.382,1.259,7.329,7.329,0,0,0,3.964-1.171,25.042,25.042,0,0,0,2.739-2.009,13.188,13.188,0,0,0,1.792-1.905c.091-.152.237-.368.433-.647a3.955,3.955,0,0,1,.534-.638c.16-.146.314-.3.463-.448a.963.963,0,0,1,.475-.286.582.582,0,0,1,.44.058.793.793,0,0,1,.343.362.839.839,0,0,1-.014.563,4.729,4.729,0,0,1-.267.695c-.108.227-.248.533-.42.914s-.327.735-.467,1.067a14.3,14.3,0,0,0-1.059,6.286,7.125,7.125,0,0,0,2.33,5.107,10.22,10.22,0,0,0,1.811,1.3l26.88,16.152a14.533,14.533,0,0,1,1.956,1.354,7.567,7.567,0,0,1,1.517,2.3,9.833,9.833,0,0,1,.9,4.058C399.211,288.532,395.145,295.42,394.725,295.168Z" style="fill: #fff"/>
    <g>
      <line x1="298.018" y1="249.82" x2="295.018" y2="249.82" style="fill: none;stroke: #58c4dd;stroke-miterlimit: 10"/>
      <line x1="289.122" y1="249.82" x2="185.948" y2="249.82" style="fill: none;stroke: #58c4dd;stroke-miterlimit: 10;stroke-dasharray: 5.895694255828857,5.895694255828857"/>
      <line x1="183" y1="249.82" x2="180" y2="249.82" style="fill: none;stroke: #58c4dd;stroke-miterlimit: 10"/>
    </g>
    <g>
      <line x1="388.018" y1="304.132" x2="385.018" y2="304.132" style="fill: none;stroke: #58c4dd;stroke-miterlimit: 10"/>
      <line x1="378.896" y1="304.132" x2="186.061" y2="304.132" style="fill: none;stroke: #58c4dd;stroke-miterlimit: 10;stroke-dasharray: 6.121763229370117,6.121763229370117"/>
      <line x1="183" y1="304.132" x2="180" y2="304.132" style="fill: none;stroke: #58c4dd;stroke-miterlimit: 10"/>
    </g>
    <line x1="298.018" y1="420" x2="298.018" y2="249.82" style="fill: none;stroke: #58c4dd;stroke-miterlimit: 10"/>
    <line x1="388.018" y1="420" x2="388.018" y2="304.132" style="fill: none;stroke: #58c4dd;stroke-miterlimit: 10"/>
    <path d="M313.432,259.122a17.992,17.992,0,0,1-15.414,8.7" style="fill: none;stroke: #fff933;stroke-miterlimit: 10"/>
    <g style="clip-path: url(#a)">
      <path d="M-1051.982-111.48c1491.169,0,2700,1208.832,2700,2700" style="fill: none;stroke: #fff;stroke-miterlimit: 10"/>
      <path d="M-1051.982-111.48c1491.169,0,2700,1208.832,2700,2700" style="fill: none;stroke: #fff;stroke-miterlimit: 10"/>
      <line x1="-1051.982" y1="2588.52" x2="388.018" y2="304.132" style="fill: none;stroke: #fc6255;stroke-miterlimit: 10"/>
      <line x1="388.018" y1="2588.52" x2="388.018" y2="304.132" style="fill: none;stroke: #58c4dd;stroke-miterlimit: 10"/>
      <line x1="298.018" y1="2588.52" x2="298.018" y2="249.82" style="fill: none;stroke: #58c4dd;stroke-miterlimit: 10"/>
      <line x1="298.018" y1="249.82" x2="-1051.982" y2="2588.52" style="fill: none;stroke: #fc6255;stroke-miterlimit: 10"/>
      <path d="M1648.018,2588.52c0-961.8-502.9-1806.141-1260.091-2284.415" style="fill: none;stroke: #fff933;stroke-miterlimit: 10"/>
    </g>
    <rect x="180" y="60" width="360" height="360" style="fill: none;stroke: #caa3e8;stroke-miterlimit: 10"/>
    <circle cx="387.927" cy="304.105" r="4" style="fill: #fff"/>
    <path d="M159.866,250.41c0,.153-.106.25-.321.294s-.584.09-1.111.14a9.394,9.394,0,0,0-1.383.226q-4.3,1.077-4.3,4.264V271.6q0,4.056-5.963,5.206,5.963,1.15,5.963,4.943V298.22a7.315,7.315,0,0,0,.1,1.4,3.921,3.921,0,0,0,1.914,2.282,8.688,8.688,0,0,0,3.889,1.151c.032,0,.128.006.283.019s.268.025.333.038.158.032.272.057a.408.408,0,0,1,.247.138.348.348,0,0,1,.074.217c0,.327-3.667.1-5.589-.7s-3.006-1.939-3.251-3.445a9.652,9.652,0,0,1-.048-1.119V281.94a3.9,3.9,0,0,0-.654-2.245,3.971,3.971,0,0,0-1.692-1.425,14.512,14.512,0,0,0-1.741-.669,7.8,7.8,0,0,0-1.42-.283c-.1,0-.243-.007-.432-.02a2.416,2.416,0,0,1-.457-.065c-.115-.032-.23-.06-.345-.085a.552.552,0,0,1-.272-.132.288.288,0,0,1-.1-.208.388.388,0,0,1,.074-.245.486.486,0,0,1,.273-.142,2.809,2.809,0,0,1,.407-.065c.139-.013.325-.032.555-.057s.444-.05.642-.076a8.352,8.352,0,0,0,3.3-1.188,3.641,3.641,0,0,0,1.765-2.358,4.8,4.8,0,0,0,.1-1.132V255.56a6.825,6.825,0,0,1,.085-1.21,3.718,3.718,0,0,1,.66-1.265,5.268,5.268,0,0,1,1.674-1.46C155.423,250.192,159.866,250.161,159.866,250.41Z" style="fill: #fff"/>
    <path d="M159.866,250.41c0,.153-.106.25-.321.294s-.584.09-1.111.14a9.394,9.394,0,0,0-1.383.226q-4.3,1.077-4.3,4.264V271.6q0,4.056-5.963,5.206,5.963,1.15,5.963,4.943V298.22a7.315,7.315,0,0,0,.1,1.4,3.921,3.921,0,0,0,1.914,2.282,8.688,8.688,0,0,0,3.889,1.151c.032,0,.128.006.283.019s.268.025.333.038.158.032.272.057a.408.408,0,0,1,.247.138.348.348,0,0,1,.074.217c0,.327-3.667.1-5.589-.7s-3.006-1.939-3.251-3.445a9.652,9.652,0,0,1-.048-1.119V281.94a3.9,3.9,0,0,0-.654-2.245,3.971,3.971,0,0,0-1.692-1.425,14.512,14.512,0,0,0-1.741-.669,7.8,7.8,0,0,0-1.42-.283c-.1,0-.243-.007-.432-.02a2.416,2.416,0,0,1-.457-.065c-.115-.032-.23-.06-.345-.085a.552.552,0,0,1-.272-.132.288.288,0,0,1-.1-.208.388.388,0,0,1,.074-.245.486.486,0,0,1,.273-.142,2.809,2.809,0,0,1,.407-.065c.139-.013.325-.032.555-.057s.444-.05.642-.076a8.352,8.352,0,0,0,3.3-1.188,3.641,3.641,0,0,0,1.765-2.358,4.8,4.8,0,0,0,.1-1.132V255.56a6.825,6.825,0,0,1,.085-1.21,3.718,3.718,0,0,1,.66-1.265,5.268,5.268,0,0,1,1.674-1.46C155.423,250.192,159.866,250.161,159.866,250.41Z" style="fill: #f8f8f8"/>
    <g>
      <path d="M45.157,267.524c.25-.016.534-.037.85-.062s.555-.046.713-.063.246-.025.262-.025c.2,0,.3.067.3.2q0,.174-1.837,7.562t-1.863,7.512a2.166,2.166,0,0,0-.024.375c0,.7.232,1.051.7,1.051a1.089,1.089,0,0,0,.5-.226,5.674,5.674,0,0,0,1.025-2.4c.1-.334.184-.509.25-.525a.717.717,0,0,1,.25-.026h.1c.316,0,.475.067.475.2a2.084,2.084,0,0,1-.075.4,6.522,6.522,0,0,1-1.349,2.9,2.5,2.5,0,0,1-.8.526,2.7,2.7,0,0,1-.6.049,2.256,2.256,0,0,1-2.2-1.225,1.778,1.778,0,0,0-.125-.3c-.016-.017-.05-.009-.1.024l-.1.1a5.12,5.12,0,0,1-2.375,1.375,5.019,5.019,0,0,1-.625.024,3.318,3.318,0,0,1-2.725-1.375,4.862,4.862,0,0,1-.75-2.8,7.638,7.638,0,0,1,1.7-4.6,6.531,6.531,0,0,1,3.451-2.375,3.674,3.674,0,0,1,1.024-.15,2.4,2.4,0,0,1,2.1,1.049c.082.1.125.134.125.1q.023-.1.687-2.738t.688-2.762a.448.448,0,0,0-.151-.4,3.692,3.692,0,0,0-1-.125h-.525a.668.668,0,0,1-.162-.2,2.472,2.472,0,0,1,.062-.475c.083-.316.192-.475.325-.475.017,0,.1-.008.263-.025s.383-.033.674-.049Zm-2.15,9.051q-.55-1.976-1.875-1.976a2.309,2.309,0,0,0-1.762.851,5.907,5.907,0,0,0-1.163,1.949,19.93,19.93,0,0,0-1.024,4.1c0,.051-.005.142-.014.275s-.012.234-.012.3a2.465,2.465,0,0,0,.387,1.449,1.306,1.306,0,0,0,1.139.551q1.325,0,2.774-1.8l.2-.275q.227-.9.675-2.712T43.007,276.575Z" style="fill: #f8f8f8"/>
      <path d="M55.532,290.749q0,.225-.451.225h-.324c-.117-.1-.35-.3-.7-.6q-4.5-4.1-4.5-11.9a20.139,20.139,0,0,1,.725-5.575,13.478,13.478,0,0,1,3.775-6.324c.116-.1.25-.213.4-.338s.25-.213.3-.263h.324a.581.581,0,0,1,.375.076.21.21,0,0,1,.076.15c0,.066-.091.191-.275.375q-3.876,4.1-3.875,11.9t3.875,11.9C55.441,290.557,55.532,290.682,55.532,290.749Z" style="fill: #f8f8f8"/>
      <path d="M61.682,274.374q-2.3,0-2.3,1.625a1.13,1.13,0,0,0,.05.426,1.493,1.493,0,0,0,.774.862,7.607,7.607,0,0,0,1.7.487,6.719,6.719,0,0,1,1.95.551,3.622,3.622,0,0,1,2.025,2.475,4.614,4.614,0,0,1,.025.6,4.038,4.038,0,0,1-.35,1.725,3.767,3.767,0,0,1-3.675,1.85,3.977,3.977,0,0,1-2.6-.9l-.2.174-.224.225c-.1.1-.2.192-.3.275l-.275.25h-.2a.449.449,0,0,1-.324-.15v-1.975q0-1.625.012-1.875c.009-.166.047-.266.113-.3a1.569,1.569,0,0,1,.4-.025.841.841,0,0,1,.387.049.822.822,0,0,1,.138.351,5.832,5.832,0,0,0,.649,1.725,2.787,2.787,0,0,0,2.426,1.275q2.424,0,2.425-1.951a1.586,1.586,0,0,0-.45-1.174,2.182,2.182,0,0,0-1.05-.676q-.426-.1-1.2-.275a8.573,8.573,0,0,1-1.9-.525,3.119,3.119,0,0,1-1.924-2.325,1.8,1.8,0,0,1-.025-.375q0-2.874,3.525-3.224a1.584,1.584,0,0,1,.6,0,3.868,3.868,0,0,1,1.75.375l.375.2.225-.174a6.134,6.134,0,0,1,.55-.426h.2a.456.456,0,0,1,.325.151v3.3l-.15.15h-.7a.433.433,0,0,1-.149-.3,2.34,2.34,0,0,0-.7-1.8A2.722,2.722,0,0,0,61.682,274.374Z" style="fill: #f8f8f8"/>
      <path d="M72.956,284.724a21.56,21.56,0,0,0-2.6-.075,26.7,26.7,0,0,0-2.725.075h-.2v-1.149h.4a8.63,8.63,0,0,0,1.226-.076.532.532,0,0,0,.3-.275q.024-.05.025-3.625a34.5,34.5,0,0,0-.1-4q-.2-.5-1.475-.5h-.275v-.575q0-.574.049-.574l.25-.025q.251-.026.7-.051l.9-.049q.425-.026.9-.063t.726-.062c.167-.017.259-.025.274-.025h.076v9.5a.574.574,0,0,0,.3.312,3.943,3.943,0,0,0,.875.088h.576v1.149ZM70.057,268a1.6,1.6,0,0,1,1.024.438,1.407,1.407,0,0,1,.4,1.062,1.338,1.338,0,0,1-.675,1.275,1.366,1.366,0,0,1-.8.225,1.407,1.407,0,0,1-.825-.225,1.338,1.338,0,0,1-.675-1.275,1.417,1.417,0,0,1,.438-1.1A1.586,1.586,0,0,1,70.057,268Z" style="fill: #f8f8f8"/>
      <path d="M78.433,283.224c.133.234.523.351,1.174.351h.75v1.149h-.2a25.55,25.55,0,0,0-2.8-.075,25.5,25.5,0,0,0-2.8.075h-.2v-1.149h.75q.975,0,1.175-.351v-.774c0-.234,0-.5.012-.788s.014-.616.014-.975v-1.038c0-.516-.006-1.07-.014-1.662s-.012-1.079-.012-1.463v-.574a.827.827,0,0,0-.363-.638,2.921,2.921,0,0,0-1.111-.213h-.451v-.575q0-.574.049-.574l.251-.025c.166-.017.405-.034.713-.051l.912-.049c.284-.017.582-.038.9-.063s.556-.046.724-.062.258-.025.276-.025h.074v1a6.707,6.707,0,0,0,.025.949l.026-.025a4.393,4.393,0,0,1,3.824-1.924,2.918,2.918,0,0,1,3.176,2.824q.022.175.023,3.475,0,3.2.026,3.25a.529.529,0,0,0,.3.275,8.6,8.6,0,0,0,1.225.076h.4v1.149h-.2a25.525,25.525,0,0,0-2.8-.075,25.55,25.55,0,0,0-2.8.075h-.2v-1.149h.6q1.325,0,1.324-.4.027-.051.026-3.451-.024-3.375-.049-3.575a2.209,2.209,0,0,0-.563-1.162,1.686,1.686,0,0,0-1.187-.363,2.717,2.717,0,0,0-1.977.85,3.583,3.583,0,0,0-1.023,2.2v.462c0,.292-.006.663-.014,1.112s-.012.875-.012,1.275v.788q0,.412.012.738c.008.216.014.412.014.587v.587Z" style="fill: #f8f8f8"/>
      <path d="M95.956,290.749q0,.225-.449.225h-.326c-.115-.1-.35-.3-.7-.6q-4.5-4.1-4.5-11.9a20.215,20.215,0,0,1,.724-5.575,13.5,13.5,0,0,1,3.776-6.324c.117-.1.25-.213.4-.338s.25-.213.3-.263h.326a.589.589,0,0,1,.375.076.215.215,0,0,1,.074.15q0,.1-.275.375-3.873,4.1-3.875,11.9t3.875,11.9Q95.956,290.649,95.956,290.749Z" style="fill: #f8f8f8"/>
      <path d="M105.331,267.124c.016,0,.084,0,.2-.012s.216-.013.3-.013a2.725,2.725,0,0,1,2.1,1.226,7.222,7.222,0,0,1,.975,4.024,9.213,9.213,0,0,1-.049,1.076,18.327,18.327,0,0,1-1.725,6.224,14.068,14.068,0,0,1-1.988,3.1,7.457,7.457,0,0,1-2.238,1.875,3.36,3.36,0,0,1-1.35.35h-.174a2.4,2.4,0,0,1-1.826-.774,6.36,6.36,0,0,1-1.324-4.476,13.513,13.513,0,0,1,.25-2.524,16.4,16.4,0,0,1,3.775-8.176A5.345,5.345,0,0,1,105.331,267.124Zm.4,9.926.125-.426h-4.875l-.026.176a21.151,21.151,0,0,0-.775,4.625,3.5,3.5,0,0,0,.6,2.349.938.938,0,0,0,.726.3q1,0,2.1-1.625A18.013,18.013,0,0,0,105.732,277.05Zm1.2-6.475q0-2.551-1.324-2.551a2.357,2.357,0,0,0-1.7,1.075,13.488,13.488,0,0,0-2.125,4.5,11.166,11.166,0,0,0-.5,1.851q1.224.024,2.425.024l2.426-.024a8.966,8.966,0,0,0,.449-1.951A16.375,16.375,0,0,0,106.931,270.575Z" style="fill: #fff933"/>
      <path d="M110.581,266l.1-.025h.551l.7.6q4.5,4.1,4.5,11.9a19.663,19.663,0,0,1-.725,5.55,13.468,13.468,0,0,1-3.775,6.35c-.115.1-.25.213-.4.338s-.25.213-.3.262h-.3a.951.951,0,0,1-.387-.049c-.058-.034-.088-.118-.088-.25.018-.017.11-.125.276-.326q3.876-4.024,3.875-11.875T110.732,266.6q-.249-.3-.276-.325A.294.294,0,0,1,110.581,266Z" style="fill: #f8f8f8"/>
      <path d="M120.306,266l.1-.025h.55l.7.6q4.5,4.1,4.5,11.9a19.7,19.7,0,0,1-.725,5.55,13.476,13.476,0,0,1-3.775,6.35c-.116.1-.25.213-.4.338s-.25.213-.3.262h-.3a.944.944,0,0,1-.387-.049c-.059-.034-.088-.118-.088-.25.017-.017.109-.125.275-.326q3.876-4.024,3.875-11.875T120.456,266.6c-.166-.2-.258-.308-.275-.325A.294.294,0,0,1,120.306,266Z" style="fill: #f8f8f8"/>
    </g>
  </g>
</svg>
