<svg xmlns="http://www.w3.org/2000/svg" xmlns:xlink="http://www.w3.org/1999/xlink" width="960" height="480" viewBox="0 0 960 480"><defs><style>.a,.b,.c,.d,.f,.g,.h,.i,.k,.l,.v,.w,.x,.z{fill:none;}.b,.c,.d{stroke:#a6a6a6;}.ab,.b,.c,.d,.f,.g,.h,.i,.k,.l,.o,.v,.w,.x,.z{stroke-miterlimit:10;}.c{stroke-dasharray:5.896 5.896;}.d{stroke-dasharray:6.122 6.122;}.e{clip-path:url(#a);}.f,.i{stroke:#fff;}.g{stroke:#8f8f8f;}.h{stroke:#e5e5e5;}.i,.v,.x,.z{stroke-width:1.5px;}.aa,.j{fill:#fff;}.k{stroke:#fc6255;}.l,.v{stroke:#fff933;}.m{clip-path:url(#b);}.n{clip-path:url(#c);}.o{fill:#5cd0b3;}.ab,.o,.z{stroke:#58c4dd;}.p{clip-path:url(#d);}.q{fill:#f8f8f8;}.r{fill:#e5e5e5;}.ac,.s{fill:#58c4dd;}.aa,.s,.u{opacity:0.5;}.t,.u{fill:#fff933;}.w,.x{stroke:#b6b6b6;}.y{fill:#8f8f8f;}</style><clipPath id="a"><rect class="a" x="115" y="60" width="360" height="360"/></clipPath><clipPath id="b"><rect class="a" x="115" y="-1000.776" width="360" height="360"/></clipPath><clipPath id="c"><rect class="a" x="115" y="-1623.689" width="360" height="360"/></clipPath><clipPath id="d"><rect class="a" x="115" y="-463.872" width="360" height="360"/></clipPath></defs><rect width="960" height="480"/><line class="b" x1="233.018" y1="249.82" x2="230.018" y2="249.82"/><line class="c" x1="224.123" y1="249.82" x2="120.948" y2="249.82"/><line class="b" x1="118" y1="249.82" x2="115" y2="249.82"/><line class="b" x1="323.018" y1="304.132" x2="320.018" y2="304.132"/><line class="d" x1="313.897" y1="304.132" x2="121.061" y2="304.132"/><line class="b" x1="118" y1="304.132" x2="115" y2="304.132"/><line class="b" x1="233.018" y1="420" x2="233.018" y2="249.82"/><line class="b" x1="323.018" y1="420" x2="323.018" y2="304.132"/><g class="e"><path class="f" d="M-1116.982-111.48c1491.169,0,2700,1208.832,2700,2700"/><path class="f" d="M115,185.337A2700.56,2700.56,0,0,1,475,407.558"/><line class="g" x1="250.009" y1="419.953" x2="323.018" y2="304.132"/><line class="b" x1="323.018" y1="419.974" x2="323.018" y2="304.132"/><line class="b" x1="233.018" y1="420" x2="233.018" y2="249.82"/><line class="g" x1="233.018" y1="249.82" x2="134.783" y2="420"/><path class="h" d="M473.993,406.822Q400.307,353,322.927,304.105"/></g><line class="i" x1="544.151" y1="239.974" x2="886.046" y2="239.974"/><path class="j" d="M535.1,239.974c4.259,1.581,9.545,4.278,12.821,7.134l-2.581-7.134,2.581-7.132C544.644,235.7,539.358,238.4,535.1,239.974Z"/><path class="j" d="M895.1,239.974c-4.26,1.581-9.545,4.278-12.821,7.134l2.58-7.134-2.58-7.132C885.554,235.7,890.839,238.4,895.1,239.974Z"/><line class="i" x1="715.099" y1="410.922" x2="715.099" y2="69.027"/><path class="j" d="M715.1,419.974c1.58-4.259,4.277-9.545,7.133-12.821l-7.133,2.581-7.133-2.581C710.823,410.429,713.52,415.715,715.1,419.974Z"/><path class="j" d="M715.1,59.974c1.58,4.26,4.277,9.545,7.133,12.821l-7.133-2.58-7.133,2.58C710.823,69.519,713.52,64.234,715.1,59.974Z"/><circle class="f" cx="715.099" cy="239.974" r="150"/><line class="f" x1="640.099" y1="244.974" x2="640.099" y2="234.974"/><line class="f" x1="790.099" y1="234.974" x2="790.099" y2="244.974"/><line class="f" x1="710.099" y1="164.974" x2="720.099" y2="164.974"/><line class="f" x1="720.099" y1="314.974" x2="710.099" y2="314.974"/><circle class="f" cx="715.099" cy="239.974" r="150"/><line class="f" x1="640.099" y1="244.974" x2="640.099" y2="234.974"/><line class="f" x1="790.099" y1="234.974" x2="790.099" y2="244.974"/><line class="f" x1="710.099" y1="89.974" x2="720.099" y2="89.974"/><line class="f" x1="565.099" y1="244.974" x2="565.099" y2="234.974"/><line class="f" x1="565.099" y1="244.974" x2="565.099" y2="234.974"/><line class="k" x1="715.099" y1="239.974" x2="795.099" y2="113.064"/><line class="b" x1="795.099" y1="239.974" x2="795.099" y2="113.064"/><line class="b" x1="790.099" y1="239.974" x2="790.099" y2="110.046"/><line class="g" x1="790.099" y1="110.046" x2="715.099" y2="239.974"/><path class="j" d="M911.549,239.928a.421.421,0,0,1-.15-.275,4.764,4.764,0,0,1,.775-1.725,4.291,4.291,0,0,1,2.951-2.05,4.13,4.13,0,0,1,.524-.05,3.039,3.039,0,0,1,1.613.45,2.7,2.7,0,0,1,1.063,1.125c.217-.283.349-.459.4-.525a2.766,2.766,0,0,1,2.125-1.05,2.365,2.365,0,0,1,1.662.587,1.882,1.882,0,0,1,.637,1.438,1.96,1.96,0,0,1-.438,1.3,1.435,1.435,0,0,1-1.162.525,1.1,1.1,0,0,1-.775-.275.939.939,0,0,1-.3-.725,1.589,1.589,0,0,1,1.25-1.575,1.029,1.029,0,0,0-.275-.175,1.425,1.425,0,0,0-.725-.15,1.643,1.643,0,0,0-.475.05,2.615,2.615,0,0,0-1.4,1.65q-.077.2-.725,2.788t-.7,2.912a3.892,3.892,0,0,0-.074.75,1.277,1.277,0,0,0,.35.95,1.249,1.249,0,0,0,.925.35,2.575,2.575,0,0,0,1.9-.887,4.61,4.61,0,0,0,1.15-1.963c.051-.166.1-.263.151-.287a1.208,1.208,0,0,1,.4-.038q.476,0,.475.2c0,.017-.018.108-.051.275a5.427,5.427,0,0,1-1.75,2.7,3.938,3.938,0,0,1-2.475.925,2.882,2.882,0,0,1-2.65-1.575,3.5,3.5,0,0,1-1.85,1.5,3.222,3.222,0,0,1-.65.05,2.179,2.179,0,0,1-2.049-1.025,1.926,1.926,0,0,1-.25-1,1.9,1.9,0,0,1,.449-1.275,1.45,1.45,0,0,1,1.151-.525.938.938,0,0,1,1.074,1.05,1.41,1.41,0,0,1-.875,1.35l-.125.063-.125.062a.19.19,0,0,1-.074.025l-.075.025q0,.075.375.225a1.661,1.661,0,0,0,.649.125,1.846,1.846,0,0,0,1.551-1.125,18.881,18.881,0,0,0,.974-3.25q.15-.575.326-1.275t.262-1.075c.059-.25.1-.4.113-.45a6.136,6.136,0,0,0,.125-.975,1.34,1.34,0,0,0-.326-.95,1.167,1.167,0,0,0-.9-.35,2.609,2.609,0,0,0-1.949.863,4.736,4.736,0,0,0-1.151,1.987c-.033.15-.07.237-.112.263a1.243,1.243,0,0,1-.413.037Z"/><path class="j" d="M720.649,26.837a.971.971,0,0,1,.6.188.605.605,0,0,1,.25.512q0,.326-1.225,5.25t-1.4,5.4a6.616,6.616,0,0,1-1.288,2.262,6.688,6.688,0,0,1-2.062,1.637,5.844,5.844,0,0,1-2.525.65,2.691,2.691,0,0,1-2.575-1.2,1.7,1.7,0,0,1-.25-1,1.794,1.794,0,0,1,.475-1.325,1.63,1.63,0,0,1,1.1-.475q1.1,0,1.1,1.05a1.415,1.415,0,0,1-.875,1.351c-.034.015-.075.037-.125.062s-.092.045-.125.063a.22.22,0,0,1-.075.024l-.074.026c.049.1.224.208.524.325a2.286,2.286,0,0,0,.8.149h.2a3.149,3.149,0,0,0,.65-.05,3.8,3.8,0,0,0,1.8-1.275,6.927,6.927,0,0,0,1.3-2.4,5.516,5.516,0,0,0,.275-.976c0-.016-.016-.012-.049.013l-.151.112a3.4,3.4,0,0,1-2.05.676,3.476,3.476,0,0,1-2.1-.6,2.781,2.781,0,0,1-1.074-1.724,6.766,6.766,0,0,1-.026-.776,6.4,6.4,0,0,1,.05-.925,22.882,22.882,0,0,1,1.15-3.674,7.168,7.168,0,0,0,.55-2.05,1.327,1.327,0,0,0-.062-.488c-.042-.091-.138-.137-.287-.137h-.125a1.557,1.557,0,0,0-1.1.524,5.236,5.236,0,0,0-1.225,2.4.275.275,0,0,1-.025.087.237.237,0,0,1-.038.075l-.037.038a.127.127,0,0,1-.088.024h-.662c-.1-.1-.15-.175-.15-.224a1.83,1.83,0,0,1,.076-.351,5.969,5.969,0,0,1,1.574-2.725,2.576,2.576,0,0,1,1.775-.8,2.375,2.375,0,0,1,1.675.575,2.062,2.062,0,0,1,.625,1.6,3.4,3.4,0,0,1-.075.526,5.662,5.662,0,0,1-.375,1.074,23.841,23.841,0,0,0-1.225,4.075,4.905,4.905,0,0,0-.025.575,2.841,2.841,0,0,0,.3,1.451,1.174,1.174,0,0,0,1.1.5,2.132,2.132,0,0,0,1.088-.3,3.366,3.366,0,0,0,.775-.588q.261-.286.663-.787c0-.017.041-.188.125-.513s.2-.812.361-1.463.313-1.266.463-1.849q.95-3.75,1.051-3.925A1.109,1.109,0,0,1,720.649,26.837Z"/><path class="l" d="M795.094,113.062A149.894,149.894,0,0,1,865.1,239.974"/><g class="m"><path class="f" d="M-1116.982-1172.256c1491.169,0,2700,1208.832,2700,2700"/></g><g class="n"><path class="f" d="M-1116.982-1795.168c1491.169,0,2700,1208.831,2700,2700"/></g><line class="o" x1="922.009" y1="193.064" x2="795.099" y2="113.064"/><line class="o" x1="795.099" y1="113.062" x2="668.188" y2="33.062"/><g class="p"><path class="f" d="M-1116.982-635.352c1491.169,0,2700,1208.831,2700,2700"/></g><path class="q" d="M115,250.41c0,.153-.107.25-.321.294s-.584.09-1.111.14a9.394,9.394,0,0,0-1.383.226q-4.3,1.077-4.3,4.264V271.6q0,4.056-5.963,5.206,5.962,1.15,5.963,4.943V298.22a7.417,7.417,0,0,0,.1,1.4A3.926,3.926,0,0,0,109.9,301.9a8.687,8.687,0,0,0,3.888,1.151c.033,0,.128.006.284.019s.268.025.333.038.157.032.272.057a.408.408,0,0,1,.247.138.348.348,0,0,1,.074.217c0,.327-3.667.1-5.59-.7s-3-1.939-3.25-3.445a9.6,9.6,0,0,1-.049-1.119V281.94a3.894,3.894,0,0,0-.654-2.245,3.959,3.959,0,0,0-1.692-1.425,14.442,14.442,0,0,0-1.74-.669,7.813,7.813,0,0,0-1.42-.283c-.1,0-.243-.007-.432-.02a2.416,2.416,0,0,1-.457-.065c-.115-.032-.231-.06-.345-.085a.552.552,0,0,1-.272-.132.285.285,0,0,1-.1-.208.382.382,0,0,1,.074-.245.483.483,0,0,1,.272-.142,2.809,2.809,0,0,1,.407-.065q.21-.019.556-.057c.231-.026.444-.05.642-.076a8.352,8.352,0,0,0,3.3-1.188,3.641,3.641,0,0,0,1.765-2.358,4.807,4.807,0,0,0,.1-1.132V255.56a6.81,6.81,0,0,1,.086-1.21,3.718,3.718,0,0,1,.66-1.265,5.246,5.246,0,0,1,1.674-1.46C110.557,250.192,115,250.161,115,250.41Z"/><path class="q" d="M16.581,265.968c.229-.015.49-.034.781-.057s.51-.042.656-.057.225-.024.24-.024c.185,0,.277.062.277.185q0,.161-1.691,6.957t-1.713,6.911a1.947,1.947,0,0,0-.023.346q0,.965.644.965a.981.981,0,0,0,.459-.207,5.2,5.2,0,0,0,.944-2.208c.092-.306.168-.467.23-.483a.7.7,0,0,1,.23-.022h.093q.437,0,.436.183a1.833,1.833,0,0,1-.069.368,6.005,6.005,0,0,1-1.242,2.668,2.276,2.276,0,0,1-.737.484,2.48,2.48,0,0,1-.551.046,2.076,2.076,0,0,1-2.024-1.127,1.86,1.86,0,0,0-.115-.277c-.015-.014-.046-.008-.092.024l-.093.092A4.7,4.7,0,0,1,11.037,282a4.266,4.266,0,0,1-.576.024,3.048,3.048,0,0,1-2.5-1.266,4.464,4.464,0,0,1-.692-2.575,7.03,7.03,0,0,1,1.565-4.233A6.015,6.015,0,0,1,12,271.765a3.4,3.4,0,0,1,.944-.139,2.2,2.2,0,0,1,1.931.966c.078.093.116.123.116.093q.022-.093.633-2.519t.632-2.542a.419.419,0,0,0-.138-.368,3.4,3.4,0,0,0-.92-.114h-.483a.675.675,0,0,1-.15-.185,2.3,2.3,0,0,1,.059-.436c.076-.291.175-.438.3-.438.015,0,.1-.007.242-.022s.352-.032.62-.046ZM14.6,274.294q-.507-1.816-1.725-1.816a2.125,2.125,0,0,0-1.622.781,5.448,5.448,0,0,0-1.069,1.795,18.283,18.283,0,0,0-.943,3.771c0,.046,0,.131-.012.253s-.012.215-.012.277a2.262,2.262,0,0,0,.358,1.334,1.2,1.2,0,0,0,1.047.5,3.566,3.566,0,0,0,2.552-1.656l.184-.253q.209-.827.621-2.5T14.6,274.294Z"/><path class="q" d="M26.126,287.335c0,.139-.139.207-.415.207h-.3c-.108-.092-.322-.275-.644-.552q-4.14-3.771-4.141-10.948a18.538,18.538,0,0,1,.668-5.129,12.417,12.417,0,0,1,3.473-5.819l.367-.31c.139-.115.231-.2.277-.242h.3a.547.547,0,0,1,.344.069.2.2,0,0,1,.071.138c0,.062-.085.177-.254.345q-3.565,3.774-3.565,10.948t3.565,10.948C26.041,287.159,26.126,287.274,26.126,287.335Z"/><path class="q" d="M31.783,272.271q-2.117,0-2.116,1.5a1.062,1.062,0,0,0,.045.39,1.374,1.374,0,0,0,.714.794,7,7,0,0,0,1.564.449,6.248,6.248,0,0,1,1.794.5,3.332,3.332,0,0,1,1.863,2.278,4.271,4.271,0,0,1,.022.552,3.719,3.719,0,0,1-.321,1.586,3.466,3.466,0,0,1-3.381,1.7,3.658,3.658,0,0,1-2.392-.829l-.184.162-.207.207c-.092.091-.184.175-.276.253l-.253.229h-.184a.422.422,0,0,1-.3-.138V280.09q0-1.494.012-1.725c.007-.153.042-.245.1-.276a1.5,1.5,0,0,1,.368-.022.779.779,0,0,1,.356.045.747.747,0,0,1,.126.323,5.333,5.333,0,0,0,.6,1.587,2.557,2.557,0,0,0,2.231,1.172q2.231,0,2.231-1.793a1.469,1.469,0,0,0-.414-1.082,2.006,2.006,0,0,0-.967-.621c-.26-.061-.629-.145-1.1-.253a7.891,7.891,0,0,1-1.748-.483,2.87,2.87,0,0,1-1.77-2.139,1.6,1.6,0,0,1-.024-.344q0-2.646,3.244-2.967a1.468,1.468,0,0,1,.552,0,3.545,3.545,0,0,1,1.61.345l.344.183.207-.161a6.05,6.05,0,0,1,.507-.391h.184a.418.418,0,0,1,.3.138v3.036l-.139.138h-.644a.4.4,0,0,1-.137-.275,2.15,2.15,0,0,0-.645-1.657A2.5,2.5,0,0,0,31.783,272.271Z"/><path class="q" d="M42.155,281.792a19.755,19.755,0,0,0-2.392-.068,24.42,24.42,0,0,0-2.507.068h-.183v-1.057h.367a8.05,8.05,0,0,0,1.127-.07.492.492,0,0,0,.276-.253q.022-.045.023-3.335a31.9,31.9,0,0,0-.092-3.679c-.123-.307-.574-.46-1.357-.46h-.252v-.53c0-.352.014-.529.045-.529l.23-.022q.23-.024.645-.046c.275-.016.551-.032.828-.046.259-.016.536-.035.828-.058s.513-.042.666-.057.238-.024.254-.024h.068v8.74a.526.526,0,0,0,.275.287,3.56,3.56,0,0,0,.806.082h.529v1.057ZM39.487,266.4a1.485,1.485,0,0,1,.943.4,1.3,1.3,0,0,1,.368.977,1.23,1.23,0,0,1-.621,1.173,1.254,1.254,0,0,1-.736.207,1.3,1.3,0,0,1-.759-.207,1.23,1.23,0,0,1-.621-1.173,1.306,1.306,0,0,1,.4-1.011A1.458,1.458,0,0,1,39.487,266.4Z"/><path class="q" d="M47.192,280.412c.123.215.482.323,1.082.323h.689v1.057H48.78a23.4,23.4,0,0,0-2.576-.068,23.416,23.416,0,0,0-2.577.068h-.183v-1.057h.689q.9,0,1.081-.323V279.7c0-.214,0-.456.011-.724s.012-.568.012-.9v-.955q0-.711-.012-1.529t-.011-1.346v-.529a.761.761,0,0,0-.333-.586,2.664,2.664,0,0,0-1.024-.195h-.413v-.53c0-.352.015-.529.045-.529l.23-.022c.153-.016.371-.031.656-.046s.563-.032.839-.046.537-.035.828-.058.513-.042.668-.057.236-.024.251-.024h.071v.92a7.088,7.088,0,0,0,.021.874l.024-.022a4.047,4.047,0,0,1,3.519-1.772,2.686,2.686,0,0,1,2.922,2.6q.021.161.022,3.2,0,2.944.023,2.99a.49.49,0,0,0,.275.253,8.091,8.091,0,0,0,1.127.07h.37v1.057h-.184a23.4,23.4,0,0,0-2.576-.068,23.391,23.391,0,0,0-2.576.068h-.184v-1.057h.551c.812,0,1.219-.124,1.219-.369q.023-.045.023-3.173-.024-3.106-.045-3.29a2.033,2.033,0,0,0-.518-1.069,1.553,1.553,0,0,0-1.093-.334,2.5,2.5,0,0,0-1.817.782,3.3,3.3,0,0,0-.943,2.025v.425q0,.4-.012,1.023c-.008.414-.012.806-.012,1.174v.724c0,.252,0,.479.012.678s.012.38.012.541v.54Z"/><path class="q" d="M63.316,287.335c0,.139-.138.207-.414.207h-.3c-.107-.092-.322-.275-.644-.552q-4.14-3.771-4.14-10.948a18.539,18.539,0,0,1,.667-5.129,12.409,12.409,0,0,1,3.473-5.819q.16-.138.368-.31c.137-.115.23-.2.276-.242h.3a.555.555,0,0,1,.345.069.2.2,0,0,1,.069.138c0,.062-.085.177-.253.345Q59.5,268.868,59.5,276.042t3.565,10.948C63.231,287.159,63.316,287.274,63.316,287.335Z"/><path class="r" d="M71.94,265.6c.016,0,.076,0,.185-.012s.2-.012.275-.012a2.507,2.507,0,0,1,1.932,1.127,6.651,6.651,0,0,1,.9,3.7,8.527,8.527,0,0,1-.046.99,16.806,16.806,0,0,1-1.587,5.726,12.892,12.892,0,0,1-1.829,2.853A6.9,6.9,0,0,1,69.71,281.7a3.106,3.106,0,0,1-1.243.323h-.161a2.2,2.2,0,0,1-1.679-.713,5.847,5.847,0,0,1-1.219-4.117,12.582,12.582,0,0,1,.23-2.324,15.1,15.1,0,0,1,3.473-7.52A4.906,4.906,0,0,1,71.94,265.6Zm.368,9.131.115-.392H67.938l-.023.161a19.516,19.516,0,0,0-.713,4.255,3.215,3.215,0,0,0,.552,2.162.857.857,0,0,0,.667.276q.919,0,1.932-1.5A16.493,16.493,0,0,0,72.308,274.732Zm1.1-5.957q0-2.347-1.219-2.346a2.167,2.167,0,0,0-1.564.988,12.4,12.4,0,0,0-1.955,4.141,10.238,10.238,0,0,0-.46,1.7c.751.016,1.5.023,2.231.023l2.231-.023a8.151,8.151,0,0,0,.414-1.794A15.1,15.1,0,0,0,73.412,268.775Z"/><path class="q" d="M76.77,264.566l.092-.024h.506c.107.092.322.277.644.552q4.14,3.774,4.14,10.948a18.178,18.178,0,0,1-.667,5.107,12.4,12.4,0,0,1-3.473,5.841q-.16.138-.368.311c-.138.115-.229.195-.276.241h-.276a.854.854,0,0,1-.356-.046c-.054-.031-.081-.107-.081-.229.015-.016.1-.115.253-.3q3.566-3.7,3.565-10.925t-3.565-10.925c-.154-.183-.238-.283-.253-.3A.267.267,0,0,1,76.77,264.566Z"/><path class="q" d="M85.716,264.566l.092-.024h.506c.107.092.322.277.645.552q4.138,3.774,4.139,10.948a18.141,18.141,0,0,1-.667,5.107,12.4,12.4,0,0,1-3.472,5.841q-.162.138-.369.311c-.137.115-.229.195-.276.241h-.275a.857.857,0,0,1-.357-.046c-.054-.031-.081-.107-.081-.229.016-.016.1-.115.253-.3q3.566-3.7,3.565-10.925t-3.565-10.925c-.153-.183-.237-.283-.253-.3A.267.267,0,0,1,85.716,264.566Z"/><path class="s" d="M322.927,304.105l-30.02.172a29.859,29.859,0,0,1,4.627-16.015"/><path class="t" d="M251.567,269.784l.184-.011c.107-.008.2-.012.275-.012a2.509,2.509,0,0,1,1.933,1.127,6.649,6.649,0,0,1,.9,3.7,8.254,8.254,0,0,1-.047.989,16.84,16.84,0,0,1-1.586,5.727,12.9,12.9,0,0,1-1.829,2.852,6.88,6.88,0,0,1-2.059,1.725,3.094,3.094,0,0,1-1.242.322h-.161a2.2,2.2,0,0,1-1.679-.713,5.844,5.844,0,0,1-1.218-4.117,12.567,12.567,0,0,1,.229-2.323,15.107,15.107,0,0,1,3.473-7.521A4.918,4.918,0,0,1,251.567,269.784Zm.367,9.131.115-.391h-4.484l-.023.161a19.445,19.445,0,0,0-.713,4.255,3.217,3.217,0,0,0,.551,2.162.864.864,0,0,0,.667.276q.921,0,1.932-1.5A16.486,16.486,0,0,0,251.934,278.915Zm1.1-5.957q0-2.346-1.22-2.346a2.168,2.168,0,0,0-1.564.989,12.409,12.409,0,0,0-1.955,4.14,10.35,10.35,0,0,0-.46,1.7q1.128.023,2.231.023l2.232-.023a8.139,8.139,0,0,0,.413-1.794A15.038,15.038,0,0,0,253.039,272.958Z"/><path class="t" d="M760.543,209.709c.017,0,.084,0,.2-.013s.216-.012.3-.012a2.728,2.728,0,0,1,2.1,1.225,7.236,7.236,0,0,1,.975,4.025,9.169,9.169,0,0,1-.05,1.075,18.3,18.3,0,0,1-1.725,6.225,14.043,14.043,0,0,1-1.988,3.1,7.467,7.467,0,0,1-2.237,1.875,3.364,3.364,0,0,1-1.35.35h-.175a2.39,2.39,0,0,1-1.825-.775,6.351,6.351,0,0,1-1.325-4.475,13.6,13.6,0,0,1,.25-2.525,16.406,16.406,0,0,1,3.775-8.175A5.339,5.339,0,0,1,760.543,209.709Zm.4,9.925.125-.425h-4.875l-.026.175a21.2,21.2,0,0,0-.774,4.625,3.5,3.5,0,0,0,.6,2.35.935.935,0,0,0,.725.3q1,0,2.1-1.625A17.975,17.975,0,0,0,760.944,219.634Zm1.2-6.475q0-2.55-1.325-2.55a2.357,2.357,0,0,0-1.7,1.075,13.488,13.488,0,0,0-2.125,4.5,11.194,11.194,0,0,0-.5,1.85q1.224.025,2.424.025l2.426-.025a8.809,8.809,0,0,0,.449-1.95A16.309,16.309,0,0,0,762.144,213.159Z"/><path class="u" d="M745.07,240a29.98,29.98,0,0,0-14-25.382L715.07,240Z"/><path class="v" d="M731.07,214.618a29.98,29.98,0,0,1,14,25.382"/><rect class="w" x="115" y="60" width="360" height="360"/><rect class="x" x="783.542" y="99.501" width="20" height="20"/><path class="j" d="M329.725,295.168q-.384-.231-.2-.792t.794-1.856a15.427,15.427,0,0,0,.9-2.363q2.173-7.714-3.187-10.936l-27.355-16.437q-6.82-4.1-3.228-14.461-7.461,8.038-13.839,4.206l-27.694-16.64a15.722,15.722,0,0,0-2.439-1.258,7.585,7.585,0,0,0-5.613.647,14.719,14.719,0,0,0-5.54,4.837c-.03.05-.129.191-.3.418a5.658,5.658,0,0,1-.372.476c-.083.091-.2.211-.349.362a.687.687,0,0,1-.893.137c-.55-.331,3.239-5.754,6.351-7.922s6.047-2.678,8.806-1.534a20.55,20.55,0,0,1,1.928,1.056l27.44,16.488a8.15,8.15,0,0,0,4.382,1.259,7.329,7.329,0,0,0,3.964-1.171,25.042,25.042,0,0,0,2.739-2.009,13.188,13.188,0,0,0,1.792-1.905c.091-.152.237-.368.433-.647a3.955,3.955,0,0,1,.534-.638c.16-.146.314-.3.463-.448a.963.963,0,0,1,.475-.286.582.582,0,0,1,.44.058.793.793,0,0,1,.343.362.839.839,0,0,1-.014.563,4.729,4.729,0,0,1-.267.695c-.108.227-.248.533-.42.914s-.327.735-.467,1.067a14.3,14.3,0,0,0-1.059,6.286,7.125,7.125,0,0,0,2.33,5.107,10.22,10.22,0,0,0,1.811,1.3l26.88,16.152a14.533,14.533,0,0,1,1.956,1.354,7.567,7.567,0,0,1,1.517,2.3,9.833,9.833,0,0,1,.9,4.058C334.211,288.532,330.145,295.42,329.725,295.168Z"/><path class="y" d="M313.277,212.259c.25-.017.533-.037.85-.063s.553-.045.712-.062.246-.024.263-.024c.2,0,.3.066.3.2q0,.175-1.838,7.562t-1.862,7.513a2.032,2.032,0,0,0-.026.375q0,1.05.7,1.05a1.075,1.075,0,0,0,.5-.225,5.673,5.673,0,0,0,1.025-2.4q.15-.5.25-.525a.745.745,0,0,1,.25-.025h.1c.316,0,.475.067.475.2a2.117,2.117,0,0,1-.075.4,6.511,6.511,0,0,1-1.351,2.9,2.457,2.457,0,0,1-.8.525,2.634,2.634,0,0,1-.6.05,2.256,2.256,0,0,1-2.2-1.224,2.035,2.035,0,0,0-.125-.3c-.017-.016-.05-.008-.1.025-.034.033-.067.067-.1.1a5.111,5.111,0,0,1-2.375,1.375,4.95,4.95,0,0,1-.625.025,3.317,3.317,0,0,1-2.725-1.375,4.863,4.863,0,0,1-.75-2.8,7.639,7.639,0,0,1,1.7-4.6,6.545,6.545,0,0,1,3.449-2.375,3.731,3.731,0,0,1,1.026-.15,2.392,2.392,0,0,1,2.1,1.05c.084.1.125.134.125.1l.688-2.738q.662-2.636.687-2.762a.451.451,0,0,0-.149-.4,3.783,3.783,0,0,0-1-.125h-.525a.694.694,0,0,1-.163-.2,2.612,2.612,0,0,1,.063-.474q.125-.476.325-.476c.016,0,.1-.008.262-.024s.384-.034.676-.051Zm-2.15,9.05q-.55-1.976-1.875-1.975a2.309,2.309,0,0,0-1.763.85,5.919,5.919,0,0,0-1.162,1.95,19.991,19.991,0,0,0-1.026,4.1c0,.049,0,.141-.011.274s-.013.233-.013.3a2.461,2.461,0,0,0,.388,1.45,1.3,1.3,0,0,0,1.136.55q1.326,0,2.776-1.8l.2-.274q.224-.9.675-2.713T311.127,221.309Z"/><path class="y" d="M323.3,211.86c.016,0,.083,0,.2-.013s.216-.013.3-.013a2.726,2.726,0,0,1,2.1,1.225,7.228,7.228,0,0,1,.975,4.025,9.194,9.194,0,0,1-.049,1.075,18.3,18.3,0,0,1-1.726,6.225,14.06,14.06,0,0,1-1.987,3.1,7.53,7.53,0,0,1-2.238,1.875,3.39,3.39,0,0,1-1.35.349h-.175a2.392,2.392,0,0,1-1.825-.775,6.356,6.356,0,0,1-1.324-4.475,13.523,13.523,0,0,1,.25-2.525,16.409,16.409,0,0,1,3.774-8.175A5.342,5.342,0,0,1,323.3,211.86Zm.4,9.924.125-.424h-4.875l-.026.174a21.169,21.169,0,0,0-.775,4.625,3.5,3.5,0,0,0,.6,2.35.936.936,0,0,0,.725.3q1,0,2.1-1.625A17.99,17.99,0,0,0,323.7,221.784Zm1.2-6.475q0-2.548-1.324-2.55a2.355,2.355,0,0,0-1.7,1.075,13.508,13.508,0,0,0-2.125,4.5,11.194,11.194,0,0,0-.5,1.85q1.224.025,2.425.025l2.425-.025a8.754,8.754,0,0,0,.45-1.949A16.394,16.394,0,0,0,324.9,215.309Z"/><path class="u" d="M233.493,269.82a19.985,19.985,0,0,0,16.921-9.333L233.493,249.82Z"/><path class="v" d="M250.414,260.487a19.985,19.985,0,0,1-16.921,9.333"/><line class="k" x1="322.927" y1="304.105" x2="250.161" y2="420"/><circle class="j" cx="322.927" cy="304.105" r="4"/><path class="z" d="M292.907,304.277a29.859,29.859,0,0,1,4.627-16.015"/><rect class="aa" x="233.018" y="291.132" width="13" height="13"/><polyline class="f" points="246.018 304.132 246.018 291.132 233.018 291.132"/><rect class="ab" x="322.927" y="249.82" width="109.486" height="35.145"/><path class="ac" d="M345.206,274.126a1.137,1.137,0,0,1-.364.8,1.184,1.184,0,0,1-.886.375.926.926,0,0,1-.513-.1,1.118,1.118,0,0,1-.288-.4,7.021,7.021,0,0,1-.475-2.774c0-.6.008-1,.026-1.2a31.318,31.318,0,0,1,.774-4.174c.083-.334.125-.517.125-.551h-2.45l-.025.1a1.713,1.713,0,0,1-.049.212c-.035.125-.08.309-.138.551s-.112.462-.163.662a70.057,70.057,0,0,1-1.975,7,1.078,1.078,0,0,1-1.075.7.826.826,0,0,1-.8-.424,1.178,1.178,0,0,1-.05-.4v-.275l.326-.7a48.365,48.365,0,0,0,2.724-6.826l.2-.6h-.8a8.532,8.532,0,0,0-1.388.075,2.529,2.529,0,0,0-.938.476,3.59,3.59,0,0,0-1.049,1.024.675.675,0,0,1-.2.237,1.058,1.058,0,0,1-.375.038q-.476,0-.475-.25a1.585,1.585,0,0,1,.25-.5q1.725-2.625,3.375-2.875.176-.05,5.625-.049,4,0,4.1.024a.684.684,0,0,1,.5.7,1.043,1.043,0,0,1-.8,1.05,13.446,13.446,0,0,1-1.726.05h-1.6l-.075.426a18.746,18.746,0,0,0-.3,2.974,10.079,10.079,0,0,0,.775,4.026A2.168,2.168,0,0,1,345.206,274.126Z"/><path class="ac" d="M350.555,281.3a.513.513,0,0,1-.474-.475q0-.251,4.349-12.213t4.425-12.062a.459.459,0,0,1,.45-.25.59.59,0,0,1,.35.175.375.375,0,0,1,.125.325q0,.126-4.337,12.062t-4.463,12.188A.509.509,0,0,1,350.555,281.3Z"/><path class="ac" d="M363.93,264.326a1.391,1.391,0,0,1-1.1-.45,1.589,1.589,0,0,1-.4-1.1,4.1,4.1,0,0,1,1.363-3.088,4.58,4.58,0,0,1,3.262-1.287,5.415,5.415,0,0,1,3.563,1.162,4.882,4.882,0,0,1,1.737,3.037,7.615,7.615,0,0,1,.05.825,4.729,4.729,0,0,1-.875,2.726,16.663,16.663,0,0,1-2.824,2.875q-.9.774-2.5,2.3l-1.476,1.4,1.9.025a29.883,29.883,0,0,0,4.175-.125c.067-.016.151-.191.25-.525a15.5,15.5,0,0,0,.35-1.7v-.076h1v.076l-.7,4.574v.075H362.43v-.475a1.694,1.694,0,0,1,.05-.575q.025-.024,2.1-2.375,2.724-3.024,3.5-4a7.248,7.248,0,0,0,1.674-4.175,4.378,4.378,0,0,0-.862-2.762,2.879,2.879,0,0,0-2.413-1.113,2.744,2.744,0,0,0-2.35,1.3c-.034.067-.084.158-.15.276a.54.54,0,0,0-.075.149c0,.017.042.025.125.025a1.272,1.272,0,0,1,1.013.451,1.556,1.556,0,0,1,.387,1.049,1.493,1.493,0,0,1-.412,1.063A1.425,1.425,0,0,1,363.93,264.326Z"/><path class="ac" d="M382.03,268.8a.547.547,0,0,1,.349-.5h14.526a.521.521,0,0,1,0,1H382.379A.545.545,0,0,1,382.03,268.8Z"/><path class="ac" d="M413.6,257.451c.018,0,.084,0,.2-.012s.217-.013.3-.013a2.73,2.73,0,0,1,2.1,1.226,7.239,7.239,0,0,1,.974,4.024,8.908,8.908,0,0,1-.051,1.075,18.28,18.28,0,0,1-1.724,6.225,14.019,14.019,0,0,1-1.988,3.1,7.467,7.467,0,0,1-2.237,1.875,3.364,3.364,0,0,1-1.349.35h-.176a2.388,2.388,0,0,1-1.824-.774,6.351,6.351,0,0,1-1.327-4.476,13.667,13.667,0,0,1,.25-2.524,16.419,16.419,0,0,1,3.776-8.176A5.342,5.342,0,0,1,413.6,257.451Zm.4,9.925.125-.425h-4.875l-.025.175a21.2,21.2,0,0,0-.773,4.625,3.5,3.5,0,0,0,.6,2.35.937.937,0,0,0,.725.3q1,0,2.1-1.625A17.915,17.915,0,0,0,414,267.376Zm1.2-6.474q0-2.551-1.327-2.551a2.357,2.357,0,0,0-1.7,1.075,13.45,13.45,0,0,0-2.125,4.5,11.054,11.054,0,0,0-.5,1.851q1.226.024,2.424.024l2.426-.024a8.828,8.828,0,0,0,.449-1.951A16.317,16.317,0,0,0,415.206,260.9Z"/></svg>