<svg xmlns="http://www.w3.org/2000/svg" xmlns:xlink="http://www.w3.org/1999/xlink" width="960" height="480" viewBox="0 0 960 480"><defs><style>.a,.b,.c,.d,.f,.g,.h,.i,.k,.l,.q,.t,.u,.v{fill:none;}.b,.c,.d{stroke:#a6a6a6;}.b,.c,.d,.f,.g,.h,.i,.k,.l,.q,.t,.u,.v{stroke-miterlimit:10;}.c{stroke-dasharray:5.896 5.896;}.d{stroke-dasharray:6.122 6.122;}.e{clip-path:url(#a);}.f,.i{stroke:#fff;}.g{stroke:#8f8f8f;}.h{stroke:#e5e5e5;}.i,.t,.v{stroke-width:1.5px;}.j{fill:#fff;}.k{stroke:#fc6255;}.l,.t{stroke:#fff933;}.m{clip-path:url(#b);}.n{clip-path:url(#c);}.o{fill:#f8f8f8;}.p{fill:#e5e5e5;}.q{stroke:#5cd0b3;}.r,.s{fill:#fff933;}.s{opacity:0.5;}.u,.v{stroke:#b6b6b6;}.w{fill:#8f8f8f;}</style><clipPath id="a"><rect class="a" x="115" y="60" width="360" height="360"/></clipPath><clipPath id="b"><rect class="a" x="115" y="-562.913" width="360" height="360"/></clipPath><clipPath id="c"><rect class="a" x="115" y="596.904" width="360" height="360"/></clipPath></defs><rect width="960" height="480"/><line class="b" x1="233.018" y1="249.82" x2="230.018" y2="249.82"/><line class="c" x1="224.123" y1="249.82" x2="120.948" y2="249.82"/><line class="b" x1="118" y1="249.82" x2="115" y2="249.82"/><line class="b" x1="323.018" y1="304.132" x2="320.018" y2="304.132"/><line class="d" x1="313.897" y1="304.132" x2="121.061" y2="304.132"/><line class="b" x1="118" y1="304.132" x2="115" y2="304.132"/><line class="b" x1="233.018" y1="420" x2="233.018" y2="249.82"/><line class="b" x1="323.018" y1="420" x2="323.018" y2="304.132"/><g class="e"><path class="f" d="M-1116.982-111.48c1491.169,0,2700,1208.832,2700,2700"/><path class="f" d="M115,185.337A2700.56,2700.56,0,0,1,475,407.558"/><line class="g" x1="250.009" y1="419.953" x2="323.018" y2="304.132"/><line class="b" x1="323.018" y1="419.974" x2="323.018" y2="304.132"/><line class="b" x1="233.018" y1="420" x2="233.018" y2="249.82"/><line class="g" x1="233.018" y1="249.82" x2="134.783" y2="420"/><path class="h" d="M473.993,406.822Q400.307,353,322.927,304.105"/></g><line class="i" x1="544.151" y1="239.974" x2="886.046" y2="239.974"/><path class="j" d="M535.1,239.974c4.259,1.581,9.545,4.278,12.821,7.134l-2.581-7.134,2.581-7.132C544.644,235.7,539.358,238.4,535.1,239.974Z"/><path class="j" d="M895.1,239.974c-4.26,1.581-9.545,4.278-12.821,7.134l2.58-7.134-2.58-7.132C885.554,235.7,890.839,238.4,895.1,239.974Z"/><line class="i" x1="715.099" y1="410.922" x2="715.099" y2="69.027"/><path class="j" d="M715.1,419.974c1.58-4.259,4.277-9.545,7.133-12.821l-7.133,2.581-7.133-2.581C710.823,410.429,713.52,415.715,715.1,419.974Z"/><path class="j" d="M715.1,59.974c1.58,4.26,4.277,9.545,7.133,12.821l-7.133-2.58-7.133,2.58C710.823,69.519,713.52,64.234,715.1,59.974Z"/><circle class="f" cx="715.099" cy="239.974" r="150"/><line class="f" x1="640.099" y1="244.974" x2="640.099" y2="234.974"/><line class="f" x1="790.099" y1="234.974" x2="790.099" y2="244.974"/><line class="f" x1="710.099" y1="164.974" x2="720.099" y2="164.974"/><line class="f" x1="720.099" y1="314.974" x2="710.099" y2="314.974"/><circle class="f" cx="715.099" cy="239.974" r="150"/><line class="f" x1="640.099" y1="244.974" x2="640.099" y2="234.974"/><line class="f" x1="790.099" y1="234.974" x2="790.099" y2="244.974"/><line class="f" x1="710.099" y1="89.974" x2="720.099" y2="89.974"/><line class="f" x1="565.099" y1="244.974" x2="565.099" y2="234.974"/><line class="f" x1="565.099" y1="244.974" x2="565.099" y2="234.974"/><line class="k" x1="715.099" y1="239.974" x2="795.099" y2="113.064"/><line class="b" x1="795.099" y1="239.974" x2="795.099" y2="113.064"/><line class="b" x1="790.099" y1="239.974" x2="790.099" y2="110.046"/><line class="g" x1="790.099" y1="110.046" x2="715.099" y2="239.974"/><path class="j" d="M911.549,239.928a.421.421,0,0,1-.15-.275,4.764,4.764,0,0,1,.775-1.725,4.288,4.288,0,0,1,2.951-2.05,4.13,4.13,0,0,1,.524-.05,3.03,3.03,0,0,1,1.613.45,2.7,2.7,0,0,1,1.063,1.125c.217-.283.349-.459.4-.525a2.766,2.766,0,0,1,2.125-1.05,2.36,2.36,0,0,1,1.662.587,1.882,1.882,0,0,1,.637,1.437,1.961,1.961,0,0,1-.438,1.3,1.435,1.435,0,0,1-1.162.525,1.1,1.1,0,0,1-.775-.275.94.94,0,0,1-.3-.725,1.591,1.591,0,0,1,1.25-1.576,1.076,1.076,0,0,0-.275-.174,1.425,1.425,0,0,0-.725-.15,1.643,1.643,0,0,0-.475.05,2.613,2.613,0,0,0-1.4,1.649q-.077.2-.725,2.789t-.7,2.912a3.892,3.892,0,0,0-.074.75,1.278,1.278,0,0,0,.35.95,1.248,1.248,0,0,0,.925.349,2.574,2.574,0,0,0,1.9-.886,4.61,4.61,0,0,0,1.15-1.963c.051-.166.1-.263.151-.287a1.18,1.18,0,0,1,.4-.038q.476,0,.475.2c0,.016-.018.108-.051.275a5.425,5.425,0,0,1-1.75,2.7,3.933,3.933,0,0,1-2.475.926,2.882,2.882,0,0,1-2.65-1.575,3.5,3.5,0,0,1-1.85,1.5,3.222,3.222,0,0,1-.65.05,2.177,2.177,0,0,1-2.049-1.026,1.921,1.921,0,0,1-.25-1,1.894,1.894,0,0,1,.449-1.274,1.447,1.447,0,0,1,1.151-.525.938.938,0,0,1,1.074,1.049,1.41,1.41,0,0,1-.875,1.351l-.125.063-.125.062a.183.183,0,0,1-.074.024l-.075.026c0,.05.125.125.375.224a1.661,1.661,0,0,0,.649.125,1.846,1.846,0,0,0,1.551-1.125,18.815,18.815,0,0,0,.974-3.25q.15-.573.326-1.274t.262-1.075c.059-.25.1-.4.113-.45a6.149,6.149,0,0,0,.125-.975,1.34,1.34,0,0,0-.326-.95,1.163,1.163,0,0,0-.9-.35,2.606,2.606,0,0,0-1.949.863,4.736,4.736,0,0,0-1.151,1.987c-.033.15-.07.237-.112.263a1.243,1.243,0,0,1-.413.037Z"/><path class="j" d="M720.649,26.837a.971.971,0,0,1,.6.188.607.607,0,0,1,.25.513q0,.324-1.225,5.25t-1.4,5.4a6.63,6.63,0,0,1-1.288,2.263,6.7,6.7,0,0,1-2.062,1.636,5.846,5.846,0,0,1-2.525.651,2.693,2.693,0,0,1-2.575-1.2,1.7,1.7,0,0,1-.25-1,1.8,1.8,0,0,1,.475-1.326,1.629,1.629,0,0,1,1.1-.474q1.1,0,1.1,1.05a1.413,1.413,0,0,1-.875,1.35c-.034.016-.075.037-.125.063l-.125.062a.206.206,0,0,1-.075.025l-.074.025q.073.15.524.325a2.265,2.265,0,0,0,.8.15h.2a3.222,3.222,0,0,0,.65-.05,3.81,3.81,0,0,0,1.8-1.276,6.918,6.918,0,0,0,1.3-2.4,5.516,5.516,0,0,0,.275-.976c0-.015-.016-.011-.049.013l-.151.112a3.393,3.393,0,0,1-2.05.676,3.482,3.482,0,0,1-2.1-.6,2.786,2.786,0,0,1-1.074-1.725,6.745,6.745,0,0,1-.026-.775,6.4,6.4,0,0,1,.05-.925,22.853,22.853,0,0,1,1.15-3.675,7.16,7.16,0,0,0,.55-2.05,1.334,1.334,0,0,0-.062-.488c-.042-.091-.138-.137-.287-.137h-.125a1.555,1.555,0,0,0-1.1.525,5.237,5.237,0,0,0-1.225,2.4.268.268,0,0,1-.025.087.237.237,0,0,1-.038.075c-.008.009-.02.022-.037.038a.122.122,0,0,1-.088.025h-.662q-.15-.15-.15-.225a1.83,1.83,0,0,1,.076-.351,5.96,5.96,0,0,1,1.574-2.724,2.578,2.578,0,0,1,1.775-.8,2.375,2.375,0,0,1,1.675.575,2.063,2.063,0,0,1,.625,1.6,3.4,3.4,0,0,1-.075.525,5.637,5.637,0,0,1-.375,1.074,23.819,23.819,0,0,0-1.225,4.076,4.894,4.894,0,0,0-.025.575,2.837,2.837,0,0,0,.3,1.45,1.174,1.174,0,0,0,1.1.5,2.132,2.132,0,0,0,1.088-.3,3.338,3.338,0,0,0,.775-.588q.261-.286.663-.787c0-.016.041-.187.125-.513s.2-.812.361-1.462.313-1.267.463-1.85q.95-3.75,1.051-3.925A1.109,1.109,0,0,1,720.649,26.837Z"/><path class="l" d="M795.094,113.062A149.894,149.894,0,0,1,865.1,239.974"/><g class="m"><path class="f" d="M-1116.982-734.392c1491.169,0,2700,1208.831,2700,2700"/></g><g class="n"><path class="f" d="M-1116.982,425.424c1491.169,0,2700,1208.832,2700,2700"/></g><path class="o" d="M115,250.41c0,.153-.107.25-.321.294s-.584.09-1.111.14a9.394,9.394,0,0,0-1.383.226q-4.3,1.077-4.3,4.264V271.6q0,4.056-5.963,5.206,5.962,1.15,5.963,4.943V298.22a7.417,7.417,0,0,0,.1,1.4A3.926,3.926,0,0,0,109.9,301.9a8.687,8.687,0,0,0,3.888,1.151c.033,0,.128.006.284.019s.268.025.333.038.157.032.272.057a.408.408,0,0,1,.247.138.348.348,0,0,1,.074.217c0,.327-3.667.1-5.59-.7s-3-1.939-3.25-3.445a9.6,9.6,0,0,1-.049-1.119V281.94a3.894,3.894,0,0,0-.654-2.245,3.959,3.959,0,0,0-1.692-1.425,14.442,14.442,0,0,0-1.74-.669,7.813,7.813,0,0,0-1.42-.283c-.1,0-.243-.007-.432-.02a2.416,2.416,0,0,1-.457-.065c-.115-.032-.231-.06-.345-.085a.552.552,0,0,1-.272-.132.285.285,0,0,1-.1-.208.382.382,0,0,1,.074-.245.483.483,0,0,1,.272-.142,2.809,2.809,0,0,1,.407-.065q.21-.019.556-.057c.231-.026.444-.05.642-.076a8.352,8.352,0,0,0,3.3-1.188,3.641,3.641,0,0,0,1.765-2.358,4.807,4.807,0,0,0,.1-1.132V255.56a6.81,6.81,0,0,1,.086-1.21,3.718,3.718,0,0,1,.66-1.265,5.246,5.246,0,0,1,1.674-1.46C110.557,250.192,115,250.161,115,250.41Z"/><path class="o" d="M16.581,265.968c.229-.014.49-.034.781-.057s.51-.042.656-.058.225-.022.24-.022c.185,0,.277.061.277.184q0,.161-1.691,6.957t-1.713,6.911a1.942,1.942,0,0,0-.023.345q0,.966.644.966a.991.991,0,0,0,.459-.207,5.2,5.2,0,0,0,.944-2.208c.092-.306.168-.467.23-.483a.686.686,0,0,1,.23-.023h.093c.291,0,.436.062.436.184a1.851,1.851,0,0,1-.069.369,6.017,6.017,0,0,1-1.242,2.668,2.306,2.306,0,0,1-.737.483,2.493,2.493,0,0,1-.551.045,2.075,2.075,0,0,1-2.024-1.127,1.672,1.672,0,0,0-.115-.275c-.015-.016-.046-.008-.092.023l-.093.091A4.7,4.7,0,0,1,11.037,282a4.327,4.327,0,0,1-.576.023,3.047,3.047,0,0,1-2.5-1.265,4.464,4.464,0,0,1-.692-2.575,7.025,7.025,0,0,1,1.565-4.232A6.012,6.012,0,0,1,12,271.765a3.4,3.4,0,0,1,.944-.139,2.2,2.2,0,0,1,1.931.966c.078.093.116.123.116.093q.022-.093.633-2.519t.632-2.542a.417.417,0,0,0-.138-.368,3.44,3.44,0,0,0-.92-.114h-.483a.675.675,0,0,1-.15-.185,2.309,2.309,0,0,1,.059-.437q.114-.437.3-.437c.015,0,.1-.007.242-.023s.352-.03.62-.045ZM14.6,274.294q-.507-1.816-1.725-1.817a2.126,2.126,0,0,0-1.622.782,5.458,5.458,0,0,0-1.069,1.795,18.261,18.261,0,0,0-.943,3.772c0,.046,0,.13-.012.253s-.012.214-.012.275a2.257,2.257,0,0,0,.358,1.334,1.2,1.2,0,0,0,1.047.506,3.568,3.568,0,0,0,2.552-1.655l.184-.253q.209-.829.621-2.5T14.6,274.294Z"/><path class="o" d="M26.126,287.335c0,.139-.139.207-.415.207h-.3c-.108-.091-.322-.275-.644-.551q-4.14-3.772-4.141-10.949a18.525,18.525,0,0,1,.668-5.128,12.41,12.41,0,0,1,3.473-5.82l.367-.31c.139-.115.231-.2.277-.242h.3a.54.54,0,0,1,.344.069.2.2,0,0,1,.071.138c0,.062-.085.177-.254.345q-3.565,3.772-3.565,10.948t3.565,10.949C26.041,287.159,26.126,287.274,26.126,287.335Z"/><path class="o" d="M31.783,272.27q-2.117,0-2.116,1.5a1.062,1.062,0,0,0,.045.39,1.377,1.377,0,0,0,.714.794,6.955,6.955,0,0,0,1.564.448,6.273,6.273,0,0,1,1.794.506,3.332,3.332,0,0,1,1.863,2.278,4.252,4.252,0,0,1,.022.551,3.723,3.723,0,0,1-.321,1.587,3.464,3.464,0,0,1-3.381,1.7,3.652,3.652,0,0,1-2.392-.828l-.184.161-.207.207c-.092.092-.184.177-.276.253l-.253.23h-.184a.425.425,0,0,1-.3-.137V280.09q0-1.494.012-1.724c.007-.154.042-.245.1-.277a1.477,1.477,0,0,1,.368-.023.774.774,0,0,1,.356.046.741.741,0,0,1,.126.323,5.316,5.316,0,0,0,.6,1.586,2.556,2.556,0,0,0,2.231,1.173q2.231,0,2.231-1.794a1.469,1.469,0,0,0-.414-1.081,2.006,2.006,0,0,0-.967-.621c-.26-.061-.629-.145-1.1-.253a7.835,7.835,0,0,1-1.748-.483,2.872,2.872,0,0,1-1.77-2.139,1.614,1.614,0,0,1-.024-.345q0-2.645,3.244-2.966a1.468,1.468,0,0,1,.552,0,3.558,3.558,0,0,1,1.61.344l.344.184.207-.161a6.273,6.273,0,0,1,.507-.391h.184a.422.422,0,0,1,.3.138v3.037l-.139.137h-.644a.4.4,0,0,1-.137-.276,2.145,2.145,0,0,0-.645-1.655A2.5,2.5,0,0,0,31.783,272.27Z"/><path class="o" d="M42.155,281.792a20,20,0,0,0-2.392-.068,24.744,24.744,0,0,0-2.507.068h-.183v-1.058h.367a8.063,8.063,0,0,0,1.127-.069.49.49,0,0,0,.276-.252q.022-.047.023-3.335a31.935,31.935,0,0,0-.092-3.681c-.123-.306-.574-.46-1.357-.46h-.252v-.528c0-.353.014-.53.045-.53l.23-.023q.23-.022.645-.046l.828-.045c.259-.016.536-.035.828-.058s.513-.042.666-.058.238-.023.254-.023h.068v8.741a.529.529,0,0,0,.275.287,3.672,3.672,0,0,0,.806.08h.529v1.058ZM39.487,266.4a1.48,1.48,0,0,1,.943.4,1.3,1.3,0,0,1,.368.978,1.231,1.231,0,0,1-.621,1.172,1.254,1.254,0,0,1-.736.207,1.3,1.3,0,0,1-.759-.207,1.231,1.231,0,0,1-.621-1.172,1.309,1.309,0,0,1,.4-1.013A1.462,1.462,0,0,1,39.487,266.4Z"/><path class="o" d="M47.192,280.413c.123.214.482.321,1.082.321h.689v1.058H48.78a23.7,23.7,0,0,0-2.576-.068,23.709,23.709,0,0,0-2.577.068h-.183v-1.058h.689q.9,0,1.081-.321V279.7c0-.215,0-.456.011-.725s.012-.567.012-.9v-.955q0-.712-.012-1.529t-.011-1.346v-.529a.761.761,0,0,0-.333-.586,2.678,2.678,0,0,0-1.024-.2h-.413v-.528c0-.353.015-.53.045-.53l.23-.023c.153-.015.371-.03.656-.046l.839-.045q.392-.024.828-.058c.292-.023.513-.042.668-.058s.236-.023.251-.023h.071v.92a7.088,7.088,0,0,0,.021.874l.024-.023a4.048,4.048,0,0,1,3.519-1.771,2.686,2.686,0,0,1,2.922,2.6q.021.161.022,3.2,0,2.944.023,2.991a.489.489,0,0,0,.275.252,8.1,8.1,0,0,0,1.127.069h.37v1.058h-.184a23.7,23.7,0,0,0-2.576-.068,23.683,23.683,0,0,0-2.576.068h-.184v-1.058h.551q1.218,0,1.219-.367.023-.046.023-3.175-.024-3.105-.045-3.289a2.033,2.033,0,0,0-.518-1.069,1.557,1.557,0,0,0-1.093-.334,2.492,2.492,0,0,0-1.817.783,3.29,3.29,0,0,0-.943,2.024v.425q0,.4-.012,1.023t-.012,1.174v.724q0,.38.012.678c.008.2.012.38.012.541v.541Z"/><path class="o" d="M63.316,287.335c0,.139-.138.207-.414.207h-.3l-.644-.551q-4.14-3.772-4.14-10.949a18.526,18.526,0,0,1,.667-5.128,12.4,12.4,0,0,1,3.473-5.82q.16-.138.368-.31c.137-.115.23-.2.276-.242h.3a.548.548,0,0,1,.345.069.2.2,0,0,1,.069.138c0,.062-.085.177-.253.345Q59.5,268.867,59.5,276.042t3.565,10.949C63.231,287.159,63.316,287.274,63.316,287.335Z"/><path class="p" d="M71.94,265.6c.016,0,.076,0,.185-.012s.2-.011.275-.011a2.5,2.5,0,0,1,1.932,1.127,6.644,6.644,0,0,1,.9,3.7,8.5,8.5,0,0,1-.046.988,16.806,16.806,0,0,1-1.587,5.727,12.892,12.892,0,0,1-1.829,2.853A6.9,6.9,0,0,1,69.71,281.7a3.116,3.116,0,0,1-1.243.321h-.161a2.2,2.2,0,0,1-1.679-.712,5.846,5.846,0,0,1-1.219-4.118,12.562,12.562,0,0,1,.23-2.322,15.1,15.1,0,0,1,3.473-7.521A4.906,4.906,0,0,1,71.94,265.6Zm.368,9.13.115-.391H67.938l-.023.161a19.516,19.516,0,0,0-.713,4.255,3.215,3.215,0,0,0,.552,2.162.861.861,0,0,0,.667.276q.919,0,1.932-1.494A16.52,16.52,0,0,0,72.308,274.731Zm1.1-5.957q0-2.346-1.219-2.345a2.167,2.167,0,0,0-1.564.988,12.4,12.4,0,0,0-1.955,4.141,10.211,10.211,0,0,0-.46,1.7c.751.016,1.5.024,2.231.024l2.231-.024a8.151,8.151,0,0,0,.414-1.794A15.1,15.1,0,0,0,73.412,268.774Z"/><path class="o" d="M76.77,264.565l.092-.023h.506l.644.552q4.14,3.772,4.14,10.948a18.165,18.165,0,0,1-.667,5.106,12.4,12.4,0,0,1-3.473,5.843c-.107.091-.23.195-.368.31s-.229.2-.276.241h-.276a.878.878,0,0,1-.356-.045c-.054-.032-.081-.108-.081-.23.015-.016.1-.116.253-.3q3.566-3.7,3.565-10.925t-3.565-10.924c-.154-.184-.238-.284-.253-.3A.27.27,0,0,1,76.77,264.565Z"/><path class="o" d="M85.716,264.565l.092-.023h.506l.645.552q4.138,3.772,4.139,10.948a18.129,18.129,0,0,1-.667,5.106,12.408,12.408,0,0,1-3.472,5.843l-.369.31c-.137.115-.229.2-.276.241h-.275a.88.88,0,0,1-.357-.045c-.054-.032-.081-.108-.081-.23.016-.016.1-.116.253-.3q3.566-3.7,3.565-10.925t-3.565-10.924c-.153-.184-.237-.284-.253-.3A.27.27,0,0,1,85.716,264.565Z"/><line class="q" x1="895.099" y1="113.062" x2="715.07" y2="113.062"/><line class="q" x1="475" y1="304.604" x2="115" y2="304.604"/><path class="r" d="M281.526,317.31c.016,0,.083,0,.2-.012s.217-.013.3-.013a2.728,2.728,0,0,1,2.1,1.225,7.228,7.228,0,0,1,.974,4.025,8.977,8.977,0,0,1-.049,1.075,18.3,18.3,0,0,1-1.725,6.225,14.092,14.092,0,0,1-1.988,3.1,7.445,7.445,0,0,1-2.238,1.875,3.372,3.372,0,0,1-1.349.35h-.175a2.39,2.39,0,0,1-1.825-.775,6.356,6.356,0,0,1-1.325-4.475,13.515,13.515,0,0,1,.25-2.525,16.41,16.41,0,0,1,3.775-8.175A5.347,5.347,0,0,1,281.526,317.31Zm.4,9.925.125-.425h-4.875l-.025.175a21.107,21.107,0,0,0-.775,4.625,3.5,3.5,0,0,0,.6,2.35.94.94,0,0,0,.726.3q1,0,2.1-1.625A17.948,17.948,0,0,0,281.926,327.235Zm1.2-6.475q0-2.55-1.325-2.55a2.36,2.36,0,0,0-1.7,1.075,13.508,13.508,0,0,0-2.125,4.5,11.194,11.194,0,0,0-.5,1.85q1.225.025,2.426.025l2.425-.025a8.822,8.822,0,0,0,.45-1.95A16.468,16.468,0,0,0,283.126,320.76Z"/><path class="r" d="M760.543,209.709q.025,0,.2-.012c.116-.009.216-.013.3-.013a2.728,2.728,0,0,1,2.1,1.225,7.236,7.236,0,0,1,.975,4.025,9.157,9.157,0,0,1-.05,1.075,18.3,18.3,0,0,1-1.725,6.225,14.019,14.019,0,0,1-1.988,3.1,7.467,7.467,0,0,1-2.237,1.875,3.38,3.38,0,0,1-1.35.35h-.175a2.39,2.39,0,0,1-1.825-.775,6.351,6.351,0,0,1-1.325-4.475,13.6,13.6,0,0,1,.25-2.525,16.41,16.41,0,0,1,3.775-8.175A5.345,5.345,0,0,1,760.543,209.709Zm.4,9.925.125-.425h-4.875l-.026.175a21.215,21.215,0,0,0-.774,4.625,3.5,3.5,0,0,0,.6,2.35.935.935,0,0,0,.725.3q1,0,2.1-1.625A17.975,17.975,0,0,0,760.944,219.634Zm1.2-6.475q0-2.55-1.325-2.55a2.357,2.357,0,0,0-1.7,1.075,13.488,13.488,0,0,0-2.125,4.5,11.194,11.194,0,0,0-.5,1.85q1.224.025,2.424.025l2.426-.025a8.79,8.79,0,0,0,.449-1.95A16.3,16.3,0,0,0,762.144,213.159Z"/><path class="s" d="M745.07,240a29.98,29.98,0,0,0-14-25.382L715.07,240Z"/><path class="t" d="M731.07,214.618a29.98,29.98,0,0,1,14,25.382"/><rect class="u" x="115" y="60" width="360" height="360"/><rect class="v" x="783.542" y="99.501" width="20" height="20"/><path class="j" d="M329.725,295.168q-.384-.231-.2-.792t.794-1.856a15.427,15.427,0,0,0,.9-2.363q2.173-7.714-3.187-10.936l-27.355-16.437q-6.82-4.1-3.228-14.461-7.461,8.038-13.839,4.206l-27.694-16.64a15.722,15.722,0,0,0-2.439-1.258,7.585,7.585,0,0,0-5.613.647,14.719,14.719,0,0,0-5.54,4.837c-.03.05-.129.191-.3.418a5.658,5.658,0,0,1-.372.476c-.083.091-.2.211-.349.362a.687.687,0,0,1-.893.137c-.55-.331,3.239-5.754,6.351-7.922s6.047-2.678,8.806-1.534a20.55,20.55,0,0,1,1.928,1.056l27.44,16.488a8.15,8.15,0,0,0,4.382,1.259,7.329,7.329,0,0,0,3.964-1.171,25.042,25.042,0,0,0,2.739-2.009,13.188,13.188,0,0,0,1.792-1.905c.091-.152.237-.368.433-.647a3.955,3.955,0,0,1,.534-.638c.16-.146.314-.3.463-.448a.963.963,0,0,1,.475-.286.582.582,0,0,1,.44.058.793.793,0,0,1,.343.362.839.839,0,0,1-.014.563,4.729,4.729,0,0,1-.267.695c-.108.227-.248.533-.42.914s-.327.735-.467,1.067a14.3,14.3,0,0,0-1.059,6.286,7.125,7.125,0,0,0,2.33,5.107,10.22,10.22,0,0,0,1.811,1.3l26.88,16.152a14.533,14.533,0,0,1,1.956,1.354,7.567,7.567,0,0,1,1.517,2.3,9.833,9.833,0,0,1,.9,4.058C334.211,288.532,330.145,295.42,329.725,295.168Z"/><path class="w" d="M313.277,212.259q.375-.024.85-.063t.712-.062c.159-.016.246-.025.263-.025.2,0,.3.067.3.2q0,.174-1.838,7.562t-1.862,7.512a2.032,2.032,0,0,0-.026.375q0,1.05.7,1.051a1.089,1.089,0,0,0,.5-.226,5.674,5.674,0,0,0,1.025-2.4q.15-.5.25-.526a.745.745,0,0,1,.25-.025h.1c.316,0,.475.067.475.2a2.1,2.1,0,0,1-.075.4,6.51,6.51,0,0,1-1.351,2.9,2.473,2.473,0,0,1-.8.525,2.693,2.693,0,0,1-.6.05,2.256,2.256,0,0,1-2.2-1.225,1.907,1.907,0,0,0-.125-.3c-.017-.017-.05-.009-.1.024l-.1.1a5.12,5.12,0,0,1-2.375,1.375,5.234,5.234,0,0,1-.625.024,3.317,3.317,0,0,1-2.725-1.375,4.863,4.863,0,0,1-.75-2.8,7.632,7.632,0,0,1,1.7-4.6,6.534,6.534,0,0,1,3.449-2.375,3.7,3.7,0,0,1,1.026-.151,2.392,2.392,0,0,1,2.1,1.05c.084.1.125.134.125.1l.688-2.739q.662-2.637.687-2.761a.451.451,0,0,0-.149-.4,3.783,3.783,0,0,0-1-.125h-.525a.667.667,0,0,1-.163-.2,2.627,2.627,0,0,1,.063-.475c.083-.316.191-.475.325-.475.016,0,.1-.008.262-.025s.384-.033.676-.049Zm-2.15,9.051q-.55-1.976-1.875-1.976a2.311,2.311,0,0,0-1.763.851,5.9,5.9,0,0,0-1.162,1.949,19.982,19.982,0,0,0-1.026,4.1c0,.05,0,.142-.011.275s-.013.234-.013.3a2.46,2.46,0,0,0,.388,1.449,1.3,1.3,0,0,0,1.136.551q1.326,0,2.776-1.8l.2-.275q.224-.9.675-2.713T311.127,221.31Z"/><path class="w" d="M323.3,211.859l.2-.012c.117-.008.216-.013.3-.013a2.725,2.725,0,0,1,2.1,1.226,7.222,7.222,0,0,1,.975,4.024,9.194,9.194,0,0,1-.049,1.075,18.3,18.3,0,0,1-1.726,6.225,14.053,14.053,0,0,1-1.987,3.1,7.469,7.469,0,0,1-2.238,1.875,3.36,3.36,0,0,1-1.35.35h-.175a2.4,2.4,0,0,1-1.825-.774,6.36,6.36,0,0,1-1.324-4.476,13.5,13.5,0,0,1,.25-2.524,16.409,16.409,0,0,1,3.774-8.176A5.35,5.35,0,0,1,323.3,211.859Zm.4,9.925.125-.425h-4.875l-.026.175a21.169,21.169,0,0,0-.775,4.625,3.5,3.5,0,0,0,.6,2.35.937.937,0,0,0,.725.3q1,0,2.1-1.625A18.021,18.021,0,0,0,323.7,221.784Zm1.2-6.474q0-2.551-1.324-2.551a2.358,2.358,0,0,0-1.7,1.075,13.508,13.508,0,0,0-2.125,4.5,11.166,11.166,0,0,0-.5,1.851q1.224.024,2.425.024l2.425-.024a8.792,8.792,0,0,0,.45-1.951A16.375,16.375,0,0,0,324.9,215.31Z"/><path class="s" d="M292.927,304.105a29.98,29.98,0,0,0,14,25.382l16-25.382Z"/><path class="t" d="M306.927,329.487a29.98,29.98,0,0,1-14-25.382"/><line class="k" x1="322.927" y1="304.105" x2="250.161" y2="420"/><circle class="j" cx="322.927" cy="304.105" r="4"/></svg>