<?xml version="1.0" encoding="utf-8"?>
<!-- Generator: Adobe Illustrator 25.2.3, SVG Export Plug-In . SVG Version: 6.00 Build 0)  -->
<svg version="1.1" id="Layer_1" xmlns="http://www.w3.org/2000/svg" xmlns:xlink="http://www.w3.org/1999/xlink" x="0px" y="0px"
	 viewBox="0 0 1920 1080" style="enable-background:new 0 0 1920 1080;" xml:space="preserve">
<style type="text/css">
	.st0{fill:#005454;}
	.st1{fill:#15E3FF;}
	.st2{fill:#FFFFFF;}
	.st3{opacity:0.83;}
	.st4{fill:#8CFF61;stroke:#000000;stroke-miterlimit:10;}
	.st5{fill:#FF5F5F;stroke:#000000;stroke-miterlimit:10;}
	.st6{fill:#FF5F5F;}
	.st7{fill:#8CFF61;}
	.st8{fill:#6C9E54;stroke:#000000;stroke-miterlimit:10;}
	.st9{fill:#AD5C5C;stroke:#000000;stroke-miterlimit:10;}
	.st10{fill:#FFF800;stroke:#000000;stroke-miterlimit:10;}
	.st11{fill:#FFFFFF;stroke:#000000;stroke-miterlimit:10;}
	.st12{fill:#FFE000;stroke:#000000;stroke-miterlimit:10;}
</style>
<rect width="1919" height="1079"/>
<g id="grid">
	<g>
		<rect x="0.5" y="0.6" width="1920.1" height="1079.3"/>
		<path d="M1920.1,1.1v1078.3H1V1.1H1920.1 M1921.1,0.1H0v1080.3h1921.1V0.1L1921.1,0.1z"/>
	</g>
	<g>
		<rect x="1.3" y="69" class="st0" width="1917" height="1.4"/>
	</g>
	<g>
		<rect x="1.3" y="202" class="st0" width="1917" height="1.4"/>
	</g>
	<g>
		<rect x="3.1" y="339" class="st0" width="1917" height="1.4"/>
	</g>
	<g>
		<rect x="2.2" y="476.1" class="st0" width="1917" height="1.4"/>
	</g>
	<g>
		<rect y="615.1" class="st0" width="1917" height="1.4"/>
	</g>
	<g>
		<rect y="751.2" class="st0" width="1917" height="1.4"/>
	</g>
	<g>
		<rect x="1.8" y="887.2" class="st0" width="1917" height="1.4"/>
	</g>
	<g>
		<rect x="0.9" y="1022.2" class="st0" width="1917" height="1.4"/>
	</g>
	<g>
		<rect x="84.1" y="-0.1" class="st0" width="1.4" height="1080.3"/>
	</g>
	<g>
		<rect x="220.1" y="-0.1" class="st0" width="1.4" height="1080.3"/>
	</g>
	<g>
		<rect x="351.2" y="-1.1" class="st0" width="1.4" height="1080.3"/>
	</g>
	<g>
		<rect x="483.3" y="-0.6" class="st0" width="1.4" height="1080.3"/>
	</g>
	<g>
		<rect x="616.4" y="-0.6" class="st0" width="1.4" height="1080.3"/>
	</g>
	<g>
		<rect x="753.5" y="-1.6" class="st0" width="1.4" height="1080.3"/>
	</g>
	<g>
		<rect x="890.5" y="-1.1" class="st0" width="1.4" height="1080.3"/>
	</g>
	<g>
		<rect x="1029.6" y="0.2" class="st0" width="1.4" height="1080.3"/>
	</g>
	<g>
		<rect x="1165.7" y="0.2" class="st0" width="1.4" height="1080.3"/>
	</g>
	<g>
		<rect x="1301.8" y="-0.8" class="st0" width="1.4" height="1080.3"/>
	</g>
	<g>
		<rect x="1436.9" y="-0.3" class="st0" width="1.4" height="1080.3"/>
	</g>
	<g>
		<rect x="1572.9" y="-0.3" class="st0" width="1.4" height="1080.3"/>
	</g>
	<g>
		<rect x="1699" y="-1.3" class="st0" width="1.4" height="1080.3"/>
	</g>
	<g>
		<rect x="1836.1" y="-0.8" class="st0" width="1.4" height="1080.3"/>
	</g>
	<g>
		<rect x="1098.7" y="0.1" class="st1" width="1.4" height="1080.3"/>
	</g>
	<g>
		<rect x="1232.9" y="0.1" class="st1" width="2.8" height="1080.3"/>
	</g>
	<g>
		<rect x="1368.6" y="0.1" class="st1" width="1.4" height="1080.3"/>
	</g>
	<g>
		<rect x="1502.9" y="0.1" class="st1" width="2.8" height="1080.3"/>
	</g>
	<g>
		<rect x="1631.7" y="1.1" class="st1" width="1.4" height="1080.3"/>
	</g>
	<g>
		<rect x="1766" y="1.1" class="st1" width="2.8" height="1080.3"/>
	</g>
	<g>
		<rect x="1905.7" y="0.1" class="st1" width="1.4" height="1080.3"/>
	</g>
	<g>
		<rect x="818.1" y="0.7" class="st1" width="1.4" height="1080.3"/>
	</g>
	<g>
		<rect x="683.2" y="0.7" class="st1" width="2.8" height="1080.3"/>
	</g>
	<g>
		<rect x="549.6" y="0.7" class="st1" width="1.4" height="1080.3"/>
	</g>
	<g>
		<rect x="414.7" y="0.7" class="st1" width="2.8" height="1080.3"/>
	</g>
	<g>
		<rect x="288.2" y="-0.3" class="st1" width="1.4" height="1080.3"/>
	</g>
	<g>
		<rect x="153.2" y="-0.3" class="st1" width="2.8" height="1080.3"/>
	</g>
	<g>
		<rect x="15.6" y="0.7" class="st1" width="1.4" height="1080.3"/>
	</g>
	<g>
		<rect x="1" y="685" class="st1" width="1920.1" height="1.4"/>
	</g>
	<g>
		<rect x="1" y="819.3" class="st1" width="1920.1" height="2.8"/>
	</g>
	<g>
		<rect x="1" y="954.9" class="st1" width="1920.1" height="1.4"/>
	</g>
	<g>
		<rect y="404.6" class="st1" width="1920.1" height="1.4"/>
	</g>
	<g>
		<rect y="269.7" class="st1" width="1920.1" height="2.8"/>
	</g>
	<g>
		<rect y="136.2" class="st1" width="1920.1" height="1.4"/>
	</g>
	<g>
		<rect x="959.6" y="0.1" class="st2" width="3" height="1080.3"/>
	</g>
	<g>
		<rect y="542.1" class="st2" width="1921.1" height="4.1"/>
	</g>
</g>
<rect x="666.8" y="191.8" class="st3" width="120.7" height="166.2"/>
<rect x="27.8" y="40.1" class="st3" width="585" height="110.3"/>
<rect x="1010.4" y="492.4" transform="matrix(-1.836970e-16 1 -1 -1.836970e-16 1558.2584 -469.0635)" class="st4" width="6.4" height="104.4"/>
<polygon class="st4" points="1099.3,542.7 1065.8,523.4 1065.8,562.1 "/>
<rect x="958.9" y="436.3" transform="matrix(1 1.284633e-03 -1.284633e-03 1 0.6331 -1.2355)" class="st5" width="6.4" height="111.8"/>
<polygon class="st5" points="961.8,406.5 942.4,440 981.1,440 "/>
<g>
	<path class="st6" d="M989.8,518.1c0-1,0.3-1.8,1-2.4s1.3-0.8,2-0.8c0.7,0,1.3,0.2,1.6,0.6c0.3,0.4,0.5,0.8,0.5,1.3
		c0,0.2,0,0.4-0.1,0.7c-0.1,0.3-0.3,0.7-0.7,1.1c-0.4,0.5-0.9,0.8-1.5,1c0.7,0.4,1.4,0.5,2,0.6c1.7,0,3.1-0.8,4.3-2.5s2-3.5,2.5-5.4
		l5.7-22.9c0.3-1.1,0.4-2.1,0.4-3c0-1.6-0.5-2.4-1.6-2.4c-2.7,0-5,2.5-7,7.5c-0.1,0.4-0.2,0.6-0.3,0.7c-0.1,0.1-0.2,0.2-0.3,0.2
		c-0.1,0-0.3,0.1-0.5,0.1c-0.6,0-0.9-0.2-0.9-0.6c0-0.1,0.1-0.5,0.4-1.1s0.6-1.4,1.1-2.3c0.5-0.9,1.1-1.8,1.8-2.7
		c0.7-0.9,1.5-1.6,2.6-2.2c1-0.6,2.1-0.9,3.2-0.9c1.6,0,2.9,0.5,3.9,1.6c0.9,1.1,1.4,2.3,1.4,3.8c0,0.7-0.1,1.4-0.4,2l-5.6,22.5
		c-0.6,2.5-2,4.7-4.1,6.4c-2.1,1.7-4.3,2.6-6.6,2.6c-1.4,0-2.5-0.3-3.5-0.9C990.3,520,989.8,519.2,989.8,518.1z M1008.3,472.8
		c0-0.7,0.3-1.4,0.9-2c0.6-0.6,1.3-0.9,2.1-0.9c0.5,0,1,0.1,1.4,0.4c0.4,0.3,0.7,0.8,0.7,1.6c0,0.7-0.3,1.4-0.9,1.9
		c-0.6,0.6-1.3,0.9-2,0.9c-0.7,0-1.2-0.2-1.6-0.6C1008.5,473.7,1008.3,473.3,1008.3,472.8z"/>
</g>
<g>
	<path class="st7" d="M1006.2,593.6c0-0.1,0.1-0.5,0.3-1.2c0.2-0.7,0.5-1.5,0.9-2.5c0.4-1,1-2,1.6-3c0.6-0.9,1.4-1.7,2.4-2.4
		c1-0.7,2.1-1,3.2-1c1.4,0,2.5,0.4,3.5,1.3c1,0.9,1.5,2.2,1.5,3.9c0,0.9-0.3,2.1-0.9,3.6l-4.2,11.3c-1.1,3.3-1.6,5.4-1.6,6.3
		c0,1.2,0.5,1.8,1.4,1.8c2.6,0,4.6-2.7,6.1-8.2c0.1-0.5,0.2-0.9,0.4-0.9s0.4-0.1,0.8-0.1c0.7,0,1,0.2,1,0.6c0,0.1-0.1,0.5-0.3,1.2
		c-0.2,0.6-0.5,1.5-0.9,2.5c-0.4,1-1,2-1.6,3c-0.6,1-1.4,1.8-2.4,2.5c-1,0.7-2.1,1-3.2,1c-1.6,0-2.9-0.5-3.7-1.6
		c-0.9-1.1-1.3-2.3-1.3-3.7c0-0.9,0.4-2.4,1.2-4.6c1-2.9,1.9-5,2.4-6.5l2-5.5c0.8-2.1,1.2-3.7,1.2-4.7c0-1.2-0.5-1.8-1.4-1.8
		c-2.6,0-4.6,2.8-6.1,8.3c-0.1,0.5-0.3,0.8-0.4,0.9c-0.1,0.1-0.4,0.2-0.8,0.2C1006.5,594.2,1006.2,594,1006.2,593.6z M1016.7,572.6
		c0-0.9,0.3-1.6,1-2.2s1.4-0.9,2.2-0.9c0.6,0,1.1,0.2,1.6,0.5c0.5,0.3,0.7,0.9,0.7,1.6c0,0.9-0.4,1.6-1.1,2.2s-1.4,0.9-2.2,0.9
		c-0.6,0-1.1-0.2-1.6-0.5C1017,573.9,1016.7,573.3,1016.7,572.6z"/>
</g>
<g>
	<path class="st7" d="M1006.9,566.3l12.3-9.5l12.3,9.5l-1,1.4l-11.4-7.4l-11.3,7.4L1006.9,566.3z"/>
</g>
<g>
	<g>
		<path class="st6" d="M1000,464.1l11.2-8.6l11.3,8.6l-0.9,1.3l-10.4-6.7l-10.4,6.7L1000,464.1z"/>
	</g>
</g>
<rect x="903.9" y="488.5" transform="matrix(-1.836970e-16 1 -1 -1.836970e-16 1451.0321 -363.1318)" class="st8" width="6.4" height="111"/>
<polygon class="st8" points="818.1,544 851.6,563.3 851.6,524.6 "/>
<rect x="816.6" y="299.1" transform="matrix(1 1.284637e-03 -1.284637e-03 1 0.5443 -1.0529)" class="st9" width="6.4" height="248.3"/>
<polygon class="st9" points="819.5,269.6 800.1,303.1 838.8,303.1 "/>
<rect x="894.9" y="282.6" transform="matrix(0.8852 -0.4652 0.4652 0.8852 -93.6777 466.3593)" class="st10" width="6.4" height="280.8"/>
<polygon class="st10" points="818.8,269.6 817.3,308.3 851.5,290.3 "/>
<g>
	<g>
		<path class="st2" d="M692.6,243v-1.9h28.3v1.9H692.6z"/>
		<path class="st2" d="M725.7,225.1v-1.8c4.6,0,8-1.2,10.4-3.6c0.6,0,1,0.1,1.1,0.2c0.1,0.1,0.2,0.6,0.2,1.2V253
			c0,1.1,0.3,1.9,0.9,2.2c0.6,0.4,2.1,0.5,4.6,0.5h1.9v1.8c-1.3-0.1-4.4-0.2-9.2-0.2c-4.8,0-7.9,0.1-9.2,0.2v-1.8h1.8
			c2.4,0,3.9-0.2,4.4-0.5c0.6-0.3,0.9-1.1,0.9-2.2v-29.3C731.4,224.6,728.8,225.1,725.7,225.1z"/>
	</g>
</g>
<g>
	<g>
		<path class="st2" d="M712.4,329.6c0-0.7,0-1.1,0.1-1.3c0.1-0.2,0.2-0.5,0.5-0.8l10.8-12.1c4-4.5,6-8.7,6-12.6c0-2.5-0.7-4.7-2-6.5
			c-1.3-1.8-3.2-2.7-5.6-2.7c-1.6,0-3.2,0.5-4.6,1.5c-1.4,1-2.4,2.4-3,4.2c0.1,0,0.4-0.1,0.7-0.1c0.9,0,1.6,0.3,2.2,0.9
			c0.5,0.6,0.8,1.3,0.8,2.1c0,1-0.3,1.8-1,2.3c-0.6,0.5-1.3,0.7-1.9,0.7c-0.3,0-0.5,0-0.9-0.1c-0.3-0.1-0.8-0.3-1.3-0.9
			c-0.5-0.5-0.8-1.3-0.8-2.2c0-2.6,1-5,3-7.1s4.5-3.1,7.5-3.1c3.4,0,6.3,1,8.5,3.1c2.3,2.1,3.4,4.7,3.4,7.9c0,1.1-0.2,2.2-0.5,3.2
			c-0.3,1-0.7,1.9-1.2,2.7c-0.4,0.8-1.3,1.8-2.5,3.1c-1.2,1.3-2.3,2.4-3.3,3.3s-2.5,2.3-4.7,4.2l-6,5.8h10.1c3.3,0,5.1-0.1,5.3-0.4
			c0.4-0.5,0.8-2.2,1.2-5h1.4l-1.6,9.9H712.4z"/>
	</g>
</g>
<g>
	<g>
		<path class="st11" d="M674.3,347.7V199.6h18.5v3.3h-10.4v141.6h10.4v3.3H674.3z"/>
	</g>
</g>
<g>
	<g>
		<path class="st11" d="M754.3,344.5h10.4V202.9h-10.4v-3.3h18.5v148.1h-18.5V344.5z"/>
	</g>
</g>
<g>
	<path class="st2" d="M116.5,93.1c0-0.6,0.5-0.9,1.6-0.9h48c1.6,0,2.4,0.3,2.4,0.9c0,0.6-0.7,0.8-2,0.8h-48.4
		C117,94,116.5,93.7,116.5,93.1z M116.5,108.5c0.1-0.6,0.6-0.9,1.6-0.9h48.1c1.5,0,2.3,0.3,2.3,0.8c0,0.6-0.7,0.9-2.1,0.9h-47.7
		C117.2,109.3,116.5,109,116.5,108.5z"/>
</g>
<g>
	<path class="st7" d="M201.7,103.6c0-8.8,1.6-16.8,4.9-24c1.4-3,3.1-5.7,5.1-8.2c2-2.5,3.6-4.3,4.9-5.4c1.3-1.1,2.1-1.6,2.5-1.6
		c0.5,0,0.8,0.3,0.8,0.8c0,0.3-0.3,0.7-1,1.3c-8.4,8.6-12.6,21-12.6,37.1c0,16.2,4.1,28.5,12.3,36.7c0.9,0.9,1.3,1.5,1.3,1.8
		c0,0.5-0.3,0.8-0.8,0.8c-0.4,0-1.2-0.5-2.4-1.6c-1.3-1-2.8-2.8-4.8-5.2c-1.9-2.4-3.6-5.1-5-8C203.5,121,201.7,112.8,201.7,103.6z"
		/>
	<path class="st7" d="M224.4,103.2v-2.7h39.2v2.7H224.4z"/>
	<path class="st7" d="M270.2,78.4V76c6.3,0,11.1-1.7,14.4-5c0.8,0,1.3,0.1,1.5,0.3c0.1,0.2,0.2,0.8,0.2,1.7v44
		c0,1.6,0.4,2.6,1.2,3.1c0.8,0.5,2.9,0.7,6.4,0.7h2.6v2.5c-1.8-0.2-6.1-0.2-12.7-0.2c-6.6,0-10.9,0.1-12.7,0.2v-2.5h2.5
		c3.3,0,5.3-0.2,6.1-0.7c0.8-0.5,1.2-1.5,1.2-3.1V76.4C278.1,77.7,274.5,78.4,270.2,78.4z"/>
	<path class="st7" d="M307.4,142.1c0-0.3,0.3-0.7,1-1.3c8.4-8.6,12.6-21,12.6-37.1c0-16.2-4-28.4-12.2-36.6c-1-0.9-1.5-1.6-1.5-1.8
		c0-0.5,0.3-0.8,0.8-0.8c0.4,0,1.2,0.5,2.4,1.6c1.3,1,2.9,2.8,4.8,5.2c1.9,2.4,3.6,5.1,5,8c3.5,7.1,5.2,15.3,5.2,24.5
		c0,8.8-1.6,16.8-4.9,24c-1.4,3-3.1,5.7-5.1,8.2s-3.6,4.3-4.9,5.4c-1.3,1.1-2.1,1.6-2.5,1.6C307.6,142.9,307.4,142.6,307.4,142.1z"
		/>
	<path class="st7" d="M339.8,100.6c0-0.2,0.1-0.6,0.3-1.4c0.2-0.8,0.6-1.8,1.1-3c0.5-1.2,1.2-2.4,1.9-3.5c0.7-1.1,1.7-2.1,2.9-2.9
		c1.2-0.8,2.5-1.2,3.8-1.2c1.6,0,3,0.5,4.2,1.6c1.2,1.1,1.8,2.6,1.8,4.7c0,1.1-0.4,2.5-1.1,4.3l-5,13.5c-1.3,3.9-2,6.4-2,7.6
		c0,1.5,0.6,2.2,1.7,2.2c3.1,0,5.5-3.3,7.3-9.8c0.2-0.6,0.3-1,0.4-1.1c0.1-0.1,0.4-0.2,0.9-0.2c0.8,0,1.2,0.3,1.2,0.8
		c0,0.2-0.1,0.6-0.3,1.4c-0.2,0.8-0.6,1.8-1.1,3c-0.5,1.2-1.1,2.4-1.9,3.6c-0.7,1.1-1.7,2.1-2.9,3c-1.2,0.8-2.5,1.2-3.8,1.2
		c-1.9,0-3.4-0.6-4.4-1.9c-1-1.3-1.5-2.7-1.5-4.4c0-1.1,0.5-2.9,1.4-5.5c1.3-3.4,2.2-6,2.9-7.7l2.3-6.5c0.9-2.6,1.4-4.4,1.4-5.7
		c0-1.5-0.6-2.2-1.7-2.2c-3.1,0-5.5,3.3-7.3,9.9c-0.2,0.6-0.3,0.9-0.5,1.1c-0.2,0.1-0.5,0.2-0.9,0.2
		C340.2,101.4,339.8,101.1,339.8,100.6z M352.5,75.5c0-1,0.4-1.9,1.2-2.7c0.8-0.7,1.7-1.1,2.6-1.1c0.7,0,1.3,0.2,1.9,0.6
		s0.8,1.1,0.8,2c0,1-0.4,1.9-1.3,2.7c-0.8,0.7-1.7,1.1-2.6,1.1c-0.7,0-1.3-0.2-1.9-0.6C352.8,77.1,352.5,76.4,352.5,75.5z"/>
	<path class="st2" d="M389.9,103.6c0-0.6,0.6-0.9,1.9-0.9c0.2,0,0.4,0,0.6,0c0.3,0,0.4,0,0.5,0H415V80.5c0-0.1,0-0.2,0-0.4
		s0-0.4,0-0.6c0-1.3,0.3-1.9,1-1.9c0.7,0,1,0.6,1,1.9v23.3h22.2c0.1,0,0.2,0,0.5,0c0.3,0,0.5,0,0.6,0c1.2,0,1.8,0.3,1.8,0.9
		c0,0.6-0.6,0.9-1.9,0.9c-0.2,0-0.3,0-0.6,0c-0.2,0-0.4,0-0.4,0H417v23.3c0,1.2-0.3,1.8-1,1.8c-0.7,0-1-0.6-1-1.9c0-0.2,0-0.4,0-0.6
		s0-0.4,0-0.4v-22.2h-22.1c-0.1,0-0.2,0-0.5,0c-0.3,0-0.5,0-0.7,0C390.5,104.6,389.9,104.3,389.9,103.6z"/>
	<path class="st6" d="M480.4,103.6c0-8.8,1.6-16.8,4.9-24c1.4-3,3.1-5.7,5.1-8.2c2-2.5,3.6-4.3,4.9-5.4c1.3-1.1,2.1-1.6,2.5-1.6
		c0.5,0,0.8,0.3,0.8,0.8c0,0.3-0.3,0.7-1,1.3c-8.4,8.6-12.6,21-12.6,37.1c0,16.2,4.1,28.5,12.3,36.7c0.9,0.9,1.3,1.5,1.3,1.8
		c0,0.5-0.3,0.8-0.8,0.8c-0.4,0-1.2-0.5-2.4-1.6c-1.3-1-2.8-2.8-4.8-5.2c-1.9-2.4-3.6-5.1-5-8C482.1,121,480.4,112.8,480.4,103.6z"
		/>
	<path class="st6" d="M506.9,123.2c0-0.9,0-1.6,0.1-1.8c0.1-0.3,0.3-0.6,0.7-1.1l14.9-16.8c5.5-6.2,8.3-12,8.3-17.4
		c0-3.5-0.9-6.5-2.7-9c-1.8-2.5-4.4-3.7-7.8-3.7c-2.3,0-4.4,0.7-6.3,2.1c-1.9,1.4-3.3,3.3-4.2,5.8c0.2-0.1,0.5-0.1,1-0.1
		c1.3,0,2.3,0.4,3,1.2c0.7,0.8,1.1,1.8,1.1,2.9c0,1.4-0.4,2.5-1.3,3.2c-0.9,0.7-1.8,1-2.7,1c-0.4,0-0.8,0-1.2-0.1
		c-0.5-0.1-1.1-0.5-1.8-1.2c-0.7-0.7-1.1-1.8-1.1-3.1c0-3.6,1.4-6.9,4.1-9.8c2.7-2.9,6.2-4.4,10.4-4.4c4.8,0,8.7,1.4,11.8,4.3
		c3.1,2.8,4.7,6.5,4.7,10.9c0,1.6-0.2,3.1-0.7,4.5c-0.5,1.4-1,2.7-1.6,3.8c-0.6,1.1-1.8,2.5-3.4,4.3c-1.7,1.8-3.2,3.3-4.5,4.5
		c-1.3,1.3-3.5,3.2-6.5,5.9l-8.3,8.1h14c4.6,0,7-0.2,7.4-0.6c0.5-0.7,1.1-3.1,1.7-7h2l-2.2,13.6H506.9z"/>
	<path class="st6" d="M546.8,142.1c0-0.3,0.3-0.7,1-1.3c8.4-8.6,12.6-21,12.6-37.1c0-16.2-4-28.4-12.2-36.6c-1-0.9-1.5-1.6-1.5-1.8
		c0-0.5,0.3-0.8,0.8-0.8c0.4,0,1.2,0.5,2.4,1.6c1.3,1,2.9,2.8,4.8,5.2c1.9,2.4,3.6,5.1,5,8c3.5,7.1,5.2,15.3,5.2,24.5
		c0,8.8-1.6,16.8-4.9,24c-1.4,3-3.1,5.7-5.1,8.2s-3.6,4.3-4.9,5.4c-1.3,1.1-2.1,1.6-2.5,1.6C547,142.9,546.8,142.6,546.8,142.1z"/>
	<path class="st6" d="M569.9,134.8c0-1.4,0.4-2.4,1.3-3.1c0.8-0.7,1.7-1.1,2.6-1.1c0.9,0,1.6,0.3,2.1,0.8c0.4,0.5,0.7,1.1,0.7,1.7
		c0,0.3-0.1,0.6-0.2,1c-0.1,0.4-0.4,0.9-0.9,1.5c-0.5,0.6-1.1,1-1.9,1.3c0.9,0.5,1.8,0.7,2.6,0.7c2.2,0,4.1-1.1,5.7-3.2
		c1.6-2.1,2.7-4.5,3.3-7.1l7.4-29.9c0.3-1.5,0.5-2.8,0.5-4c0-2.1-0.7-3.1-2.2-3.1c-3.5,0-6.6,3.3-9.2,9.8c-0.1,0.5-0.3,0.8-0.4,0.9
		c-0.1,0.2-0.2,0.3-0.4,0.3c-0.1,0.1-0.4,0.1-0.7,0.1c-0.8,0-1.2-0.3-1.2-0.8c0-0.2,0.2-0.6,0.5-1.4c0.3-0.8,0.8-1.8,1.5-3
		c0.7-1.2,1.5-2.4,2.4-3.5c0.9-1.1,2-2.1,3.4-2.9c1.3-0.8,2.7-1.2,4.2-1.2c2.1,0,3.8,0.7,5,2.1c1.2,1.4,1.8,3,1.8,5
		c0,0.9-0.2,1.8-0.5,2.6l-7.3,29.4c-0.8,3.3-2.6,6.1-5.3,8.4c-2.7,2.3-5.6,3.4-8.6,3.4c-1.8,0-3.3-0.4-4.5-1.2
		S569.9,136.2,569.9,134.8z M594.2,75.5c0-0.9,0.4-1.8,1.2-2.6c0.8-0.8,1.7-1.2,2.7-1.2c0.6,0,1.3,0.2,1.8,0.6
		c0.6,0.4,0.9,1.1,0.9,2.1c0,0.9-0.4,1.8-1.2,2.5c-0.8,0.8-1.7,1.1-2.6,1.1c-0.9,0-1.6-0.3-2-0.8C594.4,76.7,594.2,76.2,594.2,75.5z
		"/>
</g>
<g>
	<path class="st7" d="M343,68l14.7-11.3L372.4,68l-1.2,1.6l-13.6-8.8l-13.5,8.8L343,68z"/>
</g>
<g>
	<g>
		<path class="st6" d="M583.3,68L598,56.7L612.8,68l-1.2,1.6L598,60.8l-13.5,8.8L583.3,68z"/>
	</g>
</g>
<g>
	<path class="st12" d="M45.2,89.2v-4.9c0.7,0,2.6,0.1,5.7,0.2c3.1,0.1,5.2,0.2,6.3,0.2c5.2,0,9.5-0.1,13-0.3v4.9h-5.7l13.3,28.7
		l12.2-26.3c0.3-0.7,0.5-1.1,0.5-1.3c0-0.8-1.5-1.1-4.6-1.1c-0.1,0-0.3,0-0.4,0v-4.9c4.4,0.2,7.6,0.3,9.5,0.3c2.9,0,5.6-0.1,8.3-0.3
		v4.9c-3.1,0-5.1,0.2-5.9,0.5c-0.9,0.3-1.5,0.9-1.9,1.7l-17.4,37.4c-0.8,1.7-2.1,2.5-3.9,2.5c-1.8,0-3.1-0.9-4-2.6L52,89.2H45.2z"/>
</g>
<g>
	<path class="st12" d="M42.5,61.4h50.9l-9.2-8.8l2.4-1.7l15.8,11.5v1.9L86.6,75.9l-2.4-1.7l9.2-8.8H42.5V61.4z"/>
</g>
</svg>
