<svg width="640" height="360" viewBox="0 0 640 360" fill="none" xmlns="http://www.w3.org/2000/svg">
<g clip-path="url(#clip0_1601_34537)">
<path d="M640 0H0V360H640V0Z" fill="black"/>
<g clip-path="url(#clip1_1601_34537)">
<path d="M0 20H640" stroke="#505050" stroke-width="1.5"/>
<path d="M0 60H640" stroke="#505050" stroke-width="1.5"/>
<path d="M0 100H640" stroke="#505050" stroke-width="1.5"/>
<path d="M0 140H640" stroke="#505050" stroke-width="1.5"/>
<path d="M0 180H640" stroke="#505050" stroke-width="1.5"/>
<path d="M0 220H640" stroke="#505050" stroke-width="1.5"/>
<path d="M0 260H640" stroke="#505050" stroke-width="1.5"/>
<path d="M0 300H640" stroke="#505050" stroke-width="1.5"/>
<path d="M0 340H640" stroke="#505050" stroke-width="1.5"/>
<path d="M0 0V360" stroke="#505050" stroke-width="1.5"/>
<path d="M40 0V360" stroke="#505050" stroke-width="1.5"/>
<path d="M80 0V360" stroke="#505050" stroke-width="1.5"/>
<path d="M120 0V360" stroke="#505050" stroke-width="1.5"/>
<path d="M160 0V360" stroke="#505050" stroke-width="1.5"/>
<path d="M200 0V360" stroke="#505050" stroke-width="1.5"/>
<path d="M240 0V360" stroke="#505050" stroke-width="1.5"/>
<path d="M280 0V360" stroke="#505050" stroke-width="1.5"/>
<path d="M320 0V360" stroke="#505050" stroke-width="1.5"/>
<path d="M360 0V360" stroke="#505050" stroke-width="1.5"/>
<path d="M400 0V360" stroke="#505050" stroke-width="1.5"/>
<path d="M440 0V360" stroke="#505050" stroke-width="1.5"/>
<path d="M480 0V360" stroke="#505050" stroke-width="1.5"/>
<path d="M520 0V360" stroke="#505050" stroke-width="1.5"/>
<path d="M560 0V360" stroke="#505050" stroke-width="1.5"/>
<path d="M600 0V360" stroke="#505050" stroke-width="1.5"/>
<path d="M640 0V360" stroke="#505050" stroke-width="1.5"/>
</g>
<path d="M0 180H640" stroke="#808080" stroke-width="1.5"/>
<path d="M320 0V360" stroke="#808080" stroke-width="1.5"/>
<path d="M640 0H0V360H640V0Z" stroke="#404040" stroke-width="2"/>
<g clip-path="url(#clip2_1601_34537)">
<path d="M2720 2180L-4960 -380" stroke="#6AB0F3" stroke-opacity="0.75" stroke-width="1.10627"/>
<path d="M2800 2140L-4880 -420" stroke="#6AB0F3" stroke-opacity="0.75" stroke-width="1.10627"/>
<path d="M2880 2100L-4800 -460" stroke="#6AB0F3" stroke-opacity="0.75" stroke-width="1.10627"/>
<path d="M2960 2060L-4720 -500" stroke="#6AB0F3" stroke-opacity="0.75" stroke-width="1.10627"/>
<path d="M3040 2020L-4640 -540" stroke="#6AB0F3" stroke-opacity="0.75" stroke-width="1.10627"/>
<path d="M3120 1980L-4560 -580" stroke="#6AB0F3" stroke-opacity="0.75" stroke-width="1.10627"/>
<path d="M3200 1940L-4480 -620" stroke="#6AB0F3" stroke-opacity="0.75" stroke-width="1.10627"/>
<path d="M3280 1900L-4400 -660" stroke="#6AB0F3" stroke-opacity="0.75" stroke-width="1.10627"/>
<path d="M3360 1860L-4320 -700" stroke="#6AB0F3" stroke-opacity="0.75" stroke-width="1.10627"/>
<path d="M3440 1820L-4240 -740" stroke="#6AB0F3" stroke-opacity="0.75" stroke-width="1.10627"/>
<path d="M3520 1780L-4160 -780" stroke="#6AB0F3" stroke-opacity="0.75" stroke-width="1.10627"/>
<path d="M3600 1740L-4080 -820" stroke="#6AB0F3" stroke-opacity="0.75" stroke-width="1.10627"/>
<path d="M3680 1700L-4000 -860" stroke="#6AB0F3" stroke-opacity="0.75" stroke-width="1.10627"/>
<path d="M3760 1660L-3920 -900" stroke="#6AB0F3" stroke-opacity="0.75" stroke-width="1.10627"/>
<path d="M3840 1620L-3840 -940" stroke="#6AB0F3" stroke-opacity="0.75" stroke-width="1.10627"/>
<path d="M3920 1580L-3760 -980" stroke="#6AB0F3" stroke-opacity="0.75" stroke-width="1.10627"/>
<path d="M4000 1540L-3680 -1020" stroke="#6AB0F3" stroke-opacity="0.75" stroke-width="1.10627"/>
<path d="M4080 1500L-3600 -1060" stroke="#6AB0F3" stroke-opacity="0.75" stroke-width="1.10627"/>
<path d="M4160 1460L-3520 -1100" stroke="#6AB0F3" stroke-opacity="0.75" stroke-width="1.10627"/>
<path d="M4240 1420L-3440 -1140" stroke="#6AB0F3" stroke-opacity="0.75" stroke-width="1.10627"/>
<path d="M4320 1380L-3360 -1180" stroke="#6AB0F3" stroke-opacity="0.75" stroke-width="1.10627"/>
<path d="M4400 1340L-3280 -1220" stroke="#6AB0F3" stroke-opacity="0.75" stroke-width="1.10627"/>
<path d="M4480 1300L-3200 -1260" stroke="#6AB0F3" stroke-opacity="0.75" stroke-width="1.10627"/>
<path d="M4560 1260L-3120 -1300" stroke="#6AB0F3" stroke-opacity="0.75" stroke-width="1.10627"/>
<path d="M4640 1220L-3040 -1340" stroke="#6AB0F3" stroke-opacity="0.75" stroke-width="1.10627"/>
<path d="M4720 1180L-2960 -1380" stroke="#6AB0F3" stroke-opacity="0.75" stroke-width="1.10627"/>
<path d="M4800 1140L-2880 -1420" stroke="#6AB0F3" stroke-opacity="0.75" stroke-width="1.10627"/>
<path d="M4880 1100L-2800 -1460" stroke="#6AB0F3" stroke-opacity="0.75" stroke-width="1.10627"/>
<path d="M4960 1060L-2720 -1500" stroke="#6AB0F3" stroke-opacity="0.75" stroke-width="1.10627"/>
<path d="M5040 1020L-2640 -1540" stroke="#6AB0F3" stroke-opacity="0.75" stroke-width="1.10627"/>
<path d="M5120 980L-2560 -1580" stroke="#6AB0F3" stroke-opacity="0.75" stroke-width="1.10627"/>
<path d="M5200 940L-2480 -1620" stroke="#6AB0F3" stroke-opacity="0.75" stroke-width="1.10627"/>
<path d="M5280 900L-2400 -1660" stroke="#6AB0F3" stroke-opacity="0.75" stroke-width="1.10627"/>
<path d="M5360 860L-2320 -1700" stroke="#6AB0F3" stroke-opacity="0.75" stroke-width="1.10627"/>
<path d="M5440 820L-2240 -1740" stroke="#6AB0F3" stroke-opacity="0.75" stroke-width="1.10627"/>
<path d="M5520 780L-2160 -1780" stroke="#6AB0F3" stroke-opacity="0.75" stroke-width="1.10627"/>
<path d="M5600 740L-2080 -1820" stroke="#6AB0F3" stroke-opacity="0.75" stroke-width="1.10627"/>
<path d="M560 1460L3440 20" stroke="#6AB0F3" stroke-opacity="0.75" stroke-width="1.10627"/>
<path d="M440 1420L3320 -20" stroke="#6AB0F3" stroke-opacity="0.75" stroke-width="1.10627"/>
<path d="M320 1380L3200 -60" stroke="#6AB0F3" stroke-opacity="0.75" stroke-width="1.10627"/>
<path d="M200 1340L3080 -100" stroke="#6AB0F3" stroke-opacity="0.75" stroke-width="1.10627"/>
<path d="M80.0002 1300L2960 -140" stroke="#6AB0F3" stroke-opacity="0.75" stroke-width="1.10627"/>
<path d="M-39.9999 1260L2840 -180" stroke="#6AB0F3" stroke-opacity="0.75" stroke-width="1.10627"/>
<path d="M-160 1220L2720 -220" stroke="#6AB0F3" stroke-opacity="0.75" stroke-width="1.10627"/>
<path d="M-280 1180L2600 -260" stroke="#6AB0F3" stroke-opacity="0.75" stroke-width="1.10627"/>
<path d="M-400 1140L2480 -300" stroke="#6AB0F3" stroke-opacity="0.75" stroke-width="1.10627"/>
<path d="M-520 1100L2360 -340" stroke="#6AB0F3" stroke-opacity="0.75" stroke-width="1.10627"/>
<path d="M-640 1060L2240 -380" stroke="#6AB0F3" stroke-opacity="0.75" stroke-width="1.10627"/>
<path d="M-760 1020L2120 -420" stroke="#6AB0F3" stroke-opacity="0.75" stroke-width="1.10627"/>
<path d="M-880 980L2000 -460" stroke="#6AB0F3" stroke-opacity="0.75" stroke-width="1.10627"/>
<path d="M-1000 940L1880 -500" stroke="#6AB0F3" stroke-opacity="0.75" stroke-width="1.10627"/>
<path d="M-1120 900L1760 -540" stroke="#6AB0F3" stroke-opacity="0.75" stroke-width="1.10627"/>
<path d="M-1240 860L1640 -580" stroke="#6AB0F3" stroke-opacity="0.75" stroke-width="1.10627"/>
<path d="M-1360 820L1520 -620" stroke="#6AB0F3" stroke-opacity="0.75" stroke-width="1.10627"/>
<path d="M-1480 780L1400 -660" stroke="#6AB0F3" stroke-opacity="0.75" stroke-width="1.10627"/>
<path d="M-1600 740L1280 -700" stroke="#6AB0F3" stroke-opacity="0.75" stroke-width="1.10627"/>
<path d="M-1720 700L1160 -740" stroke="#6AB0F3" stroke-opacity="0.75" stroke-width="1.10627"/>
<path d="M-1840 660L1040 -780" stroke="#6AB0F3" stroke-opacity="0.75" stroke-width="1.10627"/>
<path d="M-1960 620L920 -820" stroke="#6AB0F3" stroke-opacity="0.75" stroke-width="1.10627"/>
<path d="M-2080 580L800 -860" stroke="#6AB0F3" stroke-opacity="0.75" stroke-width="1.10627"/>
<path d="M-2200 540L680 -900" stroke="#6AB0F3" stroke-opacity="0.75" stroke-width="1.10627"/>
<path d="M-2320 500L560 -940" stroke="#6AB0F3" stroke-opacity="0.75" stroke-width="1.10627"/>
<path d="M-2440 460L440 -980" stroke="#6AB0F3" stroke-opacity="0.75" stroke-width="1.10627"/>
<path d="M-2560 420L320 -1020" stroke="#6AB0F3" stroke-opacity="0.75" stroke-width="1.10627"/>
<path d="M-2680 380L200 -1060" stroke="#6AB0F3" stroke-opacity="0.75" stroke-width="1.10627"/>
<path d="M-2800 340L80.0002 -1100" stroke="#6AB0F3" stroke-opacity="0.75" stroke-width="1.10627"/>
<path d="M-3520 -1100L4160 1460" stroke="#79B9F6" stroke-width="1.10627"/>
<path d="M-1120 900L1760 -540" stroke="#79B9F6" stroke-width="1.10627"/>
<rect x="160" y="233.486" width="308.24" height="56.87" fill="black"/>
<g clip-path="url(#clip3_1601_34537)">
<path d="M172.165 257.971C172.328 258.011 172.966 258.032 174.079 258.032C175.07 258.032 175.606 258.011 175.688 257.971H175.81V259.233H174.385L172.328 263.835C171.5 265.708 171.025 266.726 170.903 266.889C170.794 267.025 170.665 267.093 170.516 267.093C170.489 267.093 170.441 267.093 170.373 267.093C170.305 267.093 170.238 267.086 170.17 267.072H169.864C169.661 267.072 169.498 266.971 169.376 266.767C169.253 266.563 168.962 265.953 168.5 264.934C168.296 264.486 168.133 264.12 168.011 263.835L165.955 259.233H164.529V257.971H164.692C164.896 258.011 165.649 258.032 166.952 258.032C168.405 258.032 169.253 258.011 169.498 257.971H169.681V259.233H168.704L169.783 261.636C170.475 263.197 170.842 263.977 170.882 263.977C170.882 263.964 171.228 263.183 171.921 261.636C172.613 260.088 172.973 259.294 173 259.253C173 259.24 172.837 259.233 172.511 259.233H172.023V257.971H172.165Z" fill="#FFF888"/>
<path d="M172.766 252.208C172.766 252.1 172.8 252.004 172.868 251.923C172.935 251.842 173.037 251.801 173.173 251.801C173.268 251.801 173.349 251.835 173.417 251.903C173.485 251.957 173.553 252.086 173.621 252.29C173.757 252.792 174.035 253.179 174.456 253.45C174.605 253.545 174.68 253.667 174.68 253.817C174.68 253.939 174.659 254.02 174.619 254.061C174.578 254.102 174.483 254.163 174.334 254.244C173.75 254.543 173.241 254.971 172.807 255.527C172.779 255.554 172.745 255.595 172.705 255.649C172.664 255.704 172.63 255.744 172.603 255.771C172.576 255.799 172.542 255.812 172.501 255.812C172.46 255.812 172.413 255.819 172.359 255.833C172.264 255.833 172.175 255.799 172.094 255.731C172.012 255.663 171.965 255.561 171.951 255.425C171.951 255.167 172.27 254.767 172.908 254.224H169.426L165.945 254.204C165.768 254.081 165.68 253.952 165.68 253.817C165.68 253.722 165.768 253.586 165.945 253.409H173.254C172.929 252.894 172.766 252.493 172.766 252.208Z" fill="#FFF888"/>
<path d="M193.712 266.42C193.712 266.692 193.57 266.828 193.284 266.828C193.217 266.828 193.067 266.719 192.836 266.502C192.606 266.285 191.968 265.653 190.922 264.608L188.805 262.491L186.667 264.629C185.228 266.04 184.488 266.76 184.447 266.787C184.393 266.814 184.346 266.828 184.305 266.828C184.196 266.828 184.101 266.787 184.02 266.705C183.938 266.624 183.891 266.529 183.877 266.42C183.877 266.325 183.972 266.176 184.162 265.972C184.352 265.769 184.99 265.124 186.076 264.038L188.194 261.92L186.076 259.803C184.977 258.703 184.339 258.058 184.162 257.868C183.986 257.678 183.891 257.529 183.877 257.42C183.877 257.298 183.918 257.203 183.999 257.135C184.081 257.068 184.183 257.034 184.305 257.034C184.373 257.034 184.42 257.04 184.447 257.054C184.488 257.081 185.228 257.801 186.667 259.212L188.805 261.35L190.922 259.233C191.968 258.187 192.606 257.556 192.836 257.339C193.067 257.122 193.217 257.013 193.284 257.013C193.57 257.013 193.712 257.149 193.712 257.42C193.712 257.515 193.644 257.638 193.508 257.787C193.373 257.936 192.708 258.601 191.513 259.782L189.395 261.92L191.513 264.058C192.653 265.199 193.305 265.857 193.468 266.034C193.631 266.21 193.712 266.339 193.712 266.42Z" fill="#F0F0F0"/>
<path d="M213.956 257.97C214.119 258.011 214.784 258.031 215.951 258.031C216.969 258.031 217.499 258.011 217.54 257.97H217.641V259.233H216.338L213.325 266.787C213.311 266.801 213.291 266.821 213.264 266.848C213.236 266.875 213.209 266.902 213.182 266.93C213.155 266.957 213.141 266.97 213.141 266.97C213.141 266.97 213.121 266.984 213.08 267.011C213.04 267.038 213.026 267.052 213.04 267.052C213.053 267.052 213.026 267.058 212.958 267.072C212.89 267.086 212.863 267.086 212.877 267.072C212.89 267.058 212.863 267.065 212.795 267.092C212.727 267.12 212.687 267.12 212.673 267.092C212.659 267.065 212.605 267.065 212.51 267.092H212.286C212.055 267.092 211.892 267.025 211.797 266.889C211.702 266.753 211.512 266.319 211.227 265.586C211.01 265.043 210.827 264.588 210.678 264.221L209.7 261.778L208.723 264.221C208.587 264.574 208.411 265.016 208.193 265.545C207.908 266.292 207.718 266.733 207.623 266.868C207.528 267.004 207.365 267.079 207.135 267.092H206.89C206.646 267.092 206.483 267.079 206.402 267.052C206.32 267.025 206.218 266.936 206.096 266.787L203.083 259.233H201.759V257.97H201.902C202.105 258.011 202.838 258.031 204.101 258.031C205.499 258.031 206.32 258.011 206.564 257.97H206.748V259.233H205.77L207.562 263.672L209.028 260.047L208.702 259.233H207.42V257.97H207.562C207.725 258.011 208.383 258.031 209.537 258.031C210.908 258.031 211.696 258.011 211.899 257.97H212.062V259.233H211.553C211.214 259.233 211.044 259.246 211.044 259.273C211.058 259.328 211.383 260.149 212.021 261.737C212.659 263.325 212.985 264.12 212.999 264.12L214.974 259.233H213.813V257.97H213.956Z" fill="#D582FF"/>
<path d="M212.296 252.208C212.296 252.1 212.33 252.004 212.398 251.923C212.466 251.842 212.568 251.801 212.704 251.801C212.799 251.801 212.88 251.835 212.948 251.903C213.016 251.957 213.084 252.086 213.152 252.29C213.287 252.792 213.566 253.179 213.986 253.45C214.136 253.545 214.21 253.667 214.21 253.817C214.21 253.939 214.19 254.02 214.149 254.061C214.109 254.102 214.014 254.163 213.864 254.244C213.28 254.543 212.771 254.971 212.337 255.527C212.31 255.554 212.276 255.595 212.235 255.649C212.195 255.704 212.161 255.744 212.133 255.771C212.106 255.799 212.072 255.812 212.032 255.812C211.991 255.812 211.943 255.819 211.889 255.833C211.794 255.833 211.706 255.799 211.624 255.731C211.543 255.663 211.495 255.561 211.482 255.425C211.482 255.167 211.801 254.767 212.439 254.224H208.957L205.475 254.204C205.299 254.081 205.21 253.952 205.21 253.817C205.21 253.722 205.299 253.586 205.475 253.409H212.785C212.459 252.894 212.296 252.493 212.296 252.208Z" fill="#D582FF"/>
<path d="M224.968 259.946C224.968 259.769 225.063 259.634 225.253 259.539H238.223C238.427 259.647 238.529 259.783 238.529 259.946C238.529 260.095 238.434 260.224 238.243 260.333L231.768 260.353H225.293C225.076 260.285 224.968 260.149 224.968 259.946ZM224.968 263.896C224.968 263.692 225.076 263.557 225.293 263.489H238.243C238.434 263.624 238.529 263.76 238.529 263.896C238.529 264.072 238.427 264.208 238.223 264.303H225.253C225.063 264.208 224.968 264.072 224.968 263.896Z" fill="#F0F0F0"/>
<path d="M252.981 256.932C252.981 256.715 252.981 256.443 252.981 256.117C252.981 255.791 252.988 255.568 253.002 255.445C253.002 254.834 252.934 254.454 252.798 254.305C252.662 254.156 252.316 254.068 251.76 254.04H251.393V253.572C251.393 253.26 251.407 253.104 251.434 253.104L251.638 253.083C251.773 253.07 251.97 253.056 252.228 253.043C252.486 253.029 252.737 253.015 252.981 253.002C253.212 252.988 253.463 252.975 253.735 252.961C254.006 252.948 254.21 252.927 254.346 252.9C254.481 252.873 254.556 252.866 254.57 252.88H254.631V259.07C254.631 263.224 254.638 265.321 254.651 265.362C254.692 265.633 254.787 265.81 254.936 265.891C255.085 265.972 255.391 266.034 255.852 266.074H256.219V267.011C256.192 267.011 255.676 267.045 254.671 267.113C253.667 267.181 253.131 267.221 253.063 267.235H252.92V266.115L252.757 266.257C251.97 266.909 251.088 267.235 250.11 267.235C249.065 267.235 248.122 266.821 247.28 265.993C246.438 265.165 246.018 264.045 246.018 262.633C246.018 261.276 246.445 260.169 247.3 259.314C248.156 258.459 249.153 258.025 250.294 258.011C251.312 258.011 252.208 258.344 252.981 259.009V256.932ZM252.92 260.047C252.309 259.192 251.543 258.764 250.619 258.764C249.954 258.764 249.364 259.009 248.848 259.497C248.481 259.877 248.251 260.312 248.156 260.801C248.061 261.289 248.006 261.927 247.993 262.715C247.993 263.475 248.04 264.092 248.135 264.567C248.23 265.043 248.468 265.457 248.848 265.81C249.255 266.257 249.785 266.481 250.436 266.481C251.4 266.481 252.228 265.959 252.92 264.914V260.047Z" fill="#F0F0F0"/>
<path d="M257.217 262.572C257.217 261.825 257.352 261.147 257.624 260.536C257.895 259.925 258.235 259.429 258.642 259.049C259.049 258.669 259.49 258.384 259.966 258.194C260.441 258.004 260.889 257.902 261.309 257.889C262.029 257.889 262.647 258.011 263.162 258.255C263.678 258.5 264.072 258.839 264.343 259.273C264.615 259.708 264.805 260.142 264.913 260.577C265.022 261.011 265.083 261.493 265.097 262.022C265.097 262.117 265.049 262.212 264.954 262.307H259.212V262.613C259.212 264.622 259.891 265.843 261.248 266.278C261.52 266.359 261.818 266.4 262.144 266.4C262.714 266.4 263.203 266.183 263.61 265.748C263.841 265.518 264.024 265.233 264.16 264.893L264.364 264.405C264.404 264.364 264.513 264.343 264.689 264.343H264.751C264.981 264.343 265.097 264.411 265.097 264.547C265.097 264.601 265.076 264.69 265.036 264.812C264.778 265.558 264.35 266.149 263.753 266.583C263.156 267.018 262.484 267.235 261.737 267.235C260.447 267.235 259.375 266.767 258.52 265.83C257.665 264.893 257.23 263.807 257.217 262.572ZM263.427 261.411C263.278 259.674 262.633 258.751 261.493 258.642H261.452C261.343 258.642 261.235 258.649 261.126 258.663C261.018 258.676 260.848 258.73 260.617 258.825C260.386 258.92 260.19 259.063 260.027 259.253C259.864 259.443 259.708 259.721 259.558 260.088C259.409 260.454 259.3 260.902 259.233 261.432V261.574H263.427V261.411Z" fill="#F0F0F0"/>
<path d="M266.237 258.418C266.956 258.364 267.513 257.984 267.907 257.278C268.3 256.572 268.518 255.744 268.558 254.794V254.488H269.373V258.235H272.122V259.171H269.373V262.104C269.386 263.8 269.393 264.757 269.393 264.975C269.393 265.192 269.441 265.409 269.536 265.626C269.726 266.156 270.058 266.42 270.533 266.42C271.131 266.42 271.497 265.938 271.633 264.975C271.646 264.866 271.653 264.554 271.653 264.038V263.325H272.468V264.038V264.282C272.468 265.327 272.183 266.122 271.613 266.665C271.246 267.031 270.771 267.214 270.187 267.214C269.726 267.214 269.325 267.133 268.986 266.97C268.646 266.807 268.389 266.597 268.212 266.339C268.036 266.081 267.907 265.843 267.825 265.626C267.744 265.409 267.696 265.192 267.683 264.975C267.669 264.88 267.662 263.875 267.662 261.961V259.171H266.054V258.418H266.237Z" fill="#F0F0F0"/>
<path d="M291.276 286.161C291.276 286.202 291.235 286.263 291.154 286.345H290.523C290.495 286.318 290.305 286.134 289.952 285.795C289.6 285.456 289.294 285.164 289.036 284.919C288.778 284.675 288.412 284.261 287.937 283.677C287.462 283.094 287.041 282.544 286.674 282.028C286.308 281.512 285.88 280.827 285.391 279.971C284.903 279.116 284.482 278.268 284.129 277.426C283.776 276.585 283.403 275.573 283.009 274.392C282.615 273.211 282.31 272.017 282.093 270.809C281.876 269.6 281.679 268.223 281.502 266.675C281.326 265.128 281.244 263.539 281.258 261.91C281.258 252.259 283.729 244.725 288.67 239.309C288.982 238.969 289.274 238.671 289.545 238.413C289.817 238.155 290.041 237.938 290.217 237.761C290.394 237.585 290.495 237.497 290.523 237.497H291.154C291.235 237.578 291.276 237.639 291.276 237.68C291.276 237.748 291.14 237.924 290.869 238.209C290.597 238.494 290.244 238.895 289.81 239.411C289.376 239.926 288.887 240.571 288.344 241.345C287.801 242.119 287.251 243.089 286.695 244.257C286.138 245.424 285.622 246.721 285.147 248.146C284.672 249.571 284.265 251.282 283.925 253.277C283.586 255.272 283.369 257.417 283.274 259.711C283.247 260.227 283.233 260.967 283.233 261.931C283.233 267.211 283.871 271.827 285.147 275.777C286.423 279.727 288.391 283.08 291.052 285.836C291.201 285.999 291.276 286.107 291.276 286.161Z" fill="#F0F0F0"/>
<path d="M297.018 286.345V237.497H302.495V238.759H298.281V285.082H302.495V286.345H297.018Z" fill="#F0F0F0"/>
<path d="M304.45 247.932C304.45 247.932 304.45 247.844 304.45 247.667C304.45 247.491 304.545 247.355 304.735 247.26H316.565C316.769 247.369 316.871 247.505 316.871 247.667C316.871 247.83 316.769 247.966 316.565 248.075H304.735C304.545 247.98 304.45 247.844 304.45 247.667V247.932Z" fill="#FFF888"/>
<path d="M321.167 243.331C320.801 243.331 320.516 243.215 320.312 242.984C320.108 242.754 320 242.455 319.986 242.088C319.986 241.342 320.312 240.677 320.964 240.093C321.615 239.509 322.403 239.217 323.326 239.217C323.801 239.217 324.099 239.224 324.222 239.238C325.226 239.401 325.993 239.76 326.522 240.317C327.052 240.874 327.323 241.478 327.337 242.129C327.337 242.835 327.106 243.521 326.645 244.186C326.183 244.851 325.545 245.333 324.731 245.631L324.669 245.672C324.669 245.686 324.731 245.706 324.853 245.733C324.975 245.76 325.172 245.821 325.443 245.917C325.715 246.012 325.973 246.154 326.217 246.344C327.33 247.064 327.887 248.014 327.887 249.195C327.887 250.267 327.466 251.204 326.624 252.005C325.783 252.806 324.717 253.206 323.427 253.206C322.341 253.206 321.405 252.914 320.617 252.33C319.83 251.747 319.436 251.007 319.436 250.111C319.436 249.731 319.559 249.426 319.803 249.195C320.047 248.964 320.353 248.842 320.719 248.828C321.099 248.828 321.412 248.95 321.656 249.195C321.9 249.439 322.022 249.745 322.022 250.111C322.022 250.26 322.002 250.396 321.961 250.518C321.921 250.64 321.873 250.749 321.819 250.844C321.765 250.939 321.69 251.021 321.595 251.088C321.5 251.156 321.418 251.211 321.351 251.251C321.283 251.292 321.215 251.319 321.147 251.333C321.079 251.346 321.025 251.367 320.984 251.394L320.903 251.414C321.595 252.025 322.436 252.33 323.427 252.33C324.174 252.33 324.737 251.971 325.117 251.251C325.348 250.803 325.464 250.118 325.464 249.195V248.788C325.464 247.498 325.029 246.636 324.16 246.202C323.957 246.12 323.543 246.073 322.918 246.059L322.063 246.039L322.002 245.998C321.975 245.957 321.961 245.849 321.961 245.672C321.961 245.428 322.016 245.306 322.124 245.306C322.504 245.306 322.898 245.272 323.305 245.204C323.767 245.136 324.188 244.851 324.568 244.349C324.948 243.846 325.138 243.086 325.138 242.068V241.905C325.138 241.131 324.9 240.595 324.425 240.297C324.127 240.107 323.808 240.012 323.468 240.012C323.034 240.012 322.633 240.086 322.267 240.236C321.9 240.385 321.642 240.541 321.493 240.704C321.344 240.867 321.269 240.948 321.269 240.948H321.33C321.371 240.962 321.425 240.975 321.493 240.989C321.561 241.003 321.629 241.036 321.697 241.091C321.765 241.145 321.846 241.193 321.941 241.233C322.036 241.274 322.104 241.349 322.145 241.457C322.185 241.566 322.24 241.668 322.308 241.763C322.375 241.858 322.396 241.993 322.369 242.17C322.369 242.469 322.274 242.733 322.084 242.964C321.893 243.195 321.588 243.317 321.167 243.331Z" fill="#FFF888"/>
<path d="M351.344 244.023C350.977 244.023 350.685 243.901 350.468 243.657C350.251 243.412 350.142 243.114 350.142 242.761C350.142 241.797 350.502 240.962 351.221 240.256C351.941 239.55 352.837 239.197 353.909 239.197C355.144 239.197 356.176 239.577 357.004 240.338C357.832 241.098 358.253 242.082 358.267 243.29C358.267 243.874 358.131 244.43 357.859 244.96C357.588 245.489 357.262 245.951 356.882 246.344C356.502 246.738 355.959 247.24 355.253 247.851C354.764 248.272 354.086 248.896 353.217 249.724L352.015 250.865L353.563 250.885C355.694 250.885 356.828 250.851 356.963 250.783C357.058 250.756 357.221 250.152 357.452 248.971V248.91H358.267V248.971C358.253 249.012 358.165 249.629 358.002 250.824C357.839 252.018 357.737 252.643 357.696 252.697V252.758H350.142V252.371V252.127C350.142 252.032 350.183 251.93 350.264 251.822C350.346 251.713 350.549 251.476 350.875 251.109C351.269 250.675 351.608 250.295 351.893 249.969C352.015 249.833 352.246 249.582 352.586 249.215C352.925 248.849 353.156 248.598 353.278 248.462C353.4 248.326 353.597 248.102 353.868 247.79C354.14 247.478 354.33 247.247 354.439 247.098C354.547 246.948 354.703 246.745 354.907 246.487C355.11 246.229 355.253 246.012 355.334 245.835C355.416 245.659 355.518 245.462 355.64 245.245C355.762 245.028 355.85 244.81 355.905 244.593C355.959 244.376 356.006 244.172 356.047 243.982C356.088 243.792 356.108 243.568 356.108 243.31C356.108 242.455 355.877 241.715 355.416 241.091C354.954 240.467 354.296 240.154 353.441 240.154C352.993 240.154 352.599 240.27 352.26 240.5C351.92 240.731 351.683 240.955 351.547 241.172C351.411 241.39 351.344 241.519 351.344 241.559C351.344 241.573 351.377 241.58 351.445 241.58C351.69 241.58 351.941 241.675 352.199 241.865C352.457 242.055 352.586 242.367 352.586 242.801C352.586 243.141 352.477 243.426 352.26 243.657C352.043 243.887 351.737 244.009 351.344 244.023Z" fill="#D582FF"/>
<path d="M314.998 269.495L314.733 269.597C314.543 269.665 314.271 269.733 313.918 269.801C313.565 269.869 313.172 269.916 312.737 269.943H312.351V269.007H312.737C313.375 268.98 313.966 268.878 314.509 268.701C315.052 268.525 315.432 268.362 315.649 268.213C315.866 268.063 316.056 267.914 316.219 267.765C316.246 267.724 316.328 267.704 316.464 267.704C316.586 267.704 316.701 267.744 316.81 267.826V273.914L316.83 280.023C316.925 280.118 317.007 280.179 317.075 280.206C317.142 280.233 317.305 280.26 317.563 280.287C317.821 280.314 318.242 280.328 318.826 280.328H319.355V281.265H319.131C318.846 281.224 317.767 281.204 315.894 281.204C314.047 281.204 312.982 281.224 312.697 281.265H312.452V280.328H312.982C313.28 280.328 313.538 280.328 313.756 280.328C313.973 280.328 314.142 280.321 314.265 280.308C314.387 280.294 314.495 280.274 314.59 280.247C314.685 280.219 314.74 280.206 314.753 280.206C314.767 280.206 314.808 280.172 314.875 280.104C314.943 280.036 314.984 280.009 314.998 280.023V269.495Z" fill="#FFF888"/>
<path d="M353.461 269.495L353.196 269.597C353.006 269.665 352.735 269.733 352.382 269.801C352.029 269.869 351.635 269.916 351.201 269.943H350.814V269.007H351.201C351.839 268.98 352.43 268.878 352.973 268.701C353.515 268.525 353.896 268.362 354.113 268.213C354.33 268.063 354.52 267.914 354.683 267.765C354.71 267.724 354.792 267.704 354.927 267.704C355.049 267.704 355.165 267.744 355.273 267.826V273.914L355.294 280.023C355.389 280.118 355.47 280.179 355.538 280.206C355.606 280.233 355.769 280.26 356.027 280.287C356.285 280.314 356.706 280.328 357.289 280.328H357.819V281.265H357.595C357.31 281.224 356.23 281.204 354.357 281.204C352.511 281.204 351.445 281.224 351.16 281.265H350.916V280.328H351.445C351.744 280.328 352.002 280.328 352.219 280.328C352.436 280.328 352.606 280.321 352.728 280.308C352.85 280.294 352.959 280.274 353.054 280.247C353.149 280.219 353.203 280.206 353.217 280.206C353.23 280.206 353.271 280.172 353.339 280.104C353.407 280.036 353.448 280.009 353.461 280.023V269.495Z" fill="#D582FF"/>
<path d="M359.529 238.759V237.497H365.006V286.345H359.529V285.082H363.744V238.759H359.529Z" fill="#F0F0F0"/>
<path d="M370.748 237.741C370.748 237.632 370.769 237.564 370.809 237.537C370.85 237.51 370.938 237.497 371.074 237.497H371.196H371.502C371.529 237.524 371.719 237.707 372.072 238.046C372.425 238.386 372.73 238.678 372.988 238.922C373.246 239.166 373.613 239.58 374.088 240.164C374.563 240.748 374.984 241.297 375.35 241.813C375.717 242.329 376.144 243.015 376.633 243.87C377.122 244.725 377.542 245.567 377.895 246.395C378.248 247.223 378.622 248.234 379.015 249.429C379.409 250.623 379.714 251.818 379.932 253.012C380.149 254.207 380.346 255.585 380.522 257.146C380.699 258.707 380.78 260.295 380.766 261.91C380.766 263.499 380.719 264.843 380.624 265.942C379.986 273.707 377.563 279.904 373.355 284.533C373.043 284.872 372.751 285.171 372.479 285.428C372.208 285.686 371.984 285.904 371.807 286.08C371.631 286.256 371.529 286.345 371.502 286.345H371.196C371.02 286.345 370.905 286.331 370.85 286.304C370.796 286.277 370.762 286.209 370.748 286.1C371.481 285.367 372.201 284.526 372.907 283.576C376.816 278.376 378.771 271.155 378.771 261.91C378.771 259.168 378.595 256.61 378.242 254.234C377.889 251.858 377.454 249.863 376.938 248.248C376.423 246.632 375.791 245.112 375.045 243.687C374.298 242.261 373.619 241.155 373.009 240.368C372.398 239.58 371.726 238.793 370.993 238.006C370.966 237.978 370.938 237.951 370.911 237.924C370.884 237.897 370.864 237.87 370.85 237.843C370.837 237.816 370.816 237.795 370.789 237.782L370.748 237.741Z" fill="#F0F0F0"/>
<path d="M391.837 259.946C391.837 259.769 391.932 259.634 392.122 259.539H405.093C405.296 259.647 405.398 259.783 405.398 259.946C405.398 260.095 405.303 260.224 405.113 260.333L398.638 260.353H392.163C391.946 260.285 391.837 260.149 391.837 259.946ZM391.837 263.896C391.837 263.692 391.946 263.557 392.163 263.489H405.113C405.303 263.624 405.398 263.76 405.398 263.896C405.398 264.072 405.296 264.208 405.093 264.303H392.122C391.932 264.208 391.837 264.072 391.837 263.896Z" fill="#F0F0F0"/>
<path d="M413.905 262.186C413.905 262.186 413.905 262.097 413.905 261.921C413.905 261.744 414 261.609 414.19 261.514H426.021C426.224 261.622 426.326 261.758 426.326 261.921C426.326 262.084 426.224 262.22 426.021 262.328H414.19C414 262.233 413.905 262.097 413.905 261.921V262.186Z" fill="#F0F0F0"/>
<path d="M431.376 263.814C431.376 264.14 431.267 264.411 431.05 264.629C430.833 264.846 430.568 264.954 430.256 264.954H430.113C430.738 266.027 431.566 266.563 432.598 266.563C433.548 266.563 434.24 266.156 434.675 265.341C434.932 264.893 435.061 264.025 435.061 262.735C435.061 261.337 434.878 260.393 434.512 259.905C434.159 259.457 433.765 259.233 433.331 259.233H433.208C432.15 259.233 431.349 259.694 430.806 260.617C430.751 260.712 430.704 260.767 430.663 260.78C430.623 260.794 430.521 260.807 430.358 260.821C430.127 260.821 429.998 260.78 429.971 260.699C429.944 260.645 429.93 259.457 429.93 257.136V254.509C429.93 253.83 429.964 253.491 430.032 253.491C430.059 253.464 430.086 253.45 430.113 253.45C430.127 253.45 430.27 253.504 430.541 253.613C430.813 253.722 431.186 253.83 431.661 253.939C432.136 254.047 432.645 254.102 433.188 254.102C434.152 254.102 435.075 253.912 435.957 253.531C436.066 253.477 436.154 253.45 436.222 253.45C436.331 253.45 436.385 253.572 436.385 253.817V254.081C435.272 255.398 433.88 256.056 432.211 256.056C431.79 256.056 431.41 256.016 431.07 255.934L430.867 255.893V259.396C431.125 259.206 431.328 259.056 431.478 258.948C431.627 258.839 431.871 258.731 432.211 258.622C432.55 258.513 432.896 258.459 433.249 258.459C434.349 258.459 435.279 258.9 436.039 259.783C436.799 260.665 437.179 261.71 437.179 262.918C437.179 264.167 436.745 265.233 435.876 266.115C435.007 266.997 433.948 267.445 432.699 267.459C431.6 267.459 430.718 267.092 430.052 266.359C429.387 265.626 429.055 264.798 429.055 263.875C429.055 263.55 429.129 263.292 429.279 263.102C429.428 262.911 429.584 262.789 429.747 262.735C429.91 262.681 430.066 262.654 430.215 262.654C430.555 262.654 430.833 262.769 431.05 263C431.267 263.231 431.376 263.502 431.376 263.814Z" fill="#F0F0F0"/>
<path d="M439.806 265.79C439.806 265.464 439.921 265.179 440.152 264.934C440.383 264.69 440.675 264.568 441.027 264.568C441.353 264.568 441.638 264.676 441.883 264.894C442.127 265.111 442.256 265.403 442.27 265.769C442.27 266.109 442.154 266.4 441.923 266.645C441.693 266.889 441.401 267.011 441.048 267.011C440.695 267.011 440.403 266.896 440.172 266.665C439.942 266.434 439.819 266.142 439.806 265.79Z" fill="#F0F0F0"/>
<path d="M445.833 255.099C446.593 254 447.632 253.45 448.948 253.45C449.6 253.45 450.251 253.626 450.903 253.979C451.555 254.332 452.084 254.957 452.491 255.853C452.993 256.979 453.245 258.527 453.245 260.495C453.245 262.599 452.953 264.208 452.369 265.321C452.098 265.891 451.724 266.346 451.249 266.685C450.774 267.025 450.36 267.235 450.007 267.316C449.654 267.398 449.308 267.445 448.969 267.459C448.616 267.459 448.263 267.418 447.91 267.337C447.557 267.255 447.143 267.038 446.668 266.685C446.193 266.332 445.819 265.878 445.548 265.321C444.964 264.208 444.672 262.599 444.672 260.495C444.672 258.133 445.059 256.335 445.833 255.099ZM450.414 254.855C450.007 254.421 449.525 254.203 448.969 254.203C448.398 254.203 447.91 254.421 447.503 254.855C447.163 255.208 446.939 255.697 446.831 256.321C446.722 256.945 446.668 258.249 446.668 260.231C446.668 262.375 446.722 263.787 446.831 264.466C446.939 265.145 447.184 265.681 447.564 266.074C447.944 266.482 448.412 266.685 448.969 266.685C449.512 266.685 449.973 266.482 450.353 266.074C450.747 265.667 450.991 265.097 451.086 264.364C451.181 263.631 451.236 262.253 451.249 260.231C451.249 258.262 451.195 256.966 451.086 256.341C450.978 255.717 450.754 255.221 450.414 254.855Z" fill="#F0F0F0"/>
<path d="M456.014 255.099C456.774 254 457.812 253.45 459.129 253.45C459.781 253.45 460.432 253.626 461.084 253.979C461.735 254.332 462.265 254.957 462.672 255.853C463.174 256.979 463.426 258.527 463.426 260.495C463.426 262.599 463.134 264.208 462.55 265.321C462.278 265.891 461.905 266.346 461.43 266.685C460.955 267.025 460.541 267.235 460.188 267.316C459.835 267.398 459.489 267.445 459.15 267.459C458.797 267.459 458.444 267.418 458.091 267.337C457.738 267.255 457.324 267.038 456.849 266.685C456.374 266.332 456 265.878 455.729 265.321C455.145 264.208 454.853 262.599 454.853 260.495C454.853 258.133 455.24 256.335 456.014 255.099ZM460.595 254.855C460.188 254.421 459.706 254.203 459.15 254.203C458.579 254.203 458.091 254.421 457.683 254.855C457.344 255.208 457.12 255.697 457.012 256.321C456.903 256.945 456.849 258.249 456.849 260.231C456.849 262.375 456.903 263.787 457.012 264.466C457.12 265.145 457.364 265.681 457.745 266.074C458.125 266.482 458.593 266.685 459.15 266.685C459.693 266.685 460.154 266.482 460.534 266.074C460.928 265.667 461.172 265.097 461.267 264.364C461.362 263.631 461.416 262.253 461.43 260.231C461.43 258.262 461.376 256.966 461.267 256.341C461.159 255.717 460.935 255.221 460.595 254.855Z" fill="#F0F0F0"/>
</g>
</g>
<path d="M212.096 151.147L200 140L216.365 138.34L211.384 143.795L212.096 151.147Z" fill="#92D192"/>
<path d="M320 180L203.795 141.265" stroke="#92D192" stroke-width="1.5"/>
<path d="M383.565 140.671L400 140L389.602 152.746L389.267 145.367L383.565 140.671Z" fill="#F2777A"/>
<path d="M320 180L396.422 141.789" stroke="#F2777A" stroke-width="1.5"/>
<path d="M320 180L200 140L280 100L400 140L320 180Z" fill="#F0F0F0" fill-opacity="0.2" stroke="#F0F0F0" stroke-width="1.5"/>
<path d="M212.096 151.147L200 140L216.365 138.34L211.384 143.795L212.096 151.147Z" fill="#FFF888"/>
<path d="M320 180L203.795 141.265" stroke="#FFF888" stroke-width="1.5"/>
<path d="M383.565 140.671L400 140L389.602 152.746L389.267 145.367L383.565 140.671Z" fill="#D582FF"/>
<path d="M320 180L396.422 141.789" stroke="#D582FF" stroke-width="1.5"/>
<path d="M187.213 122.973H168.277V143.798H187.213V122.973Z" fill="black"/>
<g clip-path="url(#clip4_1601_34537)">
<path d="M179.655 132.93C179.813 132.969 180.429 132.989 181.505 132.989C182.463 132.989 182.981 132.969 183.06 132.93H183.178V134.15H181.8L179.813 138.597C179.012 140.408 178.553 141.392 178.435 141.549C178.33 141.68 178.205 141.746 178.061 141.746C178.035 141.746 177.989 141.746 177.923 141.746C177.858 141.746 177.792 141.74 177.727 141.726H177.431C177.235 141.726 177.077 141.628 176.959 141.431C176.841 141.234 176.559 140.644 176.113 139.66C175.916 139.227 175.759 138.873 175.641 138.597L173.653 134.15H172.276V132.93H172.433C172.63 132.969 173.358 132.989 174.617 132.989C176.021 132.989 176.841 132.969 177.077 132.93H177.254V134.15H176.31L177.353 136.472C178.022 137.981 178.376 138.735 178.415 138.735C178.415 138.722 178.75 137.968 179.419 136.472C180.088 134.977 180.436 134.209 180.462 134.17C180.462 134.157 180.305 134.15 179.99 134.15H179.517V132.93H179.655Z" fill="#FFF888"/>
<path d="M180.236 127.361C180.236 127.256 180.268 127.164 180.334 127.085C180.4 127.007 180.498 126.967 180.629 126.967C180.721 126.967 180.8 127 180.865 127.066C180.931 127.118 180.997 127.243 181.062 127.44C181.193 127.925 181.462 128.299 181.869 128.561C182.013 128.653 182.085 128.771 182.085 128.916C182.085 129.034 182.066 129.112 182.026 129.152C181.987 129.191 181.895 129.25 181.751 129.329C181.187 129.617 180.695 130.031 180.275 130.569C180.249 130.595 180.216 130.634 180.177 130.687C180.137 130.739 180.104 130.778 180.078 130.805C180.052 130.831 180.019 130.844 179.98 130.844C179.94 130.844 179.895 130.851 179.842 130.864C179.75 130.864 179.665 130.831 179.586 130.765C179.508 130.7 179.462 130.601 179.448 130.47C179.448 130.221 179.757 129.834 180.373 129.309H177.008L173.643 129.289C173.473 129.171 173.387 129.047 173.387 128.916C173.387 128.824 173.473 128.693 173.643 128.522H180.708C180.393 128.023 180.236 127.636 180.236 127.361Z" fill="#FFF888"/>
</g>
<path d="M433.66 119.819H410.261V140.665H433.66V119.819Z" fill="black"/>
<g clip-path="url(#clip5_1601_34537)">
<path d="M426.048 129.775C426.205 129.815 426.848 129.834 427.977 129.834C428.961 129.834 429.472 129.815 429.512 129.775H429.61V130.996H428.351L425.438 138.297C425.425 138.31 425.405 138.33 425.379 138.356C425.353 138.382 425.326 138.408 425.3 138.435C425.274 138.461 425.261 138.474 425.261 138.474C425.261 138.474 425.241 138.487 425.202 138.513C425.162 138.54 425.149 138.553 425.162 138.553C425.175 138.553 425.149 138.559 425.084 138.572C425.018 138.586 424.992 138.586 425.005 138.572C425.018 138.559 424.992 138.566 424.926 138.592C424.861 138.618 424.821 138.618 424.808 138.592C424.795 138.566 424.742 138.566 424.651 138.592H424.434C424.211 138.592 424.054 138.527 423.962 138.395C423.87 138.264 423.686 137.844 423.411 137.136C423.201 136.611 423.024 136.171 422.879 135.817L421.935 133.456L420.99 135.817C420.859 136.158 420.688 136.585 420.478 137.096C420.203 137.818 420.019 138.244 419.927 138.376C419.836 138.507 419.678 138.579 419.455 138.592H419.219C418.983 138.592 418.825 138.579 418.747 138.553C418.668 138.527 418.569 138.441 418.451 138.297L415.539 130.996H414.259V129.775H414.397C414.594 129.815 415.303 129.834 416.523 129.834C417.874 129.834 418.668 129.815 418.904 129.775H419.081V130.996H418.136L419.868 135.286L421.285 131.783L420.97 130.996H419.731V129.775H419.868C420.026 129.815 420.662 129.834 421.777 129.834C423.102 129.834 423.863 129.815 424.06 129.775H424.218V130.996H423.726C423.398 130.996 423.234 131.009 423.234 131.035C423.247 131.087 423.562 131.881 424.178 133.416C424.795 134.951 425.11 135.719 425.123 135.719L427.032 130.996H425.91V129.775H426.048Z" fill="#D582FF"/>
<path d="M424.444 124.206C424.444 124.101 424.477 124.009 424.542 123.93C424.608 123.852 424.706 123.812 424.838 123.812C424.929 123.812 425.008 123.845 425.074 123.911C425.139 123.963 425.205 124.088 425.271 124.285C425.402 124.77 425.671 125.144 426.077 125.406C426.222 125.498 426.294 125.616 426.294 125.761C426.294 125.879 426.274 125.957 426.235 125.997C426.196 126.036 426.104 126.095 425.959 126.174C425.395 126.463 424.903 126.876 424.483 127.414C424.457 127.44 424.424 127.479 424.385 127.532C424.346 127.584 424.313 127.624 424.287 127.65C424.26 127.676 424.228 127.689 424.188 127.689C424.149 127.689 424.103 127.696 424.05 127.709C423.959 127.709 423.873 127.676 423.795 127.611C423.716 127.545 423.67 127.447 423.657 127.315C423.657 127.066 423.965 126.679 424.582 126.154H421.216L417.851 126.135C417.681 126.016 417.595 125.892 417.595 125.761C417.595 125.669 417.681 125.538 417.851 125.367H424.916C424.601 124.868 424.444 124.481 424.444 124.206Z" fill="#D582FF"/>
</g>
</g>
<defs>
<clipPath id="clip0_1601_34537">
<rect width="640" height="360" fill="white"/>
</clipPath>
<clipPath id="clip1_1601_34537">
<rect width="640" height="360" fill="white"/>
</clipPath>
<clipPath id="clip2_1601_34537">
<rect width="2560" height="1440" fill="white" transform="translate(-960 -540)"/>
</clipPath>
<clipPath id="clip3_1601_34537">
<rect width="300.24" height="48.87" fill="white" transform="translate(164 237.486)"/>
</clipPath>
<clipPath id="clip4_1601_34537">
<rect width="11.9451" height="16.6692" fill="white" transform="translate(171.764 124.999)"/>
</clipPath>
<clipPath id="clip5_1601_34537">
<rect width="16.356" height="16.6692" fill="white" transform="translate(413.767 121.844)"/>
</clipPath>
</defs>
</svg>
