<svg
  xmlns="http://www.w3.org/2000/svg"
  viewBox="-500 -500 1000 1000"
  style="overflow: visible"
>
  <g transform="scale(1,0.5) rotate(45)" opacity="0.35">
    <g fill="none" stroke="#808080">
      <line x1="-1000" x2="-1000" y1="-1000" y2="1000"></line>
      <line y1="-1000" y2="-1000" x1="-1000" x2="1000"></line>

      <line x1="-975" x2="-975" y1="-1000" y2="1000"></line>
      <line y1="-975" y2="-975" x1="-1000" x2="1000"></line>

      <line x1="-950" x2="-950" y1="-1000" y2="1000"></line>
      <line y1="-950" y2="-950" x1="-1000" x2="1000"></line>

      <line x1="-925" x2="-925" y1="-1000" y2="1000"></line>
      <line y1="-925" y2="-925" x1="-1000" x2="1000"></line>

      <line x1="-900" x2="-900" y1="-1000" y2="1000"></line>
      <line y1="-900" y2="-900" x1="-1000" x2="1000"></line>

      <line x1="-875" x2="-875" y1="-1000" y2="1000"></line>
      <line y1="-875" y2="-875" x1="-1000" x2="1000"></line>

      <line x1="-850" x2="-850" y1="-1000" y2="1000"></line>
      <line y1="-850" y2="-850" x1="-1000" x2="1000"></line>

      <line x1="-825" x2="-825" y1="-1000" y2="1000"></line>
      <line y1="-825" y2="-825" x1="-1000" x2="1000"></line>

      <line x1="-800" x2="-800" y1="-1000" y2="1000"></line>
      <line y1="-800" y2="-800" x1="-1000" x2="1000"></line>

      <line x1="-775" x2="-775" y1="-1000" y2="1000"></line>
      <line y1="-775" y2="-775" x1="-1000" x2="1000"></line>

      <line x1="-750" x2="-750" y1="-1000" y2="1000"></line>
      <line y1="-750" y2="-750" x1="-1000" x2="1000"></line>

      <line x1="-725" x2="-725" y1="-1000" y2="1000"></line>
      <line y1="-725" y2="-725" x1="-1000" x2="1000"></line>

      <line x1="-700" x2="-700" y1="-1000" y2="1000"></line>
      <line y1="-700" y2="-700" x1="-1000" x2="1000"></line>

      <line x1="-675" x2="-675" y1="-1000" y2="1000"></line>
      <line y1="-675" y2="-675" x1="-1000" x2="1000"></line>

      <line x1="-650" x2="-650" y1="-1000" y2="1000"></line>
      <line y1="-650" y2="-650" x1="-1000" x2="1000"></line>

      <line x1="-625" x2="-625" y1="-1000" y2="1000"></line>
      <line y1="-625" y2="-625" x1="-1000" x2="1000"></line>

      <line x1="-600" x2="-600" y1="-1000" y2="1000"></line>
      <line y1="-600" y2="-600" x1="-1000" x2="1000"></line>

      <line x1="-575" x2="-575" y1="-1000" y2="1000"></line>
      <line y1="-575" y2="-575" x1="-1000" x2="1000"></line>

      <line x1="-550" x2="-550" y1="-1000" y2="1000"></line>
      <line y1="-550" y2="-550" x1="-1000" x2="1000"></line>

      <line x1="-525" x2="-525" y1="-1000" y2="1000"></line>
      <line y1="-525" y2="-525" x1="-1000" x2="1000"></line>

      <line x1="-500" x2="-500" y1="-1000" y2="1000"></line>
      <line y1="-500" y2="-500" x1="-1000" x2="1000"></line>

      <line x1="-475" x2="-475" y1="-1000" y2="1000"></line>
      <line y1="-475" y2="-475" x1="-1000" x2="1000"></line>

      <line x1="-450" x2="-450" y1="-1000" y2="1000"></line>
      <line y1="-450" y2="-450" x1="-1000" x2="1000"></line>

      <line x1="-425" x2="-425" y1="-1000" y2="1000"></line>
      <line y1="-425" y2="-425" x1="-1000" x2="1000"></line>

      <line x1="-400" x2="-400" y1="-1000" y2="1000"></line>
      <line y1="-400" y2="-400" x1="-1000" x2="1000"></line>

      <line x1="-375" x2="-375" y1="-1000" y2="1000"></line>
      <line y1="-375" y2="-375" x1="-1000" x2="1000"></line>

      <line x1="-350" x2="-350" y1="-1000" y2="1000"></line>
      <line y1="-350" y2="-350" x1="-1000" x2="1000"></line>

      <line x1="-325" x2="-325" y1="-1000" y2="1000"></line>
      <line y1="-325" y2="-325" x1="-1000" x2="1000"></line>

      <line x1="-300" x2="-300" y1="-1000" y2="1000"></line>
      <line y1="-300" y2="-300" x1="-1000" x2="1000"></line>

      <line x1="-275" x2="-275" y1="-1000" y2="1000"></line>
      <line y1="-275" y2="-275" x1="-1000" x2="1000"></line>

      <line x1="-250" x2="-250" y1="-1000" y2="1000"></line>
      <line y1="-250" y2="-250" x1="-1000" x2="1000"></line>

      <line x1="-225" x2="-225" y1="-1000" y2="1000"></line>
      <line y1="-225" y2="-225" x1="-1000" x2="1000"></line>

      <line x1="-200" x2="-200" y1="-1000" y2="1000"></line>
      <line y1="-200" y2="-200" x1="-1000" x2="1000"></line>

      <line x1="-175" x2="-175" y1="-1000" y2="1000"></line>
      <line y1="-175" y2="-175" x1="-1000" x2="1000"></line>

      <line x1="-150" x2="-150" y1="-1000" y2="1000"></line>
      <line y1="-150" y2="-150" x1="-1000" x2="1000"></line>

      <line x1="-125" x2="-125" y1="-1000" y2="1000"></line>
      <line y1="-125" y2="-125" x1="-1000" x2="1000"></line>

      <line x1="-100" x2="-100" y1="-1000" y2="1000"></line>
      <line y1="-100" y2="-100" x1="-1000" x2="1000"></line>

      <line x1="-75" x2="-75" y1="-1000" y2="1000"></line>
      <line y1="-75" y2="-75" x1="-1000" x2="1000"></line>

      <line x1="-50" x2="-50" y1="-1000" y2="1000"></line>
      <line y1="-50" y2="-50" x1="-1000" x2="1000"></line>

      <line x1="-25" x2="-25" y1="-1000" y2="1000"></line>
      <line y1="-25" y2="-25" x1="-1000" x2="1000"></line>

      <line x1="0" x2="0" y1="-1000" y2="1000"></line>
      <line y1="0" y2="0" x1="-1000" x2="1000"></line>

      <line x1="25" x2="25" y1="-1000" y2="1000"></line>
      <line y1="25" y2="25" x1="-1000" x2="1000"></line>

      <line x1="50" x2="50" y1="-1000" y2="1000"></line>
      <line y1="50" y2="50" x1="-1000" x2="1000"></line>

      <line x1="75" x2="75" y1="-1000" y2="1000"></line>
      <line y1="75" y2="75" x1="-1000" x2="1000"></line>

      <line x1="100" x2="100" y1="-1000" y2="1000"></line>
      <line y1="100" y2="100" x1="-1000" x2="1000"></line>

      <line x1="125" x2="125" y1="-1000" y2="1000"></line>
      <line y1="125" y2="125" x1="-1000" x2="1000"></line>

      <line x1="150" x2="150" y1="-1000" y2="1000"></line>
      <line y1="150" y2="150" x1="-1000" x2="1000"></line>

      <line x1="175" x2="175" y1="-1000" y2="1000"></line>
      <line y1="175" y2="175" x1="-1000" x2="1000"></line>

      <line x1="200" x2="200" y1="-1000" y2="1000"></line>
      <line y1="200" y2="200" x1="-1000" x2="1000"></line>

      <line x1="225" x2="225" y1="-1000" y2="1000"></line>
      <line y1="225" y2="225" x1="-1000" x2="1000"></line>

      <line x1="250" x2="250" y1="-1000" y2="1000"></line>
      <line y1="250" y2="250" x1="-1000" x2="1000"></line>

      <line x1="275" x2="275" y1="-1000" y2="1000"></line>
      <line y1="275" y2="275" x1="-1000" x2="1000"></line>

      <line x1="300" x2="300" y1="-1000" y2="1000"></line>
      <line y1="300" y2="300" x1="-1000" x2="1000"></line>

      <line x1="325" x2="325" y1="-1000" y2="1000"></line>
      <line y1="325" y2="325" x1="-1000" x2="1000"></line>

      <line x1="350" x2="350" y1="-1000" y2="1000"></line>
      <line y1="350" y2="350" x1="-1000" x2="1000"></line>

      <line x1="375" x2="375" y1="-1000" y2="1000"></line>
      <line y1="375" y2="375" x1="-1000" x2="1000"></line>

      <line x1="400" x2="400" y1="-1000" y2="1000"></line>
      <line y1="400" y2="400" x1="-1000" x2="1000"></line>

      <line x1="425" x2="425" y1="-1000" y2="1000"></line>
      <line y1="425" y2="425" x1="-1000" x2="1000"></line>

      <line x1="450" x2="450" y1="-1000" y2="1000"></line>
      <line y1="450" y2="450" x1="-1000" x2="1000"></line>

      <line x1="475" x2="475" y1="-1000" y2="1000"></line>
      <line y1="475" y2="475" x1="-1000" x2="1000"></line>

      <line x1="500" x2="500" y1="-1000" y2="1000"></line>
      <line y1="500" y2="500" x1="-1000" x2="1000"></line>

      <line x1="525" x2="525" y1="-1000" y2="1000"></line>
      <line y1="525" y2="525" x1="-1000" x2="1000"></line>

      <line x1="550" x2="550" y1="-1000" y2="1000"></line>
      <line y1="550" y2="550" x1="-1000" x2="1000"></line>

      <line x1="575" x2="575" y1="-1000" y2="1000"></line>
      <line y1="575" y2="575" x1="-1000" x2="1000"></line>

      <line x1="600" x2="600" y1="-1000" y2="1000"></line>
      <line y1="600" y2="600" x1="-1000" x2="1000"></line>

      <line x1="625" x2="625" y1="-1000" y2="1000"></line>
      <line y1="625" y2="625" x1="-1000" x2="1000"></line>

      <line x1="650" x2="650" y1="-1000" y2="1000"></line>
      <line y1="650" y2="650" x1="-1000" x2="1000"></line>

      <line x1="675" x2="675" y1="-1000" y2="1000"></line>
      <line y1="675" y2="675" x1="-1000" x2="1000"></line>

      <line x1="700" x2="700" y1="-1000" y2="1000"></line>
      <line y1="700" y2="700" x1="-1000" x2="1000"></line>

      <line x1="725" x2="725" y1="-1000" y2="1000"></line>
      <line y1="725" y2="725" x1="-1000" x2="1000"></line>

      <line x1="750" x2="750" y1="-1000" y2="1000"></line>
      <line y1="750" y2="750" x1="-1000" x2="1000"></line>

      <line x1="775" x2="775" y1="-1000" y2="1000"></line>
      <line y1="775" y2="775" x1="-1000" x2="1000"></line>

      <line x1="800" x2="800" y1="-1000" y2="1000"></line>
      <line y1="800" y2="800" x1="-1000" x2="1000"></line>

      <line x1="825" x2="825" y1="-1000" y2="1000"></line>
      <line y1="825" y2="825" x1="-1000" x2="1000"></line>

      <line x1="850" x2="850" y1="-1000" y2="1000"></line>
      <line y1="850" y2="850" x1="-1000" x2="1000"></line>

      <line x1="875" x2="875" y1="-1000" y2="1000"></line>
      <line y1="875" y2="875" x1="-1000" x2="1000"></line>

      <line x1="900" x2="900" y1="-1000" y2="1000"></line>
      <line y1="900" y2="900" x1="-1000" x2="1000"></line>

      <line x1="925" x2="925" y1="-1000" y2="1000"></line>
      <line y1="925" y2="925" x1="-1000" x2="1000"></line>

      <line x1="950" x2="950" y1="-1000" y2="1000"></line>
      <line y1="950" y2="950" x1="-1000" x2="1000"></line>

      <line x1="975" x2="975" y1="-1000" y2="1000"></line>
      <line y1="975" y2="975" x1="-1000" x2="1000"></line>

      <line x1="1000" x2="1000" y1="-1000" y2="1000"></line>
      <line y1="1000" y2="1000" x1="-1000" x2="1000"></line>
    </g>

    <g fill="none" stroke="#74c0e3">
      <line x1="-1000" x2="-1000" y1="-1000" y2="1000"></line>
      <line y1="-1000" y2="-1000" x1="-1000" x2="1000"></line>

      <line x1="-900" x2="-900" y1="-1000" y2="1000"></line>
      <line y1="-900" y2="-900" x1="-1000" x2="1000"></line>

      <line x1="-800" x2="-800" y1="-1000" y2="1000"></line>
      <line y1="-800" y2="-800" x1="-1000" x2="1000"></line>

      <line x1="-700" x2="-700" y1="-1000" y2="1000"></line>
      <line y1="-700" y2="-700" x1="-1000" x2="1000"></line>

      <line x1="-600" x2="-600" y1="-1000" y2="1000"></line>
      <line y1="-600" y2="-600" x1="-1000" x2="1000"></line>

      <line x1="-500" x2="-500" y1="-1000" y2="1000"></line>
      <line y1="-500" y2="-500" x1="-1000" x2="1000"></line>

      <line x1="-400" x2="-400" y1="-1000" y2="1000"></line>
      <line y1="-400" y2="-400" x1="-1000" x2="1000"></line>

      <line x1="-300" x2="-300" y1="-1000" y2="1000"></line>
      <line y1="-300" y2="-300" x1="-1000" x2="1000"></line>

      <line x1="-200" x2="-200" y1="-1000" y2="1000"></line>
      <line y1="-200" y2="-200" x1="-1000" x2="1000"></line>

      <line x1="-100" x2="-100" y1="-1000" y2="1000"></line>
      <line y1="-100" y2="-100" x1="-1000" x2="1000"></line>

      <line x1="0" x2="0" y1="-1000" y2="1000"></line>
      <line y1="0" y2="0" x1="-1000" x2="1000"></line>

      <line x1="100" x2="100" y1="-1000" y2="1000"></line>
      <line y1="100" y2="100" x1="-1000" x2="1000"></line>

      <line x1="200" x2="200" y1="-1000" y2="1000"></line>
      <line y1="200" y2="200" x1="-1000" x2="1000"></line>

      <line x1="300" x2="300" y1="-1000" y2="1000"></line>
      <line y1="300" y2="300" x1="-1000" x2="1000"></line>

      <line x1="400" x2="400" y1="-1000" y2="1000"></line>
      <line y1="400" y2="400" x1="-1000" x2="1000"></line>

      <line x1="500" x2="500" y1="-1000" y2="1000"></line>
      <line y1="500" y2="500" x1="-1000" x2="1000"></line>

      <line x1="600" x2="600" y1="-1000" y2="1000"></line>
      <line y1="600" y2="600" x1="-1000" x2="1000"></line>

      <line x1="700" x2="700" y1="-1000" y2="1000"></line>
      <line y1="700" y2="700" x1="-1000" x2="1000"></line>

      <line x1="800" x2="800" y1="-1000" y2="1000"></line>
      <line y1="800" y2="800" x1="-1000" x2="1000"></line>

      <line x1="900" x2="900" y1="-1000" y2="1000"></line>
      <line y1="900" y2="900" x1="-1000" x2="1000"></line>

      <line x1="1000" x2="1000" y1="-1000" y2="1000"></line>
      <line y1="1000" y2="1000" x1="-1000" x2="1000"></line>
    </g>
  </g>
</svg>
