<svg xmlns="http://www.w3.org/2000/svg" xmlns:xlink="http://www.w3.org/1999/xlink" width="420" height="720" viewBox="0 0 420 720"><defs><style>.a,.c,.g,.j,.k,.l,.m,.o,.p,.q,.r,.u{fill:none;}.a{stroke:#b189c6;}.a,.j,.k,.l,.m,.p,.q,.r{stroke-miterlimit:10;}.b{opacity:0.2;}.c,.g,.j,.k,.l,.m,.u{stroke:#fff;}.c,.g,.o,.u{stroke-miterlimit:120;}.d{opacity:0.3;}.e{opacity:0.4;}.f{opacity:0.6;}.g,.o{stroke-width:1.5px;}.h{fill:#fff;}.i{fill:#58c4dd;}.k{stroke-dasharray:6 6;}.l{stroke-dasharray:5.6 5.6;}.m{stroke-dasharray:6 6;}.n{isolation:isolate;}.o{stroke:#58c4dd;}.p{stroke:#fff933;}.q{stroke:#83c167;}.r{stroke:#fc6255;}.s{fill:#f8f8f8;}.t{clip-path:url(#a);}.u{opacity:0.5;}</style><clipPath id="a"><rect class="a" x="-20" y="922.75" width="480" height="480"/></clipPath></defs><rect width="420" height="720"/><g class="b"><line class="c" x1="90" y1="60" x2="90" y2="660"/><line class="c" x1="120" y1="60" x2="120" y2="660"/><line class="c" x1="150" y1="60" x2="150" y2="660"/><line class="c" x1="180" y1="60" x2="180" y2="660"/><line class="c" x1="240" y1="60" x2="240" y2="660"/><line class="c" x1="270" y1="60" x2="270" y2="660"/><line class="c" x1="300" y1="60" x2="300" y2="660"/><line class="c" x1="330" y1="60" x2="330" y2="660"/><line class="c" x1="60" y1="90" x2="360" y2="90"/><line class="c" x1="60" y1="120" x2="360" y2="120"/><line class="c" x1="60" y1="150" x2="360" y2="150"/><line class="c" x1="60" y1="180" x2="360" y2="180"/><line class="c" x1="60" y1="240" x2="360" y2="240"/><line class="c" x1="60" y1="270" x2="360" y2="270"/><line class="c" x1="60" y1="300" x2="360" y2="300"/><line class="c" x1="60" y1="330" x2="360" y2="330"/><line class="c" x1="60" y1="390" x2="360" y2="390"/><line class="c" x1="60" y1="420" x2="360" y2="420"/><line class="c" x1="60" y1="450" x2="360" y2="450"/><line class="c" x1="60" y1="480" x2="360" y2="480"/><line class="c" x1="60" y1="540" x2="360" y2="540"/><line class="c" x1="60" y1="570" x2="360" y2="570"/><line class="c" x1="60" y1="600" x2="360" y2="600"/><line class="c" x1="60" y1="630" x2="360" y2="630"/></g><g class="d"><line class="c" x1="360" y1="60" x2="360" y2="660"/><line class="c" x1="60" y1="210" x2="360" y2="210"/><line class="c" x1="60" y1="510" x2="360" y2="510"/></g><g class="e"><line class="c" x1="210" y1="60" x2="210" y2="660"/><line class="c" x1="60" y1="60" x2="360" y2="60"/><line class="c" x1="60" y1="360" x2="360" y2="360"/></g><g class="f"><polyline class="g" points="350.947 660 60 660 60 69.053"/><path class="h" d="M360,660c-4.26-1.581-9.545-4.277-12.821-7.134l2.58,7.134-2.58,7.132C350.455,664.276,355.74,661.579,360,660Z"/><path class="h" d="M60,60c1.581,4.26,4.277,9.545,7.134,12.821L60,70.241l-7.132,2.58C55.724,69.545,58.421,64.26,60,60Z"/></g><path class="i" d="M167.534,39.115q-.35,0-1.211-.025c-.576-.016-1.088-.025-1.539-.025q-1.8,0-2.224.025a2.037,2.037,0,0,1-.675-.025.211.211,0,0,1-.15-.225,2.533,2.533,0,0,1,.088-.362,3.227,3.227,0,0,1,.112-.363q.049-.15.55-.15,1.8-.1,2.224-1,.1-.15,1.739-6.712t1.636-6.863c0-.066-.024-.1-.074-.1h-.051a6.966,6.966,0,0,0-1.3-.1,4.047,4.047,0,0,1-.75-.037.26.26,0,0,1-.174-.163.9.9,0,0,1,.025-.35,1.53,1.53,0,0,1,.225-.55q.073-.05,2.549-.05,1.976,0,2.289.013c.208.009.336.046.386.112q.025.1.926,7.038t.9,6.987a3.254,3.254,0,0,0,.3-.437q.3-.463.813-1.275t1.176-1.85q.662-1.036,1.386-2.2t1.45-2.325q.726-1.163,1.388-2.213l1.175-1.862q.513-.813.812-1.313l.3-.475c.017-.016.046-.041.088-.075s.07-.058.088-.075l.149-.05h2.4q2.4,0,2.474.05a.238.238,0,0,1,.1.2,2.463,2.463,0,0,1-.075.388,2.93,2.93,0,0,0-.075.362q-.1.15-.925.15a4.219,4.219,0,0,0-1.55.175.453.453,0,0,0-.176.175q-.075.126-1.812,7.075t-1.738,7.025c0,.117.026.184.076.2a6.979,6.979,0,0,0,1.375.125h.775a.889.889,0,0,1,.149.275,1.66,1.66,0,0,1-.174.75.548.548,0,0,1-.4.125q-.425,0-1.474-.025t-1.85-.025q-.777,0-1.788.013t-1.388.012c-.217,0-.349-.041-.4-.125a.926.926,0,0,1,.024-.475c.067-.266.134-.421.2-.462a1.477,1.477,0,0,1,.576-.063q.675,0,1.5-.075a.662.662,0,0,0,.474-.3q.049-.1.95-3.662t1.776-7.063q.875-3.5.875-3.525-2.2,3.476-4.851,7.725l-4.925,7.825a.807.807,0,0,1-.6.225c-.25,0-.4-.058-.45-.175q-.075-.124-.963-7.15t-1.037-8.275Q165.86,36.891,165.86,37.14q.148.825,1.8.825h.25a.48.48,0,0,1,.175.225,1.166,1.166,0,0,1-.074.45q-.1.4-.2.45A1.184,1.184,0,0,1,167.534,39.115Z"/><path class="h" d="M193.435,45.14c0,.15-.151.225-.45.225h-.326l-.7-.6q-4.5-4.1-4.5-11.9a20.138,20.138,0,0,1,.726-5.575,13.48,13.48,0,0,1,3.774-6.325c.117-.1.25-.212.4-.337s.25-.213.3-.263h.326a.593.593,0,0,1,.375.075.22.22,0,0,1,.075.15q0,.1-.276.375-3.875,4.1-3.875,11.9t3.875,11.9Q193.435,45.04,193.435,45.14Z"/><path class="h" d="M195.485,29.49c-.118-.116-.176-.2-.176-.25a1.963,1.963,0,0,1,.088-.412,1.669,1.669,0,0,1,.112-.338.243.243,0,0,1,.237-.137q.188-.012,1.263-.013h1.325l.475-2q.525-2.025.6-2.175a1.136,1.136,0,0,1,1.15-.7.967.967,0,0,1,.562.225.654.654,0,0,1,.239.525,15.9,15.9,0,0,1-.476,2.125q-.1.426-.237.938c-.092.342-.162.6-.213.762l-.05.25a5.851,5.851,0,0,0,1.25.05h1.275c.117.117.175.209.175.275a1.18,1.18,0,0,1-.325.875h-2.675l-.9,3.625q-.924,3.726-.949,3.925a1.947,1.947,0,0,0-.026.375q0,1.05.675,1.05a1.529,1.529,0,0,0,.3-.025,3.592,3.592,0,0,0,2.275-2,5.312,5.312,0,0,0,.45-.925.312.312,0,0,1,.125-.187,1.092,1.092,0,0,1,.375-.038q.5,0,.5.2a1.41,1.41,0,0,1-.1.3,5.893,5.893,0,0,1-.887,1.613,6.574,6.574,0,0,1-1.238,1.287,3.211,3.211,0,0,1-1.975.7,2.55,2.55,0,0,1-1.537-.462,2.26,2.26,0,0,1-.863-1.213,3.161,3.161,0,0,1-.05-.675v-.45l.875-3.5q.875-3.525.9-3.55a6.166,6.166,0,0,0-1.275-.05Z"/><path class="h" d="M205.359,20.39l.1-.025h.551l.7.6q4.5,4.1,4.5,11.9a19.737,19.737,0,0,1-.724,5.55,13.49,13.49,0,0,1-3.776,6.35c-.116.1-.25.213-.4.338s-.25.212-.3.262h-.3a.916.916,0,0,1-.386-.05c-.059-.033-.088-.117-.088-.25.016-.017.108-.125.275-.325q3.875-4.024,3.875-11.875T205.509,20.99c-.167-.2-.259-.308-.275-.325A.293.293,0,0,1,205.359,20.39Z"/><path class="h" d="M221.234,30.44a.545.545,0,0,1,.349-.5h15.925a.548.548,0,0,1,.375.5.565.565,0,0,1-.35.475l-7.95.025h-7.95A.5.5,0,0,1,221.234,30.44Zm0,4.85a.5.5,0,0,1,.4-.5h15.9a1.053,1.053,0,0,0,.113.088,1.11,1.11,0,0,1,.125.1.4.4,0,0,1,.075.125.487.487,0,0,1,.037.187.546.546,0,0,1-.375.5H221.583A.543.543,0,0,1,221.234,35.29Z"/><path class="h" d="M248.283,28.39a1.394,1.394,0,0,1-1.1-.45,1.59,1.59,0,0,1-.4-1.1,4.1,4.1,0,0,1,1.363-3.087,4.585,4.585,0,0,1,3.262-1.288,5.419,5.419,0,0,1,3.563,1.163,4.878,4.878,0,0,1,1.737,3.037,7.356,7.356,0,0,1,.05.825,4.723,4.723,0,0,1-.875,2.725,16.591,16.591,0,0,1-2.824,2.875q-.9.775-2.5,2.3l-1.476,1.4,1.9.025a29.862,29.862,0,0,0,4.174-.125c.067-.016.151-.191.25-.525a15.484,15.484,0,0,0,.35-1.7V34.39h1v.075l-.7,4.575v.075h-9.276V38.64a1.694,1.694,0,0,1,.05-.575q.025-.024,2.1-2.375,2.724-3.024,3.5-4a7.251,7.251,0,0,0,1.675-4.175,4.372,4.372,0,0,0-.863-2.762,2.878,2.878,0,0,0-2.413-1.113,2.742,2.742,0,0,0-2.349,1.3c-.034.067-.084.159-.151.275a.568.568,0,0,0-.075.15c0,.017.042.025.125.025a1.274,1.274,0,0,1,1.013.45,1.556,1.556,0,0,1,.387,1.05,1.493,1.493,0,0,1-.412,1.063A1.423,1.423,0,0,1,248.283,28.39Z"/><path class="h" d="M258.412,25.179c-.068-.068-.1-.117-.1-.146a1.1,1.1,0,0,1,.051-.241.948.948,0,0,1,.065-.2.142.142,0,0,1,.139-.08c.072,0,.318-.008.735-.008h.773l.277-1.166q.306-1.18.349-1.268a.663.663,0,0,1,.671-.408.575.575,0,0,1,.329.131.385.385,0,0,1,.137.307,9.2,9.2,0,0,1-.276,1.238c-.039.165-.085.348-.139.547s-.1.347-.124.444l-.029.146a3.405,3.405,0,0,0,.729.029h.744c.067.068.1.122.1.16a.692.692,0,0,1-.189.511h-1.56l-.524,2.113q-.54,2.172-.554,2.288A1.183,1.183,0,0,0,260,29.8q0,.612.394.612a.892.892,0,0,0,.175-.015A2.1,2.1,0,0,0,261.9,29.23a3.147,3.147,0,0,0,.262-.539.179.179,0,0,1,.073-.109.628.628,0,0,1,.219-.022c.194,0,.292.039.292.117a.851.851,0,0,1-.059.175,3.432,3.432,0,0,1-.518.94,3.824,3.824,0,0,1-.721.75,1.877,1.877,0,0,1-1.152.408,1.491,1.491,0,0,1-.9-.269,1.324,1.324,0,0,1-.5-.707,1.8,1.8,0,0,1-.029-.394v-.262l.509-2.041q.51-2.055.525-2.069a3.531,3.531,0,0,0-.743-.029Z"/><path class="h" d="M386.035,656.494c-.116-.116-.174-.2-.174-.25a1.981,1.981,0,0,1,.088-.413,1.576,1.576,0,0,1,.112-.337.246.246,0,0,1,.237-.138c.125-.007.546-.012,1.263-.012h1.325l.475-2q.525-2.025.6-2.175a1.133,1.133,0,0,1,1.15-.7.963.963,0,0,1,.562.225.654.654,0,0,1,.237.525,15.719,15.719,0,0,1-.474,2.125c-.067.284-.147.6-.237.937s-.164.6-.213.763l-.05.25a5.931,5.931,0,0,0,1.25.05h1.275c.116.117.175.209.175.275a1.183,1.183,0,0,1-.325.875h-2.675l-.9,3.625q-.925,3.726-.951,3.925a2.166,2.166,0,0,0-.024.375q0,1.05.675,1.05a1.529,1.529,0,0,0,.3-.025,3.6,3.6,0,0,0,2.275-2,5.384,5.384,0,0,0,.45-.925.3.3,0,0,1,.125-.188,1.13,1.13,0,0,1,.375-.037c.333,0,.5.066.5.2a1.429,1.429,0,0,1-.1.3,5.893,5.893,0,0,1-.888,1.612,6.523,6.523,0,0,1-1.237,1.288,3.219,3.219,0,0,1-1.975.7,2.558,2.558,0,0,1-1.538-.462,2.267,2.267,0,0,1-.862-1.213,3.1,3.1,0,0,1-.05-.675v-.45l.875-3.5q.875-3.525.9-3.55a6.182,6.182,0,0,0-1.275-.05Z"/><line class="j" x1="300" y1="660" x2="300" y2="657"/><line class="k" x1="300" y1="651" x2="300" y2="426"/><polyline class="j" points="300 423 300 420 297 420"/><line class="l" x1="291.4" y1="420" x2="215.8" y2="420"/><line class="j" x1="213" y1="420" x2="210" y2="420"/><line class="j" x1="210" y1="540" x2="213" y2="540"/><line class="m" x1="219" y1="540" x2="264" y2="540"/><polyline class="j" points="267 540 270 540 270 543"/><line class="k" x1="270" y1="549" x2="270" y2="654"/><line class="j" x1="270" y1="657" x2="270" y2="660"/><g class="n"><path class="h" d="M51.944,692.644v-1.826h6.649v1.826Z"/><path class="h" d="M62.668,691.769a1.372,1.372,0,0,1,1.013.412,1.41,1.41,0,0,1,.412,1.037,1.287,1.287,0,0,1-.425.975,1.35,1.35,0,0,1-.95.4h-.175l.075.125a3.244,3.244,0,0,0,1.15,1.325,3.166,3.166,0,0,0,1.825.525,2.655,2.655,0,0,0,2.55-1.5,7.631,7.631,0,0,0,.475-3.2,6.226,6.226,0,0,0-.674-3.474,1.968,1.968,0,0,0-1.6-.826,3.22,3.22,0,0,0-2.95,1.7.475.475,0,0,1-.188.211,1.06,1.06,0,0,1-.362.039c-.283,0-.441-.051-.475-.151q-.051-.1-.049-4.375,0-.75-.013-1.775t-.013-1.3q0-1.4.151-1.4a.141.141,0,0,1,.1-.051l.45.15a8.868,8.868,0,0,0,3.326.651,8.5,8.5,0,0,0,3.4-.7.789.789,0,0,1,.325-.1q.2,0,.2.45v.325a6.391,6.391,0,0,1-5.125,2.425,6.073,6.073,0,0,1-1.4-.149l-.25-.051v4.3a4.286,4.286,0,0,1,3.95-1.026,4.731,4.731,0,0,1,2.738,1.9,5.744,5.744,0,0,1,1.062,3.449,5.471,5.471,0,0,1-1.587,3.926,5.218,5.218,0,0,1-3.913,1.649,4.166,4.166,0,0,1-2.675-.875,2.782,2.782,0,0,1-.825-.825,4.432,4.432,0,0,1-.95-2.225q0-.075-.012-.237c-.009-.109-.013-.188-.013-.237a1.488,1.488,0,0,1,.4-1.1A1.384,1.384,0,0,1,62.668,691.769Z"/></g><g class="n"><path class="h" d="M208.231,682.493a4.413,4.413,0,0,1,3.825-2.025,4.611,4.611,0,0,1,3.2,1.25,5.458,5.458,0,0,1,1.151,1.7,14.319,14.319,0,0,1,.924,5.7,13.043,13.043,0,0,1-1.075,5.925,4.337,4.337,0,0,1-2.05,2.1,4.721,4.721,0,0,1-2.125.524,4.4,4.4,0,0,1-4.2-2.625,13.043,13.043,0,0,1-1.075-5.925,19.524,19.524,0,0,1,.312-3.838A8.4,8.4,0,0,1,208.231,682.493Zm5.625-.3a2.3,2.3,0,0,0-1.775-.8,2.379,2.379,0,0,0-1.8.8,2.989,2.989,0,0,0-.75,1.4,15.361,15.361,0,0,0-.25,2.85c0,.1-.005.425-.013.975s-.013,1.009-.013,1.375q0,2.4.05,3.351a14.233,14.233,0,0,0,.3,2.511,2.849,2.849,0,0,0,.75,1.313,2.217,2.217,0,0,0,1.725.75,2.194,2.194,0,0,0,1.7-.75,2.849,2.849,0,0,0,.75-1.313,14.454,14.454,0,0,0,.3-2.511q.051-.951.05-3.351,0-.549-.013-1.375t-.012-.975a15.361,15.361,0,0,0-.25-2.85A3.006,3.006,0,0,0,213.856,682.193Z"/></g><g class="n"><path class="h" d="M358.506,691.769a1.373,1.373,0,0,1,1.013.412,1.41,1.41,0,0,1,.412,1.037,1.287,1.287,0,0,1-.425.975,1.35,1.35,0,0,1-.95.4h-.175l.075.125a3.244,3.244,0,0,0,1.15,1.325,3.166,3.166,0,0,0,1.825.525,2.655,2.655,0,0,0,2.55-1.5,7.631,7.631,0,0,0,.475-3.2,6.226,6.226,0,0,0-.674-3.474,1.968,1.968,0,0,0-1.6-.826,3.22,3.22,0,0,0-2.95,1.7.475.475,0,0,1-.188.211,1.06,1.06,0,0,1-.362.039c-.283,0-.441-.051-.475-.151q-.051-.1-.049-4.375,0-.75-.013-1.775t-.013-1.3q0-1.4.151-1.4a.141.141,0,0,1,.1-.051l.45.15a8.868,8.868,0,0,0,3.326.651,8.5,8.5,0,0,0,3.4-.7.789.789,0,0,1,.325-.1q.2,0,.2.45v.325a6.391,6.391,0,0,1-5.125,2.425,6.073,6.073,0,0,1-1.4-.149l-.25-.051v4.3a4.286,4.286,0,0,1,3.95-1.026,4.729,4.729,0,0,1,2.737,1.9,5.745,5.745,0,0,1,1.063,3.449,5.471,5.471,0,0,1-1.587,3.926,5.22,5.22,0,0,1-3.913,1.649,4.166,4.166,0,0,1-2.675-.875,2.782,2.782,0,0,1-.825-.825,4.432,4.432,0,0,1-.95-2.225q0-.075-.012-.237c-.009-.109-.013-.188-.013-.237a1.488,1.488,0,0,1,.4-1.1A1.384,1.384,0,0,1,358.506,691.769Z"/></g><g class="n"><path class="h" d="M20.249,56.394a1.394,1.394,0,0,1-1.1-.45,1.6,1.6,0,0,1-.4-1.1,4.1,4.1,0,0,1,1.363-3.087,4.585,4.585,0,0,1,3.262-1.288,5.421,5.421,0,0,1,3.563,1.163,4.882,4.882,0,0,1,1.737,3.037,7.635,7.635,0,0,1,.051.826,4.728,4.728,0,0,1-.875,2.724,16.607,16.607,0,0,1-2.825,2.875q-.9.777-2.5,2.3l-1.476,1.4,1.9.026a30.064,30.064,0,0,0,4.174-.125c.067-.017.151-.192.25-.526a15.574,15.574,0,0,0,.351-1.7v-.074h1v.074l-.7,4.575v.076H18.749v-.475a1.69,1.69,0,0,1,.05-.575q.026-.025,2.1-2.375,2.724-3.026,3.5-4a7.253,7.253,0,0,0,1.675-4.175,4.373,4.373,0,0,0-.863-2.763A2.881,2.881,0,0,0,22.8,51.644a2.741,2.741,0,0,0-2.349,1.3c-.034.066-.084.158-.151.274a.533.533,0,0,0-.074.151c0,.016.041.025.125.025a1.271,1.271,0,0,1,1.012.449,1.565,1.565,0,0,1,.387,1.051,1.5,1.5,0,0,1-.412,1.063A1.427,1.427,0,0,1,20.249,56.394Z"/><path class="h" d="M32.4,52.494a4.41,4.41,0,0,1,3.825-2.026,4.609,4.609,0,0,1,3.2,1.25,5.452,5.452,0,0,1,1.151,1.7,14.324,14.324,0,0,1,.924,5.7,13.038,13.038,0,0,1-1.075,5.924,4.333,4.333,0,0,1-2.05,2.1,4.705,4.705,0,0,1-2.125.524,4.406,4.406,0,0,1-4.2-2.625,13.04,13.04,0,0,1-1.074-5.924,19.447,19.447,0,0,1,.312-3.838A8.367,8.367,0,0,1,32.4,52.494Zm5.625-.3a2.307,2.307,0,0,0-1.776-.8,2.38,2.38,0,0,0-1.8.8,2.985,2.985,0,0,0-.75,1.4,15.365,15.365,0,0,0-.25,2.851c0,.1,0,.425-.013.974s-.013,1.009-.013,1.375q0,2.4.051,3.351a14.15,14.15,0,0,0,.3,2.512,2.829,2.829,0,0,0,.75,1.312,2.215,2.215,0,0,0,1.724.75,2.192,2.192,0,0,0,1.7-.75,2.846,2.846,0,0,0,.75-1.312,14.369,14.369,0,0,0,.3-2.512q.051-.951.05-3.351,0-.549-.012-1.375c-.008-.549-.012-.875-.012-.974a15.546,15.546,0,0,0-.25-2.851A3.021,3.021,0,0,0,38.025,52.194Z"/></g><g class="n"><path class="h" d="M27.9,217.119q-.426-.075-3.976-.076-3.5,0-3.925.076h-.3v-1.151h.65a14.162,14.162,0,0,0,1.875-.074,1.623,1.623,0,0,0,.6-.3V202.668a.62.62,0,0,0-.2.076,7.358,7.358,0,0,1-2.575.474h-.474v-1.149h.474a6.964,6.964,0,0,0,3.5-.95,3.435,3.435,0,0,0,.776-.576c.033-.049.132-.075.3-.075a.63.63,0,0,1,.425.151v7.474l.026,7.5a2.419,2.419,0,0,0,1.625.375h1.474v1.151Z"/><path class="h" d="M32.674,211.769a1.376,1.376,0,0,1,1.013.412,1.409,1.409,0,0,1,.413,1.037,1.292,1.292,0,0,1-.426.976,1.352,1.352,0,0,1-.949.4h-.176l.075.125a3.24,3.24,0,0,0,1.151,1.325,3.167,3.167,0,0,0,1.825.526,2.656,2.656,0,0,0,2.55-1.5,7.638,7.638,0,0,0,.474-3.2,6.223,6.223,0,0,0-.674-3.475,1.967,1.967,0,0,0-1.6-.825,3.217,3.217,0,0,0-2.95,1.7.491.491,0,0,1-.188.212,1.1,1.1,0,0,1-.362.038c-.284,0-.442-.051-.476-.15q-.05-.1-.049-4.375,0-.75-.013-1.776t-.013-1.3q0-1.4.151-1.4a.145.145,0,0,1,.1-.051l.45.151a8.887,8.887,0,0,0,3.326.65,8.5,8.5,0,0,0,3.4-.7.774.774,0,0,1,.324-.1c.134,0,.2.151.2.45v.326a6.389,6.389,0,0,1-5.125,2.424,6,6,0,0,1-1.4-.149l-.25-.051v4.3a4.286,4.286,0,0,1,3.949-1.025,4.734,4.734,0,0,1,2.738,1.9,5.747,5.747,0,0,1,1.063,3.449,5.466,5.466,0,0,1-1.588,3.926,5.214,5.214,0,0,1-3.912,1.649,4.167,4.167,0,0,1-2.676-.875,2.756,2.756,0,0,1-.824-.825,4.42,4.42,0,0,1-.95-2.224c0-.05,0-.129-.013-.238s-.013-.187-.013-.237a1.488,1.488,0,0,1,.4-1.1A1.387,1.387,0,0,1,32.674,211.769Z"/></g><g class="n"><path class="h" d="M27.9,367.119q-.426-.077-3.976-.076-3.5,0-3.925.076h-.3v-1.15h.65a14.539,14.539,0,0,0,1.875-.074,1.656,1.656,0,0,0,.6-.3V352.668a.62.62,0,0,0-.2.076,7.358,7.358,0,0,1-2.575.474h-.474v-1.149h.474a6.964,6.964,0,0,0,3.5-.95,3.435,3.435,0,0,0,.776-.576c.033-.049.132-.075.3-.075a.63.63,0,0,1,.425.151v7.474l.026,7.5a2.419,2.419,0,0,0,1.625.375h1.474v1.15Z"/><path class="h" d="M32.4,352.494a4.41,4.41,0,0,1,3.825-2.026,4.609,4.609,0,0,1,3.2,1.25,5.452,5.452,0,0,1,1.151,1.7,14.324,14.324,0,0,1,.924,5.7,13.035,13.035,0,0,1-1.075,5.924,4.335,4.335,0,0,1-2.05,2.1,4.717,4.717,0,0,1-2.125.523,4.406,4.406,0,0,1-4.2-2.625,13.037,13.037,0,0,1-1.074-5.924,19.447,19.447,0,0,1,.312-3.838A8.367,8.367,0,0,1,32.4,352.494Zm5.625-.3a2.307,2.307,0,0,0-1.776-.8,2.38,2.38,0,0,0-1.8.8,2.985,2.985,0,0,0-.75,1.4,15.365,15.365,0,0,0-.25,2.851c0,.1,0,.425-.013.974s-.013,1.009-.013,1.375c0,1.6.017,2.717.051,3.352a14.136,14.136,0,0,0,.3,2.511,2.842,2.842,0,0,0,.75,1.313,2.215,2.215,0,0,0,1.724.75,2.192,2.192,0,0,0,1.7-.75,2.859,2.859,0,0,0,.75-1.313,14.354,14.354,0,0,0,.3-2.511c.034-.635.05-1.75.05-3.352q0-.549-.012-1.375c-.008-.549-.012-.875-.012-.974a15.546,15.546,0,0,0-.25-2.851A3.021,3.021,0,0,0,38.025,352.194Z"/></g><g class="n"><path class="h" d="M26.424,511.769a1.372,1.372,0,0,1,1.013.412,1.407,1.407,0,0,1,.413,1.037,1.288,1.288,0,0,1-.426.975,1.349,1.349,0,0,1-.949.4H26.3l.075.125a3.246,3.246,0,0,0,1.151,1.325,3.166,3.166,0,0,0,1.825.525,2.656,2.656,0,0,0,2.55-1.5,7.634,7.634,0,0,0,.474-3.2,6.217,6.217,0,0,0-.674-3.474,1.968,1.968,0,0,0-1.6-.826,3.218,3.218,0,0,0-2.95,1.7.487.487,0,0,1-.188.211,1.064,1.064,0,0,1-.362.039c-.284,0-.442-.051-.476-.151q-.049-.1-.049-4.375,0-.75-.013-1.775t-.013-1.3q0-1.4.151-1.4a.141.141,0,0,1,.1-.051l.45.15a8.868,8.868,0,0,0,3.326.651,8.5,8.5,0,0,0,3.4-.7.785.785,0,0,1,.324-.1c.134,0,.2.15.2.45v.325a6.39,6.39,0,0,1-5.125,2.425,6.058,6.058,0,0,1-1.4-.149l-.25-.051v4.3a4.284,4.284,0,0,1,3.949-1.026,4.731,4.731,0,0,1,2.738,1.9,5.745,5.745,0,0,1,1.063,3.449,5.468,5.468,0,0,1-1.588,3.926,5.218,5.218,0,0,1-3.912,1.649,4.167,4.167,0,0,1-2.676-.875,2.768,2.768,0,0,1-.824-.825,4.424,4.424,0,0,1-.95-2.225c0-.05,0-.129-.013-.237s-.013-.188-.013-.237a1.488,1.488,0,0,1,.4-1.1A1.383,1.383,0,0,1,26.424,511.769Z"/></g><g class="n"><path class="h" d="M26.15,652.494a4.411,4.411,0,0,1,3.825-2.025,4.6,4.6,0,0,1,3.2,1.25,5.447,5.447,0,0,1,1.151,1.7,14.327,14.327,0,0,1,.924,5.7,13.035,13.035,0,0,1-1.075,5.924,4.335,4.335,0,0,1-2.05,2.1,4.717,4.717,0,0,1-2.125.523,4.406,4.406,0,0,1-4.2-2.625,13.037,13.037,0,0,1-1.074-5.924,19.433,19.433,0,0,1,.312-3.838A8.375,8.375,0,0,1,26.15,652.494Zm5.625-.3A2.3,2.3,0,0,0,30,651.4a2.378,2.378,0,0,0-1.8.8,2.992,2.992,0,0,0-.75,1.4,15.358,15.358,0,0,0-.25,2.849c0,.1,0,.426-.013.975s-.013,1.01-.013,1.375c0,1.6.017,2.717.051,3.352a14.136,14.136,0,0,0,.3,2.511,2.842,2.842,0,0,0,.75,1.313,2.215,2.215,0,0,0,1.724.75,2.192,2.192,0,0,0,1.7-.75,2.859,2.859,0,0,0,.75-1.313,14.354,14.354,0,0,0,.3-2.511c.034-.635.05-1.75.05-3.352q0-.548-.012-1.375c-.008-.549-.012-.875-.012-.975a15.538,15.538,0,0,0-.25-2.849A3.028,3.028,0,0,0,31.775,652.193Z"/></g><path class="o" d="M60,659.062c22.688-.522,45.414-1.259,68-3.573,28.954-3.027,58.884-8.96,83-26.19,47.167-33.279,66.279-105.967,79-159.787,12.826-57.051,21-115.263,28-173.284,8.917-75.376,15.431-151.469,21-227.2"/><path class="i" d="M339.655,60c1.235,4.372,3.5,9.857,6.085,13.351l-6.9-3.143-7.316,2C334.629,69.172,337.74,64.12,339.655,60Z"/><line class="p" x1="270" y1="540" x2="300" y2="540"/><line class="q" x1="240" y1="660" x2="360" y2="180"/><line class="r" x1="300" y1="420" x2="300" y2="540"/><circle class="s" cx="270" cy="540" r="3.5"/><circle class="s" cx="300" cy="420" r="3.5"/><g class="t"><line class="u" x1="100" y1="-877.25" x2="100" y2="1402.75"/></g><rect class="a" x="-20" y="922.75" width="480" height="480"/></svg>