<svg width="720" height="405" viewBox="0 0 720 405" fill="none" xmlns="http://www.w3.org/2000/svg">
<rect width="720" height="405" fill="black"/>
<rect x="304.405" y="99.1326" width="62.171" height="26.918" fill="black"/>
<g clip-path="url(#clip0_384_3056)">
<path d="M316.57 111.34C316.733 111.38 317.371 111.401 318.484 111.401C319.475 111.401 320.011 111.38 320.093 111.34H320.215V112.602H318.79L316.733 117.204C315.905 119.077 315.43 120.095 315.308 120.258C315.199 120.394 315.07 120.462 314.921 120.462C314.894 120.462 314.846 120.462 314.778 120.462C314.71 120.462 314.643 120.455 314.575 120.441H314.269C314.066 120.441 313.903 120.339 313.781 120.136C313.658 119.932 313.367 119.321 312.905 118.303C312.701 117.855 312.538 117.489 312.416 117.204L310.36 112.602H308.934V111.34H309.097C309.301 111.38 310.054 111.401 311.357 111.401C312.81 111.401 313.658 111.38 313.903 111.34H314.086V112.602H313.109L314.188 115.005C314.88 116.566 315.247 117.346 315.287 117.346C315.287 117.333 315.633 116.552 316.326 115.005C317.018 113.457 317.378 112.663 317.405 112.622C317.405 112.609 317.242 112.602 316.916 112.602H316.428V111.34H316.57Z" fill="#FFF888"/>
<path d="M317.171 105.577C317.171 105.468 317.205 105.373 317.273 105.292C317.34 105.21 317.442 105.17 317.578 105.17C317.673 105.17 317.755 105.204 317.822 105.272C317.89 105.326 317.958 105.455 318.026 105.658C318.162 106.161 318.44 106.548 318.861 106.819C319.01 106.914 319.085 107.036 319.085 107.186C319.085 107.308 319.064 107.389 319.024 107.43C318.983 107.471 318.888 107.532 318.739 107.613C318.155 107.912 317.646 108.339 317.212 108.896C317.184 108.923 317.15 108.964 317.11 109.018C317.069 109.072 317.035 109.113 317.008 109.14C316.981 109.167 316.947 109.181 316.906 109.181C316.865 109.181 316.818 109.188 316.764 109.201C316.669 109.201 316.58 109.167 316.499 109.1C316.417 109.032 316.37 108.93 316.356 108.794C316.356 108.536 316.675 108.136 317.313 107.593H313.831L310.35 107.572C310.173 107.45 310.085 107.321 310.085 107.186C310.085 107.091 310.173 106.955 310.35 106.778H317.659C317.334 106.263 317.171 105.862 317.171 105.577Z" fill="#FFF888"/>
<path d="M326.429 115.554C326.429 115.554 326.429 115.466 326.429 115.29C326.429 115.113 326.524 114.977 326.714 114.882H332.803V111.828L332.823 108.774C332.959 108.597 333.088 108.509 333.21 108.509C333.386 108.509 333.522 108.611 333.617 108.815V114.882H339.685C339.889 114.991 339.99 115.127 339.99 115.29C339.99 115.453 339.889 115.588 339.685 115.697H333.617V121.765C333.509 121.955 333.386 122.05 333.251 122.05H333.21H333.169C333.006 122.05 332.884 121.955 332.803 121.765V115.697H326.714C326.524 115.602 326.429 115.466 326.429 115.29V115.554Z" fill="#F0F0F0"/>
<path d="M358.361 111.339C358.524 111.38 359.189 111.4 360.357 111.4C361.375 111.4 361.904 111.38 361.945 111.339H362.047V112.602H360.743L357.73 120.156C357.716 120.17 357.696 120.19 357.669 120.217C357.642 120.244 357.614 120.272 357.587 120.299C357.56 120.326 357.547 120.339 357.547 120.339C357.547 120.339 357.526 120.353 357.485 120.38C357.445 120.407 357.431 120.421 357.445 120.421C357.458 120.421 357.431 120.428 357.363 120.441C357.295 120.455 357.268 120.455 357.282 120.441C357.295 120.428 357.268 120.434 357.2 120.462C357.133 120.489 357.092 120.489 357.078 120.462C357.065 120.434 357.01 120.434 356.915 120.462H356.691C356.461 120.462 356.298 120.394 356.203 120.258C356.108 120.122 355.918 119.688 355.633 118.955C355.415 118.412 355.232 117.957 355.083 117.591L354.105 115.147L353.128 117.591C352.992 117.943 352.816 118.385 352.599 118.914C352.314 119.661 352.123 120.102 352.028 120.238C351.933 120.373 351.771 120.448 351.54 120.462H351.295C351.051 120.462 350.888 120.448 350.807 120.421C350.725 120.394 350.623 120.305 350.501 120.156L347.488 112.602H346.164V111.339H346.307C346.51 111.38 347.243 111.4 348.506 111.4C349.904 111.4 350.725 111.38 350.97 111.339H351.153V112.602H350.176L351.967 117.041L353.433 113.416L353.108 112.602H351.825V111.339H351.967C352.13 111.38 352.789 111.4 353.942 111.4C355.314 111.4 356.101 111.38 356.304 111.339H356.467V112.602H355.958C355.619 112.602 355.449 112.615 355.449 112.643C355.463 112.697 355.789 113.518 356.427 115.106C357.065 116.695 357.39 117.489 357.404 117.489L359.379 112.602H358.219V111.339H358.361Z" fill="#D582FF"/>
<path d="M356.702 105.577C356.702 105.468 356.735 105.373 356.803 105.292C356.871 105.21 356.973 105.17 357.109 105.17C357.204 105.17 357.285 105.204 357.353 105.272C357.421 105.326 357.489 105.455 357.557 105.658C357.692 106.161 357.971 106.548 358.392 106.819C358.541 106.914 358.616 107.036 358.616 107.186C358.616 107.308 358.595 107.389 358.554 107.43C358.514 107.471 358.419 107.532 358.269 107.613C357.686 107.912 357.177 108.339 356.742 108.896C356.715 108.923 356.681 108.964 356.64 109.018C356.6 109.072 356.566 109.113 356.539 109.14C356.511 109.167 356.478 109.181 356.437 109.181C356.396 109.181 356.349 109.188 356.294 109.201C356.199 109.201 356.111 109.167 356.03 109.1C355.948 109.032 355.901 108.93 355.887 108.794C355.887 108.536 356.206 108.136 356.844 107.593H353.362L349.88 107.572C349.704 107.45 349.616 107.321 349.616 107.186C349.616 107.091 349.704 106.955 349.88 106.778H357.19C356.864 106.263 356.702 105.862 356.702 105.577Z" fill="#D582FF"/>
</g>
<rect x="318.218" y="277.303" width="30.545" height="25.244" fill="black"/>
<g clip-path="url(#clip1_384_3056)">
<path d="M324.441 289.813C324.074 289.813 323.783 289.691 323.565 289.446C323.348 289.202 323.24 288.903 323.24 288.55C323.24 287.587 323.599 286.752 324.319 286.046C325.038 285.34 325.934 284.988 327.006 284.988C328.241 284.988 329.273 285.368 330.101 286.128C330.929 286.888 331.349 287.872 331.363 289.08C331.363 289.663 331.227 290.22 330.956 290.749C330.684 291.278 330.359 291.74 329.979 292.134C329.599 292.527 329.056 293.029 328.35 293.64C327.861 294.061 327.183 294.685 326.314 295.513L325.113 296.653L326.66 296.674C328.791 296.674 329.924 296.64 330.06 296.572C330.155 296.545 330.318 295.941 330.549 294.76V294.699H331.363V294.76C331.349 294.801 331.261 295.418 331.098 296.613C330.935 297.807 330.834 298.431 330.793 298.486V298.547H323.24V298.16V297.916C323.24 297.82 323.28 297.719 323.362 297.61C323.443 297.502 323.647 297.264 323.973 296.898C324.366 296.463 324.706 296.083 324.991 295.757C325.113 295.622 325.344 295.371 325.683 295.004C326.022 294.638 326.253 294.387 326.375 294.251C326.497 294.115 326.694 293.891 326.965 293.579C327.237 293.267 327.427 293.036 327.535 292.887C327.644 292.738 327.8 292.534 328.004 292.276C328.207 292.018 328.35 291.801 328.431 291.625C328.513 291.448 328.614 291.251 328.737 291.034C328.859 290.817 328.947 290.6 329.001 290.383C329.056 290.166 329.103 289.962 329.144 289.772C329.185 289.582 329.205 289.358 329.205 289.1C329.205 288.245 328.974 287.505 328.513 286.881C328.051 286.257 327.393 285.944 326.538 285.944C326.09 285.944 325.696 286.06 325.357 286.291C325.018 286.521 324.78 286.745 324.645 286.962C324.509 287.18 324.441 287.309 324.441 287.349C324.441 287.363 324.475 287.37 324.543 287.37C324.787 287.37 325.038 287.465 325.296 287.655C325.554 287.845 325.683 288.157 325.683 288.591C325.683 288.93 325.574 289.215 325.357 289.446C325.14 289.677 324.835 289.799 324.441 289.813Z" fill="white"/>
<path d="M340.565 289.507C340.728 289.548 341.366 289.568 342.479 289.568C343.47 289.568 344.006 289.548 344.087 289.507H344.209V290.77H342.784L340.728 295.371C339.9 297.244 339.425 298.262 339.303 298.425C339.194 298.56 339.065 298.628 338.916 298.628C338.889 298.628 338.841 298.628 338.774 298.628C338.706 298.628 338.638 298.621 338.57 298.608H338.265C338.061 298.608 337.898 298.506 337.776 298.302C337.654 298.099 337.362 297.488 336.901 296.47C336.697 296.022 336.534 295.656 336.412 295.371L334.356 290.77H332.931V289.507H333.093C333.297 289.548 334.05 289.568 335.353 289.568C336.806 289.568 337.654 289.548 337.898 289.507H338.081V290.77H337.104L338.183 293.172C338.875 294.733 339.242 295.513 339.283 295.513C339.283 295.5 339.629 294.719 340.321 293.172C341.013 291.625 341.373 290.831 341.4 290.79C341.4 290.776 341.237 290.77 340.911 290.77H340.423V289.507H340.565Z" fill="#FFF888"/>
<path d="M341.166 283.746C341.166 283.637 341.2 283.542 341.268 283.461C341.335 283.379 341.437 283.339 341.573 283.339C341.668 283.339 341.749 283.372 341.817 283.44C341.885 283.495 341.953 283.624 342.021 283.827C342.157 284.329 342.435 284.716 342.856 284.988C343.005 285.083 343.08 285.205 343.08 285.354C343.08 285.476 343.059 285.558 343.018 285.598C342.978 285.639 342.883 285.7 342.733 285.782C342.15 286.08 341.641 286.508 341.206 287.064C341.179 287.091 341.145 287.132 341.105 287.186C341.064 287.241 341.03 287.281 341.003 287.309C340.976 287.336 340.942 287.349 340.901 287.349C340.86 287.349 340.813 287.356 340.759 287.37C340.664 287.37 340.575 287.336 340.494 287.268C340.412 287.2 340.365 287.098 340.351 286.962C340.351 286.705 340.67 286.304 341.308 285.761H337.827L334.346 285.741C334.169 285.619 334.081 285.49 334.081 285.354C334.081 285.259 334.169 285.123 334.346 284.947H341.654C341.329 284.431 341.166 284.031 341.166 283.746Z" fill="#FFF888"/>
</g>
<path d="M151.976 160.635L162.374 173.381L145.939 172.71L151.641 168.015L151.976 160.635Z" fill="#FFF888"/>
<path d="M82.374 133.381L158.796 171.592" stroke="#FFF888" stroke-width="1.5"/>
<path d="M191.227 65.4768L202.374 53.3811L204.034 69.7459L198.579 64.7653L191.227 65.4768Z" fill="#D582FF"/>
<path d="M162.374 173.381L201.109 57.1758" stroke="#D582FF" stroke-width="1.5"/>
<path d="M186.149 56.0852L202.374 53.381L193.637 67.3179L192.389 60.0374L186.149 56.0852Z" fill="#6AB0F3"/>
<path d="M82.374 133.381L199.046 55.5999" stroke="#6AB0F3" stroke-width="1.5"/>
<path d="M131.355 144.943H114.419V165.768H131.355V144.943Z" fill="black"/>
<g clip-path="url(#clip2_384_3056)">
<path d="M124.162 153.262C124.307 153.298 124.874 153.316 125.863 153.316C126.744 153.316 127.22 153.298 127.293 153.262H127.401V154.384H126.135L124.307 158.473C123.571 160.138 123.149 161.043 123.04 161.187C122.944 161.308 122.829 161.368 122.696 161.368C122.672 161.368 122.63 161.368 122.57 161.368C122.509 161.368 122.449 161.362 122.389 161.35H122.117C121.936 161.35 121.792 161.26 121.683 161.079C121.574 160.898 121.315 160.355 120.905 159.45C120.724 159.052 120.579 158.726 120.471 158.473L118.643 154.384H117.376V153.262H117.521C117.702 153.298 118.372 153.316 119.53 153.316C120.821 153.316 121.574 153.298 121.792 153.262H121.954V154.384H121.086L122.045 156.519C122.66 157.906 122.986 158.6 123.022 158.6C123.022 158.588 123.33 157.894 123.945 156.519C124.56 155.144 124.88 154.438 124.904 154.402C124.904 154.39 124.759 154.384 124.47 154.384H124.035V153.262H124.162Z" fill="#FFF888"/>
<path d="M124.696 148.141C124.696 148.044 124.726 147.96 124.786 147.887C124.847 147.815 124.937 147.779 125.058 147.779C125.142 147.779 125.215 147.809 125.275 147.869C125.335 147.917 125.396 148.032 125.456 148.213C125.577 148.659 125.824 149.003 126.198 149.244C126.331 149.329 126.397 149.437 126.397 149.57C126.397 149.679 126.379 149.751 126.343 149.787C126.306 149.823 126.222 149.878 126.089 149.95C125.571 150.216 125.118 150.596 124.732 151.09C124.708 151.114 124.678 151.15 124.642 151.199C124.605 151.247 124.575 151.283 124.551 151.307C124.527 151.331 124.497 151.343 124.461 151.343C124.425 151.343 124.382 151.35 124.334 151.362C124.25 151.362 124.171 151.331 124.099 151.271C124.026 151.211 123.984 151.12 123.972 151C123.972 150.77 124.256 150.415 124.823 149.932H121.728L118.634 149.914C118.477 149.805 118.399 149.691 118.399 149.57C118.399 149.486 118.477 149.365 118.634 149.208H125.13C124.841 148.75 124.696 148.394 124.696 148.141Z" fill="#FFF888"/>
</g>
<path d="M193.568 104.932H172.169V125.778H193.568V104.932Z" fill="black"/>
<g clip-path="url(#clip3_384_3056)">
<path d="M185.968 113.251C186.113 113.287 186.704 113.306 187.741 113.306C188.646 113.306 189.117 113.287 189.153 113.251H189.243V114.373H188.085L185.407 121.087C185.395 121.099 185.377 121.117 185.353 121.141C185.328 121.166 185.304 121.19 185.28 121.214C185.256 121.238 185.244 121.25 185.244 121.25C185.244 121.25 185.226 121.262 185.19 121.286C185.153 121.31 185.141 121.322 185.153 121.322C185.166 121.322 185.141 121.328 185.081 121.341C185.021 121.353 184.997 121.353 185.009 121.341C185.021 121.328 184.997 121.334 184.936 121.359C184.876 121.383 184.84 121.383 184.828 121.359C184.816 121.334 184.767 121.334 184.683 121.359H184.484C184.279 121.359 184.134 121.298 184.05 121.178C183.965 121.057 183.796 120.671 183.543 120.019C183.35 119.537 183.187 119.133 183.054 118.807L182.186 116.635L181.317 118.807C181.196 119.121 181.039 119.513 180.846 119.983C180.593 120.647 180.424 121.039 180.34 121.16C180.255 121.28 180.11 121.347 179.905 121.359H179.688C179.471 121.359 179.326 121.347 179.254 121.322C179.182 121.298 179.091 121.22 178.982 121.087L176.304 114.373H175.128V113.251H175.255C175.435 113.287 176.087 113.306 177.209 113.306C178.452 113.306 179.182 113.287 179.399 113.251H179.562V114.373H178.693L180.285 118.318L181.588 115.097L181.299 114.373H180.159V113.251H180.285C180.43 113.287 181.015 113.306 182.041 113.306C183.259 113.306 183.959 113.287 184.14 113.251H184.285V114.373H183.832C183.531 114.373 183.38 114.385 183.38 114.409C183.392 114.458 183.682 115.188 184.249 116.599C184.816 118.011 185.105 118.716 185.117 118.716L186.873 114.373H185.841V113.251H185.968Z" fill="#D582FF"/>
<path d="M184.493 108.13C184.493 108.033 184.523 107.949 184.583 107.876C184.644 107.804 184.734 107.768 184.855 107.768C184.939 107.768 185.012 107.798 185.072 107.858C185.132 107.907 185.193 108.021 185.253 108.202C185.374 108.649 185.621 108.992 185.995 109.234C186.128 109.318 186.194 109.427 186.194 109.559C186.194 109.668 186.176 109.74 186.14 109.777C186.104 109.813 186.019 109.867 185.886 109.94C185.368 110.205 184.915 110.585 184.529 111.08C184.505 111.104 184.475 111.14 184.439 111.188C184.402 111.236 184.372 111.273 184.348 111.297C184.324 111.321 184.294 111.333 184.258 111.333C184.221 111.333 184.179 111.339 184.131 111.351C184.047 111.351 183.968 111.321 183.896 111.261C183.823 111.2 183.781 111.11 183.769 110.989C183.769 110.76 184.053 110.404 184.62 109.921H181.525L178.43 109.903C178.274 109.795 178.195 109.68 178.195 109.559C178.195 109.475 178.274 109.354 178.43 109.198H184.927C184.638 108.739 184.493 108.383 184.493 108.13Z" fill="#D582FF"/>
</g>
<path d="M171.639 84.1721H114.136V106.541H171.639V84.1721Z" fill="black"/>
<g clip-path="url(#clip4_384_3056)">
<path d="M123.881 92.4915C124.025 92.5277 124.592 92.5458 125.582 92.5458C126.463 92.5458 126.939 92.5277 127.012 92.4915H127.12V93.6137H125.853L124.025 97.7042C123.289 99.3693 122.867 100.274 122.758 100.419C122.662 100.54 122.547 100.6 122.414 100.6C122.39 100.6 122.348 100.6 122.288 100.6C122.227 100.6 122.167 100.594 122.107 100.582H121.835C121.654 100.582 121.509 100.492 121.401 100.311C121.292 100.13 121.033 99.5865 120.623 98.6815C120.442 98.2834 120.297 97.9576 120.188 97.7042L118.36 93.6137H117.093V92.4915H117.238C117.419 92.5277 118.089 92.5458 119.247 92.5458C120.538 92.5458 121.292 92.5277 121.509 92.4915H121.672V93.6137H120.804L121.763 95.7494C122.378 97.1371 122.704 97.8309 122.74 97.8309C122.74 97.8188 123.048 97.125 123.663 95.7494C124.279 94.3739 124.598 93.668 124.623 93.6318C124.623 93.6197 124.478 93.6137 124.188 93.6137H123.754V92.4915H123.881Z" fill="#6AB0F3"/>
<path d="M124.414 87.3693C124.414 87.2728 124.445 87.1884 124.505 87.116C124.565 87.0436 124.656 87.0074 124.776 87.0074C124.861 87.0074 124.933 87.0375 124.994 87.0979C125.054 87.1461 125.114 87.2607 125.175 87.4417C125.295 87.8882 125.543 88.2321 125.917 88.4734C126.049 88.5579 126.116 88.6665 126.116 88.7992C126.116 88.9078 126.098 88.9802 126.061 89.0164C126.025 89.0526 125.941 89.1069 125.808 89.1793C125.289 89.4448 124.837 89.8249 124.451 90.3196C124.427 90.3437 124.396 90.3799 124.36 90.4282C124.324 90.4764 124.294 90.5126 124.27 90.5368C124.246 90.5609 124.215 90.573 124.179 90.573C124.143 90.573 124.101 90.579 124.052 90.5911C123.968 90.5911 123.89 90.5609 123.817 90.5006C123.745 90.4402 123.703 90.3497 123.69 90.2291C123.69 89.9998 123.974 89.6439 124.541 89.1612H121.446L118.351 89.1431C118.194 89.0345 118.116 88.9199 118.116 88.7992C118.116 88.7147 118.194 88.5941 118.351 88.4372H124.849C124.559 87.9787 124.414 87.6227 124.414 87.3693Z" fill="#6AB0F3"/>
<path d="M132.644 96.2382C132.644 96.2382 132.644 96.1598 132.644 96.0029C132.644 95.8461 132.729 95.7254 132.898 95.6409H138.309V92.926L138.328 90.2111C138.448 90.0542 138.563 89.9758 138.671 89.9758C138.828 89.9758 138.949 90.0663 139.033 90.2473V95.6409H144.427C144.608 95.7375 144.699 95.8581 144.699 96.0029C144.699 96.1477 144.608 96.2684 144.427 96.3649H139.033V101.759C138.937 101.927 138.828 102.012 138.708 102.012H138.671H138.635C138.49 102.012 138.382 101.927 138.309 101.759V96.3649H132.898C132.729 96.2804 132.644 96.1598 132.644 96.0029V96.2382Z" fill="#6AB0F3"/>
<path d="M161.028 92.4917C161.173 92.5279 161.764 92.546 162.802 92.546C163.707 92.546 164.177 92.5279 164.214 92.4917H164.304V93.6139H163.146L160.467 100.329C160.455 100.341 160.437 100.359 160.413 100.383C160.388 100.407 160.364 100.431 160.34 100.456C160.316 100.48 160.304 100.492 160.304 100.492C160.304 100.492 160.286 100.504 160.25 100.528C160.214 100.552 160.201 100.564 160.214 100.564C160.226 100.564 160.201 100.57 160.141 100.582C160.081 100.594 160.057 100.594 160.069 100.582C160.081 100.57 160.057 100.576 159.996 100.6C159.936 100.624 159.9 100.624 159.888 100.6C159.876 100.576 159.827 100.576 159.743 100.6H159.544C159.339 100.6 159.194 100.54 159.109 100.419C159.025 100.299 158.856 99.9125 158.603 99.2609C158.41 98.7783 158.247 98.3741 158.114 98.0483L157.245 95.8763L156.376 98.0483C156.256 98.362 156.099 98.7542 155.906 99.2247C155.652 99.8884 155.484 100.281 155.399 100.401C155.315 100.522 155.17 100.588 154.965 100.6H154.747C154.53 100.6 154.385 100.588 154.313 100.564C154.241 100.54 154.15 100.462 154.042 100.329L151.363 93.6139H150.186V92.4917H150.313C150.494 92.5279 151.146 92.546 152.268 92.546C153.511 92.546 154.241 92.5279 154.458 92.4917H154.621V93.6139H153.752L155.345 97.5596L156.648 94.3379L156.358 93.6139H155.218V92.4917H155.345C155.49 92.5279 156.075 92.546 157.1 92.546C158.319 92.546 159.019 92.5279 159.2 92.4917H159.345V93.6139H158.892C158.591 93.6139 158.44 93.626 158.44 93.6501C158.452 93.6984 158.741 94.4284 159.309 95.8401C159.876 97.2519 160.165 97.9578 160.177 97.9578L161.933 93.6139H160.901V92.4917H161.028Z" fill="#6AB0F3"/>
<path d="M159.553 87.3696C159.553 87.2731 159.583 87.1886 159.643 87.1162C159.704 87.0438 159.794 87.0076 159.915 87.0076C159.999 87.0076 160.072 87.0378 160.132 87.0981C160.192 87.1464 160.253 87.261 160.313 87.442C160.434 87.8884 160.681 88.2323 161.055 88.4737C161.188 88.5581 161.254 88.6667 161.254 88.7995C161.254 88.9081 161.236 88.9804 161.2 89.0166C161.164 89.0528 161.079 89.1071 160.947 89.1795C160.428 89.445 159.975 89.8251 159.589 90.3198C159.565 90.3439 159.535 90.3801 159.499 90.4284C159.462 90.4767 159.432 90.5129 159.408 90.537C159.384 90.5611 159.354 90.5732 159.318 90.5732C159.281 90.5732 159.239 90.5792 159.191 90.5913C159.106 90.5913 159.028 90.5611 158.956 90.5008C158.883 90.4405 158.841 90.35 158.829 90.2293C158.829 90.0001 159.112 89.6441 159.68 89.1614H156.585L153.49 89.1433C153.333 89.0347 153.254 88.9201 153.254 88.7995C153.254 88.715 153.333 88.5943 153.49 88.4375H159.987C159.698 87.9789 159.553 87.623 159.553 87.3696Z" fill="#6AB0F3"/>
</g>
<path d="M203.624 324.293L214.022 337.039L197.587 336.368L203.289 331.672L203.624 324.293Z" fill="#6AB0F3"/>
<path d="M54.0218 257.039L210.444 335.25" stroke="#6AB0F3" stroke-width="1.5"/>
<path d="M123.624 284.293L134.022 297.039L117.587 296.368L123.289 291.672L123.624 284.293Z" fill="#FFF888"/>
<path d="M54.0218 257.039L130.444 295.25" stroke="#FFF888" stroke-width="1.5"/>
<path d="M215.814 332.907C215.357 332.678 215.112 332.436 215.078 332.18C215.043 331.924 215.068 331.522 215.153 330.975C215.236 330.428 215.218 329.904 215.092 329.399C214.224 325.763 210.603 322.351 204.231 319.165L155.462 294.78C147.355 290.727 143.042 286.348 142.519 281.642C138.443 284.049 132.614 283.356 125.035 279.567L75.6607 254.88C73.8153 253.957 72.4033 253.288 71.4333 252.877C68.69 251.764 66.1242 251.193 63.7346 251.168C61.3437 251.14 59.6139 251.725 58.5448 252.921C58.53 252.95 58.4679 253.025 58.3613 253.145C58.2542 253.266 58.1668 253.348 58.1004 253.387C58.0331 253.428 57.9342 253.48 57.8063 253.544C57.6762 253.609 57.5009 253.613 57.2816 253.558C57.0637 253.505 56.8361 253.418 56.5996 253.3C55.6183 252.809 57.9533 249.877 61.1831 249.342C64.4142 248.808 68.3408 249.56 72.9637 251.598C73.7375 251.948 74.8629 252.493 76.342 253.233L125.263 277.693C127.827 278.975 130.168 279.902 132.286 280.474C134.405 281.045 136.081 281.253 137.313 281.095C138.545 280.939 139.473 280.753 140.099 280.542C140.725 280.33 141.219 280.048 141.582 279.696C141.626 279.607 141.712 279.489 141.834 279.339C141.956 279.188 142.089 279.085 142.235 279.028C142.381 278.973 142.516 278.911 142.644 278.847C142.77 278.781 142.942 278.766 143.162 278.802C143.38 278.838 143.603 278.912 143.828 279.025C144.129 279.175 144.365 279.32 144.53 279.458C144.694 279.596 144.798 279.748 144.833 279.914C144.869 280.078 144.873 280.232 144.848 280.376C144.823 280.519 144.797 280.714 144.768 280.958C144.742 281.203 144.721 281.431 144.709 281.646C144.692 282.999 145.386 284.575 146.795 286.375C148.206 288.175 150.301 289.88 153.076 291.489C153.8 291.925 154.916 292.52 156.424 293.274L204.346 317.235C205.859 317.991 207.055 318.621 207.934 319.125C208.813 319.628 209.979 320.457 211.433 321.612C212.886 322.767 214.096 323.996 215.061 325.298C218.448 329.257 216.557 333.278 215.809 332.904L215.814 332.907Z" fill="#F0F0F0"/>
<path d="M166.963 251.034H140.628V271.86H166.963V251.034Z" fill="black"/>
<g clip-path="url(#clip5_384_3056)">
<path d="M144.614 259.625C144.288 259.625 144.028 259.516 143.835 259.299C143.642 259.082 143.546 258.816 143.546 258.503C143.546 257.646 143.866 256.904 144.505 256.277C145.144 255.649 145.941 255.336 146.894 255.336C147.992 255.336 148.909 255.674 149.645 256.349C150.38 257.025 150.754 257.899 150.767 258.973C150.767 259.492 150.646 259.987 150.405 260.457C150.163 260.928 149.874 261.338 149.536 261.688C149.198 262.038 148.716 262.484 148.088 263.027C147.654 263.401 147.051 263.956 146.279 264.692L145.211 265.705L146.586 265.723C148.48 265.723 149.488 265.693 149.608 265.633C149.693 265.609 149.838 265.072 150.043 264.022V263.968H150.767V264.022C150.754 264.058 150.676 264.607 150.531 265.669C150.386 266.731 150.296 267.286 150.26 267.334V267.388H143.546V267.044V266.827C143.546 266.743 143.582 266.652 143.654 266.556C143.727 266.459 143.908 266.248 144.197 265.922C144.547 265.536 144.849 265.198 145.102 264.909C145.211 264.788 145.416 264.565 145.718 264.239C146.019 263.914 146.224 263.69 146.333 263.57C146.441 263.449 146.616 263.25 146.858 262.973C147.099 262.695 147.268 262.49 147.364 262.357C147.461 262.225 147.6 262.044 147.781 261.814C147.962 261.585 148.088 261.392 148.161 261.235C148.233 261.078 148.323 260.903 148.432 260.71C148.541 260.517 148.619 260.324 148.667 260.131C148.716 259.938 148.758 259.757 148.794 259.588C148.83 259.42 148.848 259.22 148.848 258.991C148.848 258.231 148.643 257.574 148.233 257.019C147.823 256.464 147.238 256.186 146.478 256.186C146.079 256.186 145.73 256.289 145.428 256.494C145.126 256.699 144.915 256.898 144.795 257.091C144.674 257.284 144.614 257.399 144.614 257.435C144.614 257.447 144.644 257.453 144.704 257.453C144.921 257.453 145.144 257.537 145.374 257.706C145.603 257.875 145.718 258.153 145.718 258.539C145.718 258.84 145.621 259.094 145.428 259.299C145.235 259.504 144.963 259.613 144.614 259.625Z" fill="#F0F0F0"/>
<path d="M158.946 259.353C159.091 259.389 159.658 259.407 160.647 259.407C161.528 259.407 162.005 259.389 162.077 259.353H162.186V260.475H160.919L159.091 264.565C158.355 266.23 157.933 267.135 157.824 267.279C157.728 267.4 157.613 267.46 157.48 267.46C157.456 267.46 157.414 267.46 157.354 267.46C157.293 267.46 157.233 267.454 157.173 267.442H156.901C156.72 267.442 156.576 267.352 156.467 267.171C156.358 266.99 156.099 266.447 155.689 265.542C155.508 265.144 155.363 264.818 155.255 264.565L153.427 260.475H152.16V259.353H152.305C152.486 259.389 153.155 259.407 154.313 259.407C155.604 259.407 156.358 259.389 156.576 259.353H156.738V260.475H155.87L156.829 262.611C157.444 263.998 157.77 264.692 157.806 264.692C157.806 264.68 158.114 263.986 158.729 262.611C159.344 261.235 159.664 260.529 159.688 260.493C159.688 260.481 159.543 260.475 159.254 260.475H158.82V259.353H158.946Z" fill="#FFF888"/>
<path d="M159.48 254.232C159.48 254.135 159.51 254.051 159.571 253.978C159.631 253.906 159.721 253.87 159.842 253.87C159.927 253.87 159.999 253.9 160.059 253.96C160.12 254.008 160.18 254.123 160.24 254.304C160.361 254.75 160.608 255.094 160.982 255.336C161.115 255.42 161.181 255.529 161.181 255.661C161.181 255.77 161.163 255.842 161.127 255.878C161.091 255.915 161.006 255.969 160.874 256.041C160.355 256.307 159.902 256.687 159.516 257.181C159.492 257.206 159.462 257.242 159.426 257.29C159.39 257.338 159.359 257.374 159.335 257.399C159.311 257.423 159.281 257.435 159.245 257.435C159.209 257.435 159.166 257.441 159.118 257.453C159.034 257.453 158.955 257.423 158.883 257.362C158.811 257.302 158.768 257.212 158.756 257.091C158.756 256.862 159.04 256.506 159.607 256.023H156.512L153.418 256.005C153.261 255.897 153.182 255.782 153.182 255.661C153.182 255.577 153.261 255.456 153.418 255.299H159.914C159.625 254.841 159.48 254.485 159.48 254.232Z" fill="#FFF888"/>
</g>
<path d="M95.4992 265.976L80.6251 265.103V285.928H97.5614L95.4992 265.976Z" fill="black"/>
<g clip-path="url(#clip6_384_3056)">
<path d="M90.3682 273.421C90.5129 273.457 91.0799 273.475 92.0691 273.475C92.9498 273.475 93.4263 273.457 93.4987 273.421H93.6073V274.543H92.3406L90.5129 278.633C89.777 280.297 89.3548 281.202 89.2462 281.347C89.1497 281.468 89.0351 281.528 88.9024 281.528C88.8783 281.528 88.8361 281.528 88.7758 281.528C88.7154 281.528 88.6551 281.522 88.5948 281.51H88.3234C88.1424 281.51 87.9976 281.419 87.8891 281.238C87.7805 281.057 87.5211 280.514 87.111 279.61C86.93 279.212 86.7852 278.886 86.6767 278.633L84.849 274.543H83.5823V273.421H83.7271C83.908 273.457 84.5776 273.475 85.7357 273.475C87.0265 273.475 87.7805 273.457 87.9976 273.421H88.1605V274.543H87.2919L88.251 276.678C88.8662 278.066 89.1919 278.759 89.2281 278.759C89.2281 278.747 89.5358 278.053 90.151 276.678C90.7663 275.303 91.086 274.597 91.1101 274.561C91.1101 274.549 90.9653 274.543 90.6758 274.543H90.2415V273.421H90.3682Z" fill="#FFF888"/>
<path d="M90.902 268.3C90.902 268.203 90.9321 268.119 90.9925 268.047C91.0528 267.974 91.1433 267.938 91.2639 267.938C91.3483 267.938 91.4207 267.968 91.481 268.029C91.5414 268.077 91.6017 268.191 91.662 268.372C91.7826 268.819 92.0299 269.163 92.4039 269.404C92.5366 269.488 92.603 269.597 92.603 269.73C92.603 269.838 92.5849 269.91 92.5487 269.947C92.5125 269.983 92.428 270.037 92.2953 270.11C91.7766 270.375 91.3242 270.755 90.9382 271.25C90.914 271.274 90.8839 271.31 90.8477 271.358C90.8115 271.406 90.7813 271.443 90.7572 271.467C90.7331 271.491 90.7029 271.503 90.6667 271.503C90.6305 271.503 90.5883 271.509 90.5401 271.521C90.4556 271.521 90.3772 271.491 90.3048 271.431C90.2324 271.37 90.1902 271.28 90.1782 271.159C90.1782 270.93 90.4617 270.574 91.0286 270.091H87.9343L84.84 270.073C84.6831 269.965 84.6047 269.85 84.6047 269.73C84.6047 269.645 84.6831 269.524 84.84 269.368H91.3363C91.0467 268.909 90.902 268.553 90.902 268.3Z" fill="#FFF888"/>
</g>
<rect x="431.657" y="84.1565" width="248.975" height="56.87" fill="black"/>
<g clip-path="url(#clip7_384_3056)">
<path d="M440.687 137.016V88.1671H446.164V89.4295H441.949V135.754H446.164V137.016H440.687Z" fill="#F0F0F0"/>
<path d="M461.069 94.6933C460.703 94.6933 460.411 94.5711 460.194 94.3268C459.977 94.0824 459.868 93.7838 459.868 93.4308C459.868 92.467 460.228 91.6322 460.947 90.9263C461.667 90.2204 462.563 89.8675 463.635 89.8675C464.87 89.8675 465.902 90.2475 466.73 91.0077C467.558 91.7679 467.979 92.7521 467.993 93.9603C467.993 94.544 467.857 95.1006 467.585 95.63C467.314 96.1594 466.988 96.6209 466.608 97.0146C466.228 97.4083 465.685 97.9105 464.979 98.5214C464.49 98.9422 463.812 99.5667 462.943 100.395L461.741 101.535L463.289 101.555C465.42 101.555 466.554 101.521 466.689 101.454C466.784 101.426 466.947 100.822 467.178 99.6413V99.5802H467.993V99.6413C467.979 99.6821 467.891 100.3 467.728 101.494C467.565 102.689 467.463 103.313 467.422 103.368V103.429H459.868V103.042V102.797C459.868 102.702 459.909 102.601 459.99 102.492C460.072 102.383 460.275 102.146 460.601 101.779C460.995 101.345 461.334 100.965 461.619 100.639C461.741 100.503 461.972 100.252 462.312 99.8857C462.651 99.5192 462.882 99.268 463.004 99.1323C463.126 98.9965 463.323 98.7725 463.594 98.4603C463.866 98.1481 464.056 97.9173 464.164 97.768C464.273 97.6187 464.429 97.4151 464.633 97.1571C464.836 96.8992 464.979 96.682 465.06 96.5055C465.142 96.3291 465.244 96.1322 465.366 95.915C465.488 95.6978 465.576 95.4806 465.631 95.2634C465.685 95.0463 465.732 94.8426 465.773 94.6526C465.814 94.4625 465.834 94.2385 465.834 93.9806C465.834 93.1254 465.603 92.3856 465.142 91.7611C464.68 91.1367 464.022 90.8245 463.167 90.8245C462.719 90.8245 462.325 90.9399 461.986 91.1706C461.646 91.4014 461.409 91.6254 461.273 91.8426C461.137 92.0598 461.069 92.1887 461.069 92.2295C461.069 92.243 461.103 92.2498 461.171 92.2498C461.416 92.2498 461.667 92.3449 461.925 92.5349C462.183 92.725 462.312 93.0372 462.312 93.4716C462.312 93.8109 462.203 94.096 461.986 94.3268C461.769 94.5576 461.463 94.6797 461.069 94.6933Z" fill="#F0F0F0"/>
<path d="M452.639 127.11C452.639 127.11 452.639 127.022 452.639 126.845C452.639 126.669 452.734 126.533 452.925 126.438H464.755C464.959 126.547 465.06 126.682 465.06 126.845C465.06 127.008 464.959 127.144 464.755 127.252H452.925C452.734 127.157 452.639 127.022 452.639 126.845V127.11Z" fill="#F0F0F0"/>
<path d="M471.108 120.166L470.843 120.268C470.653 120.336 470.382 120.404 470.029 120.472C469.676 120.54 469.282 120.587 468.848 120.614H468.461V119.678H468.848C469.486 119.651 470.076 119.549 470.619 119.372C471.162 119.196 471.542 119.033 471.76 118.884C471.977 118.734 472.167 118.585 472.33 118.436C472.357 118.395 472.438 118.375 472.574 118.375C472.696 118.375 472.812 118.415 472.92 118.497V124.585L472.941 130.694C473.036 130.789 473.117 130.85 473.185 130.877C473.253 130.904 473.416 130.931 473.674 130.958C473.932 130.986 474.352 130.999 474.936 130.999H475.466V131.936H475.242C474.956 131.895 473.877 131.875 472.004 131.875C470.158 131.875 469.092 131.895 468.807 131.936H468.563V130.999H469.092C469.391 130.999 469.649 130.999 469.866 130.999C470.083 130.999 470.253 130.992 470.375 130.979C470.497 130.965 470.606 130.945 470.701 130.918C470.796 130.891 470.85 130.877 470.864 130.877C470.877 130.877 470.918 130.843 470.986 130.775C471.054 130.707 471.094 130.68 471.108 130.694V120.166Z" fill="#F0F0F0"/>
<path d="M481.696 89.4295V88.1671H487.174V137.016H481.696V135.754H485.911V89.4295H481.696Z" fill="#F0F0F0"/>
<path d="M497.888 112.856C497.888 112.856 497.888 112.768 497.888 112.592C497.888 112.415 497.983 112.279 498.173 112.184H504.262V109.13L504.282 106.076C504.418 105.899 504.547 105.811 504.669 105.811C504.846 105.811 504.981 105.913 505.076 106.116V112.184H511.144C511.348 112.293 511.45 112.429 511.45 112.592C511.45 112.754 511.348 112.89 511.144 112.999H505.076V119.067C504.968 119.257 504.846 119.352 504.71 119.352H504.669H504.628C504.465 119.352 504.343 119.257 504.262 119.067V112.999H498.173C497.983 112.904 497.888 112.768 497.888 112.592V112.856Z" fill="#F0F0F0"/>
<path d="M522.144 137.016V88.1671H527.621V89.4295H523.406V135.754H527.621V137.016H522.144Z" fill="#F0F0F0"/>
<path d="M536.723 91.6593L536.459 91.7611C536.269 91.829 535.997 91.8969 535.644 91.9648C535.291 92.0326 534.897 92.0801 534.463 92.1073H534.076V91.1706H534.463C535.101 91.1435 535.692 91.0417 536.235 90.8652C536.778 90.6887 537.158 90.5258 537.375 90.3765C537.592 90.2272 537.782 90.0779 537.945 89.9285C537.972 89.8878 538.054 89.8675 538.189 89.8675C538.312 89.8675 538.427 89.9082 538.536 89.9896V96.0779L538.556 102.187C538.651 102.282 538.732 102.343 538.8 102.37C538.868 102.397 539.031 102.424 539.289 102.451C539.547 102.478 539.968 102.492 540.551 102.492H541.081V103.429H540.857C540.572 103.388 539.493 103.368 537.619 103.368C535.773 103.368 534.707 103.388 534.422 103.429H534.178V102.492H534.707C535.006 102.492 535.264 102.492 535.481 102.492C535.698 102.492 535.868 102.485 535.99 102.472C536.112 102.458 536.221 102.438 536.316 102.411C536.411 102.383 536.465 102.37 536.479 102.37C536.492 102.37 536.533 102.336 536.601 102.268C536.669 102.2 536.71 102.173 536.723 102.187V91.6593Z" fill="#F0F0F0"/>
<path d="M534.972 122.508C534.606 122.508 534.321 122.393 534.117 122.162C533.913 121.931 533.805 121.633 533.791 121.266C533.791 120.519 534.117 119.854 534.769 119.27C535.42 118.687 536.207 118.395 537.131 118.395C537.606 118.395 537.904 118.402 538.026 118.415C539.031 118.578 539.798 118.938 540.327 119.494C540.857 120.051 541.128 120.655 541.142 121.307C541.142 122.013 540.911 122.698 540.45 123.363C539.988 124.028 539.35 124.51 538.536 124.809L538.474 124.85C538.474 124.863 538.536 124.884 538.658 124.911C538.78 124.938 538.977 124.999 539.248 125.094C539.52 125.189 539.778 125.332 540.022 125.522C541.135 126.241 541.692 127.191 541.692 128.372C541.692 129.445 541.271 130.382 540.429 131.182C539.588 131.983 538.522 132.384 537.232 132.384C536.146 132.384 535.21 132.092 534.422 131.508C533.635 130.924 533.241 130.185 533.241 129.289C533.241 128.909 533.364 128.603 533.608 128.372C533.852 128.142 534.158 128.019 534.524 128.006C534.904 128.006 535.216 128.128 535.461 128.372C535.705 128.617 535.827 128.922 535.827 129.289C535.827 129.438 535.807 129.574 535.766 129.696C535.726 129.818 535.678 129.927 535.624 130.022C535.569 130.117 535.495 130.198 535.4 130.266C535.305 130.334 535.223 130.388 535.155 130.429C535.088 130.47 535.02 130.497 534.952 130.51C534.884 130.524 534.83 130.544 534.789 130.572L534.707 130.592C535.4 131.203 536.241 131.508 537.232 131.508C537.979 131.508 538.542 131.148 538.922 130.429C539.153 129.981 539.269 129.296 539.269 128.372V127.965C539.269 126.676 538.834 125.814 537.965 125.379C537.762 125.298 537.348 125.25 536.723 125.237L535.868 125.216L535.807 125.176C535.78 125.135 535.766 125.026 535.766 124.85C535.766 124.605 535.821 124.483 535.929 124.483C536.309 124.483 536.703 124.449 537.11 124.381C537.572 124.314 537.993 124.028 538.373 123.526C538.753 123.024 538.943 122.264 538.943 121.246V121.083C538.943 120.309 538.705 119.773 538.23 119.474C537.931 119.284 537.612 119.189 537.273 119.189C536.839 119.189 536.438 119.264 536.072 119.413C535.705 119.562 535.447 119.718 535.298 119.881C535.149 120.044 535.074 120.126 535.074 120.126H535.135C535.176 120.139 535.23 120.153 535.298 120.166C535.366 120.18 535.434 120.214 535.502 120.268C535.569 120.323 535.651 120.37 535.746 120.411C535.841 120.452 535.909 120.526 535.95 120.635C535.99 120.743 536.045 120.845 536.112 120.94C536.18 121.035 536.201 121.171 536.173 121.347C536.173 121.646 536.078 121.911 535.888 122.142C535.698 122.372 535.393 122.495 534.972 122.508Z" fill="#F0F0F0"/>
<path d="M547.312 89.4295V88.1671H552.789V137.016H547.312V135.754H551.527V89.4295H547.312Z" fill="#F0F0F0"/>
<path d="M564.636 110.616C564.636 110.44 564.731 110.304 564.921 110.209H577.892C578.095 110.318 578.197 110.453 578.197 110.616C578.197 110.766 578.102 110.895 577.912 111.003L571.437 111.024H564.962C564.744 110.956 564.636 110.82 564.636 110.616ZM564.636 114.567C564.636 114.363 564.744 114.227 564.962 114.159H577.912C578.102 114.295 578.197 114.431 578.197 114.567C578.197 114.743 578.095 114.879 577.892 114.974H564.921C564.731 114.879 564.636 114.743 564.636 114.567Z" fill="#F0F0F0"/>
<path d="M590.024 137.016V88.1671H595.501V89.4295H591.286V135.754H595.501V137.016H590.024Z" fill="#F0F0F0"/>
<path d="M610.406 94.6933C610.04 94.6933 609.748 94.5711 609.531 94.3268C609.313 94.0824 609.205 93.7838 609.205 93.4308C609.205 92.467 609.565 91.6322 610.284 90.9263C611.003 90.2204 611.899 89.8675 612.972 89.8675C614.207 89.8675 615.239 90.2475 616.067 91.0077C616.895 91.7679 617.316 92.7521 617.329 93.9603C617.329 94.544 617.194 95.1006 616.922 95.63C616.651 96.1594 616.325 96.6209 615.945 97.0146C615.565 97.4083 615.022 97.9105 614.316 98.5214C613.827 98.9422 613.148 99.5667 612.279 100.395L611.078 101.535L612.626 101.555C614.757 101.555 615.89 101.521 616.026 101.454C616.121 101.426 616.284 100.822 616.515 99.6413V99.5802H617.329V99.6413C617.316 99.6821 617.227 100.3 617.065 101.494C616.902 102.689 616.8 103.313 616.759 103.368V103.429H609.205V103.042V102.797C609.205 102.702 609.245 102.601 609.327 102.492C609.408 102.383 609.612 102.146 609.938 101.779C610.331 101.345 610.671 100.965 610.956 100.639C611.078 100.503 611.309 100.252 611.648 99.8857C611.988 99.5192 612.218 99.268 612.341 99.1323C612.463 98.9965 612.66 98.7725 612.931 98.4603C613.203 98.1481 613.393 97.9173 613.501 97.768C613.61 97.6187 613.766 97.4151 613.97 97.1571C614.173 96.8992 614.316 96.682 614.397 96.5055C614.479 96.3291 614.58 96.1322 614.703 95.915C614.825 95.6978 614.913 95.4806 614.967 95.2634C615.022 95.0463 615.069 94.8426 615.11 94.6526C615.151 94.4625 615.171 94.2385 615.171 93.9806C615.171 93.1254 614.94 92.3856 614.479 91.7611C614.017 91.1367 613.359 90.8245 612.503 90.8245C612.055 90.8245 611.662 90.9399 611.322 91.1706C610.983 91.4014 610.746 91.6254 610.61 91.8426C610.474 92.0598 610.406 92.1887 610.406 92.2295C610.406 92.243 610.44 92.2498 610.508 92.2498C610.752 92.2498 611.003 92.3449 611.261 92.5349C611.519 92.725 611.648 93.0372 611.648 93.4716C611.648 93.8109 611.54 94.096 611.322 94.3268C611.105 94.5576 610.8 94.6797 610.406 94.6933Z" fill="#F0F0F0"/>
<path d="M624.033 98.6028C624.033 98.6028 624.033 98.5146 624.033 98.3381C624.033 98.1616 624.128 98.0259 624.318 97.9309H630.406V94.8765L630.426 91.8222C630.562 91.6457 630.691 91.5575 630.813 91.5575C630.99 91.5575 631.125 91.6593 631.22 91.8629V97.9309H637.288C637.492 98.0395 637.594 98.1752 637.594 98.3381C637.594 98.501 637.492 98.6368 637.288 98.7454H631.22V104.813C631.112 105.003 630.99 105.098 630.854 105.098H630.813H630.772C630.61 105.098 630.487 105.003 630.406 104.813V98.7454H624.318C624.128 98.6503 624.033 98.5146 624.033 98.3381V98.6028Z" fill="#F0F0F0"/>
<path d="M647.596 91.6593L647.331 91.7611C647.141 91.829 646.87 91.8969 646.517 91.9648C646.164 92.0326 645.77 92.0801 645.336 92.1073H644.949V91.1706H645.336C645.974 91.1435 646.564 91.0417 647.107 90.8652C647.65 90.6887 648.03 90.5258 648.247 90.3765C648.465 90.2272 648.655 90.0779 648.817 89.9285C648.845 89.8878 648.926 89.8675 649.062 89.8675C649.184 89.8675 649.299 89.9082 649.408 89.9896V96.0779L649.428 102.187C649.523 102.282 649.605 102.343 649.673 102.37C649.741 102.397 649.903 102.424 650.161 102.451C650.419 102.478 650.84 102.492 651.424 102.492H651.953V103.429H651.729C651.444 103.388 650.365 103.368 648.492 103.368C646.646 103.368 645.58 103.388 645.295 103.429H645.05V102.492H645.58C645.879 102.492 646.136 102.492 646.354 102.492C646.571 102.492 646.741 102.485 646.863 102.472C646.985 102.458 647.093 102.438 647.189 102.411C647.284 102.383 647.338 102.37 647.351 102.37C647.365 102.37 647.406 102.336 647.474 102.268C647.541 102.2 647.582 102.173 647.596 102.187V91.6593Z" fill="#F0F0F0"/>
<path d="M601.976 127.11C601.976 127.11 601.976 127.022 601.976 126.845C601.976 126.669 602.071 126.533 602.261 126.438H614.092C614.295 126.547 614.397 126.682 614.397 126.845C614.397 127.008 614.295 127.144 614.092 127.252H602.261C602.071 127.157 601.976 127.022 601.976 126.845V127.11Z" fill="#F0F0F0"/>
<path d="M620.445 120.166L620.18 120.268C619.99 120.336 619.719 120.404 619.366 120.472C619.013 120.54 618.619 120.587 618.185 120.614H617.798V119.678H618.185C618.823 119.651 619.413 119.549 619.956 119.372C620.499 119.196 620.879 119.033 621.096 118.884C621.314 118.734 621.504 118.585 621.666 118.436C621.694 118.395 621.775 118.375 621.911 118.375C622.033 118.375 622.148 118.415 622.257 118.497V124.585L622.277 130.694C622.372 130.789 622.454 130.85 622.522 130.877C622.59 130.904 622.752 130.931 623.01 130.958C623.268 130.986 623.689 130.999 624.273 130.999H624.802V131.936H624.578C624.293 131.895 623.214 131.875 621.341 131.875C619.495 131.875 618.429 131.895 618.144 131.936H617.899V130.999H618.429C618.728 130.999 618.985 130.999 619.203 130.999C619.42 130.999 619.59 130.992 619.712 130.979C619.834 130.965 619.942 130.945 620.038 130.918C620.133 130.891 620.187 130.877 620.2 130.877C620.214 130.877 620.255 130.843 620.323 130.775C620.39 130.707 620.431 130.68 620.445 130.694V120.166Z" fill="#F0F0F0"/>
<path d="M631.953 127.11C631.953 127.11 631.953 127.022 631.953 126.845C631.953 126.669 632.049 126.533 632.239 126.438H638.327V123.384L638.347 120.329C638.483 120.153 638.612 120.065 638.734 120.065C638.911 120.065 639.046 120.166 639.141 120.37V126.438H645.209C645.413 126.547 645.515 126.682 645.515 126.845C645.515 127.008 645.413 127.144 645.209 127.252H639.141V133.32C639.033 133.51 638.911 133.605 638.775 133.605H638.734H638.693C638.53 133.605 638.408 133.51 638.327 133.32V127.252H632.239C632.049 127.157 631.953 127.022 631.953 126.845V127.11Z" fill="#F0F0F0"/>
<path d="M653.766 122.508C653.399 122.508 653.114 122.393 652.91 122.162C652.707 121.931 652.598 121.633 652.585 121.266C652.585 120.519 652.91 119.854 653.562 119.27C654.214 118.687 655.001 118.395 655.924 118.395C656.399 118.395 656.698 118.402 656.82 118.415C657.824 118.578 658.591 118.938 659.121 119.494C659.65 120.051 659.922 120.655 659.935 121.307C659.935 122.013 659.705 122.698 659.243 123.363C658.781 124.028 658.143 124.51 657.329 124.809L657.268 124.85C657.268 124.863 657.329 124.884 657.451 124.911C657.573 124.938 657.77 124.999 658.042 125.094C658.313 125.189 658.571 125.332 658.815 125.522C659.929 126.241 660.485 127.191 660.485 128.372C660.485 129.445 660.064 130.382 659.223 131.182C658.381 131.983 657.315 132.384 656.026 132.384C654.94 132.384 654.003 132.092 653.216 131.508C652.428 130.924 652.035 130.185 652.035 129.289C652.035 128.909 652.157 128.603 652.401 128.372C652.646 128.142 652.951 128.019 653.318 128.006C653.698 128.006 654.01 128.128 654.254 128.372C654.499 128.617 654.621 128.922 654.621 129.289C654.621 129.438 654.6 129.574 654.56 129.696C654.519 129.818 654.471 129.927 654.417 130.022C654.363 130.117 654.288 130.198 654.193 130.266C654.098 130.334 654.017 130.388 653.949 130.429C653.881 130.47 653.813 130.497 653.745 130.51C653.677 130.524 653.623 130.544 653.582 130.572L653.501 130.592C654.193 131.203 655.035 131.508 656.026 131.508C656.772 131.508 657.336 131.148 657.716 130.429C657.947 129.981 658.062 129.296 658.062 128.372V127.965C658.062 126.676 657.628 125.814 656.759 125.379C656.555 125.298 656.141 125.25 655.517 125.237L654.662 125.216L654.6 125.176C654.573 125.135 654.56 125.026 654.56 124.85C654.56 124.605 654.614 124.483 654.723 124.483C655.103 124.483 655.496 124.449 655.904 124.381C656.365 124.314 656.786 124.028 657.166 123.526C657.546 123.024 657.736 122.264 657.736 121.246V121.083C657.736 120.309 657.499 119.773 657.024 119.474C656.725 119.284 656.406 119.189 656.067 119.189C655.632 119.189 655.232 119.264 654.865 119.413C654.499 119.562 654.241 119.718 654.091 119.881C653.942 120.044 653.867 120.126 653.867 120.126H653.928C653.969 120.139 654.024 120.153 654.091 120.166C654.159 120.18 654.227 120.214 654.295 120.268C654.363 120.323 654.444 120.37 654.539 120.411C654.634 120.452 654.702 120.526 654.743 120.635C654.784 120.743 654.838 120.845 654.906 120.94C654.974 121.035 654.994 121.171 654.967 121.347C654.967 121.646 654.872 121.911 654.682 122.142C654.492 122.372 654.186 122.495 653.766 122.508Z" fill="#F0F0F0"/>
<path d="M666.105 89.4295V88.1671H671.582V137.016H666.105V135.754H670.32V89.4295H666.105Z" fill="#F0F0F0"/>
</g>
<rect x="462.203" y="261.49" width="187.883" height="56.87" fill="black"/>
<g clip-path="url(#clip8_384_3056)">
<path d="M468.423 286.28C468.056 286.28 467.764 286.158 467.547 285.914C467.33 285.669 467.221 285.371 467.221 285.018C467.221 284.054 467.581 283.219 468.301 282.513C469.02 281.807 469.916 281.454 470.988 281.454C472.224 281.454 473.255 281.834 474.083 282.594C474.911 283.355 475.332 284.339 475.346 285.547C475.346 286.131 475.21 286.687 474.939 287.217C474.667 287.746 474.341 288.208 473.961 288.601C473.581 288.995 473.038 289.497 472.332 290.108C471.844 290.529 471.165 291.153 470.296 291.981L469.095 293.122L470.642 293.142C472.773 293.142 473.907 293.108 474.043 293.04C474.138 293.013 474.301 292.409 474.531 291.228V291.167H475.346V291.228C475.332 291.269 475.244 291.886 475.081 293.081C474.918 294.276 474.816 294.9 474.776 294.954V295.015H467.221V294.629V294.384C467.221 294.289 467.262 294.187 467.344 294.079C467.425 293.97 467.629 293.733 467.954 293.366C468.348 292.932 468.687 292.552 468.973 292.226C469.095 292.09 469.325 291.839 469.665 291.472C470.004 291.106 470.235 290.855 470.357 290.719C470.479 290.583 470.676 290.359 470.948 290.047C471.219 289.735 471.409 289.504 471.518 289.355C471.626 289.205 471.783 289.002 471.986 288.744C472.19 288.486 472.332 288.269 472.414 288.092C472.495 287.916 472.597 287.719 472.719 287.502C472.841 287.285 472.93 287.067 472.984 286.85C473.038 286.633 473.086 286.429 473.126 286.239C473.167 286.049 473.188 285.825 473.188 285.567C473.188 284.712 472.957 283.972 472.495 283.348C472.034 282.723 471.375 282.411 470.52 282.411C470.072 282.411 469.678 282.527 469.339 282.757C469 282.988 468.762 283.212 468.626 283.429C468.491 283.647 468.423 283.775 468.423 283.816C468.423 283.83 468.457 283.837 468.525 283.837C468.769 283.837 469.02 283.932 469.278 284.122C469.536 284.312 469.665 284.624 469.665 285.058C469.665 285.398 469.556 285.683 469.339 285.914C469.122 286.144 468.816 286.266 468.423 286.28Z" fill="#F0F0F0"/>
<path d="M484.808 314.349V265.5H490.286V266.763H486.071V313.087H490.286V314.349H484.808Z" fill="#F0F0F0"/>
<path d="M505.191 272.026C504.824 272.026 504.532 271.904 504.315 271.66C504.098 271.416 503.989 271.117 503.989 270.764C503.989 269.8 504.349 268.965 505.068 268.259C505.788 267.553 506.684 267.201 507.756 267.201C508.992 267.201 510.023 267.581 510.851 268.341C511.679 269.101 512.1 270.085 512.114 271.293C512.114 271.877 511.978 272.434 511.707 272.963C511.435 273.492 511.109 273.954 510.729 274.348C510.349 274.741 509.806 275.244 509.1 275.854C508.611 276.275 507.933 276.9 507.064 277.728L505.863 278.868L507.41 278.888C509.541 278.888 510.675 278.854 510.811 278.787C510.906 278.759 511.069 278.155 511.299 276.974V276.913H512.114V276.974C512.1 277.015 512.012 277.633 511.849 278.827C511.686 280.022 511.584 280.646 511.544 280.701V280.762H503.989V280.375V280.13C503.989 280.035 504.03 279.934 504.111 279.825C504.193 279.716 504.397 279.479 504.722 279.112C505.116 278.678 505.455 278.298 505.74 277.972C505.863 277.836 506.093 277.585 506.433 277.219C506.772 276.852 507.003 276.601 507.125 276.465C507.247 276.33 507.444 276.106 507.716 275.793C507.987 275.481 508.177 275.25 508.286 275.101C508.394 274.952 508.55 274.748 508.754 274.49C508.958 274.232 509.1 274.015 509.182 273.839C509.263 273.662 509.365 273.465 509.487 273.248C509.609 273.031 509.697 272.814 509.752 272.597C509.806 272.379 509.854 272.176 509.894 271.986C509.935 271.796 509.955 271.572 509.955 271.314C509.955 270.458 509.725 269.719 509.263 269.094C508.802 268.47 508.143 268.158 507.288 268.158C506.84 268.158 506.446 268.273 506.107 268.504C505.768 268.734 505.53 268.958 505.394 269.176C505.259 269.393 505.191 269.522 505.191 269.563C505.191 269.576 505.225 269.583 505.292 269.583C505.537 269.583 505.788 269.678 506.046 269.868C506.304 270.058 506.433 270.37 506.433 270.805C506.433 271.144 506.324 271.429 506.107 271.66C505.89 271.891 505.584 272.013 505.191 272.026Z" fill="#F0F0F0"/>
<path d="M496.761 304.443C496.761 304.443 496.761 304.355 496.761 304.178C496.761 304.002 496.856 303.866 497.046 303.771H508.876C509.08 303.88 509.182 304.015 509.182 304.178C509.182 304.341 509.08 304.477 508.876 304.585H497.046C496.856 304.49 496.761 304.355 496.761 304.178V304.443Z" fill="#F0F0F0"/>
<path d="M515.229 297.499L514.964 297.601C514.774 297.669 514.503 297.737 514.15 297.805C513.797 297.873 513.403 297.92 512.969 297.947H512.582V297.011H512.969C513.607 296.984 514.197 296.882 514.74 296.705C515.283 296.529 515.664 296.366 515.881 296.217C516.098 296.067 516.288 295.918 516.451 295.769C516.478 295.728 516.559 295.708 516.695 295.708C516.817 295.708 516.933 295.748 517.041 295.83V301.918L517.062 308.027C517.157 308.122 517.238 308.183 517.306 308.21C517.374 308.237 517.537 308.264 517.795 308.291C518.053 308.319 518.474 308.332 519.057 308.332H519.587V309.269H519.363C519.078 309.228 517.998 309.208 516.125 309.208C514.279 309.208 513.213 309.228 512.928 309.269H512.684V308.332H513.213C513.512 308.332 513.77 308.332 513.987 308.332C514.204 308.332 514.374 308.325 514.496 308.312C514.618 308.298 514.727 308.278 514.822 308.251C514.917 308.224 514.971 308.21 514.985 308.21C514.998 308.21 515.039 308.176 515.107 308.108C515.175 308.04 515.216 308.013 515.229 308.027V297.499Z" fill="#F0F0F0"/>
<path d="M525.817 266.763V265.5H531.295V314.349H525.817V313.087H530.032V266.763H525.817Z" fill="#F0F0F0"/>
<path d="M543.14 287.95C543.14 287.773 543.235 287.637 543.425 287.542H556.395C556.599 287.651 556.701 287.787 556.701 287.95C556.701 288.099 556.606 288.228 556.416 288.337L549.94 288.357H543.465C543.248 288.289 543.14 288.153 543.14 287.95ZM543.14 291.9C543.14 291.696 543.248 291.561 543.465 291.493H556.416C556.606 291.628 556.701 291.764 556.701 291.9C556.701 292.076 556.599 292.212 556.395 292.307H543.425C543.235 292.212 543.14 292.076 543.14 291.9Z" fill="#F0F0F0"/>
<path d="M568.527 314.349V265.5H574.004V266.763H569.789V313.087H574.004V314.349H568.527Z" fill="#F0F0F0"/>
<path d="M588.909 272.026C588.543 272.026 588.251 271.904 588.034 271.66C587.817 271.416 587.708 271.117 587.708 270.764C587.708 269.8 588.068 268.965 588.787 268.259C589.507 267.553 590.403 267.201 591.475 267.201C592.71 267.201 593.742 267.581 594.57 268.341C595.398 269.101 595.819 270.085 595.833 271.293C595.833 271.877 595.697 272.434 595.425 272.963C595.154 273.492 594.828 273.954 594.448 274.348C594.068 274.741 593.525 275.244 592.819 275.854C592.33 276.275 591.652 276.9 590.783 277.728L589.581 278.868L591.129 278.888C593.26 278.888 594.394 278.854 594.529 278.787C594.624 278.759 594.787 278.155 595.018 276.974V276.913H595.833V276.974C595.819 277.015 595.731 277.633 595.568 278.827C595.405 280.022 595.303 280.646 595.262 280.701V280.762H587.708V280.375V280.13C587.708 280.035 587.749 279.934 587.83 279.825C587.912 279.716 588.115 279.479 588.441 279.112C588.835 278.678 589.174 278.298 589.459 277.972C589.581 277.836 589.812 277.585 590.152 277.219C590.491 276.852 590.722 276.601 590.844 276.465C590.966 276.33 591.163 276.106 591.434 275.793C591.706 275.481 591.896 275.25 592.004 275.101C592.113 274.952 592.269 274.748 592.473 274.49C592.676 274.232 592.819 274.015 592.9 273.839C592.982 273.662 593.084 273.465 593.206 273.248C593.328 273.031 593.416 272.814 593.471 272.597C593.525 272.379 593.572 272.176 593.613 271.986C593.654 271.796 593.674 271.572 593.674 271.314C593.674 270.458 593.443 269.719 592.982 269.094C592.52 268.47 591.862 268.158 591.007 268.158C590.559 268.158 590.165 268.273 589.826 268.504C589.486 268.734 589.249 268.958 589.113 269.176C588.977 269.393 588.909 269.522 588.909 269.563C588.909 269.576 588.943 269.583 589.011 269.583C589.256 269.583 589.507 269.678 589.765 269.868C590.023 270.058 590.152 270.37 590.152 270.805C590.152 271.144 590.043 271.429 589.826 271.66C589.609 271.891 589.303 272.013 588.909 272.026Z" fill="#F0F0F0"/>
<path d="M598.785 275.671C598.785 274.735 598.853 273.845 598.989 273.004C599.124 272.162 599.281 271.436 599.457 270.825C599.633 270.214 599.885 269.617 600.21 269.033C600.536 268.449 600.794 267.995 600.984 267.669C601.174 267.343 601.459 266.99 601.839 266.61C602.219 266.23 602.443 265.999 602.511 265.918C602.579 265.836 602.749 265.694 603.02 265.49H603.285H603.367C603.557 265.49 603.652 265.551 603.652 265.673C603.652 265.714 603.536 265.857 603.305 266.101C603.075 266.345 602.796 266.705 602.471 267.18C602.145 267.655 601.812 268.239 601.473 268.931C601.133 269.624 600.848 270.56 600.618 271.741C600.387 272.922 600.271 274.232 600.271 275.671C600.271 277.11 600.387 278.413 600.618 279.581C600.848 280.748 601.127 281.692 601.452 282.411C601.778 283.131 602.111 283.714 602.45 284.162C602.79 284.61 603.075 284.97 603.305 285.241C603.536 285.513 603.652 285.655 603.652 285.669C603.652 285.791 603.55 285.852 603.346 285.852H603.285H603.02L602.45 285.364C601.174 284.21 600.244 282.771 599.661 281.047C599.077 279.323 598.785 277.531 598.785 275.671Z" fill="#F0F0F0"/>
<path d="M607.011 272.026C606.645 272.026 606.353 271.904 606.136 271.66C605.919 271.416 605.81 271.117 605.81 270.764C605.81 269.8 606.17 268.965 606.889 268.259C607.609 267.553 608.505 267.201 609.577 267.201C610.812 267.201 611.844 267.581 612.672 268.341C613.5 269.101 613.921 270.085 613.934 271.293C613.934 271.877 613.799 272.434 613.527 272.963C613.256 273.492 612.93 273.954 612.55 274.348C612.17 274.741 611.627 275.244 610.921 275.854C610.432 276.275 609.753 276.9 608.885 277.728L607.683 278.868L609.231 278.888C611.362 278.888 612.496 278.854 612.631 278.787C612.726 278.759 612.889 278.155 613.12 276.974V276.913H613.934V276.974C613.921 277.015 613.833 277.633 613.67 278.827C613.507 280.022 613.405 280.646 613.364 280.701V280.762H605.81V280.375V280.13C605.81 280.035 605.851 279.934 605.932 279.825C606.014 279.716 606.217 279.479 606.543 279.112C606.937 278.678 607.276 278.298 607.561 277.972C607.683 277.836 607.914 277.585 608.253 277.219C608.593 276.852 608.824 276.601 608.946 276.465C609.068 276.33 609.265 276.106 609.536 275.793C609.808 275.481 609.998 275.25 610.106 275.101C610.215 274.952 610.371 274.748 610.575 274.49C610.778 274.232 610.921 274.015 611.002 273.839C611.084 273.662 611.186 273.465 611.308 273.248C611.43 273.031 611.518 272.814 611.572 272.597C611.627 272.379 611.674 272.176 611.715 271.986C611.756 271.796 611.776 271.572 611.776 271.314C611.776 270.458 611.545 269.719 611.084 269.094C610.622 268.47 609.964 268.158 609.109 268.158C608.661 268.158 608.267 268.273 607.928 268.504C607.588 268.734 607.351 268.958 607.215 269.176C607.079 269.393 607.011 269.522 607.011 269.563C607.011 269.576 607.045 269.583 607.113 269.583C607.358 269.583 607.609 269.678 607.867 269.868C608.124 270.058 608.253 270.37 608.253 270.805C608.253 271.144 608.145 271.429 607.928 271.66C607.71 271.891 607.405 272.013 607.011 272.026Z" fill="#F0F0F0"/>
<path d="M616.195 265.511L616.276 265.49C616.344 265.49 616.412 265.49 616.48 265.49H616.724L617.294 265.979C618.57 267.133 619.5 268.572 620.084 270.296C620.668 272.02 620.959 273.811 620.959 275.671C620.959 276.594 620.892 277.483 620.756 278.339C620.62 279.194 620.464 279.92 620.287 280.517C620.111 281.115 619.86 281.712 619.534 282.309C619.208 282.907 618.95 283.361 618.76 283.674C618.57 283.986 618.292 284.332 617.925 284.712C617.559 285.092 617.342 285.316 617.274 285.384C617.206 285.452 617.05 285.581 616.806 285.771C616.765 285.812 616.738 285.839 616.724 285.852H616.48C616.371 285.852 616.296 285.852 616.256 285.852C616.215 285.852 616.181 285.832 616.154 285.791C616.127 285.75 616.106 285.689 616.093 285.608C616.106 285.594 616.181 285.506 616.317 285.343C618.421 283.158 619.473 279.934 619.473 275.671C619.473 271.409 618.421 268.185 616.317 265.999C616.181 265.836 616.106 265.748 616.093 265.735C616.093 265.626 616.127 265.551 616.195 265.511Z" fill="#F0F0F0"/>
<path d="M580.989 300.533C580.622 300.533 580.33 300.411 580.113 300.167C579.896 299.923 579.787 299.624 579.787 299.271C579.787 298.307 580.147 297.472 580.866 296.766C581.586 296.061 582.482 295.708 583.554 295.708C584.79 295.708 585.821 296.088 586.649 296.848C587.477 297.608 587.898 298.592 587.912 299.8C587.912 300.384 587.776 300.941 587.504 301.47C587.233 302 586.907 302.461 586.527 302.855C586.147 303.248 585.604 303.751 584.898 304.362C584.409 304.782 583.731 305.407 582.862 306.235L581.661 307.375L583.208 307.395C585.339 307.395 586.473 307.362 586.609 307.294C586.704 307.267 586.866 306.662 587.097 305.481V305.42H587.912V305.481C587.898 305.522 587.81 306.14 587.647 307.334C587.484 308.529 587.382 309.153 587.342 309.208V309.269H579.787V308.882V308.638C579.787 308.543 579.828 308.441 579.909 308.332C579.991 308.224 580.194 307.986 580.52 307.619C580.914 307.185 581.253 306.805 581.538 306.479C581.661 306.343 581.891 306.092 582.231 305.726C582.57 305.359 582.801 305.108 582.923 304.972C583.045 304.837 583.242 304.613 583.513 304.3C583.785 303.988 583.975 303.757 584.084 303.608C584.192 303.459 584.348 303.255 584.552 302.997C584.756 302.739 584.898 302.522 584.98 302.346C585.061 302.169 585.163 301.972 585.285 301.755C585.407 301.538 585.495 301.321 585.55 301.104C585.604 300.886 585.652 300.683 585.692 300.493C585.733 300.303 585.753 300.079 585.753 299.821C585.753 298.966 585.523 298.226 585.061 297.601C584.599 296.977 583.941 296.665 583.086 296.665C582.638 296.665 582.244 296.78 581.905 297.011C581.566 297.242 581.328 297.466 581.192 297.683C581.056 297.9 580.989 298.029 580.989 298.07C580.989 298.083 581.023 298.09 581.09 298.09C581.335 298.09 581.586 298.185 581.844 298.375C582.102 298.565 582.231 298.877 582.231 299.312C582.231 299.651 582.122 299.936 581.905 300.167C581.688 300.398 581.382 300.52 580.989 300.533Z" fill="#F0F0F0"/>
<path d="M590.864 304.178C590.864 303.242 590.932 302.353 591.068 301.511C591.204 300.669 591.36 299.943 591.536 299.332C591.713 298.721 591.964 298.124 592.29 297.54C592.615 296.957 592.873 296.502 593.063 296.176C593.253 295.85 593.538 295.497 593.919 295.117C594.299 294.737 594.523 294.506 594.591 294.425C594.658 294.343 594.828 294.201 595.1 293.997H595.364H595.446C595.636 293.997 595.731 294.058 595.731 294.181C595.731 294.221 595.615 294.364 595.385 294.608C595.154 294.852 594.876 295.212 594.55 295.687C594.224 296.162 593.891 296.746 593.552 297.438C593.213 298.131 592.928 299.067 592.697 300.248C592.466 301.429 592.351 302.739 592.351 304.178C592.351 305.617 592.466 306.92 592.697 308.088C592.928 309.255 593.206 310.199 593.532 310.918C593.857 311.638 594.19 312.221 594.529 312.669C594.869 313.117 595.154 313.477 595.385 313.749C595.615 314.02 595.731 314.163 595.731 314.176C595.731 314.298 595.629 314.359 595.425 314.359H595.364H595.1L594.529 313.871C593.253 312.717 592.324 311.278 591.74 309.554C591.156 307.83 590.864 306.038 590.864 304.178Z" fill="#F0F0F0"/>
<path d="M598.581 304.443C598.581 304.443 598.581 304.355 598.581 304.178C598.581 304.002 598.677 303.866 598.867 303.771H610.697C610.901 303.88 611.002 304.015 611.002 304.178C611.002 304.341 610.901 304.477 610.697 304.585H598.867C598.677 304.49 598.581 304.355 598.581 304.178V304.443Z" fill="#F0F0F0"/>
<path d="M617.05 297.499L616.785 297.601C616.595 297.669 616.324 297.737 615.971 297.805C615.618 297.873 615.224 297.92 614.79 297.947H614.403V297.011H614.79C615.428 296.984 616.018 296.882 616.561 296.705C617.104 296.529 617.484 296.366 617.701 296.217C617.919 296.067 618.109 295.918 618.272 295.769C618.299 295.728 618.38 295.708 618.516 295.708C618.638 295.708 618.754 295.748 618.862 295.83V301.918L618.882 308.027C618.978 308.122 619.059 308.183 619.127 308.21C619.195 308.237 619.358 308.264 619.616 308.291C619.873 308.319 620.294 308.332 620.878 308.332H621.407V309.269H621.183C620.898 309.228 619.819 309.208 617.946 309.208C616.1 309.208 615.034 309.228 614.749 309.269H614.505V308.332H615.034C615.333 308.332 615.591 308.332 615.808 308.332C616.025 308.332 616.195 308.325 616.317 308.312C616.439 308.298 616.548 308.278 616.643 308.251C616.738 308.224 616.792 308.21 616.806 308.21C616.819 308.21 616.86 308.176 616.928 308.108C616.996 308.04 617.036 308.013 617.05 308.027V297.499Z" fill="#F0F0F0"/>
<path d="M624.116 294.018L624.197 293.997C624.265 293.997 624.333 293.997 624.401 293.997H624.645L625.215 294.486C626.491 295.64 627.421 297.079 628.005 298.803C628.588 300.527 628.88 302.319 628.88 304.178C628.88 305.101 628.812 305.991 628.677 306.846C628.541 307.701 628.385 308.427 628.208 309.025C628.032 309.622 627.781 310.219 627.455 310.816C627.129 311.414 626.871 311.868 626.681 312.181C626.491 312.493 626.213 312.839 625.846 313.219C625.48 313.599 625.263 313.823 625.195 313.891C625.127 313.959 624.971 314.088 624.726 314.278C624.686 314.319 624.659 314.346 624.645 314.359H624.401C624.292 314.359 624.217 314.359 624.177 314.359C624.136 314.359 624.102 314.339 624.075 314.298C624.048 314.258 624.027 314.196 624.014 314.115C624.027 314.101 624.102 314.013 624.238 313.85C626.342 311.665 627.394 308.441 627.394 304.178C627.394 299.916 626.342 296.692 624.238 294.506C624.102 294.343 624.027 294.255 624.014 294.242C624.014 294.133 624.048 294.058 624.116 294.018Z" fill="#F0F0F0"/>
<path d="M635.559 266.763V265.5H641.036V314.349H635.559V313.087H639.774V266.763H635.559Z" fill="#F0F0F0"/>
</g>
<defs>
<clipPath id="clip0_384_3056">
<rect width="54.171" height="18.918" fill="white" transform="translate(308.405 103.133)"/>
</clipPath>
<clipPath id="clip1_384_3056">
<rect width="22.545" height="17.244" fill="white" transform="translate(322.218 281.303)"/>
</clipPath>
<clipPath id="clip2_384_3056">
<rect width="10.984" height="15.328" fill="white" transform="translate(116.906 145.969)"/>
</clipPath>
<clipPath id="clip3_384_3056">
<rect width="15.04" height="15.328" fill="white" transform="translate(174.675 105.958)"/>
</clipPath>
<clipPath id="clip4_384_3056">
<rect width="48.152" height="16.816" fill="white" transform="translate(116.623 85.1968)"/>
</clipPath>
<clipPath id="clip5_384_3056">
<rect width="20.04" height="15.328" fill="white" transform="translate(142.638 252.06)"/>
</clipPath>
<clipPath id="clip6_384_3056">
<rect width="10.984" height="15.328" fill="white" transform="translate(83.1118 266.128)"/>
</clipPath>
<clipPath id="clip7_384_3056">
<rect width="240.975" height="48.87" fill="white" transform="translate(435.657 88.1565)"/>
</clipPath>
<clipPath id="clip8_384_3056">
<rect width="179.883" height="48.87" fill="white" transform="translate(466.203 265.49)"/>
</clipPath>
</defs>
</svg>
