<?xml version="1.0" encoding="utf-8"?>
<!-- Generator: Adobe Illustrator 25.2.3, SVG Export Plug-In . SVG Version: 6.00 Build 0)  -->
<svg version="1.1" id="Layer_1" xmlns="http://www.w3.org/2000/svg" xmlns:xlink="http://www.w3.org/1999/xlink" x="0px" y="0px"
	 viewBox="0 0 1920 921" style="enable-background:new 0 0 1920 921;" xml:space="preserve">
<style type="text/css">
	.st0{fill:#FFFFFF;stroke:#000000;stroke-width:3;}
	.st1{fill:#D755D4;}
	.st2{fill:#734099;}
	.st3{fill:#999989;}
	.st4{fill:#FFFFFF;}
	.st5{fill:#FFF800;stroke:#000000;stroke-miterlimit:10;}
</style>
<g>
	<rect x="0.5" y="0.5" width="1919" height="920"/>
	<path d="M1919,1v919H1V1H1919 M1920,0H0v921h1920V0L1920,0z"/>
</g>
<path class="st0" d="M303.23,454.09l0.94-0.01l0.56-0.76c3.14-4.24,5.05-9.69,5.05-15.41c0-14.31-11.58-26.04-26.05-25.91
	c-14.32,0-25.9,11.6-25.9,25.91c0,5.83,1.89,11.58,5.5,15.88l0.58,0.69l0.9-0.01L303.23,454.09z"/>
<path class="st0" d="M372.75,454.09l0.94-0.01l0.56-0.76c3.14-4.24,5.05-9.69,5.05-15.41c0-14.31-11.58-26.04-26.05-25.91
	c-14.32,0-25.9,11.6-25.9,25.91c0,5.83,1.89,11.58,5.5,15.88l0.58,0.69l0.9-0.01L372.75,454.09z"/>
<path d="M290.69,419.08c-1.64,0.13-2.91,1.39-2.91,3.03c0,1.64,1.39,3.03,3.03,3.03c1.64,0,3.03-1.39,3.03-3.03
	c0-1.64-1.39-3.03-3.03-3.03H290.69l3.67-1.26c5.44,0,9.73,4.42,9.73,9.73c0,5.31-4.42,9.73-9.73,9.73c-5.31,0-9.73-4.42-9.73-9.73
	c0-5.31,4.42-9.73,9.73-9.73"/>
<path d="M360.21,419.08c-1.64,0.13-2.91,1.39-2.91,3.03c0,1.64,1.39,3.03,3.03,3.03c1.64,0,3.03-1.39,3.03-3.03
	c0-1.64-1.39-3.03-3.03-3.03H360.21l3.67-1.26c5.44,0,9.73,4.42,9.73,9.73c0,5.31-4.42,9.73-9.73,9.73c-5.31,0-9.73-4.42-9.73-9.73
	c0-5.31,4.42-9.73,9.73-9.73"/>
<path class="st1" d="M278.56,490.24h81.4c-19.47,80.64-31.73,133.23-31.73,190.87c0,10.11,0,87.85,29.58,87.85
	c15.17,0,28.06-13.65,28.06-25.91c0-3.54,0-5.06-5.06-15.8c-19.47-49.68-19.47-111.61-19.47-116.67c0-4.3,0-55.49,15.17-120.21
	l87.47-1.26c17.44-0.51,33.62-26.42,33.62-49.55c0-15.8-21.36,12.77-55.62,12.77l-215.26-0.88c-16.56,0-41.08,0-74.2,35.27
	c-18.71,20.86-17.7,59.03-17.7,63.33c0,4.3,3.54,5.81,7.96,5.81c5.06,0,8.47-0.88,9.35-6.45c10.11-59.79,50.81-59.03,68.89-59.03
	h41.08c-15.8,53.97-33.88,116.67-92.91,242.69c-5.81,11.5-5.81,13.02-5.81,17.32c0,15.17,13.02,18.71,19.47,18.71
	c20.86,0,26.67-18.71,35.27-48.92c11.5-36.78,11.5-38.17,18.71-66.99L278.56,490.24z"/>
<path d="M296.13,479.12c-0.63,4.04-2.65,9.48,11.88,7.84c17.06-1.9,21.36-4.93,27.68-8.34l-0.38-3.92
	c-4.68,0.13-14.54,0.88-21.11-0.51c-5.31-1.14-16.18-1.26-16.81,1.14"/>
<path class="st0" d="M1583.68,455.2l-1-0.01l-0.6-0.78c-3.34-4.35-5.36-9.95-5.36-15.82c0-14.68,12.3-26.73,27.66-26.6
	c15.2,0,27.51,11.9,27.51,26.6c0,5.98-2.01,11.89-5.84,16.3l-0.61,0.7l-0.95-0.01L1583.68,455.2z"/>
<path class="st0" d="M1509.85,455.2l-1-0.01l-0.6-0.78c-3.34-4.35-5.36-9.95-5.36-15.82c0-14.68,12.3-26.73,27.66-26.6
	c15.2,0,27.51,11.9,27.51,26.6c0,5.98-2.01,11.89-5.84,16.3l-0.61,0.7l-0.95-0.01L1509.85,455.2z"/>
<path d="M1596.98,419.27c1.75,0.13,3.09,1.43,3.09,3.11c0,1.69-1.48,3.11-3.22,3.11c-1.75,0-3.22-1.43-3.22-3.11
	c0-1.69,1.48-3.11,3.22-3.11H1596.98l-3.89-1.3c-5.77,0-10.34,4.54-10.34,9.99c0,5.45,4.7,9.99,10.34,9.99
	c5.64,0,10.34-4.54,10.34-9.99c0-5.45-4.7-9.99-10.34-9.99"/>
<path d="M1523.16,419.27c1.75,0.13,3.09,1.43,3.09,3.11c0,1.69-1.48,3.11-3.22,3.11c-1.75,0-3.22-1.43-3.22-3.11
	c0-1.69,1.48-3.11,3.22-3.11H1523.16l-3.89-1.3c-5.77,0-10.34,4.54-10.34,9.99c0,5.45,4.7,9.99,10.34,9.99
	c5.64,0,10.34-4.54,10.34-9.99c0-5.45-4.7-9.99-10.34-9.99"/>
<path class="st2" d="M1609.87,492.31h-86.45c20.67,82.77,33.69,136.74,33.69,195.9c0,10.38,0,90.17-31.41,90.17
	c-16.11,0-29.8-14.01-29.8-26.6c0-3.63,0-5.19,5.37-16.22c20.67-50.99,20.67-114.56,20.67-119.75c0-4.41,0-56.95-16.11-123.38
	h-85.64c-9.93,0-35.17,0-35.17-23.61c0-16.22,14.5-16.22,28.32-16.22h251.56c17.58,0,43.63,0,78.8,36.2
	c19.87,21.41,44.3,60.59,44.3,65c0,4.41-3.76,5.97-8.46,5.97c-5.37,0-6.17-2.21-9.93-6.62c-39.73-60.59-79.47-60.59-98.66-60.59
	h-43.63c16.78,55.4,35.97,119.75,98.66,249.1c6.17,11.81,6.17,13.36,6.17,17.77c0,15.57-13.83,19.2-20.67,19.2
	c-22.15,0-28.32-19.2-37.45-50.21c-12.22-37.75-12.22-39.18-19.87-68.76L1609.87,492.31z"/>
<path d="M1585.84,483.23c-7.38,0-2.55,0.13-18.12,0c-13.83-0.13-16.65-0.13-21.07-0.26l0.4-4.02c4.97,0.13,12.48,0.26,19.73,0.26
	c5.24,0,11.41,0,19.6,0"/>
<path class="st0" d="M945.66,451.33l0.97-0.01l0.58-0.78c3.23-4.35,5.18-9.94,5.18-15.82c0-3.67-0.77-6.65-2.32-8.99
	c-1.56-2.35-3.78-3.89-6.35-4.9c-4.94-1.94-11.6-2.06-18.36-2.19l-0.17,0l0,0h-0.02c-6.22-0.06-12.66,0.04-17.54,2.06
	c-2.51,1.04-4.69,2.62-6.23,4.99c-1.53,2.36-2.31,5.35-2.31,9.03c0,5.98,1.94,11.88,5.64,16.3l0.59,0.7l0.92-0.01L945.66,451.33z"/>
<path class="st0" d="M1017,451.33l0.97-0.01l0.58-0.78c3.23-4.35,5.18-9.94,5.18-15.82c0-3.72-0.89-6.76-2.6-9.16
	c-1.7-2.4-4.09-4.01-6.8-5.09c-5.32-2.14-12.3-2.41-18.99-2.47h-0.01h-0.01c-6.23,0-12.41,0.26-17.04,2.48
	c-2.38,1.14-4.39,2.81-5.79,5.23c-1.38,2.4-2.08,5.38-2.08,9.03c0,5.98,1.94,11.88,5.64,16.3l0.59,0.7l0.92-0.01L1017,451.33z"/>
<path d="M936.3,433.05c-1.95,0.13-3.37,1.95-2.85,4.02c0.26,1.04,1.17,1.95,2.2,2.2c2.33,0.65,4.41-1.43,3.89-3.89
	c-0.26-1.17-1.17-2.08-2.33-2.33C936.95,433.05,936.69,433.05,936.3,433.05l3.76-1.3c6.23,0,11.02,5.58,9.86,12.06
	c-0.78,3.89-3.89,7-7.78,7.78c-6.36,1.3-12.06-3.63-12.06-9.86c0-5.58,4.54-9.99,9.99-9.99"/>
<path d="M1008.03,432.27c-1.69,0.13-2.98,1.43-2.98,3.11c0,1.69,1.43,3.11,3.11,3.11c1.69,0,3.11-1.43,3.11-3.11
	c0-1.69-1.43-3.11-3.11-3.11H1008.03l3.76-1.3c5.58,0,9.99,4.54,9.99,9.99s-4.54,9.99-9.99,9.99s-9.99-4.54-9.99-9.99
	s4.54-9.99,9.99-9.99"/>
<path class="st3" d="M920.35,488.43h83.53c-19.97,82.75-32.56,136.71-32.56,195.85c0,10.38,0,90.14,30.35,90.14
	c15.56,0,28.79-14.01,28.79-26.59c0-3.63,0-5.19-5.19-16.21c-19.97-50.97-19.97-114.53-19.97-119.72c0-4.41,0-56.94,15.56-123.35
	h43.84c9.6,0,30.48,16.99,30.48-6.61c0-16.21-10.64-33.33-23.87-33.33H867.17c-16.99,0-36.71,16.73-38.78,45.91
	c-1.43,19.84,8.17,39.17,38.39,39.69c29.31,0.52,48.12-8.3,75.1-18.94c4.8-1.95,14.14-18.55,9.47-15.18
	c-19.59,14.53-87.68,15.82-90.14-11.54h42.15c-16.21,55.38-34.76,119.72-95.33,249.03c-5.97,11.8-5.97,13.36-5.97,17.77
	c0,15.56,13.36,19.2,19.97,19.2c21.4,0,27.37-19.2,36.19-50.19c11.8-37.74,11.8-39.17,19.2-68.74L920.35,488.43z"/>
<path d="M924.11,479.35c7.13,0,2.46,0.13,17.51,0c13.36-0.13,0.52-0.13,4.8-0.26l-0.39-4.02c-4.8,0.13,3.5,0.26-3.5,0.26
	c-5.06,0-11.02,0-18.94,0"/>
<g>
	<path class="st4" d="M65.83,844.55v-2.2h1.69c2.54,0,4.11-0.21,4.69-0.64c0.58-0.42,0.88-1.32,0.88-2.7v-37.08
		c0-1.35-0.3-2.24-0.89-2.66c-0.6-0.42-2.16-0.64-4.68-0.64h-1.69v-2.2h24.86c4.75,0,8.7,1.31,11.86,3.92
		c3.16,2.61,4.75,5.67,4.75,9.18c0,3.47-1.61,6.45-4.83,8.95s-6.96,3.75-11.23,3.75h-11.9V839c0,1.36,0.29,2.25,0.88,2.69
		s2.15,0.65,4.69,0.65h1.69v2.2c-1.65-0.14-5.12-0.21-10.42-0.21C70.93,844.34,67.48,844.41,65.83,844.55z M79.14,820.47h9.7
		c2.11,0,3.93-0.3,5.47-0.89c1.54-0.6,2.65-1.25,3.35-1.98c0.7-0.72,1.25-1.67,1.65-2.85c0.4-1.18,0.62-2.1,0.67-2.75
		c0.05-0.65,0.07-1.47,0.07-2.46c0-1.03-0.02-1.87-0.07-2.53c-0.05-0.65-0.27-1.57-0.67-2.75c-0.4-1.18-0.95-2.13-1.65-2.85
		c-0.7-0.72-1.81-1.36-3.34-1.93c-1.52-0.56-3.35-0.84-5.49-0.84h-6.26c-1.6,0-2.58,0.16-2.92,0.48c-0.34,0.32-0.52,1.1-0.52,2.34
		V820.47z"/>
	<path class="st4" d="M113.49,844.55v-2.2c2.5,0,4.03-0.15,4.61-0.46s0.86-1.22,0.86-2.73v-36.6c0-1.74-0.3-2.83-0.91-3.26
		c-0.61-0.43-2.13-0.65-4.56-0.65v-2.2l10.11-0.76v24.48h0.07c0.76-1.69,1.98-3.24,3.68-4.64c1.7-1.4,3.85-2.1,6.47-2.1
		c3.53,0,6,0.87,7.39,2.61c1.03,1.17,1.66,2.41,1.87,3.71c0.22,1.31,0.33,3.65,0.33,7.04v13.43c0.05,0.98,0.45,1.59,1.2,1.8
		c0.76,0.22,2.19,0.33,4.3,0.33v2.2c-4.79-0.14-7.43-0.21-7.91-0.21c-0.37,0-3.02,0.07-7.94,0.21v-2.2c2.5,0,4.04-0.15,4.63-0.46
		c0.58-0.31,0.88-1.22,0.88-2.73v-16.38c0-2.38-0.37-4.28-1.1-5.68c-0.73-1.41-2.11-2.11-4.13-2.11c-2.43,0-4.62,1.02-6.57,3.06
		s-2.92,4.77-2.92,8.21v12.91c0,1.51,0.29,2.42,0.88,2.73c0.58,0.31,2.11,0.46,4.59,0.46v2.2c-4.79-0.14-7.42-0.21-7.88-0.21
		C121.07,844.34,118.42,844.41,113.49,844.55z"/>
	<path class="st4" d="M149.67,853.28c0-0.99,0.29-1.74,0.87-2.25c0.58-0.52,1.26-0.77,2.06-0.77c0.84,0,1.53,0.27,2.09,0.81
		c0.56,0.54,0.83,1.26,0.83,2.15c0,1.74-0.91,2.73-2.72,2.96c0.89,0.85,1.99,1.27,3.3,1.27c1.4,0,2.67-0.52,3.8-1.55
		c1.13-1.03,1.95-2.04,2.44-3.03c0.49-0.99,1.09-2.37,1.81-4.16c0.67-1.4,1.25-2.79,1.75-4.16l-10.56-25.72
		c-0.46-1.12-1.04-1.81-1.75-2.06c-0.71-0.25-2.02-0.38-3.92-0.38v-2.2c2.11,0.14,4.39,0.21,6.84,0.21c1.44,0,4-0.07,7.67-0.21v2.2
		c-2.64,0-3.96,0.61-3.96,1.82c0,0.14,0.14,0.56,0.41,1.27l7.84,18.95l7.12-17.33c0.28-0.67,0.41-1.23,0.41-1.69
		c0-1.93-1.1-2.93-3.3-3.03v-2.2c3.1,0.14,5.14,0.21,6.12,0.21c1.93,0,3.68-0.07,5.26-0.21v2.2c-3.14,0-5.32,1.5-6.53,4.5
		l-12.42,30.06c-2.25,5.34-5.25,8.02-9.01,8.05c-1.79,0-3.31-0.55-4.57-1.65C150.3,856.24,149.67,854.89,149.67,853.28z"/>
	<path class="st4" d="M187.78,843.62v-9.29c0-0.53,0.01-0.88,0.04-1.07c0.02-0.18,0.11-0.34,0.25-0.48
		c0.14-0.14,0.36-0.21,0.64-0.21c0.33,0,0.56,0.07,0.69,0.21c0.13,0.14,0.24,0.47,0.34,1c0.68,3.24,1.78,5.72,3.3,7.43
		c1.52,1.71,3.67,2.57,6.43,2.57c2.64,0,4.62-0.58,5.95-1.76c1.33-1.17,1.99-2.72,1.99-4.65c0-3.44-2.44-5.6-7.33-6.47
		c-2.82-0.57-4.81-1.05-5.98-1.43c-1.17-0.38-2.27-0.99-3.3-1.84c-2.02-1.65-3.03-3.65-3.03-5.99s0.89-4.37,2.67-6.09
		c1.78-1.72,4.64-2.58,8.58-2.58c2.64,0,4.85,0.67,6.64,2c0.53-0.41,0.93-0.79,1.2-1.14c0.67-0.57,1.18-0.86,1.52-0.86
		c0.42,0,0.66,0.12,0.74,0.36c0.07,0.24,0.11,0.69,0.11,1.36v7.08c0,0.53-0.01,0.88-0.03,1.07s-0.11,0.34-0.27,0.46
		c-0.15,0.13-0.4,0.19-0.73,0.19c-0.59,0-0.9-0.22-0.93-0.65c-0.37-5.69-3.12-8.53-8.25-8.53c-2.77,0-4.78,0.53-6.02,1.6
		s-1.86,2.32-1.86,3.77c0,0.8,0.19,1.51,0.57,2.12c0.38,0.61,0.81,1.09,1.31,1.45c0.49,0.36,1.2,0.7,2.12,1.03
		c0.92,0.33,1.66,0.56,2.22,0.67c0.56,0.11,1.38,0.29,2.46,0.52c3.76,0.71,6.43,1.84,8.01,3.37c1.97,1.97,2.96,4.21,2.96,6.71
		c0,2.77-0.94,5.09-2.82,6.96c-1.88,1.88-4.71,2.81-8.49,2.81c-3.05,0-5.64-1.01-7.77-3.03c-0.27,0.28-0.5,0.53-0.71,0.78
		c-0.2,0.24-0.34,0.41-0.42,0.5s-0.13,0.17-0.15,0.22c-0.02,0.06-0.06,0.11-0.1,0.15c-0.94,0.92-1.53,1.38-1.76,1.38
		c-0.38,0-0.61-0.12-0.68-0.36C187.81,844.74,187.78,844.28,187.78,843.62z"/>
	<path class="st4" d="M215.5,844.55v-2.2c2.5,0,4.04-0.15,4.61-0.46c0.57-0.31,0.86-1.22,0.86-2.73v-18.92
		c0-1.74-0.29-2.82-0.88-3.23c-0.58-0.41-2.02-0.62-4.32-0.62v-2.2l9.84-0.76v25.8c0,1.4,0.25,2.27,0.76,2.61
		c0.5,0.34,1.9,0.52,4.2,0.52v2.2c-4.79-0.14-7.23-0.21-7.33-0.21C222.59,844.34,220.01,844.41,215.5,844.55z M218.35,801.15
		c0-0.94,0.38-1.79,1.13-2.56c0.75-0.77,1.65-1.15,2.68-1.15c1.04,0,1.92,0.35,2.65,1.05c0.73,0.7,1.1,1.59,1.1,2.68
		s-0.37,1.98-1.1,2.68s-1.62,1.05-2.65,1.05c-1.11,0-2.02-0.38-2.74-1.13C218.71,803,218.35,802.13,218.35,801.15z"/>
	<path class="st4" d="M239.53,840.69c-2.98-3.1-4.47-6.89-4.47-11.36c0-4.47,1.47-8.31,4.4-11.53c2.93-3.22,6.56-4.82,10.87-4.82
		c2.81,0,5.27,0.68,7.39,2.05c2.11,1.36,3.17,3.2,3.17,5.52c0,1.03-0.29,1.84-0.88,2.42c-0.58,0.58-1.33,0.88-2.23,0.88
		c-0.96,0-1.73-0.3-2.3-0.92c-0.57-0.61-0.85-1.39-0.85-2.33c0-0.41,0.07-0.83,0.2-1.24c0.13-0.41,0.45-0.84,0.96-1.28
		c0.5-0.44,1.19-0.69,2.06-0.76c-1.66-1.73-4.09-2.59-7.31-2.59c-0.05,0-0.09,0-0.14,0c-2.38,0-4.56,1.13-6.53,3.38
		c-1.97,2.25-2.96,5.95-2.96,11.1c0,2.69,0.33,5.02,0.98,6.98s1.52,3.45,2.6,4.46c1.08,1.01,2.14,1.75,3.2,2.22
		c1.05,0.47,2.1,0.71,3.13,0.71c4.54,0,7.58-2.47,9.11-7.43c0.13-0.46,0.41-0.69,0.83-0.69c0.61,0,0.92,0.23,0.92,0.69
		c0,0.23-0.09,0.64-0.27,1.24c-0.18,0.6-0.55,1.36-1.12,2.3c-0.56,0.94-1.24,1.82-2.04,2.63c-0.8,0.81-1.9,1.52-3.31,2.11
		c-1.41,0.6-2.99,0.89-4.75,0.89C246.07,845.34,242.51,843.79,239.53,840.69z"/>
	<path class="st4" d="M266.26,843.62v-9.29c0-0.53,0.01-0.88,0.04-1.07c0.02-0.18,0.11-0.34,0.25-0.48
		c0.14-0.14,0.36-0.21,0.64-0.21c0.33,0,0.56,0.07,0.69,0.21c0.13,0.14,0.24,0.47,0.34,1c0.68,3.24,1.78,5.72,3.3,7.43
		c1.52,1.71,3.67,2.57,6.43,2.57c2.64,0,4.62-0.58,5.95-1.76c1.33-1.17,1.99-2.72,1.99-4.65c0-3.44-2.44-5.6-7.33-6.47
		c-2.82-0.57-4.81-1.05-5.98-1.43c-1.17-0.38-2.27-0.99-3.3-1.84c-2.02-1.65-3.03-3.65-3.03-5.99s0.89-4.37,2.67-6.09
		c1.78-1.72,4.64-2.58,8.58-2.58c2.64,0,4.85,0.67,6.64,2c0.53-0.41,0.93-0.79,1.2-1.14c0.67-0.57,1.18-0.86,1.52-0.86
		c0.42,0,0.66,0.12,0.74,0.36c0.07,0.24,0.11,0.69,0.11,1.36v7.08c0,0.53-0.01,0.88-0.03,1.07s-0.11,0.34-0.27,0.46
		c-0.15,0.13-0.4,0.19-0.73,0.19c-0.59,0-0.9-0.22-0.93-0.65c-0.37-5.69-3.12-8.53-8.25-8.53c-2.77,0-4.78,0.53-6.02,1.6
		s-1.86,2.32-1.86,3.77c0,0.8,0.19,1.51,0.57,2.12c0.38,0.61,0.81,1.09,1.31,1.45c0.49,0.36,1.2,0.7,2.12,1.03
		c0.92,0.33,1.66,0.56,2.22,0.67c0.56,0.11,1.38,0.29,2.46,0.52c3.76,0.71,6.43,1.84,8.01,3.37c1.97,1.97,2.96,4.21,2.96,6.71
		c0,2.77-0.94,5.09-2.82,6.96c-1.88,1.88-4.71,2.81-8.49,2.81c-3.05,0-5.64-1.01-7.77-3.03c-0.27,0.28-0.5,0.53-0.71,0.78
		c-0.2,0.24-0.34,0.41-0.42,0.5s-0.13,0.17-0.15,0.22c-0.02,0.06-0.06,0.11-0.1,0.15c-0.94,0.92-1.53,1.38-1.76,1.38
		c-0.38,0-0.61-0.12-0.68-0.36C266.29,844.74,266.26,844.28,266.26,843.62z"/>
	<path class="st4" d="M317.39,843.62v-9.29c0-0.53,0.01-0.88,0.04-1.07c0.02-0.18,0.11-0.34,0.25-0.48
		c0.14-0.14,0.36-0.21,0.64-0.21c0.33,0,0.56,0.07,0.69,0.21c0.13,0.14,0.24,0.47,0.34,1c0.68,3.24,1.78,5.72,3.3,7.43
		c1.52,1.71,3.67,2.57,6.43,2.57c2.64,0,4.62-0.58,5.95-1.76c1.33-1.17,1.99-2.72,1.99-4.65c0-3.44-2.44-5.6-7.33-6.47
		c-2.82-0.57-4.81-1.05-5.98-1.43c-1.17-0.38-2.27-0.99-3.3-1.84c-2.02-1.65-3.03-3.65-3.03-5.99s0.89-4.37,2.67-6.09
		c1.78-1.72,4.64-2.58,8.58-2.58c2.64,0,4.85,0.67,6.64,2c0.53-0.41,0.93-0.79,1.2-1.14c0.67-0.57,1.18-0.86,1.52-0.86
		c0.42,0,0.66,0.12,0.74,0.36c0.07,0.24,0.11,0.69,0.11,1.36v7.08c0,0.53-0.01,0.88-0.03,1.07s-0.11,0.34-0.27,0.46
		c-0.15,0.13-0.4,0.19-0.73,0.19c-0.59,0-0.9-0.22-0.93-0.65c-0.37-5.69-3.12-8.53-8.25-8.53c-2.77,0-4.78,0.53-6.02,1.6
		s-1.86,2.32-1.86,3.77c0,0.8,0.19,1.51,0.57,2.12c0.38,0.61,0.81,1.09,1.31,1.45c0.49,0.36,1.2,0.7,2.12,1.03
		c0.92,0.33,1.66,0.56,2.22,0.67c0.56,0.11,1.38,0.29,2.46,0.52c3.76,0.71,6.43,1.84,8.01,3.37c1.97,1.97,2.96,4.21,2.96,6.71
		c0,2.77-0.94,5.09-2.82,6.96c-1.88,1.88-4.71,2.81-8.49,2.81c-3.05,0-5.64-1.01-7.77-3.03c-0.27,0.28-0.5,0.53-0.71,0.78
		c-0.2,0.24-0.34,0.41-0.42,0.5s-0.13,0.17-0.15,0.22c-0.02,0.06-0.06,0.11-0.1,0.15c-0.94,0.92-1.53,1.38-1.76,1.38
		c-0.38,0-0.61-0.12-0.68-0.36C317.43,844.74,317.39,844.28,317.39,843.62z"/>
	<path class="st4" d="M344.12,816.38v-1.55c2.15-0.09,3.95-0.9,5.38-2.42c1.43-1.52,2.4-3.23,2.89-5.11
		c0.49-1.88,0.76-3.91,0.81-6.09h1.75v12.96h10.08v2.2h-10.08v19.59c0,5.07,1.58,7.61,4.75,7.61c1.35,0,2.48-0.69,3.37-2.08
		s1.34-3.32,1.34-5.8v-3.89h1.75v4.02c0,2.54-0.58,4.76-1.75,6.66c-1.17,1.9-2.91,2.85-5.23,2.85c-0.85,0-1.69-0.11-2.53-0.33
		s-1.8-0.61-2.89-1.17c-1.09-0.56-1.97-1.54-2.65-2.92c-0.68-1.39-1.01-3.09-1.01-5.11v-19.43H344.12z"/>
	<path class="st4" d="M372.32,816.38v-2.2l10.35-0.76v23.41c0,1.13,0.05,2.01,0.14,2.67s0.33,1.36,0.71,2.12
		c0.38,0.76,1.01,1.31,1.9,1.65c0.88,0.34,2.04,0.52,3.46,0.52c2.55,0,4.61-1.04,6.19-3.13c1.57-2.09,2.36-4.68,2.36-7.78v-12.57
		c0-1.74-0.31-2.83-0.93-3.27c-0.62-0.44-2.14-0.65-4.57-0.65v-2.2l10.35-0.76v24.97c0,1.74,0.3,2.83,0.91,3.28
		c0.61,0.45,2.14,0.67,4.59,0.67v2.2l-10.15,0.79v-6.36c-1.97,4.22-5,6.34-9.08,6.36c-2.06,0-3.8-0.26-5.21-0.79
		c-1.41-0.53-2.47-1.12-3.18-1.77c-0.71-0.65-1.26-1.61-1.63-2.87s-0.59-2.28-0.64-3.06c-0.05-0.78-0.07-1.93-0.07-3.44v-10.56
		c0-3.19-0.23-5.06-0.69-5.62C376.67,816.66,375.06,816.38,372.32,816.38z"/>
	<path class="st4" d="M411.56,829.4c0-4.46,1.56-8.24,4.68-11.34c3.12-3.09,6.79-4.64,11-4.64c3.58,0,6.53,1.45,8.87,4.36v-15.23
		c0-1.74-0.31-2.83-0.92-3.27s-2.14-0.65-4.58-0.65v-2.2l10.15-0.76v42.72c0,1.74,0.31,2.84,0.92,3.28
		c0.61,0.45,2.14,0.67,4.59,0.67v2.2l-10.35,0.79v-4.71c-2.43,3.12-5.57,4.69-9.42,4.71c-4.04,0-7.53-1.55-10.49-4.65
		C413.04,837.59,411.56,833.83,411.56,829.4z M417.4,829.47c0,4.37,0.68,7.64,2.03,9.8c1.88,3.01,4.34,4.52,7.39,4.52
		c3.48,0,6.26-1.64,8.32-4.92c0.53-0.8,0.78-1.67,0.76-2.62v-14.46c0-0.94-0.25-1.8-0.76-2.58c-1.93-2.82-4.46-4.24-7.6-4.24
		c-3.28,0-5.94,1.5-7.98,4.5C418.12,821.71,417.4,825.05,417.4,829.47z"/>
	<path class="st4" d="M450.18,829.04c0-4.42,1.42-8.21,4.26-11.35c2.84-3.14,6.3-4.71,10.39-4.71c4.13,0,7.26,1.33,9.41,4
		c2.14,2.67,3.22,5.92,3.22,9.75c0,0.74-0.09,1.19-0.27,1.33c-0.18,0.14-0.68,0.22-1.48,0.22h-19.67c0,4.8,0.71,8.33,2.13,10.58
		c1.97,3.15,4.62,4.72,7.94,4.72c0.46,0,0.97-0.05,1.52-0.14c0.55-0.09,1.4-0.34,2.53-0.74c1.13-0.4,2.19-1.14,3.19-2.22
		c0.99-1.08,1.78-2.47,2.36-4.17c0.13-0.67,0.42-0.99,0.86-0.96c0.6,0,0.89,0.28,0.89,0.83c0,0.41-0.22,1.08-0.67,2.01
		c-0.45,0.93-1.1,1.94-1.94,3.04c-0.85,1.1-2.09,2.06-3.73,2.88c-1.64,0.82-3.44,1.24-5.42,1.24c-4.13,0-7.74-1.56-10.85-4.69
		C451.73,837.51,450.18,833.65,450.18,829.04z M456.09,826.73h16.71c0-0.98-0.09-2.02-0.26-3.12c-0.17-1.1-0.5-2.41-1-3.93
		c-0.49-1.52-1.31-2.76-2.46-3.72c-1.15-0.96-2.57-1.44-4.26-1.44c-0.76,0-1.54,0.16-2.36,0.48c-0.81,0.32-1.71,0.87-2.7,1.65
		c-0.99,0.78-1.82,2.05-2.51,3.81C456.57,822.22,456.18,824.31,456.09,826.73z"/>
	<path class="st4" d="M481.71,844.55v-2.2c2.51,0,4.06-0.15,4.64-0.46c0.58-0.31,0.87-1.22,0.87-2.73V820.3
		c0-1.74-0.31-2.83-0.92-3.26c-0.61-0.44-2.14-0.65-4.59-0.65v-2.2l9.91-0.76l0,7.39c2.21-4.93,5.69-7.39,10.44-7.39
		c3.53,0,6,0.87,7.4,2.61c1.03,1.17,1.66,2.41,1.88,3.71s0.33,3.65,0.33,7.04v13.43c0.05,0.98,0.45,1.59,1.2,1.8
		c0.76,0.22,2.19,0.33,4.3,0.33v2.2c-4.79-0.14-7.43-0.21-7.91-0.21c-0.37,0-3.02,0.07-7.94,0.21v-2.2c2.5,0,4.04-0.15,4.63-0.46
		c0.58-0.31,0.88-1.22,0.88-2.73v-16.38c0-2.38-0.37-4.28-1.1-5.68c-0.74-1.41-2.11-2.11-4.14-2.11c-2.44,0-4.63,1.02-6.58,3.06
		s-2.93,4.77-2.93,8.21v12.91c0,1.51,0.29,2.42,0.88,2.73c0.59,0.31,2.13,0.46,4.62,0.46v2.2c-4.8-0.14-7.43-0.21-7.89-0.21
		C489.31,844.34,486.65,844.41,481.71,844.55z"/>
	<path class="st4" d="M517.93,816.38v-1.55c2.15-0.09,3.95-0.9,5.38-2.42c1.43-1.52,2.4-3.23,2.89-5.11
		c0.49-1.88,0.76-3.91,0.81-6.09h1.75v12.96h10.08v2.2h-10.08v19.59c0,5.07,1.58,7.61,4.75,7.61c1.35,0,2.48-0.69,3.37-2.08
		s1.34-3.32,1.34-5.8v-3.89h1.75v4.02c0,2.54-0.58,4.76-1.75,6.66c-1.17,1.9-2.91,2.85-5.23,2.85c-0.85,0-1.69-0.11-2.53-0.33
		s-1.8-0.61-2.89-1.17c-1.09-0.56-1.97-1.54-2.65-2.92c-0.68-1.39-1.01-3.09-1.01-5.11v-19.43H517.93z"/>
</g>
<g>
	<path class="st4" d="M735.81,845.73v-2.2c1.7,0,3.08-0.17,4.16-0.5c1.08-0.33,1.82-0.81,2.22-1.44c0.4-0.63,0.65-1.16,0.74-1.58
		c0.09-0.42,0.14-0.99,0.14-1.7v-35.19c0-1.35-0.29-2.24-0.88-2.66s-2.15-0.64-4.69-0.64h-1.69v-2.2h11.9
		c0.85,0,1.39,0.07,1.62,0.22c0.23,0.15,0.52,0.59,0.86,1.32l15.27,39.42l15.41-39.62c0.23-0.66,0.45-1.05,0.67-1.17
		c0.22-0.11,0.77-0.17,1.67-0.17h11.9v2.2h-1.65c-2.5,0-4.03,0.21-4.6,0.64c-0.57,0.42-0.86,1.31-0.86,2.66v37.08
		c0,1.35,0.29,2.25,0.86,2.68c0.57,0.43,2.11,0.65,4.6,0.65h1.65v2.2c-1.73-0.14-5.07-0.21-10.01-0.21c-4.99,0-8.35,0.07-10.08,0.21
		v-2.2h1.69c2.5,0,4.03-0.21,4.59-0.64c0.56-0.42,0.84-1.32,0.84-2.7v-40.38h-0.07l-17.3,44.57c-0.32,0.89-0.75,1.34-1.27,1.34
		c-0.57,0-1.04-0.52-1.41-1.55l-16.99-43.81h-0.07v37.94c0,0.71,0.05,1.28,0.14,1.7c0.09,0.42,0.34,0.95,0.74,1.58
		c0.4,0.63,1.14,1.11,2.22,1.44s2.46,0.5,4.16,0.5v2.2c-4.93-0.14-7.68-0.21-8.24-0.21C743.48,845.52,740.74,845.59,735.81,845.73z"
		/>
	<path class="st4" d="M800.64,839c0-4,2.39-7.05,7.18-9.17c2.87-1.36,7.28-2.21,13.21-2.57v-2.57c0-2.9-0.8-5.13-2.41-6.67
		c-1.61-1.54-3.43-2.31-5.46-2.31c-3.48,0-6.05,1.09-7.72,3.27c1.35,0.05,2.26,0.42,2.75,1.12s0.73,1.4,0.73,2.11
		c0,0.94-0.28,1.71-0.84,2.32c-0.56,0.61-1.32,0.91-2.27,0.91c-0.91,0-1.66-0.29-2.25-0.88c-0.6-0.58-0.89-1.39-0.89-2.42
		c0-2.29,1.04-4.2,3.11-5.71c2.07-1.51,4.58-2.27,7.54-2.27c3.98,0,7.29,1.29,9.95,3.88c0.83,0.8,1.45,1.72,1.86,2.74
		c0.41,1.03,0.64,1.88,0.69,2.55c0.05,0.67,0.07,1.67,0.07,3v14.07c0,0.27,0.05,0.64,0.14,1.1c0.09,0.46,0.35,0.98,0.77,1.56
		c0.42,0.58,0.99,0.88,1.69,0.88c1.69,0,2.52-1.5,2.49-4.5v-3.95h1.75v3.96c0,2.5-0.65,4.24-1.96,5.22
		c-1.3,0.98-2.56,1.46-3.76,1.46c-1.56,0-2.83-0.58-3.81-1.73s-1.55-2.51-1.68-4.08c-0.75,1.8-1.97,3.28-3.67,4.44
		s-3.71,1.74-6.02,1.74c-1.68,0-3.31-0.21-4.9-0.64c-1.58-0.43-3.02-1.23-4.33-2.42C801.29,842.29,800.64,840.8,800.64,839z
		 M806.48,838.93c0,1.76,0.57,3.21,1.72,4.34c1.14,1.13,2.52,1.7,4.13,1.7c2.08,0,4.05-0.76,5.91-2.29c1.86-1.53,2.79-3.8,2.79-6.81
		v-7.06c-5.19,0.18-8.92,1.31-11.17,3.38C807.61,834.26,806.48,836.51,806.48,838.93z"/>
	<path class="st4" d="M834.23,817.57v-1.55c2.15-0.09,3.95-0.9,5.38-2.42c1.43-1.52,2.4-3.23,2.89-5.11
		c0.49-1.88,0.76-3.91,0.81-6.09h1.75v12.96h10.08v2.2h-10.08v19.59c0,5.07,1.58,7.61,4.75,7.61c1.35,0,2.48-0.69,3.37-2.08
		s1.34-3.32,1.34-5.8v-3.89h1.75v4.02c0,2.54-0.58,4.76-1.75,6.66c-1.17,1.9-2.91,2.85-5.23,2.85c-0.85,0-1.69-0.11-2.53-0.33
		s-1.8-0.61-2.89-1.17c-1.09-0.56-1.97-1.54-2.65-2.92c-0.68-1.39-1.01-3.09-1.01-5.11v-19.43H834.23z"/>
	<path class="st4" d="M862.47,845.73v-2.2c2.5,0,4.03-0.15,4.61-0.46s0.86-1.22,0.86-2.73v-36.6c0-1.74-0.3-2.83-0.91-3.26
		c-0.61-0.43-2.13-0.65-4.56-0.65v-2.2l10.11-0.76v24.48h0.07c0.76-1.69,1.98-3.24,3.68-4.64c1.7-1.4,3.85-2.1,6.47-2.1
		c3.53,0,6,0.87,7.39,2.61c1.03,1.17,1.66,2.41,1.87,3.71c0.22,1.31,0.33,3.65,0.33,7.04v13.43c0.05,0.98,0.45,1.59,1.2,1.8
		c0.76,0.22,2.19,0.33,4.3,0.33v2.2c-4.79-0.14-7.43-0.21-7.91-0.21c-0.37,0-3.02,0.07-7.94,0.21v-2.2c2.5,0,4.04-0.15,4.63-0.46
		c0.58-0.31,0.88-1.22,0.88-2.73v-16.38c0-2.38-0.37-4.28-1.1-5.68c-0.73-1.41-2.11-2.11-4.13-2.11c-2.43,0-4.62,1.02-6.57,3.06
		s-2.92,4.77-2.92,8.21v12.91c0,1.51,0.29,2.42,0.88,2.73c0.58,0.31,2.11,0.46,4.59,0.46v2.2c-4.79-0.14-7.42-0.21-7.88-0.21
		C870.05,845.52,867.4,845.59,862.47,845.73z"/>
	<path class="st4" d="M901.23,830.22c0-4.42,1.42-8.21,4.26-11.35c2.84-3.14,6.3-4.71,10.39-4.71c4.13,0,7.26,1.33,9.41,4
		c2.14,2.67,3.22,5.92,3.22,9.75c0,0.74-0.09,1.19-0.27,1.33c-0.18,0.14-0.68,0.22-1.48,0.22h-19.67c0,4.8,0.71,8.33,2.13,10.58
		c1.97,3.15,4.62,4.72,7.94,4.72c0.46,0,0.97-0.05,1.52-0.14c0.55-0.09,1.4-0.34,2.53-0.74c1.13-0.4,2.19-1.14,3.19-2.22
		c0.99-1.08,1.78-2.47,2.36-4.17c0.13-0.67,0.42-0.99,0.86-0.96c0.6,0,0.89,0.28,0.89,0.83c0,0.41-0.22,1.08-0.67,2.01
		c-0.45,0.93-1.1,1.94-1.94,3.04c-0.85,1.1-2.09,2.06-3.73,2.88c-1.64,0.82-3.44,1.24-5.42,1.24c-4.13,0-7.74-1.56-10.85-4.69
		C902.78,838.7,901.23,834.83,901.23,830.22z M907.14,827.92h16.71c0-0.98-0.09-2.02-0.26-3.12c-0.17-1.1-0.5-2.41-1-3.93
		c-0.49-1.52-1.31-2.76-2.46-3.72c-1.15-0.96-2.57-1.44-4.26-1.44c-0.76,0-1.54,0.16-2.36,0.48c-0.81,0.32-1.71,0.87-2.7,1.65
		c-0.99,0.78-1.82,2.05-2.51,3.81C907.62,823.4,907.23,825.49,907.14,827.92z"/>
	<path class="st4" d="M932.76,845.73v-2.2c2.51,0,4.06-0.15,4.64-0.46c0.58-0.31,0.87-1.22,0.87-2.73v-18.86
		c0-1.74-0.31-2.83-0.92-3.26c-0.61-0.44-2.14-0.65-4.59-0.65v-2.2l9.91-0.76l0,7.39c2.21-4.93,5.69-7.39,10.44-7.39
		c5.51,0,8.64,2.29,9.4,6.87c0.8-1.79,2.05-3.38,3.73-4.78c1.68-1.4,3.85-2.1,6.48-2.1c3.53,0,6,0.87,7.39,2.61
		c1.03,1.17,1.65,2.41,1.86,3.71s0.31,3.65,0.31,7.04v13.43c0.05,0.98,0.45,1.59,1.2,1.8c0.76,0.22,2.19,0.33,4.3,0.33v2.2
		c-4.79-0.14-7.42-0.21-7.88-0.21c-0.37,0-3.03,0.07-7.98,0.21v-2.2c2.5,0,4.04-0.15,4.62-0.46c0.58-0.31,0.88-1.22,0.88-2.73
		v-16.38c0-2.38-0.37-4.28-1.1-5.68c-0.73-1.41-2.11-2.11-4.13-2.11c-2.43,0-4.62,1.02-6.57,3.06c-1.95,2.04-2.92,4.77-2.92,8.21
		v12.91c0,1.51,0.29,2.42,0.88,2.73c0.58,0.31,2.13,0.46,4.62,0.46v2.2c-4.79-0.14-7.43-0.21-7.91-0.21c-0.37,0-3.02,0.07-7.94,0.21
		v-2.2c2.5,0,4.04-0.15,4.63-0.46c0.58-0.31,0.88-1.22,0.88-2.73v-16.38c0-2.38-0.37-4.28-1.1-5.68c-0.74-1.41-2.11-2.11-4.14-2.11
		c-2.44,0-4.63,1.02-6.58,3.06s-2.93,4.77-2.93,8.21v12.91c0,1.51,0.29,2.42,0.88,2.73c0.59,0.31,2.13,0.46,4.62,0.46v2.2
		c-4.8-0.14-7.43-0.21-7.89-0.21C940.36,845.52,937.7,845.59,932.76,845.73z"/>
	<path class="st4" d="M992.12,839c0-4,2.39-7.05,7.18-9.17c2.87-1.36,7.28-2.21,13.21-2.57v-2.57c0-2.9-0.8-5.13-2.41-6.67
		c-1.61-1.54-3.42-2.31-5.46-2.31c-3.48,0-6.05,1.09-7.72,3.27c1.35,0.05,2.26,0.42,2.75,1.12c0.49,0.7,0.73,1.4,0.73,2.11
		c0,0.94-0.28,1.71-0.84,2.32c-0.56,0.61-1.32,0.91-2.27,0.91c-0.91,0-1.66-0.29-2.25-0.88c-0.6-0.58-0.89-1.39-0.89-2.42
		c0-2.29,1.04-4.2,3.11-5.71c2.07-1.51,4.58-2.27,7.54-2.27c3.98,0,7.29,1.29,9.95,3.88c0.83,0.8,1.45,1.72,1.87,2.74
		s0.64,1.88,0.69,2.55c0.05,0.67,0.07,1.67,0.07,3v14.07c0,0.27,0.05,0.64,0.14,1.1c0.09,0.46,0.35,0.98,0.77,1.56
		s0.99,0.88,1.69,0.88c1.68,0,2.52-1.5,2.49-4.5v-3.95h1.75v3.96c0,2.5-0.65,4.24-1.96,5.22c-1.3,0.98-2.56,1.46-3.76,1.46
		c-1.56,0-2.83-0.58-3.81-1.73s-1.55-2.51-1.68-4.08c-0.75,1.8-1.97,3.28-3.67,4.44s-3.71,1.74-6.02,1.74
		c-1.68,0-3.31-0.21-4.89-0.64c-1.58-0.43-3.02-1.23-4.33-2.42S992.12,840.8,992.12,839z M997.97,838.93c0,1.76,0.57,3.21,1.72,4.34
		c1.14,1.13,2.52,1.7,4.13,1.7c2.08,0,4.05-0.76,5.91-2.29c1.86-1.53,2.79-3.8,2.79-6.81v-7.06c-5.19,0.18-8.92,1.31-11.17,3.38
		C999.09,834.26,997.97,836.51,997.97,838.93z"/>
	<path class="st4" d="M1025.72,817.57v-1.55c2.15-0.09,3.95-0.9,5.38-2.42c1.43-1.52,2.4-3.23,2.89-5.11s0.76-3.91,0.81-6.09h1.75
		v12.96h10.08v2.2h-10.08v19.59c0,5.07,1.58,7.61,4.75,7.61c1.35,0,2.48-0.69,3.37-2.08c0.89-1.39,1.34-3.32,1.34-5.8v-3.89h1.75
		v4.02c0,2.54-0.58,4.76-1.75,6.66c-1.17,1.9-2.91,2.85-5.23,2.85c-0.85,0-1.69-0.11-2.53-0.33s-1.8-0.61-2.89-1.17
		c-1.09-0.56-1.97-1.54-2.65-2.92c-0.68-1.39-1.01-3.09-1.01-5.11v-19.43H1025.72z"/>
	<path class="st4" d="M1054.02,845.73v-2.2c2.5,0,4.04-0.15,4.61-0.46c0.57-0.31,0.86-1.22,0.86-2.73v-18.92
		c0-1.74-0.29-2.82-0.88-3.23c-0.58-0.41-2.02-0.62-4.32-0.62v-2.2l9.84-0.76v25.8c0,1.4,0.25,2.27,0.76,2.61
		c0.5,0.34,1.9,0.52,4.2,0.52v2.2c-4.79-0.14-7.23-0.21-7.33-0.21C1061.12,845.52,1058.54,845.59,1054.02,845.73z M1056.88,802.33
		c0-0.94,0.38-1.79,1.13-2.56c0.75-0.77,1.65-1.15,2.68-1.15s1.92,0.35,2.66,1.05c0.73,0.7,1.1,1.59,1.1,2.68s-0.37,1.98-1.1,2.68
		c-0.73,0.7-1.62,1.05-2.65,1.05c-1.11,0-2.02-0.38-2.74-1.13S1056.88,803.32,1056.88,802.33z"/>
	<path class="st4" d="M1078.06,841.87c-2.98-3.1-4.47-6.89-4.47-11.36c0-4.47,1.47-8.31,4.4-11.53s6.56-4.82,10.87-4.82
		c2.81,0,5.27,0.68,7.39,2.05c2.11,1.36,3.17,3.2,3.17,5.52c0,1.03-0.29,1.84-0.88,2.42s-1.33,0.88-2.23,0.88
		c-0.96,0-1.73-0.3-2.3-0.92c-0.57-0.61-0.86-1.39-0.86-2.33c0-0.41,0.07-0.83,0.2-1.24s0.45-0.84,0.96-1.28s1.19-0.69,2.06-0.76
		c-1.66-1.73-4.09-2.59-7.31-2.59c-0.05,0-0.09,0-0.14,0c-2.38,0-4.56,1.13-6.53,3.38c-1.97,2.25-2.96,5.95-2.96,11.1
		c0,2.69,0.33,5.02,0.98,6.98s1.52,3.45,2.6,4.46c1.08,1.01,2.14,1.75,3.2,2.22c1.05,0.47,2.1,0.71,3.13,0.71
		c4.54,0,7.58-2.47,9.11-7.43c0.13-0.46,0.41-0.69,0.83-0.69c0.61,0,0.92,0.23,0.92,0.69c0,0.23-0.09,0.64-0.27,1.24
		c-0.18,0.6-0.55,1.36-1.12,2.3c-0.56,0.94-1.24,1.82-2.04,2.63c-0.8,0.81-1.9,1.52-3.31,2.11c-1.41,0.6-2.99,0.89-4.75,0.89
		C1084.6,846.52,1081.04,844.97,1078.06,841.87z"/>
	<path class="st4" d="M1104.79,845.73v-2.2c2.5,0,4.04-0.15,4.61-0.46c0.57-0.31,0.86-1.22,0.86-2.73v-18.92
		c0-1.74-0.29-2.82-0.88-3.23c-0.58-0.41-2.02-0.62-4.32-0.62v-2.2l9.83-0.76v25.8c0,1.4,0.25,2.27,0.76,2.61
		c0.5,0.34,1.9,0.52,4.2,0.52v2.2c-4.79-0.14-7.23-0.21-7.33-0.21C1111.88,845.52,1109.3,845.59,1104.79,845.73z M1107.64,802.33
		c0-0.94,0.38-1.79,1.13-2.56c0.75-0.77,1.65-1.15,2.68-1.15c1.04,0,1.92,0.35,2.65,1.05c0.73,0.7,1.1,1.59,1.1,2.68
		s-0.37,1.98-1.1,2.68c-0.73,0.7-1.62,1.05-2.65,1.05c-1.11,0-2.02-0.38-2.74-1.13C1108,804.19,1107.64,803.32,1107.64,802.33z"/>
	<path class="st4" d="M1124.9,839c0-4,2.39-7.05,7.18-9.17c2.87-1.36,7.28-2.21,13.21-2.57v-2.57c0-2.9-0.8-5.13-2.41-6.67
		c-1.61-1.54-3.43-2.31-5.46-2.31c-3.48,0-6.05,1.09-7.72,3.27c1.35,0.05,2.26,0.42,2.75,1.12c0.49,0.7,0.73,1.4,0.73,2.11
		c0,0.94-0.28,1.71-0.84,2.32c-0.56,0.61-1.32,0.91-2.27,0.91c-0.91,0-1.66-0.29-2.25-0.88c-0.6-0.58-0.89-1.39-0.89-2.42
		c0-2.29,1.04-4.2,3.11-5.71c2.07-1.51,4.58-2.27,7.54-2.27c3.98,0,7.29,1.29,9.95,3.88c0.83,0.8,1.45,1.72,1.86,2.74
		c0.42,1.03,0.64,1.88,0.69,2.55c0.05,0.67,0.07,1.67,0.07,3v14.07c0,0.27,0.04,0.64,0.14,1.1c0.09,0.46,0.35,0.98,0.77,1.56
		c0.42,0.58,0.99,0.88,1.69,0.88c1.69,0,2.52-1.5,2.49-4.5v-3.95h1.75v3.96c0,2.5-0.65,4.24-1.96,5.22
		c-1.3,0.98-2.56,1.46-3.76,1.46c-1.56,0-2.83-0.58-3.81-1.73s-1.54-2.51-1.68-4.08c-0.75,1.8-1.97,3.28-3.67,4.44
		s-3.71,1.74-6.02,1.74c-1.68,0-3.31-0.21-4.9-0.64c-1.58-0.43-3.02-1.23-4.33-2.42C1125.56,842.29,1124.9,840.8,1124.9,839z
		 M1130.75,838.93c0,1.76,0.57,3.21,1.72,4.34c1.14,1.13,2.52,1.7,4.13,1.7c2.08,0,4.05-0.76,5.91-2.29
		c1.86-1.53,2.79-3.8,2.79-6.81v-7.06c-5.19,0.18-8.92,1.31-11.17,3.38C1131.88,834.26,1130.75,836.51,1130.75,838.93z"/>
	<path class="st4" d="M1159.4,845.73v-2.2c2.51,0,4.06-0.15,4.64-0.46c0.58-0.31,0.87-1.22,0.87-2.73v-18.86
		c0-1.74-0.31-2.83-0.92-3.26c-0.61-0.44-2.14-0.65-4.58-0.65v-2.2l9.91-0.76l0,7.39c2.21-4.93,5.69-7.39,10.44-7.39
		c3.54,0,6,0.87,7.4,2.61c1.03,1.17,1.66,2.41,1.88,3.71c0.22,1.31,0.33,3.65,0.33,7.04v13.43c0.05,0.98,0.45,1.59,1.2,1.8
		c0.76,0.22,2.19,0.33,4.3,0.33v2.2c-4.79-0.14-7.43-0.21-7.91-0.21c-0.37,0-3.02,0.07-7.94,0.21v-2.2c2.5,0,4.04-0.15,4.62-0.46
		c0.58-0.31,0.88-1.22,0.88-2.73v-16.38c0-2.38-0.37-4.28-1.1-5.68c-0.74-1.41-2.11-2.11-4.14-2.11c-2.44,0-4.63,1.02-6.58,3.06
		s-2.93,4.77-2.93,8.21v12.91c0,1.51,0.29,2.42,0.88,2.73c0.59,0.31,2.13,0.46,4.62,0.46v2.2c-4.8-0.14-7.43-0.21-7.89-0.21
		C1166.99,845.52,1164.34,845.59,1159.4,845.73z"/>
</g>
<g>
	<path class="st4" d="M1438.15,822.64c0-7.08,2.42-13.11,7.26-18.09c4.84-4.98,10.58-7.48,17.23-7.48c2.06,0,4.01,0.38,5.85,1.13
		s3.17,1.46,4.02,2.11s1.88,1.59,3.1,2.8l3.23-5.19c0.33-0.57,0.7-0.86,1.09-0.86s0.63,0.11,0.7,0.33c0.07,0.22,0.11,0.67,0.11,1.36
		v16.71c0,0.76-0.05,1.23-0.14,1.41s-0.44,0.27-1.04,0.27c-0.31,0-0.51-0.07-0.58-0.21c-0.07-0.14-0.14-0.47-0.2-1
		c-0.71-5.07-2.47-9.11-5.28-12.14s-6.16-4.54-10.06-4.54c-1.12,0-2.31,0.13-3.56,0.38c-1.25,0.25-2.77,0.86-4.57,1.82
		c-1.8,0.96-3.39,2.24-4.78,3.83c-1.39,1.59-2.59,3.89-3.59,6.91c-1.01,3.01-1.51,6.51-1.51,10.5c0,3.94,0.5,7.42,1.51,10.45
		c1.01,3.02,2.21,5.32,3.59,6.89c1.39,1.57,2.98,2.84,4.78,3.8c1.8,0.96,3.34,1.58,4.61,1.84c1.27,0.26,2.47,0.4,3.59,0.4
		c4.02,0,7.58-1.43,10.66-4.29c3.09-2.86,4.68-6.7,4.79-11.53c0.02-0.23,0.02-0.39,0.02-0.5c0-0.1,0.02-0.21,0.07-0.33
		s0.13-0.19,0.25-0.24c0.12-0.05,0.27-0.07,0.46-0.07c0.64,0,0.97,0.4,0.97,1.2c0,4.47-1.69,8.58-5.05,12.33
		c-3.37,3.75-7.71,5.62-13.04,5.62c-6.67,0-12.42-2.48-17.25-7.43C1440.56,835.89,1438.15,829.82,1438.15,822.64z"/>
	<path class="st4" d="M1488.98,846.59v-14.1c0-0.53,0.01-0.88,0.03-1.07c0.02-0.18,0.1-0.34,0.24-0.48s0.34-0.21,0.62-0.21
		c0.53,0,0.81,0.24,0.86,0.72c0.14,4.64,1.6,8.25,4.39,10.81c2.74,2.54,6.46,3.81,11.15,3.81c2.83,0,5.12-1.01,6.87-3.04
		c1.75-2.03,2.62-4.37,2.62-7.02c0-2.54-0.74-4.7-2.23-6.49c-0.63-0.8-1.33-1.46-2.11-1.97c-0.78-0.51-1.4-0.85-1.88-1.01
		c-0.48-0.16-1.17-0.35-2.07-0.58c-5.82-1.4-8.92-2.18-9.29-2.34c-2.77-0.94-5-2.6-6.69-4.97c-1.69-2.38-2.53-5.02-2.53-7.93
		c0-3.76,1.33-6.97,3.99-9.64c2.66-2.67,5.93-4,9.8-4c1.94,0,3.72,0.3,5.34,0.91c1.62,0.61,2.77,1.19,3.44,1.74
		c0.67,0.55,1.52,1.32,2.56,2.3l2.46-4.02c0.37-0.62,0.73-0.93,1.08-0.93c0.37,0,0.6,0.11,0.68,0.33c0.08,0.22,0.12,0.67,0.12,1.36
		v14.17c0,0.53-0.01,0.88-0.04,1.07c-0.02,0.18-0.11,0.33-0.26,0.45c-0.15,0.12-0.37,0.17-0.65,0.17c-0.47,0-0.76-0.27-0.88-0.83
		c-1.31-9.81-5.88-14.72-13.72-14.72c-2.68,0-4.9,0.9-6.65,2.69c-1.75,1.79-2.63,3.96-2.63,6.49c0,2.06,0.63,3.92,1.89,5.6
		s2.97,2.78,5.11,3.3l9.01,2.16c3.07,0.71,5.63,2.41,7.69,5.08c2.06,2.67,3.09,5.74,3.09,9.22c0,4-1.32,7.44-3.95,10.33
		s-6,4.34-10.1,4.34c-2.9,0-5.47-0.49-7.71-1.45s-3.96-2.13-5.17-3.5c-0.97,1.57-1.77,2.79-2.41,3.67l-0.21,0.35
		c-0.38,0.62-0.74,0.93-1.1,0.93c-0.38,0-0.6-0.12-0.67-0.34C1489.01,847.71,1488.98,847.26,1488.98,846.59z"/>
	<path class="st4" d="M1549.85,845.8v-9.29c0-0.53,0.01-0.88,0.04-1.07c0.02-0.18,0.11-0.34,0.25-0.48s0.36-0.21,0.64-0.21
		c0.33,0,0.56,0.07,0.7,0.21c0.13,0.14,0.24,0.47,0.34,1c0.68,3.24,1.78,5.72,3.3,7.43c1.52,1.71,3.67,2.57,6.43,2.57
		c2.64,0,4.62-0.58,5.95-1.76c1.33-1.17,1.99-2.72,1.99-4.65c0-3.44-2.44-5.6-7.33-6.47c-2.82-0.57-4.81-1.05-5.98-1.43
		c-1.17-0.38-2.27-0.99-3.3-1.84c-2.02-1.65-3.03-3.65-3.03-5.99s0.89-4.37,2.67-6.09c1.78-1.72,4.64-2.58,8.58-2.58
		c2.64,0,4.85,0.67,6.64,2c0.53-0.41,0.93-0.79,1.2-1.14c0.67-0.57,1.18-0.86,1.52-0.86c0.42,0,0.66,0.12,0.74,0.36
		c0.07,0.24,0.11,0.69,0.11,1.36v7.08c0,0.53-0.01,0.88-0.04,1.07c-0.02,0.18-0.11,0.34-0.27,0.46s-0.4,0.19-0.73,0.19
		c-0.59,0-0.9-0.22-0.93-0.65c-0.37-5.69-3.12-8.53-8.25-8.53c-2.77,0-4.78,0.53-6.02,1.6s-1.86,2.32-1.86,3.77
		c0,0.8,0.19,1.51,0.57,2.12c0.38,0.61,0.81,1.09,1.31,1.45c0.49,0.36,1.2,0.7,2.12,1.03c0.92,0.33,1.66,0.56,2.22,0.67
		c0.56,0.11,1.38,0.29,2.46,0.52c3.76,0.71,6.43,1.84,8.01,3.37c1.97,1.97,2.96,4.21,2.96,6.71c0,2.77-0.94,5.09-2.82,6.96
		c-1.88,1.88-4.71,2.81-8.5,2.81c-3.05,0-5.64-1.01-7.77-3.03c-0.27,0.28-0.5,0.53-0.71,0.78c-0.2,0.24-0.34,0.41-0.42,0.5
		c-0.08,0.09-0.13,0.17-0.15,0.22s-0.06,0.11-0.1,0.15c-0.95,0.92-1.53,1.38-1.76,1.38c-0.38,0-0.61-0.12-0.68-0.36
		C1549.89,846.92,1549.85,846.47,1549.85,845.8z"/>
	<path class="st4" d="M1576.57,818.57v-1.55c2.15-0.09,3.95-0.9,5.38-2.42c1.43-1.52,2.4-3.23,2.89-5.11s0.76-3.91,0.81-6.09h1.75
		v12.96h10.08v2.2h-10.08v19.59c0,5.07,1.58,7.61,4.75,7.61c1.35,0,2.48-0.69,3.37-2.08c0.89-1.39,1.34-3.32,1.34-5.8v-3.89h1.75
		v4.02c0,2.54-0.58,4.76-1.75,6.66c-1.17,1.9-2.91,2.85-5.23,2.85c-0.85,0-1.69-0.11-2.53-0.33s-1.8-0.61-2.89-1.17
		c-1.09-0.56-1.97-1.54-2.65-2.92c-0.68-1.39-1.01-3.09-1.01-5.11v-19.43H1576.57z"/>
	<path class="st4" d="M1604.77,818.57v-2.2l10.35-0.76v23.41c0,1.13,0.05,2.01,0.14,2.67s0.33,1.36,0.71,2.12
		c0.38,0.76,1.01,1.31,1.9,1.65c0.88,0.34,2.04,0.52,3.46,0.52c2.55,0,4.61-1.04,6.19-3.13c1.57-2.09,2.36-4.68,2.36-7.78v-12.57
		c0-1.74-0.31-2.83-0.93-3.27c-0.62-0.44-2.14-0.65-4.57-0.65v-2.2l10.35-0.76v24.97c0,1.74,0.3,2.83,0.91,3.28
		c0.61,0.45,2.14,0.67,4.59,0.67v2.2l-10.14,0.79v-6.36c-1.97,4.22-5,6.34-9.08,6.36c-2.06,0-3.8-0.26-5.21-0.79
		c-1.41-0.53-2.47-1.12-3.18-1.77c-0.71-0.65-1.25-1.61-1.63-2.87c-0.38-1.26-0.59-2.28-0.64-3.06c-0.05-0.78-0.07-1.93-0.07-3.44
		v-10.56c0-3.19-0.23-5.06-0.69-5.62C1609.12,818.85,1607.52,818.57,1604.77,818.57z"/>
	<path class="st4" d="M1644.01,831.58c0-4.46,1.56-8.24,4.68-11.34c3.12-3.09,6.79-4.64,11-4.64c3.58,0,6.53,1.45,8.87,4.36v-15.23
		c0-1.74-0.31-2.83-0.92-3.27s-2.14-0.65-4.58-0.65v-2.2l10.15-0.76v42.72c0,1.74,0.3,2.84,0.92,3.28c0.61,0.45,2.14,0.67,4.59,0.67
		v2.2l-10.35,0.79v-4.71c-2.43,3.12-5.57,4.69-9.42,4.71c-4.04,0-7.53-1.55-10.49-4.65
		C1645.49,839.78,1644.01,836.01,1644.01,831.58z M1649.86,831.65c0,4.37,0.68,7.64,2.03,9.8c1.88,3.01,4.34,4.52,7.39,4.52
		c3.49,0,6.26-1.64,8.32-4.92c0.53-0.8,0.78-1.67,0.76-2.62v-14.46c0-0.94-0.25-1.8-0.76-2.58c-1.93-2.82-4.46-4.24-7.6-4.24
		c-3.28,0-5.94,1.5-7.98,4.5C1650.58,823.9,1649.86,827.23,1649.86,831.65z"/>
	<path class="st4" d="M1682.63,831.22c0-4.42,1.42-8.21,4.26-11.35s6.3-4.71,10.39-4.71c4.13,0,7.26,1.33,9.41,4
		s3.22,5.92,3.22,9.75c0,0.74-0.09,1.19-0.28,1.33c-0.18,0.14-0.68,0.22-1.48,0.22h-19.67c0,4.8,0.71,8.33,2.13,10.58
		c1.97,3.15,4.62,4.72,7.94,4.72c0.46,0,0.97-0.05,1.52-0.14c0.55-0.09,1.4-0.34,2.53-0.74c1.13-0.4,2.19-1.14,3.19-2.22
		c0.99-1.08,1.78-2.47,2.36-4.17c0.13-0.67,0.42-0.99,0.86-0.96c0.59,0,0.89,0.28,0.89,0.83c0,0.41-0.22,1.08-0.67,2.01
		s-1.09,1.94-1.94,3.04c-0.85,1.1-2.09,2.06-3.73,2.88c-1.64,0.82-3.44,1.24-5.42,1.24c-4.13,0-7.74-1.56-10.85-4.69
		C1684.19,839.7,1682.63,835.83,1682.63,831.22z M1688.55,828.92h16.71c0-0.98-0.09-2.02-0.26-3.12c-0.17-1.1-0.5-2.41-1-3.93
		s-1.31-2.76-2.46-3.72c-1.15-0.96-2.57-1.44-4.26-1.44c-0.76,0-1.54,0.16-2.36,0.48s-1.71,0.87-2.7,1.65
		c-0.99,0.78-1.82,2.05-2.51,3.81C1689.03,824.4,1688.64,826.49,1688.55,828.92z"/>
	<path class="st4" d="M1714.17,846.73v-2.2c2.51,0,4.06-0.15,4.64-0.46c0.58-0.31,0.87-1.22,0.87-2.73v-18.86
		c0-1.74-0.31-2.83-0.92-3.26c-0.61-0.44-2.14-0.65-4.58-0.65v-2.2l9.91-0.76l0,7.39c2.21-4.93,5.69-7.39,10.44-7.39
		c3.54,0,6,0.87,7.4,2.61c1.03,1.17,1.66,2.41,1.88,3.71c0.22,1.31,0.33,3.65,0.33,7.04v13.43c0.05,0.98,0.45,1.59,1.2,1.8
		c0.76,0.22,2.19,0.33,4.3,0.33v2.2c-4.79-0.14-7.43-0.21-7.91-0.21c-0.37,0-3.02,0.07-7.94,0.21v-2.2c2.5,0,4.04-0.15,4.62-0.46
		c0.58-0.31,0.88-1.22,0.88-2.73v-16.38c0-2.38-0.37-4.28-1.1-5.68c-0.74-1.41-2.11-2.11-4.14-2.11c-2.44,0-4.63,1.02-6.58,3.06
		s-2.93,4.77-2.93,8.21v12.91c0,1.51,0.29,2.42,0.88,2.73c0.59,0.31,2.13,0.46,4.62,0.46v2.2c-4.8-0.14-7.43-0.21-7.89-0.21
		C1721.76,846.52,1719.11,846.59,1714.17,846.73z"/>
	<path class="st4" d="M1750.38,818.57v-1.55c2.16-0.09,3.95-0.9,5.38-2.42s2.4-3.23,2.89-5.11c0.49-1.88,0.76-3.91,0.81-6.09h1.75
		v12.96h10.08v2.2h-10.08v19.59c0,5.07,1.58,7.61,4.75,7.61c1.35,0,2.48-0.69,3.37-2.08c0.89-1.39,1.34-3.32,1.34-5.8v-3.89h1.75
		v4.02c0,2.54-0.58,4.76-1.75,6.66c-1.17,1.9-2.91,2.85-5.23,2.85c-0.85,0-1.69-0.11-2.53-0.33s-1.8-0.61-2.89-1.17
		c-1.09-0.56-1.97-1.54-2.65-2.92c-0.68-1.39-1.01-3.09-1.01-5.11v-19.43H1750.38z"/>
</g>
<rect x="381.39" y="150.93" transform="matrix(0.866 0.5 -0.5 0.866 172.559 -159.1418)" class="st5" width="3.71" height="183"/>
<polygon class="st5" points="442.07,136.38 409.74,157.62 444.31,175 "/>
<g>
	<path class="st4" d="M927.97,259.91v-4.75c0.66,0,2.48,0.05,5.46,0.15c2.98,0.1,5.02,0.15,6.11,0.15c5.01,0,9.2-0.1,12.56-0.3v4.75
		h-5.49l12.86,27.64l11.77-25.32c0.33-0.66,0.49-1.07,0.49-1.24c0-0.72-1.48-1.09-4.45-1.09c-0.13,0-0.26,0-0.4,0v-4.75
		c4.25,0.2,7.32,0.3,9.2,0.3c2.77,0,5.44-0.1,8.01-0.3v4.75c-2.97,0-4.87,0.15-5.71,0.44c-0.84,0.3-1.44,0.86-1.8,1.68l-16.81,36.05
		c-0.76,1.62-2.01,2.42-3.76,2.42c-1.75,0-3.02-0.84-3.81-2.52l-17.75-38.08H927.97z"/>
</g>
<g>
	<path class="st4" d="M927.96,237.58h44.21l-8.02-5.96l2.07-1.13l13.75,7.8v1.31l-13.75,7.8l-2.07-1.13l8.02-5.98h-44.21V237.58z"/>
</g>
<g>
	<path class="st4" d="M1535.94,182.22v-1.77c4.58,0,8.05-1.21,10.41-3.63c0.6,0,0.96,0.07,1.06,0.22c0.1,0.15,0.16,0.56,0.16,1.25
		v31.78c0,1.12,0.29,1.86,0.86,2.21c0.58,0.35,2.12,0.53,4.63,0.53h1.87v1.77c-1.33-0.11-4.39-0.17-9.19-0.17
		c-4.8,0-7.85,0.06-9.16,0.17v-1.77h1.8c2.38,0,3.86-0.17,4.43-0.51c0.57-0.34,0.86-1.08,0.86-2.23v-29.35
		C1541.61,181.72,1539.04,182.22,1535.94,182.22z"/>
</g>
<g>
	<path class="st4" d="M1534.29,286.67c0-0.68,0.03-1.13,0.1-1.33c0.06-0.2,0.24-0.46,0.53-0.78l10.79-12.12
		c3.98-4.47,5.97-8.66,5.97-12.56c0-2.52-0.66-4.69-1.98-6.49c-1.32-1.8-3.2-2.71-5.62-2.71c-1.65,0-3.17,0.5-4.56,1.51
		c-1.39,1.01-2.41,2.4-3.05,4.19c0.11-0.04,0.35-0.06,0.73-0.06c0.92,0,1.64,0.3,2.16,0.89c0.52,0.6,0.77,1.29,0.77,2.1
		c0,1.02-0.32,1.78-0.96,2.28c-0.64,0.49-1.28,0.74-1.92,0.74c-0.25,0-0.55-0.03-0.88-0.08c-0.34-0.06-0.77-0.35-1.29-0.88
		c-0.53-0.53-0.79-1.27-0.79-2.22c0-2.63,0.99-5,2.98-7.09s4.49-3.15,7.53-3.15c3.43,0,6.28,1.03,8.54,3.08
		c2.26,2.05,3.38,4.68,3.38,7.89c0,1.13-0.17,2.2-0.51,3.23c-0.34,1.02-0.73,1.94-1.18,2.73c-0.45,0.79-1.28,1.83-2.49,3.1
		c-1.21,1.27-2.3,2.36-3.27,3.27s-2.55,2.32-4.72,4.24l-5.96,5.85h10.15c3.3,0,5.08-0.15,5.33-0.44c0.37-0.53,0.78-2.21,1.24-5.04
		h1.41l-1.57,9.85H1534.29z"/>
</g>
<g>
	<path class="st4" d="M1500.73,304.79V156.71h18.46v3.26h-10.4v141.57h10.4v3.26H1500.73z"/>
</g>
<g>
	<path class="st4" d="M1568.54,301.59h10.4V160.02h-10.4v-3.26H1587v148.08h-18.46V301.59z"/>
</g>
<g>
</g>
<g>
</g>
<g>
</g>
<g>
</g>
<g>
</g>
<g>
</g>
<g>
</g>
<g>
</g>
<g>
</g>
<g>
</g>
<g>
</g>
<g>
</g>
<g>
</g>
<g>
</g>
<g>
</g>
</svg>
