<svg width="640" height="360" viewBox="0 0 640 360" fill="none" xmlns="http://www.w3.org/2000/svg">
<g clip-path="url(#clip0_1328_2750)">
<path d="M640 0H0V360H640V0Z" fill="black"/>
<g clip-path="url(#clip1_1328_2750)">
<path d="M0 20H640" stroke="#505050" stroke-width="1.5"/>
<path d="M0 60H640" stroke="#505050" stroke-width="1.5"/>
<path d="M0 100H640" stroke="#505050" stroke-width="1.5"/>
<path d="M0 140H640" stroke="#505050" stroke-width="1.5"/>
<path d="M0 180H640" stroke="#505050" stroke-width="1.5"/>
<path d="M0 220H640" stroke="#505050" stroke-width="1.5"/>
<path d="M0 260H640" stroke="#505050" stroke-width="1.5"/>
<path d="M0 300H640" stroke="#505050" stroke-width="1.5"/>
<path d="M0 340H640" stroke="#505050" stroke-width="1.5"/>
<path d="M0 0V360" stroke="#505050" stroke-width="1.5"/>
<path d="M40 0V360" stroke="#505050" stroke-width="1.5"/>
<path d="M80 0V360" stroke="#505050" stroke-width="1.5"/>
<path d="M120 0V360" stroke="#505050" stroke-width="1.5"/>
<path d="M160 0V360" stroke="#505050" stroke-width="1.5"/>
<path d="M200 0V360" stroke="#505050" stroke-width="1.5"/>
<path d="M240 0V360" stroke="#505050" stroke-width="1.5"/>
<path d="M280 0V360" stroke="#505050" stroke-width="1.5"/>
<path d="M320 0V360" stroke="#505050" stroke-width="1.5"/>
<path d="M360 0V360" stroke="#505050" stroke-width="1.5"/>
<path d="M400 0V360" stroke="#505050" stroke-width="1.5"/>
<path d="M440 0V360" stroke="#505050" stroke-width="1.5"/>
<path d="M480 0V360" stroke="#505050" stroke-width="1.5"/>
<path d="M520 0V360" stroke="#505050" stroke-width="1.5"/>
<path d="M560 0V360" stroke="#505050" stroke-width="1.5"/>
<path d="M600 0V360" stroke="#505050" stroke-width="1.5"/>
<path d="M640 0V360" stroke="#505050" stroke-width="1.5"/>
</g>
<path d="M0 180H640" stroke="#C0C0C0" stroke-width="1.5"/>
<path d="M320 0V360" stroke="#C0C0C0" stroke-width="1.5"/>
<path d="M640 0H0V360H640V0Z" stroke="#404040" stroke-width="2"/>
<path d="M425 173.25L440 180L425 186.75L428 180L425 173.25Z" fill="#92D192"/>
<path d="M320 180H436" stroke="#92D192" stroke-width="1.5"/>
<path d="M433.25 115L440 100L446.75 115L440 112L433.25 115Z" fill="#F2777A"/>
<path d="M440 180V104" stroke="#F2777A" stroke-width="1.5"/>
<path d="M423.775 102.704L440 100L431.263 113.937L430.015 106.656L423.775 102.704Z" fill="#F0F0F0"/>
<path d="M320 180L436.672 102.219" stroke="#F0F0F0" stroke-width="1.5"/>
<rect x="445.079" y="37.5137" width="48.725" height="56.87" fill="black"/>
<g clip-path="url(#clip2_1328_2750)">
<path d="M454.109 90.3735V41.5238H459.586V42.7863H455.371V89.111H459.586V90.3735H454.109Z" fill="#F0F0F0"/>
<path d="M466.937 47.3577C466.571 47.3577 466.286 47.2423 466.082 47.0115C465.878 46.7808 465.77 46.4821 465.756 46.1156C465.756 45.369 466.082 44.7038 466.734 44.1201C467.385 43.5363 468.173 43.2445 469.096 43.2445C469.571 43.2445 469.869 43.2513 469.992 43.2648C470.996 43.4277 471.763 43.7875 472.293 44.3441C472.822 44.9006 473.093 45.5047 473.107 46.1563C473.107 46.8622 472.876 47.5478 472.415 48.2129C471.953 48.8781 471.315 49.36 470.501 49.6587L470.44 49.6994C470.44 49.713 470.501 49.7333 470.623 49.7605C470.745 49.7876 470.942 49.8487 471.213 49.9437C471.485 50.0388 471.743 50.1813 471.987 50.3714C473.1 51.0908 473.657 52.0411 473.657 53.2221C473.657 54.2945 473.236 55.2312 472.394 56.0321C471.553 56.8331 470.487 57.2335 469.197 57.2335C468.111 57.2335 467.175 56.9417 466.387 56.3579C465.6 55.7742 465.206 55.0344 465.206 54.1384C465.206 53.7583 465.329 53.4529 465.573 53.2221C465.817 52.9913 466.123 52.8692 466.489 52.8556C466.869 52.8556 467.182 52.9778 467.426 53.2221C467.67 53.4665 467.792 53.7719 467.792 54.1384C467.792 54.2877 467.772 54.4235 467.731 54.5457C467.691 54.6678 467.643 54.7764 467.589 54.8715C467.535 54.9665 467.46 55.0479 467.365 55.1158C467.27 55.1837 467.188 55.238 467.12 55.2787C467.053 55.3194 466.985 55.3466 466.917 55.3602C466.849 55.3737 466.795 55.3941 466.754 55.4213L466.673 55.4416C467.365 56.0525 468.206 56.3579 469.197 56.3579C469.944 56.3579 470.507 55.9982 470.888 55.2787C471.118 54.8307 471.234 54.1452 471.234 53.2221V52.8149C471.234 51.5252 470.799 50.6632 469.931 50.2288C469.727 50.1474 469.313 50.0999 468.688 50.0863L467.833 50.0659L467.772 50.0252C467.745 49.9845 467.731 49.8759 467.731 49.6994C467.731 49.455 467.786 49.3329 467.894 49.3329C468.274 49.3329 468.668 49.2989 469.075 49.2311C469.537 49.1632 469.958 48.8781 470.338 48.3758C470.718 47.8736 470.908 47.1134 470.908 46.0952V45.9323C470.908 45.1586 470.67 44.6223 470.195 44.3237C469.897 44.1336 469.578 44.0386 469.238 44.0386C468.804 44.0386 468.403 44.1133 468.037 44.2626C467.67 44.4119 467.412 44.568 467.263 44.7309C467.114 44.8938 467.039 44.9753 467.039 44.9753H467.1C467.141 44.9889 467.195 45.0024 467.263 45.016C467.331 45.0296 467.399 45.0635 467.467 45.1178C467.535 45.1721 467.616 45.2196 467.711 45.2604C467.806 45.3011 467.874 45.3758 467.915 45.4844C467.955 45.593 468.01 45.6948 468.078 45.7898C468.145 45.8848 468.166 46.0206 468.139 46.197C468.139 46.4957 468.044 46.7604 467.854 46.9912C467.663 47.222 467.358 47.3441 466.937 47.3577Z" fill="#F0F0F0"/>
<path d="M466.571 76.5575C466.204 76.5575 465.912 76.4353 465.695 76.191C465.478 75.9466 465.369 75.648 465.369 75.295C465.369 74.3312 465.729 73.4964 466.449 72.7905C467.168 72.0846 468.064 71.7316 469.136 71.7316C470.372 71.7316 471.403 72.1117 472.231 72.8719C473.06 73.6321 473.48 74.6163 473.494 75.8245C473.494 76.4082 473.358 76.9648 473.087 77.4942C472.815 78.0236 472.489 78.4852 472.109 78.8788C471.729 79.2725 471.186 79.7748 470.48 80.3857C469.992 80.8065 469.313 81.4309 468.444 82.259L467.243 83.3993L468.79 83.4197C470.921 83.4197 472.055 83.3857 472.191 83.3179C472.286 83.2907 472.449 82.6866 472.679 81.5056V81.4445H473.494V81.5056C473.48 81.5463 473.392 82.164 473.229 83.3586C473.066 84.5532 472.965 85.1776 472.924 85.2319V85.293H465.369V84.9061V84.6618C465.369 84.5668 465.41 84.465 465.491 84.3564C465.573 84.2478 465.777 84.0102 466.102 83.6437C466.496 83.2093 466.835 82.8292 467.12 82.5034C467.243 82.3676 467.473 82.1165 467.813 81.75C468.152 81.3834 468.383 81.1323 468.505 80.9965C468.627 80.8608 468.824 80.6368 469.096 80.3246C469.367 80.0124 469.557 79.7816 469.666 79.6323C469.774 79.4829 469.931 79.2793 470.134 79.0214C470.338 78.7635 470.48 78.5463 470.562 78.3698C470.643 78.1933 470.745 77.9965 470.867 77.7793C470.989 77.5621 471.078 77.3449 471.132 77.1277C471.186 76.9105 471.234 76.7068 471.274 76.5168C471.315 76.3267 471.336 76.1028 471.336 75.8448C471.336 74.9896 471.105 74.2498 470.643 73.6253C470.182 73.0009 469.523 72.6886 468.668 72.6886C468.22 72.6886 467.826 72.804 467.487 73.0348C467.148 73.2656 466.91 73.4896 466.774 73.7068C466.639 73.924 466.571 74.0529 466.571 74.0937C466.571 74.1072 466.605 74.114 466.673 74.114C466.917 74.114 467.168 74.209 467.426 74.3991C467.684 74.5891 467.813 74.9014 467.813 75.3358C467.813 75.6751 467.704 75.9602 467.487 76.191C467.27 76.4218 466.964 76.5439 466.571 76.5575Z" fill="#F0F0F0"/>
<path d="M479.277 42.7863V41.5238H484.754V90.3735H479.277V89.111H483.492V42.7863H479.277Z" fill="#F0F0F0"/>
</g>
</g>
<defs>
<clipPath id="clip0_1328_2750">
<rect width="640" height="360" fill="white"/>
</clipPath>
<clipPath id="clip1_1328_2750">
<rect width="640" height="360" fill="white"/>
</clipPath>
<clipPath id="clip2_1328_2750">
<rect width="40.725" height="48.87" fill="white" transform="translate(449.079 41.5137)"/>
</clipPath>
</defs>
</svg>
