<svg width="640" height="360" viewBox="0 0 640 360" fill="none" xmlns="http://www.w3.org/2000/svg">
<g clip-path="url(#clip0_1328_1997)">
<path d="M640 0H0V360H640V0Z" fill="white"/>
<g clip-path="url(#clip1_1328_1997)">
<path d="M0 20H640" stroke="#C0C0C0" stroke-width="1.5"/>
<path d="M0 60H640" stroke="#C0C0C0" stroke-width="1.5"/>
<path d="M0 100H640" stroke="#C0C0C0" stroke-width="1.5"/>
<path d="M0 140H640" stroke="#C0C0C0" stroke-width="1.5"/>
<path d="M0 180H640" stroke="#C0C0C0" stroke-width="1.5"/>
<path d="M0 220H640" stroke="#C0C0C0" stroke-width="1.5"/>
<path d="M0 260H640" stroke="#C0C0C0" stroke-width="1.5"/>
<path d="M0 300H640" stroke="#C0C0C0" stroke-width="1.5"/>
<path d="M0 340H640" stroke="#C0C0C0" stroke-width="1.5"/>
<path d="M0 0V360" stroke="#C0C0C0" stroke-width="1.5"/>
<path d="M40 0V360" stroke="#C0C0C0" stroke-width="1.5"/>
<path d="M80 0V360" stroke="#C0C0C0" stroke-width="1.5"/>
<path d="M120 0V360" stroke="#C0C0C0" stroke-width="1.5"/>
<path d="M160 0V360" stroke="#C0C0C0" stroke-width="1.5"/>
<path d="M200 0V360" stroke="#C0C0C0" stroke-width="1.5"/>
<path d="M240 0V360" stroke="#C0C0C0" stroke-width="1.5"/>
<path d="M280 0V360" stroke="#C0C0C0" stroke-width="1.5"/>
<path d="M320 0V360" stroke="#C0C0C0" stroke-width="1.5"/>
<path d="M360 0V360" stroke="#C0C0C0" stroke-width="1.5"/>
<path d="M400 0V360" stroke="#C0C0C0" stroke-width="1.5"/>
<path d="M440 0V360" stroke="#C0C0C0" stroke-width="1.5"/>
<path d="M480 0V360" stroke="#C0C0C0" stroke-width="1.5"/>
<path d="M520 0V360" stroke="#C0C0C0" stroke-width="1.5"/>
<path d="M560 0V360" stroke="#C0C0C0" stroke-width="1.5"/>
<path d="M600 0V360" stroke="#C0C0C0" stroke-width="1.5"/>
<path d="M640 0V360" stroke="#C0C0C0" stroke-width="1.5"/>
</g>
<path d="M0 180H640" stroke="#808080" stroke-width="1.5"/>
<path d="M320 0V360" stroke="#808080" stroke-width="1.5"/>
<path d="M640 0H0V360H640V0Z" stroke="#C0C0C0" stroke-width="2"/>
<path d="M425 173.25L440 180L425 186.75L428 180L425 173.25Z" fill="#40A839"/>
<path d="M320 180H436" stroke="#40A839" stroke-width="1.5"/>
<path d="M433.25 115L440 100L446.75 115L440 112L433.25 115Z" fill="#C74440"/>
<path d="M440 180V104" stroke="#C74440" stroke-width="1.5"/>
<path d="M423.775 102.704L440 100L431.263 113.937L430.015 106.656L423.775 102.704Z" fill="#202020"/>
<path d="M320 180L436.672 102.219" stroke="#202020" stroke-width="1.5"/>
<rect x="367.389" y="167.531" width="25.1" height="24.938" fill="white"/>
<g clip-path="url(#clip2_1328_1997)">
<path d="M373.974 178.595C373.608 178.595 373.323 178.48 373.119 178.249C372.915 178.019 372.807 177.72 372.793 177.354C372.793 176.607 373.119 175.942 373.77 175.359C374.422 174.775 375.209 174.483 376.132 174.483C376.607 174.483 376.905 174.49 377.028 174.504C378.032 174.666 378.799 175.026 379.328 175.583C379.857 176.139 380.129 176.743 380.142 177.394C380.142 178.1 379.912 178.785 379.45 179.45C378.989 180.115 378.351 180.597 377.537 180.896L377.475 180.936C377.475 180.95 377.537 180.97 377.659 180.998C377.781 181.025 377.978 181.086 378.249 181.181C378.52 181.276 378.778 181.418 379.023 181.608C380.135 182.328 380.692 183.278 380.692 184.458C380.692 185.53 380.271 186.467 379.43 187.268C378.588 188.068 377.523 188.469 376.234 188.469C375.148 188.469 374.212 188.177 373.424 187.593C372.637 187.01 372.244 186.27 372.244 185.374C372.244 184.994 372.366 184.689 372.61 184.458C372.854 184.228 373.16 184.105 373.526 184.092C373.906 184.092 374.218 184.214 374.463 184.458C374.707 184.703 374.829 185.008 374.829 185.374C374.829 185.524 374.809 185.659 374.768 185.781C374.727 185.904 374.68 186.012 374.625 186.107C374.571 186.202 374.497 186.284 374.402 186.351C374.307 186.419 374.225 186.474 374.157 186.514C374.089 186.555 374.022 186.582 373.954 186.596C373.886 186.609 373.832 186.63 373.791 186.657L373.709 186.677C374.402 187.288 375.243 187.593 376.234 187.593C376.98 187.593 377.543 187.234 377.923 186.514C378.154 186.066 378.269 185.381 378.269 184.458V184.051C378.269 182.762 377.835 181.9 376.967 181.466C376.763 181.384 376.349 181.337 375.725 181.323L374.87 181.303L374.809 181.262C374.782 181.221 374.768 181.113 374.768 180.936C374.768 180.692 374.822 180.57 374.931 180.57C375.311 180.57 375.704 180.536 376.112 180.468C376.573 180.4 376.994 180.115 377.374 179.613C377.754 179.111 377.944 178.351 377.944 177.333V177.17C377.944 176.397 377.706 175.861 377.231 175.562C376.933 175.372 376.614 175.277 376.274 175.277C375.84 175.277 375.44 175.352 375.073 175.501C374.707 175.65 374.449 175.806 374.3 175.969C374.15 176.132 374.076 176.214 374.076 176.214H374.137C374.178 176.227 374.232 176.241 374.3 176.254C374.368 176.268 374.435 176.302 374.503 176.356C374.571 176.41 374.653 176.458 374.748 176.499C374.843 176.539 374.91 176.614 374.951 176.723C374.992 176.831 375.046 176.933 375.114 177.028C375.182 177.123 375.202 177.259 375.175 177.435C375.175 177.734 375.08 177.998 374.89 178.229C374.7 178.46 374.395 178.582 373.974 178.595Z" fill="#40A839"/>
<path d="M383.094 182.178C383.094 182.11 383.142 181.934 383.237 181.649C383.332 181.364 383.474 181.031 383.664 180.651C383.854 180.271 384.119 179.925 384.458 179.613C384.797 179.301 385.164 179.111 385.557 179.043H385.924C386.385 179.043 386.765 179.193 387.064 179.491C387.362 179.79 387.518 180.21 387.532 180.753C387.518 181.011 387.491 181.194 387.45 181.303C387.41 181.411 387.111 182.239 386.555 183.786C385.849 185.632 385.496 186.731 385.496 187.084C385.496 187.356 385.605 187.491 385.822 187.491C386.08 187.491 386.338 187.376 386.595 187.145C386.948 186.765 387.254 186.134 387.512 185.252C387.552 185.089 387.586 184.994 387.613 184.967C387.64 184.94 387.735 184.92 387.898 184.906H388.02C388.156 184.906 388.244 184.906 388.285 184.906C388.326 184.906 388.373 184.926 388.428 184.967C388.482 185.008 388.502 185.055 388.489 185.11C388.489 185.245 388.421 185.503 388.285 185.883C388.149 186.263 387.892 186.698 387.512 187.186C387.132 187.675 386.697 188.007 386.209 188.184C386.1 188.211 385.937 188.224 385.72 188.224C385.123 188.224 384.695 188.055 384.438 187.715C384.18 187.376 384.051 186.996 384.051 186.575C384.051 186.209 384.383 185.15 385.048 183.4C385.713 181.649 386.053 180.584 386.066 180.204C386.066 180.041 386.046 179.932 386.005 179.878C385.964 179.824 385.863 179.79 385.7 179.776C385.32 179.803 385.001 180.014 384.743 180.407C384.485 180.801 384.295 181.221 384.173 181.669C384.051 182.117 383.969 182.341 383.929 182.341C383.915 182.355 383.786 182.361 383.542 182.361H383.216C383.135 182.28 383.094 182.219 383.094 182.178Z" fill="#40A839"/>
<path d="M382.386 176.295L385.175 173.567L385.337 173.73C387.102 175.413 387.984 176.268 387.984 176.295L387.455 176.885C387.427 176.872 387.034 176.533 386.274 175.868L385.195 174.931L384.075 175.888C383.899 176.037 383.722 176.193 383.546 176.356C383.37 176.519 383.227 176.648 383.118 176.743L382.956 176.865C382.928 176.892 382.827 176.797 382.65 176.58L382.386 176.295Z" fill="#40A839"/>
</g>
<rect x="427.531" y="126.786" width="24.938" height="28.646" fill="white"/>
<g clip-path="url(#clip3_1328_1997)">
<path d="M433.75 138.544C433.384 138.544 433.092 138.422 432.875 138.178C432.657 137.934 432.549 137.635 432.549 137.282C432.549 136.318 432.909 135.484 433.628 134.778C434.347 134.072 435.243 133.719 436.315 133.719C437.55 133.719 438.582 134.099 439.41 134.859C440.238 135.619 440.658 136.603 440.672 137.811C440.672 138.395 440.536 138.951 440.265 139.481C439.993 140.01 439.667 140.472 439.287 140.865C438.907 141.259 438.365 141.761 437.659 142.372C437.17 142.792 436.492 143.417 435.623 144.245L434.422 145.385L435.969 145.405C438.1 145.405 439.233 145.371 439.369 145.303C439.464 145.276 439.627 144.672 439.857 143.491V143.43H440.672V143.491C440.658 143.532 440.57 144.15 440.407 145.344C440.244 146.538 440.143 147.163 440.102 147.217V147.278H432.549V146.891V146.647C432.549 146.552 432.59 146.45 432.671 146.341C432.752 146.233 432.956 145.995 433.282 145.629C433.675 145.195 434.015 144.815 434.3 144.489C434.422 144.353 434.653 144.102 434.992 143.736C435.331 143.369 435.562 143.118 435.684 142.982C435.806 142.847 436.003 142.623 436.274 142.311C436.546 141.998 436.736 141.768 436.844 141.618C436.953 141.469 437.109 141.265 437.313 141.008C437.516 140.75 437.659 140.533 437.74 140.356C437.822 140.18 437.923 139.983 438.046 139.766C438.168 139.549 438.256 139.331 438.31 139.114C438.365 138.897 438.412 138.694 438.453 138.504C438.494 138.314 438.514 138.09 438.514 137.832C438.514 136.977 438.283 136.237 437.822 135.613C437.36 134.988 436.702 134.676 435.847 134.676C435.399 134.676 435.005 134.792 434.666 135.022C434.327 135.253 434.089 135.477 433.954 135.694C433.818 135.911 433.75 136.04 433.75 136.081C433.75 136.095 433.784 136.101 433.852 136.101C434.096 136.101 434.347 136.196 434.605 136.386C434.863 136.576 434.992 136.888 434.992 137.323C434.992 137.662 434.883 137.947 434.666 138.178C434.449 138.409 434.144 138.531 433.75 138.544Z" fill="#C74440"/>
<path d="M443.237 141.496C443.237 141.496 443.237 141.476 443.237 141.435C443.237 141.394 443.278 141.272 443.359 141.069C443.441 140.865 443.576 140.607 443.766 140.295C443.956 139.983 444.173 139.671 444.418 139.359C444.662 139.046 444.981 138.795 445.375 138.605C445.768 138.415 446.175 138.307 446.596 138.28C447.044 138.307 447.451 138.456 447.818 138.727C448.184 138.999 448.367 139.474 448.367 140.153V140.519L447.37 144.55C447.22 145.12 447.051 145.778 446.861 146.525C446.671 147.271 446.535 147.828 446.454 148.194C446.372 148.56 446.318 148.751 446.291 148.764C446.06 149.443 445.632 150.053 445.008 150.596C444.384 151.139 443.651 151.417 442.809 151.431C442.185 151.431 441.717 151.275 441.405 150.963C441.174 150.732 441.059 150.454 441.059 150.128C441.059 149.748 441.181 149.449 441.425 149.232C441.669 149.015 441.948 148.9 442.26 148.886C442.545 148.886 442.748 148.968 442.871 149.131C442.993 149.293 443.061 149.449 443.074 149.599C443.074 150.033 442.884 150.386 442.504 150.657L442.606 150.678H442.911H442.932C443.637 150.678 444.214 150.047 444.662 148.784C444.703 148.662 445.062 147.251 445.741 144.55C446.42 141.849 446.779 140.404 446.82 140.214C446.834 140.132 446.84 139.976 446.84 139.745C446.84 139.583 446.834 139.46 446.82 139.379C446.806 139.298 446.766 139.223 446.698 139.155C446.63 139.087 446.528 139.046 446.392 139.033C446.04 139.033 445.666 139.216 445.273 139.583C445.028 139.827 444.825 140.105 444.662 140.417C444.499 140.729 444.37 140.994 444.275 141.211C444.18 141.428 444.119 141.55 444.092 141.578C444.065 141.605 443.936 141.618 443.705 141.618H443.359C443.278 141.537 443.237 141.476 443.237 141.435V141.496Z" fill="#C74440"/>
<path d="M442.28 135.552L445.069 132.824L445.232 132.987C446.996 134.669 447.879 135.524 447.879 135.552L447.349 136.142C447.322 136.128 446.929 135.789 446.169 135.124L445.09 134.188L443.97 135.144C443.793 135.294 443.617 135.45 443.441 135.613C443.264 135.776 443.122 135.905 443.013 136L442.85 136.122C442.823 136.149 442.721 136.054 442.545 135.837L442.28 135.552Z" fill="#C74440"/>
</g>
<rect x="445.079" y="39.0226" width="48.725" height="56.87" fill="white"/>
<g clip-path="url(#clip4_1328_1997)">
<path d="M454.109 91.8824V43.0328H459.586V44.2953H455.371V90.62H459.586V91.8824H454.109Z" fill="#202020"/>
<path d="M466.937 48.8667C466.571 48.8667 466.286 48.7513 466.082 48.5205C465.878 48.2897 465.77 47.9911 465.756 47.6246C465.756 46.8779 466.082 46.2128 466.734 45.629C467.385 45.0453 468.173 44.7535 469.096 44.7535C469.571 44.7535 469.869 44.7602 469.992 44.7738C470.996 44.9367 471.763 45.2965 472.293 45.853C472.822 46.4096 473.094 47.0137 473.107 47.6653C473.107 48.3712 472.876 49.0567 472.415 49.7219C471.953 50.3871 471.315 50.869 470.501 51.1676L470.44 51.2084C470.44 51.2219 470.501 51.2423 470.623 51.2695C470.745 51.2966 470.942 51.3577 471.213 51.4527C471.485 51.5477 471.743 51.6903 471.987 51.8803C473.1 52.5998 473.657 53.5501 473.657 54.7311C473.657 55.8035 473.236 56.7402 472.394 57.5411C471.553 58.342 470.487 58.7425 469.198 58.7425C468.112 58.7425 467.175 58.4506 466.388 57.8669C465.6 57.2832 465.206 56.5433 465.206 55.6474C465.206 55.2673 465.329 54.9619 465.573 54.7311C465.817 54.5003 466.123 54.3781 466.489 54.3646C466.869 54.3646 467.182 54.4867 467.426 54.7311C467.67 54.9754 467.793 55.2809 467.793 55.6474C467.793 55.7967 467.772 55.9325 467.731 56.0546C467.691 56.1768 467.643 56.2854 467.589 56.3804C467.535 56.4755 467.46 56.5569 467.365 56.6248C467.27 56.6927 467.188 56.747 467.121 56.7877C467.053 56.8284 466.985 56.8556 466.917 56.8691C466.849 56.8827 466.795 56.9031 466.754 56.9302L466.673 56.9506C467.365 57.5615 468.207 57.8669 469.198 57.8669C469.944 57.8669 470.508 57.5072 470.888 56.7877C471.118 56.3397 471.234 55.6542 471.234 54.7311V54.3238C471.234 53.0342 470.799 52.1722 469.931 51.7378C469.727 51.6563 469.313 51.6088 468.688 51.5953L467.833 51.5749L467.772 51.5342C467.745 51.4934 467.731 51.3848 467.731 51.2084C467.731 50.964 467.786 50.8418 467.894 50.8418C468.274 50.8418 468.668 50.8079 469.075 50.74C469.537 50.6722 469.958 50.3871 470.338 49.8848C470.718 49.3825 470.908 48.6223 470.908 47.6042V47.4413C470.908 46.6675 470.67 46.1313 470.195 45.8327C469.897 45.6426 469.578 45.5476 469.238 45.5476C468.804 45.5476 468.403 45.6223 468.037 45.7716C467.67 45.9209 467.412 46.077 467.263 46.2399C467.114 46.4028 467.039 46.4843 467.039 46.4843H467.1C467.141 46.4978 467.195 46.5114 467.263 46.525C467.331 46.5386 467.399 46.5725 467.467 46.6268C467.535 46.6811 467.616 46.7286 467.711 46.7693C467.806 46.8101 467.874 46.8847 467.915 46.9933C467.955 47.1019 468.01 47.2037 468.078 47.2988C468.145 47.3938 468.166 47.5295 468.139 47.706C468.139 48.0047 468.044 48.2694 467.854 48.5002C467.664 48.7309 467.358 48.8531 466.937 48.8667Z" fill="#202020"/>
<path d="M466.571 78.0665C466.204 78.0665 465.912 77.9443 465.695 77.7C465.478 77.4556 465.369 77.157 465.369 76.804C465.369 75.8402 465.729 75.0053 466.449 74.2994C467.168 73.5935 468.064 73.2406 469.136 73.2406C470.372 73.2406 471.403 73.6207 472.232 74.3809C473.06 75.1411 473.48 76.1253 473.494 77.3334C473.494 77.9172 473.358 78.4737 473.087 79.0032C472.815 79.5326 472.489 79.9941 472.109 80.3878C471.729 80.7815 471.186 81.2838 470.48 81.8946C469.992 82.3155 469.313 82.9399 468.444 83.768L467.243 84.9083L468.79 84.9287C470.922 84.9287 472.055 84.8947 472.191 84.8268C472.286 84.7997 472.449 84.1956 472.68 83.0146V82.9535H473.494V83.0146C473.48 83.0553 473.392 83.673 473.229 84.8676C473.066 86.0622 472.965 86.6866 472.924 86.7409V86.802H465.369V86.4151V86.1708C465.369 86.0757 465.41 85.9739 465.492 85.8653C465.573 85.7567 465.777 85.5192 466.102 85.1526C466.496 84.7182 466.835 84.3381 467.121 84.0123C467.243 83.8766 467.474 83.6255 467.813 83.2589C468.152 82.8924 468.383 82.6413 468.505 82.5055C468.627 82.3698 468.824 82.1458 469.096 81.8336C469.367 81.5213 469.557 81.2906 469.666 81.1412C469.774 80.9919 469.931 80.7883 470.134 80.5304C470.338 80.2724 470.48 80.0552 470.562 79.8788C470.643 79.7023 470.745 79.5054 470.867 79.2882C470.989 79.071 471.078 78.8538 471.132 78.6366C471.186 78.4194 471.234 78.2158 471.275 78.0258C471.315 77.8357 471.336 77.6117 471.336 77.3538C471.336 76.4986 471.105 75.7587 470.643 75.1343C470.182 74.5098 469.523 74.1976 468.668 74.1976C468.22 74.1976 467.826 74.313 467.487 74.5438C467.148 74.7746 466.91 74.9985 466.774 75.2157C466.639 75.4329 466.571 75.5619 466.571 75.6026C466.571 75.6162 466.605 75.623 466.673 75.623C466.917 75.623 467.168 75.718 467.426 75.9081C467.684 76.0981 467.813 76.4103 467.813 76.8447C467.813 77.1841 467.704 77.4692 467.487 77.7C467.27 77.9307 466.964 78.0529 466.571 78.0665Z" fill="#202020"/>
<path d="M479.277 44.2953V43.0328H484.754V91.8824H479.277V90.62H483.492V44.2953H479.277Z" fill="#202020"/>
</g>
</g>
<defs>
<clipPath id="clip0_1328_1997">
<rect width="640" height="360" fill="white"/>
</clipPath>
<clipPath id="clip1_1328_1997">
<rect width="640" height="360" fill="white"/>
</clipPath>
<clipPath id="clip2_1328_1997">
<rect width="17.1" height="16.938" fill="white" transform="translate(371.389 171.531)"/>
</clipPath>
<clipPath id="clip3_1328_1997">
<rect width="16.938" height="20.646" fill="white" transform="translate(431.531 130.786)"/>
</clipPath>
<clipPath id="clip4_1328_1997">
<rect width="40.725" height="48.87" fill="white" transform="translate(449.079 43.0226)"/>
</clipPath>
</defs>
</svg>
