<?xml version="1.0" encoding="utf-8"?>
<!-- Generator: Adobe Illustrator 25.2.3, SVG Export Plug-In . SVG Version: 6.00 Build 0)  -->
<svg version="1.1" id="Layer_1" xmlns="http://www.w3.org/2000/svg" xmlns:xlink="http://www.w3.org/1999/xlink" x="0px" y="0px"
	 viewBox="0 0 1920 1080" style="enable-background:new 0 0 1920 1080;" xml:space="preserve">
<style type="text/css">
	.st0{opacity:0.6;}
	.st1{opacity:0.55;}
	.st2{fill:#005454;}
	.st3{opacity:0.43;}
	.st4{opacity:0.44;}
	.st5{fill:#15E3FF;}
	.st6{opacity:0.49;}
	.st7{opacity:0.54;}
	.st8{fill:#FFFFFF;}
	.st9{fill:#FF50BC;}
	.st10{fill:#52D2FF;}
	.st11{fill:#FF50BC;stroke:#000000;stroke-miterlimit:10;}
	.st12{fill:#52D2FF;stroke:#000000;stroke-miterlimit:10;}
	.st13{opacity:0.61;fill:#EF54E8;stroke:#000000;stroke-miterlimit:10;}
	.st14{opacity:0.61;fill:#8F4EF4;stroke:#000000;stroke-miterlimit:10;}
	.st15{opacity:0.61;fill:#5533FF;stroke:#000000;stroke-miterlimit:10;}
	.st16{opacity:0.61;fill:#2EAFFF;stroke:#000000;stroke-miterlimit:10;}
</style>
<rect width="1919" height="1079"/>
<g id="grid" class="st0">
	<g>
		<rect x="0.5" y="0.5" width="1919" height="1079"/>
		<path d="M1919,1v1078H1V1H1919 M1920,0H0v1080h1920V0L1920,0z"/>
	</g>
	<g class="st1">
		<rect x="1.3" y="68.9" class="st2" width="1915.9" height="1.4"/>
	</g>
	<g class="st1">
		<rect x="1.3" y="201.9" class="st2" width="1915.9" height="1.4"/>
	</g>
	<g class="st1">
		<rect x="3.1" y="338.9" class="st2" width="1915.9" height="1.4"/>
	</g>
	<g class="st1">
		<rect x="2.2" y="475.9" class="st2" width="1915.9" height="1.4"/>
	</g>
	<g class="st1">
		<rect y="614.9" class="st2" width="1915.9" height="1.4"/>
	</g>
	<g class="st1">
		<rect y="750.9" class="st2" width="1915.9" height="1.4"/>
	</g>
	<g class="st1">
		<rect x="1.8" y="886.9" class="st2" width="1915.9" height="1.4"/>
	</g>
	<g class="st1">
		<rect x="0.9" y="1021.9" class="st2" width="1915.9" height="1.4"/>
	</g>
	<g class="st3">
		<rect x="84" y="-0.2" class="st2" width="1.4" height="1080"/>
	</g>
	<g class="st3">
		<rect x="220" y="-0.2" class="st2" width="1.4" height="1080"/>
	</g>
	<g class="st3">
		<rect x="351" y="-1.2" class="st2" width="1.4" height="1080"/>
	</g>
	<g class="st3">
		<rect x="483" y="-0.7" class="st2" width="1.4" height="1080"/>
	</g>
	<g class="st3">
		<rect x="616" y="-0.7" class="st2" width="1.4" height="1080"/>
	</g>
	<g class="st3">
		<rect x="753" y="-1.7" class="st2" width="1.4" height="1080"/>
	</g>
	<g class="st3">
		<rect x="890" y="-1.2" class="st2" width="1.4" height="1080"/>
	</g>
	<g class="st3">
		<rect x="1029" y="0.1" class="st2" width="1.4" height="1080"/>
	</g>
	<g class="st3">
		<rect x="1165" y="0.1" class="st2" width="1.4" height="1080"/>
	</g>
	<g class="st3">
		<rect x="1301" y="-0.9" class="st2" width="1.4" height="1080"/>
	</g>
	<g class="st3">
		<rect x="1436" y="-0.4" class="st2" width="1.4" height="1080"/>
	</g>
	<g class="st3">
		<rect x="1572" y="-0.4" class="st2" width="1.4" height="1080"/>
	</g>
	<g class="st3">
		<rect x="1698" y="-1.4" class="st2" width="1.4" height="1080"/>
	</g>
	<g class="st3">
		<rect x="1835" y="-0.9" class="st2" width="1.4" height="1080"/>
	</g>
	<g class="st4">
		<rect x="1098" class="st5" width="1.4" height="1080"/>
	</g>
	<g class="st4">
		<rect x="1232.2" class="st5" width="2.8" height="1080"/>
	</g>
	<g class="st4">
		<rect x="1367.8" class="st5" width="1.4" height="1080"/>
	</g>
	<g class="st4">
		<rect x="1502" class="st5" width="2.8" height="1080"/>
	</g>
	<g class="st4">
		<rect x="1630.7" y="1" class="st5" width="1.4" height="1080"/>
	</g>
	<g class="st4">
		<rect x="1764.9" y="1" class="st5" width="2.8" height="1080"/>
	</g>
	<g class="st4">
		<rect x="1904.6" class="st5" width="1.4" height="1080"/>
	</g>
	<g class="st4">
		<rect x="817.6" y="0.6" class="st5" width="1.4" height="1080"/>
	</g>
	<g class="st4">
		<rect x="682.8" y="0.6" class="st5" width="2.8" height="1080"/>
	</g>
	<g class="st4">
		<rect x="549.3" y="0.6" class="st5" width="1.4" height="1080"/>
	</g>
	<g class="st4">
		<rect x="414.5" y="0.6" class="st5" width="2.8" height="1080"/>
	</g>
	<g class="st4">
		<rect x="288" y="-0.4" class="st5" width="1.4" height="1080"/>
	</g>
	<g class="st4">
		<rect x="153.1" y="-0.4" class="st5" width="2.8" height="1080"/>
	</g>
	<g class="st4">
		<rect x="15.6" y="0.6" class="st5" width="1.4" height="1080"/>
	</g>
	<g class="st6">
		<rect x="1" y="684.8" class="st5" width="1919" height="1.4"/>
	</g>
	<g class="st6">
		<rect x="1" y="819" class="st5" width="1919" height="2.8"/>
	</g>
	<g class="st6">
		<rect x="1" y="954.6" class="st5" width="1919" height="1.4"/>
	</g>
	<g class="st6">
		<rect y="404.4" class="st5" width="1919" height="1.4"/>
	</g>
	<g class="st6">
		<rect y="269.6" class="st5" width="1919" height="2.8"/>
	</g>
	<g class="st6">
		<rect y="136.1" class="st5" width="1919" height="1.4"/>
	</g>
	<g class="st7">
		<rect x="959" class="st8" width="3" height="1080"/>
	</g>
	<g class="st7">
		<rect y="541.9" class="st8" width="1920" height="4.1"/>
	</g>
</g>
<g>
	<path class="st9" d="M353.1,376.5v-2.3h2c2.8,0,4.5-0.2,5.2-0.7c0.6-0.5,1-1.4,1-2.9v-39.4c0-1.4-0.3-2.4-1-2.8
		c-0.7-0.5-2.4-0.7-5.2-0.7h-2v-2.3c1.8,0.1,5.6,0.2,11.5,0.2c5.9,0,9.6-0.1,11.4-0.2v2.3H374c-2.8,0-4.5,0.2-5.2,0.7
		c-0.6,0.5-1,1.4-1,2.8v39.4c0,1.4,0.3,2.4,1,2.9c0.6,0.5,2.4,0.7,5.2,0.7h1.9v2.3c-1.8-0.1-5.6-0.2-11.4-0.2
		C358.6,376.3,354.8,376.3,353.1,376.5z"/>
	<path class="st9" d="M380.4,376.5v-2.3c2.7,0,4.3-0.2,4.9-0.5c0.6-0.3,0.9-1.3,0.9-2.9v-20.1c0-1.9-0.3-3-1-3.5
		c-0.6-0.5-2.3-0.7-4.9-0.7v-2.3l10.5-0.8l0,7.9c2.3-5.2,6-7.9,11.1-7.9c3.8,0,6.4,0.9,7.9,2.8c1.1,1.2,1.8,2.6,2,3.9
		c0.2,1.4,0.3,3.9,0.3,7.5v14.3c0,1,0.5,1.7,1.3,1.9c0.8,0.2,2.3,0.3,4.6,0.3v2.3c-5.1-0.1-7.9-0.2-8.4-0.2c-0.4,0-3.2,0.1-8.4,0.2
		v-2.3c2.7,0,4.3-0.2,4.9-0.5c0.6-0.3,0.9-1.3,0.9-2.9v-17.4c0-2.5-0.4-4.5-1.2-6c-0.8-1.5-2.2-2.2-4.4-2.2c-2.6,0-4.9,1.1-7,3.3
		c-2.1,2.2-3.1,5.1-3.1,8.7v13.7c0,1.6,0.3,2.6,0.9,2.9c0.6,0.3,2.3,0.5,4.9,0.5v2.3c-5.1-0.1-7.9-0.2-8.4-0.2
		C388.5,376.3,385.7,376.3,380.4,376.5z"/>
	<path class="st9" d="M421.7,388.7c2.7,0,4.3-0.2,4.9-0.5c0.6-0.3,0.9-1.3,0.9-2.9v-35c0-1.7-0.3-2.7-0.9-3.1
		c-0.6-0.4-2.3-0.6-4.9-0.6v-2.3l10.8-0.8v4.9c3-3.3,6.5-4.9,10.5-4.9c4.2,0,7.9,1.6,11,4.9s4.6,7.3,4.6,12c0,4.7-1.6,8.8-4.9,12.1
		s-7.2,4.9-11.8,4.9c-2.5,0-4.6-0.6-6.2-1.9c-1.7-1.3-2.7-2.4-3-3.3v0.7v12.5c0,1.6,0.3,2.6,1,2.9c0.6,0.3,2.3,0.5,4.9,0.5v2.3
		c-5.2-0.1-8.1-0.2-8.4-0.2c-0.5,0-3.3,0.1-8.4,0.2V388.7z M432.7,368c0,0.8,0.1,1.3,0.2,1.5c0.1,0.3,0.4,0.8,0.9,1.6
		c2,3,4.6,4.5,7.8,4.5c0,0,0,0,0.1,0c2.9,0,5.4-1.5,7.5-4.4c2.2-2.9,3.3-6.6,3.3-11c0-4.2-1-7.8-3-10.7c-2-2.9-4.3-4.4-7.1-4.4
		c-2,0-3.8,0.5-5.5,1.6c-1.7,1-3.1,2.5-4.2,4.4V368z"/>
	<path class="st9" d="M463.5,346.5v-2.3l11-0.8v24.9c0,1.2,0,2.1,0.1,2.8c0.1,0.7,0.3,1.4,0.8,2.3c0.4,0.8,1.1,1.4,2,1.8
		c0.9,0.4,2.2,0.5,3.7,0.5c2.7,0,4.9-1.1,6.6-3.3c1.7-2.2,2.5-5,2.5-8.3v-13.4c0-1.9-0.3-3-1-3.5c-0.7-0.5-2.3-0.7-4.9-0.7v-2.3
		l11-0.8V370c0,1.9,0.3,3,1,3.5c0.6,0.5,2.3,0.7,4.9,0.7v2.3l-10.8,0.8v-6.8c-2.1,4.5-5.3,6.7-9.7,6.8c-2.2,0-4-0.3-5.5-0.8
		s-2.6-1.2-3.4-1.9c-0.8-0.7-1.3-1.7-1.7-3.1c-0.4-1.3-0.6-2.4-0.7-3.3c0-0.8-0.1-2-0.1-3.7v-11.2c0-3.4-0.2-5.4-0.7-6
		C468.1,346.8,466.4,346.5,463.5,346.5z"/>
	<path class="st9" d="M504.1,346.5v-1.6c2.3-0.1,4.2-1,5.7-2.6c1.5-1.6,2.5-3.4,3.1-5.4c0.5-2,0.8-4.2,0.9-6.5h1.9v13.8h10.7v2.3
		h-10.7v20.8c0,5.4,1.7,8.1,5,8.1c1.4,0,2.6-0.7,3.6-2.2c1-1.5,1.4-3.5,1.4-6.2v-4.1h1.9v4.3c0,2.7-0.6,5.1-1.9,7.1
		c-1.2,2-3.1,3-5.6,3c-0.9,0-1.8-0.1-2.7-0.3c-0.9-0.2-1.9-0.6-3.1-1.2c-1.2-0.6-2.1-1.6-2.8-3.1c-0.7-1.5-1.1-3.3-1.1-5.4v-20.7
		H504.1z"/>
	<path class="st9" d="M558,346.5v-2.3c2.2,0.1,4.7,0.2,7.3,0.2c1,0,3.7-0.1,8.2-0.2v2.3c-2.9,0-4.3,0.6-4.3,1.9
		c0,0.2,0.1,0.6,0.4,1.3l8.4,20.9l7.6-19.1c0.3-0.9,0.4-1.5,0.4-1.8c0-0.9-0.3-1.6-0.9-2.2c-0.6-0.6-1.5-1-2.7-1v-2.3
		c2.5,0.1,4.7,0.2,6.5,0.2c2,0,3.9-0.1,5.6-0.2v2.3c-1.5,0-2.8,0.3-3.8,1c-1,0.7-1.7,1.3-2.1,1.9c-0.3,0.6-0.7,1.3-1,2.1l-9.8,24.4
		c-0.4,1-0.9,1.4-1.6,1.4c-0.4,0-0.7-0.1-0.9-0.3c-0.2-0.2-0.4-0.6-0.6-1.2L564,349.3c-0.5-1.2-1-2-1.7-2.3
		C561.7,346.7,560.3,346.5,558,346.5z"/>
	<path class="st9" d="M596.1,360c0-4.7,1.5-8.7,4.5-12.1c3-3.3,6.7-5,11-5c4.4,0,7.7,1.4,10,4.3c2.3,2.8,3.4,6.3,3.4,10.4
		c0,0.8-0.1,1.3-0.3,1.4c-0.2,0.2-0.7,0.2-1.6,0.2h-20.9c0,5.1,0.8,8.9,2.3,11.3c2.1,3.3,4.9,5,8.4,5c0.5,0,1,0,1.6-0.1
		c0.6-0.1,1.5-0.4,2.7-0.8c1.2-0.4,2.3-1.2,3.4-2.4c1.1-1.1,1.9-2.6,2.5-4.4c0.1-0.7,0.4-1.1,0.9-1c0.6,0,1,0.3,1,0.9
		c0,0.4-0.2,1.2-0.7,2.1c-0.5,1-1.2,2.1-2.1,3.2c-0.9,1.2-2.2,2.2-4,3.1c-1.7,0.9-3.7,1.3-5.8,1.3c-4.4,0-8.2-1.7-11.5-5
		C597.7,369,596.1,364.9,596.1,360z M602.4,357.5h17.8c0-1-0.1-2.2-0.3-3.3c-0.2-1.2-0.5-2.6-1.1-4.2c-0.5-1.6-1.4-2.9-2.6-4
		c-1.2-1-2.7-1.5-4.5-1.5c-0.8,0-1.6,0.2-2.5,0.5c-0.9,0.3-1.8,0.9-2.9,1.8c-1,0.8-1.9,2.2-2.7,4S602.5,355,602.4,357.5z"/>
	<path class="st9" d="M634.5,372.4c-3.2-3.3-4.8-7.3-4.8-12.1s1.6-8.8,4.7-12.3c3.1-3.4,7-5.1,11.6-5.1c3,0,5.6,0.7,7.9,2.2
		c2.2,1.5,3.4,3.4,3.4,5.9c0,1.1-0.3,2-0.9,2.6c-0.6,0.6-1.4,0.9-2.4,0.9c-1,0-1.8-0.3-2.4-1c-0.6-0.6-0.9-1.5-0.9-2.5
		c0-0.4,0.1-0.9,0.2-1.3c0.1-0.4,0.5-0.9,1-1.4c0.5-0.5,1.3-0.7,2.2-0.8c-1.8-1.8-4.4-2.8-7.8-2.8c0,0-0.1,0-0.1,0
		c-2.5,0-4.9,1.2-6.9,3.6c-2.1,2.4-3.1,6.3-3.1,11.8c0,2.9,0.3,5.3,1,7.4s1.6,3.7,2.8,4.7c1.1,1.1,2.3,1.9,3.4,2.4
		c1.1,0.5,2.2,0.8,3.3,0.8c4.8,0,8.1-2.6,9.7-7.9c0.1-0.5,0.4-0.7,0.9-0.7c0.7,0,1,0.2,1,0.7c0,0.2-0.1,0.7-0.3,1.3
		c-0.2,0.6-0.6,1.5-1.2,2.5c-0.6,1-1.3,1.9-2.2,2.8c-0.9,0.9-2,1.6-3.5,2.2s-3.2,1-5,1C641.5,377.3,637.7,375.7,634.5,372.4z"/>
	<path class="st9" d="M661.9,346.5v-1.6c2.3-0.1,4.2-1,5.7-2.6c1.5-1.6,2.5-3.4,3.1-5.4c0.5-2,0.8-4.2,0.9-6.5h1.9v13.8h10.7v2.3
		h-10.7v20.8c0,5.4,1.7,8.1,5,8.1c1.4,0,2.6-0.7,3.6-2.2c1-1.5,1.4-3.5,1.4-6.2v-4.1h1.9v4.3c0,2.7-0.6,5.1-1.9,7.1
		c-1.2,2-3.1,3-5.6,3c-0.9,0-1.8-0.1-2.7-0.3c-0.9-0.2-1.9-0.6-3.1-1.2c-1.2-0.6-2.1-1.6-2.8-3.1c-0.7-1.5-1.1-3.3-1.1-5.4v-20.7
		H661.9z"/>
	<path class="st9" d="M696.5,372.5c-3.3-3.2-5-7.2-5-12c0-4.8,1.6-8.9,4.8-12.3c3.2-3.5,7.2-5.2,11.8-5.2c4.5,0,8.4,1.7,11.7,5.2
		c3.3,3.5,4.9,7.6,4.9,12.4c0,4.7-1.6,8.7-4.9,12c-3.3,3.3-7.2,4.9-11.7,4.9C703.7,377.3,699.8,375.7,696.5,372.5z M697.8,359.9
		c0,4.9,0.6,8.4,1.9,10.6c2,3.3,4.8,5,8.5,5c1.9,0,3.6-0.5,5.1-1.5c1.5-1,2.7-2.3,3.6-4c1.1-2.2,1.6-5.6,1.6-10.1
		c0-4.8-0.7-8.3-2-10.4c-2-3.3-4.8-4.9-8.4-4.9c-1.6,0-3.2,0.4-4.8,1.3s-2.8,2.1-3.8,3.8C698.4,351.8,697.8,355.2,697.8,359.9z"/>
	<path class="st9" d="M729,376.5v-2.3c2.7,0,4.3-0.2,4.9-0.5c0.6-0.3,0.9-1.3,0.9-2.9v-20.1c0-1.9-0.3-3-1-3.5s-2.3-0.7-4.9-0.7
		v-2.3l10.4-0.8v8.2c0.7-2.1,1.8-4,3.3-5.7c1.5-1.7,3.5-2.5,5.9-2.5c1.6,0,2.9,0.5,4,1.4c1,0.9,1.6,2,1.6,3.2c0,1.1-0.3,1.9-1,2.5
		c-0.7,0.5-1.4,0.8-2.2,0.8c-0.9,0-1.7-0.3-2.3-0.9c-0.6-0.6-0.9-1.4-0.9-2.4c0-0.6,0.1-1.2,0.4-1.6c0.3-0.5,0.5-0.8,0.7-1
		c0.2-0.2,0.4-0.3,0.5-0.3c-0.1,0-0.4-0.1-0.8-0.1c-2.8,0-4.9,1.4-6.5,4.1c-1.6,2.7-2.4,6.1-2.4,10v11.5c0,1.4,0.3,2.4,0.9,2.8
		c0.6,0.5,2.2,0.7,4.8,0.7h1.6v2.3c-2-0.1-5.2-0.2-9.5-0.2c-0.6,0-1.4,0-2.3,0s-2,0.1-3.3,0.1C730.7,376.5,729.7,376.5,729,376.5z"
		/>
</g>
<g>
	<path class="st10" d="M974.8,222c0-7.8,2.5-14.4,7.5-19.8c5-5.4,10.9-8.1,17.8-8.1c7,0,12.9,2.7,17.9,8.2c5,5.4,7.5,12,7.5,19.8
		c0,7.7-2.5,14.1-7.5,19.5c-5,5.3-10.9,8-17.9,8c-6.8,0-12.8-2.6-17.8-7.9S974.8,229.7,974.8,222z M982.6,220.9
		c0,4.7,0.6,8.9,1.7,12.5s2.6,6.4,4.4,8.4s3.7,3.4,5.6,4.4c1.9,0.9,3.9,1.4,5.9,1.4c1.9,0,3.8-0.5,5.7-1.4c1.9-0.9,3.8-2.3,5.6-4.3
		c1.8-1.9,3.3-4.7,4.4-8.3s1.7-7.8,1.7-12.6c0-3.7-0.4-7.1-1.2-10.1c-0.8-3-1.8-5.4-3-7.2c-1.2-1.8-2.7-3.3-4.3-4.5
		c-1.6-1.2-3.1-2-4.6-2.5c-1.5-0.5-3-0.7-4.4-0.7c-1.8,0-3.6,0.4-5.5,1.2c-1.9,0.8-3.7,2.1-5.6,3.8s-3.4,4.3-4.6,7.8
		S982.6,216.2,982.6,220.9z"/>
	<path class="st10" d="M1032.1,217.3v-2.4l11.2-0.8v25.3c0,1.2,0,2.2,0.1,2.9c0.1,0.7,0.4,1.5,0.8,2.3s1.1,1.4,2.1,1.8
		c1,0.4,2.2,0.6,3.7,0.6c2.8,0,5-1.1,6.7-3.4c1.7-2.3,2.6-5.1,2.6-8.4v-13.6c0-1.9-0.3-3.1-1-3.5c-0.7-0.5-2.3-0.7-4.9-0.7v-2.4
		l11.2-0.8v27c0,1.9,0.3,3.1,1,3.5c0.7,0.5,2.3,0.7,5,0.7v2.4l-11,0.9v-6.9c-2.1,4.6-5.4,6.9-9.8,6.9c-2.2,0-4.1-0.3-5.6-0.9
		c-1.5-0.6-2.7-1.2-3.4-1.9c-0.8-0.7-1.4-1.7-1.8-3.1c-0.4-1.4-0.6-2.5-0.7-3.3c0-0.8-0.1-2.1-0.1-3.7v-11.4c0-3.4-0.2-5.5-0.7-6.1
		C1036.8,217.6,1035.1,217.3,1032.1,217.3z"/>
	<path class="st10" d="M1073.4,217.3v-1.7c2.3-0.1,4.3-1,5.8-2.6c1.5-1.6,2.6-3.5,3.1-5.5s0.8-4.2,0.9-6.6h1.9v14h10.9v2.4h-10.9
		v21.2c0,5.5,1.7,8.2,5.1,8.2c1.5,0,2.7-0.8,3.6-2.3c1-1.5,1.5-3.6,1.5-6.3V234h1.9v4.3c0,2.7-0.6,5.2-1.9,7.2s-3.1,3.1-5.7,3.1
		c-0.9,0-1.8-0.1-2.7-0.4c-0.9-0.2-1.9-0.7-3.1-1.3c-1.2-0.6-2.1-1.7-2.9-3.2c-0.7-1.5-1.1-3.3-1.1-5.5v-21H1073.4z"/>
	<path class="st10" d="M1103.6,260.1c2.7,0,4.4-0.2,5-0.5c0.6-0.3,0.9-1.3,0.9-2.9v-35.6c0-1.7-0.3-2.7-0.9-3.2
		c-0.6-0.4-2.3-0.6-5-0.6v-2.4l11-0.8v5c3.1-3.3,6.6-5,10.7-5c4.3,0,8,1.7,11.2,5s4.7,7.4,4.7,12.2c0,4.8-1.7,8.9-5,12.3
		s-7.3,5-12,5c-2.5,0-4.6-0.6-6.3-1.9c-1.7-1.3-2.7-2.4-3-3.4v0.7v12.7c0,1.6,0.3,2.6,1,2.9c0.6,0.3,2.3,0.5,5,0.5v2.4
		c-5.3-0.2-8.2-0.2-8.6-0.2c-0.5,0-3.3,0.1-8.6,0.2V260.1z M1114.8,239.1c0,0.8,0.1,1.3,0.2,1.6c0.1,0.3,0.4,0.8,0.9,1.6
		c2,3.1,4.6,4.6,7.9,4.6c0,0,0,0,0.1,0c2.9,0,5.5-1.5,7.7-4.5c2.2-3,3.3-6.7,3.3-11.2c0-4.3-1-7.9-3-10.9c-2-3-4.4-4.5-7.2-4.5
		c-2,0-3.8,0.5-5.6,1.6c-1.7,1.1-3.2,2.6-4.3,4.5V239.1z"/>
	<path class="st10" d="M1146.1,217.3v-2.4l11.2-0.8v25.3c0,1.2,0,2.2,0.1,2.9c0.1,0.7,0.4,1.5,0.8,2.3s1.1,1.4,2.1,1.8
		c1,0.4,2.2,0.6,3.7,0.6c2.8,0,5-1.1,6.7-3.4c1.7-2.3,2.6-5.1,2.6-8.4v-13.6c0-1.9-0.3-3.1-1-3.5c-0.7-0.5-2.3-0.7-4.9-0.7v-2.4
		l11.2-0.8v27c0,1.9,0.3,3.1,1,3.5s2.3,0.7,5,0.7v2.4l-11,0.9v-6.9c-2.1,4.6-5.4,6.9-9.8,6.9c-2.2,0-4.1-0.3-5.6-0.9
		c-1.5-0.6-2.7-1.2-3.4-1.9c-0.8-0.7-1.4-1.7-1.8-3.1c-0.4-1.4-0.6-2.5-0.7-3.3c0-0.8-0.1-2.1-0.1-3.7v-11.4c0-3.4-0.2-5.5-0.7-6.1
		C1150.8,217.6,1149.1,217.3,1146.1,217.3z"/>
	<path class="st10" d="M1187.4,217.3v-1.7c2.3-0.1,4.3-1,5.8-2.6c1.5-1.6,2.6-3.5,3.1-5.5c0.5-2,0.8-4.2,0.9-6.6h1.9v14h10.9v2.4
		h-10.9v21.2c0,5.5,1.7,8.2,5.1,8.2c1.5,0,2.7-0.8,3.6-2.3c1-1.5,1.5-3.6,1.5-6.3V234h1.9v4.3c0,2.7-0.6,5.2-1.9,7.2
		s-3.1,3.1-5.7,3.1c-0.9,0-1.8-0.1-2.7-0.4c-0.9-0.2-1.9-0.7-3.1-1.3c-1.2-0.6-2.1-1.7-2.9-3.2c-0.7-1.5-1.1-3.3-1.1-5.5v-21H1187.4
		z"/>
	<path class="st10" d="M1242.3,217.3v-2.4c2.3,0.1,4.7,0.2,7.4,0.2c1,0,3.7-0.1,8.3-0.2v2.4c-2.9,0-4.4,0.7-4.4,2
		c0,0.2,0.1,0.6,0.4,1.3l8.6,21.2l7.8-19.4c0.3-0.9,0.4-1.5,0.4-1.8c0-0.9-0.3-1.6-0.9-2.3s-1.5-1-2.8-1v-2.4
		c2.6,0.1,4.8,0.2,6.6,0.2c2.1,0,4-0.1,5.7-0.2v2.4c-1.5,0-2.8,0.3-3.9,1c-1.1,0.7-1.8,1.3-2.1,1.9c-0.3,0.6-0.7,1.3-1,2.2l-10,24.8
		c-0.4,1-0.9,1.5-1.6,1.5c-0.4,0-0.8-0.1-0.9-0.3c-0.2-0.2-0.4-0.6-0.7-1.2l-11-27c-0.5-1.3-1.1-2.1-1.7-2.4
		C1246,217.4,1244.6,217.3,1242.3,217.3z"/>
	<path class="st10" d="M1281,231c0-4.8,1.5-8.9,4.6-12.3c3.1-3.4,6.8-5.1,11.2-5.1c4.5,0,7.9,1.4,10.2,4.3c2.3,2.9,3.5,6.4,3.5,10.5
		c0,0.8-0.1,1.3-0.3,1.4s-0.7,0.2-1.6,0.2h-21.3c0,5.2,0.8,9,2.3,11.4c2.1,3.4,5,5.1,8.6,5.1c0.5,0,1,0,1.6-0.1
		c0.6-0.1,1.5-0.4,2.7-0.8c1.2-0.4,2.4-1.2,3.4-2.4c1.1-1.2,1.9-2.7,2.5-4.5c0.1-0.7,0.5-1.1,0.9-1c0.6,0,1,0.3,1,0.9
		c0,0.4-0.2,1.2-0.7,2.2c-0.5,1-1.2,2.1-2.1,3.3s-2.3,2.2-4,3.1c-1.8,0.9-3.7,1.3-5.9,1.3c-4.5,0-8.4-1.7-11.7-5.1
		C1282.6,240.1,1281,236,1281,231z M1287.4,228.5h18.1c0-1.1-0.1-2.2-0.3-3.4c-0.2-1.2-0.5-2.6-1.1-4.2c-0.5-1.6-1.4-3-2.7-4
		c-1.2-1-2.8-1.6-4.6-1.6c-0.8,0-1.7,0.2-2.5,0.5c-0.9,0.3-1.9,0.9-2.9,1.8c-1.1,0.8-2,2.2-2.7,4.1
		C1287.9,223.6,1287.5,225.9,1287.4,228.5z"/>
	<path class="st10" d="M1320.1,243.6c-3.2-3.4-4.8-7.4-4.8-12.3c0-4.8,1.6-9,4.8-12.5c3.2-3.5,7.1-5.2,11.8-5.2c3,0,5.7,0.7,8,2.2
		c2.3,1.5,3.4,3.5,3.4,6c0,1.1-0.3,2-0.9,2.6s-1.4,0.9-2.4,0.9c-1,0-1.9-0.3-2.5-1s-0.9-1.5-0.9-2.5c0-0.4,0.1-0.9,0.2-1.3
		c0.1-0.4,0.5-0.9,1-1.4c0.5-0.5,1.3-0.7,2.2-0.8c-1.8-1.9-4.4-2.8-7.9-2.8c0,0-0.1,0-0.1,0c-2.6,0-4.9,1.2-7.1,3.7
		c-2.1,2.4-3.2,6.4-3.2,12c0,2.9,0.4,5.4,1.1,7.6c0.7,2.1,1.6,3.7,2.8,4.8c1.2,1.1,2.3,1.9,3.5,2.4c1.1,0.5,2.3,0.8,3.4,0.8
		c4.9,0,8.2-2.7,9.9-8c0.1-0.5,0.4-0.7,0.9-0.7c0.7,0,1,0.2,1,0.7c0,0.2-0.1,0.7-0.3,1.3c-0.2,0.6-0.6,1.5-1.2,2.5
		c-0.6,1-1.3,2-2.2,2.8c-0.9,0.9-2.1,1.6-3.6,2.3s-3.2,1-5.1,1C1327.2,248.6,1323.3,246.9,1320.1,243.6z"/>
	<path class="st10" d="M1347.9,217.3v-1.7c2.3-0.1,4.3-1,5.8-2.6c1.5-1.6,2.6-3.5,3.1-5.5c0.5-2,0.8-4.2,0.9-6.6h1.9v14h10.9v2.4
		h-10.9v21.2c0,5.5,1.7,8.2,5.1,8.2c1.5,0,2.7-0.8,3.6-2.3c1-1.5,1.5-3.6,1.5-6.3V234h1.9v4.3c0,2.7-0.6,5.2-1.9,7.2
		s-3.1,3.1-5.7,3.1c-0.9,0-1.8-0.1-2.7-0.4c-0.9-0.2-1.9-0.7-3.1-1.3c-1.2-0.6-2.1-1.7-2.9-3.2c-0.7-1.5-1.1-3.3-1.1-5.5v-21H1347.9
		z"/>
	<path class="st10" d="M1383.2,243.6c-3.4-3.3-5-7.4-5-12.2c0-4.8,1.6-9,4.9-12.5c3.3-3.5,7.3-5.3,12-5.3c4.6,0,8.6,1.8,11.9,5.3
		c3.3,3.5,5,7.7,5,12.6c0,4.8-1.7,8.8-5,12.2c-3.3,3.3-7.3,5-11.9,5C1390.5,248.6,1386.5,246.9,1383.2,243.6z M1384.4,230.8
		c0,4.9,0.6,8.5,1.9,10.8c2,3.4,4.9,5.1,8.7,5.1c1.9,0,3.6-0.5,5.2-1.5c1.6-1,2.8-2.4,3.7-4.1c1.1-2.2,1.7-5.7,1.7-10.3
		c0-4.9-0.7-8.4-2-10.6c-2-3.3-4.8-5-8.6-5c-1.6,0-3.3,0.4-4.9,1.3c-1.6,0.9-2.9,2.1-3.9,3.8C1385,222.6,1384.4,226.1,1384.4,230.8z
		"/>
	<path class="st10" d="M1416.2,247.7v-2.4c2.7,0,4.4-0.2,5-0.5c0.6-0.3,0.9-1.3,0.9-3v-20.4c0-1.9-0.3-3.1-1-3.5
		c-0.7-0.5-2.3-0.7-5-0.7v-2.4l10.6-0.8v8.4c0.7-2.2,1.8-4.1,3.4-5.8c1.5-1.7,3.5-2.5,6-2.5c1.6,0,3,0.5,4,1.4
		c1.1,0.9,1.6,2,1.6,3.3c0,1.1-0.3,2-1,2.5s-1.4,0.8-2.2,0.8c-0.9,0-1.7-0.3-2.3-0.9c-0.6-0.6-0.9-1.4-0.9-2.4
		c0-0.6,0.1-1.2,0.4-1.7c0.3-0.5,0.5-0.8,0.8-1c0.2-0.2,0.4-0.3,0.6-0.3c-0.1,0-0.4-0.1-0.8-0.1c-2.8,0-5,1.4-6.6,4.2
		s-2.4,6.2-2.4,10.1v11.7c0,1.5,0.3,2.4,0.9,2.9s2.2,0.7,4.9,0.7h1.6v2.4c-2-0.2-5.3-0.2-9.7-0.2c-0.6,0-1.4,0-2.4,0
		c-1,0-2.1,0.1-3.3,0.1C1417.9,247.7,1416.9,247.7,1416.2,247.7z"/>
</g>
<rect x="759.3" y="268.3" transform="matrix(-0.3109 0.9505 -0.9505 -0.3109 1454.7855 -96.7593)" class="st11" width="6.4" height="421.5"/>
<polygon class="st11" points="545.6,408.5 571.4,437.3 583.5,400.5 "/>
<rect x="1085.9" y="233.6" transform="matrix(-0.7081 -0.7062 0.7062 -0.7081 1566.392 1479.865)" class="st12" width="6.4" height="365"/>
<polygon class="st12" points="1234.2,270.7 1196.9,280.7 1224.3,308 "/>
<rect x="858.9" y="342.7" transform="matrix(-0.6046 0.7966 -0.7966 -0.6046 1757.5795 67.0736)" class="st13" width="6.4" height="254.2"/>
<polygon class="st13" points="733.8,373.2 748.8,408.9 772.2,378 "/>
<rect x="916.9" y="365.5" transform="matrix(-0.9082 0.4186 -0.4186 -0.9082 1948.0033 491.4281)" class="st14" width="6.4" height="187.8"/>
<polygon class="st14" points="866.8,344.2 863.3,382.7 898.4,366.5 "/>
<rect x="970.8" y="354.1" transform="matrix(-0.9916 -0.1295 0.1295 -0.9916 1881.5929 1022.8984)" class="st15" width="6.4" height="192.3"/>
<polygon class="st15" points="990.6,322.2 967.1,352.9 1005.5,357.9 "/>
<rect x="1017.7" y="313" transform="matrix(-0.873 -0.4877 0.4877 -0.873 1698.884 1316.78)" class="st16" width="6.4" height="248.5"/>
<polygon class="st16" points="1097.5,299.8 1064.2,319.6 1098,338.5 "/>
</svg>
