<svg width="720" height="420" viewBox="0 0 720 420" fill="none" xmlns="http://www.w3.org/2000/svg">
<rect width="720" height="420" fill="black"/>
<path d="M388.14 314.36C388.44 314.34 388.78 314.32 389.16 314.3C389.54 314.26 389.82 314.23 390 314.21C390.2 314.19 390.31 314.18 390.33 314.18C390.57 314.18 390.69 314.26 390.69 314.42C390.69 314.56 389.95 317.59 388.47 323.51C387.01 329.41 386.27 332.41 386.25 332.51C386.23 332.61 386.22 332.76 386.22 332.96C386.22 333.8 386.5 334.22 387.06 334.22C387.24 334.2 387.44 334.11 387.66 333.95C388.08 333.55 388.49 332.59 388.89 331.07C389.01 330.67 389.11 330.46 389.19 330.44C389.23 330.42 389.33 330.41 389.49 330.41H389.61C389.99 330.41 390.18 330.49 390.18 330.65C390.18 330.73 390.15 330.89 390.09 331.13C389.65 332.81 389.11 333.97 388.47 334.61C388.21 334.87 387.89 335.08 387.51 335.24C387.35 335.28 387.11 335.3 386.79 335.3C385.53 335.3 384.65 334.81 384.15 333.83C384.05 333.57 384 333.45 384 333.47C383.98 333.45 383.94 333.46 383.88 333.5C383.84 333.54 383.8 333.58 383.76 333.62C382.8 334.52 381.85 335.07 380.91 335.27C380.79 335.29 380.54 335.3 380.16 335.3C378.84 335.3 377.75 334.75 376.89 333.65C376.29 332.77 375.99 331.65 375.99 330.29C375.99 328.43 376.67 326.59 378.03 324.77C379.27 323.25 380.65 322.3 382.17 321.92C382.59 321.8 383 321.74 383.4 321.74C384.5 321.74 385.34 322.16 385.92 323C386.02 323.12 386.07 323.16 386.07 323.12C386.09 323.04 386.36 321.95 386.88 319.85C387.42 317.73 387.7 316.62 387.72 316.52C387.72 316.28 387.66 316.12 387.54 316.04C387.32 315.96 386.92 315.91 386.34 315.89H385.71C385.59 315.77 385.52 315.69 385.5 315.65C385.5 315.61 385.53 315.42 385.59 315.08C385.69 314.7 385.82 314.51 385.98 314.51C386 314.51 386.1 314.5 386.28 314.48C386.48 314.46 386.75 314.44 387.09 314.42C387.45 314.4 387.8 314.38 388.14 314.36ZM385.56 325.22C385.12 323.64 384.37 322.85 383.31 322.85C382.51 322.85 381.8 323.19 381.18 323.87C380.58 324.55 380.12 325.33 379.8 326.21C379.22 327.79 378.81 329.43 378.57 331.13C378.57 331.19 378.56 331.3 378.54 331.46C378.54 331.62 378.54 331.74 378.54 331.82C378.54 332.54 378.69 333.12 378.99 333.56C379.31 334 379.77 334.22 380.37 334.22C381.43 334.22 382.54 333.5 383.7 332.06L383.94 331.73C384.12 331.01 384.39 329.93 384.75 328.49C385.11 327.03 385.38 325.94 385.56 325.22Z" fill="white"/>
<path d="M303.14 379.36C303.44 379.34 303.78 379.32 304.16 379.3C304.54 379.26 304.82 379.23 305 379.21C305.2 379.19 305.31 379.18 305.33 379.18C305.57 379.18 305.69 379.26 305.69 379.42C305.69 379.56 304.95 382.59 303.47 388.51C302.01 394.41 301.27 397.41 301.25 397.51C301.23 397.61 301.22 397.76 301.22 397.96C301.22 398.8 301.5 399.22 302.06 399.22C302.24 399.2 302.44 399.11 302.66 398.95C303.08 398.55 303.49 397.59 303.89 396.07C304.01 395.67 304.11 395.46 304.19 395.44C304.23 395.42 304.33 395.41 304.49 395.41H304.61C304.99 395.41 305.18 395.49 305.18 395.65C305.18 395.73 305.15 395.89 305.09 396.13C304.65 397.81 304.11 398.97 303.47 399.61C303.21 399.87 302.89 400.08 302.51 400.24C302.35 400.28 302.11 400.3 301.79 400.3C300.53 400.3 299.65 399.81 299.15 398.83C299.05 398.57 299 398.45 299 398.47C298.98 398.45 298.94 398.46 298.88 398.5C298.84 398.54 298.8 398.58 298.76 398.62C297.8 399.52 296.85 400.07 295.91 400.27C295.79 400.29 295.54 400.3 295.16 400.3C293.84 400.3 292.75 399.75 291.89 398.65C291.29 397.77 290.99 396.65 290.99 395.29C290.99 393.43 291.67 391.59 293.03 389.77C294.27 388.25 295.65 387.3 297.17 386.92C297.59 386.8 298 386.74 298.4 386.74C299.5 386.74 300.34 387.16 300.92 388C301.02 388.12 301.07 388.16 301.07 388.12C301.09 388.04 301.36 386.95 301.88 384.85C302.42 382.73 302.7 381.62 302.72 381.52C302.72 381.28 302.66 381.12 302.54 381.04C302.32 380.96 301.92 380.91 301.34 380.89H300.71C300.59 380.77 300.52 380.69 300.5 380.65C300.5 380.61 300.53 380.42 300.59 380.08C300.69 379.7 300.82 379.51 300.98 379.51C301 379.51 301.1 379.5 301.28 379.48C301.48 379.46 301.75 379.44 302.09 379.42C302.45 379.4 302.8 379.38 303.14 379.36ZM300.56 390.22C300.12 388.64 299.37 387.85 298.31 387.85C297.51 387.85 296.8 388.19 296.18 388.87C295.58 389.55 295.12 390.33 294.8 391.21C294.22 392.79 293.81 394.43 293.57 396.13C293.57 396.19 293.56 396.3 293.54 396.46C293.54 396.62 293.54 396.74 293.54 396.82C293.54 397.54 293.69 398.12 293.99 398.56C294.31 399 294.77 399.22 295.37 399.22C296.43 399.22 297.54 398.5 298.7 397.06L298.94 396.73C299.12 396.01 299.39 394.93 299.75 393.49C300.11 392.03 300.38 390.94 300.56 390.22Z" fill="white"/>
<path d="M494.14 146.36C494.44 146.34 494.78 146.32 495.16 146.3C495.54 146.26 495.82 146.23 496 146.21C496.2 146.19 496.31 146.18 496.33 146.18C496.57 146.18 496.69 146.26 496.69 146.42C496.69 146.56 495.95 149.59 494.47 155.51C493.01 161.41 492.27 164.41 492.25 164.51C492.23 164.61 492.22 164.76 492.22 164.96C492.22 165.8 492.5 166.22 493.06 166.22C493.24 166.2 493.44 166.11 493.66 165.95C494.08 165.55 494.49 164.59 494.89 163.07C495.01 162.67 495.11 162.46 495.19 162.44C495.23 162.42 495.33 162.41 495.49 162.41H495.61C495.99 162.41 496.18 162.49 496.18 162.65C496.18 162.73 496.15 162.89 496.09 163.13C495.65 164.81 495.11 165.97 494.47 166.61C494.21 166.87 493.89 167.08 493.51 167.24C493.35 167.28 493.11 167.3 492.79 167.3C491.53 167.3 490.65 166.81 490.15 165.83C490.05 165.57 490 165.45 490 165.47C489.98 165.45 489.94 165.46 489.88 165.5C489.84 165.54 489.8 165.58 489.76 165.62C488.8 166.52 487.85 167.07 486.91 167.27C486.79 167.29 486.54 167.3 486.16 167.3C484.84 167.3 483.75 166.75 482.89 165.65C482.29 164.77 481.99 163.65 481.99 162.29C481.99 160.43 482.67 158.59 484.03 156.77C485.27 155.25 486.65 154.3 488.17 153.92C488.59 153.8 489 153.74 489.4 153.74C490.5 153.74 491.34 154.16 491.92 155C492.02 155.12 492.07 155.16 492.07 155.12C492.09 155.04 492.36 153.95 492.88 151.85C493.42 149.73 493.7 148.62 493.72 148.52C493.72 148.28 493.66 148.12 493.54 148.04C493.32 147.96 492.92 147.91 492.34 147.89H491.71C491.59 147.77 491.52 147.69 491.5 147.65C491.5 147.61 491.53 147.42 491.59 147.08C491.69 146.7 491.82 146.51 491.98 146.51C492 146.51 492.1 146.5 492.28 146.48C492.48 146.46 492.75 146.44 493.09 146.42C493.45 146.4 493.8 146.38 494.14 146.36ZM491.56 157.22C491.12 155.64 490.37 154.85 489.31 154.85C488.51 154.85 487.8 155.19 487.18 155.87C486.58 156.55 486.12 157.33 485.8 158.21C485.22 159.79 484.81 161.43 484.57 163.13C484.57 163.19 484.56 163.3 484.54 163.46C484.54 163.62 484.54 163.74 484.54 163.82C484.54 164.54 484.69 165.12 484.99 165.56C485.31 166 485.77 166.22 486.37 166.22C487.43 166.22 488.54 165.5 489.7 164.06L489.94 163.73C490.12 163.01 490.39 161.93 490.75 160.49C491.11 159.03 491.38 157.94 491.56 157.22ZM498.326 158.66C498.206 158.54 498.146 158.43 498.146 158.33C498.226 157.79 498.536 157.1 499.076 156.26C500.016 154.84 501.196 154.02 502.616 153.8C502.896 153.76 503.106 153.74 503.246 153.74C503.946 153.74 504.586 153.92 505.166 154.28C505.766 154.64 506.196 155.09 506.456 155.63C506.716 155.29 506.876 155.08 506.936 155C507.676 154.16 508.526 153.74 509.486 153.74C510.306 153.74 510.966 153.98 511.466 154.46C511.986 154.92 512.246 155.49 512.246 156.17C512.246 156.79 512.066 157.31 511.706 157.73C511.366 158.15 510.906 158.36 510.326 158.36C509.946 158.36 509.636 158.25 509.396 158.03C509.156 157.81 509.036 157.52 509.036 157.16C509.036 156.24 509.536 155.61 510.536 155.27C510.536 155.25 510.426 155.18 510.206 155.06C510.006 154.94 509.716 154.88 509.336 154.88C509.076 154.88 508.886 154.9 508.766 154.94C508.006 155.26 507.446 155.92 507.086 156.92C507.026 157.08 506.736 158.2 506.216 160.28C505.696 162.34 505.416 163.5 505.376 163.76C505.316 164.06 505.286 164.36 505.286 164.66C505.286 165.14 505.426 165.52 505.706 165.8C505.986 166.08 506.356 166.22 506.816 166.22C507.656 166.22 508.416 165.87 509.096 165.17C509.776 164.45 510.236 163.66 510.476 162.8C510.536 162.6 510.596 162.49 510.656 162.47C510.716 162.43 510.876 162.41 511.136 162.41C511.516 162.41 511.706 162.49 511.706 162.65C511.706 162.67 511.686 162.78 511.646 162.98C511.306 164.22 510.606 165.3 509.546 166.22C508.606 166.96 507.616 167.33 506.576 167.33C505.176 167.33 504.116 166.7 503.396 165.44C502.816 166.34 502.076 166.94 501.176 167.24C500.996 167.28 500.736 167.3 500.396 167.3C499.236 167.3 498.416 166.89 497.936 166.07C497.736 165.73 497.636 165.33 497.636 164.87C497.636 164.27 497.816 163.76 498.176 163.34C498.536 162.92 498.996 162.71 499.556 162.71C500.416 162.71 500.846 163.13 500.846 163.97C500.846 164.71 500.496 165.25 499.796 165.59C499.756 165.61 499.706 165.64 499.646 165.68C499.586 165.7 499.536 165.72 499.496 165.74C499.456 165.76 499.426 165.77 499.406 165.77L499.316 165.8C499.316 165.86 499.466 165.95 499.766 166.07C500.006 166.17 500.266 166.22 500.546 166.22C501.266 166.22 501.886 165.77 502.406 164.87C502.626 164.51 503.016 163.21 503.576 160.97C503.696 160.51 503.826 160 503.966 159.44C504.106 158.88 504.206 158.45 504.266 158.15C504.346 157.85 504.396 157.67 504.416 157.61C504.516 157.07 504.566 156.68 504.566 156.44C504.566 155.96 504.436 155.58 504.176 155.3C503.916 155.02 503.556 154.88 503.096 154.88C502.196 154.88 501.416 155.23 500.756 155.93C500.096 156.61 499.636 157.4 499.376 158.3C499.336 158.48 499.286 158.59 499.226 158.63C499.186 158.65 499.026 158.66 498.746 158.66H498.326ZM522.934 156.59C522.934 156.33 523.074 156.13 523.354 155.99H542.464C542.764 156.13 542.914 156.33 542.914 156.59C542.914 156.81 542.774 157 542.494 157.16L532.954 157.19H523.414C523.094 157.09 522.934 156.89 522.934 156.59ZM522.934 162.41C522.934 162.11 523.094 161.91 523.414 161.81H542.494C542.514 161.83 542.554 161.87 542.614 161.93C542.694 161.97 542.744 162.01 542.764 162.05C542.804 162.07 542.834 162.12 542.854 162.2C542.894 162.26 542.914 162.33 542.914 162.41C542.914 162.67 542.764 162.87 542.464 163.01H523.354C523.074 162.87 522.934 162.67 522.934 162.41ZM560.054 167C559.794 166.94 558.644 166.91 556.604 166.91C554.524 166.91 553.354 166.94 553.094 167H552.854V165.62H553.364C554.724 165.54 555.554 165.2 555.854 164.6L555.944 164.42V147.98H555.824C555.624 147.92 554.904 147.89 553.664 147.89H552.854V146.51H559.064L559.154 146.6C559.194 146.62 560.064 147.89 561.764 150.41C563.484 152.91 565.194 155.41 566.894 157.91L569.444 161.66V149.06C569.064 148.34 568.204 147.95 566.864 147.89H566.354V146.51H566.594C566.954 146.57 568.124 146.6 570.104 146.6C572.144 146.6 573.294 146.57 573.554 146.51H573.824V147.89H573.314C571.854 147.97 571.004 148.36 570.764 149.06L570.734 157.94V166.82C570.674 166.86 570.604 166.92 570.524 167H570.104C569.804 167 569.624 166.97 569.564 166.91C569.444 166.79 567.384 163.79 563.384 157.91C559.384 152.03 557.334 149.01 557.234 148.85V156.65L557.264 164.42C557.504 165.14 558.354 165.54 559.814 165.62H560.324V167H560.054ZM587.054 159.65C587.054 159.79 586.984 159.93 586.844 160.07H578.384V160.52C578.384 162 578.584 163.12 578.984 163.88C579.704 165.36 580.944 166.1 582.704 166.1C583.564 166.1 584.284 165.78 584.864 165.14C585.264 164.74 585.574 164.22 585.794 163.58C585.854 163.36 585.914 163.22 585.974 163.16C586.034 163.1 586.194 163.07 586.454 163.07C586.854 163.07 587.054 163.17 587.054 163.37C587.054 163.45 587.024 163.58 586.964 163.76C586.584 164.8 585.974 165.66 585.134 166.34C584.314 167 583.304 167.33 582.104 167.33C581.724 167.33 581.284 167.28 580.784 167.18C579.644 166.96 578.624 166.44 577.724 165.62C576.824 164.8 576.184 163.81 575.804 162.65C575.564 161.93 575.444 161.2 575.444 160.46C575.444 158.62 575.984 157.07 577.064 155.81C578.144 154.53 579.474 153.79 581.054 153.59C581.134 153.57 581.274 153.56 581.474 153.56C583.294 153.56 584.674 154.1 585.614 155.18C586.574 156.24 587.054 157.73 587.054 159.65ZM584.594 158.75C584.414 156.57 583.674 155.25 582.374 154.79C582.234 154.73 582.024 154.69 581.744 154.67C580.704 154.67 579.854 155.15 579.194 156.11C578.794 156.75 578.534 157.64 578.414 158.78V158.99H584.594V158.75ZM601.494 155.45C600.534 155.45 600.054 155.61 600.054 155.93C600.054 156.09 600.504 157.45 601.404 160.01C602.304 162.57 602.774 163.9 602.814 164L604.044 160.43C604.884 157.99 605.304 156.71 605.304 156.59C605.304 156.25 605.154 155.99 604.854 155.81C604.574 155.61 604.234 155.49 603.834 155.45H603.594V154.07H603.804C604.064 154.13 605.014 154.16 606.654 154.16C608.014 154.16 608.754 154.13 608.874 154.07H609.024V155.45H608.844C608.824 155.45 608.754 155.46 608.634 155.48C608.534 155.48 608.454 155.48 608.394 155.48C607.454 155.62 606.824 156.12 606.504 156.98L602.964 167.09C602.884 167.25 602.664 167.33 602.304 167.33C601.924 167.33 601.694 167.26 601.614 167.12C601.594 167.1 601.104 165.73 600.144 163.01L598.764 158.99C597.064 163.63 596.114 166.34 595.914 167.12C595.814 167.26 595.584 167.33 595.224 167.33C594.844 167.33 594.614 167.25 594.534 167.09L590.634 155.96C590.494 155.74 590.344 155.61 590.184 155.57C590.024 155.51 589.674 155.47 589.134 155.45H588.474V154.07H588.654C588.874 154.13 589.794 154.16 591.414 154.16C593.214 154.16 594.264 154.13 594.564 154.07H594.804V155.45H594.384C593.624 155.49 593.244 155.66 593.244 155.96C593.244 155.98 593.684 157.27 594.564 159.83L595.884 163.61C595.904 163.53 595.964 163.34 596.064 163.04C596.184 162.72 596.334 162.31 596.514 161.81C596.694 161.31 596.874 160.78 597.054 160.22L598.104 157.16L597.924 156.65C597.744 156.13 597.624 155.83 597.564 155.75C597.384 155.57 596.954 155.47 596.274 155.45H595.674V154.07H595.854C596.054 154.13 596.894 154.16 598.374 154.16C600.234 154.16 601.294 154.13 601.554 154.07H601.764V155.45H601.494ZM624.734 167C624.374 166.94 623.224 166.91 621.284 166.91C619.504 166.91 618.494 166.94 618.254 167H618.044V165.62H618.494C619.934 165.56 620.854 165.14 621.254 164.36C621.274 164.3 621.804 162.73 622.844 159.65C623.884 156.55 624.914 153.47 625.934 150.41C626.974 147.33 627.504 145.78 627.524 145.76C627.584 145.6 627.774 145.52 628.094 145.52H628.364C628.764 145.54 629.004 145.61 629.084 145.73C629.104 145.75 630.074 148.61 631.994 154.31C633.934 160.01 635.134 163.57 635.594 164.99C635.654 165.11 635.724 165.21 635.804 165.29C636.024 165.49 636.654 165.6 637.694 165.62H638.594V167H638.324C638.024 166.94 636.754 166.91 634.514 166.91C631.934 166.91 630.494 166.94 630.194 167H629.894V165.62H630.284C631.684 165.62 632.384 165.44 632.384 165.08C632.384 165.04 632.144 164.3 631.664 162.86L630.944 160.73H623.954L623.354 162.5C622.954 163.68 622.754 164.33 622.754 164.45C622.754 164.55 622.784 164.64 622.844 164.72C622.964 164.98 623.214 165.2 623.594 165.38C623.994 165.54 624.414 165.62 624.854 165.62H625.004V167H624.734ZM629.564 156.59C628.984 154.85 628.474 153.34 628.034 152.06L627.434 150.29L625.934 154.79L624.404 159.32C624.404 159.34 625.414 159.35 627.434 159.35H630.494L629.564 156.59ZM640.664 165.62H641.084C641.864 165.62 642.334 165.48 642.494 165.2V164.96C642.494 164.78 642.494 164.55 642.494 164.27C642.514 163.99 642.524 163.68 642.524 163.34C642.524 162.98 642.524 162.59 642.524 162.17C642.524 161.73 642.524 161.31 642.524 160.91C642.524 160.29 642.524 159.63 642.524 158.93C642.524 158.21 642.524 157.62 642.524 157.16L642.494 156.47C642.434 156.09 642.284 155.84 642.044 155.72C641.824 155.58 641.384 155.49 640.724 155.45H640.184V154.76C640.184 154.3 640.204 154.07 640.244 154.07L640.544 154.04C640.744 154.02 641.024 154 641.384 153.98C641.744 153.96 642.104 153.94 642.464 153.92C642.784 153.9 643.134 153.88 643.514 153.86C643.894 153.82 644.184 153.79 644.384 153.77C644.584 153.75 644.694 153.74 644.714 153.74H644.804V155.81C645.184 155.17 645.604 154.67 646.064 154.31C646.524 153.95 647.134 153.77 647.894 153.77C648.454 153.77 648.934 153.88 649.334 154.1C650.114 154.5 650.504 155.07 650.504 155.81C650.504 156.25 650.354 156.62 650.054 156.92C649.754 157.2 649.394 157.34 648.974 157.34C648.554 157.34 648.194 157.2 647.894 156.92C647.614 156.64 647.474 156.28 647.474 155.84C647.474 155.5 647.554 155.22 647.714 155C647.754 154.92 647.774 154.87 647.774 154.85C647.734 154.81 647.504 154.85 647.084 154.97C646.764 155.13 646.524 155.28 646.364 155.42C645.564 156.18 645.104 157.44 644.984 159.2V160.37C644.964 161.15 644.954 161.82 644.954 162.38C644.954 162.64 644.954 162.92 644.954 163.22C644.954 163.5 644.954 163.75 644.954 163.97C644.974 164.19 644.984 164.39 644.984 164.57C644.984 164.75 644.984 164.9 644.984 165.02V165.17C645.064 165.33 645.184 165.43 645.344 165.47C645.544 165.55 646.074 165.6 646.934 165.62H647.864V167H647.594C647.234 166.94 645.964 166.91 643.784 166.91C641.824 166.91 640.704 166.94 640.424 167H640.184V165.62H640.664ZM663.782 159.65C663.782 159.79 663.712 159.93 663.572 160.07H655.112V160.52C655.112 162 655.312 163.12 655.712 163.88C656.432 165.36 657.672 166.1 659.432 166.1C660.292 166.1 661.012 165.78 661.592 165.14C661.992 164.74 662.302 164.22 662.522 163.58C662.582 163.36 662.642 163.22 662.702 163.16C662.762 163.1 662.922 163.07 663.182 163.07C663.582 163.07 663.782 163.17 663.782 163.37C663.782 163.45 663.752 163.58 663.692 163.76C663.312 164.8 662.702 165.66 661.862 166.34C661.042 167 660.032 167.33 658.832 167.33C658.452 167.33 658.012 167.28 657.512 167.18C656.372 166.96 655.352 166.44 654.452 165.62C653.552 164.8 652.912 163.81 652.532 162.65C652.292 161.93 652.172 161.2 652.172 160.46C652.172 158.62 652.712 157.07 653.792 155.81C654.872 154.53 656.202 153.79 657.782 153.59C657.862 153.57 658.002 153.56 658.202 153.56C660.022 153.56 661.402 154.1 662.342 155.18C663.302 156.24 663.782 157.73 663.782 159.65ZM661.322 158.75C661.142 156.57 660.402 155.25 659.102 154.79C658.962 154.73 658.752 154.69 658.472 154.67C657.432 154.67 656.582 155.15 655.922 156.11C655.522 156.75 655.262 157.64 655.142 158.78V158.99H661.322V158.75ZM669.282 157.37C668.982 157.69 668.602 157.85 668.142 157.85C667.682 157.85 667.302 157.69 667.002 157.37C666.702 157.05 666.552 156.67 666.552 156.23C666.552 155.95 666.632 155.63 666.792 155.27C667.052 154.73 667.572 154.31 668.352 154.01C669.132 153.71 670.082 153.56 671.202 153.56C672.522 153.56 673.662 153.86 674.622 154.46C675.602 155.06 676.242 155.84 676.542 156.8C676.642 157.08 676.692 157.4 676.692 157.76C676.712 158.1 676.722 159.24 676.722 161.18C676.722 163.14 676.722 164.29 676.722 164.63C676.742 164.95 676.802 165.2 676.902 165.38C677.022 165.66 677.222 165.8 677.502 165.8C677.762 165.8 677.952 165.66 678.072 165.38C678.192 165.14 678.252 164.59 678.252 163.73V162.65H679.452V163.82C679.432 164.62 679.402 165.09 679.362 165.23C679.182 165.79 678.852 166.26 678.372 166.64C677.892 167 677.322 167.18 676.662 167.18C676.162 167.18 675.712 167.01 675.312 166.67C674.932 166.31 674.672 165.88 674.532 165.38V165.26C674.472 165.32 674.352 165.46 674.172 165.68C673.992 165.88 673.862 166.02 673.782 166.1C672.802 166.92 671.662 167.33 670.362 167.33C669.322 167.33 668.392 167.11 667.572 166.67C666.752 166.23 666.202 165.65 665.922 164.93C665.762 164.55 665.682 164.17 665.682 163.79C665.682 162.85 666.072 161.99 666.852 161.21C667.312 160.75 667.882 160.37 668.562 160.07C669.922 159.45 671.662 159.08 673.782 158.96H674.202V158.3C674.202 157.62 674.142 157.12 674.022 156.8C673.822 156.14 673.472 155.62 672.972 155.24C672.472 154.86 671.852 154.67 671.112 154.67C669.772 154.67 669.102 154.75 669.102 154.91C669.542 155.21 669.762 155.65 669.762 156.23C669.762 156.67 669.602 157.05 669.282 157.37ZM674.202 161.75C674.202 160.59 674.192 160.01 674.172 160.01C674.112 160.01 674.062 160.02 674.022 160.04C671.282 160.22 669.532 161.03 668.772 162.47C668.552 162.87 668.442 163.32 668.442 163.82C668.442 164.5 668.682 165.07 669.162 165.53C669.642 165.99 670.232 166.22 670.932 166.22C671.732 166.22 672.412 165.98 672.972 165.5C673.552 165.02 673.932 164.43 674.112 163.73C674.152 163.59 674.182 162.93 674.202 161.75Z" fill="#E8C11C"/>
<path d="M348.021 72.6927C348.021 72.3714 348.031 72.1807 348.052 72.1205C348.093 72.0402 348.206 72 348.392 72H348.732H349.226L349.844 72.3012C350.751 72.7429 351.596 73.2549 352.379 73.8371C355.037 75.7646 356.706 78.1037 357.386 80.8543C357.509 81.2559 357.602 81.7177 357.664 82.2397C357.705 82.4806 357.726 161.206 357.726 169.177C357.746 176.003 357.757 179.788 357.757 180.531C357.777 181.274 357.839 181.936 357.942 182.518C358.231 184.265 358.88 185.891 359.889 187.397C360.899 188.883 362.146 190.078 363.629 190.981C363.67 191.021 363.722 191.071 363.784 191.132C363.866 191.172 363.907 191.202 363.907 191.222C363.928 191.222 363.948 191.252 363.969 191.312C363.99 191.373 364 191.433 364 191.493C364 191.533 364 191.634 364 191.794C364 191.955 364 192.065 364 192.126C364 192.166 363.99 192.216 363.969 192.276C363.948 192.336 363.928 192.367 363.907 192.367C363.907 192.367 363.876 192.397 363.815 192.457C363.753 192.497 363.691 192.537 363.629 192.577C362.146 193.481 360.899 194.685 359.889 196.191C358.88 197.677 358.231 199.293 357.942 201.04C357.839 201.622 357.777 202.285 357.757 203.028C357.757 203.771 357.746 207.545 357.726 214.352C357.726 222.343 357.684 301.519 357.643 301.76C357.581 302.282 357.489 302.744 357.365 303.146C356.85 305.294 355.675 307.221 353.842 308.928C352.708 310.012 351.369 310.936 349.824 311.699L349.205 312H348.742C348.371 312 348.155 311.97 348.093 311.91C348.031 311.849 348 311.649 348 311.307C348 311.046 348.01 310.876 348.031 310.795C348.072 310.735 348.155 310.665 348.278 310.585C349.329 310.002 350.256 309.269 351.06 308.386C352.935 306.398 353.986 304.069 354.212 301.399C354.233 301.218 354.264 222.182 354.264 214.412C354.264 206.622 354.274 202.636 354.295 202.456C354.48 199.986 355.47 197.697 357.262 195.589C357.695 195.067 358.313 194.465 359.117 193.782C360.209 192.919 361.239 192.256 362.207 191.794C361.198 191.312 360.167 190.64 359.117 189.776C358.313 189.094 357.695 188.491 357.262 187.969C355.47 185.861 354.48 183.572 354.295 181.103C354.274 180.922 354.264 176.937 354.264 169.147C354.264 161.376 354.254 82.7818 354.233 82.6011C354.089 80.6134 353.471 78.8265 352.379 77.2403C351.287 75.6341 349.927 74.3591 348.299 73.4155C348.155 73.3352 348.072 73.2649 348.052 73.2047C348.031 73.1444 348.021 72.9738 348.021 72.6927Z" fill="white"/>
<path d="M311.307 349.021C311.629 349.021 311.819 349.031 311.88 349.052C311.96 349.093 312 349.206 312 349.392L312 349.732L312 350.226L311.699 350.844C311.257 351.751 310.745 352.596 310.163 353.379C308.235 356.037 305.896 357.706 303.146 358.386C302.744 358.509 302.282 358.602 301.76 358.664C301.519 358.705 222.794 358.726 214.823 358.726C207.997 358.746 204.212 358.757 203.469 358.757C202.726 358.777 202.064 358.839 201.482 358.942C199.735 359.231 198.109 359.88 196.603 360.889C195.117 361.899 193.922 363.146 193.019 364.629C192.979 364.67 192.929 364.722 192.868 364.784C192.828 364.866 192.798 364.907 192.778 364.907C192.778 364.928 192.748 364.948 192.688 364.969C192.627 364.99 192.567 365 192.507 365C192.467 365 192.366 365 192.206 365C192.045 365 191.935 365 191.874 365C191.834 365 191.784 364.99 191.724 364.969C191.664 364.948 191.633 364.928 191.633 364.907C191.633 364.907 191.603 364.876 191.543 364.815C191.503 364.753 191.463 364.691 191.423 364.629C190.519 363.146 189.315 361.899 187.809 360.889C186.323 359.88 184.707 359.231 182.96 358.942C182.378 358.839 181.715 358.777 180.972 358.757C180.229 358.757 176.455 358.746 169.648 358.726C161.657 358.726 82.4806 358.684 82.2397 358.643C81.7177 358.581 81.2559 358.489 80.8543 358.365C78.706 357.85 76.7785 356.675 75.0719 354.842C73.9877 353.708 73.0641 352.369 72.3012 350.824L72 350.205L72 349.742C72 349.371 72.0301 349.155 72.0903 349.093C72.1506 349.031 72.3513 349 72.6927 349C72.9537 349 73.1244 349.01 73.2047 349.031C73.2649 349.072 73.3352 349.155 73.4155 349.278C73.9977 350.329 74.7306 351.256 75.614 352.06C77.6017 353.935 79.9307 354.986 82.6011 355.212C82.7818 355.233 161.818 355.264 169.588 355.264C177.378 355.264 181.364 355.274 181.544 355.295C184.014 355.48 186.303 356.47 188.411 358.262C188.933 358.695 189.535 359.313 190.218 360.117C191.081 361.209 191.744 362.239 192.206 363.207C192.688 362.198 193.36 361.167 194.224 360.117C194.906 359.313 195.509 358.695 196.031 358.262C198.139 356.47 200.428 355.48 202.897 355.295C203.078 355.274 207.063 355.264 214.853 355.264C222.624 355.264 301.218 355.254 301.399 355.233C303.387 355.089 305.174 354.471 306.76 353.379C308.366 352.287 309.641 350.927 310.585 349.299C310.665 349.155 310.735 349.072 310.795 349.052C310.856 349.031 311.026 349.021 311.307 349.021Z" fill="white"/>
<rect x="72.5" y="72.5" width="239" height="239" fill="#1C758A" stroke="#58C4DD"/>
<rect x="312" y="72" width="20" height="240" fill="#E8C11C"/>
<path d="M331.983 349.202L332 349.403C332 349.538 332 349.672 332 349.806C332 350.156 331.939 350.828 331.817 351.823C331.494 354.457 331.077 356.258 330.565 357.226C330.376 357.629 330.098 357.938 329.731 358.153L327.029 358.194C326.762 358.194 326.412 358.194 325.978 358.194C324.8 358.22 324.155 358.288 324.043 358.395C324.032 358.422 324.021 358.435 324.01 358.435C323.665 358.758 323.337 359.417 323.026 360.411C322.714 361.406 322.487 362.495 322.342 363.677C322.309 363.892 322.197 364 322.008 364C321.808 364 321.691 363.892 321.658 363.677C321.513 362.495 321.286 361.406 320.974 360.411C320.663 359.417 320.335 358.758 319.99 358.435C319.979 358.435 319.968 358.422 319.957 358.395C319.834 358.288 319.301 358.22 318.355 358.194C318.289 358.194 318.177 358.194 318.022 358.194C317.588 358.194 317.238 358.194 316.971 358.194L314.285 358.153C313.918 357.938 313.635 357.629 313.435 357.226C312.923 356.258 312.506 354.457 312.183 351.823C312.061 350.855 312 350.183 312 349.806C312 349.43 312.017 349.202 312.05 349.121C312.083 349.04 312.178 349 312.334 349C312.478 349 312.562 349.013 312.584 349.04C312.628 349.121 312.684 349.444 312.751 350.008C312.973 351.675 313.251 352.911 313.585 353.718C313.807 354.255 314.057 354.605 314.335 354.766C314.402 354.793 315.292 354.806 317.004 354.806C318.728 354.806 319.623 354.82 319.69 354.847C320.001 354.981 320.307 355.29 320.607 355.774C321.119 356.688 321.552 358.368 321.908 360.815L322.008 361.419L322.075 360.935C322.42 358.462 322.859 356.742 323.393 355.774C323.693 355.29 323.999 354.981 324.31 354.847C324.377 354.82 325.272 354.806 326.996 354.806C328.775 354.806 329.743 354.739 329.898 354.605C330.454 354.067 330.905 352.535 331.249 350.008C331.26 349.901 331.272 349.793 331.283 349.685C331.294 349.605 331.305 349.524 331.316 349.444C331.338 349.363 331.349 349.309 331.349 349.282C331.372 349.094 331.477 349 331.666 349C331.833 349 331.939 349.067 331.983 349.202Z" fill="white"/>
<path d="M348.202 312.017L348.403 312C348.538 312 348.672 312 348.806 312C349.156 312 349.828 312.061 350.823 312.183C353.457 312.506 355.258 312.923 356.226 313.435C356.629 313.624 356.938 313.902 357.153 314.269L357.194 316.971C357.194 317.238 357.194 317.588 357.194 318.022C357.22 319.2 357.288 319.845 357.395 319.957C357.422 319.968 357.435 319.979 357.435 319.99C357.758 320.335 358.417 320.663 359.411 320.974C360.406 321.286 361.495 321.513 362.677 321.658C362.892 321.691 363 321.803 363 321.992C363 322.192 362.892 322.309 362.677 322.342C361.495 322.487 360.406 322.714 359.411 323.026C358.417 323.337 357.758 323.665 357.435 324.01C357.435 324.021 357.422 324.032 357.395 324.043C357.288 324.166 357.22 324.699 357.194 325.645C357.194 325.711 357.194 325.823 357.194 325.978C357.194 326.412 357.194 326.762 357.194 327.029L357.153 329.715C356.938 330.082 356.629 330.365 356.226 330.565C355.258 331.077 353.457 331.494 350.823 331.817C349.855 331.939 349.183 332 348.806 332C348.43 332 348.202 331.983 348.121 331.95C348.04 331.917 348 331.822 348 331.666C348 331.522 348.013 331.438 348.04 331.416C348.121 331.372 348.444 331.316 349.008 331.249C350.675 331.027 351.911 330.749 352.718 330.415C353.255 330.193 353.605 329.943 353.766 329.665C353.793 329.598 353.806 328.708 353.806 326.996C353.806 325.272 353.82 324.377 353.847 324.31C353.981 323.999 354.29 323.693 354.774 323.393C355.688 322.881 357.368 322.448 359.815 322.092L360.419 321.992L359.935 321.925C357.462 321.58 355.742 321.141 354.774 320.607C354.29 320.307 353.981 320.001 353.847 319.69C353.82 319.623 353.806 318.728 353.806 317.004C353.806 315.225 353.739 314.257 353.605 314.102C353.067 313.546 351.535 313.095 349.008 312.751C348.901 312.74 348.793 312.728 348.685 312.717C348.605 312.706 348.524 312.695 348.444 312.684C348.363 312.662 348.309 312.651 348.282 312.651C348.094 312.628 348 312.523 348 312.334C348 312.167 348.067 312.061 348.202 312.017Z" fill="white"/>
<rect x="312" y="312" width="20" height="20" fill="#E8C11C"/>
<rect x="72" y="312" width="240" height="20" fill="#E8C11C"/>
<path d="M127.737 48.3337C127.78 48.3337 127.843 48.3548 127.927 48.397C128.012 48.4393 128.128 48.4709 128.276 48.492C128.423 48.5131 128.55 48.5237 128.656 48.5237C128.93 48.5237 129.183 48.3865 129.415 48.1121C129.648 47.8377 129.817 47.5316 129.922 47.1939C130.133 46.624 130.492 45.0092 130.999 42.3496C131.505 39.69 131.991 37.157 132.455 34.7507C132.919 32.3444 133.152 31.1307 133.152 31.1096V31.0146H131.663C130.671 31.0146 130.144 30.9935 130.08 30.9513C129.996 30.888 129.954 30.7824 129.954 30.6347L130.175 29.7481C130.218 29.6426 130.302 29.5898 130.429 29.5898C130.555 29.5898 131.051 29.5793 131.917 29.5582C132.93 29.5582 133.437 29.5476 133.437 29.5265C133.437 29.4843 133.532 28.9566 133.721 27.9434C133.911 26.9302 134.038 26.3181 134.101 26.107C134.882 22.6242 136.423 20.8828 138.724 20.8828C139.505 20.925 140.149 21.1572 140.655 21.5793C141.162 22.0015 141.415 22.5609 141.415 23.2574C141.415 24.0173 141.194 24.5661 140.75 24.9038C140.307 25.2416 139.864 25.421 139.421 25.4421C138.492 25.4421 138.028 24.9988 138.028 24.1123C138.028 23.7112 138.144 23.363 138.376 23.0675C138.608 22.7719 138.861 22.5503 139.136 22.4026L139.421 22.2442C139.083 22.1176 138.766 22.0543 138.471 22.0543C138.218 22.0543 137.975 22.1598 137.743 22.3709C137.51 22.582 137.352 22.8775 137.268 23.2574C137.12 23.8696 136.951 24.6928 136.761 25.7271C136.571 26.7614 136.402 27.6373 136.254 28.355C136.107 29.0727 136.033 29.4526 136.033 29.4948C136.033 29.5371 136.613 29.5582 137.774 29.5582C138.724 29.5582 139.273 29.5687 139.421 29.5898C139.568 29.6109 139.685 29.6743 139.769 29.7798C139.79 29.8642 139.769 30.0436 139.706 30.318C139.642 30.5925 139.59 30.7613 139.547 30.8246C139.505 30.9302 139.41 30.983 139.262 30.983C139.115 30.983 138.545 30.9935 137.553 31.0146H135.78L135.051 34.8774C134.038 40.1122 133.331 43.3839 132.93 44.6926C132.36 46.4868 131.621 47.8166 130.714 48.682C129.933 49.3575 129.162 49.6952 128.402 49.6952C127.727 49.6952 127.115 49.4947 126.566 49.0936C126.017 48.6926 125.743 48.1226 125.743 47.3839C125.743 46.6029 125.964 46.0329 126.408 45.6741C126.851 45.3153 127.294 45.1359 127.737 45.1359C128.666 45.1359 129.131 45.5791 129.131 46.4657C129.131 46.8667 129.014 47.215 128.782 47.5105C128.55 47.806 128.297 48.0277 128.022 48.1754L127.737 48.3337Z" fill="white"/>
<path d="M144.391 35.289C144.391 33.8325 144.496 32.45 144.707 31.1413C144.918 29.8326 145.161 28.7033 145.436 27.7534C145.71 26.8036 146.101 25.8748 146.607 24.9672C147.114 24.0595 147.515 23.3524 147.81 22.8458C148.106 22.3392 148.549 21.7904 149.14 21.1994C149.731 20.6084 150.079 20.2495 150.185 20.1229C150.29 19.9962 150.554 19.7746 150.976 19.458H151.515C151.81 19.458 151.958 19.553 151.958 19.7429C151.958 19.8063 151.779 20.0279 151.42 20.4078C151.061 20.7878 150.628 21.3472 150.122 22.0859C149.615 22.8247 149.098 23.7324 148.57 24.8089C148.042 25.8854 147.599 27.3418 147.24 29.1782C146.882 31.0146 146.702 33.0515 146.702 35.289C146.702 37.5264 146.882 39.5528 147.24 41.3681C147.599 43.1834 148.032 44.6504 148.539 45.7691C149.045 46.8878 149.562 47.7955 150.09 48.492C150.618 49.1886 151.061 49.748 151.42 50.1701C151.779 50.5923 151.958 50.8139 151.958 50.835C151.958 51.025 151.8 51.12 151.483 51.12H150.976L150.09 50.3601C148.106 48.5659 146.66 46.3285 145.752 43.6478C144.845 40.967 144.391 38.1808 144.391 35.289Z" fill="white"/>
<path d="M155.377 34.0542C155.525 33.1676 156.095 32.1439 157.087 30.9829C158.079 29.822 159.303 29.231 160.76 29.2099C161.498 29.2099 162.174 29.3998 162.786 29.7798C163.398 30.1597 163.852 30.6347 164.148 31.2046C165.034 29.8748 166.1 29.2099 167.345 29.2099C168.126 29.2099 168.802 29.4421 169.372 29.9064C169.942 30.3708 170.237 30.9935 170.258 31.7745C170.258 32.3866 170.111 32.8827 169.815 33.2626C169.52 33.6426 169.235 33.8747 168.96 33.9592C168.686 34.0436 168.443 34.0858 168.232 34.0858C167.831 34.0858 167.504 33.9697 167.25 33.7375C166.997 33.5054 166.87 33.1993 166.87 32.8193C166.87 31.8484 167.398 31.1835 168.454 30.8246C168.221 30.5502 167.799 30.413 167.187 30.413C166.913 30.413 166.712 30.4341 166.586 30.4764C165.783 30.8141 165.192 31.5106 164.812 32.566C163.546 37.2309 162.913 39.9538 162.913 40.7348C162.913 41.3259 163.082 41.748 163.419 42.0013C163.757 42.2546 164.126 42.3813 164.527 42.3813C165.308 42.3813 166.079 42.033 166.839 41.3364C167.599 40.6399 168.116 39.785 168.39 38.7718C168.454 38.5607 168.517 38.4446 168.58 38.4235C168.644 38.4024 168.812 38.3813 169.087 38.3602H169.213C169.53 38.3602 169.688 38.4446 169.688 38.6135C169.688 38.6346 169.667 38.7507 169.625 38.9618C169.287 40.1649 168.633 41.2309 167.662 42.1596C166.691 43.0884 165.562 43.5528 164.274 43.5528C162.797 43.5528 161.678 42.8879 160.918 41.5581C160.053 42.8667 159.061 43.5211 157.942 43.5211H157.752C156.718 43.5211 155.979 43.2467 155.535 42.6979C155.092 42.1491 154.86 41.5686 154.839 40.9565C154.839 40.281 155.039 39.7322 155.44 39.31C155.842 38.8879 156.316 38.6768 156.865 38.6768C157.773 38.6768 158.227 39.1201 158.227 40.0066C158.227 40.4288 158.1 40.7982 157.847 41.1148C157.593 41.4314 157.351 41.6425 157.119 41.748C156.886 41.8536 156.749 41.9063 156.707 41.9063L156.612 41.938C156.612 41.9591 156.675 42.0013 156.802 42.0646C156.929 42.128 157.097 42.2018 157.309 42.2863C157.52 42.3707 157.72 42.4024 157.91 42.3813C158.67 42.3813 159.324 41.9063 159.873 40.9565C160.063 40.6187 160.306 39.9011 160.601 38.8035C160.897 37.7058 161.192 36.566 161.488 35.384C161.783 34.2019 161.952 33.5054 161.995 33.2943C162.1 32.7244 162.153 32.3127 162.153 32.0595C162.153 31.4684 161.995 31.0463 161.678 30.793C161.361 30.5397 161.002 30.413 160.601 30.413C159.757 30.413 158.966 30.7508 158.227 31.4262C157.488 32.1017 156.971 32.9671 156.675 34.0225C156.633 34.2125 156.58 34.318 156.517 34.3391C156.454 34.3602 156.285 34.3813 156.01 34.4024H155.567C155.44 34.2758 155.377 34.1597 155.377 34.0542Z" fill="white"/>
<path d="M173.741 19.4897L173.868 19.458C173.973 19.458 174.079 19.458 174.184 19.458H174.564L175.451 20.2179C177.435 22.0121 178.881 24.2495 179.788 26.9302C180.696 29.6109 181.15 32.3972 181.15 35.289C181.15 36.7243 181.044 38.1069 180.833 39.4367C180.622 40.7665 180.379 41.8958 180.105 42.8245C179.831 43.7533 179.44 44.682 178.934 45.6108C178.427 46.5395 178.026 47.2467 177.73 47.7321C177.435 48.2176 177.002 48.7559 176.432 49.3469C175.862 49.9379 175.525 50.2862 175.419 50.3918C175.313 50.4973 175.071 50.6978 174.691 50.9933C174.627 51.0567 174.585 51.0989 174.564 51.12H174.184C174.015 51.12 173.899 51.12 173.836 51.12C173.773 51.12 173.72 51.0883 173.678 51.025C173.635 50.9617 173.604 50.8667 173.583 50.74C173.604 50.7189 173.72 50.5817 173.931 50.3284C177.203 46.93 178.839 41.9169 178.839 35.289C178.839 28.6611 177.203 23.6479 173.931 20.2495C173.72 19.9962 173.604 19.859 173.583 19.8379C173.583 19.6691 173.635 19.553 173.741 19.4897Z" fill="white"/>
<path d="M194.725 32.2178C194.725 31.9434 194.873 31.7323 195.168 31.5845H215.337C215.654 31.7534 215.812 31.9645 215.812 32.2178C215.812 32.45 215.664 32.6505 215.369 32.8193L205.3 32.851H195.232C194.894 32.7455 194.725 32.5344 194.725 32.2178ZM194.725 38.3602C194.725 38.0436 194.894 37.8325 195.232 37.727H215.369C215.664 37.938 215.812 38.1491 215.812 38.3602C215.812 38.6346 215.654 38.8457 215.337 38.9934H195.168C194.873 38.8457 194.725 38.6346 194.725 38.3602Z" fill="white"/>
<path d="M255.034 34.0542C255.182 33.1676 255.752 32.1439 256.744 30.9829C257.736 29.822 258.96 29.231 260.417 29.2099C261.155 29.2099 261.831 29.3998 262.443 29.7798C263.055 30.1597 263.509 30.6347 263.804 31.2046C264.691 29.8748 265.757 29.2099 267.002 29.2099C267.783 29.2099 268.459 29.4421 269.029 29.9064C269.599 30.3708 269.894 30.9935 269.915 31.7745C269.915 32.3866 269.767 32.8827 269.472 33.2626C269.176 33.6426 268.891 33.8747 268.617 33.9592C268.343 34.0436 268.1 34.0858 267.889 34.0858C267.488 34.0858 267.161 33.9697 266.907 33.7375C266.654 33.5054 266.527 33.1993 266.527 32.8193C266.527 31.8484 267.055 31.1835 268.11 30.8246C267.878 30.5502 267.456 30.413 266.844 30.413C266.57 30.413 266.369 30.4341 266.242 30.4764C265.44 30.8141 264.849 31.5106 264.469 32.566C263.203 37.2309 262.57 39.9538 262.57 40.7348C262.57 41.3259 262.738 41.748 263.076 42.0013C263.414 42.2546 263.783 42.3813 264.184 42.3813C264.965 42.3813 265.736 42.033 266.496 41.3364C267.256 40.6399 267.773 39.785 268.047 38.7718C268.11 38.5607 268.174 38.4446 268.237 38.4235C268.3 38.4024 268.469 38.3813 268.744 38.3602H268.87C269.187 38.3602 269.345 38.4446 269.345 38.6135C269.345 38.6346 269.324 38.7507 269.282 38.9618C268.944 40.1649 268.29 41.2309 267.319 42.1596C266.348 43.0884 265.219 43.5528 263.931 43.5528C262.453 43.5528 261.335 42.8879 260.575 41.5581C259.709 42.8667 258.717 43.5211 257.599 43.5211H257.409C256.374 43.5211 255.636 43.2467 255.192 42.6979C254.749 42.1491 254.517 41.5686 254.496 40.9565C254.496 40.281 254.696 39.7322 255.097 39.31C255.498 38.8879 255.973 38.6768 256.522 38.6768C257.43 38.6768 257.884 39.1201 257.884 40.0066C257.884 40.4288 257.757 40.7982 257.504 41.1148C257.25 41.4314 257.008 41.6425 256.775 41.748C256.543 41.8536 256.406 41.9063 256.364 41.9063L256.269 41.938C256.269 41.9591 256.332 42.0013 256.459 42.0646C256.585 42.128 256.754 42.2018 256.965 42.2863C257.176 42.3707 257.377 42.4024 257.567 42.3813C258.327 42.3813 258.981 41.9063 259.53 40.9565C259.72 40.6187 259.963 39.9011 260.258 38.8035C260.554 37.7058 260.849 36.566 261.145 35.384C261.44 34.2019 261.609 33.5054 261.651 33.2943C261.757 32.7244 261.81 32.3127 261.81 32.0595C261.81 31.4684 261.651 31.0463 261.335 30.793C261.018 30.5397 260.659 30.413 260.258 30.413C259.414 30.413 258.622 30.7508 257.884 31.4262C257.145 32.1017 256.628 32.9671 256.332 34.0225C256.29 34.2125 256.237 34.318 256.174 34.3391C256.111 34.3602 255.942 34.3813 255.667 34.4024H255.224C255.097 34.2758 255.034 34.1597 255.034 34.0542Z" fill="white"/>
<path d="M229.388 36.5935C229.262 36.5935 229.114 36.509 228.945 36.3402C228.776 36.1713 228.681 36.0235 228.66 35.8969C228.639 35.7702 228.966 35.4536 229.642 34.947C230.317 34.4404 231.014 33.9127 231.731 33.3639C232.449 32.8151 232.85 32.5091 232.934 32.4457C232.977 32.4035 233.029 32.3824 233.093 32.3824H233.124C233.251 32.3824 233.399 32.5618 233.568 32.9207C233.737 33.2795 234.306 34.5143 235.277 36.6251C235.678 37.5328 236.006 38.261 236.259 38.8098L238.95 44.6673C238.971 44.6673 240.069 42.4193 242.243 37.9233C244.417 33.4273 246.591 28.8996 248.765 24.3403C250.94 19.7809 252.069 17.4485 252.153 17.343C252.28 17.0475 252.491 16.8997 252.786 16.8997C252.934 16.8997 253.061 16.963 253.166 17.0897C253.272 17.2163 253.346 17.343 253.388 17.4696V17.6596L238.57 48.3401C238.486 48.4878 238.285 48.5617 237.969 48.5617C237.779 48.5617 237.652 48.53 237.589 48.4667C237.547 48.4245 236.512 46.187 234.486 41.7544L231.446 35.1053L230.94 35.4536C230.623 35.7069 230.296 35.9602 229.958 36.2135C229.62 36.4668 229.43 36.5935 229.388 36.5935Z" fill="white"/>
<path d="M271.499 18.7994H253.389V16.8997H271.499V18.7994Z" fill="white"/>
<g clip-path="url(#clip0)">
<path d="M399.692 194.076C399.84 193.188 400.411 192.163 401.404 191.001C402.397 189.839 403.623 189.247 405.081 189.226C405.82 189.226 406.497 189.416 407.11 189.797C407.722 190.177 408.177 190.653 408.473 191.223C409.36 189.892 410.427 189.226 411.674 189.226C412.456 189.226 413.132 189.459 413.703 189.923C414.273 190.388 414.569 191.012 414.59 191.794C414.59 192.406 414.442 192.903 414.147 193.283C413.851 193.664 413.565 193.896 413.291 193.981C413.016 194.065 412.773 194.108 412.562 194.108C412.16 194.108 411.833 193.991 411.579 193.759C411.325 193.526 411.199 193.22 411.199 192.84C411.199 191.868 411.727 191.202 412.784 190.843C412.551 190.568 412.128 190.431 411.516 190.431C411.241 190.431 411.04 190.452 410.913 190.494C410.11 190.832 409.519 191.529 409.138 192.586C407.87 197.256 407.236 199.982 407.236 200.764C407.236 201.356 407.405 201.779 407.744 202.032C408.082 202.286 408.451 202.412 408.853 202.412C409.635 202.412 410.406 202.064 411.167 201.366C411.928 200.669 412.445 199.813 412.72 198.799C412.784 198.588 412.847 198.471 412.91 198.45C412.974 198.429 413.143 198.408 413.417 198.387H413.544C413.861 198.387 414.02 198.471 414.02 198.64C414.02 198.662 413.999 198.778 413.956 198.989C413.618 200.194 412.963 201.261 411.991 202.191C411.019 203.12 409.888 203.585 408.599 203.585C407.12 203.585 406 202.92 405.239 201.588C404.373 202.899 403.38 203.554 402.26 203.554H402.07C401.034 203.554 400.294 203.279 399.851 202.729C399.407 202.18 399.174 201.599 399.153 200.986C399.153 200.31 399.354 199.76 399.756 199.338C400.157 198.915 400.633 198.704 401.182 198.704C402.091 198.704 402.545 199.148 402.545 200.035C402.545 200.458 402.418 200.828 402.165 201.145C401.911 201.462 401.668 201.673 401.436 201.779C401.203 201.884 401.066 201.937 401.024 201.937L400.928 201.969C400.928 201.99 400.992 202.032 401.119 202.096C401.245 202.159 401.414 202.233 401.626 202.317C401.837 202.402 402.038 202.434 402.228 202.412C402.989 202.412 403.644 201.937 404.193 200.986C404.384 200.648 404.627 199.929 404.922 198.831C405.218 197.732 405.514 196.591 405.81 195.407C406.106 194.224 406.275 193.526 406.317 193.315C406.423 192.745 406.476 192.333 406.476 192.079C406.476 191.487 406.317 191.065 406 190.811C405.683 190.557 405.324 190.431 404.922 190.431C404.077 190.431 403.285 190.769 402.545 191.445C401.805 192.121 401.288 192.988 400.992 194.044C400.95 194.234 400.897 194.34 400.833 194.361C400.77 194.382 400.601 194.403 400.326 194.425H399.882C399.756 194.298 399.692 194.182 399.692 194.076Z" fill="white"/>
<path d="M374.015 196.618C373.888 196.618 373.74 196.534 373.571 196.365C373.402 196.195 373.307 196.048 373.286 195.921C373.265 195.794 373.593 195.477 374.269 194.97C374.945 194.463 375.642 193.934 376.361 193.385C377.079 192.835 377.481 192.529 377.565 192.466C377.608 192.423 377.66 192.402 377.724 192.402H377.756C377.882 192.402 378.03 192.582 378.199 192.941C378.368 193.3 378.939 194.537 379.911 196.65C380.313 197.558 380.64 198.288 380.894 198.837L383.588 204.701C383.609 204.701 384.708 202.451 386.885 197.949C389.061 193.448 391.238 188.915 393.414 184.351C395.591 179.786 396.722 177.451 396.806 177.346C396.933 177.05 397.144 176.902 397.44 176.902C397.588 176.902 397.715 176.965 397.82 177.092C397.926 177.219 398 177.346 398.042 177.472V177.663L390.657 192.973L383.208 208.378C383.123 208.526 382.922 208.6 382.605 208.6C382.415 208.6 382.288 208.568 382.225 208.505C382.183 208.463 381.147 206.223 379.119 201.785L376.076 195.128L375.568 195.477C375.251 195.731 374.924 195.984 374.586 196.238C374.248 196.491 374.057 196.618 374.015 196.618Z" fill="white"/>
<path d="M416.176 178.804H398.045V176.902H416.176V178.804Z" fill="white"/>
</g>
<g clip-path="url(#clip1)">
<path d="M422.692 324.076C422.84 323.188 423.411 322.163 424.404 321.001C425.397 319.839 426.623 319.247 428.081 319.226C428.82 319.226 429.497 319.416 430.11 319.797C430.722 320.177 431.177 320.652 431.473 321.223C432.36 319.892 433.427 319.226 434.674 319.226C435.456 319.226 436.132 319.459 436.703 319.923C437.273 320.388 437.569 321.012 437.59 321.794C437.59 322.406 437.442 322.903 437.147 323.283C436.851 323.664 436.565 323.896 436.291 323.981C436.016 324.065 435.773 324.108 435.562 324.108C435.16 324.108 434.833 323.991 434.579 323.759C434.325 323.526 434.199 323.22 434.199 322.84C434.199 321.868 434.727 321.202 435.784 320.843C435.551 320.568 435.128 320.431 434.516 320.431C434.241 320.431 434.04 320.452 433.913 320.494C433.11 320.832 432.519 321.529 432.138 322.586C430.87 327.256 430.236 329.982 430.236 330.764C430.236 331.356 430.405 331.779 430.744 332.032C431.082 332.286 431.451 332.412 431.853 332.412C432.635 332.412 433.406 332.064 434.167 331.366C434.928 330.669 435.445 329.813 435.72 328.799C435.784 328.588 435.847 328.471 435.91 328.45C435.974 328.429 436.143 328.408 436.417 328.387H436.544C436.861 328.387 437.02 328.471 437.02 328.64C437.02 328.662 436.999 328.778 436.956 328.989C436.618 330.194 435.963 331.261 434.991 332.191C434.019 333.12 432.888 333.585 431.599 333.585C430.12 333.585 429 332.92 428.239 331.588C427.373 332.899 426.38 333.554 425.26 333.554H425.07C424.034 333.554 423.294 333.279 422.851 332.729C422.407 332.18 422.174 331.599 422.153 330.986C422.153 330.31 422.354 329.76 422.756 329.338C423.157 328.915 423.633 328.704 424.182 328.704C425.091 328.704 425.545 329.148 425.545 330.035C425.545 330.458 425.418 330.828 425.165 331.145C424.911 331.462 424.668 331.673 424.436 331.779C424.203 331.884 424.066 331.937 424.024 331.937L423.928 331.969C423.928 331.99 423.992 332.032 424.119 332.096C424.245 332.159 424.414 332.233 424.626 332.317C424.837 332.402 425.038 332.434 425.228 332.412C425.989 332.412 426.644 331.937 427.193 330.986C427.384 330.648 427.627 329.929 427.922 328.831C428.218 327.732 428.514 326.591 428.81 325.407C429.106 324.224 429.275 323.526 429.317 323.315C429.423 322.745 429.476 322.332 429.476 322.079C429.476 321.487 429.317 321.065 429 320.811C428.683 320.557 428.324 320.431 427.922 320.431C427.077 320.431 426.285 320.769 425.545 321.445C424.805 322.121 424.288 322.988 423.992 324.044C423.95 324.234 423.897 324.34 423.833 324.361C423.77 324.382 423.601 324.403 423.326 324.425H422.882C422.756 324.298 422.692 324.182 422.692 324.076Z" fill="white"/>
<path d="M397.015 326.618C396.888 326.618 396.74 326.534 396.571 326.365C396.402 326.195 396.307 326.048 396.286 325.921C396.265 325.794 396.593 325.477 397.269 324.97C397.945 324.463 398.642 323.934 399.361 323.385C400.079 322.835 400.481 322.529 400.565 322.466C400.608 322.423 400.66 322.402 400.724 322.402H400.756C400.882 322.402 401.03 322.582 401.199 322.941C401.368 323.3 401.939 324.537 402.911 326.65C403.313 327.558 403.64 328.288 403.894 328.837L406.588 334.701C406.609 334.701 407.708 332.451 409.885 327.949C412.061 323.448 414.238 318.915 416.414 314.351C418.591 309.786 419.722 307.451 419.806 307.346C419.933 307.05 420.144 306.902 420.44 306.902C420.588 306.902 420.715 306.965 420.82 307.092C420.926 307.219 421 307.346 421.042 307.472V307.663L413.657 322.973L406.208 338.378C406.123 338.526 405.922 338.6 405.605 338.6C405.415 338.6 405.288 338.568 405.225 338.505C405.183 338.463 404.147 336.223 402.119 331.785L399.076 325.128L398.568 325.477C398.251 325.731 397.924 325.984 397.586 326.238C397.248 326.491 397.057 326.618 397.015 326.618Z" fill="white"/>
<path d="M439.176 308.804H421.045V306.902H439.176V308.804Z" fill="white"/>
</g>
<g clip-path="url(#clip2)">
<path d="M337.692 389.076C337.84 388.188 338.411 387.163 339.404 386.001C340.397 384.839 341.623 384.247 343.081 384.226C343.82 384.226 344.497 384.416 345.11 384.797C345.722 385.177 346.177 385.652 346.473 386.223C347.36 384.892 348.427 384.226 349.674 384.226C350.456 384.226 351.132 384.459 351.703 384.923C352.273 385.388 352.569 386.012 352.59 386.794C352.59 387.406 352.442 387.903 352.147 388.283C351.851 388.664 351.565 388.896 351.291 388.981C351.016 389.065 350.773 389.108 350.562 389.108C350.16 389.108 349.833 388.991 349.579 388.759C349.325 388.526 349.199 388.22 349.199 387.84C349.199 386.868 349.727 386.202 350.784 385.843C350.551 385.568 350.128 385.431 349.516 385.431C349.241 385.431 349.04 385.452 348.913 385.494C348.11 385.832 347.519 386.529 347.138 387.586C345.87 392.256 345.236 394.982 345.236 395.764C345.236 396.356 345.405 396.779 345.744 397.032C346.082 397.286 346.451 397.412 346.853 397.412C347.635 397.412 348.406 397.064 349.167 396.366C349.928 395.669 350.445 394.813 350.72 393.799C350.784 393.588 350.847 393.471 350.91 393.45C350.974 393.429 351.143 393.408 351.417 393.387H351.544C351.861 393.387 352.02 393.471 352.02 393.64C352.02 393.662 351.999 393.778 351.956 393.989C351.618 395.194 350.963 396.261 349.991 397.191C349.019 398.12 347.888 398.585 346.599 398.585C345.12 398.585 344 397.92 343.239 396.588C342.373 397.899 341.38 398.554 340.26 398.554H340.07C339.034 398.554 338.294 398.279 337.851 397.729C337.407 397.18 337.174 396.599 337.153 395.986C337.153 395.31 337.354 394.76 337.756 394.338C338.157 393.915 338.633 393.704 339.182 393.704C340.091 393.704 340.545 394.148 340.545 395.035C340.545 395.458 340.418 395.828 340.165 396.145C339.911 396.462 339.668 396.673 339.436 396.779C339.203 396.884 339.066 396.937 339.024 396.937L338.928 396.969C338.928 396.99 338.992 397.032 339.119 397.096C339.245 397.159 339.414 397.233 339.626 397.317C339.837 397.402 340.038 397.434 340.228 397.412C340.989 397.412 341.644 396.937 342.193 395.986C342.384 395.648 342.627 394.929 342.922 393.831C343.218 392.732 343.514 391.591 343.81 390.407C344.106 389.224 344.275 388.526 344.317 388.315C344.423 387.745 344.476 387.332 344.476 387.079C344.476 386.487 344.317 386.065 344 385.811C343.683 385.557 343.324 385.431 342.922 385.431C342.077 385.431 341.285 385.769 340.545 386.445C339.805 387.121 339.288 387.988 338.992 389.044C338.95 389.234 338.897 389.34 338.833 389.361C338.77 389.382 338.601 389.403 338.326 389.425H337.882C337.756 389.298 337.692 389.182 337.692 389.076Z" fill="white"/>
<path d="M312.015 391.618C311.888 391.618 311.74 391.534 311.571 391.365C311.402 391.195 311.307 391.048 311.286 390.921C311.265 390.794 311.593 390.477 312.269 389.97C312.945 389.463 313.642 388.934 314.361 388.385C315.079 387.835 315.481 387.529 315.565 387.466C315.608 387.423 315.66 387.402 315.724 387.402H315.756C315.882 387.402 316.03 387.582 316.199 387.941C316.368 388.3 316.939 389.537 317.911 391.65C318.313 392.558 318.64 393.288 318.894 393.837L321.588 399.701C321.609 399.701 322.708 397.451 324.885 392.949C327.061 388.448 329.238 383.915 331.414 379.351C333.591 374.786 334.722 372.451 334.806 372.346C334.933 372.05 335.144 371.902 335.44 371.902C335.588 371.902 335.715 371.965 335.82 372.092C335.926 372.219 336 372.346 336.042 372.472V372.663L328.657 387.973L321.208 403.378C321.123 403.526 320.922 403.6 320.605 403.6C320.415 403.6 320.288 403.568 320.225 403.505C320.183 403.463 319.147 401.223 317.119 396.785L314.076 390.128L313.568 390.477C313.251 390.731 312.924 390.984 312.586 391.238C312.248 391.491 312.057 391.618 312.015 391.618Z" fill="white"/>
<path d="M354.176 373.804H336.045V371.902H354.176V373.804Z" fill="white"/>
</g>
<g clip-path="url(#clip3)">
<path d="M197.692 389.076C197.84 388.188 198.411 387.163 199.404 386.001C200.397 384.839 201.623 384.247 203.081 384.226C203.82 384.226 204.497 384.416 205.11 384.797C205.722 385.177 206.177 385.652 206.473 386.223C207.36 384.892 208.427 384.226 209.674 384.226C210.456 384.226 211.132 384.459 211.703 384.923C212.273 385.388 212.569 386.012 212.59 386.794C212.59 387.406 212.442 387.903 212.147 388.283C211.851 388.664 211.565 388.896 211.291 388.981C211.016 389.065 210.773 389.108 210.562 389.108C210.16 389.108 209.833 388.991 209.579 388.759C209.325 388.526 209.199 388.22 209.199 387.84C209.199 386.868 209.727 386.202 210.784 385.843C210.551 385.568 210.128 385.431 209.516 385.431C209.241 385.431 209.04 385.452 208.913 385.494C208.11 385.832 207.519 386.529 207.138 387.586C205.87 392.256 205.236 394.982 205.236 395.764C205.236 396.356 205.405 396.779 205.744 397.032C206.082 397.286 206.451 397.412 206.853 397.412C207.635 397.412 208.406 397.064 209.167 396.366C209.928 395.669 210.445 394.813 210.72 393.799C210.784 393.588 210.847 393.471 210.91 393.45C210.974 393.429 211.143 393.408 211.417 393.387H211.544C211.861 393.387 212.02 393.471 212.02 393.64C212.02 393.662 211.999 393.778 211.956 393.989C211.618 395.194 210.963 396.261 209.991 397.191C209.019 398.12 207.888 398.585 206.599 398.585C205.12 398.585 204 397.92 203.239 396.588C202.373 397.899 201.38 398.554 200.26 398.554H200.07C199.034 398.554 198.294 398.279 197.851 397.729C197.407 397.18 197.174 396.599 197.153 395.986C197.153 395.31 197.354 394.76 197.756 394.338C198.157 393.915 198.633 393.704 199.182 393.704C200.091 393.704 200.545 394.148 200.545 395.035C200.545 395.458 200.418 395.828 200.165 396.145C199.911 396.462 199.668 396.673 199.436 396.779C199.203 396.884 199.066 396.937 199.024 396.937L198.928 396.969C198.928 396.99 198.992 397.032 199.119 397.096C199.245 397.159 199.414 397.233 199.626 397.317C199.837 397.402 200.038 397.434 200.228 397.412C200.989 397.412 201.644 396.937 202.193 395.986C202.384 395.648 202.627 394.929 202.922 393.831C203.218 392.732 203.514 391.591 203.81 390.407C204.106 389.224 204.275 388.526 204.317 388.315C204.423 387.745 204.476 387.332 204.476 387.079C204.476 386.487 204.317 386.065 204 385.811C203.683 385.557 203.324 385.431 202.922 385.431C202.077 385.431 201.285 385.769 200.545 386.445C199.805 387.121 199.288 387.988 198.992 389.044C198.95 389.234 198.897 389.34 198.833 389.361C198.77 389.382 198.601 389.403 198.326 389.425H197.882C197.756 389.298 197.692 389.182 197.692 389.076Z" fill="white"/>
<path d="M172.015 391.618C171.888 391.618 171.74 391.534 171.571 391.365C171.402 391.195 171.307 391.048 171.286 390.921C171.265 390.794 171.593 390.477 172.269 389.97C172.945 389.463 173.642 388.934 174.361 388.385C175.079 387.835 175.481 387.529 175.565 387.466C175.608 387.423 175.66 387.402 175.724 387.402H175.756C175.882 387.402 176.03 387.582 176.199 387.941C176.368 388.3 176.939 389.537 177.911 391.65C178.313 392.558 178.64 393.288 178.894 393.837L181.588 399.701C181.609 399.701 182.708 397.451 184.885 392.949C187.061 388.448 189.238 383.915 191.414 379.351C193.591 374.786 194.722 372.451 194.806 372.346C194.933 372.05 195.144 371.902 195.44 371.902C195.588 371.902 195.715 371.965 195.82 372.092C195.926 372.219 196 372.346 196.042 372.472V372.663L188.657 387.973L181.208 403.378C181.123 403.526 180.922 403.6 180.605 403.6C180.415 403.6 180.288 403.568 180.225 403.505C180.183 403.463 179.147 401.223 177.119 396.785L174.076 390.128L173.568 390.477C173.251 390.731 172.924 390.984 172.586 391.238C172.248 391.491 172.057 391.618 172.015 391.618Z" fill="white"/>
<path d="M214.176 373.804H196.045V371.902H214.176V373.804Z" fill="white"/>
</g>
<path d="M148.65 206C148.29 205.94 147.14 205.91 145.2 205.91C143.42 205.91 142.41 205.94 142.17 206H141.96V204.62H142.41C143.85 204.56 144.77 204.14 145.17 203.36C145.19 203.3 145.72 201.73 146.76 198.65C147.8 195.55 148.83 192.47 149.85 189.41C150.89 186.33 151.42 184.78 151.44 184.76C151.5 184.6 151.69 184.52 152.01 184.52H152.28C152.68 184.54 152.92 184.61 153 184.73C153.02 184.75 153.99 187.61 155.91 193.31C157.85 199.01 159.05 202.57 159.51 203.99C159.57 204.11 159.64 204.21 159.72 204.29C159.94 204.49 160.57 204.6 161.61 204.62H162.51V206H162.24C161.94 205.94 160.67 205.91 158.43 205.91C155.85 205.91 154.41 205.94 154.11 206H153.81V204.62H154.2C155.6 204.62 156.3 204.44 156.3 204.08C156.3 204.04 156.06 203.3 155.58 201.86L154.86 199.73H147.87L147.27 201.5C146.87 202.68 146.67 203.33 146.67 203.45C146.67 203.55 146.7 203.64 146.76 203.72C146.88 203.98 147.13 204.2 147.51 204.38C147.91 204.54 148.33 204.62 148.77 204.62H148.92V206H148.65ZM153.48 195.59C152.9 193.85 152.39 192.34 151.95 191.06L151.35 189.29L149.85 193.79L148.32 198.32C148.32 198.34 149.33 198.35 151.35 198.35H154.41L153.48 195.59ZM164.58 204.62H165C165.78 204.62 166.25 204.48 166.41 204.2V203.96C166.41 203.78 166.41 203.55 166.41 203.27C166.43 202.99 166.44 202.68 166.44 202.34C166.44 201.98 166.44 201.59 166.44 201.17C166.44 200.73 166.44 200.31 166.44 199.91C166.44 199.29 166.44 198.63 166.44 197.93C166.44 197.21 166.44 196.62 166.44 196.16L166.41 195.47C166.35 195.09 166.2 194.84 165.96 194.72C165.74 194.58 165.3 194.49 164.64 194.45H164.1V193.76C164.1 193.3 164.12 193.07 164.16 193.07L164.46 193.04C164.66 193.02 164.94 193 165.3 192.98C165.66 192.96 166.02 192.94 166.38 192.92C166.7 192.9 167.05 192.88 167.43 192.86C167.81 192.82 168.1 192.79 168.3 192.77C168.5 192.75 168.61 192.74 168.63 192.74H168.72V194.81C169.1 194.17 169.52 193.67 169.98 193.31C170.44 192.95 171.05 192.77 171.81 192.77C172.37 192.77 172.85 192.88 173.25 193.1C174.03 193.5 174.42 194.07 174.42 194.81C174.42 195.25 174.27 195.62 173.97 195.92C173.67 196.2 173.31 196.34 172.89 196.34C172.47 196.34 172.11 196.2 171.81 195.92C171.53 195.64 171.39 195.28 171.39 194.84C171.39 194.5 171.47 194.22 171.63 194C171.67 193.92 171.69 193.87 171.69 193.85C171.65 193.81 171.42 193.85 171 193.97C170.68 194.13 170.44 194.28 170.28 194.42C169.48 195.18 169.02 196.44 168.9 198.2V199.37C168.88 200.15 168.87 200.82 168.87 201.38C168.87 201.64 168.87 201.92 168.87 202.22C168.87 202.5 168.87 202.75 168.87 202.97C168.89 203.19 168.9 203.39 168.9 203.57C168.9 203.75 168.9 203.9 168.9 204.02V204.17C168.98 204.33 169.1 204.43 169.26 204.47C169.46 204.55 169.99 204.6 170.85 204.62H171.78V206H171.51C171.15 205.94 169.88 205.91 167.7 205.91C165.74 205.91 164.62 205.94 164.34 206H164.1V204.62H164.58ZM187.698 198.65C187.698 198.79 187.628 198.93 187.488 199.07H179.028V199.52C179.028 201 179.228 202.12 179.628 202.88C180.348 204.36 181.588 205.1 183.348 205.1C184.208 205.1 184.928 204.78 185.508 204.14C185.908 203.74 186.218 203.22 186.438 202.58C186.498 202.36 186.558 202.22 186.618 202.16C186.678 202.1 186.838 202.07 187.098 202.07C187.498 202.07 187.698 202.17 187.698 202.37C187.698 202.45 187.668 202.58 187.608 202.76C187.228 203.8 186.618 204.66 185.778 205.34C184.958 206 183.948 206.33 182.748 206.33C182.368 206.33 181.928 206.28 181.428 206.18C180.288 205.96 179.268 205.44 178.368 204.62C177.468 203.8 176.828 202.81 176.448 201.65C176.208 200.93 176.088 200.2 176.088 199.46C176.088 197.62 176.628 196.07 177.708 194.81C178.788 193.53 180.118 192.79 181.698 192.59C181.778 192.57 181.918 192.56 182.118 192.56C183.938 192.56 185.318 193.1 186.258 194.18C187.218 195.24 187.698 196.73 187.698 198.65ZM185.238 197.75C185.058 195.57 184.318 194.25 183.018 193.79C182.878 193.73 182.668 193.69 182.388 193.67C181.348 193.67 180.498 194.15 179.838 195.11C179.438 195.75 179.178 196.64 179.058 197.78V197.99H185.238V197.75ZM193.198 196.37C192.898 196.69 192.518 196.85 192.058 196.85C191.598 196.85 191.218 196.69 190.918 196.37C190.618 196.05 190.468 195.67 190.468 195.23C190.468 194.95 190.548 194.63 190.708 194.27C190.968 193.73 191.488 193.31 192.268 193.01C193.048 192.71 193.998 192.56 195.118 192.56C196.438 192.56 197.578 192.86 198.538 193.46C199.518 194.06 200.158 194.84 200.458 195.8C200.558 196.08 200.608 196.4 200.608 196.76C200.628 197.1 200.638 198.24 200.638 200.18C200.638 202.14 200.638 203.29 200.638 203.63C200.658 203.95 200.718 204.2 200.818 204.38C200.938 204.66 201.138 204.8 201.418 204.8C201.678 204.8 201.868 204.66 201.988 204.38C202.108 204.14 202.168 203.59 202.168 202.73V201.65H203.368V202.82C203.348 203.62 203.318 204.09 203.278 204.23C203.098 204.79 202.768 205.26 202.288 205.64C201.808 206 201.238 206.18 200.578 206.18C200.078 206.18 199.628 206.01 199.228 205.67C198.848 205.31 198.588 204.88 198.448 204.38V204.26C198.388 204.32 198.268 204.46 198.088 204.68C197.908 204.88 197.778 205.02 197.698 205.1C196.718 205.92 195.578 206.33 194.278 206.33C193.238 206.33 192.308 206.11 191.488 205.67C190.668 205.23 190.118 204.65 189.838 203.93C189.678 203.55 189.598 203.17 189.598 202.79C189.598 201.85 189.988 200.99 190.768 200.21C191.228 199.75 191.798 199.37 192.478 199.07C193.838 198.45 195.578 198.08 197.698 197.96H198.118V197.3C198.118 196.62 198.058 196.12 197.938 195.8C197.738 195.14 197.388 194.62 196.888 194.24C196.388 193.86 195.768 193.67 195.028 193.67C193.688 193.67 193.018 193.75 193.018 193.91C193.458 194.21 193.678 194.65 193.678 195.23C193.678 195.67 193.518 196.05 193.198 196.37ZM198.118 200.75C198.118 199.59 198.108 199.01 198.088 199.01C198.028 199.01 197.978 199.02 197.938 199.04C195.198 199.22 193.448 200.03 192.688 201.47C192.468 201.87 192.358 202.32 192.358 202.82C192.358 203.5 192.598 204.07 193.078 204.53C193.558 204.99 194.148 205.22 194.848 205.22C195.648 205.22 196.328 204.98 196.888 204.5C197.468 204.02 197.848 203.43 198.028 202.73C198.068 202.59 198.098 201.93 198.118 200.75ZM212.758 195.59C212.758 195.33 212.898 195.13 213.178 194.99H232.288C232.588 195.13 232.738 195.33 232.738 195.59C232.738 195.81 232.598 196 232.318 196.16L222.778 196.19H213.238C212.918 196.09 212.758 195.89 212.758 195.59ZM212.758 201.41C212.758 201.11 212.918 200.91 213.238 200.81H232.318C232.338 200.83 232.378 200.87 232.438 200.93C232.518 200.97 232.568 201.01 232.588 201.05C232.628 201.07 232.658 201.12 232.678 201.2C232.718 201.26 232.738 201.33 232.738 201.41C232.738 201.67 232.588 201.87 232.288 202.01H213.178C212.898 201.87 212.758 201.67 212.758 201.41ZM243.668 197.66C243.548 197.54 243.488 197.43 243.488 197.33C243.568 196.79 243.878 196.1 244.418 195.26C245.358 193.84 246.538 193.02 247.958 192.8C248.238 192.76 248.448 192.74 248.588 192.74C249.288 192.74 249.928 192.92 250.508 193.28C251.108 193.64 251.538 194.09 251.798 194.63C252.058 194.29 252.218 194.08 252.278 194C253.018 193.16 253.868 192.74 254.828 192.74C255.648 192.74 256.308 192.98 256.808 193.46C257.328 193.92 257.588 194.49 257.588 195.17C257.588 195.79 257.408 196.31 257.048 196.73C256.708 197.15 256.248 197.36 255.668 197.36C255.288 197.36 254.978 197.25 254.738 197.03C254.498 196.81 254.378 196.52 254.378 196.16C254.378 195.24 254.878 194.61 255.878 194.27C255.878 194.25 255.768 194.18 255.548 194.06C255.348 193.94 255.058 193.88 254.678 193.88C254.418 193.88 254.228 193.9 254.108 193.94C253.348 194.26 252.788 194.92 252.428 195.92C252.368 196.08 252.078 197.2 251.558 199.28C251.038 201.34 250.758 202.5 250.718 202.76C250.658 203.06 250.628 203.36 250.628 203.66C250.628 204.14 250.768 204.52 251.048 204.8C251.328 205.08 251.698 205.22 252.158 205.22C252.998 205.22 253.758 204.87 254.438 204.17C255.118 203.45 255.578 202.66 255.818 201.8C255.878 201.6 255.938 201.49 255.998 201.47C256.058 201.43 256.218 201.41 256.478 201.41C256.858 201.41 257.048 201.49 257.048 201.65C257.048 201.67 257.028 201.78 256.988 201.98C256.648 203.22 255.948 204.3 254.888 205.22C253.948 205.96 252.958 206.33 251.918 206.33C250.518 206.33 249.458 205.7 248.738 204.44C248.158 205.34 247.418 205.94 246.518 206.24C246.338 206.28 246.078 206.3 245.738 206.3C244.578 206.3 243.758 205.89 243.278 205.07C243.078 204.73 242.978 204.33 242.978 203.87C242.978 203.27 243.158 202.76 243.518 202.34C243.878 201.92 244.338 201.71 244.898 201.71C245.758 201.71 246.188 202.13 246.188 202.97C246.188 203.71 245.838 204.25 245.138 204.59C245.098 204.61 245.048 204.64 244.988 204.68C244.928 204.7 244.878 204.72 244.838 204.74C244.798 204.76 244.768 204.77 244.748 204.77L244.658 204.8C244.658 204.86 244.808 204.95 245.108 205.07C245.348 205.17 245.608 205.22 245.888 205.22C246.608 205.22 247.228 204.77 247.748 203.87C247.968 203.51 248.358 202.21 248.918 199.97C249.038 199.51 249.168 199 249.308 198.44C249.448 197.88 249.548 197.45 249.608 197.15C249.688 196.85 249.738 196.67 249.758 196.61C249.858 196.07 249.908 195.68 249.908 195.44C249.908 194.96 249.778 194.58 249.518 194.3C249.258 194.02 248.898 193.88 248.438 193.88C247.538 193.88 246.758 194.23 246.098 194.93C245.438 195.61 244.978 196.4 244.718 197.3C244.678 197.48 244.628 197.59 244.568 197.63C244.528 197.65 244.368 197.66 244.088 197.66H243.668Z" fill="white"/>
<path d="M312 348L312 72" stroke="white" stroke-dasharray="6 6"/>
<path d="M332 348L332 72" stroke="white" stroke-dasharray="6 6"/>
<path d="M72 312L348 312" stroke="white" stroke-dasharray="6 6"/>
<path d="M72 332L348 332" stroke="white" stroke-dasharray="6 6"/>
<g clip-path="url(#clip4)">
<path d="M499.565 230.067C499.586 230.067 500.346 230.015 501.845 229.909C503.344 229.803 504.115 229.74 504.157 229.719C504.411 229.719 504.537 229.803 504.537 229.972C504.537 230.12 503.767 233.308 502.225 239.537C500.684 245.766 499.892 248.943 499.85 249.07C499.808 249.197 499.797 249.355 499.818 249.545C499.818 250.432 500.114 250.875 500.705 250.875C500.895 250.854 501.106 250.759 501.339 250.59C501.782 250.168 502.215 249.154 502.637 247.55C502.764 247.128 502.869 246.906 502.954 246.885C502.996 246.864 503.102 246.853 503.271 246.853H503.397H503.524C503.841 246.853 503.999 246.937 503.999 247.106C503.999 247.212 503.967 247.381 503.904 247.613C503.629 248.669 503.313 249.524 502.954 250.178C502.595 250.833 502.299 251.255 502.067 251.445C501.835 251.635 501.539 251.804 501.18 251.952C501.011 251.994 500.758 252.015 500.42 252.015C499.702 252.015 499.101 251.857 498.615 251.54C498.129 251.224 497.813 250.896 497.665 250.559L497.475 250.083C497.454 250.062 497.411 250.073 497.348 250.115C497.306 250.157 497.264 250.2 497.221 250.242C495.976 251.424 494.709 252.015 493.421 252.015C492.26 252.015 491.236 251.593 490.349 250.749C489.462 249.904 489.019 248.563 489.019 246.726C489.019 245.713 489.23 244.678 489.652 243.623C490.074 242.567 490.581 241.659 491.172 240.899C492.165 239.695 493.157 238.861 494.149 238.397C495.142 237.932 496.039 237.7 496.841 237.7C498.024 237.7 498.91 238.143 499.502 239.03C499.607 239.157 499.66 239.199 499.66 239.157C499.681 239.072 499.966 237.922 500.515 235.705C501.064 233.488 501.36 232.316 501.402 232.189C501.402 231.915 501.328 231.746 501.18 231.683C501.032 231.619 500.621 231.566 499.945 231.524H499.28C499.153 231.398 499.09 231.313 499.09 231.271C499.09 231.229 499.111 231.028 499.153 230.669C499.259 230.268 499.396 230.067 499.565 230.067ZM499.122 241.374C498.636 239.706 497.844 238.872 496.746 238.872C496.007 238.872 495.3 239.199 494.624 239.854C493.949 240.508 493.421 241.363 493.041 242.419C492.428 244.087 491.996 245.818 491.742 247.613C491.742 247.676 491.742 247.793 491.742 247.962C491.742 248.13 491.732 248.257 491.711 248.342C491.711 249.292 491.901 249.946 492.281 250.305C492.661 250.664 493.115 250.854 493.643 250.875C494.783 250.875 495.955 250.115 497.158 248.595L497.411 248.247L499.122 241.374Z" fill="white"/>
<path d="M507.421 243.781C507.421 242.324 507.526 240.941 507.738 239.632C507.949 238.323 508.192 237.193 508.466 236.243C508.741 235.293 509.131 234.364 509.638 233.456C510.145 232.548 510.546 231.841 510.841 231.334C511.137 230.827 511.58 230.278 512.172 229.687C512.763 229.096 513.111 228.737 513.217 228.61C513.322 228.484 513.586 228.262 514.008 227.945H514.42H514.547C514.842 227.945 514.99 228.04 514.99 228.23C514.99 228.294 514.811 228.515 514.452 228.895C514.093 229.276 513.66 229.835 513.153 230.574C512.647 231.313 512.129 232.221 511.601 233.298C511.074 234.375 510.63 235.831 510.271 237.668C509.912 239.505 509.733 241.543 509.733 243.781C509.733 246.019 509.912 248.046 510.271 249.862C510.63 251.678 511.063 253.145 511.57 254.264C512.077 255.383 512.594 256.291 513.122 256.988C513.65 257.685 514.093 258.244 514.452 258.666C514.811 259.089 514.99 259.31 514.99 259.331C514.99 259.521 514.832 259.616 514.515 259.616H514.42H514.008L513.122 258.856C511.137 257.062 509.691 254.824 508.783 252.142C507.875 249.461 507.421 246.674 507.421 243.781Z" fill="white"/>
<path d="M545.427 242.546C545.575 241.659 546.145 240.635 547.137 239.474C548.13 238.312 549.354 237.721 550.811 237.7C551.55 237.7 552.226 237.89 552.838 238.27C553.45 238.65 553.904 239.125 554.2 239.695C555.087 238.365 556.153 237.7 557.399 237.7C558.18 237.7 558.856 237.932 559.426 238.397C559.996 238.861 560.291 239.484 560.313 240.265C560.313 240.878 560.165 241.374 559.869 241.754C559.574 242.134 559.288 242.366 559.014 242.451C558.74 242.535 558.497 242.577 558.286 242.577C557.884 242.577 557.557 242.461 557.304 242.229C557.05 241.997 556.924 241.691 556.924 241.311C556.924 240.339 557.452 239.674 558.507 239.315C558.275 239.041 557.853 238.904 557.24 238.904C556.966 238.904 556.765 238.925 556.639 238.967C555.836 239.305 555.245 240.001 554.865 241.057C553.598 245.723 552.965 248.447 552.965 249.228C552.965 249.82 553.134 250.242 553.472 250.495C553.809 250.749 554.179 250.875 554.58 250.875C555.361 250.875 556.132 250.527 556.892 249.83C557.652 249.133 558.169 248.278 558.444 247.265C558.507 247.054 558.571 246.937 558.634 246.916C558.697 246.895 558.866 246.874 559.141 246.853H559.267C559.584 246.853 559.742 246.937 559.742 247.106C559.742 247.127 559.721 247.244 559.679 247.455C559.341 248.658 558.687 249.724 557.715 250.654C556.744 251.583 555.615 252.047 554.327 252.047C552.849 252.047 551.73 251.382 550.97 250.052C550.104 251.361 549.111 252.015 547.992 252.015H547.802C546.768 252.015 546.029 251.741 545.585 251.192C545.142 250.643 544.91 250.062 544.889 249.45C544.889 248.774 545.089 248.225 545.49 247.803C545.892 247.381 546.367 247.17 546.916 247.17C547.824 247.17 548.277 247.613 548.277 248.5C548.277 248.922 548.151 249.292 547.897 249.608C547.644 249.925 547.401 250.136 547.169 250.242C546.937 250.347 546.799 250.4 546.757 250.4L546.662 250.432C546.662 250.453 546.726 250.495 546.852 250.558C546.979 250.622 547.148 250.696 547.359 250.78C547.57 250.865 547.771 250.896 547.961 250.875C548.721 250.875 549.375 250.4 549.924 249.45C550.114 249.112 550.357 248.394 550.653 247.296C550.948 246.198 551.244 245.058 551.54 243.876C551.835 242.694 552.004 241.997 552.046 241.786C552.152 241.216 552.205 240.804 552.205 240.55C552.205 239.959 552.046 239.537 551.73 239.284C551.413 239.03 551.054 238.904 550.653 238.904C549.808 238.904 549.016 239.241 548.277 239.917C547.538 240.593 547.021 241.458 546.726 242.514C546.683 242.704 546.631 242.81 546.567 242.831C546.504 242.852 546.335 242.873 546.061 242.894H545.617C545.49 242.767 545.427 242.651 545.427 242.546Z" fill="white"/>
<path d="M519.771 246.6C519.645 246.6 519.497 246.515 519.328 246.346C519.159 246.177 519.064 246.03 519.043 245.903C519.022 245.776 519.349 245.459 520.025 244.953C520.7 244.446 521.397 243.918 522.115 243.369C522.833 242.82 523.234 242.514 523.319 242.451C523.361 242.408 523.414 242.387 523.477 242.387H523.509C523.635 242.387 523.783 242.567 523.952 242.926C524.121 243.285 524.691 244.52 525.662 246.631C526.063 247.539 526.391 248.268 526.644 248.817L529.336 254.676C529.357 254.676 530.455 252.427 532.63 247.93C534.805 243.433 536.979 238.904 539.154 234.343C541.329 229.782 542.458 227.449 542.543 227.344C542.67 227.048 542.881 226.9 543.176 226.9C543.324 226.9 543.451 226.964 543.556 227.09C543.662 227.217 543.736 227.344 543.778 227.47V227.66L536.399 242.957L528.956 258.35C528.872 258.497 528.671 258.571 528.354 258.571C528.164 258.571 528.038 258.54 527.974 258.476C527.932 258.434 526.897 256.196 524.87 251.762L521.83 245.111L521.323 245.459C521.007 245.713 520.679 245.966 520.341 246.22C520.004 246.473 519.814 246.6 519.771 246.6Z" fill="white"/>
<path d="M561.897 228.8H543.781V226.9H561.897V228.8Z" fill="white"/>
<path d="M563.791 227.977L563.918 227.945C564.023 227.945 564.129 227.945 564.235 227.945H564.615L565.501 228.705C567.486 230.5 568.932 232.738 569.84 235.42C570.748 238.101 571.202 240.888 571.202 243.781C571.202 245.217 571.097 246.6 570.886 247.93C570.674 249.26 570.432 250.39 570.157 251.319C569.883 252.248 569.492 253.177 568.985 254.106C568.478 255.035 568.077 255.742 567.782 256.228C567.486 256.713 567.053 257.252 566.483 257.843C565.913 258.434 565.575 258.782 565.47 258.888C565.364 258.994 565.121 259.194 564.741 259.49C564.678 259.553 564.636 259.595 564.615 259.616H564.235C564.066 259.616 563.95 259.616 563.886 259.616C563.823 259.616 563.77 259.585 563.728 259.521C563.686 259.458 563.654 259.363 563.633 259.236C563.654 259.215 563.77 259.078 563.981 258.825C567.254 255.425 568.89 250.411 568.89 243.781C568.89 237.151 567.254 232.136 563.981 228.737C563.77 228.484 563.654 228.347 563.633 228.325C563.633 228.156 563.686 228.04 563.791 227.977Z" fill="white"/>
<path d="M525.391 274.28C525.412 274.28 526.172 274.227 527.672 274.122C529.171 274.016 529.941 273.953 529.984 273.932C530.237 273.932 530.364 274.016 530.364 274.185C530.364 274.333 529.593 277.521 528.052 283.75C526.51 289.978 525.718 293.156 525.676 293.283C525.634 293.41 525.623 293.568 525.645 293.758C525.645 294.645 525.94 295.088 526.531 295.088C526.721 295.067 526.933 294.972 527.165 294.803C527.608 294.381 528.041 293.367 528.463 291.763C528.59 291.34 528.696 291.119 528.78 291.098C528.822 291.076 528.928 291.066 529.097 291.066H529.223H529.35C529.667 291.066 529.825 291.15 529.825 291.319C529.825 291.425 529.793 291.594 529.73 291.826C529.456 292.882 529.139 293.737 528.78 294.391C528.421 295.046 528.125 295.468 527.893 295.658C527.661 295.848 527.365 296.017 527.006 296.165C526.838 296.207 526.584 296.228 526.246 296.228C525.528 296.228 524.927 296.07 524.441 295.753C523.955 295.436 523.639 295.109 523.491 294.771L523.301 294.296C523.28 294.275 523.238 294.286 523.174 294.328C523.132 294.37 523.09 294.412 523.048 294.455C521.802 295.637 520.535 296.228 519.247 296.228C518.086 296.228 517.062 295.806 516.175 294.961C515.288 294.117 514.845 292.776 514.845 290.939C514.845 289.926 515.056 288.891 515.478 287.835C515.9 286.78 516.407 285.872 516.998 285.112C517.991 283.908 518.983 283.074 519.975 282.61C520.968 282.145 521.865 281.913 522.667 281.913C523.85 281.913 524.737 282.356 525.328 283.243C525.433 283.37 525.486 283.412 525.486 283.37C525.507 283.285 525.792 282.135 526.341 279.918C526.89 277.701 527.186 276.529 527.228 276.402C527.228 276.128 527.154 275.959 527.006 275.895C526.859 275.832 526.447 275.779 525.771 275.737H525.106C524.979 275.61 524.916 275.526 524.916 275.484C524.916 275.441 524.937 275.241 524.979 274.882C525.085 274.481 525.222 274.28 525.391 274.28ZM524.948 285.587C524.462 283.919 523.67 283.085 522.572 283.085C521.833 283.085 521.126 283.412 520.451 284.067C519.775 284.721 519.247 285.576 518.867 286.632C518.255 288.3 517.822 290.031 517.568 291.826C517.568 291.889 517.568 292.005 517.568 292.174C517.568 292.343 517.558 292.47 517.537 292.554C517.537 293.505 517.727 294.159 518.107 294.518C518.487 294.877 518.941 295.067 519.469 295.088C520.609 295.088 521.781 294.328 522.984 292.808L523.238 292.459L524.948 285.587Z" fill="#E8C11C"/>
<path d="M531.912 286.759C532.06 285.872 532.63 284.848 533.623 283.687C534.615 282.525 535.84 281.934 537.297 281.913C538.036 281.913 538.711 282.103 539.323 282.483C539.936 282.863 540.39 283.338 540.685 283.908C541.572 282.578 542.638 281.913 543.884 281.913C544.665 281.913 545.341 282.145 545.911 282.61C546.481 283.074 546.777 283.697 546.798 284.478C546.798 285.091 546.65 285.587 546.354 285.967C546.059 286.347 545.774 286.579 545.499 286.664C545.225 286.748 544.982 286.79 544.771 286.79C544.37 286.79 544.042 286.674 543.789 286.442C543.536 286.21 543.409 285.903 543.409 285.523C543.409 284.552 543.937 283.887 544.993 283.528C544.76 283.254 544.338 283.116 543.726 283.116C543.451 283.116 543.251 283.138 543.124 283.18C542.322 283.518 541.73 284.214 541.35 285.27C540.084 289.936 539.45 292.66 539.45 293.441C539.45 294.032 539.619 294.455 539.957 294.708C540.295 294.961 540.664 295.088 541.065 295.088C541.847 295.088 542.617 294.74 543.377 294.043C544.137 293.346 544.655 292.491 544.929 291.478C544.993 291.266 545.056 291.15 545.119 291.129C545.183 291.108 545.352 291.087 545.626 291.066H545.753C546.069 291.066 546.228 291.15 546.228 291.319C546.228 291.34 546.207 291.456 546.164 291.668C545.827 292.871 545.172 293.937 544.201 294.866C543.23 295.795 542.1 296.26 540.812 296.26C539.334 296.26 538.215 295.595 537.455 294.265C536.589 295.574 535.597 296.228 534.478 296.228H534.288C533.253 296.228 532.514 295.954 532.071 295.405C531.627 294.856 531.395 294.275 531.374 293.663C531.374 292.987 531.575 292.438 531.976 292.016C532.377 291.594 532.852 291.383 533.401 291.383C534.309 291.383 534.763 291.826 534.763 292.713C534.763 293.135 534.636 293.505 534.383 293.821C534.129 294.138 533.887 294.349 533.654 294.455C533.422 294.56 533.285 294.613 533.243 294.613L533.148 294.645C533.148 294.666 533.211 294.708 533.338 294.771C533.464 294.835 533.633 294.909 533.844 294.993C534.056 295.078 534.256 295.109 534.446 295.088C535.206 295.088 535.861 294.613 536.41 293.663C536.6 293.325 536.843 292.607 537.138 291.509C537.434 290.411 537.729 289.271 538.025 288.089C538.321 286.906 538.489 286.21 538.532 285.999C538.637 285.428 538.69 285.017 538.69 284.763C538.69 284.172 538.532 283.75 538.215 283.496C537.898 283.243 537.539 283.116 537.138 283.116C536.294 283.116 535.502 283.454 534.763 284.13C534.024 284.806 533.507 285.671 533.211 286.727C533.169 286.917 533.116 287.023 533.053 287.044C532.989 287.065 532.82 287.086 532.546 287.107H532.102C531.976 286.98 531.912 286.864 531.912 286.759Z" fill="#E8C11C"/>
<path d="M577.382 267.218H484.808V265.317H577.382V267.218Z" fill="white"/>
<path d="M591.756 263.195C591.756 262.921 591.904 262.71 592.199 262.562H612.374C612.69 262.731 612.849 262.942 612.849 263.195C612.849 263.428 612.701 263.628 612.405 263.797L602.334 263.829H592.263C591.925 263.723 591.756 263.512 591.756 263.195ZM591.756 269.339C591.756 269.023 591.925 268.812 592.263 268.706H612.405C612.701 268.917 612.849 269.128 612.849 269.339C612.849 269.614 612.69 269.825 612.374 269.973H592.199C591.904 269.825 591.756 269.614 591.756 269.339Z" fill="white"/>
<path d="M621.781 253.029C621.021 253.029 620.345 253.156 619.754 253.409C619.163 253.662 618.762 253.916 618.551 254.169L618.234 254.517C618.276 254.517 618.329 254.528 618.392 254.549C618.456 254.57 618.572 254.612 618.741 254.676C618.909 254.739 619.068 254.834 619.216 254.961C619.363 255.087 619.49 255.256 619.596 255.468C619.701 255.679 619.754 255.932 619.754 256.228C619.754 256.713 619.596 257.114 619.279 257.431C618.962 257.748 618.561 257.906 618.075 257.906C617.59 257.906 617.189 257.758 616.872 257.463C616.555 257.167 616.386 256.766 616.365 256.259C616.365 255.014 616.84 254.011 617.79 253.251C618.741 252.49 619.786 252.037 620.926 251.889C620.968 251.889 621.084 251.889 621.274 251.889C621.464 251.889 621.612 251.878 621.718 251.857H621.844C622.963 251.857 623.935 251.994 624.758 252.269C625.582 252.543 626.194 252.923 626.595 253.409C626.996 253.895 627.302 254.359 627.513 254.802C627.725 255.246 627.82 255.721 627.798 256.228C627.798 257.579 627.218 258.687 626.057 259.553C624.072 260.968 622.868 262.646 622.446 264.589C622.341 265.096 622.288 265.75 622.288 266.552V267.091C622.288 267.492 622.256 267.724 622.193 267.788C622.129 267.851 621.95 267.893 621.654 267.914C621.359 267.935 621.179 267.904 621.116 267.819C621.053 267.735 621.021 267.555 621.021 267.281V266.299C621.063 264.8 621.253 263.512 621.591 262.435C621.929 261.358 622.298 260.577 622.699 260.092C623.101 259.606 623.491 259.12 623.871 258.635C624.251 258.149 624.494 257.663 624.6 257.178C624.642 256.988 624.663 256.597 624.663 256.006V255.594C624.663 255.235 624.642 254.94 624.6 254.707C624.557 254.475 624.441 254.211 624.251 253.916C624.061 253.62 623.776 253.398 623.396 253.251C623.016 253.103 622.478 253.029 621.781 253.029ZM619.754 272.253C619.754 271.662 619.944 271.198 620.324 270.86C620.704 270.522 621.169 270.353 621.718 270.353C622.203 270.395 622.626 270.575 622.984 270.891C623.343 271.208 623.523 271.662 623.523 272.253C623.523 272.887 623.343 273.362 622.984 273.678C622.626 273.995 622.182 274.153 621.654 274.153C621.126 274.153 620.683 273.995 620.324 273.678C619.965 273.362 619.775 272.887 619.754 272.253Z" fill="white"/>
<path d="M636.724 253.029C635.964 253.029 635.289 253.156 634.697 253.409C634.106 253.662 633.705 253.916 633.494 254.169L633.177 254.517C633.219 254.517 633.272 254.528 633.336 254.549C633.399 254.57 633.515 254.612 633.684 254.676C633.853 254.739 634.011 254.834 634.159 254.961C634.307 255.087 634.433 255.256 634.539 255.468C634.645 255.679 634.697 255.932 634.697 256.228C634.697 256.713 634.539 257.114 634.222 257.431C633.906 257.748 633.504 257.906 633.019 257.906C632.533 257.906 632.132 257.758 631.815 257.463C631.499 257.167 631.33 256.766 631.309 256.259C631.309 255.014 631.784 254.011 632.734 253.251C633.684 252.49 634.729 252.037 635.869 251.889C635.911 251.889 636.028 251.889 636.218 251.889C636.408 251.889 636.555 251.878 636.661 251.857H636.788C637.907 251.857 638.878 251.994 639.701 252.269C640.525 252.543 641.137 252.923 641.538 253.409C641.94 253.895 642.246 254.359 642.457 254.802C642.668 255.246 642.763 255.721 642.742 256.228C642.742 257.579 642.161 258.687 641 259.553C639.015 260.968 637.812 262.646 637.389 264.589C637.284 265.096 637.231 265.75 637.231 266.552V267.091C637.231 267.492 637.199 267.724 637.136 267.788C637.073 267.851 636.893 267.893 636.598 267.914C636.302 267.935 636.123 267.904 636.059 267.819C635.996 267.735 635.964 267.555 635.964 267.281V266.299C636.006 264.8 636.196 263.512 636.534 262.435C636.872 261.358 637.242 260.577 637.643 260.092C638.044 259.606 638.435 259.12 638.815 258.635C639.195 258.149 639.438 257.663 639.543 257.178C639.585 256.988 639.606 256.597 639.606 256.006V255.594C639.606 255.235 639.585 254.94 639.543 254.707C639.501 254.475 639.385 254.211 639.195 253.916C639.005 253.62 638.72 253.398 638.34 253.251C637.96 253.103 637.421 253.029 636.724 253.029ZM634.697 272.253C634.697 271.662 634.887 271.198 635.267 270.86C635.648 270.522 636.112 270.353 636.661 270.353C637.147 270.395 637.569 270.575 637.928 270.891C638.287 271.208 638.466 271.662 638.466 272.253C638.466 272.887 638.287 273.362 637.928 273.678C637.569 273.995 637.126 274.153 636.598 274.153C636.07 274.153 635.626 273.995 635.267 273.678C634.909 273.362 634.719 272.887 634.697 272.253Z" fill="white"/>
<path d="M651.675 253.029C650.914 253.029 650.239 253.156 649.648 253.409C649.056 253.662 648.655 253.916 648.444 254.169L648.127 254.517C648.17 254.517 648.222 254.528 648.286 254.549C648.349 254.57 648.465 254.612 648.634 254.676C648.803 254.739 648.961 254.834 649.109 254.961C649.257 255.087 649.384 255.256 649.489 255.468C649.595 255.679 649.648 255.932 649.648 256.228C649.648 256.713 649.489 257.114 649.173 257.431C648.856 257.748 648.455 257.906 647.969 257.906C647.483 257.906 647.082 257.758 646.766 257.463C646.449 257.167 646.28 256.766 646.259 256.259C646.259 255.014 646.734 254.011 647.684 253.251C648.634 252.49 649.679 252.037 650.819 251.889C650.862 251.889 650.978 251.889 651.168 251.889C651.358 251.889 651.506 251.878 651.611 251.857H651.738C652.857 251.857 653.828 251.994 654.652 252.269C655.475 252.543 656.087 252.923 656.489 253.409C656.89 253.895 657.196 254.359 657.407 254.802C657.618 255.246 657.713 255.721 657.692 256.228C657.692 257.579 657.111 258.687 655.95 259.553C653.965 260.968 652.762 262.646 652.34 264.589C652.234 265.096 652.181 265.75 652.181 266.552V267.091C652.181 267.492 652.15 267.724 652.086 267.788C652.023 267.851 651.843 267.893 651.548 267.914C651.252 267.935 651.073 267.904 651.009 267.819C650.946 267.735 650.914 267.555 650.914 267.281V266.299C650.957 264.8 651.147 263.512 651.485 262.435C651.822 261.358 652.192 260.577 652.593 260.092C652.994 259.606 653.385 259.12 653.765 258.635C654.145 258.149 654.388 257.663 654.493 257.178C654.536 256.988 654.557 256.597 654.557 256.006V255.594C654.557 255.235 654.536 254.94 654.493 254.707C654.451 254.475 654.335 254.211 654.145 253.916C653.955 253.62 653.67 253.398 653.29 253.251C652.91 253.103 652.371 253.029 651.675 253.029ZM649.648 272.253C649.648 271.662 649.838 271.198 650.218 270.86C650.598 270.522 651.062 270.353 651.611 270.353C652.097 270.395 652.519 270.575 652.878 270.891C653.237 271.208 653.416 271.662 653.416 272.253C653.416 272.887 653.237 273.362 652.878 273.678C652.519 273.995 652.076 274.153 651.548 274.153C651.02 274.153 650.577 273.995 650.218 273.678C649.859 273.362 649.669 272.887 649.648 272.253Z" fill="white"/>
</g>
<defs>
<clipPath id="clip0">
<rect width="45.1736" height="33.6" fill="white" transform="translate(371 175)"/>
</clipPath>
<clipPath id="clip1">
<rect width="45.1736" height="33.6" fill="white" transform="translate(394 305)"/>
</clipPath>
<clipPath id="clip2">
<rect width="45.1736" height="33.6" fill="white" transform="translate(309 370)"/>
</clipPath>
<clipPath id="clip3">
<rect width="45.1736" height="33.6" fill="white" transform="translate(169 370)"/>
</clipPath>
<clipPath id="clip4">
<rect width="178.472" height="71.26" fill="white" transform="translate(481 225)"/>
</clipPath>
</defs>
</svg>
