<svg xmlns="http://www.w3.org/2000/svg" xmlns:xlink="http://www.w3.org/1999/xlink" width="800" height="480" viewBox="0 0 800 480">
  <defs>
    <clipPath id="a">
      <rect x="570" y="30" width="200" height="200" style="fill: none"/>
    </clipPath>
  </defs>
  <rect width="800" height="480"/>
  <g>
    <rect x="570" y="30" width="200" height="200" style="fill: none;stroke: #caa3e8;stroke-miterlimit: 10;stroke-width: 3px"/>
    <g>
      <line x1="39.053" y1="240" x2="380.947" y2="240" style="fill: none;stroke: #fff;stroke-miterlimit: 10;stroke-width: 1.5px"/>
      <path d="M30,240c4.26,1.581,9.545,4.277,12.821,7.134L40.241,240l2.58-7.132C39.545,235.724,34.26,238.421,30,240Z" style="fill: #fff"/>
      <path d="M390,240c-4.26,1.581-9.545,4.277-12.821,7.134l2.58-7.134-2.58-7.132C380.455,235.724,385.74,238.421,390,240Z" style="fill: #fff"/>
    </g>
    <g>
      <line x1="210" y1="410.947" x2="210" y2="69.053" style="fill: none;stroke: #fff;stroke-miterlimit: 10;stroke-width: 1.5px"/>
      <path d="M210,420c1.581-4.26,4.277-9.545,7.134-12.821L210,409.759l-7.132-2.58C205.724,410.455,208.421,415.74,210,420Z" style="fill: #fff"/>
      <path d="M210,60c1.581,4.26,4.277,9.545,7.134,12.821L210,70.241l-7.132,2.58C205.724,69.545,208.421,64.26,210,60Z" style="fill: #fff"/>
    </g>
    <circle cx="210" cy="240" r="150" style="fill: none;stroke: #fff;stroke-miterlimit: 10"/>
    <line x1="135" y1="245" x2="135" y2="235" style="fill: none;stroke: #fff;stroke-miterlimit: 10"/>
    <line x1="285" y1="235" x2="285" y2="245" style="fill: none;stroke: #fff;stroke-miterlimit: 10"/>
    <line x1="205" y1="165" x2="215" y2="165" style="fill: none;stroke: #fff;stroke-miterlimit: 10"/>
    <line x1="215" y1="315" x2="205" y2="315" style="fill: none;stroke: #fff;stroke-miterlimit: 10"/>
    <circle cx="210" cy="240" r="150" style="fill: none;stroke: #fff;stroke-miterlimit: 10"/>
    <line x1="135" y1="245" x2="135" y2="235" style="fill: none;stroke: #fff;stroke-miterlimit: 10"/>
    <line x1="285" y1="235" x2="285" y2="245" style="fill: none;stroke: #fff;stroke-miterlimit: 10"/>
    <line x1="205" y1="90" x2="215" y2="90" style="fill: none;stroke: #fff;stroke-miterlimit: 10"/>
    <line x1="60" y1="245" x2="60" y2="235" style="fill: none;stroke: #fff;stroke-miterlimit: 10"/>
    <line x1="60" y1="245" x2="60" y2="235" style="fill: none;stroke: #fff;stroke-miterlimit: 10"/>
    <line x1="210" y1="240" x2="290" y2="113.09" style="fill: none;stroke: #fc6255;stroke-miterlimit: 10"/>
    <line x1="290" y1="240" x2="290" y2="113.09" style="fill: none;stroke: #58c4dd;stroke-miterlimit: 10"/>
    <line x1="285" y1="240" x2="285" y2="110.072" style="fill: none;stroke: #58c4dd;stroke-miterlimit: 10"/>
    <path d="M375.8,140.952c.016,0,.083,0,.2-.013s.217-.012.3-.012a2.724,2.724,0,0,1,2.1,1.225,7.225,7.225,0,0,1,.975,4.025,9.133,9.133,0,0,1-.051,1.075,18.287,18.287,0,0,1-1.725,6.225,14,14,0,0,1-1.987,3.1,7.521,7.521,0,0,1-2.237,1.875,3.384,3.384,0,0,1-1.35.35h-.176a2.393,2.393,0,0,1-1.824-.775,6.346,6.346,0,0,1-1.326-4.475,13.686,13.686,0,0,1,.25-2.525,16.415,16.415,0,0,1,3.775-8.175A5.341,5.341,0,0,1,375.8,140.952Zm.4,9.925.125-.425h-4.875l-.024.175a21.151,21.151,0,0,0-.775,4.625,3.493,3.493,0,0,0,.6,2.35.936.936,0,0,0,.724.3q1,0,2.1-1.625A17.948,17.948,0,0,0,376.2,150.877Zm1.2-6.475q0-2.55-1.326-2.55a2.354,2.354,0,0,0-1.7,1.075,13.469,13.469,0,0,0-2.125,4.5,11.082,11.082,0,0,0-.5,1.85q1.224.024,2.425.025l2.424-.025a8.756,8.756,0,0,0,.451-1.95A16.4,16.4,0,0,0,377.4,144.4Z" style="fill: #fff933"/>
    <line x1="285" y1="110.072" x2="210" y2="240" style="fill: none;stroke: #fc6255;stroke-miterlimit: 10"/>
    <path d="M399.451,237.953a.409.409,0,0,1-.15-.274,4.75,4.75,0,0,1,.775-1.726,4.291,4.291,0,0,1,2.949-2.05,4.1,4.1,0,0,1,.526-.049,3.026,3.026,0,0,1,1.612.45,2.687,2.687,0,0,1,1.062,1.125c.217-.283.351-.459.4-.526a2.768,2.768,0,0,1,2.125-1.049,2.364,2.364,0,0,1,1.662.586,1.885,1.885,0,0,1,.638,1.438,1.968,1.968,0,0,1-.438,1.3,1.441,1.441,0,0,1-1.162.524,1.1,1.1,0,0,1-.775-.274.937.937,0,0,1-.3-.726,1.59,1.59,0,0,1,1.25-1.575,1.056,1.056,0,0,0-.276-.175,1.435,1.435,0,0,0-.724-.149,1.621,1.621,0,0,0-.476.05,2.615,2.615,0,0,0-1.4,1.649q-.075.2-.726,2.788t-.7,2.912a3.741,3.741,0,0,0-.075.75,1.282,1.282,0,0,0,.349.95,1.249,1.249,0,0,0,.925.35,2.581,2.581,0,0,0,1.9-.887,4.621,4.621,0,0,0,1.15-1.963c.05-.166.1-.262.149-.287a1.216,1.216,0,0,1,.4-.038c.316,0,.474.068.474.2,0,.017-.016.109-.049.276a5.449,5.449,0,0,1-1.75,2.7,3.945,3.945,0,0,1-2.475.926,2.881,2.881,0,0,1-2.65-1.575,3.5,3.5,0,0,1-1.85,1.5,3.236,3.236,0,0,1-.65.049,2.177,2.177,0,0,1-2.05-1.025,1.931,1.931,0,0,1-.25-1,1.883,1.883,0,0,1,.45-1.274,1.444,1.444,0,0,1,1.149-.526.94.94,0,0,1,1.076,1.05,1.414,1.414,0,0,1-.875,1.351l-.125.062c-.05.024-.092.046-.125.063a.2.2,0,0,1-.076.024l-.075.025q0,.075.375.225a1.664,1.664,0,0,0,.651.125,1.845,1.845,0,0,0,1.549-1.125,18.8,18.8,0,0,0,.976-3.25q.15-.574.324-1.274t.263-1.076c.058-.25.1-.4.112-.45a6.009,6.009,0,0,0,.125-.974,1.346,1.346,0,0,0-.324-.951,1.171,1.171,0,0,0-.9-.349,2.612,2.612,0,0,0-1.951.862,4.742,4.742,0,0,0-1.149,1.987c-.034.151-.071.238-.113.263a1.235,1.235,0,0,1-.412.037Z" style="fill: #fff"/>
    <path d="M215.55,31.863a.968.968,0,0,1,.6.187.607.607,0,0,1,.25.513q0,.325-1.224,5.25t-1.4,5.4a6.592,6.592,0,0,1-1.287,2.263,6.729,6.729,0,0,1-2.062,1.637,5.866,5.866,0,0,1-2.526.65,2.689,2.689,0,0,1-2.574-1.2,1.7,1.7,0,0,1-.25-1,1.79,1.79,0,0,1,.475-1.325,1.621,1.621,0,0,1,1.1-.475q1.1,0,1.1,1.05a1.416,1.416,0,0,1-.875,1.351c-.034.015-.075.037-.125.062s-.092.045-.125.063a.227.227,0,0,1-.075.024l-.075.025c.049.1.225.208.525.326a2.281,2.281,0,0,0,.8.149h.2a3.2,3.2,0,0,0,.649-.05,3.8,3.8,0,0,0,1.8-1.275,6.94,6.94,0,0,0,1.3-2.4,5.566,5.566,0,0,0,.274-.975c0-.016-.015-.012-.049.013l-.15.112a3.4,3.4,0,0,1-2.051.676,3.479,3.479,0,0,1-2.1-.6,2.785,2.785,0,0,1-1.075-1.725,7.1,7.1,0,0,1-.025-.775,6.4,6.4,0,0,1,.05-.925,22.956,22.956,0,0,1,1.149-3.675,7.176,7.176,0,0,0,.551-2.049,1.31,1.31,0,0,0-.063-.489c-.041-.091-.137-.136-.287-.136h-.125a1.551,1.551,0,0,0-1.1.524,5.237,5.237,0,0,0-1.226,2.4.287.287,0,0,1-.024.087.274.274,0,0,1-.038.076l-.037.038a.127.127,0,0,1-.088.024h-.662c-.1-.1-.151-.175-.151-.225a1.914,1.914,0,0,1,.076-.35,5.97,5.97,0,0,1,1.575-2.725,2.578,2.578,0,0,1,1.775-.8,2.377,2.377,0,0,1,1.675.576,2.061,2.061,0,0,1,.625,1.6,3.581,3.581,0,0,1-.075.526,5.662,5.662,0,0,1-.375,1.074,23.815,23.815,0,0,0-1.225,4.075,4.693,4.693,0,0,0-.025.575,2.838,2.838,0,0,0,.3,1.45,1.176,1.176,0,0,0,1.1.5,2.131,2.131,0,0,0,1.088-.3,3.385,3.385,0,0,0,.774-.588q.262-.288.663-.787c0-.017.041-.188.125-.513s.2-.813.362-1.463.312-1.267.463-1.85q.948-3.75,1.05-3.924A1.108,1.108,0,0,1,215.55,31.863Z" style="fill: #fff"/>
    <path d="M290,113.088A149.894,149.894,0,0,1,360,240" style="fill: none;stroke: #fff933;stroke-miterlimit: 10"/>
    <rect x="278.443" y="99.527" width="20" height="20" style="fill: none;stroke: #caa3e8;stroke-miterlimit: 10;stroke-width: 1.5px"/>
    <g>
      <path d="M685.091,103.205q.375-.024.849-.062t.713-.063c.158-.016.246-.025.263-.025.2,0,.3.067.3.2q0,.175-1.838,7.563t-1.862,7.512a2.05,2.05,0,0,0-.025.375c0,.7.232,1.05.7,1.05a1.067,1.067,0,0,0,.5-.225,5.658,5.658,0,0,0,1.026-2.4c.1-.333.183-.508.25-.525a.75.75,0,0,1,.25-.025h.1q.475,0,.476.2a2.1,2.1,0,0,1-.075.4,6.532,6.532,0,0,1-1.35,2.9,2.466,2.466,0,0,1-.8.525,2.618,2.618,0,0,1-.6.05,2.256,2.256,0,0,1-2.2-1.225,2.041,2.041,0,0,0-.125-.3c-.017-.016-.05-.008-.1.025l-.1.1a5.115,5.115,0,0,1-2.375,1.375,4.927,4.927,0,0,1-.625.025,3.316,3.316,0,0,1-2.724-1.375,4.863,4.863,0,0,1-.75-2.8,7.636,7.636,0,0,1,1.7-4.6,6.54,6.54,0,0,1,3.45-2.375,3.718,3.718,0,0,1,1.025-.15,2.4,2.4,0,0,1,2.1,1.05c.083.1.125.134.125.1q.024-.1.688-2.737t.687-2.763a.453.453,0,0,0-.15-.4,3.783,3.783,0,0,0-1-.125h-.526a.688.688,0,0,1-.162-.2,2.627,2.627,0,0,1,.063-.475c.084-.316.191-.475.325-.475.016,0,.1-.008.263-.025s.382-.033.674-.05Zm-2.151,9.05q-.549-1.974-1.875-1.975a2.307,2.307,0,0,0-1.761.85,5.9,5.9,0,0,0-1.163,1.95,19.868,19.868,0,0,0-1.025,4.1c0,.05,0,.142-.013.275s-.012.234-.012.3a2.468,2.468,0,0,0,.387,1.45,1.3,1.3,0,0,0,1.138.55q1.325,0,2.775-1.8l.2-.275q.225-.9.675-2.712T682.94,112.255Z" style="fill: #fc6255"/>
      <path d="M695.116,102.805l.2-.012c.117-.008.217-.013.3-.013a2.73,2.73,0,0,1,2.1,1.225,7.228,7.228,0,0,1,.974,4.025,8.943,8.943,0,0,1-.05,1.075,18.281,18.281,0,0,1-1.725,6.225,14.063,14.063,0,0,1-1.986,3.1,7.484,7.484,0,0,1-2.239,1.875,3.36,3.36,0,0,1-1.349.35h-.176a2.388,2.388,0,0,1-1.824-.775,6.351,6.351,0,0,1-1.326-4.475,13.608,13.608,0,0,1,.25-2.525,16.419,16.419,0,0,1,3.775-8.175A5.349,5.349,0,0,1,695.116,102.805Zm.4,9.925.125-.425h-4.875l-.024.175a21.107,21.107,0,0,0-.775,4.625,3.5,3.5,0,0,0,.6,2.35.939.939,0,0,0,.725.3q1,0,2.1-1.625A17.922,17.922,0,0,0,695.515,112.73Zm1.2-6.475q0-2.55-1.326-2.55a2.36,2.36,0,0,0-1.7,1.075,13.488,13.488,0,0,0-2.125,4.5,11.082,11.082,0,0,0-.5,1.85q1.225.026,2.426.025l2.424-.025a8.719,8.719,0,0,0,.451-1.95A16.468,16.468,0,0,0,696.716,106.255Z" style="fill: #fc6255"/>
    </g>
    <g>
      <line x1="685.566" y1="165.629" x2="682.566" y2="165.629" style="fill: none;stroke: #58c4dd;stroke-miterlimit: 10"/>
      <line x1="676.799" y1="165.629" x2="575.883" y2="165.629" style="fill: none;stroke: #58c4dd;stroke-miterlimit: 10;stroke-dasharray: 5.766613483428955,5.766613483428955"/>
      <line x1="573" y1="165.629" x2="570" y2="165.629" style="fill: none;stroke: #58c4dd;stroke-miterlimit: 10"/>
    </g>
    <g>
      <line x1="635.566" y1="135.456" x2="632.566" y2="135.456" style="fill: none;stroke: #58c4dd;stroke-miterlimit: 10"/>
      <line x1="625.947" y1="135.456" x2="576.309" y2="135.456" style="fill: none;stroke: #58c4dd;stroke-miterlimit: 10;stroke-dasharray: 6.618406772613525,6.618406772613525"/>
      <line x1="573" y1="135.456" x2="570" y2="135.456" style="fill: none;stroke: #58c4dd;stroke-miterlimit: 10"/>
    </g>
    <path d="M689.292,160.649c-.142-.086-.179-.232-.109-.44s.217-.551.441-1.031a8.618,8.618,0,0,0,.5-1.313q1.207-4.286-1.77-6.076l-15.2-9.131q-3.789-2.277-1.793-8.034-4.146,4.465-7.688,2.337l-15.386-9.245a8.682,8.682,0,0,0-1.355-.7,4.212,4.212,0,0,0-3.118.36,8.179,8.179,0,0,0-3.078,2.687c-.017.028-.072.106-.164.232a3.078,3.078,0,0,1-.207.265c-.046.05-.11.117-.194.2a.4.4,0,0,1-.256.134.4.4,0,0,1-.24-.058c-.3-.184,1.8-3.2,3.529-4.4a4.93,4.93,0,0,1,4.892-.852,11.226,11.226,0,0,1,1.071.586l15.245,9.16a4.533,4.533,0,0,0,2.434.7,4.081,4.081,0,0,0,2.2-.651,13.944,13.944,0,0,0,1.522-1.116,7.3,7.3,0,0,0,1-1.059c.051-.084.132-.2.241-.359a2.245,2.245,0,0,1,.3-.355c.088-.08.174-.164.257-.248a.535.535,0,0,1,.263-.159.323.323,0,0,1,.245.032.441.441,0,0,1,.191.2.468.468,0,0,1-.008.313,2.639,2.639,0,0,1-.148.386c-.06.126-.138.3-.234.508s-.181.408-.259.593a7.929,7.929,0,0,0-.588,3.492,3.954,3.954,0,0,0,1.294,2.837,5.646,5.646,0,0,0,1.006.72l14.934,8.973a8.12,8.12,0,0,1,1.086.752,4.223,4.223,0,0,1,.843,1.276,5.454,5.454,0,0,1,.5,2.255C691.784,156.962,689.525,160.789,689.292,160.649Z" style="fill: #fff"/>
    <g style="clip-path: url(#a)">
      <path d="M-114.434-65.266c828.427,0,1500,671.572,1500,1500" style="fill: none;stroke: #fff;stroke-miterlimit: 10"/>
      <path d="M-114.434-65.266c828.427,0,1500,671.572,1500,1500" style="fill: none;stroke: #fff;stroke-miterlimit: 10"/>
      <line x1="-114.434" y1="1434.734" x2="685.566" y2="165.629" style="fill: none;stroke: #fc6255;stroke-miterlimit: 10"/>
      <line x1="685.566" y1="1434.734" x2="685.566" y2="165.629" style="fill: none;stroke: #58c4dd;stroke-miterlimit: 10"/>
      <line x1="635.566" y1="1434.734" x2="635.566" y2="135.456" style="fill: none;stroke: #58c4dd;stroke-miterlimit: 10"/>
      <line x1="635.566" y1="135.456" x2="-114.434" y2="1434.734" style="fill: none;stroke: #fc6255;stroke-miterlimit: 10"/>
      <path d="M1385.566,1434.734c0-534.334-279.389-1003.412-700.051-1269.12" style="fill: none;stroke: #fff933;stroke-miterlimit: 10"/>
    </g>
    <path d="M561.353,135.55c0,.121-.107.2-.321.233s-.584.072-1.112.112a11.42,11.42,0,0,0-1.383.18q-4.3.855-4.3,3.39v6.914q0,3.225-5.962,4.14,5.963.913,5.962,3.929V161.3a4.708,4.708,0,0,0,.1,1.11,3.4,3.4,0,0,0,1.914,1.815,10.386,10.386,0,0,0,3.889.915c.032,0,.128,0,.283.015s.268.02.334.03l.272.045a.438.438,0,0,1,.246.11.243.243,0,0,1,.075.172c0,.26-3.668.076-5.59-.553s-3.006-1.541-3.25-2.739a5.95,5.95,0,0,1-.049-.89V154.6a2.66,2.66,0,0,0-.654-1.784,3.889,3.889,0,0,0-1.692-1.133,17.026,17.026,0,0,0-1.741-.532,9.645,9.645,0,0,0-1.42-.225c-.1,0-.242-.006-.431-.015a2.975,2.975,0,0,1-.457-.053c-.115-.025-.231-.047-.346-.067a.62.62,0,0,1-.272-.1.211.211,0,0,1-.1-.165.263.263,0,0,1,.074-.195.522.522,0,0,1,.272-.113,3.505,3.505,0,0,1,.407-.052c.139-.01.325-.025.556-.045s.444-.04.641-.06a9.821,9.821,0,0,0,3.3-.945,2.778,2.778,0,0,0,1.864-2.775v-6.69a4.338,4.338,0,0,1,.085-.962,2.79,2.79,0,0,1,.66-1.006,5.1,5.1,0,0,1,1.674-1.161A13.267,13.267,0,0,1,561.353,135.55Z" style="fill: #f8f8f8"/>
    <g>
      <path d="M514.961,340.556q.375-.024.849-.062c.317-.025.554-.046.713-.063s.245-.025.262-.025c.2,0,.3.067.3.2q0,.176-1.838,7.563t-1.862,7.512a2.032,2.032,0,0,0-.026.375q0,1.05.7,1.05a1.067,1.067,0,0,0,.5-.225,5.671,5.671,0,0,0,1.026-2.4q.148-.5.25-.524a.709.709,0,0,1,.25-.026h.1q.476,0,.475.2a2.054,2.054,0,0,1-.074.4,6.521,6.521,0,0,1-1.351,2.9,2.48,2.48,0,0,1-.8.526,2.7,2.7,0,0,1-.6.049,2.255,2.255,0,0,1-2.2-1.225,2.041,2.041,0,0,0-.125-.3c-.017-.016-.05-.008-.1.025-.033.034-.066.067-.1.1a5.11,5.11,0,0,1-2.375,1.375,4.736,4.736,0,0,1-.625.025,3.316,3.316,0,0,1-2.724-1.375,4.862,4.862,0,0,1-.75-2.8,7.642,7.642,0,0,1,1.7-4.6,6.547,6.547,0,0,1,3.45-2.375,3.728,3.728,0,0,1,1.026-.149,2.392,2.392,0,0,1,2.1,1.049c.083.1.125.134.125.1q.025-.1.688-2.737t.687-2.763a.449.449,0,0,0-.149-.4,3.7,3.7,0,0,0-1-.125h-.526a.7.7,0,0,1-.162-.2,2.431,2.431,0,0,1,.063-.475c.083-.316.191-.475.324-.475.017,0,.1-.008.263-.025s.383-.033.674-.05Zm-2.151,9.05q-.55-1.974-1.875-1.975a2.309,2.309,0,0,0-1.762.85,5.9,5.9,0,0,0-1.162,1.95,19.934,19.934,0,0,0-1.026,4.1c0,.051,0,.142-.013.275s-.011.234-.011.3a2.473,2.473,0,0,0,.386,1.45,1.3,1.3,0,0,0,1.138.55q1.326,0,2.776-1.8l.2-.275q.224-.9.675-2.712T512.81,349.606Z" style="fill: #f8f8f8"/>
      <path d="M525.335,363.781c0,.15-.151.225-.45.225h-.326l-.7-.6q-4.5-4.1-4.5-11.9a20.139,20.139,0,0,1,.725-5.575,13.486,13.486,0,0,1,3.775-6.325c.116-.1.25-.212.4-.337s.25-.213.3-.263h.326a.585.585,0,0,1,.375.076.216.216,0,0,1,.075.149q0,.1-.276.375-3.874,4.1-3.875,11.9t3.875,11.9Q525.335,363.681,525.335,363.781Z" style="fill: #f8f8f8"/>
      <path d="M531.485,347.406q-2.3,0-2.3,1.625a1.13,1.13,0,0,0,.05.426,1.5,1.5,0,0,0,.775.862,7.6,7.6,0,0,0,1.7.487,6.759,6.759,0,0,1,1.95.55,3.621,3.621,0,0,1,2.025,2.476,4.614,4.614,0,0,1,.025.6,4.023,4.023,0,0,1-.35,1.725,3.767,3.767,0,0,1-3.675,1.85,3.973,3.973,0,0,1-2.6-.9l-.2.175-.225.225c-.1.1-.2.192-.3.275l-.275.25h-.2a.453.453,0,0,1-.325-.15v-1.975q0-1.625.012-1.875c.009-.166.046-.266.113-.3a1.657,1.657,0,0,1,.4-.024.841.841,0,0,1,.387.049.822.822,0,0,1,.138.35,5.775,5.775,0,0,0,.65,1.726,2.783,2.783,0,0,0,2.425,1.274q2.426,0,2.425-1.95a1.59,1.59,0,0,0-.45-1.175,2.183,2.183,0,0,0-1.05-.675c-.284-.066-.683-.158-1.2-.275a8.56,8.56,0,0,1-1.9-.525,3.119,3.119,0,0,1-1.925-2.325,1.8,1.8,0,0,1-.025-.375q0-2.874,3.525-3.224a1.583,1.583,0,0,1,.6,0,3.868,3.868,0,0,1,1.75.375l.375.2.225-.175a6.44,6.44,0,0,1,.55-.425h.2a.452.452,0,0,1,.325.151v3.3l-.15.15h-.7a.43.43,0,0,1-.15-.3,2.336,2.336,0,0,0-.7-1.8A2.721,2.721,0,0,0,531.485,347.406Z" style="fill: #f8f8f8"/>
      <path d="M542.76,357.756a21.6,21.6,0,0,0-2.6-.075,26.7,26.7,0,0,0-2.725.075h-.2v-1.15h.4a8.628,8.628,0,0,0,1.225-.075.535.535,0,0,0,.3-.275q.026-.049.025-3.625a34.778,34.778,0,0,0-.1-4q-.2-.5-1.475-.5h-.275v-.575c0-.383.016-.575.05-.575l.25-.024q.251-.025.7-.051l.9-.05q.424-.024.9-.062t.725-.063c.166-.016.258-.024.275-.024h.075v9.5a.576.576,0,0,0,.3.312,3.9,3.9,0,0,0,.875.087h.575v1.15Zm-2.9-16.725a1.608,1.608,0,0,1,1.025.438,1.414,1.414,0,0,1,.4,1.062,1.338,1.338,0,0,1-.675,1.275,1.364,1.364,0,0,1-.8.225,1.407,1.407,0,0,1-.825-.225,1.338,1.338,0,0,1-.675-1.275,1.417,1.417,0,0,1,.438-1.1A1.586,1.586,0,0,1,539.86,341.031Z" style="fill: #f8f8f8"/>
      <path d="M548.235,356.256q.2.351,1.174.35h.75v1.15h-.2a52.3,52.3,0,0,0-5.6,0h-.2v-1.15h.749c.65,0,1.041-.116,1.176-.35v-.775q0-.35.011-.787c.008-.292.014-.616.014-.975v-1.038c0-.516-.006-1.07-.014-1.662s-.011-1.079-.011-1.463v-.575a.83.83,0,0,0-.364-.637,2.921,2.921,0,0,0-1.111-.213h-.45v-.575q0-.575.05-.575l.25-.024q.249-.025.713-.051l.912-.05c.283-.016.582-.037.9-.062s.557-.046.725-.063.258-.024.275-.024h.074v1a6.393,6.393,0,0,0,.026.949l.025-.025a4.394,4.394,0,0,1,3.824-1.924,2.918,2.918,0,0,1,3.176,2.824q.024.175.024,3.475,0,3.2.025,3.25a.531.531,0,0,0,.3.275,8.6,8.6,0,0,0,1.224.075h.4v1.15h-.2a52.3,52.3,0,0,0-5.6,0h-.2v-1.15h.6q1.325,0,1.325-.4.025-.051.025-3.451-.024-3.375-.049-3.575a2.216,2.216,0,0,0-.562-1.162,1.691,1.691,0,0,0-1.188-.363,2.713,2.713,0,0,0-1.976.85,3.59,3.59,0,0,0-1.024,2.2v.462c0,.291-.006.663-.014,1.112s-.011.875-.011,1.275v.788q0,.413.011.738c.008.216.014.412.014.587v.587Z" style="fill: #f8f8f8"/>
      <path d="M565.76,363.781c0,.15-.151.225-.451.225h-.325l-.7-.6q-4.5-4.1-4.5-11.9a20.138,20.138,0,0,1,.726-5.575,13.485,13.485,0,0,1,3.774-6.325q.175-.15.4-.337c.151-.125.25-.213.3-.263h.325a.581.581,0,0,1,.375.076.214.214,0,0,1,.076.149q0,.1-.276.375-3.875,4.1-3.875,11.9t3.875,11.9Q565.76,363.681,565.76,363.781Z" style="fill: #f8f8f8"/>
      <path d="M575.134,340.156c.016,0,.084,0,.2-.012s.217-.013.3-.013a2.728,2.728,0,0,1,2.1,1.225,7.228,7.228,0,0,1,.975,4.025,9.176,9.176,0,0,1-.05,1.076,18.3,18.3,0,0,1-1.725,6.224,14,14,0,0,1-1.988,3.1,7.467,7.467,0,0,1-2.237,1.875,3.364,3.364,0,0,1-1.35.35h-.175a2.392,2.392,0,0,1-1.825-.775,6.351,6.351,0,0,1-1.325-4.475,13.616,13.616,0,0,1,.25-2.525,16.41,16.41,0,0,1,3.775-8.175A5.344,5.344,0,0,1,575.134,340.156Zm.4,9.926.125-.426h-4.875l-.025.176a21.151,21.151,0,0,0-.775,4.625,3.493,3.493,0,0,0,.6,2.349.936.936,0,0,0,.725.3q1,0,2.1-1.625A17.967,17.967,0,0,0,575.534,350.082Zm1.2-6.476q0-2.55-1.325-2.55a2.357,2.357,0,0,0-1.7,1.075,13.488,13.488,0,0,0-2.125,4.5,11.194,11.194,0,0,0-.5,1.85q1.224.025,2.425.025l2.425-.025a8.822,8.822,0,0,0,.45-1.95A16.375,16.375,0,0,0,576.734,343.606Z" style="fill: #fff933"/>
      <path d="M580.385,339.031l.1-.025h.551l.7.6q4.5,4.1,4.5,11.9a19.737,19.737,0,0,1-.724,5.55,13.49,13.49,0,0,1-3.776,6.35c-.116.1-.25.213-.4.338s-.25.213-.3.262h-.3a.948.948,0,0,1-.387-.049c-.058-.034-.087-.118-.087-.25.016-.018.108-.125.275-.326q3.875-4.024,3.875-11.875t-3.875-11.875c-.167-.2-.259-.308-.275-.325A.294.294,0,0,1,580.385,339.031Z" style="fill: #f8f8f8"/>
      <path d="M590.109,339.031l.1-.025h.551l.7.6q4.5,4.1,4.5,11.9a19.7,19.7,0,0,1-.725,5.55,13.481,13.481,0,0,1-3.775,6.35c-.116.1-.25.213-.4.338s-.25.213-.3.262h-.3a.948.948,0,0,1-.387-.049c-.059-.034-.088-.118-.088-.25.017-.018.109-.125.276-.326q3.874-4.024,3.875-11.875t-3.875-11.875q-.251-.3-.276-.325A.294.294,0,0,1,590.109,339.031Z" style="fill: #f8f8f8"/>
    </g>
    <g>
      <path d="M451.3,140.352q.375-.025.849-.063c.317-.025.555-.045.713-.062s.246-.025.262-.025c.2,0,.3.067.3.2q0,.176-1.838,7.562t-1.863,7.513a2.166,2.166,0,0,0-.024.375c0,.7.232,1.05.7,1.05a1.077,1.077,0,0,0,.5-.225,5.677,5.677,0,0,0,1.026-2.4c.1-.334.183-.508.25-.525a.718.718,0,0,1,.25-.025h.1c.317,0,.475.066.475.2a2.152,2.152,0,0,1-.074.4,6.538,6.538,0,0,1-1.35,2.9,2.5,2.5,0,0,1-.8.525,2.683,2.683,0,0,1-.6.05,2.257,2.257,0,0,1-2.2-1.225,1.774,1.774,0,0,0-.125-.3c-.016-.017-.049-.008-.1.025l-.1.1a5.12,5.12,0,0,1-2.375,1.375,4.927,4.927,0,0,1-.625.025,3.316,3.316,0,0,1-2.724-1.375,4.868,4.868,0,0,1-.75-2.8,7.639,7.639,0,0,1,1.7-4.6,6.536,6.536,0,0,1,3.451-2.375,3.717,3.717,0,0,1,1.024-.15,2.4,2.4,0,0,1,2.1,1.05c.082.1.125.134.125.1q.024-.1.687-2.738t.688-2.762a.452.452,0,0,0-.15-.4,3.79,3.79,0,0,0-1-.125h-.526a.7.7,0,0,1-.162-.2,2.422,2.422,0,0,1,.063-.475q.124-.476.324-.475c.017,0,.1-.008.263-.025s.383-.034.674-.05Zm-2.151,9.05q-.551-1.975-1.875-1.975a2.307,2.307,0,0,0-1.762.85,5.922,5.922,0,0,0-1.163,1.95,19.9,19.9,0,0,0-1.024,4.1c0,.05,0,.142-.014.275s-.011.233-.011.3a2.478,2.478,0,0,0,.386,1.45,1.305,1.305,0,0,0,1.139.55q1.325,0,2.774-1.8l.2-.275q.225-.9.674-2.713T449.149,149.4Z" style="fill: #f8f8f8"/>
      <path d="M461.675,163.577q0,.225-.452.225H460.9l-.7-.6q-4.5-4.1-4.5-11.9a20.1,20.1,0,0,1,.726-5.575A13.467,13.467,0,0,1,460.2,139.4c.116-.1.25-.213.4-.338s.25-.212.3-.262h.324a.585.585,0,0,1,.375.075.215.215,0,0,1,.077.15q0,.1-.276.375-3.876,4.1-3.875,11.9t3.875,11.9Q461.675,163.477,461.675,163.577Z" style="fill: #f8f8f8"/>
      <path d="M467.824,147.2q-2.3,0-2.3,1.625a1.124,1.124,0,0,0,.05.425,1.493,1.493,0,0,0,.774.862,7.61,7.61,0,0,0,1.7.488,6.76,6.76,0,0,1,1.949.55,3.622,3.622,0,0,1,2.025,2.475,4.582,4.582,0,0,1,.026.6,4.041,4.041,0,0,1-.351,1.725,3.766,3.766,0,0,1-3.675,1.85,3.974,3.974,0,0,1-2.6-.9l-.2.175L465,157.3c-.1.1-.2.192-.3.275l-.274.25h-.2a.453.453,0,0,1-.324-.15V155.7q0-1.625.012-1.875c.009-.167.047-.266.113-.3a1.574,1.574,0,0,1,.4-.025.833.833,0,0,1,.386.05.815.815,0,0,1,.138.35,5.86,5.86,0,0,0,.649,1.725,2.785,2.785,0,0,0,2.426,1.275q2.424,0,2.425-1.95a1.586,1.586,0,0,0-.45-1.175,2.169,2.169,0,0,0-1.05-.675q-.426-.1-1.2-.275a8.573,8.573,0,0,1-1.9-.525,3.119,3.119,0,0,1-1.923-2.325,1.724,1.724,0,0,1-.026-.375q0-2.874,3.526-3.225a1.624,1.624,0,0,1,.6,0,3.868,3.868,0,0,1,1.75.375l.375.2.225-.175a6.278,6.278,0,0,1,.551-.425h.2a.455.455,0,0,1,.325.15v3.3l-.149.15h-.7a.435.435,0,0,1-.149-.3,2.333,2.333,0,0,0-.7-1.8A2.718,2.718,0,0,0,467.824,147.2Z" style="fill: #f8f8f8"/>
      <path d="M479.1,157.552a21.307,21.307,0,0,0-2.6-.075,26.381,26.381,0,0,0-2.725.075h-.2V156.4h.4a8.793,8.793,0,0,0,1.226-.075.535.535,0,0,0,.3-.275q.024-.049.025-3.625a34.941,34.941,0,0,0-.1-4c-.135-.333-.625-.5-1.476-.5h-.274v-.575c0-.383.015-.575.048-.575l.25-.025c.167-.017.4-.033.7-.05l.9-.05q.425-.025.9-.063t.726-.062c.167-.017.259-.025.274-.025h.077V156a.573.573,0,0,0,.3.312,3.96,3.96,0,0,0,.875.088h.577v1.15Zm-2.9-16.725a1.6,1.6,0,0,1,1.024.437,1.408,1.408,0,0,1,.4,1.063,1.338,1.338,0,0,1-.675,1.275,1.371,1.371,0,0,1-.8.225,1.414,1.414,0,0,1-.825-.225,1.338,1.338,0,0,1-.675-1.275,1.415,1.415,0,0,1,.438-1.1A1.581,1.581,0,0,1,476.2,140.827Z" style="fill: #f8f8f8"/>
      <path d="M484.575,156.052c.133.233.523.35,1.174.35h.75v1.15h-.2a52.3,52.3,0,0,0-5.6,0h-.2V156.4h.75c.65,0,1.041-.117,1.176-.35v-.775c0-.234,0-.5.011-.788s.014-.616.014-.975v-1.037c0-.517-.006-1.071-.014-1.663s-.011-1.079-.011-1.462v-.575a.831.831,0,0,0-.364-.638,2.906,2.906,0,0,0-1.111-.212H480.5v-.575c0-.383.016-.575.05-.575l.251-.025c.166-.017.4-.033.712-.05l.913-.05c.283-.017.582-.038.9-.063s.557-.046.725-.062.257-.025.275-.025h.074v1a6.414,6.414,0,0,0,.026.95l.025-.025a4.394,4.394,0,0,1,3.824-1.925,2.918,2.918,0,0,1,3.176,2.825q.024.174.023,3.475,0,3.2.026,3.25a.531.531,0,0,0,.3.275,8.743,8.743,0,0,0,1.224.075h.4v1.15h-.2a52.285,52.285,0,0,0-5.6,0h-.2V156.4h.6q1.324,0,1.324-.4.027-.05.026-3.45-.024-3.375-.049-3.575a2.209,2.209,0,0,0-.563-1.163,1.691,1.691,0,0,0-1.187-.362,2.713,2.713,0,0,0-1.977.85,3.586,3.586,0,0,0-1.023,2.2v.462c0,.292-.006.663-.014,1.113s-.011.875-.011,1.275v.787q0,.412.011.738c.008.217.014.412.014.587v.588Z" style="fill: #f8f8f8"/>
      <path d="M502.1,163.577q0,.225-.449.225h-.326c-.115-.1-.35-.3-.7-.6q-4.5-4.1-4.5-11.9a20.21,20.21,0,0,1,.724-5.575,13.494,13.494,0,0,1,3.776-6.325q.175-.15.4-.338c.151-.125.25-.212.3-.262h.326a.6.6,0,0,1,.375.075.219.219,0,0,1,.074.15c0,.067-.091.192-.275.375q-3.873,4.1-3.875,11.9t3.875,11.9C502.007,163.385,502.1,163.51,502.1,163.577Z" style="fill: #f8f8f8"/>
      <path d="M511.473,139.952c.016,0,.084,0,.2-.013s.216-.012.3-.012a2.721,2.721,0,0,1,2.1,1.225,7.225,7.225,0,0,1,.975,4.025,9.206,9.206,0,0,1-.049,1.075,18.332,18.332,0,0,1-1.725,6.225,14.115,14.115,0,0,1-1.988,3.1,7.487,7.487,0,0,1-2.238,1.875,3.376,3.376,0,0,1-1.35.35h-.174a2.4,2.4,0,0,1-1.826-.775,6.356,6.356,0,0,1-1.324-4.475,13.515,13.515,0,0,1,.25-2.525,16.4,16.4,0,0,1,3.775-8.175A5.339,5.339,0,0,1,511.473,139.952Zm.4,9.925.125-.425h-4.875l-.026.175a21.151,21.151,0,0,0-.775,4.625,3.5,3.5,0,0,0,.6,2.35.937.937,0,0,0,.726.3q1,0,2.1-1.625A18,18,0,0,0,511.874,149.877Zm1.2-6.475q0-2.55-1.324-2.55a2.355,2.355,0,0,0-1.7,1.075,13.527,13.527,0,0,0-2.125,4.5,11.309,11.309,0,0,0-.5,1.85q1.224.024,2.425.025l2.426-.025a8.9,8.9,0,0,0,.449-1.95A16.4,16.4,0,0,0,513.073,143.4Z" style="fill: #fff933"/>
      <path d="M516.723,138.827l.1-.025h.551l.7.6q4.5,4.1,4.5,11.9a19.663,19.663,0,0,1-.725,5.55,13.472,13.472,0,0,1-3.775,6.35c-.115.1-.25.212-.4.337s-.25.213-.3.263h-.3a.946.946,0,0,1-.387-.05c-.058-.034-.088-.117-.088-.25q.027-.025.276-.325,3.876-4.026,3.875-11.875t-3.875-11.875q-.249-.3-.276-.325A.293.293,0,0,1,516.723,138.827Z" style="fill: #f8f8f8"/>
      <path d="M526.448,138.827l.1-.025h.55c.118.1.35.3.7.6q4.5,4.1,4.5,11.9a19.7,19.7,0,0,1-.725,5.55,13.481,13.481,0,0,1-3.775,6.35c-.116.1-.25.212-.4.337s-.25.213-.3.263h-.3a.942.942,0,0,1-.387-.05c-.059-.034-.088-.117-.088-.25.018-.017.109-.125.275-.325q3.876-4.026,3.875-11.875T526.6,139.427c-.166-.2-.257-.308-.275-.325A.293.293,0,0,1,526.448,138.827Z" style="fill: #f8f8f8"/>
    </g>
    <g>
      <path d="M549.761,388.707q.375-.025.849-.063c.317-.025.554-.045.713-.062s.245-.025.263-.025c.2,0,.3.067.3.2q0,.175-1.838,7.562t-1.863,7.513a2.145,2.145,0,0,0-.025.375q0,1.05.7,1.05a1.077,1.077,0,0,0,.5-.225,5.664,5.664,0,0,0,1.026-2.4c.1-.334.182-.508.25-.525a.718.718,0,0,1,.25-.025h.1c.317,0,.476.066.476.2a2.185,2.185,0,0,1-.075.4,6.537,6.537,0,0,1-1.351,2.9,2.494,2.494,0,0,1-.8.525,2.683,2.683,0,0,1-.6.05,2.257,2.257,0,0,1-2.2-1.225,1.9,1.9,0,0,0-.125-.3c-.016-.017-.049-.008-.1.025l-.1.1a5.12,5.12,0,0,1-2.375,1.375,4.927,4.927,0,0,1-.625.025,3.315,3.315,0,0,1-2.724-1.375,4.868,4.868,0,0,1-.75-2.8,7.634,7.634,0,0,1,1.7-4.6,6.536,6.536,0,0,1,3.449-2.375,3.724,3.724,0,0,1,1.025-.15,2.394,2.394,0,0,1,2.1,1.05c.084.1.125.134.125.1q.026-.1.687-2.738t.688-2.762a.452.452,0,0,0-.149-.4,3.783,3.783,0,0,0-1-.125h-.526a.7.7,0,0,1-.162-.2,2.516,2.516,0,0,1,.063-.475q.125-.476.325-.475c.015,0,.1-.008.261-.025s.384-.034.676-.05Zm-2.151,9.05q-.549-1.976-1.875-1.975a2.309,2.309,0,0,0-1.763.85,5.954,5.954,0,0,0-1.162,1.95,19.964,19.964,0,0,0-1.025,4.1c0,.05,0,.142-.012.275s-.012.233-.012.3a2.463,2.463,0,0,0,.387,1.45,1.3,1.3,0,0,0,1.137.55q1.326,0,2.775-1.8l.2-.275q.224-.9.674-2.713T547.61,397.757Z" style="fill: #fc6255"/>
      <path d="M559.785,388.307c.017,0,.084,0,.2-.013s.217-.012.3-.012a2.724,2.724,0,0,1,2.1,1.225,7.234,7.234,0,0,1,.974,4.025,8.954,8.954,0,0,1-.05,1.075,18.309,18.309,0,0,1-1.724,6.225,14.082,14.082,0,0,1-1.989,3.1,7.473,7.473,0,0,1-2.237,1.875,3.376,3.376,0,0,1-1.349.35h-.175a2.392,2.392,0,0,1-1.825-.775,6.351,6.351,0,0,1-1.326-4.475,13.6,13.6,0,0,1,.25-2.525,16.407,16.407,0,0,1,3.776-8.175A5.336,5.336,0,0,1,559.785,388.307Zm.4,9.925.125-.425h-4.875l-.025.175a21.135,21.135,0,0,0-.774,4.625,3.5,3.5,0,0,0,.6,2.35.938.938,0,0,0,.726.3q1,0,2.1-1.625A17.922,17.922,0,0,0,560.185,398.232Zm1.2-6.475q0-2.55-1.326-2.55a2.355,2.355,0,0,0-1.7,1.075,13.488,13.488,0,0,0-2.125,4.5,11.194,11.194,0,0,0-.5,1.85q1.226.024,2.425.025l2.426-.025a8.9,8.9,0,0,0,.449-1.95A16.412,16.412,0,0,0,561.386,391.757Z" style="fill: #fc6255"/>
    </g>
    <rect x="503.172" y="372.913" width="96" height="1.5" style="fill: #f8f8f8"/>
    <g>
      <path d="M619.933,370.381a.545.545,0,0,1,.35-.5h15.925a.547.547,0,0,1,.375.5.563.563,0,0,1-.35.474l-7.95.026h-7.95A.5.5,0,0,1,619.933,370.381Zm0,4.849a.5.5,0,0,1,.4-.5h15.9a.84.84,0,0,0,.113.088,1.238,1.238,0,0,1,.125.1.433.433,0,0,1,.075.125.491.491,0,0,1,.037.187.546.546,0,0,1-.375.5H620.283A.544.544,0,0,1,619.933,375.23Z" style="fill: #fff"/>
      <path d="M647.908,365.831a1.286,1.286,0,0,1-.95.375,1.353,1.353,0,0,1-.962-.363,1.222,1.222,0,0,1-.388-.937,2.893,2.893,0,0,1,1.5-2.676,4.672,4.672,0,0,1,2.1-.774c.033,0,.125,0,.275-.013s.267-.012.35-.012h.1q3.324,0,4.326,1.975a3.08,3.08,0,0,1,.375,1.475,3.186,3.186,0,0,1-1.375,2.625,6.613,6.613,0,0,0-2.851,3.974,7.881,7.881,0,0,0-.125,1.551c0,.467-.009.75-.024.85a.259.259,0,0,1-.125.2,1.466,1.466,0,0,1-.351.024c-.267,0-.425-.041-.475-.125a11.172,11.172,0,0,1-.025-1.149,11.581,11.581,0,0,1,.213-2.3,8.653,8.653,0,0,1,1.962-3.676,2.384,2.384,0,0,0,.575-.862,4.662,4.662,0,0,0,.125-1.287v-.325a2.11,2.11,0,0,0-.45-1.526,2.869,2.869,0,0,0-1.824-.5,3.744,3.744,0,0,0-2.326.7l-.062.062a.858.858,0,0,1-.088.075.453.453,0,0,0-.087.088.453.453,0,0,1-.088.087.331.331,0,0,0-.075.075.433.433,0,0,1-.05.063l-.025.025c.051.016.108.033.176.05a1.238,1.238,0,0,1,1.024,1.3A1.288,1.288,0,0,1,647.908,365.831Zm1.925,10.2a1.6,1.6,0,0,1,1.025.437,1.412,1.412,0,0,1,.4,1.063,1.339,1.339,0,0,1-.676,1.275,1.374,1.374,0,0,1-.8.225,1.418,1.418,0,0,1-.825-.225,1.34,1.34,0,0,1-.675-1.275,1.414,1.414,0,0,1,.438-1.1A1.583,1.583,0,0,1,649.833,376.031Z" style="fill: #83c167"/>
      <path d="M659.708,365.831a1.288,1.288,0,0,1-.95.375,1.353,1.353,0,0,1-.962-.363,1.222,1.222,0,0,1-.388-.937,2.893,2.893,0,0,1,1.5-2.676,4.668,4.668,0,0,1,2.1-.774c.033,0,.125,0,.275-.013s.267-.012.35-.012h.1q3.324,0,4.325,1.975a3.08,3.08,0,0,1,.375,1.475,3.186,3.186,0,0,1-1.375,2.625,6.615,6.615,0,0,0-2.85,3.974,7.881,7.881,0,0,0-.125,1.551,8.066,8.066,0,0,1-.025.85.254.254,0,0,1-.125.2,1.456,1.456,0,0,1-.35.024c-.267,0-.425-.041-.475-.125a11.172,11.172,0,0,1-.025-1.149,11.5,11.5,0,0,1,.213-2.3,8.653,8.653,0,0,1,1.962-3.676,2.4,2.4,0,0,0,.575-.862,4.662,4.662,0,0,0,.125-1.287v-.325a2.115,2.115,0,0,0-.45-1.526,2.87,2.87,0,0,0-1.825-.5,3.741,3.741,0,0,0-2.325.7l-.062.062a.981.981,0,0,1-.088.075.427.427,0,0,0-.087.088.453.453,0,0,1-.088.087.312.312,0,0,0-.075.075.433.433,0,0,1-.05.063l-.025.025c.05.016.108.033.175.05a1.238,1.238,0,0,1,1.025,1.3A1.288,1.288,0,0,1,659.708,365.831Zm1.925,10.2a1.605,1.605,0,0,1,1.025.437,1.411,1.411,0,0,1,.4,1.063,1.338,1.338,0,0,1-.675,1.275,1.374,1.374,0,0,1-.8.225,1.416,1.416,0,0,1-.825-.225,1.338,1.338,0,0,1-.675-1.275,1.413,1.413,0,0,1,.437-1.1A1.585,1.585,0,0,1,661.633,376.031Z" style="fill: #83c167"/>
      <path d="M671.507,365.831a1.289,1.289,0,0,1-.951.375,1.35,1.35,0,0,1-.961-.363,1.222,1.222,0,0,1-.388-.937,2.893,2.893,0,0,1,1.5-2.676,4.664,4.664,0,0,1,2.1-.774c.034,0,.125,0,.276-.013s.266-.012.349-.012h.1q3.324,0,4.325,1.975a3.08,3.08,0,0,1,.375,1.475,3.186,3.186,0,0,1-1.375,2.625,6.615,6.615,0,0,0-2.85,3.974,7.881,7.881,0,0,0-.125,1.551,8.066,8.066,0,0,1-.025.85.254.254,0,0,1-.125.2,1.461,1.461,0,0,1-.35.024c-.267,0-.425-.041-.475-.125a10.826,10.826,0,0,1-.025-1.149,11.5,11.5,0,0,1,.213-2.3,8.665,8.665,0,0,1,1.961-3.676,2.388,2.388,0,0,0,.576-.862,4.662,4.662,0,0,0,.125-1.287v-.325a2.11,2.11,0,0,0-.451-1.526,2.867,2.867,0,0,0-1.824-.5,3.741,3.741,0,0,0-2.325.7c-.017.016-.038.037-.062.062a.981.981,0,0,1-.088.075.4.4,0,0,0-.087.088.483.483,0,0,1-.088.087.312.312,0,0,0-.075.075.513.513,0,0,1-.05.063l-.026.025c.051.016.109.033.176.05a1.238,1.238,0,0,1,1.025,1.3A1.288,1.288,0,0,1,671.507,365.831Zm1.924,10.2a1.608,1.608,0,0,1,1.026.437,1.415,1.415,0,0,1,.4,1.063,1.337,1.337,0,0,1-.676,1.275,1.368,1.368,0,0,1-.8.225,1.422,1.422,0,0,1-.826-.225,1.339,1.339,0,0,1-.674-1.275,1.413,1.413,0,0,1,.437-1.1A1.585,1.585,0,0,1,673.431,376.031Z" style="fill: #83c167"/>
    </g>
  </g>
</svg>
