<svg xmlns="http://www.w3.org/2000/svg" width="720" height="420" viewBox="0 0 720 420">
  <rect width="720" height="420"/>
  <g>
    <rect x="60" y="70" width="240" height="240" style="fill: #1c758a"/>
    <g>
      <path d="M175.371,193.417a.413.413,0,0,1-.15-.274,4.75,4.75,0,0,1,.775-1.726,4.292,4.292,0,0,1,2.95-2.05,4.1,4.1,0,0,1,.525-.049,3.03,3.03,0,0,1,1.613.45,2.687,2.687,0,0,1,1.062,1.125c.216-.283.35-.459.4-.526a2.768,2.768,0,0,1,2.125-1.049,2.367,2.367,0,0,1,1.663.586,1.884,1.884,0,0,1,.637,1.438,1.963,1.963,0,0,1-.438,1.3,1.438,1.438,0,0,1-1.162.524,1.1,1.1,0,0,1-.775-.274.94.94,0,0,1-.3-.726,1.591,1.591,0,0,1,1.25-1.575,1.06,1.06,0,0,0-.275-.175,1.439,1.439,0,0,0-.725-.149,1.608,1.608,0,0,0-.475.05,2.616,2.616,0,0,0-1.4,1.649q-.075.2-.725,2.788t-.7,2.912a3.816,3.816,0,0,0-.075.75,1.279,1.279,0,0,0,.35.95,1.246,1.246,0,0,0,.925.35,2.579,2.579,0,0,0,1.9-.887,4.621,4.621,0,0,0,1.15-1.963c.05-.166.1-.262.15-.287a1.208,1.208,0,0,1,.4-.038c.316,0,.475.068.475.2,0,.017-.017.109-.05.276a5.436,5.436,0,0,1-1.75,2.7,3.943,3.943,0,0,1-2.475.926,2.882,2.882,0,0,1-2.65-1.575,3.5,3.5,0,0,1-1.85,1.5,3.236,3.236,0,0,1-.65.049,2.178,2.178,0,0,1-2.05-1.025,1.931,1.931,0,0,1-.25-1,1.888,1.888,0,0,1,.45-1.274,1.446,1.446,0,0,1,1.15-.526.94.94,0,0,1,1.075,1.05,1.412,1.412,0,0,1-.875,1.351l-.125.062c-.05.024-.092.046-.125.063a.2.2,0,0,1-.075.024l-.075.025q0,.075.375.225a1.659,1.659,0,0,0,.65.125,1.845,1.845,0,0,0,1.55-1.125,18.938,18.938,0,0,0,.975-3.25q.15-.575.325-1.274t.263-1.076c.058-.25.1-.4.112-.45a6.127,6.127,0,0,0,.125-.974,1.342,1.342,0,0,0-.325-.951,1.169,1.169,0,0,0-.9-.349,2.61,2.61,0,0,0-1.95.862,4.745,4.745,0,0,0-1.15,1.987c-.033.151-.071.238-.112.263a1.247,1.247,0,0,1-.413.037Z" style="fill: #fff"/>
      <path d="M189.824,185.789a.815.815,0,0,1-.641-.261.93.93,0,0,1-.234-.642,2.389,2.389,0,0,1,.795-1.8,2.668,2.668,0,0,1,1.9-.751,3.161,3.161,0,0,1,2.077.678,2.853,2.853,0,0,1,1.013,1.77,4.521,4.521,0,0,1,.029.482,2.761,2.761,0,0,1-.51,1.589,9.666,9.666,0,0,1-1.647,1.675q-.525.453-1.458,1.341l-.859.817,1.107.014a17.4,17.4,0,0,0,2.434-.073c.039-.01.088-.111.147-.306a9.446,9.446,0,0,0,.2-.991v-.044h.583v.044L194.357,192v.044h-5.408v-.277a.954.954,0,0,1,.03-.335l1.224-1.385q1.588-1.762,2.04-2.332a4.218,4.218,0,0,0,.977-2.434,2.551,2.551,0,0,0-.5-1.61,1.681,1.681,0,0,0-1.407-.648,1.6,1.6,0,0,0-1.371.758c-.019.039-.048.091-.086.16a.313.313,0,0,0-.044.087c0,.009.024.014.073.014a.743.743,0,0,1,.59.263.912.912,0,0,1,.225.612.87.87,0,0,1-.24.619A.829.829,0,0,1,189.824,185.789Z" style="fill: #fff"/>
    </g>
    <g>
      <path d="M383.416,321.8c.25-.017.533-.037.85-.062s.554-.046.713-.063.246-.024.262-.024c.2,0,.3.066.3.2q0,.175-1.838,7.562t-1.862,7.513a2.05,2.05,0,0,0-.025.375q0,1.05.7,1.05a1.075,1.075,0,0,0,.5-.225,5.673,5.673,0,0,0,1.025-2.4c.1-.333.184-.508.25-.525a.745.745,0,0,1,.25-.025h.1c.316,0,.475.067.475.2a2.117,2.117,0,0,1-.075.4,6.511,6.511,0,0,1-1.35,2.9,2.461,2.461,0,0,1-.8.525,2.622,2.622,0,0,1-.6.05,2.257,2.257,0,0,1-2.2-1.224,1.891,1.891,0,0,0-.125-.3c-.017-.016-.05-.008-.1.025l-.1.1a5.111,5.111,0,0,1-2.375,1.375,4.95,4.95,0,0,1-.625.025,3.318,3.318,0,0,1-2.725-1.375,4.863,4.863,0,0,1-.75-2.8,7.639,7.639,0,0,1,1.7-4.6,6.544,6.544,0,0,1,3.45-2.375,3.724,3.724,0,0,1,1.025-.15,2.394,2.394,0,0,1,2.1,1.05c.083.1.125.134.125.1q.024-.1.688-2.737t.687-2.763a.452.452,0,0,0-.15-.4,3.783,3.783,0,0,0-1-.125h-.525a.664.664,0,0,1-.162-.2,2.458,2.458,0,0,1,.062-.474q.125-.476.325-.476c.017,0,.1-.008.263-.024s.383-.034.675-.051Zm-2.15,9.05q-.55-1.976-1.875-1.975a2.307,2.307,0,0,0-1.762.85,5.9,5.9,0,0,0-1.163,1.95,19.925,19.925,0,0,0-1.025,4.1c0,.049,0,.141-.012.274s-.013.233-.013.3a2.461,2.461,0,0,0,.388,1.45,1.3,1.3,0,0,0,1.137.55q1.325,0,2.775-1.8l.2-.274q.225-.9.675-2.713T381.266,330.85Z" style="fill: #fff"/>
      <path d="M386.916,332.05a.411.411,0,0,1-.15-.274,4.743,4.743,0,0,1,.775-1.726A4.288,4.288,0,0,1,390.49,328a4.138,4.138,0,0,1,.526-.05,3.027,3.027,0,0,1,1.612.451,2.675,2.675,0,0,1,1.062,1.125q.325-.426.4-.526a2.769,2.769,0,0,1,2.125-1.05,2.365,2.365,0,0,1,1.662.587,1.883,1.883,0,0,1,.638,1.438,1.97,1.97,0,0,1-.438,1.3,1.441,1.441,0,0,1-1.162.524,1.1,1.1,0,0,1-.775-.274.937.937,0,0,1-.3-.726,1.589,1.589,0,0,1,1.25-1.575,1.056,1.056,0,0,0-.276-.175,1.425,1.425,0,0,0-.724-.149,1.664,1.664,0,0,0-.476.049,2.619,2.619,0,0,0-1.4,1.65q-.075.2-.726,2.788t-.7,2.912a3.741,3.741,0,0,0-.075.75,1.284,1.284,0,0,0,.349.95,1.249,1.249,0,0,0,.925.35,2.581,2.581,0,0,0,1.9-.887,4.621,4.621,0,0,0,1.15-1.963c.05-.166.1-.262.149-.287a1.216,1.216,0,0,1,.4-.038q.474,0,.474.2c0,.017-.016.109-.049.276a5.449,5.449,0,0,1-1.75,2.7,3.945,3.945,0,0,1-2.475.926,2.88,2.88,0,0,1-2.65-1.576,3.5,3.5,0,0,1-1.85,1.5,3.149,3.149,0,0,1-.65.05,2.179,2.179,0,0,1-2.05-1.025,1.931,1.931,0,0,1-.25-1,1.887,1.887,0,0,1,.45-1.275,1.446,1.446,0,0,1,1.149-.525.94.94,0,0,1,1.076,1.05,1.411,1.411,0,0,1-.875,1.35l-.125.063-.125.062a.191.191,0,0,1-.076.025l-.075.025q0,.075.375.225a1.664,1.664,0,0,0,.651.125,1.845,1.845,0,0,0,1.549-1.125,18.8,18.8,0,0,0,.976-3.25q.15-.575.324-1.275t.263-1.075c.059-.25.1-.4.112-.45a6,6,0,0,0,.125-.975,1.345,1.345,0,0,0-.324-.95,1.171,1.171,0,0,0-.9-.349,2.612,2.612,0,0,0-1.951.862,4.742,4.742,0,0,0-1.149,1.987c-.034.151-.071.238-.113.263a1.235,1.235,0,0,1-.412.037Z" style="fill: #fff"/>
    </g>
    <g>
      <path d="M550.578,363.275a1.4,1.4,0,0,1-1.1-.451,1.594,1.594,0,0,1-.4-1.1,4.1,4.1,0,0,1,1.362-3.087,4.589,4.589,0,0,1,3.263-1.288,5.425,5.425,0,0,1,3.563,1.163A4.88,4.88,0,0,1,559,361.549a7.6,7.6,0,0,1,.05.825,4.731,4.731,0,0,1-.875,2.725,16.569,16.569,0,0,1-2.825,2.875q-.9.776-2.5,2.3l-1.475,1.4,1.9.025a30.074,30.074,0,0,0,4.175-.125q.1-.024.25-.525a15.75,15.75,0,0,0,.35-1.7v-.074h1v.074l-.7,4.575V374h-9.275v-.474a1.7,1.7,0,0,1,.05-.576q.025-.024,2.1-2.375,2.724-3.024,3.5-4A7.244,7.244,0,0,0,556.4,362.4a4.371,4.371,0,0,0-.863-2.763,2.878,2.878,0,0,0-2.412-1.112,2.743,2.743,0,0,0-2.35,1.3c-.034.067-.084.159-.15.275a.568.568,0,0,0-.075.15c0,.017.042.026.125.026a1.27,1.27,0,0,1,1.012.449,1.564,1.564,0,0,1,.388,1.051,1.493,1.493,0,0,1-.413,1.062A1.425,1.425,0,0,1,550.578,363.275Z" style="fill: #fff"/>
      <path d="M561.778,367.049a.415.415,0,0,1-.15-.274,4.743,4.743,0,0,1,.775-1.726,4.289,4.289,0,0,1,2.95-2.05,4.126,4.126,0,0,1,.525-.05,3.027,3.027,0,0,1,1.612.451,2.684,2.684,0,0,1,1.063,1.125q.326-.426.4-.526a2.769,2.769,0,0,1,2.125-1.05,2.363,2.363,0,0,1,1.662.587,1.883,1.883,0,0,1,.638,1.438,1.97,1.97,0,0,1-.438,1.3,1.439,1.439,0,0,1-1.162.524,1.1,1.1,0,0,1-.775-.274.94.94,0,0,1-.3-.726,1.589,1.589,0,0,1,1.25-1.575,1.06,1.06,0,0,0-.275-.175,1.426,1.426,0,0,0-.725-.149,1.651,1.651,0,0,0-.475.049,2.62,2.62,0,0,0-1.4,1.65q-.075.2-.725,2.788t-.7,2.912a3.816,3.816,0,0,0-.075.75,1.281,1.281,0,0,0,.35.95,1.248,1.248,0,0,0,.925.35,2.577,2.577,0,0,0,1.9-.887,4.621,4.621,0,0,0,1.15-1.963c.05-.166.1-.262.15-.287a1.208,1.208,0,0,1,.4-.038q.476,0,.475.2c0,.017-.017.109-.05.276a5.436,5.436,0,0,1-1.75,2.7,3.941,3.941,0,0,1-2.475.926A2.881,2.881,0,0,1,566,372.7a3.5,3.5,0,0,1-1.85,1.5,3.149,3.149,0,0,1-.65.05,2.18,2.18,0,0,1-2.05-1.025,1.931,1.931,0,0,1-.25-1,1.892,1.892,0,0,1,.45-1.275,1.447,1.447,0,0,1,1.15-.525.94.94,0,0,1,1.075,1.05,1.411,1.411,0,0,1-.875,1.35l-.125.063-.125.062a.188.188,0,0,1-.075.025L562.6,373q0,.075.375.225a1.662,1.662,0,0,0,.65.125,1.846,1.846,0,0,0,1.55-1.125,18.838,18.838,0,0,0,.975-3.25q.15-.575.325-1.275t.262-1.075c.059-.25.1-.4.113-.45a6,6,0,0,0,.125-.975,1.345,1.345,0,0,0-.325-.95,1.168,1.168,0,0,0-.9-.349,2.61,2.61,0,0,0-1.95.862,4.734,4.734,0,0,0-1.15,1.987c-.034.151-.071.238-.113.263a1.235,1.235,0,0,1-.412.037Z" style="fill: #fff"/>
      <path d="M585.578,356.8c.25-.017.533-.037.85-.062s.553-.046.713-.063.245-.024.261-.024c.2,0,.3.066.3.2q0,.175-1.838,7.562T584,371.924a2.05,2.05,0,0,0-.025.375q0,1.05.7,1.05a1.075,1.075,0,0,0,.5-.225,5.686,5.686,0,0,0,1.025-2.4q.15-.5.25-.525a.745.745,0,0,1,.25-.025h.1q.474,0,.474.2a2.086,2.086,0,0,1-.074.4,6.522,6.522,0,0,1-1.35,2.9,2.472,2.472,0,0,1-.8.525,2.634,2.634,0,0,1-.6.05,2.255,2.255,0,0,1-2.2-1.224,2.035,2.035,0,0,0-.125-.3c-.017-.016-.05-.008-.1.025l-.1.1a5.111,5.111,0,0,1-2.375,1.375,4.95,4.95,0,0,1-.625.025,3.317,3.317,0,0,1-2.725-1.375,4.863,4.863,0,0,1-.75-2.8,7.65,7.65,0,0,1,1.7-4.6A6.55,6.55,0,0,1,580.6,363.1a3.718,3.718,0,0,1,1.025-.15,2.4,2.4,0,0,1,2.1,1.05c.083.1.125.134.125.1q.024-.1.687-2.737t.688-2.763a.452.452,0,0,0-.15-.4,3.776,3.776,0,0,0-1-.125h-.525a.664.664,0,0,1-.162-.2,2.368,2.368,0,0,1,.062-.474c.083-.317.192-.476.324-.476.017,0,.1-.008.263-.024s.384-.034.675-.051Zm-2.15,9.05q-.55-1.976-1.875-1.975a2.309,2.309,0,0,0-1.763.85,5.919,5.919,0,0,0-1.162,1.95,19.989,19.989,0,0,0-1.025,4.1c0,.049,0,.141-.013.274s-.012.233-.012.3a2.468,2.468,0,0,0,.387,1.45,1.3,1.3,0,0,0,1.138.55q1.325,0,2.775-1.8l.2-.274q.225-.9.675-2.713T583.428,365.849Z" style="fill: #fff"/>
      <path d="M589.077,367.049a.42.42,0,0,1-.15-.274,4.743,4.743,0,0,1,.775-1.726,4.289,4.289,0,0,1,2.95-2.05,4.158,4.158,0,0,1,.525-.05,3.031,3.031,0,0,1,1.613.451,2.684,2.684,0,0,1,1.063,1.125c.215-.284.349-.459.4-.526a2.769,2.769,0,0,1,2.125-1.05,2.365,2.365,0,0,1,1.663.587,1.882,1.882,0,0,1,.637,1.438,1.965,1.965,0,0,1-.438,1.3,1.437,1.437,0,0,1-1.162.524,1.1,1.1,0,0,1-.775-.274.943.943,0,0,1-.3-.726,1.59,1.59,0,0,1,1.25-1.575,1.063,1.063,0,0,0-.274-.175,1.433,1.433,0,0,0-.726-.149,1.651,1.651,0,0,0-.475.049,2.62,2.62,0,0,0-1.4,1.65q-.075.2-.725,2.788t-.7,2.912a3.816,3.816,0,0,0-.075.75,1.277,1.277,0,0,0,.351.95,1.244,1.244,0,0,0,.924.35,2.577,2.577,0,0,0,1.9-.887,4.621,4.621,0,0,0,1.15-1.963c.05-.166.1-.262.151-.287a1.2,1.2,0,0,1,.4-.038c.316,0,.476.067.476.2,0,.017-.018.109-.051.276a5.429,5.429,0,0,1-1.75,2.7,3.943,3.943,0,0,1-2.475.926,2.881,2.881,0,0,1-2.65-1.576,3.5,3.5,0,0,1-1.85,1.5,3.149,3.149,0,0,1-.65.05,2.18,2.18,0,0,1-2.05-1.025,1.931,1.931,0,0,1-.25-1,1.892,1.892,0,0,1,.45-1.275,1.449,1.449,0,0,1,1.151-.525.94.94,0,0,1,1.074,1.05,1.41,1.41,0,0,1-.875,1.35l-.125.063-.125.062a.19.19,0,0,1-.074.025L589.9,373q0,.075.375.225a1.662,1.662,0,0,0,.65.125,1.848,1.848,0,0,0,1.551-1.125,19.083,19.083,0,0,0,.974-3.25q.15-.575.325-1.275t.263-1.075c.058-.25.1-.4.112-.45a6.122,6.122,0,0,0,.125-.975,1.341,1.341,0,0,0-.325-.95,1.168,1.168,0,0,0-.9-.349,2.607,2.607,0,0,0-1.949.862,4.736,4.736,0,0,0-1.151,1.987c-.033.151-.071.238-.112.263a1.247,1.247,0,0,1-.413.037Z" style="fill: #fff"/>
    </g>
    <g>
      <path d="M657.969,245.72c.25-.017.533-.037.849-.063s.554-.045.713-.062.245-.024.262-.024c.2,0,.3.066.3.2q0,.175-1.838,7.562t-1.863,7.513a2.145,2.145,0,0,0-.025.375q0,1.05.7,1.05a1.067,1.067,0,0,0,.5-.225,5.671,5.671,0,0,0,1.026-2.4q.148-.5.25-.525a.741.741,0,0,1,.25-.025h.1q.476,0,.475.2a2.172,2.172,0,0,1-.074.4,6.521,6.521,0,0,1-1.351,2.9,2.461,2.461,0,0,1-.8.525,2.624,2.624,0,0,1-.6.05,2.258,2.258,0,0,1-2.2-1.224,1.891,1.891,0,0,0-.125-.3c-.016-.016-.049-.008-.1.025l-.1.1a5.106,5.106,0,0,1-2.375,1.375,4.927,4.927,0,0,1-.625.025,3.316,3.316,0,0,1-2.724-1.375,4.863,4.863,0,0,1-.75-2.8,7.643,7.643,0,0,1,1.7-4.6,6.547,6.547,0,0,1,3.45-2.375,3.729,3.729,0,0,1,1.025-.15,2.393,2.393,0,0,1,2.1,1.05c.083.1.125.134.125.1q.025-.1.688-2.738t.687-2.762a.454.454,0,0,0-.149-.4,3.79,3.79,0,0,0-1-.125h-.526a.7.7,0,0,1-.162-.2,2.33,2.33,0,0,1,.063-.474c.082-.317.191-.476.324-.476.017,0,.1-.008.263-.024s.383-.034.674-.051Zm-2.151,9.05q-.55-1.976-1.875-1.975a2.306,2.306,0,0,0-1.762.85,5.922,5.922,0,0,0-1.163,1.95,19.989,19.989,0,0,0-1.025,4.1c0,.049,0,.141-.013.274s-.011.233-.011.3a2.475,2.475,0,0,0,.386,1.45,1.3,1.3,0,0,0,1.138.55q1.326,0,2.775-1.8l.2-.274q.224-.9.674-2.713T655.818,254.77Z" style="fill: #fff"/>
      <path d="M661.468,255.97a.413.413,0,0,1-.151-.274,4.765,4.765,0,0,1,.776-1.726,4.287,4.287,0,0,1,2.95-2.05,4.114,4.114,0,0,1,.524-.05,3.033,3.033,0,0,1,1.613.451,2.675,2.675,0,0,1,1.062,1.125q.325-.426.4-.526a2.769,2.769,0,0,1,2.125-1.05,2.363,2.363,0,0,1,1.662.587,1.882,1.882,0,0,1,.637,1.438,1.964,1.964,0,0,1-.437,1.3,1.439,1.439,0,0,1-1.162.524,1.1,1.1,0,0,1-.776-.274.939.939,0,0,1-.3-.726,1.589,1.589,0,0,1,1.25-1.575,1.056,1.056,0,0,0-.276-.175,1.422,1.422,0,0,0-.724-.149,1.651,1.651,0,0,0-.475.049,2.615,2.615,0,0,0-1.4,1.65q-.075.2-.725,2.788t-.7,2.912a3.816,3.816,0,0,0-.075.75,1.284,1.284,0,0,0,.349.95,1.25,1.25,0,0,0,.926.35,2.577,2.577,0,0,0,1.9-.887,4.613,4.613,0,0,0,1.151-1.963c.05-.166.1-.263.149-.287a1.22,1.22,0,0,1,.4-.038q.474,0,.474.2c0,.017-.016.109-.05.276a5.429,5.429,0,0,1-1.75,2.7,3.941,3.941,0,0,1-2.474.926,2.883,2.883,0,0,1-2.651-1.576,3.5,3.5,0,0,1-1.849,1.5,3.16,3.16,0,0,1-.651.05,2.18,2.18,0,0,1-2.049-1.025,1.931,1.931,0,0,1-.25-1,1.892,1.892,0,0,1,.45-1.275,1.445,1.445,0,0,1,1.149-.525.94.94,0,0,1,1.075,1.05,1.411,1.411,0,0,1-.875,1.35l-.125.063-.125.062a.183.183,0,0,1-.075.025l-.074.025q0,.075.375.225a1.654,1.654,0,0,0,.649.125,1.844,1.844,0,0,0,1.55-1.125,18.8,18.8,0,0,0,.976-3.25q.149-.574.325-1.275t.262-1.075c.058-.25.1-.4.113-.45a6.122,6.122,0,0,0,.125-.975,1.345,1.345,0,0,0-.325-.95,1.17,1.17,0,0,0-.9-.349,2.612,2.612,0,0,0-1.95.862,4.732,4.732,0,0,0-1.149,1.987c-.034.151-.072.237-.113.263a1.243,1.243,0,0,1-.413.037Z" style="fill: #fff"/>
      <path d="M675.92,248.342a.814.814,0,0,1-.641-.262.932.932,0,0,1-.233-.641,2.39,2.39,0,0,1,.794-1.8,2.672,2.672,0,0,1,1.9-.751,3.151,3.151,0,0,1,2.077.678,2.844,2.844,0,0,1,1.013,1.77,4.273,4.273,0,0,1,.029.482,2.764,2.764,0,0,1-.509,1.588,9.7,9.7,0,0,1-1.647,1.676q-.527.453-1.458,1.341l-.86.816,1.107.015a17.416,17.416,0,0,0,2.435-.073c.038-.01.087-.111.145-.306a8.8,8.8,0,0,0,.2-.991v-.044h.583v.044l-.408,2.667v.044h-5.407v-.277a1,1,0,0,1,.029-.335q.015-.015,1.225-1.385,1.587-1.763,2.04-2.332a4.23,4.23,0,0,0,.976-2.434,2.555,2.555,0,0,0-.5-1.61,1.677,1.677,0,0,0-1.407-.649,1.6,1.6,0,0,0-1.37.758c-.019.039-.049.092-.088.16a.344.344,0,0,0-.043.087c0,.01.024.015.073.015a.742.742,0,0,1,.59.263.906.906,0,0,1,.226.612.87.87,0,0,1-.24.619A.83.83,0,0,1,675.92,248.342Z" style="fill: #fff"/>
    </g>
    <g>
      <path d="M320.234,385.639c.25-.017.533-.037.849-.063s.555-.046.713-.062.246-.025.263-.025c.2,0,.3.067.3.2q0,.175-1.838,7.562t-1.862,7.513a2.05,2.05,0,0,0-.025.375q0,1.05.7,1.05a1.067,1.067,0,0,0,.5-.225,5.658,5.658,0,0,0,1.026-2.4c.1-.333.183-.508.25-.525a.745.745,0,0,1,.25-.025h.1q.475,0,.476.2a2.111,2.111,0,0,1-.075.4,6.521,6.521,0,0,1-1.35,2.9,2.482,2.482,0,0,1-.8.525,2.677,2.677,0,0,1-.6.05,2.256,2.256,0,0,1-2.2-1.225,2.041,2.041,0,0,0-.125-.3c-.017-.016-.05-.008-.1.025l-.1.1a5.1,5.1,0,0,1-2.375,1.375,4.927,4.927,0,0,1-.625.025,3.316,3.316,0,0,1-2.724-1.375,4.863,4.863,0,0,1-.75-2.8,7.636,7.636,0,0,1,1.7-4.6,6.544,6.544,0,0,1,3.45-2.375,3.718,3.718,0,0,1,1.025-.15,2.4,2.4,0,0,1,2.1,1.05c.083.1.125.134.125.1q.024-.1.687-2.738t.688-2.762a.453.453,0,0,0-.15-.4,3.783,3.783,0,0,0-1-.125h-.526a.7.7,0,0,1-.162-.2,2.627,2.627,0,0,1,.063-.475c.083-.316.191-.475.325-.475.016,0,.1-.008.262-.025s.384-.033.675-.05Zm-2.151,9.05q-.549-1.976-1.875-1.975a2.309,2.309,0,0,0-1.762.85,5.909,5.909,0,0,0-1.162,1.95,19.852,19.852,0,0,0-1.025,4.1c0,.05,0,.142-.013.275s-.012.233-.012.3a2.468,2.468,0,0,0,.387,1.45,1.3,1.3,0,0,0,1.138.55q1.324,0,2.775-1.8l.2-.275q.225-.9.675-2.712T318.083,394.689Z" style="fill: #fff"/>
      <path d="M323.733,395.889a.417.417,0,0,1-.15-.275,4.747,4.747,0,0,1,.775-1.725,4.291,4.291,0,0,1,2.95-2.05,4.142,4.142,0,0,1,.525-.05,3.039,3.039,0,0,1,1.613.45,2.687,2.687,0,0,1,1.062,1.125c.217-.283.35-.459.4-.525a2.769,2.769,0,0,1,2.125-1.05,2.365,2.365,0,0,1,1.663.587,1.882,1.882,0,0,1,.637,1.438,1.965,1.965,0,0,1-.437,1.3,1.439,1.439,0,0,1-1.163.525,1.1,1.1,0,0,1-.775-.275.936.936,0,0,1-.3-.725,1.59,1.59,0,0,1,1.25-1.575,1.029,1.029,0,0,0-.275-.175,1.425,1.425,0,0,0-.725-.15,1.643,1.643,0,0,0-.475.05,2.62,2.62,0,0,0-1.4,1.65q-.075.2-.725,2.788t-.7,2.912a3.816,3.816,0,0,0-.075.75,1.281,1.281,0,0,0,.35.95,1.252,1.252,0,0,0,.925.35,2.577,2.577,0,0,0,1.9-.887,4.621,4.621,0,0,0,1.15-1.963c.05-.166.1-.263.15-.287a1.208,1.208,0,0,1,.4-.038q.476,0,.475.2c0,.017-.017.108-.05.275a5.434,5.434,0,0,1-1.75,2.7,3.94,3.94,0,0,1-2.475.925,2.88,2.88,0,0,1-2.65-1.575,3.5,3.5,0,0,1-1.85,1.5,3.222,3.222,0,0,1-.65.05,2.18,2.18,0,0,1-2.05-1.025,1.936,1.936,0,0,1-.25-1,1.892,1.892,0,0,1,.45-1.275,1.448,1.448,0,0,1,1.15-.525.939.939,0,0,1,1.075,1.05,1.41,1.41,0,0,1-.875,1.35l-.125.063-.125.062a.188.188,0,0,1-.075.025l-.075.025q0,.075.375.225a1.662,1.662,0,0,0,.65.125,1.845,1.845,0,0,0,1.55-1.125,18.838,18.838,0,0,0,.975-3.25q.15-.575.325-1.275t.263-1.075c.058-.25.1-.4.112-.45a6.018,6.018,0,0,0,.125-.975,1.339,1.339,0,0,0-.325-.95,1.168,1.168,0,0,0-.9-.35,2.611,2.611,0,0,0-1.95.863,4.745,4.745,0,0,0-1.15,1.987c-.033.15-.071.237-.112.263a1.247,1.247,0,0,1-.413.037Z" style="fill: #fff"/>
    </g>
    <g>
      <path d="M152.432,49.331c.449.1.691.151.724.151q.576,0,1-1.05.3-.827,1.825-8.9.7-3.774.726-3.8v-.076h-1.176a6.857,6.857,0,0,1-1.25-.049q-.174-.1-.05-.55a2.341,2.341,0,0,1,.125-.4.226.226,0,0,1,.213-.137c.108-.008.5-.013,1.162-.013a11.3,11.3,0,0,0,1.2-.024q0-.051.224-1.25c.151-.8.25-1.284.3-1.451a6.1,6.1,0,0,1,1.574-3.3,3.233,3.233,0,0,1,2.075-.826,2.554,2.554,0,0,1,1.513.55,1.628,1.628,0,0,1,.612,1.325,1.759,1.759,0,0,1-.45,1.225,1.448,1.448,0,0,1-1.125.5q-1.1,0-1.1-1.05a1.41,1.41,0,0,1,.875-1.349l.224-.125a2.443,2.443,0,0,0-.75-.151c-.483,0-.8.318-.949.95q-.2.75-.65,3.276l-.326,1.649a7.064,7.064,0,0,0,1.375.05q1.125,0,1.351.025c.149.017.225.076.225.175a2.777,2.777,0,0,1-.176.8.243.243,0,0,1-.237.138c-.125.009-.571.012-1.337.012h-1.4l-.574,3.05q-.925,4.776-1.15,5.776-.85,3.774-2.276,5.125a2.815,2.815,0,0,1-1.824.8,2.262,2.262,0,0,1-1.5-.5,1.641,1.641,0,0,1-.6-1.325,1.839,1.839,0,0,1,.451-1.262,1.431,1.431,0,0,1,1.125-.512q1.1,0,1.1,1.05a1.41,1.41,0,0,1-.875,1.349Z" style="fill: #fff"/>
      <path d="M170.056,51.307q0,.224-.45.224h-.325q-.176-.148-.7-.6-4.5-4.1-4.5-11.9a20.139,20.139,0,0,1,.725-5.575,13.486,13.486,0,0,1,3.775-6.325c.116-.1.25-.212.4-.337s.25-.213.3-.263h.325a.592.592,0,0,1,.375.076.212.212,0,0,1,.075.149q0,.1-.275.375-3.876,4.1-3.875,11.9t3.875,11.9Q170.056,51.205,170.056,51.307Z" style="fill: #fff"/>
      <path d="M172.906,38.331a.413.413,0,0,1-.15-.274,4.75,4.75,0,0,1,.775-1.726,4.29,4.29,0,0,1,2.95-2.05,4.083,4.083,0,0,1,.525-.049,3.032,3.032,0,0,1,1.613.45,2.693,2.693,0,0,1,1.062,1.125c.216-.283.35-.459.4-.526a2.768,2.768,0,0,1,2.125-1.049,2.363,2.363,0,0,1,1.663.587,1.884,1.884,0,0,1,.637,1.437,1.963,1.963,0,0,1-.438,1.3,1.438,1.438,0,0,1-1.162.524,1.1,1.1,0,0,1-.775-.274.94.94,0,0,1-.3-.726,1.591,1.591,0,0,1,1.25-1.575,1.06,1.06,0,0,0-.275-.175,1.439,1.439,0,0,0-.725-.149,1.608,1.608,0,0,0-.475.05,2.616,2.616,0,0,0-1.4,1.649q-.075.2-.725,2.788t-.7,2.912a3.816,3.816,0,0,0-.075.75,1.279,1.279,0,0,0,.35.95,1.248,1.248,0,0,0,.925.35,2.579,2.579,0,0,0,1.9-.887,4.615,4.615,0,0,0,1.15-1.963c.05-.166.1-.262.15-.287a1.208,1.208,0,0,1,.4-.038c.316,0,.475.068.475.2,0,.017-.017.109-.05.276a5.436,5.436,0,0,1-1.75,2.7,3.943,3.943,0,0,1-2.475.926,2.882,2.882,0,0,1-2.65-1.575,3.5,3.5,0,0,1-1.85,1.5,3.236,3.236,0,0,1-.65.049,2.178,2.178,0,0,1-2.05-1.025,1.931,1.931,0,0,1-.25-1,1.888,1.888,0,0,1,.45-1.274,1.444,1.444,0,0,1,1.15-.526.94.94,0,0,1,1.075,1.05,1.414,1.414,0,0,1-.875,1.351l-.125.062-.125.063a.2.2,0,0,1-.075.024l-.075.025q0,.075.375.225a1.659,1.659,0,0,0,.65.125,1.845,1.845,0,0,0,1.55-1.125,18.938,18.938,0,0,0,.975-3.25q.15-.575.325-1.274t.263-1.076c.058-.25.095-.4.112-.45a6.127,6.127,0,0,0,.125-.974,1.342,1.342,0,0,0-.325-.951,1.169,1.169,0,0,0-.9-.349,2.61,2.61,0,0,0-1.95.862,4.745,4.745,0,0,0-1.15,1.987c-.033.151-.071.238-.113.263a1.206,1.206,0,0,1-.412.037Z" style="fill: #fff"/>
      <path d="M187.256,26.557l.1-.026h.55l.7.6q4.5,4.1,4.5,11.9a19.731,19.731,0,0,1-.725,5.55,13.492,13.492,0,0,1-3.775,6.351c-.117.1-.25.212-.4.337s-.25.213-.3.262h-.3a.95.95,0,0,1-.388-.049c-.058-.035-.087-.118-.087-.25.016-.017.108-.125.275-.326q3.875-4.024,3.875-11.875t-3.875-11.875c-.167-.2-.259-.308-.275-.325A.291.291,0,0,1,187.256,26.557Z" style="fill: #fff"/>
      <path d="M196.88,36.607a.544.544,0,0,1,.35-.5h15.925a.546.546,0,0,1,.375.5.565.565,0,0,1-.349.474l-7.951.026h-7.95A.5.5,0,0,1,196.88,36.607Zm0,4.849a.5.5,0,0,1,.4-.5h15.9a.915.915,0,0,0,.112.088,1.131,1.131,0,0,1,.125.1.412.412,0,0,1,.075.125.469.469,0,0,1,.037.187.546.546,0,0,1-.375.5H197.23A.544.544,0,0,1,196.88,41.456Z" style="fill: #fff"/>
      <path d="M216.381,38.331a.415.415,0,0,1-.151-.274,4.773,4.773,0,0,1,.776-1.726,4.29,4.29,0,0,1,2.95-2.05,4.086,4.086,0,0,1,.524-.049,3.027,3.027,0,0,1,1.613.45,2.7,2.7,0,0,1,1.063,1.125c.216-.283.35-.459.4-.526a2.768,2.768,0,0,1,2.125-1.049,2.358,2.358,0,0,1,1.662.587,1.88,1.88,0,0,1,.637,1.437,1.968,1.968,0,0,1-.437,1.3,1.439,1.439,0,0,1-1.162.524,1.107,1.107,0,0,1-.776-.274.943.943,0,0,1-.3-.726,1.59,1.59,0,0,1,1.25-1.575,1.06,1.06,0,0,0-.275-.175,1.439,1.439,0,0,0-.725-.149,1.608,1.608,0,0,0-.475.05,2.61,2.61,0,0,0-1.4,1.649q-.075.2-.725,2.788t-.7,2.912a3.816,3.816,0,0,0-.075.75,1.279,1.279,0,0,0,.35.95,1.246,1.246,0,0,0,.925.35,2.575,2.575,0,0,0,1.9-.887,4.607,4.607,0,0,0,1.151-1.963c.05-.166.1-.262.15-.287a1.208,1.208,0,0,1,.4-.038c.316,0,.475.068.475.2q0,.026-.051.276a5.429,5.429,0,0,1-1.75,2.7,3.941,3.941,0,0,1-2.474.926,2.884,2.884,0,0,1-2.651-1.575,3.5,3.5,0,0,1-1.849,1.5,3.247,3.247,0,0,1-.651.049,2.178,2.178,0,0,1-2.049-1.025,1.931,1.931,0,0,1-.25-1,1.888,1.888,0,0,1,.45-1.274,1.444,1.444,0,0,1,1.15-.526.939.939,0,0,1,1.074,1.05,1.412,1.412,0,0,1-.875,1.351l-.125.062-.125.063a.2.2,0,0,1-.074.024l-.075.025q0,.075.375.225a1.657,1.657,0,0,0,.649.125,1.846,1.846,0,0,0,1.551-1.125,18.938,18.938,0,0,0,.975-3.25q.148-.575.325-1.274t.262-1.076c.058-.25.1-.4.113-.45a6.127,6.127,0,0,0,.125-.974,1.346,1.346,0,0,0-.325-.951,1.17,1.17,0,0,0-.9-.349,2.608,2.608,0,0,0-1.949.862,4.723,4.723,0,0,0-1.15,1.987c-.034.151-.071.238-.113.263a1.21,1.21,0,0,1-.413.037Z" style="fill: #fff"/>
      <path d="M230.833,30.7a.818.818,0,0,1-.641-.261.934.934,0,0,1-.233-.642,2.392,2.392,0,0,1,.794-1.8,2.672,2.672,0,0,1,1.9-.751,3.156,3.156,0,0,1,2.076.678,2.85,2.85,0,0,1,1.014,1.77,4.5,4.5,0,0,1,.028.482,2.767,2.767,0,0,1-.509,1.589,9.737,9.737,0,0,1-1.647,1.676q-.525.451-1.458,1.34l-.86.817,1.108.014a17.406,17.406,0,0,0,2.434-.073c.038-.01.087-.111.146-.3a9.558,9.558,0,0,0,.2-.992V34.2h.583v.044l-.407,2.667v.044h-5.408v-.277a1,1,0,0,1,.029-.335q.015-.015,1.225-1.385,1.587-1.763,2.04-2.332a4.223,4.223,0,0,0,.976-2.433,2.552,2.552,0,0,0-.5-1.611,1.679,1.679,0,0,0-1.407-.648,1.6,1.6,0,0,0-1.37.758c-.019.039-.049.091-.087.16a.313.313,0,0,0-.044.087c0,.009.024.014.073.014a.74.74,0,0,1,.59.263.907.907,0,0,1,.226.612.868.868,0,0,1-.24.619A.832.832,0,0,1,230.833,30.7Z" style="fill: #fff"/>
    </g>
    <path d="M60.2,350q.384,0,.494.481a16.372,16.372,0,0,1,.237,1.667,12.622,12.622,0,0,0,.382,2.075q1.814,6.444,7.19,6.444H171.331q6.84,0,8.78,8.944,1.94-8.944,8.335-8.944H290.825a13.949,13.949,0,0,0,2.353-.148,6.5,6.5,0,0,0,3.849-2.871,12.014,12.014,0,0,0,1.941-5.834c0-.048.011-.191.032-.425a4.715,4.715,0,0,1,.063-.5c.021-.1.054-.236.1-.409a.6.6,0,0,1,.233-.37.641.641,0,0,1,.365-.111c.552,0,.16,5.5-1.173,8.384s-3.27,4.509-5.809,4.876a17.959,17.959,0,0,1-1.888.073H188.764a7.185,7.185,0,0,0-3.786.981,6.191,6.191,0,0,0-2.4,2.538,20.549,20.549,0,0,0-1.129,2.611,10.683,10.683,0,0,0-.476,2.13c0,.148-.012.364-.033.648a3.244,3.244,0,0,1-.111.685c-.053.172-.1.346-.143.518a.79.79,0,0,1-.223.408.507.507,0,0,1-.35.148.593.593,0,0,1-.652-.519,3.808,3.808,0,0,1-.111-.611c-.021-.209-.053-.488-.1-.834s-.085-.665-.128-.962a11.7,11.7,0,0,0-2-4.945,6.128,6.128,0,0,0-3.977-2.648,9.064,9.064,0,0,0-1.908-.148H68.885a12.937,12.937,0,0,1-2.04-.128,6.6,6.6,0,0,1-2.134-.99,8.29,8.29,0,0,1-2.463-2.511C59.833,356.665,59.78,350,60.2,350Z" style="fill: #f8f8f8"/>
    <rect x="321.5" y="70" width="2" height="240" style="fill: #ffe650"/>
    <rect x="321.5" y="331.5" width="2" height="2" style="fill: #ffe650"/>
    <rect x="60" y="331.5" width="240" height="2" style="fill: #ffe650"/>
    <path d="M340,309.8q0-.384.481-.494a16.372,16.372,0,0,1,1.667-.237,12.622,12.622,0,0,0,2.075-.382q6.444-1.814,6.444-7.19V198.669q0-6.84,8.944-8.78-8.944-1.94-8.944-8.335V79.175a13.949,13.949,0,0,0-.148-2.353,6.5,6.5,0,0,0-2.871-3.849,12.014,12.014,0,0,0-5.834-1.941c-.048,0-.191-.011-.425-.032a4.715,4.715,0,0,1-.5-.063c-.1-.021-.236-.054-.409-.1a.6.6,0,0,1-.37-.233.641.641,0,0,1-.111-.365c0-.552,5.5-.16,8.384,1.173s4.509,3.27,4.876,5.809a17.959,17.959,0,0,1,.073,1.888V181.236a7.185,7.185,0,0,0,.981,3.786,6.191,6.191,0,0,0,2.538,2.4,20.549,20.549,0,0,0,2.611,1.129,10.683,10.683,0,0,0,2.13.476c.148,0,.364.012.648.033a3.244,3.244,0,0,1,.685.111c.172.053.346.1.518.143a.79.79,0,0,1,.408.223.507.507,0,0,1,.148.35.593.593,0,0,1-.519.652,3.808,3.808,0,0,1-.611.111c-.209.021-.488.053-.834.1s-.665.085-.962.128a11.7,11.7,0,0,0-4.945,2,6.128,6.128,0,0,0-2.648,3.977,9.064,9.064,0,0,0-.148,1.908V301.115a12.937,12.937,0,0,1-.128,2.04,6.6,6.6,0,0,1-.99,2.134,8.29,8.29,0,0,1-2.511,2.463C346.665,310.167,340,310.22,340,309.8Z" style="fill: #f8f8f8"/>
    <path d="M658.518,212.5c.018,0,.03.107.035.321s.011.584.017,1.111.016.987.028,1.383q.129,4.3.513,4.3h.245q.489,0,.628,5.963.138-5.963.595-5.963h.269a.182.182,0,0,0,.168-.1,7.785,7.785,0,0,0,.275-1.915q.117-1.568.139-3.888c0-.033,0-.128,0-.284s0-.268,0-.333,0-.157.007-.272a2.356,2.356,0,0,1,.016-.247c.008-.05.017-.074.026-.074.04,0,.012,3.667-.083,5.59a10.407,10.407,0,0,1-.415,3.25.18.18,0,0,1-.135.049H660.6c-.1,0-.194.218-.271.654a14.542,14.542,0,0,0-.171,1.692q-.055,1.035-.081,1.74t-.034,1.42c0,.1,0,.243,0,.432s0,.341-.008.457-.007.231-.011.345-.008.206-.015.272-.016.1-.025.1-.022-.024-.03-.074a2.583,2.583,0,0,1-.017-.272c0-.131-.006-.267-.008-.407s0-.326-.007-.556-.006-.444-.009-.642q-.031-1.827-.143-3.3a5.846,5.846,0,0,0-.284-1.765.145.145,0,0,0-.136-.1h-.212a.166.166,0,0,1-.145-.086,2.949,2.949,0,0,1-.153-.66q-.1-.573-.176-1.674C658.492,216.943,658.488,212.5,658.518,212.5Z" style="fill: #f8f8f8"/>
    <path d="M321.014,350a1.6,1.6,0,0,1,.036.481q.007.482.017,1.667c.006.791.015,1.481.027,2.075q.129,6.444.513,6.444h.246q.488,0,.627,8.944.138-8.944.595-8.944h.27c.074,0,.13-.05.168-.148a17.323,17.323,0,0,0,.275-2.871q.115-2.352.138-5.834c0-.048,0-.191,0-.425s0-.4,0-.5,0-.236.007-.409.009-.3.017-.37.016-.111.026-.111c.039,0,.011,5.5-.084,8.384a22.841,22.841,0,0,1-.415,4.876.149.149,0,0,1-.135.073H323.1c-.1,0-.193.328-.271.981s-.134,1.5-.171,2.538-.064,1.907-.081,2.611-.028,1.414-.034,2.13q0,.222,0,.648c0,.283,0,.511-.008.685s-.007.346-.01.518-.009.309-.016.408-.016.148-.025.148-.022-.037-.03-.111-.013-.21-.017-.408-.006-.4-.008-.611,0-.488-.007-.834-.006-.665-.009-.962q-.032-2.74-.143-4.945a12.778,12.778,0,0,0-.284-2.648c-.03-.1-.076-.148-.136-.148h-.211c-.061,0-.11-.043-.146-.128a6.473,6.473,0,0,1-.153-.99q-.1-.861-.175-2.511C320.988,356.665,320.984,350,321.014,350Z" style="fill: #f8f8f8"/>
    <path d="M542.957,324.5c.174,0,.285.107.335.321a11.213,11.213,0,0,1,.16,1.111,8.23,8.23,0,0,0,.257,1.383q1.227,4.3,4.858,4.3H567.1q4.622,0,5.932,5.963,1.311-5.963,5.632-5.963H597.43a9.589,9.589,0,0,0,1.59-.1,4.393,4.393,0,0,0,2.6-1.915,7.945,7.945,0,0,0,1.312-3.888c0-.033.007-.128.021-.284a3.1,3.1,0,0,1,.043-.333c.014-.067.036-.157.066-.272a.4.4,0,0,1,.157-.247.429.429,0,0,1,.246-.074c.373,0,.109,3.667-.792,5.59a5.1,5.1,0,0,1-3.925,3.25,12.486,12.486,0,0,1-1.276.049H578.881a4.9,4.9,0,0,0-2.558.654,4.141,4.141,0,0,0-1.623,1.692,13.523,13.523,0,0,0-.763,1.74,7.082,7.082,0,0,0-.322,1.42c0,.1-.008.243-.022.432a2.112,2.112,0,0,1-.075.457q-.054.173-.1.345a.532.532,0,0,1-.151.272.344.344,0,0,1-.237.1.479.479,0,0,1-.279-.074.465.465,0,0,1-.161-.272,2.451,2.451,0,0,1-.075-.408c-.015-.139-.036-.325-.065-.555s-.057-.444-.086-.642a7.737,7.737,0,0,0-1.354-3.3,4.142,4.142,0,0,0-2.687-1.765,6.209,6.209,0,0,0-1.289-.1H548.825a8.793,8.793,0,0,1-1.378-.086,4.483,4.483,0,0,1-1.443-.66,5.572,5.572,0,0,1-1.663-1.674C542.709,328.943,542.673,324.5,542.957,324.5Z" style="fill: #f8f8f8"/>
    <path d="M340,333.986a1.6,1.6,0,0,1,.481-.036q.482-.007,1.667-.017c.791-.006,1.481-.015,2.075-.027q6.444-.129,6.444-.513v-.246q0-.488,8.944-.627-8.944-.138-8.944-.595v-.27c0-.074-.05-.13-.148-.168a17.323,17.323,0,0,0-2.871-.275q-2.352-.115-5.834-.138l-.425,0-.5,0-.409-.007c-.173,0-.3-.009-.37-.017s-.111-.016-.111-.026c0-.039,5.5-.011,8.384.084a22.841,22.841,0,0,1,4.876.415.149.149,0,0,1,.073.135v.251c0,.1.328.193.981.271s1.5.134,2.538.171,1.907.064,2.611.081,1.414.028,2.13.034l.648,0c.283,0,.511,0,.685.008l.518.01c.174,0,.309.009.408.016s.148.016.148.025-.037.022-.111.03-.21.013-.408.017-.4.006-.611.008l-.834.007-.962.009q-2.74.032-4.945.143a12.778,12.778,0,0,0-2.648.284c-.1.03-.148.076-.148.136v.211c0,.061-.043.11-.128.146a6.473,6.473,0,0,1-.99.153q-.861.1-2.511.175C346.665,334.012,340,334.016,340,333.986Z" style="fill: #f8f8f8"/>
    <path d="M380.416,188.509a.411.411,0,0,1-.15-.274,4.743,4.743,0,0,1,.775-1.726,4.289,4.289,0,0,1,2.95-2.05,4.126,4.126,0,0,1,.525-.05,3.027,3.027,0,0,1,1.612.451,2.669,2.669,0,0,1,1.062,1.125q.325-.426.4-.526a2.769,2.769,0,0,1,2.125-1.05,2.363,2.363,0,0,1,1.662.587,1.88,1.88,0,0,1,.638,1.438,1.965,1.965,0,0,1-.438,1.3,1.439,1.439,0,0,1-1.162.524,1.1,1.1,0,0,1-.775-.274.937.937,0,0,1-.3-.726,1.589,1.589,0,0,1,1.25-1.575,1.056,1.056,0,0,0-.276-.175,1.422,1.422,0,0,0-.724-.149,1.651,1.651,0,0,0-.475.049,2.618,2.618,0,0,0-1.4,1.65q-.075.2-.725,2.788t-.7,2.912a3.816,3.816,0,0,0-.075.75,1.284,1.284,0,0,0,.349.95,1.25,1.25,0,0,0,.926.35,2.581,2.581,0,0,0,1.9-.887,4.621,4.621,0,0,0,1.15-1.963c.05-.166.1-.263.149-.287a1.22,1.22,0,0,1,.4-.038q.474,0,.474.2c0,.017-.016.109-.049.276a5.442,5.442,0,0,1-1.75,2.7,3.945,3.945,0,0,1-2.475.926,2.881,2.881,0,0,1-2.65-1.576,3.5,3.5,0,0,1-1.85,1.5,3.149,3.149,0,0,1-.65.05,2.18,2.18,0,0,1-2.05-1.025,1.931,1.931,0,0,1-.25-1,1.892,1.892,0,0,1,.45-1.275,1.446,1.446,0,0,1,1.149-.525.94.94,0,0,1,1.076,1.05,1.411,1.411,0,0,1-.875,1.35c-.034.017-.076.037-.125.063l-.125.062a.191.191,0,0,1-.076.025l-.074.025q0,.075.375.225a1.655,1.655,0,0,0,.65.125,1.844,1.844,0,0,0,1.549-1.125,18.8,18.8,0,0,0,.976-3.25q.15-.575.325-1.275t.262-1.075c.059-.25.1-.4.113-.45a6.122,6.122,0,0,0,.125-.975,1.345,1.345,0,0,0-.325-.95,1.169,1.169,0,0,0-.9-.349,2.614,2.614,0,0,0-1.951.862,4.742,4.742,0,0,0-1.149,1.987c-.034.151-.071.237-.112.263a1.247,1.247,0,0,1-.413.037Z" style="fill: #fff"/>
    <path d="M174.371,395.89a.417.417,0,0,1-.15-.275A4.747,4.747,0,0,1,175,393.89a4.289,4.289,0,0,1,2.95-2.05,4.126,4.126,0,0,1,.525-.05,3.035,3.035,0,0,1,1.612.45,2.689,2.689,0,0,1,1.063,1.125l.4-.525a2.769,2.769,0,0,1,2.125-1.05,2.363,2.363,0,0,1,1.662.587,1.88,1.88,0,0,1,.638,1.438,1.96,1.96,0,0,1-.438,1.3,1.437,1.437,0,0,1-1.162.525,1.1,1.1,0,0,1-.775-.275.936.936,0,0,1-.3-.725,1.589,1.589,0,0,1,1.25-1.575,1.029,1.029,0,0,0-.275-.175,1.428,1.428,0,0,0-.725-.15,1.643,1.643,0,0,0-.475.05,2.62,2.62,0,0,0-1.4,1.65q-.075.2-.725,2.788t-.7,2.912a3.816,3.816,0,0,0-.075.75,1.281,1.281,0,0,0,.35.95,1.25,1.25,0,0,0,.925.35,2.579,2.579,0,0,0,1.9-.887,4.621,4.621,0,0,0,1.15-1.963c.05-.166.1-.263.15-.287a1.208,1.208,0,0,1,.4-.038c.316,0,.475.067.475.2,0,.017-.017.108-.05.275a5.434,5.434,0,0,1-1.75,2.7,3.942,3.942,0,0,1-2.475.925,2.88,2.88,0,0,1-2.65-1.575,3.5,3.5,0,0,1-1.85,1.5,3.222,3.222,0,0,1-.65.05,2.18,2.18,0,0,1-2.05-1.025,1.936,1.936,0,0,1-.25-1,1.892,1.892,0,0,1,.45-1.275,1.447,1.447,0,0,1,1.15-.525.94.94,0,0,1,1.075,1.05,1.411,1.411,0,0,1-.875,1.35l-.125.063-.125.062a.193.193,0,0,1-.075.025l-.075.025q0,.075.375.225a1.659,1.659,0,0,0,.65.125,1.846,1.846,0,0,0,1.55-1.125,18.938,18.938,0,0,0,.975-3.25q.15-.575.325-1.275c.117-.467.2-.825.262-1.075s.1-.4.113-.45a6.136,6.136,0,0,0,.125-.975,1.344,1.344,0,0,0-.325-.95,1.17,1.17,0,0,0-.9-.35,2.611,2.611,0,0,0-1.95.863,4.734,4.734,0,0,0-1.15,1.987c-.034.15-.071.237-.112.263a1.247,1.247,0,0,1-.413.037Z" style="fill: #fff"/>
    <g>
      <path d="M478.446,179.918q.375-.024.85-.062t.713-.063c.158-.016.245-.024.262-.024.2,0,.3.066.3.2q0,.176-1.838,7.562t-1.862,7.513a2.05,2.05,0,0,0-.025.375q0,1.05.7,1.05a1.075,1.075,0,0,0,.5-.225,5.667,5.667,0,0,0,1.025-2.4q.15-.5.25-.524a.713.713,0,0,1,.25-.026h.1c.316,0,.475.068.475.2a2.1,2.1,0,0,1-.075.4,6.522,6.522,0,0,1-1.35,2.9,2.49,2.49,0,0,1-.8.526,2.706,2.706,0,0,1-.6.049,2.256,2.256,0,0,1-2.2-1.224,2.035,2.035,0,0,0-.125-.3c-.017-.016-.05-.008-.1.025l-.1.1a5.111,5.111,0,0,1-2.375,1.375,4.757,4.757,0,0,1-.625.025,3.317,3.317,0,0,1-2.725-1.375,4.862,4.862,0,0,1-.75-2.8,7.648,7.648,0,0,1,1.7-4.6,6.544,6.544,0,0,1,3.45-2.375,3.716,3.716,0,0,1,1.025-.149,2.4,2.4,0,0,1,2.1,1.049c.083.1.125.134.125.1q.024-.1.687-2.737t.688-2.763a.448.448,0,0,0-.15-.4,3.692,3.692,0,0,0-1-.125h-.525a.681.681,0,0,1-.162-.2,2.458,2.458,0,0,1,.062-.474c.083-.317.192-.476.325-.476.016,0,.1-.008.262-.024s.384-.033.675-.051Zm-2.15,9.05q-.55-1.974-1.875-1.975a2.313,2.313,0,0,0-1.763.85,5.919,5.919,0,0,0-1.162,1.95,20.006,20.006,0,0,0-1.025,4.1c0,.05,0,.141-.013.274s-.012.234-.012.3a2.466,2.466,0,0,0,.387,1.45,1.3,1.3,0,0,0,1.138.55q1.324,0,2.775-1.8l.2-.274q.225-.9.675-2.713T476.3,188.968Z" style="fill: #ffe650"/>
      <path d="M483.445,201.168c.451.1.692.151.725.151q.576,0,1-1.05.3-.827,1.825-8.9.7-3.774.726-3.8v-.076h-1.176a6.857,6.857,0,0,1-1.25-.049q-.174-.1-.05-.55a2.341,2.341,0,0,1,.125-.4.225.225,0,0,1,.213-.137c.108-.008.495-.013,1.162-.013a11.273,11.273,0,0,0,1.2-.024c0-.034.076-.451.225-1.25s.25-1.284.3-1.451a6.092,6.092,0,0,1,1.574-3.3,3.231,3.231,0,0,1,2.075-.826,2.552,2.552,0,0,1,1.513.55,1.628,1.628,0,0,1,.612,1.325,1.759,1.759,0,0,1-.45,1.225,1.448,1.448,0,0,1-1.125.5q-1.1,0-1.1-1.05a1.41,1.41,0,0,1,.875-1.349l.225-.125a2.443,2.443,0,0,0-.75-.151c-.483,0-.8.318-.949.95q-.2.75-.651,3.276L490,186.293a7.064,7.064,0,0,0,1.375.05q1.125,0,1.351.025c.149.017.224.076.224.175a2.794,2.794,0,0,1-.174.8.246.246,0,0,1-.238.138q-.187.012-1.338.012h-1.4l-.574,3.05q-.926,4.776-1.151,5.776-.849,3.774-2.275,5.125a2.817,2.817,0,0,1-1.824.8,2.262,2.262,0,0,1-1.5-.5,1.638,1.638,0,0,1-.6-1.325,1.852,1.852,0,0,1,.45-1.263,1.436,1.436,0,0,1,1.125-.511q1.1,0,1.1,1.05a1.41,1.41,0,0,1-.875,1.349Z" style="fill: #ffe650"/>
    </g>
    <rect x="543.498" y="70" width="2" height="240" style="fill: #ffe650"/>
    <rect x="601.251" y="70" width="2" height="240" style="fill: #ffe650"/>
    <rect x="659.004" y="189" width="2" height="2" style="fill: #ffe650"/>
    <path d="M565.05,190.868a.546.546,0,0,1,.349-.5h7.475v-3.75l.025-3.75c.166-.216.326-.325.475-.325a.546.546,0,0,1,.5.375v7.45h7.45a.521.521,0,0,1,0,1h-7.45v7.451a.533.533,0,0,1-1,0v-7.451H565.4A.543.543,0,0,1,565.05,190.868Z" style="fill: #fff"/>
    <path d="M622.8,190.868a.546.546,0,0,1,.349-.5h7.475v-3.75l.025-3.75c.166-.216.326-.325.475-.325a.546.546,0,0,1,.5.375v7.45h7.45a.521.521,0,0,1,0,1h-7.45v7.451a.533.533,0,0,1-1,0v-7.451h-7.475A.543.543,0,0,1,622.8,190.868Z" style="fill: #fff"/>
    <path d="M507.3,188.444a.543.543,0,0,1,.349-.5h15.925a.546.546,0,0,1,.375.5.565.565,0,0,1-.349.474l-7.951.026H507.7A.5.5,0,0,1,507.3,188.444Zm0,4.849a.5.5,0,0,1,.4-.5h15.9a.915.915,0,0,0,.112.088,1.041,1.041,0,0,1,.125.1.412.412,0,0,1,.075.125.469.469,0,0,1,.037.187.546.546,0,0,1-.375.5H507.646A.543.543,0,0,1,507.3,193.293Z" style="fill: #fff"/>
  </g>
</svg>
