<svg width="960" height="480" viewBox="0 0 960 480" fill="none" xmlns="http://www.w3.org/2000/svg">
<rect width="960" height="480" fill="black"/>
<path d="M264 400C352.366 400 424 328.366 424 240C424 151.634 352.366 80 264 80C175.634 80 104 151.634 104 240C104 328.366 175.634 400 264 400Z" fill="url(#paint0_radial)"/>
<path d="M264 400C352.366 400 424 328.366 424 240C424 151.634 352.366 80 264 80C175.634 80 104 151.634 104 240C104 328.366 175.634 400 264 400Z" stroke="black" stroke-width="2"/>
<path d="M264 401C352.918 401 425 328.918 425 240C425 151.082 352.918 79 264 79C175.082 79 103 151.082 103 240C103 328.918 175.082 401 264 401Z" stroke="white" stroke-width="2"/>
<path d="M264 256C272.837 256 280 248.837 280 240C280 231.163 272.837 224 264 224C255.163 224 248 231.163 248 240C248 248.837 255.163 256 264 256Z" stroke="black" stroke-width="2"/>
<path d="M264 272C281.673 272 296 257.673 296 240C296 222.327 281.673 208 264 208C246.327 208 232 222.327 232 240C232 257.673 246.327 272 264 272Z" stroke="black" stroke-width="2"/>
<path d="M264 288C290.51 288 312 266.51 312 240C312 213.49 290.51 192 264 192C237.49 192 216 213.49 216 240C216 266.51 237.49 288 264 288Z" stroke="black" stroke-width="2"/>
<path d="M264 304C299.346 304 328 275.346 328 240C328 204.654 299.346 176 264 176C228.654 176 200 204.654 200 240C200 275.346 228.654 304 264 304Z" stroke="black" stroke-width="2"/>
<path d="M264 320C308.183 320 344 284.183 344 240C344 195.817 308.183 160 264 160C219.817 160 184 195.817 184 240C184 284.183 219.817 320 264 320Z" stroke="black" stroke-width="2"/>
<path d="M264 336C317.019 336 360 293.019 360 240C360 186.981 317.019 144 264 144C210.981 144 168 186.981 168 240C168 293.019 210.981 336 264 336Z" stroke="black" stroke-width="2"/>
<path d="M264 352C325.856 352 376 301.856 376 240C376 178.144 325.856 128 264 128C202.144 128 152 178.144 152 240C152 301.856 202.144 352 264 352Z" stroke="black" stroke-width="2"/>
<path d="M264 368C334.692 368 392 310.692 392 240C392 169.308 334.692 112 264 112C193.308 112 136 169.308 136 240C136 310.692 193.308 368 264 368Z" stroke="black" stroke-width="2"/>
<path d="M264 384C343.529 384 408 319.529 408 240C408 160.471 343.529 96 264 96C184.471 96 120 160.471 120 240C120 319.529 184.471 384 264 384Z" stroke="black" stroke-width="2"/>
<path fill-rule="evenodd" clip-rule="evenodd" d="M376 240C376 301.856 325.856 352 264 352C202.144 352 152 301.856 152 240C152 178.144 202.144 128 264 128C325.856 128 376 178.144 376 240ZM360 240C360 293.019 317.019 336 264 336C210.981 336 168 293.019 168 240C168 186.981 210.981 144 264 144C317.019 144 360 186.981 360 240Z" fill="#1C758A"/>
<path d="M264 353C326.408 353 377 302.408 377 240H375C375 301.304 325.304 351 264 351V353ZM151 240C151 302.408 201.592 353 264 353V351C202.696 351 153 301.304 153 240H151ZM264 127C201.592 127 151 177.592 151 240H153C153 178.696 202.696 129 264 129V127ZM377 240C377 177.592 326.408 127 264 127V129C325.304 129 375 178.696 375 240H377ZM264 337C317.572 337 361 293.572 361 240H359C359 292.467 316.467 335 264 335V337ZM167 240C167 293.572 210.428 337 264 337V335C211.533 335 169 292.467 169 240H167ZM264 143C210.428 143 167 186.428 167 240H169C169 187.533 211.533 145 264 145V143ZM361 240C361 186.428 317.572 143 264 143V145C316.467 145 359 187.533 359 240H361Z" fill="black"/>
<g filter="url(#filter0_d)">
<path d="M354.738 333.444C354.058 333.324 350.878 333.264 345.198 333.264C339.598 333.264 336.458 333.324 335.778 333.444H335.058V330.684H336.618C338.938 330.684 340.438 330.624 341.118 330.504C341.438 330.464 341.918 330.224 342.558 329.784V298.764C342.478 298.764 342.318 298.824 342.078 298.944C340.238 299.664 338.178 300.044 335.898 300.084H334.758V297.324H335.898C339.258 297.204 342.058 296.444 344.298 295.044C345.018 294.644 345.638 294.184 346.158 293.664C346.238 293.544 346.478 293.484 346.878 293.484C347.278 293.484 347.618 293.604 347.898 293.844V311.784L347.958 329.784C348.558 330.384 349.858 330.684 351.858 330.684H353.838H355.398V333.444H354.738Z" fill="white"/>
</g>
<path d="M422.904 249.029C423.342 249.029 423.562 249.029 424 249.344V250.917C424 254.38 423.562 257.842 422.685 261.304C421.808 263.822 420.274 266.026 418.301 266.655C418.082 266.655 415.452 266.97 410.411 266.97H354.74C352.986 266.97 351.014 266.97 349.26 267.285C347.945 267.914 347.068 269.173 346.411 270.747C345.534 272.635 345.096 274.524 345.096 276.727C345.096 277.042 345.096 277.357 344.877 277.986C344.219 278.301 343.781 278.301 343.123 277.986C342.904 277.671 342.904 277.357 342.904 276.727C342.904 274.524 342.466 272.635 341.589 270.747C340.932 269.173 339.836 267.914 338.74 267.285C338.301 266.97 337.863 266.97 337.425 266.97C336.986 266.97 281.973 266.97 277.589 266.97C272.548 266.97 269.918 266.97 269.699 266.655C268.603 266.34 267.507 265.396 266.849 264.137C265.753 262.248 264.877 260.045 264.438 257.842C264.219 256.583 264 255.009 264 253.75C264 253.75 264 253.435 264 252.806C264 252.176 264 251.862 264 251.547V249.344C264.219 249.029 264.658 248.714 264.877 249.029C265.096 249.029 265.534 249.029 265.753 249.344C265.973 249.344 265.973 249.973 265.973 250.603C265.973 253.121 266.63 255.953 267.726 257.842C268.164 258.786 268.822 259.416 269.699 259.73C272.329 260.045 275.178 260.36 277.808 260.045C282.63 260.045 337.644 260.045 337.863 260.045C340.712 260.675 342.685 263.822 344 269.488C344.438 267.285 345.315 264.767 346.411 262.878C347.288 261.304 348.603 260.045 350.137 260.045C350.356 260.045 405.37 260.045 410.192 260.045C412.822 260.36 415.671 260.045 418.301 259.73C419.397 259.101 420.274 257.842 420.932 256.268C421.589 254.38 422.027 252.491 422.027 250.288C422.027 249.658 422.027 249.029 422.247 249.029C422.466 249.029 422.685 248.714 422.904 249.029Z" fill="white"/>
<path d="M264 240H424" stroke="#FFF1B6" stroke-width="3"/>
<path d="M264 240L331.556 172.444" stroke="white" stroke-width="3"/>
<path d="M360 244.444V235.556V240H376V244.444V235.556" stroke="#F7A1A3" stroke-width="3"/>
<g filter="url(#filter1_d)">
<path d="M270.48 198.549C269.92 198.549 269.44 198.389 269.04 198.069C268.64 197.789 268.44 197.389 268.44 196.869C268.44 196.349 269.24 192.909 270.84 186.549C272.44 180.189 273.24 176.649 273.24 175.929C273.24 174.369 272.72 173.589 271.68 173.589C271.24 173.589 270.86 173.729 270.54 174.009C269.58 174.769 268.62 176.989 267.66 180.669C267.66 180.709 267.64 180.789 267.6 180.909C267.56 180.989 267.52 181.049 267.48 181.089C267.48 181.089 267.46 181.109 267.42 181.149C267.38 181.189 267.3 181.209 267.18 181.209C267.1 181.209 267.02 181.209 266.94 181.209C266.86 181.209 266.7 181.209 266.46 181.209H265.62C265.38 180.969 265.26 180.789 265.26 180.669C265.26 180.349 265.52 179.409 266.04 177.849C266.8 175.529 267.7 173.849 268.74 172.809C269.7 171.849 270.76 171.369 271.92 171.369C273.48 171.369 274.76 171.749 275.76 172.509C276.64 173.189 277.22 173.889 277.5 174.609C277.58 174.849 277.64 174.989 277.68 175.029C277.72 175.029 277.88 174.869 278.16 174.549C279.64 172.909 281.34 171.889 283.26 171.489C283.5 171.449 284.02 171.429 284.82 171.429C286.3 171.429 287.5 171.849 288.42 172.689C289.34 173.529 289.8 174.669 289.8 176.109C289.8 177.389 289.44 178.469 288.72 179.349C288.04 180.189 287.12 180.609 285.96 180.609C285.2 180.609 284.56 180.389 284.04 179.949C283.56 179.509 283.32 178.929 283.32 178.209C283.32 176.249 284.44 174.969 286.68 174.369C285.8 173.849 285.08 173.589 284.52 173.589C283.68 173.589 282.88 173.789 282.12 174.189C280.8 174.829 279.54 176.109 278.34 178.029C277.94 178.669 277.64 179.329 277.44 180.009C277.24 180.689 276.56 183.349 275.4 187.989C274.04 193.589 273.26 196.569 273.06 196.929C272.54 198.009 271.68 198.549 270.48 198.549Z" fill="white"/>
</g>
<g filter="url(#filter2_d)">
<path d="M366.28 170.72C366.88 170.68 367.56 170.64 368.32 170.6C369.08 170.52 369.64 170.46 370 170.42C370.4 170.38 370.62 170.36 370.66 170.36C371.14 170.36 371.38 170.52 371.38 170.84C371.38 171.12 369.9 177.18 366.94 189.02C364.02 200.82 362.54 206.82 362.5 207.02C362.46 207.22 362.44 207.52 362.44 207.92C362.44 209.6 363 210.44 364.12 210.44C364.48 210.4 364.88 210.22 365.32 209.9C366.16 209.1 366.98 207.18 367.78 204.14C368.02 203.34 368.22 202.92 368.38 202.88C368.46 202.84 368.66 202.82 368.98 202.82H369.22C369.98 202.82 370.36 202.98 370.36 203.3C370.36 203.46 370.3 203.78 370.18 204.26C369.3 207.62 368.22 209.94 366.94 211.22C366.42 211.74 365.78 212.16 365.02 212.48C364.7 212.56 364.22 212.6 363.58 212.6C361.06 212.6 359.3 211.62 358.3 209.66C358.1 209.14 358 208.9 358 208.94C357.96 208.9 357.88 208.92 357.76 209C357.68 209.08 357.6 209.16 357.52 209.24C355.6 211.04 353.7 212.14 351.82 212.54C351.58 212.58 351.08 212.6 350.32 212.6C347.68 212.6 345.5 211.5 343.78 209.3C342.58 207.54 341.98 205.3 341.98 202.58C341.98 198.86 343.34 195.18 346.06 191.54C348.54 188.5 351.3 186.6 354.34 185.84C355.18 185.6 356 185.48 356.8 185.48C359 185.48 360.68 186.32 361.84 188C362.04 188.24 362.14 188.32 362.14 188.24C362.18 188.08 362.72 185.9 363.76 181.7C364.84 177.46 365.4 175.24 365.44 175.04C365.44 174.56 365.32 174.24 365.08 174.08C364.64 173.92 363.84 173.82 362.68 173.78H361.42C361.18 173.54 361.04 173.38 361 173.3C361 173.22 361.06 172.84 361.18 172.16C361.38 171.4 361.64 171.02 361.96 171.02C362 171.02 362.2 171 362.56 170.96C362.96 170.92 363.5 170.88 364.18 170.84C364.9 170.8 365.6 170.76 366.28 170.72ZM361.12 192.44C360.24 189.28 358.74 187.7 356.62 187.7C355.02 187.7 353.6 188.38 352.36 189.74C351.16 191.1 350.24 192.66 349.6 194.42C348.44 197.58 347.62 200.86 347.14 204.26C347.14 204.38 347.12 204.6 347.08 204.92C347.08 205.24 347.08 205.48 347.08 205.64C347.08 207.08 347.38 208.24 347.98 209.12C348.62 210 349.54 210.44 350.74 210.44C352.86 210.44 355.08 209 357.4 206.12L357.88 205.46C358.24 204.02 358.78 201.86 359.5 198.98C360.22 196.06 360.76 193.88 361.12 192.44ZM377.652 212.66C377.092 212.66 376.612 212.5 376.212 212.18C375.812 211.9 375.612 211.5 375.612 210.98C375.612 210.46 376.412 207.02 378.012 200.66C379.612 194.3 380.412 190.76 380.412 190.04C380.412 188.48 379.892 187.7 378.852 187.7C378.412 187.7 378.032 187.84 377.712 188.12C376.752 188.88 375.792 191.1 374.832 194.78C374.832 194.82 374.812 194.9 374.772 195.02C374.732 195.1 374.692 195.16 374.652 195.2C374.652 195.2 374.632 195.22 374.592 195.26C374.552 195.3 374.472 195.32 374.352 195.32C374.272 195.32 374.192 195.32 374.112 195.32C374.032 195.32 373.872 195.32 373.632 195.32H372.792C372.552 195.08 372.432 194.9 372.432 194.78C372.432 194.46 372.692 193.52 373.212 191.96C373.972 189.64 374.872 187.96 375.912 186.92C376.872 185.96 377.932 185.48 379.092 185.48C380.652 185.48 381.932 185.86 382.932 186.62C383.812 187.3 384.392 188 384.672 188.72C384.752 188.96 384.812 189.1 384.852 189.14C384.892 189.14 385.052 188.98 385.332 188.66C386.812 187.02 388.512 186 390.432 185.6C390.672 185.56 391.192 185.54 391.992 185.54C393.472 185.54 394.672 185.96 395.592 186.8C396.512 187.64 396.972 188.78 396.972 190.22C396.972 191.5 396.612 192.58 395.892 193.46C395.212 194.3 394.292 194.72 393.132 194.72C392.372 194.72 391.732 194.5 391.212 194.06C390.732 193.62 390.492 193.04 390.492 192.32C390.492 190.36 391.612 189.08 393.852 188.48C392.972 187.96 392.252 187.7 391.692 187.7C390.852 187.7 390.052 187.9 389.292 188.3C387.972 188.94 386.712 190.22 385.512 192.14C385.112 192.78 384.812 193.44 384.612 194.12C384.412 194.8 383.732 197.46 382.572 202.1C381.212 207.7 380.432 210.68 380.232 211.04C379.712 212.12 378.852 212.66 377.652 212.66Z" fill="#F7A1A3"/>
</g>
<path fill-rule="evenodd" clip-rule="evenodd" d="M825 240C825 301.856 774.856 352 713 352C651.144 352 601 301.856 601 240C601 178.144 651.144 128 713 128C774.856 128 825 178.144 825 240ZM809 240C809 293.019 766.019 336 713 336C659.981 336 617 293.019 617 240C617 186.981 659.981 144 713 144C766.019 144 809 186.981 809 240Z" fill="#62AF92"/>
<path d="M713 353C775.408 353 826 302.408 826 240H824C824 301.304 774.304 351 713 351V353ZM600 240C600 302.408 650.592 353 713 353V351C651.696 351 602 301.304 602 240H600ZM713 127C650.592 127 600 177.592 600 240H602C602 178.696 651.696 129 713 129V127ZM826 240C826 177.592 775.408 127 713 127V129C774.304 129 824 178.696 824 240H826ZM713 337C766.572 337 810 293.572 810 240H808C808 292.467 765.467 335 713 335V337ZM616 240C616 293.572 659.428 337 713 337V335C660.533 335 618 292.467 618 240H616ZM713 143C659.428 143 616 186.428 616 240H618C618 187.533 660.533 145 713 145V143ZM810 240C810 186.428 766.572 143 713 143V145C765.467 145 808 187.533 808 240H810Z" fill="black"/>
<path d="M719.48 196.771C718.92 196.771 718.44 196.611 718.04 196.291C717.64 196.011 717.44 195.611 717.44 195.091C717.44 194.571 718.24 191.131 719.84 184.771C721.44 178.411 722.24 174.871 722.24 174.151C722.24 172.591 721.72 171.811 720.68 171.811C720.24 171.811 719.86 171.951 719.54 172.231C718.58 172.991 717.62 175.211 716.66 178.891C716.66 178.931 716.64 179.011 716.6 179.131C716.56 179.211 716.52 179.271 716.48 179.311C716.48 179.311 716.46 179.331 716.42 179.371C716.38 179.411 716.3 179.431 716.18 179.431C716.1 179.431 716.02 179.431 715.94 179.431C715.86 179.431 715.7 179.431 715.46 179.431H714.62C714.38 179.191 714.26 179.011 714.26 178.891C714.26 178.571 714.52 177.631 715.04 176.071C715.8 173.751 716.7 172.071 717.74 171.031C718.7 170.071 719.76 169.591 720.92 169.591C722.48 169.591 723.76 169.971 724.76 170.731C725.64 171.411 726.22 172.111 726.5 172.831C726.58 173.071 726.64 173.211 726.68 173.251C726.72 173.251 726.88 173.091 727.16 172.771C728.64 171.131 730.34 170.111 732.26 169.711C732.5 169.671 733.02 169.651 733.82 169.651C735.3 169.651 736.5 170.071 737.42 170.911C738.34 171.751 738.8 172.891 738.8 174.331C738.8 175.611 738.44 176.691 737.72 177.571C737.04 178.411 736.12 178.831 734.96 178.831C734.2 178.831 733.56 178.611 733.04 178.171C732.56 177.731 732.32 177.151 732.32 176.431C732.32 174.471 733.44 173.191 735.68 172.591C734.8 172.071 734.08 171.811 733.52 171.811C732.68 171.811 731.88 172.011 731.12 172.411C729.8 173.051 728.54 174.331 727.34 176.251C726.94 176.891 726.64 177.551 726.44 178.231C726.24 178.911 725.56 181.571 724.4 186.211C723.04 191.811 722.26 194.791 722.06 195.151C721.54 196.231 720.68 196.771 719.48 196.771Z" fill="white"/>
<path d="M872.28 214.72C872.88 214.68 873.56 214.64 874.32 214.6C875.08 214.52 875.64 214.46 876 214.42C876.4 214.38 876.62 214.36 876.66 214.36C877.14 214.36 877.38 214.52 877.38 214.84C877.38 215.12 875.9 221.18 872.94 233.02C870.02 244.82 868.54 250.82 868.5 251.02C868.46 251.22 868.44 251.52 868.44 251.92C868.44 253.6 869 254.44 870.12 254.44C870.48 254.4 870.88 254.22 871.32 253.9C872.16 253.1 872.98 251.18 873.78 248.14C874.02 247.34 874.22 246.92 874.38 246.88C874.46 246.84 874.66 246.82 874.98 246.82H875.22C875.98 246.82 876.36 246.98 876.36 247.3C876.36 247.46 876.3 247.78 876.18 248.26C875.3 251.62 874.22 253.94 872.94 255.22C872.42 255.74 871.78 256.16 871.02 256.48C870.7 256.56 870.22 256.6 869.58 256.6C867.06 256.6 865.3 255.62 864.3 253.66C864.1 253.14 864 252.9 864 252.94C863.96 252.9 863.88 252.92 863.76 253C863.68 253.08 863.6 253.16 863.52 253.24C861.6 255.04 859.7 256.14 857.82 256.54C857.58 256.58 857.08 256.6 856.32 256.6C853.68 256.6 851.5 255.5 849.78 253.3C848.58 251.54 847.98 249.3 847.98 246.58C847.98 242.86 849.34 239.18 852.06 235.54C854.54 232.5 857.3 230.6 860.34 229.84C861.18 229.6 862 229.48 862.8 229.48C865 229.48 866.68 230.32 867.84 232C868.04 232.24 868.14 232.32 868.14 232.24C868.18 232.08 868.72 229.9 869.76 225.7C870.84 221.46 871.4 219.24 871.44 219.04C871.44 218.56 871.32 218.24 871.08 218.08C870.64 217.92 869.84 217.82 868.68 217.78H867.42C867.18 217.54 867.04 217.38 867 217.3C867 217.22 867.06 216.84 867.18 216.16C867.38 215.4 867.64 215.02 867.96 215.02C868 215.02 868.2 215 868.56 214.96C868.96 214.92 869.5 214.88 870.18 214.84C870.9 214.8 871.6 214.76 872.28 214.72ZM867.12 236.44C866.24 233.28 864.74 231.7 862.62 231.7C861.02 231.7 859.6 232.38 858.36 233.74C857.16 235.1 856.24 236.66 855.6 238.42C854.44 241.58 853.62 244.86 853.14 248.26C853.14 248.38 853.12 248.6 853.08 248.92C853.08 249.24 853.08 249.48 853.08 249.64C853.08 251.08 853.38 252.24 853.98 253.12C854.62 254 855.54 254.44 856.74 254.44C858.86 254.44 861.08 253 863.4 250.12L863.88 249.46C864.24 248.02 864.78 245.86 865.5 242.98C866.22 240.06 866.76 237.88 867.12 236.44ZM883.652 256.66C883.092 256.66 882.612 256.5 882.212 256.18C881.812 255.9 881.612 255.5 881.612 254.98C881.612 254.46 882.412 251.02 884.012 244.66C885.612 238.3 886.412 234.76 886.412 234.04C886.412 232.48 885.892 231.7 884.852 231.7C884.412 231.7 884.032 231.84 883.712 232.12C882.752 232.88 881.792 235.1 880.832 238.78C880.832 238.82 880.812 238.9 880.772 239.02C880.732 239.1 880.692 239.16 880.652 239.2C880.652 239.2 880.632 239.22 880.592 239.26C880.552 239.3 880.472 239.32 880.352 239.32C880.272 239.32 880.192 239.32 880.112 239.32C880.032 239.32 879.872 239.32 879.632 239.32H878.792C878.552 239.08 878.432 238.9 878.432 238.78C878.432 238.46 878.692 237.52 879.212 235.96C879.972 233.64 880.872 231.96 881.912 230.92C882.872 229.96 883.932 229.48 885.092 229.48C886.652 229.48 887.932 229.86 888.932 230.62C889.812 231.3 890.392 232 890.672 232.72C890.752 232.96 890.812 233.1 890.852 233.14C890.892 233.14 891.052 232.98 891.332 232.66C892.812 231.02 894.512 230 896.432 229.6C896.672 229.56 897.192 229.54 897.992 229.54C899.472 229.54 900.672 229.96 901.592 230.8C902.512 231.64 902.972 232.78 902.972 234.22C902.972 235.5 902.612 236.58 901.892 237.46C901.212 238.3 900.292 238.72 899.132 238.72C898.372 238.72 897.732 238.5 897.212 238.06C896.732 237.62 896.492 237.04 896.492 236.32C896.492 234.36 897.612 233.08 899.852 232.48C898.972 231.96 898.252 231.7 897.692 231.7C896.852 231.7 896.052 231.9 895.292 232.3C893.972 232.94 892.712 234.22 891.512 236.14C891.112 236.78 890.812 237.44 890.612 238.12C890.412 238.8 889.732 241.46 888.572 246.1C887.212 251.7 886.432 254.68 886.232 255.04C885.712 256.12 884.852 256.66 883.652 256.66Z" fill="#F7A1A3"/>
<path d="M713 240.248L780.556 172.693" stroke="#FFF1B6" stroke-width="3"/>
<path d="M713 352C774.856 352 825 301.856 825 240C825 178.144 774.856 128 713 128C651.144 128 601 178.144 601 240C601 301.856 651.144 352 713 352Z" stroke="#DDDDDD" stroke-width="2"/>
<path d="M713 336C766.019 336 809 293.019 809 240C809 186.981 766.019 144 713 144C659.981 144 617 186.981 617 240C617 293.019 659.981 336 713 336Z" stroke="#DDDDDD" stroke-width="2"/>
<path d="M809 244.444V235.556V240H825V244.444V235.556" stroke="#F7A1A3" stroke-width="3"/>
<defs>
<filter id="filter0_d" x="330.758" y="293.484" width="28.64" height="47.96" filterUnits="userSpaceOnUse" color-interpolation-filters="sRGB">
<feFlood flood-opacity="0" result="BackgroundImageFix"/>
<feColorMatrix in="SourceAlpha" type="matrix" values="0 0 0 0 0 0 0 0 0 0 0 0 0 0 0 0 0 0 127 0"/>
<feOffset dy="4"/>
<feGaussianBlur stdDeviation="2"/>
<feColorMatrix type="matrix" values="0 0 0 0 0 0 0 0 0 0 0 0 0 0 0 0 0 0 0.25 0"/>
<feBlend mode="normal" in2="BackgroundImageFix" result="effect1_dropShadow"/>
<feBlend mode="normal" in="SourceGraphic" in2="effect1_dropShadow" result="shape"/>
</filter>
<filter id="filter1_d" x="261.26" y="171.369" width="32.54" height="35.18" filterUnits="userSpaceOnUse" color-interpolation-filters="sRGB">
<feFlood flood-opacity="0" result="BackgroundImageFix"/>
<feColorMatrix in="SourceAlpha" type="matrix" values="0 0 0 0 0 0 0 0 0 0 0 0 0 0 0 0 0 0 127 0"/>
<feOffset dy="4"/>
<feGaussianBlur stdDeviation="2"/>
<feColorMatrix type="matrix" values="0 0 0 0 0 0 0 0 0 0 0 0 0 0 0 0 0 0 0.25 0"/>
<feBlend mode="normal" in2="BackgroundImageFix" result="effect1_dropShadow"/>
<feBlend mode="normal" in="SourceGraphic" in2="effect1_dropShadow" result="shape"/>
</filter>
<filter id="filter2_d" x="337.98" y="170.36" width="62.9919" height="50.3" filterUnits="userSpaceOnUse" color-interpolation-filters="sRGB">
<feFlood flood-opacity="0" result="BackgroundImageFix"/>
<feColorMatrix in="SourceAlpha" type="matrix" values="0 0 0 0 0 0 0 0 0 0 0 0 0 0 0 0 0 0 127 0"/>
<feOffset dy="4"/>
<feGaussianBlur stdDeviation="2"/>
<feColorMatrix type="matrix" values="0 0 0 0 0 0 0 0 0 0 0 0 0 0 0 0 0 0 0.5 0"/>
<feBlend mode="normal" in2="BackgroundImageFix" result="effect1_dropShadow"/>
<feBlend mode="normal" in="SourceGraphic" in2="effect1_dropShadow" result="shape"/>
</filter>
<radialGradient id="paint0_radial" cx="0" cy="0" r="1" gradientUnits="userSpaceOnUse" gradientTransform="translate(264 240) rotate(90) scale(160)">
<stop stop-color="#58C4DD"/>
<stop offset="1" stop-color="#699C52"/>
</radialGradient>
</defs>
</svg>
