<svg width="480" height="210" viewBox="0 0 480 210" fill="none" xmlns="http://www.w3.org/2000/svg">
<g clip-path="url(#clip0_1544_7544)">
<path d="M480 0H0V210H480V0Z" fill="white"/>
<path d="M305.887 58.043H175.377V83.7881H305.887V58.043Z" fill="white"/>
<g clip-path="url(#clip1_1544_7544)">
<path d="M183.233 64.2616C182.786 64.2616 182.55 64.2353 182.524 64.1829C182.511 64.1566 182.504 64.1041 182.504 64.0254C182.504 63.7105 182.576 63.4939 182.721 63.3758C182.747 63.3627 182.845 63.3562 183.016 63.3562C183.725 63.3955 184.558 63.4152 185.516 63.4152C187.366 63.4152 188.429 63.3955 188.705 63.3562H188.941C189.019 63.4349 189.059 63.4939 189.059 63.5333C189.059 63.5727 189.046 63.6908 189.019 63.8876C188.954 64.0844 188.895 64.2091 188.842 64.2616H188.094C187.189 64.2747 186.657 64.3338 186.5 64.4387C186.408 64.4912 186.316 64.6749 186.224 64.9899C186.133 65.3048 185.693 67.037 184.906 70.1863C184.696 71.0392 184.473 71.9447 184.236 72.9026C184 73.8605 183.823 74.5823 183.705 75.0678L183.528 75.7764C183.528 75.8289 183.587 75.8551 183.705 75.8551C183.823 75.8551 184.21 75.8682 184.866 75.8945H185.201C185.621 75.8945 185.955 75.8879 186.205 75.8748C186.454 75.8617 186.776 75.8158 187.169 75.737C187.563 75.6583 187.891 75.5402 188.153 75.3827C188.416 75.2253 188.705 75.0022 189.019 74.7135C189.334 74.4248 189.61 74.0639 189.846 73.6309C190.056 73.2372 190.253 72.7976 190.437 72.3121C190.62 71.8266 190.732 71.551 190.771 71.4854C190.837 71.446 190.948 71.4264 191.106 71.4264H191.362C191.441 71.5445 191.48 71.6166 191.48 71.6429C191.48 71.6691 191.349 72.0562 191.086 72.8042C190.824 73.5522 190.535 74.3395 190.22 75.1662C189.905 75.9929 189.735 76.4784 189.708 76.6228C189.682 76.6884 189.656 76.7278 189.63 76.7409C189.603 76.754 189.498 76.7737 189.315 76.7999C189.131 76.8262 188.849 76.8327 188.468 76.8196C188.324 76.8196 187.825 76.8196 186.972 76.8196C186.119 76.8196 185.306 76.813 184.532 76.7999H181.028C179.926 76.7999 179.375 76.7343 179.375 76.6031C179.375 76.5112 179.388 76.4194 179.414 76.3275C179.48 76.0782 179.545 75.9404 179.611 75.9142C179.663 75.9011 179.762 75.8945 179.906 75.8945H180.024C180.378 75.8945 180.772 75.8748 181.205 75.8354C181.389 75.7961 181.514 75.7173 181.579 75.5992C181.618 75.5468 182.091 73.7228 182.996 70.1273C183.902 66.5317 184.354 64.6356 184.354 64.4387C184.354 64.3469 183.98 64.2878 183.233 64.2616Z" fill="#202020"/>
<path d="M193.999 71.879C193.999 70.9736 194.065 70.114 194.196 69.3005C194.327 68.4869 194.478 67.7848 194.649 67.1943C194.819 66.6038 195.062 66.0265 195.377 65.4622C195.692 64.8979 195.941 64.4583 196.125 64.1434C196.309 63.8285 196.584 63.4873 196.952 63.1199C197.319 62.7525 197.536 62.5294 197.601 62.4506C197.667 62.3719 197.831 62.2341 198.093 62.0373H198.349H198.428C198.612 62.0373 198.704 62.0963 198.704 62.2144C198.704 62.2538 198.592 62.3916 198.369 62.6278C198.146 62.864 197.877 63.2117 197.562 63.671C197.247 64.1303 196.926 64.6945 196.598 65.3638C196.269 66.033 195.994 66.9385 195.771 68.0801C195.548 69.2217 195.436 70.488 195.436 71.879C195.436 73.27 195.548 74.5297 195.771 75.6582C195.994 76.7867 196.263 77.6987 196.578 78.3942C196.893 79.0897 197.214 79.6539 197.542 80.087C197.87 80.52 198.146 80.8678 198.369 81.1302C198.592 81.3926 198.704 81.5304 198.704 81.5436C198.704 81.6617 198.605 81.7207 198.408 81.7207H198.349H198.093L197.542 81.2483C196.309 80.1329 195.41 78.7419 194.846 77.0754C194.281 75.4089 193.999 73.6767 193.999 71.879Z" fill="#202020"/>
<path d="M200.475 73.6701C200.475 72.2397 201.039 70.9537 202.168 69.8121C203.297 68.6705 204.517 68.0996 205.829 68.0996C206.564 68.0996 207.141 68.2571 207.561 68.5721C207.981 68.887 208.198 69.3003 208.211 69.8121C208.211 70.1927 208.086 70.5141 207.837 70.7766C207.587 71.039 207.273 71.1768 206.892 71.1899C206.643 71.1899 206.446 71.1243 206.302 70.9931C206.157 70.8619 206.085 70.6651 206.085 70.4026C206.085 70.1402 206.157 69.9171 206.302 69.7334C206.446 69.5497 206.59 69.4119 206.735 69.32C206.879 69.2282 206.971 69.1888 207.01 69.2019H207.03C207.03 69.1757 206.99 69.1363 206.912 69.0838C206.833 69.0313 206.695 68.9788 206.498 68.9264C206.302 68.8739 206.078 68.8476 205.829 68.8476C205.435 68.8476 205.061 68.9395 204.707 69.1232C204.432 69.2413 204.149 69.4447 203.861 69.7334C203.283 70.3108 202.863 71.1243 202.601 72.1741C202.339 73.2239 202.201 73.985 202.188 74.4574C202.188 75.061 202.358 75.5137 202.699 75.8155C202.988 76.1305 203.369 76.2879 203.841 76.2879H203.92C205.39 76.2879 206.603 75.7303 207.561 74.6149C207.679 74.4836 207.758 74.418 207.797 74.418C207.85 74.418 207.935 74.4771 208.053 74.5952C208.171 74.7133 208.237 74.8051 208.25 74.8707C208.263 74.9364 208.204 75.0348 208.073 75.166C207.942 75.2972 207.752 75.4809 207.502 75.7171C207.253 75.9533 206.958 76.1502 206.616 76.3076C206.275 76.4651 205.855 76.6291 205.357 76.7997C204.858 76.9703 204.333 77.0425 203.782 77.0162C202.798 77.0162 202.004 76.7013 201.4 76.0714C200.797 75.4416 200.488 74.6411 200.475 73.6701Z" fill="#40A839"/>
<path d="M216.222 68.0602C216.379 68.0996 216.996 68.1193 218.072 68.1193C219.03 68.1193 219.548 68.0996 219.627 68.0602H219.745V69.2806H218.367L216.379 73.7291C215.579 75.5399 215.12 76.5241 215.002 76.6816C214.897 76.8128 214.772 76.8784 214.628 76.8784C214.601 76.8784 214.555 76.8784 214.49 76.8784C214.424 76.8784 214.359 76.8719 214.293 76.8587H213.998C213.801 76.8587 213.643 76.7603 213.525 76.5635C213.407 76.3666 213.125 75.7761 212.679 74.792C212.482 74.3589 212.325 74.0046 212.207 73.7291L210.218 69.2806H208.841V68.0602H208.998C209.195 68.0996 209.923 68.1193 211.183 68.1193C212.587 68.1193 213.407 68.0996 213.643 68.0602H213.821V69.2806H212.876L213.919 71.6033C214.588 73.1123 214.942 73.8669 214.982 73.8669C214.982 73.8537 215.316 73.0992 215.986 71.6033C216.655 70.1073 217.003 69.3397 217.029 69.3003C217.029 69.2872 216.871 69.2806 216.557 69.2806H216.084V68.0602H216.222Z" fill="#A452CE"/>
<path d="M216.803 62.49C216.803 62.385 216.835 62.2932 216.901 62.2144C216.967 62.1357 217.065 62.0963 217.196 62.0963C217.288 62.0963 217.367 62.1291 217.432 62.1948C217.498 62.2472 217.564 62.3719 217.629 62.5687C217.761 63.0543 218.03 63.4282 218.436 63.6907C218.581 63.7825 218.653 63.9006 218.653 64.045C218.653 64.1631 218.633 64.2418 218.594 64.2812C218.554 64.3206 218.463 64.3796 218.318 64.4583C217.754 64.747 217.262 65.1604 216.842 65.6984C216.816 65.7246 216.783 65.764 216.744 65.8165C216.704 65.869 216.671 65.9084 216.645 65.9346C216.619 65.9608 216.586 65.974 216.547 65.974C216.507 65.974 216.461 65.9805 216.409 65.9937C216.317 65.9937 216.232 65.9608 216.153 65.8952C216.074 65.8296 216.028 65.7312 216.015 65.6C216.015 65.3507 216.324 64.9636 216.94 64.4387H213.575L210.209 64.419C210.038 64.3009 209.953 64.1762 209.953 64.045C209.953 63.9531 210.038 63.8219 210.209 63.6513H217.275C216.96 63.1527 216.803 62.7656 216.803 62.49Z" fill="#A452CE"/>
<path d="M221.458 62.057L221.536 62.0373C221.602 62.0373 221.668 62.0373 221.733 62.0373H221.969L222.521 62.5097C223.754 63.6251 224.653 65.016 225.217 66.6826C225.782 68.3491 226.064 70.0812 226.064 71.879C226.064 72.7713 225.998 73.6308 225.867 74.4575C225.736 75.2842 225.585 75.9863 225.414 76.5636C225.244 77.141 225.001 77.7184 224.686 78.2958C224.371 78.8732 224.122 79.3128 223.938 79.6146C223.754 79.9164 223.485 80.251 223.131 80.6184C222.777 80.9859 222.567 81.2024 222.501 81.268C222.435 81.3336 222.284 81.4583 222.048 81.642C222.009 81.6813 221.983 81.7076 221.969 81.7207H221.733C221.628 81.7207 221.556 81.7207 221.517 81.7207C221.477 81.7207 221.445 81.701 221.418 81.6617C221.392 81.6223 221.372 81.5632 221.359 81.4845C221.372 81.4714 221.445 81.3861 221.576 81.2286C223.61 79.1159 224.627 75.9994 224.627 71.879C224.627 67.7586 223.61 64.6421 221.576 62.5294C221.445 62.3719 221.372 62.2866 221.359 62.2735C221.359 62.1685 221.392 62.0963 221.458 62.057Z" fill="#202020"/>
<path d="M234.504 69.9699C234.504 69.7993 234.596 69.6681 234.779 69.5762H247.318C247.515 69.6812 247.613 69.8124 247.613 69.9699C247.613 70.1142 247.521 70.2389 247.337 70.3439L241.078 70.3635H234.819C234.609 70.2979 234.504 70.1667 234.504 69.9699ZM234.504 73.7885C234.504 73.5916 234.609 73.4604 234.819 73.3948H247.337C247.521 73.526 247.613 73.6572 247.613 73.7885C247.613 73.9591 247.515 74.0903 247.318 74.1821H234.779C234.596 74.0903 234.504 73.9591 234.504 73.7885Z" fill="#202020"/>
<path d="M254.853 73.6701C254.853 72.2397 255.417 70.9537 256.545 69.8121C257.674 68.6705 258.894 68.0996 260.206 68.0996C260.941 68.0996 261.519 68.2571 261.939 68.5721C262.359 68.887 262.575 69.3003 262.588 69.8121C262.588 70.1927 262.464 70.5141 262.214 70.7766C261.965 71.039 261.65 71.1768 261.269 71.1899C261.02 71.1899 260.823 71.1243 260.679 70.9931C260.535 70.8619 260.462 70.6651 260.462 70.4026C260.462 70.1402 260.535 69.9171 260.679 69.7334C260.823 69.5497 260.968 69.4119 261.112 69.32C261.256 69.2282 261.348 69.1888 261.387 69.2019H261.407C261.407 69.1757 261.368 69.1363 261.289 69.0838C261.21 69.0313 261.073 68.9788 260.876 68.9264C260.679 68.8739 260.456 68.8476 260.206 68.8476C259.813 68.8476 259.439 68.9395 259.085 69.1232C258.809 69.2413 258.527 69.4447 258.238 69.7334C257.661 70.3108 257.241 71.1243 256.978 72.1741C256.716 73.2239 256.578 73.985 256.565 74.4574C256.565 75.061 256.736 75.5137 257.077 75.8155C257.366 76.1305 257.746 76.2879 258.218 76.2879H258.297C259.767 76.2879 260.981 75.7303 261.939 74.6149C262.057 74.4836 262.135 74.418 262.175 74.418C262.227 74.418 262.313 74.4771 262.431 74.5952C262.549 74.7133 262.614 74.8051 262.628 74.8707C262.641 74.9364 262.582 75.0348 262.45 75.166C262.319 75.2972 262.129 75.4809 261.88 75.7171C261.63 75.9533 261.335 76.1502 260.994 76.3076C260.653 76.4651 260.233 76.6291 259.734 76.7997C259.235 76.9703 258.711 77.0425 258.159 77.0162C257.175 77.0162 256.381 76.7013 255.778 76.0714C255.174 75.4416 254.866 74.6411 254.853 73.6701Z" fill="#40A839"/>
<path d="M267.194 64.2616C266.748 64.2616 266.512 64.2353 266.485 64.1829C266.472 64.1566 266.466 64.1041 266.466 64.0254C266.466 63.7105 266.538 63.4939 266.682 63.3758C266.709 63.3627 266.807 63.3562 266.978 63.3562C267.686 63.3955 268.519 63.4152 269.477 63.4152C271.328 63.4152 272.39 63.3955 272.666 63.3562H272.902C272.981 63.4349 273.02 63.4939 273.02 63.5333C273.02 63.5727 273.007 63.6908 272.981 63.8876C272.915 64.0844 272.856 64.2091 272.804 64.2616H272.056C271.15 64.2747 270.619 64.3338 270.462 64.4387C270.37 64.4912 270.278 64.6749 270.186 64.9899C270.094 65.3048 269.654 67.037 268.867 70.1863C268.657 71.0392 268.434 71.9447 268.198 72.9026C267.962 73.8605 267.785 74.5823 267.666 75.0678L267.489 75.7764C267.489 75.8289 267.548 75.8551 267.666 75.8551C267.785 75.8551 268.172 75.8682 268.828 75.8945H269.162C269.582 75.8945 269.917 75.8879 270.166 75.8748C270.416 75.8617 270.737 75.8158 271.131 75.737C271.524 75.6583 271.852 75.5402 272.115 75.3827C272.377 75.2253 272.666 75.0022 272.981 74.7135C273.296 74.4248 273.571 74.0639 273.808 73.6309C274.018 73.2372 274.214 72.7976 274.398 72.3121C274.582 71.8266 274.693 71.551 274.733 71.4854C274.798 71.446 274.91 71.4264 275.067 71.4264H275.323C275.402 71.5445 275.441 71.6166 275.441 71.6429C275.441 71.6691 275.31 72.0562 275.048 72.8042C274.785 73.5522 274.497 74.3395 274.182 75.1662C273.867 75.9929 273.696 76.4784 273.67 76.6228C273.644 76.6884 273.617 76.7278 273.591 76.7409C273.565 76.754 273.46 76.7737 273.276 76.7999C273.093 76.8262 272.81 76.8327 272.43 76.8196C272.286 76.8196 271.787 76.8196 270.934 76.8196C270.081 76.8196 269.267 76.813 268.493 76.7999H264.99C263.887 76.7999 263.336 76.7343 263.336 76.6031C263.336 76.5112 263.349 76.4194 263.375 76.3275C263.441 76.0782 263.507 75.9404 263.572 75.9142C263.625 75.9011 263.723 75.8945 263.868 75.8945H263.986C264.34 75.8945 264.734 75.8748 265.167 75.8354C265.35 75.7961 265.475 75.7173 265.541 75.5992C265.58 75.5468 266.052 73.7228 266.958 70.1273C267.863 66.5317 268.316 64.6356 268.316 64.4387C268.316 64.3469 267.942 64.2878 267.194 64.2616Z" fill="#202020"/>
<path d="M277.961 71.879C277.961 70.9736 278.027 70.114 278.158 69.3005C278.289 68.4869 278.44 67.7848 278.61 67.1943C278.781 66.6038 279.024 66.0265 279.339 65.4622C279.654 64.8979 279.903 64.4583 280.087 64.1434C280.27 63.8285 280.546 63.4873 280.913 63.1199C281.281 62.7525 281.497 62.5294 281.563 62.4506C281.629 62.3719 281.793 62.2341 282.055 62.0373H282.311H282.39C282.573 62.0373 282.665 62.0963 282.665 62.2144C282.665 62.2538 282.554 62.3916 282.331 62.6278C282.108 62.864 281.839 63.2117 281.524 63.671C281.209 64.1303 280.887 64.6945 280.559 65.3638C280.231 66.033 279.956 66.9385 279.732 68.0801C279.509 69.2217 279.398 70.488 279.398 71.879C279.398 73.27 279.509 74.5297 279.732 75.6582C279.956 76.7867 280.225 77.6987 280.539 78.3942C280.854 79.0897 281.176 79.6539 281.504 80.087C281.832 80.52 282.108 80.8678 282.331 81.1302C282.554 81.3926 282.665 81.5304 282.665 81.5436C282.665 81.6617 282.567 81.7207 282.37 81.7207H282.311H282.055L281.504 81.2483C280.27 80.1329 279.372 78.7419 278.807 77.0754C278.243 75.4089 277.961 73.6767 277.961 71.879Z" fill="#202020"/>
<path d="M291.661 68.0602C291.818 68.0996 292.435 68.1193 293.511 68.1193C294.469 68.1193 294.987 68.0996 295.066 68.0602H295.184V69.2806H293.806L291.818 73.7291C291.018 75.5399 290.558 76.5241 290.44 76.6816C290.335 76.8128 290.211 76.8784 290.066 76.8784C290.04 76.8784 289.994 76.8784 289.928 76.8784C289.863 76.8784 289.797 76.8719 289.732 76.8587H289.436C289.24 76.8587 289.082 76.7603 288.964 76.5635C288.846 76.3666 288.564 75.7761 288.118 74.792C287.921 74.3589 287.763 74.0046 287.645 73.7291L285.657 69.2806H284.279V68.0602H284.437C284.634 68.0996 285.362 68.1193 286.622 68.1193C288.026 68.1193 288.846 68.0996 289.082 68.0602H289.259V69.2806H288.314L289.358 71.6033C290.027 73.1123 290.381 73.8669 290.421 73.8669C290.421 73.8537 290.755 73.0992 291.424 71.6033C292.094 70.1073 292.441 69.3397 292.468 69.3003C292.468 69.2872 292.31 69.2806 291.995 69.2806H291.523V68.0602H291.661Z" fill="#A452CE"/>
<path d="M292.241 62.49C292.241 62.385 292.274 62.2932 292.34 62.2144C292.405 62.1357 292.504 62.0963 292.635 62.0963C292.727 62.0963 292.806 62.1291 292.871 62.1948C292.937 62.2472 293.002 62.3719 293.068 62.5687C293.199 63.0543 293.468 63.4282 293.875 63.6907C294.019 63.7825 294.091 63.9006 294.091 64.045C294.091 64.1631 294.072 64.2418 294.032 64.2812C293.993 64.3206 293.901 64.3796 293.757 64.4583C293.193 64.747 292.701 65.1604 292.281 65.6984C292.254 65.7246 292.222 65.764 292.182 65.8165C292.143 65.869 292.11 65.9084 292.084 65.9346C292.058 65.9608 292.025 65.974 291.985 65.974C291.946 65.974 291.9 65.9805 291.848 65.9937C291.756 65.9937 291.67 65.9608 291.592 65.8952C291.513 65.8296 291.467 65.7312 291.454 65.6C291.454 65.3507 291.762 64.9636 292.379 64.4387H289.013L285.647 64.419C285.477 64.3009 285.391 64.1762 285.391 64.045C285.391 63.9531 285.477 63.8219 285.647 63.6513H292.714C292.399 63.1527 292.241 62.7656 292.241 62.49Z" fill="#A452CE"/>
<path d="M296.896 62.057L296.975 62.0373C297.041 62.0373 297.106 62.0373 297.172 62.0373H297.408L297.959 62.5097C299.193 63.6251 300.092 65.016 300.656 66.6826C301.22 68.3491 301.502 70.0812 301.502 71.879C301.502 72.7713 301.437 73.6308 301.305 74.4575C301.174 75.2842 301.023 75.9863 300.853 76.5636C300.682 77.141 300.439 77.7184 300.124 78.2958C299.81 78.8732 299.56 79.3128 299.377 79.6146C299.193 79.9164 298.924 80.251 298.569 80.6184C298.215 80.9859 298.005 81.2024 297.94 81.268C297.874 81.3336 297.723 81.4583 297.487 81.642C297.448 81.6813 297.421 81.7076 297.408 81.7207H297.172C297.067 81.7207 296.995 81.7207 296.955 81.7207C296.916 81.7207 296.883 81.701 296.857 81.6617C296.831 81.6223 296.811 81.5632 296.798 81.4845C296.811 81.4714 296.883 81.3861 297.014 81.2286C299.048 79.1159 300.065 75.9994 300.065 71.879C300.065 67.7586 299.048 64.6421 297.014 62.5294C296.883 62.3719 296.811 62.2866 296.798 62.2735C296.798 62.1685 296.831 62.0963 296.896 62.057Z" fill="#202020"/>
</g>
<path d="M334.961 115.596H149.794V162.404H334.961V115.596Z" fill="white"/>
<g clip-path="url(#clip2_1544_7544)">
<path d="M168.587 119.812C168.6 119.812 169.072 119.779 170.004 119.714C170.935 119.648 171.414 119.609 171.441 119.596C171.598 119.596 171.677 119.648 171.677 119.753C171.677 119.845 171.198 121.826 170.24 125.697C169.282 129.567 168.79 131.542 168.764 131.621C168.738 131.7 168.731 131.798 168.744 131.916C168.744 132.467 168.928 132.743 169.295 132.743C169.413 132.73 169.545 132.67 169.689 132.566C169.965 132.303 170.233 131.673 170.496 130.676C170.575 130.414 170.64 130.276 170.693 130.263C170.719 130.25 170.785 130.243 170.89 130.243H170.968H171.047C171.244 130.243 171.342 130.296 171.342 130.401C171.342 130.466 171.323 130.571 171.283 130.715C171.113 131.372 170.916 131.903 170.693 132.31C170.47 132.716 170.286 132.979 170.142 133.097C169.997 133.215 169.814 133.32 169.591 133.412C169.486 133.438 169.328 133.451 169.118 133.451C168.672 133.451 168.298 133.353 167.996 133.156C167.695 132.959 167.498 132.756 167.406 132.546L167.288 132.251C167.275 132.237 167.248 132.244 167.209 132.27C167.183 132.297 167.157 132.323 167.13 132.349C166.356 133.084 165.569 133.451 164.769 133.451C164.047 133.451 163.411 133.189 162.86 132.664C162.308 132.139 162.033 131.306 162.033 130.164C162.033 129.535 162.164 128.892 162.427 128.236C162.689 127.58 163.004 127.015 163.371 126.543C163.988 125.795 164.605 125.277 165.221 124.988C165.838 124.7 166.396 124.555 166.894 124.555C167.629 124.555 168.18 124.831 168.547 125.382C168.613 125.461 168.646 125.487 168.646 125.461C168.659 125.408 168.836 124.693 169.177 123.315C169.518 121.938 169.702 121.209 169.728 121.131C169.728 120.96 169.682 120.855 169.591 120.816C169.499 120.776 169.243 120.744 168.823 120.717H168.41C168.331 120.639 168.292 120.586 168.292 120.56C168.292 120.534 168.305 120.409 168.331 120.186C168.397 119.937 168.482 119.812 168.587 119.812ZM168.311 126.838C168.01 125.802 167.517 125.283 166.835 125.283C166.376 125.283 165.936 125.487 165.517 125.894C165.097 126.3 164.769 126.832 164.532 127.488C164.152 128.524 163.883 129.6 163.726 130.715C163.726 130.755 163.726 130.827 163.726 130.932C163.726 131.037 163.719 131.116 163.706 131.168C163.706 131.759 163.824 132.165 164.06 132.388C164.296 132.611 164.578 132.73 164.906 132.743C165.615 132.743 166.343 132.27 167.091 131.326L167.248 131.109L168.311 126.838Z" fill="#202020"/>
<path d="M162.958 146.618C162.971 146.618 163.443 146.585 164.375 146.52C165.307 146.454 165.786 146.415 165.812 146.402C165.969 146.402 166.048 146.454 166.048 146.559C166.048 146.651 165.569 148.632 164.611 152.503C163.653 156.374 163.161 158.348 163.135 158.427C163.109 158.506 163.102 158.604 163.115 158.722C163.115 159.273 163.299 159.549 163.667 159.549C163.785 159.536 163.916 159.477 164.06 159.372C164.336 159.109 164.605 158.479 164.867 157.482C164.946 157.22 165.011 157.082 165.064 157.069C165.09 157.056 165.156 157.049 165.261 157.049H165.339H165.418C165.615 157.049 165.713 157.102 165.713 157.207C165.713 157.272 165.694 157.377 165.654 157.522C165.484 158.178 165.287 158.709 165.064 159.116C164.841 159.523 164.657 159.785 164.513 159.903C164.368 160.021 164.185 160.126 163.962 160.218C163.857 160.244 163.699 160.257 163.489 160.257C163.043 160.257 162.669 160.159 162.368 159.962C162.066 159.765 161.869 159.562 161.777 159.352L161.659 159.057C161.646 159.044 161.62 159.05 161.58 159.076C161.554 159.103 161.528 159.129 161.502 159.155C160.727 159.89 159.94 160.257 159.14 160.257C158.418 160.257 157.782 159.995 157.231 159.47C156.68 158.945 156.404 158.112 156.404 156.971C156.404 156.341 156.535 155.698 156.798 155.042C157.06 154.386 157.375 153.822 157.742 153.349C158.359 152.601 158.976 152.083 159.592 151.794C160.209 151.506 160.767 151.361 161.265 151.361C162 151.361 162.551 151.637 162.919 152.188C162.984 152.267 163.017 152.293 163.017 152.267C163.03 152.214 163.207 151.499 163.548 150.121C163.89 148.744 164.073 148.016 164.099 147.937C164.099 147.766 164.054 147.661 163.962 147.622C163.87 147.583 163.614 147.55 163.194 147.524H162.781C162.702 147.445 162.663 147.392 162.663 147.366C162.663 147.34 162.676 147.215 162.702 146.992C162.768 146.743 162.853 146.618 162.958 146.618ZM162.682 153.644C162.381 152.608 161.889 152.09 161.206 152.09C160.747 152.09 160.308 152.293 159.888 152.7C159.468 153.106 159.14 153.638 158.904 154.294C158.523 155.33 158.254 156.406 158.097 157.522C158.097 157.561 158.097 157.633 158.097 157.738C158.097 157.843 158.09 157.922 158.077 157.974C158.077 158.565 158.195 158.971 158.431 159.195C158.667 159.418 158.95 159.536 159.278 159.549C159.986 159.549 160.714 159.076 161.462 158.132L161.62 157.915L162.682 153.644Z" fill="#202020"/>
<path d="M167.012 154.372C167.104 153.821 167.458 153.185 168.075 152.463C168.692 151.742 169.453 151.374 170.358 151.361C170.817 151.361 171.237 151.479 171.618 151.715C171.998 151.952 172.28 152.247 172.464 152.601C173.015 151.775 173.678 151.361 174.452 151.361C174.937 151.361 175.357 151.506 175.711 151.794C176.066 152.083 176.249 152.47 176.263 152.955C176.263 153.336 176.171 153.644 175.987 153.88C175.803 154.117 175.626 154.261 175.456 154.313C175.285 154.366 175.134 154.392 175.003 154.392C174.754 154.392 174.55 154.32 174.393 154.176C174.235 154.031 174.157 153.841 174.157 153.605C174.157 153.001 174.485 152.588 175.141 152.365C174.996 152.194 174.734 152.109 174.353 152.109C174.183 152.109 174.058 152.122 173.979 152.148C173.481 152.358 173.114 152.791 172.877 153.447C172.09 156.347 171.696 158.04 171.696 158.525C171.696 158.893 171.801 159.155 172.011 159.312C172.221 159.47 172.451 159.549 172.7 159.549C173.186 159.549 173.665 159.332 174.137 158.899C174.609 158.466 174.931 157.935 175.101 157.305C175.141 157.174 175.18 157.102 175.219 157.088C175.259 157.075 175.364 157.062 175.534 157.049H175.613C175.81 157.049 175.908 157.102 175.908 157.207C175.908 157.22 175.895 157.292 175.869 157.423C175.659 158.171 175.252 158.834 174.649 159.411C174.045 159.988 173.343 160.277 172.543 160.277C171.624 160.277 170.929 159.864 170.457 159.037C169.919 159.85 169.302 160.257 168.606 160.257H168.488C167.845 160.257 167.386 160.087 167.111 159.745C166.835 159.404 166.691 159.043 166.678 158.663C166.678 158.243 166.802 157.902 167.052 157.64C167.301 157.377 167.596 157.246 167.937 157.246C168.502 157.246 168.784 157.521 168.784 158.073C168.784 158.335 168.705 158.565 168.547 158.761C168.39 158.958 168.239 159.089 168.095 159.155C167.95 159.221 167.865 159.253 167.839 159.253L167.78 159.273C167.78 159.286 167.819 159.312 167.898 159.352C167.977 159.391 168.082 159.437 168.213 159.49C168.344 159.542 168.469 159.562 168.587 159.549C169.059 159.549 169.466 159.253 169.807 158.663C169.925 158.453 170.076 158.007 170.26 157.325C170.443 156.642 170.627 155.934 170.811 155.199C170.994 154.464 171.099 154.031 171.126 153.9C171.191 153.546 171.224 153.29 171.224 153.133C171.224 152.765 171.126 152.503 170.929 152.345C170.732 152.188 170.509 152.109 170.26 152.109C169.735 152.109 169.243 152.319 168.784 152.739C168.324 153.159 168.003 153.697 167.819 154.353C167.793 154.471 167.76 154.536 167.721 154.55C167.681 154.563 167.577 154.576 167.406 154.589H167.13C167.052 154.51 167.012 154.438 167.012 154.372Z" fill="#202020"/>
<path d="M179.215 142.229H153.786V141.048H179.215V142.229Z" fill="#202020"/>
<path d="M184.568 141.629C184.568 136.446 186.116 132.516 189.213 129.84H189.764C189.843 129.918 189.882 129.977 189.882 130.017C189.882 130.069 189.757 130.233 189.508 130.509C189.259 130.784 188.957 131.198 188.603 131.749C188.248 132.3 187.888 132.982 187.52 133.796C187.153 134.609 186.844 135.705 186.595 137.082C186.346 138.46 186.221 139.982 186.221 141.648C186.221 143.302 186.346 144.817 186.595 146.195C186.844 147.572 187.146 148.662 187.501 149.462C187.855 150.262 188.216 150.945 188.583 151.509C188.95 152.073 189.259 152.493 189.508 152.768C189.757 153.044 189.882 153.208 189.882 153.26C189.882 153.3 189.843 153.359 189.764 153.438H189.213C188.832 153.123 188.465 152.775 188.111 152.394C187.756 152.014 187.356 151.469 186.91 150.761C186.464 150.052 186.077 149.291 185.749 148.478C185.421 147.664 185.145 146.661 184.922 145.467C184.699 144.273 184.581 142.993 184.568 141.629Z" fill="#202020"/>
<path d="M199.683 146.559C199.447 146.52 198.601 146.5 197.144 146.5C195.622 146.5 194.743 146.52 194.507 146.559H194.33V145.654H194.94C195.202 145.654 195.38 145.654 195.471 145.654C195.563 145.654 195.675 145.641 195.806 145.614C195.937 145.588 196.029 145.555 196.082 145.516C196.134 145.477 196.18 145.424 196.219 145.359C196.232 145.332 196.239 144.978 196.239 144.296V143.312H191.142V142.406L194.113 137.86C196.121 134.816 197.138 133.287 197.164 133.274C197.19 133.248 197.328 133.235 197.577 133.235H197.932L198.05 133.353V142.406H199.86V143.312H198.05V144.315C198.05 144.853 198.05 145.168 198.05 145.26C198.05 145.352 198.089 145.431 198.168 145.496C198.273 145.588 198.647 145.641 199.29 145.654H199.86V146.559H199.683ZM196.357 142.406V135.833L192.047 142.387L194.192 142.406H196.357Z" fill="#40A839"/>
<path d="M201.455 140.871C201.546 140.32 201.901 139.684 202.517 138.962C203.134 138.24 203.895 137.873 204.8 137.86C205.26 137.86 205.679 137.978 206.06 138.214C206.44 138.45 206.723 138.745 206.906 139.1C207.457 138.273 208.12 137.86 208.894 137.86C209.38 137.86 209.799 138.004 210.154 138.293C210.508 138.581 210.692 138.968 210.705 139.454C210.705 139.834 210.613 140.143 210.429 140.379C210.245 140.615 210.068 140.759 209.898 140.812C209.727 140.864 209.576 140.891 209.445 140.891C209.196 140.891 208.992 140.819 208.835 140.674C208.678 140.53 208.599 140.34 208.599 140.103C208.599 139.5 208.927 139.087 209.583 138.864C209.439 138.693 209.176 138.608 208.796 138.608C208.625 138.608 208.5 138.621 208.422 138.647C207.923 138.857 207.556 139.29 207.32 139.946C206.532 142.846 206.139 144.538 206.139 145.024C206.139 145.391 206.244 145.654 206.454 145.811C206.663 145.968 206.893 146.047 207.142 146.047C207.628 146.047 208.107 145.831 208.579 145.398C209.051 144.965 209.373 144.433 209.544 143.804C209.583 143.672 209.622 143.6 209.662 143.587C209.701 143.574 209.806 143.561 209.977 143.548H210.055C210.252 143.548 210.35 143.6 210.35 143.705C210.35 143.718 210.337 143.79 210.311 143.922C210.101 144.669 209.694 145.332 209.091 145.909C208.487 146.487 207.785 146.775 206.985 146.775C206.066 146.775 205.371 146.362 204.899 145.535C204.361 146.349 203.744 146.756 203.049 146.756H202.931C202.288 146.756 201.828 146.585 201.553 146.244C201.277 145.903 201.133 145.542 201.12 145.162C201.12 144.742 201.245 144.401 201.494 144.138C201.743 143.876 202.038 143.744 202.38 143.744C202.944 143.744 203.226 144.02 203.226 144.571C203.226 144.834 203.147 145.063 202.99 145.26C202.832 145.457 202.681 145.588 202.537 145.654C202.393 145.719 202.307 145.752 202.281 145.752L202.222 145.772C202.222 145.785 202.261 145.811 202.34 145.85C202.419 145.89 202.524 145.936 202.655 145.988C202.786 146.041 202.911 146.06 203.029 146.047C203.501 146.047 203.908 145.752 204.249 145.162C204.367 144.952 204.518 144.505 204.702 143.823C204.886 143.141 205.069 142.432 205.253 141.698C205.437 140.963 205.542 140.53 205.568 140.399C205.634 140.044 205.666 139.789 205.666 139.631C205.666 139.264 205.568 139.001 205.371 138.844C205.174 138.686 204.951 138.608 204.702 138.608C204.177 138.608 203.685 138.818 203.226 139.237C202.767 139.657 202.445 140.195 202.261 140.851C202.235 140.969 202.202 141.035 202.163 141.048C202.124 141.061 202.019 141.074 201.848 141.088H201.573C201.494 141.009 201.455 140.937 201.455 140.871Z" fill="#A452CE"/>
<path d="M214.105 131.988C213.855 131.988 213.66 131.909 213.521 131.752C213.382 131.594 213.308 131.39 213.298 131.139C213.298 130.629 213.521 130.175 213.966 129.776C214.412 129.377 214.95 129.177 215.58 129.177C215.905 129.177 216.109 129.182 216.193 129.191C216.879 129.303 217.403 129.549 217.765 129.929C218.127 130.309 218.312 130.722 218.322 131.167C218.322 131.65 218.164 132.118 217.848 132.573C217.533 133.027 217.097 133.356 216.54 133.561L216.499 133.588C216.499 133.598 216.54 133.612 216.624 133.63C216.707 133.649 216.842 133.69 217.027 133.755C217.213 133.82 217.389 133.918 217.556 134.048C218.317 134.539 218.697 135.189 218.697 135.996C218.697 136.728 218.41 137.369 217.835 137.916C217.259 138.463 216.531 138.737 215.65 138.737C214.908 138.737 214.268 138.537 213.73 138.138C213.192 137.74 212.923 137.234 212.923 136.622C212.923 136.362 213.006 136.153 213.173 135.996C213.34 135.838 213.549 135.754 213.799 135.745C214.059 135.745 214.272 135.829 214.439 135.996C214.606 136.163 214.69 136.371 214.69 136.622C214.69 136.724 214.676 136.817 214.648 136.9C214.62 136.984 214.588 137.058 214.551 137.123C214.514 137.188 214.463 137.243 214.398 137.29C214.333 137.336 214.277 137.373 214.231 137.401C214.184 137.429 214.138 137.447 214.092 137.457C214.045 137.466 214.008 137.48 213.98 137.498L213.925 137.512C214.398 137.93 214.973 138.138 215.65 138.138C216.16 138.138 216.545 137.893 216.805 137.401C216.963 137.095 217.041 136.626 217.041 135.996V135.717C217.041 134.836 216.745 134.247 216.151 133.95C216.012 133.895 215.729 133.862 215.302 133.853L214.718 133.839L214.676 133.811C214.657 133.783 214.648 133.709 214.648 133.588C214.648 133.421 214.685 133.338 214.759 133.338C215.019 133.338 215.288 133.315 215.566 133.268C215.882 133.222 216.169 133.027 216.429 132.684C216.689 132.341 216.819 131.821 216.819 131.125V131.014C216.819 130.485 216.656 130.119 216.332 129.915C216.128 129.785 215.91 129.72 215.678 129.72C215.381 129.72 215.107 129.771 214.857 129.873C214.606 129.975 214.43 130.082 214.328 130.193C214.226 130.305 214.175 130.36 214.175 130.36H214.217C214.245 130.369 214.282 130.379 214.328 130.388C214.374 130.397 214.421 130.42 214.467 130.458C214.514 130.495 214.569 130.527 214.634 130.555C214.699 130.583 214.745 130.634 214.773 130.708C214.801 130.782 214.838 130.852 214.885 130.917C214.931 130.982 214.945 131.074 214.926 131.195C214.926 131.399 214.861 131.58 214.732 131.738C214.602 131.895 214.393 131.979 214.105 131.988Z" fill="#A452CE"/>
<path d="M226.284 141.629C226.284 146.825 224.736 150.761 221.64 153.438H221.384C221.213 153.438 221.102 153.424 221.049 153.398C220.997 153.372 220.97 153.313 220.97 153.221C220.997 153.155 221.161 152.952 221.462 152.611C221.764 152.27 222.079 151.824 222.407 151.273C222.735 150.721 223.076 150.046 223.431 149.245C223.785 148.445 224.074 147.376 224.297 146.037C224.52 144.699 224.631 143.236 224.631 141.648C224.631 140.061 224.52 138.598 224.297 137.259C224.074 135.921 223.785 134.852 223.431 134.051C223.076 133.251 222.735 132.569 222.407 132.005C222.079 131.44 221.764 131.001 221.462 130.686C221.161 130.371 220.997 130.161 220.97 130.056C220.97 129.912 221.069 129.84 221.266 129.84H221.384H221.64C223.319 131.244 224.546 133.107 225.32 135.429C225.963 137.279 226.284 139.346 226.284 141.629Z" fill="#202020"/>
<path d="M235.863 139.73C235.863 139.559 235.955 139.428 236.139 139.336H248.676C248.873 139.441 248.971 139.572 248.971 139.73C248.971 139.874 248.879 139.999 248.696 140.104L242.437 140.123H236.178C235.968 140.058 235.863 139.926 235.863 139.73ZM235.863 143.548C235.863 143.351 235.968 143.22 236.178 143.154H248.696C248.879 143.285 248.971 143.417 248.971 143.548C248.971 143.718 248.873 143.85 248.676 143.941H236.139C235.955 143.85 235.863 143.718 235.863 143.548Z" fill="#202020"/>
<path d="M264.633 146.559C264.397 146.52 263.551 146.5 262.095 146.5C260.573 146.5 259.693 146.52 259.457 146.559H259.28V145.654H259.89C260.153 145.654 260.33 145.654 260.422 145.654C260.513 145.654 260.625 145.641 260.756 145.614C260.887 145.588 260.979 145.555 261.032 145.516C261.084 145.477 261.13 145.424 261.17 145.359C261.183 145.332 261.189 144.978 261.189 144.296V143.312H256.092V142.406L259.064 137.86C261.071 134.816 262.088 133.287 262.114 133.274C262.14 133.248 262.278 133.235 262.528 133.235H262.882L263 133.353V142.406H264.811V143.312H263V144.315C263 144.853 263 145.168 263 145.26C263 145.352 263.039 145.431 263.118 145.496C263.223 145.588 263.597 145.641 264.24 145.654H264.811V146.559H264.633ZM261.307 142.406V135.833L256.997 142.387L259.142 142.406H261.307Z" fill="#40A839"/>
<path d="M282.543 119.812C282.556 119.812 283.029 119.779 283.96 119.714C284.892 119.648 285.371 119.609 285.397 119.596C285.555 119.596 285.633 119.648 285.633 119.753C285.633 119.845 285.154 121.826 284.197 125.697C283.239 129.567 282.747 131.542 282.72 131.621C282.694 131.7 282.688 131.798 282.701 131.916C282.701 132.467 282.885 132.743 283.252 132.743C283.37 132.73 283.501 132.67 283.646 132.566C283.921 132.303 284.19 131.673 284.452 130.676C284.531 130.414 284.597 130.276 284.649 130.263C284.676 130.25 284.741 130.243 284.846 130.243H284.925H285.004C285.2 130.243 285.299 130.296 285.299 130.401C285.299 130.466 285.279 130.571 285.24 130.715C285.069 131.372 284.872 131.903 284.649 132.31C284.426 132.716 284.243 132.979 284.098 133.097C283.954 133.215 283.77 133.32 283.547 133.412C283.442 133.438 283.285 133.451 283.075 133.451C282.629 133.451 282.255 133.353 281.953 133.156C281.651 132.959 281.454 132.756 281.362 132.546L281.244 132.251C281.231 132.237 281.205 132.244 281.166 132.27C281.139 132.297 281.113 132.323 281.087 132.349C280.313 133.084 279.526 133.451 278.725 133.451C278.004 133.451 277.367 133.189 276.816 132.664C276.265 132.139 275.99 131.306 275.99 130.164C275.99 129.535 276.121 128.892 276.383 128.236C276.646 127.58 276.96 127.015 277.328 126.543C277.945 125.795 278.561 125.277 279.178 124.988C279.795 124.7 280.352 124.555 280.851 124.555C281.586 124.555 282.137 124.831 282.504 125.382C282.57 125.461 282.602 125.487 282.602 125.461C282.616 125.408 282.793 124.693 283.134 123.315C283.475 121.938 283.659 121.209 283.685 121.131C283.685 120.96 283.639 120.855 283.547 120.816C283.455 120.776 283.199 120.744 282.78 120.717H282.366C282.288 120.639 282.248 120.586 282.248 120.56C282.248 120.534 282.261 120.409 282.288 120.186C282.353 119.937 282.438 119.812 282.543 119.812ZM282.268 126.838C281.966 125.802 281.474 125.283 280.792 125.283C280.333 125.283 279.893 125.487 279.473 125.894C279.053 126.3 278.725 126.832 278.489 127.488C278.109 128.524 277.84 129.6 277.682 130.715C277.682 130.755 277.682 130.827 277.682 130.932C277.682 131.037 277.676 131.116 277.662 131.168C277.662 131.759 277.78 132.165 278.017 132.388C278.253 132.611 278.535 132.73 278.863 132.743C279.571 132.743 280.3 132.27 281.048 131.326L281.205 131.109L282.268 126.838Z" fill="#202020"/>
<path d="M276.915 146.618C276.928 146.618 277.4 146.585 278.332 146.52C279.263 146.454 279.742 146.415 279.768 146.402C279.926 146.402 280.004 146.454 280.004 146.559C280.004 146.651 279.526 148.632 278.568 152.503C277.61 156.374 277.118 158.348 277.092 158.427C277.065 158.506 277.059 158.604 277.072 158.722C277.072 159.273 277.256 159.549 277.623 159.549C277.741 159.536 277.872 159.477 278.017 159.372C278.292 159.109 278.561 158.479 278.824 157.482C278.902 157.22 278.968 157.082 279.02 157.069C279.047 157.056 279.112 157.049 279.217 157.049H279.296H279.375C279.571 157.049 279.67 157.102 279.67 157.207C279.67 157.272 279.65 157.377 279.611 157.522C279.44 158.178 279.243 158.709 279.02 159.116C278.797 159.523 278.614 159.785 278.469 159.903C278.325 160.021 278.141 160.126 277.918 160.218C277.813 160.244 277.656 160.257 277.446 160.257C277 160.257 276.626 160.159 276.324 159.962C276.022 159.765 275.825 159.562 275.734 159.352L275.616 159.057C275.602 159.044 275.576 159.05 275.537 159.076C275.511 159.103 275.484 159.129 275.458 159.155C274.684 159.89 273.897 160.257 273.096 160.257C272.375 160.257 271.738 159.995 271.187 159.47C270.636 158.945 270.361 158.112 270.361 156.971C270.361 156.341 270.492 155.698 270.754 155.042C271.017 154.386 271.332 153.822 271.699 153.349C272.316 152.601 272.932 152.083 273.549 151.794C274.166 151.506 274.723 151.361 275.222 151.361C275.957 151.361 276.508 151.637 276.875 152.188C276.941 152.267 276.974 152.293 276.974 152.267C276.987 152.214 277.164 151.499 277.505 150.121C277.846 148.744 278.03 148.016 278.056 147.937C278.056 147.766 278.01 147.661 277.918 147.622C277.826 147.583 277.571 147.55 277.151 147.524H276.737C276.659 147.445 276.619 147.392 276.619 147.366C276.619 147.34 276.632 147.215 276.659 146.992C276.724 146.743 276.81 146.618 276.915 146.618ZM276.639 153.644C276.337 152.608 275.845 152.09 275.163 152.09C274.704 152.09 274.264 152.293 273.844 152.7C273.424 153.106 273.096 153.638 272.86 154.294C272.48 155.33 272.211 156.406 272.053 157.522C272.053 157.561 272.053 157.633 272.053 157.738C272.053 157.843 272.047 157.922 272.034 157.974C272.034 158.565 272.152 158.971 272.388 159.195C272.624 159.418 272.906 159.536 273.234 159.549C273.943 159.549 274.671 159.076 275.419 158.132L275.576 157.915L276.639 153.644Z" fill="#202020"/>
<path d="M280.969 154.372C281.061 153.821 281.415 153.185 282.032 152.463C282.648 151.742 283.409 151.374 284.315 151.361C284.774 151.361 285.194 151.479 285.574 151.715C285.955 151.952 286.237 152.247 286.421 152.601C286.972 151.775 287.634 151.361 288.408 151.361C288.894 151.361 289.314 151.506 289.668 151.794C290.022 152.083 290.206 152.47 290.219 152.955C290.219 153.336 290.127 153.644 289.944 153.88C289.76 154.117 289.583 154.261 289.412 154.313C289.242 154.366 289.091 154.392 288.959 154.392C288.71 154.392 288.507 154.32 288.349 154.176C288.192 154.031 288.113 153.841 288.113 153.605C288.113 153.001 288.441 152.588 289.097 152.365C288.953 152.194 288.69 152.109 288.31 152.109C288.139 152.109 288.015 152.122 287.936 152.148C287.437 152.358 287.07 152.791 286.834 153.447C286.047 156.347 285.653 158.04 285.653 158.525C285.653 158.893 285.758 159.155 285.968 159.312C286.178 159.47 286.407 159.549 286.657 159.549C287.142 159.549 287.621 159.332 288.093 158.899C288.566 158.466 288.887 157.935 289.058 157.305C289.097 157.174 289.137 157.102 289.176 157.088C289.215 157.075 289.32 157.062 289.491 157.049H289.57C289.766 157.049 289.865 157.102 289.865 157.207C289.865 157.22 289.852 157.292 289.825 157.423C289.615 158.171 289.209 158.834 288.605 159.411C288.002 159.988 287.3 160.277 286.499 160.277C285.581 160.277 284.885 159.864 284.413 159.037C283.875 159.85 283.258 160.257 282.563 160.257H282.445C281.802 160.257 281.343 160.087 281.067 159.745C280.792 159.404 280.647 159.043 280.634 158.663C280.634 158.243 280.759 157.902 281.008 157.64C281.258 157.377 281.553 157.246 281.894 157.246C282.458 157.246 282.74 157.521 282.74 158.073C282.74 158.335 282.661 158.565 282.504 158.761C282.347 158.958 282.196 159.089 282.051 159.155C281.907 159.221 281.822 159.253 281.795 159.253L281.736 159.273C281.736 159.286 281.776 159.312 281.855 159.352C281.933 159.391 282.038 159.437 282.169 159.49C282.301 159.542 282.425 159.562 282.543 159.549C283.016 159.549 283.422 159.253 283.764 158.663C283.882 158.453 284.033 158.007 284.216 157.325C284.4 156.642 284.584 155.934 284.767 155.199C284.951 154.464 285.056 154.031 285.082 153.9C285.148 153.546 285.181 153.29 285.181 153.133C285.181 152.765 285.082 152.503 284.885 152.345C284.689 152.188 284.466 152.109 284.216 152.109C283.691 152.109 283.199 152.319 282.74 152.739C282.281 153.159 281.959 153.697 281.776 154.353C281.75 154.471 281.717 154.536 281.677 154.55C281.638 154.563 281.533 154.576 281.362 154.589H281.087C281.008 154.51 280.969 154.438 280.969 154.372Z" fill="#202020"/>
<path d="M293.171 142.229H267.743V141.048H293.171V142.229Z" fill="#202020"/>
<path d="M298.525 141.629C298.525 136.446 300.073 132.516 303.169 129.84H303.72C303.799 129.918 303.839 129.977 303.839 130.017C303.839 130.069 303.714 130.233 303.465 130.509C303.215 130.784 302.914 131.198 302.559 131.749C302.205 132.3 301.844 132.982 301.477 133.796C301.109 134.609 300.801 135.705 300.552 137.082C300.302 138.46 300.178 139.982 300.178 141.648C300.178 143.302 300.302 144.817 300.552 146.195C300.801 147.572 301.103 148.662 301.457 149.462C301.811 150.262 302.172 150.945 302.54 151.509C302.907 152.073 303.215 152.493 303.465 152.768C303.714 153.044 303.839 153.208 303.839 153.26C303.839 153.3 303.799 153.359 303.72 153.438H303.169C302.789 153.123 302.421 152.775 302.067 152.394C301.713 152.014 301.313 151.469 300.867 150.761C300.421 150.052 300.033 149.291 299.705 148.478C299.377 147.664 299.102 146.661 298.879 145.467C298.656 144.273 298.538 142.993 298.525 141.629Z" fill="#202020"/>
<path d="M305.571 140.871C305.662 140.32 306.017 139.684 306.633 138.962C307.25 138.24 308.011 137.873 308.916 137.86C309.376 137.86 309.795 137.978 310.176 138.214C310.556 138.45 310.839 138.745 311.022 139.1C311.573 138.273 312.236 137.86 313.01 137.86C313.496 137.86 313.915 138.004 314.27 138.293C314.624 138.581 314.808 138.968 314.821 139.454C314.821 139.834 314.729 140.143 314.545 140.379C314.362 140.615 314.184 140.759 314.014 140.812C313.843 140.864 313.692 140.891 313.561 140.891C313.312 140.891 313.108 140.819 312.951 140.674C312.794 140.53 312.715 140.34 312.715 140.103C312.715 139.5 313.043 139.087 313.699 138.864C313.555 138.693 313.292 138.608 312.912 138.608C312.741 138.608 312.616 138.621 312.538 138.647C312.039 138.857 311.672 139.29 311.436 139.946C310.648 142.846 310.255 144.538 310.255 145.024C310.255 145.391 310.36 145.654 310.57 145.811C310.78 145.968 311.009 146.047 311.258 146.047C311.744 146.047 312.223 145.831 312.695 145.398C313.168 144.965 313.489 144.433 313.66 143.804C313.699 143.672 313.738 143.6 313.778 143.587C313.817 143.574 313.922 143.561 314.093 143.548H314.171C314.368 143.548 314.466 143.6 314.466 143.705C314.466 143.718 314.453 143.79 314.427 143.922C314.217 144.669 313.81 145.332 313.207 145.909C312.603 146.487 311.901 146.775 311.101 146.775C310.183 146.775 309.487 146.362 309.015 145.535C308.477 146.349 307.86 146.756 307.165 146.756H307.047C306.404 146.756 305.944 146.585 305.669 146.244C305.393 145.903 305.249 145.542 305.236 145.162C305.236 144.742 305.361 144.401 305.61 144.138C305.859 143.876 306.154 143.744 306.496 143.744C307.06 143.744 307.342 144.02 307.342 144.571C307.342 144.834 307.263 145.063 307.106 145.26C306.948 145.457 306.797 145.588 306.653 145.654C306.509 145.719 306.423 145.752 306.397 145.752L306.338 145.772C306.338 145.785 306.377 145.811 306.456 145.85C306.535 145.89 306.64 145.936 306.771 145.988C306.902 146.041 307.027 146.06 307.145 146.047C307.617 146.047 308.024 145.752 308.365 145.162C308.483 144.952 308.634 144.505 308.818 143.823C309.002 143.141 309.185 142.432 309.369 141.698C309.553 140.963 309.658 140.53 309.684 140.399C309.75 140.044 309.782 139.789 309.782 139.631C309.782 139.264 309.684 139.001 309.487 138.844C309.29 138.686 309.067 138.608 308.818 138.608C308.293 138.608 307.801 138.818 307.342 139.237C306.883 139.657 306.561 140.195 306.377 140.851C306.351 140.969 306.318 141.035 306.279 141.048C306.24 141.061 306.135 141.074 305.964 141.088H305.689C305.61 141.009 305.571 140.937 305.571 140.871Z" fill="#A452CE"/>
<path d="M318.221 131.988C317.971 131.988 317.776 131.909 317.637 131.752C317.498 131.594 317.424 131.39 317.414 131.139C317.414 130.629 317.637 130.175 318.082 129.776C318.528 129.377 319.066 129.177 319.696 129.177C320.021 129.177 320.225 129.182 320.309 129.191C320.995 129.303 321.519 129.549 321.881 129.929C322.243 130.309 322.428 130.722 322.438 131.167C322.438 131.65 322.28 132.118 321.964 132.573C321.649 133.027 321.213 133.356 320.657 133.561L320.615 133.588C320.615 133.598 320.657 133.612 320.74 133.63C320.823 133.649 320.958 133.69 321.144 133.755C321.329 133.82 321.505 133.918 321.672 134.048C322.433 134.539 322.813 135.189 322.813 135.996C322.813 136.728 322.526 137.369 321.951 137.916C321.375 138.463 320.647 138.737 319.766 138.737C319.024 138.737 318.384 138.537 317.846 138.138C317.308 137.74 317.039 137.234 317.039 136.622C317.039 136.362 317.122 136.153 317.289 135.996C317.456 135.838 317.665 135.754 317.915 135.745C318.175 135.745 318.388 135.829 318.555 135.996C318.722 136.163 318.806 136.371 318.806 136.622C318.806 136.724 318.792 136.817 318.764 136.9C318.736 136.984 318.704 137.058 318.667 137.123C318.63 137.188 318.579 137.243 318.514 137.29C318.449 137.336 318.393 137.373 318.347 137.401C318.3 137.429 318.254 137.447 318.208 137.457C318.161 137.466 318.124 137.48 318.096 137.498L318.041 137.512C318.514 137.93 319.089 138.138 319.766 138.138C320.276 138.138 320.661 137.893 320.921 137.401C321.079 137.095 321.157 136.626 321.157 135.996V135.717C321.157 134.836 320.861 134.247 320.267 133.95C320.128 133.895 319.845 133.862 319.418 133.853L318.834 133.839L318.792 133.811C318.773 133.783 318.764 133.709 318.764 133.588C318.764 133.421 318.801 133.338 318.875 133.338C319.135 133.338 319.404 133.315 319.682 133.268C319.998 133.222 320.285 133.027 320.545 132.684C320.805 132.341 320.935 131.821 320.935 131.125V131.014C320.935 130.485 320.772 130.119 320.448 129.915C320.244 129.785 320.026 129.72 319.794 129.72C319.497 129.72 319.223 129.771 318.973 129.873C318.722 129.975 318.546 130.082 318.444 130.193C318.342 130.305 318.291 130.36 318.291 130.36H318.333C318.361 130.369 318.398 130.379 318.444 130.388C318.49 130.397 318.537 130.42 318.583 130.458C318.63 130.495 318.685 130.527 318.75 130.555C318.815 130.583 318.862 130.634 318.889 130.708C318.917 130.782 318.954 130.852 319.001 130.917C319.047 130.982 319.061 131.074 319.042 131.195C319.042 131.399 318.977 131.58 318.848 131.738C318.718 131.895 318.509 131.979 318.221 131.988Z" fill="#A452CE"/>
<path d="M330.4 141.629C330.4 146.825 328.852 150.761 325.756 153.438H325.5C325.329 153.438 325.218 153.424 325.165 153.398C325.113 153.372 325.086 153.313 325.086 153.221C325.113 153.155 325.277 152.952 325.578 152.611C325.88 152.27 326.195 151.824 326.523 151.273C326.851 150.721 327.192 150.046 327.547 149.245C327.901 148.445 328.19 147.376 328.413 146.037C328.636 144.699 328.747 143.236 328.747 141.648C328.747 140.061 328.636 138.598 328.413 137.259C328.19 135.921 327.901 134.852 327.547 134.051C327.192 133.251 326.851 132.569 326.523 132.005C326.195 131.44 325.88 131.001 325.578 130.686C325.277 130.371 325.113 130.161 325.086 130.056C325.086 129.912 325.185 129.84 325.382 129.84H325.5H325.756C327.435 131.244 328.662 133.107 329.436 135.429C330.079 137.279 330.4 139.346 330.4 141.629Z" fill="#202020"/>
</g>
</g>
<defs>
<clipPath id="clip0_1544_7544">
<rect width="480" height="210" fill="white"/>
</clipPath>
<clipPath id="clip1_1544_7544">
<rect width="124.627" height="21.5934" fill="white" transform="translate(178.745 60.1274)"/>
</clipPath>
<clipPath id="clip2_1544_7544">
<rect width="182.004" height="40.6812" fill="white" transform="translate(151.416 119.596)"/>
</clipPath>
</defs>
</svg>
