<?xml version="1.0" encoding="utf-8"?>
<!-- Generator: Adobe Illustrator 26.0.2, SVG Export Plug-In . SVG Version: 6.00 Build 0)  -->
<svg version="1.1" id="Layer_1" xmlns="http://www.w3.org/2000/svg" xmlns:xlink="http://www.w3.org/1999/xlink" x="0px" y="0px"
	 viewBox="0 0 514.9 280.9" style="enable-background:new 0 0 514.9 280.9;" xml:space="preserve">
<style type="text/css">
	.st0{filter:url(#Adobe_OpacityMaskFilter);}
	.st1{fill-rule:evenodd;clip-rule:evenodd;fill:#FFFFFF;}
	.st2{mask:url(#black-b_00000126298565456172857640000002943760449789100465_);fill-rule:evenodd;clip-rule:evenodd;fill:#FFFFFF;}
	.st3{filter:url(#Adobe_OpacityMaskFilter_00000083056862942799971060000008331202442351354800_);}
	.st4{mask:url(#black-d_00000014616932356428741030000006398686651332523652_);fill-rule:evenodd;clip-rule:evenodd;fill:#FFFFFF;}
</style>
<g>
	<defs>
		<filter id="Adobe_OpacityMaskFilter" filterUnits="userSpaceOnUse" x="78" y="87.6" width="99.1" height="87.7">
			<feColorMatrix  type="matrix" values="1 0 0 0 0  0 1 0 0 0  0 0 1 0 0  0 0 0 1 0"/>
		</filter>
	</defs>
	
		<mask maskUnits="userSpaceOnUse" x="78" y="87.6" width="99.1" height="87.7" id="black-b_00000126298565456172857640000002943760449789100465_">
		<g class="st0">
			<polygon id="black-a_00000018936272236227383480000017864381944139395740_" class="st1" points="78,87.6 177.1,87.6 177.1,175.3 
				78,175.3 			"/>
		</g>
	</mask>
	<path class="st2" d="M167.5,94.1c-4.1,7.2-6.5,11.3-22,38.1c-5.7,9.9-10.5,18.1-10.7,18.3c-0.6,0.6-1.4,0.6-2-0.1
		c-0.5-0.7-22.3-38.6-22.4-39c-0.2-0.6,0.1-1.2,0.7-1.5c0.2-0.1,4.8-0.1,17.1-0.2l16.8-0.1l3.2-5.6c1.8-3.1,3.3-5.7,3.3-5.7
		c0.1-0.2-70.6-0.2-71.5,0c-0.8,0.2-1.6,0.6-1.9,1.2c-0.3,0.6-0.3,1.6,0,2.4c0.2,0.5,37.8,65.6,39.1,67.8c1,1.6,1.8,2.6,2.6,3.5
		c0.9,0.9,1.6,1.3,2.6,1.7c1.2,0.4,2.1,0.5,5.2,0.4c2.6,0,3-0.1,3.6-0.3c2.3-0.7,3.8-2.2,6-5.8c0.4-0.6,23.6-40.8,36.1-62.5
		c2.7-4.7,3-5.2,3.3-6.2c0.2-0.7,0.2-1,0.2-2.3c0-1.3,0-1.7-0.2-2.4c-0.5-1.7-1.7-3.8-3.3-5.8c-0.8-1-2.1-2.4-2.2-2.4
		C171.3,87.6,169.5,90.5,167.5,94.1"/>
	<path class="st1" d="M229.4,106.7c-0.6,0.1-0.9,0.3-1.4,0.8c-0.7,0.8-0.9,2-0.4,3.1c0.4,0.9,1.3,1.4,2.4,1.4c1.1,0,2-0.5,2.5-1.5
		c0.2-0.5,0.2-1.5,0.1-2.1c-0.2-0.5-0.9-1.3-1.3-1.5C230.7,106.7,229.9,106.6,229.4,106.7 M337.5,106.7c-1.3,0.4-2,1.4-1.9,2.8
		c0.1,0.8,0.3,1.3,0.9,1.8c1.1,1,3.1,0.8,3.9-0.4c0.4-0.6,0.5-1.1,0.5-1.9c-0.1-1-0.6-1.8-1.5-2.2
		C338.9,106.6,338,106.6,337.5,106.7 M290.3,124.1c1.3,0.3,3,1.2,4,2c2.6,1.9,4.3,4.9,4.9,8.5c0.2,1.3,0.2,4.2,0,5.6
		c-1,5.4-4.6,9.3-9.6,10.4c-1.5,0.3-3.7,0.3-5.2,0c-1.4-0.3-3-0.9-4.1-1.7c-1.1-0.7-2.7-2.3-3.4-3.3c-1-1.5-1.6-3.1-2-4.9
		c-0.3-1.4-0.3-5-0.1-6.4c0.6-3.2,2.3-6,4.5-7.8c1.3-1.1,3.5-2.1,5.1-2.4c0.3-0.1,0.6-0.1,0.8-0.2c0.1,0,1.1,0,2.1,0
		C289,123.8,289.4,123.8,290.3,124.1 M284.4,120.5c-1.8,0.3-3.8,1-5.3,1.8c-4.2,2.4-7.1,6.5-8,11.4c-0.3,1.4-0.4,4.3-0.2,5.8
		c0.3,3,1.3,5.5,2.8,7.8c2.3,3.4,5.8,5.7,9.9,6.4c1.4,0.2,4,0.3,5.5,0c4.1-0.6,7.4-2.7,9.5-5.9l0.5-0.8l0.1,2c0,1.1,0.1,2.4,0.1,2.9
		l0,0.9h1.8h1.8v-15.8v-15.8H301h-1.8l0,0.9c0,0.5,0,1.9-0.1,3l-0.1,2l-0.6-0.9c-0.7-1.1-2.4-2.8-3.6-3.6c-2.5-1.7-5.2-2.5-8.4-2.4
		C285.7,120.4,284.8,120.4,284.4,120.5 M366.8,123.9c2.5,0.4,4.5,1.5,6.3,3.4c1.7,1.8,2.9,4.1,3.4,6.9c0.2,1.3,0.2,4.6,0,5.9
		c-1.2,6.8-6.6,11.1-13.2,10.5c-2.9-0.3-5.4-1.4-7.4-3.5c-1.8-1.9-3-4.2-3.5-7.1c-0.2-1.3-0.2-4.5,0-5.8c0.4-2.1,1-3.7,2.1-5.3
		c1.8-2.7,4.5-4.5,7.7-5.1C363.3,123.7,365.8,123.7,366.8,123.9 M362,120.5c-4.6,0.7-8.8,3.7-11.2,7.9c-1.4,2.5-2.1,5.1-2.2,8.1
		c-0.1,3.9,0.8,7.3,2.7,10.4c2.4,3.6,5.6,5.9,9.8,6.8c0.9,0.2,1.3,0.2,3.4,0.2c2.6,0,3.3-0.1,5.1-0.7c1.1-0.4,3-1.4,4.1-2.1
		c1.2-0.8,2.9-2.6,3.7-3.7c2.3-3.3,3.3-6.7,3.1-10.8c-0.1-3.6-1-6.4-2.7-9.1c-2.6-3.9-6.4-6.3-11.1-7
		C365.7,120.3,363,120.4,362,120.5"/>
	<g transform="translate(177.212 16.911)">
		<defs>
			
				<filter id="Adobe_OpacityMaskFilter_00000016045181943977899650000012120978904384412057_" filterUnits="userSpaceOnUse" x="244.6" y="103.5" width="22.7" height="33.4">
				<feColorMatrix  type="matrix" values="1 0 0 0 0  0 1 0 0 0  0 0 1 0 0  0 0 0 1 0"/>
			</filter>
		</defs>
		
			<mask maskUnits="userSpaceOnUse" x="244.6" y="103.5" width="22.7" height="33.4" id="black-d_00000014616932356428741030000006398686651332523652_">
			<g style="filter:url(#Adobe_OpacityMaskFilter_00000016045181943977899650000012120978904384412057_);">
				<polygon id="black-c_00000120528265291887967150000017464763109027296136_" class="st1" points="244.6,103.5 267.3,103.5 
					267.3,136.9 244.6,136.9 				"/>
			</g>
		</mask>
		<path class="st4" d="M253.9,103.6c-4.3,0.6-7.4,2.8-8.3,6.2c-0.3,1.1-0.3,3.3,0,4.4c0.5,2.1,1.8,3.6,4.1,5
			c1.2,0.7,2.6,1.3,5.5,2.3c7,2.4,8.4,3.4,8.6,6.2c0.1,2.3-0.9,4-3.2,5c-2.8,1.3-7,1.3-10.9,0c-1.2-0.4-2.8-1.1-3.7-1.7l-0.7-0.5
			l-0.1,0.3c0,0.2-0.1,0.9-0.3,1.7c-0.2,1.6-0.3,1.3,0.9,2c1.8,1,4.5,1.9,7.2,2.2c1.5,0.2,5,0.1,6.2-0.2c1.9-0.4,3.3-0.9,4.5-1.8
			c2-1.3,3.1-2.8,3.6-4.8c0.3-1.1,0.3-3.2,0-4.3c-0.9-3.4-3.5-5.4-9.4-7.3c-3.1-1-4.3-1.4-5.3-1.9c-2.3-1.1-3.2-2.3-3.5-4.2
			c-0.2-1.5,0.2-2.8,1.2-3.8c2.5-2.6,8.9-2.6,13.8-0.1c0.7,0.4,1.3,0.6,1.3,0.6s0.2-0.7,0.3-1.4c0.1-0.7,0.3-1.4,0.3-1.5
			c0.1-0.2-0.1-0.3-1-0.7c-1.8-0.9-4-1.5-6.3-1.8C257.6,103.5,254.9,103.5,253.9,103.6"/>
	</g>
	<path class="st1" d="M253.8,121.3c-5.6,0.6-10.3,3.9-12.6,8.7c-1.3,2.7-1.9,5.9-1.6,9.1c0.2,2.6,0.7,4.4,1.7,6.4
		c1.8,3.6,4.9,6.2,8.9,7.5c3.9,1.3,8.6,1.2,12.8-0.1c1.3-0.4,3.2-1.3,3.3-1.6c0-0.1-0.3-2.9-0.4-3c0,0-0.2,0-0.4,0.1
		c-1,0.6-3.5,1.5-5.1,1.8c-4.6,0.9-8.8,0.3-11.9-1.9c-2.6-1.8-4.3-4.6-5-8.2c-0.2-1.1-0.2-4,0-5.2c0.7-4.5,3.1-7.7,6.8-9.5
		c3.8-1.8,9.4-1.5,13.8,0.5c0.5,0.2,0.9,0.4,0.9,0.4s0.1-0.7,0.2-1.5c0.1-0.8,0.2-1.4,0.2-1.5c0-0.2-1.6-1-2.9-1.4
		C260.1,121.3,256.6,120.9,253.8,121.3 M326.1,121.2c-2.8,0.2-5,1.1-7,3.1c-0.8,0.8-1.9,2.2-2.5,3.1l-0.3,0.5l0-3.1l0-3.1h-1.8h-1.8
		v15.8v15.8h1.9h1.9v-8.3c0-6.8,0-8.6,0.2-9.6c0.7-5.8,3.4-9.6,7.7-10.4c1.2-0.2,3.4-0.2,4.6,0.2l0.9,0.2l0.1-0.3
		c0-0.2,0.1-0.8,0.2-1.3c0.1-0.6,0.1-1.2,0.2-1.4c0.1-0.3,0-0.4-0.2-0.5C329.3,121.3,327.3,121.1,326.1,121.2 M191.5,121.3
		c0,0.1,3,7.1,6.5,15.6l6.5,15.5h1.9h1.9l6.1-14.8c3.4-8.1,6.3-15.2,6.5-15.6l0.3-0.8h-1.9h-1.9l-5.5,13.5c-3,7.4-5.5,13.5-5.5,13.6
		s0,0-0.1,0c0,0-9.9-24.2-11-27c0-0.1-0.5-0.1-2-0.1C191.8,121.1,191.5,121.2,191.5,121.3"/>
	<polygon class="st1" points="228.1,136.8 228.1,152.4 230,152.4 231.9,152.4 231.9,136.8 231.9,121.1 230,121.1 228.1,121.1 	"/>
	<polygon class="st1" points="336.3,136.8 336.3,152.4 338.3,152.4 340.2,152.4 340.2,136.8 340.2,121.1 338.3,121.1 336.3,121.1 	
		"/>
	<path class="st1" d="M388.2,131.9c0,6.2,0,10.4,0.1,10.9c0.5,4.1,2.2,7.1,5.1,9c1.5,1,3.3,1.6,5.4,1.9c1.6,0.2,5.1,0.1,6.4-0.1
		c5.3-1.2,8.3-4.3,9.4-9.8c0.2-0.8,0.2-2,0.2-11.4l0-10.6H413h-1.9V132c0,6.2,0,10.4-0.1,10.8c-0.4,2.6-1.4,4.7-3,5.9
		c-0.8,0.6-2.2,1.3-3.3,1.6c-2.8,0.6-6,0.4-8.2-0.6c-2.5-1.2-3.9-3.3-4.5-6.5c-0.1-0.8-0.2-2.4-0.2-11.1v-10.2H390h-1.9V131.9z"/>
</g>
</svg>
