<svg xmlns="http://www.w3.org/2000/svg" width="600" height="600" viewBox="0 0 600 600"><defs><style>.a{opacity:0.15;}.b,.f,.h,.k,.l,.o{fill:none;}.b,.f{stroke:#fff;}.b,.l{stroke-miterlimit:96;}.c{opacity:0.25;}.d{opacity:0.4;}.e{opacity:0.75;}.f,.h,.k,.o{stroke-miterlimit:40;}.g{fill:#fff;}.h{stroke:#fc6255;}.h,.k,.l,.o{stroke-width:1.5px;}.i{fill:#fc6255;}.j{isolation:isolate;}.k{stroke:#58c4dd;}.l,.o{stroke:#fff933;}.m{fill:#58c4dd;}.n{fill:#fff933;}</style></defs><rect width="600" height="600"/><g class="a"><line class="b" x1="84" y1="60" x2="84" y2="540"/><line class="b" x1="108" y1="60" x2="108" y2="540"/><line class="b" x1="132" y1="60" x2="132" y2="540"/><line class="b" x1="156" y1="60" x2="156" y2="540"/><line class="b" x1="204" y1="60" x2="204" y2="540"/><line class="b" x1="228" y1="60" x2="228" y2="540"/><line class="b" x1="252" y1="60" x2="252" y2="540"/><line class="b" x1="276" y1="60" x2="276" y2="540"/><line class="b" x1="324" y1="60" x2="324" y2="540"/><line class="b" x1="348" y1="60" x2="348" y2="540"/><line class="b" x1="372" y1="60" x2="372" y2="540"/><line class="b" x1="396" y1="60" x2="396" y2="540"/><line class="b" x1="444" y1="60" x2="444" y2="540"/><line class="b" x1="468" y1="60" x2="468" y2="540"/><line class="b" x1="492" y1="60" x2="492" y2="540"/><line class="b" x1="516" y1="60" x2="516" y2="540"/><line class="b" x1="60" y1="84" x2="540" y2="84"/><line class="b" x1="60" y1="108" x2="540" y2="108"/><line class="b" x1="60" y1="132" x2="540" y2="132"/><line class="b" x1="60" y1="156" x2="540" y2="156"/><line class="b" x1="60" y1="204" x2="540" y2="204"/><line class="b" x1="60" y1="228" x2="540" y2="228"/><line class="b" x1="60" y1="252" x2="540" y2="252"/><line class="b" x1="60" y1="276" x2="540" y2="276"/><line class="b" x1="60" y1="324" x2="540" y2="324"/><line class="b" x1="60" y1="348" x2="540" y2="348"/><line class="b" x1="60" y1="372" x2="540" y2="372"/><line class="b" x1="60" y1="396" x2="540" y2="396"/><line class="b" x1="60" y1="444" x2="540" y2="444"/><line class="b" x1="60" y1="468" x2="540" y2="468"/><line class="b" x1="60" y1="492" x2="540" y2="492"/><line class="b" x1="60" y1="516" x2="540" y2="516"/></g><g class="c"><line class="b" x1="180" y1="60" x2="180" y2="540"/><line class="b" x1="420" y1="60" x2="420" y2="540"/><line class="b" x1="60" y1="180" x2="540" y2="180"/><line class="b" x1="60" y1="420" x2="540" y2="420"/></g><g class="d"><line class="b" x1="60" y1="60" x2="60" y2="540"/><line class="b" x1="300" y1="60" x2="300" y2="540"/><line class="b" x1="540" y1="60" x2="540" y2="540"/><line class="b" x1="60" y1="60" x2="540" y2="60"/><line class="b" x1="60" y1="540" x2="540" y2="540"/></g><g class="e"><line class="f" x1="66.035" y1="300" x2="533.965" y2="300"/><path class="g" d="M60,300a30.231,30.231,0,0,1,8.547,4.756L66.827,300l1.72-4.755A30.2,30.2,0,0,1,60,300Z"/><path class="g" d="M540,300a30.231,30.231,0,0,0-8.547,4.756l1.72-4.756-1.72-4.755A30.2,30.2,0,0,0,540,300Z"/></g><line class="h" x1="300.007" y1="300.019" x2="362.947" y2="300.019"/><path class="i" d="M372,300.019c-4.26,1.58-9.545,4.277-12.821,7.133l2.58-7.133-2.58-7.133C362.455,295.743,367.74,298.44,372,300.019Z"/><g class="j"><path class="g" d="M46.424,555.375a4.412,4.412,0,0,1,3.825-2.025,4.613,4.613,0,0,1,3.2,1.25,5.439,5.439,0,0,1,1.15,1.7,14.317,14.317,0,0,1,.925,5.7,13.056,13.056,0,0,1-1.075,5.925,4.335,4.335,0,0,1-2.05,2.1,4.71,4.71,0,0,1-2.125.525,4.4,4.4,0,0,1-4.2-2.625A13.041,13.041,0,0,1,45,562a19.514,19.514,0,0,1,.313-3.838A8.4,8.4,0,0,1,46.424,555.375Zm5.625-.3a2.3,2.3,0,0,0-1.774-.8,2.382,2.382,0,0,0-1.8.8,3.006,3.006,0,0,0-.75,1.4,15.352,15.352,0,0,0-.25,2.85c0,.1-.005.425-.013.975s-.012,1.009-.012,1.375q0,2.4.049,3.35a14.345,14.345,0,0,0,.3,2.512,2.854,2.854,0,0,0,.75,1.313,2.219,2.219,0,0,0,1.726.75,2.192,2.192,0,0,0,1.7-.75,2.854,2.854,0,0,0,.75-1.313,14.444,14.444,0,0,0,.3-2.512q.05-.949.05-3.35,0-.549-.013-1.375t-.013-.975a15.352,15.352,0,0,0-.25-2.85A3.006,3.006,0,0,0,52.049,555.075Z"/><path class="g" d="M58.475,568.5a1.454,1.454,0,0,1,1.5-1.5,1.475,1.475,0,0,1,1.087.438,1.414,1.414,0,0,1,.437,1.037,1.512,1.512,0,0,1-3.024.025Z"/><path class="g" d="M67.8,567.6a1.423,1.423,0,0,1-.262.875,1.062,1.062,0,0,1-.688.425l-.1.025c0,.016.059.062.176.137a.974.974,0,0,0,.275.138,3.568,3.568,0,0,0,1.424.25,2.75,2.75,0,0,0,.651-.05,3.424,3.424,0,0,0,2.025-1.55q.975-1.4.975-4.85v-.175l-.125.2a3.2,3.2,0,0,1-2.875,1.7,4.24,4.24,0,0,1-3.4-1.725,5.416,5.416,0,0,1-1.349-3.9,6.194,6.194,0,0,1,.388-2.375,5.989,5.989,0,0,1,1.336-1.875,4.948,4.948,0,0,1,3.1-1.475l.075-.025h.125q.05,0,.162.012a1.631,1.631,0,0,0,.188.013,3.5,3.5,0,0,1,.724.05A4.736,4.736,0,0,1,73.8,556a12.8,12.8,0,0,1,1.074,5.65,11.054,11.054,0,0,1-1.5,5.925,6.818,6.818,0,0,1-2.112,2.188,4.755,4.755,0,0,1-2.587.787,4.06,4.06,0,0,1-2.538-.738,2.53,2.53,0,0,1-.962-2.137q0-1.4,1.324-1.4a1.228,1.228,0,0,1,1.3,1.325Zm2.525-13.175a3.81,3.81,0,0,0-.7-.05A2.219,2.219,0,0,0,68,555.05a2.673,2.673,0,0,0-.687,1.312,14.374,14.374,0,0,0-.162,2.613,22.721,22.721,0,0,0,.125,2.7,2.51,2.51,0,0,0,.737,1.538,2.167,2.167,0,0,0,1.563.587h.1a2.3,2.3,0,0,0,1.962-1.412,7.274,7.274,0,0,0,.612-3.138,13.734,13.734,0,0,0-.2-2.8,2.691,2.691,0,0,0-.613-1.3A2.091,2.091,0,0,0,70.325,554.425Z"/></g><g class="j"><path class="g" d="M304.15,570q-.426-.075-3.976-.075-3.5,0-3.925.075h-.3v-1.15h.65a14.1,14.1,0,0,0,1.875-.075,1.616,1.616,0,0,0,.6-.3V555.55a.609.609,0,0,0-.2.075,7.358,7.358,0,0,1-2.575.475h-.474v-1.15h.474a6.964,6.964,0,0,0,3.5-.95,3.432,3.432,0,0,0,.776-.575c.033-.05.132-.075.3-.075a.629.629,0,0,1,.425.15v7.475l.026,7.5a2.419,2.419,0,0,0,1.625.375h1.474V570Z"/></g><g class="j"><path class="g" d="M534.425,570q-.426-.075-3.975-.075-3.5,0-3.925.075h-.3v-1.15h.649a14.075,14.075,0,0,0,1.875-.075,1.611,1.611,0,0,0,.6-.3V555.55a.591.591,0,0,0-.2.075,7.363,7.363,0,0,1-2.575.475H526.1v-1.15h.475a6.97,6.97,0,0,0,3.5-.95,3.47,3.47,0,0,0,.775-.575q.049-.075.3-.075a.633.633,0,0,1,.425.15v7.475l.025,7.5a2.419,2.419,0,0,0,1.625.375H534.7V570Z"/><path class="g" d="M538.475,568.5a1.454,1.454,0,0,1,1.5-1.5,1.474,1.474,0,0,1,1.087.438,1.414,1.414,0,0,1,.437,1.037,1.512,1.512,0,0,1-3.024.025Z"/><path class="g" d="M553.874,570q-.425-.075-3.974-.075-3.5,0-3.925.075h-.3v-1.15h.651a14.117,14.117,0,0,0,1.875-.075,1.621,1.621,0,0,0,.6-.3V555.55a.614.614,0,0,0-.2.075,7.363,7.363,0,0,1-2.575.475h-.475v-1.15h.475a6.97,6.97,0,0,0,3.5-.95,3.425,3.425,0,0,0,.775-.575q.05-.075.3-.075a.631.631,0,0,1,.425.15v7.475l.025,7.5a2.419,2.419,0,0,0,1.625.375h1.475V570Z"/></g><g class="j"><path class="g" d="M16.425,45.375a4.409,4.409,0,0,1,3.824-2.025,4.613,4.613,0,0,1,3.2,1.25,5.439,5.439,0,0,1,1.15,1.7,14.317,14.317,0,0,1,.925,5.7,13.056,13.056,0,0,1-1.075,5.925,4.331,4.331,0,0,1-2.05,2.1,4.707,4.707,0,0,1-2.125.525,4.4,4.4,0,0,1-4.2-2.625A13.041,13.041,0,0,1,15,52a19.514,19.514,0,0,1,.313-3.838A8.4,8.4,0,0,1,16.425,45.375Zm5.625-.3a2.306,2.306,0,0,0-1.775-.8,2.382,2.382,0,0,0-1.8.8,3.006,3.006,0,0,0-.75,1.4,15.352,15.352,0,0,0-.25,2.85c0,.1-.005.425-.013.975s-.012,1.009-.012,1.375q0,2.4.049,3.35a14.224,14.224,0,0,0,.3,2.512,2.837,2.837,0,0,0,.75,1.313,2.216,2.216,0,0,0,1.725.75,2.19,2.19,0,0,0,1.7-.75,2.854,2.854,0,0,0,.75-1.313,14.345,14.345,0,0,0,.3-2.512q.05-.949.05-3.35,0-.549-.013-1.375t-.012-.975a15.532,15.532,0,0,0-.25-2.85A3.024,3.024,0,0,0,22.05,45.075Z"/><path class="g" d="M28.475,58.5a1.454,1.454,0,0,1,1.5-1.5,1.474,1.474,0,0,1,1.087.438,1.414,1.414,0,0,1,.437,1.037,1.512,1.512,0,0,1-3.024.025Z"/><path class="g" d="M43.874,60q-.425-.075-3.974-.075-3.5,0-3.925.075h-.3V58.85h.651a14.117,14.117,0,0,0,1.875-.075,1.621,1.621,0,0,0,.6-.3V45.55a.614.614,0,0,0-.2.075,7.363,7.363,0,0,1-2.575.475H35.55V44.95h.475a6.97,6.97,0,0,0,3.5-.95,3.425,3.425,0,0,0,.775-.575q.05-.075.3-.075a.631.631,0,0,1,.425.15v7.475l.025,7.5a2.419,2.419,0,0,0,1.625.375H44.15V60Z"/></g><g class="j"><path class="g" d="M26.15,285.375a4.409,4.409,0,0,1,3.825-2.025,4.609,4.609,0,0,1,3.2,1.25,5.441,5.441,0,0,1,1.151,1.7,14.319,14.319,0,0,1,.924,5.7,13.043,13.043,0,0,1-1.075,5.925,4.326,4.326,0,0,1-2.05,2.1A4.707,4.707,0,0,1,30,300.55a4.406,4.406,0,0,1-4.2-2.625A13.045,13.045,0,0,1,24.725,292a19.438,19.438,0,0,1,.313-3.838A8.373,8.373,0,0,1,26.15,285.375Zm5.625-.3a2.307,2.307,0,0,0-1.776-.8,2.38,2.38,0,0,0-1.8.8,2.989,2.989,0,0,0-.75,1.4,15.352,15.352,0,0,0-.25,2.85q0,.15-.013.975t-.013,1.375q0,2.4.051,3.35a14.15,14.15,0,0,0,.3,2.512,2.837,2.837,0,0,0,.75,1.313A2.215,2.215,0,0,0,30,299.6a2.192,2.192,0,0,0,1.7-.75,2.854,2.854,0,0,0,.75-1.313,14.369,14.369,0,0,0,.3-2.512q.051-.949.05-3.35,0-.549-.011-1.375t-.013-.975a15.532,15.532,0,0,0-.25-2.85A3.024,3.024,0,0,0,31.775,285.075Z"/></g><g class="j"><path class="g" d="M10.137,535.525V533.7h6.651v1.825Z"/><path class="g" d="M20.587,525.375a4.41,4.41,0,0,1,3.826-2.025,4.61,4.61,0,0,1,3.2,1.25,5.422,5.422,0,0,1,1.15,1.7,14.317,14.317,0,0,1,.925,5.7,13.043,13.043,0,0,1-1.075,5.925,4.331,4.331,0,0,1-2.05,2.1,4.707,4.707,0,0,1-2.125.525,4.406,4.406,0,0,1-4.2-2.625A13.045,13.045,0,0,1,19.163,532a19.447,19.447,0,0,1,.312-3.838A8.373,8.373,0,0,1,20.587,525.375Zm5.625-.3a2.3,2.3,0,0,0-1.775-.8,2.382,2.382,0,0,0-1.8.8,3.006,3.006,0,0,0-.75,1.4,15.352,15.352,0,0,0-.25,2.85q0,.15-.013.975t-.012,1.375q0,2.4.051,3.35a14.27,14.27,0,0,0,.3,2.512,2.837,2.837,0,0,0,.75,1.313,2.219,2.219,0,0,0,1.725.75,2.189,2.189,0,0,0,1.7-.75,2.854,2.854,0,0,0,.75-1.313,14.247,14.247,0,0,0,.3-2.512q.049-.949.05-3.35,0-.549-.012-1.375t-.013-.975a15.532,15.532,0,0,0-.25-2.85A3.006,3.006,0,0,0,26.212,525.075Z"/><path class="g" d="M32.637,538.5a1.454,1.454,0,0,1,1.5-1.5,1.476,1.476,0,0,1,1.088.438,1.419,1.419,0,0,1,.438,1.037,1.513,1.513,0,0,1-3.026.025Z"/><path class="g" d="M48.038,540q-.427-.075-3.976-.075-3.5,0-3.925.075h-.3v-1.15h.651a14.1,14.1,0,0,0,1.875-.075,1.607,1.607,0,0,0,.6-.3V525.55a.614.614,0,0,0-.2.075,7.358,7.358,0,0,1-2.575.475h-.475v-1.15h.475a6.97,6.97,0,0,0,3.5-.95,3.4,3.4,0,0,0,.775-.575c.034-.05.133-.075.3-.075a.629.629,0,0,1,.425.15v7.475l.025,7.5a2.419,2.419,0,0,0,1.625.375h1.475V540Z"/></g><path class="k" d="M223.492,60q76.646,239.581,152.8,479.322"/><path class="l" d="M177.522,538.694Q302.318,301.9,417.138,60"/><path class="m" d="M143.1,41.836a1.069,1.069,0,0,1,.75.275.939.939,0,0,1,.3.725,1.523,1.523,0,0,1-.5,1.15c-.116.117-.158.176-.125.176a8.208,8.208,0,0,0,1.5.074,3.148,3.148,0,0,0,1.5-.3A3.431,3.431,0,0,0,147.6,43.1a3.382,3.382,0,0,0,.7-1.162q.15-.475.4-1.55a10.116,10.116,0,0,0,.324-1.4,4.99,4.99,0,0,1-2,1.026,3.822,3.822,0,0,1-.625.05,3.143,3.143,0,0,1-2.563-1.138,4.351,4.351,0,0,1-.937-2.862,6.684,6.684,0,0,1,.725-3.025,7.212,7.212,0,0,1,3.3-3.475,5.048,5.048,0,0,1,2.175-.55,2.9,2.9,0,0,1,2.175,1.2.814.814,0,0,0,.1-.125,1.15,1.15,0,0,1,1.05-.574.9.9,0,0,1,.575.2.62.62,0,0,1,.25.5q0,.375-1.424,6.051t-1.5,5.8a4.29,4.29,0,0,1-1.963,2.237,6.392,6.392,0,0,1-3.338.888q-2.874,0-3.4-1.1a1.225,1.225,0,0,1-.125-.6,1.667,1.667,0,0,1,.451-1.15A1.475,1.475,0,0,1,143.1,41.836Zm7.75-9.975a5.938,5.938,0,0,0-.388-1,1.911,1.911,0,0,0-.587-.637,1.628,1.628,0,0,0-.975-.287q-.049,0-.162.012c-.076.009-.121.012-.138.012a3.189,3.189,0,0,0-1.825,1.3,10.149,10.149,0,0,0-1.324,3.375,11.51,11.51,0,0,0-.426,2.5q0,1.974,1.551,1.974a3.611,3.611,0,0,0,2.75-1.75l.2-.25Q150.428,33.612,150.853,31.861Z"/><path class="g" d="M161.5,46.086c0,.15-.15.226-.45.226h-.325l-.7-.6q-4.5-4.1-4.5-11.9a20.141,20.141,0,0,1,.725-5.576,13.478,13.478,0,0,1,3.775-6.324c.116-.1.25-.213.4-.338s.25-.213.3-.262h.325a.587.587,0,0,1,.375.075.214.214,0,0,1,.075.15c0,.067-.091.192-.275.375q-3.876,4.1-3.875,11.9t3.875,11.9C161.412,45.9,161.5,46.02,161.5,46.086Z"/><path class="g" d="M164.353,33.111a.409.409,0,0,1-.15-.275,4.761,4.761,0,0,1,.775-1.725,4.283,4.283,0,0,1,2.949-2.049,3.958,3.958,0,0,1,.526-.05,3.043,3.043,0,0,1,1.612.449,2.7,2.7,0,0,1,1.062,1.125l.4-.524a2.766,2.766,0,0,1,2.125-1.05,2.36,2.36,0,0,1,1.662.587,1.882,1.882,0,0,1,.638,1.438,1.965,1.965,0,0,1-.438,1.3,1.436,1.436,0,0,1-1.162.525,1.1,1.1,0,0,1-.775-.275.931.931,0,0,1-.3-.725,1.588,1.588,0,0,1,1.25-1.574.984.984,0,0,0-.276-.176,1.434,1.434,0,0,0-.724-.15,1.648,1.648,0,0,0-.476.051,2.614,2.614,0,0,0-1.4,1.65q-.075.2-.726,2.787t-.7,2.912a3.741,3.741,0,0,0-.075.75,1.286,1.286,0,0,0,.349.951,1.253,1.253,0,0,0,.925.35,2.582,2.582,0,0,0,1.9-.888,4.617,4.617,0,0,0,1.15-1.962c.05-.167.1-.263.149-.288a1.216,1.216,0,0,1,.4-.038q.474,0,.474.2c0,.016-.016.108-.049.274a5.454,5.454,0,0,1-1.75,2.7,3.948,3.948,0,0,1-2.475.924,2.878,2.878,0,0,1-2.65-1.574,3.5,3.5,0,0,1-1.85,1.5,3.222,3.222,0,0,1-.65.05,2.179,2.179,0,0,1-2.05-1.025,1.936,1.936,0,0,1-.25-1,1.886,1.886,0,0,1,.45-1.275,1.447,1.447,0,0,1,1.149-.526.94.94,0,0,1,1.076,1.051,1.412,1.412,0,0,1-.875,1.35l-.125.062-.125.063a.209.209,0,0,1-.076.025l-.075.025c0,.049.125.125.375.225a1.682,1.682,0,0,0,.651.125,1.845,1.845,0,0,0,1.549-1.125,18.862,18.862,0,0,0,.976-3.25c.1-.384.208-.808.324-1.275s.2-.825.263-1.075.1-.4.112-.451a6.009,6.009,0,0,0,.125-.974,1.341,1.341,0,0,0-.324-.95,1.168,1.168,0,0,0-.9-.351,2.613,2.613,0,0,0-1.951.863,4.746,4.746,0,0,0-1.149,1.988c-.034.149-.071.237-.113.262a1.206,1.206,0,0,1-.412.037Z"/><path class="g" d="M178.7,21.336l.1-.024h.551c.116.1.35.3.7.6q4.5,4.1,4.5,11.9a19.735,19.735,0,0,1-.724,5.549,13.485,13.485,0,0,1-3.776,6.35c-.116.1-.25.213-.4.338s-.25.213-.3.263h-.3a.942.942,0,0,1-.387-.05c-.058-.034-.087-.117-.087-.25.016-.017.108-.125.275-.325q3.875-4.026,3.875-11.875t-3.875-11.875c-.167-.2-.259-.309-.275-.326A.3.3,0,0,1,178.7,21.336Z"/><path class="g" d="M194.578,31.387a.543.543,0,0,1,.349-.5h15.925a.546.546,0,0,1,.375.5.563.563,0,0,1-.35.474l-7.95.026h-7.95A.5.5,0,0,1,194.578,31.387Zm0,4.849a.5.5,0,0,1,.4-.5h15.9a.934.934,0,0,0,.113.088,1.238,1.238,0,0,1,.125.1.412.412,0,0,1,.075.125.487.487,0,0,1,.037.187.546.546,0,0,1-.375.5H194.927A.543.543,0,0,1,194.578,36.236Z"/><path class="g" d="M223.627,29.711q-2.3,0-2.3,1.625a1.159,1.159,0,0,0,.049.426,1.5,1.5,0,0,0,.776.862,7.567,7.567,0,0,0,1.7.487,6.709,6.709,0,0,1,1.95.551,3.621,3.621,0,0,1,2.026,2.475,4.688,4.688,0,0,1,.024.6,4.023,4.023,0,0,1-.35,1.725,3.767,3.767,0,0,1-3.674,1.851,3.981,3.981,0,0,1-2.6-.9l-.2.174-.226.226c-.1.1-.2.191-.3.274l-.275.25h-.2a.45.45,0,0,1-.325-.149V38.211q0-1.624.012-1.875c.008-.166.045-.266.113-.3a1.564,1.564,0,0,1,.4-.025.827.827,0,0,1,.388.05.786.786,0,0,1,.137.35,5.754,5.754,0,0,0,.651,1.725,2.782,2.782,0,0,0,2.425,1.275q2.424,0,2.424-1.951a1.587,1.587,0,0,0-.45-1.174,2.168,2.168,0,0,0-1.05-.676q-.425-.1-1.2-.275a8.561,8.561,0,0,1-1.9-.524,3.123,3.123,0,0,1-1.926-2.326,1.822,1.822,0,0,1-.024-.375q0-2.874,3.524-3.224a1.636,1.636,0,0,1,.6,0,3.868,3.868,0,0,1,1.75.375l.375.2.224-.174a6.647,6.647,0,0,1,.55-.426h.2a.455.455,0,0,1,.325.151v3.3l-.15.149h-.7a.428.428,0,0,1-.151-.3,2.337,2.337,0,0,0-.7-1.8A2.721,2.721,0,0,0,223.627,29.711Z"/><path class="g" d="M234.9,40.062a21.231,21.231,0,0,0-2.6-.076,26.256,26.256,0,0,0-2.725.076h-.2v-1.15h.4A8.6,8.6,0,0,0,231,38.836a.536.536,0,0,0,.3-.274q.025-.051.025-3.625a34.778,34.778,0,0,0-.1-4q-.2-.5-1.475-.5h-.275v-.576c0-.382.017-.574.05-.574l.25-.025c.167-.017.4-.033.7-.051l.9-.049c.284-.017.583-.038.9-.063s.558-.046.725-.062.258-.025.275-.025h.075v9.5a.579.579,0,0,0,.3.312,3.934,3.934,0,0,0,.875.088h.575v1.15ZM232,23.336a1.614,1.614,0,0,1,1.025.438,1.414,1.414,0,0,1,.4,1.062,1.337,1.337,0,0,1-.675,1.275,1.364,1.364,0,0,1-.8.225,1.409,1.409,0,0,1-.825-.225,1.337,1.337,0,0,1-.675-1.275,1.419,1.419,0,0,1,.437-1.1A1.59,1.59,0,0,1,232,23.336Z"/><path class="g" d="M240.377,38.562q.2.35,1.175.35h.75v1.15h-.2a51.617,51.617,0,0,0-5.6,0h-.2v-1.15h.75c.651,0,1.041-.117,1.175-.35v-.775c0-.234,0-.5.013-.788s.012-.616.012-.975V34.986q0-.774-.012-1.662t-.013-1.463v-.574a.829.829,0,0,0-.362-.638,2.919,2.919,0,0,0-1.113-.212h-.45v-.576c0-.382.017-.574.05-.574l.25-.025c.167-.017.4-.033.713-.051l.912-.049q.424-.026.9-.063c.317-.025.558-.046.725-.062s.259-.025.275-.025h.076v1a6.841,6.841,0,0,0,.024.949l.025-.024a4.4,4.4,0,0,1,3.826-1.925,2.916,2.916,0,0,1,3.174,2.824q.025.175.025,3.476,0,3.2.025,3.25a.533.533,0,0,0,.3.274,8.63,8.63,0,0,0,1.226.076h.4v1.15h-.2a51.617,51.617,0,0,0-5.6,0h-.2v-1.15h.6q1.323,0,1.324-.4.024-.05.025-3.45-.024-3.375-.05-3.576a2.209,2.209,0,0,0-.562-1.162,1.692,1.692,0,0,0-1.188-.363,2.708,2.708,0,0,0-1.975.851,3.58,3.58,0,0,0-1.025,2.2v.462q0,.438-.012,1.112c-.009.451-.013.875-.013,1.275v.788q0,.412.013.738c.008.217.012.412.012.587v.588Z"/><path class="g" d="M257.9,46.086c0,.15-.151.226-.45.226h-.326c-.116-.1-.349-.3-.7-.6q-4.5-4.1-4.5-11.9a20.14,20.14,0,0,1,.726-5.576,13.476,13.476,0,0,1,3.774-6.324c.117-.1.25-.213.4-.338s.25-.213.3-.262h.326a.587.587,0,0,1,.375.075.218.218,0,0,1,.075.15q0,.1-.276.375-3.875,4.1-3.875,11.9t3.875,11.9Q257.9,45.987,257.9,46.086Z"/><path class="g" d="M270.078,39.137a1.141,1.141,0,0,1-.364.8,1.184,1.184,0,0,1-.886.375.925.925,0,0,1-.513-.1,1.1,1.1,0,0,1-.288-.4,7.03,7.03,0,0,1-.475-2.775q0-.9.026-1.2a31.376,31.376,0,0,1,.774-4.174c.083-.334.125-.517.125-.551h-2.45l-.025.1a1.665,1.665,0,0,1-.049.213c-.035.125-.08.308-.138.55s-.112.463-.163.663a70.155,70.155,0,0,1-1.975,7,1.078,1.078,0,0,1-1.075.7.826.826,0,0,1-.8-.424,1.175,1.175,0,0,1-.05-.4v-.276l.326-.7a48.365,48.365,0,0,0,2.724-6.826l.2-.6h-.8a8.5,8.5,0,0,0-1.388.076,2.509,2.509,0,0,0-.938.475,3.581,3.581,0,0,0-1.049,1.025.7.7,0,0,1-.2.237,1.094,1.094,0,0,1-.375.037q-.476,0-.475-.25a1.6,1.6,0,0,1,.25-.5q1.725-2.625,3.375-2.875.175-.049,5.625-.049,4,0,4.1.025a.682.682,0,0,1,.5.7,1.045,1.045,0,0,1-.8,1.05,13.792,13.792,0,0,1-1.726.049h-1.6l-.075.426a18.757,18.757,0,0,0-.3,2.975,10.078,10.078,0,0,0,.775,4.025A2.162,2.162,0,0,1,270.078,39.137Z"/><path class="g" d="M275,33.111a.413.413,0,0,1-.15-.275,4.761,4.761,0,0,1,.775-1.725,4.286,4.286,0,0,1,2.951-2.049,3.935,3.935,0,0,1,.524-.05,3.043,3.043,0,0,1,1.612.449,2.7,2.7,0,0,1,1.063,1.125q.326-.424.4-.524a2.766,2.766,0,0,1,2.125-1.05,2.355,2.355,0,0,1,1.662.587,1.878,1.878,0,0,1,.638,1.438,1.964,1.964,0,0,1-.437,1.3,1.435,1.435,0,0,1-1.163.525,1.1,1.1,0,0,1-.775-.275.935.935,0,0,1-.3-.725,1.588,1.588,0,0,1,1.25-1.574.987.987,0,0,0-.275-.176,1.433,1.433,0,0,0-.725-.15,1.623,1.623,0,0,0-.474.051,2.614,2.614,0,0,0-1.4,1.65q-.075.2-.724,2.787t-.7,2.912a3.893,3.893,0,0,0-.075.75,1.283,1.283,0,0,0,.35.951,1.253,1.253,0,0,0,.926.35,2.578,2.578,0,0,0,1.9-.888,4.617,4.617,0,0,0,1.15-1.962q.075-.25.15-.288a1.212,1.212,0,0,1,.4-.038q.476,0,.475.2c0,.016-.017.108-.05.274a5.434,5.434,0,0,1-1.75,2.7,3.944,3.944,0,0,1-2.475.924,2.88,2.88,0,0,1-2.65-1.574,3.5,3.5,0,0,1-1.85,1.5,3.222,3.222,0,0,1-.65.05,2.181,2.181,0,0,1-2.05-1.025,1.936,1.936,0,0,1-.25-1,1.9,1.9,0,0,1,.45-1.275,1.447,1.447,0,0,1,1.15-.526.939.939,0,0,1,1.075,1.051,1.412,1.412,0,0,1-.875,1.35l-.125.062-.125.063a.206.206,0,0,1-.075.025l-.074.025c0,.049.125.125.375.225a1.672,1.672,0,0,0,.649.125,1.845,1.845,0,0,0,1.55-1.125,18.905,18.905,0,0,0,.975-3.25c.1-.384.208-.808.326-1.275s.2-.825.261-1.075.1-.4.114-.451a6.127,6.127,0,0,0,.125-.974,1.342,1.342,0,0,0-.326-.95,1.164,1.164,0,0,0-.9-.351,2.613,2.613,0,0,0-1.95.863,4.737,4.737,0,0,0-1.15,1.988c-.034.149-.071.237-.112.262a1.218,1.218,0,0,1-.413.037Z"/><path class="g" d="M289.352,21.336l.1-.024H290l.7.6q4.5,4.1,4.5,11.9a19.734,19.734,0,0,1-.725,5.549,13.484,13.484,0,0,1-3.775,6.35c-.117.1-.25.213-.4.338s-.25.213-.3.263h-.3a.939.939,0,0,1-.387-.05c-.059-.034-.088-.117-.088-.25.017-.017.108-.125.275-.325q3.874-4.026,3.875-11.875T289.5,21.937c-.167-.2-.258-.309-.275-.326A.3.3,0,0,1,289.352,21.336Z"/><path class="n" d="M358.35,40.312a2.249,2.249,0,0,1-1.6-.588,1.981,1.981,0,0,1-.625-1.513,3.523,3.523,0,0,1,.25-1.1,29.222,29.222,0,0,0,1.5-4.724,4.969,4.969,0,0,0,.076-.95q0-1.476-1.225-1.476a2.97,2.97,0,0,0-.65.051,4.755,4.755,0,0,0-2.951,2.4l-.174.324-.85,3.375q-.8,3.251-.926,3.551a1.129,1.129,0,0,1-1.1.674,1.061,1.061,0,0,1-.588-.187.562.562,0,0,1-.287-.487q0-.3,3.674-15a.448.448,0,0,0-.149-.4,3.7,3.7,0,0,0-1-.125H351.2a.664.664,0,0,1-.162-.2,2.38,2.38,0,0,1,.062-.476c.083-.316.191-.475.324-.475q.025,0,1.813-.137t1.812-.138c.2,0,.3.076.3.226q0,.274-.9,3.774-.951,3.7-.951,3.775c0,.034.059-.007.175-.125a4.713,4.713,0,0,1,3.25-1.349,3.36,3.36,0,0,1,2.2.675,2.4,2.4,0,0,1,.826,1.975,4.958,4.958,0,0,1-.076.949,31.069,31.069,0,0,1-1.375,4.426,6,6,0,0,0-.45,1.775.922.922,0,0,0,.125.475.463.463,0,0,0,.375.125,1.71,1.71,0,0,0,1.313-.763,5.6,5.6,0,0,0,.963-2.038.617.617,0,0,1,.15-.324.909.909,0,0,1,.4-.051q.475.077.5.2,0,.024-.1.375a5.717,5.717,0,0,1-1.276,2.424A2.628,2.628,0,0,1,358.35,40.312Z"/><path class="g" d="M370.725,46.086c0,.15-.15.226-.45.226h-.325l-.7-.6q-4.5-4.1-4.5-11.9a20.14,20.14,0,0,1,.726-5.576,13.476,13.476,0,0,1,3.774-6.324c.117-.1.25-.213.4-.338s.25-.213.3-.262h.325a.587.587,0,0,1,.375.075.214.214,0,0,1,.075.15q0,.1-.275.375-3.876,4.1-3.875,11.9t3.875,11.9Q370.725,45.987,370.725,46.086Z"/><path class="g" d="M373.575,33.111a.411.411,0,0,1-.151-.275,4.767,4.767,0,0,1,.776-1.725,4.281,4.281,0,0,1,2.949-2.049,3.946,3.946,0,0,1,.525-.05,3.049,3.049,0,0,1,1.613.449,2.7,2.7,0,0,1,1.062,1.125c.217-.283.351-.458.4-.524a2.769,2.769,0,0,1,2.125-1.05,2.363,2.363,0,0,1,1.663.587,1.88,1.88,0,0,1,.636,1.438,1.954,1.954,0,0,1-.437,1.3,1.432,1.432,0,0,1-1.161.525,1.1,1.1,0,0,1-.776-.275.935.935,0,0,1-.3-.725,1.588,1.588,0,0,1,1.25-1.574.967.967,0,0,0-.275-.176,1.436,1.436,0,0,0-.725-.15,1.64,1.64,0,0,0-.475.051,2.615,2.615,0,0,0-1.4,1.65q-.074.2-.725,2.787t-.7,2.912a3.743,3.743,0,0,0-.076.75,1.287,1.287,0,0,0,.35.951,1.252,1.252,0,0,0,.925.35,2.579,2.579,0,0,0,1.9-.888,4.62,4.62,0,0,0,1.151-1.962c.049-.167.1-.263.149-.288a1.212,1.212,0,0,1,.4-.038q.475,0,.475.2c0,.016-.018.108-.051.274a5.439,5.439,0,0,1-1.749,2.7,3.944,3.944,0,0,1-2.474.924,2.881,2.881,0,0,1-2.651-1.574,3.5,3.5,0,0,1-1.849,1.5,3.24,3.24,0,0,1-.651.05,2.18,2.18,0,0,1-2.05-1.025,1.936,1.936,0,0,1-.25-1,1.886,1.886,0,0,1,.451-1.275,1.444,1.444,0,0,1,1.149-.526.939.939,0,0,1,1.075,1.051,1.412,1.412,0,0,1-.875,1.35l-.125.062-.125.063a.2.2,0,0,1-.075.025l-.075.025c0,.049.125.125.375.225a1.68,1.68,0,0,0,.65.125,1.846,1.846,0,0,0,1.55-1.125,18.862,18.862,0,0,0,.976-3.25c.1-.384.208-.808.324-1.275s.2-.825.263-1.075.1-.4.112-.451a6.009,6.009,0,0,0,.125-.974,1.346,1.346,0,0,0-.324-.95,1.169,1.169,0,0,0-.9-.351,2.611,2.611,0,0,0-1.95.863,4.725,4.725,0,0,0-1.149,1.988c-.035.149-.072.237-.114.262a1.2,1.2,0,0,1-.412.037Z"/><path class="g" d="M387.923,21.336l.1-.024h.551l.7.6q4.5,4.1,4.5,11.9a19.7,19.7,0,0,1-.725,5.549,13.476,13.476,0,0,1-3.775,6.35c-.116.1-.25.213-.4.338s-.25.213-.3.263h-.3a.942.942,0,0,1-.387-.05c-.058-.034-.088-.117-.088-.25q.025-.026.276-.325,3.874-4.026,3.875-11.875t-3.875-11.875c-.167-.2-.259-.309-.276-.326A.3.3,0,0,1,387.923,21.336Z"/><path class="g" d="M403.8,31.387a.543.543,0,0,1,.35-.5h15.925a.546.546,0,0,1,.375.5.565.565,0,0,1-.35.474l-7.95.026H404.2A.5.5,0,0,1,403.8,31.387Zm0,4.849a.5.5,0,0,1,.4-.5h15.9a.984.984,0,0,0,.112.088,1.041,1.041,0,0,1,.125.1.411.411,0,0,1,.076.125.487.487,0,0,1,.037.187.546.546,0,0,1-.375.5H404.149A.543.543,0,0,1,403.8,36.236Z"/><path class="g" d="M429.548,33.111a.413.413,0,0,1-.15-.275,4.761,4.761,0,0,1,.775-1.725,4.285,4.285,0,0,1,2.95-2.049,3.961,3.961,0,0,1,.525-.05,3.043,3.043,0,0,1,1.612.449,2.7,2.7,0,0,1,1.063,1.125q.326-.424.4-.524a2.766,2.766,0,0,1,2.125-1.05,2.357,2.357,0,0,1,1.662.587,1.878,1.878,0,0,1,.638,1.438,1.959,1.959,0,0,1-.438,1.3,1.433,1.433,0,0,1-1.162.525,1.1,1.1,0,0,1-.775-.275.935.935,0,0,1-.3-.725,1.588,1.588,0,0,1,1.25-1.574.987.987,0,0,0-.275-.176,1.433,1.433,0,0,0-.725-.15,1.636,1.636,0,0,0-.475.051,2.615,2.615,0,0,0-1.4,1.65q-.075.2-.725,2.787t-.7,2.912a3.816,3.816,0,0,0-.075.75,1.283,1.283,0,0,0,.35.951,1.252,1.252,0,0,0,.925.35,2.58,2.58,0,0,0,1.9-.888,4.617,4.617,0,0,0,1.15-1.962q.075-.25.15-.288a1.208,1.208,0,0,1,.4-.038q.476,0,.475.2c0,.016-.017.108-.05.274a5.434,5.434,0,0,1-1.75,2.7,3.944,3.944,0,0,1-2.475.924,2.879,2.879,0,0,1-2.65-1.574,3.5,3.5,0,0,1-1.85,1.5,3.222,3.222,0,0,1-.65.05,2.18,2.18,0,0,1-2.05-1.025,1.936,1.936,0,0,1-.25-1,1.891,1.891,0,0,1,.45-1.275,1.447,1.447,0,0,1,1.15-.526.939.939,0,0,1,1.075,1.051,1.412,1.412,0,0,1-.875,1.35l-.125.062-.125.063a.206.206,0,0,1-.075.025l-.075.025c0,.049.125.125.375.225a1.68,1.68,0,0,0,.65.125,1.846,1.846,0,0,0,1.55-1.125,19.006,19.006,0,0,0,.975-3.25c.1-.384.208-.808.325-1.275s.2-.825.262-1.075.1-.4.113-.451a6.127,6.127,0,0,0,.125-.974,1.342,1.342,0,0,0-.325-.95,1.165,1.165,0,0,0-.9-.351,2.611,2.611,0,0,0-1.95.863,4.737,4.737,0,0,0-1.15,1.988c-.034.149-.071.237-.112.262a1.218,1.218,0,0,1-.413.037Z"/><path class="g" d="M444,25.484a.813.813,0,0,1-.641-.263.932.932,0,0,1-.234-.641,2.389,2.389,0,0,1,.8-1.8,2.674,2.674,0,0,1,1.9-.751,3.159,3.159,0,0,1,2.077.678,2.843,2.843,0,0,1,1.013,1.771,4.488,4.488,0,0,1,.029.481,2.761,2.761,0,0,1-.51,1.589,9.661,9.661,0,0,1-1.647,1.676q-.525.451-1.457,1.34l-.861.817,1.109.015a17.576,17.576,0,0,0,2.433-.073c.039-.01.088-.112.146-.306a9.157,9.157,0,0,0,.2-.992v-.044h.583v.044l-.408,2.667v.044h-5.408v-.277a.954.954,0,0,1,.03-.335q.014-.014,1.224-1.384,1.589-1.764,2.04-2.332a4.223,4.223,0,0,0,.977-2.434,2.544,2.544,0,0,0-.5-1.611,1.679,1.679,0,0,0-1.406-.649,1.6,1.6,0,0,0-1.37.758c-.02.039-.049.093-.087.161a.288.288,0,0,0-.044.087q0,.015.072.015a.743.743,0,0,1,.591.262.912.912,0,0,1,.225.612.872.872,0,0,1-.24.62A.831.831,0,0,1,444,25.484Z"/><path class="g" d="M458.036,33.812a.544.544,0,0,1,.35-.5h14.525a.521.521,0,0,1,0,1H458.386A.546.546,0,0,1,458.036,33.812Z"/><path class="g" d="M492.037,40.062q-.427-.075-3.976-.076-3.5,0-3.925.076h-.3v-1.15h.65a13.833,13.833,0,0,0,1.875-.076,1.6,1.6,0,0,0,.6-.3V25.611a.609.609,0,0,0-.2.076,7.4,7.4,0,0,1-2.575.475h-.475v-1.15h.475a6.991,6.991,0,0,0,3.5-.95,3.458,3.458,0,0,0,.775-.576c.034-.049.133-.074.3-.074a.626.626,0,0,1,.425.15v7.475l.025,7.5a2.419,2.419,0,0,0,1.625.375h1.475v1.15Z"/><line class="k" x1="372" y1="300" x2="372" y2="525.899"/><line class="o" x1="372" y1="153.857" x2="372" y2="300"/><path class="g" d="M388,525.647a.6.6,0,0,1,.321-.622,6.345,6.345,0,0,1,1.111-.3,5.041,5.041,0,0,0,1.383-.479q4.3-2.28,4.3-9.037V424.172q0-8.6,5.963-11.036-5.963-2.437-5.963-10.475V311.194c0-1.3-.033-2.292-.1-2.957A9.733,9.733,0,0,0,393.1,303.4a6.109,6.109,0,0,0-3.888-2.44,2.555,2.555,0,0,1-.284-.04,1.793,1.793,0,0,1-.333-.079c-.067-.027-.157-.068-.272-.123a.484.484,0,0,1-.247-.292,1.338,1.338,0,0,1-.074-.458c0-.694,3.667-.2,5.59,1.473a10.276,10.276,0,0,1,3.25,7.3q.048.8.049,2.373v91.146a15.612,15.612,0,0,0,.654,4.758,7.052,7.052,0,0,0,1.692,3.019,12.009,12.009,0,0,0,1.74,1.419,4.505,4.505,0,0,0,1.42.6,3.523,3.523,0,0,1,.432.041,1.278,1.278,0,0,1,.457.14c.115.066.231.126.345.179a.565.565,0,0,1,.272.281.976.976,0,0,1,.1.439,1.509,1.509,0,0,1-.074.52.537.537,0,0,1-.272.3,1.523,1.523,0,0,1-.407.14c-.14.026-.326.066-.556.119s-.444.107-.642.161a6.619,6.619,0,0,0-3.3,2.518,9.758,9.758,0,0,0-1.765,5,21.32,21.32,0,0,0-.1,2.4v90.44q0,1.605-.086,2.565a12.783,12.783,0,0,1-.66,2.682,9.861,9.861,0,0,1-1.674,3.1C392.443,526.109,388,526.176,388,525.647Z"/><path class="g" d="M388,300.175a.388.388,0,0,1,.321-.4,9.253,9.253,0,0,1,1.111-.193,7.041,7.041,0,0,0,1.383-.31,5.734,5.734,0,0,0,4.3-5.851V234.473q0-5.565,5.963-7.145-5.963-1.578-5.963-6.783V161.324a13.89,13.89,0,0,0-.1-1.915,5.345,5.345,0,0,0-1.915-3.132,7.106,7.106,0,0,0-3.888-1.58c-.033,0-.128-.008-.284-.026a2.639,2.639,0,0,1-.333-.051c-.067-.018-.157-.044-.272-.079a.4.4,0,0,1-.247-.19.6.6,0,0,1-.074-.3c0-.449,3.667-.13,5.59.955a6.023,6.023,0,0,1,3.25,4.727c.032.348.049.859.049,1.537v59.013a6.859,6.859,0,0,0,.654,3.081,4.6,4.6,0,0,0,1.692,1.955,12.512,12.512,0,0,0,1.74.919,6.064,6.064,0,0,0,1.42.388c.1,0,.243.009.432.026a1.853,1.853,0,0,1,.457.091c.115.043.231.081.345.116a.509.509,0,0,1,.272.181.459.459,0,0,1,.1.285.668.668,0,0,1-.074.337.462.462,0,0,1-.272.194,2.124,2.124,0,0,1-.407.09c-.14.018-.326.043-.556.078s-.444.069-.642.1a7.09,7.09,0,0,0-3.3,1.63A5.161,5.161,0,0,0,396.987,233a8.984,8.984,0,0,0-.1,1.553v58.556a12.748,12.748,0,0,1-.086,1.661,6.015,6.015,0,0,1-.66,1.737,6.243,6.243,0,0,1-1.674,2C392.443,300.474,388,300.517,388,300.175Z"/><rect x="314.702" y="282.336" width="34.878" height="29.973"/><path class="i" d="M328.974,287.971c.25-.017.533-.037.85-.063s.553-.046.713-.062.245-.026.262-.026c.2,0,.3.068.3.2q0,.175-1.838,7.562T327.4,303.1a2.032,2.032,0,0,0-.026.375q0,1.05.7,1.05a1.086,1.086,0,0,0,.5-.225,5.68,5.68,0,0,0,1.025-2.4c.1-.334.183-.508.25-.525a.718.718,0,0,1,.25-.025h.1c.316,0,.475.066.475.2a2.092,2.092,0,0,1-.075.4,6.515,6.515,0,0,1-1.351,2.9,2.489,2.489,0,0,1-.8.525,2.687,2.687,0,0,1-.6.05,2.255,2.255,0,0,1-2.2-1.226,1.907,1.907,0,0,0-.125-.3c-.017-.017-.05-.008-.1.025l-.1.1a5.12,5.12,0,0,1-2.375,1.375,4.95,4.95,0,0,1-.625.025,3.317,3.317,0,0,1-2.725-1.375,4.868,4.868,0,0,1-.75-2.8,7.632,7.632,0,0,1,1.7-4.6A6.539,6.539,0,0,1,324,294.271a3.731,3.731,0,0,1,1.026-.15,2.392,2.392,0,0,1,2.1,1.05c.084.1.125.134.125.1q.026-.1.688-2.738t.687-2.762a.449.449,0,0,0-.149-.4,3.783,3.783,0,0,0-1-.125h-.525a.664.664,0,0,1-.162-.2,2.478,2.478,0,0,1,.062-.476q.125-.474.325-.474c.016,0,.1-.008.262-.026s.384-.033.676-.049Zm-2.15,9.05q-.55-1.976-1.875-1.975a2.309,2.309,0,0,0-1.763.85,5.909,5.909,0,0,0-1.162,1.95,19.973,19.973,0,0,0-1.026,4.1c0,.051,0,.143-.011.276s-.013.233-.013.3a2.463,2.463,0,0,0,.388,1.45,1.3,1.3,0,0,0,1.136.55q1.326,0,2.776-1.8l.2-.276q.224-.9.675-2.712T326.824,297.021Z"/><path class="i" d="M332.474,298.221a.412.412,0,0,1-.15-.276,4.751,4.751,0,0,1,.775-1.724,4.283,4.283,0,0,1,2.95-2.05,4.126,4.126,0,0,1,.525-.05,3.043,3.043,0,0,1,1.612.449,2.692,2.692,0,0,1,1.062,1.125l.4-.524a2.769,2.769,0,0,1,2.125-1.05,2.354,2.354,0,0,1,1.662.587,1.878,1.878,0,0,1,.638,1.438,1.958,1.958,0,0,1-.438,1.3,1.435,1.435,0,0,1-1.162.526,1.1,1.1,0,0,1-.775-.276.929.929,0,0,1-.3-.724,1.589,1.589,0,0,1,1.25-1.575.97.97,0,0,0-.276-.175,1.42,1.42,0,0,0-.724-.151,1.636,1.636,0,0,0-.475.051,2.618,2.618,0,0,0-1.4,1.65q-.075.2-.725,2.788t-.7,2.912a3.816,3.816,0,0,0-.075.75,1.284,1.284,0,0,0,.349.95,1.254,1.254,0,0,0,.926.35,2.582,2.582,0,0,0,1.9-.888,4.611,4.611,0,0,0,1.15-1.962c.05-.167.1-.263.149-.288a1.231,1.231,0,0,1,.4-.037c.316,0,.474.066.474.2,0,.016-.016.108-.049.274a5.448,5.448,0,0,1-1.75,2.7,3.943,3.943,0,0,1-2.475.924,2.879,2.879,0,0,1-2.65-1.574,3.5,3.5,0,0,1-1.85,1.5,3.222,3.222,0,0,1-.65.05,2.18,2.18,0,0,1-2.05-1.025,1.936,1.936,0,0,1-.25-1,1.892,1.892,0,0,1,.45-1.275,1.446,1.446,0,0,1,1.149-.525.939.939,0,0,1,1.076,1.05A1.411,1.411,0,0,1,333.7,304c-.034.017-.076.037-.125.063l-.125.062a.191.191,0,0,1-.076.025l-.074.025q0,.075.375.225a1.673,1.673,0,0,0,.65.125,1.844,1.844,0,0,0,1.549-1.125,18.8,18.8,0,0,0,.976-3.25q.15-.575.325-1.275t.262-1.075c.059-.25.1-.4.113-.45a6.149,6.149,0,0,0,.125-.975,1.344,1.344,0,0,0-.325-.95,1.17,1.17,0,0,0-.9-.351,2.612,2.612,0,0,0-1.951.864,4.736,4.736,0,0,0-1.149,1.987c-.034.149-.071.237-.112.263a1.247,1.247,0,0,1-.413.037Z"/><rect x="409.109" y="388.949" width="181.384" height="48"/><path class="g" d="M429.76,412.081a1.36,1.36,0,0,1-.963.362,1.267,1.267,0,0,1-.95-.387,1.376,1.376,0,0,1,0-1.888c.083-.083.121-.133.112-.149s-.086-.034-.237-.051a8.03,8.03,0,0,0-1.224-.1,2.562,2.562,0,0,0-2,.8,5.411,5.411,0,0,0-1.175,3.925,5.81,5.81,0,0,0,.774,3.225,3.164,3.164,0,0,0,2.75,1.525,2.331,2.331,0,0,0,1.1-.25,2.912,2.912,0,0,0,1.449-1.949.423.423,0,0,1,.125-.25.918.918,0,0,1,.4-.051h.35c.1.1.15.176.15.225a3.339,3.339,0,0,1-.625,1.475,4.044,4.044,0,0,1-3.525,1.8,5.165,5.165,0,0,1-2.375-.574,5.515,5.515,0,0,1-2.975-4.25,7.349,7.349,0,0,1-.025-.8,8.12,8.12,0,0,1,.025-.824,5.784,5.784,0,0,1,2.05-3.826,5.2,5.2,0,0,1,3.325-1.2q3.226,0,3.776,1.7a1.858,1.858,0,0,1,.074.576A1.228,1.228,0,0,1,429.76,412.081Z"/><path class="g" d="M431.847,414.718a5.7,5.7,0,0,1,1.45-3.912,5.588,5.588,0,0,1,4.1-1.938,5.162,5.162,0,0,1,3.775,1.6,5.76,5.76,0,0,1,1.75,4.225,6.605,6.605,0,0,1-.125,1.175,5.321,5.321,0,0,1-1.413,2.737,5.522,5.522,0,0,1-2.687,1.563,5.12,5.12,0,0,1-1.3.15,5.23,5.23,0,0,1-1.325-.15,5.579,5.579,0,0,1-4.225-5.45Zm6-4.9a2.341,2.341,0,0,0-.4-.025,3.486,3.486,0,0,0-1.425.3,3.282,3.282,0,0,0-1.675,2.725q-.051.45-.05,1.6a8.554,8.554,0,0,0,.475,3.375,2.74,2.74,0,0,0,2.625,1.525q3.05,0,3.05-4.075v-.8a12.5,12.5,0,0,0-.125-2.2A2.975,2.975,0,0,0,437.847,409.818Z"/><path class="g" d="M448.4,409.718q-2.3,0-2.3,1.625a1.152,1.152,0,0,0,.05.426,1.5,1.5,0,0,0,.775.862,7.6,7.6,0,0,0,1.7.487,6.759,6.759,0,0,1,1.95.55,3.621,3.621,0,0,1,2.025,2.476,4.432,4.432,0,0,1,.025.6,4.038,4.038,0,0,1-.35,1.725,3.767,3.767,0,0,1-3.675,1.85,3.973,3.973,0,0,1-2.6-.9l-.2.175-.225.225c-.1.1-.2.192-.3.275l-.275.25h-.2a.453.453,0,0,1-.325-.15v-1.975q0-1.625.013-1.875c.008-.166.045-.266.112-.3a1.6,1.6,0,0,1,.4-.024.844.844,0,0,1,.387.049.808.808,0,0,1,.138.35,5.775,5.775,0,0,0,.65,1.726,2.782,2.782,0,0,0,2.425,1.274q2.424,0,2.425-1.95a1.59,1.59,0,0,0-.45-1.175,2.178,2.178,0,0,0-1.05-.675c-.283-.066-.684-.158-1.2-.275a8.543,8.543,0,0,1-1.9-.525,3.12,3.12,0,0,1-1.925-2.325,1.8,1.8,0,0,1-.025-.375q0-2.874,3.525-3.224a1.583,1.583,0,0,1,.6,0,3.868,3.868,0,0,1,1.75.375l.375.2.225-.175a6.44,6.44,0,0,1,.55-.425h.2a.452.452,0,0,1,.325.151v3.3l-.15.15h-.7a.43.43,0,0,1-.15-.3,2.335,2.335,0,0,0-.7-1.8A2.722,2.722,0,0,0,448.4,409.718Z"/><path class="g" d="M461.822,426.093c0,.15-.151.225-.45.225h-.326l-.7-.6q-4.5-4.1-4.5-11.9a20.138,20.138,0,0,1,.726-5.575,13.485,13.485,0,0,1,3.774-6.325c.117-.1.25-.212.4-.337s.25-.213.3-.263h.326a.585.585,0,0,1,.375.076.216.216,0,0,1,.075.149q0,.1-.276.375-3.874,4.1-3.875,11.9t3.875,11.9Q461.822,425.993,461.822,426.093Z"/><path class="g" d="M474,419.144a1.139,1.139,0,0,1-.364.8,1.184,1.184,0,0,1-.886.375.935.935,0,0,1-.513-.1,1.108,1.108,0,0,1-.288-.4,7.023,7.023,0,0,1-.475-2.775q0-.9.026-1.2a31.387,31.387,0,0,1,.774-4.175c.083-.333.125-.517.125-.55h-2.45l-.025.1a1.706,1.706,0,0,1-.049.213q-.052.188-.138.549c-.059.243-.112.463-.163.664a70.155,70.155,0,0,1-1.975,7,1.08,1.08,0,0,1-1.075.7.826.826,0,0,1-.8-.425,1.165,1.165,0,0,1-.05-.4v-.276l.326-.7a48.311,48.311,0,0,0,2.724-6.825l.2-.6h-.8a8.651,8.651,0,0,0-1.388.075,2.524,2.524,0,0,0-.938.475,3.594,3.594,0,0,0-1.049,1.025.7.7,0,0,1-.2.238,1.094,1.094,0,0,1-.375.037q-.476,0-.475-.25a1.575,1.575,0,0,1,.25-.5q1.725-2.625,3.375-2.875.176-.05,5.625-.05,4,0,4.1.025a.684.684,0,0,1,.5.7,1.043,1.043,0,0,1-.8,1.049,13.446,13.446,0,0,1-1.726.05h-1.6l-.075.425a18.768,18.768,0,0,0-.3,2.976,10.069,10.069,0,0,0,.775,4.024A2.165,2.165,0,0,1,474,419.144Z"/><path class="g" d="M478.921,413.118a.413.413,0,0,1-.15-.275,4.754,4.754,0,0,1,.775-1.725,4.291,4.291,0,0,1,2.951-2.05,4.071,4.071,0,0,1,.524-.049,3.034,3.034,0,0,1,1.612.449,2.7,2.7,0,0,1,1.063,1.125q.325-.425.4-.525a2.768,2.768,0,0,1,2.125-1.049,2.356,2.356,0,0,1,1.662.586,1.88,1.88,0,0,1,.638,1.438,1.96,1.96,0,0,1-.438,1.3,1.436,1.436,0,0,1-1.162.525,1.1,1.1,0,0,1-.775-.275.936.936,0,0,1-.3-.725,1.59,1.59,0,0,1,1.25-1.575,1,1,0,0,0-.275-.175,1.433,1.433,0,0,0-.725-.15,1.589,1.589,0,0,0-.474.051,2.614,2.614,0,0,0-1.4,1.649q-.075.2-.724,2.788t-.7,2.912a3.893,3.893,0,0,0-.075.75,1.279,1.279,0,0,0,.35.95,1.249,1.249,0,0,0,.926.35,2.578,2.578,0,0,0,1.9-.888,4.611,4.611,0,0,0,1.15-1.962c.05-.167.1-.262.15-.288a1.254,1.254,0,0,1,.4-.037q.476,0,.475.2c0,.017-.017.109-.05.275a5.432,5.432,0,0,1-1.75,2.7,3.94,3.94,0,0,1-2.475.925,2.882,2.882,0,0,1-2.65-1.574,3.5,3.5,0,0,1-1.85,1.5,3.236,3.236,0,0,1-.65.049,2.179,2.179,0,0,1-2.05-1.025,1.931,1.931,0,0,1-.25-1,1.893,1.893,0,0,1,.45-1.274,1.444,1.444,0,0,1,1.15-.526.939.939,0,0,1,1.075,1.05,1.414,1.414,0,0,1-.875,1.351l-.125.062c-.05.024-.092.046-.125.063a.2.2,0,0,1-.075.024l-.074.025q0,.075.375.225a1.654,1.654,0,0,0,.649.125,1.845,1.845,0,0,0,1.55-1.125,18.838,18.838,0,0,0,.975-3.25q.15-.574.326-1.274t.261-1.076c.059-.25.1-.4.114-.45a6.14,6.14,0,0,0,.125-.974,1.347,1.347,0,0,0-.326-.951,1.167,1.167,0,0,0-.9-.35,2.613,2.613,0,0,0-1.95.863,4.728,4.728,0,0,0-1.15,1.987c-.034.15-.071.238-.112.263a1.247,1.247,0,0,1-.413.037Z"/><path class="g" d="M493.271,401.343l.1-.025h.55l.7.6q4.5,4.1,4.5,11.9a19.736,19.736,0,0,1-.725,5.55,13.489,13.489,0,0,1-3.775,6.35q-.175.15-.4.338c-.15.125-.25.213-.3.262h-.3a.941.941,0,0,1-.387-.049c-.059-.035-.088-.118-.088-.25.017-.018.108-.125.275-.326q3.875-4.024,3.875-11.875t-3.875-11.875c-.167-.2-.258-.308-.275-.325A.294.294,0,0,1,493.271,401.343Z"/><path class="g" d="M503.447,413.818a1.454,1.454,0,0,1,1.5-1.5,1.475,1.475,0,0,1,1.087.438,1.417,1.417,0,0,1,.437,1.037,1.512,1.512,0,0,1-3.024.025Z"/><path class="g" d="M519.221,419.144a1.137,1.137,0,0,1-.363.8,1.185,1.185,0,0,1-.887.375.935.935,0,0,1-.513-.1,1.133,1.133,0,0,1-.288-.4,7.042,7.042,0,0,1-.474-2.775q0-.9.025-1.2a31.248,31.248,0,0,1,.775-4.175c.083-.333.125-.517.125-.55H515.17l-.024.1a1.825,1.825,0,0,1-.05.213q-.051.188-.138.549c-.058.243-.112.463-.163.664a70,70,0,0,1-1.974,7,1.08,1.08,0,0,1-1.075.7.826.826,0,0,1-.8-.425,1.165,1.165,0,0,1-.05-.4v-.276l.325-.7a48.452,48.452,0,0,0,2.725-6.825l.2-.6h-.8a8.651,8.651,0,0,0-1.388.075,2.521,2.521,0,0,0-.937.475,3.609,3.609,0,0,0-1.05,1.025.7.7,0,0,1-.2.238,1.1,1.1,0,0,1-.375.037q-.476,0-.476-.25a1.575,1.575,0,0,1,.25-.5q1.727-2.625,3.375-2.875.177-.05,5.625-.05,4,0,4.1.025a.684.684,0,0,1,.5.7,1.044,1.044,0,0,1-.8,1.049,13.424,13.424,0,0,1-1.725.05h-1.6l-.075.425a18.768,18.768,0,0,0-.3,2.976,10.086,10.086,0,0,0,.774,4.024A2.129,2.129,0,0,1,519.221,419.144Z"/><path class="g" d="M524.646,413.818a1.454,1.454,0,0,1,1.5-1.5,1.474,1.474,0,0,1,1.087.438,1.417,1.417,0,0,1,.437,1.037,1.512,1.512,0,0,1-3.024.025Z"/><path class="i" d="M540.6,402.868q.375-.024.85-.062c.316-.026.553-.046.713-.063s.245-.025.262-.025c.2,0,.3.067.3.2q0,.176-1.838,7.562t-1.862,7.513a2.05,2.05,0,0,0-.025.375q0,1.05.7,1.05a1.086,1.086,0,0,0,.5-.225,5.673,5.673,0,0,0,1.025-2.4q.15-.5.25-.524a.709.709,0,0,1,.25-.026h.1c.316,0,.475.067.475.2a2.084,2.084,0,0,1-.075.4,6.521,6.521,0,0,1-1.35,2.9,2.49,2.49,0,0,1-.8.526,2.7,2.7,0,0,1-.6.049,2.256,2.256,0,0,1-2.2-1.225,1.97,1.97,0,0,0-.125-.3c-.017-.017-.05-.008-.1.025l-.1.1a5.12,5.12,0,0,1-2.375,1.375,4.757,4.757,0,0,1-.625.025,3.317,3.317,0,0,1-2.725-1.375,4.864,4.864,0,0,1-.75-2.8,7.643,7.643,0,0,1,1.7-4.6,6.542,6.542,0,0,1,3.45-2.375,3.716,3.716,0,0,1,1.025-.149,2.4,2.4,0,0,1,2.1,1.049c.084.1.125.134.125.1q.024-.1.687-2.737t.688-2.763a.447.447,0,0,0-.15-.4,3.686,3.686,0,0,0-1-.125h-.525a.663.663,0,0,1-.162-.2,2.472,2.472,0,0,1,.062-.475c.083-.317.192-.475.325-.475.016,0,.1-.008.262-.025s.384-.033.676-.05Zm-2.15,9.05q-.549-1.974-1.875-1.975a2.313,2.313,0,0,0-1.763.85,5.937,5.937,0,0,0-1.162,1.95,20,20,0,0,0-1.025,4.1c0,.051,0,.142-.012.275s-.013.234-.013.3a2.459,2.459,0,0,0,.388,1.45,1.3,1.3,0,0,0,1.137.55q1.325,0,2.775-1.8l.2-.275q.225-.9.675-2.712T538.446,411.918Z"/><path class="i" d="M544.1,413.118a.413.413,0,0,1-.15-.275,4.754,4.754,0,0,1,.775-1.725,4.289,4.289,0,0,1,2.95-2.05,4.1,4.1,0,0,1,.525-.049,3.034,3.034,0,0,1,1.612.449,2.7,2.7,0,0,1,1.063,1.125c.216-.283.35-.458.4-.525a2.768,2.768,0,0,1,2.125-1.049,2.356,2.356,0,0,1,1.662.586,1.88,1.88,0,0,1,.638,1.438,1.96,1.96,0,0,1-.438,1.3,1.436,1.436,0,0,1-1.162.525,1.1,1.1,0,0,1-.775-.275.936.936,0,0,1-.3-.725,1.59,1.59,0,0,1,1.25-1.575,1,1,0,0,0-.275-.175,1.436,1.436,0,0,0-.725-.15,1.6,1.6,0,0,0-.475.051,2.616,2.616,0,0,0-1.4,1.649q-.075.2-.725,2.788t-.7,2.912a3.816,3.816,0,0,0-.075.75,1.279,1.279,0,0,0,.35.95,1.248,1.248,0,0,0,.925.35,2.58,2.58,0,0,0,1.9-.888,4.611,4.611,0,0,0,1.15-1.962c.05-.167.1-.262.15-.288a1.25,1.25,0,0,1,.4-.037c.316,0,.475.067.475.2,0,.017-.017.109-.05.275a5.432,5.432,0,0,1-1.75,2.7,3.942,3.942,0,0,1-2.475.925,2.881,2.881,0,0,1-2.65-1.574,3.5,3.5,0,0,1-1.85,1.5,3.236,3.236,0,0,1-.65.049,2.178,2.178,0,0,1-2.05-1.025,1.931,1.931,0,0,1-.25-1,1.888,1.888,0,0,1,.45-1.274,1.444,1.444,0,0,1,1.15-.526.94.94,0,0,1,1.075,1.05,1.414,1.414,0,0,1-.875,1.351l-.125.062c-.05.024-.092.046-.125.063a.2.2,0,0,1-.075.024l-.075.025q0,.075.375.225a1.659,1.659,0,0,0,.65.125,1.846,1.846,0,0,0,1.55-1.125,18.938,18.938,0,0,0,.975-3.25q.15-.574.325-1.274c.117-.467.2-.826.262-1.076s.1-.4.113-.45a6.14,6.14,0,0,0,.125-.974,1.346,1.346,0,0,0-.325-.951,1.168,1.168,0,0,0-.9-.35,2.611,2.611,0,0,0-1.95.863,4.728,4.728,0,0,0-1.15,1.987c-.034.15-.071.238-.112.263a1.247,1.247,0,0,1-.413.037Z"/><rect x="409.109" y="204" width="100" height="48"/><path class="g" d="M422.8,224.394a1.393,1.393,0,0,1-1.1-.45,1.592,1.592,0,0,1-.4-1.1,4.1,4.1,0,0,1,1.363-3.088,4.584,4.584,0,0,1,3.262-1.287,5.421,5.421,0,0,1,3.563,1.162,4.882,4.882,0,0,1,1.737,3.037,7.633,7.633,0,0,1,.05.826,4.726,4.726,0,0,1-.875,2.725,16.663,16.663,0,0,1-2.824,2.875q-.9.774-2.5,2.3l-1.476,1.4,1.9.026a30.064,30.064,0,0,0,4.174-.125c.067-.017.151-.192.25-.526a15.5,15.5,0,0,0,.35-1.7v-.075h1v.075l-.7,4.574v.076H421.3v-.475a1.694,1.694,0,0,1,.05-.575q.025-.025,2.1-2.375,2.724-3.025,3.5-4a7.253,7.253,0,0,0,1.675-4.175,4.379,4.379,0,0,0-.863-2.763,2.881,2.881,0,0,0-2.413-1.112,2.739,2.739,0,0,0-2.349,1.3c-.035.066-.084.158-.151.275a.539.539,0,0,0-.075.15c0,.016.042.025.125.025a1.271,1.271,0,0,1,1.013.45,1.561,1.561,0,0,1,.387,1.05,1.489,1.489,0,0,1-.412,1.062A1.424,1.424,0,0,1,422.8,224.394Z"/><path class="g" d="M434,228.168a.411.411,0,0,1-.151-.274,4.762,4.762,0,0,1,.776-1.726,4.283,4.283,0,0,1,2.95-2.049,3.935,3.935,0,0,1,.524-.05,3.035,3.035,0,0,1,1.612.45,2.683,2.683,0,0,1,1.063,1.125c.217-.284.351-.458.4-.525a2.769,2.769,0,0,1,2.125-1.05,2.355,2.355,0,0,1,1.662.587,1.878,1.878,0,0,1,.638,1.438,1.963,1.963,0,0,1-.437,1.3,1.436,1.436,0,0,1-1.162.524,1.1,1.1,0,0,1-.776-.274.938.938,0,0,1-.3-.726,1.588,1.588,0,0,1,1.25-1.574.993.993,0,0,0-.275-.176,1.434,1.434,0,0,0-.725-.149,1.635,1.635,0,0,0-.474.05,2.614,2.614,0,0,0-1.4,1.65q-.074.2-.724,2.787t-.7,2.912a3.817,3.817,0,0,0-.076.75,1.287,1.287,0,0,0,.35.951,1.253,1.253,0,0,0,.926.35,2.578,2.578,0,0,0,1.9-.888,4.62,4.62,0,0,0,1.151-1.962c.049-.167.1-.263.149-.288a1.217,1.217,0,0,1,.4-.038q.475,0,.475.2c0,.016-.017.108-.05.275a5.436,5.436,0,0,1-1.75,2.7,3.945,3.945,0,0,1-2.474.925,2.883,2.883,0,0,1-2.651-1.575,3.5,3.5,0,0,1-1.849,1.5,3.24,3.24,0,0,1-.651.05,2.181,2.181,0,0,1-2.05-1.025,1.933,1.933,0,0,1-.25-1,1.891,1.891,0,0,1,.451-1.275,1.444,1.444,0,0,1,1.149-.526.94.94,0,0,1,1.075,1.051,1.412,1.412,0,0,1-.875,1.35l-.125.062-.125.063a.2.2,0,0,1-.075.025l-.074.025c0,.049.125.125.375.225a1.672,1.672,0,0,0,.649.125,1.845,1.845,0,0,0,1.55-1.125,18.862,18.862,0,0,0,.976-3.25c.1-.384.208-.808.325-1.275s.2-.825.261-1.075.1-.4.114-.451a6.113,6.113,0,0,0,.125-.974,1.346,1.346,0,0,0-.325-.95,1.167,1.167,0,0,0-.9-.35,2.612,2.612,0,0,0-1.95.862,4.725,4.725,0,0,0-1.149,1.988c-.035.15-.072.237-.113.262a1.214,1.214,0,0,1-.413.037Z"/><path class="g" d="M448.8,228.869a1.452,1.452,0,0,1,1.5-1.5,1.477,1.477,0,0,1,1.087.437,1.419,1.419,0,0,1,.438,1.038,1.513,1.513,0,0,1-3.025.025Z"/><path class="i" d="M464.748,217.918q.375-.024.849-.062c.317-.025.554-.045.713-.063s.245-.024.263-.024c.2,0,.3.066.3.2q0,.174-1.838,7.562t-1.863,7.512a2.145,2.145,0,0,0-.025.375q0,1.051.7,1.051a1.087,1.087,0,0,0,.5-.225,5.664,5.664,0,0,0,1.026-2.4q.148-.5.25-.525a.709.709,0,0,1,.25-.026h.1q.476,0,.476.2a2.185,2.185,0,0,1-.075.4,6.532,6.532,0,0,1-1.351,2.9,2.48,2.48,0,0,1-.8.526,2.683,2.683,0,0,1-.6.05,2.259,2.259,0,0,1-2.2-1.225,1.9,1.9,0,0,0-.125-.3c-.016-.017-.049-.009-.1.025l-.1.1a5.12,5.12,0,0,1-2.375,1.375,4.927,4.927,0,0,1-.625.025,3.315,3.315,0,0,1-2.724-1.375,4.868,4.868,0,0,1-.75-2.8,7.634,7.634,0,0,1,1.7-4.6,6.536,6.536,0,0,1,3.449-2.375,3.724,3.724,0,0,1,1.025-.15,2.392,2.392,0,0,1,2.1,1.05c.084.1.125.133.125.1q.026-.1.687-2.738t.688-2.762a.452.452,0,0,0-.149-.4,3.7,3.7,0,0,0-1-.125h-.526a.7.7,0,0,1-.162-.2,2.507,2.507,0,0,1,.063-.475q.125-.476.325-.476c.015,0,.1-.007.261-.024s.384-.034.676-.05S464.463,217.936,464.748,217.918Zm-2.151,9.051q-.549-1.976-1.875-1.975a2.309,2.309,0,0,0-1.763.85,5.959,5.959,0,0,0-1.162,1.949,19.989,19.989,0,0,0-1.025,4.1c0,.05,0,.142-.012.274s-.012.234-.012.3a2.458,2.458,0,0,0,.387,1.449,1.3,1.3,0,0,0,1.137.551q1.326,0,2.775-1.8l.2-.274q.224-.9.674-2.713T462.6,226.969Z"/><path class="i" d="M468.247,228.168a.411.411,0,0,1-.151-.274,4.762,4.762,0,0,1,.776-1.726,4.283,4.283,0,0,1,2.95-2.049,3.935,3.935,0,0,1,.524-.05,3.035,3.035,0,0,1,1.612.45,2.683,2.683,0,0,1,1.063,1.125c.217-.284.351-.458.4-.525a2.769,2.769,0,0,1,2.125-1.05,2.355,2.355,0,0,1,1.662.587,1.878,1.878,0,0,1,.638,1.438,1.963,1.963,0,0,1-.437,1.3,1.436,1.436,0,0,1-1.162.524,1.1,1.1,0,0,1-.776-.274.938.938,0,0,1-.3-.726,1.588,1.588,0,0,1,1.25-1.574.993.993,0,0,0-.275-.176,1.434,1.434,0,0,0-.725-.149,1.635,1.635,0,0,0-.474.05,2.614,2.614,0,0,0-1.4,1.65q-.073.2-.724,2.787t-.7,2.912a3.817,3.817,0,0,0-.076.75,1.287,1.287,0,0,0,.35.951,1.253,1.253,0,0,0,.926.35,2.578,2.578,0,0,0,1.9-.888,4.62,4.62,0,0,0,1.151-1.962c.049-.167.1-.263.149-.288a1.217,1.217,0,0,1,.4-.038q.476,0,.475.2c0,.016-.017.108-.05.275a5.436,5.436,0,0,1-1.75,2.7,3.945,3.945,0,0,1-2.474.925,2.883,2.883,0,0,1-2.651-1.575,3.5,3.5,0,0,1-1.849,1.5,3.24,3.24,0,0,1-.651.05,2.181,2.181,0,0,1-2.05-1.025,1.933,1.933,0,0,1-.25-1,1.891,1.891,0,0,1,.451-1.275,1.444,1.444,0,0,1,1.149-.526.94.94,0,0,1,1.075,1.051,1.412,1.412,0,0,1-.875,1.35l-.125.062-.125.063a.2.2,0,0,1-.075.025l-.074.025c0,.049.125.125.375.225a1.672,1.672,0,0,0,.649.125,1.845,1.845,0,0,0,1.55-1.125,18.862,18.862,0,0,0,.976-3.25c.1-.384.208-.808.325-1.275s.2-.825.261-1.075.1-.4.114-.451a6.113,6.113,0,0,0,.125-.974,1.346,1.346,0,0,0-.325-.95,1.167,1.167,0,0,0-.9-.35,2.612,2.612,0,0,0-1.95.862,4.725,4.725,0,0,0-1.149,1.988c-.035.15-.072.237-.113.262a1.214,1.214,0,0,1-.413.037Z"/></svg>