<svg xmlns="http://www.w3.org/2000/svg" width="720" height="480" viewBox="0 0 720 480"><defs><style>.a{isolation:isolate;}.b{fill:#fff;}.c{opacity:0.15;}.d,.f,.i{fill:none;}.d,.i{stroke:#fff;}.d,.f,.g,.j{stroke-miterlimit:24;}.e{opacity:0.4;}.f,.g{stroke:#fff933;}.h{opacity:0.8;}.i{stroke-miterlimit:10;}.j{stroke:#777;}.k{fill:#fff933;}</style></defs><rect width="720" height="480"/><g class="a"><path class="b" d="M49.862,445.526V443.7h6.65v1.826Z"/><path class="b" d="M60.587,444.651a1.373,1.373,0,0,1,1.013.412,1.406,1.406,0,0,1,.412,1.037,1.287,1.287,0,0,1-.425.975,1.352,1.352,0,0,1-.95.4h-.175l.075.125a3.244,3.244,0,0,0,1.15,1.325,3.169,3.169,0,0,0,1.825.525,2.656,2.656,0,0,0,2.55-1.5,7.631,7.631,0,0,0,.475-3.2,6.215,6.215,0,0,0-.675-3.474,1.965,1.965,0,0,0-1.6-.826,3.22,3.22,0,0,0-2.95,1.7.49.49,0,0,1-.187.212,1.111,1.111,0,0,1-.363.038c-.283,0-.442-.051-.475-.151q-.051-.1-.05-4.375,0-.75-.012-1.775t-.013-1.3q0-1.4.15-1.4a.145.145,0,0,1,.1-.051l.45.15a8.867,8.867,0,0,0,3.325.651,8.5,8.5,0,0,0,3.4-.7.789.789,0,0,1,.325-.1q.2,0,.2.45v.325a6.391,6.391,0,0,1-5.125,2.425,6.073,6.073,0,0,1-1.4-.149l-.25-.051v4.3a4.286,4.286,0,0,1,3.95-1.026,4.731,4.731,0,0,1,2.738,1.9,5.744,5.744,0,0,1,1.062,3.449A5.471,5.471,0,0,1,67.55,448.9a5.22,5.22,0,0,1-3.913,1.649,4.164,4.164,0,0,1-2.675-.875,2.782,2.782,0,0,1-.825-.825,4.424,4.424,0,0,1-.95-2.225q0-.075-.012-.237c-.009-.108-.013-.188-.013-.237a1.488,1.488,0,0,1,.4-1.1A1.386,1.386,0,0,1,60.587,444.651Z"/></g><g class="a"><path class="b" d="M356.15,435.375a4.412,4.412,0,0,1,3.825-2.025,4.613,4.613,0,0,1,3.2,1.25,5.439,5.439,0,0,1,1.15,1.7,14.317,14.317,0,0,1,.925,5.7,13.043,13.043,0,0,1-1.075,5.925,4.337,4.337,0,0,1-2.05,2.1,4.718,4.718,0,0,1-2.125.524,4.4,4.4,0,0,1-4.2-2.625A13.043,13.043,0,0,1,354.725,442a19.438,19.438,0,0,1,.313-3.838A8.382,8.382,0,0,1,356.15,435.375Zm5.625-.3a2.305,2.305,0,0,0-1.775-.8,2.381,2.381,0,0,0-1.8.8,3.006,3.006,0,0,0-.75,1.4,15.361,15.361,0,0,0-.25,2.85q0,.15-.012.975t-.013,1.375q0,2.4.05,3.351a14.317,14.317,0,0,0,.3,2.511,2.832,2.832,0,0,0,.75,1.313,2.217,2.217,0,0,0,1.725.75,2.189,2.189,0,0,0,1.7-.75,2.849,2.849,0,0,0,.75-1.313,14.219,14.219,0,0,0,.3-2.511q.05-.951.05-3.351,0-.549-.013-1.375t-.012-.975a15.542,15.542,0,0,0-.25-2.85A3.006,3.006,0,0,0,361.775,435.075Z"/></g><g class="a"><path class="b" d="M28.045,233.117a4.412,4.412,0,0,1,3.825-2.025,4.613,4.613,0,0,1,3.2,1.25,5.451,5.451,0,0,1,1.15,1.7,14.317,14.317,0,0,1,.925,5.7,13.043,13.043,0,0,1-1.075,5.925,4.337,4.337,0,0,1-2.05,2.1,4.721,4.721,0,0,1-2.125.524,4.4,4.4,0,0,1-4.2-2.625,13.043,13.043,0,0,1-1.075-5.925,19.427,19.427,0,0,1,.313-3.837A8.379,8.379,0,0,1,28.045,233.117Zm5.625-.3a2.3,2.3,0,0,0-1.775-.8,2.379,2.379,0,0,0-1.8.8,3,3,0,0,0-.75,1.4,15.365,15.365,0,0,0-.25,2.851q0,.148-.012.974t-.013,1.375q0,2.4.05,3.351a14.345,14.345,0,0,0,.3,2.512,2.834,2.834,0,0,0,.75,1.312,2.217,2.217,0,0,0,1.725.75,2.19,2.19,0,0,0,1.7-.75,2.851,2.851,0,0,0,.75-1.312,14.345,14.345,0,0,0,.3-2.512q.049-.951.05-3.351,0-.549-.012-1.375t-.013-.974a15.546,15.546,0,0,0-.25-2.851A3,3,0,0,0,33.67,232.818Z"/></g><g class="a"><path class="b" d="M656.425,444.651a1.375,1.375,0,0,1,1.013.412,1.406,1.406,0,0,1,.412,1.037,1.287,1.287,0,0,1-.425.975,1.352,1.352,0,0,1-.95.4H656.3l.075.125a3.244,3.244,0,0,0,1.15,1.325,3.166,3.166,0,0,0,1.825.525,2.656,2.656,0,0,0,2.55-1.5,7.614,7.614,0,0,0,.475-3.2,6.215,6.215,0,0,0-.675-3.474,1.966,1.966,0,0,0-1.6-.826,3.219,3.219,0,0,0-2.95,1.7.49.49,0,0,1-.187.212,1.111,1.111,0,0,1-.363.038c-.284,0-.442-.051-.475-.151q-.05-.1-.05-4.375,0-.75-.013-1.775t-.012-1.3q0-1.4.15-1.4a.143.143,0,0,1,.1-.051l.45.15a8.863,8.863,0,0,0,3.325.651,8.5,8.5,0,0,0,3.4-.7.789.789,0,0,1,.325-.1c.134,0,.2.15.2.45v.325a6.392,6.392,0,0,1-5.125,2.425,6.067,6.067,0,0,1-1.4-.149l-.25-.051v4.3a4.286,4.286,0,0,1,3.95-1.026,4.729,4.729,0,0,1,2.737,1.9,5.738,5.738,0,0,1,1.063,3.449,5.475,5.475,0,0,1-1.587,3.926,5.22,5.22,0,0,1-3.913,1.649,4.164,4.164,0,0,1-2.675-.875,2.771,2.771,0,0,1-.825-.825,4.424,4.424,0,0,1-.95-2.225q0-.075-.012-.237c-.009-.108-.013-.188-.013-.237a1.488,1.488,0,0,1,.4-1.1A1.384,1.384,0,0,1,656.425,444.651Z"/></g><g class="a"><path class="b" d="M26.925,48.425A1.369,1.369,0,0,1,25.862,48a1.569,1.569,0,0,1-.387-1.1A3.019,3.019,0,0,1,26.6,44.513a4.779,4.779,0,0,1,2.6-1.138h.375q.875,0,1.1.026a6.047,6.047,0,0,1,1.675.524,3.723,3.723,0,0,1,2.075,2.351,2.423,2.423,0,0,1,.075.674,4.155,4.155,0,0,1-.913,2.638A5.047,5.047,0,0,1,31.3,51.25c-.084.033-.084.059,0,.075a1.63,1.63,0,0,0,.25.076,5.326,5.326,0,0,1,2.575,1.587,3.828,3.828,0,0,1,1.05,2.637A4.356,4.356,0,0,1,34.7,57.6a4.952,4.952,0,0,1-1.963,2.113,5.687,5.687,0,0,1-3.037.837,5.975,5.975,0,0,1-2.925-.7,3.6,3.6,0,0,1-1.725-1.875,2.815,2.815,0,0,1-.25-1.225,1.492,1.492,0,0,1,.463-1.137,1.662,1.662,0,0,1,2.262.012,1.526,1.526,0,0,1,.45,1.125,1.6,1.6,0,0,1-.325,1,1.475,1.475,0,0,1-.875.55l-.175.05a4.7,4.7,0,0,0,3.1,1.125,2.233,2.233,0,0,0,2.075-1.324,5.755,5.755,0,0,0,.425-2.526v-.5a3.2,3.2,0,0,0-1.6-3.175,5.228,5.228,0,0,0-1.525-.174l-1.05-.026-.075-.05a.93.93,0,0,1-.05-.4.593.593,0,0,1,.075-.375.2.2,0,0,1,.125-.075,8.753,8.753,0,0,0,1.45-.125,2.167,2.167,0,0,0,1.675-1.237,5.527,5.527,0,0,0,.575-2.613,2.378,2.378,0,0,0-.875-2.175,2.075,2.075,0,0,0-1.175-.35,3.7,3.7,0,0,0-2.2.676,1.03,1.03,0,0,0-.225.162,1.469,1.469,0,0,0-.2.213l-.075.1c.05.017.108.033.175.05a1.192,1.192,0,0,1,.837.476A1.517,1.517,0,0,1,28.4,47a1.373,1.373,0,0,1-.413,1.013A1.441,1.441,0,0,1,26.925,48.425Z"/></g><g class="a"><path class="b" d="M19.862,423.29v-1.825h6.65v1.825Z"/><path class="b" d="M31.087,416.19a1.369,1.369,0,0,1-1.063-.425,1.57,1.57,0,0,1-.387-1.1,3.017,3.017,0,0,1,1.125-2.387,4.779,4.779,0,0,1,2.6-1.138h.375c.583,0,.95.009,1.1.025a6.051,6.051,0,0,1,1.675.525,3.723,3.723,0,0,1,2.075,2.35,2.431,2.431,0,0,1,.075.675,4.162,4.162,0,0,1-.912,2.638,5.063,5.063,0,0,1-2.288,1.662c-.084.033-.084.059,0,.075a1.556,1.556,0,0,0,.25.075,5.336,5.336,0,0,1,2.575,1.587,3.832,3.832,0,0,1,1.05,2.638,4.356,4.356,0,0,1-.475,1.975,4.958,4.958,0,0,1-1.963,2.113,5.693,5.693,0,0,1-3.037.837,5.986,5.986,0,0,1-2.925-.7,3.6,3.6,0,0,1-1.725-1.875,2.815,2.815,0,0,1-.25-1.225,1.494,1.494,0,0,1,.463-1.138,1.664,1.664,0,0,1,2.262.013,1.526,1.526,0,0,1,.45,1.125,1.6,1.6,0,0,1-.325,1,1.475,1.475,0,0,1-.875.55l-.175.05a4.7,4.7,0,0,0,3.1,1.125,2.233,2.233,0,0,0,2.075-1.325,5.747,5.747,0,0,0,.425-2.525v-.5a3.2,3.2,0,0,0-1.6-3.175,5.253,5.253,0,0,0-1.525-.175l-1.05-.025-.075-.05a.934.934,0,0,1-.05-.4.593.593,0,0,1,.075-.375.206.206,0,0,1,.125-.075,8.744,8.744,0,0,0,1.45-.125,2.166,2.166,0,0,0,1.675-1.238,5.509,5.509,0,0,0,.575-2.612,2.377,2.377,0,0,0-.875-2.175,2.075,2.075,0,0,0-1.175-.35,3.7,3.7,0,0,0-2.2.675,1.091,1.091,0,0,0-.225.162,1.58,1.58,0,0,0-.2.213l-.075.1c.05.017.108.033.175.05a1.2,1.2,0,0,1,.838.475,1.526,1.526,0,0,1,.337.975,1.376,1.376,0,0,1-.413,1.013A1.438,1.438,0,0,1,31.087,416.19Z"/></g><g class="c"><line class="d" x1="72" y1="60" x2="72" y2="420"/><line class="d" x1="84" y1="60" x2="84" y2="420"/><line class="d" x1="96" y1="60" x2="96" y2="420"/><line class="d" x1="108" y1="60" x2="108" y2="420"/><line class="d" x1="132" y1="60" x2="132" y2="420"/><line class="d" x1="144" y1="60" x2="144" y2="420"/><line class="d" x1="156" y1="60" x2="156" y2="420"/><line class="d" x1="168" y1="60" x2="168" y2="420"/><line class="d" x1="192" y1="60" x2="192" y2="420"/><line class="d" x1="204" y1="60" x2="204" y2="420"/><line class="d" x1="216" y1="60" x2="216" y2="420"/><line class="d" x1="228" y1="60" x2="228" y2="420"/><line class="d" x1="252" y1="60" x2="252" y2="420"/><line class="d" x1="264" y1="60" x2="264" y2="420"/><line class="d" x1="276" y1="60" x2="276" y2="420"/><line class="d" x1="288" y1="60" x2="288" y2="420"/><line class="d" x1="312" y1="60" x2="312" y2="420"/><line class="d" x1="324" y1="60" x2="324" y2="420"/><line class="d" x1="336" y1="60" x2="336" y2="420"/><line class="d" x1="348" y1="60" x2="348" y2="420"/><line class="d" x1="372" y1="60" x2="372" y2="420"/><line class="d" x1="384" y1="60" x2="384" y2="420"/><line class="d" x1="396" y1="60" x2="396" y2="420"/><line class="d" x1="408" y1="60" x2="408" y2="420"/><line class="d" x1="432" y1="60" x2="432" y2="420"/><line class="d" x1="444" y1="60" x2="444" y2="420"/><line class="d" x1="456" y1="60" x2="456" y2="420"/><line class="d" x1="468" y1="60" x2="468" y2="420"/><line class="d" x1="492" y1="60" x2="492" y2="420"/><line class="d" x1="504" y1="60" x2="504" y2="420"/><line class="d" x1="516" y1="60" x2="516" y2="420"/><line class="d" x1="528" y1="60" x2="528" y2="420"/><line class="d" x1="552" y1="60" x2="552" y2="420"/><line class="d" x1="564" y1="60" x2="564" y2="420"/><line class="d" x1="576" y1="60" x2="576" y2="420"/><line class="d" x1="588" y1="60" x2="588" y2="420"/><line class="d" x1="612" y1="60" x2="612" y2="420"/><line class="d" x1="624" y1="60" x2="624" y2="420"/><line class="d" x1="636" y1="60" x2="636" y2="420"/><line class="d" x1="648" y1="60" x2="648" y2="420"/><line class="d" x1="60" y1="72" x2="660" y2="72"/><line class="d" x1="60" y1="84" x2="660" y2="84"/><line class="d" x1="60" y1="96" x2="660" y2="96"/><line class="d" x1="60" y1="108" x2="660" y2="108"/><line class="d" x1="60" y1="132" x2="660" y2="132"/><line class="d" x1="60" y1="144" x2="660" y2="144"/><line class="d" x1="60" y1="156" x2="660" y2="156"/><line class="d" x1="60" y1="168" x2="660" y2="168"/><line class="d" x1="60" y1="192" x2="660" y2="192"/><line class="d" x1="60" y1="204" x2="660" y2="204"/><line class="d" x1="60" y1="216" x2="660" y2="216"/><line class="d" x1="60" y1="228" x2="660" y2="228"/><line class="d" x1="60" y1="252" x2="660" y2="252"/><line class="d" x1="60" y1="264" x2="660" y2="264"/><line class="d" x1="60" y1="276" x2="660" y2="276"/><line class="d" x1="60" y1="288" x2="660" y2="288"/><line class="d" x1="60" y1="312" x2="660" y2="312"/><line class="d" x1="60" y1="324" x2="660" y2="324"/><line class="d" x1="60" y1="336" x2="660" y2="336"/><line class="d" x1="60" y1="348" x2="660" y2="348"/><line class="d" x1="60" y1="372" x2="660" y2="372"/><line class="d" x1="60" y1="384" x2="660" y2="384"/><line class="d" x1="60" y1="396" x2="660" y2="396"/><line class="d" x1="60" y1="408" x2="660" y2="408"/></g><g class="e"><line class="d" x1="60" y1="60" x2="60" y2="420"/><line class="d" x1="120" y1="60" x2="120" y2="420"/><line class="d" x1="180" y1="60" x2="180" y2="420"/><line class="d" x1="240" y1="60" x2="240" y2="420"/><line class="d" x1="300" y1="60" x2="300" y2="420"/><line class="d" x1="420" y1="60" x2="420" y2="420"/><line class="d" x1="480" y1="60" x2="480" y2="420"/><line class="d" x1="540" y1="60" x2="540" y2="420"/><line class="d" x1="600" y1="60" x2="600" y2="420"/><line class="d" x1="660" y1="60" x2="660" y2="420"/><line class="d" x1="60" y1="60" x2="660" y2="60"/><line class="d" x1="60" y1="120" x2="660" y2="120"/><line class="d" x1="60" y1="180" x2="660" y2="180"/><line class="d" x1="60" y1="300" x2="660" y2="300"/><line class="d" x1="60" y1="360" x2="660" y2="360"/><line class="d" x1="60" y1="420" x2="660" y2="420"/></g><path class="f" d="M421,333.426c25.6-22.637,44.557-100.051,79-105.117,15.516-2.191,31.309,9.487,46,13.844,21.956,7.434,39.53.368,61-3.5a115.524,115.524,0,0,1,25-1.7c9.381.373,18.7,1.833,28,3.052"/><path class="f" d="M301,145c18.923-13.68,32.182,20.847,38,34.072,8.48,20.894,15.116,42.61,22,64.065,6.481,20.185,12.837,40.6,21,60.186,5.874,13.046,18.63,44.872,37,31.669"/><path class="f" d="M60,240h0c9.3,1.219,18.619,2.679,28,3.052a115.529,115.529,0,0,0,25-1.7c21.481-3.872,39.05-10.934,61-3.5,7.2,2.3,14.067,5.63,21,8.618,7.833,3.347,16.35,6.515,25,5.226,34.451-5.074,53.392-82.46,79-105.117"/><circle class="g" cx="420" cy="334.228" r="3.5"/><circle class="g" cx="300" cy="145.73" r="3.5"/><g class="h"><line class="i" x1="360" y1="66.035" x2="360" y2="413.965"/><path class="b" d="M360,60a30.231,30.231,0,0,1-4.756,8.547L360,66.827l4.755,1.72A30.2,30.2,0,0,1,360,60Z"/><path class="b" d="M360,420a30.231,30.231,0,0,0-4.756-8.547l4.756,1.72,4.755-1.72A30.2,30.2,0,0,0,360,420Z"/></g><g class="h"><line class="i" x1="653.965" y1="240" x2="66.035" y2="240"/><path class="b" d="M660,240a30.231,30.231,0,0,1-8.547-4.756l1.72,4.756-1.72,4.755A30.2,30.2,0,0,1,660,240Z"/><path class="b" d="M60,240a30.231,30.231,0,0,0,8.547-4.756L66.827,240l1.72,4.755A30.2,30.2,0,0,0,60,240Z"/></g><rect class="j" x="410" y="75" width="200" height="90"/><path class="b" d="M512.4,94.6q-2.3,0-2.3,1.625a1.137,1.137,0,0,0,.049.426,1.5,1.5,0,0,0,.775.862,7.6,7.6,0,0,0,1.7.487,6.748,6.748,0,0,1,1.95.55,3.625,3.625,0,0,1,2.026,2.476,4.879,4.879,0,0,1,.024.6,4.023,4.023,0,0,1-.35,1.725,3.766,3.766,0,0,1-3.674,1.85,3.976,3.976,0,0,1-2.6-.9l-.2.175-.225.225c-.1.1-.2.192-.3.275l-.275.25h-.2a.451.451,0,0,1-.324-.15V103.1q0-1.624.011-1.875c.009-.166.046-.266.114-.3a1.646,1.646,0,0,1,.4-.024.847.847,0,0,1,.388.049.812.812,0,0,1,.137.35,5.775,5.775,0,0,0,.65,1.726A2.784,2.784,0,0,0,512.6,104.3q2.424,0,2.424-1.95a1.59,1.59,0,0,0-.45-1.175,2.178,2.178,0,0,0-1.05-.675c-.284-.066-.683-.158-1.2-.275a8.577,8.577,0,0,1-1.9-.525,3.121,3.121,0,0,1-1.925-2.325,1.822,1.822,0,0,1-.024-.375q0-2.874,3.524-3.224a1.588,1.588,0,0,1,.6,0,3.868,3.868,0,0,1,1.75.375l.375.2.224-.175a6.6,6.6,0,0,1,.55-.425h.2a.452.452,0,0,1,.325.151v3.3l-.15.15h-.7a.43.43,0,0,1-.15-.3,2.336,2.336,0,0,0-.7-1.8A2.721,2.721,0,0,0,512.4,94.6Z"/><path class="b" d="M523.675,104.949a21.6,21.6,0,0,0-2.6-.075,26.674,26.674,0,0,0-2.724.075h-.2V103.8h.4a8.618,8.618,0,0,0,1.225-.075.535.535,0,0,0,.3-.275q.025-.05.026-3.625a34.617,34.617,0,0,0-.1-4q-.2-.5-1.475-.5h-.275v-.575q0-.575.05-.575l.25-.024q.251-.026.7-.051l.9-.05c.284-.016.583-.037.9-.062s.558-.046.725-.063.258-.024.275-.024h.075v9.5a.583.583,0,0,0,.3.312,3.968,3.968,0,0,0,.875.087h.575v1.15Zm-2.9-16.725a1.618,1.618,0,0,1,1.025.437,1.417,1.417,0,0,1,.4,1.063A1.336,1.336,0,0,1,521.525,91a1.361,1.361,0,0,1-.8.225A1.41,1.41,0,0,1,519.9,91a1.337,1.337,0,0,1-.674-1.275,1.416,1.416,0,0,1,.437-1.1A1.586,1.586,0,0,1,520.775,88.224Z"/><path class="b" d="M529.15,103.449q.2.351,1.175.35h.75v1.15h-.2a52.3,52.3,0,0,0-5.6,0h-.2V103.8h.75q.975,0,1.175-.35v-.775q0-.35.013-.787c.008-.292.012-.616.012-.976V99.874q0-.774-.012-1.662T527,96.749v-.575a.833.833,0,0,0-.362-.638,2.964,2.964,0,0,0-1.113-.212h-.45v-.575q0-.575.05-.575l.25-.024q.249-.026.713-.051l.912-.05q.425-.024.9-.062c.317-.025.558-.046.725-.063s.258-.024.275-.024h.075v1a6.707,6.707,0,0,0,.025.949l.025-.025A4.4,4.4,0,0,1,532.85,93.9a2.916,2.916,0,0,1,3.175,2.824q.024.175.025,3.475,0,3.2.025,3.25a.535.535,0,0,0,.3.275,8.618,8.618,0,0,0,1.225.075h.4v1.15h-.2a52.3,52.3,0,0,0-5.6,0H532V103.8h.6q1.324,0,1.325-.4.024-.051.025-3.451-.024-3.375-.05-3.575a2.2,2.2,0,0,0-.562-1.162,1.687,1.687,0,0,0-1.188-.363,2.711,2.711,0,0,0-1.975.85,3.585,3.585,0,0,0-1.025,2.2v.462q0,.438-.012,1.112t-.013,1.275v.787q0,.414.013.739c.008.216.012.412.012.587v.587Z"/><path class="b" d="M546.675,110.974c0,.15-.151.225-.45.225H545.9l-.7-.6q-4.5-4.1-4.5-11.9a20.139,20.139,0,0,1,.725-5.575A13.486,13.486,0,0,1,545.2,86.8c.116-.1.25-.212.4-.337s.25-.213.3-.263h.326a.585.585,0,0,1,.375.076.216.216,0,0,1,.075.149q0,.1-.276.375-3.875,4.1-3.875,11.9t3.875,11.9Q546.675,110.875,546.675,110.974Z"/><path class="b" d="M558.85,104.025a1.137,1.137,0,0,1-.363.8,1.185,1.185,0,0,1-.887.375.931.931,0,0,1-.512-.1,1.1,1.1,0,0,1-.288-.4,7.023,7.023,0,0,1-.475-2.775q0-.9.025-1.2a31.41,31.41,0,0,1,.775-4.175q.124-.5.125-.55H554.8l-.025.1a1.825,1.825,0,0,1-.05.213c-.034.125-.079.308-.137.55s-.113.462-.163.663a70.477,70.477,0,0,1-1.975,7,1.078,1.078,0,0,1-1.075.7.826.826,0,0,1-.8-.425,1.14,1.14,0,0,1-.05-.4v-.276l.325-.7a48.452,48.452,0,0,0,2.725-6.825l.2-.6h-.8a8.645,8.645,0,0,0-1.387.075,2.54,2.54,0,0,0-.938.475,3.609,3.609,0,0,0-1.05,1.025.692.692,0,0,1-.2.238,1.1,1.1,0,0,1-.375.037q-.476,0-.475-.25a1.561,1.561,0,0,1,.25-.5q1.725-2.625,3.375-2.875.174-.05,5.625-.05,4,0,4.1.025a.684.684,0,0,1,.5.7,1.044,1.044,0,0,1-.8,1.049,13.412,13.412,0,0,1-1.725.05h-1.6l-.075.425a18.768,18.768,0,0,0-.3,2.976,10.069,10.069,0,0,0,.775,4.024A2.187,2.187,0,0,1,558.85,104.025Z"/><path class="b" d="M563.774,98a.417.417,0,0,1-.15-.275A4.754,4.754,0,0,1,564.4,96a4.291,4.291,0,0,1,2.951-2.05,4.086,4.086,0,0,1,.524-.049,3.038,3.038,0,0,1,1.613.449,2.7,2.7,0,0,1,1.063,1.125q.324-.425.4-.525a2.768,2.768,0,0,1,2.125-1.049,2.355,2.355,0,0,1,1.663.587,1.879,1.879,0,0,1,.637,1.437,1.96,1.96,0,0,1-.437,1.3,1.437,1.437,0,0,1-1.163.525,1.1,1.1,0,0,1-.775-.275.94.94,0,0,1-.3-.725,1.591,1.591,0,0,1,1.25-1.575,1.032,1.032,0,0,0-.274-.175,1.44,1.44,0,0,0-.726-.15,1.589,1.589,0,0,0-.474.051,2.614,2.614,0,0,0-1.4,1.649q-.075.2-.724,2.788t-.7,2.912a3.893,3.893,0,0,0-.075.75,1.276,1.276,0,0,0,.351.95,1.245,1.245,0,0,0,.925.35,2.577,2.577,0,0,0,1.9-.888,4.606,4.606,0,0,0,1.15-1.962c.05-.166.1-.262.151-.288a1.242,1.242,0,0,1,.4-.037q.476,0,.476.2c0,.017-.018.109-.051.275a5.427,5.427,0,0,1-1.75,2.7,3.94,3.94,0,0,1-2.475.925A2.882,2.882,0,0,1,568,103.65a3.5,3.5,0,0,1-1.85,1.5,3.236,3.236,0,0,1-.65.049,2.179,2.179,0,0,1-2.05-1.025,1.931,1.931,0,0,1-.25-1,1.893,1.893,0,0,1,.45-1.274,1.446,1.446,0,0,1,1.151-.526.939.939,0,0,1,1.074,1.05,1.412,1.412,0,0,1-.875,1.351l-.125.062-.125.063a.2.2,0,0,1-.074.024l-.075.025q0,.075.375.225a1.657,1.657,0,0,0,.649.125,1.846,1.846,0,0,0,1.551-1.125,18.982,18.982,0,0,0,.974-3.25q.15-.575.326-1.274t.262-1.076c.058-.25.1-.4.113-.45a6.14,6.14,0,0,0,.125-.974,1.342,1.342,0,0,0-.326-.951,1.167,1.167,0,0,0-.9-.35,2.609,2.609,0,0,0-1.949.863,4.73,4.73,0,0,0-1.151,1.987c-.033.15-.071.238-.112.263a1.218,1.218,0,0,1-.413.037Z"/><path class="b" d="M578.124,86.224l.1-.025h.549l.7.6q4.5,4.1,4.5,11.9a19.735,19.735,0,0,1-.726,5.55,13.487,13.487,0,0,1-3.774,6.35c-.118.1-.25.213-.4.338s-.25.213-.3.262h-.3a.947.947,0,0,1-.388-.049c-.059-.034-.088-.117-.088-.25.017-.018.108-.125.275-.326q3.875-4.024,3.875-11.875t-3.875-11.875c-.167-.2-.258-.308-.275-.325A.3.3,0,0,1,578.124,86.224Z"/><path class="b" d="M516.075,142.336a.413.413,0,0,1-.15-.274,4.75,4.75,0,0,1,.775-1.726,4.291,4.291,0,0,1,2.949-2.05,4.11,4.11,0,0,1,.526-.049,3.035,3.035,0,0,1,1.612.45,2.7,2.7,0,0,1,1.063,1.125c.216-.283.35-.458.4-.526a2.768,2.768,0,0,1,2.125-1.049,2.358,2.358,0,0,1,1.662.587,1.883,1.883,0,0,1,.638,1.438,1.967,1.967,0,0,1-.438,1.3,1.439,1.439,0,0,1-1.162.524,1.1,1.1,0,0,1-.775-.274.938.938,0,0,1-.3-.726,1.589,1.589,0,0,1,1.25-1.574,1.014,1.014,0,0,0-.275-.176,1.439,1.439,0,0,0-.725-.149,1.621,1.621,0,0,0-.476.05,2.617,2.617,0,0,0-1.4,1.65q-.075.2-.726,2.787t-.7,2.912a3.741,3.741,0,0,0-.075.75,1.279,1.279,0,0,0,.35.95,1.248,1.248,0,0,0,.924.351,2.581,2.581,0,0,0,1.9-.888,4.615,4.615,0,0,0,1.15-1.963c.05-.166.1-.262.15-.287a1.2,1.2,0,0,1,.4-.038c.316,0,.475.068.475.2,0,.017-.017.109-.05.276a5.443,5.443,0,0,1-1.75,2.7,3.948,3.948,0,0,1-2.475.925,2.881,2.881,0,0,1-2.65-1.575,3.5,3.5,0,0,1-1.85,1.5,3.236,3.236,0,0,1-.65.049,2.177,2.177,0,0,1-2.05-1.024,1.933,1.933,0,0,1-.25-1,1.886,1.886,0,0,1,.45-1.275,1.447,1.447,0,0,1,1.15-.526.94.94,0,0,1,1.075,1.051,1.413,1.413,0,0,1-.875,1.35l-.125.062-.125.063a.206.206,0,0,1-.075.025l-.076.024q0,.075.375.226a1.685,1.685,0,0,0,.651.125,1.848,1.848,0,0,0,1.55-1.125,19.006,19.006,0,0,0,.975-3.25q.15-.576.324-1.275t.263-1.076c.059-.25.1-.4.112-.45a6,6,0,0,0,.125-.974,1.346,1.346,0,0,0-.324-.951,1.169,1.169,0,0,0-.9-.349,2.609,2.609,0,0,0-1.95.862,4.734,4.734,0,0,0-1.15,1.987c-.034.151-.071.238-.113.263a1.206,1.206,0,0,1-.412.037Z"/><path class="b" d="M530.527,134.709a.815.815,0,0,1-.64-.262.93.93,0,0,1-.234-.642,2.393,2.393,0,0,1,.794-1.8,2.678,2.678,0,0,1,1.9-.751,3.164,3.164,0,0,1,2.077.678,2.842,2.842,0,0,1,1.012,1.771,4.258,4.258,0,0,1,.03.481,2.758,2.758,0,0,1-.51,1.589,9.661,9.661,0,0,1-1.647,1.676q-.525.451-1.458,1.34l-.86.817,1.108.014a17.722,17.722,0,0,0,2.434-.072c.038-.01.087-.112.146-.307a9.324,9.324,0,0,0,.2-.991v-.044h.583v.044l-.408,2.667v.044h-5.408v-.276a.962.962,0,0,1,.03-.336q.014-.013,1.224-1.384,1.588-1.764,2.04-2.332a4.23,4.23,0,0,0,.977-2.434,2.552,2.552,0,0,0-.5-1.611,1.678,1.678,0,0,0-1.406-.648,1.6,1.6,0,0,0-1.37.758c-.02.039-.049.092-.088.16a.283.283,0,0,0-.043.088c0,.009.023.014.072.014a.744.744,0,0,1,.591.262.912.912,0,0,1,.225.612.87.87,0,0,1-.24.619A.829.829,0,0,1,530.527,134.709Z"/><path class="b" d="M544.562,143.036a.548.548,0,0,1,.35-.5h14.526a.521.521,0,0,1,0,1H544.912A.544.544,0,0,1,544.562,143.036Z"/><path class="b" d="M578.562,149.286q-.426-.074-3.975-.075-3.5,0-3.925.075h-.3v-1.149h.65a14.075,14.075,0,0,0,1.875-.075,1.6,1.6,0,0,0,.6-.3V134.836a.623.623,0,0,0-.2.075,7.381,7.381,0,0,1-2.575.476h-.475v-1.15h.475a6.97,6.97,0,0,0,3.5-.951,3.425,3.425,0,0,0,.775-.575c.034-.05.133-.074.3-.074a.635.635,0,0,1,.425.149v7.476l.025,7.5a2.419,2.419,0,0,0,1.625.375h1.475v1.149Z"/><path class="k" d="M430.95,130.168c.449.1.692.151.725.151q.575,0,1-1.051.3-.825,1.825-8.9.7-3.774.725-3.8v-.076H434.05a6.848,6.848,0,0,1-1.25-.049c-.117-.067-.134-.25-.05-.551a2.118,2.118,0,0,1,.125-.4.225.225,0,0,1,.212-.137c.108-.008.5-.013,1.163-.013a11.273,11.273,0,0,0,1.2-.024c0-.034.074-.451.225-1.25s.25-1.284.3-1.451a6.092,6.092,0,0,1,1.575-3.3,3.224,3.224,0,0,1,2.075-.826,2.557,2.557,0,0,1,1.513.55,1.628,1.628,0,0,1,.612,1.325,1.763,1.763,0,0,1-.45,1.225,1.448,1.448,0,0,1-1.125.5q-1.1,0-1.1-1.05a1.41,1.41,0,0,1,.875-1.349l.225-.125a2.443,2.443,0,0,0-.75-.151q-.726,0-.95.95-.2.75-.65,3.275l-.325,1.65a7.17,7.17,0,0,0,1.375.05q1.125,0,1.35.025c.15.017.225.076.225.175a2.744,2.744,0,0,1-.176.8.243.243,0,0,1-.237.138c-.125.009-.571.012-1.337.012h-1.4l-.575,3.05q-.926,4.776-1.15,5.776-.851,3.772-2.275,5.125a2.819,2.819,0,0,1-1.825.8,2.266,2.266,0,0,1-1.5-.5,1.64,1.64,0,0,1-.6-1.325,1.838,1.838,0,0,1,.45-1.262,1.435,1.435,0,0,1,1.125-.513q1.1,0,1.1,1.051a1.411,1.411,0,0,1-.875,1.349Z"/><path class="b" d="M448.575,132.143q0,.225-.45.225H447.8c-.117-.1-.35-.3-.7-.6q-4.5-4.1-4.5-11.9a20.139,20.139,0,0,1,.725-5.575,13.486,13.486,0,0,1,3.775-6.325c.116-.1.25-.212.4-.337s.25-.213.3-.263h.325a.585.585,0,0,1,.375.076.212.212,0,0,1,.075.149q0,.1-.275.375-3.876,4.1-3.875,11.9t3.875,11.9Q448.575,132.043,448.575,132.143Z"/><path class="b" d="M451.425,119.168a.411.411,0,0,1-.151-.275,4.777,4.777,0,0,1,.776-1.725,4.286,4.286,0,0,1,2.949-2.05,4.083,4.083,0,0,1,.525-.049,3.038,3.038,0,0,1,1.613.449,2.7,2.7,0,0,1,1.062,1.125q.325-.424.4-.525a2.768,2.768,0,0,1,2.125-1.049,2.356,2.356,0,0,1,1.662.587,1.879,1.879,0,0,1,.637,1.437,1.965,1.965,0,0,1-.437,1.3,1.439,1.439,0,0,1-1.162.525,1.106,1.106,0,0,1-.776-.275.936.936,0,0,1-.3-.725,1.59,1.59,0,0,1,1.25-1.575,1,1,0,0,0-.276-.175,1.434,1.434,0,0,0-.724-.15,1.613,1.613,0,0,0-.476.051,2.612,2.612,0,0,0-1.4,1.649q-.075.2-.726,2.788t-.7,2.912a3.741,3.741,0,0,0-.075.75,1.282,1.282,0,0,0,.349.95,1.249,1.249,0,0,0,.925.35,2.579,2.579,0,0,0,1.9-.888,4.6,4.6,0,0,0,1.151-1.962c.05-.167.1-.262.149-.288a1.258,1.258,0,0,1,.4-.037q.474,0,.474.2c0,.017-.016.109-.05.275a5.438,5.438,0,0,1-1.75,2.7,3.939,3.939,0,0,1-2.474.925,2.882,2.882,0,0,1-2.651-1.574,3.5,3.5,0,0,1-1.849,1.5,3.247,3.247,0,0,1-.651.049,2.177,2.177,0,0,1-2.049-1.025,1.931,1.931,0,0,1-.25-1,1.883,1.883,0,0,1,.45-1.274,1.442,1.442,0,0,1,1.149-.526.939.939,0,0,1,1.075,1.05,1.414,1.414,0,0,1-.875,1.351l-.125.062-.125.063a.194.194,0,0,1-.075.024l-.075.025q0,.075.375.225a1.662,1.662,0,0,0,.65.125,1.845,1.845,0,0,0,1.55-1.125,18.8,18.8,0,0,0,.976-3.25c.1-.383.208-.808.324-1.274s.2-.826.263-1.076.1-.4.112-.45a6.022,6.022,0,0,0,.125-.974,1.346,1.346,0,0,0-.324-.951,1.172,1.172,0,0,0-.9-.35,2.611,2.611,0,0,0-1.95.863,4.726,4.726,0,0,0-1.149,1.987c-.034.15-.071.238-.113.263a1.21,1.21,0,0,1-.413.037Z"/><path class="b" d="M465.774,107.393l.1-.025h.551l.7.6q4.5,4.1,4.5,11.9a19.7,19.7,0,0,1-.725,5.55,13.481,13.481,0,0,1-3.775,6.35c-.116.1-.25.213-.4.338s-.25.213-.3.262h-.3a.948.948,0,0,1-.387-.049c-.058-.035-.088-.118-.088-.25.017-.018.109-.125.276-.326q3.874-4.024,3.875-11.875t-3.875-11.875q-.251-.3-.276-.325A.294.294,0,0,1,465.774,107.393Z"/><path class="b" d="M475.4,117.444a.544.544,0,0,1,.35-.5h15.925a.546.546,0,0,1,.375.5.565.565,0,0,1-.35.474l-7.95.026H475.8A.5.5,0,0,1,475.4,117.444Zm0,4.849a.5.5,0,0,1,.4-.5h15.9a1.053,1.053,0,0,0,.113.088,1.007,1.007,0,0,1,.125.1.419.419,0,0,1,.075.125.487.487,0,0,1,.037.187.546.546,0,0,1-.375.5H475.749A.544.544,0,0,1,475.4,122.293Z"/><rect class="b" x="502" y="119.25" width="90" height="1.5" rx="0.75"/></svg>