<svg xmlns="http://www.w3.org/2000/svg" width="720" height="520" viewBox="0 0 720 520"><defs><style>.a{isolation:isolate;}.b{fill:#fff;}.c{opacity:0.15;}.d,.g,.h{fill:none;stroke-miterlimit:40;}.d{stroke:#fff;}.e{opacity:0.25;}.f{opacity:0.4;}.g{stroke:#58c4dd;}.g,.h{stroke-width:1.5px;}.h{stroke:#fff933;}.i{fill:#58c4dd;}.j{fill:#fff933;}</style></defs><rect width="720" height="520"/><g class="a"><path class="b" d="M49.862,485.525V483.7h6.65v1.825Z"/><path class="b" d="M61.087,478.425A1.369,1.369,0,0,1,60.024,478a1.57,1.57,0,0,1-.387-1.1,3.017,3.017,0,0,1,1.125-2.387,4.779,4.779,0,0,1,2.6-1.138h.375c.583,0,.95.009,1.1.025a6.051,6.051,0,0,1,1.675.525,3.723,3.723,0,0,1,2.075,2.35,2.431,2.431,0,0,1,.075.675,4.162,4.162,0,0,1-.912,2.638,5.063,5.063,0,0,1-2.288,1.662c-.084.033-.084.059,0,.075a1.556,1.556,0,0,0,.25.075,5.336,5.336,0,0,1,2.575,1.587,3.832,3.832,0,0,1,1.05,2.638,4.356,4.356,0,0,1-.475,1.975,4.958,4.958,0,0,1-1.963,2.113,5.684,5.684,0,0,1-3.037.837,5.986,5.986,0,0,1-2.925-.7,3.6,3.6,0,0,1-1.725-1.875,2.815,2.815,0,0,1-.25-1.225,1.494,1.494,0,0,1,.463-1.138,1.664,1.664,0,0,1,2.262.013,1.526,1.526,0,0,1,.45,1.125,1.6,1.6,0,0,1-.325,1,1.475,1.475,0,0,1-.875.55l-.175.05a4.7,4.7,0,0,0,3.1,1.125,2.233,2.233,0,0,0,2.075-1.325,5.747,5.747,0,0,0,.425-2.525v-.5a3.2,3.2,0,0,0-1.6-3.175,5.253,5.253,0,0,0-1.525-.175l-1.05-.025-.075-.05a.934.934,0,0,1-.05-.4.593.593,0,0,1,.075-.375.206.206,0,0,1,.125-.075,8.744,8.744,0,0,0,1.45-.125,2.166,2.166,0,0,0,1.675-1.238,5.509,5.509,0,0,0,.575-2.612,2.377,2.377,0,0,0-.875-2.175,2.075,2.075,0,0,0-1.175-.35,3.7,3.7,0,0,0-2.2.675,1.063,1.063,0,0,0-.225.163,1.52,1.52,0,0,0-.2.212l-.075.1c.05.017.108.033.175.05a1.2,1.2,0,0,1,.838.475,1.526,1.526,0,0,1,.337.975,1.376,1.376,0,0,1-.413,1.013A1.438,1.438,0,0,1,61.087,478.425Z"/></g><g class="a"><path class="b" d="M149.862,485.525V483.7h6.65v1.825Z"/><path class="b" d="M160.662,479.275a1.4,1.4,0,0,1-1.1-.45,1.6,1.6,0,0,1-.4-1.1,4.1,4.1,0,0,1,1.362-3.087,4.585,4.585,0,0,1,3.263-1.288,5.418,5.418,0,0,1,3.563,1.163,4.88,4.88,0,0,1,1.737,3.037,7.6,7.6,0,0,1,.05.825,4.731,4.731,0,0,1-.875,2.725,16.569,16.569,0,0,1-2.825,2.875q-.9.775-2.5,2.3l-1.475,1.4,1.9.025a30.074,30.074,0,0,0,4.175-.125q.1-.024.25-.525a15.75,15.75,0,0,0,.35-1.7v-.075h1v.075l-.7,4.575V490h-9.275v-.475a1.69,1.69,0,0,1,.05-.575q.026-.024,2.1-2.375,2.724-3.024,3.5-4a7.244,7.244,0,0,0,1.675-4.175,4.37,4.37,0,0,0-.862-2.762,2.879,2.879,0,0,0-2.413-1.113,2.744,2.744,0,0,0-2.35,1.3c-.033.067-.084.158-.15.275a.553.553,0,0,0-.075.15c0,.017.042.025.125.025a1.27,1.27,0,0,1,1.012.45,1.557,1.557,0,0,1,.388,1.05,1.5,1.5,0,0,1-.412,1.063A1.428,1.428,0,0,1,160.662,479.275Z"/></g><g class="a"><path class="b" d="M249.862,485.525V483.7h6.65v1.825Z"/><path class="b" d="M268.312,490q-.426-.075-3.975-.075-3.5,0-3.925.075h-.3v-1.15h.65a14.075,14.075,0,0,0,1.875-.075,1.609,1.609,0,0,0,.6-.3V475.55a.606.606,0,0,0-.2.075,7.358,7.358,0,0,1-2.575.475h-.475v-1.15h.475a6.97,6.97,0,0,0,3.5-.95,3.425,3.425,0,0,0,.775-.575c.034-.05.133-.075.3-.075a.631.631,0,0,1,.425.15v7.475l.025,7.5a2.419,2.419,0,0,0,1.625.375h1.475V490Z"/></g><g class="a"><path class="b" d="M356.15,475.375a4.41,4.41,0,0,1,3.825-2.025,4.613,4.613,0,0,1,3.2,1.25,5.439,5.439,0,0,1,1.15,1.7,14.317,14.317,0,0,1,.925,5.7,13.043,13.043,0,0,1-1.075,5.925,4.331,4.331,0,0,1-2.05,2.1,4.707,4.707,0,0,1-2.125.525,4.4,4.4,0,0,1-4.2-2.625A13.043,13.043,0,0,1,354.725,482a19.438,19.438,0,0,1,.313-3.838A8.373,8.373,0,0,1,356.15,475.375Zm5.625-.3a2.306,2.306,0,0,0-1.775-.8,2.382,2.382,0,0,0-1.8.8,3.006,3.006,0,0,0-.75,1.4,15.352,15.352,0,0,0-.25,2.85q0,.15-.012.975t-.013,1.375q0,2.4.05,3.35a14.345,14.345,0,0,0,.3,2.512,2.837,2.837,0,0,0,.75,1.313,2.217,2.217,0,0,0,1.725.75,2.189,2.189,0,0,0,1.7-.75,2.854,2.854,0,0,0,.75-1.313,14.247,14.247,0,0,0,.3-2.512q.05-.949.05-3.35,0-.549-.013-1.375t-.012-.975a15.532,15.532,0,0,0-.25-2.85A3.006,3.006,0,0,0,361.775,475.075Z"/></g><g class="a"><path class="b" d="M464.15,490q-.426-.075-3.975-.075-3.5,0-3.925.075h-.3v-1.15h.65a14.1,14.1,0,0,0,1.875-.075,1.609,1.609,0,0,0,.6-.3V475.55a.6.6,0,0,0-.2.075,7.363,7.363,0,0,1-2.575.475h-.475v-1.15h.475a6.97,6.97,0,0,0,3.5-.95,3.448,3.448,0,0,0,.775-.575q.05-.075.3-.075a.631.631,0,0,1,.425.15v7.475l.025,7.5a2.419,2.419,0,0,0,1.625.375h1.475V490Z"/></g><g class="a"><path class="b" d="M556.5,479.275a1.4,1.4,0,0,1-1.1-.45,1.6,1.6,0,0,1-.4-1.1,4.1,4.1,0,0,1,1.362-3.087,4.583,4.583,0,0,1,3.263-1.288,5.416,5.416,0,0,1,3.563,1.163,4.88,4.88,0,0,1,1.737,3.037,7.6,7.6,0,0,1,.05.825,4.723,4.723,0,0,1-.875,2.725,16.607,16.607,0,0,1-2.825,2.875q-.9.775-2.5,2.3l-1.475,1.4,1.9.025a30.085,30.085,0,0,0,4.175-.125c.066-.016.15-.191.25-.525a15.75,15.75,0,0,0,.35-1.7v-.075h1v.075l-.7,4.575V490H555v-.475a1.69,1.69,0,0,1,.05-.575q.024-.024,2.1-2.375,2.726-3.024,3.5-4a7.244,7.244,0,0,0,1.675-4.175,4.376,4.376,0,0,0-.862-2.762,2.879,2.879,0,0,0-2.413-1.113,2.744,2.744,0,0,0-2.35,1.3c-.034.067-.084.158-.15.275a.553.553,0,0,0-.075.15c0,.017.042.025.125.025a1.27,1.27,0,0,1,1.012.45,1.557,1.557,0,0,1,.388,1.05,1.5,1.5,0,0,1-.412,1.063A1.43,1.43,0,0,1,556.5,479.275Z"/></g><g class="a"><path class="b" d="M656.925,478.425a1.369,1.369,0,0,1-1.063-.425,1.57,1.57,0,0,1-.387-1.1,3.017,3.017,0,0,1,1.125-2.387,4.782,4.782,0,0,1,2.6-1.138h.375c.583,0,.95.009,1.1.025a6.051,6.051,0,0,1,1.675.525,3.723,3.723,0,0,1,2.075,2.35,2.431,2.431,0,0,1,.075.675,4.168,4.168,0,0,1-.912,2.638,5.057,5.057,0,0,1-2.288,1.662c-.083.033-.083.059,0,.075a1.52,1.52,0,0,0,.25.075,5.341,5.341,0,0,1,2.575,1.587,3.832,3.832,0,0,1,1.05,2.638,4.356,4.356,0,0,1-.475,1.975,4.958,4.958,0,0,1-1.963,2.113,5.687,5.687,0,0,1-3.037.837,5.986,5.986,0,0,1-2.925-.7,3.6,3.6,0,0,1-1.725-1.875,2.815,2.815,0,0,1-.25-1.225,1.494,1.494,0,0,1,.463-1.138,1.664,1.664,0,0,1,2.262.013,1.526,1.526,0,0,1,.45,1.125,1.6,1.6,0,0,1-.325,1,1.472,1.472,0,0,1-.875.55l-.175.05a4.7,4.7,0,0,0,3.1,1.125,2.232,2.232,0,0,0,2.075-1.325,5.732,5.732,0,0,0,.425-2.525v-.5a3.2,3.2,0,0,0-1.6-3.175,5.247,5.247,0,0,0-1.525-.175l-1.05-.025-.075-.05a.917.917,0,0,1-.05-.4.593.593,0,0,1,.075-.375.2.2,0,0,1,.125-.075,8.753,8.753,0,0,0,1.45-.125,2.164,2.164,0,0,0,1.675-1.238,5.52,5.52,0,0,0,.575-2.612,2.377,2.377,0,0,0-.875-2.175,2.072,2.072,0,0,0-1.175-.35,3.7,3.7,0,0,0-2.2.675,1.039,1.039,0,0,0-.225.163,1.52,1.52,0,0,0-.2.212l-.075.1c.05.017.108.033.175.05a1.19,1.19,0,0,1,.837.475,1.527,1.527,0,0,1,.338.975,1.376,1.376,0,0,1-.413,1.013A1.439,1.439,0,0,1,656.925,478.425Z"/></g><g class="a"><path class="b" d="M26.5,49.275a1.4,1.4,0,0,1-1.1-.45,1.6,1.6,0,0,1-.4-1.1,4.1,4.1,0,0,1,1.362-3.087,4.583,4.583,0,0,1,3.263-1.288,5.418,5.418,0,0,1,3.563,1.163,4.88,4.88,0,0,1,1.737,3.037,7.6,7.6,0,0,1,.05.825A4.731,4.731,0,0,1,34.1,51.1a16.607,16.607,0,0,1-2.825,2.875q-.9.775-2.5,2.3l-1.475,1.4,1.9.025a30.085,30.085,0,0,0,4.175-.125c.066-.016.15-.191.25-.525a16.025,16.025,0,0,0,.35-1.7v-.075h1v.075l-.7,4.575V60H25v-.475a1.69,1.69,0,0,1,.05-.575q.024-.024,2.1-2.375,2.724-3.024,3.5-4A7.244,7.244,0,0,0,32.325,48.4a4.365,4.365,0,0,0-.863-2.762,2.876,2.876,0,0,0-2.412-1.113,2.744,2.744,0,0,0-2.35,1.3c-.033.067-.084.158-.15.275a.553.553,0,0,0-.075.15c0,.017.042.025.125.025a1.27,1.27,0,0,1,1.012.45A1.557,1.557,0,0,1,28,47.775a1.5,1.5,0,0,1-.413,1.063A1.426,1.426,0,0,1,26.5,49.275Z"/></g><g class="a"><path class="b" d="M34.15,160q-.426-.075-3.975-.075-3.5,0-3.925.075h-.3v-1.15h.65a14.1,14.1,0,0,0,1.875-.075,1.616,1.616,0,0,0,.6-.3V145.55a.606.606,0,0,0-.2.075,7.363,7.363,0,0,1-2.575.475h-.475v-1.15H26.3a6.97,6.97,0,0,0,3.5-.95,3.448,3.448,0,0,0,.775-.575q.05-.075.3-.075a.631.631,0,0,1,.425.15v7.475l.025,7.5a2.419,2.419,0,0,0,1.625.375h1.475V160Z"/></g><g class="a"><path class="b" d="M26.15,245.375a4.41,4.41,0,0,1,3.825-2.025,4.613,4.613,0,0,1,3.2,1.25,5.439,5.439,0,0,1,1.15,1.7,14.317,14.317,0,0,1,.925,5.7,13.043,13.043,0,0,1-1.075,5.925,4.331,4.331,0,0,1-2.05,2.1A4.71,4.71,0,0,1,30,260.55a4.4,4.4,0,0,1-4.2-2.625A13.043,13.043,0,0,1,24.725,252a19.438,19.438,0,0,1,.313-3.838A8.373,8.373,0,0,1,26.15,245.375Zm5.625-.3a2.3,2.3,0,0,0-1.775-.8,2.382,2.382,0,0,0-1.8.8,3.006,3.006,0,0,0-.75,1.4,15.352,15.352,0,0,0-.25,2.85q0,.15-.012.975t-.013,1.375q0,2.4.05,3.35a14.345,14.345,0,0,0,.3,2.512,2.837,2.837,0,0,0,.75,1.313A2.217,2.217,0,0,0,30,259.6a2.19,2.19,0,0,0,1.7-.75,2.854,2.854,0,0,0,.75-1.313,14.345,14.345,0,0,0,.3-2.512q.05-.95.05-3.35,0-.549-.012-1.375t-.013-.975a15.532,15.532,0,0,0-.25-2.85A3.006,3.006,0,0,0,31.775,245.075Z"/></g><g class="a"><path class="b" d="M19.862,355.525V353.7h6.65v1.825Z"/><path class="b" d="M38.312,360q-.426-.075-3.975-.075-3.5,0-3.925.075h-.3v-1.15h.65a14.075,14.075,0,0,0,1.875-.075,1.609,1.609,0,0,0,.6-.3V345.55a.606.606,0,0,0-.2.075,7.358,7.358,0,0,1-2.575.475h-.475v-1.15h.475a6.97,6.97,0,0,0,3.5-.95,3.425,3.425,0,0,0,.775-.575c.034-.05.133-.075.3-.075a.631.631,0,0,1,.425.15v7.475l.025,7.5a2.419,2.419,0,0,0,1.625.375h1.475V360Z"/></g><g class="a"><path class="b" d="M19.862,455.525V453.7h6.65v1.825Z"/><path class="b" d="M30.662,449.275a1.4,1.4,0,0,1-1.1-.45,1.6,1.6,0,0,1-.4-1.1,4.1,4.1,0,0,1,1.362-3.087,4.585,4.585,0,0,1,3.263-1.288,5.418,5.418,0,0,1,3.563,1.163,4.88,4.88,0,0,1,1.737,3.037,7.6,7.6,0,0,1,.05.825,4.731,4.731,0,0,1-.875,2.725,16.569,16.569,0,0,1-2.825,2.875q-.9.775-2.5,2.3l-1.475,1.4,1.9.025a30.074,30.074,0,0,0,4.175-.125q.1-.024.25-.525a15.75,15.75,0,0,0,.35-1.7v-.075h1v.075l-.7,4.575V460H29.162v-.475a1.69,1.69,0,0,1,.05-.575q.025-.024,2.1-2.375,2.724-3.024,3.5-4a7.244,7.244,0,0,0,1.675-4.175,4.37,4.37,0,0,0-.862-2.762,2.879,2.879,0,0,0-2.413-1.113,2.744,2.744,0,0,0-2.35,1.3c-.033.067-.084.158-.15.275a.553.553,0,0,0-.075.15c0,.017.042.025.125.025a1.27,1.27,0,0,1,1.012.45,1.557,1.557,0,0,1,.388,1.05,1.5,1.5,0,0,1-.412,1.063A1.428,1.428,0,0,1,30.662,449.275Z"/></g><g class="c"><line class="d" x1="70" y1="60" x2="70" y2="460"/><line class="d" x1="80" y1="60" x2="80" y2="460"/><line class="d" x1="90" y1="60" x2="90" y2="460"/><line class="d" x1="100" y1="60" x2="100" y2="460"/><line class="d" x1="120" y1="60" x2="120" y2="460"/><line class="d" x1="130" y1="60" x2="130" y2="460"/><line class="d" x1="140" y1="60" x2="140" y2="460"/><line class="d" x1="150" y1="60" x2="150" y2="460"/><line class="d" x1="170" y1="60" x2="170" y2="460"/><line class="d" x1="180" y1="60" x2="180" y2="460"/><line class="d" x1="190" y1="60" x2="190" y2="460"/><line class="d" x1="200" y1="60" x2="200" y2="460"/><line class="d" x1="220" y1="60" x2="220" y2="460"/><line class="d" x1="230" y1="60" x2="230" y2="460"/><line class="d" x1="240" y1="60" x2="240" y2="460"/><line class="d" x1="250" y1="60" x2="250" y2="460"/><line class="d" x1="270" y1="60" x2="270" y2="460"/><line class="d" x1="280" y1="60" x2="280" y2="460"/><line class="d" x1="290" y1="60" x2="290" y2="460"/><line class="d" x1="300" y1="60" x2="300" y2="460"/><line class="d" x1="320" y1="60" x2="320" y2="460"/><line class="d" x1="330" y1="60" x2="330" y2="460"/><line class="d" x1="340" y1="60" x2="340" y2="460"/><line class="d" x1="350" y1="60" x2="350" y2="460"/><line class="d" x1="370" y1="60" x2="370" y2="460"/><line class="d" x1="380" y1="60" x2="380" y2="460"/><line class="d" x1="390" y1="60" x2="390" y2="460"/><line class="d" x1="400" y1="60" x2="400" y2="460"/><line class="d" x1="420" y1="60" x2="420" y2="460"/><line class="d" x1="430" y1="60" x2="430" y2="460"/><line class="d" x1="440" y1="60" x2="440" y2="460"/><line class="d" x1="450" y1="60" x2="450" y2="460"/><line class="d" x1="470" y1="60" x2="470" y2="460"/><line class="d" x1="480" y1="60" x2="480" y2="460"/><line class="d" x1="490" y1="60" x2="490" y2="460"/><line class="d" x1="500" y1="60" x2="500" y2="460"/><line class="d" x1="520" y1="60" x2="520" y2="460"/><line class="d" x1="530" y1="60" x2="530" y2="460"/><line class="d" x1="540" y1="60" x2="540" y2="460"/><line class="d" x1="550" y1="60" x2="550" y2="460"/><line class="d" x1="570" y1="60" x2="570" y2="460"/><line class="d" x1="580" y1="60" x2="580" y2="460"/><line class="d" x1="590" y1="60" x2="590" y2="460"/><line class="d" x1="600" y1="60" x2="600" y2="460"/><line class="d" x1="620" y1="60" x2="620" y2="460"/><line class="d" x1="630" y1="60" x2="630" y2="460"/><line class="d" x1="640" y1="60" x2="640" y2="460"/><line class="d" x1="650" y1="60" x2="650" y2="460"/><line class="d" x1="60" y1="70" x2="660" y2="70"/><line class="d" x1="60" y1="80" x2="660" y2="80"/><line class="d" x1="60" y1="90" x2="660" y2="90"/><line class="d" x1="60" y1="100" x2="660" y2="100"/><line class="d" x1="60" y1="120" x2="660" y2="120"/><line class="d" x1="60" y1="130" x2="660" y2="130"/><line class="d" x1="60" y1="140" x2="660" y2="140"/><line class="d" x1="60" y1="150" x2="660" y2="150"/><line class="d" x1="60" y1="170" x2="660" y2="170"/><line class="d" x1="60" y1="180" x2="660" y2="180"/><line class="d" x1="60" y1="190" x2="660" y2="190"/><line class="d" x1="60" y1="200" x2="660" y2="200"/><line class="d" x1="60" y1="220" x2="660" y2="220"/><line class="d" x1="60" y1="230" x2="660" y2="230"/><line class="d" x1="60" y1="240" x2="660" y2="240"/><line class="d" x1="60" y1="250" x2="660" y2="250"/><line class="d" x1="60" y1="270" x2="660" y2="270"/><line class="d" x1="60" y1="280" x2="660" y2="280"/><line class="d" x1="60" y1="290" x2="660" y2="290"/><line class="d" x1="60" y1="300" x2="660" y2="300"/><line class="d" x1="60" y1="320" x2="660" y2="320"/><line class="d" x1="60" y1="330" x2="660" y2="330"/><line class="d" x1="60" y1="340" x2="660" y2="340"/><line class="d" x1="60" y1="350" x2="660" y2="350"/><line class="d" x1="60" y1="370" x2="660" y2="370"/><line class="d" x1="60" y1="380" x2="660" y2="380"/><line class="d" x1="60" y1="390" x2="660" y2="390"/><line class="d" x1="60" y1="400" x2="660" y2="400"/><line class="d" x1="60" y1="420" x2="660" y2="420"/><line class="d" x1="60" y1="430" x2="660" y2="430"/><line class="d" x1="60" y1="440" x2="660" y2="440"/><line class="d" x1="60" y1="450" x2="660" y2="450"/></g><g class="e"><line class="d" x1="110" y1="60" x2="110" y2="460"/><line class="d" x1="210" y1="60" x2="210" y2="460"/><line class="d" x1="310" y1="60" x2="310" y2="460"/><line class="d" x1="410" y1="60" x2="410" y2="460"/><line class="d" x1="510" y1="60" x2="510" y2="460"/><line class="d" x1="610" y1="60" x2="610" y2="460"/><line class="d" x1="60" y1="110" x2="660" y2="110"/><line class="d" x1="60" y1="210" x2="660" y2="210"/><line class="d" x1="60" y1="310" x2="660" y2="310"/><line class="d" x1="60" y1="410" x2="660" y2="410"/></g><g class="f"><line class="d" x1="60" y1="60" x2="60" y2="460"/><line class="d" x1="160" y1="60" x2="160" y2="460"/><line class="d" x1="260" y1="60" x2="260" y2="460"/><line class="d" x1="360" y1="60" x2="360" y2="460"/><line class="d" x1="460" y1="60" x2="460" y2="460"/><line class="d" x1="560" y1="60" x2="560" y2="460"/><line class="d" x1="660" y1="60" x2="660" y2="460"/><line class="d" x1="60" y1="60" x2="660" y2="60"/><line class="d" x1="60" y1="160" x2="660" y2="160"/><line class="d" x1="60" y1="260" x2="660" y2="260"/><line class="d" x1="60" y1="360" x2="660" y2="360"/><line class="d" x1="60" y1="460" x2="660" y2="460"/></g><line class="d" x1="360" y1="66.035" x2="360" y2="453.965"/><path class="b" d="M360,60a30.231,30.231,0,0,1-4.756,8.547L360,66.827l4.755,1.72A30.2,30.2,0,0,1,360,60Z"/><path class="b" d="M360,460a30.231,30.231,0,0,0-4.756-8.547l4.756,1.72,4.755-1.72A30.2,30.2,0,0,0,360,460Z"/><line class="d" x1="66.035" y1="260" x2="653.965" y2="260"/><path class="b" d="M60,260a30.231,30.231,0,0,1,8.547,4.756L66.827,260l1.72-4.755A30.2,30.2,0,0,1,60,260Z"/><path class="b" d="M660,260a30.231,30.231,0,0,0-8.547,4.756l1.72-4.756-1.72-4.755A30.2,30.2,0,0,0,660,260Z"/><path class="g" d="M60,260h0c5.423,16.987,10.834,34.169,17,50.9,5.206,13.268,15.884,44.017,30,48.652,15.8,4.531,28.174-29.324,33-40.777,7.116-18.214,13.044-37.022,19-55.638,5.462-17.111,10.885-34.425,17-51.316,4.789-12.938,9.787-26.087,17-37.9,17.465-28.515,31.379-7.439,41,13.177,9.33,20.469,16.072,42.119,23,63.486,6.453,20.122,12.7,40.478,20,60.315,5.421,14.1,10.789,28.741,20,40.872,48.458,61.41,77.54-244.958,126-183.551,9.211,12.13,14.579,26.774,20,40.871,7.3,19.837,13.548,40.193,20,60.315,6.928,21.367,13.67,43.017,23,63.486,9.54,20.427,23.473,41.8,41,13.177,7.212-11.812,12.212-24.961,17-37.9,6.113-16.891,11.541-34.2,17-51.316,5.955-18.616,11.886-37.425,19-55.638,4.917-11.647,17.2-45.281,33-40.777,14.16,4.652,24.781,35.413,30,48.652,6.163,16.735,11.581,33.917,17,50.9"/><path class="h" d="M186.8,60Q193.637,83.678,201,107.19c12.611,39.987,26.439,79.712,43,118.25,12.67,29.176,26.749,58.013,45,84.15,53.551,76.276,104.078,60.781,150-12,14.87-23.6,27.011-48.873,38-74.48,13.973-32.762,25.985-66.408,37-100.27Q524.1,91.573,533.2,60"/><rect x="320" y="110" width="180" height="40"/><path class="i" d="M331.851,139.775a1.068,1.068,0,0,1,.75.275.939.939,0,0,1,.3.725,1.526,1.526,0,0,1-.5,1.15c-.116.117-.158.175-.125.175a8.067,8.067,0,0,0,1.5.075,3.147,3.147,0,0,0,1.5-.3,3.442,3.442,0,0,0,1.076-.837,3.358,3.358,0,0,0,.7-1.163q.15-.476.4-1.55a9.921,9.921,0,0,0,.324-1.4,4.969,4.969,0,0,1-2,1.025,3.822,3.822,0,0,1-.625.05,3.141,3.141,0,0,1-2.562-1.138A4.349,4.349,0,0,1,331.65,134a6.687,6.687,0,0,1,.725-3.025,7.216,7.216,0,0,1,3.3-3.475,5.067,5.067,0,0,1,2.176-.55,2.892,2.892,0,0,1,2.174,1.2.749.749,0,0,0,.1-.125,1.151,1.151,0,0,1,1.05-.575.9.9,0,0,1,.575.2.616.616,0,0,1,.25.5q0,.375-1.424,6.05t-1.5,5.8a4.278,4.278,0,0,1-1.963,2.237,6.387,6.387,0,0,1-3.338.888q-2.874,0-3.4-1.1a1.239,1.239,0,0,1-.125-.6,1.663,1.663,0,0,1,.451-1.15A1.474,1.474,0,0,1,331.851,139.775Zm7.75-9.975a5.938,5.938,0,0,0-.388-1,1.9,1.9,0,0,0-.588-.637,1.622,1.622,0,0,0-.975-.288,1.509,1.509,0,0,0-.162.013c-.075.008-.121.012-.137.012a3.189,3.189,0,0,0-1.826,1.3,10.19,10.19,0,0,0-1.324,3.375,11.573,11.573,0,0,0-.426,2.5q0,1.976,1.551,1.975a3.611,3.611,0,0,0,2.75-1.75l.2-.25Q339.175,131.551,339.6,129.8Z"/><path class="b" d="M350.25,144.025q0,.225-.45.225h-.325l-.7-.6q-4.5-4.1-4.5-11.9a20.171,20.171,0,0,1,.725-5.575,13.489,13.489,0,0,1,3.775-6.325q.176-.15.4-.337c.15-.125.25-.213.3-.263h.325a.593.593,0,0,1,.375.075.216.216,0,0,1,.075.15c0,.067-.091.192-.275.375q-3.875,4.1-3.875,11.9t3.875,11.9C350.159,143.833,350.25,143.958,350.25,144.025Z"/><path class="b" d="M353.1,131.05a.417.417,0,0,1-.15-.275,4.747,4.747,0,0,1,.775-1.725,4.287,4.287,0,0,1,2.95-2.05,4.126,4.126,0,0,1,.525-.05,3.035,3.035,0,0,1,1.612.45,2.689,2.689,0,0,1,1.063,1.125c.216-.283.35-.458.4-.525a2.772,2.772,0,0,1,2.125-1.05,2.355,2.355,0,0,1,1.663.588,1.879,1.879,0,0,1,.637,1.437,1.96,1.96,0,0,1-.437,1.3,1.436,1.436,0,0,1-1.162.525,1.106,1.106,0,0,1-.776-.275.94.94,0,0,1-.3-.725,1.591,1.591,0,0,1,1.25-1.575.982.982,0,0,0-.274-.175,1.429,1.429,0,0,0-.726-.15,1.635,1.635,0,0,0-.474.05,2.619,2.619,0,0,0-1.4,1.65q-.073.2-.724,2.788t-.7,2.912a3.816,3.816,0,0,0-.075.75,1.281,1.281,0,0,0,.35.95,1.252,1.252,0,0,0,.925.35,2.577,2.577,0,0,0,1.9-.888,4.614,4.614,0,0,0,1.151-1.962q.073-.25.15-.288a1.246,1.246,0,0,1,.4-.037q.476,0,.476.2c0,.017-.018.108-.051.275a5.432,5.432,0,0,1-1.75,2.7,3.939,3.939,0,0,1-2.474.925,2.88,2.88,0,0,1-2.65-1.575,3.5,3.5,0,0,1-1.85,1.5,3.222,3.222,0,0,1-.65.05,2.178,2.178,0,0,1-2.05-1.025,1.933,1.933,0,0,1-.25-1,1.892,1.892,0,0,1,.45-1.275,1.447,1.447,0,0,1,1.15-.525.94.94,0,0,1,1.075,1.05,1.411,1.411,0,0,1-.875,1.35l-.125.063-.125.062a.188.188,0,0,1-.075.025l-.075.025q0,.075.375.225a1.659,1.659,0,0,0,.65.125,1.846,1.846,0,0,0,1.55-1.125,18.938,18.938,0,0,0,.975-3.25q.15-.574.325-1.275t.262-1.075c.059-.25.1-.4.113-.45a6.136,6.136,0,0,0,.125-.975,1.344,1.344,0,0,0-.325-.95,1.17,1.17,0,0,0-.9-.35,2.611,2.611,0,0,0-1.95.863,4.728,4.728,0,0,0-1.15,1.987c-.034.15-.071.237-.113.263a1.206,1.206,0,0,1-.412.037Z"/><path class="b" d="M367.449,119.275l.1-.025h.551l.7.6q4.5,4.1,4.5,11.9a19.7,19.7,0,0,1-.725,5.55,13.481,13.481,0,0,1-3.775,6.35c-.116.1-.25.212-.4.337s-.25.213-.3.263h-.3a.942.942,0,0,1-.387-.05c-.058-.033-.088-.117-.088-.25q.026-.025.276-.325,3.874-4.026,3.875-11.875T367.6,119.875q-.251-.3-.276-.325A.293.293,0,0,1,367.449,119.275Z"/><path class="b" d="M383.324,129.325a.544.544,0,0,1,.35-.5H399.6a.547.547,0,0,1,.375.5.567.567,0,0,1-.35.475l-7.95.025h-7.95A.5.5,0,0,1,383.324,129.325Zm0,4.85a.5.5,0,0,1,.4-.5h15.9a1.118,1.118,0,0,0,.112.088.962.962,0,0,1,.125.1.424.424,0,0,1,.076.125.492.492,0,0,1,.037.188.546.546,0,0,1-.375.5H383.674A.543.543,0,0,1,383.324,134.175Z"/><path class="b" d="M412.374,127.65q-2.3,0-2.3,1.625a1.142,1.142,0,0,0,.05.425,1.492,1.492,0,0,0,.775.862,7.586,7.586,0,0,0,1.7.488,6.759,6.759,0,0,1,1.95.55,3.622,3.622,0,0,1,2.025,2.475,4.461,4.461,0,0,1,.025.6,4.041,4.041,0,0,1-.35,1.725,3.767,3.767,0,0,1-3.675,1.85,3.978,3.978,0,0,1-2.6-.9l-.2.175-.225.225c-.1.1-.2.192-.3.275l-.275.25h-.2a.453.453,0,0,1-.325-.15V136.15q0-1.624.013-1.875c.008-.167.045-.266.112-.3a1.569,1.569,0,0,1,.4-.025.839.839,0,0,1,.387.05.808.808,0,0,1,.138.35,5.769,5.769,0,0,0,.65,1.725,2.781,2.781,0,0,0,2.425,1.275q2.424,0,2.425-1.95a1.59,1.59,0,0,0-.45-1.175,2.178,2.178,0,0,0-1.05-.675c-.283-.067-.684-.158-1.2-.275a8.543,8.543,0,0,1-1.9-.525,3.122,3.122,0,0,1-1.925-2.325,1.813,1.813,0,0,1-.025-.375q0-2.874,3.525-3.225a1.63,1.63,0,0,1,.6,0,3.868,3.868,0,0,1,1.75.375l.375.2.225-.175a6.44,6.44,0,0,1,.55-.425h.2a.455.455,0,0,1,.325.15v3.3l-.15.15h-.7a.432.432,0,0,1-.15-.3,2.333,2.333,0,0,0-.7-1.8A2.722,2.722,0,0,0,412.374,127.65Z"/><path class="b" d="M423.648,138a21.319,21.319,0,0,0-2.6-.075,26.421,26.421,0,0,0-2.726.075h-.2v-1.15h.4a8.793,8.793,0,0,0,1.226-.075.541.541,0,0,0,.3-.275q.024-.049.024-3.625a34.941,34.941,0,0,0-.1-4q-.2-.5-1.475-.5h-.275V127.8q0-.574.049-.575l.25-.025q.25-.024.7-.05l.9-.05q.424-.025.9-.062t.726-.063c.166-.017.258-.025.274-.025h.076v9.5a.58.58,0,0,0,.3.313,4.043,4.043,0,0,0,.875.087h.576V138Zm-2.9-16.725a1.608,1.608,0,0,1,1.024.437,1.412,1.412,0,0,1,.4,1.063,1.34,1.34,0,0,1-.675,1.275,1.375,1.375,0,0,1-.8.225,1.413,1.413,0,0,1-.824-.225,1.339,1.339,0,0,1-.676-1.275,1.42,1.42,0,0,1,.438-1.1A1.59,1.59,0,0,1,420.749,121.275Z"/><path class="b" d="M429.124,136.5q.2.35,1.175.35h.75V138h-.2a52.3,52.3,0,0,0-5.6,0h-.2v-1.15h.75q.975,0,1.175-.35v-.775c0-.233,0-.5.012-.787s.013-.617.013-.976v-1.037c0-.516,0-1.071-.013-1.662s-.012-1.079-.012-1.463v-.575a.829.829,0,0,0-.363-.638,2.928,2.928,0,0,0-1.112-.212h-.45V127.8c0-.383.016-.575.05-.575l.25-.025c.167-.016.4-.033.713-.05l.912-.05q.425-.025.9-.062t.725-.063c.167-.017.258-.025.275-.025h.075v1a6.73,6.73,0,0,0,.025.95l.025-.025a4.4,4.4,0,0,1,3.825-1.925A2.918,2.918,0,0,1,436,129.775q.025.175.024,3.475,0,3.2.026,3.25a.532.532,0,0,0,.3.275,8.768,8.768,0,0,0,1.225.075h.4V138h-.2a52.286,52.286,0,0,0-5.6,0h-.2v-1.15h.6q1.325,0,1.324-.4.025-.049.026-3.45-.025-3.375-.05-3.575a2.212,2.212,0,0,0-.562-1.162,1.689,1.689,0,0,0-1.188-.363,2.714,2.714,0,0,0-1.976.85,3.582,3.582,0,0,0-1.024,2.2v.463c0,.291,0,.662-.013,1.112s-.012.875-.012,1.275v.787q0,.413.012.738c.008.217.013.412.013.588v.587Z"/><path class="b" d="M446.649,144.025q0,.225-.45.225h-.325l-.7-.6q-4.5-4.1-4.5-11.9a20.171,20.171,0,0,1,.725-5.575,13.489,13.489,0,0,1,3.775-6.325q.176-.15.4-.337c.151-.125.25-.213.3-.263h.325a.593.593,0,0,1,.375.075.216.216,0,0,1,.075.15c0,.067-.091.192-.275.375q-3.875,4.1-3.875,11.9t3.875,11.9C446.558,143.833,446.649,143.958,446.649,144.025Z"/><path class="b" d="M458.824,137.075a1.14,1.14,0,0,1-.363.8,1.185,1.185,0,0,1-.887.375.929.929,0,0,1-.512-.1,1.13,1.13,0,0,1-.289-.4,7.042,7.042,0,0,1-.474-2.775q0-.9.025-1.2a31.22,31.22,0,0,1,.775-4.175c.083-.333.125-.517.125-.55h-2.451l-.024.1a1.835,1.835,0,0,1-.05.212q-.051.188-.137.551c-.059.241-.113.462-.164.662a69.908,69.908,0,0,1-1.974,7,1.079,1.079,0,0,1-1.075.7.826.826,0,0,1-.8-.425,1.167,1.167,0,0,1-.05-.4v-.275l.325-.7a48.452,48.452,0,0,0,2.725-6.825l.2-.6h-.8a8.509,8.509,0,0,0-1.387.075,2.517,2.517,0,0,0-.938.475,3.609,3.609,0,0,0-1.05,1.025.686.686,0,0,1-.2.237,1.066,1.066,0,0,1-.375.038q-.476,0-.476-.25a1.575,1.575,0,0,1,.25-.5q1.726-2.625,3.375-2.875.177-.049,5.625-.05,4,0,4.1.025a.683.683,0,0,1,.5.7,1.044,1.044,0,0,1-.8,1.05,13.424,13.424,0,0,1-1.725.05h-1.6l-.075.425a18.768,18.768,0,0,0-.3,2.975,10.088,10.088,0,0,0,.774,4.025A2.134,2.134,0,0,1,458.824,137.075Z"/><path class="b" d="M463.749,131.05a.413.413,0,0,1-.15-.275,4.747,4.747,0,0,1,.775-1.725,4.289,4.289,0,0,1,2.95-2.05,4.126,4.126,0,0,1,.525-.05,3.035,3.035,0,0,1,1.612.45,2.68,2.68,0,0,1,1.062,1.125q.325-.425.4-.525a2.769,2.769,0,0,1,2.125-1.05,2.354,2.354,0,0,1,1.662.588,1.876,1.876,0,0,1,.638,1.437,1.96,1.96,0,0,1-.438,1.3,1.437,1.437,0,0,1-1.162.525,1.1,1.1,0,0,1-.775-.275.933.933,0,0,1-.3-.725,1.59,1.59,0,0,1,1.25-1.575,1,1,0,0,0-.276-.175,1.421,1.421,0,0,0-.724-.15,1.643,1.643,0,0,0-.475.05,2.618,2.618,0,0,0-1.4,1.65q-.075.2-.725,2.788t-.7,2.912a3.816,3.816,0,0,0-.075.75,1.284,1.284,0,0,0,.349.95,1.254,1.254,0,0,0,.926.35,2.582,2.582,0,0,0,1.9-.888,4.611,4.611,0,0,0,1.15-1.962c.05-.167.1-.263.149-.288a1.262,1.262,0,0,1,.4-.037q.474,0,.474.2c0,.017-.016.108-.049.275a5.445,5.445,0,0,1-1.75,2.7,3.944,3.944,0,0,1-2.475.925,2.88,2.88,0,0,1-2.65-1.575,3.5,3.5,0,0,1-1.85,1.5,3.222,3.222,0,0,1-.65.05,2.178,2.178,0,0,1-2.05-1.025,1.933,1.933,0,0,1-.25-1,1.892,1.892,0,0,1,.45-1.275,1.446,1.446,0,0,1,1.149-.525.94.94,0,0,1,1.076,1.05,1.411,1.411,0,0,1-.875,1.35c-.034.017-.076.037-.125.063l-.125.062a.191.191,0,0,1-.076.025l-.074.025q0,.075.375.225a1.655,1.655,0,0,0,.65.125,1.844,1.844,0,0,0,1.549-1.125,18.8,18.8,0,0,0,.976-3.25q.15-.574.325-1.275t.262-1.075c.059-.25.1-.4.113-.45a6.136,6.136,0,0,0,.125-.975,1.344,1.344,0,0,0-.325-.95,1.17,1.17,0,0,0-.9-.35,2.615,2.615,0,0,0-1.951.863,4.736,4.736,0,0,0-1.149,1.987c-.034.15-.071.237-.112.263a1.218,1.218,0,0,1-.413.037Z"/><path class="b" d="M478.1,119.275l.1-.025h.551l.7.6q4.5,4.1,4.5,11.9a19.737,19.737,0,0,1-.724,5.55,13.49,13.49,0,0,1-3.776,6.35c-.116.1-.25.212-.4.337s-.25.213-.3.263h-.3a.933.933,0,0,1-.386-.05c-.059-.033-.088-.117-.088-.25q.024-.025.275-.325,3.874-4.026,3.875-11.875t-3.875-11.875c-.167-.2-.259-.308-.275-.325A.293.293,0,0,1,478.1,119.275Z"/><path class="j" d="M480.35,40.312a2.245,2.245,0,0,1-1.6-.588,1.981,1.981,0,0,1-.625-1.513,3.523,3.523,0,0,1,.25-1.1,29.427,29.427,0,0,0,1.5-4.724,4.979,4.979,0,0,0,.075-.95q0-1.476-1.225-1.476a2.983,2.983,0,0,0-.65.051,4.753,4.753,0,0,0-2.95,2.4l-.175.324-.85,3.375q-.8,3.251-.925,3.551a1.13,1.13,0,0,1-1.1.674,1.066,1.066,0,0,1-.588-.187.564.564,0,0,1-.287-.487q0-.3,3.675-15a.448.448,0,0,0-.15-.4,3.7,3.7,0,0,0-1-.125H473.2a.713.713,0,0,1-.163-.2,2.521,2.521,0,0,1,.063-.476c.083-.316.191-.475.325-.475q.024,0,1.812-.137t1.813-.138c.2,0,.3.076.3.226q0,.274-.9,3.774-.951,3.7-.95,3.775c0,.034.058-.007.175-.125a4.71,4.71,0,0,1,3.25-1.349,3.363,3.363,0,0,1,2.2.675,2.4,2.4,0,0,1,.825,1.975,4.968,4.968,0,0,1-.075.949,31.206,31.206,0,0,1-1.375,4.426,5.968,5.968,0,0,0-.45,1.775.9.9,0,0,0,.125.475.46.46,0,0,0,.375.125,1.708,1.708,0,0,0,1.312-.763,5.589,5.589,0,0,0,.963-2.038.633.633,0,0,1,.15-.324.908.908,0,0,1,.4-.051q.474.077.5.2c0,.016-.034.141-.1.375a5.7,5.7,0,0,1-1.274,2.424A2.631,2.631,0,0,1,480.35,40.312Z"/><path class="b" d="M492.725,46.086c0,.15-.151.226-.451.226h-.325c-.116-.1-.349-.3-.7-.6q-4.5-4.1-4.5-11.9a20.141,20.141,0,0,1,.725-5.576,13.478,13.478,0,0,1,3.775-6.324c.116-.1.25-.213.4-.338s.25-.213.3-.262h.325a.583.583,0,0,1,.375.075.216.216,0,0,1,.076.15q0,.1-.276.375-3.875,4.1-3.875,11.9t3.875,11.9Q492.725,45.987,492.725,46.086Z"/><path class="b" d="M495.574,33.111a.417.417,0,0,1-.15-.275,4.761,4.761,0,0,1,.775-1.725,4.285,4.285,0,0,1,2.95-2.049,3.975,3.975,0,0,1,.525-.05,3.047,3.047,0,0,1,1.613.449,2.707,2.707,0,0,1,1.063,1.125l.4-.524a2.766,2.766,0,0,1,2.125-1.05,2.361,2.361,0,0,1,1.663.587,1.877,1.877,0,0,1,.637,1.438,1.954,1.954,0,0,1-.438,1.3,1.432,1.432,0,0,1-1.162.525,1.1,1.1,0,0,1-.775-.275.938.938,0,0,1-.3-.725,1.589,1.589,0,0,1,1.25-1.574.99.99,0,0,0-.274-.176,1.443,1.443,0,0,0-.726-.15,1.636,1.636,0,0,0-.475.051,2.615,2.615,0,0,0-1.4,1.65q-.075.2-.725,2.787t-.7,2.912a3.816,3.816,0,0,0-.075.75,1.28,1.28,0,0,0,.351.951,1.248,1.248,0,0,0,.924.35,2.579,2.579,0,0,0,1.9-.888,4.617,4.617,0,0,0,1.15-1.962c.05-.167.1-.263.151-.288a1.2,1.2,0,0,1,.4-.038c.316,0,.475.067.475.2,0,.016-.018.108-.051.274a5.434,5.434,0,0,1-1.75,2.7,3.946,3.946,0,0,1-2.475.924,2.879,2.879,0,0,1-2.65-1.574,3.5,3.5,0,0,1-1.85,1.5,3.222,3.222,0,0,1-.65.05,2.18,2.18,0,0,1-2.05-1.025,1.936,1.936,0,0,1-.25-1,1.891,1.891,0,0,1,.45-1.275,1.449,1.449,0,0,1,1.151-.526.94.94,0,0,1,1.074,1.051,1.411,1.411,0,0,1-.875,1.35l-.125.062-.125.063a.209.209,0,0,1-.074.025l-.076.025c0,.049.125.125.375.225a1.68,1.68,0,0,0,.65.125,1.848,1.848,0,0,0,1.551-1.125,19.151,19.151,0,0,0,.974-3.25c.1-.384.208-.808.325-1.275s.2-.825.263-1.075.1-.4.112-.451a6.127,6.127,0,0,0,.125-.974,1.337,1.337,0,0,0-.325-.95,1.165,1.165,0,0,0-.9-.351,2.608,2.608,0,0,0-1.949.863,4.74,4.74,0,0,0-1.151,1.988c-.033.149-.071.237-.112.262a1.218,1.218,0,0,1-.413.037Z"/><path class="b" d="M509.924,21.336l.1-.024h.551c.116.1.35.3.7.6q4.5,4.1,4.5,11.9a19.735,19.735,0,0,1-.724,5.549,13.485,13.485,0,0,1-3.776,6.35c-.116.1-.25.213-.4.338s-.25.213-.3.263h-.3a.933.933,0,0,1-.386-.05c-.059-.034-.088-.117-.088-.25.016-.017.108-.125.275-.325q3.875-4.026,3.875-11.875t-3.875-11.875c-.167-.2-.259-.309-.275-.326A.3.3,0,0,1,509.924,21.336Z"/><path class="b" d="M525.8,31.387a.543.543,0,0,1,.349-.5h15.925a.546.546,0,0,1,.375.5.564.564,0,0,1-.349.474l-7.951.026H526.2A.5.5,0,0,1,525.8,31.387Zm0,4.849a.5.5,0,0,1,.4-.5h15.9a.823.823,0,0,0,.112.088,1.041,1.041,0,0,1,.125.1.412.412,0,0,1,.075.125.469.469,0,0,1,.037.187.546.546,0,0,1-.375.5H526.149A.543.543,0,0,1,525.8,36.236Z"/><path class="b" d="M551.549,33.111a.411.411,0,0,1-.151-.275,4.784,4.784,0,0,1,.776-1.725,4.283,4.283,0,0,1,2.95-2.049,3.935,3.935,0,0,1,.524-.05,3.047,3.047,0,0,1,1.613.449,2.7,2.7,0,0,1,1.062,1.125l.4-.524a2.766,2.766,0,0,1,2.125-1.05,2.358,2.358,0,0,1,1.662.587,1.877,1.877,0,0,1,.637,1.438,1.959,1.959,0,0,1-.437,1.3,1.434,1.434,0,0,1-1.162.525,1.1,1.1,0,0,1-.776-.275.934.934,0,0,1-.3-.725,1.588,1.588,0,0,1,1.25-1.574.984.984,0,0,0-.276-.176,1.432,1.432,0,0,0-.724-.15,1.636,1.636,0,0,0-.475.051,2.61,2.61,0,0,0-1.4,1.65q-.075.2-.725,2.787t-.7,2.912a3.816,3.816,0,0,0-.075.75,1.286,1.286,0,0,0,.349.951,1.254,1.254,0,0,0,.926.35,2.578,2.578,0,0,0,1.9-.888,4.61,4.61,0,0,0,1.151-1.962c.05-.167.1-.263.149-.288a1.22,1.22,0,0,1,.4-.038q.474,0,.474.2c0,.016-.016.108-.05.274a5.434,5.434,0,0,1-1.75,2.7,3.944,3.944,0,0,1-2.474.924,2.882,2.882,0,0,1-2.651-1.574,3.5,3.5,0,0,1-1.849,1.5,3.233,3.233,0,0,1-.651.05,2.18,2.18,0,0,1-2.049-1.025,1.936,1.936,0,0,1-.25-1,1.891,1.891,0,0,1,.45-1.275,1.445,1.445,0,0,1,1.149-.526.939.939,0,0,1,1.075,1.051,1.412,1.412,0,0,1-.875,1.35l-.125.062-.125.063a.2.2,0,0,1-.075.025l-.074.025c0,.049.125.125.375.225a1.672,1.672,0,0,0,.649.125,1.844,1.844,0,0,0,1.55-1.125,18.862,18.862,0,0,0,.976-3.25c.1-.384.208-.808.325-1.275s.2-.825.262-1.075.1-.4.113-.451a6.127,6.127,0,0,0,.125-.974,1.342,1.342,0,0,0-.325-.95,1.168,1.168,0,0,0-.9-.351,2.613,2.613,0,0,0-1.95.863,4.735,4.735,0,0,0-1.149,1.988c-.034.149-.071.237-.112.262a1.222,1.222,0,0,1-.414.037Z"/><path class="b" d="M566,25.484a.815.815,0,0,1-.642-.263.932.932,0,0,1-.233-.641,2.389,2.389,0,0,1,.8-1.8,2.672,2.672,0,0,1,1.9-.751,3.157,3.157,0,0,1,2.077.678,2.843,2.843,0,0,1,1.013,1.771,4.243,4.243,0,0,1,.029.481,2.767,2.767,0,0,1-.509,1.589,9.714,9.714,0,0,1-1.648,1.676q-.523.451-1.457,1.34l-.86.817,1.108.015a17.6,17.6,0,0,0,2.434-.073c.039-.01.088-.112.145-.306a8.9,8.9,0,0,0,.2-.992v-.044h.583v.044l-.408,2.667v.044h-5.407v-.277a1,1,0,0,1,.029-.335q.015-.014,1.225-1.384,1.587-1.764,2.04-2.332a4.228,4.228,0,0,0,.976-2.434,2.55,2.55,0,0,0-.5-1.611,1.68,1.68,0,0,0-1.407-.649,1.6,1.6,0,0,0-1.37.758c-.019.039-.049.093-.087.161a.318.318,0,0,0-.044.087c0,.01.025.015.073.015a.74.74,0,0,1,.59.262.907.907,0,0,1,.226.612.872.872,0,0,1-.24.62A.831.831,0,0,1,566,25.484Z"/><path class="b" d="M580.036,33.812a.544.544,0,0,1,.351-.5h14.524a.521.521,0,0,1,0,1H580.387A.546.546,0,0,1,580.036,33.812Z"/><path class="b" d="M614.037,40.062q-.426-.075-3.975-.076-3.5,0-3.925.076h-.3v-1.15h.649a13.833,13.833,0,0,0,1.875-.076,1.6,1.6,0,0,0,.6-.3V25.611a.6.6,0,0,0-.2.076,7.408,7.408,0,0,1-2.575.475h-.475v-1.15h.475a6.991,6.991,0,0,0,3.5-.95,3.5,3.5,0,0,0,.775-.576c.033-.049.133-.074.3-.074a.628.628,0,0,1,.425.15v7.475l.025,7.5a2.419,2.419,0,0,0,1.625.375h1.475v1.15Z"/></svg>