<svg xmlns="http://www.w3.org/2000/svg" xmlns:xlink="http://www.w3.org/1999/xlink" width="1440" height="630" viewBox="0 0 1440 630"><defs><style>.a,.e,.h,.n,.p{fill:none;}.b,.k,.p{stroke:#777;}.b,.n,.p{stroke-miterlimit:10;}.c{clip-path:url(#a);}.d{opacity:0.15;}.e,.n{stroke:#fff;}.e,.h{stroke-miterlimit:120;}.f{opacity:0.25;}.g{opacity:0.4;}.h,.o{stroke:#fff933;}.i{clip-path:url(#b);}.j{clip-path:url(#c);}.k{stroke-miterlimit:24;}.l{fill:#fff;}.m{fill:#fff933;}.n{stroke-width:2px;}.o{stroke-miterlimit:12;stroke-width:1.5px;}.q{isolation:isolate;}</style><clipPath id="a"><rect class="a" x="80" y="230" width="320" height="320.001"/></clipPath><clipPath id="b"><rect class="a" x="560" y="230" width="320" height="320.001"/></clipPath><clipPath id="c"><rect class="a" x="1040" y="230" width="320" height="320.001"/></clipPath></defs><rect class="b" width="1440" height="630"/><rect class="b" x="960" y="150" width="480" height="480"/><rect class="b" x="480" y="150" width="480" height="480"/><rect class="b" y="150" width="480" height="480"/><g class="c"><g class="d"><line class="e" x1="96" y1="218.673" x2="96" y2="554.673"/><line class="e" x1="112" y1="218.673" x2="112" y2="554.673"/><line class="e" x1="128" y1="218.673" x2="128" y2="554.673"/><line class="e" x1="144" y1="218.673" x2="144" y2="554.673"/><line class="e" x1="176" y1="218.673" x2="176" y2="554.673"/><line class="e" x1="192" y1="218.673" x2="192" y2="554.673"/><line class="e" x1="208" y1="218.673" x2="208" y2="554.673"/><line class="e" x1="224" y1="218.673" x2="224" y2="554.673"/><line class="e" x1="256" y1="218.673" x2="256" y2="554.673"/><line class="e" x1="272" y1="218.673" x2="272" y2="554.673"/><line class="e" x1="288" y1="218.673" x2="288" y2="554.673"/><line class="e" x1="304" y1="218.673" x2="304" y2="554.673"/><line class="e" x1="336" y1="218.673" x2="336" y2="554.673"/><line class="e" x1="352" y1="218.673" x2="352" y2="554.673"/><line class="e" x1="368" y1="218.673" x2="368" y2="554.673"/><line class="e" x1="384" y1="218.673" x2="384" y2="554.673"/><line class="e" x1="80" y1="234.673" x2="400" y2="234.673"/><line class="e" x1="80" y1="250.673" x2="400" y2="250.673"/><line class="e" x1="80" y1="266.673" x2="400" y2="266.673"/><line class="e" x1="80" y1="282.673" x2="400" y2="282.673"/><line class="e" x1="80" y1="314.673" x2="400" y2="314.673"/><line class="e" x1="80" y1="330.673" x2="400" y2="330.673"/><line class="e" x1="80" y1="346.673" x2="400" y2="346.673"/><line class="e" x1="80" y1="362.673" x2="400" y2="362.673"/><line class="e" x1="80" y1="394.673" x2="400" y2="394.673"/><line class="e" x1="80" y1="410.673" x2="400" y2="410.673"/><line class="e" x1="80" y1="426.673" x2="400" y2="426.673"/><line class="e" x1="80" y1="442.673" x2="400" y2="442.673"/><line class="e" x1="80" y1="474.673" x2="400" y2="474.673"/><line class="e" x1="80" y1="490.673" x2="400" y2="490.673"/><line class="e" x1="80" y1="506.673" x2="400" y2="506.673"/><line class="e" x1="80" y1="522.673" x2="400" y2="522.673"/><line class="e" x1="80" y1="554.673" x2="400" y2="554.673"/></g><g class="f"><line class="e" x1="160" y1="218.673" x2="160" y2="554.673"/><line class="e" x1="320" y1="218.673" x2="320" y2="554.673"/><line class="e" x1="80" y1="218.673" x2="400" y2="218.673"/><line class="e" x1="80" y1="378.673" x2="400" y2="378.673"/><line class="e" x1="80" y1="538.673" x2="400" y2="538.673"/></g><g class="g"><line class="e" x1="80" y1="218.673" x2="80" y2="554.673"/><line class="e" x1="240" y1="218.673" x2="240" y2="554.673"/><line class="e" x1="400" y1="218.673" x2="400" y2="554.673"/><line class="e" x1="80" y1="298.673" x2="400" y2="298.673"/><line class="e" x1="80" y1="458.673" x2="400" y2="458.673"/></g><path class="h" d="M240.533,389.577c12.173-9.9,21.646-22.656,30.4-35.563,11.132-16.666,20.9-34.211,30.4-51.844,12.858-23.95,25.086-48.249,38-72.17q6.459-11.961,13.2-23.77c13.8-23.816,28.5-47.468,47.467-67.557"/><path class="h" d="M80,138.673h0c17.782,55.416,34.955,111.162,57.066,165.046,5.694,13.7,11.781,27.284,18.667,40.428a218.1,218.1,0,0,0,19.2,30.917c17.563,22.956,38.746,35.424,64.534,15.351"/></g><g class="i"><g class="d"><line class="e" x1="576" y1="228.726" x2="576" y2="564.726"/><line class="e" x1="592" y1="228.726" x2="592" y2="564.726"/><line class="e" x1="608" y1="228.726" x2="608" y2="564.726"/><line class="e" x1="624" y1="228.726" x2="624" y2="564.726"/><line class="e" x1="656" y1="228.726" x2="656" y2="564.726"/><line class="e" x1="672" y1="228.726" x2="672" y2="564.726"/><line class="e" x1="688" y1="228.726" x2="688" y2="564.726"/><line class="e" x1="704" y1="228.726" x2="704" y2="564.726"/><line class="e" x1="736" y1="228.726" x2="736" y2="564.726"/><line class="e" x1="752" y1="228.726" x2="752" y2="564.726"/><line class="e" x1="768" y1="228.726" x2="768" y2="564.726"/><line class="e" x1="784" y1="228.726" x2="784" y2="564.726"/><line class="e" x1="816" y1="228.726" x2="816" y2="564.726"/><line class="e" x1="832" y1="228.726" x2="832" y2="564.726"/><line class="e" x1="848" y1="228.726" x2="848" y2="564.726"/><line class="e" x1="864" y1="228.726" x2="864" y2="564.726"/><line class="e" x1="560" y1="228.726" x2="880" y2="228.726"/><line class="e" x1="560" y1="244.726" x2="880" y2="244.726"/><line class="e" x1="560" y1="260.726" x2="880" y2="260.726"/><line class="e" x1="560" y1="292.726" x2="880" y2="292.726"/><line class="e" x1="560" y1="308.726" x2="880" y2="308.726"/><line class="e" x1="560" y1="324.726" x2="880" y2="324.726"/><line class="e" x1="560" y1="340.726" x2="880" y2="340.726"/><line class="e" x1="560" y1="372.726" x2="880" y2="372.726"/><line class="e" x1="560" y1="388.726" x2="880" y2="388.726"/><line class="e" x1="560" y1="404.726" x2="880" y2="404.726"/><line class="e" x1="560" y1="420.726" x2="880" y2="420.726"/><line class="e" x1="560" y1="452.726" x2="880" y2="452.726"/><line class="e" x1="560" y1="468.726" x2="880" y2="468.726"/><line class="e" x1="560" y1="484.726" x2="880" y2="484.726"/><line class="e" x1="560" y1="500.726" x2="880" y2="500.726"/><line class="e" x1="560" y1="532.726" x2="880" y2="532.726"/><line class="e" x1="560" y1="548.726" x2="880" y2="548.726"/><line class="e" x1="560" y1="564.726" x2="880" y2="564.726"/></g><g class="f"><line class="e" x1="640" y1="228.726" x2="640" y2="564.726"/><line class="e" x1="800" y1="228.726" x2="800" y2="564.726"/><line class="e" x1="560" y1="356.726" x2="880" y2="356.726"/><line class="e" x1="560" y1="516.726" x2="880" y2="516.726"/></g><g class="g"><line class="e" x1="560" y1="228.726" x2="560" y2="564.726"/><line class="e" x1="720" y1="228.726" x2="720" y2="564.726"/><line class="e" x1="880" y1="228.726" x2="880" y2="564.726"/><line class="e" x1="560" y1="276.726" x2="880" y2="276.726"/><line class="e" x1="560" y1="436.726" x2="880" y2="436.726"/></g></g><g class="j"><g class="d"><line class="e" x1="1056" y1="217.258" x2="1056" y2="553.258"/><line class="e" x1="1072" y1="217.258" x2="1072" y2="553.258"/><line class="e" x1="1088" y1="217.258" x2="1088" y2="553.258"/><line class="e" x1="1104" y1="217.258" x2="1104" y2="553.258"/><line class="e" x1="1136" y1="217.258" x2="1136" y2="553.258"/><line class="e" x1="1152" y1="217.258" x2="1152" y2="553.258"/><line class="e" x1="1168" y1="217.258" x2="1168" y2="553.258"/><line class="e" x1="1184" y1="217.258" x2="1184" y2="553.258"/><line class="e" x1="1216" y1="217.258" x2="1216" y2="553.258"/><line class="e" x1="1232" y1="217.258" x2="1232" y2="553.258"/><line class="e" x1="1248" y1="217.258" x2="1248" y2="553.258"/><line class="e" x1="1264" y1="217.258" x2="1264" y2="553.258"/><line class="e" x1="1296" y1="217.258" x2="1296" y2="553.258"/><line class="e" x1="1312" y1="217.258" x2="1312" y2="553.258"/><line class="e" x1="1328" y1="217.258" x2="1328" y2="553.258"/><line class="e" x1="1344" y1="217.258" x2="1344" y2="553.258"/><line class="e" x1="1040" y1="233.258" x2="1360" y2="233.258"/><line class="e" x1="1040" y1="249.258" x2="1360" y2="249.258"/><line class="e" x1="1040" y1="265.258" x2="1360" y2="265.258"/><line class="e" x1="1040" y1="281.258" x2="1360" y2="281.258"/><line class="e" x1="1040" y1="313.258" x2="1360" y2="313.258"/><line class="e" x1="1040" y1="329.258" x2="1360" y2="329.258"/><line class="e" x1="1040" y1="345.258" x2="1360" y2="345.258"/><line class="e" x1="1040" y1="361.258" x2="1360" y2="361.258"/><line class="e" x1="1040" y1="393.258" x2="1360" y2="393.258"/><line class="e" x1="1040" y1="409.258" x2="1360" y2="409.258"/><line class="e" x1="1040" y1="425.258" x2="1360" y2="425.258"/><line class="e" x1="1040" y1="441.258" x2="1360" y2="441.258"/><line class="e" x1="1040" y1="473.258" x2="1360" y2="473.258"/><line class="e" x1="1040" y1="489.258" x2="1360" y2="489.258"/><line class="e" x1="1040" y1="505.258" x2="1360" y2="505.258"/><line class="e" x1="1040" y1="521.258" x2="1360" y2="521.258"/><line class="e" x1="1040" y1="553.258" x2="1360" y2="553.258"/></g><g class="f"><line class="e" x1="1120" y1="217.258" x2="1120" y2="553.258"/><line class="e" x1="1280" y1="217.258" x2="1280" y2="553.258"/><line class="e" x1="1040" y1="297.258" x2="1360" y2="297.258"/><line class="e" x1="1040" y1="457.258" x2="1360" y2="457.258"/></g><g class="g"><line class="e" x1="1040" y1="217.258" x2="1040" y2="553.258"/><line class="e" x1="1200" y1="217.258" x2="1200" y2="553.258"/><line class="e" x1="1360" y1="217.258" x2="1360" y2="553.258"/><line class="e" x1="1040" y1="217.258" x2="1360" y2="217.258"/><line class="e" x1="1040" y1="377.258" x2="1360" y2="377.258"/><line class="e" x1="1040" y1="537.258" x2="1360" y2="537.258"/></g></g><rect class="k" x="620" y="30" width="200" height="90"/><path class="l" d="M722.4,49.6q-2.3,0-2.3,1.625a1.128,1.128,0,0,0,.05.425,1.493,1.493,0,0,0,.774.862,7.6,7.6,0,0,0,1.7.488,6.759,6.759,0,0,1,1.95.55,3.624,3.624,0,0,1,2.025,2.475,4.644,4.644,0,0,1,.025.6,4.041,4.041,0,0,1-.35,1.725A3.768,3.768,0,0,1,722.6,60.2a3.978,3.978,0,0,1-2.6-.9l-.2.175-.224.225c-.1.1-.2.192-.3.275l-.275.25h-.2a.453.453,0,0,1-.324-.15V58.1q0-1.624.012-1.875c.008-.167.047-.267.113-.3a1.569,1.569,0,0,1,.4-.025.836.836,0,0,1,.387.05.815.815,0,0,1,.138.35,5.832,5.832,0,0,0,.649,1.725A2.785,2.785,0,0,0,722.6,59.3q2.424,0,2.425-1.95a1.59,1.59,0,0,0-.45-1.175,2.173,2.173,0,0,0-1.05-.675q-.426-.1-1.2-.275a8.573,8.573,0,0,1-1.9-.525,3.123,3.123,0,0,1-1.924-2.325,1.813,1.813,0,0,1-.025-.375q0-2.876,3.525-3.225a1.631,1.631,0,0,1,.6,0,3.868,3.868,0,0,1,1.75.375l.375.2.225-.175a6.286,6.286,0,0,1,.55-.425h.2a.455.455,0,0,1,.325.15v3.3l-.15.15h-.7a.435.435,0,0,1-.149-.3,2.337,2.337,0,0,0-.7-1.8A2.718,2.718,0,0,0,722.4,49.6Z"/><path class="l" d="M733.675,59.95a21.319,21.319,0,0,0-2.6-.075,26.381,26.381,0,0,0-2.725.075h-.2V58.8h.4a8.793,8.793,0,0,0,1.226-.075.538.538,0,0,0,.3-.275q.024-.05.025-3.625a34.5,34.5,0,0,0-.1-4q-.2-.5-1.475-.5h-.275V49.75q0-.575.049-.575l.25-.025c.167-.017.4-.033.7-.05l.9-.05q.424-.025.9-.063t.726-.062c.167-.017.259-.025.274-.025h.076v9.5a.574.574,0,0,0,.3.312,3.943,3.943,0,0,0,.875.088h.576v1.15Zm-2.9-16.725a1.6,1.6,0,0,1,1.024.437,1.408,1.408,0,0,1,.4,1.063A1.338,1.338,0,0,1,731.526,46a1.374,1.374,0,0,1-.8.225A1.414,1.414,0,0,1,729.9,46a1.338,1.338,0,0,1-.675-1.275,1.414,1.414,0,0,1,.437-1.1A1.584,1.584,0,0,1,730.776,43.225Z"/><path class="l" d="M739.151,58.45q.2.349,1.175.35h.75v1.15h-.2a52.286,52.286,0,0,0-5.6,0h-.2V58.8h.75q.975,0,1.174-.35v-.775c0-.234,0-.5.013-.788s.013-.616.013-.975V54.875q0-.776-.013-1.663T737,51.75v-.575a.826.826,0,0,0-.362-.638,2.908,2.908,0,0,0-1.112-.212h-.45V49.75q0-.575.049-.575l.25-.025c.167-.017.4-.033.713-.05l.912-.05c.284-.017.583-.038.9-.063s.557-.046.724-.062.259-.025.276-.025h.075v1a7.078,7.078,0,0,0,.024.95l.026-.025a4.4,4.4,0,0,1,3.825-1.925,2.917,2.917,0,0,1,3.175,2.825q.024.174.024,3.475,0,3.2.026,3.25a.537.537,0,0,0,.3.275,8.793,8.793,0,0,0,1.226.075h.4v1.15h-.2a52.286,52.286,0,0,0-5.6,0H742V58.8h.6q1.325,0,1.324-.4.026-.05.026-3.45-.026-3.375-.05-3.575a2.209,2.209,0,0,0-.563-1.163,1.691,1.691,0,0,0-1.187-.362,2.711,2.711,0,0,0-1.976.85,3.576,3.576,0,0,0-1.024,2.2v.462c0,.292,0,.663-.013,1.113s-.013.875-.013,1.275v.787q0,.413.013.738c.008.217.013.412.013.587v.588Z"/><path class="l" d="M756.675,65.975q0,.225-.449.225H755.9l-.7-.6q-4.5-4.1-4.5-11.9a20.172,20.172,0,0,1,.724-5.575A13.486,13.486,0,0,1,755.2,41.8c.116-.1.25-.213.4-.338s.25-.212.3-.262h.326a.6.6,0,0,1,.375.075.219.219,0,0,1,.074.15q0,.1-.275.375-3.875,4.1-3.875,11.9T756.4,65.6Q756.675,65.875,756.675,65.975Z"/><path class="l" d="M768.851,59.025a1.14,1.14,0,0,1-.363.8,1.186,1.186,0,0,1-.887.375.935.935,0,0,1-.513-.1,1.13,1.13,0,0,1-.288-.4,7.046,7.046,0,0,1-.474-2.775c0-.6.007-1,.025-1.2a31.358,31.358,0,0,1,.774-4.175q.124-.5.125-.55H764.8l-.024.1a1.835,1.835,0,0,1-.05.212c-.034.125-.08.309-.138.55s-.112.463-.163.663a70.228,70.228,0,0,1-1.974,7,1.081,1.081,0,0,1-1.076.7.825.825,0,0,1-.8-.425,1.15,1.15,0,0,1-.05-.4v-.275l.325-.7a48.452,48.452,0,0,0,2.725-6.825l.2-.6h-.8a8.532,8.532,0,0,0-1.388.075,2.514,2.514,0,0,0-.937.475,3.6,3.6,0,0,0-1.05,1.025.7.7,0,0,1-.2.237,1.092,1.092,0,0,1-.375.038c-.318,0-.476-.083-.476-.25a1.575,1.575,0,0,1,.25-.5q1.727-2.625,3.375-2.875.176-.051,5.625-.05,4,0,4.1.025a.682.682,0,0,1,.5.7,1.044,1.044,0,0,1-.8,1.05,13.668,13.668,0,0,1-1.726.05h-1.6l-.075.425a18.65,18.65,0,0,0-.3,2.975,10.091,10.091,0,0,0,.774,4.025A2.171,2.171,0,0,1,768.851,59.025Z"/><path class="l" d="M773.775,53a.419.419,0,0,1-.151-.275A4.787,4.787,0,0,1,774.4,51a4.281,4.281,0,0,1,2.95-2.05,4.13,4.13,0,0,1,.524-.05,3.045,3.045,0,0,1,1.614.45,2.693,2.693,0,0,1,1.062,1.125l.4-.525a2.766,2.766,0,0,1,2.125-1.05,2.362,2.362,0,0,1,1.662.587,1.883,1.883,0,0,1,.636,1.438,1.961,1.961,0,0,1-.437,1.3,1.436,1.436,0,0,1-1.162.525,1.109,1.109,0,0,1-.776-.275.938.938,0,0,1-.3-.725,1.588,1.588,0,0,1,1.25-1.575,1,1,0,0,0-.276-.175,1.424,1.424,0,0,0-.724-.15,1.656,1.656,0,0,0-.476.05,2.608,2.608,0,0,0-1.4,1.65q-.077.2-.726,2.787t-.7,2.913a3.814,3.814,0,0,0-.074.75,1.282,1.282,0,0,0,.349.95,1.25,1.25,0,0,0,.925.35,2.577,2.577,0,0,0,1.9-.888A4.594,4.594,0,0,0,783.9,56.45c.051-.167.1-.263.15-.288a1.227,1.227,0,0,1,.4-.037c.316,0,.474.066.474.2,0,.016-.017.108-.051.275a5.436,5.436,0,0,1-1.75,2.7,3.937,3.937,0,0,1-2.474.925A2.884,2.884,0,0,1,778,58.65a3.492,3.492,0,0,1-1.849,1.5,3.233,3.233,0,0,1-.651.05,2.177,2.177,0,0,1-2.048-1.025,1.924,1.924,0,0,1-.25-1,1.892,1.892,0,0,1,.449-1.275,1.448,1.448,0,0,1,1.15-.525.938.938,0,0,1,1.074,1.05,1.41,1.41,0,0,1-.875,1.35l-.125.062-.125.063a.185.185,0,0,1-.074.025l-.075.025q0,.075.375.225a1.679,1.679,0,0,0,.649.125,1.845,1.845,0,0,0,1.551-1.125,18.838,18.838,0,0,0,.975-3.25c.1-.383.209-.808.325-1.275s.2-.825.263-1.075.095-.4.112-.45a6.136,6.136,0,0,0,.125-.975,1.339,1.339,0,0,0-.325-.95,1.167,1.167,0,0,0-.9-.35,2.608,2.608,0,0,0-1.949.862,4.737,4.737,0,0,0-1.15,1.988c-.033.15-.071.237-.113.262a1.2,1.2,0,0,1-.413.038Z"/><path class="l" d="M788.124,41.225l.1-.025h.55l.7.6q4.5,4.1,4.5,11.9a19.662,19.662,0,0,1-.726,5.55,13.471,13.471,0,0,1-3.774,6.35c-.116.1-.25.212-.4.337s-.25.213-.3.263h-.3a.948.948,0,0,1-.388-.05c-.058-.034-.088-.117-.088-.25q.027-.026.276-.325,3.876-4.026,3.875-11.875t-3.875-11.875q-.249-.3-.276-.325A.3.3,0,0,1,788.124,41.225Z"/><path class="l" d="M726.076,97.337a.413.413,0,0,1-.151-.275,4.752,4.752,0,0,1,.776-1.725,4.286,4.286,0,0,1,2.949-2.05,4.126,4.126,0,0,1,.525-.05,3.035,3.035,0,0,1,1.612.45,2.689,2.689,0,0,1,1.063,1.125c.217-.283.351-.458.4-.525a2.772,2.772,0,0,1,2.125-1.05,2.353,2.353,0,0,1,1.662.588,1.88,1.88,0,0,1,.638,1.437,1.965,1.965,0,0,1-.437,1.3,1.439,1.439,0,0,1-1.162.525,1.1,1.1,0,0,1-.776-.275.936.936,0,0,1-.3-.725,1.59,1.59,0,0,1,1.25-1.575,1.007,1.007,0,0,0-.275-.175,1.425,1.425,0,0,0-.725-.15,1.648,1.648,0,0,0-.475.05,2.62,2.62,0,0,0-1.4,1.65q-.073.2-.725,2.788t-.7,2.912a3.743,3.743,0,0,0-.076.75,1.284,1.284,0,0,0,.35.95,1.248,1.248,0,0,0,.925.35,2.581,2.581,0,0,0,1.9-.887,4.623,4.623,0,0,0,1.151-1.963c.049-.166.1-.263.149-.287a1.212,1.212,0,0,1,.4-.038q.476,0,.475.2c0,.017-.017.109-.05.275a5.434,5.434,0,0,1-1.75,2.7,3.939,3.939,0,0,1-2.474.925,2.882,2.882,0,0,1-2.651-1.575,3.5,3.5,0,0,1-1.849,1.5,3.167,3.167,0,0,1-.651.05,2.178,2.178,0,0,1-2.05-1.025,1.931,1.931,0,0,1-.25-1,1.888,1.888,0,0,1,.451-1.275,1.443,1.443,0,0,1,1.149-.525.939.939,0,0,1,1.075,1.05,1.411,1.411,0,0,1-.875,1.35l-.125.063-.125.062a.183.183,0,0,1-.075.025l-.075.025q0,.075.375.225a1.662,1.662,0,0,0,.65.125,1.846,1.846,0,0,0,1.55-1.125,18.8,18.8,0,0,0,.976-3.25c.1-.383.208-.808.324-1.275s.2-.825.262-1.075.1-.4.113-.45a6.018,6.018,0,0,0,.125-.975,1.349,1.349,0,0,0-.324-.95,1.172,1.172,0,0,0-.9-.35,2.611,2.611,0,0,0-1.95.863,4.721,4.721,0,0,0-1.149,1.987c-.035.15-.072.237-.114.263a1.2,1.2,0,0,1-.412.037Z"/><path class="l" d="M740.528,89.709a.812.812,0,0,1-.641-.262.932.932,0,0,1-.233-.641,2.39,2.39,0,0,1,.794-1.8,2.675,2.675,0,0,1,1.9-.75,3.159,3.159,0,0,1,2.077.678A2.843,2.843,0,0,1,745.44,88.7a4.473,4.473,0,0,1,.029.481,2.755,2.755,0,0,1-.51,1.588,9.661,9.661,0,0,1-1.647,1.676q-.525.451-1.457,1.341l-.86.816,1.107.015a17.406,17.406,0,0,0,2.434-.073c.039-.009.087-.111.146-.306a9.387,9.387,0,0,0,.2-.991v-.044h.583v.044l-.408,2.667v.044h-5.407v-.277a.967.967,0,0,1,.029-.335q.015-.015,1.225-1.385,1.587-1.762,2.04-2.332a4.23,4.23,0,0,0,.976-2.434,2.554,2.554,0,0,0-.5-1.611,1.677,1.677,0,0,0-1.406-.648,1.6,1.6,0,0,0-1.37.758c-.02.039-.049.093-.088.16a.312.312,0,0,0-.043.088c0,.01.023.014.072.014a.744.744,0,0,1,.591.263.906.906,0,0,1,.226.612.866.866,0,0,1-.241.619A.827.827,0,0,1,740.528,89.709Z"/><path class="l" d="M754.563,98.037a.545.545,0,0,1,.349-.5h14.526a.521.521,0,0,1,0,1H754.912A.543.543,0,0,1,754.563,98.037Z"/><path class="l" d="M788.563,104.287q-.426-.075-3.976-.075-3.5,0-3.925.075h-.3v-1.15h.649a14.075,14.075,0,0,0,1.875-.075,1.6,1.6,0,0,0,.6-.3V89.837a.594.594,0,0,0-.2.075,7.358,7.358,0,0,1-2.575.475h-.474v-1.15h.474a6.964,6.964,0,0,0,3.5-.95,3.454,3.454,0,0,0,.776-.575c.033-.05.132-.075.3-.075a.631.631,0,0,1,.425.15v7.475l.026,7.5a2.419,2.419,0,0,0,1.625.375h1.474v1.15Z"/><path class="m" d="M640.951,85.168c.449.1.691.15.724.15q.575,0,1-1.05.3-.825,1.825-8.9.7-3.774.725-3.8v-.075H644.05a6.679,6.679,0,0,1-1.25-.05c-.117-.066-.134-.25-.05-.55a2.309,2.309,0,0,1,.125-.4.227.227,0,0,1,.212-.138c.109-.007.5-.012,1.163-.012a10.745,10.745,0,0,0,1.2-.025q0-.05.224-1.25c.151-.8.25-1.283.3-1.45a6.106,6.106,0,0,1,1.575-3.3,3.23,3.23,0,0,1,2.075-.825,2.557,2.557,0,0,1,1.513.55,1.627,1.627,0,0,1,.612,1.325,1.763,1.763,0,0,1-.45,1.225,1.448,1.448,0,0,1-1.125.5q-1.1,0-1.1-1.05a1.412,1.412,0,0,1,.875-1.35l.224-.125a2.468,2.468,0,0,0-.75-.15q-.724,0-.95.95-.2.75-.649,3.275l-.326,1.65a7.064,7.064,0,0,0,1.375.05c.75,0,1.2.009,1.35.025s.226.075.226.175a2.777,2.777,0,0,1-.176.8.242.242,0,0,1-.238.137q-.187.014-1.336.013h-1.4l-.575,3.05q-.924,4.776-1.149,5.775-.852,3.774-2.276,5.125a2.814,2.814,0,0,1-1.825.8,2.266,2.266,0,0,1-1.5-.5,1.641,1.641,0,0,1-.6-1.325,1.839,1.839,0,0,1,.451-1.262,1.432,1.432,0,0,1,1.125-.513q1.1,0,1.1,1.05a1.411,1.411,0,0,1-.875,1.35Z"/><path class="l" d="M658.576,87.143c0,.15-.151.225-.451.225H657.8l-.7-.6q-4.5-4.1-4.5-11.9a20.1,20.1,0,0,1,.726-5.575,13.472,13.472,0,0,1,3.774-6.325c.116-.1.25-.212.4-.337s.25-.213.3-.263h.325a.589.589,0,0,1,.375.075.218.218,0,0,1,.076.15q0,.1-.276.375-3.876,4.1-3.875,11.9t3.875,11.9Q658.576,87.042,658.576,87.143Z"/><path class="l" d="M661.425,74.168a.415.415,0,0,1-.15-.275,4.747,4.747,0,0,1,.775-1.725A4.288,4.288,0,0,1,665,70.118a4.154,4.154,0,0,1,.526-.05,3.035,3.035,0,0,1,1.612.45,2.7,2.7,0,0,1,1.063,1.125c.216-.283.35-.458.4-.525a2.769,2.769,0,0,1,2.125-1.05,2.354,2.354,0,0,1,1.662.588,1.88,1.88,0,0,1,.638,1.437,1.966,1.966,0,0,1-.438,1.3,1.437,1.437,0,0,1-1.162.525,1.1,1.1,0,0,1-.775-.275.936.936,0,0,1-.3-.725,1.59,1.59,0,0,1,1.25-1.575,1.029,1.029,0,0,0-.275-.175,1.428,1.428,0,0,0-.725-.15,1.656,1.656,0,0,0-.476.05,2.622,2.622,0,0,0-1.4,1.65q-.075.2-.726,2.788t-.7,2.912a3.741,3.741,0,0,0-.075.75,1.281,1.281,0,0,0,.35.95,1.247,1.247,0,0,0,.924.35,2.583,2.583,0,0,0,1.9-.887,4.621,4.621,0,0,0,1.15-1.963c.05-.166.1-.263.15-.287a1.2,1.2,0,0,1,.4-.038c.316,0,.475.067.475.2,0,.017-.017.109-.05.275a5.434,5.434,0,0,1-1.75,2.7,3.942,3.942,0,0,1-2.475.925,2.879,2.879,0,0,1-2.65-1.575,3.5,3.5,0,0,1-1.85,1.5,3.149,3.149,0,0,1-.65.05,2.177,2.177,0,0,1-2.05-1.025,1.931,1.931,0,0,1-.25-1,1.887,1.887,0,0,1,.45-1.275,1.447,1.447,0,0,1,1.15-.525.94.94,0,0,1,1.075,1.05,1.411,1.411,0,0,1-.875,1.35l-.125.063-.125.062a.188.188,0,0,1-.075.025l-.076.025q0,.075.375.225a1.667,1.667,0,0,0,.651.125,1.848,1.848,0,0,0,1.55-1.125,18.938,18.938,0,0,0,.975-3.25q.15-.575.324-1.275c.118-.466.2-.825.263-1.075s.1-.4.112-.45a6.018,6.018,0,0,0,.125-.975,1.345,1.345,0,0,0-.324-.95,1.17,1.17,0,0,0-.9-.35,2.61,2.61,0,0,0-1.95.863,4.734,4.734,0,0,0-1.15,1.987c-.034.15-.071.237-.113.263a1.206,1.206,0,0,1-.412.037Z"/><path class="l" d="M675.775,62.393l.1-.025h.551l.7.6q4.5,4.1,4.5,11.9a19.737,19.737,0,0,1-.724,5.55,13.49,13.49,0,0,1-3.776,6.35c-.116.1-.25.212-.4.337s-.25.213-.3.263h-.3a.916.916,0,0,1-.386-.05c-.059-.033-.088-.117-.088-.25.016-.017.108-.125.275-.325q3.875-4.024,3.875-11.875t-3.875-11.875c-.167-.2-.259-.308-.275-.325A.293.293,0,0,1,675.775,62.393Z"/><path class="l" d="M685.4,72.443a.545.545,0,0,1,.349-.5h15.925a.548.548,0,0,1,.375.5.565.565,0,0,1-.349.475l-7.951.025H685.8A.5.5,0,0,1,685.4,72.443Zm0,4.85a.5.5,0,0,1,.4-.5h15.9a.915.915,0,0,0,.112.088,1.261,1.261,0,0,1,.125.1.425.425,0,0,1,.075.125.5.5,0,0,1,.037.188.546.546,0,0,1-.375.5H685.749A.543.543,0,0,1,685.4,77.293Z"/><rect class="l" x="712" y="74.25" width="90" height="1.5" rx="0.75"/><path class="n" d="M309.722,165.912c57.51-116.685,179.194-59.4,223.8,3.924"/><path class="l" d="M540,180.023c-4.851-3.628-11.7-7.6-17.264-9.2l9.857-2.27,6.123-8.049C537.886,166.239,538.688,174.109,540,180.023Z"/><path class="l" d="M364.076,55.043q0-.225.137-2.775t.138-3.225h11.725a.651.651,0,0,1,.15.475,1.428,1.428,0,0,1-.025.4q-.051.075-4.7,7.5t-4.674,7.45c-.017.017.091.025.325.025h1.775q2.224-.024,2.449-.05a4.91,4.91,0,0,0,2.476-.925,3.722,3.722,0,0,0,1.175-2.125,24.816,24.816,0,0,0,.325-2.5v-.225h1v.2q-.025.051-.226,3.313t-.2,3.337v.2H369.9l-6.026-.025-.074-.05a.934.934,0,0,1-.075-.45v-.35q.1-.2,2.462-3.95t4.663-7.412q2.3-3.663,2.3-3.688-3.6,0-3.925.025a4.153,4.153,0,0,0-3.351,1.575,6,6,0,0,0-.8,3.2c0,.034-.167.05-.5.05Z"/><path class="l" d="M378.326,60.768a5.7,5.7,0,0,1,1.45-3.913,5.587,5.587,0,0,1,4.1-1.937,5.168,5.168,0,0,1,3.776,1.6,5.76,5.76,0,0,1,1.75,4.225,6.6,6.6,0,0,1-.125,1.175,5.321,5.321,0,0,1-1.413,2.738,5.523,5.523,0,0,1-2.688,1.562,5.154,5.154,0,0,1-1.3.15,5.276,5.276,0,0,1-1.325-.15,5.579,5.579,0,0,1-4.224-5.45Zm6-4.9a2.347,2.347,0,0,0-.4-.025,3.473,3.473,0,0,0-1.425.3,3.283,3.283,0,0,0-1.674,2.725q-.051.45-.05,1.6a8.558,8.558,0,0,0,.474,3.375,2.742,2.742,0,0,0,2.625,1.525q3.051,0,3.05-4.075v-.8a12.4,12.4,0,0,0-.125-2.2A2.974,2.974,0,0,0,384.326,55.868Z"/><path class="l" d="M390.826,60.768a5.7,5.7,0,0,1,1.45-3.913,5.587,5.587,0,0,1,4.1-1.937,5.168,5.168,0,0,1,3.776,1.6,5.76,5.76,0,0,1,1.75,4.225,6.6,6.6,0,0,1-.125,1.175,5.321,5.321,0,0,1-1.413,2.738,5.523,5.523,0,0,1-2.688,1.562,5.154,5.154,0,0,1-1.3.15,5.276,5.276,0,0,1-1.325-.15,5.579,5.579,0,0,1-4.224-5.45Zm6-4.9a2.347,2.347,0,0,0-.4-.025,3.473,3.473,0,0,0-1.425.3,3.283,3.283,0,0,0-1.674,2.725q-.051.45-.05,1.6a8.558,8.558,0,0,0,.474,3.375,2.742,2.742,0,0,0,2.625,1.525q3.051,0,3.05-4.075v-.8a12.4,12.4,0,0,0-.125-2.2A2.974,2.974,0,0,0,396.826,55.868Z"/><path class="l" d="M407.326,64.618c.132.234.525.35,1.174.35h.75v1.15h-.2a52.286,52.286,0,0,0-5.6,0h-.2v-1.15H404q.976,0,1.175-.35v-.775q0-.35.013-.787t.013-.975V61.043q0-.774-.013-1.662t-.013-1.463v-.575a.827.827,0,0,0-.362-.637,2.933,2.933,0,0,0-1.112-.213h-.451v-.575q0-.575.05-.575l.25-.025c.167-.016.4-.033.713-.05l.912-.05c.283-.016.584-.037.9-.062s.558-.046.724-.063.259-.025.276-.025h.075v1a7.065,7.065,0,0,0,.024.95l.026-.025a4.4,4.4,0,0,1,3.825-1.925q2.424.075,2.974,1.9l.05.125c.4-.5.625-.775.676-.825a4.2,4.2,0,0,1,2.975-1.2q3.124,0,3.424,2.825.025.175.026,3.475,0,3.2.024,3.25a.537.537,0,0,0,.3.275,8.768,8.768,0,0,0,1.225.075h.4v1.15h-.2a52.323,52.323,0,0,0-5.6,0h-.2v-1.15h.6c.882,0,1.325-.133,1.325-.4q.024-.05.024-3.45-.024-3.375-.05-3.575a2.194,2.194,0,0,0-.562-1.162,1.687,1.687,0,0,0-1.188-.363,2.708,2.708,0,0,0-1.974.85,3.586,3.586,0,0,0-1.026,2.2c0,.017,0,.171-.012.463s-.012.662-.012,1.112v2.8c0,.217,0,.412.012.588s.012.321.012.437v.15q.2.351,1.175.35h.75v1.15h-.2a52.323,52.323,0,0,0-5.6,0h-.2v-1.15h.6q1.325,0,1.325-.4.024-.05.024-3.45-.024-3.375-.049-3.575a2.216,2.216,0,0,0-.563-1.162,1.686,1.686,0,0,0-1.187-.363,2.711,2.711,0,0,0-1.975.85,3.575,3.575,0,0,0-1.025,2.2v.463q0,.437-.013,1.112t-.013,1.275v.788c0,.274,0,.521.013.737s.013.412.013.588v.587Z"/><path class="l" d="M445.451,65.393a.476.476,0,0,1-.151.35.506.506,0,0,1-.375.15q-.125,0-.55-.4t-2.349-2.325l-2.6-2.6L436.8,63.193q-2.649,2.6-2.724,2.65a.794.794,0,0,1-.2.05.515.515,0,0,1-.5-.5.839.839,0,0,1,.05-.2q.075-.15,2.651-2.725l2.6-2.6-2.6-2.6q-2.576-2.574-2.651-2.725a.828.828,0,0,1-.05-.2.515.515,0,0,1,.5-.5.843.843,0,0,1,.2.05q.073.051,2.724,2.65l2.625,2.625,2.6-2.6q1.925-1.925,2.349-2.325c.284-.266.467-.4.55-.4a.506.506,0,0,1,.375.15.477.477,0,0,1,.151.35.445.445,0,0,1-.05.2q-.051.1-2.651,2.7l-2.6,2.625,2.6,2.625q2.6,2.6,2.651,2.7A.451.451,0,0,1,445.451,65.393Z"/><path class="l" d="M465.8,66.118q-.425-.075-3.974-.075-3.5,0-3.925.075h-.3v-1.15h.649a14.075,14.075,0,0,0,1.875-.075,1.6,1.6,0,0,0,.6-.3V51.668a.591.591,0,0,0-.2.075,7.363,7.363,0,0,1-2.575.475h-.475v-1.15h.475a6.97,6.97,0,0,0,3.5-.95,3.47,3.47,0,0,0,.775-.575q.05-.075.3-.075a.634.634,0,0,1,.425.15v7.475l.025,7.5a2.419,2.419,0,0,0,1.625.375h1.475v1.15Z"/><path class="l" d="M470.3,51.493a4.412,4.412,0,0,1,3.825-2.025,4.613,4.613,0,0,1,3.2,1.25,5.451,5.451,0,0,1,1.15,1.7,14.317,14.317,0,0,1,.925,5.7,13.056,13.056,0,0,1-1.075,5.925,4.335,4.335,0,0,1-2.05,2.1,4.71,4.71,0,0,1-2.125.525,4.4,4.4,0,0,1-4.2-2.625,13.041,13.041,0,0,1-1.076-5.925,19.5,19.5,0,0,1,.313-3.837A8.391,8.391,0,0,1,470.3,51.493Zm5.625-.3a2.3,2.3,0,0,0-1.774-.8,2.382,2.382,0,0,0-1.8.8,3.006,3.006,0,0,0-.75,1.4,15.352,15.352,0,0,0-.25,2.85c0,.1,0,.425-.013.975s-.012,1.009-.012,1.375q0,2.4.049,3.35a14.36,14.36,0,0,0,.3,2.513,2.851,2.851,0,0,0,.75,1.312,2.219,2.219,0,0,0,1.726.75,2.192,2.192,0,0,0,1.7-.75,2.851,2.851,0,0,0,.75-1.312,14.459,14.459,0,0,0,.3-2.513q.05-.95.05-3.35,0-.549-.013-1.375t-.013-.975a15.352,15.352,0,0,0-.25-2.85A3.006,3.006,0,0,0,475.925,51.193Z"/><path class="n" d="M900,165.912c57.51-116.685,179.193-59.4,223.8,3.924"/><path class="l" d="M1130.278,180.023c-4.852-3.628-11.695-7.6-17.264-9.2l9.857-2.27,6.122-8.049C1128.163,166.239,1128.965,174.109,1130.278,180.023Z"/><path class="l" d="M954.353,55.043q0-.225.138-2.775t.137-3.225h11.725a.651.651,0,0,1,.15.475,1.384,1.384,0,0,1-.025.4q-.049.075-4.7,7.5t-4.676,7.45c-.017.017.092.025.325.025H959.2q2.226-.024,2.451-.05a4.9,4.9,0,0,0,2.474-.925,3.716,3.716,0,0,0,1.175-2.125,24.225,24.225,0,0,0,.325-2.5v-.225h1v.2q-.024.051-.224,3.313t-.2,3.337v.2h-6.025l-6.024-.025-.076-.05a.959.959,0,0,1-.075-.45v-.35q.1-.2,2.463-3.95t4.662-7.412q2.3-3.663,2.3-3.688-3.6,0-3.925.025a4.149,4.149,0,0,0-3.349,1.575,6,6,0,0,0-.8,3.2c0,.034-.166.05-.5.05Z"/><path class="l" d="M968.6,60.768a5.7,5.7,0,0,1,1.45-3.913,5.592,5.592,0,0,1,4.1-1.937,5.166,5.166,0,0,1,3.774,1.6,5.756,5.756,0,0,1,1.75,4.225,6.6,6.6,0,0,1-.125,1.175,5.321,5.321,0,0,1-1.413,2.738,5.52,5.52,0,0,1-2.687,1.562,5.157,5.157,0,0,1-1.3.15,5.278,5.278,0,0,1-1.326-.15,5.584,5.584,0,0,1-4.225-5.45Zm6-4.9a2.341,2.341,0,0,0-.4-.025,3.462,3.462,0,0,0-1.424.3,3.283,3.283,0,0,0-1.676,2.725q-.049.45-.05,1.6a8.513,8.513,0,0,0,.476,3.375,2.74,2.74,0,0,0,2.625,1.525q3.05,0,3.049-4.075v-.8a12.5,12.5,0,0,0-.125-2.2A2.975,2.975,0,0,0,974.6,55.868Z"/><path class="l" d="M981.1,60.768a5.7,5.7,0,0,1,1.45-3.913,5.592,5.592,0,0,1,4.1-1.937,5.166,5.166,0,0,1,3.774,1.6,5.756,5.756,0,0,1,1.75,4.225,6.6,6.6,0,0,1-.125,1.175,5.321,5.321,0,0,1-1.413,2.738,5.52,5.52,0,0,1-2.687,1.562,5.157,5.157,0,0,1-1.3.15,5.278,5.278,0,0,1-1.326-.15,5.584,5.584,0,0,1-4.225-5.45Zm6-4.9a2.341,2.341,0,0,0-.4-.025,3.462,3.462,0,0,0-1.424.3,3.283,3.283,0,0,0-1.676,2.725q-.049.45-.05,1.6a8.513,8.513,0,0,0,.476,3.375,2.74,2.74,0,0,0,2.625,1.525q3.05,0,3.049-4.075v-.8a12.5,12.5,0,0,0-.125-2.2A2.975,2.975,0,0,0,987.1,55.868Z"/><path class="l" d="M997.6,64.618q.2.351,1.176.35h.75v1.15h-.2a52.3,52.3,0,0,0-5.6,0h-.2v-1.15h.75q.974,0,1.174-.35v-.775c0-.233,0-.5.013-.787s.012-.617.012-.975V61.043q0-.774-.012-1.662c-.01-.592-.013-1.079-.013-1.463v-.575a.822.822,0,0,0-.362-.637,2.93,2.93,0,0,0-1.113-.213h-.449v-.575c0-.383.015-.575.049-.575l.25-.025q.251-.024.712-.05l.913-.05q.425-.024.9-.062t.725-.063c.167-.016.258-.025.275-.025h.075v1a6.922,6.922,0,0,0,.025.95l.025-.025a4.4,4.4,0,0,1,3.825-1.925q2.424.075,2.976,1.9l.049.125q.6-.75.675-.825a4.2,4.2,0,0,1,2.975-1.2q3.126,0,3.426,2.825.023.175.024,3.475,0,3.2.025,3.25a.535.535,0,0,0,.3.275,8.768,8.768,0,0,0,1.225.075h.4v1.15h-.2a52.3,52.3,0,0,0-5.6,0h-.2v-1.15h.6q1.325,0,1.325-.4.026-.05.025-3.45-.024-3.375-.049-3.575a2.216,2.216,0,0,0-.563-1.162,1.688,1.688,0,0,0-1.187-.363,2.714,2.714,0,0,0-1.976.85,3.579,3.579,0,0,0-1.024,2.2c0,.017,0,.171-.014.463s-.012.662-.012,1.112v2.8c0,.217,0,.412.012.588s.014.321.014.437v.15q.2.351,1.174.35h.75v1.15h-.2a52.286,52.286,0,0,0-5.6,0h-.2v-1.15h.6q1.326,0,1.325-.4.024-.05.026-3.45-.027-3.375-.051-3.575a2.209,2.209,0,0,0-.563-1.162,1.683,1.683,0,0,0-1.187-.363,2.712,2.712,0,0,0-1.975.85,3.58,3.58,0,0,0-1.025,2.2v.463q0,.437-.012,1.112c-.01.45-.013.875-.013,1.275v.788c0,.274,0,.521.013.737s.012.412.012.588v.587Z"/><path class="l" d="M1035.728,65.393a.479.479,0,0,1-.15.35.509.509,0,0,1-.375.15c-.083,0-.267-.133-.55-.4s-1.067-1.041-2.35-2.325l-2.6-2.6-2.625,2.625q-2.651,2.6-2.725,2.65a.79.79,0,0,1-.2.05.513.513,0,0,1-.5-.5.79.79,0,0,1,.05-.2q.075-.15,2.65-2.725l2.6-2.6-2.6-2.6q-2.576-2.574-2.65-2.725a.78.78,0,0,1-.05-.2.513.513,0,0,1,.5-.5.839.839,0,0,1,.2.05q.075.051,2.725,2.65l2.625,2.625,2.6-2.6q1.924-1.925,2.35-2.325c.283-.266.467-.4.55-.4a.509.509,0,0,1,.375.15.48.48,0,0,1,.15.35.445.445,0,0,1-.05.2q-.051.1-2.65,2.7l-2.6,2.625,2.6,2.625q2.6,2.6,2.65,2.7A.451.451,0,0,1,1035.728,65.393Z"/><path class="l" d="M1056.078,66.118q-.426-.075-3.975-.075-3.5,0-3.925.075h-.3v-1.15h.651a14.1,14.1,0,0,0,1.875-.075,1.605,1.605,0,0,0,.6-.3V51.668a.614.614,0,0,0-.2.075,7.363,7.363,0,0,1-2.575.475h-.475v-1.15h.475a6.97,6.97,0,0,0,3.5-.95,3.425,3.425,0,0,0,.775-.575q.05-.075.3-.075a.631.631,0,0,1,.425.15v7.475l.025,7.5a2.419,2.419,0,0,0,1.625.375h1.475v1.15Z"/><path class="l" d="M1060.578,51.493a4.41,4.41,0,0,1,3.826-2.025,4.609,4.609,0,0,1,3.2,1.25,5.434,5.434,0,0,1,1.15,1.7,14.3,14.3,0,0,1,.925,5.7,13.043,13.043,0,0,1-1.075,5.925,4.331,4.331,0,0,1-2.05,2.1,4.71,4.71,0,0,1-2.125.525,4.4,4.4,0,0,1-4.2-2.625,13.045,13.045,0,0,1-1.074-5.925,19.429,19.429,0,0,1,.312-3.837A8.349,8.349,0,0,1,1060.578,51.493Zm5.625-.3a2.3,2.3,0,0,0-1.775-.8,2.382,2.382,0,0,0-1.8.8,3.006,3.006,0,0,0-.75,1.4,15.442,15.442,0,0,0-.25,2.85q0,.15-.012.975t-.013,1.375q0,2.4.051,3.35a14.285,14.285,0,0,0,.3,2.513,2.834,2.834,0,0,0,.75,1.312,2.219,2.219,0,0,0,1.725.75,2.19,2.19,0,0,0,1.7-.75,2.834,2.834,0,0,0,.75-1.312,14.36,14.36,0,0,0,.3-2.513q.049-.95.05-3.35,0-.549-.012-1.375c-.01-.55-.013-.875-.013-.975a15.532,15.532,0,0,0-.25-2.85A3.006,3.006,0,0,0,1066.2,51.193Z"/><path class="h" d="M560,478.974h0c126.04-40.1,236.217-148.566,320-247.833"/><path class="h" d="M1040,512.139h0q163.457-121.16,320-251.291"/><circle class="o" cx="1200" cy="390" r="4.444"/><circle class="o" cx="720" cy="390" r="4.444"/><rect class="p" x="80" y="230" width="320" height="320.001"/><rect class="p" x="560" y="230" width="320" height="320.001"/><rect class="p" x="1040" y="230" width="320" height="320.001"/><circle class="o" cx="240" cy="390" r="4.444"/><g class="q"><path class="l" d="M1021.163,574.676a3.92,3.92,0,0,1,3.4-1.8,4.1,4.1,0,0,1,2.845,1.111,4.858,4.858,0,0,1,1.022,1.511,12.716,12.716,0,0,1,.822,5.066,11.6,11.6,0,0,1-.956,5.267,3.856,3.856,0,0,1-1.822,1.867,4.186,4.186,0,0,1-1.889.467,3.915,3.915,0,0,1-3.733-2.334,11.6,11.6,0,0,1-.956-5.267,17.34,17.34,0,0,1,.278-3.411A7.471,7.471,0,0,1,1021.163,574.676Zm5-.267a2.053,2.053,0,0,0-1.578-.711,2.121,2.121,0,0,0-1.6.711,2.682,2.682,0,0,0-.666,1.244,13.628,13.628,0,0,0-.223,2.534q0,.132-.011.867c-.007.488-.01.9-.01,1.221q0,2.135.044,2.979a12.541,12.541,0,0,0,.266,2.233,2.515,2.515,0,0,0,.667,1.166,1.969,1.969,0,0,0,1.533.667,1.942,1.942,0,0,0,1.511-.667,2.523,2.523,0,0,0,.667-1.166,12.809,12.809,0,0,0,.267-2.233q.043-.846.045-2.979c0-.325,0-.733-.012-1.221s-.011-.779-.011-.867a13.717,13.717,0,0,0-.223-2.534A2.673,2.673,0,0,0,1026.163,574.409Z"/><path class="l" d="M1031.874,586.343a1.293,1.293,0,0,1,1.333-1.334,1.312,1.312,0,0,1,.967.389,1.261,1.261,0,0,1,.389.922,1.345,1.345,0,0,1-2.689.023Z"/><path class="l" d="M1040.163,585.542a1.261,1.261,0,0,1-.233.778.945.945,0,0,1-.611.378l-.089.023c0,.014.052.054.155.122a.952.952,0,0,0,.245.122,3.181,3.181,0,0,0,1.267.222,2.509,2.509,0,0,0,.577-.044,3.041,3.041,0,0,0,1.8-1.378,7.888,7.888,0,0,0,.867-4.312V581.3l-.111.178a2.842,2.842,0,0,1-2.556,1.511,3.762,3.762,0,0,1-3.021-1.534,5.938,5.938,0,0,1-.857-5.577,5.334,5.334,0,0,1,1.19-1.667,4.391,4.391,0,0,1,2.755-1.311l.067-.022h.111c.029,0,.077,0,.145.011a1.4,1.4,0,0,0,.166.011,3.154,3.154,0,0,1,.644.044,4.211,4.211,0,0,1,2.822,2.289,11.369,11.369,0,0,1,.957,5.023,9.839,9.839,0,0,1-1.334,5.267,6.077,6.077,0,0,1-1.878,1.944,4.22,4.22,0,0,1-2.3.7,3.61,3.61,0,0,1-2.256-.656,2.249,2.249,0,0,1-.856-1.9q0-1.245,1.178-1.245a1.092,1.092,0,0,1,1.156,1.178Zm2.245-11.711a3.427,3.427,0,0,0-.622-.044,1.969,1.969,0,0,0-1.445.6,2.37,2.37,0,0,0-.611,1.167,12.64,12.64,0,0,0-.145,2.322,20.053,20.053,0,0,0,.112,2.4,2.23,2.23,0,0,0,.655,1.368,1.929,1.929,0,0,0,1.389.522h.088a2.045,2.045,0,0,0,1.746-1.256,6.469,6.469,0,0,0,.544-2.789,12.209,12.209,0,0,0-.178-2.489,2.39,2.39,0,0,0-.544-1.155A1.865,1.865,0,0,0,1042.408,573.831Z"/><path class="l" d="M1051.275,585.542a1.255,1.255,0,0,1-.234.778.945.945,0,0,1-.611.378l-.089.023c0,.014.052.054.155.122a.939.939,0,0,0,.246.122,3.173,3.173,0,0,0,1.266.222,2.5,2.5,0,0,0,.577-.044,3.041,3.041,0,0,0,1.8-1.378,7.888,7.888,0,0,0,.867-4.312V581.3l-.111.178a2.841,2.841,0,0,1-2.556,1.511,3.763,3.763,0,0,1-3.021-1.534,4.8,4.8,0,0,1-1.2-3.466,5.529,5.529,0,0,1,.343-2.111,5.334,5.334,0,0,1,1.19-1.667,4.391,4.391,0,0,1,2.756-1.311l.066-.022h.111c.03,0,.078,0,.145.011a1.4,1.4,0,0,0,.166.011,3.165,3.165,0,0,1,.645.044,4.214,4.214,0,0,1,2.822,2.289,11.37,11.37,0,0,1,.956,5.023,9.83,9.83,0,0,1-1.334,5.267,6.077,6.077,0,0,1-1.878,1.944,4.217,4.217,0,0,1-2.3.7,3.614,3.614,0,0,1-2.256-.656,2.249,2.249,0,0,1-.855-1.9q0-1.245,1.178-1.245a1.092,1.092,0,0,1,1.156,1.178Zm2.244-11.711a3.427,3.427,0,0,0-.622-.044,1.965,1.965,0,0,0-1.444.6,2.364,2.364,0,0,0-.612,1.167,12.757,12.757,0,0,0-.144,2.322,20.3,20.3,0,0,0,.111,2.4,2.23,2.23,0,0,0,.655,1.368,1.931,1.931,0,0,0,1.389.522h.089a2.043,2.043,0,0,0,1.745-1.256,6.469,6.469,0,0,0,.544-2.789,12.209,12.209,0,0,0-.178-2.489,2.39,2.39,0,0,0-.544-1.155A1.865,1.865,0,0,0,1053.519,573.831Z"/></g><g class="q"><path class="l" d="M1204.8,583.931q-.378-.068-3.533-.067-3.111,0-3.488.067h-.268v-1.023h.578a12.643,12.643,0,0,0,1.667-.066,1.444,1.444,0,0,0,.533-.267V571.086a.523.523,0,0,0-.177.067,6.535,6.535,0,0,1-2.289.422h-.422v-1.022h.422a6.183,6.183,0,0,0,3.111-.845,3.011,3.011,0,0,0,.688-.511c.03-.044.12-.066.267-.066a.561.561,0,0,1,.378.133v6.644l.022,6.667a2.154,2.154,0,0,0,1.445.333h1.311v1.023Z"/></g><g class="q"><path class="l" d="M1350.165,585.709q-.378-.067-3.533-.066-3.111,0-3.488.066h-.268v-1.022h.578a12.566,12.566,0,0,0,1.667-.067,1.44,1.44,0,0,0,.534-.266v-11.49a.528.528,0,0,0-.178.068,6.577,6.577,0,0,1-2.289.422h-.422v-1.023h.422a6.183,6.183,0,0,0,3.111-.845,3.067,3.067,0,0,0,.689-.51c.029-.044.119-.067.266-.067a.558.558,0,0,1,.378.133v6.645l.023,6.667a2.155,2.155,0,0,0,1.444.333h1.312v1.022Z"/><path class="l" d="M1353.766,584.376a1.293,1.293,0,0,1,1.333-1.334,1.309,1.309,0,0,1,.967.39,1.257,1.257,0,0,1,.388.922,1.344,1.344,0,0,1-2.688.022Z"/><path class="l" d="M1360.344,572.709a3.919,3.919,0,0,1,3.4-1.8,4.093,4.093,0,0,1,2.844,1.112,4.843,4.843,0,0,1,1.023,1.51,12.718,12.718,0,0,1,.822,5.067,11.593,11.593,0,0,1-.956,5.266,3.852,3.852,0,0,1-1.822,1.867,4.186,4.186,0,0,1-1.889.467,3.915,3.915,0,0,1-3.733-2.334,11.593,11.593,0,0,1-.956-5.266,17.249,17.249,0,0,1,.278-3.411A7.447,7.447,0,0,1,1360.344,572.709Zm5-.267a2.054,2.054,0,0,0-1.578-.711,2.125,2.125,0,0,0-1.6.711,2.689,2.689,0,0,0-.666,1.245,13.638,13.638,0,0,0-.222,2.533q0,.133-.011.867t-.011,1.222q0,2.133.044,2.978a12.641,12.641,0,0,0,.267,2.234,2.52,2.52,0,0,0,.667,1.166,1.971,1.971,0,0,0,1.533.667,1.948,1.948,0,0,0,1.511-.667,2.528,2.528,0,0,0,.667-1.166,12.762,12.762,0,0,0,.266-2.234q.045-.844.045-2.978,0-.489-.011-1.222c-.008-.489-.011-.778-.011-.867a13.794,13.794,0,0,0-.223-2.533A2.68,2.68,0,0,0,1365.344,572.442Z"/><path class="l" d="M1378.566,585.709q-.378-.067-3.533-.066-3.112,0-3.489.066h-.267v-1.022h.578a12.587,12.587,0,0,0,1.667-.067,1.438,1.438,0,0,0,.533-.266v-11.49a.536.536,0,0,0-.178.068,6.572,6.572,0,0,1-2.289.422h-.422v-1.023h.422a6.186,6.186,0,0,0,3.112-.845,3.06,3.06,0,0,0,.688-.51c.029-.044.119-.067.267-.067a.561.561,0,0,1,.378.133v6.645l.022,6.667a2.157,2.157,0,0,0,1.444.333h1.312v1.022Z"/></g><g class="q"><path class="l" d="M975.976,380.689v-1.622h5.911v1.622Z"/><path class="l" d="M992.375,384.667q-.378-.066-3.533-.067-3.111,0-3.488.067h-.268v-1.022h.578a12.4,12.4,0,0,0,1.667-.067,1.44,1.44,0,0,0,.534-.266V371.823a.531.531,0,0,0-.178.066,6.554,6.554,0,0,1-2.289.423h-.422v-1.023h.422a6.2,6.2,0,0,0,3.111-.844,3.1,3.1,0,0,0,.689-.511c.029-.045.119-.067.266-.067a.563.563,0,0,1,.378.133v6.645l.023,6.667a2.149,2.149,0,0,0,1.444.333h1.311v1.022Z"/><path class="l" d="M995.976,383.333A1.293,1.293,0,0,1,997.309,382a1.312,1.312,0,0,1,.967.389,1.261,1.261,0,0,1,.388.923,1.344,1.344,0,0,1-2.688.021Z"/><path class="l" d="M1002.8,379.912a1.225,1.225,0,0,1,.9.366,1.248,1.248,0,0,1,.367.922,1.144,1.144,0,0,1-.378.867,1.2,1.2,0,0,1-.845.355h-.155l.066.112a2.9,2.9,0,0,0,1.023,1.177,2.823,2.823,0,0,0,1.622.467,2.359,2.359,0,0,0,2.266-1.333,6.765,6.765,0,0,0,.423-2.845,5.529,5.529,0,0,0-.6-3.088,1.748,1.748,0,0,0-1.422-.734,2.862,2.862,0,0,0-2.622,1.511.431.431,0,0,1-.167.189.987.987,0,0,1-.323.034c-.251,0-.392-.045-.421-.134q-.047-.089-.045-3.889,0-.666-.011-1.577c-.008-.608-.011-.993-.011-1.156q0-1.245.133-1.244a.126.126,0,0,1,.089-.045l.4.133a7.876,7.876,0,0,0,2.955.578,7.561,7.561,0,0,0,3.023-.622.7.7,0,0,1,.289-.089c.118,0,.178.133.178.4v.289a5.684,5.684,0,0,1-4.556,2.155,5.327,5.327,0,0,1-1.244-.133l-.223-.044v3.822a3.8,3.8,0,0,1,3.511-.911,4.2,4.2,0,0,1,2.433,1.689,5.1,5.1,0,0,1,.945,3.066,4.862,4.862,0,0,1-1.411,3.489,4.636,4.636,0,0,1-3.478,1.467,3.707,3.707,0,0,1-2.378-.778,2.484,2.484,0,0,1-.733-.733,3.927,3.927,0,0,1-.844-1.978c0-.044,0-.115-.012-.211s-.01-.167-.01-.211a1.321,1.321,0,0,1,.355-.978A1.23,1.23,0,0,1,1002.8,379.912Z"/><path class="l" d="M1012.754,374.489q.021-.045.377-2.422l.356-2.378c0-.029.148-.044.445-.044h.444v.089q0,.222.333.377a3.5,3.5,0,0,0,1.167.2q.834.043,3.744.044h2.689v.867l-1.511,2.066c-.221.311-.474.656-.756,1.034s-.5.67-.644.877-.237.334-.267.378a10.274,10.274,0,0,0-1.377,4.822q-.088.912-.111,2.489,0,.312-.012.633c-.007.215-.011.39-.011.523v.2a1.134,1.134,0,0,1-.433.644,1.192,1.192,0,0,1-.744.267,1.082,1.082,0,0,1-.856-.367,1.477,1.477,0,0,1-.322-1.011q0-.333.089-1.267a15.555,15.555,0,0,1,2.066-6.022q.446-.711,1.867-2.689l1.022-1.4h-2.066a26.027,26.027,0,0,0-4.067.134c-.059.029-.14.193-.244.488a7.463,7.463,0,0,0-.223,1.045,2.653,2.653,0,0,1-.066.422v.067h-.889Z"/></g><g class="q"><path class="l" d="M975.976,538.28v-1.622h5.911v1.622Z"/><path class="l" d="M992.375,542.258q-.378-.068-3.533-.067-3.111,0-3.488.067h-.268v-1.023h.578a12.643,12.643,0,0,0,1.667-.066,1.447,1.447,0,0,0,.534-.267V529.413a.542.542,0,0,0-.178.067,6.531,6.531,0,0,1-2.289.422h-.422V528.88h.422a6.183,6.183,0,0,0,3.111-.845,3.04,3.04,0,0,0,.689-.511c.029-.044.119-.066.266-.066a.558.558,0,0,1,.378.133v6.644l.023,6.667a2.149,2.149,0,0,0,1.444.333h1.311v1.023Z"/><path class="l" d="M995.976,540.925a1.293,1.293,0,0,1,1.333-1.334,1.312,1.312,0,0,1,.967.389,1.26,1.26,0,0,1,.388.922,1.344,1.344,0,0,1-2.688.023Z"/><path class="l" d="M1002.8,537.5a1.222,1.222,0,0,1,.9.367,1.248,1.248,0,0,1,.367.922,1.145,1.145,0,0,1-.378.867,1.2,1.2,0,0,1-.845.356h-.155l.066.11a2.9,2.9,0,0,0,1.023,1.179,2.83,2.83,0,0,0,1.622.466,2.36,2.36,0,0,0,2.266-1.333,6.768,6.768,0,0,0,.423-2.845,5.531,5.531,0,0,0-.6-3.089,1.752,1.752,0,0,0-1.422-.733,2.861,2.861,0,0,0-2.622,1.511.438.438,0,0,1-.167.189,1,1,0,0,1-.323.033c-.251,0-.392-.044-.421-.133q-.047-.089-.045-3.889c0-.445,0-.97-.011-1.578s-.011-.992-.011-1.155q0-1.245.133-1.245a.128.128,0,0,1,.089-.044l.4.133a7.876,7.876,0,0,0,2.955.578,7.561,7.561,0,0,0,3.023-.622.68.68,0,0,1,.289-.089c.118,0,.178.133.178.4v.289a5.683,5.683,0,0,1-4.556,2.157,5.324,5.324,0,0,1-1.244-.134l-.223-.045v3.822a4.117,4.117,0,0,1,2.6-1.021,4.058,4.058,0,0,1,3.344,1.8,5.1,5.1,0,0,1,.945,3.066,4.86,4.86,0,0,1-1.411,3.489,4.636,4.636,0,0,1-3.478,1.467,3.707,3.707,0,0,1-2.378-.778,2.476,2.476,0,0,1-.733-.734,3.924,3.924,0,0,1-.844-1.977c0-.045,0-.114-.012-.211s-.01-.167-.01-.211a1.325,1.325,0,0,1,.355-.979A1.234,1.234,0,0,1,1002.8,537.5Z"/><path class="l" d="M1015.354,534.813a6.564,6.564,0,0,1-1.678-1.489,3.812,3.812,0,0,1-.233-3.644,3.955,3.955,0,0,1,1.433-1.611,3.9,3.9,0,0,1,2.166-.611,4.413,4.413,0,0,1,2.623.789,3.269,3.269,0,0,1,1.377,2.033,3.942,3.942,0,0,1,.023.533,3.317,3.317,0,0,1-.044.667,4.156,4.156,0,0,1-2.023,2.534l-.266.177q1.244.844,1.289.889a4.086,4.086,0,0,1,1.666,3.312,4.127,4.127,0,0,1-1.322,3.077,4.564,4.564,0,0,1-3.3,1.278,4.445,4.445,0,0,1-4.023-2,3.31,3.31,0,0,1-.555-1.934Q1012.487,536.392,1015.354,534.813Zm-1.444,3.956a2.782,2.782,0,0,0,.955,2.167,3.228,3.228,0,0,0,2.222.855,3.606,3.606,0,0,0,1.656-.378,2.753,2.753,0,0,0,1.122-.977,2.195,2.195,0,0,0,.378-1.223,2.261,2.261,0,0,0-.778-1.689q-.179-.177-1.845-1.266l-.677-.434c-.244-.155-.434-.277-.567-.366l-.177-.111-.267.133a4.321,4.321,0,0,0-1.845,2.222A3.634,3.634,0,0,0,1013.91,538.769Zm5.866-7.912a2.292,2.292,0,0,0-.622-1.622,2.76,2.76,0,0,0-1.511-.843,6.944,6.944,0,0,0-.733-.023,2.687,2.687,0,0,0-1.978.8,1.6,1.6,0,0,0-.556,1.223,1.746,1.746,0,0,0,.8,1.51q.111.112,1.422.934l1.289.844c.015-.015.111-.077.289-.189a2.351,2.351,0,0,0,.4-.3A2.887,2.887,0,0,0,1019.776,530.857Z"/></g><g class="q"><path class="l" d="M76.555,570.931a3.916,3.916,0,0,1,3.4-1.8,4.1,4.1,0,0,1,2.845,1.111,4.86,4.86,0,0,1,1.023,1.511,12.713,12.713,0,0,1,.822,5.066,11.6,11.6,0,0,1-.956,5.267,3.86,3.86,0,0,1-1.822,1.867,4.186,4.186,0,0,1-1.889.467,3.915,3.915,0,0,1-3.733-2.334,11.6,11.6,0,0,1-.957-5.267,17.247,17.247,0,0,1,.279-3.411A7.429,7.429,0,0,1,76.555,570.931Zm5-.267a2.051,2.051,0,0,0-1.578-.711,2.121,2.121,0,0,0-1.6.711,2.682,2.682,0,0,0-.666,1.244,13.638,13.638,0,0,0-.222,2.533q0,.133-.011.868c-.008.488-.011.9-.011,1.221q0,2.135.044,2.979a12.613,12.613,0,0,0,.267,2.233,2.515,2.515,0,0,0,.667,1.166,1.967,1.967,0,0,0,1.533.667,1.945,1.945,0,0,0,1.511-.667,2.523,2.523,0,0,0,.667-1.166,12.734,12.734,0,0,0,.266-2.233q.045-.846.045-2.979c0-.325,0-.733-.012-1.221s-.01-.779-.01-.868a13.886,13.886,0,0,0-.223-2.533A2.682,2.682,0,0,0,81.555,570.664Z"/></g><g class="q"><path class="l" d="M244.8,583.931q-.378-.068-3.533-.067-3.111,0-3.488.067h-.268v-1.023h.578a12.643,12.643,0,0,0,1.667-.066,1.444,1.444,0,0,0,.533-.267V571.086a.523.523,0,0,0-.177.067,6.535,6.535,0,0,1-2.289.422H237.4v-1.022h.422a6.183,6.183,0,0,0,3.111-.845,3.011,3.011,0,0,0,.688-.511c.03-.044.12-.066.267-.066a.561.561,0,0,1,.378.133v6.644l.022,6.667a2.154,2.154,0,0,0,1.445.333h1.311v1.023Z"/></g><g class="q"><path class="l" d="M397.753,574.4a1.237,1.237,0,0,1-.977-.4,1.414,1.414,0,0,1-.356-.977,3.646,3.646,0,0,1,1.211-2.745,4.08,4.08,0,0,1,2.9-1.144,4.823,4.823,0,0,1,3.166,1.033,4.345,4.345,0,0,1,1.545,2.7,6.822,6.822,0,0,1,.043.734,4.2,4.2,0,0,1-.777,2.422A14.734,14.734,0,0,1,402,578.575q-.8.688-2.221,2.044l-1.312,1.245,1.69.022a26.53,26.53,0,0,0,3.711-.111c.058-.014.132-.171.221-.466a13.953,13.953,0,0,0,.312-1.512v-.067h.888v.067l-.622,4.067v.067H396.42v-.422a1.527,1.527,0,0,1,.044-.512q.022-.022,1.867-2.111,2.423-2.688,3.112-3.555a6.45,6.45,0,0,0,1.488-3.712,3.887,3.887,0,0,0-.767-2.455,2.557,2.557,0,0,0-2.144-.989,2.439,2.439,0,0,0-2.089,1.156c-.029.059-.074.141-.133.244a.486.486,0,0,0-.067.133c0,.016.037.022.111.022a1.135,1.135,0,0,1,.9.4,1.385,1.385,0,0,1,.343.933,1.329,1.329,0,0,1-.366.945A1.266,1.266,0,0,1,397.753,574.4Z"/></g><g class="q"><path class="l" d="M25.775,461.213v-1.622h5.911v1.622Z"/><path class="l" d="M35.374,455.657a1.24,1.24,0,0,1-.977-.4,1.42,1.42,0,0,1-.356-.978,3.645,3.645,0,0,1,1.211-2.744,4.075,4.075,0,0,1,2.9-1.144,4.817,4.817,0,0,1,3.166,1.033,4.343,4.343,0,0,1,1.545,2.7,6.836,6.836,0,0,1,.044.733,4.2,4.2,0,0,1-.778,2.422,14.753,14.753,0,0,1-2.511,2.556q-.8.689-2.222,2.044l-1.312,1.245,1.69.022a26.72,26.72,0,0,0,3.711-.111c.058-.014.133-.171.221-.467a13.969,13.969,0,0,0,.312-1.511v-.067h.889v.067l-.622,4.067v.066H34.041v-.421a1.527,1.527,0,0,1,.044-.512q.023-.022,1.868-2.111,2.421-2.688,3.111-3.555a6.45,6.45,0,0,0,1.488-3.712,3.891,3.891,0,0,0-.766-2.455,2.56,2.56,0,0,0-2.145-.989,2.437,2.437,0,0,0-2.089,1.156c-.029.058-.074.14-.133.244a.486.486,0,0,0-.067.133c0,.015.037.022.111.022a1.135,1.135,0,0,1,.9.4,1.385,1.385,0,0,1,.343.933,1.331,1.331,0,0,1-.366.945A1.269,1.269,0,0,1,35.374,455.657Z"/><path class="l" d="M45.775,463.857a1.293,1.293,0,0,1,1.333-1.334,1.309,1.309,0,0,1,.967.39,1.263,1.263,0,0,1,.388.922,1.344,1.344,0,0,1-2.688.022Z"/><path class="l" d="M52.353,452.19a3.917,3.917,0,0,1,3.4-1.8A4.1,4.1,0,0,1,58.6,451.5a4.877,4.877,0,0,1,1.023,1.511,12.73,12.73,0,0,1,.822,5.066,11.612,11.612,0,0,1-.956,5.267,3.858,3.858,0,0,1-1.823,1.867,4.2,4.2,0,0,1-1.888.467,3.919,3.919,0,0,1-3.734-2.334,11.612,11.612,0,0,1-.956-5.267,17.24,17.24,0,0,1,.279-3.411A7.426,7.426,0,0,1,52.353,452.19Zm5-.266a2.051,2.051,0,0,0-1.578-.711,2.121,2.121,0,0,0-1.6.711,2.682,2.682,0,0,0-.666,1.244,13.638,13.638,0,0,0-.222,2.533q0,.134-.011.867t-.011,1.222q0,2.135.044,2.979A12.518,12.518,0,0,0,53.575,463a2.506,2.506,0,0,0,.667,1.166,1.971,1.971,0,0,0,1.533.667,1.948,1.948,0,0,0,1.511-.667A2.532,2.532,0,0,0,57.953,463a12.734,12.734,0,0,0,.266-2.233q.043-.846.045-2.979,0-.488-.012-1.222t-.01-.867a13.886,13.886,0,0,0-.223-2.533A2.682,2.682,0,0,0,57.353,451.924Z"/></g><g class="q"><path class="l" d="M25.775,301.7v-1.623h5.911V301.7Z"/><path class="l" d="M42.174,305.673q-.378-.066-3.533-.067-3.111,0-3.488.067h-.268v-1.022h.578a12.4,12.4,0,0,0,1.667-.067,1.422,1.422,0,0,0,.533-.266V292.829a.523.523,0,0,0-.177.067,6.581,6.581,0,0,1-2.289.422h-.422V292.3H35.2a6.193,6.193,0,0,0,3.111-.844A3.041,3.041,0,0,0,39,290.94c.03-.044.12-.066.267-.066a.561.561,0,0,1,.378.133v6.644l.022,6.667a2.154,2.154,0,0,0,1.445.333h1.311v1.022Z"/><path class="l" d="M45.775,304.34a1.291,1.291,0,0,1,1.333-1.333,1.312,1.312,0,0,1,.967.389,1.263,1.263,0,0,1,.388.922,1.344,1.344,0,0,1-2.688.022Z"/><path class="l" d="M52.353,292.673a3.917,3.917,0,0,1,3.4-1.8,4.1,4.1,0,0,1,2.845,1.11A4.894,4.894,0,0,1,59.62,293.5a12.734,12.734,0,0,1,.822,5.066,11.615,11.615,0,0,1-.956,5.267,3.854,3.854,0,0,1-1.823,1.867,4.184,4.184,0,0,1-1.888.466,3.918,3.918,0,0,1-3.734-2.333,11.615,11.615,0,0,1-.956-5.267,17.254,17.254,0,0,1,.279-3.411A7.426,7.426,0,0,1,52.353,292.673Zm5-.266a2.051,2.051,0,0,0-1.578-.711,2.121,2.121,0,0,0-1.6.711,2.677,2.677,0,0,0-.666,1.244,13.632,13.632,0,0,0-.222,2.534q0,.132-.011.866t-.011,1.222q0,2.135.044,2.978a12.5,12.5,0,0,0,.267,2.233,2.509,2.509,0,0,0,.667,1.167,1.967,1.967,0,0,0,1.533.667,1.945,1.945,0,0,0,1.511-.667,2.535,2.535,0,0,0,.667-1.167,12.721,12.721,0,0,0,.266-2.233q.043-.844.045-2.978,0-.488-.012-1.222t-.01-.866a13.88,13.88,0,0,0-.223-2.534A2.677,2.677,0,0,0,57.353,292.407Z"/></g><g class="q"><path class="l" d="M506.609,280.041v-1.623h5.911v1.623Z"/><path class="l" d="M523.008,284.018q-.378-.066-3.533-.067-3.111,0-3.488.067h-.268V283h.578a12.4,12.4,0,0,0,1.667-.067,1.422,1.422,0,0,0,.533-.266V271.174a.536.536,0,0,0-.177.066,6.558,6.558,0,0,1-2.289.423h-.422V270.64h.422a6.2,6.2,0,0,0,3.111-.844,3.041,3.041,0,0,0,.688-.511c.03-.045.12-.067.267-.067a.562.562,0,0,1,.378.134V276l.022,6.667a2.154,2.154,0,0,0,1.445.333h1.311v1.022Z"/><path class="l" d="M526.609,282.685a1.291,1.291,0,0,1,1.333-1.333,1.312,1.312,0,0,1,.967.388,1.266,1.266,0,0,1,.388.923,1.344,1.344,0,0,1-2.688.022Z"/><path class="l" d="M533.431,279.263a1.223,1.223,0,0,1,.9.366,1.247,1.247,0,0,1,.368.922,1.144,1.144,0,0,1-.378.867,1.2,1.2,0,0,1-.845.355h-.155l.066.112a2.9,2.9,0,0,0,1.023,1.177,2.815,2.815,0,0,0,1.622.467A2.36,2.36,0,0,0,538.3,282.2a6.779,6.779,0,0,0,.423-2.844,5.531,5.531,0,0,0-.6-3.089,1.748,1.748,0,0,0-1.422-.734,2.859,2.859,0,0,0-2.622,1.512.44.44,0,0,1-.167.188.991.991,0,0,1-.323.034c-.252,0-.392-.045-.422-.134q-.045-.089-.044-3.889,0-.666-.011-1.577c-.008-.608-.011-.993-.011-1.156q0-1.245.133-1.244a.124.124,0,0,1,.089-.045l.4.134a7.89,7.89,0,0,0,2.955.577,7.561,7.561,0,0,0,3.023-.622.691.691,0,0,1,.289-.089c.118,0,.177.134.177.4v.289a5.681,5.681,0,0,1-4.555,2.155,5.327,5.327,0,0,1-1.244-.133l-.223-.044v3.822a3.812,3.812,0,0,1,3.511-.911,4.207,4.207,0,0,1,2.433,1.689,5.1,5.1,0,0,1,.945,3.066,4.866,4.866,0,0,1-1.411,3.49,4.638,4.638,0,0,1-3.478,1.466,3.7,3.7,0,0,1-2.378-.778,2.484,2.484,0,0,1-.733-.733,3.927,3.927,0,0,1-.844-1.978c0-.044,0-.115-.012-.211s-.011-.167-.011-.211a1.322,1.322,0,0,1,.356-.978A1.23,1.23,0,0,1,533.431,279.263Z"/></g><g class="q"><path class="l" d="M506.609,438.592V436.97h5.911v1.622Z"/><path class="l" d="M523.008,442.569q-.378-.068-3.533-.066-3.111,0-3.488.066h-.268v-1.022h.578a12.577,12.577,0,0,0,1.667-.067,1.422,1.422,0,0,0,.533-.266V429.725a.523.523,0,0,0-.177.067,6.558,6.558,0,0,1-2.289.422h-.422v-1.023h.422a6.193,6.193,0,0,0,3.111-.844,3.071,3.071,0,0,0,.688-.511c.03-.044.12-.066.267-.066a.561.561,0,0,1,.378.132v6.645l.022,6.667a2.154,2.154,0,0,0,1.445.333h1.311v1.022Z"/><path class="l" d="M526.609,441.236a1.293,1.293,0,0,1,1.333-1.334,1.309,1.309,0,0,1,.967.39,1.263,1.263,0,0,1,.388.922,1.344,1.344,0,0,1-2.688.022Z"/><path class="l" d="M539.342,429.214a2.1,2.1,0,0,0-1.378-.556,3.181,3.181,0,0,0-2.6,1.333,7.709,7.709,0,0,0-1.045,4.489l.022.089.178-.289a2.844,2.844,0,0,1,2.467-1.333,3.718,3.718,0,0,1,1.8.422,4.607,4.607,0,0,1,1.067.9,5.632,5.632,0,0,1,.867,1.254,5.984,5.984,0,0,1,.467,2.378v.4a3.976,3.976,0,0,1-.111.955,5,5,0,0,1-1.378,2.467,4.091,4.091,0,0,1-2.134,1.245,3.8,3.8,0,0,1-.889.089,3.839,3.839,0,0,1-.756-.068,3.942,3.942,0,0,1-2.622-1.777,10.374,10.374,0,0,1-1.31-5.6,9.809,9.809,0,0,1,.843-4.2,6.656,6.656,0,0,1,2.357-2.8,4.425,4.425,0,0,1,2.6-.844,3.05,3.05,0,0,1,2.079.688,2.381,2.381,0,0,1,.788,1.889,1.223,1.223,0,0,1-.323.889,1.134,1.134,0,0,1-.855.333,1.175,1.175,0,0,1-.855-.311,1.146,1.146,0,0,1-.323-.866A1.1,1.1,0,0,1,539.342,429.214Zm-.977,5.333a1.941,1.941,0,0,0-1.6-.8,1.806,1.806,0,0,0-1.333.511,4.811,4.811,0,0,0-1.089,3.512,9.4,9.4,0,0,0,.267,2.733,2.535,2.535,0,0,0,.756,1.133,1.858,1.858,0,0,0,1.266.467,2,2,0,0,0,1.734-.845,2.463,2.463,0,0,0,.421-1.111,14.712,14.712,0,0,0,.089-1.867v-.711a15.212,15.212,0,0,0-.089-1.911A2.468,2.468,0,0,0,538.365,434.547Z"/></g><g class="q"><path class="l" d="M547.837,573.427a3.919,3.919,0,0,1,3.4-1.8,4.1,4.1,0,0,1,2.844,1.111,4.843,4.843,0,0,1,1.023,1.511,12.716,12.716,0,0,1,.822,5.066,11.6,11.6,0,0,1-.956,5.267,3.856,3.856,0,0,1-1.822,1.867,4.186,4.186,0,0,1-1.889.467,3.915,3.915,0,0,1-3.733-2.334,11.6,11.6,0,0,1-.956-5.267,17.263,17.263,0,0,1,.278-3.411A7.471,7.471,0,0,1,547.837,573.427Zm5-.267a2.053,2.053,0,0,0-1.578-.711,2.121,2.121,0,0,0-1.6.711,2.673,2.673,0,0,0-.666,1.244,13.539,13.539,0,0,0-.223,2.534q0,.132-.011.867c-.008.488-.011.9-.011,1.221q0,2.135.044,2.979a12.613,12.613,0,0,0,.267,2.233,2.515,2.515,0,0,0,.667,1.166,1.967,1.967,0,0,0,1.533.667,1.944,1.944,0,0,0,1.511-.667,2.523,2.523,0,0,0,.667-1.166,12.734,12.734,0,0,0,.266-2.233q.045-.846.045-2.979c0-.325,0-.733-.011-1.221s-.011-.779-.011-.867a13.808,13.808,0,0,0-.223-2.534A2.682,2.682,0,0,0,552.837,573.16Z"/><path class="l" d="M558.548,585.094a1.293,1.293,0,0,1,1.333-1.334,1.312,1.312,0,0,1,.967.389,1.261,1.261,0,0,1,.389.922,1.345,1.345,0,0,1-2.689.023Z"/><path class="l" d="M566.837,584.293a1.263,1.263,0,0,1-.233.778.945.945,0,0,1-.611.378l-.089.023c0,.014.051.054.155.122a.936.936,0,0,0,.245.122,3.181,3.181,0,0,0,1.267.222,2.509,2.509,0,0,0,.577-.044,3.044,3.044,0,0,0,1.8-1.378,7.888,7.888,0,0,0,.867-4.312v-.155l-.112.178a2.839,2.839,0,0,1-2.555,1.511,3.764,3.764,0,0,1-3.022-1.534,4.8,4.8,0,0,1-1.2-3.466,5.508,5.508,0,0,1,.344-2.111,5.329,5.329,0,0,1,1.189-1.667,4.4,4.4,0,0,1,2.756-1.311l.067-.022h.111c.029,0,.077,0,.144.011a1.426,1.426,0,0,0,.166.011,3.159,3.159,0,0,1,.645.044,4.211,4.211,0,0,1,2.822,2.289,11.367,11.367,0,0,1,.956,5.023,9.824,9.824,0,0,1-1.334,5.266,6.05,6.05,0,0,1-1.878,1.945,4.217,4.217,0,0,1-2.3.7,3.61,3.61,0,0,1-2.256-.656,2.247,2.247,0,0,1-.856-1.9q0-1.245,1.178-1.245a1.092,1.092,0,0,1,1.156,1.178Zm2.244-11.711a3.411,3.411,0,0,0-.622-.044,1.966,1.966,0,0,0-1.444.6,2.354,2.354,0,0,0-.611,1.167,12.64,12.64,0,0,0-.145,2.322,20.3,20.3,0,0,0,.111,2.4,2.231,2.231,0,0,0,.656,1.368,1.929,1.929,0,0,0,1.388.522h.089a2.043,2.043,0,0,0,1.745-1.256,6.455,6.455,0,0,0,.544-2.789,12.228,12.228,0,0,0-.177-2.489,2.4,2.4,0,0,0-.544-1.155A1.863,1.863,0,0,0,569.081,572.582Z"/></g><g class="q"><path class="l" d="M724.8,586.427q-.378-.068-3.533-.067-3.111,0-3.488.067h-.268V585.4h.578a12.643,12.643,0,0,0,1.667-.066,1.444,1.444,0,0,0,.533-.267V573.582a.523.523,0,0,0-.177.067,6.535,6.535,0,0,1-2.289.422H717.4v-1.022h.422a6.183,6.183,0,0,0,3.111-.845,3.011,3.011,0,0,0,.688-.511c.03-.044.12-.066.267-.066a.561.561,0,0,1,.378.133V578.4l.022,6.667a2.154,2.154,0,0,0,1.445.333h1.311v1.023Z"/></g><g class="q"><path class="l" d="M874.892,586.427q-.378-.068-3.533-.067-3.111,0-3.489.067H867.6V585.4h.578a12.653,12.653,0,0,0,1.667-.066,1.444,1.444,0,0,0,.533-.267V573.582a.526.526,0,0,0-.178.067,6.527,6.527,0,0,1-2.289.422h-.421v-1.022h.421a6.184,6.184,0,0,0,3.112-.845,3.033,3.033,0,0,0,.688-.511q.045-.066.267-.066a.561.561,0,0,1,.378.133V578.4l.022,6.667a2.152,2.152,0,0,0,1.445.333h1.311v1.023Z"/><path class="l" d="M878.493,585.094a1.351,1.351,0,0,1,2.3-.945,1.261,1.261,0,0,1,.389.922,1.344,1.344,0,0,1-2.688.023Z"/><path class="l" d="M892.181,586.427q-.378-.068-3.533-.067-3.111,0-3.488.067h-.268V585.4h.578a12.653,12.653,0,0,0,1.667-.066,1.444,1.444,0,0,0,.533-.267V573.582a.516.516,0,0,0-.177.067,6.537,6.537,0,0,1-2.29.422h-.421v-1.022h.421a6.184,6.184,0,0,0,3.112-.845,3.033,3.033,0,0,0,.688-.511q.045-.066.267-.066a.561.561,0,0,1,.378.133V578.4l.022,6.667a2.152,2.152,0,0,0,1.445.333h1.311v1.023Z"/></g></svg>