<svg xmlns="http://www.w3.org/2000/svg" xmlns:xlink="http://www.w3.org/1999/xlink" width="660" height="480" viewBox="0 0 660 480"><defs><style>.a,.c,.g,.k,.l,.o,.q,.r{fill:none;}.b{opacity:0.8;}.c,.g,.q,.r{stroke:#fff;}.c{stroke-miterlimit:48;}.c,.k,.l,.o,.q,.r{stroke-width:1.5px;}.d,.s{fill:#fff;}.e{isolation:isolate;}.f{opacity:0.15;}.g,.k,.l,.o,.q,.r,.s{stroke-miterlimit:72;}.h{opacity:0.25;}.i{opacity:0.4;}.j{clip-path:url(#a);}.k{stroke:#58c4dd;}.l{stroke:#fff933;}.m{fill:#fff933;}.n{fill:#58c4dd;}.o{stroke:#fc6255;}.p{fill:#fc6255;}.r{stroke-dasharray:6 6;}.s{stroke:#333;stroke-width:0.5px;}</style><clipPath id="a"><rect class="a" x="60" y="60" width="540" height="360"/></clipPath></defs><rect width="660" height="480"/><g class="b"><line class="c" x1="69.053" y1="239.667" x2="590.947" y2="239.667"/><path class="d" d="M60,239.667c4.26,1.58,9.545,4.277,12.821,7.133l-2.58-7.133,2.58-7.133C69.545,235.391,64.26,238.087,60,239.667Z"/><path class="d" d="M600,239.667c-4.26,1.58-9.545,4.277-12.821,7.133l2.58-7.133-2.58-7.133C590.455,235.391,595.74,238.087,600,239.667Z"/></g><g class="e"><path class="d" d="M322.4,457q-.425-.075-3.975-.076-3.5,0-3.924.076h-.3v-1.151h.65a14.162,14.162,0,0,0,1.875-.074,1.623,1.623,0,0,0,.6-.3V442.549a.609.609,0,0,0-.2.076,7.364,7.364,0,0,1-2.576.474h-.474V441.95h.474a6.964,6.964,0,0,0,3.5-.95,3.435,3.435,0,0,0,.776-.576c.033-.049.133-.075.3-.075a.629.629,0,0,1,.424.151v7.474l.026,7.5a2.419,2.419,0,0,0,1.625.375h1.474V457Z"/><path class="d" d="M326.45,455.5a1.452,1.452,0,0,1,1.5-1.5,1.478,1.478,0,0,1,1.087.437,1.418,1.418,0,0,1,.438,1.037,1.513,1.513,0,0,1-3.025.026Z"/><path class="d" d="M333.85,442.375a4.411,4.411,0,0,1,3.825-2.026,4.613,4.613,0,0,1,3.2,1.25,5.451,5.451,0,0,1,1.15,1.7,14.3,14.3,0,0,1,.925,5.7,13.038,13.038,0,0,1-1.075,5.924,4.337,4.337,0,0,1-2.05,2.1,4.708,4.708,0,0,1-2.125.524,4.4,4.4,0,0,1-4.2-2.625A13.038,13.038,0,0,1,332.425,449a19.517,19.517,0,0,1,.312-3.838A8.367,8.367,0,0,1,333.85,442.375Zm5.625-.3a2.306,2.306,0,0,0-1.775-.8,2.382,2.382,0,0,0-1.8.8,3,3,0,0,0-.75,1.4,15.365,15.365,0,0,0-.25,2.851c0,.1,0,.425-.013.974s-.012,1.009-.012,1.375q0,2.4.05,3.351a14.15,14.15,0,0,0,.3,2.512,2.834,2.834,0,0,0,.75,1.312,2.217,2.217,0,0,0,1.725.75,2.19,2.19,0,0,0,1.7-.75,2.851,2.851,0,0,0,.75-1.312,14.345,14.345,0,0,0,.3-2.512q.05-.951.05-3.351,0-.549-.013-1.375c-.008-.549-.012-.875-.012-.974a15.546,15.546,0,0,0-.25-2.851A3.021,3.021,0,0,0,339.475,442.075Z"/></g><g class="e"><path class="d" d="M505.03,457q-.426-.075-3.975-.076-3.5,0-3.925.076h-.3v-1.151h.651a14.183,14.183,0,0,0,1.875-.074,1.621,1.621,0,0,0,.6-.3V442.549a.626.626,0,0,0-.2.076,7.363,7.363,0,0,1-2.575.474h-.475V441.95h.475a6.97,6.97,0,0,0,3.5-.95,3.428,3.428,0,0,0,.775-.576c.033-.049.133-.075.3-.075a.63.63,0,0,1,.425.151v7.474l.025,7.5a2.419,2.419,0,0,0,1.625.375h1.475V457Z"/><path class="d" d="M509.08,455.5a1.452,1.452,0,0,1,1.5-1.5,1.479,1.479,0,0,1,1.088.437,1.422,1.422,0,0,1,.438,1.037,1.513,1.513,0,0,1-3.026.026Z"/><path class="d" d="M524.481,457q-.428-.075-3.976-.076-3.5,0-3.925.076h-.3v-1.151h.651a14.162,14.162,0,0,0,1.875-.074,1.613,1.613,0,0,0,.6-.3V442.549a.626.626,0,0,0-.2.076,7.358,7.358,0,0,1-2.575.474h-.475V441.95h.475a6.97,6.97,0,0,0,3.5-.95,3.406,3.406,0,0,0,.775-.576c.034-.049.133-.075.3-.075a.63.63,0,0,1,.425.151v7.474l.025,7.5a2.419,2.419,0,0,0,1.625.375h1.475V457Z"/></g><g class="e"><path class="d" d="M136.4,442.375a4.414,4.414,0,0,1,3.826-2.026,4.609,4.609,0,0,1,3.2,1.25,5.436,5.436,0,0,1,1.151,1.7,14.322,14.322,0,0,1,.925,5.7,13.037,13.037,0,0,1-1.076,5.924,4.335,4.335,0,0,1-2.049,2.1,4.711,4.711,0,0,1-2.125.524,4.407,4.407,0,0,1-4.2-2.625A13.053,13.053,0,0,1,134.975,449a19.517,19.517,0,0,1,.312-3.838A8.386,8.386,0,0,1,136.4,442.375Zm5.625-.3a2.3,2.3,0,0,0-1.774-.8,2.381,2.381,0,0,0-1.8.8,3,3,0,0,0-.75,1.4,15.365,15.365,0,0,0-.25,2.851c0,.1,0,.425-.013.974s-.013,1.009-.013,1.375q0,2.4.051,3.351a14.27,14.27,0,0,0,.3,2.512,2.851,2.851,0,0,0,.75,1.312,2.219,2.219,0,0,0,1.726.75,2.19,2.19,0,0,0,1.7-.75,2.851,2.851,0,0,0,.75-1.312,14.345,14.345,0,0,0,.3-2.512q.049-.951.049-3.351,0-.549-.012-1.375c-.009-.549-.013-.875-.013-.974a15.365,15.365,0,0,0-.25-2.851A3,3,0,0,0,142.024,442.075Z"/><path class="d" d="M148.45,455.5a1.452,1.452,0,0,1,1.5-1.5,1.478,1.478,0,0,1,1.087.437,1.418,1.418,0,0,1,.438,1.037,1.513,1.513,0,0,1-3.025.026Z"/><path class="d" d="M157.775,454.6a1.413,1.413,0,0,1-.263.875,1.061,1.061,0,0,1-.687.426l-.1.024c0,.017.058.063.175.138a1.032,1.032,0,0,0,.275.138,3.57,3.57,0,0,0,1.425.25,2.8,2.8,0,0,0,.65-.05,3.423,3.423,0,0,0,2.025-1.551q.975-1.4.975-4.849v-.175l-.125.2a3.2,3.2,0,0,1-2.875,1.7,4.236,4.236,0,0,1-3.4-1.724,5.412,5.412,0,0,1-1.35-3.9,6.215,6.215,0,0,1,.387-2.375,6.021,6.021,0,0,1,1.338-1.875,4.944,4.944,0,0,1,3.1-1.474l.075-.026h.125c.033,0,.087,0,.162.013a1.616,1.616,0,0,0,.188.013,3.536,3.536,0,0,1,.725.049A4.738,4.738,0,0,1,163.775,443a12.8,12.8,0,0,1,1.075,5.65,11.054,11.054,0,0,1-1.5,5.925,6.827,6.827,0,0,1-2.113,2.187,4.746,4.746,0,0,1-2.587.787,4.068,4.068,0,0,1-2.538-.737,2.528,2.528,0,0,1-.962-2.138q0-1.4,1.325-1.4a1.228,1.228,0,0,1,1.3,1.324Zm2.525-13.175a3.822,3.822,0,0,0-.7-.049,2.213,2.213,0,0,0-1.625.674,2.683,2.683,0,0,0-.688,1.313,14.368,14.368,0,0,0-.162,2.612,22.709,22.709,0,0,0,.125,2.7,2.507,2.507,0,0,0,.737,1.538,2.165,2.165,0,0,0,1.563.587h.1a2.3,2.3,0,0,0,1.962-1.412,7.251,7.251,0,0,0,.613-3.137,13.709,13.709,0,0,0-.2-2.8,2.687,2.687,0,0,0-.613-1.3A2.1,2.1,0,0,0,160.3,441.424Z"/></g><g class="e"><path class="d" d="M16.425,51.376A4.411,4.411,0,0,1,20.25,49.35a4.608,4.608,0,0,1,3.2,1.25,5.457,5.457,0,0,1,1.15,1.7,14.331,14.331,0,0,1,.925,5.7,13.031,13.031,0,0,1-1.075,5.923,4.339,4.339,0,0,1-2.05,2.1,4.707,4.707,0,0,1-2.125.523,4.4,4.4,0,0,1-4.2-2.625A13.031,13.031,0,0,1,15,58a19.417,19.417,0,0,1,.313-3.838A8.365,8.365,0,0,1,16.425,51.376Zm5.625-.3a2.305,2.305,0,0,0-1.775-.8,2.381,2.381,0,0,0-1.8.8,3.006,3.006,0,0,0-.75,1.4,15.361,15.361,0,0,0-.25,2.85c0,.1,0,.426-.013.974s-.012,1.01-.012,1.375c0,1.6.016,2.717.05,3.352a14.247,14.247,0,0,0,.3,2.512,2.843,2.843,0,0,0,.75,1.312,2.217,2.217,0,0,0,1.725.75,2.19,2.19,0,0,0,1.7-.75,2.861,2.861,0,0,0,.75-1.312,14.345,14.345,0,0,0,.3-2.512c.033-.635.05-1.75.05-3.352q0-.548-.012-1.375c-.009-.548-.013-.875-.013-.974a15.542,15.542,0,0,0-.25-2.85A3.006,3.006,0,0,0,22.05,51.075Z"/><path class="d" d="M28.475,64.5a1.451,1.451,0,0,1,1.5-1.5,1.481,1.481,0,0,1,1.088.437,1.418,1.418,0,0,1,.437,1.037,1.513,1.513,0,0,1-3.025.026Z"/><path class="d" d="M43.875,66q-.426-.077-3.975-.077-3.5,0-3.925.077h-.3V64.85h.65a14.326,14.326,0,0,0,1.875-.074,1.632,1.632,0,0,0,.6-.3V51.549a.6.6,0,0,0-.2.077,7.381,7.381,0,0,1-2.575.474H35.55V50.95h.475a6.96,6.96,0,0,0,3.5-.949,3.431,3.431,0,0,0,.775-.577c.034-.048.133-.074.3-.074a.632.632,0,0,1,.425.151v7.474l.025,7.5a2.419,2.419,0,0,0,1.625.375H44.15V66Z"/></g><g class="e"><path class="d" d="M26.15,231.376a4.411,4.411,0,0,1,3.825-2.026,4.613,4.613,0,0,1,3.2,1.25,5.451,5.451,0,0,1,1.15,1.7,14.322,14.322,0,0,1,.925,5.7,13.038,13.038,0,0,1-1.075,5.924,4.337,4.337,0,0,1-2.05,2.1A4.708,4.708,0,0,1,30,246.55a4.4,4.4,0,0,1-4.2-2.625A13.038,13.038,0,0,1,24.725,238a19.431,19.431,0,0,1,.313-3.838A8.365,8.365,0,0,1,26.15,231.376Zm5.625-.3a2.3,2.3,0,0,0-1.775-.8,2.382,2.382,0,0,0-1.8.8,3,3,0,0,0-.75,1.4,15.365,15.365,0,0,0-.25,2.851c0,.1,0,.425-.012.974s-.013,1.009-.013,1.375q0,2.4.05,3.351a14.345,14.345,0,0,0,.3,2.512,2.834,2.834,0,0,0,.75,1.312A2.217,2.217,0,0,0,30,245.6a2.19,2.19,0,0,0,1.7-.75,2.851,2.851,0,0,0,.75-1.312,14.345,14.345,0,0,0,.3-2.512q.05-.951.05-3.351,0-.549-.012-1.375c-.009-.549-.013-.875-.013-.974a15.546,15.546,0,0,0-.25-2.851A3,3,0,0,0,31.775,231.076Z"/></g><g class="e"><path class="d" d="M10.137,421.525V419.7h6.65v1.825Z"/><path class="d" d="M20.587,411.375a4.411,4.411,0,0,1,3.825-2.026,4.611,4.611,0,0,1,3.2,1.25,5.451,5.451,0,0,1,1.15,1.7,14.3,14.3,0,0,1,.925,5.7,13.038,13.038,0,0,1-1.075,5.924,4.337,4.337,0,0,1-2.05,2.1,4.708,4.708,0,0,1-2.125.524,4.4,4.4,0,0,1-4.2-2.625A13.038,13.038,0,0,1,19.162,418a19.431,19.431,0,0,1,.313-3.838A8.365,8.365,0,0,1,20.587,411.375Zm5.625-.3a2.3,2.3,0,0,0-1.775-.8,2.382,2.382,0,0,0-1.8.8,3,3,0,0,0-.75,1.4,15.455,15.455,0,0,0-.25,2.851c0,.1,0,.425-.012.974s-.013,1.009-.013,1.375q0,2.4.05,3.351a14.345,14.345,0,0,0,.3,2.512,2.834,2.834,0,0,0,.75,1.312,2.217,2.217,0,0,0,1.725.75,2.19,2.19,0,0,0,1.7-.75,2.834,2.834,0,0,0,.75-1.312,14.345,14.345,0,0,0,.3-2.512q.049-.951.05-3.351,0-.549-.012-1.375c-.009-.549-.013-.875-.013-.974a15.546,15.546,0,0,0-.25-2.851A3,3,0,0,0,26.212,411.075Z"/><path class="d" d="M32.637,424.5a1.452,1.452,0,0,1,1.5-1.5,1.481,1.481,0,0,1,1.088.437,1.421,1.421,0,0,1,.437,1.037,1.513,1.513,0,0,1-3.025.026Z"/><path class="d" d="M48.037,426q-.425-.075-3.975-.076-3.5,0-3.925.076h-.3v-1.151h.65a14.141,14.141,0,0,0,1.875-.074,1.616,1.616,0,0,0,.6-.3V411.549a.617.617,0,0,0-.2.076,7.358,7.358,0,0,1-2.575.474h-.475V410.95h.475a6.967,6.967,0,0,0,3.5-.95,3.428,3.428,0,0,0,.775-.576c.034-.049.133-.075.3-.075a.632.632,0,0,1,.425.151v7.474l.025,7.5a2.421,2.421,0,0,0,1.625.375h1.475V426Z"/></g><g class="f"><line class="g" x1="78" y1="60" x2="78" y2="420"/><line class="g" x1="96" y1="60" x2="96" y2="420"/><line class="g" x1="114" y1="60" x2="114" y2="420"/><line class="g" x1="132" y1="60" x2="132" y2="420"/><line class="g" x1="168" y1="60" x2="168" y2="420"/><line class="g" x1="186" y1="60" x2="186" y2="420"/><line class="g" x1="204" y1="60" x2="204" y2="420"/><line class="g" x1="222" y1="60" x2="222" y2="420"/><line class="g" x1="258" y1="60" x2="258" y2="420"/><line class="g" x1="276" y1="60" x2="276" y2="420"/><line class="g" x1="294" y1="60" x2="294" y2="420"/><line class="g" x1="312" y1="60" x2="312" y2="420"/><line class="g" x1="348" y1="60" x2="348" y2="420"/><line class="g" x1="366" y1="60" x2="366" y2="420"/><line class="g" x1="384" y1="60" x2="384" y2="420"/><line class="g" x1="402" y1="60" x2="402" y2="420"/><line class="g" x1="438" y1="60" x2="438" y2="420"/><line class="g" x1="456" y1="60" x2="456" y2="420"/><line class="g" x1="474" y1="60" x2="474" y2="420"/><line class="g" x1="492" y1="60" x2="492" y2="420"/><line class="g" x1="528" y1="60" x2="528" y2="420"/><line class="g" x1="546" y1="60" x2="546" y2="420"/><line class="g" x1="564" y1="60" x2="564" y2="420"/><line class="g" x1="582" y1="60" x2="582" y2="420"/><line class="g" x1="60" y1="78" x2="600" y2="78"/><line class="g" x1="60" y1="96" x2="600" y2="96"/><line class="g" x1="60" y1="114" x2="600" y2="114"/><line class="g" x1="60" y1="132" x2="600" y2="132"/><line class="g" x1="60" y1="168" x2="600" y2="168"/><line class="g" x1="60" y1="186" x2="600" y2="186"/><line class="g" x1="60" y1="204" x2="600" y2="204"/><line class="g" x1="60" y1="222" x2="600" y2="222"/><line class="g" x1="60" y1="258" x2="600" y2="258"/><line class="g" x1="60" y1="276" x2="600" y2="276"/><line class="g" x1="60" y1="294" x2="600" y2="294"/><line class="g" x1="60" y1="312" x2="600" y2="312"/><line class="g" x1="60" y1="348" x2="600" y2="348"/><line class="g" x1="60" y1="366" x2="600" y2="366"/><line class="g" x1="60" y1="384" x2="600" y2="384"/><line class="g" x1="60" y1="402" x2="600" y2="402"/></g><g class="h"><line class="g" x1="60" y1="60" x2="60" y2="420"/><line class="g" x1="240" y1="60" x2="240" y2="420"/><line class="g" x1="420" y1="60" x2="420" y2="420"/><line class="g" x1="600" y1="60" x2="600" y2="420"/><line class="g" x1="60" y1="150" x2="600" y2="150"/><line class="g" x1="60" y1="330" x2="600" y2="330"/></g><g class="i"><line class="g" x1="150" y1="60" x2="150" y2="420"/><line class="g" x1="330" y1="60" x2="330" y2="420"/><line class="g" x1="510" y1="60" x2="510" y2="420"/><line class="g" x1="60" y1="60" x2="600" y2="60"/><line class="g" x1="60" y1="240" x2="600" y2="240"/><line class="g" x1="60" y1="420" x2="600" y2="420"/></g><g class="j"><path class="k" d="M60,934.575c16.635-37.933,75.077-168.829,89-204.345q27.245-66.121,53-132.889C315.006,304.233,409.164,4.173,494-298.188"/><path class="l" d="M60,510h0L600-30"/></g><path class="m" d="M508.127,37.443a2.242,2.242,0,0,1-1.6-.588,1.979,1.979,0,0,1-.625-1.512,3.523,3.523,0,0,1,.25-1.1,29.227,29.227,0,0,0,1.5-4.725,4.962,4.962,0,0,0,.076-.95q0-1.475-1.226-1.475a2.981,2.981,0,0,0-.649.05,4.756,4.756,0,0,0-2.951,2.4l-.174.325-.851,3.375q-.8,3.25-.925,3.55a1.128,1.128,0,0,1-1.1.675,1.061,1.061,0,0,1-.588-.187.562.562,0,0,1-.287-.488q0-.3,3.674-15a.448.448,0,0,0-.15-.4,3.783,3.783,0,0,0-1-.125h-.524a.675.675,0,0,1-.163-.2,2.57,2.57,0,0,1,.062-.475c.084-.316.191-.475.325-.475q.025,0,1.813-.138t1.812-.137q.3,0,.3.225,0,.276-.9,3.775-.951,3.7-.951,3.775c0,.034.059-.008.175-.125a4.714,4.714,0,0,1,3.25-1.35,3.365,3.365,0,0,1,2.2.675,2.4,2.4,0,0,1,.826,1.975,4.969,4.969,0,0,1-.076.95,31.2,31.2,0,0,1-1.375,4.425,6.008,6.008,0,0,0-.45,1.775.919.919,0,0,0,.125.475.459.459,0,0,0,.375.125,1.711,1.711,0,0,0,1.313-.762,5.613,5.613,0,0,0,.963-2.038.636.636,0,0,1,.149-.325.923.923,0,0,1,.4-.05q.476.075.5.2,0,.026-.1.375a5.738,5.738,0,0,1-1.276,2.425A2.627,2.627,0,0,1,508.127,37.443Z"/><path class="d" d="M520.5,43.218q0,.225-.45.225h-.325l-.7-.6q-4.5-4.1-4.5-11.9a20.17,20.17,0,0,1,.726-5.575,13.488,13.488,0,0,1,3.774-6.325c.118-.1.25-.212.4-.337s.25-.213.3-.263h.325a.593.593,0,0,1,.375.075.216.216,0,0,1,.075.15q0,.1-.275.375-3.875,4.1-3.875,11.9t3.875,11.9Q520.5,43.118,520.5,43.218Z"/><path class="d" d="M523.353,30.243a.415.415,0,0,1-.151-.275,4.752,4.752,0,0,1,.776-1.725,4.287,4.287,0,0,1,2.95-2.05,4.114,4.114,0,0,1,.524-.05,3.041,3.041,0,0,1,1.613.45,2.687,2.687,0,0,1,1.062,1.125c.217-.283.351-.459.4-.525a2.772,2.772,0,0,1,2.125-1.05,2.359,2.359,0,0,1,1.663.587,1.882,1.882,0,0,1,.637,1.438,1.96,1.96,0,0,1-.437,1.3,1.437,1.437,0,0,1-1.162.525,1.1,1.1,0,0,1-.776-.275.936.936,0,0,1-.3-.725,1.589,1.589,0,0,1,1.25-1.575,1.007,1.007,0,0,0-.275-.175,1.423,1.423,0,0,0-.725-.15,1.635,1.635,0,0,0-.474.05,2.619,2.619,0,0,0-1.4,1.65q-.074.2-.724,2.788t-.7,2.912a3.817,3.817,0,0,0-.076.75,1.284,1.284,0,0,0,.35.95,1.253,1.253,0,0,0,.926.35,2.577,2.577,0,0,0,1.9-.887,4.623,4.623,0,0,0,1.151-1.963c.049-.166.1-.263.149-.287a1.188,1.188,0,0,1,.4-.038q.476,0,.475.2c0,.017-.017.108-.05.275a5.427,5.427,0,0,1-1.75,2.7,3.939,3.939,0,0,1-2.474.925,2.883,2.883,0,0,1-2.651-1.575,3.5,3.5,0,0,1-1.849,1.5,3.24,3.24,0,0,1-.651.05,2.181,2.181,0,0,1-2.05-1.025,1.936,1.936,0,0,1-.25-1,1.893,1.893,0,0,1,.451-1.275,1.443,1.443,0,0,1,1.149-.525.939.939,0,0,1,1.075,1.05,1.411,1.411,0,0,1-.875,1.35l-.125.063-.125.062a.183.183,0,0,1-.075.025l-.074.025q0,.075.375.225a1.654,1.654,0,0,0,.649.125,1.845,1.845,0,0,0,1.55-1.125,18.8,18.8,0,0,0,.976-3.25q.149-.575.325-1.275t.262-1.075c.058-.25.095-.4.113-.45a6.136,6.136,0,0,0,.125-.975,1.348,1.348,0,0,0-.325-.95,1.171,1.171,0,0,0-.9-.35,2.609,2.609,0,0,0-1.95.863,4.721,4.721,0,0,0-1.149,1.987c-.035.15-.072.237-.113.263a1.243,1.243,0,0,1-.413.037Z"/><path class="d" d="M537.7,18.468l.1-.025h.551l.7.6q4.5,4.1,4.5,11.9a19.7,19.7,0,0,1-.725,5.55,13.476,13.476,0,0,1-3.775,6.35c-.116.1-.25.212-.4.337s-.25.213-.3.263h-.3a.942.942,0,0,1-.387-.05c-.058-.034-.088-.117-.088-.25.017-.016.109-.125.276-.325q3.875-4.026,3.875-11.875t-3.875-11.875c-.167-.2-.259-.309-.276-.325A.293.293,0,0,1,537.7,18.468Z"/><path class="d" d="M553.577,28.518a.543.543,0,0,1,.35-.5h15.925a.546.546,0,0,1,.375.5.567.567,0,0,1-.35.475l-7.95.025h-7.95A.5.5,0,0,1,553.577,28.518Zm0,4.85a.5.5,0,0,1,.4-.5h15.9a1.3,1.3,0,0,0,.112.088,1.174,1.174,0,0,1,.125.1.438.438,0,0,1,.076.125.492.492,0,0,1,.037.188.546.546,0,0,1-.375.5H553.927A.543.543,0,0,1,553.577,33.368Z"/><path class="d" d="M579.326,30.243a.417.417,0,0,1-.15-.275,4.747,4.747,0,0,1,.775-1.725,4.289,4.289,0,0,1,2.95-2.05,4.142,4.142,0,0,1,.525-.05,3.035,3.035,0,0,1,1.612.45,2.689,2.689,0,0,1,1.063,1.125l.4-.525a2.769,2.769,0,0,1,2.125-1.05,2.357,2.357,0,0,1,1.662.587,1.88,1.88,0,0,1,.638,1.438,1.96,1.96,0,0,1-.438,1.3,1.436,1.436,0,0,1-1.162.525,1.1,1.1,0,0,1-.775-.275.936.936,0,0,1-.3-.725,1.589,1.589,0,0,1,1.25-1.575,1.029,1.029,0,0,0-.275-.175,1.425,1.425,0,0,0-.725-.15,1.643,1.643,0,0,0-.475.05,2.62,2.62,0,0,0-1.4,1.65q-.075.2-.725,2.788t-.7,2.912a3.816,3.816,0,0,0-.075.75,1.281,1.281,0,0,0,.35.95,1.252,1.252,0,0,0,.925.35,2.579,2.579,0,0,0,1.9-.887,4.621,4.621,0,0,0,1.15-1.963c.05-.166.1-.263.15-.287a1.18,1.18,0,0,1,.4-.038c.316,0,.475.067.475.2,0,.017-.017.108-.05.275a5.427,5.427,0,0,1-1.75,2.7,3.942,3.942,0,0,1-2.475.925,2.88,2.88,0,0,1-2.65-1.575,3.5,3.5,0,0,1-1.85,1.5,3.222,3.222,0,0,1-.65.05A2.18,2.18,0,0,1,579,36.418a1.936,1.936,0,0,1-.25-1,1.892,1.892,0,0,1,.45-1.275,1.447,1.447,0,0,1,1.15-.525.94.94,0,0,1,1.075,1.05,1.411,1.411,0,0,1-.875,1.35l-.125.063-.125.062a.188.188,0,0,1-.075.025l-.075.025q0,.075.375.225a1.659,1.659,0,0,0,.65.125,1.846,1.846,0,0,0,1.55-1.125,18.938,18.938,0,0,0,.975-3.25q.15-.575.325-1.275t.262-1.075c.059-.25.1-.4.113-.45a6.136,6.136,0,0,0,.125-.975,1.344,1.344,0,0,0-.325-.95,1.168,1.168,0,0,0-.9-.35,2.608,2.608,0,0,0-1.95.863,4.734,4.734,0,0,0-1.15,1.987c-.034.15-.071.237-.112.263a1.247,1.247,0,0,1-.413.037Z"/><path class="d" d="M600.525,30.943a.546.546,0,0,1,.351-.5H615.4a.521.521,0,0,1,0,1H600.876A.545.545,0,0,1,600.525,30.943Z"/><path class="d" d="M634.526,37.193q-.426-.075-3.975-.075-3.5,0-3.925.075h-.3v-1.15h.65a14.1,14.1,0,0,0,1.875-.075,1.609,1.609,0,0,0,.6-.3V22.743a.6.6,0,0,0-.2.075,7.363,7.363,0,0,1-2.575.475H626.2v-1.15h.475a6.97,6.97,0,0,0,3.5-.95,3.448,3.448,0,0,0,.775-.575q.05-.075.3-.075a.631.631,0,0,1,.425.15v7.475l.025,7.5a2.419,2.419,0,0,0,1.625.375H634.8v1.15Z"/><path class="n" d="M315.849,38.967a1.061,1.061,0,0,1,.75.275.937.937,0,0,1,.3.725,1.53,1.53,0,0,1-.5,1.15c-.117.116-.159.175-.125.175a8.052,8.052,0,0,0,1.5.075,3.152,3.152,0,0,0,1.5-.3,3.439,3.439,0,0,0,1.074-.838,3.342,3.342,0,0,0,.7-1.162c.1-.316.234-.834.4-1.55a10,10,0,0,0,.325-1.4,4.988,4.988,0,0,1-2,1.025,3.84,3.84,0,0,1-.625.05,3.142,3.142,0,0,1-2.563-1.138,4.349,4.349,0,0,1-.937-2.862,6.671,6.671,0,0,1,.725-3.025,7.21,7.21,0,0,1,3.3-3.475,5.066,5.066,0,0,1,2.175-.55,2.9,2.9,0,0,1,2.176,1.2.866.866,0,0,0,.1-.125,1.149,1.149,0,0,1,1.049-.575.9.9,0,0,1,.576.2.617.617,0,0,1,.25.5q0,.375-1.425,6.05t-1.5,5.8a4.286,4.286,0,0,1-1.963,2.237,6.386,6.386,0,0,1-3.337.888q-2.875,0-3.4-1.1a1.228,1.228,0,0,1-.125-.6,1.667,1.667,0,0,1,.45-1.15A1.473,1.473,0,0,1,315.849,38.967Zm7.75-9.975a5.83,5.83,0,0,0-.387-1,1.914,1.914,0,0,0-.587-.638,1.632,1.632,0,0,0-.975-.287,1.5,1.5,0,0,0-.163.013q-.113.012-.138.012a3.184,3.184,0,0,0-1.824,1.3,10.145,10.145,0,0,0-1.325,3.375,11.565,11.565,0,0,0-.425,2.5q0,1.976,1.55,1.975a3.61,3.61,0,0,0,2.75-1.75l.2-.25Q323.175,30.743,323.6,28.992Z"/><path class="d" d="M334.25,43.217c0,.15-.151.225-.451.225h-.325l-.7-.6q-4.5-4.1-4.5-11.9A20.133,20.133,0,0,1,329,25.367a13.48,13.48,0,0,1,3.774-6.325q.176-.15.4-.337c.151-.125.25-.213.3-.263h.325a.589.589,0,0,1,.375.075.218.218,0,0,1,.076.15q0,.1-.276.375-3.874,4.1-3.875,11.9t3.875,11.9Q334.25,43.117,334.25,43.217Z"/><path class="d" d="M337.1,30.242a.417.417,0,0,1-.15-.275,4.747,4.747,0,0,1,.775-1.725,4.289,4.289,0,0,1,2.95-2.05,4.142,4.142,0,0,1,.525-.05,3.041,3.041,0,0,1,1.613.45,2.687,2.687,0,0,1,1.062,1.125c.217-.283.351-.459.4-.525a2.772,2.772,0,0,1,2.125-1.05,2.359,2.359,0,0,1,1.663.587,1.882,1.882,0,0,1,.637,1.438,1.96,1.96,0,0,1-.437,1.3,1.437,1.437,0,0,1-1.162.525,1.1,1.1,0,0,1-.776-.275.936.936,0,0,1-.3-.725,1.59,1.59,0,0,1,1.25-1.575,1.007,1.007,0,0,0-.275-.175,1.423,1.423,0,0,0-.725-.15,1.635,1.635,0,0,0-.474.05,2.619,2.619,0,0,0-1.4,1.65q-.073.2-.724,2.788t-.7,2.912a3.817,3.817,0,0,0-.076.75,1.284,1.284,0,0,0,.35.95,1.254,1.254,0,0,0,.926.35,2.577,2.577,0,0,0,1.9-.887,4.623,4.623,0,0,0,1.151-1.963c.049-.166.1-.263.149-.287a1.188,1.188,0,0,1,.4-.038q.476,0,.475.2c0,.017-.016.108-.05.275a5.427,5.427,0,0,1-1.75,2.7,3.939,3.939,0,0,1-2.474.925,2.883,2.883,0,0,1-2.651-1.575,3.5,3.5,0,0,1-1.85,1.5,3.222,3.222,0,0,1-.65.05,2.18,2.18,0,0,1-2.05-1.025,1.936,1.936,0,0,1-.25-1,1.892,1.892,0,0,1,.45-1.275,1.447,1.447,0,0,1,1.15-.525.94.94,0,0,1,1.075,1.05,1.411,1.411,0,0,1-.875,1.35l-.125.063-.125.062a.188.188,0,0,1-.075.025l-.075.025q0,.075.375.225a1.659,1.659,0,0,0,.65.125,1.846,1.846,0,0,0,1.55-1.125,18.9,18.9,0,0,0,.976-3.25q.149-.575.325-1.275t.262-1.075c.058-.25.095-.4.113-.45a6.136,6.136,0,0,0,.125-.975,1.344,1.344,0,0,0-.325-.95,1.171,1.171,0,0,0-.9-.35,2.608,2.608,0,0,0-1.95.863,4.734,4.734,0,0,0-1.15,1.987c-.034.15-.071.237-.112.263a1.247,1.247,0,0,1-.413.037Z"/><path class="d" d="M351.449,18.467l.1-.025h.551l.7.6q4.5,4.1,4.5,11.9a19.7,19.7,0,0,1-.725,5.55,13.476,13.476,0,0,1-3.775,6.35c-.116.1-.25.212-.4.337s-.25.213-.3.263h-.3a.942.942,0,0,1-.387-.05c-.058-.034-.088-.117-.088-.25.017-.016.109-.125.276-.325q3.874-4.026,3.875-11.875T351.6,19.067c-.167-.2-.259-.309-.276-.325A.293.293,0,0,1,351.449,18.467Z"/><path class="d" d="M367.324,28.517a.544.544,0,0,1,.35-.5H383.6a.546.546,0,0,1,.375.5.565.565,0,0,1-.35.475l-7.95.025h-7.95A.5.5,0,0,1,367.324,28.517Zm0,4.85a.5.5,0,0,1,.4-.5h15.9a1.3,1.3,0,0,0,.112.088,1.174,1.174,0,0,1,.125.1.438.438,0,0,1,.076.125.492.492,0,0,1,.037.188.546.546,0,0,1-.375.5H367.674A.544.544,0,0,1,367.324,33.367Z"/><path class="d" d="M393.074,30.242a.417.417,0,0,1-.15-.275,4.747,4.747,0,0,1,.775-1.725,4.291,4.291,0,0,1,2.95-2.05,4.142,4.142,0,0,1,.525-.05,3.035,3.035,0,0,1,1.612.45,2.689,2.689,0,0,1,1.063,1.125c.217-.283.35-.459.4-.525a2.769,2.769,0,0,1,2.125-1.05,2.357,2.357,0,0,1,1.662.587,1.88,1.88,0,0,1,.638,1.438,1.96,1.96,0,0,1-.438,1.3,1.436,1.436,0,0,1-1.162.525,1.1,1.1,0,0,1-.775-.275.936.936,0,0,1-.3-.725,1.589,1.589,0,0,1,1.25-1.575,1.029,1.029,0,0,0-.275-.175,1.423,1.423,0,0,0-.725-.15,1.643,1.643,0,0,0-.475.05,2.62,2.62,0,0,0-1.4,1.65q-.075.2-.725,2.788t-.7,2.912a3.816,3.816,0,0,0-.075.75,1.281,1.281,0,0,0,.35.95,1.252,1.252,0,0,0,.925.35,2.577,2.577,0,0,0,1.9-.887,4.621,4.621,0,0,0,1.15-1.963c.05-.166.1-.263.15-.287a1.18,1.18,0,0,1,.4-.038q.475,0,.475.2c0,.017-.017.108-.05.275a5.427,5.427,0,0,1-1.75,2.7,3.94,3.94,0,0,1-2.475.925,2.88,2.88,0,0,1-2.65-1.575,3.5,3.5,0,0,1-1.85,1.5,3.222,3.222,0,0,1-.65.05,2.18,2.18,0,0,1-2.05-1.025,1.936,1.936,0,0,1-.25-1,1.892,1.892,0,0,1,.45-1.275,1.447,1.447,0,0,1,1.15-.525.939.939,0,0,1,1.075,1.05,1.411,1.411,0,0,1-.875,1.35l-.125.063-.125.062a.188.188,0,0,1-.075.025l-.075.025q0,.075.375.225a1.662,1.662,0,0,0,.65.125,1.846,1.846,0,0,0,1.55-1.125,18.838,18.838,0,0,0,.975-3.25q.15-.575.325-1.275t.262-1.075c.059-.25.1-.4.113-.45a6.018,6.018,0,0,0,.125-.975,1.344,1.344,0,0,0-.325-.95,1.167,1.167,0,0,0-.9-.35,2.608,2.608,0,0,0-1.95.863,4.734,4.734,0,0,0-1.15,1.987c-.034.15-.071.237-.112.263a1.247,1.247,0,0,1-.413.037Z"/><path class="d" d="M407.774,22.119a.8.8,0,0,1-.619-.248.917.917,0,0,1-.225-.642,1.763,1.763,0,0,1,.655-1.392,2.8,2.8,0,0,1,1.517-.663h.217q.512,0,.642.015a3.53,3.53,0,0,1,.977.306,2.171,2.171,0,0,1,1.21,1.37,1.424,1.424,0,0,1,.043.393,2.422,2.422,0,0,1-.532,1.538,2.94,2.94,0,0,1-1.334.969c-.049.02-.049.034,0,.044a.9.9,0,0,0,.147.044,3.106,3.106,0,0,1,1.5.926,2.23,2.23,0,0,1,.612,1.537,2.551,2.551,0,0,1-.277,1.151,2.889,2.889,0,0,1-1.145,1.232,3.306,3.306,0,0,1-1.77.488,3.482,3.482,0,0,1-1.7-.408,2.1,2.1,0,0,1-1.006-1.093,1.646,1.646,0,0,1-.146-.714.87.87,0,0,1,.27-.663.97.97,0,0,1,1.319.007.89.89,0,0,1,.262.656.933.933,0,0,1-.19.583.862.862,0,0,1-.509.321l-.1.029a2.746,2.746,0,0,0,1.808.656,1.3,1.3,0,0,0,1.21-.772,3.359,3.359,0,0,0,.248-1.473v-.291a1.869,1.869,0,0,0-.934-1.852,3.113,3.113,0,0,0-.889-.1l-.612-.015-.044-.029a.558.558,0,0,1-.028-.234.347.347,0,0,1,.043-.218.114.114,0,0,1,.073-.043,5.22,5.22,0,0,0,.846-.073,1.263,1.263,0,0,0,.976-.722,3.229,3.229,0,0,0,.335-1.524,1.386,1.386,0,0,0-.51-1.267,1.209,1.209,0,0,0-.685-.2,2.157,2.157,0,0,0-1.282.393.642.642,0,0,0-.132.1.856.856,0,0,0-.116.124l-.044.059c.029.009.063.019.1.028a.7.7,0,0,1,.489.277.9.9,0,0,1,.2.569.8.8,0,0,1-.24.59A.84.84,0,0,1,407.774,22.119Z"/><path class="d" d="M421.561,30.942a.545.545,0,0,1,.35-.5h14.525a.521.521,0,0,1,0,1H421.911A.544.544,0,0,1,421.561,30.942Z"/><path class="d" d="M455.562,37.192q-.428-.075-3.976-.075-3.5,0-3.925.075h-.3v-1.15h.65a14.075,14.075,0,0,0,1.875-.075,1.6,1.6,0,0,0,.6-.3V22.742a.6.6,0,0,0-.2.075,7.358,7.358,0,0,1-2.575.475h-.475v-1.15h.475a6.97,6.97,0,0,0,3.5-.95,3.425,3.425,0,0,0,.775-.575c.034-.05.133-.075.3-.075a.631.631,0,0,1,.425.15v7.475l.025,7.5a2.419,2.419,0,0,0,1.625.375h1.475v1.15Z"/><polygon class="a" points="330 240 420 240 420 150 330 240"/><line class="k" x1="366" y1="132" x2="366" y2="240"/><line class="l" x1="366" y1="204" x2="366" y2="240"/><line class="o" x1="330" y1="240" x2="356.947" y2="240"/><path class="p" d="M366,240c-4.26,1.581-9.545,4.277-12.821,7.134l2.58-7.134-2.58-7.132C356.455,235.724,361.74,238.421,366,240Z"/><path class="d" d="M369,240.111c0-.1.107-.168.321-.2s.584-.06,1.111-.094a13.641,13.641,0,0,0,1.383-.152q4.3-.725,4.3-2.871V225.842q0-2.732,5.963-3.506-5.963-.774-5.963-3.328v-11.09a3.413,3.413,0,0,0-.1-.94,3.206,3.206,0,0,0-1.914-1.537,11.994,11.994,0,0,0-3.889-.775c-.033,0-.128,0-.284-.012s-.268-.017-.333-.026-.157-.021-.272-.038a.483.483,0,0,1-.247-.093.192.192,0,0,1-.074-.146c0-.22,3.667-.064,5.59.468s3.006,1.306,3.25,2.32a4.38,4.38,0,0,1,.049.754v10.988a2.063,2.063,0,0,0,.654,1.511,3.969,3.969,0,0,0,1.692.959q1.036.312,1.741.451a11.3,11.3,0,0,0,1.419.191c.1,0,.243,0,.432.013a3.48,3.48,0,0,1,.457.044c.115.021.231.04.345.057a.673.673,0,0,1,.272.089.174.174,0,0,1,.1.14.206.206,0,0,1-.074.165.58.58,0,0,1-.272.095c-.131.021-.267.036-.407.045s-.325.021-.556.038-.444.033-.642.051a11.165,11.165,0,0,0-3.3.8,2.8,2.8,0,0,0-1.766,1.588,2.22,2.22,0,0,0-.1.762v10.763a3.125,3.125,0,0,1-.086.815,2.348,2.348,0,0,1-.66.852,5.163,5.163,0,0,1-1.674.983A15.478,15.478,0,0,1,369,240.111Z"/><path class="d" d="M330,132.241a.57.57,0,0,1-.321.595,6.541,6.541,0,0,1-1.111.285,5.176,5.176,0,0,0-1.383.458q-4.3,2.181-4.3,8.644V175.2q0,8.223-5.963,10.555,5.963,2.331,5.963,10.02v33.386q0,1.872.1,2.829a9.084,9.084,0,0,0,1.915,4.627,6.157,6.157,0,0,0,3.888,2.334,2.584,2.584,0,0,1,.284.038,1.852,1.852,0,0,1,.333.076c.067.025.157.065.272.117a.467.467,0,0,1,.247.279,1.237,1.237,0,0,1,.074.439c0,.663-3.667.193-5.59-1.409a9.649,9.649,0,0,1-3.25-6.984q-.048-.769-.049-2.27v-33.08a14.33,14.33,0,0,0-.654-4.551,6.673,6.673,0,0,0-1.692-2.887,11.9,11.9,0,0,0-1.74-1.358,4.663,4.663,0,0,0-1.42-.573,3.641,3.641,0,0,1-.432-.039,1.326,1.326,0,0,1-.457-.134c-.115-.063-.231-.12-.345-.171a.557.557,0,0,1-.272-.268.9.9,0,0,1-.1-.421,1.385,1.385,0,0,1,.074-.5.523.523,0,0,1,.272-.287,1.58,1.58,0,0,1,.407-.134c.14-.025.326-.063.556-.114s.444-.1.642-.154a6.594,6.594,0,0,0,3.3-2.408,9.079,9.079,0,0,0,1.765-4.781,19.517,19.517,0,0,0,.1-2.294v-32.4q0-1.535.086-2.452a11.78,11.78,0,0,1,.66-2.566,9.307,9.307,0,0,1,1.674-2.96C325.557,131.8,330,131.735,330,132.241Z"/><line class="q" x1="330" y1="132.241" x2="333" y2="132.221"/><line class="r" x1="339" y1="132.181" x2="360" y2="132.04"/><line class="q" x1="363" y1="132.02" x2="366" y2="132"/><rect x="331" y="259" width="34" height="34"/><path class="p" d="M345.3,266.593q.375-.024.849-.062c.317-.025.554-.046.713-.063s.246-.024.263-.024c.2,0,.3.066.3.2q0,.175-1.838,7.563t-1.862,7.512a2.032,2.032,0,0,0-.026.375c0,.7.234,1.05.7,1.05a1.074,1.074,0,0,0,.5-.224,5.664,5.664,0,0,0,1.026-2.4c.1-.333.183-.508.25-.524a.709.709,0,0,1,.25-.026h.1c.317,0,.476.068.476.2a2.111,2.111,0,0,1-.075.4,6.511,6.511,0,0,1-1.351,2.9,2.469,2.469,0,0,1-.8.526,2.677,2.677,0,0,1-.6.05,2.257,2.257,0,0,1-2.2-1.225,2.035,2.035,0,0,0-.125-.3c-.017-.016-.05-.008-.1.026l-.1.1a5.1,5.1,0,0,1-2.374,1.375,4.7,4.7,0,0,1-.625.026,3.319,3.319,0,0,1-2.725-1.375,4.868,4.868,0,0,1-.75-2.8,7.643,7.643,0,0,1,1.7-4.6,6.541,6.541,0,0,1,3.449-2.375,3.754,3.754,0,0,1,1.025-.149,2.39,2.39,0,0,1,2.1,1.05c.084.1.125.133.125.1q.026-.1.688-2.737t.687-2.763a.451.451,0,0,0-.149-.4,3.7,3.7,0,0,0-1-.125h-.526a.716.716,0,0,1-.162-.2,2.607,2.607,0,0,1,.063-.475q.124-.476.325-.476c.016,0,.1-.008.262-.024s.384-.033.676-.051Zm-2.151,9.05q-.549-1.974-1.875-1.974a2.311,2.311,0,0,0-1.762.849,5.937,5.937,0,0,0-1.162,1.95,20.006,20.006,0,0,0-1.025,4.1c0,.05,0,.141-.012.274s-.013.234-.013.3a2.459,2.459,0,0,0,.388,1.45,1.3,1.3,0,0,0,1.137.55q1.326,0,2.775-1.8l.2-.274q.224-.9.675-2.713T343.149,275.643Z"/><path class="p" d="M348.8,276.843a.411.411,0,0,1-.151-.274,4.78,4.78,0,0,1,.776-1.726,4.286,4.286,0,0,1,2.95-2.049,3.949,3.949,0,0,1,.524-.05,3.027,3.027,0,0,1,1.613.45,2.68,2.68,0,0,1,1.062,1.125c.217-.283.351-.459.4-.525a2.766,2.766,0,0,1,2.125-1.05,2.358,2.358,0,0,1,1.662.587,1.877,1.877,0,0,1,.637,1.437,1.962,1.962,0,0,1-.437,1.3,1.436,1.436,0,0,1-1.162.524,1.107,1.107,0,0,1-.776-.274.939.939,0,0,1-.3-.726,1.59,1.59,0,0,1,1.25-1.575,1.056,1.056,0,0,0-.276-.175,1.433,1.433,0,0,0-.724-.149,1.608,1.608,0,0,0-.475.05,2.61,2.61,0,0,0-1.4,1.649q-.075.2-.725,2.788t-.7,2.912a3.816,3.816,0,0,0-.075.75,1.286,1.286,0,0,0,.349.951,1.253,1.253,0,0,0,.926.349,2.577,2.577,0,0,0,1.9-.887,4.61,4.61,0,0,0,1.151-1.962c.05-.167.1-.263.149-.288a1.22,1.22,0,0,1,.4-.038c.316,0,.474.068.474.2,0,.016-.016.108-.05.275a5.429,5.429,0,0,1-1.75,2.7,3.941,3.941,0,0,1-2.474.926,2.883,2.883,0,0,1-2.651-1.575,3.5,3.5,0,0,1-1.849,1.5,3.233,3.233,0,0,1-.651.05,2.178,2.178,0,0,1-2.049-1.026,1.931,1.931,0,0,1-.25-1,1.888,1.888,0,0,1,.45-1.274,1.444,1.444,0,0,1,1.149-.526.94.94,0,0,1,1.075,1.05,1.412,1.412,0,0,1-.875,1.351l-.125.062-.125.063a.194.194,0,0,1-.075.024l-.074.026c0,.049.125.125.375.224a1.654,1.654,0,0,0,.649.125,1.844,1.844,0,0,0,1.55-1.125,18.8,18.8,0,0,0,.976-3.25q.148-.575.325-1.274t.262-1.075c.058-.25.1-.4.113-.451a6.127,6.127,0,0,0,.125-.974,1.342,1.342,0,0,0-.325-.95,1.167,1.167,0,0,0-.9-.35,2.612,2.612,0,0,0-1.95.862,4.735,4.735,0,0,0-1.149,1.988c-.034.15-.071.237-.112.262a1.222,1.222,0,0,1-.414.037Z"/><circle class="s" cx="330.028" cy="240" r="5"/><rect x="387.096" y="204.254" width="68.904" height="33.449"/><path class="m" d="M403.436,228.62q-.426-.075-3.975-.076-3.5,0-3.925.076h-.3v-1.151h.65a14.141,14.141,0,0,0,1.875-.074,1.616,1.616,0,0,0,.6-.3V214.169a.609.609,0,0,0-.2.076,7.358,7.358,0,0,1-2.575.474h-.475V213.57h.475a6.97,6.97,0,0,0,3.5-.95,3.428,3.428,0,0,0,.775-.576c.034-.049.133-.075.3-.075a.633.633,0,0,1,.425.151v7.474l.025,7.5a2.419,2.419,0,0,0,1.625.375h1.475v1.151Z"/><path class="d" d="M407.486,222.37a1.452,1.452,0,0,1,1.5-1.5,1.478,1.478,0,0,1,1.087.437,1.418,1.418,0,0,1,.438,1.037,1.513,1.513,0,0,1-3.025.026Z"/><path class="p" d="M423.437,211.419q.375-.024.849-.062c.317-.024.553-.046.713-.063s.244-.024.262-.024c.2,0,.3.066.3.2q0,.176-1.838,7.563t-1.864,7.512a2.25,2.25,0,0,0-.025.375c0,.7.234,1.05.7,1.05a1.064,1.064,0,0,0,.5-.224,5.67,5.67,0,0,0,1.026-2.4c.1-.333.181-.508.25-.524a.705.705,0,0,1,.25-.026h.1c.317,0,.475.068.475.2a2.26,2.26,0,0,1-.074.4,6.532,6.532,0,0,1-1.352,2.9,2.475,2.475,0,0,1-.8.526,2.7,2.7,0,0,1-.6.05,2.259,2.259,0,0,1-2.2-1.225,2.066,2.066,0,0,0-.124-.3c-.016-.015-.049-.008-.1.026l-.1.1a5.111,5.111,0,0,1-2.375,1.375,4.674,4.674,0,0,1-.625.026,3.315,3.315,0,0,1-2.724-1.375,4.866,4.866,0,0,1-.75-2.8,7.646,7.646,0,0,1,1.7-4.6,6.555,6.555,0,0,1,3.45-2.375,3.76,3.76,0,0,1,1.025-.149,2.389,2.389,0,0,1,2.1,1.05c.084.1.125.133.125.1q.027-.1.688-2.737t.687-2.763a.45.45,0,0,0-.148-.4,3.7,3.7,0,0,0-1-.125h-.526a.716.716,0,0,1-.162-.2,2.328,2.328,0,0,1,.063-.475c.082-.316.191-.476.324-.476.015,0,.1-.007.262-.024s.384-.033.675-.051S423.151,211.436,423.437,211.419Zm-2.151,9.05q-.55-1.974-1.875-1.974a2.308,2.308,0,0,0-1.762.849,5.932,5.932,0,0,0-1.163,1.95,20.006,20.006,0,0,0-1.025,4.1c0,.05,0,.142-.013.274s-.011.234-.011.3a2.473,2.473,0,0,0,.386,1.45,1.3,1.3,0,0,0,1.138.55q1.326,0,2.775-1.8l.2-.274q.224-.9.673-2.713Z"/><path class="p" d="M426.936,221.669a.411.411,0,0,1-.151-.274,4.762,4.762,0,0,1,.776-1.726,4.286,4.286,0,0,1,2.95-2.049,3.935,3.935,0,0,1,.524-.05,3.032,3.032,0,0,1,1.613.45,2.687,2.687,0,0,1,1.062,1.125c.217-.283.351-.459.4-.525a2.769,2.769,0,0,1,2.125-1.05,2.359,2.359,0,0,1,1.663.587,1.88,1.88,0,0,1,.637,1.437,1.962,1.962,0,0,1-.437,1.3,1.436,1.436,0,0,1-1.162.524,1.1,1.1,0,0,1-.776-.274.94.94,0,0,1-.3-.726,1.59,1.59,0,0,1,1.25-1.575,1.068,1.068,0,0,0-.275-.175,1.434,1.434,0,0,0-.725-.149,1.635,1.635,0,0,0-.474.05,2.614,2.614,0,0,0-1.4,1.649q-.074.2-.724,2.788t-.7,2.912a3.817,3.817,0,0,0-.076.75,1.287,1.287,0,0,0,.35.951,1.252,1.252,0,0,0,.926.349,2.579,2.579,0,0,0,1.9-.886,4.629,4.629,0,0,0,1.151-1.963c.049-.166.1-.263.149-.287a1.178,1.178,0,0,1,.4-.039c.317,0,.475.068.475.2,0,.016-.017.108-.05.275a5.425,5.425,0,0,1-1.75,2.7,3.941,3.941,0,0,1-2.474.926,2.883,2.883,0,0,1-2.651-1.575,3.5,3.5,0,0,1-1.849,1.5,3.24,3.24,0,0,1-.651.05,2.18,2.18,0,0,1-2.05-1.026,1.931,1.931,0,0,1-.25-1,1.889,1.889,0,0,1,.451-1.274,1.441,1.441,0,0,1,1.149-.526.94.94,0,0,1,1.075,1.05,1.413,1.413,0,0,1-.875,1.351l-.125.062-.125.063a.194.194,0,0,1-.075.024l-.074.026c0,.049.125.125.375.224a1.654,1.654,0,0,0,.649.125,1.845,1.845,0,0,0,1.55-1.125,18.8,18.8,0,0,0,.976-3.25q.149-.574.325-1.274t.262-1.075c.058-.25.095-.4.113-.451a6.127,6.127,0,0,0,.125-.974,1.346,1.346,0,0,0-.325-.95,1.167,1.167,0,0,0-.9-.35,2.612,2.612,0,0,0-1.95.862,4.731,4.731,0,0,0-1.149,1.988c-.035.15-.072.237-.113.262a1.214,1.214,0,0,1-.413.037Z"/><rect x="204" y="168" width="108" height="36.191"/><path class="n" d="M216.677,183.514a1.364,1.364,0,0,1-1.062-.425,1.569,1.569,0,0,1-.387-1.1,3.02,3.02,0,0,1,1.125-2.388,4.786,4.786,0,0,1,2.6-1.138h.375q.874,0,1.1.026a6.077,6.077,0,0,1,1.676.524,3.721,3.721,0,0,1,2.074,2.351,2.383,2.383,0,0,1,.076.675,4.16,4.16,0,0,1-.913,2.637,5.045,5.045,0,0,1-2.288,1.662c-.083.034-.083.059,0,.076a1.716,1.716,0,0,0,.25.075,5.329,5.329,0,0,1,2.576,1.587,3.827,3.827,0,0,1,1.049,2.637,4.368,4.368,0,0,1-.474,1.975,4.959,4.959,0,0,1-1.963,2.113,5.687,5.687,0,0,1-3.037.837,5.981,5.981,0,0,1-2.926-.7,3.6,3.6,0,0,1-1.725-1.875,2.829,2.829,0,0,1-.25-1.225,1.5,1.5,0,0,1,.463-1.137,1.662,1.662,0,0,1,2.262.012,1.523,1.523,0,0,1,.451,1.125,1.6,1.6,0,0,1-.326,1,1.468,1.468,0,0,1-.875.55l-.174.05a4.7,4.7,0,0,0,3.1,1.125,2.229,2.229,0,0,0,2.074-1.324,5.738,5.738,0,0,0,.426-2.526v-.5a3.2,3.2,0,0,0-1.6-3.174,5.181,5.181,0,0,0-1.525-.175l-1.051-.026-.074-.049a.917.917,0,0,1-.051-.4.585.585,0,0,1,.076-.375.2.2,0,0,1,.125-.075,8.741,8.741,0,0,0,1.449-.125,2.167,2.167,0,0,0,1.676-1.237,5.527,5.527,0,0,0,.574-2.613,2.373,2.373,0,0,0-.875-2.174,2.062,2.062,0,0,0-1.174-.351,3.7,3.7,0,0,0-2.2.676,1.051,1.051,0,0,0-.224.162,1.416,1.416,0,0,0-.2.213l-.076.1c.051.017.109.034.176.05a1.2,1.2,0,0,1,.837.476,1.522,1.522,0,0,1,.337.974,1.376,1.376,0,0,1-.412,1.013A1.438,1.438,0,0,1,216.677,183.514Z"/><path class="n" d="M234.328,201.115c0,.149-.151.224-.45.224h-.326l-.7-.6q-4.5-4.1-4.5-11.9a20.139,20.139,0,0,1,.725-5.575,13.486,13.486,0,0,1,3.775-6.325c.116-.1.25-.212.4-.337s.25-.213.3-.263h.326a.592.592,0,0,1,.375.076.216.216,0,0,1,.075.149q0,.1-.276.375-3.874,4.1-3.875,11.9t3.875,11.9Q234.328,201.013,234.328,201.115Z"/><path class="d" d="M246.128,195.089q-.428-.074-3.977-.075-3.5,0-3.924.075h-.3v-1.15h.65a14.141,14.141,0,0,0,1.875-.074,1.616,1.616,0,0,0,.6-.3V180.639a.621.621,0,0,0-.2.075,7.368,7.368,0,0,1-2.576.475H237.8V180.04h.475a6.964,6.964,0,0,0,3.5-.951,3.432,3.432,0,0,0,.776-.575c.033-.05.133-.075.3-.075a.629.629,0,0,1,.423.15v7.475l.026,7.5a2.419,2.419,0,0,0,1.625.375H246.4v1.15Z"/><path class="n" d="M249.728,176.365l.1-.026h.551l.7.6q4.5,4.1,4.5,11.9a19.732,19.732,0,0,1-.724,5.55,13.493,13.493,0,0,1-3.776,6.351c-.116.1-.25.212-.4.337s-.25.213-.3.262h-.3a.939.939,0,0,1-.386-.049c-.059-.035-.088-.118-.088-.25.016-.017.108-.125.275-.326q3.875-4.024,3.875-11.875t-3.875-11.875c-.167-.2-.259-.308-.275-.325A.291.291,0,0,1,249.728,176.365Z"/><path class="n" d="M259.556,180.511a.816.816,0,0,1-.642-.261.934.934,0,0,1-.233-.642,2.386,2.386,0,0,1,.8-1.8,2.668,2.668,0,0,1,1.9-.751,3.159,3.159,0,0,1,2.077.678,2.844,2.844,0,0,1,1.013,1.77,4.521,4.521,0,0,1,.029.482,2.761,2.761,0,0,1-.51,1.589,9.661,9.661,0,0,1-1.647,1.676q-.525.451-1.457,1.34l-.86.817,1.108.014a17.418,17.418,0,0,0,2.434-.073c.039-.01.087-.111.145-.306a9.053,9.053,0,0,0,.2-.991v-.044h.583v.044l-.408,2.667v.044h-5.407v-.277a1,1,0,0,1,.029-.335q.015-.015,1.225-1.385,1.587-1.762,2.04-2.332a4.223,4.223,0,0,0,.976-2.433,2.546,2.546,0,0,0-.5-1.611,1.677,1.677,0,0,0-1.406-.648,1.6,1.6,0,0,0-1.37.758c-.02.039-.049.091-.087.16a.35.35,0,0,0-.044.087c0,.009.025.014.072.014a.741.741,0,0,1,.591.263.907.907,0,0,1,.226.612.87.87,0,0,1-.24.619A.834.834,0,0,1,259.556,180.511Z"/><path class="d" d="M267.19,188.839a1.452,1.452,0,0,1,1.5-1.5,1.477,1.477,0,0,1,1.086.438,1.418,1.418,0,0,1,.438,1.037,1.512,1.512,0,0,1-3.024.025Z"/><path class="p" d="M283.14,177.889q.375-.024.849-.062c.317-.025.554-.046.713-.063s.245-.024.263-.024c.2,0,.3.066.3.2q0,.176-1.838,7.563t-1.862,7.512a2.032,2.032,0,0,0-.026.375q0,1.05.7,1.05a1.067,1.067,0,0,0,.5-.225,5.651,5.651,0,0,0,1.026-2.4q.149-.5.25-.524a.709.709,0,0,1,.25-.026h.1c.317,0,.476.068.476.2a2.1,2.1,0,0,1-.075.4,6.521,6.521,0,0,1-1.351,2.9,2.48,2.48,0,0,1-.8.526,2.689,2.689,0,0,1-.6.049,2.256,2.256,0,0,1-2.2-1.224,2.035,2.035,0,0,0-.125-.3c-.017-.016-.05-.008-.1.025l-.1.1a5.1,5.1,0,0,1-2.375,1.375,4.736,4.736,0,0,1-.625.025,3.316,3.316,0,0,1-2.724-1.375,4.862,4.862,0,0,1-.75-2.8,7.641,7.641,0,0,1,1.7-4.6,6.545,6.545,0,0,1,3.449-2.375,3.728,3.728,0,0,1,1.026-.149,2.392,2.392,0,0,1,2.1,1.049c.084.1.125.134.125.1q.025-.1.688-2.737t.687-2.763a.451.451,0,0,0-.149-.4,3.7,3.7,0,0,0-1-.125h-.526a.7.7,0,0,1-.162-.2,2.51,2.51,0,0,1,.063-.474q.125-.476.325-.476c.016,0,.1-.008.262-.024s.383-.033.675-.051Zm-2.151,9.05q-.549-1.974-1.875-1.975a2.309,2.309,0,0,0-1.762.85,5.919,5.919,0,0,0-1.162,1.95,19.943,19.943,0,0,0-1.026,4.1c0,.05,0,.141-.012.274s-.012.234-.012.3a2.466,2.466,0,0,0,.387,1.45,1.3,1.3,0,0,0,1.137.55q1.326,0,2.776-1.8l.2-.274q.224-.9.675-2.713T280.989,186.939Z"/><path class="p" d="M286.64,188.139a.411.411,0,0,1-.151-.274,4.773,4.773,0,0,1,.776-1.726,4.29,4.29,0,0,1,2.95-2.05,4.071,4.071,0,0,1,.524-.049,3.032,3.032,0,0,1,1.613.45,2.687,2.687,0,0,1,1.062,1.125c.217-.283.351-.459.4-.526a2.768,2.768,0,0,1,2.125-1.049,2.358,2.358,0,0,1,1.662.587,1.88,1.88,0,0,1,.637,1.437,1.962,1.962,0,0,1-.437,1.3,1.439,1.439,0,0,1-1.162.524,1.1,1.1,0,0,1-.776-.274.939.939,0,0,1-.3-.726,1.59,1.59,0,0,1,1.25-1.575,1.056,1.056,0,0,0-.276-.175,1.433,1.433,0,0,0-.724-.149,1.608,1.608,0,0,0-.475.05,2.61,2.61,0,0,0-1.4,1.649q-.075.2-.725,2.788t-.7,2.912a3.816,3.816,0,0,0-.075.75,1.282,1.282,0,0,0,.349.95,1.25,1.25,0,0,0,.926.35,2.577,2.577,0,0,0,1.9-.887,4.613,4.613,0,0,0,1.151-1.963c.05-.166.1-.262.149-.287a1.22,1.22,0,0,1,.4-.038c.316,0,.474.068.474.2,0,.017-.016.109-.05.276a5.429,5.429,0,0,1-1.75,2.7,3.941,3.941,0,0,1-2.474.926,2.884,2.884,0,0,1-2.651-1.575,3.5,3.5,0,0,1-1.849,1.5,3.247,3.247,0,0,1-.651.049,2.178,2.178,0,0,1-2.049-1.025,1.931,1.931,0,0,1-.25-1,1.888,1.888,0,0,1,.45-1.274,1.442,1.442,0,0,1,1.149-.526.94.94,0,0,1,1.075,1.05,1.414,1.414,0,0,1-.875,1.351l-.125.062-.125.063a.194.194,0,0,1-.075.024l-.074.025q0,.075.375.225a1.654,1.654,0,0,0,.649.125,1.844,1.844,0,0,0,1.55-1.125,18.8,18.8,0,0,0,.976-3.25q.149-.574.325-1.274t.262-1.076c.058-.25.1-.4.113-.45a6.127,6.127,0,0,0,.125-.974,1.346,1.346,0,0,0-.325-.951,1.17,1.17,0,0,0-.9-.349,2.612,2.612,0,0,0-1.95.862,4.732,4.732,0,0,0-1.149,1.987c-.034.151-.072.238-.113.263a1.214,1.214,0,0,1-.413.037Z"/></svg>