<svg xmlns="http://www.w3.org/2000/svg" xmlns:xlink="http://www.w3.org/1999/xlink" width="1800" height="720" viewBox="0 0 1800 720"><defs><style>.a,.e,.h,.n,.p{fill:none;}.b,.k,.p{stroke:#777;}.b,.n,.p{stroke-miterlimit:10;}.c{clip-path:url(#a);}.d{opacity:0.15;}.e,.n{stroke:#fff;}.e,.h{stroke-miterlimit:120;}.f{opacity:0.25;}.g{opacity:0.4;}.h,.o{stroke:#fff933;}.i{clip-path:url(#b);}.j{clip-path:url(#c);}.k{stroke-miterlimit:24;}.l{fill:#fff;}.m{fill:#fff933;}.n{stroke-width:2px;}.o{stroke-miterlimit:12;stroke-width:1.5px;}.q{isolation:isolate;}</style><clipPath id="a"><rect class="a" x="135" y="225" width="360" height="360.001"/></clipPath><clipPath id="b"><rect class="a" x="720" y="225" width="360" height="360.001"/></clipPath><clipPath id="c"><rect class="a" x="1305" y="225" width="360" height="360.001"/></clipPath></defs><rect width="1800" height="720"/><rect class="b" x="1215" y="135" width="540" height="540"/><rect class="b" x="630" y="135" width="540" height="540"/><rect class="b" x="45" y="135" width="540" height="540"/><g class="c"><g class="d"><line class="e" x1="153" y1="212.257" x2="153" y2="590.257"/><line class="e" x1="171" y1="212.257" x2="171" y2="590.257"/><line class="e" x1="189" y1="212.257" x2="189" y2="590.257"/><line class="e" x1="207" y1="212.257" x2="207" y2="590.257"/><line class="e" x1="243" y1="212.257" x2="243" y2="590.257"/><line class="e" x1="261" y1="212.257" x2="261" y2="590.257"/><line class="e" x1="279" y1="212.257" x2="279" y2="590.257"/><line class="e" x1="297" y1="212.257" x2="297" y2="590.257"/><line class="e" x1="333" y1="212.257" x2="333" y2="590.257"/><line class="e" x1="351" y1="212.257" x2="351" y2="590.257"/><line class="e" x1="369" y1="212.257" x2="369" y2="590.257"/><line class="e" x1="387" y1="212.257" x2="387" y2="590.257"/><line class="e" x1="423" y1="212.257" x2="423" y2="590.257"/><line class="e" x1="441" y1="212.257" x2="441" y2="590.257"/><line class="e" x1="459" y1="212.257" x2="459" y2="590.257"/><line class="e" x1="477" y1="212.257" x2="477" y2="590.257"/><line class="e" x1="135" y1="230.257" x2="495" y2="230.257"/><line class="e" x1="135" y1="248.257" x2="495" y2="248.257"/><line class="e" x1="135" y1="266.257" x2="495" y2="266.257"/><line class="e" x1="135" y1="284.257" x2="495" y2="284.257"/><line class="e" x1="135" y1="320.257" x2="495" y2="320.257"/><line class="e" x1="135" y1="338.257" x2="495" y2="338.257"/><line class="e" x1="135" y1="356.257" x2="495" y2="356.257"/><line class="e" x1="135" y1="374.257" x2="495" y2="374.257"/><line class="e" x1="135" y1="410.257" x2="495" y2="410.257"/><line class="e" x1="135" y1="428.257" x2="495" y2="428.257"/><line class="e" x1="135" y1="446.257" x2="495" y2="446.257"/><line class="e" x1="135" y1="464.257" x2="495" y2="464.257"/><line class="e" x1="135" y1="500.257" x2="495" y2="500.257"/><line class="e" x1="135" y1="518.257" x2="495" y2="518.257"/><line class="e" x1="135" y1="536.257" x2="495" y2="536.257"/><line class="e" x1="135" y1="554.257" x2="495" y2="554.257"/><line class="e" x1="135" y1="590.257" x2="495" y2="590.257"/></g><g class="f"><line class="e" x1="225" y1="212.257" x2="225" y2="590.257"/><line class="e" x1="405" y1="212.257" x2="405" y2="590.257"/><line class="e" x1="135" y1="212.257" x2="495" y2="212.257"/><line class="e" x1="135" y1="392.257" x2="495" y2="392.257"/><line class="e" x1="135" y1="572.257" x2="495" y2="572.257"/></g><g class="g"><line class="e" x1="135" y1="212.257" x2="135" y2="590.257"/><line class="e" x1="315" y1="212.257" x2="315" y2="590.257"/><line class="e" x1="495" y1="212.257" x2="495" y2="590.257"/><line class="e" x1="135" y1="302.257" x2="495" y2="302.257"/><line class="e" x1="135" y1="482.257" x2="495" y2="482.257"/></g><path class="h" d="M315.6,404.524c13.694-11.138,24.351-25.488,34.2-40.009,12.523-18.748,23.515-38.486,34.2-58.324,14.465-26.944,28.221-54.28,42.753-81.191q7.268-13.457,14.847-26.741c15.522-26.793,32.056-53.4,53.4-76"/><path class="h" d="M135,122.257h0c20,62.343,39.324,125.057,64.2,185.677,6.405,15.411,13.253,30.694,21,45.481,6.358,12.073,13.309,23.923,21.6,34.782,19.758,25.826,43.589,39.852,72.6,17.27"/></g><g class="i"><g class="d"><line class="e" x1="738" y1="223.567" x2="738" y2="601.567"/><line class="e" x1="756" y1="223.567" x2="756" y2="601.567"/><line class="e" x1="774" y1="223.567" x2="774" y2="601.567"/><line class="e" x1="792" y1="223.567" x2="792" y2="601.567"/><line class="e" x1="828" y1="223.567" x2="828" y2="601.567"/><line class="e" x1="846" y1="223.567" x2="846" y2="601.567"/><line class="e" x1="864" y1="223.567" x2="864" y2="601.567"/><line class="e" x1="882" y1="223.567" x2="882" y2="601.567"/><line class="e" x1="918" y1="223.567" x2="918" y2="601.567"/><line class="e" x1="936" y1="223.567" x2="936" y2="601.567"/><line class="e" x1="954" y1="223.567" x2="954" y2="601.567"/><line class="e" x1="972" y1="223.567" x2="972" y2="601.567"/><line class="e" x1="1008" y1="223.567" x2="1008" y2="601.567"/><line class="e" x1="1026" y1="223.567" x2="1026" y2="601.567"/><line class="e" x1="1044" y1="223.567" x2="1044" y2="601.567"/><line class="e" x1="1062" y1="223.567" x2="1062" y2="601.567"/><line class="e" x1="720" y1="223.567" x2="1080" y2="223.567"/><line class="e" x1="720" y1="241.567" x2="1080" y2="241.567"/><line class="e" x1="720" y1="259.567" x2="1080" y2="259.567"/><line class="e" x1="720" y1="295.567" x2="1080" y2="295.567"/><line class="e" x1="720" y1="313.567" x2="1080" y2="313.567"/><line class="e" x1="720" y1="331.567" x2="1080" y2="331.567"/><line class="e" x1="720" y1="349.567" x2="1080" y2="349.567"/><line class="e" x1="720" y1="385.567" x2="1080" y2="385.567"/><line class="e" x1="720" y1="403.567" x2="1080" y2="403.567"/><line class="e" x1="720" y1="421.567" x2="1080" y2="421.567"/><line class="e" x1="720" y1="439.567" x2="1080" y2="439.567"/><line class="e" x1="720" y1="475.567" x2="1080" y2="475.567"/><line class="e" x1="720" y1="493.567" x2="1080" y2="493.567"/><line class="e" x1="720" y1="511.567" x2="1080" y2="511.567"/><line class="e" x1="720" y1="529.567" x2="1080" y2="529.567"/><line class="e" x1="720" y1="565.567" x2="1080" y2="565.567"/><line class="e" x1="720" y1="583.567" x2="1080" y2="583.567"/><line class="e" x1="720" y1="601.567" x2="1080" y2="601.567"/></g><g class="f"><line class="e" x1="810" y1="223.567" x2="810" y2="601.567"/><line class="e" x1="990" y1="223.567" x2="990" y2="601.567"/><line class="e" x1="720" y1="367.567" x2="1080" y2="367.567"/><line class="e" x1="720" y1="547.567" x2="1080" y2="547.567"/></g><g class="g"><line class="e" x1="720" y1="223.567" x2="720" y2="601.567"/><line class="e" x1="900" y1="223.567" x2="900" y2="601.567"/><line class="e" x1="1080" y1="223.567" x2="1080" y2="601.567"/><line class="e" x1="720" y1="277.567" x2="1080" y2="277.567"/><line class="e" x1="720" y1="457.567" x2="1080" y2="457.567"/></g></g><g class="j"><g class="d"><line class="e" x1="1323" y1="210.666" x2="1323" y2="588.666"/><line class="e" x1="1341" y1="210.666" x2="1341" y2="588.666"/><line class="e" x1="1359" y1="210.666" x2="1359" y2="588.666"/><line class="e" x1="1377" y1="210.666" x2="1377" y2="588.666"/><line class="e" x1="1413" y1="210.666" x2="1413" y2="588.666"/><line class="e" x1="1431" y1="210.666" x2="1431" y2="588.666"/><line class="e" x1="1449" y1="210.666" x2="1449" y2="588.666"/><line class="e" x1="1467" y1="210.666" x2="1467" y2="588.666"/><line class="e" x1="1503" y1="210.666" x2="1503" y2="588.666"/><line class="e" x1="1521" y1="210.666" x2="1521" y2="588.666"/><line class="e" x1="1539" y1="210.666" x2="1539" y2="588.666"/><line class="e" x1="1557" y1="210.666" x2="1557" y2="588.666"/><line class="e" x1="1593" y1="210.666" x2="1593" y2="588.666"/><line class="e" x1="1611" y1="210.666" x2="1611" y2="588.666"/><line class="e" x1="1629" y1="210.666" x2="1629" y2="588.666"/><line class="e" x1="1647" y1="210.666" x2="1647" y2="588.666"/><line class="e" x1="1305" y1="228.666" x2="1665" y2="228.666"/><line class="e" x1="1305" y1="246.666" x2="1665" y2="246.666"/><line class="e" x1="1305" y1="264.666" x2="1665" y2="264.666"/><line class="e" x1="1305" y1="282.666" x2="1665" y2="282.666"/><line class="e" x1="1305" y1="318.666" x2="1665" y2="318.666"/><line class="e" x1="1305" y1="336.666" x2="1665" y2="336.666"/><line class="e" x1="1305" y1="354.666" x2="1665" y2="354.666"/><line class="e" x1="1305" y1="372.666" x2="1665" y2="372.666"/><line class="e" x1="1305" y1="408.666" x2="1665" y2="408.666"/><line class="e" x1="1305" y1="426.666" x2="1665" y2="426.666"/><line class="e" x1="1305" y1="444.666" x2="1665" y2="444.666"/><line class="e" x1="1305" y1="462.666" x2="1665" y2="462.666"/><line class="e" x1="1305" y1="498.666" x2="1665" y2="498.666"/><line class="e" x1="1305" y1="516.666" x2="1665" y2="516.666"/><line class="e" x1="1305" y1="534.666" x2="1665" y2="534.666"/><line class="e" x1="1305" y1="552.666" x2="1665" y2="552.666"/><line class="e" x1="1305" y1="588.666" x2="1665" y2="588.666"/></g><g class="f"><line class="e" x1="1395" y1="210.666" x2="1395" y2="588.666"/><line class="e" x1="1575" y1="210.666" x2="1575" y2="588.666"/><line class="e" x1="1305" y1="300.666" x2="1665" y2="300.666"/><line class="e" x1="1305" y1="480.666" x2="1665" y2="480.666"/></g><g class="g"><line class="e" x1="1305" y1="210.666" x2="1305" y2="588.666"/><line class="e" x1="1485" y1="210.666" x2="1485" y2="588.666"/><line class="e" x1="1665" y1="210.666" x2="1665" y2="588.666"/><line class="e" x1="1305" y1="210.666" x2="1665" y2="210.666"/><line class="e" x1="1305" y1="390.666" x2="1665" y2="390.666"/><line class="e" x1="1305" y1="570.666" x2="1665" y2="570.666"/></g></g><rect class="k" x="215" y="22.5" width="200" height="90"/><path class="l" d="M317.4,42.1q-2.3,0-2.3,1.625a1.128,1.128,0,0,0,.05.425,1.5,1.5,0,0,0,.775.862,7.57,7.57,0,0,0,1.7.488,6.759,6.759,0,0,1,1.95.55,3.622,3.622,0,0,1,2.025,2.475,4.644,4.644,0,0,1,.025.6,4.041,4.041,0,0,1-.35,1.725A3.768,3.768,0,0,1,317.6,52.7a3.978,3.978,0,0,1-2.6-.9l-.2.175-.225.225c-.1.1-.2.192-.3.275l-.275.25h-.2a.453.453,0,0,1-.325-.15V50.6q0-1.624.012-1.875c.009-.167.046-.267.113-.3a1.569,1.569,0,0,1,.4-.025.836.836,0,0,1,.387.05.8.8,0,0,1,.138.35,5.779,5.779,0,0,0,.65,1.725A2.781,2.781,0,0,0,317.6,51.8q2.424,0,2.425-1.95a1.59,1.59,0,0,0-.45-1.175,2.169,2.169,0,0,0-1.05-.675q-.426-.1-1.2-.275a8.543,8.543,0,0,1-1.9-.525,3.122,3.122,0,0,1-1.925-2.325,1.813,1.813,0,0,1-.025-.375q0-2.876,3.525-3.225a1.63,1.63,0,0,1,.6,0,3.868,3.868,0,0,1,1.75.375l.375.2.225-.175a6.286,6.286,0,0,1,.55-.425h.2a.455.455,0,0,1,.325.15v3.3l-.15.15h-.7a.432.432,0,0,1-.15-.3,2.337,2.337,0,0,0-.7-1.8A2.718,2.718,0,0,0,317.4,42.1Z"/><path class="l" d="M328.676,52.45a21.355,21.355,0,0,0-2.6-.075,26.381,26.381,0,0,0-2.725.075h-.2V51.3h.4a8.768,8.768,0,0,0,1.225-.075.542.542,0,0,0,.3-.275q.024-.05.025-3.625a34.778,34.778,0,0,0-.1-4q-.2-.5-1.475-.5h-.275V42.25q0-.575.05-.575l.25-.025c.166-.017.4-.033.7-.05l.9-.05q.425-.025.9-.063t.725-.062c.166-.017.258-.025.275-.025h.075v9.5a.576.576,0,0,0,.3.312,3.934,3.934,0,0,0,.875.088h.575v1.15Zm-2.9-16.725a1.608,1.608,0,0,1,1.025.437,1.415,1.415,0,0,1,.4,1.063,1.338,1.338,0,0,1-.675,1.275,1.374,1.374,0,0,1-.8.225,1.416,1.416,0,0,1-.825-.225,1.338,1.338,0,0,1-.675-1.275,1.415,1.415,0,0,1,.438-1.1A1.581,1.581,0,0,1,325.776,35.725Z"/><path class="l" d="M334.151,50.95q.2.349,1.175.35h.75v1.15h-.2a52.286,52.286,0,0,0-5.6,0h-.2V51.3h.75q.975,0,1.174-.35v-.775c0-.234,0-.5.013-.788s.013-.616.013-.975V47.375q0-.776-.013-1.663T332,44.25v-.575a.824.824,0,0,0-.362-.638,2.913,2.913,0,0,0-1.112-.212h-.45V42.25q0-.575.049-.575l.25-.025c.167-.017.4-.033.713-.05l.912-.05q.426-.025.9-.063c.316-.025.558-.046.724-.062s.259-.025.276-.025h.075v1a7.078,7.078,0,0,0,.024.95l.026-.025a4.4,4.4,0,0,1,3.825-1.925,2.917,2.917,0,0,1,3.175,2.825q.024.174.025,3.475,0,3.2.025,3.25a.537.537,0,0,0,.3.275,8.793,8.793,0,0,0,1.226.075h.4v1.15h-.2a52.3,52.3,0,0,0-5.6,0H337V51.3h.6q1.324,0,1.325-.4.024-.05.025-3.45-.025-3.375-.05-3.575a2.209,2.209,0,0,0-.563-1.163,1.689,1.689,0,0,0-1.187-.362,2.707,2.707,0,0,0-1.975.85,3.572,3.572,0,0,0-1.025,2.2v.462c0,.292,0,.663-.013,1.113s-.013.875-.013,1.275v.787q0,.413.013.738c.008.217.013.412.013.587v.588Z"/><path class="l" d="M351.676,58.475c0,.15-.151.225-.45.225H350.9l-.7-.6q-4.5-4.1-4.5-11.9a20.134,20.134,0,0,1,.725-5.575A13.476,13.476,0,0,1,350.2,34.3c.116-.1.25-.213.4-.338s.25-.212.3-.262h.326a.593.593,0,0,1,.375.075.22.22,0,0,1,.075.15q0,.1-.276.375-3.874,4.1-3.875,11.9T351.4,58.1Q351.676,58.375,351.676,58.475Z"/><path class="l" d="M363.851,51.525a1.144,1.144,0,0,1-.363.8,1.185,1.185,0,0,1-.887.375.938.938,0,0,1-.513-.1,1.13,1.13,0,0,1-.287-.4,7.026,7.026,0,0,1-.475-2.775q0-.9.025-1.2a31.358,31.358,0,0,1,.774-4.175c.084-.334.125-.517.125-.55H359.8l-.025.1a1.835,1.835,0,0,1-.05.212c-.034.125-.08.309-.138.55s-.112.463-.162.663a70.378,70.378,0,0,1-1.975,7,1.081,1.081,0,0,1-1.076.7.825.825,0,0,1-.8-.425,1.15,1.15,0,0,1-.05-.4v-.275l.325-.7a48.452,48.452,0,0,0,2.725-6.825l.2-.6h-.8a8.532,8.532,0,0,0-1.388.075,2.521,2.521,0,0,0-.937.475,3.6,3.6,0,0,0-1.05,1.025.7.7,0,0,1-.2.237,1.092,1.092,0,0,1-.375.038q-.476,0-.475-.25a1.551,1.551,0,0,1,.25-.5q1.725-2.625,3.375-2.875.174-.051,5.625-.05,4,0,4.1.025a.682.682,0,0,1,.5.7,1.044,1.044,0,0,1-.8,1.05,13.656,13.656,0,0,1-1.726.05h-1.6l-.075.425a18.65,18.65,0,0,0-.3,2.975,10.074,10.074,0,0,0,.775,4.025A2.193,2.193,0,0,1,363.851,51.525Z"/><path class="l" d="M368.775,45.5a.417.417,0,0,1-.15-.275A4.747,4.747,0,0,1,369.4,43.5a4.285,4.285,0,0,1,2.95-2.05,4.126,4.126,0,0,1,.525-.05,3.041,3.041,0,0,1,1.613.45,2.693,2.693,0,0,1,1.062,1.125c.217-.284.35-.458.4-.525a2.769,2.769,0,0,1,2.125-1.05,2.363,2.363,0,0,1,1.663.587,1.881,1.881,0,0,1,.637,1.438,1.967,1.967,0,0,1-.437,1.3,1.439,1.439,0,0,1-1.163.525,1.1,1.1,0,0,1-.775-.275.936.936,0,0,1-.3-.725,1.589,1.589,0,0,1,1.25-1.575,1,1,0,0,0-.275-.175,1.425,1.425,0,0,0-.725-.15,1.643,1.643,0,0,0-.475.05,2.618,2.618,0,0,0-1.4,1.65q-.075.2-.725,2.787t-.7,2.913a3.816,3.816,0,0,0-.075.75,1.282,1.282,0,0,0,.35.95,1.252,1.252,0,0,0,.925.35,2.579,2.579,0,0,0,1.9-.888,4.611,4.611,0,0,0,1.15-1.962q.075-.251.15-.288a1.219,1.219,0,0,1,.4-.037c.317,0,.475.066.475.2,0,.016-.017.108-.05.275a5.443,5.443,0,0,1-1.75,2.7,3.94,3.94,0,0,1-2.475.925A2.88,2.88,0,0,1,373,51.15a3.5,3.5,0,0,1-1.85,1.5,3.222,3.222,0,0,1-.65.05,2.18,2.18,0,0,1-2.05-1.025,1.933,1.933,0,0,1-.25-1,1.892,1.892,0,0,1,.45-1.275,1.447,1.447,0,0,1,1.15-.525.939.939,0,0,1,1.075,1.05,1.411,1.411,0,0,1-.875,1.35l-.125.062-.125.063a.188.188,0,0,1-.075.025l-.075.025q0,.075.375.225a1.68,1.68,0,0,0,.65.125,1.845,1.845,0,0,0,1.55-1.125,18.838,18.838,0,0,0,.975-3.25q.15-.574.325-1.275t.263-1.075c.058-.25.1-.4.112-.45a6.018,6.018,0,0,0,.125-.975,1.339,1.339,0,0,0-.325-.95,1.165,1.165,0,0,0-.9-.35,2.61,2.61,0,0,0-1.95.862,4.748,4.748,0,0,0-1.15,1.988c-.033.15-.071.237-.112.262a1.206,1.206,0,0,1-.413.038Z"/><path class="l" d="M383.125,33.725l.1-.025h.55l.7.6q4.5,4.1,4.5,11.9a19.736,19.736,0,0,1-.725,5.55,13.489,13.489,0,0,1-3.775,6.35q-.176.15-.4.337c-.15.125-.25.213-.3.263h-.3a.948.948,0,0,1-.388-.05c-.058-.034-.087-.117-.087-.25.017-.017.108-.125.275-.325q3.875-4.026,3.875-11.875t-3.875-11.875c-.167-.2-.258-.308-.275-.325A.3.3,0,0,1,383.125,33.725Z"/><path class="l" d="M321.075,89.837a.415.415,0,0,1-.15-.275,4.747,4.747,0,0,1,.775-1.725,4.287,4.287,0,0,1,2.95-2.05,4.126,4.126,0,0,1,.525-.05,3.041,3.041,0,0,1,1.613.45,2.693,2.693,0,0,1,1.062,1.125c.216-.283.35-.458.4-.525a2.769,2.769,0,0,1,2.125-1.05,2.359,2.359,0,0,1,1.663.588,1.882,1.882,0,0,1,.637,1.437,1.96,1.96,0,0,1-.438,1.3,1.436,1.436,0,0,1-1.162.525,1.1,1.1,0,0,1-.775-.275.936.936,0,0,1-.3-.725,1.591,1.591,0,0,1,1.25-1.575,1.029,1.029,0,0,0-.275-.175,1.428,1.428,0,0,0-.725-.15,1.643,1.643,0,0,0-.475.05,2.62,2.62,0,0,0-1.4,1.65q-.075.2-.725,2.788t-.7,2.912a3.816,3.816,0,0,0-.075.75,1.281,1.281,0,0,0,.35.95,1.248,1.248,0,0,0,.925.35,2.583,2.583,0,0,0,1.9-.887,4.621,4.621,0,0,0,1.15-1.963c.05-.166.1-.263.15-.287a1.208,1.208,0,0,1,.4-.038c.316,0,.475.067.475.2,0,.017-.017.109-.05.275a5.434,5.434,0,0,1-1.75,2.7,3.942,3.942,0,0,1-2.475.925,2.88,2.88,0,0,1-2.65-1.575,3.5,3.5,0,0,1-1.85,1.5,3.149,3.149,0,0,1-.65.05,2.178,2.178,0,0,1-2.05-1.025,1.931,1.931,0,0,1-.25-1,1.892,1.892,0,0,1,.45-1.275,1.447,1.447,0,0,1,1.15-.525.94.94,0,0,1,1.075,1.05,1.411,1.411,0,0,1-.875,1.35l-.125.063-.125.062a.188.188,0,0,1-.075.025l-.075.025q0,.075.375.225a1.659,1.659,0,0,0,.65.125,1.845,1.845,0,0,0,1.55-1.125,18.938,18.938,0,0,0,.975-3.25q.15-.575.325-1.275t.263-1.075c.058-.25.095-.4.112-.45a6.136,6.136,0,0,0,.125-.975,1.341,1.341,0,0,0-.325-.95,1.17,1.17,0,0,0-.9-.35,2.611,2.611,0,0,0-1.95.863,4.745,4.745,0,0,0-1.15,1.987c-.033.15-.071.237-.113.263a1.206,1.206,0,0,1-.412.037Z"/><path class="l" d="M335.528,82.209a.812.812,0,0,1-.641-.262.928.928,0,0,1-.234-.641,2.391,2.391,0,0,1,.795-1.8,2.673,2.673,0,0,1,1.9-.75,3.159,3.159,0,0,1,2.077.678A2.848,2.848,0,0,1,340.44,81.2a4.473,4.473,0,0,1,.029.481,2.755,2.755,0,0,1-.51,1.588,9.661,9.661,0,0,1-1.647,1.676q-.525.451-1.458,1.341l-.859.816,1.107.015a17.406,17.406,0,0,0,2.434-.073c.039-.009.088-.111.146-.306a9.112,9.112,0,0,0,.2-.991v-.044h.583v.044l-.408,2.667v.044h-5.408v-.277a.954.954,0,0,1,.03-.335l1.224-1.385q1.589-1.762,2.04-2.332a4.225,4.225,0,0,0,.977-2.434,2.554,2.554,0,0,0-.5-1.611,1.678,1.678,0,0,0-1.406-.648,1.6,1.6,0,0,0-1.37.758c-.02.039-.049.093-.088.16a.312.312,0,0,0-.043.088c0,.01.024.014.072.014a.744.744,0,0,1,.591.263.91.91,0,0,1,.225.612.87.87,0,0,1-.24.619A.826.826,0,0,1,335.528,82.209Z"/><path class="l" d="M349.562,90.537a.546.546,0,0,1,.351-.5h14.525a.521.521,0,0,1,0,1H349.913A.544.544,0,0,1,349.562,90.537Z"/><path class="l" d="M383.562,96.787q-.426-.075-3.975-.075-3.5,0-3.925.075h-.3v-1.15h.65a14.075,14.075,0,0,0,1.875-.075,1.586,1.586,0,0,0,.6-.3V82.337a.6.6,0,0,0-.2.075,7.358,7.358,0,0,1-2.575.475h-.475v-1.15h.475a6.97,6.97,0,0,0,3.5-.95,3.425,3.425,0,0,0,.775-.575c.034-.05.133-.075.3-.075a.631.631,0,0,1,.425.15v7.475l.025,7.5a2.419,2.419,0,0,0,1.625.375h1.475v1.15Z"/><path class="m" d="M235.95,77.668q.675.15.725.15.574,0,1-1.05.3-.825,1.825-8.9.7-3.774.725-3.8v-.075H239.05a6.679,6.679,0,0,1-1.25-.05c-.117-.066-.133-.25-.05-.55a2.118,2.118,0,0,1,.125-.4.226.226,0,0,1,.212-.138c.109-.007.5-.012,1.163-.012a10.717,10.717,0,0,0,1.2-.025q0-.05.225-1.25t.3-1.45a6.1,6.1,0,0,1,1.575-3.3,3.228,3.228,0,0,1,2.075-.825,2.557,2.557,0,0,1,1.513.55,1.627,1.627,0,0,1,.612,1.325,1.763,1.763,0,0,1-.45,1.225,1.448,1.448,0,0,1-1.125.5q-1.1,0-1.1-1.05a1.412,1.412,0,0,1,.875-1.35l.225-.125a2.468,2.468,0,0,0-.75-.15q-.726,0-.95.95-.2.75-.65,3.275l-.325,1.65a7.064,7.064,0,0,0,1.375.05q1.125,0,1.35.025c.15.017.225.075.225.175a2.768,2.768,0,0,1-.175.8.241.241,0,0,1-.237.137c-.125.009-.572.013-1.338.013h-1.4l-.575,3.05q-.925,4.776-1.15,5.775-.85,3.774-2.275,5.125a2.816,2.816,0,0,1-1.825.8,2.266,2.266,0,0,1-1.5-.5,1.638,1.638,0,0,1-.6-1.325,1.843,1.843,0,0,1,.45-1.262,1.435,1.435,0,0,1,1.125-.513q1.1,0,1.1,1.05a1.411,1.411,0,0,1-.875,1.35Z"/><path class="l" d="M253.575,79.643q0,.225-.45.225H252.8l-.7-.6q-4.5-4.1-4.5-11.9a20.139,20.139,0,0,1,.725-5.575,13.481,13.481,0,0,1,3.775-6.325c.116-.1.25-.212.4-.337s.25-.213.3-.263h.325a.593.593,0,0,1,.375.075.216.216,0,0,1,.075.15q0,.1-.275.375-3.876,4.1-3.875,11.9t3.875,11.9Q253.575,79.542,253.575,79.643Z"/><path class="l" d="M256.425,66.668a.417.417,0,0,1-.151-.275,4.77,4.77,0,0,1,.776-1.725,4.287,4.287,0,0,1,2.95-2.05,4.13,4.13,0,0,1,.524-.05,3.036,3.036,0,0,1,1.613.45,2.7,2.7,0,0,1,1.063,1.125c.216-.283.35-.458.4-.525a2.769,2.769,0,0,1,2.125-1.05,2.354,2.354,0,0,1,1.662.588,1.879,1.879,0,0,1,.637,1.437,1.965,1.965,0,0,1-.437,1.3,1.437,1.437,0,0,1-1.162.525,1.1,1.1,0,0,1-.776-.275.939.939,0,0,1-.3-.725,1.59,1.59,0,0,1,1.25-1.575,1.029,1.029,0,0,0-.275-.175,1.428,1.428,0,0,0-.725-.15,1.643,1.643,0,0,0-.475.05,2.615,2.615,0,0,0-1.4,1.65q-.075.2-.725,2.788t-.7,2.912a3.816,3.816,0,0,0-.075.75,1.281,1.281,0,0,0,.35.95,1.246,1.246,0,0,0,.925.35,2.579,2.579,0,0,0,1.9-.887,4.613,4.613,0,0,0,1.151-1.963c.05-.166.1-.263.15-.287a1.208,1.208,0,0,1,.4-.038c.316,0,.475.067.475.2,0,.017-.017.109-.051.275a5.427,5.427,0,0,1-1.75,2.7,3.939,3.939,0,0,1-2.474.925,2.883,2.883,0,0,1-2.651-1.575,3.5,3.5,0,0,1-1.849,1.5,3.16,3.16,0,0,1-.651.05,2.178,2.178,0,0,1-2.049-1.025,1.931,1.931,0,0,1-.25-1,1.892,1.892,0,0,1,.45-1.275,1.447,1.447,0,0,1,1.15-.525.939.939,0,0,1,1.074,1.05,1.41,1.41,0,0,1-.875,1.35l-.125.063-.125.062a.185.185,0,0,1-.074.025l-.075.025q0,.075.375.225a1.657,1.657,0,0,0,.649.125,1.846,1.846,0,0,0,1.551-1.125,18.938,18.938,0,0,0,.975-3.25q.148-.575.325-1.275t.262-1.075c.058-.25.1-.4.113-.45a6.136,6.136,0,0,0,.125-.975,1.345,1.345,0,0,0-.325-.95,1.171,1.171,0,0,0-.9-.35,2.609,2.609,0,0,0-1.949.863,4.723,4.723,0,0,0-1.15,1.987c-.034.15-.071.237-.113.263a1.21,1.21,0,0,1-.413.037Z"/><path class="l" d="M270.774,54.893l.1-.025h.551l.7.6q4.5,4.1,4.5,11.9a19.7,19.7,0,0,1-.725,5.55,13.481,13.481,0,0,1-3.775,6.35c-.116.1-.25.212-.4.337s-.25.213-.3.263h-.3a.925.925,0,0,1-.387-.05c-.058-.033-.088-.117-.088-.25q.025-.025.276-.325,3.874-4.024,3.875-11.875t-3.875-11.875q-.251-.3-.276-.325A.293.293,0,0,1,270.774,54.893Z"/><path class="l" d="M280.4,64.943a.546.546,0,0,1,.35-.5h15.925a.548.548,0,0,1,.375.5.565.565,0,0,1-.35.475l-7.95.025H280.8A.5.5,0,0,1,280.4,64.943Zm0,4.85a.5.5,0,0,1,.4-.5h15.9a1.053,1.053,0,0,0,.113.088,1.261,1.261,0,0,1,.125.1.448.448,0,0,1,.075.125.5.5,0,0,1,.037.188.546.546,0,0,1-.375.5H280.749A.544.544,0,0,1,280.4,69.793Z"/><rect class="l" x="307" y="66.75" width="90" height="1.5" rx="0.75"/><path class="n" d="M489.722,165.912c57.51-116.685,179.194-59.4,223.8,3.924"/><path class="l" d="M720,180.023c-4.851-3.628-11.7-7.6-17.264-9.2l9.857-2.27,6.123-8.049C717.886,166.239,718.688,174.109,720,180.023Z"/><path class="l" d="M544.076,55.043q0-.225.137-2.775t.138-3.225h11.725a.651.651,0,0,1,.15.475,1.428,1.428,0,0,1-.025.4q-.051.075-4.7,7.5t-4.674,7.45c-.017.017.091.025.324.025h1.776q2.224-.024,2.449-.05a4.91,4.91,0,0,0,2.476-.925,3.716,3.716,0,0,0,1.174-2.125,24.43,24.43,0,0,0,.326-2.5v-.225h1v.2q-.026.051-.226,3.313t-.2,3.337v.2H549.9l-6.025-.025-.074-.05a.934.934,0,0,1-.075-.45v-.35q.1-.2,2.462-3.95t4.663-7.412q2.3-3.663,2.3-3.688-3.6,0-3.924.025a4.153,4.153,0,0,0-3.351,1.575,6,6,0,0,0-.8,3.2c0,.034-.167.05-.5.05Z"/><path class="l" d="M558.326,60.768a5.708,5.708,0,0,1,1.449-3.913,5.59,5.59,0,0,1,4.1-1.937,5.165,5.165,0,0,1,3.775,1.6,5.756,5.756,0,0,1,1.75,4.225,6.5,6.5,0,0,1-.125,1.175,5.319,5.319,0,0,1-1.412,2.738,5.523,5.523,0,0,1-2.688,1.562,5.154,5.154,0,0,1-1.3.15,5.276,5.276,0,0,1-1.325-.15,5.579,5.579,0,0,1-4.224-5.45Zm6-4.9a2.347,2.347,0,0,0-.4-.025,3.473,3.473,0,0,0-1.425.3,3.283,3.283,0,0,0-1.674,2.725q-.051.45-.051,1.6a8.554,8.554,0,0,0,.475,3.375,2.742,2.742,0,0,0,2.625,1.525q3.051,0,3.05-4.075v-.8a12.4,12.4,0,0,0-.125-2.2A2.974,2.974,0,0,0,564.326,55.868Z"/><path class="l" d="M570.826,60.768a5.708,5.708,0,0,1,1.449-3.913,5.59,5.59,0,0,1,4.1-1.937,5.165,5.165,0,0,1,3.775,1.6,5.756,5.756,0,0,1,1.75,4.225,6.5,6.5,0,0,1-.125,1.175,5.319,5.319,0,0,1-1.412,2.738,5.523,5.523,0,0,1-2.688,1.562,5.154,5.154,0,0,1-1.3.15,5.276,5.276,0,0,1-1.325-.15,5.579,5.579,0,0,1-4.224-5.45Zm6-4.9a2.347,2.347,0,0,0-.4-.025,3.473,3.473,0,0,0-1.425.3,3.283,3.283,0,0,0-1.674,2.725q-.051.45-.051,1.6a8.554,8.554,0,0,0,.475,3.375,2.742,2.742,0,0,0,2.625,1.525q3.051,0,3.05-4.075v-.8a12.4,12.4,0,0,0-.125-2.2A2.974,2.974,0,0,0,576.826,55.868Z"/><path class="l" d="M587.326,64.618c.132.234.525.35,1.174.35h.75v1.15h-.2a52.286,52.286,0,0,0-5.6,0h-.2v-1.15H584q.975,0,1.175-.35v-.775q0-.35.013-.787c.008-.292.013-.617.013-.975V61.043q0-.774-.013-1.662t-.013-1.463v-.575a.827.827,0,0,0-.362-.637,2.933,2.933,0,0,0-1.112-.213h-.451v-.575q0-.575.05-.575l.25-.025q.251-.024.713-.05l.912-.05c.283-.016.584-.037.9-.062s.558-.046.724-.063.259-.025.276-.025h.074v1a6.922,6.922,0,0,0,.025.95l.026-.025a4.4,4.4,0,0,1,3.824-1.925q2.426.075,2.975,1.9l.05.125c.4-.5.625-.775.676-.825a4.2,4.2,0,0,1,2.975-1.2q3.124,0,3.424,2.825.026.175.025,3.475,0,3.2.025,3.25a.537.537,0,0,0,.3.275,8.768,8.768,0,0,0,1.225.075h.4v1.15h-.2a52.3,52.3,0,0,0-5.6,0h-.2v-1.15h.6q1.323,0,1.324-.4.026-.05.025-3.45-.024-3.375-.05-3.575a2.2,2.2,0,0,0-.562-1.162,1.687,1.687,0,0,0-1.188-.363,2.712,2.712,0,0,0-1.975.85,3.591,3.591,0,0,0-1.025,2.2c0,.017,0,.171-.012.463s-.012.662-.012,1.112v2.8c0,.217,0,.412.012.588s.012.321.012.437v.15q.2.351,1.175.35h.75v1.15h-.2a52.323,52.323,0,0,0-5.6,0h-.2v-1.15h.6q1.326,0,1.326-.4.024-.05.024-3.45-.024-3.375-.049-3.575a2.216,2.216,0,0,0-.563-1.162,1.686,1.686,0,0,0-1.187-.363,2.711,2.711,0,0,0-1.975.85,3.575,3.575,0,0,0-1.025,2.2v.463c0,.291,0,.662-.013,1.112s-.013.875-.013,1.275v.788c0,.274,0,.521.013.737s.013.412.013.588v.587Z"/><path class="l" d="M625.45,65.393a.479.479,0,0,1-.15.35.509.509,0,0,1-.375.15c-.083,0-.267-.133-.55-.4s-1.066-1.041-2.35-2.325l-2.6-2.6L616.8,63.193q-2.65,2.6-2.725,2.65a.79.79,0,0,1-.2.05.513.513,0,0,1-.5-.5.839.839,0,0,1,.05-.2q.075-.15,2.65-2.725l2.6-2.6-2.6-2.6q-2.576-2.574-2.65-2.725a.828.828,0,0,1-.05-.2.513.513,0,0,1,.5-.5.839.839,0,0,1,.2.05q.075.051,2.725,2.65l2.625,2.625,2.6-2.6q1.926-1.925,2.35-2.325c.283-.266.467-.4.55-.4a.509.509,0,0,1,.375.15.48.48,0,0,1,.15.35.432.432,0,0,1-.05.2q-.049.1-2.65,2.7l-2.6,2.625,2.6,2.625q2.6,2.6,2.65,2.7A.438.438,0,0,1,625.45,65.393Z"/><path class="l" d="M645.8,66.118q-.424-.075-3.975-.075-3.5,0-3.925.075h-.3v-1.15h.649a14.075,14.075,0,0,0,1.875-.075,1.6,1.6,0,0,0,.6-.3V51.668a.6.6,0,0,0-.2.075,7.358,7.358,0,0,1-2.575.475h-.474v-1.15h.474a6.964,6.964,0,0,0,3.5-.95,3.454,3.454,0,0,0,.776-.575c.033-.05.132-.075.3-.075a.631.631,0,0,1,.425.15v7.475l.026,7.5a2.419,2.419,0,0,0,1.625.375h1.474v1.15Z"/><path class="l" d="M650.3,51.493a4.411,4.411,0,0,1,3.825-2.025,4.609,4.609,0,0,1,3.2,1.25,5.452,5.452,0,0,1,1.151,1.7,14.319,14.319,0,0,1,.924,5.7,13.043,13.043,0,0,1-1.075,5.925,4.331,4.331,0,0,1-2.05,2.1,4.707,4.707,0,0,1-2.125.525,4.4,4.4,0,0,1-4.2-2.625,13.043,13.043,0,0,1-1.075-5.925,19.42,19.42,0,0,1,.313-3.837A8.391,8.391,0,0,1,650.3,51.493Zm5.625-.3a2.3,2.3,0,0,0-1.775-.8,2.38,2.38,0,0,0-1.8.8,2.989,2.989,0,0,0-.75,1.4,15.352,15.352,0,0,0-.25,2.85c0,.1,0,.425-.013.975s-.013,1.009-.013,1.375q0,2.4.05,3.35a14.36,14.36,0,0,0,.3,2.513,2.851,2.851,0,0,0,.75,1.312,2.217,2.217,0,0,0,1.725.75,2.194,2.194,0,0,0,1.7-.75,2.851,2.851,0,0,0,.75-1.312,14.483,14.483,0,0,0,.3-2.513q.051-.95.05-3.35,0-.549-.012-1.375t-.013-.975a15.352,15.352,0,0,0-.25-2.85A3.006,3.006,0,0,0,655.925,51.193Z"/><path class="n" d="M1080,165.912c57.51-116.685,179.193-59.4,223.8,3.924"/><path class="l" d="M1310.278,180.023c-4.852-3.628-11.695-7.6-17.264-9.2l9.857-2.27,6.122-8.049C1308.163,166.239,1308.965,174.109,1310.278,180.023Z"/><path class="l" d="M1134.354,55.043q0-.225.136-2.775t.138-3.225h11.726a.655.655,0,0,1,.149.475,1.5,1.5,0,0,1-.024.4q-.053.075-4.7,7.5t-4.674,7.45c-.018.017.09.025.324.025h1.775q2.226-.024,2.45-.05a4.906,4.906,0,0,0,2.475-.925,3.722,3.722,0,0,0,1.175-2.125,24.225,24.225,0,0,0,.325-2.5v-.225h1v.2q-.025.051-.225,3.313t-.2,3.337v.2h-6.025l-6.025-.025-.075-.05a.946.946,0,0,1-.075-.45v-.35q.1-.2,2.463-3.95t4.662-7.412q2.3-3.663,2.3-3.688-3.6,0-3.925.025a4.151,4.151,0,0,0-3.35,1.575,5.994,5.994,0,0,0-.8,3.2c0,.034-.167.05-.5.05Z"/><path class="l" d="M1148.6,60.768a5.7,5.7,0,0,1,1.449-3.913,5.59,5.59,0,0,1,4.1-1.937,5.165,5.165,0,0,1,3.775,1.6,5.756,5.756,0,0,1,1.75,4.225,6.5,6.5,0,0,1-.125,1.175,5.319,5.319,0,0,1-1.412,2.738,5.532,5.532,0,0,1-2.688,1.562,5.16,5.16,0,0,1-1.3.15,5.27,5.27,0,0,1-1.325-.15,5.579,5.579,0,0,1-4.224-5.45Zm6-4.9a2.347,2.347,0,0,0-.4-.025,3.473,3.473,0,0,0-1.425.3,3.281,3.281,0,0,0-1.674,2.725c-.035.3-.051.834-.051,1.6a8.535,8.535,0,0,0,.475,3.375,2.742,2.742,0,0,0,2.625,1.525q3.051,0,3.05-4.075v-.8a12.5,12.5,0,0,0-.125-2.2A2.974,2.974,0,0,0,1154.6,55.868Z"/><path class="l" d="M1161.1,60.768a5.7,5.7,0,0,1,1.449-3.913,5.59,5.59,0,0,1,4.1-1.937,5.165,5.165,0,0,1,3.775,1.6,5.756,5.756,0,0,1,1.75,4.225,6.5,6.5,0,0,1-.125,1.175,5.319,5.319,0,0,1-1.412,2.738,5.532,5.532,0,0,1-2.688,1.562,5.16,5.16,0,0,1-1.3.15,5.27,5.27,0,0,1-1.325-.15,5.579,5.579,0,0,1-4.224-5.45Zm6-4.9a2.347,2.347,0,0,0-.4-.025,3.473,3.473,0,0,0-1.425.3,3.281,3.281,0,0,0-1.674,2.725c-.035.3-.051.834-.051,1.6a8.535,8.535,0,0,0,.475,3.375,2.742,2.742,0,0,0,2.625,1.525q3.051,0,3.05-4.075v-.8a12.5,12.5,0,0,0-.125-2.2A2.974,2.974,0,0,0,1167.1,55.868Z"/><path class="l" d="M1177.6,64.618q.2.351,1.174.35h.75v1.15h-.2a52.286,52.286,0,0,0-5.6,0h-.2v-1.15h.75q.975,0,1.175-.35v-.775q0-.35.013-.787c.008-.292.013-.617.013-.975V61.043q0-.774-.013-1.662t-.013-1.463v-.575a.827.827,0,0,0-.362-.637,2.937,2.937,0,0,0-1.112-.213h-.451v-.575q0-.575.05-.575l.25-.025q.249-.024.713-.05l.912-.05q.425-.024.9-.062t.724-.063c.166-.016.258-.025.276-.025h.074v1a6.922,6.922,0,0,0,.025.95l.026-.025a4.4,4.4,0,0,1,3.824-1.925q2.426.075,2.975,1.9l.05.125c.4-.5.625-.775.675-.825a4.207,4.207,0,0,1,2.976-1.2q3.124,0,3.424,2.825.025.175.025,3.475,0,3.2.025,3.25a.535.535,0,0,0,.3.275,8.793,8.793,0,0,0,1.226.075h.4v1.15h-.2a52.3,52.3,0,0,0-5.6,0h-.2v-1.15h.6q1.323,0,1.324-.4.024-.05.025-3.45-.024-3.375-.05-3.575a2.209,2.209,0,0,0-.562-1.162,1.687,1.687,0,0,0-1.188-.363,2.711,2.711,0,0,0-1.975.85,3.585,3.585,0,0,0-1.025,2.2c0,.017-.005.171-.012.463s-.013.662-.013,1.112v2.8c0,.217,0,.412.013.588s.012.321.012.437v.15q.2.351,1.175.35h.75v1.15h-.2a52.3,52.3,0,0,0-5.6,0h-.2v-1.15h.6q1.326,0,1.325-.4.025-.05.025-3.45-.024-3.375-.049-3.575a2.216,2.216,0,0,0-.563-1.162,1.686,1.686,0,0,0-1.187-.363,2.713,2.713,0,0,0-1.976.85,3.579,3.579,0,0,0-1.024,2.2v.463c0,.291-.005.662-.013,1.112s-.013.875-.013,1.275v.788c0,.274,0,.521.013.737s.013.412.013.588v.587Z"/><path class="l" d="M1215.728,65.393a.479.479,0,0,1-.15.35.509.509,0,0,1-.375.15c-.084,0-.267-.133-.551-.4s-1.066-1.041-2.349-2.325l-2.6-2.6-2.625,2.625q-2.651,2.6-2.725,2.65a.784.784,0,0,1-.2.05.515.515,0,0,1-.5-.5.808.808,0,0,1,.051-.2q.075-.15,2.65-2.725l2.6-2.6-2.6-2.6q-2.576-2.574-2.65-2.725a.8.8,0,0,1-.051-.2.515.515,0,0,1,.5-.5.832.832,0,0,1,.2.05q.073.051,2.725,2.65l2.625,2.625,2.6-2.6q1.924-1.925,2.349-2.325c.284-.266.467-.4.551-.4a.509.509,0,0,1,.375.15.48.48,0,0,1,.15.35.445.445,0,0,1-.05.2q-.05.1-2.651,2.7l-2.6,2.625,2.6,2.625q2.6,2.6,2.651,2.7A.451.451,0,0,1,1215.728,65.393Z"/><path class="l" d="M1236.078,66.118q-.426-.075-3.975-.075-3.5,0-3.925.075h-.3v-1.15h.65a14.1,14.1,0,0,0,1.875-.075,1.6,1.6,0,0,0,.6-.3V51.668a.606.606,0,0,0-.2.075,7.363,7.363,0,0,1-2.575.475h-.475v-1.15h.475a6.97,6.97,0,0,0,3.5-.95,3.448,3.448,0,0,0,.775-.575q.05-.075.3-.075a.631.631,0,0,1,.425.15v7.475l.025,7.5a2.419,2.419,0,0,0,1.625.375h1.475v1.15Z"/><path class="l" d="M1240.578,51.493a4.41,4.41,0,0,1,3.825-2.025,4.611,4.611,0,0,1,3.2,1.25,5.434,5.434,0,0,1,1.15,1.7,14.317,14.317,0,0,1,.925,5.7,13.056,13.056,0,0,1-1.075,5.925,4.331,4.331,0,0,1-2.05,2.1,4.707,4.707,0,0,1-2.125.525,4.4,4.4,0,0,1-4.2-2.625,13.043,13.043,0,0,1-1.075-5.925,19.42,19.42,0,0,1,.313-3.837A8.37,8.37,0,0,1,1240.578,51.493Zm5.625-.3a2.3,2.3,0,0,0-1.775-.8,2.382,2.382,0,0,0-1.8.8,3.006,3.006,0,0,0-.75,1.4,15.352,15.352,0,0,0-.25,2.85q0,.15-.013.975c-.009.55-.012,1.009-.012,1.375q0,2.4.05,3.35a14.262,14.262,0,0,0,.3,2.513,2.834,2.834,0,0,0,.75,1.312,2.217,2.217,0,0,0,1.725.75,2.19,2.19,0,0,0,1.7-.75,2.851,2.851,0,0,0,.75-1.312,14.36,14.36,0,0,0,.3-2.513q.049-.95.05-3.35,0-.549-.012-1.375t-.013-.975a15.532,15.532,0,0,0-.25-2.85A3.024,3.024,0,0,0,1246.2,51.193Z"/><path class="h" d="M720,505.1h0C861.8,459.984,985.744,337.959,1080,226.284"/><path class="h" d="M1305,542.407h0Q1488.888,406.1,1665,259.7"/><circle class="o" cx="1485" cy="405" r="5"/><circle class="o" cx="900" cy="405" r="5"/><rect class="p" x="135" y="225" width="360" height="360.001"/><rect class="p" x="720" y="225" width="360" height="360.001"/><rect class="p" x="1305" y="225" width="360" height="360.001"/><circle class="o" cx="315" cy="405" r="5"/><g class="q"><path class="l" d="M1283.809,612.76a4.41,4.41,0,0,1,3.825-2.026,4.609,4.609,0,0,1,3.2,1.25,5.427,5.427,0,0,1,1.15,1.7,14.3,14.3,0,0,1,.925,5.7,13.046,13.046,0,0,1-1.075,5.925,4.33,4.33,0,0,1-2.05,2.1,4.707,4.707,0,0,1-2.125.525,4.406,4.406,0,0,1-4.2-2.625,13.047,13.047,0,0,1-1.074-5.925,19.447,19.447,0,0,1,.312-3.838A8.346,8.346,0,0,1,1283.809,612.76Zm5.625-.3a2.308,2.308,0,0,0-1.776-.8,2.382,2.382,0,0,0-1.8.8,3.008,3.008,0,0,0-.75,1.4,15.546,15.546,0,0,0-.25,2.851q0,.15-.012.975t-.013,1.375q0,2.4.051,3.35a14.15,14.15,0,0,0,.3,2.512,2.811,2.811,0,0,0,.75,1.312,2.215,2.215,0,0,0,1.724.75,2.189,2.189,0,0,0,1.7-.75,2.829,2.829,0,0,0,.75-1.312,14.247,14.247,0,0,0,.3-2.512q.05-.951.05-3.35,0-.55-.012-1.375t-.012-.975a15.731,15.731,0,0,0-.25-2.851A3.026,3.026,0,0,0,1289.434,612.46Z"/><path class="l" d="M1295.858,625.885a1.454,1.454,0,0,1,1.5-1.5,1.479,1.479,0,0,1,1.088.437,1.422,1.422,0,0,1,.438,1.037,1.513,1.513,0,0,1-3.026.026Z"/><path class="l" d="M1305.184,624.984a1.413,1.413,0,0,1-.263.875,1.061,1.061,0,0,1-.688.426l-.1.025c0,.016.057.062.175.137a1.032,1.032,0,0,0,.275.138,3.566,3.566,0,0,0,1.425.25,2.786,2.786,0,0,0,.649-.05,3.422,3.422,0,0,0,2.026-1.551q.975-1.4.974-4.849v-.175l-.125.2a3.194,3.194,0,0,1-2.875,1.7,4.234,4.234,0,0,1-3.4-1.724,5.418,5.418,0,0,1-1.351-3.9,6.2,6.2,0,0,1,.388-2.375,6.021,6.021,0,0,1,1.338-1.875,4.942,4.942,0,0,1,3.1-1.474l.076-.026h.125c.033,0,.087,0,.162.013a1.6,1.6,0,0,0,.187.013,3.449,3.449,0,0,1,.726.05,4.736,4.736,0,0,1,3.175,2.575,12.8,12.8,0,0,1,1.075,5.65,11.054,11.054,0,0,1-1.5,5.925,6.817,6.817,0,0,1-2.113,2.187,4.748,4.748,0,0,1-2.587.788,4.066,4.066,0,0,1-2.538-.738,2.527,2.527,0,0,1-.962-2.137q0-1.4,1.325-1.4a1.228,1.228,0,0,1,1.3,1.324Zm2.525-13.174a3.719,3.719,0,0,0-.7-.05,2.21,2.21,0,0,0-1.625.675,2.667,2.667,0,0,0-.688,1.312,14.343,14.343,0,0,0-.163,2.612,22.945,22.945,0,0,0,.125,2.7,2.514,2.514,0,0,0,.738,1.538,2.169,2.169,0,0,0,1.563.587h.1a2.3,2.3,0,0,0,1.962-1.413,7.251,7.251,0,0,0,.613-3.137,13.783,13.783,0,0,0-.2-2.8,2.691,2.691,0,0,0-.613-1.3A2.092,2.092,0,0,0,1307.709,611.81Z"/><path class="l" d="M1317.684,624.984a1.413,1.413,0,0,1-.263.875,1.061,1.061,0,0,1-.688.426l-.1.025c0,.016.057.062.175.137a1.032,1.032,0,0,0,.275.138,3.566,3.566,0,0,0,1.425.25,2.786,2.786,0,0,0,.649-.05,3.422,3.422,0,0,0,2.026-1.551q.975-1.4.974-4.849v-.175l-.125.2a3.194,3.194,0,0,1-2.875,1.7,4.234,4.234,0,0,1-3.4-1.724,5.418,5.418,0,0,1-1.351-3.9,6.2,6.2,0,0,1,.388-2.375,6.021,6.021,0,0,1,1.338-1.875,4.942,4.942,0,0,1,3.1-1.474l.076-.026h.125c.033,0,.087,0,.162.013a1.6,1.6,0,0,0,.187.013,3.449,3.449,0,0,1,.726.05,4.736,4.736,0,0,1,3.175,2.575,12.8,12.8,0,0,1,1.075,5.65,11.054,11.054,0,0,1-1.5,5.925,6.817,6.817,0,0,1-2.113,2.187,4.748,4.748,0,0,1-2.587.788,4.066,4.066,0,0,1-2.538-.738,2.527,2.527,0,0,1-.962-2.137q0-1.4,1.325-1.4a1.228,1.228,0,0,1,1.3,1.324Zm2.525-13.174a3.719,3.719,0,0,0-.7-.05,2.21,2.21,0,0,0-1.625.675,2.667,2.667,0,0,0-.688,1.312,14.343,14.343,0,0,0-.163,2.612,22.945,22.945,0,0,0,.125,2.7,2.514,2.514,0,0,0,.738,1.538,2.169,2.169,0,0,0,1.563.587h.1a2.3,2.3,0,0,0,1.962-1.413,7.251,7.251,0,0,0,.613-3.137,13.783,13.783,0,0,0-.2-2.8,2.691,2.691,0,0,0-.613-1.3A2.092,2.092,0,0,0,1320.209,611.81Z"/></g><g class="q"><path class="l" d="M1490.4,623.172q-.426-.075-3.975-.075-3.5,0-3.925.075h-.3v-1.151h.65a14.162,14.162,0,0,0,1.875-.074,1.6,1.6,0,0,0,.6-.3V608.722a.6.6,0,0,0-.2.075,7.34,7.34,0,0,1-2.575.474h-.475v-1.149h.475a6.97,6.97,0,0,0,3.5-.95,3.478,3.478,0,0,0,.775-.575c.033-.05.133-.076.3-.076a.632.632,0,0,1,.425.151v7.474l.025,7.5a2.419,2.419,0,0,0,1.625.375h1.475v1.151Z"/></g><g class="q"><path class="l" d="M1653.936,625.172q-.427-.075-3.976-.075-3.5,0-3.925.075h-.3v-1.151h.651a14.162,14.162,0,0,0,1.875-.074,1.6,1.6,0,0,0,.6-.3V610.722a.614.614,0,0,0-.2.075,7.336,7.336,0,0,1-2.575.474h-.475v-1.149h.475a6.97,6.97,0,0,0,3.5-.95,3.433,3.433,0,0,0,.775-.575c.034-.05.133-.076.3-.076a.63.63,0,0,1,.425.151v7.474l.025,7.5a2.419,2.419,0,0,0,1.625.375h1.475v1.151Z"/><path class="l" d="M1657.985,623.672a1.454,1.454,0,0,1,1.5-1.5,1.479,1.479,0,0,1,1.088.437,1.422,1.422,0,0,1,.438,1.037,1.513,1.513,0,0,1-3.026.026Z"/><path class="l" d="M1665.386,610.547a4.41,4.41,0,0,1,3.825-2.026,4.609,4.609,0,0,1,3.2,1.25,5.446,5.446,0,0,1,1.151,1.7,14.315,14.315,0,0,1,.924,5.7,13.046,13.046,0,0,1-1.075,5.925,4.33,4.33,0,0,1-2.05,2.1,4.707,4.707,0,0,1-2.125.525,4.406,4.406,0,0,1-4.2-2.625,13.047,13.047,0,0,1-1.074-5.925,19.447,19.447,0,0,1,.312-3.838A8.367,8.367,0,0,1,1665.386,610.547Zm5.625-.3a2.307,2.307,0,0,0-1.776-.8,2.38,2.38,0,0,0-1.8.8,2.99,2.99,0,0,0-.75,1.4,15.365,15.365,0,0,0-.25,2.851q0,.15-.013.975t-.013,1.375q0,2.4.051,3.35a14.15,14.15,0,0,0,.3,2.512,2.829,2.829,0,0,0,.75,1.312,2.215,2.215,0,0,0,1.724.75,2.192,2.192,0,0,0,1.7-.75,2.846,2.846,0,0,0,.75-1.312,14.369,14.369,0,0,0,.3-2.512q.051-.951.05-3.35,0-.55-.012-1.375t-.012-.975a15.546,15.546,0,0,0-.25-2.851A3.026,3.026,0,0,0,1671.011,610.247Z"/><path class="l" d="M1685.886,625.172q-.426-.075-3.976-.075-3.5,0-3.925.075h-.3v-1.151h.65a14.162,14.162,0,0,0,1.875-.074,1.607,1.607,0,0,0,.6-.3V610.722a.609.609,0,0,0-.2.075,7.336,7.336,0,0,1-2.575.474h-.474v-1.149h.474a6.964,6.964,0,0,0,3.5-.95,3.462,3.462,0,0,0,.776-.575c.033-.05.132-.076.3-.076a.63.63,0,0,1,.425.151v7.474l.026,7.5a2.419,2.419,0,0,0,1.625.375h1.474v1.151Z"/></g><g class="q"><path class="l" d="M1223.974,394.525V392.7h6.649v1.825Z"/><path class="l" d="M1242.423,399q-.424-.075-3.975-.075-3.5,0-3.925.075h-.3v-1.15h.649a14.075,14.075,0,0,0,1.875-.075,1.618,1.618,0,0,0,.6-.3V384.55a.594.594,0,0,0-.2.075,7.358,7.358,0,0,1-2.575.475h-.474v-1.15h.474a6.964,6.964,0,0,0,3.5-.95,3.454,3.454,0,0,0,.776-.575c.033-.05.132-.075.3-.075a.633.633,0,0,1,.425.15v7.475l.026,7.5a2.419,2.419,0,0,0,1.625.375h1.474V399Z"/><path class="l" d="M1246.474,397.5a1.452,1.452,0,0,1,1.5-1.5,1.477,1.477,0,0,1,1.087.438,1.414,1.414,0,0,1,.437,1.037,1.512,1.512,0,0,1-3.024.025Z"/><path class="l" d="M1254.148,393.65a1.376,1.376,0,0,1,1.013.412,1.41,1.41,0,0,1,.412,1.038,1.285,1.285,0,0,1-.425.975,1.35,1.35,0,0,1-.95.4h-.175l.076.125a3.241,3.241,0,0,0,1.149,1.325,3.176,3.176,0,0,0,1.825.525,2.655,2.655,0,0,0,2.55-1.5,7.627,7.627,0,0,0,.476-3.2,6.23,6.23,0,0,0-.675-3.475,1.97,1.97,0,0,0-1.6-.825,3.221,3.221,0,0,0-2.95,1.7.472.472,0,0,1-.187.212,1.079,1.079,0,0,1-.363.038q-.425,0-.474-.15-.052-.1-.05-4.375,0-.75-.013-1.775t-.013-1.3q0-1.4.151-1.4a.143.143,0,0,1,.1-.05l.451.15a8.862,8.862,0,0,0,3.325.65,8.5,8.5,0,0,0,3.4-.7.789.789,0,0,1,.325-.1c.133,0,.2.15.2.45v.325a6.394,6.394,0,0,1-5.125,2.425,6.019,6.019,0,0,1-1.4-.15l-.25-.05v4.3a4.288,4.288,0,0,1,3.95-1.025,4.731,4.731,0,0,1,2.738,1.9,5.75,5.75,0,0,1,1.062,3.45,5.467,5.467,0,0,1-1.587,3.925,5.216,5.216,0,0,1-3.913,1.65,4.166,4.166,0,0,1-2.675-.875,2.794,2.794,0,0,1-.825-.825,4.432,4.432,0,0,1-.95-2.225q0-.075-.012-.237c-.008-.109-.012-.188-.012-.238a1.485,1.485,0,0,1,.4-1.1A1.386,1.386,0,0,1,1254.148,393.65Z"/><path class="l" d="M1265.349,387.55q.024-.05.424-2.725l.4-2.675c0-.033.166-.05.5-.05h.5v.1q0,.251.375.425a3.934,3.934,0,0,0,1.312.225q.938.051,4.212.05h3.026v.975l-1.7,2.325q-.375.525-.849,1.162c-.318.425-.559.755-.726.988s-.266.375-.3.425a11.544,11.544,0,0,0-1.549,5.425q-.1,1.026-.125,2.8c0,.233,0,.471-.013.713s-.013.437-.013.587v.225a1.27,1.27,0,0,1-.487.725,1.342,1.342,0,0,1-.838.3,1.22,1.22,0,0,1-.962-.412,1.666,1.666,0,0,1-.362-1.138q0-.375.1-1.425a17.475,17.475,0,0,1,2.326-6.775q.5-.8,2.1-3.025l1.151-1.575h-2.326a29.377,29.377,0,0,0-4.575.15c-.066.034-.158.216-.274.55a8.186,8.186,0,0,0-.25,1.175,3.088,3.088,0,0,1-.075.475v.075h-1Z"/></g><g class="q"><path class="l" d="M1225.974,571.815V569.99h6.649v1.825Z"/><path class="l" d="M1244.423,576.29q-.424-.075-3.975-.075-3.5,0-3.925.075h-.3v-1.15h.649a14.075,14.075,0,0,0,1.875-.075,1.618,1.618,0,0,0,.6-.3V561.84a.594.594,0,0,0-.2.075,7.358,7.358,0,0,1-2.575.475h-.474v-1.15h.474a6.964,6.964,0,0,0,3.5-.95,3.454,3.454,0,0,0,.776-.575c.033-.05.132-.075.3-.075a.633.633,0,0,1,.425.15v7.475l.026,7.5a2.419,2.419,0,0,0,1.625.375h1.474v1.15Z"/><path class="l" d="M1248.474,574.79a1.452,1.452,0,0,1,1.5-1.5,1.481,1.481,0,0,1,1.087.438,1.415,1.415,0,0,1,.437,1.037,1.512,1.512,0,0,1-3.024.025Z"/><path class="l" d="M1256.148,570.94a1.373,1.373,0,0,1,1.013.413,1.406,1.406,0,0,1,.412,1.037,1.285,1.285,0,0,1-.425.975,1.35,1.35,0,0,1-.95.4h-.175l.076.125a3.241,3.241,0,0,0,1.149,1.325,3.176,3.176,0,0,0,1.825.525,2.655,2.655,0,0,0,2.55-1.5,7.627,7.627,0,0,0,.476-3.2,6.23,6.23,0,0,0-.675-3.475,1.97,1.97,0,0,0-1.6-.825,3.221,3.221,0,0,0-2.95,1.7.472.472,0,0,1-.187.212,1.079,1.079,0,0,1-.363.038q-.425,0-.474-.15-.052-.1-.05-4.375,0-.75-.013-1.775t-.013-1.3q0-1.4.151-1.4a.143.143,0,0,1,.1-.05l.451.15a8.862,8.862,0,0,0,3.325.65,8.5,8.5,0,0,0,3.4-.7.789.789,0,0,1,.325-.1c.133,0,.2.15.2.45v.325a6.394,6.394,0,0,1-5.125,2.425,6.019,6.019,0,0,1-1.4-.15l-.25-.05v4.3a4.288,4.288,0,0,1,3.95-1.025,4.731,4.731,0,0,1,2.738,1.9,5.75,5.75,0,0,1,1.062,3.45,5.467,5.467,0,0,1-1.587,3.925,5.216,5.216,0,0,1-3.913,1.65,4.166,4.166,0,0,1-2.675-.875,2.794,2.794,0,0,1-.825-.825,4.432,4.432,0,0,1-.95-2.225q0-.075-.012-.237c-.008-.109-.012-.188-.012-.238a1.485,1.485,0,0,1,.4-1.1A1.386,1.386,0,0,1,1256.148,570.94Z"/><path class="l" d="M1270.273,567.915a7.426,7.426,0,0,1-1.887-1.675,4.3,4.3,0,0,1-.263-4.1,4.456,4.456,0,0,1,1.613-1.813,4.39,4.39,0,0,1,2.438-.687,4.971,4.971,0,0,1,2.949.887,3.689,3.689,0,0,1,1.551,2.288,4.911,4.911,0,0,1,.024.6,3.613,3.613,0,0,1-.05.75,4.67,4.67,0,0,1-2.275,2.85l-.3.2q1.4.951,1.45,1a4.6,4.6,0,0,1,1.875,3.725,4.642,4.642,0,0,1-1.487,3.462,5.133,5.133,0,0,1-3.713,1.438,5,5,0,0,1-4.524-2.25,3.716,3.716,0,0,1-.625-2.175Q1267.049,569.691,1270.273,567.915Zm-1.625,4.45a3.13,3.13,0,0,0,1.076,2.438,3.63,3.63,0,0,0,2.5.962,4.051,4.051,0,0,0,1.862-.425,3.109,3.109,0,0,0,1.263-1.1,2.47,2.47,0,0,0,.424-1.375,2.543,2.543,0,0,0-.875-1.9q-.2-.2-2.075-1.425-.35-.225-.762-.487c-.275-.175-.488-.313-.637-.413l-.2-.125-.3.15a4.86,4.86,0,0,0-2.075,2.5A4.091,4.091,0,0,0,1268.648,572.365Zm6.6-8.9a2.58,2.58,0,0,0-.7-1.825,3.107,3.107,0,0,0-1.7-.95,8.184,8.184,0,0,0-.826-.025,3.019,3.019,0,0,0-2.224.9,1.8,1.8,0,0,0-.625,1.375,1.965,1.965,0,0,0,.9,1.7q.124.126,1.6,1.05l1.449.95c.017-.016.125-.087.325-.212a2.562,2.562,0,0,0,.45-.338A3.242,3.242,0,0,0,1275.248,563.465Z"/></g><g class="q"><path class="l" d="M131.124,608.547a4.411,4.411,0,0,1,3.825-2.026,4.609,4.609,0,0,1,3.2,1.25,5.429,5.429,0,0,1,1.151,1.7,14.313,14.313,0,0,1,.925,5.7,13.044,13.044,0,0,1-1.076,5.925,4.329,4.329,0,0,1-2.049,2.1,4.713,4.713,0,0,1-2.125.525,4.407,4.407,0,0,1-4.2-2.625,13.061,13.061,0,0,1-1.074-5.925,19.524,19.524,0,0,1,.312-3.838A8.367,8.367,0,0,1,131.124,608.547Zm5.625-.3a2.306,2.306,0,0,0-1.775-.8,2.381,2.381,0,0,0-1.8.8,3.008,3.008,0,0,0-.75,1.4,15.365,15.365,0,0,0-.25,2.851c0,.1,0,.425-.013.975s-.013,1.008-.013,1.375q0,2.4.051,3.35a14.15,14.15,0,0,0,.3,2.512,2.829,2.829,0,0,0,.75,1.312,2.216,2.216,0,0,0,1.725.75,2.19,2.19,0,0,0,1.7-.75,2.846,2.846,0,0,0,.75-1.312,14.345,14.345,0,0,0,.3-2.512q.05-.951.049-3.35c0-.367,0-.826-.012-1.375s-.012-.875-.012-.975a15.546,15.546,0,0,0-.25-2.851A3.026,3.026,0,0,0,136.749,608.247Z"/></g><g class="q"><path class="l" d="M320.4,623.172q-.426-.075-3.975-.075-3.5,0-3.925.075h-.3v-1.151h.65a14.162,14.162,0,0,0,1.875-.074,1.607,1.607,0,0,0,.6-.3V608.722a.606.606,0,0,0-.2.075,7.34,7.34,0,0,1-2.575.474h-.475v-1.149h.475a6.97,6.97,0,0,0,3.5-.95,3.478,3.478,0,0,0,.775-.575c.033-.05.133-.076.3-.076a.632.632,0,0,1,.425.151v7.474l.025,7.5a2.419,2.419,0,0,0,1.625.375h1.475v1.151Z"/></g><g class="q"><path class="l" d="M492.472,612.447a1.4,1.4,0,0,1-1.1-.45,1.6,1.6,0,0,1-.4-1.1,4.1,4.1,0,0,1,1.362-3.086,4.586,4.586,0,0,1,3.263-1.289,5.418,5.418,0,0,1,3.563,1.164,4.88,4.88,0,0,1,1.737,3.037,7.586,7.586,0,0,1,.05.825,4.725,4.725,0,0,1-.875,2.724,16.5,16.5,0,0,1-2.825,2.875q-.9.777-2.5,2.3l-1.475,1.4,1.9.025a30.074,30.074,0,0,0,4.175-.125c.067-.017.15-.191.25-.525a15.733,15.733,0,0,0,.35-1.7v-.074h1v.074l-.7,4.576v.075h-9.275V622.7a1.69,1.69,0,0,1,.05-.575q.026-.025,2.1-2.375,2.724-3.025,3.5-4a7.246,7.246,0,0,0,1.675-4.175,4.37,4.37,0,0,0-.862-2.762,2.879,2.879,0,0,0-2.413-1.113,2.744,2.744,0,0,0-2.35,1.3c-.033.066-.084.158-.15.274a.552.552,0,0,0-.075.151c0,.016.042.025.125.025a1.273,1.273,0,0,1,1.012.449,1.561,1.561,0,0,1,.388,1.051,1.5,1.5,0,0,1-.412,1.063A1.428,1.428,0,0,1,492.472,612.447Z"/></g><g class="q"><path class="l" d="M69,485.114v-1.825h6.649v1.825Z"/><path class="l" d="M79.8,478.864a1.4,1.4,0,0,1-1.1-.45,1.6,1.6,0,0,1-.4-1.1,4.1,4.1,0,0,1,1.362-3.086,4.582,4.582,0,0,1,3.263-1.289,5.417,5.417,0,0,1,3.562,1.164,4.876,4.876,0,0,1,1.738,3.037,7.569,7.569,0,0,1,.049.825,4.725,4.725,0,0,1-.875,2.724,16.46,16.46,0,0,1-2.825,2.875q-.9.777-2.5,2.3l-1.474,1.4,1.9.025a30.085,30.085,0,0,0,4.175-.125c.066-.017.149-.191.25-.525a16.129,16.129,0,0,0,.349-1.7v-.074h1v.074l-.7,4.576v.075H78.3v-.475a1.662,1.662,0,0,1,.05-.575q.024-.025,2.1-2.375,2.726-3.025,3.5-4a7.248,7.248,0,0,0,1.676-4.175,4.371,4.371,0,0,0-.863-2.762,2.876,2.876,0,0,0-2.412-1.113,2.744,2.744,0,0,0-2.35,1.3c-.034.066-.084.158-.15.274a.571.571,0,0,0-.076.151c0,.016.042.025.125.025a1.276,1.276,0,0,1,1.013.449,1.566,1.566,0,0,1,.388,1.051,1.5,1.5,0,0,1-.413,1.063A1.426,1.426,0,0,1,79.8,478.864Z"/><path class="l" d="M91.5,488.089a1.454,1.454,0,0,1,1.5-1.5,1.478,1.478,0,0,1,1.087.437,1.417,1.417,0,0,1,.437,1.037,1.512,1.512,0,0,1-3.024.026Z"/><path class="l" d="M98.9,474.964a4.414,4.414,0,0,1,3.826-2.026,4.613,4.613,0,0,1,3.2,1.25,5.444,5.444,0,0,1,1.15,1.7,14.313,14.313,0,0,1,.925,5.7,13.046,13.046,0,0,1-1.075,5.925,4.339,4.339,0,0,1-2.05,2.1,4.71,4.71,0,0,1-2.125.525,4.4,4.4,0,0,1-4.2-2.625,13.046,13.046,0,0,1-1.075-5.925,19.524,19.524,0,0,1,.312-3.838A8.386,8.386,0,0,1,98.9,474.964Zm5.625-.3a2.3,2.3,0,0,0-1.774-.8,2.382,2.382,0,0,0-1.8.8,3.008,3.008,0,0,0-.75,1.4,15.365,15.365,0,0,0-.25,2.851c0,.1-.005.425-.012.975s-.013,1.008-.013,1.375q0,2.4.05,3.35a14.369,14.369,0,0,0,.3,2.512,2.846,2.846,0,0,0,.75,1.312,2.221,2.221,0,0,0,1.726.75,2.19,2.19,0,0,0,1.7-.75,2.846,2.846,0,0,0,.75-1.312,14.345,14.345,0,0,0,.3-2.512q.05-.951.05-3.35,0-.551-.013-1.375t-.013-.975a15.365,15.365,0,0,0-.25-2.851A2.99,2.99,0,0,0,104.521,474.664Z"/></g><g class="q"><path class="l" d="M69,305.658v-1.825h6.65v1.825Z"/><path class="l" d="M87.447,310.132q-.426-.073-3.975-.075-3.5,0-3.925.075h-.3v-1.15h.65a14.162,14.162,0,0,0,1.875-.074,1.623,1.623,0,0,0,.6-.3V295.682a.623.623,0,0,0-.2.075,7.363,7.363,0,0,1-2.575.475h-.475v-1.149H79.6a6.97,6.97,0,0,0,3.5-.951,3.448,3.448,0,0,0,.775-.575q.05-.075.3-.075a.638.638,0,0,1,.425.15v7.475l.025,7.5a2.419,2.419,0,0,0,1.625.375h1.475v1.15Z"/><path class="l" d="M91.5,308.632a1.454,1.454,0,0,1,1.5-1.5,1.479,1.479,0,0,1,1.087.438,1.418,1.418,0,0,1,.438,1.037,1.513,1.513,0,0,1-3.025.025Z"/><path class="l" d="M98.9,295.507a4.412,4.412,0,0,1,3.825-2.025,4.613,4.613,0,0,1,3.2,1.25,5.451,5.451,0,0,1,1.15,1.7,14.317,14.317,0,0,1,.925,5.7,13.043,13.043,0,0,1-1.075,5.925,4.337,4.337,0,0,1-2.05,2.1,4.721,4.721,0,0,1-2.125.524,4.4,4.4,0,0,1-4.2-2.625,13.043,13.043,0,0,1-1.075-5.925,19.445,19.445,0,0,1,.313-3.838A8.382,8.382,0,0,1,98.9,295.507Zm5.625-.3a2.3,2.3,0,0,0-1.775-.8,2.379,2.379,0,0,0-1.8.8,3,3,0,0,0-.75,1.4,15.365,15.365,0,0,0-.25,2.851q0,.148-.012.974t-.013,1.375q0,2.4.05,3.351a14.317,14.317,0,0,0,.3,2.511,2.832,2.832,0,0,0,.75,1.313,2.217,2.217,0,0,0,1.725.75,2.19,2.19,0,0,0,1.7-.75,2.849,2.849,0,0,0,.75-1.313,14.317,14.317,0,0,0,.3-2.511q.05-.951.05-3.351,0-.549-.012-1.375t-.013-.974a15.546,15.546,0,0,0-.25-2.851A3,3,0,0,0,104.522,295.208Z"/></g><g class="q"><path class="l" d="M658.05,281.3V279.47h6.65V281.3Z"/><path class="l" d="M676.5,285.77q-.426-.075-3.976-.075-3.5,0-3.924.075h-.3v-1.15h.65a14.1,14.1,0,0,0,1.875-.075,1.616,1.616,0,0,0,.6-.3V271.32a.6.6,0,0,0-.2.075,7.364,7.364,0,0,1-2.576.475h-.474v-1.15h.474a6.964,6.964,0,0,0,3.5-.95,3.432,3.432,0,0,0,.776-.575q.05-.075.3-.075a.628.628,0,0,1,.424.15v7.475l.026,7.5a2.419,2.419,0,0,0,1.625.375h1.474v1.15Z"/><path class="l" d="M680.55,284.27a1.454,1.454,0,0,1,1.5-1.5,1.479,1.479,0,0,1,1.087.438,1.416,1.416,0,0,1,.438,1.037,1.513,1.513,0,0,1-3.025.025Z"/><path class="l" d="M688.225,280.42a1.372,1.372,0,0,1,1.012.413,1.407,1.407,0,0,1,.413,1.037,1.289,1.289,0,0,1-.425.975,1.353,1.353,0,0,1-.95.4H688.1l.075.125a3.244,3.244,0,0,0,1.15,1.325,3.174,3.174,0,0,0,1.825.525,2.656,2.656,0,0,0,2.55-1.5,7.631,7.631,0,0,0,.475-3.2,6.222,6.222,0,0,0-.675-3.475,1.969,1.969,0,0,0-1.6-.825,3.22,3.22,0,0,0-2.95,1.7.479.479,0,0,1-.188.212,1.072,1.072,0,0,1-.362.038q-.426,0-.475-.15-.051-.1-.05-4.375,0-.75-.013-1.775t-.012-1.3q0-1.4.15-1.4a.144.144,0,0,1,.1-.05l.45.15a8.862,8.862,0,0,0,3.325.65,8.5,8.5,0,0,0,3.4-.7.784.784,0,0,1,.325-.1q.2,0,.2.45v.325a6.392,6.392,0,0,1-5.125,2.425,6,6,0,0,1-1.4-.15l-.25-.05v4.3a4.288,4.288,0,0,1,3.95-1.025,4.732,4.732,0,0,1,2.737,1.9,5.75,5.75,0,0,1,1.063,3.45,5.467,5.467,0,0,1-1.587,3.925,5.217,5.217,0,0,1-3.913,1.65,4.164,4.164,0,0,1-2.675-.875,2.771,2.771,0,0,1-.825-.825,4.424,4.424,0,0,1-.95-2.225c0-.05,0-.129-.013-.237s-.012-.188-.012-.238a1.485,1.485,0,0,1,.4-1.1A1.385,1.385,0,0,1,688.225,280.42Z"/></g><g class="q"><path class="l" d="M651.819,459.665V457.84h6.65v1.825Z"/><path class="l" d="M670.269,464.14q-.426-.075-3.975-.076-3.5,0-3.925.076h-.3v-1.151h.65a14.141,14.141,0,0,0,1.875-.074,1.616,1.616,0,0,0,.6-.3V449.689a.617.617,0,0,0-.2.076,7.358,7.358,0,0,1-2.575.474h-.475V449.09h.475a6.97,6.97,0,0,0,3.5-.95,3.428,3.428,0,0,0,.775-.576c.034-.049.133-.075.3-.075a.632.632,0,0,1,.425.151v7.474l.025,7.5a2.419,2.419,0,0,0,1.625.375h1.475v1.151Z"/><path class="l" d="M674.319,462.64a1.452,1.452,0,0,1,1.5-1.5,1.481,1.481,0,0,1,1.088.437,1.421,1.421,0,0,1,.437,1.037,1.513,1.513,0,0,1-3.025.026Z"/><path class="l" d="M688.645,449.114a2.372,2.372,0,0,0-1.551-.625,3.582,3.582,0,0,0-2.925,1.5,8.691,8.691,0,0,0-1.175,5.051l.026.1.2-.326a3.2,3.2,0,0,1,2.775-1.5,4.191,4.191,0,0,1,2.026.476,5.167,5.167,0,0,1,1.2,1.012,6.309,6.309,0,0,1,.975,1.413,6.716,6.716,0,0,1,.525,2.675v.45a4.39,4.39,0,0,1-.125,1.075,5.615,5.615,0,0,1-1.55,2.774,4.6,4.6,0,0,1-2.4,1.4,4.99,4.99,0,0,1-1.851.024,4.427,4.427,0,0,1-2.95-2,11.671,11.671,0,0,1-1.475-6.3,11.019,11.019,0,0,1,.95-4.724,7.49,7.49,0,0,1,2.65-3.151,4.991,4.991,0,0,1,2.926-.95,3.425,3.425,0,0,1,2.337.776,2.674,2.674,0,0,1,.887,2.125,1.38,1.38,0,0,1-.362,1,1.279,1.279,0,0,1-.963.375,1.328,1.328,0,0,1-.962-.35,1.292,1.292,0,0,1-.363-.976A1.237,1.237,0,0,1,688.645,449.114Zm-1.1,6a2.181,2.181,0,0,0-1.8-.9,2.025,2.025,0,0,0-1.5.575,5.417,5.417,0,0,0-1.224,3.949,10.585,10.585,0,0,0,.3,3.075,2.894,2.894,0,0,0,.85,1.276,2.1,2.1,0,0,0,1.425.524,2.245,2.245,0,0,0,1.95-.949,2.774,2.774,0,0,0,.476-1.25,16.692,16.692,0,0,0,.1-2.1v-.8a17.251,17.251,0,0,0-.1-2.151A2.778,2.778,0,0,0,687.544,455.114Z"/></g><g class="q"><path class="l" d="M706.316,611.355a4.412,4.412,0,0,1,3.825-2.025,4.613,4.613,0,0,1,3.2,1.25,5.451,5.451,0,0,1,1.15,1.7,14.317,14.317,0,0,1,.925,5.7,13.043,13.043,0,0,1-1.075,5.925,4.337,4.337,0,0,1-2.05,2.1,4.721,4.721,0,0,1-2.125.524,4.4,4.4,0,0,1-4.2-2.625,13.043,13.043,0,0,1-1.075-5.925,19.427,19.427,0,0,1,.313-3.837A8.379,8.379,0,0,1,706.316,611.355Zm5.625-.3a2.3,2.3,0,0,0-1.775-.8,2.379,2.379,0,0,0-1.8.8,3,3,0,0,0-.75,1.4,15.365,15.365,0,0,0-.25,2.851q0,.148-.012.974t-.013,1.375q0,2.4.05,3.351a14.345,14.345,0,0,0,.3,2.512,2.834,2.834,0,0,0,.75,1.312,2.217,2.217,0,0,0,1.725.75,2.19,2.19,0,0,0,1.7-.75,2.851,2.851,0,0,0,.75-1.312,14.345,14.345,0,0,0,.3-2.512q.049-.951.05-3.351,0-.549-.012-1.375t-.013-.974a15.546,15.546,0,0,0-.25-2.851A3,3,0,0,0,711.941,611.056Z"/><path class="l" d="M718.366,624.48a1.454,1.454,0,0,1,1.5-1.5,1.482,1.482,0,0,1,1.088.438,1.421,1.421,0,0,1,.437,1.037,1.513,1.513,0,0,1-3.025.025Z"/><path class="l" d="M727.691,623.58a1.412,1.412,0,0,1-.262.875,1.067,1.067,0,0,1-.688.426l-.1.024c0,.017.058.063.175.138a1.047,1.047,0,0,0,.275.138,3.573,3.573,0,0,0,1.425.25,2.8,2.8,0,0,0,.65-.05,3.423,3.423,0,0,0,2.025-1.551q.975-1.4.975-4.85v-.174l-.125.2a3.2,3.2,0,0,1-2.875,1.7,4.235,4.235,0,0,1-3.4-1.725,5.423,5.423,0,0,1-1.35-3.9,6.194,6.194,0,0,1,.388-2.375,6.016,6.016,0,0,1,1.337-1.875,4.953,4.953,0,0,1,3.1-1.475l.075-.025h.125c.034,0,.088,0,.163.013a1.571,1.571,0,0,0,.187.012,3.509,3.509,0,0,1,.725.05,4.737,4.737,0,0,1,3.175,2.575,12.787,12.787,0,0,1,1.075,5.651,11.057,11.057,0,0,1-1.5,5.925,6.814,6.814,0,0,1-2.112,2.187,4.75,4.75,0,0,1-2.588.787,4.063,4.063,0,0,1-2.537-.737,2.528,2.528,0,0,1-.963-2.138q0-1.4,1.325-1.4a1.225,1.225,0,0,1,1.3,1.324Zm2.525-13.175a3.806,3.806,0,0,0-.7-.05,2.216,2.216,0,0,0-1.625.675,2.669,2.669,0,0,0-.687,1.313,14.251,14.251,0,0,0-.163,2.612,22.926,22.926,0,0,0,.125,2.7,2.508,2.508,0,0,0,.738,1.538,2.162,2.162,0,0,0,1.562.587h.1a2.3,2.3,0,0,0,1.963-1.412,7.268,7.268,0,0,0,.612-3.138,13.7,13.7,0,0,0-.2-2.8,2.685,2.685,0,0,0-.612-1.3A2.1,2.1,0,0,0,730.216,610.405Z"/></g><g class="q"><path class="l" d="M905.4,625.979q-.426-.074-3.975-.075-3.5,0-3.925.075h-.3v-1.15h.65a14.162,14.162,0,0,0,1.875-.074,1.623,1.623,0,0,0,.6-.3V611.529a.632.632,0,0,0-.2.075,7.363,7.363,0,0,1-2.575.475h-.475V610.93h.475a6.97,6.97,0,0,0,3.5-.951,3.448,3.448,0,0,0,.775-.575q.049-.075.3-.075a.636.636,0,0,1,.425.15v7.475l.025,7.5a2.419,2.419,0,0,0,1.625.375h1.475v1.15Z"/></g><g class="q"><path class="l" d="M1074.253,625.98q-.424-.075-3.975-.076-3.5,0-3.924.076h-.3v-1.15h.649a14.326,14.326,0,0,0,1.875-.074,1.642,1.642,0,0,0,.6-.3V611.529a.6.6,0,0,0-.2.076,7.387,7.387,0,0,1-2.576.475h-.474v-1.15h.474a6.954,6.954,0,0,0,3.5-.95,3.457,3.457,0,0,0,.776-.576c.033-.049.133-.074.3-.074a.635.635,0,0,1,.424.15v7.475l.026,7.5a2.419,2.419,0,0,0,1.625.375h1.474v1.15Z"/><path class="l" d="M1078.3,624.48a1.452,1.452,0,0,1,1.5-1.5,1.481,1.481,0,0,1,1.087.438,1.414,1.414,0,0,1,.437,1.037,1.512,1.512,0,0,1-3.024.025Z"/><path class="l" d="M1093.7,625.98q-.424-.075-3.974-.076-3.5,0-3.925.076h-.3v-1.15h.649a14.326,14.326,0,0,0,1.875-.074,1.642,1.642,0,0,0,.6-.3V611.529a.6.6,0,0,0-.2.076,7.385,7.385,0,0,1-2.575.475h-.475v-1.15h.475a6.96,6.96,0,0,0,3.5-.95,3.473,3.473,0,0,0,.775-.576c.033-.049.133-.074.3-.074a.64.64,0,0,1,.425.15v7.475l.025,7.5a2.419,2.419,0,0,0,1.625.375h1.475v1.15Z"/></g></svg>