<svg xmlns="http://www.w3.org/2000/svg" fill="none" viewBox="0 0 240 135">
  <rect width="240" height="135" fill="black" />
  <g stroke="gray">
    <line x1="-930" x2="1950" y1="937.5" y2="-22.5" />
    <line x1="-960" x2="1920" y1="907.5" y2="-52.5" />
    <line x1="-990" x2="1890" y1="877.5" y2="-82.5" />
    <line x1="-1020" x2="1860" y1="847.5" y2="-112.5" />
    <line x1="-1050" x2="1830" y1="817.5" y2="-142.5" />
    <line x1="-1080" x2="1800" y1="787.5" y2="-172.5" />
    <line x1="-1110" x2="1770" y1="757.5" y2="-202.5" />
    <line x1="-1140" x2="1740" y1="727.5" y2="-232.5" />
    <line x1="-1170" x2="1710" y1="697.5" y2="-262.5" />
    <line x1="-1200" x2="1680" y1="667.5" y2="-292.5" />
    <line x1="-1230" x2="1650" y1="637.5" y2="-322.5" />
    <line x1="-1260" x2="1620" y1="607.5" y2="-352.5" />
    <line x1="-1290" x2="1590" y1="577.5" y2="-382.5" />
    <line x1="-1320" x2="1560" y1="547.5" y2="-412.5" />
    <line x1="-1350" x2="1530" y1="517.5" y2="-442.5" />
    <line x1="-1380" x2="1500" y1="487.5" y2="-472.5" />
    <line x1="-1410" x2="1470" y1="457.5" y2="-502.5" />
    <line x1="-1440" x2="1440" y1="427.5" y2="-532.5" />
    <line x1="-1470" x2="1410" y1="397.5" y2="-562.5" />
    <line x1="-1500" x2="1380" y1="367.5" y2="-592.5" />
    <line x1="-1530" x2="1350" y1="337.5" y2="-622.5" />
    <line x1="-1560" x2="1320" y1="307.5" y2="-652.5" />
    <line x1="-1590" x2="1290" y1="277.5" y2="-682.5" />
    <line x1="-1620" x2="1260" y1="247.5" y2="-712.5" />
    <line x1="-1650" x2="1230" y1="217.5" y2="-742.5" />
    <line x1="-1680" x2="1200" y1="187.5" y2="-772.5" />
    <line x1="-1710" x2="1170" y1="157.5" y2="-802.5" />
    <line x1="45" x2="-765" y1="632.5" y2="-177.5" />
    <line x1="105" x2="-705" y1="612.5" y2="-197.5" />
    <line x1="165" x2="-645" y1="592.5" y2="-217.5" />
    <line x1="225" x2="-585" y1="572.5" y2="-237.5" />
    <line x1="285" x2="-525" y1="552.5" y2="-257.5" />
    <line x1="345" x2="-465" y1="532.5" y2="-277.5" />
    <line x1="405" x2="-405" y1="512.5" y2="-297.5" />
    <line x1="465" x2="-345" y1="492.5" y2="-317.5" />
    <line x1="525" x2="-285" y1="472.5" y2="-337.5" />
    <line x1="585" x2="-225" y1="452.5" y2="-357.5" />
    <line x1="645" x2="-165" y1="432.5" y2="-377.5" />
    <line x1="705" x2="-105" y1="412.5" y2="-397.5" />
    <line x1="765" x2="-45" y1="392.5" y2="-417.5" />
    <line x1="825" x2="15" y1="372.5" y2="-437.5" />
    <line x1="885" x2="75" y1="352.5" y2="-457.5" />
    <line x1="945" x2="135" y1="332.5" y2="-477.5" />
    <line x1="1005" x2="195" y1="312.5" y2="-497.5" />
    <line x1="1560" x2="-1320" y1="-412.5" y2="547.5" />
    <line x1="525" x2="-285" y1="472.5" y2="-337.5" />
  </g>
  <path
    fill="mediumaquamarine"
    d="M163.635 45.84 180 47.5l-12.096 11.147.712-7.352z"
  />
  <line x1="120" x2="176.205" y1="67.5" y2="48.765" stroke="mediumaquamarine" />
  <path
    fill="palevioletred"
    d="M95.834 52.88 90 37.5l15.379 5.834-6.894 2.651z"
  />
  <line x1="120" x2="92.828" y1="67.5" y2="40.328" stroke="palevioletred" />
</svg>
