<svg width="640" height="360" viewBox="0 0 640 360" fill="none" xmlns="http://www.w3.org/2000/svg">
<g clip-path="url(#clip0_1330_4076)">
<path d="M640 0H0V360H640V0Z" fill="black"/>
<g clip-path="url(#clip1_1330_4076)">
<path d="M0 20H640" stroke="#505050" stroke-width="1.5"/>
<path d="M0 60H640" stroke="#505050" stroke-width="1.5"/>
<path d="M0 100H640" stroke="#505050" stroke-width="1.5"/>
<path d="M0 140H640" stroke="#505050" stroke-width="1.5"/>
<path d="M0 180H640" stroke="#505050" stroke-width="1.5"/>
<path d="M0 220H640" stroke="#505050" stroke-width="1.5"/>
<path d="M0 260H640" stroke="#505050" stroke-width="1.5"/>
<path d="M0 300H640" stroke="#505050" stroke-width="1.5"/>
<path d="M0 340H640" stroke="#505050" stroke-width="1.5"/>
<path d="M0 0V360" stroke="#505050" stroke-width="1.5"/>
<path d="M40 0V360" stroke="#505050" stroke-width="1.5"/>
<path d="M80 0V360" stroke="#505050" stroke-width="1.5"/>
<path d="M120 0V360" stroke="#505050" stroke-width="1.5"/>
<path d="M160 0V360" stroke="#505050" stroke-width="1.5"/>
<path d="M200 0V360" stroke="#505050" stroke-width="1.5"/>
<path d="M240 0V360" stroke="#505050" stroke-width="1.5"/>
<path d="M280 0V360" stroke="#505050" stroke-width="1.5"/>
<path d="M320 0V360" stroke="#505050" stroke-width="1.5"/>
<path d="M360 0V360" stroke="#505050" stroke-width="1.5"/>
<path d="M400 0V360" stroke="#505050" stroke-width="1.5"/>
<path d="M440 0V360" stroke="#505050" stroke-width="1.5"/>
<path d="M480 0V360" stroke="#505050" stroke-width="1.5"/>
<path d="M520 0V360" stroke="#505050" stroke-width="1.5"/>
<path d="M560 0V360" stroke="#505050" stroke-width="1.5"/>
<path d="M600 0V360" stroke="#505050" stroke-width="1.5"/>
<path d="M640 0V360" stroke="#505050" stroke-width="1.5"/>
</g>
<path d="M0 180H640" stroke="#C0C0C0" stroke-width="1.5"/>
<path d="M320 0V360" stroke="#C0C0C0" stroke-width="1.5"/>
<path d="M640 0H0V360H640V0Z" stroke="#404040" stroke-width="2"/>
<path d="M295 186.75L280 180L295 173.25L292 180L295 186.75Z" fill="#92D192"/>
<path d="M320 180H284" stroke="#92D192" stroke-width="1.5"/>
<path d="M273.25 115L280 100L286.75 115L280 112L273.25 115Z" fill="#F2777A"/>
<path d="M280 180V104" stroke="#F2777A" stroke-width="1.5"/>
<path d="M280.671 116.435L280 100L292.746 110.398L285.367 110.733L280.671 116.435Z" fill="#F0F0F0"/>
<path d="M320 180L281.789 103.578" stroke="#F0F0F0" stroke-width="1.5"/>
<path d="M280.122 184C280.278 184 280.377 184.107 280.422 184.321C280.466 184.534 280.514 184.905 280.565 185.432C280.617 185.959 280.694 186.419 280.797 186.815C281.529 189.679 282.982 191.111 285.154 191.111H294.507C297.271 191.111 299.044 193.099 299.829 197.074C300.612 193.099 302.297 191.111 304.88 191.111H314.439C315.069 191.111 315.545 191.078 315.865 191.012C316.765 190.781 317.543 190.144 318.198 189.098C318.853 188.053 319.245 186.757 319.375 185.209C319.375 185.176 319.381 185.081 319.394 184.926C319.407 184.77 319.419 184.658 319.433 184.593C319.445 184.526 319.465 184.436 319.491 184.321C319.518 184.205 319.565 184.123 319.632 184.074C319.699 184.024 319.772 184 319.853 184C320.188 184 319.951 187.667 319.143 189.59C318.334 191.512 317.161 192.596 315.622 192.84C315.363 192.873 314.982 192.889 314.478 192.889H305.073C304.199 192.889 303.435 193.107 302.779 193.543C302.123 193.98 301.637 194.543 301.323 195.235C301.008 195.926 300.78 196.507 300.639 196.976C300.497 197.445 300.4 197.918 300.35 198.396C300.35 198.495 300.343 198.639 300.33 198.828C300.317 199.017 300.295 199.169 300.263 199.285C300.231 199.4 300.202 199.516 300.176 199.63C300.151 199.746 300.105 199.836 300.041 199.902C299.977 199.967 299.905 200.001 299.829 200.001C299.726 200.001 299.642 199.977 299.578 199.927C299.514 199.877 299.465 199.787 299.433 199.655C299.401 199.524 299.379 199.388 299.366 199.248C299.353 199.109 299.334 198.923 299.309 198.692C299.283 198.461 299.257 198.248 299.231 198.05C299.051 196.832 298.647 195.733 298.017 194.753C297.387 193.774 296.583 193.186 295.607 192.988C295.35 192.922 294.964 192.889 294.45 192.889H285.385C284.869 192.889 284.457 192.86 284.149 192.803C283.841 192.746 283.409 192.526 282.855 192.143C282.301 191.76 281.804 191.202 281.363 190.469C279.899 188.443 279.867 184 280.122 184Z" fill="#F0F0F0"/>
<path d="M276 100.243C276 100.555 275.893 100.754 275.679 100.843C275.466 100.931 275.095 101.027 274.568 101.13C274.041 101.234 273.581 101.387 273.185 101.593C270.321 103.058 268.889 105.963 268.889 110.307V129.014C268.889 134.541 266.901 138.087 262.926 139.657C266.901 141.223 268.889 144.593 268.889 149.759V168.878C268.889 170.137 268.922 171.089 268.988 171.73C269.219 173.53 269.856 175.085 270.902 176.395C271.947 177.706 273.243 178.49 274.791 178.749C274.824 178.749 274.919 178.762 275.074 178.787C275.23 178.813 275.342 178.838 275.407 178.865C275.474 178.89 275.564 178.93 275.679 178.982C275.795 179.035 275.877 179.13 275.926 179.263C275.976 179.397 276 179.543 276 179.706C276 180.375 272.333 179.901 270.41 178.285C268.488 176.667 267.404 174.321 267.16 171.243C267.127 170.726 267.111 169.963 267.111 168.955V150.146C267.111 148.398 266.893 146.869 266.457 145.557C266.02 144.246 265.457 143.274 264.765 142.645C264.074 142.015 263.493 141.559 263.024 141.277C262.555 140.994 262.082 140.799 261.604 140.699C261.505 140.699 261.361 140.685 261.172 140.659C260.983 140.634 260.831 140.589 260.715 140.525C260.6 140.461 260.484 140.403 260.37 140.351C260.254 140.301 260.164 140.21 260.098 140.081C260.033 139.953 259.999 139.81 259.999 139.657C259.999 139.451 260.023 139.283 260.073 139.155C260.123 139.027 260.213 138.93 260.345 138.866C260.476 138.802 260.612 138.757 260.752 138.731C260.891 138.706 261.077 138.667 261.308 138.617C261.539 138.565 261.752 138.514 261.95 138.462C263.168 138.102 264.267 137.293 265.247 136.034C266.226 134.773 266.814 133.166 267.012 131.213C267.078 130.699 267.111 129.927 267.111 128.899V110.77C267.111 109.738 267.14 108.914 267.197 108.297C267.254 107.681 267.474 106.818 267.857 105.71C268.24 104.602 268.798 103.607 269.531 102.726C271.557 99.798 276 99.734 276 100.243Z" fill="#F0F0F0"/>
<path d="M491.41 38.8013C480.263 30.8908 461.566 40.5992 466.959 53.184C451.426 47.1433 447.902 73.6794 459.408 76.9155C447.039 81.2303 452.217 101.726 466.959 98.13C455.741 104.746 461.925 122.94 474.87 113.951C469.98 123.444 487.095 133.368 495.725 120.064C491.985 133.008 515.141 138.761 522.333 126.176C521.757 139.121 543.547 140.199 543.547 128.693C546.999 139.336 564.762 133.008 562.245 120.064C568.861 130.419 585.976 120.064 579.504 109.996C589.859 117.475 605.033 103.164 594.246 93.4556C607.19 94.8939 608.988 75.4772 594.246 71.522C607.766 67.4948 599.64 47.0714 588.493 50.3075C596.547 40.8149 578.066 30.1717 566.559 38.8013C572.6 24.9939 550.019 17.5869 543.547 31.9695C544.985 18.7375 519.816 17.2273 517.299 30.1717C512.409 16.652 489.252 25.4973 491.41 38.8013Z" fill="black" stroke="#C0C0C0" stroke-width="1.5"/>
<path d="M590.511 174.879C589.108 168.33 579.168 162.476 577.121 176.118C577.121 180.398 581.623 185.17 585.599 184.936C589.575 184.702 591.914 181.428 590.511 174.879Z" fill="black" stroke="#C0C0C0" stroke-width="1.5"/>
<path d="M597.543 137.365C594.843 125.686 579.663 126.44 577.322 140.46C575.887 149.048 582.44 155.369 587.748 155.162C594.383 154.904 600.702 151.035 597.543 137.365Z" fill="black" stroke="#C0C0C0" stroke-width="1.5"/>
<path d="M575.737 197.757C574.387 191.918 566.797 192.295 565.626 199.305C564.909 203.599 568.185 206.759 570.839 206.656C574.157 206.527 577.316 204.592 575.737 197.757Z" fill="black" stroke="#C0C0C0" stroke-width="1.5"/>
<rect x="499.5" y="50.4993" width="55.529" height="56.87" fill="#101010"/>
<g clip-path="url(#clip2_1330_4076)">
<path d="M508.531 103.359V54.5095H514.009V55.772H509.794V102.097H514.009V103.359H508.531Z" fill="#F0F0F0"/>
<path d="M515.964 64.9454C515.964 64.9454 515.964 64.8571 515.964 64.6806C515.964 64.5042 516.059 64.3684 516.249 64.2734H528.079C528.283 64.382 528.385 64.5177 528.385 64.6806C528.385 64.8435 528.283 64.9793 528.079 65.0879H516.249C516.059 64.9929 515.964 64.8571 515.964 64.6806V64.9454Z" fill="#F0F0F0"/>
<path d="M534.432 58.0017L534.168 58.1035C533.978 58.1714 533.706 58.2393 533.353 58.3072C533 58.375 532.607 58.4225 532.172 58.4497H531.785V57.513H532.172C532.81 57.4859 533.401 57.3841 533.944 57.2076C534.487 57.0311 534.867 56.8682 535.084 56.7189C535.301 56.5696 535.491 56.4202 535.654 56.2709C535.681 56.2302 535.763 56.2098 535.899 56.2098C536.021 56.2098 536.136 56.2505 536.245 56.332V62.4204L536.265 68.5291C536.36 68.6242 536.442 68.6852 536.509 68.7124C536.577 68.7395 536.74 68.7667 536.998 68.7938C537.256 68.821 537.677 68.8346 538.261 68.8346H538.79V69.7712H538.566C538.281 69.7305 537.202 69.7102 535.328 69.7102C533.482 69.7102 532.417 69.7305 532.131 69.7712H531.887V68.8346H532.417C532.715 68.8346 532.973 68.8346 533.19 68.8346C533.407 68.8346 533.577 68.8278 533.699 68.8142C533.822 68.8006 533.93 68.7803 534.025 68.7531C534.12 68.726 534.174 68.7124 534.188 68.7124C534.202 68.7124 534.242 68.6785 534.31 68.6106C534.378 68.5427 534.419 68.5156 534.432 68.5291V58.0017Z" fill="#F0F0F0"/>
<path d="M524.394 89.5432C524.027 89.5432 523.735 89.421 523.518 89.1766C523.301 88.9323 523.192 88.6336 523.192 88.2807C523.192 87.3169 523.552 86.482 524.272 85.7761C524.991 85.0702 525.887 84.7173 526.959 84.7173C528.195 84.7173 529.226 85.0974 530.054 85.8576C530.883 86.6178 531.303 87.6019 531.317 88.8101C531.317 89.3938 531.181 89.9504 530.91 90.4798C530.638 91.0093 530.312 91.4708 529.932 91.8645C529.552 92.2582 529.009 92.7604 528.303 93.3713C527.815 93.7921 527.136 94.4166 526.267 95.2447L525.066 96.385L526.613 96.4053C528.744 96.4053 529.878 96.3714 530.014 96.3035C530.109 96.2764 530.272 95.6723 530.502 94.4913V94.4302H531.317V94.4913C531.303 94.532 531.215 95.1496 531.052 96.3442C530.889 97.5388 530.788 98.1633 530.747 98.2176V98.2787H523.192V97.8918V97.6474C523.192 97.5524 523.233 97.4506 523.314 97.342C523.396 97.2334 523.6 96.9958 523.925 96.6293C524.319 96.1949 524.658 95.8148 524.943 95.489C525.066 95.3533 525.296 95.1021 525.636 94.7356C525.975 94.3691 526.206 94.1179 526.328 93.9822C526.45 93.8464 526.647 93.6225 526.919 93.3102C527.19 92.998 527.38 92.7672 527.489 92.6179C527.597 92.4686 527.754 92.265 527.957 92.007C528.161 91.7491 528.303 91.5319 528.385 91.3554C528.466 91.179 528.568 90.9821 528.69 90.7649C528.812 90.5477 528.901 90.3305 528.955 90.1133C529.009 89.8961 529.057 89.6925 529.097 89.5024C529.138 89.3124 529.159 89.0884 529.159 88.8305C529.159 87.9753 528.928 87.2354 528.466 86.611C528.005 85.9865 527.346 85.6743 526.491 85.6743C526.043 85.6743 525.649 85.7897 525.31 86.0205C524.971 86.2512 524.733 86.4752 524.597 86.6924C524.462 86.9096 524.394 87.0386 524.394 87.0793C524.394 87.0929 524.428 87.0997 524.496 87.0997C524.74 87.0997 524.991 87.1947 525.249 87.3847C525.507 87.5748 525.636 87.887 525.636 88.3214C525.636 88.6608 525.527 88.9459 525.31 89.1766C525.093 89.4074 524.787 89.5296 524.394 89.5432Z" fill="#F0F0F0"/>
<path d="M540.5 55.772V54.5095H545.978V103.359H540.5V102.097H544.715V55.772H540.5Z" fill="#F0F0F0"/>
</g>
<path d="M87.1945 226.406L87.2864 226.403L87.3485 226.336C88.3836 225.21 89.025 223.847 89.025 222.337C89.025 218.624 85.1523 215.688 80.45 215.688C75.7906 215.688 71.9188 218.624 71.9188 222.337C71.9188 223.889 72.7343 225.697 73.9142 226.786L73.9803 226.847L74.0699 226.844L87.1945 226.406Z" fill="white" stroke="black"/>
<path d="M111.252 226.363L111.361 226.362L111.425 226.274C112.459 224.881 113.088 223.085 113.088 221.2C113.088 216.487 109.272 212.624 104.511 212.669C99.7971 212.669 95.9813 216.486 95.9813 221.2C95.9813 223.126 96.6078 225.016 97.7825 226.416L97.8485 226.495L97.9522 226.494L111.252 226.363Z" fill="white" stroke="black"/>
<path d="M83.2938 217.306C82.725 217.35 82.2875 217.787 82.2875 218.356C82.2875 218.925 82.7688 219.406 83.3375 219.406C83.9063 219.406 84.3875 218.925 84.3875 218.356C84.3875 217.787 83.9063 217.306 83.2938 217.306L84.5625 216.869C86.4438 216.869 87.9313 218.4 87.9313 220.237C87.9313 222.075 86.4 223.606 84.5625 223.606C82.725 223.606 81.1938 222.075 81.1938 220.237C81.1938 218.4 82.725 216.869 84.5625 216.869" fill="black"/>
<path d="M108.231 216.431C107.662 216.475 107.225 216.912 107.225 217.481C107.225 218.05 107.706 218.531 108.275 218.531C108.844 218.531 109.325 218.05 109.325 217.481C109.325 216.912 108.844 216.431 108.275 216.431H108.231L109.5 215.994C111.381 215.994 112.869 217.525 112.869 219.362C112.869 221.2 111.337 222.731 109.5 222.731C107.662 222.731 106.131 221.2 106.131 219.362C106.131 217.525 107.662 215.994 109.5 215.994" fill="black"/>
<path d="M78.3938 239.794H106.569C99.8313 267.706 95.5875 285.906 95.5875 305.856C95.5875 309.356 95.5875 336.262 105.825 336.262C111.075 336.262 115.538 331.537 115.538 327.294C115.538 326.069 115.538 325.544 113.788 321.825C107.05 304.631 107.05 283.194 107.05 281.444C107.05 279.956 107.05 262.237 112.3 239.837H140.213C143.45 239.837 152.725 233.056 152.725 225.05C152.725 219.581 146.906 226.362 142.444 226.362C142.444 226.362 66.6688 223.956 55.5125 229.162C50.2188 231.656 46.9375 233.756 36.9188 247.144C31.45 254.45 28.6063 265.081 28.6063 266.612C28.6063 268.1 29.8313 268.625 31.3625 268.625C33.1125 268.625 33.8125 268.187 34.6 266.394C41.0313 251.431 52.1875 239.837 58.4438 239.837H72.6625C67.1938 258.519 60.9375 280.219 40.5063 323.837C38.4938 327.819 38.4938 328.344 38.4938 329.831C38.4938 335.081 43 336.306 45.2313 336.306C52.45 336.306 54.4625 329.831 57.4375 319.375C61.4188 306.644 61.4188 306.162 63.9125 296.187L78.3938 239.794Z" fill="#E066F4"/>
<path d="M79.4438 236.25C79.4438 236.556 79.5313 236.556 80.1438 236.731C81.4125 237.125 84.7375 236.206 85.4375 236.162L85.3938 234.5C84.65 234.544 81.8938 233.931 80.7563 233.931C79.9688 233.931 79.7938 233.975 79.3563 234.587" fill="black"/>
<path d="M552.417 230.781L552.308 230.78L552.243 230.693C551.209 229.299 550.581 227.504 550.581 225.619C550.581 220.906 554.397 217.043 559.157 217.088C563.871 217.088 567.688 220.905 567.688 225.619C567.688 227.545 567.061 229.434 565.886 230.834L565.82 230.913L565.717 230.913L552.417 230.781Z" fill="white" stroke="black"/>
<path d="M528.354 230.781L528.246 230.78L528.18 230.693C527.147 229.299 526.519 227.504 526.519 225.619C526.519 220.906 530.334 217.043 535.095 217.088C539.809 217.088 543.625 220.905 543.625 225.619C543.625 227.545 542.998 229.434 541.824 230.834L541.757 230.913L541.654 230.913L528.354 230.781Z" fill="white" stroke="black"/>
<path d="M556.75 219.1C557.319 219.144 557.756 219.581 557.756 220.15C557.756 220.719 557.275 221.2 556.706 221.2C556.137 221.2 555.656 220.719 555.656 220.15C555.656 219.581 556.137 219.1 556.706 219.1H556.75L555.481 218.663C553.6 218.663 552.112 220.194 552.112 222.031C552.112 223.869 553.644 225.4 555.481 225.4C557.319 225.4 558.85 223.869 558.85 222.031C558.85 220.194 557.319 218.663 555.481 218.663" fill="black"/>
<path d="M532.687 219.1C533.256 219.144 533.694 219.581 533.694 220.15C533.694 220.719 533.212 221.2 532.644 221.2C532.075 221.2 531.594 220.719 531.594 220.15C531.594 219.581 532.075 219.1 532.644 219.1H532.687L531.419 218.663C529.537 218.663 528.05 220.194 528.05 222.031C528.05 223.869 529.581 225.4 531.419 225.4C533.256 225.4 534.787 223.869 534.787 222.031C534.787 220.194 533.256 218.663 531.419 218.663" fill="black"/>
<path d="M560.95 243.731H532.775C539.513 271.644 543.756 289.844 543.756 309.794C543.756 313.294 543.756 340.2 533.519 340.2C528.269 340.2 523.806 335.475 523.806 331.231C523.806 330.006 523.806 329.481 525.556 325.763C532.294 308.569 532.294 287.131 532.294 285.381C532.294 283.894 532.294 266.175 527.044 243.775L496.769 243.338C490.731 243.163 485.131 234.194 485.131 226.188C485.131 220.719 492.525 230.606 504.381 230.606L578.888 230.3C584.619 230.3 593.106 230.3 604.569 242.506C611.044 249.725 610.694 262.938 610.694 264.425C610.694 265.913 609.469 266.438 607.937 266.438C606.187 266.438 605.006 266.131 604.7 264.206C601.2 243.513 587.113 243.775 580.856 243.775H566.638C572.106 262.456 578.363 284.156 598.794 327.775C600.806 331.756 600.806 332.281 600.806 333.769C600.806 339.019 596.3 340.244 594.069 340.244C586.85 340.244 584.837 333.769 581.862 323.313C577.881 310.581 577.881 310.1 575.388 300.125L560.95 243.731Z" fill="#0C7F99"/>
<path d="M554.869 239.881C555.087 241.281 555.787 243.162 550.756 242.594C544.85 241.937 543.362 240.887 541.175 239.706L541.306 238.35C542.925 238.394 546.337 238.656 548.612 238.175C550.45 237.781 554.212 237.737 554.431 238.569" fill="black"/>
<rect x="225.985" y="123.863" width="24.938" height="28.646" fill="black"/>
<g clip-path="url(#clip3_1330_4076)">
<path d="M232.204 135.62C231.838 135.62 231.546 135.498 231.329 135.254C231.112 135.01 231.003 134.711 231.003 134.358C231.003 133.395 231.363 132.56 232.082 131.854C232.801 131.148 233.697 130.795 234.769 130.795C236.004 130.795 237.036 131.175 237.864 131.936C238.692 132.696 239.112 133.68 239.126 134.887C239.126 135.471 238.99 136.028 238.719 136.557C238.447 137.086 238.122 137.548 237.742 137.941C237.362 138.335 236.819 138.837 236.113 139.448C235.624 139.868 234.946 140.493 234.077 141.321L232.876 142.461L234.423 142.481C236.554 142.481 237.687 142.447 237.823 142.379C237.918 142.352 238.081 141.748 238.312 140.567V140.506H239.126V140.567C239.112 140.608 239.024 141.226 238.861 142.42C238.698 143.614 238.597 144.239 238.556 144.293V144.354H231.003V143.967V143.723C231.003 143.628 231.044 143.526 231.125 143.418C231.207 143.309 231.41 143.071 231.736 142.705C232.13 142.271 232.469 141.891 232.754 141.565C232.876 141.429 233.107 141.178 233.446 140.812C233.785 140.445 234.016 140.194 234.138 140.058C234.26 139.923 234.457 139.699 234.729 139.387C235 139.074 235.19 138.844 235.299 138.694C235.407 138.545 235.563 138.342 235.767 138.084C235.97 137.826 236.113 137.609 236.194 137.432C236.276 137.256 236.378 137.059 236.5 136.842C236.622 136.625 236.71 136.408 236.764 136.19C236.819 135.973 236.866 135.77 236.907 135.58C236.948 135.39 236.968 135.166 236.968 134.908C236.968 134.053 236.737 133.313 236.276 132.689C235.814 132.064 235.156 131.752 234.301 131.752C233.853 131.752 233.46 131.868 233.12 132.098C232.781 132.329 232.543 132.553 232.408 132.77C232.272 132.987 232.204 133.116 232.204 133.157C232.204 133.171 232.238 133.177 232.306 133.177C232.55 133.177 232.801 133.272 233.059 133.462C233.317 133.652 233.446 133.965 233.446 134.399C233.446 134.738 233.337 135.023 233.12 135.254C232.903 135.485 232.598 135.607 232.204 135.62Z" fill="#F2777A"/>
<path d="M241.691 138.572C241.691 138.572 241.691 138.552 241.691 138.511C241.691 138.47 241.732 138.348 241.813 138.145C241.895 137.941 242.03 137.683 242.22 137.371C242.41 137.059 242.628 136.747 242.872 136.435C243.116 136.123 243.435 135.871 243.829 135.681C244.222 135.491 244.629 135.383 245.05 135.356C245.498 135.383 245.905 135.532 246.272 135.804C246.638 136.075 246.821 136.55 246.821 137.229V137.595L245.824 141.626C245.674 142.196 245.505 142.854 245.315 143.601C245.125 144.347 244.989 144.904 244.908 145.27C244.826 145.637 244.772 145.827 244.745 145.84C244.514 146.519 244.087 147.13 243.462 147.672C242.838 148.215 242.105 148.494 241.264 148.507C240.639 148.507 240.171 148.351 239.859 148.039C239.628 147.808 239.513 147.53 239.513 147.204C239.513 146.824 239.635 146.526 239.879 146.308C240.124 146.091 240.402 145.976 240.714 145.962C240.999 145.962 241.202 146.044 241.325 146.207C241.447 146.369 241.515 146.526 241.528 146.675C241.528 147.109 241.338 147.462 240.958 147.733L241.06 147.754H241.365H241.386C242.091 147.754 242.668 147.123 243.116 145.861C243.157 145.738 243.517 144.327 244.195 141.626C244.874 138.925 245.233 137.48 245.274 137.29C245.288 137.208 245.294 137.052 245.294 136.821C245.294 136.659 245.288 136.536 245.274 136.455C245.261 136.374 245.22 136.299 245.152 136.231C245.084 136.163 244.982 136.123 244.847 136.109C244.494 136.109 244.12 136.292 243.727 136.659C243.483 136.903 243.279 137.181 243.116 137.493C242.953 137.805 242.824 138.07 242.729 138.287C242.634 138.504 242.573 138.627 242.546 138.654C242.519 138.681 242.39 138.694 242.159 138.694H241.813C241.732 138.613 241.691 138.552 241.691 138.511V138.572Z" fill="#F2777A"/>
<path d="M240.734 132.628L243.523 129.9L243.686 130.063C245.451 131.745 246.333 132.6 246.333 132.628L245.803 133.218C245.776 133.204 245.383 132.865 244.623 132.2L243.544 131.264L242.424 132.22C242.248 132.37 242.071 132.526 241.895 132.689C241.718 132.852 241.576 132.981 241.467 133.076L241.304 133.198C241.277 133.225 241.175 133.13 240.999 132.913L240.734 132.628Z" fill="#F2777A"/>
</g>
<rect x="271.248" y="206.168" width="40.949" height="26.162" fill="black"/>
<g clip-path="url(#clip4_1330_4076)">
<path d="M276.961 221.835C276.961 221.835 276.961 221.747 276.961 221.571C276.961 221.394 277.056 221.258 277.246 221.163H289.076C289.279 221.272 289.381 221.408 289.381 221.571C289.381 221.733 289.279 221.869 289.076 221.978H277.246C277.056 221.883 276.961 221.747 276.961 221.571V221.835Z" fill="#92D192"/>
<path d="M295.428 214.892L295.164 214.994C294.974 215.062 294.702 215.13 294.349 215.198C293.996 215.266 293.603 215.313 293.168 215.34H292.781V214.404H293.168C293.806 214.376 294.397 214.275 294.94 214.098C295.483 213.922 295.863 213.759 296.08 213.609C296.297 213.46 296.487 213.311 296.65 213.162C296.677 213.121 296.759 213.1 296.894 213.1C297.017 213.1 297.132 213.141 297.241 213.223V219.311L297.261 225.419C297.356 225.514 297.437 225.575 297.505 225.602C297.573 225.629 297.736 225.656 297.994 225.684C298.252 225.711 298.673 225.724 299.256 225.724H299.786V226.661H299.562C299.277 226.62 298.198 226.6 296.324 226.6C294.478 226.6 293.413 226.62 293.128 226.661H292.883V225.724H293.413C293.711 225.724 293.969 225.724 294.186 225.724C294.404 225.724 294.573 225.717 294.695 225.704C294.818 225.69 294.926 225.67 295.021 225.643C295.116 225.616 295.171 225.602 295.184 225.602C295.198 225.602 295.238 225.568 295.306 225.5C295.374 225.432 295.415 225.405 295.428 225.419V214.892Z" fill="#92D192"/>
<path d="M302.799 220.817C302.799 220.749 302.847 220.573 302.942 220.288C303.037 220.003 303.179 219.67 303.369 219.29C303.559 218.91 303.824 218.564 304.163 218.252C304.503 217.94 304.869 217.75 305.263 217.682H305.629C306.091 217.682 306.471 217.831 306.769 218.13C307.068 218.428 307.224 218.849 307.238 219.392C307.224 219.65 307.197 219.833 307.156 219.942C307.116 220.05 306.817 220.878 306.26 222.426C305.555 224.272 305.202 225.371 305.202 225.724C305.202 225.996 305.31 226.132 305.527 226.132C305.785 226.132 306.043 226.016 306.301 225.785C306.654 225.405 306.96 224.774 307.217 223.892C307.258 223.729 307.292 223.634 307.319 223.607C307.346 223.58 307.441 223.559 307.604 223.546H307.726C307.862 223.546 307.95 223.546 307.991 223.546C308.032 223.546 308.079 223.566 308.134 223.607C308.188 223.647 308.208 223.695 308.195 223.749C308.195 223.885 308.127 224.143 307.991 224.523C307.855 224.903 307.597 225.337 307.217 225.826C306.837 226.315 306.403 226.647 305.914 226.824C305.806 226.851 305.643 226.865 305.426 226.865C304.828 226.865 304.401 226.695 304.143 226.355C303.885 226.016 303.756 225.636 303.756 225.215C303.756 224.849 304.089 223.79 304.754 222.039C305.419 220.288 305.758 219.222 305.772 218.842C305.772 218.679 305.751 218.571 305.711 218.516C305.67 218.462 305.568 218.428 305.405 218.415C305.025 218.442 304.706 218.652 304.448 219.046C304.19 219.44 304 219.86 303.878 220.308C303.756 220.756 303.675 220.98 303.634 220.98C303.62 220.994 303.491 221.001 303.247 221.001H302.921C302.84 220.919 302.799 220.858 302.799 220.817Z" fill="#92D192"/>
<path d="M302.091 214.933L304.88 212.205L305.043 212.367C306.807 214.051 307.69 214.906 307.69 214.933L307.16 215.523C307.133 215.51 306.74 215.171 305.979 214.505L304.9 213.569L303.78 214.526C303.604 214.675 303.428 214.831 303.251 214.994C303.075 215.157 302.932 215.286 302.824 215.381L302.661 215.503C302.633 215.53 302.532 215.435 302.355 215.218L302.091 214.933Z" fill="#92D192"/>
</g>
</g>
<defs>
<clipPath id="clip0_1330_4076">
<rect width="640" height="360" fill="white"/>
</clipPath>
<clipPath id="clip1_1330_4076">
<rect width="640" height="360" fill="white"/>
</clipPath>
<clipPath id="clip2_1330_4076">
<rect width="47.529" height="48.87" fill="white" transform="translate(503.5 54.4993)"/>
</clipPath>
<clipPath id="clip3_1330_4076">
<rect width="16.938" height="20.646" fill="white" transform="translate(229.985 127.863)"/>
</clipPath>
<clipPath id="clip4_1330_4076">
<rect width="32.949" height="18.162" fill="white" transform="translate(275.248 210.168)"/>
</clipPath>
</defs>
</svg>
