<svg width="640" height="360" viewBox="0 0 640 360" fill="none" xmlns="http://www.w3.org/2000/svg">
<g clip-path="url(#clip0_1328_3556)">
<path d="M640 0H0V360H640V0Z" fill="white"/>
<g clip-path="url(#clip1_1328_3556)">
<path d="M-1520 2180L3600 -380" stroke="#7684FE" stroke-opacity="0.75" stroke-width="1.19291"/>
<path d="M-1560 2140L3560 -420" stroke="#7684FE" stroke-opacity="0.75" stroke-width="1.19291"/>
<path d="M-1600 2100L3520 -460" stroke="#7684FE" stroke-opacity="0.75" stroke-width="1.19291"/>
<path d="M-1640 2060L3480 -500" stroke="#7684FE" stroke-opacity="0.75" stroke-width="1.19291"/>
<path d="M-1680 2020L3440 -540" stroke="#7684FE" stroke-opacity="0.75" stroke-width="1.19291"/>
<path d="M-1720 1980L3400 -580" stroke="#7684FE" stroke-opacity="0.75" stroke-width="1.19291"/>
<path d="M-1760 1940L3360 -620" stroke="#7684FE" stroke-opacity="0.75" stroke-width="1.19291"/>
<path d="M-1800 1900L3320 -660" stroke="#7684FE" stroke-opacity="0.75" stroke-width="1.19291"/>
<path d="M-1840 1860L3280 -700" stroke="#7684FE" stroke-opacity="0.75" stroke-width="1.19291"/>
<path d="M-1880 1820L3240 -740" stroke="#7684FE" stroke-opacity="0.75" stroke-width="1.19291"/>
<path d="M-1920 1780L3200 -780" stroke="#7684FE" stroke-opacity="0.75" stroke-width="1.19291"/>
<path d="M-1960 1740L3160 -820" stroke="#7684FE" stroke-opacity="0.75" stroke-width="1.19291"/>
<path d="M-2000 1700L3120 -860" stroke="#7684FE" stroke-opacity="0.75" stroke-width="1.19291"/>
<path d="M-2040 1660L3080 -900" stroke="#7684FE" stroke-opacity="0.75" stroke-width="1.19291"/>
<path d="M-2080 1620L3040 -940" stroke="#7684FE" stroke-opacity="0.75" stroke-width="1.19291"/>
<path d="M-2120 1580L3000 -980" stroke="#7684FE" stroke-opacity="0.75" stroke-width="1.19291"/>
<path d="M-2160 1540L2960 -1020" stroke="#7684FE" stroke-opacity="0.75" stroke-width="1.19291"/>
<path d="M-2200 1500L2920 -1060" stroke="#7684FE" stroke-opacity="0.75" stroke-width="1.19291"/>
<path d="M-2240 1460L2880 -1100" stroke="#7684FE" stroke-opacity="0.75" stroke-width="1.19291"/>
<path d="M-2280 1420L2840 -1140" stroke="#7684FE" stroke-opacity="0.75" stroke-width="1.19291"/>
<path d="M-2320 1380L2800 -1180" stroke="#7684FE" stroke-opacity="0.75" stroke-width="1.19291"/>
<path d="M-2360 1340L2760 -1220" stroke="#7684FE" stroke-opacity="0.75" stroke-width="1.19291"/>
<path d="M-2400 1300L2720 -1260" stroke="#7684FE" stroke-opacity="0.75" stroke-width="1.19291"/>
<path d="M-2440 1260L2680 -1300" stroke="#7684FE" stroke-opacity="0.75" stroke-width="1.19291"/>
<path d="M-2480 1220L2640 -1340" stroke="#7684FE" stroke-opacity="0.75" stroke-width="1.19291"/>
<path d="M-2520 1180L2600 -1380" stroke="#7684FE" stroke-opacity="0.75" stroke-width="1.19291"/>
<path d="M-2560 1140L2560 -1420" stroke="#7684FE" stroke-opacity="0.75" stroke-width="1.19291"/>
<path d="M-2600 1100L2520 -1460" stroke="#7684FE" stroke-opacity="0.75" stroke-width="1.19291"/>
<path d="M-2640 1060L2480 -1500" stroke="#7684FE" stroke-opacity="0.75" stroke-width="1.19291"/>
<path d="M-2680 1020L2440 -1540" stroke="#7684FE" stroke-opacity="0.75" stroke-width="1.19291"/>
<path d="M-2720 980L2400 -1580" stroke="#7684FE" stroke-opacity="0.75" stroke-width="1.19291"/>
<path d="M-2760 940L2360 -1620" stroke="#7684FE" stroke-opacity="0.75" stroke-width="1.19291"/>
<path d="M-2800 900L2320 -1660" stroke="#7684FE" stroke-opacity="0.75" stroke-width="1.19291"/>
<path d="M-2840 860L2280 -1700" stroke="#7684FE" stroke-opacity="0.75" stroke-width="1.19291"/>
<path d="M-2880 820L2240 -1740" stroke="#7684FE" stroke-opacity="0.75" stroke-width="1.19291"/>
<path d="M-2920 780L2200 -1780" stroke="#7684FE" stroke-opacity="0.75" stroke-width="1.19291"/>
<path d="M-2960 740L2160 -1820" stroke="#7684FE" stroke-opacity="0.75" stroke-width="1.19291"/>
<path d="M-9.15527e-05 1420L-1440 -20" stroke="#7684FE" stroke-opacity="0.75" stroke-width="1.19291"/>
<path d="M80 1380L-1360 -60" stroke="#7684FE" stroke-opacity="0.75" stroke-width="1.19291"/>
<path d="M160 1340L-1280 -100" stroke="#7684FE" stroke-opacity="0.75" stroke-width="1.19291"/>
<path d="M240 1300L-1200 -140" stroke="#7684FE" stroke-opacity="0.75" stroke-width="1.19291"/>
<path d="M320 1260L-1120 -180" stroke="#7684FE" stroke-opacity="0.75" stroke-width="1.19291"/>
<path d="M400 1220L-1040 -220" stroke="#7684FE" stroke-opacity="0.75" stroke-width="1.19291"/>
<path d="M480 1180L-960 -260" stroke="#7684FE" stroke-opacity="0.75" stroke-width="1.19291"/>
<path d="M560 1140L-880 -300" stroke="#7684FE" stroke-opacity="0.75" stroke-width="1.19291"/>
<path d="M640 1100L-800 -340" stroke="#7684FE" stroke-opacity="0.75" stroke-width="1.19291"/>
<path d="M720 1060L-720 -380" stroke="#7684FE" stroke-opacity="0.75" stroke-width="1.19291"/>
<path d="M800 1020L-640 -420" stroke="#7684FE" stroke-opacity="0.75" stroke-width="1.19291"/>
<path d="M880 980L-560 -460" stroke="#7684FE" stroke-opacity="0.75" stroke-width="1.19291"/>
<path d="M960 940L-480 -500" stroke="#7684FE" stroke-opacity="0.75" stroke-width="1.19291"/>
<path d="M1040 900L-400 -540" stroke="#7684FE" stroke-opacity="0.75" stroke-width="1.19291"/>
<path d="M1120 860L-320 -580" stroke="#7684FE" stroke-opacity="0.75" stroke-width="1.19291"/>
<path d="M1200 820L-240 -620" stroke="#7684FE" stroke-opacity="0.75" stroke-width="1.19291"/>
<path d="M1280 780L-160 -660" stroke="#7684FE" stroke-opacity="0.75" stroke-width="1.19291"/>
<path d="M1360 740L-80 -700" stroke="#7684FE" stroke-opacity="0.75" stroke-width="1.19291"/>
<path d="M1440 700L-3.60226e-05 -740" stroke="#7684FE" stroke-opacity="0.75" stroke-width="1.19291"/>
<path d="M1520 660L79.9999 -780" stroke="#7684FE" stroke-opacity="0.75" stroke-width="1.19291"/>
<path d="M1600 620L160 -820" stroke="#7684FE" stroke-opacity="0.75" stroke-width="1.19291"/>
<path d="M1680 580L240 -860" stroke="#7684FE" stroke-opacity="0.75" stroke-width="1.19291"/>
<path d="M1760 540L320 -900" stroke="#7684FE" stroke-opacity="0.75" stroke-width="1.19291"/>
<path d="M1840 500L400 -940" stroke="#7684FE" stroke-opacity="0.75" stroke-width="1.19291"/>
<path d="M1920 460L480 -980" stroke="#7684FE" stroke-opacity="0.75" stroke-width="1.19291"/>
<path d="M2000 420L560 -1020" stroke="#7684FE" stroke-opacity="0.75" stroke-width="1.19291"/>
<path d="M2080 380L640 -1060" stroke="#7684FE" stroke-opacity="0.75" stroke-width="1.19291"/>
<path d="M2880 -1100L-2240 1460" stroke="#6D79EB" stroke-width="1.19291"/>
<path d="M1040 900L-400 -540" stroke="#6D79EB" stroke-width="1.19291"/>
</g>
<path d="M383.565 140.671L400 140L389.602 152.746L389.267 145.367L383.565 140.671Z" fill="#99DF95"/>
<path d="M320 180L396.422 141.789" stroke="#99DF95" stroke-width="1.5"/>
<path d="M285.834 155.38L280 140L295.38 145.834L288.485 148.485L285.834 155.38Z" fill="#E29F9D"/>
<path d="M320 180L282.828 142.828" stroke="#E29F9D" stroke-width="1.5"/>
<path d="M640 0H0V360H640V0Z" stroke="#A0A0A0" stroke-width="2"/>
<path d="M256.435 219.329L240 220L250.398 207.254L250.733 214.633L256.435 219.329Z" fill="#40A839"/>
<path d="M320 180L243.578 218.211" stroke="#40A839" stroke-width="1.5"/>
<path d="M165.834 155.38L160 140L175.38 145.834L168.485 148.485L165.834 155.38Z" fill="#C74440"/>
<path d="M240 220L162.828 142.828" stroke="#C74440" stroke-width="1.5"/>
<path d="M172.915 150.187L160 140L176.189 137.09L171.642 142.91L172.915 150.187Z" fill="#202020"/>
<path d="M320 180L163.881 140.97" stroke="#202020" stroke-width="1.5"/>
<path d="M87.7267 230.781L87.8352 230.78L87.9004 230.693C88.9338 229.299 89.5621 227.504 89.5621 225.619C89.5621 220.906 85.7466 217.043 80.9862 217.088C76.2721 217.088 72.4558 220.905 72.4558 225.619C72.4558 227.545 73.0827 229.434 74.257 230.834L74.3235 230.913L74.4268 230.913L87.7267 230.781Z" fill="white" stroke="black"/>
<path d="M111.789 230.781L111.898 230.78L111.963 230.693C112.996 229.299 113.625 227.504 113.625 225.619C113.625 220.906 109.809 217.043 105.049 217.088C100.335 217.088 96.5183 220.905 96.5183 225.619C96.5183 227.545 97.1452 229.434 98.3195 230.834L98.386 230.913L98.4893 230.913L111.789 230.781Z" fill="white" stroke="black"/>
<path d="M83.3933 219.1C82.8246 219.144 82.3871 219.581 82.3871 220.15C82.3871 220.719 82.8683 221.2 83.4371 221.2C84.0058 221.2 84.4871 220.719 84.4871 220.15C84.4871 219.581 84.0058 219.1 83.4371 219.1H83.3933L84.6621 218.662C86.5433 218.662 88.0308 220.194 88.0308 222.031C88.0308 223.869 86.4996 225.4 84.6621 225.4C82.8246 225.4 81.2933 223.869 81.2933 222.031C81.2933 220.194 82.8246 218.662 84.6621 218.662" fill="black"/>
<path d="M107.456 219.1C106.887 219.144 106.45 219.581 106.45 220.15C106.45 220.719 106.931 221.2 107.5 221.2C108.068 221.2 108.55 220.719 108.55 220.15C108.55 219.581 108.068 219.1 107.5 219.1H107.456L108.725 218.662C110.606 218.662 112.093 220.194 112.093 222.031C112.093 223.869 110.562 225.4 108.725 225.4C106.887 225.4 105.356 223.869 105.356 222.031C105.356 220.194 106.887 218.662 108.725 218.662" fill="black"/>
<path d="M79.1933 243.731H107.368C100.631 271.644 96.3871 289.844 96.3871 309.794C96.3871 313.294 96.3871 340.2 106.625 340.2C111.875 340.2 116.337 335.475 116.337 331.231C116.337 330.006 116.337 329.481 114.587 325.762C107.85 308.569 107.85 287.131 107.85 285.381C107.85 283.894 107.85 266.175 113.1 243.775L143.375 243.337C149.412 243.162 155.012 234.194 155.012 226.187C155.012 220.719 147.618 230.606 135.762 230.606L61.2558 230.3C55.5246 230.3 47.0371 230.3 35.5746 242.506C29.0996 249.725 29.4496 262.937 29.4496 264.425C29.4496 265.912 30.6746 266.437 32.2058 266.437C33.9558 266.437 35.1371 266.131 35.4433 264.206C38.9433 243.512 53.0308 243.775 59.2871 243.775H73.5058C68.0371 262.456 61.7808 284.156 41.3496 327.775C39.3371 331.756 39.3371 332.281 39.3371 333.769C39.3371 339.019 43.8433 340.244 46.0746 340.244C53.2933 340.244 55.3058 333.769 58.2808 323.312C62.2621 310.581 62.2621 310.1 64.7558 300.125L79.1933 243.731Z" fill="#E066F4"/>
<path d="M85.2745 239.881C85.0558 241.281 84.3558 243.163 89.387 242.594C95.2933 241.938 96.7808 240.888 98.9683 239.706L98.837 238.35C97.2183 238.394 93.8058 238.656 91.5308 238.175C89.6933 237.781 85.9308 237.738 85.712 238.569" fill="black"/>
<rect x="155.95" y="183.273" width="40.085" height="33.389" fill="white"/>
<g clip-path="url(#clip2_1328_3556)">
<path d="M162.172 200.874C161.806 200.874 161.514 200.752 161.297 200.508C161.08 200.263 160.971 199.965 160.971 199.612C160.971 198.648 161.331 197.813 162.05 197.107C162.77 196.402 163.666 196.049 164.738 196.049C165.973 196.049 167.005 196.429 167.833 197.189C168.661 197.949 169.081 198.933 169.095 200.141C169.095 200.725 168.959 201.281 168.688 201.811C168.416 202.34 168.09 202.801 167.71 203.195C167.33 203.589 166.787 204.091 166.082 204.702C165.593 205.123 164.914 205.747 164.046 206.575L162.844 207.715L164.392 207.735C166.523 207.735 167.656 207.701 167.792 207.634C167.887 207.606 168.05 207.002 168.28 205.822V205.76H169.095V205.822C169.081 205.862 168.993 206.48 168.83 207.674C168.667 208.869 168.566 209.493 168.525 209.547V209.609H160.971V209.222V208.977C160.971 208.882 161.012 208.781 161.093 208.672C161.175 208.563 161.378 208.326 161.704 207.959C162.098 207.525 162.437 207.145 162.722 206.819C162.844 206.683 163.075 206.432 163.414 206.066C163.754 205.699 163.985 205.448 164.107 205.313C164.229 205.177 164.426 204.953 164.697 204.641C164.969 204.328 165.159 204.098 165.267 203.948C165.376 203.799 165.532 203.596 165.735 203.338C165.939 203.08 166.082 202.863 166.163 202.686C166.244 202.51 166.346 202.313 166.468 202.096C166.591 201.878 166.679 201.661 166.733 201.444C166.787 201.227 166.835 201.023 166.876 200.833C166.916 200.643 166.937 200.419 166.937 200.161C166.937 199.306 166.706 198.567 166.244 197.942C165.783 197.318 165.125 197.006 164.27 197.006C163.822 197.006 163.428 197.121 163.089 197.352C162.749 197.583 162.512 197.806 162.376 198.024C162.24 198.241 162.172 198.37 162.172 198.41C162.172 198.424 162.206 198.431 162.274 198.431C162.519 198.431 162.77 198.526 163.028 198.716C163.285 198.906 163.414 199.218 163.414 199.652C163.414 199.992 163.306 200.277 163.089 200.508C162.871 200.738 162.566 200.86 162.172 200.874Z" fill="#C74440"/>
<path d="M170.785 195.641L172.638 195.56C173.873 195.506 174.497 195.479 174.511 195.479H174.633V201.281C175.556 200.725 176.621 200.446 177.829 200.446C179.2 200.446 180.293 200.874 181.107 201.729C181.922 202.584 182.336 203.711 182.349 205.109C182.349 206.453 181.908 207.559 181.026 208.428C180.144 209.296 178.942 209.731 177.422 209.731H177.361C176.234 209.731 175.203 209.33 174.266 208.529L173.391 209.588L172.76 209.608H172.129V203.48C172.129 202.652 172.129 201.743 172.129 200.752C172.129 199.761 172.135 199.15 172.149 198.919C172.149 198.024 172.135 197.487 172.108 197.311C172.081 197.134 171.986 197.026 171.823 196.985C171.633 196.931 171.355 196.904 170.988 196.904H170.724V195.641H170.785ZM174.755 207.471L174.857 207.593C174.925 207.674 174.993 207.756 175.06 207.837C175.128 207.919 175.237 208.014 175.386 208.122C175.535 208.231 175.685 208.326 175.834 208.407C175.983 208.489 176.16 208.556 176.363 208.611C176.567 208.665 176.791 208.692 177.035 208.692C177.592 208.692 178.08 208.55 178.501 208.265C178.922 207.98 179.193 207.538 179.316 206.941C179.397 206.548 179.438 205.876 179.438 204.926C179.438 204.464 179.431 204.098 179.417 203.826C179.404 203.555 179.35 203.249 179.255 202.91C179.16 202.571 179.037 202.313 178.888 202.136C178.739 201.96 178.508 201.811 178.196 201.688C177.884 201.566 177.524 201.505 177.117 201.505C176.289 201.505 175.556 201.797 174.918 202.381L174.755 202.523V207.471Z" fill="#C74440"/>
<path d="M179.224 189.717C179.224 189.608 179.258 189.513 179.326 189.432C179.394 189.35 179.496 189.309 179.631 189.309C179.726 189.309 179.808 189.343 179.876 189.411C179.943 189.465 180.011 189.594 180.079 189.798C180.215 190.3 180.493 190.687 180.914 190.959C181.063 191.054 181.138 191.176 181.138 191.325C181.138 191.447 181.118 191.529 181.077 191.569C181.036 191.61 180.941 191.671 180.792 191.753C180.208 192.051 179.699 192.479 179.265 193.035C179.238 193.062 179.204 193.103 179.163 193.157C179.122 193.212 179.088 193.252 179.061 193.28C179.034 193.307 179 193.32 178.959 193.32C178.919 193.32 178.871 193.327 178.817 193.341C178.722 193.341 178.634 193.307 178.552 193.239C178.471 193.171 178.423 193.069 178.41 192.933C178.41 192.676 178.729 192.275 179.367 191.732H175.885L172.403 191.712C172.227 191.59 172.139 191.461 172.139 191.325C172.139 191.23 172.227 191.094 172.403 190.918H179.713C179.387 190.402 179.224 190.002 179.224 189.717Z" fill="#C74440"/>
<path d="M186.881 204.342L186.694 204.414C186.56 204.462 186.368 204.51 186.118 204.558C185.869 204.606 185.591 204.64 185.283 204.659H185.01V203.997H185.283C185.734 203.978 186.152 203.906 186.536 203.781C186.92 203.656 187.188 203.541 187.342 203.436C187.495 203.33 187.63 203.224 187.745 203.119C187.764 203.09 187.822 203.076 187.918 203.076C188.004 203.076 188.086 203.104 188.162 203.162V207.466L188.177 211.784C188.244 211.852 188.302 211.895 188.349 211.914C188.397 211.933 188.513 211.952 188.695 211.972C188.877 211.991 189.175 212 189.587 212H189.962V212.662H189.803C189.602 212.634 188.839 212.619 187.515 212.619C186.209 212.619 185.456 212.634 185.255 212.662H185.082V212H185.456C185.667 212 185.85 212 186.003 212C186.157 212 186.277 211.996 186.363 211.986C186.449 211.976 186.526 211.962 186.593 211.943C186.661 211.924 186.699 211.914 186.709 211.914C186.718 211.914 186.747 211.89 186.795 211.842C186.843 211.794 186.872 211.775 186.881 211.784V204.342Z" fill="#C74440"/>
</g>
<path d="M142.981 38.8013C154.128 30.8908 172.826 40.5992 167.432 53.184C182.965 47.1433 186.489 73.6794 174.983 76.9155C187.352 81.2303 182.174 101.726 167.432 98.13C178.651 104.746 172.466 122.94 159.522 113.951C164.412 123.444 147.296 133.368 138.667 120.064C142.406 133.008 119.25 138.761 112.059 126.176C112.634 139.121 90.8442 140.199 90.8442 128.693C87.3924 139.336 69.6298 133.008 72.1467 120.064C65.5307 130.419 48.4153 120.064 54.8875 109.996C44.532 117.475 29.3582 103.164 40.1453 93.4556C27.2008 94.8939 25.403 75.4772 40.1453 71.522C26.6255 67.4948 34.7517 47.0714 45.8983 50.3075C37.844 40.8149 56.3258 30.1717 67.8319 38.8013C61.7912 24.9939 84.372 17.5869 90.8442 31.9695C89.406 18.7375 114.576 17.2273 117.093 30.1717C121.983 16.652 145.139 25.4973 142.981 38.8013Z" fill="white" stroke="#606060" stroke-width="1.5"/>
<path d="M43.8805 174.879C45.2838 168.33 55.2238 162.476 57.2701 176.118C57.2701 180.398 52.768 185.17 48.792 184.936C44.8161 184.702 42.4772 181.428 43.8805 174.879Z" fill="white" stroke="#606060" stroke-width="1.5"/>
<path d="M36.8488 137.365C39.548 125.686 54.728 126.44 57.0697 140.46C58.504 149.048 51.9512 155.368 46.6432 155.162C40.0083 154.904 33.6893 151.035 36.8488 137.365Z" fill="white" stroke="#606060" stroke-width="1.5"/>
<path d="M58.6546 197.757C60.0042 191.918 67.5942 192.295 68.7651 199.305C69.4822 203.599 66.2058 206.759 63.5518 206.656C60.2344 206.527 57.0749 204.592 58.6546 197.757Z" fill="white" stroke="#606060" stroke-width="1.5"/>
<path d="M552.805 226.406L552.714 226.403L552.651 226.336C551.616 225.21 550.975 223.847 550.975 222.337C550.975 218.624 554.848 215.688 559.55 215.688C564.209 215.688 568.081 218.624 568.081 222.337C568.081 223.889 567.266 225.697 566.086 226.786L566.02 226.847L565.93 226.844L552.805 226.406Z" fill="white" stroke="black"/>
<path d="M528.748 226.362L528.639 226.362L528.575 226.274C527.541 224.881 526.912 223.085 526.912 221.2C526.912 216.487 530.728 212.624 535.489 212.669C540.203 212.669 544.019 216.486 544.019 221.2C544.019 223.126 543.392 225.015 542.218 226.415L542.151 226.495L542.048 226.494L528.748 226.362Z" fill="white" stroke="black"/>
<path d="M556.706 217.306C557.275 217.35 557.713 217.788 557.713 218.356C557.713 218.925 557.231 219.406 556.663 219.406C556.094 219.406 555.613 218.925 555.613 218.356C555.613 217.788 556.094 217.306 556.706 217.306L555.438 216.869C553.556 216.869 552.069 218.4 552.069 220.238C552.069 222.075 553.6 223.606 555.438 223.606C557.275 223.606 558.806 222.075 558.806 220.238C558.806 218.4 557.275 216.869 555.438 216.869" fill="black"/>
<path d="M531.769 216.431C532.338 216.475 532.775 216.913 532.775 217.481C532.775 218.05 532.294 218.531 531.725 218.531C531.156 218.531 530.675 218.05 530.675 217.481C530.675 216.913 531.156 216.431 531.725 216.431H531.769L530.5 215.994C528.619 215.994 527.131 217.525 527.131 219.363C527.131 221.2 528.663 222.731 530.5 222.731C532.338 222.731 533.869 221.2 533.869 219.363C533.869 217.525 532.338 215.994 530.5 215.994" fill="black"/>
<path d="M561.606 239.794H533.431C540.169 267.706 544.413 285.906 544.413 305.856C544.413 309.356 544.413 336.263 534.175 336.263C528.925 336.263 524.463 331.538 524.463 327.294C524.463 326.069 524.463 325.544 526.213 321.825C532.95 304.631 532.95 283.194 532.95 281.444C532.95 279.956 532.95 262.238 527.7 239.838H499.788C496.55 239.838 487.275 233.056 487.275 225.05C487.275 219.581 493.094 226.363 497.556 226.363C497.556 226.363 573.331 223.956 584.487 229.163C589.781 231.656 593.062 233.756 603.081 247.144C608.55 254.45 611.394 265.081 611.394 266.613C611.394 268.1 610.169 268.625 608.638 268.625C606.888 268.625 606.188 268.188 605.4 266.394C598.969 251.431 587.813 239.838 581.556 239.838H567.338C572.806 258.519 579.063 280.219 599.494 323.838C601.506 327.819 601.506 328.344 601.506 329.831C601.506 335.081 597 336.306 594.769 336.306C587.55 336.306 585.538 329.831 582.563 319.375C578.581 306.644 578.581 306.163 576.088 296.188L561.606 239.794Z" fill="#0C7F99"/>
<path d="M560.556 236.25C560.556 236.556 560.469 236.556 559.856 236.731C558.588 237.125 555.262 236.206 554.562 236.163L554.606 234.5C555.35 234.544 558.106 233.931 559.244 233.931C560.031 233.931 560.206 233.975 560.644 234.588" fill="black"/>
<rect x="77.8785" y="50.2573" width="55.529" height="56.87" fill="white"/>
<g clip-path="url(#clip3_1328_3556)">
<path d="M86.9095 103.117V54.2675H92.387V55.53H88.172V101.855H92.387V103.117H86.9095Z" fill="#101010"/>
<path d="M94.3418 64.7034C94.3418 64.7034 94.3418 64.6152 94.3418 64.4387C94.3418 64.2622 94.4368 64.1265 94.6269 64.0314H106.457C106.661 64.14 106.763 64.2758 106.763 64.4387C106.763 64.6016 106.661 64.7373 106.457 64.8459H94.6269C94.4368 64.7509 94.3418 64.6152 94.3418 64.4387V64.7034Z" fill="#101010"/>
<path d="M112.811 57.7598L112.546 57.8616C112.356 57.9295 112.084 57.9973 111.731 58.0652C111.378 58.1331 110.985 58.1806 110.55 58.2077H110.163V57.2711H110.55C111.188 57.2439 111.779 57.1421 112.322 56.9656C112.865 56.7892 113.245 56.6263 113.462 56.4769C113.679 56.3276 113.869 56.1783 114.032 56.029C114.059 55.9882 114.141 55.9679 114.277 55.9679C114.399 55.9679 114.514 56.0086 114.623 56.09V62.1784L114.643 68.2872C114.738 68.3822 114.82 68.4433 114.888 68.4704C114.955 68.4976 115.118 68.5247 115.376 68.5519C115.634 68.579 116.055 68.5926 116.639 68.5926H117.168V69.5293H116.944C116.659 69.4886 115.58 69.4682 113.707 69.4682C111.86 69.4682 110.795 69.4886 110.51 69.5293H110.265V68.5926H110.795C111.093 68.5926 111.351 68.5926 111.568 68.5926C111.786 68.5926 111.955 68.5858 112.078 68.5723C112.2 68.5587 112.308 68.5383 112.403 68.5112C112.498 68.484 112.553 68.4704 112.566 68.4704C112.58 68.4704 112.621 68.4365 112.688 68.3686C112.756 68.3008 112.797 68.2736 112.811 68.2872V57.7598Z" fill="#101010"/>
<path d="M102.772 89.3012C102.405 89.3012 102.113 89.1791 101.896 88.9347C101.679 88.6904 101.57 88.3917 101.57 88.0388C101.57 87.0749 101.93 86.2401 102.65 85.5342C103.369 84.8283 104.265 84.4753 105.338 84.4753C106.573 84.4753 107.605 84.8554 108.433 85.6156C109.261 86.3758 109.682 87.36 109.695 88.5682C109.695 89.1519 109.559 89.7085 109.288 90.2379C109.016 90.7673 108.691 91.2289 108.31 91.6226C107.93 92.0162 107.387 92.5185 106.681 93.1294C106.193 93.5502 105.514 94.1747 104.645 95.0027L103.444 96.143L104.991 96.1634C107.123 96.1634 108.256 96.1295 108.392 96.0616C108.487 96.0344 108.65 95.4303 108.881 94.2493V94.1882H109.695V94.2493C109.682 94.29 109.593 94.9077 109.43 96.1023C109.268 97.2969 109.166 97.9214 109.125 97.9757V98.0367H101.57V97.6499V97.4055C101.57 97.3105 101.611 97.2087 101.693 97.1001C101.774 96.9915 101.978 96.7539 102.304 96.3874C102.697 95.953 103.037 95.5729 103.322 95.2471C103.444 95.1113 103.675 94.8602 104.014 94.4937C104.353 94.1271 104.584 93.876 104.706 93.7403C104.828 93.6045 105.025 93.3805 105.297 93.0683C105.568 92.7561 105.758 92.5253 105.867 92.376C105.976 92.2266 106.132 92.023 106.335 91.7651C106.539 91.5072 106.681 91.29 106.763 91.1135C106.844 90.937 106.946 90.7402 107.068 90.523C107.191 90.3058 107.279 90.0886 107.333 89.8714C107.387 89.6542 107.435 89.4506 107.476 89.2605C107.516 89.0705 107.537 88.8465 107.537 88.5885C107.537 87.7333 107.306 86.9935 106.844 86.369C106.383 85.7446 105.724 85.4324 104.869 85.4324C104.421 85.4324 104.028 85.5477 103.688 85.7785C103.349 86.0093 103.111 86.2333 102.976 86.4505C102.84 86.6677 102.772 86.7966 102.772 86.8374C102.772 86.8509 102.806 86.8577 102.874 86.8577C103.118 86.8577 103.369 86.9528 103.627 87.1428C103.885 87.3329 104.014 87.6451 104.014 88.0795C104.014 88.4189 103.905 88.7039 103.688 88.9347C103.471 89.1655 103.166 89.2877 102.772 89.3012Z" fill="#101010"/>
<path d="M118.879 55.53V54.2675H124.356V103.117H118.879V101.855H123.094V55.53H118.879Z" fill="#101010"/>
</g>
<g clip-path="url(#clip4_1328_3556)">
<path d="M277.444 220.247C277.444 220.247 277.444 220.159 277.444 219.982C277.444 219.806 277.539 219.67 277.729 219.575H289.559C289.762 219.684 289.864 219.819 289.864 219.982C289.864 220.145 289.762 220.281 289.559 220.39H277.729C277.539 220.295 277.444 220.159 277.444 219.982V220.247Z" fill="#40A839"/>
<path d="M295.911 213.304L295.646 213.406C295.456 213.474 295.185 213.542 294.832 213.61C294.479 213.678 294.085 213.725 293.651 213.752H293.264V212.816H293.651C294.289 212.788 294.879 212.687 295.422 212.51C295.965 212.334 296.345 212.171 296.563 212.022C296.78 211.872 296.97 211.723 297.133 211.574C297.16 211.533 297.241 211.513 297.377 211.513C297.499 211.513 297.614 211.553 297.723 211.635V217.722L297.743 223.83C297.838 223.925 297.92 223.987 297.988 224.014C298.056 224.041 298.218 224.068 298.476 224.095C298.734 224.122 299.155 224.136 299.739 224.136H300.268V225.072H300.044C299.759 225.032 298.68 225.011 296.807 225.011C294.961 225.011 293.895 225.032 293.61 225.072H293.366V224.136H293.895C294.194 224.136 294.452 224.136 294.669 224.136C294.886 224.136 295.056 224.129 295.178 224.115C295.3 224.102 295.409 224.082 295.504 224.054C295.599 224.027 295.653 224.014 295.667 224.014C295.68 224.014 295.721 223.98 295.789 223.912C295.857 223.844 295.897 223.817 295.911 223.83V213.304Z" fill="#40A839"/>
<path d="M302.406 211.105L304.259 211.024C305.494 210.97 306.118 210.942 306.132 210.942H306.254V216.745C307.177 216.189 308.242 215.91 309.45 215.91C310.821 215.91 311.914 216.338 312.728 217.193C313.543 218.048 313.957 219.175 313.97 220.573C313.97 221.916 313.529 223.023 312.647 223.891C311.765 224.76 310.563 225.194 309.043 225.194H308.982C307.856 225.194 306.824 224.794 305.887 223.993L305.012 225.052L304.381 225.072H303.75V218.944C303.75 218.116 303.75 217.207 303.75 216.216C303.75 215.225 303.756 214.614 303.77 214.383C303.77 213.487 303.756 212.951 303.729 212.775C303.702 212.598 303.607 212.49 303.444 212.449C303.254 212.395 302.976 212.368 302.609 212.368H302.345V211.105H302.406ZM306.376 222.934L306.478 223.057C306.546 223.138 306.614 223.22 306.681 223.301C306.749 223.382 306.858 223.477 307.007 223.586C307.157 223.695 307.306 223.79 307.455 223.871C307.604 223.952 307.781 224.02 307.985 224.075C308.188 224.129 308.412 224.156 308.656 224.156C309.213 224.156 309.702 224.014 310.122 223.729C310.543 223.443 310.815 223.002 310.937 222.405C311.018 222.012 311.059 221.34 311.059 220.389C311.059 219.928 311.052 219.562 311.039 219.29C311.025 219.019 310.971 218.713 310.876 218.374C310.781 218.035 310.658 217.777 310.509 217.6C310.36 217.424 310.129 217.274 309.817 217.152C309.505 217.03 309.145 216.969 308.738 216.969C307.91 216.969 307.177 217.261 306.539 217.844L306.376 217.987V222.934Z" fill="#40A839"/>
<path d="M310.845 205.18C310.845 205.072 310.879 204.977 310.947 204.895C311.015 204.814 311.117 204.773 311.252 204.773C311.347 204.773 311.429 204.807 311.497 204.875C311.564 204.929 311.632 205.058 311.7 205.262C311.836 205.764 312.114 206.151 312.535 206.422C312.684 206.517 312.759 206.64 312.759 206.789C312.759 206.911 312.739 206.993 312.698 207.033C312.657 207.074 312.562 207.135 312.413 207.216C311.829 207.515 311.32 207.943 310.886 208.499C310.859 208.526 310.825 208.567 310.784 208.621C310.743 208.676 310.709 208.716 310.682 208.743C310.655 208.771 310.621 208.784 310.58 208.784C310.54 208.784 310.492 208.791 310.438 208.805C310.343 208.805 310.255 208.771 310.173 208.703C310.092 208.635 310.044 208.533 310.031 208.397C310.031 208.139 310.35 207.739 310.988 207.196H307.506L304.024 207.176C303.848 207.054 303.76 206.925 303.76 206.789C303.76 206.694 303.848 206.558 304.024 206.382H311.334C311.008 205.866 310.845 205.466 310.845 205.18Z" fill="#40A839"/>
<path d="M318.502 219.806L318.315 219.878C318.181 219.926 317.989 219.974 317.739 220.022C317.49 220.07 317.212 220.104 316.905 220.123H316.631V219.461H316.905C317.356 219.442 317.773 219.37 318.157 219.245C318.541 219.12 318.809 219.005 318.963 218.899C319.117 218.794 319.251 218.688 319.366 218.583C319.385 218.554 319.443 218.54 319.539 218.54C319.625 218.54 319.707 218.568 319.783 218.626V222.93L319.798 227.248C319.865 227.315 319.923 227.359 319.971 227.378C320.019 227.397 320.134 227.416 320.316 227.435C320.498 227.455 320.796 227.464 321.209 227.464H321.583V228.126H321.424C321.223 228.098 320.46 228.083 319.136 228.083C317.831 228.083 317.077 228.098 316.876 228.126H316.703V227.464H317.077C317.288 227.464 317.471 227.464 317.624 227.464C317.778 227.464 317.898 227.459 317.984 227.45C318.07 227.44 318.147 227.426 318.214 227.407C318.282 227.387 318.32 227.378 318.33 227.378C318.339 227.378 318.368 227.354 318.416 227.306C318.464 227.258 318.493 227.239 318.502 227.248V219.806Z" fill="#40A839"/>
</g>
</g>
<defs>
<clipPath id="clip0_1328_3556">
<rect width="640" height="360" fill="white"/>
</clipPath>
<clipPath id="clip1_1328_3556">
<rect width="2560" height="1440" fill="white" transform="translate(-960 -540)"/>
</clipPath>
<clipPath id="clip2_1328_3556">
<rect width="32.085" height="25.389" fill="white" transform="translate(159.95 187.273)"/>
</clipPath>
<clipPath id="clip3_1328_3556">
<rect width="47.529" height="48.87" fill="white" transform="translate(81.8785 54.2573)"/>
</clipPath>
<clipPath id="clip4_1328_3556">
<rect width="47.925" height="25.389" fill="white" transform="translate(275.731 202.737)"/>
</clipPath>
</defs>
</svg>
