<svg width="640" height="361" viewBox="0 0 640 361" fill="none" xmlns="http://www.w3.org/2000/svg">
<g clip-path="url(#clip0_1592_11037)">
<path d="M640 0.5H0V360.5H640V0.5Z" fill="black"/>
<g clip-path="url(#clip1_1592_11037)">
<path d="M0 52.5H640" stroke="#303030" stroke-width="1.5"/>
<path d="M0 84.5H640" stroke="#303030" stroke-width="1.5"/>
<path d="M0 116.5H640" stroke="#303030" stroke-width="1.5"/>
<path d="M0 148.5H640" stroke="#303030" stroke-width="1.5"/>
<path d="M0 212.5H640" stroke="#303030" stroke-width="1.5"/>
<path d="M0 244.5H640" stroke="#303030" stroke-width="1.5"/>
<path d="M0 276.5H640" stroke="#303030" stroke-width="1.5"/>
<path d="M0 308.5H640" stroke="#303030" stroke-width="1.5"/>
<path d="M32 0.5V360.5" stroke="#303030" stroke-width="1.5"/>
<path d="M64 0.5V360.5" stroke="#303030" stroke-width="1.5"/>
<path d="M96 0.5V360.5" stroke="#303030" stroke-width="1.5"/>
<path d="M128 0.5V360.5" stroke="#303030" stroke-width="1.5"/>
<path d="M192 0.5V360.5" stroke="#303030" stroke-width="1.5"/>
<path d="M224 0.5V360.5" stroke="#303030" stroke-width="1.5"/>
<path d="M256 0.5V360.5" stroke="#303030" stroke-width="1.5"/>
<path d="M288 0.5V360.5" stroke="#303030" stroke-width="1.5"/>
<path d="M352 0.5V360.5" stroke="#303030" stroke-width="1.5"/>
<path d="M384 0.5V360.5" stroke="#303030" stroke-width="1.5"/>
<path d="M416 0.5V360.5" stroke="#303030" stroke-width="1.5"/>
<path d="M448 0.5V360.5" stroke="#303030" stroke-width="1.5"/>
<path d="M512 0.5V360.5" stroke="#303030" stroke-width="1.5"/>
<path d="M544 0.5V360.5" stroke="#303030" stroke-width="1.5"/>
<path d="M576 0.5V360.5" stroke="#303030" stroke-width="1.5"/>
<path d="M608 0.5V360.5" stroke="#303030" stroke-width="1.5"/>
<path d="M0 20.5H640" stroke="#404040" stroke-width="1.5"/>
<path d="M0 340.5H640" stroke="#404040" stroke-width="1.5"/>
<path d="M160 0.5V360.5" stroke="#404040" stroke-width="1.5"/>
<path d="M480 0.5V360.5" stroke="#404040" stroke-width="1.5"/>
<path d="M0 180.5H640" stroke="#505050" stroke-width="1.5"/>
<path d="M0 0.5V360.5" stroke="#505050" stroke-width="1.5"/>
<path d="M320 0.5V360.5" stroke="#505050" stroke-width="1.5"/>
<path d="M640 0.5V360.5" stroke="#505050" stroke-width="1.5"/>
</g>
<path d="M0 180.5H640" stroke="#808080" stroke-width="1.5"/>
<path d="M320 0.5V360.5" stroke="#808080" stroke-width="1.5"/>
<path d="M640 0.5H0V360.5H640V0.5Z" stroke="#404040" stroke-width="2"/>
<g clip-path="url(#clip2_1592_11037)">
<path d="M-2496 -2379.5L64 2740.5" stroke="#6AB0F3" stroke-opacity="0.75" stroke-width="1.22856"/>
<path d="M-2400 -2379.5L160 2740.5" stroke="#6AB0F3" stroke-opacity="0.75" stroke-width="1.22856"/>
<path d="M-2304 -2379.5L256 2740.5" stroke="#6AB0F3" stroke-opacity="0.75" stroke-width="1.22856"/>
<path d="M-2208 -2379.5L352 2740.5" stroke="#6AB0F3" stroke-opacity="0.75" stroke-width="1.22856"/>
<path d="M-2112 -2379.5L448 2740.5" stroke="#6AB0F3" stroke-opacity="0.75" stroke-width="1.22856"/>
<path d="M-2016 -2379.5L544 2740.5" stroke="#6AB0F3" stroke-opacity="0.75" stroke-width="1.22856"/>
<path d="M-1920 -2379.5L640 2740.5" stroke="#6AB0F3" stroke-opacity="0.75" stroke-width="1.22856"/>
<path d="M-1824 -2379.5L736 2740.5" stroke="#6AB0F3" stroke-opacity="0.75" stroke-width="1.22856"/>
<path d="M-1728 -2379.5L832 2740.5" stroke="#6AB0F3" stroke-opacity="0.75" stroke-width="1.22856"/>
<path d="M-1632 -2379.5L928 2740.5" stroke="#6AB0F3" stroke-opacity="0.75" stroke-width="1.22856"/>
<path d="M-1536 -2379.5L1024 2740.5" stroke="#6AB0F3" stroke-opacity="0.75" stroke-width="1.22856"/>
<path d="M-1440 -2379.5L1120 2740.5" stroke="#6AB0F3" stroke-opacity="0.75" stroke-width="1.22856"/>
<path d="M-1344 -2379.5L1216 2740.5" stroke="#6AB0F3" stroke-opacity="0.75" stroke-width="1.22856"/>
<path d="M-1248 -2379.5L1312 2740.5" stroke="#6AB0F3" stroke-opacity="0.75" stroke-width="1.22856"/>
<path d="M-1152 -2379.5L1408 2740.5" stroke="#6AB0F3" stroke-opacity="0.75" stroke-width="1.22856"/>
<path d="M-1056 -2379.5L1504 2740.5" stroke="#6AB0F3" stroke-opacity="0.75" stroke-width="1.22856"/>
<path d="M-960 -2379.5L1600 2740.5" stroke="#6AB0F3" stroke-opacity="0.75" stroke-width="1.22856"/>
<path d="M-864 -2379.5L1696 2740.5" stroke="#6AB0F3" stroke-opacity="0.75" stroke-width="1.22856"/>
<path d="M-768 -2379.5L1792 2740.5" stroke="#6AB0F3" stroke-opacity="0.75" stroke-width="1.22856"/>
<path d="M-672 -2379.5L1888 2740.5" stroke="#6AB0F3" stroke-opacity="0.75" stroke-width="1.22856"/>
<path d="M-576 -2379.5L1984 2740.5" stroke="#6AB0F3" stroke-opacity="0.75" stroke-width="1.22856"/>
<path d="M-480 -2379.5L2080 2740.5" stroke="#6AB0F3" stroke-opacity="0.75" stroke-width="1.22856"/>
<path d="M-384 -2379.5L2176 2740.5" stroke="#6AB0F3" stroke-opacity="0.75" stroke-width="1.22856"/>
<path d="M-288 -2379.5L2272 2740.5" stroke="#6AB0F3" stroke-opacity="0.75" stroke-width="1.22856"/>
<path d="M-192 -2379.5L2368 2740.5" stroke="#6AB0F3" stroke-opacity="0.75" stroke-width="1.22856"/>
<path d="M-96 -2379.5L2464 2740.5" stroke="#6AB0F3" stroke-opacity="0.75" stroke-width="1.22856"/>
<path d="M0 -2379.5L2560 2740.5" stroke="#6AB0F3" stroke-opacity="0.75" stroke-width="1.22856"/>
<path d="M96 -2379.5L2656 2740.5" stroke="#6AB0F3" stroke-opacity="0.75" stroke-width="1.22856"/>
<path d="M192 -2379.5L2752 2740.5" stroke="#6AB0F3" stroke-opacity="0.75" stroke-width="1.22856"/>
<path d="M288 -2379.5L2848 2740.5" stroke="#6AB0F3" stroke-opacity="0.75" stroke-width="1.22856"/>
<path d="M384 -2379.5L2944 2740.5" stroke="#6AB0F3" stroke-opacity="0.75" stroke-width="1.22856"/>
<path d="M480 -2379.5L3040 2740.5" stroke="#6AB0F3" stroke-opacity="0.75" stroke-width="1.22856"/>
<path d="M576 -2379.5L3136 2740.5" stroke="#6AB0F3" stroke-opacity="0.75" stroke-width="1.22856"/>
<path d="M-1904 52.5H2416" stroke="#6AB0F3" stroke-opacity="0.75" stroke-width="1.22856"/>
<path d="M-1872 116.5H2448" stroke="#6AB0F3" stroke-opacity="0.75" stroke-width="1.22856"/>
<path d="M-1840 180.5H2480" stroke="#6AB0F3" stroke-opacity="0.75" stroke-width="1.22856"/>
<path d="M-1808 244.5H2512" stroke="#6AB0F3" stroke-opacity="0.75" stroke-width="1.22856"/>
<path d="M-1776 308.5H2544" stroke="#6AB0F3" stroke-opacity="0.75" stroke-width="1.22856"/>
<path d="M1600 2740.5L-960 -2379.5" stroke="#79B9F6" stroke-width="1.22856"/>
<path d="M-1840 180.5H2480" stroke="#79B9F6" stroke-width="1.22856"/>
</g>
<path d="M351.329 228.065L352 244.5L339.254 234.102L346.633 233.767L351.329 228.065Z" fill="#92D192"/>
<path d="M320 180.5L350.211 240.922" stroke="#92D192" stroke-width="1.5"/>
<path d="M401 173.75L416 180.5L401 187.25L404 180.5L401 173.75Z" fill="#F2777A"/>
<path d="M320 180.5H412" stroke="#F2777A" stroke-width="1.5"/>
<path d="M288.671 132.935L288 116.5L300.746 126.898L293.367 127.233L288.671 132.935Z" fill="#92D192"/>
<path d="M320 180.5L289.789 120.078" stroke="#92D192" stroke-width="1.5"/>
<path d="M465 109.75L480 116.5L465 123.25L468 116.5L465 109.75Z" fill="#F2777A"/>
<path d="M288 116.5H476" stroke="#F2777A" stroke-width="1.5"/>
<path d="M284.519 118.483C284.644 118.733 284.628 118.94 284.472 119.107C284.317 119.272 284.023 119.515 283.593 119.833C283.163 120.152 282.813 120.48 282.541 120.822C280.566 123.275 280.447 126.239 282.185 129.715L289.667 144.68C291.878 149.101 291.519 152.828 288.591 155.861C292.773 155.337 295.899 157.143 297.965 161.276L305.613 176.571C306.116 177.578 306.527 178.325 306.842 178.809C307.769 180.145 308.96 181.104 310.42 181.685C311.879 182.266 313.352 182.314 314.84 181.828C314.87 181.814 314.96 181.782 315.109 181.733C315.258 181.683 315.369 181.653 315.437 181.646C315.508 181.636 315.604 181.628 315.728 181.618C315.853 181.609 315.964 181.648 316.061 181.733C316.159 181.817 316.239 181.923 316.304 182.054C316.572 182.589 313.102 183.849 310.736 183.416C308.37 182.982 306.462 181.59 305.013 179.237C304.776 178.838 304.457 178.235 304.054 177.428L296.53 162.381C295.831 160.982 295.024 159.856 294.109 159.002C293.194 158.149 292.302 157.623 291.431 157.429C290.561 157.234 289.859 157.13 289.327 157.113C288.794 157.097 288.293 157.153 287.826 157.286C287.737 157.331 287.602 157.383 287.423 157.447C287.244 157.512 287.09 157.543 286.961 157.544C286.832 157.544 286.705 157.55 286.583 157.56C286.459 157.571 286.342 157.539 286.231 157.465C286.122 157.392 286.034 157.293 285.973 157.17C285.891 157.006 285.845 156.861 285.839 156.736C285.832 156.611 285.874 156.493 285.966 156.383C286.058 156.273 286.161 156.176 286.276 156.093C286.39 156.01 286.541 155.896 286.728 155.753C286.914 155.608 287.084 155.472 287.24 155.342C288.186 154.509 288.845 153.37 289.218 151.925C289.589 150.478 289.472 148.93 288.868 147.278C288.722 146.838 288.442 146.206 288.031 145.383L280.779 130.88C280.367 130.054 280.063 129.382 279.867 128.863C279.672 128.344 279.523 127.556 279.423 126.498C279.322 125.441 279.423 124.395 279.726 123.362C280.367 120.114 284.316 118.076 284.519 118.483Z" fill="#F0F0F0"/>
<path d="M279.287 153.026H203.232V206.393H279.287V153.026Z" fill="black"/>
<g clip-path="url(#clip3_1592_11037)">
<path d="M207.227 180.892C207.227 180.892 207.227 180.806 207.227 180.636C207.227 180.465 207.319 180.334 207.503 180.242H218.939C219.135 180.347 219.234 180.478 219.234 180.636C219.234 180.793 219.135 180.924 218.939 181.029H207.503C207.319 180.937 207.227 180.806 207.227 180.636V180.892Z" fill="#F0F0F0"/>
<path d="M225.08 174.18L224.824 174.278C224.64 174.344 224.378 174.409 224.037 174.475C223.695 174.541 223.315 174.587 222.895 174.613H222.521V173.707H222.895C223.512 173.681 224.082 173.583 224.607 173.412C225.132 173.242 225.5 173.084 225.71 172.94C225.92 172.795 226.103 172.651 226.261 172.507C226.287 172.467 226.366 172.448 226.497 172.448C226.615 172.448 226.727 172.487 226.832 172.566V178.451L226.851 184.356C226.943 184.448 227.022 184.507 227.087 184.533C227.153 184.559 227.31 184.586 227.56 184.612C227.809 184.638 228.216 184.651 228.78 184.651H229.292V185.557H229.075C228.8 185.517 227.757 185.498 225.946 185.498C224.161 185.498 223.131 185.517 222.856 185.557H222.619V184.651H223.131C223.42 184.651 223.669 184.651 223.879 184.651C224.089 184.651 224.253 184.645 224.371 184.632C224.489 184.618 224.594 184.599 224.686 184.572C224.778 184.546 224.83 184.533 224.844 184.533C224.857 184.533 224.896 184.5 224.962 184.435C225.027 184.369 225.067 184.343 225.08 184.356V174.18Z" fill="#F0F0F0"/>
<path d="M238.872 204.246V157.026H244.166V158.246H240.092V203.025H244.166V204.246H238.872Z" fill="#92D192"/>
<path d="M256.252 160.402L255.996 160.5C255.812 160.566 255.55 160.631 255.209 160.697C254.867 160.762 254.487 160.808 254.067 160.835H253.693V159.929H254.067C254.684 159.903 255.255 159.804 255.779 159.634C256.304 159.463 256.672 159.306 256.882 159.161C257.092 159.017 257.275 158.873 257.433 158.728C257.459 158.689 257.538 158.669 257.669 158.669C257.787 158.669 257.899 158.709 258.004 158.788V164.673L258.023 170.578C258.115 170.67 258.194 170.729 258.259 170.755C258.325 170.781 258.483 170.807 258.732 170.834C258.981 170.86 259.388 170.873 259.952 170.873H260.464V171.778H260.247C259.972 171.739 258.929 171.719 257.118 171.719C255.333 171.719 254.303 171.739 254.028 171.778H253.791V170.873H254.303C254.592 170.873 254.841 170.873 255.051 170.873C255.261 170.873 255.425 170.866 255.543 170.853C255.661 170.84 255.766 170.82 255.858 170.794C255.95 170.768 256.002 170.755 256.016 170.755C256.029 170.755 256.068 170.722 256.134 170.656C256.199 170.591 256.239 170.565 256.252 170.578V160.402Z" fill="#92D192"/>
<path d="M246.056 194.669C246.056 194.669 246.056 194.584 246.056 194.413C246.056 194.243 246.148 194.112 246.332 194.02H257.767C257.964 194.125 258.063 194.256 258.063 194.413C258.063 194.571 257.964 194.702 257.767 194.807H246.332C246.148 194.715 246.056 194.584 246.056 194.413V194.669Z" fill="#92D192"/>
<path d="M261.861 190.89C261.507 190.89 261.225 190.772 261.015 190.536C260.805 190.3 260.7 190.011 260.7 189.67C260.7 188.738 261.048 187.931 261.743 187.249C262.439 186.567 263.305 186.226 264.342 186.226C265.536 186.226 266.533 186.593 267.333 187.328C268.134 188.063 268.541 189.014 268.554 190.182C268.554 190.746 268.422 191.284 268.16 191.796C267.898 192.308 267.583 192.754 267.215 193.134C266.848 193.515 266.323 194 265.641 194.591C265.168 194.998 264.512 195.601 263.672 196.402L262.511 197.504L264.007 197.524C266.067 197.524 267.163 197.491 267.294 197.425C267.386 197.399 267.543 196.815 267.766 195.673V195.614H268.554V195.673C268.541 195.713 268.455 196.31 268.298 197.465C268.14 198.619 268.042 199.223 268.003 199.275V199.334H260.7V198.96V198.724C260.7 198.632 260.74 198.534 260.818 198.429C260.897 198.324 261.094 198.094 261.409 197.74C261.789 197.32 262.117 196.953 262.393 196.638C262.511 196.507 262.734 196.264 263.062 195.91C263.39 195.555 263.613 195.313 263.731 195.181C263.849 195.05 264.04 194.834 264.302 194.532C264.565 194.23 264.748 194.007 264.853 193.863C264.958 193.718 265.109 193.521 265.306 193.272C265.503 193.023 265.641 192.813 265.719 192.642C265.798 192.472 265.896 192.281 266.015 192.071C266.133 191.861 266.218 191.652 266.27 191.442C266.323 191.232 266.369 191.035 266.408 190.851C266.448 190.667 266.467 190.451 266.467 190.202C266.467 189.375 266.244 188.66 265.798 188.056C265.352 187.452 264.715 187.151 263.889 187.151C263.456 187.151 263.075 187.262 262.747 187.485C262.419 187.708 262.189 187.925 262.058 188.135C261.927 188.345 261.861 188.469 261.861 188.509C261.861 188.522 261.894 188.528 261.96 188.528C262.196 188.528 262.439 188.62 262.688 188.804C262.937 188.988 263.062 189.29 263.062 189.709C263.062 190.038 262.957 190.313 262.747 190.536C262.537 190.759 262.242 190.877 261.861 190.89Z" fill="#92D192"/>
<path d="M269.774 158.246V157.026H275.069V204.246H269.774V203.025H273.848V158.246H269.774Z" fill="#92D192"/>
</g>
<path d="M479.789 112.5C479.515 112.5 479.339 112.393 479.261 112.179C479.183 111.966 479.099 111.595 479.008 111.068C478.917 110.541 478.782 110.081 478.601 109.685C477.311 106.821 474.755 105.389 470.932 105.389H393.67C388.806 105.389 385.684 103.401 384.304 99.426C382.925 103.401 379.961 105.389 375.413 105.389L297.788 105.389C296.681 105.389 295.843 105.422 295.278 105.488C293.694 105.719 292.326 106.356 291.173 107.402C290.019 108.447 289.328 109.743 289.102 111.291C289.102 111.324 289.091 111.419 289.068 111.574C289.046 111.73 289.023 111.842 289.001 111.907C288.979 111.974 288.943 112.064 288.897 112.179C288.851 112.295 288.767 112.377 288.649 112.426C288.532 112.476 288.401 112.5 288.26 112.5C287.671 112.5 288.088 108.833 289.51 106.91C290.933 104.988 292.998 103.904 295.706 103.66C296.162 103.627 296.832 103.611 297.72 103.611L375.073 103.611C376.611 103.611 377.958 103.393 379.112 102.957C380.266 102.52 381.12 101.957 381.674 101.265C382.227 100.574 382.628 99.993 382.878 99.524C383.128 99.055 383.297 98.582 383.387 98.104C383.387 98.005 383.4 97.861 383.422 97.672C383.444 97.483 383.484 97.331 383.54 97.215C383.597 97.1 383.647 96.984 383.693 96.87C383.738 96.754 383.817 96.664 383.931 96.598C384.044 96.533 384.169 96.499 384.304 96.499C384.484 96.499 384.633 96.523 384.745 96.573C384.857 96.623 384.943 96.713 385 96.845C385.056 96.976 385.096 97.112 385.118 97.252C385.14 97.391 385.175 97.577 385.219 97.808C385.265 98.039 385.31 98.252 385.356 98.45C385.673 99.668 386.384 100.767 387.492 101.747C388.602 102.726 390.016 103.314 391.735 103.512C392.187 103.578 392.865 103.611 393.77 103.611H470.523C471.431 103.611 472.156 103.64 472.699 103.697C473.242 103.754 474 103.974 474.975 104.357C475.95 104.74 476.826 105.298 477.601 106.031C480.177 108.057 480.235 112.5 479.786 112.5L479.789 112.5Z" fill="#F0F0F0"/>
<path d="M412.371 24.8281H357.603V78.1943H412.371V24.8281Z" fill="black"/>
<g clip-path="url(#clip4_1592_11037)">
<path d="M362.761 48.9142C362.407 48.9142 362.125 48.7961 361.915 48.5599C361.705 48.3237 361.6 48.035 361.6 47.6938C361.6 46.7622 361.948 45.9552 362.643 45.2729C363.339 44.5906 364.205 44.2494 365.241 44.2494C366.435 44.2494 367.433 44.6168 368.233 45.3516C369.033 46.0864 369.44 47.0378 369.453 48.2056C369.453 48.7698 369.322 49.3078 369.06 49.8195C368.797 50.3313 368.482 50.7774 368.115 51.1579C367.748 51.5385 367.223 52.024 366.54 52.6144C366.068 53.0212 365.412 53.6248 364.572 54.4252L363.411 55.5274L364.907 55.5471C366.967 55.5471 368.062 55.5143 368.194 55.4487C368.286 55.4225 368.443 54.8386 368.666 53.697V53.6379H369.453V53.697C369.44 53.7363 369.355 54.3334 369.197 55.4881C369.04 56.6428 368.942 57.2464 368.902 57.2989V57.3579H361.6V56.9839V56.7478C361.6 56.6559 361.639 56.5575 361.718 56.4525C361.797 56.3475 361.994 56.1179 362.309 55.7636C362.689 55.3437 363.017 54.9763 363.293 54.6614C363.411 54.5302 363.634 54.2875 363.962 53.9332C364.29 53.5789 364.513 53.3361 364.631 53.2049C364.749 53.0737 364.94 52.8572 365.202 52.5554C365.464 52.2536 365.648 52.0305 365.753 51.8862C365.858 51.7419 366.009 51.545 366.206 51.2957C366.403 51.0464 366.54 50.8365 366.619 50.6659C366.698 50.4953 366.796 50.305 366.914 50.0951C367.032 49.8852 367.118 49.6752 367.17 49.4653C367.223 49.2553 367.269 49.0585 367.308 48.8748C367.347 48.6911 367.367 48.4746 367.367 48.2253C367.367 47.3986 367.144 46.6835 366.698 46.0799C366.252 45.4763 365.615 45.1745 364.789 45.1745C364.356 45.1745 363.975 45.286 363.647 45.5091C363.319 45.7322 363.089 45.9487 362.958 46.1586C362.827 46.3686 362.761 46.4932 362.761 46.5326C362.761 46.5457 362.794 46.5523 362.86 46.5523C363.096 46.5523 363.339 46.6441 363.588 46.8278C363.837 47.0115 363.962 47.3133 363.962 47.7332C363.962 48.0612 363.857 48.3368 363.647 48.5599C363.437 48.7829 363.142 48.901 362.761 48.9142Z" fill="#F0F0F0"/>
<path d="M378.6 76.0464V28.8283H383.894V30.0486H379.82V74.8261H383.894V76.0464H378.6Z" fill="#F2777A"/>
<path d="M391 34.4677C390.645 34.4677 390.37 34.3562 390.173 34.1331C389.976 33.91 389.871 33.6214 389.858 33.2671C389.858 32.5454 390.173 31.9024 390.803 31.3382C391.433 30.774 392.194 30.4919 393.086 30.4919C393.545 30.4919 393.834 30.4984 393.952 30.5115C394.923 30.669 395.664 31.0167 396.176 31.5547C396.688 32.0927 396.95 32.6766 396.963 33.3064C396.963 33.9888 396.74 34.6514 396.294 35.2944C395.848 35.9373 395.231 36.4031 394.444 36.6918L394.385 36.7312C394.385 36.7443 394.444 36.764 394.562 36.7902C394.68 36.8165 394.871 36.8755 395.133 36.9674C395.395 37.0592 395.645 37.197 395.881 37.3807C396.957 38.0761 397.495 38.9947 397.495 40.1362C397.495 41.1728 397.088 42.0782 396.275 42.8524C395.461 43.6266 394.431 44.0137 393.184 44.0137C392.135 44.0137 391.229 43.7316 390.468 43.1673C389.707 42.6031 389.327 41.888 389.327 41.0219C389.327 40.6545 389.445 40.3593 389.681 40.1362C389.917 39.9132 390.212 39.7951 390.567 39.782C390.934 39.782 391.236 39.9 391.472 40.1362C391.708 40.3724 391.826 40.6677 391.826 41.0219C391.826 41.1663 391.807 41.2975 391.767 41.4156C391.728 41.5337 391.682 41.6387 391.63 41.7305C391.577 41.8224 391.505 41.9011 391.413 41.9667C391.321 42.0323 391.242 42.0848 391.177 42.1242C391.111 42.1635 391.046 42.1898 390.98 42.2029C390.914 42.216 390.862 42.2357 390.823 42.2619L390.744 42.2816C391.413 42.8721 392.227 43.1673 393.184 43.1673C393.906 43.1673 394.451 42.8196 394.818 42.1242C395.041 41.6911 395.153 41.0285 395.153 40.1362V39.7426C395.153 38.496 394.733 37.6628 393.893 37.2429C393.696 37.1642 393.296 37.1183 392.692 37.1051L391.866 37.0855L391.807 37.0461C391.78 37.0067 391.767 36.9018 391.767 36.7312C391.767 36.495 391.82 36.3769 391.925 36.3769C392.292 36.3769 392.673 36.3441 393.066 36.2785C393.512 36.2129 393.919 35.9373 394.287 35.4518C394.654 34.9663 394.838 34.2315 394.838 33.2474V33.0899C394.838 32.342 394.608 31.8237 394.149 31.535C393.86 31.3513 393.552 31.2595 393.224 31.2595C392.804 31.2595 392.417 31.3316 392.063 31.476C391.708 31.6203 391.459 31.7712 391.315 31.9287C391.17 32.0861 391.098 32.1649 391.098 32.1649H391.157C391.197 32.178 391.249 32.1911 391.315 32.2042C391.38 32.2173 391.446 32.2501 391.511 32.3026C391.577 32.3551 391.656 32.401 391.748 32.4404C391.839 32.4798 391.905 32.5519 391.944 32.6569C391.984 32.7619 392.036 32.8603 392.102 32.9522C392.168 33.044 392.187 33.1752 392.161 33.3458C392.161 33.6345 392.069 33.8903 391.885 34.1134C391.702 34.3365 391.406 34.4546 391 34.4677Z" fill="#F2777A"/>
<path d="M390.39 59.6216C391.124 58.5588 392.128 58.0273 393.401 58.0273C394.031 58.0273 394.661 58.1979 395.29 58.5391C395.92 58.8802 396.432 59.4838 396.826 60.3499C397.311 61.439 397.554 62.9348 397.554 64.8375C397.554 66.8713 397.272 68.4262 396.708 69.5022C396.445 70.0533 396.084 70.4929 395.625 70.8209C395.166 71.149 394.766 71.3523 394.424 71.4311C394.083 71.5098 393.749 71.5557 393.421 71.5688C393.079 71.5688 392.738 71.5295 392.397 71.4508C392.056 71.372 391.656 71.1621 391.197 70.8209C390.737 70.4798 390.376 70.0402 390.114 69.5022C389.55 68.4262 389.268 66.8713 389.268 64.8375C389.268 62.5543 389.642 60.8157 390.39 59.6216ZM394.818 59.3854C394.424 58.9655 393.959 58.7556 393.421 58.7556C392.87 58.7556 392.397 58.9655 392.004 59.3854C391.675 59.7266 391.459 60.199 391.354 60.8026C391.249 61.4062 391.197 62.6658 391.197 64.5816C391.197 66.6548 391.249 68.0195 391.354 68.6755C391.459 69.3316 391.695 69.8499 392.063 70.2304C392.43 70.6241 392.883 70.8209 393.421 70.8209C393.946 70.8209 394.392 70.6241 394.759 70.2304C395.14 69.8368 395.376 69.2857 395.468 68.5771C395.559 67.8686 395.612 66.5367 395.625 64.5816C395.625 62.679 395.573 61.4258 395.468 60.8222C395.363 60.2187 395.146 59.7397 394.818 59.3854Z" fill="#F2777A"/>
<path d="M402.927 30.0486V28.8283H408.222V76.0464H402.927V74.8261H407.002V30.0486H402.927Z" fill="#F2777A"/>
</g>
<path d="M351.329 228.065L352 244.5L339.254 234.102L346.633 233.767L351.329 228.065Z" fill="#92D192"/>
<path d="M320 180.5L350.211 240.922" stroke="#92D192" stroke-width="1.5"/>
<path d="M401 173.75L416 180.5L401 187.25L404 180.5L401 173.75Z" fill="#F2777A"/>
<path d="M320 180.5H412" stroke="#F2777A" stroke-width="1.5"/>
<path d="M434.012 254.391H308.819V307.76H434.012V254.391Z" fill="black"/>
<g clip-path="url(#clip5_1592_11037)">
<path d="M316.675 274.384C316.229 274.384 315.992 274.358 315.966 274.305C315.953 274.279 315.946 274.226 315.946 274.148C315.946 273.833 316.019 273.616 316.163 273.498C316.189 273.485 316.288 273.478 316.458 273.478C317.167 273.518 318 273.538 318.958 273.538C320.808 273.538 321.871 273.518 322.147 273.478H322.383C322.462 273.557 322.501 273.616 322.501 273.656C322.501 273.695 322.488 273.813 322.462 274.01C322.396 274.207 322.337 274.331 322.285 274.384H321.537C320.631 274.397 320.1 274.456 319.942 274.561C319.85 274.614 319.759 274.797 319.667 275.112C319.575 275.427 319.135 277.159 318.348 280.309C318.138 281.162 317.915 282.067 317.679 283.025C317.442 283.983 317.265 284.705 317.147 285.19L316.97 285.899C316.97 285.951 317.029 285.978 317.147 285.978C317.265 285.978 317.652 285.991 318.309 286.017H318.643C319.063 286.017 319.398 286.01 319.647 285.997C319.896 285.984 320.218 285.938 320.612 285.86C321.005 285.781 321.333 285.663 321.596 285.505C321.858 285.348 322.147 285.125 322.462 284.836C322.777 284.547 323.052 284.186 323.289 283.753C323.498 283.36 323.695 282.92 323.879 282.435C324.063 281.949 324.174 281.673 324.214 281.608C324.279 281.569 324.391 281.549 324.548 281.549H324.804C324.883 281.667 324.922 281.739 324.922 281.765C324.922 281.792 324.791 282.179 324.529 282.927C324.266 283.675 323.977 284.462 323.663 285.289C323.348 286.115 323.177 286.601 323.151 286.745C323.124 286.811 323.098 286.85 323.072 286.863C323.046 286.877 322.941 286.896 322.757 286.922C322.573 286.949 322.291 286.955 321.911 286.942C321.766 286.942 321.268 286.942 320.415 286.942C319.562 286.942 318.748 286.936 317.974 286.922H314.47C313.368 286.922 312.817 286.857 312.817 286.726C312.817 286.634 312.83 286.542 312.856 286.45C312.922 286.201 312.987 286.063 313.053 286.037C313.105 286.024 313.204 286.017 313.348 286.017H313.466C313.821 286.017 314.214 285.997 314.647 285.958C314.831 285.919 314.956 285.84 315.021 285.722C315.061 285.669 315.533 283.845 316.439 280.25C317.344 276.654 317.797 274.758 317.797 274.561C317.797 274.469 317.423 274.41 316.675 274.384Z" fill="#F0F0F0"/>
<path d="M331.865 281.992C331.865 276.809 333.413 272.878 336.51 270.201H337.061C337.14 270.28 337.179 270.339 337.179 270.379C337.179 270.431 337.055 270.595 336.805 270.871C336.556 271.146 336.254 271.56 335.9 272.111C335.546 272.662 335.185 273.344 334.817 274.158C334.45 274.971 334.141 276.067 333.892 277.445C333.643 278.823 333.518 280.345 333.518 282.012C333.518 283.665 333.643 285.181 333.892 286.559C334.141 287.936 334.443 289.026 334.798 289.826C335.152 290.627 335.513 291.309 335.88 291.873C336.248 292.438 336.556 292.857 336.805 293.133C337.055 293.409 337.179 293.573 337.179 293.625C337.179 293.664 337.14 293.724 337.061 293.802H336.51C336.13 293.487 335.762 293.14 335.408 292.759C335.053 292.378 334.653 291.834 334.207 291.125C333.761 290.417 333.374 289.656 333.046 288.842C332.718 288.028 332.442 287.024 332.219 285.83C331.996 284.636 331.878 283.357 331.865 281.992Z" fill="#F0F0F0"/>
<path d="M339.364 281.274C339.364 281.208 339.41 281.037 339.502 280.762C339.594 280.486 339.732 280.165 339.915 279.797C340.099 279.43 340.355 279.095 340.683 278.793C341.011 278.492 341.365 278.308 341.746 278.242H342.1C342.546 278.242 342.914 278.387 343.203 278.675C343.491 278.964 343.642 279.371 343.655 279.896C343.642 280.145 343.616 280.322 343.577 280.427C343.537 280.532 343.248 281.333 342.71 282.829C342.028 284.613 341.687 285.676 341.687 286.017C341.687 286.28 341.792 286.411 342.002 286.411C342.251 286.411 342.501 286.299 342.75 286.076C343.091 285.709 343.386 285.099 343.636 284.246C343.675 284.088 343.708 283.996 343.734 283.97C343.76 283.944 343.852 283.924 344.01 283.911H344.128C344.259 283.911 344.344 283.911 344.384 283.911C344.423 283.911 344.469 283.931 344.521 283.97C344.574 284.01 344.594 284.056 344.58 284.108C344.58 284.239 344.515 284.489 344.384 284.856C344.252 285.223 344.003 285.643 343.636 286.116C343.268 286.588 342.848 286.91 342.376 287.08C342.271 287.107 342.113 287.12 341.903 287.12C341.326 287.12 340.913 286.956 340.663 286.628C340.414 286.299 340.289 285.932 340.289 285.525C340.289 285.171 340.611 284.147 341.254 282.455C341.897 280.762 342.225 279.732 342.238 279.364C342.238 279.207 342.218 279.102 342.179 279.049C342.14 278.997 342.041 278.964 341.884 278.951C341.516 278.977 341.208 279.181 340.959 279.561C340.709 279.942 340.526 280.348 340.407 280.781C340.289 281.215 340.211 281.431 340.171 281.431C340.158 281.444 340.033 281.451 339.797 281.451H339.482C339.404 281.372 339.364 281.313 339.364 281.274Z" fill="#92D192"/>
<path d="M338.679 275.604L341.376 272.967L341.533 273.124C343.239 274.752 344.092 275.578 344.092 275.604L343.58 276.175C343.554 276.162 343.174 275.834 342.439 275.191L341.396 274.286L340.313 275.211C340.142 275.355 339.972 275.506 339.801 275.664C339.631 275.821 339.493 275.946 339.388 276.038L339.23 276.156C339.204 276.182 339.106 276.09 338.935 275.88L338.679 275.604Z" fill="#92D192"/>
<path d="M350.584 281.992C350.584 287.189 349.036 291.125 345.939 293.802H345.683C345.512 293.802 345.401 293.789 345.348 293.763C345.296 293.737 345.269 293.678 345.269 293.586C345.296 293.52 345.46 293.317 345.761 292.976C346.063 292.634 346.378 292.188 346.706 291.637C347.034 291.086 347.376 290.41 347.73 289.61C348.084 288.809 348.373 287.74 348.596 286.401C348.819 285.063 348.931 283.6 348.931 282.012C348.931 280.424 348.819 278.961 348.596 277.622C348.373 276.284 348.084 275.214 347.73 274.414C347.376 273.613 347.034 272.931 346.706 272.367C346.378 271.802 346.063 271.363 345.761 271.048C345.46 270.733 345.296 270.523 345.269 270.418C345.269 270.274 345.368 270.201 345.565 270.201H345.683H345.939C347.618 271.606 348.845 273.469 349.619 275.792C350.262 277.642 350.584 279.709 350.584 281.992Z" fill="#F0F0F0"/>
<path d="M360.164 280.092C360.164 279.922 360.256 279.791 360.44 279.699H372.978C373.175 279.804 373.273 279.935 373.273 280.092C373.273 280.237 373.182 280.361 372.998 280.466L366.738 280.486H360.479C360.269 280.42 360.164 280.289 360.164 280.092ZM360.164 283.911C360.164 283.714 360.269 283.583 360.479 283.517H372.998C373.182 283.649 373.273 283.78 373.273 283.911C373.273 284.082 373.175 284.213 372.978 284.305H360.44C360.256 284.213 360.164 284.082 360.164 283.911Z" fill="#F0F0F0"/>
<path d="M384.706 305.612V258.391H390.001V259.611H385.926V304.392H390.001V305.612H384.706Z" fill="#92D192"/>
<path d="M406.456 261.767L406.2 261.865C406.017 261.931 405.754 261.996 405.413 262.062C405.072 262.128 404.691 262.174 404.271 262.2H403.897V261.294H404.271C404.888 261.268 405.459 261.17 405.984 260.999C406.509 260.829 406.876 260.671 407.086 260.527C407.296 260.382 407.48 260.238 407.637 260.094C407.664 260.054 407.742 260.035 407.874 260.035C407.992 260.035 408.103 260.074 408.208 260.153V266.038L408.228 271.943C408.32 272.035 408.398 272.094 408.464 272.12C408.53 272.147 408.687 272.173 408.936 272.199C409.186 272.225 409.593 272.239 410.157 272.239H410.669V273.144H410.452C410.177 273.105 409.133 273.085 407.322 273.085C405.538 273.085 404.508 273.105 404.232 273.144H403.996V272.239H404.508C404.796 272.239 405.046 272.239 405.256 272.239C405.466 272.239 405.63 272.232 405.748 272.219C405.866 272.206 405.971 272.186 406.063 272.16C406.154 272.134 406.207 272.12 406.22 272.12C406.233 272.12 406.273 272.088 406.338 272.022C406.404 271.956 406.443 271.93 406.456 271.943V261.767Z" fill="#92D192"/>
<path d="M396.26 296.036C396.26 296.036 396.26 295.951 396.26 295.78C396.26 295.61 396.352 295.478 396.536 295.386H407.972C408.169 295.491 408.267 295.623 408.267 295.78C408.267 295.938 408.169 296.069 407.972 296.174H396.536C396.352 296.082 396.26 295.951 396.26 295.78V296.036Z" fill="#92D192"/>
<path d="M412.066 292.257C411.712 292.257 411.43 292.139 411.22 291.903C411.01 291.666 410.905 291.378 410.905 291.036C410.905 290.105 411.253 289.298 411.948 288.615C412.644 287.933 413.51 287.592 414.546 287.592C415.74 287.592 416.738 287.959 417.538 288.694C418.339 289.429 418.746 290.38 418.759 291.548C418.759 292.112 418.627 292.651 418.365 293.162C418.103 293.674 417.788 294.12 417.42 294.501C417.053 294.881 416.528 295.367 415.845 295.957C415.373 296.364 414.717 296.968 413.877 297.768L412.716 298.871L414.212 298.89C416.272 298.89 417.368 298.857 417.499 298.792C417.591 298.766 417.748 298.182 417.971 297.04V296.981H418.759V297.04C418.746 297.079 418.66 297.676 418.503 298.831C418.345 299.986 418.247 300.59 418.207 300.642V300.701H410.905V300.327V300.091C410.905 299.999 410.944 299.901 411.023 299.796C411.102 299.691 411.299 299.461 411.613 299.107C411.994 298.687 412.322 298.319 412.598 298.004C412.716 297.873 412.939 297.631 413.267 297.276C413.595 296.922 413.818 296.679 413.936 296.548C414.054 296.417 414.245 296.2 414.507 295.898C414.769 295.597 414.953 295.373 415.058 295.229C415.163 295.085 415.314 294.888 415.511 294.639C415.708 294.389 415.845 294.179 415.924 294.009C416.003 293.838 416.101 293.648 416.219 293.438C416.338 293.228 416.423 293.018 416.475 292.808C416.528 292.598 416.574 292.401 416.613 292.217C416.652 292.034 416.672 291.817 416.672 291.568C416.672 290.741 416.449 290.026 416.003 289.422C415.557 288.819 414.92 288.517 414.094 288.517C413.661 288.517 413.28 288.628 412.952 288.852C412.624 289.075 412.394 289.291 412.263 289.501C412.132 289.711 412.066 289.836 412.066 289.875C412.066 289.888 412.099 289.895 412.165 289.895C412.401 289.895 412.644 289.987 412.893 290.17C413.142 290.354 413.267 290.656 413.267 291.076C413.267 291.404 413.162 291.679 412.952 291.903C412.742 292.126 412.447 292.244 412.066 292.257Z" fill="#92D192"/>
<path d="M424.349 259.611V258.391H429.644V305.612H424.349V304.392H428.423V259.611H424.349Z" fill="#92D192"/>
</g>
<path d="M543.466 152.827H433.798V206.194H543.466V152.827Z" fill="black"/>
<g clip-path="url(#clip6_1592_11037)">
<path d="M441.653 172.819C441.207 172.819 440.971 172.793 440.945 172.74C440.932 172.714 440.925 172.662 440.925 172.583C440.925 172.268 440.997 172.051 441.142 171.933C441.168 171.92 441.266 171.914 441.437 171.914C442.146 171.953 442.979 171.973 443.937 171.973C445.787 171.973 446.85 171.953 447.125 171.914H447.361C447.44 171.992 447.48 172.051 447.48 172.091C447.48 172.13 447.466 172.248 447.44 172.445C447.375 172.642 447.316 172.767 447.263 172.819H446.515C445.61 172.832 445.078 172.891 444.921 172.996C444.829 173.049 444.737 173.232 444.645 173.547C444.553 173.862 444.114 175.594 443.326 178.744C443.117 179.597 442.893 180.502 442.657 181.46C442.421 182.418 442.244 183.139 442.126 183.625L441.949 184.334C441.949 184.386 442.008 184.412 442.126 184.412C442.244 184.412 442.631 184.425 443.287 184.452H443.622C444.042 184.452 444.376 184.445 444.626 184.432C444.875 184.419 445.196 184.373 445.59 184.294C445.984 184.215 446.312 184.097 446.574 183.94C446.837 183.782 447.125 183.559 447.44 183.271C447.755 182.982 448.031 182.621 448.267 182.188C448.477 181.794 448.674 181.355 448.857 180.869C449.041 180.384 449.153 180.108 449.192 180.043C449.258 180.003 449.369 179.984 449.527 179.984H449.782C449.861 180.102 449.901 180.174 449.901 180.2C449.901 180.226 449.769 180.613 449.507 181.361C449.244 182.109 448.956 182.897 448.641 183.723C448.326 184.55 448.155 185.036 448.129 185.18C448.103 185.246 448.077 185.285 448.05 185.298C448.024 185.311 447.919 185.331 447.735 185.357C447.552 185.383 447.27 185.39 446.889 185.377C446.745 185.377 446.246 185.377 445.393 185.377C444.54 185.377 443.727 185.37 442.953 185.357H439.449C438.347 185.357 437.796 185.291 437.796 185.16C437.796 185.068 437.809 184.977 437.835 184.885C437.901 184.635 437.966 184.498 438.032 184.471C438.084 184.458 438.183 184.452 438.327 184.452H438.445C438.799 184.452 439.193 184.432 439.626 184.393C439.81 184.353 439.934 184.275 440 184.156C440.039 184.104 440.512 182.28 441.417 178.685C442.323 175.089 442.775 173.193 442.775 172.996C442.775 172.904 442.401 172.845 441.653 172.819Z" fill="#F0F0F0"/>
<path d="M456.843 180.427C456.843 175.243 458.391 171.313 461.488 168.637H462.039C462.118 168.715 462.157 168.774 462.157 168.814C462.157 168.866 462.032 169.03 461.783 169.306C461.534 169.581 461.232 169.995 460.878 170.546C460.523 171.097 460.163 171.779 459.795 172.593C459.428 173.406 459.119 174.502 458.87 175.88C458.621 177.258 458.496 178.78 458.496 180.446C458.496 182.1 458.621 183.615 458.87 184.993C459.119 186.371 459.421 187.46 459.775 188.26C460.13 189.061 460.491 189.743 460.858 190.307C461.225 190.872 461.534 191.292 461.783 191.567C462.032 191.843 462.157 192.007 462.157 192.059C462.157 192.099 462.118 192.158 462.039 192.236H461.488C461.107 191.921 460.74 191.574 460.386 191.193C460.031 190.813 459.631 190.268 459.185 189.559C458.739 188.851 458.352 188.09 458.024 187.276C457.696 186.463 457.42 185.459 457.197 184.265C456.974 183.071 456.856 181.791 456.843 180.427Z" fill="#F0F0F0"/>
<path d="M464.342 179.767C464.342 179.767 464.342 179.748 464.342 179.708C464.342 179.669 464.381 179.551 464.46 179.354C464.539 179.157 464.67 178.908 464.854 178.606C465.037 178.304 465.247 178.002 465.483 177.701C465.72 177.399 466.028 177.156 466.409 176.972C466.789 176.789 467.183 176.684 467.59 176.657C468.023 176.684 468.416 176.828 468.771 177.09C469.125 177.353 469.302 177.812 469.302 178.468V178.823L468.337 182.72C468.193 183.271 468.029 183.907 467.845 184.629C467.662 185.351 467.53 185.889 467.452 186.243C467.373 186.597 467.321 186.781 467.294 186.794C467.071 187.45 466.658 188.041 466.054 188.566C465.451 189.09 464.742 189.359 463.929 189.373C463.325 189.373 462.872 189.222 462.57 188.92C462.347 188.697 462.236 188.428 462.236 188.113C462.236 187.745 462.354 187.457 462.59 187.247C462.826 187.037 463.095 186.925 463.397 186.912C463.673 186.912 463.869 186.991 463.988 187.148C464.106 187.306 464.171 187.457 464.184 187.601C464.184 188.021 464.001 188.362 463.633 188.625L463.732 188.644H464.027H464.047C464.729 188.644 465.287 188.034 465.72 186.814C465.759 186.696 466.107 185.331 466.763 182.72C467.419 180.108 467.767 178.711 467.806 178.527C467.819 178.449 467.826 178.298 467.826 178.075C467.826 177.917 467.819 177.799 467.806 177.72C467.793 177.642 467.754 177.569 467.688 177.504C467.622 177.438 467.524 177.399 467.393 177.386C467.052 177.386 466.691 177.563 466.31 177.917C466.074 178.153 465.877 178.422 465.72 178.724C465.562 179.026 465.438 179.282 465.346 179.492C465.254 179.702 465.195 179.82 465.169 179.846C465.142 179.872 465.018 179.885 464.795 179.885H464.46C464.381 179.807 464.342 179.748 464.342 179.708V179.767Z" fill="#F2777A"/>
<path d="M463.417 174.02L466.113 171.383L466.271 171.54C467.977 173.167 468.83 173.994 468.83 174.02L468.318 174.591C468.292 174.578 467.911 174.25 467.176 173.607L466.133 172.701L465.05 173.626C464.88 173.771 464.709 173.922 464.539 174.079C464.368 174.237 464.23 174.361 464.125 174.453L463.968 174.571C463.942 174.597 463.843 174.506 463.673 174.296L463.417 174.02Z" fill="#F2777A"/>
<path d="M475.404 180.427C475.404 185.623 473.855 189.559 470.758 192.236H470.503C470.332 192.236 470.22 192.223 470.168 192.197C470.116 192.171 470.089 192.112 470.089 192.02C470.116 191.954 470.28 191.751 470.581 191.41C470.883 191.068 471.198 190.622 471.526 190.071C471.854 189.52 472.195 188.844 472.55 188.044C472.904 187.243 473.193 186.174 473.416 184.836C473.639 183.497 473.75 182.034 473.75 180.446C473.75 178.859 473.639 177.395 473.416 176.057C473.193 174.719 472.904 173.649 472.55 172.849C472.195 172.048 471.854 171.366 471.526 170.802C471.198 170.237 470.883 169.798 470.581 169.483C470.28 169.168 470.116 168.958 470.089 168.853C470.089 168.709 470.188 168.637 470.385 168.637H470.503H470.758C472.438 170.041 473.665 171.904 474.439 174.227C475.082 176.077 475.404 178.143 475.404 180.427Z" fill="#F0F0F0"/>
<path d="M484.983 178.527C484.983 178.357 485.075 178.225 485.259 178.133H497.797C497.994 178.238 498.092 178.37 498.092 178.527C498.092 178.671 498 178.796 497.816 178.901L491.557 178.921H485.298C485.088 178.855 484.983 178.724 484.983 178.527ZM484.983 182.346C484.983 182.149 485.088 182.018 485.298 181.952H497.816C498 182.083 498.092 182.214 498.092 182.346C498.092 182.516 497.994 182.647 497.797 182.739H485.259C485.075 182.647 484.983 182.516 484.983 182.346Z" fill="#F0F0F0"/>
<path d="M509.524 204.046V156.827H514.819V158.047H510.744V202.826H514.819V204.046H509.524Z" fill="#F2777A"/>
<path d="M521.924 162.466C521.57 162.466 521.294 162.354 521.097 162.131C520.901 161.908 520.796 161.619 520.782 161.265C520.782 160.543 521.097 159.9 521.727 159.336C522.357 158.772 523.118 158.49 524.01 158.49C524.47 158.49 524.758 158.496 524.876 158.509C525.847 158.667 526.589 159.014 527.101 159.552C527.612 160.09 527.875 160.674 527.888 161.304C527.888 161.987 527.665 162.649 527.219 163.292C526.773 163.935 526.156 164.401 525.369 164.69L525.309 164.729C525.309 164.742 525.369 164.762 525.487 164.788C525.605 164.814 525.795 164.873 526.057 164.965C526.32 165.057 526.569 165.195 526.805 165.379C527.881 166.074 528.419 166.993 528.419 168.134C528.419 169.171 528.013 170.076 527.199 170.85C526.385 171.625 525.355 172.012 524.109 172.012C523.059 172.012 522.154 171.73 521.393 171.165C520.632 170.601 520.251 169.886 520.251 169.02C520.251 168.653 520.369 168.357 520.605 168.134C520.841 167.911 521.137 167.793 521.491 167.78C521.858 167.78 522.16 167.898 522.396 168.134C522.633 168.37 522.751 168.666 522.751 169.02C522.751 169.164 522.731 169.295 522.692 169.414C522.652 169.532 522.606 169.637 522.554 169.729C522.501 169.82 522.429 169.899 522.337 169.965C522.246 170.03 522.167 170.083 522.101 170.122C522.036 170.162 521.97 170.188 521.904 170.201C521.839 170.214 521.786 170.234 521.747 170.26L521.668 170.28C522.337 170.87 523.151 171.165 524.109 171.165C524.831 171.165 525.375 170.818 525.742 170.122C525.966 169.689 526.077 169.026 526.077 168.134V167.741C526.077 166.494 525.657 165.661 524.817 165.241C524.621 165.162 524.22 165.116 523.617 165.103L522.79 165.083L522.731 165.044C522.705 165.005 522.692 164.9 522.692 164.729C522.692 164.493 522.744 164.375 522.849 164.375C523.217 164.375 523.597 164.342 523.991 164.276C524.437 164.211 524.844 163.935 525.211 163.45C525.578 162.964 525.762 162.229 525.762 161.245V161.088C525.762 160.34 525.533 159.821 525.073 159.533C524.785 159.349 524.476 159.257 524.148 159.257C523.728 159.257 523.341 159.329 522.987 159.474C522.633 159.618 522.383 159.769 522.239 159.926C522.095 160.084 522.022 160.163 522.022 160.163H522.081C522.121 160.176 522.173 160.189 522.239 160.202C522.305 160.215 522.37 160.248 522.436 160.3C522.501 160.353 522.58 160.399 522.672 160.438C522.764 160.478 522.829 160.55 522.869 160.655C522.908 160.76 522.961 160.858 523.026 160.95C523.092 161.042 523.112 161.173 523.085 161.344C523.085 161.632 522.993 161.888 522.81 162.111C522.626 162.334 522.331 162.452 521.924 162.466Z" fill="#F2777A"/>
<path d="M521.314 187.62C522.049 186.558 523.053 186.026 524.325 186.026C524.955 186.026 525.585 186.197 526.215 186.538C526.845 186.879 527.356 187.483 527.75 188.349C528.236 189.438 528.478 190.934 528.478 192.836C528.478 194.87 528.196 196.425 527.632 197.501C527.37 198.052 527.009 198.492 526.549 198.82C526.09 199.148 525.69 199.351 525.349 199.43C525.008 199.509 524.673 199.555 524.345 199.568C524.004 199.568 523.663 199.529 523.322 199.45C522.98 199.371 522.58 199.161 522.121 198.82C521.662 198.479 521.301 198.039 521.038 197.501C520.474 196.425 520.192 194.87 520.192 192.836C520.192 190.553 520.566 188.814 521.314 187.62ZM525.743 187.384C525.349 186.964 524.883 186.754 524.345 186.754C523.794 186.754 523.322 186.964 522.928 187.384C522.6 187.725 522.383 188.198 522.278 188.801C522.173 189.405 522.121 190.665 522.121 192.58C522.121 194.654 522.173 196.018 522.278 196.674C522.383 197.331 522.619 197.849 522.987 198.229C523.354 198.623 523.807 198.82 524.345 198.82C524.87 198.82 525.316 198.623 525.683 198.229C526.064 197.836 526.3 197.285 526.392 196.576C526.484 195.867 526.536 194.536 526.549 192.58C526.549 190.678 526.497 189.425 526.392 188.821C526.287 188.217 526.071 187.738 525.743 187.384Z" fill="#F2777A"/>
<path d="M533.852 158.047V156.827H539.147V204.046H533.852V202.826H537.926V158.047H533.852Z" fill="#F2777A"/>
</g>
<path d="M626.394 39.4561H449.72V92.8245H626.394V39.4561Z" fill="black"/>
<g clip-path="url(#clip7_1592_11037)">
<path d="M457.576 59.4491C457.129 59.4491 456.893 59.4229 456.867 59.3704C456.854 59.3441 456.847 59.2916 456.847 59.2129C456.847 58.898 456.919 58.6815 457.064 58.5634C457.09 58.5502 457.188 58.5437 457.359 58.5437C458.068 58.583 458.901 58.6027 459.859 58.6027C461.709 58.6027 462.772 58.583 463.048 58.5437H463.284C463.362 58.6224 463.402 58.6815 463.402 58.7208C463.402 58.7602 463.389 58.8783 463.362 59.0751C463.297 59.272 463.238 59.3966 463.185 59.4491H462.437C461.532 59.4622 461 59.5213 460.843 59.6263C460.751 59.6787 460.659 59.8625 460.567 60.1774C460.476 60.4923 460.036 62.2245 459.249 65.3738C459.039 66.2268 458.816 67.1322 458.579 68.0901C458.343 69.048 458.166 69.7698 458.048 70.2553L457.871 70.9639C457.871 71.0164 457.93 71.0426 458.048 71.0426C458.166 71.0426 458.553 71.0557 459.209 71.082H459.544C459.964 71.082 460.298 71.0754 460.548 71.0623C460.797 71.0492 461.119 71.0033 461.512 70.9245C461.906 70.8458 462.234 70.7277 462.496 70.5702C462.759 70.4128 463.048 70.1897 463.362 69.901C463.677 69.6123 463.953 69.2514 464.189 68.8184C464.399 68.4247 464.596 67.9851 464.78 67.4996C464.963 67.0141 465.075 66.7385 465.114 66.6729C465.18 66.6335 465.291 66.6139 465.449 66.6139H465.705C465.784 66.732 465.823 66.8041 465.823 66.8304C465.823 66.8566 465.692 67.2437 465.429 67.9917C465.167 68.7397 464.878 69.527 464.563 70.3537C464.248 71.1804 464.078 71.6659 464.051 71.8103C464.025 71.8759 463.999 71.9153 463.973 71.9284C463.946 71.9415 463.841 71.9612 463.658 71.9874C463.474 72.0137 463.192 72.0202 462.811 72.0071C462.667 72.0071 462.168 72.0071 461.315 72.0071C460.462 72.0071 459.649 72.0005 458.875 71.9874H455.371C454.269 71.9874 453.718 71.9218 453.718 71.7906C453.718 71.6987 453.731 71.6069 453.757 71.515C453.823 71.2657 453.888 71.1279 453.954 71.1017C454.006 71.0886 454.105 71.082 454.249 71.082H454.367C454.721 71.082 455.115 71.0623 455.548 71.0229C455.732 70.9836 455.857 70.9048 455.922 70.7867C455.962 70.7343 456.434 68.9103 457.339 65.3148C458.245 61.7193 458.698 59.8231 458.698 59.6263C458.698 59.5344 458.324 59.4753 457.576 59.4491Z" fill="#F0F0F0"/>
<path d="M472.765 67.0567C472.765 61.8734 474.314 57.9432 477.411 55.2663H477.962C478.04 55.345 478.08 55.4041 478.08 55.4435C478.08 55.4959 477.955 55.66 477.706 55.9355C477.456 56.2111 477.155 56.6245 476.8 57.1756C476.446 57.7267 476.085 58.4091 475.718 59.2227C475.35 60.0362 475.042 61.132 474.793 62.5098C474.543 63.8876 474.419 65.4098 474.419 67.0763C474.419 68.7298 474.543 70.2454 474.793 71.6232C475.042 73.001 475.344 74.0902 475.698 74.8907C476.052 75.6911 476.413 76.3735 476.781 76.9377C477.148 77.502 477.456 77.9219 477.706 78.1975C477.955 78.473 478.08 78.6371 478.08 78.6895C478.08 78.7289 478.04 78.788 477.962 78.8667H477.411C477.03 78.5518 476.663 78.204 476.308 77.8235C475.954 77.4429 475.554 76.8984 475.108 76.1898C474.661 75.4812 474.274 74.7201 473.946 73.9065C473.618 73.0929 473.343 72.089 473.12 70.8949C472.896 69.7008 472.778 68.4214 472.765 67.0567Z" fill="#F0F0F0"/>
<path d="M486.681 63.2478C486.839 63.2871 487.456 63.3068 488.532 63.3068C489.49 63.3068 490.008 63.2871 490.087 63.2478H490.205V64.4681H488.827L486.839 68.9166C486.038 70.7274 485.579 71.7116 485.461 71.8691C485.356 72.0003 485.231 72.0659 485.087 72.0659C485.061 72.0659 485.015 72.0659 484.949 72.0659C484.884 72.0659 484.818 72.0594 484.752 72.0462H484.457C484.26 72.0462 484.103 71.9478 483.985 71.751C483.867 71.5541 483.585 70.9636 483.138 69.9795C482.942 69.5464 482.784 69.1921 482.666 68.9166L480.678 64.4681H479.3V63.2478H479.458C479.654 63.2871 480.383 63.3068 481.642 63.3068C483.047 63.3068 483.867 63.2871 484.103 63.2478H484.28V64.4681H483.335L484.378 66.7908C485.048 68.2998 485.402 69.0544 485.441 69.0544C485.441 69.0412 485.776 68.2867 486.445 66.7908C487.114 65.2948 487.462 64.5272 487.488 64.4878C487.488 64.4747 487.331 64.4681 487.016 64.4681H486.544V63.2478H486.681Z" fill="#FFF888"/>
<path d="M487.262 57.6775C487.262 57.5725 487.295 57.4807 487.36 57.4019C487.426 57.3232 487.525 57.2838 487.656 57.2838C487.748 57.2838 487.826 57.3166 487.892 57.3823C487.958 57.4347 488.023 57.5594 488.089 57.7562C488.22 58.2418 488.489 58.6157 488.896 58.8782C489.04 58.9701 489.112 59.0882 489.112 59.2325C489.112 59.3506 489.093 59.4293 489.053 59.4687C489.014 59.5081 488.922 59.5671 488.778 59.6458C488.213 59.9345 487.721 60.3479 487.301 60.8859C487.275 60.9121 487.242 60.9515 487.203 61.004C487.164 61.0565 487.131 61.0959 487.105 61.1221C487.078 61.1483 487.046 61.1615 487.006 61.1615C486.967 61.1615 486.921 61.168 486.868 61.1812C486.777 61.1812 486.691 61.1483 486.613 61.0827C486.534 61.0171 486.488 60.9187 486.475 60.7875C486.475 60.5382 486.783 60.1511 487.4 59.6262H484.034L480.668 59.6065C480.498 59.4884 480.412 59.3637 480.412 59.2325C480.412 59.1406 480.498 59.0094 480.668 58.8388H487.734C487.42 58.3402 487.262 57.9531 487.262 57.6775Z" fill="#FFF888"/>
<path d="M496.74 67.0567C496.74 72.2531 495.191 76.1898 492.094 78.8667H491.838C491.668 78.8667 491.556 78.8536 491.504 78.8273C491.451 78.8011 491.425 78.742 491.425 78.6502C491.451 78.5846 491.615 78.3812 491.917 78.04C492.219 77.6988 492.534 77.2527 492.862 76.7015C493.19 76.1504 493.531 75.4746 493.886 74.6741C494.24 73.8737 494.529 72.8042 494.752 71.4657C494.975 70.1273 495.086 68.6641 495.086 67.0763C495.086 65.4886 494.975 64.0254 494.752 62.6869C494.529 61.3485 494.24 60.279 493.886 59.4786C493.531 58.6781 493.19 57.9957 492.862 57.4315C492.534 56.8672 492.219 56.4276 491.917 56.1127C491.615 55.7978 491.451 55.5878 491.425 55.4828C491.425 55.3385 491.524 55.2663 491.72 55.2663H491.838H492.094C493.774 56.6704 495.001 58.5338 495.775 60.8564C496.418 62.7066 496.74 64.7734 496.74 67.0567Z" fill="#F0F0F0"/>
<path d="M506.32 65.1574C506.32 64.9868 506.411 64.8556 506.595 64.7637H519.133C519.33 64.8687 519.429 64.9999 519.429 65.1574C519.429 65.3017 519.337 65.4264 519.153 65.5314L512.894 65.551H506.634C506.425 65.4854 506.32 65.3542 506.32 65.1574ZM506.32 68.976C506.32 68.7791 506.425 68.6479 506.634 68.5823H519.153C519.337 68.7135 519.429 68.8447 519.429 68.976C519.429 69.1466 519.33 69.2778 519.133 69.3696H506.595C506.411 69.2778 506.32 69.1466 506.32 68.976Z" fill="#F0F0F0"/>
<path d="M530.861 90.6768V43.4563H536.156V44.6767H532.081V89.4564H536.156V90.6768H530.861Z" fill="#F0F0F0"/>
<path d="M548.241 46.832L547.985 46.9304C547.802 46.996 547.539 47.0616 547.198 47.1272C546.857 47.1928 546.476 47.2388 546.056 47.265H545.682V46.3596H546.056C546.673 46.3333 547.244 46.2349 547.769 46.0643C548.294 45.8937 548.661 45.7363 548.871 45.5919C549.081 45.4476 549.265 45.3032 549.422 45.1589C549.448 45.1195 549.527 45.0998 549.658 45.0998C549.777 45.0998 549.888 45.1392 549.993 45.2179V51.1033L550.013 57.0083C550.105 57.1002 550.183 57.1592 550.249 57.1854C550.315 57.2117 550.472 57.2379 550.721 57.2642C550.971 57.2904 551.377 57.3035 551.942 57.3035H552.453V58.209H552.237C551.961 58.1696 550.918 58.1499 549.107 58.1499C547.323 58.1499 546.293 58.1696 546.017 58.209H545.781V57.3035H546.293C546.581 57.3035 546.831 57.3035 547.041 57.3035C547.25 57.3035 547.415 57.297 547.533 57.2839C547.651 57.2707 547.756 57.2511 547.848 57.2248C547.939 57.1986 547.992 57.1854 548.005 57.1854C548.018 57.1854 548.058 57.1526 548.123 57.087C548.189 57.0214 548.228 56.9952 548.241 57.0083V46.832Z" fill="#F0F0F0"/>
<path d="M554.914 52.5208C555.006 51.9696 555.36 51.3332 555.977 50.6115C556.594 49.8897 557.355 49.5223 558.26 49.5092C558.719 49.5092 559.139 49.6273 559.52 49.8635C559.9 50.0997 560.182 50.395 560.366 50.7493C560.917 49.9226 561.58 49.5092 562.354 49.5092C562.84 49.5092 563.26 49.6535 563.614 49.9422C563.968 50.2309 564.152 50.618 564.165 51.1036C564.165 51.4841 564.073 51.7925 563.89 52.0287C563.706 52.2649 563.529 52.4092 563.358 52.4617C563.187 52.5142 563.037 52.5404 562.905 52.5404C562.656 52.5404 562.453 52.4683 562.295 52.3239C562.138 52.1796 562.059 51.9893 562.059 51.7531C562.059 51.1495 562.387 50.7361 563.043 50.5131C562.899 50.3425 562.636 50.2572 562.256 50.2572C562.085 50.2572 561.961 50.2703 561.882 50.2965C561.383 50.5065 561.016 50.9395 560.78 51.5956C559.992 54.4957 559.599 56.1884 559.599 56.674C559.599 57.0414 559.704 57.3038 559.913 57.4613C560.123 57.6188 560.353 57.6975 560.602 57.6975C561.088 57.6975 561.567 57.481 562.039 57.0479C562.512 56.6149 562.833 56.0835 563.004 55.4536C563.043 55.3224 563.083 55.2502 563.122 55.2371C563.161 55.2239 563.266 55.2108 563.437 55.1977H563.516C563.712 55.1977 563.811 55.2502 563.811 55.3552C563.811 55.3683 563.798 55.4405 563.771 55.5717C563.561 56.3197 563.155 56.9823 562.551 57.5597C561.947 58.1371 561.245 58.4258 560.445 58.4258C559.526 58.4258 558.831 58.0124 558.358 57.1857C557.82 57.9993 557.204 58.4061 556.508 58.4061H556.39C555.747 58.4061 555.288 58.2355 555.012 57.8943C554.737 57.5532 554.592 57.1923 554.579 56.8117C554.579 56.3918 554.704 56.0507 554.953 55.7882C555.203 55.5258 555.498 55.3945 555.839 55.3945C556.403 55.3945 556.685 55.6701 556.685 56.2212C556.685 56.4837 556.607 56.7133 556.449 56.9102C556.292 57.107 556.141 57.2382 555.996 57.3038C555.852 57.3694 555.767 57.4022 555.741 57.4022L555.682 57.4219C555.682 57.4351 555.721 57.4613 555.8 57.5007C555.878 57.54 555.983 57.586 556.115 57.6384C556.246 57.6909 556.37 57.7106 556.489 57.6975C556.961 57.6975 557.368 57.4022 557.709 56.8117C557.827 56.6018 557.978 56.1556 558.162 55.4733C558.345 54.7909 558.529 54.0823 558.713 53.3475C558.897 52.6126 559.001 52.1796 559.028 52.0484C559.093 51.6941 559.126 51.4382 559.126 51.2807C559.126 50.9133 559.028 50.6508 558.831 50.4934C558.634 50.3359 558.411 50.2572 558.162 50.2572C557.637 50.2572 557.145 50.4671 556.685 50.887C556.226 51.307 555.905 51.845 555.721 52.5011C555.695 52.6192 555.662 52.6848 555.623 52.6979C555.583 52.711 555.478 52.7242 555.308 52.7373H555.032C554.953 52.6585 554.914 52.5864 554.914 52.5208Z" fill="#F0F0F0"/>
<path d="M570.625 53.5442C570.625 53.5442 570.625 53.4589 570.625 53.2884C570.625 53.1178 570.717 52.9865 570.901 52.8947H576.786V49.9422L576.806 46.9897C576.937 46.8191 577.062 46.7338 577.18 46.7338C577.35 46.7338 577.482 46.8322 577.573 47.029V52.8947H583.439C583.636 52.9997 583.734 53.1309 583.734 53.2884C583.734 53.4458 583.636 53.577 583.439 53.682H577.573V59.5477C577.468 59.7314 577.35 59.8232 577.219 59.8232H577.18H577.14C576.983 59.8232 576.865 59.7314 576.786 59.5477V53.682H570.901C570.717 53.5902 570.625 53.4589 570.625 53.2884V53.5442Z" fill="#F0F0F0"/>
<path d="M591.71 49.0956C591.356 49.0956 591.08 48.9841 590.883 48.761C590.687 48.5379 590.582 48.2493 590.568 47.895C590.568 47.1732 590.883 46.5302 591.513 45.966C592.143 45.4017 592.904 45.1196 593.796 45.1196C594.256 45.1196 594.544 45.1262 594.663 45.1393C595.634 45.2967 596.375 45.6445 596.887 46.1825C597.399 46.7205 597.661 47.3045 597.674 47.9343C597.674 48.6167 597.451 49.2794 597.005 49.9223C596.559 50.5653 595.942 51.0312 595.155 51.3199L595.096 51.3592C595.096 51.3724 595.155 51.392 595.273 51.4183C595.391 51.4445 595.581 51.5036 595.844 51.5954C596.106 51.6873 596.355 51.8251 596.592 52.0088C597.668 52.7043 598.206 53.6228 598.206 54.7645C598.206 55.8011 597.799 56.7066 596.985 57.4808C596.172 58.255 595.142 58.6421 593.895 58.6421C592.845 58.6421 591.94 58.36 591.179 57.7957C590.418 57.2314 590.037 56.5163 590.037 55.6502C590.037 55.2828 590.155 54.9875 590.391 54.7645C590.627 54.5414 590.923 54.4233 591.277 54.4102C591.644 54.4102 591.946 54.5283 592.182 54.7645C592.419 55.0007 592.537 55.2959 592.537 55.6502C592.537 55.7946 592.517 55.9258 592.478 56.0439C592.438 56.162 592.392 56.267 592.34 56.3588C592.287 56.4507 592.215 56.5294 592.123 56.595C592.032 56.6606 591.953 56.7131 591.887 56.7525C591.822 56.7919 591.756 56.8181 591.69 56.8312C591.625 56.8443 591.572 56.864 591.533 56.8903L591.454 56.91C592.123 57.5005 592.937 57.7957 593.895 57.7957C594.617 57.7957 595.161 57.448 595.529 56.7525C595.752 56.3194 595.863 55.6568 595.863 54.7645V54.3708C595.863 53.1242 595.443 52.2909 594.604 51.871C594.407 51.7923 594.006 51.7463 593.403 51.7332L592.576 51.7135L592.517 51.6742C592.491 51.6348 592.478 51.5298 592.478 51.3592C592.478 51.123 592.53 51.0049 592.635 51.0049C593.003 51.0049 593.383 50.9721 593.777 50.9065C594.223 50.8409 594.63 50.5653 594.997 50.0798C595.365 49.5943 595.548 48.8594 595.548 47.8753V47.7178C595.548 46.9698 595.319 46.4515 594.859 46.1628C594.571 45.9791 594.262 45.8872 593.934 45.8872C593.514 45.8872 593.127 45.9594 592.773 46.1038C592.419 46.2481 592.169 46.399 592.025 46.5565C591.881 46.714 591.808 46.7927 591.808 46.7927H591.868C591.907 46.8058 591.959 46.8189 592.025 46.8321C592.091 46.8452 592.156 46.878 592.222 46.9305C592.287 46.983 592.366 47.0289 592.458 47.0683C592.55 47.1076 592.615 47.1798 592.655 47.2848C592.694 47.3897 592.747 47.4882 592.812 47.58C592.878 47.6719 592.898 47.8031 592.871 47.9737C592.871 48.2624 592.78 48.5183 592.596 48.7413C592.412 48.9644 592.117 49.0825 591.71 49.0956Z" fill="#F0F0F0"/>
<path d="M599.465 52.5599C599.465 52.3762 599.564 52.0613 599.761 51.6151C599.957 51.1689 600.272 50.7031 600.705 50.2176C601.138 49.7321 601.624 49.4959 602.162 49.509C602.7 49.509 603.133 49.6599 603.461 49.9617C603.789 50.2635 603.96 50.6834 603.973 51.2214C603.947 51.4708 603.927 51.6085 603.914 51.6348C603.914 51.6742 603.809 51.976 603.599 52.5402C603.389 53.1045 603.172 53.7409 602.949 54.4495C602.726 55.1581 602.621 55.7224 602.634 56.1423C602.634 56.7065 602.726 57.1002 602.91 57.3233C603.094 57.5464 603.369 57.6645 603.737 57.6776C604.038 57.6776 604.321 57.6054 604.583 57.4611C604.845 57.3167 605.049 57.1658 605.193 57.0084C605.338 56.8509 605.515 56.6344 605.725 56.3588C605.725 56.3457 605.757 56.2145 605.823 55.9651C605.889 55.7158 605.981 55.3287 606.099 54.8038C606.217 54.2789 606.341 53.7934 606.473 53.3472C606.971 51.3789 607.247 50.3488 607.299 50.257C607.47 49.9027 607.752 49.7255 608.146 49.7255C608.316 49.7255 608.454 49.7714 608.559 49.8633C608.664 49.9551 608.736 50.0339 608.776 50.0995C608.815 50.1651 608.828 50.2241 608.815 50.2766C608.815 50.4472 608.493 51.8251 607.85 54.4101C607.207 56.9952 606.84 58.4124 606.748 58.6618C606.381 59.7509 605.744 60.617 604.839 61.26C603.933 61.903 603.028 62.231 602.123 62.2441C601.532 62.2441 601.014 62.0998 600.568 61.8111C600.121 61.5224 599.898 61.0894 599.898 60.512C599.898 60.2233 599.944 59.9806 600.036 59.7837C600.128 59.5869 600.253 59.4425 600.41 59.3507C600.568 59.2588 600.699 59.1932 600.804 59.1538C600.909 59.1145 601.02 59.0948 601.138 59.0948C601.716 59.0948 602.004 59.3704 602.004 59.9215C602.004 60.1839 601.926 60.4136 601.768 60.6104C601.611 60.8073 601.46 60.9385 601.316 61.0041C601.171 61.0697 601.086 61.1025 601.06 61.1025L601.001 61.1222C601.027 61.1878 601.152 61.2665 601.375 61.3584C601.598 61.4502 601.821 61.4962 602.044 61.4962H602.201C602.424 61.4962 602.595 61.483 602.713 61.4568C603.146 61.3387 603.546 61.0894 603.914 60.7088C604.281 60.3283 604.563 59.9215 604.76 59.4885C604.957 59.0554 605.108 58.688 605.213 58.3862C605.318 58.0844 605.37 57.8875 605.37 57.7957L605.252 57.8744C605.173 57.9269 605.049 57.9991 604.878 58.0909C604.708 58.1828 604.537 58.2615 604.366 58.3271C604.104 58.3928 603.848 58.4256 603.599 58.4256C602.995 58.4256 602.464 58.2812 602.004 57.9925C601.545 57.7038 601.243 57.238 601.099 56.595C601.086 56.5031 601.079 56.2998 601.079 55.9848C601.079 55.2369 601.309 54.2592 601.768 53.052C602.228 51.8447 602.457 51.0771 602.457 50.749C602.457 50.7359 602.457 50.7228 602.457 50.7097C602.457 50.5916 602.457 50.5128 602.457 50.4735C602.457 50.4341 602.431 50.3882 602.378 50.3357C602.326 50.2832 602.254 50.257 602.162 50.257H602.083C601.781 50.257 601.506 50.3816 601.256 50.6309C601.007 50.8803 600.81 51.1493 600.666 51.438C600.522 51.7266 600.41 52.0022 600.331 52.2647C600.253 52.5271 600.2 52.6714 600.174 52.6977C600.148 52.7239 600.043 52.7371 599.859 52.7371H599.583C599.505 52.6583 599.465 52.5993 599.465 52.5599Z" fill="#F0F0F0"/>
<path d="M538.045 81.1005C538.045 81.1005 538.045 81.0152 538.045 80.8446C538.045 80.674 538.137 80.5428 538.321 80.4509H549.757C549.954 80.5559 550.052 80.6871 550.052 80.8446C550.052 81.0021 549.954 81.1333 549.757 81.2383H538.321C538.137 81.1464 538.045 81.0152 538.045 80.8446V81.1005Z" fill="#F0F0F0"/>
<path d="M553.851 77.3214C553.497 77.3214 553.215 77.2033 553.005 76.9671C552.795 76.7309 552.69 76.4423 552.69 76.1011C552.69 75.1694 553.037 74.3624 553.733 73.68C554.428 72.9977 555.294 72.6565 556.331 72.6565C557.525 72.6565 558.523 73.0239 559.323 73.7588C560.123 74.4936 560.53 75.445 560.543 76.6128C560.543 77.1771 560.412 77.7151 560.15 78.2269C559.887 78.7387 559.572 79.1848 559.205 79.5654C558.837 79.9459 558.313 80.4314 557.63 81.0219C557.158 81.4287 556.502 82.0323 555.662 82.8328L554.501 83.9351L555.996 83.9548C558.057 83.9548 559.152 83.9219 559.284 83.8563C559.375 83.8301 559.533 83.2462 559.756 82.1045V82.0455H560.543V82.1045C560.53 82.1439 560.445 82.7409 560.287 83.8957C560.13 85.0505 560.032 85.6541 559.992 85.7066V85.7656H552.69V85.3916V85.1554C552.69 85.0636 552.729 84.9652 552.808 84.8602C552.887 84.7552 553.083 84.5256 553.398 84.1713C553.779 83.7514 554.107 83.3839 554.382 83.069C554.501 82.9378 554.724 82.695 555.052 82.3407C555.38 81.9864 555.603 81.7437 555.721 81.6124C555.839 81.4812 556.029 81.2647 556.292 80.9629C556.554 80.6611 556.738 80.438 556.843 80.2936C556.948 80.1493 557.099 79.9525 557.296 79.7031C557.492 79.4538 557.63 79.2439 557.709 79.0733C557.788 78.9027 557.886 78.7124 558.004 78.5025C558.122 78.2925 558.208 78.0825 558.26 77.8726C558.313 77.6626 558.359 77.4658 558.398 77.2821C558.437 77.0984 558.457 76.8819 558.457 76.6325C558.457 75.8058 558.234 75.0907 557.788 74.487C557.342 73.8834 556.705 73.5816 555.878 73.5816C555.445 73.5816 555.065 73.6931 554.737 73.9162C554.409 74.1393 554.179 74.3558 554.048 74.5658C553.917 74.7757 553.851 74.9004 553.851 74.9398C553.851 74.9529 553.884 74.9594 553.949 74.9594C554.186 74.9594 554.428 75.0513 554.678 75.235C554.927 75.4187 555.052 75.7205 555.052 76.1404C555.052 76.4685 554.947 76.7441 554.737 76.9671C554.527 77.1902 554.232 77.3083 553.851 77.3214Z" fill="#F0F0F0"/>
<path d="M562.571 80.0774C562.663 79.5263 563.017 78.8898 563.634 78.1681C564.25 77.4464 565.011 77.079 565.917 77.0658C566.376 77.0658 566.796 77.1839 567.177 77.4201C567.557 77.6563 567.839 77.9516 568.023 78.3059C568.574 77.4792 569.237 77.0658 570.011 77.0658C570.497 77.0658 570.917 77.2102 571.271 77.4989C571.625 77.7876 571.809 78.1747 571.822 78.6602C571.822 79.0407 571.73 79.3491 571.546 79.5853C571.363 79.8215 571.186 79.9659 571.015 80.0184C570.844 80.0708 570.693 80.0971 570.562 80.0971C570.313 80.0971 570.109 80.0249 569.952 79.8806C569.795 79.7362 569.716 79.546 569.716 79.3098C569.716 78.7061 570.044 78.2928 570.7 78.0697C570.556 77.8991 570.293 77.8138 569.913 77.8138C569.742 77.8138 569.617 77.8269 569.539 77.8532C569.04 78.0631 568.673 78.4962 568.436 79.1523C567.649 82.0523 567.255 83.7451 567.255 84.2306C567.255 84.598 567.36 84.8605 567.57 85.0179C567.78 85.1754 568.01 85.2541 568.259 85.2541C568.745 85.2541 569.224 85.0376 569.696 84.6046C570.169 84.1715 570.49 83.6401 570.661 83.0102C570.7 82.879 570.739 82.8068 570.779 82.7937C570.818 82.7806 570.923 82.7675 571.094 82.7543H571.172C571.369 82.7543 571.468 82.8068 571.468 82.9118C571.468 82.9249 571.455 82.9971 571.428 83.1283C571.218 83.8763 570.812 84.539 570.208 85.1164C569.604 85.6937 568.902 85.9824 568.102 85.9824C567.183 85.9824 566.488 85.5691 566.015 84.7424C565.477 85.5559 564.861 85.9627 564.165 85.9627H564.047C563.404 85.9627 562.945 85.7921 562.669 85.451C562.394 85.1098 562.249 84.7489 562.236 84.3684C562.236 83.9485 562.361 83.6073 562.61 83.3448C562.859 83.0824 563.155 82.9512 563.496 82.9512C564.06 82.9512 564.342 83.2267 564.342 83.7779C564.342 84.0403 564.264 84.27 564.106 84.4668C563.949 84.6636 563.798 84.7949 563.653 84.8605C563.509 84.9261 563.424 84.9589 563.397 84.9589L563.338 84.9786C563.338 84.9917 563.378 85.0179 563.457 85.0573C563.535 85.0967 563.64 85.1426 563.771 85.1951C563.903 85.2476 564.027 85.2673 564.145 85.2541C564.618 85.2541 565.025 84.9589 565.366 84.3684C565.484 84.1584 565.635 83.7123 565.819 83.0299C566.002 82.3476 566.186 81.639 566.37 80.9041C566.553 80.1693 566.658 79.7362 566.685 79.605C566.75 79.2507 566.783 78.9948 566.783 78.8373C566.783 78.4699 566.685 78.2075 566.488 78.05C566.291 77.8925 566.068 77.8138 565.819 77.8138C565.294 77.8138 564.802 78.0238 564.342 78.4437C563.883 78.8636 563.561 79.4016 563.378 80.0577C563.352 80.1758 563.319 80.2414 563.279 80.2546C563.24 80.2677 563.135 80.2808 562.964 80.2939H562.689C562.61 80.2152 562.571 80.143 562.571 80.0774Z" fill="#F0F0F0"/>
<path d="M578.282 81.1009C578.282 81.1009 578.282 81.0156 578.282 80.845C578.282 80.6744 578.374 80.5432 578.558 80.4513H584.443V77.4988L584.463 74.5463C584.594 74.3757 584.718 74.2904 584.837 74.2904C585.007 74.2904 585.138 74.3888 585.23 74.5857V80.4513H591.096C591.293 80.5563 591.391 80.6875 591.391 80.845C591.391 81.0025 591.293 81.1337 591.096 81.2387H585.23V87.1043C585.125 87.288 585.007 87.3799 584.876 87.3799H584.837H584.797C584.64 87.3799 584.522 87.288 584.443 87.1043V81.2387H578.558C578.374 81.1468 578.282 81.0156 578.282 80.845V81.1009Z" fill="#F0F0F0"/>
<path d="M598.757 74.2509C599.492 73.188 600.495 72.6566 601.768 72.6566C602.398 72.6566 603.028 72.8271 603.658 73.1683C604.288 73.5095 604.799 74.1131 605.193 74.9792C605.679 76.0683 605.921 77.5643 605.921 79.467C605.921 81.501 605.639 83.0559 605.075 84.132C604.813 84.6831 604.452 85.1227 603.992 85.4508C603.533 85.7788 603.133 85.9822 602.792 86.0609C602.451 86.1397 602.116 86.1856 601.788 86.1987C601.447 86.1987 601.106 86.1594 600.764 86.0806C600.423 86.0019 600.023 85.7919 599.564 85.4508C599.104 85.1096 598.744 84.67 598.481 84.132C597.917 83.0559 597.635 81.501 597.635 79.467C597.635 77.1837 598.009 75.445 598.757 74.2509ZM603.185 74.0147C602.792 73.5948 602.326 73.3848 601.788 73.3848C601.237 73.3848 600.764 73.5948 600.371 74.0147C600.043 74.3559 599.826 74.8283 599.721 75.4319C599.616 76.0355 599.564 77.2953 599.564 79.2111C599.564 81.2844 599.616 82.6492 599.721 83.3053C599.826 83.9614 600.062 84.4797 600.43 84.8603C600.797 85.2539 601.25 85.4508 601.788 85.4508C602.313 85.4508 602.759 85.2539 603.126 84.8603C603.507 84.4666 603.743 83.9155 603.835 83.2069C603.927 82.4983 603.979 81.1663 603.992 79.2111C603.992 77.3084 603.94 76.0552 603.835 75.4516C603.73 74.848 603.514 74.369 603.185 74.0147Z" fill="#F0F0F0"/>
<path d="M607.122 80.1166C607.122 79.9328 607.221 79.6179 607.417 79.1717C607.614 78.7256 607.929 78.2597 608.362 77.7742C608.795 77.2887 609.281 77.0525 609.819 77.0656C610.357 77.0656 610.79 77.2165 611.118 77.5183C611.446 77.8202 611.617 78.2401 611.63 78.7781C611.603 79.0274 611.584 79.1652 611.571 79.1914C611.571 79.2308 611.466 79.5326 611.256 80.0969C611.046 80.6611 610.829 81.2976 610.606 82.0062C610.383 82.7148 610.278 83.279 610.291 83.6989C610.291 84.2632 610.383 84.6569 610.567 84.8799C610.75 85.103 611.026 85.2211 611.393 85.2342C611.695 85.2342 611.977 85.1621 612.24 85.0177C612.502 84.8734 612.706 84.7225 612.85 84.565C612.994 84.4075 613.171 84.191 613.381 83.9154C613.381 83.9023 613.414 83.7711 613.48 83.5218C613.545 83.2725 613.637 82.8853 613.755 82.3605C613.874 81.8356 613.998 81.35 614.129 80.9039C614.628 78.9355 614.904 77.9054 614.956 77.8136C615.127 77.4593 615.409 77.2821 615.803 77.2821C615.973 77.2821 616.111 77.3281 616.216 77.4199C616.321 77.5118 616.393 77.5905 616.432 77.6561C616.472 77.7217 616.485 77.7808 616.472 77.8333C616.472 78.0039 616.15 79.3817 615.507 81.9668C614.864 84.5519 614.497 85.9691 614.405 86.2184C614.038 87.3076 613.401 88.1736 612.496 88.8166C611.59 89.4596 610.685 89.7877 609.779 89.8008C609.189 89.8008 608.671 89.6564 608.224 89.3677C607.778 89.0791 607.555 88.646 607.555 88.0686C607.555 87.78 607.601 87.5372 607.693 87.3404C607.785 87.1435 607.909 86.9992 608.067 86.9073C608.224 86.8155 608.356 86.7499 608.461 86.7105C608.566 86.6711 608.677 86.6514 608.795 86.6514C609.373 86.6514 609.661 86.927 609.661 87.4781C609.661 87.7406 609.583 87.9702 609.425 88.1671C609.268 88.3639 609.117 88.4951 608.972 88.5607C608.828 88.6263 608.743 88.6591 608.716 88.6591L608.657 88.6788C608.684 88.7444 608.808 88.8232 609.031 88.915C609.254 89.0069 609.478 89.0528 609.701 89.0528H609.858C610.081 89.0528 610.252 89.0397 610.37 89.0134C610.803 88.8953 611.203 88.646 611.571 88.2655C611.938 87.8849 612.22 87.4781 612.417 87.0451C612.614 86.6121 612.765 86.2446 612.87 85.9428C612.975 85.641 613.027 85.4442 613.027 85.3523L612.909 85.4311C612.83 85.4836 612.706 85.5557 612.535 85.6476C612.364 85.7394 612.194 85.8182 612.023 85.8838C611.761 85.9494 611.505 85.9822 611.256 85.9822C610.652 85.9822 610.121 85.8379 609.661 85.5492C609.202 85.2605 608.9 84.7946 608.756 84.1516C608.743 84.0598 608.736 83.8564 608.736 83.5415C608.736 82.7935 608.966 81.8159 609.425 80.6086C609.884 79.4014 610.114 78.6337 610.114 78.3057C610.114 78.2926 610.114 78.2794 610.114 78.2663C610.114 78.1482 610.114 78.0695 610.114 78.0301C610.114 77.9907 610.088 77.9448 610.035 77.8923C609.983 77.8398 609.911 77.8136 609.819 77.8136H609.74C609.438 77.8136 609.163 77.9383 608.913 78.1876C608.664 78.4369 608.467 78.7059 608.323 78.9946C608.178 79.2833 608.067 79.5589 607.988 79.8213C607.909 80.0837 607.857 80.2281 607.831 80.2543C607.804 80.2806 607.7 80.2937 607.516 80.2937H607.24C607.161 80.215 607.122 80.1559 607.122 80.1166Z" fill="#F0F0F0"/>
<path d="M616.57 44.6767V43.4563H621.865V90.6768H616.57V89.4564H620.645V44.6767H616.57Z" fill="#F0F0F0"/>
</g>
<path d="M463.566 115.804L480 116.5L468.58 128.338L468.858 120.957L463.566 115.804Z" fill="#F0F0F0"/>
<path d="M320 180.5L476.286 117.985" stroke="#F0F0F0" stroke-width="1.5"/>
</g>
<defs>
<clipPath id="clip0_1592_11037">
<rect width="640" height="360" fill="white" transform="translate(0 0.5)"/>
</clipPath>
<clipPath id="clip1_1592_11037">
<rect width="640" height="360" fill="white" transform="translate(0 0.5)"/>
</clipPath>
<clipPath id="clip2_1592_11037">
<rect width="2560" height="1440" fill="white" transform="translate(-960 -539.5)"/>
</clipPath>
<clipPath id="clip3_1592_11037">
<rect width="74.3763" height="47.241" fill="white" transform="translate(205.574 157.015)"/>
</clipPath>
<clipPath id="clip4_1592_11037">
<rect width="52.4871" height="47.241" fill="white" transform="translate(360.616 28.8169)"/>
</clipPath>
<clipPath id="clip5_1592_11037">
<rect width="122.339" height="47.241" fill="white" transform="translate(312.186 258.381)"/>
</clipPath>
<clipPath id="clip6_1592_11037">
<rect width="106.862" height="47.241" fill="white" transform="translate(437.166 156.816)"/>
</clipPath>
<clipPath id="clip7_1592_11037">
<rect width="173.661" height="47.241" fill="white" transform="translate(453.088 43.4458)"/>
</clipPath>
</defs>
</svg>
