<svg width="720" height="406" viewBox="0 0 720 406" fill="none" xmlns="http://www.w3.org/2000/svg">
<g clip-path="url(#clip0_1593_13013)">
<path d="M720 0.25H0V405.25H720V0.25Z" fill="black"/>
<g clip-path="url(#clip1_1593_13013)">
<path d="M0 7.32129H720" stroke="#303030" stroke-width="1.5"/>
<path d="M0 17.6069H720" stroke="#303030" stroke-width="1.5"/>
<path d="M0 27.8926H720" stroke="#303030" stroke-width="1.5"/>
<path d="M0 38.1782H720" stroke="#303030" stroke-width="1.5"/>
<path d="M0 58.75H720" stroke="#303030" stroke-width="1.5"/>
<path d="M0 69.0356H720" stroke="#303030" stroke-width="1.5"/>
<path d="M0 79.3213H720" stroke="#303030" stroke-width="1.5"/>
<path d="M0 89.6069H720" stroke="#303030" stroke-width="1.5"/>
<path d="M0 110.178H720" stroke="#303030" stroke-width="1.5"/>
<path d="M0 120.464H720" stroke="#303030" stroke-width="1.5"/>
<path d="M0 130.75H720" stroke="#303030" stroke-width="1.5"/>
<path d="M0 141.036H720" stroke="#303030" stroke-width="1.5"/>
<path d="M0 161.607H720" stroke="#303030" stroke-width="1.5"/>
<path d="M0 171.893H720" stroke="#303030" stroke-width="1.5"/>
<path d="M0 182.178H720" stroke="#303030" stroke-width="1.5"/>
<path d="M0 192.464H720" stroke="#303030" stroke-width="1.5"/>
<path d="M0 213.036H720" stroke="#303030" stroke-width="1.5"/>
<path d="M0 223.321H720" stroke="#303030" stroke-width="1.5"/>
<path d="M0 233.607H720" stroke="#303030" stroke-width="1.5"/>
<path d="M0 243.893H720" stroke="#303030" stroke-width="1.5"/>
<path d="M0 264.464H720" stroke="#303030" stroke-width="1.5"/>
<path d="M0 274.75H720" stroke="#303030" stroke-width="1.5"/>
<path d="M0 285.036H720" stroke="#303030" stroke-width="1.5"/>
<path d="M0 295.321H720" stroke="#303030" stroke-width="1.5"/>
<path d="M0 315.893H720" stroke="#303030" stroke-width="1.5"/>
<path d="M0 326.178H720" stroke="#303030" stroke-width="1.5"/>
<path d="M0 336.464H720" stroke="#303030" stroke-width="1.5"/>
<path d="M0 346.75H720" stroke="#303030" stroke-width="1.5"/>
<path d="M0 367.321H720" stroke="#303030" stroke-width="1.5"/>
<path d="M0 377.607H720" stroke="#303030" stroke-width="1.5"/>
<path d="M0 387.893H720" stroke="#303030" stroke-width="1.5"/>
<path d="M0 398.178H720" stroke="#303030" stroke-width="1.5"/>
<path d="M10.2857 0.25V405.25" stroke="#303030" stroke-width="1.5"/>
<path d="M20.5714 0.25V405.25" stroke="#303030" stroke-width="1.5"/>
<path d="M30.8571 0.25V405.25" stroke="#303030" stroke-width="1.5"/>
<path d="M41.1429 0.25V405.25" stroke="#303030" stroke-width="1.5"/>
<path d="M61.7143 0.25V405.25" stroke="#303030" stroke-width="1.5"/>
<path d="M72 0.25V405.25" stroke="#303030" stroke-width="1.5"/>
<path d="M82.2857 0.25V405.25" stroke="#303030" stroke-width="1.5"/>
<path d="M92.5714 0.25V405.25" stroke="#303030" stroke-width="1.5"/>
<path d="M113.143 0.25V405.25" stroke="#303030" stroke-width="1.5"/>
<path d="M123.429 0.25V405.25" stroke="#303030" stroke-width="1.5"/>
<path d="M133.714 0.25V405.25" stroke="#303030" stroke-width="1.5"/>
<path d="M144 0.25V405.25" stroke="#303030" stroke-width="1.5"/>
<path d="M164.571 0.25V405.25" stroke="#303030" stroke-width="1.5"/>
<path d="M174.857 0.25V405.25" stroke="#303030" stroke-width="1.5"/>
<path d="M185.143 0.25V405.25" stroke="#303030" stroke-width="1.5"/>
<path d="M195.429 0.25V405.25" stroke="#303030" stroke-width="1.5"/>
<path d="M216 0.25V405.25" stroke="#303030" stroke-width="1.5"/>
<path d="M226.286 0.25V405.25" stroke="#303030" stroke-width="1.5"/>
<path d="M236.571 0.25V405.25" stroke="#303030" stroke-width="1.5"/>
<path d="M246.857 0.25V405.25" stroke="#303030" stroke-width="1.5"/>
<path d="M267.429 0.25V405.25" stroke="#303030" stroke-width="1.5"/>
<path d="M277.714 0.25V405.25" stroke="#303030" stroke-width="1.5"/>
<path d="M288 0.25V405.25" stroke="#303030" stroke-width="1.5"/>
<path d="M298.286 0.25V405.25" stroke="#303030" stroke-width="1.5"/>
<path d="M318.857 0.25V405.25" stroke="#303030" stroke-width="1.5"/>
<path d="M329.143 0.25V405.25" stroke="#303030" stroke-width="1.5"/>
<path d="M339.429 0.25V405.25" stroke="#303030" stroke-width="1.5"/>
<path d="M349.714 0.25V405.25" stroke="#303030" stroke-width="1.5"/>
<path d="M370.286 0.25V405.25" stroke="#303030" stroke-width="1.5"/>
<path d="M380.571 0.25V405.25" stroke="#303030" stroke-width="1.5"/>
<path d="M390.857 0.25V405.25" stroke="#303030" stroke-width="1.5"/>
<path d="M401.143 0.25V405.25" stroke="#303030" stroke-width="1.5"/>
<path d="M421.714 0.25V405.25" stroke="#303030" stroke-width="1.5"/>
<path d="M432 0.25V405.25" stroke="#303030" stroke-width="1.5"/>
<path d="M442.286 0.25V405.25" stroke="#303030" stroke-width="1.5"/>
<path d="M452.571 0.25V405.25" stroke="#303030" stroke-width="1.5"/>
<path d="M473.143 0.25V405.25" stroke="#303030" stroke-width="1.5"/>
<path d="M483.429 0.25V405.25" stroke="#303030" stroke-width="1.5"/>
<path d="M493.714 0.25V405.25" stroke="#303030" stroke-width="1.5"/>
<path d="M504 0.25V405.25" stroke="#303030" stroke-width="1.5"/>
<path d="M524.571 0.25V405.25" stroke="#303030" stroke-width="1.5"/>
<path d="M534.857 0.25V405.25" stroke="#303030" stroke-width="1.5"/>
<path d="M545.143 0.25V405.25" stroke="#303030" stroke-width="1.5"/>
<path d="M555.429 0.25V405.25" stroke="#303030" stroke-width="1.5"/>
<path d="M576 0.25V405.25" stroke="#303030" stroke-width="1.5"/>
<path d="M586.286 0.25V405.25" stroke="#303030" stroke-width="1.5"/>
<path d="M596.571 0.25V405.25" stroke="#303030" stroke-width="1.5"/>
<path d="M606.857 0.25V405.25" stroke="#303030" stroke-width="1.5"/>
<path d="M627.429 0.25V405.25" stroke="#303030" stroke-width="1.5"/>
<path d="M637.714 0.25V405.25" stroke="#303030" stroke-width="1.5"/>
<path d="M648 0.25V405.25" stroke="#303030" stroke-width="1.5"/>
<path d="M658.286 0.25V405.25" stroke="#303030" stroke-width="1.5"/>
<path d="M678.857 0.25V405.25" stroke="#303030" stroke-width="1.5"/>
<path d="M689.143 0.25V405.25" stroke="#303030" stroke-width="1.5"/>
<path d="M699.429 0.25V405.25" stroke="#303030" stroke-width="1.5"/>
<path d="M709.714 0.25V405.25" stroke="#303030" stroke-width="1.5"/>
<path d="M0 48.4644H720" stroke="#404040" stroke-width="1.5"/>
<path d="M0 151.321H720" stroke="#404040" stroke-width="1.5"/>
<path d="M0 254.179H720" stroke="#404040" stroke-width="1.5"/>
<path d="M0 357.036H720" stroke="#404040" stroke-width="1.5"/>
<path d="M0 0.25V405.25" stroke="#404040" stroke-width="1.5"/>
<path d="M102.857 0.25V405.25" stroke="#404040" stroke-width="1.5"/>
<path d="M205.714 0.25V405.25" stroke="#404040" stroke-width="1.5"/>
<path d="M308.571 0.25V405.25" stroke="#404040" stroke-width="1.5"/>
<path d="M411.429 0.25V405.25" stroke="#404040" stroke-width="1.5"/>
<path d="M514.286 0.25V405.25" stroke="#404040" stroke-width="1.5"/>
<path d="M617.143 0.25V405.25" stroke="#404040" stroke-width="1.5"/>
<path d="M720 0.25V405.25" stroke="#404040" stroke-width="1.5"/>
<path d="M0 99.8931H720" stroke="#505050" stroke-width="1.5"/>
<path d="M0 202.75H720" stroke="#505050" stroke-width="1.5"/>
<path d="M0 305.607H720" stroke="#505050" stroke-width="1.5"/>
<path d="M51.4286 0.25V405.25" stroke="#505050" stroke-width="1.5"/>
<path d="M154.286 0.25V405.25" stroke="#505050" stroke-width="1.5"/>
<path d="M257.143 0.25V405.25" stroke="#505050" stroke-width="1.5"/>
<path d="M360 0.25V405.25" stroke="#505050" stroke-width="1.5"/>
<path d="M462.857 0.25V405.25" stroke="#505050" stroke-width="1.5"/>
<path d="M565.714 0.25V405.25" stroke="#505050" stroke-width="1.5"/>
<path d="M668.571 0.25V405.25" stroke="#505050" stroke-width="1.5"/>
</g>
<path d="M0 202.75H720" stroke="#808080" stroke-width="1.5"/>
<path d="M360 0.25V405.25" stroke="#808080" stroke-width="1.5"/>
<path d="M720 0.25H0V405.25H720V0.25Z" stroke="#404040" stroke-width="2"/>
<g clip-path="url(#clip2_1593_13013)">
<path d="M709.714 6559.32L3589.71 -4960.68" stroke="#6AB0F3" stroke-opacity="0.75" stroke-width="1.25927"/>
<path d="M648 6538.75L3528 -4981.25" stroke="#6AB0F3" stroke-opacity="0.75" stroke-width="1.25927"/>
<path d="M586.286 6518.18L3466.29 -5001.82" stroke="#6AB0F3" stroke-opacity="0.75" stroke-width="1.25927"/>
<path d="M524.571 6497.61L3404.57 -5022.39" stroke="#6AB0F3" stroke-opacity="0.75" stroke-width="1.25927"/>
<path d="M462.857 6477.04L3342.86 -5042.96" stroke="#6AB0F3" stroke-opacity="0.75" stroke-width="1.25927"/>
<path d="M401.143 6456.46L3281.14 -5063.54" stroke="#6AB0F3" stroke-opacity="0.75" stroke-width="1.25927"/>
<path d="M339.428 6435.89L3219.43 -5084.11" stroke="#6AB0F3" stroke-opacity="0.75" stroke-width="1.25927"/>
<path d="M277.714 6415.32L3157.71 -5104.68" stroke="#6AB0F3" stroke-opacity="0.75" stroke-width="1.25927"/>
<path d="M216 6394.75L3096 -5125.25" stroke="#6AB0F3" stroke-opacity="0.75" stroke-width="1.25927"/>
<path d="M154.286 6374.18L3034.29 -5145.82" stroke="#6AB0F3" stroke-opacity="0.75" stroke-width="1.25927"/>
<path d="M92.5715 6353.61L2972.57 -5166.39" stroke="#6AB0F3" stroke-opacity="0.75" stroke-width="1.25927"/>
<path d="M30.8573 6333.04L2910.86 -5186.97" stroke="#6AB0F3" stroke-opacity="0.75" stroke-width="1.25927"/>
<path d="M-30.8571 6312.46L2849.14 -5207.54" stroke="#6AB0F3" stroke-opacity="0.75" stroke-width="1.25927"/>
<path d="M-92.5714 6291.89L2787.43 -5228.11" stroke="#6AB0F3" stroke-opacity="0.75" stroke-width="1.25927"/>
<path d="M-154.286 6271.32L2725.71 -5248.68" stroke="#6AB0F3" stroke-opacity="0.75" stroke-width="1.25927"/>
<path d="M-216 6250.75L2664 -5269.25" stroke="#6AB0F3" stroke-opacity="0.75" stroke-width="1.25927"/>
<path d="M-277.715 6230.18L2602.29 -5289.82" stroke="#6AB0F3" stroke-opacity="0.75" stroke-width="1.25927"/>
<path d="M-339.428 6209.61L2540.57 -5310.39" stroke="#6AB0F3" stroke-opacity="0.75" stroke-width="1.25927"/>
<path d="M-401.143 6189.04L2478.86 -5330.97" stroke="#6AB0F3" stroke-opacity="0.75" stroke-width="1.25927"/>
<path d="M-462.857 6168.46L2417.14 -5351.54" stroke="#6AB0F3" stroke-opacity="0.75" stroke-width="1.25927"/>
<path d="M-524.571 6147.89L2355.43 -5372.11" stroke="#6AB0F3" stroke-opacity="0.75" stroke-width="1.25927"/>
<path d="M-586.286 6127.32L2293.71 -5392.68" stroke="#6AB0F3" stroke-opacity="0.75" stroke-width="1.25927"/>
<path d="M-648 6106.75L2232 -5413.25" stroke="#6AB0F3" stroke-opacity="0.75" stroke-width="1.25927"/>
<path d="M-709.714 6086.18L2170.29 -5433.82" stroke="#6AB0F3" stroke-opacity="0.75" stroke-width="1.25927"/>
<path d="M-771.429 6065.61L2108.57 -5454.39" stroke="#6AB0F3" stroke-opacity="0.75" stroke-width="1.25927"/>
<path d="M-833.143 6045.04L2046.86 -5474.96" stroke="#6AB0F3" stroke-opacity="0.75" stroke-width="1.25927"/>
<path d="M-894.857 6024.46L1985.14 -5495.54" stroke="#6AB0F3" stroke-opacity="0.75" stroke-width="1.25927"/>
<path d="M-956.572 6003.89L1923.43 -5516.11" stroke="#6AB0F3" stroke-opacity="0.75" stroke-width="1.25927"/>
<path d="M-1018.29 5983.32L1861.71 -5536.68" stroke="#6AB0F3" stroke-opacity="0.75" stroke-width="1.25927"/>
<path d="M-1080 5962.75L1800 -5557.25" stroke="#6AB0F3" stroke-opacity="0.75" stroke-width="1.25927"/>
<path d="M-1141.71 5942.18L1738.29 -5577.82" stroke="#6AB0F3" stroke-opacity="0.75" stroke-width="1.25927"/>
<path d="M-1203.43 5921.61L1676.57 -5598.39" stroke="#6AB0F3" stroke-opacity="0.75" stroke-width="1.25927"/>
<path d="M-1265.14 5901.04L1614.86 -5618.97" stroke="#6AB0F3" stroke-opacity="0.75" stroke-width="1.25927"/>
<path d="M-1326.86 5880.46L1553.14 -5639.54" stroke="#6AB0F3" stroke-opacity="0.75" stroke-width="1.25927"/>
<path d="M-1388.57 5859.89L1491.43 -5660.11" stroke="#6AB0F3" stroke-opacity="0.75" stroke-width="1.25927"/>
<path d="M-1450.29 5839.32L1429.71 -5680.68" stroke="#6AB0F3" stroke-opacity="0.75" stroke-width="1.25927"/>
<path d="M-1512 5818.75L1368 -5701.25" stroke="#6AB0F3" stroke-opacity="0.75" stroke-width="1.25927"/>
<path d="M-1573.71 5798.18L1306.29 -5721.82" stroke="#6AB0F3" stroke-opacity="0.75" stroke-width="1.25927"/>
<path d="M-1635.43 5777.61L1244.57 -5742.39" stroke="#6AB0F3" stroke-opacity="0.75" stroke-width="1.25927"/>
<path d="M-1697.14 5757.04L1182.86 -5762.97" stroke="#6AB0F3" stroke-opacity="0.75" stroke-width="1.25927"/>
<path d="M-1758.86 5736.46L1121.14 -5783.54" stroke="#6AB0F3" stroke-opacity="0.75" stroke-width="1.25927"/>
<path d="M-1820.57 5715.89L1059.43 -5804.11" stroke="#6AB0F3" stroke-opacity="0.75" stroke-width="1.25927"/>
<path d="M-1882.29 5695.32L997.715 -5824.68" stroke="#6AB0F3" stroke-opacity="0.75" stroke-width="1.25927"/>
<path d="M-1944 5674.75L936 -5845.25" stroke="#6AB0F3" stroke-opacity="0.75" stroke-width="1.25927"/>
<path d="M-2005.71 5654.18L874.286 -5865.82" stroke="#6AB0F3" stroke-opacity="0.75" stroke-width="1.25927"/>
<path d="M-2067.43 5633.61L812.571 -5886.39" stroke="#6AB0F3" stroke-opacity="0.75" stroke-width="1.25927"/>
<path d="M-2129.14 5613.04L750.857 -5906.97" stroke="#6AB0F3" stroke-opacity="0.75" stroke-width="1.25927"/>
<path d="M-2190.86 5592.46L689.143 -5927.54" stroke="#6AB0F3" stroke-opacity="0.75" stroke-width="1.25927"/>
<path d="M-2252.57 5571.89L627.429 -5948.11" stroke="#6AB0F3" stroke-opacity="0.75" stroke-width="1.25927"/>
<path d="M-2314.29 5551.32L565.714 -5968.68" stroke="#6AB0F3" stroke-opacity="0.75" stroke-width="1.25927"/>
<path d="M-2376 5530.75L504 -5989.25" stroke="#6AB0F3" stroke-opacity="0.75" stroke-width="1.25927"/>
<path d="M-2437.71 5510.18L442.286 -6009.82" stroke="#6AB0F3" stroke-opacity="0.75" stroke-width="1.25927"/>
<path d="M-2499.43 5489.61L380.572 -6030.39" stroke="#6AB0F3" stroke-opacity="0.75" stroke-width="1.25927"/>
<path d="M-2561.14 5469.04L318.857 -6050.97" stroke="#6AB0F3" stroke-opacity="0.75" stroke-width="1.25927"/>
<path d="M-2622.86 5448.46L257.143 -6071.54" stroke="#6AB0F3" stroke-opacity="0.75" stroke-width="1.25927"/>
<path d="M-2684.57 5427.89L195.429 -6092.11" stroke="#6AB0F3" stroke-opacity="0.75" stroke-width="1.25927"/>
<path d="M-2746.29 5407.32L133.714 -6112.68" stroke="#6AB0F3" stroke-opacity="0.75" stroke-width="1.25927"/>
<path d="M-2808 5386.75L71.9998 -6133.25" stroke="#6AB0F3" stroke-opacity="0.75" stroke-width="1.25927"/>
<path d="M-2869.71 5366.18L10.286 -6153.82" stroke="#6AB0F3" stroke-opacity="0.75" stroke-width="1.25927"/>
<path d="M4767.43 3633.04L-4952.57 393.036" stroke="#6AB0F3" stroke-opacity="0.75" stroke-width="1.25927"/>
<path d="M4777.71 3591.89L-4942.29 351.893" stroke="#6AB0F3" stroke-opacity="0.75" stroke-width="1.25927"/>
<path d="M4788 3550.75L-4932 310.75" stroke="#6AB0F3" stroke-opacity="0.75" stroke-width="1.25927"/>
<path d="M4798.29 3509.61L-4921.71 269.607" stroke="#6AB0F3" stroke-opacity="0.75" stroke-width="1.25927"/>
<path d="M4808.57 3468.46L-4911.43 228.464" stroke="#6AB0F3" stroke-opacity="0.75" stroke-width="1.25927"/>
<path d="M4818.86 3427.32L-4901.14 187.322" stroke="#6AB0F3" stroke-opacity="0.75" stroke-width="1.25927"/>
<path d="M4829.14 3386.18L-4890.86 146.179" stroke="#6AB0F3" stroke-opacity="0.75" stroke-width="1.25927"/>
<path d="M4839.43 3345.04L-4880.57 105.036" stroke="#6AB0F3" stroke-opacity="0.75" stroke-width="1.25927"/>
<path d="M4849.71 3303.89L-4870.29 63.8927" stroke="#6AB0F3" stroke-opacity="0.75" stroke-width="1.25927"/>
<path d="M4860 3262.75L-4860 22.7501" stroke="#6AB0F3" stroke-opacity="0.75" stroke-width="1.25927"/>
<path d="M4870.29 3221.61L-4849.71 -18.3928" stroke="#6AB0F3" stroke-opacity="0.75" stroke-width="1.25927"/>
<path d="M4880.57 3180.46L-4839.43 -59.5357" stroke="#6AB0F3" stroke-opacity="0.75" stroke-width="1.25927"/>
<path d="M4890.86 3139.32L-4829.14 -100.679" stroke="#6AB0F3" stroke-opacity="0.75" stroke-width="1.25927"/>
<path d="M4901.14 3098.18L-4818.86 -141.822" stroke="#6AB0F3" stroke-opacity="0.75" stroke-width="1.25927"/>
<path d="M4911.43 3057.04L-4808.57 -182.965" stroke="#6AB0F3" stroke-opacity="0.75" stroke-width="1.25927"/>
<path d="M4921.71 3015.89L-4798.29 -224.108" stroke="#6AB0F3" stroke-opacity="0.75" stroke-width="1.25927"/>
<path d="M4932 2974.75L-4788 -265.25" stroke="#6AB0F3" stroke-opacity="0.75" stroke-width="1.25927"/>
<path d="M4942.29 2933.61L-4777.71 -306.393" stroke="#6AB0F3" stroke-opacity="0.75" stroke-width="1.25927"/>
<path d="M4952.57 2892.46L-4767.43 -347.536" stroke="#6AB0F3" stroke-opacity="0.75" stroke-width="1.25927"/>
<path d="M4962.86 2851.32L-4757.14 -388.679" stroke="#6AB0F3" stroke-opacity="0.75" stroke-width="1.25927"/>
<path d="M4973.14 2810.18L-4746.86 -429.821" stroke="#6AB0F3" stroke-opacity="0.75" stroke-width="1.25927"/>
<path d="M4983.43 2769.04L-4736.57 -470.964" stroke="#6AB0F3" stroke-opacity="0.75" stroke-width="1.25927"/>
<path d="M4993.71 2727.89L-4726.29 -512.107" stroke="#6AB0F3" stroke-opacity="0.75" stroke-width="1.25927"/>
<path d="M5004 2686.75L-4716 -553.25" stroke="#6AB0F3" stroke-opacity="0.75" stroke-width="1.25927"/>
<path d="M5014.29 2645.61L-4705.71 -594.393" stroke="#6AB0F3" stroke-opacity="0.75" stroke-width="1.25927"/>
<path d="M5024.57 2604.46L-4695.43 -635.536" stroke="#6AB0F3" stroke-opacity="0.75" stroke-width="1.25927"/>
<path d="M5034.86 2563.32L-4685.14 -676.679" stroke="#6AB0F3" stroke-opacity="0.75" stroke-width="1.25927"/>
<path d="M5045.14 2522.18L-4674.86 -717.821" stroke="#6AB0F3" stroke-opacity="0.75" stroke-width="1.25927"/>
<path d="M5055.43 2481.04L-4664.57 -758.964" stroke="#6AB0F3" stroke-opacity="0.75" stroke-width="1.25927"/>
<path d="M5065.71 2439.89L-4654.29 -800.107" stroke="#6AB0F3" stroke-opacity="0.75" stroke-width="1.25927"/>
<path d="M5076 2398.75L-4644 -841.25" stroke="#6AB0F3" stroke-opacity="0.75" stroke-width="1.25927"/>
<path d="M5086.29 2357.61L-4633.71 -882.393" stroke="#6AB0F3" stroke-opacity="0.75" stroke-width="1.25927"/>
<path d="M5096.57 2316.46L-4623.43 -923.536" stroke="#6AB0F3" stroke-opacity="0.75" stroke-width="1.25927"/>
<path d="M5106.86 2275.32L-4613.14 -964.679" stroke="#6AB0F3" stroke-opacity="0.75" stroke-width="1.25927"/>
<path d="M5117.14 2234.18L-4602.86 -1005.82" stroke="#6AB0F3" stroke-opacity="0.75" stroke-width="1.25927"/>
<path d="M5127.43 2193.04L-4592.57 -1046.96" stroke="#6AB0F3" stroke-opacity="0.75" stroke-width="1.25927"/>
<path d="M5137.71 2151.89L-4582.29 -1088.11" stroke="#6AB0F3" stroke-opacity="0.75" stroke-width="1.25927"/>
<path d="M5148 2110.75L-4572 -1129.25" stroke="#6AB0F3" stroke-opacity="0.75" stroke-width="1.25927"/>
<path d="M5158.29 2069.61L-4561.71 -1170.39" stroke="#6AB0F3" stroke-opacity="0.75" stroke-width="1.25927"/>
<path d="M5168.57 2028.46L-4551.43 -1211.54" stroke="#6AB0F3" stroke-opacity="0.75" stroke-width="1.25927"/>
<path d="M5178.86 1987.32L-4541.14 -1252.68" stroke="#6AB0F3" stroke-opacity="0.75" stroke-width="1.25927"/>
<path d="M5189.14 1946.18L-4530.86 -1293.82" stroke="#6AB0F3" stroke-opacity="0.75" stroke-width="1.25927"/>
<path d="M5199.43 1905.04L-4520.57 -1334.96" stroke="#6AB0F3" stroke-opacity="0.75" stroke-width="1.25927"/>
<path d="M5209.71 1863.89L-4510.29 -1376.11" stroke="#6AB0F3" stroke-opacity="0.75" stroke-width="1.25927"/>
<path d="M5220 1822.75L-4500 -1417.25" stroke="#6AB0F3" stroke-opacity="0.75" stroke-width="1.25927"/>
<path d="M5230.29 1781.61L-4489.71 -1458.39" stroke="#6AB0F3" stroke-opacity="0.75" stroke-width="1.25927"/>
<path d="M5240.57 1740.46L-4479.43 -1499.54" stroke="#6AB0F3" stroke-opacity="0.75" stroke-width="1.25927"/>
<path d="M5250.86 1699.32L-4469.14 -1540.68" stroke="#6AB0F3" stroke-opacity="0.75" stroke-width="1.25927"/>
<path d="M5261.14 1658.18L-4458.86 -1581.82" stroke="#6AB0F3" stroke-opacity="0.75" stroke-width="1.25927"/>
<path d="M5271.43 1617.04L-4448.57 -1622.96" stroke="#6AB0F3" stroke-opacity="0.75" stroke-width="1.25927"/>
<path d="M5281.71 1575.89L-4438.29 -1664.11" stroke="#6AB0F3" stroke-opacity="0.75" stroke-width="1.25927"/>
<path d="M5292 1534.75L-4428 -1705.25" stroke="#6AB0F3" stroke-opacity="0.75" stroke-width="1.25927"/>
<path d="M5302.29 1493.61L-4417.71 -1746.39" stroke="#6AB0F3" stroke-opacity="0.75" stroke-width="1.25927"/>
<path d="M5312.57 1452.46L-4407.43 -1787.54" stroke="#6AB0F3" stroke-opacity="0.75" stroke-width="1.25927"/>
<path d="M5322.86 1411.32L-4397.14 -1828.68" stroke="#6AB0F3" stroke-opacity="0.75" stroke-width="1.25927"/>
<path d="M5333.14 1370.18L-4386.86 -1869.82" stroke="#6AB0F3" stroke-opacity="0.75" stroke-width="1.25927"/>
<path d="M5343.43 1329.04L-4376.57 -1910.96" stroke="#6AB0F3" stroke-opacity="0.75" stroke-width="1.25927"/>
<path d="M5353.71 1287.89L-4366.29 -1952.11" stroke="#6AB0F3" stroke-opacity="0.75" stroke-width="1.25927"/>
<path d="M5364 1246.75L-4356 -1993.25" stroke="#6AB0F3" stroke-opacity="0.75" stroke-width="1.25927"/>
<path d="M5374.29 1205.61L-4345.71 -2034.39" stroke="#6AB0F3" stroke-opacity="0.75" stroke-width="1.25927"/>
<path d="M5384.57 1164.46L-4335.43 -2075.54" stroke="#6AB0F3" stroke-opacity="0.75" stroke-width="1.25927"/>
<path d="M5394.86 1123.32L-4325.14 -2116.68" stroke="#6AB0F3" stroke-opacity="0.75" stroke-width="1.25927"/>
<path d="M5405.14 1082.18L-4314.86 -2157.82" stroke="#6AB0F3" stroke-opacity="0.75" stroke-width="1.25927"/>
<path d="M5415.43 1041.04L-4304.57 -2198.96" stroke="#6AB0F3" stroke-opacity="0.75" stroke-width="1.25927"/>
<path d="M5425.71 999.893L-4294.29 -2240.11" stroke="#6AB0F3" stroke-opacity="0.75" stroke-width="1.25927"/>
<path d="M5436 958.75L-4284 -2281.25" stroke="#6AB0F3" stroke-opacity="0.75" stroke-width="1.25927"/>
<path d="M5446.29 917.607L-4273.71 -2322.39" stroke="#6AB0F3" stroke-opacity="0.75" stroke-width="1.25927"/>
<path d="M5456.57 876.464L-4263.43 -2363.54" stroke="#6AB0F3" stroke-opacity="0.75" stroke-width="1.25927"/>
<path d="M5466.86 835.321L-4253.14 -2404.68" stroke="#6AB0F3" stroke-opacity="0.75" stroke-width="1.25927"/>
<path d="M5477.14 794.178L-4242.86 -2445.82" stroke="#6AB0F3" stroke-opacity="0.75" stroke-width="1.25927"/>
<path d="M5487.43 753.036L-4232.57 -2486.96" stroke="#6AB0F3" stroke-opacity="0.75" stroke-width="1.25927"/>
<path d="M5497.71 711.893L-4222.29 -2528.11" stroke="#6AB0F3" stroke-opacity="0.75" stroke-width="1.25927"/>
<path d="M5508 670.75L-4212 -2569.25" stroke="#6AB0F3" stroke-opacity="0.75" stroke-width="1.25927"/>
<path d="M5518.29 629.607L-4201.71 -2610.39" stroke="#6AB0F3" stroke-opacity="0.75" stroke-width="1.25927"/>
<path d="M5528.57 588.464L-4191.43 -2651.54" stroke="#6AB0F3" stroke-opacity="0.75" stroke-width="1.25927"/>
<path d="M5538.86 547.321L-4181.14 -2692.68" stroke="#6AB0F3" stroke-opacity="0.75" stroke-width="1.25927"/>
<path d="M5549.14 506.178L-4170.86 -2733.82" stroke="#6AB0F3" stroke-opacity="0.75" stroke-width="1.25927"/>
<path d="M5559.43 465.035L-4160.57 -2774.96" stroke="#6AB0F3" stroke-opacity="0.75" stroke-width="1.25927"/>
<path d="M5569.71 423.893L-4150.29 -2816.11" stroke="#6AB0F3" stroke-opacity="0.75" stroke-width="1.25927"/>
<path d="M5580 382.75L-4140 -2857.25" stroke="#6AB0F3" stroke-opacity="0.75" stroke-width="1.25927"/>
<path d="M5590.29 341.607L-4129.71 -2898.39" stroke="#6AB0F3" stroke-opacity="0.75" stroke-width="1.25927"/>
<path d="M5600.57 300.464L-4119.43 -2939.54" stroke="#6AB0F3" stroke-opacity="0.75" stroke-width="1.25927"/>
<path d="M5610.86 259.321L-4109.14 -2980.68" stroke="#6AB0F3" stroke-opacity="0.75" stroke-width="1.25927"/>
<path d="M5621.14 218.179L-4098.86 -3021.82" stroke="#6AB0F3" stroke-opacity="0.75" stroke-width="1.25927"/>
<path d="M5631.43 177.036L-4088.57 -3062.96" stroke="#6AB0F3" stroke-opacity="0.75" stroke-width="1.25927"/>
<path d="M5641.71 135.893L-4078.29 -3104.11" stroke="#6AB0F3" stroke-opacity="0.75" stroke-width="1.25927"/>
<path d="M5652 94.75L-4068 -3145.25" stroke="#6AB0F3" stroke-opacity="0.75" stroke-width="1.25927"/>
<path d="M5662.29 53.6069L-4057.71 -3186.39" stroke="#6AB0F3" stroke-opacity="0.75" stroke-width="1.25927"/>
<path d="M5672.57 12.4639L-4047.43 -3227.54" stroke="#6AB0F3" stroke-opacity="0.75" stroke-width="1.25927"/>
<path d="M1800 -5557.25L-1080 5962.75" stroke="#79B9F6" stroke-width="1.25927"/>
<path d="M5220 1822.75L-4500 -1417.25" stroke="#79B9F6" stroke-width="1.25927"/>
</g>
<path d="M360.099 174.522L370.286 161.607L373.196 177.796L367.375 173.249L360.099 174.522Z" fill="#92D192"/>
<path d="M360 202.75L369.316 165.487" stroke="#92D192" stroke-width="1.5"/>
<path d="M310.382 193.326L298.286 182.179L314.651 180.519L309.67 185.974L310.382 193.326Z" fill="#F2777A"/>
<path d="M360 202.75L302.081 183.444" stroke="#F2777A" stroke-width="1.5"/>
<path d="M380.671 92.2363L390.857 79.3213L393.767 95.5105L387.947 90.963L380.671 92.2363Z" fill="#92D192"/>
<path d="M360 202.75L389.887 83.2021" stroke="#92D192" stroke-width="1.5"/>
<path d="M625.618 150.46L637.714 161.607L621.349 163.267L626.33 157.812L625.618 150.46Z" fill="#F2777A"/>
<path d="M390.857 79.3213L633.919 160.342" stroke="#F2777A" stroke-width="1.5"/>
<path d="M386.453 78.3998C386.364 78.7523 386.204 78.9526 385.971 79.0008C385.74 79.0493 385.353 79.0677 384.812 79.0564C384.272 79.0465 383.782 79.1078 383.34 79.2449C380.147 80.2083 377.936 83.1483 376.707 88.0635L367.301 125.686C365.738 131.94 362.806 135.47 358.506 136.281C361.919 139.018 362.895 143.312 361.433 149.158L351.911 187.247C351.555 188.67 351.318 189.756 351.2 190.498C350.915 192.59 351.093 194.504 351.737 196.241C352.38 197.978 353.416 199.179 354.845 199.846C354.877 199.854 354.965 199.892 355.108 199.958C355.253 200.025 355.354 200.081 355.41 200.125C355.468 200.17 355.544 200.238 355.641 200.324C355.738 200.413 355.791 200.54 355.8 200.704C355.811 200.867 355.793 201.04 355.747 201.222C355.558 201.979 352.134 200.554 350.726 198.259C349.318 195.964 348.931 193.046 349.564 189.504C349.679 188.911 349.879 188.044 350.164 186.903L359.599 149.164C360.093 147.187 360.314 145.403 360.262 143.813C360.209 142.223 359.938 140.988 359.444 140.109C358.952 139.229 358.517 138.573 358.143 138.138C357.768 137.704 357.363 137.371 356.928 137.14C356.832 137.116 356.697 137.064 356.521 136.99C356.345 136.915 356.21 136.827 356.115 136.727C356.022 136.626 355.926 136.533 355.83 136.447C355.732 136.361 355.67 136.238 355.642 136.075C355.616 135.914 355.623 135.745 355.666 135.571C355.724 135.339 355.795 135.154 355.88 135.022C355.964 134.891 356.079 134.801 356.225 134.761C356.371 134.72 356.515 134.702 356.658 134.707C356.8 134.712 356.992 134.713 357.23 134.712C357.469 134.709 357.69 134.703 357.897 134.692C359.181 134.58 360.475 133.932 361.782 132.745C363.089 131.556 364.114 129.88 364.858 127.718C365.068 127.153 365.318 126.289 365.608 125.126L374.85 88.1575C375.142 86.9905 375.404 86.0649 375.633 85.3807C375.863 84.6964 376.32 83.7747 377.005 82.6141C377.69 81.4535 378.513 80.4629 379.473 79.6437C382.267 76.8231 386.596 77.8266 386.451 78.404L386.453 78.3998Z" fill="#F0F0F0"/>
<path d="M341.631 97.8413H286.705V151.207H341.631V97.8413Z" fill="black"/>
<g clip-path="url(#clip3_1593_13013)">
<path d="M292.376 121.258C292.021 121.258 291.746 121.147 291.549 120.924C291.352 120.701 291.247 120.412 291.234 120.058C291.234 119.336 291.549 118.693 292.179 118.129C292.809 117.564 293.57 117.282 294.462 117.282C294.921 117.282 295.21 117.289 295.328 117.302C296.299 117.46 297.04 117.807 297.552 118.345C298.064 118.883 298.326 119.467 298.34 120.097C298.34 120.779 298.116 121.442 297.67 122.085C297.224 122.728 296.607 123.194 295.82 123.482L295.761 123.522C295.761 123.535 295.82 123.555 295.938 123.581C296.056 123.607 296.247 123.666 296.509 123.758C296.771 123.85 297.021 123.988 297.257 124.171C298.333 124.867 298.871 125.785 298.871 126.927C298.871 127.963 298.464 128.869 297.651 129.643C296.837 130.417 295.807 130.804 294.56 130.804C293.511 130.804 292.605 130.522 291.844 129.958C291.083 129.394 290.703 128.678 290.703 127.812C290.703 127.445 290.821 127.15 291.057 126.927C291.293 126.704 291.588 126.586 291.943 126.572C292.31 126.572 292.612 126.691 292.848 126.927C293.084 127.163 293.202 127.458 293.202 127.812C293.202 127.957 293.183 128.088 293.143 128.206C293.104 128.324 293.058 128.429 293.006 128.521C292.953 128.613 292.881 128.692 292.789 128.757C292.697 128.823 292.618 128.875 292.553 128.915C292.487 128.954 292.422 128.98 292.356 128.993C292.29 129.007 292.238 129.026 292.199 129.052L292.12 129.072C292.789 129.663 293.603 129.958 294.56 129.958C295.282 129.958 295.827 129.61 296.194 128.915C296.417 128.482 296.529 127.819 296.529 126.927V126.533C296.529 125.287 296.109 124.453 295.269 124.033C295.072 123.955 294.672 123.909 294.068 123.896L293.242 123.876L293.183 123.837C293.156 123.797 293.143 123.692 293.143 123.522C293.143 123.286 293.196 123.167 293.301 123.167C293.668 123.167 294.049 123.135 294.442 123.069C294.889 123.003 295.295 122.728 295.663 122.242C296.03 121.757 296.214 121.022 296.214 120.038V119.88C296.214 119.133 295.984 118.614 295.525 118.326C295.236 118.142 294.928 118.05 294.6 118.05C294.18 118.05 293.793 118.122 293.439 118.266C293.084 118.411 292.835 118.562 292.691 118.719C292.546 118.877 292.474 118.955 292.474 118.955H292.533C292.573 118.969 292.625 118.982 292.691 118.995C292.756 119.008 292.822 119.041 292.887 119.093C292.953 119.146 293.032 119.192 293.124 119.231C293.216 119.27 293.281 119.342 293.32 119.447C293.36 119.552 293.412 119.651 293.478 119.743C293.544 119.835 293.563 119.966 293.537 120.136C293.537 120.425 293.445 120.681 293.261 120.904C293.078 121.127 292.783 121.245 292.376 121.258Z" fill="#F0F0F0"/>
<path d="M307.86 149.06V101.841H313.154V103.062H309.08V147.839H313.154V149.06H307.86Z" fill="#92D192"/>
<path d="M321.953 105.217L321.697 105.316C321.513 105.381 321.25 105.447 320.909 105.513C320.568 105.578 320.188 105.624 319.768 105.65H319.394V104.745H319.768C320.384 104.719 320.955 104.62 321.48 104.45C322.005 104.279 322.372 104.122 322.582 103.977C322.792 103.833 322.976 103.689 323.133 103.544C323.16 103.505 323.238 103.485 323.37 103.485C323.488 103.485 323.599 103.525 323.704 103.603V109.488L323.724 115.393C323.816 115.485 323.895 115.544 323.96 115.57C324.026 115.597 324.183 115.623 324.432 115.649C324.682 115.675 325.089 115.688 325.653 115.688H326.165V116.594H325.948C325.672 116.554 324.629 116.535 322.819 116.535C321.034 116.535 320.004 116.554 319.728 116.594H319.492V115.688H320.004C320.293 115.688 320.542 115.688 320.752 115.688C320.962 115.688 321.126 115.682 321.244 115.669C321.362 115.656 321.467 115.636 321.559 115.61C321.651 115.583 321.703 115.57 321.716 115.57C321.729 115.57 321.769 115.537 321.834 115.472C321.9 115.406 321.939 115.38 321.953 115.393V105.217Z" fill="#92D192"/>
<path d="M326.853 144.149C326.617 144.11 325.771 144.09 324.314 144.09C322.792 144.09 321.913 144.11 321.677 144.149H321.5V143.244H322.11C322.372 143.244 322.55 143.244 322.641 143.244C322.733 143.244 322.845 143.23 322.976 143.204C323.107 143.178 323.199 143.145 323.252 143.106C323.304 143.066 323.35 143.014 323.389 142.948C323.402 142.922 323.409 142.568 323.409 141.885V140.901H318.311V139.996L321.283 135.449C323.291 132.405 324.308 130.876 324.334 130.863C324.36 130.837 324.498 130.824 324.747 130.824H325.102L325.22 130.942V139.996H327.031V140.901H325.22V141.905C325.22 142.443 325.22 142.758 325.22 142.85C325.22 142.942 325.259 143.02 325.338 143.086C325.443 143.178 325.817 143.23 326.46 143.244H327.031V144.149H326.853ZM323.527 139.996V133.422L319.217 139.976L321.362 139.996H323.527Z" fill="#92D192"/>
<path d="M332.187 103.062V101.841H337.482V149.06H332.187V147.839H336.262V103.062H332.187Z" fill="#92D192"/>
</g>
<path d="M638.934 157.273C638.678 157.187 638.547 157.031 638.542 156.804C638.537 156.578 638.575 156.199 638.657 155.671C638.738 155.143 638.758 154.664 638.714 154.232C638.414 151.113 636.476 148.958 632.901 147.766L527.53 112.643C522.983 111.127 520.692 108.268 520.658 104.066C518.112 107.408 514.71 108.369 510.459 106.952L403.68 71.3593C402.646 71.0144 401.85 70.7841 401.302 70.6708C399.748 70.3962 398.267 70.574 396.857 71.2067C395.447 71.8384 394.393 72.8529 393.691 74.2509C393.681 74.2822 393.641 74.3689 393.57 74.5087C393.499 74.6495 393.444 74.7493 393.402 74.8037C393.359 74.8601 393.299 74.9348 393.218 75.0292C393.138 75.1248 393.034 75.1766 392.909 75.1864C392.783 75.1971 392.655 75.1798 392.521 75.1352C391.971 74.9518 393.52 71.6029 395.458 70.2219C397.397 68.8422 399.67 68.4573 402.281 69.0703C402.717 69.181 403.35 69.3749 404.18 69.6516L510.704 105.16C512.142 105.639 513.47 105.852 514.687 105.798C515.905 105.743 516.882 105.475 517.618 104.991C518.355 104.509 518.914 104.083 519.295 103.715C519.677 103.348 519.985 102.952 520.219 102.527C520.25 102.433 520.308 102.3 520.39 102.128C520.47 101.956 520.555 101.824 520.645 101.731C520.734 101.64 520.818 101.546 520.896 101.451C520.974 101.355 521.078 101.295 521.204 101.268C521.331 101.241 521.458 101.248 521.584 101.29C521.754 101.346 521.884 101.415 521.973 101.497C522.064 101.58 522.115 101.692 522.126 101.835C522.137 101.977 522.131 102.118 522.108 102.258C522.086 102.397 522.058 102.584 522.027 102.817C521.997 103.051 521.972 103.267 521.952 103.469C521.863 104.723 522.181 105.987 522.908 107.263C523.636 108.537 524.773 109.536 526.317 110.26C526.719 110.463 527.343 110.706 528.189 110.988L633.084 145.953C633.933 146.236 634.601 146.489 635.092 146.713C635.581 146.936 636.221 147.381 637.012 148.049C637.804 148.716 638.445 149.519 638.939 150.456C640.707 153.181 639.356 157.414 638.936 157.274L638.934 157.273Z" fill="#F0F0F0"/>
<path d="M576.065 39.6631H491.241V93.0324H576.065V39.6631Z" fill="black"/>
<g clip-path="url(#clip4_1593_13013)">
<path d="M495.236 67.5297C495.236 67.5297 495.236 67.4444 495.236 67.2738C495.236 67.1032 495.328 66.972 495.512 66.8801H506.948C507.145 66.9851 507.243 67.1163 507.243 67.2738C507.243 67.4313 507.145 67.5625 506.948 67.6675H495.512C495.328 67.5756 495.236 67.4444 495.236 67.2738V67.5297Z" fill="#F0F0F0"/>
<path d="M517.991 72.1943C517.754 72.155 516.908 72.1353 515.451 72.1353C513.929 72.1353 513.05 72.155 512.814 72.1943H512.637V71.2889H513.247C513.509 71.2889 513.686 71.2889 513.778 71.2889C513.87 71.2889 513.982 71.2758 514.113 71.2495C514.244 71.2233 514.336 71.1905 514.389 71.1511C514.441 71.1117 514.487 71.0592 514.526 70.9936C514.539 70.9674 514.546 70.6131 514.546 69.9307V68.9465H509.448V68.0411L512.42 63.4941C514.428 60.4497 515.445 58.9209 515.471 58.9078C515.497 58.8816 515.635 58.8684 515.884 58.8684H516.239L516.357 58.9865V68.0411H518.168V68.9465H516.357V69.9504C516.357 70.4884 516.357 70.8034 516.357 70.8952C516.357 70.9871 516.396 71.0658 516.475 71.1314C516.58 71.2233 516.954 71.2758 517.597 71.2889H518.168V72.1943H517.991ZM514.664 68.0411V61.4667L510.353 68.0214L512.499 68.0411H514.664Z" fill="#F0F0F0"/>
<path d="M526.882 90.8843V43.663H532.177V44.8834H528.102V89.6639H532.177V90.8843H526.882Z" fill="#F2777A"/>
<path d="M538.436 53.7509C538.436 53.7509 538.436 53.6656 538.436 53.495C538.436 53.3244 538.528 53.1932 538.712 53.1013H550.148C550.345 53.2063 550.443 53.3375 550.443 53.495C550.443 53.6525 550.345 53.7837 550.148 53.8887H538.712C538.528 53.7968 538.436 53.6656 538.436 53.495V53.7509Z" fill="#F2777A"/>
<path d="M552.923 52.2551C552.923 50.1161 553.455 48.4233 554.518 47.1767C555.581 45.93 556.762 45.3067 558.061 45.3067C558.966 45.3067 559.616 45.5429 560.01 46.0153C560.403 46.4877 560.6 47.0126 560.6 47.59C560.6 47.9181 560.508 48.1805 560.324 48.3774C560.141 48.5742 559.885 48.6726 559.557 48.6726C559.255 48.6726 559.006 48.5808 558.809 48.3971C558.612 48.2133 558.514 47.9574 558.514 47.6294C558.514 47.052 558.822 46.7042 559.439 46.5861C559.15 46.2975 558.743 46.1334 558.218 46.0941C557.287 46.0941 556.519 46.4877 555.915 47.2751C555.299 48.1412 554.99 49.4665 554.99 51.2512L555.01 51.3299C555.075 51.2512 555.128 51.1659 555.167 51.074C555.705 50.2867 556.407 49.893 557.274 49.893H557.352C557.956 49.893 558.487 50.0177 558.947 50.267C559.262 50.4507 559.577 50.7132 559.891 51.0544C560.206 51.3955 560.462 51.7695 560.659 52.1763C560.935 52.8193 561.072 53.5214 561.072 54.2825V54.6368C561.072 54.9386 561.04 55.2208 560.974 55.4832C560.83 56.2574 560.41 57.012 559.714 57.7468C559.019 58.4817 558.14 58.8491 557.077 58.8491C556.709 58.8491 556.355 58.7966 556.014 58.6917C555.673 58.5867 555.305 58.3898 554.911 58.1011C554.518 57.8124 554.183 57.4253 553.908 56.9398C553.632 56.4543 553.396 55.8178 553.199 55.0305C553.002 54.2431 552.91 53.318 552.923 52.2551ZM557.155 50.6016C556.762 50.6016 556.421 50.7132 556.132 50.9363C555.843 51.1593 555.62 51.4546 555.463 51.822C555.305 52.1895 555.194 52.5634 555.128 52.944C555.062 53.3245 555.023 53.7313 555.01 54.1644C555.01 55.2536 555.089 56.0343 555.246 56.5068C555.404 56.9792 555.653 57.3597 555.994 57.6484C556.309 57.8846 556.657 58.0027 557.037 58.0027C557.707 58.0027 558.218 57.7534 558.573 57.2547C558.743 57.0185 558.861 56.7233 558.927 56.369C558.993 56.0147 559.025 55.3257 559.025 54.3022C559.025 53.2524 558.993 52.5503 558.927 52.196C558.861 51.8417 558.743 51.5465 558.573 51.3102C558.218 50.8378 557.746 50.6016 557.155 50.6016Z" fill="#F2777A"/>
<path d="M546.585 77.5288C546.231 77.5288 545.949 77.4107 545.739 77.1745C545.529 76.9383 545.424 76.6496 545.424 76.3084C545.424 75.3767 545.772 74.5697 546.467 73.8873C547.163 73.205 548.029 72.8638 549.065 72.8638C550.26 72.8638 551.257 73.2312 552.057 73.9661C552.858 74.7009 553.265 75.6523 553.278 76.8202C553.278 77.3845 553.146 77.9225 552.884 78.4343C552.622 78.946 552.307 79.3922 551.939 79.7728C551.572 80.1533 551.047 80.6388 550.365 81.2294C549.892 81.6362 549.236 82.2398 548.396 83.0403L547.235 84.1426L548.731 84.1622C550.791 84.1622 551.887 84.1294 552.018 84.0638C552.11 84.0376 552.267 83.4536 552.49 82.312V82.2529H553.278V82.312C553.265 82.3513 553.179 82.9484 553.022 84.1032C552.864 85.258 552.766 85.8616 552.727 85.9141V85.9731H545.424V85.5992V85.3629C545.424 85.2711 545.463 85.1727 545.542 85.0677C545.621 84.9627 545.818 84.7331 546.133 84.3788C546.513 83.9588 546.841 83.5914 547.117 83.2765C547.235 83.1452 547.458 82.9025 547.786 82.5482C548.114 82.1939 548.337 81.9511 548.455 81.8199C548.573 81.6886 548.764 81.4721 549.026 81.1703C549.288 80.8685 549.472 80.6454 549.577 80.5011C549.682 80.3567 549.833 80.1599 550.03 79.9105C550.227 79.6612 550.365 79.4513 550.443 79.2807C550.522 79.1101 550.62 78.9198 550.739 78.7098C550.857 78.4999 550.942 78.2899 550.994 78.08C551.047 77.87 551.093 77.6732 551.132 77.4894C551.172 77.3057 551.191 77.0892 551.191 76.8399C551.191 76.0132 550.968 75.298 550.522 74.6944C550.076 74.0907 549.439 73.7889 548.613 73.7889C548.18 73.7889 547.799 73.9004 547.471 74.1235C547.143 74.3466 546.913 74.5631 546.782 74.7731C546.651 74.9831 546.585 75.1077 546.585 75.1471C546.585 75.1602 546.618 75.1668 546.684 75.1668C546.92 75.1668 547.163 75.2586 547.412 75.4423C547.661 75.6261 547.786 75.9279 547.786 76.3478C547.786 76.6759 547.681 76.9514 547.471 77.1745C547.261 77.3976 546.966 77.5157 546.585 77.5288Z" fill="#F2777A"/>
<path d="M566.525 44.8834V43.663H571.82V90.8843H566.525V89.6639H570.599V44.8834H566.525Z" fill="#F2777A"/>
</g>
<path d="M360.099 174.522L370.286 161.607L373.196 177.796L367.375 173.249L360.099 174.522Z" fill="#92D192"/>
<path d="M360 202.75L369.316 165.487" stroke="#92D192" stroke-width="1.5"/>
<path d="M310.382 193.326L298.286 182.179L314.651 180.519L309.67 185.974L310.382 193.326Z" fill="#F2777A"/>
<path d="M360 202.75L302.081 183.444" stroke="#F2777A" stroke-width="1.5"/>
<path d="M699.534 140.498H648.382V170.17H699.534V140.498Z" fill="black"/>
<g clip-path="url(#clip5_1593_13013)">
<path d="M656.237 148.68C655.791 148.68 655.555 148.654 655.529 148.601C655.516 148.575 655.509 148.523 655.509 148.444C655.509 148.129 655.581 147.912 655.726 147.794C655.752 147.781 655.85 147.775 656.021 147.775C656.729 147.814 657.563 147.834 658.52 147.834C660.37 147.834 661.433 147.814 661.709 147.775H661.945C662.024 147.853 662.063 147.912 662.063 147.952C662.063 147.991 662.05 148.109 662.024 148.306C661.958 148.503 661.899 148.628 661.846 148.68H661.099C660.193 148.693 659.662 148.752 659.504 148.857C659.413 148.91 659.321 149.093 659.229 149.408C659.137 149.723 658.698 151.455 657.91 154.604C657.7 155.457 657.477 156.362 657.241 157.32C657.005 158.278 656.828 159 656.71 159.485L656.533 160.194C656.533 160.246 656.592 160.272 656.71 160.272C656.828 160.272 657.215 160.285 657.871 160.312H658.205C658.625 160.312 658.96 160.305 659.209 160.292C659.459 160.279 659.78 160.233 660.174 160.154C660.567 160.075 660.895 159.957 661.158 159.8C661.42 159.642 661.709 159.419 662.024 159.131C662.339 158.842 662.614 158.481 662.85 158.048C663.06 157.655 663.257 157.215 663.441 156.73C663.624 156.244 663.736 155.969 663.775 155.903C663.841 155.864 663.952 155.844 664.11 155.844H664.366C664.444 155.962 664.484 156.034 664.484 156.06C664.484 156.087 664.353 156.474 664.09 157.222C663.828 157.97 663.539 158.757 663.224 159.583C662.909 160.41 662.739 160.895 662.712 161.04C662.686 161.105 662.66 161.145 662.634 161.158C662.607 161.171 662.503 161.191 662.319 161.217C662.135 161.243 661.853 161.25 661.473 161.237C661.328 161.237 660.83 161.237 659.977 161.237C659.124 161.237 658.31 161.23 657.536 161.217H654.033C652.931 161.217 652.38 161.151 652.38 161.02C652.38 160.928 652.393 160.836 652.419 160.745C652.485 160.495 652.55 160.358 652.616 160.331C652.669 160.318 652.767 160.312 652.911 160.312H653.029C653.384 160.312 653.777 160.292 654.21 160.253C654.394 160.213 654.519 160.134 654.584 160.016C654.624 159.964 655.096 158.14 656.001 154.545C656.907 150.95 657.359 149.054 657.359 148.857C657.359 148.765 656.985 148.706 656.237 148.68Z" fill="#F0F0F0"/>
<path d="M671.425 156.287C671.425 151.104 672.974 147.175 676.07 144.498H676.621C676.7 144.577 676.739 144.636 676.739 144.675C676.739 144.728 676.615 144.892 676.365 145.167C676.116 145.443 675.814 145.856 675.46 146.407C675.106 146.958 674.745 147.64 674.377 148.454C674.01 149.267 673.702 150.363 673.452 151.741C673.203 153.118 673.079 154.64 673.079 156.307C673.079 157.96 673.203 159.475 673.452 160.853C673.702 162.231 674.004 163.32 674.358 164.12C674.712 164.92 675.073 165.603 675.44 166.167C675.808 166.731 676.116 167.151 676.365 167.427C676.615 167.702 676.739 167.866 676.739 167.919C676.739 167.958 676.7 168.017 676.621 168.096H676.07C675.69 167.781 675.322 167.433 674.968 167.053C674.614 166.672 674.213 166.128 673.767 165.419C673.321 164.711 672.934 163.95 672.606 163.136C672.278 162.323 672.003 161.319 671.78 160.125C671.557 158.931 671.438 157.652 671.425 156.287Z" fill="#F0F0F0"/>
<path d="M685.34 152.479C685.497 152.518 686.114 152.538 687.19 152.538C688.148 152.538 688.666 152.518 688.745 152.479H688.863V153.699H687.485L685.497 158.147C684.697 159.958 684.238 160.942 684.12 161.099C684.015 161.23 683.89 161.296 683.746 161.296C683.719 161.296 683.674 161.296 683.608 161.296C683.542 161.296 683.477 161.289 683.411 161.276H683.116C682.919 161.276 682.762 161.178 682.644 160.981C682.525 160.784 682.243 160.194 681.797 159.21C681.6 158.777 681.443 158.422 681.325 158.147L679.337 153.699H677.959V152.479H678.117C678.314 152.518 679.042 152.538 680.301 152.538C681.705 152.538 682.525 152.518 682.762 152.479H682.939V153.699H681.994L683.037 156.021C683.706 157.53 684.061 158.285 684.1 158.285C684.1 158.272 684.435 157.517 685.104 156.021C685.773 154.526 686.121 153.758 686.147 153.719C686.147 153.706 685.989 153.699 685.674 153.699H685.202V152.479H685.34Z" fill="#FFF888"/>
<path d="M685.92 146.909C685.92 146.804 685.953 146.712 686.019 146.633C686.084 146.555 686.183 146.515 686.314 146.515C686.406 146.515 686.485 146.548 686.55 146.614C686.616 146.666 686.681 146.791 686.747 146.988C686.878 147.473 687.147 147.847 687.554 148.109C687.698 148.201 687.77 148.319 687.77 148.464C687.77 148.582 687.751 148.66 687.711 148.7C687.672 148.739 687.58 148.798 687.436 148.877C686.872 149.166 686.38 149.579 685.96 150.117C685.934 150.143 685.901 150.182 685.861 150.235C685.822 150.287 685.789 150.327 685.763 150.353C685.737 150.379 685.704 150.392 685.665 150.392C685.625 150.392 685.579 150.399 685.527 150.412C685.435 150.412 685.35 150.379 685.271 150.314C685.192 150.248 685.146 150.15 685.133 150.018C685.133 149.769 685.442 149.382 686.058 148.857H682.693L679.327 148.838C679.157 148.72 679.071 148.595 679.071 148.464C679.071 148.372 679.157 148.241 679.327 148.07H686.393C686.078 147.571 685.92 147.184 685.92 146.909Z" fill="#FFF888"/>
<path d="M695.397 156.287C695.397 161.483 693.849 165.419 690.752 168.096H690.496C690.326 168.096 690.214 168.083 690.162 168.056C690.109 168.03 690.083 167.971 690.083 167.879C690.109 167.814 690.273 167.61 690.575 167.269C690.877 166.928 691.192 166.482 691.52 165.931C691.848 165.38 692.189 164.704 692.543 163.904C692.897 163.103 693.186 162.034 693.409 160.696C693.632 159.357 693.744 157.894 693.744 156.307C693.744 154.719 693.632 153.256 693.409 151.918C693.186 150.579 692.897 149.51 692.543 148.71C692.189 147.909 691.848 147.227 691.52 146.663C691.192 146.099 690.877 145.659 690.575 145.344C690.273 145.029 690.109 144.819 690.083 144.714C690.083 144.57 690.181 144.498 690.378 144.498H690.496H690.752C692.432 145.902 693.658 147.765 694.433 150.087C695.075 151.937 695.397 154.004 695.397 156.287Z" fill="#F0F0F0"/>
</g>
<path d="M621.887 157.128L637.714 161.607L623.865 170.482L625.844 163.365L621.887 157.128Z" fill="#F0F0F0"/>
<path d="M360 202.75L633.757 162.193" stroke="#F0F0F0" stroke-width="1.5"/>
</g>
<defs>
<clipPath id="clip0_1593_13013">
<rect width="720" height="405" fill="white" transform="translate(0 0.25)"/>
</clipPath>
<clipPath id="clip1_1593_13013">
<rect width="720" height="405" fill="white" transform="translate(0 0.25)"/>
</clipPath>
<clipPath id="clip2_1593_13013">
<rect width="2880" height="1620" fill="white" transform="translate(-1080 -607.25)"/>
</clipPath>
<clipPath id="clip3_1593_13013">
<rect width="52.4871" height="47.241" fill="white" transform="translate(289.876 101.83)"/>
</clipPath>
<clipPath id="clip4_1593_13013">
<rect width="83.1198" height="47.241" fill="white" transform="translate(493.582 43.6533)"/>
</clipPath>
<clipPath id="clip5_1593_13013">
<rect width="46.6581" height="23.6031" fill="white" transform="translate(651.75 144.495)"/>
</clipPath>
</defs>
</svg>
