<svg width="480" height="480" viewBox="0 0 480 480" fill="none" xmlns="http://www.w3.org/2000/svg">
<path d="M250.498 126L250.736 126.001L250.886 125.817C253.237 122.956 255.1 118.947 255.1 115.1C255.1 110.248 252.585 106.589 248.913 103.825C245.253 101.071 240.41 99.1757 235.638 97.8194C230.422 96.3073 225.494 98.2767 221.902 101.766C218.316 105.25 216 110.3 216 115.1C216 119.118 217.443 122.946 220.14 125.747L220.287 125.899L220.498 125.9L250.498 126Z" fill="white" stroke="black"/>
<path d="M305.998 126L306.236 126.001L306.386 125.817C308.766 122.921 310.1 118.906 310.1 115.1C310.1 110.3 307.859 105.497 304.293 102.136C300.722 98.7704 295.791 96.8254 290.411 97.8081C285.601 98.669 280.768 100.571 277.127 103.458C273.479 106.351 271 110.259 271 115.1C271 119.118 272.443 122.946 275.14 125.747L275.287 125.899L275.498 125.9L305.998 126Z" fill="white" stroke="black"/>
<path d="M241.999 102.8C240.699 102.9 239.699 103.9 239.699 105.2C239.699 106.5 240.799 107.6 242.099 107.6C243.399 107.6 244.499 106.5 244.499 105.2C244.499 103.9 243.399 102.8 242.099 102.8H241.999L244.899 101.8C249.199 101.8 252.599 105.3 252.599 109.5C252.599 113.7 249.099 117.2 244.899 117.2C240.699 117.2 237.199 113.7 237.199 109.5C237.199 105.3 240.699 101.8 244.899 101.8" fill="black"/>
<path d="M296.999 102.8C295.699 102.9 294.699 103.9 294.699 105.2C294.699 106.5 295.799 107.6 297.099 107.6C298.399 107.6 299.499 106.5 299.499 105.2C299.499 103.9 298.399 102.8 297.099 102.8C297.099 102.8 296.999 102.8 296.999 102.8L299.899 101.8C304.199 101.8 307.599 105.3 307.599 109.5C307.599 113.7 304.099 117.2 299.899 117.2C295.699 117.2 292.199 113.7 292.199 109.5C292.199 105.3 295.699 101.8 299.899 101.8" fill="black"/>
<path d="M231.399 156.1H295.799C280.399 219.9 270.699 261.5 270.699 307.1C270.699 315.1 270.699 376.6 294.099 376.6C306.099 376.6 316.299 365.8 316.299 356.1C316.299 353.3 316.299 352.1 312.299 343.6C296.899 304.3 296.899 255.3 296.899 251.3C296.899 247.9 296.899 207.4 308.899 156.2H347.699C313.999 211 358.999 181 367.999 162C373.399 150.7 352.099 125.3 341.799 125.3H190.399C170.999 130 154.999 141 148.699 153.2C138.599 172.9 171.799 197.5 174.999 198.8C178.099 200.1 180.299 198 181.599 194.8C183.199 191.1 182.399 189.5 179.799 186C157.999 157 171.599 156 185.799 156H218.299C205.799 198.7 191.499 248.3 144.799 348C140.199 357.1 140.199 358.3 140.199 361.7C140.199 373.7 150.499 376.5 155.599 376.5C172.099 376.5 176.699 361.7 183.499 337.8C192.599 308.7 192.599 307.6 198.299 284.8L231.399 156.1Z" fill="#0C7F99"/>
<path d="M248 147C248.7 147.9 255 151 259.8 151.1C270.1 151.3 270 150 273 148V145C268.7 147.2 266 148 260.6 148C256.7 148 254 147 248 144" fill="black"/>
</svg>
