<svg width="480" height="480" viewBox="0 0 480 480" fill="none" xmlns="http://www.w3.org/2000/svg">
<path d="M176.164 166.243L176.336 166.06L176.292 165.812C175.576 161.824 173.732 157.921 170.543 154.937C162.742 147.446 150.427 147.758 142.939 155.554C135.446 163.355 135.756 175.671 143.552 183.16C146.727 186.232 150.834 188.189 154.962 188.499L155.2 188.517L155.364 188.343L176.164 166.243Z" fill="white" stroke="black"/>
<path d="M214.264 126.543L214.437 126.36L214.392 126.112C213.676 122.124 211.833 118.221 208.644 115.237C200.844 107.748 188.429 108.055 181.038 115.855C173.546 123.656 173.857 135.971 181.653 143.46C184.828 146.532 188.934 148.489 193.063 148.799L193.301 148.817L193.464 148.643L214.264 126.543Z" fill="white" stroke="black"/>
<path d="M150.1 154.9C149.3 155.9 149.4 157.3 150.3 158.2C151.3 159.1 152.8 159.1 153.8 158.1C154.8 157.1 154.7 155.6 153.7 154.6C152.7 153.7 151.2 153.7 150.2 154.7C150.2 154.8 150.1 154.8 150.1 154.9L151.4 152.1C154.3 149 159.2 148.9 162.3 151.9C165.4 154.9 165.5 159.7 162.5 162.8C159.6 165.9 154.7 166 151.6 163C148.5 160.1 148.4 155.2 151.4 152.1" fill="black"/>
<path d="M188.1 115.2C187.3 116.2 187.4 117.6 188.3 118.5C189.3 119.4 190.8 119.4 191.8 118.4C192.7 117.4 192.7 115.9 191.7 114.9C190.7 114 189.2 114 188.2 115C188.2 115.1 188.2 115.1 188.1 115.2L189.4 112.4C192.3 109.3 197.2 109.2 200.3 112.2C203.4 115.1 203.5 120 200.5 123.1C197.6 126.2 192.7 126.3 189.6 123.3C186.5 120.3 186.4 115.5 189.4 112.4" fill="black"/>
<path d="M183.8 200.4L228.3 153.9C263.7 209.1 287 245 320 276.4C343.3 298.6 418 278.3 411.1 256C407.6 244.6 394.2 238 384.9 240.9C382.2 241.7 381.1 242.1 374.1 248.4C341.1 274.7 300.6 221.7 297.8 218.9C295.3 216.5 266.1 188.6 237.4 144.5L284.5 93.8001C293.7 83.5001 287.8 60.1001 274.6 47.5001C265.5 38.8001 270.2 66.7001 251.5 86.3001L133.2 208.7C124.1 218.2 121.6 221.2 114.5 225.8C104.8 232 94.1998 236.2 90.8998 237.3C87.5998 238.4 87.3998 241.4 88.3998 244.6C89.5998 248.4 91.0998 250.6 95.4998 250.2C143.3 244.9 141.8 243.5 152.3 233.3L174.8 209.8C197 248.4 198.2 316.7 198.8 332.2C199.2 342.4 200 395.7 200.8 399C203.3 410.7 214 411.3 219 410.2C235.1 406.7 232.5 394.3 231.7 369.4C230.8 343.2 228.3 306 227.6 301.8C221.2 263.5 183.8 200.4 183.8 200.4Z" fill="#0C7F99"/>
<path d="M185.9 183.7C186.6 184.3 193.4 184.1 201.1 175.5C207.3 168.5 207.6 166.5 206.2 162.2L203.9 158.8C201.4 161.5 195.4 168.9 191 173.1C188 176.1 184 180.2 183.5 181.1" fill="black"/>
</svg>
