<svg width="480" height="480" viewBox="0 0 480 480" fill="none" xmlns="http://www.w3.org/2000/svg">
<path d="M245.905 127.5L246.153 127.497L246.302 127.298C248.664 124.113 250.1 120.009 250.1 115.7C250.1 104.927 241.379 96.0986 230.498 96.2C219.723 96.2012 211 104.925 211 115.7C211 120.103 212.433 124.421 215.117 127.621L215.269 127.802L215.505 127.8L245.905 127.5Z" fill="white" stroke="black"/>
<path d="M300.905 127.5L301.153 127.497L301.302 127.298C303.664 124.113 305.1 120.009 305.1 115.7C305.1 104.927 296.379 96.0986 285.498 96.2C274.723 96.2012 266 104.925 266 115.7C266 120.103 267.433 124.421 270.117 127.621L270.269 127.802L270.505 127.8L300.905 127.5Z" fill="white" stroke="black"/>
<path d="M236 100.8C234.7 100.9 233.7 101.9 233.7 103.2C233.7 104.5 234.8 105.6 236.1 105.6C237.4 105.6 238.5 104.5 238.5 103.2C238.5 101.9 237.4 100.8 236.1 100.8H236L238.9 99.8C243.2 99.8 246.6 103.3 246.6 107.5C246.6 111.7 243.1 115.2 238.9 115.2C234.7 115.2 231.2 111.7 231.2 107.5C231.2 103.3 234.7 99.8 238.9 99.8" fill="black"/>
<path d="M291 100.8C289.7 100.9 288.7 101.9 288.7 103.2C288.7 104.5 289.8 105.6 291.1 105.6C292.4 105.6 293.5 104.5 293.5 103.2C293.5 101.9 292.4 100.8 291.1 100.8C291.1 100.8 291 100.8 291 100.8L293.9 99.8C298.2 99.8 301.6 103.3 301.6 107.5C301.6 111.7 298.1 115.2 293.9 115.2C289.7 115.2 286.2 111.7 286.2 107.5C286.2 103.3 289.7 99.8 293.9 99.8" fill="black"/>
<path d="M226.4 157.1H290.8C275.4 220.9 265.7 262.5 265.7 308.1C265.7 316.1 265.7 377.6 289.1 377.6C301.1 377.6 311.3 366.8 311.3 357.1C311.3 354.3 311.3 353.1 307.3 344.6C291.9 305.3 291.9 256.3 291.9 252.3C291.9 248.9 291.9 208.4 303.9 157.2L373.1 156.2C386.9 155.8 399.7 135.3 399.7 117C399.7 104.5 382.8 127.1 355.7 127.1L185.4 126.4C172.3 126.4 152.9 126.4 126.7 154.3C111.9 170.8 112.7 201 112.7 204.4C112.7 207.8 115.5 209 119 209C123 209 125.7 208.3 126.4 203.9C134.4 156.6 166.6 157.2 180.9 157.2H213.4C200.9 199.9 186.6 249.5 139.9 349.2C135.3 358.3 135.3 359.5 135.3 362.9C135.3 374.9 145.6 377.7 150.7 377.7C167.2 377.7 171.8 362.9 178.6 339C187.7 309.9 187.7 308.8 193.4 286L226.4 157.1Z" fill="#0C7F99"/>
<path d="M240.3 148.3C239.8 151.5 238.2 155.8 249.7 154.5C263.2 153 266.6 150.6 271.6 147.9L271.3 144.8C267.6 144.9 259.8 145.5 254.6 144.4C250.4 143.5 241.8 143.4 241.3 145.3" fill="black"/>
</svg>
