<svg width="480" height="270" viewBox="0 0 480 270" fill="none" xmlns="http://www.w3.org/2000/svg">
<g clip-path="url(#clip0_326_13010)">
<path d="M480 0H0V270H480V0Z" fill="black"/>
<path d="M107.664 78.806C107.677 78.7793 107.744 78.0193 107.864 76.526C107.984 75.0327 108.044 74.2727 108.044 74.246V74.126H120.264V74.246C120.277 74.2727 120.344 75.0327 120.464 76.526C120.584 78.0193 120.644 78.7793 120.644 78.806V78.926H119.844V78.806C119.831 78.7527 119.811 78.5927 119.784 78.326C119.691 77.0327 119.477 76.1927 119.144 75.806C118.917 75.526 118.551 75.3127 118.044 75.166C117.764 75.0993 117.251 75.066 116.504 75.066H115.964C115.657 75.066 115.464 75.0793 115.384 75.106C115.317 75.1193 115.264 75.186 115.224 75.306C115.211 75.3327 115.204 77.1927 115.204 80.886V86.406C115.311 86.5527 115.477 86.646 115.704 86.686C116.184 86.726 116.784 86.746 117.504 86.746H118.104V87.666H117.844C117.564 87.626 116.337 87.606 114.164 87.606C111.991 87.606 110.764 87.626 110.484 87.666H110.224V86.746H110.824C111.544 86.746 112.144 86.726 112.624 86.686C112.851 86.646 113.017 86.5527 113.124 86.406V80.886C113.124 77.1927 113.117 75.3327 113.104 75.306C113.064 75.186 113.004 75.1193 112.924 75.106C112.857 75.0793 112.671 75.066 112.364 75.066H111.824C111.197 75.066 110.817 75.0727 110.684 75.086C110.111 75.1793 109.657 75.366 109.324 75.646C108.897 76.006 108.631 76.8993 108.524 78.326C108.497 78.5927 108.477 78.7527 108.464 78.806V78.926H107.664V78.806ZM121.818 79.046C121.871 79.046 122.371 79.0127 123.318 78.946C124.278 78.866 124.771 78.826 124.798 78.826H124.858V80.206C125.111 79.7793 125.391 79.446 125.698 79.206C126.004 78.966 126.411 78.846 126.918 78.846C127.291 78.846 127.611 78.9193 127.878 79.066C128.398 79.3327 128.658 79.7127 128.658 80.206C128.658 80.4993 128.558 80.746 128.358 80.946C128.158 81.1327 127.918 81.226 127.638 81.226C127.358 81.226 127.118 81.1327 126.918 80.946C126.731 80.7593 126.638 80.5193 126.638 80.226C126.638 79.9993 126.691 79.8127 126.798 79.666C126.824 79.6127 126.838 79.5793 126.838 79.566C126.811 79.5393 126.658 79.566 126.378 79.646C126.164 79.7527 126.004 79.8527 125.898 79.946C125.364 80.4527 125.058 81.2927 124.978 82.466V83.246C124.964 83.766 124.958 84.2127 124.958 84.586C124.958 84.7593 124.958 84.946 124.958 85.146C124.958 85.3327 124.958 85.4993 124.958 85.646C124.971 85.7927 124.978 85.926 124.978 86.046C124.978 86.166 124.978 86.266 124.978 86.346V86.446C125.031 86.5527 125.111 86.6193 125.218 86.646C125.351 86.6993 125.704 86.7327 126.278 86.746H126.898V87.666H126.718C126.478 87.626 125.631 87.606 124.178 87.606C122.871 87.606 122.124 87.626 121.938 87.666H121.778V86.746H122.098H122.318C122.878 86.746 123.211 86.6527 123.318 86.466V86.306C123.318 86.186 123.318 86.0327 123.318 85.846C123.331 85.6593 123.338 85.4527 123.338 85.226C123.338 84.986 123.338 84.726 123.338 84.446C123.338 84.1527 123.338 83.8727 123.338 83.606C123.338 83.1927 123.338 82.7527 123.338 82.286C123.338 81.806 123.338 81.4127 123.338 81.106L123.318 80.646C123.278 80.3927 123.178 80.226 123.018 80.146C122.871 80.0527 122.578 79.9927 122.138 79.966H121.778V79.506C121.778 79.1993 121.791 79.046 121.818 79.046ZM132.29 81.246C132.09 81.4593 131.836 81.566 131.53 81.566C131.223 81.566 130.97 81.4593 130.77 81.246C130.57 81.0327 130.47 80.7793 130.47 80.486C130.47 80.2993 130.523 80.086 130.63 79.846C130.803 79.486 131.15 79.206 131.67 79.006C132.19 78.806 132.823 78.706 133.57 78.706C134.45 78.706 135.21 78.906 135.85 79.306C136.503 79.706 136.93 80.226 137.13 80.866C137.196 81.0527 137.23 81.266 137.23 81.506C137.243 81.7327 137.25 82.4927 137.25 83.786C137.25 85.0927 137.25 85.8593 137.25 86.086C137.263 86.2993 137.303 86.466 137.37 86.586C137.45 86.7727 137.583 86.866 137.77 86.866C137.943 86.866 138.07 86.7727 138.15 86.586C138.23 86.426 138.27 86.0593 138.27 85.486V84.766H139.07V85.546C139.056 86.0793 139.036 86.3927 139.01 86.486C138.89 86.8593 138.67 87.1727 138.35 87.426C138.03 87.666 137.65 87.786 137.21 87.786C136.876 87.786 136.576 87.6727 136.31 87.446C136.056 87.206 135.883 86.9193 135.79 86.586V86.506C135.75 86.546 135.67 86.6393 135.55 86.786C135.43 86.9193 135.343 87.0127 135.29 87.066C134.636 87.6127 133.876 87.886 133.01 87.886C132.316 87.886 131.696 87.7393 131.15 87.446C130.603 87.1527 130.236 86.766 130.05 86.286C129.943 86.0327 129.89 85.7793 129.89 85.526C129.89 84.8993 130.15 84.326 130.67 83.806C130.976 83.4993 131.356 83.246 131.81 83.046C132.716 82.6327 133.876 82.386 135.29 82.306H135.57V81.866C135.57 81.4127 135.53 81.0793 135.45 80.866C135.316 80.426 135.083 80.0793 134.75 79.826C134.416 79.5727 134.003 79.446 133.51 79.446C132.616 79.446 132.17 79.4993 132.17 79.606C132.463 79.806 132.61 80.0993 132.61 80.486C132.61 80.7793 132.503 81.0327 132.29 81.246ZM135.57 84.166C135.57 83.3927 135.563 83.006 135.55 83.006C135.51 83.006 135.476 83.0127 135.45 83.026C133.623 83.146 132.456 83.686 131.95 84.646C131.803 84.9127 131.73 85.2127 131.73 85.546C131.73 85.9993 131.89 86.3793 132.21 86.686C132.53 86.9927 132.923 87.146 133.39 87.146C133.923 87.146 134.376 86.986 134.75 86.666C135.136 86.346 135.39 85.9527 135.51 85.486C135.536 85.3927 135.556 84.9527 135.57 84.166ZM139.75 79.046C139.803 79.046 140.31 79.0127 141.27 78.946C142.243 78.866 142.743 78.826 142.77 78.826H142.83V79.626C142.83 80.1327 142.836 80.386 142.85 80.386L142.87 80.366C143.59 79.3393 144.61 78.826 145.93 78.826C147.463 78.8793 148.31 79.6327 148.47 81.086C148.483 81.1793 148.49 82.106 148.49 83.866C148.49 85.5727 148.496 86.4393 148.51 86.466C148.616 86.6527 148.95 86.746 149.51 86.746H149.73H150.05V87.666H149.89C149.716 87.626 148.97 87.606 147.65 87.606C146.33 87.606 145.583 87.626 145.41 87.666H145.25V86.746H145.57H145.73C146.436 86.746 146.79 86.6393 146.79 86.426C146.803 86.3993 146.81 85.4793 146.81 83.666C146.796 81.866 146.783 80.9127 146.77 80.806C146.676 80.3793 146.523 80.0727 146.31 79.886C146.11 79.686 145.796 79.586 145.37 79.586C144.77 79.586 144.243 79.8127 143.79 80.266C143.323 80.7327 143.05 81.3193 142.97 82.026C142.97 82.0393 142.97 82.166 142.97 82.406C142.97 82.6327 142.963 82.926 142.95 83.286C142.95 83.646 142.95 83.986 142.95 84.306C142.95 84.506 142.95 84.7193 142.95 84.946C142.95 85.1593 142.95 85.3527 142.95 85.526C142.963 85.6993 142.97 85.8593 142.97 86.006C142.97 86.1393 142.97 86.2527 142.97 86.346V86.466C143.076 86.6527 143.41 86.746 143.97 86.746H144.19H144.51V87.666H144.35C144.176 87.626 143.43 87.606 142.11 87.606C140.79 87.606 140.043 87.626 139.87 87.666H139.71V86.746H140.03H140.25C140.81 86.746 141.143 86.6527 141.25 86.466V86.306C141.25 86.186 141.25 86.0327 141.25 85.846C141.25 85.6593 141.25 85.4527 141.25 85.226C141.263 84.986 141.27 84.726 141.27 84.446C141.27 84.1527 141.27 83.8727 141.27 83.606C141.27 83.1927 141.263 82.7527 141.25 82.286C141.25 81.806 141.25 81.4127 141.25 81.106V80.646C141.21 80.3927 141.11 80.226 140.95 80.146C140.803 80.0527 140.51 79.9927 140.07 79.966H139.71V79.506C139.71 79.1993 139.723 79.046 139.75 79.046ZM156.223 81.346C156.223 80.7327 156.036 80.2527 155.663 79.906C155.29 79.5593 154.776 79.386 154.123 79.386C152.896 79.386 152.283 79.8193 152.283 80.686C152.283 80.8593 152.296 80.9727 152.323 81.026C152.443 81.346 152.65 81.5793 152.943 81.726C153.236 81.8593 153.69 81.986 154.303 82.106C155.063 82.2393 155.583 82.386 155.863 82.546C156.703 82.946 157.243 83.606 157.483 84.526C157.496 84.606 157.503 84.766 157.503 85.006C157.503 85.9527 157.216 86.666 156.643 87.146C156.083 87.626 155.296 87.866 154.283 87.866C153.483 87.866 152.79 87.626 152.203 87.146L152.043 87.286L151.863 87.466C151.783 87.546 151.703 87.6193 151.623 87.686L151.403 87.886H151.243C151.15 87.886 151.063 87.846 150.983 87.766V86.186C150.983 85.3327 150.983 84.8393 150.983 84.706C150.996 84.5593 151.03 84.4727 151.083 84.446C151.11 84.4327 151.216 84.426 151.403 84.426C151.576 84.426 151.676 84.4393 151.703 84.466C151.743 84.4927 151.783 84.586 151.823 84.746C151.93 85.2527 152.103 85.7127 152.343 86.126C152.81 86.806 153.456 87.146 154.283 87.146C155.576 87.146 156.223 86.626 156.223 85.586C156.223 85.1993 156.103 84.886 155.863 84.646C155.65 84.3927 155.37 84.2127 155.023 84.106C154.796 84.0527 154.476 83.9793 154.063 83.886C153.316 83.7393 152.81 83.5993 152.543 83.466C151.663 83.0527 151.15 82.4327 151.003 81.606C150.99 81.5527 150.983 81.4527 150.983 81.306C150.983 79.7727 151.923 78.9127 153.803 78.726C153.856 78.6993 154.016 78.6993 154.283 78.726C154.816 78.726 155.283 78.826 155.683 79.026L155.983 79.186L156.163 79.046C156.336 78.8993 156.483 78.786 156.603 78.706H156.763C156.856 78.706 156.943 78.746 157.023 78.826V81.466L156.903 81.586H156.343C156.263 81.506 156.223 81.426 156.223 81.346ZM163.654 87.666C163.414 87.626 162.567 87.606 161.114 87.606C159.807 87.606 159.061 87.626 158.874 87.666H158.714V86.746H159.034H159.254C159.814 86.746 160.147 86.6527 160.254 86.466C160.267 86.4393 160.274 85.346 160.274 83.186V79.966H158.854V79.046H160.274V77.726L160.294 76.386L160.334 76.186C160.547 75.4527 160.927 74.8593 161.474 74.406C162.021 73.9527 162.701 73.6793 163.514 73.586C163.527 73.586 163.587 73.586 163.694 73.586C163.814 73.5727 163.907 73.566 163.974 73.566C164.441 73.5927 164.834 73.746 165.154 74.026C165.474 74.306 165.634 74.6727 165.634 75.126C165.634 75.4327 165.541 75.6793 165.354 75.866C165.167 76.0527 164.921 76.146 164.614 76.146C164.307 76.146 164.061 76.0527 163.874 75.866C163.687 75.6793 163.594 75.4327 163.594 75.126C163.594 74.886 163.714 74.6193 163.954 74.326H163.874C163.754 74.2993 163.607 74.2993 163.434 74.326C163.114 74.3793 162.821 74.546 162.554 74.826C162.301 75.0927 162.107 75.426 161.974 75.826C161.894 76.0927 161.847 76.726 161.834 77.726V79.046H164.054V79.966H161.894V83.166C161.894 85.326 161.901 86.4193 161.914 86.446C161.967 86.5527 162.047 86.6193 162.154 86.646C162.287 86.6993 162.641 86.7327 163.214 86.746H163.834V87.666H163.654ZM164.867 83.386C164.867 82.1727 165.254 81.1327 166.027 80.266C166.801 79.386 167.727 78.8793 168.807 78.746C169.021 78.7193 169.187 78.706 169.307 78.706C170.467 78.706 171.474 79.1327 172.327 79.986C173.261 80.9193 173.727 82.046 173.727 83.366C173.727 83.6327 173.694 83.946 173.627 84.306C173.467 85.146 173.087 85.8793 172.487 86.506C171.901 87.1193 171.187 87.5327 170.347 87.746C170.041 87.826 169.694 87.866 169.307 87.866C168.907 87.866 168.554 87.826 168.247 87.746C167.247 87.4927 166.434 86.966 165.807 86.166C165.181 85.3527 164.867 84.426 164.867 83.386ZM170.387 79.686C170.027 79.526 169.681 79.446 169.347 79.446C168.947 79.446 168.567 79.526 168.207 79.686C167.461 80.0593 167.014 80.786 166.867 81.866C166.841 82.106 166.827 82.5327 166.827 83.146C166.827 84.4127 166.954 85.3127 167.207 85.846C167.634 86.6593 168.334 87.066 169.307 87.066C170.934 87.066 171.747 85.9793 171.747 83.806V83.166C171.747 82.2993 171.714 81.7127 171.647 81.406C171.474 80.5927 171.054 80.0193 170.387 79.686ZM174.747 79.046C174.801 79.046 175.301 79.0127 176.247 78.946C177.207 78.866 177.701 78.826 177.727 78.826H177.787V80.206C178.041 79.7793 178.321 79.446 178.627 79.206C178.934 78.966 179.341 78.846 179.847 78.846C180.221 78.846 180.541 78.9193 180.807 79.066C181.327 79.3327 181.587 79.7127 181.587 80.206C181.587 80.4993 181.487 80.746 181.287 80.946C181.087 81.1327 180.847 81.226 180.567 81.226C180.287 81.226 180.047 81.1327 179.847 80.946C179.661 80.7593 179.567 80.5193 179.567 80.226C179.567 79.9993 179.621 79.8127 179.727 79.666C179.754 79.6127 179.767 79.5793 179.767 79.566C179.741 79.5393 179.587 79.566 179.307 79.646C179.094 79.7527 178.934 79.8527 178.827 79.946C178.294 80.4527 177.987 81.2927 177.907 82.466V83.246C177.894 83.766 177.887 84.2127 177.887 84.586C177.887 84.7593 177.887 84.946 177.887 85.146C177.887 85.3327 177.887 85.4993 177.887 85.646C177.901 85.7927 177.907 85.926 177.907 86.046C177.907 86.166 177.907 86.266 177.907 86.346V86.446C177.961 86.5527 178.041 86.6193 178.147 86.646C178.281 86.6993 178.634 86.7327 179.207 86.746H179.827V87.666H179.647C179.407 87.626 178.561 87.606 177.107 87.606C175.801 87.606 175.054 87.626 174.867 87.666H174.707V86.746H175.027H175.247C175.807 86.746 176.141 86.6527 176.247 86.466V86.306C176.247 86.186 176.247 86.0327 176.247 85.846C176.261 85.6593 176.267 85.4527 176.267 85.226C176.267 84.986 176.267 84.726 176.267 84.446C176.267 84.1527 176.267 83.8727 176.267 83.606C176.267 83.1927 176.267 82.7527 176.267 82.286C176.267 81.806 176.267 81.4127 176.267 81.106L176.247 80.646C176.207 80.3927 176.107 80.226 175.947 80.146C175.801 80.0527 175.507 79.9927 175.067 79.966H174.707V79.506C174.707 79.1993 174.721 79.046 174.747 79.046ZM182.679 79.046C182.733 79.046 183.239 79.0127 184.199 78.946C185.173 78.866 185.673 78.826 185.699 78.826H185.759V79.626C185.759 80.1327 185.766 80.386 185.779 80.386L185.799 80.366C186.519 79.3393 187.539 78.826 188.859 78.826C190.153 78.866 190.946 79.3727 191.239 80.346L191.279 80.446C191.599 80.046 191.779 79.826 191.819 79.786C192.499 79.146 193.293 78.826 194.199 78.826C195.866 78.826 196.779 79.5793 196.939 81.086C196.953 81.1793 196.959 82.106 196.959 83.866C196.959 85.5727 196.966 86.4393 196.979 86.466C197.086 86.6527 197.419 86.746 197.979 86.746H198.199H198.519V87.666H198.359C198.186 87.626 197.439 87.606 196.119 87.606C194.799 87.606 194.053 87.626 193.879 87.666H193.719V86.746H194.039H194.199C194.906 86.746 195.259 86.6393 195.259 86.426C195.273 86.3993 195.279 85.4793 195.279 83.666C195.266 81.866 195.253 80.9127 195.239 80.806C195.146 80.3793 194.993 80.0727 194.779 79.886C194.579 79.686 194.266 79.586 193.839 79.586C193.239 79.586 192.713 79.8127 192.259 80.266C191.793 80.7327 191.519 81.3193 191.439 82.026C191.439 82.0393 191.433 82.166 191.419 82.406C191.419 82.6327 191.419 82.926 191.419 83.286C191.419 83.646 191.419 83.986 191.419 84.306C191.419 84.506 191.419 84.7193 191.419 84.946C191.419 85.1593 191.419 85.3527 191.419 85.526C191.419 85.6993 191.419 85.8593 191.419 86.006C191.433 86.1393 191.439 86.2527 191.439 86.346V86.466C191.546 86.6527 191.879 86.746 192.439 86.746H192.659H192.979V87.666H192.819C192.646 87.626 191.899 87.606 190.579 87.606C189.259 87.606 188.513 87.626 188.339 87.666H188.179V86.746H188.499H188.659C189.366 86.746 189.719 86.6393 189.719 86.426C189.733 86.3993 189.739 85.4793 189.739 83.666C189.726 81.866 189.713 80.9127 189.699 80.806C189.606 80.3793 189.453 80.0727 189.239 79.886C189.039 79.686 188.726 79.586 188.299 79.586C187.699 79.586 187.173 79.8127 186.719 80.266C186.253 80.7327 185.979 81.3193 185.899 82.026C185.899 82.0393 185.899 82.166 185.899 82.406C185.899 82.6327 185.893 82.926 185.879 83.286C185.879 83.646 185.879 83.986 185.879 84.306C185.879 84.506 185.879 84.7193 185.879 84.946C185.879 85.1593 185.879 85.3527 185.879 85.526C185.893 85.6993 185.899 85.8593 185.899 86.006C185.899 86.1393 185.899 86.2527 185.899 86.346V86.466C186.006 86.6527 186.339 86.746 186.899 86.746H187.119H187.439V87.666H187.279C187.106 87.626 186.359 87.606 185.039 87.606C183.719 87.606 182.973 87.626 182.799 87.666H182.639V86.746H182.959H183.179C183.739 86.746 184.073 86.6527 184.179 86.466V86.306C184.179 86.186 184.179 86.0327 184.179 85.846C184.179 85.6593 184.179 85.4527 184.179 85.226C184.193 84.986 184.199 84.726 184.199 84.446C184.199 84.1527 184.199 83.8727 184.199 83.606C184.199 83.1927 184.193 82.7527 184.179 82.286C184.179 81.806 184.179 81.4127 184.179 81.106V80.646C184.139 80.3927 184.039 80.226 183.879 80.146C183.733 80.0527 183.439 79.9927 182.999 79.966H182.639V79.506C182.639 79.1993 182.653 79.046 182.679 79.046Z" fill="white"/>
<path d="M178.28 195.6C178.133 195.453 178 195.367 177.88 195.34C177.76 195.3 177.453 195.273 176.96 195.26H176.38V194.34H176.56C176.747 194.38 177.573 194.4 179.04 194.4C180.64 194.4 181.587 194.38 181.88 194.34H182.1V195.26H181.68C181.067 195.273 180.687 195.347 180.54 195.48C180.487 195.52 180.46 195.56 180.46 195.6C180.46 195.627 181.06 197.28 182.26 200.56C183.46 203.84 184.067 205.48 184.08 205.48C186.36 199.293 187.5 196.153 187.5 196.06C187.5 195.807 187.36 195.613 187.08 195.48C186.8 195.333 186.493 195.26 186.16 195.26H186.06V194.34H186.24C186.467 194.38 187.233 194.4 188.54 194.4C189.687 194.4 190.333 194.38 190.48 194.34H190.6V195.26H190.46C189.473 195.26 188.833 195.533 188.54 196.08C188.54 196.093 187.787 198.127 186.28 202.18C184.787 206.233 184.033 208.267 184.02 208.28C183.98 208.36 183.933 208.407 183.88 208.42C183.827 208.433 183.693 208.44 183.48 208.44C183.453 208.44 183.42 208.44 183.38 208.44C183.153 208.44 183.02 208.4 182.98 208.32L182.96 208.28L178.28 195.6ZM199.3 203.1C199.3 203.193 199.253 203.287 199.16 203.38H193.52V203.68C193.52 204.667 193.653 205.413 193.92 205.92C194.4 206.907 195.227 207.4 196.4 207.4C196.973 207.4 197.453 207.187 197.84 206.76C198.107 206.493 198.313 206.147 198.46 205.72C198.5 205.573 198.54 205.48 198.58 205.44C198.62 205.4 198.727 205.38 198.9 205.38C199.167 205.38 199.3 205.447 199.3 205.58C199.3 205.633 199.28 205.72 199.24 205.84C198.987 206.533 198.58 207.107 198.02 207.56C197.473 208 196.8 208.22 196 208.22C195.747 208.22 195.453 208.187 195.12 208.12C194.36 207.973 193.68 207.627 193.08 207.08C192.48 206.533 192.053 205.873 191.8 205.1C191.64 204.62 191.56 204.133 191.56 203.64C191.56 202.413 191.92 201.38 192.64 200.54C193.36 199.687 194.247 199.193 195.3 199.06C195.353 199.047 195.447 199.04 195.58 199.04C196.793 199.04 197.713 199.4 198.34 200.12C198.98 200.827 199.3 201.82 199.3 203.1ZM197.66 202.5C197.54 201.047 197.047 200.167 196.18 199.86C196.087 199.82 195.947 199.793 195.76 199.78C195.067 199.78 194.5 200.1 194.06 200.74C193.793 201.167 193.62 201.76 193.54 202.52V202.66H197.66V202.5ZM207.627 201.6C207.413 201.787 207.16 201.88 206.867 201.88C206.573 201.88 206.327 201.78 206.127 201.58C205.927 201.38 205.827 201.133 205.827 200.84C205.827 200.533 205.927 200.28 206.127 200.08C206.193 200.013 206.22 199.973 206.207 199.96C206.207 199.947 206.147 199.933 206.027 199.92C205.68 199.867 205.353 199.84 205.047 199.84C204.367 199.84 203.833 200.053 203.447 200.48C202.82 201.107 202.507 202.153 202.507 203.62C202.507 204.713 202.713 205.573 203.127 206.2C203.673 207.013 204.407 207.42 205.327 207.42C205.66 207.42 205.953 207.353 206.207 207.22C206.767 206.94 207.153 206.42 207.367 205.66C207.393 205.553 207.427 205.487 207.467 205.46C207.507 205.433 207.613 205.42 207.787 205.42H208.067C208.147 205.5 208.187 205.56 208.187 205.6C208.187 205.853 208.02 206.247 207.687 206.78C207.02 207.74 206.08 208.22 204.867 208.22C204.2 208.22 203.567 208.067 202.967 207.76C201.647 207.08 200.853 205.947 200.587 204.36C200.573 204.28 200.567 204.067 200.567 203.72C200.567 203.373 200.573 203.153 200.587 203.06C200.72 202.02 201.133 201.127 201.827 200.38C202.533 199.633 203.4 199.193 204.427 199.06C204.44 199.06 204.5 199.06 204.607 199.06C204.713 199.047 204.807 199.04 204.887 199.04C206.607 199.04 207.613 199.493 207.907 200.4C207.947 200.52 207.967 200.673 207.967 200.86C207.967 201.167 207.853 201.413 207.627 201.6ZM211.593 196V195.7H212.393V199.38H215.093V200.3H212.393V203.18C212.407 204.847 212.413 205.793 212.413 206.02C212.427 206.233 212.473 206.44 212.553 206.64C212.74 207.16 213.067 207.42 213.533 207.42C214.12 207.42 214.48 206.947 214.613 206C214.627 205.893 214.633 205.587 214.633 205.08V204.38H215.433V205.08C215.433 205.693 215.4 206.133 215.333 206.4C215.187 206.933 214.933 207.367 214.573 207.7C214.227 208.033 213.767 208.2 213.193 208.2C212.473 208.2 211.9 208.007 211.473 207.62C211.047 207.22 210.8 206.68 210.733 206C210.72 205.907 210.713 204.92 210.713 203.04V200.3H209.133V199.56H209.313C209.807 199.52 210.227 199.307 210.573 198.92C211.187 198.28 211.527 197.307 211.593 196ZM217.107 203.72C217.107 202.507 217.494 201.467 218.267 200.6C219.04 199.72 219.967 199.213 221.047 199.08C221.26 199.053 221.427 199.04 221.547 199.04C222.707 199.04 223.714 199.467 224.567 200.32C225.5 201.253 225.967 202.38 225.967 203.7C225.967 203.967 225.934 204.28 225.867 204.64C225.707 205.48 225.327 206.213 224.727 206.84C224.14 207.453 223.427 207.867 222.587 208.08C222.28 208.16 221.934 208.2 221.547 208.2C221.147 208.2 220.794 208.16 220.487 208.08C219.487 207.827 218.674 207.3 218.047 206.5C217.42 205.687 217.107 204.76 217.107 203.72ZM222.627 200.02C222.267 199.86 221.92 199.78 221.587 199.78C221.187 199.78 220.807 199.86 220.447 200.02C219.7 200.393 219.254 201.12 219.107 202.2C219.08 202.44 219.067 202.867 219.067 203.48C219.067 204.747 219.194 205.647 219.447 206.18C219.874 206.993 220.574 207.4 221.547 207.4C223.174 207.4 223.987 206.313 223.987 204.14V203.5C223.987 202.633 223.954 202.047 223.887 201.74C223.714 200.927 223.294 200.353 222.627 200.02ZM226.987 199.38C227.04 199.38 227.54 199.347 228.487 199.28C229.447 199.2 229.94 199.16 229.967 199.16H230.027V200.54C230.28 200.113 230.56 199.78 230.867 199.54C231.174 199.3 231.58 199.18 232.087 199.18C232.46 199.18 232.78 199.253 233.047 199.4C233.567 199.667 233.827 200.047 233.827 200.54C233.827 200.833 233.727 201.08 233.527 201.28C233.327 201.467 233.087 201.56 232.807 201.56C232.527 201.56 232.287 201.467 232.087 201.28C231.9 201.093 231.807 200.853 231.807 200.56C231.807 200.333 231.86 200.147 231.967 200C231.994 199.947 232.007 199.913 232.007 199.9C231.98 199.873 231.827 199.9 231.547 199.98C231.334 200.087 231.174 200.187 231.067 200.28C230.534 200.787 230.227 201.627 230.147 202.8V203.58C230.134 204.1 230.127 204.547 230.127 204.92C230.127 205.093 230.127 205.28 230.127 205.48C230.127 205.667 230.127 205.833 230.127 205.98C230.14 206.127 230.147 206.26 230.147 206.38C230.147 206.5 230.147 206.6 230.147 206.68V206.78C230.2 206.887 230.28 206.953 230.387 206.98C230.52 207.033 230.874 207.067 231.447 207.08H232.067V208H231.887C231.647 207.96 230.8 207.94 229.347 207.94C228.04 207.94 227.294 207.96 227.107 208H226.947V207.08H227.267H227.487C228.047 207.08 228.38 206.987 228.487 206.8V206.64C228.487 206.52 228.487 206.367 228.487 206.18C228.5 205.993 228.507 205.787 228.507 205.56C228.507 205.32 228.507 205.06 228.507 204.78C228.507 204.487 228.507 204.207 228.507 203.94C228.507 203.527 228.507 203.087 228.507 202.62C228.507 202.14 228.507 201.747 228.507 201.44L228.487 200.98C228.447 200.727 228.347 200.56 228.187 200.48C228.04 200.387 227.747 200.327 227.307 200.3H226.947V199.84C226.947 199.533 226.96 199.38 226.987 199.38Z" fill="#FFF888"/>
<rect x="114.37" y="106.565" width="251.261" height="56.87" fill="black"/>
<g clip-path="url(#clip1_326_13010)">
<path d="M126.25 131.355C125.883 131.355 125.591 131.233 125.374 130.989C125.157 130.745 125.048 130.446 125.048 130.093C125.048 129.129 125.408 128.294 126.128 127.588C126.847 126.883 127.743 126.53 128.815 126.53C130.051 126.53 131.082 126.91 131.91 127.67C132.738 128.43 133.159 129.414 133.173 130.622C133.173 131.206 133.037 131.763 132.766 132.292C132.494 132.822 132.168 133.283 131.788 133.677C131.408 134.07 130.865 134.573 130.159 135.184C129.671 135.604 128.992 136.229 128.123 137.057L126.922 138.197L128.469 138.217C130.6 138.217 131.734 138.184 131.87 138.116C131.965 138.089 132.128 137.484 132.358 136.303V136.242H133.173V136.303C133.159 136.344 133.071 136.962 132.908 138.156C132.745 139.351 132.643 139.975 132.603 140.03V140.091H125.048V139.704V139.46C125.048 139.365 125.089 139.263 125.171 139.154C125.252 139.046 125.456 138.808 125.781 138.441C126.175 138.007 126.514 137.627 126.799 137.301C126.922 137.165 127.152 136.914 127.492 136.548C127.831 136.181 128.062 135.93 128.184 135.794C128.306 135.659 128.503 135.435 128.775 135.122C129.046 134.81 129.236 134.579 129.345 134.43C129.453 134.281 129.609 134.077 129.813 133.819C130.017 133.561 130.159 133.344 130.241 133.168C130.322 132.991 130.424 132.794 130.546 132.577C130.668 132.36 130.757 132.143 130.811 131.926C130.865 131.708 130.913 131.505 130.953 131.315C130.994 131.125 131.014 130.901 131.014 130.643C131.014 129.788 130.784 129.048 130.322 128.423C129.861 127.799 129.202 127.487 128.347 127.487C127.899 127.487 127.505 127.602 127.166 127.833C126.827 128.064 126.589 128.288 126.453 128.505C126.318 128.722 126.25 128.851 126.25 128.892C126.25 128.905 126.284 128.912 126.352 128.912C126.596 128.912 126.847 129.007 127.105 129.197C127.363 129.387 127.492 129.699 127.492 130.134C127.492 130.473 127.383 130.758 127.166 130.989C126.949 131.22 126.643 131.342 126.25 131.355Z" fill="#92D192"/>
<path d="M156.284 135.265C156.284 135.265 156.284 135.176 156.284 135C156.284 134.824 156.379 134.688 156.569 134.593H168.399C168.603 134.701 168.705 134.837 168.705 135C168.705 135.163 168.603 135.299 168.399 135.407H156.569C156.379 135.312 156.284 135.176 156.284 135V135.265Z" fill="#FF777A"/>
<path d="M174.752 128.321L174.488 128.423C174.298 128.491 174.026 128.559 173.673 128.627C173.32 128.695 172.927 128.742 172.492 128.769H172.105V127.833H172.492C173.13 127.806 173.721 127.704 174.264 127.527C174.807 127.351 175.187 127.188 175.404 127.039C175.621 126.889 175.811 126.74 175.974 126.591C176.001 126.55 176.083 126.53 176.219 126.53C176.341 126.53 176.456 126.57 176.565 126.652V132.74L176.585 138.849C176.68 138.944 176.762 139.005 176.829 139.032C176.897 139.059 177.06 139.086 177.318 139.113C177.576 139.141 177.997 139.154 178.581 139.154H179.11V140.091H178.886C178.601 140.05 177.522 140.03 175.648 140.03C173.802 140.03 172.737 140.05 172.452 140.091H172.207V139.154H172.737C173.035 139.154 173.293 139.154 173.51 139.154C173.728 139.154 173.897 139.147 174.019 139.134C174.142 139.12 174.25 139.1 174.345 139.073C174.44 139.046 174.495 139.032 174.508 139.032C174.522 139.032 174.562 138.998 174.63 138.93C174.698 138.862 174.739 138.835 174.752 138.849V128.321Z" fill="#FF777A"/>
<path d="M194.681 159.425V110.576H200.158V111.838H195.943V158.162H200.158V159.425H194.681Z" fill="#F0F0F0"/>
<path d="M202.989 116.409C202.622 116.409 202.337 116.294 202.134 116.063C201.93 115.833 201.821 115.534 201.808 115.167C201.808 114.421 202.134 113.756 202.785 113.172C203.437 112.588 204.224 112.296 205.147 112.296C205.622 112.296 205.921 112.303 206.043 112.317C207.048 112.48 207.815 112.839 208.344 113.396C208.873 113.952 209.145 114.557 209.158 115.208C209.158 115.914 208.928 116.6 208.466 117.265C208.005 117.93 207.367 118.412 206.552 118.71L206.491 118.751C206.491 118.765 206.552 118.785 206.674 118.812C206.796 118.839 206.993 118.9 207.265 118.995C207.536 119.091 207.794 119.233 208.039 119.423C209.152 120.143 209.708 121.093 209.708 122.274C209.708 123.346 209.287 124.283 208.446 125.084C207.604 125.885 206.539 126.285 205.249 126.285C204.163 126.285 203.226 125.993 202.439 125.41C201.652 124.826 201.258 124.086 201.258 123.19C201.258 122.81 201.38 122.505 201.624 122.274C201.869 122.043 202.174 121.921 202.541 121.907C202.921 121.907 203.233 122.029 203.477 122.274C203.722 122.518 203.844 122.824 203.844 123.19C203.844 123.339 203.824 123.475 203.783 123.597C203.742 123.72 203.695 123.828 203.64 123.923C203.586 124.018 203.511 124.1 203.416 124.167C203.321 124.235 203.24 124.29 203.172 124.33C203.104 124.371 203.036 124.398 202.968 124.412C202.9 124.425 202.846 124.446 202.805 124.473L202.724 124.493C203.416 125.104 204.258 125.41 205.249 125.41C205.996 125.41 206.559 125.05 206.939 124.33C207.17 123.882 207.285 123.197 207.285 122.274V121.867C207.285 120.577 206.851 119.715 205.982 119.281C205.778 119.199 205.364 119.152 204.74 119.138L203.885 119.118L203.824 119.077C203.796 119.036 203.783 118.928 203.783 118.751C203.783 118.507 203.837 118.385 203.946 118.385C204.326 118.385 204.72 118.351 205.127 118.283C205.588 118.215 206.009 117.93 206.389 117.428C206.769 116.925 206.959 116.165 206.959 115.147V114.984C206.959 114.21 206.722 113.674 206.247 113.376C205.948 113.185 205.629 113.09 205.29 113.09C204.855 113.09 204.455 113.165 204.088 113.314C203.722 113.464 203.464 113.62 203.315 113.783C203.165 113.946 203.091 114.027 203.091 114.027H203.152C203.192 114.041 203.247 114.054 203.315 114.068C203.382 114.081 203.45 114.115 203.518 114.17C203.586 114.224 203.667 114.271 203.762 114.312C203.858 114.353 203.925 114.428 203.966 114.536C204.007 114.645 204.061 114.747 204.129 114.842C204.197 114.937 204.217 115.072 204.19 115.249C204.19 115.547 204.095 115.812 203.905 116.043C203.715 116.274 203.41 116.396 202.989 116.409Z" fill="#92D192"/>
<path d="M202.622 145.609C202.256 145.609 201.964 145.487 201.747 145.243C201.529 144.998 201.421 144.7 201.421 144.347C201.421 143.383 201.781 142.548 202.5 141.842C203.219 141.136 204.115 140.784 205.188 140.784C206.423 140.784 207.455 141.164 208.283 141.924C209.111 142.684 209.532 143.668 209.545 144.876C209.545 145.46 209.41 146.017 209.138 146.546C208.867 147.075 208.541 147.537 208.161 147.931C207.781 148.324 207.238 148.827 206.532 149.437C206.043 149.858 205.364 150.483 204.495 151.311L203.294 152.451L204.842 152.471C206.973 152.471 208.106 152.437 208.242 152.37C208.337 152.342 208.5 151.738 208.731 150.557V150.496H209.545V150.557C209.532 150.598 209.443 151.216 209.281 152.41C209.118 153.605 209.016 154.229 208.975 154.284V154.345H201.421V153.958V153.713C201.421 153.618 201.462 153.517 201.543 153.408C201.624 153.299 201.828 153.062 202.154 152.695C202.547 152.261 202.887 151.881 203.172 151.555C203.294 151.419 203.525 151.168 203.864 150.802C204.204 150.435 204.434 150.184 204.557 150.048C204.679 149.913 204.876 149.689 205.147 149.376C205.419 149.064 205.609 148.833 205.717 148.684C205.826 148.535 205.982 148.331 206.186 148.073C206.389 147.815 206.532 147.598 206.613 147.422C206.695 147.245 206.796 147.048 206.919 146.831C207.041 146.614 207.129 146.397 207.183 146.179C207.238 145.962 207.285 145.759 207.326 145.569C207.367 145.379 207.387 145.155 207.387 144.897C207.387 144.041 207.156 143.302 206.695 142.677C206.233 142.053 205.575 141.741 204.719 141.741C204.271 141.741 203.878 141.856 203.538 142.087C203.199 142.317 202.962 142.541 202.826 142.759C202.69 142.976 202.622 143.105 202.622 143.146C202.622 143.159 202.656 143.166 202.724 143.166C202.968 143.166 203.219 143.261 203.477 143.451C203.735 143.641 203.864 143.953 203.864 144.388C203.864 144.727 203.756 145.012 203.538 145.243C203.321 145.474 203.016 145.596 202.622 145.609Z" fill="#FF777A"/>
<path d="M210.808 111.838V110.576H216.285V159.425H210.808V158.162H215.023V111.838H210.808Z" fill="#F0F0F0"/>
<path d="M228.13 133.025C228.13 132.849 228.225 132.713 228.415 132.618H241.386C241.589 132.727 241.691 132.862 241.691 133.025C241.691 133.175 241.596 133.304 241.406 133.412L234.931 133.433H228.456C228.238 133.365 228.13 133.229 228.13 133.025ZM228.13 136.976C228.13 136.772 228.238 136.636 228.456 136.568H241.406C241.596 136.704 241.691 136.84 241.691 136.976C241.691 137.152 241.589 137.288 241.386 137.383H228.415C228.225 137.288 228.13 137.152 228.13 136.976Z" fill="#F0F0F0"/>
<path d="M251.074 130.663C250.708 130.663 250.422 130.548 250.219 130.317C250.015 130.086 249.907 129.788 249.893 129.421C249.893 128.675 250.219 128.01 250.87 127.426C251.522 126.842 252.309 126.55 253.232 126.55C253.708 126.55 254.006 126.557 254.128 126.571C255.133 126.733 255.9 127.093 256.429 127.65C256.959 128.206 257.23 128.81 257.244 129.462C257.244 130.168 257.013 130.853 256.551 131.519C256.09 132.184 255.452 132.666 254.637 132.964L254.576 133.005C254.576 133.019 254.637 133.039 254.76 133.066C254.882 133.093 255.079 133.154 255.35 133.249C255.622 133.344 255.88 133.487 256.124 133.677C257.237 134.396 257.794 135.347 257.794 136.528C257.794 137.6 257.373 138.537 256.531 139.338C255.689 140.139 254.624 140.539 253.334 140.539C252.248 140.539 251.312 140.247 250.524 139.663C249.737 139.08 249.343 138.34 249.343 137.444C249.343 137.064 249.465 136.758 249.71 136.528C249.954 136.297 250.26 136.175 250.626 136.161C251.006 136.161 251.318 136.283 251.563 136.528C251.807 136.772 251.929 137.077 251.929 137.444C251.929 137.593 251.909 137.729 251.868 137.851C251.827 137.973 251.78 138.082 251.726 138.177C251.671 138.272 251.597 138.354 251.502 138.421C251.407 138.489 251.325 138.544 251.257 138.584C251.189 138.625 251.122 138.652 251.054 138.666C250.986 138.679 250.932 138.7 250.891 138.727L250.809 138.747C251.502 139.358 252.343 139.663 253.334 139.663C254.081 139.663 254.644 139.304 255.024 138.584C255.255 138.136 255.37 137.451 255.37 136.528V136.12C255.37 134.831 254.936 133.969 254.067 133.534C253.864 133.453 253.45 133.406 252.825 133.392L251.97 133.372L251.909 133.331C251.882 133.29 251.868 133.182 251.868 133.005C251.868 132.761 251.922 132.639 252.031 132.639C252.411 132.639 252.805 132.605 253.212 132.537C253.674 132.469 254.094 132.184 254.475 131.682C254.855 131.179 255.045 130.419 255.045 129.401V129.238C255.045 128.464 254.807 127.928 254.332 127.629C254.033 127.439 253.714 127.344 253.375 127.344C252.941 127.344 252.54 127.419 252.174 127.568C251.807 127.718 251.549 127.874 251.4 128.037C251.251 128.2 251.176 128.281 251.176 128.281H251.237C251.278 128.295 251.332 128.308 251.4 128.322C251.468 128.335 251.536 128.369 251.603 128.424C251.671 128.478 251.753 128.525 251.848 128.566C251.943 128.607 252.011 128.681 252.051 128.79C252.092 128.899 252.146 129 252.214 129.096C252.282 129.191 252.303 129.326 252.275 129.503C252.275 129.801 252.18 130.066 251.99 130.297C251.8 130.528 251.495 130.65 251.074 130.663Z" fill="#92D192"/>
<path d="M260.583 135.001C260.583 134.064 260.651 133.175 260.787 132.333C260.922 131.491 261.079 130.765 261.255 130.154C261.432 129.543 261.683 128.946 262.008 128.362C262.334 127.779 262.592 127.324 262.782 126.998C262.972 126.672 263.257 126.319 263.637 125.939C264.018 125.559 264.242 125.329 264.309 125.247C264.377 125.166 264.547 125.023 264.818 124.819H265.083H265.165C265.355 124.819 265.45 124.881 265.45 125.003C265.45 125.043 265.334 125.186 265.104 125.43C264.873 125.675 264.594 126.034 264.269 126.51C263.943 126.985 263.61 127.568 263.271 128.261C262.932 128.953 262.646 129.89 262.416 131.071C262.185 132.252 262.07 133.562 262.07 135.001C262.07 136.439 262.185 137.743 262.416 138.91C262.646 140.078 262.925 141.021 263.251 141.74C263.576 142.46 263.909 143.044 264.248 143.492C264.588 143.94 264.873 144.299 265.104 144.571C265.334 144.842 265.45 144.985 265.45 144.998C265.45 145.121 265.348 145.182 265.144 145.182H265.083H264.818L264.248 144.693C262.972 143.539 262.042 142.1 261.459 140.376C260.875 138.652 260.583 136.86 260.583 135.001Z" fill="#92D192"/>
<path d="M268.81 131.355C268.443 131.355 268.151 131.233 267.934 130.989C267.717 130.745 267.608 130.446 267.608 130.093C267.608 129.129 267.968 128.294 268.687 127.588C269.407 126.883 270.303 126.53 271.375 126.53C272.61 126.53 273.642 126.91 274.47 127.67C275.298 128.43 275.719 129.414 275.733 130.622C275.733 131.206 275.597 131.763 275.325 132.292C275.054 132.822 274.728 133.283 274.348 133.677C273.968 134.07 273.425 134.573 272.719 135.184C272.23 135.604 271.552 136.229 270.683 137.057L269.481 138.197L271.029 138.217C273.16 138.217 274.294 138.184 274.429 138.116C274.525 138.089 274.687 137.484 274.918 136.303V136.242H275.733V136.303C275.719 136.344 275.631 136.962 275.468 138.156C275.305 139.351 275.203 139.975 275.163 140.03V140.091H267.608V139.704V139.46C267.608 139.365 267.649 139.263 267.73 139.154C267.812 139.046 268.015 138.808 268.341 138.441C268.735 138.007 269.074 137.627 269.359 137.301C269.481 137.165 269.712 136.914 270.052 136.548C270.391 136.181 270.622 135.93 270.744 135.794C270.866 135.659 271.063 135.435 271.334 135.122C271.606 134.81 271.796 134.579 271.905 134.43C272.013 134.281 272.169 134.077 272.373 133.819C272.577 133.561 272.719 133.344 272.801 133.168C272.882 132.991 272.984 132.794 273.106 132.577C273.228 132.36 273.316 132.143 273.371 131.926C273.425 131.708 273.472 131.505 273.513 131.315C273.554 131.125 273.574 130.901 273.574 130.643C273.574 129.788 273.344 129.048 272.882 128.423C272.42 127.799 271.762 127.487 270.907 127.487C270.459 127.487 270.065 127.602 269.726 127.833C269.386 128.064 269.149 128.288 269.013 128.505C268.877 128.722 268.81 128.851 268.81 128.892C268.81 128.905 268.843 128.912 268.911 128.912C269.156 128.912 269.407 129.007 269.665 129.197C269.923 129.387 270.052 129.699 270.052 130.134C270.052 130.473 269.943 130.758 269.726 130.989C269.509 131.22 269.203 131.342 268.81 131.355Z" fill="#92D192"/>
<path d="M277.993 124.84L278.074 124.819C278.142 124.819 278.21 124.819 278.278 124.819H278.522L279.092 125.308C280.368 126.462 281.298 127.901 281.882 129.625C282.466 131.349 282.758 133.141 282.758 135.001C282.758 135.924 282.69 136.813 282.554 137.668C282.418 138.523 282.262 139.249 282.086 139.847C281.909 140.444 281.658 141.041 281.332 141.639C281.006 142.236 280.748 142.691 280.558 143.003C280.368 143.315 280.09 143.661 279.724 144.041C279.357 144.421 279.14 144.645 279.072 144.713C279.004 144.781 278.848 144.91 278.604 145.1C278.563 145.141 278.536 145.168 278.522 145.182H278.278C278.169 145.182 278.095 145.182 278.054 145.182C278.013 145.182 277.979 145.161 277.952 145.121C277.925 145.08 277.905 145.019 277.891 144.937C277.905 144.924 277.979 144.835 278.115 144.673C280.219 142.487 281.271 139.263 281.271 135.001C281.271 130.738 280.219 127.514 278.115 125.329C277.979 125.166 277.905 125.077 277.891 125.064C277.891 124.955 277.925 124.881 277.993 124.84Z" fill="#92D192"/>
<path d="M290.357 135.265C290.357 135.265 290.357 135.177 290.357 135C290.357 134.824 290.452 134.688 290.642 134.593H296.73V131.539L296.75 128.485C296.886 128.308 297.015 128.22 297.137 128.22C297.314 128.22 297.45 128.322 297.545 128.525V134.593H303.612C303.816 134.702 303.918 134.838 303.918 135C303.918 135.163 303.816 135.299 303.612 135.408H297.545V141.476C297.436 141.666 297.314 141.761 297.178 141.761H297.137H297.097C296.934 141.761 296.812 141.666 296.73 141.476V135.408H290.642C290.452 135.313 290.357 135.177 290.357 135V135.265Z" fill="#F0F0F0"/>
<path d="M311.804 131.355C311.438 131.355 311.146 131.233 310.929 130.989C310.712 130.745 310.603 130.446 310.603 130.093C310.603 129.129 310.963 128.294 311.682 127.588C312.402 126.883 313.298 126.53 314.37 126.53C315.605 126.53 316.637 126.91 317.465 127.67C318.293 128.43 318.714 129.414 318.727 130.622C318.727 131.206 318.592 131.763 318.32 132.292C318.049 132.822 317.723 133.283 317.343 133.677C316.963 134.07 316.42 134.573 315.714 135.184C315.225 135.604 314.546 136.229 313.678 137.057L312.476 138.197L314.024 138.217C316.155 138.217 317.288 138.184 317.424 138.116C317.519 138.089 317.682 137.484 317.913 136.303V136.242H318.727V136.303C318.714 136.344 318.626 136.962 318.463 138.156C318.3 139.351 318.198 139.975 318.157 140.03V140.091H310.603V139.704V139.46C310.603 139.365 310.644 139.263 310.725 139.154C310.807 139.046 311.01 138.808 311.336 138.441C311.73 138.007 312.069 137.627 312.354 137.301C312.476 137.165 312.707 136.914 313.046 136.548C313.386 136.181 313.617 135.93 313.739 135.794C313.861 135.659 314.058 135.435 314.329 135.122C314.601 134.81 314.791 134.579 314.899 134.43C315.008 134.281 315.164 134.077 315.368 133.819C315.571 133.561 315.714 133.344 315.795 133.168C315.877 132.991 315.979 132.794 316.101 132.577C316.223 132.36 316.311 132.143 316.365 131.926C316.42 131.708 316.467 131.505 316.508 131.315C316.549 131.125 316.569 130.901 316.569 130.643C316.569 129.788 316.338 129.048 315.877 128.423C315.415 127.799 314.757 127.487 313.902 127.487C313.454 127.487 313.06 127.602 312.721 127.833C312.381 128.064 312.144 128.288 312.008 128.505C311.872 128.722 311.804 128.851 311.804 128.892C311.804 128.905 311.838 128.912 311.906 128.912C312.15 128.912 312.402 129.007 312.659 129.197C312.917 129.387 313.046 129.699 313.046 130.134C313.046 130.473 312.938 130.758 312.721 130.989C312.503 131.22 312.198 131.342 311.804 131.355Z" fill="#FF777A"/>
<path d="M321.68 135.001C321.68 134.064 321.748 133.175 321.884 132.333C322.019 131.491 322.175 130.765 322.352 130.154C322.528 129.543 322.779 128.946 323.105 128.362C323.431 127.779 323.689 127.324 323.879 126.998C324.069 126.672 324.354 126.319 324.734 125.939C325.114 125.559 325.338 125.329 325.406 125.247C325.474 125.166 325.644 125.023 325.915 124.819H326.18H326.261C326.451 124.819 326.546 124.881 326.546 125.003C326.546 125.043 326.431 125.186 326.2 125.43C325.97 125.675 325.691 126.034 325.365 126.51C325.04 126.985 324.707 127.568 324.368 128.261C324.028 128.953 323.743 129.89 323.513 131.071C323.282 132.252 323.166 133.562 323.166 135.001C323.166 136.439 323.282 137.743 323.513 138.91C323.743 140.078 324.022 141.021 324.347 141.74C324.673 142.46 325.006 143.044 325.345 143.492C325.684 143.94 325.97 144.299 326.2 144.571C326.431 144.842 326.546 144.985 326.546 144.998C326.546 145.121 326.445 145.182 326.241 145.182H326.18H325.915L325.345 144.693C324.069 143.539 323.139 142.1 322.556 140.376C321.972 138.652 321.68 136.86 321.68 135.001Z" fill="#FF777A"/>
<path d="M329.397 135.265C329.397 135.265 329.397 135.176 329.397 135C329.397 134.824 329.492 134.688 329.682 134.593H341.513C341.716 134.701 341.818 134.837 341.818 135C341.818 135.163 341.716 135.299 341.513 135.407H329.682C329.492 135.312 329.397 135.176 329.397 135V135.265Z" fill="#FF777A"/>
<path d="M347.866 128.321L347.601 128.423C347.411 128.491 347.139 128.559 346.787 128.627C346.434 128.695 346.04 128.742 345.606 128.769H345.219V127.833H345.606C346.244 127.806 346.834 127.704 347.377 127.527C347.92 127.351 348.3 127.188 348.517 127.039C348.734 126.889 348.925 126.74 349.087 126.591C349.115 126.55 349.196 126.53 349.332 126.53C349.454 126.53 349.569 126.57 349.678 126.652V132.74L349.698 138.849C349.793 138.944 349.875 139.005 349.943 139.032C350.011 139.059 350.173 139.086 350.431 139.113C350.689 139.141 351.11 139.154 351.694 139.154H352.223V140.091H351.999C351.714 140.05 350.635 140.03 348.762 140.03C346.915 140.03 345.85 140.05 345.565 140.091H345.32V139.154H345.85C346.149 139.154 346.406 139.154 346.624 139.154C346.841 139.154 347.011 139.147 347.133 139.134C347.255 139.12 347.363 139.1 347.458 139.073C347.553 139.046 347.608 139.032 347.621 139.032C347.635 139.032 347.676 138.998 347.744 138.93C347.811 138.862 347.852 138.835 347.866 138.849V128.321Z" fill="#FF777A"/>
<path d="M354.931 124.84L355.013 124.819C355.081 124.819 355.149 124.819 355.216 124.819H355.461L356.031 125.308C357.307 126.462 358.237 127.901 358.821 129.625C359.404 131.349 359.696 133.141 359.696 135.001C359.696 135.924 359.628 136.813 359.493 137.668C359.357 138.523 359.201 139.249 359.024 139.847C358.848 140.444 358.597 141.041 358.271 141.639C357.945 142.236 357.687 142.691 357.497 143.003C357.307 143.315 357.029 143.661 356.662 144.041C356.296 144.421 356.078 144.645 356.011 144.713C355.943 144.781 355.787 144.91 355.542 145.1C355.502 145.141 355.474 145.168 355.461 145.182H355.216C355.108 145.182 355.033 145.182 354.992 145.182C354.952 145.182 354.918 145.161 354.891 145.121C354.864 145.08 354.843 145.019 354.83 144.937C354.843 144.924 354.918 144.835 355.054 144.673C357.158 142.487 358.21 139.263 358.21 135.001C358.21 130.738 357.158 127.514 355.054 125.329C354.918 125.166 354.843 125.077 354.83 125.064C354.83 124.955 354.864 124.881 354.931 124.84Z" fill="#FF777A"/>
<path d="M118.37 149.748V121.066H122.299V122.213H119.517V148.601H122.299V149.748H118.37Z" fill="#F0F0F0"/>
<path d="M183.589 121.807V120.659H187.518V149.342H183.589V148.194H186.371V135.001V121.807H183.589Z" fill="#F0F0F0"/>
</g>
<g clip-path="url(#clip2_326_13010)">
<path d="M195.064 168C195.146 168 195.198 168.08 195.221 168.241C195.244 168.4 195.269 168.679 195.296 169.074C195.324 169.469 195.364 169.814 195.418 170.111C195.802 172.259 196.565 173.333 197.705 173.333L202.616 173.333C204.067 173.333 204.998 174.824 205.41 177.806C205.821 174.824 206.705 173.333 208.062 173.333L213.08 173.333C213.411 173.333 213.661 173.309 213.829 173.259C214.301 173.086 214.709 172.608 215.054 171.824C215.398 171.04 215.603 170.068 215.671 168.907C215.671 168.882 215.675 168.811 215.681 168.695C215.688 168.578 215.695 168.494 215.702 168.445C215.708 168.395 215.719 168.327 215.733 168.241C215.747 168.154 215.771 168.092 215.806 168.055C215.841 168.018 215.88 168 215.923 168C216.098 168 215.974 170.75 215.55 172.193C215.125 173.634 214.509 174.447 213.701 174.63C213.566 174.655 213.365 174.667 213.101 174.667L208.163 174.667C207.705 174.667 207.303 174.83 206.959 175.157C206.615 175.485 206.36 175.907 206.194 176.426C206.029 176.945 205.909 177.38 205.835 177.732C205.761 178.084 205.71 178.439 205.684 178.797C205.684 178.871 205.68 178.979 205.673 179.121C205.667 179.263 205.655 179.377 205.638 179.464C205.621 179.55 205.606 179.637 205.592 179.723C205.579 179.81 205.555 179.877 205.521 179.927C205.488 179.975 205.45 180.001 205.41 180.001C205.356 180.001 205.312 179.983 205.278 179.945C205.245 179.908 205.219 179.84 205.202 179.741C205.186 179.643 205.174 179.541 205.167 179.436C205.16 179.332 205.15 179.192 205.137 179.019C205.123 178.846 205.11 178.686 205.096 178.538C205.002 177.624 204.789 176.8 204.459 176.065C204.128 175.331 203.706 174.889 203.193 174.741C203.059 174.691 202.856 174.667 202.586 174.667L197.827 174.667C197.556 174.667 197.34 174.645 197.178 174.602C197.016 174.56 196.79 174.394 196.499 174.107C196.208 173.82 195.947 173.401 195.716 172.852C194.947 171.332 194.93 168 195.064 168Z" fill="#F0F0F0"/>
</g>
<path d="M187.309 113.065C187.039 113.065 186.867 112.985 186.79 112.825C186.714 112.665 186.631 112.387 186.542 111.991C186.452 111.596 186.32 111.251 186.142 110.954C184.876 108.806 182.364 107.733 178.61 107.733L162.44 107.733C157.663 107.733 154.597 106.242 153.241 103.261C151.887 106.242 148.974 107.733 144.508 107.733L127.983 107.733C126.895 107.733 126.072 107.757 125.518 107.807C123.962 107.98 122.618 108.458 121.485 109.242C120.352 110.026 119.675 110.998 119.451 112.159C119.451 112.183 119.439 112.255 119.418 112.371C119.396 112.488 119.374 112.572 119.351 112.621C119.329 112.671 119.294 112.738 119.249 112.825C119.203 112.912 119.121 112.973 119.006 113.01C118.891 113.047 118.764 113.065 118.623 113.065C118.045 113.065 118.455 110.315 119.852 108.873C121.25 107.432 123.278 106.619 125.938 106.436C126.385 106.411 127.045 106.399 127.916 106.399L144.174 106.399C145.685 106.399 147.007 106.236 148.141 105.909C149.274 105.581 150.114 105.159 150.658 104.64C151.202 104.121 151.596 103.686 151.841 103.334C152.085 102.982 152.253 102.628 152.34 102.269C152.34 102.195 152.352 102.087 152.374 101.945C152.396 101.803 152.435 101.689 152.491 101.602C152.546 101.516 152.595 101.429 152.64 101.344C152.684 101.257 152.763 101.189 152.874 101.14C152.985 101.091 153.108 101.065 153.241 101.065C153.418 101.065 153.564 101.083 153.674 101.121C153.785 101.158 153.869 101.226 153.924 101.325C153.98 101.423 154.019 101.525 154.041 101.63C154.063 101.734 154.096 101.874 154.14 102.047C154.185 102.22 154.229 102.38 154.274 102.529C154.585 103.442 155.284 104.266 156.372 105.001C157.462 105.735 158.851 106.176 160.54 106.325C160.983 106.374 161.651 106.399 162.539 106.399L178.21 106.399C179.102 106.399 179.814 106.421 180.348 106.464C180.88 106.506 181.626 106.671 182.583 106.959C183.541 107.246 184.401 107.664 185.163 108.214C187.694 109.733 187.749 113.065 187.309 113.065Z" fill="#F0F0F0"/>
</g>
<defs>
<clipPath id="clip0_326_13010">
<rect width="480" height="270" fill="white"/>
</clipPath>
<clipPath id="clip1_326_13010">
<rect width="243.261" height="48.87" fill="white" transform="translate(118.37 110.565)"/>
</clipPath>
<clipPath id="clip2_326_13010">
<rect width="12" height="21" fill="white" transform="translate(216 168) rotate(90)"/>
</clipPath>
</defs>
</svg>
