<svg width="800" height="450" viewBox="0 0 800 450" fill="none" xmlns="http://www.w3.org/2000/svg">
<rect width="800" height="450" fill="black"/>
<g clip-path="url(#clip0_410_1405)">
<path d="M425 45H-215V405H425V45Z" fill="black"/>
<g clip-path="url(#clip1_410_1405)">
<path d="M-215 45H425" stroke="#202020" stroke-width="1.5"/>
<path d="M-215 65H425" stroke="#202020" stroke-width="1.5"/>
<path d="M-215 85H425" stroke="#202020" stroke-width="1.5"/>
<path d="M-215 105H425" stroke="#202020" stroke-width="1.5"/>
<path d="M-215 145H425" stroke="#202020" stroke-width="1.5"/>
<path d="M-215 165H425" stroke="#202020" stroke-width="1.5"/>
<path d="M-215 185H425" stroke="#202020" stroke-width="1.5"/>
<path d="M-215 205H425" stroke="#202020" stroke-width="1.5"/>
<path d="M-215 245H425" stroke="#202020" stroke-width="1.5"/>
<path d="M-215 265H425" stroke="#202020" stroke-width="1.5"/>
<path d="M-215 285H425" stroke="#202020" stroke-width="1.5"/>
<path d="M-215 305H425" stroke="#202020" stroke-width="1.5"/>
<path d="M-215 345H425" stroke="#202020" stroke-width="1.5"/>
<path d="M-215 365H425" stroke="#202020" stroke-width="1.5"/>
<path d="M-215 385H425" stroke="#202020" stroke-width="1.5"/>
<path d="M-215 405H425" stroke="#202020" stroke-width="1.5"/>
<path d="M25 45V405" stroke="#202020" stroke-width="1.5"/>
<path d="M45 45V405" stroke="#202020" stroke-width="1.5"/>
<path d="M65 45V405" stroke="#202020" stroke-width="1.5"/>
<path d="M85 45V405" stroke="#202020" stroke-width="1.5"/>
<path d="M125 45V405" stroke="#202020" stroke-width="1.5"/>
<path d="M145 45V405" stroke="#202020" stroke-width="1.5"/>
<path d="M165 45V405" stroke="#202020" stroke-width="1.5"/>
<path d="M185 45V405" stroke="#202020" stroke-width="1.5"/>
<path d="M225 45V405" stroke="#202020" stroke-width="1.5"/>
<path d="M245 45V405" stroke="#202020" stroke-width="1.5"/>
<path d="M265 45V405" stroke="#202020" stroke-width="1.5"/>
<path d="M285 45V405" stroke="#202020" stroke-width="1.5"/>
<path d="M325 45V405" stroke="#202020" stroke-width="1.5"/>
<path d="M345 45V405" stroke="#202020" stroke-width="1.5"/>
<path d="M365 45V405" stroke="#202020" stroke-width="1.5"/>
<path d="M385 45V405" stroke="#202020" stroke-width="1.5"/>
<path d="M-215 125H425" stroke="#303030" stroke-width="1.5"/>
<path d="M-215 325H425" stroke="#303030" stroke-width="1.5"/>
<path d="M205 45V405" stroke="#303030" stroke-width="1.5"/>
<path d="M-215 225H425" stroke="#404040" stroke-width="1.5"/>
<path d="M105 45V405" stroke="#404040" stroke-width="1.5"/>
<path d="M305 45V405" stroke="#404040" stroke-width="1.5"/>
</g>
<g clip-path="url(#clip2_410_1405)">
<path d="M1245 -1095L-675 1465" stroke="#A0A0A0" stroke-width="1.5"/>
<path d="M-795 -175L1365 545" stroke="#A0A0A0" stroke-width="1.5"/>
</g>
<path d="M272.904 173.853L285 185L268.635 186.66L273.616 181.205L272.904 173.853Z" fill="#D582FF"/>
<path d="M165 145L281.205 183.735" stroke="#D582FF" stroke-width="1.5"/>
<path d="M150.6 152.95L165 145L161.4 161.05L157.8 154.6L150.6 152.95Z" fill="#FFF888"/>
<path d="M105 225L162.6 148.2" stroke="#FFF888" stroke-width="1.5"/>
<path d="M268.893 181.665L285 185L271.821 194.843L273.286 187.603L268.893 181.665Z" fill="#F0F0F0"/>
<path d="M105 225L281.095 185.868" stroke="#F0F0F0" stroke-width="1.5"/>
<path d="M149.274 176.502H122.029V197.448H149.274V176.502Z" fill="black"/>
<g clip-path="url(#clip3_410_1405)">
<path d="M124.975 190.016C124.975 188.797 125.434 187.639 126.351 186.541C127.268 185.443 128.299 184.888 129.445 184.876C130.061 184.876 130.604 185.171 131.074 185.763C131.267 185.401 131.545 185.22 131.907 185.22C132.064 185.22 132.202 185.268 132.323 185.365C132.444 185.461 132.504 185.582 132.504 185.726C132.504 185.883 132.281 186.849 131.834 188.622C131.388 190.396 131.159 191.397 131.147 191.627C131.147 191.928 131.189 192.127 131.273 192.224C131.358 192.32 131.485 192.375 131.653 192.387C131.762 192.375 131.883 192.32 132.015 192.224C132.269 191.983 132.516 191.403 132.757 190.486C132.83 190.245 132.89 190.118 132.938 190.106C132.963 190.094 133.023 190.088 133.119 190.088H133.192C133.421 190.088 133.536 190.143 133.536 190.251C133.536 190.324 133.506 190.486 133.445 190.74C133.385 190.993 133.264 191.319 133.083 191.717C132.902 192.115 132.709 192.417 132.504 192.622C132.347 192.779 132.154 192.906 131.925 193.002C131.828 193.026 131.684 193.038 131.491 193.038C131.08 193.038 130.736 192.948 130.459 192.767C130.181 192.586 130 192.399 129.916 192.206L129.807 191.934C129.795 191.922 129.771 191.928 129.735 191.952C129.711 191.977 129.687 192.001 129.663 192.025C128.951 192.7 128.227 193.038 127.491 193.038C126.827 193.038 126.242 192.797 125.735 192.314C125.228 191.832 124.975 191.066 124.975 190.016ZM130.73 186.921C130.73 186.849 130.7 186.716 130.64 186.523C130.58 186.33 130.441 186.119 130.224 185.889C130.006 185.66 129.729 185.539 129.391 185.527C128.969 185.527 128.565 185.714 128.179 186.088C127.792 186.463 127.491 186.951 127.274 187.554C126.924 188.508 126.676 189.497 126.532 190.523C126.532 190.559 126.532 190.625 126.532 190.722C126.532 190.818 126.526 190.891 126.513 190.939C126.513 191.482 126.622 191.856 126.839 192.061C127.056 192.266 127.316 192.375 127.617 192.387C128.076 192.387 128.528 192.188 128.975 191.79C129.421 191.391 129.687 191.084 129.771 190.866C129.795 190.818 129.958 190.173 130.26 188.93C130.561 187.687 130.718 187.018 130.73 186.921Z" fill="#F0F0F0"/>
<path d="M141.21 184.822C141.354 184.858 141.921 184.876 142.911 184.876C143.792 184.876 144.268 184.858 144.341 184.822H144.449V185.944H143.182L141.354 190.034C140.618 191.699 140.196 192.604 140.087 192.749C139.991 192.869 139.876 192.93 139.744 192.93C139.719 192.93 139.677 192.93 139.617 192.93C139.556 192.93 139.496 192.924 139.436 192.912H139.164C138.983 192.912 138.839 192.821 138.73 192.64C138.621 192.459 138.362 191.916 137.952 191.011C137.771 190.613 137.626 190.287 137.517 190.034L135.689 185.944H134.423V184.822H134.567C134.748 184.858 135.418 184.876 136.576 184.876C137.867 184.876 138.621 184.858 138.839 184.822H139.001V185.944H138.133L139.092 188.079C139.707 189.467 140.033 190.161 140.069 190.161C140.069 190.149 140.377 189.455 140.992 188.079C141.608 186.704 141.927 185.998 141.952 185.962C141.952 185.95 141.807 185.944 141.517 185.944H141.083V184.822H141.21Z" fill="#FFF888"/>
<path d="M141.743 179.7C141.743 179.603 141.774 179.519 141.834 179.446C141.894 179.374 141.985 179.338 142.105 179.338C142.19 179.338 142.262 179.368 142.323 179.428C142.383 179.476 142.443 179.591 142.504 179.772C142.624 180.218 142.872 180.562 143.246 180.804C143.378 180.888 143.445 180.997 143.445 181.129C143.445 181.238 143.427 181.31 143.39 181.347C143.354 181.383 143.27 181.437 143.137 181.509C142.618 181.775 142.166 182.155 141.78 182.65C141.755 182.674 141.725 182.71 141.689 182.758C141.653 182.807 141.623 182.843 141.599 182.867C141.574 182.891 141.544 182.903 141.508 182.903C141.472 182.903 141.43 182.909 141.381 182.921C141.297 182.921 141.219 182.891 141.146 182.831C141.074 182.77 141.032 182.68 141.019 182.559C141.019 182.33 141.303 181.974 141.87 181.491H138.775L135.68 181.473C135.524 181.365 135.445 181.25 135.445 181.129C135.445 181.045 135.524 180.924 135.68 180.767H142.178C141.888 180.309 141.743 179.953 141.743 179.7Z" fill="#FFF888"/>
</g>
<path d="M240.579 156.492H211.006V177.457H240.579V156.492Z" fill="black"/>
<g clip-path="url(#clip4_410_1405)">
<path d="M214.537 161.137C214.537 161.016 214.561 160.878 214.609 160.721C214.657 160.564 214.73 160.485 214.826 160.485C214.838 160.485 215.273 160.455 216.129 160.395C216.986 160.335 217.426 160.298 217.451 160.286C217.595 160.286 217.668 160.341 217.668 160.449C217.668 160.558 217.463 161.421 217.052 163.037C216.956 163.447 216.853 163.87 216.745 164.304C216.636 164.738 216.546 165.064 216.473 165.281L216.401 165.625C216.401 165.661 216.437 165.643 216.509 165.571C217.101 165.088 217.71 164.847 218.337 164.847C219.085 164.847 219.689 165.125 220.147 165.68C220.606 166.235 220.841 166.934 220.853 167.779C220.853 169.118 220.376 170.331 219.423 171.417C218.47 172.502 217.444 173.045 216.347 173.045C215.743 173.045 215.194 172.816 214.7 172.358C214.205 171.899 213.952 171.157 213.94 170.132V169.969C213.94 169.715 213.988 169.366 214.084 168.919C214.181 168.473 214.476 167.284 214.971 165.354C215.574 162.977 215.876 161.716 215.876 161.571C215.876 161.427 215.647 161.342 215.188 161.318C215.128 161.318 215.08 161.318 215.044 161.318H214.953C214.832 161.318 214.754 161.318 214.718 161.318C214.682 161.318 214.639 161.3 214.591 161.264C214.543 161.227 214.525 161.185 214.537 161.137ZM219.297 166.965V166.856C219.297 165.963 218.929 165.517 218.193 165.517C217.987 165.517 217.776 165.565 217.559 165.661C217.342 165.758 217.143 165.885 216.962 166.042C216.781 166.198 216.624 166.343 216.491 166.476C216.359 166.609 216.25 166.741 216.166 166.874L216.057 167.019L215.677 168.575C215.411 169.613 215.279 170.349 215.279 170.783C215.279 171.362 215.424 171.797 215.713 172.086C215.906 172.279 216.147 172.376 216.437 172.376C216.835 172.376 217.239 172.183 217.65 171.797C217.951 171.519 218.193 171.181 218.374 170.783C218.554 170.385 218.754 169.752 218.971 168.883C219.188 168.014 219.297 167.375 219.297 166.965Z" fill="#F0F0F0"/>
<path d="M232.273 164.811C232.417 164.847 233.009 164.865 234.046 164.865C234.951 164.865 235.422 164.847 235.458 164.811H235.548V165.933H234.39L231.712 172.647C231.7 172.659 231.682 172.677 231.657 172.701C231.633 172.726 231.609 172.75 231.585 172.774C231.561 172.798 231.549 172.81 231.549 172.81C231.549 172.81 231.531 172.822 231.494 172.846C231.458 172.87 231.446 172.882 231.458 172.882C231.47 172.882 231.446 172.889 231.386 172.901C231.326 172.913 231.301 172.913 231.314 172.901C231.326 172.889 231.301 172.895 231.241 172.919C231.181 172.943 231.145 172.943 231.133 172.919C231.12 172.895 231.072 172.895 230.988 172.919H230.789C230.584 172.919 230.439 172.858 230.354 172.738C230.27 172.617 230.101 172.231 229.848 171.579C229.655 171.097 229.492 170.693 229.359 170.367L228.49 168.195L227.622 170.367C227.501 170.681 227.344 171.073 227.151 171.543C226.898 172.207 226.729 172.599 226.644 172.72C226.56 172.84 226.415 172.907 226.21 172.919H225.993C225.776 172.919 225.631 172.907 225.558 172.882C225.486 172.858 225.396 172.78 225.287 172.647L222.608 165.933H221.432V164.811H221.559C221.74 164.847 222.391 164.865 223.513 164.865C224.756 164.865 225.486 164.847 225.703 164.811H225.866V165.933H224.997L226.59 169.878L227.893 166.657L227.603 165.933H226.463V164.811H226.59C226.735 164.847 227.32 164.865 228.345 164.865C229.564 164.865 230.264 164.847 230.445 164.811H230.59V165.933H230.137C229.836 165.933 229.685 165.945 229.685 165.969C229.697 166.017 229.986 166.747 230.553 168.159C231.12 169.571 231.41 170.276 231.422 170.276L233.178 165.933H232.146V164.811H232.273Z" fill="#D582FF"/>
<path d="M230.798 159.689C230.798 159.593 230.828 159.508 230.888 159.436C230.949 159.363 231.039 159.327 231.16 159.327C231.244 159.327 231.317 159.357 231.377 159.418C231.437 159.466 231.498 159.581 231.558 159.762C231.678 160.208 231.926 160.552 232.3 160.793C232.433 160.878 232.499 160.986 232.499 161.119C232.499 161.228 232.481 161.3 232.445 161.336C232.408 161.372 232.324 161.427 232.191 161.499C231.672 161.764 231.22 162.145 230.834 162.639C230.81 162.663 230.78 162.7 230.743 162.748C230.707 162.796 230.677 162.832 230.653 162.856C230.629 162.88 230.599 162.893 230.562 162.893C230.526 162.893 230.484 162.899 230.436 162.911C230.351 162.911 230.273 162.88 230.2 162.82C230.128 162.76 230.086 162.669 230.074 162.549C230.074 162.319 230.357 161.964 230.924 161.481H227.83L224.735 161.463C224.578 161.354 224.5 161.24 224.5 161.119C224.5 161.034 224.578 160.914 224.735 160.757H231.232C230.943 160.299 230.798 159.943 230.798 159.689Z" fill="#D582FF"/>
</g>
<path d="M233.794 195.79H157.509V218.16H233.794V195.79Z" fill="black"/>
<g clip-path="url(#clip5_410_1405)">
<path d="M160.455 209.305C160.455 208.086 160.913 206.928 161.83 205.83C162.747 204.732 163.779 204.176 164.926 204.164C165.541 204.164 166.084 204.46 166.555 205.051C166.748 204.689 167.025 204.508 167.387 204.508C167.544 204.508 167.683 204.557 167.804 204.653C167.924 204.75 167.985 204.87 167.985 205.015C167.985 205.172 167.761 206.137 167.315 207.911C166.868 209.685 166.639 210.687 166.627 210.916C166.627 211.218 166.669 211.417 166.754 211.513C166.838 211.61 166.965 211.664 167.134 211.676C167.243 211.664 167.363 211.61 167.496 211.513C167.749 211.272 167.997 210.693 168.238 209.776C168.31 209.534 168.371 209.408 168.419 209.396C168.443 209.383 168.504 209.377 168.6 209.377H168.672C168.902 209.377 169.016 209.432 169.016 209.54C169.016 209.613 168.986 209.776 168.926 210.029C168.866 210.282 168.745 210.608 168.564 211.007C168.383 211.405 168.19 211.706 167.985 211.912C167.828 212.068 167.635 212.195 167.405 212.292C167.309 212.316 167.164 212.328 166.971 212.328C166.561 212.328 166.217 212.237 165.939 212.056C165.662 211.875 165.481 211.688 165.396 211.495L165.288 211.224C165.276 211.212 165.251 211.218 165.215 211.242C165.191 211.266 165.167 211.29 165.143 211.314C164.431 211.99 163.707 212.328 162.971 212.328C162.307 212.328 161.722 212.087 161.215 211.604C160.708 211.121 160.455 210.355 160.455 209.305ZM166.211 206.21C166.211 206.137 166.181 206.005 166.12 205.812C166.06 205.619 165.921 205.407 165.704 205.178C165.487 204.949 165.209 204.828 164.871 204.816C164.449 204.816 164.045 205.003 163.659 205.377C163.272 205.751 162.971 206.24 162.754 206.843C162.404 207.797 162.156 208.786 162.011 209.812C162.011 209.848 162.011 209.914 162.011 210.011C162.011 210.108 162.005 210.18 161.993 210.228C161.993 210.771 162.102 211.145 162.319 211.35C162.536 211.556 162.796 211.664 163.097 211.676C163.556 211.676 164.009 211.477 164.455 211.079C164.901 210.681 165.167 210.373 165.251 210.156C165.276 210.108 165.438 209.462 165.74 208.219C166.042 206.976 166.199 206.306 166.211 206.21Z" fill="#F0F0F0"/>
<path d="M176.691 204.11C176.836 204.146 177.403 204.164 178.393 204.164C179.274 204.164 179.75 204.146 179.823 204.11H179.931V205.232H178.664L176.836 209.323C176.1 210.988 175.678 211.893 175.569 212.038C175.472 212.159 175.358 212.219 175.225 212.219C175.201 212.219 175.159 212.219 175.098 212.219C175.038 212.219 174.978 212.213 174.917 212.201H174.646C174.465 212.201 174.32 212.111 174.211 211.93C174.103 211.749 173.843 211.206 173.433 210.301C173.252 209.902 173.107 209.577 172.999 209.323L171.17 205.232H169.903V204.11H170.048C170.229 204.146 170.899 204.164 172.057 204.164C173.349 204.164 174.103 204.146 174.32 204.11H174.483V205.232H173.614L174.573 207.368C175.189 208.756 175.515 209.45 175.551 209.45C175.551 209.438 175.859 208.744 176.474 207.368C177.089 205.993 177.409 205.287 177.433 205.25C177.433 205.238 177.288 205.232 176.999 205.232H176.564V204.11H176.691Z" fill="#FFF888"/>
<path d="M177.225 198.988C177.225 198.891 177.255 198.807 177.316 198.734C177.376 198.662 177.466 198.626 177.587 198.626C177.672 198.626 177.744 198.656 177.804 198.716C177.865 198.764 177.925 198.879 177.985 199.06C178.106 199.506 178.353 199.85 178.727 200.092C178.86 200.176 178.927 200.285 178.927 200.417C178.927 200.526 178.909 200.598 178.872 200.635C178.836 200.671 178.752 200.725 178.619 200.798C178.1 201.063 177.647 201.443 177.261 201.938C177.237 201.962 177.207 201.998 177.171 202.047C177.135 202.095 177.104 202.131 177.08 202.155C177.056 202.179 177.026 202.191 176.99 202.191C176.954 202.191 176.911 202.197 176.863 202.209C176.779 202.209 176.7 202.179 176.628 202.119C176.555 202.059 176.513 201.968 176.501 201.847C176.501 201.618 176.785 201.262 177.352 200.78H174.257L171.161 200.761C171.004 200.653 170.926 200.538 170.926 200.417C170.926 200.333 171.004 200.212 171.161 200.055H177.66C177.37 199.597 177.225 199.241 177.225 198.988Z" fill="#FFF888"/>
<path d="M185.456 207.857C185.456 207.857 185.456 207.779 185.456 207.622C185.456 207.465 185.54 207.344 185.709 207.26H191.121V204.544L191.139 201.829C191.26 201.672 191.375 201.594 191.483 201.594C191.64 201.594 191.761 201.685 191.845 201.866V207.26H197.239C197.42 207.356 197.511 207.477 197.511 207.622C197.511 207.766 197.42 207.887 197.239 207.984H191.845V213.378C191.749 213.547 191.64 213.631 191.519 213.631H191.483H191.447C191.302 213.631 191.194 213.547 191.121 213.378V207.984H185.709C185.54 207.899 185.456 207.779 185.456 207.622V207.857Z" fill="#F0F0F0"/>
<path d="M203.868 200.436C203.868 200.315 203.892 200.176 203.94 200.019C203.988 199.862 204.061 199.784 204.157 199.784C204.169 199.784 204.604 199.754 205.461 199.693C206.317 199.633 206.758 199.597 206.782 199.585C206.927 199.585 206.999 199.639 206.999 199.748C206.999 199.856 206.794 200.719 206.384 202.336C206.287 202.746 206.185 203.169 206.076 203.603C205.967 204.038 205.877 204.363 205.805 204.581L205.732 204.925C205.732 204.961 205.768 204.943 205.841 204.87C206.432 204.388 207.041 204.146 207.669 204.146C208.417 204.146 209.02 204.424 209.479 204.979C209.938 205.534 210.173 206.234 210.185 207.079C210.185 208.418 209.708 209.631 208.755 210.717C207.802 211.803 206.776 212.346 205.678 212.346C205.074 212.346 204.525 212.117 204.031 211.658C203.536 211.2 203.282 210.457 203.27 209.432V209.269C203.27 209.015 203.319 208.665 203.415 208.219C203.512 207.772 203.807 206.584 204.302 204.653C204.906 202.276 205.207 201.015 205.207 200.87C205.207 200.725 204.978 200.641 204.519 200.617C204.459 200.617 204.411 200.617 204.375 200.617H204.284C204.163 200.617 204.085 200.617 204.049 200.617C204.013 200.617 203.97 200.599 203.922 200.562C203.874 200.526 203.856 200.484 203.868 200.436ZM208.628 206.264V206.155C208.628 205.262 208.26 204.816 207.524 204.816C207.319 204.816 207.108 204.864 206.891 204.961C206.673 205.057 206.474 205.184 206.293 205.341C206.112 205.498 205.955 205.643 205.823 205.775C205.69 205.908 205.581 206.041 205.497 206.174L205.388 206.318L205.008 207.875C204.743 208.913 204.61 209.649 204.61 210.083C204.61 210.663 204.755 211.097 205.044 211.387C205.237 211.58 205.479 211.676 205.768 211.676C206.167 211.676 206.571 211.483 206.981 211.097C207.283 210.819 207.524 210.482 207.705 210.083C207.886 209.685 208.085 209.052 208.302 208.183C208.52 207.314 208.628 206.674 208.628 206.264Z" fill="#F0F0F0"/>
<path d="M221.607 204.11C221.751 204.146 222.343 204.164 223.38 204.164C224.285 204.164 224.756 204.146 224.792 204.11H224.883V205.232H223.724L221.045 211.948C221.033 211.96 221.015 211.978 220.991 212.002C220.967 212.026 220.943 212.05 220.919 212.074C220.895 212.099 220.882 212.111 220.882 212.111C220.882 212.111 220.864 212.123 220.828 212.147C220.792 212.171 220.78 212.183 220.792 212.183C220.804 212.183 220.78 212.189 220.72 212.201C220.659 212.213 220.635 212.213 220.647 212.201C220.659 212.189 220.635 212.195 220.575 212.219C220.514 212.243 220.478 212.243 220.466 212.219C220.454 212.195 220.406 212.195 220.321 212.219H220.122C219.917 212.219 219.772 212.159 219.688 212.038C219.603 211.918 219.434 211.531 219.181 210.88C218.988 210.397 218.825 209.993 218.692 209.667L217.823 207.495L216.955 209.667C216.834 209.981 216.677 210.373 216.484 210.844C216.231 211.507 216.062 211.899 215.977 212.02C215.893 212.141 215.748 212.207 215.543 212.219H215.326C215.108 212.219 214.964 212.207 214.891 212.183C214.819 212.159 214.728 212.08 214.62 211.948L211.941 205.232H210.764V204.11H210.891C211.072 204.146 211.723 204.164 212.846 204.164C214.089 204.164 214.819 204.146 215.036 204.11H215.199V205.232H214.33L215.923 209.178L217.226 205.956L216.937 205.232H215.796V204.11H215.923C216.068 204.146 216.653 204.164 217.679 204.164C218.897 204.164 219.597 204.146 219.778 204.11H219.923V205.232H219.471C219.169 205.232 219.018 205.244 219.018 205.268C219.03 205.317 219.32 206.047 219.887 207.459C220.454 208.871 220.744 209.576 220.756 209.576L222.512 205.232H221.48V204.11H221.607Z" fill="#D582FF"/>
<path d="M220.131 198.988C220.131 198.891 220.161 198.807 220.222 198.734C220.282 198.662 220.373 198.626 220.493 198.626C220.578 198.626 220.65 198.656 220.711 198.716C220.771 198.764 220.831 198.879 220.892 199.06C221.012 199.506 221.26 199.85 221.634 200.092C221.766 200.176 221.833 200.285 221.833 200.417C221.833 200.526 221.815 200.598 221.778 200.635C221.742 200.671 221.658 200.725 221.525 200.798C221.006 201.063 220.554 201.443 220.168 201.938C220.143 201.962 220.113 201.998 220.077 202.047C220.041 202.095 220.011 202.131 219.986 202.155C219.962 202.179 219.932 202.191 219.896 202.191C219.86 202.191 219.818 202.197 219.769 202.209C219.685 202.209 219.606 202.179 219.534 202.119C219.462 202.059 219.419 201.968 219.407 201.847C219.407 201.618 219.691 201.262 220.258 200.78H217.163L214.068 200.761C213.911 200.653 213.832 200.538 213.832 200.417C213.832 200.333 213.911 200.212 214.068 200.055H220.566C220.276 199.597 220.131 199.241 220.131 198.988Z" fill="#D582FF"/>
</g>
</g>
<rect x="24.5" y="44.5" width="361" height="361" stroke="#404040"/>
<g clip-path="url(#clip6_410_1405)">
<path d="M915 45H275V405H915V45Z" fill="black"/>
<g clip-path="url(#clip7_410_1405)">
<path d="M275 45H915" stroke="#202020" stroke-width="1.5"/>
<path d="M275 65H915" stroke="#202020" stroke-width="1.5"/>
<path d="M275 85H915" stroke="#202020" stroke-width="1.5"/>
<path d="M275 105H915" stroke="#202020" stroke-width="1.5"/>
<path d="M275 145H915" stroke="#202020" stroke-width="1.5"/>
<path d="M275 165H915" stroke="#202020" stroke-width="1.5"/>
<path d="M275 185H915" stroke="#202020" stroke-width="1.5"/>
<path d="M275 205H915" stroke="#202020" stroke-width="1.5"/>
<path d="M275 245H915" stroke="#202020" stroke-width="1.5"/>
<path d="M275 265H915" stroke="#202020" stroke-width="1.5"/>
<path d="M275 285H915" stroke="#202020" stroke-width="1.5"/>
<path d="M275 305H915" stroke="#202020" stroke-width="1.5"/>
<path d="M275 345H915" stroke="#202020" stroke-width="1.5"/>
<path d="M275 365H915" stroke="#202020" stroke-width="1.5"/>
<path d="M275 385H915" stroke="#202020" stroke-width="1.5"/>
<path d="M275 405H915" stroke="#202020" stroke-width="1.5"/>
<path d="M415 45V405" stroke="#202020" stroke-width="1.5"/>
<path d="M435 45V405" stroke="#202020" stroke-width="1.5"/>
<path d="M455 45V405" stroke="#202020" stroke-width="1.5"/>
<path d="M475 45V405" stroke="#202020" stroke-width="1.5"/>
<path d="M515 45V405" stroke="#202020" stroke-width="1.5"/>
<path d="M535 45V405" stroke="#202020" stroke-width="1.5"/>
<path d="M555 45V405" stroke="#202020" stroke-width="1.5"/>
<path d="M575 45V405" stroke="#202020" stroke-width="1.5"/>
<path d="M615 45V405" stroke="#202020" stroke-width="1.5"/>
<path d="M635 45V405" stroke="#202020" stroke-width="1.5"/>
<path d="M655 45V405" stroke="#202020" stroke-width="1.5"/>
<path d="M675 45V405" stroke="#202020" stroke-width="1.5"/>
<path d="M715 45V405" stroke="#202020" stroke-width="1.5"/>
<path d="M735 45V405" stroke="#202020" stroke-width="1.5"/>
<path d="M755 45V405" stroke="#202020" stroke-width="1.5"/>
<path d="M775 45V405" stroke="#202020" stroke-width="1.5"/>
<path d="M275 125H915" stroke="#303030" stroke-width="1.5"/>
<path d="M275 325H915" stroke="#303030" stroke-width="1.5"/>
<path d="M495 45V405" stroke="#303030" stroke-width="1.5"/>
<path d="M695 45V405" stroke="#303030" stroke-width="1.5"/>
<path d="M275 225H915" stroke="#404040" stroke-width="1.5"/>
<path d="M595 45V405" stroke="#404040" stroke-width="1.5"/>
</g>
<path d="M460 405L730 45" stroke="#A0A0A0" stroke-width="1.5"/>
<path d="M670.6 112.95L685 105L681.4 121.05L677.8 114.6L670.6 112.95Z" fill="#D582FF"/>
<path d="M655 145L682.6 108.2" stroke="#D582FF" stroke-width="1.5"/>
<path d="M640.6 152.95L655 145L651.4 161.05L647.8 154.6L640.6 152.95Z" fill="#FFF888"/>
<path d="M595 225L652.6 148.2" stroke="#FFF888" stroke-width="1.5"/>
<path d="M598.721 227.534C598.978 227.191 599.228 227.035 599.473 227.067C599.716 227.097 600.092 227.214 600.598 227.417C601.106 227.619 601.6 227.727 602.087 227.738C605.587 227.844 609.13 225.507 612.714 220.729L640.147 184.151C644.707 178.071 649.223 175.363 653.697 176.023C651.81 171.914 652.999 167.015 657.262 161.331L685.035 124.301C686.073 122.917 686.832 121.849 687.308 121.104C688.609 118.986 689.382 116.893 689.626 114.824C689.872 112.754 689.482 111.114 688.456 109.902C688.43 109.883 688.365 109.811 688.262 109.69C688.158 109.568 688.089 109.473 688.058 109.406C688.026 109.338 687.987 109.24 687.938 109.114C687.889 108.985 687.901 108.832 687.973 108.655C688.043 108.478 688.146 108.301 688.279 108.124C688.831 107.388 691.373 110.109 691.579 113.04C691.782 115.972 690.714 119.204 688.37 122.736C687.969 123.325 687.353 124.173 686.521 125.282L659.003 161.973C657.561 163.896 656.473 165.709 655.74 167.413C655.008 169.118 654.657 170.524 654.692 171.631C654.726 172.738 654.814 173.588 654.956 174.181C655.097 174.774 655.316 175.27 655.615 175.669C655.694 175.728 655.797 175.831 655.927 175.972C656.057 176.114 656.142 176.254 656.182 176.394C656.221 176.534 656.267 176.666 656.315 176.792C656.366 176.918 656.364 177.07 656.309 177.253C656.255 177.433 656.166 177.609 656.039 177.779C655.87 178.004 655.711 178.175 655.566 178.285C655.421 178.395 655.268 178.449 655.11 178.44C654.952 178.433 654.806 178.4 654.673 178.344C654.541 178.289 654.36 178.22 654.133 178.137C653.906 178.056 653.693 177.984 653.492 177.923C652.22 177.588 650.674 177.818 648.851 178.615C647.028 179.415 645.232 180.83 643.462 182.859C642.985 183.385 642.323 184.213 641.475 185.344L614.519 221.285C613.668 222.419 612.965 223.309 612.41 223.953C611.856 224.598 610.969 225.414 609.748 226.402C608.528 227.391 607.26 228.151 605.947 228.681C601.911 230.685 598.303 228.091 598.724 227.53L598.721 227.534Z" fill="#F0F0F0"/>
<path d="M741.804 181.5H665.518V203.87H741.804V181.5Z" fill="black"/>
<g clip-path="url(#clip8_410_1405)">
<path d="M668.464 195.015C668.464 193.796 668.923 192.638 669.84 191.54C670.757 190.442 671.789 189.886 672.935 189.874C673.55 189.874 674.093 190.17 674.564 190.761C674.757 190.399 675.035 190.218 675.397 190.218C675.554 190.218 675.692 190.267 675.813 190.363C675.934 190.46 675.994 190.58 675.994 190.725C675.994 190.882 675.771 191.847 675.324 193.621C674.878 195.395 674.649 196.397 674.637 196.626C674.637 196.928 674.679 197.127 674.763 197.223C674.848 197.32 674.974 197.374 675.143 197.386C675.252 197.374 675.373 197.32 675.505 197.223C675.759 196.982 676.006 196.403 676.247 195.486C676.32 195.244 676.38 195.118 676.429 195.106C676.453 195.093 676.513 195.087 676.61 195.087H676.682C676.911 195.087 677.026 195.142 677.026 195.25C677.026 195.323 676.996 195.486 676.935 195.739C676.875 195.992 676.754 196.318 676.573 196.716C676.392 197.115 676.199 197.416 675.994 197.622C675.837 197.778 675.644 197.905 675.415 198.002C675.318 198.026 675.174 198.038 674.98 198.038C674.57 198.038 674.226 197.947 673.949 197.766C673.671 197.585 673.49 197.398 673.406 197.205L673.297 196.934C673.285 196.922 673.261 196.928 673.225 196.952C673.201 196.976 673.176 197 673.152 197.024C672.44 197.7 671.716 198.038 670.98 198.038C670.316 198.038 669.731 197.796 669.224 197.314C668.718 196.831 668.464 196.065 668.464 195.015ZM674.22 191.92C674.22 191.847 674.19 191.715 674.13 191.522C674.069 191.328 673.931 191.117 673.713 190.888C673.496 190.659 673.219 190.538 672.881 190.526C672.458 190.526 672.054 190.713 671.668 191.087C671.282 191.461 670.98 191.95 670.763 192.553C670.413 193.507 670.166 194.496 670.021 195.522C670.021 195.558 670.021 195.624 670.021 195.721C670.021 195.817 670.015 195.89 670.003 195.938C670.003 196.481 670.111 196.855 670.329 197.06C670.546 197.266 670.805 197.374 671.107 197.386C671.565 197.386 672.018 197.187 672.464 196.789C672.911 196.391 673.176 196.083 673.261 195.866C673.285 195.817 673.448 195.172 673.75 193.929C674.051 192.686 674.208 192.016 674.22 191.92Z" fill="#F0F0F0"/>
<path d="M684.701 189.82C684.845 189.856 685.413 189.874 686.402 189.874C687.283 189.874 687.76 189.856 687.832 189.82H687.941V190.942H686.674L684.845 195.033C684.109 196.698 683.687 197.603 683.578 197.748C683.482 197.869 683.367 197.929 683.234 197.929C683.21 197.929 683.168 197.929 683.108 197.929C683.047 197.929 682.987 197.923 682.927 197.911H682.655C682.474 197.911 682.329 197.821 682.221 197.64C682.112 197.459 681.853 196.916 681.442 196.011C681.261 195.612 681.117 195.286 681.008 195.033L679.18 190.942H677.913V189.82H678.058C678.239 189.856 678.908 189.874 680.067 189.874C681.358 189.874 682.112 189.856 682.329 189.82H682.492V190.942H681.623L682.583 193.078C683.198 194.466 683.524 195.16 683.56 195.16C683.56 195.148 683.868 194.454 684.483 193.078C685.099 191.703 685.419 190.997 685.443 190.96C685.443 190.948 685.298 190.942 685.008 190.942H684.574V189.82H684.701Z" fill="#FFF888"/>
<path d="M685.235 184.697C685.235 184.601 685.265 184.516 685.325 184.444C685.385 184.372 685.476 184.335 685.597 184.335C685.681 184.335 685.753 184.366 685.814 184.426C685.874 184.474 685.934 184.589 685.995 184.77C686.115 185.216 686.363 185.56 686.737 185.802C686.87 185.886 686.936 185.995 686.936 186.127C686.936 186.236 686.918 186.308 686.882 186.345C686.846 186.381 686.761 186.435 686.628 186.508C686.109 186.773 685.657 187.153 685.271 187.648C685.247 187.672 685.216 187.708 685.18 187.757C685.144 187.805 685.114 187.841 685.09 187.865C685.066 187.889 685.035 187.901 684.999 187.901C684.963 187.901 684.921 187.907 684.873 187.919C684.788 187.919 684.71 187.889 684.637 187.829C684.565 187.769 684.523 187.678 684.511 187.557C684.511 187.328 684.794 186.972 685.361 186.489H682.266L679.171 186.471C679.014 186.363 678.935 186.248 678.935 186.127C678.935 186.043 679.014 185.922 679.171 185.765H685.669C685.379 185.307 685.235 184.951 685.235 184.697Z" fill="#FFF888"/>
<path d="M693.465 193.567C693.465 193.567 693.465 193.488 693.465 193.332C693.465 193.175 693.549 193.054 693.718 192.97H699.131V190.254L699.149 187.539C699.269 187.382 699.384 187.304 699.493 187.304C699.649 187.304 699.77 187.395 699.855 187.576V192.97H705.249C705.43 193.066 705.52 193.187 705.52 193.332C705.52 193.476 705.43 193.597 705.249 193.694H699.855V199.088C699.758 199.257 699.649 199.341 699.529 199.341H699.493H699.456C699.312 199.341 699.203 199.257 699.131 199.088V193.694H693.718C693.549 193.609 693.465 193.488 693.465 193.332V193.567Z" fill="#F0F0F0"/>
<path d="M711.877 186.146C711.877 186.025 711.901 185.886 711.95 185.729C711.998 185.572 712.07 185.494 712.167 185.494C712.179 185.494 712.613 185.464 713.47 185.403C714.327 185.343 714.767 185.307 714.791 185.295C714.936 185.295 715.009 185.349 715.009 185.458C715.009 185.566 714.803 186.429 714.393 188.046C714.297 188.456 714.194 188.879 714.085 189.313C713.977 189.748 713.886 190.073 713.814 190.291L713.742 190.635C713.742 190.671 713.778 190.653 713.85 190.58C714.441 190.098 715.051 189.856 715.678 189.856C716.426 189.856 717.03 190.134 717.488 190.689C717.947 191.244 718.182 191.944 718.194 192.789C718.194 194.128 717.718 195.341 716.764 196.427C715.811 197.513 714.785 198.056 713.687 198.056C713.084 198.056 712.535 197.827 712.04 197.368C711.545 196.91 711.292 196.167 711.28 195.142V194.979C711.28 194.725 711.328 194.375 711.425 193.929C711.521 193.482 711.817 192.294 712.312 190.363C712.915 187.986 713.217 186.725 713.217 186.58C713.217 186.435 712.987 186.351 712.529 186.327C712.468 186.327 712.42 186.327 712.384 186.327H712.293C712.173 186.327 712.094 186.327 712.058 186.327C712.022 186.327 711.98 186.308 711.931 186.272C711.883 186.236 711.865 186.194 711.877 186.146ZM716.638 191.974V191.865C716.638 190.972 716.27 190.526 715.534 190.526C715.328 190.526 715.117 190.574 714.9 190.671C714.683 190.767 714.484 190.894 714.303 191.051C714.122 191.208 713.965 191.353 713.832 191.485C713.699 191.618 713.591 191.751 713.506 191.884L713.398 192.028L713.017 193.585C712.752 194.623 712.619 195.359 712.619 195.793C712.619 196.373 712.764 196.807 713.054 197.097C713.247 197.29 713.488 197.386 713.778 197.386C714.176 197.386 714.58 197.193 714.99 196.807C715.292 196.529 715.534 196.192 715.715 195.793C715.896 195.395 716.095 194.762 716.312 193.893C716.529 193.024 716.638 192.384 716.638 191.974Z" fill="#F0F0F0"/>
<path d="M729.616 189.82C729.761 189.856 730.352 189.874 731.39 189.874C732.295 189.874 732.765 189.856 732.802 189.82H732.892V190.942H731.734L729.055 197.658C729.043 197.67 729.025 197.688 729.001 197.712C728.976 197.736 728.952 197.76 728.928 197.784C728.904 197.808 728.892 197.821 728.892 197.821C728.892 197.821 728.874 197.833 728.838 197.857C728.801 197.881 728.789 197.893 728.801 197.893C728.813 197.893 728.789 197.899 728.729 197.911C728.669 197.923 728.645 197.923 728.657 197.911C728.669 197.899 728.645 197.905 728.584 197.929C728.524 197.953 728.488 197.953 728.476 197.929C728.464 197.905 728.415 197.905 728.331 197.929H728.132C727.927 197.929 727.782 197.869 727.697 197.748C727.613 197.627 727.444 197.241 727.19 196.59C726.997 196.107 726.834 195.703 726.702 195.377L725.833 193.205L724.964 195.377C724.843 195.691 724.686 196.083 724.493 196.554C724.24 197.217 724.071 197.609 723.987 197.73C723.902 197.851 723.757 197.917 723.552 197.929H723.335C723.118 197.929 722.973 197.917 722.901 197.893C722.828 197.869 722.738 197.79 722.629 197.658L719.95 190.942H718.774V189.82H718.9C719.081 189.856 719.733 189.874 720.855 189.874C722.098 189.874 722.828 189.856 723.045 189.82H723.208V190.942H722.339L723.932 194.888L725.236 191.666L724.946 190.942H723.806V189.82H723.932C724.077 189.856 724.662 189.874 725.688 189.874C726.907 189.874 727.607 189.856 727.788 189.82H727.933V190.942H727.48C727.178 190.942 727.028 190.954 727.028 190.978C727.04 191.027 727.329 191.757 727.896 193.169C728.464 194.581 728.753 195.286 728.765 195.286L730.521 190.942H729.489V189.82H729.616Z" fill="#D582FF"/>
<path d="M728.141 184.697C728.141 184.601 728.171 184.516 728.231 184.444C728.292 184.372 728.382 184.335 728.503 184.335C728.587 184.335 728.66 184.366 728.72 184.426C728.78 184.474 728.841 184.589 728.901 184.77C729.022 185.216 729.269 185.56 729.643 185.802C729.776 185.886 729.842 185.995 729.842 186.127C729.842 186.236 729.824 186.308 729.788 186.345C729.752 186.381 729.667 186.435 729.534 186.508C729.016 186.773 728.563 187.153 728.177 187.648C728.153 187.672 728.123 187.708 728.086 187.757C728.05 187.805 728.02 187.841 727.996 187.865C727.972 187.889 727.942 187.901 727.905 187.901C727.869 187.901 727.827 187.907 727.779 187.919C727.694 187.919 727.616 187.889 727.543 187.829C727.471 187.769 727.429 187.678 727.417 187.557C727.417 187.328 727.7 186.972 728.267 186.489H725.172L722.077 186.471C721.92 186.363 721.842 186.248 721.842 186.127C721.842 186.043 721.92 185.922 722.077 185.765H728.575C728.286 185.307 728.141 184.951 728.141 184.697Z" fill="#D582FF"/>
</g>
<path d="M651.32 142.411C651.149 142.64 650.953 142.722 650.733 142.659C650.514 142.596 650.165 142.443 649.687 142.203C649.208 141.963 648.756 141.799 648.326 141.713C645.228 141.069 642.485 142.34 640.095 145.526L621.807 169.911C618.767 173.964 615.226 175.372 611.183 174.138C613.501 177.672 613.239 181.335 610.397 185.124L591.881 209.811C591.189 210.734 590.692 211.453 590.392 211.962C589.587 213.421 589.241 214.944 589.357 216.532C589.472 218.121 590.077 219.474 591.174 220.591C591.201 220.611 591.269 220.677 591.379 220.789C591.49 220.901 591.566 220.987 591.604 221.045C591.643 221.104 591.693 221.187 591.757 221.294C591.82 221.403 591.834 221.522 591.799 221.65C591.766 221.777 591.704 221.9 591.615 222.018C591.247 222.509 588.574 219.961 587.924 217.623C587.276 215.284 587.699 212.912 589.197 210.509C589.455 210.11 589.862 209.541 590.416 208.801L608.762 184.341C609.723 183.059 610.39 181.807 610.762 180.583C611.134 179.359 611.218 178.309 611.01 177.433C610.803 176.557 610.589 175.874 610.37 175.385C610.151 174.895 609.878 174.47 609.552 174.109C609.473 174.049 609.366 173.952 609.228 173.82C609.091 173.688 608.994 173.564 608.937 173.447C608.88 173.331 608.819 173.22 608.756 173.113C608.691 173.006 608.669 172.887 608.687 172.752C608.706 172.619 608.757 172.494 608.841 172.381C608.954 172.231 609.066 172.122 609.176 172.059C609.286 171.995 609.412 171.977 609.553 172.009C609.693 172.041 609.826 172.09 609.952 172.155C610.078 172.22 610.248 172.303 610.461 172.404C610.674 172.504 610.872 172.595 611.06 172.676C612.232 173.142 613.556 173.209 615.032 172.873C616.509 172.536 617.863 171.71 619.096 170.397C619.431 170.06 619.882 169.514 620.447 168.761L638.418 144.8C638.985 144.043 639.462 143.456 639.846 143.038C640.231 142.62 640.881 142.12 641.797 141.537C642.713 140.954 643.707 140.559 644.778 140.353C648.008 139.422 651.599 142.04 651.318 142.414L651.32 142.411Z" fill="#F0F0F0"/>
<path d="M605.674 151.302H578.429V172.248H605.674V151.302Z" fill="black"/>
<g clip-path="url(#clip9_410_1405)">
<path d="M581.375 164.816C581.375 163.597 581.834 162.439 582.751 161.341C583.668 160.243 584.699 159.688 585.845 159.676C586.461 159.676 587.004 159.971 587.474 160.563C587.667 160.201 587.945 160.02 588.307 160.02C588.464 160.02 588.602 160.068 588.723 160.164C588.844 160.261 588.904 160.382 588.904 160.526C588.904 160.683 588.681 161.648 588.234 163.422C587.788 165.196 587.559 166.197 587.547 166.426C587.547 166.728 587.589 166.927 587.673 167.024C587.758 167.12 587.885 167.175 588.053 167.187C588.162 167.175 588.283 167.12 588.415 167.024C588.669 166.782 588.916 166.203 589.157 165.286C589.23 165.045 589.29 164.918 589.338 164.906C589.363 164.894 589.423 164.888 589.519 164.888H589.592C589.821 164.888 589.936 164.942 589.936 165.051C589.936 165.123 589.906 165.286 589.845 165.54C589.785 165.793 589.664 166.119 589.483 166.517C589.302 166.915 589.109 167.217 588.904 167.422C588.747 167.579 588.554 167.705 588.325 167.802C588.228 167.826 588.084 167.838 587.891 167.838C587.48 167.838 587.136 167.748 586.859 167.567C586.581 167.386 586.4 167.199 586.316 167.006L586.207 166.734C586.195 166.722 586.171 166.728 586.135 166.752C586.111 166.776 586.087 166.8 586.063 166.825C585.351 167.5 584.627 167.838 583.891 167.838C583.227 167.838 582.642 167.597 582.135 167.114C581.628 166.632 581.375 165.865 581.375 164.816ZM587.13 161.721C587.13 161.648 587.1 161.516 587.04 161.323C586.98 161.13 586.841 160.918 586.624 160.689C586.406 160.46 586.129 160.339 585.791 160.327C585.369 160.327 584.965 160.514 584.579 160.888C584.192 161.262 583.891 161.751 583.674 162.354C583.324 163.307 583.076 164.297 582.932 165.322C582.932 165.359 582.932 165.425 582.932 165.522C582.932 165.618 582.926 165.69 582.913 165.739C582.913 166.282 583.022 166.656 583.239 166.861C583.456 167.066 583.716 167.175 584.017 167.187C584.476 167.187 584.928 166.988 585.375 166.589C585.821 166.191 586.087 165.883 586.171 165.666C586.195 165.618 586.358 164.973 586.66 163.73C586.961 162.487 587.118 161.817 587.13 161.721Z" fill="#F0F0F0"/>
<path d="M597.609 159.621C597.754 159.658 598.321 159.676 599.311 159.676C600.192 159.676 600.668 159.658 600.741 159.621H600.849V160.743H599.582L597.754 164.834C597.018 166.499 596.596 167.404 596.487 167.549C596.391 167.669 596.276 167.729 596.144 167.729C596.119 167.729 596.077 167.729 596.017 167.729C595.956 167.729 595.896 167.723 595.836 167.711H595.564C595.383 167.711 595.239 167.621 595.13 167.44C595.021 167.259 594.762 166.716 594.352 165.811C594.171 165.413 594.026 165.087 593.917 164.834L592.089 160.743H590.823V159.621H590.967C591.148 159.658 591.818 159.676 592.976 159.676C594.267 159.676 595.021 159.658 595.239 159.621H595.401V160.743H594.533L595.492 162.879C596.107 164.267 596.433 164.96 596.469 164.96C596.469 164.948 596.777 164.255 597.392 162.879C598.008 161.504 598.327 160.798 598.352 160.762C598.352 160.749 598.207 160.743 597.917 160.743H597.483V159.621H597.609Z" fill="#FFF888"/>
<path d="M598.143 154.499C598.143 154.403 598.174 154.318 598.234 154.246C598.294 154.174 598.385 154.137 598.505 154.137C598.59 154.137 598.662 154.168 598.723 154.228C598.783 154.276 598.843 154.391 598.904 154.572C599.024 155.018 599.272 155.362 599.646 155.603C599.778 155.688 599.845 155.796 599.845 155.929C599.845 156.038 599.827 156.11 599.79 156.146C599.754 156.183 599.67 156.237 599.537 156.309C599.018 156.575 598.566 156.955 598.18 157.449C598.155 157.474 598.125 157.51 598.089 157.558C598.053 157.606 598.023 157.643 597.999 157.667C597.974 157.691 597.944 157.703 597.908 157.703C597.872 157.703 597.83 157.709 597.781 157.721C597.697 157.721 597.619 157.691 597.546 157.63C597.474 157.57 597.432 157.48 597.419 157.359C597.419 157.13 597.703 156.774 598.27 156.291H595.175L592.08 156.273C591.924 156.164 591.845 156.05 591.845 155.929C591.845 155.845 591.924 155.724 592.08 155.567H598.578C598.288 155.109 598.143 154.753 598.143 154.499Z" fill="#FFF888"/>
</g>
<path d="M681.709 102.722C681.592 102.878 681.431 102.913 681.227 102.829C681.023 102.745 680.691 102.571 680.23 102.306C679.77 102.042 679.344 101.842 678.951 101.708C676.11 100.722 673.875 101.315 672.246 103.487L665.231 112.841C663.158 115.604 660.238 116.184 656.469 114.584C659.062 117.752 659.389 120.63 657.451 123.213L650.282 132.773C649.81 133.402 649.479 133.898 649.291 134.258C648.801 135.297 648.728 136.456 649.073 137.739C649.418 139.021 650.16 140.191 651.302 141.249C651.328 141.269 651.399 141.333 651.514 141.438C651.629 141.545 651.709 141.624 651.751 141.677C651.795 141.73 651.852 141.804 651.925 141.899C651.998 141.995 652.028 142.091 652.017 142.187C652.007 142.284 651.971 142.372 651.91 142.453C651.659 142.788 648.903 140.35 647.971 138.389C647.04 136.427 647.053 134.603 648.012 132.918C648.179 132.639 648.452 132.248 648.83 131.744L655.884 122.34C656.539 121.466 656.938 120.57 657.082 119.653C657.224 118.735 657.138 117.911 656.82 117.182C656.503 116.452 656.209 115.876 655.94 115.453C655.671 115.03 655.366 114.649 655.021 114.312C654.942 114.253 654.832 114.159 654.69 114.033C654.548 113.907 654.444 113.793 654.375 113.692C654.307 113.591 654.236 113.492 654.164 113.398C654.09 113.303 654.052 113.204 654.048 113.099C654.044 112.996 654.07 112.905 654.128 112.828C654.205 112.725 654.287 112.656 654.375 112.622C654.463 112.588 654.571 112.593 654.701 112.64C654.83 112.687 654.956 112.746 655.077 112.817C655.198 112.888 655.361 112.98 655.565 113.093C655.769 113.206 655.959 113.308 656.137 113.401C657.246 113.952 658.429 114.207 659.685 114.165C660.941 114.122 662.014 113.672 662.905 112.814C663.15 112.597 663.466 112.23 663.851 111.716L670.65 102.652C671.037 102.136 671.369 101.741 671.646 101.467C671.923 101.193 672.422 100.894 673.144 100.569C673.866 100.245 674.685 100.083 675.602 100.082C678.321 99.8334 681.9 102.467 681.709 102.722Z" fill="#F0F0F0"/>
<path d="M651.979 91.2916H622.406V112.257H651.979V91.2916Z" fill="black"/>
<g clip-path="url(#clip10_410_1405)">
<path d="M625.937 95.9369C625.937 95.8163 625.961 95.6775 626.009 95.5207C626.057 95.3638 626.13 95.2854 626.226 95.2854C626.238 95.2854 626.673 95.2552 627.529 95.1949C628.386 95.1346 628.826 95.0984 628.851 95.0863C628.995 95.0863 629.068 95.1406 629.068 95.2492C629.068 95.3578 628.863 96.2205 628.452 97.8372C628.356 98.2474 628.253 98.6697 628.145 99.104C628.036 99.5384 627.946 99.8642 627.873 100.081L627.801 100.425C627.801 100.461 627.837 100.443 627.909 100.371C628.501 99.8883 629.11 99.647 629.737 99.647C630.485 99.647 631.089 99.9245 631.547 100.479C632.006 101.034 632.241 101.734 632.253 102.579C632.253 103.918 631.776 105.131 630.823 106.217C629.87 107.302 628.844 107.845 627.747 107.845C627.143 107.845 626.594 107.616 626.1 107.158C625.605 106.699 625.352 105.957 625.34 104.932V104.769C625.34 104.515 625.388 104.165 625.484 103.719C625.581 103.273 625.876 102.084 626.371 100.154C626.974 97.7769 627.276 96.516 627.276 96.3713C627.276 96.2265 627.047 96.142 626.588 96.1179C626.528 96.1179 626.48 96.1179 626.444 96.1179H626.353C626.232 96.1179 626.154 96.1179 626.118 96.1179C626.082 96.1179 626.039 96.0998 625.991 96.0636C625.943 96.0274 625.925 95.9852 625.937 95.9369ZM630.697 101.764V101.656C630.697 100.763 630.329 100.317 629.593 100.317C629.387 100.317 629.176 100.365 628.959 100.461C628.742 100.558 628.543 100.685 628.362 100.841C628.181 100.998 628.024 101.143 627.891 101.276C627.759 101.409 627.65 101.541 627.566 101.674L627.457 101.819L627.077 103.375C626.812 104.413 626.679 105.149 626.679 105.583C626.679 106.162 626.824 106.597 627.113 106.886C627.306 107.079 627.547 107.176 627.837 107.176C628.235 107.176 628.639 106.983 629.05 106.597C629.351 106.319 629.593 105.981 629.774 105.583C629.955 105.185 630.154 104.552 630.371 103.683C630.588 102.814 630.697 102.175 630.697 101.764Z" fill="#F0F0F0"/>
<path d="M643.673 99.6107C643.817 99.6469 644.409 99.665 645.446 99.665C646.351 99.665 646.822 99.6469 646.858 99.6107H646.948V100.733H645.79L643.112 107.447C643.1 107.459 643.082 107.477 643.057 107.501C643.033 107.526 643.009 107.55 642.985 107.574C642.961 107.598 642.949 107.61 642.949 107.61C642.949 107.61 642.931 107.622 642.894 107.646C642.858 107.67 642.846 107.682 642.858 107.682C642.87 107.682 642.846 107.688 642.786 107.7C642.726 107.713 642.701 107.713 642.714 107.7C642.726 107.688 642.701 107.694 642.641 107.719C642.581 107.743 642.545 107.743 642.533 107.719C642.52 107.694 642.472 107.694 642.388 107.719H642.189C641.984 107.719 641.839 107.658 641.754 107.538C641.67 107.417 641.501 107.031 641.248 106.379C641.055 105.897 640.892 105.493 640.759 105.167L639.89 102.995L639.022 105.167C638.901 105.48 638.744 105.873 638.551 106.343C638.298 107.007 638.129 107.399 638.044 107.52C637.96 107.64 637.815 107.707 637.61 107.719H637.393C637.176 107.719 637.031 107.707 636.958 107.682C636.886 107.658 636.796 107.58 636.687 107.447L634.008 100.733H632.832V99.6107H632.959C633.14 99.6469 633.791 99.665 634.913 99.665C636.156 99.665 636.886 99.6469 637.103 99.6107H637.266V100.733H636.397L637.99 104.678L639.293 101.457L639.003 100.733H637.863V99.6107H637.99C638.135 99.6469 638.72 99.665 639.745 99.665C640.964 99.665 641.664 99.6469 641.845 99.6107H641.99V100.733H641.537C641.236 100.733 641.085 100.745 641.085 100.769C641.097 100.817 641.386 101.547 641.953 102.959C642.52 104.37 642.81 105.076 642.822 105.076L644.578 100.733H643.546V99.6107H643.673Z" fill="#D582FF"/>
<path d="M642.198 94.489C642.198 94.3925 642.228 94.308 642.288 94.2357C642.349 94.1633 642.439 94.1271 642.56 94.1271C642.644 94.1271 642.717 94.1572 642.777 94.2176C642.837 94.2658 642.898 94.3804 642.958 94.5614C643.078 95.0078 643.326 95.3517 643.7 95.593C643.833 95.6775 643.899 95.786 643.899 95.9188C643.899 96.0273 643.881 96.0997 643.845 96.1359C643.808 96.1721 643.724 96.2264 643.591 96.2988C643.072 96.5642 642.62 96.9443 642.234 97.439C642.21 97.4631 642.18 97.4993 642.143 97.5476C642.107 97.5958 642.077 97.632 642.053 97.6562C642.029 97.6803 641.999 97.6924 641.962 97.6924C641.926 97.6924 641.884 97.6984 641.836 97.7104C641.751 97.7104 641.673 97.6803 641.6 97.62C641.528 97.5596 641.486 97.4691 641.474 97.3485C641.474 97.1193 641.757 96.7633 642.324 96.2807H639.23L636.135 96.2626C635.978 96.154 635.9 96.0394 635.9 95.9188C635.9 95.8343 635.978 95.7136 636.135 95.5568H642.632C642.343 95.0983 642.198 94.7424 642.198 94.489Z" fill="#D582FF"/>
</g>
</g>
<rect x="414.5" y="44.5" width="361" height="361" stroke="#404040"/>
<defs>
<clipPath id="clip0_410_1405">
<rect x="25" y="45" width="360" height="360" fill="white"/>
</clipPath>
<clipPath id="clip1_410_1405">
<rect width="640" height="360" fill="white" transform="translate(-215 45)"/>
</clipPath>
<clipPath id="clip2_410_1405">
<rect width="640" height="360" fill="white" transform="translate(-215 45)"/>
</clipPath>
<clipPath id="clip3_410_1405">
<rect width="20.56" height="15.512" fill="white" transform="translate(124.378 177.527)"/>
</clipPath>
<clipPath id="clip4_410_1405">
<rect width="22.808" height="15.528" fill="white" transform="translate(213.213 157.517)"/>
</clipPath>
<clipPath id="clip5_410_1405">
<rect width="65.496" height="16.816" fill="white" transform="translate(159.857 196.815)"/>
</clipPath>
<clipPath id="clip6_410_1405">
<rect x="415" y="45" width="360" height="360" fill="white"/>
</clipPath>
<clipPath id="clip7_410_1405">
<rect width="640" height="360" fill="white" transform="translate(275 45)"/>
</clipPath>
<clipPath id="clip8_410_1405">
<rect width="65.496" height="16.816" fill="white" transform="translate(667.867 182.525)"/>
</clipPath>
<clipPath id="clip9_410_1405">
<rect width="20.56" height="15.512" fill="white" transform="translate(580.778 152.327)"/>
</clipPath>
<clipPath id="clip10_410_1405">
<rect width="22.808" height="15.528" fill="white" transform="translate(624.613 92.3174)"/>
</clipPath>
</defs>
</svg>
