<?xml version="1.0" encoding="utf-8"?>
<!-- Generator: Adobe Illustrator 26.0.3, SVG Export Plug-In . SVG Version: 6.00 Build 0)  -->
<svg version="1.1" id="Layer_1" xmlns="http://www.w3.org/2000/svg" xmlns:xlink="http://www.w3.org/1999/xlink" x="0px" y="0px"
	 viewBox="0 0 288 288" style="enable-background:new 0 0 288 288;" xml:space="preserve">
<style type="text/css">
	.st0{fill:#DE9EC6;}
	.st1{fill:#56479D;}
	.st2{fill:#E7B0D1;}
	.st3{fill:#00AEEF;}
	.st4{fill:none;}
	.st5{fill:#FBB040;}
</style>
<rect x="116.9" y="89.9" transform="matrix(0.9525 -0.3044 0.3044 0.9525 -46.9008 44.44)" class="st0" width="4.4" height="165.4"/>
<polygon class="st1" points="216.7,221.9 140.6,74.6 144.5,72.6 145.5,74.6 220.6,219.8 "/>
<rect x="180.8" y="166.8" transform="matrix(0.7573 -0.6531 0.6531 0.7573 -56.8764 185.0428)" class="st2" width="79.4" height="4.4"/>
<rect x="97.5" y="139.3" transform="matrix(0.4597 -0.8881 0.8881 0.4597 -28.0235 236.9738)" class="st3" width="166.5" height="4.4"/>
<g>
	<line class="st4" x1="143.6" y1="38.7" x2="94.8" y2="193.3"/>
	
		<rect x="35.9" y="113.8" transform="matrix(0.3008 -0.9537 0.9537 0.3008 -27.3011 194.7265)" class="st5" width="166.5" height="4.4"/>
</g>
<rect x="128.3" y="17.5" transform="matrix(0.2049 -0.9788 0.9788 0.2049 22.6995 193.5533)" class="st3" width="4.4" height="130.7"/>
<rect x="54.2" y="124.1" transform="matrix(1.948660e-03 -1 1 1.948660e-03 -88.2612 200.6497)" class="st1" width="4.4" height="40.8"/>
<g>
	<line class="st4" x1="69.1" y1="218.5" x2="212.5" y2="144.9"/>
	
		<rect x="58" y="179.4" transform="matrix(0.8896 -0.4567 0.4567 0.8896 -67.4213 84.3424)" class="st5" width="165.6" height="4.4"/>
</g>
</svg>
