<?xml version="1.0" encoding="UTF-8"?>
<svg viewBox="173.424 40.596 2653.452 667.748" id="Layer_1" xmlns="http://www.w3.org/2000/svg" version="1.1">
  <!-- Generator: Adobe Illustrator 30.4.0, SVG Export Plug-In . SVG Version: 2.1.4 Build 226)  -->
  <defs>
    <style>
      .st0 {
        fill: none;
      }

      .st1 {
        fill: #010101;
      }

      .st2 {
        fill: #56479d;
      }

      .st3 {
        fill: #00aeef;
      }

      .st4 {
        fill: #de9ec6;
      }

      .st5 {
        fill: #fbb040;
      }

      .st6 {
        fill: #e7b0d1;
      }
    </style>
  </defs>
  <path class="st1" d="M903.4,387.5c0-119.6,43-183,123.1-183s123.1,63.4,123.1,182.1-43.5,181.4-124.3,181.4-122-62.2-122-180.5h0ZM1096.2,388.6c0-87-25.4-137.5-71.1-137.5s-68,47-68,132.8,24.5,138.7,70.1,138.7,68.9-49.3,68.9-134h0Z"/>
  <path class="st1" d="M1322.8,469.4l-65.9,93h-66.8l98.6-129.4-100.2-131.4h68.9l64.3,90.9,63.4-90.9h66.8l-96.7,126.8,102.3,134h-69.5l-65.2-93h0Z"/>
  <path class="st1" d="M1784.2,309.2c0,65.5-49.5,112-121.7,112h-86.3v141.2h-56.7V204.4h149.3c70.1,0,115.5,41.9,115.5,104.8h0ZM1727,312.4c0-33.8-23.6-55.3-59.7-55.3h-90.9v111.5h88.4c38.2,0,62.2-21.6,62.2-56.2Z"/>
  <path class="st1" d="M2023.4,476.1h-161.5l-32.2,86.3h-60.4l139.6-358h69.2l139.6,358h-61.8l-32.4-86.3h0ZM2003.5,423.3l-60.9-163.6-60.9,163.6h121.7Z"/>
  <path class="st1" d="M2401.3,562.4l-92.1-147.2h-71.1v147.2h-56.2V204.4h143.7c70.1,0,117.5,41.4,117.5,101.8s-30.1,86.3-75.7,98.2l99.3,158h-65.5,0ZM2386.5,308.3c0-31.2-22.9-51.1-57.8-51.1h-90.5v106.9h84.9c37.3,0,63.4-23.2,63.4-55.7h0Z"/>
  <path class="st1" d="M2769.5,433.5h57.2c-4.1,83.3-68.9,138.1-156.9,138.1s-174.3-77.8-174.3-189.8,68.9-185.6,176.4-185.6,145.1,48.6,153.4,124.8h-57.8c-5.1-43.5-45.6-72.2-97.7-72.2s-117.1,52.8-117.1,131.9,44.9,136,117.1,136,95.1-30.1,99.8-83.3h0Z"/>
  <rect class="st4" x="411" y="215.7" width="12.9" height="485.2" rx="2.2" ry="2.2" transform="translate(-119.7 148.8) rotate(-17.7)"/>
  <path class="st2" d="M700.8,597.2l-217.3-420.6c-1.6-3.1-.4-7,2.8-8.6h0c3.2-1.6,7-.4,8.6,2.8h0c0,0,217.4,420.5,217.4,420.5,1.6,3.1.4,6.9-2.6,8.6h-.2c-3.1,1.8-7.1.6-8.7-2.6Z"/>
  <rect class="st6" x="598.5" y="441.4" width="232.9" height="12.9" rx="2.2" ry="2.2" transform="translate(-119 575.6) rotate(-40.8)"/>
  <rect class="st3" x="354.1" y="360.7" width="488.4" height="12.9" rx="2.2" ry="2.2" transform="translate(-2.8 729.7) rotate(-62.6)"/>
  <g>
    <line class="st0" x1="489.4" y1="65.6" x2="346.2" y2="519.1"/>
    <rect class="st5" x="173.5" y="285.8" width="488.4" height="12.9" rx="2.2" ry="2.2" transform="translate(13.3 602.7) rotate(-72.5)"/>
  </g>
  <rect class="st3" x="444.6" y="3.2" width="12.9" height="383.4" rx="2.2" ry="2.2" transform="translate(167.9 596.5) rotate(-78.2)"/>
  <rect class="st2" x="227" y="316.2" width="12.9" height="119.7" rx="2.2" ry="2.2" transform="translate(-143 608.7) rotate(-89.9)"/>
  <g>
    <line class="st0" x1="270.9" y1="593" x2="691.5" y2="377.1"/>
    <rect class="st5" x="238.2" y="478.3" width="485.8" height="12.9" rx="2.2" ry="2.2" transform="translate(-168.3 273.2) rotate(-27.2)"/>
  </g>
</svg>