<svg width="2722" height="749" viewBox="0 0 2722 749" fill="none" xmlns="http://www.w3.org/2000/svg">
<path d="M218.799 378.6C218.799 236.5 269.899 161.2 364.999 161.2C460.099 161.2 511.199 236.5 511.199 377.5C511.199 518.5 459.499 593 363.599 593C267.699 593 218.699 519.1 218.699 378.6H218.799ZM447.799 380C447.799 276.6 417.599 216.7 363.399 216.7C309.199 216.7 282.599 272.5 282.599 374.5C282.599 476.5 311.699 539.2 365.899 539.2C420.099 539.2 447.799 480.6 447.799 380Z" fill="white"/>
<path d="M716.901 475.9L638.601 586.4H559.201L676.301 432.7L557.301 276.6H639.201L715.601 384.6L790.901 276.6H870.301L755.401 427.2L876.901 586.4H794.401L716.901 475.9Z" fill="white"/>
<path d="M1265 285.7C1265 363.5 1206.2 418.7 1120.4 418.7H1017.9V586.4H950.6V161.2H1127.9C1211.2 161.2 1265.1 211 1265.1 285.7H1265ZM1197.1 289.5C1197.1 249.4 1169.1 223.8 1126.2 223.8H1018.2V356.3H1123.2C1168.6 356.3 1197.1 330.7 1197.1 289.5Z" fill="white"/>
<path d="M1549.2 483.9H1357.3L1319.1 586.4H1247.4L1413.2 161.2H1495.4L1661.2 586.4H1587.8L1549.3 483.9H1549.2ZM1525.6 421.2L1453.3 226.9L1381 421.2H1525.6Z" fill="white"/>
<path d="M1998.1 586.4L1888.7 411.6H1804.3V586.4H1737.5V161.2H1908.2C1991.5 161.2 2047.8 210.4 2047.8 282.1C2047.8 353.8 2012.1 384.6 1957.9 398.7L2075.8 586.4H1998H1998.1ZM1980.5 284.6C1980.5 247.5 1953.3 223.9 1911.8 223.9H1804.3V350.9H1905.2C1949.5 350.9 1980.5 323.4 1980.5 284.7V284.6Z" fill="white"/>
<path d="M2435.5 433.3H2503.4C2498.5 532.3 2421.5 597.4 2317 597.4C2212.5 597.4 2110 505 2110 372C2110 239 2191.9 151.5 2319.5 151.5C2447.1 151.5 2491.9 209.2 2501.7 299.7H2433C2427 248 2378.8 213.9 2317 213.9C2255.2 213.9 2177.9 276.6 2177.9 370.6C2177.9 464.6 2231.2 532.2 2317 532.2C2378.8 532.2 2430 496.5 2435.5 433.2V433.3Z" fill="white"/>
</svg>
