<svg width="480" height="480" viewBox="0 0 480 480" fill="none" xmlns="http://www.w3.org/2000/svg">
<path d="M240.903 133.5L241.115 133.499L241.261 133.346C243.639 130.865 245.1 127.645 245.1 124.2C245.1 122.047 244.493 120.282 243.414 118.782C242.341 117.291 240.818 116.083 239.019 115.008C237.22 113.934 235.115 112.976 232.86 111.999C232.327 111.769 231.787 111.537 231.239 111.302C229.456 110.539 227.6 109.743 225.714 108.848L225.714 108.848C220.721 106.483 215.758 108.245 212.101 111.568C208.456 114.88 206 119.832 206 124.1C206 127.74 207.459 131.073 210.161 133.568L210.306 133.701L210.503 133.7L240.903 133.5Z" fill="white" stroke="black"/>
<path d="M295.903 133.5L296.121 133.499L296.268 133.339C298.635 130.766 300.1 127.65 300.1 124.2C300.1 119.98 297.692 115.202 294.057 111.976C290.41 108.74 285.441 106.997 280.317 109.035C279.136 109.495 278.014 109.926 276.951 110.335C274.964 111.098 273.183 111.783 271.604 112.431C269.179 113.428 267.192 114.355 265.626 115.382C264.053 116.413 262.884 117.558 262.115 118.996C261.347 120.432 261 122.12 261 124.2C261 127.743 262.46 131.075 265.161 133.568L265.306 133.701L265.503 133.7L295.903 133.5Z" fill="white" stroke="black"/>
<path d="M231 113.7C229.7 113.8 228.7 114.5 228.7 115.5C228.7 116.5 229.8 117.3 231.1 117.3C232.4 117.3 233.5 116.5 233.5 115.5C233.5 114.5 232.4 113.7 231 113.7L233.9 113C238.2 113 241.6 115.5 241.6 118.6C241.6 121.7 238.1 124.2 233.9 124.2C229.7 124.2 226.2 121.7 226.2 118.6C226.2 115.5 229.7 113 233.9 113" fill="black"/>
<path d="M287.9 113.3C286.6 113.4 285.6 114.1 285.6 115C285.6 116 286.7 116.7 288 116.7C289.3 116.7 290.4 115.9 290.4 115C290.4 114 289.3 113.3 288 113.3H287.9L290.1 112.8C290.7 112.6 291.3 112.6 292 112.7C295.7 113.1 298.6 115.4 298.6 118.2C298.6 121.2 295.1 123.7 290.9 123.7C286.6 123.7 283.2 121.2 283.2 118.2C283.2 115.2 286.7 112.7 290.9 112.7" fill="black"/>
<path d="M221.4 163H285.8C270.4 226.8 260.7 268.4 260.7 314C260.7 322 260.7 383.5 284.1 383.5C296.1 383.5 306.3 372.7 306.3 363C306.3 360.2 306.3 359 302.3 350.5C286.9 311.2 286.9 262.2 286.9 258.2C286.9 254.8 286.9 214.3 298.9 163.1L361.4 162.5C368.8 162.5 403.2 143.6 403.2 125.4C403.2 112.9 378.1 132.4 367.8 132.4H180.4C167.1 133 162.7 133.9 133.8 133.8C122.5 133.8 111.7 104 103 101.1C96.6003 98.9001 106.1 131.9 111.6 141.3C114.5 146.2 124.1 151.5 128.4 152.8C155.5 161.1 161.6 163.3 175.8 163.3H208.3C195.8 206 181.5 255.6 134.8 355.3C130.2 364.4 130.2 365.6 130.2 369C130.2 381 140.5 383.8 145.6 383.8C162.1 383.8 166.7 369 173.5 345.1C182.6 316 182.6 314.9 188.3 292.1L221.4 163Z" fill="#0C7F99"/>
<path d="M227.3 157C232.8 155.6 235.2 153.1 240.8 153C247.7 152.9 250.3 154.8 253.5 155.8L253.2 152.7C249.8 151.4 246.9 149.9 241.5 149.9C237.6 149.9 232.9 151.5 226.9 153.9" fill="black"/>
</svg>
