<svg width="480" height="480" viewBox="0 0 480 480" fill="none" xmlns="http://www.w3.org/2000/svg">
<path d="M241.966 132.095L242.156 132.07L242.28 131.924C244.642 129.152 246.1 125.84 246.1 122.2C246.1 113.139 237.282 105.999 226.597 106.1C215.916 106.101 207.1 113.239 207.1 122.3C207.1 124.196 207.828 126.917 208.862 129.463C209.895 132.008 211.275 134.482 212.646 135.854L212.822 136.029L213.067 135.996L241.966 132.095Z" fill="white" stroke="black"/>
<path d="M295.98 133.5L296.223 133.509L296.381 133.324C297.564 131.935 298.739 130.069 299.619 128.104C300.497 126.145 301.1 124.047 301.1 122.2C301.1 113.137 292.28 106 281.5 106C270.818 106 262 113.138 262 122.2C262 125.933 263.453 129.46 266.146 132.154L266.285 132.292L266.48 132.3L295.98 133.5Z" fill="white" stroke="black"/>
<path d="M232 110C230.7 110.1 229.7 110.9 229.7 112C229.7 113.1 230.8 114 232.1 114C233.4 114 234.5 113.1 234.5 112C234.5 110.9 233.4 110 232.1 110H232L234.9 109.2C239.2 109.2 242.6 112 242.6 115.6C242.6 119.1 239.1 122 234.9 122C230.7 122 227.2 119.2 227.2 115.6C227.2 112.1 230.7 109.2 234.9 109.2" fill="black"/>
<path d="M288 110C286.7 110.1 285.7 110.9 285.7 112C285.7 113.1 286.8 114 288.1 114C289.4 114 290.5 113.1 290.5 112C290.5 110.9 289.4 110 288.1 110C288.1 110 288 110 288 110L290.9 109.2C295.2 109.2 298.6 112 298.6 115.6C298.6 119.1 295.1 122 290.9 122C286.7 122 283.2 119.2 283.2 115.6C283.2 112.1 286.7 109.2 290.9 109.2" fill="black"/>
<path d="M223.4 162.1H287.8C272.4 225.9 262.7 267.5 262.7 313.1C262.7 321.1 262.7 382.6 286.1 382.6C298.1 382.6 308.3 371.8 308.3 362.1C308.3 359.3 308.3 358.1 304.3 349.6C288.9 310.3 288.9 261.3 288.9 257.3C288.9 253.9 288.9 213.4 300.9 162.2L364.7 181.2C372.1 181.2 391.4 181.2 390.9 163C390.6 151.9 375.6 149.4 362.6 146.3C336.6 140 254.7 114.2 177.8 145.6C167.3 149.9 151.4 151.2 123.7 179.4C108.1 195.2 90.7002 226.1 90.7002 229.5C90.7002 232.9 93.5002 234.1 97.0002 234.1C101 234.1 101.6 232.4 104.4 229C134 182.3 164.3 173.6 179.3 169.4L210.4 162.3C197.9 205 183.6 254.6 136.9 354.3C132.3 363.4 132.3 364.6 132.3 368C132.3 380 142.6 382.8 147.7 382.8C164.2 382.8 168.8 368 175.6 344.1C184.7 315 184.7 313.9 190.4 291.1L223.4 162.1Z" fill="#0C7F99"/>
<path d="M251.9 154.1C254.1 154.1 252.7 154.2 257.3 154.1C261.4 154 262.2 154 263.5 153.9L263.4 150.8C261.9 150.9 259.7 151 257.5 151C256 151 254.1 151 251.7 151" fill="black"/>
</svg>
