<svg width="480" height="480" viewBox="0 0 480 480" fill="none" xmlns="http://www.w3.org/2000/svg">
<path d="M255.36 139.426L256.012 139.421L256.454 138.941C258.964 136.214 260.55 132.764 260.55 129.026C260.55 126.7 259.986 124.679 258.893 122.981C257.803 121.289 256.244 120.004 254.383 119.053C250.707 117.173 245.714 116.525 240.229 116.626C235.155 116.677 230.077 117.332 226.214 119.142C224.265 120.055 222.564 121.291 221.35 122.948C220.122 124.624 219.45 126.651 219.45 129.026C219.45 132.84 221.022 136.541 223.933 139.228L224.368 139.629L224.96 139.626L255.36 139.426Z" fill="white" stroke="black" stroke-width="3"/>
<path d="M309.91 138.6L310.562 138.596L311.004 138.116C313.513 135.388 315.1 131.938 315.1 128.2C315.1 125.874 314.536 123.853 313.442 122.155C312.353 120.463 310.793 119.178 308.933 118.227C305.257 116.348 300.264 115.699 294.779 115.8C289.704 115.851 284.627 116.507 280.764 118.317C278.815 119.23 277.114 120.465 275.899 122.123C274.672 123.798 274 125.825 274 128.2C274 132.014 275.572 135.715 278.483 138.402L278.918 138.804L279.51 138.8L309.91 138.6Z" fill="white" stroke="black" stroke-width="3"/>
<path d="M248 121.4C246.2 121.5 244.9 123.7 246.4 125.6C249 127.6 252 124.6 250 122C249.3 121.5 248.7 121.3 248 121.4L250.9 120.4C257 120.4 261.4 127.4 256.5 133.8C250.1 138.6 243.1 134.2 243.1 128.2C243.1 123.9 246.6 120.5 250.8 120.5" fill="black"/>
<path d="M303 121.4C301.2 121.5 299.9 123.7 301.4 125.6C304 127.6 307 124.6 305 122C304.3 121.5 303.7 121.3 303 121.4L305.9 120.4C312 120.4 316.4 127.4 311.5 133.8C305.1 138.6 298.1 134.2 298.1 128.2C298.1 123.9 301.6 120.5 305.8 120.5" fill="black"/>
<path d="M237.2 161.6H301.6C286.2 225.4 276.5 267 276.5 312.6C276.5 320.6 276.5 382.1 299.9 382.1C311.9 382.1 322.1 371.3 322.1 361.6C322.1 358.8 322.1 357.6 318.1 349.1C302.7 309.8 300.7 260.8 300.7 256.8C300.7 253.4 302.7 212.9 314.7 161.7L332.5 161.5C351.3 164.9 367.7 173.7 367.7 155.5C367.7 143 342.9 137 332.6 137L195.6 137.2C182.5 137.2 168.2 146.2 159.5 177.7C156.7 187.8 149.5 222.6 149.5 226C149.5 229.4 152.3 230.6 155.8 230.6C159.8 230.6 162.2 229.8 163.2 225.5C174.9 176.8 177.4 161.8 191.7 161.8H224.2C211.7 204.5 197.4 254.1 150.7 353.8C146.1 362.9 146.1 364.1 146.1 367.5C146.1 379.5 156.4 382.3 161.5 382.3C178 382.3 182.6 367.5 189.4 343.6C198.5 314.5 198.5 313.4 204.2 290.6L237.2 161.6Z" fill="#0C7F99"/>
<path d="M253.3 155.1C258.8 155.1 255.2 154.2 266.8 154.1C277.1 154 279.2 155 282.5 154.9L282.2 151.8C278.5 151.9 272.9 151 267.5 151C263.6 151 259 152 252.9 152" fill="black"/>
</svg>
