<svg width="480" height="480" viewBox="0 0 480 480" fill="none" xmlns="http://www.w3.org/2000/svg">
<path d="M242.071 116.79L242.659 116.723L243.042 116.273C245.528 113.355 247.101 109.821 247.101 105.9C247.101 96.1169 237.649 88.6978 226.593 88.7999C215.55 88.8031 206.101 96.2172 206.101 106C206.101 108.198 207.213 110.956 208.507 113.34C209.828 115.775 211.508 118.13 212.939 119.561L213.451 120.073L214.171 119.99L242.071 116.79Z" fill="white" stroke="black" stroke-width="3"/>
<path d="M295.924 118.498L296.662 118.536L297.142 117.973C298.406 116.489 299.63 114.455 300.54 112.344C301.444 110.248 302.1 107.935 302.1 105.9C302.1 96.1106 292.641 88.7 281.5 88.7C270.454 88.7 261 96.1152 261 105.9C261 109.9 262.56 113.681 265.439 116.561L265.847 116.969L266.424 116.998L295.924 118.498Z" fill="white" stroke="black" stroke-width="3"/>
<path d="M232 93.6999C230.7 93.7999 229.7 94.5999 229.7 95.6999C229.7 96.7999 230.8 97.6999 232.1 97.6999C233.4 97.6999 234.5 96.7999 234.5 95.6999C234.5 94.5999 233.4 93.6999 232 93.6999C232.1 93.6999 232 93.6999 232 93.6999L234.9 92.8999C239.2 92.8999 242.6 95.6999 242.6 99.2999C242.6 102.8 239.1 105.7 234.9 105.7C230.7 105.7 227.2 102.9 227.2 99.2999C227.2 95.7999 230.7 92.8999 234.9 92.8999" fill="black"/>
<path d="M288 93.6999C286.7 93.7999 285.7 94.5999 285.7 95.6999C285.7 96.7999 286.8 97.6999 288.1 97.6999C289.4 97.6999 290.5 96.7999 290.5 95.6999C290.5 94.5999 289.4 93.6999 288.1 93.6999H288L290.9 92.8999C295.2 92.8999 298.6 95.6999 298.6 99.2999C298.6 102.8 295.1 105.7 290.9 105.7C286.7 105.7 283.2 102.9 283.2 99.2999C283.2 95.7999 286.7 92.8999 290.9 92.8999" fill="black"/>
<path d="M223.4 145.8H287.8C272.4 209.6 262.7 251.2 262.7 296.8C262.7 304.8 262.7 366.3 286.1 366.3C298.1 366.3 308.3 355.5 308.3 345.8C308.3 343 308.3 341.8 304.3 333.3C288.9 294 288.9 245 288.9 241C288.9 237.6 288.9 197.1 300.9 145.9L364.7 164.9C372.1 164.9 391.4 164.9 390.9 146.7C390.6 135.6 375.6 133.1 362.6 130C336.6 123.7 254.7 97.8999 177.8 129.3C167.3 133.6 151.4 134.9 123.7 163.1C108.1 178.9 90.7002 209.8 90.7002 213.2C90.7002 216.6 93.5002 217.8 97.0002 217.8C101 217.8 101.6 216.1 104.4 212.7C134 166 164.3 157.3 179.3 153.1L210.4 146C197.9 188.7 183.6 238.3 136.9 338C132.3 347.1 132.3 348.3 132.3 351.7C132.3 363.7 142.6 366.5 147.7 366.5C164.2 366.5 168.8 351.7 175.6 327.8C184.7 298.7 184.7 297.6 190.4 274.8L223.4 145.8Z" fill="#0C7F99"/>
<path d="M251.9 137.8C254.1 137.8 252.7 137.9 257.3 137.8C261.4 137.7 262.2 137.7 263.5 137.6L263.4 134.5C261.9 134.6 259.7 134.7 257.5 134.7C256 134.7 254.1 134.7 251.7 134.7" fill="black"/>
</svg>
