<svg width="480" height="480" viewBox="0 0 480 480" fill="none" xmlns="http://www.w3.org/2000/svg">
<path d="M238.915 138.5L239.66 138.493L240.105 137.894C242.588 134.546 244.1 130.336 244.1 125.8C244.1 120.165 241.906 115.972 238.212 113.265C234.582 110.606 229.669 109.496 224.371 109.6L224.357 109.601L224.343 109.601C218.963 109.806 213.687 110.908 209.709 113.434C205.643 116.015 203 120.052 203 125.8C203 130.418 204.503 134.869 207.351 138.264L207.806 138.807L208.515 138.8L238.915 138.5Z" fill="white" stroke="black" stroke-width="3"/>
<path d="M293.915 138.5L294.66 138.493L295.105 137.894C297.588 134.546 299.1 130.336 299.1 125.8C299.1 120.109 296.636 115.81 292.715 112.983C288.849 110.197 283.662 108.9 278.2 108.9C272.737 108.9 267.708 110.198 264.006 113.005C260.25 115.853 258 120.156 258 125.8C258 130.418 259.503 134.869 262.351 138.264L262.806 138.807L263.515 138.8L293.915 138.5Z" fill="white" stroke="black" stroke-width="3"/>
<path d="M230 114.1C228.7 114.2 227.7 115.2 227.7 116.5C227.7 117.8 228.8 118.9 230.1 118.9C231.4 118.9 232.5 117.8 232.5 116.5C232.5 115.2 231.4 114.1 230.1 114.1H230L232.9 113.1C237.2 113.1 240.6 116.5 240.6 120.7C240.6 124.9 237.1 128.3 232.9 128.3C228.7 128.3 225.2 124.9 225.2 120.7C225.2 116.5 228.7 113.1 232.9 113.1" fill="black"/>
<path d="M285 114.4C283.7 114.5 282.7 115.4 282.7 116.5C282.7 117.7 283.8 118.6 285.1 118.6C286.4 118.6 287.5 117.7 287.5 116.5C287.5 115.3 286.4 114.4 285.1 114.4H285L287.9 113.5C292.2 113.5 295.6 116.5 295.6 120.1C295.6 123.7 292.1 126.7 287.9 126.7C283.7 126.7 280.2 123.7 280.2 120.1C280.2 116.5 283.7 113.5 287.9 113.5" fill="black"/>
<path d="M219.4 167.1H283.8C273.1 231.2 275.8 258 273.8 297.5C272.5 324.1 258.5 366.2 277.6 379.6C283.1 383.5 284 383 291.7 381.8C297.4 380.9 300.6 379.6 302.3 369.6C307.4 339.7 299.1 321 298.4 287.4C298 267.8 284.9 218.4 296.9 167.2H360.7C368.1 167.2 386.7 161.6 386.7 143.4C386.7 130.9 376 136.4 365.8 136.4H178.4C165.3 136.4 138.2 155.2 131.1 176.6C125.4 193.8 159.6 210.9 162.9 213.9C165.4 216.2 172.6 218.9 176 218.9C180 218.9 187 216.3 183.4 213.8C151.8 191.4 149 166 173.9 167.1H206.4C193.9 209.8 201 259.2 176.4 355.7C173.9 365.6 173.6 375.5 173.6 378.9C173.6 390.9 191.7 385.9 196.8 385.9C213.3 385.9 207.7 368.3 208.8 362C211.6 345.8 210.1 330.5 212.1 304.7L219.4 167.1Z" fill="#0C7F99"/>
<path d="M217.2 159.7C218 160.4 221.7 160.8 226 160.9C230 161 232.1 160.3 236.7 159.8V157.3C231.4 157.1 228.5 156.3 225 156.2C221 156.1 217.6 155.9 216.8 156.7" fill="black"/>
</svg>
