<svg width="480" height="480" viewBox="0 0 480 480" fill="none" xmlns="http://www.w3.org/2000/svg">
<path d="M242.3 98.4C242.3 103.2 240.7 107.8 238.1 111.3L203.4 111.6C200.4 108.1 198.8 103.3 198.8 98.4C198.8 86.4 208.5 88.5 220.5 87C232.5 85.4 242.3 86.4 242.3 98.4Z" fill="white"/>
<path d="M305 98.3999C305 103.2 303.4 107.8 300.8 111.3L266.1 111.6C263.1 108.1 261.5 103.3 261.5 98.3999C261.5 86.3999 271.5 84.2999 283.2 86.9999C295.2 89.5999 305 86.3999 305 98.3999Z" fill="white"/>
<path d="M225.6 95.3C223.9 95.4 222.6 97 223.1 98.8C223.3 99.4 223.6 99.9 224.2 100.3C226.9 102.1 230 98.7 227.7 96.1C227.3 95.6 226.6 95.3 225.9 95.3H225.6L228.9 94.2C235.1 94.2 239.7 100.6 236.8 106.9C236.1 108.4 234.9 109.7 233.4 110.5C226.9 114 220.2 109.1 220.2 102.9C220.2 98.1 224.2 94.1 229 94.1" fill="black"/>
<path d="M288.3 95.3C286.6 95.4 285.3 97 285.8 98.8C286 99.4 286.3 99.9 286.9 100.3C289.6 102.1 292.7 98.7 290.4 96.1C290 95.6 289.3 95.3 288.6 95.3H288.3L291.6 94.2C297.8 94.2 302.4 100.6 299.5 106.9C298.8 108.4 297.6 109.7 296.1 110.5C289.6 114 282.9 109.1 282.9 102.9C282.9 98.1 286.9 94.1 291.7 94.1" fill="black"/>
<path d="M215.1 147.8H289.6C277.2 179.9 287.5 273.2 297.9 311.2C300.3 320.1 287.5 350.4 273.4 391.2C268.9 404.2 300.6 399.5 308.2 391.4C310.4 389 311.3 388.1 314.5 378C314.6 377.8 314.6 377.5 314.7 377.4C332.7 332.4 326.7 316.8 326.7 312.2C326.7 308.3 290.9 206.6 304.7 147.6H378.2C386.7 147.6 408.4 147.6 408.4 126.6C408.4 112.2 396 112.2 384.1 112.2H168.2C141.3 112.9 125.1 124.4 115.9 144C107.8 161 153.2 209.4 155.9 212.3C159.7 216.6 168 219.9 171.2 217.7C175.8 214.4 174.7 215.9 171.7 211.7C132.1 156.6 126.3 147.4 163.1 147.6H200.5C186 196.8 206.9 277.6 196.6 298.4C191.3 308.9 147.4 380.5 147.4 384.4C147.4 398.2 159.3 401.4 165.1 401.4C184.1 401.4 189.6 374 203.5 349C221.2 317 222.8 319.4 229.4 293.1L215.5 147.5" fill="#0C7F99"/>
<path d="M227.7 132.2C228.8 135.6 229.9 138.1 238.9 138C248.3 137.9 249.4 136.7 254 134.5V131.1C248.3 134.5 246 134.5 239.9 134.5C235.5 134.5 231.2 132.2 227.8 128.8" fill="black"/>
</svg>
