<svg width="480" height="480" viewBox="0 0 480 480" fill="none" xmlns="http://www.w3.org/2000/svg">
<path d="M258.096 113.593L258.096 113.592C257.773 109.134 256.23 105.708 252.904 103.5C249.695 101.37 245.068 100.549 238.987 100.6L238.985 100.6C233.619 100.651 228.599 101.278 224.683 103.175C220.666 105.121 217.855 108.389 217.019 113.456L217.019 113.459C216.217 118.383 218.627 123.017 221.35 126.264L221.806 126.807L222.514 126.8L252.914 126.5L253.66 126.493L254.104 125.894C256.542 122.609 258.429 118.261 258.096 113.593Z" fill="white" stroke="black" stroke-width="3"/>
<path d="M307.91 126.6L308.597 126.595L309.042 126.073C311.547 123.132 313.1 119.395 313.1 115.4C313.1 110.372 310.802 106.565 307.07 104.077C303.404 101.633 298.429 100.5 293 100.5C287.57 100.5 282.392 101.633 278.518 104.053C274.586 106.509 272 110.306 272 115.4C272 119.488 273.55 123.361 276.42 126.34L276.866 126.804L277.51 126.8L307.91 126.6Z" fill="white" stroke="black" stroke-width="3"/>
<path d="M244.999 103.8C243.699 103.9 242.699 104.9 242.699 106.2C242.699 107.5 243.799 108.6 245.099 108.6C246.399 108.6 247.499 107.5 247.499 106.2C247.499 104.9 246.399 103.8 245.099 103.8H244.999L247.899 102.8C252.199 102.8 255.599 106.3 255.599 110.5C255.599 114.7 252.099 118.2 247.899 118.2C243.699 118.2 240.199 114.7 240.199 110.5C240.199 106.3 243.699 102.8 247.899 102.8" fill="black"/>
<path d="M299.999 104.8C298.699 104.9 297.699 105.9 297.699 107.2C297.699 108.5 298.799 109.6 300.099 109.6C301.399 109.6 302.499 108.5 302.499 107.2C302.499 105.9 301.399 104.8 300.099 104.8H299.999L302.899 103.8C307.199 103.8 310.599 107.3 310.599 111.5C310.599 115.7 307.099 119.2 302.899 119.2C298.699 119.2 295.199 115.7 295.199 111.5C295.199 107.3 298.699 103.8 302.899 103.8" fill="black"/>
<path d="M233.4 155.1H297.8C287.1 219.2 295.7 246.7 293.7 286.1C292.4 312.7 261.5 354.2 280.6 367.6C286.1 371.5 287 371 294.7 369.8C300.4 368.9 303.6 367.6 305.3 357.6C310.4 327.7 319.4 306.3 318.6 272.8C318.2 253.2 298.9 206.5 310.8 155.2H356.6C364 155.2 380.9 159.1 380.9 146.1C380.9 131.1 372 124.4 361.7 124.4H192.4C179.3 124.4 152.2 143.2 145.1 164.6C139.4 181.8 177.3 185.1 181 185.1C187 185.1 205.5 186 209 186C213 186 220.9 181.1 216.4 180.9C173 179 163 154 187.9 155.1H220.4C207.9 197.8 215 247.2 190.4 343.7C187.9 353.6 187.6 363.5 187.6 366.9C187.6 378.9 205.7 373.9 210.8 373.9C227.3 373.9 221.7 356.3 222.8 350C225.6 333.8 224.1 318.5 226.1 292.7L233.4 155.1Z" fill="#0C7F99"/>
<path d="M236.2 146.7C237 148 235.6 148.7 240 149C249 149.5 249 149 253 147V144C250 145 249.1 146.1 242 146C238 145.9 236.7 143 235.9 143.8" fill="black"/>
</svg>
