<svg width="480" height="480" viewBox="0 0 480 480" fill="none" xmlns="http://www.w3.org/2000/svg">
<path d="M237.5 88.8C237.5 93.6 235.9 98.2 233.3 101.7L198.6 102C195.6 98.5 194 93.7 194 88.8C194 76.8 203.8 79.3 215.7 80.8C228.8 82.3 237.5 76.9 237.5 88.8Z" fill="white"/>
<path d="M300.199 88.7999C300.199 93.5999 298.599 98.1999 295.999 101.7L261.299 102C258.299 98.4999 256.699 93.6999 256.699 88.7999C256.699 76.7999 266.399 82.2999 278.399 80.7999C290.399 79.2999 300.199 76.8999 300.199 88.7999Z" fill="white"/>
<path d="M225.4 83.4999C223.7 83.5999 222.4 85.1999 222.9 86.9999C223.1 87.5999 223.4 88.0999 224 88.4999C226.7 90.2999 229.8 86.8999 227.5 84.2999C227.1 83.7999 226.4 83.4999 225.7 83.4999H225.4L228.7 82.3999C234.9 82.3999 239.5 88.7999 236.6 95.0999C235.9 96.5999 234.7 97.8999 233.2 98.6999C226.7 102.2 220 97.2999 220 91.0999C220 86.2999 224 82.2999 228.8 82.2999" fill="black"/>
<path d="M288.099 83.4999C286.399 83.5999 285.099 85.1999 285.599 86.9999C285.799 87.5999 286.099 88.0999 286.699 88.4999C289.399 90.2999 292.499 86.8999 290.199 84.2999C289.799 83.7999 289.099 83.4999 288.399 83.4999H288.099L291.399 82.3999C297.599 82.3999 302.199 88.7999 299.299 95.0999C298.599 96.5999 297.399 97.8999 295.899 98.6999C289.399 102.2 282.699 97.2999 282.699 91.0999C282.699 86.2999 286.699 82.2999 291.499 82.2999" fill="black"/>
<path d="M210.499 137.1H284.399C284.399 137.1 255.799 257.8 255.799 309.8C255.799 318.9 255.799 389.1 282.499 389.1C296.199 389.1 307.799 376.8 307.799 365.7C307.799 362.5 307.799 361.1 303.199 351.4C285.599 306.6 285.599 250.7 285.599 246.1C285.599 242.2 299.299 137 299.299 137H372.099C380.499 137 427.899 101.1 394.099 91.3C363.299 82.4 325.699 79.1 377.899 102.7H164.199C136.399 105.7 134.499 105 163.699 86.8C179.699 76.8 149.299 81.9 145.499 82.4C141.699 82.9 130.299 85.4 124.999 95.7C120.399 104.6 115.899 114.6 118.199 119C127.299 136.8 142.799 136.9 159.099 136.9H196.199C181.899 185.6 165.599 242.2 112.399 355.9C107.199 366.3 107.199 367.6 107.199 371.5C107.199 385.2 118.899 388.4 124.799 388.4C143.599 388.4 148.899 371.5 156.599 344.3C166.999 311.1 166.999 309.9 173.499 283.9L210.999 137" fill="#0C7F99"/>
<path d="M222.298 127.3C227.698 126 226.498 126 232.198 128.3C237.898 130.6 243.898 127.2 247.598 127L247.298 123.5C243.098 123.6 237.598 127.5 232.798 123.7C229.798 121.4 228.698 122.6 221.898 123.7" fill="black"/>
</svg>
