<svg width="720" height="400" viewBox="0 0 720 400" fill="none" xmlns="http://www.w3.org/2000/svg">
<rect width="720" height="400" fill="black"/>
<g clip-path="url(#clip0_797_17389)">
<path d="M659.669 57.4681H60.4681V343.565H659.669V57.4681Z" fill="black"/>
<path d="M60 66.5481H659.925" stroke="#181818" stroke-miterlimit="407.437"/>
<path d="M60 76.0963H659.925" stroke="#181818" stroke-miterlimit="407.437"/>
<path d="M60 85.6444H659.925" stroke="#181818" stroke-miterlimit="407.437"/>
<path d="M60 95.1926H659.925" stroke="#181818" stroke-miterlimit="407.437"/>
<path d="M60 114.288H659.925" stroke="#181818" stroke-miterlimit="407.437"/>
<path d="M60 123.836H659.925" stroke="#181818" stroke-miterlimit="407.437"/>
<path d="M60 133.385H659.925" stroke="#181818" stroke-miterlimit="407.437"/>
<path d="M60 142.933H659.925" stroke="#181818" stroke-miterlimit="407.437"/>
<path d="M60 162.029H659.925" stroke="#181818" stroke-miterlimit="407.437"/>
<path d="M60 171.577H659.925" stroke="#181818" stroke-miterlimit="407.437"/>
<path d="M60 181.125H659.925" stroke="#181818" stroke-miterlimit="407.437"/>
<path d="M60 190.674H659.925" stroke="#181818" stroke-miterlimit="407.437"/>
<path d="M60 209.77H659.925" stroke="#181818" stroke-miterlimit="407.437"/>
<path d="M60 219.318H659.925" stroke="#181818" stroke-miterlimit="407.437"/>
<path d="M60 228.865H659.925" stroke="#181818" stroke-miterlimit="407.437"/>
<path d="M60 238.413H659.925" stroke="#181818" stroke-miterlimit="407.437"/>
<path d="M60 257.51H659.925" stroke="#181818" stroke-miterlimit="407.437"/>
<path d="M60 267.058H659.925" stroke="#181818" stroke-miterlimit="407.437"/>
<path d="M60 276.606H659.925" stroke="#181818" stroke-miterlimit="407.437"/>
<path d="M60 286.155H659.925" stroke="#181818" stroke-miterlimit="407.437"/>
<path d="M60 305.251H659.925" stroke="#181818" stroke-miterlimit="407.437"/>
<path d="M60 314.799H659.925" stroke="#181818" stroke-miterlimit="407.437"/>
<path d="M60 324.347H659.925" stroke="#181818" stroke-miterlimit="407.437"/>
<path d="M60 333.896H659.925" stroke="#181818" stroke-miterlimit="407.437"/>
<path d="M69.5482 57V343.443" stroke="#181818" stroke-miterlimit="407.437"/>
<path d="M79.0964 57V343.443" stroke="#181818" stroke-miterlimit="407.437"/>
<path d="M88.6446 57V343.443" stroke="#181818" stroke-miterlimit="407.437"/>
<path d="M98.1927 57V343.443" stroke="#181818" stroke-miterlimit="407.437"/>
<path d="M117.288 57V343.443" stroke="#181818" stroke-miterlimit="407.437"/>
<path d="M126.836 57V343.443" stroke="#181818" stroke-miterlimit="407.437"/>
<path d="M136.385 57V343.443" stroke="#181818" stroke-miterlimit="407.437"/>
<path d="M145.933 57V343.443" stroke="#181818" stroke-miterlimit="407.437"/>
<path d="M165.029 57V343.443" stroke="#181818" stroke-miterlimit="407.437"/>
<path d="M174.577 57V343.443" stroke="#181818" stroke-miterlimit="407.437"/>
<path d="M184.125 57V343.443" stroke="#181818" stroke-miterlimit="407.437"/>
<path d="M193.674 57V343.443" stroke="#181818" stroke-miterlimit="407.437"/>
<path d="M212.77 57V343.443" stroke="#181818" stroke-miterlimit="407.437"/>
<path d="M222.318 57V343.443" stroke="#181818" stroke-miterlimit="407.437"/>
<path d="M231.865 57V343.443" stroke="#181818" stroke-miterlimit="407.437"/>
<path d="M241.414 57V343.443" stroke="#181818" stroke-miterlimit="407.437"/>
<path d="M260.51 57V343.443" stroke="#181818" stroke-miterlimit="407.437"/>
<path d="M270.058 57V343.443" stroke="#181818" stroke-miterlimit="407.437"/>
<path d="M279.606 57V343.443" stroke="#181818" stroke-miterlimit="407.437"/>
<path d="M289.154 57V343.443" stroke="#181818" stroke-miterlimit="407.437"/>
<path d="M308.251 57V343.443" stroke="#181818" stroke-miterlimit="407.437"/>
<path d="M317.799 57V343.443" stroke="#181818" stroke-miterlimit="407.437"/>
<path d="M327.347 57V343.443" stroke="#181818" stroke-miterlimit="407.437"/>
<path d="M336.895 57V343.443" stroke="#181818" stroke-miterlimit="407.437"/>
<path d="M355.991 57V343.443" stroke="#181818" stroke-miterlimit="407.437"/>
<path d="M365.539 57V343.443" stroke="#181818" stroke-miterlimit="407.437"/>
<path d="M375.087 57V343.443" stroke="#181818" stroke-miterlimit="407.437"/>
<path d="M384.635 57V343.443" stroke="#181818" stroke-miterlimit="407.437"/>
<path d="M403.732 57V343.443" stroke="#181818" stroke-miterlimit="407.437"/>
<path d="M413.28 57V343.443" stroke="#181818" stroke-miterlimit="407.437"/>
<path d="M422.828 57V343.443" stroke="#181818" stroke-miterlimit="407.437"/>
<path d="M432.376 57V343.443" stroke="#181818" stroke-miterlimit="407.437"/>
<path d="M451.473 57V343.443" stroke="#181818" stroke-miterlimit="407.437"/>
<path d="M461.02 57V343.443" stroke="#181818" stroke-miterlimit="407.437"/>
<path d="M470.568 57V343.443" stroke="#181818" stroke-miterlimit="407.437"/>
<path d="M480.116 57V343.443" stroke="#181818" stroke-miterlimit="407.437"/>
<path d="M499.213 57V343.443" stroke="#181818" stroke-miterlimit="407.437"/>
<path d="M508.761 57V343.443" stroke="#181818" stroke-miterlimit="407.437"/>
<path d="M518.309 57V343.443" stroke="#181818" stroke-miterlimit="407.437"/>
<path d="M527.857 57V343.443" stroke="#181818" stroke-miterlimit="407.437"/>
<path d="M546.953 57V343.443" stroke="#181818" stroke-miterlimit="407.437"/>
<path d="M556.502 57V343.443" stroke="#181818" stroke-miterlimit="407.437"/>
<path d="M566.05 57V343.443" stroke="#181818" stroke-miterlimit="407.437"/>
<path d="M575.597 57V343.443" stroke="#181818" stroke-miterlimit="407.437"/>
<path d="M594.694 57V343.443" stroke="#181818" stroke-miterlimit="407.437"/>
<path d="M604.242 57V343.443" stroke="#181818" stroke-miterlimit="407.437"/>
<path d="M613.79 57V343.443" stroke="#181818" stroke-miterlimit="407.437"/>
<path d="M623.338 57V343.443" stroke="#181818" stroke-miterlimit="407.437"/>
<path d="M642.434 57V343.443" stroke="#181818" stroke-miterlimit="407.437"/>
<path d="M651.983 57V343.443" stroke="#181818" stroke-miterlimit="407.437"/>
<path d="M60 57H659.925" stroke="#262626" stroke-miterlimit="407.437"/>
<path d="M60 152.481H659.925" stroke="#262626" stroke-miterlimit="407.437"/>
<path d="M60 247.962H659.925" stroke="#262626" stroke-miterlimit="407.437"/>
<path d="M60 343.443H659.925" stroke="#262626" stroke-miterlimit="407.437"/>
<path d="M107.741 57V343.443" stroke="#262626" stroke-miterlimit="407.437"/>
<path d="M203.222 57V343.443" stroke="#262626" stroke-miterlimit="407.437"/>
<path d="M298.703 57V343.443" stroke="#262626" stroke-miterlimit="407.437"/>
<path d="M394.184 57V343.443" stroke="#262626" stroke-miterlimit="407.437"/>
<path d="M489.664 57V343.443" stroke="#262626" stroke-miterlimit="407.437"/>
<path d="M585.145 57V343.443" stroke="#262626" stroke-miterlimit="407.437"/>
<path d="M60 104.741H659.925" stroke="#404040" stroke-miterlimit="407.437"/>
<path d="M60 200.222H659.925" stroke="#404040" stroke-miterlimit="407.437"/>
<path d="M60 295.703H659.925" stroke="#404040" stroke-miterlimit="407.437"/>
<path d="M60 57V343.443" stroke="#404040" stroke-miterlimit="407.437"/>
<path d="M155.481 57V343.443" stroke="#404040" stroke-miterlimit="407.437"/>
<path d="M250.962 57V343.443" stroke="#404040" stroke-miterlimit="407.437"/>
<path d="M346.443 57V343.443" stroke="#404040" stroke-miterlimit="407.437"/>
<path d="M441.924 57V343.443" stroke="#404040" stroke-miterlimit="407.437"/>
<path d="M537.405 57V343.443" stroke="#404040" stroke-miterlimit="407.437"/>
<path d="M632.886 57V343.443" stroke="#404040" stroke-miterlimit="407.437"/>
<path d="M60 200.222L60.8333 199.389L61.6667 198.555L62.5 197.722L63.3333 196.889L64.1667 196.057L65 195.225L65.8333 194.393L66.6667 193.562L67.5 192.731L68.3333 191.901L69.1667 191.071L70 190.242L70.8333 189.414L71.6667 188.586L72.5 187.759L73.3333 186.934L74.1667 186.109L75 185.285L75.8333 184.463L76.6667 183.641L77.5 182.821L78.3333 182.003L79.1667 181.185L80 180.37L80.8333 179.555L81.6667 178.743L82.5 177.932L83.3333 177.123L84.1667 176.315L85 175.509L85.8333 174.704L86.6667 173.902L87.5 173.102L88.3333 172.305L89.1667 171.509L90 170.715L90.8333 169.924L91.6667 169.134L92.5 168.348L93.3333 167.563L94.1667 166.782L95 166.003L95.8333 165.227L96.6667 164.452L97.5 163.681L98.3333 162.912L99.1667 162.146L100 161.383L100.833 160.624L101.667 159.868L102.5 159.114L103.333 158.363L104.167 157.616L105 156.872L105.833 156.131L106.667 155.393L107.5 154.659L108.333 153.929L109.167 153.202L110 152.478L110.833 151.758L111.667 151.042L112.5 150.33L113.333 149.621L114.167 148.916L115 148.215L115.833 147.518L116.667 146.826L117.5 146.137L118.333 145.452L119.167 144.772L120 144.096L120.833 143.424L121.667 142.757L122.5 142.093L123.333 141.434L124.167 140.78L125 140.13L125.833 139.485L126.667 138.845L127.5 138.209L128.333 137.578L129.167 136.952L130 136.331L130.833 135.714L131.667 135.102L132.5 134.495L133.333 133.894L134.167 133.296L135 132.705L135.833 132.118L136.667 131.537L137.5 130.961L138.333 130.39L139.167 129.824L140 129.264L140.833 128.709L141.667 128.16L142.5 127.616L143.333 127.078L144.167 126.545L145 126.019L145.833 125.497L146.667 124.982L147.5 124.472L148.333 123.968L149.167 123.469L150 122.976L150.833 122.489L151.667 122.008L152.5 121.533L153.333 121.065L154.167 120.601L155 120.145L155.833 119.694L156.667 119.25L157.5 118.811L158.333 118.379L159.167 117.953L160 117.533L160.833 117.12L161.667 116.713L162.5 116.312L163.333 115.917L164.167 115.529L165 115.148L165.833 114.773L166.667 114.404L167.5 114.043L168.333 113.687L169.167 113.339L170 112.996L170.833 112.661L171.667 112.332L172.5 112.009L173.333 111.694L174.167 111.385L175 111.083L175.833 110.788L176.667 110.499L177.5 110.218L178.333 109.943L179.167 109.675L180 109.415L180.833 109.161L181.667 108.913L182.5 108.673L183.333 108.44L184.167 108.214L185 107.995L185.833 107.783L186.667 107.577L187.5 107.38L188.333 107.188L189.167 107.005L190 106.828L190.833 106.658L191.667 106.496L192.5 106.34L193.333 106.192L194.167 106.05L195 105.916L195.833 105.79L196.667 105.67L197.5 105.557L198.333 105.452L199.167 105.355L200 105.264L200.833 105.181L201.667 105.105L202.5 105.035L203.333 104.973L204.167 104.919L205 104.872L205.833 104.832L206.667 104.799L207.5 104.774L208.333 104.756L209.167 104.745L210 104.741L210.833 104.745L211.667 104.756L212.5 104.774L213.333 104.799L214.167 104.832L215 104.872L215.833 104.919L216.667 104.973L217.5 105.035L218.333 105.105L219.167 105.181L220 105.264L220.833 105.355L221.667 105.452L222.5 105.557L223.333 105.67L224.167 105.79L225 105.916L225.833 106.05L226.667 106.192L227.5 106.34L228.333 106.496L229.167 106.658L230 106.828L230.833 107.005L231.667 107.188L232.5 107.38L233.333 107.577L234.167 107.783L235 107.995L235.833 108.214L236.667 108.44L237.5 108.673L238.333 108.913L239.167 109.161L240 109.415L240.833 109.675L241.667 109.943L242.5 110.218L243.333 110.499L244.167 110.788L245 111.083L245.833 111.385L246.667 111.694L247.5 112.009L248.333 112.332L249.167 112.661L250 112.996L250.833 113.339L251.667 113.687L252.5 114.043L253.333 114.404L254.167 114.773L255 115.148L255.833 115.529L256.667 115.917L257.5 116.312L258.333 116.713L259.167 117.12L260 117.533L260.833 117.953L261.667 118.379L262.5 118.811L263.333 119.25L264.167 119.694L265 120.145L265.833 120.601L266.667 121.065L267.5 121.533L268.333 122.008L269.167 122.489L270 122.976L270.833 123.469L271.667 123.968L272.5 124.472L273.333 124.982L274.167 125.497L275 126.019L275.833 126.545L276.667 127.078L277.5 127.616L278.333 128.16L279.167 128.709L280 129.264L280.833 129.824L281.667 130.39L282.5 130.961L283.333 131.537L284.167 132.118L285 132.705L285.833 133.296L286.667 133.894L287.5 134.495L288.333 135.102L289.167 135.714L290 136.331L290.833 136.952L291.667 137.578L292.5 138.209L293.333 138.845L294.167 139.485L295 140.13L295.833 140.78L296.667 141.434L297.5 142.093L298.333 142.757L299.167 143.424L300 144.096L300.833 144.772L301.667 145.452L302.5 146.137L303.333 146.826L304.167 147.518L305 148.215L305.833 148.916L306.667 149.621L307.5 150.33L308.333 151.042L309.167 151.758L310 152.478L310.833 153.202L311.667 153.929L312.5 154.659L313.333 155.393L314.167 156.131L315 156.872L315.833 157.616L316.667 158.363L317.5 159.114L318.333 159.868L319.167 160.624L320 161.383L320.833 162.146L321.667 162.912L322.5 163.681L323.333 164.452L324.167 165.227L325 166.003L325.833 166.782L326.667 167.563L327.5 168.348L328.333 169.134L329.167 169.924L330 170.715L330.833 171.509L331.667 172.305L332.5 173.102L333.333 173.902L334.167 174.704L335 175.509L335.833 176.315L336.667 177.123L337.5 177.932L338.333 178.743L339.167 179.555L340 180.37L340.833 181.185L341.667 182.003L342.5 182.821L343.333 183.641L344.167 184.463L345 185.285L345.833 186.109L346.667 186.934L347.5 187.759L348.333 188.586L349.167 189.414L350 190.242L350.833 191.071L351.667 191.901L352.5 192.731L353.333 193.562L354.167 194.393L355 195.225L355.833 196.057L356.667 196.889L357.5 197.722L358.333 198.555L359.167 199.389L360 200.222L360.833 201.055L361.667 201.889L362.5 202.722L363.333 203.554L364.167 204.387L365 205.219L365.833 206.05L366.667 206.882L367.5 207.712L368.333 208.543L369.167 209.373L370 210.201L370.833 211.03L371.667 211.858L372.5 212.684L373.333 213.51L374.167 214.335L375 215.159L375.833 215.981L376.667 216.802L377.5 217.622L378.333 218.441L379.167 219.258L380 220.074L380.833 220.888L381.667 221.701L382.5 222.512L383.333 223.321L384.167 224.129L385 224.935L385.833 225.739L386.667 226.542L387.5 227.341L388.333 228.139L389.167 228.935L390 229.729L390.833 230.52L391.667 231.309L392.5 232.096L393.333 232.88L394.167 233.662L395 234.441L395.833 235.217L396.667 235.991L397.5 236.763L398.333 237.532L399.167 238.297L400 239.06L400.833 239.82L401.667 240.576L402.5 241.33L403.333 242.081L404.167 242.828L405 243.572L405.833 244.313L406.667 245.05L407.5 245.784L408.333 246.514L409.167 247.242L410 247.966L410.833 248.685L411.667 249.402L412.5 250.114L413.333 250.823L414.167 251.528L415 252.229L415.833 252.925L416.667 253.618L417.5 254.307L418.333 254.991L419.167 255.672L420 256.348L420.833 257.02L421.667 257.687L422.5 258.351L423.333 259.01L424.167 259.664L425 260.314L425.833 260.959L426.667 261.599L427.5 262.234L428.333 262.865L429.167 263.491L430 264.113L430.833 264.73L431.667 265.342L432.5 265.948L433.333 266.55L434.167 267.147L435 267.739L435.833 268.326L436.667 268.907L437.5 269.483L438.333 270.054L439.167 270.619L440 271.18L440.833 271.735L441.667 272.284L442.5 272.828L443.333 273.366L444.167 273.898L445 274.425L445.833 274.946L446.667 275.462L447.5 275.972L448.333 276.476L449.167 276.975L450 277.468L450.833 277.954L451.667 278.435L452.5 278.91L453.333 279.379L454.167 279.842L455 280.299L455.833 280.75L456.667 281.194L457.5 281.633L458.333 282.065L459.167 282.49L460 282.91L460.833 283.324L461.667 283.73L462.5 284.132L463.333 284.526L464.167 284.914L465 285.296L465.833 285.671L466.667 286.039L467.5 286.401L468.333 286.756L469.167 287.105L470 287.447L470.833 287.783L471.667 288.112L472.5 288.434L473.333 288.75L474.167 289.059L475 289.36L475.833 289.656L476.667 289.944L477.5 290.226L478.333 290.5L479.167 290.768L480 291.029L480.833 291.283L481.667 291.53L482.5 291.77L483.333 292.004L484.167 292.23L485 292.449L485.833 292.661L486.667 292.866L487.5 293.064L488.333 293.255L489.167 293.439L490 293.616L490.833 293.786L491.667 293.948L492.5 294.104L493.333 294.252L494.167 294.393L495 294.527L495.833 294.654L496.667 294.774L497.5 294.886L498.333 294.991L499.167 295.089L500 295.18L500.833 295.263L501.667 295.339L502.5 295.408L503.333 295.47L504.167 295.525L505 295.571L505.833 295.612L506.667 295.645L507.5 295.67L508.333 295.688L509.167 295.699L510 295.703L510.833 295.699L511.667 295.688L512.5 295.67L513.333 295.645L514.167 295.612L515 295.571L515.833 295.525L516.667 295.47L517.5 295.408L518.333 295.339L519.167 295.263L520 295.18L520.833 295.089L521.667 294.991L522.5 294.886L523.333 294.774L524.167 294.654L525 294.527L525.833 294.393L526.667 294.252L527.5 294.104L528.333 293.948L529.167 293.786L530 293.616L530.833 293.439L531.667 293.255L532.5 293.064L533.333 292.866L534.167 292.661L535 292.449L535.833 292.23L536.667 292.004L537.5 291.77L538.333 291.53L539.167 291.283L540 291.029L540.833 290.768L541.667 290.5L542.5 290.226L543.333 289.944L544.167 289.656L545 289.36L545.833 289.059L546.667 288.75L547.5 288.434L548.333 288.112L549.167 287.783L550 287.447L550.833 287.105L551.667 286.756L552.5 286.401L553.333 286.039L554.167 285.671L555 285.296L555.833 284.914L556.667 284.526L557.5 284.132L558.333 283.73L559.167 283.324L560 282.91L560.833 282.49L561.667 282.065L562.5 281.633L563.333 281.194L564.167 280.75L565 280.299L565.833 279.842L566.667 279.379L567.5 278.91L568.333 278.435L569.167 277.954L570 277.468L570.833 276.975L571.667 276.476L572.5 275.972L573.333 275.462L574.167 274.946L575 274.425L575.833 273.898L576.667 273.366L577.5 272.828L578.333 272.284L579.167 271.735L580 271.18L580.833 270.619L581.667 270.054L582.5 269.483L583.333 268.907L584.167 268.326L585 267.739L585.833 267.147L586.667 266.55L587.5 265.948L588.333 265.342L589.167 264.73L590 264.113L590.833 263.491L591.667 262.865L592.5 262.234L593.333 261.599L594.167 260.959L595 260.314L595.833 259.664L596.667 259.01L597.5 258.351L598.333 257.687L599.167 257.02L600 256.348L600.833 255.672L601.667 254.991L602.5 254.307L603.333 253.618L604.167 252.925L605 252.229L605.833 251.528L606.667 250.823L607.5 250.114L608.333 249.402L609.167 248.685L610 247.966L610.833 247.242L611.667 246.514L612.5 245.784L613.333 245.05L614.167 244.313L615 243.572L615.833 242.828L616.667 242.081L617.5 241.33L618.333 240.576L619.167 239.82L620 239.06L620.833 238.297L621.667 237.532L622.5 236.763L623.333 235.991L624.167 235.217L625 234.441L625.833 233.662L626.667 232.88L627.5 232.096L628.333 231.309L629.167 230.52L630 229.729L630.833 228.935L631.667 228.139L632.5 227.341L633.333 226.542L634.167 225.739L635 224.935L635.833 224.129L636.667 223.321L637.5 222.512L638.333 221.701L639.167 220.888L640 220.074L640.833 219.258L641.667 218.441L642.5 217.622L643.333 216.802L644.167 215.981L645 215.159L645.833 214.335L646.667 213.51L647.5 212.684L648.333 211.858L649.167 211.03L650 210.201L650.833 209.373L651.667 208.543L652.5 207.712L653.333 206.882L654.167 206.05L655 205.219L655.833 204.387L656.667 203.554L657.5 202.722L658.333 201.889L659.167 201.055L660 200.222" stroke="white" stroke-width="1.5" stroke-miterlimit="407.437"/>
<path d="M209.981 200.222V104.741" stroke="#FFF933" stroke-miterlimit="407.437"/>
<path d="M209.981 200.222V104.741M134.991 200.222V132.707M284.972 200.222V132.707" stroke="#FFF933" stroke-miterlimit="407.437"/>
<path d="M209.981 200.222V104.741M134.991 200.222V132.707M284.972 200.222V132.707M97.4953 200.222V163.683M172.486 200.222V112.008M247.477 200.222V112.008M322.467 200.222V163.683" stroke="#FFF933" stroke-miterlimit="407.437"/>
<path d="M209.981 200.222V104.741M134.991 200.222V132.707M284.972 200.222V132.707M97.4953 200.222V163.683M172.486 200.222V112.008M247.477 200.222V112.008M322.467 200.222V163.683M78.7477 200.222V181.594M116.243 200.222V147.175M153.738 200.222V120.832M191.234 200.222V106.575M228.729 200.222V106.575M266.224 200.222V120.832M303.72 200.222V147.175M341.215 200.222V181.594" stroke="#FFF933" stroke-miterlimit="407.437"/>
<path d="M60 200.222H659.925" stroke="#F0F0F0" stroke-miterlimit="407.437"/>
<path d="M59.9813 200.222L60.8146 199.389L61.6479 198.555L62.4813 197.722L63.3146 196.89L64.1479 196.057L64.9813 195.225L65.8146 194.393L66.6479 193.562L67.4813 192.731L68.3146 191.901L69.1479 191.071L69.9813 190.243L70.8146 189.414L71.6479 188.586L72.4813 187.759L73.3146 186.934L74.1479 186.109L74.9813 185.285L75.8146 184.463L76.6479 183.641L77.4813 182.821L78.3146 182.003L79.1479 181.186L79.9813 180.37L80.8146 179.555L81.6479 178.743L82.4813 177.932L83.3146 177.123L84.1479 176.315L84.9813 175.509L85.8146 174.704L86.6479 173.902L87.4813 173.102L88.3146 172.305L89.1479 171.509L89.9813 170.715L90.8146 169.924L91.6479 169.135L92.4813 168.348L93.3146 167.563L94.1479 166.782L94.9813 166.003L95.8146 165.227L96.6479 164.452L97.4813 163.681L98.3146 162.912L99.1479 162.146L99.9813 161.383L100.815 160.624L101.648 159.868L102.481 159.114L103.315 158.363L104.148 157.616L104.981 156.872L105.815 156.131L106.648 155.393L107.481 154.659L108.315 153.929L109.148 153.202L109.981 152.478L110.815 151.758L111.648 151.042L112.481 150.33L113.315 149.621L114.148 148.916L114.981 148.215L115.815 147.518L116.648 146.826L117.481 146.137L118.315 145.452L119.148 144.772L119.981 144.096L120.815 143.424L121.648 142.757L122.481 142.093L123.315 141.434L124.148 140.78L124.981 140.13L125.815 139.485L126.648 138.845L127.481 138.209L128.315 137.578L129.148 136.952L129.981 136.331L130.815 135.714L131.648 135.102L132.481 134.495L133.315 133.894L134.148 133.296L134.981 132.705L135.815 132.118L136.648 131.537L137.481 130.961L138.315 130.39L139.148 129.824L139.981 129.264L140.815 128.709L141.648 128.16L142.481 127.616L143.315 127.078L144.148 126.545L144.981 126.019L145.815 125.497L146.648 124.982L147.481 124.472L148.315 123.968L149.148 123.469L149.981 122.976L150.815 122.489L151.648 122.009L152.481 121.533L153.315 121.065L154.148 120.601L154.981 120.145L155.815 119.694L156.648 119.25L157.481 118.811L158.315 118.379L159.148 117.953L159.981 117.533L160.815 117.12L161.648 116.713L162.481 116.312L163.315 115.917L164.148 115.529L164.981 115.148L165.815 114.773L166.648 114.404L167.481 114.043L168.315 113.687L169.148 113.339L169.981 112.997L170.815 112.661L171.648 112.332L172.481 112.009L173.315 111.694L174.148 111.385L174.981 111.083L175.815 110.788L176.648 110.499L177.481 110.218L178.315 109.943L179.148 109.675L179.981 109.415L180.815 109.161L181.648 108.913L182.481 108.673L183.315 108.44L184.148 108.214L184.981 107.995L185.815 107.783L186.648 107.577L187.481 107.38L188.315 107.188L189.148 107.005L189.981 106.828L190.815 106.658L191.648 106.496L192.481 106.34L193.315 106.192L194.148 106.05L194.981 105.916L195.815 105.79L196.648 105.67L197.481 105.557L198.315 105.452L199.148 105.355L199.981 105.264L200.815 105.181L201.648 105.105L202.481 105.035L203.315 104.973L204.148 104.919L204.981 104.872L205.815 104.832L206.648 104.799L207.481 104.774L208.315 104.756L209.148 104.745L209.981 104.741L210.815 104.745L211.648 104.756L212.481 104.774L213.315 104.799L214.148 104.832L214.981 104.872L215.815 104.919L216.648 104.973L217.481 105.035L218.315 105.105L219.148 105.181L219.981 105.264L220.815 105.355L221.648 105.452L222.481 105.557L223.315 105.67L224.148 105.79L224.981 105.916L225.815 106.05L226.648 106.192L227.481 106.34L228.315 106.496L229.148 106.658L229.981 106.828L230.815 107.005L231.648 107.188L232.481 107.38L233.315 107.577L234.148 107.783L234.981 107.995L235.815 108.214L236.648 108.44L237.481 108.673L238.315 108.913L239.148 109.161L239.981 109.415L240.815 109.675L241.648 109.943L242.481 110.218L243.315 110.499L244.148 110.788L244.981 111.083L245.815 111.385L246.648 111.694L247.481 112.009L248.315 112.332L249.148 112.661L249.981 112.997L250.815 113.339L251.648 113.687L252.481 114.043L253.315 114.404L254.148 114.773L254.981 115.148L255.815 115.529L256.648 115.917L257.481 116.312L258.315 116.713L259.148 117.12L259.981 117.533L260.815 117.953L261.648 118.379L262.481 118.811L263.315 119.25L264.148 119.694L264.981 120.145L265.815 120.601L266.648 121.065L267.481 121.533L268.315 122.009L269.148 122.489L269.981 122.976L270.815 123.469L271.648 123.968L272.481 124.472L273.315 124.982L274.148 125.497L274.981 126.019L275.815 126.545L276.648 127.078L277.481 127.616L278.315 128.16L279.148 128.709L279.981 129.264L280.815 129.824L281.648 130.39L282.481 130.961L283.315 131.537L284.148 132.118L284.981 132.705L285.815 133.296L286.648 133.894L287.481 134.495L288.315 135.102L289.148 135.714L289.981 136.331L290.815 136.952L291.648 137.578L292.481 138.209L293.315 138.845L294.148 139.485L294.981 140.13L295.815 140.78L296.648 141.434L297.481 142.093L298.315 142.757L299.148 143.424L299.981 144.096L300.815 144.772L301.648 145.452L302.481 146.137L303.315 146.826L304.148 147.518L304.981 148.215L305.815 148.916L306.648 149.621L307.481 150.33L308.315 151.042L309.148 151.758L309.981 152.478L310.815 153.202L311.648 153.929L312.481 154.659L313.315 155.393L314.148 156.131L314.981 156.872L315.815 157.616L316.648 158.363L317.481 159.114L318.315 159.868L319.148 160.624L319.981 161.383L320.815 162.146L321.648 162.912L322.481 163.681L323.315 164.452L324.148 165.227L324.981 166.003L325.815 166.782L326.648 167.563L327.481 168.348L328.315 169.135L329.148 169.924L329.981 170.715L330.815 171.509L331.648 172.305L332.481 173.102L333.315 173.902L334.148 174.704L334.981 175.509L335.815 176.315L336.648 177.123L337.481 177.932L338.315 178.743L339.148 179.555L339.981 180.37L340.815 181.186L341.648 182.003L342.481 182.821L343.315 183.641L344.148 184.463L344.981 185.285L345.815 186.109L346.648 186.934L347.481 187.759L348.315 188.586L349.148 189.414L349.981 190.243L350.815 191.071L351.648 191.901L352.481 192.731L353.315 193.562L354.148 194.393L354.981 195.225L355.815 196.057L356.648 196.89L357.481 197.722L358.315 198.555L359.148 199.389L359.981 200.222" stroke="#FFF933" stroke-width="1.5" stroke-miterlimit="407.437"/>
</g>
<path d="M660 56.6344H60V343.113H660V56.6344Z" stroke="#404040"/>
<path d="M360 194V206" stroke="white" stroke-width="1.5" stroke-miterlimit="407.437"/>
<path d="M60 194V206" stroke="white" stroke-width="1.5" stroke-miterlimit="407.437"/>
<path d="M660 194V206" stroke="white" stroke-width="1.5" stroke-miterlimit="407.437"/>
<path d="M510 194V206" stroke="white" stroke-width="1.5" stroke-miterlimit="407.437"/>
<path d="M210 194V206" stroke="white" stroke-width="1.5" stroke-miterlimit="407.437"/>
<g clip-path="url(#clip1_797_17389)">
<path d="M356.731 242.937C356.27 242.937 356.039 242.713 356.039 242.265V242.041L356.304 241.47C357.322 239.326 358.061 237.473 358.523 235.912L358.686 235.423H358.034C357.518 235.423 357.152 235.443 356.935 235.484C356.718 235.525 356.453 235.654 356.141 235.871C355.991 235.966 355.842 236.088 355.693 236.237C355.543 236.387 355.414 236.529 355.306 236.665C355.197 236.801 355.136 236.882 355.123 236.909C355.095 236.923 354.994 236.93 354.817 236.93C354.559 236.93 354.43 236.862 354.43 236.726C354.43 236.645 354.559 236.407 354.817 236.013C355.075 235.62 355.448 235.199 355.937 234.751C356.426 234.303 356.908 234.045 357.383 233.977C357.478 233.95 359.005 233.937 361.964 233.937C364.136 233.937 365.249 233.943 365.304 233.957C365.575 234.052 365.711 234.242 365.711 234.527C365.711 234.948 365.494 235.233 365.059 235.382C364.978 235.409 364.509 235.423 363.654 235.423H362.351L362.29 235.769C362.127 236.746 362.046 237.554 362.046 238.192C362.046 238.898 362.107 239.529 362.229 240.086C362.351 240.642 362.48 241.077 362.616 241.389C362.751 241.701 362.819 241.891 362.819 241.959C362.819 242.19 362.724 242.407 362.534 242.611C362.344 242.814 362.1 242.916 361.801 242.916C361.652 242.916 361.53 242.896 361.435 242.855C361.34 242.814 361.231 242.651 361.109 242.366C360.987 242.081 360.878 241.674 360.783 241.145C360.77 241.022 360.763 240.724 360.763 240.249C360.763 239.584 360.824 238.871 360.946 238.111C361.068 237.351 361.19 236.726 361.313 236.237C361.435 235.749 361.503 235.477 361.516 235.423H359.521L359.5 235.504C359.5 235.545 359.371 236.081 359.113 237.113C358.856 238.145 358.564 239.237 358.238 240.391C357.912 241.545 357.702 242.203 357.607 242.366C357.457 242.746 357.166 242.937 356.731 242.937Z" fill="white"/>
</g>
<g clip-path="url(#clip2_797_17389)">
<path d="M651.325 236.37C650.959 236.37 650.667 236.248 650.45 236.003C650.232 235.759 650.124 235.46 650.124 235.107C650.124 234.144 650.483 233.309 651.203 232.603C651.922 231.897 652.818 231.544 653.891 231.544C655.126 231.544 656.158 231.924 656.986 232.684C657.814 233.444 658.235 234.429 658.249 235.637C658.249 236.221 658.113 236.777 657.841 237.307C657.57 237.836 657.244 238.298 656.864 238.691C656.484 239.085 655.941 239.587 655.235 240.198C654.746 240.619 654.067 241.244 653.199 242.072L651.997 243.212L653.545 243.233C655.676 243.233 656.81 243.199 656.945 243.131C657.041 243.104 657.203 242.499 657.434 241.318V241.257H658.249V241.318C658.235 241.359 658.147 241.977 657.984 243.171C657.821 244.366 657.719 244.991 657.679 245.045V245.106H650.124V244.719V244.475C650.124 244.38 650.164 244.278 650.246 244.169C650.327 244.061 650.531 243.823 650.857 243.457C651.25 243.022 651.59 242.642 651.875 242.316C651.997 242.18 652.228 241.929 652.567 241.563C652.907 241.196 653.138 240.945 653.26 240.809C653.382 240.673 653.579 240.449 653.85 240.137C654.122 239.825 654.312 239.594 654.42 239.445C654.529 239.296 654.685 239.092 654.889 238.834C655.092 238.576 655.235 238.359 655.316 238.182C655.398 238.006 655.5 237.809 655.622 237.592C655.744 237.375 655.832 237.157 655.887 236.94C655.941 236.723 655.988 236.519 656.029 236.329C656.07 236.139 656.09 235.915 656.09 235.657C656.09 234.802 655.859 234.062 655.398 233.438C654.936 232.813 654.278 232.501 653.423 232.501C652.975 232.501 652.581 232.616 652.242 232.847C651.902 233.078 651.665 233.302 651.529 233.519C651.393 233.736 651.325 233.865 651.325 233.906C651.325 233.92 651.359 233.926 651.427 233.926C651.671 233.926 651.922 234.021 652.18 234.211C652.438 234.402 652.567 234.714 652.567 235.148C652.567 235.488 652.459 235.773 652.242 236.003C652.024 236.234 651.719 236.356 651.325 236.37Z" fill="white"/>
<path d="M661.975 245.33C661.514 245.33 661.283 245.106 661.283 244.658V244.434L661.548 243.864C662.566 241.719 663.306 239.866 663.767 238.304L663.93 237.816H663.279C662.763 237.816 662.396 237.836 662.179 237.877C661.962 237.918 661.697 238.046 661.385 238.264C661.235 238.359 661.086 238.481 660.937 238.63C660.787 238.78 660.658 238.922 660.55 239.058C660.441 239.194 660.38 239.275 660.367 239.302C660.339 239.316 660.238 239.323 660.061 239.323C659.803 239.323 659.674 239.255 659.674 239.119C659.674 239.037 659.803 238.8 660.061 238.406C660.319 238.013 660.692 237.592 661.181 237.144C661.67 236.696 662.152 236.438 662.627 236.37C662.722 236.343 664.249 236.329 667.209 236.329C669.381 236.329 670.494 236.336 670.548 236.35C670.82 236.445 670.956 236.635 670.956 236.92C670.956 237.341 670.738 237.626 670.304 237.775C670.223 237.802 669.754 237.816 668.899 237.816H667.596L667.535 238.162C667.372 239.139 667.29 239.947 667.29 240.585C667.29 241.291 667.351 241.922 667.473 242.479C667.596 243.036 667.725 243.47 667.86 243.782C667.996 244.094 668.064 244.285 668.064 244.352C668.064 244.583 667.969 244.8 667.779 245.004C667.589 245.208 667.344 245.309 667.046 245.309C666.896 245.309 666.774 245.289 666.679 245.248C666.584 245.208 666.476 245.045 666.353 244.76C666.231 244.475 666.123 244.067 666.028 243.538C666.014 243.416 666.007 243.117 666.007 242.642C666.007 241.977 666.068 241.264 666.191 240.504C666.313 239.743 666.435 239.119 666.557 238.63C666.679 238.142 666.747 237.87 666.761 237.816H664.765L664.745 237.897C664.745 237.938 664.616 238.474 664.358 239.506C664.1 240.538 663.808 241.63 663.482 242.784C663.156 243.938 662.946 244.597 662.851 244.76C662.702 245.14 662.41 245.33 661.975 245.33Z" fill="white"/>
</g>
<g clip-path="url(#clip3_797_17389)">
<path d="M206.885 229.182C206.423 229.182 206.192 228.958 206.192 228.51V228.286L206.457 227.716C207.475 225.572 208.215 223.719 208.677 222.158L208.839 221.669H208.188C207.672 221.669 207.306 221.689 207.088 221.73C206.871 221.771 206.606 221.9 206.294 222.117C206.145 222.212 205.996 222.334 205.846 222.483C205.697 222.633 205.568 222.775 205.459 222.911C205.351 223.047 205.29 223.128 205.276 223.155C205.249 223.169 205.147 223.176 204.971 223.176C204.713 223.176 204.584 223.108 204.584 222.972C204.584 222.891 204.713 222.653 204.971 222.26C205.229 221.866 205.602 221.445 206.091 220.997C206.579 220.549 207.061 220.291 207.536 220.223C207.631 220.196 209.158 220.183 212.118 220.183C214.289 220.183 215.403 220.189 215.457 220.203C215.728 220.298 215.864 220.488 215.864 220.773C215.864 221.194 215.647 221.479 215.213 221.628C215.131 221.655 214.663 221.669 213.808 221.669H212.504L212.443 222.015C212.28 222.993 212.199 223.8 212.199 224.438C212.199 225.144 212.26 225.775 212.382 226.332C212.504 226.888 212.633 227.323 212.769 227.635C212.905 227.947 212.973 228.137 212.973 228.205C212.973 228.436 212.878 228.653 212.688 228.857C212.498 229.06 212.253 229.162 211.955 229.162C211.805 229.162 211.683 229.142 211.588 229.101C211.493 229.06 211.385 228.897 211.262 228.612C211.14 228.327 211.032 227.92 210.937 227.391C210.923 227.268 210.916 226.97 210.916 226.495C210.916 225.83 210.977 225.117 211.1 224.357C211.222 223.597 211.344 222.972 211.466 222.483C211.588 221.995 211.656 221.723 211.67 221.669H209.674L209.654 221.75C209.654 221.791 209.525 222.327 209.267 223.359C209.009 224.391 208.717 225.483 208.391 226.637C208.066 227.791 207.855 228.449 207.76 228.612C207.611 228.992 207.319 229.182 206.885 229.182Z" fill="white"/>
<path d="M207.129 247.956C206.763 247.956 206.471 247.833 206.254 247.589C206.036 247.345 205.928 247.046 205.928 246.693C205.928 245.729 206.287 244.895 207.007 244.189C207.726 243.483 208.622 243.13 209.695 243.13C210.93 243.13 211.961 243.51 212.79 244.27C213.618 245.03 214.038 246.015 214.052 247.223C214.052 247.806 213.916 248.363 213.645 248.892C213.373 249.422 213.047 249.883 212.667 250.277C212.287 250.67 211.744 251.173 211.038 251.784C210.55 252.204 209.871 252.829 209.002 253.657L207.801 254.797L209.348 254.817C211.48 254.817 212.613 254.783 212.749 254.716C212.844 254.688 213.007 254.084 213.237 252.903V252.842H214.052V252.903C214.038 252.944 213.95 253.562 213.787 254.756C213.624 255.951 213.523 256.575 213.482 256.63V256.691H205.928V256.304V256.059C205.928 255.964 205.968 255.863 206.05 255.754C206.131 255.645 206.335 255.408 206.661 255.041C207.054 254.607 207.394 254.227 207.679 253.901C207.801 253.765 208.032 253.514 208.371 253.148C208.71 252.781 208.941 252.53 209.063 252.394C209.186 252.259 209.382 252.035 209.654 251.722C209.925 251.41 210.115 251.18 210.224 251.03C210.333 250.881 210.489 250.677 210.692 250.419C210.896 250.161 211.038 249.944 211.12 249.768C211.201 249.591 211.303 249.395 211.425 249.177C211.547 248.96 211.636 248.743 211.69 248.526C211.744 248.309 211.792 248.105 211.833 247.915C211.873 247.725 211.894 247.501 211.894 247.243C211.894 246.388 211.663 245.648 211.201 245.024C210.74 244.399 210.081 244.087 209.226 244.087C208.778 244.087 208.385 244.202 208.045 244.433C207.706 244.664 207.468 244.888 207.333 245.105C207.197 245.322 207.129 245.451 207.129 245.492C207.129 245.505 207.163 245.512 207.231 245.512C207.475 245.512 207.726 245.607 207.984 245.797C208.242 245.987 208.371 246.3 208.371 246.734C208.371 247.073 208.262 247.358 208.045 247.589C207.828 247.82 207.523 247.942 207.129 247.956Z" fill="white"/>
<path d="M217.839 238.243H202.161V237.021H217.839V238.243Z" fill="white"/>
</g>
<g clip-path="url(#clip4_797_17389)">
<path d="M501.693 221.914C501.327 221.914 501.041 221.799 500.838 221.568C500.634 221.337 500.526 221.039 500.512 220.672C500.512 219.926 500.838 219.261 501.489 218.677C502.141 218.093 502.928 217.802 503.851 217.802C504.326 217.802 504.625 217.808 504.747 217.822C505.751 217.985 506.518 218.345 507.048 218.901C507.577 219.458 507.849 220.062 507.862 220.713C507.862 221.419 507.631 222.104 507.17 222.769C506.708 223.435 506.07 223.916 505.256 224.215L505.195 224.256C505.195 224.269 505.256 224.29 505.378 224.317C505.5 224.344 505.697 224.405 505.969 224.5C506.24 224.595 506.498 224.738 506.742 224.928C507.855 225.647 508.412 226.597 508.412 227.778C508.412 228.85 507.991 229.787 507.15 230.588C506.308 231.389 505.242 231.789 503.953 231.789C502.867 231.789 501.931 231.497 501.143 230.914C500.356 230.33 499.962 229.59 499.962 228.694C499.962 228.314 500.085 228.009 500.329 227.778C500.573 227.547 500.879 227.425 501.245 227.412C501.625 227.412 501.937 227.534 502.182 227.778C502.426 228.022 502.548 228.328 502.548 228.694C502.548 228.844 502.528 228.979 502.487 229.102C502.446 229.224 502.399 229.332 502.345 229.427C502.29 229.522 502.216 229.604 502.121 229.672C502.026 229.739 501.944 229.794 501.876 229.834C501.808 229.875 501.741 229.902 501.673 229.916C501.605 229.929 501.55 229.95 501.51 229.977L501.428 229.997C502.121 230.608 502.962 230.914 503.953 230.914C504.7 230.914 505.263 230.554 505.643 229.834C505.874 229.387 505.989 228.701 505.989 227.778V227.371C505.989 226.081 505.555 225.219 504.686 224.785C504.482 224.704 504.068 224.656 503.444 224.643L502.589 224.622L502.528 224.582C502.501 224.541 502.487 224.432 502.487 224.256C502.487 224.011 502.541 223.889 502.65 223.889C503.03 223.889 503.424 223.855 503.831 223.787C504.292 223.72 504.713 223.435 505.093 222.932C505.473 222.43 505.663 221.67 505.663 220.652V220.489C505.663 219.715 505.426 219.179 504.951 218.881C504.652 218.691 504.333 218.596 503.994 218.596C503.559 218.596 503.159 218.67 502.792 218.82C502.426 218.969 502.168 219.125 502.019 219.288C501.869 219.451 501.795 219.532 501.795 219.532H501.856C501.897 219.546 501.951 219.559 502.019 219.573C502.087 219.586 502.155 219.62 502.222 219.675C502.29 219.729 502.372 219.777 502.467 219.817C502.562 219.858 502.63 219.933 502.67 220.041C502.711 220.15 502.765 220.252 502.833 220.347C502.901 220.442 502.921 220.577 502.894 220.754C502.894 221.052 502.799 221.317 502.609 221.548C502.419 221.779 502.114 221.901 501.693 221.914Z" fill="white"/>
<path d="M511.975 231.565C511.513 231.565 511.283 231.341 511.283 230.893V230.669L511.547 230.099C512.565 227.955 513.305 226.102 513.767 224.541L513.93 224.052H513.278C512.762 224.052 512.396 224.073 512.179 224.113C511.961 224.154 511.697 224.283 511.384 224.5C511.235 224.595 511.086 224.717 510.937 224.867C510.787 225.016 510.658 225.158 510.55 225.294C510.441 225.43 510.38 225.511 510.366 225.539C510.339 225.552 510.238 225.559 510.061 225.559C509.803 225.559 509.674 225.491 509.674 225.355C509.674 225.274 509.803 225.036 510.061 224.643C510.319 224.249 510.692 223.828 511.181 223.38C511.67 222.932 512.151 222.675 512.626 222.607C512.721 222.58 514.248 222.566 517.208 222.566C519.379 222.566 520.492 222.573 520.547 222.586C520.818 222.681 520.954 222.871 520.954 223.156C520.954 223.577 520.737 223.862 520.302 224.012C520.221 224.039 519.753 224.052 518.897 224.052H517.594L517.533 224.398C517.37 225.376 517.289 226.183 517.289 226.821C517.289 227.527 517.35 228.158 517.472 228.715C517.594 229.271 517.723 229.706 517.859 230.018C517.995 230.33 518.063 230.52 518.063 230.588C518.063 230.819 517.968 231.036 517.778 231.239C517.588 231.443 517.343 231.545 517.045 231.545C516.895 231.545 516.773 231.524 516.678 231.484C516.583 231.443 516.475 231.28 516.352 230.995C516.23 230.71 516.122 230.303 516.027 229.773C516.013 229.651 516.006 229.353 516.006 228.878C516.006 228.213 516.067 227.5 516.19 226.74C516.312 225.98 516.434 225.355 516.556 224.867C516.678 224.378 516.746 224.107 516.76 224.052H514.764L514.744 224.134C514.744 224.174 514.615 224.711 514.357 225.742C514.099 226.774 513.807 227.866 513.482 229.02C513.156 230.174 512.945 230.832 512.85 230.995C512.701 231.375 512.409 231.565 511.975 231.565Z" fill="white"/>
<path d="M507.129 250.337C506.763 250.337 506.471 250.215 506.254 249.971C506.037 249.726 505.928 249.428 505.928 249.075C505.928 248.111 506.288 247.276 507.007 246.571C507.726 245.865 508.622 245.512 509.695 245.512C510.93 245.512 511.961 245.892 512.789 246.652C513.617 247.412 514.038 248.396 514.052 249.604C514.052 250.188 513.916 250.744 513.644 251.274C513.373 251.803 513.047 252.265 512.667 252.658C512.287 253.052 511.744 253.554 511.038 254.165C510.55 254.586 509.871 255.21 509.002 256.038L507.801 257.178L509.348 257.199C511.479 257.199 512.613 257.165 512.749 257.097C512.844 257.07 513.007 256.466 513.237 255.285V255.224H514.052V255.285C514.038 255.325 513.95 255.943 513.787 257.138C513.624 258.332 513.522 258.956 513.482 259.011V259.072H505.928V258.685V258.441C505.928 258.346 505.969 258.244 506.05 258.135C506.132 258.027 506.335 257.789 506.661 257.423C507.055 256.988 507.394 256.608 507.679 256.282C507.801 256.147 508.032 255.896 508.371 255.529C508.711 255.163 508.941 254.911 509.063 254.776C509.186 254.64 509.382 254.416 509.654 254.104C509.925 253.792 510.115 253.561 510.224 253.412C510.333 253.262 510.489 253.059 510.692 252.801C510.896 252.543 511.038 252.326 511.12 252.149C511.201 251.973 511.303 251.776 511.425 251.559C511.547 251.342 511.636 251.124 511.69 250.907C511.744 250.69 511.792 250.487 511.832 250.297C511.873 250.106 511.893 249.883 511.893 249.625C511.893 248.769 511.663 248.03 511.201 247.405C510.74 246.781 510.081 246.469 509.226 246.469C508.778 246.469 508.385 246.584 508.045 246.815C507.706 247.046 507.469 247.27 507.333 247.487C507.197 247.704 507.129 247.833 507.129 247.874C507.129 247.887 507.163 247.894 507.231 247.894C507.475 247.894 507.726 247.989 507.984 248.179C508.242 248.369 508.371 248.681 508.371 249.116C508.371 249.455 508.263 249.74 508.045 249.971C507.828 250.201 507.523 250.324 507.129 250.337Z" fill="white"/>
<path d="M522.929 240.625H497.071V239.404H522.929V240.625Z" fill="white"/>
</g>
<path d="M56.92 233.237C57.6667 232.157 58.6867 231.617 59.98 231.617C60.9533 231.617 61.8067 231.95 62.54 232.617C62.9 232.963 63.2067 233.417 63.46 233.977C63.9533 235.083 64.2 236.603 64.2 238.537C64.2 240.603 63.9133 242.183 63.34 243.277C62.9667 244.05 62.42 244.61 61.7 244.957C61.14 245.237 60.5733 245.377 60 245.377C58.4667 245.377 57.3467 244.677 56.64 243.277C56.0667 242.183 55.78 240.603 55.78 238.537C55.78 237.297 55.86 236.277 56.02 235.477C56.1933 234.663 56.4933 233.917 56.92 233.237ZM61.42 232.997C61.0333 232.57 60.56 232.357 60 232.357C59.44 232.357 58.96 232.57 58.56 232.997C58.2667 233.303 58.0667 233.677 57.96 234.117C57.8533 234.557 57.7867 235.317 57.76 236.397C57.76 236.477 57.7533 236.737 57.74 237.177C57.74 237.617 57.74 237.983 57.74 238.277C57.74 239.557 57.7533 240.45 57.78 240.957C57.8333 241.89 57.9133 242.563 58.02 242.977C58.1267 243.377 58.3267 243.723 58.62 244.017C58.98 244.417 59.44 244.617 60 244.617C60.5467 244.617 61 244.417 61.36 244.017C61.6533 243.723 61.8533 243.377 61.96 242.977C62.0667 242.563 62.1467 241.89 62.2 240.957C62.2267 240.45 62.24 239.557 62.24 238.277C62.24 237.983 62.2333 237.617 62.22 237.177C62.22 236.737 62.22 236.477 62.22 236.397C62.1933 235.317 62.1267 234.557 62.02 234.117C61.9133 233.677 61.7133 233.303 61.42 232.997Z" fill="white"/>
<g clip-path="url(#clip5_797_17389)">
<path d="M328.013 28.1391C328.013 27.5962 327.829 27.128 327.463 26.7344C327.097 26.3408 326.567 26.144 325.875 26.144C325.386 26.144 324.966 26.2322 324.613 26.4086C324.206 26.6665 324.002 27.0194 324.002 27.4673C323.989 27.5351 323.989 27.6233 324.002 27.7319C324.016 27.8405 324.124 28.0034 324.328 28.2205C324.531 28.4377 324.823 28.6073 325.203 28.7295C325.448 28.7973 325.746 28.8584 326.099 28.9127C326.452 28.967 326.75 29.028 326.995 29.0959C327.239 29.1638 327.456 29.252 327.646 29.3606C327.877 29.4691 328.101 29.6049 328.318 29.7677C328.535 29.9306 328.752 30.2088 328.969 30.6024C329.187 30.996 329.302 31.4167 329.316 31.8646C329.316 32.7061 329.058 33.3982 328.542 33.9411C328.026 34.484 327.192 34.7622 326.038 34.7758H325.875C325.169 34.7758 324.518 34.5315 323.921 34.0429L323.758 34.1854L323.575 34.3686C323.493 34.4501 323.412 34.5247 323.33 34.5926L323.106 34.7961H322.944H322.862C322.821 34.7961 322.76 34.7554 322.679 34.674V33.0657V31.8849C322.679 31.5999 322.692 31.4303 322.72 31.376C322.747 31.3217 322.815 31.2878 322.923 31.2742H323.106C323.269 31.2742 323.378 31.3014 323.432 31.3556C323.486 31.4099 323.52 31.4914 323.534 31.5999C323.547 31.7085 323.595 31.8917 323.676 32.1496C323.758 32.4075 323.887 32.6925 324.063 33.0046C324.538 33.6968 325.196 34.0429 326.038 34.0429C327.354 34.0429 328.013 33.5136 328.013 32.455C328.013 32.0614 327.89 31.7424 327.646 31.4981C327.375 31.1724 326.812 30.9281 325.956 30.7653C325.101 30.6024 324.538 30.4463 324.267 30.297C323.778 30.0663 323.391 29.7541 323.106 29.3606C322.821 28.967 322.679 28.5462 322.679 28.0984C322.679 27.5691 322.794 27.1212 323.025 26.7547C323.256 26.3883 323.547 26.1168 323.9 25.9404C324.253 25.764 324.593 25.6418 324.918 25.574C325.244 25.5061 325.543 25.4722 325.814 25.4722H326.038C326.581 25.4722 327.056 25.574 327.463 25.7775L327.768 25.9404L327.952 25.7979C328.087 25.6758 328.237 25.5604 328.399 25.4518H328.562H328.644C328.684 25.4518 328.746 25.4925 328.827 25.574V28.2612L328.705 28.3834H328.135C328.053 28.3019 328.013 28.2205 328.013 28.1391Z" fill="white"/>
<path d="M331.433 22.1742C331.433 21.7942 331.555 21.4956 331.799 21.2785C332.044 21.0613 332.342 20.9528 332.695 20.9528C333.007 20.9799 333.279 21.0953 333.509 21.2988C333.74 21.5024 333.855 21.7942 333.855 22.1742C333.855 22.5814 333.74 22.8868 333.509 23.0904C333.279 23.2939 332.994 23.3957 332.654 23.3957C332.315 23.3957 332.03 23.2939 331.799 23.0904C331.569 22.8868 331.446 22.5814 331.433 22.1742ZM335.057 34.5723C334.853 34.5315 334.147 34.5112 332.939 34.5112C332.79 34.5112 332.539 34.5112 332.186 34.5112C331.833 34.5112 331.494 34.5248 331.168 34.5519L330.72 34.5723H330.557V33.6358H330.883C331.263 33.6358 331.596 33.6154 331.881 33.5747C332.003 33.5204 332.077 33.4458 332.105 33.3508C332.132 33.2558 332.145 32.9708 332.145 32.4957V30.3989V28.6074C332.145 27.9016 332.132 27.4538 332.105 27.2637C332.077 27.0737 331.982 26.9448 331.82 26.8769C331.63 26.7819 331.311 26.7344 330.863 26.7344H330.639V26.2662C330.639 25.954 330.652 25.798 330.68 25.798L330.883 25.7776C331.019 25.764 331.209 25.7505 331.453 25.7369C331.697 25.7233 331.942 25.7097 332.186 25.6962C332.417 25.6826 332.661 25.669 332.919 25.6555C333.177 25.6419 333.374 25.6215 333.509 25.5944C333.645 25.5672 333.72 25.5605 333.733 25.574H333.794V33.3101C333.862 33.4458 333.944 33.5272 334.039 33.5544C334.134 33.5815 334.371 33.6087 334.751 33.6358H335.219V34.5723H335.057Z" fill="white"/>
<path d="M336.522 33.6358H336.807C337.337 33.6358 337.656 33.5408 337.764 33.3508V33.1879C337.764 33.0658 337.764 32.9097 337.764 32.7197C337.764 32.5297 337.764 32.3193 337.764 32.0886C337.764 31.8579 337.771 31.5932 337.784 31.2946C337.798 30.996 337.798 30.711 337.784 30.4396C337.784 30.0189 337.784 29.571 337.784 29.096C337.784 28.6209 337.778 28.2206 337.764 27.8948V27.4266C337.723 27.1687 337.628 26.9991 337.479 26.9177C337.33 26.8362 337.024 26.7752 336.563 26.7344H336.197V26.2662C336.197 25.954 336.21 25.798 336.237 25.798L336.441 25.7776C336.577 25.764 336.767 25.7505 337.011 25.7369C337.255 25.7233 337.506 25.7097 337.764 25.6962C337.995 25.6826 338.239 25.669 338.497 25.6555C338.755 25.6419 338.952 25.6215 339.087 25.5944C339.223 25.5672 339.298 25.5605 339.311 25.574H339.372V26.3883C339.372 26.9041 339.379 27.162 339.393 27.162C339.406 27.162 339.44 27.128 339.495 27.0602C339.549 26.9923 339.63 26.8905 339.739 26.7548C339.847 26.6191 339.976 26.4969 340.126 26.3883C340.275 26.2798 340.472 26.1508 340.716 26.0015C340.96 25.8523 341.218 25.7437 341.49 25.6758C341.761 25.608 342.107 25.574 342.528 25.574C344.075 25.6283 344.937 26.3951 345.113 27.8745C345.127 27.9695 345.134 28.9127 345.134 30.7042V32.455C345.134 32.9708 345.147 33.2761 345.174 33.3711C345.202 33.4661 345.276 33.534 345.398 33.5747C345.683 33.6154 346.016 33.6358 346.396 33.6358H346.722V34.5723H346.559L346.07 34.5519C345.758 34.5383 345.419 34.5315 345.052 34.5315C344.686 34.5315 344.428 34.5248 344.279 34.5112C342.881 34.5112 342.121 34.5315 341.999 34.5723H341.836V33.6358H342.161C342.989 33.6358 343.403 33.5272 343.403 33.3101C343.417 33.2829 343.424 32.3465 343.424 30.5007C343.41 28.6684 343.397 27.698 343.383 27.5895C343.302 27.2095 343.166 26.9244 342.976 26.7344C342.786 26.5444 342.623 26.4291 342.487 26.3883C342.351 26.3476 342.175 26.3341 341.958 26.3476C341.347 26.3476 340.811 26.5784 340.35 27.0398C339.983 27.4062 339.752 27.7795 339.657 28.1595C339.562 28.5395 339.508 29.1027 339.495 29.8492V31.1521V32.3736C339.495 32.7808 339.501 33.0522 339.515 33.1879C339.528 33.3236 339.549 33.4119 339.576 33.4526C339.603 33.4933 339.664 33.534 339.759 33.5747C340.044 33.6154 340.377 33.6358 340.757 33.6358H341.082V34.5723H340.92L340.451 34.5519C340.126 34.5383 339.78 34.5315 339.413 34.5315C339.047 34.5315 338.789 34.5248 338.64 34.5112C337.242 34.5112 336.482 34.5315 336.359 34.5723H336.197V33.6358H336.522Z" fill="white"/>
<path d="M348.92 29.4827C348.92 28.5463 348.988 27.6573 349.124 26.8158C349.26 25.9744 349.416 25.2483 349.592 24.6375C349.769 24.0268 350.02 23.4296 350.345 22.846C350.671 22.2624 350.929 21.8078 351.119 21.482C351.309 21.1563 351.594 20.8034 351.974 20.4234C352.354 20.0434 352.578 19.8127 352.646 19.7313C352.714 19.6498 352.883 19.5073 353.155 19.3037H353.419H353.501C353.691 19.3037 353.786 19.3648 353.786 19.487C353.786 19.5277 353.671 19.6702 353.44 19.9145C353.209 20.1588 352.931 20.5184 352.605 20.9935C352.279 21.4685 351.947 22.0521 351.608 22.7442C351.268 23.4364 350.983 24.3729 350.753 25.5536C350.522 26.7344 350.406 28.0441 350.406 29.4827C350.406 30.9214 350.522 32.2243 350.753 33.3915C350.983 34.5587 351.261 35.5019 351.587 36.2212C351.913 36.9406 352.245 37.5242 352.585 37.972C352.924 38.4199 353.209 38.7796 353.44 39.051C353.671 39.3224 353.786 39.4649 353.786 39.4785C353.786 39.6007 353.684 39.6617 353.481 39.6617H353.419H353.155L352.585 39.1732C351.309 38.0195 350.379 36.5809 349.796 34.8573C349.212 33.1336 348.92 31.3421 348.92 29.4827Z" fill="white"/>
<path d="M355.985 28.6887C356.08 28.1187 356.446 27.4605 357.084 26.714C357.722 25.9676 358.509 25.5875 359.445 25.574C359.92 25.574 360.355 25.6961 360.748 25.9404C361.142 26.1847 361.434 26.4901 361.624 26.8565C362.194 26.0015 362.879 25.574 363.68 25.574C364.182 25.574 364.616 25.7233 364.983 26.0218C365.349 26.3204 365.539 26.7208 365.553 27.223C365.553 27.6166 365.458 27.9355 365.268 28.1798C365.078 28.4241 364.895 28.5734 364.718 28.6277C364.542 28.682 364.386 28.7091 364.25 28.7091C363.992 28.7091 363.782 28.6345 363.619 28.4852C363.456 28.3359 363.374 28.1391 363.374 27.8948C363.374 27.2705 363.714 26.843 364.392 26.6122C364.243 26.4358 363.972 26.3476 363.578 26.3476C363.402 26.3476 363.273 26.3611 363.191 26.3883C362.676 26.6054 362.296 27.0533 362.051 27.7319C361.237 30.7313 360.83 32.4821 360.83 32.9843C360.83 33.3643 360.938 33.6357 361.155 33.7986C361.373 33.9615 361.61 34.0429 361.868 34.0429C362.37 34.0429 362.866 33.819 363.354 33.3711C363.843 32.9232 364.175 32.3735 364.352 31.7221C364.392 31.5864 364.433 31.5117 364.474 31.4981C364.515 31.4846 364.623 31.471 364.8 31.4574H364.881C365.085 31.4574 365.186 31.5117 365.186 31.6203C365.186 31.6339 365.173 31.7085 365.146 31.8442C364.928 32.6178 364.508 33.3032 363.883 33.9004C363.259 34.4976 362.533 34.7961 361.705 34.7961C360.755 34.7961 360.036 34.3686 359.547 33.5136C358.991 34.3551 358.353 34.7758 357.634 34.7758H357.511C356.846 34.7758 356.371 34.5993 356.086 34.2465C355.801 33.8936 355.652 33.5204 355.638 33.1268C355.638 32.6925 355.767 32.3396 356.025 32.0682C356.283 31.7967 356.588 31.661 356.941 31.661C357.525 31.661 357.817 31.946 357.817 32.516C357.817 32.7875 357.735 33.025 357.572 33.2286C357.41 33.4322 357.254 33.5679 357.104 33.6357C356.955 33.7036 356.867 33.7375 356.84 33.7375L356.778 33.7579C356.778 33.7715 356.819 33.7986 356.901 33.8393C356.982 33.88 357.091 33.9275 357.226 33.9818C357.362 34.0361 357.491 34.0565 357.613 34.0429C358.102 34.0429 358.523 33.7375 358.875 33.1268C358.998 32.9096 359.154 32.4482 359.344 31.7424C359.534 31.0367 359.724 30.3038 359.914 29.5438C360.104 28.7837 360.212 28.3359 360.239 28.2002C360.307 27.8337 360.341 27.5691 360.341 27.4062C360.341 27.0262 360.239 26.7547 360.036 26.5919C359.832 26.429 359.601 26.3476 359.344 26.3476C358.801 26.3476 358.292 26.5647 357.817 26.999C357.342 27.4333 357.009 27.9898 356.819 28.6684C356.792 28.7905 356.758 28.8584 356.717 28.872C356.677 28.8855 356.568 28.8991 356.392 28.9127H356.107C356.025 28.8312 355.985 28.7566 355.985 28.6887Z" fill="white"/>
<path d="M367.792 19.3241L367.874 19.3037C367.941 19.3037 368.009 19.3037 368.077 19.3037H368.321L368.892 19.7923C370.167 20.946 371.097 22.3846 371.681 24.1082C372.264 25.8319 372.556 27.6234 372.556 29.4827C372.556 30.4056 372.488 31.2946 372.352 32.1496C372.217 33.0047 372.061 33.7308 371.884 34.3279C371.708 34.9251 371.457 35.5223 371.131 36.1195C370.805 36.7166 370.547 37.1713 370.357 37.4834C370.167 37.7956 369.889 38.1417 369.523 38.5217C369.156 38.9017 368.939 39.1256 368.871 39.1935C368.803 39.2614 368.647 39.3903 368.403 39.5803C368.362 39.621 368.335 39.6482 368.321 39.6617H368.077C367.969 39.6617 367.894 39.6617 367.853 39.6617C367.813 39.6617 367.779 39.6414 367.751 39.6007C367.724 39.56 367.704 39.4989 367.69 39.4174C367.704 39.4039 367.779 39.3157 367.914 39.1528C370.018 36.9677 371.07 33.7444 371.07 29.4827C371.07 25.2211 370.018 21.9978 367.914 19.8127C367.779 19.6498 367.704 19.5616 367.69 19.548C367.69 19.4395 367.724 19.3648 367.792 19.3241Z" fill="white"/>
</g>
<path d="M686.455 198.94C686.375 198.86 686.335 198.787 686.335 198.72C686.388 198.36 686.595 197.9 686.955 197.34C687.582 196.393 688.368 195.847 689.315 195.7C689.502 195.673 689.642 195.66 689.735 195.66C690.202 195.66 690.628 195.78 691.015 196.02C691.415 196.26 691.702 196.56 691.875 196.92C692.048 196.693 692.155 196.553 692.195 196.5C692.688 195.94 693.255 195.66 693.895 195.66C694.442 195.66 694.882 195.82 695.215 196.14C695.562 196.447 695.735 196.827 695.735 197.28C695.735 197.693 695.615 198.04 695.375 198.32C695.148 198.6 694.842 198.74 694.455 198.74C694.202 198.74 693.995 198.667 693.835 198.52C693.675 198.373 693.595 198.18 693.595 197.94C693.595 197.327 693.928 196.907 694.595 196.68C694.595 196.667 694.522 196.62 694.375 196.54C694.242 196.46 694.048 196.42 693.795 196.42C693.622 196.42 693.495 196.433 693.415 196.46C692.908 196.673 692.535 197.113 692.295 197.78C692.255 197.887 692.062 198.633 691.715 200.02C691.368 201.393 691.182 202.167 691.155 202.34C691.115 202.54 691.095 202.74 691.095 202.94C691.095 203.26 691.188 203.513 691.375 203.7C691.562 203.887 691.808 203.98 692.115 203.98C692.675 203.98 693.182 203.747 693.635 203.28C694.088 202.8 694.395 202.273 694.555 201.7C694.595 201.567 694.635 201.493 694.675 201.48C694.715 201.453 694.822 201.44 694.995 201.44C695.248 201.44 695.375 201.493 695.375 201.6C695.375 201.613 695.362 201.687 695.335 201.82C695.108 202.647 694.642 203.367 693.935 203.98C693.308 204.473 692.648 204.72 691.955 204.72C691.022 204.72 690.315 204.3 689.835 203.46C689.448 204.06 688.955 204.46 688.355 204.66C688.235 204.687 688.062 204.7 687.835 204.7C687.062 204.7 686.515 204.427 686.195 203.88C686.062 203.653 685.995 203.387 685.995 203.08C685.995 202.68 686.115 202.34 686.355 202.06C686.595 201.78 686.902 201.64 687.275 201.64C687.848 201.64 688.135 201.92 688.135 202.48C688.135 202.973 687.902 203.333 687.435 203.56C687.408 203.573 687.375 203.593 687.335 203.62C687.295 203.633 687.262 203.647 687.235 203.66C687.208 203.673 687.188 203.68 687.175 203.68L687.115 203.7C687.115 203.74 687.215 203.8 687.415 203.88C687.575 203.947 687.748 203.98 687.935 203.98C688.415 203.98 688.828 203.68 689.175 203.08C689.322 202.84 689.582 201.973 689.955 200.48C690.035 200.173 690.122 199.833 690.215 199.46C690.308 199.087 690.375 198.8 690.415 198.6C690.468 198.4 690.502 198.28 690.515 198.24C690.582 197.88 690.615 197.62 690.615 197.46C690.615 197.14 690.528 196.887 690.355 196.7C690.182 196.513 689.942 196.42 689.635 196.42C689.035 196.42 688.515 196.653 688.075 197.12C687.635 197.573 687.328 198.1 687.155 198.7C687.128 198.82 687.095 198.893 687.055 198.92C687.028 198.933 686.922 198.94 686.735 198.94H686.455Z" fill="white"/>
<path d="M64.24 24.3921C64.4267 24.3921 64.5867 24.4454 64.72 24.5521C64.8533 24.6454 64.92 24.7788 64.92 24.9521C64.92 25.1254 64.5933 26.5254 63.94 29.1521C63.2867 31.7788 62.9133 33.2188 62.82 33.4721C62.6067 34.1254 62.26 34.7254 61.78 35.2721C61.3133 35.8321 60.7667 36.2721 60.14 36.5921C59.42 36.9388 58.7467 37.1121 58.12 37.1121C57.1067 37.1121 56.42 36.7921 56.06 36.1521C55.9267 35.9654 55.86 35.6988 55.86 35.3521C55.86 34.8988 55.9867 34.5454 56.24 34.2921C56.52 34.0388 56.8133 33.9121 57.12 33.9121C57.7067 33.9121 58 34.1921 58 34.7521C58 35.2454 57.7667 35.6054 57.3 35.8321C57.2733 35.8454 57.24 35.8588 57.2 35.8721C57.16 35.8988 57.1267 35.9188 57.1 35.9321C57.0733 35.9454 57.0533 35.9521 57.04 35.9521L56.98 35.9721C57.02 36.0521 57.16 36.1388 57.4 36.2321C57.6133 36.3121 57.8267 36.3521 58.04 36.3521H58.2C58.4267 36.3521 58.6 36.3388 58.72 36.3121C59.2267 36.1654 59.7067 35.8254 60.16 35.2921C60.6133 34.7588 60.96 34.1188 61.2 33.3721C61.3467 32.9321 61.42 32.6721 61.42 32.5921C61.42 32.5788 61.4067 32.5854 61.38 32.6121C61.3533 32.6254 61.3133 32.6521 61.26 32.6921C60.7667 33.0521 60.22 33.2321 59.62 33.2321C58.94 33.2321 58.38 33.0721 57.94 32.7521C57.5 32.4321 57.2133 31.9721 57.08 31.3721C57.0667 31.2788 57.06 31.0721 57.06 30.7521C57.06 30.4321 57.0733 30.1854 57.1 30.0121C57.1933 29.4388 57.5 28.4588 58.02 27.0721C58.3133 26.2854 58.46 25.7388 58.46 25.4321C58.46 25.2454 58.44 25.1188 58.4 25.0521C58.3733 24.9721 58.3 24.9321 58.18 24.9321H58.08C57.7733 24.9321 57.48 25.0721 57.2 25.3521C56.7733 25.7788 56.4467 26.4188 56.22 27.2721C56.22 27.2854 56.2133 27.3121 56.2 27.3521C56.1867 27.3788 56.1733 27.3988 56.16 27.4121C56.16 27.4121 56.1533 27.4188 56.14 27.4321C56.1267 27.4454 56.1 27.4521 56.06 27.4521C56.0333 27.4521 56.0067 27.4521 55.98 27.4521C55.9533 27.4521 55.9 27.4521 55.82 27.4521H55.54C55.4333 27.3454 55.4133 27.1921 55.48 26.9921C55.76 26.0588 56.18 25.3321 56.74 24.8121C57.1933 24.3854 57.6667 24.1721 58.16 24.1721C58.72 24.1721 59.1667 24.3254 59.5 24.6321C59.8333 24.9388 60 25.3654 60 25.9121C59.9733 26.1654 59.9533 26.3054 59.94 26.3321C59.94 26.4121 59.84 26.6988 59.64 27.1921C59.0933 28.6721 58.7667 29.7588 58.66 30.4521C58.6467 30.5588 58.64 30.7121 58.64 30.9121C58.64 31.4188 58.72 31.8054 58.88 32.0721C59.04 32.3388 59.3333 32.4721 59.76 32.4721C60.0667 32.4721 60.3533 32.3921 60.62 32.2321C60.9 32.0721 61.1067 31.9188 61.24 31.7721C61.3867 31.6121 61.5667 31.3988 61.78 31.1321C61.78 31.1188 61.9 30.6188 62.14 29.6321C62.3933 28.6321 62.6533 27.6188 62.92 26.5921C63.1867 25.5654 63.34 25.0121 63.38 24.9321C63.5533 24.5721 63.84 24.3921 64.24 24.3921Z" fill="white"/>
<defs>
<clipPath id="clip0_797_17389">
<rect width="600" height="287.033" fill="white" transform="translate(60 57)"/>
</clipPath>
<clipPath id="clip1_797_17389">
<rect width="11.61" height="9" fill="white" transform="translate(354.042 233.937)"/>
</clipPath>
<clipPath id="clip2_797_17389">
<rect width="21.789" height="13.788" fill="white" transform="translate(649.106 231.543)"/>
</clipPath>
<clipPath id="clip3_797_17389">
<rect width="20.565" height="36.513" fill="white" transform="translate(199.717 220.18)"/>
</clipPath>
<clipPath id="clip4_797_17389">
<rect width="30.744" height="41.274" fill="white" transform="translate(494.628 217.8)"/>
</clipPath>
<clipPath id="clip5_797_17389">
<rect width="52.497" height="20.358" fill="white" transform="translate(322 19.3037)"/>
</clipPath>
</defs>
</svg>
