<svg width="720" height="400" viewBox="0 0 720 400" fill="none" xmlns="http://www.w3.org/2000/svg">
<rect width="720" height="400" fill="black"/>
<g clip-path="url(#clip0_805_20830)">
<path d="M660 56.436H60V342.914H660V56.436Z" fill="black"/>
<path d="M60 65.9854H660" stroke="#181818" stroke-miterlimit="407.437"/>
<path d="M60 75.5347H660" stroke="#181818" stroke-miterlimit="407.437"/>
<path d="M60 85.084H660" stroke="#181818" stroke-miterlimit="407.437"/>
<path d="M60 94.6338H660" stroke="#181818" stroke-miterlimit="407.437"/>
<path d="M60 113.731H660" stroke="#181818" stroke-miterlimit="407.437"/>
<path d="M60 123.281H660" stroke="#181818" stroke-miterlimit="407.437"/>
<path d="M60 132.83H660" stroke="#181818" stroke-miterlimit="407.437"/>
<path d="M60 142.379H660" stroke="#181818" stroke-miterlimit="407.437"/>
<path d="M60 161.478H660" stroke="#181818" stroke-miterlimit="407.437"/>
<path d="M60 171.027H660" stroke="#181818" stroke-miterlimit="407.437"/>
<path d="M60 180.577H660" stroke="#181818" stroke-miterlimit="407.437"/>
<path d="M60 190.126H660" stroke="#181818" stroke-miterlimit="407.437"/>
<path d="M60 209.225H660" stroke="#181818" stroke-miterlimit="407.437"/>
<path d="M60 218.774H660" stroke="#181818" stroke-miterlimit="407.437"/>
<path d="M60 228.323H660" stroke="#181818" stroke-miterlimit="407.437"/>
<path d="M60 237.872H660" stroke="#181818" stroke-miterlimit="407.437"/>
<path d="M60 256.971H660" stroke="#181818" stroke-miterlimit="407.437"/>
<path d="M60 266.521H660" stroke="#181818" stroke-miterlimit="407.437"/>
<path d="M60 276.07H660" stroke="#181818" stroke-miterlimit="407.437"/>
<path d="M60 285.619H660" stroke="#181818" stroke-miterlimit="407.437"/>
<path d="M60 304.718H660" stroke="#181818" stroke-miterlimit="407.437"/>
<path d="M60 314.267H660" stroke="#181818" stroke-miterlimit="407.437"/>
<path d="M60 323.816H660" stroke="#181818" stroke-miterlimit="407.437"/>
<path d="M60 333.366H660" stroke="#181818" stroke-miterlimit="407.437"/>
<path d="M69.5494 56.436V342.914" stroke="#181818" stroke-miterlimit="407.437"/>
<path d="M79.0988 56.436V342.914" stroke="#181818" stroke-miterlimit="407.437"/>
<path d="M88.6481 56.436V342.914" stroke="#181818" stroke-miterlimit="407.437"/>
<path d="M98.1975 56.436V342.914" stroke="#181818" stroke-miterlimit="407.437"/>
<path d="M117.295 56.436V342.914" stroke="#181818" stroke-miterlimit="407.437"/>
<path d="M126.845 56.436V342.914" stroke="#181818" stroke-miterlimit="407.437"/>
<path d="M136.394 56.436V342.914" stroke="#181818" stroke-miterlimit="407.437"/>
<path d="M145.943 56.436V342.914" stroke="#181818" stroke-miterlimit="407.437"/>
<path d="M165.042 56.436V342.914" stroke="#181818" stroke-miterlimit="407.437"/>
<path d="M174.592 56.436V342.914" stroke="#181818" stroke-miterlimit="407.437"/>
<path d="M184.141 56.436V342.914" stroke="#181818" stroke-miterlimit="407.437"/>
<path d="M193.69 56.436V342.914" stroke="#181818" stroke-miterlimit="407.437"/>
<path d="M212.789 56.436V342.914" stroke="#181818" stroke-miterlimit="407.437"/>
<path d="M222.338 56.436V342.914" stroke="#181818" stroke-miterlimit="407.437"/>
<path d="M231.887 56.436V342.914" stroke="#181818" stroke-miterlimit="407.437"/>
<path d="M241.436 56.436V342.914" stroke="#181818" stroke-miterlimit="407.437"/>
<path d="M260.535 56.436V342.914" stroke="#181818" stroke-miterlimit="407.437"/>
<path d="M270.084 56.436V342.914" stroke="#181818" stroke-miterlimit="407.437"/>
<path d="M279.634 56.436V342.914" stroke="#181818" stroke-miterlimit="407.437"/>
<path d="M289.183 56.436V342.914" stroke="#181818" stroke-miterlimit="407.437"/>
<path d="M308.282 56.436V342.914" stroke="#181818" stroke-miterlimit="407.437"/>
<path d="M317.831 56.436V342.914" stroke="#181818" stroke-miterlimit="407.437"/>
<path d="M327.381 56.436V342.914" stroke="#181818" stroke-miterlimit="407.437"/>
<path d="M336.93 56.436V342.914" stroke="#181818" stroke-miterlimit="407.437"/>
<path d="M356.028 56.436V342.914" stroke="#181818" stroke-miterlimit="407.437"/>
<path d="M365.577 56.436V342.914" stroke="#181818" stroke-miterlimit="407.437"/>
<path d="M375.127 56.436V342.914" stroke="#181818" stroke-miterlimit="407.437"/>
<path d="M384.676 56.436V342.914" stroke="#181818" stroke-miterlimit="407.437"/>
<path d="M403.775 56.436V342.914" stroke="#181818" stroke-miterlimit="407.437"/>
<path d="M413.324 56.436V342.914" stroke="#181818" stroke-miterlimit="407.437"/>
<path d="M422.873 56.436V342.914" stroke="#181818" stroke-miterlimit="407.437"/>
<path d="M432.423 56.436V342.914" stroke="#181818" stroke-miterlimit="407.437"/>
<path d="M451.522 56.436V342.914" stroke="#181818" stroke-miterlimit="407.437"/>
<path d="M461.07 56.436V342.914" stroke="#181818" stroke-miterlimit="407.437"/>
<path d="M470.619 56.436V342.914" stroke="#181818" stroke-miterlimit="407.437"/>
<path d="M480.169 56.436V342.914" stroke="#181818" stroke-miterlimit="407.437"/>
<path d="M499.267 56.436V342.914" stroke="#181818" stroke-miterlimit="407.437"/>
<path d="M508.817 56.436V342.914" stroke="#181818" stroke-miterlimit="407.437"/>
<path d="M518.366 56.436V342.914" stroke="#181818" stroke-miterlimit="407.437"/>
<path d="M527.916 56.436V342.914" stroke="#181818" stroke-miterlimit="407.437"/>
<path d="M547.014 56.436V342.914" stroke="#181818" stroke-miterlimit="407.437"/>
<path d="M556.564 56.436V342.914" stroke="#181818" stroke-miterlimit="407.437"/>
<path d="M566.113 56.436V342.914" stroke="#181818" stroke-miterlimit="407.437"/>
<path d="M575.662 56.436V342.914" stroke="#181818" stroke-miterlimit="407.437"/>
<path d="M594.76 56.436V342.914" stroke="#181818" stroke-miterlimit="407.437"/>
<path d="M604.31 56.436V342.914" stroke="#181818" stroke-miterlimit="407.437"/>
<path d="M613.859 56.436V342.914" stroke="#181818" stroke-miterlimit="407.437"/>
<path d="M623.408 56.436V342.914" stroke="#181818" stroke-miterlimit="407.437"/>
<path d="M642.507 56.436V342.914" stroke="#181818" stroke-miterlimit="407.437"/>
<path d="M652.057 56.436V342.914" stroke="#181818" stroke-miterlimit="407.437"/>
<path d="M60 56.436H660" stroke="#262626" stroke-miterlimit="407.437"/>
<path d="M60 151.929H660" stroke="#262626" stroke-miterlimit="407.437"/>
<path d="M60 247.422H660" stroke="#262626" stroke-miterlimit="407.437"/>
<path d="M60 342.915H660" stroke="#262626" stroke-miterlimit="407.437"/>
<path d="M107.747 56.436V342.914" stroke="#262626" stroke-miterlimit="407.437"/>
<path d="M203.24 56.436V342.914" stroke="#262626" stroke-miterlimit="407.437"/>
<path d="M298.732 56.436V342.914" stroke="#262626" stroke-miterlimit="407.437"/>
<path d="M394.225 56.436V342.914" stroke="#262626" stroke-miterlimit="407.437"/>
<path d="M489.718 56.436V342.914" stroke="#262626" stroke-miterlimit="407.437"/>
<path d="M585.211 56.436V342.914" stroke="#262626" stroke-miterlimit="407.437"/>
<path d="M60 104.183H660" stroke="#404040" stroke-miterlimit="407.437"/>
<path d="M60 199.675H660" stroke="#404040" stroke-miterlimit="407.437"/>
<path d="M60 295.168H660" stroke="#404040" stroke-miterlimit="407.437"/>
<path d="M60 56.436V342.914" stroke="#404040" stroke-miterlimit="407.437"/>
<path d="M155.493 56.436V342.914" stroke="#404040" stroke-miterlimit="407.437"/>
<path d="M250.986 56.436V342.914" stroke="#404040" stroke-miterlimit="407.437"/>
<path d="M346.478 56.436V342.914" stroke="#404040" stroke-miterlimit="407.437"/>
<path d="M441.972 56.436V342.914" stroke="#404040" stroke-miterlimit="407.437"/>
<path d="M537.465 56.436V342.914" stroke="#404040" stroke-miterlimit="407.437"/>
<path d="M632.958 56.436V342.914" stroke="#404040" stroke-miterlimit="407.437"/>
<path d="M60 199.675L60.8334 198.842L61.6669 198.009L62.5003 197.175L63.3338 196.343L64.1672 195.51L65.0006 194.678L65.8341 193.846L66.6675 193.014L67.5009 192.184L68.3344 191.353L69.1678 190.524L70.0013 189.695L70.8347 188.866L71.6681 188.038L72.5016 187.211L73.335 186.385L74.1684 185.56L75.0019 184.736L75.8353 183.914L76.6688 183.093L77.5022 182.273L78.3356 181.454L79.1691 180.637L80.0025 179.821L80.8359 179.006L81.6694 178.194L82.5028 177.383L83.3363 176.574L84.1697 175.765L85.0031 174.959L85.8366 174.155L86.67 173.352L87.5034 172.553L88.3369 171.755L89.1703 170.959L90.0038 170.165L90.8372 169.374L91.6706 168.584L92.5041 167.798L93.3375 167.013L94.1709 166.231L95.0044 165.452L95.8378 164.676L96.6712 163.901L97.5047 163.13L98.3381 162.361L99.1716 161.595L100.005 160.832L100.838 160.073L101.672 159.316L102.505 158.562L103.339 157.811L104.172 157.064L105.006 156.32L105.839 155.579L106.673 154.841L107.506 154.107L108.339 153.377L109.173 152.649L110.006 151.926L110.84 151.206L111.673 150.489L112.507 149.777L113.34 149.068L114.173 148.363L115.007 147.662L115.84 146.965L116.674 146.273L117.507 145.584L118.341 144.899L119.174 144.219L120.008 143.543L120.841 142.87L121.674 142.203L122.508 141.539L123.341 140.88L124.175 140.226L125.008 139.576L125.842 138.931L126.675 138.291L127.508 137.655L128.342 137.024L129.175 136.398L130.009 135.776L130.842 135.159L131.676 134.547L132.509 133.941L133.342 133.339L134.176 132.742L135.009 132.15L135.843 131.563L136.676 130.982L137.51 130.405L138.343 129.834L139.177 129.269L140.01 128.709L140.843 128.154L141.677 127.604L142.51 127.06L143.344 126.522L144.177 125.99L145.011 125.463L145.844 124.942L146.677 124.426L147.511 123.916L148.344 123.412L149.178 122.913L150.011 122.42L150.845 121.933L151.678 121.452L152.512 120.977L153.345 120.508L154.178 120.045L155.012 119.589L155.845 119.138L156.679 118.693L157.512 118.254L158.346 117.822L159.179 117.397L160.012 116.977L160.846 116.563L161.679 116.156L162.513 115.755L163.346 115.36L164.18 114.972L165.013 114.591L165.847 114.216L166.68 113.847L167.513 113.485L168.347 113.13L169.18 112.781L170.014 112.439L170.847 112.104L171.681 111.774L172.514 111.452L173.347 111.136L174.181 110.828L175.014 110.526L175.848 110.23L176.681 109.942L177.515 109.66L178.348 109.386L179.182 109.118L180.015 108.857L180.848 108.603L181.682 108.355L182.515 108.115L183.349 107.882L184.182 107.656L185.016 107.437L185.849 107.225L186.683 107.019L187.516 106.822L188.349 106.63L189.183 106.447L190.016 106.269L190.85 106.1L191.683 105.938L192.517 105.782L193.35 105.634L194.183 105.492L195.017 105.358L195.85 105.232L196.684 105.112L197.517 104.999L198.351 104.894L199.184 104.797L200.018 104.706L200.851 104.622L201.684 104.546L202.518 104.477L203.351 104.415L204.185 104.361L205.018 104.314L205.852 104.274L206.685 104.241L207.518 104.215L208.352 104.198L209.185 104.186L210.019 104.183L210.852 104.186L211.686 104.198L212.519 104.215L213.353 104.241L214.186 104.274L215.019 104.314L215.853 104.361L216.686 104.415L217.52 104.477L218.353 104.546L219.187 104.622L220.02 104.706L220.853 104.797L221.687 104.894L222.52 104.999L223.354 105.112L224.187 105.232L225.021 105.358L225.854 105.492L226.688 105.634L227.521 105.782L228.354 105.938L229.188 106.1L230.021 106.269L230.855 106.447L231.688 106.63L232.522 106.822L233.355 107.019L234.188 107.225L235.022 107.437L235.855 107.656L236.689 107.882L237.522 108.115L238.356 108.355L239.189 108.603L240.023 108.857L240.856 109.118L241.689 109.386L242.523 109.66L243.356 109.942L244.19 110.23L245.023 110.526L245.857 110.828L246.69 111.136L247.523 111.452L248.357 111.774L249.19 112.104L250.024 112.439L250.857 112.781L251.691 113.13L252.524 113.485L253.357 113.847L254.191 114.216L255.024 114.591L255.858 114.972L256.691 115.36L257.525 115.755L258.358 116.156L259.192 116.563L260.025 116.977L260.858 117.397L261.692 117.822L262.525 118.254L263.359 118.693L264.192 119.138L265.026 119.589L265.859 120.045L266.693 120.508L267.526 120.977L268.359 121.452L269.193 121.933L270.026 122.42L270.86 122.913L271.693 123.412L272.527 123.916L273.36 124.426L274.193 124.942L275.027 125.463L275.86 125.99L276.694 126.522L277.527 127.06L278.361 127.604L279.194 128.154L280.027 128.709L280.861 129.269L281.694 129.834L282.528 130.405L283.361 130.982L284.195 131.563L285.028 132.15L285.862 132.742L286.695 133.339L287.528 133.941L288.362 134.547L289.195 135.159L290.029 135.776L290.862 136.398L291.696 137.024L292.529 137.655L293.363 138.291L294.196 138.931L295.029 139.576L295.863 140.226L296.696 140.88L297.53 141.539L298.363 142.203L299.197 142.87L300.03 143.543L300.863 144.219L301.697 144.899L302.53 145.584L303.364 146.273L304.197 146.965L305.031 147.662L305.864 148.363L306.698 149.068L307.531 149.777L308.364 150.489L309.198 151.206L310.031 151.926L310.865 152.649L311.698 153.377L312.532 154.107L313.365 154.841L314.198 155.579L315.032 156.32L315.865 157.064L316.699 157.811L317.532 158.562L318.366 159.316L319.199 160.073L320.033 160.832L320.866 161.595L321.699 162.361L322.533 163.13L323.366 163.901L324.2 164.676L325.033 165.452L325.867 166.231L326.7 167.013L327.533 167.798L328.367 168.584L329.2 169.374L330.034 170.165L330.867 170.959L331.701 171.755L332.534 172.553L333.368 173.352L334.201 174.155L335.034 174.959L335.868 175.765L336.701 176.574L337.535 177.383L338.368 178.194L339.202 179.006L340.035 179.821L340.868 180.637L341.702 181.454L342.535 182.273L343.369 183.093L344.202 183.914L345.036 184.736L345.869 185.56L346.703 186.385L347.536 187.211L348.369 188.038L349.203 188.866L350.036 189.695L350.87 190.524L351.703 191.353L352.537 192.184L353.37 193.014L354.203 193.846L355.037 194.678L355.87 195.51L356.704 196.343L357.537 197.175L358.371 198.009L359.204 198.842L360.038 199.675L360.871 200.509L361.704 201.342L362.538 202.176L363.371 203.008L364.205 203.841L365.038 204.673L365.872 205.505L366.705 206.336L367.538 207.167L368.372 207.998L369.205 208.827L370.039 209.656L370.872 210.485L371.706 211.313L372.539 212.139L373.372 212.965L374.206 213.79L375.039 214.614L375.873 215.437L376.706 216.258L377.54 217.078L378.373 217.897L379.207 218.714L380.04 219.53L380.873 220.344L381.707 221.157L382.54 221.968L383.374 222.777L384.207 223.585L385.041 224.392L385.874 225.196L386.708 225.999L387.541 226.798L388.374 227.596L389.208 228.392L390.041 229.186L390.875 229.977L391.708 230.767L392.542 231.553L393.375 232.338L394.208 233.12L395.042 233.899L395.875 234.675L396.709 235.449L397.542 236.221L398.376 236.99L399.209 237.756L400.043 238.519L400.876 239.278L401.709 240.035L402.543 240.789L403.376 241.54L404.21 242.287L405.043 243.031L405.877 243.772L406.71 244.509L407.543 245.244L408.377 245.974L409.21 246.701L410.044 247.425L410.877 248.145L411.711 248.861L412.544 249.574L413.378 250.283L414.211 250.988L415.044 251.689L415.878 252.385L416.711 253.078L417.545 253.767L418.378 254.452L419.212 255.132L420.045 255.808L420.878 256.48L421.712 257.148L422.545 257.812L423.379 258.471L424.212 259.125L425.046 259.775L425.879 260.42L426.712 261.06L427.546 261.696L428.379 262.327L429.213 262.953L430.046 263.574L430.88 264.191L431.713 264.804L432.547 265.41L433.38 266.012L434.213 266.609L435.047 267.201L435.88 267.788L436.714 268.369L437.547 268.945L438.381 269.516L439.214 270.082L440.048 270.642L440.881 271.197L441.714 271.747L442.548 272.29L443.381 272.829L444.215 273.361L445.048 273.888L445.882 274.409L446.715 274.925L447.548 275.435L448.382 275.939L449.215 276.438L450.049 276.931L450.882 277.418L451.716 277.899L452.549 278.374L453.383 278.843L454.216 279.306L455.049 279.762L455.883 280.213L456.716 280.658L457.55 281.096L458.383 281.529L459.217 281.954L460.05 282.374L460.883 282.788L461.717 283.195L462.55 283.596L463.384 283.99L464.217 284.379L465.051 284.76L465.884 285.135L466.717 285.504L467.551 285.865L468.384 286.221L469.218 286.569L470.051 286.912L470.885 287.247L471.718 287.576L472.552 287.899L473.385 288.215L474.218 288.523L475.052 288.825L475.885 289.12L476.719 289.409L477.552 289.69L478.386 289.965L479.219 290.233L480.052 290.494L480.886 290.748L481.719 290.995L482.553 291.235L483.386 291.469L484.22 291.695L485.053 291.914L485.887 292.126L486.72 292.331L487.553 292.529L488.387 292.72L489.22 292.904L490.054 293.081L490.887 293.251L491.721 293.413L492.554 293.569L493.388 293.717L494.221 293.859L495.054 293.993L495.888 294.119L496.721 294.239L497.555 294.352L498.388 294.457L499.222 294.554L500.055 294.645L500.888 294.729L501.722 294.804L502.555 294.874L503.389 294.936L504.222 294.99L505.056 295.037L505.889 295.077L506.723 295.11L507.556 295.135L508.389 295.153L509.223 295.164L510.056 295.168L510.89 295.164L511.723 295.153L512.557 295.135L513.39 295.11L514.223 295.077L515.057 295.037L515.89 294.99L516.724 294.936L517.557 294.874L518.391 294.804L519.224 294.729L520.057 294.645L520.891 294.554L521.724 294.457L522.558 294.352L523.391 294.239L524.225 294.119L525.058 293.993L525.892 293.859L526.725 293.717L527.558 293.569L528.392 293.413L529.225 293.251L530.059 293.081L530.892 292.904L531.726 292.72L532.559 292.529L533.392 292.331L534.226 292.126L535.059 291.914L535.893 291.695L536.726 291.469L537.56 291.235L538.393 290.995L539.227 290.748L540.06 290.494L540.893 290.233L541.727 289.965L542.56 289.69L543.394 289.409L544.227 289.12L545.061 288.825L545.894 288.523L546.728 288.215L547.561 287.899L548.394 287.576L549.228 287.247L550.061 286.912L550.895 286.569L551.728 286.221L552.562 285.865L553.395 285.504L554.228 285.135L555.062 284.76L555.895 284.379L556.729 283.99L557.562 283.596L558.396 283.195L559.229 282.788L560.063 282.374L560.896 281.954L561.729 281.529L562.563 281.096L563.396 280.658L564.23 280.213L565.063 279.762L565.897 279.306L566.73 278.843L567.563 278.374L568.397 277.899L569.23 277.418L570.064 276.931L570.897 276.438L571.731 275.939L572.564 275.435L573.398 274.925L574.231 274.409L575.064 273.888L575.898 273.361L576.731 272.829L577.565 272.29L578.398 271.747L579.232 271.197L580.065 270.642L580.898 270.082L581.732 269.516L582.565 268.945L583.399 268.369L584.232 267.788L585.066 267.201L585.899 266.609L586.733 266.012L587.566 265.41L588.399 264.804L589.233 264.191L590.066 263.574L590.9 262.953L591.733 262.327L592.567 261.696L593.4 261.06L594.233 260.42L595.067 259.775L595.9 259.125L596.734 258.471L597.567 257.812L598.401 257.148L599.234 256.48L600.068 255.808L600.901 255.132L601.734 254.452L602.568 253.767L603.401 253.078L604.235 252.385L605.068 251.689L605.902 250.988L606.735 250.283L607.568 249.574L608.402 248.861L609.235 248.145L610.069 247.425L610.902 246.701L611.736 245.974L612.569 245.244L613.403 244.509L614.236 243.772L615.069 243.031L615.903 242.287L616.736 241.54L617.57 240.789L618.403 240.035L619.237 239.278L620.07 238.519L620.903 237.756L621.737 236.99L622.57 236.221L623.404 235.449L624.237 234.675L625.071 233.899L625.904 233.12L626.738 232.338L627.571 231.553L628.404 230.767L629.238 229.977L630.071 229.186L630.905 228.392L631.738 227.596L632.572 226.798L633.405 225.999L634.238 225.196L635.072 224.392L635.905 223.585L636.739 222.777L637.572 221.968L638.406 221.157L639.239 220.344L640.073 219.53L640.906 218.714L641.739 217.897L642.573 217.078L643.406 216.258L644.24 215.437L645.073 214.614L645.907 213.79L646.74 212.965L647.573 212.139L648.407 211.313L649.24 210.485L650.074 209.656L650.907 208.827L651.741 207.998L652.574 207.167L653.408 206.336L654.241 205.505L655.074 204.673L655.908 203.841L656.741 203.008L657.575 202.176L658.408 201.342L659.242 200.509L660.075 199.675" stroke="#FFFB77" stroke-width="1.5" stroke-miterlimit="407.437"/>
<path d="M60 295.168L60.8334 295.165L61.6669 295.153L62.5003 295.136L63.3338 295.11L64.1672 295.078L65.0006 295.037L65.8341 294.99L66.6675 294.936L67.5009 294.874L68.3344 294.805L69.1678 294.729L70.0013 294.645L70.8347 294.554L71.6681 294.457L72.5016 294.352L73.335 294.239L74.1684 294.119L75.0019 293.993L75.8353 293.859L76.6688 293.717L77.5022 293.569L78.3356 293.413L79.1691 293.251L80.0025 293.082L80.8359 292.904L81.6694 292.721L82.5028 292.529L83.3363 292.332L84.1697 292.126L85.0031 291.914L85.8366 291.695L86.67 291.469L87.5034 291.236L88.3369 290.996L89.1703 290.748L90.0038 290.494L90.8372 290.233L91.6706 289.965L92.5041 289.691L93.3375 289.409L94.1709 289.121L95.0044 288.825L95.8378 288.523L96.6713 288.215L97.5047 287.899L98.3381 287.577L99.1716 287.248L100.005 286.912L100.838 286.57L101.672 286.221L102.505 285.866L103.339 285.504L104.172 285.135L105.006 284.76L105.839 284.379L106.673 283.991L107.506 283.596L108.339 283.195L109.173 282.788L110.006 282.374L110.84 281.954L111.673 281.529L112.507 281.097L113.34 280.658L114.173 280.213L115.007 279.763L115.84 279.306L116.674 278.843L117.507 278.374L118.341 277.899L119.174 277.418L120.008 276.931L120.841 276.438L121.674 275.939L122.508 275.435L123.341 274.925L124.175 274.409L125.008 273.888L125.842 273.361L126.675 272.829L127.508 272.291L128.342 271.747L129.175 271.198L130.009 270.643L130.842 270.082L131.676 269.517L132.509 268.946L133.343 268.369L134.176 267.788L135.009 267.201L135.843 266.609L136.676 266.012L137.51 265.41L138.343 264.804L139.177 264.192L140.01 263.575L140.843 262.953L141.677 262.327L142.51 261.696L143.344 261.06L144.177 260.42L145.011 259.775L145.844 259.125L146.678 258.471L147.511 257.812L148.344 257.148L149.178 256.481L150.011 255.808L150.845 255.133L151.678 254.452L152.512 253.768L153.345 253.078L154.178 252.386L155.012 251.689L155.845 250.988L156.679 250.283L157.512 249.574L158.346 248.862L159.179 248.145L160.013 247.425L160.846 246.702L161.679 245.974L162.513 245.244L163.346 244.51L164.18 243.772L165.013 243.031L165.847 242.287L166.68 241.54L167.513 240.789L168.347 240.035L169.18 239.278L170.014 238.519L170.847 237.756L171.681 236.99L172.514 236.221L173.347 235.45L174.181 234.675L175.014 233.899L175.848 233.12L176.681 232.338L177.515 231.553L178.348 230.767L179.182 229.978L180.015 229.186L180.848 228.392L181.682 227.596L182.515 226.798L183.349 225.999L184.182 225.196L185.016 224.392L185.849 223.586L186.683 222.778L187.516 221.968L188.349 221.158L189.183 220.345L190.016 219.53L190.85 218.714L191.683 217.897L192.517 217.078L193.35 216.258L194.183 215.437L195.017 214.615L195.85 213.791L196.684 212.966L197.517 212.14L198.351 211.313L199.184 210.485L200.018 209.656L200.851 208.828L201.684 207.998L202.518 207.167L203.351 206.337L204.185 205.505L205.018 204.673L205.852 203.841L206.685 203.008L207.518 202.176L208.352 201.343L209.185 200.509L210.019 199.676L210.852 198.842L211.686 198.009L212.519 197.175L213.353 196.343L214.186 195.51L215.019 194.678L215.853 193.846L216.686 193.015L217.52 192.184L218.353 191.353L219.187 190.524L220.02 189.695L220.853 188.866L221.687 188.038L222.52 187.212L223.354 186.386L224.187 185.561L225.021 184.737L225.854 183.914L226.688 183.093L227.521 182.273L228.354 181.454L229.188 180.637L230.021 179.821L230.855 179.007L231.688 178.194L232.522 177.383L233.355 176.574L234.188 175.766L235.022 174.959L235.855 174.155L236.689 173.353L237.522 172.553L238.356 171.755L239.189 170.959L240.023 170.165L240.856 169.374L241.689 168.584L242.523 167.798L243.356 167.013L244.19 166.231L245.023 165.452L245.857 164.676L246.69 163.902L247.523 163.13L248.357 162.361L249.19 161.595L250.024 160.832L250.857 160.073L251.691 159.316L252.524 158.563L253.358 157.812L254.191 157.064L255.024 156.32L255.858 155.579L256.691 154.842L257.525 154.108L258.358 153.377L259.192 152.65L260.025 151.926L260.858 151.206L261.692 150.49L262.525 149.777L263.359 149.068L264.192 148.363L265.026 147.662L265.859 146.966L266.693 146.273L267.526 145.584L268.359 144.899L269.193 144.219L270.026 143.543L270.86 142.871L271.693 142.203L272.527 141.539L273.36 140.88L274.193 140.226L275.027 139.576L275.86 138.931L276.694 138.291L277.527 137.655L278.361 137.024L279.194 136.398L280.027 135.777L280.861 135.16L281.694 134.548L282.528 133.941L283.361 133.339L284.195 132.742L285.028 132.15L285.862 131.563L286.695 130.982L287.528 130.406L288.362 129.835L289.195 129.269L290.029 128.709L290.862 128.154L291.696 127.604L292.529 127.061L293.362 126.523L294.196 125.99L295.029 125.463L295.863 124.942L296.696 124.426L297.53 123.916L298.363 123.412L299.197 122.913L300.03 122.42L300.863 121.933L301.697 121.453L302.53 120.977L303.364 120.508L304.197 120.045L305.031 119.589L305.864 119.138L306.698 118.693L307.531 118.255L308.364 117.823L309.198 117.397L310.031 116.977L310.865 116.563L311.698 116.157L312.532 115.755L313.365 115.361L314.198 114.973L315.032 114.591L315.865 114.216L316.699 113.848L317.532 113.486L318.366 113.13L319.199 112.782L320.033 112.439L320.866 112.104L321.699 111.775L322.533 111.452L323.366 111.136L324.2 110.828L325.033 110.526L325.867 110.231L326.7 109.942L327.533 109.661L328.367 109.386L329.2 109.118L330.034 108.857L330.867 108.603L331.701 108.356L332.534 108.116L333.368 107.882L334.201 107.656L335.034 107.437L335.868 107.225L336.701 107.02L337.535 106.822L338.368 106.631L339.202 106.447L340.035 106.27L340.868 106.1L341.702 105.938L342.535 105.782L343.369 105.634L344.202 105.493L345.036 105.358L345.869 105.232L346.703 105.112L347.536 104.999L348.369 104.894L349.203 104.797L350.036 104.706L350.87 104.623L351.703 104.547L352.537 104.477L353.37 104.415L354.203 104.361L355.037 104.314L355.87 104.274L356.704 104.241L357.537 104.216L358.371 104.198L359.204 104.187L360.038 104.183L360.871 104.187L361.704 104.198L362.538 104.216L363.371 104.241L364.205 104.274L365.038 104.314L365.872 104.361L366.705 104.415L367.538 104.477L368.372 104.547L369.205 104.623L370.039 104.706L370.872 104.797L371.706 104.894L372.539 104.999L373.373 105.112L374.206 105.232L375.039 105.358L375.873 105.493L376.706 105.634L377.54 105.782L378.373 105.938L379.207 106.1L380.04 106.27L380.873 106.447L381.707 106.631L382.54 106.822L383.374 107.02L384.207 107.225L385.041 107.437L385.874 107.656L386.708 107.882L387.541 108.116L388.374 108.356L389.208 108.603L390.041 108.857L390.875 109.118L391.708 109.386L392.542 109.661L393.375 109.942L394.208 110.231L395.042 110.526L395.875 110.828L396.709 111.136L397.542 111.452L398.376 111.775L399.209 112.104L400.043 112.439L400.876 112.782L401.709 113.13L402.543 113.486L403.376 113.848L404.21 114.216L405.043 114.591L405.877 114.973L406.71 115.361L407.543 115.755L408.377 116.157L409.21 116.563L410.044 116.977L410.877 117.397L411.711 117.823L412.544 118.255L413.378 118.693L414.211 119.138L415.044 119.589L415.878 120.045L416.711 120.508L417.545 120.977L418.378 121.453L419.212 121.933L420.045 122.42L420.878 122.913L421.712 123.412L422.545 123.916L423.379 124.426L424.212 124.942L425.046 125.463L425.879 125.99L426.713 126.523L427.546 127.061L428.379 127.604L429.213 128.154L430.046 128.709L430.88 129.269L431.713 129.835L432.547 130.406L433.38 130.982L434.213 131.563L435.047 132.15L435.88 132.742L436.714 133.339L437.547 133.941L438.381 134.548L439.214 135.16L440.048 135.777L440.881 136.398L441.714 137.024L442.548 137.655L443.381 138.291L444.215 138.931L445.048 139.576L445.882 140.226L446.715 140.88L447.548 141.539L448.382 142.203L449.215 142.871L450.049 143.543L450.882 144.219L451.716 144.899L452.549 145.584L453.383 146.273L454.216 146.966L455.049 147.662L455.883 148.363L456.716 149.068L457.55 149.777L458.383 150.49L459.217 151.206L460.05 151.926L460.883 152.65L461.717 153.377L462.55 154.108L463.384 154.842L464.217 155.579L465.051 156.32L465.884 157.064L466.718 157.812L467.551 158.563L468.384 159.316L469.218 160.073L470.051 160.832L470.885 161.595L471.718 162.361L472.552 163.13L473.385 163.902L474.218 164.676L475.052 165.452L475.885 166.231L476.719 167.013L477.552 167.798L478.386 168.584L479.219 169.374L480.052 170.165L480.886 170.959L481.719 171.755L482.553 172.553L483.386 173.353L484.22 174.155L485.053 174.959L485.887 175.766L486.72 176.574L487.553 177.383L488.387 178.194L489.22 179.007L490.054 179.821L490.887 180.637L491.721 181.454L492.554 182.273L493.387 183.093L494.221 183.914L495.054 184.737L495.888 185.561L496.721 186.386L497.555 187.212L498.388 188.038L499.222 188.866L500.055 189.695L500.888 190.524L501.722 191.353L502.555 192.184L503.389 193.015L504.222 193.846L505.056 194.678L505.889 195.51L506.722 196.343L507.556 197.175L508.389 198.009L509.223 198.842L510.056 199.676L510.89 200.509L511.723 201.343L512.557 202.176L513.39 203.008L514.223 203.841L515.057 204.673L515.89 205.505L516.724 206.337L517.557 207.167L518.391 207.998L519.224 208.828L520.057 209.656L520.891 210.485L521.724 211.313L522.558 212.14L523.391 212.966L524.225 213.791L525.058 214.615L525.892 215.437L526.725 216.258L527.558 217.078L528.392 217.897L529.225 218.714L530.059 219.53L530.892 220.345L531.726 221.158L532.559 221.968L533.392 222.778L534.226 223.586L535.059 224.392L535.893 225.196L536.726 225.999L537.56 226.798L538.393 227.596L539.227 228.392L540.06 229.186L540.893 229.978L541.727 230.767L542.56 231.553L543.394 232.338L544.227 233.12L545.061 233.899L545.894 234.675L546.728 235.45L547.561 236.221L548.394 236.99L549.228 237.756L550.061 238.519L550.895 239.278L551.728 240.035L552.562 240.789L553.395 241.54L554.228 242.287L555.062 243.031L555.895 243.772L556.729 244.51L557.562 245.244L558.396 245.974L559.229 246.702L560.063 247.425L560.896 248.145L561.729 248.862L562.563 249.574L563.396 250.283L564.23 250.988L565.063 251.689L565.897 252.386L566.73 253.078L567.563 253.768L568.397 254.452L569.23 255.133L570.064 255.808L570.897 256.481L571.731 257.148L572.564 257.812L573.398 258.471L574.231 259.125L575.064 259.775L575.898 260.42L576.731 261.06L577.565 261.696L578.398 262.327L579.232 262.953L580.065 263.575L580.898 264.192L581.732 264.804L582.565 265.41L583.399 266.012L584.232 266.609L585.066 267.201L585.899 267.788L586.733 268.369L587.566 268.946L588.399 269.517L589.233 270.082L590.066 270.643L590.9 271.198L591.733 271.747L592.567 272.291L593.4 272.829L594.233 273.361L595.067 273.888L595.9 274.409L596.734 274.925L597.567 275.435L598.401 275.939L599.234 276.438L600.068 276.931L600.901 277.418L601.734 277.899L602.568 278.374L603.401 278.843L604.235 279.306L605.068 279.763L605.902 280.213L606.735 280.658L607.568 281.097L608.402 281.529L609.235 281.954L610.069 282.374L610.902 282.788L611.736 283.195L612.569 283.596L613.403 283.991L614.236 284.379L615.069 284.76L615.903 285.135L616.736 285.504L617.57 285.866L618.403 286.221L619.237 286.57L620.07 286.912L620.903 287.248L621.737 287.577L622.57 287.899L623.404 288.215L624.237 288.523L625.071 288.825L625.904 289.121L626.738 289.409L627.571 289.691L628.404 289.965L629.238 290.233L630.071 290.494L630.905 290.748L631.738 290.996L632.572 291.236L633.405 291.469L634.238 291.695L635.072 291.914L635.905 292.126L636.739 292.332L637.572 292.529L638.406 292.721L639.239 292.904L640.073 293.082L640.906 293.251L641.739 293.413L642.573 293.569L643.406 293.717L644.24 293.859L645.073 293.993L645.907 294.119L646.74 294.239L647.573 294.352L648.407 294.457L649.24 294.554L650.074 294.645L650.907 294.729L651.741 294.805L652.574 294.874L653.408 294.936L654.241 294.99L655.074 295.037L655.908 295.078L656.741 295.11L657.575 295.136L658.408 295.153L659.242 295.165L660.075 295.168" stroke="#58C4DD" stroke-width="1.5" stroke-miterlimit="407.437"/>
<path d="M60 199.676H660" stroke="#F0F0F0" stroke-miterlimit="407.437"/>
<path d="M60 56.436V342.914" stroke="#F0F0F0" stroke-miterlimit="407.437"/>
<path d="M360 104.187V295.156H60" stroke="white" stroke-width="1.5" stroke-dasharray="6 6"/>
<rect x="387.714" y="186.245" width="13.8942" height="28.3794" fill="black"/>
<path d="M391.862 198.355C391.488 198.355 391.195 198.235 390.982 197.995C390.768 197.755 390.662 197.461 390.662 197.115C390.662 196.155 391.022 195.335 391.742 194.655C392.475 193.961 393.348 193.615 394.362 193.615C395.508 193.615 396.455 193.928 397.202 194.555C397.962 195.168 398.428 195.975 398.602 196.975C398.628 197.215 398.642 197.435 398.642 197.635C398.642 198.408 398.408 199.135 397.942 199.815C397.568 200.375 396.815 201.141 395.682 202.115C395.202 202.528 394.535 203.141 393.682 203.955L392.502 205.075L394.022 205.095C396.115 205.095 397.228 205.061 397.362 204.995C397.415 204.981 397.482 204.841 397.562 204.575C397.615 204.428 397.708 203.975 397.842 203.215V203.155H398.642V203.215L398.082 206.875V206.935H390.662V206.555C390.662 206.288 390.675 206.135 390.702 206.095C390.715 206.068 391.275 205.435 392.382 204.195C393.835 202.581 394.768 201.515 395.182 200.995C396.075 199.781 396.522 198.668 396.522 197.655C396.522 196.775 396.288 196.041 395.822 195.455C395.368 194.855 394.728 194.555 393.902 194.555C393.128 194.555 392.502 194.901 392.022 195.595C391.995 195.648 391.955 195.721 391.902 195.815C391.862 195.881 391.842 195.921 391.842 195.935C391.842 195.948 391.875 195.955 391.942 195.955C392.275 195.955 392.542 196.075 392.742 196.315C392.955 196.555 393.062 196.835 393.062 197.155C393.062 197.488 392.948 197.775 392.722 198.015C392.508 198.241 392.222 198.355 391.862 198.355Z" fill="white"/>
</g>
<path d="M660 56.6343H60V343.113H660V56.6343Z" stroke="#404040"/>
<path d="M360 194V206" stroke="white" stroke-width="1.5" stroke-miterlimit="407.437"/>
<path d="M60 194V206" stroke="white" stroke-width="1.5" stroke-miterlimit="407.437"/>
<path d="M660 194V206" stroke="white" stroke-width="1.5" stroke-miterlimit="407.437"/>
<path d="M510 194V206" stroke="white" stroke-width="1.5" stroke-miterlimit="407.437"/>
<path d="M210 194V206" stroke="white" stroke-width="1.5" stroke-miterlimit="407.437"/>
<circle cx="359.846" cy="238.437" r="13.5" fill="black" fill-opacity="0.8"/>
<g clip-path="url(#clip1_805_20830)">
<path d="M356.731 242.937C356.27 242.937 356.039 242.713 356.039 242.265V242.041L356.304 241.47C357.322 239.326 358.061 237.473 358.523 235.912L358.686 235.423H358.034C357.518 235.423 357.152 235.443 356.935 235.484C356.718 235.525 356.453 235.654 356.141 235.871C355.991 235.966 355.842 236.088 355.693 236.237C355.543 236.387 355.414 236.529 355.306 236.665C355.197 236.801 355.136 236.882 355.123 236.909C355.095 236.923 354.994 236.93 354.817 236.93C354.559 236.93 354.43 236.862 354.43 236.726C354.43 236.645 354.559 236.407 354.817 236.013C355.075 235.62 355.448 235.199 355.937 234.751C356.426 234.303 356.908 234.045 357.383 233.977C357.478 233.95 359.005 233.937 361.964 233.937C364.136 233.937 365.249 233.943 365.304 233.957C365.575 234.052 365.711 234.242 365.711 234.527C365.711 234.948 365.494 235.233 365.059 235.382C364.978 235.409 364.509 235.423 363.654 235.423H362.351L362.29 235.769C362.127 236.746 362.046 237.554 362.046 238.192C362.046 238.898 362.107 239.529 362.229 240.086C362.351 240.642 362.48 241.077 362.616 241.389C362.751 241.701 362.819 241.891 362.819 241.959C362.819 242.19 362.724 242.407 362.534 242.611C362.344 242.814 362.1 242.916 361.801 242.916C361.652 242.916 361.53 242.896 361.435 242.855C361.34 242.814 361.231 242.651 361.109 242.366C360.987 242.081 360.878 241.674 360.783 241.145C360.77 241.022 360.763 240.724 360.763 240.249C360.763 239.584 360.824 238.871 360.946 238.111C361.068 237.351 361.19 236.726 361.313 236.237C361.435 235.749 361.503 235.477 361.516 235.423H359.521L359.5 235.504C359.5 235.545 359.371 236.081 359.113 237.113C358.856 238.145 358.564 239.237 358.238 240.391C357.912 241.545 357.702 242.203 357.607 242.366C357.457 242.746 357.166 242.937 356.731 242.937Z" fill="white"/>
</g>
<g clip-path="url(#clip2_805_20830)">
<path d="M651.325 236.37C650.959 236.37 650.667 236.248 650.45 236.003C650.232 235.759 650.124 235.46 650.124 235.107C650.124 234.144 650.483 233.309 651.203 232.603C651.922 231.897 652.818 231.544 653.891 231.544C655.126 231.544 656.158 231.924 656.986 232.684C657.814 233.444 658.235 234.429 658.249 235.637C658.249 236.221 658.113 236.777 657.841 237.307C657.57 237.836 657.244 238.298 656.864 238.691C656.484 239.085 655.941 239.587 655.235 240.198C654.746 240.619 654.067 241.244 653.199 242.072L651.997 243.212L653.545 243.233C655.676 243.233 656.81 243.199 656.945 243.131C657.041 243.104 657.203 242.499 657.434 241.318V241.257H658.249V241.318C658.235 241.359 658.147 241.977 657.984 243.171C657.821 244.366 657.719 244.991 657.679 245.045V245.106H650.124V244.719V244.475C650.124 244.38 650.164 244.278 650.246 244.169C650.327 244.061 650.531 243.823 650.857 243.457C651.25 243.022 651.59 242.642 651.875 242.316C651.997 242.18 652.228 241.929 652.567 241.563C652.907 241.196 653.138 240.945 653.26 240.809C653.382 240.673 653.579 240.449 653.85 240.137C654.122 239.825 654.312 239.594 654.42 239.445C654.529 239.296 654.685 239.092 654.889 238.834C655.092 238.576 655.235 238.359 655.316 238.182C655.398 238.006 655.5 237.809 655.622 237.592C655.744 237.375 655.832 237.157 655.887 236.94C655.941 236.723 655.988 236.519 656.029 236.329C656.07 236.139 656.09 235.915 656.09 235.657C656.09 234.802 655.859 234.062 655.398 233.438C654.936 232.813 654.278 232.501 653.423 232.501C652.975 232.501 652.581 232.616 652.242 232.847C651.902 233.078 651.665 233.302 651.529 233.519C651.393 233.736 651.325 233.865 651.325 233.906C651.325 233.92 651.359 233.926 651.427 233.926C651.671 233.926 651.922 234.021 652.18 234.211C652.438 234.402 652.567 234.714 652.567 235.148C652.567 235.488 652.459 235.773 652.242 236.003C652.024 236.234 651.719 236.356 651.325 236.37Z" fill="white"/>
<path d="M661.975 245.33C661.514 245.33 661.283 245.106 661.283 244.658V244.434L661.548 243.864C662.566 241.719 663.306 239.866 663.767 238.305L663.93 237.816H663.279C662.763 237.816 662.396 237.836 662.179 237.877C661.962 237.918 661.697 238.047 661.385 238.264C661.235 238.359 661.086 238.481 660.937 238.63C660.787 238.78 660.658 238.922 660.55 239.058C660.441 239.194 660.38 239.275 660.367 239.302C660.339 239.316 660.238 239.323 660.061 239.323C659.803 239.323 659.674 239.255 659.674 239.119C659.674 239.038 659.803 238.8 660.061 238.406C660.319 238.013 660.692 237.592 661.181 237.144C661.67 236.696 662.152 236.438 662.627 236.37C662.722 236.343 664.249 236.329 667.209 236.329C669.381 236.329 670.494 236.336 670.548 236.35C670.82 236.445 670.956 236.635 670.956 236.92C670.956 237.341 670.738 237.626 670.304 237.775C670.223 237.802 669.754 237.816 668.899 237.816H667.596L667.535 238.162C667.372 239.14 667.29 239.947 667.29 240.585C667.29 241.291 667.351 241.923 667.473 242.479C667.596 243.036 667.725 243.47 667.86 243.782C667.996 244.095 668.064 244.285 668.064 244.353C668.064 244.583 667.969 244.801 667.779 245.004C667.589 245.208 667.344 245.31 667.046 245.31C666.896 245.31 666.774 245.289 666.679 245.249C666.584 245.208 666.476 245.045 666.353 244.76C666.231 244.475 666.123 244.068 666.028 243.538C666.014 243.416 666.007 243.117 666.007 242.642C666.007 241.977 666.068 241.264 666.191 240.504C666.313 239.744 666.435 239.119 666.557 238.63C666.679 238.142 666.747 237.87 666.761 237.816H664.765L664.745 237.897C664.745 237.938 664.616 238.474 664.358 239.506C664.1 240.538 663.808 241.631 663.482 242.785C663.156 243.939 662.946 244.597 662.851 244.76C662.702 245.14 662.41 245.33 661.975 245.33Z" fill="white"/>
</g>
<g clip-path="url(#clip3_805_20830)">
<path d="M206.885 229.182C206.423 229.182 206.192 228.958 206.192 228.51V228.286L206.457 227.716C207.475 225.571 208.215 223.718 208.677 222.157L208.839 221.669H208.188C207.672 221.669 207.306 221.689 207.088 221.73C206.871 221.771 206.606 221.9 206.294 222.117C206.145 222.212 205.996 222.334 205.846 222.483C205.697 222.633 205.568 222.775 205.459 222.911C205.351 223.047 205.29 223.128 205.276 223.155C205.249 223.169 205.147 223.176 204.971 223.176C204.713 223.176 204.584 223.108 204.584 222.972C204.584 222.89 204.713 222.653 204.971 222.259C205.229 221.866 205.602 221.445 206.091 220.997C206.579 220.549 207.061 220.291 207.536 220.223C207.631 220.196 209.158 220.182 212.118 220.182C214.289 220.182 215.403 220.189 215.457 220.203C215.728 220.298 215.864 220.488 215.864 220.773C215.864 221.194 215.647 221.479 215.213 221.628C215.131 221.655 214.663 221.669 213.808 221.669H212.504L212.443 222.015C212.28 222.992 212.199 223.8 212.199 224.438C212.199 225.144 212.26 225.775 212.382 226.332C212.504 226.888 212.633 227.322 212.769 227.635C212.905 227.947 212.973 228.137 212.973 228.205C212.973 228.436 212.878 228.653 212.688 228.856C212.498 229.06 212.253 229.162 211.955 229.162C211.805 229.162 211.683 229.141 211.588 229.101C211.493 229.06 211.385 228.897 211.262 228.612C211.14 228.327 211.032 227.92 210.937 227.39C210.923 227.268 210.916 226.97 210.916 226.494C210.916 225.829 210.977 225.117 211.1 224.356C211.222 223.596 211.344 222.972 211.466 222.483C211.588 221.995 211.656 221.723 211.67 221.669H209.674L209.654 221.75C209.654 221.791 209.525 222.327 209.267 223.359C209.009 224.39 208.717 225.483 208.391 226.637C208.066 227.791 207.855 228.449 207.76 228.612C207.611 228.992 207.319 229.182 206.885 229.182Z" fill="white"/>
<path d="M207.129 247.955C206.763 247.955 206.471 247.833 206.254 247.589C206.036 247.345 205.928 247.046 205.928 246.693C205.928 245.729 206.287 244.894 207.007 244.189C207.726 243.483 208.622 243.13 209.695 243.13C210.93 243.13 211.961 243.51 212.79 244.27C213.618 245.03 214.038 246.014 214.052 247.222C214.052 247.806 213.916 248.363 213.645 248.892C213.373 249.421 213.047 249.883 212.667 250.277C212.287 250.67 211.744 251.172 211.038 251.783C210.55 252.204 209.871 252.829 209.002 253.657L207.801 254.797L209.348 254.817C211.48 254.817 212.613 254.783 212.749 254.715C212.844 254.688 213.007 254.084 213.237 252.903V252.842H214.052V252.903C214.038 252.944 213.95 253.562 213.787 254.756C213.624 255.951 213.523 256.575 213.482 256.629V256.69H205.928V256.304V256.059C205.928 255.964 205.968 255.862 206.05 255.754C206.131 255.645 206.335 255.408 206.661 255.041C207.054 254.607 207.394 254.227 207.679 253.901C207.801 253.765 208.032 253.514 208.371 253.148C208.71 252.781 208.941 252.53 209.063 252.394C209.186 252.258 209.382 252.034 209.654 251.722C209.925 251.41 210.115 251.179 210.224 251.03C210.333 250.881 210.489 250.677 210.692 250.419C210.896 250.161 211.038 249.944 211.12 249.768C211.201 249.591 211.303 249.394 211.425 249.177C211.547 248.96 211.636 248.743 211.69 248.526C211.744 248.308 211.792 248.105 211.833 247.915C211.873 247.725 211.894 247.501 211.894 247.243C211.894 246.388 211.663 245.648 211.201 245.023C210.74 244.399 210.081 244.087 209.226 244.087C208.778 244.087 208.385 244.202 208.045 244.433C207.706 244.664 207.468 244.888 207.333 245.105C207.197 245.322 207.129 245.451 207.129 245.492C207.129 245.505 207.163 245.512 207.231 245.512C207.475 245.512 207.726 245.607 207.984 245.797C208.242 245.987 208.371 246.299 208.371 246.734C208.371 247.073 208.262 247.358 208.045 247.589C207.828 247.82 207.523 247.942 207.129 247.955Z" fill="white"/>
<path d="M217.839 238.243H202.161V237.021H217.839V238.243Z" fill="white"/>
</g>
<g clip-path="url(#clip4_805_20830)">
<path d="M501.693 221.914C501.327 221.914 501.041 221.799 500.838 221.568C500.634 221.337 500.526 221.039 500.512 220.672C500.512 219.926 500.838 219.261 501.489 218.677C502.141 218.093 502.928 217.802 503.851 217.802C504.326 217.802 504.625 217.808 504.747 217.822C505.751 217.985 506.518 218.345 507.048 218.901C507.577 219.458 507.849 220.062 507.862 220.713C507.862 221.419 507.631 222.104 507.17 222.769C506.708 223.435 506.07 223.916 505.256 224.215L505.195 224.256C505.195 224.269 505.256 224.29 505.378 224.317C505.5 224.344 505.697 224.405 505.969 224.5C506.24 224.595 506.498 224.738 506.742 224.928C507.855 225.647 508.412 226.597 508.412 227.778C508.412 228.85 507.991 229.787 507.15 230.588C506.308 231.389 505.242 231.789 503.953 231.789C502.867 231.789 501.931 231.497 501.143 230.914C500.356 230.33 499.962 229.59 499.962 228.694C499.962 228.314 500.085 228.009 500.329 227.778C500.573 227.547 500.879 227.425 501.245 227.412C501.625 227.412 501.937 227.534 502.182 227.778C502.426 228.022 502.548 228.328 502.548 228.694C502.548 228.844 502.528 228.979 502.487 229.102C502.446 229.224 502.399 229.332 502.345 229.427C502.29 229.522 502.216 229.604 502.121 229.672C502.026 229.739 501.944 229.794 501.876 229.834C501.808 229.875 501.741 229.902 501.673 229.916C501.605 229.929 501.55 229.95 501.51 229.977L501.428 229.997C502.121 230.608 502.962 230.914 503.953 230.914C504.7 230.914 505.263 230.554 505.643 229.834C505.874 229.387 505.989 228.701 505.989 227.778V227.371C505.989 226.081 505.555 225.219 504.686 224.785C504.482 224.704 504.068 224.656 503.444 224.643L502.589 224.622L502.528 224.582C502.501 224.541 502.487 224.432 502.487 224.256C502.487 224.011 502.541 223.889 502.65 223.889C503.03 223.889 503.424 223.855 503.831 223.787C504.292 223.72 504.713 223.435 505.093 222.932C505.473 222.43 505.663 221.67 505.663 220.652V220.489C505.663 219.715 505.426 219.179 504.951 218.881C504.652 218.691 504.333 218.596 503.994 218.596C503.559 218.596 503.159 218.67 502.792 218.82C502.426 218.969 502.168 219.125 502.019 219.288C501.869 219.451 501.795 219.532 501.795 219.532H501.856C501.897 219.546 501.951 219.559 502.019 219.573C502.087 219.586 502.155 219.62 502.222 219.675C502.29 219.729 502.372 219.777 502.467 219.817C502.562 219.858 502.63 219.933 502.67 220.041C502.711 220.15 502.765 220.252 502.833 220.347C502.901 220.442 502.921 220.577 502.894 220.754C502.894 221.052 502.799 221.317 502.609 221.548C502.419 221.779 502.114 221.901 501.693 221.914Z" fill="white"/>
<path d="M511.975 231.565C511.513 231.565 511.283 231.341 511.283 230.893V230.669L511.547 230.099C512.565 227.954 513.305 226.102 513.767 224.541L513.93 224.052H513.278C512.762 224.052 512.396 224.072 512.179 224.113C511.961 224.154 511.697 224.283 511.384 224.5C511.235 224.595 511.086 224.717 510.937 224.866C510.787 225.016 510.658 225.158 510.55 225.294C510.441 225.43 510.38 225.511 510.366 225.538C510.339 225.552 510.238 225.559 510.061 225.559C509.803 225.559 509.674 225.491 509.674 225.355C509.674 225.274 509.803 225.036 510.061 224.642C510.319 224.249 510.692 223.828 511.181 223.38C511.67 222.932 512.151 222.674 512.626 222.606C512.721 222.579 514.248 222.566 517.208 222.566C519.379 222.566 520.492 222.572 520.547 222.586C520.818 222.681 520.954 222.871 520.954 223.156C520.954 223.577 520.737 223.862 520.302 224.011C520.221 224.038 519.753 224.052 518.897 224.052H517.594L517.533 224.398C517.37 225.375 517.289 226.183 517.289 226.821C517.289 227.527 517.35 228.158 517.472 228.715C517.594 229.271 517.723 229.705 517.859 230.018C517.995 230.33 518.063 230.52 518.063 230.588C518.063 230.818 517.968 231.036 517.778 231.239C517.588 231.443 517.343 231.545 517.045 231.545C516.895 231.545 516.773 231.524 516.678 231.484C516.583 231.443 516.475 231.28 516.352 230.995C516.23 230.71 516.122 230.303 516.027 229.773C516.013 229.651 516.006 229.352 516.006 228.877C516.006 228.212 516.067 227.5 516.19 226.74C516.312 225.979 516.434 225.355 516.556 224.866C516.678 224.378 516.746 224.106 516.76 224.052H514.764L514.744 224.133C514.744 224.174 514.615 224.71 514.357 225.742C514.099 226.773 513.807 227.866 513.482 229.02C513.156 230.174 512.945 230.832 512.85 230.995C512.701 231.375 512.409 231.565 511.975 231.565Z" fill="white"/>
<path d="M507.129 250.337C506.763 250.337 506.471 250.215 506.254 249.971C506.037 249.726 505.928 249.428 505.928 249.075C505.928 248.111 506.288 247.276 507.007 246.571C507.726 245.865 508.622 245.512 509.695 245.512C510.93 245.512 511.961 245.892 512.789 246.652C513.617 247.412 514.038 248.396 514.052 249.604C514.052 250.188 513.916 250.744 513.644 251.274C513.373 251.803 513.047 252.265 512.667 252.658C512.287 253.052 511.744 253.554 511.038 254.165C510.55 254.586 509.871 255.21 509.002 256.038L507.801 257.178L509.348 257.199C511.479 257.199 512.613 257.165 512.749 257.097C512.844 257.07 513.007 256.466 513.237 255.285V255.224H514.052V255.285C514.038 255.325 513.95 255.943 513.787 257.138C513.624 258.332 513.522 258.956 513.482 259.011V259.072H505.928V258.685V258.441C505.928 258.346 505.969 258.244 506.05 258.135C506.132 258.027 506.335 257.789 506.661 257.423C507.055 256.988 507.394 256.608 507.679 256.282C507.801 256.147 508.032 255.896 508.371 255.529C508.711 255.163 508.941 254.911 509.063 254.776C509.186 254.64 509.382 254.416 509.654 254.104C509.925 253.792 510.115 253.561 510.224 253.412C510.333 253.262 510.489 253.059 510.692 252.801C510.896 252.543 511.038 252.326 511.12 252.149C511.201 251.973 511.303 251.776 511.425 251.559C511.547 251.342 511.636 251.124 511.69 250.907C511.744 250.69 511.792 250.487 511.832 250.297C511.873 250.106 511.893 249.883 511.893 249.625C511.893 248.769 511.663 248.03 511.201 247.405C510.74 246.781 510.081 246.469 509.226 246.469C508.778 246.469 508.385 246.584 508.045 246.815C507.706 247.046 507.469 247.27 507.333 247.487C507.197 247.704 507.129 247.833 507.129 247.874C507.129 247.887 507.163 247.894 507.231 247.894C507.475 247.894 507.726 247.989 507.984 248.179C508.242 248.369 508.371 248.681 508.371 249.116C508.371 249.455 508.263 249.74 508.045 249.971C507.828 250.201 507.523 250.324 507.129 250.337Z" fill="white"/>
<path d="M522.929 240.625H497.071V239.404H522.929V240.625Z" fill="white"/>
</g>
<path d="M56.92 233.237C57.6667 232.157 58.6867 231.617 59.98 231.617C60.9533 231.617 61.8067 231.95 62.54 232.617C62.9 232.963 63.2067 233.417 63.46 233.977C63.9533 235.083 64.2 236.603 64.2 238.537C64.2 240.603 63.9133 242.183 63.34 243.277C62.9667 244.05 62.42 244.61 61.7 244.957C61.14 245.237 60.5733 245.377 60 245.377C58.4667 245.377 57.3467 244.677 56.64 243.277C56.0667 242.183 55.78 240.603 55.78 238.537C55.78 237.297 55.86 236.277 56.02 235.477C56.1933 234.663 56.4933 233.917 56.92 233.237ZM61.42 232.997C61.0333 232.57 60.56 232.357 60 232.357C59.44 232.357 58.96 232.57 58.56 232.997C58.2667 233.303 58.0667 233.677 57.96 234.117C57.8533 234.557 57.7867 235.317 57.76 236.397C57.76 236.477 57.7533 236.737 57.74 237.177C57.74 237.617 57.74 237.983 57.74 238.277C57.74 239.557 57.7533 240.45 57.78 240.957C57.8333 241.89 57.9133 242.563 58.02 242.977C58.1267 243.377 58.3267 243.723 58.62 244.017C58.98 244.417 59.44 244.617 60 244.617C60.5467 244.617 61 244.417 61.36 244.017C61.6533 243.723 61.8533 243.377 61.96 242.977C62.0667 242.563 62.1467 241.89 62.2 240.957C62.2267 240.45 62.24 239.557 62.24 238.277C62.24 237.983 62.2333 237.617 62.22 237.177C62.22 236.737 62.22 236.477 62.22 236.397C62.1933 235.317 62.1267 234.557 62.02 234.117C61.9133 233.677 61.7133 233.303 61.42 232.997Z" fill="white"/>
<path d="M686.455 198.94C686.375 198.86 686.335 198.787 686.335 198.72C686.388 198.36 686.595 197.9 686.955 197.34C687.582 196.393 688.368 195.847 689.315 195.7C689.502 195.673 689.642 195.66 689.735 195.66C690.202 195.66 690.628 195.78 691.015 196.02C691.415 196.26 691.702 196.56 691.875 196.92C692.048 196.693 692.155 196.553 692.195 196.5C692.688 195.94 693.255 195.66 693.895 195.66C694.442 195.66 694.882 195.82 695.215 196.14C695.562 196.447 695.735 196.827 695.735 197.28C695.735 197.693 695.615 198.04 695.375 198.32C695.148 198.6 694.842 198.74 694.455 198.74C694.202 198.74 693.995 198.667 693.835 198.52C693.675 198.373 693.595 198.18 693.595 197.94C693.595 197.327 693.928 196.907 694.595 196.68C694.595 196.667 694.522 196.62 694.375 196.54C694.242 196.46 694.048 196.42 693.795 196.42C693.622 196.42 693.495 196.433 693.415 196.46C692.908 196.673 692.535 197.113 692.295 197.78C692.255 197.887 692.062 198.633 691.715 200.02C691.368 201.393 691.182 202.167 691.155 202.34C691.115 202.54 691.095 202.74 691.095 202.94C691.095 203.26 691.188 203.513 691.375 203.7C691.562 203.887 691.808 203.98 692.115 203.98C692.675 203.98 693.182 203.747 693.635 203.28C694.088 202.8 694.395 202.273 694.555 201.7C694.595 201.567 694.635 201.493 694.675 201.48C694.715 201.453 694.822 201.44 694.995 201.44C695.248 201.44 695.375 201.493 695.375 201.6C695.375 201.613 695.362 201.687 695.335 201.82C695.108 202.647 694.642 203.367 693.935 203.98C693.308 204.473 692.648 204.72 691.955 204.72C691.022 204.72 690.315 204.3 689.835 203.46C689.448 204.06 688.955 204.46 688.355 204.66C688.235 204.687 688.062 204.7 687.835 204.7C687.062 204.7 686.515 204.427 686.195 203.88C686.062 203.653 685.995 203.387 685.995 203.08C685.995 202.68 686.115 202.34 686.355 202.06C686.595 201.78 686.902 201.64 687.275 201.64C687.848 201.64 688.135 201.92 688.135 202.48C688.135 202.973 687.902 203.333 687.435 203.56C687.408 203.573 687.375 203.593 687.335 203.62C687.295 203.633 687.262 203.647 687.235 203.66C687.208 203.673 687.188 203.68 687.175 203.68L687.115 203.7C687.115 203.74 687.215 203.8 687.415 203.88C687.575 203.947 687.748 203.98 687.935 203.98C688.415 203.98 688.828 203.68 689.175 203.08C689.322 202.84 689.582 201.973 689.955 200.48C690.035 200.173 690.122 199.833 690.215 199.46C690.308 199.087 690.375 198.8 690.415 198.6C690.468 198.4 690.502 198.28 690.515 198.24C690.582 197.88 690.615 197.62 690.615 197.46C690.615 197.14 690.528 196.887 690.355 196.7C690.182 196.513 689.942 196.42 689.635 196.42C689.035 196.42 688.515 196.653 688.075 197.12C687.635 197.573 687.328 198.1 687.155 198.7C687.128 198.82 687.095 198.893 687.055 198.92C687.028 198.933 686.922 198.94 686.735 198.94H686.455Z" fill="white"/>
<path d="M64.24 24.3922C64.4267 24.3922 64.5867 24.4455 64.72 24.5522C64.8533 24.6455 64.92 24.7789 64.92 24.9522C64.92 25.1255 64.5933 26.5255 63.94 29.1522C63.2867 31.7789 62.9133 33.2189 62.82 33.4722C62.6067 34.1255 62.26 34.7255 61.78 35.2722C61.3133 35.8322 60.7667 36.2722 60.14 36.5922C59.42 36.9389 58.7467 37.1122 58.12 37.1122C57.1067 37.1122 56.42 36.7922 56.06 36.1522C55.9267 35.9655 55.86 35.6989 55.86 35.3522C55.86 34.8989 55.9867 34.5455 56.24 34.2922C56.52 34.0389 56.8133 33.9122 57.12 33.9122C57.7067 33.9122 58 34.1922 58 34.7522C58 35.2455 57.7667 35.6055 57.3 35.8322C57.2733 35.8455 57.24 35.8589 57.2 35.8722C57.16 35.8989 57.1267 35.9189 57.1 35.9322C57.0733 35.9455 57.0533 35.9522 57.04 35.9522L56.98 35.9722C57.02 36.0522 57.16 36.1389 57.4 36.2322C57.6133 36.3122 57.8267 36.3522 58.04 36.3522H58.2C58.4267 36.3522 58.6 36.3389 58.72 36.3122C59.2267 36.1655 59.7067 35.8255 60.16 35.2922C60.6133 34.7589 60.96 34.1189 61.2 33.3722C61.3467 32.9322 61.42 32.6722 61.42 32.5922C61.42 32.5789 61.4067 32.5855 61.38 32.6122C61.3533 32.6255 61.3133 32.6522 61.26 32.6922C60.7667 33.0522 60.22 33.2322 59.62 33.2322C58.94 33.2322 58.38 33.0722 57.94 32.7522C57.5 32.4322 57.2133 31.9722 57.08 31.3722C57.0667 31.2789 57.06 31.0722 57.06 30.7522C57.06 30.4322 57.0733 30.1855 57.1 30.0122C57.1933 29.4389 57.5 28.4589 58.02 27.0722C58.3133 26.2855 58.46 25.7389 58.46 25.4322C58.46 25.2455 58.44 25.1189 58.4 25.0522C58.3733 24.9722 58.3 24.9322 58.18 24.9322H58.08C57.7733 24.9322 57.48 25.0722 57.2 25.3522C56.7733 25.7789 56.4467 26.4189 56.22 27.2722C56.22 27.2855 56.2133 27.3122 56.2 27.3522C56.1867 27.3789 56.1733 27.3989 56.16 27.4122C56.16 27.4122 56.1533 27.4189 56.14 27.4322C56.1267 27.4455 56.1 27.4522 56.06 27.4522C56.0333 27.4522 56.0067 27.4522 55.98 27.4522C55.9533 27.4522 55.9 27.4522 55.82 27.4522H55.54C55.4333 27.3455 55.4133 27.1922 55.48 26.9922C55.76 26.0589 56.18 25.3322 56.74 24.8122C57.1933 24.3855 57.6667 24.1722 58.16 24.1722C58.72 24.1722 59.1667 24.3255 59.5 24.6322C59.8333 24.9389 60 25.3655 60 25.9122C59.9733 26.1655 59.9533 26.3055 59.94 26.3322C59.94 26.4122 59.84 26.6989 59.64 27.1922C59.0933 28.6722 58.7667 29.7589 58.66 30.4522C58.6467 30.5589 58.64 30.7122 58.64 30.9122C58.64 31.4189 58.72 31.8055 58.88 32.0722C59.04 32.3389 59.3333 32.4722 59.76 32.4722C60.0667 32.4722 60.3533 32.3922 60.62 32.2322C60.9 32.0722 61.1067 31.9189 61.24 31.7722C61.3867 31.6122 61.5667 31.3989 61.78 31.1322C61.78 31.1189 61.9 30.6189 62.14 29.6322C62.3933 28.6322 62.6533 27.6189 62.92 26.5922C63.1867 25.5655 63.34 25.0122 63.38 24.9322C63.5533 24.5722 63.84 24.3922 64.24 24.3922Z" fill="white"/>
<circle cx="60" cy="295.168" r="3.5" fill="white"/>
<circle cx="360" cy="104.183" r="3.5" fill="white"/>
<g clip-path="url(#clip5_805_20830)">
<path d="M198.5 77.7579C198.744 78.1109 199.09 78.2873 199.538 78.2873H199.579C199.959 78.2873 200.339 77.8801 200.719 77.0657C201.099 76.2512 201.452 75.1381 201.778 73.7265C202.104 72.3148 202.409 70.8963 202.694 69.471C202.979 68.0457 203.264 66.5051 203.549 64.8491C203.59 64.564 203.624 64.3536 203.651 64.2179C204.628 58.4489 205.687 53.1008 206.827 48.1734C207.968 43.246 208.796 40.0426 209.312 38.563C209.393 38.3187 209.461 38.1151 209.515 37.9522C209.569 37.7893 209.685 37.4907 209.861 37.0563C210.038 36.6219 210.221 36.2418 210.411 35.9161C210.601 35.5903 210.832 35.2577 211.103 34.9184C211.375 34.579 211.673 34.3076 211.999 34.1039C212.325 33.9003 212.671 33.8053 213.038 33.8189C213.798 33.8189 214.368 34.0564 214.748 34.5315C215.128 35.0066 215.345 35.5496 215.399 36.1604C215.399 36.4998 215.318 36.7712 215.155 36.9748C214.992 37.1785 214.836 37.3074 214.687 37.3617C214.538 37.416 214.388 37.4364 214.239 37.4228C213.954 37.4228 213.696 37.321 213.465 37.1174C213.234 36.9138 213.119 36.6355 213.119 36.2826C213.119 35.631 213.479 35.2442 214.198 35.122L214.137 35.0405C214.096 34.9998 214.042 34.9523 213.974 34.898C213.906 34.8437 213.852 34.803 213.811 34.7759C213.608 34.6401 213.384 34.5722 213.139 34.5722C212.949 34.5722 212.773 34.6537 212.61 34.8166C212.447 34.9795 212.23 35.3595 211.958 35.9568C211.687 36.554 211.422 37.3413 211.164 38.3187C210.906 39.296 210.587 40.6738 210.207 42.452C209.827 44.2301 209.447 46.3205 209.067 48.7231C208.266 53.2704 207.432 57.5666 206.563 61.6117C205.694 65.6567 205.015 68.5887 204.527 70.4076C204.038 72.2265 203.665 73.5296 203.407 74.3169C202.362 77.4797 201.072 79.061 199.538 79.061C198.995 79.061 198.5 78.8506 198.052 78.4298C197.604 78.0091 197.353 77.4322 197.299 76.6992C197.299 76.2241 197.427 75.8983 197.685 75.7218C197.943 75.5454 198.201 75.4571 198.459 75.4571C198.744 75.4571 199.002 75.5589 199.233 75.7626C199.464 75.9662 199.579 76.2444 199.579 76.5974C199.579 77.2489 199.219 77.6358 198.5 77.7579Z" fill="white"/>
<path d="M219.385 39.5337C219.058 39.5337 218.895 39.3753 218.895 39.0586V38.9003L219.082 38.4972C219.802 36.9809 220.325 35.671 220.651 34.5673L220.767 34.2219H220.306C219.941 34.2219 219.682 34.2362 219.529 34.265C219.375 34.2938 219.188 34.385 218.967 34.5385C218.862 34.6057 218.756 34.6921 218.65 34.7977C218.545 34.9032 218.454 35.004 218.377 35.1C218.3 35.1959 218.257 35.2535 218.247 35.2727C218.228 35.2823 218.156 35.2871 218.031 35.2871C217.849 35.2871 217.758 35.2391 217.758 35.1431C217.758 35.0856 217.849 34.9176 218.031 34.6393C218.214 34.361 218.478 34.0635 218.823 33.7468C219.169 33.4301 219.509 33.2478 219.845 33.1998C219.912 33.1806 220.992 33.171 223.084 33.171C224.62 33.171 225.407 33.1758 225.445 33.1854C225.637 33.2526 225.733 33.3869 225.733 33.5885C225.733 33.886 225.579 34.0875 225.272 34.1931C225.215 34.2123 224.884 34.2219 224.279 34.2219H223.358L223.315 34.4666C223.199 35.1575 223.142 35.7286 223.142 36.1796C223.142 36.6786 223.185 37.1249 223.271 37.5184C223.358 37.9118 223.449 38.2189 223.545 38.4397C223.641 38.6604 223.689 38.7947 223.689 38.8427C223.689 39.0059 223.622 39.1594 223.487 39.3034C223.353 39.4473 223.18 39.5193 222.969 39.5193C222.863 39.5193 222.777 39.5049 222.71 39.4761C222.643 39.4473 222.566 39.3322 222.48 39.1306C222.393 38.9291 222.316 38.6412 222.249 38.2669C222.24 38.1805 222.235 37.9694 222.235 37.6335C222.235 37.1633 222.278 36.6594 222.364 36.122C222.451 35.5846 222.537 35.1431 222.624 34.7977C222.71 34.4522 222.758 34.2602 222.767 34.2219H221.357L221.342 34.2794C221.342 34.3082 221.251 34.6873 221.069 35.4167C220.887 36.146 220.68 36.9186 220.45 37.7343C220.22 38.55 220.071 39.0155 220.004 39.1306C219.898 39.3993 219.692 39.5337 219.385 39.5337Z" fill="white"/>
<path d="M209.553 71.3607C210.091 70.5834 210.825 70.1947 211.756 70.1947C212.216 70.1947 212.677 70.3195 213.138 70.569C213.598 70.8185 213.973 71.26 214.26 71.8934C214.616 72.6899 214.793 73.7839 214.793 75.1755C214.793 76.663 214.587 77.8002 214.174 78.5871C213.982 78.9902 213.718 79.3117 213.382 79.5516C213.046 79.7915 212.754 79.9403 212.504 79.9979C212.255 80.0554 212.01 80.089 211.77 80.0986C211.521 80.0986 211.271 80.0698 211.022 80.0123C210.772 79.9547 210.479 79.8011 210.143 79.5516C209.808 79.3021 209.544 78.9806 209.352 78.5871C208.939 77.8002 208.733 76.663 208.733 75.1755C208.733 73.5056 209.006 72.234 209.553 71.3607ZM212.792 71.188C212.504 70.8809 212.164 70.7273 211.77 70.7273C211.367 70.7273 211.022 70.8809 210.734 71.188C210.494 71.4375 210.335 71.783 210.259 72.2244C210.182 72.6659 210.143 73.5872 210.143 74.9883C210.143 76.5046 210.182 77.5027 210.259 77.9825C210.335 78.4624 210.508 78.8414 210.777 79.1198C211.046 79.4077 211.377 79.5516 211.77 79.5516C212.154 79.5516 212.48 79.4077 212.749 79.1198C213.027 78.8319 213.2 78.4288 213.267 77.9106C213.334 77.3923 213.373 76.4183 213.382 74.9883C213.382 73.5968 213.344 72.6803 213.267 72.2388C213.19 71.7974 213.032 71.4471 212.792 71.188Z" fill="white"/>
<path d="M236.109 55.0963C236.109 54.5534 235.925 54.0851 235.559 53.6914C235.192 53.2978 234.663 53.101 233.971 53.101C233.482 53.101 233.061 53.1892 232.708 53.3657C232.301 53.6236 232.098 53.9765 232.098 54.4244C232.084 54.4923 232.084 54.5805 232.098 54.6891C232.111 54.7977 232.22 54.9606 232.423 55.1778C232.627 55.395 232.919 55.5646 233.299 55.6868C233.543 55.7547 233.842 55.8158 234.195 55.8701C234.548 55.9244 234.846 55.9854 235.091 56.0533C235.335 56.1212 235.552 56.2094 235.742 56.318C235.973 56.4266 236.197 56.5623 236.414 56.7252C236.631 56.8881 236.848 57.1664 237.066 57.56C237.283 57.9537 237.398 58.3745 237.412 58.8224C237.412 59.664 237.154 60.3563 236.638 60.8992C236.122 61.4422 235.287 61.7205 234.134 61.734H233.971C233.265 61.734 232.613 61.4897 232.016 61.001L231.853 61.1436L231.67 61.3268C231.589 61.4083 231.507 61.4829 231.426 61.5508L231.202 61.7544H231.039H230.957C230.917 61.7544 230.856 61.7137 230.774 61.6322V60.0237V58.8428C230.774 58.5577 230.788 58.388 230.815 58.3337C230.842 58.2795 230.91 58.2455 231.018 58.2319H231.202C231.365 58.2319 231.473 58.2591 231.527 58.3134C231.582 58.3677 231.616 58.4491 231.629 58.5577C231.643 58.6663 231.69 58.8496 231.772 59.1075C231.853 59.3654 231.982 59.6504 232.159 59.9626C232.634 60.6549 233.292 61.001 234.134 61.001C235.45 61.001 236.109 60.4717 236.109 59.4129C236.109 59.0192 235.986 58.7002 235.742 58.4559C235.471 58.1301 234.907 57.8858 234.052 57.7229C233.197 57.56 232.634 57.4039 232.362 57.2546C231.874 57.0239 231.487 56.7117 231.202 56.318C230.917 55.9244 230.774 55.5036 230.774 55.0556C230.774 54.5262 230.889 54.0783 231.12 53.7118C231.351 53.3453 231.643 53.0738 231.996 52.8974C232.349 52.7209 232.688 52.5987 233.014 52.5309C233.34 52.463 233.638 52.4291 233.91 52.4291H234.134C234.677 52.4291 235.152 52.5309 235.559 52.7345L235.864 52.8974L236.048 52.7548C236.183 52.6327 236.333 52.5173 236.496 52.4087H236.658H236.74C236.781 52.4087 236.842 52.4494 236.923 52.5309V55.2185L236.801 55.3407H236.231C236.149 55.2592 236.109 55.1778 236.109 55.0963Z" fill="#FFFB77"/>
<path d="M239.529 49.1304C239.529 48.7504 239.651 48.4517 239.896 48.2345C240.14 48.0174 240.439 47.9088 240.792 47.9088C241.104 47.9359 241.375 48.0513 241.606 48.2549C241.837 48.4585 241.952 48.7504 241.952 49.1304C241.952 49.5376 241.837 49.8431 241.606 50.0467C241.375 50.2503 241.09 50.3521 240.751 50.3521C240.412 50.3521 240.127 50.2503 239.896 50.0467C239.665 49.8431 239.543 49.5376 239.529 49.1304ZM243.154 61.5303C242.95 61.4896 242.244 61.4692 241.036 61.4692C240.887 61.4692 240.636 61.4692 240.283 61.4692C239.93 61.4692 239.59 61.4828 239.265 61.5099L238.817 61.5303H238.654V60.5937H238.98C239.36 60.5937 239.692 60.5733 239.977 60.5326C240.099 60.4783 240.174 60.4036 240.201 60.3086C240.228 60.2136 240.242 59.9285 240.242 59.4535V57.3563V55.5645C240.242 54.8587 240.228 54.4107 240.201 54.2207C240.174 54.0306 240.079 53.9017 239.916 53.8338C239.726 53.7388 239.407 53.6913 238.959 53.6913H238.735V53.223C238.735 52.9108 238.749 52.7547 238.776 52.7547L238.98 52.7343C239.115 52.7207 239.305 52.7072 239.55 52.6936C239.794 52.68 240.038 52.6665 240.283 52.6529C240.513 52.6393 240.758 52.6257 241.016 52.6122C241.274 52.5986 241.47 52.5782 241.606 52.5511C241.742 52.5239 241.817 52.5171 241.83 52.5307H241.891V60.2679C241.959 60.4036 242.04 60.4851 242.136 60.5122C242.231 60.5394 242.468 60.5665 242.848 60.5937H243.316V61.5303H243.154Z" fill="#FFFB77"/>
<path d="M244.62 60.5937H244.905C245.434 60.5937 245.753 60.4986 245.862 60.3086V60.1457C245.862 60.0236 245.862 59.8675 245.862 59.6774C245.862 59.4874 245.862 59.277 245.862 59.0462C245.862 58.8155 245.868 58.5508 245.882 58.2522C245.896 57.9535 245.896 57.6685 245.882 57.397C245.882 56.9762 245.882 56.5283 245.882 56.0532C245.882 55.5781 245.875 55.1776 245.862 54.8519V54.3836C245.821 54.1257 245.726 53.956 245.577 53.8745C245.427 53.7931 245.122 53.732 244.66 53.6913H244.294V53.223C244.294 52.9108 244.307 52.7547 244.334 52.7547L244.538 52.7343C244.674 52.7207 244.864 52.7072 245.108 52.6936C245.353 52.68 245.604 52.6665 245.862 52.6529C246.092 52.6393 246.337 52.6257 246.595 52.6122C246.852 52.5986 247.049 52.5782 247.185 52.5511C247.321 52.5239 247.395 52.5171 247.409 52.5307H247.47V53.3452C247.47 53.861 247.477 54.1189 247.49 54.1189C247.504 54.1189 247.538 54.0849 247.592 54.0171C247.647 53.9492 247.728 53.8474 247.837 53.7116C247.945 53.5759 248.074 53.4537 248.223 53.3452C248.373 53.2366 248.57 53.1076 248.814 52.9583C249.058 52.809 249.316 52.7004 249.588 52.6325C249.859 52.5646 250.205 52.5307 250.626 52.5307C252.173 52.585 253.035 53.3519 253.212 54.8315C253.225 54.9265 253.232 55.8699 253.232 57.6617V59.4127C253.232 59.9285 253.246 60.234 253.273 60.329C253.3 60.424 253.375 60.4919 253.497 60.5326C253.782 60.5733 254.115 60.5937 254.495 60.5937H254.82V61.5303H254.658L254.169 61.5099C253.857 61.4963 253.517 61.4896 253.151 61.4896C252.784 61.4896 252.526 61.4828 252.377 61.4692C250.979 61.4692 250.219 61.4896 250.097 61.5303H249.934V60.5937H250.26C251.088 60.5937 251.502 60.4851 251.502 60.2679C251.515 60.2407 251.522 59.3041 251.522 57.4581C251.508 55.6256 251.495 54.655 251.481 54.5465C251.4 54.1664 251.264 53.8813 251.074 53.6913C250.884 53.5013 250.721 53.3859 250.585 53.3452C250.45 53.3044 250.273 53.2909 250.056 53.3044C249.445 53.3044 248.909 53.5352 248.447 53.9967C248.081 54.3632 247.85 54.7365 247.755 55.1166C247.66 55.4966 247.606 56.06 247.592 56.8065V58.1096V59.3313C247.592 59.7385 247.599 60.01 247.613 60.1457C247.626 60.2815 247.647 60.3697 247.674 60.4104C247.701 60.4511 247.762 60.4919 247.857 60.5326C248.142 60.5733 248.475 60.5937 248.855 60.5937H249.18V61.5303H249.018L248.549 61.5099C248.223 61.4963 247.877 61.4896 247.511 61.4896C247.144 61.4896 246.886 61.4828 246.737 61.4692C245.339 61.4692 244.579 61.4896 244.457 61.5303H244.294V60.5937H244.62Z" fill="#FFFB77"/>
<path d="M257.019 56.4401C257.019 55.5035 257.087 54.6144 257.223 53.7728C257.359 52.9312 257.515 52.205 257.691 51.5942C257.868 50.9834 258.119 50.3861 258.445 49.8024C258.77 49.2187 259.028 48.764 259.218 48.4382C259.408 48.1125 259.693 47.7595 260.074 47.3795C260.454 46.9994 260.678 46.7686 260.745 46.6872C260.813 46.6057 260.983 46.4632 261.254 46.2596H261.519H261.601C261.791 46.2596 261.886 46.3207 261.886 46.4429C261.886 46.4836 261.77 46.6261 261.54 46.8704C261.309 47.1148 261.031 47.4745 260.705 47.9496C260.379 48.4247 260.046 49.0083 259.707 49.7006C259.368 50.3929 259.083 51.3295 258.852 52.5104C258.621 53.6914 258.506 55.0013 258.506 56.4401C258.506 57.8789 258.621 59.1821 258.852 60.3494C259.083 61.5168 259.361 62.4602 259.687 63.1796C260.012 63.899 260.345 64.4827 260.684 64.9306C261.024 65.3786 261.309 65.7383 261.54 66.0098C261.77 66.2813 261.886 66.4238 261.886 66.4374C261.886 66.5595 261.784 66.6206 261.58 66.6206H261.519H261.254L260.684 66.1319C259.408 64.9782 258.479 63.5393 257.895 61.8154C257.311 60.0915 257.019 58.2997 257.019 56.4401Z" fill="#FFFB77"/>
<path d="M264.085 55.6461C264.18 55.076 264.546 54.4176 265.184 53.6711C265.822 52.9245 266.609 52.5444 267.546 52.5309C268.021 52.5309 268.455 52.653 268.849 52.8974C269.243 53.1417 269.535 53.4471 269.725 53.8136C270.295 52.9584 270.98 52.5309 271.781 52.5309C272.283 52.5309 272.718 52.6802 273.084 52.9788C273.451 53.2774 273.641 53.6779 273.654 54.1801C273.654 54.5737 273.559 54.8927 273.369 55.1371C273.179 55.3814 272.996 55.5307 272.82 55.585C272.643 55.6393 272.487 55.6665 272.351 55.6665C272.093 55.6665 271.883 55.5918 271.72 55.4425C271.557 55.2932 271.476 55.0963 271.476 54.852C271.476 54.2276 271.815 53.8 272.494 53.5693C272.344 53.3928 272.073 53.3046 271.679 53.3046C271.503 53.3046 271.374 53.3182 271.292 53.3453C270.777 53.5625 270.397 54.0104 270.152 54.6891C269.338 57.689 268.931 59.44 268.931 59.9423C268.931 60.3223 269.039 60.5938 269.256 60.7567C269.474 60.9196 269.711 61.001 269.969 61.001C270.471 61.001 270.967 60.7771 271.455 60.3291C271.944 59.8812 272.277 59.3314 272.453 58.6799C272.494 58.5441 272.534 58.4695 272.575 58.4559C272.616 58.4423 272.725 58.4288 272.901 58.4152H272.982C273.186 58.4152 273.288 58.4695 273.288 58.5781C273.288 58.5917 273.274 58.6663 273.247 58.802C273.03 59.5758 272.609 60.2613 271.985 60.8585C271.36 61.4558 270.634 61.7544 269.806 61.7544C268.856 61.7544 268.137 61.3268 267.648 60.4717C267.091 61.3132 266.453 61.734 265.734 61.734H265.612C264.947 61.734 264.472 61.5576 264.186 61.2046C263.901 60.8517 263.752 60.4784 263.739 60.0848C263.739 59.6504 263.867 59.2975 264.125 59.026C264.383 58.7545 264.689 58.6188 265.042 58.6188C265.625 58.6188 265.917 58.9039 265.917 59.474C265.917 59.7454 265.836 59.983 265.673 60.1866C265.51 60.3902 265.354 60.5259 265.205 60.5938C265.055 60.6617 264.967 60.6956 264.94 60.6956L264.879 60.716C264.879 60.7296 264.919 60.7567 265.001 60.7974C265.082 60.8381 265.191 60.8857 265.327 60.94C265.462 60.9943 265.591 61.0146 265.714 61.001C266.202 61.001 266.623 60.6956 266.976 60.0848C267.098 59.8676 267.254 59.4061 267.444 58.7002C267.634 57.9944 267.824 57.2614 268.014 56.5013C268.204 55.7411 268.313 55.2932 268.34 55.1574C268.408 54.7909 268.442 54.5262 268.442 54.3634C268.442 53.9833 268.34 53.7118 268.137 53.5489C267.933 53.386 267.702 53.3046 267.444 53.3046C266.901 53.3046 266.392 53.5218 265.917 53.9561C265.442 54.3905 265.109 54.947 264.919 55.6257C264.892 55.7479 264.858 55.8158 264.818 55.8293C264.777 55.8429 264.668 55.8565 264.492 55.8701H264.207C264.125 55.7886 264.085 55.714 264.085 55.6461Z" fill="#FFFB77"/>
<path d="M275.894 46.28L275.975 46.2596C276.043 46.2596 276.111 46.2596 276.179 46.2596H276.423L276.994 46.7483C278.269 47.9021 279.199 49.3409 279.783 51.0648C280.367 52.7887 280.659 54.5805 280.659 56.4401C280.659 57.3631 280.591 58.2522 280.455 59.1074C280.319 59.9626 280.163 60.6888 279.987 61.286C279.81 61.8833 279.559 62.4805 279.233 63.0778C278.907 63.675 278.65 64.1298 278.46 64.442C278.269 64.7542 277.991 65.1003 277.625 65.4804C277.258 65.8605 277.041 66.0844 276.973 66.1523C276.905 66.2202 276.749 66.3491 276.505 66.5392C276.464 66.5799 276.437 66.607 276.423 66.6206H276.179C276.071 66.6206 275.996 66.6206 275.955 66.6206C275.914 66.6206 275.88 66.6002 275.853 66.5595C275.826 66.5188 275.806 66.4577 275.792 66.3763C275.806 66.3627 275.88 66.2745 276.016 66.1116C278.12 63.9262 279.172 60.7023 279.172 56.4401C279.172 52.1779 278.12 48.954 276.016 46.7686C275.88 46.6057 275.806 46.5175 275.792 46.5039C275.792 46.3953 275.826 46.3207 275.894 46.28Z" fill="#FFFB77"/>
<path d="M290.045 47.6237C290.059 47.6237 290.547 47.5898 291.511 47.5219C292.475 47.454 292.97 47.4133 292.997 47.3997C293.16 47.3997 293.242 47.454 293.242 47.5626C293.242 47.6576 292.746 49.7073 291.755 53.7117C290.764 57.716 290.255 59.7589 290.228 59.8403C290.201 59.9218 290.194 60.0236 290.208 60.1457C290.208 60.7158 290.398 61.0009 290.778 61.0009C290.9 60.9873 291.036 60.9262 291.185 60.8176C291.47 60.5462 291.748 59.8946 292.02 58.863C292.101 58.5915 292.169 58.449 292.224 58.4354C292.251 58.4218 292.319 58.415 292.427 58.415H292.509H292.59C292.794 58.415 292.895 58.4693 292.895 58.5779C292.895 58.6458 292.875 58.7544 292.834 58.9037C292.658 59.5824 292.454 60.1322 292.224 60.5529C291.993 60.9737 291.803 61.2452 291.653 61.3674C291.504 61.4896 291.314 61.5981 291.083 61.6932C290.975 61.7203 290.812 61.7339 290.595 61.7339C290.133 61.7339 289.746 61.6321 289.434 61.4285C289.122 61.2249 288.918 61.0145 288.823 60.7973L288.701 60.4919C288.688 60.4783 288.66 60.4851 288.62 60.5122C288.593 60.5394 288.565 60.5665 288.538 60.5937C287.737 61.3538 286.923 61.7339 286.095 61.7339C285.348 61.7339 284.69 61.4624 284.12 60.9194C283.55 60.3765 283.265 59.5145 283.265 58.3336C283.265 57.682 283.4 57.0169 283.672 56.3382C283.943 55.6595 284.269 55.0758 284.649 54.5872C285.287 53.8135 285.925 53.2773 286.563 52.9787C287.201 52.68 287.778 52.5307 288.294 52.5307C289.054 52.5307 289.624 52.8158 290.004 53.3859C290.072 53.4673 290.106 53.4945 290.106 53.4673C290.12 53.413 290.303 52.6732 290.656 51.248C291.009 49.8227 291.199 49.0693 291.226 48.9879C291.226 48.8114 291.178 48.7028 291.083 48.6621C290.988 48.6214 290.724 48.5875 290.289 48.5603H289.862C289.78 48.4789 289.74 48.4246 289.74 48.3974C289.74 48.3703 289.753 48.2413 289.78 48.0106C289.848 47.7527 289.936 47.6237 290.045 47.6237ZM289.76 54.8926C289.448 53.8202 288.939 53.2841 288.233 53.2841C287.758 53.2841 287.303 53.4945 286.869 53.9153C286.434 54.3361 286.095 54.8858 285.851 55.5645C285.457 56.6368 285.179 57.7499 285.016 58.9037C285.016 58.9444 285.016 59.0191 285.016 59.1277C285.016 59.2363 285.009 59.3177 284.995 59.372C284.995 59.9828 285.118 60.4036 285.362 60.6344C285.606 60.8652 285.898 60.9873 286.237 61.0009C286.97 61.0009 287.724 60.5122 288.498 59.5349L288.66 59.3109L289.76 54.8926Z" fill="white"/>
<path d="M294.239 55.6461C294.334 55.076 294.701 54.4176 295.339 53.6711C295.977 52.9245 296.764 52.5444 297.701 52.5309C298.176 52.5309 298.61 52.653 299.004 52.8974C299.397 53.1417 299.689 53.4471 299.879 53.8136C300.449 52.9584 301.135 52.5309 301.936 52.5309C302.438 52.5309 302.872 52.6802 303.239 52.9788C303.605 53.2774 303.795 53.6779 303.809 54.1801C303.809 54.5737 303.714 54.8927 303.524 55.1371C303.334 55.3814 303.151 55.5307 302.974 55.585C302.798 55.6393 302.642 55.6665 302.506 55.6665C302.248 55.6665 302.038 55.5918 301.875 55.4425C301.712 55.2932 301.63 55.0963 301.63 54.852C301.63 54.2276 301.97 53.8 302.648 53.5693C302.499 53.3928 302.228 53.3046 301.834 53.3046C301.658 53.3046 301.529 53.3182 301.447 53.3453C300.931 53.5625 300.551 54.0104 300.307 54.6891C299.492 57.689 299.085 59.44 299.085 59.9423C299.085 60.3223 299.194 60.5938 299.411 60.7567C299.628 60.9196 299.866 61.001 300.124 61.001C300.626 61.001 301.121 60.7771 301.61 60.3291C302.099 59.8812 302.431 59.3314 302.608 58.6799C302.648 58.5441 302.689 58.4695 302.73 58.4559C302.771 58.4423 302.879 58.4288 303.056 58.4152H303.137C303.341 58.4152 303.442 58.4695 303.442 58.5781C303.442 58.5917 303.429 58.6663 303.402 58.802C303.185 59.5758 302.764 60.2613 302.139 60.8585C301.515 61.4558 300.789 61.7544 299.961 61.7544C299.011 61.7544 298.291 61.3268 297.803 60.4717C297.246 61.3132 296.608 61.734 295.889 61.734H295.766C295.101 61.734 294.626 61.5576 294.341 61.2046C294.056 60.8517 293.907 60.4784 293.893 60.0848C293.893 59.6504 294.022 59.2975 294.28 59.026C294.538 58.7545 294.843 58.6188 295.196 58.6188C295.78 58.6188 296.072 58.9039 296.072 59.474C296.072 59.7454 295.99 59.983 295.827 60.1866C295.665 60.3902 295.508 60.5259 295.359 60.5938C295.21 60.6617 295.122 60.6956 295.094 60.6956L295.033 60.716C295.033 60.7296 295.074 60.7567 295.156 60.7974C295.237 60.8381 295.346 60.8857 295.481 60.94C295.617 60.9943 295.746 61.0146 295.868 61.001C296.357 61.001 296.778 60.6956 297.131 60.0848C297.253 59.8676 297.409 59.4061 297.599 58.7002C297.789 57.9944 297.979 57.2614 298.169 56.5013C298.359 55.7411 298.468 55.2932 298.495 55.1574C298.563 54.7909 298.597 54.5262 298.597 54.3634C298.597 53.9833 298.495 53.7118 298.291 53.5489C298.088 53.386 297.857 53.3046 297.599 53.3046C297.056 53.3046 296.547 53.5218 296.072 53.9561C295.597 54.3905 295.264 54.947 295.074 55.6257C295.047 55.7479 295.013 55.8158 294.972 55.8293C294.932 55.8429 294.823 55.8565 294.647 55.8701H294.361C294.28 55.7886 294.239 55.714 294.239 55.6461Z" fill="white"/>
<path d="M311.624 54.465C311.624 54.2885 311.719 54.1528 311.909 54.0578H324.879C325.082 54.1664 325.184 54.3021 325.184 54.465C325.184 54.6143 325.089 54.7433 324.899 54.8519L318.424 54.8722H311.949C311.732 54.8044 311.624 54.6686 311.624 54.465ZM311.624 58.415C311.624 58.2114 311.732 58.0757 311.949 58.0078H324.899C325.089 58.1436 325.184 58.2793 325.184 58.415C325.184 58.5915 325.082 58.7272 324.879 58.8223H311.909C311.719 58.7272 311.624 58.5915 311.624 58.415Z" fill="white"/>
<path d="M333.894 56.4401C333.894 55.5035 333.962 54.6144 334.098 53.7728C334.234 52.9312 334.39 52.205 334.566 51.5942C334.743 50.9834 334.994 50.3861 335.32 49.8024C335.645 49.2187 335.903 48.764 336.093 48.4382C336.283 48.1125 336.568 47.7595 336.949 47.3795C337.329 46.9994 337.553 46.7686 337.62 46.6872C337.688 46.6057 337.858 46.4632 338.129 46.2596H338.394H338.476C338.666 46.2596 338.761 46.3207 338.761 46.4429C338.761 46.4836 338.645 46.6261 338.415 46.8704C338.184 47.1148 337.906 47.4745 337.58 47.9496C337.254 48.4247 336.921 49.0083 336.582 49.7006C336.243 50.3929 335.958 51.3295 335.727 52.5104C335.496 53.6914 335.381 55.0013 335.381 56.4401C335.381 57.8789 335.496 59.1821 335.727 60.3494C335.958 61.5168 336.236 62.4602 336.562 63.1796C336.887 63.899 337.22 64.4827 337.559 64.9306C337.899 65.3786 338.184 65.7383 338.415 66.0098C338.645 66.2813 338.761 66.4238 338.761 66.4374C338.761 66.5595 338.659 66.6206 338.455 66.6206H338.394H338.129L337.559 66.1319C336.283 64.9782 335.354 63.5393 334.77 61.8154C334.186 60.0915 333.894 58.2997 333.894 56.4401Z" fill="white"/>
<path d="M341.611 56.7046C341.611 56.7046 341.611 56.6164 341.611 56.4399C341.611 56.2635 341.706 56.1277 341.896 56.0327H353.726C353.93 56.1413 354.031 56.2771 354.031 56.4399C354.031 56.6028 353.93 56.7386 353.726 56.8472H341.896C341.706 56.7521 341.611 56.6164 341.611 56.4399V56.7046Z" fill="white"/>
<path d="M366.667 55.3204C366.667 55.3204 366.525 55.3204 366.24 55.3204C365.955 55.3204 365.711 55.2186 365.507 55.015C365.303 54.8114 365.195 54.5535 365.181 54.2413C365.181 53.9291 365.283 53.6712 365.487 53.4676C365.554 53.3997 365.588 53.359 365.588 53.3454C365.588 53.3318 365.52 53.3183 365.385 53.3047C365.032 53.2504 364.699 53.2232 364.387 53.2232C363.722 53.2232 363.179 53.4404 362.758 53.8748C362.12 54.5128 361.801 55.5783 361.801 57.0715C361.801 58.1845 362.012 59.0601 362.432 59.698C362.989 60.5261 363.735 60.9401 364.672 60.9401C365.229 60.9401 365.677 60.7636 366.016 60.4107C366.355 60.0578 366.6 59.637 366.749 59.1483C366.776 59.0397 366.81 58.9718 366.851 58.9447C366.891 58.9175 367 58.904 367.176 58.904H367.462C367.543 58.9854 367.584 59.0465 367.584 59.0872C367.584 59.1415 367.557 59.2501 367.502 59.413C367.448 59.5759 367.339 59.7998 367.176 60.0849C367.014 60.37 366.817 60.6279 366.586 60.8586C366.355 61.0894 366.029 61.2998 365.609 61.4898C365.188 61.6798 364.72 61.7681 364.204 61.7545C363.036 61.7545 362.018 61.3201 361.15 60.4514C360.281 59.5827 359.84 58.49 359.826 57.1733C359.826 55.7616 360.267 54.6146 361.15 53.7323C362.032 52.85 363.057 52.4088 364.224 52.4088C365.392 52.4088 366.206 52.5921 366.667 52.9585C367.129 53.325 367.36 53.7594 367.36 54.2617C367.36 54.5739 367.244 54.825 367.014 55.015L366.667 55.3204Z" fill="white"/>
<path d="M368.744 57.1735C368.744 55.884 369.185 54.7709 370.068 53.8343C370.95 52.8977 372.016 52.4226 373.264 52.409C374.486 52.409 375.538 52.8706 376.42 53.7936C377.303 54.7166 377.751 55.8365 377.764 57.1531C377.764 58.4427 377.33 59.5286 376.461 60.4109C375.592 61.2932 374.527 61.7344 373.264 61.7344C371.948 61.7344 370.869 61.2796 370.027 60.3702C369.185 59.4607 368.758 58.3952 368.744 57.1735ZM373.264 60.9199C374.92 60.9199 375.748 59.8137 375.748 57.6011V56.9495V56.4405C375.748 56.1419 375.742 55.884 375.728 55.6668C375.715 55.4496 375.667 55.1917 375.586 54.8931C375.504 54.5945 375.396 54.3501 375.26 54.1601C375.124 53.97 374.914 53.78 374.629 53.59C374.344 53.3999 374.011 53.2642 373.631 53.1828C373.563 53.1692 373.454 53.1624 373.305 53.1624C372.898 53.1624 372.511 53.2438 372.145 53.4067C371.561 53.7054 371.181 54.1194 371.004 54.6487C370.828 55.1781 370.74 55.8025 370.74 56.522V56.9292C370.74 58.2323 370.869 59.1485 371.127 59.6779C371.561 60.5059 372.274 60.9199 373.264 60.9199Z" fill="white"/>
<path d="M384.361 55.0963C384.361 54.5534 384.178 54.0851 383.811 53.6914C383.445 53.2978 382.916 53.101 382.223 53.101C381.735 53.101 381.314 53.1892 380.961 53.3657C380.554 53.6236 380.35 53.9765 380.35 54.4244C380.336 54.4923 380.336 54.5805 380.35 54.6891C380.364 54.7977 380.472 54.9606 380.676 55.1778C380.879 55.395 381.171 55.5646 381.551 55.6868C381.796 55.7547 382.094 55.8158 382.447 55.8701C382.8 55.9244 383.099 55.9854 383.343 56.0533C383.587 56.1212 383.805 56.2094 383.995 56.318C384.225 56.4266 384.449 56.5623 384.667 56.7252C384.884 56.8881 385.101 57.1664 385.318 57.56C385.535 57.9537 385.651 58.3745 385.664 58.8224C385.664 59.664 385.406 60.3563 384.891 60.8992C384.375 61.4422 383.54 61.7205 382.386 61.734H382.223C381.517 61.734 380.866 61.4897 380.269 61.001L380.106 61.1436L379.922 61.3268C379.841 61.4083 379.76 61.4829 379.678 61.5508L379.454 61.7544H379.291H379.21C379.169 61.7544 379.108 61.7137 379.027 61.6322V60.0237V58.8428C379.027 58.5577 379.04 58.388 379.067 58.3337C379.094 58.2795 379.162 58.2455 379.271 58.2319H379.454C379.617 58.2319 379.726 58.2591 379.78 58.3134C379.834 58.3677 379.868 58.4491 379.882 58.5577C379.895 58.6663 379.943 58.8496 380.024 59.1075C380.106 59.3654 380.235 59.6504 380.411 59.9626C380.886 60.6549 381.545 61.001 382.386 61.001C383.703 61.001 384.361 60.4717 384.361 59.4129C384.361 59.0192 384.239 58.7002 383.995 58.4559C383.723 58.1301 383.16 57.8858 382.305 57.7229C381.45 57.56 380.886 57.4039 380.615 57.2546C380.126 57.0239 379.739 56.7117 379.454 56.318C379.169 55.9244 379.027 55.5036 379.027 55.0556C379.027 54.5262 379.142 54.0783 379.373 53.7118C379.603 53.3453 379.895 53.0738 380.248 52.8974C380.601 52.7209 380.941 52.5987 381.266 52.5309C381.592 52.463 381.891 52.4291 382.162 52.4291H382.386C382.929 52.4291 383.404 52.5309 383.811 52.7345L384.117 52.8974L384.3 52.7548C384.436 52.6327 384.585 52.5173 384.748 52.4087H384.911H384.992C385.033 52.4087 385.094 52.4494 385.176 52.5309V55.2185L385.053 55.3407H384.483C384.402 55.2592 384.361 55.1778 384.361 55.0963Z" fill="white"/>
<path d="M388.291 56.4401C388.291 55.5035 388.359 54.6144 388.494 53.7728C388.63 52.9312 388.786 52.205 388.963 51.5942C389.139 50.9834 389.39 50.3861 389.716 49.8024C390.042 49.2187 390.3 48.764 390.49 48.4382C390.68 48.1125 390.965 47.7595 391.345 47.3795C391.725 46.9994 391.949 46.7686 392.017 46.6872C392.085 46.6057 392.254 46.4632 392.526 46.2596H392.791H392.872C393.062 46.2596 393.157 46.3207 393.157 46.4429C393.157 46.4836 393.042 46.6261 392.811 46.8704C392.58 47.1148 392.302 47.4745 391.976 47.9496C391.65 48.4247 391.318 49.0083 390.979 49.7006C390.639 50.3929 390.354 51.3295 390.123 52.5104C389.893 53.6914 389.777 55.0013 389.777 56.4401C389.777 57.8789 389.893 59.1821 390.123 60.3494C390.354 61.5168 390.632 62.4602 390.958 63.1796C391.284 63.899 391.616 64.4827 391.956 64.9306C392.295 65.3786 392.58 65.7383 392.811 66.0098C393.042 66.2813 393.157 66.4238 393.157 66.4374C393.157 66.5595 393.055 66.6206 392.852 66.6206H392.791H392.526L391.956 66.1319C390.68 64.9782 389.75 63.5393 389.166 61.8154C388.583 60.0915 388.291 58.2997 388.291 56.4401Z" fill="white"/>
<path d="M396.985 61.7544C396.523 61.7544 396.293 61.5304 396.293 61.0825V60.8585L396.557 60.2884C397.575 58.1437 398.315 56.2909 398.777 54.7298L398.94 54.2412H398.288C397.772 54.2412 397.406 54.2615 397.189 54.3023C396.971 54.343 396.707 54.4719 396.395 54.6891C396.245 54.7841 396.096 54.9063 395.947 55.0556C395.797 55.2049 395.668 55.3475 395.56 55.4832C395.451 55.6189 395.39 55.7004 395.376 55.7275C395.349 55.7411 395.248 55.7479 395.071 55.7479C394.813 55.7479 394.684 55.68 394.684 55.5443C394.684 55.4628 394.813 55.2253 395.071 54.8317C395.329 54.438 395.702 54.0172 396.191 53.5693C396.68 53.1213 397.161 52.8634 397.637 52.7956C397.732 52.7684 399.259 52.7548 402.218 52.7548C404.39 52.7548 405.503 52.7616 405.557 52.7752C405.828 52.8702 405.964 53.0602 405.964 53.3453C405.964 53.7661 405.747 54.0511 405.313 54.2005C405.231 54.2276 404.763 54.2412 403.908 54.2412H402.605L402.544 54.5873C402.381 55.5646 402.299 56.3723 402.299 57.0103C402.299 57.7161 402.36 58.3473 402.482 58.9039C402.605 59.4604 402.734 59.8948 402.869 60.207C403.005 60.5192 403.073 60.7092 403.073 60.7771C403.073 61.0078 402.978 61.225 402.788 61.4286C402.598 61.6322 402.354 61.734 402.055 61.734C401.906 61.734 401.783 61.7137 401.688 61.673C401.593 61.6322 401.485 61.4693 401.363 61.1843C401.24 60.8992 401.132 60.492 401.037 59.9626C401.023 59.8405 401.016 59.5418 401.016 59.0667C401.016 58.4016 401.078 57.689 401.2 56.9288C401.322 56.1687 401.444 55.5443 401.566 55.0556C401.688 54.567 401.756 54.2955 401.77 54.2412H399.774L399.754 54.3226C399.754 54.3634 399.625 54.8995 399.367 55.9311C399.109 56.9628 398.817 58.0555 398.492 59.2093C398.166 60.3631 397.956 61.0214 397.861 61.1843C397.711 61.5644 397.419 61.7544 396.985 61.7544Z" fill="white"/>
<path d="M407.125 46.28L407.206 46.2596C407.274 46.2596 407.342 46.2596 407.41 46.2596H407.654L408.224 46.7483C409.5 47.9021 410.43 49.3409 411.014 51.0648C411.597 52.7887 411.889 54.5805 411.889 56.4401C411.889 57.3631 411.821 58.2522 411.686 59.1074C411.55 59.9626 411.394 60.6888 411.217 61.286C411.041 61.8833 410.79 62.4805 410.464 63.0778C410.138 63.675 409.88 64.1298 409.69 64.442C409.5 64.7542 409.222 65.1003 408.855 65.4804C408.489 65.8605 408.272 66.0844 408.204 66.1523C408.136 66.2202 407.98 66.3491 407.736 66.5392C407.695 66.5799 407.668 66.607 407.654 66.6206H407.41C407.301 66.6206 407.227 66.6206 407.186 66.6206C407.145 66.6206 407.111 66.6002 407.084 66.5595C407.057 66.5188 407.037 66.4577 407.023 66.3763C407.037 66.3627 407.111 66.2745 407.247 66.1116C409.351 63.9262 410.403 60.7023 410.403 56.4401C410.403 52.1779 409.351 48.954 407.247 46.7686C407.111 46.6057 407.037 46.5175 407.023 46.5039C407.023 46.3953 407.057 46.3207 407.125 46.28Z" fill="white"/>
<path d="M415.045 46.28L415.127 46.2596C415.195 46.2596 415.262 46.2596 415.33 46.2596H415.575L416.145 46.7483C417.421 47.9021 418.35 49.3409 418.934 51.0648C419.518 52.7887 419.81 54.5805 419.81 56.4401C419.81 57.3631 419.742 58.2522 419.606 59.1074C419.47 59.9626 419.314 60.6888 419.138 61.286C418.961 61.8833 418.71 62.4805 418.384 63.0778C418.059 63.675 417.801 64.1298 417.611 64.442C417.421 64.7542 417.142 65.1003 416.776 65.4804C416.409 65.8605 416.192 66.0844 416.124 66.1523C416.056 66.2202 415.9 66.3491 415.656 66.5392C415.615 66.5799 415.588 66.607 415.575 66.6206H415.33C415.222 66.6206 415.147 66.6206 415.106 66.6206C415.066 66.6206 415.032 66.6002 415.004 66.5595C414.977 66.5188 414.957 66.4577 414.943 66.3763C414.957 66.3627 415.032 66.2745 415.167 66.1116C417.271 63.9262 418.323 60.7023 418.323 56.4401C418.323 52.1779 417.271 48.954 415.167 46.7686C415.032 46.6057 414.957 46.5175 414.943 46.5039C414.943 46.3953 414.977 46.3207 415.045 46.28Z" fill="white"/>
<path d="M427.981 56.7046C427.981 56.7046 427.981 56.6164 427.981 56.4399C427.981 56.2635 428.076 56.1277 428.266 56.0327H440.095C440.299 56.1413 440.401 56.2771 440.401 56.4399C440.401 56.6028 440.299 56.7386 440.095 56.8472H428.266C428.076 56.7521 427.981 56.6164 427.981 56.4399V56.7046Z" fill="white"/>
<path d="M448.549 56.4401C448.549 55.5035 448.617 54.6144 448.753 53.7728C448.889 52.9312 449.045 52.205 449.221 51.5942C449.398 50.9834 449.649 50.3861 449.974 49.8024C450.3 49.2187 450.558 48.764 450.748 48.4382C450.938 48.1125 451.223 47.7595 451.603 47.3795C451.983 46.9994 452.207 46.7686 452.275 46.6872C452.343 46.6057 452.513 46.4632 452.784 46.2596H453.049H453.13C453.32 46.2596 453.416 46.3207 453.416 46.4429C453.416 46.4836 453.3 46.6261 453.069 46.8704C452.839 47.1148 452.56 47.4745 452.235 47.9496C451.909 48.4247 451.576 49.0083 451.237 49.7006C450.898 50.3929 450.612 51.3295 450.382 52.5104C450.151 53.6914 450.036 55.0013 450.036 56.4401C450.036 57.8789 450.151 59.1821 450.382 60.3494C450.612 61.5168 450.891 62.4602 451.217 63.1796C451.542 63.899 451.875 64.4827 452.214 64.9306C452.554 65.3786 452.839 65.7383 453.069 66.0098C453.3 66.2813 453.416 66.4238 453.416 66.4374C453.416 66.5595 453.314 66.6206 453.11 66.6206H453.049H452.784L452.214 66.1319C450.938 64.9782 450.008 63.5393 449.425 61.8154C448.841 60.0915 448.549 58.2997 448.549 56.4401Z" fill="white"/>
<path d="M456.266 56.7046C456.266 56.7046 456.266 56.6164 456.266 56.4399C456.266 56.2635 456.361 56.1277 456.551 56.0327H468.381C468.584 56.1413 468.686 56.2771 468.686 56.4399C468.686 56.6028 468.584 56.7386 468.381 56.8472H456.551C456.361 56.7521 456.266 56.6164 456.266 56.4399V56.7046Z" fill="white"/>
<path d="M481.324 55.3204C481.324 55.3204 481.182 55.3204 480.897 55.3204C480.612 55.3204 480.367 55.2186 480.164 55.015C479.96 54.8114 479.852 54.5535 479.838 54.2413C479.838 53.9291 479.94 53.6712 480.143 53.4676C480.211 53.3997 480.245 53.359 480.245 53.3454C480.245 53.3318 480.177 53.3183 480.042 53.3047C479.689 53.2504 479.356 53.2232 479.044 53.2232C478.379 53.2232 477.836 53.4404 477.415 53.8748C476.777 54.5128 476.458 55.5783 476.458 57.0715C476.458 58.1845 476.668 59.0601 477.089 59.698C477.646 60.5261 478.392 60.9401 479.329 60.9401C479.886 60.9401 480.333 60.7636 480.673 60.4107C481.012 60.0578 481.256 59.637 481.406 59.1483C481.433 59.0397 481.467 58.9718 481.508 58.9447C481.548 58.9175 481.657 58.904 481.833 58.904H482.118C482.2 58.9854 482.241 59.0465 482.241 59.0872C482.241 59.1415 482.213 59.2501 482.159 59.413C482.105 59.5759 481.996 59.7998 481.833 60.0849C481.67 60.37 481.474 60.6279 481.243 60.8586C481.012 61.0894 480.686 61.2998 480.266 61.4898C479.845 61.6798 479.376 61.7681 478.861 61.7545C477.693 61.7545 476.675 61.3201 475.807 60.4514C474.938 59.5827 474.497 58.49 474.483 57.1733C474.483 55.7616 474.924 54.6146 475.807 53.7323C476.689 52.85 477.714 52.4088 478.881 52.4088C480.048 52.4088 480.863 52.5921 481.324 52.9585C481.786 53.325 482.017 53.7594 482.017 54.2617C482.017 54.5739 481.901 54.825 481.67 55.015L481.324 55.3204Z" fill="white"/>
<path d="M483.401 57.1735C483.401 55.884 483.842 54.7709 484.725 53.8343C485.607 52.8977 486.673 52.4226 487.921 52.409C489.143 52.409 490.195 52.8706 491.077 53.7936C491.96 54.7166 492.408 55.8365 492.421 57.1531C492.421 58.4427 491.987 59.5286 491.118 60.4109C490.249 61.2932 489.184 61.7344 487.921 61.7344C486.605 61.7344 485.526 61.2796 484.684 60.3702C483.842 59.4607 483.415 58.3952 483.401 57.1735ZM487.921 60.9199C489.577 60.9199 490.405 59.8137 490.405 57.6011V56.9495V56.4405C490.405 56.1419 490.399 55.884 490.385 55.6668C490.371 55.4496 490.324 55.1917 490.242 54.8931C490.161 54.5945 490.052 54.3501 489.917 54.1601C489.781 53.97 489.571 53.78 489.285 53.59C489 53.3999 488.668 53.2642 488.288 53.1828C488.22 53.1692 488.111 53.1624 487.962 53.1624C487.555 53.1624 487.168 53.2438 486.801 53.4067C486.218 53.7054 485.838 54.1194 485.661 54.6487C485.485 55.1781 485.397 55.8025 485.397 56.522V56.9292C485.397 58.2323 485.526 59.1485 485.783 59.6779C486.218 60.5059 486.93 60.9199 487.921 60.9199Z" fill="white"/>
<path d="M499.018 55.0963C499.018 54.5534 498.835 54.0851 498.468 53.6914C498.102 53.2978 497.572 53.101 496.88 53.101C496.391 53.101 495.971 53.1892 495.618 53.3657C495.211 53.6236 495.007 53.9765 495.007 54.4244C494.993 54.4923 494.993 54.5805 495.007 54.6891C495.02 54.7977 495.129 54.9606 495.333 55.1778C495.536 55.395 495.828 55.5646 496.208 55.6868C496.453 55.7547 496.751 55.8158 497.104 55.8701C497.457 55.9244 497.756 55.9854 498 56.0533C498.244 56.1212 498.462 56.2094 498.652 56.318C498.882 56.4266 499.106 56.5623 499.323 56.7252C499.541 56.8881 499.758 57.1664 499.975 57.56C500.192 57.9537 500.308 58.3745 500.321 58.8224C500.321 59.664 500.063 60.3563 499.547 60.8992C499.032 61.4422 498.197 61.7205 497.043 61.734H496.88C496.174 61.734 495.523 61.4897 494.925 61.001L494.763 61.1436L494.579 61.3268C494.498 61.4083 494.416 61.4829 494.335 61.5508L494.111 61.7544H493.948H493.867C493.826 61.7544 493.765 61.7137 493.683 61.6322V60.0237V58.8428C493.683 58.5577 493.697 58.388 493.724 58.3337C493.751 58.2795 493.819 58.2455 493.928 58.2319H494.111C494.274 58.2319 494.383 58.2591 494.437 58.3134C494.491 58.3677 494.525 58.4491 494.539 58.5577C494.552 58.6663 494.6 58.8496 494.681 59.1075C494.763 59.3654 494.892 59.6504 495.068 59.9626C495.543 60.6549 496.201 61.001 497.043 61.001C498.36 61.001 499.018 60.4717 499.018 59.4129C499.018 59.0192 498.896 58.7002 498.652 58.4559C498.38 58.1301 497.817 57.8858 496.962 57.7229C496.106 57.56 495.543 57.4039 495.272 57.2546C494.783 57.0239 494.396 56.7117 494.111 56.318C493.826 55.9244 493.683 55.5036 493.683 55.0556C493.683 54.5262 493.799 54.0783 494.03 53.7118C494.26 53.3453 494.552 53.0738 494.905 52.8974C495.258 52.7209 495.597 52.5987 495.923 52.5309C496.249 52.463 496.548 52.4291 496.819 52.4291H497.043C497.586 52.4291 498.061 52.5309 498.468 52.7345L498.774 52.8974L498.957 52.7548C499.093 52.6327 499.242 52.5173 499.405 52.4087H499.568H499.649C499.69 52.4087 499.751 52.4494 499.832 52.5309V55.2185L499.71 55.3407H499.14C499.059 55.2592 499.018 55.1778 499.018 55.0963Z" fill="white"/>
<path d="M502.948 56.4401C502.948 55.5035 503.016 54.6144 503.151 53.7728C503.287 52.9312 503.443 52.205 503.62 51.5942C503.796 50.9834 504.047 50.3861 504.373 49.8024C504.699 49.2187 504.957 48.764 505.147 48.4382C505.337 48.1125 505.622 47.7595 506.002 47.3795C506.382 46.9994 506.606 46.7686 506.674 46.6872C506.742 46.6057 506.911 46.4632 507.183 46.2596H507.447H507.529C507.719 46.2596 507.814 46.3207 507.814 46.4429C507.814 46.4836 507.699 46.6261 507.468 46.8704C507.237 47.1148 506.959 47.4745 506.633 47.9496C506.307 48.4247 505.975 49.0083 505.635 49.7006C505.296 50.3929 505.011 51.3295 504.78 52.5104C504.549 53.6914 504.434 55.0013 504.434 56.4401C504.434 57.8789 504.549 59.1821 504.78 60.3494C505.011 61.5168 505.289 62.4602 505.615 63.1796C505.941 63.899 506.273 64.4827 506.613 64.9306C506.952 65.3786 507.237 65.7383 507.468 66.0098C507.699 66.2813 507.814 66.4238 507.814 66.4374C507.814 66.5595 507.712 66.6206 507.509 66.6206H507.447H507.183L506.613 66.1319C505.337 64.9782 504.407 63.5393 503.823 61.8154C503.24 60.0915 502.948 58.2997 502.948 56.4401Z" fill="white"/>
<path d="M510.909 49.6194C511.669 48.5199 512.707 47.9701 514.024 47.9701C514.676 47.9701 515.327 48.1466 515.979 48.4995C516.63 48.8525 517.16 49.4769 517.567 50.3727C518.069 51.4994 518.32 53.0468 518.32 55.0151C518.32 57.119 518.028 58.7275 517.445 59.8406C517.173 60.4107 516.8 60.8654 516.325 61.2048C515.85 61.5441 515.436 61.7545 515.083 61.836C514.73 61.9174 514.384 61.9649 514.044 61.9785C513.692 61.9785 513.339 61.9378 512.986 61.8563C512.633 61.7749 512.219 61.5577 511.744 61.2048C511.269 60.8519 510.895 60.3971 510.624 59.8406C510.04 58.7275 509.748 57.119 509.748 55.0151C509.748 52.6532 510.135 50.8546 510.909 49.6194ZM515.49 49.3751C515.083 48.9407 514.601 48.7235 514.044 48.7235C513.474 48.7235 512.986 48.9407 512.578 49.3751C512.239 49.728 512.015 50.2166 511.907 50.841C511.798 51.4655 511.744 52.7686 511.744 54.7504C511.744 56.8951 511.798 58.3067 511.907 58.9854C512.015 59.6641 512.259 60.2003 512.64 60.594C513.02 61.0012 513.488 61.2048 514.044 61.2048C514.587 61.2048 515.049 61.0012 515.429 60.594C515.823 60.1867 516.067 59.6166 516.162 58.8836C516.257 58.1506 516.311 56.7729 516.325 54.7504C516.325 52.7821 516.271 51.4858 516.162 50.8614C516.053 50.237 515.829 49.7416 515.49 49.3751Z" fill="white"/>
<path d="M520.356 46.28L520.438 46.2596C520.506 46.2596 520.574 46.2596 520.641 46.2596H520.886L521.456 46.7483C522.732 47.9021 523.662 49.3409 524.245 51.0648C524.829 52.7887 525.121 54.5805 525.121 56.4401C525.121 57.3631 525.053 58.2522 524.917 59.1074C524.781 59.9626 524.625 60.6888 524.449 61.286C524.272 61.8833 524.021 62.4805 523.696 63.0778C523.37 63.675 523.112 64.1298 522.922 64.442C522.732 64.7542 522.454 65.1003 522.087 65.4804C521.721 65.8605 521.503 66.0844 521.436 66.1523C521.368 66.2202 521.212 66.3491 520.967 66.5392C520.926 66.5799 520.899 66.607 520.886 66.6206H520.641C520.533 66.6206 520.458 66.6206 520.417 66.6206C520.377 66.6206 520.343 66.6002 520.316 66.5595C520.288 66.5188 520.268 66.4577 520.255 66.3763C520.268 66.3627 520.343 66.2745 520.479 66.1116C522.583 63.9262 523.634 60.7023 523.634 56.4401C523.634 52.1779 522.583 48.954 520.479 46.7686C520.343 46.6057 520.268 46.5175 520.255 46.5039C520.255 46.3953 520.288 46.3207 520.356 46.28Z" fill="white"/>
<path d="M528.277 46.28L528.358 46.2596C528.426 46.2596 528.494 46.2596 528.562 46.2596H528.806L529.376 46.7483C530.652 47.9021 531.582 49.3409 532.166 51.0648C532.749 52.7887 533.041 54.5805 533.041 56.4401C533.041 57.3631 532.973 58.2522 532.838 59.1074C532.702 59.9626 532.546 60.6888 532.369 61.286C532.193 61.8833 531.942 62.4805 531.616 63.0778C531.29 63.675 531.032 64.1298 530.842 64.442C530.652 64.7542 530.374 65.1003 530.007 65.4804C529.641 65.8605 529.424 66.0844 529.356 66.1523C529.288 66.2202 529.132 66.3491 528.888 66.5392C528.847 66.5799 528.82 66.607 528.806 66.6206H528.562C528.453 66.6206 528.379 66.6206 528.338 66.6206C528.297 66.6206 528.263 66.6002 528.236 66.5595C528.209 66.5188 528.189 66.4577 528.175 66.3763C528.189 66.3627 528.263 66.2745 528.399 66.1116C530.503 63.9262 531.555 60.7023 531.555 56.4401C531.555 52.1779 530.503 48.954 528.399 46.7686C528.263 46.6057 528.189 46.5175 528.175 46.5039C528.175 46.3953 528.209 46.3207 528.277 46.28Z" fill="white"/>
</g>
<g clip-path="url(#clip6_805_20830)">
<path d="M367 294.787C367 294.514 367.107 294.339 367.321 294.262C367.534 294.184 367.905 294.1 368.432 294.01C368.959 293.919 369.419 293.785 369.815 293.605C372.679 292.322 374.111 289.778 374.111 285.975V209.116C374.111 204.277 376.099 201.172 380.074 199.799C376.099 198.427 374.111 195.479 374.111 190.955V113.736C374.111 112.634 374.078 111.8 374.012 111.239C373.781 109.663 373.144 108.302 372.098 107.155C371.053 106.007 369.757 105.32 368.209 105.095C368.176 105.095 368.081 105.084 367.926 105.061C367.77 105.039 367.658 105.017 367.593 104.994C367.526 104.972 367.436 104.937 367.321 104.892C367.205 104.845 367.123 104.762 367.074 104.644C367.024 104.528 367 104.398 367 104.257C367 103.671 370.667 104.087 372.59 105.502C374.512 106.917 375.596 108.971 375.84 111.666C375.873 112.119 375.889 112.786 375.889 113.669V190.619C375.889 192.149 376.107 193.488 376.543 194.636C376.98 195.784 377.543 196.634 378.235 197.185C378.926 197.736 379.507 198.135 379.976 198.383C380.445 198.631 380.918 198.8 381.396 198.889C381.495 198.889 381.639 198.902 381.828 198.924C382.017 198.946 382.169 198.986 382.285 199.042C382.4 199.098 382.516 199.148 382.63 199.194C382.746 199.238 382.836 199.317 382.902 199.43C382.967 199.543 383.001 199.667 383.001 199.802C383.001 199.981 382.977 200.128 382.927 200.24C382.877 200.351 382.787 200.437 382.655 200.493C382.524 200.55 382.388 200.589 382.248 200.611C382.109 200.633 381.923 200.667 381.692 200.712C381.461 200.758 381.248 200.802 381.05 200.848C379.832 201.163 378.733 201.871 377.753 202.973C376.774 204.077 376.186 205.484 375.988 207.193C375.922 207.643 375.889 208.318 375.889 209.218V285.571C375.889 286.474 375.86 287.196 375.803 287.736C375.746 288.276 375.526 289.03 375.143 290C374.76 290.97 374.202 291.841 373.469 292.613C371.443 295.175 367 295.234 367 294.787Z" fill="white"/>
</g>
<defs>
<clipPath id="clip0_805_20830">
<rect width="600" height="286.875" fill="white" transform="translate(60 56.436)"/>
</clipPath>
<clipPath id="clip1_805_20830">
<rect width="11.61" height="9" fill="white" transform="translate(354.042 233.937)"/>
</clipPath>
<clipPath id="clip2_805_20830">
<rect width="21.789" height="13.788" fill="white" transform="translate(649.106 231.543)"/>
</clipPath>
<clipPath id="clip3_805_20830">
<rect width="20.565" height="36.513" fill="white" transform="translate(199.717 220.18)"/>
</clipPath>
<clipPath id="clip4_805_20830">
<rect width="30.744" height="41.274" fill="white" transform="translate(494.628 217.8)"/>
</clipPath>
<clipPath id="clip5_805_20830">
<rect width="338.814" height="46.926" fill="white" transform="translate(196.17 33.1714)"/>
</clipPath>
<clipPath id="clip6_805_20830">
<rect width="16" height="191" fill="white" transform="translate(367 104)"/>
</clipPath>
</defs>
</svg>
