<svg width="720" height="400" viewBox="0 0 720 400" fill="none" xmlns="http://www.w3.org/2000/svg">
<rect width="720" height="400" fill="black"/>
<g clip-path="url(#clip0_799_19613)">
<path d="M660 56.436H60V342.914H660V56.436Z" fill="black"/>
<path d="M60 65.9854H660" stroke="#181818" stroke-miterlimit="407.437"/>
<path d="M60 75.5347H660" stroke="#181818" stroke-miterlimit="407.437"/>
<path d="M60 85.084H660" stroke="#181818" stroke-miterlimit="407.437"/>
<path d="M60 94.6338H660" stroke="#181818" stroke-miterlimit="407.437"/>
<path d="M60 113.731H660" stroke="#181818" stroke-miterlimit="407.437"/>
<path d="M60 123.281H660" stroke="#181818" stroke-miterlimit="407.437"/>
<path d="M60 132.83H660" stroke="#181818" stroke-miterlimit="407.437"/>
<path d="M60 142.379H660" stroke="#181818" stroke-miterlimit="407.437"/>
<path d="M60 161.478H660" stroke="#181818" stroke-miterlimit="407.437"/>
<path d="M60 171.027H660" stroke="#181818" stroke-miterlimit="407.437"/>
<path d="M60 180.577H660" stroke="#181818" stroke-miterlimit="407.437"/>
<path d="M60 190.126H660" stroke="#181818" stroke-miterlimit="407.437"/>
<path d="M60 209.225H660" stroke="#181818" stroke-miterlimit="407.437"/>
<path d="M60 218.774H660" stroke="#181818" stroke-miterlimit="407.437"/>
<path d="M60 228.323H660" stroke="#181818" stroke-miterlimit="407.437"/>
<path d="M60 237.872H660" stroke="#181818" stroke-miterlimit="407.437"/>
<path d="M60 256.971H660" stroke="#181818" stroke-miterlimit="407.437"/>
<path d="M60 266.521H660" stroke="#181818" stroke-miterlimit="407.437"/>
<path d="M60 276.07H660" stroke="#181818" stroke-miterlimit="407.437"/>
<path d="M60 285.619H660" stroke="#181818" stroke-miterlimit="407.437"/>
<path d="M60 304.718H660" stroke="#181818" stroke-miterlimit="407.437"/>
<path d="M60 314.267H660" stroke="#181818" stroke-miterlimit="407.437"/>
<path d="M60 323.816H660" stroke="#181818" stroke-miterlimit="407.437"/>
<path d="M60 333.366H660" stroke="#181818" stroke-miterlimit="407.437"/>
<path d="M69.5494 56.436V342.914" stroke="#181818" stroke-miterlimit="407.437"/>
<path d="M79.0988 56.436V342.914" stroke="#181818" stroke-miterlimit="407.437"/>
<path d="M88.6481 56.436V342.914" stroke="#181818" stroke-miterlimit="407.437"/>
<path d="M98.1975 56.436V342.914" stroke="#181818" stroke-miterlimit="407.437"/>
<path d="M117.295 56.436V342.914" stroke="#181818" stroke-miterlimit="407.437"/>
<path d="M126.845 56.436V342.914" stroke="#181818" stroke-miterlimit="407.437"/>
<path d="M136.394 56.436V342.914" stroke="#181818" stroke-miterlimit="407.437"/>
<path d="M145.943 56.436V342.914" stroke="#181818" stroke-miterlimit="407.437"/>
<path d="M165.042 56.436V342.914" stroke="#181818" stroke-miterlimit="407.437"/>
<path d="M174.592 56.436V342.914" stroke="#181818" stroke-miterlimit="407.437"/>
<path d="M184.141 56.436V342.914" stroke="#181818" stroke-miterlimit="407.437"/>
<path d="M193.69 56.436V342.914" stroke="#181818" stroke-miterlimit="407.437"/>
<path d="M212.789 56.436V342.914" stroke="#181818" stroke-miterlimit="407.437"/>
<path d="M222.338 56.436V342.914" stroke="#181818" stroke-miterlimit="407.437"/>
<path d="M231.887 56.436V342.914" stroke="#181818" stroke-miterlimit="407.437"/>
<path d="M241.436 56.436V342.914" stroke="#181818" stroke-miterlimit="407.437"/>
<path d="M260.535 56.436V342.914" stroke="#181818" stroke-miterlimit="407.437"/>
<path d="M270.084 56.436V342.914" stroke="#181818" stroke-miterlimit="407.437"/>
<path d="M279.634 56.436V342.914" stroke="#181818" stroke-miterlimit="407.437"/>
<path d="M289.183 56.436V342.914" stroke="#181818" stroke-miterlimit="407.437"/>
<path d="M308.282 56.436V342.914" stroke="#181818" stroke-miterlimit="407.437"/>
<path d="M317.831 56.436V342.914" stroke="#181818" stroke-miterlimit="407.437"/>
<path d="M327.381 56.436V342.914" stroke="#181818" stroke-miterlimit="407.437"/>
<path d="M336.93 56.436V342.914" stroke="#181818" stroke-miterlimit="407.437"/>
<path d="M356.028 56.436V342.914" stroke="#181818" stroke-miterlimit="407.437"/>
<path d="M365.577 56.436V342.914" stroke="#181818" stroke-miterlimit="407.437"/>
<path d="M375.127 56.436V342.914" stroke="#181818" stroke-miterlimit="407.437"/>
<path d="M384.676 56.436V342.914" stroke="#181818" stroke-miterlimit="407.437"/>
<path d="M403.775 56.436V342.914" stroke="#181818" stroke-miterlimit="407.437"/>
<path d="M413.324 56.436V342.914" stroke="#181818" stroke-miterlimit="407.437"/>
<path d="M422.873 56.436V342.914" stroke="#181818" stroke-miterlimit="407.437"/>
<path d="M432.423 56.436V342.914" stroke="#181818" stroke-miterlimit="407.437"/>
<path d="M451.522 56.436V342.914" stroke="#181818" stroke-miterlimit="407.437"/>
<path d="M461.07 56.436V342.914" stroke="#181818" stroke-miterlimit="407.437"/>
<path d="M470.619 56.436V342.914" stroke="#181818" stroke-miterlimit="407.437"/>
<path d="M480.169 56.436V342.914" stroke="#181818" stroke-miterlimit="407.437"/>
<path d="M499.267 56.436V342.914" stroke="#181818" stroke-miterlimit="407.437"/>
<path d="M508.817 56.436V342.914" stroke="#181818" stroke-miterlimit="407.437"/>
<path d="M518.366 56.436V342.914" stroke="#181818" stroke-miterlimit="407.437"/>
<path d="M527.916 56.436V342.914" stroke="#181818" stroke-miterlimit="407.437"/>
<path d="M547.014 56.436V342.914" stroke="#181818" stroke-miterlimit="407.437"/>
<path d="M556.564 56.436V342.914" stroke="#181818" stroke-miterlimit="407.437"/>
<path d="M566.113 56.436V342.914" stroke="#181818" stroke-miterlimit="407.437"/>
<path d="M575.662 56.436V342.914" stroke="#181818" stroke-miterlimit="407.437"/>
<path d="M594.76 56.436V342.914" stroke="#181818" stroke-miterlimit="407.437"/>
<path d="M604.31 56.436V342.914" stroke="#181818" stroke-miterlimit="407.437"/>
<path d="M613.859 56.436V342.914" stroke="#181818" stroke-miterlimit="407.437"/>
<path d="M623.408 56.436V342.914" stroke="#181818" stroke-miterlimit="407.437"/>
<path d="M642.507 56.436V342.914" stroke="#181818" stroke-miterlimit="407.437"/>
<path d="M652.057 56.436V342.914" stroke="#181818" stroke-miterlimit="407.437"/>
<path d="M60 56.436H660" stroke="#262626" stroke-miterlimit="407.437"/>
<path d="M60 151.929H660" stroke="#262626" stroke-miterlimit="407.437"/>
<path d="M60 247.422H660" stroke="#262626" stroke-miterlimit="407.437"/>
<path d="M60 342.915H660" stroke="#262626" stroke-miterlimit="407.437"/>
<path d="M107.747 56.436V342.914" stroke="#262626" stroke-miterlimit="407.437"/>
<path d="M203.24 56.436V342.914" stroke="#262626" stroke-miterlimit="407.437"/>
<path d="M298.732 56.436V342.914" stroke="#262626" stroke-miterlimit="407.437"/>
<path d="M394.225 56.436V342.914" stroke="#262626" stroke-miterlimit="407.437"/>
<path d="M489.718 56.436V342.914" stroke="#262626" stroke-miterlimit="407.437"/>
<path d="M585.211 56.436V342.914" stroke="#262626" stroke-miterlimit="407.437"/>
<path d="M60 104.183H660" stroke="#404040" stroke-miterlimit="407.437"/>
<path d="M60 199.675H660" stroke="#404040" stroke-miterlimit="407.437"/>
<path d="M60 295.168H660" stroke="#404040" stroke-miterlimit="407.437"/>
<path d="M60 56.436V342.914" stroke="#404040" stroke-miterlimit="407.437"/>
<path d="M155.493 56.436V342.914" stroke="#404040" stroke-miterlimit="407.437"/>
<path d="M250.986 56.436V342.914" stroke="#404040" stroke-miterlimit="407.437"/>
<path d="M346.478 56.436V342.914" stroke="#404040" stroke-miterlimit="407.437"/>
<path d="M441.972 56.436V342.914" stroke="#404040" stroke-miterlimit="407.437"/>
<path d="M537.465 56.436V342.914" stroke="#404040" stroke-miterlimit="407.437"/>
<path d="M632.958 56.436V342.914" stroke="#404040" stroke-miterlimit="407.437"/>
<path d="M60 199.675L60.8334 200.509L61.6669 201.342L62.5003 202.175L63.3338 203.008L64.1672 203.84L65.0006 204.673L65.8341 205.505L66.6675 206.336L67.5009 207.167L68.3344 207.997L69.1678 208.827L70.0013 209.656L70.8347 210.485L71.6681 211.312L72.5016 212.139L73.335 212.965L74.1684 213.79L75.0019 214.614L75.8353 215.436L76.6688 216.258L77.5022 217.078L78.3356 217.896L79.1691 218.714L80.0025 219.53L80.8359 220.344L81.6694 221.157L82.5028 221.968L83.3363 222.777L84.1697 223.585L85.0031 224.391L85.8366 225.196L86.67 225.998L87.5034 226.798L88.3369 227.596L89.1703 228.392L90.0038 229.186L90.8372 229.977L91.6706 230.766L92.5041 231.553L93.3375 232.338L94.1709 233.12L95.0044 233.899L95.8378 234.675L96.6712 235.449L97.5047 236.221L98.3381 236.99L99.1716 237.755L100.005 238.519L100.838 239.278L101.672 240.035L102.505 240.788L103.339 241.539L104.172 242.286L105.006 243.031L105.839 243.771L106.673 244.509L107.506 245.243L108.339 245.974L109.173 246.701L110.006 247.425L110.84 248.145L111.673 248.861L112.507 249.574L113.34 250.282L114.173 250.987L115.007 251.689L115.84 252.385L116.674 253.078L117.507 253.767L118.341 254.451L119.174 255.132L120.008 255.808L120.841 256.48L121.674 257.148L122.508 257.811L123.341 258.47L124.175 259.125L125.008 259.775L125.842 260.42L126.675 261.06L127.508 261.695L128.342 262.326L129.175 262.953L130.009 263.574L130.842 264.191L131.676 264.803L132.509 265.41L133.342 266.012L134.176 266.609L135.009 267.2L135.843 267.787L136.676 268.369L137.51 268.945L138.343 269.516L139.177 270.081L140.01 270.642L140.843 271.197L141.677 271.746L142.51 272.29L143.344 272.828L144.177 273.361L145.011 273.888L145.844 274.409L146.677 274.925L147.511 275.435L148.344 275.939L149.178 276.438L150.011 276.931L150.845 277.417L151.678 277.898L152.512 278.374L153.345 278.842L154.178 279.305L155.012 279.762L155.845 280.213L156.679 280.657L157.512 281.096L158.346 281.528L159.179 281.954L160.012 282.374L160.846 282.787L161.679 283.194L162.513 283.595L163.346 283.99L164.18 284.378L165.013 284.76L165.847 285.135L166.68 285.503L167.513 285.865L168.347 286.22L169.18 286.569L170.014 286.911L170.847 287.247L171.681 287.576L172.514 287.899L173.347 288.215L174.181 288.523L175.014 288.825L175.848 289.12L176.681 289.409L177.515 289.69L178.348 289.965L179.182 290.233L180.015 290.494L180.848 290.748L181.682 290.995L182.515 291.235L183.349 291.469L184.182 291.695L185.016 291.914L185.849 292.126L186.683 292.331L187.516 292.529L188.349 292.72L189.183 292.904L190.016 293.081L190.85 293.251L191.683 293.413L192.517 293.569L193.35 293.717L194.183 293.858L195.017 293.992L195.85 294.119L196.684 294.239L197.517 294.351L198.351 294.456L199.184 294.554L200.018 294.645L200.851 294.728L201.684 294.804L202.518 294.874L203.351 294.935L204.185 294.99L205.018 295.037L205.852 295.077L206.685 295.11L207.518 295.135L208.352 295.153L209.185 295.164L210.019 295.168L210.852 295.164L211.686 295.153L212.519 295.135L213.353 295.11L214.186 295.077L215.019 295.037L215.853 294.99L216.686 294.935L217.52 294.874L218.353 294.804L219.187 294.728L220.02 294.645L220.853 294.554L221.687 294.456L222.52 294.351L223.354 294.239L224.187 294.119L225.021 293.992L225.854 293.858L226.688 293.717L227.521 293.569L228.354 293.413L229.188 293.251L230.021 293.081L230.855 292.904L231.688 292.72L232.522 292.529L233.355 292.331L234.188 292.126L235.022 291.914L235.855 291.695L236.689 291.469L237.522 291.235L238.356 290.995L239.189 290.748L240.023 290.494L240.856 290.233L241.689 289.965L242.523 289.69L243.356 289.409L244.19 289.12L245.023 288.825L245.857 288.523L246.69 288.215L247.523 287.899L248.357 287.576L249.19 287.247L250.024 286.911L250.857 286.569L251.691 286.22L252.524 285.865L253.357 285.503L254.191 285.135L255.024 284.76L255.858 284.378L256.691 283.99L257.525 283.595L258.358 283.194L259.192 282.787L260.025 282.374L260.858 281.954L261.692 281.528L262.525 281.096L263.359 280.657L264.192 280.213L265.026 279.762L265.859 279.305L266.693 278.842L267.526 278.374L268.359 277.898L269.193 277.417L270.026 276.931L270.86 276.438L271.693 275.939L272.527 275.435L273.36 274.925L274.193 274.409L275.027 273.888L275.86 273.361L276.694 272.828L277.527 272.29L278.361 271.746L279.194 271.197L280.027 270.642L280.861 270.081L281.694 269.516L282.528 268.945L283.361 268.369L284.195 267.787L285.028 267.2L285.862 266.609L286.695 266.012L287.528 265.41L288.362 264.803L289.195 264.191L290.029 263.574L290.862 262.953L291.696 262.326L292.529 261.695L293.363 261.06L294.196 260.42L295.029 259.775L295.863 259.125L296.696 258.47L297.53 257.811L298.363 257.148L299.197 256.48L300.03 255.808L300.863 255.132L301.697 254.451L302.53 253.767L303.364 253.078L304.197 252.385L305.031 251.689L305.864 250.987L306.698 250.282L307.531 249.574L308.364 248.861L309.198 248.145L310.031 247.425L310.865 246.701L311.698 245.974L312.532 245.243L313.365 244.509L314.198 243.771L315.032 243.031L315.865 242.286L316.699 241.539L317.532 240.788L318.366 240.035L319.199 239.278L320.033 238.519L320.866 237.755L321.699 236.99L322.533 236.221L323.366 235.449L324.2 234.675L325.033 233.899L325.867 233.12L326.7 232.338L327.533 231.553L328.367 230.766L329.2 229.977L330.034 229.186L330.867 228.392L331.701 227.596L332.534 226.798L333.368 225.998L334.201 225.196L335.034 224.391L335.868 223.585L336.701 222.777L337.535 221.968L338.368 221.157L339.202 220.344L340.035 219.53L340.868 218.714L341.702 217.896L342.535 217.078L343.369 216.258L344.202 215.436L345.036 214.614L345.869 213.79L346.703 212.965L347.536 212.139L348.369 211.312L349.203 210.485L350.036 209.656L350.87 208.827L351.703 207.997L352.537 207.167L353.37 206.336L354.203 205.505L355.037 204.673L355.87 203.84L356.704 203.008L357.537 202.175L358.371 201.342L359.204 200.509L360.038 199.675L360.871 198.842L361.704 198.008L362.538 197.175L363.371 196.342L364.205 195.51L365.038 194.677L365.872 193.846L366.705 193.014L367.538 192.184L368.372 191.353L369.205 190.523L370.039 189.695L370.872 188.866L371.706 188.038L372.539 187.211L373.372 186.385L374.206 185.56L375.039 184.736L375.873 183.914L376.706 183.093L377.54 182.272L378.373 181.454L379.207 180.636L380.04 179.821L380.873 179.006L381.707 178.193L382.54 177.382L383.374 176.573L384.207 175.765L385.041 174.959L385.874 174.155L386.708 173.352L387.541 172.552L388.374 171.755L389.208 170.959L390.041 170.165L390.875 169.373L391.708 168.584L392.542 167.797L393.375 167.013L394.208 166.231L395.042 165.452L395.875 164.675L396.709 163.901L397.542 163.13L398.376 162.361L399.209 161.595L400.043 160.832L400.876 160.072L401.709 159.316L402.543 158.562L403.376 157.811L404.21 157.064L405.043 156.32L405.877 155.579L406.71 154.841L407.543 154.107L408.377 153.377L409.21 152.649L410.044 151.925L410.877 151.205L411.711 150.489L412.544 149.777L413.378 149.068L414.211 148.363L415.044 147.662L415.878 146.965L416.711 146.272L417.545 145.583L418.378 144.899L419.212 144.218L420.045 143.542L420.878 142.87L421.712 142.203L422.545 141.539L423.379 140.88L424.212 140.225L425.046 139.576L425.879 138.931L426.712 138.29L427.546 137.655L428.379 137.024L429.213 136.398L430.046 135.776L430.88 135.159L431.713 134.547L432.547 133.94L433.38 133.339L434.213 132.741L435.047 132.15L435.88 131.563L436.714 130.982L437.547 130.405L438.381 129.834L439.214 129.269L440.048 128.708L440.881 128.153L441.714 127.604L442.548 127.06L443.381 126.522L444.215 125.99L445.048 125.463L445.882 124.941L446.715 124.426L447.548 123.916L448.382 123.411L449.215 122.913L450.049 122.42L450.882 121.933L451.716 121.452L452.549 120.977L453.383 120.508L454.216 120.045L455.049 119.588L455.883 119.137L456.716 118.693L457.55 118.254L458.383 117.822L459.217 117.396L460.05 116.976L460.883 116.563L461.717 116.156L462.55 115.755L463.384 115.36L464.217 114.972L465.051 114.59L465.884 114.215L466.717 113.847L467.551 113.485L468.384 113.13L469.218 112.781L470.051 112.439L470.885 112.103L471.718 111.774L472.552 111.452L473.385 111.136L474.218 110.827L475.052 110.525L475.885 110.23L476.719 109.941L477.552 109.66L478.386 109.385L479.219 109.117L480.052 108.857L480.886 108.603L481.719 108.355L482.553 108.115L483.386 107.882L484.22 107.656L485.053 107.436L485.887 107.225L486.72 107.019L487.553 106.821L488.387 106.63L489.22 106.446L490.054 106.269L490.887 106.1L491.721 105.937L492.554 105.782L493.388 105.634L494.221 105.492L495.054 105.358L495.888 105.231L496.721 105.111L497.555 104.999L498.388 104.894L499.222 104.796L500.055 104.705L500.888 104.622L501.722 104.546L502.555 104.477L503.389 104.415L504.222 104.36L505.056 104.314L505.889 104.273L506.723 104.24L507.556 104.215L508.389 104.197L509.223 104.186L510.056 104.182L510.89 104.186L511.723 104.197L512.557 104.215L513.39 104.24L514.223 104.273L515.057 104.314L515.89 104.36L516.724 104.415L517.557 104.477L518.391 104.546L519.224 104.622L520.057 104.705L520.891 104.796L521.724 104.894L522.558 104.999L523.391 105.111L524.225 105.231L525.058 105.358L525.892 105.492L526.725 105.634L527.558 105.782L528.392 105.937L529.225 106.1L530.059 106.269L530.892 106.446L531.726 106.63L532.559 106.821L533.392 107.019L534.226 107.225L535.059 107.436L535.893 107.656L536.726 107.882L537.56 108.115L538.393 108.355L539.227 108.603L540.06 108.857L540.893 109.117L541.727 109.385L542.56 109.66L543.394 109.941L544.227 110.23L545.061 110.525L545.894 110.827L546.728 111.136L547.561 111.452L548.394 111.774L549.228 112.103L550.061 112.439L550.895 112.781L551.728 113.13L552.562 113.485L553.395 113.847L554.228 114.215L555.062 114.59L555.895 114.972L556.729 115.36L557.562 115.755L558.396 116.156L559.229 116.563L560.063 116.976L560.896 117.396L561.729 117.822L562.563 118.254L563.396 118.693L564.23 119.137L565.063 119.588L565.897 120.045L566.73 120.508L567.563 120.977L568.397 121.452L569.23 121.933L570.064 122.42L570.897 122.913L571.731 123.411L572.564 123.916L573.398 124.426L574.231 124.941L575.064 125.463L575.898 125.99L576.731 126.522L577.565 127.06L578.398 127.604L579.232 128.153L580.065 128.708L580.898 129.269L581.732 129.834L582.565 130.405L583.399 130.982L584.232 131.563L585.066 132.15L585.899 132.741L586.733 133.339L587.566 133.94L588.399 134.547L589.233 135.159L590.066 135.776L590.9 136.398L591.733 137.024L592.567 137.655L593.4 138.29L594.233 138.931L595.067 139.576L595.9 140.225L596.734 140.88L597.567 141.539L598.401 142.203L599.234 142.87L600.068 143.542L600.901 144.218L601.734 144.899L602.568 145.583L603.401 146.272L604.235 146.965L605.068 147.662L605.902 148.363L606.735 149.068L607.568 149.777L608.402 150.489L609.235 151.205L610.069 151.925L610.902 152.649L611.736 153.377L612.569 154.107L613.403 154.841L614.236 155.579L615.069 156.32L615.903 157.064L616.736 157.811L617.57 158.562L618.403 159.316L619.237 160.072L620.07 160.832L620.903 161.595L621.737 162.361L622.57 163.13L623.404 163.901L624.237 164.675L625.071 165.452L625.904 166.231L626.738 167.013L627.571 167.797L628.404 168.584L629.238 169.373L630.071 170.165L630.905 170.959L631.738 171.755L632.572 172.552L633.405 173.352L634.238 174.155L635.072 174.959L635.905 175.765L636.739 176.573L637.572 177.382L638.406 178.193L639.239 179.006L640.073 179.821L640.906 180.636L641.739 181.454L642.573 182.272L643.406 183.093L644.24 183.914L645.073 184.736L645.907 185.56L646.74 186.385L647.573 187.211L648.407 188.038L649.24 188.866L650.074 189.695L650.907 190.523L651.741 191.353L652.574 192.184L653.408 193.014L654.241 193.846L655.074 194.677L655.908 195.51L656.741 196.342L657.575 197.175L658.408 198.008L659.242 198.842L660.075 199.675" stroke="#FFF777" stroke-width="1.5" stroke-miterlimit="407.437"/>
<path d="M60 104.183L60.8334 104.186L61.6669 104.198L62.5003 104.215L63.3338 104.241L64.1672 104.274L65.0006 104.314L65.8341 104.361L66.6675 104.415L67.5009 104.477L68.3344 104.546L69.1678 104.622L70.0013 104.706L70.8347 104.797L71.6681 104.894L72.5016 104.999L73.335 105.112L74.1684 105.232L75.0019 105.358L75.8353 105.492L76.6688 105.634L77.5022 105.782L78.3356 105.938L79.1691 106.1L80.0025 106.269L80.8359 106.447L81.6694 106.63L82.5028 106.822L83.3363 107.019L84.1697 107.225L85.0031 107.437L85.8366 107.656L86.67 107.882L87.5034 108.115L88.3369 108.355L89.1703 108.603L90.0038 108.857L90.8372 109.118L91.6706 109.386L92.5041 109.66L93.3375 109.942L94.1709 110.23L95.0044 110.526L95.8378 110.828L96.6713 111.136L97.5047 111.452L98.3381 111.774L99.1716 112.104L100.005 112.439L100.838 112.781L101.672 113.13L102.505 113.485L103.339 113.847L104.172 114.216L105.006 114.591L105.839 114.972L106.673 115.36L107.506 115.755L108.339 116.156L109.173 116.563L110.006 116.977L110.84 117.397L111.673 117.822L112.507 118.254L113.34 118.693L114.173 119.138L115.007 119.589L115.84 120.045L116.674 120.508L117.507 120.977L118.341 121.452L119.174 121.933L120.008 122.42L120.841 122.913L121.674 123.412L122.508 123.916L123.341 124.426L124.175 124.942L125.008 125.463L125.842 125.99L126.675 126.522L127.508 127.06L128.342 127.604L129.175 128.154L130.009 128.709L130.842 129.269L131.676 129.834L132.509 130.405L133.343 130.982L134.176 131.563L135.009 132.15L135.843 132.742L136.676 133.339L137.51 133.941L138.343 134.547L139.177 135.159L140.01 135.776L140.843 136.398L141.677 137.024L142.51 137.655L143.344 138.291L144.177 138.931L145.011 139.576L145.844 140.226L146.678 140.88L147.511 141.539L148.344 142.203L149.178 142.87L150.011 143.543L150.845 144.219L151.678 144.899L152.512 145.584L153.345 146.273L154.178 146.965L155.012 147.662L155.845 148.363L156.679 149.068L157.512 149.777L158.346 150.489L159.179 151.206L160.013 151.926L160.846 152.649L161.679 153.377L162.513 154.107L163.346 154.841L164.18 155.579L165.013 156.32L165.847 157.064L166.68 157.811L167.513 158.562L168.347 159.316L169.18 160.073L170.014 160.832L170.847 161.595L171.681 162.361L172.514 163.13L173.347 163.901L174.181 164.676L175.014 165.452L175.848 166.231L176.681 167.013L177.515 167.798L178.348 168.584L179.182 169.374L180.015 170.165L180.848 170.959L181.682 171.755L182.515 172.553L183.349 173.352L184.182 174.155L185.016 174.959L185.849 175.765L186.683 176.574L187.516 177.383L188.349 178.194L189.183 179.006L190.016 179.821L190.85 180.637L191.683 181.454L192.517 182.273L193.35 183.093L194.183 183.914L195.017 184.736L195.85 185.56L196.684 186.385L197.517 187.211L198.351 188.038L199.184 188.866L200.018 189.695L200.851 190.524L201.684 191.353L202.518 192.184L203.351 193.014L204.185 193.846L205.018 194.678L205.852 195.51L206.685 196.343L207.518 197.175L208.352 198.009L209.185 198.842L210.019 199.675L210.852 200.509L211.686 201.342L212.519 202.176L213.353 203.008L214.186 203.841L215.019 204.673L215.853 205.505L216.686 206.336L217.52 207.167L218.353 207.998L219.187 208.827L220.02 209.656L220.853 210.485L221.687 211.313L222.52 212.139L223.354 212.965L224.187 213.79L225.021 214.614L225.854 215.437L226.688 216.258L227.521 217.078L228.354 217.897L229.188 218.714L230.021 219.53L230.855 220.344L231.688 221.157L232.522 221.968L233.355 222.777L234.188 223.585L235.022 224.392L235.855 225.196L236.689 225.999L237.522 226.798L238.356 227.596L239.189 228.392L240.023 229.186L240.856 229.977L241.689 230.767L242.523 231.553L243.356 232.338L244.19 233.12L245.023 233.899L245.857 234.675L246.69 235.449L247.523 236.221L248.357 236.99L249.19 237.756L250.024 238.519L250.857 239.278L251.691 240.035L252.524 240.789L253.358 241.539L254.191 242.287L255.024 243.031L255.858 243.772L256.691 244.509L257.525 245.244L258.358 245.974L259.192 246.701L260.025 247.425L260.858 248.145L261.692 248.861L262.525 249.574L263.359 250.283L264.192 250.988L265.026 251.689L265.859 252.385L266.693 253.078L267.526 253.767L268.359 254.452L269.193 255.132L270.026 255.808L270.86 256.48L271.693 257.148L272.527 257.812L273.36 258.471L274.193 259.125L275.027 259.775L275.86 260.42L276.694 261.06L277.527 261.696L278.361 262.327L279.194 262.953L280.027 263.574L280.861 264.191L281.694 264.804L282.528 265.41L283.361 266.012L284.195 266.609L285.028 267.201L285.862 267.788L286.695 268.369L287.528 268.945L288.362 269.516L289.195 270.082L290.029 270.642L290.862 271.197L291.696 271.747L292.529 272.29L293.362 272.829L294.196 273.361L295.029 273.888L295.863 274.409L296.696 274.925L297.53 275.435L298.363 275.939L299.197 276.438L300.03 276.931L300.863 277.418L301.697 277.899L302.53 278.374L303.364 278.843L304.197 279.306L305.031 279.762L305.864 280.213L306.698 280.658L307.531 281.096L308.364 281.529L309.198 281.954L310.031 282.374L310.865 282.788L311.698 283.195L312.532 283.596L313.365 283.99L314.198 284.379L315.032 284.76L315.865 285.135L316.699 285.504L317.532 285.865L318.366 286.221L319.199 286.569L320.033 286.912L320.866 287.247L321.699 287.576L322.533 287.899L323.366 288.215L324.2 288.523L325.033 288.825L325.867 289.12L326.7 289.409L327.533 289.69L328.367 289.965L329.2 290.233L330.034 290.494L330.867 290.748L331.701 290.995L332.534 291.235L333.368 291.469L334.201 291.695L335.034 291.914L335.868 292.126L336.701 292.331L337.535 292.529L338.368 292.72L339.202 292.904L340.035 293.081L340.868 293.251L341.702 293.413L342.535 293.569L343.369 293.717L344.202 293.859L345.036 293.993L345.869 294.119L346.703 294.239L347.536 294.352L348.369 294.457L349.203 294.554L350.036 294.645L350.87 294.729L351.703 294.804L352.537 294.874L353.37 294.936L354.203 294.99L355.037 295.037L355.87 295.077L356.704 295.11L357.537 295.135L358.371 295.153L359.204 295.164L360.038 295.168L360.871 295.164L361.704 295.153L362.538 295.135L363.371 295.11L364.205 295.077L365.038 295.037L365.872 294.99L366.705 294.936L367.538 294.874L368.372 294.804L369.205 294.729L370.039 294.645L370.872 294.554L371.706 294.457L372.539 294.352L373.373 294.239L374.206 294.119L375.039 293.993L375.873 293.859L376.706 293.717L377.54 293.569L378.373 293.413L379.207 293.251L380.04 293.081L380.873 292.904L381.707 292.72L382.54 292.529L383.374 292.331L384.207 292.126L385.041 291.914L385.874 291.695L386.708 291.469L387.541 291.235L388.374 290.995L389.208 290.748L390.041 290.494L390.875 290.233L391.708 289.965L392.542 289.69L393.375 289.409L394.208 289.12L395.042 288.825L395.875 288.523L396.709 288.215L397.542 287.899L398.376 287.576L399.209 287.247L400.043 286.912L400.876 286.569L401.709 286.221L402.543 285.865L403.376 285.504L404.21 285.135L405.043 284.76L405.877 284.379L406.71 283.99L407.543 283.596L408.377 283.195L409.21 282.788L410.044 282.374L410.877 281.954L411.711 281.529L412.544 281.096L413.378 280.658L414.211 280.213L415.044 279.762L415.878 279.306L416.711 278.843L417.545 278.374L418.378 277.899L419.212 277.418L420.045 276.931L420.878 276.438L421.712 275.939L422.545 275.435L423.379 274.925L424.212 274.409L425.046 273.888L425.879 273.361L426.713 272.829L427.546 272.29L428.379 271.747L429.213 271.197L430.046 270.642L430.88 270.082L431.713 269.516L432.547 268.945L433.38 268.369L434.213 267.788L435.047 267.201L435.88 266.609L436.714 266.012L437.547 265.41L438.381 264.804L439.214 264.191L440.048 263.574L440.881 262.953L441.714 262.327L442.548 261.696L443.381 261.06L444.215 260.42L445.048 259.775L445.882 259.125L446.715 258.471L447.548 257.812L448.382 257.148L449.215 256.48L450.049 255.808L450.882 255.132L451.716 254.452L452.549 253.767L453.383 253.078L454.216 252.385L455.049 251.689L455.883 250.988L456.716 250.283L457.55 249.574L458.383 248.861L459.217 248.145L460.05 247.425L460.883 246.701L461.717 245.974L462.55 245.244L463.384 244.509L464.217 243.772L465.051 243.031L465.884 242.287L466.718 241.539L467.551 240.789L468.384 240.035L469.218 239.278L470.051 238.519L470.885 237.756L471.718 236.99L472.552 236.221L473.385 235.449L474.218 234.675L475.052 233.899L475.885 233.12L476.719 232.338L477.552 231.553L478.386 230.767L479.219 229.977L480.052 229.186L480.886 228.392L481.719 227.596L482.553 226.798L483.386 225.999L484.22 225.196L485.053 224.392L485.887 223.585L486.72 222.777L487.553 221.968L488.387 221.157L489.22 220.344L490.054 219.53L490.887 218.714L491.721 217.897L492.554 217.078L493.387 216.258L494.221 215.437L495.054 214.614L495.888 213.79L496.721 212.965L497.555 212.139L498.388 211.313L499.222 210.485L500.055 209.656L500.888 208.827L501.722 207.998L502.555 207.167L503.389 206.336L504.222 205.505L505.056 204.673L505.889 203.841L506.722 203.008L507.556 202.176L508.389 201.342L509.223 200.509L510.056 199.675L510.89 198.842L511.723 198.009L512.557 197.175L513.39 196.343L514.223 195.51L515.057 194.678L515.89 193.846L516.724 193.014L517.557 192.184L518.391 191.353L519.224 190.524L520.057 189.695L520.891 188.866L521.724 188.038L522.558 187.211L523.391 186.385L524.225 185.56L525.058 184.736L525.892 183.914L526.725 183.093L527.558 182.273L528.392 181.454L529.225 180.637L530.059 179.821L530.892 179.006L531.726 178.194L532.559 177.383L533.392 176.574L534.226 175.765L535.059 174.959L535.893 174.155L536.726 173.352L537.56 172.553L538.393 171.755L539.227 170.959L540.06 170.165L540.893 169.374L541.727 168.584L542.56 167.798L543.394 167.013L544.227 166.231L545.061 165.452L545.894 164.676L546.728 163.901L547.561 163.13L548.394 162.361L549.228 161.595L550.061 160.832L550.895 160.073L551.728 159.316L552.562 158.562L553.395 157.811L554.228 157.064L555.062 156.32L555.895 155.579L556.729 154.841L557.562 154.107L558.396 153.377L559.229 152.649L560.063 151.926L560.896 151.206L561.729 150.489L562.563 149.777L563.396 149.068L564.23 148.363L565.063 147.662L565.897 146.965L566.73 146.273L567.563 145.584L568.397 144.899L569.23 144.219L570.064 143.543L570.897 142.87L571.731 142.203L572.564 141.539L573.398 140.88L574.231 140.226L575.064 139.576L575.898 138.931L576.731 138.291L577.565 137.655L578.398 137.024L579.232 136.398L580.065 135.776L580.898 135.159L581.732 134.547L582.565 133.941L583.399 133.339L584.232 132.742L585.066 132.15L585.899 131.563L586.733 130.982L587.566 130.405L588.399 129.834L589.233 129.269L590.066 128.709L590.9 128.154L591.733 127.604L592.567 127.06L593.4 126.522L594.233 125.99L595.067 125.463L595.9 124.942L596.734 124.426L597.567 123.916L598.401 123.412L599.234 122.913L600.068 122.42L600.901 121.933L601.734 121.452L602.568 120.977L603.401 120.508L604.235 120.045L605.068 119.589L605.902 119.138L606.735 118.693L607.568 118.254L608.402 117.822L609.235 117.397L610.069 116.977L610.902 116.563L611.736 116.156L612.569 115.755L613.403 115.36L614.236 114.972L615.069 114.591L615.903 114.216L616.736 113.847L617.57 113.485L618.403 113.13L619.237 112.781L620.07 112.439L620.903 112.104L621.737 111.774L622.57 111.452L623.404 111.136L624.237 110.828L625.071 110.526L625.904 110.23L626.738 109.942L627.571 109.66L628.404 109.386L629.238 109.118L630.071 108.857L630.905 108.603L631.738 108.355L632.572 108.115L633.405 107.882L634.238 107.656L635.072 107.437L635.905 107.225L636.739 107.019L637.572 106.822L638.406 106.63L639.239 106.447L640.073 106.269L640.906 106.1L641.739 105.938L642.573 105.782L643.406 105.634L644.24 105.492L645.073 105.358L645.907 105.232L646.74 105.112L647.573 104.999L648.407 104.894L649.24 104.797L650.074 104.706L650.907 104.622L651.741 104.546L652.574 104.477L653.408 104.415L654.241 104.361L655.074 104.314L655.908 104.274L656.741 104.241L657.575 104.215L658.408 104.198L659.242 104.186L660.075 104.183" stroke="#58C4DD" stroke-width="1.5" stroke-miterlimit="407.437"/>
<path d="M60 199.676H660" stroke="#F0F0F0" stroke-miterlimit="407.437"/>
<path d="M60 56.436V342.914" stroke="#F0F0F0" stroke-miterlimit="407.437"/>
</g>
<path d="M660 56.6343H60V343.113H660V56.6343Z" stroke="#404040"/>
<path d="M360 194V206" stroke="white" stroke-width="1.5" stroke-miterlimit="407.437"/>
<path d="M60 194V206" stroke="white" stroke-width="1.5" stroke-miterlimit="407.437"/>
<path d="M660 194V206" stroke="white" stroke-width="1.5" stroke-miterlimit="407.437"/>
<path d="M510 194V206" stroke="white" stroke-width="1.5" stroke-miterlimit="407.437"/>
<path d="M210 194V206" stroke="white" stroke-width="1.5" stroke-miterlimit="407.437"/>
<g clip-path="url(#clip1_799_19613)">
<path d="M356.731 242.937C356.27 242.937 356.039 242.713 356.039 242.265V242.041L356.304 241.47C357.322 239.326 358.061 237.473 358.523 235.912L358.686 235.423H358.034C357.518 235.423 357.152 235.443 356.935 235.484C356.718 235.525 356.453 235.654 356.141 235.871C355.991 235.966 355.842 236.088 355.693 236.237C355.543 236.387 355.414 236.529 355.306 236.665C355.197 236.801 355.136 236.882 355.123 236.909C355.095 236.923 354.994 236.93 354.817 236.93C354.559 236.93 354.43 236.862 354.43 236.726C354.43 236.645 354.559 236.407 354.817 236.013C355.075 235.62 355.448 235.199 355.937 234.751C356.426 234.303 356.908 234.045 357.383 233.977C357.478 233.95 359.005 233.937 361.964 233.937C364.136 233.937 365.249 233.943 365.304 233.957C365.575 234.052 365.711 234.242 365.711 234.527C365.711 234.948 365.494 235.233 365.059 235.382C364.978 235.409 364.509 235.423 363.654 235.423H362.351L362.29 235.769C362.127 236.746 362.046 237.554 362.046 238.192C362.046 238.898 362.107 239.529 362.229 240.086C362.351 240.642 362.48 241.077 362.616 241.389C362.751 241.701 362.819 241.891 362.819 241.959C362.819 242.19 362.724 242.407 362.534 242.611C362.344 242.814 362.1 242.916 361.801 242.916C361.652 242.916 361.53 242.896 361.435 242.855C361.34 242.814 361.231 242.651 361.109 242.366C360.987 242.081 360.878 241.674 360.783 241.145C360.77 241.022 360.763 240.724 360.763 240.249C360.763 239.584 360.824 238.871 360.946 238.111C361.068 237.351 361.19 236.726 361.313 236.237C361.435 235.749 361.503 235.477 361.516 235.423H359.521L359.5 235.504C359.5 235.545 359.371 236.081 359.113 237.113C358.856 238.145 358.564 239.237 358.238 240.391C357.912 241.545 357.702 242.203 357.607 242.366C357.457 242.746 357.166 242.937 356.731 242.937Z" fill="white"/>
</g>
<g clip-path="url(#clip2_799_19613)">
<path d="M651.325 236.37C650.959 236.37 650.667 236.248 650.45 236.003C650.232 235.759 650.124 235.46 650.124 235.107C650.124 234.144 650.483 233.309 651.203 232.603C651.922 231.897 652.818 231.544 653.891 231.544C655.126 231.544 656.158 231.924 656.986 232.684C657.814 233.444 658.235 234.429 658.249 235.637C658.249 236.221 658.113 236.777 657.841 237.307C657.57 237.836 657.244 238.298 656.864 238.691C656.484 239.085 655.941 239.587 655.235 240.198C654.746 240.619 654.067 241.244 653.199 242.072L651.997 243.212L653.545 243.233C655.676 243.233 656.81 243.199 656.945 243.131C657.041 243.104 657.203 242.499 657.434 241.318V241.257H658.249V241.318C658.235 241.359 658.147 241.977 657.984 243.171C657.821 244.366 657.719 244.991 657.679 245.045V245.106H650.124V244.719V244.475C650.124 244.38 650.164 244.278 650.246 244.169C650.327 244.061 650.531 243.823 650.857 243.457C651.25 243.022 651.59 242.642 651.875 242.316C651.997 242.18 652.228 241.929 652.567 241.563C652.907 241.196 653.138 240.945 653.26 240.809C653.382 240.673 653.579 240.449 653.85 240.137C654.122 239.825 654.312 239.594 654.42 239.445C654.529 239.296 654.685 239.092 654.889 238.834C655.092 238.576 655.235 238.359 655.316 238.182C655.398 238.006 655.5 237.809 655.622 237.592C655.744 237.375 655.832 237.157 655.887 236.94C655.941 236.723 655.988 236.519 656.029 236.329C656.07 236.139 656.09 235.915 656.09 235.657C656.09 234.802 655.859 234.062 655.398 233.438C654.936 232.813 654.278 232.501 653.423 232.501C652.975 232.501 652.581 232.616 652.242 232.847C651.902 233.078 651.665 233.302 651.529 233.519C651.393 233.736 651.325 233.865 651.325 233.906C651.325 233.92 651.359 233.926 651.427 233.926C651.671 233.926 651.922 234.021 652.18 234.211C652.438 234.402 652.567 234.714 652.567 235.148C652.567 235.488 652.459 235.773 652.242 236.003C652.024 236.234 651.719 236.356 651.325 236.37Z" fill="white"/>
<path d="M661.975 245.33C661.514 245.33 661.283 245.106 661.283 244.658V244.434L661.548 243.864C662.566 241.719 663.306 239.866 663.767 238.305L663.93 237.816H663.279C662.763 237.816 662.396 237.836 662.179 237.877C661.962 237.918 661.697 238.047 661.385 238.264C661.235 238.359 661.086 238.481 660.937 238.63C660.787 238.78 660.658 238.922 660.55 239.058C660.441 239.194 660.38 239.275 660.367 239.302C660.339 239.316 660.238 239.323 660.061 239.323C659.803 239.323 659.674 239.255 659.674 239.119C659.674 239.038 659.803 238.8 660.061 238.406C660.319 238.013 660.692 237.592 661.181 237.144C661.67 236.696 662.152 236.438 662.627 236.37C662.722 236.343 664.249 236.329 667.209 236.329C669.381 236.329 670.494 236.336 670.548 236.35C670.82 236.445 670.956 236.635 670.956 236.92C670.956 237.341 670.738 237.626 670.304 237.775C670.223 237.802 669.754 237.816 668.899 237.816H667.596L667.535 238.162C667.372 239.14 667.29 239.947 667.29 240.585C667.29 241.291 667.351 241.923 667.473 242.479C667.596 243.036 667.725 243.47 667.86 243.782C667.996 244.095 668.064 244.285 668.064 244.353C668.064 244.583 667.969 244.801 667.779 245.004C667.589 245.208 667.344 245.31 667.046 245.31C666.896 245.31 666.774 245.289 666.679 245.249C666.584 245.208 666.476 245.045 666.353 244.76C666.231 244.475 666.123 244.068 666.028 243.538C666.014 243.416 666.007 243.117 666.007 242.642C666.007 241.977 666.068 241.264 666.191 240.504C666.313 239.744 666.435 239.119 666.557 238.63C666.679 238.142 666.747 237.87 666.761 237.816H664.765L664.745 237.897C664.745 237.938 664.616 238.474 664.358 239.506C664.1 240.538 663.808 241.631 663.482 242.785C663.156 243.939 662.946 244.597 662.851 244.76C662.702 245.14 662.41 245.33 661.975 245.33Z" fill="white"/>
</g>
<g clip-path="url(#clip3_799_19613)">
<path d="M206.885 229.182C206.423 229.182 206.192 228.958 206.192 228.51V228.286L206.457 227.716C207.475 225.571 208.215 223.718 208.677 222.157L208.839 221.669H208.188C207.672 221.669 207.306 221.689 207.088 221.73C206.871 221.771 206.606 221.9 206.294 222.117C206.145 222.212 205.996 222.334 205.846 222.483C205.697 222.633 205.568 222.775 205.459 222.911C205.351 223.047 205.29 223.128 205.276 223.155C205.249 223.169 205.147 223.176 204.971 223.176C204.713 223.176 204.584 223.108 204.584 222.972C204.584 222.89 204.713 222.653 204.971 222.259C205.229 221.866 205.602 221.445 206.091 220.997C206.579 220.549 207.061 220.291 207.536 220.223C207.631 220.196 209.158 220.182 212.118 220.182C214.289 220.182 215.403 220.189 215.457 220.203C215.728 220.298 215.864 220.488 215.864 220.773C215.864 221.194 215.647 221.479 215.213 221.628C215.131 221.655 214.663 221.669 213.808 221.669H212.504L212.443 222.015C212.28 222.992 212.199 223.8 212.199 224.438C212.199 225.144 212.26 225.775 212.382 226.332C212.504 226.888 212.633 227.322 212.769 227.635C212.905 227.947 212.973 228.137 212.973 228.205C212.973 228.436 212.878 228.653 212.688 228.856C212.498 229.06 212.253 229.162 211.955 229.162C211.805 229.162 211.683 229.141 211.588 229.101C211.493 229.06 211.385 228.897 211.262 228.612C211.14 228.327 211.032 227.92 210.937 227.39C210.923 227.268 210.916 226.97 210.916 226.494C210.916 225.829 210.977 225.117 211.1 224.356C211.222 223.596 211.344 222.972 211.466 222.483C211.588 221.995 211.656 221.723 211.67 221.669H209.674L209.654 221.75C209.654 221.791 209.525 222.327 209.267 223.359C209.009 224.39 208.717 225.483 208.391 226.637C208.066 227.791 207.855 228.449 207.76 228.612C207.611 228.992 207.319 229.182 206.885 229.182Z" fill="white"/>
<path d="M207.129 247.955C206.763 247.955 206.471 247.833 206.254 247.589C206.036 247.345 205.928 247.046 205.928 246.693C205.928 245.729 206.287 244.894 207.007 244.189C207.726 243.483 208.622 243.13 209.695 243.13C210.93 243.13 211.961 243.51 212.79 244.27C213.618 245.03 214.038 246.014 214.052 247.222C214.052 247.806 213.916 248.363 213.645 248.892C213.373 249.421 213.047 249.883 212.667 250.277C212.287 250.67 211.744 251.172 211.038 251.783C210.55 252.204 209.871 252.829 209.002 253.657L207.801 254.797L209.348 254.817C211.48 254.817 212.613 254.783 212.749 254.715C212.844 254.688 213.007 254.084 213.237 252.903V252.842H214.052V252.903C214.038 252.944 213.95 253.562 213.787 254.756C213.624 255.951 213.523 256.575 213.482 256.629V256.69H205.928V256.304V256.059C205.928 255.964 205.968 255.862 206.05 255.754C206.131 255.645 206.335 255.408 206.661 255.041C207.054 254.607 207.394 254.227 207.679 253.901C207.801 253.765 208.032 253.514 208.371 253.148C208.71 252.781 208.941 252.53 209.063 252.394C209.186 252.258 209.382 252.034 209.654 251.722C209.925 251.41 210.115 251.179 210.224 251.03C210.333 250.881 210.489 250.677 210.692 250.419C210.896 250.161 211.038 249.944 211.12 249.768C211.201 249.591 211.303 249.394 211.425 249.177C211.547 248.96 211.636 248.743 211.69 248.526C211.744 248.308 211.792 248.105 211.833 247.915C211.873 247.725 211.894 247.501 211.894 247.243C211.894 246.388 211.663 245.648 211.201 245.023C210.74 244.399 210.081 244.087 209.226 244.087C208.778 244.087 208.385 244.202 208.045 244.433C207.706 244.664 207.468 244.888 207.333 245.105C207.197 245.322 207.129 245.451 207.129 245.492C207.129 245.505 207.163 245.512 207.231 245.512C207.475 245.512 207.726 245.607 207.984 245.797C208.242 245.987 208.371 246.299 208.371 246.734C208.371 247.073 208.262 247.358 208.045 247.589C207.828 247.82 207.523 247.942 207.129 247.955Z" fill="white"/>
<path d="M217.839 238.243H202.161V237.021H217.839V238.243Z" fill="white"/>
</g>
<g clip-path="url(#clip4_799_19613)">
<path d="M501.693 221.914C501.327 221.914 501.041 221.799 500.838 221.568C500.634 221.337 500.526 221.039 500.512 220.672C500.512 219.926 500.838 219.261 501.489 218.677C502.141 218.093 502.928 217.802 503.851 217.802C504.326 217.802 504.625 217.808 504.747 217.822C505.751 217.985 506.518 218.345 507.048 218.901C507.577 219.458 507.849 220.062 507.862 220.713C507.862 221.419 507.631 222.104 507.17 222.769C506.708 223.435 506.07 223.916 505.256 224.215L505.195 224.256C505.195 224.269 505.256 224.29 505.378 224.317C505.5 224.344 505.697 224.405 505.969 224.5C506.24 224.595 506.498 224.738 506.742 224.928C507.855 225.647 508.412 226.597 508.412 227.778C508.412 228.85 507.991 229.787 507.15 230.588C506.308 231.389 505.242 231.789 503.953 231.789C502.867 231.789 501.931 231.497 501.143 230.914C500.356 230.33 499.962 229.59 499.962 228.694C499.962 228.314 500.085 228.009 500.329 227.778C500.573 227.547 500.879 227.425 501.245 227.412C501.625 227.412 501.937 227.534 502.182 227.778C502.426 228.022 502.548 228.328 502.548 228.694C502.548 228.844 502.528 228.979 502.487 229.102C502.446 229.224 502.399 229.332 502.345 229.427C502.29 229.522 502.216 229.604 502.121 229.672C502.026 229.739 501.944 229.794 501.876 229.834C501.808 229.875 501.741 229.902 501.673 229.916C501.605 229.929 501.55 229.95 501.51 229.977L501.428 229.997C502.121 230.608 502.962 230.914 503.953 230.914C504.7 230.914 505.263 230.554 505.643 229.834C505.874 229.387 505.989 228.701 505.989 227.778V227.371C505.989 226.081 505.555 225.219 504.686 224.785C504.482 224.704 504.068 224.656 503.444 224.643L502.589 224.622L502.528 224.582C502.501 224.541 502.487 224.432 502.487 224.256C502.487 224.011 502.541 223.889 502.65 223.889C503.03 223.889 503.424 223.855 503.831 223.787C504.292 223.72 504.713 223.435 505.093 222.932C505.473 222.43 505.663 221.67 505.663 220.652V220.489C505.663 219.715 505.426 219.179 504.951 218.881C504.652 218.691 504.333 218.596 503.994 218.596C503.559 218.596 503.159 218.67 502.792 218.82C502.426 218.969 502.168 219.125 502.019 219.288C501.869 219.451 501.795 219.532 501.795 219.532H501.856C501.897 219.546 501.951 219.559 502.019 219.573C502.087 219.586 502.155 219.62 502.222 219.675C502.29 219.729 502.372 219.777 502.467 219.817C502.562 219.858 502.63 219.933 502.67 220.041C502.711 220.15 502.765 220.252 502.833 220.347C502.901 220.442 502.921 220.577 502.894 220.754C502.894 221.052 502.799 221.317 502.609 221.548C502.419 221.779 502.114 221.901 501.693 221.914Z" fill="white"/>
<path d="M511.975 231.565C511.513 231.565 511.283 231.341 511.283 230.893V230.669L511.547 230.099C512.565 227.954 513.305 226.102 513.767 224.541L513.93 224.052H513.278C512.762 224.052 512.396 224.072 512.179 224.113C511.961 224.154 511.697 224.283 511.384 224.5C511.235 224.595 511.086 224.717 510.937 224.866C510.787 225.016 510.658 225.158 510.55 225.294C510.441 225.43 510.38 225.511 510.366 225.538C510.339 225.552 510.238 225.559 510.061 225.559C509.803 225.559 509.674 225.491 509.674 225.355C509.674 225.274 509.803 225.036 510.061 224.642C510.319 224.249 510.692 223.828 511.181 223.38C511.67 222.932 512.151 222.674 512.626 222.606C512.721 222.579 514.248 222.566 517.208 222.566C519.379 222.566 520.492 222.572 520.547 222.586C520.818 222.681 520.954 222.871 520.954 223.156C520.954 223.577 520.737 223.862 520.302 224.011C520.221 224.038 519.753 224.052 518.897 224.052H517.594L517.533 224.398C517.37 225.375 517.289 226.183 517.289 226.821C517.289 227.527 517.35 228.158 517.472 228.715C517.594 229.271 517.723 229.705 517.859 230.018C517.995 230.33 518.063 230.52 518.063 230.588C518.063 230.818 517.968 231.036 517.778 231.239C517.588 231.443 517.343 231.545 517.045 231.545C516.895 231.545 516.773 231.524 516.678 231.484C516.583 231.443 516.475 231.28 516.352 230.995C516.23 230.71 516.122 230.303 516.027 229.773C516.013 229.651 516.006 229.352 516.006 228.877C516.006 228.212 516.067 227.5 516.19 226.74C516.312 225.979 516.434 225.355 516.556 224.866C516.678 224.378 516.746 224.106 516.76 224.052H514.764L514.744 224.133C514.744 224.174 514.615 224.71 514.357 225.742C514.099 226.773 513.807 227.866 513.482 229.02C513.156 230.174 512.945 230.832 512.85 230.995C512.701 231.375 512.409 231.565 511.975 231.565Z" fill="white"/>
<path d="M507.129 250.337C506.763 250.337 506.471 250.215 506.254 249.971C506.037 249.726 505.928 249.428 505.928 249.075C505.928 248.111 506.288 247.276 507.007 246.571C507.726 245.865 508.622 245.512 509.695 245.512C510.93 245.512 511.961 245.892 512.789 246.652C513.617 247.412 514.038 248.396 514.052 249.604C514.052 250.188 513.916 250.744 513.644 251.274C513.373 251.803 513.047 252.265 512.667 252.658C512.287 253.052 511.744 253.554 511.038 254.165C510.55 254.586 509.871 255.21 509.002 256.038L507.801 257.178L509.348 257.199C511.479 257.199 512.613 257.165 512.749 257.097C512.844 257.07 513.007 256.466 513.237 255.285V255.224H514.052V255.285C514.038 255.325 513.95 255.943 513.787 257.138C513.624 258.332 513.522 258.956 513.482 259.011V259.072H505.928V258.685V258.441C505.928 258.346 505.969 258.244 506.05 258.135C506.132 258.027 506.335 257.789 506.661 257.423C507.055 256.988 507.394 256.608 507.679 256.282C507.801 256.147 508.032 255.896 508.371 255.529C508.711 255.163 508.941 254.911 509.063 254.776C509.186 254.64 509.382 254.416 509.654 254.104C509.925 253.792 510.115 253.561 510.224 253.412C510.333 253.262 510.489 253.059 510.692 252.801C510.896 252.543 511.038 252.326 511.12 252.149C511.201 251.973 511.303 251.776 511.425 251.559C511.547 251.342 511.636 251.124 511.69 250.907C511.744 250.69 511.792 250.487 511.832 250.297C511.873 250.106 511.893 249.883 511.893 249.625C511.893 248.769 511.663 248.03 511.201 247.405C510.74 246.781 510.081 246.469 509.226 246.469C508.778 246.469 508.385 246.584 508.045 246.815C507.706 247.046 507.469 247.27 507.333 247.487C507.197 247.704 507.129 247.833 507.129 247.874C507.129 247.887 507.163 247.894 507.231 247.894C507.475 247.894 507.726 247.989 507.984 248.179C508.242 248.369 508.371 248.681 508.371 249.116C508.371 249.455 508.263 249.74 508.045 249.971C507.828 250.201 507.523 250.324 507.129 250.337Z" fill="white"/>
<path d="M522.929 240.625H497.071V239.404H522.929V240.625Z" fill="white"/>
</g>
<path d="M56.92 233.237C57.6667 232.157 58.6867 231.617 59.98 231.617C60.9533 231.617 61.8067 231.95 62.54 232.617C62.9 232.963 63.2067 233.417 63.46 233.977C63.9533 235.083 64.2 236.603 64.2 238.537C64.2 240.603 63.9133 242.183 63.34 243.277C62.9667 244.05 62.42 244.61 61.7 244.957C61.14 245.237 60.5733 245.377 60 245.377C58.4667 245.377 57.3467 244.677 56.64 243.277C56.0667 242.183 55.78 240.603 55.78 238.537C55.78 237.297 55.86 236.277 56.02 235.477C56.1933 234.663 56.4933 233.917 56.92 233.237ZM61.42 232.997C61.0333 232.57 60.56 232.357 60 232.357C59.44 232.357 58.96 232.57 58.56 232.997C58.2667 233.303 58.0667 233.677 57.96 234.117C57.8533 234.557 57.7867 235.317 57.76 236.397C57.76 236.477 57.7533 236.737 57.74 237.177C57.74 237.617 57.74 237.983 57.74 238.277C57.74 239.557 57.7533 240.45 57.78 240.957C57.8333 241.89 57.9133 242.563 58.02 242.977C58.1267 243.377 58.3267 243.723 58.62 244.017C58.98 244.417 59.44 244.617 60 244.617C60.5467 244.617 61 244.417 61.36 244.017C61.6533 243.723 61.8533 243.377 61.96 242.977C62.0667 242.563 62.1467 241.89 62.2 240.957C62.2267 240.45 62.24 239.557 62.24 238.277C62.24 237.983 62.2333 237.617 62.22 237.177C62.22 236.737 62.22 236.477 62.22 236.397C62.1933 235.317 62.1267 234.557 62.02 234.117C61.9133 233.677 61.7133 233.303 61.42 232.997Z" fill="white"/>
<path d="M686.455 198.94C686.375 198.86 686.335 198.787 686.335 198.72C686.388 198.36 686.595 197.9 686.955 197.34C687.582 196.393 688.368 195.847 689.315 195.7C689.502 195.673 689.642 195.66 689.735 195.66C690.202 195.66 690.628 195.78 691.015 196.02C691.415 196.26 691.702 196.56 691.875 196.92C692.048 196.693 692.155 196.553 692.195 196.5C692.688 195.94 693.255 195.66 693.895 195.66C694.442 195.66 694.882 195.82 695.215 196.14C695.562 196.447 695.735 196.827 695.735 197.28C695.735 197.693 695.615 198.04 695.375 198.32C695.148 198.6 694.842 198.74 694.455 198.74C694.202 198.74 693.995 198.667 693.835 198.52C693.675 198.373 693.595 198.18 693.595 197.94C693.595 197.327 693.928 196.907 694.595 196.68C694.595 196.667 694.522 196.62 694.375 196.54C694.242 196.46 694.048 196.42 693.795 196.42C693.622 196.42 693.495 196.433 693.415 196.46C692.908 196.673 692.535 197.113 692.295 197.78C692.255 197.887 692.062 198.633 691.715 200.02C691.368 201.393 691.182 202.167 691.155 202.34C691.115 202.54 691.095 202.74 691.095 202.94C691.095 203.26 691.188 203.513 691.375 203.7C691.562 203.887 691.808 203.98 692.115 203.98C692.675 203.98 693.182 203.747 693.635 203.28C694.088 202.8 694.395 202.273 694.555 201.7C694.595 201.567 694.635 201.493 694.675 201.48C694.715 201.453 694.822 201.44 694.995 201.44C695.248 201.44 695.375 201.493 695.375 201.6C695.375 201.613 695.362 201.687 695.335 201.82C695.108 202.647 694.642 203.367 693.935 203.98C693.308 204.473 692.648 204.72 691.955 204.72C691.022 204.72 690.315 204.3 689.835 203.46C689.448 204.06 688.955 204.46 688.355 204.66C688.235 204.687 688.062 204.7 687.835 204.7C687.062 204.7 686.515 204.427 686.195 203.88C686.062 203.653 685.995 203.387 685.995 203.08C685.995 202.68 686.115 202.34 686.355 202.06C686.595 201.78 686.902 201.64 687.275 201.64C687.848 201.64 688.135 201.92 688.135 202.48C688.135 202.973 687.902 203.333 687.435 203.56C687.408 203.573 687.375 203.593 687.335 203.62C687.295 203.633 687.262 203.647 687.235 203.66C687.208 203.673 687.188 203.68 687.175 203.68L687.115 203.7C687.115 203.74 687.215 203.8 687.415 203.88C687.575 203.947 687.748 203.98 687.935 203.98C688.415 203.98 688.828 203.68 689.175 203.08C689.322 202.84 689.582 201.973 689.955 200.48C690.035 200.173 690.122 199.833 690.215 199.46C690.308 199.087 690.375 198.8 690.415 198.6C690.468 198.4 690.502 198.28 690.515 198.24C690.582 197.88 690.615 197.62 690.615 197.46C690.615 197.14 690.528 196.887 690.355 196.7C690.182 196.513 689.942 196.42 689.635 196.42C689.035 196.42 688.515 196.653 688.075 197.12C687.635 197.573 687.328 198.1 687.155 198.7C687.128 198.82 687.095 198.893 687.055 198.92C687.028 198.933 686.922 198.94 686.735 198.94H686.455Z" fill="white"/>
<path d="M64.24 24.3922C64.4267 24.3922 64.5867 24.4455 64.72 24.5522C64.8533 24.6455 64.92 24.7789 64.92 24.9522C64.92 25.1255 64.5933 26.5255 63.94 29.1522C63.2867 31.7789 62.9133 33.2189 62.82 33.4722C62.6067 34.1255 62.26 34.7255 61.78 35.2722C61.3133 35.8322 60.7667 36.2722 60.14 36.5922C59.42 36.9389 58.7467 37.1122 58.12 37.1122C57.1067 37.1122 56.42 36.7922 56.06 36.1522C55.9267 35.9655 55.86 35.6989 55.86 35.3522C55.86 34.8989 55.9867 34.5455 56.24 34.2922C56.52 34.0389 56.8133 33.9122 57.12 33.9122C57.7067 33.9122 58 34.1922 58 34.7522C58 35.2455 57.7667 35.6055 57.3 35.8322C57.2733 35.8455 57.24 35.8589 57.2 35.8722C57.16 35.8989 57.1267 35.9189 57.1 35.9322C57.0733 35.9455 57.0533 35.9522 57.04 35.9522L56.98 35.9722C57.02 36.0522 57.16 36.1389 57.4 36.2322C57.6133 36.3122 57.8267 36.3522 58.04 36.3522H58.2C58.4267 36.3522 58.6 36.3389 58.72 36.3122C59.2267 36.1655 59.7067 35.8255 60.16 35.2922C60.6133 34.7589 60.96 34.1189 61.2 33.3722C61.3467 32.9322 61.42 32.6722 61.42 32.5922C61.42 32.5789 61.4067 32.5855 61.38 32.6122C61.3533 32.6255 61.3133 32.6522 61.26 32.6922C60.7667 33.0522 60.22 33.2322 59.62 33.2322C58.94 33.2322 58.38 33.0722 57.94 32.7522C57.5 32.4322 57.2133 31.9722 57.08 31.3722C57.0667 31.2789 57.06 31.0722 57.06 30.7522C57.06 30.4322 57.0733 30.1855 57.1 30.0122C57.1933 29.4389 57.5 28.4589 58.02 27.0722C58.3133 26.2855 58.46 25.7389 58.46 25.4322C58.46 25.2455 58.44 25.1189 58.4 25.0522C58.3733 24.9722 58.3 24.9322 58.18 24.9322H58.08C57.7733 24.9322 57.48 25.0722 57.2 25.3522C56.7733 25.7789 56.4467 26.4189 56.22 27.2722C56.22 27.2855 56.2133 27.3122 56.2 27.3522C56.1867 27.3789 56.1733 27.3989 56.16 27.4122C56.16 27.4122 56.1533 27.4189 56.14 27.4322C56.1267 27.4455 56.1 27.4522 56.06 27.4522C56.0333 27.4522 56.0067 27.4522 55.98 27.4522C55.9533 27.4522 55.9 27.4522 55.82 27.4522H55.54C55.4333 27.3455 55.4133 27.1922 55.48 26.9922C55.76 26.0589 56.18 25.3322 56.74 24.8122C57.1933 24.3855 57.6667 24.1722 58.16 24.1722C58.72 24.1722 59.1667 24.3255 59.5 24.6322C59.8333 24.9389 60 25.3655 60 25.9122C59.9733 26.1655 59.9533 26.3055 59.94 26.3322C59.94 26.4122 59.84 26.6989 59.64 27.1922C59.0933 28.6722 58.7667 29.7589 58.66 30.4522C58.6467 30.5589 58.64 30.7122 58.64 30.9122C58.64 31.4189 58.72 31.8055 58.88 32.0722C59.04 32.3389 59.3333 32.4722 59.76 32.4722C60.0667 32.4722 60.3533 32.3922 60.62 32.2322C60.9 32.0722 61.1067 31.9189 61.24 31.7722C61.3867 31.6122 61.5667 31.3989 61.78 31.1322C61.78 31.1189 61.9 30.6189 62.14 29.6322C62.3933 28.6322 62.6533 27.6189 62.92 26.5922C63.1867 25.5655 63.34 25.0122 63.38 24.9322C63.5533 24.5722 63.84 24.3922 64.24 24.3922Z" fill="white"/>
<g clip-path="url(#clip5_799_19613)">
<path d="M277.278 32.9788C277.292 32.9788 277.78 32.9448 278.744 32.8769C279.708 32.8091 280.203 32.7684 280.231 32.7548C280.393 32.7548 280.475 32.8091 280.475 32.9177C280.475 33.0127 279.979 35.0624 278.989 39.0669C277.998 43.0713 277.489 45.1143 277.461 45.1957C277.434 45.2772 277.427 45.379 277.441 45.5011C277.441 46.0713 277.631 46.3563 278.011 46.3563C278.133 46.3428 278.269 46.2817 278.418 46.1731C278.703 45.9016 278.982 45.25 279.253 44.2184C279.335 43.9469 279.403 43.8043 279.457 43.7908C279.484 43.7772 279.552 43.7704 279.66 43.7704H279.742H279.823C280.027 43.7704 280.129 43.8247 280.129 43.9333C280.129 44.0012 280.108 44.1098 280.068 44.2591C279.891 44.9378 279.688 45.4876 279.457 45.9084C279.226 46.3292 279.036 46.6007 278.887 46.7228C278.737 46.845 278.547 46.9536 278.317 47.0486C278.208 47.0758 278.045 47.0894 277.828 47.0894C277.366 47.0894 276.979 46.9875 276.667 46.7839C276.355 46.5803 276.151 46.3699 276.056 46.1527L275.934 45.8473C275.921 45.8337 275.894 45.8405 275.853 45.8677C275.826 45.8948 275.799 45.922 275.771 45.9491C274.97 46.7093 274.156 47.0894 273.328 47.0894C272.581 47.0894 271.923 46.8179 271.353 46.2749C270.783 45.7319 270.498 44.8699 270.498 43.689C270.498 43.0374 270.633 42.3722 270.905 41.6935C271.176 41.0148 271.502 40.4311 271.882 39.9424C272.52 39.1687 273.158 38.6325 273.796 38.3339C274.434 38.0352 275.011 37.8859 275.527 37.8859C276.287 37.8859 276.857 38.171 277.237 38.7411C277.305 38.8225 277.339 38.8497 277.339 38.8225C277.353 38.7682 277.536 38.0284 277.889 36.6031C278.242 35.1778 278.432 34.4244 278.459 34.343C278.459 34.1665 278.412 34.0579 278.317 34.0172C278.222 33.9765 277.957 33.9425 277.522 33.9154H277.095C277.013 33.8339 276.973 33.7796 276.973 33.7525C276.973 33.7253 276.986 33.5964 277.013 33.3656C277.081 33.1077 277.17 32.9788 277.278 32.9788ZM276.993 40.2479C276.681 39.1755 276.172 38.6393 275.466 38.6393C274.991 38.6393 274.536 38.8497 274.102 39.2705C273.667 39.6913 273.328 40.2411 273.084 40.9198C272.69 41.9922 272.412 43.1053 272.249 44.2591C272.249 44.2998 272.249 44.3745 272.249 44.4831C272.249 44.5917 272.242 44.6731 272.228 44.7274C272.228 45.3383 272.351 45.7591 272.595 45.9898C272.839 46.2206 273.131 46.3428 273.471 46.3563C274.204 46.3563 274.957 45.8677 275.731 44.8903L275.894 44.6663L276.993 40.2479Z" fill="white"/>
<path d="M282.328 41.7953C282.328 40.8586 282.396 39.9695 282.531 39.1279C282.667 38.2863 282.823 37.5601 283 36.9492C283.176 36.3384 283.427 35.7411 283.753 35.1574C284.079 34.5737 284.337 34.1189 284.527 33.7932C284.717 33.4674 285.002 33.1144 285.382 32.7343C285.762 32.3543 285.986 32.1235 286.054 32.0421C286.122 31.9606 286.292 31.8181 286.563 31.6145H286.828H286.909C287.099 31.6145 287.194 31.6755 287.194 31.7977C287.194 31.8384 287.079 31.981 286.848 32.2253C286.617 32.4696 286.339 32.8294 286.013 33.3045C285.687 33.7796 285.355 34.3633 285.016 35.0556C284.676 35.7479 284.391 36.6845 284.16 37.8655C283.93 39.0464 283.814 40.3564 283.814 41.7953C283.814 43.2342 283.93 44.5373 284.16 45.7047C284.391 46.8721 284.669 47.8155 284.995 48.535C285.321 49.2544 285.654 49.8381 285.993 50.2861C286.332 50.734 286.617 51.0937 286.848 51.3652C287.079 51.6367 287.194 51.7792 287.194 51.7928C287.194 51.915 287.092 51.9761 286.889 51.9761H286.828H286.563L285.993 51.4874C284.717 50.3336 283.787 48.8947 283.203 47.1707C282.62 45.4468 282.328 43.655 282.328 41.7953Z" fill="white"/>
<path d="M295.868 40.6752C295.868 40.6752 295.726 40.6752 295.441 40.6752C295.156 40.6752 294.911 40.5734 294.708 40.3698C294.504 40.1662 294.395 39.9083 294.382 39.596C294.382 39.2838 294.484 39.0259 294.687 38.8223C294.755 38.7544 294.789 38.7137 294.789 38.7001C294.789 38.6866 294.721 38.673 294.585 38.6594C294.233 38.6051 293.9 38.578 293.588 38.578C292.923 38.578 292.38 38.7952 291.959 39.2295C291.321 39.8675 291.002 40.9331 291.002 42.4263C291.002 43.5394 291.212 44.415 291.633 45.053C292.19 45.881 292.936 46.295 293.873 46.295C294.429 46.295 294.877 46.1186 295.217 45.7656C295.556 45.4127 295.8 44.9919 295.95 44.5032C295.977 44.3946 296.011 44.3267 296.052 44.2996C296.092 44.2724 296.201 44.2589 296.377 44.2589H296.662C296.744 44.3403 296.785 44.4014 296.785 44.4421C296.785 44.4964 296.757 44.605 296.703 44.7679C296.649 44.9308 296.54 45.1548 296.377 45.4398C296.214 45.7249 296.018 45.9828 295.787 46.2136C295.556 46.4443 295.23 46.6547 294.809 46.8448C294.389 47.0348 293.92 47.1231 293.405 47.1095C292.237 47.1095 291.219 46.6751 290.35 45.8063C289.482 44.9376 289.04 43.8448 289.027 42.5281C289.027 41.1164 289.468 39.9693 290.35 39.087C291.233 38.2047 292.257 37.7635 293.425 37.7635C294.592 37.7635 295.407 37.9468 295.868 38.3133C296.33 38.6798 296.561 39.1142 296.561 39.6164C296.561 39.9286 296.445 40.1797 296.214 40.3698L295.868 40.6752Z" fill="#58C4DD"/>
<path d="M297.945 42.5284C297.945 41.2388 298.386 40.1257 299.269 39.189C300.151 38.2524 301.217 37.7773 302.465 37.7637C303.687 37.7637 304.739 38.2253 305.621 39.1483C306.504 40.0714 306.952 41.1913 306.965 42.508C306.965 43.7976 306.531 44.8835 305.662 45.7659C304.793 46.6482 303.728 47.0894 302.465 47.0894C301.149 47.0894 300.07 46.6346 299.228 45.7251C298.386 44.8156 297.959 43.7501 297.945 42.5284ZM302.465 46.2749C304.122 46.2749 304.95 45.1686 304.95 42.9559V42.3044V41.7953C304.95 41.4967 304.943 41.2388 304.929 41.0216C304.916 40.8044 304.868 40.5465 304.787 40.2479C304.705 39.9492 304.597 39.7049 304.461 39.5148C304.325 39.3248 304.115 39.1348 303.83 38.9447C303.545 38.7547 303.212 38.6189 302.832 38.5375C302.764 38.5239 302.655 38.5171 302.506 38.5171C302.099 38.5171 301.712 38.5986 301.346 38.7615C300.762 39.0601 300.382 39.4741 300.205 40.0035C300.029 40.5329 299.941 41.1573 299.941 41.8768V42.284C299.941 43.5872 300.07 44.5034 300.327 45.0328C300.762 45.8609 301.475 46.2749 302.465 46.2749Z" fill="#58C4DD"/>
<path d="M313.563 40.4511C313.563 39.9082 313.379 39.4398 313.013 39.0462C312.646 38.6525 312.117 38.4557 311.425 38.4557C310.936 38.4557 310.515 38.5439 310.162 38.7204C309.755 38.9783 309.551 39.3312 309.551 39.7792C309.538 39.8471 309.538 39.9353 309.551 40.0439C309.565 40.1525 309.673 40.3154 309.877 40.5326C310.081 40.7498 310.373 40.9194 310.753 41.0416C310.997 41.1095 311.296 41.1706 311.649 41.2249C312.001 41.2792 312.3 41.3403 312.544 41.4081C312.789 41.476 313.006 41.5642 313.196 41.6728C313.427 41.7814 313.651 41.9172 313.868 42.0801C314.085 42.2429 314.302 42.5212 314.52 42.9149C314.737 43.3085 314.852 43.7293 314.866 44.1773C314.866 45.0189 314.608 45.7112 314.092 46.2542C313.576 46.7972 312.741 47.0754 311.587 47.089H311.425C310.719 47.089 310.067 46.8447 309.47 46.356L309.307 46.4985L309.124 46.6818C309.042 46.7632 308.961 46.8379 308.879 46.9058L308.655 47.1094H308.492H308.411C308.37 47.1094 308.309 47.0687 308.228 46.9872V45.3786V44.1977C308.228 43.9126 308.241 43.7429 308.269 43.6886C308.296 43.6343 308.364 43.6004 308.472 43.5868H308.655C308.818 43.5868 308.927 43.614 308.981 43.6683C309.035 43.7226 309.069 43.804 309.083 43.9126C309.097 44.0212 309.144 44.2045 309.226 44.4624C309.307 44.7203 309.436 45.0053 309.612 45.3176C310.087 46.0098 310.746 46.356 311.587 46.356C312.904 46.356 313.563 45.8266 313.563 44.7678C313.563 44.3741 313.44 44.0551 313.196 43.8108C312.925 43.485 312.361 43.2407 311.506 43.0778C310.651 42.9149 310.087 42.7588 309.816 42.6095C309.327 42.3787 308.94 42.0665 308.655 41.6728C308.37 41.2792 308.228 40.8584 308.228 40.4104C308.228 39.881 308.343 39.433 308.574 39.0665C308.805 38.7 309.097 38.4285 309.449 38.2521C309.802 38.0756 310.142 37.9534 310.468 37.8856C310.793 37.8177 311.092 37.7838 311.363 37.7838H311.587C312.13 37.7838 312.606 37.8856 313.013 38.0892L313.318 38.2521L313.501 38.1095C313.637 37.9874 313.787 37.872 313.949 37.7634H314.112H314.194C314.234 37.7634 314.296 37.8041 314.377 37.8856V40.5733L314.255 40.6955H313.685C313.603 40.614 313.563 40.5326 313.563 40.4511Z" fill="#58C4DD"/>
<path d="M316.8 31.6348L316.881 31.6145C316.949 31.6145 317.017 31.6145 317.085 31.6145H317.329L317.9 32.1031C319.176 33.257 320.105 34.6959 320.689 36.4198C321.273 38.1438 321.565 39.9356 321.565 41.7953C321.565 42.7183 321.497 43.6075 321.361 44.4626C321.225 45.3178 321.069 46.0441 320.893 46.6413C320.716 47.2386 320.465 47.8359 320.139 48.4332C319.814 49.0304 319.556 49.4852 319.366 49.7974C319.176 50.1096 318.897 50.4557 318.531 50.8358C318.164 51.2159 317.947 51.4399 317.879 51.5078C317.811 51.5756 317.655 51.7046 317.411 51.8946C317.37 51.9354 317.343 51.9625 317.329 51.9761H317.085C316.976 51.9761 316.902 51.9761 316.861 51.9761C316.82 51.9761 316.786 51.9557 316.759 51.915C316.732 51.8743 316.712 51.8132 316.698 51.7317C316.712 51.7182 316.786 51.6299 316.922 51.467C319.026 49.2816 320.078 46.0576 320.078 41.7953C320.078 37.5329 319.026 34.309 316.922 32.1235C316.786 31.9606 316.712 31.8724 316.698 31.8588C316.698 31.7502 316.732 31.6755 316.8 31.6348Z" fill="white"/>
<path d="M292.997 61.4036C293.011 61.4036 293.5 61.3696 294.463 61.3018C295.427 61.2339 295.923 61.1932 295.95 61.1796C296.113 61.1796 296.194 61.2339 296.194 61.3425C296.194 61.4375 295.699 63.4872 294.708 67.4917C293.717 71.4961 293.208 73.5391 293.181 73.6205C293.153 73.702 293.147 73.8038 293.16 73.926C293.16 74.4961 293.35 74.7811 293.73 74.7811C293.852 74.7676 293.988 74.7065 294.138 74.5979C294.423 74.3264 294.701 73.6748 294.972 72.6432C295.054 72.3717 295.122 72.2292 295.176 72.2156C295.203 72.202 295.271 72.1952 295.38 72.1952H295.461H295.542C295.746 72.1952 295.848 72.2495 295.848 72.3581C295.848 72.426 295.828 72.5346 295.787 72.6839C295.61 73.3626 295.407 73.9124 295.176 74.3332C294.945 74.754 294.755 75.0255 294.606 75.1477C294.457 75.2698 294.266 75.3784 294.036 75.4734C293.927 75.5006 293.764 75.5142 293.547 75.5142C293.086 75.5142 292.699 75.4124 292.386 75.2087C292.074 75.0051 291.871 74.7947 291.776 74.5775L291.653 74.2721C291.64 74.2585 291.613 74.2653 291.572 74.2925C291.545 74.3196 291.518 74.3468 291.491 74.3739C290.69 75.1341 289.875 75.5142 289.047 75.5142C288.301 75.5142 287.642 75.2427 287.072 74.6997C286.502 74.1567 286.217 73.2947 286.217 72.1138C286.217 71.4622 286.353 70.7971 286.624 70.1183C286.896 69.4396 287.221 68.8559 287.601 68.3672C288.239 67.5935 288.877 67.0573 289.515 66.7587C290.153 66.46 290.73 66.3107 291.246 66.3107C292.006 66.3107 292.576 66.5958 292.957 67.1659C293.024 67.2473 293.058 67.2745 293.058 67.2473C293.072 67.193 293.255 66.4532 293.608 65.0279C293.961 63.6026 294.151 62.8492 294.178 62.7678C294.178 62.5913 294.131 62.4827 294.036 62.442C293.941 62.4013 293.676 62.3673 293.242 62.3402H292.814C292.733 62.2587 292.692 62.2045 292.692 62.1773C292.692 62.1502 292.705 62.0212 292.733 61.7904C292.8 61.5325 292.889 61.4036 292.997 61.4036ZM292.712 68.6727C292.4 67.6003 291.891 67.0641 291.185 67.0641C290.71 67.0641 290.255 67.2745 289.821 67.6953C289.386 68.1161 289.047 68.6659 288.803 69.3446C288.409 70.417 288.131 71.5301 287.968 72.6839C287.968 72.7246 287.968 72.7993 287.968 72.9079C287.968 73.0165 287.961 73.0979 287.948 73.1522C287.948 73.7631 288.07 74.1839 288.314 74.4146C288.558 74.6454 288.85 74.7676 289.19 74.7811C289.923 74.7811 290.676 74.2925 291.45 73.3151L291.613 73.0911L292.712 68.6727Z" fill="white"/>
<path d="M297.192 69.4262C297.287 68.8561 297.653 68.1977 298.291 67.4511C298.929 66.7045 299.717 66.3244 300.653 66.3109C301.128 66.3109 301.563 66.433 301.956 66.6774C302.35 66.9217 302.642 67.2271 302.832 67.5936C303.402 66.7385 304.088 66.3109 304.888 66.3109C305.391 66.3109 305.825 66.4602 306.192 66.7588C306.558 67.0574 306.748 67.4579 306.762 67.9601C306.762 68.3538 306.667 68.6728 306.477 68.9171C306.287 69.1615 306.103 69.3108 305.927 69.3651C305.75 69.4194 305.594 69.4465 305.459 69.4465C305.201 69.4465 304.99 69.3719 304.827 69.2226C304.664 69.0732 304.583 68.8764 304.583 68.6321C304.583 68.0077 304.922 67.5801 305.601 67.3493C305.452 67.1728 305.18 67.0846 304.787 67.0846C304.61 67.0846 304.481 67.0982 304.4 67.1253C303.884 67.3425 303.504 67.7905 303.26 68.4692C302.445 71.4691 302.038 73.2202 302.038 73.7225C302.038 74.1026 302.146 74.3741 302.364 74.5369C302.581 74.6998 302.818 74.7813 303.076 74.7813C303.579 74.7813 304.074 74.5573 304.563 74.1094C305.051 73.6614 305.384 73.1116 305.56 72.4601C305.601 72.3243 305.642 72.2497 305.683 72.2361C305.723 72.2225 305.832 72.2089 306.008 72.1954H306.09C306.293 72.1954 306.395 72.2497 306.395 72.3583C306.395 72.3718 306.382 72.4465 306.355 72.5822C306.137 73.356 305.717 74.0415 305.092 74.6388C304.468 75.236 303.741 75.5347 302.913 75.5347C301.963 75.5347 301.244 75.1071 300.755 74.2519C300.199 75.0935 299.561 75.5143 298.841 75.5143H298.719C298.054 75.5143 297.579 75.3378 297.294 74.9849C297.009 74.632 296.859 74.2587 296.846 73.865C296.846 73.4306 296.975 73.0777 297.233 72.8062C297.49 72.5347 297.796 72.399 298.149 72.399C298.732 72.399 299.024 72.684 299.024 73.2542C299.024 73.5257 298.943 73.7632 298.78 73.9668C298.617 74.1704 298.461 74.3062 298.312 74.3741C298.162 74.4419 298.074 74.4759 298.047 74.4759L297.986 74.4962C297.986 74.5098 298.027 74.5369 298.108 74.5777C298.19 74.6184 298.298 74.6659 298.434 74.7202C298.57 74.7745 298.699 74.7949 298.821 74.7813C299.309 74.7813 299.73 74.4759 300.083 73.865C300.205 73.6478 300.361 73.1863 300.551 72.4804C300.741 71.7746 300.932 71.0415 301.122 70.2814C301.312 69.5212 301.42 69.0732 301.447 68.9375C301.515 68.571 301.549 68.3063 301.549 68.1434C301.549 67.7633 301.447 67.4918 301.244 67.3289C301.04 67.166 300.809 67.0846 300.551 67.0846C300.008 67.0846 299.499 67.3018 299.024 67.7362C298.549 68.1706 298.217 68.7271 298.027 69.4058C297.999 69.528 297.966 69.5959 297.925 69.6094C297.884 69.623 297.775 69.6366 297.599 69.6502H297.314C297.233 69.5687 297.192 69.4941 297.192 69.4262Z" fill="white"/>
<path d="M325.535 56.8633H267.79V55.6416H325.535V56.8633Z" fill="white"/>
<path d="M329.893 56.2523C329.893 55.3157 329.96 54.4265 330.096 53.5849C330.232 52.7433 330.388 52.0171 330.564 51.4062C330.741 50.7954 330.992 50.1981 331.318 49.6144C331.644 49.0307 331.902 48.576 332.092 48.2502C332.282 47.9244 332.567 47.5715 332.947 47.1914C333.327 46.8113 333.551 46.5805 333.619 46.4991C333.687 46.4176 333.856 46.2751 334.128 46.0715H334.392H334.474C334.664 46.0715 334.759 46.1326 334.759 46.2547C334.759 46.2955 334.644 46.438 334.413 46.6823C334.182 46.9267 333.904 47.2864 333.578 47.7615C333.252 48.2366 332.92 48.8203 332.58 49.5126C332.241 50.2049 331.956 51.1415 331.725 52.3225C331.494 53.5035 331.379 54.8134 331.379 56.2523C331.379 57.6912 331.494 58.9943 331.725 60.1617C331.956 61.3291 332.234 62.2725 332.56 62.992C332.886 63.7114 333.218 64.2951 333.558 64.7431C333.897 65.191 334.182 65.5508 334.413 65.8223C334.644 66.0937 334.759 66.2363 334.759 66.2499C334.759 66.372 334.657 66.4331 334.454 66.4331H334.392H334.128L333.558 65.9444C332.282 64.7906 331.352 63.3517 330.768 61.6278C330.184 59.9038 329.893 58.112 329.893 56.2523Z" fill="white"/>
<path d="M336.958 55.4579C337.053 54.8878 337.42 54.2294 338.058 53.4828C338.696 52.7363 339.483 52.3562 340.419 52.3426C340.895 52.3426 341.329 52.4648 341.723 52.7091C342.116 52.9534 342.408 53.2589 342.598 53.6254C343.168 52.7702 343.854 52.3426 344.655 52.3426C345.157 52.3426 345.591 52.4919 345.958 52.7906C346.324 53.0892 346.514 53.4896 346.528 53.9919C346.528 54.3855 346.433 54.7045 346.243 54.9489C346.053 55.1932 345.87 55.3425 345.693 55.3968C345.517 55.4511 345.361 55.4783 345.225 55.4783C344.967 55.4783 344.757 55.4036 344.594 55.2543C344.431 55.105 344.349 54.9082 344.349 54.6638C344.349 54.0394 344.689 53.6118 345.367 53.381C345.218 53.2046 344.947 53.1163 344.553 53.1163C344.376 53.1163 344.247 53.1299 344.166 53.1571C343.65 53.3743 343.27 53.8222 343.026 54.5009C342.211 57.5009 341.804 59.252 341.804 59.7542C341.804 60.1343 341.913 60.4058 342.13 60.5687C342.347 60.7316 342.585 60.813 342.843 60.813C343.345 60.813 343.84 60.589 344.329 60.1411C344.818 59.6931 345.15 59.1434 345.327 58.4918C345.367 58.3561 345.408 58.2814 345.449 58.2678C345.49 58.2543 345.598 58.2407 345.775 58.2271H345.856C346.06 58.2271 346.161 58.2814 346.161 58.39C346.161 58.4036 346.148 58.4782 346.121 58.614C345.904 59.3877 345.483 60.0732 344.858 60.6705C344.234 61.2678 343.508 61.5664 342.68 61.5664C341.729 61.5664 341.01 61.1388 340.521 60.2836C339.965 61.1252 339.327 61.546 338.607 61.546H338.485C337.82 61.546 337.345 61.3696 337.06 61.0166C336.775 60.6637 336.625 60.2904 336.612 59.8968C336.612 59.4624 336.741 59.1094 336.999 58.838C337.257 58.5665 337.562 58.4307 337.915 58.4307C338.499 58.4307 338.791 58.7158 338.791 59.2859C338.791 59.5574 338.709 59.7949 338.546 59.9986C338.383 60.2022 338.227 60.3379 338.078 60.4058C337.929 60.4737 337.84 60.5076 337.813 60.5076L337.752 60.528C337.752 60.5415 337.793 60.5687 337.874 60.6094C337.956 60.6501 338.064 60.6976 338.2 60.7519C338.336 60.8062 338.465 60.8266 338.587 60.813C339.076 60.813 339.496 60.5076 339.849 59.8968C339.972 59.6796 340.128 59.218 340.318 58.5122C340.508 57.8063 340.698 57.0733 340.888 56.3131C341.078 55.5529 341.186 55.105 341.214 54.9692C341.281 54.6027 341.315 54.338 341.315 54.1751C341.315 53.7951 341.214 53.5236 341.01 53.3607C340.806 53.1978 340.576 53.1163 340.318 53.1163C339.775 53.1163 339.266 53.3335 338.791 53.7679C338.315 54.2023 337.983 54.7588 337.793 55.4376C337.766 55.5597 337.732 55.6276 337.691 55.6412C337.65 55.6548 337.542 55.6683 337.365 55.6819H337.08C336.999 55.6005 336.958 55.5258 336.958 55.4579Z" fill="white"/>
<path d="M348.768 46.0919L348.849 46.0715C348.917 46.0715 348.985 46.0715 349.053 46.0715H349.297L349.867 46.5602C351.143 47.714 352.073 49.1529 352.657 50.8768C353.241 52.6008 353.532 54.3926 353.532 56.2523C353.532 57.1754 353.465 58.0645 353.329 58.9197C353.193 59.7749 353.037 60.5011 352.86 61.0984C352.684 61.6956 352.433 62.2929 352.107 62.8902C351.781 63.4875 351.523 63.9422 351.333 64.2544C351.143 64.5666 350.865 64.9128 350.498 65.2929C350.132 65.6729 349.915 65.8969 349.847 65.9648C349.779 66.0327 349.623 66.1616 349.379 66.3517C349.338 66.3924 349.311 66.4195 349.297 66.4331H349.053C348.944 66.4331 348.87 66.4331 348.829 66.4331C348.788 66.4331 348.754 66.4127 348.727 66.372C348.7 66.3313 348.68 66.2702 348.666 66.1888C348.68 66.1752 348.754 66.087 348.89 65.9241C350.994 63.7386 352.046 60.5147 352.046 56.2523C352.046 51.9899 350.994 48.766 348.89 46.5805C348.754 46.4176 348.68 46.3294 348.666 46.3158C348.666 46.2072 348.7 46.1326 348.768 46.0919Z" fill="white"/>
<path d="M362.263 54.2774C362.263 54.1009 362.358 53.9652 362.548 53.8701H375.519C375.722 53.9787 375.824 54.1145 375.824 54.2774C375.824 54.4267 375.729 54.5557 375.539 54.6643L369.064 54.6846H362.589C362.372 54.6167 362.263 54.481 362.263 54.2774ZM362.263 58.2275C362.263 58.0239 362.372 57.8882 362.589 57.8203H375.539C375.729 57.956 375.824 58.0918 375.824 58.2275C375.824 58.404 375.722 58.5397 375.519 58.6348H362.548C362.358 58.5397 362.263 58.404 362.263 58.2275Z" fill="white"/>
<path d="M384.331 56.5166C384.331 56.5166 384.331 56.4284 384.331 56.2519C384.331 56.0755 384.426 55.9397 384.616 55.8447H396.447C396.65 55.9533 396.752 56.0891 396.752 56.2519C396.752 56.4148 396.65 56.5506 396.447 56.6592H384.616C384.426 56.5642 384.331 56.4284 384.331 56.2519V56.5166Z" fill="#FFF777"/>
<path d="M407.861 54.9082C407.861 54.3652 407.678 53.8969 407.311 53.5032C406.945 53.1095 406.416 52.9127 405.723 52.9127C405.235 52.9127 404.814 53.001 404.461 53.1774C404.054 53.4353 403.85 53.7883 403.85 54.2362C403.836 54.3041 403.836 54.3923 403.85 54.5009C403.864 54.6095 403.972 54.7724 404.176 54.9896C404.379 55.2068 404.671 55.3765 405.051 55.4986C405.296 55.5665 405.594 55.6276 405.947 55.6819C406.3 55.7362 406.599 55.7973 406.843 55.8652C407.087 55.933 407.305 56.0213 407.495 56.1299C407.725 56.2385 407.949 56.3742 408.167 56.5371C408.384 56.7 408.601 56.9783 408.818 57.3719C409.035 57.7656 409.151 58.1864 409.164 58.6343C409.164 59.4759 408.906 60.1682 408.391 60.7112C407.875 61.2542 407.04 61.5325 405.886 61.546H405.723C405.017 61.546 404.366 61.3017 403.769 60.813L403.606 60.9556L403.422 61.1388C403.341 61.2203 403.26 61.2949 403.178 61.3628L402.954 61.5664H402.791H402.71C402.669 61.5664 402.608 61.5257 402.526 61.4442V59.8357V58.6547C402.526 58.3696 402.54 58.2 402.567 58.1457C402.594 58.0914 402.662 58.0574 402.771 58.0438H402.954C403.117 58.0438 403.226 58.071 403.28 58.1253C403.334 58.1796 403.368 58.261 403.382 58.3696C403.395 58.4782 403.443 58.6615 403.524 58.9194C403.606 59.1773 403.735 59.4624 403.911 59.7746C404.386 60.4669 405.045 60.813 405.886 60.813C407.203 60.813 407.861 60.2836 407.861 59.2248C407.861 58.8312 407.739 58.5122 407.495 58.2678C407.223 57.942 406.66 57.6977 405.805 57.5348C404.95 57.3719 404.386 57.2158 404.115 57.0665C403.626 56.8357 403.239 56.5235 402.954 56.1299C402.669 55.7362 402.526 55.3154 402.526 54.8674C402.526 54.338 402.642 53.8901 402.873 53.5236C403.103 53.1571 403.395 52.8856 403.748 52.7091C404.101 52.5326 404.44 52.4105 404.766 52.3426C405.092 52.2747 405.391 52.2408 405.662 52.2408H405.886C406.429 52.2408 406.904 52.3426 407.311 52.5462L407.617 52.7091L407.8 52.5666C407.936 52.4444 408.085 52.329 408.248 52.2204H408.411H408.492C408.533 52.2204 408.594 52.2611 408.676 52.3426V55.0303L408.554 55.1525H407.983C407.902 55.0711 407.861 54.9896 407.861 54.9082Z" fill="#FFF777"/>
<path d="M411.282 48.9421C411.282 48.562 411.404 48.2633 411.648 48.0462C411.893 47.829 412.191 47.7204 412.544 47.7204C412.857 47.7475 413.128 47.8629 413.359 48.0665C413.59 48.2701 413.705 48.562 413.705 48.9421C413.705 49.3493 413.59 49.6547 413.359 49.8583C413.128 50.062 412.843 50.1638 412.504 50.1638C412.164 50.1638 411.879 50.062 411.648 49.8583C411.418 49.6547 411.296 49.3493 411.282 48.9421ZM414.906 61.3423C414.703 61.3016 413.997 61.2812 412.789 61.2812C412.639 61.2812 412.388 61.2812 412.035 61.2812C411.682 61.2812 411.343 61.2948 411.017 61.3219L410.569 61.3423H410.406V60.4057H410.732C411.112 60.4057 411.445 60.3853 411.73 60.3446C411.852 60.2903 411.927 60.2156 411.954 60.1206C411.981 60.0256 411.995 59.7405 411.995 59.2654V57.1682V55.3763C411.995 54.6705 411.981 54.2225 411.954 54.0325C411.927 53.8424 411.832 53.7135 411.669 53.6456C411.479 53.5506 411.16 53.5031 410.712 53.5031H410.488V53.0347C410.488 52.7225 410.501 52.5664 410.529 52.5664L410.732 52.5461C410.868 52.5325 411.058 52.5189 411.302 52.5053C411.547 52.4918 411.791 52.4782 412.035 52.4646C412.266 52.451 412.51 52.4375 412.768 52.4239C413.026 52.4103 413.223 52.39 413.359 52.3628C413.495 52.3357 413.569 52.3289 413.583 52.3425H413.644V60.0799C413.712 60.2156 413.793 60.2971 413.888 60.3242C413.983 60.3514 414.221 60.3785 414.601 60.4057H415.069V61.3423H414.906Z" fill="#FFF777"/>
<path d="M416.372 60.4057H416.657C417.187 60.4057 417.506 60.3106 417.614 60.1206V59.9577C417.614 59.8355 417.614 59.6794 417.614 59.4894C417.614 59.2993 417.614 59.0889 417.614 58.8582C417.614 58.6274 417.621 58.3627 417.635 58.0641C417.648 57.7654 417.648 57.4804 417.635 57.2089C417.635 56.7881 417.635 56.3401 417.635 55.865C417.635 55.3899 417.628 54.9895 417.614 54.6637V54.1954C417.574 53.9374 417.479 53.7678 417.329 53.6863C417.18 53.6049 416.875 53.5438 416.413 53.5031H416.047V53.0347C416.047 52.7225 416.06 52.5664 416.087 52.5664L416.291 52.5461C416.427 52.5325 416.617 52.5189 416.861 52.5053C417.105 52.4918 417.357 52.4782 417.614 52.4646C417.845 52.451 418.09 52.4375 418.347 52.4239C418.605 52.4103 418.802 52.39 418.938 52.3628C419.074 52.3357 419.148 52.3289 419.162 52.3425H419.223V53.1569C419.223 53.6727 419.23 53.9307 419.243 53.9307C419.257 53.9307 419.291 53.8967 419.345 53.8288C419.399 53.761 419.481 53.6592 419.59 53.5234C419.698 53.3877 419.827 53.2655 419.976 53.1569C420.126 53.0483 420.323 52.9194 420.567 52.77C420.811 52.6207 421.069 52.5121 421.341 52.4443C421.612 52.3764 421.958 52.3425 422.379 52.3425C423.927 52.3967 424.789 53.1637 424.965 54.6433C424.979 54.7383 424.985 55.6818 424.985 57.4736V59.2247C424.985 59.7405 424.999 60.0459 425.026 60.1409C425.053 60.236 425.128 60.3038 425.25 60.3446C425.535 60.3853 425.868 60.4057 426.248 60.4057H426.574V61.3423H426.411L425.922 61.3219C425.61 61.3083 425.27 61.3016 424.904 61.3016C424.537 61.3016 424.279 61.2948 424.13 61.2812C422.732 61.2812 421.972 61.3016 421.85 61.3423H421.687V60.4057H422.013C422.841 60.4057 423.255 60.2971 423.255 60.0799C423.268 60.0527 423.275 59.1161 423.275 57.27C423.261 55.4374 423.248 54.4668 423.234 54.3583C423.153 53.9782 423.017 53.6931 422.827 53.5031C422.637 53.313 422.474 53.1976 422.338 53.1569C422.203 53.1162 422.026 53.1026 421.809 53.1162C421.198 53.1162 420.662 53.347 420.2 53.8085C419.834 54.175 419.603 54.5483 419.508 54.9284C419.413 55.3085 419.359 55.8718 419.345 56.6184V57.9215V59.1432C419.345 59.5505 419.352 59.822 419.366 59.9577C419.379 60.0934 419.399 60.1817 419.427 60.2224C419.454 60.2631 419.515 60.3038 419.61 60.3446C419.895 60.3853 420.228 60.4057 420.608 60.4057H420.933V61.3423H420.77L420.302 61.3219C419.976 61.3083 419.63 61.3016 419.264 61.3016C418.897 61.3016 418.639 61.2948 418.49 61.2812C417.092 61.2812 416.332 61.3016 416.209 61.3423H416.047V60.4057H416.372Z" fill="#FFF777"/>
<path d="M428.773 56.2523C428.773 55.3157 428.84 54.4265 428.976 53.5849C429.112 52.7433 429.268 52.0171 429.445 51.4062C429.621 50.7954 429.872 50.1981 430.198 49.6144C430.524 49.0307 430.782 48.576 430.972 48.2502C431.162 47.9244 431.447 47.5715 431.827 47.1914C432.207 46.8113 432.431 46.5805 432.499 46.4991C432.567 46.4176 432.736 46.2751 433.008 46.0715H433.273H433.354C433.544 46.0715 433.639 46.1326 433.639 46.2547C433.639 46.2955 433.524 46.438 433.293 46.6823C433.062 46.9267 432.784 47.2864 432.458 47.7615C432.132 48.2366 431.8 48.8203 431.46 49.5126C431.121 50.2049 430.836 51.1415 430.605 52.3225C430.374 53.5035 430.259 54.8134 430.259 56.2523C430.259 57.6912 430.374 58.9943 430.605 60.1617C430.836 61.3291 431.114 62.2725 431.44 62.992C431.766 63.7114 432.098 64.2951 432.438 64.7431C432.777 65.191 433.062 65.5508 433.293 65.8223C433.524 66.0937 433.639 66.2363 433.639 66.2499C433.639 66.372 433.537 66.4331 433.334 66.4331H433.273H433.008L432.438 65.9444C431.162 64.7906 430.232 63.3517 429.648 61.6278C429.064 59.9038 428.773 58.112 428.773 56.2523Z" fill="#FFF777"/>
<path d="M435.838 55.4579C435.933 54.8878 436.3 54.2294 436.938 53.4828C437.576 52.7363 438.363 52.3562 439.3 52.3426C439.775 52.3426 440.209 52.4648 440.603 52.7091C440.996 52.9534 441.288 53.2589 441.478 53.6254C442.048 52.7702 442.734 52.3426 443.535 52.3426C444.037 52.3426 444.471 52.4919 444.838 52.7906C445.204 53.0892 445.394 53.4896 445.408 53.9919C445.408 54.3855 445.313 54.7045 445.123 54.9489C444.933 55.1932 444.75 55.3425 444.573 55.3968C444.397 55.4511 444.241 55.4783 444.105 55.4783C443.847 55.4783 443.637 55.4036 443.474 55.2543C443.311 55.105 443.229 54.9082 443.229 54.6638C443.229 54.0394 443.569 53.6118 444.247 53.381C444.098 53.2046 443.827 53.1163 443.433 53.1163C443.257 53.1163 443.128 53.1299 443.046 53.1571C442.53 53.3743 442.15 53.8222 441.906 54.5009C441.091 57.5009 440.684 59.252 440.684 59.7542C440.684 60.1343 440.793 60.4058 441.01 60.5687C441.227 60.7316 441.465 60.813 441.723 60.813C442.225 60.813 442.72 60.589 443.209 60.1411C443.698 59.6931 444.03 59.1434 444.207 58.4918C444.247 58.3561 444.288 58.2814 444.329 58.2678C444.37 58.2543 444.478 58.2407 444.655 58.2271H444.736C444.94 58.2271 445.042 58.2814 445.042 58.39C445.042 58.4036 445.028 58.4782 445.001 58.614C444.784 59.3877 444.363 60.0732 443.738 60.6705C443.114 61.2678 442.388 61.5664 441.56 61.5664C440.609 61.5664 439.89 61.1388 439.401 60.2836C438.845 61.1252 438.207 61.546 437.487 61.546H437.365C436.7 61.546 436.225 61.3696 435.94 61.0166C435.655 60.6637 435.506 60.2904 435.492 59.8968C435.492 59.4624 435.621 59.1094 435.879 58.838C436.137 58.5665 436.442 58.4307 436.795 58.4307C437.379 58.4307 437.671 58.7158 437.671 59.2859C437.671 59.5574 437.589 59.7949 437.426 59.9986C437.263 60.2022 437.107 60.3379 436.958 60.4058C436.809 60.4737 436.72 60.5076 436.693 60.5076L436.632 60.528C436.632 60.5415 436.673 60.5687 436.754 60.6094C436.836 60.6501 436.944 60.6976 437.08 60.7519C437.216 60.8062 437.345 60.8266 437.467 60.813C437.956 60.813 438.377 60.5076 438.729 59.8968C438.852 59.6796 439.008 59.218 439.198 58.5122C439.388 57.8063 439.578 57.0733 439.768 56.3131C439.958 55.5529 440.067 55.105 440.094 54.9692C440.162 54.6027 440.195 54.338 440.195 54.1751C440.195 53.7951 440.094 53.5236 439.89 53.3607C439.686 53.1978 439.456 53.1163 439.198 53.1163C438.655 53.1163 438.146 53.3335 437.671 53.7679C437.196 54.2023 436.863 54.7588 436.673 55.4376C436.646 55.5597 436.612 55.6276 436.571 55.6412C436.53 55.6548 436.422 55.6683 436.245 55.6819H435.96C435.879 55.6005 435.838 55.5258 435.838 55.4579Z" fill="#FFF777"/>
<path d="M447.648 46.0919L447.729 46.0715C447.797 46.0715 447.865 46.0715 447.933 46.0715H448.177L448.747 46.5602C450.023 47.714 450.953 49.1529 451.537 50.8768C452.121 52.6008 452.412 54.3926 452.412 56.2523C452.412 57.1754 452.345 58.0645 452.209 58.9197C452.073 59.7749 451.917 60.5011 451.74 61.0984C451.564 61.6956 451.313 62.2929 450.987 62.8902C450.661 63.4875 450.403 63.9422 450.213 64.2544C450.023 64.5666 449.745 64.9128 449.379 65.2929C449.012 65.6729 448.795 65.8969 448.727 65.9648C448.659 66.0327 448.503 66.1616 448.259 66.3517C448.218 66.3924 448.191 66.4195 448.177 66.4331H447.933C447.824 66.4331 447.75 66.4331 447.709 66.4331C447.668 66.4331 447.634 66.4127 447.607 66.372C447.58 66.3313 447.56 66.2702 447.546 66.1888C447.56 66.1752 447.634 66.087 447.77 65.9241C449.874 63.7386 450.926 60.5147 450.926 56.2523C450.926 51.9899 449.874 48.766 447.77 46.5805C447.634 46.4176 447.56 46.3294 447.546 46.3158C447.546 46.2072 447.58 46.1326 447.648 46.0919Z" fill="#FFF777"/>
</g>
<defs>
<clipPath id="clip0_799_19613">
<rect width="600" height="286.875" fill="white" transform="translate(60 56.436)"/>
</clipPath>
<clipPath id="clip1_799_19613">
<rect width="11.61" height="9" fill="white" transform="translate(354.042 233.937)"/>
</clipPath>
<clipPath id="clip2_799_19613">
<rect width="21.789" height="13.788" fill="white" transform="translate(649.106 231.543)"/>
</clipPath>
<clipPath id="clip3_799_19613">
<rect width="20.565" height="36.513" fill="white" transform="translate(199.717 220.18)"/>
</clipPath>
<clipPath id="clip4_799_19613">
<rect width="30.744" height="41.274" fill="white" transform="translate(494.628 217.8)"/>
</clipPath>
<clipPath id="clip5_799_19613">
<rect width="189.009" height="43.92" fill="white" transform="translate(265.342 31.6147)"/>
</clipPath>
</defs>
</svg>
