<svg width="640" height="360" viewBox="0 0 640 360" fill="none" xmlns="http://www.w3.org/2000/svg">
<g clip-path="url(#clip0_1583_374)">
<path d="M640 0H0V360H640V0Z" fill="black"/>
<g clip-path="url(#clip1_1583_374)">
<path d="M0 5H640" stroke="#303030" stroke-width="1.5"/>
<path d="M0 55H640" stroke="#303030" stroke-width="1.5"/>
<path d="M0 105H640" stroke="#303030" stroke-width="1.5"/>
<path d="M0 155H640" stroke="#303030" stroke-width="1.5"/>
<path d="M0 205H640" stroke="#303030" stroke-width="1.5"/>
<path d="M0 255H640" stroke="#303030" stroke-width="1.5"/>
<path d="M0 305H640" stroke="#303030" stroke-width="1.5"/>
<path d="M0 355H640" stroke="#303030" stroke-width="1.5"/>
<path d="M45 0V360" stroke="#303030" stroke-width="1.5"/>
<path d="M95 0V360" stroke="#303030" stroke-width="1.5"/>
<path d="M145 0V360" stroke="#303030" stroke-width="1.5"/>
<path d="M195 0V360" stroke="#303030" stroke-width="1.5"/>
<path d="M245 0V360" stroke="#303030" stroke-width="1.5"/>
<path d="M295 0V360" stroke="#303030" stroke-width="1.5"/>
<path d="M345 0V360" stroke="#303030" stroke-width="1.5"/>
<path d="M395 0V360" stroke="#303030" stroke-width="1.5"/>
<path d="M445 0V360" stroke="#303030" stroke-width="1.5"/>
<path d="M495 0V360" stroke="#303030" stroke-width="1.5"/>
<path d="M545 0V360" stroke="#303030" stroke-width="1.5"/>
<path d="M595 0V360" stroke="#303030" stroke-width="1.5"/>
<path d="M0 30H640" stroke="#505050" stroke-width="1.5"/>
<path d="M0 80H640" stroke="#505050" stroke-width="1.5"/>
<path d="M0 130H640" stroke="#505050" stroke-width="1.5"/>
<path d="M0 180H640" stroke="#505050" stroke-width="1.5"/>
<path d="M0 230H640" stroke="#505050" stroke-width="1.5"/>
<path d="M0 280H640" stroke="#505050" stroke-width="1.5"/>
<path d="M0 330H640" stroke="#505050" stroke-width="1.5"/>
<path d="M20 0V360" stroke="#505050" stroke-width="1.5"/>
<path d="M70 0V360" stroke="#505050" stroke-width="1.5"/>
<path d="M120 0V360" stroke="#505050" stroke-width="1.5"/>
<path d="M170 0V360" stroke="#505050" stroke-width="1.5"/>
<path d="M220 0V360" stroke="#505050" stroke-width="1.5"/>
<path d="M270 0V360" stroke="#505050" stroke-width="1.5"/>
<path d="M320 0V360" stroke="#505050" stroke-width="1.5"/>
<path d="M370 0V360" stroke="#505050" stroke-width="1.5"/>
<path d="M420 0V360" stroke="#505050" stroke-width="1.5"/>
<path d="M470 0V360" stroke="#505050" stroke-width="1.5"/>
<path d="M520 0V360" stroke="#505050" stroke-width="1.5"/>
<path d="M570 0V360" stroke="#505050" stroke-width="1.5"/>
<path d="M620 0V360" stroke="#505050" stroke-width="1.5"/>
</g>
<path d="M625 173.25L640 180L625 186.75L628 180L625 173.25Z" fill="#C0C0C0"/>
<path d="M15 186.75L0 180L15 173.25L12 180L15 186.75Z" fill="#C0C0C0"/>
<path d="M4 180H636" stroke="#C0C0C0" stroke-width="1.5"/>
<path d="M326.75 345L320 360L313.25 345L320 348L326.75 345Z" fill="#C0C0C0"/>
<path d="M313.25 15L320 0L326.75 15L320 12L313.25 15Z" fill="#C0C0C0"/>
<path d="M320 4V356" stroke="#C0C0C0" stroke-width="1.5"/>
<path d="M617.498 171.529H599.884V186.473H617.498V171.529Z" fill="black"/>
<g clip-path="url(#clip2_1583_374)">
<path d="M604.216 178.54C604.308 177.989 604.662 177.353 605.279 176.631C605.895 175.91 606.656 175.542 607.562 175.529C608.021 175.529 608.441 175.647 608.821 175.883C609.202 176.12 609.484 176.415 609.668 176.769C610.219 175.942 610.881 175.529 611.656 175.529C612.141 175.529 612.561 175.673 612.915 175.962C613.269 176.251 613.453 176.638 613.466 177.123C613.466 177.504 613.374 177.812 613.191 178.048C613.007 178.285 612.83 178.429 612.659 178.481C612.489 178.534 612.338 178.56 612.207 178.56C611.957 178.56 611.754 178.488 611.596 178.344C611.439 178.199 611.36 178.009 611.36 177.773C611.36 177.169 611.688 176.756 612.344 176.533C612.2 176.362 611.938 176.277 611.557 176.277C611.387 176.277 611.262 176.29 611.183 176.316C610.685 176.526 610.317 176.959 610.081 177.615C609.294 180.515 608.9 182.208 608.9 182.693C608.9 183.061 609.005 183.323 609.215 183.48C609.425 183.638 609.655 183.717 609.904 183.717C610.389 183.717 610.868 183.5 611.341 183.067C611.813 182.634 612.134 182.103 612.305 181.473C612.344 181.342 612.384 181.27 612.423 181.256C612.462 181.243 612.567 181.23 612.738 181.217H612.817C613.014 181.217 613.112 181.27 613.112 181.375C613.112 181.388 613.099 181.46 613.073 181.591C612.863 182.339 612.456 183.002 611.852 183.579C611.249 184.156 610.547 184.445 609.746 184.445C608.828 184.445 608.133 184.032 607.66 183.205C607.122 184.018 606.506 184.425 605.81 184.425H605.692C605.049 184.425 604.59 184.255 604.314 183.913C604.039 183.572 603.894 183.211 603.881 182.831C603.881 182.411 604.006 182.07 604.255 181.808C604.505 181.545 604.8 181.414 605.141 181.414C605.705 181.414 605.987 181.689 605.987 182.24C605.987 182.503 605.909 182.733 605.751 182.929C605.594 183.126 605.443 183.257 605.298 183.323C605.154 183.389 605.069 183.421 605.043 183.421L604.984 183.441C604.984 183.454 605.023 183.48 605.102 183.52C605.18 183.559 605.285 183.605 605.417 183.658C605.548 183.71 605.672 183.73 605.79 183.717C606.263 183.717 606.67 183.421 607.011 182.831C607.129 182.621 607.28 182.175 607.463 181.493C607.647 180.81 607.831 180.102 608.014 179.367C608.198 178.632 608.303 178.199 608.329 178.068C608.395 177.714 608.428 177.458 608.428 177.3C608.428 176.933 608.329 176.671 608.133 176.513C607.936 176.356 607.713 176.277 607.463 176.277C606.939 176.277 606.446 176.487 605.987 176.907C605.528 177.327 605.207 177.865 605.023 178.521C604.997 178.639 604.964 178.704 604.924 178.718C604.885 178.731 604.78 178.744 604.61 178.757H604.334C604.255 178.678 604.216 178.606 604.216 178.54Z" fill="#C0C0C0"/>
</g>
<path d="M329.108 21.6108H311.723V40.3881H329.108V21.6108Z" fill="black"/>
<g clip-path="url(#clip3_1583_374)">
<path d="M315.722 28.6627C315.722 28.4789 315.82 28.164 316.017 27.7177C316.214 27.2715 316.529 26.8056 316.962 26.32C317.395 25.8345 317.881 25.5982 318.419 25.6113C318.957 25.6113 319.39 25.7623 319.718 26.0641C320.046 26.366 320.217 26.7859 320.23 27.324C320.204 27.5734 320.184 27.7112 320.171 27.7374C320.171 27.7768 320.066 28.0786 319.856 28.643C319.646 29.2073 319.429 29.8438 319.206 30.5525C318.983 31.2612 318.878 31.8255 318.891 32.2455C318.891 32.8098 318.983 33.2036 319.167 33.4267C319.351 33.6498 319.626 33.7679 319.994 33.781C320.296 33.781 320.578 33.7088 320.84 33.5645C321.103 33.4201 321.306 33.2692 321.451 33.1117C321.595 32.9542 321.772 32.7377 321.982 32.462C321.982 32.4489 322.015 32.3177 322.081 32.0683C322.146 31.819 322.238 31.4318 322.356 30.9069C322.474 30.3819 322.599 29.8963 322.73 29.4501C323.229 27.4815 323.504 26.4513 323.557 26.3594C323.728 26.0051 324.01 25.8279 324.403 25.8279C324.574 25.8279 324.712 25.8738 324.817 25.9657C324.922 26.0576 324.994 26.1363 325.033 26.2019C325.073 26.2675 325.086 26.3266 325.073 26.3791C325.073 26.5497 324.751 27.9277 324.108 30.5131C323.465 33.0986 323.098 34.5159 323.006 34.7653C322.638 35.8546 322.002 36.7208 321.096 37.3638C320.191 38.0069 319.285 38.335 318.38 38.3481C317.789 38.3481 317.271 38.2038 316.824 37.9151C316.378 37.6263 316.155 37.1932 316.155 36.6158C316.155 36.3271 316.201 36.0843 316.293 35.8874C316.385 35.6905 316.509 35.5462 316.667 35.4543C316.824 35.3624 316.956 35.2968 317.061 35.2575C317.166 35.2181 317.277 35.1984 317.395 35.1984C317.973 35.1984 318.261 35.474 318.261 36.0252C318.261 36.2877 318.183 36.5174 318.025 36.7142C317.868 36.9111 317.717 37.0423 317.572 37.1079C317.428 37.1736 317.343 37.2064 317.317 37.2064L317.257 37.226C317.284 37.2917 317.408 37.3704 317.631 37.4623C317.855 37.5541 318.078 37.6001 318.301 37.6001H318.458C318.681 37.6001 318.852 37.587 318.97 37.5607C319.403 37.4426 319.804 37.1932 320.171 36.8126C320.538 36.432 320.821 36.0252 321.017 35.5921C321.214 35.159 321.365 34.7916 321.47 34.4897C321.575 34.1879 321.628 33.991 321.628 33.8991L321.51 33.9779C321.431 34.0304 321.306 34.1025 321.136 34.1944C320.965 34.2863 320.794 34.365 320.624 34.4306C320.361 34.4963 320.105 34.5291 319.856 34.5291C319.252 34.5291 318.721 34.3847 318.261 34.096C317.802 33.8073 317.5 33.3414 317.356 32.6983C317.343 32.6064 317.336 32.403 317.336 32.088C317.336 31.34 317.566 30.3622 318.025 29.1548C318.485 27.9474 318.714 27.1797 318.714 26.8516C318.714 26.8384 318.714 26.8253 318.714 26.8122C318.714 26.6941 318.714 26.6153 318.714 26.576C318.714 26.5366 318.688 26.4906 318.635 26.4382C318.583 26.3857 318.511 26.3594 318.419 26.3594H318.34C318.038 26.3594 317.763 26.4841 317.513 26.7334C317.264 26.9828 317.067 27.2518 316.923 27.5406C316.778 27.8293 316.667 28.1049 316.588 28.3674C316.509 28.6299 316.457 28.7742 316.431 28.8005C316.404 28.8267 316.299 28.8398 316.116 28.8398H315.84C315.761 28.7611 315.722 28.702 315.722 28.6627Z" fill="#C0C0C0"/>
</g>
<path d="M186.435 254.329L170 255L180.398 242.254L180.733 249.633L186.435 254.329Z" fill="#6AB0F3"/>
<path d="M320 180L173.578 253.211" stroke="#6AB0F3" stroke-width="1.5"/>
<path d="M403.565 130.671L420 130L409.602 142.746L409.267 135.367L403.565 130.671Z" fill="#FFF888"/>
<path d="M320 180L416.422 131.789" stroke="#FFF888" stroke-width="1.5"/>
<path d="M172.217 258.92C172.645 258.706 172.968 258.664 173.185 258.794C173.402 258.924 173.7 259.19 174.077 259.591C174.456 259.99 174.872 260.297 175.332 260.509C178.628 262.063 183.263 261.347 189.237 258.36L234.959 235.499C242.559 231.699 248.324 231.039 252.259 233.516C252.636 228.883 256.379 224.789 263.484 221.237L309.772 198.093C311.502 197.228 312.797 196.543 313.649 196.043C316.021 194.599 317.875 192.96 319.208 191.124C320.544 189.288 321.043 187.589 320.704 186.028C320.69 185.998 320.665 185.904 320.631 185.748C320.596 185.591 320.581 185.473 320.587 185.398C320.592 185.32 320.607 185.212 320.627 185.074C320.649 184.933 320.742 184.795 320.905 184.659C321.066 184.522 321.259 184.399 321.48 184.288C322.4 183.828 323.389 187.434 322.027 190.265C320.663 193.095 317.921 195.678 313.799 198.012C313.102 198.398 312.061 198.936 310.674 199.63L264.81 222.561C262.407 223.763 260.401 225.01 258.793 226.301C257.185 227.594 256.102 228.765 255.546 229.816C254.99 230.867 254.623 231.7 254.443 232.314C254.263 232.929 254.209 233.484 254.283 233.982C254.327 234.07 254.372 234.209 254.421 234.396C254.471 234.582 254.477 234.749 254.441 234.897C254.404 235.044 254.377 235.187 254.357 235.325C254.339 235.464 254.256 235.606 254.107 235.754C253.959 235.9 253.779 236.028 253.568 236.134C253.286 236.275 253.044 236.369 252.846 236.412C252.649 236.455 252.474 236.442 252.326 236.368C252.179 236.295 252.057 236.204 251.959 236.096C251.862 235.99 251.726 235.85 251.552 235.678C251.377 235.508 251.212 235.352 251.052 235.211C250.012 234.369 248.409 233.942 246.239 233.931C244.068 233.922 241.595 234.501 238.821 235.666C238.085 235.961 237.01 236.461 235.597 237.168L190.67 259.631C189.252 260.34 188.106 260.881 187.232 261.254C186.358 261.628 185.075 262.023 183.38 262.442C181.685 262.861 180.068 263.047 178.528 262.997C173.597 263.197 171.52 259.268 172.222 258.917L172.217 258.92Z" fill="#F0F0F0"/>
<path d="M294.637 245.449H236.246V266.633H294.637V245.449Z" fill="black"/>
<path d="M240.241 259.482C240.241 259.482 240.241 259.397 240.241 259.226C240.241 259.055 240.333 258.924 240.517 258.832H251.953C252.15 258.937 252.248 259.068 252.248 259.226C252.248 259.383 252.15 259.515 251.953 259.62H240.517C240.333 259.528 240.241 259.397 240.241 259.226V259.482Z" fill="#F0F0F0"/>
<path d="M258.094 252.77L257.838 252.868C257.655 252.934 257.392 252.999 257.051 253.065C256.71 253.131 256.329 253.177 255.909 253.203H255.535V252.297H255.909C256.526 252.271 257.097 252.173 257.622 252.002C258.147 251.832 258.514 251.674 258.724 251.53C258.934 251.385 259.118 251.241 259.275 251.097C259.302 251.057 259.38 251.038 259.512 251.038C259.63 251.038 259.741 251.077 259.846 251.156V257.041L259.866 262.946C259.958 263.038 260.036 263.097 260.102 263.123C260.168 263.15 260.325 263.176 260.575 263.202C260.824 263.228 261.231 263.242 261.795 263.242H262.307V264.147H262.09C261.815 264.108 260.771 264.088 258.96 264.088C257.176 264.088 256.146 264.108 255.87 264.147H255.634V263.242H256.146C256.434 263.242 256.684 263.242 256.894 263.242C257.104 263.242 257.268 263.235 257.386 263.222C257.504 263.209 257.609 263.189 257.701 263.163C257.793 263.137 257.845 263.123 257.858 263.123C257.871 263.123 257.911 263.091 257.976 263.025C258.042 262.959 258.081 262.933 258.094 262.946V252.77Z" fill="#F0F0F0"/>
<path d="M265.279 262.966C265.279 262.651 265.39 262.375 265.614 262.139C265.837 261.903 266.119 261.785 266.46 261.785C266.775 261.785 267.05 261.89 267.287 262.1C267.523 262.31 267.647 262.592 267.661 262.946C267.661 263.274 267.549 263.556 267.326 263.793C267.103 264.029 266.821 264.147 266.48 264.147C266.138 264.147 265.856 264.035 265.633 263.812C265.41 263.589 265.292 263.307 265.279 262.966Z" fill="#F0F0F0"/>
<path d="M272.444 261.057C272.444 261.372 272.339 261.634 272.129 261.844C271.919 262.054 271.663 262.159 271.361 262.159H271.223C271.827 263.196 272.627 263.714 273.625 263.714C274.543 263.714 275.213 263.32 275.632 262.533C275.882 262.1 276.006 261.26 276.006 260.013C276.006 258.662 275.829 257.75 275.475 257.277C275.134 256.844 274.753 256.628 274.333 256.628H274.215C273.192 256.628 272.417 257.074 271.893 257.966C271.84 258.058 271.794 258.111 271.755 258.124C271.715 258.137 271.617 258.15 271.46 258.163C271.236 258.163 271.112 258.124 271.086 258.045C271.059 257.993 271.046 256.844 271.046 254.6V252.061C271.046 251.405 271.079 251.077 271.145 251.077C271.171 251.051 271.197 251.038 271.223 251.038C271.236 251.038 271.374 251.09 271.637 251.195C271.899 251.3 272.26 251.405 272.719 251.51C273.179 251.615 273.671 251.668 274.196 251.668C275.127 251.668 276.02 251.484 276.873 251.116C276.978 251.064 277.063 251.038 277.128 251.038C277.233 251.038 277.286 251.156 277.286 251.392V251.648C276.21 252.921 274.865 253.557 273.251 253.557C272.844 253.557 272.477 253.518 272.148 253.439L271.952 253.4V256.785C272.201 256.602 272.398 256.457 272.542 256.352C272.686 256.247 272.923 256.142 273.251 256.037C273.579 255.932 273.913 255.88 274.255 255.88C275.318 255.88 276.216 256.306 276.951 257.159C277.686 258.012 278.054 259.023 278.054 260.191C278.054 261.398 277.634 262.428 276.794 263.281C275.954 264.134 274.93 264.567 273.723 264.58C272.66 264.58 271.807 264.226 271.164 263.517C270.521 262.809 270.2 262.008 270.2 261.116C270.2 260.801 270.272 260.551 270.416 260.368C270.561 260.184 270.712 260.066 270.869 260.013C271.027 259.961 271.177 259.935 271.322 259.935C271.65 259.935 271.919 260.046 272.129 260.269C272.339 260.492 272.444 260.755 272.444 261.057Z" fill="#F0F0F0"/>
<path d="M286.951 255.407C287.108 255.447 287.725 255.466 288.801 255.466C289.759 255.466 290.277 255.447 290.356 255.407H290.474V256.628H289.096L287.108 261.076C286.308 262.887 285.848 263.871 285.73 264.029C285.625 264.16 285.501 264.226 285.356 264.226C285.33 264.226 285.284 264.226 285.218 264.226C285.153 264.226 285.087 264.219 285.022 264.206H284.726C284.529 264.206 284.372 264.107 284.254 263.911C284.136 263.714 283.854 263.123 283.408 262.139C283.211 261.706 283.053 261.352 282.935 261.076L280.947 256.628H279.569V255.407H279.727C279.924 255.447 280.652 255.466 281.912 255.466C283.316 255.466 284.136 255.447 284.372 255.407H284.549V256.628H283.604L284.648 258.95C285.317 260.459 285.671 261.214 285.711 261.214C285.711 261.201 286.045 260.446 286.714 258.95C287.384 257.454 287.731 256.687 287.758 256.647C287.758 256.634 287.6 256.628 287.285 256.628H286.813V255.407H286.951Z" fill="#F0F0F0"/>
<path d="M287.531 249.837C287.531 249.732 287.564 249.64 287.63 249.561C287.695 249.482 287.794 249.443 287.925 249.443C288.017 249.443 288.096 249.476 288.161 249.541C288.227 249.594 288.292 249.719 288.358 249.915C288.489 250.401 288.758 250.775 289.165 251.037C289.309 251.129 289.381 251.247 289.381 251.392C289.381 251.51 289.362 251.588 289.322 251.628C289.283 251.667 289.191 251.726 289.047 251.805C288.483 252.094 287.991 252.507 287.571 253.045C287.544 253.071 287.512 253.111 287.472 253.163C287.433 253.216 287.4 253.255 287.374 253.281C287.348 253.308 287.315 253.321 287.275 253.321C287.236 253.321 287.19 253.327 287.138 253.34C287.046 253.34 286.96 253.308 286.882 253.242C286.803 253.176 286.757 253.078 286.744 252.947C286.744 252.697 287.052 252.31 287.669 251.785H284.303L280.937 251.766C280.767 251.648 280.681 251.523 280.681 251.392C280.681 251.3 280.767 251.169 280.937 250.998H288.004C287.689 250.499 287.531 250.112 287.531 249.837Z" fill="#F0F0F0"/>
<path d="M322.148 183.954C322.434 183.811 322.665 183.815 322.842 183.966C323.018 184.116 323.272 184.404 323.602 184.828C323.933 185.252 324.279 185.593 324.645 185.853C327.269 187.743 330.573 187.692 334.555 185.701L365.036 170.461C370.103 167.927 374.243 168.08 377.458 170.916C377.117 166.643 379.316 163.321 384.053 160.952L414.912 145.523C416.065 144.946 416.923 144.48 417.482 144.127C419.028 143.095 420.169 141.813 420.902 140.277C421.637 138.741 421.777 137.222 421.32 135.72C421.305 135.69 421.275 135.599 421.229 135.449C421.182 135.298 421.156 135.186 421.15 135.116C421.143 135.045 421.14 134.946 421.136 134.819C421.133 134.691 421.183 134.574 421.285 134.469C421.384 134.363 421.509 134.274 421.657 134.2C422.27 133.893 423.476 137.39 422.855 139.851C422.232 142.311 420.566 144.356 417.854 145.985C417.394 146.252 416.702 146.615 415.778 147.078L385.202 162.365C383.6 163.166 382.295 164.063 381.288 165.054C380.281 166.046 379.643 166.994 379.376 167.901C379.108 168.808 378.95 169.536 378.9 170.086C378.85 170.635 378.885 171.147 379.005 171.621C379.049 171.71 379.1 171.845 379.162 172.026C379.223 172.206 379.25 172.363 379.243 172.496C379.235 172.628 379.235 172.758 379.238 172.884C379.243 173.011 379.201 173.133 379.112 173.251C379.023 173.368 378.908 173.464 378.767 173.534C378.58 173.628 378.414 173.684 378.275 173.698C378.136 173.711 378.006 173.676 377.888 173.587C377.771 173.499 377.669 173.398 377.583 173.285C377.497 173.172 377.379 173.023 377.229 172.84C377.078 172.657 376.936 172.49 376.799 172.337C375.925 171.413 374.692 170.8 373.099 170.501C371.506 170.203 369.77 170.414 367.891 171.132C367.39 171.308 366.669 171.632 365.727 172.103L335.776 187.079C334.83 187.551 334.062 187.903 333.471 188.135C332.88 188.367 331.991 188.565 330.804 188.73C329.617 188.896 328.456 188.853 327.32 188.601C323.731 188.13 321.684 184.186 322.152 183.953L322.148 183.954Z" fill="#F0F0F0"/>
<path d="M398.764 183.128H379.828V203.953H398.764V183.128Z" fill="black"/>
<g clip-path="url(#clip4_1583_374)">
<path d="M391.206 193.085C391.364 193.124 391.98 193.144 393.056 193.144C394.014 193.144 394.532 193.124 394.611 193.085H394.729V194.305H393.351L391.364 198.752C390.563 200.563 390.104 201.547 389.986 201.704C389.881 201.835 389.756 201.901 389.612 201.901C389.586 201.901 389.54 201.901 389.474 201.901C389.409 201.901 389.343 201.894 389.278 201.881H388.982C388.786 201.881 388.628 201.783 388.51 201.586C388.392 201.389 388.11 200.799 387.664 199.815C387.467 199.382 387.31 199.028 387.192 198.752L385.204 194.305H383.826V193.085H383.984C384.181 193.124 384.909 193.144 386.168 193.144C387.572 193.144 388.392 193.124 388.628 193.085H388.805V194.305H387.861L388.904 196.627C389.573 198.136 389.927 198.89 389.966 198.89C389.966 198.877 390.301 198.123 390.97 196.627C391.639 195.131 391.987 194.364 392.013 194.324C392.013 194.311 391.855 194.305 391.541 194.305H391.068V193.085H391.206Z" fill="#F0F0F0"/>
<path d="M391.787 187.516C391.787 187.411 391.819 187.319 391.885 187.24C391.951 187.161 392.049 187.122 392.18 187.122C392.272 187.122 392.351 187.155 392.416 187.221C392.482 187.273 392.548 187.398 392.613 187.594C392.744 188.08 393.013 188.454 393.42 188.716C393.564 188.808 393.636 188.926 393.636 189.07C393.636 189.188 393.617 189.267 393.577 189.306C393.538 189.346 393.446 189.405 393.302 189.484C392.738 189.772 392.246 190.185 391.826 190.723C391.8 190.75 391.767 190.789 391.728 190.841C391.688 190.894 391.655 190.933 391.629 190.96C391.603 190.986 391.57 190.999 391.531 190.999C391.491 190.999 391.445 191.005 391.393 191.019C391.301 191.019 391.216 190.986 391.137 190.92C391.058 190.855 391.013 190.756 390.999 190.625C390.999 190.376 391.308 189.989 391.924 189.464H388.559L385.194 189.444C385.024 189.326 384.938 189.202 384.938 189.07C384.938 188.979 385.024 188.847 385.194 188.677H392.259C391.944 188.178 391.787 187.791 391.787 187.516Z" fill="#F0F0F0"/>
</g>
</g>
<defs>
<clipPath id="clip0_1583_374">
<rect width="640" height="360" fill="white"/>
</clipPath>
<clipPath id="clip1_1583_374">
<rect width="640" height="360" fill="white"/>
</clipPath>
<clipPath id="clip2_1583_374">
<rect width="11.2578" height="8.9175" fill="white" transform="translate(603.193 175.528)"/>
</clipPath>
<clipPath id="clip3_1583_374">
<rect width="9.6483" height="12.7368" fill="white" transform="translate(315.307 25.6113)"/>
</clipPath>
<clipPath id="clip4_1583_374">
<rect width="11.9451" height="16.6692" fill="white" transform="translate(383.315 185.153)"/>
</clipPath>
</defs>
</svg>
