<svg width="640" height="360" viewBox="0 0 640 360" fill="none" xmlns="http://www.w3.org/2000/svg">
<g clip-path="url(#clip0_1601_33717)">
<path d="M640 0H0V360H640V0Z" fill="black"/>
<g clip-path="url(#clip1_1601_33717)">
<path d="M0 20H640" stroke="#505050" stroke-width="1.5"/>
<path d="M0 60H640" stroke="#505050" stroke-width="1.5"/>
<path d="M0 100H640" stroke="#505050" stroke-width="1.5"/>
<path d="M0 140H640" stroke="#505050" stroke-width="1.5"/>
<path d="M0 180H640" stroke="#505050" stroke-width="1.5"/>
<path d="M0 220H640" stroke="#505050" stroke-width="1.5"/>
<path d="M0 260H640" stroke="#505050" stroke-width="1.5"/>
<path d="M0 300H640" stroke="#505050" stroke-width="1.5"/>
<path d="M0 340H640" stroke="#505050" stroke-width="1.5"/>
<path d="M0 0V360" stroke="#505050" stroke-width="1.5"/>
<path d="M40 0V360" stroke="#505050" stroke-width="1.5"/>
<path d="M80 0V360" stroke="#505050" stroke-width="1.5"/>
<path d="M120 0V360" stroke="#505050" stroke-width="1.5"/>
<path d="M160 0V360" stroke="#505050" stroke-width="1.5"/>
<path d="M200 0V360" stroke="#505050" stroke-width="1.5"/>
<path d="M240 0V360" stroke="#505050" stroke-width="1.5"/>
<path d="M280 0V360" stroke="#505050" stroke-width="1.5"/>
<path d="M320 0V360" stroke="#505050" stroke-width="1.5"/>
<path d="M360 0V360" stroke="#505050" stroke-width="1.5"/>
<path d="M400 0V360" stroke="#505050" stroke-width="1.5"/>
<path d="M440 0V360" stroke="#505050" stroke-width="1.5"/>
<path d="M480 0V360" stroke="#505050" stroke-width="1.5"/>
<path d="M520 0V360" stroke="#505050" stroke-width="1.5"/>
<path d="M560 0V360" stroke="#505050" stroke-width="1.5"/>
<path d="M600 0V360" stroke="#505050" stroke-width="1.5"/>
<path d="M640 0V360" stroke="#505050" stroke-width="1.5"/>
</g>
<path d="M0 180H640" stroke="#808080" stroke-width="1.5"/>
<path d="M320 0V360" stroke="#808080" stroke-width="1.5"/>
<path d="M640 0H0V360H640V0Z" stroke="#404040" stroke-width="2"/>
<g clip-path="url(#clip2_1601_33717)">
<path d="M-4960 2020L2720 -3100" stroke="#6AB0F3" stroke-opacity="0.75" stroke-width="1.5"/>
<path d="M-4880 2060L2800 -3060" stroke="#6AB0F3" stroke-opacity="0.75" stroke-width="1.5"/>
<path d="M-4800 2100L2880 -3020" stroke="#6AB0F3" stroke-opacity="0.75" stroke-width="1.5"/>
<path d="M-4720 2140L2960 -2980" stroke="#6AB0F3" stroke-opacity="0.75" stroke-width="1.5"/>
<path d="M-4640 2180L3040 -2940" stroke="#6AB0F3" stroke-opacity="0.75" stroke-width="1.5"/>
<path d="M-4560 2220L3120 -2900" stroke="#6AB0F3" stroke-opacity="0.75" stroke-width="1.5"/>
<path d="M-4480 2260L3200 -2860" stroke="#6AB0F3" stroke-opacity="0.75" stroke-width="1.5"/>
<path d="M-4400 2300L3280 -2820" stroke="#6AB0F3" stroke-opacity="0.75" stroke-width="1.5"/>
<path d="M-4320 2340L3360 -2780" stroke="#6AB0F3" stroke-opacity="0.75" stroke-width="1.5"/>
<path d="M-4240 2380L3440 -2740" stroke="#6AB0F3" stroke-opacity="0.75" stroke-width="1.5"/>
<path d="M-4160 2420L3520 -2700" stroke="#6AB0F3" stroke-opacity="0.75" stroke-width="1.5"/>
<path d="M-4080 2460L3600 -2660" stroke="#6AB0F3" stroke-opacity="0.75" stroke-width="1.5"/>
<path d="M-4000 2500L3680 -2620" stroke="#6AB0F3" stroke-opacity="0.75" stroke-width="1.5"/>
<path d="M-3920 2540L3760 -2580" stroke="#6AB0F3" stroke-opacity="0.75" stroke-width="1.5"/>
<path d="M-3840 2580L3840 -2540" stroke="#6AB0F3" stroke-opacity="0.75" stroke-width="1.5"/>
<path d="M-3760 2620L3920 -2500" stroke="#6AB0F3" stroke-opacity="0.75" stroke-width="1.5"/>
<path d="M-3680 2660L4000 -2460" stroke="#6AB0F3" stroke-opacity="0.75" stroke-width="1.5"/>
<path d="M-3600 2700L4080 -2420" stroke="#6AB0F3" stroke-opacity="0.75" stroke-width="1.5"/>
<path d="M-3520 2740L4160 -2380" stroke="#6AB0F3" stroke-opacity="0.75" stroke-width="1.5"/>
<path d="M-3440 2780L4240 -2340" stroke="#6AB0F3" stroke-opacity="0.75" stroke-width="1.5"/>
<path d="M-3360 2820L4320 -2300" stroke="#6AB0F3" stroke-opacity="0.75" stroke-width="1.5"/>
<path d="M-3280 2860L4400 -2260" stroke="#6AB0F3" stroke-opacity="0.75" stroke-width="1.5"/>
<path d="M-3200 2900L4480 -2220" stroke="#6AB0F3" stroke-opacity="0.75" stroke-width="1.5"/>
<path d="M-3120 2940L4560 -2180" stroke="#6AB0F3" stroke-opacity="0.75" stroke-width="1.5"/>
<path d="M-3040 2980L4640 -2140" stroke="#6AB0F3" stroke-opacity="0.75" stroke-width="1.5"/>
<path d="M-2960 3020L4720 -2100" stroke="#6AB0F3" stroke-opacity="0.75" stroke-width="1.5"/>
<path d="M-2880 3060L4800 -2060" stroke="#6AB0F3" stroke-opacity="0.75" stroke-width="1.5"/>
<path d="M-2800 3100L4880 -2020" stroke="#6AB0F3" stroke-opacity="0.75" stroke-width="1.5"/>
<path d="M-2720 3140L4960 -1980" stroke="#6AB0F3" stroke-opacity="0.75" stroke-width="1.5"/>
<path d="M-2640 3180L5040 -1940" stroke="#6AB0F3" stroke-opacity="0.75" stroke-width="1.5"/>
<path d="M-2560 3220L5120 -1900" stroke="#6AB0F3" stroke-opacity="0.75" stroke-width="1.5"/>
<path d="M-2480 3260L5200 -1860" stroke="#6AB0F3" stroke-opacity="0.75" stroke-width="1.5"/>
<path d="M-2400 3300L5280 -1820" stroke="#6AB0F3" stroke-opacity="0.75" stroke-width="1.5"/>
<path d="M-2320 3340L5360 -1780" stroke="#6AB0F3" stroke-opacity="0.75" stroke-width="1.5"/>
<path d="M-2240 3380L5440 -1740" stroke="#6AB0F3" stroke-opacity="0.75" stroke-width="1.5"/>
<path d="M-2160 3420L5520 -1700" stroke="#6AB0F3" stroke-opacity="0.75" stroke-width="1.5"/>
<path d="M-2080 3460L5600 -1660" stroke="#6AB0F3" stroke-opacity="0.75" stroke-width="1.5"/>
<path d="M-2440 340L440 1780" stroke="#6AB0F3" stroke-opacity="0.75" stroke-width="1.5"/>
<path d="M-2320 260L560 1700" stroke="#6AB0F3" stroke-opacity="0.75" stroke-width="1.5"/>
<path d="M-2200 180L680 1620" stroke="#6AB0F3" stroke-opacity="0.75" stroke-width="1.5"/>
<path d="M-2080 100L800 1540" stroke="#6AB0F3" stroke-opacity="0.75" stroke-width="1.5"/>
<path d="M-1960 20.0002L920 1460" stroke="#6AB0F3" stroke-opacity="0.75" stroke-width="1.5"/>
<path d="M-1840 -59.9998L1040 1380" stroke="#6AB0F3" stroke-opacity="0.75" stroke-width="1.5"/>
<path d="M-1720 -140L1160 1300" stroke="#6AB0F3" stroke-opacity="0.75" stroke-width="1.5"/>
<path d="M-1600 -220L1280 1220" stroke="#6AB0F3" stroke-opacity="0.75" stroke-width="1.5"/>
<path d="M-1480 -300L1400 1140" stroke="#6AB0F3" stroke-opacity="0.75" stroke-width="1.5"/>
<path d="M-1360 -380L1520 1060" stroke="#6AB0F3" stroke-opacity="0.75" stroke-width="1.5"/>
<path d="M-1240 -460L1640 980" stroke="#6AB0F3" stroke-opacity="0.75" stroke-width="1.5"/>
<path d="M-1120 -540L1760 900" stroke="#6AB0F3" stroke-opacity="0.75" stroke-width="1.5"/>
<path d="M-1000 -620L1880 820" stroke="#6AB0F3" stroke-opacity="0.75" stroke-width="1.5"/>
<path d="M-880 -700L2000 740" stroke="#6AB0F3" stroke-opacity="0.75" stroke-width="1.5"/>
<path d="M-760 -780L2120 660" stroke="#6AB0F3" stroke-opacity="0.75" stroke-width="1.5"/>
<path d="M-640 -860L2240 580" stroke="#6AB0F3" stroke-opacity="0.75" stroke-width="1.5"/>
<path d="M-520 -940L2360 500" stroke="#6AB0F3" stroke-opacity="0.75" stroke-width="1.5"/>
<path d="M-400 -1020L2480 420" stroke="#6AB0F3" stroke-opacity="0.75" stroke-width="1.5"/>
<path d="M-280 -1100L2600 340" stroke="#6AB0F3" stroke-opacity="0.75" stroke-width="1.5"/>
<path d="M-160 -1180L2720 260" stroke="#6AB0F3" stroke-opacity="0.75" stroke-width="1.5"/>
<path d="M-39.9998 -1260L2840 180" stroke="#6AB0F3" stroke-opacity="0.75" stroke-width="1.5"/>
<path d="M80.0003 -1340L2960 100" stroke="#6AB0F3" stroke-opacity="0.75" stroke-width="1.5"/>
<path d="M200 -1420L3080 20.0002" stroke="#6AB0F3" stroke-opacity="0.75" stroke-width="1.5"/>
<path d="M4160 -2380L-3520 2740" stroke="#79B9F6" stroke-width="1.5"/>
<path d="M-1120 -540L1760 900" stroke="#79B9F6" stroke-width="1.5"/>
</g>
<path d="M423.775 102.704L440 99.9999L431.263 113.937L430.015 106.656L423.775 102.704Z" fill="#FFF888"/>
<path d="M320 180L436.672 102.219" stroke="#FFF888" stroke-width="1.5"/>
<path d="M389.602 207.254L400 220L383.565 219.329L389.267 214.633L389.602 207.254Z" fill="#D582FF"/>
<path d="M320 180L396.422 218.211" stroke="#D582FF" stroke-width="1.5"/>
<path d="M320 180L440 100L520 140L400 220L320 180Z" fill="#C0C0C0" fill-opacity="0.2" stroke="#C0C0C0" stroke-width="1.5"/>
<path d="M423.775 102.704L440 99.9999L431.263 113.937L430.015 106.656L423.775 102.704Z" fill="#FFF888"/>
<path d="M320 180L436.672 102.219" stroke="#FFF888" stroke-width="1.5"/>
<path d="M389.602 207.254L400 220L383.565 219.329L389.267 214.633L389.602 207.254Z" fill="#D582FF"/>
<path d="M320 180L396.422 218.211" stroke="#D582FF" stroke-width="1.5"/>
<path d="M468.845 79.2747H451.908V100.1H468.845V79.2747Z" fill="black"/>
<g clip-path="url(#clip3_1601_33717)">
<path d="M461.652 87.5931C461.796 87.6293 462.363 87.6474 463.353 87.6474C464.233 87.6474 464.71 87.6293 464.782 87.5931H464.891V88.7151H463.624L461.796 92.8047C461.06 94.4695 460.638 95.3742 460.53 95.519C460.433 95.6396 460.318 95.7 460.186 95.7C460.162 95.7 460.119 95.7 460.059 95.7C459.999 95.7 459.938 95.6939 459.878 95.6819H459.607C459.426 95.6819 459.281 95.5914 459.172 95.4104C459.064 95.2295 458.804 94.6866 458.394 93.7818C458.213 93.3837 458.069 93.058 457.96 92.8047L456.132 88.7151H454.866V87.5931H455.01C455.191 87.6293 455.861 87.6474 457.019 87.6474C458.31 87.6474 459.064 87.6293 459.281 87.5931H459.444V88.7151H458.575L459.534 90.8503C460.15 92.2377 460.475 92.9313 460.512 92.9313C460.512 92.9193 460.819 92.2256 461.434 90.8503C462.05 89.4751 462.369 88.7694 462.393 88.7332C462.393 88.7211 462.249 88.7151 461.959 88.7151H461.525V87.5931H461.652Z" fill="#FFF888"/>
<path d="M462.185 82.4721C462.185 82.3756 462.216 82.2912 462.276 82.2188C462.336 82.1464 462.427 82.1102 462.547 82.1102C462.632 82.1102 462.704 82.1404 462.764 82.2007C462.825 82.2489 462.885 82.3635 462.945 82.5445C463.066 82.9908 463.313 83.3347 463.687 83.5759C463.82 83.6604 463.886 83.769 463.886 83.9017C463.886 84.0102 463.868 84.0826 463.832 84.1188C463.796 84.155 463.711 84.2093 463.579 84.2817C463.06 84.5471 462.608 84.9271 462.222 85.4217C462.197 85.4458 462.167 85.482 462.131 85.5303C462.095 85.5785 462.065 85.6147 462.041 85.6388C462.016 85.663 461.986 85.675 461.95 85.675C461.914 85.675 461.872 85.6811 461.823 85.6931C461.739 85.6931 461.661 85.663 461.588 85.6026C461.516 85.5423 461.474 85.4518 461.462 85.3312C461.462 85.102 461.745 84.7461 462.312 84.2636H459.218L456.123 84.2455C455.967 84.1369 455.888 84.0223 455.888 83.9017C455.888 83.8172 455.967 83.6966 456.123 83.5397H462.62C462.33 83.0813 462.185 82.7254 462.185 82.4721Z" fill="#FFF888"/>
</g>
<path d="M432.554 223.31H411.155V244.156H432.554V223.31Z" fill="black"/>
<g clip-path="url(#clip4_1601_33717)">
<path d="M424.954 231.628C425.099 231.665 425.69 231.683 426.728 231.683C427.632 231.683 428.103 231.665 428.139 231.628H428.23V232.75H427.071L424.393 239.464C424.381 239.476 424.363 239.495 424.339 239.519C424.315 239.543 424.291 239.567 424.266 239.591C424.242 239.615 424.23 239.627 424.23 239.627C424.23 239.627 424.212 239.639 424.176 239.663C424.14 239.688 424.128 239.7 424.14 239.7C424.152 239.7 424.128 239.706 424.067 239.718C424.007 239.73 423.983 239.73 423.995 239.718C424.007 239.706 423.983 239.712 423.923 239.736C423.862 239.76 423.826 239.76 423.814 239.736C423.802 239.712 423.754 239.712 423.669 239.736H423.47C423.265 239.736 423.12 239.675 423.036 239.555C422.951 239.434 422.782 239.048 422.529 238.397C422.336 237.914 422.173 237.51 422.04 237.184L421.172 235.013L420.303 237.184C420.183 237.498 420.026 237.89 419.833 238.36C419.579 239.024 419.41 239.416 419.326 239.537C419.242 239.657 419.097 239.724 418.892 239.736H418.674C418.457 239.736 418.313 239.724 418.24 239.7C418.168 239.675 418.077 239.597 417.969 239.464L415.29 232.75H414.114V231.628H414.241C414.422 231.665 415.073 231.683 416.195 231.683C417.438 231.683 418.168 231.665 418.385 231.628H418.548V232.75H417.679L419.272 236.696L420.575 233.474L420.285 232.75H419.145V231.628H419.272C419.416 231.665 420.002 231.683 421.027 231.683C422.246 231.683 422.945 231.665 423.126 231.628H423.271V232.75H422.819C422.517 232.75 422.366 232.763 422.366 232.787C422.378 232.835 422.668 233.565 423.235 234.976C423.802 236.388 424.091 237.094 424.104 237.094L425.859 232.75H424.827V231.628H424.954Z" fill="#D582FF"/>
<path d="M423.479 226.507C423.479 226.411 423.509 226.326 423.57 226.254C423.63 226.181 423.72 226.145 423.841 226.145C423.926 226.145 423.998 226.175 424.058 226.236C424.119 226.284 424.179 226.398 424.239 226.579C424.36 227.026 424.607 227.37 424.981 227.611C425.114 227.695 425.18 227.804 425.18 227.937C425.18 228.045 425.162 228.118 425.126 228.154C425.09 228.19 425.005 228.244 424.873 228.317C424.354 228.582 423.901 228.962 423.515 229.457C423.491 229.481 423.461 229.517 423.425 229.565C423.389 229.614 423.359 229.65 423.334 229.674C423.31 229.698 423.28 229.71 423.244 229.71C423.208 229.71 423.166 229.716 423.117 229.728C423.033 229.728 422.954 229.698 422.882 229.638C422.81 229.577 422.767 229.487 422.755 229.366C422.755 229.137 423.039 228.781 423.606 228.299H420.511L417.417 228.281C417.26 228.172 417.182 228.057 417.182 227.937C417.182 227.852 417.26 227.732 417.417 227.575H423.914C423.624 227.116 423.479 226.76 423.479 226.507Z" fill="#D582FF"/>
</g>
</g>
<defs>
<clipPath id="clip0_1601_33717">
<rect width="640" height="360" fill="white"/>
</clipPath>
<clipPath id="clip1_1601_33717">
<rect width="640" height="360" fill="white"/>
</clipPath>
<clipPath id="clip2_1601_33717">
<rect width="2560" height="1440" fill="white" transform="translate(-960 -540)"/>
</clipPath>
<clipPath id="clip3_1601_33717">
<rect width="10.984" height="15.328" fill="white" transform="translate(454.395 80.3)"/>
</clipPath>
<clipPath id="clip4_1601_33717">
<rect width="15.04" height="15.328" fill="white" transform="translate(413.661 224.335)"/>
</clipPath>
</defs>
</svg>
