<svg width="480" height="270" viewBox="0 0 480 270" fill="none" xmlns="http://www.w3.org/2000/svg">
<rect width="480" height="270" fill="black"/>
<rect x="66.3455" y="92.3135" width="347.309" height="85.373" fill="black"/>
<g clip-path="url(#clip0_747_1068)">
<path d="M72.7522 145.181V124.819H75.5417V125.634H73.5666V144.366H75.5417V145.181H72.7522Z" fill="#F0F0F0"/>
<path d="M80.6117 126.489C80.123 126.489 79.6886 126.571 79.3085 126.733C78.9285 126.896 78.6706 127.059 78.5348 127.222L78.3312 127.446C78.3583 127.446 78.3923 127.453 78.433 127.466C78.4737 127.48 78.5484 127.507 78.657 127.548C78.7656 127.589 78.8674 127.65 78.9624 127.731C79.0574 127.813 79.1389 127.921 79.2067 128.057C79.2746 128.193 79.3085 128.356 79.3085 128.546C79.3085 128.858 79.2067 129.116 79.0031 129.319C78.7995 129.523 78.5416 129.625 78.2294 129.625C77.9172 129.625 77.6593 129.53 77.4557 129.34C77.2521 129.15 77.1435 128.892 77.1299 128.566C77.1299 127.765 77.4353 127.12 78.0461 126.632C78.657 126.143 79.3289 125.851 80.0619 125.756C80.0891 125.756 80.1637 125.756 80.2859 125.756C80.4081 125.756 80.5031 125.749 80.5709 125.736H80.6524C81.3718 125.736 81.9962 125.824 82.5256 126C83.055 126.177 83.4487 126.421 83.7066 126.733C83.9645 127.046 84.1613 127.344 84.2971 127.629C84.4328 127.914 84.4939 128.22 84.4803 128.546C84.4803 129.414 84.107 130.127 83.3604 130.684C82.0845 131.593 81.3107 132.672 81.0393 133.921C80.9714 134.247 80.9374 134.668 80.9374 135.183V135.529C80.9374 135.787 80.9171 135.937 80.8764 135.977C80.8356 136.018 80.7203 136.045 80.5302 136.059C80.3402 136.072 80.2248 136.052 80.1841 135.998C80.1434 135.944 80.123 135.828 80.123 135.652V135.02C80.1501 134.057 80.2723 133.229 80.4895 132.536C80.7067 131.844 80.9442 131.342 81.2021 131.03C81.4601 130.717 81.7112 130.405 81.9555 130.093C82.1999 129.781 82.356 129.469 82.4238 129.156C82.451 129.034 82.4645 128.783 82.4645 128.403V128.138C82.4645 127.908 82.451 127.718 82.4238 127.568C82.3967 127.419 82.322 127.249 82.1999 127.059C82.0777 126.869 81.8944 126.727 81.6501 126.632C81.4058 126.537 81.0596 126.489 80.6117 126.489ZM79.3085 138.848C79.3085 138.468 79.4307 138.17 79.675 137.952C79.9194 137.735 80.218 137.627 80.5709 137.627C80.8832 137.654 81.1546 137.769 81.3854 137.973C81.6162 138.176 81.7315 138.468 81.7315 138.848C81.7315 139.256 81.6162 139.561 81.3854 139.765C81.1546 139.968 80.8696 140.07 80.5302 140.07C80.1909 140.07 79.9058 139.968 79.675 139.765C79.4443 139.561 79.3221 139.256 79.3085 138.848Z" fill="#92D192"/>
<path d="M110.584 126.489C110.095 126.489 109.66 126.571 109.28 126.733C108.9 126.896 108.642 127.059 108.507 127.222L108.303 127.446C108.33 127.446 108.364 127.453 108.405 127.466C108.446 127.48 108.52 127.507 108.629 127.548C108.737 127.589 108.839 127.65 108.934 127.731C109.029 127.813 109.111 127.921 109.179 128.057C109.246 128.193 109.28 128.356 109.28 128.546C109.28 128.858 109.179 129.116 108.975 129.319C108.771 129.523 108.513 129.625 108.201 129.625C107.889 129.625 107.631 129.53 107.428 129.34C107.224 129.15 107.115 128.892 107.102 128.566C107.102 127.765 107.407 127.12 108.018 126.632C108.629 126.143 109.301 125.851 110.034 125.756C110.061 125.756 110.136 125.756 110.258 125.756C110.38 125.756 110.475 125.749 110.543 125.736H110.624C111.344 125.736 111.968 125.824 112.497 126C113.027 126.177 113.421 126.421 113.678 126.733C113.936 127.046 114.133 127.344 114.269 127.629C114.405 127.914 114.466 128.22 114.452 128.546C114.452 129.414 114.079 130.127 113.332 130.684C112.056 131.593 111.283 132.672 111.011 133.921C110.943 134.247 110.909 134.668 110.909 135.183V135.529C110.909 135.787 110.889 135.937 110.848 135.977C110.808 136.018 110.692 136.045 110.502 136.059C110.312 136.072 110.197 136.052 110.156 135.998C110.115 135.944 110.095 135.828 110.095 135.652V135.02C110.122 134.057 110.244 133.229 110.461 132.536C110.679 131.844 110.916 131.342 111.174 131.03C111.432 130.717 111.683 130.405 111.927 130.093C112.172 129.781 112.328 129.469 112.396 129.156C112.423 129.034 112.436 128.783 112.436 128.403V128.138C112.436 127.908 112.423 127.718 112.396 127.568C112.369 127.419 112.294 127.249 112.172 127.059C112.05 126.869 111.866 126.727 111.622 126.632C111.378 126.537 111.031 126.489 110.584 126.489ZM109.28 138.848C109.28 138.468 109.403 138.17 109.647 137.952C109.891 137.735 110.19 137.627 110.543 137.627C110.855 137.654 111.126 137.769 111.357 137.973C111.588 138.176 111.703 138.468 111.703 138.848C111.703 139.256 111.588 139.561 111.357 139.765C111.126 139.968 110.841 140.07 110.502 140.07C110.163 140.07 109.878 139.968 109.647 139.765C109.416 139.561 109.294 139.256 109.28 138.848Z" fill="#FF777A"/>
<path d="M140.555 126.489C140.067 126.489 139.632 126.571 139.252 126.733C138.872 126.896 138.614 127.059 138.479 127.222L138.275 127.446C138.302 127.446 138.336 127.453 138.377 127.466C138.417 127.48 138.492 127.507 138.601 127.548C138.709 127.589 138.811 127.65 138.906 127.731C139.001 127.813 139.083 127.921 139.15 128.057C139.218 128.193 139.252 128.356 139.252 128.546C139.252 128.858 139.15 129.116 138.947 129.319C138.743 129.523 138.485 129.625 138.173 129.625C137.861 129.625 137.603 129.53 137.399 129.34C137.196 129.15 137.087 128.892 137.074 128.566C137.074 127.765 137.379 127.12 137.99 126.632C138.601 126.143 139.273 125.851 140.006 125.756C140.033 125.756 140.107 125.756 140.23 125.756C140.352 125.756 140.447 125.749 140.515 125.736H140.596C141.316 125.736 141.94 125.824 142.469 126C142.999 126.177 143.392 126.421 143.65 126.733C143.908 127.046 144.105 127.344 144.241 127.629C144.377 127.914 144.438 128.22 144.424 128.546C144.424 129.414 144.051 130.127 143.304 130.684C142.028 131.593 141.254 132.672 140.983 133.921C140.915 134.247 140.881 134.668 140.881 135.183V135.529C140.881 135.787 140.861 135.937 140.82 135.977C140.779 136.018 140.664 136.045 140.474 136.059C140.284 136.072 140.169 136.052 140.128 135.998C140.087 135.944 140.067 135.828 140.067 135.652V135.02C140.094 134.057 140.216 133.229 140.433 132.536C140.65 131.844 140.888 131.342 141.146 131.03C141.404 130.717 141.655 130.405 141.899 130.093C142.144 129.781 142.3 129.469 142.368 129.156C142.395 129.034 142.408 128.783 142.408 128.403V128.138C142.408 127.908 142.395 127.718 142.368 127.568C142.34 127.419 142.266 127.249 142.144 127.059C142.021 126.869 141.838 126.727 141.594 126.632C141.349 126.537 141.003 126.489 140.555 126.489ZM139.252 138.848C139.252 138.468 139.374 138.17 139.619 137.952C139.863 137.735 140.162 137.627 140.515 137.627C140.827 137.654 141.098 137.769 141.329 137.973C141.56 138.176 141.675 138.468 141.675 138.848C141.675 139.256 141.56 139.561 141.329 139.765C141.098 139.968 140.813 140.07 140.474 140.07C140.135 140.07 139.85 139.968 139.619 139.765C139.388 139.561 139.266 139.256 139.252 138.848Z" fill="#6AB0F3"/>
<path d="M146.012 125.634V124.819H148.802V145.181H146.012V144.366H147.987V125.634H146.012Z" fill="#F0F0F0"/>
<path d="M161.114 132.944V96.3136H168.18V98.0239H162.825V132.944H161.114Z" fill="#F0F0F0"/>
<path d="M161.114 173.687V137.057H162.825V171.976H168.18V173.687H161.114Z" fill="#F0F0F0"/>
<g clip-path="url(#clip1_747_1068)">
<path d="M161.114 141.139V128.857H162.825V141.139H161.114Z" fill="#F0F0F0"/>
</g>
<path d="M169.259 105.7C169.354 105.13 169.72 104.471 170.358 103.725C170.996 102.978 171.784 102.598 172.72 102.585C173.195 102.585 173.63 102.707 174.023 102.951C174.417 103.196 174.709 103.501 174.899 103.867C175.469 103.012 176.154 102.585 176.955 102.585C177.458 102.585 177.892 102.734 178.258 103.033C178.625 103.331 178.815 103.732 178.829 104.234C178.829 104.628 178.734 104.947 178.544 105.191C178.353 105.435 178.17 105.585 177.994 105.639C177.817 105.693 177.661 105.72 177.525 105.72C177.268 105.72 177.057 105.646 176.894 105.496C176.731 105.347 176.65 105.15 176.65 104.906C176.65 104.281 176.989 103.854 177.668 103.623C177.519 103.447 177.247 103.358 176.854 103.358C176.677 103.358 176.548 103.372 176.467 103.399C175.951 103.616 175.571 104.064 175.326 104.743C174.512 107.743 174.105 109.494 174.105 109.996C174.105 110.376 174.213 110.648 174.431 110.811C174.648 110.974 174.885 111.055 175.143 111.055C175.645 111.055 176.141 110.831 176.63 110.383C177.118 109.935 177.451 109.385 177.627 108.734C177.668 108.598 177.709 108.523 177.749 108.51C177.79 108.496 177.899 108.483 178.075 108.469H178.157C178.36 108.469 178.462 108.523 178.462 108.632C178.462 108.646 178.449 108.72 178.421 108.856C178.204 109.63 177.783 110.315 177.159 110.912C176.535 111.51 175.808 111.808 174.98 111.808C174.03 111.808 173.311 111.381 172.822 110.526C172.265 111.367 171.627 111.788 170.908 111.788H170.786C170.121 111.788 169.646 111.612 169.361 111.259C169.076 110.906 168.926 110.532 168.913 110.139C168.913 109.704 169.042 109.351 169.299 109.08C169.557 108.808 169.863 108.673 170.216 108.673C170.799 108.673 171.091 108.958 171.091 109.528C171.091 109.799 171.01 110.037 170.847 110.241C170.684 110.444 170.528 110.58 170.379 110.648C170.229 110.716 170.141 110.75 170.114 110.75L170.053 110.77C170.053 110.783 170.094 110.811 170.175 110.851C170.256 110.892 170.365 110.94 170.501 110.994C170.637 111.048 170.766 111.069 170.888 111.055C171.376 111.055 171.797 110.75 172.15 110.139C172.272 109.922 172.428 109.46 172.618 108.754C172.808 108.048 172.998 107.315 173.189 106.555C173.379 105.795 173.487 105.347 173.514 105.211C173.582 104.845 173.616 104.58 173.616 104.417C173.616 104.037 173.514 103.766 173.311 103.603C173.107 103.44 172.876 103.358 172.618 103.358C172.075 103.358 171.566 103.576 171.091 104.01C170.616 104.444 170.284 105.001 170.094 105.68C170.066 105.802 170.033 105.87 169.992 105.883C169.951 105.897 169.842 105.91 169.666 105.924H169.381C169.299 105.842 169.259 105.768 169.259 105.7Z" fill="#FEAB62"/>
<path d="M168.628 134.247C168.628 134.057 168.729 133.731 168.933 133.269C169.137 132.808 169.462 132.326 169.91 131.824C170.358 131.321 170.861 131.077 171.417 131.091C171.974 131.091 172.422 131.247 172.761 131.559C173.1 131.871 173.277 132.306 173.29 132.862C173.263 133.12 173.243 133.263 173.229 133.29C173.229 133.33 173.121 133.643 172.903 134.226C172.686 134.81 172.462 135.468 172.232 136.201C172.001 136.934 171.892 137.518 171.906 137.952C171.906 138.536 172.001 138.943 172.191 139.174C172.381 139.405 172.666 139.527 173.046 139.541C173.358 139.541 173.65 139.466 173.922 139.317C174.193 139.167 174.403 139.011 174.553 138.848C174.702 138.685 174.885 138.461 175.102 138.176C175.102 138.163 175.136 138.027 175.204 137.769C175.272 137.511 175.367 137.111 175.489 136.568C175.611 136.025 175.74 135.523 175.876 135.061C176.392 133.025 176.677 131.959 176.731 131.864C176.908 131.498 177.2 131.315 177.607 131.315C177.783 131.315 177.926 131.362 178.034 131.457C178.143 131.552 178.218 131.634 178.258 131.701C178.299 131.769 178.313 131.83 178.299 131.885C178.299 132.061 177.967 133.486 177.301 136.161C176.636 138.835 176.256 140.301 176.161 140.559C175.781 141.685 175.123 142.581 174.186 143.246C173.25 143.911 172.313 144.251 171.376 144.264C170.766 144.264 170.229 144.115 169.768 143.816C169.306 143.518 169.076 143.07 169.076 142.473C169.076 142.174 169.123 141.923 169.218 141.719C169.313 141.516 169.442 141.366 169.605 141.271C169.768 141.176 169.904 141.108 170.012 141.068C170.121 141.027 170.236 141.007 170.358 141.007C170.956 141.007 171.254 141.292 171.254 141.862C171.254 142.133 171.173 142.371 171.01 142.574C170.847 142.778 170.691 142.914 170.542 142.982C170.392 143.05 170.304 143.083 170.277 143.083L170.216 143.104C170.243 143.172 170.372 143.253 170.603 143.348C170.833 143.443 171.064 143.491 171.295 143.491H171.458C171.689 143.491 171.865 143.477 171.987 143.45C172.435 143.328 172.849 143.07 173.229 142.676C173.609 142.283 173.901 141.862 174.105 141.414C174.308 140.966 174.464 140.586 174.573 140.274C174.682 139.961 174.736 139.758 174.736 139.663L174.614 139.744C174.532 139.798 174.403 139.873 174.227 139.968C174.05 140.063 173.874 140.145 173.698 140.213C173.426 140.28 173.161 140.314 172.903 140.314C172.279 140.314 171.729 140.165 171.254 139.866C170.779 139.568 170.467 139.086 170.318 138.421C170.304 138.326 170.297 138.115 170.297 137.79C170.297 137.016 170.535 136.004 171.01 134.756C171.485 133.507 171.722 132.713 171.722 132.373C171.722 132.36 171.722 132.346 171.722 132.333C171.722 132.211 171.722 132.129 171.722 132.088C171.722 132.048 171.695 132 171.641 131.946C171.587 131.892 171.512 131.864 171.417 131.864H171.336C171.023 131.864 170.738 131.993 170.48 132.251C170.223 132.509 170.019 132.787 169.87 133.086C169.72 133.385 169.605 133.67 169.523 133.941C169.442 134.213 169.388 134.362 169.361 134.389C169.333 134.416 169.225 134.43 169.035 134.43H168.75C168.668 134.348 168.628 134.287 168.628 134.247Z" fill="#FEAB62"/>
<path d="M175.265 161.714C175.13 161.714 174.77 161.639 174.186 161.49C173.603 161.341 173.175 161.266 172.903 161.266C172.632 161.266 172.401 161.293 172.211 161.347C172.021 161.402 171.865 161.47 171.743 161.551C171.621 161.633 171.539 161.707 171.499 161.775C171.458 161.843 171.41 161.918 171.356 161.999L171.315 162.08C171.275 162.121 171.173 162.142 171.01 162.142C170.725 162.142 170.582 162.087 170.582 161.979C170.582 161.911 170.603 161.816 170.643 161.694C170.82 161.164 171.112 160.709 171.519 160.329C171.926 159.949 172.374 159.719 172.863 159.637C173.026 159.61 173.141 159.596 173.209 159.596C173.548 159.596 173.854 159.712 174.125 159.943C174.397 160.173 174.655 160.397 174.899 160.614C175.143 160.832 175.401 160.947 175.673 160.961C175.971 160.961 176.27 160.737 176.568 160.289C176.867 159.841 177.023 159.617 177.037 159.617C177.05 159.603 177.152 159.596 177.342 159.596H177.607C177.688 159.678 177.729 159.732 177.729 159.759C177.729 159.814 177.695 159.909 177.627 160.044C177.559 160.18 177.464 160.323 177.342 160.472C177.22 160.621 177.105 160.771 176.996 160.92C176.887 161.069 176.792 161.198 176.711 161.307L176.568 161.49C175.985 162.182 175.062 163.099 173.799 164.239C172.537 165.379 171.756 166.112 171.458 166.438L171.213 166.682L171.519 166.702C171.818 166.702 172.252 166.777 172.822 166.926C173.392 167.076 173.82 167.15 174.105 167.15C174.621 167.15 175.096 167.021 175.53 166.764C175.964 166.506 176.249 166.166 176.385 165.746C176.44 165.623 176.487 165.549 176.528 165.522C176.568 165.494 176.67 165.481 176.833 165.481C177.091 165.481 177.22 165.549 177.22 165.684C177.22 165.752 177.213 165.813 177.2 165.868C176.969 166.709 176.521 167.408 175.856 167.965C175.191 168.521 174.526 168.806 173.86 168.82C173.507 168.82 173.195 168.705 172.924 168.474C172.652 168.243 172.388 168.012 172.13 167.782C171.872 167.551 171.614 167.435 171.356 167.435C170.759 167.435 170.223 167.843 169.747 168.657C169.666 168.766 169.551 168.82 169.401 168.82H169.299H169.035C168.953 168.739 168.913 168.678 168.913 168.637C168.913 168.433 169.306 167.85 170.094 166.886C170.623 166.275 171.519 165.393 172.781 164.239C174.044 163.085 174.824 162.352 175.123 162.04C175.286 161.823 175.333 161.714 175.265 161.714Z" fill="#FEAB62"/>
<path d="M179.847 98.0239V96.3136H186.912V132.944H185.202V98.0239H179.847Z" fill="#F0F0F0"/>
<path d="M185.202 171.976V137.057H186.912V173.687H179.847V171.976H185.202Z" fill="#F0F0F0"/>
<g clip-path="url(#clip2_747_1068)">
<path d="M185.202 141.139V128.857H186.912V141.139H185.202Z" fill="#F0F0F0"/>
</g>
<path d="M200.222 133.025C200.222 132.849 200.317 132.713 200.507 132.618H213.477C213.681 132.726 213.783 132.862 213.783 133.025C213.783 133.174 213.688 133.303 213.498 133.412L207.023 133.432H200.548C200.331 133.364 200.222 133.229 200.222 133.025ZM200.222 136.975C200.222 136.771 200.331 136.636 200.548 136.568H213.498C213.688 136.704 213.783 136.839 213.783 136.975C213.783 137.152 213.681 137.287 213.477 137.382H200.507C200.317 137.287 200.222 137.152 200.222 136.975Z" fill="#F0F0F0"/>
<path d="M228.235 130.011C228.235 129.794 228.235 129.523 228.235 129.197C228.235 128.871 228.242 128.647 228.256 128.525C228.256 127.914 228.188 127.534 228.052 127.385C227.916 127.235 227.57 127.147 227.014 127.12H226.647V126.652C226.647 126.34 226.661 126.183 226.688 126.183L226.891 126.163C227.027 126.15 227.224 126.136 227.482 126.122C227.74 126.109 227.991 126.095 228.235 126.082C228.466 126.068 228.717 126.055 228.989 126.041C229.26 126.027 229.464 126.007 229.6 125.98C229.735 125.953 229.81 125.946 229.823 125.959H229.885V132.149C229.885 136.303 229.891 138.4 229.905 138.441C229.946 138.712 230.041 138.889 230.19 138.97C230.339 139.052 230.645 139.113 231.106 139.154H231.473V140.09C231.446 140.09 230.93 140.124 229.925 140.192C228.921 140.26 228.385 140.301 228.317 140.314H228.174V139.194L228.011 139.337C227.224 139.988 226.342 140.314 225.364 140.314C224.319 140.314 223.376 139.9 222.534 139.072C221.693 138.244 221.272 137.124 221.272 135.713C221.272 134.355 221.699 133.249 222.554 132.394C223.41 131.538 224.407 131.104 225.548 131.091C226.566 131.091 227.462 131.423 228.235 132.088V130.011ZM228.174 133.127C227.563 132.271 226.796 131.844 225.873 131.844C225.208 131.844 224.618 132.088 224.102 132.577C223.735 132.957 223.505 133.391 223.41 133.88C223.315 134.369 223.26 135.007 223.247 135.794C223.247 136.554 223.294 137.172 223.389 137.647C223.484 138.122 223.722 138.536 224.102 138.889C224.509 139.337 225.039 139.561 225.69 139.561C226.654 139.561 227.482 139.038 228.174 137.993V133.127Z" fill="#F0F0F0"/>
<path d="M232.47 135.651C232.47 134.905 232.606 134.226 232.878 133.615C233.149 133.004 233.489 132.509 233.896 132.129C234.303 131.749 234.744 131.464 235.219 131.274C235.694 131.084 236.142 130.982 236.563 130.968C237.283 130.968 237.9 131.091 238.416 131.335C238.932 131.579 239.325 131.919 239.597 132.353C239.868 132.787 240.058 133.222 240.167 133.656C240.276 134.09 240.337 134.572 240.35 135.102C240.35 135.197 240.303 135.292 240.208 135.387H234.466V135.692C234.466 137.701 235.145 138.923 236.502 139.357C236.773 139.439 237.072 139.479 237.398 139.479C237.968 139.479 238.457 139.262 238.864 138.828C239.095 138.597 239.278 138.312 239.414 137.973L239.617 137.484C239.658 137.443 239.767 137.423 239.943 137.423H240.004C240.235 137.423 240.35 137.491 240.35 137.627C240.35 137.681 240.33 137.769 240.289 137.891C240.031 138.638 239.604 139.228 239.006 139.663C238.409 140.097 237.737 140.314 236.991 140.314C235.701 140.314 234.629 139.846 233.774 138.909C232.918 137.973 232.484 136.887 232.47 135.651ZM238.681 134.491C238.531 132.753 237.887 131.83 236.746 131.722H236.706C236.597 131.722 236.488 131.729 236.38 131.742C236.271 131.756 236.102 131.81 235.871 131.905C235.64 132 235.443 132.143 235.28 132.333C235.117 132.523 234.961 132.801 234.812 133.167C234.663 133.534 234.554 133.982 234.486 134.511V134.654H238.681V134.491Z" fill="#F0F0F0"/>
<path d="M241.491 131.498C242.21 131.444 242.767 131.063 243.16 130.358C243.554 129.652 243.771 128.824 243.812 127.874V127.568H244.626V131.315H247.375V132.251H244.626V135.183C244.64 136.88 244.647 137.837 244.647 138.054C244.647 138.271 244.694 138.489 244.789 138.706C244.979 139.235 245.312 139.5 245.787 139.5C246.384 139.5 246.751 139.018 246.886 138.054C246.9 137.946 246.907 137.633 246.907 137.118V136.405H247.721V137.118V137.362C247.721 138.407 247.436 139.201 246.866 139.744C246.499 140.111 246.024 140.294 245.441 140.294C244.979 140.294 244.579 140.213 244.239 140.05C243.9 139.887 243.642 139.676 243.466 139.418C243.289 139.16 243.16 138.923 243.079 138.706C242.997 138.489 242.95 138.271 242.936 138.054C242.923 137.959 242.916 136.955 242.916 135.041V132.251H241.307V131.498H241.491Z" fill="#F0F0F0"/>
<path d="M269.298 96.3136C269.379 96.395 269.42 96.4561 269.42 96.4968C269.42 96.5511 269.25 96.8158 268.911 97.2909C268.572 97.766 268.131 98.4719 267.588 99.4085C267.045 100.345 266.461 101.438 265.837 102.687C265.212 103.936 264.581 105.544 263.943 107.512C263.305 109.481 262.762 111.551 262.314 113.723C261.269 118.921 260.746 125.084 260.746 132.211C260.746 132.645 260.739 132.903 260.726 132.984C260.712 133.066 260.678 133.113 260.624 133.127C260.597 133.14 260.291 133.147 259.708 133.147C258.798 133.147 258.33 133.14 258.303 133.127C258.235 133.1 258.201 133.025 258.201 132.903C258.201 132.781 258.194 132.373 258.181 131.681C258.208 129.197 258.296 126.883 258.445 124.738C258.595 122.593 258.887 120.204 259.321 117.571C259.755 114.937 260.332 112.494 261.052 110.241C261.771 107.987 262.735 105.659 263.943 103.257C265.151 100.854 266.583 98.6619 268.239 96.6801C268.266 96.6394 268.3 96.5987 268.341 96.5579C268.382 96.5172 268.409 96.4833 268.422 96.4561C268.436 96.429 268.45 96.4086 268.463 96.395C268.477 96.3815 268.497 96.3679 268.524 96.3543C268.551 96.3407 268.572 96.334 268.585 96.334C268.599 96.334 268.633 96.3272 268.687 96.3136C268.741 96.3 268.782 96.3 268.809 96.3136H268.931H269.298Z" fill="#F0F0F0"/>
<path d="M269.42 173.503C269.42 173.544 269.379 173.605 269.298 173.687H268.952C268.694 173.687 268.558 173.68 268.545 173.666C268.436 173.558 268.334 173.442 268.239 173.32C266.868 171.65 265.647 169.865 264.574 167.965C263.502 166.065 262.606 164.11 261.886 162.101C261.167 160.092 260.57 158.117 260.095 156.176C259.62 154.235 259.246 152.185 258.975 150.027C258.703 147.868 258.513 145.893 258.405 144.102C258.296 142.31 258.221 140.382 258.181 138.319C258.181 137.627 258.181 137.219 258.181 137.097C258.181 136.975 258.215 136.9 258.283 136.873C258.31 136.86 258.785 136.853 259.708 136.853C260.291 136.853 260.597 136.86 260.624 136.873C260.678 136.887 260.712 136.934 260.726 137.016C260.739 137.097 260.746 137.355 260.746 137.79C260.746 145.798 261.425 152.653 262.782 158.354C264.14 164.056 266.284 168.983 269.217 173.137C269.352 173.327 269.42 173.449 269.42 173.503Z" fill="#F0F0F0"/>
<g clip-path="url(#clip3_747_1068)">
<path d="M260.665 140.816C260.651 140.816 260.61 140.816 260.543 140.816C260.475 140.816 260.346 140.822 260.156 140.834C259.966 140.847 259.735 140.847 259.463 140.834C258.73 140.834 258.344 140.828 258.303 140.816C258.262 140.803 258.235 140.778 258.221 140.74C258.194 140.615 258.181 139.787 258.181 138.257V135.002C258.181 131.214 258.187 129.301 258.201 129.264L258.283 129.189C258.31 129.176 258.785 129.17 259.708 129.17C259.925 129.17 260.101 129.17 260.237 129.17C260.373 129.17 260.475 129.17 260.543 129.17C260.61 129.17 260.644 129.176 260.644 129.189C260.699 129.189 260.726 129.295 260.726 129.508C260.726 129.722 260.733 130.468 260.746 131.747V138.257C260.746 139.963 260.719 140.816 260.665 140.816Z" fill="#F0F0F0"/>
</g>
<path d="M276.567 132.944V96.3136H283.632V98.0239H278.277V132.944H276.567Z" fill="#F0F0F0"/>
<path d="M276.567 173.687V137.057H278.277V171.976H283.632V173.687H276.567Z" fill="#F0F0F0"/>
<g clip-path="url(#clip4_747_1068)">
<path d="M276.567 141.139V128.857H278.277V141.139H276.567Z" fill="#F0F0F0"/>
</g>
<path d="M284.711 105.7C284.807 105.13 285.173 104.471 285.811 103.725C286.449 102.978 287.236 102.598 288.173 102.585C288.648 102.585 289.082 102.707 289.476 102.951C289.87 103.196 290.162 103.501 290.352 103.867C290.922 103.012 291.607 102.585 292.408 102.585C292.91 102.585 293.345 102.734 293.711 103.033C294.078 103.331 294.268 103.732 294.281 104.234C294.281 104.628 294.186 104.947 293.996 105.191C293.806 105.435 293.623 105.585 293.447 105.639C293.27 105.693 293.114 105.72 292.978 105.72C292.72 105.72 292.51 105.646 292.347 105.496C292.184 105.347 292.103 105.15 292.103 104.906C292.103 104.281 292.442 103.854 293.121 103.623C292.971 103.447 292.7 103.358 292.306 103.358C292.13 103.358 292.001 103.372 291.919 103.399C291.404 103.616 291.024 104.064 290.779 104.743C289.965 107.743 289.557 109.494 289.557 109.996C289.557 110.376 289.666 110.648 289.883 110.811C290.1 110.974 290.338 111.055 290.596 111.055C291.098 111.055 291.594 110.831 292.082 110.383C292.571 109.935 292.904 109.385 293.08 108.734C293.121 108.598 293.161 108.523 293.202 108.51C293.243 108.496 293.351 108.483 293.528 108.469H293.609C293.813 108.469 293.915 108.523 293.915 108.632C293.915 108.646 293.901 108.72 293.874 108.856C293.657 109.63 293.236 110.315 292.612 110.912C291.987 111.51 291.261 111.808 290.433 111.808C289.483 111.808 288.763 111.381 288.275 110.526C287.718 111.367 287.08 111.788 286.361 111.788H286.239C285.573 111.788 285.098 111.612 284.813 111.259C284.528 110.906 284.379 110.532 284.365 110.139C284.365 109.704 284.494 109.351 284.752 109.08C285.01 108.808 285.316 108.673 285.668 108.673C286.252 108.673 286.544 108.958 286.544 109.528C286.544 109.799 286.463 110.037 286.3 110.241C286.137 110.444 285.981 110.58 285.831 110.648C285.682 110.716 285.594 110.75 285.567 110.75L285.506 110.77C285.506 110.783 285.546 110.811 285.628 110.851C285.709 110.892 285.818 110.94 285.954 110.994C286.089 111.048 286.218 111.069 286.34 111.055C286.829 111.055 287.25 110.75 287.603 110.139C287.725 109.922 287.881 109.46 288.071 108.754C288.261 108.048 288.451 107.315 288.641 106.555C288.831 105.795 288.94 105.347 288.967 105.211C289.035 104.845 289.069 104.58 289.069 104.417C289.069 104.037 288.967 103.766 288.763 103.603C288.56 103.44 288.329 103.358 288.071 103.358C287.528 103.358 287.019 103.576 286.544 104.01C286.069 104.444 285.736 105.001 285.546 105.68C285.519 105.802 285.485 105.87 285.445 105.883C285.404 105.897 285.295 105.91 285.119 105.924H284.834C284.752 105.842 284.711 105.768 284.711 105.7Z" fill="#FEAB62"/>
<path d="M319.183 103.847C319.183 103.508 319.054 103.338 318.796 103.338C318.471 103.338 318.131 103.535 317.778 103.929C317.425 104.322 317.134 104.926 316.903 105.741C316.889 105.754 316.876 105.775 316.862 105.802C316.848 105.829 316.842 105.849 316.842 105.863C316.842 105.876 316.828 105.89 316.801 105.904C316.774 105.917 316.753 105.924 316.74 105.924C316.726 105.924 316.699 105.924 316.658 105.924C316.618 105.924 316.563 105.924 316.496 105.924H316.21C316.129 105.842 316.088 105.781 316.088 105.741C316.088 105.646 316.143 105.449 316.251 105.15C316.36 104.852 316.523 104.499 316.74 104.091C316.957 103.684 317.256 103.338 317.636 103.053C318.016 102.768 318.443 102.619 318.919 102.605C319.489 102.605 319.93 102.768 320.242 103.094C320.554 103.419 320.717 103.8 320.731 104.234C320.731 104.465 320.71 104.641 320.67 104.763C320.67 104.845 320.568 105.143 320.364 105.659C320.161 106.175 319.95 106.779 319.733 107.471C319.516 108.164 319.394 108.768 319.366 109.284C319.366 109.65 319.4 109.949 319.468 110.179C319.645 110.763 320.072 111.055 320.751 111.055C321.253 111.055 321.722 110.824 322.156 110.363C322.59 109.901 322.93 109.365 323.174 108.754C323.418 108.143 323.615 107.58 323.765 107.064C323.914 106.548 323.988 106.175 323.988 105.944C323.988 105.632 323.934 105.361 323.826 105.13C323.717 104.899 323.595 104.723 323.459 104.6C323.323 104.478 323.201 104.356 323.093 104.234C322.984 104.112 322.93 103.962 322.93 103.786C322.93 103.487 323.059 103.209 323.317 102.951C323.574 102.693 323.853 102.564 324.151 102.564C324.409 102.564 324.64 102.686 324.844 102.931C325.047 103.175 325.156 103.569 325.169 104.112C325.169 104.478 325.088 105.042 324.925 105.802C324.762 106.562 324.511 107.41 324.172 108.347C323.832 109.284 323.35 110.091 322.726 110.77C322.102 111.449 321.382 111.795 320.568 111.808C319.699 111.808 319.007 111.584 318.491 111.136C317.989 110.702 317.738 110.057 317.738 109.202C317.738 108.781 317.792 108.347 317.9 107.899C318.009 107.451 318.287 106.657 318.735 105.517C319.034 104.648 319.183 104.091 319.183 103.847Z" fill="#FFF888"/>
<path d="M329.274 106.318L329.087 106.39C328.953 106.438 328.761 106.486 328.511 106.534C328.262 106.582 327.983 106.616 327.676 106.635H327.403V105.973H327.676C328.127 105.953 328.545 105.881 328.929 105.757C329.312 105.632 329.581 105.517 329.735 105.411C329.888 105.306 330.023 105.2 330.138 105.094C330.157 105.066 330.215 105.051 330.311 105.051C330.397 105.051 330.479 105.08 330.555 105.138V109.442L330.57 113.761C330.637 113.828 330.694 113.871 330.742 113.89C330.79 113.909 330.906 113.928 331.088 113.948C331.27 113.967 331.568 113.976 331.98 113.976H332.355V114.639H332.196C331.995 114.61 331.232 114.595 329.907 114.595C328.602 114.595 327.849 114.61 327.647 114.639H327.475V113.976H327.849C328.06 113.976 328.242 113.976 328.396 113.976C328.55 113.976 328.669 113.972 328.756 113.962C328.842 113.952 328.919 113.938 328.986 113.919C329.053 113.9 329.092 113.89 329.101 113.89C329.111 113.89 329.14 113.866 329.188 113.818C329.236 113.77 329.264 113.751 329.274 113.761V106.318Z" fill="#FFF888"/>
<path d="M366.597 103.745C366.597 103.46 366.726 103.196 366.983 102.951C367.241 102.707 367.526 102.578 367.839 102.564C368.083 102.564 368.307 102.686 368.511 102.931C368.714 103.175 368.823 103.562 368.836 104.091C368.836 104.485 368.707 105.266 368.449 106.433C368.246 107.193 368.063 107.818 367.9 108.306C367.737 108.795 367.499 109.345 367.187 109.955C366.875 110.566 366.502 111.028 366.067 111.34C365.633 111.652 365.144 111.808 364.601 111.808C364.004 111.808 363.475 111.7 363.013 111.483C362.551 111.265 362.219 110.974 362.015 110.607C362.002 110.621 361.981 110.648 361.954 110.688C361.398 111.435 360.719 111.808 359.918 111.808C359.565 111.808 359.226 111.768 358.9 111.686C358.574 111.605 358.255 111.476 357.943 111.299C357.631 111.123 357.38 110.858 357.19 110.505C357 110.152 356.905 109.725 356.905 109.222C356.905 108.489 357.135 107.499 357.597 106.25C358.058 105.001 358.296 104.207 358.31 103.867C358.31 103.854 358.31 103.84 358.31 103.827C358.31 103.705 358.31 103.623 358.31 103.582C358.31 103.542 358.282 103.494 358.228 103.44C358.174 103.386 358.099 103.358 358.004 103.358H357.923C357.61 103.358 357.325 103.487 357.067 103.745C356.81 104.003 356.606 104.281 356.457 104.58C356.307 104.879 356.192 105.164 356.11 105.435C356.029 105.707 355.975 105.856 355.948 105.883C355.92 105.91 355.812 105.924 355.622 105.924H355.337C355.255 105.842 355.215 105.781 355.215 105.741C355.215 105.659 355.269 105.469 355.377 105.171C355.486 104.872 355.642 104.526 355.846 104.132C356.049 103.738 356.348 103.386 356.742 103.073C357.135 102.761 357.577 102.605 358.065 102.605C358.649 102.605 359.097 102.775 359.409 103.114C359.721 103.453 359.877 103.847 359.877 104.295C359.877 104.539 359.653 105.272 359.205 106.494C358.757 107.716 358.533 108.659 358.533 109.324C358.533 109.949 358.676 110.39 358.961 110.648C359.246 110.906 359.606 111.041 360.04 111.055C360.624 111.055 361.14 110.641 361.588 109.813L361.689 109.63V109.161C361.689 109.121 361.689 109.06 361.689 108.978C361.689 108.897 361.696 108.842 361.71 108.815C361.723 108.788 361.73 108.741 361.73 108.673C361.73 108.605 361.737 108.544 361.751 108.489C361.764 108.435 361.785 108.347 361.812 108.225C361.839 108.103 361.859 107.987 361.873 107.879C361.886 107.77 361.927 107.607 361.995 107.39C362.063 107.173 362.117 106.956 362.158 106.738C362.199 106.521 362.273 106.229 362.382 105.863C362.775 104.315 362.999 103.481 363.054 103.358C363.23 102.992 363.522 102.809 363.929 102.809C364.187 102.809 364.364 102.877 364.459 103.012C364.554 103.148 364.608 103.277 364.622 103.399C364.622 103.576 364.425 104.444 364.031 106.005C363.637 107.566 363.42 108.462 363.379 108.693C363.352 108.842 363.339 109.08 363.339 109.406V109.548C363.339 109.752 363.359 109.949 363.4 110.139C363.441 110.329 363.57 110.526 363.787 110.729C364.004 110.933 364.309 111.041 364.703 111.055C365.667 111.055 366.434 110.227 367.004 108.571C367.126 108.259 367.262 107.818 367.411 107.247C367.56 106.677 367.642 106.27 367.655 106.026C367.655 105.578 367.567 105.225 367.391 104.967C367.214 104.709 367.038 104.492 366.861 104.315C366.685 104.139 366.597 103.949 366.597 103.745Z" fill="#D582FF"/>
<path d="M373.104 106.318L372.917 106.39C372.782 106.438 372.59 106.486 372.341 106.534C372.091 106.582 371.813 106.616 371.506 106.635H371.232V105.973H371.506C371.957 105.953 372.374 105.881 372.758 105.757C373.142 105.632 373.411 105.517 373.565 105.411C373.718 105.306 373.852 105.2 373.968 105.094C373.987 105.066 374.044 105.051 374.14 105.051C374.227 105.051 374.308 105.08 374.385 105.138V109.442L374.399 113.761C374.467 113.828 374.524 113.871 374.572 113.89C374.62 113.909 374.735 113.928 374.918 113.948C375.1 113.967 375.398 113.976 375.81 113.976H376.184V114.639H376.026C375.825 114.61 375.062 114.595 373.737 114.595C372.432 114.595 371.679 114.61 371.477 114.639H371.304V113.976H371.679C371.89 113.976 372.072 113.976 372.226 113.976C372.379 113.976 372.499 113.972 372.586 113.962C372.672 113.952 372.749 113.938 372.816 113.919C372.883 113.9 372.922 113.89 372.931 113.89C372.941 113.89 372.97 113.866 373.017 113.818C373.065 113.77 373.094 113.751 373.104 113.761V106.318Z" fill="#D582FF"/>
<path d="M284.08 134.247C284.08 134.057 284.182 133.731 284.386 133.269C284.589 132.808 284.915 132.326 285.363 131.824C285.811 131.321 286.313 131.077 286.87 131.091C287.426 131.091 287.874 131.247 288.214 131.559C288.553 131.871 288.729 132.306 288.743 132.862C288.716 133.12 288.696 133.263 288.682 133.29C288.682 133.33 288.573 133.643 288.356 134.226C288.139 134.81 287.915 135.468 287.684 136.201C287.453 136.934 287.345 137.518 287.358 137.952C287.358 138.536 287.453 138.943 287.644 139.174C287.834 139.405 288.119 139.527 288.499 139.541C288.811 139.541 289.103 139.466 289.374 139.317C289.646 139.167 289.856 139.011 290.005 138.848C290.155 138.685 290.338 138.461 290.555 138.176C290.555 138.163 290.589 138.027 290.657 137.769C290.725 137.511 290.82 137.111 290.942 136.568C291.064 136.025 291.193 135.523 291.329 135.061C291.845 133.025 292.13 131.959 292.184 131.864C292.361 131.498 292.652 131.315 293.06 131.315C293.236 131.315 293.379 131.362 293.487 131.457C293.596 131.552 293.67 131.634 293.711 131.701C293.752 131.769 293.765 131.83 293.752 131.885C293.752 132.061 293.419 133.486 292.754 136.161C292.089 138.835 291.709 140.301 291.614 140.559C291.234 141.685 290.576 142.581 289.639 143.246C288.702 143.911 287.766 144.251 286.829 144.264C286.218 144.264 285.682 144.115 285.221 143.816C284.759 143.518 284.528 143.07 284.528 142.473C284.528 142.174 284.576 141.923 284.671 141.719C284.766 141.516 284.895 141.366 285.058 141.271C285.221 141.176 285.356 141.108 285.465 141.068C285.573 141.027 285.689 141.007 285.811 141.007C286.408 141.007 286.707 141.292 286.707 141.862C286.707 142.133 286.625 142.371 286.463 142.574C286.3 142.778 286.144 142.914 285.994 142.982C285.845 143.05 285.757 143.083 285.73 143.083L285.668 143.104C285.696 143.172 285.825 143.253 286.055 143.348C286.286 143.443 286.517 143.491 286.748 143.491H286.911C287.141 143.491 287.318 143.477 287.44 143.45C287.888 143.328 288.302 143.07 288.682 142.676C289.062 142.283 289.354 141.862 289.557 141.414C289.761 140.966 289.917 140.586 290.026 140.274C290.134 139.961 290.189 139.758 290.189 139.663L290.067 139.744C289.985 139.798 289.856 139.873 289.68 139.968C289.503 140.063 289.327 140.145 289.15 140.213C288.879 140.28 288.614 140.314 288.356 140.314C287.732 140.314 287.182 140.165 286.707 139.866C286.232 139.568 285.92 139.086 285.77 138.421C285.757 138.326 285.75 138.115 285.75 137.79C285.75 137.016 285.987 136.004 286.463 134.756C286.938 133.507 287.175 132.713 287.175 132.373C287.175 132.36 287.175 132.346 287.175 132.333C287.175 132.211 287.175 132.129 287.175 132.088C287.175 132.048 287.148 132 287.094 131.946C287.039 131.892 286.965 131.864 286.87 131.864H286.788C286.476 131.864 286.191 131.993 285.933 132.251C285.675 132.509 285.472 132.787 285.322 133.086C285.173 133.385 285.058 133.67 284.976 133.941C284.895 134.213 284.84 134.362 284.813 134.389C284.786 134.416 284.678 134.43 284.488 134.43H284.202C284.121 134.348 284.08 134.287 284.08 134.247Z" fill="#FEAB62"/>
<path d="M319.183 132.353C319.183 132.014 319.054 131.844 318.796 131.844C318.471 131.844 318.131 132.041 317.778 132.434C317.425 132.828 317.134 133.432 316.903 134.247C316.889 134.26 316.876 134.28 316.862 134.308C316.848 134.335 316.842 134.355 316.842 134.369C316.842 134.382 316.828 134.396 316.801 134.409C316.774 134.423 316.753 134.43 316.74 134.43C316.726 134.43 316.699 134.43 316.658 134.43C316.618 134.43 316.563 134.43 316.496 134.43H316.21C316.129 134.348 316.088 134.287 316.088 134.247C316.088 134.152 316.143 133.955 316.251 133.656C316.36 133.357 316.523 133.004 316.74 132.597C316.957 132.19 317.256 131.844 317.636 131.559C318.016 131.274 318.443 131.124 318.919 131.111C319.489 131.111 319.93 131.274 320.242 131.6C320.554 131.925 320.717 132.305 320.731 132.74C320.731 132.971 320.71 133.147 320.67 133.269C320.67 133.351 320.568 133.649 320.364 134.165C320.161 134.681 319.95 135.285 319.733 135.977C319.516 136.67 319.394 137.274 319.366 137.789C319.366 138.156 319.4 138.455 319.468 138.685C319.645 139.269 320.072 139.561 320.751 139.561C321.253 139.561 321.722 139.33 322.156 138.869C322.59 138.407 322.93 137.871 323.174 137.26C323.418 136.649 323.615 136.086 323.765 135.57C323.914 135.054 323.988 134.681 323.988 134.45C323.988 134.138 323.934 133.866 323.826 133.636C323.717 133.405 323.595 133.228 323.459 133.106C323.323 132.984 323.201 132.862 323.093 132.74C322.984 132.618 322.93 132.468 322.93 132.292C322.93 131.993 323.059 131.715 323.317 131.457C323.574 131.199 323.853 131.07 324.151 131.07C324.409 131.07 324.64 131.192 324.844 131.437C325.047 131.681 325.156 132.075 325.169 132.618C325.169 132.984 325.088 133.547 324.925 134.308C324.762 135.068 324.511 135.916 324.172 136.853C323.832 137.789 323.35 138.597 322.726 139.276C322.102 139.954 321.382 140.301 320.568 140.314C319.699 140.314 319.007 140.09 318.491 139.642C317.989 139.208 317.738 138.563 317.738 137.708C317.738 137.287 317.792 136.853 317.9 136.405C318.009 135.957 318.287 135.163 318.735 134.023C319.034 133.154 319.183 132.597 319.183 132.353Z" fill="#FFF888"/>
<path d="M327.777 136.969C327.518 136.969 327.312 136.883 327.158 136.71C327.004 136.537 326.928 136.326 326.928 136.076C326.928 135.395 327.182 134.805 327.691 134.306C328.199 133.807 328.833 133.557 329.591 133.557C330.464 133.557 331.193 133.826 331.779 134.363C332.364 134.901 332.662 135.597 332.671 136.451C332.671 136.863 332.575 137.257 332.384 137.631C332.192 138.005 331.961 138.332 331.693 138.61C331.424 138.888 331.04 139.243 330.541 139.675C330.195 139.973 329.716 140.414 329.101 141L328.252 141.806L329.346 141.82C330.853 141.82 331.654 141.796 331.75 141.748C331.817 141.729 331.932 141.302 332.096 140.467V140.424H332.671V140.467C332.662 140.496 332.599 140.932 332.484 141.777C332.369 142.621 332.297 143.063 332.268 143.101V143.145H326.928V142.871V142.698C326.928 142.631 326.956 142.559 327.014 142.482C327.072 142.406 327.216 142.238 327.446 141.978C327.724 141.671 327.964 141.403 328.166 141.172C328.252 141.076 328.415 140.899 328.655 140.64C328.895 140.381 329.058 140.203 329.145 140.107C329.231 140.011 329.37 139.853 329.562 139.632C329.754 139.411 329.888 139.248 329.965 139.143C330.042 139.037 330.152 138.893 330.296 138.711C330.44 138.528 330.541 138.375 330.598 138.25C330.656 138.125 330.728 137.986 330.814 137.833C330.901 137.679 330.963 137.526 331.002 137.372C331.04 137.218 331.074 137.074 331.102 136.94C331.131 136.806 331.146 136.647 331.146 136.465C331.146 135.86 330.982 135.337 330.656 134.896C330.33 134.454 329.864 134.234 329.26 134.234C328.943 134.234 328.665 134.315 328.425 134.478C328.185 134.642 328.017 134.8 327.921 134.954C327.825 135.107 327.777 135.198 327.777 135.227C327.777 135.237 327.801 135.241 327.849 135.241C328.022 135.241 328.199 135.309 328.382 135.443C328.564 135.577 328.655 135.798 328.655 136.105C328.655 136.345 328.578 136.547 328.425 136.71C328.271 136.873 328.055 136.959 327.777 136.969Z" fill="#FFF888"/>
<path d="M366.597 132.251C366.597 131.966 366.726 131.701 366.983 131.457C367.241 131.213 367.526 131.084 367.839 131.07C368.083 131.07 368.307 131.192 368.511 131.437C368.714 131.681 368.823 132.068 368.836 132.597C368.836 132.991 368.707 133.771 368.449 134.939C368.246 135.699 368.063 136.323 367.9 136.812C367.737 137.301 367.499 137.85 367.187 138.461C366.875 139.072 366.502 139.534 366.067 139.846C365.633 140.158 365.144 140.314 364.601 140.314C364.004 140.314 363.475 140.206 363.013 139.988C362.551 139.771 362.219 139.479 362.015 139.113C362.002 139.126 361.981 139.154 361.954 139.194C361.398 139.941 360.719 140.314 359.918 140.314C359.565 140.314 359.226 140.273 358.9 140.192C358.574 140.111 358.255 139.982 357.943 139.805C357.631 139.629 357.38 139.364 357.19 139.011C357 138.658 356.905 138.231 356.905 137.728C356.905 136.995 357.135 136.004 357.597 134.756C358.058 133.507 358.296 132.713 358.31 132.373C358.31 132.36 358.31 132.346 358.31 132.333C358.31 132.21 358.31 132.129 358.31 132.088C358.31 132.048 358.282 132 358.228 131.946C358.174 131.891 358.099 131.864 358.004 131.864H357.923C357.61 131.864 357.325 131.993 357.067 132.251C356.81 132.509 356.606 132.787 356.457 133.086C356.307 133.385 356.192 133.67 356.11 133.941C356.029 134.213 355.975 134.362 355.948 134.389C355.92 134.416 355.812 134.43 355.622 134.43H355.337C355.255 134.348 355.215 134.287 355.215 134.247C355.215 134.165 355.269 133.975 355.377 133.676C355.486 133.378 355.642 133.032 355.846 132.638C356.049 132.244 356.348 131.891 356.742 131.579C357.135 131.267 357.577 131.111 358.065 131.111C358.649 131.111 359.097 131.281 359.409 131.62C359.721 131.959 359.877 132.353 359.877 132.801C359.877 133.045 359.653 133.778 359.205 135C358.757 136.222 358.533 137.165 358.533 137.83C358.533 138.455 358.676 138.896 358.961 139.154C359.246 139.412 359.606 139.547 360.04 139.561C360.624 139.561 361.14 139.147 361.588 138.319L361.689 138.136V137.667C361.689 137.627 361.689 137.565 361.689 137.484C361.689 137.403 361.696 137.348 361.71 137.321C361.723 137.294 361.73 137.246 361.73 137.179C361.73 137.111 361.737 137.05 361.751 136.995C361.764 136.941 361.785 136.853 361.812 136.731C361.839 136.608 361.859 136.493 361.873 136.384C361.886 136.276 361.927 136.113 361.995 135.896C362.063 135.679 362.117 135.461 362.158 135.244C362.199 135.027 362.273 134.735 362.382 134.369C362.775 132.821 362.999 131.986 363.054 131.864C363.23 131.498 363.522 131.315 363.929 131.315C364.187 131.315 364.364 131.382 364.459 131.518C364.554 131.654 364.608 131.783 364.622 131.905C364.622 132.081 364.425 132.95 364.031 134.511C363.637 136.072 363.42 136.968 363.379 137.199C363.352 137.348 363.339 137.586 363.339 137.912V138.054C363.339 138.258 363.359 138.455 363.4 138.645C363.441 138.835 363.57 139.031 363.787 139.235C364.004 139.439 364.309 139.547 364.703 139.561C365.667 139.561 366.434 138.733 367.004 137.077C367.126 136.765 367.262 136.323 367.411 135.753C367.56 135.183 367.642 134.776 367.655 134.532C367.655 134.084 367.567 133.731 367.391 133.473C367.214 133.215 367.038 132.998 366.861 132.821C366.685 132.645 366.597 132.455 366.597 132.251Z" fill="#D582FF"/>
<path d="M371.607 136.969C371.348 136.969 371.141 136.883 370.988 136.71C370.834 136.537 370.757 136.326 370.757 136.076C370.757 135.395 371.012 134.805 371.52 134.306C372.029 133.807 372.662 133.557 373.421 133.557C374.294 133.557 375.023 133.826 375.609 134.363C376.194 134.901 376.492 135.597 376.501 136.451C376.501 136.863 376.405 137.257 376.213 137.631C376.021 138.005 375.791 138.332 375.522 138.61C375.254 138.888 374.87 139.243 374.371 139.675C374.025 139.973 373.545 140.414 372.931 141L372.082 141.806L373.176 141.82C374.683 141.82 375.484 141.796 375.58 141.748C375.647 141.729 375.762 141.302 375.925 140.467V140.424H376.501V140.467C376.492 140.496 376.429 140.932 376.314 141.777C376.199 142.621 376.127 143.063 376.098 143.101V143.145H370.757V142.871V142.698C370.757 142.631 370.786 142.559 370.844 142.482C370.901 142.406 371.045 142.238 371.276 141.978C371.554 141.671 371.794 141.403 371.995 141.172C372.082 141.076 372.245 140.899 372.485 140.64C372.725 140.381 372.888 140.203 372.974 140.107C373.061 140.011 373.2 139.853 373.392 139.632C373.584 139.411 373.718 139.248 373.795 139.143C373.872 139.037 373.982 138.893 374.126 138.711C374.27 138.528 374.371 138.375 374.428 138.25C374.486 138.125 374.558 137.986 374.644 137.833C374.731 137.679 374.793 137.526 374.831 137.372C374.87 137.218 374.903 137.074 374.932 136.94C374.961 136.806 374.975 136.647 374.975 136.465C374.975 135.86 374.812 135.337 374.486 134.896C374.16 134.454 373.694 134.234 373.089 134.234C372.773 134.234 372.494 134.315 372.255 134.478C372.015 134.642 371.847 134.8 371.751 134.954C371.655 135.107 371.607 135.198 371.607 135.227C371.607 135.237 371.631 135.241 371.679 135.241C371.851 135.241 372.029 135.309 372.211 135.443C372.394 135.577 372.485 135.798 372.485 136.105C372.485 136.345 372.408 136.547 372.255 136.71C372.101 136.873 371.885 136.959 371.607 136.969Z" fill="#D582FF"/>
<path d="M290.718 161.714C290.582 161.714 290.223 161.639 289.639 161.49C289.055 161.341 288.628 161.266 288.356 161.266C288.085 161.266 287.854 161.293 287.664 161.347C287.474 161.402 287.318 161.47 287.196 161.551C287.073 161.633 286.992 161.707 286.951 161.775C286.911 161.843 286.863 161.918 286.809 161.999L286.768 162.08C286.727 162.121 286.625 162.142 286.463 162.142C286.178 162.142 286.035 162.087 286.035 161.979C286.035 161.911 286.055 161.816 286.096 161.694C286.273 161.164 286.564 160.709 286.972 160.329C287.379 159.949 287.827 159.719 288.315 159.637C288.478 159.61 288.594 159.596 288.662 159.596C289.001 159.596 289.306 159.712 289.578 159.943C289.849 160.173 290.107 160.397 290.352 160.614C290.596 160.832 290.854 160.947 291.125 160.961C291.424 160.961 291.723 160.737 292.021 160.289C292.32 159.841 292.476 159.617 292.49 159.617C292.503 159.603 292.605 159.596 292.795 159.596H293.06C293.141 159.678 293.182 159.732 293.182 159.759C293.182 159.814 293.148 159.909 293.08 160.044C293.012 160.18 292.917 160.323 292.795 160.472C292.673 160.621 292.557 160.771 292.449 160.92C292.34 161.069 292.245 161.198 292.164 161.307L292.021 161.49C291.438 162.182 290.514 163.099 289.252 164.239C287.99 165.379 287.209 166.112 286.911 166.438L286.666 166.682L286.972 166.702C287.27 166.702 287.705 166.777 288.275 166.926C288.845 167.076 289.272 167.15 289.557 167.15C290.073 167.15 290.548 167.021 290.983 166.764C291.417 166.506 291.702 166.166 291.838 165.746C291.892 165.623 291.94 165.549 291.98 165.522C292.021 165.494 292.123 165.481 292.286 165.481C292.544 165.481 292.673 165.549 292.673 165.684C292.673 165.752 292.666 165.813 292.652 165.868C292.422 166.709 291.974 167.408 291.309 167.965C290.643 168.521 289.978 168.806 289.313 168.82C288.96 168.82 288.648 168.705 288.377 168.474C288.105 168.243 287.84 168.012 287.582 167.782C287.325 167.551 287.067 167.435 286.809 167.435C286.211 167.435 285.675 167.843 285.2 168.657C285.119 168.766 285.003 168.82 284.854 168.82H284.752H284.488C284.406 168.739 284.365 168.678 284.365 168.637C284.365 168.433 284.759 167.85 285.546 166.886C286.076 166.275 286.972 165.393 288.234 164.239C289.496 163.085 290.277 162.352 290.576 162.04C290.738 161.823 290.786 161.714 290.718 161.714Z" fill="#FEAB62"/>
<path d="M319.183 160.859C319.183 160.519 319.054 160.35 318.796 160.35C318.471 160.35 318.131 160.547 317.778 160.94C317.425 161.334 317.134 161.938 316.903 162.752C316.889 162.766 316.876 162.786 316.862 162.813C316.848 162.841 316.842 162.861 316.842 162.875C316.842 162.888 316.828 162.902 316.801 162.915C316.774 162.929 316.753 162.936 316.74 162.936C316.726 162.936 316.699 162.936 316.658 162.936C316.618 162.936 316.563 162.936 316.496 162.936H316.21C316.129 162.854 316.088 162.793 316.088 162.752C316.088 162.657 316.143 162.461 316.251 162.162C316.36 161.863 316.523 161.51 316.74 161.103C316.957 160.696 317.256 160.35 317.636 160.065C318.016 159.78 318.443 159.63 318.919 159.617C319.489 159.617 319.93 159.78 320.242 160.105C320.554 160.431 320.717 160.811 320.731 161.246C320.731 161.476 320.71 161.653 320.67 161.775C320.67 161.856 320.568 162.155 320.364 162.671C320.161 163.187 319.95 163.791 319.733 164.483C319.516 165.175 319.394 165.779 319.366 166.295C319.366 166.662 319.4 166.96 319.468 167.191C319.645 167.775 320.072 168.067 320.751 168.067C321.253 168.067 321.722 167.836 322.156 167.374C322.59 166.913 322.93 166.377 323.174 165.766C323.418 165.155 323.615 164.592 323.765 164.076C323.914 163.56 323.988 163.187 323.988 162.956C323.988 162.644 323.934 162.372 323.826 162.142C323.717 161.911 323.595 161.734 323.459 161.612C323.323 161.49 323.201 161.368 323.093 161.246C322.984 161.123 322.93 160.974 322.93 160.798C322.93 160.499 323.059 160.221 323.317 159.963C323.574 159.705 323.853 159.576 324.151 159.576C324.409 159.576 324.64 159.698 324.844 159.943C325.047 160.187 325.156 160.581 325.169 161.123C325.169 161.49 325.088 162.053 324.925 162.813C324.762 163.574 324.511 164.422 324.172 165.359C323.832 166.295 323.35 167.103 322.726 167.782C322.102 168.46 321.382 168.806 320.568 168.82C319.699 168.82 319.007 168.596 318.491 168.148C317.989 167.714 317.738 167.069 317.738 166.214C317.738 165.793 317.792 165.359 317.9 164.911C318.009 164.463 318.287 163.669 318.735 162.528C319.034 161.66 319.183 161.103 319.183 160.859Z" fill="#FFF888"/>
<path d="M328.036 164.985C327.777 164.985 327.575 164.904 327.431 164.741C327.288 164.577 327.211 164.366 327.201 164.107C327.201 163.579 327.431 163.109 327.892 162.696C328.353 162.284 328.909 162.077 329.562 162.077C329.898 162.077 330.109 162.082 330.195 162.092C330.906 162.207 331.448 162.461 331.822 162.855C332.196 163.248 332.388 163.675 332.398 164.136C332.398 164.635 332.235 165.12 331.908 165.59C331.582 166.06 331.131 166.401 330.555 166.612L330.512 166.641C330.512 166.65 330.555 166.665 330.642 166.684C330.728 166.703 330.867 166.746 331.059 166.813C331.251 166.881 331.433 166.981 331.606 167.116C332.393 167.624 332.787 168.296 332.787 169.131C332.787 169.889 332.489 170.551 331.894 171.118C331.299 171.684 330.546 171.967 329.634 171.967C328.866 171.967 328.204 171.761 327.647 171.348C327.091 170.935 326.812 170.412 326.812 169.779C326.812 169.51 326.899 169.294 327.072 169.131C327.244 168.968 327.46 168.882 327.719 168.872C327.988 168.872 328.209 168.958 328.382 169.131C328.554 169.304 328.641 169.52 328.641 169.779C328.641 169.884 328.626 169.98 328.598 170.067C328.569 170.153 328.535 170.23 328.497 170.297C328.458 170.364 328.406 170.422 328.338 170.47C328.271 170.518 328.214 170.556 328.166 170.585C328.118 170.614 328.07 170.633 328.022 170.643C327.974 170.652 327.935 170.667 327.907 170.686L327.849 170.7C328.338 171.132 328.933 171.348 329.634 171.348C330.162 171.348 330.56 171.094 330.829 170.585C330.992 170.268 331.074 169.784 331.074 169.131V168.843C331.074 167.932 330.766 167.322 330.152 167.015C330.008 166.957 329.716 166.924 329.274 166.914L328.669 166.9L328.626 166.871C328.607 166.842 328.598 166.765 328.598 166.641C328.598 166.468 328.636 166.382 328.713 166.382C328.981 166.382 329.26 166.358 329.548 166.31C329.874 166.262 330.171 166.06 330.44 165.705C330.709 165.35 330.843 164.813 330.843 164.093V163.978C330.843 163.431 330.675 163.051 330.339 162.84C330.128 162.706 329.903 162.639 329.663 162.639C329.356 162.639 329.073 162.692 328.813 162.797C328.554 162.903 328.372 163.013 328.266 163.128C328.161 163.243 328.108 163.301 328.108 163.301H328.151C328.18 163.311 328.218 163.32 328.266 163.33C328.314 163.339 328.362 163.363 328.41 163.402C328.458 163.44 328.516 163.474 328.583 163.503C328.65 163.531 328.698 163.584 328.727 163.661C328.756 163.738 328.794 163.81 328.842 163.877C328.89 163.944 328.905 164.04 328.885 164.165C328.885 164.376 328.818 164.563 328.684 164.726C328.55 164.889 328.334 164.976 328.036 164.985Z" fill="#FFF888"/>
<path d="M366.597 160.757C366.597 160.472 366.726 160.207 366.983 159.963C367.241 159.719 367.526 159.59 367.839 159.576C368.083 159.576 368.307 159.698 368.511 159.943C368.714 160.187 368.823 160.574 368.836 161.103C368.836 161.497 368.707 162.277 368.449 163.445C368.246 164.205 368.063 164.829 367.9 165.318C367.737 165.807 367.499 166.356 367.187 166.967C366.875 167.578 366.502 168.04 366.067 168.352C365.633 168.664 365.144 168.82 364.601 168.82C364.004 168.82 363.475 168.711 363.013 168.494C362.551 168.277 362.219 167.985 362.015 167.619C362.002 167.632 361.981 167.659 361.954 167.7C361.398 168.447 360.719 168.82 359.918 168.82C359.565 168.82 359.226 168.779 358.9 168.698C358.574 168.616 358.255 168.488 357.943 168.311C357.631 168.135 357.38 167.87 357.19 167.517C357 167.164 356.905 166.736 356.905 166.234C356.905 165.501 357.135 164.51 357.597 163.261C358.058 162.013 358.296 161.219 358.31 160.879C358.31 160.866 358.31 160.852 358.31 160.838C358.31 160.716 358.31 160.635 358.31 160.594C358.31 160.553 358.282 160.506 358.228 160.452C358.174 160.397 358.099 160.37 358.004 160.37H357.923C357.61 160.37 357.325 160.499 357.067 160.757C356.81 161.015 356.606 161.293 356.457 161.592C356.307 161.89 356.192 162.175 356.11 162.447C356.029 162.718 355.975 162.868 355.948 162.895C355.92 162.922 355.812 162.936 355.622 162.936H355.337C355.255 162.854 355.215 162.793 355.215 162.752C355.215 162.671 355.269 162.481 355.377 162.182C355.486 161.884 355.642 161.538 355.846 161.144C356.049 160.75 356.348 160.397 356.742 160.085C357.135 159.773 357.577 159.617 358.065 159.617C358.649 159.617 359.097 159.786 359.409 160.126C359.721 160.465 359.877 160.859 359.877 161.307C359.877 161.551 359.653 162.284 359.205 163.506C358.757 164.727 358.533 165.671 358.533 166.336C358.533 166.96 358.676 167.402 358.961 167.659C359.246 167.917 359.606 168.053 360.04 168.067C360.624 168.067 361.14 167.653 361.588 166.825L361.689 166.641V166.173C361.689 166.132 361.689 166.071 361.689 165.99C361.689 165.908 361.696 165.854 361.71 165.827C361.723 165.8 361.73 165.752 361.73 165.684C361.73 165.617 361.737 165.555 361.751 165.501C361.764 165.447 361.785 165.359 361.812 165.236C361.839 165.114 361.859 164.999 361.873 164.89C361.886 164.782 361.927 164.619 361.995 164.402C362.063 164.184 362.117 163.967 362.158 163.75C362.199 163.533 362.273 163.241 362.382 162.875C362.775 161.327 362.999 160.492 363.054 160.37C363.23 160.004 363.522 159.82 363.929 159.82C364.187 159.82 364.364 159.888 364.459 160.024C364.554 160.16 364.608 160.289 364.622 160.411C364.622 160.587 364.425 161.456 364.031 163.017C363.637 164.578 363.42 165.474 363.379 165.705C363.352 165.854 363.339 166.092 363.339 166.417V166.56C363.339 166.764 363.359 166.96 363.4 167.15C363.441 167.34 363.57 167.537 363.787 167.741C364.004 167.945 364.309 168.053 364.703 168.067C365.667 168.067 366.434 167.239 367.004 165.583C367.126 165.27 367.262 164.829 367.411 164.259C367.56 163.689 367.642 163.282 367.655 163.037C367.655 162.59 367.567 162.237 367.391 161.979C367.214 161.721 367.038 161.504 366.861 161.327C366.685 161.151 366.597 160.961 366.597 160.757Z" fill="#D582FF"/>
<path d="M371.866 164.985C371.607 164.985 371.405 164.904 371.261 164.741C371.117 164.577 371.041 164.366 371.031 164.107C371.031 163.579 371.261 163.109 371.722 162.696C372.183 162.284 372.739 162.077 373.392 162.077C373.728 162.077 373.939 162.082 374.025 162.092C374.735 162.207 375.278 162.461 375.652 162.855C376.026 163.248 376.218 163.675 376.228 164.136C376.228 164.635 376.065 165.12 375.738 165.59C375.412 166.06 374.961 166.401 374.385 166.612L374.342 166.641C374.342 166.65 374.385 166.665 374.471 166.684C374.558 166.703 374.697 166.746 374.889 166.813C375.081 166.881 375.263 166.981 375.436 167.116C376.223 167.624 376.616 168.296 376.616 169.131C376.616 169.889 376.319 170.551 375.724 171.118C375.129 171.684 374.375 171.967 373.464 171.967C372.696 171.967 372.034 171.761 371.477 171.348C370.921 170.935 370.642 170.412 370.642 169.779C370.642 169.51 370.729 169.294 370.901 169.131C371.074 168.968 371.29 168.882 371.549 168.872C371.818 168.872 372.039 168.958 372.211 169.131C372.384 169.304 372.47 169.52 372.47 169.779C372.47 169.884 372.456 169.98 372.427 170.067C372.399 170.153 372.365 170.23 372.327 170.297C372.288 170.364 372.235 170.422 372.168 170.47C372.101 170.518 372.043 170.556 371.995 170.585C371.947 170.614 371.899 170.633 371.851 170.643C371.804 170.652 371.765 170.667 371.736 170.686L371.679 170.7C372.168 171.132 372.763 171.348 373.464 171.348C373.992 171.348 374.39 171.094 374.659 170.585C374.822 170.268 374.903 169.784 374.903 169.131V168.843C374.903 167.932 374.596 167.322 373.982 167.015C373.838 166.957 373.545 166.924 373.104 166.914L372.499 166.9L372.456 166.871C372.437 166.842 372.427 166.765 372.427 166.641C372.427 166.468 372.466 166.382 372.542 166.382C372.811 166.382 373.089 166.358 373.377 166.31C373.704 166.262 374.001 166.06 374.27 165.705C374.539 165.35 374.673 164.813 374.673 164.093V163.978C374.673 163.431 374.505 163.051 374.169 162.84C373.958 162.706 373.732 162.639 373.493 162.639C373.185 162.639 372.902 162.692 372.643 162.797C372.384 162.903 372.202 163.013 372.096 163.128C371.991 163.243 371.938 163.301 371.938 163.301H371.981C372.01 163.311 372.048 163.32 372.096 163.33C372.144 163.339 372.192 163.363 372.24 163.402C372.288 163.44 372.346 163.474 372.413 163.503C372.48 163.531 372.528 163.584 372.557 163.661C372.586 163.738 372.624 163.81 372.672 163.877C372.72 163.944 372.734 164.04 372.715 164.165C372.715 164.376 372.648 164.563 372.514 164.726C372.379 164.889 372.163 164.976 371.866 164.985Z" fill="#D582FF"/>
<path d="M378.253 98.0239V96.3136H385.319V132.944H383.608V98.0239H378.253Z" fill="#F0F0F0"/>
<path d="M383.608 171.976V137.057H385.319V173.687H378.253V171.976H383.608Z" fill="#F0F0F0"/>
<g clip-path="url(#clip5_747_1068)">
<path d="M383.608 141.139V128.857H385.319V141.139H383.608Z" fill="#F0F0F0"/>
</g>
<path d="M392.466 96.5376C392.466 96.3883 392.588 96.3136 392.832 96.3136H393.036C393.212 96.3136 393.321 96.3272 393.361 96.3543C393.402 96.3815 393.497 96.4901 393.647 96.6801C395.018 98.3497 396.239 100.135 397.312 102.035C398.384 103.936 399.28 105.89 399.999 107.899C400.719 109.908 401.316 111.883 401.791 113.824C402.266 115.765 402.639 117.815 402.911 119.973C403.182 122.132 403.372 124.107 403.481 125.899C403.59 127.69 403.664 129.618 403.705 131.681C403.705 132.373 403.705 132.781 403.705 132.903C403.705 133.025 403.664 133.1 403.583 133.127C403.556 133.14 403.087 133.147 402.178 133.147C401.594 133.147 401.289 133.14 401.262 133.127C401.207 133.113 401.173 133.066 401.16 132.984C401.146 132.903 401.139 132.645 401.139 132.211C401.139 124.731 400.556 118.29 399.388 112.888C398.221 107.485 396.382 102.755 393.871 98.6959C393.694 98.3972 393.429 97.9832 393.076 97.4538C392.723 96.9244 392.52 96.619 392.466 96.5376Z" fill="#F0F0F0"/>
<path d="M392.975 173.687H392.852C392.595 173.687 392.466 173.625 392.466 173.503C392.466 173.463 392.506 173.374 392.588 173.239C393.022 172.655 393.45 172.01 393.871 171.304C396.395 167.246 398.235 162.515 399.388 157.112C400.542 151.71 401.126 145.269 401.139 137.79C401.139 137.219 401.173 136.914 401.241 136.873C401.268 136.86 401.662 136.853 402.422 136.853C403.169 136.853 403.556 136.86 403.583 136.873C403.651 136.9 403.685 136.975 403.685 137.097C403.685 137.219 403.691 137.627 403.705 138.319C403.678 140.803 403.59 143.117 403.44 145.262C403.291 147.407 402.999 149.796 402.565 152.429C402.13 155.063 401.554 157.506 400.834 159.759C400.115 162.013 399.151 164.341 397.943 166.743C396.735 169.146 395.303 171.338 393.647 173.32C393.497 173.51 393.402 173.619 393.361 173.646C393.321 173.673 393.226 173.687 393.076 173.687H392.975Z" fill="#F0F0F0"/>
<g clip-path="url(#clip6_747_1068)">
<path d="M403.624 140.816C403.61 140.816 403.569 140.816 403.501 140.816C403.434 140.816 403.305 140.822 403.115 140.834C402.925 140.847 402.694 140.847 402.422 140.834C401.689 140.834 401.302 140.828 401.262 140.816C401.221 140.803 401.194 140.778 401.18 140.74C401.153 140.615 401.139 139.787 401.139 138.257V135.002C401.139 131.214 401.146 129.301 401.16 129.264L401.241 129.189C401.268 129.176 401.744 129.17 402.667 129.17C402.884 129.17 403.06 129.17 403.196 129.17C403.332 129.17 403.434 129.17 403.501 129.17C403.569 129.17 403.603 129.176 403.603 129.189C403.658 129.189 403.685 129.295 403.685 129.508C403.685 129.722 403.691 130.468 403.705 131.747V138.257C403.705 139.963 403.678 140.816 403.624 140.816Z" fill="#F0F0F0"/>
</g>
</g>
<path d="M161.254 181.687C161.434 181.687 161.549 181.767 161.6 181.927C161.652 182.088 161.707 182.365 161.766 182.761C161.827 183.156 161.915 183.501 162.034 183.798C162.88 185.946 164.558 187.02 167.067 187.02L167.847 187.02C171.039 187.02 173.088 188.511 173.994 191.492C174.899 188.511 176.844 187.02 179.828 187.02L180.49 187.02C181.216 187.02 181.767 186.995 182.137 186.946C183.176 186.773 184.074 186.295 184.831 185.51C185.589 184.727 186.042 183.755 186.19 182.594C186.19 182.57 186.198 182.498 186.212 182.382C186.227 182.264 186.242 182.18 186.256 182.132C186.271 182.082 186.294 182.014 186.324 181.927C186.355 181.841 186.41 181.779 186.487 181.742C186.564 181.705 186.65 181.687 186.743 181.687C187.129 181.687 186.854 184.437 185.921 185.879C184.987 187.32 183.632 188.132 181.855 188.316C181.556 188.34 181.116 188.353 180.533 188.353L180.05 188.353C179.041 188.353 178.157 188.517 177.4 188.844C176.642 189.171 176.082 189.594 175.718 190.112C175.355 190.63 175.092 191.066 174.928 191.418C174.764 191.77 174.653 192.125 174.594 192.482C174.594 192.557 174.586 192.665 174.571 192.806C174.556 192.948 174.53 193.062 174.493 193.149C174.456 193.235 174.423 193.321 174.393 193.408C174.364 193.495 174.312 193.562 174.237 193.612C174.163 193.662 174.081 193.687 173.992 193.687C173.874 193.687 173.777 193.668 173.703 193.631C173.63 193.593 173.573 193.526 173.536 193.426C173.499 193.328 173.473 193.226 173.458 193.121C173.443 193.017 173.421 192.877 173.392 192.704C173.361 192.532 173.332 192.371 173.302 192.223C173.094 191.31 172.627 190.486 171.9 189.751C171.172 189.016 170.244 188.575 169.116 188.427C168.819 188.378 168.374 188.353 167.78 188.353L167.334 188.353C166.738 188.353 166.262 188.332 165.906 188.289C165.549 188.246 165.052 188.081 164.412 187.794C163.772 187.507 163.197 187.089 162.688 186.538C160.998 185.019 160.959 181.687 161.254 181.687Z" fill="#A0A0A0"/>
<rect x="163.827" y="196.636" width="21.014" height="25.487" fill="black"/>
<g clip-path="url(#clip7_747_1068)">
<path d="M168.645 209.003L170.558 208.922C171.834 208.868 172.479 208.841 172.492 208.841H172.614V212.444V214.642C172.614 215.66 172.635 216.278 172.675 216.495C172.716 216.712 172.825 216.861 173.001 216.943C173.191 217.024 173.53 217.065 174.019 217.065H174.324C174.772 217.065 175.186 216.922 175.566 216.637C175.946 216.352 176.211 215.986 176.36 215.538L176.38 215.497C176.435 215.335 176.469 214.819 176.482 213.95C176.482 213.923 176.482 213.869 176.482 213.787C176.482 213.435 176.482 213.15 176.482 212.932V211.568C176.482 211.053 176.469 210.734 176.441 210.612C176.414 210.49 176.326 210.401 176.177 210.347C175.987 210.293 175.709 210.266 175.342 210.266H175.078V209.003L179.108 208.841V212.566C179.108 215.05 179.122 216.325 179.149 216.393C179.217 216.624 179.583 216.739 180.248 216.739H180.513V217.37C180.513 217.791 180.506 218.001 180.493 218.001C180.235 218.001 179.59 218.022 178.559 218.062C177.527 218.103 176.883 218.124 176.625 218.124C176.611 218.124 176.604 217.913 176.604 217.492V216.861L176.38 217.085C175.743 217.615 175.145 217.927 174.589 218.022C174.331 218.09 173.985 218.124 173.551 218.124C172.56 218.124 171.773 217.988 171.189 217.716C170.606 217.445 170.226 216.95 170.049 216.23L170.009 216.006L169.988 213.319C169.988 211.582 169.975 210.659 169.947 210.551C169.839 210.361 169.472 210.266 168.848 210.266H168.584V209.003H168.645Z" fill="#A0A0A0"/>
<path d="M176.92 203.08C176.92 202.971 176.954 202.876 177.022 202.795C177.09 202.713 177.191 202.672 177.327 202.672C177.422 202.672 177.503 202.706 177.571 202.774C177.639 202.828 177.707 202.957 177.775 203.161C177.911 203.663 178.189 204.05 178.61 204.321C178.759 204.416 178.833 204.538 178.833 204.688C178.833 204.81 178.813 204.891 178.772 204.932C178.732 204.973 178.637 205.034 178.487 205.115C177.904 205.414 177.395 205.841 176.961 206.398C176.933 206.425 176.9 206.466 176.859 206.52C176.818 206.574 176.784 206.615 176.757 206.642C176.73 206.669 176.696 206.683 176.655 206.683C176.615 206.683 176.567 206.69 176.513 206.703C176.418 206.703 176.33 206.669 176.248 206.601C176.167 206.533 176.119 206.432 176.106 206.296C176.106 206.038 176.425 205.638 177.062 205.095H173.581L170.1 205.075C169.924 204.952 169.836 204.823 169.836 204.688C169.836 204.593 169.924 204.457 170.1 204.281H177.408C177.083 203.765 176.92 203.365 176.92 203.08Z" fill="#A0A0A0"/>
</g>
<defs>
<clipPath id="clip0_747_1068">
<rect width="339.309" height="77.373" fill="white" transform="translate(70.3455 96.3135)"/>
</clipPath>
<clipPath id="clip1_747_1068">
<rect width="13.581" height="8.18525" fill="white" transform="matrix(1 0 0 -1 154.619 139.093)"/>
</clipPath>
<clipPath id="clip2_747_1068">
<rect width="13.581" height="8.18525" fill="white" transform="matrix(1 0 0 -1 179.847 139.093)"/>
</clipPath>
<clipPath id="clip3_747_1068">
<rect width="17.8162" height="7.77802" fill="white" transform="matrix(1 0 0 -1 252.256 138.889)"/>
</clipPath>
<clipPath id="clip4_747_1068">
<rect width="13.581" height="8.18525" fill="white" transform="matrix(1 0 0 -1 270.072 139.093)"/>
</clipPath>
<clipPath id="clip5_747_1068">
<rect width="13.581" height="8.18525" fill="white" transform="matrix(1 0 0 -1 378.253 139.093)"/>
</clipPath>
<clipPath id="clip6_747_1068">
<rect width="17.8162" height="7.77802" fill="white" transform="matrix(1 0 0 -1 391.834 138.889)"/>
</clipPath>
<clipPath id="clip7_747_1068">
<rect width="13.014" height="17.487" fill="white" transform="translate(167.827 200.636)"/>
</clipPath>
</defs>
</svg>
