<svg width="480" height="270" viewBox="0 0 480 270" fill="none" xmlns="http://www.w3.org/2000/svg">
<rect width="480" height="270" fill="black"/>
<rect x="68.9375" y="99.3135" width="342.125" height="85.373" fill="black"/>
<g clip-path="url(#clip0_747_1446)">
<path d="M79.4377 139.944V103.314H86.5031V105.024H81.1481V139.944H79.4377Z" fill="#F0F0F0"/>
<path d="M79.4377 180.687V144.057H81.1481V178.976H86.5031V180.687H79.4377Z" fill="#F0F0F0"/>
<g clip-path="url(#clip1_747_1446)">
<path d="M79.4377 148.139V135.857H81.1481V148.139H79.4377Z" fill="#F0F0F0"/>
</g>
<path d="M91.512 112.741C91.5256 112.7 91.5392 112.646 91.5528 112.578C91.5663 112.51 91.6003 112.361 91.6546 112.13C91.7089 111.899 91.7767 111.689 91.8582 111.499C91.9396 111.309 92.0414 111.085 92.1636 110.827C92.2858 110.569 92.4215 110.365 92.5708 110.216C92.7201 110.067 92.8966 109.917 93.1002 109.768C93.3038 109.619 93.5278 109.558 93.7721 109.585C94.7902 109.585 95.4418 110.019 95.7268 110.888L95.9304 110.705C96.772 109.958 97.5729 109.585 98.3331 109.585C99.2154 109.585 99.9077 109.904 100.41 110.542C100.912 111.18 101.163 111.954 101.163 112.863C101.163 114.329 100.647 115.68 99.6158 116.915C98.5842 118.15 97.4168 118.775 96.1137 118.788C95.8151 118.788 95.5504 118.747 95.3196 118.666C95.1703 118.598 95.0142 118.496 94.8513 118.361C94.6884 118.225 94.5594 118.109 94.4644 118.014L94.3219 117.852C94.3083 117.865 94.159 118.456 93.8739 119.623C93.5889 120.79 93.4464 121.381 93.4464 121.394C93.4464 121.476 93.5007 121.523 93.6093 121.537C93.7178 121.551 93.969 121.571 94.3626 121.598H94.8717C94.9531 121.693 94.9938 121.754 94.9938 121.781C94.9938 121.808 94.9735 121.931 94.9327 122.148C94.892 122.311 94.8513 122.413 94.8106 122.453C94.7698 122.494 94.6816 122.521 94.5459 122.535C94.5187 122.535 94.4441 122.535 94.3219 122.535C94.1997 122.535 93.969 122.528 93.6296 122.514C93.2903 122.501 92.8695 122.494 92.3672 122.494C91.417 122.494 90.813 122.508 90.5551 122.535H90.3922C90.2971 122.44 90.2496 122.365 90.2496 122.311C90.2768 121.944 90.365 121.707 90.5143 121.598H90.9216C91.3831 121.584 91.6478 121.503 91.7156 121.354C91.7564 121.272 92.1704 119.65 92.9577 116.487C93.745 113.325 94.159 111.648 94.1997 111.458C94.2133 111.39 94.2201 111.295 94.2201 111.173C94.2201 110.617 94.0504 110.338 93.7111 110.338C93.4124 110.338 93.1613 110.528 92.9577 110.908C92.7541 111.288 92.598 111.702 92.4894 112.15C92.3808 112.598 92.2993 112.843 92.245 112.883C92.2179 112.911 92.1093 112.924 91.9193 112.924H91.6342C91.5528 112.843 91.512 112.782 91.512 112.741ZM94.668 116.508C94.9667 117.539 95.4689 118.055 96.1748 118.055C96.582 118.055 96.9757 117.899 97.3557 117.587C97.7358 117.275 98.048 116.881 98.2924 116.406C98.5367 115.944 98.781 115.211 99.0254 114.207C99.2697 113.202 99.3987 112.456 99.4122 111.967V111.845C99.4122 110.84 98.9982 110.338 98.1702 110.338C98.0209 110.338 97.8716 110.359 97.7222 110.399C97.5729 110.44 97.4236 110.501 97.2743 110.583C97.125 110.664 96.9892 110.752 96.8671 110.847C96.7449 110.942 96.6295 111.044 96.5209 111.153C96.4123 111.261 96.3105 111.363 96.2155 111.458C96.1205 111.553 96.0458 111.648 95.9915 111.743C95.9372 111.838 95.8829 111.906 95.8286 111.947L95.7676 112.028C95.7676 112.042 95.7472 112.137 95.7065 112.313C95.6657 112.49 95.5911 112.788 95.4825 113.209C95.3739 113.63 95.2789 113.983 95.1974 114.268C94.8445 115.707 94.668 116.453 94.668 116.508Z" fill="#8AFDFF"/>
<path d="M105.024 113.318L104.836 113.39C104.702 113.438 104.51 113.486 104.261 113.534C104.011 113.582 103.733 113.616 103.426 113.635H103.152V112.973H103.426C103.877 112.953 104.294 112.881 104.678 112.757C105.062 112.632 105.331 112.517 105.484 112.411C105.638 112.306 105.772 112.2 105.887 112.094C105.907 112.066 105.964 112.051 106.06 112.051C106.146 112.051 106.228 112.08 106.305 112.138V116.442L106.319 120.761C106.386 120.828 106.444 120.871 106.492 120.89C106.54 120.909 106.655 120.928 106.837 120.948C107.02 120.967 107.317 120.976 107.73 120.976H108.104V121.639H107.946C107.744 121.61 106.981 121.595 105.657 121.595C104.352 121.595 103.598 121.61 103.397 121.639H103.224V120.976H103.598C103.81 120.976 103.992 120.976 104.146 120.976C104.299 120.976 104.419 120.972 104.505 120.962C104.592 120.952 104.669 120.938 104.736 120.919C104.803 120.9 104.841 120.89 104.851 120.89C104.86 120.89 104.889 120.866 104.937 120.818C104.985 120.77 105.014 120.751 105.024 120.761V113.318Z" fill="#8AFDFF"/>
<path d="M91.512 141.247C91.5256 141.206 91.5392 141.152 91.5528 141.084C91.5663 141.016 91.6003 140.867 91.6546 140.636C91.7089 140.405 91.7767 140.195 91.8582 140.005C91.9396 139.815 92.0414 139.591 92.1636 139.333C92.2858 139.075 92.4215 138.871 92.5708 138.722C92.7201 138.573 92.8966 138.423 93.1002 138.274C93.3038 138.125 93.5278 138.064 93.7721 138.091C94.7902 138.091 95.4418 138.525 95.7268 139.394L95.9304 139.211C96.772 138.464 97.5729 138.091 98.3331 138.091C99.2154 138.091 99.9077 138.41 100.41 139.048C100.912 139.686 101.163 140.459 101.163 141.369C101.163 142.835 100.647 144.186 99.6158 145.421C98.5842 146.656 97.4168 147.28 96.1137 147.294C95.8151 147.294 95.5504 147.253 95.3196 147.172C95.1703 147.104 95.0142 147.002 94.8513 146.866C94.6884 146.731 94.5594 146.615 94.4644 146.52L94.3219 146.357C94.3083 146.371 94.159 146.961 93.8739 148.129C93.5889 149.296 93.4464 149.887 93.4464 149.9C93.4464 149.982 93.5007 150.029 93.6093 150.043C93.7178 150.056 93.969 150.077 94.3626 150.104H94.8717C94.9531 150.199 94.9938 150.26 94.9938 150.287C94.9938 150.314 94.9735 150.436 94.9327 150.654C94.892 150.817 94.8513 150.918 94.8106 150.959C94.7698 151 94.6816 151.027 94.5459 151.041C94.5187 151.041 94.4441 151.041 94.3219 151.041C94.1997 151.041 93.969 151.034 93.6296 151.02C93.2903 151.007 92.8695 151 92.3672 151C91.417 151 90.813 151.013 90.5551 151.041H90.3922C90.2971 150.946 90.2496 150.871 90.2496 150.817C90.2768 150.45 90.365 150.213 90.5143 150.104H90.9216C91.3831 150.09 91.6478 150.009 91.7156 149.86C91.7564 149.778 92.1704 148.156 92.9577 144.993C93.745 141.83 94.159 140.154 94.1997 139.964C94.2133 139.896 94.2201 139.801 94.2201 139.679C94.2201 139.122 94.0504 138.844 93.7111 138.844C93.4124 138.844 93.1613 139.034 92.9577 139.414C92.7541 139.794 92.598 140.208 92.4894 140.656C92.3808 141.104 92.2993 141.349 92.245 141.389C92.2179 141.416 92.1093 141.43 91.9193 141.43H91.6342C91.5528 141.349 91.512 141.287 91.512 141.247ZM94.668 145.014C94.9667 146.045 95.4689 146.561 96.1748 146.561C96.582 146.561 96.9757 146.405 97.3557 146.093C97.7358 145.781 98.048 145.387 98.2924 144.912C98.5367 144.45 98.781 143.717 99.0254 142.713C99.2697 141.708 99.3987 140.962 99.4122 140.473V140.351C99.4122 139.346 98.9982 138.844 98.1702 138.844C98.0209 138.844 97.8716 138.864 97.7222 138.905C97.5729 138.946 97.4236 139.007 97.2743 139.088C97.125 139.17 96.9892 139.258 96.8671 139.353C96.7449 139.448 96.6295 139.55 96.5209 139.659C96.4123 139.767 96.3105 139.869 96.2155 139.964C96.1205 140.059 96.0458 140.154 95.9915 140.249C95.9372 140.344 95.8829 140.412 95.8286 140.453L95.7676 140.534C95.7676 140.548 95.7472 140.643 95.7065 140.819C95.6657 140.996 95.5911 141.294 95.4825 141.715C95.3739 142.136 95.2789 142.489 95.1974 142.774C94.8445 144.213 94.668 144.959 94.668 145.014Z" fill="#8AFDFF"/>
<path d="M103.527 143.969C103.267 143.969 103.061 143.883 102.908 143.71C102.754 143.537 102.677 143.326 102.677 143.076C102.677 142.395 102.932 141.805 103.44 141.306C103.949 140.807 104.582 140.557 105.34 140.557C106.214 140.557 106.943 140.826 107.528 141.363C108.114 141.901 108.411 142.597 108.421 143.451C108.421 143.863 108.325 144.257 108.133 144.631C107.941 145.005 107.711 145.332 107.442 145.61C107.173 145.888 106.789 146.243 106.29 146.675C105.945 146.973 105.465 147.414 104.851 148L104.002 148.806L105.096 148.82C106.602 148.82 107.404 148.796 107.5 148.748C107.567 148.729 107.682 148.302 107.845 147.467V147.424H108.421V147.467C108.411 147.496 108.349 147.932 108.234 148.777C108.119 149.621 108.047 150.063 108.018 150.101V150.145H102.677V149.871V149.698C102.677 149.631 102.706 149.559 102.764 149.482C102.821 149.406 102.965 149.238 103.195 148.978C103.474 148.671 103.714 148.403 103.915 148.172C104.002 148.076 104.165 147.899 104.405 147.64C104.645 147.381 104.808 147.203 104.894 147.107C104.98 147.011 105.12 146.853 105.312 146.632C105.503 146.411 105.638 146.248 105.715 146.143C105.791 146.037 105.902 145.893 106.046 145.711C106.19 145.528 106.29 145.375 106.348 145.25C106.406 145.125 106.478 144.986 106.564 144.833C106.65 144.679 106.713 144.526 106.751 144.372C106.789 144.218 106.823 144.074 106.852 143.94C106.881 143.806 106.895 143.647 106.895 143.465C106.895 142.86 106.732 142.337 106.406 141.896C106.079 141.454 105.614 141.234 105.009 141.234C104.693 141.234 104.414 141.315 104.174 141.478C103.934 141.642 103.766 141.8 103.67 141.954C103.575 142.107 103.527 142.198 103.527 142.227C103.527 142.237 103.551 142.241 103.598 142.241C103.771 142.241 103.949 142.309 104.131 142.443C104.313 142.577 104.405 142.798 104.405 143.105C104.405 143.345 104.328 143.547 104.174 143.71C104.021 143.873 103.805 143.959 103.527 143.969Z" fill="#8AFDFF"/>
<path d="M91.512 169.753C91.5256 169.712 91.5392 169.658 91.5528 169.59C91.5663 169.522 91.6003 169.373 91.6546 169.142C91.7089 168.911 91.7767 168.701 91.8582 168.511C91.9396 168.321 92.0414 168.097 92.1636 167.839C92.2858 167.581 92.4215 167.377 92.5708 167.228C92.7201 167.078 92.8966 166.929 93.1002 166.78C93.3038 166.631 93.5278 166.569 93.7721 166.597C94.7902 166.597 95.4418 167.031 95.7268 167.9L95.9304 167.716C96.772 166.97 97.5729 166.597 98.3331 166.597C99.2154 166.597 99.9077 166.916 100.41 167.554C100.912 168.192 101.163 168.965 101.163 169.875C101.163 171.341 100.647 172.691 99.6158 173.927C98.5842 175.162 97.4168 175.786 96.1137 175.8C95.8151 175.8 95.5504 175.759 95.3196 175.678C95.1703 175.61 95.0142 175.508 94.8513 175.372C94.6884 175.237 94.5594 175.121 94.4644 175.026L94.3219 174.863C94.3083 174.877 94.159 175.467 93.8739 176.635C93.5889 177.802 93.4464 178.393 93.4464 178.406C93.4464 178.488 93.5007 178.535 93.6093 178.549C93.7178 178.562 93.969 178.583 94.3626 178.61H94.8717C94.9531 178.705 94.9938 178.766 94.9938 178.793C94.9938 178.82 94.9735 178.942 94.9327 179.16C94.892 179.322 94.8513 179.424 94.8106 179.465C94.7698 179.506 94.6816 179.533 94.5459 179.546C94.5187 179.546 94.4441 179.546 94.3219 179.546C94.1997 179.546 93.969 179.54 93.6296 179.526C93.2903 179.512 92.8695 179.506 92.3672 179.506C91.417 179.506 90.813 179.519 90.5551 179.546H90.3922C90.2971 179.451 90.2496 179.377 90.2496 179.322C90.2768 178.956 90.365 178.718 90.5143 178.61H90.9216C91.3831 178.596 91.6478 178.515 91.7156 178.365C91.7564 178.284 92.1704 176.662 92.9577 173.499C93.745 170.336 94.159 168.66 94.1997 168.47C94.2133 168.402 94.2201 168.307 94.2201 168.185C94.2201 167.628 94.0504 167.35 93.7111 167.35C93.4124 167.35 93.1613 167.54 92.9577 167.92C92.7541 168.3 92.598 168.714 92.4894 169.162C92.3808 169.61 92.2993 169.854 92.245 169.895C92.2179 169.922 92.1093 169.936 91.9193 169.936H91.6342C91.5528 169.854 91.512 169.793 91.512 169.753ZM94.668 173.519C94.9667 174.551 95.4689 175.067 96.1748 175.067C96.582 175.067 96.9757 174.911 97.3557 174.599C97.7358 174.286 98.048 173.893 98.2924 173.418C98.5367 172.956 98.781 172.223 99.0254 171.219C99.2697 170.214 99.3987 169.468 99.4122 168.979V168.857C99.4122 167.852 98.9982 167.35 98.1702 167.35C98.0209 167.35 97.8716 167.37 97.7222 167.411C97.5729 167.452 97.4236 167.513 97.2743 167.594C97.125 167.676 96.9892 167.764 96.8671 167.859C96.7449 167.954 96.6295 168.056 96.5209 168.164C96.4123 168.273 96.3105 168.375 96.2155 168.47C96.1205 168.565 96.0458 168.66 95.9915 168.755C95.9372 168.85 95.8829 168.918 95.8286 168.959L95.7676 169.04C95.7676 169.054 95.7472 169.149 95.7065 169.325C95.6657 169.501 95.5911 169.8 95.4825 170.221C95.3739 170.642 95.2789 170.995 95.1974 171.28C94.8445 172.719 94.668 173.465 94.668 173.519Z" fill="#8AFDFF"/>
<path d="M103.786 171.985C103.527 171.985 103.325 171.904 103.181 171.741C103.037 171.578 102.96 171.366 102.951 171.107C102.951 170.58 103.181 170.109 103.642 169.697C104.102 169.284 104.659 169.078 105.312 169.078C105.647 169.078 105.859 169.082 105.945 169.092C106.655 169.207 107.197 169.461 107.572 169.855C107.946 170.248 108.138 170.676 108.147 171.136C108.147 171.635 107.984 172.12 107.658 172.59C107.332 173.06 106.881 173.401 106.305 173.612L106.262 173.641C106.262 173.651 106.305 173.665 106.391 173.684C106.478 173.703 106.617 173.747 106.809 173.814C107.001 173.881 107.183 173.982 107.356 174.116C108.143 174.625 108.536 175.296 108.536 176.131C108.536 176.89 108.239 177.552 107.644 178.118C107.049 178.684 106.295 178.967 105.384 178.967C104.616 178.967 103.954 178.761 103.397 178.348C102.84 177.936 102.562 177.413 102.562 176.779C102.562 176.51 102.648 176.295 102.821 176.131C102.994 175.968 103.21 175.882 103.469 175.872C103.738 175.872 103.958 175.959 104.131 176.131C104.304 176.304 104.39 176.52 104.39 176.779C104.39 176.885 104.376 176.981 104.347 177.067C104.318 177.153 104.285 177.23 104.246 177.297C104.208 177.365 104.155 177.422 104.088 177.47C104.021 177.518 103.963 177.557 103.915 177.585C103.867 177.614 103.819 177.633 103.771 177.643C103.723 177.653 103.685 177.667 103.656 177.686L103.598 177.7C104.088 178.132 104.683 178.348 105.384 178.348C105.911 178.348 106.31 178.094 106.578 177.585C106.741 177.269 106.823 176.784 106.823 176.131V175.843C106.823 174.932 106.516 174.322 105.902 174.015C105.758 173.958 105.465 173.924 105.024 173.914L104.419 173.9L104.376 173.871C104.357 173.843 104.347 173.766 104.347 173.641C104.347 173.468 104.385 173.382 104.462 173.382C104.731 173.382 105.009 173.358 105.297 173.31C105.623 173.262 105.921 173.06 106.19 172.705C106.458 172.35 106.593 171.813 106.593 171.093V170.978C106.593 170.431 106.425 170.052 106.089 169.841C105.878 169.706 105.652 169.639 105.412 169.639C105.105 169.639 104.822 169.692 104.563 169.797C104.304 169.903 104.122 170.013 104.016 170.128C103.91 170.244 103.858 170.301 103.858 170.301H103.901C103.93 170.311 103.968 170.32 104.016 170.33C104.064 170.34 104.112 170.364 104.16 170.402C104.208 170.44 104.265 170.474 104.333 170.503C104.4 170.532 104.448 170.584 104.477 170.661C104.505 170.738 104.544 170.81 104.592 170.877C104.64 170.944 104.654 171.04 104.635 171.165C104.635 171.376 104.568 171.563 104.433 171.726C104.299 171.89 104.083 171.976 103.786 171.985Z" fill="#8AFDFF"/>
<path d="M114.695 105.024V103.314H121.761V139.944H120.05V105.024H114.695Z" fill="#F0F0F0"/>
<path d="M120.05 178.976V144.057H121.761V180.687H114.695V178.976H120.05Z" fill="#F0F0F0"/>
<g clip-path="url(#clip2_747_1446)">
<path d="M120.05 148.139V135.857H121.761V148.139H120.05Z" fill="#F0F0F0"/>
</g>
<path d="M134.389 142C134.389 141.674 134.504 141.389 134.735 141.145C134.966 140.9 135.258 140.778 135.611 140.778C135.936 140.778 136.221 140.887 136.466 141.104C136.71 141.321 136.839 141.613 136.853 141.98C136.853 142.319 136.737 142.611 136.506 142.855C136.276 143.1 135.984 143.222 135.631 143.222C135.278 143.222 134.986 143.106 134.755 142.876C134.525 142.645 134.402 142.353 134.389 142Z" fill="#F0F0F0"/>
<path d="M149.481 139.944V103.314H156.546V105.024H151.191V139.944H149.481Z" fill="#F0F0F0"/>
<path d="M149.481 180.687V144.057H151.191V178.976H156.546V180.687H149.481Z" fill="#F0F0F0"/>
<g clip-path="url(#clip3_747_1446)">
<path d="M149.481 148.139V135.857H151.191V148.139H149.481Z" fill="#F0F0F0"/>
</g>
<path d="M162.145 112.7C162.24 112.13 162.607 111.471 163.245 110.725C163.883 109.978 164.67 109.598 165.607 109.585C166.082 109.585 166.516 109.707 166.91 109.951C167.304 110.196 167.595 110.501 167.785 110.867C168.356 110.012 169.041 109.585 169.842 109.585C170.344 109.585 170.779 109.734 171.145 110.033C171.512 110.331 171.702 110.732 171.715 111.234C171.715 111.628 171.62 111.947 171.43 112.191C171.24 112.435 171.057 112.585 170.88 112.639C170.704 112.693 170.548 112.72 170.412 112.72C170.154 112.72 169.944 112.646 169.781 112.496C169.618 112.347 169.537 112.15 169.537 111.906C169.537 111.281 169.876 110.854 170.555 110.623C170.405 110.447 170.134 110.358 169.74 110.358C169.564 110.358 169.435 110.372 169.353 110.399C168.837 110.616 168.457 111.064 168.213 111.743C167.399 114.743 166.991 116.494 166.991 116.996C166.991 117.376 167.1 117.648 167.317 117.811C167.534 117.974 167.772 118.055 168.03 118.055C168.532 118.055 169.028 117.831 169.516 117.383C170.005 116.935 170.337 116.385 170.514 115.734C170.555 115.598 170.595 115.523 170.636 115.51C170.677 115.496 170.785 115.483 170.962 115.469H171.043C171.247 115.469 171.349 115.523 171.349 115.632C171.349 115.646 171.335 115.72 171.308 115.856C171.091 116.63 170.67 117.315 170.046 117.912C169.421 118.51 168.695 118.808 167.867 118.808C166.917 118.808 166.197 118.381 165.709 117.526C165.152 118.367 164.514 118.788 163.795 118.788H163.672C163.007 118.788 162.532 118.612 162.247 118.259C161.962 117.906 161.813 117.532 161.799 117.139C161.799 116.704 161.928 116.351 162.186 116.08C162.444 115.808 162.749 115.673 163.102 115.673C163.686 115.673 163.978 115.958 163.978 116.528C163.978 116.799 163.896 117.037 163.734 117.241C163.571 117.444 163.415 117.58 163.265 117.648C163.116 117.716 163.028 117.75 163.001 117.75L162.939 117.77C162.939 117.783 162.98 117.811 163.062 117.851C163.143 117.892 163.252 117.94 163.387 117.994C163.523 118.048 163.652 118.069 163.774 118.055C164.263 118.055 164.684 117.75 165.037 117.139C165.159 116.922 165.315 116.46 165.505 115.754C165.695 115.048 165.885 114.315 166.075 113.555C166.265 112.795 166.374 112.347 166.401 112.211C166.469 111.845 166.503 111.58 166.503 111.417C166.503 111.037 166.401 110.766 166.197 110.603C165.994 110.44 165.763 110.358 165.505 110.358C164.962 110.358 164.453 110.576 163.978 111.01C163.503 111.444 163.17 112.001 162.98 112.68C162.953 112.802 162.919 112.87 162.878 112.883C162.838 112.897 162.729 112.91 162.553 112.924H162.268C162.186 112.842 162.145 112.768 162.145 112.7Z" fill="#FEAB62"/>
<path d="M162.349 141.247C162.349 141.057 162.451 140.731 162.654 140.269C162.858 139.808 163.184 139.326 163.632 138.824C164.08 138.321 164.582 138.077 165.139 138.091C165.695 138.091 166.143 138.247 166.482 138.559C166.822 138.871 166.998 139.306 167.012 139.862C166.985 140.12 166.964 140.263 166.951 140.29C166.951 140.33 166.842 140.643 166.625 141.226C166.408 141.81 166.184 142.468 165.953 143.201C165.722 143.934 165.614 144.518 165.627 144.952C165.627 145.536 165.722 145.943 165.912 146.174C166.102 146.405 166.387 146.527 166.767 146.541C167.08 146.541 167.371 146.466 167.643 146.317C167.914 146.167 168.125 146.011 168.274 145.848C168.423 145.685 168.607 145.461 168.824 145.176C168.824 145.163 168.858 145.027 168.926 144.769C168.994 144.511 169.089 144.111 169.211 143.568C169.333 143.025 169.462 142.523 169.598 142.061C170.113 140.025 170.399 138.959 170.453 138.864C170.629 138.498 170.921 138.315 171.328 138.315C171.505 138.315 171.647 138.362 171.756 138.457C171.865 138.552 171.939 138.634 171.98 138.701C172.021 138.769 172.034 138.83 172.021 138.885C172.021 139.061 171.688 140.486 171.023 143.161C170.358 145.835 169.978 147.301 169.883 147.559C169.503 148.685 168.844 149.581 167.908 150.246C166.971 150.911 166.034 151.251 165.098 151.264C164.487 151.264 163.951 151.115 163.489 150.816C163.028 150.518 162.797 150.07 162.797 149.473C162.797 149.174 162.844 148.923 162.94 148.719C163.035 148.516 163.163 148.366 163.326 148.271C163.489 148.176 163.625 148.108 163.734 148.068C163.842 148.027 163.958 148.007 164.08 148.007C164.677 148.007 164.976 148.292 164.976 148.862C164.976 149.133 164.894 149.371 164.731 149.574C164.568 149.778 164.412 149.914 164.263 149.982C164.114 150.05 164.025 150.083 163.998 150.083L163.937 150.104C163.964 150.172 164.093 150.253 164.324 150.348C164.555 150.443 164.786 150.491 165.016 150.491H165.179C165.41 150.491 165.586 150.477 165.709 150.45C166.157 150.328 166.571 150.07 166.951 149.676C167.331 149.283 167.623 148.862 167.826 148.414C168.03 147.966 168.186 147.586 168.295 147.274C168.403 146.961 168.457 146.758 168.457 146.663L168.335 146.744C168.254 146.798 168.125 146.873 167.948 146.968C167.772 147.063 167.595 147.145 167.419 147.213C167.148 147.28 166.883 147.314 166.625 147.314C166 147.314 165.451 147.165 164.976 146.866C164.501 146.568 164.188 146.086 164.039 145.421C164.025 145.326 164.019 145.115 164.019 144.79C164.019 144.016 164.256 143.004 164.731 141.756C165.206 140.507 165.444 139.713 165.444 139.373C165.444 139.36 165.444 139.346 165.444 139.333C165.444 139.211 165.444 139.129 165.444 139.088C165.444 139.048 165.417 139 165.363 138.946C165.308 138.892 165.234 138.864 165.139 138.864H165.057C164.745 138.864 164.46 138.993 164.202 139.251C163.944 139.509 163.74 139.787 163.591 140.086C163.442 140.385 163.326 140.67 163.245 140.941C163.163 141.213 163.109 141.362 163.082 141.389C163.055 141.416 162.946 141.43 162.756 141.43H162.471C162.39 141.348 162.349 141.287 162.349 141.247Z" fill="#FEAB62"/>
<path d="M169.241 168.714C169.106 168.714 168.746 168.639 168.162 168.49C167.578 168.341 167.151 168.266 166.879 168.266C166.608 168.266 166.377 168.293 166.187 168.347C165.997 168.402 165.841 168.47 165.719 168.551C165.597 168.633 165.515 168.707 165.474 168.775C165.434 168.843 165.386 168.918 165.332 168.999L165.291 169.08C165.25 169.121 165.149 169.142 164.986 169.142C164.701 169.142 164.558 169.087 164.558 168.979C164.558 168.911 164.579 168.816 164.619 168.694C164.796 168.164 165.088 167.709 165.495 167.329C165.902 166.949 166.35 166.719 166.839 166.637C167.002 166.61 167.117 166.596 167.185 166.596C167.524 166.596 167.83 166.712 168.101 166.943C168.373 167.173 168.63 167.397 168.875 167.614C169.119 167.832 169.377 167.947 169.649 167.961C169.947 167.961 170.246 167.737 170.544 167.289C170.843 166.841 170.999 166.617 171.013 166.617C171.026 166.603 171.128 166.596 171.318 166.596H171.583C171.664 166.678 171.705 166.732 171.705 166.759C171.705 166.814 171.671 166.909 171.603 167.044C171.535 167.18 171.44 167.323 171.318 167.472C171.196 167.621 171.081 167.771 170.972 167.92C170.863 168.069 170.768 168.198 170.687 168.307L170.544 168.49C169.961 169.182 169.038 170.099 167.775 171.239C166.513 172.379 165.732 173.112 165.434 173.438L165.189 173.682L165.495 173.702C165.793 173.702 166.228 173.777 166.798 173.926C167.368 174.076 167.796 174.15 168.081 174.15C168.597 174.15 169.072 174.021 169.506 173.764C169.94 173.506 170.225 173.166 170.361 172.746C170.415 172.623 170.463 172.549 170.504 172.522C170.544 172.494 170.646 172.481 170.809 172.481C171.067 172.481 171.196 172.549 171.196 172.684C171.196 172.752 171.189 172.813 171.176 172.868C170.945 173.709 170.497 174.408 169.832 174.965C169.167 175.521 168.502 175.806 167.836 175.82C167.483 175.82 167.171 175.705 166.9 175.474C166.628 175.243 166.364 175.012 166.106 174.782C165.848 174.551 165.59 174.435 165.332 174.435C164.735 174.435 164.198 174.843 163.723 175.657C163.642 175.766 163.527 175.82 163.377 175.82H163.275H163.011C162.929 175.739 162.889 175.678 162.889 175.637C162.889 175.433 163.282 174.85 164.07 173.886C164.599 173.275 165.495 172.393 166.757 171.239C168.02 170.085 168.8 169.352 169.099 169.04C169.262 168.823 169.309 168.714 169.241 168.714Z" fill="#FEAB62"/>
<path d="M177.254 105.024V103.314H184.319V139.944H182.609V105.024H177.254Z" fill="#F0F0F0"/>
<path d="M182.609 178.976V144.057H184.319V180.687H177.254V178.976H182.609Z" fill="#F0F0F0"/>
<g clip-path="url(#clip4_747_1446)">
<path d="M182.609 148.139V135.857H184.319V148.139H182.609Z" fill="#F0F0F0"/>
</g>
<path d="M197.631 140.025C197.631 139.849 197.726 139.713 197.916 139.618H210.886C211.09 139.726 211.192 139.862 211.192 140.025C211.192 140.174 211.097 140.303 210.907 140.412L204.432 140.432H197.957C197.74 140.364 197.631 140.229 197.631 140.025ZM197.631 143.975C197.631 143.771 197.74 143.636 197.957 143.568H210.907C211.097 143.704 211.192 143.839 211.192 143.975C211.192 144.152 211.09 144.287 210.886 144.382H197.916C197.726 144.287 197.631 144.152 197.631 143.975Z" fill="#F0F0F0"/>
<path d="M225.644 137.011C225.644 136.794 225.644 136.523 225.644 136.197C225.644 135.871 225.651 135.647 225.665 135.525C225.665 134.914 225.597 134.534 225.461 134.385C225.325 134.235 224.979 134.147 224.423 134.12H224.056V133.652C224.056 133.34 224.07 133.183 224.097 133.183L224.3 133.163C224.436 133.15 224.633 133.136 224.891 133.122C225.149 133.109 225.4 133.095 225.644 133.082C225.875 133.068 226.126 133.055 226.398 133.041C226.669 133.027 226.873 133.007 227.008 132.98C227.144 132.953 227.219 132.946 227.232 132.959H227.294V139.149C227.294 143.303 227.3 145.4 227.314 145.441C227.355 145.712 227.45 145.889 227.599 145.97C227.748 146.052 228.054 146.113 228.515 146.154H228.882V147.09C228.855 147.09 228.339 147.124 227.334 147.192C226.33 147.26 225.794 147.301 225.726 147.314H225.583V146.194L225.42 146.337C224.633 146.988 223.751 147.314 222.773 147.314C221.728 147.314 220.785 146.9 219.943 146.072C219.101 145.244 218.681 144.124 218.681 142.713C218.681 141.355 219.108 140.249 219.963 139.394C220.819 138.538 221.816 138.104 222.957 138.091C223.975 138.091 224.871 138.423 225.644 139.088V137.011ZM225.583 140.127C224.972 139.271 224.205 138.844 223.282 138.844C222.617 138.844 222.027 139.088 221.511 139.577C221.144 139.957 220.914 140.391 220.819 140.88C220.724 141.369 220.669 142.007 220.656 142.794C220.656 143.554 220.703 144.172 220.798 144.647C220.893 145.122 221.131 145.536 221.511 145.889C221.918 146.337 222.448 146.561 223.099 146.561C224.063 146.561 224.891 146.038 225.583 144.993V140.127Z" fill="#F0F0F0"/>
<path d="M229.879 142.651C229.879 141.905 230.015 141.226 230.287 140.615C230.558 140.004 230.897 139.509 231.305 139.129C231.712 138.749 232.153 138.464 232.628 138.274C233.103 138.084 233.551 137.982 233.972 137.968C234.691 137.968 235.309 138.091 235.825 138.335C236.341 138.579 236.734 138.919 237.006 139.353C237.277 139.787 237.467 140.222 237.576 140.656C237.685 141.09 237.746 141.572 237.759 142.102C237.759 142.197 237.712 142.292 237.617 142.387H231.875V142.692C231.875 144.701 232.554 145.923 233.911 146.357C234.182 146.439 234.481 146.479 234.807 146.479C235.377 146.479 235.866 146.262 236.273 145.828C236.504 145.597 236.687 145.312 236.823 144.973L237.026 144.484C237.067 144.443 237.176 144.423 237.352 144.423H237.413C237.644 144.423 237.759 144.491 237.759 144.627C237.759 144.681 237.739 144.769 237.698 144.891C237.44 145.638 237.013 146.228 236.415 146.663C235.818 147.097 235.146 147.314 234.4 147.314C233.11 147.314 232.038 146.846 231.183 145.909C230.327 144.973 229.893 143.887 229.879 142.651ZM236.09 141.491C235.94 139.753 235.296 138.83 234.155 138.722H234.115C234.006 138.722 233.897 138.729 233.789 138.742C233.68 138.756 233.51 138.81 233.28 138.905C233.049 139 232.852 139.143 232.689 139.333C232.526 139.523 232.37 139.801 232.221 140.167C232.072 140.534 231.963 140.982 231.895 141.511V141.654H236.09V141.491Z" fill="#F0F0F0"/>
<path d="M238.899 138.498C239.619 138.444 240.175 138.063 240.569 137.358C240.963 136.652 241.18 135.824 241.221 134.874V134.568H242.035V138.315H244.784V139.251H242.035V142.183C242.049 143.88 242.055 144.837 242.055 145.054C242.055 145.271 242.103 145.489 242.198 145.706C242.388 146.235 242.721 146.5 243.196 146.5C243.793 146.5 244.159 146.018 244.295 145.054C244.309 144.946 244.316 144.633 244.316 144.118V143.405H245.13V144.118V144.362C245.13 145.407 244.845 146.201 244.275 146.744C243.908 147.111 243.433 147.294 242.85 147.294C242.388 147.294 241.988 147.213 241.648 147.05C241.309 146.887 241.051 146.676 240.875 146.418C240.698 146.16 240.569 145.923 240.488 145.706C240.406 145.489 240.359 145.271 240.345 145.054C240.332 144.959 240.325 143.955 240.325 142.041V139.251H238.716V138.498H238.899Z" fill="#F0F0F0"/>
<path d="M266.705 103.314C266.786 103.395 266.827 103.456 266.827 103.497C266.827 103.551 266.657 103.816 266.318 104.291C265.979 104.766 265.537 105.472 264.995 106.409C264.452 107.345 263.868 108.438 263.243 109.687C262.619 110.936 261.988 112.544 261.35 114.512C260.712 116.481 260.169 118.551 259.721 120.723C258.676 125.921 258.153 132.084 258.153 139.211C258.153 139.645 258.146 139.903 258.133 139.984C258.119 140.066 258.085 140.113 258.031 140.127C258.004 140.14 257.698 140.147 257.115 140.147C256.205 140.147 255.737 140.14 255.71 140.127C255.642 140.1 255.608 140.025 255.608 139.903C255.608 139.781 255.601 139.373 255.588 138.681C255.615 136.197 255.703 133.883 255.852 131.738C256.002 129.593 256.293 127.204 256.728 124.571C257.162 121.937 257.739 119.494 258.459 117.241C259.178 114.987 260.142 112.659 261.35 110.257C262.558 107.854 263.99 105.662 265.646 103.68C265.673 103.639 265.707 103.599 265.748 103.558C265.789 103.517 265.816 103.483 265.829 103.456C265.843 103.429 265.856 103.409 265.87 103.395C265.884 103.381 265.904 103.368 265.931 103.354C265.958 103.341 265.979 103.334 265.992 103.334C266.006 103.334 266.04 103.327 266.094 103.314C266.148 103.3 266.189 103.3 266.216 103.314H266.338H266.705Z" fill="#F0F0F0"/>
<path d="M266.827 180.503C266.827 180.544 266.786 180.605 266.705 180.687H266.359C266.101 180.687 265.965 180.68 265.951 180.666C265.843 180.558 265.741 180.442 265.646 180.32C264.275 178.65 263.053 176.865 261.981 174.965C260.909 173.065 260.013 171.11 259.293 169.101C258.574 167.092 257.977 165.117 257.502 163.176C257.026 161.235 256.653 159.185 256.382 157.027C256.11 154.868 255.92 152.893 255.812 151.102C255.703 149.31 255.628 147.382 255.588 145.319C255.588 144.627 255.588 144.219 255.588 144.097C255.588 143.975 255.622 143.9 255.689 143.873C255.717 143.86 256.192 143.853 257.115 143.853C257.698 143.853 258.004 143.86 258.031 143.873C258.085 143.887 258.119 143.934 258.133 144.016C258.146 144.097 258.153 144.355 258.153 144.79C258.153 152.798 258.832 159.653 260.189 165.354C261.547 171.056 263.691 175.983 266.623 180.137C266.759 180.327 266.827 180.449 266.827 180.503Z" fill="#F0F0F0"/>
<g clip-path="url(#clip5_747_1446)">
<path d="M258.072 147.816C258.058 147.816 258.017 147.816 257.949 147.816C257.882 147.816 257.753 147.822 257.563 147.834C257.373 147.847 257.142 147.847 256.87 147.834C256.137 147.834 255.75 147.828 255.71 147.816C255.669 147.803 255.642 147.778 255.628 147.74C255.601 147.615 255.588 146.787 255.588 145.257V142.002C255.588 138.214 255.594 136.301 255.608 136.264L255.689 136.189C255.717 136.176 256.192 136.17 257.115 136.17C257.332 136.17 257.508 136.17 257.644 136.17C257.78 136.17 257.882 136.17 257.949 136.17C258.017 136.17 258.051 136.176 258.051 136.189C258.106 136.189 258.133 136.295 258.133 136.508C258.133 136.722 258.14 137.468 258.153 138.747V145.257C258.153 146.963 258.126 147.816 258.072 147.816Z" fill="#F0F0F0"/>
</g>
<path d="M273.974 139.944V103.314H281.039V105.024H275.684V139.944H273.974Z" fill="#F0F0F0"/>
<path d="M273.974 180.687V144.057H275.684V178.976H281.039V180.687H273.974Z" fill="#F0F0F0"/>
<g clip-path="url(#clip6_747_1446)">
<path d="M273.974 148.139V135.857H275.684V148.139H273.974Z" fill="#F0F0F0"/>
</g>
<path d="M282.118 112.7C282.213 112.13 282.58 111.471 283.218 110.725C283.856 109.978 284.643 109.598 285.58 109.585C286.055 109.585 286.489 109.707 286.883 109.951C287.277 110.196 287.568 110.501 287.758 110.867C288.329 110.012 289.014 109.585 289.815 109.585C290.317 109.585 290.752 109.734 291.118 110.033C291.485 110.331 291.675 110.732 291.688 111.234C291.688 111.628 291.593 111.947 291.403 112.191C291.213 112.435 291.03 112.585 290.853 112.639C290.677 112.693 290.521 112.72 290.385 112.72C290.127 112.72 289.917 112.646 289.754 112.496C289.591 112.347 289.51 112.15 289.51 111.906C289.51 111.281 289.849 110.854 290.528 110.623C290.378 110.447 290.107 110.358 289.713 110.358C289.537 110.358 289.408 110.372 289.326 110.399C288.81 110.616 288.43 111.064 288.186 111.743C287.372 114.743 286.964 116.494 286.964 116.996C286.964 117.376 287.073 117.648 287.29 117.811C287.507 117.974 287.745 118.055 288.003 118.055C288.505 118.055 289.001 117.831 289.489 117.383C289.978 116.935 290.31 116.385 290.487 115.734C290.528 115.598 290.568 115.523 290.609 115.51C290.65 115.496 290.758 115.483 290.935 115.469H291.016C291.22 115.469 291.322 115.523 291.322 115.632C291.322 115.646 291.308 115.72 291.281 115.856C291.064 116.63 290.643 117.315 290.019 117.912C289.394 118.51 288.668 118.808 287.84 118.808C286.89 118.808 286.17 118.381 285.682 117.526C285.125 118.367 284.487 118.788 283.768 118.788H283.645C282.98 118.788 282.505 118.612 282.22 118.259C281.935 117.906 281.786 117.532 281.772 117.139C281.772 116.704 281.901 116.351 282.159 116.08C282.417 115.808 282.722 115.673 283.075 115.673C283.659 115.673 283.951 115.958 283.951 116.528C283.951 116.799 283.869 117.037 283.707 117.241C283.544 117.444 283.388 117.58 283.238 117.648C283.089 117.716 283.001 117.75 282.974 117.75L282.912 117.77C282.912 117.783 282.953 117.811 283.035 117.851C283.116 117.892 283.225 117.94 283.36 117.994C283.496 118.048 283.625 118.069 283.747 118.055C284.236 118.055 284.657 117.75 285.01 117.139C285.132 116.922 285.288 116.46 285.478 115.754C285.668 115.048 285.858 114.315 286.048 113.555C286.238 112.795 286.347 112.347 286.374 112.211C286.442 111.845 286.476 111.58 286.476 111.417C286.476 111.037 286.374 110.766 286.17 110.603C285.967 110.44 285.736 110.358 285.478 110.358C284.935 110.358 284.426 110.576 283.951 111.01C283.476 111.444 283.143 112.001 282.953 112.68C282.926 112.802 282.892 112.87 282.851 112.883C282.811 112.897 282.702 112.91 282.526 112.924H282.241C282.159 112.842 282.118 112.768 282.118 112.7Z" fill="#FEAB62"/>
<path d="M316.59 110.847C316.59 110.508 316.461 110.338 316.203 110.338C315.877 110.338 315.538 110.535 315.185 110.929C314.832 111.322 314.54 111.926 314.31 112.741C314.296 112.754 314.282 112.775 314.269 112.802C314.255 112.829 314.249 112.849 314.249 112.863C314.249 112.876 314.235 112.89 314.208 112.904C314.181 112.917 314.16 112.924 314.147 112.924C314.133 112.924 314.106 112.924 314.065 112.924C314.025 112.924 313.97 112.924 313.902 112.924H313.617C313.536 112.842 313.495 112.781 313.495 112.741C313.495 112.646 313.549 112.449 313.658 112.15C313.767 111.852 313.93 111.499 314.147 111.091C314.364 110.684 314.663 110.338 315.043 110.053C315.423 109.768 315.85 109.619 316.325 109.605C316.896 109.605 317.337 109.768 317.649 110.094C317.961 110.419 318.124 110.8 318.138 111.234C318.138 111.465 318.117 111.641 318.076 111.763C318.076 111.845 317.975 112.143 317.771 112.659C317.567 113.175 317.357 113.779 317.14 114.471C316.923 115.164 316.8 115.768 316.773 116.284C316.773 116.65 316.807 116.949 316.875 117.179C317.052 117.763 317.479 118.055 318.158 118.055C318.66 118.055 319.128 117.824 319.563 117.363C319.997 116.901 320.337 116.365 320.581 115.754C320.825 115.143 321.022 114.58 321.171 114.064C321.321 113.548 321.395 113.175 321.395 112.944C321.395 112.632 321.341 112.361 321.232 112.13C321.124 111.899 321.002 111.723 320.866 111.6C320.73 111.478 320.608 111.356 320.499 111.234C320.391 111.112 320.337 110.962 320.337 110.786C320.337 110.487 320.466 110.209 320.723 109.951C320.981 109.693 321.26 109.564 321.558 109.564C321.816 109.564 322.047 109.686 322.251 109.931C322.454 110.175 322.563 110.569 322.576 111.112C322.576 111.478 322.495 112.042 322.332 112.802C322.169 113.562 321.918 114.41 321.579 115.347C321.239 116.284 320.757 117.091 320.133 117.77C319.509 118.449 318.789 118.795 317.975 118.808C317.106 118.808 316.414 118.584 315.898 118.136C315.396 117.702 315.144 117.057 315.144 116.202C315.144 115.781 315.199 115.347 315.307 114.899C315.416 114.451 315.694 113.657 316.142 112.517C316.441 111.648 316.59 111.091 316.59 110.847Z" fill="#FFF888"/>
<path d="M326.681 113.318L326.494 113.39C326.359 113.438 326.168 113.486 325.918 113.534C325.668 113.582 325.39 113.616 325.083 113.635H324.81V112.973H325.083C325.534 112.953 325.952 112.881 326.335 112.757C326.719 112.632 326.988 112.517 327.142 112.411C327.295 112.306 327.43 112.2 327.545 112.094C327.564 112.066 327.621 112.051 327.717 112.051C327.804 112.051 327.885 112.08 327.962 112.138V116.442L327.977 120.761C328.044 120.828 328.101 120.871 328.149 120.89C328.197 120.909 328.312 120.928 328.495 120.948C328.677 120.967 328.975 120.976 329.387 120.976H329.762V121.639H329.603C329.402 121.61 328.639 121.595 327.314 121.595C326.009 121.595 325.256 121.61 325.054 121.639H324.882V120.976H325.256C325.467 120.976 325.649 120.976 325.803 120.976C325.956 120.976 326.076 120.972 326.163 120.962C326.249 120.952 326.326 120.938 326.393 120.919C326.46 120.9 326.499 120.89 326.508 120.89C326.518 120.89 326.547 120.866 326.595 120.818C326.643 120.77 326.671 120.751 326.681 120.761V113.318Z" fill="#FFF888"/>
<path d="M364.003 110.745C364.003 110.46 364.132 110.196 364.39 109.951C364.648 109.707 364.933 109.578 365.246 109.564C365.49 109.564 365.714 109.686 365.917 109.931C366.121 110.175 366.23 110.562 366.243 111.091C366.243 111.485 366.114 112.266 365.856 113.433C365.653 114.193 365.469 114.818 365.307 115.306C365.144 115.795 364.906 116.345 364.594 116.955C364.282 117.566 363.908 118.028 363.474 118.34C363.04 118.652 362.551 118.808 362.008 118.808C361.411 118.808 360.881 118.7 360.42 118.483C359.958 118.265 359.626 117.974 359.422 117.607C359.409 117.621 359.388 117.648 359.361 117.688C358.805 118.435 358.126 118.808 357.325 118.808C356.972 118.808 356.633 118.768 356.307 118.686C355.981 118.605 355.662 118.476 355.35 118.299C355.038 118.123 354.787 117.858 354.597 117.505C354.406 117.152 354.311 116.725 354.311 116.222C354.311 115.489 354.542 114.499 355.004 113.25C355.465 112.001 355.703 111.207 355.716 110.867C355.716 110.854 355.716 110.84 355.716 110.827C355.716 110.705 355.716 110.623 355.716 110.582C355.716 110.542 355.689 110.494 355.635 110.44C355.581 110.386 355.506 110.358 355.411 110.358H355.33C355.017 110.358 354.732 110.487 354.474 110.745C354.216 111.003 354.013 111.281 353.864 111.58C353.714 111.879 353.599 112.164 353.517 112.435C353.436 112.707 353.382 112.856 353.354 112.883C353.327 112.91 353.219 112.924 353.029 112.924H352.744C352.662 112.842 352.621 112.781 352.621 112.741C352.621 112.659 352.676 112.469 352.784 112.171C352.893 111.872 353.049 111.526 353.253 111.132C353.456 110.738 353.755 110.386 354.149 110.073C354.542 109.761 354.983 109.605 355.472 109.605C356.056 109.605 356.504 109.775 356.816 110.114C357.128 110.453 357.284 110.847 357.284 111.295C357.284 111.539 357.06 112.272 356.612 113.494C356.164 114.716 355.94 115.659 355.94 116.324C355.94 116.949 356.083 117.39 356.368 117.648C356.653 117.906 357.013 118.041 357.447 118.055C358.031 118.055 358.547 117.641 358.995 116.813L359.096 116.63V116.161C359.096 116.121 359.096 116.06 359.096 115.978C359.096 115.897 359.103 115.842 359.117 115.815C359.13 115.788 359.137 115.741 359.137 115.673C359.137 115.605 359.144 115.544 359.157 115.489C359.171 115.435 359.191 115.347 359.219 115.225C359.246 115.103 359.266 114.987 359.28 114.879C359.293 114.77 359.334 114.607 359.402 114.39C359.47 114.173 359.524 113.956 359.565 113.738C359.605 113.521 359.68 113.229 359.789 112.863C360.182 111.315 360.406 110.481 360.461 110.358C360.637 109.992 360.929 109.809 361.336 109.809C361.594 109.809 361.771 109.877 361.866 110.012C361.961 110.148 362.015 110.277 362.028 110.399C362.028 110.576 361.832 111.444 361.438 113.005C361.044 114.566 360.827 115.462 360.786 115.693C360.759 115.842 360.746 116.08 360.746 116.406V116.548C360.746 116.752 360.766 116.949 360.807 117.139C360.847 117.329 360.976 117.526 361.194 117.729C361.411 117.933 361.716 118.041 362.11 118.055C363.074 118.055 363.841 117.227 364.411 115.571C364.533 115.259 364.669 114.818 364.818 114.247C364.967 113.677 365.049 113.27 365.062 113.026C365.062 112.578 364.974 112.225 364.798 111.967C364.621 111.709 364.445 111.492 364.268 111.315C364.092 111.139 364.003 110.949 364.003 110.745Z" fill="#D582FF"/>
<path d="M370.511 113.318L370.324 113.39C370.189 113.438 369.997 113.486 369.748 113.534C369.498 113.582 369.22 113.616 368.913 113.635H368.639V112.973H368.913C369.364 112.953 369.781 112.881 370.165 112.757C370.549 112.632 370.818 112.517 370.971 112.411C371.125 112.306 371.259 112.2 371.374 112.094C371.394 112.066 371.451 112.051 371.547 112.051C371.634 112.051 371.715 112.08 371.792 112.138V116.442L371.806 120.761C371.874 120.828 371.931 120.871 371.979 120.89C372.027 120.909 372.142 120.928 372.325 120.948C372.507 120.967 372.804 120.976 373.217 120.976H373.591V121.639H373.433C373.231 121.61 372.469 121.595 371.144 121.595C369.839 121.595 369.086 121.61 368.884 121.639H368.711V120.976H369.086C369.297 120.976 369.479 120.976 369.633 120.976C369.786 120.976 369.906 120.972 369.993 120.962C370.079 120.952 370.156 120.938 370.223 120.919C370.29 120.9 370.328 120.89 370.338 120.89C370.348 120.89 370.376 120.866 370.424 120.818C370.472 120.77 370.501 120.751 370.511 120.761V113.318Z" fill="#D582FF"/>
<path d="M281.487 141.247C281.487 141.057 281.589 140.731 281.793 140.269C281.996 139.808 282.322 139.326 282.77 138.824C283.218 138.321 283.72 138.077 284.277 138.091C284.833 138.091 285.281 138.247 285.621 138.559C285.96 138.871 286.136 139.306 286.15 139.862C286.123 140.12 286.102 140.263 286.089 140.29C286.089 140.33 285.98 140.643 285.763 141.226C285.546 141.81 285.322 142.468 285.091 143.201C284.86 143.934 284.752 144.518 284.765 144.952C284.765 145.536 284.86 145.943 285.05 146.174C285.24 146.405 285.526 146.527 285.906 146.541C286.218 146.541 286.51 146.466 286.781 146.317C287.053 146.167 287.263 146.011 287.412 145.848C287.562 145.685 287.745 145.461 287.962 145.176C287.962 145.163 287.996 145.027 288.064 144.769C288.132 144.511 288.227 144.111 288.349 143.568C288.471 143.025 288.6 142.523 288.736 142.061C289.252 140.025 289.537 138.959 289.591 138.864C289.767 138.498 290.059 138.315 290.467 138.315C290.643 138.315 290.786 138.362 290.894 138.457C291.003 138.552 291.077 138.634 291.118 138.701C291.159 138.769 291.172 138.83 291.159 138.885C291.159 139.061 290.826 140.486 290.161 143.161C289.496 145.835 289.116 147.301 289.021 147.559C288.641 148.685 287.982 149.581 287.046 150.246C286.109 150.911 285.173 151.251 284.236 151.264C283.625 151.264 283.089 151.115 282.627 150.816C282.166 150.518 281.935 150.07 281.935 149.473C281.935 149.174 281.983 148.923 282.078 148.719C282.173 148.516 282.302 148.366 282.465 148.271C282.627 148.176 282.763 148.108 282.872 148.068C282.98 148.027 283.096 148.007 283.218 148.007C283.815 148.007 284.114 148.292 284.114 148.862C284.114 149.133 284.032 149.371 283.869 149.574C283.707 149.778 283.55 149.914 283.401 149.982C283.252 150.05 283.164 150.083 283.136 150.083L283.075 150.104C283.103 150.172 283.231 150.253 283.462 150.348C283.693 150.443 283.924 150.491 284.155 150.491H284.317C284.548 150.491 284.725 150.477 284.847 150.45C285.295 150.328 285.709 150.07 286.089 149.676C286.469 149.283 286.761 148.862 286.964 148.414C287.168 147.966 287.324 147.586 287.433 147.274C287.541 146.961 287.596 146.758 287.596 146.663L287.473 146.744C287.392 146.798 287.263 146.873 287.087 146.968C286.91 147.063 286.734 147.145 286.557 147.213C286.286 147.28 286.021 147.314 285.763 147.314C285.139 147.314 284.589 147.165 284.114 146.866C283.639 146.568 283.326 146.086 283.177 145.421C283.164 145.326 283.157 145.115 283.157 144.79C283.157 144.016 283.394 143.004 283.869 141.756C284.345 140.507 284.582 139.713 284.582 139.373C284.582 139.36 284.582 139.346 284.582 139.333C284.582 139.211 284.582 139.129 284.582 139.088C284.582 139.048 284.555 139 284.501 138.946C284.446 138.892 284.372 138.864 284.277 138.864H284.195C283.883 138.864 283.598 138.993 283.34 139.251C283.082 139.509 282.879 139.787 282.729 140.086C282.58 140.385 282.465 140.67 282.383 140.941C282.302 141.213 282.247 141.362 282.22 141.389C282.193 141.416 282.084 141.43 281.894 141.43H281.609C281.528 141.348 281.487 141.287 281.487 141.247Z" fill="#FEAB62"/>
<path d="M316.59 139.353C316.59 139.014 316.461 138.844 316.203 138.844C315.877 138.844 315.538 139.041 315.185 139.434C314.832 139.828 314.54 140.432 314.31 141.247C314.296 141.26 314.282 141.28 314.269 141.308C314.255 141.335 314.249 141.355 314.249 141.369C314.249 141.382 314.235 141.396 314.208 141.409C314.181 141.423 314.16 141.43 314.147 141.43C314.133 141.43 314.106 141.43 314.065 141.43C314.025 141.43 313.97 141.43 313.902 141.43H313.617C313.536 141.348 313.495 141.287 313.495 141.247C313.495 141.152 313.549 140.955 313.658 140.656C313.767 140.357 313.93 140.004 314.147 139.597C314.364 139.19 314.663 138.844 315.043 138.559C315.423 138.274 315.85 138.124 316.325 138.111C316.896 138.111 317.337 138.274 317.649 138.6C317.961 138.925 318.124 139.305 318.138 139.74C318.138 139.971 318.117 140.147 318.076 140.269C318.076 140.351 317.975 140.649 317.771 141.165C317.567 141.681 317.357 142.285 317.14 142.977C316.923 143.67 316.8 144.274 316.773 144.789C316.773 145.156 316.807 145.455 316.875 145.685C317.052 146.269 317.479 146.561 318.158 146.561C318.66 146.561 319.128 146.33 319.563 145.869C319.997 145.407 320.337 144.871 320.581 144.26C320.825 143.649 321.022 143.086 321.171 142.57C321.321 142.054 321.395 141.681 321.395 141.45C321.395 141.138 321.341 140.866 321.232 140.636C321.124 140.405 321.002 140.228 320.866 140.106C320.73 139.984 320.608 139.862 320.499 139.74C320.391 139.618 320.337 139.468 320.337 139.292C320.337 138.993 320.466 138.715 320.723 138.457C320.981 138.199 321.26 138.07 321.558 138.07C321.816 138.07 322.047 138.192 322.251 138.437C322.454 138.681 322.563 139.075 322.576 139.618C322.576 139.984 322.495 140.547 322.332 141.308C322.169 142.068 321.918 142.916 321.579 143.853C321.239 144.789 320.757 145.597 320.133 146.276C319.509 146.954 318.789 147.301 317.975 147.314C317.106 147.314 316.414 147.09 315.898 146.642C315.396 146.208 315.144 145.563 315.144 144.708C315.144 144.287 315.199 143.853 315.307 143.405C315.416 142.957 315.694 142.163 316.142 141.023C316.441 140.154 316.59 139.597 316.59 139.353Z" fill="#FFF888"/>
<path d="M325.184 143.969C324.925 143.969 324.718 143.883 324.565 143.71C324.411 143.537 324.335 143.326 324.335 143.076C324.335 142.395 324.589 141.805 325.097 141.306C325.606 140.807 326.24 140.557 326.998 140.557C327.871 140.557 328.6 140.826 329.186 141.363C329.771 141.901 330.069 142.597 330.078 143.451C330.078 143.863 329.982 144.257 329.79 144.631C329.598 145.005 329.368 145.332 329.099 145.61C328.831 145.888 328.447 146.243 327.948 146.675C327.602 146.973 327.122 147.414 326.508 148L325.659 148.806L326.753 148.82C328.26 148.82 329.061 148.796 329.157 148.748C329.224 148.729 329.339 148.302 329.503 147.467V147.424H330.078V147.467C330.069 147.496 330.006 147.932 329.891 148.777C329.776 149.621 329.704 150.063 329.675 150.101V150.145H324.335V149.871V149.698C324.335 149.631 324.363 149.559 324.421 149.482C324.478 149.406 324.622 149.238 324.853 148.978C325.131 148.671 325.371 148.403 325.573 148.172C325.659 148.076 325.822 147.899 326.062 147.64C326.302 147.381 326.465 147.203 326.551 147.107C326.638 147.011 326.777 146.853 326.969 146.632C327.161 146.411 327.295 146.248 327.372 146.143C327.449 146.037 327.559 145.893 327.703 145.711C327.847 145.528 327.948 145.375 328.005 145.25C328.063 145.125 328.135 144.986 328.221 144.833C328.308 144.679 328.37 144.526 328.408 144.372C328.447 144.218 328.48 144.074 328.509 143.94C328.538 143.806 328.552 143.647 328.552 143.465C328.552 142.86 328.389 142.337 328.063 141.896C327.737 141.454 327.271 141.234 326.667 141.234C326.35 141.234 326.072 141.315 325.832 141.478C325.592 141.642 325.424 141.8 325.328 141.954C325.232 142.107 325.184 142.198 325.184 142.227C325.184 142.237 325.208 142.241 325.256 142.241C325.429 142.241 325.606 142.309 325.788 142.443C325.971 142.577 326.062 142.798 326.062 143.105C326.062 143.345 325.985 143.547 325.832 143.71C325.678 143.873 325.462 143.959 325.184 143.969Z" fill="#FFF888"/>
<path d="M364.003 139.251C364.003 138.966 364.132 138.701 364.39 138.457C364.648 138.213 364.933 138.084 365.246 138.07C365.49 138.07 365.714 138.192 365.917 138.437C366.121 138.681 366.23 139.068 366.243 139.597C366.243 139.991 366.114 140.771 365.856 141.939C365.653 142.699 365.47 143.323 365.307 143.812C365.144 144.301 364.906 144.85 364.594 145.461C364.282 146.072 363.908 146.534 363.474 146.846C363.04 147.158 362.551 147.314 362.008 147.314C361.411 147.314 360.881 147.206 360.42 146.988C359.958 146.771 359.626 146.479 359.422 146.113C359.409 146.126 359.388 146.154 359.361 146.194C358.805 146.941 358.126 147.314 357.325 147.314C356.972 147.314 356.633 147.273 356.307 147.192C355.981 147.111 355.662 146.982 355.35 146.805C355.038 146.629 354.787 146.364 354.597 146.011C354.407 145.658 354.312 145.231 354.312 144.728C354.312 143.995 354.542 143.004 355.004 141.756C355.465 140.507 355.703 139.713 355.716 139.373C355.716 139.36 355.716 139.346 355.716 139.333C355.716 139.21 355.716 139.129 355.716 139.088C355.716 139.048 355.689 139 355.635 138.946C355.581 138.891 355.506 138.864 355.411 138.864H355.33C355.017 138.864 354.732 138.993 354.474 139.251C354.216 139.509 354.013 139.787 353.864 140.086C353.714 140.385 353.599 140.67 353.517 140.941C353.436 141.213 353.382 141.362 353.355 141.389C353.327 141.416 353.219 141.43 353.029 141.43H352.744C352.662 141.348 352.622 141.287 352.622 141.247C352.622 141.165 352.676 140.975 352.784 140.676C352.893 140.378 353.049 140.032 353.253 139.638C353.456 139.244 353.755 138.891 354.149 138.579C354.542 138.267 354.983 138.111 355.472 138.111C356.056 138.111 356.504 138.281 356.816 138.62C357.128 138.959 357.284 139.353 357.284 139.801C357.284 140.045 357.06 140.778 356.612 142C356.164 143.222 355.94 144.165 355.94 144.83C355.94 145.455 356.083 145.896 356.368 146.154C356.653 146.412 357.013 146.547 357.447 146.561C358.031 146.561 358.547 146.147 358.995 145.319L359.096 145.136V144.667C359.096 144.627 359.096 144.565 359.096 144.484C359.096 144.403 359.103 144.348 359.117 144.321C359.13 144.294 359.137 144.246 359.137 144.179C359.137 144.111 359.144 144.05 359.158 143.995C359.171 143.941 359.191 143.853 359.219 143.731C359.246 143.608 359.266 143.493 359.28 143.384C359.293 143.276 359.334 143.113 359.402 142.896C359.47 142.679 359.524 142.461 359.565 142.244C359.605 142.027 359.68 141.735 359.789 141.369C360.182 139.821 360.406 138.986 360.461 138.864C360.637 138.498 360.929 138.315 361.336 138.315C361.594 138.315 361.771 138.382 361.866 138.518C361.961 138.654 362.015 138.783 362.028 138.905C362.028 139.081 361.832 139.95 361.438 141.511C361.044 143.072 360.827 143.968 360.786 144.199C360.759 144.348 360.746 144.586 360.746 144.912V145.054C360.746 145.258 360.766 145.455 360.807 145.645C360.847 145.835 360.976 146.031 361.194 146.235C361.411 146.439 361.716 146.547 362.11 146.561C363.074 146.561 363.841 145.733 364.411 144.077C364.533 143.765 364.669 143.323 364.818 142.753C364.967 142.183 365.049 141.776 365.062 141.532C365.062 141.084 364.974 140.731 364.798 140.473C364.621 140.215 364.445 139.998 364.268 139.821C364.092 139.645 364.003 139.455 364.003 139.251Z" fill="#D582FF"/>
<path d="M369.014 143.969C368.755 143.969 368.548 143.883 368.395 143.71C368.241 143.537 368.164 143.326 368.164 143.076C368.164 142.395 368.419 141.805 368.927 141.306C369.436 140.807 370.069 140.557 370.827 140.557C371.701 140.557 372.43 140.826 373.016 141.363C373.601 141.901 373.899 142.597 373.908 143.451C373.908 143.863 373.812 144.257 373.62 144.631C373.428 145.005 373.198 145.332 372.929 145.61C372.661 145.888 372.277 146.243 371.778 146.675C371.432 146.973 370.952 147.414 370.338 148L369.489 148.806L370.583 148.82C372.089 148.82 372.891 148.796 372.987 148.748C373.054 148.729 373.169 148.302 373.332 147.467V147.424H373.908V147.467C373.899 147.496 373.836 147.932 373.721 148.777C373.606 149.621 373.534 150.063 373.505 150.101V150.145H368.164V149.871V149.698C368.164 149.631 368.193 149.559 368.251 149.482C368.308 149.406 368.452 149.238 368.683 148.978C368.961 148.671 369.201 148.403 369.402 148.172C369.489 148.076 369.652 147.899 369.892 147.64C370.132 147.381 370.295 147.203 370.381 147.107C370.468 147.011 370.607 146.853 370.799 146.632C370.991 146.411 371.125 146.248 371.202 146.143C371.279 146.037 371.389 145.893 371.533 145.711C371.677 145.528 371.778 145.375 371.835 145.25C371.893 145.125 371.965 144.986 372.051 144.833C372.137 144.679 372.2 144.526 372.238 144.372C372.277 144.218 372.31 144.074 372.339 143.94C372.368 143.806 372.382 143.647 372.382 143.465C372.382 142.86 372.219 142.337 371.893 141.896C371.566 141.454 371.101 141.234 370.496 141.234C370.18 141.234 369.901 141.315 369.661 141.478C369.422 141.642 369.254 141.8 369.158 141.954C369.062 142.107 369.014 142.198 369.014 142.227C369.014 142.237 369.038 142.241 369.086 142.241C369.258 142.241 369.436 142.309 369.618 142.443C369.801 142.577 369.892 142.798 369.892 143.105C369.892 143.345 369.815 143.547 369.661 143.71C369.508 143.873 369.292 143.959 369.014 143.969Z" fill="#D582FF"/>
<path d="M288.125 168.714C287.989 168.714 287.63 168.639 287.046 168.49C286.462 168.341 286.035 168.266 285.763 168.266C285.492 168.266 285.261 168.293 285.071 168.347C284.881 168.402 284.725 168.47 284.602 168.551C284.48 168.633 284.399 168.707 284.358 168.775C284.317 168.843 284.27 168.918 284.216 168.999L284.175 169.08C284.134 169.121 284.032 169.142 283.869 169.142C283.584 169.142 283.442 169.087 283.442 168.979C283.442 168.911 283.462 168.816 283.503 168.694C283.679 168.164 283.971 167.709 284.378 167.329C284.786 166.949 285.234 166.719 285.722 166.637C285.885 166.61 286.001 166.596 286.068 166.596C286.408 166.596 286.713 166.712 286.985 166.943C287.256 167.173 287.514 167.397 287.758 167.614C288.003 167.832 288.261 167.947 288.532 167.961C288.831 167.961 289.129 167.737 289.428 167.289C289.727 166.841 289.883 166.617 289.896 166.617C289.91 166.603 290.012 166.596 290.202 166.596H290.467C290.548 166.678 290.589 166.732 290.589 166.759C290.589 166.814 290.555 166.909 290.487 167.044C290.419 167.18 290.324 167.323 290.202 167.472C290.08 167.621 289.964 167.771 289.856 167.92C289.747 168.069 289.652 168.198 289.571 168.307L289.428 168.49C288.844 169.182 287.921 170.099 286.659 171.239C285.397 172.379 284.616 173.112 284.317 173.438L284.073 173.682L284.378 173.702C284.677 173.702 285.112 173.777 285.682 173.926C286.252 174.076 286.679 174.15 286.964 174.15C287.48 174.15 287.955 174.021 288.39 173.764C288.824 173.506 289.109 173.166 289.245 172.746C289.299 172.623 289.347 172.549 289.387 172.522C289.428 172.494 289.53 172.481 289.693 172.481C289.951 172.481 290.08 172.549 290.08 172.684C290.08 172.752 290.073 172.813 290.059 172.868C289.829 173.709 289.381 174.408 288.715 174.965C288.05 175.521 287.385 175.806 286.72 175.82C286.367 175.82 286.055 175.705 285.783 175.474C285.512 175.243 285.247 175.012 284.989 174.782C284.731 174.551 284.474 174.435 284.216 174.435C283.618 174.435 283.082 174.843 282.607 175.657C282.526 175.766 282.41 175.82 282.261 175.82H282.159H281.894C281.813 175.739 281.772 175.678 281.772 175.637C281.772 175.433 282.166 174.85 282.953 173.886C283.483 173.275 284.378 172.393 285.641 171.239C286.903 170.085 287.684 169.352 287.982 169.04C288.145 168.823 288.193 168.714 288.125 168.714Z" fill="#FEAB62"/>
<path d="M316.59 167.859C316.59 167.519 316.461 167.35 316.203 167.35C315.877 167.35 315.538 167.547 315.185 167.94C314.832 168.334 314.54 168.938 314.31 169.752C314.296 169.766 314.282 169.786 314.269 169.813C314.255 169.841 314.249 169.861 314.249 169.875C314.249 169.888 314.235 169.902 314.208 169.915C314.181 169.929 314.16 169.936 314.147 169.936C314.133 169.936 314.106 169.936 314.065 169.936C314.025 169.936 313.97 169.936 313.902 169.936H313.617C313.536 169.854 313.495 169.793 313.495 169.752C313.495 169.657 313.549 169.461 313.658 169.162C313.767 168.863 313.93 168.51 314.147 168.103C314.364 167.696 314.663 167.35 315.043 167.065C315.423 166.78 315.85 166.63 316.325 166.617C316.896 166.617 317.337 166.78 317.649 167.105C317.961 167.431 318.124 167.811 318.138 168.246C318.138 168.476 318.117 168.653 318.076 168.775C318.076 168.856 317.975 169.155 317.771 169.671C317.567 170.187 317.357 170.791 317.14 171.483C316.923 172.175 316.8 172.779 316.773 173.295C316.773 173.662 316.807 173.96 316.875 174.191C317.052 174.775 317.479 175.067 318.158 175.067C318.66 175.067 319.128 174.836 319.563 174.374C319.997 173.913 320.337 173.377 320.581 172.766C320.825 172.155 321.022 171.592 321.171 171.076C321.321 170.56 321.395 170.187 321.395 169.956C321.395 169.644 321.341 169.372 321.232 169.142C321.124 168.911 321.002 168.734 320.866 168.612C320.73 168.49 320.608 168.368 320.499 168.246C320.391 168.123 320.337 167.974 320.337 167.798C320.337 167.499 320.466 167.221 320.723 166.963C320.981 166.705 321.26 166.576 321.558 166.576C321.816 166.576 322.047 166.698 322.251 166.943C322.454 167.187 322.563 167.581 322.576 168.123C322.576 168.49 322.495 169.053 322.332 169.813C322.169 170.574 321.918 171.422 321.579 172.359C321.239 173.295 320.757 174.103 320.133 174.782C319.509 175.46 318.789 175.806 317.975 175.82C317.106 175.82 316.414 175.596 315.898 175.148C315.396 174.714 315.144 174.069 315.144 173.214C315.144 172.793 315.199 172.359 315.307 171.911C315.416 171.463 315.694 170.669 316.142 169.528C316.441 168.66 316.59 168.103 316.59 167.859Z" fill="#FFF888"/>
<path d="M325.443 171.985C325.184 171.985 324.982 171.904 324.838 171.741C324.694 171.577 324.618 171.366 324.608 171.107C324.608 170.579 324.838 170.109 325.299 169.696C325.76 169.284 326.316 169.077 326.969 169.077C327.305 169.077 327.516 169.082 327.602 169.092C328.312 169.207 328.855 169.461 329.229 169.855C329.603 170.248 329.795 170.675 329.805 171.136C329.805 171.635 329.642 172.12 329.315 172.59C328.989 173.06 328.538 173.401 327.962 173.612L327.919 173.641C327.919 173.65 327.962 173.665 328.049 173.684C328.135 173.703 328.274 173.746 328.466 173.813C328.658 173.881 328.84 173.981 329.013 174.116C329.8 174.624 330.193 175.296 330.193 176.131C330.193 176.889 329.896 177.551 329.301 178.118C328.706 178.684 327.953 178.967 327.041 178.967C326.273 178.967 325.611 178.761 325.054 178.348C324.498 177.935 324.219 177.412 324.219 176.779C324.219 176.51 324.306 176.294 324.478 176.131C324.651 175.968 324.867 175.882 325.126 175.872C325.395 175.872 325.616 175.958 325.788 176.131C325.961 176.304 326.048 176.52 326.048 176.779C326.048 176.884 326.033 176.98 326.004 177.067C325.976 177.153 325.942 177.23 325.904 177.297C325.865 177.364 325.812 177.422 325.745 177.47C325.678 177.518 325.621 177.556 325.573 177.585C325.525 177.614 325.477 177.633 325.429 177.643C325.381 177.652 325.342 177.667 325.313 177.686L325.256 177.7C325.745 178.132 326.34 178.348 327.041 178.348C327.569 178.348 327.967 178.094 328.236 177.585C328.399 177.268 328.48 176.784 328.48 176.131V175.843C328.48 174.932 328.173 174.322 327.559 174.015C327.415 173.957 327.122 173.924 326.681 173.914L326.076 173.9L326.033 173.871C326.014 173.842 326.004 173.765 326.004 173.641C326.004 173.468 326.043 173.382 326.12 173.382C326.388 173.382 326.667 173.358 326.954 173.31C327.281 173.262 327.578 173.06 327.847 172.705C328.116 172.35 328.25 171.813 328.25 171.093V170.978C328.25 170.431 328.082 170.051 327.746 169.84C327.535 169.706 327.31 169.639 327.07 169.639C326.763 169.639 326.479 169.692 326.22 169.797C325.961 169.903 325.779 170.013 325.673 170.128C325.568 170.243 325.515 170.301 325.515 170.301H325.558C325.587 170.311 325.625 170.32 325.673 170.33C325.721 170.339 325.769 170.363 325.817 170.402C325.865 170.44 325.923 170.474 325.99 170.503C326.057 170.531 326.105 170.584 326.134 170.661C326.163 170.738 326.201 170.81 326.249 170.877C326.297 170.944 326.311 171.04 326.292 171.165C326.292 171.376 326.225 171.563 326.091 171.726C325.956 171.889 325.74 171.976 325.443 171.985Z" fill="#FFF888"/>
<path d="M364.003 167.757C364.003 167.472 364.132 167.207 364.39 166.963C364.648 166.719 364.933 166.59 365.246 166.576C365.49 166.576 365.714 166.698 365.917 166.943C366.121 167.187 366.23 167.574 366.243 168.103C366.243 168.497 366.114 169.277 365.856 170.445C365.653 171.205 365.469 171.829 365.307 172.318C365.144 172.807 364.906 173.356 364.594 173.967C364.282 174.578 363.908 175.04 363.474 175.352C363.04 175.664 362.551 175.82 362.008 175.82C361.411 175.82 360.881 175.711 360.42 175.494C359.958 175.277 359.626 174.985 359.422 174.619C359.409 174.632 359.388 174.659 359.361 174.7C358.805 175.447 358.126 175.82 357.325 175.82C356.972 175.82 356.633 175.779 356.307 175.698C355.981 175.616 355.662 175.488 355.35 175.311C355.038 175.135 354.787 174.87 354.597 174.517C354.406 174.164 354.311 173.736 354.311 173.234C354.311 172.501 354.542 171.51 355.004 170.261C355.465 169.013 355.703 168.219 355.716 167.879C355.716 167.866 355.716 167.852 355.716 167.838C355.716 167.716 355.716 167.635 355.716 167.594C355.716 167.553 355.689 167.506 355.635 167.452C355.581 167.397 355.506 167.37 355.411 167.37H355.33C355.017 167.37 354.732 167.499 354.474 167.757C354.216 168.015 354.013 168.293 353.864 168.592C353.714 168.89 353.599 169.175 353.517 169.447C353.436 169.718 353.382 169.868 353.354 169.895C353.327 169.922 353.219 169.936 353.029 169.936H352.744C352.662 169.854 352.621 169.793 352.621 169.752C352.621 169.671 352.676 169.481 352.784 169.182C352.893 168.884 353.049 168.538 353.253 168.144C353.456 167.75 353.755 167.397 354.149 167.085C354.542 166.773 354.983 166.617 355.472 166.617C356.056 166.617 356.504 166.786 356.816 167.126C357.128 167.465 357.284 167.859 357.284 168.307C357.284 168.551 357.06 169.284 356.612 170.506C356.164 171.727 355.94 172.671 355.94 173.336C355.94 173.96 356.083 174.402 356.368 174.659C356.653 174.917 357.013 175.053 357.447 175.067C358.031 175.067 358.547 174.653 358.995 173.825L359.096 173.641V173.173C359.096 173.132 359.096 173.071 359.096 172.99C359.096 172.908 359.103 172.854 359.117 172.827C359.13 172.8 359.137 172.752 359.137 172.684C359.137 172.617 359.144 172.555 359.157 172.501C359.171 172.447 359.191 172.359 359.219 172.236C359.246 172.114 359.266 171.999 359.28 171.89C359.293 171.782 359.334 171.619 359.402 171.402C359.47 171.184 359.524 170.967 359.565 170.75C359.605 170.533 359.68 170.241 359.789 169.875C360.182 168.327 360.406 167.492 360.461 167.37C360.637 167.004 360.929 166.82 361.336 166.82C361.594 166.82 361.771 166.888 361.866 167.024C361.961 167.16 362.015 167.289 362.028 167.411C362.028 167.587 361.832 168.456 361.438 170.017C361.044 171.578 360.827 172.474 360.786 172.705C360.759 172.854 360.746 173.092 360.746 173.417V173.56C360.746 173.764 360.766 173.96 360.807 174.15C360.847 174.34 360.976 174.537 361.194 174.741C361.411 174.945 361.716 175.053 362.11 175.067C363.074 175.067 363.841 174.239 364.411 172.583C364.533 172.27 364.669 171.829 364.818 171.259C364.967 170.689 365.049 170.282 365.062 170.037C365.062 169.59 364.974 169.237 364.798 168.979C364.621 168.721 364.445 168.504 364.268 168.327C364.092 168.151 364.003 167.961 364.003 167.757Z" fill="#D582FF"/>
<path d="M369.273 171.985C369.014 171.985 368.812 171.904 368.668 171.741C368.524 171.577 368.447 171.366 368.438 171.107C368.438 170.579 368.668 170.109 369.129 169.696C369.589 169.284 370.146 169.077 370.799 169.077C371.135 169.077 371.346 169.082 371.432 169.092C372.142 169.207 372.684 169.461 373.059 169.855C373.433 170.248 373.625 170.675 373.635 171.136C373.635 171.635 373.471 172.12 373.145 172.59C372.819 173.06 372.368 173.401 371.792 173.612L371.749 173.641C371.749 173.65 371.792 173.665 371.878 173.684C371.965 173.703 372.104 173.746 372.296 173.813C372.488 173.881 372.67 173.981 372.843 174.116C373.63 174.624 374.023 175.296 374.023 176.131C374.023 176.889 373.726 177.551 373.131 178.118C372.536 178.684 371.782 178.967 370.871 178.967C370.103 178.967 369.441 178.761 368.884 178.348C368.327 177.935 368.049 177.412 368.049 176.779C368.049 176.51 368.136 176.294 368.308 176.131C368.481 175.968 368.697 175.882 368.956 175.872C369.225 175.872 369.446 175.958 369.618 176.131C369.791 176.304 369.877 176.52 369.877 176.779C369.877 176.884 369.863 176.98 369.834 177.067C369.805 177.153 369.772 177.23 369.733 177.297C369.695 177.364 369.642 177.422 369.575 177.47C369.508 177.518 369.45 177.556 369.402 177.585C369.354 177.614 369.306 177.633 369.258 177.643C369.21 177.652 369.172 177.667 369.143 177.686L369.086 177.7C369.575 178.132 370.17 178.348 370.871 178.348C371.399 178.348 371.797 178.094 372.065 177.585C372.229 177.268 372.31 176.784 372.31 176.131V175.843C372.31 174.932 372.003 174.322 371.389 174.015C371.245 173.957 370.952 173.924 370.511 173.914L369.906 173.9L369.863 173.871C369.844 173.842 369.834 173.765 369.834 173.641C369.834 173.468 369.873 173.382 369.949 173.382C370.218 173.382 370.496 173.358 370.784 173.31C371.111 173.262 371.408 173.06 371.677 172.705C371.946 172.35 372.08 171.813 372.08 171.093V170.978C372.08 170.431 371.912 170.051 371.576 169.84C371.365 169.706 371.139 169.639 370.899 169.639C370.592 169.639 370.309 169.692 370.05 169.797C369.791 169.903 369.609 170.013 369.503 170.128C369.398 170.243 369.345 170.301 369.345 170.301H369.388C369.417 170.311 369.455 170.32 369.503 170.33C369.551 170.339 369.599 170.363 369.647 170.402C369.695 170.44 369.753 170.474 369.82 170.503C369.887 170.531 369.935 170.584 369.964 170.661C369.993 170.738 370.031 170.81 370.079 170.877C370.127 170.944 370.141 171.04 370.122 171.165C370.122 171.376 370.055 171.563 369.921 171.726C369.786 171.889 369.57 171.976 369.273 171.985Z" fill="#D582FF"/>
<path d="M375.66 105.024V103.314H382.726V139.944H381.015V105.024H375.66Z" fill="#F0F0F0"/>
<path d="M381.015 178.976V144.057H382.726V180.687H375.66V178.976H381.015Z" fill="#F0F0F0"/>
<g clip-path="url(#clip7_747_1446)">
<path d="M381.015 148.139V135.857H382.726V148.139H381.015Z" fill="#F0F0F0"/>
</g>
<path d="M389.872 103.538C389.872 103.388 389.995 103.314 390.239 103.314H390.443C390.619 103.314 390.728 103.327 390.768 103.354C390.809 103.381 390.904 103.49 391.053 103.68C392.424 105.35 393.646 107.135 394.718 109.035C395.791 110.936 396.687 112.89 397.406 114.899C398.126 116.908 398.723 118.883 399.198 120.824C399.673 122.765 400.046 124.815 400.318 126.973C400.589 129.132 400.779 131.107 400.888 132.899C400.997 134.69 401.071 136.618 401.112 138.681C401.112 139.373 401.112 139.781 401.112 139.903C401.112 140.025 401.071 140.1 400.99 140.127C400.963 140.14 400.494 140.147 399.585 140.147C399.001 140.147 398.696 140.14 398.669 140.127C398.614 140.113 398.58 140.066 398.567 139.984C398.553 139.903 398.546 139.645 398.546 139.211C398.546 131.731 397.963 125.29 396.795 119.888C395.628 114.485 393.789 109.755 391.277 105.696C391.101 105.397 390.836 104.983 390.483 104.454C390.13 103.924 389.927 103.619 389.872 103.538Z" fill="#F0F0F0"/>
<path d="M390.382 180.687H390.259C390.001 180.687 389.872 180.625 389.872 180.503C389.872 180.463 389.913 180.374 389.995 180.239C390.429 179.655 390.857 179.01 391.277 178.304C393.802 174.246 395.642 169.515 396.795 164.112C397.949 158.71 398.533 152.269 398.546 144.79C398.546 144.219 398.58 143.914 398.648 143.873C398.675 143.86 399.069 143.853 399.829 143.853C400.576 143.853 400.963 143.86 400.99 143.873C401.058 143.9 401.092 143.975 401.092 144.097C401.092 144.219 401.098 144.627 401.112 145.319C401.085 147.803 400.997 150.117 400.847 152.262C400.698 154.407 400.406 156.796 399.972 159.429C399.537 162.063 398.96 164.506 398.241 166.759C397.522 169.013 396.558 171.341 395.35 173.743C394.142 176.146 392.71 178.338 391.053 180.32C390.904 180.51 390.809 180.619 390.768 180.646C390.728 180.673 390.633 180.687 390.483 180.687H390.382Z" fill="#F0F0F0"/>
<g clip-path="url(#clip8_747_1446)">
<path d="M401.03 147.816C401.017 147.816 400.976 147.816 400.908 147.816C400.84 147.816 400.712 147.822 400.521 147.834C400.331 147.847 400.101 147.847 399.829 147.834C399.096 147.834 398.709 147.828 398.669 147.816C398.628 147.803 398.601 147.778 398.587 147.74C398.56 147.615 398.546 146.787 398.546 145.257V142.002C398.546 138.214 398.553 136.301 398.567 136.264L398.648 136.189C398.675 136.176 399.15 136.17 400.074 136.17C400.291 136.17 400.467 136.17 400.603 136.17C400.739 136.17 400.84 136.17 400.908 136.17C400.976 136.17 401.01 136.176 401.01 136.189C401.064 136.189 401.092 136.295 401.092 136.508C401.092 136.722 401.098 137.468 401.112 138.747V145.257C401.112 146.963 401.085 147.816 401.03 147.816Z" fill="#F0F0F0"/>
</g>
</g>
<path d="M149.88 188.687C150.015 188.687 150.101 188.794 150.139 189.008C150.177 189.221 150.219 189.592 150.263 190.119C150.308 190.646 150.374 191.106 150.463 191.502C151.096 194.366 152.35 195.798 154.226 195.798L162.303 195.798C164.69 195.798 166.221 197.786 166.899 201.761C167.575 197.786 169.03 195.798 171.261 195.798L179.516 195.798C180.06 195.798 180.471 195.765 180.748 195.699C181.525 195.468 182.196 194.831 182.762 193.785C183.328 192.74 183.667 191.444 183.779 189.896C183.779 189.863 183.784 189.768 183.795 189.613C183.806 189.457 183.817 189.345 183.829 189.28C183.84 189.213 183.857 189.123 183.879 189.008C183.902 188.892 183.943 188.81 184.001 188.761C184.058 188.711 184.122 188.687 184.192 188.687C184.481 188.687 184.277 192.354 183.579 194.277C182.88 196.199 181.867 197.283 180.538 197.527C180.315 197.56 179.986 197.576 179.55 197.576L171.429 197.576C170.674 197.576 170.013 197.794 169.447 198.23C168.881 198.667 168.461 199.23 168.19 199.922C167.918 200.613 167.721 201.194 167.599 201.663C167.477 202.132 167.393 202.605 167.35 203.083C167.35 203.182 167.343 203.326 167.332 203.515C167.321 203.704 167.302 203.856 167.274 203.972C167.246 204.087 167.222 204.203 167.199 204.317C167.177 204.433 167.138 204.523 167.082 204.589C167.027 204.654 166.966 204.688 166.899 204.688C166.811 204.688 166.738 204.664 166.683 204.614C166.628 204.564 166.586 204.474 166.558 204.342C166.53 204.211 166.511 204.075 166.5 203.935C166.489 203.796 166.472 203.61 166.45 203.379C166.428 203.148 166.406 202.935 166.383 202.737C166.228 201.519 165.879 200.42 165.335 199.44C164.79 198.461 164.097 197.873 163.253 197.675C163.032 197.609 162.698 197.576 162.254 197.576L154.426 197.576C153.981 197.576 153.625 197.547 153.358 197.49C153.092 197.433 152.72 197.213 152.241 196.83C151.763 196.447 151.333 195.889 150.953 195.156C149.688 193.13 149.66 188.687 149.88 188.687Z" fill="#A0A0A0"/>
<rect x="90.2496" y="41.9814" width="21.014" height="29.321" fill="black"/>
<g clip-path="url(#clip9_747_1446)">
<path d="M94.902 54.3511L96.7551 54.2696C97.9906 54.2153 98.6151 54.1881 98.6286 54.1881H98.7508V55.0231C98.7644 55.0231 98.8187 54.9959 98.9137 54.9416C99.0088 54.8873 99.1581 54.8194 99.3617 54.738C99.5654 54.6565 99.7894 54.5683 100.034 54.4732C100.278 54.3782 100.577 54.3103 100.93 54.2696C101.283 54.2289 101.649 54.2017 102.029 54.1881C103.36 54.1881 104.432 54.609 105.247 55.4507C106.061 56.2924 106.469 57.4124 106.469 58.8107C106.469 60.1005 106.055 61.2001 105.227 62.1097C104.398 63.0193 103.19 63.4741 101.602 63.4741H101.459C100.618 63.4741 99.8165 63.2433 99.0563 62.7817L98.873 62.6595V66.0399H100.278V67.3025H100.095C99.8505 67.2618 99.0088 67.2414 97.5697 67.2414C96.1171 67.2414 95.2686 67.2618 95.0242 67.3025H94.8409V66.0399H96.2461V61.0508V57.5685C96.2461 56.9441 96.2393 56.5096 96.2257 56.2653C96.2121 56.0209 96.185 55.8716 96.1442 55.8173C96.1035 55.7629 96.0356 55.7222 95.9406 55.6951C95.7505 55.6408 95.4722 55.6136 95.1057 55.6136H94.8409V54.3511H94.902ZM103.557 58.7904C103.557 57.7179 103.353 56.8694 102.946 56.2449C102.538 55.6204 102.016 55.3082 101.378 55.3082C100.455 55.3082 99.674 55.6 99.0359 56.1838L98.873 56.3263V61.234L98.9952 61.3766C99.5518 62.0825 100.258 62.4355 101.113 62.4355C101.738 62.4355 102.301 62.1572 102.803 61.6006C103.306 61.044 103.557 60.1072 103.557 58.7904Z" fill="#A0A0A0"/>
<path d="M103.343 48.4253C103.343 48.3167 103.377 48.2216 103.445 48.1402C103.513 48.0587 103.614 48.018 103.75 48.018C103.845 48.018 103.927 48.0519 103.995 48.1198C104.062 48.1741 104.13 48.3031 104.198 48.5067C104.334 49.009 104.612 49.396 105.033 49.6675C105.182 49.7625 105.257 49.8847 105.257 50.034C105.257 50.1562 105.237 50.2377 105.196 50.2784C105.155 50.3191 105.06 50.3802 104.911 50.4617C104.327 50.7603 103.818 51.188 103.384 51.7446C103.356 51.7717 103.322 51.8125 103.282 51.8668C103.241 51.9211 103.207 51.9618 103.18 51.989C103.153 52.0161 103.119 52.0297 103.078 52.0297C103.037 52.0297 102.99 52.0365 102.936 52.05C102.841 52.05 102.752 52.0161 102.671 51.9482C102.589 51.8803 102.542 51.7785 102.528 51.6428C102.528 51.3848 102.847 50.9843 103.485 50.4413H100.003L96.521 50.4209C96.3445 50.2988 96.2562 50.1698 96.2562 50.034C96.2562 49.939 96.3445 49.8032 96.521 49.6267H103.832C103.506 49.1109 103.343 48.7104 103.343 48.4253Z" fill="#A0A0A0"/>
</g>
<rect x="311.76" y="46.1211" width="20.357" height="25.244" fill="black"/>
<g clip-path="url(#clip10_747_1446)">
<path d="M323.924 58.3256C324.087 58.3664 324.724 58.3867 325.837 58.3867C326.828 58.3867 327.364 58.3664 327.446 58.3256H327.568V59.5878H326.143L324.087 64.1886C323.259 66.0615 322.784 67.0794 322.662 67.2422C322.553 67.3779 322.424 67.4458 322.275 67.4458C322.248 67.4458 322.2 67.4458 322.132 67.4458C322.064 67.4458 321.997 67.439 321.929 67.4254H321.623C321.42 67.4254 321.257 67.3237 321.135 67.1201C321.013 66.9165 320.721 66.3058 320.259 65.2879C320.056 64.84 319.893 64.4736 319.771 64.1886L317.715 59.5878H316.29V58.3256H316.453C316.656 58.3664 317.409 58.3867 318.712 58.3867C320.164 58.3867 321.013 58.3664 321.257 58.3256H321.44V59.5878H320.463L321.542 61.99C322.234 63.5507 322.6 64.3311 322.641 64.3311C322.641 64.3175 322.987 63.5372 323.679 61.99C324.372 60.4428 324.731 59.6489 324.758 59.6082C324.758 59.5946 324.596 59.5878 324.27 59.5878H323.781V58.3256H323.924Z" fill="#A0A0A0"/>
<path d="M324.524 52.5644C324.524 52.4558 324.558 52.3608 324.626 52.2793C324.694 52.1979 324.796 52.1572 324.931 52.1572C325.026 52.1572 325.108 52.1911 325.176 52.259C325.244 52.3133 325.311 52.4422 325.379 52.6458C325.515 53.1479 325.793 53.5347 326.214 53.8062C326.363 53.9012 326.438 54.0233 326.438 54.1726C326.438 54.2947 326.418 54.3762 326.377 54.4169C326.336 54.4576 326.241 54.5187 326.092 54.6001C325.508 54.8987 324.999 55.3262 324.565 55.8826C324.538 55.9098 324.504 55.9505 324.463 56.0048C324.422 56.0591 324.389 56.0998 324.361 56.1269C324.334 56.1541 324.3 56.1676 324.26 56.1676C324.219 56.1676 324.171 56.1744 324.117 56.188C324.022 56.188 323.934 56.1541 323.852 56.0862C323.771 56.0183 323.724 55.9166 323.71 55.7808C323.71 55.523 324.029 55.1226 324.667 54.5797H321.186L317.704 54.5594C317.528 54.4372 317.44 54.3083 317.44 54.1726C317.44 54.0776 317.528 53.9419 317.704 53.7654H325.013C324.687 53.2497 324.524 52.8494 324.524 52.5644Z" fill="#A0A0A0"/>
</g>
<path d="M330.841 91.365C330.716 91.365 330.635 91.2849 330.6 91.124C330.564 90.9639 330.525 90.6862 330.484 90.2909C330.442 89.8957 330.38 89.5504 330.297 89.2536C329.707 87.1054 328.536 86.0313 326.785 86.0313L326.241 86.0313C324.014 86.0313 322.585 84.5407 321.953 81.5594C321.321 84.5407 319.964 86.0313 317.881 86.0313L317.42 86.0313C316.913 86.0313 316.529 86.0563 316.271 86.1055C315.545 86.2789 314.919 86.7564 314.391 87.5411C313.862 88.325 313.546 89.2969 313.443 90.4577C313.443 90.4819 313.437 90.5539 313.427 90.67C313.417 90.7875 313.407 90.8713 313.396 90.9198C313.386 90.9697 313.37 91.0373 313.349 91.124C313.327 91.2107 313.289 91.2724 313.235 91.3092C313.181 91.3466 313.122 91.365 313.057 91.365C312.788 91.365 312.979 88.6144 313.63 87.173C314.282 85.7316 315.227 84.919 316.467 84.7354C316.676 84.7111 316.983 84.6986 317.39 84.6986L317.727 84.6986C318.431 84.6986 319.047 84.5348 319.576 84.2079C320.104 83.8802 320.496 83.4578 320.749 82.9391C321.003 82.4212 321.186 81.9855 321.3 81.6336C321.415 81.2817 321.492 80.9269 321.533 80.5691C321.533 80.4949 321.539 80.3869 321.55 80.2451C321.56 80.1033 321.578 79.9895 321.604 79.9028C321.63 79.8168 321.653 79.7301 321.674 79.6434C321.694 79.5567 321.73 79.4891 321.783 79.4392C321.834 79.39 321.891 79.365 321.953 79.365C322.036 79.365 322.104 79.3834 322.155 79.4208C322.206 79.4583 322.246 79.5259 322.272 79.6251C322.298 79.7235 322.316 79.8256 322.326 79.9307C322.336 80.035 322.352 80.1746 322.373 80.3472C322.394 80.5199 322.414 80.68 322.435 80.8284C322.58 81.7416 322.906 82.5659 323.413 83.3006C323.921 84.0352 324.569 84.476 325.356 84.6244C325.563 84.6737 325.874 84.6986 326.288 84.6986L326.599 84.6986C327.015 84.6986 327.347 84.72 327.596 84.7626C327.844 84.8052 328.192 84.9705 328.638 85.2577C329.085 85.545 329.486 85.963 329.841 86.5133C331.02 88.0326 331.047 91.365 330.841 91.365Z" fill="#A0A0A0"/>
<path d="M369.839 91.365C369.714 91.365 369.633 91.2849 369.598 91.124C369.562 90.9639 369.523 90.6862 369.482 90.2909C369.44 89.8957 369.378 89.5504 369.295 89.2536C368.705 87.1054 367.534 86.0313 365.784 86.0313L365.239 86.0313C363.012 86.0313 361.583 84.5407 360.951 81.5594C360.319 84.5407 358.962 86.0313 356.879 86.0313L356.418 86.0313C355.911 86.0313 355.527 86.0563 355.269 86.1055C354.543 86.2789 353.917 86.7564 353.389 87.5411C352.86 88.325 352.544 89.2969 352.441 90.4577C352.441 90.4819 352.435 90.5539 352.425 90.67C352.415 90.7875 352.405 90.8713 352.394 90.9198C352.384 90.9697 352.368 91.0373 352.347 91.124C352.325 91.2107 352.287 91.2724 352.233 91.3092C352.179 91.3466 352.12 91.365 352.055 91.365C351.786 91.365 351.977 88.6144 352.628 87.173C353.28 85.7316 354.225 84.919 355.465 84.7354C355.674 84.7111 355.981 84.6986 356.388 84.6986L356.725 84.6986C357.429 84.6986 358.045 84.5348 358.574 84.2079C359.102 83.8802 359.494 83.4578 359.747 82.9391C360.001 82.4212 360.184 81.9855 360.298 81.6336C360.413 81.2817 360.49 80.9269 360.531 80.5691C360.531 80.4949 360.537 80.3869 360.548 80.2451C360.558 80.1033 360.576 79.9895 360.602 79.9028C360.628 79.8168 360.651 79.7301 360.672 79.6434C360.692 79.5567 360.728 79.4891 360.781 79.4392C360.832 79.39 360.889 79.365 360.952 79.365C361.034 79.365 361.102 79.3834 361.153 79.4208C361.205 79.4583 361.244 79.5259 361.27 79.6251C361.296 79.7235 361.314 79.8256 361.324 79.9307C361.334 80.035 361.35 80.1746 361.371 80.3472C361.392 80.5199 361.412 80.68 361.433 80.8284C361.578 81.7416 361.904 82.5659 362.411 83.3006C362.919 84.0352 363.567 84.476 364.354 84.6244C364.561 84.6737 364.872 84.6986 365.286 84.6986L365.597 84.6986C366.013 84.6986 366.345 84.72 366.594 84.7626C366.842 84.8052 367.19 84.9705 367.636 85.2577C368.083 85.545 368.484 85.963 368.839 86.5133C370.018 88.0326 370.045 91.365 369.839 91.365Z" fill="#A0A0A0"/>
<rect x="346.972" y="45.646" width="24.92" height="25.244" fill="black"/>
<g clip-path="url(#clip11_747_1446)">
<path d="M363.677 57.8505C363.84 57.8913 364.505 57.9116 365.672 57.9116C366.69 57.9116 367.22 57.8913 367.26 57.8505H367.362V59.1128H366.059L363.046 66.666C363.033 66.6795 363.012 66.6999 362.985 66.727C362.958 66.7542 362.931 66.7813 362.904 66.8085C362.876 66.8356 362.863 66.8492 362.863 66.8492C362.863 66.8492 362.843 66.8628 362.802 66.8899C362.761 66.917 362.748 66.9306 362.761 66.9306C362.775 66.9306 362.748 66.9374 362.68 66.951C362.612 66.9646 362.585 66.9646 362.598 66.951C362.612 66.9374 362.585 66.9442 362.517 66.9713C362.449 66.9985 362.408 66.9985 362.395 66.9713C362.381 66.9442 362.327 66.9442 362.232 66.9713H362.008C361.777 66.9713 361.614 66.9035 361.519 66.7678C361.424 66.632 361.234 66.1977 360.949 65.4648C360.732 64.9219 360.549 64.4672 360.399 64.1007L359.422 61.6577L358.445 64.1007C358.309 64.4536 358.133 64.8947 357.916 65.4241C357.631 66.1706 357.441 66.6117 357.346 66.7474C357.251 66.8831 357.088 66.9578 356.857 66.9713H356.613C356.368 66.9713 356.206 66.9578 356.124 66.9306C356.043 66.9035 355.941 66.8153 355.819 66.666L352.806 59.1128H351.482V57.8505H351.625C351.828 57.8913 352.561 57.9116 353.824 57.9116C355.221 57.9116 356.043 57.8913 356.287 57.8505H356.47V59.1128H355.493L357.285 63.551L358.75 59.9272L358.425 59.1128H357.142V57.8505H357.285C357.447 57.8913 358.106 57.9116 359.259 57.9116C360.63 57.9116 361.417 57.8913 361.621 57.8505H361.784V59.1128H361.275C360.936 59.1128 360.766 59.1264 360.766 59.1535C360.779 59.2078 361.105 60.029 361.743 61.6169C362.381 63.2049 362.707 63.9989 362.72 63.9989L364.695 59.1128H363.535V57.8505H363.677Z" fill="#A0A0A0"/>
<path d="M362.018 52.089C362.018 51.9804 362.052 51.8854 362.12 51.804C362.188 51.7225 362.289 51.6818 362.425 51.6818C362.52 51.6818 362.602 51.7158 362.669 51.7836C362.737 51.8379 362.805 51.9669 362.873 52.1704C363.009 52.6726 363.287 53.0594 363.708 53.3309C363.857 53.4259 363.932 53.5481 363.932 53.6974C363.932 53.8195 363.911 53.9009 363.871 53.9417C363.83 53.9824 363.735 54.0435 363.586 54.1249C363.002 54.4235 362.493 54.851 362.059 55.4075C362.032 55.4347 361.998 55.4754 361.957 55.5297C361.916 55.584 361.882 55.6247 361.855 55.6518C361.828 55.679 361.794 55.6925 361.753 55.6925C361.713 55.6925 361.665 55.6993 361.611 55.7129C361.516 55.7129 361.428 55.679 361.346 55.6111C361.265 55.5432 361.217 55.4414 361.204 55.3057C361.204 55.0478 361.523 54.6474 362.16 54.1045H358.679L355.198 54.0842C355.021 53.962 354.933 53.8331 354.933 53.6974C354.933 53.6023 355.021 53.4666 355.198 53.2902H362.507C362.181 52.7744 362.018 52.374 362.018 52.089Z" fill="#A0A0A0"/>
</g>
<path d="M121.633 95.3035C121.468 95.3035 121.363 95.1965 121.316 94.9825C121.269 94.7695 121.218 94.3985 121.164 93.8715C121.109 93.3445 121.028 92.8845 120.919 92.4885C120.144 89.6245 118.607 88.1925 116.309 88.1925L106.412 88.1925C103.488 88.1925 101.612 86.2045 100.781 82.2295C99.9526 86.2045 98.17 88.1925 95.4366 88.1925L85.3219 88.1925C84.656 88.1925 84.1523 88.2255 83.813 88.2915C82.8607 88.5225 82.0382 89.1595 81.3448 90.2055C80.6514 91.2505 80.2366 92.5465 80.0998 94.0945C80.0998 94.1275 80.0927 94.2225 80.0793 94.3775C80.0659 94.5335 80.0525 94.6455 80.0384 94.7105C80.025 94.7775 80.0039 94.8675 79.9763 94.9825C79.9481 95.0985 79.898 95.1805 79.8275 95.2295C79.757 95.2795 79.6794 95.3035 79.5933 95.3035C79.2392 95.3035 79.4896 91.6365 80.3446 89.7135C81.2002 87.7915 82.4417 86.7075 84.0698 86.4635C84.3435 86.4305 84.747 86.4145 85.2803 86.4145L95.2313 86.4145C96.1561 86.4145 96.9652 86.1965 97.6593 85.7605C98.3527 85.3235 98.867 84.7605 99.1999 84.0685C99.5329 83.3775 99.7741 82.7965 99.9237 82.3275C100.073 81.8585 100.176 81.3855 100.229 80.9075C100.229 80.8085 100.237 80.6645 100.25 80.4755C100.264 80.2865 100.288 80.1345 100.322 80.0185C100.355 79.9035 100.386 79.7875 100.413 79.6735C100.44 79.5575 100.488 79.4675 100.556 79.4015C100.624 79.3365 100.7 79.3025 100.781 79.3025C100.889 79.3025 100.978 79.3265 101.046 79.3765C101.114 79.4265 101.165 79.5165 101.199 79.6485C101.233 79.7795 101.257 79.9155 101.27 80.0555C101.284 80.1945 101.304 80.3805 101.331 80.6115C101.358 80.8425 101.385 81.0555 101.413 81.2535C101.603 82.4715 102.031 83.5705 102.697 84.5505C103.365 85.5295 104.215 86.1175 105.248 86.3155C105.52 86.3815 105.928 86.4145 106.472 86.4145L116.063 86.4145C116.609 86.4145 117.045 86.4435 117.372 86.5005C117.698 86.5575 118.154 86.7775 118.74 87.1605C119.326 87.5435 119.853 88.1015 120.319 88.8345C121.868 90.8605 121.903 95.3035 121.633 95.3035Z" fill="#A0A0A0"/>
<rect x="156.24" y="205.688" width="21.014" height="25.487" fill="black"/>
<g clip-path="url(#clip12_747_1446)">
<path d="M161.057 218.054L162.97 217.973C164.246 217.919 164.891 217.892 164.904 217.892H165.026V221.495V223.693C165.026 224.711 165.047 225.329 165.087 225.546C165.128 225.763 165.237 225.912 165.413 225.994C165.603 226.075 165.942 226.116 166.431 226.116H166.736C167.184 226.116 167.598 225.973 167.978 225.688C168.358 225.403 168.623 225.037 168.772 224.589L168.792 224.548C168.847 224.386 168.881 223.87 168.894 223.001C168.894 222.974 168.894 222.92 168.894 222.838C168.894 222.486 168.894 222.201 168.894 221.983V220.619C168.894 220.104 168.881 219.785 168.853 219.663C168.826 219.541 168.738 219.452 168.589 219.398C168.399 219.344 168.121 219.317 167.754 219.317H167.49V218.054L171.52 217.892V221.617C171.52 224.101 171.534 225.376 171.561 225.444C171.629 225.675 171.995 225.79 172.66 225.79H172.925V226.421C172.925 226.842 172.918 227.052 172.905 227.052C172.647 227.052 172.002 227.073 170.971 227.113C169.939 227.154 169.295 227.175 169.037 227.175C169.023 227.175 169.016 226.964 169.016 226.543V225.912L168.792 226.136C168.155 226.666 167.557 226.978 167.001 227.073C166.743 227.141 166.397 227.175 165.963 227.175C164.972 227.175 164.185 227.039 163.601 226.767C163.018 226.496 162.638 226.001 162.461 225.281L162.421 225.057L162.4 222.37C162.4 220.633 162.387 219.71 162.359 219.602C162.251 219.412 161.884 219.317 161.26 219.317H160.996V218.054H161.057Z" fill="#A0A0A0"/>
<path d="M169.332 212.131C169.332 212.022 169.366 211.927 169.434 211.846C169.502 211.764 169.603 211.723 169.739 211.723C169.834 211.723 169.915 211.757 169.983 211.825C170.051 211.879 170.119 212.008 170.187 212.212C170.323 212.714 170.601 213.101 171.022 213.372C171.171 213.467 171.245 213.589 171.245 213.739C171.245 213.861 171.225 213.942 171.184 213.983C171.144 214.024 171.049 214.085 170.899 214.166C170.316 214.465 169.807 214.892 169.373 215.449C169.345 215.476 169.312 215.517 169.271 215.571C169.23 215.625 169.196 215.666 169.169 215.693C169.142 215.72 169.108 215.734 169.067 215.734C169.027 215.734 168.979 215.741 168.925 215.754C168.83 215.754 168.742 215.72 168.66 215.652C168.579 215.585 168.531 215.483 168.518 215.347C168.518 215.089 168.837 214.689 169.474 214.146H165.993L162.512 214.126C162.336 214.003 162.248 213.874 162.248 213.739C162.248 213.644 162.336 213.508 162.512 213.332H169.82C169.495 212.816 169.332 212.416 169.332 212.131Z" fill="#A0A0A0"/>
</g>
<rect x="275.819" y="205.688" width="21.014" height="25.487" fill="black"/>
<g clip-path="url(#clip13_747_1446)">
<path d="M280.636 218.054L282.549 217.973C283.825 217.919 284.47 217.892 284.483 217.892H284.605V221.495V223.693C284.605 224.711 284.626 225.329 284.666 225.546C284.707 225.763 284.816 225.912 284.992 225.994C285.182 226.075 285.521 226.116 286.01 226.116H286.315C286.763 226.116 287.177 225.973 287.557 225.688C287.937 225.403 288.202 225.037 288.351 224.589L288.371 224.548C288.426 224.386 288.46 223.87 288.473 223.001C288.473 222.974 288.473 222.92 288.473 222.838C288.473 222.486 288.473 222.201 288.473 221.983V220.619C288.473 220.104 288.46 219.785 288.433 219.663C288.405 219.541 288.317 219.452 288.168 219.398C287.978 219.344 287.7 219.317 287.333 219.317H287.069V218.054L291.099 217.892V221.617C291.099 224.101 291.113 225.376 291.14 225.444C291.208 225.675 291.574 225.79 292.239 225.79H292.504V226.421C292.504 226.842 292.497 227.052 292.484 227.052C292.226 227.052 291.581 227.073 290.55 227.113C289.518 227.154 288.874 227.175 288.616 227.175C288.602 227.175 288.595 226.964 288.595 226.543V225.912L288.371 226.136C287.734 226.666 287.136 226.978 286.58 227.073C286.322 227.141 285.976 227.175 285.542 227.175C284.551 227.175 283.764 227.039 283.18 226.767C282.597 226.496 282.217 226.001 282.04 225.281L282 225.057L281.979 222.37C281.979 220.633 281.966 219.71 281.939 219.602C281.83 219.412 281.464 219.317 280.839 219.317H280.575V218.054H280.636Z" fill="#A0A0A0"/>
<path d="M288.911 212.131C288.911 212.022 288.945 211.927 289.013 211.846C289.081 211.764 289.182 211.723 289.318 211.723C289.413 211.723 289.495 211.757 289.562 211.825C289.63 211.879 289.698 212.008 289.766 212.212C289.902 212.714 290.18 213.101 290.601 213.372C290.75 213.467 290.825 213.589 290.825 213.739C290.825 213.861 290.804 213.942 290.763 213.983C290.723 214.024 290.628 214.085 290.478 214.166C289.895 214.465 289.386 214.892 288.952 215.449C288.925 215.476 288.891 215.517 288.85 215.571C288.809 215.625 288.775 215.666 288.748 215.693C288.721 215.72 288.687 215.734 288.646 215.734C288.606 215.734 288.558 215.741 288.504 215.754C288.409 215.754 288.321 215.72 288.239 215.652C288.158 215.585 288.11 215.483 288.097 215.347C288.097 215.089 288.416 214.689 289.053 214.146H285.572L282.091 214.126C281.915 214.003 281.827 213.874 281.827 213.739C281.827 213.644 281.915 213.508 282.091 213.332H289.4C289.074 212.816 288.911 212.416 288.911 212.131Z" fill="#A0A0A0"/>
</g>
<path d="M277.654 188.687C277.779 188.687 277.86 188.767 277.896 188.927C277.931 189.088 277.97 189.365 278.011 189.761C278.053 190.156 278.115 190.501 278.198 190.798C278.788 192.946 279.959 194.02 281.71 194.02L282.254 194.02C284.481 194.02 285.911 195.511 286.543 198.492C287.174 195.511 288.532 194.02 290.614 194.02L291.075 194.02C291.582 194.02 291.966 193.995 292.224 193.946C292.95 193.773 293.576 193.295 294.104 192.51C294.633 191.727 294.949 190.755 295.052 189.594C295.052 189.57 295.058 189.498 295.068 189.382C295.078 189.264 295.089 189.18 295.099 189.132C295.109 189.082 295.125 189.014 295.146 188.927C295.168 188.841 295.206 188.779 295.26 188.742C295.314 188.705 295.373 188.687 295.438 188.687C295.707 188.687 295.516 191.437 294.865 192.879C294.213 194.32 293.268 195.132 292.028 195.316C291.819 195.34 291.512 195.353 291.106 195.353L290.769 195.353C290.064 195.353 289.448 195.517 288.919 195.844C288.391 196.171 288 196.594 287.746 197.112C287.493 197.63 287.309 198.066 287.195 198.418C287.08 198.77 287.003 199.125 286.962 199.482C286.962 199.557 286.956 199.665 286.946 199.806C286.935 199.948 286.917 200.062 286.891 200.149C286.865 200.235 286.843 200.321 286.822 200.408C286.801 200.495 286.765 200.562 286.713 200.612C286.661 200.662 286.604 200.687 286.542 200.687C286.459 200.687 286.391 200.668 286.34 200.631C286.289 200.593 286.249 200.526 286.223 200.426C286.197 200.328 286.179 200.226 286.169 200.121C286.159 200.017 286.143 199.877 286.123 199.704C286.102 199.532 286.081 199.371 286.06 199.223C285.915 198.31 285.589 197.486 285.082 196.751C284.574 196.016 283.926 195.575 283.139 195.427C282.932 195.378 282.622 195.353 282.207 195.353L281.896 195.353C281.48 195.353 281.148 195.332 280.899 195.289C280.651 195.246 280.303 195.081 279.857 194.794C279.411 194.507 279.01 194.089 278.655 193.538C277.475 192.019 277.448 188.687 277.654 188.687Z" fill="#A0A0A0"/>
<defs>
<clipPath id="clip0_747_1446">
<rect width="334.125" height="77.373" fill="white" transform="translate(72.9375 103.313)"/>
</clipPath>
<clipPath id="clip1_747_1446">
<rect width="13.581" height="8.18525" fill="white" transform="matrix(1 0 0 -1 72.9425 146.093)"/>
</clipPath>
<clipPath id="clip2_747_1446">
<rect width="13.581" height="8.18525" fill="white" transform="matrix(1 0 0 -1 114.695 146.093)"/>
</clipPath>
<clipPath id="clip3_747_1446">
<rect width="13.581" height="8.18525" fill="white" transform="matrix(1 0 0 -1 142.985 146.093)"/>
</clipPath>
<clipPath id="clip4_747_1446">
<rect width="13.581" height="8.18525" fill="white" transform="matrix(1 0 0 -1 177.254 146.093)"/>
</clipPath>
<clipPath id="clip5_747_1446">
<rect width="17.8162" height="7.77802" fill="white" transform="matrix(1 0 0 -1 249.662 145.889)"/>
</clipPath>
<clipPath id="clip6_747_1446">
<rect width="13.581" height="8.18525" fill="white" transform="matrix(1 0 0 -1 267.479 146.093)"/>
</clipPath>
<clipPath id="clip7_747_1446">
<rect width="13.581" height="8.18525" fill="white" transform="matrix(1 0 0 -1 375.66 146.093)"/>
</clipPath>
<clipPath id="clip8_747_1446">
<rect width="17.8162" height="7.77802" fill="white" transform="matrix(1 0 0 -1 389.241 145.889)"/>
</clipPath>
<clipPath id="clip9_747_1446">
<rect width="13.014" height="21.321" fill="white" transform="translate(94.2496 45.9814)"/>
</clipPath>
<clipPath id="clip10_747_1446">
<rect width="12.357" height="17.244" fill="white" transform="translate(315.76 50.1211)"/>
</clipPath>
<clipPath id="clip11_747_1446">
<rect width="16.92" height="17.244" fill="white" transform="translate(350.972 49.646)"/>
</clipPath>
<clipPath id="clip12_747_1446">
<rect width="13.014" height="17.487" fill="white" transform="translate(160.24 209.688)"/>
</clipPath>
<clipPath id="clip13_747_1446">
<rect width="13.014" height="17.487" fill="white" transform="translate(279.819 209.688)"/>
</clipPath>
</defs>
</svg>
