<svg xmlns="http://www.w3.org/2000/svg" width="640" height="120" viewBox="0 0 640 120"><defs><style>.a{fill:#fff;}.b{fill:#83c167;}.c{fill:#58c4dd;}.d{fill:#fc6255;}</style></defs><rect width="640" height="120"/><path class="a" d="M171.206,69.945q.375-.024.849-.062c.317-.025.554-.046.713-.063s.246-.024.262-.024c.2,0,.3.066.3.2q0,.175-1.838,7.562T169.63,85.07a2.145,2.145,0,0,0-.025.375q0,1.05.7,1.05a1.067,1.067,0,0,0,.5-.225,5.671,5.671,0,0,0,1.026-2.4c.1-.333.183-.508.25-.525a.745.745,0,0,1,.25-.025h.1q.476,0,.475.2a2.172,2.172,0,0,1-.074.4,6.521,6.521,0,0,1-1.351,2.9,2.451,2.451,0,0,1-.8.525,2.618,2.618,0,0,1-.6.05,2.258,2.258,0,0,1-2.2-1.224,1.891,1.891,0,0,0-.125-.3c-.016-.016-.049-.008-.1.025-.033.034-.067.067-.1.1a5.111,5.111,0,0,1-2.375,1.375,4.736,4.736,0,0,1-.625.025,3.316,3.316,0,0,1-2.724-1.375,4.863,4.863,0,0,1-.75-2.8,7.643,7.643,0,0,1,1.7-4.6,6.544,6.544,0,0,1,3.45-2.375,3.729,3.729,0,0,1,1.025-.15,2.393,2.393,0,0,1,2.1,1.05c.083.1.125.134.125.1q.026-.1.688-2.737t.687-2.763a.454.454,0,0,0-.149-.4,3.79,3.79,0,0,0-1-.125h-.526a.688.688,0,0,1-.162-.2,2.417,2.417,0,0,1,.063-.474q.124-.476.324-.476c.017,0,.1-.008.263-.024s.383-.034.675-.051ZM169.055,79q-.551-1.974-1.875-1.975a2.311,2.311,0,0,0-1.762.85,5.922,5.922,0,0,0-1.163,1.95,19.989,19.989,0,0,0-1.025,4.1c0,.049,0,.141-.012.274s-.012.234-.012.3a2.461,2.461,0,0,0,.387,1.45,1.3,1.3,0,0,0,1.137.55q1.326,0,2.775-1.8l.2-.274q.224-.9.674-2.713T169.055,79Z"/><path class="a" d="M173.905,77.52c-.117-.116-.175-.2-.175-.25a2.006,2.006,0,0,1,.087-.412,1.606,1.606,0,0,1,.113-.338.243.243,0,0,1,.237-.137q.188-.012,1.263-.013h1.325l.475-2q.525-2.025.6-2.175a1.135,1.135,0,0,1,1.15-.7.969.969,0,0,1,.562.225.653.653,0,0,1,.238.525,15.808,15.808,0,0,1-.475,2.125c-.067.284-.146.6-.238.937s-.162.6-.212.763l-.05.25a5.843,5.843,0,0,0,1.25.05h1.275c.116.117.175.209.175.275a1.183,1.183,0,0,1-.325.875h-2.675l-.9,3.625q-.925,3.726-.95,3.925a2.05,2.05,0,0,0-.025.375q0,1.05.675,1.05a1.536,1.536,0,0,0,.3-.025,3.6,3.6,0,0,0,2.275-2,5.409,5.409,0,0,0,.45-.924.3.3,0,0,1,.125-.188,1.092,1.092,0,0,1,.375-.038q.5,0,.5.2a1.41,1.41,0,0,1-.1.3,5.879,5.879,0,0,1-.888,1.612,6.551,6.551,0,0,1-1.237,1.288,3.221,3.221,0,0,1-1.975.7,2.554,2.554,0,0,1-1.538-.463,2.267,2.267,0,0,1-.862-1.213,3.1,3.1,0,0,1-.05-.675v-.45l.875-3.5q.875-3.525.9-3.55a6.174,6.174,0,0,0-1.275-.05Z"/><rect class="a" x="153.268" y="60.108" width="36" height="1.5" rx="0.75"/><path class="a" d="M175.681,32.958c.25-.017.533-.037.849-.063s.554-.046.713-.062.246-.025.262-.025c.2,0,.3.067.3.2q0,.175-1.838,7.562t-1.863,7.513a2.166,2.166,0,0,0-.024.375c0,.7.232,1.05.7,1.05a1.067,1.067,0,0,0,.5-.225,5.671,5.671,0,0,0,1.026-2.4c.1-.333.183-.508.25-.525a.745.745,0,0,1,.25-.025h.1q.476,0,.475.2a2.166,2.166,0,0,1-.074.4,6.532,6.532,0,0,1-1.35,2.9,2.482,2.482,0,0,1-.8.525,2.677,2.677,0,0,1-.6.05,2.257,2.257,0,0,1-2.2-1.225,1.9,1.9,0,0,0-.125-.3c-.016-.016-.049-.008-.1.025-.033.033-.067.066-.1.1a5.111,5.111,0,0,1-2.375,1.375,4.927,4.927,0,0,1-.625.025,3.316,3.316,0,0,1-2.724-1.375,4.863,4.863,0,0,1-.75-2.8,7.641,7.641,0,0,1,1.7-4.6,6.546,6.546,0,0,1,3.451-2.375,3.717,3.717,0,0,1,1.024-.15,2.4,2.4,0,0,1,2.1,1.05c.083.1.125.134.125.1q.024-.1.687-2.738t.688-2.762a.453.453,0,0,0-.15-.4,3.783,3.783,0,0,0-1-.125h-.526a.7.7,0,0,1-.162-.2,2.431,2.431,0,0,1,.063-.475c.083-.316.191-.475.324-.475.017,0,.1-.008.263-.025s.383-.033.675-.05Zm-2.151,9.05q-.549-1.976-1.875-1.975a2.307,2.307,0,0,0-1.762.85,5.912,5.912,0,0,0-1.163,1.95,19.914,19.914,0,0,0-1.024,4.1c0,.05,0,.142-.013.275s-.012.233-.012.3a2.468,2.468,0,0,0,.387,1.45,1.3,1.3,0,0,0,1.138.55q1.325,0,2.774-1.8l.2-.275q.225-.9.674-2.713T173.53,42.008Z"/><path class="a" d="M209.3,81.935q0,.075-.15.225h-.7A21.6,21.6,0,0,1,204,76.847a26.877,26.877,0,0,1-2.925-6.886,38.268,38.268,0,0,1-1.3-10.276,38.708,38.708,0,0,1,1.3-10.3,23.891,23.891,0,0,1,7.375-12.2h.7q.15.15.15.225c0,.067-.109.217-.325.45q-.75.825-1.55,1.825-4.324,5.851-5.15,15.125a48.223,48.223,0,0,0-.2,4.85,48.5,48.5,0,0,0,.2,4.875q.95,10.751,6.7,16.95C209.189,81.719,209.3,81.869,209.3,81.935Z"/><path class="b" d="M211.648,58.985a.413.413,0,0,1-.15-.274,4.75,4.75,0,0,1,.775-1.726,4.29,4.29,0,0,1,2.95-2.05,4.083,4.083,0,0,1,.525-.049,3.026,3.026,0,0,1,1.612.45,2.689,2.689,0,0,1,1.063,1.125c.216-.283.35-.459.4-.526a2.768,2.768,0,0,1,2.125-1.049,2.362,2.362,0,0,1,1.662.586,1.885,1.885,0,0,1,.638,1.438,1.963,1.963,0,0,1-.438,1.3,1.438,1.438,0,0,1-1.162.524,1.1,1.1,0,0,1-.775-.274.94.94,0,0,1-.3-.726,1.59,1.59,0,0,1,1.25-1.575,1.06,1.06,0,0,0-.275-.175,1.439,1.439,0,0,0-.725-.149,1.608,1.608,0,0,0-.475.05,2.613,2.613,0,0,0-1.4,1.649q-.075.2-.725,2.788t-.7,2.912a3.816,3.816,0,0,0-.075.75,1.279,1.279,0,0,0,.35.95,1.246,1.246,0,0,0,.925.35,2.579,2.579,0,0,0,1.9-.887,4.621,4.621,0,0,0,1.15-1.963c.05-.166.1-.262.15-.287a1.208,1.208,0,0,1,.4-.038c.316,0,.475.068.475.2,0,.017-.017.109-.05.276a5.442,5.442,0,0,1-1.75,2.7,3.945,3.945,0,0,1-2.475.926,2.882,2.882,0,0,1-2.65-1.575,3.5,3.5,0,0,1-1.85,1.5,3.236,3.236,0,0,1-.65.049,2.178,2.178,0,0,1-2.05-1.025,1.931,1.931,0,0,1-.25-1,1.888,1.888,0,0,1,.45-1.274,1.444,1.444,0,0,1,1.15-.526.94.94,0,0,1,1.075,1.05,1.414,1.414,0,0,1-.875,1.351l-.125.062c-.05.024-.092.046-.125.063a.2.2,0,0,1-.075.024l-.075.025q0,.075.375.225a1.659,1.659,0,0,0,.65.125,1.846,1.846,0,0,0,1.55-1.125,18.938,18.938,0,0,0,.975-3.25q.15-.574.325-1.274t.262-1.076c.058-.25.1-.4.113-.45a6.127,6.127,0,0,0,.125-.974,1.346,1.346,0,0,0-.325-.951,1.169,1.169,0,0,0-.9-.349,2.61,2.61,0,0,0-1.95.862,4.734,4.734,0,0,0-1.15,1.987c-.034.151-.071.238-.113.263a1.235,1.235,0,0,1-.412.037Z"/><path class="a" d="M232.823,71.961c0,.149-.151.224-.45.224h-.326l-.7-.6q-4.5-4.1-4.5-11.9a20.139,20.139,0,0,1,.725-5.575,13.486,13.486,0,0,1,3.775-6.325c.116-.1.25-.212.4-.337s.25-.213.3-.263h.326a.592.592,0,0,1,.375.076.216.216,0,0,1,.075.149q0,.1-.276.375-3.874,4.1-3.875,11.9t3.875,11.9Q232.823,71.859,232.823,71.961Z"/><path class="a" d="M234.872,56.31c-.117-.116-.175-.2-.175-.25a1.963,1.963,0,0,1,.088-.412,1.641,1.641,0,0,1,.112-.338.245.245,0,0,1,.238-.137q.188-.012,1.262-.013h1.325l.475-2q.525-2.025.6-2.175a1.135,1.135,0,0,1,1.15-.7.973.973,0,0,1,.563.226.652.652,0,0,1,.237.524,15.808,15.808,0,0,1-.475,2.125c-.066.284-.146.6-.237.937s-.163.6-.213.763l-.05.25a5.843,5.843,0,0,0,1.25.05H242.3c.117.117.175.209.175.275a1.178,1.178,0,0,1-.325.875h-2.675l-.9,3.625q-.924,3.726-.95,3.925a2.05,2.05,0,0,0-.025.375q0,1.05.675,1.05a1.611,1.611,0,0,0,.3-.024,3.6,3.6,0,0,0,2.275-2,5.311,5.311,0,0,0,.45-.925.308.308,0,0,1,.125-.188,1.092,1.092,0,0,1,.375-.038c.333,0,.5.068.5.2a1.349,1.349,0,0,1-.1.3,5.848,5.848,0,0,1-.887,1.612,6.59,6.59,0,0,1-1.238,1.289,3.224,3.224,0,0,1-1.975.7,2.548,2.548,0,0,1-1.537-.463,2.269,2.269,0,0,1-.863-1.213,3.155,3.155,0,0,1-.05-.675v-.45l.875-3.5q.875-3.525.9-3.55a6.174,6.174,0,0,0-1.275-.05Z"/><path class="a" d="M244.747,47.211l.1-.026h.55l.7.6q4.5,4.1,4.5,11.9a19.731,19.731,0,0,1-.725,5.55,13.492,13.492,0,0,1-3.775,6.351c-.117.1-.25.212-.4.337s-.25.213-.3.262h-.3a.954.954,0,0,1-.388-.049c-.058-.035-.087-.118-.087-.25.017-.017.108-.125.275-.326q3.875-4.025,3.875-11.875T244.9,47.81c-.167-.2-.258-.308-.275-.325A.293.293,0,0,1,244.747,47.211Z"/><path class="a" d="M254.575,51.357a.812.812,0,0,1-.641-.262.926.926,0,0,1-.234-.641,2.389,2.389,0,0,1,.8-1.8,2.668,2.668,0,0,1,1.9-.751,3.161,3.161,0,0,1,2.077.678,2.853,2.853,0,0,1,1.013,1.77,4.521,4.521,0,0,1,.029.482,2.761,2.761,0,0,1-.51,1.589,9.7,9.7,0,0,1-1.647,1.675q-.525.453-1.458,1.341l-.859.817,1.107.014a17.406,17.406,0,0,0,2.434-.073c.039-.01.087-.111.146-.306a9.324,9.324,0,0,0,.2-.991v-.044h.583V54.9l-.408,2.667v.044H253.7v-.277a1,1,0,0,1,.029-.335q.015-.015,1.225-1.385,1.588-1.762,2.04-2.332a4.225,4.225,0,0,0,.977-2.434,2.551,2.551,0,0,0-.5-1.61,1.675,1.675,0,0,0-1.406-.648,1.6,1.6,0,0,0-1.371.757c-.019.04-.048.092-.087.161a.313.313,0,0,0-.043.087c0,.009.023.014.072.014a.744.744,0,0,1,.591.263.912.912,0,0,1,.225.612.87.87,0,0,1-.24.619A.831.831,0,0,1,254.575,51.357Z"/><path class="a" d="M267.909,59.685a.547.547,0,0,1,.35-.5h7.475v-3.75l.025-3.75c.167-.216.325-.325.475-.325a.546.546,0,0,1,.5.375v7.45h7.45a.521.521,0,0,1,0,1h-7.45v7.451a.533.533,0,0,1-1,0V60.185h-7.475A.544.544,0,0,1,267.909,59.685Z"/><path class="c" d="M303.759,55.16a.968.968,0,0,1,.6.187.607.607,0,0,1,.25.513q0,.325-1.225,5.25t-1.4,5.4a6.613,6.613,0,0,1-1.287,2.262,6.7,6.7,0,0,1-2.063,1.637,5.841,5.841,0,0,1-2.525.65,2.688,2.688,0,0,1-2.574-1.2,1.7,1.7,0,0,1-.25-1,1.793,1.793,0,0,1,.474-1.325,1.63,1.63,0,0,1,1.1-.475q1.1,0,1.1,1.05a1.415,1.415,0,0,1-.875,1.351c-.033.015-.075.037-.125.062l-.125.063a.214.214,0,0,1-.075.024l-.074.026c.049.1.225.208.524.325a2.29,2.29,0,0,0,.8.149h.2a3.143,3.143,0,0,0,.65-.05,3.8,3.8,0,0,0,1.8-1.275,6.926,6.926,0,0,0,1.3-2.4,5.42,5.42,0,0,0,.275-.976c0-.016-.016-.012-.049.013l-.15.112a3.4,3.4,0,0,1-2.051.676,3.476,3.476,0,0,1-2.1-.6,2.781,2.781,0,0,1-1.074-1.724,6.856,6.856,0,0,1-.025-.776,6.582,6.582,0,0,1,.049-.925,22.989,22.989,0,0,1,1.15-3.674,7.18,7.18,0,0,0,.551-2.05,1.331,1.331,0,0,0-.063-.489c-.042-.09-.138-.136-.287-.136h-.125a1.559,1.559,0,0,0-1.1.524,5.255,5.255,0,0,0-1.225,2.4.271.271,0,0,1-.025.086.283.283,0,0,1-.037.076l-.038.038a.124.124,0,0,1-.087.024h-.663c-.1-.1-.15-.175-.15-.224a1.83,1.83,0,0,1,.076-.351,5.978,5.978,0,0,1,1.574-2.725,2.578,2.578,0,0,1,1.776-.8,2.374,2.374,0,0,1,1.674.575,2.062,2.062,0,0,1,.625,1.6,3.266,3.266,0,0,1-.075.526,5.662,5.662,0,0,1-.375,1.074,23.814,23.814,0,0,0-1.224,4.075,4.862,4.862,0,0,0-.026.575,2.841,2.841,0,0,0,.3,1.451,1.174,1.174,0,0,0,1.1.5,2.131,2.131,0,0,0,1.087-.3,3.366,3.366,0,0,0,.775-.588c.175-.192.395-.454.663-.787,0-.017.041-.188.125-.513s.2-.812.362-1.463.312-1.266.462-1.849q.951-3.75,1.051-3.925A1.109,1.109,0,0,1,303.759,55.16Z"/><path class="a" d="M312.784,71.961q0,.224-.45.224h-.325q-.176-.149-.7-.6-4.5-4.1-4.5-11.9a20.139,20.139,0,0,1,.725-5.575,13.486,13.486,0,0,1,3.775-6.325c.116-.1.25-.212.4-.337s.25-.213.3-.263h.325a.592.592,0,0,1,.375.076.212.212,0,0,1,.075.149q0,.1-.275.375-3.876,4.1-3.875,11.9t3.875,11.9Q312.784,71.859,312.784,71.961Z"/><path class="a" d="M314.833,56.31c-.116-.116-.174-.2-.174-.25a2.006,2.006,0,0,1,.087-.412,1.716,1.716,0,0,1,.112-.338.246.246,0,0,1,.238-.137q.188-.012,1.262-.013h1.326l.475-2q.525-2.025.6-2.175a1.134,1.134,0,0,1,1.15-.7.973.973,0,0,1,.562.226.652.652,0,0,1,.237.524,15.632,15.632,0,0,1-.475,2.125c-.066.284-.146.6-.237.937s-.163.6-.212.763l-.051.25a5.851,5.851,0,0,0,1.25.05h1.276c.116.117.175.209.175.275a1.179,1.179,0,0,1-.326.875h-2.674l-.9,3.625q-.926,3.726-.951,3.925a2.166,2.166,0,0,0-.024.375q0,1.05.674,1.05a1.63,1.63,0,0,0,.3-.024,3.6,3.6,0,0,0,2.275-2,5.458,5.458,0,0,0,.45-.925.3.3,0,0,1,.125-.188,1.092,1.092,0,0,1,.375-.038c.333,0,.5.068.5.2a1.379,1.379,0,0,1-.1.3,5.848,5.848,0,0,1-.887,1.612,6.616,6.616,0,0,1-1.237,1.289,3.226,3.226,0,0,1-1.975.7,2.549,2.549,0,0,1-1.538-.463,2.267,2.267,0,0,1-.862-1.213,3.073,3.073,0,0,1-.051-.675v-.45l.875-3.5q.876-3.525.9-3.55a6.189,6.189,0,0,0-1.276-.05Z"/><path class="a" d="M324.708,47.211l.1-.026h.549l.7.6q4.5,4.1,4.5,11.9a19.73,19.73,0,0,1-.726,5.55,13.49,13.49,0,0,1-3.774,6.351c-.118.1-.25.212-.4.337s-.25.213-.3.262h-.3a.947.947,0,0,1-.388-.049c-.059-.035-.088-.118-.088-.25.017-.017.108-.125.275-.326q3.874-4.025,3.875-11.875T324.858,47.81c-.167-.2-.258-.308-.275-.325A.293.293,0,0,1,324.708,47.211Z"/><path class="a" d="M334.537,51.357a.812.812,0,0,1-.641-.262.926.926,0,0,1-.234-.641,2.389,2.389,0,0,1,.8-1.8,2.668,2.668,0,0,1,1.9-.751,3.161,3.161,0,0,1,2.078.678,2.847,2.847,0,0,1,1.012,1.77,4.289,4.289,0,0,1,.03.482,2.761,2.761,0,0,1-.51,1.589A9.718,9.718,0,0,1,337.32,54.1q-.523.453-1.457,1.341l-.86.817,1.108.014a17.406,17.406,0,0,0,2.434-.073c.039-.01.088-.111.145-.306a8.941,8.941,0,0,0,.2-.991v-.044h.583V54.9l-.409,2.667v.044h-5.407v-.277a1,1,0,0,1,.029-.335q.015-.015,1.225-1.385,1.589-1.762,2.04-2.332a4.225,4.225,0,0,0,.977-2.434,2.545,2.545,0,0,0-.5-1.61,1.676,1.676,0,0,0-1.407-.648,1.6,1.6,0,0,0-1.37.757c-.019.04-.049.092-.087.161a.333.333,0,0,0-.044.087c0,.009.025.014.073.014a.744.744,0,0,1,.591.263.912.912,0,0,1,.225.612.87.87,0,0,1-.24.619A.831.831,0,0,1,334.537,51.357Z"/><path class="a" d="M341.1,37.485c0-.133.033-.216.1-.25a1.152,1.152,0,0,1,.426-.05h.324A21.642,21.642,0,0,1,346.4,42.5a26.939,26.939,0,0,1,2.924,6.888,38.311,38.311,0,0,1,1.3,10.3,38.583,38.583,0,0,1-1.3,10.276,23.883,23.883,0,0,1-7.375,12.2h-.324a1.126,1.126,0,0,1-.437-.05c-.059-.033-.088-.116-.088-.25.016-.016.125-.141.325-.375q5.75-6.2,6.7-16.95.2-1.924.2-4.875,0-2.923-.2-4.85-.827-9.275-5.15-15.125-.8-1.025-1.55-1.825C341.221,37.627,341.112,37.5,341.1,37.485Z"/><path class="a" d="M362.8,57.261a.543.543,0,0,1,.35-.5H379.07a.546.546,0,0,1,.375.5.565.565,0,0,1-.349.474l-7.95.026H363.2A.5.5,0,0,1,362.8,57.261Zm0,4.849a.5.5,0,0,1,.4-.5h15.9a.915.915,0,0,0,.112.088,1.041,1.041,0,0,1,.125.1.412.412,0,0,1,.075.125.469.469,0,0,1,.037.187.546.546,0,0,1-.375.5H363.146A.543.543,0,0,1,362.8,62.11Z"/><path class="a" d="M451.121,81.935c0,.05-.051.125-.15.225h-.7a21.605,21.605,0,0,1-4.451-5.313,26.91,26.91,0,0,1-2.924-6.886,38.268,38.268,0,0,1-1.3-10.276,38.708,38.708,0,0,1,1.3-10.3,23.891,23.891,0,0,1,7.375-12.2h.7c.1.1.15.175.15.225,0,.067-.109.217-.325.45q-.75.825-1.55,1.825-4.326,5.851-5.15,15.125a48.223,48.223,0,0,0-.2,4.85,48.5,48.5,0,0,0,.2,4.875q.949,10.751,6.7,16.95C451.012,81.719,451.121,81.869,451.121,81.935Z"/><path class="d" d="M454.7,60.586a1.372,1.372,0,0,1,1.013.412,1.406,1.406,0,0,1,.412,1.037,1.288,1.288,0,0,1-.425.976,1.353,1.353,0,0,1-.95.4h-.175l.076.125a3.23,3.23,0,0,0,1.15,1.325,3.166,3.166,0,0,0,1.824.526,2.658,2.658,0,0,0,2.551-1.5,7.639,7.639,0,0,0,.475-3.2,6.218,6.218,0,0,0-.675-3.474,1.967,1.967,0,0,0-1.6-.825,3.217,3.217,0,0,0-2.949,1.7.491.491,0,0,1-.188.212,1.1,1.1,0,0,1-.363.038c-.283,0-.441-.051-.474-.151q-.051-.1-.05-4.375,0-.75-.013-1.775t-.013-1.3q0-1.4.151-1.4a.145.145,0,0,1,.1-.051l.451.15a8.863,8.863,0,0,0,3.325.651,8.516,8.516,0,0,0,3.4-.7.782.782,0,0,1,.325-.1q.2,0,.2.45v.325a6.39,6.39,0,0,1-5.125,2.425,6.076,6.076,0,0,1-1.4-.149l-.25-.051v4.3a4.286,4.286,0,0,1,3.95-1.026,4.733,4.733,0,0,1,2.738,1.9,5.74,5.74,0,0,1,1.062,3.449,5.47,5.47,0,0,1-1.587,3.926,5.217,5.217,0,0,1-3.913,1.649,4.166,4.166,0,0,1-2.675-.875,2.782,2.782,0,0,1-.825-.825,4.423,4.423,0,0,1-.949-2.225c0-.049,0-.129-.013-.237s-.012-.187-.012-.237a1.484,1.484,0,0,1,.4-1.1A1.386,1.386,0,0,1,454.7,60.586Z"/><path class="d" d="M466.124,51.357a.816.816,0,0,1-.642-.262.93.93,0,0,1-.233-.641,2.389,2.389,0,0,1,.795-1.8,2.668,2.668,0,0,1,1.9-.751,3.157,3.157,0,0,1,2.077.678,2.844,2.844,0,0,1,1.013,1.77,4.273,4.273,0,0,1,.029.482,2.76,2.76,0,0,1-.509,1.589,9.718,9.718,0,0,1-1.648,1.675q-.523.453-1.457,1.341l-.86.817,1.108.014a17.406,17.406,0,0,0,2.434-.073c.039-.01.088-.111.145-.306a8.8,8.8,0,0,0,.2-.991v-.044h.583V54.9l-.408,2.667v.044h-5.407v-.277a1,1,0,0,1,.029-.335q.015-.015,1.225-1.385,1.589-1.762,2.04-2.332a4.225,4.225,0,0,0,.977-2.434,2.545,2.545,0,0,0-.5-1.61,1.676,1.676,0,0,0-1.407-.648,1.6,1.6,0,0,0-1.37.757c-.019.04-.049.092-.087.161a.333.333,0,0,0-.044.087c0,.009.025.014.073.014a.74.74,0,0,1,.59.263.907.907,0,0,1,.226.612.87.87,0,0,1-.24.619A.831.831,0,0,1,466.124,51.357Z"/><path class="a" d="M472.683,37.485c0-.133.033-.216.1-.25a1.152,1.152,0,0,1,.426-.05h.324a21.639,21.639,0,0,1,4.45,5.313,26.906,26.906,0,0,1,2.925,6.888,38.352,38.352,0,0,1,1.3,10.3,38.623,38.623,0,0,1-1.3,10.276,23.883,23.883,0,0,1-7.375,12.2h-.324a1.126,1.126,0,0,1-.437-.05c-.059-.033-.088-.116-.088-.25.016-.016.125-.141.325-.375q5.75-6.2,6.7-16.95.2-1.924.2-4.875,0-2.923-.2-4.85-.827-9.275-5.15-15.125-.8-1.025-1.55-1.825C472.808,37.627,472.7,37.5,472.683,37.485Z"/><path class="a" d="M412.23,68.228c.25-.015.534-.037.85-.062s.554-.045.713-.063.245-.023.262-.023c.2,0,.3.066.3.2q0,.175-1.837,7.563t-1.863,7.511a2.145,2.145,0,0,0-.025.375q0,1.052.7,1.051a1.086,1.086,0,0,0,.5-.225,5.673,5.673,0,0,0,1.025-2.4c.1-.334.183-.508.25-.525a.744.744,0,0,1,.25-.026h.1c.316,0,.475.069.475.2a2.117,2.117,0,0,1-.075.4,6.523,6.523,0,0,1-1.35,2.9,2.474,2.474,0,0,1-.8.526,2.693,2.693,0,0,1-.6.05,2.256,2.256,0,0,1-2.2-1.224,2.035,2.035,0,0,0-.125-.3c-.016-.016-.05-.008-.1.025l-.1.1a5.111,5.111,0,0,1-2.375,1.375,4.95,4.95,0,0,1-.625.025,3.319,3.319,0,0,1-2.725-1.375,4.866,4.866,0,0,1-.75-2.8,7.647,7.647,0,0,1,1.7-4.6,6.538,6.538,0,0,1,3.45-2.375,3.718,3.718,0,0,1,1.025-.15,2.393,2.393,0,0,1,2.1,1.05c.083.1.125.133.125.1q.024-.1.687-2.738t.688-2.762a.45.45,0,0,0-.15-.4,3.734,3.734,0,0,0-1-.125h-.525a.67.67,0,0,1-.162-.2,2.458,2.458,0,0,1,.062-.474c.083-.317.192-.477.325-.477.016,0,.1-.008.262-.023s.384-.033.675-.051S411.946,68.246,412.23,68.228Zm-2.15,9.051q-.55-1.974-1.875-1.975a2.313,2.313,0,0,0-1.763.85A5.932,5.932,0,0,0,405.28,78.1a20.015,20.015,0,0,0-1.025,4.1c0,.049,0,.14-.013.273s-.012.235-.012.3a2.463,2.463,0,0,0,.387,1.449,1.3,1.3,0,0,0,1.138.551q1.326,0,2.775-1.8l.2-.273c.15-.6.375-1.5.675-2.713S409.93,77.879,410.08,77.279Z"/><path class="a" d="M414.93,75.8c-.118-.117-.175-.2-.175-.25a1.925,1.925,0,0,1,.087-.412,1.687,1.687,0,0,1,.112-.338.247.247,0,0,1,.238-.138q.188-.012,1.262-.012h1.325l.476-2q.524-2.025.6-2.176a1.138,1.138,0,0,1,1.151-.7.979.979,0,0,1,.562.225.652.652,0,0,1,.238.525,15.79,15.79,0,0,1-.476,2.125q-.1.424-.237.938c-.092.341-.162.595-.212.761l-.051.25a5.712,5.712,0,0,0,1.25.051h1.275c.117.117.175.209.175.275a1.178,1.178,0,0,1-.325.875h-2.675l-.9,3.625q-.926,3.725-.95,3.924a2.032,2.032,0,0,0-.026.375c0,.7.226,1.051.675,1.051a1.54,1.54,0,0,0,.3-.025,3.6,3.6,0,0,0,2.274-2,5.265,5.265,0,0,0,.45-.924.306.306,0,0,1,.125-.188,1.083,1.083,0,0,1,.375-.039c.334,0,.5.069.5.2a1.378,1.378,0,0,1-.1.3,5.874,5.874,0,0,1-.888,1.614A6.629,6.629,0,0,1,420.13,85a3.223,3.223,0,0,1-1.976.7,2.544,2.544,0,0,1-1.537-.463,2.262,2.262,0,0,1-.862-1.213,3.077,3.077,0,0,1-.051-.676V82.9l.875-3.5q.876-3.525.9-3.551A6.227,6.227,0,0,0,416.2,75.8Z"/><rect class="a" x="394.293" y="58.392" width="36" height="1.5" rx="0.75"/><path class="a" d="M416.705,31.242c.25-.017.533-.037.85-.063s.554-.045.713-.062.246-.024.262-.024c.2,0,.3.066.3.2q0,.175-1.838,7.562t-1.862,7.513a2.05,2.05,0,0,0-.025.375q0,1.05.7,1.05a1.075,1.075,0,0,0,.5-.225,5.673,5.673,0,0,0,1.025-2.4c.1-.333.184-.508.25-.525a.745.745,0,0,1,.25-.025h.1c.316,0,.475.067.475.2a2.117,2.117,0,0,1-.075.4,6.511,6.511,0,0,1-1.35,2.9,2.461,2.461,0,0,1-.8.525,2.622,2.622,0,0,1-.6.05,2.257,2.257,0,0,1-2.2-1.224,1.891,1.891,0,0,0-.125-.3c-.017-.016-.05-.008-.1.025-.034.033-.067.067-.1.1a5.111,5.111,0,0,1-2.375,1.375,4.95,4.95,0,0,1-.625.025,3.318,3.318,0,0,1-2.725-1.375,4.863,4.863,0,0,1-.75-2.8,7.639,7.639,0,0,1,1.7-4.6,6.544,6.544,0,0,1,3.45-2.375,3.724,3.724,0,0,1,1.025-.15,2.394,2.394,0,0,1,2.1,1.05c.083.1.125.134.125.1q.024-.1.688-2.738t.687-2.762a.452.452,0,0,0-.15-.4,3.783,3.783,0,0,0-1-.125h-.525a.664.664,0,0,1-.162-.2,2.458,2.458,0,0,1,.062-.474q.125-.476.325-.476c.017,0,.1-.008.263-.024s.383-.034.675-.051Zm-2.15,9.05q-.55-1.975-1.875-1.975a2.307,2.307,0,0,0-1.762.85,5.9,5.9,0,0,0-1.163,1.95,19.925,19.925,0,0,0-1.025,4.1c0,.049,0,.141-.012.274s-.013.233-.013.3a2.461,2.461,0,0,0,.388,1.45,1.3,1.3,0,0,0,1.137.55q1.324,0,2.775-1.8l.2-.274q.225-.9.675-2.713T414.555,40.292Z"/></svg>