<svg xmlns="http://www.w3.org/2000/svg" width="640" height="120" viewBox="0 0 640 120"><defs><style>.a{fill:#58c4dd;}.b{fill:#83c167;}.c{fill:#fff;}</style></defs><rect width="640" height="120"/><path class="a" d="M379.123,75.512a.971.971,0,0,1,.6.188.606.606,0,0,1,.25.512q0,.325-1.225,5.25t-1.4,5.4a6.882,6.882,0,0,1-3.35,3.9,5.846,5.846,0,0,1-2.525.651,2.691,2.691,0,0,1-2.575-1.2,1.7,1.7,0,0,1-.25-1,1.8,1.8,0,0,1,.475-1.325,1.629,1.629,0,0,1,1.1-.474q1.1,0,1.1,1.049a1.414,1.414,0,0,1-.875,1.351l-.125.062c-.05.025-.092.045-.125.063a.2.2,0,0,1-.075.024l-.075.026a1.039,1.039,0,0,0,.525.325,2.263,2.263,0,0,0,.8.149h.2a3.236,3.236,0,0,0,.65-.049,3.814,3.814,0,0,0,1.8-1.276,6.927,6.927,0,0,0,1.3-2.4,5.516,5.516,0,0,0,.275-.976c0-.015-.017-.012-.05.013l-.15.112a3.4,3.4,0,0,1-2.05.676,3.474,3.474,0,0,1-2.1-.6,2.787,2.787,0,0,1-1.075-1.724,7.105,7.105,0,0,1-.025-.776,6.379,6.379,0,0,1,.05-.924,22.853,22.853,0,0,1,1.15-3.675,7.168,7.168,0,0,0,.55-2.05,1.33,1.33,0,0,0-.062-.488c-.042-.091-.138-.137-.288-.137h-.125a1.555,1.555,0,0,0-1.1.524,5.241,5.241,0,0,0-1.225,2.4.275.275,0,0,1-.025.087.237.237,0,0,1-.038.075l-.037.038a.122.122,0,0,1-.088.024h-.662c-.1-.1-.15-.174-.15-.224a1.88,1.88,0,0,1,.075-.351,5.961,5.961,0,0,1,1.575-2.724,2.573,2.573,0,0,1,1.775-.8,2.375,2.375,0,0,1,1.675.575,2.066,2.066,0,0,1,.625,1.6,3.4,3.4,0,0,1-.075.525,5.637,5.637,0,0,1-.375,1.074,23.841,23.841,0,0,0-1.225,4.075,4.925,4.925,0,0,0-.025.576,2.851,2.851,0,0,0,.3,1.45,1.175,1.175,0,0,0,1.1.5,2.126,2.126,0,0,0,1.087-.3,3.352,3.352,0,0,0,.776-.588q.262-.286.662-.787,0-.025.125-.513t.362-1.463q.237-.974.463-1.849.95-3.75,1.05-3.925A1.111,1.111,0,0,1,379.123,75.512Z"/><path class="b" d="M269.528,69.087q.375-.024.849-.062t.713-.063c.159-.016.246-.024.263-.024.2,0,.3.066.3.2q0,.175-1.838,7.563t-1.862,7.512a2.05,2.05,0,0,0-.025.375c0,.7.233,1.05.7,1.05a1.064,1.064,0,0,0,.5-.224,5.657,5.657,0,0,0,1.026-2.4c.1-.333.183-.508.25-.524a.709.709,0,0,1,.25-.026h.1c.317,0,.476.068.476.2a2.111,2.111,0,0,1-.075.4,6.522,6.522,0,0,1-1.35,2.9,2.484,2.484,0,0,1-.8.526,2.677,2.677,0,0,1-.6.05,2.257,2.257,0,0,1-2.2-1.225,2.111,2.111,0,0,0-.125-.3c-.017-.015-.05-.008-.1.026l-.1.1a5.1,5.1,0,0,1-2.375,1.375,4.674,4.674,0,0,1-.625.026,3.316,3.316,0,0,1-2.724-1.375,4.866,4.866,0,0,1-.75-2.8,7.641,7.641,0,0,1,1.7-4.6,6.555,6.555,0,0,1,3.45-2.375,3.754,3.754,0,0,1,1.025-.149,2.393,2.393,0,0,1,2.1,1.05c.083.1.125.133.125.1q.024-.1.687-2.737t.688-2.763a.451.451,0,0,0-.15-.4,3.7,3.7,0,0,0-1-.125H267.5a.716.716,0,0,1-.162-.2,2.607,2.607,0,0,1,.063-.475c.083-.316.191-.476.325-.476.016,0,.1-.007.262-.024s.384-.033.675-.051S269.244,69.1,269.528,69.087Zm-2.151,9.05q-.549-1.974-1.875-1.974a2.311,2.311,0,0,0-1.762.849,5.913,5.913,0,0,0-1.162,1.95,19.877,19.877,0,0,0-1.025,4.1c0,.05,0,.142-.013.274s-.012.234-.012.3a2.466,2.466,0,0,0,.387,1.45,1.3,1.3,0,0,0,1.138.55q1.324,0,2.775-1.8l.2-.274q.225-.9.675-2.713T267.377,78.137Z"/><path class="b" d="M273.027,79.337a.413.413,0,0,1-.15-.274,4.757,4.757,0,0,1,.775-1.726,4.288,4.288,0,0,1,2.95-2.049,3.946,3.946,0,0,1,.525-.05,3.032,3.032,0,0,1,1.613.45,2.693,2.693,0,0,1,1.062,1.125c.217-.283.35-.459.4-.525a2.766,2.766,0,0,1,2.125-1.05,2.363,2.363,0,0,1,1.663.587,1.88,1.88,0,0,1,.637,1.437,1.963,1.963,0,0,1-.438,1.3,1.435,1.435,0,0,1-1.162.524,1.1,1.1,0,0,1-.775-.274.94.94,0,0,1-.3-.726,1.591,1.591,0,0,1,1.25-1.575,1.092,1.092,0,0,0-.275-.175,1.437,1.437,0,0,0-.725-.149,1.643,1.643,0,0,0-.475.05,2.616,2.616,0,0,0-1.4,1.649q-.075.2-.725,2.788t-.7,2.912a3.816,3.816,0,0,0-.075.75,1.283,1.283,0,0,0,.35.951,1.251,1.251,0,0,0,.925.349,2.577,2.577,0,0,0,1.9-.887,4.617,4.617,0,0,0,1.15-1.962c.05-.166.1-.263.15-.288a1.208,1.208,0,0,1,.4-.038c.317,0,.475.068.475.2,0,.016-.017.108-.05.275a5.431,5.431,0,0,1-1.75,2.7,3.941,3.941,0,0,1-2.475.926,2.88,2.88,0,0,1-2.65-1.575,3.5,3.5,0,0,1-1.85,1.5,3.222,3.222,0,0,1-.65.05,2.179,2.179,0,0,1-2.05-1.026,1.931,1.931,0,0,1-.25-1,1.888,1.888,0,0,1,.45-1.274,1.444,1.444,0,0,1,1.15-.526.94.94,0,0,1,1.075,1.05,1.413,1.413,0,0,1-.875,1.351l-.125.062-.125.063a.2.2,0,0,1-.075.024l-.075.026c0,.049.125.125.375.224a1.662,1.662,0,0,0,.65.125,1.845,1.845,0,0,0,1.55-1.125,18.838,18.838,0,0,0,.975-3.25q.15-.575.325-1.274t.263-1.075c.058-.25.095-.4.112-.451a6.009,6.009,0,0,0,.125-.974,1.337,1.337,0,0,0-.325-.95,1.165,1.165,0,0,0-.9-.35,2.61,2.61,0,0,0-1.95.862,4.748,4.748,0,0,0-1.15,1.988c-.033.15-.071.237-.112.262a1.218,1.218,0,0,1-.413.037Z"/><rect class="c" x="254.227" y="59.25" width="36" height="1.5" rx="0.75"/><path class="a" d="M270.478,32.1c.25-.017.533-.037.85-.062s.554-.046.713-.063.245-.024.262-.024c.2,0,.3.066.3.2q0,.176-1.838,7.562T268.9,47.225a2.05,2.05,0,0,0-.025.375q0,1.05.7,1.05a1.075,1.075,0,0,0,.5-.225,5.673,5.673,0,0,0,1.025-2.4q.15-.5.25-.525a.745.745,0,0,1,.25-.025h.1c.316,0,.475.067.475.2a2.117,2.117,0,0,1-.075.4,6.522,6.522,0,0,1-1.35,2.9,2.472,2.472,0,0,1-.8.525,2.634,2.634,0,0,1-.6.05,2.256,2.256,0,0,1-2.2-1.224,2.035,2.035,0,0,0-.125-.3c-.017-.016-.05-.008-.1.025l-.1.1a5.111,5.111,0,0,1-2.375,1.375,4.95,4.95,0,0,1-.625.025,3.317,3.317,0,0,1-2.725-1.375,4.863,4.863,0,0,1-.75-2.8,7.639,7.639,0,0,1,1.7-4.6A6.544,6.544,0,0,1,265.5,38.4a3.718,3.718,0,0,1,1.025-.15,2.4,2.4,0,0,1,2.1,1.05c.083.1.125.134.125.1q.024-.1.687-2.737t.688-2.763a.452.452,0,0,0-.15-.4,3.783,3.783,0,0,0-1-.125h-.525a.664.664,0,0,1-.162-.2,2.458,2.458,0,0,1,.062-.474q.124-.476.325-.476c.016,0,.1-.008.262-.024s.384-.034.675-.051Zm-2.15,9.05q-.55-1.976-1.875-1.975a2.309,2.309,0,0,0-1.763.85,5.919,5.919,0,0,0-1.162,1.95,19.925,19.925,0,0,0-1.025,4.1c0,.049,0,.141-.013.274s-.012.233-.012.3a2.468,2.468,0,0,0,.387,1.45,1.3,1.3,0,0,0,1.138.55q1.325,0,2.775-1.8l.2-.274q.225-.9.675-2.713T268.328,41.15Z"/><path class="a" d="M284.077,38.525a.968.968,0,0,1,.6.187.607.607,0,0,1,.25.513q0,.325-1.225,5.25t-1.4,5.4a6.625,6.625,0,0,1-1.287,2.263,6.718,6.718,0,0,1-2.063,1.637,5.858,5.858,0,0,1-2.525.65,2.688,2.688,0,0,1-2.574-1.2,1.7,1.7,0,0,1-.25-1,1.793,1.793,0,0,1,.474-1.325,1.625,1.625,0,0,1,1.1-.475q1.1,0,1.1,1.05a1.416,1.416,0,0,1-.875,1.351c-.033.015-.075.037-.125.062l-.125.063a.214.214,0,0,1-.075.024L275,53c.05.1.226.208.525.326a2.29,2.29,0,0,0,.8.149h.2a3.215,3.215,0,0,0,.65-.05,3.8,3.8,0,0,0,1.8-1.275,6.921,6.921,0,0,0,1.3-2.4,5.517,5.517,0,0,0,.275-.975c0-.016-.016-.012-.05.013l-.149.112a3.4,3.4,0,0,1-2.051.676,3.48,3.48,0,0,1-2.1-.6,2.789,2.789,0,0,1-1.075-1.725,7.2,7.2,0,0,1-.024-.775,6.582,6.582,0,0,1,.049-.925,22.991,22.991,0,0,1,1.15-3.675,7.176,7.176,0,0,0,.551-2.049,1.331,1.331,0,0,0-.063-.489c-.042-.09-.138-.136-.288-.136h-.125a1.553,1.553,0,0,0-1.1.524,5.246,5.246,0,0,0-1.225,2.4.268.268,0,0,1-.025.087.283.283,0,0,1-.037.076l-.038.038a.124.124,0,0,1-.087.024H273.2c-.1-.1-.15-.175-.15-.225a1.876,1.876,0,0,1,.075-.35A5.979,5.979,0,0,1,274.7,39.05a2.58,2.58,0,0,1,1.776-.8,2.374,2.374,0,0,1,1.674.576,2.061,2.061,0,0,1,.625,1.6,3.289,3.289,0,0,1-.075.526,5.662,5.662,0,0,1-.375,1.074A23.788,23.788,0,0,0,277.1,46.1a4.653,4.653,0,0,0-.026.575,2.848,2.848,0,0,0,.3,1.45,1.177,1.177,0,0,0,1.1.5,2.13,2.13,0,0,0,1.087-.3,3.394,3.394,0,0,0,.775-.588q.262-.288.662-.787,0-.026.125-.513t.363-1.463c.158-.649.312-1.267.462-1.85q.949-3.75,1.05-3.924A1.109,1.109,0,0,1,284.077,38.525Z"/><path class="c" d="M305.875,57.4a.544.544,0,0,1,.35-.5H322.15a.546.546,0,0,1,.375.5.566.566,0,0,1-.349.474l-7.951.026h-7.95A.5.5,0,0,1,305.875,57.4Zm0,4.849a.5.5,0,0,1,.4-.5h15.9a.838.838,0,0,0,.112.088,1.131,1.131,0,0,1,.125.1.412.412,0,0,1,.075.125.469.469,0,0,1,.037.187.546.546,0,0,1-.375.5H306.225A.544.544,0,0,1,305.875,62.251Z"/><path class="c" d="M332.275,59.827a.545.545,0,0,1,.351-.5H347.15a.521.521,0,0,1,0,1H332.626A.546.546,0,0,1,332.275,59.827Z"/><rect class="c" x="361.773" y="59.25" width="24" height="1.5" rx="0.75"/><path class="b" d="M368.073,42.35a.415.415,0,0,1-.15-.274,4.743,4.743,0,0,1,.775-1.726,4.288,4.288,0,0,1,2.949-2.05,4.154,4.154,0,0,1,.526-.05,3.027,3.027,0,0,1,1.612.451,2.684,2.684,0,0,1,1.063,1.125c.216-.284.35-.459.4-.526a2.769,2.769,0,0,1,2.125-1.05,2.363,2.363,0,0,1,1.662.587,1.883,1.883,0,0,1,.638,1.438,1.97,1.97,0,0,1-.438,1.3,1.439,1.439,0,0,1-1.162.524,1.1,1.1,0,0,1-.775-.274.94.94,0,0,1-.3-.726,1.589,1.589,0,0,1,1.25-1.575,1.06,1.06,0,0,0-.275-.175,1.429,1.429,0,0,0-.725-.149,1.664,1.664,0,0,0-.476.049,2.622,2.622,0,0,0-1.4,1.65q-.075.2-.726,2.788t-.7,2.912a3.741,3.741,0,0,0-.075.75,1.281,1.281,0,0,0,.35.95,1.247,1.247,0,0,0,.924.35,2.579,2.579,0,0,0,1.9-.887A4.621,4.621,0,0,0,378.2,45.8c.05-.166.1-.262.15-.287a1.2,1.2,0,0,1,.4-.038c.316,0,.475.067.475.2,0,.017-.017.109-.05.276a5.436,5.436,0,0,1-1.75,2.7,3.943,3.943,0,0,1-2.475.926A2.88,2.88,0,0,1,372.3,48a3.5,3.5,0,0,1-1.85,1.5,3.149,3.149,0,0,1-.65.05,2.179,2.179,0,0,1-2.05-1.025,1.931,1.931,0,0,1-.25-1,1.887,1.887,0,0,1,.45-1.275,1.447,1.447,0,0,1,1.15-.525.94.94,0,0,1,1.075,1.05,1.411,1.411,0,0,1-.875,1.35l-.125.063-.125.062a.188.188,0,0,1-.075.025l-.076.025q0,.075.375.225a1.667,1.667,0,0,0,.651.125,1.848,1.848,0,0,0,1.55-1.125,18.938,18.938,0,0,0,.975-3.25q.15-.574.324-1.275t.263-1.075c.059-.25.1-.4.112-.45a6,6,0,0,0,.125-.975,1.345,1.345,0,0,0-.324-.95,1.169,1.169,0,0,0-.9-.349,2.609,2.609,0,0,0-1.95.862,4.734,4.734,0,0,0-1.15,1.987c-.034.151-.071.238-.113.263a1.235,1.235,0,0,1-.412.037Z"/></svg>