<svg xmlns="http://www.w3.org/2000/svg" width="720" height="720" viewBox="0 0 720 720">
  <rect x="-80" width="880" height="720"/>
  <g>
    <g>
      <g>
        <line x1="128.571" y1="102.857" x2="128.571" y2="617.143" style="fill: none;stroke: #fff;stroke-miterlimit: 24;opacity: 0.2"/>
        <line x1="154.286" y1="102.857" x2="154.286" y2="617.143" style="fill: none;stroke: #fff;stroke-miterlimit: 24;opacity: 0.2"/>
        <line x1="180" y1="102.857" x2="180" y2="617.143" style="fill: none;stroke: #fff;stroke-miterlimit: 24;opacity: 0.2"/>
        <line x1="205.714" y1="102.857" x2="205.714" y2="617.143" style="fill: none;stroke: #fff;stroke-miterlimit: 24;opacity: 0.2"/>
        <line x1="257.143" y1="102.857" x2="257.143" y2="617.143" style="fill: none;stroke: #fff;stroke-miterlimit: 24;opacity: 0.2"/>
        <line x1="282.857" y1="102.857" x2="282.857" y2="617.143" style="fill: none;stroke: #fff;stroke-miterlimit: 24;opacity: 0.2"/>
        <line x1="308.571" y1="102.857" x2="308.571" y2="617.143" style="fill: none;stroke: #fff;stroke-miterlimit: 24;opacity: 0.2"/>
        <line x1="334.286" y1="102.857" x2="334.286" y2="617.143" style="fill: none;stroke: #fff;stroke-miterlimit: 24;opacity: 0.2"/>
        <line x1="385.714" y1="102.857" x2="385.714" y2="617.143" style="fill: none;stroke: #fff;stroke-miterlimit: 24;opacity: 0.2"/>
        <line x1="411.429" y1="102.857" x2="411.429" y2="617.143" style="fill: none;stroke: #ff0;stroke-miterlimit: 24;opacity: 0.2"/>
        <line x1="437.143" y1="102.857" x2="437.143" y2="617.143" style="fill: none;stroke: #fff;stroke-miterlimit: 24;opacity: 0.2"/>
        <line x1="462.857" y1="102.857" x2="462.857" y2="617.143" style="fill: none;stroke: #fff;stroke-miterlimit: 24;opacity: 0.2"/>
        <line x1="514.286" y1="102.857" x2="514.286" y2="617.143" style="fill: none;stroke: #fff;stroke-miterlimit: 24;opacity: 0.2"/>
        <line x1="540" y1="102.857" x2="540" y2="617.143" style="fill: none;stroke: #fff;stroke-miterlimit: 24;opacity: 0.2"/>
        <line x1="565.714" y1="102.857" x2="565.714" y2="617.143" style="fill: none;stroke: #fff;stroke-miterlimit: 24;opacity: 0.2"/>
        <line x1="591.429" y1="102.857" x2="591.429" y2="617.143" style="fill: none;stroke: #fff;stroke-miterlimit: 24;opacity: 0.2"/>
        <line x1="102.857" y1="128.571" x2="617.143" y2="128.571" style="fill: none;stroke: #fff;stroke-miterlimit: 24;opacity: 0.2"/>
        <line x1="102.857" y1="154.286" x2="617.143" y2="154.286" style="fill: none;stroke: #fff;stroke-miterlimit: 24;opacity: 0.2"/>
        <line x1="102.857" y1="180" x2="617.143" y2="180" style="fill: none;stroke: #fff;stroke-miterlimit: 24;opacity: 0.2"/>
        <line x1="102.857" y1="205.714" x2="617.143" y2="205.714" style="fill: none;stroke: #fff;stroke-miterlimit: 24;opacity: 0.2"/>
        <line x1="102.857" y1="257.143" x2="617.143" y2="257.143" style="fill: none;stroke: #fff;stroke-miterlimit: 24;opacity: 0.2"/>
        <line x1="102.857" y1="282.857" x2="617.143" y2="282.857" style="fill: none;stroke: #fff;stroke-miterlimit: 24;opacity: 0.2"/>
        <line x1="102.857" y1="308.571" x2="617.143" y2="308.571" style="fill: none;stroke: #fff;stroke-miterlimit: 24;opacity: 0.2"/>
        <line x1="102.857" y1="334.286" x2="617.143" y2="334.286" style="fill: none;stroke: #fff;stroke-miterlimit: 24;opacity: 0.2"/>
        <line x1="102.857" y1="385.714" x2="617.143" y2="385.714" style="fill: none;stroke: #fff;stroke-miterlimit: 24;opacity: 0.2"/>
        <line x1="102.857" y1="411.429" x2="617.143" y2="411.429" style="fill: none;stroke: #fff;stroke-miterlimit: 24;opacity: 0.2"/>
        <line x1="102.857" y1="437.143" x2="617.143" y2="437.143" style="fill: none;stroke: #fff;stroke-miterlimit: 24;opacity: 0.2"/>
        <line x1="102.857" y1="462.857" x2="617.143" y2="462.857" style="fill: none;stroke: #fff;stroke-miterlimit: 24;opacity: 0.2"/>
        <line x1="102.857" y1="514.286" x2="617.143" y2="514.286" style="fill: none;stroke: #fff;stroke-miterlimit: 24;opacity: 0.2"/>
        <line x1="102.857" y1="540" x2="617.143" y2="540" style="fill: none;stroke: #fff;stroke-miterlimit: 24;opacity: 0.2"/>
        <line x1="102.857" y1="565.714" x2="617.143" y2="565.714" style="fill: none;stroke: #fff;stroke-miterlimit: 24;opacity: 0.2"/>
        <line x1="102.857" y1="591.429" x2="617.143" y2="591.429" style="fill: none;stroke: #fff;stroke-miterlimit: 24;opacity: 0.2"/>
      </g>
      <g>
        <line x1="231.429" y1="102.857" x2="231.429" y2="617.143" style="fill: none;stroke: #fff;stroke-miterlimit: 24;opacity: 0.4"/>
        <line x1="488.571" y1="102.857" x2="488.571" y2="617.143" style="fill: none;stroke: #fff;stroke-miterlimit: 24;opacity: 0.4"/>
        <line x1="102.857" y1="231.429" x2="617.143" y2="231.429" style="fill: none;stroke: #fff;stroke-miterlimit: 24;opacity: 0.4"/>
        <line x1="102.857" y1="488.571" x2="617.143" y2="488.571" style="fill: none;stroke: #fff;stroke-miterlimit: 24;opacity: 0.4"/>
      </g>
      <g>
        <line x1="102.857" y1="102.857" x2="102.857" y2="617.143" style="fill: none;stroke: #fff;stroke-miterlimit: 24;opacity: 0.6000000000000001"/>
        <line x1="360" y1="102.857" x2="360" y2="617.143" style="fill: none;stroke: #fff;stroke-miterlimit: 24;opacity: 0.6000000000000001"/>
        <line x1="617.143" y1="102.857" x2="617.143" y2="617.143" style="fill: none;stroke: #fff;stroke-miterlimit: 24;opacity: 0.6000000000000001"/>
        <line x1="102.857" y1="102.857" x2="617.143" y2="102.857" style="fill: none;stroke: #fff;stroke-miterlimit: 24;opacity: 0.6000000000000001"/>
        <line x1="102.857" y1="360" x2="617.143" y2="360" style="fill: none;stroke: #fff;stroke-miterlimit: 24;opacity: 0.6000000000000001"/>
        <line x1="102.857" y1="617.143" x2="617.143" y2="617.143" style="fill: none;stroke: #fff;stroke-miterlimit: 24;opacity: 0.6000000000000001"/>
      </g>
    </g>
    <path d="M102.857,617.167h0c34.16-2.426,69-6.388,100.714-20.272C225.128,587.522,244.29,573,260,555.408c19.582-21.824,34.6-47.4,47.857-73.536,16.372-32.528,30.088-66.365,43.572-100.2,16.81-42.2,32.889-84.783,52.142-125.926,15.017-31.72,31.835-63.113,55-89.552C474.226,148.3,493.355,133.4,515,123.742c31.849-14.308,67-18.383,101.429-20.861" style="fill: none;stroke: #58c4dd;stroke-miterlimit: 10;stroke-width: 1.5px"/>
  </g>
  <g>
    <g style="opacity: 0.4">
      <rect x="154.286" y="102.857" width="51.429" height="514.31" style="fill: #c7e9f1"/>
      <rect x="257.143" y="102.857" width="51.429" height="514.31" style="fill: #c7e9f1"/>
      <rect x="360" y="102.857" width="51.429" height="514.31" style="fill: #c7e9f1"/>
      <rect x="462.857" y="102.857" width="51.429" height="514.31" style="fill: #c7e9f1"/>
      <rect x="565.714" y="102.857" width="51.429" height="514.31" style="fill: #c7e9f1"/>
    </g>
    <g>
      <line x1="154.286" y1="611.3" x2="205.714" y2="611.3" style="fill: none;stroke: #fff933;stroke-miterlimit: 10;stroke-width: 2px"/>
      <line x1="257.143" y1="558.532" x2="308.571" y2="558.532" style="fill: none;stroke: #fff933;stroke-miterlimit: 10;stroke-width: 2px"/>
      <line x1="360" y1="360" x2="411.429" y2="360.024" style="fill: none;stroke: #fff933;stroke-miterlimit: 10;stroke-width: 2px"/>
      <line x1="462.857" y1="161.608" x2="514.286" y2="161.608" style="fill: none;stroke: #fff933;stroke-miterlimit: 10;stroke-width: 2px"/>
      <line x1="565.714" y1="108.703" x2="617.143" y2="108.703" style="fill: none;stroke: #fff933;stroke-miterlimit: 10;stroke-width: 2px"/>
    </g>
    <g>
      <line x1="308.571" y1="558.532" x2="308.571" y2="480.445" style="fill: none;stroke: #fc6255;stroke-miterlimit: 10;stroke-width: 2px"/>
      <line x1="411.429" y1="360.024" x2="411.429" y2="239.583" style="fill: none;stroke: #fc6255;stroke-miterlimit: 10;stroke-width: 2px"/>
      <line x1="514.286" y1="161.608" x2="514.286" y2="124.067" style="fill: none;stroke: #fc6255;stroke-miterlimit: 10;stroke-width: 2px"/>
      <line x1="617.143" y1="108.703" x2="617.143" y2="102.857" style="fill: none;stroke: #fc6255;stroke-miterlimit: 10;stroke-width: 2px"/>
      <line x1="205.714" y1="611.3" x2="205.714" y2="595.943" style="fill: none;stroke: #fc6255;stroke-miterlimit: 10;stroke-width: 2px"/>
    </g>
  </g>
  <g>
    <path d="M158.555,650.179q-.438-.078-4.089-.077-3.6,0-4.037.077h-.309V649h.669a14.589,14.589,0,0,0,1.929-.077,1.679,1.679,0,0,0,.617-.309V635.315a.629.629,0,0,0-.206.078,7.625,7.625,0,0,1-2.649.489h-.488V634.7h.488a7.17,7.17,0,0,0,3.6-.976,3.517,3.517,0,0,0,.8-.592c.034-.051.138-.077.309-.077a.648.648,0,0,1,.437.154V640.9l.025,7.714a2.494,2.494,0,0,0,1.672.386h1.518v1.183Z" style="fill: #fff"/>
    <path d="M99.49,635.136a4.537,4.537,0,0,1,3.935-2.083,4.739,4.739,0,0,1,3.291,1.286,5.577,5.577,0,0,1,1.182,1.748,14.72,14.72,0,0,1,.952,5.863,13.423,13.423,0,0,1-1.106,6.094,4.443,4.443,0,0,1-2.108,2.16,4.844,4.844,0,0,1-2.186.54,4.53,4.53,0,0,1-4.32-2.7,13.423,13.423,0,0,1-1.106-6.094A19.972,19.972,0,0,1,98.346,638,8.618,8.618,0,0,1,99.49,635.136Zm5.785-.309a2.369,2.369,0,0,0-1.825-.822,2.449,2.449,0,0,0-1.851.822,3.1,3.1,0,0,0-.772,1.441,15.773,15.773,0,0,0-.257,2.93c0,.1,0,.438-.012,1s-.014,1.038-.014,1.415q0,2.469.052,3.446a14.66,14.66,0,0,0,.308,2.584,2.923,2.923,0,0,0,.772,1.35,2.282,2.282,0,0,0,1.774.772A2.254,2.254,0,0,0,105.2,649a2.923,2.923,0,0,0,.772-1.35,14.66,14.66,0,0,0,.308-2.584q.051-.978.052-3.446,0-.565-.013-1.415t-.012-1a15.839,15.839,0,0,0-.258-2.93A3.1,3.1,0,0,0,105.275,634.827Z" style="fill: #fff"/>
    <path d="M202.113,639.147a1.437,1.437,0,0,1-1.131-.462,1.645,1.645,0,0,1-.411-1.132,4.216,4.216,0,0,1,1.4-3.176,4.71,4.71,0,0,1,3.355-1.324,5.571,5.571,0,0,1,3.664,1.2,5.011,5.011,0,0,1,1.787,3.124,7.829,7.829,0,0,1,.052.849,4.869,4.869,0,0,1-.9,2.8,17.062,17.062,0,0,1-2.906,2.957q-.926.8-2.571,2.367l-1.517,1.439,1.954.026a30.9,30.9,0,0,0,4.3-.128c.068-.017.154-.2.256-.54a16.2,16.2,0,0,0,.361-1.749v-.078h1.028v.078l-.72,4.706v.077h-9.54v-.489a1.744,1.744,0,0,1,.051-.591q.027-.026,2.16-2.443,2.8-3.111,3.6-4.114a7.464,7.464,0,0,0,1.723-4.3,4.494,4.494,0,0,0-.887-2.841,2.963,2.963,0,0,0-2.482-1.144,2.823,2.823,0,0,0-2.417,1.337c-.034.068-.086.163-.154.283a.549.549,0,0,0-.077.154c0,.017.043.026.129.026a1.31,1.31,0,0,1,1.041.462,1.609,1.609,0,0,1,.4,1.08,1.529,1.529,0,0,1-.424,1.093A1.467,1.467,0,0,1,202.113,639.147Z" style="fill: #fff"/>
    <path d="M253.979,638.273a1.4,1.4,0,0,1-1.092-.437,1.614,1.614,0,0,1-.4-1.132,3.1,3.1,0,0,1,1.158-2.455,4.913,4.913,0,0,1,2.673-1.17h.386c.6,0,.978.009,1.132.025a6.242,6.242,0,0,1,1.723.541,3.831,3.831,0,0,1,2.134,2.417,2.517,2.517,0,0,1,.077.694,4.275,4.275,0,0,1-.939,2.713,5.2,5.2,0,0,1-2.353,1.71c-.085.034-.085.06,0,.077a1.739,1.739,0,0,0,.257.077,5.492,5.492,0,0,1,2.65,1.633,3.94,3.94,0,0,1,1.079,2.713,4.493,4.493,0,0,1-.488,2.031,5.1,5.1,0,0,1-2.019,2.173,5.852,5.852,0,0,1-3.124.861,6.148,6.148,0,0,1-3.009-.72,3.7,3.7,0,0,1-1.774-1.928,2.907,2.907,0,0,1-.257-1.26,1.534,1.534,0,0,1,.476-1.17,1.711,1.711,0,0,1,2.327.013,1.571,1.571,0,0,1,.463,1.157,1.648,1.648,0,0,1-.334,1.028,1.518,1.518,0,0,1-.9.566l-.179.051a4.833,4.833,0,0,0,3.188,1.158,2.294,2.294,0,0,0,2.134-1.364,5.891,5.891,0,0,0,.437-2.6v-.515a3.3,3.3,0,0,0-1.645-3.266,5.435,5.435,0,0,0-1.569-.179l-1.08-.026-.077-.051a.945.945,0,0,1-.052-.412.6.6,0,0,1,.078-.385.2.2,0,0,1,.128-.077,9.055,9.055,0,0,0,1.492-.129,2.228,2.228,0,0,0,1.722-1.273,5.671,5.671,0,0,0,.592-2.687,2.448,2.448,0,0,0-.9-2.238,2.14,2.14,0,0,0-1.208-.359,3.813,3.813,0,0,0-2.264.693,1.2,1.2,0,0,0-.231.168,1.59,1.59,0,0,0-.2.218l-.078.1c.051.016.112.034.18.05a1.229,1.229,0,0,1,.861.49,1.565,1.565,0,0,1,.348,1,1.417,1.417,0,0,1-.425,1.041A1.477,1.477,0,0,1,253.979,638.273Z" style="fill: #fff"/>
    <path d="M314.022,650.179q-.36-.078-3.317-.077-3.085,0-3.445.077h-.232V649h.8a5.412,5.412,0,0,0,1.363-.129.462.462,0,0,0,.309-.257q.026-.051.025-1.388v-1.286h-6.66v-1.183l3.883-5.94q3.934-5.965,3.986-5.992a1.377,1.377,0,0,1,.54-.05h.463l.155.154v11.828h2.365v1.183h-2.365v1.311q0,1.055.012,1.234a.467.467,0,0,0,.142.309,3.261,3.261,0,0,0,1.465.206h.746v1.183Zm-4.345-5.426v-8.589l-5.631,8.564,2.8.025Z" style="fill: #fff"/>
    <path d="M356.322,644.676a1.413,1.413,0,0,1,1.042.425,1.443,1.443,0,0,1,.424,1.066,1.324,1.324,0,0,1-.436,1,1.4,1.4,0,0,1-.978.412h-.18l.077.128a3.343,3.343,0,0,0,1.183,1.363,3.265,3.265,0,0,0,1.877.54,2.731,2.731,0,0,0,2.623-1.543,7.851,7.851,0,0,0,.488-3.292,6.4,6.4,0,0,0-.694-3.574,2.025,2.025,0,0,0-1.645-.849,3.313,3.313,0,0,0-3.035,1.749.491.491,0,0,1-.192.219,1.144,1.144,0,0,1-.373.038c-.292,0-.455-.05-.489-.154q-.053-.1-.051-4.5,0-.771-.013-1.825t-.013-1.338c0-.959.051-1.44.154-1.44a.147.147,0,0,1,.1-.051l.463.154a9.125,9.125,0,0,0,3.42.669,8.748,8.748,0,0,0,3.5-.72.807.807,0,0,1,.334-.1c.138,0,.206.154.206.463v.335a6.577,6.577,0,0,1-5.271,2.494,6.187,6.187,0,0,1-1.441-.155l-.256-.051v4.423a4.753,4.753,0,0,1,3.008-1.183,4.816,4.816,0,0,1,1.054.128,4.872,4.872,0,0,1,2.816,1.955,5.908,5.908,0,0,1,1.093,3.548,5.625,5.625,0,0,1-1.633,4.037,5.361,5.361,0,0,1-4.024,1.7,4.29,4.29,0,0,1-2.752-.9,2.9,2.9,0,0,1-.849-.849,4.564,4.564,0,0,1-.976-2.289c0-.051,0-.133-.013-.244s-.013-.192-.013-.244a1.527,1.527,0,0,1,.412-1.132A1.424,1.424,0,0,1,356.322,644.676Z" style="fill: #fff"/>
    <path d="M414.592,634.725a2.428,2.428,0,0,0-1.595-.643,3.685,3.685,0,0,0-3.009,1.542,8.941,8.941,0,0,0-1.208,5.194l.026.1.206-.335a3.288,3.288,0,0,1,2.853-1.543,4.3,4.3,0,0,1,2.083.489,5.324,5.324,0,0,1,1.235,1.041,6.479,6.479,0,0,1,1,1.453,6.914,6.914,0,0,1,.54,2.751v.463a4.541,4.541,0,0,1-.129,1.107A5.772,5.772,0,0,1,415,649.2a4.724,4.724,0,0,1-2.469,1.441,4.358,4.358,0,0,1-1.028.1,4.433,4.433,0,0,1-.874-.077,4.557,4.557,0,0,1-3.035-2.057,12,12,0,0,1-1.517-6.48,11.3,11.3,0,0,1,.978-4.859,7.69,7.69,0,0,1,2.725-3.241,5.127,5.127,0,0,1,3.008-.977,3.52,3.52,0,0,1,2.4.8,2.747,2.747,0,0,1,.913,2.185,1.412,1.412,0,0,1-.373,1.028,1.312,1.312,0,0,1-.989.386,1.363,1.363,0,0,1-.99-.36,1.325,1.325,0,0,1-.373-1A1.27,1.27,0,0,1,414.592,634.725ZM413.46,640.9a2.244,2.244,0,0,0-1.852-.926,2.088,2.088,0,0,0-1.543.592,5.573,5.573,0,0,0-1.259,4.062,10.88,10.88,0,0,0,.308,3.163,2.959,2.959,0,0,0,.874,1.312,2.155,2.155,0,0,0,1.466.54,2.309,2.309,0,0,0,2.006-.978,2.83,2.83,0,0,0,.488-1.285,16.861,16.861,0,0,0,.1-2.16v-.823a17.406,17.406,0,0,0-.1-2.211A2.838,2.838,0,0,0,413.46,640.9Z" style="fill: #fff"/>
    <path d="M457.844,638.4q.026-.051.437-2.8l.411-2.751c0-.035.171-.052.515-.052h.514v.1c0,.172.129.318.385.438a4.048,4.048,0,0,0,1.351.231q.965.053,4.333.052H468.9v1l-1.749,2.392q-.384.54-.874,1.2t-.746,1.016q-.257.36-.308.436a11.874,11.874,0,0,0-1.594,5.58q-.1,1.054-.129,2.88,0,.361-.013.733c-.009.25-.012.451-.012.6v.231a1.326,1.326,0,0,1-.5.746,1.378,1.378,0,0,1-.862.308,1.254,1.254,0,0,1-.99-.424,1.715,1.715,0,0,1-.372-1.17q0-.385.1-1.465a17.959,17.959,0,0,1,2.391-6.969q.514-.823,2.16-3.112l1.183-1.62H464.2a30.141,30.141,0,0,0-4.706.155c-.068.034-.163.222-.282.565a8.742,8.742,0,0,0-.258,1.209,2.831,2.831,0,0,1-.077.488v.078h-1.028Z" style="fill: #fff"/>
    <path d="M512.28,641.564a7.64,7.64,0,0,1-1.941-1.722,4.412,4.412,0,0,1-.27-4.218,4.568,4.568,0,0,1,1.659-1.864,4.513,4.513,0,0,1,2.506-.707,5.105,5.105,0,0,1,3.035.913,3.791,3.791,0,0,1,1.594,2.352,4.682,4.682,0,0,1,.026.618,3.874,3.874,0,0,1-.051.771,4.812,4.812,0,0,1-2.341,2.932l-.309.206q1.44.976,1.493,1.028a4.725,4.725,0,0,1,1.927,3.831,4.774,4.774,0,0,1-1.529,3.562,5.28,5.28,0,0,1-3.818,1.478,5.139,5.139,0,0,1-4.655-2.314,3.828,3.828,0,0,1-.643-2.237Q508.963,643.39,512.28,641.564Zm-1.672,4.578a3.217,3.217,0,0,0,1.107,2.506,3.729,3.729,0,0,0,2.571.991,4.171,4.171,0,0,0,1.916-.438,3.19,3.19,0,0,0,1.3-1.131,2.536,2.536,0,0,0,.438-1.414,2.617,2.617,0,0,0-.9-1.955q-.206-.206-2.134-1.465l-.784-.5c-.283-.179-.5-.321-.656-.423l-.2-.129-.309.154a5,5,0,0,0-2.135,2.571A4.238,4.238,0,0,0,510.608,646.142Zm6.789-9.155a2.653,2.653,0,0,0-.719-1.877,3.208,3.208,0,0,0-1.749-.977,8.2,8.2,0,0,0-.849-.026,3.109,3.109,0,0,0-2.288.926,1.856,1.856,0,0,0-.644,1.414,2.02,2.02,0,0,0,.926,1.749q.129.129,1.647,1.079l1.491.978c.017-.017.128-.09.334-.219a2.691,2.691,0,0,0,.463-.346A3.34,3.34,0,0,0,517.4,636.987Z" style="fill: #fff"/>
    <path d="M563.734,647.71a1.457,1.457,0,0,1-.269.9,1.088,1.088,0,0,1-.707.437l-.1.026c0,.017.061.065.181.142a1.009,1.009,0,0,0,.282.14,3.673,3.673,0,0,0,1.466.258,2.882,2.882,0,0,0,.669-.051,3.532,3.532,0,0,0,2.083-1.6q1-1.438,1-4.988v-.18l-.129.206a3.287,3.287,0,0,1-2.957,1.748,4.36,4.36,0,0,1-3.5-1.774,6.871,6.871,0,0,1-.99-6.455,6.147,6.147,0,0,1,1.376-1.928,5.081,5.081,0,0,1,3.188-1.517l.077-.026h.129c.034,0,.09,0,.167.012a1.742,1.742,0,0,0,.193.014,3.625,3.625,0,0,1,.746.051,4.871,4.871,0,0,1,3.265,2.648,13.163,13.163,0,0,1,1.106,5.812,11.372,11.372,0,0,1-1.543,6.095,7.008,7.008,0,0,1-2.173,2.25,4.882,4.882,0,0,1-2.661.809,4.187,4.187,0,0,1-2.611-.758,2.6,2.6,0,0,1-.989-2.2q0-1.44,1.362-1.439a1.26,1.26,0,0,1,1.337,1.362Zm2.6-13.551a3.9,3.9,0,0,0-.72-.052,2.279,2.279,0,0,0-1.672.7,2.748,2.748,0,0,0-.707,1.349,14.692,14.692,0,0,0-.167,2.688,23.467,23.467,0,0,0,.128,2.777,2.579,2.579,0,0,0,.759,1.581,2.224,2.224,0,0,0,1.608.605h.1a2.366,2.366,0,0,0,2.019-1.453,7.471,7.471,0,0,0,.63-3.228,14.088,14.088,0,0,0-.206-2.88,2.758,2.758,0,0,0-.629-1.337A2.168,2.168,0,0,0,566.332,634.159Z" style="fill: #fff"/>
    <g>
      <path d="M614.982,650.179q-.438-.078-4.088-.077-3.6,0-4.038.077h-.308V649h.669a14.589,14.589,0,0,0,1.929-.077,1.686,1.686,0,0,0,.617-.309V635.315a.629.629,0,0,0-.206.078,7.625,7.625,0,0,1-2.649.489h-.488V634.7h.488a7.17,7.17,0,0,0,3.6-.976,3.539,3.539,0,0,0,.8-.592c.034-.051.137-.077.308-.077a.649.649,0,0,1,.438.154V640.9l.025,7.714a2.494,2.494,0,0,0,1.672.386h1.518v1.183Z" style="fill: #fff"/>
      <path d="M619.611,635.136a4.537,4.537,0,0,1,3.935-2.083,4.738,4.738,0,0,1,3.291,1.286,5.6,5.6,0,0,1,1.183,1.748,14.74,14.74,0,0,1,.951,5.863,13.409,13.409,0,0,1-1.106,6.094,4.443,4.443,0,0,1-2.108,2.16,4.844,4.844,0,0,1-2.186.54,4.53,4.53,0,0,1-4.32-2.7,13.424,13.424,0,0,1-1.105-6.094,19.982,19.982,0,0,1,.321-3.947A8.618,8.618,0,0,1,619.611,635.136Zm5.785-.309a2.369,2.369,0,0,0-1.825-.822,2.45,2.45,0,0,0-1.851.822,3.1,3.1,0,0,0-.772,1.441,15.953,15.953,0,0,0-.257,2.93q0,.156-.012,1t-.014,1.415q0,2.469.052,3.446a14.66,14.66,0,0,0,.308,2.584A2.923,2.923,0,0,0,621.8,649a2.283,2.283,0,0,0,1.774.772,2.254,2.254,0,0,0,1.748-.772,2.923,2.923,0,0,0,.772-1.35,14.563,14.563,0,0,0,.308-2.584q.052-.978.052-3.446,0-.565-.013-1.415t-.012-1a15.839,15.839,0,0,0-.258-2.93A3.1,3.1,0,0,0,625.4,634.827Z" style="fill: #fff"/>
    </g>
    <g>
      <path d="M209.81,44.524a1.055,1.055,0,0,0-.5-.309,10.456,10.456,0,0,0-1.3-.077h-.849V42.955h5.169q4.4.027,4.911.039a5.514,5.514,0,0,1,1.08.141,7.255,7.255,0,0,1,4.23,2.675,9.739,9.739,0,0,1,2.07,4.962c.034.343.052.712.052,1.106s-.018.763-.052,1.106a8.966,8.966,0,0,1-2.185,4.924,7.632,7.632,0,0,1-4.6,2.533q-.334.052-5.5.077h-5.169V59.335h.849a10.456,10.456,0,0,0,1.3-.077,1.045,1.045,0,0,0,.5-.308Zm6.814-.36h-.348q-.3,0-.732-.013c-.292-.008-.558-.013-.8-.013s-.506.005-.8.013-.531.013-.72.013H212.9c-.223.017-.361.086-.412.206q-.077.1-.077,7.3,0,7.252.026,7.329a.355.355,0,0,0,.308.283q.205.051,2.443.051a10.631,10.631,0,0,0,2.635-.257,5.111,5.111,0,0,0,1.891-1q2.005-1.671,2.006-6.248a14.973,14.973,0,0,0-.181-2.675,5.693,5.693,0,0,0-2.391-4.114A5.416,5.416,0,0,0,216.624,44.164Z" style="fill: #fff"/>
      <path d="M232.464,60.518a22.1,22.1,0,0,0-2.675-.077,27.305,27.305,0,0,0-2.8.077h-.2V59.335h.411a8.927,8.927,0,0,0,1.26-.077.552.552,0,0,0,.309-.283q.024-.051.025-3.728a35.893,35.893,0,0,0-.1-4.115q-.207-.513-1.517-.514h-.283v-.591c0-.4.016-.592.052-.592l.256-.025c.171-.017.412-.035.72-.052l.926-.051q.436-.026.926-.065c.325-.025.574-.047.746-.064s.265-.026.282-.026h.077v9.772a.6.6,0,0,0,.309.321,4.05,4.05,0,0,0,.9.09h.592v1.183Zm-2.984-17.2a1.659,1.659,0,0,1,1.055.45,1.448,1.448,0,0,1,.411,1.093,1.375,1.375,0,0,1-.694,1.311,1.4,1.4,0,0,1-.822.232,1.452,1.452,0,0,1-.849-.232,1.375,1.375,0,0,1-.694-1.311,1.452,1.452,0,0,1,.45-1.131A1.63,1.63,0,0,1,229.48,43.315Z" style="fill: #fff"/>
      <path d="M238.146,49.873q-2.365,0-2.366,1.671a1.17,1.17,0,0,0,.052.437,1.537,1.537,0,0,0,.8.887,7.836,7.836,0,0,0,1.749.5,6.937,6.937,0,0,1,2.006.565,3.728,3.728,0,0,1,2.083,2.546,4.917,4.917,0,0,1,.025.617,4.156,4.156,0,0,1-.36,1.775q-1,1.9-3.779,1.9a4.091,4.091,0,0,1-2.675-.925l-.2.179-.232.232c-.1.1-.206.2-.308.283l-.284.257h-.206a.463.463,0,0,1-.334-.155V58.615q0-1.671.013-1.928c.009-.171.047-.274.116-.309a1.658,1.658,0,0,1,.411-.025.866.866,0,0,1,.4.051.824.824,0,0,1,.141.36,5.945,5.945,0,0,0,.668,1.774,2.865,2.865,0,0,0,2.5,1.312q2.493,0,2.494-2.006a1.639,1.639,0,0,0-.463-1.209,2.242,2.242,0,0,0-1.08-.694q-.438-.1-1.235-.283a8.777,8.777,0,0,1-1.954-.54,3.207,3.207,0,0,1-1.98-2.391,1.893,1.893,0,0,1-.026-.386q0-2.957,3.626-3.317a1.68,1.68,0,0,1,.618,0,3.962,3.962,0,0,1,1.8.386l.386.205.232-.18a6.558,6.558,0,0,1,.565-.437h.206a.467.467,0,0,1,.334.154v3.395l-.154.154H241a.44.44,0,0,1-.154-.308,2.4,2.4,0,0,0-.721-1.852A2.8,2.8,0,0,0,238.146,49.873Z" style="fill: #fff"/>
      <path d="M247.019,45.089V44.7h1.028v4.731h3.472v1.183h-3.472v3.7q.024,3.215.038,3.638a2.349,2.349,0,0,0,.168.811,1.292,1.292,0,0,0,1.26,1q1.131,0,1.388-1.825.025-.206.026-1.183v-.9h1.028v.9a7.886,7.886,0,0,1-.128,1.7,3.525,3.525,0,0,1-.965,1.671,2.5,2.5,0,0,1-1.787.643,2.931,2.931,0,0,1-3.163-2.828q-.024-.18-.025-3.806V50.618h-2.032v-.951h.232a2.374,2.374,0,0,0,1.62-.823A5.692,5.692,0,0,0,247.019,45.089Z" style="fill: #fff"/>
      <path d="M257.367,52.264a1.323,1.323,0,0,1-.99.411,1.281,1.281,0,0,1-.977-.411,1.384,1.384,0,0,1-.385-.977,2.051,2.051,0,0,1,.206-.823,2.293,2.293,0,0,1,1.337-1.08A6.8,6.8,0,0,1,259,49a5.474,5.474,0,0,1,2.944.772,3.6,3.6,0,0,1,1.633,2,2.637,2.637,0,0,1,.142.81q.014.45.012,2.944,0,2.521.013,2.945a1.457,1.457,0,0,0,.142.655.527.527,0,0,0,.514.36.512.512,0,0,0,.489-.36,3.956,3.956,0,0,0,.154-1.414V56.79h1.028v1A7.978,7.978,0,0,1,265.994,59a2.413,2.413,0,0,1-.848,1.2,2.331,2.331,0,0,1-1.465.475,1.666,1.666,0,0,1-1.145-.45,2.264,2.264,0,0,1-.682-1.093v-.1q-.076.077-.308.347c-.154.18-.266.3-.334.373A4.432,4.432,0,0,1,258.28,60.8a4.979,4.979,0,0,1-2.391-.566,2.9,2.9,0,0,1-1.414-1.491,2.489,2.489,0,0,1-.206-.977,3.079,3.079,0,0,1,1-2.212,4.775,4.775,0,0,1,1.466-.977,12.6,12.6,0,0,1,4.475-.952h.359v-.565a3.914,3.914,0,0,0-.154-1.286,2.452,2.452,0,0,0-2.494-1.825q-1.724,0-1.723.2a1.284,1.284,0,0,1,.566,1.132A1.355,1.355,0,0,1,257.367,52.264Zm4.2,3.754q0-1.491-.025-1.491a.3.3,0,0,0-.129.025q-3.523.233-4.5,2.083a2.371,2.371,0,0,0-.282,1.157,1.946,1.946,0,0,0,.617,1.466,2.106,2.106,0,0,0,1.517.592,2.642,2.642,0,0,0,1.761-.618,2.875,2.875,0,0,0,.964-1.517A13.922,13.922,0,0,0,261.571,56.018Z" style="fill: #fff"/>
      <path d="M271.086,58.975c.138.24.54.36,1.209.36h.771v1.183h-.206a53.88,53.88,0,0,0-5.759,0H266.9V59.335h.771c.669,0,1.071-.12,1.209-.36v-.8q0-.36.013-.81t.012-1V55.3q0-.8-.012-1.71t-.013-1.5v-.592a.855.855,0,0,0-.373-.656,3.039,3.039,0,0,0-1.145-.218H266.9v-.591q0-.593.051-.592l.257-.025c.172-.017.416-.035.734-.052l.938-.051q.437-.026.926-.065c.325-.025.574-.047.745-.064s.266-.026.283-.026h.077v1.029a6.967,6.967,0,0,0,.026.977l.026-.026a4.522,4.522,0,0,1,3.934-1.98,3,3,0,0,1,3.265,2.906q.027.18.027,3.574,0,3.292.025,3.343a.546.546,0,0,0,.309.283,8.932,8.932,0,0,0,1.259.077h.412v1.183h-.206a53.88,53.88,0,0,0-5.759,0h-.206V59.335h.617q1.362,0,1.363-.411.026-.051.025-3.549Q276,51.9,275.972,51.7a2.272,2.272,0,0,0-.578-1.2,1.742,1.742,0,0,0-1.222-.373,2.783,2.783,0,0,0-2.031.875,3.679,3.679,0,0,0-1.055,2.263v.475q0,.45-.013,1.145c-.009.463-.012.9-.012,1.311v.81c0,.283,0,.536.012.759s.013.424.013.6v.6Z" style="fill: #fff"/>
      <path d="M290.539,52.3a1.4,1.4,0,0,1-.99.373,1.306,1.306,0,0,1-.978-.4,1.338,1.338,0,0,1-.385-.965,1.324,1.324,0,0,1,.385-.977c.086-.085.125-.137.117-.154s-.09-.034-.245-.052a8.377,8.377,0,0,0-1.259-.1,2.635,2.635,0,0,0-2.058.823,5.569,5.569,0,0,0-1.209,4.037,5.968,5.968,0,0,0,.8,3.317,3.25,3.25,0,0,0,2.828,1.568,2.389,2.389,0,0,0,1.132-.257,2.99,2.99,0,0,0,1.491-2.006.441.441,0,0,1,.129-.257.959.959,0,0,1,.411-.051h.36c.1.1.155.18.155.231a3.433,3.433,0,0,1-.644,1.518,4.158,4.158,0,0,1-3.625,1.851,5.287,5.287,0,0,1-2.443-.592,5.668,5.668,0,0,1-3.06-4.371,7.34,7.34,0,0,1-.026-.823,8.176,8.176,0,0,1,.026-.848,5.941,5.941,0,0,1,2.109-3.935A5.347,5.347,0,0,1,286.978,49q3.315,0,3.882,1.749a1.88,1.88,0,0,1,.078.591A1.259,1.259,0,0,1,290.539,52.3Z" style="fill: #fff"/>
      <path d="M302.638,54.218a.52.52,0,0,1-.181.36h-7.251v.386a6.36,6.36,0,0,0,.514,2.88,3.26,3.26,0,0,0,3.188,1.9,2.4,2.4,0,0,0,1.852-.823,3.452,3.452,0,0,0,.8-1.338.87.87,0,0,1,.154-.359.663.663,0,0,1,.411-.078q.515,0,.515.258a1.28,1.28,0,0,1-.077.334,4.955,4.955,0,0,1-1.557,2.2,4.016,4.016,0,0,1-2.609.862,5.83,5.83,0,0,1-1.132-.129,5.325,5.325,0,0,1-2.623-1.337,5.859,5.859,0,0,1-1.646-2.545,6.269,6.269,0,0,1,1.08-5.876,5.225,5.225,0,0,1,3.42-1.89,1.707,1.707,0,0,1,.36-.026,4.514,4.514,0,0,1,3.562,1.376A5.6,5.6,0,0,1,302.638,54.218Zm-2.11-.771q-.231-2.8-1.9-3.4a1.777,1.777,0,0,0-.54-.1,2.557,2.557,0,0,0-2.186,1.234,5.4,5.4,0,0,0-.669,2.288v.18h5.3Z" style="fill: #fff"/>
      <path d="M310.737,49.126q.026-.051.257-2.931t.232-2.931v-.155h15.712v.155q.024.051.256,2.931t.232,2.931v.155H326.4v-.155c-.017-.068-.043-.273-.077-.617a6.117,6.117,0,0,0-.823-3.239,2.744,2.744,0,0,0-1.414-.823,10.018,10.018,0,0,0-1.98-.129h-.695a4.017,4.017,0,0,0-.732.038c-.095.026-.167.116-.219.27q-.025.053-.025,7.175v7.1a.951.951,0,0,0,.642.36q.925.078,2.315.077h.771v1.183h-.334q-.54-.077-4.731-.077t-4.732.077h-.335V59.335h.772q1.389,0,2.314-.077a.958.958,0,0,0,.643-.36V51.8q0-7.122-.026-7.175c-.051-.154-.124-.244-.218-.27a4.031,4.031,0,0,0-.733-.038h-.694q-1.209,0-1.466.026a3.559,3.559,0,0,0-1.749.72q-.823.694-1.028,3.445c-.034.344-.061.549-.077.617v.155h-1.029Z" style="fill: #fff"/>
      <path d="M329.3,59.335h.36q1,0,1.208-.36v-.2q0-.233.013-.592c.009-.24.012-.51.012-.81V52.084l-.025-.592a.855.855,0,0,0-.373-.656,3.037,3.037,0,0,0-1.144-.218h-.462v-.591c0-.4.016-.592.05-.592l.258-.025c.171-.017.411-.035.72-.052l.926-.051c.273-.017.574-.039.9-.065s.574-.047.746-.064.266-.026.283-.026h.078v1.775a4.543,4.543,0,0,1,1.08-1.286,2.473,2.473,0,0,1,1.568-.463,2.523,2.523,0,0,1,1.234.283,1.6,1.6,0,0,1,1,1.466,1.252,1.252,0,0,1-.385.938,1.287,1.287,0,0,1-.926.373,1.262,1.262,0,0,1-.913-.36,1.228,1.228,0,0,1-.373-.926,1.189,1.189,0,0,1,.206-.72.432.432,0,0,0,.05-.128q-.051-.051-.59.1a3.022,3.022,0,0,0-.618.385,4.8,4.8,0,0,0-1.182,3.241v1q-.027,1-.027,1.723v.707c0,.249,0,.467.013.656s.014.36.014.514v.515a.461.461,0,0,0,.308.257,5.476,5.476,0,0,0,1.363.128h.8v1.183h-.232q-.461-.077-3.265-.077a26.613,26.613,0,0,0-2.88.077h-.2V59.335Z" style="fill: #fff"/>
      <path d="M342.429,52.264a1.325,1.325,0,0,1-.991.411,1.28,1.28,0,0,1-.976-.411,1.38,1.38,0,0,1-.386-.977,2.068,2.068,0,0,1,.206-.823,2.3,2.3,0,0,1,1.337-1.08A6.806,6.806,0,0,1,344.062,49a5.477,5.477,0,0,1,2.944.772,3.6,3.6,0,0,1,1.633,2,2.638,2.638,0,0,1,.141.81q.014.45.013,2.944,0,2.521.013,2.945a1.445,1.445,0,0,0,.141.655.529.529,0,0,0,.515.36.51.51,0,0,0,.488-.36,3.932,3.932,0,0,0,.154-1.414V56.79h1.029v1A8.128,8.128,0,0,1,351.056,59a2.421,2.421,0,0,1-.849,1.2,2.327,2.327,0,0,1-1.465.475,1.663,1.663,0,0,1-1.144-.45,2.257,2.257,0,0,1-.682-1.093v-.1c-.052.051-.154.167-.309.347s-.265.3-.334.373a4.429,4.429,0,0,1-2.931,1.054,4.98,4.98,0,0,1-2.392-.566,2.9,2.9,0,0,1-1.414-1.491,2.489,2.489,0,0,1-.206-.977,3.076,3.076,0,0,1,1-2.212,4.775,4.775,0,0,1,1.466-.977,12.59,12.59,0,0,1,4.474-.952h.36v-.565a3.941,3.941,0,0,0-.154-1.286,2.454,2.454,0,0,0-2.5-1.825q-1.722,0-1.722.2a1.283,1.283,0,0,1,.565,1.132A1.358,1.358,0,0,1,342.429,52.264Zm4.2,3.754q0-1.491-.026-1.491a.3.3,0,0,0-.128.025q-3.523.233-4.5,2.083a2.36,2.36,0,0,0-.283,1.157,1.946,1.946,0,0,0,.617,1.466,2.107,2.107,0,0,0,1.517.592,2.642,2.642,0,0,0,1.762-.618,2.887,2.887,0,0,0,.964-1.517A14.163,14.163,0,0,0,346.633,56.018Z" style="fill: #fff"/>
      <path d="M360.005,49.435a6.9,6.9,0,0,0,1.234.052h.926q1.465,0,2.083-.052h.128v1.183h-.282a2.036,2.036,0,0,0-1.9,1.028q-.051.1-1.735,4.449t-1.736,4.474q-.129.232-.643.232c-.326,0-.531-.077-.617-.232q-3.6-9.282-3.626-9.411a.668.668,0,0,0-.3-.36,1.2,1.2,0,0,0-.348-.129c-.1-.016-.359-.034-.771-.051H351.8V49.435h.154a18.909,18.909,0,0,0,2.494.077,25.974,25.974,0,0,0,2.829-.077h.206v1.183h-.36c-.669.017-1.028.146-1.08.386q0,.1,1.311,3.5l1.312,3.394q.8-2.031,2.34-6.145v-.206a.809.809,0,0,0-.334-.669,1.2,1.2,0,0,0-.746-.257h-.1V49.435Z" style="fill: #fff"/>
      <path d="M375.562,54.218a.519.519,0,0,1-.18.36h-7.251v.386a6.36,6.36,0,0,0,.514,2.88,3.26,3.26,0,0,0,3.188,1.9,2.4,2.4,0,0,0,1.852-.823,3.45,3.45,0,0,0,.8-1.338.881.881,0,0,1,.155-.359.663.663,0,0,1,.411-.078q.514,0,.514.258a1.239,1.239,0,0,1-.077.334,4.945,4.945,0,0,1-1.556,2.2,4.017,4.017,0,0,1-2.61.862,5.829,5.829,0,0,1-1.131-.129,5.332,5.332,0,0,1-2.624-1.337,5.866,5.866,0,0,1-1.645-2.545A6.26,6.26,0,0,1,367,50.914a5.223,5.223,0,0,1,3.42-1.89,1.7,1.7,0,0,1,.36-.026,4.515,4.515,0,0,1,3.562,1.376A5.6,5.6,0,0,1,375.562,54.218Zm-2.109-.771q-.231-2.8-1.9-3.4a1.777,1.777,0,0,0-.54-.1,2.557,2.557,0,0,0-2.186,1.234,5.39,5.39,0,0,0-.669,2.288v.18h5.3Z" style="fill: #fff"/>
      <path d="M377.388,59.335h.36q1,0,1.208-.36v-.8q0-.36.013-.848c.009-.326.012-.7.012-1.119V48.124c0-.566,0-1.084-.012-1.556s-.013-.844-.013-1.118v-.438a.855.855,0,0,0-.373-.656,3.017,3.017,0,0,0-1.144-.218h-.462v-.591c0-.395.016-.592.05-.592l.258-.025c.171-.017.42-.034.745-.052l.951-.051c.292-.017.609-.039.953-.065s.6-.047.771-.064.266-.026.282-.026h.077v8.1q0,8.153.027,8.2a.547.547,0,0,0,.308.283,8.937,8.937,0,0,0,1.26.077h.411v1.183h-.2a27.721,27.721,0,0,0-2.829-.077,25.7,25.7,0,0,0-2.854.077h-.205V59.335Z" style="fill: #fff"/>
      <path d="M394.128,54.218a.52.52,0,0,1-.181.36H386.7v.386a6.36,6.36,0,0,0,.514,2.88,3.261,3.261,0,0,0,3.188,1.9,2.4,2.4,0,0,0,1.852-.823,3.452,3.452,0,0,0,.8-1.338.884.884,0,0,1,.154-.359.665.665,0,0,1,.411-.078q.515,0,.515.258a1.239,1.239,0,0,1-.077.334,4.947,4.947,0,0,1-1.557,2.2,4.016,4.016,0,0,1-2.609.862,5.846,5.846,0,0,1-1.132-.129,5.325,5.325,0,0,1-2.623-1.337,6.044,6.044,0,0,1-1.954-4.423,5.962,5.962,0,0,1,1.388-4,5.225,5.225,0,0,1,3.42-1.89,1.719,1.719,0,0,1,.361-.026,4.513,4.513,0,0,1,3.561,1.376A5.593,5.593,0,0,1,394.128,54.218Zm-2.109-.771q-.233-2.8-1.9-3.4a1.777,1.777,0,0,0-.54-.1,2.555,2.555,0,0,0-2.185,1.234,5.376,5.376,0,0,0-.669,2.288v.18h5.3Z" style="fill: #fff"/>
      <path d="M401.147,49.152a5.122,5.122,0,0,1,3.395,1.26V47.79q0-2.675-.026-2.778a.852.852,0,0,0-.373-.656A3.026,3.026,0,0,0,403,44.138h-.463v-.591q0-.592.051-.592l.258-.025c.171-.017.42-.034.745-.052l.952-.051q.437-.025.951-.065c.343-.025.6-.047.772-.064s.265-.026.282-.026h.077v7.817q0,7.869.026,7.946a.875.875,0,0,0,.373.682,2.982,2.982,0,0,0,1.144.218h.463v1.183c-.034,0-.691.043-1.967.128s-1.95.138-2.018.155h-.18V59.387l-.206.179a5.042,5.042,0,0,1-3.343,1.235,4.712,4.712,0,0,1-3.188-1.209,6.019,6.019,0,0,1-1.955-3.7q-.026-.207-.026-.9a5.794,5.794,0,0,1,1.595-4.165A5.074,5.074,0,0,1,401.147,49.152Zm3.318,2.572a3.458,3.458,0,0,0-2.906-1.62,3.164,3.164,0,0,0-2.238.925,3.379,3.379,0,0,0-.861,1.569,11.076,11.076,0,0,0-.219,2.494q0,2.855,1.08,3.909a2.639,2.639,0,0,0,2.006.849,3.325,3.325,0,0,0,1.723-.489,3.625,3.625,0,0,0,1.311-1.337l.1-.154Z" style="fill: #fff"/>
      <path d="M424.161,66.715q0,.233-.463.232h-.334l-.719-.617q-4.629-4.218-4.629-12.241a20.705,20.705,0,0,1,.746-5.734,13.86,13.86,0,0,1,3.883-6.5q.179-.155.411-.348c.154-.128.256-.218.308-.27h.334a.6.6,0,0,1,.386.078.217.217,0,0,1,.077.154c0,.069-.094.2-.282.386q-3.986,4.217-3.986,12.239t3.986,12.241Q424.161,66.612,424.161,66.715Z" style="fill: #fff"/>
      <path d="M429,44.524a1.053,1.053,0,0,0-.5-.309,10.433,10.433,0,0,0-1.3-.077h-.848V42.955h2.725a20.931,20.931,0,0,1,2.8.077l.129.129q.024.1,5.374,14.169,2.546-6.686,4.577-12.086.771-2.056.822-2.083a.591.591,0,0,1,.1-.129,20.931,20.931,0,0,1,2.8-.077h2.725v1.183h-.848a11.327,11.327,0,0,0-1.325.077.709.709,0,0,0-.45.309V58.95a.7.7,0,0,0,.45.308,11.327,11.327,0,0,0,1.325.077h.848v1.183h-.283q-.411-.077-3.6-.077t-3.6.077h-.283V59.335h.848a10.456,10.456,0,0,0,1.3-.077,1.045,1.045,0,0,0,.5-.308V44.755l-.025-.488q-5.994,15.891-6.095,16.071-.1.155-.514.154c-.274,0-.446-.051-.514-.154l-6.018-15.866v.463q-.026.463-.025,1.62v4.809l.025,6.943q.309.925,2.186,1.028h.437v1.183h-.231a27.375,27.375,0,0,0-2.957-.077,28.213,28.213,0,0,0-3.009.077h-.2V59.335h.436q1.749-.1,2.135-.874l.077-.154Z" style="fill: #fff"/>
      <path d="M459.853,54.218a.52.52,0,0,1-.181.36h-7.251v.386a6.36,6.36,0,0,0,.514,2.88,3.26,3.26,0,0,0,3.188,1.9,2.4,2.4,0,0,0,1.852-.823,3.45,3.45,0,0,0,.8-1.338.881.881,0,0,1,.155-.359.663.663,0,0,1,.411-.078q.514,0,.515.258a1.252,1.252,0,0,1-.078.334,4.945,4.945,0,0,1-1.556,2.2,4.017,4.017,0,0,1-2.61.862,5.829,5.829,0,0,1-1.131-.129,5.332,5.332,0,0,1-2.624-1.337,5.866,5.866,0,0,1-1.645-2.545,6.26,6.26,0,0,1,1.08-5.876,5.223,5.223,0,0,1,3.42-1.89,1.7,1.7,0,0,1,.36-.026,4.515,4.515,0,0,1,3.562,1.376A5.6,5.6,0,0,1,459.853,54.218Zm-2.11-.771q-.231-2.8-1.9-3.4a1.777,1.777,0,0,0-.54-.1,2.557,2.557,0,0,0-2.186,1.234,5.39,5.39,0,0,0-.669,2.288v.18h5.3Z" style="fill: #fff"/>
      <path d="M464.224,45.089V44.7h1.028v4.731h3.472v1.183h-3.472v3.7q.026,3.215.038,3.638a2.349,2.349,0,0,0,.168.811,1.292,1.292,0,0,0,1.26,1q1.131,0,1.388-1.825.025-.206.026-1.183v-.9h1.028v.9a7.886,7.886,0,0,1-.128,1.7,3.525,3.525,0,0,1-.965,1.671,2.494,2.494,0,0,1-1.787.643,2.931,2.931,0,0,1-3.163-2.828q-.024-.18-.025-3.806V50.618h-2.031v-.951h.231a2.374,2.374,0,0,0,1.62-.823A5.692,5.692,0,0,0,464.224,45.089Z" style="fill: #fff"/>
      <path d="M481.272,54.218a.519.519,0,0,1-.18.36h-7.251v.386a6.375,6.375,0,0,0,.513,2.88,3.262,3.262,0,0,0,3.189,1.9,2.4,2.4,0,0,0,1.852-.823,3.45,3.45,0,0,0,.8-1.338.881.881,0,0,1,.155-.359.661.661,0,0,1,.411-.078q.515,0,.514.258a1.239,1.239,0,0,1-.077.334,4.945,4.945,0,0,1-1.556,2.2,4.017,4.017,0,0,1-2.61.862,5.846,5.846,0,0,1-1.132-.129,5.333,5.333,0,0,1-2.623-1.337,5.866,5.866,0,0,1-1.645-2.545,6.26,6.26,0,0,1,1.08-5.876,5.223,5.223,0,0,1,3.42-1.89,1.7,1.7,0,0,1,.36-.026,4.515,4.515,0,0,1,3.562,1.376A5.6,5.6,0,0,1,481.272,54.218Zm-2.109-.771q-.231-2.8-1.9-3.4a1.777,1.777,0,0,0-.54-.1,2.557,2.557,0,0,0-2.186,1.234,5.39,5.39,0,0,0-.669,2.288v.18h5.3Z" style="fill: #fff"/>
      <path d="M482.943,59.335h.361q1,0,1.208-.36v-.2q0-.233.012-.592t.013-.81V52.084l-.025-.592a.855.855,0,0,0-.373-.656A3.042,3.042,0,0,0,483,50.618h-.463v-.591q0-.593.051-.592l.258-.025c.171-.017.411-.035.72-.052l.925-.051c.274-.017.575-.039.9-.065s.574-.047.746-.064.265-.026.283-.026h.077v1.775a4.559,4.559,0,0,1,1.08-1.286,2.476,2.476,0,0,1,1.569-.463,2.525,2.525,0,0,1,1.234.283,1.6,1.6,0,0,1,1,1.466,1.249,1.249,0,0,1-.386.938,1.285,1.285,0,0,1-.926.373,1.264,1.264,0,0,1-.913-.36,1.228,1.228,0,0,1-.373-.926,1.2,1.2,0,0,1,.206-.72.417.417,0,0,0,.051-.128q-.051-.051-.591.1a3.039,3.039,0,0,0-.617.385,4.8,4.8,0,0,0-1.183,3.241v1q-.026,1-.026,1.723v.707c0,.249,0,.467.013.656s.013.36.013.514v.515a.462.462,0,0,0,.309.257,5.473,5.473,0,0,0,1.362.128h.8v1.183h-.231q-.462-.077-3.266-.077a26.641,26.641,0,0,0-2.88.077h-.205V59.335Z" style="fill: #fff"/>
      <path d="M496.982,49.873q-2.366,0-2.366,1.671a1.17,1.17,0,0,0,.052.437,1.537,1.537,0,0,0,.8.887,7.836,7.836,0,0,0,1.749.5,6.937,6.937,0,0,1,2.006.565,3.728,3.728,0,0,1,2.083,2.546,4.917,4.917,0,0,1,.025.617,4.156,4.156,0,0,1-.36,1.775q-1,1.9-3.78,1.9a4.091,4.091,0,0,1-2.674-.925l-.2.179-.232.232c-.1.1-.206.2-.308.283l-.284.257h-.206a.463.463,0,0,1-.334-.155V58.615q0-1.671.013-1.928c.009-.171.047-.274.116-.309a1.658,1.658,0,0,1,.411-.025.866.866,0,0,1,.4.051.824.824,0,0,1,.141.36,5.945,5.945,0,0,0,.668,1.774,2.865,2.865,0,0,0,2.5,1.312q2.495,0,2.5-2.006a1.639,1.639,0,0,0-.463-1.209,2.242,2.242,0,0,0-1.08-.694q-.438-.1-1.235-.283a8.777,8.777,0,0,1-1.954-.54,3.207,3.207,0,0,1-1.98-2.391,1.893,1.893,0,0,1-.026-.386q0-2.957,3.626-3.317a1.675,1.675,0,0,1,.617,0,3.964,3.964,0,0,1,1.8.386l.386.205.231-.18a6.707,6.707,0,0,1,.566-.437h.206a.467.467,0,0,1,.334.154v3.395l-.154.154h-.72a.44.44,0,0,1-.154-.308,2.4,2.4,0,0,0-.721-1.852A2.8,2.8,0,0,0,496.982,49.873Z" style="fill: #fff"/>
      <path d="M503.771,41.258l.1-.026h.566l.72.618q4.629,4.217,4.628,12.239a20.294,20.294,0,0,1-.745,5.709,13.879,13.879,0,0,1-3.883,6.532l-.412.347c-.154.128-.257.218-.308.27h-.308a.977.977,0,0,1-.4-.052c-.059-.034-.089-.12-.089-.257.017-.017.111-.129.283-.334q3.986-4.142,3.985-12.215t-3.985-12.214q-.258-.309-.283-.334A.3.3,0,0,1,503.771,41.258Z" style="fill: #fff"/>
    </g>
    <g>
      <path d="M335.212,684.644q.025-.053.257-2.932t.231-2.931v-.154h15.712v.154q.026.051.257,2.931t.231,2.932v.154h-1.028v-.154c-.018-.069-.043-.274-.077-.618a6.134,6.134,0,0,0-.823-3.24,2.75,2.75,0,0,0-1.414-.822,10.03,10.03,0,0,0-1.981-.129h-.694a3.89,3.89,0,0,0-.733.039c-.094.025-.167.115-.218.27q-.025.053-.026,7.174v7.1a.956.956,0,0,0,.643.36q.926.077,2.314.078h.772v1.182H348.3q-.541-.078-4.732-.077t-4.731.077H338.5v-1.182h.771q1.389,0,2.315-.078a.953.953,0,0,0,.642-.36v-7.1q0-7.124-.025-7.174c-.052-.155-.124-.245-.219-.27a3.884,3.884,0,0,0-.732-.039h-.694q-1.209,0-1.466.026a3.551,3.551,0,0,0-1.749.72q-.823.694-1.029,3.445c-.034.344-.06.549-.077.618v.154h-1.028Z" style="fill: #fff"/>
      <path d="M359.2,696.035a21.852,21.852,0,0,0-2.675-.077,26.964,26.964,0,0,0-2.8.077h-.2v-1.182h.411a9.061,9.061,0,0,0,1.259-.078.549.549,0,0,0,.309-.283q.025-.051.025-3.728a35.893,35.893,0,0,0-.1-4.115q-.207-.513-1.517-.514h-.283v-.591q0-.592.052-.592l.257-.025q.256-.026.719-.052l.926-.052c.291-.016.6-.038.926-.063s.574-.047.746-.065.266-.025.282-.025h.077v9.77a.6.6,0,0,0,.309.323,4.115,4.115,0,0,0,.9.09h.592v1.182Zm-2.983-17.2a1.659,1.659,0,0,1,1.054.45,1.449,1.449,0,0,1,.412,1.093,1.378,1.378,0,0,1-.695,1.312,1.409,1.409,0,0,1-.822.231,1.459,1.459,0,0,1-.849-.231,1.377,1.377,0,0,1-.694-1.312,1.455,1.455,0,0,1,.45-1.131A1.631,1.631,0,0,1,356.22,678.832Z" style="fill: #fff"/>
      <path d="M364.834,694.492c.138.24.54.361,1.209.361h.771v1.182h-.206a53.88,53.88,0,0,0-5.759,0h-.206v-1.182h.771c.669,0,1.071-.121,1.209-.361v-.8c0-.24,0-.509.013-.81s.012-.634.012-1v-1.067c0-.531,0-1.1-.012-1.71s-.013-1.11-.013-1.5v-.591a.853.853,0,0,0-.373-.656,2.994,2.994,0,0,0-1.145-.219h-.462v-.591q0-.592.051-.592l.257-.025c.172-.017.416-.034.734-.052l.938-.052c.291-.016.6-.038.926-.063s.574-.047.745-.065.266-.025.283-.025h.077V685.7a6.967,6.967,0,0,0,.026.977l.026-.026a4.521,4.521,0,0,1,3.934-1.979q2.495.077,3.06,1.954l.051.128q.618-.771.694-.849a4.33,4.33,0,0,1,3.061-1.233q3.213,0,3.522,2.905.027.18.027,3.574,0,3.293.025,3.343a.546.546,0,0,0,.309.283,9.061,9.061,0,0,0,1.259.078h.412v1.182h-.206a53.88,53.88,0,0,0-5.759,0h-.206v-1.182h.617q1.362,0,1.362-.413.027-.051.027-3.547-.027-3.473-.052-3.678a2.273,2.273,0,0,0-.578-1.2,1.739,1.739,0,0,0-1.222-.374,2.783,2.783,0,0,0-2.031.875,3.679,3.679,0,0,0-1.055,2.263c0,.017,0,.176-.013.476s-.012.68-.012,1.143v2.881q0,.334.012.6c.009.18.013.331.013.45v.154q.206.36,1.209.361h.772v1.182h-.207a53.88,53.88,0,0,0-5.759,0h-.206v-1.182h.617q1.362,0,1.363-.413.025-.051.025-3.547-.026-3.473-.051-3.678a2.273,2.273,0,0,0-.578-1.2,1.737,1.737,0,0,0-1.222-.374,2.783,2.783,0,0,0-2.031.875,3.684,3.684,0,0,0-1.055,2.263v.476c0,.3,0,.68-.013,1.143s-.012.9-.012,1.312v.81c0,.283,0,.537.012.759s.013.424.013.6v.6Z" style="fill: #fff"/>
      <path d="M392.092,689.735a.518.518,0,0,1-.181.36H384.66v.385a6.356,6.356,0,0,0,.514,2.881,3.26,3.26,0,0,0,3.188,1.9,2.4,2.4,0,0,0,1.852-.824,3.436,3.436,0,0,0,.8-1.336.869.869,0,0,1,.154-.36.665.665,0,0,1,.411-.077q.514,0,.515.257a1.28,1.28,0,0,1-.077.334,4.958,4.958,0,0,1-1.557,2.2,4.021,4.021,0,0,1-2.609.861,5.838,5.838,0,0,1-1.132-.129,5.331,5.331,0,0,1-2.623-1.336,5.868,5.868,0,0,1-1.646-2.546,6.268,6.268,0,0,1,1.08-5.876,5.234,5.234,0,0,1,3.42-1.89,1.738,1.738,0,0,1,.361-.025,4.513,4.513,0,0,1,3.561,1.375A5.6,5.6,0,0,1,392.092,689.735Zm-2.11-.771q-.231-2.8-1.9-3.4a1.747,1.747,0,0,0-.54-.1,2.557,2.557,0,0,0-2.186,1.234,5.4,5.4,0,0,0-.668,2.288v.181h5.3Z" style="fill: #fff"/>
    </g>
    <g>
      <path d="M68.126,573.037q-.438-.078-4.089-.077-3.6,0-4.037.077h-.309v-1.183h.669a14.589,14.589,0,0,0,1.929-.077,1.665,1.665,0,0,0,.617-.308v-13.3a.626.626,0,0,0-.206.077,7.578,7.578,0,0,1-2.648.489h-.489v-1.183h.489a7.159,7.159,0,0,0,3.6-.977,3.494,3.494,0,0,0,.8-.592c.034-.05.138-.077.309-.077a.652.652,0,0,1,.437.154v7.689l.026,7.715a2.493,2.493,0,0,0,1.672.385h1.517v1.183Z" style="fill: #fff"/>
      <path d="M72.755,557.994a4.535,4.535,0,0,1,3.934-2.083A4.742,4.742,0,0,1,79.98,557.2a5.6,5.6,0,0,1,1.183,1.748,14.724,14.724,0,0,1,.951,5.864,13.42,13.42,0,0,1-1.105,6.093,4.449,4.449,0,0,1-2.109,2.16,4.828,4.828,0,0,1-2.185.541,4.53,4.53,0,0,1-4.32-2.7,13.4,13.4,0,0,1-1.106-6.093,20.069,20.069,0,0,1,.321-3.948A8.619,8.619,0,0,1,72.755,557.994Zm5.785-.308a2.37,2.37,0,0,0-1.825-.823,2.453,2.453,0,0,0-1.852.823,3.092,3.092,0,0,0-.771,1.44,15.777,15.777,0,0,0-.257,2.931c0,.1,0,.437-.013,1s-.013,1.038-.013,1.415q0,2.467.051,3.445a14.636,14.636,0,0,0,.309,2.584,2.917,2.917,0,0,0,.771,1.35,2.284,2.284,0,0,0,1.775.772,2.254,2.254,0,0,0,1.748-.772,2.908,2.908,0,0,0,.771-1.35,14.54,14.54,0,0,0,.309-2.584q.051-.976.052-3.445,0-.566-.013-1.415t-.013-1a15.957,15.957,0,0,0-.257-2.931A3.093,3.093,0,0,0,78.54,557.686Z" style="fill: #fff"/>
    </g>
    <path d="M66.326,609.722a4.537,4.537,0,0,1,3.935-2.083,4.739,4.739,0,0,1,3.291,1.286,5.577,5.577,0,0,1,1.182,1.748,14.72,14.72,0,0,1,.952,5.863,13.423,13.423,0,0,1-1.106,6.094,4.447,4.447,0,0,1-2.108,2.16,4.847,4.847,0,0,1-2.186.54,4.529,4.529,0,0,1-4.32-2.7,13.423,13.423,0,0,1-1.106-6.094,19.972,19.972,0,0,1,.322-3.947A8.618,8.618,0,0,1,66.326,609.722Zm5.785-.309a2.369,2.369,0,0,0-1.825-.822,2.449,2.449,0,0,0-1.851.822,3.1,3.1,0,0,0-.772,1.441,15.763,15.763,0,0,0-.257,2.93c0,.1-.005.438-.012,1s-.014,1.038-.014,1.415q0,2.469.052,3.445a14.633,14.633,0,0,0,.308,2.584,2.922,2.922,0,0,0,.772,1.351,2.282,2.282,0,0,0,1.774.772,2.254,2.254,0,0,0,1.748-.772,2.922,2.922,0,0,0,.772-1.351,14.633,14.633,0,0,0,.308-2.584q.051-.977.052-3.445,0-.565-.013-1.415t-.012-1a15.919,15.919,0,0,0-.258-2.93A3.1,3.1,0,0,0,72.111,609.413Z" style="fill: #fff"/>
    <g>
      <path d="M60.257,510.577a1.432,1.432,0,0,1-1.131-.463,1.642,1.642,0,0,1-.411-1.132,4.216,4.216,0,0,1,1.4-3.175,4.715,4.715,0,0,1,3.356-1.325,5.574,5.574,0,0,1,3.664,1.2,5.02,5.02,0,0,1,1.787,3.124,7.812,7.812,0,0,1,.052.848,4.863,4.863,0,0,1-.9,2.8,17.008,17.008,0,0,1-2.905,2.957q-.925.8-2.571,2.366l-1.518,1.44,1.954.026a30.781,30.781,0,0,0,4.295-.129c.068-.016.154-.2.257-.54a16.466,16.466,0,0,0,.36-1.749v-.077h1.029v.077l-.72,4.706v.077h-9.54v-.488a1.723,1.723,0,0,1,.051-.592q.026-.024,2.16-2.442,2.8-3.111,3.6-4.114a7.462,7.462,0,0,0,1.724-4.295,4.5,4.5,0,0,0-.888-2.841,2.959,2.959,0,0,0-2.481-1.145,2.824,2.824,0,0,0-2.417,1.337c-.034.069-.086.163-.154.284a.54.54,0,0,0-.078.154c0,.016.043.025.129.025a1.309,1.309,0,0,1,1.041.463,1.6,1.6,0,0,1,.4,1.08,1.534,1.534,0,0,1-.424,1.093A1.467,1.467,0,0,1,60.257,510.577Z" style="fill: #fff"/>
      <path d="M72.755,506.565a4.538,4.538,0,0,1,3.934-2.083,4.738,4.738,0,0,1,3.291,1.287,5.579,5.579,0,0,1,1.183,1.748,14.718,14.718,0,0,1,.951,5.863,13.427,13.427,0,0,1-1.105,6.094,4.453,4.453,0,0,1-2.109,2.16,4.84,4.84,0,0,1-2.185.54,4.53,4.53,0,0,1-4.32-2.7,13.412,13.412,0,0,1-1.106-6.094,20.058,20.058,0,0,1,.321-3.947A8.625,8.625,0,0,1,72.755,506.565Zm5.785-.308a2.369,2.369,0,0,0-1.825-.822,2.452,2.452,0,0,0-1.852.822,3.092,3.092,0,0,0-.771,1.44,15.786,15.786,0,0,0-.257,2.931c0,.1,0,.437-.013,1s-.013,1.038-.013,1.415q0,2.467.051,3.445a14.623,14.623,0,0,0,.309,2.584,2.92,2.92,0,0,0,.771,1.351,2.286,2.286,0,0,0,1.775.771,2.256,2.256,0,0,0,1.748-.771,2.911,2.911,0,0,0,.771-1.351,14.527,14.527,0,0,0,.309-2.584q.051-.976.052-3.445,0-.566-.013-1.415t-.013-1a15.966,15.966,0,0,0-.257-2.931A3.093,3.093,0,0,0,78.54,506.257Z" style="fill: #fff"/>
    </g>
    <g>
      <path d="M60.694,458.274a1.4,1.4,0,0,1-1.092-.437,1.614,1.614,0,0,1-.4-1.132,3.106,3.106,0,0,1,1.157-2.455,4.916,4.916,0,0,1,2.674-1.17h.386c.6,0,.977.009,1.132.025a6.236,6.236,0,0,1,1.722.541,3.831,3.831,0,0,1,2.135,2.416,2.53,2.53,0,0,1,.077.695,4.275,4.275,0,0,1-.939,2.713,5.2,5.2,0,0,1-2.353,1.71c-.086.034-.086.06,0,.077a1.7,1.7,0,0,0,.257.077,5.492,5.492,0,0,1,2.65,1.633,3.94,3.94,0,0,1,1.079,2.713,4.481,4.481,0,0,1-.489,2.031,5.1,5.1,0,0,1-2.018,2.173,5.852,5.852,0,0,1-3.124.861,6.148,6.148,0,0,1-3.009-.72,3.7,3.7,0,0,1-1.774-1.928,2.907,2.907,0,0,1-.257-1.26,1.537,1.537,0,0,1,.475-1.17,1.712,1.712,0,0,1,2.328.013,1.57,1.57,0,0,1,.462,1.157,1.642,1.642,0,0,1-.334,1.028,1.513,1.513,0,0,1-.9.566l-.18.051a4.838,4.838,0,0,0,3.189,1.158,2.294,2.294,0,0,0,2.134-1.364,5.891,5.891,0,0,0,.437-2.6v-.515a3.3,3.3,0,0,0-1.645-3.266,5.435,5.435,0,0,0-1.569-.179l-1.08-.026-.077-.051a.945.945,0,0,1-.052-.412.607.607,0,0,1,.077-.385.208.208,0,0,1,.129-.077,9.055,9.055,0,0,0,1.492-.129,2.23,2.23,0,0,0,1.722-1.273,5.671,5.671,0,0,0,.592-2.687,2.448,2.448,0,0,0-.9-2.238,2.14,2.14,0,0,0-1.208-.359,3.813,3.813,0,0,0-2.264.693,1.2,1.2,0,0,0-.232.168,1.659,1.659,0,0,0-.2.218l-.077.1c.051.016.112.034.18.05a1.229,1.229,0,0,1,.861.49,1.565,1.565,0,0,1,.348,1,1.417,1.417,0,0,1-.425,1.041A1.477,1.477,0,0,1,60.694,458.274Z" style="fill: #fff"/>
      <path d="M72.755,455.137a4.535,4.535,0,0,1,3.934-2.083,4.738,4.738,0,0,1,3.291,1.286,5.579,5.579,0,0,1,1.183,1.748,14.722,14.722,0,0,1,.951,5.863,13.424,13.424,0,0,1-1.105,6.094,4.449,4.449,0,0,1-2.109,2.16,4.84,4.84,0,0,1-2.185.54,4.529,4.529,0,0,1-4.32-2.7,13.409,13.409,0,0,1-1.106-6.094A20.058,20.058,0,0,1,71.61,458,8.619,8.619,0,0,1,72.755,455.137Zm5.785-.309a2.369,2.369,0,0,0-1.825-.822,2.452,2.452,0,0,0-1.852.822,3.1,3.1,0,0,0-.771,1.441,15.773,15.773,0,0,0-.257,2.93c0,.1,0,.438-.013,1s-.013,1.038-.013,1.415q0,2.469.051,3.445a14.61,14.61,0,0,0,.309,2.584A2.92,2.92,0,0,0,74.94,469a2.284,2.284,0,0,0,1.775.772A2.254,2.254,0,0,0,78.463,469a2.911,2.911,0,0,0,.771-1.351,14.514,14.514,0,0,0,.309-2.584q.051-.976.052-3.445,0-.565-.013-1.415t-.013-1a15.953,15.953,0,0,0-.257-2.93A3.1,3.1,0,0,0,78.54,454.828Z" style="fill: #fff"/>
    </g>
    <g>
      <path d="M69.309,418.751q-.362-.078-3.318-.077-3.084,0-3.445.077h-.232v-1.183h.8a5.423,5.423,0,0,0,1.364-.129.463.463,0,0,0,.308-.256c.017-.035.026-.5.026-1.389v-1.286H58.148v-1.183l3.883-5.939q3.934-5.967,3.987-5.992a1.338,1.338,0,0,1,.54-.051h.463l.154.154v11.828H69.54v1.183H67.175v1.311c0,.7,0,1.116.013,1.235a.461.461,0,0,0,.141.308,3.261,3.261,0,0,0,1.465.206h.746v1.183Zm-4.346-5.426v-8.589L59.332,413.3l2.8.025Z" style="fill: #fff"/>
      <path d="M72.755,403.708a4.535,4.535,0,0,1,3.934-2.083,4.742,4.742,0,0,1,3.291,1.286,5.579,5.579,0,0,1,1.183,1.748,14.722,14.722,0,0,1,.951,5.863,13.421,13.421,0,0,1-1.105,6.094,4.449,4.449,0,0,1-2.109,2.16,4.827,4.827,0,0,1-2.185.54,4.529,4.529,0,0,1-4.32-2.7,13.406,13.406,0,0,1-1.106-6.094,20.065,20.065,0,0,1,.321-3.947A8.619,8.619,0,0,1,72.755,403.708Zm5.785-.309a2.373,2.373,0,0,0-1.825-.822,2.456,2.456,0,0,0-1.852.822,3.1,3.1,0,0,0-.771,1.441,15.777,15.777,0,0,0-.257,2.931c0,.1,0,.437-.013,1s-.013,1.039-.013,1.415q0,2.469.051,3.446a14.636,14.636,0,0,0,.309,2.584,2.922,2.922,0,0,0,.771,1.35,2.284,2.284,0,0,0,1.775.772,2.254,2.254,0,0,0,1.748-.772,2.913,2.913,0,0,0,.771-1.35,14.54,14.54,0,0,0,.309-2.584q.051-.978.052-3.446,0-.564-.013-1.415t-.013-1a15.957,15.957,0,0,0-.257-2.931A3.1,3.1,0,0,0,78.54,403.4Z" style="fill: #fff"/>
    </g>
    <g>
      <path d="M60.18,361.819a1.418,1.418,0,0,1,1.042.425,1.445,1.445,0,0,1,.424,1.067,1.323,1.323,0,0,1-.437,1,1.392,1.392,0,0,1-.978.413h-.179l.077.128a3.349,3.349,0,0,0,1.183,1.363,3.271,3.271,0,0,0,1.876.54,2.735,2.735,0,0,0,2.624-1.543,7.857,7.857,0,0,0,.488-3.292,6.4,6.4,0,0,0-.695-3.574,2.021,2.021,0,0,0-1.645-.848,3.312,3.312,0,0,0-3.034,1.748.494.494,0,0,1-.193.218,1.127,1.127,0,0,1-.373.039q-.438,0-.489-.154-.051-.1-.051-4.5,0-.772-.012-1.826t-.014-1.337q0-1.44.154-1.44a.149.149,0,0,1,.1-.051l.463.154a9.125,9.125,0,0,0,3.42.669,8.756,8.756,0,0,0,3.5-.721.8.8,0,0,1,.334-.1q.206,0,.206.462v.335a6.577,6.577,0,0,1-5.272,2.494,6.118,6.118,0,0,1-1.44-.155L61,353.282v4.423a4.4,4.4,0,0,1,4.062-1.054,4.873,4.873,0,0,1,2.817,1.954,5.917,5.917,0,0,1,1.093,3.548,5.621,5.621,0,0,1-1.633,4.037,5.365,5.365,0,0,1-4.025,1.7,4.285,4.285,0,0,1-2.752-.9,2.878,2.878,0,0,1-.848-.848,4.56,4.56,0,0,1-.977-2.289c0-.051-.005-.133-.012-.245s-.013-.192-.013-.244a1.534,1.534,0,0,1,.411-1.132A1.429,1.429,0,0,1,60.18,361.819Z" style="fill: #fff"/>
      <path d="M72.755,352.279a4.537,4.537,0,0,1,3.934-2.082,4.741,4.741,0,0,1,3.291,1.285,5.584,5.584,0,0,1,1.183,1.749,14.715,14.715,0,0,1,.951,5.863,13.427,13.427,0,0,1-1.105,6.094,4.453,4.453,0,0,1-2.109,2.16,4.84,4.84,0,0,1-2.185.54,4.53,4.53,0,0,1-4.32-2.7,13.412,13.412,0,0,1-1.106-6.094,20.084,20.084,0,0,1,.321-3.948A8.628,8.628,0,0,1,72.755,352.279Zm5.785-.308a2.367,2.367,0,0,0-1.825-.823,2.45,2.45,0,0,0-1.852.823,3.092,3.092,0,0,0-.771,1.44,15.786,15.786,0,0,0-.257,2.931c0,.1,0,.437-.013,1s-.013,1.037-.013,1.414q0,2.469.051,3.446a14.623,14.623,0,0,0,.309,2.584,2.925,2.925,0,0,0,.771,1.351,2.286,2.286,0,0,0,1.775.771,2.256,2.256,0,0,0,1.748-.771,2.916,2.916,0,0,0,.771-1.351,14.527,14.527,0,0,0,.309-2.584q.051-.977.052-3.446,0-.566-.013-1.414t-.013-1a15.966,15.966,0,0,0-.257-2.931A3.093,3.093,0,0,0,78.54,351.971Z" style="fill: #fff"/>
    </g>
    <g>
      <path d="M67.021,300.44a2.43,2.43,0,0,0-1.595-.643,3.683,3.683,0,0,0-3.009,1.543,8.929,8.929,0,0,0-1.208,5.194l.025.1.206-.334a3.288,3.288,0,0,1,2.854-1.543,4.294,4.294,0,0,1,2.083.489,5.3,5.3,0,0,1,1.234,1.041,6.457,6.457,0,0,1,1,1.453,6.893,6.893,0,0,1,.54,2.751v.463a4.519,4.519,0,0,1-.129,1.105,5.775,5.775,0,0,1-1.593,2.855,4.732,4.732,0,0,1-2.469,1.44,4.358,4.358,0,0,1-1.028.1,4.5,4.5,0,0,1-.874-.077,4.559,4.559,0,0,1-3.036-2.057,12.011,12.011,0,0,1-1.516-6.48,11.329,11.329,0,0,1,.977-4.861,7.693,7.693,0,0,1,2.726-3.239,5.12,5.12,0,0,1,3.008-.977,3.524,3.524,0,0,1,2.4.8,2.755,2.755,0,0,1,.913,2.186,1.417,1.417,0,0,1-.373,1.029,1.312,1.312,0,0,1-.989.386,1.363,1.363,0,0,1-.99-.36,1.33,1.33,0,0,1-.373-1A1.271,1.271,0,0,1,67.021,300.44Zm-1.132,6.171a2.246,2.246,0,0,0-1.852-.925,2.09,2.09,0,0,0-1.543.591,5.573,5.573,0,0,0-1.26,4.063,10.862,10.862,0,0,0,.309,3.162,2.953,2.953,0,0,0,.874,1.312,2.154,2.154,0,0,0,1.466.54,2.308,2.308,0,0,0,2.006-.977,2.838,2.838,0,0,0,.488-1.286,17.087,17.087,0,0,0,.1-2.16v-.823a17.65,17.65,0,0,0-.1-2.211A2.838,2.838,0,0,0,65.889,306.611Z" style="fill: #fff"/>
      <path d="M72.755,300.851a4.534,4.534,0,0,1,3.934-2.082,4.741,4.741,0,0,1,3.291,1.285,5.584,5.584,0,0,1,1.183,1.749,14.715,14.715,0,0,1,.951,5.863,13.427,13.427,0,0,1-1.105,6.094,4.458,4.458,0,0,1-2.109,2.16,4.84,4.84,0,0,1-2.185.54,4.53,4.53,0,0,1-4.32-2.7,13.412,13.412,0,0,1-1.106-6.094,20.076,20.076,0,0,1,.321-3.948A8.628,8.628,0,0,1,72.755,300.851Zm5.785-.309a2.369,2.369,0,0,0-1.825-.822,2.452,2.452,0,0,0-1.852.822,3.1,3.1,0,0,0-.771,1.44,15.79,15.79,0,0,0-.257,2.932c0,.1,0,.437-.013,1s-.013,1.037-.013,1.414q0,2.469.051,3.446a14.636,14.636,0,0,0,.309,2.584,2.922,2.922,0,0,0,.771,1.35,2.279,2.279,0,0,0,1.775.771,2.25,2.25,0,0,0,1.748-.771,2.913,2.913,0,0,0,.771-1.35,14.54,14.54,0,0,0,.309-2.584q.051-.978.052-3.446,0-.566-.013-1.414t-.013-1a15.97,15.97,0,0,0-.257-2.932A3.1,3.1,0,0,0,78.54,300.542Z" style="fill: #fff"/>
    </g>
    <g>
      <path d="M58.843,252.688q.025-.051.437-2.8l.411-2.751c0-.034.171-.051.515-.051h.514v.1c0,.171.129.317.385.437a4.048,4.048,0,0,0,1.351.231q.964.052,4.333.051H69.9v1L68.151,251.3q-.384.54-.874,1.195t-.746,1.016q-.257.36-.308.437a11.874,11.874,0,0,0-1.594,5.58q-.1,1.054-.129,2.88c0,.24,0,.485-.013.733s-.012.45-.012.6v.232a1.323,1.323,0,0,1-.5.746,1.384,1.384,0,0,1-.862.308,1.254,1.254,0,0,1-.99-.424,1.715,1.715,0,0,1-.372-1.17q0-.385.1-1.466A17.964,17.964,0,0,1,64.243,255q.514-.822,2.16-3.111l1.183-1.62H65.194a30.232,30.232,0,0,0-4.706.154c-.068.035-.163.223-.282.566a8.71,8.71,0,0,0-.258,1.209,2.853,2.853,0,0,1-.077.488v.077H58.843Z" style="fill: #fff"/>
      <path d="M72.755,249.422a4.537,4.537,0,0,1,3.934-2.082,4.746,4.746,0,0,1,3.291,1.285,5.584,5.584,0,0,1,1.183,1.749,14.715,14.715,0,0,1,.951,5.863,13.424,13.424,0,0,1-1.105,6.094,4.453,4.453,0,0,1-2.109,2.16,4.84,4.84,0,0,1-2.185.54,4.53,4.53,0,0,1-4.32-2.7,13.409,13.409,0,0,1-1.106-6.094,20.065,20.065,0,0,1,.321-3.947A8.625,8.625,0,0,1,72.755,249.422Zm5.785-.308a2.367,2.367,0,0,0-1.825-.823,2.45,2.45,0,0,0-1.852.823,3.092,3.092,0,0,0-.771,1.44,15.786,15.786,0,0,0-.257,2.931c0,.1,0,.437-.013,1s-.013,1.037-.013,1.414q0,2.469.051,3.446a14.651,14.651,0,0,0,.309,2.585,2.922,2.922,0,0,0,.771,1.35,2.283,2.283,0,0,0,1.775.771,2.253,2.253,0,0,0,1.748-.771,2.913,2.913,0,0,0,.771-1.35,14.554,14.554,0,0,0,.309-2.585q.051-.977.052-3.446,0-.565-.013-1.414t-.013-1a15.966,15.966,0,0,0-.257-2.931A3.093,3.093,0,0,0,78.54,249.114Z" style="fill: #fff"/>
    </g>
    <g>
      <path d="M61.852,204.422A7.627,7.627,0,0,1,59.91,202.7a3.821,3.821,0,0,1-.681-2.366,3.778,3.778,0,0,1,.412-1.852,4.572,4.572,0,0,1,1.658-1.864,4.514,4.514,0,0,1,2.507-.707,5.1,5.1,0,0,1,3.034.913,3.8,3.8,0,0,1,1.595,2.353,4.894,4.894,0,0,1,.025.617,3.874,3.874,0,0,1-.051.771,4.809,4.809,0,0,1-2.341,2.932l-.308.2q1.44.978,1.492,1.029a4.726,4.726,0,0,1,1.928,3.831,4.775,4.775,0,0,1-1.53,3.562,5.28,5.28,0,0,1-3.818,1.479,5.138,5.138,0,0,1-4.654-2.315,3.822,3.822,0,0,1-.644-2.237Q58.534,206.249,61.852,204.422ZM60.18,209a3.22,3.22,0,0,0,1.106,2.507,3.733,3.733,0,0,0,2.571.99,4.18,4.18,0,0,0,1.916-.437,3.193,3.193,0,0,0,1.3-1.132,2.539,2.539,0,0,0,.438-1.414,2.611,2.611,0,0,0-.9-1.954q-.2-.207-2.133-1.466l-.785-.5q-.425-.27-.656-.424l-.2-.128-.308.154a5,5,0,0,0-2.135,2.571A4.2,4.2,0,0,0,60.18,209Zm6.789-9.155a2.65,2.65,0,0,0-.72-1.877,3.2,3.2,0,0,0-1.749-.977,8.187,8.187,0,0,0-.849-.026,3.109,3.109,0,0,0-2.288.926,1.86,1.86,0,0,0-.643,1.414,2.021,2.021,0,0,0,.926,1.749q.127.129,1.646,1.08l1.491.977c.017-.017.128-.09.334-.218a2.646,2.646,0,0,0,.463-.348A3.339,3.339,0,0,0,66.969,199.845Z" style="fill: #fff"/>
      <path d="M72.755,197.994a4.535,4.535,0,0,1,3.934-2.083A4.742,4.742,0,0,1,79.98,197.2a5.579,5.579,0,0,1,1.183,1.748,14.718,14.718,0,0,1,.951,5.863,13.424,13.424,0,0,1-1.105,6.094,4.449,4.449,0,0,1-2.109,2.16,4.841,4.841,0,0,1-2.185.541,4.531,4.531,0,0,1-4.32-2.7,13.409,13.409,0,0,1-1.106-6.094,20.065,20.065,0,0,1,.321-3.947A8.619,8.619,0,0,1,72.755,197.994Zm5.785-.309a2.37,2.37,0,0,0-1.825-.823,2.453,2.453,0,0,0-1.852.823,3.1,3.1,0,0,0-.771,1.44,15.79,15.79,0,0,0-.257,2.932c0,.1,0,.437-.013,1s-.013,1.037-.013,1.414q0,2.469.051,3.445a14.638,14.638,0,0,0,.309,2.585,2.922,2.922,0,0,0,.771,1.35,2.283,2.283,0,0,0,1.775.771,2.253,2.253,0,0,0,1.748-.771,2.913,2.913,0,0,0,.771-1.35,14.541,14.541,0,0,0,.309-2.585q.051-.977.052-3.445,0-.565-.013-1.414t-.013-1a15.97,15.97,0,0,0-.257-2.932A3.1,3.1,0,0,0,78.54,197.685Z" style="fill: #fff"/>
    </g>
    <g>
      <path d="M61.877,159.139a1.461,1.461,0,0,1-.27.9,1.093,1.093,0,0,1-.707.437l-.1.025c0,.018.06.064.181.142a1.034,1.034,0,0,0,.282.141,3.67,3.67,0,0,0,1.466.257,2.888,2.888,0,0,0,.669-.051,3.527,3.527,0,0,0,2.083-1.6q1-1.438,1-4.988v-.18l-.128.206a3.288,3.288,0,0,1-2.957,1.748,4.358,4.358,0,0,1-3.5-1.774,6.877,6.877,0,0,1-.99-6.454,6.183,6.183,0,0,1,1.376-1.929,5.083,5.083,0,0,1,3.189-1.517l.077-.026h.129c.034,0,.09,0,.167.013a1.692,1.692,0,0,0,.192.013,3.527,3.527,0,0,1,.746.052,4.868,4.868,0,0,1,3.266,2.648,13.169,13.169,0,0,1,1.1,5.812,11.36,11.36,0,0,1-1.543,6.094,7,7,0,0,1-2.173,2.25,4.881,4.881,0,0,1-2.661.81,4.182,4.182,0,0,1-2.61-.759,2.6,2.6,0,0,1-.989-2.2q0-1.439,1.362-1.44a1.263,1.263,0,0,1,1.337,1.363Zm2.6-13.551a3.922,3.922,0,0,0-.72-.051,2.278,2.278,0,0,0-1.672.694,2.739,2.739,0,0,0-.707,1.35,14.679,14.679,0,0,0-.167,2.687,23.478,23.478,0,0,0,.128,2.777,2.579,2.579,0,0,0,.759,1.581,2.227,2.227,0,0,0,1.607.6h.1a2.364,2.364,0,0,0,2.018-1.453,7.469,7.469,0,0,0,.63-3.227,14.106,14.106,0,0,0-.2-2.88,2.772,2.772,0,0,0-.63-1.338A2.164,2.164,0,0,0,64.475,145.588Z" style="fill: #fff"/>
      <path d="M72.755,146.565a4.535,4.535,0,0,1,3.934-2.083,4.742,4.742,0,0,1,3.291,1.286,5.572,5.572,0,0,1,1.183,1.749,14.71,14.71,0,0,1,.951,5.862,13.429,13.429,0,0,1-1.105,6.095,4.458,4.458,0,0,1-2.109,2.16,4.84,4.84,0,0,1-2.185.54,4.532,4.532,0,0,1-4.32-2.7,13.414,13.414,0,0,1-1.106-6.095,20.072,20.072,0,0,1,.321-3.947A8.619,8.619,0,0,1,72.755,146.565Zm5.785-.309a2.369,2.369,0,0,0-1.825-.822,2.452,2.452,0,0,0-1.852.822,3.1,3.1,0,0,0-.771,1.44,15.79,15.79,0,0,0-.257,2.932c0,.1,0,.437-.013,1s-.013,1.037-.013,1.414q0,2.469.051,3.446a14.636,14.636,0,0,0,.309,2.584,2.922,2.922,0,0,0,.771,1.35,2.283,2.283,0,0,0,1.775.771,2.253,2.253,0,0,0,1.748-.771,2.913,2.913,0,0,0,.771-1.35,14.54,14.54,0,0,0,.309-2.584q.051-.978.052-3.446,0-.565-.013-1.414t-.013-1a15.97,15.97,0,0,0-.257-2.932A3.1,3.1,0,0,0,78.54,146.256Z" style="fill: #fff"/>
    </g>
    <g>
      <path d="M61.7,110.179q-.438-.077-4.089-.077-3.6,0-4.037.077h-.308V109h.669a14.325,14.325,0,0,0,1.928-.078,1.674,1.674,0,0,0,.618-.308v-13.3a.608.608,0,0,0-.207.078,7.6,7.6,0,0,1-2.648.488h-.488V94.7h.488a7.173,7.173,0,0,0,3.6-.977,3.566,3.566,0,0,0,.8-.591c.034-.052.137-.077.308-.077a.649.649,0,0,1,.438.154V100.9l.025,7.715a2.492,2.492,0,0,0,1.672.386H61.98v1.182Z" style="fill: #fff"/>
      <path d="M66.326,95.136a4.538,4.538,0,0,1,3.935-2.082,4.743,4.743,0,0,1,3.291,1.285,5.582,5.582,0,0,1,1.182,1.749,14.713,14.713,0,0,1,.952,5.863,13.423,13.423,0,0,1-1.106,6.094,4.452,4.452,0,0,1-2.108,2.16,4.847,4.847,0,0,1-2.186.54,4.53,4.53,0,0,1-4.32-2.7,13.423,13.423,0,0,1-1.106-6.094A19.99,19.99,0,0,1,65.182,98,8.626,8.626,0,0,1,66.326,95.136Zm5.785-.308a2.367,2.367,0,0,0-1.825-.823,2.446,2.446,0,0,0-1.851.823,3.093,3.093,0,0,0-.772,1.44,15.777,15.777,0,0,0-.257,2.931c0,.1-.005.437-.012,1s-.014,1.037-.014,1.414q0,2.469.052,3.446a14.647,14.647,0,0,0,.308,2.584A2.927,2.927,0,0,0,68.512,109a2.281,2.281,0,0,0,1.774.771A2.253,2.253,0,0,0,72.034,109a2.927,2.927,0,0,0,.772-1.351,14.647,14.647,0,0,0,.308-2.584q.051-.977.052-3.446,0-.566-.013-1.414t-.012-1a15.933,15.933,0,0,0-.258-2.931A3.093,3.093,0,0,0,72.111,94.828Z" style="fill: #fff"/>
      <path d="M79.183,95.136a4.537,4.537,0,0,1,3.934-2.082,4.741,4.741,0,0,1,3.291,1.285,5.584,5.584,0,0,1,1.183,1.749,14.715,14.715,0,0,1,.951,5.863,13.424,13.424,0,0,1-1.105,6.094,4.453,4.453,0,0,1-2.109,2.16,4.843,4.843,0,0,1-2.185.54,4.532,4.532,0,0,1-4.321-2.7,13.424,13.424,0,0,1-1.105-6.094A20,20,0,0,1,78.038,98,8.628,8.628,0,0,1,79.183,95.136Zm5.785-.308a2.369,2.369,0,0,0-1.825-.823,2.45,2.45,0,0,0-1.852.823,3.083,3.083,0,0,0-.771,1.44,15.777,15.777,0,0,0-.257,2.931c0,.1-.005.437-.013,1s-.014,1.037-.014,1.414q0,2.469.052,3.446a14.527,14.527,0,0,0,.309,2.584A2.916,2.916,0,0,0,81.368,109a2.283,2.283,0,0,0,1.775.771A2.253,2.253,0,0,0,84.891,109a2.925,2.925,0,0,0,.771-1.351,14.623,14.623,0,0,0,.309-2.584q.051-.977.051-3.446,0-.566-.012-1.414T86,99.2a15.842,15.842,0,0,0-.258-2.931A3.083,3.083,0,0,0,84.968,94.828Z" style="fill: #fff"/>
    </g>
    <g>
      <path d="M20.274,399.009a1.053,1.053,0,0,0-.308.5,10.439,10.439,0,0,0-.077,1.3v.848H18.706v-5.169q.025-4.4.038-4.911a5.518,5.518,0,0,1,.142-1.08,7.252,7.252,0,0,1,2.674-4.229,9.747,9.747,0,0,1,4.962-2.071c.344-.034.712-.051,1.107-.051s.763.017,1.105.051a8.964,8.964,0,0,1,4.924,2.186,7.622,7.622,0,0,1,2.533,4.6q.052.335.078,5.5v5.169H35.086v-.848a10.656,10.656,0,0,0-.077-1.3,1.048,1.048,0,0,0-.309-.5Zm-.36-6.815v.348q0,.3-.013.732t-.012.8c0,.241,0,.506.012.8s.013.531.013.72v.334c.018.223.086.36.206.411q.1.078,7.3.077,7.251,0,7.328-.025a.356.356,0,0,0,.283-.309q.051-.206.052-2.442A10.638,10.638,0,0,0,34.828,391a5.131,5.131,0,0,0-1-1.891q-1.671-2.005-6.249-2a14.971,14.971,0,0,0-2.674.18,5.7,5.7,0,0,0-4.115,2.392A5.427,5.427,0,0,0,19.914,392.194Z" style="fill: #fff"/>
      <path d="M19.065,379.338a1.662,1.662,0,0,1,.451-1.055,1.45,1.45,0,0,1,1.092-.411,1.378,1.378,0,0,1,1.312.694,1.413,1.413,0,0,1,.231.823,1.455,1.455,0,0,1-.231.848,1.377,1.377,0,0,1-1.312.695,1.452,1.452,0,0,1-1.13-.451A1.623,1.623,0,0,1,19.065,379.338Zm17.2-2.984a21.754,21.754,0,0,0-.078,2.675,26.852,26.852,0,0,0,.078,2.8v.2H35.086v-.411a9.09,9.09,0,0,0-.077-1.26.554.554,0,0,0-.283-.308q-.052-.025-3.729-.026a35.443,35.443,0,0,0-4.114.1q-.515.206-.515,1.516v.284h-.591q-.591,0-.591-.052l-.026-.257c-.016-.171-.034-.411-.052-.72s-.034-.617-.051-.926q-.025-.437-.064-.925t-.064-.746c-.017-.171-.026-.266-.026-.283v-.077h9.771a.6.6,0,0,0,.322-.308,4.119,4.119,0,0,0,.09-.9v-.592h1.183Z" style="fill: #fff"/>
      <path d="M25.623,370.672q0,2.365,1.671,2.366a1.145,1.145,0,0,0,.437-.052,1.537,1.537,0,0,0,.887-.8,7.73,7.73,0,0,0,.5-1.749,6.943,6.943,0,0,1,.566-2,3.722,3.722,0,0,1,2.545-2.083,4.671,4.671,0,0,1,.618-.026,4.136,4.136,0,0,1,1.774.361q1.9,1,1.9,3.779a4.093,4.093,0,0,1-.925,2.675l.18.2.232.231c.1.1.2.206.282.309l.258.283v.206a.467.467,0,0,1-.155.334H34.365c-1.113,0-1.757,0-1.927-.013s-.275-.047-.309-.116a1.58,1.58,0,0,1-.026-.411.858.858,0,0,1,.051-.4.84.84,0,0,1,.361-.142,5.912,5.912,0,0,0,1.773-.668,2.862,2.862,0,0,0,1.312-2.5q0-2.493-2.005-2.494a1.633,1.633,0,0,0-1.209.463,2.242,2.242,0,0,0-.7,1.08q-.1.438-.283,1.234a8.777,8.777,0,0,1-.54,1.954,3.21,3.21,0,0,1-2.39,1.981,2,2,0,0,1-.386.025q-2.958,0-3.318-3.626a1.672,1.672,0,0,1,0-.617,3.98,3.98,0,0,1,.386-1.8l.2-.386-.179-.231a6.353,6.353,0,0,1-.437-.566v-.206a.467.467,0,0,1,.154-.334H28.3l.154.155v.719a.438.438,0,0,1-.308.155,2.4,2.4,0,0,0-1.852.72A2.8,2.8,0,0,0,25.623,370.672Z" style="fill: #fff"/>
      <path d="M20.84,361.8h-.386v-1.029h4.732V357.3h1.182v3.471h3.7q3.216-.024,3.639-.038a2.316,2.316,0,0,0,.81-.168,1.291,1.291,0,0,0,1-1.259q0-1.131-1.825-1.389c-.136-.017-.531-.025-1.182-.025h-.9v-1.029h.9a7.788,7.788,0,0,1,1.7.129,3.524,3.524,0,0,1,1.672.964,2.5,2.5,0,0,1,.642,1.787,2.929,2.929,0,0,1-2.828,3.163q-.18.026-3.805.026H26.368v2.031h-.951v-.232a2.377,2.377,0,0,0-.822-1.62A5.693,5.693,0,0,0,20.84,361.8Z" style="fill: #fff"/>
      <path d="M28.015,351.451a1.32,1.32,0,0,1,.411.989,1.279,1.279,0,0,1-.411.977,1.38,1.38,0,0,1-.978.386,2.065,2.065,0,0,1-.823-.2,2.305,2.305,0,0,1-1.08-1.338,6.826,6.826,0,0,1-.385-2.443,5.481,5.481,0,0,1,.771-2.943,3.6,3.6,0,0,1,2-1.633,2.639,2.639,0,0,1,.811-.142q.45-.012,2.944-.013,2.52,0,2.945-.013a1.449,1.449,0,0,0,.655-.141.529.529,0,0,0,.36-.515.513.513,0,0,0-.36-.488,3.939,3.939,0,0,0-1.414-.154H32.54v-1.029h1a8.249,8.249,0,0,1,1.208.077,2.416,2.416,0,0,1,1.2.849,2.325,2.325,0,0,1,.476,1.466,1.67,1.67,0,0,1-.45,1.144,2.252,2.252,0,0,1-1.093.681h-.1q.077.078.347.309c.181.154.3.266.373.334a4.431,4.431,0,0,1,1.055,2.932,4.977,4.977,0,0,1-.567,2.391,2.891,2.891,0,0,1-1.491,1.414,2.481,2.481,0,0,1-.976.206,3.072,3.072,0,0,1-2.212-1,4.761,4.761,0,0,1-.978-1.465,12.62,12.62,0,0,1-.951-4.475v-.36h-.565a3.972,3.972,0,0,0-1.287.154,2.454,2.454,0,0,0-1.825,2.5q0,1.722.205,1.723a1.285,1.285,0,0,1,1.132-.566A1.359,1.359,0,0,1,28.015,351.451Zm3.754-4.205q-1.492,0-1.492.026a.286.286,0,0,0,.026.128q.231,3.525,2.083,4.5a2.355,2.355,0,0,0,1.157.283,1.948,1.948,0,0,0,1.466-.617,2.109,2.109,0,0,0,.591-1.517,2.636,2.636,0,0,0-.618-1.761,2.881,2.881,0,0,0-1.516-.965A14.448,14.448,0,0,0,31.769,347.246Z" style="fill: #fff"/>
      <path d="M34.726,337.732q.36-.205.36-1.209v-.771h1.183v.206a53.208,53.208,0,0,0,0,5.76v.2H35.086v-.771c0-.669-.12-1.071-.36-1.209h-.8c-.241,0-.51,0-.811-.012s-.634-.013-1-.013H31.049c-.531,0-1.1,0-1.71.013s-1.11.012-1.5.012h-.591a.856.856,0,0,0-.656.373,3.022,3.022,0,0,0-.219,1.144v.463h-.591c-.394,0-.591-.016-.591-.051l-.026-.257c-.016-.171-.034-.415-.052-.733s-.034-.63-.051-.939q-.025-.437-.064-.925c-.026-.326-.047-.574-.064-.746s-.026-.266-.026-.283v-.077h1.029a6.761,6.761,0,0,0,.976-.026l-.025-.025a4.521,4.521,0,0,1-1.98-3.935,3,3,0,0,1,2.906-3.265q.18-.026,3.574-.026,3.291,0,3.343-.026a.554.554,0,0,0,.283-.308,9.09,9.09,0,0,0,.077-1.26v-.412h1.183v.206a53.208,53.208,0,0,0,0,5.76v.206H35.086v-.617q0-1.364-.412-1.363-.051-.026-3.548-.026-3.471.026-3.678.051a2.266,2.266,0,0,0-1.2.579,1.739,1.739,0,0,0-.373,1.221,2.79,2.79,0,0,0,.874,2.032,3.683,3.683,0,0,0,2.264,1.054h.475q.45,0,1.144.013t1.311.013h.811c.282,0,.536,0,.759-.013s.423-.013.6-.013h.6Z" style="fill: #fff"/>
      <path d="M28.053,318.279a1.393,1.393,0,0,1,.373.99,1.3,1.3,0,0,1-.4.977,1.413,1.413,0,0,1-1.941,0c-.086-.085-.138-.124-.154-.116s-.035.091-.052.245a8.387,8.387,0,0,0-.1,1.26,2.638,2.638,0,0,0,.823,2.057,5.572,5.572,0,0,0,4.037,1.208,5.975,5.975,0,0,0,3.317-.8,3.254,3.254,0,0,0,1.568-2.829,2.385,2.385,0,0,0-.256-1.131,2.993,2.993,0,0,0-2.006-1.492.434.434,0,0,1-.257-.129.953.953,0,0,1-.052-.411v-.36c.1-.1.181-.154.232-.154a3.428,3.428,0,0,1,1.517.642,4.161,4.161,0,0,1,1.852,3.626,5.3,5.3,0,0,1-.592,2.443,5.668,5.668,0,0,1-4.371,3.06,7.353,7.353,0,0,1-.823.026,8.187,8.187,0,0,1-.849-.026,5.949,5.949,0,0,1-3.935-2.109,5.346,5.346,0,0,1-1.233-3.42q0-3.316,1.748-3.882a1.886,1.886,0,0,1,.592-.078A1.262,1.262,0,0,1,28.053,318.279Z" style="fill: #fff"/>
      <path d="M29.969,306.181a.515.515,0,0,1,.359.18v7.251h.386A6.361,6.361,0,0,0,33.6,313.1a3.261,3.261,0,0,0,1.9-3.188,2.4,2.4,0,0,0-.823-1.852,3.427,3.427,0,0,0-1.337-.8.9.9,0,0,1-.359-.154.668.668,0,0,1-.078-.412c0-.342.086-.514.257-.514a1.232,1.232,0,0,1,.334.077,4.951,4.951,0,0,1,2.2,1.556,4.019,4.019,0,0,1,.862,2.61,5.829,5.829,0,0,1-.129,1.131,5.337,5.337,0,0,1-1.337,2.623,6.048,6.048,0,0,1-4.423,1.954,5.962,5.962,0,0,1-4-1.388,5.234,5.234,0,0,1-1.89-3.42,1.793,1.793,0,0,1-.025-.36,4.515,4.515,0,0,1,1.375-3.562A5.6,5.6,0,0,1,29.969,306.181ZM29.2,308.29q-2.8.231-3.394,1.9a1.748,1.748,0,0,0-.1.54,2.554,2.554,0,0,0,1.235,2.186,5.4,5.4,0,0,0,2.288.669h.18v-5.3Z" style="fill: #fff"/>
    </g>
    <g>
      <path d="M642.029,103.793a1.09,1.09,0,0,1,.784.283.984.984,0,0,1,.3.746,1.635,1.635,0,0,1-.244.848,1.566,1.566,0,0,1-.656.618,3.58,3.58,0,0,1-.359.129c-.036.017-.065.029-.09.038s-.031.022-.014.039a1.308,1.308,0,0,0,.463.334,4.262,4.262,0,0,0,1.955.385,3,3,0,0,0,2.751-1.259,2.343,2.343,0,0,0,.386-1.183,1.319,1.319,0,0,0-.849-1.235,4.753,4.753,0,0,0-1.285-.36c-.087-.017-.219-.047-.4-.09s-.3-.068-.36-.077a1.957,1.957,0,0,1-.258-.064c-.111-.034-.2-.065-.256-.09a2.187,2.187,0,0,1-.206-.1c-.078-.043-.167-.1-.27-.167a2.432,2.432,0,0,1-1.055-2.109,3.761,3.761,0,0,1,1.055-2.6,4.166,4.166,0,0,1,3.291-1.337q2.495,0,3.009,1.749a1.524,1.524,0,0,1,.052.488,1.736,1.736,0,0,1-.386,1.17,1.285,1.285,0,0,1-1.029.45.955.955,0,0,1-.668-.232.815.815,0,0,1-.257-.642,1.289,1.289,0,0,1,.771-1.234,1.22,1.22,0,0,1,.232-.1c.05,0,.042-.043-.027-.129a2.535,2.535,0,0,0-1.774-.565,2.6,2.6,0,0,0-1.7.565,1.805,1.805,0,0,0-.7,1.466,1.1,1.1,0,0,0,.386.823,3.419,3.419,0,0,0,1.311.463,7.983,7.983,0,0,1,1.542.437,2.867,2.867,0,0,1,1.621,1.8,3.17,3.17,0,0,1,.077.668,4.375,4.375,0,0,1-.437,1.826q-1.262,2.623-4.731,2.623-2.753,0-3.472-1.594a2.112,2.112,0,0,1-.18-.9,1.953,1.953,0,0,1,.476-1.337A1.526,1.526,0,0,1,642.029,103.793Z" style="fill: #58c4dd"/>
      <path d="M659.617,114.105q0,.231-.463.231h-.334l-.719-.617q-4.629-4.218-4.629-12.24a20.705,20.705,0,0,1,.746-5.734,13.869,13.869,0,0,1,3.883-6.506c.119-.1.256-.218.411-.347s.257-.219.308-.27h.334a.613.613,0,0,1,.386.077.219.219,0,0,1,.077.155c0,.068-.094.2-.282.385q-3.986,4.218-3.986,12.24t3.986,12.24C659.523,113.908,659.617,114.036,659.617,114.105Z" style="fill: #fff"/>
      <path d="M661.727,98.008c-.121-.12-.181-.206-.181-.258a2.067,2.067,0,0,1,.09-.424,1.673,1.673,0,0,1,.116-.347.252.252,0,0,1,.244-.141q.193-.013,1.3-.013h1.362l.489-2.057q.54-2.083.618-2.237a1.165,1.165,0,0,1,1.182-.72.991.991,0,0,1,.578.231.669.669,0,0,1,.246.54,16.392,16.392,0,0,1-.49,2.186q-.1.438-.244.964c-.095.351-.167.613-.219.784l-.05.257a5.964,5.964,0,0,0,1.285.052h1.311c.12.12.18.215.18.283a1.216,1.216,0,0,1-.334.9h-2.751l-.926,3.728q-.952,3.832-.977,4.037a2.057,2.057,0,0,0-.026.386q0,1.08.7,1.08a1.61,1.61,0,0,0,.308-.026,3.7,3.7,0,0,0,2.34-2.057,5.542,5.542,0,0,0,.463-.951.317.317,0,0,1,.128-.193,1.133,1.133,0,0,1,.386-.038c.342,0,.514.068.514.2a1.438,1.438,0,0,1-.1.309,6.067,6.067,0,0,1-.913,1.658,6.761,6.761,0,0,1-1.273,1.325,3.312,3.312,0,0,1-2.032.719,2.619,2.619,0,0,1-1.581-.475,2.323,2.323,0,0,1-.887-1.247,3.182,3.182,0,0,1-.052-.7v-.462l.9-3.6q.9-3.625.926-3.651a6.367,6.367,0,0,0-1.311-.051Z" style="fill: #fff"/>
      <path d="M671.883,88.648l.1-.026h.567l.719.617q4.629,4.218,4.628,12.24a20.294,20.294,0,0,1-.745,5.709,13.876,13.876,0,0,1-3.883,6.531q-.18.155-.412.347c-.154.129-.256.219-.307.27h-.309a.973.973,0,0,1-.4-.051c-.06-.035-.09-.12-.09-.257.017-.018.111-.129.283-.335q3.985-4.14,3.985-12.214t-3.985-12.214q-.258-.309-.283-.334A.3.3,0,0,1,671.883,88.648Z" style="fill: #fff"/>
    </g>
  </g>
</svg>
