<svg xmlns="http://www.w3.org/2000/svg" width="840" height="840" viewBox="0 0 840 840">
  <rect width="840" height="840"/>
  <g>
    <g>
      <g>
        <line x1="150" y1="120" x2="150" y2="720" style="fill: none;stroke: #fff;stroke-miterlimit: 24;opacity: 0.2"/>
        <line x1="180" y1="120" x2="180" y2="720" style="fill: none;stroke: #fff;stroke-miterlimit: 24;opacity: 0.2"/>
        <line x1="210" y1="120" x2="210" y2="720" style="fill: none;stroke: #fff;stroke-miterlimit: 24;opacity: 0.2"/>
        <line x1="240" y1="120" x2="240" y2="720" style="fill: none;stroke: #fff;stroke-miterlimit: 24;opacity: 0.2"/>
        <line x1="300" y1="120" x2="300" y2="720" style="fill: none;stroke: #fff;stroke-miterlimit: 24;opacity: 0.2"/>
        <line x1="330" y1="120" x2="330" y2="720" style="fill: none;stroke: #fff;stroke-miterlimit: 24;opacity: 0.2"/>
        <line x1="360" y1="120" x2="360" y2="720" style="fill: none;stroke: #fff;stroke-miterlimit: 24;opacity: 0.2"/>
        <line x1="390" y1="120" x2="390" y2="720" style="fill: none;stroke: #fff;stroke-miterlimit: 24;opacity: 0.2"/>
        <line x1="450" y1="120" x2="450" y2="720" style="fill: none;stroke: #fff;stroke-miterlimit: 24;opacity: 0.2"/>
        <line x1="480" y1="120" x2="480" y2="720" style="fill: none;stroke: #ff0;stroke-miterlimit: 24;opacity: 0.2"/>
        <line x1="510" y1="120" x2="510" y2="720" style="fill: none;stroke: #fff;stroke-miterlimit: 24;opacity: 0.2"/>
        <line x1="540" y1="120" x2="540" y2="720" style="fill: none;stroke: #fff;stroke-miterlimit: 24;opacity: 0.2"/>
        <line x1="600" y1="120" x2="600" y2="720" style="fill: none;stroke: #fff;stroke-miterlimit: 24;opacity: 0.2"/>
        <line x1="630" y1="120" x2="630" y2="720" style="fill: none;stroke: #fff;stroke-miterlimit: 24;opacity: 0.2"/>
        <line x1="660" y1="120" x2="660" y2="720" style="fill: none;stroke: #fff;stroke-miterlimit: 24;opacity: 0.2"/>
        <line x1="690" y1="120" x2="690" y2="720" style="fill: none;stroke: #fff;stroke-miterlimit: 24;opacity: 0.2"/>
        <line x1="120" y1="150" x2="720" y2="150" style="fill: none;stroke: #fff;stroke-miterlimit: 24;opacity: 0.2"/>
        <line x1="120" y1="180" x2="720" y2="180" style="fill: none;stroke: #fff;stroke-miterlimit: 24;opacity: 0.2"/>
        <line x1="120" y1="210" x2="720" y2="210" style="fill: none;stroke: #fff;stroke-miterlimit: 24;opacity: 0.2"/>
        <line x1="120" y1="240" x2="720" y2="240" style="fill: none;stroke: #fff;stroke-miterlimit: 24;opacity: 0.2"/>
        <line x1="120" y1="300" x2="720" y2="300" style="fill: none;stroke: #fff;stroke-miterlimit: 24;opacity: 0.2"/>
        <line x1="120" y1="330" x2="720" y2="330" style="fill: none;stroke: #fff;stroke-miterlimit: 24;opacity: 0.2"/>
        <line x1="120" y1="360" x2="720" y2="360" style="fill: none;stroke: #fff;stroke-miterlimit: 24;opacity: 0.2"/>
        <line x1="120" y1="390" x2="720" y2="390" style="fill: none;stroke: #fff;stroke-miterlimit: 24;opacity: 0.2"/>
        <line x1="120" y1="450" x2="720" y2="450" style="fill: none;stroke: #fff;stroke-miterlimit: 24;opacity: 0.2"/>
        <line x1="120" y1="480" x2="720" y2="480" style="fill: none;stroke: #fff;stroke-miterlimit: 24;opacity: 0.2"/>
        <line x1="120" y1="510" x2="720" y2="510" style="fill: none;stroke: #fff;stroke-miterlimit: 24;opacity: 0.2"/>
        <line x1="120" y1="540" x2="720" y2="540" style="fill: none;stroke: #fff;stroke-miterlimit: 24;opacity: 0.2"/>
        <line x1="120" y1="600" x2="720" y2="600" style="fill: none;stroke: #fff;stroke-miterlimit: 24;opacity: 0.2"/>
        <line x1="120" y1="630" x2="720" y2="630" style="fill: none;stroke: #fff;stroke-miterlimit: 24;opacity: 0.2"/>
        <line x1="120" y1="660" x2="720" y2="660" style="fill: none;stroke: #fff;stroke-miterlimit: 24;opacity: 0.2"/>
        <line x1="120" y1="690" x2="720" y2="690" style="fill: none;stroke: #fff;stroke-miterlimit: 24;opacity: 0.2"/>
      </g>
      <g>
        <line x1="270" y1="120" x2="270" y2="720" style="fill: none;stroke: #fff;stroke-miterlimit: 24;opacity: 0.4"/>
        <line x1="570" y1="120" x2="570" y2="720" style="fill: none;stroke: #fff;stroke-miterlimit: 24;opacity: 0.4"/>
        <line x1="120" y1="270" x2="720" y2="270" style="fill: none;stroke: #fff;stroke-miterlimit: 24;opacity: 0.4"/>
        <line x1="120" y1="570" x2="720" y2="570" style="fill: none;stroke: #fff;stroke-miterlimit: 24;opacity: 0.4"/>
      </g>
      <g>
        <line x1="120" y1="120" x2="120" y2="720" style="fill: none;stroke: #fff;stroke-miterlimit: 24;opacity: 0.6000000000000001"/>
        <line x1="420" y1="120" x2="420" y2="720" style="fill: none;stroke: #fff;stroke-miterlimit: 24;opacity: 0.6000000000000001"/>
        <line x1="720" y1="120" x2="720" y2="720" style="fill: none;stroke: #fff;stroke-miterlimit: 24;opacity: 0.6000000000000001"/>
        <line x1="120" y1="120" x2="720" y2="120" style="fill: none;stroke: #fff;stroke-miterlimit: 24;opacity: 0.6000000000000001"/>
        <line x1="120" y1="420" x2="720" y2="420" style="fill: none;stroke: #fff;stroke-miterlimit: 24;opacity: 0.6000000000000001"/>
        <line x1="120" y1="720" x2="720" y2="720" style="fill: none;stroke: #fff;stroke-miterlimit: 24;opacity: 0.6000000000000001"/>
      </g>
    </g>
    <path d="M120,720.028h0c39.853-2.83,80.5-7.452,117.5-23.65,25.149-10.936,47.505-27.877,65.833-48.4,22.845-25.461,40.363-55.3,55.834-85.792,19.1-37.949,35.1-77.426,50.833-116.9,19.613-49.235,38.37-98.914,60.833-146.913,17.52-37.007,37.141-73.633,64.167-104.478,18.263-20.876,40.581-38.263,65.833-49.526,37.158-16.693,78.162-21.447,118.334-24.338" style="fill: none;stroke: #58c4dd;stroke-miterlimit: 10;stroke-width: 1.5px"/>
  </g>
  <g>
    <path d="M184.98,758.542q-.51-.09-4.77-.09-4.2,0-4.71.09h-.359v-1.38h.779a16.9,16.9,0,0,0,2.25-.09,1.917,1.917,0,0,0,.721-.36V741.2a.727.727,0,0,0-.241.09,8.827,8.827,0,0,1-3.089.57h-.571v-1.38h.571a8.369,8.369,0,0,0,4.2-1.14,4.134,4.134,0,0,0,.93-.69q.06-.09.36-.09a.761.761,0,0,1,.511.18v8.97l.029,9a2.906,2.906,0,0,0,1.95.45h1.771v1.38Z" style="fill: #fff"/>
    <path d="M116.072,740.992a5.3,5.3,0,0,1,4.591-2.43,5.535,5.535,0,0,1,3.84,1.5,6.525,6.525,0,0,1,1.38,2.04,17.184,17.184,0,0,1,1.109,6.84,15.662,15.662,0,0,1-1.29,7.11,5.194,5.194,0,0,1-2.46,2.52,5.646,5.646,0,0,1-2.55.63,5.288,5.288,0,0,1-5.04-3.15,15.662,15.662,0,0,1-1.29-7.11,23.38,23.38,0,0,1,.375-4.605A10.1,10.1,0,0,1,116.072,740.992Zm6.75-.36a2.765,2.765,0,0,0-2.13-.96,2.86,2.86,0,0,0-2.16.96,3.614,3.614,0,0,0-.9,1.68,18.44,18.44,0,0,0-.3,3.42c0,.12-.006.51-.016,1.17s-.014,1.21-.014,1.65q0,2.88.059,4.02a17.005,17.005,0,0,0,.361,3.015,3.406,3.406,0,0,0,.9,1.575,2.66,2.66,0,0,0,2.069.9,2.626,2.626,0,0,0,2.04-.9,3.408,3.408,0,0,0,.9-1.575,17.247,17.247,0,0,0,.359-3.015q.06-1.14.061-4.02,0-.66-.015-1.65t-.016-1.17a18.554,18.554,0,0,0-.3-3.42A3.617,3.617,0,0,0,122.822,740.632Z" style="fill: #fff"/>
    <path d="M235.8,745.672a1.678,1.678,0,0,1-1.321-.54,1.915,1.915,0,0,1-.479-1.32,4.921,4.921,0,0,1,1.635-3.705,5.5,5.5,0,0,1,3.915-1.545,6.506,6.506,0,0,1,4.275,1.395,5.865,5.865,0,0,1,2.085,3.645,9.275,9.275,0,0,1,.06.99,5.682,5.682,0,0,1-1.05,3.27,19.929,19.929,0,0,1-3.391,3.45q-1.078.932-3,2.76l-1.769,1.68,2.28.03a36.012,36.012,0,0,0,5.01-.15c.08-.02.179-.23.3-.63a19.2,19.2,0,0,0,.42-2.04v-.09h1.2v.09l-.84,5.49v.09H234v-.57a2.02,2.02,0,0,1,.06-.69q.029-.029,2.52-2.85,3.27-3.629,4.2-4.8a8.7,8.7,0,0,0,2.011-5.01,5.254,5.254,0,0,0-1.035-3.315,3.456,3.456,0,0,0-2.9-1.335,3.29,3.29,0,0,0-2.819,1.56c-.041.08-.1.191-.181.33a.672.672,0,0,0-.089.18c0,.02.049.03.15.03a1.528,1.528,0,0,1,1.215.54,1.876,1.876,0,0,1,.465,1.26,1.787,1.787,0,0,1-.5,1.275A1.708,1.708,0,0,1,235.8,745.672Z" style="fill: #fff"/>
    <path d="M296.31,744.652a1.639,1.639,0,0,1-1.275-.51,1.884,1.884,0,0,1-.466-1.32,3.625,3.625,0,0,1,1.351-2.865,5.738,5.738,0,0,1,3.12-1.365h.45c.7,0,1.14.011,1.32.03a7.335,7.335,0,0,1,2.009.63,4.469,4.469,0,0,1,2.491,2.82,2.924,2.924,0,0,1,.089.81,5,5,0,0,1-1.094,3.165,6.064,6.064,0,0,1-2.745,2q-.151.06,0,.09a1.82,1.82,0,0,0,.3.09,6.4,6.4,0,0,1,3.091,1.9,4.594,4.594,0,0,1,1.26,3.165,5.236,5.236,0,0,1-.57,2.37,5.947,5.947,0,0,1-2.355,2.535,6.827,6.827,0,0,1-3.645,1,7.168,7.168,0,0,1-3.51-.84,4.315,4.315,0,0,1-2.07-2.25,3.37,3.37,0,0,1-.3-1.47,1.793,1.793,0,0,1,.554-1.365,2,2,0,0,1,2.715.015,1.828,1.828,0,0,1,.54,1.35,1.922,1.922,0,0,1-.389,1.2,1.769,1.769,0,0,1-1.05.66l-.21.06a5.642,5.642,0,0,0,3.72,1.35,2.679,2.679,0,0,0,2.49-1.59,6.892,6.892,0,0,0,.51-3.03v-.6q0-2.85-1.92-3.81a6.285,6.285,0,0,0-1.83-.21l-1.26-.03-.09-.06a1.093,1.093,0,0,1-.061-.48.719.719,0,0,1,.09-.45.25.25,0,0,1,.151-.09,10.493,10.493,0,0,0,1.74-.15,2.6,2.6,0,0,0,2.01-1.485,6.627,6.627,0,0,0,.69-3.135,2.85,2.85,0,0,0-1.051-2.61,2.482,2.482,0,0,0-1.409-.42,4.437,4.437,0,0,0-2.64.81,1.25,1.25,0,0,0-.27.2,1.717,1.717,0,0,0-.24.255l-.09.12c.06.02.13.041.21.06a1.437,1.437,0,0,1,1,.57,1.835,1.835,0,0,1,.4,1.17,1.652,1.652,0,0,1-.5,1.215A1.726,1.726,0,0,1,296.31,744.652Z" style="fill: #fff"/>
    <path d="M366.359,758.542q-.42-.09-3.869-.09-3.6,0-4.02.09h-.27v-1.38h.93a6.314,6.314,0,0,0,1.59-.15.537.537,0,0,0,.36-.3q.03-.06.029-1.62v-1.5H353.34v-1.38l4.53-6.93q4.59-6.959,4.65-6.99a1.577,1.577,0,0,1,.629-.06h.54l.181.18v13.8h2.76v1.38h-2.76v1.53c0,.82,0,1.3.015,1.44a.545.545,0,0,0,.165.36,3.8,3.8,0,0,0,1.71.24h.87v1.38Zm-5.069-6.33v-10.02l-6.57,9.99,3.27.03Z" style="fill: #fff"/>
    <path d="M415.71,752.122a1.652,1.652,0,0,1,1.215.5,1.688,1.688,0,0,1,.5,1.245,1.546,1.546,0,0,1-.51,1.17,1.622,1.622,0,0,1-1.14.48h-.209l.089.15a3.9,3.9,0,0,0,1.379,1.59,3.817,3.817,0,0,0,2.192.63,3.184,3.184,0,0,0,3.058-1.8,9.125,9.125,0,0,0,.571-3.84q0-3.088-.81-4.17a2.362,2.362,0,0,0-1.92-.99,3.865,3.865,0,0,0-3.54,2.04.581.581,0,0,1-.225.255,1.329,1.329,0,0,1-.435.045q-.51,0-.57-.18-.06-.12-.06-5.25,0-.9-.015-2.13t-.015-1.56q0-1.679.179-1.68a.177.177,0,0,1,.122-.06l.539.18a10.631,10.631,0,0,0,3.99.78,10.211,10.211,0,0,0,4.08-.84.945.945,0,0,1,.391-.12q.239,0,.239.54v.39a7.668,7.668,0,0,1-6.15,2.91,7.191,7.191,0,0,1-1.679-.18l-.3-.06v5.16a5.145,5.145,0,0,1,4.74-1.23,5.683,5.683,0,0,1,3.285,2.28,6.9,6.9,0,0,1,1.276,4.14,6.558,6.558,0,0,1-1.907,4.71,6.254,6.254,0,0,1-4.694,1.98,4.993,4.993,0,0,1-3.21-1.05,3.311,3.311,0,0,1-.99-.99,5.312,5.312,0,0,1-1.141-2.67c0-.06,0-.155-.013-.285s-.016-.225-.016-.285a1.784,1.784,0,0,1,.48-1.32A1.665,1.665,0,0,1,415.71,752.122Z" style="fill: #fff"/>
    <path d="M483.69,740.512a2.831,2.831,0,0,0-1.86-.75,4.3,4.3,0,0,0-3.51,1.8q-1.41,1.95-1.41,6.06l.03.12.241-.39a3.834,3.834,0,0,1,3.329-1.8,5.014,5.014,0,0,1,2.43.57,6.228,6.228,0,0,1,1.44,1.215,7.558,7.558,0,0,1,1.17,1.7,8.047,8.047,0,0,1,.631,3.21v.54a5.306,5.306,0,0,1-.151,1.29,6.749,6.749,0,0,1-1.86,3.33,5.509,5.509,0,0,1-2.88,1.68,5.049,5.049,0,0,1-1.2.12,5.229,5.229,0,0,1-1.02-.09,5.315,5.315,0,0,1-3.54-2.4,14,14,0,0,1-1.77-7.56,13.222,13.222,0,0,1,1.14-5.67,8.983,8.983,0,0,1,3.18-3.78,5.977,5.977,0,0,1,3.51-1.14,4.114,4.114,0,0,1,2.806.93,3.215,3.215,0,0,1,1.064,2.55,1.658,1.658,0,0,1-.435,1.2,1.531,1.531,0,0,1-1.155.45,1.59,1.59,0,0,1-1.155-.42,1.549,1.549,0,0,1-.435-1.17A1.484,1.484,0,0,1,483.69,740.512Zm-1.32,7.2a2.616,2.616,0,0,0-2.16-1.08,2.435,2.435,0,0,0-1.8.69q-1.47,1.47-1.47,4.74a12.735,12.735,0,0,0,.36,3.69,3.449,3.449,0,0,0,1.02,1.53,2.511,2.511,0,0,0,1.71.63,2.693,2.693,0,0,0,2.34-1.14,3.311,3.311,0,0,0,.57-1.5,19.77,19.77,0,0,0,.121-2.52v-.96a20.425,20.425,0,0,0-.121-2.58A3.316,3.316,0,0,0,482.37,747.712Z" style="fill: #fff"/>
    <path d="M534.15,744.8q.032-.06.511-3.27l.48-3.21q0-.06.6-.06h.6v.12q0,.3.45.51a4.715,4.715,0,0,0,1.575.27q1.125.06,5.055.06h3.63v1.17l-2.04,2.79q-.45.63-1.02,1.395t-.87,1.185q-.3.42-.36.51a13.875,13.875,0,0,0-1.861,6.51q-.12,1.231-.149,3.36c0,.28-.006.565-.016.855s-.014.525-.014.705v.27a1.535,1.535,0,0,1-.585.87,1.611,1.611,0,0,1-1,.36,1.46,1.46,0,0,1-1.155-.5,2,2,0,0,1-.435-1.365q0-.45.12-1.71a20.971,20.971,0,0,1,2.79-8.13q.6-.96,2.52-3.63l1.38-1.89h-2.79a35.27,35.27,0,0,0-5.491.18c-.08.04-.189.26-.329.66a10.284,10.284,0,0,0-.3,1.41,3.692,3.692,0,0,1-.089.57v.09h-1.2Z" style="fill: #fff"/>
    <path d="M597.66,748.492a8.877,8.877,0,0,1-2.265-2.01,5.15,5.15,0,0,1-.315-4.92,5.337,5.337,0,0,1,1.936-2.175,5.258,5.258,0,0,1,2.923-.825,5.959,5.959,0,0,1,3.541,1.065,4.425,4.425,0,0,1,1.86,2.745,5.611,5.611,0,0,1,.03.72,4.5,4.5,0,0,1-.059.9,5.611,5.611,0,0,1-2.731,3.42l-.359.24q1.678,1.14,1.739,1.2a5.513,5.513,0,0,1,2.25,4.47,5.57,5.57,0,0,1-1.785,4.155,6.158,6.158,0,0,1-4.454,1.725,6,6,0,0,1-5.431-2.7,4.462,4.462,0,0,1-.75-2.61Q593.79,750.622,597.66,748.492Zm-1.95,5.34a3.754,3.754,0,0,0,1.29,2.925,4.355,4.355,0,0,0,3,1.155,4.863,4.863,0,0,0,2.234-.51,3.727,3.727,0,0,0,1.516-1.32,2.963,2.963,0,0,0,.51-1.65,3.051,3.051,0,0,0-1.05-2.28q-.24-.24-2.489-1.71l-.916-.585c-.33-.21-.584-.375-.765-.5l-.24-.15-.361.18a5.837,5.837,0,0,0-2.489,3A4.9,4.9,0,0,0,595.71,753.832Zm7.92-10.68a3.092,3.092,0,0,0-.84-2.19,3.726,3.726,0,0,0-2.04-1.14,9.872,9.872,0,0,0-.99-.03,3.627,3.627,0,0,0-2.67,1.08,2.166,2.166,0,0,0-.75,1.65,2.358,2.358,0,0,0,1.08,2.04q.15.15,1.92,1.26l1.74,1.14q.03-.03.391-.255a3.109,3.109,0,0,0,.539-.4A3.9,3.9,0,0,0,603.63,743.152Z" style="fill: #fff"/>
    <path d="M657.69,755.662a1.692,1.692,0,0,1-.315,1.05,1.271,1.271,0,0,1-.824.51l-.12.03c0,.02.069.075.21.165a1.223,1.223,0,0,0,.33.165,4.287,4.287,0,0,0,1.71.3,3.338,3.338,0,0,0,.78-.06,4.114,4.114,0,0,0,2.43-1.86q1.168-1.68,1.17-5.82v-.21l-.151.24a3.835,3.835,0,0,1-3.449,2.04,5.083,5.083,0,0,1-4.08-2.07,6.5,6.5,0,0,1-1.621-4.68,7.431,7.431,0,0,1,.466-2.85,7.183,7.183,0,0,1,1.6-2.25,5.93,5.93,0,0,1,3.721-1.77l.09-.03h.15c.039,0,.1,0,.194.015a2.119,2.119,0,0,0,.226.015,4.173,4.173,0,0,1,.869.06,5.681,5.681,0,0,1,3.811,3.09,15.357,15.357,0,0,1,1.29,6.78,13.275,13.275,0,0,1-1.8,7.11,8.191,8.191,0,0,1-2.535,2.625,5.7,5.7,0,0,1-3.106.945,4.88,4.88,0,0,1-3.045-.885,3.036,3.036,0,0,1-1.154-2.565q0-1.68,1.59-1.68a1.471,1.471,0,0,1,1.559,1.59Zm3.031-15.81a4.536,4.536,0,0,0-.84-.06,2.657,2.657,0,0,0-1.95.81,3.2,3.2,0,0,0-.826,1.575,17.179,17.179,0,0,0-.2,3.135,27.191,27.191,0,0,0,.151,3.24,3,3,0,0,0,.884,1.845,2.6,2.6,0,0,0,1.875.7h.12a2.755,2.755,0,0,0,2.355-1.695,8.716,8.716,0,0,0,.735-3.765,16.519,16.519,0,0,0-.239-3.36,3.252,3.252,0,0,0-.735-1.56A2.514,2.514,0,0,0,660.721,739.852Z" style="fill: #fff"/>
    <g>
      <path d="M717.479,758.542q-.509-.09-4.769-.09-4.2,0-4.71.09h-.36v-1.38h.78a16.92,16.92,0,0,0,2.25-.09,1.915,1.915,0,0,0,.72-.36V741.2a.735.735,0,0,0-.241.09,8.823,8.823,0,0,1-3.089.57h-.57v-1.38h.57a8.37,8.37,0,0,0,4.2-1.14,4.105,4.105,0,0,0,.929-.69c.04-.06.161-.09.361-.09a.759.759,0,0,1,.51.18v8.97l.03,9a2.9,2.9,0,0,0,1.95.45h1.77v1.38Z" style="fill: #fff"/>
      <path d="M722.88,740.992a5.292,5.292,0,0,1,4.59-2.43,5.531,5.531,0,0,1,3.84,1.5,6.506,6.506,0,0,1,1.379,2.04,17.144,17.144,0,0,1,1.111,6.84,15.675,15.675,0,0,1-1.29,7.11,5.2,5.2,0,0,1-2.46,2.52,5.652,5.652,0,0,1-2.55.63,5.286,5.286,0,0,1-5.04-3.15,15.662,15.662,0,0,1-1.29-7.11,23.38,23.38,0,0,1,.375-4.605A10.053,10.053,0,0,1,722.88,740.992Zm6.75-.36a2.765,2.765,0,0,0-2.13-.96,2.856,2.856,0,0,0-2.16.96,3.617,3.617,0,0,0-.9,1.68,18.554,18.554,0,0,0-.3,3.42q0,.18-.015,1.17t-.016,1.65q0,2.88.061,4.02a17.052,17.052,0,0,0,.359,3.015,3.4,3.4,0,0,0,.9,1.575,2.661,2.661,0,0,0,2.07.9,2.629,2.629,0,0,0,2.04-.9,3.413,3.413,0,0,0,.9-1.575,17.005,17.005,0,0,0,.361-3.015q.06-1.14.059-4.02,0-.66-.014-1.65c-.011-.66-.015-1.05-.015-1.17a18.6,18.6,0,0,0-.3-3.42A3.623,3.623,0,0,0,729.63,740.632Z" style="fill: #fff"/>
    </g>
    <g>
      <path d="M244.778,51.944a1.218,1.218,0,0,0-.585-.359,12.243,12.243,0,0,0-1.515-.091h-.99v-1.38h6.03q5.13.032,5.73.045a6.569,6.569,0,0,1,1.26.165,8.472,8.472,0,0,1,4.936,3.12,11.383,11.383,0,0,1,2.415,5.79c.039.4.059.83.059,1.29s-.02.891-.059,1.29a10.465,10.465,0,0,1-2.551,5.746,8.9,8.9,0,0,1-5.37,2.955q-.39.06-6.42.089h-6.03V69.225h.99a12.118,12.118,0,0,0,1.515-.09,1.208,1.208,0,0,0,.585-.361Zm7.951-.42h-.406c-.23,0-.515,0-.855-.014s-.65-.016-.93-.016-.59.006-.93.016-.62.014-.839.014h-.391q-.39.032-.48.241-.09.12-.089,8.519,0,8.461.029,8.551a.413.413,0,0,0,.36.329q.24.061,2.85.061a12.445,12.445,0,0,0,3.075-.3,5.992,5.992,0,0,0,2.2-1.17q2.34-1.95,2.34-7.29a17.458,17.458,0,0,0-.21-3.12,6.642,6.642,0,0,0-2.79-4.8A6.325,6.325,0,0,0,252.729,51.524Z" style="fill: #fff"/>
      <path d="M271.208,70.6a26,26,0,0,0-3.12-.089,32.125,32.125,0,0,0-3.27.089h-.24V69.225h.48a10.681,10.681,0,0,0,1.47-.09.65.65,0,0,0,.36-.33q.03-.06.03-4.351a41.506,41.506,0,0,0-.12-4.8q-.24-.6-1.77-.6h-.33v-.691c0-.46.02-.689.06-.689l.3-.03c.2-.02.48-.041.84-.06l1.081-.061c.339-.019.7-.045,1.079-.075s.67-.054.87-.075.31-.029.33-.029h.09v11.4a.7.7,0,0,0,.36.375,4.658,4.658,0,0,0,1.05.106h.69V70.6Zm-3.479-20.07a1.933,1.933,0,0,1,1.229.526,1.7,1.7,0,0,1,.48,1.275,1.6,1.6,0,0,1-.81,1.529,1.639,1.639,0,0,1-.96.271,1.693,1.693,0,0,1-.99-.271,1.6,1.6,0,0,1-.81-1.529,1.7,1.7,0,0,1,.526-1.32A1.9,1.9,0,0,1,267.729,50.534Z" style="fill: #fff"/>
      <path d="M277.838,58.185q-2.76,0-2.76,1.95a1.37,1.37,0,0,0,.06.51,1.8,1.8,0,0,0,.93,1.035,9.109,9.109,0,0,0,2.04.585,8.1,8.1,0,0,1,2.34.66,4.344,4.344,0,0,1,2.43,2.97,5.6,5.6,0,0,1,.03.719,4.845,4.845,0,0,1-.42,2.071q-1.17,2.22-4.41,2.219a4.769,4.769,0,0,1-3.12-1.08l-.24.21-.27.271c-.12.12-.24.229-.36.33l-.33.3h-.24a.549.549,0,0,1-.39-.18v-2.37q0-1.95.015-2.25c.009-.2.055-.321.135-.361a1.96,1.96,0,0,1,.48-.03,1,1,0,0,1,.465.061.979.979,0,0,1,.165.42,6.948,6.948,0,0,0,.78,2.07,3.34,3.34,0,0,0,2.91,1.529q2.91,0,2.91-2.34a1.909,1.909,0,0,0-.54-1.41,2.6,2.6,0,0,0-1.26-.809c-.34-.08-.821-.191-1.44-.33a10.317,10.317,0,0,1-2.28-.63,3.744,3.744,0,0,1-2.31-2.79,2.2,2.2,0,0,1-.03-.451q0-3.449,4.23-3.87a1.939,1.939,0,0,1,.72,0,4.64,4.64,0,0,1,2.1.451l.45.24.269-.21a7.618,7.618,0,0,1,.661-.511h.24a.546.546,0,0,1,.39.181v3.96l-.18.179h-.84a.519.519,0,0,1-.18-.36,2.8,2.8,0,0,0-.841-2.159A3.256,3.256,0,0,0,277.838,58.185Z" style="fill: #fff"/>
      <path d="M288.188,52.6v-.45h1.2v5.521h4.05v1.38h-4.05v4.319q.029,3.752.045,4.245a2.721,2.721,0,0,0,.195.945,1.506,1.506,0,0,0,1.47,1.17q1.32,0,1.62-2.13c.019-.16.03-.62.03-1.379v-1.05h1.2v1.05a9.18,9.18,0,0,1-.15,1.979,4.118,4.118,0,0,1-1.125,1.95,2.916,2.916,0,0,1-2.085.75,3.419,3.419,0,0,1-3.691-3.3q-.029-.209-.029-4.44V59.055H284.5V57.944h.27a2.76,2.76,0,0,0,1.89-.96A6.64,6.64,0,0,0,288.188,52.6Z" style="fill: #fff"/>
      <path d="M300.263,60.975a1.546,1.546,0,0,1-1.156.479,1.492,1.492,0,0,1-1.139-.479,1.612,1.612,0,0,1-.45-1.14,2.415,2.415,0,0,1,.24-.961,2.69,2.69,0,0,1,1.559-1.26,7.974,7.974,0,0,1,2.851-.45,6.409,6.409,0,0,1,3.435.9,4.2,4.2,0,0,1,1.9,2.34,3.132,3.132,0,0,1,.165.946q.015.523.015,3.434,0,2.942.015,3.436a1.7,1.7,0,0,0,.165.764.614.614,0,0,0,.6.42.6.6,0,0,0,.57-.42,4.619,4.619,0,0,0,.18-1.649v-1.08h1.2v1.17a9.767,9.767,0,0,1-.09,1.41,2.827,2.827,0,0,1-.99,1.394,2.715,2.715,0,0,1-1.71.555,1.946,1.946,0,0,1-1.335-.524,2.632,2.632,0,0,1-.8-1.276v-.12c-.06.061-.181.2-.36.406s-.311.355-.39.434a5.17,5.17,0,0,1-3.42,1.231,5.8,5.8,0,0,1-2.79-.661,3.373,3.373,0,0,1-1.65-1.74,2.914,2.914,0,0,1-.241-1.139,3.592,3.592,0,0,1,1.17-2.581,5.569,5.569,0,0,1,1.71-1.139,14.706,14.706,0,0,1,5.221-1.111h.42V61.9a4.594,4.594,0,0,0-.181-1.5,2.865,2.865,0,0,0-2.909-2.13q-2.011,0-2.011.241a1.493,1.493,0,0,1,.661,1.32A1.588,1.588,0,0,1,300.263,60.975Zm4.905,4.379c0-1.16-.011-1.74-.03-1.74a.338.338,0,0,0-.151.031q-4.11.268-5.25,2.429a2.772,2.772,0,0,0-.33,1.351,2.272,2.272,0,0,0,.721,1.71,2.456,2.456,0,0,0,1.769.689,3.083,3.083,0,0,0,2.056-.72,3.372,3.372,0,0,0,1.125-1.769A17.027,17.027,0,0,0,305.168,65.354Z" style="fill: #fff"/>
      <path d="M316.268,68.805q.24.42,1.41.42h.9V70.6h-.24a63.469,63.469,0,0,0-6.72,0h-.24V69.225h.9c.781,0,1.25-.14,1.411-.42v-.931c0-.279,0-.595.015-.944s.015-.741.015-1.17V64.515q0-.93-.015-1.995c-.011-.71-.015-1.3-.015-1.755v-.691a.99.99,0,0,0-.435-.764,3.5,3.5,0,0,0-1.335-.255h-.54v-.691c0-.46.019-.689.06-.689l.3-.03c.2-.02.486-.041.856-.06l1.095-.061c.339-.019.7-.045,1.08-.075s.67-.054.87-.075.309-.029.33-.029h.09v1.2a7.953,7.953,0,0,0,.03,1.14l.03-.031a5.275,5.275,0,0,1,4.59-2.309q3.45.12,3.81,3.389.029.211.03,4.17,0,3.842.03,3.9a.643.643,0,0,0,.36.33,10.666,10.666,0,0,0,1.469.09h.481V70.6h-.241a63.45,63.45,0,0,0-6.719,0h-.24V69.225h.719q1.592,0,1.591-.481.03-.059.029-4.14-.029-4.05-.059-4.29a2.651,2.651,0,0,0-.675-1.394,2.027,2.027,0,0,0-1.425-.436,3.252,3.252,0,0,0-2.37,1.021,4.3,4.3,0,0,0-1.23,2.64V62.7c0,.351,0,.8-.015,1.335s-.016,1.051-.016,1.53v.946q0,.495.016.885c.01.259.015.5.015.7v.705Z" style="fill: #fff"/>
      <path d="M338.962,61.02a1.623,1.623,0,0,1-1.154.434,1.517,1.517,0,0,1-1.141-.465,1.651,1.651,0,0,1,0-2.264c.1-.1.145-.161.136-.18s-.106-.04-.285-.061a9.841,9.841,0,0,0-1.47-.12,3.081,3.081,0,0,0-2.4.96q-1.41,1.412-1.41,4.71a6.962,6.962,0,0,0,.93,3.87,3.794,3.794,0,0,0,3.3,1.83,2.792,2.792,0,0,0,1.319-.3,3.493,3.493,0,0,0,1.74-2.34.507.507,0,0,1,.151-.3,1.1,1.1,0,0,1,.479-.061h.42c.12.12.181.21.181.271a4.007,4.007,0,0,1-.75,1.769,4.854,4.854,0,0,1-4.231,2.161,6.173,6.173,0,0,1-2.849-.691,6.61,6.61,0,0,1-3.571-5.1,8.567,8.567,0,0,1-.03-.96,9.57,9.57,0,0,1,.03-.991,6.94,6.94,0,0,1,2.46-4.59,6.246,6.246,0,0,1,3.991-1.44q3.87,0,4.529,2.04a2.224,2.224,0,0,1,.091.691A1.474,1.474,0,0,1,338.962,61.02Z" style="fill: #fff"/>
      <path d="M353.077,63.255a.605.605,0,0,1-.21.42h-8.46v.449a7.4,7.4,0,0,0,.6,3.36,3.8,3.8,0,0,0,3.721,2.22,2.793,2.793,0,0,0,2.159-.96,3.994,3.994,0,0,0,.93-1.559,1.061,1.061,0,0,1,.18-.42.78.78,0,0,1,.481-.09c.4,0,.6.1.6.3a1.415,1.415,0,0,1-.09.389,5.775,5.775,0,0,1-1.815,2.566,4.693,4.693,0,0,1-3.045,1,6.748,6.748,0,0,1-1.319-.151,6.227,6.227,0,0,1-3.061-1.559,7.061,7.061,0,0,1-2.28-5.161,6.959,6.959,0,0,1,1.62-4.665,6.107,6.107,0,0,1,3.99-2.2,2.059,2.059,0,0,1,.42-.03,5.267,5.267,0,0,1,4.155,1.606A6.525,6.525,0,0,1,353.077,63.255Zm-2.46-.9q-.269-3.269-2.22-3.959a2.083,2.083,0,0,0-.629-.121,2.985,2.985,0,0,0-2.551,1.441,6.288,6.288,0,0,0-.779,2.67v.21h6.179Z" style="fill: #fff"/>
      <path d="M362.526,57.314q.03-.06.3-3.419t.271-3.42V50.3h18.33v.18q.029.06.3,3.42T382,57.314v.18h-1.2v-.18c-.021-.08-.051-.319-.091-.719q-.21-2.91-.96-3.781a3.217,3.217,0,0,0-1.649-.96,11.81,11.81,0,0,0-2.311-.15h-.809a4.705,4.705,0,0,0-.856.045c-.109.03-.194.136-.255.315q-.029.06-.029,8.371v8.28a1.12,1.12,0,0,0,.75.42q1.08.088,2.7.09h.9V70.6h-.39q-.63-.088-5.521-.089t-5.519.089h-.391V69.225h.9q1.62,0,2.7-.09a1.124,1.124,0,0,0,.75-.42v-8.28q0-8.31-.03-8.371c-.06-.179-.146-.285-.255-.315a4.713,4.713,0,0,0-.856-.045h-.809c-.941,0-1.511.011-1.71.03a4.153,4.153,0,0,0-2.04.84q-.962.81-1.2,4.021c-.04.4-.07.639-.089.719v.18h-1.2Z" style="fill: #fff"/>
      <path d="M384.187,69.225h.419c.78,0,1.249-.14,1.411-.42v-.241c0-.179,0-.409.014-.69s.015-.595.015-.944V60.765l-.029-.691a.991.991,0,0,0-.436-.764,3.494,3.494,0,0,0-1.335-.255h-.54v-.691c0-.46.02-.689.061-.689l.3-.03c.2-.02.48-.041.84-.06l1.08-.061c.32-.019.67-.045,1.05-.075s.67-.054.87-.075.31-.029.33-.029h.09v2.069a5.325,5.325,0,0,1,1.26-1.5,2.893,2.893,0,0,1,1.83-.54,2.947,2.947,0,0,1,1.44.33,1.865,1.865,0,0,1,1.17,1.71,1.461,1.461,0,0,1-.45,1.1,1.5,1.5,0,0,1-1.08.434,1.467,1.467,0,0,1-1.064-.42,1.429,1.429,0,0,1-.436-1.08,1.394,1.394,0,0,1,.24-.84.515.515,0,0,0,.06-.15c-.04-.039-.27,0-.69.12a3.54,3.54,0,0,0-.72.45,5.6,5.6,0,0,0-1.38,3.781v1.17q-.03,1.17-.029,2.009v.826c0,.29,0,.544.014.764s.015.42.015.6v.6a.534.534,0,0,0,.36.3,6.332,6.332,0,0,0,1.59.151h.93V70.6h-.27q-.54-.088-3.809-.089a31.333,31.333,0,0,0-3.361.089h-.24V69.225Z" style="fill: #fff"/>
      <path d="M399.5,60.975a1.543,1.543,0,0,1-1.154.479,1.5,1.5,0,0,1-1.141-.479,1.612,1.612,0,0,1-.45-1.14,2.415,2.415,0,0,1,.24-.961,2.688,2.688,0,0,1,1.561-1.26,7.955,7.955,0,0,1,2.849-.45,6.4,6.4,0,0,1,3.435.9,4.2,4.2,0,0,1,1.9,2.34,3.072,3.072,0,0,1,.165.946q.015.523.015,3.434,0,2.942.015,3.436a1.7,1.7,0,0,0,.165.764.616.616,0,0,0,.6.42.6.6,0,0,0,.57-.42,4.6,4.6,0,0,0,.18-1.649v-1.08h1.2v1.17a9.454,9.454,0,0,1-.09,1.41,2.808,2.808,0,0,1-.99,1.394,2.711,2.711,0,0,1-1.71.555,1.946,1.946,0,0,1-1.335-.524,2.647,2.647,0,0,1-.8-1.276v-.12c-.06.061-.179.2-.36.406s-.311.355-.39.434a5.17,5.17,0,0,1-3.42,1.231,5.808,5.808,0,0,1-2.79-.661,3.373,3.373,0,0,1-1.65-1.74,2.913,2.913,0,0,1-.24-1.139,3.585,3.585,0,0,1,1.171-2.581,5.533,5.533,0,0,1,1.71-1.139,14.684,14.684,0,0,1,5.219-1.111h.42V61.9a4.6,4.6,0,0,0-.179-1.5,2.869,2.869,0,0,0-2.911-2.13q-2.01,0-2.009.241a1.5,1.5,0,0,1,.659,1.32A1.58,1.58,0,0,1,399.5,60.975Zm4.905,4.379q0-1.74-.03-1.74a.326.326,0,0,0-.149.031q-4.111.268-5.25,2.429a2.751,2.751,0,0,0-.331,1.351,2.275,2.275,0,0,0,.72,1.71,2.461,2.461,0,0,0,1.77.689,3.08,3.08,0,0,0,2.055-.72,3.36,3.36,0,0,0,1.125-1.769A16.522,16.522,0,0,0,404.406,65.354Z" style="fill: #fff"/>
      <path d="M420.006,57.675a8.244,8.244,0,0,0,1.44.059h1.08q1.71,0,2.43-.059h.15v1.38h-.33a2.368,2.368,0,0,0-2.219,1.2q-.062.12-2.026,5.189t-2.025,5.22q-.15.271-.75.271-.57,0-.72-.271-4.2-10.83-4.229-10.979a.779.779,0,0,0-.346-.42,1.384,1.384,0,0,0-.4-.151c-.12-.019-.421-.04-.9-.059h-.719v-1.38h.179a22.367,22.367,0,0,0,2.91.09,30.767,30.767,0,0,0,3.3-.09h.24v1.38h-.42c-.78.019-1.2.17-1.26.45q0,.12,1.53,4.08l1.53,3.96q.928-2.37,2.73-7.171v-.239a.941.941,0,0,0-.39-.781,1.4,1.4,0,0,0-.87-.3h-.12v-1.38Z" style="fill: #fff"/>
      <path d="M438.156,63.255a.605.605,0,0,1-.21.42h-8.46v.449a7.414,7.414,0,0,0,.6,3.36,3.8,3.8,0,0,0,3.72,2.22,2.794,2.794,0,0,0,2.16-.96,3.994,3.994,0,0,0,.93-1.559,1.046,1.046,0,0,1,.18-.42.776.776,0,0,1,.48-.09c.4,0,.6.1.6.3a1.415,1.415,0,0,1-.09.389,5.775,5.775,0,0,1-1.815,2.566,4.693,4.693,0,0,1-3.045,1,6.766,6.766,0,0,1-1.32-.151,6.228,6.228,0,0,1-3.06-1.559,7.061,7.061,0,0,1-2.28-5.161,6.959,6.959,0,0,1,1.62-4.665,6.107,6.107,0,0,1,3.99-2.2,2.052,2.052,0,0,1,.42-.03,5.265,5.265,0,0,1,4.155,1.606A6.525,6.525,0,0,1,438.156,63.255Zm-2.46-.9q-.27-3.269-2.22-3.959a2.084,2.084,0,0,0-.63-.121,2.985,2.985,0,0,0-2.55,1.441,6.3,6.3,0,0,0-.78,2.67v.21h6.18Z" style="fill: #fff"/>
      <path d="M440.286,69.225h.42q1.17,0,1.41-.42v-.931q0-.418.016-.989t.014-1.306V56.145c0-.661,0-1.265-.014-1.816s-.016-.984-.016-1.3v-.509a.994.994,0,0,0-.434-.766,3.539,3.539,0,0,0-1.335-.255h-.54v-.689c0-.46.019-.691.059-.691l.3-.029c.2-.021.49-.04.87-.061s.75-.04,1.11-.059c.34-.021.71-.045,1.111-.075s.7-.055.9-.076.31-.03.33-.03h.09v9.45q0,9.512.03,9.571a.651.651,0,0,0,.361.33,10.671,10.671,0,0,0,1.47.09h.479V70.6h-.239a32.661,32.661,0,0,0-3.3-.089,30.28,30.28,0,0,0-3.33.089h-.239V69.225Z" style="fill: #fff"/>
      <path d="M459.816,63.255a.605.605,0,0,1-.21.42h-8.46v.449a7.414,7.414,0,0,0,.6,3.36,3.8,3.8,0,0,0,3.72,2.22,2.794,2.794,0,0,0,2.16-.96,4.008,4.008,0,0,0,.931-1.559,1.035,1.035,0,0,1,.179-.42.776.776,0,0,1,.48-.09c.4,0,.6.1.6.3a1.442,1.442,0,0,1-.089.389,5.785,5.785,0,0,1-1.816,2.566,4.693,4.693,0,0,1-3.045,1,6.766,6.766,0,0,1-1.32-.151,6.228,6.228,0,0,1-3.06-1.559,7.061,7.061,0,0,1-2.28-5.161,6.959,6.959,0,0,1,1.62-4.665,6.107,6.107,0,0,1,3.99-2.2,2.059,2.059,0,0,1,.42-.03,5.269,5.269,0,0,1,4.156,1.606A6.53,6.53,0,0,1,459.816,63.255Zm-2.46-.9q-.27-3.269-2.22-3.959a2.084,2.084,0,0,0-.63-.121,2.985,2.985,0,0,0-2.55,1.441,6.3,6.3,0,0,0-.78,2.67v.21h6.18Z" style="fill: #fff"/>
      <path d="M468.006,57.345a5.973,5.973,0,0,1,3.96,1.469V55.755q0-3.12-.03-3.24a1,1,0,0,0-.435-.766,3.539,3.539,0,0,0-1.335-.255h-.54v-.689c0-.46.02-.691.06-.691l.3-.029c.2-.021.491-.04.87-.061s.75-.04,1.111-.059c.34-.021.709-.045,1.109-.075s.7-.055.9-.076.309-.03.33-.03h.09V58.9q0,9.18.03,9.271a1.019,1.019,0,0,0,.434.8,3.494,3.494,0,0,0,1.335.255h.54V70.6q-.06,0-2.3.151t-2.354.18h-.21V69.284l-.24.21a5.891,5.891,0,0,1-3.9,1.441,5.5,5.5,0,0,1-3.719-1.411,7.033,7.033,0,0,1-2.281-4.32c-.019-.159-.03-.51-.03-1.05a6.765,6.765,0,0,1,1.86-4.859A5.927,5.927,0,0,1,468.006,57.345Zm3.87,3a4.035,4.035,0,0,0-3.391-1.891,3.688,3.688,0,0,0-2.609,1.08,3.938,3.938,0,0,0-1.006,1.83,12.944,12.944,0,0,0-.255,2.91q0,3.33,1.261,4.561a3.074,3.074,0,0,0,2.34.989,3.884,3.884,0,0,0,2.01-.569,4.259,4.259,0,0,0,1.53-1.561l.12-.179Z" style="fill: #fff"/>
      <path d="M494.855,77.835c0,.18-.18.269-.54.269h-.39l-.84-.719q-5.4-4.922-5.4-14.281a24.163,24.163,0,0,1,.87-6.69,16.17,16.17,0,0,1,4.529-7.59q.21-.18.48-.4c.18-.15.3-.256.36-.316h.39a.723.723,0,0,1,.451.09.264.264,0,0,1,.089.18c0,.081-.11.23-.33.45q-4.65,4.92-4.65,14.28t4.65,14.281Q494.855,77.714,494.855,77.835Z" style="fill: #fff"/>
      <path d="M500.5,51.944a1.218,1.218,0,0,0-.585-.359,12.237,12.237,0,0,0-1.514-.091h-.991v-1.38h3.18a24.5,24.5,0,0,1,3.27.09l.15.15q.029.122,6.27,16.531,2.97-7.8,5.34-14.1.9-2.4.96-2.43a.665.665,0,0,1,.12-.15,24.5,24.5,0,0,1,3.27-.09h3.181v1.38h-.991a13.31,13.31,0,0,0-1.545.091.821.821,0,0,0-.525.359v16.83a.816.816,0,0,0,.525.361,13.164,13.164,0,0,0,1.545.09h.991V70.6h-.331q-.48-.088-4.2-.089t-4.2.089h-.33V69.225h.99a12.134,12.134,0,0,0,1.515-.09,1.208,1.208,0,0,0,.585-.361V52.215l-.029-.57q-6.993,18.54-7.111,18.75c-.08.12-.28.179-.6.179s-.521-.059-.6-.179l-7.02-18.51v.54q-.03.538-.03,1.889v5.611l.03,8.1q.36,1.08,2.55,1.2h.51V70.6h-.27a32.229,32.229,0,0,0-3.45-.089,33.185,33.185,0,0,0-3.509.089h-.241V69.225h.51q2.04-.12,2.49-1.021l.09-.18Z" style="fill: #fff"/>
      <path d="M536.5,63.255a.605.605,0,0,1-.21.42h-8.46v.449a7.4,7.4,0,0,0,.6,3.36,3.8,3.8,0,0,0,3.72,2.22,2.794,2.794,0,0,0,2.16-.96,3.994,3.994,0,0,0,.93-1.559,1.032,1.032,0,0,1,.18-.42.776.776,0,0,1,.48-.09c.4,0,.6.1.6.3a1.415,1.415,0,0,1-.09.389,5.783,5.783,0,0,1-1.815,2.566,4.693,4.693,0,0,1-3.045,1,6.766,6.766,0,0,1-1.32-.151,6.224,6.224,0,0,1-3.06-1.559,7.061,7.061,0,0,1-2.28-5.161,6.959,6.959,0,0,1,1.62-4.665,6.107,6.107,0,0,1,3.99-2.2,2.052,2.052,0,0,1,.42-.03,5.267,5.267,0,0,1,4.155,1.606A6.525,6.525,0,0,1,536.5,63.255Zm-2.46-.9q-.271-3.269-2.221-3.959a2.069,2.069,0,0,0-.629-.121,2.985,2.985,0,0,0-2.55,1.441,6.3,6.3,0,0,0-.781,2.67v.21h6.181Z" style="fill: #fff"/>
      <path d="M541.6,52.6v-.45h1.2v5.521h4.051v1.38h-4.051v4.319q.029,3.752.045,4.245a2.744,2.744,0,0,0,.195.945,1.508,1.508,0,0,0,1.47,1.17q1.32,0,1.62-2.13.03-.24.03-1.379v-1.05h1.2v1.05a9.115,9.115,0,0,1-.15,1.979,4.1,4.1,0,0,1-1.125,1.95,2.914,2.914,0,0,1-2.085.75,3.416,3.416,0,0,1-3.689-3.3q-.031-.209-.031-4.44V59.055H537.9V57.944h.27a2.76,2.76,0,0,0,1.89-.96A6.64,6.64,0,0,0,541.6,52.6Z" style="fill: #fff"/>
      <path d="M561.484,63.255a.605.605,0,0,1-.21.42h-8.46v.449a7.414,7.414,0,0,0,.6,3.36,3.8,3.8,0,0,0,3.72,2.22,2.794,2.794,0,0,0,2.16-.96,4.008,4.008,0,0,0,.931-1.559,1.035,1.035,0,0,1,.179-.42.776.776,0,0,1,.48-.09c.4,0,.6.1.6.3a1.442,1.442,0,0,1-.089.389,5.785,5.785,0,0,1-1.816,2.566,4.693,4.693,0,0,1-3.045,1,6.766,6.766,0,0,1-1.32-.151,6.228,6.228,0,0,1-3.06-1.559,7.061,7.061,0,0,1-2.28-5.161,6.959,6.959,0,0,1,1.62-4.665,6.107,6.107,0,0,1,3.99-2.2,2.052,2.052,0,0,1,.42-.03,5.269,5.269,0,0,1,4.156,1.606A6.53,6.53,0,0,1,561.484,63.255Zm-2.46-.9q-.27-3.269-2.22-3.959a2.084,2.084,0,0,0-.63-.121,2.985,2.985,0,0,0-2.55,1.441,6.3,6.3,0,0,0-.78,2.67v.21h6.18Z" style="fill: #fff"/>
      <path d="M563.434,69.225h.42q1.17,0,1.41-.42v-.241q0-.268.014-.69c.01-.279.016-.595.016-.944V60.765l-.03-.691a.988.988,0,0,0-.436-.764,3.49,3.49,0,0,0-1.335-.255h-.54v-.691c0-.46.021-.689.061-.689l.3-.03c.2-.02.481-.041.84-.06l1.08-.061c.32-.019.67-.045,1.05-.075s.67-.054.87-.075.31-.029.33-.029h.09v2.069a5.311,5.311,0,0,1,1.261-1.5,2.888,2.888,0,0,1,1.829-.54,2.951,2.951,0,0,1,1.441.33,1.864,1.864,0,0,1,1.169,1.71,1.461,1.461,0,0,1-.45,1.1,1.5,1.5,0,0,1-1.08.434,1.467,1.467,0,0,1-1.064-.42,1.433,1.433,0,0,1-.436-1.08,1.394,1.394,0,0,1,.24-.84.531.531,0,0,0,.061-.15c-.041-.039-.271,0-.69.12a3.484,3.484,0,0,0-.72.45,5.588,5.588,0,0,0-1.38,3.781v1.17q-.032,1.17-.03,2.009v.826c0,.29,0,.544.014.764s.016.42.016.6v.6a.531.531,0,0,0,.359.3,6.345,6.345,0,0,0,1.59.151h.931V70.6h-.271q-.539-.088-3.809-.089a31.347,31.347,0,0,0-3.361.089h-.24V69.225Z" style="fill: #fff"/>
      <path d="M579.814,58.185q-2.76,0-2.759,1.95a1.376,1.376,0,0,0,.059.51,1.8,1.8,0,0,0,.93,1.035,9.109,9.109,0,0,0,2.04.585,8.087,8.087,0,0,1,2.34.66,4.342,4.342,0,0,1,2.43,2.97,5.416,5.416,0,0,1,.03.719,4.845,4.845,0,0,1-.42,2.071q-1.169,2.22-4.409,2.219a4.765,4.765,0,0,1-3.12-1.08l-.241.21-.27.271c-.119.12-.239.229-.36.33l-.33.3h-.24a.55.55,0,0,1-.39-.18v-2.37q0-1.95.015-2.25c.01-.2.055-.321.135-.361a1.967,1.967,0,0,1,.48-.03,1,1,0,0,1,.465.061.953.953,0,0,1,.165.42,6.923,6.923,0,0,0,.781,2.07,3.336,3.336,0,0,0,2.91,1.529q2.909,0,2.909-2.34a1.909,1.909,0,0,0-.54-1.41,2.6,2.6,0,0,0-1.26-.809c-.34-.08-.82-.191-1.439-.33a10.313,10.313,0,0,1-2.281-.63,3.746,3.746,0,0,1-2.31-2.79,2.2,2.2,0,0,1-.03-.451q0-3.449,4.23-3.87a1.943,1.943,0,0,1,.721,0,4.635,4.635,0,0,1,2.1.451l.45.24.27-.21a7.626,7.626,0,0,1,.66-.511h.24a.546.546,0,0,1,.39.181v3.96l-.18.179h-.839a.516.516,0,0,1-.181-.36,2.8,2.8,0,0,0-.84-2.159A3.258,3.258,0,0,0,579.814,58.185Z" style="fill: #fff"/>
      <path d="M587.733,48.135l.121-.031h.66c.139.121.42.361.84.72q5.4,4.92,5.4,14.28a23.681,23.681,0,0,1-.87,6.661,16.189,16.189,0,0,1-4.53,7.62q-.21.18-.48.4c-.181.15-.3.256-.36.315h-.361a1.155,1.155,0,0,1-.465-.059c-.07-.041-.1-.141-.1-.3q.03-.029.33-.39,4.65-4.83,4.649-14.25t-4.649-14.25q-.3-.36-.33-.389A.351.351,0,0,1,587.733,48.135Z" style="fill: #fff"/>
    </g>
    <g>
      <path d="M391.08,798.751q.03-.06.3-3.42t.269-3.42v-.181h18.33v.181q.03.06.3,3.42t.271,3.42v.18h-1.2v-.18q-.03-.12-.09-.72-.211-2.91-.96-3.78a3.21,3.21,0,0,0-1.651-.96,11.705,11.705,0,0,0-2.309-.15h-.811a4.573,4.573,0,0,0-.854.045c-.111.03-.2.134-.255.315q-.031.06-.03,8.37v8.279a1.113,1.113,0,0,0,.75.42q1.078.091,2.7.091h.9v1.38h-.39q-.63-.092-5.52-.09t-5.52.09h-.39v-1.38h.9q1.62,0,2.7-.091a1.117,1.117,0,0,0,.75-.42v-8.279q0-8.31-.03-8.37c-.06-.181-.145-.285-.256-.315a4.573,4.573,0,0,0-.854-.045h-.811q-1.409,0-1.71.03a4.152,4.152,0,0,0-2.04.84q-.959.81-1.2,4.02c-.041.4-.07.64-.091.72v.18h-1.2Z" style="fill: #fff"/>
      <path d="M419.069,812.041a25.368,25.368,0,0,0-3.12-.09,31.311,31.311,0,0,0-3.269.09h-.241v-1.38h.48a10.377,10.377,0,0,0,1.471-.091.642.642,0,0,0,.359-.329q.031-.06.03-4.35a41.506,41.506,0,0,0-.12-4.8q-.24-.6-1.769-.6h-.33v-.69c0-.46.019-.691.059-.691l.3-.029c.2-.019.48-.04.841-.06s.719-.041,1.08-.06c.34-.02.7-.045,1.079-.075s.67-.055.87-.075.311-.03.33-.03h.09v11.4a.7.7,0,0,0,.36.375,4.821,4.821,0,0,0,1.05.1h.691v1.38Zm-3.479-20.07a1.926,1.926,0,0,1,1.229.525,1.692,1.692,0,0,1,.481,1.275,1.606,1.606,0,0,1-.811,1.53,1.653,1.653,0,0,1-.96.269,1.708,1.708,0,0,1-.99-.269,1.606,1.606,0,0,1-.81-1.53,1.7,1.7,0,0,1,.526-1.32A1.9,1.9,0,0,1,415.59,791.971Z" style="fill: #fff"/>
      <path d="M425.64,810.241c.159.28.63.42,1.409.42h.9v1.38h-.24a62.765,62.765,0,0,0-6.72,0h-.24v-1.38h.9c.781,0,1.25-.14,1.411-.42v-.93c0-.28,0-.6.014-.945s.015-.74.015-1.171v-1.244q0-.93-.015-2c-.011-.71-.014-1.3-.014-1.755v-.69a1,1,0,0,0-.436-.765,3.49,3.49,0,0,0-1.335-.255h-.54v-.69c0-.46.02-.691.061-.691l.3-.029c.2-.019.485-.04.855-.06l1.1-.06q.508-.03,1.08-.075c.379-.031.67-.055.869-.075s.31-.03.33-.03h.091v1.2a8.3,8.3,0,0,0,.029,1.141l.03-.03a5.278,5.278,0,0,1,4.59-2.31q2.91.09,3.57,2.28l.06.15q.72-.9.811-.99a5.041,5.041,0,0,1,3.569-1.44q3.75,0,4.11,3.39.03.21.03,4.17,0,3.84.03,3.9a.641.641,0,0,0,.36.329,10.362,10.362,0,0,0,1.47.091h.48v1.38h-.24a62.765,62.765,0,0,0-6.72,0h-.24v-1.38h.72q1.59,0,1.591-.48.029-.06.029-4.14-.03-4.05-.06-4.29a2.658,2.658,0,0,0-.674-1.4,2.034,2.034,0,0,0-1.426-.434,3.25,3.25,0,0,0-2.369,1.019,4.3,4.3,0,0,0-1.231,2.641c0,.02,0,.2-.014.555s-.016.8-.016,1.335v3.36q0,.39.016.7c.009.21.014.385.014.525v.18q.24.42,1.41.42h.9v1.38h-.239a62.784,62.784,0,0,0-6.721,0h-.239v-1.38h.719q1.59,0,1.59-.48.03-.06.03-4.14-.03-4.05-.06-4.29a2.651,2.651,0,0,0-.675-1.4,2.03,2.03,0,0,0-1.425-.434,3.254,3.254,0,0,0-2.37,1.019,4.3,4.3,0,0,0-1.229,2.641v.555q0,.525-.016,1.335t-.015,1.53v.944c0,.33,0,.626.015.886s.016.5.016.7v.705Z" style="fill: #fff"/>
      <path d="M457.439,804.69a.6.6,0,0,1-.21.42h-8.46v.451a7.417,7.417,0,0,0,.6,3.36,3.8,3.8,0,0,0,3.72,2.22,2.8,2.8,0,0,0,2.16-.96,4.018,4.018,0,0,0,.93-1.56,1.053,1.053,0,0,1,.18-.42.781.781,0,0,1,.48-.091c.4,0,.6.1.6.3a1.427,1.427,0,0,1-.09.39,5.78,5.78,0,0,1-1.815,2.565,4.693,4.693,0,0,1-3.045,1,6.906,6.906,0,0,1-1.32-.15,6.23,6.23,0,0,1-3.06-1.56,7.064,7.064,0,0,1-2.28-5.16,6.955,6.955,0,0,1,1.62-4.665,6.1,6.1,0,0,1,3.99-2.205,1.988,1.988,0,0,1,.42-.03,5.266,5.266,0,0,1,4.155,1.605A6.524,6.524,0,0,1,457.439,804.69Zm-2.46-.9q-.27-3.27-2.22-3.96a2.028,2.028,0,0,0-.63-.12,2.983,2.983,0,0,0-2.55,1.439,6.32,6.32,0,0,0-.78,2.67v.211h6.18Z" style="fill: #fff"/>
    </g>
    <g>
      <path d="M761.677,120.092a1.27,1.27,0,0,1,.915.33,1.154,1.154,0,0,1,.345.87,1.915,1.915,0,0,1-.285.99,1.828,1.828,0,0,1-.765.72,3.812,3.812,0,0,1-.42.15.823.823,0,0,1-.105.045c-.03.011-.035.025-.015.045a1.522,1.522,0,0,0,.54.39,4.97,4.97,0,0,0,2.28.45,3.5,3.5,0,0,0,3.21-1.47,2.726,2.726,0,0,0,.45-1.38,1.537,1.537,0,0,0-.99-1.44,5.514,5.514,0,0,0-1.5-.42c-.1-.019-.255-.055-.465-.105s-.351-.079-.42-.09a2,2,0,0,1-.3-.075,3.081,3.081,0,0,1-.3-.105,2.544,2.544,0,0,1-.24-.12c-.091-.049-.195-.115-.315-.195a2.837,2.837,0,0,1-1.23-2.46,4.387,4.387,0,0,1,1.23-3.03,4.86,4.86,0,0,1,3.84-1.56q2.909,0,3.509,2.04a1.745,1.745,0,0,1,.061.57,2.024,2.024,0,0,1-.45,1.365,1.5,1.5,0,0,1-1.2.525,1.12,1.12,0,0,1-.78-.27.957.957,0,0,1-.3-.75,1.505,1.505,0,0,1,.9-1.44,1.543,1.543,0,0,1,.269-.12c.061,0,.05-.05-.029-.15a2.958,2.958,0,0,0-2.07-.66,3.033,3.033,0,0,0-1.98.66,2.1,2.1,0,0,0-.81,1.71,1.282,1.282,0,0,0,.45.96,3.979,3.979,0,0,0,1.53.54,9.4,9.4,0,0,1,1.8.51,3.344,3.344,0,0,1,1.89,2.1,3.691,3.691,0,0,1,.09.78,5.094,5.094,0,0,1-.51,2.13q-1.471,3.06-5.52,3.06-3.21,0-4.05-1.86a2.457,2.457,0,0,1-.21-1.05,2.277,2.277,0,0,1,.555-1.56A1.779,1.779,0,0,1,761.677,120.092Z" style="fill: #58c4dd"/>
      <path d="M782.2,132.122q0,.27-.54.27h-.39l-.84-.72q-5.4-4.92-5.4-14.28a24.191,24.191,0,0,1,.87-6.69,16.181,16.181,0,0,1,4.531-7.59c.139-.12.3-.255.48-.405s.3-.255.36-.315h.39a.708.708,0,0,1,.449.09.257.257,0,0,1,.091.18q0,.12-.33.45-4.65,4.922-4.65,14.28t4.65,14.28Q782.2,132,782.2,132.122Z" style="fill: #fff"/>
      <path d="M784.656,113.342c-.139-.139-.21-.24-.21-.3a2.351,2.351,0,0,1,.106-.5,1.931,1.931,0,0,1,.135-.405.293.293,0,0,1,.285-.165q.225-.015,1.514-.015h1.591l.569-2.4q.63-2.43.721-2.61a1.361,1.361,0,0,1,1.38-.84,1.161,1.161,0,0,1,.675.27.787.787,0,0,1,.285.63,18.821,18.821,0,0,1-.57,2.55c-.08.34-.176.715-.285,1.125s-.2.715-.255.915l-.06.3a7.08,7.08,0,0,0,1.5.06h1.529q.21.21.21.33a1.421,1.421,0,0,1-.389,1.05h-3.21l-1.08,4.35q-1.111,4.47-1.14,4.71a2.485,2.485,0,0,0-.03.45q0,1.26.809,1.26a1.882,1.882,0,0,0,.361-.03,4.312,4.312,0,0,0,2.73-2.4,6.52,6.52,0,0,0,.54-1.11.364.364,0,0,1,.15-.225,1.316,1.316,0,0,1,.45-.045q.6,0,.6.24a1.635,1.635,0,0,1-.12.36,7.027,7.027,0,0,1-1.064,1.935,7.883,7.883,0,0,1-1.486,1.545,3.856,3.856,0,0,1-2.37.84,3.054,3.054,0,0,1-1.844-.555,2.725,2.725,0,0,1-1.036-1.455,3.789,3.789,0,0,1-.059-.81v-.54l1.05-4.2q1.05-4.23,1.08-4.26a7.372,7.372,0,0,0-1.53-.06Z" style="fill: #fff"/>
      <path d="M796.506,102.422l.12-.03h.66l.84.72q5.4,4.922,5.4,14.28a23.669,23.669,0,0,1-.87,6.66,16.173,16.173,0,0,1-4.53,7.62q-.21.18-.48.405c-.18.15-.3.255-.36.315h-.359a1.13,1.13,0,0,1-.466-.06q-.105-.06-.105-.3.03-.03.331-.39,4.648-4.83,4.649-14.25t-4.649-14.25q-.3-.36-.331-.39A.353.353,0,0,1,796.506,102.422Z" style="fill: #fff"/>
    </g>
    <line x1="480" y1="279.514" x2="120" y2="279.514" style="fill: none;stroke: #fff933;stroke-miterlimit: 10;stroke-width: 1.5px;stroke-dasharray: 6"/>
    <line x1="480" y1="720" x2="480" y2="279.514" style="fill: none;stroke: #fc6255;stroke-miterlimit: 10;stroke-width: 1.5px;stroke-dasharray: 6"/>
    <circle cx="480" cy="279.52" r="4.5" style="fill: #fff"/>
    <circle cx="480" cy="720.028" r="4.5" style="fill: #fff"/>
    <circle cx="120" cy="279.514" r="4.5" style="fill: #fff"/>
    <g>
      <path d="M79.48,668.543q-.51-.09-4.77-.09-4.2,0-4.71.09h-.359v-1.38h.779a16.9,16.9,0,0,0,2.25-.09,1.917,1.917,0,0,0,.721-.36V651.2a.727.727,0,0,0-.241.09,8.827,8.827,0,0,1-3.089.57H69.49v-1.38h.571a8.369,8.369,0,0,0,4.2-1.14,4.134,4.134,0,0,0,.93-.69c.04-.06.16-.091.36-.091a.762.762,0,0,1,.511.181v8.97l.029,9a2.906,2.906,0,0,0,1.95.45h1.771v1.38Z" style="fill: #fff"/>
      <path d="M84.88,650.993a5.294,5.294,0,0,1,4.591-2.431,5.539,5.539,0,0,1,3.84,1.5A6.523,6.523,0,0,1,94.69,652.1a17.164,17.164,0,0,1,1.11,6.84,15.662,15.662,0,0,1-1.29,7.11,5.2,5.2,0,0,1-2.46,2.52,5.649,5.649,0,0,1-2.55.63,5.287,5.287,0,0,1-5.04-3.15,15.662,15.662,0,0,1-1.29-7.11,23.38,23.38,0,0,1,.375-4.605A10.074,10.074,0,0,1,84.88,650.993Zm6.75-.36a2.765,2.765,0,0,0-2.13-.96,2.857,2.857,0,0,0-2.16.96,3.617,3.617,0,0,0-.9,1.679,18.487,18.487,0,0,0-.3,3.421c0,.12-.006.51-.016,1.17s-.015,1.21-.015,1.65q0,2.88.06,4.02a17.126,17.126,0,0,0,.36,3.015,3.4,3.4,0,0,0,.9,1.575,2.658,2.658,0,0,0,2.069.9,2.627,2.627,0,0,0,2.04-.9,3.415,3.415,0,0,0,.9-1.575,17.126,17.126,0,0,0,.36-3.015q.06-1.14.06-4.02c0-.44,0-.991-.014-1.65s-.016-1.05-.016-1.17a18.553,18.553,0,0,0-.3-3.421A3.617,3.617,0,0,0,91.63,650.633Z" style="fill: #fff"/>
    </g>
    <path d="M77.38,711.343a5.294,5.294,0,0,1,4.591-2.431,5.539,5.539,0,0,1,3.84,1.5,6.518,6.518,0,0,1,1.379,2.04,17.169,17.169,0,0,1,1.11,6.841,15.654,15.654,0,0,1-1.29,7.109,5.2,5.2,0,0,1-2.46,2.521,5.649,5.649,0,0,1-2.55.63,5.287,5.287,0,0,1-5.04-3.151,15.654,15.654,0,0,1-1.29-7.109,23.373,23.373,0,0,1,.375-4.605A10.066,10.066,0,0,1,77.38,711.343Zm6.75-.361a2.768,2.768,0,0,0-2.13-.96,2.861,2.861,0,0,0-2.16.96,3.621,3.621,0,0,0-.9,1.68,18.477,18.477,0,0,0-.3,3.421c0,.119-.006.51-.016,1.17s-.015,1.21-.015,1.649q0,2.88.06,4.021a17.152,17.152,0,0,0,.36,3.015,3.4,3.4,0,0,0,.9,1.575,2.661,2.661,0,0,0,2.069.9,2.63,2.63,0,0,0,2.04-.9,3.42,3.42,0,0,0,.9-1.575,17.152,17.152,0,0,0,.36-3.015q.06-1.14.06-4.021c0-.439,0-.99-.014-1.649s-.016-1.051-.016-1.17a18.543,18.543,0,0,0-.3-3.421A3.621,3.621,0,0,0,84.13,710.982Z" style="fill: #fff"/>
    <g>
      <path d="M70.3,595.673a1.675,1.675,0,0,1-1.32-.54,1.917,1.917,0,0,1-.48-1.321,4.92,4.92,0,0,1,1.635-3.7,5.5,5.5,0,0,1,3.915-1.546,6.5,6.5,0,0,1,4.275,1.4A5.855,5.855,0,0,1,80.41,593.6a9.037,9.037,0,0,1,.061.99,5.676,5.676,0,0,1-1.051,3.27,19.881,19.881,0,0,1-3.39,3.449q-1.078.933-3,2.761l-1.77,1.68,2.28.03a36.012,36.012,0,0,0,5.01-.15q.12-.03.3-.63a19.482,19.482,0,0,0,.42-2.04v-.09h1.2v.09l-.841,5.49v.09H68.5v-.57a1.979,1.979,0,0,1,.061-.69q.028-.029,2.519-2.85,3.27-3.629,4.2-4.8a8.7,8.7,0,0,0,2.01-5.01,5.248,5.248,0,0,0-1.035-3.315,3.454,3.454,0,0,0-2.895-1.335,3.291,3.291,0,0,0-2.82,1.56c-.04.08-.1.191-.18.33a.639.639,0,0,0-.089.18c0,.02.049.03.149.03a1.527,1.527,0,0,1,1.215.54,1.872,1.872,0,0,1,.466,1.26,1.787,1.787,0,0,1-.5,1.275A1.71,1.71,0,0,1,70.3,595.673Z" style="fill: #fff"/>
      <path d="M84.88,590.993a5.294,5.294,0,0,1,4.591-2.431,5.539,5.539,0,0,1,3.84,1.5A6.523,6.523,0,0,1,94.69,592.1a17.164,17.164,0,0,1,1.11,6.84,15.662,15.662,0,0,1-1.29,7.11,5.2,5.2,0,0,1-2.46,2.52,5.649,5.649,0,0,1-2.55.63,5.287,5.287,0,0,1-5.04-3.15,15.662,15.662,0,0,1-1.29-7.11,23.38,23.38,0,0,1,.375-4.605A10.074,10.074,0,0,1,84.88,590.993Zm6.75-.36a2.765,2.765,0,0,0-2.13-.96,2.857,2.857,0,0,0-2.16.96,3.617,3.617,0,0,0-.9,1.679,18.487,18.487,0,0,0-.3,3.421c0,.12-.006.51-.016,1.17s-.015,1.21-.015,1.65q0,2.88.06,4.02a17.126,17.126,0,0,0,.36,3.015,3.4,3.4,0,0,0,.9,1.575,2.658,2.658,0,0,0,2.069.9,2.627,2.627,0,0,0,2.04-.9,3.415,3.415,0,0,0,.9-1.575,17.126,17.126,0,0,0,.36-3.015q.06-1.14.06-4.02c0-.44,0-.991-.014-1.65s-.016-1.05-.016-1.17a18.553,18.553,0,0,0-.3-3.421A3.617,3.617,0,0,0,91.63,590.633Z" style="fill: #fff"/>
    </g>
    <g>
      <path d="M70.811,534.653a1.641,1.641,0,0,1-1.276-.51,1.883,1.883,0,0,1-.465-1.32,3.627,3.627,0,0,1,1.35-2.865,5.737,5.737,0,0,1,3.12-1.365h.45c.7,0,1.14.011,1.321.03a7.346,7.346,0,0,1,2.009.63,4.471,4.471,0,0,1,2.491,2.82,2.963,2.963,0,0,1,.089.81,5,5,0,0,1-1.094,3.165,6.064,6.064,0,0,1-2.745,2q-.152.06,0,.09a1.786,1.786,0,0,0,.3.09,6.392,6.392,0,0,1,3.09,1.905,4.594,4.594,0,0,1,1.26,3.165,5.248,5.248,0,0,1-.569,2.37,5.955,5.955,0,0,1-2.356,2.535,6.824,6.824,0,0,1-3.644,1,7.175,7.175,0,0,1-3.511-.84,4.313,4.313,0,0,1-2.069-2.25,3.37,3.37,0,0,1-.3-1.47,1.794,1.794,0,0,1,.555-1.365,2,2,0,0,1,2.715.015,1.828,1.828,0,0,1,.54,1.35,1.928,1.928,0,0,1-.389,1.2,1.771,1.771,0,0,1-1.051.66l-.21.059a5.641,5.641,0,0,0,3.721,1.351,2.677,2.677,0,0,0,2.489-1.59,6.89,6.89,0,0,0,.511-3.03v-.6q0-2.85-1.92-3.81a6.3,6.3,0,0,0-1.83-.21l-1.261-.03-.09-.06a1.115,1.115,0,0,1-.06-.48.712.712,0,0,1,.09-.45.248.248,0,0,1,.151-.091,10.468,10.468,0,0,0,1.739-.149,2.6,2.6,0,0,0,2.011-1.485,6.639,6.639,0,0,0,.689-3.135,2.85,2.85,0,0,0-1.05-2.61,2.486,2.486,0,0,0-1.41-.42,4.436,4.436,0,0,0-2.639.81,1.253,1.253,0,0,0-.271.2,1.771,1.771,0,0,0-.24.255l-.09.12c.061.02.13.041.21.06a1.433,1.433,0,0,1,1,.57,1.829,1.829,0,0,1,.405,1.17,1.652,1.652,0,0,1-.5,1.215A1.725,1.725,0,0,1,70.811,534.653Z" style="fill: #fff"/>
      <path d="M84.88,530.993a5.294,5.294,0,0,1,4.591-2.431,5.539,5.539,0,0,1,3.84,1.5A6.523,6.523,0,0,1,94.69,532.1a17.164,17.164,0,0,1,1.11,6.84,15.662,15.662,0,0,1-1.29,7.11,5.2,5.2,0,0,1-2.46,2.52,5.649,5.649,0,0,1-2.55.63,5.287,5.287,0,0,1-5.04-3.15,15.662,15.662,0,0,1-1.29-7.11,23.38,23.38,0,0,1,.375-4.605A10.074,10.074,0,0,1,84.88,530.993Zm6.75-.36a2.765,2.765,0,0,0-2.13-.96,2.857,2.857,0,0,0-2.16.96,3.617,3.617,0,0,0-.9,1.679,18.487,18.487,0,0,0-.3,3.421c0,.12-.006.51-.016,1.17s-.015,1.21-.015,1.65q0,2.88.06,4.02a17.126,17.126,0,0,0,.36,3.015,3.4,3.4,0,0,0,.9,1.575,2.658,2.658,0,0,0,2.069.9,2.627,2.627,0,0,0,2.04-.9,3.415,3.415,0,0,0,.9-1.575,17.126,17.126,0,0,0,.36-3.015q.06-1.14.06-4.02c0-.44,0-.991-.014-1.65s-.016-1.05-.016-1.17a18.553,18.553,0,0,0-.3-3.421A3.617,3.617,0,0,0,91.63,530.633Z" style="fill: #fff"/>
    </g>
    <g>
      <path d="M80.86,488.542q-.42-.09-3.87-.09-3.6,0-4.019.09H72.7v-1.38h.93a6.318,6.318,0,0,0,1.591-.15.538.538,0,0,0,.359-.3q.03-.06.03-1.62v-1.5H67.84v-1.38l4.53-6.93q4.591-6.959,4.651-6.99a1.577,1.577,0,0,1,.629-.06h.54l.18.18v13.8h2.76v1.38H78.37v1.53q0,1.23.015,1.44a.554.554,0,0,0,.165.36,3.8,3.8,0,0,0,1.71.24h.87v1.38Zm-5.07-6.33v-10.02l-6.569,9.99,3.269.03Z" style="fill: #fff"/>
      <path d="M84.88,470.992a5.293,5.293,0,0,1,4.591-2.43,5.535,5.535,0,0,1,3.84,1.5,6.506,6.506,0,0,1,1.379,2.04,17.164,17.164,0,0,1,1.11,6.84,15.662,15.662,0,0,1-1.29,7.11,5.2,5.2,0,0,1-2.46,2.52,5.649,5.649,0,0,1-2.55.63,5.287,5.287,0,0,1-5.04-3.15,15.662,15.662,0,0,1-1.29-7.11,23.38,23.38,0,0,1,.375-4.605A10.074,10.074,0,0,1,84.88,470.992Zm6.75-.36a2.765,2.765,0,0,0-2.13-.96,2.857,2.857,0,0,0-2.16.96,3.616,3.616,0,0,0-.9,1.68,18.464,18.464,0,0,0-.3,3.42c0,.12-.006.51-.016,1.17s-.015,1.21-.015,1.65q0,2.88.06,4.02a17.126,17.126,0,0,0,.36,3.015,3.4,3.4,0,0,0,.9,1.575,2.658,2.658,0,0,0,2.069.9,2.628,2.628,0,0,0,2.04-.9,3.415,3.415,0,0,0,.9-1.575,17.126,17.126,0,0,0,.36-3.015q.06-1.14.06-4.02,0-.66-.014-1.65t-.016-1.17a18.53,18.53,0,0,0-.3-3.42A3.616,3.616,0,0,0,91.63,470.632Z" style="fill: #fff"/>
    </g>
    <g>
      <path d="M70.21,422.123a1.65,1.65,0,0,1,1.215.5,1.688,1.688,0,0,1,.5,1.245,1.546,1.546,0,0,1-.51,1.17,1.62,1.62,0,0,1-1.139.48h-.21l.089.15a3.894,3.894,0,0,0,1.38,1.59,3.812,3.812,0,0,0,2.191.63,3.186,3.186,0,0,0,3.059-1.8,9.141,9.141,0,0,0,.571-3.84q0-3.088-.811-4.17a2.362,2.362,0,0,0-1.92-.99,3.865,3.865,0,0,0-3.54,2.04.581.581,0,0,1-.225.255,1.329,1.329,0,0,1-.435.045q-.51,0-.569-.18-.061-.12-.061-5.25,0-.9-.015-2.13t-.015-1.56q0-1.678.18-1.68a.175.175,0,0,1,.121-.061l.54.181a10.623,10.623,0,0,0,3.989.78,10.207,10.207,0,0,0,4.08-.84.953.953,0,0,1,.391-.121c.159,0,.239.181.239.541v.39a7.667,7.667,0,0,1-6.15,2.91,7.2,7.2,0,0,1-1.679-.18l-.3-.06v5.16a5.145,5.145,0,0,1,4.74-1.23,5.683,5.683,0,0,1,3.285,2.28,6.9,6.9,0,0,1,1.276,4.14,6.561,6.561,0,0,1-1.906,4.71,6.258,6.258,0,0,1-4.695,1.98,5,5,0,0,1-3.21-1.05,3.334,3.334,0,0,1-.99-.99,5.311,5.311,0,0,1-1.14-2.67c0-.06,0-.155-.014-.285s-.016-.225-.016-.285a1.784,1.784,0,0,1,.48-1.32A1.665,1.665,0,0,1,70.21,422.123Z" style="fill: #fff"/>
      <path d="M84.88,410.993a5.294,5.294,0,0,1,4.591-2.431,5.539,5.539,0,0,1,3.84,1.5A6.523,6.523,0,0,1,94.69,412.1a17.164,17.164,0,0,1,1.11,6.84,15.662,15.662,0,0,1-1.29,7.11,5.2,5.2,0,0,1-2.46,2.52,5.649,5.649,0,0,1-2.55.63,5.287,5.287,0,0,1-5.04-3.15,15.662,15.662,0,0,1-1.29-7.11,23.38,23.38,0,0,1,.375-4.6A10.074,10.074,0,0,1,84.88,410.993Zm6.75-.36a2.765,2.765,0,0,0-2.13-.96,2.857,2.857,0,0,0-2.16.96,3.617,3.617,0,0,0-.9,1.679,18.487,18.487,0,0,0-.3,3.421c0,.12-.006.51-.016,1.17s-.015,1.21-.015,1.65q0,2.88.06,4.02a17.126,17.126,0,0,0,.36,3.015,3.4,3.4,0,0,0,.9,1.575,2.658,2.658,0,0,0,2.069.9,2.627,2.627,0,0,0,2.04-.9,3.415,3.415,0,0,0,.9-1.575,17.126,17.126,0,0,0,.36-3.015q.06-1.14.06-4.02c0-.44,0-.991-.014-1.65s-.016-1.05-.016-1.17a18.553,18.553,0,0,0-.3-3.421A3.617,3.617,0,0,0,91.63,410.633Z" style="fill: #fff"/>
    </g>
    <g>
      <path d="M78.189,350.513a2.826,2.826,0,0,0-1.859-.75,4.3,4.3,0,0,0-3.51,1.8q-1.41,1.952-1.41,6.061l.029.12.241-.39a3.835,3.835,0,0,1,3.33-1.8,5.007,5.007,0,0,1,2.429.57,6.211,6.211,0,0,1,1.441,1.215,7.591,7.591,0,0,1,1.17,1.695,8.046,8.046,0,0,1,.63,3.21v.54a5.257,5.257,0,0,1-.151,1.29,6.739,6.739,0,0,1-1.859,3.33,5.509,5.509,0,0,1-2.88,1.68,5.049,5.049,0,0,1-1.2.12,5.229,5.229,0,0,1-1.02-.09,5.319,5.319,0,0,1-3.541-2.4,14.013,14.013,0,0,1-1.769-7.56,13.222,13.222,0,0,1,1.14-5.67,8.983,8.983,0,0,1,3.18-3.78,5.978,5.978,0,0,1,3.51-1.141,4.11,4.11,0,0,1,2.8.931,3.213,3.213,0,0,1,1.065,2.55,1.658,1.658,0,0,1-.435,1.2,1.534,1.534,0,0,1-1.155.45,1.59,1.59,0,0,1-1.155-.42,1.549,1.549,0,0,1-.436-1.17A1.485,1.485,0,0,1,78.189,350.513Zm-1.319,7.2a2.616,2.616,0,0,0-2.16-1.08,2.433,2.433,0,0,0-1.8.69q-1.47,1.47-1.471,4.739a12.729,12.729,0,0,0,.361,3.691,3.449,3.449,0,0,0,1.02,1.53,2.51,2.51,0,0,0,1.709.63,2.694,2.694,0,0,0,2.341-1.14,3.31,3.31,0,0,0,.569-1.5,19.547,19.547,0,0,0,.122-2.52v-.96a20.2,20.2,0,0,0-.122-2.58A3.315,3.315,0,0,0,76.87,357.713Z" style="fill: #fff"/>
      <path d="M84.88,350.993a5.293,5.293,0,0,1,4.591-2.431,5.539,5.539,0,0,1,3.84,1.5,6.521,6.521,0,0,1,1.378,2.041,17.144,17.144,0,0,1,1.111,6.84,15.675,15.675,0,0,1-1.29,7.11,5.2,5.2,0,0,1-2.46,2.52,5.652,5.652,0,0,1-2.55.63,5.286,5.286,0,0,1-5.04-3.15,15.662,15.662,0,0,1-1.29-7.11,23.38,23.38,0,0,1,.375-4.6A10.074,10.074,0,0,1,84.88,350.993Zm6.75-.36a2.765,2.765,0,0,0-2.13-.96,2.856,2.856,0,0,0-2.16.96,3.628,3.628,0,0,0-.9,1.679,18.51,18.51,0,0,0-.3,3.421c0,.12-.006.51-.016,1.17s-.016,1.21-.016,1.65q0,2.88.061,4.02a17.149,17.149,0,0,0,.359,3.015,3.408,3.408,0,0,0,.9,1.575,2.661,2.661,0,0,0,2.07.9,2.627,2.627,0,0,0,2.04-.9,3.413,3.413,0,0,0,.9-1.575,17.005,17.005,0,0,0,.361-3.015q.06-1.14.059-4.02c0-.44,0-.991-.013-1.65s-.016-1.05-.016-1.17a18.62,18.62,0,0,0-.3-3.421A3.616,3.616,0,0,0,91.63,350.633Z" style="fill: #fff"/>
    </g>
    <g>
      <path d="M68.65,294.8q.03-.06.51-3.27l.481-3.21c0-.04.2-.06.6-.06h.6v.12q0,.3.45.51a4.715,4.715,0,0,0,1.575.27q1.125.06,5.055.06h3.63v1.17l-2.04,2.79q-.45.63-1.02,1.395t-.87,1.185q-.3.42-.36.51a13.863,13.863,0,0,0-1.86,6.51q-.12,1.231-.15,3.36c0,.28-.006.565-.016.855s-.013.525-.013.7v.27a1.537,1.537,0,0,1-.586.87,1.611,1.611,0,0,1-1.005.36,1.462,1.462,0,0,1-1.155-.495,2,2,0,0,1-.435-1.365q0-.45.12-1.71a20.988,20.988,0,0,1,2.79-8.13q.6-.96,2.521-3.63l1.379-1.89H76.061a35.249,35.249,0,0,0-5.491.18q-.12.06-.33.66a10.284,10.284,0,0,0-.3,1.41,3.556,3.556,0,0,1-.089.57v.09h-1.2Z" style="fill: #fff"/>
      <path d="M84.88,290.993a5.293,5.293,0,0,1,4.591-2.431,5.539,5.539,0,0,1,3.84,1.5,6.521,6.521,0,0,1,1.378,2.041,17.144,17.144,0,0,1,1.111,6.84,15.675,15.675,0,0,1-1.29,7.11,5.2,5.2,0,0,1-2.46,2.52,5.652,5.652,0,0,1-2.55.63,5.286,5.286,0,0,1-5.04-3.15,15.662,15.662,0,0,1-1.29-7.11,23.38,23.38,0,0,1,.375-4.6A10.074,10.074,0,0,1,84.88,290.993Zm6.75-.36a2.765,2.765,0,0,0-2.13-.96,2.856,2.856,0,0,0-2.16.96,3.628,3.628,0,0,0-.9,1.679,18.51,18.51,0,0,0-.3,3.421c0,.12-.006.51-.016,1.17s-.016,1.21-.016,1.65q0,2.88.061,4.02a17.149,17.149,0,0,0,.359,3.015,3.408,3.408,0,0,0,.9,1.575,2.661,2.661,0,0,0,2.07.9,2.627,2.627,0,0,0,2.04-.9,3.413,3.413,0,0,0,.9-1.575,17.005,17.005,0,0,0,.361-3.015q.06-1.14.059-4.02c0-.44,0-.991-.013-1.65s-.016-1.05-.016-1.17a18.62,18.62,0,0,0-.3-3.421A3.616,3.616,0,0,0,91.63,290.633Z" style="fill: #fff"/>
    </g>
    <g>
      <path d="M72.16,238.493a8.914,8.914,0,0,1-2.265-2.01,5.152,5.152,0,0,1-.315-4.921,5.348,5.348,0,0,1,1.935-2.175,5.261,5.261,0,0,1,2.924-.825,5.953,5.953,0,0,1,3.54,1.065,4.426,4.426,0,0,1,1.861,2.746,5.6,5.6,0,0,1,.03.719,4.4,4.4,0,0,1-.06.9,5.608,5.608,0,0,1-2.73,3.42l-.36.24q1.68,1.14,1.74,1.2a5.513,5.513,0,0,1,2.25,4.471,5.57,5.57,0,0,1-1.785,4.154A6.159,6.159,0,0,1,74.47,249.2a6,6,0,0,1-5.43-2.7,4.457,4.457,0,0,1-.75-2.61Q68.29,240.622,72.16,238.493Zm-1.95,5.34a3.752,3.752,0,0,0,1.29,2.924,4.351,4.351,0,0,0,3,1.156,4.866,4.866,0,0,0,2.234-.51,3.733,3.733,0,0,0,1.516-1.32,2.966,2.966,0,0,0,.51-1.651,3.053,3.053,0,0,0-1.05-2.279q-.24-.24-2.49-1.71c-.281-.181-.585-.375-.915-.585s-.585-.375-.765-.5l-.24-.151-.361.18a5.837,5.837,0,0,0-2.489,3A4.9,4.9,0,0,0,70.21,243.833Zm7.92-10.68a3.093,3.093,0,0,0-.84-2.191,3.734,3.734,0,0,0-2.04-1.139,9.446,9.446,0,0,0-.99-.031,3.626,3.626,0,0,0-2.67,1.081,2.165,2.165,0,0,0-.75,1.65,2.356,2.356,0,0,0,1.08,2.039q.15.151,1.92,1.261l1.74,1.139c.02-.019.149-.1.39-.254a3.171,3.171,0,0,0,.54-.406A3.893,3.893,0,0,0,78.13,233.153Z" style="fill: #fff"/>
      <path d="M84.88,230.993a5.293,5.293,0,0,1,4.59-2.431,5.536,5.536,0,0,1,3.84,1.5,6.518,6.518,0,0,1,1.379,2.04,17.146,17.146,0,0,1,1.111,6.841,15.67,15.67,0,0,1-1.29,7.109,5.209,5.209,0,0,1-2.46,2.521,5.652,5.652,0,0,1-2.55.63,5.285,5.285,0,0,1-5.04-3.151,15.657,15.657,0,0,1-1.29-7.109,23.391,23.391,0,0,1,.375-4.606A10.04,10.04,0,0,1,84.88,230.993Zm6.75-.361a2.768,2.768,0,0,0-2.13-.96,2.859,2.859,0,0,0-2.16.96,3.622,3.622,0,0,0-.9,1.68,18.567,18.567,0,0,0-.3,3.421c0,.119,0,.51-.015,1.17s-.016,1.21-.016,1.649q0,2.88.061,4.021a17.05,17.05,0,0,0,.359,3.014,3.4,3.4,0,0,0,.9,1.576,2.663,2.663,0,0,0,2.07.9,2.631,2.631,0,0,0,2.04-.9,3.416,3.416,0,0,0,.9-1.576,17,17,0,0,0,.361-3.014q.06-1.14.059-4.021c0-.439,0-.99-.014-1.649s-.015-1.051-.015-1.17a18.61,18.61,0,0,0-.3-3.421A3.628,3.628,0,0,0,91.63,230.632Z" style="fill: #fff"/>
    </g>
    <g>
      <path d="M72.189,185.663a1.7,1.7,0,0,1-.314,1.049,1.267,1.267,0,0,1-.825.51l-.12.03q0,.031.21.165a1.233,1.233,0,0,0,.33.166,4.294,4.294,0,0,0,1.71.3,3.355,3.355,0,0,0,.78-.059,4.113,4.113,0,0,0,2.43-1.861q1.17-1.68,1.17-5.82v-.21l-.15.24a3.834,3.834,0,0,1-3.45,2.04,5.082,5.082,0,0,1-4.08-2.07,6.5,6.5,0,0,1-1.62-4.68,7.424,7.424,0,0,1,.465-2.849,7.172,7.172,0,0,1,1.605-2.25,5.932,5.932,0,0,1,3.72-1.771l.09-.03h.15c.04,0,.1.006.194.016s.165.014.226.014a4.164,4.164,0,0,1,.87.061,5.676,5.676,0,0,1,3.81,3.09,15.357,15.357,0,0,1,1.29,6.78,13.26,13.26,0,0,1-1.8,7.109,8.181,8.181,0,0,1-2.535,2.625,5.7,5.7,0,0,1-3.105.946,4.883,4.883,0,0,1-3.046-.885,3.038,3.038,0,0,1-1.154-2.566q0-1.68,1.59-1.679a1.471,1.471,0,0,1,1.559,1.59Zm3.031-15.811a4.618,4.618,0,0,0-.84-.06,2.657,2.657,0,0,0-1.95.81,3.207,3.207,0,0,0-.826,1.575,17.313,17.313,0,0,0-.194,3.135,27.227,27.227,0,0,0,.15,3.24,3.006,3.006,0,0,0,.884,1.846,2.6,2.6,0,0,0,1.875.7h.12a2.757,2.757,0,0,0,2.356-1.694,8.736,8.736,0,0,0,.734-3.766,16.508,16.508,0,0,0-.239-3.359,3.246,3.246,0,0,0-.735-1.561A2.514,2.514,0,0,0,75.22,169.852Z" style="fill: #fff"/>
      <path d="M84.88,170.993a5.293,5.293,0,0,1,4.59-2.431,5.536,5.536,0,0,1,3.84,1.5,6.518,6.518,0,0,1,1.379,2.04,17.146,17.146,0,0,1,1.111,6.841,15.67,15.67,0,0,1-1.29,7.109,5.209,5.209,0,0,1-2.46,2.521,5.652,5.652,0,0,1-2.55.63,5.285,5.285,0,0,1-5.04-3.151,15.657,15.657,0,0,1-1.29-7.109,23.391,23.391,0,0,1,.375-4.606A10.04,10.04,0,0,1,84.88,170.993Zm6.75-.361a2.768,2.768,0,0,0-2.13-.96,2.859,2.859,0,0,0-2.16.96,3.622,3.622,0,0,0-.9,1.68,18.567,18.567,0,0,0-.3,3.421c0,.119,0,.51-.015,1.17s-.016,1.21-.016,1.649q0,2.88.061,4.021a17.05,17.05,0,0,0,.359,3.014,3.4,3.4,0,0,0,.9,1.576,2.663,2.663,0,0,0,2.07.9,2.631,2.631,0,0,0,2.04-.9,3.416,3.416,0,0,0,.9-1.576,17,17,0,0,0,.361-3.014q.06-1.14.059-4.021c0-.439,0-.99-.014-1.649s-.015-1.051-.015-1.17a18.61,18.61,0,0,0-.3-3.421A3.628,3.628,0,0,0,91.63,170.632Z" style="fill: #fff"/>
    </g>
    <g>
      <path d="M71.98,128.542q-.51-.09-4.77-.09-4.2,0-4.71.09h-.359v-1.38h.779a16.9,16.9,0,0,0,2.25-.09,1.917,1.917,0,0,0,.721-.36V111.2a.727.727,0,0,0-.241.09,8.827,8.827,0,0,1-3.089.57H61.99v-1.38h.571a8.369,8.369,0,0,0,4.2-1.14,4.134,4.134,0,0,0,.93-.69q.06-.09.36-.09a.761.761,0,0,1,.511.18v8.97l.029,9a2.906,2.906,0,0,0,1.95.45h1.771v1.38Z" style="fill: #fff"/>
      <path d="M77.38,110.992a5.293,5.293,0,0,1,4.591-2.43,5.535,5.535,0,0,1,3.84,1.5,6.506,6.506,0,0,1,1.379,2.04,17.164,17.164,0,0,1,1.11,6.84,15.662,15.662,0,0,1-1.29,7.11,5.2,5.2,0,0,1-2.46,2.52,5.649,5.649,0,0,1-2.55.63,5.287,5.287,0,0,1-5.04-3.15,15.662,15.662,0,0,1-1.29-7.11,23.38,23.38,0,0,1,.375-4.6A10.074,10.074,0,0,1,77.38,110.992Zm6.75-.36a2.765,2.765,0,0,0-2.13-.96,2.857,2.857,0,0,0-2.16.96,3.616,3.616,0,0,0-.9,1.68,18.464,18.464,0,0,0-.3,3.42c0,.12-.006.51-.016,1.17s-.015,1.21-.015,1.65q0,2.88.06,4.02a17.126,17.126,0,0,0,.36,3.015,3.4,3.4,0,0,0,.9,1.575,2.658,2.658,0,0,0,2.069.9,2.628,2.628,0,0,0,2.04-.9,3.415,3.415,0,0,0,.9-1.575,17.126,17.126,0,0,0,.36-3.015q.06-1.14.06-4.02,0-.66-.014-1.65t-.016-1.17a18.53,18.53,0,0,0-.3-3.42A3.616,3.616,0,0,0,84.13,110.632Z" style="fill: #fff"/>
      <path d="M92.38,110.992a5.293,5.293,0,0,1,4.591-2.43,5.535,5.535,0,0,1,3.84,1.5,6.506,6.506,0,0,1,1.379,2.04,17.164,17.164,0,0,1,1.11,6.84,15.662,15.662,0,0,1-1.29,7.11,5.2,5.2,0,0,1-2.46,2.52,5.649,5.649,0,0,1-2.55.63,5.287,5.287,0,0,1-5.04-3.15,15.662,15.662,0,0,1-1.29-7.11,23.38,23.38,0,0,1,.375-4.6A10.074,10.074,0,0,1,92.38,110.992Zm6.75-.36a2.765,2.765,0,0,0-2.13-.96,2.857,2.857,0,0,0-2.16.96,3.616,3.616,0,0,0-.9,1.68,18.464,18.464,0,0,0-.3,3.42c0,.12-.006.51-.016,1.17s-.015,1.21-.015,1.65q0,2.88.06,4.02a17.126,17.126,0,0,0,.36,3.015,3.4,3.4,0,0,0,.9,1.575,2.658,2.658,0,0,0,2.069.9,2.628,2.628,0,0,0,2.04-.9,3.415,3.415,0,0,0,.9-1.575,17.126,17.126,0,0,0,.36-3.015q.06-1.14.06-4.02,0-.66-.014-1.65t-.016-1.17a18.53,18.53,0,0,0-.3-3.42A3.616,3.616,0,0,0,99.13,110.632Z" style="fill: #fff"/>
    </g>
    <g>
      <path d="M23.652,465.51a1.221,1.221,0,0,0-.359.586,12.1,12.1,0,0,0-.09,1.514v.99H21.822v-6.03q.032-5.13.046-5.73a6.424,6.424,0,0,1,.165-1.26,8.469,8.469,0,0,1,3.119-4.935,11.373,11.373,0,0,1,5.79-2.415c.4-.04.83-.06,1.29-.06s.891.02,1.29.06a10.453,10.453,0,0,1,5.746,2.55,8.9,8.9,0,0,1,2.955,5.37q.06.39.089,6.42v6.03H40.933v-.99a12.1,12.1,0,0,0-.09-1.514,1.211,1.211,0,0,0-.361-.586Zm-.42-7.949v.4c0,.23,0,.515-.014.855s-.015.651-.015.93,0,.59.015.93.014.621.014.84v.39q.032.39.241.481.12.088,8.52.089,8.46,0,8.55-.03a.414.414,0,0,0,.33-.36q.06-.24.06-2.85a12.445,12.445,0,0,0-.3-3.075,5.992,5.992,0,0,0-1.17-2.205q-1.95-2.34-7.29-2.34a17.458,17.458,0,0,0-3.12.21,6.642,6.642,0,0,0-4.8,2.79A6.328,6.328,0,0,0,23.232,457.561Z" style="fill: #fff"/>
      <path d="M22.243,442.561a1.929,1.929,0,0,1,.525-1.231,1.7,1.7,0,0,1,1.275-.48,1.6,1.6,0,0,1,1.529.81,1.639,1.639,0,0,1,.271.96,1.689,1.689,0,0,1-.271.99,1.6,1.6,0,0,1-1.529.81,1.7,1.7,0,0,1-1.32-.525A1.9,1.9,0,0,1,22.243,442.561Zm20.069-3.481a26,26,0,0,0-.089,3.12,32.151,32.151,0,0,0,.089,3.271v.24H40.933v-.481a10.681,10.681,0,0,0-.09-1.47.649.649,0,0,0-.33-.36q-.06-.029-4.35-.03a41.532,41.532,0,0,0-4.8.12q-.6.24-.6,1.77v.33h-.691q-.689,0-.689-.06l-.03-.3c-.02-.2-.041-.48-.06-.839s-.04-.721-.061-1.08c-.019-.34-.044-.7-.074-1.081s-.055-.669-.075-.87-.03-.309-.03-.33v-.09h11.4a.692.692,0,0,0,.375-.36,4.746,4.746,0,0,0,.1-1.05v-.69h1.379Z" style="fill: #fff"/>
      <path d="M29.893,432.45q0,2.762,1.95,2.761a1.338,1.338,0,0,0,.51-.061,1.794,1.794,0,0,0,1.035-.929,9.1,9.1,0,0,0,.585-2.041,8.108,8.108,0,0,1,.66-2.34,4.347,4.347,0,0,1,2.97-2.43,5.666,5.666,0,0,1,.719-.029,4.845,4.845,0,0,1,2.071.42q2.22,1.168,2.219,4.41a4.771,4.771,0,0,1-1.079,3.119l.21.24.27.27c.12.121.23.24.33.36l.3.33v.241a.543.543,0,0,1-.18.389h-2.37q-1.95,0-2.25-.014c-.2-.01-.32-.056-.361-.136a1.982,1.982,0,0,1-.029-.48,1,1,0,0,1,.06-.465.993.993,0,0,1,.42-.165,6.963,6.963,0,0,0,2.07-.779,3.342,3.342,0,0,0,1.53-2.91q0-2.91-2.341-2.91a1.906,1.906,0,0,0-1.409.539,2.6,2.6,0,0,0-.81,1.261q-.12.51-.33,1.44a10.321,10.321,0,0,1-.63,2.279,3.747,3.747,0,0,1-2.79,2.311,2.306,2.306,0,0,1-.451.029q-3.448,0-3.87-4.23a1.98,1.98,0,0,1,0-.719,4.644,4.644,0,0,1,.451-2.1l.24-.45-.21-.269a7.577,7.577,0,0,1-.51-.661v-.24a.544.544,0,0,1,.18-.389h3.96l.179.179v.841a.521.521,0,0,1-.359.18,2.8,2.8,0,0,0-2.16.84A3.262,3.262,0,0,0,29.893,432.45Z" style="fill: #fff"/>
      <path d="M24.312,422.1h-.45v-1.2h5.521v-4.049h1.38V420.9h4.32q3.75-.029,4.245-.045a2.714,2.714,0,0,0,.944-.194,1.508,1.508,0,0,0,1.17-1.471q0-1.319-2.13-1.619-.239-.03-1.379-.03h-1.05v-1.2h1.05a9.116,9.116,0,0,1,1.98.151,4.1,4.1,0,0,1,1.949,1.125,2.914,2.914,0,0,1,.75,2.085,3.417,3.417,0,0,1-3.3,3.69q-.208.029-4.439.029h-4.11v2.371H29.652v-.27a2.754,2.754,0,0,0-.96-1.89A6.632,6.632,0,0,0,24.312,422.1Z" style="fill: #fff"/>
      <path d="M32.683,410.026a1.543,1.543,0,0,1,.48,1.155,1.5,1.5,0,0,1-.48,1.14,1.612,1.612,0,0,1-1.14.45,2.406,2.406,0,0,1-.96-.24,2.693,2.693,0,0,1-1.261-1.56,7.97,7.97,0,0,1-.449-2.85,6.406,6.406,0,0,1,.9-3.435,4.2,4.2,0,0,1,2.34-1.9,3.072,3.072,0,0,1,.946-.165q.525-.015,3.435-.015,2.94,0,3.435-.016a1.67,1.67,0,0,0,.764-.165.613.613,0,0,0,.42-.6.6.6,0,0,0-.42-.571,4.619,4.619,0,0,0-1.649-.179h-1.08v-1.2h1.17a9.666,9.666,0,0,1,1.41.089,2.825,2.825,0,0,1,1.4.991,2.717,2.717,0,0,1,.555,1.71A1.949,1.949,0,0,1,41.968,404a2.635,2.635,0,0,1-1.276.8h-.12q.091.09.406.36t.435.39a5.168,5.168,0,0,1,1.23,3.419,5.791,5.791,0,0,1-.661,2.79,3.373,3.373,0,0,1-1.739,1.651,2.921,2.921,0,0,1-1.14.24,3.592,3.592,0,0,1-2.581-1.17,5.557,5.557,0,0,1-1.139-1.71,14.7,14.7,0,0,1-1.111-5.22v-.42h-.66a4.6,4.6,0,0,0-1.5.18,2.867,2.867,0,0,0-2.13,2.909q0,2.012.241,2.011a1.5,1.5,0,0,1,1.32-.66A1.584,1.584,0,0,1,32.683,410.026Zm4.379-4.905c-1.159,0-1.74.01-1.74.03a.336.336,0,0,0,.031.15q.27,4.11,2.43,5.25a2.754,2.754,0,0,0,1.35.33,2.275,2.275,0,0,0,1.71-.72,2.461,2.461,0,0,0,.69-1.77,3.086,3.086,0,0,0-.721-2.056,3.368,3.368,0,0,0-1.769-1.125A16.885,16.885,0,0,0,37.062,405.121Z" style="fill: #fff"/>
      <path d="M40.513,394.021q.42-.24.42-1.41v-.9h1.379v.241a63.45,63.45,0,0,0,0,6.719v.241H40.933v-.9q0-1.171-.42-1.41h-.93q-.42,0-.945-.016t-1.17-.014H36.223q-.928,0-1.995.014t-1.755.016h-.69a.991.991,0,0,0-.765.435,3.49,3.49,0,0,0-.255,1.335v.54h-.691q-.689,0-.689-.06l-.03-.3c-.02-.2-.041-.485-.06-.855s-.04-.736-.061-1.1q-.028-.51-.074-1.08t-.075-.87q-.03-.3-.03-.33v-.091h1.2a8.288,8.288,0,0,0,1.14-.029l-.031-.031a5.275,5.275,0,0,1-2.309-4.589q.12-3.45,3.389-3.81.211-.03,4.17-.03,3.842,0,3.9-.031a.641.641,0,0,0,.33-.359,10.681,10.681,0,0,0,.09-1.47v-.48h1.379v.24a63.469,63.469,0,0,0,0,6.72v.24H40.933v-.72q0-1.59-.48-1.59-.06-.03-4.141-.03-4.05.03-4.29.06a2.644,2.644,0,0,0-1.394.675,2.024,2.024,0,0,0-.436,1.424,3.252,3.252,0,0,0,1.021,2.371,4.3,4.3,0,0,0,2.64,1.23h.555q.525,0,1.335.015t1.529.015h.946q.495,0,.885-.015t.7-.015h.7Z" style="fill: #fff"/>
      <path d="M32.728,371.326a1.625,1.625,0,0,1,.435,1.154,1.518,1.518,0,0,1-.466,1.141,1.651,1.651,0,0,1-2.264,0c-.1-.1-.161-.145-.18-.136s-.04.1-.061.286a9.818,9.818,0,0,0-.12,1.469,3.078,3.078,0,0,0,.961,2.4q1.41,1.41,4.71,1.409a6.961,6.961,0,0,0,3.869-.929,3.794,3.794,0,0,0,1.83-3.3,2.8,2.8,0,0,0-.3-1.32,3.5,3.5,0,0,0-2.34-1.74.508.508,0,0,1-.3-.15,1.106,1.106,0,0,1-.061-.48v-.42c.12-.12.21-.18.271-.18a4.007,4.007,0,0,1,1.769.75,4.853,4.853,0,0,1,2.161,4.23,6.188,6.188,0,0,1-.69,2.85,6.614,6.614,0,0,1-5.1,3.571,8.676,8.676,0,0,1-.96.029,9.686,9.686,0,0,1-.991-.029,6.943,6.943,0,0,1-4.59-2.46,6.243,6.243,0,0,1-1.439-3.991q0-3.87,2.04-4.529a2.218,2.218,0,0,1,.69-.091A1.471,1.471,0,0,1,32.728,371.326Z" style="fill: #fff"/>
      <path d="M34.963,357.211a.605.605,0,0,1,.42.21v8.46h.45a7.4,7.4,0,0,0,3.359-.6,3.8,3.8,0,0,0,2.221-3.72,2.8,2.8,0,0,0-.96-2.16,4.006,4.006,0,0,0-1.56-.93,1.053,1.053,0,0,1-.42-.18.783.783,0,0,1-.09-.48q0-.6.3-.6a1.415,1.415,0,0,1,.389.09,5.778,5.778,0,0,1,2.566,1.815,4.693,4.693,0,0,1,1.005,3.045,6.826,6.826,0,0,1-.15,1.32,6.239,6.239,0,0,1-1.56,3.06,7.061,7.061,0,0,1-5.161,2.28,6.959,6.959,0,0,1-4.665-1.62,6.1,6.1,0,0,1-2.2-3.99,2.079,2.079,0,0,1-.029-.42,5.266,5.266,0,0,1,1.605-4.155A6.53,6.53,0,0,1,34.963,357.211Zm-.9,2.46q-3.268.27-3.959,2.22a2.084,2.084,0,0,0-.121.63,2.983,2.983,0,0,0,1.441,2.55,6.3,6.3,0,0,0,2.67.78h.21v-6.18Z" style="fill: #fff"/>
    </g>
  </g>
</svg>
