<svg xmlns="http://www.w3.org/2000/svg" width="880" height="600" viewBox="0 0 880 600">
  <rect width="880" height="600"/>
  <g>
    <g>
      <g style="opacity: 0.2">
        <line x1="140" y1="107" x2="740" y2="107" style="fill: none;stroke: #f8f8f8"/>
        <line x1="140" y1="119" x2="740" y2="119" style="fill: none;stroke: #f8f8f8"/>
        <line x1="140" y1="131" x2="740" y2="131" style="fill: none;stroke: #f8f8f8"/>
        <line x1="140" y1="143" x2="740" y2="143" style="fill: none;stroke: #f8f8f8"/>
        <line x1="140" y1="167" x2="740" y2="167" style="fill: none;stroke: #f8f8f8"/>
        <line x1="140" y1="179" x2="740" y2="179" style="fill: none;stroke: #f8f8f8"/>
        <line x1="140" y1="191" x2="740" y2="191" style="fill: none;stroke: #f8f8f8"/>
        <line x1="140" y1="203" x2="740" y2="203" style="fill: none;stroke: #f8f8f8"/>
        <line x1="140" y1="227" x2="740" y2="227" style="fill: none;stroke: #f8f8f8"/>
        <line x1="140" y1="239" x2="740" y2="239" style="fill: none;stroke: #f8f8f8"/>
        <line x1="140" y1="251" x2="740" y2="251" style="fill: none;stroke: #f8f8f8"/>
        <line x1="140" y1="263" x2="740" y2="263" style="fill: none;stroke: #f8f8f8"/>
        <line x1="140" y1="287" x2="740" y2="287" style="fill: none;stroke: #f8f8f8"/>
        <line x1="140" y1="299" x2="740" y2="299" style="fill: none;stroke: #f8f8f8"/>
        <line x1="140" y1="311" x2="740" y2="311" style="fill: none;stroke: #f8f8f8"/>
        <line x1="140" y1="323" x2="740" y2="323" style="fill: none;stroke: #f8f8f8"/>
        <line x1="140" y1="347" x2="740" y2="347" style="fill: none;stroke: #f8f8f8"/>
        <line x1="140" y1="359" x2="740" y2="359" style="fill: none;stroke: #f8f8f8"/>
        <line x1="140" y1="371" x2="740" y2="371" style="fill: none;stroke: #f8f8f8"/>
        <line x1="140" y1="383" x2="740" y2="383" style="fill: none;stroke: #f8f8f8"/>
        <line x1="140" y1="407" x2="740" y2="407" style="fill: none;stroke: #f8f8f8"/>
        <line x1="140" y1="419" x2="740" y2="419" style="fill: none;stroke: #f8f8f8"/>
        <line x1="140" y1="431" x2="740" y2="431" style="fill: none;stroke: #f8f8f8"/>
        <line x1="140" y1="443" x2="740" y2="443" style="fill: none;stroke: #f8f8f8"/>
      </g>
      <g style="opacity: 0.30000000000000004">
        <line x1="740" y1="95" x2="740" y2="455" style="fill: none;stroke: #fff"/>
        <line x1="140" y1="155" x2="740" y2="155" style="fill: none;stroke: #fff"/>
        <line x1="140" y1="275" x2="740" y2="275" style="fill: none;stroke: #fff"/>
        <line x1="140" y1="395" x2="740" y2="395" style="fill: none;stroke: #fff"/>
      </g>
      <g style="opacity: 0.4">
        <line x1="140" y1="95" x2="740" y2="95" style="fill: none;stroke: #fff"/>
        <line x1="140" y1="215" x2="740" y2="215" style="fill: none;stroke: #fff"/>
        <line x1="140" y1="335" x2="740" y2="335" style="fill: none;stroke: #fff"/>
      </g>
    </g>
    <path d="M134.319,494.967a16.644,16.644,0,0,1,1.113-6.811,5.341,5.341,0,0,1,5.215-3.574,6.308,6.308,0,0,1,1.59.212,5.36,5.36,0,0,1,1.845,1.018,5.8,5.8,0,0,1,1.662,2.124,16.8,16.8,0,0,1,1.2,7.031,16.432,16.432,0,0,1-1.114,6.768,5.428,5.428,0,0,1-5.215,3.486,6.006,6.006,0,0,1-2.716-.688,5.2,5.2,0,0,1-2.235-2.344A15.447,15.447,0,0,1,134.319,494.967Zm2.49-.366a41.659,41.659,0,0,0,.322,6.328,4.635,4.635,0,0,0,1.37,2.791,3.117,3.117,0,0,0,4.322-.058,4.687,4.687,0,0,0,1.31-2.85,59.268,59.268,0,0,0,.029-12.056,4.341,4.341,0,0,0-1.442-2.731,3.493,3.493,0,0,0-2.1-.784,3,3,0,0,0-.812.117,4.876,4.876,0,0,0-1.019.454,2.9,2.9,0,0,0-1.061,1.172,6.731,6.731,0,0,0-.682,2.1A44.4,44.4,0,0,0,136.809,494.6Z" style="fill: #fff"/>
    <path d="M254.907,487.438V486.5a7.366,7.366,0,0,0,5.508-1.918q.48,0,.562.117a1.505,1.505,0,0,1,.082.659v16.817a1.27,1.27,0,0,0,.456,1.171,6.2,6.2,0,0,0,2.451.278h.989v.938q-1.054-.09-4.863-.089t-4.849.089v-.938h.953a5.912,5.912,0,0,0,2.343-.27c.3-.181.454-.573.454-1.179V486.647A9.325,9.325,0,0,1,254.907,487.438Z" style="fill: #fff"/>
    <g>
      <path d="M83.749,325.876v-.938a7.369,7.369,0,0,0,5.51-1.918q.479,0,.561.117a1.521,1.521,0,0,1,.082.659v16.817a1.268,1.268,0,0,0,.457,1.171,6.193,6.193,0,0,0,2.45.278H93.8V343q-1.055-.09-4.863-.089T84.086,343v-.938h.952a5.918,5.918,0,0,0,2.344-.27c.3-.181.454-.573.454-1.179V325.085A9.327,9.327,0,0,1,83.749,325.876Z" style="fill: #fff"/>
      <path d="M97.4,333.405a16.644,16.644,0,0,1,1.113-6.811,5.341,5.341,0,0,1,5.215-3.574,6.308,6.308,0,0,1,1.59.212,5.36,5.36,0,0,1,1.845,1.018,5.8,5.8,0,0,1,1.662,2.124,16.8,16.8,0,0,1,1.2,7.031,16.432,16.432,0,0,1-1.114,6.768,5.429,5.429,0,0,1-5.215,3.487,6.008,6.008,0,0,1-2.716-.689,5.2,5.2,0,0,1-2.235-2.344A15.447,15.447,0,0,1,97.4,333.405Zm2.49-.366a41.659,41.659,0,0,0,.322,6.328,4.635,4.635,0,0,0,1.37,2.791,3.117,3.117,0,0,0,4.322-.058,4.687,4.687,0,0,0,1.31-2.85,59.268,59.268,0,0,0,.029-12.056,4.339,4.339,0,0,0-1.442-2.731,3.493,3.493,0,0,0-2.1-.784,3,3,0,0,0-.812.117,4.876,4.876,0,0,0-1.019.454,2.9,2.9,0,0,0-1.061,1.172,6.722,6.722,0,0,0-.682,2.095A44.4,44.4,0,0,0,99.892,333.039Z" style="fill: #fff"/>
    </g>
    <g>
      <path d="M82.724,222a2.953,2.953,0,0,1,.051-.7,1.213,1.213,0,0,1,.28-.41l5.712-6.416q3.156-3.552,3.156-6.648a5.641,5.641,0,0,0-1.05-3.434,3.471,3.471,0,0,0-2.973-1.432,4.03,4.03,0,0,0-2.412.8,4.531,4.531,0,0,0-1.614,2.22,1.517,1.517,0,0,1,.388-.03,1.436,1.436,0,0,1,1.144.473,1.645,1.645,0,0,1,.409,1.109,1.423,1.423,0,0,1-.51,1.205,1.671,1.671,0,0,1-1.014.392,2.942,2.942,0,0,1-.467-.044,1.483,1.483,0,0,1-.683-.466,1.6,1.6,0,0,1-.417-1.176,5.324,5.324,0,0,1,1.575-3.753,5.242,5.242,0,0,1,3.983-1.665,6.449,6.449,0,0,1,4.516,1.629,5.71,5.71,0,0,1,1.523,5.882,8.173,8.173,0,0,1-.625,1.445,9.452,9.452,0,0,1-1.316,1.642q-.958,1.011-1.73,1.731t-2.5,2.243L85,219.686h5.37a7.693,7.693,0,0,0,2.823-.235,9.383,9.383,0,0,0,.654-2.666h.747L93.757,222Z" style="fill: #fff"/>
      <path d="M97.4,212.405a16.644,16.644,0,0,1,1.113-6.811,5.341,5.341,0,0,1,5.215-3.574,6.308,6.308,0,0,1,1.59.212,5.36,5.36,0,0,1,1.845,1.018,5.8,5.8,0,0,1,1.662,2.124,16.8,16.8,0,0,1,1.2,7.031,16.432,16.432,0,0,1-1.114,6.768,5.428,5.428,0,0,1-5.215,3.486,6.006,6.006,0,0,1-2.716-.688,5.2,5.2,0,0,1-2.235-2.344A15.447,15.447,0,0,1,97.4,212.405Zm2.49-.366a41.659,41.659,0,0,0,.322,6.328,4.635,4.635,0,0,0,1.37,2.791,3.117,3.117,0,0,0,4.322-.058,4.687,4.687,0,0,0,1.31-2.85,59.268,59.268,0,0,0,.029-12.056,4.339,4.339,0,0,0-1.442-2.731,3.493,3.493,0,0,0-2.1-.784,3,3,0,0,0-.812.117,4.876,4.876,0,0,0-1.019.454,2.9,2.9,0,0,0-1.061,1.172,6.722,6.722,0,0,0-.682,2.095A44.4,44.4,0,0,0,99.892,212.039Z" style="fill: #fff"/>
    </g>
    <g>
      <path d="M82.49,95.943a1.823,1.823,0,0,1,.425-1.33,1.339,1.339,0,0,1,.975-.428,1.714,1.714,0,0,1,1.193.45,1.774,1.774,0,0,1-.089,2.549,1.765,1.765,0,0,1-1.415.355,4.149,4.149,0,0,0,2.057,1.732,6.864,6.864,0,0,0,2.573.539,3.162,3.162,0,0,0,2.342-1.116A5.567,5.567,0,0,0,91.6,94.85a6.367,6.367,0,0,0-.9-3.63,3.03,3.03,0,0,0-2.68-1.327H86.7a3.127,3.127,0,0,1-.66-.042c-.1-.029-.148-.123-.148-.283q0-.281.543-.338a10.38,10.38,0,0,0,1.176-.085,3.085,3.085,0,0,0,2.674-1.585,6.712,6.712,0,0,0,.836-3.454,3.27,3.27,0,0,0-.874-2.577,2.958,2.958,0,0,0-2-.762,6.471,6.471,0,0,0-2.226.425,3.571,3.571,0,0,0-1.8,1.376q1.878,0,1.878,1.538a1.548,1.548,0,0,1-.421,1.113,1.472,1.472,0,0,1-1.117.44A1.492,1.492,0,0,1,83,84.076,3.517,3.517,0,0,1,84.543,81.2a6.1,6.1,0,0,1,3.813-1.177,6.346,6.346,0,0,1,3.808,1.164,3.506,3.506,0,0,1,1.619,2.952,5.143,5.143,0,0,1-1.144,3.251,6.138,6.138,0,0,1-2.961,2.069,6.366,6.366,0,0,1,3.65,1.984,5.01,5.01,0,0,1,1.364,3.41,5.414,5.414,0,0,1-1.848,4.081,6.864,6.864,0,0,1-8.643.377A4.131,4.131,0,0,1,82.49,95.943Z" style="fill: #fff"/>
      <path d="M97.4,90.405a16.644,16.644,0,0,1,1.113-6.811,5.341,5.341,0,0,1,5.215-3.574,6.308,6.308,0,0,1,1.59.212,5.36,5.36,0,0,1,1.845,1.018,5.8,5.8,0,0,1,1.662,2.124,16.8,16.8,0,0,1,1.2,7.031,16.432,16.432,0,0,1-1.114,6.768,5.428,5.428,0,0,1-5.215,3.486,6.006,6.006,0,0,1-2.716-.688,5.2,5.2,0,0,1-2.235-2.344A15.447,15.447,0,0,1,97.4,90.405Zm2.49-.366a41.659,41.659,0,0,0,.322,6.328,4.635,4.635,0,0,0,1.37,2.791,3.117,3.117,0,0,0,4.322-.058,4.687,4.687,0,0,0,1.31-2.85,39.334,39.334,0,0,0,.322-6.211,39.088,39.088,0,0,0-.293-5.845,4.339,4.339,0,0,0-1.442-2.731,3.493,3.493,0,0,0-2.1-.784,3,3,0,0,0-.812.117,4.876,4.876,0,0,0-1.019.454,2.9,2.9,0,0,0-1.061,1.172,6.722,6.722,0,0,0-.682,2.095A44.4,44.4,0,0,0,99.892,90.039Z" style="fill: #fff"/>
    </g>
    <g>
      <path d="M376.469,42.329a1.269,1.269,0,0,1,.915.33,1.146,1.146,0,0,1,.345.87,1.917,1.917,0,0,1-.284.989,1.838,1.838,0,0,1-.766.721,4.107,4.107,0,0,1-.42.149.742.742,0,0,1-.1.045c-.031.011-.036.025-.016.045a1.53,1.53,0,0,0,.54.391,4.983,4.983,0,0,0,2.28.45,3.5,3.5,0,0,0,3.21-1.471,2.723,2.723,0,0,0,.45-1.38,1.536,1.536,0,0,0-.99-1.439,5.489,5.489,0,0,0-1.5-.42c-.1-.021-.255-.056-.465-.106s-.35-.08-.42-.089a2.166,2.166,0,0,1-.3-.076c-.131-.04-.231-.075-.3-.1a2.539,2.539,0,0,1-.239-.12c-.091-.05-.2-.115-.316-.2a2.835,2.835,0,0,1-1.229-2.46,4.387,4.387,0,0,1,1.229-3.03,4.862,4.862,0,0,1,3.84-1.559q2.909,0,3.51,2.04a1.775,1.775,0,0,1,.06.569,2.02,2.02,0,0,1-.45,1.365,1.5,1.5,0,0,1-1.2.526,1.113,1.113,0,0,1-.779-.271.955.955,0,0,1-.3-.75,1.742,1.742,0,0,1,1.17-1.559c.06,0,.05-.05-.03-.151a2.961,2.961,0,0,0-2.07-.66,3.036,3.036,0,0,0-1.979.66,2.107,2.107,0,0,0-.811,1.71,1.284,1.284,0,0,0,.45.96,3.969,3.969,0,0,0,1.531.54,9.285,9.285,0,0,1,1.8.511,3.342,3.342,0,0,1,1.89,2.1,3.7,3.7,0,0,1,.09.781,5.1,5.1,0,0,1-.51,2.13q-1.47,3.06-5.519,3.059-3.211,0-4.051-1.859a2.467,2.467,0,0,1-.21-1.051,2.273,2.273,0,0,1,.556-1.56A1.779,1.779,0,0,1,376.469,42.329Z" style="fill: #58c4dd"/>
      <path d="M396.99,54.359c0,.18-.181.269-.54.269h-.391l-.84-.719q-5.4-4.922-5.4-14.281a24.2,24.2,0,0,1,.87-6.69,16.18,16.18,0,0,1,4.53-7.59q.21-.18.481-.4t.359-.316h.391a.717.717,0,0,1,.449.09.263.263,0,0,1,.091.18c0,.081-.111.23-.331.45q-4.65,4.92-4.65,14.28t4.65,14.281C396.879,54.128,396.99,54.278,396.99,54.359Z" style="fill: #fff"/>
      <path d="M399.449,35.579c-.14-.14-.21-.241-.21-.3a2.393,2.393,0,0,1,.105-.5,1.981,1.981,0,0,1,.135-.406.3.3,0,0,1,.285-.165q.225-.014,1.515-.014h1.59l.57-2.4q.63-2.43.72-2.61a1.361,1.361,0,0,1,1.38-.84,1.16,1.16,0,0,1,.675.271.784.784,0,0,1,.285.63,18.859,18.859,0,0,1-.57,2.549c-.08.341-.176.716-.285,1.125s-.195.716-.255.915l-.06.3a6.937,6.937,0,0,0,1.5.061h1.53c.139.139.21.25.21.33a1.42,1.42,0,0,1-.39,1.05h-3.21l-1.08,4.349q-1.11,4.472-1.14,4.71a2.5,2.5,0,0,0-.03.45q0,1.26.81,1.26a1.97,1.97,0,0,0,.36-.029,4.32,4.32,0,0,0,2.73-2.4,6.411,6.411,0,0,0,.54-1.11.371.371,0,0,1,.15-.225,1.326,1.326,0,0,1,.45-.044c.4,0,.6.08.6.24a1.653,1.653,0,0,1-.12.359,7.077,7.077,0,0,1-1.065,1.936,7.909,7.909,0,0,1-1.485,1.545,3.863,3.863,0,0,1-2.37.839,3.063,3.063,0,0,1-1.845-.554,2.721,2.721,0,0,1-1.035-1.455,3.776,3.776,0,0,1-.06-.811V44.1l1.05-4.2q1.05-4.229,1.08-4.26a7.433,7.433,0,0,0-1.53-.059Z" style="fill: #fff"/>
      <path d="M411.3,24.659l.12-.031h.66q.21.181.84.72,5.4,4.92,5.4,14.28a23.681,23.681,0,0,1-.87,6.661,16.174,16.174,0,0,1-4.531,7.62c-.139.12-.3.255-.479.4s-.3.256-.361.315h-.359a1.157,1.157,0,0,1-.466-.059c-.07-.041-.1-.141-.1-.3.019-.019.13-.149.33-.39q4.648-4.83,4.649-14.25t-4.649-14.25c-.2-.24-.311-.37-.33-.389A.353.353,0,0,1,411.3,24.659Z" style="fill: #fff"/>
      <path d="M430.349,36.718a.651.651,0,0,1,.42-.6h19.109a.654.654,0,0,1,.45.6.68.68,0,0,1-.42.571l-9.54.03h-9.54A.6.6,0,0,1,430.349,36.718Zm0,5.821a.6.6,0,0,1,.479-.6h19.08a1.172,1.172,0,0,0,.135.1,1.193,1.193,0,0,1,.151.121.5.5,0,0,1,.089.149.55.55,0,0,1,.045.226.655.655,0,0,1-.45.6H430.769A.652.652,0,0,1,430.349,42.539Z" style="fill: #fff"/>
      <path d="M460.288,35.579c-.14-.14-.21-.241-.21-.3a2.393,2.393,0,0,1,.105-.5,1.946,1.946,0,0,1,.136-.406.3.3,0,0,1,.285-.165q.224-.014,1.514-.014h1.59l.571-2.4q.63-2.43.719-2.61a1.363,1.363,0,0,1,1.38-.84,1.16,1.16,0,0,1,.675.271.784.784,0,0,1,.285.63,18.859,18.859,0,0,1-.57,2.549q-.12.512-.284,1.125c-.111.41-.2.716-.255.915l-.061.3a6.945,6.945,0,0,0,1.5.061H469.2c.139.139.209.25.209.33a1.42,1.42,0,0,1-.39,1.05h-3.21l-1.079,4.349q-1.11,4.472-1.141,4.71a2.6,2.6,0,0,0-.03.45q0,1.26.81,1.26a1.974,1.974,0,0,0,.361-.029,4.321,4.321,0,0,0,2.729-2.4,6.339,6.339,0,0,0,.54-1.11.368.368,0,0,1,.151-.225,1.319,1.319,0,0,1,.449-.044c.4,0,.6.08.6.24a1.685,1.685,0,0,1-.121.359,7.05,7.05,0,0,1-1.065,1.936,7.935,7.935,0,0,1-1.484,1.545,3.867,3.867,0,0,1-2.371.839,3.062,3.062,0,0,1-1.844-.554,2.711,2.711,0,0,1-1.035-1.455,3.7,3.7,0,0,1-.061-.811V44.1l1.05-4.2q1.05-4.229,1.08-4.26a7.426,7.426,0,0,0-1.529-.059Z" style="fill: #fff"/>
      <path d="M474.719,29.041a.958.958,0,0,1-.743-.3,1.1,1.1,0,0,1-.271-.77,2.111,2.111,0,0,1,.787-1.67,3.345,3.345,0,0,1,1.819-.8h.263q.612,0,.769.018a4.259,4.259,0,0,1,1.172.367,2.6,2.6,0,0,1,1.451,1.645,1.687,1.687,0,0,1,.053.471,2.909,2.909,0,0,1-.639,1.846,3.536,3.536,0,0,1-1.6,1.163c-.058.024-.058.041,0,.052a1.162,1.162,0,0,0,.175.053,3.721,3.721,0,0,1,1.8,1.11,2.68,2.68,0,0,1,.736,1.846,3.046,3.046,0,0,1-.334,1.381,3.459,3.459,0,0,1-1.373,1.478,3.971,3.971,0,0,1-2.125.586,4.182,4.182,0,0,1-2.045-.489,2.518,2.518,0,0,1-1.207-1.313,1.962,1.962,0,0,1-.175-.856,1.045,1.045,0,0,1,.323-.8,1.161,1.161,0,0,1,1.583.009,1.065,1.065,0,0,1,.314.787,1.119,1.119,0,0,1-.226.7,1.038,1.038,0,0,1-.612.385l-.123.035a3.291,3.291,0,0,0,2.168.787,1.564,1.564,0,0,0,1.453-.927,4.022,4.022,0,0,0,.3-1.766v-.35a2.24,2.24,0,0,0-1.119-2.222,3.669,3.669,0,0,0-1.066-.122l-.735-.017-.052-.035a.644.644,0,0,1-.035-.281.422.422,0,0,1,.051-.261.144.144,0,0,1,.088-.053,6.109,6.109,0,0,0,1.015-.088,1.514,1.514,0,0,0,1.172-.865,3.879,3.879,0,0,0,.4-1.828,1.664,1.664,0,0,0-.612-1.522,1.454,1.454,0,0,0-.822-.245,2.588,2.588,0,0,0-1.539.473.728.728,0,0,0-.158.113,1.025,1.025,0,0,0-.139.149l-.053.07c.035.011.075.023.122.035a.836.836,0,0,1,.586.332,1.071,1.071,0,0,1,.236.682.959.959,0,0,1-.289.708A1,1,0,0,1,474.719,29.041Z" style="fill: #fff"/>
    </g>
    <path d="M89.9,452.343a16.644,16.644,0,0,1,1.113-6.811,5.341,5.341,0,0,1,5.215-3.574,6.308,6.308,0,0,1,1.59.212,5.36,5.36,0,0,1,1.845,1.018,5.8,5.8,0,0,1,1.662,2.124,16.8,16.8,0,0,1,1.2,7.031,16.432,16.432,0,0,1-1.114,6.768A5.428,5.428,0,0,1,96.2,462.6a6.006,6.006,0,0,1-2.716-.688,5.2,5.2,0,0,1-2.235-2.344A15.447,15.447,0,0,1,89.9,452.343Zm2.49-.366a41.659,41.659,0,0,0,.322,6.328,4.635,4.635,0,0,0,1.37,2.791,3.117,3.117,0,0,0,4.322-.058,4.687,4.687,0,0,0,1.31-2.85,59.268,59.268,0,0,0,.029-12.056A4.339,4.339,0,0,0,98.3,443.4a3.493,3.493,0,0,0-2.1-.784,3,3,0,0,0-.812.117,4.876,4.876,0,0,0-1.019.454,2.9,2.9,0,0,0-1.061,1.172,6.722,6.722,0,0,0-.682,2.095A44.4,44.4,0,0,0,92.392,451.977Z" style="fill: #fff"/>
    <path d="M374.423,504.562a2.953,2.953,0,0,1,.051-.7,1.213,1.213,0,0,1,.28-.41l5.712-6.416q3.158-3.551,3.156-6.648a5.647,5.647,0,0,0-1.049-3.434,3.474,3.474,0,0,0-2.974-1.432,4.03,4.03,0,0,0-2.412.8,4.523,4.523,0,0,0-1.613,2.22,1.5,1.5,0,0,1,.387-.03,1.436,1.436,0,0,1,1.144.473,1.647,1.647,0,0,1,.409,1.109,1.423,1.423,0,0,1-.51,1.2,1.67,1.67,0,0,1-1.013.392,2.943,2.943,0,0,1-.468-.044,1.483,1.483,0,0,1-.683-.466,1.6,1.6,0,0,1-.417-1.176A5.328,5.328,0,0,1,376,486.247a5.242,5.242,0,0,1,3.983-1.665,6.449,6.449,0,0,1,4.516,1.629,5.71,5.71,0,0,1,1.523,5.882,8.173,8.173,0,0,1-.625,1.445,9.4,9.4,0,0,1-1.316,1.642q-.959,1.011-1.73,1.731t-2.5,2.243l-3.154,3.094h5.369a7.693,7.693,0,0,0,2.823-.235,9.383,9.383,0,0,0,.654-2.666h.747l-.832,5.215Z" style="fill: #fff"/>
    <g>
      <path d="M398.579,554.645l.572-6.738h18.325l.571,6.738H417.3q-.117-1.344-.227-2.118a8.085,8.085,0,0,0-.367-1.513,3.337,3.337,0,0,0-.571-1.1,2.8,2.8,0,0,0-.915-.643,4.085,4.085,0,0,0-1.377-.358q-.777-.072-1.948-.073a14.2,14.2,0,0,0-1.714.059.567.567,0,0,0-.454.344,2.626,2.626,0,0,0-.088.8v15.781a2.011,2.011,0,0,0,.124.842q.125.24.813.423a9.51,9.51,0,0,0,2.212.183h1.2v.937q-1.232-.088-5.7-.088-4.439,0-5.669.088v-.937h1.2a9.6,9.6,0,0,0,2.218-.183q.7-.183.814-.423a2.126,2.126,0,0,0,.117-.842V550.043a4.266,4.266,0,0,0-.029-.6.682.682,0,0,0-.161-.329.737.737,0,0,0-.433-.212,12.379,12.379,0,0,0-1.618-.059q-1.173,0-1.956.073a4.1,4.1,0,0,0-1.384.358,2.805,2.805,0,0,0-.916.643,3.318,3.318,0,0,0-.571,1.1,7.7,7.7,0,0,0-.359,1.513q-.1.773-.22,2.118Z" style="fill: #fff"/>
      <path d="M420.142,568.209v-.937a5.566,5.566,0,0,0,1.963-.2q.366-.2.366-1.163v-8.061q0-1.111-.374-1.375a3.873,3.873,0,0,0-1.838-.264v-.937l4.19-.322v10.988q0,.892.322,1.111a4.148,4.148,0,0,0,1.787.22v.937q-3.062-.088-3.12-.088Q423.027,568.121,420.142,568.209Zm1.216-18.486a1.532,1.532,0,0,1,.48-1.092,1.548,1.548,0,0,1,1.143-.49,1.586,1.586,0,0,1,1.131.447,1.63,1.63,0,0,1,0,2.286,1.581,1.581,0,0,1-1.128.446,1.534,1.534,0,0,1-1.167-.484A1.564,1.564,0,0,1,421.358,549.723Z" style="fill: #fff"/>
      <path d="M428.4,568.209v-.937a5.621,5.621,0,0,0,1.974-.2q.369-.2.369-1.163V557.88q0-1.111-.39-1.389a4.117,4.117,0,0,0-1.953-.279v-.937l4.219-.322V558.1a4.66,4.66,0,0,1,4.449-3.146q3.519,0,4,2.927a5.651,5.651,0,0,1,1.588-2.035,4.185,4.185,0,0,1,2.762-.892,3.841,3.841,0,0,1,3.15,1.112,3.116,3.116,0,0,1,.791,1.58,22.792,22.792,0,0,1,.131,3v5.72a.734.734,0,0,0,.513.768,7.83,7.83,0,0,0,1.831.139v.937q-3.062-.088-3.354-.088-.236,0-3.4.088v-.937a5.632,5.632,0,0,0,1.97-.2q.374-.2.374-1.163v-6.979a5.271,5.271,0,0,0-.469-2.422,1.8,1.8,0,0,0-1.758-.9,3.79,3.79,0,0,0-2.8,1.3,4.846,4.846,0,0,0-1.246,3.5v5.5q0,.964.373,1.163a5.643,5.643,0,0,0,1.971.2v.937q-3.062-.088-3.369-.088-.234,0-3.384.088v-.937a5.632,5.632,0,0,0,1.97-.2q.373-.2.374-1.163v-6.979a5.27,5.27,0,0,0-.47-2.422,1.8,1.8,0,0,0-1.762-.9,3.8,3.8,0,0,0-2.8,1.3,4.843,4.843,0,0,0-1.248,3.5v5.5q0,.964.376,1.163a5.634,5.634,0,0,0,1.968.2v.937q-3.069-.088-3.363-.088Q431.56,568.121,428.4,568.209Z" style="fill: #fff"/>
      <path d="M453.262,561.6a6.953,6.953,0,0,1,1.816-4.835,5.746,5.746,0,0,1,4.424-2.007,4.836,4.836,0,0,1,4.006,1.705,6.426,6.426,0,0,1,1.37,4.155q0,.474-.117.567a1.272,1.272,0,0,1-.63.092h-8.379a8.674,8.674,0,0,0,.908,4.507,3.837,3.837,0,0,0,3.384,2.011,4,4,0,0,0,.649-.058,7.083,7.083,0,0,0,1.077-.316,3.423,3.423,0,0,0,1.357-.947,4.925,4.925,0,0,0,1-1.776c.056-.285.179-.421.366-.411q.381,0,.381.352a2.332,2.332,0,0,1-.286.856,7.514,7.514,0,0,1-.827,1.293,4.538,4.538,0,0,1-1.59,1.228,5.061,5.061,0,0,1-2.307.526,6.317,6.317,0,0,1-4.622-2A6.739,6.739,0,0,1,453.262,561.6Zm2.52-.982H462.9a8.527,8.527,0,0,0-.111-1.33,11.248,11.248,0,0,0-.424-1.672,3.374,3.374,0,0,0-1.047-1.585,2.832,2.832,0,0,0-2.821-.409,4.737,4.737,0,0,0-1.149.7,3.764,3.764,0,0,0-1.069,1.622A8.2,8.2,0,0,0,455.782,560.622Z" style="fill: #fff"/>
    </g>
    <g>
      <path d="M52.034,322.945H51.1v-.717a4.309,4.309,0,0,0-.271-2,1.366,1.366,0,0,0-1.149-.374H33.884a1.333,1.333,0,0,0-1.135.381,4.346,4.346,0,0,0-.27,1.993v.717h-.938V311.974a8.335,8.335,0,0,1,3.06-6.512,10.787,10.787,0,0,1,7.348-2.673,10.206,10.206,0,0,1,7.146,2.688,8.487,8.487,0,0,1,2.939,6.5ZM49.9,317.276a1.48,1.48,0,0,0,.988-.219,2.156,2.156,0,0,0,.212-1.245v-3.033a6.251,6.251,0,0,0-.813-3.31,6.935,6.935,0,0,0-1.749-2.022q-2.253-1.654-6.586-1.655-4.552,0-6.689,1.553a6.384,6.384,0,0,0-2.781,5.464v3a2.221,2.221,0,0,0,.2,1.245,1.477,1.477,0,0,0,1,.219Z" style="fill: #fff"/>
      <path d="M33.548,298.907a1.532,1.532,0,0,1-1.092-.48,1.549,1.549,0,0,1-.49-1.143,1.586,1.586,0,0,1,.447-1.131,1.63,1.63,0,0,1,2.286,0,1.581,1.581,0,0,1,.446,1.128,1.537,1.537,0,0,1-.484,1.167A1.568,1.568,0,0,1,33.548,298.907Zm18.486,1.216H51.1a5.566,5.566,0,0,0-.2-1.963q-.2-.366-1.163-.366H41.676q-1.111,0-1.375.373a3.878,3.878,0,0,0-.264,1.839H39.1l-.322-4.19H49.766q.892,0,1.111-.322a4.148,4.148,0,0,0,.22-1.787h.937q-.088,3.062-.088,3.12Q51.946,297.238,52.034,300.123Z" style="fill: #fff"/>
      <path d="M51.639,291.817H47.684a4.364,4.364,0,0,1-.454-.015.336.336,0,0,1-.2-.106.379.379,0,0,1-.088-.274.4.4,0,0,1,.088-.3.958.958,0,0,1,.426-.144,6.787,6.787,0,0,0,3.166-1.4,3.474,3.474,0,0,0,1.1-2.741,3.734,3.734,0,0,0-.748-2.534,2.5,2.5,0,0,0-1.979-.85q-2.2,0-2.758,3.12-.366,1.8-.609,2.549a4.265,4.265,0,0,1-.784,1.406,3.192,3.192,0,0,1-2.551,1.289,3.5,3.5,0,0,1-2.6-1.135,5.113,5.113,0,0,1-1.1-3.655,4.6,4.6,0,0,1,.85-2.827,3.186,3.186,0,0,0-.484-.513,1.231,1.231,0,0,1-.366-.649c0-.177.051-.281.155-.313a2.265,2.265,0,0,1,.578-.048h3.017c.225,0,.376,0,.454.014a.3.3,0,0,1,.2.114.5.5,0,0,1,.08.312q0,.378-.279.395-3.633.234-3.633,3.515a3.9,3.9,0,0,0,.682,2.564,2.064,2.064,0,0,0,1.607.791,1.673,1.673,0,0,0,.9-.242,2.117,2.117,0,0,0,.616-.557,3.742,3.742,0,0,0,.441-.9,7.231,7.231,0,0,0,.285-.945q.075-.358.22-1.048a6.674,6.674,0,0,1,1.437-3.413,3.946,3.946,0,0,1,2.86-1.259,4.022,4.022,0,0,1,2.966,1.2,4.923,4.923,0,0,1,1.2,3.618,4.632,4.632,0,0,1-1.29,3.31c.119.115.228.215.33.3l.213.178a.362.362,0,0,0,.095.063.175.175,0,0,1,.064.044q.588.6.588.75c0,.162-.051.259-.153.289A2.438,2.438,0,0,1,51.639,291.817Z" style="fill: #fff"/>
      <path d="M40.037,280.436h-.659a3.212,3.212,0,0,0-1.033-2.293,4.992,4.992,0,0,0-2.175-1.23,11.151,11.151,0,0,0-2.593-.345v-.747H39.1v-4.292h.937v4.292h8.346q3.241,0,3.241-2.021a1.677,1.677,0,0,0-.887-1.436,4.543,4.543,0,0,0-2.471-.571H46.608v-.747H48.32a5.309,5.309,0,0,1,2.838.747,2.447,2.447,0,0,1,1.213,2.227,4.242,4.242,0,0,1-.139,1.076,6.085,6.085,0,0,1-.5,1.231,2.631,2.631,0,0,1-1.244,1.128,4.941,4.941,0,0,1-2.176.432H40.037Z" style="fill: #fff"/>
      <path d="M49.168,268.116q-2.553,0-3.9-3.059a16.216,16.216,0,0,1-1.1-5.627H43.073a3.758,3.758,0,0,0-2.841,1.026,3.271,3.271,0,0,0-.986,2.324,3.878,3.878,0,0,0,1.392,3.287,1.4,1.4,0,0,1,.477-1.171,1.562,1.562,0,0,1,.9-.31,1.394,1.394,0,0,1,.988.36,1.25,1.25,0,0,1,.389.966,1.318,1.318,0,0,1-.373.959,1.383,1.383,0,0,1-1.033.381,2.908,2.908,0,0,1-2.432-1.324,5.289,5.289,0,0,1-.967-3.21,5.825,5.825,0,0,1,1.651-4.236,3.358,3.358,0,0,1,1.169-.8,3.726,3.726,0,0,1,1.087-.293c.289-.02.714-.03,1.279-.03h5.995a2.509,2.509,0,0,0,.467-.058,1.788,1.788,0,0,0,.665-.327.846.846,0,0,0,.373-.721q0-1.075-1.915-1.062H47.677v-.747h1.688a2.609,2.609,0,0,1,2.222.834,2.7,2.7,0,0,1,.623,1.6,2.039,2.039,0,0,1-.735,1.624,3.015,3.015,0,0,1-1.736.717,4.221,4.221,0,0,1,1.889,1.563,4.427,4.427,0,0,1,.743,2.563,7.993,7.993,0,0,1-.271,2.085,4.475,4.475,0,0,1-1.028,1.845A2.461,2.461,0,0,1,49.168,268.116Zm-.029-2.49a2.5,2.5,0,0,0,1.849-.731,2.409,2.409,0,0,0,.724-1.76,3.9,3.9,0,0,0-.976-2.516,3.532,3.532,0,0,0-2.9-1.189h-3.01q.118,3.318,1.44,4.757A3.876,3.876,0,0,0,49.139,265.626Z" style="fill: #fff"/>
      <path d="M52.034,253.424H51.1a5.629,5.629,0,0,0-.2-1.975q-.2-.369-1.163-.369H41.705q-1.111,0-1.389.391a4.111,4.111,0,0,0-.279,1.953H39.1l-.322-4.22h3.146a4.659,4.659,0,0,1-3.146-4.448A3.849,3.849,0,0,1,39.89,241.6a3.173,3.173,0,0,1,1.58-.8,21.383,21.383,0,0,1,3-.139h5.72a.733.733,0,0,0,.768-.513,7.824,7.824,0,0,0,.139-1.831h.937q-.088,3.061-.088,3.369,0,.236.088,3.384H51.1a5.636,5.636,0,0,0-.2-1.97q-.2-.374-1.163-.374H42.758a5.27,5.27,0,0,0-2.422.47,1.8,1.8,0,0,0-.9,1.762,3.8,3.8,0,0,0,1.3,2.805,4.843,4.843,0,0,0,3.5,1.248h5.5q.965,0,1.163-.376a5.642,5.642,0,0,0,.2-1.968h.937q-.088,3.068-.088,3.362Q51.946,250.267,52.034,253.424Z" style="fill: #fff"/>
      <path d="M50.39,234.806a6.721,6.721,0,0,1-4.837,1.9,7.036,7.036,0,0,1-4.911-1.875,6.018,6.018,0,0,1-2.055-4.629,5.68,5.68,0,0,1,.871-3.146,2.679,2.679,0,0,1,2.352-1.351,1.4,1.4,0,0,1,1.033.374,1.288,1.288,0,0,1,.373.95,1.275,1.275,0,0,1-.39.978,1.392,1.392,0,0,1-.992.364,1.711,1.711,0,0,1-.529-.085,1.289,1.289,0,0,1-.544-.408,1.478,1.478,0,0,1-.324-.878,4.115,4.115,0,0,0-1.1,3.114v.059a3.668,3.668,0,0,0,1.44,2.783q1.438,1.26,4.727,1.26a9.435,9.435,0,0,0,2.974-.418,4.5,4.5,0,0,0,1.9-1.106,5.051,5.051,0,0,0,.948-1.362,3.259,3.259,0,0,0,.3-1.333q0-2.9-3.163-3.882a.349.349,0,0,1-.294-.355q0-.392.293-.392a2.249,2.249,0,0,1,.528.115,4.69,4.69,0,0,1,.981.475,5.965,5.965,0,0,1,1.12.871,4.276,4.276,0,0,1,.9,1.41,5.158,5.158,0,0,1,.38,2.022A6.084,6.084,0,0,1,50.39,234.806Z" style="fill: #fff"/>
      <path d="M45.429,223.585a6.958,6.958,0,0,1-4.835-1.816,5.746,5.746,0,0,1-2.007-4.424,4.838,4.838,0,0,1,1.7-4.007,6.426,6.426,0,0,1,4.155-1.369q.474,0,.567.117a1.272,1.272,0,0,1,.092.63V221.1a8.674,8.674,0,0,0,4.507-.908,3.837,3.837,0,0,0,2.011-3.384,4,4,0,0,0-.058-.649,7.05,7.05,0,0,0-.316-1.077,3.426,3.426,0,0,0-.947-1.358,4.924,4.924,0,0,0-1.776-1c-.285-.056-.421-.179-.411-.366q0-.381.352-.381a2.344,2.344,0,0,1,.856.285,7.587,7.587,0,0,1,1.293.828,4.534,4.534,0,0,1,1.228,1.589,5.067,5.067,0,0,1,.526,2.307,6.314,6.314,0,0,1-2,4.622A6.74,6.74,0,0,1,45.429,223.585Zm-.982-2.52v-7.119a8.645,8.645,0,0,0-1.33.11,11.143,11.143,0,0,0-1.672.425,3.374,3.374,0,0,0-1.585,1.047,2.83,2.83,0,0,0-.409,2.82,4.722,4.722,0,0,0,.7,1.15,3.764,3.764,0,0,0,1.622,1.069A8.2,8.2,0,0,0,44.447,221.065Z" style="fill: #fff"/>
    </g>
    <path d="M495.383,500.505a1.824,1.824,0,0,1,.426-1.33,1.336,1.336,0,0,1,.974-.428,1.716,1.716,0,0,1,1.194.45,1.774,1.774,0,0,1-.089,2.549,1.766,1.766,0,0,1-1.415.355,4.144,4.144,0,0,0,2.057,1.732,6.86,6.86,0,0,0,2.573.539,3.165,3.165,0,0,0,2.342-1.116,5.567,5.567,0,0,0,1.049-3.844,6.361,6.361,0,0,0-.9-3.63,3.028,3.028,0,0,0-2.68-1.327h-1.322a3.115,3.115,0,0,1-.659-.042c-.1-.029-.148-.122-.148-.283,0-.187.18-.3.543-.338a10.565,10.565,0,0,0,1.175-.084,3.087,3.087,0,0,0,2.674-1.586,6.7,6.7,0,0,0,.837-3.454,3.27,3.27,0,0,0-.874-2.577,2.963,2.963,0,0,0-2-.762,6.465,6.465,0,0,0-2.225.425,3.567,3.567,0,0,0-1.8,1.376q1.878,0,1.878,1.538a1.548,1.548,0,0,1-.421,1.113,1.475,1.475,0,0,1-1.117.44,1.491,1.491,0,0,1-1.553-1.583,3.515,3.515,0,0,1,1.541-2.879,6.093,6.093,0,0,1,3.812-1.177,6.349,6.349,0,0,1,3.809,1.164,3.506,3.506,0,0,1,1.619,2.952,5.148,5.148,0,0,1-1.144,3.251,6.138,6.138,0,0,1-2.961,2.069,6.366,6.366,0,0,1,3.65,1.984,5.013,5.013,0,0,1,1.363,3.41,5.413,5.413,0,0,1-1.847,4.081,6.864,6.864,0,0,1-8.643.377A4.129,4.129,0,0,1,495.383,500.505Z" style="fill: #fff"/>
    <path d="M612.822,499.611v-.938l9.213-14.077a.661.661,0,0,1,.6-.351c.225,0,.361.044.41.131a1.687,1.687,0,0,1,.073.645v13.652H626.2v.938h-3.077v2.6a1.4,1.4,0,0,0,.359,1.139,3.874,3.874,0,0,0,1.912.277h.63v.938q-1.23-.09-4.032-.089-2.856,0-4.1.089v-.938h.645a4.228,4.228,0,0,0,1.967-.269,1.359,1.359,0,0,0,.376-1.147v-2.6Zm.922-.938h7.31V487.482Z" style="fill: #fff"/>
    <path d="M734.631,499.654a1.484,1.484,0,0,1,.521-1.306,1.849,1.849,0,0,1,1.072-.363,1.272,1.272,0,0,1,1.03.456,1.752,1.752,0,0,1,0,2.179,1.275,1.275,0,0,1-1.03.456,1.975,1.975,0,0,1-.552-.059,4.709,4.709,0,0,0,1.59,2.363,4.229,4.229,0,0,0,2.78.992,3.636,3.636,0,0,0,3.216-1.993,9.1,9.1,0,0,0,.719-4.209,9.52,9.52,0,0,0-.543-3.678,2.716,2.716,0,0,0-2.555-1.868,4.493,4.493,0,0,0-3.863,2.033.485.485,0,0,1-.345.27c-.177,0-.285-.055-.325-.167a2.119,2.119,0,0,1-.06-.619v-8.817q0-.713.293-.713a1.677,1.677,0,0,1,.367.063,13.3,13.3,0,0,0,3.984.611,9.761,9.761,0,0,0,4.087-.879.5.5,0,0,1,.234-.088c.2,0,.3.112.308.337a1.19,1.19,0,0,1-.244.47,5.745,5.745,0,0,1-.763.848,10.375,10.375,0,0,1-1.184.964,6.127,6.127,0,0,1-1.635.786,6.549,6.549,0,0,1-2.035.316,8.832,8.832,0,0,1-2.577-.4v5.819a5.293,5.293,0,0,1,3.817-1.5,5.178,5.178,0,0,1,4.052,1.893,7.028,7.028,0,0,1-.3,9.391,6.251,6.251,0,0,1-4.588,1.973,5,5,0,0,1-3.943-1.737A5.672,5.672,0,0,1,734.631,499.654Z" style="fill: #fff"/>
    <g>
      <line x1="260" y1="95" x2="260" y2="455" style="fill: none;stroke: #f8f8f8;opacity: 0.4"/>
      <line x1="380" y1="95" x2="380" y2="455" style="fill: none;stroke: #f8f8f8;opacity: 0.4"/>
      <line x1="500" y1="95" x2="500" y2="455" style="fill: none;stroke: #f8f8f8;opacity: 0.4"/>
      <line x1="620" y1="95" x2="620" y2="455" style="fill: none;stroke: #f8f8f8;opacity: 0.4"/>
    </g>
    <line x1="140" y1="455" x2="740" y2="455" style="fill: none;stroke: #fff;opacity: 0.8"/>
    <line x1="140" y1="95" x2="140" y2="455" style="fill: none;stroke: #fff;opacity: 0.8"/>
  </g>
  <g>
    <rect x="409.896" y="387.127" width="92.971" height="34.216"/>
    <path d="M140,455h0c34.258.031,68.885-.081,102.5-7.478,63.477-13.483,110.81-52.43,149.167-103.214,20.806-27.5,38.415-57.319,54.166-87.96C464.442,220.04,480.467,182.421,495,144.313Q504.29,119.785,512.845,95" style="fill: none;stroke: #58c4dd;stroke-miterlimit: 10;stroke-width: 2px"/>
    <line x1="380" y1="359.025" x2="380" y2="455" style="fill: none;stroke: #f8f8f8;stroke-width: 2px"/>
    <path d="M387.5,454.789a.5.5,0,0,1,.321-.528,7.192,7.192,0,0,1,1.111-.252,5.714,5.714,0,0,0,1.383-.407q4.3-1.935,4.3-7.668V416.679q0-7.293,5.963-9.363-5.963-2.068-5.963-8.888V368.81a23.778,23.778,0,0,0-.1-2.509,7.613,7.613,0,0,0-1.914-4.1,6.333,6.333,0,0,0-3.889-2.07c-.033,0-.128-.012-.284-.034a2.037,2.037,0,0,1-.333-.068c-.067-.022-.157-.057-.272-.1a.44.44,0,0,1-.247-.248,1,1,0,0,1-.074-.389c0-.589,3.667-.172,5.59,1.25a8.212,8.212,0,0,1,3.25,6.195q.048.683.049,2.013v29.346a11.388,11.388,0,0,0,.654,4.037,5.832,5.832,0,0,0,1.692,2.562,11.847,11.847,0,0,0,1.741,1.2,4.964,4.964,0,0,0,1.419.508,4.167,4.167,0,0,1,.432.035,1.445,1.445,0,0,1,.457.119c.115.056.231.107.345.152a.525.525,0,0,1,.272.238.728.728,0,0,1,.1.373,1.1,1.1,0,0,1-.074.441.5.5,0,0,1-.272.255,1.757,1.757,0,0,1-.407.118c-.14.023-.325.056-.556.1s-.444.091-.642.137a6.615,6.615,0,0,0-3.3,2.136,7.528,7.528,0,0,0-1.766,4.242,15.36,15.36,0,0,0-.1,2.035v28.746q0,1.362-.086,2.176a9.512,9.512,0,0,1-.66,2.276,8.081,8.081,0,0,1-1.674,2.626C391.938,455.181,387.5,455.237,387.5,454.789Z" style="fill: #fff"/>
    <g>
      <g>
        <path d="M422.088,404.277a1.482,1.482,0,0,1-1.167-.488,1.733,1.733,0,0,1-.435-1.195,4.527,4.527,0,0,1,1.439-3.34,4.915,4.915,0,0,1,3.584-1.411,5.87,5.87,0,0,1,4.127,1.52,5.185,5.185,0,0,1,1.684,3.937,4.815,4.815,0,0,1-.543,2.226,7.685,7.685,0,0,1-1.3,1.847q-.759.788-2.172,2.009-.977.841-2.715,2.5l-1.6,1.52,2.064.027a32.766,32.766,0,0,0,4.534-.135,7.367,7.367,0,0,0,.652-2.417v-.081h1.086v.081q-.027.082-.353,2.471a19.933,19.933,0,0,1-.408,2.5v.081H420.486v-.841a.7.7,0,0,1,.163-.408q.163-.216.815-.95.787-.869,1.357-1.52.244-.272.923-1t.924-1q.245-.272.787-.9t.76-.923q.218-.3.625-.814a4.692,4.692,0,0,0,.57-.869c.109-.235.244-.5.407-.787a3.507,3.507,0,0,0,.353-.869c.073-.29.136-.561.19-.815a4.269,4.269,0,0,0,.082-.9,4.842,4.842,0,0,0-.923-2.959,3.08,3.08,0,0,0-2.634-1.249,2.738,2.738,0,0,0-1.575.461,3.288,3.288,0,0,0-.95.9,1.956,1.956,0,0,0-.272.516c0,.018.045.027.136.027a1.705,1.705,0,0,1,1,.38,1.449,1.449,0,0,1,.515,1.249,1.6,1.6,0,0,1-.434,1.141A1.684,1.684,0,0,1,422.088,404.277Z" style="fill: #fff"/>
        <path d="M435.142,395.824a1.021,1.021,0,0,1-.806-.326,1.308,1.308,0,0,1-.307-.845,2.473,2.473,0,0,1,.921-1.881,3.224,3.224,0,0,1,2.227-.826q.672,0,.845.02a3.708,3.708,0,0,1,2.169,1.017,2.522,2.522,0,0,1,.768,1.709,3.36,3.36,0,0,1-.653,1.938,3.667,3.667,0,0,1-1.8,1.363l-.058.039c0,.012.058.032.173.057a5.571,5.571,0,0,1,.556.173,2.578,2.578,0,0,1,.73.4,3.081,3.081,0,0,1,1.574,2.688,3.548,3.548,0,0,1-1.19,2.649,4.2,4.2,0,0,1-3.014,1.132,4.324,4.324,0,0,1-2.649-.825,2.509,2.509,0,0,1-1.113-2.093,1.131,1.131,0,0,1,.345-.863,1.282,1.282,0,0,1,.864-.346,1.194,1.194,0,0,1,.883.346,1.172,1.172,0,0,1,.346.863,1.219,1.219,0,0,1-.058.384,1.677,1.677,0,0,1-.134.307.727.727,0,0,1-.212.231c-.089.064-.166.115-.23.153a.6.6,0,0,1-.192.077.418.418,0,0,0-.153.058l-.077.019a3.47,3.47,0,0,0,2.38.864,1.712,1.712,0,0,0,1.593-1.018,4.4,4.4,0,0,0,.327-1.938v-.384a2.458,2.458,0,0,0-1.229-2.438,4.013,4.013,0,0,0-1.171-.135l-.806-.019-.058-.038a.728.728,0,0,1-.038-.307c0-.231.051-.346.154-.346a6.77,6.77,0,0,0,1.113-.1,1.863,1.863,0,0,0,1.19-.806,3.55,3.55,0,0,0,.538-2.15v-.154a1.565,1.565,0,0,0-1.575-1.785,2.986,2.986,0,0,0-1.132.211,2.047,2.047,0,0,0-.73.442l-.211.23h.058a1.277,1.277,0,0,0,.153.039.434.434,0,0,1,.192.1,1.017,1.017,0,0,0,.231.134.353.353,0,0,1,.192.211,1.245,1.245,0,0,0,.153.288.518.518,0,0,1,.058.384,1.148,1.148,0,0,1-.269.749A1.108,1.108,0,0,1,435.142,395.824Z" style="fill: #fff"/>
      </g>
      <path d="M452.723,406.5a.593.593,0,0,1,.38-.543h17.3a.632.632,0,0,1,.407.543.617.617,0,0,1-.38.516l-8.634.027h-8.634A.539.539,0,0,1,452.723,406.5Zm0,5.267a.539.539,0,0,1,.435-.543h17.268q.379.272.38.543a.593.593,0,0,1-.407.543H453.1A.591.591,0,0,1,452.723,411.771Z" style="fill: #fff"/>
      <path d="M481.77,404.6v-2.09a4.244,4.244,0,0,1,1.466-3.367,5.094,5.094,0,0,1,3.367-1.3,5.487,5.487,0,0,1,3.421,1.14,3.558,3.558,0,0,1,1.493,2.959,3.85,3.85,0,0,1-.3,1.521,3.81,3.81,0,0,1-.706,1.14,6.476,6.476,0,0,1-.841.76,8.52,8.52,0,0,1-.706.489,1.094,1.094,0,0,0-.3.217l.38.245.761.543q.38.272.434.3a4.94,4.94,0,0,1,2.036,4.046,5.09,5.09,0,0,1-1.574,3.72,5.6,5.6,0,0,1-4.073,1.6,5.865,5.865,0,0,1-4.019-1.385,4.379,4.379,0,0,1-1.574-3.421q0-2.933,3.5-4.887l-.489-.353a3.613,3.613,0,0,1-.733-.543,4.308,4.308,0,0,1-1.547-3.421Zm5.864.842.163-.109.245-.163c.054-.036.144-.1.271-.19a2.531,2.531,0,0,0,.326-.271c.091-.091.19-.2.3-.326s.208-.244.3-.353a2.276,2.276,0,0,0,.272-.434c.09-.181.172-.335.244-.462a1.308,1.308,0,0,0,.136-.543q.027-.353.054-.6a2.744,2.744,0,0,0-.787-1.982,3.5,3.5,0,0,0-1.819-1.032,8.687,8.687,0,0,0-.9-.027,3.505,3.505,0,0,0-2.091.706,2.184,2.184,0,0,0-1,1.765,1.978,1.978,0,0,0,.353,1.14,3.442,3.442,0,0,0,.706.787,16.1,16.1,0,0,0,1.358.869,2.339,2.339,0,0,0,.3.19Zm-.977,9.91a4.182,4.182,0,0,0,2.715-.923,2.779,2.779,0,0,0,1.14-2.226,2.741,2.741,0,0,0-.135-.869,2.634,2.634,0,0,0-.326-.679,3.086,3.086,0,0,0-.6-.6c-.272-.218-.48-.38-.625-.489s-.407-.281-.787-.516-.625-.389-.733-.462q-.381-.243-.815-.515t-.706-.462l-.217-.136a2.244,2.244,0,0,0-.787.462,5.839,5.839,0,0,0-1.3,1.493,4.157,4.157,0,0,0-.706,2.227,3.355,3.355,0,0,0,1.168,2.633A4.085,4.085,0,0,0,486.657,415.355Z" style="fill: #fff"/>
    </g>
  </g>
</svg>
