<svg xmlns="http://www.w3.org/2000/svg" width="880" height="240" viewBox="0 0 880 240">
  <rect width="880" height="240"/>
  <g>
    <g>
      <path d="M307.519,96.316a25.694,25.694,0,0,1,.312-4.09,28.707,28.707,0,0,1,.718-3.341,13.134,13.134,0,0,1,1.155-2.747q.75-1.343,1.187-2.092a8.261,8.261,0,0,1,1.311-1.624q.875-.874,1.03-1.061a5.69,5.69,0,0,1,.781-.656h.531q.437,0,.437.281a2.535,2.535,0,0,1-.531.656,14.176,14.176,0,0,0-1.28,1.654,21.644,21.644,0,0,0-1.53,2.686,17.771,17.771,0,0,0-1.311,4.308,31.5,31.5,0,0,0-.531,6.026,31.015,31.015,0,0,0,.531,6,20.249,20.249,0,0,0,1.28,4.339,14.064,14.064,0,0,0,1.53,2.686q.78,1.029,1.311,1.654a7.108,7.108,0,0,1,.531.656q0,.281-.468.281h-.5l-.874-.749a15.412,15.412,0,0,1-4.278-6.619A25.531,25.531,0,0,1,307.519,96.316Z" style="fill: #fff"/>
      <g>
        <g>
          <path d="M320.133,90.727a1.706,1.706,0,0,1-1.343-.562,1.992,1.992,0,0,1-.5-1.373,5.205,5.205,0,0,1,1.655-3.841,5.652,5.652,0,0,1,4.122-1.623,6.747,6.747,0,0,1,4.745,1.748,5.962,5.962,0,0,1,1.936,4.527,5.537,5.537,0,0,1-.624,2.56,8.859,8.859,0,0,1-1.5,2.124q-.875.9-2.5,2.31-1.124.968-3.122,2.872l-1.842,1.749,2.373.031a37.5,37.5,0,0,0,5.214-.156,8.471,8.471,0,0,0,.749-2.779v-.093h1.249v.093q-.031.095-.406,2.841a23.509,23.509,0,0,1-.468,2.873v.094H318.29v-.968a.8.8,0,0,1,.188-.469q.188-.249.936-1.092.906-1,1.562-1.749.281-.312,1.061-1.155t1.062-1.155q.281-.312.905-1.031t.874-1.061q.251-.343.718-.937a5.272,5.272,0,0,0,.656-1q.188-.406.468-.905a3.991,3.991,0,0,0,.406-1c.084-.333.156-.645.219-.936a5.009,5.009,0,0,0,.093-1.03,5.567,5.567,0,0,0-1.061-3.4,3.542,3.542,0,0,0-3.029-1.436,3.14,3.14,0,0,0-1.81.531,3.754,3.754,0,0,0-1.093,1.03,2.233,2.233,0,0,0-.312.593c0,.021.052.032.156.032a1.955,1.955,0,0,1,1.155.437,1.666,1.666,0,0,1,.593,1.436,1.84,1.84,0,0,1-.5,1.311A1.934,1.934,0,0,1,320.133,90.727Z" style="fill: #58c4dd"/>
          <path d="M335.338,85.857a5.508,5.508,0,0,1,4.777-2.529,6.244,6.244,0,0,1,3,.811,5.859,5.859,0,0,1,2.435,2.873A17.857,17.857,0,0,1,346.7,94.13a16.3,16.3,0,0,1-1.342,7.4,5.327,5.327,0,0,1-1.717,2.092,5.668,5.668,0,0,1-1.9.968,8.523,8.523,0,0,1-1.592.218,7.2,7.2,0,0,1-1.624-.187,5.443,5.443,0,0,1-1.9-1,5.632,5.632,0,0,1-1.717-2.092,16.3,16.3,0,0,1-1.343-7.4Q333.558,88.7,335.338,85.857Zm7.025-.375a2.943,2.943,0,0,0-2.217-1,2.973,2.973,0,0,0-2.248,1,4.179,4.179,0,0,0-1.03,2.248,44.2,44.2,0,0,0-.25,5.995,51.92,51.92,0,0,0,.25,6.494,4.455,4.455,0,0,0,1.124,2.466,2.826,2.826,0,0,0,2.154.937,2.8,2.8,0,0,0,2.123-.937,4.483,4.483,0,0,0,1.124-2.622,62.574,62.574,0,0,0,.25-6.338,44.022,44.022,0,0,0-.25-5.964A4.378,4.378,0,0,0,342.363,85.482Z" style="fill: #58c4dd"/>
          <path d="M350.387,102.248a1.853,1.853,0,0,1,.53-1.311,1.768,1.768,0,0,1,1.343-.562,1.909,1.909,0,0,1,1.311.5,1.8,1.8,0,0,1,.594,1.343,1.889,1.889,0,0,1-.531,1.343,1.771,1.771,0,0,1-1.343.562,1.817,1.817,0,0,1-1.342-.531A1.928,1.928,0,0,1,350.387,102.248Z" style="fill: #58c4dd"/>
          <path d="M360.034,90.727a1.7,1.7,0,0,1-1.342-.562,1.992,1.992,0,0,1-.5-1.373,5.205,5.205,0,0,1,1.655-3.841,5.651,5.651,0,0,1,4.121-1.623,6.751,6.751,0,0,1,4.746,1.748A5.962,5.962,0,0,1,370.65,89.6a5.526,5.526,0,0,1-.625,2.56,8.856,8.856,0,0,1-1.5,2.124q-.874.9-2.5,2.31-1.124.968-3.122,2.872l-1.842,1.749,2.372.031a37.533,37.533,0,0,0,5.215-.156,8.5,8.5,0,0,0,.749-2.779v-.093h1.249v.093q-.031.095-.406,2.841a23.509,23.509,0,0,1-.468,2.873v.094H358.192v-.968a.8.8,0,0,1,.187-.469q.188-.249.937-1.092.906-1,1.561-1.749.282-.312,1.062-1.155T363,97.534q.282-.312.906-1.031t.874-1.061q.251-.343.718-.937a5.322,5.322,0,0,0,.656-1q.188-.406.468-.905a4.029,4.029,0,0,0,.406-1q.124-.5.219-.936a5.009,5.009,0,0,0,.093-1.03,5.573,5.573,0,0,0-1.061-3.4A3.543,3.543,0,0,0,363.25,84.8a3.143,3.143,0,0,0-1.811.531,3.78,3.78,0,0,0-1.093,1.03,2.233,2.233,0,0,0-.312.593c0,.021.052.032.156.032a1.956,1.956,0,0,1,1.156.437,1.666,1.666,0,0,1,.593,1.436,1.841,1.841,0,0,1-.5,1.311A1.932,1.932,0,0,1,360.034,90.727Z" style="fill: #58c4dd"/>
          <path d="M378.892,86.075l-.406.156a9.048,9.048,0,0,1-1.248.313,14.5,14.5,0,0,1-1.811.218h-.594V85.326h.594a10.194,10.194,0,0,0,2.716-.468,7.37,7.37,0,0,0,1.748-.75,8.042,8.042,0,0,0,.875-.687c.041-.062.166-.093.374-.093a.867.867,0,0,1,.531.187V92.85l.031,9.367a1.243,1.243,0,0,0,.375.281,3.7,3.7,0,0,0,.749.125q.594.061,1.936.062h.812v1.437h-.344q-.656-.094-4.964-.094-4.247,0-4.9.094h-.374v-1.437h2a7.442,7.442,0,0,0,.78-.031,3.034,3.034,0,0,0,.5-.094,1.948,1.948,0,0,1,.25-.062c.02,0,.083-.052.187-.156s.167-.146.187-.125Z" style="fill: #58c4dd"/>
        </g>
        <path d="M397.413,96.722v-.406a.679.679,0,0,1,.437-.624h18.14a.65.65,0,0,1,0,1.248H397.85a.679.679,0,0,1-.437-.624Z" style="fill: #fff"/>
        <g>
          <path d="M429.422,90.727a1.706,1.706,0,0,1-1.343-.562,1.991,1.991,0,0,1-.5-1.373,5.2,5.2,0,0,1,1.655-3.841,5.651,5.651,0,0,1,4.121-1.623,6.751,6.751,0,0,1,4.746,1.748,5.961,5.961,0,0,1,1.935,4.527,5.537,5.537,0,0,1-.624,2.56,8.831,8.831,0,0,1-1.5,2.124q-.873.9-2.5,2.31-1.125.968-3.123,2.872l-1.842,1.749,2.373.031a37.5,37.5,0,0,0,5.214-.156,8.454,8.454,0,0,0,.75-2.779v-.093h1.248v.093q-.03.095-.4,2.841a23.132,23.132,0,0,1-.469,2.873v.094H427.58v-.968a.8.8,0,0,1,.187-.469q.188-.249.937-1.092.906-1,1.561-1.749.281-.312,1.062-1.155t1.061-1.155q.281-.312.906-1.031t.874-1.061q.249-.343.718-.937a5.258,5.258,0,0,0,.655-1q.188-.406.469-.905a4.068,4.068,0,0,0,.406-1q.125-.5.218-.936a4.935,4.935,0,0,0,.094-1.03,5.568,5.568,0,0,0-1.062-3.4,3.54,3.54,0,0,0-3.028-1.436,3.141,3.141,0,0,0-1.811.531,3.767,3.767,0,0,0-1.093,1.03,2.233,2.233,0,0,0-.312.593c0,.021.052.032.156.032a1.951,1.951,0,0,1,1.155.437,1.664,1.664,0,0,1,.594,1.436,1.841,1.841,0,0,1-.5,1.311A1.932,1.932,0,0,1,429.422,90.727Z" style="fill: #58c4dd"/>
          <path d="M444.627,85.857a5.509,5.509,0,0,1,4.777-2.529,6.244,6.244,0,0,1,3,.811,5.865,5.865,0,0,1,2.436,2.873,17.857,17.857,0,0,1,1.155,7.118,16.3,16.3,0,0,1-1.343,7.4,5.319,5.319,0,0,1-1.717,2.092,5.656,5.656,0,0,1-1.9.968,8.533,8.533,0,0,1-1.593.218,7.188,7.188,0,0,1-1.623-.187,5.455,5.455,0,0,1-1.905-1,5.642,5.642,0,0,1-1.717-2.092,16.3,16.3,0,0,1-1.343-7.4Q442.847,88.7,444.627,85.857Zm7.025-.375a2.94,2.94,0,0,0-2.217-1,2.975,2.975,0,0,0-2.248,1,4.187,4.187,0,0,0-1.03,2.248,44.2,44.2,0,0,0-.25,5.995,51.92,51.92,0,0,0,.25,6.494,4.455,4.455,0,0,0,1.124,2.466,2.829,2.829,0,0,0,2.154.937,2.793,2.793,0,0,0,2.123-.937,4.477,4.477,0,0,0,1.124-2.622,62.574,62.574,0,0,0,.25-6.338,43.849,43.849,0,0,0-.25-5.964A4.37,4.37,0,0,0,451.652,85.482Z" style="fill: #58c4dd"/>
        </g>
      </g>
      <path d="M459.114,80.736l.125-.031h.687l.874.749a15.41,15.41,0,0,1,4.277,6.619,25.5,25.5,0,0,1,1.343,8.243,26.082,26.082,0,0,1-.312,4.09,26.951,26.951,0,0,1-.718,3.341,14.034,14.034,0,0,1-1.156,2.747q-.748,1.374-1.186,2.092a9.474,9.474,0,0,1-1.28,1.593q-.843.873-1,1.03t-.718.593l-.125.125h-.718a.181.181,0,0,1-.156-.094.728.728,0,0,1-.094-.281c.021-.02.135-.156.343-.406q4.841-5.026,4.84-14.83t-4.84-14.83c-.208-.25-.322-.386-.343-.406A.368.368,0,0,1,459.114,80.736Z" style="fill: #fff"/>
      <g>
        <path d="M478.472,102.685h.437q1.218,0,1.467-.437v-1.936q0-.529.031-1.217t0-1.312v-2.06q0-1.093-.031-1.842v-.718a1,1,0,0,0-.437-.781,4.176,4.176,0,0,0-1.405-.281h-.562v-.718q0-.718.063-.718l.312-.031q.312-.032.874-.063l1.155-.062q.531-.032,1.124-.063a6.916,6.916,0,0,0,.906-.093c.208-.042.322-.052.343-.032h.094V91.57a8.487,8.487,0,0,0,.031,1.187q.031,0,.156-.156l.375-.469A3.057,3.057,0,0,1,484,91.57q.344-.249.905-.593a4.272,4.272,0,0,1,1.187-.5,6.732,6.732,0,0,1,1.592-.156,5.7,5.7,0,0,1,.874.063,3.273,3.273,0,0,1,.719.187c.208.083.405.167.593.25a1.992,1.992,0,0,1,.468.281,2.719,2.719,0,0,1,.344.343c.1.125.2.24.281.344a1.9,1.9,0,0,1,.218.343,1.592,1.592,0,0,1,.125.312,1.192,1.192,0,0,0,.094.25l.062.156.094-.125.187-.249c.063-.084.156-.2.281-.344a3.8,3.8,0,0,1,.406-.406q.219-.187.468-.406a2.281,2.281,0,0,1,.625-.374c.249-.1.489-.208.718-.312a2.89,2.89,0,0,1,.812-.219q.468-.063.967-.094,3.935,0,4.278,3.528.031.219.031,4.34v2.685a8.222,8.222,0,0,0,.063,1.405.477.477,0,0,0,.343.313,11.031,11.031,0,0,0,1.53.093h.5v1.437h-.249l-.718-.032q-.75-.031-1.593-.031t-1.186-.031a29.131,29.131,0,0,0-3.5.094h-.25v-1.437h.5q1.9,0,1.9-.5.032-.063.031-4.309-.03-4.215-.062-4.465a2.583,2.583,0,0,0-.624-1.311,2.019,2.019,0,0,0-.75-.531,2.383,2.383,0,0,0-.812-.062,3.386,3.386,0,0,0-2.466,1.061,3.775,3.775,0,0,0-1.062,1.718,12.386,12.386,0,0,0-.249,2.591v3.872q0,.936.031,1.248a1.024,1.024,0,0,0,.094.406.64.64,0,0,0,.281.188,11.026,11.026,0,0,0,1.529.093h.5v1.437h-.25l-.749-.032q-.718-.031-1.561-.031t-1.187-.031a29.145,29.145,0,0,0-3.5.094h-.249v-1.437h.5q1.9,0,1.9-.5.032-.063.031-4.309-.031-4.215-.062-4.465a2.584,2.584,0,0,0-.625-1.311,2.009,2.009,0,0,0-.749-.531,2.385,2.385,0,0,0-.812-.062,3.386,3.386,0,0,0-2.467,1.061,3.772,3.772,0,0,0-1.061,1.718,12.373,12.373,0,0,0-.25,2.591v3.872q0,.936.031,1.248a1.024,1.024,0,0,0,.094.406.646.646,0,0,0,.281.188,11.031,11.031,0,0,0,1.53.093h.5v1.437h-.249l-.718-.032q-.75-.031-1.593-.031t-1.186-.031a29.131,29.131,0,0,0-3.5.094h-.25v-1.437Z" style="fill: #fff"/>
        <path d="M504.074,97.315a7.608,7.608,0,0,1,.624-3.122,6.9,6.9,0,0,1,1.561-2.279,6.526,6.526,0,0,1,2.03-1.312,6.1,6.1,0,0,1,2.06-.468,6.584,6.584,0,0,1,2.842.562A4.177,4.177,0,0,1,515,92.257a6.96,6.96,0,0,1,.875,2,10.275,10.275,0,0,1,.281,2.217.627.627,0,0,1-.219.437h-8.8v.469q0,4.62,3.122,5.62a4.793,4.793,0,0,0,1.373.187,2.972,2.972,0,0,0,2.248-1,3.841,3.841,0,0,0,.843-1.312l.313-.749a.816.816,0,0,1,.5-.094h.094q.531,0,.531.313a1.515,1.515,0,0,1-.094.406,5.467,5.467,0,0,1-1.967,2.716,5.127,5.127,0,0,1-3.091,1,6.4,6.4,0,0,1-4.933-2.154A7.313,7.313,0,0,1,504.074,97.315Zm9.522-1.78q-.344-4-2.966-4.246h-.062a4.194,4.194,0,0,0-.5.031,3.551,3.551,0,0,0-.78.25,2.371,2.371,0,0,0-.906.656,4.75,4.75,0,0,0-.718,1.28,8.3,8.3,0,0,0-.5,2.061v.218H513.6Z" style="fill: #fff"/>
        <path d="M517.905,90.946a3.1,3.1,0,0,0,2.56-1.749,8.446,8.446,0,0,0,1-3.809V84.92h1.249v5.745h4.215V92.1h-4.215v4.5q.032,3.9.031,4.4a2.47,2.47,0,0,0,.219,1,1.57,1.57,0,0,0,1.53,1.218q1.374,0,1.686-2.217.032-.249.031-1.436V98.47h1.249v1.468a4.813,4.813,0,0,1-1.311,3.653,2.958,2.958,0,0,1-2.186.843,4.211,4.211,0,0,1-1.842-.375,2.925,2.925,0,0,1-1.186-.968A5.217,5.217,0,0,1,520.34,102a3.481,3.481,0,0,1-.218-1q-.031-.218-.031-4.621V92.1h-2.467V90.946Z" style="fill: #fff"/>
        <path d="M530.082,97.315a7.608,7.608,0,0,1,.624-3.122,6.9,6.9,0,0,1,1.561-2.279A6.526,6.526,0,0,1,534.3,90.6a6.1,6.1,0,0,1,2.06-.468,6.58,6.58,0,0,1,2.841.562,4.179,4.179,0,0,1,1.811,1.561,6.96,6.96,0,0,1,.875,2,10.275,10.275,0,0,1,.281,2.217.627.627,0,0,1-.219.437h-8.805v.469q0,4.62,3.123,5.62a4.793,4.793,0,0,0,1.373.187,2.972,2.972,0,0,0,2.248-1,3.841,3.841,0,0,0,.843-1.312l.313-.749a.816.816,0,0,1,.5-.094h.094q.531,0,.531.313a1.515,1.515,0,0,1-.094.406,5.473,5.473,0,0,1-1.967,2.716,5.127,5.127,0,0,1-3.091,1,6.4,6.4,0,0,1-4.933-2.154A7.309,7.309,0,0,1,530.082,97.315Zm9.522-1.78q-.344-4-2.966-4.246h-.062a4.194,4.194,0,0,0-.5.031,3.551,3.551,0,0,0-.78.25,2.371,2.371,0,0,0-.906.656,4.75,4.75,0,0,0-.718,1.28,8.3,8.3,0,0,0-.5,2.061v.218H539.6Z" style="fill: #fff"/>
        <path d="M544.194,102.685h.437q1.218,0,1.468-.437v-.968q0-.436.031-.968a11.713,11.713,0,0,0,0-1.217q-.031-.687,0-1.312v-3.9l-.031-.718a1,1,0,0,0-.438-.781,4.176,4.176,0,0,0-1.4-.281h-.562v-.718q0-.718.063-.718l.312-.031c.208-.021.5-.042.874-.063l1.124-.062c.333-.021.7-.042,1.093-.063a6.936,6.936,0,0,0,.906-.093c.208-.042.322-.052.343-.032h.094v2.155a3.52,3.52,0,0,1,3.028-2.123h.187a2.738,2.738,0,0,1,2.061.686,2.074,2.074,0,0,1,.656,1.437,1.658,1.658,0,0,1-.406,1.124,1.486,1.486,0,0,1-1.187.468,1.348,1.348,0,0,1-1.155-.5,1.929,1.929,0,0,1-.406-1.061,1.813,1.813,0,0,1,.063-.5,1.558,1.558,0,0,1,.156-.374l.094-.156c-.042-.042-.281,0-.718.124a3.639,3.639,0,0,0-.75.469q-1.467,1.4-1.467,5.589v3.309a5.158,5.158,0,0,0,.031.625,1.744,1.744,0,0,1,0,.468v.156a.487.487,0,0,0,.094.125.393.393,0,0,0,.156.094.394.394,0,0,1,.156.093.3.3,0,0,0,.218.063.537.537,0,0,1,.219.031.773.773,0,0,0,.281.031h.281c.042,0,.146.01.312.031a.711.711,0,0,0,.312,0h.968v1.437h-.281q-.561-.094-3.965-.094a29.145,29.145,0,0,0-3.5.094h-.25v-1.437Z" style="fill: #fff"/>
        <path d="M564.52,94.255a3.055,3.055,0,0,0-.843-2.154,3.164,3.164,0,0,0-2.436-.905,4.3,4.3,0,0,0-1.936.405,1.835,1.835,0,0,0-.936,1.624,1.3,1.3,0,0,0,0,.406,1.724,1.724,0,0,0,.5.749,3.113,3.113,0,0,0,1.343.781,12.055,12.055,0,0,0,1.374.281,12.033,12.033,0,0,1,1.373.281,4.345,4.345,0,0,1,1,.406,5.894,5.894,0,0,1,1.03.624,4.022,4.022,0,0,1,1,1.28,4.222,4.222,0,0,1,.531,1.936,4.44,4.44,0,0,1-1.187,3.185,5.193,5.193,0,0,1-3.84,1.28h-.25a4.636,4.636,0,0,1-3-1.124l-.25.218-.281.281q-.187.188-.375.344l-.343.312h-.375c-.062,0-.156-.062-.281-.187V100a2.592,2.592,0,0,1,.063-.78q.061-.126.312-.156H557a.728.728,0,0,1,.5.124.631.631,0,0,1,.156.375,5.422,5.422,0,0,0,.218.843,7,7,0,0,0,.593,1.311,3.475,3.475,0,0,0,3.029,1.593q3.029,0,3.029-2.436a1.988,1.988,0,0,0-.562-1.467,4.5,4.5,0,0,0-2.592-1.124,10.414,10.414,0,0,1-2.591-.718A4.536,4.536,0,0,1,557,96.129a3.243,3.243,0,0,1-.656-1.936,3.792,3.792,0,0,1,.531-2.061,3.349,3.349,0,0,1,1.343-1.249,6.463,6.463,0,0,1,1.561-.562,6.775,6.775,0,0,1,1.374-.156h.343a4.821,4.821,0,0,1,2.186.469l.468.249.281-.218a5.947,5.947,0,0,1,.687-.531h.374c.063,0,.157.062.281.187v4.122l-.187.187h-.874A.539.539,0,0,1,564.52,94.255Z" style="fill: #fff"/>
      </g>
    </g>
    <g>
      <path d="M317.01,140.651a25.584,25.584,0,0,1,.313-4.09,28.546,28.546,0,0,1,.718-3.341,13.028,13.028,0,0,1,1.155-2.747q.748-1.343,1.186-2.092a8.308,8.308,0,0,1,1.312-1.624q.873-.873,1.03-1.061a5.561,5.561,0,0,1,.781-.656h.53c.292,0,.437.094.437.281a2.525,2.525,0,0,1-.53.656,14.092,14.092,0,0,0-1.28,1.655,21.426,21.426,0,0,0-1.53,2.685,17.737,17.737,0,0,0-1.312,4.308,31.508,31.508,0,0,0-.53,6.026,31.012,31.012,0,0,0,.53,5.995,20.318,20.318,0,0,0,1.28,4.34,14.193,14.193,0,0,0,1.53,2.685q.782,1.031,1.312,1.655a7.1,7.1,0,0,1,.53.655c0,.188-.156.281-.468.281h-.5l-.875-.749a15.413,15.413,0,0,1-4.277-6.619A25.531,25.531,0,0,1,317.01,140.651Z" style="fill: #fff"/>
      <g>
        <g>
          <path d="M330.186,134a1.656,1.656,0,0,1-1.311-.531,2.123,2.123,0,0,1-.5-1.374,4.023,4.023,0,0,1,1.5-3.059,5.238,5.238,0,0,1,3.622-1.343q1.092,0,1.373.031a6.04,6.04,0,0,1,3.528,1.655,4.1,4.1,0,0,1,1.249,2.779,5.47,5.47,0,0,1-1.061,3.153,5.966,5.966,0,0,1-2.935,2.217l-.094.062c0,.021.094.053.281.094a9.159,9.159,0,0,1,.906.281,4.175,4.175,0,0,1,1.186.656,5.01,5.01,0,0,1,2.56,4.371,5.772,5.772,0,0,1-1.935,4.309,6.828,6.828,0,0,1-4.9,1.842,7.032,7.032,0,0,1-4.309-1.343,4.078,4.078,0,0,1-1.811-3.4,1.841,1.841,0,0,1,.562-1.405,2.086,2.086,0,0,1,1.405-.562,1.942,1.942,0,0,1,1.436.562,1.905,1.905,0,0,1,.562,1.405,1.975,1.975,0,0,1-.093.624,2.826,2.826,0,0,1-.219.5,1.186,1.186,0,0,1-.343.375q-.219.156-.375.249a.972.972,0,0,1-.312.125.691.691,0,0,0-.25.094l-.125.031a5.646,5.646,0,0,0,3.872,1.405,2.787,2.787,0,0,0,2.591-1.655,7.17,7.17,0,0,0,.531-3.153v-.625q0-2.966-2-3.965a6.555,6.555,0,0,0-1.905-.218l-1.311-.032-.094-.062a1.157,1.157,0,0,1-.062-.5c0-.374.083-.562.249-.562a11.017,11.017,0,0,0,1.811-.156,3.028,3.028,0,0,0,1.936-1.311,5.768,5.768,0,0,0,.874-3.5v-.25a2.544,2.544,0,0,0-2.56-2.9,4.836,4.836,0,0,0-1.842.343,3.342,3.342,0,0,0-1.186.718l-.344.375h.094a1.97,1.97,0,0,0,.25.062.731.731,0,0,1,.312.157,1.615,1.615,0,0,0,.374.218.573.573,0,0,1,.313.344,2.024,2.024,0,0,0,.249.468.83.83,0,0,1,.094.624,1.864,1.864,0,0,1-.437,1.218A1.8,1.8,0,0,1,330.186,134Z" style="fill: #fff933"/>
          <path d="M344.267,146.583a1.85,1.85,0,0,1,.531-1.311,1.766,1.766,0,0,1,1.342-.562,1.914,1.914,0,0,1,1.312.5,1.8,1.8,0,0,1,.593,1.342,1.887,1.887,0,0,1-.531,1.343,1.769,1.769,0,0,1-1.342.562,1.821,1.821,0,0,1-1.343-.531A1.931,1.931,0,0,1,344.267,146.583Z" style="fill: #fff933"/>
          <path d="M353.509,130.192a5.508,5.508,0,0,1,4.777-2.529,6.234,6.234,0,0,1,3,.812,5.852,5.852,0,0,1,2.435,2.872,17.846,17.846,0,0,1,1.156,7.119,16.3,16.3,0,0,1-1.343,7.4,5.32,5.32,0,0,1-1.717,2.092,5.64,5.64,0,0,1-1.905.968,8.61,8.61,0,0,1-1.592.219,7.2,7.2,0,0,1-1.624-.188,5.443,5.443,0,0,1-1.9-1,5.624,5.624,0,0,1-1.717-2.092,16.3,16.3,0,0,1-1.343-7.4Q351.729,133.033,353.509,130.192Zm7.025-.375a2.943,2.943,0,0,0-2.217-1,2.973,2.973,0,0,0-2.248,1,4.19,4.19,0,0,0-1.03,2.248,44.208,44.208,0,0,0-.25,6,51.908,51.908,0,0,0,.25,6.494,4.459,4.459,0,0,0,1.124,2.467,2.832,2.832,0,0,0,2.154.936,2.8,2.8,0,0,0,2.123-.936,4.489,4.489,0,0,0,1.124-2.623,62.574,62.574,0,0,0,.25-6.338,43.859,43.859,0,0,0-.25-5.964A4.37,4.37,0,0,0,360.534,129.817Z" style="fill: #fff933"/>
          <path d="M372.773,130.41l-.406.157a8.948,8.948,0,0,1-1.249.312,14.3,14.3,0,0,1-1.811.218h-.593v-1.436h.593a10.187,10.187,0,0,0,2.716-.468,7.382,7.382,0,0,0,1.749-.75,8.024,8.024,0,0,0,.874-.686c.042-.063.167-.094.375-.094a.871.871,0,0,1,.531.187v9.336l.031,9.366a1.212,1.212,0,0,0,.374.281,3.716,3.716,0,0,0,.75.125q.592.063,1.936.063h.811v1.436h-.343q-.656-.094-4.964-.094-4.247,0-4.9.094h-.375v-1.436h2a7.427,7.427,0,0,0,.781-.032,3.135,3.135,0,0,0,.5-.093,1.86,1.86,0,0,1,.25-.063c.021,0,.083-.052.187-.156s.167-.146.188-.125Z" style="fill: #fff933"/>
        </g>
        <path d="M391.294,141.057v-.406a.678.678,0,0,1,.437-.624h18.14a.651.651,0,0,1,0,1.249h-18.14a.68.68,0,0,1-.437-.625Z" style="fill: #fff"/>
        <path d="M423.864,134a1.656,1.656,0,0,1-1.311-.531,2.122,2.122,0,0,1-.5-1.374,4.022,4.022,0,0,1,1.5-3.059,5.239,5.239,0,0,1,3.622-1.343c.729,0,1.186.011,1.374.031a6.046,6.046,0,0,1,3.528,1.655,4.1,4.1,0,0,1,1.249,2.779,5.464,5.464,0,0,1-1.062,3.153,5.966,5.966,0,0,1-2.935,2.217l-.093.062c0,.021.093.053.281.094a9.162,9.162,0,0,1,.9.281,4.18,4.18,0,0,1,1.187.656,5.012,5.012,0,0,1,2.56,4.371,5.773,5.773,0,0,1-1.936,4.309,6.826,6.826,0,0,1-4.9,1.842,7.036,7.036,0,0,1-4.309-1.343,4.077,4.077,0,0,1-1.81-3.4,1.841,1.841,0,0,1,.562-1.405,2.084,2.084,0,0,1,1.4-.562,1.945,1.945,0,0,1,1.436.562,1.909,1.909,0,0,1,.562,1.405,1.946,1.946,0,0,1-.094.624,2.754,2.754,0,0,1-.218.5,1.189,1.189,0,0,1-.344.375c-.146.1-.27.187-.375.249a.972.972,0,0,1-.312.125.7.7,0,0,0-.25.094l-.124.031a5.643,5.643,0,0,0,3.871,1.405,2.788,2.788,0,0,0,2.592-1.655,7.187,7.187,0,0,0,.53-3.153v-.625q0-2.966-2-3.965a6.546,6.546,0,0,0-1.9-.218l-1.312-.032-.093-.062a1.151,1.151,0,0,1-.063-.5c0-.374.083-.562.25-.562a11.026,11.026,0,0,0,1.811-.156,3.03,3.03,0,0,0,1.936-1.311,5.775,5.775,0,0,0,.874-3.5v-.25a2.545,2.545,0,0,0-2.56-2.9,4.837,4.837,0,0,0-1.843.343,3.342,3.342,0,0,0-1.186.718l-.343.375h.093a2.015,2.015,0,0,0,.25.062.731.731,0,0,1,.312.157,1.6,1.6,0,0,0,.375.218.568.568,0,0,1,.312.344,2.067,2.067,0,0,0,.25.468.839.839,0,0,1,.094.624,1.86,1.86,0,0,1-.438,1.218A1.8,1.8,0,0,1,423.864,134Z" style="fill: #fff933"/>
      </g>
      <path d="M437.384,125.071l.124-.031h.687l.875.75a15.407,15.407,0,0,1,4.277,6.619,25.525,25.525,0,0,1,1.343,8.242,26.071,26.071,0,0,1-.313,4.09,26.73,26.73,0,0,1-.718,3.341,14,14,0,0,1-1.155,2.748q-.75,1.372-1.186,2.091a9.537,9.537,0,0,1-1.281,1.593q-.843.875-1,1.03t-.718.593l-.125.125h-.718a.185.185,0,0,1-.156-.093.758.758,0,0,1-.094-.281c.021-.021.136-.157.344-.406q4.839-5.026,4.839-14.831t-4.839-14.83q-.312-.375-.344-.406A.369.369,0,0,1,437.384,125.071Z" style="fill: #fff"/>
      <g>
        <path d="M464.672,138.591a3.055,3.055,0,0,0-.843-2.155,3.168,3.168,0,0,0-2.436-.905,4.276,4.276,0,0,0-1.935.406,1.831,1.831,0,0,0-.937,1.623,1.3,1.3,0,0,0,0,.406,1.718,1.718,0,0,0,.5.749,3.1,3.1,0,0,0,1.343.781,12.1,12.1,0,0,0,1.374.281,12.1,12.1,0,0,1,1.374.281,4.355,4.355,0,0,1,1,.406,5.956,5.956,0,0,1,1.03.624,4.022,4.022,0,0,1,1,1.28,4.222,4.222,0,0,1,.531,1.936,4.438,4.438,0,0,1-1.187,3.185,5.193,5.193,0,0,1-3.84,1.28h-.25a4.636,4.636,0,0,1-3-1.124l-.25.219-.281.281c-.125.124-.25.239-.374.343l-.344.312h-.375c-.062,0-.156-.062-.281-.187v-4.278a2.592,2.592,0,0,1,.063-.78q.063-.125.312-.156h.281a.722.722,0,0,1,.5.125.625.625,0,0,1,.156.374,5.543,5.543,0,0,0,.218.843,6.984,6.984,0,0,0,.594,1.312,3.474,3.474,0,0,0,3.028,1.592q3.029,0,3.029-2.435a1.989,1.989,0,0,0-.562-1.468,4.5,4.5,0,0,0-2.592-1.124,10.414,10.414,0,0,1-2.591-.718,4.528,4.528,0,0,1-1.78-1.436,3.243,3.243,0,0,1-.656-1.936,3.792,3.792,0,0,1,.531-2.061,3.346,3.346,0,0,1,1.343-1.248,6.421,6.421,0,0,1,1.561-.562,6.781,6.781,0,0,1,1.374-.157h.343a4.834,4.834,0,0,1,2.186.469l.468.25.281-.219a6.06,6.06,0,0,1,.687-.531h.374c.063,0,.157.063.281.188v4.121l-.187.187h-.874A.539.539,0,0,1,464.672,138.591Z" style="fill: #fff"/>
        <path d="M468.637,141.65a7.611,7.611,0,0,1,.624-3.122,6.913,6.913,0,0,1,1.561-2.279,6.505,6.505,0,0,1,2.03-1.311,6.084,6.084,0,0,1,2.06-.469,6.6,6.6,0,0,1,2.842.562,4.177,4.177,0,0,1,1.81,1.561,6.965,6.965,0,0,1,.875,2,10.273,10.273,0,0,1,.281,2.216.627.627,0,0,1-.219.437h-8.8v.469q0,4.62,3.122,5.62a4.761,4.761,0,0,0,1.374.187,2.971,2.971,0,0,0,2.247-1,3.846,3.846,0,0,0,.843-1.311l.313-.75a.818.818,0,0,1,.5-.093h.094q.531,0,.531.312a1.515,1.515,0,0,1-.094.406,5.463,5.463,0,0,1-1.967,2.716,5.127,5.127,0,0,1-3.091,1,6.4,6.4,0,0,1-4.933-2.154A7.312,7.312,0,0,1,468.637,141.65Zm9.523-1.779q-.344-4-2.967-4.247h-.062a4,4,0,0,0-.5.032,3.534,3.534,0,0,0-.78.249,2.371,2.371,0,0,0-.906.656,4.766,4.766,0,0,0-.718,1.28,8.3,8.3,0,0,0-.5,2.061v.218h6.432Z" style="fill: #fff"/>
        <path d="M493.177,138.934h-.655a1.533,1.533,0,0,1-1.124-.468,1.72,1.72,0,0,1-.5-1.187,1.608,1.608,0,0,1,.468-1.186c.1-.1.157-.167.157-.188s-.105-.041-.313-.062a10.116,10.116,0,0,0-1.53-.125,3.322,3.322,0,0,0-2.5,1q-1.468,1.468-1.468,4.9a7.255,7.255,0,0,0,.968,4.028,3.952,3.952,0,0,0,3.435,1.9,2.726,2.726,0,0,0,2.06-.811A4.753,4.753,0,0,0,493.3,144.8a.535.535,0,0,1,.156-.312,1.154,1.154,0,0,1,.5-.063h.437c.125.125.187.219.187.281a2.017,2.017,0,0,1-.125.5,6.243,6.243,0,0,1-.5,1.03,5.581,5.581,0,0,1-.906,1.186,5.017,5.017,0,0,1-1.5.968,4.852,4.852,0,0,1-2.155.406,6.413,6.413,0,0,1-4.683-2,6.925,6.925,0,0,1-2.029-5.027,7.136,7.136,0,0,1,2.029-5.276,6.469,6.469,0,0,1,4.715-2.03,6.2,6.2,0,0,1,3.746.843,2.492,2.492,0,0,1,1.062,2,1.424,1.424,0,0,1-.531,1.156Z" style="fill: #fff"/>
        <path d="M496.362,141.775a7.212,7.212,0,0,1,2.029-5.12,6.6,6.6,0,0,1,4.9-2.186,6.467,6.467,0,0,1,4.84,2.123,7.3,7.3,0,0,1,2.06,5.152,6.846,6.846,0,0,1-2,5,6.616,6.616,0,0,1-4.9,2.029,6.459,6.459,0,0,1-4.964-2.092A7.107,7.107,0,0,1,496.362,141.775Zm6.931,5.745q3.81,0,3.809-5.089v-1.78q0-.687-.031-1.186a6.134,6.134,0,0,0-.218-1.187,3.529,3.529,0,0,0-.5-1.124,3.706,3.706,0,0,0-.968-.874,4.392,4.392,0,0,0-1.53-.624,2.785,2.785,0,0,0-.5-.032,4.33,4.33,0,0,0-1.78.375,3.309,3.309,0,0,0-1.748,1.905,9.09,9.09,0,0,0-.406,2.872v.625a10.527,10.527,0,0,0,.593,4.215A3.425,3.425,0,0,0,503.293,147.52Z" style="fill: #fff"/>
        <path d="M512.379,147.021h.437q1.218,0,1.467-.438v-1.935q0-.531.032-1.218t0-1.311v-2.061q0-1.093-.032-1.842V137.5a1,1,0,0,0-.437-.781,4.2,4.2,0,0,0-1.4-.281h-.562v-.718q0-.718.063-.718l.312-.031q.312-.031.874-.063l1.155-.062q.531-.031,1.124-.063a6.745,6.745,0,0,0,.906-.093c.208-.042.322-.052.343-.031h.094v1.248a8.487,8.487,0,0,0,.031,1.187q.032,0,.156-.156l.375-.469a3.057,3.057,0,0,1,.593-.562q.344-.249.906-.593a4.221,4.221,0,0,1,1.186-.5,6.732,6.732,0,0,1,1.592-.156q3.559.124,3.965,3.528.032.218.032,4.34v2.685a8.4,8.4,0,0,0,.062,1.405.48.48,0,0,0,.344.312,11.012,11.012,0,0,0,1.529.094h.5v1.436h-.25l-.749-.031q-.719-.031-1.561-.032t-1.187-.031a29.108,29.108,0,0,0-3.5.094h-.25v-1.436h.5q1.9,0,1.9-.5.031-.063.031-4.309-.031-4.215-.062-4.464a2.579,2.579,0,0,0-.625-1.312,2.009,2.009,0,0,0-.749-.531,2.385,2.385,0,0,0-.812-.062,3.38,3.38,0,0,0-2.466,1.062,3.772,3.772,0,0,0-1.062,1.717,12.381,12.381,0,0,0-.25,2.591v3.872q0,.936.031,1.249a1.034,1.034,0,0,0,.094.406.655.655,0,0,0,.281.187,11.017,11.017,0,0,0,1.53.094h.5v1.436h-.25l-.718-.031q-.75-.031-1.593-.032t-1.186-.031a29.131,29.131,0,0,0-3.5.094h-.25v-1.436Z" style="fill: #fff"/>
        <path d="M540.2,133v-1.249q0-.75.031-1.03a3.02,3.02,0,0,0-.312-1.749,2.534,2.534,0,0,0-1.593-.406h-.562v-.718q0-.719.063-.718l.312-.031q.312-.031.905-.063t1.156-.062c.353-.021.739-.042,1.155-.062a6.9,6.9,0,0,0,.936-.094c.209-.042.323-.052.344-.031h.094v9.491q0,9.554.031,9.648a1.03,1.03,0,0,0,.437.812,4.228,4.228,0,0,0,1.4.281h.562v1.436q-.063,0-2.373.156t-2.467.187H540.1v-1.717l-.25.219a6.2,6.2,0,0,1-4.059,1.5,6.052,6.052,0,0,1-4.34-1.9,7.695,7.695,0,0,1,.032-10.241,6.4,6.4,0,0,1,4.589-2,6.139,6.139,0,0,1,4.122,1.529Zm-.094,4.777a4.2,4.2,0,0,0-3.528-1.967,3.833,3.833,0,0,0-2.716,1.124,3.916,3.916,0,0,0-1.062,2,17.5,17.5,0,0,0-.25,2.935,14.945,14.945,0,0,0,.219,2.841,3.487,3.487,0,0,0,1.093,1.905,3.136,3.136,0,0,0,2.435,1.03,4.556,4.556,0,0,0,3.809-2.4Z" style="fill: #fff"/>
        <path d="M555.028,138.591a3.055,3.055,0,0,0-.843-2.155,3.167,3.167,0,0,0-2.435-.905,4.278,4.278,0,0,0-1.936.406,1.833,1.833,0,0,0-.937,1.623,1.3,1.3,0,0,0,0,.406,1.723,1.723,0,0,0,.5.749,3.1,3.1,0,0,0,1.342.781,12.1,12.1,0,0,0,1.374.281,12.1,12.1,0,0,1,1.374.281,4.318,4.318,0,0,1,1,.406,5.919,5.919,0,0,1,1.03.624,4.022,4.022,0,0,1,1,1.28,4.222,4.222,0,0,1,.531,1.936,4.437,4.437,0,0,1-1.186,3.185,5.194,5.194,0,0,1-3.841,1.28h-.249a4.636,4.636,0,0,1-3-1.124l-.249.219-.281.281c-.125.124-.25.239-.375.343l-.343.312h-.375c-.063,0-.156-.062-.281-.187v-4.278a2.645,2.645,0,0,1,.062-.78c.042-.083.146-.135.313-.156h.281a.718.718,0,0,1,.5.125.625.625,0,0,1,.156.374,5.581,5.581,0,0,0,.219.843,6.974,6.974,0,0,0,.593,1.312A3.474,3.474,0,0,0,552,147.645q3.03,0,3.029-2.435a1.985,1.985,0,0,0-.562-1.468,4.5,4.5,0,0,0-2.591-1.124,10.412,10.412,0,0,1-2.592-.718,4.532,4.532,0,0,1-1.779-1.436,3.236,3.236,0,0,1-.656-1.936,3.792,3.792,0,0,1,.531-2.061,3.337,3.337,0,0,1,1.342-1.248,6.436,6.436,0,0,1,1.561-.562,6.8,6.8,0,0,1,1.374-.157H552a4.831,4.831,0,0,1,2.186.469l.468.25.281-.219a6.151,6.151,0,0,1,.687-.531H556c.062,0,.156.063.281.188v4.121l-.187.187h-.875A.539.539,0,0,1,555.028,138.591Z" style="fill: #fff"/>
      </g>
    </g>
    <rect x="301.462" y="117.547" width="277.076" height="1.873" style="fill: #fff"/>
  </g>
  <g>
    <path d="M376.982,39.856a9.8,9.8,0,0,1,2.19-6.107q2.188-2.838,4.68-2.838a2.648,2.648,0,0,1,2.486,1.752l1.745-7.033.059-.241a1.33,1.33,0,0,0,.061-.264.519.519,0,0,0-.059-.271c-.039-.063-.174-.12-.4-.168a5.348,5.348,0,0,0-1.033-.074q-.717,0-.717-.337a.674.674,0,0,1,.1-.4.413.413,0,0,1,.22-.169,3.223,3.223,0,0,1,.366-.058l2.959-.235a1.594,1.594,0,0,1,.484-.058q.424,0,.424.347a1.168,1.168,0,0,1-.121.392l-4.291,17.124a7.254,7.254,0,0,0-.143,1.4q0,1.227.761,1.227h.015q1.113,0,2.007-3.573a1.614,1.614,0,0,1,.213-.587.477.477,0,0,1,.358-.1q.454,0,.454.293a5.37,5.37,0,0,1-.109.527q-.111.47-.33,1.187a8.649,8.649,0,0,1-.469,1.23,2.45,2.45,0,0,1-2.183,1.685,2.522,2.522,0,0,1-1.559-.525,2.582,2.582,0,0,1-.931-1.572,4.817,4.817,0,0,1-3.6,2.1,3.121,3.121,0,0,1-2.644-1.337A5.416,5.416,0,0,1,376.982,39.856Zm2.036,1.321a4.522,4.522,0,0,0,.366,1.833,1.3,1.3,0,0,0,1.289.836,3.369,3.369,0,0,0,2.315-1.229,4.984,4.984,0,0,0,1.406-2.111l1.427-5.755a1.421,1.421,0,0,0,.088-.4,3.643,3.643,0,0,0-.585-1.919,1.706,1.706,0,0,0-1.471-.866,2.673,2.673,0,0,0-1.844.961A7.155,7.155,0,0,0,380.5,34.9a21.462,21.462,0,0,0-.966,3.139A14.5,14.5,0,0,0,379.018,41.177Z" style="fill: #58c4dd"/>
    <path d="M391.381,41.59a1.927,1.927,0,0,1,.456-1.392,1.428,1.428,0,0,1,1.05-.469,1,1,0,0,1,.746.272.939.939,0,0,1,.268.685,2.192,2.192,0,0,1-.044.4,1.51,1.51,0,0,1-.425.624,1.61,1.61,0,0,1-1.069.456q.541,1.675,2.842,1.676h.044a4.84,4.84,0,0,0,1.589-.25,2.949,2.949,0,0,0,1.127-.647,4.4,4.4,0,0,0,.69-.875,3.454,3.454,0,0,0,.387-.867,2.848,2.848,0,0,0,.1-.728,2.1,2.1,0,0,0-.21-.978,1.556,1.556,0,0,0-.651-.647,3.442,3.442,0,0,0-.792-.331q-.351-.087-1.007-.254l-.643-.163a3.947,3.947,0,0,1-.7-.288,2.59,2.59,0,0,1-.732-.506,2.629,2.629,0,0,1-.5-.791,2.832,2.832,0,0,1-.228-1.171,4.689,4.689,0,0,1,1.2-2.966,4.307,4.307,0,0,1,3.545-1.473,3.389,3.389,0,0,1,2.269.733,2.286,2.286,0,0,1,.866,1.816,1.768,1.768,0,0,1-.381,1.26,1.162,1.162,0,0,1-.853.4.8.8,0,0,1-.674-.256.92.92,0,0,1-.2-.586,1.351,1.351,0,0,1,.279-.74,1.233,1.233,0,0,1,.9-.5,2.034,2.034,0,0,0-2.23-1.465,2.714,2.714,0,0,0-2.292.959,3.011,3.011,0,0,0-.74,1.795,1.491,1.491,0,0,0,.336,1.012,1.4,1.4,0,0,0,.658.475c.215.057.523.13.927.219.346.1.618.186.814.244a7.935,7.935,0,0,1,.88.358,3.566,3.566,0,0,1,.939.6,2.932,2.932,0,0,1,.631.908,3.02,3.02,0,0,1,.279,1.323,4.2,4.2,0,0,1-.154,1.067,5.6,5.6,0,0,1-.553,1.3,5.725,5.725,0,0,1-1,1.3,4.721,4.721,0,0,1-1.611.98,6.283,6.283,0,0,1-2.3.4,4.544,4.544,0,0,1-2.74-.8A2.5,2.5,0,0,1,391.381,41.59Z" style="fill: #58c4dd"/>
  </g>
  <g>
    <path d="M367.658,206.146a9.8,9.8,0,0,1,2.191-6.108q2.189-2.838,4.679-2.838a2.649,2.649,0,0,1,2.487,1.752l1.744-7.033.059-.241a1.33,1.33,0,0,0,.061-.264.519.519,0,0,0-.059-.271c-.039-.063-.174-.12-.4-.168a5.329,5.329,0,0,0-1.032-.074q-.718,0-.718-.337a.667.667,0,0,1,.1-.4.407.407,0,0,1,.219-.169,3.223,3.223,0,0,1,.366-.058l2.959-.235a1.6,1.6,0,0,1,.484-.058q.425,0,.425.347a1.168,1.168,0,0,1-.121.392l-4.291,17.124a7.18,7.18,0,0,0-.144,1.4q0,1.227.762,1.227h.014q1.115,0,2.007-3.573a1.634,1.634,0,0,1,.213-.587.48.48,0,0,1,.358-.1q.454,0,.455.293c0,.039-.038.215-.11.527s-.183.708-.33,1.187a8.53,8.53,0,0,1-.469,1.23,2.448,2.448,0,0,1-2.182,1.685,2.53,2.53,0,0,1-1.56-.524,2.581,2.581,0,0,1-.93-1.573,4.821,4.821,0,0,1-3.6,2.1,3.124,3.124,0,0,1-2.644-1.337A5.415,5.415,0,0,1,367.658,206.146Zm2.036,1.32a4.506,4.506,0,0,0,.367,1.833,1.3,1.3,0,0,0,1.289.836,3.369,3.369,0,0,0,2.314-1.229,4.974,4.974,0,0,0,1.406-2.111l1.427-5.755a1.387,1.387,0,0,0,.088-.395,3.634,3.634,0,0,0-.585-1.92,1.706,1.706,0,0,0-1.471-.866,2.671,2.671,0,0,0-1.843.961,7.173,7.173,0,0,0-1.514,2.368,21.462,21.462,0,0,0-.966,3.139A14.5,14.5,0,0,0,369.694,207.466Z" style="fill: #fff933"/>
    <path d="M382.5,198.094q0-.4.194-.484a1.711,1.711,0,0,1,.643-.088h2.512l1.186-4.761q.3-1.083,1.185-1.083.815,0,.814.774a2.179,2.179,0,0,1-.146.628l-1.113,4.442h2.413a4.008,4.008,0,0,1,.419.015.452.452,0,0,1,.228.1.306.306,0,0,1,.1.256c0,.263-.067.424-.2.483a1.679,1.679,0,0,1-.637.088h-2.563l-2.228,8.9a8.314,8.314,0,0,0-.161,1.549q0,1.224.789,1.224h.014A2.538,2.538,0,0,0,387.973,209a9.623,9.623,0,0,0,1.409-2.551,1.885,1.885,0,0,1,.242-.5.5.5,0,0,1,.325-.073q.429,0,.429.293a2.681,2.681,0,0,1-.173.542,9.618,9.618,0,0,1-.562,1.157,10.764,10.764,0,0,1-.887,1.348,4.576,4.576,0,0,1-1.27,1.113,3.023,3.023,0,0,1-1.593.469,2.4,2.4,0,0,1-1.865-.78,2.743,2.743,0,0,1-.711-1.918,4.357,4.357,0,0,1,.147-1.023l2.147-8.613H383.25a3.877,3.877,0,0,1-.412-.015.473.473,0,0,1-.233-.095A.3.3,0,0,1,382.5,198.094Z" style="fill: #fff933"/>
  </g>
  <path d="M329.318,164.532a.55.55,0,0,1,.578.321,6.655,6.655,0,0,1,.276,1.111,5.323,5.323,0,0,0,.446,1.383q2.118,4.3,8.395,4.3h32.031q7.986,0,10.251,5.963,2.265-5.964,9.732-5.963h32.427q1.819,0,2.748-.1a8.681,8.681,0,0,0,4.494-1.914,6.187,6.187,0,0,0,2.267-3.889,2.74,2.74,0,0,1,.037-.283,1.872,1.872,0,0,1,.074-.333c.025-.067.063-.158.113-.272a.46.46,0,0,1,.272-.247,1.162,1.162,0,0,1,.426-.074c.644,0,.188,3.667-1.369,5.589a9.26,9.26,0,0,1-6.783,3.25q-.749.049-2.2.049H391.4a13.579,13.579,0,0,0-4.421.654,6.463,6.463,0,0,0-2.8,1.692,11.927,11.927,0,0,0-1.319,1.741,4.7,4.7,0,0,0-.556,1.42,3.658,3.658,0,0,1-.039.432,1.331,1.331,0,0,1-.129.457c-.062.114-.117.23-.167.345a.548.548,0,0,1-.26.272.87.87,0,0,1-.409.1,1.3,1.3,0,0,1-.482-.075.509.509,0,0,1-.279-.272,1.609,1.609,0,0,1-.13-.407c-.025-.139-.062-.325-.111-.555s-.1-.444-.149-.642a6.588,6.588,0,0,0-2.34-3.3,8.664,8.664,0,0,0-4.643-1.765,18.362,18.362,0,0,0-2.228-.1H339.459q-1.491,0-2.383-.085a11.2,11.2,0,0,1-2.492-.66A9.018,9.018,0,0,1,331.709,171C328.889,168.975,328.827,164.532,329.318,164.532Z" style="fill: #fff"/>
  <path d="M458.645,71.372c-.4,0-.66-.106-.774-.32a5.407,5.407,0,0,1-.37-1.112,4.442,4.442,0,0,0-.6-1.383q-2.836-4.3-11.238-4.3H402.79q-10.69,0-13.723-5.963-3.032,5.964-13.027,5.963H332.632q-2.435,0-3.679.1a13.883,13.883,0,0,0-6.016,1.914,6.111,6.111,0,0,0-3.034,3.889,2.126,2.126,0,0,1-.049.283,1.484,1.484,0,0,1-.1.333c-.033.067-.085.158-.152.272a.584.584,0,0,1-.364.247,2.038,2.038,0,0,1-.57.074c-.862,0-.251-3.667,1.833-5.589s5.11-3.006,9.079-3.25q1-.05,2.951-.049h43.01a23.891,23.891,0,0,0,5.917-.654,9.5,9.5,0,0,0,3.755-1.692,12.945,12.945,0,0,0,1.764-1.741,4.072,4.072,0,0,0,.746-1.42,2.783,2.783,0,0,1,.051-.432,1.117,1.117,0,0,1,.173-.457,3.8,3.8,0,0,0,.223-.345.658.658,0,0,1,.349-.272,1.487,1.487,0,0,1,.547-.1,2.293,2.293,0,0,1,.646.075.634.634,0,0,1,.373.272,1.328,1.328,0,0,1,.174.407c.033.139.083.325.149.555s.132.444.2.642a6.976,6.976,0,0,0,3.131,3.3,14.1,14.1,0,0,0,6.216,1.765q.995.1,2.983.1H445.07q2,0,3.189.085a19.208,19.208,0,0,1,3.337.66,13.494,13.494,0,0,1,3.848,1.674C459.219,66.929,459.3,71.372,458.645,71.372Z" style="fill: #fff"/>
</svg>
