<svg xmlns="http://www.w3.org/2000/svg" width="880" height="240" viewBox="0 0 880 240">
  <rect width="880" height="240"/>
  <g>
    <g>
      <g>
        <path d="M375.991,58.429q.032,0,2.248-.156t2.279-.188c.249,0,.374.084.374.25q0,.219-2.279,9.429t-2.341,9.4a1.1,1.1,0,0,0-.031.468q0,1.311.874,1.311a1.343,1.343,0,0,0,.624-.281,7.073,7.073,0,0,0,1.28-3c.125-.416.229-.635.312-.655a.906.906,0,0,1,.313-.032h.249c.312,0,.469.084.469.25a2.2,2.2,0,0,1-.094.5,11.232,11.232,0,0,1-.937,2.529,4.6,4.6,0,0,1-.874,1.248,3.434,3.434,0,0,1-.874.5,3.366,3.366,0,0,1-.749.062,3.194,3.194,0,0,1-1.78-.468,2.394,2.394,0,0,1-.936-.968l-.188-.468c-.021-.021-.062-.011-.125.031l-.124.125a5.472,5.472,0,0,1-3.747,1.748,4.258,4.258,0,0,1-3.028-1.249,5.259,5.259,0,0,1-1.311-3.964,8.211,8.211,0,0,1,.624-3.06,10.973,10.973,0,0,1,1.5-2.685,8.819,8.819,0,0,1,2.934-2.466,6.352,6.352,0,0,1,2.654-.687,2.941,2.941,0,0,1,2.622,1.311c.1.125.156.167.156.125q.031-.124.843-3.4t.875-3.465c0-.271-.073-.437-.219-.5a5.3,5.3,0,0,0-1.218-.156h-.655c-.125-.125-.187-.208-.187-.25s.02-.239.062-.593Q375.741,58.43,375.991,58.429Zm-.437,11.145q-.718-2.466-2.342-2.466a3,3,0,0,0-2.091.968,6.51,6.51,0,0,0-1.561,2.529,24.912,24.912,0,0,0-1.281,5.12v.343a1.655,1.655,0,0,1-.031.375,2.623,2.623,0,0,0,.562,1.935,2.007,2.007,0,0,0,1.343.562q1.686,0,3.465-2.247l.25-.344Z" style="fill: #fff"/>
        <g>
          <path d="M385.544,71.916q0-12.331,7.368-18.7h.874c.125.125.187.219.187.281a2.687,2.687,0,0,1-.593.781,15.737,15.737,0,0,0-1.436,1.967,25.428,25.428,0,0,0-1.717,3.246A22.9,22.9,0,0,0,388.76,64.7a44.341,44.341,0,0,0,0,14.455,23.52,23.52,0,0,0,1.436,5.182,23.134,23.134,0,0,0,1.717,3.247,16.8,16.8,0,0,0,1.467,2,2.687,2.687,0,0,1,.593.781c0,.062-.062.156-.187.281h-.874a18.518,18.518,0,0,1-1.748-1.655,17.835,17.835,0,0,1-1.9-2.591,22.833,22.833,0,0,1-1.842-3.622A25.445,25.445,0,0,1,386.106,78,35,35,0,0,1,385.544,71.916Z" style="fill: #fff"/>
          <g>
            <path d="M395.909,67.732c-.146-.145-.218-.249-.218-.312a2.632,2.632,0,0,1,.093-.5,1.3,1.3,0,0,1,.156-.437.269.269,0,0,1,.281-.156q.219,0,1.592-.032h1.655l.593-2.5q.095-.343.219-.906a6.743,6.743,0,0,1,.218-.811,5.894,5.894,0,0,0,.188-.625,1.137,1.137,0,0,1,.249-.53,2.94,2.94,0,0,0,.313-.375.7.7,0,0,1,.437-.281,2.555,2.555,0,0,1,.562-.063.957.957,0,0,1,.78.344,1.045,1.045,0,0,1,.219.593,11.907,11.907,0,0,1-.281,1.467q-.282,1.249-.625,2.467l-.312,1.155a7.374,7.374,0,0,0,1.561.062h1.592c.146.146.219.26.219.344a1.472,1.472,0,0,1-.406,1.092h-3.34l-1.124,4.527q-1.218,4.995-1.218,5.37,0,1.311.843,1.311a2.983,2.983,0,0,0,2.123-1.061,7.964,7.964,0,0,0,1.655-2.623c.041-.124.093-.2.156-.218a2.71,2.71,0,0,1,.468-.063h.125c.312,0,.468.084.468.25a1.5,1.5,0,0,1-.094.375,5.892,5.892,0,0,1-.561,1.186,11.192,11.192,0,0,1-1.062,1.468,5.785,5.785,0,0,1-1.592,1.311,3.822,3.822,0,0,1-1.905.53,3.612,3.612,0,0,1-1.779-.468A2.7,2.7,0,0,1,396.939,78a3.982,3.982,0,0,1-.062-.843V76.6l1.093-4.371q1.092-4.4,1.124-4.433a7.612,7.612,0,0,0-1.593-.063Z" style="fill: #fff"/>
            <path d="M409.171,58.2a1.17,1.17,0,0,1-.927-.376,1.494,1.494,0,0,1-.353-.971,2.845,2.845,0,0,1,1.059-2.163,3.7,3.7,0,0,1,2.561-.949c.515,0,.838.007.971.022a4.275,4.275,0,0,1,2.494,1.17,2.9,2.9,0,0,1,.883,1.964,3.86,3.86,0,0,1-.751,2.23,4.214,4.214,0,0,1-2.074,1.567l-.067.044c0,.015.067.037.2.066a6.664,6.664,0,0,1,.64.2,2.956,2.956,0,0,1,.839.463,3.542,3.542,0,0,1,1.81,3.091,4.078,4.078,0,0,1-1.369,3.046,4.824,4.824,0,0,1-3.465,1.3,4.976,4.976,0,0,1-3.046-.949,2.884,2.884,0,0,1-1.28-2.406,1.3,1.3,0,0,1,.4-.993,1.472,1.472,0,0,1,.993-.4,1.377,1.377,0,0,1,1.016.4,1.345,1.345,0,0,1,.4.993,1.389,1.389,0,0,1-.066.441,1.922,1.922,0,0,1-.155.353.827.827,0,0,1-.243.265q-.154.111-.264.177a.714.714,0,0,1-.221.088.5.5,0,0,0-.177.066l-.088.022a3.988,3.988,0,0,0,2.737.994,1.97,1.97,0,0,0,1.832-1.17,5.075,5.075,0,0,0,.375-2.229v-.442a2.827,2.827,0,0,0-1.412-2.8,4.645,4.645,0,0,0-1.347-.155l-.927-.022-.066-.044a.811.811,0,0,1-.044-.353c0-.265.059-.4.176-.4a7.757,7.757,0,0,0,1.281-.111,2.136,2.136,0,0,0,1.368-.927,4.076,4.076,0,0,0,.618-2.472v-.176a1.8,1.8,0,0,0-1.81-2.053,3.414,3.414,0,0,0-1.3.243,2.372,2.372,0,0,0-.839.507l-.243.265h.067a1.354,1.354,0,0,0,.176.044.524.524,0,0,1,.221.111,1.12,1.12,0,0,0,.265.154.4.4,0,0,1,.22.243,1.445,1.445,0,0,0,.177.331.588.588,0,0,1,.066.442,1.315,1.315,0,0,1-.309.86A1.27,1.27,0,0,1,409.171,58.2Z" style="fill: #fff"/>
          </g>
          <path d="M428.49,71.916q0,12.363-7.368,18.732h-.406a1.406,1.406,0,0,1-.53-.063c-.084-.041-.125-.135-.125-.281a6.762,6.762,0,0,1,.78-.967,14.249,14.249,0,0,0,1.5-2.123A30.636,30.636,0,0,0,423.963,84a21.707,21.707,0,0,0,1.374-5.089,45.905,45.905,0,0,0,0-13.924,21.707,21.707,0,0,0-1.374-5.089,33.723,33.723,0,0,0-1.623-3.247,11.147,11.147,0,0,0-1.5-2.091,3.5,3.5,0,0,1-.78-1q0-.343.468-.344h.593a19.137,19.137,0,0,1,5.838,8.867A29.81,29.81,0,0,1,428.49,71.916Z" style="fill: #fff"/>
        </g>
      </g>
      <g>
        <path d="M396.59,105.118q.03,0,2.248-.156t2.279-.187q.373,0,.374.25,0,.218-2.279,9.428t-2.341,9.4a1.113,1.113,0,0,0-.032.468q0,1.313.875,1.312a1.364,1.364,0,0,0,.624-.281,7.086,7.086,0,0,0,1.28-3c.125-.417.229-.635.312-.656a.912.912,0,0,1,.312-.031h.25q.468,0,.468.25a2.176,2.176,0,0,1-.093.5,11.2,11.2,0,0,1-.937,2.529,4.653,4.653,0,0,1-.874,1.249,3.463,3.463,0,0,1-.874.5,3.3,3.3,0,0,1-.749.063,3.194,3.194,0,0,1-1.78-.469,2.4,2.4,0,0,1-.937-.968l-.187-.468c-.021-.021-.062-.01-.125.031l-.125.125a5.471,5.471,0,0,1-3.746,1.749,4.262,4.262,0,0,1-3.028-1.249,5.262,5.262,0,0,1-1.312-3.965,8.213,8.213,0,0,1,.625-3.06,11.042,11.042,0,0,1,1.5-2.685,8.831,8.831,0,0,1,2.935-2.466,6.352,6.352,0,0,1,2.654-.687,2.942,2.942,0,0,1,2.622,1.311c.1.125.156.167.156.125q.032-.124.843-3.4t.874-3.465c0-.271-.072-.437-.218-.5a5.3,5.3,0,0,0-1.218-.156h-.655c-.125-.125-.188-.208-.188-.249s.021-.24.063-.594Q396.34,105.119,396.59,105.118Zm-.437,11.146q-.719-2.467-2.342-2.467a3,3,0,0,0-2.092.968,6.534,6.534,0,0,0-1.561,2.529,24.975,24.975,0,0,0-1.28,5.12v.343a1.655,1.655,0,0,1-.031.375,2.621,2.621,0,0,0,.562,1.936,2.011,2.011,0,0,0,1.343.562q1.685,0,3.465-2.248l.25-.344Z" style="fill: #fff933"/>
        <path d="M402.209,114.422c-.145-.146-.218-.25-.218-.312a2.637,2.637,0,0,1,.093-.5,1.312,1.312,0,0,1,.156-.437.269.269,0,0,1,.281-.156q.219,0,1.593-.031h1.654l.593-2.5q.094-.344.219-.905a6.493,6.493,0,0,1,.219-.812,6.217,6.217,0,0,0,.187-.624,1.141,1.141,0,0,1,.25-.531,2.951,2.951,0,0,0,.312-.375.7.7,0,0,1,.437-.281,2.622,2.622,0,0,1,.562-.062.955.955,0,0,1,.78.343,1.045,1.045,0,0,1,.219.593,11.941,11.941,0,0,1-.281,1.468q-.281,1.248-.624,2.466l-.313,1.155a7.317,7.317,0,0,0,1.561.063h1.593c.145.145.218.26.218.343a1.476,1.476,0,0,1-.406,1.093h-3.34l-1.124,4.527q-1.218,4.995-1.218,5.369,0,1.313.843,1.312a2.983,2.983,0,0,0,2.123-1.062,7.96,7.96,0,0,0,1.655-2.622q.061-.187.156-.219a2.751,2.751,0,0,1,.468-.062h.125q.468,0,.468.25a1.541,1.541,0,0,1-.093.374,5.878,5.878,0,0,1-.562,1.186,11.192,11.192,0,0,1-1.062,1.468,5.785,5.785,0,0,1-1.592,1.311,3.819,3.819,0,0,1-1.9.531,3.613,3.613,0,0,1-1.78-.468,2.705,2.705,0,0,1-1.217-1.624,3.885,3.885,0,0,1-.063-.843v-.562l1.093-4.371q1.092-4.4,1.124-4.433a7.764,7.764,0,0,0-1.593-.062Z" style="fill: #fff933"/>
      </g>
      <rect x="361.442" y="96.283" width="74.946" height="1.873" style="fill: #fff"/>
    </g>
    <path d="M450.553,94.191a.681.681,0,0,1,.437-.624h19.887a.725.725,0,0,1,.469.624.708.708,0,0,1-.437.593l-9.928.032h-9.928A.62.62,0,0,1,450.553,94.191Zm0,6.057a.619.619,0,0,1,.5-.624h19.856q.437.312.437.624a.682.682,0,0,1-.469.624H450.99A.68.68,0,0,1,450.553,100.248Z" style="fill: #fff"/>
    <path d="M485.732,90.57a1.656,1.656,0,0,1-1.311-.531,2.123,2.123,0,0,1-.5-1.374,4.023,4.023,0,0,1,1.5-3.059,5.237,5.237,0,0,1,3.621-1.343c.729,0,1.186.011,1.374.032a6.04,6.04,0,0,1,3.528,1.654,4.1,4.1,0,0,1,1.248,2.779,5.463,5.463,0,0,1-1.061,3.153A5.966,5.966,0,0,1,491.2,94.1l-.093.062c0,.021.093.052.281.094a8.892,8.892,0,0,1,.905.281,4.158,4.158,0,0,1,1.186.655,5.01,5.01,0,0,1,2.56,4.371,5.768,5.768,0,0,1-1.935,4.308,6.828,6.828,0,0,1-4.9,1.842,7.031,7.031,0,0,1-4.308-1.342,4.078,4.078,0,0,1-1.811-3.4,1.841,1.841,0,0,1,.562-1.4A2.086,2.086,0,0,1,485.045,99a1.943,1.943,0,0,1,1.436.562,1.905,1.905,0,0,1,.562,1.4,1.946,1.946,0,0,1-.094.624,2.754,2.754,0,0,1-.218.5,1.178,1.178,0,0,1-.344.375q-.217.156-.374.249a.972.972,0,0,1-.312.125.684.684,0,0,0-.25.094l-.125.031a5.643,5.643,0,0,0,3.871,1.405,2.785,2.785,0,0,0,2.591-1.655,7.17,7.17,0,0,0,.531-3.153v-.624q0-2.967-2-3.965a6.535,6.535,0,0,0-1.9-.219l-1.312-.031-.093-.062a1.154,1.154,0,0,1-.063-.5c0-.375.084-.562.25-.562a11.026,11.026,0,0,0,1.811-.156,3.026,3.026,0,0,0,1.935-1.311,5.768,5.768,0,0,0,.875-3.5v-.25a2.545,2.545,0,0,0-2.56-2.9,4.836,4.836,0,0,0-1.842.343,3.348,3.348,0,0,0-1.187.718l-.343.375h.094a1.949,1.949,0,0,0,.249.062.731.731,0,0,1,.312.157,1.622,1.622,0,0,0,.375.218.568.568,0,0,1,.312.344,2.067,2.067,0,0,0,.25.468.839.839,0,0,1,.094.624,1.864,1.864,0,0,1-.437,1.218A1.8,1.8,0,0,1,485.732,90.57Z" style="fill: #fff"/>
    <g>
      <path d="M498.188,93.005c-.145-.146-.218-.25-.218-.312a2.585,2.585,0,0,1,.094-.5,1.266,1.266,0,0,1,.156-.437.267.267,0,0,1,.281-.156q.218,0,1.592-.031h1.655l.593-2.5q.093-.344.218-.905a6.729,6.729,0,0,1,.219-.812,5.891,5.891,0,0,0,.187-.624,1.151,1.151,0,0,1,.25-.531,2.951,2.951,0,0,0,.312-.375.708.708,0,0,1,.437-.281,2.622,2.622,0,0,1,.562-.062.959.959,0,0,1,.781.343,1.05,1.05,0,0,1,.218.594,11.979,11.979,0,0,1-.281,1.467q-.281,1.248-.624,2.466l-.312,1.155a7.309,7.309,0,0,0,1.561.063h1.592c.145.145.218.26.218.343a1.476,1.476,0,0,1-.406,1.093h-3.34l-1.124,4.527q-1.218,4.995-1.218,5.37,0,1.311.843,1.311a2.983,2.983,0,0,0,2.123-1.062,7.933,7.933,0,0,0,1.655-2.622q.063-.187.156-.219a2.9,2.9,0,0,1,.468-.062h.125c.312,0,.469.083.469.25a1.56,1.56,0,0,1-.094.374,5.853,5.853,0,0,1-.562,1.187,11.03,11.03,0,0,1-1.062,1.467,5.77,5.77,0,0,1-1.592,1.311,3.819,3.819,0,0,1-1.9.531,3.613,3.613,0,0,1-1.78-.468,2.705,2.705,0,0,1-1.217-1.624,3.885,3.885,0,0,1-.063-.843v-.562l1.093-4.37q1.092-4.4,1.124-4.434a7.757,7.757,0,0,0-1.592-.062Z" style="fill: #fff"/>
      <path d="M511.053,82.662a1.206,1.206,0,0,1-.949-.4,1.4,1.4,0,0,1-.353-.971,3.677,3.677,0,0,1,1.17-2.715,3.993,3.993,0,0,1,2.913-1.147,4.772,4.772,0,0,1,3.355,1.236,4.212,4.212,0,0,1,1.369,3.2,3.906,3.906,0,0,1-.442,1.81,6.24,6.24,0,0,1-1.059,1.5q-.618.641-1.766,1.633-.8.684-2.207,2.031l-1.3,1.236,1.678.022a26.646,26.646,0,0,0,3.686-.11,5.99,5.99,0,0,0,.53-1.965v-.066h.883v.066q-.023.066-.287,2.009a16.639,16.639,0,0,1-.331,2.031v.066h-8.189v-.684a.567.567,0,0,1,.132-.332q.132-.175.662-.772.64-.707,1.1-1.236c.132-.147.383-.42.75-.817s.618-.669.751-.817.346-.389.64-.728.5-.589.618-.75.287-.383.508-.663a3.773,3.773,0,0,0,.463-.706c.089-.191.2-.405.331-.64A2.835,2.835,0,0,0,516,83.28c.059-.236.111-.456.155-.662a3.529,3.529,0,0,0,.066-.729,3.938,3.938,0,0,0-.75-2.406,2.5,2.5,0,0,0-2.142-1.015,2.224,2.224,0,0,0-1.28.375,2.644,2.644,0,0,0-.772.729,1.58,1.58,0,0,0-.221.419c0,.015.037.022.11.022a1.385,1.385,0,0,1,.817.309,1.175,1.175,0,0,1,.419,1.015,1.3,1.3,0,0,1-.353.927A1.363,1.363,0,0,1,511.053,82.662Z" style="fill: #fff"/>
    </g>
  </g>
  <g>
    <path d="M397.837,210.654v-6.006a4.364,4.364,0,0,1,.015-.454.345.345,0,0,1,.1-.2.354.354,0,0,1,.263-.088.317.317,0,0,1,.366.307,6.209,6.209,0,0,0,1.869,4.6,6.716,6.716,0,0,0,4.751,1.622,3.682,3.682,0,0,0,2.927-1.294,4.439,4.439,0,0,0,1.118-2.99,4.181,4.181,0,0,0-.95-2.765,3.835,3.835,0,0,0-.9-.84,3.717,3.717,0,0,0-.8-.431q-.3-.1-.883-.249-3.72-.894-3.955-1a5.629,5.629,0,0,1-2.849-2.118,5.7,5.7,0,0,1-1.077-3.379,5.6,5.6,0,0,1,1.7-4.106,5.663,5.663,0,0,1,4.173-1.706,6.441,6.441,0,0,1,2.275.389,5.414,5.414,0,0,1,1.465.739q.426.353,1.089.981l1.05-1.713q.236-.4.458-.4c.16,0,.256.047.291.139a2.015,2.015,0,0,1,.052.579v6.035a4.364,4.364,0,0,1-.015.454.273.273,0,0,1-.111.191.459.459,0,0,1-.277.073q-.3,0-.373-.352-.836-6.268-5.845-6.269a3.87,3.87,0,0,0-3.955,3.91,3.872,3.872,0,0,0,.807,2.385,3.751,3.751,0,0,0,2.175,1.408l3.839.92a5.683,5.683,0,0,1,3.274,2.161,6.255,6.255,0,0,1,1.316,3.927,6.319,6.319,0,0,1-1.681,4.4,5.555,5.555,0,0,1-4.3,1.849,8.2,8.2,0,0,1-3.284-.619,6.2,6.2,0,0,1-2.205-1.49q-.618,1-1.025,1.563l-.091.147q-.242.4-.468.4c-.161,0-.256-.049-.287-.147A2.325,2.325,0,0,1,397.837,210.654Z" style="fill: #a6cf8c"/>
    <path d="M413.79,210.713v-.938a5.559,5.559,0,0,0,1.962-.2q.368-.2.367-1.163v-8.061q0-1.112-.374-1.375a3.875,3.875,0,0,0-1.838-.264v-.937l4.189-.322v10.988q0,.893.322,1.111a4.153,4.153,0,0,0,1.788.22v.938q-3.062-.09-3.121-.089Q416.676,210.624,413.79,210.713Zm1.215-18.487a1.661,1.661,0,0,1,1.623-1.582,1.582,1.582,0,0,1,1.131.447,1.627,1.627,0,0,1,0,2.286,1.578,1.578,0,0,1-1.128.446,1.539,1.539,0,0,1-1.167-.484A1.568,1.568,0,0,1,415.005,192.226Z" style="fill: #a6cf8c"/>
    <path d="M422.051,210.713v-.938a5.625,5.625,0,0,0,1.975-.2q.369-.2.369-1.163v-8.032q0-1.112-.391-1.389a4.111,4.111,0,0,0-1.953-.279v-.937l4.22-.322V200.6a4.661,4.661,0,0,1,4.448-3.146q3.52,0,4,2.927a5.657,5.657,0,0,1,1.59-2.035,4.186,4.186,0,0,1,2.761-.892,3.839,3.839,0,0,1,3.149,1.112,3.116,3.116,0,0,1,.791,1.58,22.562,22.562,0,0,1,.132,3v5.72a.732.732,0,0,0,.512.768,7.83,7.83,0,0,0,1.831.139v.938q-3.061-.09-3.354-.089-.234,0-3.4.089v-.938a5.636,5.636,0,0,0,1.97-.2q.373-.2.373-1.163v-6.979a5.288,5.288,0,0,0-.468-2.422,1.8,1.8,0,0,0-1.758-.9,3.792,3.792,0,0,0-2.8,1.3,4.85,4.85,0,0,0-1.245,3.5v5.5q0,.965.374,1.163a5.632,5.632,0,0,0,1.97.2v.938q-3.062-.09-3.369-.089-.236,0-3.384.089v-.938a5.636,5.636,0,0,0,1.97-.2q.374-.2.374-1.163v-6.979a5.273,5.273,0,0,0-.47-2.422,1.8,1.8,0,0,0-1.762-.9,3.806,3.806,0,0,0-2.8,1.3,4.843,4.843,0,0,0-1.248,3.5v5.5q0,.965.376,1.163a5.642,5.642,0,0,0,1.968.2v.938q-3.067-.09-3.362-.089Q425.208,210.624,422.051,210.713Z" style="fill: #a6cf8c"/>
    <path d="M446.909,215.59a5.628,5.628,0,0,0,1.97-.2q.375-.2.374-1.149V200.209c0-.664-.124-1.078-.374-1.245a4.542,4.542,0,0,0-1.97-.249v-.937l4.321-.322v1.978a5.529,5.529,0,0,1,4.2-1.978,5.855,5.855,0,0,1,4.409,1.979,6.77,6.77,0,0,1,1.86,4.81,6.567,6.567,0,0,1-1.977,4.829,6.444,6.444,0,0,1-4.717,1.975,4,4,0,0,1-2.5-.764,3.306,3.306,0,0,1-1.194-1.332v5.3q0,.961.381,1.152a5.885,5.885,0,0,0,1.963.189v.938q-3.15-.09-3.384-.089-.293,0-3.369.089Zm4.409-8.28a1.848,1.848,0,0,0,.067.616,5.887,5.887,0,0,0,.358.646,3.588,3.588,0,0,0,3.12,1.818h.03a3.733,3.733,0,0,0,3.017-1.753,7.155,7.155,0,0,0,1.3-4.392,7.48,7.48,0,0,0-1.187-4.282,3.4,3.4,0,0,0-2.827-1.76,4.118,4.118,0,0,0-2.2.631,4.909,4.909,0,0,0-1.685,1.773Z" style="fill: #a6cf8c"/>
    <path d="M463.711,210.713v-.938a5.566,5.566,0,0,0,1.963-.2q.366-.2.366-1.164V192.826q0-1.113-.388-1.391a4.084,4.084,0,0,0-1.941-.278v-.938l4.307-.322v18.517c0,.643.127,1.032.38,1.164a5.646,5.646,0,0,0,1.963.2v.938q-.366,0-1.128-.03t-1.318-.045q-.557-.014-.879-.014Q466.685,210.624,463.711,210.713Z" style="fill: #a6cf8c"/>
    <path d="M471.855,204.107a6.954,6.954,0,0,1,1.817-4.835,5.745,5.745,0,0,1,4.424-2.007,4.84,4.84,0,0,1,4.007,1.705,6.431,6.431,0,0,1,1.369,4.155c0,.316-.039.506-.118.567a1.258,1.258,0,0,1-.629.092h-8.379a8.664,8.664,0,0,0,.908,4.507,3.837,3.837,0,0,0,3.384,2.011,4.008,4.008,0,0,0,.649-.058,7.116,7.116,0,0,0,1.077-.316,3.433,3.433,0,0,0,1.358-.947,4.924,4.924,0,0,0,1-1.776q.084-.426.366-.411.381,0,.381.352a2.364,2.364,0,0,1-.285.856,7.642,7.642,0,0,1-.829,1.294,4.532,4.532,0,0,1-1.589,1.227,5.064,5.064,0,0,1-2.307.526,6.31,6.31,0,0,1-4.621-2A6.737,6.737,0,0,1,471.855,204.107Zm2.52-.982h7.119a8.5,8.5,0,0,0-.11-1.329,11.1,11.1,0,0,0-.424-1.673,3.384,3.384,0,0,0-1.048-1.585,2.824,2.824,0,0,0-2.819-.408,4.668,4.668,0,0,0-1.151.7,3.764,3.764,0,0,0-1.069,1.622A8.2,8.2,0,0,0,474.375,203.125Z" style="fill: #a6cf8c"/>
  </g>
  <path d="M361.574,145q.252,0,.323.481t.155,1.667a19.069,19.069,0,0,0,.25,2.075q1.188,6.444,4.707,6.444h67.316q4.478,0,5.748,8.944,1.269-8.945,5.456-8.944h67.022a6.035,6.035,0,0,0,1.54-.148,4.934,4.934,0,0,0,2.52-2.872,16.612,16.612,0,0,0,1.271-5.833c0-.049.007-.192.021-.425s.027-.4.041-.5.036-.236.064-.408a.687.687,0,0,1,.152-.37A.325.325,0,0,1,518.4,145c.361,0,.105,5.5-.768,8.384s-2.14,4.509-3.8,4.875a7.7,7.7,0,0,1-1.236.074H445.737a3.537,3.537,0,0,0-2.478.981,5.855,5.855,0,0,0-1.572,2.538q-.51,1.554-.74,2.611a15.669,15.669,0,0,0-.312,2.13c0,.147-.007.364-.021.647a4.818,4.818,0,0,1-.073.686c-.034.172-.066.345-.093.518a.974.974,0,0,1-.146.408.291.291,0,0,1-.229.148.354.354,0,0,1-.271-.111.824.824,0,0,1-.156-.409,5.58,5.58,0,0,1-.073-.611c-.014-.208-.035-.487-.062-.833s-.056-.666-.084-.963a15.64,15.64,0,0,0-1.312-4.945,4.379,4.379,0,0,0-2.6-2.647,3.954,3.954,0,0,0-1.249-.148h-67a5.551,5.551,0,0,1-1.336-.129,3.839,3.839,0,0,1-1.4-.989,7.672,7.672,0,0,1-1.612-2.511C361.333,151.664,361.3,145,361.574,145Z" style="fill: #eee"/>
</svg>
