<svg xmlns="http://www.w3.org/2000/svg" xmlns:xlink="http://www.w3.org/1999/xlink" width="880" height="360" viewBox="0 0 880 360">
  <defs>
    <clipPath id="a">
      <rect x="161.652" y="179.282" width="144" height="72" style="fill: none"/>
    </clipPath>
    <clipPath id="b">
      <rect x="420" y="69.282" width="360" height="240" style="fill: none;stroke: #ddd;stroke-miterlimit: 10;stroke-width: 1.5px"/>
    </clipPath>
    <clipPath id="c">
      <rect x="-521.149" y="-540.718" width="1440" height="720" style="fill: none"/>
    </clipPath>
  </defs>
  <rect y="-0.718" width="880" height="360"/>
  <g>
    <g>
      <g style="clip-path: url(#a)">
        <path d="M239.224,195.74h.034l.02-.026a2.416,2.416,0,0,0,.509-1.477,2.623,2.623,0,0,0-5.239,0,2.306,2.306,0,0,0,.551,1.518l.021.024h.033Z" style="fill: #fff"/>
        <path d="M235.089,195.844l-.042-.047a2.343,2.343,0,0,1-.568-1.56,2.622,2.622,0,0,1,2.681-2.549,2.724,2.724,0,0,1,1.9.733,2.466,2.466,0,0,1,.272,3.332l-.041.052h-.068Zm2.1-4.025h-.025a2.486,2.486,0,0,0-2.544,2.418,2.252,2.252,0,0,0,.535,1.476l4.071-.038a2.34,2.34,0,0,0-.261-3.162,2.577,2.577,0,0,0-1.776-.694"/>
        <path d="M246.588,195.74h.035l.02-.026a2.416,2.416,0,0,0,.509-1.477,2.624,2.624,0,0,0-5.24,0,2.3,2.3,0,0,0,.552,1.518l.021.024h.033Z" style="fill: #fff"/>
        <path d="M242.453,195.844l-.042-.047a2.348,2.348,0,0,1-.568-1.56,2.623,2.623,0,0,1,2.682-2.549,2.72,2.72,0,0,1,1.9.733,2.465,2.465,0,0,1,.273,3.332l-.041.052h-.068Zm2.1-4.025h-.024a2.487,2.487,0,0,0-2.545,2.418,2.247,2.247,0,0,0,.536,1.476l4.071-.038a2.34,2.34,0,0,0-.261-3.162,2.578,2.578,0,0,0-1.777-.694"/>
        <path d="M238.3,192.913a.306.306,0,1,0,.013.611.306.306,0,1,0,0-.611H238.3l.388-.127a.981.981,0,1,1-1.031.98,1.006,1.006,0,0,1,1.031-.98"/>
        <path d="M245.664,192.913a.328.328,0,1,0,.013,0h-.013l.388-.127a.981.981,0,1,1-1.031.98,1.006,1.006,0,0,1,1.031-.98"/>
        <path d="M236.612,199.505h8.624c-2.062,8.119-3.361,13.414-3.361,19.216,0,1.019,0,8.845,3.133,8.845a2.985,2.985,0,0,0,2.973-2.608c0-.357,0-.51-.536-1.592a34.658,34.658,0,0,1-2.062-11.746,53.69,53.69,0,0,1,1.607-12.1h8.543c.991,0,3.508,0,3.508-2.316,0-1.591-1.446-1.591-2.825-1.591H231.122c-1.754,0-4.352,0-7.86,3.55-1.982,2.1-4.419,5.944-4.419,6.376s.375.586.844.586c.535,0,.615-.217.99-.649,3.964-5.944,7.928-5.944,9.843-5.944h4.351c-1.674,5.434-3.588,11.747-9.842,24.434-.616,1.159-.616,1.312-.616,1.744a1.913,1.913,0,0,0,2.063,1.883c2.209,0,2.825-1.883,3.736-4.924,1.218-3.7,1.218-3.844,1.982-6.745Z" style="fill: #0c7f99"/>
        <path d="M238.139,197.622a4,4,0,0,0,2.745,1.043c1.968,0,2.169-.877,2.183-.929l-.04-.241a2.438,2.438,0,0,1-2.116.7,4.32,4.32,0,0,1-2.625-.777"/>
        <path d="M302.7,213.159c-3.956-3.109-25.92-5.441-33.15-9.976l-6.82-7.147c-14.852-15.561-15.689-17.08-42.836-16.707s-47.337,25.02-47.337,25.02c-4.5.648-10.232,8.68-10.642,10.235s-.272,15.159,0,18.786c.234,3.117,6.709,5.77,8.528,6.455-.036-.435-.07-.871-.07-1.316,0-8.824,7.534-15.979,16.826-15.979s16.824,7.155,16.824,15.979c0,.5-.03,1-.078,1.484l52.952-.009c-.048-.486-.08-.977-.08-1.475,0-8.824,7.533-15.979,16.826-15.979s16.824,7.155,16.824,15.979c0,.5-.03,1-.078,1.483,10.165.139,11.007-2.675,13.4-5.456,2.456-2.85,2.865-18.267-1.091-21.377M215.118,205.9H185.924v-3.887a57.738,57.738,0,0,1,12-9.328c6.411-3.5,17.189-6.521,17.189-6.521Zm47.611,0H224.258V184.656s16.4-.914,20.489.641,17.982,17.756,17.982,17.756Z" style="fill: #ccc"/>
        <path d="M161.656,216.053v6.305a14.329,14.329,0,0,0,6.658-1.987,6.858,6.858,0,0,0,3.218-4.318Z" style="fill: #de4850"/>
        <path d="M302.393,219.928h-9.209a6.822,6.822,0,0,0,2.558,4.956c2.455,1.716,6.651.81,6.651.81Z" style="fill: #ffd675"/>
        <path d="M182.5,226.6c-6.954,2.4-10.539,9.706-8.008,16.31s10.22,10.01,17.174,7.606,10.54-9.706,8.009-16.31-10.221-10.01-17.175-7.606m8.307,21.674a11.055,11.055,0,0,1-13.954-6.18,10.2,10.2,0,0,1,6.507-13.252,11.055,11.055,0,0,1,13.954,6.18,10.2,10.2,0,0,1-6.507,13.252" style="fill: #eee"/>
        <polygon points="185.117 239.233 181.393 229.517 185.328 228.156 189.052 237.872 185.117 239.233" style="fill: #eee"/>
        <polygon points="176.276 240.901 176.13 236.927 187.01 236.566 187.157 240.54 176.276 240.901" style="fill: #eee"/>
        <polygon points="188.372 240.119 185.794 236.986 194.373 230.62 196.951 233.753 188.372 240.119" style="fill: #eee"/>
        <polygon points="186.096 249.04 182.071 247.943 185.072 238.004 189.097 239.101 186.096 249.04" style="fill: #eee"/>
        <polygon points="194.939 245.983 185.913 240.201 188.254 236.905 197.28 242.687 194.939 245.983" style="fill: #eee"/>
        <path d="M269.117,226.6c-6.954,2.4-10.54,9.706-8.009,16.31s10.22,10.01,17.174,7.606,10.54-9.706,8.009-16.31-10.221-10.01-17.174-7.606m8.306,21.674a11.055,11.055,0,0,1-13.954-6.18,10.2,10.2,0,0,1,6.507-13.252,11.055,11.055,0,0,1,13.954,6.18,10.2,10.2,0,0,1-6.507,13.252" style="fill: #eee"/>
        <polygon points="271.732 239.233 268.008 229.517 271.943 228.156 275.667 237.872 271.732 239.233" style="fill: #eee"/>
        <polygon points="262.892 240.901 262.746 236.927 273.626 236.566 273.772 240.54 262.892 240.901" style="fill: #eee"/>
        <polygon points="274.988 240.119 272.41 236.986 280.989 230.62 283.567 233.753 274.988 240.119" style="fill: #eee"/>
        <polygon points="272.711 249.04 268.686 247.943 271.686 238.004 275.711 239.101 272.711 249.04" style="fill: #eee"/>
        <polygon points="281.554 245.983 272.529 240.201 274.87 236.905 283.895 242.687 281.554 245.983" style="fill: #eee"/>
        <path d="M231.122,195.611c-1.754,0-4.352,0-7.86,3.55-1.982,2.1-4.419,5.944-4.419,6.376s.375.586.843.586c.536,0,.616-.217.991-.649,3.964-5.944,7.927-5.944,9.842-5.944h4.352" style="fill: #0c7f99"/>
      </g>
      <rect x="161.652" y="179.282" width="144" height="72" style="fill: none"/>
    </g>
    <rect x="255.767" y="240.282" width="36" height="24" style="fill: none;stroke: #ddd;stroke-miterlimit: 10"/>
    <g>
      <g style="clip-path: url(#b)">
        <g>
          <g style="clip-path: url(#c)">
            <path d="M889.325-201.945c-39.56-31.09-259.2-54.41-331.5-99.76l-68.21-71.47c-148.51-155.61-156.88-170.8-428.36-167.07s-473.37,250.2-473.37,250.2c-45.02,6.48-102.32,86.8-106.41,102.35s-2.73,151.59,0,187.86c2.34,31.17,67.09,57.7,85.28,64.55-.37-4.35-.7-8.71-.7-13.16,0-88.24,75.33-159.79,168.25-159.79s168.25,71.55,168.25,159.79c0,5.01-.31,9.95-.79,14.84l529.52-.09c-.47-4.86-.79-9.77-.79-14.75,0-88.24,75.33-159.79,168.26-159.79S767-36.685,767,51.555c0,5.01-.31,9.95-.78,14.83,101.65,1.39,110.07-26.75,134.02-54.56,24.56-28.5,28.65-182.67-10.91-213.77m-875.81-72.55h-291.94v-38.87s55.93-58.3,120.05-93.28,171.89-65.21,171.89-65.21Zm476.1,0h-384.7v-212.48s163.96-9.14,204.89,6.41S489.615-303,489.615-303Z" style="fill: #ccc"/>
            <path d="M553.5-67.588c-69.54,24.03-105.4,97.06-80.09,163.1s102.2,100.1,171.74,76.06,105.4-97.06,80.09-163.1-102.21-100.1-171.74-76.06m83.06,216.74c-56.5,19.53-118.97-8.14-139.54-61.8s8.57-112.99,65.07-132.52,118.98,8.14,139.54,61.8-8.57,112.99-65.07,132.52" style="fill: #eee"/>
            <polygon points="579.649 58.796 542.409 -38.364 581.759 -51.974 618.999 45.186 579.649 58.796" style="fill: #eee"/>
            <polygon points="491.25 75.471 489.79 35.731 598.59 32.121 600.05 71.861 491.25 75.471" style="fill: #eee"/>
            <polygon points="612.212 67.658 586.432 36.328 672.222 -27.332 698.002 3.998 612.212 67.658" style="fill: #eee"/>
            <polygon points="589.444 156.862 549.194 145.892 579.194 46.502 619.444 57.472 589.444 156.862" style="fill: #eee"/>
            <polygon points="677.871 126.291 587.621 68.471 611.031 35.511 701.281 93.331 677.871 126.291" style="fill: #eee"/>
          </g>
          <rect x="-521.149" y="-540.718" width="1440" height="720" style="fill: none"/>
        </g>
      </g>
      <rect x="420" y="69.282" width="360" height="240" style="fill: none;stroke: #ddd;stroke-miterlimit: 10;stroke-width: 1.5px"/>
    </g>
    <g>
      <path d="M497.25,253.36a25.7,25.7,0,0,1,.312-4.09,28.736,28.736,0,0,1,.719-3.341,13.028,13.028,0,0,1,1.155-2.747q.749-1.342,1.186-2.092a8.308,8.308,0,0,1,1.312-1.624q.873-.873,1.03-1.061a5.561,5.561,0,0,1,.781-.656h.53c.292,0,.437.094.437.281a2.5,2.5,0,0,1-.53.656,14.008,14.008,0,0,0-1.28,1.655,21.426,21.426,0,0,0-1.53,2.685,17.737,17.737,0,0,0-1.312,4.308,31.508,31.508,0,0,0-.53,6.026,31.012,31.012,0,0,0,.53,6,20.318,20.318,0,0,0,1.28,4.34,14.161,14.161,0,0,0,1.53,2.685q.782,1.031,1.312,1.655a6.964,6.964,0,0,1,.53.656q0,.281-.468.281h-.5l-.875-.749a15.416,15.416,0,0,1-4.277-6.62A25.527,25.527,0,0,1,497.25,253.36Z" style="fill: #9cdceb"/>
      <g>
        <path d="M509.458,242.9a5.509,5.509,0,0,1,4.777-2.529,6.235,6.235,0,0,1,3,.812,5.852,5.852,0,0,1,2.435,2.872,17.866,17.866,0,0,1,1.155,7.119,16.3,16.3,0,0,1-1.342,7.4,5.334,5.334,0,0,1-1.717,2.092,5.668,5.668,0,0,1-1.9.968,8.692,8.692,0,0,1-1.592.218,7.19,7.19,0,0,1-1.624-.187,5.455,5.455,0,0,1-1.905-1,5.659,5.659,0,0,1-1.717-2.092,16.3,16.3,0,0,1-1.342-7.4Q507.679,245.742,509.458,242.9Zm7.025-.375a2.939,2.939,0,0,0-2.216-1,2.972,2.972,0,0,0-2.248,1,4.191,4.191,0,0,0-1.031,2.248,44.383,44.383,0,0,0-.25,6,52.1,52.1,0,0,0,.25,6.494,4.465,4.465,0,0,0,1.124,2.467,2.833,2.833,0,0,0,2.155.937,2.8,2.8,0,0,0,2.123-.937,4.5,4.5,0,0,0,1.124-2.623,62.574,62.574,0,0,0,.25-6.338,44.033,44.033,0,0,0-.25-5.964A4.371,4.371,0,0,0,516.483,242.526Z" style="fill: #9cdceb"/>
        <path d="M524.508,259.293a1.851,1.851,0,0,1,.531-1.312,1.768,1.768,0,0,1,1.342-.562,1.91,1.91,0,0,1,1.311.5,1.8,1.8,0,0,1,.594,1.343,1.885,1.885,0,0,1-.531,1.342,1.766,1.766,0,0,1-1.343.562,1.818,1.818,0,0,1-1.342-.531A1.928,1.928,0,0,1,524.508,259.293Z" style="fill: #9cdceb"/>
        <path d="M537.4,243.119l-.406.157a8.985,8.985,0,0,1-1.249.312,14.3,14.3,0,0,1-1.811.218h-.593V242.37h.593a10.187,10.187,0,0,0,2.716-.468,7.382,7.382,0,0,0,1.749-.75,8.025,8.025,0,0,0,.874-.687q.063-.093.375-.093a.871.871,0,0,1,.531.187V249.9l.031,9.367a1.248,1.248,0,0,0,.375.281,3.762,3.762,0,0,0,.749.125q.592.062,1.936.062h.811v1.436h-.343q-.656-.093-4.964-.093-4.246,0-4.9.093H533.5V259.73h2a7.477,7.477,0,0,0,.781-.031,3.021,3.021,0,0,0,.5-.094,1.771,1.771,0,0,1,.25-.062c.021,0,.083-.052.187-.157s.167-.145.188-.124Z" style="fill: #9cdceb"/>
      </g>
      <g>
        <path d="M548.237,237.78l.125-.031h.687l.874.749a15.409,15.409,0,0,1,4.278,6.62,25.525,25.525,0,0,1,1.342,8.242,26.1,26.1,0,0,1-.312,4.091,26.951,26.951,0,0,1-.718,3.341,14.142,14.142,0,0,1-1.155,2.747q-.75,1.374-1.187,2.092a9.432,9.432,0,0,1-1.28,1.592q-.843.874-1,1.031t-.718.593l-.125.125h-.718a.181.181,0,0,1-.156-.094.728.728,0,0,1-.094-.281q.031-.031.343-.406,4.841-5.026,4.84-14.831t-4.84-14.83q-.312-.375-.343-.406A.368.368,0,0,1,548.237,237.78Z" style="fill: #9cdceb"/>
        <path d="M561.313,238.051a1.17,1.17,0,0,1-.927-.376,1.5,1.5,0,0,1-.353-.971,2.845,2.845,0,0,1,1.059-2.163,3.7,3.7,0,0,1,2.561-.949q.773,0,.971.022a4.26,4.26,0,0,1,2.494,1.17,2.893,2.893,0,0,1,.883,1.964,3.866,3.866,0,0,1-.75,2.23,4.217,4.217,0,0,1-2.075,1.567l-.066.044q0,.023.2.066a6.66,6.66,0,0,1,.641.2,2.955,2.955,0,0,1,.838.464,3.542,3.542,0,0,1,1.81,3.09,4.077,4.077,0,0,1-1.368,3.046,4.825,4.825,0,0,1-3.466,1.3,4.976,4.976,0,0,1-3.046-.949,2.882,2.882,0,0,1-1.28-2.407,1.3,1.3,0,0,1,.4-.993,1.471,1.471,0,0,1,.993-.4,1.376,1.376,0,0,1,1.016.4,1.347,1.347,0,0,1,.4.993,1.4,1.4,0,0,1-.066.442,1.953,1.953,0,0,1-.155.353.838.838,0,0,1-.243.265q-.154.111-.264.177a.714.714,0,0,1-.221.088.5.5,0,0,0-.177.066l-.088.022a3.993,3.993,0,0,0,2.737.994,1.969,1.969,0,0,0,1.832-1.17,5.061,5.061,0,0,0,.376-2.23v-.441a2.827,2.827,0,0,0-1.413-2.8,4.62,4.62,0,0,0-1.347-.154l-.927-.022-.066-.045a.825.825,0,0,1-.044-.353c0-.265.059-.4.176-.4a7.863,7.863,0,0,0,1.281-.11,2.142,2.142,0,0,0,1.368-.928,4.076,4.076,0,0,0,.618-2.472v-.177a1.8,1.8,0,0,0-1.81-2.052,3.414,3.414,0,0,0-1.3.242,2.358,2.358,0,0,0-.839.508l-.243.265h.066a1.622,1.622,0,0,0,.177.044.533.533,0,0,1,.221.11,1.121,1.121,0,0,0,.265.155.4.4,0,0,1,.22.243,1.445,1.445,0,0,0,.177.331.586.586,0,0,1,.066.441,1.315,1.315,0,0,1-.309.861A1.273,1.273,0,0,1,561.313,238.051Z" style="fill: #9cdceb"/>
      </g>
      <path d="M581.53,250.332a.681.681,0,0,1,.437-.625h19.889a.727.727,0,0,1,.468.625.706.706,0,0,1-.437.593l-9.929.031H582.03A.619.619,0,0,1,581.53,250.332Zm0,6.057a.619.619,0,0,1,.5-.624h19.857c.292.208.437.416.437.624a.683.683,0,0,1-.468.625H581.967A.681.681,0,0,1,581.53,256.389Z" style="fill: #9cdceb"/>
      <g>
        <path d="M615.744,242.9a5.509,5.509,0,0,1,4.777-2.529,6.234,6.234,0,0,1,3,.812,5.853,5.853,0,0,1,2.436,2.872,17.866,17.866,0,0,1,1.155,7.119,16.3,16.3,0,0,1-1.342,7.4,5.336,5.336,0,0,1-1.718,2.092,5.656,5.656,0,0,1-1.9.968,8.7,8.7,0,0,1-1.593.218,7.188,7.188,0,0,1-1.623-.187,5.455,5.455,0,0,1-1.9-1,5.65,5.65,0,0,1-1.717-2.092,16.3,16.3,0,0,1-1.343-7.4Q613.964,245.742,615.744,242.9Zm7.025-.375a2.94,2.94,0,0,0-2.217-1,2.975,2.975,0,0,0-2.248,1,4.19,4.19,0,0,0-1.03,2.248,44.208,44.208,0,0,0-.25,6,51.9,51.9,0,0,0,.25,6.494,4.459,4.459,0,0,0,1.124,2.467,2.833,2.833,0,0,0,2.154.937,2.8,2.8,0,0,0,2.123-.937,4.483,4.483,0,0,0,1.124-2.623,62.574,62.574,0,0,0,.25-6.338,43.859,43.859,0,0,0-.25-5.964A4.363,4.363,0,0,0,622.769,242.526Z" style="fill: #9cdceb"/>
        <path d="M630.793,259.293a1.851,1.851,0,0,1,.531-1.312,1.771,1.771,0,0,1,1.343-.562,1.913,1.913,0,0,1,1.311.5,1.8,1.8,0,0,1,.593,1.343,1.888,1.888,0,0,1-.53,1.342,1.768,1.768,0,0,1-1.343.562,1.821,1.821,0,0,1-1.343-.531A1.933,1.933,0,0,1,630.793,259.293Z" style="fill: #9cdceb"/>
        <path d="M640.035,242.9a5.509,5.509,0,0,1,4.777-2.529,6.235,6.235,0,0,1,3,.812,5.852,5.852,0,0,1,2.435,2.872,17.866,17.866,0,0,1,1.155,7.119,16.3,16.3,0,0,1-1.342,7.4,5.334,5.334,0,0,1-1.717,2.092,5.668,5.668,0,0,1-1.9.968,8.692,8.692,0,0,1-1.592.218,7.19,7.19,0,0,1-1.624-.187,5.455,5.455,0,0,1-1.9-1,5.659,5.659,0,0,1-1.717-2.092,16.3,16.3,0,0,1-1.342-7.4Q638.256,245.742,640.035,242.9Zm7.025-.375a2.939,2.939,0,0,0-2.216-1,2.972,2.972,0,0,0-2.248,1,4.191,4.191,0,0,0-1.031,2.248,44.383,44.383,0,0,0-.25,6,52.1,52.1,0,0,0,.25,6.494,4.465,4.465,0,0,0,1.124,2.467,2.833,2.833,0,0,0,2.155.937,2.8,2.8,0,0,0,2.123-.937,4.5,4.5,0,0,0,1.124-2.623,62.574,62.574,0,0,0,.25-6.338,44.033,44.033,0,0,0-.25-5.964A4.371,4.371,0,0,0,647.06,242.526Z" style="fill: #9cdceb"/>
        <path d="M655.647,242.9a5.508,5.508,0,0,1,4.777-2.529,6.234,6.234,0,0,1,3,.812,5.858,5.858,0,0,1,2.436,2.872,17.866,17.866,0,0,1,1.155,7.119,16.3,16.3,0,0,1-1.343,7.4,5.326,5.326,0,0,1-1.717,2.092,5.65,5.65,0,0,1-1.9.968,8.692,8.692,0,0,1-1.592.218,7.2,7.2,0,0,1-1.624-.187,5.443,5.443,0,0,1-1.9-1,5.64,5.64,0,0,1-1.717-2.092,16.3,16.3,0,0,1-1.343-7.4Q653.867,245.742,655.647,242.9Zm7.025-.375a2.941,2.941,0,0,0-2.217-1,2.973,2.973,0,0,0-2.248,1,4.19,4.19,0,0,0-1.03,2.248,44.208,44.208,0,0,0-.25,6,51.9,51.9,0,0,0,.25,6.494,4.459,4.459,0,0,0,1.124,2.467,2.833,2.833,0,0,0,2.154.937,2.8,2.8,0,0,0,2.123-.937,4.483,4.483,0,0,0,1.124-2.623,62.574,62.574,0,0,0,.25-6.338,43.859,43.859,0,0,0-.25-5.964A4.37,4.37,0,0,0,662.672,242.526Z" style="fill: #9cdceb"/>
        <path d="M674.911,243.119l-.406.157a8.911,8.911,0,0,1-1.249.312,14.278,14.278,0,0,1-1.81.218h-.594V242.37h.594a10.194,10.194,0,0,0,2.716-.468,7.37,7.37,0,0,0,1.748-.75,8.042,8.042,0,0,0,.875-.687c.041-.062.166-.093.374-.093a.867.867,0,0,1,.531.187V249.9l.031,9.367a1.26,1.26,0,0,0,.375.281,3.778,3.778,0,0,0,.749.125q.594.062,1.936.062h.812v1.436h-.344q-.656-.093-4.964-.093-4.247,0-4.9.093h-.375V259.73h2a7.442,7.442,0,0,0,.78-.031,3.034,3.034,0,0,0,.5-.094,1.771,1.771,0,0,1,.25-.062c.02,0,.083-.052.187-.157s.166-.145.187-.124Z" style="fill: #9cdceb"/>
      </g>
    </g>
    <circle cx="569.32" cy="179.282" r="4" style="fill: #58c4dd"/>
    <circle cx="599.33" cy="179.282" r="4" style="fill: #58c4dd"/>
    <path d="M569.387,188.963q.128,0,.165.321c.024.214.051.584.079,1.111s.071.988.127,1.384q.6,4.3,2.4,4.3H581.3q2.28,0,2.927,5.962.646-5.963,2.78-5.962h9.26a2.4,2.4,0,0,0,.785-.1,3.122,3.122,0,0,0,1.283-1.914,14.02,14.02,0,0,0,.648-3.889c0-.033,0-.128.01-.284s.014-.268.021-.333.018-.157.033-.272a.542.542,0,0,1,.077-.247.155.155,0,0,1,.122-.074,19.9,19.9,0,0,1-.391,5.59q-.667,2.883-1.937,3.25a3,3,0,0,1-.63.049h-9.175a1.6,1.6,0,0,0-1.263.654,4.237,4.237,0,0,0-.8,1.692q-.26,1.037-.376,1.741a13.435,13.435,0,0,0-.159,1.42c0,.1,0,.242-.011.431a4.082,4.082,0,0,1-.037.457c-.018.115-.033.231-.048.346a.774.774,0,0,1-.074.272c-.035.065-.074.1-.117.1a.16.16,0,0,1-.137-.074.632.632,0,0,1-.08-.272c-.018-.131-.03-.267-.037-.407s-.018-.325-.032-.556-.028-.444-.043-.642a13.027,13.027,0,0,0-.668-3.3,2.655,2.655,0,0,0-1.326-1.765,1.567,1.567,0,0,0-.636-.1h-8.988a2.171,2.171,0,0,1-.681-.086,2.035,2.035,0,0,1-.711-.659,5.468,5.468,0,0,1-.821-1.674A18.381,18.381,0,0,1,569.387,188.963Z" style="fill: #9cdceb"/>
    <path d="M270.706,253.282c.008,0,.014.01.016.032s0,.058.008.111.007.1.013.138q.06.43.24.43h.914q.228,0,.293.6.065-.6.278-.6h.926a.229.229,0,0,0,.079-.01.314.314,0,0,0,.128-.191,1.449,1.449,0,0,0,.065-.389v-.029l0-.033,0-.027a.046.046,0,0,1,.008-.025.013.013,0,0,1,.012-.007,2.022,2.022,0,0,1-.039.559c-.045.192-.109.3-.194.325a.317.317,0,0,1-.063,0h-.917a.16.16,0,0,0-.127.065.436.436,0,0,0-.08.169c-.017.069-.03.127-.037.174a1.371,1.371,0,0,0-.016.142c0,.01,0,.025,0,.043a.414.414,0,0,1,0,.046l0,.035a.088.088,0,0,1-.007.027c0,.006-.008.01-.012.01a.017.017,0,0,1-.014-.008.079.079,0,0,1-.008-.027c0-.013,0-.027,0-.041l0-.055,0-.064a1.294,1.294,0,0,0-.067-.33.267.267,0,0,0-.132-.177.174.174,0,0,0-.064-.009H271a.211.211,0,0,1-.068-.009.214.214,0,0,1-.071-.066.551.551,0,0,1-.082-.167A1.826,1.826,0,0,1,270.706,253.282Z" style="fill: #9cdceb"/>
    <circle cx="273.767" cy="251.282" r="0.5" style="fill: #9cdceb"/>
    <circle cx="270.699" cy="251.282" r="0.5" style="fill: #9cdceb"/>
    <g>
      <path d="M262.982,258.871a2.55,2.55,0,0,1,.032-.409,2.74,2.74,0,0,1,.071-.334,1.309,1.309,0,0,1,.116-.275c.05-.089.089-.159.119-.209a.788.788,0,0,1,.131-.162c.058-.058.092-.094.1-.106a.469.469,0,0,1,.078-.066h.053c.029,0,.044.009.044.028a.274.274,0,0,1-.053.066,1.214,1.214,0,0,0-.128.165,2.181,2.181,0,0,0-.153.269,1.758,1.758,0,0,0-.132.431,3.181,3.181,0,0,0-.053.6,3.136,3.136,0,0,0,.053.6,2.074,2.074,0,0,0,.128.434,1.4,1.4,0,0,0,.153.268c.052.069.1.124.132.166a.739.739,0,0,1,.053.065c0,.019-.016.028-.047.028h-.05l-.088-.075a1.538,1.538,0,0,1-.427-.662A2.538,2.538,0,0,1,262.982,258.871Z" style="fill: #9cdceb"/>
      <g>
        <path d="M264.2,257.825a.553.553,0,0,1,.478-.253.617.617,0,0,1,.3.082.578.578,0,0,1,.243.287,1.786,1.786,0,0,1,.116.712,1.625,1.625,0,0,1-.135.74.527.527,0,0,1-.171.209.581.581,0,0,1-.191.1.89.89,0,0,1-.159.021.745.745,0,0,1-.162-.018.56.56,0,0,1-.191-.1.568.568,0,0,1-.172-.209,1.64,1.64,0,0,1-.134-.74A1.579,1.579,0,0,1,264.2,257.825Zm.7-.037a.3.3,0,0,0-.222-.1.3.3,0,0,0-.225.1.421.421,0,0,0-.1.225,4.527,4.527,0,0,0-.025.6,5.327,5.327,0,0,0,.025.649.441.441,0,0,0,.113.247.281.281,0,0,0,.215.094.277.277,0,0,0,.212-.094.447.447,0,0,0,.113-.262c.014-.113.023-.324.025-.634a4.492,4.492,0,0,0-.025-.6A.439.439,0,0,0,264.906,257.788Z" style="fill: #9cdceb"/>
        <path d="M265.708,259.464a.187.187,0,0,1,.053-.131.179.179,0,0,1,.134-.056.2.2,0,0,1,.132.05.181.181,0,0,1,.059.134.193.193,0,0,1-.053.135.179.179,0,0,1-.134.056.185.185,0,0,1-.135-.053A.2.2,0,0,1,265.708,259.464Z" style="fill: #9cdceb"/>
        <path d="M267,257.847l-.041.016a.9.9,0,0,1-.125.031,1.47,1.47,0,0,1-.181.022h-.059v-.144h.059a1.018,1.018,0,0,0,.272-.047.75.75,0,0,0,.175-.075.824.824,0,0,0,.087-.068c0-.007.017-.01.037-.01a.093.093,0,0,1,.054.019v.934l0,.936a.111.111,0,0,0,.037.028.3.3,0,0,0,.075.013c.04,0,.1.006.194.006h.081v.144h-.035c-.043-.006-.209-.01-.5-.01s-.446,0-.49.01h-.038v-.144h.2q.049,0,.078,0a.3.3,0,0,0,.05-.009l.025-.007s.008,0,.019-.015.017-.015.019-.013Z" style="fill: #9cdceb"/>
      </g>
      <g>
        <path d="M268.081,257.313l.013,0h.068l.088.075a1.544,1.544,0,0,1,.427.662,2.538,2.538,0,0,1,.135.824,2.578,2.578,0,0,1-.032.409,2.548,2.548,0,0,1-.071.334,1.4,1.4,0,0,1-.116.275c-.05.092-.089.161-.119.209a.889.889,0,0,1-.128.159l-.1.1c-.011.01-.035.03-.072.059l-.013.012h-.072a.018.018,0,0,1-.015-.009.1.1,0,0,1-.01-.028l.035-.041a2.514,2.514,0,0,0,0-2.966l-.035-.04A.038.038,0,0,1,268.081,257.313Z" style="fill: #9cdceb"/>
        <path d="M269.389,257.34a.117.117,0,0,1-.093-.037.149.149,0,0,1-.035-.1.286.286,0,0,1,.106-.217.371.371,0,0,1,.256-.095.9.9,0,0,1,.1,0,.417.417,0,0,1,.249.117.282.282,0,0,1,.088.2.385.385,0,0,1-.075.223.426.426,0,0,1-.207.157l-.007,0s.007,0,.02.007a.5.5,0,0,1,.064.02.266.266,0,0,1,.084.046.354.354,0,0,1,.181.309.41.41,0,0,1-.137.305.485.485,0,0,1-.346.13.5.5,0,0,1-.305-.1.29.29,0,0,1-.128-.241.128.128,0,0,1,.04-.1.148.148,0,0,1,.1-.04.138.138,0,0,1,.1.04.136.136,0,0,1,.039.1.151.151,0,0,1-.006.044.243.243,0,0,1-.016.036.085.085,0,0,1-.024.026l-.026.018a.109.109,0,0,1-.023.009.038.038,0,0,0-.017.006l-.009,0a.4.4,0,0,0,.274.1.2.2,0,0,0,.183-.117.51.51,0,0,0,.037-.223v-.044a.284.284,0,0,0-.141-.281.482.482,0,0,0-.135-.015l-.092,0-.007,0a.081.081,0,0,1,0-.035c0-.026.006-.04.017-.04a.707.707,0,0,0,.128-.011.213.213,0,0,0,.137-.092.412.412,0,0,0,.062-.248v-.017a.192.192,0,0,0-.077-.175.2.2,0,0,0-.1-.031.327.327,0,0,0-.13.025.239.239,0,0,0-.084.05l-.024.027h.006l.018,0a.076.076,0,0,1,.022.011.113.113,0,0,0,.027.016.04.04,0,0,1,.022.024.129.129,0,0,0,.017.033.056.056,0,0,1,.007.044.128.128,0,0,1-.031.086A.123.123,0,0,1,269.389,257.34Z" style="fill: #9cdceb"/>
      </g>
      <path d="M271.41,258.568a.067.067,0,0,1,.044-.062h1.989c.031.017.047.037.047.062a.073.073,0,0,1-.044.06l-.993,0h-.993A.063.063,0,0,1,271.41,258.568Zm0,.606a.062.062,0,0,1,.05-.062h1.986a.082.082,0,0,1,.044.062.07.07,0,0,1-.047.063h-1.989A.07.07,0,0,1,271.41,259.174Z" style="fill: #9cdceb"/>
      <g>
        <path d="M274.832,257.825a.552.552,0,0,1,.477-.253.617.617,0,0,1,.3.082.585.585,0,0,1,.244.287,1.788,1.788,0,0,1,.115.712,1.627,1.627,0,0,1-.134.74.537.537,0,0,1-.172.209.578.578,0,0,1-.19.1.89.89,0,0,1-.159.021.747.747,0,0,1-.163-.018.557.557,0,0,1-.19-.1.568.568,0,0,1-.172-.209,1.64,1.64,0,0,1-.134-.74A1.57,1.57,0,0,1,274.832,257.825Zm.7-.037a.291.291,0,0,0-.221-.1.3.3,0,0,0-.225.1.414.414,0,0,0-.1.225,4.351,4.351,0,0,0-.025.6,5.12,5.12,0,0,0,.025.649.44.44,0,0,0,.112.247.281.281,0,0,0,.216.094.277.277,0,0,0,.212-.094.446.446,0,0,0,.112-.262,6.123,6.123,0,0,0,.025-.634,4.318,4.318,0,0,0-.025-.6A.431.431,0,0,0,275.534,257.788Z" style="fill: #9cdceb"/>
        <path d="M276.337,259.464a.183.183,0,0,1,.053-.131.177.177,0,0,1,.134-.056.191.191,0,0,1,.131.05.177.177,0,0,1,.059.134.189.189,0,0,1-.053.135.177.177,0,0,1-.134.056.182.182,0,0,1-.134-.053A.2.2,0,0,1,276.337,259.464Z" style="fill: #9cdceb"/>
        <path d="M277.261,257.825a.552.552,0,0,1,.478-.253.613.613,0,0,1,.3.082.585.585,0,0,1,.244.287,1.788,1.788,0,0,1,.115.712,1.627,1.627,0,0,1-.134.74.529.529,0,0,1-.172.209.568.568,0,0,1-.19.1.89.89,0,0,1-.159.021.754.754,0,0,1-.163-.018.557.557,0,0,1-.19-.1.568.568,0,0,1-.172-.209,1.64,1.64,0,0,1-.134-.74A1.57,1.57,0,0,1,277.261,257.825Zm.7-.037a.291.291,0,0,0-.221-.1.3.3,0,0,0-.225.1.421.421,0,0,0-.1.225,4.351,4.351,0,0,0-.025.6,5.12,5.12,0,0,0,.025.649.447.447,0,0,0,.112.247.283.283,0,0,0,.216.094.277.277,0,0,0,.212-.094.446.446,0,0,0,.112-.262,6.123,6.123,0,0,0,.025-.634,4.318,4.318,0,0,0-.025-.6A.431.431,0,0,0,277.963,257.788Z" style="fill: #9cdceb"/>
        <path d="M278.822,257.825a.553.553,0,0,1,.478-.253.61.61,0,0,1,.3.082.58.58,0,0,1,.244.287,1.786,1.786,0,0,1,.116.712,1.625,1.625,0,0,1-.135.74.535.535,0,0,1-.171.209.581.581,0,0,1-.191.1.89.89,0,0,1-.159.021.761.761,0,0,1-.163-.018.557.557,0,0,1-.19-.1.568.568,0,0,1-.172-.209,1.64,1.64,0,0,1-.134-.74A1.57,1.57,0,0,1,278.822,257.825Zm.7-.037a.3.3,0,0,0-.447,0,.421.421,0,0,0-.1.225,4.351,4.351,0,0,0-.025.6,5.12,5.12,0,0,0,.025.649.447.447,0,0,0,.112.247.284.284,0,0,0,.216.094.277.277,0,0,0,.212-.094.447.447,0,0,0,.113-.262q.021-.169.025-.634a4.492,4.492,0,0,0-.025-.6A.439.439,0,0,0,279.525,257.788Z" style="fill: #9cdceb"/>
        <path d="M280.748,257.847l-.04.016a.9.9,0,0,1-.125.031,1.47,1.47,0,0,1-.181.022h-.059v-.144h.059a1.018,1.018,0,0,0,.272-.047.719.719,0,0,0,.174-.075.748.748,0,0,0,.088-.068c0-.007.016-.01.037-.01a.088.088,0,0,1,.053.019v.934l0,.936a.124.124,0,0,0,.038.028.291.291,0,0,0,.075.013c.039,0,.1.006.193.006h.082v.144h-.035c-.043-.006-.209-.01-.5-.01s-.447,0-.49.01h-.038v-.144h.2q.05,0,.078,0a.321.321,0,0,0,.05-.009l.025-.007s.008,0,.019-.015.016-.015.018-.013Z" style="fill: #9cdceb"/>
      </g>
    </g>
    <g>
      <path d="M156.985,115.22l.571-6.738h18.325l.572,6.738h-.747q-.118-1.344-.227-2.119a8.094,8.094,0,0,0-.367-1.512,3.337,3.337,0,0,0-.571-1.1,2.809,2.809,0,0,0-.916-.643,4.086,4.086,0,0,0-1.376-.357q-.777-.073-1.949-.074a14.2,14.2,0,0,0-1.714.059.571.571,0,0,0-.454.344,2.662,2.662,0,0,0-.088.8V126.4a2,2,0,0,0,.125.841q.124.242.813.424a9.5,9.5,0,0,0,2.212.183h1.2v.938q-1.23-.09-5.7-.09-4.439,0-5.669.09v-.938h1.2a9.6,9.6,0,0,0,2.219-.183q.7-.181.813-.424a2.116,2.116,0,0,0,.117-.841v-15.78a4.121,4.121,0,0,0-.029-.6.664.664,0,0,0-.161-.329.74.74,0,0,0-.432-.212,12.4,12.4,0,0,0-1.619-.059q-1.172,0-1.955.074a4.107,4.107,0,0,0-1.385.357,2.815,2.815,0,0,0-.915.643,3.318,3.318,0,0,0-.571,1.1,7.632,7.632,0,0,0-.359,1.512q-.1.775-.22,2.119Z" style="fill: #fff"/>
      <path d="M178.547,128.785v-.938a5.553,5.553,0,0,0,1.963-.2q.366-.2.366-1.162v-8.061q0-1.111-.373-1.375a3.88,3.88,0,0,0-1.838-.263v-.938l4.189-.322v10.988q0,.892.322,1.111a4.151,4.151,0,0,0,1.787.22v.938q-3.061-.09-3.12-.09Q181.433,128.7,178.547,128.785Zm1.216-18.487a1.525,1.525,0,0,1,.481-1.091,1.544,1.544,0,0,1,1.142-.491,1.578,1.578,0,0,1,1.131.447,1.626,1.626,0,0,1,0,2.285,1.574,1.574,0,0,1-1.128.447,1.54,1.54,0,0,1-1.167-.483A1.572,1.572,0,0,1,179.763,110.3Z" style="fill: #fff"/>
      <path d="M186.809,128.785v-.938a5.619,5.619,0,0,0,1.975-.2q.369-.2.369-1.162v-8.032q0-1.111-.391-1.389a4.118,4.118,0,0,0-1.953-.278v-.938l4.22-.322v3.147a4.66,4.66,0,0,1,4.448-3.147q3.521,0,4,2.927a5.654,5.654,0,0,1,1.589-2.034,4.185,4.185,0,0,1,2.762-.893,3.837,3.837,0,0,1,3.149,1.112,3.12,3.12,0,0,1,.791,1.58,22.551,22.551,0,0,1,.132,3v5.72a.732.732,0,0,0,.513.768,7.824,7.824,0,0,0,1.831.139v.938q-3.062-.09-3.355-.09-.234,0-3.4.09v-.938a5.627,5.627,0,0,0,1.97-.2q.373-.2.373-1.163v-6.978a5.278,5.278,0,0,0-.468-2.421,1.8,1.8,0,0,0-1.758-.9,3.792,3.792,0,0,0-2.8,1.3,4.85,4.85,0,0,0-1.245,3.5v5.5q0,.966.373,1.163a5.63,5.63,0,0,0,1.971.2v.938q-3.061-.09-3.37-.09-.234,0-3.383.09v-.938a5.627,5.627,0,0,0,1.97-.2q.374-.2.373-1.163v-6.978a5.264,5.264,0,0,0-.469-2.421,1.8,1.8,0,0,0-1.762-.9,3.8,3.8,0,0,0-2.8,1.3,4.843,4.843,0,0,0-1.248,3.5v5.5q0,.966.376,1.163a5.628,5.628,0,0,0,1.968.2v.938q-3.068-.09-3.362-.09Q189.965,128.7,186.809,128.785Z" style="fill: #fff"/>
      <path d="M211.667,122.179a6.956,6.956,0,0,1,1.817-4.835,5.745,5.745,0,0,1,4.424-2.007,4.834,4.834,0,0,1,4.006,1.706,6.424,6.424,0,0,1,1.37,4.154q0,.475-.117.567a1.278,1.278,0,0,1-.63.092h-8.379a8.664,8.664,0,0,0,.908,4.507,3.837,3.837,0,0,0,3.384,2.011,4.008,4.008,0,0,0,.649-.058,7.083,7.083,0,0,0,1.077-.316,3.413,3.413,0,0,0,1.357-.947,4.921,4.921,0,0,0,1-1.777q.084-.425.366-.41.381,0,.381.352a2.349,2.349,0,0,1-.286.855,7.432,7.432,0,0,1-.828,1.294,4.522,4.522,0,0,1-1.589,1.228,5.061,5.061,0,0,1-2.307.526,6.316,6.316,0,0,1-4.622-2A6.74,6.74,0,0,1,211.667,122.179Zm2.52-.982h7.119a8.5,8.5,0,0,0-.11-1.329,11.152,11.152,0,0,0-.425-1.673,3.367,3.367,0,0,0-1.047-1.585,2.831,2.831,0,0,0-2.82-.409,4.709,4.709,0,0,0-1.15.7,3.76,3.76,0,0,0-1.069,1.621A8.2,8.2,0,0,0,214.187,121.2Z" style="fill: #fff"/>
      <path d="M234.9,117.235c-.14-.14-.21-.24-.21-.3a2.419,2.419,0,0,1,.1-.5,1.97,1.97,0,0,1,.136-.4.292.292,0,0,1,.285-.165q.225-.015,1.514-.016h1.591l.57-2.4q.628-2.43.72-2.609a1.361,1.361,0,0,1,1.38-.84,1.158,1.158,0,0,1,.674.27.785.785,0,0,1,.286.63,18.948,18.948,0,0,1-.571,2.549q-.12.512-.284,1.125t-.255.916l-.06.3a6.993,6.993,0,0,0,1.5.06h1.529q.21.212.21.33a1.42,1.42,0,0,1-.39,1.051h-3.21l-1.079,4.349q-1.11,4.471-1.14,4.71a2.486,2.486,0,0,0-.031.451q0,1.258.81,1.26a1.882,1.882,0,0,0,.361-.03,4.323,4.323,0,0,0,2.73-2.4,6.52,6.52,0,0,0,.54-1.11.361.361,0,0,1,.15-.225,1.287,1.287,0,0,1,.449-.045q.6,0,.6.239a1.635,1.635,0,0,1-.12.36,7.017,7.017,0,0,1-1.065,1.935,7.886,7.886,0,0,1-1.484,1.546,3.867,3.867,0,0,1-2.371.84,3.048,3.048,0,0,1-1.844-.556,2.709,2.709,0,0,1-1.035-1.455,3.678,3.678,0,0,1-.061-.81v-.539l1.05-4.2q1.05-4.23,1.08-4.261a7.511,7.511,0,0,0-1.529-.059Z" style="fill: #fff"/>
      <path d="M254.167,118.384q0-.351.63-.337h18.325q.894,0,.908.337t-.761.322h-18.5Q254.166,118.706,254.167,118.384Zm0,5.859q.03-.351.6-.351h18.383q.865,0,.879.322,0,.352-.82.337H254.973Q254.168,124.566,254.167,124.243Z" style="fill: #fff"/>
      <path d="M286.936,119.19a16.65,16.65,0,0,1,1.113-6.812,5.342,5.342,0,0,1,5.215-3.574,6.258,6.258,0,0,1,1.589.213,5.338,5.338,0,0,1,1.846,1.018,5.822,5.822,0,0,1,1.662,2.124,16.8,16.8,0,0,1,1.2,7.031,16.443,16.443,0,0,1-1.113,6.767,5.428,5.428,0,0,1-5.215,3.487,6.012,6.012,0,0,1-2.717-.689,5.19,5.19,0,0,1-2.234-2.343A15.449,15.449,0,0,1,286.936,119.19Zm2.49-.366a41.668,41.668,0,0,0,.322,6.328,4.632,4.632,0,0,0,1.37,2.79,3.113,3.113,0,0,0,4.321-.058,4.685,4.685,0,0,0,1.311-2.849,39.342,39.342,0,0,0,.322-6.211,39.069,39.069,0,0,0-.293-5.845,4.337,4.337,0,0,0-1.443-2.732,3.5,3.5,0,0,0-2.1-.784,3.014,3.014,0,0,0-.813.117,4.937,4.937,0,0,0-1.018.455,2.894,2.894,0,0,0-1.062,1.171,6.758,6.758,0,0,0-.681,2.095A44.423,44.423,0,0,0,289.426,118.824Z" style="fill: #fff933"/>
      <path d="M303.758,128.3a1.618,1.618,0,0,1-.446-1.124,1.538,1.538,0,0,1,.446-1.1,1.576,1.576,0,0,1,2.207-.03,1.678,1.678,0,0,1-.029,2.292,1.486,1.486,0,0,1-1.057.451A1.455,1.455,0,0,1,303.758,128.3Z" style="fill: #fff933"/>
      <path d="M311.618,111.661v-.938a7.366,7.366,0,0,0,5.509-1.919q.48,0,.561.117a1.5,1.5,0,0,1,.083.659V126.4a1.27,1.27,0,0,0,.456,1.171,6.223,6.223,0,0,0,2.451.278h.989v.938q-1.054-.09-4.863-.09t-4.849.09v-.938h.952a5.911,5.911,0,0,0,2.344-.271q.454-.27.454-1.178V110.87A9.327,9.327,0,0,1,311.618,111.661Z" style="fill: #fff933"/>
    </g>
  </g>
</svg>
