<svg xmlns="http://www.w3.org/2000/svg" xmlns:xlink="http://www.w3.org/1999/xlink" width="540" height="320" viewBox="0 0 540 320">
  <defs>
    <clipPath id="a">
      <rect x="284.441" y="249" width="93.016" height="22.68" style="fill: none"/>
    </clipPath>
  </defs>
  <rect x="-170" width="880" height="320"/>
  <path d="M116.2,129.2q.031,0,2.28-.158t2.313-.19q.379,0,.38.253,0,.222-2.313,9.566t-2.375,9.533a1.129,1.129,0,0,0-.032.475q0,1.331.887,1.331a1.379,1.379,0,0,0,.634-.285,7.19,7.19,0,0,0,1.3-3.041q.191-.633.317-.665a.927.927,0,0,1,.317-.032h.253q.476,0,.475.254a2.158,2.158,0,0,1-.095.506,11.338,11.338,0,0,1-.95,2.566,4.716,4.716,0,0,1-.887,1.267,3.5,3.5,0,0,1-.887.507,3.393,3.393,0,0,1-.76.063,3.232,3.232,0,0,1-1.8-.475,2.434,2.434,0,0,1-.951-.982l-.19-.475c-.021-.021-.063-.011-.126.032l-.127.126a5.552,5.552,0,0,1-3.8,1.774,4.321,4.321,0,0,1-3.072-1.267,5.337,5.337,0,0,1-1.33-4.023,8.33,8.33,0,0,1,.633-3.1,11.187,11.187,0,0,1,1.52-2.724,8.958,8.958,0,0,1,2.978-2.5,6.453,6.453,0,0,1,2.692-.7,2.987,2.987,0,0,1,2.661,1.331c.1.126.158.169.158.126l.855-3.452q.824-3.325.887-3.516,0-.411-.222-.507a5.323,5.323,0,0,0-1.235-.158h-.665c-.127-.127-.19-.211-.19-.253s.021-.243.063-.6Q115.948,129.2,116.2,129.2Zm-.444,11.308q-.727-2.5-2.375-2.5a3.042,3.042,0,0,0-2.122.982,6.627,6.627,0,0,0-1.584,2.566,25.274,25.274,0,0,0-1.3,5.194v.349a1.693,1.693,0,0,1-.032.38,2.661,2.661,0,0,0,.57,1.964,2.039,2.039,0,0,0,1.362.57q1.71,0,3.516-2.281l.253-.348Z" style="fill: #58c4dd"/>
  <path d="M125.228,141.679a4.7,4.7,0,0,1,.506-2.059,5.215,5.215,0,0,1,1.774-1.932,5.059,5.059,0,0,1,3.073-.856,4,4,0,0,1,2.85.856,2.713,2.713,0,0,1,.919,1.9,1.887,1.887,0,0,1-.539,1.489,1.921,1.921,0,0,1-1.2.506,1.267,1.267,0,0,1-.761-.253,1.027,1.027,0,0,1-.38-.823,1.437,1.437,0,0,1,.285-.887,2.834,2.834,0,0,1,.539-.57.764.764,0,0,1,.412-.19.028.028,0,0,0,.031-.032c0-.063-.074-.158-.221-.285a2.168,2.168,0,0,0-.792-.349,5.633,5.633,0,0,0-1.235-.19,2.679,2.679,0,0,0-2.946,2.5,1.144,1.144,0,0,0,.6,1.108,6.578,6.578,0,0,0,1.742.539,6.9,6.9,0,0,1,1.647.475,3.13,3.13,0,0,1,2.09,3.04,4.822,4.822,0,0,1-.348,1.774,7.093,7.093,0,0,1-1.045,1.774,4.579,4.579,0,0,1-2,1.393,8.594,8.594,0,0,1-2.977.539,5.122,5.122,0,0,1-3.453-.919,2.931,2.931,0,0,1-1.045-2.153,2.155,2.155,0,0,1,.665-1.774,2.189,2.189,0,0,1,1.394-.539,1.529,1.529,0,0,1,.887.285,1.182,1.182,0,0,1,.443.982,1.9,1.9,0,0,1-.57,1.394,1.559,1.559,0,0,1-.982.57.246.246,0,0,1-.095.032c-.021,0-.032.021-.032.063a.7.7,0,0,0,.254.254,4.466,4.466,0,0,0,.982.411,6.231,6.231,0,0,0,3.706-.126,2.722,2.722,0,0,0,1.2-.887,4.215,4.215,0,0,0,.539-.982,2.406,2.406,0,0,0,.158-.792,1.492,1.492,0,0,0-.665-1.33,3.372,3.372,0,0,0-1.52-.539,7.776,7.776,0,0,1-1.869-.475,2.933,2.933,0,0,1-1.489-1.108A3.189,3.189,0,0,1,125.228,141.679Z" style="fill: #58c4dd"/>
  <path d="M117.912,172.339q.031,0,2.28-.159t2.312-.19c.254,0,.38.085.38.254q0,.22-2.312,9.565t-2.375,9.534a1.112,1.112,0,0,0-.032.475q0,1.331.887,1.33a1.372,1.372,0,0,0,.633-.285,7.168,7.168,0,0,0,1.3-3.041c.127-.422.232-.644.317-.665a.93.93,0,0,1,.316-.031h.254q.476,0,.475.253a2.219,2.219,0,0,1-.095.507,11.357,11.357,0,0,1-.95,2.565,4.7,4.7,0,0,1-.887,1.267,3.5,3.5,0,0,1-.887.507,3.393,3.393,0,0,1-.76.063,3.238,3.238,0,0,1-1.806-.475,2.431,2.431,0,0,1-.95-.982l-.19-.475c-.021-.021-.063-.01-.127.032l-.126.127a5.555,5.555,0,0,1-3.8,1.773,4.32,4.32,0,0,1-3.072-1.267A5.335,5.335,0,0,1,107.364,189a8.309,8.309,0,0,1,.634-3.1,11.15,11.15,0,0,1,1.52-2.724,8.941,8.941,0,0,1,2.977-2.5,6.442,6.442,0,0,1,2.693-.7,2.983,2.983,0,0,1,2.66,1.33c.106.127.159.169.159.127l.855-3.453q.824-3.326.887-3.515,0-.413-.222-.507a5.333,5.333,0,0,0-1.235-.158h-.665c-.127-.127-.191-.212-.191-.254s.022-.243.064-.6C117.605,172.539,117.743,172.339,117.912,172.339Zm-.444,11.307q-.728-2.5-2.375-2.5a3.037,3.037,0,0,0-2.122.982,6.615,6.615,0,0,0-1.584,2.565,25.285,25.285,0,0,0-1.3,5.195v.348a1.7,1.7,0,0,1-.031.38,2.661,2.661,0,0,0,.57,1.964,2.039,2.039,0,0,0,1.362.57q1.71,0,3.515-2.28l.254-.349Z" style="fill: #fff933"/>
  <path d="M123.613,181.777c-.148-.148-.222-.253-.222-.316a2.68,2.68,0,0,1,.095-.507,1.3,1.3,0,0,1,.159-.444.272.272,0,0,1,.285-.158q.22,0,1.615-.032h1.679l.6-2.534q.1-.348.222-.918a6.977,6.977,0,0,1,.222-.824,5.983,5.983,0,0,0,.19-.633,1.166,1.166,0,0,1,.253-.539,2.961,2.961,0,0,0,.317-.38.716.716,0,0,1,.443-.285,2.65,2.65,0,0,1,.571-.063.968.968,0,0,1,.791.348,1.061,1.061,0,0,1,.222.6,12.047,12.047,0,0,1-.285,1.489q-.285,1.266-.633,2.5l-.317,1.172a7.527,7.527,0,0,0,1.584.063h1.615c.148.148.222.264.222.349a1.5,1.5,0,0,1-.412,1.108h-3.389l-1.14,4.593q-1.236,5.067-1.236,5.448,0,1.331.855,1.33a3.026,3.026,0,0,0,2.154-1.077,8.066,8.066,0,0,0,1.679-2.66c.042-.127.1-.2.158-.222a2.821,2.821,0,0,1,.476-.063h.126q.476,0,.475.253a1.526,1.526,0,0,1-.095.38,5.909,5.909,0,0,1-.57,1.2,11.2,11.2,0,0,1-1.077,1.488,5.857,5.857,0,0,1-1.615,1.331,3.88,3.88,0,0,1-1.932.538,3.661,3.661,0,0,1-1.806-.475,2.744,2.744,0,0,1-1.235-1.647,4,4,0,0,1-.063-.855v-.57l1.108-4.435q1.108-4.465,1.141-4.5a7.684,7.684,0,0,0-1.616-.064Z" style="fill: #fff933"/>
  <path d="M139.1,165.275h-37.66v-1.9H139.1Z" style="fill: #fff"/>
  <path d="M145.879,164.325a25.948,25.948,0,0,1,.317-4.149,29.106,29.106,0,0,1,.728-3.389A13.259,13.259,0,0,1,148.1,154q.761-1.362,1.2-2.123a8.441,8.441,0,0,1,1.33-1.647q.887-.886,1.045-1.077a5.837,5.837,0,0,1,.792-.665h.538q.444,0,.444.285a2.569,2.569,0,0,1-.539.666,14.386,14.386,0,0,0-1.3,1.678,21.889,21.889,0,0,0-1.552,2.724,18.016,18.016,0,0,0-1.331,4.371,32.049,32.049,0,0,0-.538,6.113,31.548,31.548,0,0,0,.538,6.081,20.558,20.558,0,0,0,1.3,4.4,14.362,14.362,0,0,0,1.552,2.724q.792,1.046,1.33,1.679a7.208,7.208,0,0,1,.539.665c0,.19-.159.285-.475.285h-.507l-.887-.76a15.629,15.629,0,0,1-4.339-6.715A25.9,25.9,0,0,1,145.879,164.325Z" style="fill: #fff"/>
  <path d="M156.046,160.049c-.148-.148-.222-.253-.222-.317a2.689,2.689,0,0,1,.095-.506,1.3,1.3,0,0,1,.159-.444.272.272,0,0,1,.285-.158q.222,0,1.615-.032h1.679l.6-2.534q.095-.348.221-.918a6.977,6.977,0,0,1,.222-.824,5.983,5.983,0,0,0,.19-.633,1.166,1.166,0,0,1,.253-.539,2.882,2.882,0,0,0,.317-.38.714.714,0,0,1,.444-.285,2.634,2.634,0,0,1,.57-.063.972.972,0,0,1,.792.348,1.066,1.066,0,0,1,.221.6,12.047,12.047,0,0,1-.285,1.489q-.285,1.266-.633,2.5l-.317,1.172a7.527,7.527,0,0,0,1.584.063h1.615c.148.148.222.264.222.349a1.5,1.5,0,0,1-.412,1.108h-3.389l-1.14,4.593q-1.236,5.067-1.236,5.448,0,1.331.856,1.33a3.024,3.024,0,0,0,2.153-1.077,8.066,8.066,0,0,0,1.679-2.66c.042-.127.095-.2.158-.222a2.821,2.821,0,0,1,.476-.063h.126q.476,0,.475.253a1.526,1.526,0,0,1-.095.38,5.909,5.909,0,0,1-.57,1.2,11.2,11.2,0,0,1-1.077,1.488,5.857,5.857,0,0,1-1.615,1.331,3.888,3.888,0,0,1-1.932.538,3.657,3.657,0,0,1-1.805-.475,2.746,2.746,0,0,1-1.236-1.647,4,4,0,0,1-.063-.855v-.57l1.108-4.435q1.11-4.466,1.141-4.5a7.684,7.684,0,0,0-1.616-.064Z" style="fill: #fff"/>
  <path d="M168.557,148.52l.127-.032h.7l.887.76a15.635,15.635,0,0,1,4.339,6.715,25.9,25.9,0,0,1,1.362,8.362,26.453,26.453,0,0,1-.317,4.149,27.27,27.27,0,0,1-.728,3.389,14.263,14.263,0,0,1-1.172,2.788q-.761,1.394-1.2,2.122a9.579,9.579,0,0,1-1.3,1.615q-.855.887-1.014,1.045t-.728.6l-.127.127h-.729a.186.186,0,0,1-.158-.095.743.743,0,0,1-.095-.285c.021-.021.137-.159.348-.412q4.909-5.1,4.91-15.045t-4.91-15.045q-.317-.38-.348-.412A.372.372,0,0,1,168.557,148.52Z" style="fill: #fff"/>
  <path d="M189.55,161.253a.69.69,0,0,1,.444-.634H210.17a.736.736,0,0,1,.475.634.719.719,0,0,1-.444.6l-10.072.031H190.057A.627.627,0,0,1,189.55,161.253Zm0,6.144a.628.628,0,0,1,.507-.633H210.2q.444.316.444.633a.692.692,0,0,1-.475.634H189.994A.69.69,0,0,1,189.55,167.4Z" style="fill: #fff"/>
  <path d="M232.335,140.6a4.693,4.693,0,0,1,.507-2.059,5.212,5.212,0,0,1,1.773-1.932,5.058,5.058,0,0,1,3.073-.855,4,4,0,0,1,2.85.855,2.709,2.709,0,0,1,.919,1.9,1.887,1.887,0,0,1-.539,1.489,1.917,1.917,0,0,1-1.2.507,1.263,1.263,0,0,1-.76-.254,1.021,1.021,0,0,1-.38-.823,1.437,1.437,0,0,1,.285-.887,2.805,2.805,0,0,1,.538-.57.764.764,0,0,1,.412-.19.029.029,0,0,0,.032-.032q0-.095-.222-.285a2.153,2.153,0,0,0-.792-.348,5.573,5.573,0,0,0-1.235-.19,2.679,2.679,0,0,0-2.946,2.5,1.144,1.144,0,0,0,.6,1.108,6.578,6.578,0,0,0,1.742.539,6.952,6.952,0,0,1,1.647.475,3.129,3.129,0,0,1,2.09,3.041,4.821,4.821,0,0,1-.348,1.773,7.093,7.093,0,0,1-1.045,1.774,4.589,4.589,0,0,1-2,1.394,8.613,8.613,0,0,1-2.977.538,5.123,5.123,0,0,1-3.452-.918A2.932,2.932,0,0,1,229.864,147a2.155,2.155,0,0,1,.665-1.774,2.188,2.188,0,0,1,1.394-.538,1.529,1.529,0,0,1,.887.285,1.179,1.179,0,0,1,.443.981,1.9,1.9,0,0,1-.57,1.394,1.559,1.559,0,0,1-.982.57.241.241,0,0,1-.095.032c-.021,0-.031.021-.031.063a.679.679,0,0,0,.253.254,4.466,4.466,0,0,0,.982.411,6.231,6.231,0,0,0,3.706-.126,2.722,2.722,0,0,0,1.2-.887,4.2,4.2,0,0,0,.539-.982,2.406,2.406,0,0,0,.158-.792,1.49,1.49,0,0,0-.665-1.33,3.368,3.368,0,0,0-1.52-.539,7.8,7.8,0,0,1-1.869-.475,2.933,2.933,0,0,1-1.489-1.108A3.189,3.189,0,0,1,232.335,140.6Z" style="fill: #fff"/>
  <path d="M246.018,141.837a26.067,26.067,0,0,1,.316-4.149,29.11,29.11,0,0,1,.729-3.39,13.228,13.228,0,0,1,1.172-2.787q.76-1.362,1.2-2.122a8.392,8.392,0,0,1,1.331-1.647q.887-.887,1.045-1.077a5.7,5.7,0,0,1,.792-.665h.538q.444,0,.444.285a2.574,2.574,0,0,1-.539.665,14.3,14.3,0,0,0-1.3,1.679,21.763,21.763,0,0,0-1.552,2.724,18.016,18.016,0,0,0-1.331,4.371,31.969,31.969,0,0,0-.538,6.113,31.469,31.469,0,0,0,.538,6.081,20.558,20.558,0,0,0,1.3,4.4,14.362,14.362,0,0,0,1.552,2.724q.792,1.046,1.33,1.678a7.119,7.119,0,0,1,.539.666c0,.19-.159.285-.475.285h-.507l-.887-.761a15.626,15.626,0,0,1-4.339-6.714A25.9,25.9,0,0,1,246.018,141.837Z" style="fill: #fff"/>
  <path d="M256.185,137.561c-.148-.148-.222-.253-.222-.317a2.708,2.708,0,0,1,.095-.507,1.3,1.3,0,0,1,.158-.443.273.273,0,0,1,.286-.158q.22,0,1.615-.032H259.8l.6-2.534q.1-.348.222-.918a6.731,6.731,0,0,1,.222-.824,5.983,5.983,0,0,0,.19-.633,1.166,1.166,0,0,1,.253-.539,3.032,3.032,0,0,0,.317-.38.712.712,0,0,1,.443-.285,2.643,2.643,0,0,1,.571-.063.968.968,0,0,1,.791.348,1.061,1.061,0,0,1,.222.6,12.012,12.012,0,0,1-.285,1.488q-.285,1.268-.633,2.5l-.317,1.172a7.527,7.527,0,0,0,1.584.063h1.615q.222.222.222.348a1.5,1.5,0,0,1-.412,1.109h-3.389l-1.14,4.593q-1.236,5.067-1.236,5.447,0,1.331.855,1.331a3.028,3.028,0,0,0,2.154-1.077,8.06,8.06,0,0,0,1.679-2.661c.042-.126.1-.2.158-.221a2.675,2.675,0,0,1,.475-.064h.127q.476,0,.475.254a1.526,1.526,0,0,1-.1.38,5.88,5.88,0,0,1-.57,1.2,11.142,11.142,0,0,1-1.077,1.489,5.853,5.853,0,0,1-1.615,1.33,3.882,3.882,0,0,1-1.932.539,3.671,3.671,0,0,1-1.806-.475,2.744,2.744,0,0,1-1.235-1.647,4.008,4.008,0,0,1-.063-.856v-.57l1.108-4.434q1.109-4.466,1.141-4.5a7.835,7.835,0,0,0-1.616-.063Z" style="fill: #fff"/>
  <path d="M275.607,142.249v-.412a.691.691,0,0,1,.443-.634h9.471v-4.751l.032-4.751q.317-.411.6-.411a.692.692,0,0,1,.634.475V141.2h9.439a.66.66,0,0,1,0,1.267h-9.439v9.439c-.169.3-.359.443-.57.443h-.127a.614.614,0,0,1-.57-.443V142.47H276.05a.691.691,0,0,1-.443-.633Z" style="fill: #fff"/>
  <path d="M317.106,128.122q.032,0,2.28-.158t2.312-.19q.381,0,.381.253,0,.222-2.313,9.566t-2.375,9.533a1.133,1.133,0,0,0-.032.476q0,1.329.887,1.33a1.372,1.372,0,0,0,.633-.285,7.175,7.175,0,0,0,1.3-3.041c.127-.422.232-.644.317-.665a.927.927,0,0,1,.317-.032h.253q.476,0,.475.254a2.213,2.213,0,0,1-.1.506,11.338,11.338,0,0,1-.95,2.566,4.7,4.7,0,0,1-.887,1.267,3.5,3.5,0,0,1-.887.507,3.393,3.393,0,0,1-.76.063,3.232,3.232,0,0,1-1.805-.475,2.434,2.434,0,0,1-.951-.982l-.19-.475c-.021-.021-.063-.011-.126.032l-.127.126a5.552,5.552,0,0,1-3.8,1.774,4.321,4.321,0,0,1-3.072-1.267,5.336,5.336,0,0,1-1.331-4.022,8.324,8.324,0,0,1,.634-3.1,11.15,11.15,0,0,1,1.52-2.724,8.95,8.95,0,0,1,2.978-2.5,6.447,6.447,0,0,1,2.692-.7,2.983,2.983,0,0,1,2.66,1.33c.106.127.159.169.159.127l.855-3.453q.824-3.325.887-3.516,0-.411-.222-.506a5.242,5.242,0,0,0-1.235-.159h-.665c-.127-.126-.19-.211-.19-.253s.021-.243.063-.6Q316.853,128.123,317.106,128.122Zm-.444,11.308q-.727-2.5-2.375-2.5a3.039,3.039,0,0,0-2.122.981,6.627,6.627,0,0,0-1.584,2.566,25.356,25.356,0,0,0-1.3,5.194v.349a1.705,1.705,0,0,1-.031.38,2.661,2.661,0,0,0,.57,1.964,2.039,2.039,0,0,0,1.362.57q1.71,0,3.516-2.281l.253-.348Z" style="fill: #fff933"/>
  <path d="M322.807,137.561c-.148-.148-.222-.253-.222-.317a2.708,2.708,0,0,1,.1-.507,1.291,1.291,0,0,1,.159-.443.271.271,0,0,1,.285-.158q.222,0,1.615-.032h1.679l.6-2.534q.095-.348.221-.918a6.921,6.921,0,0,1,.222-.824,5.983,5.983,0,0,0,.19-.633,1.166,1.166,0,0,1,.253-.539,2.948,2.948,0,0,0,.317-.38.714.714,0,0,1,.444-.285,2.634,2.634,0,0,1,.57-.063.972.972,0,0,1,.792.348,1.066,1.066,0,0,1,.221.6,12.012,12.012,0,0,1-.285,1.488q-.285,1.268-.633,2.5l-.317,1.172a7.527,7.527,0,0,0,1.584.063h1.615q.222.222.222.348a1.5,1.5,0,0,1-.412,1.109h-3.389l-1.14,4.593q-1.236,5.067-1.236,5.447,0,1.331.856,1.331a3.024,3.024,0,0,0,2.153-1.077,8.06,8.06,0,0,0,1.679-2.661c.042-.126.095-.2.158-.221a2.676,2.676,0,0,1,.476-.064h.126q.476,0,.475.254a1.526,1.526,0,0,1-.1.38,5.88,5.88,0,0,1-.57,1.2,11.142,11.142,0,0,1-1.077,1.489,5.853,5.853,0,0,1-1.615,1.33,3.879,3.879,0,0,1-1.932.539,3.668,3.668,0,0,1-1.8-.475,2.746,2.746,0,0,1-1.236-1.647,4.008,4.008,0,0,1-.063-.856v-.57l1.108-4.434q1.11-4.466,1.141-4.5a7.835,7.835,0,0,0-1.616-.063Z" style="fill: #fff933"/>
  <path d="M335.318,126.032l.127-.032h.7l.887.76a15.629,15.629,0,0,1,4.339,6.715,25.9,25.9,0,0,1,1.362,8.362,26.453,26.453,0,0,1-.317,4.149,27.31,27.31,0,0,1-.728,3.389,14.281,14.281,0,0,1-1.172,2.787q-.761,1.393-1.2,2.123a9.618,9.618,0,0,1-1.3,1.615q-.857.887-1.014,1.045t-.728.6c-.064.063-.106.1-.127.127h-.729a.186.186,0,0,1-.158-.095.756.756,0,0,1-.095-.285q.031-.033.348-.412,4.91-5.1,4.91-15.045t-4.91-15.045q-.316-.381-.348-.412A.372.372,0,0,1,335.318,126.032Z" style="fill: #fff"/>
  <path d="M355,142.249v-.412a.689.689,0,0,1,.443-.634h18.4a.66.66,0,0,1,0,1.267h-18.4a.689.689,0,0,1-.443-.633Z" style="fill: #fff"/>
  <path d="M388.61,140.6a4.691,4.691,0,0,1,.506-2.059,5.207,5.207,0,0,1,1.774-1.932,5.057,5.057,0,0,1,3.072-.855,4,4,0,0,1,2.851.855,2.717,2.717,0,0,1,.919,1.9,1.887,1.887,0,0,1-.539,1.489,1.917,1.917,0,0,1-1.2.507,1.268,1.268,0,0,1-.761-.254,1.024,1.024,0,0,1-.38-.823,1.437,1.437,0,0,1,.285-.887,2.806,2.806,0,0,1,.539-.57.764.764,0,0,1,.412-.19.028.028,0,0,0,.031-.032q0-.095-.222-.285a2.138,2.138,0,0,0-.791-.348,5.573,5.573,0,0,0-1.236-.19,2.677,2.677,0,0,0-2.945,2.5,1.143,1.143,0,0,0,.6,1.108,6.566,6.566,0,0,0,1.742.539,6.952,6.952,0,0,1,1.647.475,3.131,3.131,0,0,1,2.09,3.041,4.821,4.821,0,0,1-.348,1.773,7.1,7.1,0,0,1-1.046,1.774,4.579,4.579,0,0,1-2,1.394,8.618,8.618,0,0,1-2.977.538,5.128,5.128,0,0,1-3.453-.918A2.935,2.935,0,0,1,386.139,147a2.155,2.155,0,0,1,.665-1.774,2.188,2.188,0,0,1,1.394-.538,1.529,1.529,0,0,1,.887.285,1.179,1.179,0,0,1,.443.981,1.9,1.9,0,0,1-.57,1.394,1.559,1.559,0,0,1-.982.57.246.246,0,0,1-.1.032c-.021,0-.032.021-.032.063a.684.684,0,0,0,.254.254,4.466,4.466,0,0,0,.982.411,6.228,6.228,0,0,0,3.705-.126,2.726,2.726,0,0,0,1.2-.887,4.233,4.233,0,0,0,.539-.982,2.406,2.406,0,0,0,.158-.792,1.492,1.492,0,0,0-.665-1.33,3.372,3.372,0,0,0-1.521-.539,7.781,7.781,0,0,1-1.868-.475,2.933,2.933,0,0,1-1.489-1.108A3.189,3.189,0,0,1,388.61,140.6Z" style="fill: #fff"/>
  <path d="M402.292,141.837a26.065,26.065,0,0,1,.317-4.149,28.9,28.9,0,0,1,.729-3.39,13.276,13.276,0,0,1,1.171-2.787q.76-1.362,1.2-2.122a8.419,8.419,0,0,1,1.33-1.647q.888-.887,1.046-1.077a5.665,5.665,0,0,1,.791-.665h.539c.3,0,.443.095.443.285a2.556,2.556,0,0,1-.538.665,14.4,14.4,0,0,0-1.3,1.679,21.889,21.889,0,0,0-1.552,2.724,18.02,18.02,0,0,0-1.33,4.371,31.965,31.965,0,0,0-.539,6.113,31.465,31.465,0,0,0,.539,6.081,20.558,20.558,0,0,0,1.3,4.4,14.308,14.308,0,0,0,1.552,2.724q.79,1.046,1.33,1.678a6.979,6.979,0,0,1,.538.666q0,.285-.475.285h-.507l-.886-.761a15.628,15.628,0,0,1-4.34-6.714A25.9,25.9,0,0,1,402.292,141.837Z" style="fill: #fff"/>
  <path d="M412.459,137.561c-.147-.148-.221-.253-.221-.317a2.624,2.624,0,0,1,.1-.507,1.3,1.3,0,0,1,.158-.443.271.271,0,0,1,.285-.158q.222,0,1.616-.032h1.678l.6-2.534q.094-.348.222-.918a6.772,6.772,0,0,1,.221-.824,5.96,5.96,0,0,0,.191-.633,1.156,1.156,0,0,1,.253-.539,3.12,3.12,0,0,0,.317-.38.71.71,0,0,1,.443-.285,2.634,2.634,0,0,1,.57-.063.972.972,0,0,1,.792.348,1.061,1.061,0,0,1,.222.6,12.012,12.012,0,0,1-.285,1.488q-.285,1.268-.634,2.5l-.317,1.172a7.527,7.527,0,0,0,1.584.063h1.616c.147.148.221.264.221.348a1.5,1.5,0,0,1-.412,1.109h-3.389l-1.14,4.593q-1.234,5.067-1.235,5.447,0,1.331.855,1.331a3.028,3.028,0,0,0,2.154-1.077,8.076,8.076,0,0,0,1.679-2.661c.042-.126.095-.2.158-.221a2.659,2.659,0,0,1,.475-.064h.127c.316,0,.475.085.475.254a1.575,1.575,0,0,1-.095.38,5.988,5.988,0,0,1-.57,1.2,11.324,11.324,0,0,1-1.077,1.489,5.858,5.858,0,0,1-1.616,1.33,3.876,3.876,0,0,1-1.932.539,3.671,3.671,0,0,1-1.805-.475,2.744,2.744,0,0,1-1.235-1.647,3.925,3.925,0,0,1-.064-.856v-.57l1.109-4.434q1.108-4.466,1.14-4.5a7.819,7.819,0,0,0-1.615-.063Z" style="fill: #fff"/>
  <path d="M424.971,126.032,425.1,126h.7l.887.76a15.62,15.62,0,0,1,4.339,6.715,25.9,25.9,0,0,1,1.362,8.362,26.455,26.455,0,0,1-.316,4.149,27.113,27.113,0,0,1-.729,3.389,14.22,14.22,0,0,1-1.172,2.787q-.759,1.393-1.2,2.123a9.682,9.682,0,0,1-1.3,1.615q-.855.887-1.013,1.045t-.729.6c-.063.063-.106.1-.127.127h-.728a.189.189,0,0,1-.159-.095.774.774,0,0,1-.095-.285q.033-.033.349-.412,4.91-5.1,4.909-15.045t-4.909-15.045q-.317-.381-.349-.412A.371.371,0,0,1,424.971,126.032Z" style="fill: #fff"/>
  <path d="M329.428,172.339q.032,0,2.28-.159t2.312-.19c.254,0,.38.085.38.254q0,.22-2.312,9.565t-2.375,9.534a1.112,1.112,0,0,0-.032.475q0,1.331.887,1.33a1.372,1.372,0,0,0,.633-.285,7.168,7.168,0,0,0,1.3-3.041c.127-.422.232-.644.317-.665a.93.93,0,0,1,.316-.031h.254c.316,0,.475.084.475.253a2.219,2.219,0,0,1-.1.507,11.357,11.357,0,0,1-.95,2.565,4.7,4.7,0,0,1-.887,1.267,3.519,3.519,0,0,1-.887.507,3.393,3.393,0,0,1-.76.063,3.238,3.238,0,0,1-1.806-.475,2.431,2.431,0,0,1-.95-.982l-.19-.475c-.021-.021-.063-.01-.127.032l-.126.127a5.555,5.555,0,0,1-3.8,1.773,4.318,4.318,0,0,1-3.072-1.267A5.335,5.335,0,0,1,318.88,189a8.309,8.309,0,0,1,.634-3.1,11.15,11.15,0,0,1,1.52-2.724,8.931,8.931,0,0,1,2.977-2.5,6.442,6.442,0,0,1,2.693-.7,2.983,2.983,0,0,1,2.66,1.33c.106.127.159.169.159.127l.855-3.453q.824-3.326.887-3.515,0-.413-.222-.507a5.333,5.333,0,0,0-1.235-.158h-.666c-.126-.127-.19-.212-.19-.254s.022-.243.064-.6C329.121,172.539,329.259,172.339,329.428,172.339Zm-.444,11.307q-.729-2.5-2.375-2.5a3.04,3.04,0,0,0-2.123.982,6.625,6.625,0,0,0-1.583,2.565,25.285,25.285,0,0,0-1.3,5.195v.348a1.63,1.63,0,0,1-.032.38,2.661,2.661,0,0,0,.571,1.964,2.039,2.039,0,0,0,1.362.57q1.71,0,3.515-2.28l.254-.349Z" style="fill: #fff933"/>
  <path d="M335.129,181.777c-.148-.148-.222-.253-.222-.316a2.68,2.68,0,0,1,.1-.507,1.309,1.309,0,0,1,.158-.444.274.274,0,0,1,.286-.158q.221,0,1.615-.032h1.679l.6-2.534q.1-.348.222-.918a6.783,6.783,0,0,1,.222-.824,6.23,6.23,0,0,0,.19-.633,1.166,1.166,0,0,1,.253-.539,2.961,2.961,0,0,0,.317-.38.716.716,0,0,1,.443-.285,2.636,2.636,0,0,1,.571-.063.968.968,0,0,1,.791.348,1.061,1.061,0,0,1,.222.6,12.047,12.047,0,0,1-.285,1.489q-.285,1.266-.633,2.5l-.317,1.172a7.52,7.52,0,0,0,1.583.063h1.616c.148.148.222.264.222.349a1.5,1.5,0,0,1-.412,1.108h-3.389l-1.141,4.593q-1.234,5.067-1.235,5.448,0,1.331.855,1.33a3.028,3.028,0,0,0,2.154-1.077,8.066,8.066,0,0,0,1.679-2.66c.042-.127.095-.2.158-.222a2.82,2.82,0,0,1,.475-.063h.127q.476,0,.475.253a1.575,1.575,0,0,1-.1.38,5.909,5.909,0,0,1-.57,1.2,11.2,11.2,0,0,1-1.077,1.488,5.857,5.857,0,0,1-1.615,1.331,3.88,3.88,0,0,1-1.932.538,3.661,3.661,0,0,1-1.806-.475,2.744,2.744,0,0,1-1.235-1.647,4,4,0,0,1-.063-.855v-.57l1.108-4.435q1.109-4.465,1.14-4.5a7.669,7.669,0,0,0-1.615-.064Z" style="fill: #fff933"/>
  <path d="M438.559,165.275H225.019v-1.9h213.54Z" style="fill: #fff"/>
  <path d="M205.746,32.34a1.206,1.206,0,0,0-.6-.36,11.617,11.617,0,0,0-1.5-.09h-.99V30.51h6.03q5.13.03,5.731.06a5.686,5.686,0,0,1,1.259.15,8.4,8.4,0,0,1,4.92,3.12,11.3,11.3,0,0,1,2.43,5.79q.06.6.061,1.29t-.061,1.29a10.537,10.537,0,0,1-2.549,5.76,8.931,8.931,0,0,1-5.371,2.94q-.39.06-6.42.09h-6.03V49.62h.99a11.617,11.617,0,0,0,1.5-.09,1.206,1.206,0,0,0,.6-.36Zm7.951-.42h-1.261q-.51-.03-.929-.03t-.931.03h-1.23c-.259.02-.42.1-.479.24q-.09.12-.091,8.52,0,8.46.031,8.55a.413.413,0,0,0,.36.33q.238.06,2.849.06a12.252,12.252,0,0,0,3.06-.3,5.965,5.965,0,0,0,2.22-1.17q2.34-1.95,2.34-7.29a17.474,17.474,0,0,0-.21-3.12,6.642,6.642,0,0,0-2.79-4.8A6.312,6.312,0,0,0,213.7,31.92Zm23.509,11.73a.605.605,0,0,1-.21.42h-8.46v.45a7.417,7.417,0,0,0,.6,3.36,3.8,3.8,0,0,0,3.72,2.22,2.8,2.8,0,0,0,2.16-.96,4,4,0,0,0,.931-1.56,1.056,1.056,0,0,1,.179-.42.783.783,0,0,1,.48-.09c.4,0,.6.1.6.3a1.454,1.454,0,0,1-.089.39,5.835,5.835,0,0,1-1.831,2.58,4.677,4.677,0,0,1-3.029.99,6.836,6.836,0,0,1-1.321-.15,6.23,6.23,0,0,1-3.06-1.56,7.2,7.2,0,0,1-.66-9.81,6.077,6.077,0,0,1,3.99-2.22,1.988,1.988,0,0,1,.42-.03,5.191,5.191,0,0,1,4.14,1.62A6.419,6.419,0,0,1,237.206,43.65Zm-2.46-.9q-.27-3.27-2.22-3.96a2.058,2.058,0,0,0-.63-.12,2.985,2.985,0,0,0-2.55,1.44,6.325,6.325,0,0,0-.78,2.67v.21h6.18Zm4.421,6.87h.42q1.17,0,1.409-.42v-.93q.03-.42.03-.93V41.16l-.03-.69a.929.929,0,0,0-.45-.75,3.118,3.118,0,0,0-1.319-.27h-.541v-.69q0-.69.06-.69l.3-.03q.3-.03.84-.06l1.08-.06q.48-.03,1.05-.06l.87-.09q.3-.03.33-.03h.091v2.07a5.307,5.307,0,0,1,1.259-1.5,2.887,2.887,0,0,1,1.83-.54,2.953,2.953,0,0,1,1.441.33,1.864,1.864,0,0,1,1.17,1.71,1.512,1.512,0,0,1-.45,1.11,1.6,1.6,0,0,1-2.161,0,1.465,1.465,0,0,1-.419-1.08,1.4,1.4,0,0,1,.239-.84.5.5,0,0,0,.06-.15c-.04-.04-.269,0-.689.12a3.441,3.441,0,0,0-.72.45,5.589,5.589,0,0,0-1.381,3.78v1.17q-.03,1.17-.03,2.01v1.59c.021.22.03.42.03.6v.6a.537.537,0,0,0,.36.3,6.358,6.358,0,0,0,1.59.15h.931V51H246.1q-.54-.09-3.81-.09a30.876,30.876,0,0,0-3.36.09h-.24V49.62Zm14.6-18.69a1.89,1.89,0,0,1,1.23.54,1.643,1.643,0,0,1,.481,1.26,1.606,1.606,0,0,1-.811,1.53,1.644,1.644,0,0,1-.96.27,1.7,1.7,0,0,1-.99-.27,1.606,1.606,0,0,1-.81-1.53,1.725,1.725,0,0,1,.51-1.32A1.959,1.959,0,0,1,253.764,30.93ZM257.244,51a25.616,25.616,0,0,0-3.12-.09,31.663,31.663,0,0,0-3.27.09h-.239V49.62h.479a10.516,10.516,0,0,0,1.47-.09.643.643,0,0,0,.36-.33q.031-.06.03-4.35a41.947,41.947,0,0,0-.119-4.8c-.161-.4-.75-.6-1.771-.6h-.33v-.69c0-.46.021-.69.06-.69l.3-.03q.3-.03.84-.06l1.08-.06q.51-.03,1.08-.06l.87-.09q.3-.03.33-.03h.09v11.4a.77.77,0,0,0,.36.39,6.064,6.064,0,0,0,1.05.09h.69V51Zm11.08-12.93a8.185,8.185,0,0,0,1.44.06h1.08q1.71,0,2.43-.06h.15v1.38h-.33a2.373,2.373,0,0,0-2.22,1.2q-.059.12-2.039,5.19-1.95,5.07-2.011,5.22-.148.27-.75.27c-.379,0-.62-.09-.72-.27q-4.2-10.83-4.23-10.98a.759.759,0,0,0-.36-.42,1.2,1.2,0,0,0-.39-.15c-.119-.02-.42-.04-.9-.06h-.72V38.07h.179a22.172,22.172,0,0,0,2.91.09,30.509,30.509,0,0,0,3.3-.09h.239v1.38h-.42q-1.17.03-1.26.45,0,.12,1.53,4.08l1.53,3.96q.93-2.37,2.73-7.17v-.24a.937.937,0,0,0-.39-.78,1.392,1.392,0,0,0-.87-.3h-.119V38.07Zm10.33,3.3a1.594,1.594,0,0,1-2.28,0,1.61,1.61,0,0,1-.45-1.14,2.427,2.427,0,0,1,.24-.96,2.687,2.687,0,0,1,1.561-1.26,7.959,7.959,0,0,1,2.849-.45,6.316,6.316,0,0,1,3.42.9,4.178,4.178,0,0,1,1.92,2.34,2.845,2.845,0,0,1,.15.96q.031.51.03,3.42v3.45a1.808,1.808,0,0,0,.18.75.617.617,0,0,0,.6.42.6.6,0,0,0,.571-.42,4.63,4.63,0,0,0,.179-1.65V46.65h1.2v1.17a9.44,9.44,0,0,1-.09,1.41,2.894,2.894,0,0,1-.99,1.41,2.766,2.766,0,0,1-1.709.54,2.035,2.035,0,0,1-1.351-.51,2.779,2.779,0,0,1-.78-1.29v-.12c-.06.06-.179.2-.36.42-.179.2-.31.34-.39.42a5.167,5.167,0,0,1-3.42,1.23,5.8,5.8,0,0,1-2.789-.66,3.378,3.378,0,0,1-1.651-1.74,2.918,2.918,0,0,1-.24-1.14,3.585,3.585,0,0,1,1.171-2.58,5.554,5.554,0,0,1,1.709-1.14,14.68,14.68,0,0,1,5.22-1.11h.42V42.3a4.625,4.625,0,0,0-.179-1.5,2.866,2.866,0,0,0-2.911-2.13q-2.008,0-2.009.24a1.5,1.5,0,0,1,.659,1.32A1.554,1.554,0,0,1,278.654,41.37Zm4.92,4.38q0-1.74-.03-1.74a.327.327,0,0,0-.149.03q-4.111.27-5.25,2.43a2.744,2.744,0,0,0-.331,1.35,2.27,2.27,0,0,0,.721,1.71,2.457,2.457,0,0,0,1.769.69,3.026,3.026,0,0,0,2.04-.72,3.329,3.329,0,0,0,1.14-1.77A16.5,16.5,0,0,0,283.574,45.75ZM293.264,33v-.45h1.2v5.52h4.05v1.38h-4.05v4.32q.03,3.75.03,4.26a3.02,3.02,0,0,0,.21.93,1.51,1.51,0,0,0,1.47,1.17q1.322,0,1.62-2.13.03-.24.03-1.38V45.57h1.2v1.05a9.2,9.2,0,0,1-.15,1.98,4.047,4.047,0,0,1-1.141,1.95,2.859,2.859,0,0,1-2.07.75,3.394,3.394,0,0,1-3.689-3.3q-.032-.21-.03-4.44V39.45h-2.371V38.34h.27a2.762,2.762,0,0,0,1.89-.96A6.634,6.634,0,0,0,293.264,33Zm11.361-2.07a1.887,1.887,0,0,1,1.229.54,1.643,1.643,0,0,1,.481,1.26,1.608,1.608,0,0,1-.81,1.53,1.651,1.651,0,0,1-.961.27,1.7,1.7,0,0,1-.99-.27,1.606,1.606,0,0,1-.81-1.53,1.726,1.726,0,0,1,.511-1.32A1.956,1.956,0,0,1,304.625,30.93ZM308.1,51a25.616,25.616,0,0,0-3.12-.09,31.623,31.623,0,0,0-3.269.09h-.241V49.62h.48a10.526,10.526,0,0,0,1.47-.09.643.643,0,0,0,.36-.33q.032-.06.03-4.35a41.232,41.232,0,0,0-.12-4.8q-.24-.6-1.77-.6h-.33v-.69c0-.46.021-.69.061-.69l.3-.03q.3-.03.84-.06l1.081-.06c.34-.02.7-.04,1.079-.06l.87-.09c.2-.02.31-.03.331-.03h.09v11.4a.769.769,0,0,0,.359.39,6.08,6.08,0,0,0,1.051.09h.689V51Zm11.08-12.93a8.176,8.176,0,0,0,1.44.06H321.7q1.712,0,2.43-.06h.151v1.38h-.331a2.373,2.373,0,0,0-2.22,1.2q-.06.12-2.04,5.19-1.95,5.07-2.009,5.22-.151.27-.75.27c-.381,0-.62-.09-.72-.27q-4.2-10.83-4.231-10.98a.754.754,0,0,0-.359-.42,1.208,1.208,0,0,0-.391-.15c-.12-.02-.419-.04-.9-.06h-.72V38.07h.18a22.184,22.184,0,0,0,2.91.09,30.509,30.509,0,0,0,3.3-.09h.239v1.38h-.42q-1.17.03-1.259.45,0,.12,1.53,4.08l1.53,3.96q.928-2.37,2.729-7.17v-.24a.938.938,0,0,0-.389-.78,1.4,1.4,0,0,0-.87-.3h-.12V38.07Zm18.16,5.58a.607.607,0,0,1-.211.42h-8.46v.45a7.431,7.431,0,0,0,.6,3.36,3.8,3.8,0,0,0,3.72,2.22,2.8,2.8,0,0,0,2.161-.96,4.016,4.016,0,0,0,.929-1.56,1.053,1.053,0,0,1,.18-.42.783.783,0,0,1,.48-.09c.4,0,.6.1.6.3a1.427,1.427,0,0,1-.09.39,5.827,5.827,0,0,1-1.831,2.58,4.676,4.676,0,0,1-3.03.99,6.835,6.835,0,0,1-1.32-.15,6.234,6.234,0,0,1-3.06-1.56,7.072,7.072,0,0,1-2.28-5.16,6.9,6.9,0,0,1,1.62-4.65,6.079,6.079,0,0,1,3.991-2.22,1.976,1.976,0,0,1,.419-.03,5.194,5.194,0,0,1,4.141,1.62A6.428,6.428,0,0,1,337.344,43.65Zm-2.461-.9q-.27-3.27-2.22-3.96a2.05,2.05,0,0,0-.629-.12,2.984,2.984,0,0,0-2.551,1.44,6.311,6.311,0,0,0-.78,2.67v.21h6.18Z" style="fill: #fff"/>
  <path d="M226.677,204c.353,0,.471.163.588.488a5.8,5.8,0,0,1,.236,1.787,12.192,12.192,0,0,0,.471,2.275c1.413,4.713,4.24,6.988,8.48,6.988h85.271c5.418,0,8.834,3.25,10.365,9.75,1.531-6.5,4.829-9.75,9.775-9.75h85.742a13.906,13.906,0,0,0,2.827-.163,7.6,7.6,0,0,0,4.476-3.087,11.64,11.64,0,0,0,2.355-6.338v-.487a.753.753,0,0,1,.118-.488c0-.162.118-.325.118-.487s.118-.325.235-.325c.118-.163.236-.163.471-.163.707,0,.236,6.013-1.413,9.1a9.15,9.15,0,0,1-6.831,5.363H342.334a8.289,8.289,0,0,0-4.475,1.137,6.33,6.33,0,0,0-2.827,2.763,26.709,26.709,0,0,0-1.295,2.762,16.034,16.034,0,0,0-.589,2.275v.65c0,.325-.118.488-.118.813a.75.75,0,0,0-.118.487.943.943,0,0,1-.235.488.986.986,0,0,1-.589.162c-.236,0-.354,0-.471-.162-.118,0-.236-.163-.236-.488a1,1,0,0,1-.118-.65,7.715,7.715,0,0,1-.118-.975c0-.325-.117-.65-.117-.975a13.084,13.084,0,0,0-2.356-5.362,7.216,7.216,0,0,0-4.711-2.925,8.368,8.368,0,0,0-2.238-.163h-84.8a9.412,9.412,0,0,1-2.355-.162,10.535,10.535,0,0,1-5.418-3.9C226.205,211.15,226.205,204,226.677,204Z" style="fill: #fff"/>
  <g style="clip-path: url(#a)">
    <g>
      <path d="M296.035,249.349q.031,0,2.28-.158t2.312-.19q.381,0,.381.253,0,.222-2.313,9.566t-2.375,9.534a1.113,1.113,0,0,0-.032.475q0,1.33.887,1.33a1.372,1.372,0,0,0,.633-.285,7.169,7.169,0,0,0,1.3-3.04c.127-.423.232-.645.317-.666a.937.937,0,0,1,.317-.031h.253q.475,0,.475.253a2.21,2.21,0,0,1-.095.507,11.338,11.338,0,0,1-.95,2.566,4.733,4.733,0,0,1-.887,1.267,3.47,3.47,0,0,1-.887.506,3.322,3.322,0,0,1-.76.064,3.246,3.246,0,0,1-1.806-.475,2.438,2.438,0,0,1-.95-.982l-.19-.475c-.021-.022-.063-.011-.127.031l-.126.127a5.556,5.556,0,0,1-3.8,1.774,4.326,4.326,0,0,1-3.073-1.267,5.338,5.338,0,0,1-1.33-4.023,8.326,8.326,0,0,1,.633-3.1,11.185,11.185,0,0,1,1.521-2.724,8.931,8.931,0,0,1,2.977-2.5,6.442,6.442,0,0,1,2.693-.7,2.983,2.983,0,0,1,2.66,1.33c.106.127.159.169.159.127l.855-3.453q.823-3.325.887-3.516,0-.411-.222-.506a5.251,5.251,0,0,0-1.235-.159h-.665c-.127-.127-.191-.211-.191-.253s.022-.243.064-.6C295.728,249.55,295.866,249.349,296.035,249.349Zm-.444,11.308q-.729-2.5-2.375-2.5a3.039,3.039,0,0,0-2.123.982,6.625,6.625,0,0,0-1.583,2.565,25.221,25.221,0,0,0-1.3,5.195v.348a1.687,1.687,0,0,1-.032.38,2.66,2.66,0,0,0,.57,1.964,2.039,2.039,0,0,0,1.362.57q1.712,0,3.516-2.28l.254-.349Z" style="fill: #fff933"/>
      <path d="M301.735,258.788c-.147-.148-.221-.253-.221-.317a2.605,2.605,0,0,1,.095-.506,1.3,1.3,0,0,1,.158-.444.272.272,0,0,1,.285-.158q.222,0,1.616-.032h1.678l.6-2.534c.064-.232.137-.538.222-.918a6.55,6.55,0,0,1,.222-.824,6.18,6.18,0,0,0,.19-.634,1.167,1.167,0,0,1,.253-.538,3.032,3.032,0,0,0,.317-.38.71.71,0,0,1,.443-.285,2.635,2.635,0,0,1,.57-.064.974.974,0,0,1,.792.349,1.061,1.061,0,0,1,.222.6,12.012,12.012,0,0,1-.285,1.488q-.285,1.268-.634,2.5l-.316,1.172a7.52,7.52,0,0,0,1.583.063h1.616q.222.222.222.348a1.5,1.5,0,0,1-.412,1.109h-3.389l-1.141,4.593q-1.234,5.069-1.235,5.448,0,1.33.855,1.33a3.028,3.028,0,0,0,2.154-1.077,8.056,8.056,0,0,0,1.679-2.66c.042-.127.1-.2.158-.222a2.82,2.82,0,0,1,.475-.063h.127q.475,0,.475.253a1.526,1.526,0,0,1-.095.38,5.909,5.909,0,0,1-.57,1.2,11.137,11.137,0,0,1-1.077,1.488,5.857,5.857,0,0,1-1.615,1.331,3.88,3.88,0,0,1-1.932.538,3.661,3.661,0,0,1-1.806-.475,2.744,2.744,0,0,1-1.235-1.647,3.986,3.986,0,0,1-.064-.855v-.57l1.109-4.435q1.108-4.465,1.14-4.5a7.819,7.819,0,0,0-1.615-.063Z" style="fill: #fff933"/>
      <path d="M322.92,263.476v-.412a.69.69,0,0,1,.444-.633H347.6a11.365,11.365,0,0,1-4.529-7.064v-.095a.13.13,0,0,0-.032-.095q0-.379.538-.38h.095a1.464,1.464,0,0,1,.381.032.506.506,0,0,1,.19.126.392.392,0,0,1,.1.286,1.844,1.844,0,0,0,.095.506q.094.316.253.792a9.876,9.876,0,0,0,2.312,3.8,9.028,9.028,0,0,0,3.77,2.376.354.354,0,0,1,.285.348.31.31,0,0,1-.159.285,5.733,5.733,0,0,1-.76.317,6.414,6.414,0,0,0-1.2.6,10.406,10.406,0,0,0-2.248,1.9,8.69,8.69,0,0,0-1.426,2.123q-.475,1.044-.665,1.583a5.16,5.16,0,0,0-.253.982c-.043.211-.1.338-.159.38a1.346,1.346,0,0,1-.507.1q-.633,0-.633-.348a3.587,3.587,0,0,1,.158-.792,11.335,11.335,0,0,1,4.4-6.493H323.364a.69.69,0,0,1-.444-.634Z" style="fill: #fff"/>
      <path d="M364.661,252.453a5.59,5.59,0,0,1,4.847-2.565,6.338,6.338,0,0,1,3.041.823,5.944,5.944,0,0,1,2.47,2.914,18.125,18.125,0,0,1,1.172,7.222,16.535,16.535,0,0,1-1.362,7.507,5.4,5.4,0,0,1-1.742,2.122,5.718,5.718,0,0,1-1.932.982,8.7,8.7,0,0,1-1.616.222,7.286,7.286,0,0,1-1.647-.19,5.529,5.529,0,0,1-1.932-1.014,5.714,5.714,0,0,1-1.742-2.122,16.535,16.535,0,0,1-1.362-7.507Q362.856,255.336,364.661,252.453Zm7.127-.38a2.984,2.984,0,0,0-2.249-1.013,3.018,3.018,0,0,0-2.28,1.013,4.243,4.243,0,0,0-1.045,2.281,44.875,44.875,0,0,0-.254,6.081,52.733,52.733,0,0,0,.254,6.589,4.519,4.519,0,0,0,1.14,2.5,2.869,2.869,0,0,0,2.185.95,2.834,2.834,0,0,0,2.154-.95,4.547,4.547,0,0,0,1.141-2.661,63.773,63.773,0,0,0,.253-6.43,44.577,44.577,0,0,0-.253-6.049A4.434,4.434,0,0,0,371.788,252.073Z" style="fill: #fff"/>
    </g>
  </g>
</svg>
