<?xml version="1.0" encoding="utf-8"?>
<!-- Generator: Adobe Illustrator 25.2.3, SVG Export Plug-In . SVG Version: 6.00 Build 0)  -->
<svg version="1.1" id="Layer_1" xmlns="http://www.w3.org/2000/svg" xmlns:xlink="http://www.w3.org/1999/xlink" x="0px" y="0px"
	 viewBox="0 0 1920 1080" style="enable-background:new 0 0 1920 1080;" xml:space="preserve">
<style type="text/css">
	.st0{fill:#15E3FF;}
	.st1{fill:#FFFFFF;}
	.st2{fill:#FFF800;stroke:#000000;stroke-miterlimit:10;}
	.st3{fill:#FF1A1A;stroke:#000000;stroke-miterlimit:10;}
	.st4{fill:#FFFFFF;stroke:#000000;stroke-miterlimit:10;}
</style>
<g id="Layer_3">
	<g>
		<rect x="0.7" y="0.5" width="1919" height="1079"/>
		<path d="M1919.2,1v1078H1.2V1H1919.2 M1920.2,0H0.2v1080h1920V0L1920.2,0z"/>
	</g>
	<g>
		<rect x="1098.2" y="526" class="st0" width="1.4" height="35"/>
	</g>
	<g>
		<rect x="1232.4" y="526" class="st0" width="2.8" height="35"/>
	</g>
	<g>
		<rect x="1368" y="526" class="st0" width="1.4" height="35"/>
	</g>
	<g>
		<rect x="1502.2" y="526" class="st0" width="2.8" height="35"/>
	</g>
	<g>
		<rect x="1630.9" y="526" class="st0" width="1.4" height="35"/>
	</g>
	<g>
		<rect x="1765.1" y="526" class="st0" width="2.8" height="35"/>
	</g>
	<g>
		<rect x="1904.8" y="526" class="st0" width="1.4" height="35"/>
	</g>
	<g>
		<rect x="817.8" y="526" class="st0" width="1.4" height="35"/>
	</g>
	<g>
		<rect x="683" y="526" class="st0" width="2.8" height="35"/>
	</g>
	<g>
		<rect x="549.6" y="526" class="st0" width="1.4" height="35"/>
	</g>
	<g>
		<rect x="414.7" y="526" class="st0" width="2.8" height="35"/>
	</g>
	<g>
		<rect x="288.2" y="526" class="st0" width="1.4" height="35"/>
	</g>
	<g>
		<rect x="153.3" y="526" class="st0" width="2.8" height="35"/>
	</g>
	<g>
		<rect x="15.8" y="526" class="st0" width="1.4" height="35"/>
	</g>
	<g>
		<rect x="945" y="684.8" class="st0" width="31" height="1.4"/>
	</g>
	<g>
		<rect x="945" y="819" class="st0" width="31" height="2.8"/>
	</g>
	<g>
		<rect x="945" y="954.6" class="st0" width="31" height="1.4"/>
	</g>
	<g>
		<rect x="945" y="404.4" class="st0" width="31" height="1.4"/>
	</g>
	<g>
		<rect x="945" y="269.6" class="st0" width="31" height="2.8"/>
	</g>
	<g>
		<rect x="945" y="136.1" class="st0" width="31" height="1.4"/>
	</g>
	<g>
		<rect x="959.2" y="0" class="st1" width="3" height="1080"/>
	</g>
	<g>
		<rect x="0.2" y="541.8" class="st1" width="1920" height="4.1"/>
	</g>
</g>
<rect x="1024.4" y="276.2" transform="matrix(0.8821 0.4711 -0.4711 0.8821 318.9445 -434.6125)" class="st2" width="6.4" height="287.2"/>
<rect x="1143.2" y="402.8" transform="matrix(-0.2643 0.9644 -0.9644 -0.2643 2023.6466 -352.7471)" class="st3" width="6.4" height="385.3"/>
<polygon class="st3" points="1361.8,654.5 1334.6,627 1324.3,664.3 "/>
<polygon class="st2" points="1110.3,266.4 1077.9,287.5 1112.4,305 "/>
<g>
	<path class="st1" d="M1189.4,156.5v-1.8c4.6,0,8-1.2,10.4-3.6c0.6,0,1,0.1,1.1,0.2c0.1,0.1,0.2,0.6,0.2,1.2v31.8
		c0,1.1,0.3,1.9,0.9,2.2c0.6,0.4,2.1,0.5,4.6,0.5h1.9v1.8c-1.3-0.1-4.4-0.2-9.2-0.2c-4.8,0-7.9,0.1-9.2,0.2v-1.8h1.8
		c2.4,0,3.9-0.2,4.4-0.5c0.6-0.3,0.9-1.1,0.9-2.2V155C1195.1,156,1192.5,156.5,1189.4,156.5z"/>
</g>
<g>
	<path class="st1" d="M1187.5,260.9c0-0.7,0-1.1,0.1-1.3c0.1-0.2,0.2-0.5,0.5-0.8l10.8-12.1c4-4.5,6-8.7,6-12.6c0-2.5-0.7-4.7-2-6.5
		c-1.3-1.8-3.2-2.7-5.6-2.7c-1.6,0-3.2,0.5-4.6,1.5c-1.4,1-2.4,2.4-3,4.2c0.1,0,0.4-0.1,0.7-0.1c0.9,0,1.6,0.3,2.2,0.9
		c0.5,0.6,0.8,1.3,0.8,2.1c0,1-0.3,1.8-1,2.3c-0.6,0.5-1.3,0.7-1.9,0.7c-0.3,0-0.5,0-0.9-0.1c-0.3-0.1-0.8-0.3-1.3-0.9
		c-0.5-0.5-0.8-1.3-0.8-2.2c0-2.6,1-5,3-7.1s4.5-3.1,7.5-3.1c3.4,0,6.3,1,8.5,3.1c2.3,2.1,3.4,4.7,3.4,7.9c0,1.1-0.2,2.2-0.5,3.2
		c-0.3,1-0.7,1.9-1.2,2.7c-0.4,0.8-1.3,1.8-2.5,3.1c-1.2,1.3-2.3,2.4-3.3,3.3s-2.5,2.3-4.7,4.2l-6,5.8h10.1c3.3,0,5.1-0.1,5.3-0.4
		c0.4-0.5,0.8-2.2,1.2-5h1.4l-1.6,9.9H1187.5z"/>
</g>
<g>
	<path class="st4" d="M1158.3,279.1V131h18.5v3.3h-10.4v141.6h10.4v3.3H1158.3z"/>
</g>
<g>
	<path class="st4" d="M1218.3,275.9h10.4V134.3h-10.4V131h18.5v148.1h-18.5V275.9z"/>
</g>
<g>
	<g>
		<path class="st1" d="M1420.5,749c0-1.1,0.3-2,0.8-2.5c0.5-0.5,1.2-0.8,1.8-0.8c0.9,0,1.6,0.3,2.3,0.9s0.9,1.3,0.9,2.3
			c0,1.1-0.4,1.9-1.1,2.5c-0.7,0.6-1.6,0.8-2.7,0.7c0.9,1.5,2.2,2.6,3.9,3.3c1.7,0.7,3.3,1,4.9,1c1.6,0,3.1-0.7,4.4-2.1
			c1.3-1.4,2-3.8,2-7.3c0-2.9-0.6-5.2-1.7-6.9c-1.1-1.7-2.8-2.5-5.1-2.5h-2.5c-0.6,0-1.1,0-1.2-0.1c-0.2-0.1-0.3-0.2-0.3-0.5
			c0-0.4,0.3-0.6,1-0.6c0.6,0,1.3-0.1,2.2-0.2c2.2-0.1,3.9-1.1,5.1-3c1.1-1.8,1.6-4,1.6-6.5c0-2.3-0.6-3.9-1.7-4.9
			c-1.1-1-2.4-1.4-3.8-1.4c-1.3,0-2.7,0.3-4.2,0.8c-1.5,0.5-2.6,1.4-3.4,2.6c2.4,0,3.5,1,3.5,2.9c0,0.8-0.3,1.5-0.8,2.1
			s-1.2,0.8-2.1,0.8c-0.8,0-1.5-0.3-2.1-0.8c-0.6-0.5-0.8-1.3-0.8-2.2c0-2.1,1-4,2.9-5.4s4.3-2.2,7.2-2.2c2.8,0,5.2,0.7,7.2,2.2
			c2,1.5,3.1,3.3,3.1,5.6c0,2.3-0.7,4.3-2.2,6.1c-1.4,1.8-3.3,3.1-5.6,3.9c2.9,0.6,5.2,1.8,6.9,3.8s2.6,4.1,2.6,6.4
			c0,3-1.2,5.5-3.5,7.7c-2.3,2.2-5.2,3.3-8.6,3.3c-3,0-5.6-0.9-7.7-2.6C1421.6,753.6,1420.5,751.5,1420.5,749z"/>
	</g>
</g>
<g>
	<g>
		<path class="st1" d="M1401.8,814.3v-1.9h28.3v1.9H1401.8z"/>
		<path class="st1" d="M1434.9,796.4v-1.8c4.6,0,8-1.2,10.4-3.6c0.6,0,1,0.1,1.1,0.2c0.1,0.1,0.2,0.6,0.2,1.2v31.8
			c0,1.1,0.3,1.9,0.9,2.2s2.1,0.5,4.6,0.5h1.9v1.8c-1.3-0.1-4.4-0.2-9.2-0.2c-4.8,0-7.9,0.1-9.2,0.2V827h1.8c2.4,0,3.9-0.2,4.4-0.5
			c0.6-0.3,0.9-1.1,0.9-2.2v-29.3C1440.6,795.9,1438,796.4,1434.9,796.4z"/>
	</g>
</g>
<g>
	<g>
		<path class="st1" d="M1380.7,846.8V698.8h18.5v3.3h-10.4v141.6h10.4v3.3H1380.7z"/>
	</g>
</g>
<g>
	<g>
		<path class="st1" d="M1460.8,843.6h10.4V702.1h-10.4v-3.3h18.5v148.1h-18.5V843.6z"/>
	</g>
</g>
</svg>
