<?xml version="1.0" encoding="utf-8"?>
<!-- Generator: Adobe Illustrator 25.2.3, SVG Export Plug-In . SVG Version: 6.00 Build 0)  -->
<svg version="1.1" id="Layer_1" xmlns="http://www.w3.org/2000/svg" xmlns:xlink="http://www.w3.org/1999/xlink" x="0px" y="0px"
	 viewBox="0 0 1920 1080" style="enable-background:new 0 0 1920 1080;" xml:space="preserve">
<style type="text/css">
	.st0{opacity:0.6;}
	.st1{fill:#005454;}
	.st2{opacity:0.44;}
	.st3{fill:#15E3FF;}
	.st4{opacity:0.49;}
	.st5{opacity:0.54;}
	.st6{fill:#FFFFFF;}
	.st7{fill:#FFF800;stroke:#000000;stroke-miterlimit:10;}
	.st8{fill:#FF5F5F;}
	.st9{fill:#8CFF61;}
</style>
<rect width="1919" height="1079"/>
<g id="grid" class="st0">
	<g>
		<rect x="0.5" y="0.5" width="1919" height="1079"/>
		<path d="M1919,1v1078H1V1H1919 M1920,0H0v1080h1920V0L1920,0z"/>
	</g>
	<g>
		<rect x="1.3" y="68.9" class="st1" width="1915.9" height="1.4"/>
	</g>
	<g>
		<rect x="1.3" y="201.9" class="st1" width="1915.9" height="1.4"/>
	</g>
	<g>
		<rect x="3.1" y="338.9" class="st1" width="1915.9" height="1.4"/>
	</g>
	<g>
		<rect x="2.2" y="475.9" class="st1" width="1915.9" height="1.4"/>
	</g>
	<g>
		<rect y="614.9" class="st1" width="1915.9" height="1.4"/>
	</g>
	<g>
		<rect y="750.9" class="st1" width="1915.9" height="1.4"/>
	</g>
	<g>
		<rect x="1.8" y="886.9" class="st1" width="1915.9" height="1.4"/>
	</g>
	<g>
		<rect x="0.9" y="1021.9" class="st1" width="1915.9" height="1.4"/>
	</g>
	<g>
		<rect x="84" y="-0.2" class="st1" width="1.4" height="1080"/>
	</g>
	<g>
		<rect x="220" y="-0.2" class="st1" width="1.4" height="1080"/>
	</g>
	<g>
		<rect x="351" y="-1.2" class="st1" width="1.4" height="1080"/>
	</g>
	<g>
		<rect x="483" y="-0.7" class="st1" width="1.4" height="1080"/>
	</g>
	<g>
		<rect x="616" y="-0.7" class="st1" width="1.4" height="1080"/>
	</g>
	<g>
		<rect x="753" y="-1.7" class="st1" width="1.4" height="1080"/>
	</g>
	<g>
		<rect x="890" y="-1.2" class="st1" width="1.4" height="1080"/>
	</g>
	<g>
		<rect x="1029" y="0.1" class="st1" width="1.4" height="1080"/>
	</g>
	<g>
		<rect x="1165" y="0.1" class="st1" width="1.4" height="1080"/>
	</g>
	<g>
		<rect x="1301" y="-0.9" class="st1" width="1.4" height="1080"/>
	</g>
	<g>
		<rect x="1436" y="-0.4" class="st1" width="1.4" height="1080"/>
	</g>
	<g>
		<rect x="1572" y="-0.4" class="st1" width="1.4" height="1080"/>
	</g>
	<g>
		<rect x="1698" y="-1.4" class="st1" width="1.4" height="1080"/>
	</g>
	<g>
		<rect x="1835" y="-0.9" class="st1" width="1.4" height="1080"/>
	</g>
	<g class="st2">
		<rect x="1098" class="st3" width="1.4" height="1080"/>
	</g>
	<g class="st2">
		<rect x="1232.2" class="st3" width="2.8" height="1080"/>
	</g>
	<g class="st2">
		<rect x="1367.8" class="st3" width="1.4" height="1080"/>
	</g>
	<g class="st2">
		<rect x="1502" class="st3" width="2.8" height="1080"/>
	</g>
	<g class="st2">
		<rect x="1630.7" y="1" class="st3" width="1.4" height="1080"/>
	</g>
	<g class="st2">
		<rect x="1764.9" y="1" class="st3" width="2.8" height="1080"/>
	</g>
	<g class="st2">
		<rect x="1904.6" class="st3" width="1.4" height="1080"/>
	</g>
	<g class="st2">
		<rect x="817.6" y="0.6" class="st3" width="1.4" height="1080"/>
	</g>
	<g class="st2">
		<rect x="682.8" y="0.6" class="st3" width="2.8" height="1080"/>
	</g>
	<g class="st2">
		<rect x="549.3" y="0.6" class="st3" width="1.4" height="1080"/>
	</g>
	<g class="st2">
		<rect x="414.5" y="0.6" class="st3" width="2.8" height="1080"/>
	</g>
	<g class="st2">
		<rect x="288" y="-0.4" class="st3" width="1.4" height="1080"/>
	</g>
	<g class="st2">
		<rect x="153.1" y="-0.4" class="st3" width="2.8" height="1080"/>
	</g>
	<g class="st2">
		<rect x="15.6" y="0.6" class="st3" width="1.4" height="1080"/>
	</g>
	<g class="st4">
		<rect x="1" y="684.8" class="st3" width="1919" height="1.4"/>
	</g>
	<g class="st4">
		<rect x="1" y="819" class="st3" width="1919" height="2.8"/>
	</g>
	<g class="st4">
		<rect x="1" y="954.6" class="st3" width="1919" height="1.4"/>
	</g>
	<g class="st4">
		<rect y="404.4" class="st3" width="1919" height="1.4"/>
	</g>
	<g class="st4">
		<rect y="269.6" class="st3" width="1919" height="2.8"/>
	</g>
	<g class="st4">
		<rect y="136.1" class="st3" width="1919" height="1.4"/>
	</g>
	<g class="st5">
		<rect x="959" class="st6" width="3" height="1080"/>
	</g>
	<g class="st5">
		<rect y="541.9" class="st6" width="1920" height="4.1"/>
	</g>
</g>
<rect x="1014.2" y="487.6" transform="matrix(4.804556e-03 1 -1 4.804556e-03 1556.1415 -476.4761)" class="st7" width="6.4" height="112"/>
<polygon class="st7" points="1099.3,542.2 1065.4,523.7 1066.3,562.4 "/>
<rect x="958.9" y="436.3" transform="matrix(1 1.284633e-03 -1.284633e-03 1 0.6331 -1.2355)" class="st7" width="6.4" height="111.8"/>
<polygon class="st7" points="961.4,406.5 942.7,440.4 981.3,439.6 "/>
<g>
	<path class="st8" d="M893.2,435c0-1.4,0.4-2.4,1.3-3.1c0.8-0.7,1.7-1.1,2.6-1.1c0.9,0,1.6,0.3,2.1,0.8c0.4,0.5,0.7,1.1,0.7,1.7
		c0,0.3-0.1,0.6-0.2,1c-0.1,0.4-0.4,0.9-0.9,1.5c-0.5,0.6-1.1,1-1.9,1.3c0.9,0.5,1.8,0.7,2.6,0.7c2.2,0,4.1-1.1,5.7-3.2
		c1.6-2.1,2.7-4.5,3.3-7.1l7.4-29.9c0.3-1.5,0.5-2.8,0.5-4c0-2.1-0.7-3.1-2.2-3.1c-3.5,0-6.6,3.3-9.2,9.8c-0.1,0.5-0.3,0.8-0.4,0.9
		c-0.1,0.2-0.2,0.3-0.4,0.3c-0.1,0.1-0.4,0.1-0.7,0.1c-0.8,0-1.2-0.3-1.2-0.8c0-0.2,0.2-0.6,0.5-1.4c0.3-0.8,0.8-1.8,1.5-3
		c0.7-1.2,1.5-2.4,2.4-3.5c0.9-1.1,2-2.1,3.4-2.9c1.3-0.8,2.7-1.2,4.2-1.2c2.1,0,3.8,0.7,5,2.1s1.8,3,1.8,5c0,0.9-0.2,1.8-0.5,2.6
		l-7.3,29.4c-0.8,3.3-2.6,6.1-5.3,8.4c-2.7,2.3-5.6,3.4-8.6,3.4c-1.8,0-3.3-0.4-4.5-1.2S893.2,436.4,893.2,435z M917.4,375.8
		c0-0.9,0.4-1.8,1.2-2.6c0.8-0.8,1.7-1.2,2.7-1.2c0.6,0,1.3,0.2,1.8,0.6c0.6,0.4,0.9,1.1,0.9,2.1c0,0.9-0.4,1.8-1.2,2.5
		c-0.8,0.8-1.7,1.1-2.6,1.1c-0.9,0-1.6-0.3-2-0.8S917.4,376.4,917.4,375.8z"/>
</g>
<g>
	<path class="st9" d="M1121.7,482.5c0-0.2,0.1-0.6,0.3-1.4c0.2-0.8,0.6-1.8,1.1-3c0.5-1.2,1.2-2.4,1.9-3.5c0.7-1.1,1.7-2.1,2.9-2.9
		c1.2-0.8,2.5-1.2,3.8-1.2c1.6,0,3,0.5,4.2,1.6c1.2,1.1,1.8,2.6,1.8,4.7c0,1.1-0.4,2.5-1.1,4.3l-5,13.5c-1.3,3.9-2,6.4-2,7.6
		c0,1.5,0.6,2.2,1.7,2.2c3.1,0,5.5-3.3,7.3-9.8c0.2-0.6,0.3-1,0.4-1.1c0.1-0.1,0.4-0.2,0.9-0.2c0.8,0,1.2,0.3,1.2,0.8
		c0,0.2-0.1,0.6-0.3,1.4c-0.2,0.8-0.6,1.8-1.1,3s-1.1,2.4-1.9,3.6c-0.7,1.1-1.7,2.1-2.9,3c-1.2,0.8-2.5,1.2-3.8,1.2
		c-1.9,0-3.4-0.6-4.4-1.9c-1-1.3-1.5-2.7-1.5-4.4c0-1.1,0.5-2.9,1.4-5.5c1.3-3.4,2.2-6,2.9-7.7l2.3-6.5c0.9-2.6,1.4-4.4,1.4-5.7
		c0-1.5-0.6-2.2-1.7-2.2c-3.1,0-5.5,3.3-7.3,9.9c-0.2,0.6-0.3,0.9-0.5,1.1s-0.5,0.2-0.9,0.2C1122.1,483.3,1121.7,483,1121.7,482.5z
		 M1134.3,457.4c0-1,0.4-1.9,1.2-2.7c0.8-0.7,1.7-1.1,2.6-1.1c0.7,0,1.3,0.2,1.9,0.6s0.8,1.1,0.8,2c0,1-0.4,1.9-1.3,2.7
		c-0.8,0.7-1.7,1.1-2.6,1.1c-0.7,0-1.3-0.2-1.9-0.6C1134.6,458.9,1134.3,458.3,1134.3,457.4z"/>
</g>
<g>
	<path class="st9" d="M1120.7,446l14.7-11.3l14.8,11.3l-1.2,1.6l-13.6-8.8l-13.5,8.8L1120.7,446z"/>
</g>
<g>
	<g>
		<path class="st8" d="M903.3,364.4l14.7-11.3l14.8,11.3l-1.2,1.6l-13.6-8.8l-13.5,8.8L903.3,364.4z"/>
	</g>
</g>
</svg>
