<?xml version="1.0" encoding="utf-8"?>
<!-- Generator: Adobe Illustrator 25.2.3, SVG Export Plug-In . SVG Version: 6.00 Build 0)  -->
<svg version="1.1" id="Layer_1" xmlns="http://www.w3.org/2000/svg" xmlns:xlink="http://www.w3.org/1999/xlink" x="0px" y="0px"
	 viewBox="0 0 2176.6 1080" style="enable-background:new 0 0 2176.6 1080;" xml:space="preserve">
<style type="text/css">
	.st0{clip-path:url(#SVGID_2_);}
	.st1{clip-path:url(#SVGID_2_);fill:#002A2A;}
	.st2{clip-path:url(#SVGID_2_);fill:#7FA9A9;}
	.st3{clip-path:url(#SVGID_2_);fill:#003F3F;}
	.st4{clip-path:url(#SVGID_2_);fill:#0B7280;}
	.st5{clip-path:url(#SVGID_2_);fill:#0B8795;}
	.st6{clip-path:url(#SVGID_2_);fill:#8AF1FF;}
	.st7{clip-path:url(#SVGID_2_);fill:#10ABC0;}
	.st8{clip-path:url(#SVGID_2_);fill:#808080;}
	.st9{clip-path:url(#SVGID_2_);fill:#809595;}
	.st10{clip-path:url(#SVGID_2_);fill:#85B9C0;}
	.st11{clip-path:url(#SVGID_2_);fill:#C0C0C0;}
	.st12{clip-path:url(#SVGID_2_);fill:#15E3FF;}
	.st13{clip-path:url(#SVGID_2_);fill:#FFFFFF;}
	.st14{clip-path:url(#SVGID_2_);fill:#FFFCBF;}
	.st15{clip-path:url(#SVGID_2_);fill:#403D00;}
	.st16{clip-path:url(#SVGID_2_);fill:#405C1F;}
	.st17{clip-path:url(#SVGID_2_);fill:#9FBB7E;}
	.st18{clip-path:url(#SVGID_2_);fill:#406C2F;}
	.st19{clip-path:url(#SVGID_2_);fill:#489260;}
	.st20{clip-path:url(#SVGID_2_);fill:#48A270;}
	.st21{clip-path:url(#SVGID_2_);fill:#4CBD90;}
	.st22{clip-path:url(#SVGID_2_);fill:#A09D60;}
	.st23{clip-path:url(#SVGID_2_);fill:#A0AC70;}
	.st24{clip-path:url(#SVGID_2_);fill:#50E7BF;}
	.st25{clip-path:url(#SVGID_2_);fill:#A4C790;}
	.st26{clip-path:url(#SVGID_2_);fill:none;stroke:#FFF200;stroke-width:3;stroke-miterlimit:10;}
	.st27{clip-path:url(#SVGID_2_);fill:#FF5F5F;}
	.st28{clip-path:url(#SVGID_2_);fill:none;stroke:#000000;stroke-miterlimit:10;}
	.st29{clip-path:url(#SVGID_2_);fill:#8CFF61;}
	.st30{clip-path:url(#SVGID_4_);}
	.st31{clip-path:url(#SVGID_4_);fill:#005454;}
	.st32{clip-path:url(#SVGID_4_);fill:#15E3FF;}
	.st33{clip-path:url(#SVGID_4_);fill:#FFFFFF;}
	.st34{clip-path:url(#SVGID_4_);fill:#403D00;}
	.st35{clip-path:url(#SVGID_4_);fill:#407C3F;}
	.st36{clip-path:url(#SVGID_4_);fill:#50E7BF;}
	.st37{clip-path:url(#SVGID_4_);fill:#FFFCBF;}
	.st38{clip-path:url(#SVGID_4_);fill:none;stroke:#FFF200;stroke-width:3;stroke-miterlimit:10;}
	.st39{clip-path:url(#SVGID_4_);fill:#FF5F5F;}
	.st40{clip-path:url(#SVGID_4_);fill:none;stroke:#000000;stroke-miterlimit:10;}
	.st41{clip-path:url(#SVGID_4_);fill:#8CFF61;}
	.st42{fill:#FFF800;}
	.st43{fill:none;stroke:#000000;stroke-miterlimit:10;}
</style>
<g>
	<g>
		<defs>
			<polyline id="SVGID_1_" points="2191.4,1090.7 1071,1090.7 1071,-3.3 2191.4,-3.3 2191.4,1090.7 			"/>
		</defs>
		<clipPath id="SVGID_2_">
			<use xlink:href="#SVGID_1_"  style="overflow:visible;"/>
		</clipPath>
		<polyline class="st0" points="396.1,-1.1 2315.1,-1.1 2315.1,1077.9 396.1,1077.9 396.1,-1.1 		"/>
		<path class="st0" d="M2314.6-0.6v1078h-1918V-0.6H2314.6 M2315.6-1.6h-1920v1080h1920V-1.6"/>
		<path class="st1" d="M1078.4,67.3h-7.4v1.4h7.4V67.3 M1142.3,67.3h-61v1.4h62.4L1142.3,67.3 M1148.6,67.3h-0.5l0.5,0.5V67.3
			 M1213.2,67.3H1150v1.4h63.2V67.3 M1240.8,67.3h-26.1v1.4h25.5L1240.8,67.3 M1627.8,67.3h-60.5l1.3,1.4h59.2V67.3 M1659.9,67.3
			h-29.2v1.4h28.5L1659.9,67.3 M1696.6,67.3h-34.8l-0.7,1.4h35.5V67.3 M1756.8,67.3H1698v1.4h60.2L1756.8,67.3 M1763.4,67.3h-4.6
			l1.4,1.4h3.2V67.3 M1831.6,67.3h-66.8v1.4h66.8V67.3 M1858.8,67.3H1833v1.4h25.1L1858.8,67.3 M1897.6,67.3h-35.2l-0.7,1.4h35.9
			V67.3 M1967.6,67.3h-67.2v1.4h67.2V67.3 M2026.3,67.3H1969v1.4h57.3V67.3 M2059.7,67.3h-31.9v1.4h31.3L2059.7,67.3 M2093.6,67.3
			h-32l-0.7,1.4h32.6V67.3 M2160.5,67.3H2095v1.4h65.5V67.3 M2191.4,67.3h-28.1v1.4h28.1V67.3"/>
		<path class="st1" d="M1078.4,200.3h-7.4v1.4h7.4V200.3 M1148.6,200.3h-67.3l1.4,1.4h65.9V200.3 M1184.9,200.3H1150v1.4h34.3
			L1184.9,200.3 M1213.2,200.3h-26.5l-0.6,1.4h27.1V200.3 M1277.7,200.3h-63v1.4h64.5L1277.7,200.3 M1627.8,200.3h-32.4l-0.7,1.4
			h33.1V200.3 M1691.6,200.3h-60.9v1.4h62.3L1691.6,200.3 M1696.6,200.3h-1.2l1.2,1.2V200.3 M1763.4,200.3H1698v1.4h65.4V200.3
			 M1793.7,200.3h-28.9v1.4h28.2L1793.7,200.3 M1831.6,200.3h-34.3l-0.7,1.4h35V200.3 M1892.3,200.3H1833v1.4h60.7L1892.3,200.3
			 M1897.6,200.3h-3.4l1.4,1.4h2V200.3 M1967.6,200.3h-67.2v1.4h67.2V200.3 M1996.2,200.3H1969v1.4h26.5L1996.2,200.3 M2026.3,200.3
			h-28.1l-0.7,1.4h28.8V200.3 M2093.6,200.3h-65.9v1.4h65.9V200.3 M2160.5,200.3H2095v1.4h65.5V200.3 M2190.2,200.3h-26.8v1.4h26.2
			L2190.2,200.3"/>
		<path class="st1" d="M1078.4,337.3h-7.4v1.4h7.4V337.3 M1127.3,337.3h-46.1v1.4h45.5L1127.3,337.3 M1148.6,337.3h-19.5l-0.6,1.4
			h20.1V337.3 M1213.2,337.3H1150v1.4h63.2V337.3 M1216.6,337.3h-1.9v1.4h3.3L1216.6,337.3 M1285.6,337.3h-67.1l1.4,1.4h65.7V337.3
			 M1322.4,337.3H1287v1.4h34.7L1322.4,337.3 M1354.6,337.3h-28.8l-0.7,1.4h29.5V337.3 M1417.2,337.3h-59.5v1.4h61L1417.2,337.3
			 M1560.6,337.3H1527l-0.7,1.4h34.3V337.3 M1621,337.3H1562v1.4h60.3L1621,337.3 M1627.8,337.3h-4.9l1.4,1.4h3.5V337.3
			 M1696.6,337.3h-66v1.4h66V337.3 M1726.6,337.3H1698v1.4h27.9L1726.6,337.3 M1763.4,337.3h-33.2l-0.7,1.4h33.9V337.3
			 M1823.5,337.3h-58.7v1.4h60L1823.5,337.3 M1831.6,337.3h-4.2l1.3,1.4h2.9V337.3 M1897.6,337.3H1833v1.4h64.6V337.3 M1930.9,337.3
			h-30.4v1.4h29.8L1930.9,337.3 M1967.6,337.3h-34.8l-0.7,1.4h35.4V337.3 M2026.3,337.3H1969v1.4h57.3V337.3 M2031.8,337.3h-4v1.4
			h5.5L2031.8,337.3 M2046.2,337.3h-12.4l1.4,1.4h10.2L2046.2,337.3 M2093.6,337.3h-13.6l1.5,1.4h12.1V337.3 M2125.2,337.3H2095v1.4
			h29.5L2125.2,337.3 M2160.5,337.3h-31.4l-0.7,1.4h32.1V337.3 M2191.4,337.3h-28.1v1.4h28.1V337.3"/>
		<path class="st1" d="M2171.3,474.3l-0.7,1.4h2.1L2171.3,474.3 M1072.5,474.3h-0.9l-0.6,1.4v0h0.8L1072.5,474.3 M1148.6,474.3h-5.5
			l1.4,1.4h4.1V474.3 M1213.2,474.3H1150v1.4h63.2V474.3 M1254.9,474.3h-40.2v1.4h39.5L1254.9,474.3 M1285.6,474.3h-27.4l-0.7,1.4
			h28.1V474.3 M1353.9,474.3H1287v1.4h67.6V475L1353.9,474.3 M1424.6,474.3h-67v1.4h67V474.3 M1456.8,474.3H1426v1.4h30
			L1456.8,474.3 M1493.6,474.3h-35l-0.7,1.4h35.7V474.3 M1556.7,474.3H1495v1.4h63.1L1556.7,474.3 M1627.8,474.3h-65.3l1.4,1.4h63.9
			V474.3 M1659.5,474.3h-28.9v1.4h28.2L1659.5,474.3 M1663.8,474.3h-0.6l-0.7,1.4h0.6L1663.8,474.3 M1763.4,474.3h-4.9l1.4,1.4h3.5
			V474.3 M1831.6,474.3h-66.8v1.4h66.8V474.3 M1865.5,474.3H1833v1.4h31.8L1865.5,474.3 M1897.6,474.3h-30.1l-0.7,1.4h30.8V474.3
			 M1955.5,474.3h-55v1.4h56.4L1955.5,474.3 M1967.6,474.3h-8.3l1.3,1.4h6.9V474.3 M1987.2,474.3H1969v1.4h19.6L1987.2,474.3
			 M2191.4,474.3h-18.2l1.4,1.4h16.8V474.3"/>
		<path class="st1" d="M1280.7,613.3h-39.3l-0.6,1.4h41.3L1280.7,613.3 M1285.6,613.3h-1l1,0.9V613.3 M1354.6,613.3H1287v1.4h67.6
			V613.3 M1387.4,613.3h-29.7v1.4h29L1387.4,613.3 M1424.6,613.3h-35.3l-0.7,1.4h36V613.3 M1493.1,613.3H1426v1.4h67.6v-0.9
			L1493.1,613.3 M1560.6,613.3h-65.5l1.4,1.4h64.1V613.3 M1591.4,613.3H1562v1.4h28.7L1591.4,613.3 M1627.8,613.3h-32.8l-0.7,1.4
			h33.4V613.3 M1696.6,613.3h-66v1.4h66V613.3 M1698.2,613.3h-0.2v1.4h1.6L1698.2,613.3 M1831.6,613.3h-29.6l-0.7,1.4h30.2V613.3
			 M1894.1,613.3H1833v1.4h62.5L1894.1,613.3 M1897.6,613.3h-1.5l1.4,1.4h0.2V613.3 M1967.6,613.3h-67.2v1.4h67.2V613.3
			 M1994.2,613.3H1969v1.4h24.5L1994.2,613.3 M2026.3,613.3h-28.2l-0.7,1.4h28.8V613.3 M2089.4,613.3h-61.6v1.4h63L2089.4,613.3
			 M2093.6,613.3h-0.4l0.4,0.4V613.3 M2160.5,613.3H2095v1.4h65.5V613.3 M2191.4,613.3h-28.1v1.4h28.1V613.3"/>
		<path class="st1" d="M1630.6,750.5v0.1h0.1L1630.6,750.5 M1214.6,750.4v0.3h0.3L1214.6,750.4 M1078.4,749.3h-7.4v1.4h7.4V749.3
			 M1119.3,749.3h-38.1v1.4h37.4L1119.3,749.3 M1128.3,749.3h-5.6l-0.7,1.4h7.7L1128.3,749.3 M1213.2,749.3h-34.4l-0.6,1.4h35V749.3
			 M1285.6,749.3h-70.2l1.4,1.4h68.7V749.3 M1319.5,749.3H1287v1.4h31.8L1319.5,749.3 M1354.6,749.3h-33.2l-0.7,1.4h33.9V749.3
			 M1419.2,749.3h-61.5v1.4h63L1419.2,749.3 M1424.6,749.3h-1.5l1.4,1.4h0V749.3 M1493.6,749.3H1426v1.4h67.6V749.3 M1524.8,749.3
			H1495v1.4h29.1L1524.8,749.3 M1560.6,749.3h-32.2l-0.7,1.4h32.8V749.3 M1627.8,749.3H1562v1.4h65.8V749.3 M1696.6,749.3h-65.3
			l1.4,1.4h63.9V749.3 M1734.3,749.3H1698v1.4h35.6L1734.3,749.3 M1763.4,749.3h-27.1l-0.7,1.4h27.8V749.3 M1831.6,749.3h-66.8v1.4
			h66.8V749.3 M1836.7,749.3h-3.7v1.4h5.1L1836.7,749.3 M1897.6,749.3h-55.1l1.4,1.4h53.7V749.3 M1929.7,749.3h-29.2v1.4h28.6
			L1929.7,749.3 M1967.6,749.3h-34l-0.7,1.4h34.7V749.3 M2026.3,749.3H1969v1.4h57.3V749.3 M2028.7,749.3h-1v1.4h2.4L2028.7,749.3
			 M2093.6,749.3h-62.9l1.4,1.4h61.6V749.3 M2160.5,749.3H2095v1.4h65.5V749.3 M2191.4,749.3h-28.1v1.4h28.1V749.3"/>
		<path class="st1" d="M2163.3,885.3v1.4h1.4L2163.3,885.3 M1078.4,885.3h-7.4v1.4h7.4V885.3 M1148.6,885.3h-67.4v1.4h67.4V885.3
			 M1213.2,885.3H1150v1.4h63.2V885.3 M1251.6,885.3h-37v1.4h36.3L1251.6,885.3 M1285.6,885.3h-32.1l-0.7,1.4h32.8V885.3
			 M1352,885.3H1287v1.4h66.3L1352,885.3 M1354.6,885.3h-0.7l0.7,0.7V885.3 M1424.6,885.3h-67v1.4h67V885.3 M1458.2,885.3H1426v1.4
			h31.5L1458.2,885.3 M1493.6,885.3h-31.8l-0.7,1.4h32.4V885.3 M1557.7,885.3H1495v1.4h64L1557.7,885.3 M1627.8,885.3H1562v0.4l1,1
			h64.8V885.3 M1669.5,885.3h-38.8v1.4h38.2L1669.5,885.3 M1696.6,885.3h-25.2l-0.7,1.4h25.8V885.3 M1763.4,885.3H1698v1.4h65.4
			V885.3 M1765.6,885.3h-0.8v1.4h2.2L1765.6,885.3 M1831.6,885.3h-64l1.4,1.4h62.6V885.3 M1865.1,885.3H1833v1.4h31.4L1865.1,885.3
			 M1897.6,885.3h-28.5l-0.7,1.4h29.2V885.3 M1967.6,885.3h-67.2v1.4h67.2V885.3 M1975.2,885.3h-6.2v1.4h7.6L1975.2,885.3
			 M2026.3,885.3H1981l1.4,1.4h43.9V885.3 M2093.6,885.3h-65.9v1.4h65.9V885.3 M2160.5,885.3H2095v1.4h65.5V885.3 M2191.4,885.3
			h-26.1l1.4,1.4h24.8V885.3"/>
		<path class="st1" d="M1078.4,1020.3h-7.4v1.4h7.4V1020.3 M1148.6,1020.3h-67.4v1.4h67.4V1020.3 M1184.3,1020.3H1150v1.4h33.5
			L1184.3,1020.3 M1213.2,1020.3h-27l-0.7,1.4h27.7V1020.3 M1285.6,1020.3h-71v1.4h71V1020.3 M1354.6,1020.3H1287v1.4h67.6V1020.3
			 M1392.1,1020.3h-34.5v1.4h33.8L1392.1,1020.3 M1424.6,1020.3h-28.9l-0.7,1.4h29.6V1020.3 M1489.4,1020.3H1426v1.4h64.8
			L1489.4,1020.3 M1493.6,1020.3h-2.2l1.4,1.4h0.8V1020.3 M1560.6,1020.3H1495v1.4h65.6V1020.3 M1605.1,1020.3h-43v1.4h42.4
			L1605.1,1020.3 M1627.8,1020.3h-20.8l-0.7,1.4h21.4V1020.3 M1695.1,1020.3h-64.5v1.4h65.9L1695.1,1020.3 M1763.4,1020.3h-64.3
			l1.4,1.4h62.9V1020.3 M1801.1,1020.3h-36.2v1.4h35.6L1801.1,1020.3 M1831.6,1020.3H1805l-0.7,1.4h27.3V1020.3 M1897.6,1020.3H1833
			v1.4h64.6V1020.3 M1900.9,1020.3h-0.5v1.4h1.9L1900.9,1020.3 M1967.6,1020.3h-64.7l1.4,1.4h63.3V1020.3 M2026.3,1020.3H1969v1.4
			h57.3V1020.3 M2093.6,1020.3h-65.9v1.4h65.9V1020.3 M2112.7,1020.3H2095v1.4h19L2112.7,1020.3 M2160.5,1020.3h-42l1.4,1.4h40.6
			V1020.3 M2191.4,1020.3h-28.1v1.4h28.1V1020.3"/>
		<polyline class="st2" points="1150,-3.3 1148.6,-3.3 1148.6,-1.6 1150,-1.6 1150,-3.3 		"/>
		<path class="st1" d="M1150,287.6l-1.4,3.3v46.4h1.4V287.6 M1150,270.8h-1.3v15.8l1.4-3.3L1150,270.8L1150,270.8 M1150,201.7h-1.4
			v65.8l0.5,0.5h0.9V201.7 M1150,135.9h-1.4v64.4h1.4V135.9 M1148.6,73.5v60.9h1.4V74.9L1148.6,73.5 M1150,68.7h-0.5l0.5,0.5V68.7
			 M1150-0.6h-1.4v67.9h1.4V-0.6"/>
		<polyline class="st1" points="1150,-1.6 1148.6,-1.6 1148.6,-0.6 1150,-0.6 1150,-1.6 		"/>
		<polyline class="st3" points="1150,67.3 1148.6,67.3 1148.6,67.8 1149.5,68.7 1150,68.7 1150,67.3 		"/>
		<polyline class="st3" points="1150,200.3 1148.6,200.3 1148.6,201.7 1150,201.7 1150,200.3 		"/>
		<path class="st1" d="M1150,820.2h-1.4v65.1h1.4V820.2 M1148.6,769.2v48.1h1.4v-46.7L1148.6,769.2 M1150,475.7h-1.4v4l1.4,1.4
			V475.7 M1150,404.2h-1.4v70.1h1.4V404.2 M1150,338.7h-1.4v64.1h1.4V338.7"/>
		<polyline class="st3" points="1150,337.3 1148.6,337.3 1148.6,338.7 1150,338.7 1150,337.3 		"/>
		<polyline class="st3" points="1150,474.3 1148.6,474.3 1148.6,475.7 1150,475.7 1150,474.3 		"/>
		<path class="st1" d="M1150,1021.7h-1.4v55h1.4V1021.7 M1150,954.4h-1.4v65.9h1.4V954.4 M1150,886.7h-1.4V953h1.4V886.7"/>
		<polyline class="st3" points="1150,885.3 1148.6,885.3 1148.6,886.7 1150,886.7 1150,885.3 		"/>
		<polyline class="st3" points="1150,1020.3 1148.6,1020.3 1148.6,1021.7 1150,1021.7 1150,1020.3 		"/>
		<path class="st1" d="M1287,270.8h-1.4v66.5h1.4V270.8 M1285.6,208.1V268h1.4v-58.5L1285.6,208.1"/>
		<path class="st1" d="M1285.9,820.4l-0.3,0.6v64.3h1.4v-63.8L1285.9,820.4 M1287,750.7h-1.4v66.5l1.4-2.8V750.7 M1287,684.6h-1.4
			v64.7h1.4V684.6 M1285.6,618.1v65h1.4v-63.7L1285.6,618.1 M1287,614.7h-0.9l0.9,0.9V614.7 M1287,544.4h-1.4v68.9h1.4V544.4
			 M1287,475.7h-1.4v64.6h1.4V475.7 M1287,415.9l-1.4,2.8v55.5h1.4V415.9 M1285.6,406.2v5.7l1.4-2.8v-1.4L1285.6,406.2 M1287,404.2
			h-1.4v0l1.4,1.4V404.2 M1287,338.7h-1.4v64.1h1.4V338.7"/>
		<polyline class="st3" points="1287,337.3 1285.6,337.3 1285.6,338.7 1287,338.7 1287,337.3 		"/>
		<polyline class="st3" points="1287,474.3 1285.6,474.3 1285.6,475.7 1287,475.7 1287,474.3 		"/>
		<polyline class="st3" points="1287,613.3 1285.6,613.3 1285.6,614.2 1286.1,614.7 1287,614.7 1287,613.3 		"/>
		<polyline class="st3" points="1287,749.3 1285.6,749.3 1285.6,750.7 1287,750.7 1287,749.3 		"/>
		<path class="st1" d="M1287,1021.7h-1.4v55.5h1.4V1021.7 M1287,954.4h-1.4v65.9h1.4V954.4 M1287,886.7h-1.4V953h1.4V886.7"/>
		<polyline class="st3" points="1287,885.3 1285.6,885.3 1285.6,886.7 1287,886.7 1287,885.3 		"/>
		<polyline class="st3" points="1287,1020.3 1285.6,1020.3 1285.6,1021.7 1287,1021.7 1287,1020.3 		"/>
		<path class="st1" d="M1426,614.7h-1.4v68.5h1.4V614.7 M1424.6,544.9v68.3h1.4v-67L1424.6,544.9 M1426,539.7l-0.3,0.6h0.3V539.7
			 M1426,475.7h-1.4v62.9l1.4-2.8V475.7 M1426,404.2h-1.4v70.1h1.4V404.2 M1424.6,344.6v58.2h1.4v-56.8L1424.6,344.6"/>
		<polyline class="st3" points="1426,474.3 1424.6,474.3 1424.6,475.7 1426,475.7 1426,474.3 		"/>
		<polyline class="st3" points="1426,613.3 1424.6,613.3 1424.6,614.7 1426,614.7 1426,613.3 		"/>
		<polyline class="st2" points="1426,1078.4 1424.6,1078.4 1424.6,1078.5 1426,1078.5 1426,1078.4 		"/>
		<path class="st1" d="M1426,1021.7h-1.4v55.7h1.4V1021.7 M1426,958.4l-1.4,2.9v58.9h1.4V958.4 M1426,886.7h-1.4V953h0.5l0.9-1.9
			V886.7 M1426,820.2h-1.4v65.1h1.4V820.2"/>
		<polyline class="st1" points="1426,1077.4 1424.6,1077.4 1424.6,1078.4 1426,1078.4 1426,1077.4 		"/>
		<polyline class="st3" points="1426,885.3 1424.6,885.3 1424.6,886.7 1426,886.7 1426,885.3 		"/>
		<polyline class="st3" points="1426,1020.3 1424.6,1020.3 1424.6,1021.7 1426,1021.7 1426,1020.3 		"/>
		<path class="st1" d="M1424.6,754.6v62.7h1.4V756L1424.6,754.6 M1426,750.7h-1.4v0l1.4,1.4V750.7 M1426,684.6h-1.4v64.7h1.4V684.6"
			/>
		<polyline class="st3" points="1426,749.3 1424.6,749.3 1424.6,750.7 1426,750.7 1426,749.3 		"/>
		<path class="st1" d="M1561.6,681.6l-0.8,1.5h1.2V682L1561.6,681.6 M1562,614.7h-1.4v61.5l1.4-2.9V614.7 M1562,544.4h-1.4v68.9h1.4
			V544.4 M1560.6,478.1v62.1h1.4v-60.7L1560.6,478.1 M1562,404.2h-1.4v68.2l1.4,1.4V404.2 M1562,338.7h-1.4v64.1h1.4V338.7
			 M1560.6,276.3v60.9h1.4v-59.5L1560.6,276.3 M1562,270.8h-1.4v3.6l1.4,1.4V270.8 M1562,267.1l-0.4,0.8h0.4V267.1 M1562-0.6h-1.4
			v61l1.4,1.5V-0.6"/>
		<polyline class="st1" points="1562,-1.5 1560.6,-1.5 1560.6,-0.6 1562,-0.6 1562,-1.5 		"/>
		<polyline class="st3" points="1562,337.3 1560.6,337.3 1560.6,338.7 1562,338.7 1562,337.3 		"/>
		<polyline class="st3" points="1562,613.3 1560.6,613.3 1560.6,614.7 1562,614.7 1562,613.3 		"/>
		<polyline class="st2" points="1562,1078.4 1560.6,1078.4 1560.6,1078.5 1562,1078.5 1562,1078.4 		"/>
		<path class="st1" d="M1562,1021.7h-1.4v55.7h1.4V1021.7 M1562,954.4h-1.4v65.9h1.4V954.4 M1560.6,888.2V953h1.4v-63.4
			L1560.6,888.2 M1562,820.2h-1.4v64.1l1,1h0.4V820.2"/>
		<polyline class="st1" points="1562,1077.4 1560.6,1077.4 1560.6,1078.4 1562,1078.4 1562,1077.4 		"/>
		<polyline class="st3" points="1562,885.3 1561.6,885.3 1562,885.6 1562,885.3 		"/>
		<polyline class="st3" points="1562,1020.3 1560.6,1020.3 1560.6,1021.7 1562,1021.7 1562,1020.3 		"/>
		<path class="st1" d="M1562,750.7h-1.4v66.7h1.4V750.7 M1562,684.6h-1.4v64.7h1.4V684.6"/>
		<polyline class="st3" points="1562,749.3 1560.6,749.3 1560.6,750.7 1562,750.7 1562,749.3 		"/>
		<polyline class="st2" points="1698,-2.5 1696.6,-2.5 1696.6,-1.6 1698,-1.6 1698,-2.5 		"/>
		<path class="st1" d="M1698,614.7h-1.4v68.5h1.4V614.7 M1696.6,611.7v1.6h1.4v-0.2L1696.6,611.7 M1698,404.2h-0.6l-0.8,1.7v5.9
			l1.4,1.4V404.2 M1698,338.7h-1.4v59.8l1.4-2.9V338.7 M1698,270.8h-1.4v66.5h1.4V270.8 M1696.6,205.5V268h1.4v-61L1696.6,205.5
			 M1698,201.7h-1.3l1.3,1.3V201.7 M1698,135.9h-1.4v64.4h1.4V135.9 M1698,68.7h-1.4v65.8h1.4V68.7 M1696.6,8.1v59.1h1.4V9.5
			L1696.6,8.1 M1698-0.6h-1.4v6.8l1.4,1.4V-0.6"/>
		<polyline class="st1" points="1698,-1.6 1696.6,-1.6 1696.6,-0.6 1698,-0.6 1698,-1.6 		"/>
		<polyline class="st3" points="1698,67.3 1696.6,67.3 1696.6,68.7 1698,68.7 1698,67.3 		"/>
		<polyline class="st3" points="1698,200.3 1696.6,200.3 1696.6,201.5 1696.8,201.7 1698,201.7 1698,200.3 		"/>
		<polyline class="st3" points="1698,337.3 1696.6,337.3 1696.6,338.7 1698,338.7 1698,337.3 		"/>
		<polyline class="st3" points="1698,613.3 1696.6,613.3 1696.6,614.7 1698,614.7 1698,613.3 		"/>
		<path class="st1" d="M1696.6,1021.7v55.6h1.4v-54.2L1696.6,1021.7 M1698,954.4h-1.4v63.5l1.4,1.4V954.4 M1698,886.7h-1.4V953h1.4
			V886.7 M1698,829.6l-1.4,2.9v52.8h1.4V829.6 M1698,820.2h-1.4v8.1l1.4-2.9V820.2"/>
		<polyline class="st1" points="1698,1077.4 1696.6,1077.4 1696.6,1077.5 1698,1077.5 1698,1077.4 		"/>
		<polyline class="st3" points="1698,885.3 1696.6,885.3 1696.6,886.7 1698,886.7 1698,885.3 		"/>
		<path class="st1" d="M1696.6,816.4v1h1L1696.6,816.4 M1698,750.7h-1.4v63.7l1.4,1.4V750.7 M1698,684.6h-1.4v64.7h1.4V684.6"/>
		<polyline class="st3" points="1698,749.3 1696.6,749.3 1696.6,750.7 1698,750.7 1698,749.3 		"/>
		<polyline class="st2" points="1833,-2 1831.6,-2 1831.6,-1.6 1833,-1.6 1833,-2 		"/>
		<path class="st1" d="M1833,614.7h-1.4v68.5h1.4V614.7 M1832.1,550.6l-0.5,1v61.6h1.4v-61.7L1832.1,550.6 M1833,546.5l-0.8,1.8
			l0.7,0.7l-0.1,0.3l0.3,0.3V546.5 M1832.1,544.4h-0.4v0.9L1832.1,544.4 M1833,475.7h-1.4v64.6h1.4V475.7 M1833,404.2h-1.4v70.1h1.4
			V404.2 M1831.6,345.7v57.1h1.4v-55.6L1831.6,345.7 M1833,338.7h-1.4v3l1.4,1.5V338.7 M1833,270.8h-1.4v66.5h1.4V270.8 M1833,201.7
			h-1.4V268h1.4V201.7 M1831.6,140.7v59.5h1.4v-58.2L1831.6,140.7 M1833,135.9h-1.4v2.9l1.4,1.4V135.9 M1833,127.3l-1.4,2.9v4.3h1.4
			V127.3 M1833,68.7h-1.4v54.1l1.4-2.9V68.7 M1833-0.6h-1.4v67.9h1.4V-0.6"/>
		<polyline class="st1" points="1833,-1.6 1831.6,-1.6 1831.6,-0.6 1833,-0.6 1833,-1.6 		"/>
		<polyline class="st3" points="1833,67.3 1831.6,67.3 1831.6,68.7 1833,68.7 1833,67.3 		"/>
		<polyline class="st3" points="1833,200.3 1831.6,200.3 1831.6,201.7 1833,201.7 1833,200.3 		"/>
		<polyline class="st3" points="1833,337.3 1831.6,337.3 1831.6,338.7 1833,338.7 1833,337.3 		"/>
		<polyline class="st3" points="1833,474.3 1831.6,474.3 1831.6,475.7 1833,475.7 1833,474.3 		"/>
		<polyline class="st3" points="1833,613.3 1831.6,613.3 1831.6,614.7 1833,614.7 1833,613.3 		"/>
		<path class="st1" d="M1833,1021.7h-1.4v55.7h1.4V1021.7 M1833,961.2l-1.4,2.9v56.1h1.4V961.2 M1832.3,954.4h-0.7v1.5L1832.3,954.4
			 M1831.6,951.1v1.8h1.4l0-0.1v-0.4L1831.6,951.1 M1833,886.7h-1.4v62.5l1.4,1.4V886.7 M1833,820.2h-1.4v65.1h1.4V820.2"/>
		<polyline class="st1" points="1833,1077.4 1831.6,1077.4 1831.6,1078 1833,1078 1833,1077.4 		"/>
		<polyline class="st3" points="1833,885.3 1831.6,885.3 1831.6,886.7 1833,886.7 1833,885.3 		"/>
		<polyline class="st3" points="1833,1020.3 1831.6,1020.3 1831.6,1021.7 1833,1021.7 1833,1020.3 		"/>
		<path class="st1" d="M1833,750.7h-1.4v66.7h1.4V750.7 M1831.6,744.3v5h1.4v-3.6L1831.6,744.3 M1833,684.6h-1.4v54l1.4,1.4V684.6"
			/>
		<polyline class="st3" points="1833,749.3 1831.6,749.3 1831.6,750.7 1833,750.7 1833,749.3 		"/>
		<polyline class="st2" points="1969,-2 1967.6,-2 1967.6,-1.6 1969,-1.6 1969,-2 		"/>
		<path class="st1" d="M1969,674.6l-1.4,2.9v5.6h1.4V674.6 M1969,614.7h-1.4v54.6l1.4-2.9V614.7 M1969,544.4h-1.4v68.9h1.4V544.4
			 M1967.6,486.9v53.4h1.4v-51.9L1967.6,486.9 M1969,475.7h-1.4v7.2l1.4,1.5V475.7 M1969,404.2h-1.4v70.1h1.4V404.2 M1969,338.7
			h-1.4v64.1h1.4V338.7 M1967.6,274.3v63h1.4v-61.6L1967.6,274.3 M1969,270.8h-1.4v1.6l1.4,1.4V270.8 M1969,261.4l-1.4,2.9v3.6h1.4
			V261.4 M1969,201.7h-1.4v58.5l1.4-2.9V201.7 M1969,135.9h-1.4v64.4h1.4V135.9 M1969,68.7h-1.4v65.8h1.4V68.7 M1969-0.6h-1.4v67.9
			h1.4V-0.6"/>
		<polyline class="st1" points="1969,-1.6 1967.6,-1.6 1967.6,-0.6 1969,-0.6 1969,-1.6 		"/>
		<polyline class="st3" points="1969,67.3 1967.6,67.3 1967.6,68.7 1969,68.7 1969,67.3 		"/>
		<polyline class="st3" points="1969,200.3 1967.6,200.3 1967.6,201.7 1969,201.7 1969,200.3 		"/>
		<polyline class="st3" points="1969,337.3 1967.6,337.3 1967.6,338.7 1969,338.7 1969,337.3 		"/>
		<polyline class="st3" points="1969,474.3 1967.6,474.3 1967.6,475.7 1969,475.7 1969,474.3 		"/>
		<polyline class="st3" points="1969,613.3 1967.6,613.3 1967.6,614.7 1969,614.7 1969,613.3 		"/>
		<path class="st1" d="M1969,1021.7h-1.4v55.7h1.4V1021.7 M1969,954.4h-1.4v65.9h1.4V954.4 M1969,886.7h-1.4V953h1.4V886.7
			 M1967.6,877.8v7.4h1.4v-6L1967.6,877.8 M1969,820.2h-1.4v51.9l1.4,1.4V820.2"/>
		<polyline class="st1" points="1969,1077.4 1967.6,1077.4 1967.6,1078 1969,1078 1969,1077.4 		"/>
		<polyline class="st3" points="1969,885.3 1967.6,885.3 1967.6,886.7 1969,886.7 1969,885.3 		"/>
		<polyline class="st3" points="1969,1020.3 1967.6,1020.3 1967.6,1021.7 1969,1021.7 1969,1020.3 		"/>
		<path class="st1" d="M1969,750.7h-1.4v66.7h1.4V750.7 M1967.6,687.5v61.7h1.4v-60.3L1967.6,687.5 M1969,684.6h-1.4v1l1.4,1.4
			V684.6"/>
		<polyline class="st3" points="1969,749.3 1967.6,749.3 1967.6,750.7 1969,750.7 1969,749.3 		"/>
		<polyline class="st2" points="2095,-2.7 2094.5,-1.6 2095,-1.6 2095,-2.7 		"/>
		<path class="st1" d="M2093.6,617.7v65.5h1.4v-64L2093.6,617.7 M2095,614.7h-0.4l0.4,0.5V614.7 M2093.6,584.5v28.8h1.4v-27.3
			L2093.6,584.5 M2095,338.7h-1.4v11.2l1.4,1.3V338.7 M2095,270.8h-1.4v66.5h1.4V270.8 M2095,201.7h-1.4V268h1.4V201.7 M2095,135.9
			h-1.4v64.4h1.4V135.9 M2095,68.7h-1.4v65.8h1.4V68.7 M2095-0.6h-1l-0.4,0.9v67h1.4V-0.6"/>
		<polyline class="st1" points="2095,-1.6 2094.5,-1.6 2094.1,-0.6 2095,-0.6 2095,-1.6 		"/>
		<polyline class="st3" points="2095,67.3 2093.6,67.3 2093.6,68.7 2095,68.7 2095,67.3 		"/>
		<polyline class="st3" points="2095,200.3 2093.6,200.3 2093.6,201.7 2095,201.7 2095,200.3 		"/>
		<polyline class="st3" points="2095,337.3 2093.6,337.3 2093.6,338.7 2095,338.7 2095,337.3 		"/>
		<polyline class="st3" points="2095,613.3 2093.6,613.3 2093.6,613.7 2094.6,614.7 2095,614.7 2095,613.3 		"/>
		<path class="st1" d="M2095,1021.7h-1.4v55.3h1.4V1021.7 M2093.6,1001.6v18.7h1.4V1003L2093.6,1001.6 M2095,954.4h-1.4v41.5
			l1.4,1.4V954.4 M2095,886.7h-1.4V953h1.4V886.7 M2095,820.2h-1.4v65.1h1.4V820.2"/>
		<polyline class="st3" points="2095,885.3 2093.6,885.3 2093.6,886.7 2095,886.7 2095,885.3 		"/>
		<polyline class="st3" points="2095,1020.3 2093.6,1020.3 2093.6,1021.7 2095,1021.7 2095,1020.3 		"/>
		<path class="st1" d="M2093.6,814.8v2.5h1.4v-1.1L2093.6,814.8 M2095,750.7h-1.4v62.2l1.4,1.4V750.7 M2095,684.6h-1.4v64.7h1.4
			V684.6"/>
		<polyline class="st3" points="2095,749.3 2093.6,749.3 2093.6,750.7 2095,750.7 2095,749.3 		"/>
		<path class="st4" d="M1494.5,614.7h-0.9v68.5h1.4v-68L1494.5,614.7 M1495,544.4h-1.4v67.4l1.4,1.4V544.4 M1495,475.7h-1.4v64.6
			h1.4V475.7 M1493.6,412.3v61.9h1.4v-60.5L1493.6,412.3 M1495,404.2h-1.4l0,0v2.4l1.4,1.4V404.2 M1495,401.4l-0.7,1.4h0.7V401.4"/>
		<polyline class="st5" points="1495,474.3 1493.6,474.3 1493.6,475.7 1495,475.7 1495,474.3 		"/>
		<polyline class="st5" points="1493.6,613.8 1493.6,614.7 1494.5,614.7 1493.6,613.8 		"/>
		<path class="st4" d="M1493.6,1024.4v53h1.4v-51.6L1493.6,1024.4 M1495,1021.7h-1.4v0.8l1.4,1.4V1021.7 M1495,954.4h-1.4v65.9h1.4
			V954.4 M1495,886.7h-1.4V953h1.4V886.7 M1493.6,822.4v62.9h1.4v-61.5L1493.6,822.4"/>
		<polyline class="st4" points="1495,1077.4 1493.6,1077.4 1493.6,1078.4 1495,1078.4 1495,1077.4 		"/>
		<polyline class="st5" points="1495,885.3 1493.6,885.3 1493.6,886.7 1495,886.7 1495,885.3 		"/>
		<polyline class="st5" points="1495,1020.3 1493.6,1020.3 1493.6,1021.7 1495,1021.7 1495,1020.3 		"/>
		<path class="st4" d="M1495,750.7h-1.4V813l1.4-2.9V750.7 M1495,684.6h-1.4v64.7h1.4V684.6"/>
		<polyline class="st5" points="1495,749.3 1493.6,749.3 1493.6,750.7 1495,750.7 1495,749.3 		"/>
		<path class="st4" d="M1630.6,614.7h-2.8v68.5h2.8V614.7 M1628.6,544.9l-0.7,1.5v66.9h2.8v-66.4L1628.6,544.9 M1630.6,475.7h-2.8
			v62.7l0.2,0.2l2.6-5.3V475.7 M1630.6,404.2h-2.8v70.1h2.8V404.2 M1627.8,344.2v58.5h2.8V347L1627.8,344.2 M1630.6,338.7h-2.8v3.6
			l2.8,2.8V338.7 M1630.6,270.8h-2.8v66.5h2.8V270.8 M1630.6,201.7h-2.8V268h2.8V201.7 M1629.5,135.9h-1.7v64.4h2.8V137
			L1629.5,135.9 M1630.6,129.7l-1.1,2.2l1.1,1.1V129.7 M1630.6,68.7h-2.8v61.4l0.4,0.5l2.4-4.7V68.7 M1630.6-0.6h-2.8v67.9h2.8V-0.6
			"/>
		<polyline class="st4" points="1630.6,-1.6 1627.8,-1.6 1627.8,-0.6 1630.6,-0.6 1630.6,-1.6 		"/>
		<polyline class="st5" points="1630.6,67.3 1627.8,67.3 1627.8,68.7 1630.6,68.7 1630.6,67.3 		"/>
		<polyline class="st5" points="1630.6,200.3 1627.8,200.3 1627.8,201.7 1630.6,201.7 1630.6,200.3 		"/>
		<polyline class="st5" points="1630.6,337.3 1627.8,337.3 1627.8,338.7 1630.6,338.7 1630.6,337.3 		"/>
		<polyline class="st5" points="1630.6,474.3 1627.8,474.3 1627.8,475.7 1630.6,475.7 1630.6,474.3 		"/>
		<polyline class="st5" points="1630.6,613.3 1627.8,613.3 1627.8,614.7 1630.6,614.7 1630.6,613.3 		"/>
		<path class="st4" d="M1630.6,1021.7h-2.8v44.5l2.8-7.7V1021.7 M1630.6,970.9l-2.8,5.9v43.5h2.8V970.9 M1628,954.4h-0.2v18.2
			l2.8-5.9v-9.7L1628,954.4 M1630.6,886.7h-2.8v63.6l2.7,2.7h0.1V886.7 M1630.6,820.2h-2.8v65.1h2.8V820.2"/>
		<polyline class="st5" points="1630.6,885.3 1627.8,885.3 1627.8,886.7 1630.6,886.7 1630.6,885.3 		"/>
		<polyline class="st5" points="1630.6,1020.3 1627.8,1020.3 1627.8,1021.7 1630.6,1021.7 1630.6,1020.3 		"/>
		<path class="st4" d="M1630.6,750.7h-2.8v66.7h2.8V750.7 M1627.8,747.7v1.5h1.5L1627.8,747.7 M1630.6,684.6h-2.8v61.2l2.8,2.8
			V684.6"/>
		<polyline class="st5" points="1629.4,749.3 1627.8,749.3 1627.8,750.7 1630.6,750.7 1630.6,750.5 1629.4,749.3 		"/>
		<path class="st4" d="M1763.4,677.6v5.5h1.4V679L1763.4,677.6 M1764.8,475.7h-1.4v3.6l1.4,1.4V475.7 M1764.8,404.2h-1.4v70.1h1.4
			V404.2 M1764.8,338.7h-1.4v64.1h1.4V338.7 M1763.4,274.9v62.4h1.4v-60.9L1763.4,274.9 M1764.8,270.8h-1.4v0.1l1.4,1.5V270.8
			 M1764.8,266.6l-0.7,1.4h0.7V266.6 M1764.8,201.7h-1.4V262l1.4-2.9V201.7 M1764.8,135.9h-1.4v64.4h1.4V135.9 M1763.4,73.7v60.7
			h1.4V75.1L1763.4,73.7 M1764.8,68.7h-1.4v3.1l1.4,1.4V68.7 M1764.8-0.6h-1.4v67.9h1.4V-0.6"/>
		<polyline class="st4" points="1764.8,-1.6 1763.4,-1.6 1763.4,-0.6 1764.8,-0.6 1764.8,-1.6 		"/>
		<polyline class="st5" points="1764.8,67.3 1763.4,67.3 1763.4,68.7 1764.8,68.7 1764.8,67.3 		"/>
		<polyline class="st5" points="1764.8,200.3 1763.4,200.3 1763.4,201.7 1764.8,201.7 1764.8,200.3 		"/>
		<polyline class="st5" points="1764.8,337.3 1763.4,337.3 1763.4,338.7 1764.8,338.7 1764.8,337.3 		"/>
		<polyline class="st5" points="1764.8,474.3 1763.4,474.3 1763.4,475.7 1764.8,475.7 1764.8,474.3 		"/>
		<path class="st4" d="M1764.8,750.7h-1.4v66.7h1.4V750.7 M1764.8,689.5l-1.4,2.9v56.8h1.4V689.5 M1764.8,684.6h-1.4v3.7l1.4-2.9
			V684.6"/>
		<polyline class="st5" points="1764.8,749.3 1763.4,749.3 1763.4,750.7 1764.8,750.7 1764.8,749.3 		"/>
		<path class="st4" d="M1764.8,1021.7h-1.4v55.7h1.4V1021.7 M1764.8,954.4h-1.4v65.9h1.4V954.4 M1764.8,886.7h-1.4V953h1.4V886.7
			 M1763.4,883v2.2h1.4v-0.8L1763.4,883 M1764.8,820.2h-1.4v60.9l1.4,1.4V820.2"/>
		<polyline class="st4" points="1764.8,1077.4 1763.4,1077.4 1763.4,1078.4 1764.8,1078.4 1764.8,1077.4 		"/>
		<polyline class="st5" points="1764.8,885.3 1763.4,885.3 1763.4,886.7 1764.8,886.7 1764.8,885.3 		"/>
		<polyline class="st5" points="1764.8,1020.3 1763.4,1020.3 1763.4,1021.7 1764.8,1021.7 1764.8,1020.3 		"/>
		<path class="st4" d="M1897.6,616.8v66.4h2.8v-63.5L1897.6,616.8 M1900.4,614.7h-2.8v0.2l2.8,2.8V614.7 M1900.4,544.4h-2.8v68.9
			h2.8V544.4 M1900.4,475.7h-2.8v64.6h2.8V475.7 M1897.6,414.2v60h2.8v-57.1L1897.6,414.2 M1900.4,405.2l-2.5,5.2l2.5,2.6V405.2
			 M1899,404.2h-1.3v2.8L1899,404.2 M1900.4,338.7h-2.8v64.1h2l0.8-1.7V338.7 M1900.4,270.8h-2.8v66.5h2.8V270.8 M1897.6,205.5V268
			h2.8v-59.7L1897.6,205.5 M1900.4,201.7h-2.8v1.9l2.8,2.7V201.7 M1900.4,135.9h-2.8v64.4h2.8V135.9 M1900.4,68.7h-2.8v65.8h2.8
			V68.7 M1900.4-0.6h-2.8v67.9h2.8V-0.6"/>
		<polyline class="st4" points="1900.4,-1.6 1897.6,-1.6 1897.6,-0.6 1900.4,-0.6 1900.4,-1.6 		"/>
		<polyline class="st5" points="1900.4,67.3 1897.6,67.3 1897.6,68.7 1900.4,68.7 1900.4,67.3 		"/>
		<polyline class="st5" points="1900.4,200.3 1897.6,200.3 1897.6,201.7 1900.4,201.7 1900.4,200.3 		"/>
		<polyline class="st5" points="1900.4,337.3 1897.6,337.3 1897.6,338.7 1900.4,338.7 1900.4,337.3 		"/>
		<polyline class="st5" points="1900.4,474.3 1897.6,474.3 1897.6,475.7 1900.4,475.7 1900.4,474.3 		"/>
		<polyline class="st5" points="1900.4,613.3 1897.6,613.3 1897.6,614.7 1900.4,614.7 1900.4,613.3 		"/>
		<path class="st4" d="M1897.6,809.1v7.7l2.5-5.2L1897.6,809.1 M1900.4,750.7h-2.8v52.7l2.8,2.7V750.7 M1900.4,684.6h-2.8v64.7h2.8
			V684.6"/>
		<polyline class="st5" points="1900.4,749.3 1897.6,749.3 1897.6,750.7 1900.4,750.7 1900.4,749.3 		"/>
		<path class="st4" d="M1900.4,1021.7h-2.8v55.7h2.8V1021.7 M1897.6,1017v3.3h2.8v-0.5L1897.6,1017 M1900.4,954.4h-2.8v60.7l2.8,2.8
			V954.4 M1900.4,886.7h-2.8V953h2.8V886.7 M1900.4,820.2h-0.5l-2.3,4.9v60.2h2.8V820.2"/>
		<polyline class="st4" points="1900.4,1077.4 1897.6,1077.4 1897.6,1078.4 1900.4,1078.4 1900.4,1077.4 		"/>
		<polyline class="st5" points="1900.4,885.3 1897.6,885.3 1897.6,886.7 1900.4,886.7 1900.4,885.3 		"/>
		<polyline class="st5" points="1900.4,1020.3 1897.6,1020.3 1897.6,1021.7 1900.4,1021.7 1900.4,1020.3 		"/>
		<path class="st4" d="M2027.7,614.7h-1.4v68.5h1.4V614.7 M2027.7,550.9l-1.4,2.9v59.4h1.4V550.9 M2026.9,544.4L2026.9,544.4
			L2026.9,544.4L2026.9,544.4 M2026.3,514.8v25.5h1.4v-24L2026.3,514.8 M2027.7,338.7h-1.4v36.5l1.4-2.7V338.7 M2026.3,331.9v5.3
			h1.4v-4L2026.3,331.9 M2027.7,270.8h-1.4V330l1.4,1.4V270.8 M2027.7,201.7h-1.4V268h1.4V201.7 M2027.7,138.4l-1.4,2.9v58.9h1.4
			V138.4 M2026.9,135.9h-0.6v1.3L2026.9,135.9 M2027.7,68.7h-1.4v65.8h1.3l0.1-0.3V68.7 M2027.7-0.6h-1.4v67.9h1.4V-0.6"/>
		<polyline class="st5" points="2027.7,67.3 2026.3,67.3 2026.3,68.7 2027.7,68.7 2027.7,67.3 		"/>
		<polyline class="st5" points="2027.7,200.3 2026.3,200.3 2026.3,201.7 2027.7,201.7 2027.7,200.3 		"/>
		<polyline class="st5" points="2027.7,337.3 2026.3,337.3 2026.3,338.7 2027.7,338.7 2027.7,337.3 		"/>
		<polyline class="st5" points="2027.7,613.3 2026.3,613.3 2026.3,614.7 2027.7,614.7 2027.7,613.3 		"/>
		<path class="st4" d="M2027.7,750.7h-1.4v66.7h1.4V750.7 M2026.3,746.8v2.4h1.4v-1L2026.3,746.8 M2027.7,684.6h-1.4v60.3l1.4,1.4
			V684.6"/>
		<polyline class="st5" points="2027.7,749.3 2026.3,749.3 2026.3,750.7 2027.7,750.7 2027.7,749.3 		"/>
		<polyline class="st6" points="2027.7,1078.4 2026.3,1078.4 2026.3,1079.4 2027.7,1079.4 2027.7,1078.4 		"/>
		<path class="st4" d="M2027.7,1021.7h-1.4v55.7h1.4V1021.7 M2027.7,954.4h-1.4v65.9h1.4V954.4 M2026.3,935.5V953h1.4v-16.1
			L2026.3,935.5 M2027.7,886.7h-1.4v43.1l1.4,1.4V886.7 M2027.7,820.2h-1.4v65.1h1.4V820.2"/>
		<polyline class="st4" points="2027.7,1077.4 2026.3,1077.4 2026.3,1078.4 2027.7,1078.4 2027.7,1077.4 		"/>
		<polyline class="st5" points="2027.7,885.3 2026.3,885.3 2026.3,886.7 2027.7,886.7 2027.7,885.3 		"/>
		<polyline class="st5" points="2027.7,1020.3 2026.3,1020.3 2026.3,1021.7 2027.7,1021.7 2027.7,1020.3 		"/>
		<path class="st4" d="M2163.3,614.7h-2.8v68.5l0,0h2.8V614.7 M2163.3,544.4h-2.8v68.9h2.8V544.4 M2163.3,490.6l-2.8,5.8v43.8h2.8
			V490.6 M2163.3,404.2h-2.8v7.5l2.8,2.6V404.2 M2163.3,338.7h-2.8v64.1h2.8V338.7 M2163.3,270.8h-2.7l-0.1,0.3v66.2h2.8V270.8
			 M2163.3,265.2l-1.3,2.8h1.3V265.2 M2163.3,201.7h-2.8v61.1l2.8-5.9V201.7 M2163.3,135.9h-2.8v64.4h2.8V135.9 M2163.3,68.7h-2.8
			v65.8h2.8V68.7 M2163.3-0.6h-2.8v67.9h2.8V-0.6"/>
		<polyline class="st5" points="2163.3,67.3 2160.5,67.3 2160.5,68.7 2163.3,68.7 2163.3,67.3 		"/>
		<polyline class="st5" points="2163.3,200.3 2160.5,200.3 2160.5,201.7 2163.3,201.7 2163.3,200.3 		"/>
		<polyline class="st5" points="2163.3,337.3 2160.5,337.3 2160.5,338.7 2163.3,338.7 2163.3,337.3 		"/>
		<polyline class="st5" points="2163.3,613.3 2160.5,613.3 2160.5,614.7 2163.3,614.7 2163.3,613.3 		"/>
		<path class="st4" d="M2163.3,750.7h-2.8v66.7h2.8V750.7 M2160.5,687.1v62.1h2.8v-59.2L2160.5,687.1 M2163.3,684.6h-1.4l1.4,1.5
			V684.6"/>
		<polyline class="st5" points="2163.3,749.3 2160.5,749.3 2160.5,750.7 2163.3,750.7 2163.3,749.3 		"/>
		<polyline class="st6" points="2163.3,1078.4 2160.5,1078.4 2160.5,1079.4 2163.3,1079.4 2163.3,1078.4 		"/>
		<path class="st4" d="M2160.5,1067.3v10.1h2.8v-7.3L2160.5,1067.3 M2163.3,1021.7h-2.8v39.9l2.8,2.8V1021.7 M2163.3,954.4h-2.8
			v65.9h2.8V954.4 M2163.3,886.7h-2.8V953h2.8V886.7 M2160.5,882.4v2.8h2.8L2160.5,882.4 M2163.3,820.2h-2.8v60.3l2.8,2.8V820.2"/>
		<polyline class="st4" points="2163.3,1077.4 2160.5,1077.4 2160.5,1078.4 2163.3,1078.4 2163.3,1077.4 		"/>
		<polyline class="st5" points="2163.3,885.3 2160.5,885.3 2160.5,886.7 2163.3,886.7 2163.3,885.3 2163.3,885.3 		"/>
		<polyline class="st5" points="2163.3,1020.3 2160.5,1020.3 2160.5,1021.7 2163.3,1021.7 2163.3,1020.3 		"/>
		<path class="st4" d="M1214.6,671.5l-1.4,3v8.6h1.4V671.5 M1214.6,544.4h-0.1l0.1,0.1V544.4 M1214.6,475.7h-1.4v64.6h1.4V475.7
			 M1214.6,404.2h-1.4v70.1h1.4V404.2 M1214.6,338.7h-1.4v64.1h1.4V338.7 M1213.2,333.9v3.3h1.4v-1.9L1213.2,333.9 M1214.6,270.8
			h-1.4v61.2l1.4,1.4V270.8 M1214.6,201.7h-1.4V268h1.4V201.7 M1213.3,137l0,0.1v63.1h1.4v-61.9L1213.3,137 M1214.6,68.7h-1.4v62.6
			l0.5,0.5l0.9-2.2V68.7 M1214.6-0.6h-1.4v67.9h1.4V-0.6"/>
		<polyline class="st4" points="1214.6,-1 1213.2,-1 1213.2,-0.6 1214.6,-0.6 1214.6,-1 		"/>
		<polyline class="st5" points="1214.6,67.3 1213.2,67.3 1213.2,68.7 1214.6,68.7 1214.6,67.3 		"/>
		<polyline class="st5" points="1214.6,200.3 1213.2,200.3 1213.2,201.7 1214.6,201.7 1214.6,200.3 		"/>
		<polyline class="st5" points="1214.6,337.3 1213.2,337.3 1213.2,338.7 1214.6,338.7 1214.6,337.3 		"/>
		<polyline class="st5" points="1214.6,474.3 1213.2,474.3 1213.2,475.7 1214.6,475.7 1214.6,474.3 		"/>
		<path class="st4" d="M1214.6,750.7h-1.4v66.7h1.4V750.7 M1213.2,749v0.2h0.2L1213.2,749 M1214.6,684.6h-1.4v62.5l1.4,1.4V684.6"/>
		<polyline class="st5" points="1213.5,749.3 1213.2,749.3 1213.2,750.7 1214.6,750.7 1214.6,750.4 1213.5,749.3 		"/>
		<polyline class="st6" points="1214.6,1078.4 1213.2,1078.4 1213.2,1079 1214.6,1079 1214.6,1078.4 		"/>
		<path class="st4" d="M1214.6,1021.7h-1.4v55.7h1.4V1021.7 M1214.6,963.3l-1.4,2.8v54.2h1.4V963.3 M1214.6,954.4h-1.4v7.9l1.4-2.8
			V954.4 M1214.6,886.7h-1.4V953h1.4V886.7 M1214.6,820.2h-1.4v65.1h1.4V820.2"/>
		<polyline class="st4" points="1214.6,1077.4 1213.2,1077.4 1213.2,1078.4 1214.6,1078.4 1214.6,1077.4 		"/>
		<polyline class="st5" points="1214.6,885.3 1213.2,885.3 1213.2,886.7 1214.6,886.7 1214.6,885.3 		"/>
		<polyline class="st5" points="1214.6,1020.3 1213.2,1020.3 1213.2,1021.7 1214.6,1021.7 1214.6,1020.3 		"/>
		<path class="st4" d="M1081.2,451.3l-2.8,6.7v3.4l2.8-6.1V451.3 M1078.4,414.6v39l2.8-6.7v-29.6L1078.4,414.6 M1081.2,404.2h-2.8
			v6.6l2.8,2.7V404.2 M1081.2,338.7h-2.8v64.1h2.8V338.7 M1081.2,270.8h-2.8v66.5h2.8V270.8 M1080.7,201.7h-2.3V268h2.8v-65.8
			L1080.7,201.7 M1078.4,199.4v0.9h0.9L1078.4,199.4 M1081.2,135.9h-2.8v61.5l2.8,2.8V135.9 M1081.2,68.7h-2.8v65.8h2.8V68.7
			 M1078.4,4.6v62.7h2.8V7.3L1078.4,4.6 M1081.2-0.6h-2.3l2.3,2.2V-0.6"/>
		<polyline class="st4" points="1081.2,-1 1078.6,-1 1079,-0.6 1081.2,-0.6 1081.2,-1 		"/>
		<polyline class="st5" points="1081.2,67.3 1078.4,67.3 1078.4,68.7 1081.2,68.7 1081.2,67.3 		"/>
		<polyline class="st5" points="1079.3,200.3 1078.4,200.3 1078.4,201.7 1080.7,201.7 1079.3,200.3 		"/>
		<polyline class="st5" points="1081.2,337.3 1078.4,337.3 1078.4,338.7 1081.2,338.7 1081.2,337.3 		"/>
		<path class="st4" d="M1081.2,750.7h-2.8v66.7h2.8V750.7 M1078.4,700.3v49h2.8V703L1078.4,700.3"/>
		<polyline class="st5" points="1081.2,749.3 1078.4,749.3 1078.4,750.7 1081.2,750.7 1081.2,749.3 		"/>
		<polyline class="st6" points="1081.2,1078.4 1078.4,1078.4 1078.4,1079 1081.2,1079 1081.2,1078.4 		"/>
		<path class="st4" d="M1081.2,1021.7h-2.8v55.7h2.8V1021.7 M1081.2,954.4h-2.8v65.9h2.8V954.4 M1081.2,886.7h-2.8V953h2.8V886.7
			 M1081.2,833.3l-2.8,5.7v46.3h2.8V833.3 M1081.2,820.2h-2.8v12l2.8-5.7V820.2"/>
		<polyline class="st4" points="1081.2,1077.4 1078.4,1077.4 1078.4,1078.4 1081.2,1078.4 1081.2,1077.4 		"/>
		<polyline class="st5" points="1081.2,885.3 1078.4,885.3 1078.4,886.7 1081.2,886.7 1081.2,885.3 		"/>
		<polyline class="st5" points="1081.2,1020.3 1078.4,1020.3 1078.4,1021.7 1081.2,1021.7 1081.2,1020.3 		"/>
		<path class="st4" d="M2093.6,683.2h-65.9v1.4h65.9V683.2 M2156.7,683.2H2095v1.4h63L2156.7,683.2 M2191.4,683.2h-28.1v1.4h28.1
			V683.2"/>
		<polyline class="st5" points="2095,683.2 2093.6,683.2 2093.6,684.6 2095,684.6 2095,683.2 		"/>
		<path class="st4" d="M1964.4,684.3l-0.1,0.3h0.4L1964.4,684.3 M1961,683.2h-60.6v1.4h59.9L1961,683.2 M1967.6,683.2h-2.4l1.4,1.4
			h1V683.2 M2026.3,683.2H1969v1.4h57.3V683.2"/>
		<polyline class="st5" points="1969,683.2 1967.6,683.2 1967.6,684.6 1969,684.6 1969,683.2 		"/>
		<path class="st4" d="M1765.9,683.2h-1v1.4h0.4L1765.9,683.2 M1769.4,683.2h-1.5l-0.7,1.4h3.6L1769.4,683.2 M1831.6,683.2h-56.4
			l1.4,1.4h55V683.2 M1897.6,683.2H1833v1.4h64.6V683.2"/>
		<polyline class="st5" points="1833,683.2 1831.6,683.2 1831.6,684.6 1833,684.6 1833,683.2 		"/>
		<path class="st4" d="M1560.6,683.6l-0.5,1h0.5V683.6 M1285.6,683.2h-71v1.4h71V683.2 M1351.9,683.2H1287v1.4h64.8l0.5-1
			L1351.9,683.2 M1424.6,683.2h-67v1.4h67V683.2 M1493.6,683.2H1426v1.4h67.6V683.2 M1557.2,683.2H1495v1.4h61.5L1557.2,683.2
			 M1563.2,683.2h-1.1v1.4h2.5L1563.2,683.2 M1627.8,683.2h-62.7l1.4,1.4h61.3V683.2 M1696.6,683.2h-66v1.4h66V683.2 M1763.4,683.2
			H1698v1.4h65.4V683.2"/>
		<polyline class="st5" points="1287,683.2 1285.6,683.2 1285.6,684.6 1287,684.6 1287,683.2 		"/>
		<polyline class="st5" points="1426,683.2 1424.6,683.2 1424.6,684.6 1426,684.6 1426,683.2 		"/>
		<polyline class="st5" points="1562,683.2 1560.9,683.2 1560.6,683.6 1560.6,684.6 1562,684.6 1562,683.2 		"/>
		<polyline class="st5" points="1698,683.2 1696.6,683.2 1696.6,684.6 1698,684.6 1698,683.2 		"/>
		<polyline class="st7" points="1495,683.2 1493.6,683.2 1493.6,684.6 1495,684.6 1495,683.2 		"/>
		<polyline class="st7" points="1630.6,683.2 1627.8,683.2 1627.8,684.6 1630.6,684.6 1630.6,683.2 		"/>
		<polyline class="st7" points="1764.8,683.2 1763.4,683.2 1763.4,684.6 1764.8,684.6 1764.8,683.2 		"/>
		<polyline class="st7" points="1900.4,683.2 1897.6,683.2 1897.6,684.6 1900.4,684.6 1900.4,683.2 		"/>
		<polyline class="st7" points="2027.7,683.2 2026.3,683.2 2026.3,684.6 2027.7,684.6 2027.7,683.2 		"/>
		<polyline class="st7" points="2163.3,683.2 2160.6,683.2 2161.9,684.6 2163.3,684.6 2163.3,683.2 		"/>
		<polyline class="st4" points="1213.2,683.2 1209.3,683.2 1208.6,684.6 1213.2,684.6 1213.2,683.2 		"/>
		<polyline class="st7" points="1214.6,683.2 1213.2,683.2 1213.2,684.6 1214.6,684.6 1214.6,683.2 		"/>
		<path class="st4" d="M2093.6,817.4h-65.9v2.8h65.9V817.4 M2096.1,817.4h-1.1v2.8h3.9L2096.1,817.4 M2160.5,817.4h-62.4l2.8,2.8
			h59.7V817.4 M2191.4,817.4h-28.1v2.8h28.1V817.4"/>
		<polyline class="st5" points="2095,817.4 2093.6,817.4 2093.6,820.2 2095,820.2 2095,817.4 		"/>
		<path class="st4" d="M1906.1,817.4h-4.7l-0.9,1.8v1h8.5L1906.1,817.4 M1967.6,817.4h-55.7l2.9,2.8h52.9V817.4 M2026.3,817.4H1969
			v2.8h57.3V817.4"/>
		<polyline class="st5" points="1969,817.4 1967.6,817.4 1967.6,820.2 1969,820.2 1969,817.4 		"/>
		<path class="st4" d="M1831.6,817.4h-66.8v2.8h66.8V817.4 M1897.4,817.4H1833v2.8h63L1897.4,817.4"/>
		<polyline class="st5" points="1833,817.4 1831.6,817.4 1831.6,820.2 1833,820.2 1833,817.4 		"/>
		<path class="st4" d="M1698,817.8v2.4h2.4L1698,817.8 M1282.8,817.4h-68.2v2.8h69.5l0.5-1L1282.8,817.4 M1285.5,817.4h-0.7l0.5,0.5
			L1285.5,817.4 M1354.6,817.4h-67.2l-0.4,0.8v1.4l0.6,0.6h67V817.4 M1424.6,817.4h-67v2.8h67V817.4 M1488.5,817.4H1426v2.8h64.1
			l0.4-0.8L1488.5,817.4 M1560.6,817.4h-65.5l-0.1,0.2v2.3l0.3,0.3h65.3V817.4 M1627.8,817.4H1562v2.8h65.8V817.4 M1696.6,817.4h-66
			v2.8h66V817.4 M1701.9,817.4h-2.3l1.5,1.5L1701.9,817.4 M1763.4,817.4h-59.6l-1.3,2.8h60.9V817.4"/>
		<polyline class="st5" points="1287,818.2 1286.6,819.1 1287,819.5 1287,818.2 		"/>
		<polyline class="st5" points="1426,817.4 1424.6,817.4 1424.6,820.2 1426,820.2 1426,817.4 		"/>
		<polyline class="st5" points="1562,817.4 1560.6,817.4 1560.6,820.2 1562,820.2 1562,817.4 		"/>
		<polyline class="st5" points="1697.6,817.4 1696.6,817.4 1696.6,820.2 1698,820.2 1698,817.8 1697.6,817.4 		"/>
		<polyline class="st7" points="1495,817.5 1494.3,819.1 1495,819.8 1495,817.5 		"/>
		<polyline class="st7" points="1630.6,817.4 1627.8,817.4 1627.8,820.2 1630.6,820.2 1630.6,817.4 		"/>
		<polyline class="st7" points="1764.8,817.4 1763.4,817.4 1763.4,820.2 1764.8,820.2 1764.8,817.4 		"/>
		<polyline class="st7" points="1900.4,819.2 1900,820.2 1900.4,820.2 1900.4,819.2 		"/>
		<polyline class="st7" points="2027.7,817.4 2026.3,817.4 2026.3,820.2 2027.7,820.2 2027.7,817.4 		"/>
		<polyline class="st7" points="2163.3,817.4 2160.5,817.4 2160.5,820.2 2163.3,820.2 2163.3,817.4 		"/>
		<path class="st4" d="M1085.7,817.4h-4.5v2.8h3.1L1085.7,817.4 M1148.6,817.4h-59.5l-1.4,2.8h60.9V817.4 M1213.2,817.4H1150v2.8
			h63.2V817.4"/>
		<polyline class="st5" points="1150,817.4 1148.6,817.4 1148.6,820.2 1150,820.2 1150,817.4 		"/>
		<polyline class="st4" points="1078.4,817.4 1071,817.4 1071,818.9 1071,820.2 1078.4,820.2 1078.4,817.4 		"/>
		<polyline class="st7" points="1214.6,817.4 1213.2,817.4 1213.2,820.2 1214.6,820.2 1214.6,817.4 		"/>
		<polyline class="st7" points="1081.2,817.4 1078.4,817.4 1078.4,820.2 1081.2,820.2 1081.2,817.4 		"/>
		<path class="st4" d="M2093.6,953H2050l1.4,1.4h42.2V953 M2160.5,953H2095v1.4h65.5V953 M2191.4,953h-28.1v1.4h28.1V953"/>
		<polyline class="st5" points="2095,953 2093.6,953 2093.6,954.4 2095,954.4 2095,953 		"/>
		<polyline class="st7" points="2163.3,953 2160.5,953 2160.5,954.4 2163.3,954.4 2163.3,953 		"/>
		<path class="st4" d="M1897.6,953H1837l-0.5,1l0.4,0.4h60.8V953 M1967.6,953h-67.2v1.4h67.2V953 M2026.3,953H1969v1.4h57.3V953
			 M2044.1,953h-16.4v1.4h17.8L2044.1,953"/>
		<polyline class="st5" points="1969,953 1967.6,953 1967.6,954.4 1969,954.4 1969,953 		"/>
		<polyline class="st7" points="1900.4,953 1897.6,953 1897.6,954.4 1900.4,954.4 1900.4,953 		"/>
		<polyline class="st7" points="2027.7,953 2026.3,953 2026.3,954.4 2027.7,954.4 2027.7,953 		"/>
		<path class="st4" d="M1696.6,953h-57.5l-0.7,1.4h58.1V953 M1763.4,953H1698v1.4h65.4V953 M1831.6,953h-66.8v1.4h66.8V953"/>
		<polyline class="st5" points="1698,953 1696.6,953 1696.6,954.4 1698,954.4 1698,953 		"/>
		<polyline class="st5" points="1833,953 1831.6,953 1831.6,954.4 1832.3,954.4 1833,953 		"/>
		<polyline class="st7" points="1764.8,953 1763.4,953 1763.4,954.4 1764.8,954.4 1764.8,953 		"/>
		<polyline class="st4" points="1637.2,953 1630.6,953 1630.6,953 1632,954.4 1636.5,954.4 1637.2,953 		"/>
		<polyline class="st7" points="1630.6,953 1630.6,953 1630.6,953 1630.6,953 		"/>
		<path class="st4" d="M1493.6,953h-64.9l-0.7,1.4h65.6V953 M1560.6,953H1495v1.4h65.6V953 M1626.6,953H1562v1.4h65.8v-0.2
			L1626.6,953"/>
		<polyline class="st5" points="1562,953 1560.6,953 1560.6,954.4 1562,954.4 1562,953 		"/>
		<polyline class="st7" points="1495,953 1493.6,953 1493.6,954.4 1495,954.4 1495,953 		"/>
		<polyline class="st7" points="1627.8,954.2 1627.8,954.4 1628,954.4 1627.8,954.2 		"/>
		<path class="st4" d="M1285.6,953h-65.9l-0.7,1.4h66.6V953 M1354.6,953H1287v1.4h67.6V953 M1420.9,953h-63.3v1.4h64.7L1420.9,953"
			/>
		<polyline class="st5" points="1287,953 1285.6,953 1285.6,954.4 1287,954.4 1287,953 		"/>
		<path class="st4" d="M1078.4,953h-7.4v1.4h7.4V953 M1148.6,953h-67.4v1.4h67.4V953 M1213.2,953H1150v1.4h63.2V953 M1217.9,953
			h-3.2v1.4h2.5L1217.9,953"/>
		<polyline class="st5" points="1150,953 1148.6,953 1148.6,954.4 1150,954.4 1150,953 		"/>
		<polyline class="st7" points="1214.6,953 1213.2,953 1213.2,954.4 1214.6,954.4 1214.6,953 		"/>
		<polyline class="st7" points="1081.2,953 1078.4,953 1078.4,954.4 1081.2,954.4 1081.2,953 		"/>
		<polyline class="st4" points="1424.6,953 1422.9,953 1424.3,954.4 1424.4,954.4 1424.6,953.9 1424.6,953 		"/>
		<polyline class="st5" points="1425.1,953 1424.6,953 1424.6,953.9 1425.1,953 		"/>
		<path class="st4" d="M2160.5,402.8h-9.6l1.5,1.4h8.1V402.8 M2191.4,402.8h-28.1v1.4h28.1V402.8"/>
		<polyline class="st7" points="2163.3,402.8 2160.5,402.8 2160.5,404.2 2163.3,404.2 2163.3,402.8 		"/>
		<path class="st4" d="M1967.6,402.8h-66l-0.7,1.4h66.7V402.8 M2011.9,402.8H1969v1.4h42.1L2011.9,402.8"/>
		<polyline class="st5" points="1969,402.8 1967.6,402.8 1967.6,404.2 1969,404.2 1969,402.8 		"/>
		<polyline class="st4" points="1897.6,402.8 1890.5,402.8 1891.8,404.2 1897.6,404.2 1897.6,402.8 		"/>
		<polyline class="st7" points="1899.6,402.8 1897.6,402.8 1897.6,404.2 1899,404.2 1899.6,402.8 		"/>
		<path class="st4" d="M1763.4,402.8h-65.3l-0.1,0.3v1.1h65.4V402.8 M1831.6,402.8h-66.8v1.4h66.8V402.8 M1886.6,402.8H1833v1.4
			h54.9L1886.6,402.8"/>
		<polyline class="st5" points="1698,403 1697.5,404.2 1698,404.2 1698,403 		"/>
		<polyline class="st5" points="1833,402.8 1831.6,402.8 1831.6,404.2 1833,404.2 1833,402.8 		"/>
		<polyline class="st7" points="1764.8,402.8 1763.4,402.8 1763.4,404.2 1764.8,404.2 1764.8,402.8 		"/>
		<path class="st4" d="M1424.6,402.8h-42.5l-0.7,1.4h43.2V402.8 M1483.9,402.8H1426v1.4h59.3L1483.9,402.8"/>
		<polyline class="st5" points="1426,402.8 1424.6,402.8 1424.6,404.2 1426,404.2 1426,402.8 		"/>
		<path class="st4" d="M1285.6,402.8h-1.4l1.4,1.4h0V402.8 M1290.1,402.8h-3.1v1.4h2.4L1290.1,402.8 M1294.1,402.8h-0.6l-0.7,1.4
			h0.6L1294.1,402.8"/>
		<polyline class="st5" points="1287,402.8 1285.6,402.8 1285.6,404.2 1287,404.2 1287,402.8 		"/>
		<path class="st4" d="M1148.6,402.8h-47l-0.6,1.4h47.6V402.8 M1213.2,402.8H1150v1.4h63.2V402.8 M1282.2,402.8h-67.6v1.4h69
			L1282.2,402.8"/>
		<polyline class="st5" points="1150,402.8 1148.6,402.8 1148.6,404.2 1150,404.2 1150,402.8 		"/>
		<polyline class="st7" points="1214.6,402.8 1213.2,402.8 1213.2,404.2 1214.6,404.2 1214.6,402.8 		"/>
		<path class="st4" d="M1078.4,402.8h-7.4v0.7l0.7,0.7h6.7V402.8 M1099.8,402.8h-18.6v1.4h18L1099.8,402.8"/>
		<polyline class="st7" points="1081.2,402.8 1078.4,402.8 1078.4,404.2 1081.2,404.2 1081.2,402.8 		"/>
		<path class="st4" d="M1560.6,402.8H1495v1.4h65.6V402.8 M1627.8,402.8H1562v1.4h65.8V402.8 M1685.8,402.8h-55.1v1.4h56.5
			L1685.8,402.8 M1694.5,402.8h-6.8l1.4,1.4h4.7L1694.5,402.8"/>
		<polyline class="st5" points="1562,402.8 1560.6,402.8 1560.6,404.2 1562,404.2 1562,402.8 		"/>
		<polyline class="st7" points="1495,402.8 1494.4,402.8 1493.7,404.2 1495,404.2 1495,402.8 		"/>
		<polyline class="st7" points="1630.6,402.8 1627.8,402.8 1627.8,404.2 1630.6,404.2 1630.6,402.8 		"/>
		<polyline class="st4" points="2191.4,268 2163.3,268 2163.3,270.8 2191.4,270.8 2191.4,268 		"/>
		<polyline class="st7" points="2163.3,268 2162,268 2160.7,270.8 2163.3,270.8 2163.3,268 		"/>
		<path class="st4" d="M1967.6,268h-1.7l-0.9,1.8l1,1h1.6V268 M2026.3,268H1969v2.8h57.3V268 M2093.6,268h-65.9v2.8h65.9V268
			 M2158.1,268h-63v2.8h61.7L2158.1,268"/>
		<polyline class="st5" points="1969,268 1967.6,268 1967.6,270.8 1969,270.8 1969,268 		"/>
		<polyline class="st5" points="2095,268 2093.6,268 2093.6,270.8 2095,270.8 2095,268 		"/>
		<polyline class="st7" points="2027.7,268 2026.3,268 2026.3,270.8 2027.7,270.8 2027.7,268 		"/>
		<path class="st4" d="M1763.4,269.5l-0.5,0.9l0.4,0.4h0.1V269.5 M1831.6,268h-66.8v2.8h66.8V268 M1897.6,268H1833v2.8h64.6V268
			 M1961.2,268h-60.8v2.8h62.2l0.5-1L1961.2,268 M1963.9,268h-0.7l0.5,0.5L1963.9,268"/>
		<polyline class="st5" points="1833,268 1831.6,268 1831.6,270.8 1833,270.8 1833,268 		"/>
		<polyline class="st7" points="1764.8,268 1764.2,268 1763.4,269.5 1763.4,270.8 1764.8,270.8 1764.8,268 		"/>
		<polyline class="st7" points="1900.4,268 1897.6,268 1897.6,270.8 1900.4,270.8 1900.4,268 		"/>
		<path class="st4" d="M1213.2,268h-55l-1.2,2.8h56.1V268 M1285.6,268h-71v2.8h71V268 M1346.6,268H1287v2.8h62.4L1346.6,268"/>
		<polyline class="st5" points="1287,268 1285.6,268 1285.6,270.8 1287,270.8 1287,268 		"/>
		<polyline class="st7" points="1214.6,268 1213.2,268 1213.2,270.8 1214.6,270.8 1214.6,268 		"/>
		<polyline class="st4" points="1156.4,268 1150,268 1150,268.9 1151.9,270.8 1155.3,270.8 1156.4,268 		"/>
		<polyline class="st5" points="1150,268 1149.1,268 1150,268.9 1150,268 		"/>
		<path class="st4" d="M1078.4,268h-7.4v1.6v1.2h7.4V268 M1147.2,268h-65.9v2.8h67.4v-1.3L1147.2,268"/>
		<polyline class="st5" points="1148.6,269.4 1148.6,270.8 1150,270.8 1148.6,269.4 		"/>
		<polyline class="st7" points="1081.2,268 1078.4,268 1078.4,270.8 1081.2,270.8 1081.2,268 		"/>
		<path class="st4" d="M1560.6,269.9l-0.4,0.8h0.4V269.9 M1627.8,268H1562v2.8h65.8V268 M1696.6,268h-66v2.8h66V268 M1756.8,268
			H1698v2.8h61.1l0.1-0.2L1756.8,268"/>
		<polyline class="st5" points="1562,268 1561.6,268 1560.6,269.9 1560.6,270.8 1562,270.8 1562,268 		"/>
		<polyline class="st5" points="1698,268 1696.6,268 1696.6,270.8 1698,270.8 1698,268 		"/>
		<polyline class="st7" points="1630.6,268 1627.8,268 1627.8,270.8 1630.6,270.8 1630.6,268 		"/>
		<path class="st4" d="M2093.6,134.5h-64l-0.7,1.4h64.7V134.5 M2160.5,134.5H2095v1.4h65.5V134.5 M2191.4,134.5h-28.1v1.4h28.1
			V134.5"/>
		<polyline class="st5" points="2095,134.5 2093.6,134.5 2093.6,135.9 2095,135.9 2095,134.5 		"/>
		<polyline class="st7" points="2163.3,134.5 2160.5,134.5 2160.5,135.9 2163.3,135.9 2163.3,134.5 		"/>
		<path class="st4" d="M1831.6,134.5h-2.1l-0.7,1.4h2.8V134.5 M1897.6,134.5H1833v1.4h64.6V134.5 M1967.6,134.5h-67.2v1.4h67.2
			V134.5 M2026.3,134.5H1969v1.4h57.3V134.5"/>
		<polyline class="st5" points="1833,134.5 1831.6,134.5 1831.6,135.9 1833,135.9 1833,134.5 		"/>
		<polyline class="st5" points="1969,134.5 1967.6,134.5 1967.6,135.9 1969,135.9 1969,134.5 		"/>
		<polyline class="st7" points="1900.4,134.5 1897.6,134.5 1897.6,135.9 1900.4,135.9 1900.4,134.5 		"/>
		<polyline class="st7" points="2027.6,134.5 2026.3,134.5 2026.3,135.9 2026.9,135.9 2027.6,134.5 		"/>
		<path class="st4" d="M1696.6,134.5h-64.6l1.3,1.4h63.2V134.5 M1763.4,134.5H1698v1.4h65.4V134.5 M1825.3,134.5h-60.4v1.4h60.4
			l0.5-1L1825.3,134.5"/>
		<polyline class="st5" points="1698,134.5 1696.6,134.5 1696.6,135.9 1698,135.9 1698,134.5 		"/>
		<polyline class="st7" points="1764.8,134.5 1763.4,134.5 1763.4,135.9 1764.8,135.9 1764.8,134.5 		"/>
		<path class="st4" d="M1078.4,134.5h-7.4v1.4h7.4V134.5 M1148.6,134.5h-67.4v1.4h67.4V134.5 M1210.7,134.5H1150v1.4h61.9l0-0.1
			L1210.7,134.5"/>
		<polyline class="st5" points="1150,134.5 1148.6,134.5 1148.6,135.9 1150,135.9 1150,134.5 		"/>
		<polyline class="st7" points="1081.2,134.5 1078.4,134.5 1078.4,135.9 1081.2,135.9 1081.2,134.5 		"/>
		<polyline class="st4" points="1627.8,135.3 1627.6,135.9 1627.8,135.9 1627.8,135.3 		"/>
		<polyline class="st7" points="1628.2,134.5 1627.8,135.3 1627.8,135.9 1629.5,135.9 1628.2,134.5 		"/>
		<path class="st8" d="M1357.6,338.7h-3v34.7l3,3.1V338.7 M1355.6,276.8l-1,2v58.5h3v-58.5L1355.6,276.8"/>
		<polyline class="st9" points="1357.6,337.3 1354.6,337.3 1354.6,338.7 1357.6,338.7 1357.6,337.3 		"/>
		<path class="st8" d="M1357.6,475.7h-0.4l0.4,0.4V475.7 M1357.6,453.9l-3,6.3v12.8l1.2,1.2h1.8V453.9"/>
		<polyline class="st9" points="1357.6,474.3 1355.8,474.3 1357.2,475.7 1357.6,475.7 1357.6,474.3 		"/>
		<polyline class="st8" points="1355.3,475.7 1354.6,475.7 1354.6,540.3 1357.6,540.3 1357.6,478 1355.3,475.7 		"/>
		<polyline class="st9" points="1354.6,475 1354.6,475.7 1355.3,475.7 1354.6,475 		"/>
		<path class="st8" d="M1357.6,614.7h-3v64.2l3-6V614.7 M1357.6,544.4h-3v68.9h3V544.4"/>
		<polyline class="st9" points="1357.6,613.3 1354.6,613.3 1354.6,614.7 1357.6,614.7 1357.6,613.3 		"/>
		<path class="st8" d="M1357.6,684.6h-0.4l0.4,0.3V684.6 M1357.6,676.7l-2.7,5.5l1,0.9h1.8V676.7"/>
		<polyline class="st10" points="1357.6,683.2 1355.9,683.2 1357.3,684.6 1357.6,684.6 1357.6,683.2 		"/>
		<path class="st8" d="M1357.6,1021.7h-3v55.7h3V1021.7 M1357.6,954.4h-3v65.9h3V954.4 M1354.6,887.9V953h3v-62.1L1354.6,887.9"/>
		<polyline class="st8" points="1357.6,1077.4 1354.6,1077.4 1354.6,1078.4 1357.6,1078.4 1357.6,1077.4 		"/>
		<polyline class="st9" points="1357.6,1020.3 1354.6,1020.3 1354.6,1021.7 1357.6,1021.7 1357.6,1020.3 		"/>
		<path class="st8" d="M1357.6,886.7h-2.3l2.3,2.2V886.7 M1357.6,820.2h-3v65.1h3V820.2 M1357.6,750.7h-3v66.7h3V750.7
			 M1354.6,685.9v63.4h3v-60.4L1354.6,685.9"/>
		<polyline class="st9" points="1357.6,749.3 1354.6,749.3 1354.6,750.7 1357.6,750.7 1357.6,749.3 		"/>
		<polyline class="st9" points="1357.6,885.3 1354.6,885.3 1354.6,885.9 1355.4,886.7 1357.6,886.7 1357.6,885.3 		"/>
		<polyline class="st10" points="1357.6,817.4 1354.6,817.4 1354.6,820.2 1357.6,820.2 1357.6,817.4 		"/>
		<polyline class="st10" points="1357.6,953 1354.6,953 1354.6,954.4 1357.6,954.4 1357.6,953 		"/>
		<path class="st8" d="M2160.5,540.3h-21.2l-2,4.1h23.2V540.3 M2191.4,540.3h-28.1v4.1h28.1V540.3"/>
		<polyline class="st10" points="2163.3,540.3 2160.5,540.3 2160.5,544.4 2163.3,544.4 2163.3,540.3 		"/>
		<path class="st8" d="M2026.3,540.3h-3.4l3.4,3.5V540.3 M2028.8,540.3h-1.1v2.3L2028.8,540.3 M2050.9,540.3h-18.1l-1.9,4.1h24
			L2050.9,540.3"/>
		<polyline class="st10" points="2027.7,540.3 2026.3,540.3 2026.3,543.8 2026.9,544.4 2026.9,544.4 2027.7,542.6 2027.7,540.3 		
			"/>
		<path class="st8" d="M1897.6,540.3H1836l-2,4.1h63.6V540.3 M1967.6,540.3h-67.2v4.1h67.2V540.3 M2019,540.3h-50v4.1h54L2019,540.3
			"/>
		<polyline class="st9" points="1969,540.3 1967.6,540.3 1967.6,544.4 1969,544.4 1969,540.3 		"/>
		<polyline class="st10" points="1900.4,540.3 1897.6,540.3 1897.6,544.4 1900.4,544.4 1900.4,540.3 		"/>
		<path class="st8" d="M1831.6,540.3h-7.6l4.1,4.1h3.4V540.3 M1834,540.3h-1v2.1L1834,540.3"/>
		<polyline class="st9" points="1833,540.3 1831.6,540.3 1831.6,544.4 1832.1,544.4 1833,542.3 1833,540.3 		"/>
		<path class="st8" d="M1424.6,542.5l-0.2,0.3l0.2,0.2V542.5 M1493.6,540.3H1426v4.1l0,0h67.6V540.3 M1560.6,540.3H1495v4.1h65.6
			V540.3 M1623.9,540.3H1562v4.1h63.1l0.9-1.9L1623.9,540.3"/>
		<polyline class="st9" points="1426,540.3 1425.7,540.3 1424.6,542.5 1424.6,542.9 1426,544.3 1426,540.3 		"/>
		<polyline class="st9" points="1562,540.3 1560.6,540.3 1560.6,544.4 1562,544.4 1562,540.3 		"/>
		<polyline class="st10" points="1495,540.3 1493.6,540.3 1493.6,544.4 1495,544.4 1495,540.3 		"/>
		<path class="st8" d="M1285.6,540.3h-59.9l-2,4.1h61.9V540.3 M1354.6,540.3H1287v4.1h67.6V540.3 M1420,540.3h-62.3v4.1h64.1
			l0.8-1.5L1420,540.3 M1423.8,540.3h-1.9l1.2,1.2L1423.8,540.3"/>
		<polyline class="st9" points="1287,540.3 1285.6,540.3 1285.6,544.4 1287,544.4 1287,540.3 		"/>
		<path class="st8" d="M1213.2,540.3h-2.9l2.9,2.8V540.3 M1222.3,540.3h-7.7v4.1h5.7L1222.3,540.3"/>
		<polyline class="st10" points="1214.6,540.3 1213.2,540.3 1213.2,543.1 1214.5,544.4 1214.6,544.4 1214.6,540.3 		"/>
		<path class="st8" d="M1423.8,544.1l-0.1,0.3h0.4L1423.8,544.1 M1632.1,540.3h-1.3l-0.2,0.4v0.5l0.7,0.7L1632.1,540.3"/>
		<polyline class="st10" points="1630.6,540.6 1630.5,541 1630.6,541.1 1630.6,540.6 		"/>
		<polyline class="st11" points="1357.6,540.3 1354.6,540.3 1354.6,544.4 1357.6,544.4 1357.6,540.3 		"/>
		<polyline class="st12" points="2142.7,-106.8 2144.1,-105.5 1505.3,1233.6 1503.9,1232.3 2142.7,-106.8 		"/>
		<polyline class="st12" points="2276.1,19.2 2278.8,21.8 1653.5,1339.5 1650.8,1336.9 2276.1,19.2 		"/>
		<polygon class="st12" points="2313.5,364 2314.7,365.1 1764.3,1501.9 1763.2,1500.8 		"/>
		<polygon class="st12" points="2371.2,505.9 2374,508.7 1970,1625.6 1967.2,1622.8 		"/>
		<polygon class="st12" points="2502.9,639.6 2504.3,641 2100.2,1757.9 2098.8,1756.5 		"/>
		<polyline class="st12" points="1770,-153.4 1771.3,-152.1 1110.7,1171.5 1109.4,1170.3 1770,-153.4 		"/>
		<polyline class="st12" points="1621.8,-269.9 1624,-267.6 1055.6,885.3 1053.3,883 1621.8,-269.9 		"/>
		<polyline class="st12" points="1454.5,-441.4 1455.8,-440.1 975.9,702.1 974.6,700.8 1454.5,-441.4 		"/>
		<polygon class="st12" points="1287.9,-554.2 1290.7,-551.4 886.6,565.5 883.8,562.8 		"/>
		<polygon class="st12" points="1161.9,-679.3 1163.3,-677.9 759.2,439 757.8,437.6 		"/>
		<polyline class="st12" points="619.9,-260.3 2521.9,1638.1 2521.4,1639.6 619.4,-258.8 619.9,-260.3 		"/>
		<polyline class="st12" points="556.7,-101.7 2474,1781.3 2473,1784.2 555.7,-98.8 556.7,-101.7 		"/>
		<polyline class="st12" points="491.5,38.2 2408.8,1921.2 2408.3,1922.6 491,39.7 491.5,38.2 		"/>
		<polyline class="st12" points="739.8,-555.1 2630.1,1354.9 2629.6,1356.3 739.2,-553.6 739.8,-555.1 		"/>
		<polyline class="st12" points="804.2,-725.1 2668.4,1210.4 2667.3,1213.3 803,-722.2 804.2,-725.1 		"/>
		<polygon class="st12" points="1047.4,-830.1 2964.7,1052.9 2964.2,1054.3 1046.8,-828.6 		"/>
		<polygon class="st12" points="1024.4,-1053.6 2941.8,829.3 2941.2,830.8 1023.9,-1052.2 		"/>
		<polygon class="st12" points="155.7,-87.1 2073,1795.8 2072.5,1797.3 155.2,-85.7 		"/>
		<polyline class="st12" points="845.4,-829.8 2762.7,1053.1 2762.2,1054.6 844.9,-828.3 845.4,-829.8 		"/>
		<polyline class="st13" points="1914,-45.4 1916.4,-43 1352.1,1109.4 1349.7,1107 1914,-45.4 		"/>
		<polyline class="st13" points="671.2,-401.1 2589.6,1482.9 2588,1487.1 669.7,-396.8 671.2,-401.1 		"/>
		<polyline class="st14" points="1490.3,-3.3 1285.8,-3.3 1286.3,-2.8 1287,-2.8 1287,-2.1 1287.5,-1.6 1354.6,-1.6 1357.6,-1.6 
			1489.5,-1.6 1490.3,-3.3 		"/>
		<path class="st15" d="M1424.6,68.7h-67v0.6l64.6,65.2h0.2l2.2-4.5V68.7 M1454.8,68.7H1426v58.4L1454.8,68.7 M1354.6-0.6h-66.1
			l66.1,66.8V-0.6 M1424.6-0.6h-67v67.9h67V-0.6 M1489-0.6h-63v67.9h29.5L1489-0.6"/>
		<path class="st15" d="M1354.6-1.6h-67.1l1,1h66.1V-1.6 M1489.5-1.6h-131.9v1h67v-0.9h1.4v0.9h63L1489.5-1.6"/>
		<path class="st16" d="M1424.6,67.3h-67v1.4h67V67.3 M1455.5,67.3H1426v1.4h28.8L1455.5,67.3"/>
		<polyline class="st17" points="1287,-2.8 1286.3,-2.8 1287,-2.1 1287,-2.8 		"/>
		<path class="st16" d="M1426,68.7h-1.4v61.3l1.4-2.8V68.7 M1426-0.6h-1.4v67.9h1.4V-0.6"/>
		<polyline class="st16" points="1426,-1.5 1424.6,-1.5 1424.6,-0.6 1426,-0.6 1426,-1.5 		"/>
		<polyline class="st18" points="1426,67.3 1424.6,67.3 1424.6,68.7 1426,68.7 1426,67.3 		"/>
		<polyline class="st14" points="1494.9,-3.3 1493.7,-3.3 1492.9,-1.6 1493.6,-1.6 1495,-1.6 1496.6,-1.6 1494.9,-3.3 		"/>
		<path class="st15" d="M1493.6,68.7h-35.4l-32.2,65.3v0.5h67.6V68.7 M1560.6,68.7H1495v65.8h65.6V68.7 M1564.8,68.7h-2.7v65.8h64.3
			l0.6-1.3L1564.8,68.7 M1562,65.8v1.5h1.4L1562,65.8 M1493.6-0.6h-1.2l-33.5,67.9h34.7V-0.6 M1497.5-0.6h-2.5v67.9h65.6v-2.9
			L1525.6,28L1497.5-0.6"/>
		<path class="st15" d="M1493.6-1.6h-0.8l-0.5,1h1.2V-1.6 M1496.6-1.6h-1.5v1h2.5L1496.6-1.6"/>
		<path class="st16" d="M1493.6,67.3h-34.7l-0.7,1.4h35.4V67.3 M1560.6,67.3H1495v1.4h65.6V67.3 M1563.4,67.3h-1.4v1.4h2.7
			L1563.4,67.3"/>
		<polyline class="st16" points="1426,133.9 1425.8,134.5 1426,134.5 1426,133.9 		"/>
		<path class="st16" d="M1562,68.7h-1.4v65.8h1.4V68.7 M1560.6,64.3v2.9h1.4v-1.5L1560.6,64.3"/>
		<polyline class="st18" points="1562,67.3 1560.6,67.3 1560.6,68.7 1562,68.7 1562,67.3 		"/>
		<path class="st19" d="M1495,68.7h-1.4v65.8h1.4V68.7 M1495-0.6h-1.4v67.9h1.4V-0.6"/>
		<polyline class="st19" points="1495,-1.6 1493.6,-1.6 1493.6,-0.6 1495,-0.6 1495,-1.6 		"/>
		<polyline class="st20" points="1495,67.3 1493.6,67.3 1493.6,68.7 1495,68.7 1495,67.3 		"/>
		<path class="st15" d="M1493.6,201.7h-4.9l4.9,5V201.7 M1560.6,201.7H1495v6.4l59.3,59.9h5.4l0.9-1.9V201.7 M1592.8,201.7H1562
			v61.6L1592.8,201.7 M1424.6,136.8L1424.6,136.8v0.1V136.8 M1493.6,135.9H1426v2.5l61.3,61.9h6.3V135.9 M1560.6,135.9H1495v64.4
			h65.6V135.9 M1625.6,135.9H1562v64.4h31.5L1625.6,135.9"/>
		<path class="st16" d="M1493.6,200.3h-6.3l1.4,1.4h4.9V200.3 M1560.6,200.3H1495v1.4h65.6V200.3 M1593.5,200.3H1562v1.4h30.8
			L1593.5,200.3"/>
		<polyline class="st16" points="1426,135.9 1425.1,135.9 1424.6,136.8 1424.6,136.9 1426,138.3 1426,135.9 		"/>
		<path class="st16" d="M1562,201.7h-1.4v64.4l1.4-2.8V201.7 M1562,135.9h-1.4v64.4h1.4V135.9"/>
		<polyline class="st18" points="1562,200.3 1560.6,200.3 1560.6,201.7 1562,201.7 1562,200.3 		"/>
		<path class="st19" d="M1495,201.7h-1.4v5l1.4,1.4V201.7 M1495,135.9h-1.4v64.4h1.4V135.9"/>
		<polyline class="st20" points="1495,200.3 1493.6,200.3 1493.6,201.7 1495,201.7 1495,200.3 		"/>
		<polyline class="st15" points="1558.3,270.8 1557.1,270.8 1557.9,271.6 1558.3,270.8 		"/>
		<polyline class="st19" points="1559.7,268 1554.3,268 1557.1,270.8 1558.3,270.8 1559.7,268 		"/>
		<path class="st19" d="M1493.6,134.5H1426v1.4h67.6V134.5 M1560.6,134.5H1495v1.4h65.6V134.5 M1626.3,134.5H1562v1.4h63.6
			L1626.3,134.5"/>
		<polyline class="st20" points="1426,134.5 1425.8,134.5 1425.1,135.9 1426,135.9 1426,134.5 		"/>
		<polyline class="st20" points="1562,134.5 1560.6,134.5 1560.6,135.9 1562,135.9 1562,134.5 		"/>
		<polyline class="st21" points="1495,134.5 1493.6,134.5 1493.6,135.9 1495,135.9 1495,134.5 		"/>
		<polyline class="st19" points="1422.4,134.5 1422.2,134.5 1422.3,134.6 1422.4,134.5 		"/>
		<path class="st22" d="M1357.6,68.7h-0.6l0.6,0.6V68.7 M1357.6-0.6h-3v66.8l1.1,1.1h1.9V-0.6"/>
		<polyline class="st22" points="1357.6,-1.6 1354.6,-1.6 1354.6,-0.6 1357.6,-0.6 1357.6,-1.6 		"/>
		<polyline class="st23" points="1357.6,67.3 1355.7,67.3 1357.1,68.7 1357.6,68.7 1357.6,67.3 		"/>
		<polyline class="st24" points="1627,133.2 1626.3,134.5 1625.6,135.9 1593.5,200.3 1592.8,201.7 1562,263.3 1560.6,266.1 
			1559.7,268 1558.3,270.8 1557.9,271.6 1558.8,272.5 1627.7,134 1627,133.2 		"/>
		<polyline class="st24" points="1493.7,-3.3 1490.3,-3.3 1489.5,-1.6 1489,-0.6 1455.5,67.3 1454.8,68.7 1426,127.1 1424.6,129.9 
			1422.4,134.5 1422.3,134.6 1424.6,136.9 1424.6,136.8 1425.1,135.9 1425.8,134.5 1426,133.9 1458.2,68.7 1458.9,67.3 1492.4,-0.6 
			1492.9,-1.6 1493.7,-3.3 		"/>
		<polyline class="st14" points="1283.9,-3.3 1272.3,-3.3 1271.5,-1.6 1285.5,-1.6 1283.9,-3.3 		"/>
		<path class="st15" d="M1285.6,68.7H1242l-10,23.8l-16.7,40.8l1.3,1.2h69.1V68.7 M1354.6,68.7H1287v65.8h67.6V68.7 M1287-0.1v67.4
			h66.7L1287-0.1 M1285.6-0.6h-14.5l-28.5,67.9h43V-0.6"/>
		<polyline class="st15" points="1285.5,-1.6 1271.5,-1.6 1271.1,-0.6 1285.6,-0.6 1285.6,-1.5 1285.5,-1.6 		"/>
		<path class="st16" d="M1285.6,67.3h-43l-0.6,1.4h43.6V67.3 M1353.7,67.3H1287v1.4h67.6v-0.5L1353.7,67.3"/>
		<path class="st16" d="M1287,68.7h-1.4v65.8h1.4V68.7 M1286.5-0.6h-0.9v67.9h1.4V-0.1L1286.5-0.6"/>
		<polyline class="st16" points="1285.6,-1.5 1285.6,-0.6 1286.5,-0.6 1285.6,-1.5 		"/>
		<polyline class="st18" points="1287,67.3 1285.6,67.3 1285.6,68.7 1287,68.7 1287,67.3 		"/>
		<path class="st15" d="M1389.3,201.7h-31.6v64.2L1389.3,201.7 M1421.6,135.9h-64v64.4h32.3L1421.6,135.9L1421.6,135.9 M1357.6,71.2
			v63.3h62.6L1357.6,71.2"/>
		<polyline class="st16" points="1390,200.3 1357.6,200.3 1357.6,201.7 1389.3,201.7 1390,200.3 		"/>
		<path class="st15" d="M1285.6,201.7h-0.7l0.7,0.7V201.7 M1354.6,201.7H1287v2l65.4,64.3h2.2V201.7 M1285.6,135.9H1218l65.6,64.4
			h2.1V135.9 M1354.6,135.9H1287v64.4h67.6V135.9"/>
		<path class="st16" d="M1285.6,200.3h-2.1l1.4,1.4h0.7V200.3 M1354.6,200.3H1287v1.4h67.6V200.3"/>
		<path class="st16" d="M1287,201.7h-1.4v0.7l1.4,1.4V201.7 M1287,135.9h-1.4v64.4h1.4V135.9"/>
		<polyline class="st18" points="1287,200.3 1285.6,200.3 1285.6,201.7 1287,201.7 1287,200.3 		"/>
		<path class="st15" d="M1495,210V268h57.3L1495,210 M1424.6,201.7h-32L1360,268h64.7V201.7 M1486.8,201.7H1426V268h67.6v-59.3
			L1486.8,201.7 M1426,140.3v59.9h59.3L1426,140.3 M1423.9,138.2l-30.6,62.1h31.3v-61.4L1423.9,138.2"/>
		<path class="st16" d="M1424.6,200.3h-31.3l-0.7,1.4h32V200.3 M1485.4,200.3H1426v1.4h60.7L1485.4,200.3"/>
		<path class="st16" d="M1426,201.7h-1.4V268h1.4V201.7 M1424.6,138.9v61.4h1.4v-59.9L1424.6,138.9"/>
		<polyline class="st18" points="1426,200.3 1424.6,200.3 1424.6,201.7 1426,201.7 1426,200.3 		"/>
		<polyline class="st19" points="1493.6,208.6 1493.6,268 1495,268 1495,210 1493.6,208.6 		"/>
		<path class="st15" d="M1424.6,338.7h-0.2l0.2,0.2V338.7 M1493.6,338.7H1426v1.5l63.7,62.6h2.7l1.2-2.4V338.7 M1524.4,338.7H1495
			v58.9L1524.4,338.7 M1424.6,270.8h-66.1l-0.9,1.9v0.4l65.4,64.2h1.6V270.8 M1493.6,270.8H1426v66.5h67.6V270.8 M1555.1,270.8H1495
			v66.5h30.1l32.1-64.4L1555.1,270.8"/>
		<path class="st16" d="M1424.6,337.3h-1.6l1.4,1.4h0.2V337.3 M1493.6,337.3H1426v1.4h67.6V337.3 M1525.1,337.3H1495v1.4h29.4
			L1525.1,337.3"/>
		<path class="st16" d="M1426,338.7h-1.4v0.2l1.4,1.4V338.7 M1426,270.8h-1.4v66.5h1.4V270.8"/>
		<polyline class="st18" points="1426,337.3 1424.6,337.3 1424.6,338.7 1426,338.7 1426,337.3 		"/>
		<path class="st19" d="M1495,338.7h-1.4v61.7l1.4-2.8V338.7 M1495,270.8h-1.4v66.5h1.4V270.8"/>
		<polyline class="st20" points="1495,337.3 1493.6,337.3 1493.6,338.7 1495,338.7 1495,337.3 		"/>
		<polyline class="st15" points="1491.7,404.2 1491.2,404.2 1491.5,404.5 1491.7,404.2 		"/>
		<polyline class="st19" points="1492.4,402.8 1489.7,402.8 1491.2,404.2 1491.7,404.2 1492.4,402.8 		"/>
		<path class="st19" d="M1424.6,268H1360l-1.4,2.8h66.1V268 M1493.6,268H1426v2.8h67.6V268 M1552.4,268H1495v2.8h60.1L1552.4,268"/>
		<polyline class="st20" points="1426,268 1424.6,268 1424.6,270.8 1426,270.8 1426,268 		"/>
		<polyline class="st21" points="1495,268 1493.6,268 1493.6,270.8 1495,270.8 1495,268 		"/>
		<polyline class="st19" points="1354.6,268 1352.5,268 1354.6,270.1 1354.6,268 		"/>
		<path class="st19" d="M1285.6,134.5h-69.1l1.4,1.4h67.7V134.5 M1354.6,134.5H1287v1.4h67.6V134.5 M1420.2,134.5h-62.6v1.4h64
			L1420.2,134.5"/>
		<polyline class="st20" points="1287,134.5 1285.6,134.5 1285.6,135.9 1287,135.9 1287,134.5 		"/>
		<polyline class="st22" points="1355.1,68.7 1354.6,68.7 1354.6,134.5 1357.6,134.5 1357.6,71.2 1355.1,68.7 		"/>
		<polyline class="st23" points="1354.6,68.2 1354.6,68.7 1355.1,68.7 1354.6,68.2 		"/>
		<path class="st22" d="M1357.6,201.7h-3V268h1.9l1.1-2.1V201.7 M1357.6,135.9h-3v64.4h3V135.9"/>
		<polyline class="st23" points="1357.6,200.3 1354.6,200.3 1354.6,201.7 1357.6,201.7 1357.6,200.3 		"/>
		<polyline class="st22" points="1357.6,272.7 1357.5,272.9 1357.6,273 1357.6,272.7 		"/>
		<polyline class="st25" points="1356.6,268 1354.6,268 1354.6,270.1 1355.2,270.7 1356.6,268 		"/>
		<polyline class="st25" points="1357.6,134.5 1354.6,134.5 1354.6,135.9 1357.6,135.9 1357.6,134.5 		"/>
		<polyline class="st24" points="1557.3,272.9 1525.1,337.3 1524.4,338.7 1495,397.5 1493.6,400.3 1492.4,402.8 1491.7,404.2 
			1491.5,404.5 1492.6,405.6 1558.2,273.8 1557.3,272.9 		"/>
		<polyline class="st24" points="1421.7,135.9 1390,200.3 1389.3,201.7 1357.6,265.8 1356.6,268 1355.2,270.7 1357.5,272.9 
			1357.6,272.7 1358.6,270.8 1360,268 1392.7,201.7 1393.3,200.3 1423.9,138.2 1421.7,135.9 		"/>
		<polyline class="st24" points="1272.3,-3.3 1271.3,-3.3 1232,92.4 1242,68.7 1242.6,67.3 1271.1,-0.6 1271.5,-1.6 1272.3,-3.3 		
			"/>
		<polyline class="st24" points="1285.8,-3.3 1283.9,-3.3 1285.5,-1.6 1285.6,-1.5 1286.5,-0.6 1287,-0.1 1353.7,67.3 1354.6,68.2 
			1355.1,68.7 1357.6,71.2 1420.2,134.5 1421.6,135.9 1421.7,135.9 1423.9,138.2 1424.6,138.9 1426,140.3 1485.4,200.3 
			1486.8,201.7 1493.6,208.6 1495,210 1552.4,268 1555.1,270.8 1557.3,272.9 1558.2,273.8 1558.8,272.5 1557.9,271.6 1557.1,270.8 
			1554.3,268 1495,208 1493.6,206.6 1488.7,201.7 1487.3,200.3 1426,138.3 1424.6,136.9 1424.6,136.9 1422.3,134.6 1422.2,134.5 
			1357.6,69.2 1357.1,68.7 1355.7,67.3 1354.6,66.2 1288.5,-0.6 1287.5,-1.6 1287,-2.1 1286.3,-2.8 1285.8,-3.3 		"/>
		<polyline class="st24" points="1525.6,28 1560.6,64.3 1562,65.8 1563.4,67.3 1564.8,68.7 1627,133.2 1627.7,134 1628.3,132.7 
			1525.6,28 		"/>
		<polyline class="st14" points="1215.3,133.2 1214.2,135.8 1491.6,407.6 1492.6,405.6 1491.5,404.5 1491.2,404.2 1489.7,402.8 
			1426,340.2 1424.6,338.8 1424.5,338.7 1423,337.3 1357.6,273 1357.5,272.9 1355.2,270.7 1354.6,270.1 1352.5,268 1287,203.7 
			1285.6,202.3 1285,201.7 1283.5,200.3 1218,135.9 1216.5,134.5 1215.3,133.2 		"/>
		<polygon class="st26" points="1628.3,132.7 1337.5,-165.9 1214.2,135.8 1491.6,407.6 		"/>
		<path class="st15" d="M2095,351.1v46.3l1.1,1.1l15.3-32.2L2095,351.1 M2081.6,338.7h-36.1l-3.5,6.6l51.7,50.8v-46.2L2081.6,338.7
			 M2057.2,316.1l-11.1,21.1h33.9L2057.2,316.1"/>
		<polyline class="st16" points="2080.1,337.3 2046.2,337.3 2045.4,338.7 2081.6,338.7 2080.1,337.3 		"/>
		<polyline class="st16" points="2093.6,349.8 2093.6,396.1 2095,397.4 2095,351.1 2093.6,349.8 		"/>
		<path class="st15" d="M2163.3,414.3v50.2l8.6,8.4l17-35L2163.3,414.3 M2152.4,404.2h-50.5l58.7,57.6v-50.1L2152.4,404.2
			 M2114.2,368.8l-15.3,32.3l1.6,1.6h50.4L2114.2,368.8"/>
		<polyline class="st19" points="2160.5,411.7 2160.5,461.8 2163.3,464.5 2163.3,414.3 2160.5,411.7 		"/>
		<polyline class="st19" points="2150.9,402.8 2100.5,402.8 2101.9,404.2 2152.4,404.2 2150.9,402.8 		"/>
		<polyline class="st24" points="2111.4,366.2 2096.1,398.5 2098.8,401.1 2114.2,368.8 2111.4,366.2 		"/>
		<path class="st15" d="M2095,399.4v1.4l0.4-0.9L2095,399.4 M2026.3,375.1l-14.5,27.6h14.5V375.1 M2041.3,346.6l-13.5,25.8v30.3
			h65.9V398L2041.3,346.6"/>
		<polyline class="st16" points="2093.6,398 2093.6,402.8 2094.1,402.8 2095,400.8 2095,399.4 2093.6,398 		"/>
		<polyline class="st19" points="2027.7,372.4 2026.3,375.1 2026.3,402.8 2027.7,402.8 2027.7,372.4 		"/>
		<path class="st15" d="M2093.6,475.7h-30.2l-24.7,52l12.2,12.6h42.7V475.7 M2160.5,475.7H2095v64.6h44.3l21.2-43.8V475.7
			 M2170.6,475.7h-7.3v15L2170.6,475.7 M2163.3,466.5v7.8h7.9L2163.3,466.5 M2093.6,412l-29.5,62.2h29.5V412 M2099.9,404.2h-2.5
			l-2.3,4.9v65.2h65.5v-10.5L2099.9,404.2 M2098.2,402.5l-0.1,0.3h0.4L2098.2,402.5"/>
		<path class="st16" d="M2093.6,474.3h-29.5l-0.7,1.4h30.2V474.3 M2160.5,474.3H2095v1.4h65.5V474.3 M2171.3,474.3h-7.9v1.4h7.3
			L2171.3,474.3L2171.3,474.3"/>
		<path class="st16" d="M2095,475.7h-1.4v64.6h1.4V475.7 M2095,409.1l-1.4,2.9v62.2h1.4V409.1"/>
		<polyline class="st18" points="2095,474.3 2093.6,474.3 2093.6,475.7 2095,475.7 2095,474.3 		"/>
		<path class="st19" d="M2163.3,475.7h-2.8v20.8l2.8-5.8V475.7 M2160.5,463.7v10.5h2.8v-7.8L2160.5,463.7"/>
		<polyline class="st20" points="2163.3,474.3 2160.5,474.3 2160.5,475.7 2163.3,475.7 2163.3,474.3 		"/>
		<path class="st15" d="M2026.3,475.7h-37.7l37.7,39.1V475.7 M2059.5,475.7h-31.8v40.6l8.4,8.7L2059.5,475.7 M2026.3,404.2h-15.2
			l-32.2,61.5l8.3,8.6h39.1V404.2 M2093.4,404.2h-65.7v70.1h32.4L2093.4,404.2"/>
		<path class="st16" d="M2026.3,474.3h-39.1l1.4,1.4h37.7V474.3 M2060.2,474.3h-32.4v1.4h31.8L2060.2,474.3"/>
		<path class="st19" d="M2027.7,475.7h-1.4v39.1l1.4,1.4V475.7 M2027.7,404.2h-1.4v70.1h1.4V404.2"/>
		<polyline class="st20" points="2027.7,474.3 2026.3,474.3 2026.3,475.7 2027.7,475.7 2027.7,474.3 		"/>
		<path class="st15" d="M2093.6,544.4h-38.7l38.7,40.1V544.4 M2137.3,544.4H2095v41.6l14.7,15.2L2137.3,544.4"/>
		<polyline class="st16" points="2095,544.4 2093.6,544.4 2093.6,584.5 2095,585.9 2095,544.4 		"/>
		<path class="st19" d="M2026.3,402.8h-14.5l-0.7,1.4h15.2V402.8 M2093.6,402.8h-65.9v1.4h65.7l0.2-0.4V402.8 M2098.5,402.8h-0.4
			l-0.7,1.4h2.5L2098.5,402.8"/>
		<polyline class="st20" points="2094.1,402.8 2093.6,402.8 2093.6,403.7 2094.1,402.8 		"/>
		<polyline class="st21" points="2027.7,402.8 2026.3,402.8 2026.3,404.2 2027.7,404.2 2027.7,402.8 		"/>
		<path class="st22" d="M2093.6,540.3h-42.7l4,4.1h38.7V540.3 M2139.3,540.3H2095v4.1h42.3L2139.3,540.3"/>
		<polyline class="st23" points="2095,540.3 2093.6,540.3 2093.6,544.4 2095,544.4 2095,540.3 		"/>
		<polyline class="st24" points="2095.5,399.8 2095,400.8 2094.1,402.8 2093.6,403.7 2093.4,404.2 2060.2,474.3 2059.5,475.7 
			2036.1,524.9 2038.8,527.6 2063.5,475.7 2064.1,474.3 2093.6,412 2095,409.1 2097.4,404.2 2098.1,402.8 2098.2,402.5 
			2095.5,399.8 		"/>
		<polyline class="st24" points="2042,345.3 2041.3,346.6 2093.6,398 2095,399.4 2095.5,399.8 2098.2,402.5 2098.5,402.8 
			2099.9,404.2 2160.5,463.7 2163.3,466.5 2171.3,474.3 2171.3,474.3 2171.9,472.9 2163.3,464.5 2160.5,461.8 2101.9,404.2 
			2100.5,402.8 2098.8,401.1 2096.1,398.5 2095,397.4 2093.6,396.1 2042,345.3 		"/>
		<polygon class="st26" points="2188.9,437.9 2058,317.4 1978.9,465.6 2109.8,601.2 		"/>
		<polyline class="st14" points="1652.4,1078.4 1623.4,1078.4 1619,1090.7 1664.9,1090.7 1652.4,1078.4 		"/>
		<path class="st15" d="M1627.8,1066.2l-4,11.2h4V1066.2 M1631,1057.4l-0.4,1v18.9h20.7L1631,1057.4"/>
		<polyline class="st15" points="1651.3,1077.4 1630.6,1077.4 1630.6,1078.4 1627.8,1078.4 1627.8,1077.4 1623.8,1077.4 
			1623.4,1078.4 1652.4,1078.4 1651.3,1077.4 		"/>
		<polyline class="st19" points="1630.6,1058.4 1627.8,1066.2 1627.8,1077.4 1630.6,1077.4 1630.6,1058.4 		"/>
		<polyline class="st19" points="1630.6,1077.4 1627.8,1077.4 1627.8,1078.4 1630.6,1078.4 1630.6,1077.4 		"/>
		<polygon class="st26" points="1675,1100.6 1631,1057.4 1614.5,1102.9 1658.5,1146.1 		"/>
		<path class="st15" d="M1354.6,404.2h-61.2l-1.7,3.5l58.9,60.8l3.9-8.3V404.2 M1381.4,404.2h-23.8v49.8L1381.4,404.2 M1357.6,376.4
			v26.3h24.5l0.3-0.7L1357.6,376.4 M1323.7,341.4l-10.3,20.9l-19.3,40.5h60.5v-29.4L1323.7,341.4"/>
		<path class="st19" d="M1354.6,402.8h-60.5l-0.7,1.4h61.2V402.8 M1382.1,402.8h-24.5v1.4h23.8L1382.1,402.8"/>
		<path class="st22" d="M1357.6,404.2h-3v56.1l3-6.3V404.2 M1354.6,373.3v29.4h3v-26.3L1354.6,373.3"/>
		<polyline class="st25" points="1357.6,402.8 1354.6,402.8 1354.6,404.2 1357.6,404.2 1357.6,402.8 		"/>
		<polyline class="st24" points="1323.5,341.2 1313.5,362.3 1323.7,341.4 1323.5,341.2 		"/>
		<polygon class="st26" points="1382.4,402 1323.5,341.2 1291.8,407.6 1350.7,468.5 		"/>
		<path class="st15" d="M1150,484.9v55.3h56.3L1150,484.9 M1078.4,475.7h-6.6l-0.8,1.8v62.8h7.4V475.7 M1140.6,475.7h-59.3v64.6
			h67.4v-56.7L1140.6,475.7 M1078.4,461.3l-5.9,12.9h5.9V461.3 M1093.2,429.2l-12,26.1v19h57.9L1093.2,429.2"/>
		<path class="st16" d="M1078.4,474.3h-5.9l-0.6,1.4h6.6V474.3 M1139.2,474.3h-57.9v1.4h59.3L1139.2,474.3"/>
		<polyline class="st16" points="1148.6,483.6 1148.6,540.3 1150,540.3 1150,484.9 1148.6,483.6 		"/>
		<path class="st19" d="M1081.2,475.7h-2.8v64.6h2.8V475.7 M1081.2,455.3l-2.8,6.1v12.9h2.8V455.3"/>
		<polyline class="st20" points="1081.2,474.3 1078.4,474.3 1078.4,475.7 1081.2,475.7 1081.2,474.3 		"/>
		<path class="st15" d="M1151.2,684.6h-1.2v0.4l0.6,0.6L1151.2,684.6 M1078.4,614.7L1078.4,614.7L1078.4,614.7L1078.4,614.7
			 M1148.6,614.7h-67.4v2.8l66.9,65.7h0.5V614.7 M1185.7,614.7H1150v68.5h1.8L1185.7,614.7 M1214.6,548.4v7.5l2.5-5L1214.6,548.4
			 M1078.4,544.4h-7.4v1.6v61.5l6,5.9h1.5V544.4 M1148.6,544.4h-67.4v68.9h67.4V544.4 M1210.5,544.4H1150v68.9h36.3l26.9-54.6V547
			L1210.5,544.4"/>
		<path class="st16" d="M1078.4,613.3h-1.5l1.4,1.4h0V613.3 M1148.6,613.3h-67.4v1.4h67.4V613.3 M1186.3,613.3H1150v1.4h35.6
			L1186.3,613.3"/>
		<path class="st16" d="M1150,684.6h-0.4l0.4,0.4V684.6 M1150,614.7h-1.4v68.5h1.4V614.7 M1150,544.4h-1.4v68.9h1.4V544.4"/>
		<polyline class="st18" points="1150,613.3 1148.6,613.3 1148.6,614.7 1150,614.7 1150,613.3 		"/>
		<polyline class="st19" points="1213.2,547 1213.2,558.7 1214.6,555.9 1214.6,548.4 1213.2,547 		"/>
		<path class="st19" d="M1081.2,614.7h-2.8v0l2.8,2.7V614.7 M1081.2,544.4h-2.8v68.9h2.8V544.4"/>
		<polyline class="st20" points="1081.2,613.3 1078.4,613.3 1078.4,614.7 1081.2,614.7 1081.2,613.3 		"/>
		<path class="st19" d="M1148.6,683.2h-0.5l0.5,0.5V683.2 M1151.9,683.2h-1.8v1.4h1.2L1151.9,683.2"/>
		<polyline class="st20" points="1150,683.2 1148.6,683.2 1148.6,683.6 1149.6,684.6 1150,684.6 1150,683.2 		"/>
		<path class="st15" d="M1208.6,684.6h-54.1l-1.6,3.3l37.3,36.6L1208.6,684.6 M1213.2,614.7H1189l-33.8,68.5h54l4-8.6V614.7
			 M1240.8,614.7h-26.1v56.8L1240.8,614.7 M1213.2,565.6l-23.5,47.7h23.5V565.6 M1219.4,553.1l-4.8,9.6v50.5h26.8l12.2-26.6
			L1219.4,553.1"/>
		<path class="st16" d="M1213.2,613.3h-23.5l-0.7,1.4h24.2V613.3 M1241.4,613.3h-26.8v1.4h26.1L1241.4,613.3"/>
		<path class="st19" d="M1214.6,614.7h-1.4v59.9l1.4-3V614.7 M1214.6,562.7l-1.4,2.8v47.7h1.4V562.7"/>
		<polyline class="st20" points="1214.6,613.3 1213.2,613.3 1213.2,614.7 1214.6,614.7 1214.6,613.3 		"/>
		<polyline class="st19" points="1209.3,683.2 1155.3,683.2 1154.6,684.6 1208.6,684.6 1209.3,683.2 		"/>
		<path class="st22" d="M1078.4,540.3h-7.4v1.6v2.5h7.4V540.3 M1148.6,540.3h-67.4v4.1h67.4V540.3 M1206.4,540.3H1150v4.1h60.5
			L1206.4,540.3"/>
		<polyline class="st23" points="1150,540.3 1148.6,540.3 1148.6,544.4 1150,544.4 1150,540.3 		"/>
		<polyline class="st25" points="1081.2,540.3 1078.4,540.3 1078.4,544.4 1081.2,544.4 1081.2,540.3 		"/>
		<polyline class="st24" points="1217.1,550.8 1214.6,555.9 1213.2,558.7 1186.3,613.3 1185.7,614.7 1151.9,683.2 1151.2,684.6 
			1150.7,685.6 1152.9,687.8 1154.6,684.6 1155.3,683.2 1189,614.7 1189.7,613.3 1213.2,565.6 1214.6,562.7 1219.4,553.1 
			1217.1,550.8 		"/>
		<path class="st15" d="M1078.4,684.6h-7.4v8.5l7.4,7.3V684.6 M1147.6,684.6h-66.4V703l41,40.3l26.4-53.6v-4.1L1147.6,684.6
			 M1081.2,619.4v63.8h64.9L1081.2,619.4 M1076.4,614.7h-5.4v0.2v1.4v66.9h7.4v-66.5L1076.4,614.7 M1071,609.4v3.9h4L1071,609.4"/>
		<polyline class="st16" points="1075,613.3 1071,613.3 1071,614.7 1076.4,614.7 1075,613.3 		"/>
		<polyline class="st16" points="1148.6,685.6 1148.6,689.7 1150,686.9 1148.6,685.6 		"/>
		<polyline class="st19" points="1078.4,616.6 1078.4,683.2 1081.2,683.2 1081.2,619.4 1078.4,616.6 		"/>
		<polyline class="st19" points="1081.2,684.6 1078.4,684.6 1078.4,700.3 1081.2,703 1081.2,684.6 		"/>
		<polyline class="st19" points="1146.2,683.2 1081.2,683.2 1081.2,684.6 1147.6,684.6 1146.2,683.2 		"/>
		<polyline class="st19" points="1078.4,683.2 1071,683.2 1071,684.6 1078.4,684.6 1078.4,683.2 		"/>
		<polyline class="st21" points="1081.2,683.2 1078.4,683.2 1078.4,684.6 1081.2,684.6 1081.2,683.2 		"/>
		<path class="st15" d="M1148.6,750.7h-18.9l18.9,18.6V750.7 M1178.2,750.7H1150v20l13.1,12.8L1178.2,750.7 M1148.6,696.6l-24.1,49
			l3.8,3.7h20.3V696.6 M1152.3,689.2l-2.3,4.6v55.5h28.8l10.8-23.4L1152.3,689.2"/>
		<path class="st16" d="M1148.6,749.3h-20.3l1.4,1.4h18.9V749.3 M1178.9,749.3H1150v1.4h28.2L1178.9,749.3"/>
		<path class="st16" d="M1150,750.7h-1.4v18.6l1.4,1.4V750.7 M1150,693.7l-1.4,2.8v52.7h1.4V693.7"/>
		<polyline class="st18" points="1150,749.3 1148.6,749.3 1148.6,750.7 1150,750.7 1150,749.3 		"/>
		<polyline class="st24" points="1150,686.9 1148.6,689.7 1122.2,743.3 1124.5,745.5 1148.6,696.6 1150,693.7 1152.3,689.2 
			1150,686.9 		"/>
		<polyline class="st24" points="1093.5,428.7 1093.2,429.2 1139.2,474.3 1140.6,475.7 1148.6,483.6 1150,484.9 1206.4,540.3 
			1210.5,544.4 1213.2,547 1214.6,548.4 1217.1,550.8 1219.4,553.1 1253.6,586.7 1253.9,586.2 1093.5,428.7 		"/>
		<polyline class="st24" points="1071,607.4 1071,609.4 1075,613.3 1076.4,614.7 1078.4,616.6 1081.2,619.4 1146.2,683.2 
			1147.6,684.6 1148.6,685.6 1150,686.9 1152.3,689.2 1189.6,725.8 1190.3,724.5 1152.9,687.8 1150.7,685.6 1150,685 1149.6,684.6 
			1148.6,683.6 1148.2,683.2 1081.2,617.4 1078.4,614.7 1078.4,614.7 1077,613.3 1071,607.4 		"/>
		<polygon class="st26" points="1253.9,586.2 1093.5,428.7 1002.7,625.9 1163.1,783.5 		"/>
		<path class="st15" d="M1764.8,482.6v57.6h57L1764.8,482.6 M1696.6,475.7h-33.5l-31,64.6h64.5V475.7 M1757.9,475.7H1698v64.6h65.4
			v-59L1757.9,475.7 M1698,415.1v59.1h58.5L1698,415.1 M1694.1,411.1l-0.1,0.1l-30.2,63h32.9v-60.5L1694.1,411.1L1694.1,411.1"/>
		<path class="st16" d="M1696.6,474.3h-32.9l-0.7,1.4h33.5V474.3 M1756.6,474.3H1698v1.4h59.9L1756.6,474.3"/>
		<path class="st16" d="M1698,475.7h-1.4v64.6h1.4V475.7 M1696.6,413.7v60.5h1.4v-59.1L1696.6,413.7"/>
		<polyline class="st18" points="1698,474.3 1696.6,474.3 1696.6,475.7 1698,475.7 1698,474.3 		"/>
		<polyline class="st19" points="1763.4,481.2 1763.4,540.3 1764.8,540.3 1764.8,482.6 1763.4,481.2 		"/>
		<path class="st15" d="M1763.4,614.7h-57.9l57.9,56.9V614.7 M1798.5,614.7h-33.7v58.3l4,4L1798.5,614.7 M1696.6,544.4h-62.7
			l62.7,61.6V544.4 M1763.4,544.4H1698v63l6,5.9h59.4V544.4 M1825.9,544.4h-61.1v68.9h34.4l30.9-64.7L1825.9,544.4"/>
		<path class="st16" d="M1763.4,613.3h-59.4l1.4,1.4h57.9V613.3 M1799.2,613.3h-34.4v1.4h33.7L1799.2,613.3"/>
		<polyline class="st16" points="1698,544.4 1696.6,544.4 1696.6,605.9 1698,607.3 1698,544.4 		"/>
		<path class="st19" d="M1764.8,614.7h-1.4v56.9l1.4,1.4V614.7 M1764.8,544.4h-1.4v68.9h1.4V544.4"/>
		<polyline class="st20" points="1764.8,613.3 1763.4,613.3 1763.4,614.7 1764.8,614.7 1764.8,613.3 		"/>
		<path class="st15" d="M1801.4,614.7h-0.9l-30.3,63.6l0.5,0.5L1801.4,614.7 M1831.4,549.9l-30.2,63.3h0.9l29.6-61.6v-1.5
			L1831.4,549.9"/>
		<polyline class="st16" points="1802.1,613.3 1801.2,613.3 1800.6,614.7 1801.4,614.7 1802.1,613.3 		"/>
		<polyline class="st16" points="1831.6,550.1 1831.6,551.6 1832.1,550.6 1831.6,550.1 		"/>
		<path class="st22" d="M1696.6,540.3h-64.5l-0.8,1.6l2.6,2.5h62.7V540.3 M1763.4,540.3H1698v4.1h65.4V540.3 M1821.9,540.3h-57v4.1
			h61.1L1821.9,540.3"/>
		<polyline class="st23" points="1698,540.3 1696.6,540.3 1696.6,544.4 1698,544.4 1698,540.3 		"/>
		<polyline class="st25" points="1764.8,540.3 1763.4,540.3 1763.4,544.4 1764.8,544.4 1764.8,540.3 		"/>
		<polyline class="st24" points="1830.1,548.5 1799.2,613.3 1798.5,614.7 1768.9,676.9 1770.2,678.2 1800.6,614.7 1801.2,613.3 
			1831.4,549.9 1830.1,548.5 		"/>
		<path class="st15" d="M1828.2,544.4h-0.3l2.8,2.8l0.1-0.2L1828.2,544.4 M1810.8,527.1l13,13.2h0.2L1810.8,527.1"/>
		<polyline class="st16" points="1832.2,548.3 1832.1,548.6 1832.8,549.3 1832.9,549 1832.2,548.3 		"/>
		<polyline class="st22" points="1824.1,540.3 1823.8,540.3 1827.9,544.4 1828.2,544.4 1824.1,540.3 		"/>
		<polyline class="st24" points="1830.8,547 1830.7,547.2 1832.1,548.6 1832.2,548.3 1830.8,547 		"/>
		<polyline class="st24" points="1694.1,411.1 1696.6,413.7 1698,415.1 1756.6,474.3 1757.9,475.7 1763.4,481.2 1764.8,482.6 
			1821.9,540.3 1825.9,544.4 1830.1,548.5 1831.4,549.9 1831.6,550.1 1832.1,550.6 1832.8,549.3 1832.1,548.6 1830.7,547.2 
			1827.9,544.4 1823.8,540.3 1810.8,527.1 1694.1,411.1 		"/>
		<polyline class="st14" points="1694.1,411.1 1694,411.3 1694.1,411.1 1694.1,411.1 		"/>
		<path class="st15" d="M1764.8,678.7v0.3l2,2l0.1-0.3L1764.8,678.7 M1733.9,648.3l29.6,29.4v-0.3L1733.9,648.3"/>
		<polyline class="st19" points="1763.4,677.3 1763.4,677.6 1764.8,679 1764.8,678.7 1763.4,677.3 		"/>
		<polyline class="st15" points="1768.4,682.1 1768.2,682.4 1768.7,682.8 1768.8,682.6 1768.4,682.1 		"/>
		<polyline class="st24" points="1767,680.8 1766.9,681 1768.2,682.4 1768.4,682.1 1767,680.8 		"/>
		<polyline class="st14" points="1631.4,541.8 1629.9,544.9 1733.9,648.3 1763.4,677.3 1764.8,678.7 1767,680.8 1768.4,682.1 
			1768.8,682.6 1770.7,678.7 1770.2,678.2 1768.9,676.9 1764.8,672.9 1763.4,671.6 1705.5,614.7 1704.1,613.3 1698,607.3 
			1696.6,605.9 1633.9,544.4 1631.4,541.8 		"/>
		<polygon class="st26" points="1832.9,549 1694.1,411.1 1629.9,544.9 1768.7,682.8 		"/>
		
			<rect x="1594" y="482.1" transform="matrix(0.4363 -0.8998 0.8998 0.4363 497.7163 1765.0938)" class="st27" width="127.3" height="6.4"/>
		
			<rect x="1594" y="482.1" transform="matrix(0.4363 -0.8998 0.8998 0.4363 497.7163 1765.0938)" class="st28" width="127.3" height="6.4"/>
		<polygon class="st27" points="1694.1,410.6 1696.1,448.9 1661.7,431.1 		"/>
		<polygon class="st28" points="1694.1,410.6 1696.1,448.9 1661.7,431.1 		"/>
		
			<rect x="1686.2" y="515.9" transform="matrix(0.702 -0.7122 0.7122 0.702 74.6467 1382.5634)" class="st29" width="6.4" height="172.4"/>
		
			<rect x="1686.2" y="515.9" transform="matrix(0.702 -0.7122 0.7122 0.702 74.6467 1382.5634)" class="st28" width="6.4" height="172.4"/>
		<polygon class="st29" points="1774,686 1764.2,648.6 1736.7,675.8 		"/>
		<polygon class="st28" points="1774,686 1764.2,648.6 1736.7,675.8 		"/>
	</g>
	<g>
		<defs>
			<polyline id="SVGID_3_" points="1071,1090.7 -49.4,1090.7 -49.4,-3.3 1071,-3.3 1071,1090.7 			"/>
		</defs>
		<clipPath id="SVGID_4_">
			<use xlink:href="#SVGID_3_"  style="overflow:visible;"/>
		</clipPath>
		<polyline class="st30" points="-448.7,0.4 1470.3,0.4 1470.3,1079.4 -448.7,1079.4 -448.7,0.4 		"/>
		<path class="st30" d="M1469.8,0.9v1078h-1918V0.9H1469.8 M1470.8-0.1h-1920v1080h1920V-0.1z"/>
		<rect x="-447.9" y="68.8" class="st31" width="1915.9" height="1.4"/>
		<polyline class="st31" points="-447.9,201.8 1468,201.8 1468,203.2 -447.9,203.2 -447.9,201.8 		"/>
		<polyline class="st31" points="-446.1,338.8 1469.8,338.8 1469.8,340.2 -446.1,340.2 -446.1,338.8 		"/>
		<polyline class="st31" points="-447,475.8 1468.9,475.8 1468.9,477.2 -447,477.2 -447,475.8 		"/>
		<polyline class="st31" points="-449.2,614.8 1466.7,614.8 1466.7,616.2 -449.2,616.2 -449.2,614.8 		"/>
		<rect x="-449.2" y="750.8" class="st31" width="1915.9" height="1.4"/>
		<polyline class="st31" points="-447.4,886.8 1468.5,886.8 1468.5,888.2 -447.4,888.2 -447.4,886.8 		"/>
		<rect x="-448.3" y="1021.8" class="st31" width="1915.9" height="1.4"/>
		<rect x="33.8" y="-0.8" class="st31" width="1.4" height="1080"/>
		<polyline class="st31" points="166.8,-0.8 168.2,-0.8 168.2,1079.2 166.8,1079.2 166.8,-0.8 		"/>
		<polyline class="st31" points="303.8,-1.8 305.2,-1.8 305.2,1078.2 303.8,1078.2 303.8,-1.8 		"/>
		<rect x="440.8" y="-1.3" class="st31" width="1.4" height="1080"/>
		<polyline class="st31" points="579.8,0 581.2,0 581.2,1080 579.8,1080 579.8,0 		"/>
		<rect x="715.8" y="0" class="st31" width="1.4" height="1080"/>
		<polyline class="st31" points="851.8,-1 853.2,-1 853.2,1079 851.8,1079 851.8,-1 		"/>
		<rect x="986.8" y="-0.5" class="st31" width="1.4" height="1080"/>
		<polyline class="st32" points="648.8,-0.1 650.2,-0.1 650.2,1079.9 648.8,1079.9 648.8,-0.1 		"/>
		<polyline class="st32" points="783,-0.1 785.8,-0.1 785.8,1079.9 783,1079.9 783,-0.1 		"/>
		<rect x="918.6" y="-0.1" class="st32" width="1.4" height="1080"/>
		<rect x="1052.8" y="-0.1" class="st32" width="2.8" height="1080"/>
		<polyline class="st32" points="368.4,0.5 369.8,0.5 369.8,1080.5 368.4,1080.5 368.4,0.5 		"/>
		<polyline class="st32" points="233.6,0.5 236.4,0.5 236.4,1080.5 233.6,1080.5 233.6,0.5 		"/>
		<rect x="100.1" y="0.5" class="st32" width="1.4" height="1080"/>
		<rect x="-34.7" y="0.5" class="st32" width="2.8" height="1080"/>
		<rect x="-448.2" y="684.7" class="st32" width="1919" height="1.4"/>
		<polyline class="st32" points="-448.2,818.9 1470.8,818.9 1470.8,821.7 -448.2,821.7 -448.2,818.9 		"/>
		<polyline class="st32" points="-448.2,954.5 1470.8,954.5 1470.8,955.9 -448.2,955.9 -448.2,954.5 		"/>
		<polyline class="st32" points="-449.2,404.3 1469.8,404.3 1469.8,405.7 -449.2,405.7 -449.2,404.3 		"/>
		<polyline class="st32" points="-449.2,269.5 1469.8,269.5 1469.8,272.3 -449.2,272.3 -449.2,269.5 		"/>
		<polyline class="st32" points="-449.2,136 1469.8,136 1469.8,137.4 -449.2,137.4 -449.2,136 		"/>
		<polyline class="st33" points="509.8,-0.1 512.8,-0.1 512.8,1079.9 509.8,1079.9 509.8,-0.1 		"/>
		<polyline class="st33" points="-449.2,541.8 1470.8,541.8 1470.8,545.9 -449.2,545.9 -449.2,541.8 		"/>
		<path class="st34" d="M166.8,477.2h-65.3v64.6h65.3V477.2 M233.6,477.2h-65.4v64.6h65.4V477.2 M303.8,477.2h-67.4v64.6h67.4V477.2
			 M368.4,477.2h-63.2v64.6h63.2V477.2 M166.8,405.7h-65.3v70.1h65.3V405.7 M233.6,405.7h-65.4v70.1h65.4V405.7 M303.8,405.7h-67.4
			v70.1h67.4V405.7 M368.4,405.7h-63.2v70.1h63.2V405.7 M166.8,340.2h-65.3v64.1h65.3V340.2 M233.6,340.2h-65.4v64.1h65.4V340.2
			 M303.8,340.2h-67.4v64.1h67.4V340.2 M368.4,340.2h-63.2v64.1h63.2V340.2 M166.8,272.3h-65.3v66.5h65.3V272.3 M233.6,272.3h-65.4
			v66.5h65.4V272.3 M303.8,272.3h-67.4v66.5h67.4V272.3 M368.4,272.3h-63.2v66.5h63.2V272.3"/>
		<path class="st35" d="M166.8,338.8h-65.3v1.4h65.3V338.8 M233.6,338.8h-65.4v1.4h65.4V338.8 M303.8,338.8h-67.4v1.4h67.4V338.8
			 M368.4,338.8h-63.2v1.4h63.2V338.8"/>
		<path class="st35" d="M166.8,475.8h-65.3v1.4h65.3V475.8 M233.6,475.8h-65.4v1.4h65.4V475.8 M303.8,475.8h-67.4v1.4h67.4V475.8
			 M368.4,475.8h-63.2v1.4h63.2V475.8"/>
		<path class="st35" d="M168.2,405.7h-1.4v70.1v1.4v64.6h1.4v-64.6v-1.4V405.7 M168.2,272.3h-1.4v66.5v1.4v64.1h1.4v-64.1v-1.4
			V272.3"/>
		<path class="st35" d="M305.2,405.7h-1.4v70.1v1.4v64.6h1.4v-64.6v-1.4V405.7 M305.2,272.3h-1.4v66.5v1.4v64.1h1.4v-64.1v-1.4
			V272.3"/>
		<path class="st36" d="M368.6,405.7h-0.2v70.1v1.4v64.6h0.2V405.7 M368.6,272.3h-0.2v66.5v1.4v64.1h0.2V272.3"/>
		<path class="st36" d="M236.4,405.7h-2.8v70.1v1.4v64.6h2.8v-64.6v-1.4V405.7 M236.4,272.3h-2.8v66.5v1.4v64.1h2.8v-64.1v-1.4
			V272.3"/>
		<polyline class="st36" points="368.6,404.3 368.4,404.3 305.2,404.3 303.8,404.3 236.4,404.3 233.6,404.3 168.2,404.3 
			166.8,404.3 101.5,404.3 101.5,405.7 166.8,405.7 168.2,405.7 233.6,405.7 236.4,405.7 303.8,405.7 305.2,405.7 368.4,405.7 
			368.6,405.7 368.6,404.3 		"/>
		<polyline class="st36" points="368.6,270.5 101.5,270.5 101.5,272.3 166.8,272.3 168.2,272.3 233.6,272.3 236.4,272.3 
			303.8,272.3 305.2,272.3 368.4,272.3 368.6,272.3 368.6,270.5 		"/>
		<polyline class="st37" points="368.6,541.8 368.4,541.8 305.2,541.8 303.8,541.8 236.4,541.8 233.6,541.8 168.2,541.8 
			166.8,541.8 101.5,541.8 101.5,543.7 368.6,543.7 368.6,541.8 		"/>
		<rect x="101.5" y="270.5" class="st38" width="267.1" height="273.2"/>
		<path class="st34" d="M783,203.2h-56.1v40.6H783V203.2 M851.8,203.2h-66v40.6h66V203.2 M866.3,203.2h-13v40.6h13V203.2 M783,137.4
			h-56.1v64.4H783V137.4 M851.8,137.4h-66v64.4h66V137.4 M866.3,137.4h-13v64.4h13V137.4 M783,104.4h-56.1V136H783V104.4
			 M851.8,104.4h-66V136h66V104.4 M866.3,104.4h-13V136h13V104.4"/>
		<path class="st35" d="M783,201.8h-56.1v1.4H783V201.8 M851.8,201.8h-66v1.4h66V201.8 M866.3,201.8h-13v1.4h13V201.8"/>
		<path class="st35" d="M853.2,137.4h-1.4v64.4v1.4v40.6h1.4v-40.6v-1.4V137.4 M853.2,104.4h-1.4V136h1.4V104.4"/>
		<path class="st36" d="M785.8,137.4H783v64.4v1.4v40.6h2.8v-40.6v-1.4V137.4 M785.8,104.4H783V136h2.8V104.4"/>
		<polyline class="st36" points="866.3,136 853.2,136 851.8,136 785.8,136 783,136 726.9,136 726.9,137.4 783,137.4 785.8,137.4 
			851.8,137.4 853.2,137.4 866.3,137.4 866.3,136 		"/>
		<rect x="726.9" y="104.4" class="st38" width="139.4" height="139.3"/>
		<polyline class="st34" points="693.3,909.9 650.2,909.9 650.2,953.9 693.3,953.9 693.3,909.9 		"/>
		<polyline class="st36" points="650.2,909.9 649.3,909.9 649.3,953.9 650.2,953.9 650.2,909.9 		"/>
		<rect x="649.3" y="909.9" class="st38" width="44" height="44"/>
		<path class="st34" d="M303.8,616.2h-67.4V683h67.4V616.2 M303.8,614h-67.4v0.8h67.4V614"/>
		<polyline class="st35" points="303.8,614.8 236.4,614.8 236.4,616.2 303.8,616.2 303.8,614.8 		"/>
		<polyline class="st35" points="304.1,614 303.8,614 303.8,614.8 303.8,616.2 303.8,683 304.1,683 304.1,614 		"/>
		<polyline class="st36" points="236.4,614 235.1,614 235.1,683 236.4,683 236.4,616.2 236.4,614.8 236.4,614 		"/>
		<rect x="235.1" y="614" class="st38" width="69" height="69"/>
		<path class="st34" d="M166.8,955.9h-65.3v39.1h65.3V955.9 M233.6,955.9h-65.4v39.1h65.4V955.9 M275,955.9h-38.5v39.1H275V955.9
			 M166.8,888.2h-65.3v66.3h65.3V888.2 M233.6,888.2h-65.4v66.3h65.4V888.2 M275,888.2h-38.5v66.3H275V888.2 M166.8,821.7h-65.3
			v65.1h65.3V821.7 M233.6,821.7h-65.4v65.1h65.4V821.7 M275,821.7h-38.5v65.1H275V821.7"/>
		<path class="st35" d="M166.8,886.8h-65.3v1.4h65.3V886.8 M233.6,886.8h-65.4v1.4h65.4V886.8 M275,886.8h-38.5v1.4H275V886.8"/>
		<path class="st35" d="M168.2,955.9h-1.4v39.1h1.4V955.9 M168.2,821.7h-1.4v65.1v1.4v66.3h1.4v-66.3v-1.4V821.7"/>
		<path class="st36" d="M236.4,955.9h-2.8v39.1h2.8V955.9 M236.4,821.7h-2.8v65.1v1.4v66.3h2.8v-66.3v-1.4V821.7"/>
		<polyline class="st36" points="275,821.6 101.5,821.6 101.5,821.7 166.8,821.7 168.2,821.7 233.6,821.7 236.4,821.7 275,821.7 
			275,821.6 		"/>
		<polyline class="st36" points="275,954.5 236.4,954.5 233.6,954.5 168.2,954.5 166.8,954.5 101.5,954.5 101.5,955.9 166.8,955.9 
			168.2,955.9 233.6,955.9 236.4,955.9 275,955.9 275,954.5 		"/>
		<rect x="101.5" y="821.6" class="st38" width="173.4" height="173.4"/>
		<path class="st34" d="M579.8,477.2h-67v64.6h67V477.2 M648.8,477.2h-67.6v64.6h67.6V477.2 M579.8,405.7h-67v70.1h67V405.7
			 M648.8,405.7h-67.6v70.1h67.6V405.7"/>
		<path class="st35" d="M579.8,475.8h-67v1.4h67V475.8 M648.8,475.8h-67.6v1.4h67.6V475.8"/>
		<path class="st35" d="M581.2,405.7h-1.4v70.1v1.4v64.6h1.4v-64.6v-1.4V405.7 M581.2,404.3h-1.4H581.2"/>
		<polyline class="st36" points="650.2,405.7 648.8,405.7 648.8,475.8 648.8,477.2 648.8,541.8 650.2,541.8 650.2,405.7 		"/>
		<polyline class="st36" points="650.2,404.3 581.2,404.3 579.8,404.3 512.8,404.3 512.8,405.7 579.8,405.7 581.2,405.7 
			648.8,405.7 650.2,405.7 650.2,404.3 		"/>
		<polyline class="st37" points="512.8,404.3 510.8,404.3 510.8,541.8 512.8,541.8 512.8,477.2 512.8,475.8 512.8,405.7 
			512.8,404.3 		"/>
		<polyline class="st37" points="650.2,541.8 648.8,541.8 581.2,541.8 579.8,541.8 512.8,541.8 510.8,541.8 510.8,543.7 
			650.2,543.7 650.2,541.8 		"/>
		<rect x="510.8" y="404.3" class="st38" width="139.4" height="139.4"/>
		
			<rect x="507.5" y="436.3" transform="matrix(1 -1.289832e-03 1.289832e-03 1 -0.6308 0.6592)" class="st39" width="6.4" height="106.2"/>
		
			<rect x="507.5" y="436.3" transform="matrix(1 -1.289832e-03 1.289832e-03 1 -0.6308 0.6592)" class="st40" width="6.4" height="106.2"/>
		<polygon class="st39" points="511.8,405 530.7,438.3 492,437.8 		"/>
		<polygon class="st40" points="511.8,405 530.7,438.3 492,437.8 		"/>
		
			<rect x="559.5" y="487.7" transform="matrix(3.793599e-03 -1 1 3.793599e-03 16.8487 1104.3258)" class="st41" width="6.4" height="112"/>
		
			<rect x="559.5" y="487.7" transform="matrix(3.793599e-03 -1 1 3.793599e-03 16.8487 1104.3258)" class="st40" width="6.4" height="112"/>
		<polygon class="st41" points="650.2,543.8 616.7,524.5 616.7,563.2 		"/>
		<polygon class="st40" points="650.2,543.8 616.7,524.5 616.7,563.2 		"/>
	</g>
	<rect x="1071" y="-12.2" class="st42" width="23.2" height="1099.8"/>
	<rect x="1071" y="-12.2" class="st43" width="23.2" height="1099.8"/>
</g>
</svg>
